<svg height="16" width="16" xmlns="http://www.w3.org/2000/svg">
  <path d="m3 1c-.727583 0-1.3298347 1.4994719-1.46875 3.5019531a1 1 0 0 0 -.03125-.0019531 1 1 0 0 0 -1 1 1 1 0 0 0 .25390625.6621094c-.47206531.255487-.75390625.5370113-.75390625.8378906v4 3.5c0 .277.223.5.5.5h1.5683594c.277 0 .5-.223.5-.5v-2.037109c1.4261718.330901 3.3234537.537109 5.4316406.537109 2.108187 0 4.005469-.206208 5.431641-.537109v2.037109c0 .277.223.5.5.5h1.568359c.277 0 .5-.223.5-.5v-3.5-4c0-.3005765-.280783-.5826015-.751953-.8378906a1 1 0 0 0 .251953-.6621094 1 1 0 0 0 -1-1 1 1 0 0 0 -.03125 0c-.139164-2.0015339-.741396-3.5-1.46875-3.5zm.3359375 1h9.3281245c.463099 0 .835938 1.561.835938 3.5 0 .0180219-.001889.0328258-.001953.0507812-1.432577-.339625-3.35878-.5507812-5.498047-.5507812-2.1390863 0-4.0655061.209254-5.4980469.5488281-.0000593-.0172687-.0019531-.0314981-.0019531-.0488281 0-1.939.3728419-3.5.8359375-3.5zm4.6640625 4c3.878 0 7 .6432642 7 1.4433594v3.1132816c0 .800095-3.122 1.443359-7 1.443359s-7-.643264-7-1.443359v-3.1132816c0-.8000952 3.122-1.4433594 7-1.4433594zm-5 2a1 1 0 0 0 -1 1 1 1 0 0 0 1 1 1 1 0 0 0 1-1 1 1 0 0 0 -1-1zm10 0a1 1 0 0 0 -1 1 1 1 0 0 0 1 1 1 1 0 0 0 1-1 1 1 0 0 0 -1-1zm-7.5 2c-.277 0-.5.223-.5.5s.223.5.5.5h5c.277 0 .5-.223.5-.5s-.223-.5-.5-.5z" fill="#444444"/>
</svg>
