<svg height="16" width="16" xmlns="http://www.w3.org/2000/svg">
  <g fill="#444444">
    <path d="m2 0v6l1 .75v.953125.296875 6.5c0 .831.669 1.5 1.5 1.5s1.5-.669 1.5-1.5v-6.5-.296875-.953125l1-.75v-6h-1v5.5l-1 .5v-6h-1v6l-1-.5v-5.5zm2 7.109375h.5.5v.5.390625 6.5c0 .277-.223.5-.5.5s-.5-.223-.5-.5v-6.5-.390625z"/>
    <path d="m13 0c-1.429328-.00033149-2.75018.95270754-3.4648438 2.5-.7145312 1.5470054-.7145312 3.4529946 0 5 .1335609.2841243.289266.5510474.4648438.796875v6.203125c0 .831.669 1.5 1.5 1.5s1.5-.669 1.5-1.5v-4.5-2.5zm-1 1.2806781v5.1158063 1.9628906 6.140625c0 .277-.223.5-.5.5s-.5-.223-.5-.5v-6.609375c-.284596-.2848659-.521217-.6868537-.6875-1.1679688-.3477358-1.0116792-.4341103-2.2509189-.086374-3.2625981.347894-1.012516.950803-1.9982638 1.773874-2.17938z"/>
  </g>
</svg>
