<svg width="16" height="16" viewBox="0 0 16 16" fill="none" xmlns="http://www.w3.org/2000/svg">
<g clip-path="url(#clip0)">
<path fill-rule="evenodd" clip-rule="evenodd" d="M0.500537 3.82334C0.483333 0.809021 0.860964 0.500031 4.37057 0.500031H11.63C15.1396 0.500031 15.5 0.80898 15.5 3.82334V8.00003V12.1767C15.5 15.1911 15.1396 15.5 11.63 15.5H4.37057C0.860964 15.5 0.483345 15.191 0.500537 12.1767V8.00003V3.82334ZM2.70081 8.00004C2.70081 5.13419 5.02967 2.80533 7.89551 2.80533C8.71022 2.80533 9.48119 2.99407 10.1679 3.32932V3.92048C9.49557 3.54564 8.72112 3.33138 7.89551 3.33138C5.31397 3.33138 3.22685 5.41849 3.22685 8.00004C3.22685 10.5816 5.31397 12.6687 7.89551 12.6687C10.4771 12.6687 12.5642 10.5816 12.5642 8.00004C12.5642 7.62495 12.5188 7.26079 12.4356 6.91147H12.9748C13.0499 7.26266 13.0902 7.62665 13.0902 8.00004C13.0902 10.8659 10.7614 13.1947 7.89551 13.1947C5.02967 13.1947 2.70081 10.8659 2.70081 8.00004ZM5.43913 5.48356C6.09587 4.84201 6.97738 4.48261 7.89547 4.48211V4.4816C8.72763 4.48175 9.53279 4.7769 10.1679 5.31459V6.54584C10.1679 6.74815 10.3307 6.91097 10.533 6.91097H11.2362C11.3436 7.23961 11.4021 7.58231 11.4096 7.928C11.3516 7.9168 11.2814 7.9098 11.2054 7.9098H4.49236C4.45299 7.9098 4.41587 7.9128 4.38049 7.9158C4.40248 6.99797 4.7824 6.12511 5.43913 5.48356ZM11.2054 8.11528C11.2816 8.11528 11.3519 8.10838 11.4099 8.09688V8.09714C11.4059 8.25792 11.3908 8.41823 11.3647 8.57695L11.3524 8.57646L11.3523 8.57646C11.3472 8.57621 11.3422 8.57595 11.3369 8.57595H4.62386C4.55326 8.57595 4.48802 8.58495 4.43263 8.59985C4.4047 8.43801 4.38814 8.27442 4.38306 8.11028C4.41771 8.11328 4.45394 8.11528 4.49236 8.11528H11.2054ZM4.63029 9.30168C4.5748 9.16114 4.52843 9.01717 4.49146 8.87067L4.49145 8.87051C4.53246 8.87741 4.57693 8.88141 4.62386 8.88141H11.2986C11.2623 9.02317 11.2172 9.16253 11.1635 9.29868H4.68962C4.66928 9.29868 4.64969 9.29968 4.63029 9.30168ZM4.97358 9.95641C4.90568 9.85464 4.84314 9.74939 4.7862 9.64111H11.0047C10.9474 9.74943 10.8843 9.85467 10.816 9.95641H4.97358ZM5.62215 10.6797C5.50915 10.5837 5.40234 10.4806 5.30236 10.3711H10.4892C10.3906 10.4805 10.2851 10.5836 10.1736 10.6797H5.62215ZM7.89547 11.518C7.31332 11.5169 6.74053 11.3714 6.22846 11.0944H9.56737C9.05385 11.3721 8.47928 11.5177 7.89547 11.518ZM10.4462 3.97261V4.36715L10.5134 4.43285H12.4189C12.4189 4.43285 12.61 4.50825 12.6742 4.58231C12.7163 4.63089 12.7274 4.70013 12.7376 4.76449L12.74 4.77957C12.754 4.86607 12.7477 5.02466 12.7477 5.02466H10.512L10.4462 5.09046V6.60284L10.512 6.66864H13.2737C13.2737 6.66864 13.2519 6.55466 13.2456 6.53368C13.2262 6.46982 13.1815 6.41671 13.1378 6.36492C13.135 6.36149 13.1321 6.35808 13.1292 6.35466C13.1241 6.34858 13.119 6.3425 13.114 6.33642C13.0551 6.26452 12.945 6.20835 12.945 6.20835H10.9723V5.55079H13.2737C13.2737 5.55079 13.331 4.97509 13.2737 4.69597C13.2402 4.53245 13.1762 4.36952 13.0765 4.23568C12.9742 4.09841 12.8506 3.98824 12.6896 3.92996C12.6278 3.90756 12.4847 3.90686 12.4847 3.90686H10.516L10.4462 3.97261Z" fill="#444444"/>
</g>
<defs>
<clipPath id="clip0">
<rect width="16" height="16.0001" fill="white"/>
</clipPath>
</defs>
</svg>
