<svg id="svg42" height="256" viewBox="0 0 67.73 67.73" width="256" xmlns="http://www.w3.org/2000/svg" xmlns:xlink="http://www.w3.org/1999/xlink">
  <linearGradient id="linearGradient216" gradientUnits="userSpaceOnUse" x1="334.86633" x2="334.86633" y1="140.23035" y2="160.63107">
    <stop id="stop924" offset="0" stop-color="#808080"/>
    <stop id="stop926" offset="1" stop-color="#999"/>
  </linearGradient>
  <linearGradient id="linearGradient4226" gradientTransform="matrix(0 -.11988342 .11987999 0 .362762 62.749399)" gradientUnits="userSpaceOnUse" x1="529.65515" x2="-35.310345" y1="401.58368" y2="119.09284">
    <stop id="stop4340" offset="0" stop-color="#f2f2f2"/>
    <stop id="stop4342" offset="1" stop-color="#f9f9f9"/>
  </linearGradient>
  <linearGradient id="linearGradient4358" gradientUnits="userSpaceOnUse" x1="88" x2="488" y1="88" y2="488">
    <stop id="stop4362" offset="0" stop-opacity=".588235"/>
    <stop id="stop4364" offset=".88" stop-opacity="0"/>
    <stop id="stop4366" offset="1"/>
  </linearGradient>
  <filter id="filter4380" color-interpolation-filters="sRGB" height="1.087725" width="1.105998" x="-.052999" y="-.043863">
    <feGaussianBlur id="feGaussianBlur4382" stdDeviation="8.4801079"/>
  </filter>
  <filter id="filter4346" color-interpolation-filters="sRGB" height="1.021931" width="1.0265" x="-.01325" y="-.010966">
    <feGaussianBlur id="feGaussianBlur4348" stdDeviation="2.120027"/>
  </filter>
  <path id="path1163" d="m20.703991 3.4856494c-9.338465 0-10.343273.959178-10.297505 10.3165306v19.315345 19.315344c-.04577 9.357355.95904 10.316531 10.297505 10.316531h25.969365c9.338465 0 10.297506-.959068 10.297506-10.316531v-19.315344-19.315345c0-9.3574646-.959041-10.3165306-10.297506-10.3165306z" fill="none" opacity=".2" stroke="#000" stroke-width="1.058281"/>
  <path id="rect4158-9" d="m189.84323 74c-70.59344 0-78.18921 7.250835-77.84323 77.98706v146.01294 146.01294c-.34598 70.73623 7.24979 77.98706 77.84323 77.98706h196.31354c70.59344 0 76.00668-7.27384 77.84323-77.98706v-146.01294-146.01294c0-70.737067-7.24979-77.98706-77.84323-77.98706z" filter="url(#filter4346)" opacity=".1" transform="matrix(.13228516 0 0 .13228516 -4.409451 -6.038882)"/>
  <path id="path4350" d="m189.84323 74c-70.59344 0-78.18921 7.250835-77.84323 77.98706v146.01294 146.01294c-.34598 70.73623 7.24979 77.98706 77.84323 77.98706h196.31354c70.59344 0 77.84323-7.24999 77.84323-77.98706v-146.01294-146.01294c0-70.737067-7.24979-77.98706-77.84323-77.98706z" fill="url(#linearGradient4358)" filter="url(#filter4380)" opacity=".3" transform="matrix(.13228516 0 0 .13228516 -4.409451 -6.038882)"/>
  <path id="rect4158" d="m20.703991 3.4856494c-9.338465 0-10.343273.959178-10.297505 10.3165306v19.315345 19.315344c-.04577 9.357355.95904 10.316531 10.297505 10.316531h25.969365c9.338465 0 10.297506-.959068 10.297506-10.316531v-19.315344-19.315345c0-9.3574646-.959041-10.3165306-10.297506-10.3165306z" fill="url(#linearGradient4226)"/>
  <path id="path931" d="m20.70406 3.4856494c-9.338466 0-10.343342.95934-10.297574 10.3166916v.529141c-.045768-9.3573526.959108-10.3166916 10.297574-10.3166916h25.969228c9.338467 0 10.297574.959228 10.297574 10.3166916v-.529141c0-9.3574636-.959107-10.3166916-10.297574-10.3166916z" fill="#fff" opacity=".6"/>
  <g id="g1037" enable-background="new" fill="none" stroke="#8f8f8f" stroke-linecap="square" stroke-linejoin="round" stroke-width="1.133351" transform="matrix(1.8659699 0 0 1.8658936 -593.27731 -252.86273)">
    <circle id="circle1035" cx="335.99966" cy="149.86414" r="2.266645"/>
    <ellipse id="path947" cx="335.99966" cy="149.86414" rx="8.500429" ry="8.500777"/>
  </g>
  <g id="text130" enable-background="new" fill="#888" transform="matrix(.26457031 0 0 .26457031 -6.526014 -8.155445)">
    <path id="path953" d="m129.00535 244.08597h-4.464v-24.96h4.464zm-2.256-29.472q-1.2 0-2.064-.768-.816-.816-.816-2.16 0-1.344.816-2.112.864-.816 2.064-.816 1.2 0 2.016.816.864.768.864 2.112 0 1.344-.864 2.16-.816.768-2.016.768z"/>
    <path id="path955" d="m142.49328 240.86997q2.736 0 4.032-.72 1.344-.72 1.344-2.304 0-1.632-1.296-2.592-1.296-.96-4.272-2.16-1.44-.576-2.784-1.152-1.296-.624-2.256-1.44-.96-.816-1.536-1.968-.576-1.152-.576-2.832 0-3.312 2.448-5.232 2.448-1.968 6.672-1.968 1.056 0 2.112.144 1.056.096 1.968.288.912.144 1.584.336.72.192 1.104.336l-.816 3.84q-.72-.384-2.256-.768-1.536-.432-3.696-.432-1.872 0-3.264.768-1.392.72-1.392 2.304 0 .816.288 1.44.336.624.96 1.152.672.48 1.632.912.96.432 2.304.912 1.776.672 3.168 1.344 1.392.624 2.352 1.488 1.008.864 1.536 2.112.528 1.2.528 2.976 0 3.456-2.592 5.232-2.544 1.776-7.296 1.776-3.312 0-5.184-.576-1.872-.528-2.544-.816l.816-3.84q.768.288 2.448.864 1.68.576 4.464.576z"/>
    <path id="path957" d="m180.12523 231.60597q0 2.976-.864 5.376-.864 2.4-2.448 4.128-1.536 1.728-3.696 2.688-2.16.912-4.704.912-2.544 0-4.704-.912-2.16-.96-3.744-2.688-1.536-1.728-2.4-4.128-.864-2.4-.864-5.376 0-2.928.864-5.328.864-2.448 2.4-4.176 1.584-1.728 3.744-2.64 2.16-.96 4.704-.96 2.544 0 4.704.96 2.16.912 3.696 2.64 1.584 1.728 2.448 4.176.864 2.4.864 5.328zm-4.656 0q0-4.224-1.92-6.672-1.872-2.496-5.136-2.496-3.264 0-5.184 2.496-1.872 2.448-1.872 6.672 0 4.224 1.872 6.72 1.92 2.448 5.184 2.448 3.264 0 5.136-2.448 1.92-2.496 1.92-6.72z"/>
  </g>
</svg>
