<svg height="256" viewBox="0 0 67.73 67.73" width="256" xmlns="http://www.w3.org/2000/svg" xmlns:xlink="http://www.w3.org/1999/xlink"><linearGradient id="a" gradientTransform="matrix(0 -.11988932 .11988589 0 .362755 292.54831)" gradientUnits="userSpaceOnUse" x1="529.655" x2="-35.31" y1="401.584" y2="119.093"><stop offset="0" stop-color="#f2f2f2"/><stop offset="1" stop-color="#f9f9f9"/></linearGradient><linearGradient id="b" gradientUnits="userSpaceOnUse" x1="88" x2="488" y1="88" y2="488"><stop offset="0" stop-opacity=".588235"/><stop offset=".88" stop-opacity="0"/><stop offset="1"/></linearGradient><filter id="c" color-interpolation-filters="sRGB" height="1.022" width="1.026" x="-.01" y="-.01"><feGaussianBlur stdDeviation="2.12"/></filter><g transform="translate(0 -229.26666)"><path d="m20.705011 233.28165c-9.338925 0-10.343783.95922-10.298012 10.31704v38.63259c-.04577 9.35781.959087 10.31704 10.298012 10.31704h25.970643c9.338924 0 10.298012-.95912 10.298012-10.31704v-38.63259c0-9.35793-.959088-10.31704-10.298012-10.31704z" fill="none" opacity=".2" stroke="#000" stroke-width="1.058333"/><path d="m189.84323 74c-70.59344 0-78.18921 7.250835-77.84323 77.98706v292.02588c-.34598 70.73623 7.24979 77.98706 77.84323 77.98706h196.31354c70.59344 0 76.00668-7.27384 77.84323-77.98706v-292.02588c0-70.737067-7.24979-77.98706-77.84323-77.98706z" filter="url(#c)" opacity=".1" transform="matrix(.13229167 0 0 .13229167 -4.409668 223.75665)"/><path d="m189.84323 74c-70.59344 0-78.18921 7.250835-77.84323 77.98706v292.02588c-.34598 70.73623 7.24979 77.98706 77.84323 77.98706h196.31354c70.59344 0 77.84323-7.24999 77.84323-77.98706v-292.02588c0-70.737067-7.24979-77.98706-77.84323-77.98706z" fill="url(#b)" opacity=".3" transform="matrix(.13229167 0 0 .13229167 -4.409668 223.75665)" visibility="hidden"/><path d="m20.704984 233.28165c-9.338924 0-10.343781.95922-10.298011 10.31704v38.63259c-.04577 9.35781.959087 10.31704 10.298011 10.31704h25.970643c9.338924 0 10.298012-.95912 10.298012-10.31704v-38.63259c0-9.35793-.959088-10.31704-10.298012-10.31704z" fill="url(#a)"/><path d="m20.705079 233.28165c-9.338926 0-10.343851.95939-10.29808 10.3172v.52916c-.04577-9.35781.959154-10.3172 10.29808-10.3172h25.970506c9.338927 0 10.298081.95928 10.298081 10.3172v-.52916c0-9.35793-.959154-10.3172-10.298081-10.3172z" fill="#fff" opacity=".6"/><g enable-background="new" fill="#31c6b7" transform="matrix(.23446699 0 0 .23446699 3.056165 253.71618)"><path d="m129.1 22.3c-6.3 1.6-10.6 2.8-16.8 4.4-1.5.4-1.6.5-2.9-1-1.5-1.7-2.6-2.8-4.7-3.8-6.3-3.1-12.4-2.2-18.1 1.5-6.8 4.4-10.3 10.9-10.2 19 .1 8 5.6 14.6 13.5 15.7 6.8.9 12.5-1.5 17-6.6.9-1.1 1.7-2.3 2.7-3.7h-19.3c-2.1 0-2.6-1.3-1.9-3 1.3-3.1 3.7-8.3 5.1-10.9.3-.6 1-1.6 2.5-1.6h36.4c-.2 2.7-.2 5.4-.6 8.1-1.1 7.2-3.8 13.8-8.2 19.6-7.2 9.5-16.6 15.4-28.5 17-9.8 1.3-18.9-.6-26.9-6.6-7.4-5.6-11.6-13-12.7-22.2-1.3-10.9 1.9-20.7 8.5-29.3 7.1-9.3 16.5-15.2 28-17.3 9.4-1.7 18.4-.6 26.5 4.9 5.3 3.5 9.1 8.3 11.6 14.1.6.9.2 1.4-1 1.7z"/><path d="m162.2 77.6c-9.1-.2-17.4-2.8-24.4-8.8-5.9-5.1-9.6-11.6-10.8-19.3-1.8-11.3 1.3-21.3 8.1-30.2 7.3-9.6 16.1-14.6 28-16.7 10.2-1.8 19.8-.8 28.5 5.1 7.9 5.4 12.8 12.7 14.1 22.3 1.7 13.5-2.2 24.5-11.5 33.9-6.6 6.7-14.7 10.9-24 12.8-2.7.5-5.4.6-8 .9zm23.8-40.4c-.1-1.3-.1-2.3-.3-3.3-1.8-9.9-10.9-15.5-20.4-13.3-9.3 2.1-15.3 8-17.5 17.4-1.8 7.8 2 15.7 9.2 18.9 5.5 2.4 11 2.1 16.3-.6 7.9-4.1 12.2-10.5 12.7-19.1z"/></g><g fill="#fff"><path d="m33.690332 233.28165v59.26667h12.985253c9.338924 0 10.055122-.96217 10.298081-10.31695v-38.63278c0-9.35792-.959157-10.31694-10.298081-10.31694z" opacity=".1"/><path d="m10.406999 262.91498v19.31639c-.04577 9.35782.959155 10.31695 10.29808 10.31695h25.970506c9.338924 0 10.055122-.96217 10.298081-10.31695v-19.31639z" opacity=".2"/><path d="m41.098666 292.54832 15.875-15.875v5.94886c-.01384 8.99472-1.006126 9.92614-10.100231 9.92614z" opacity=".4"/></g></g></svg>