<?xml version="1.0" encoding="UTF-8" standalone="no"?>
<svg
   xmlns:dc="http://purl.org/dc/elements/1.1/"
   xmlns:cc="http://creativecommons.org/ns#"
   xmlns:rdf="http://www.w3.org/1999/02/22-rdf-syntax-ns#"
   xmlns:svg="http://www.w3.org/2000/svg"
   xmlns="http://www.w3.org/2000/svg"
   xmlns:xlink="http://www.w3.org/1999/xlink"
   xmlns:sodipodi="http://sodipodi.sourceforge.net/DTD/sodipodi-0.dtd"
   xmlns:inkscape="http://www.inkscape.org/namespaces/inkscape"
   width="48"
   height="48"
   version="1.1"
   viewBox="0 0 12.699375 12.699375"
   id="svg94"
   sodipodi:docname="folder-music.svg"
   inkscape:version="0.92.4 (5da689c313, 2019-01-14)">
  <metadata
     id="metadata98">
    <rdf:RDF>
      <cc:Work
         rdf:about="">
        <dc:format>image/svg+xml</dc:format>
        <dc:type
           rdf:resource="http://purl.org/dc/dcmitype/StillImage" />
        <dc:title />
      </cc:Work>
    </rdf:RDF>
  </metadata>
  <sodipodi:namedview
     pagecolor="#ffffff"
     bordercolor="#666666"
     borderopacity="1"
     objecttolerance="10"
     gridtolerance="10"
     guidetolerance="10"
     inkscape:pageopacity="0"
     inkscape:pageshadow="2"
     inkscape:window-width="1920"
     inkscape:window-height="1016"
     id="namedview96"
     showgrid="false"
     inkscape:zoom="17.479167"
     inkscape:cx="13.129917"
     inkscape:cy="24"
     inkscape:window-x="0"
     inkscape:window-y="27"
     inkscape:window-maximized="1"
     inkscape:current-layer="svg94" />
  <defs
     id="defs75">
    <linearGradient
       id="linearGradient21865"
       x1="1278"
       x2="1278"
       y1="-1062.6379"
       y2="-1118.6379"
       gradientTransform="matrix(2,0,0,2.00002,-1069,630.656)"
       gradientUnits="userSpaceOnUse"
       xlink:href="#linearGradient8754" />
    <linearGradient
       id="linearGradient8754">
      <stop
         id="stop8756"
         offset="0"
         style="stop-color:#dc85e9" />
      <stop
         id="stop8758"
         offset="1"
         style="stop-color:#f8dcfb" />
    </linearGradient>
    <linearGradient
       id="linearGradient21867"
       x1="1559.5"
       x2="1542"
       y1="184"
       y2="184"
       gradientTransform="matrix(-1,0,0,1,2865,-1753.64)"
       gradientUnits="userSpaceOnUse"
       xlink:href="#linearGradient8742" />
    <linearGradient
       id="linearGradient8742">
      <stop
         id="stop8744"
         offset="0"
         style="stop-color:#9200ff" />
      <stop
         id="stop8746"
         offset="1"
         style="stop-color:#ff00ff;stop-opacity:0" />
    </linearGradient>
    <linearGradient
       id="linearGradient21869"
       x1="1559.5"
       x2="1542"
       y1="184"
       y2="184"
       gradientTransform="translate(-123,-1753.64)"
       gradientUnits="userSpaceOnUse"
       xlink:href="#linearGradient8742" />
    <radialGradient
       id="radialGradient21871"
       cx="152.33299"
       cy="-754.638"
       r="15"
       fx="152.33299"
       fy="-754.638"
       gradientTransform="matrix(4.06286e-6,1.01528,-4.27735,0,-1857.01,-1670.52)"
       gradientUnits="userSpaceOnUse"
       xlink:href="#linearGradient8717" />
    <linearGradient
       id="linearGradient8717">
      <stop
         id="stop8719"
         offset="0"
         style="stop-color:#800080" />
      <stop
         id="stop8723"
         offset=".727"
         style="stop-color:#800080" />
      <stop
         id="stop8721"
         offset="1"
         style="stop-color:#ff00ff;stop-opacity:0" />
    </linearGradient>
    <linearGradient
       id="linearGradient21873"
       x1="453.5"
       x2="404.5"
       y1="970.5"
       y2="970.5"
       gradientTransform="matrix(2,0,0,2,513,-3495.64)"
       gradientUnits="userSpaceOnUse"
       xlink:href="#linearGradient8964" />
    <linearGradient
       id="linearGradient8964">
      <stop
         id="stop8966"
         offset="0"
         style="stop-color:#e196fb" />
      <stop
         id="stop8968"
         offset=".13"
         style="stop-color:#f4c7fa" />
      <stop
         id="stop8970"
         offset=".314"
         style="stop-color:#e091f3" />
      <stop
         id="stop8972"
         offset=".441"
         style="stop-color:#d764e9" />
      <stop
         id="stop8974"
         offset=".684"
         style="stop-color:#e7adf0" />
      <stop
         id="stop8976"
         offset=".756"
         style="stop-color:#e6a9f8" />
      <stop
         id="stop8978"
         offset=".88"
         style="stop-color:#e595f2" />
      <stop
         id="stop8980"
         offset="1"
         style="stop-color:#f2cbf8" />
    </linearGradient>
    <linearGradient
       id="linearGradient21875"
       x1="1322"
       x2="1419"
       y1="-1568.511"
       y2="-1568.511"
       gradientTransform="translate(0.022825,4.5e-5)"
       gradientUnits="userSpaceOnUse"
       xlink:href="#linearGradient8663" />
    <linearGradient
       id="linearGradient8663">
      <stop
         id="stop8665"
         offset="0"
         style="stop-color:#9207a7" />
      <stop
         id="stop8667"
         offset=".273"
         style="stop-color:#c658bc" />
      <stop
         id="stop8669"
         offset=".51"
         style="stop-color:#a42eb6" />
      <stop
         id="stop8671"
         offset=".834"
         style="stop-color:#b415cd" />
      <stop
         id="stop8673"
         offset="1"
         style="stop-color:#950ba8" />
    </linearGradient>
    <radialGradient
       id="radialGradient21877"
       cx="518.854"
       cy="730.48401"
       r="22.889999"
       fx="518.854"
       fy="730.48401"
       gradientTransform="matrix(0.959821,0,1.35768e-7,0.268231,21.681,534.374)"
       gradientUnits="userSpaceOnUse"
       xlink:href="#linearGradient14494" />
    <linearGradient
       id="linearGradient14494">
      <stop
         id="stop14496"
         offset="0"
         style="stop-color:#dc85e9" />
      <stop
         id="stop14498"
         offset="1"
         style="stop-color:#f2cbf8" />
    </linearGradient>
    <linearGradient
       id="linearGradient8859">
      <stop
         id="stop8861"
         offset="0"
         style="stop-color:#ffffff" />
      <stop
         id="stop8863"
         offset="1"
         style="stop-color:#aa0000;stop-opacity:0" />
    </linearGradient>
    <linearGradient
       id="linearGradient21881"
       x1="1510.4771"
       x2="1485.877"
       y1="169"
       y2="194"
       gradientTransform="matrix(0.984483,0,0,0.972527,-100.349,-1748.97)"
       gradientUnits="userSpaceOnUse"
       xlink:href="#linearGradient8984" />
    <linearGradient
       id="linearGradient8984">
      <stop
         id="stop8986"
         offset="0"
         style="stop-color:#ffffff" />
      <stop
         id="stop8988"
         offset="1"
         style="stop-color:#ffffff;stop-opacity:0" />
    </linearGradient>
    <linearGradient
       id="linearGradient21883"
       x1="1354.568"
       x2="1383.38"
       y1="-1522.359"
       y2="-1543.981"
       gradientTransform="matrix(0.976263,0.126435,-0.367421,0.97673,-556.181,-210.596)"
       gradientUnits="userSpaceOnUse"
       xlink:href="#linearGradient8984" />
    <linearGradient
       id="linearGradient7701">
      <stop
         id="stop7699"
         offset="0"
         style="stop-color:#950ba8" />
      <stop
         id="stop7693"
         offset="1"
         style="stop-color:#c557bc" />
    </linearGradient>
    <radialGradient
       id="radialGradient21871-3"
       cx="152.33299"
       cy="-754.638"
       r="15"
       fx="152.33299"
       fy="-754.638"
       gradientTransform="matrix(4.06286e-6,1.01528,-4.27735,0,-1857.01,-1670.52)"
       gradientUnits="userSpaceOnUse"
       xlink:href="#linearGradient8717" />
    <radialGradient
       id="radialGradient21877-8"
       cx="518.854"
       cy="730.48401"
       r="22.889999"
       fx="518.854"
       fy="730.48401"
       gradientTransform="matrix(0.959821,0,1.35768e-7,0.268231,21.681,534.374)"
       gradientUnits="userSpaceOnUse"
       xlink:href="#linearGradient14494" />
    <linearGradient
       id="linearGradient9981">
      <stop
         id="stop9983"
         offset="0"
         style="stop-color:rgb(255, 246, 221)" />
      <stop
         id="stop9985"
         offset="1"
         style="stop-color:rgb(254, 248, 244)" />
    </linearGradient>
    <clipPath
       id="clipPath999"
       clipPathUnits="userSpaceOnUse">
      <path
         style="opacity:0.56300001;fill:#111111"
         d="m 142.9375,44 h 18.125 c 35.90898,0 54.29517,3.184359 63.02539,11.925781 C 232.81811,64.667204 236,80 236,112 c 0,32 -3.18189,47.3328 -11.91211,56.07422 C 215.35767,176.81564 196.97148,180 161.0625,180 h -18.125 C 107.02867,180 88.64237,176.81566 79.912109,168.07422 71.181849,159.33278 68,144 68,112 68,80 71.181849,64.667219 79.912109,55.925781 88.64237,47.184344 107.02867,44 142.9375,44 Z"
         id="path53"
         inkscape:connector-curvature="0" />
    </clipPath>
    <linearGradient
       id="linearGradient3886"
       x1="72"
       x2="88"
       y1="108"
       y2="108"
       gradientUnits="userSpaceOnUse"
       xlink:href="#linearGradient2684" />
    <linearGradient
       id="linearGradient2684">
      <stop
         style="stop-color:#000000"
         id="stop2680"
         offset="0" />
      <stop
         style="stop-color:#103134"
         id="stop2682"
         offset="1" />
    </linearGradient>
    <clipPath
       id="clipPath960"
       clipPathUnits="userSpaceOnUse">
      <path
         d="M 244,192.96875 C 244,265.6174 233.64338,276 161.0625,276 h -18.125 C 70.35691,276 60,265.6174 60,192.96875 v -73.9375 C 60,46.3826 70.35691,36 142.9375,36 h 18.125 C 233.64338,36 244,46.3826 244,119.03125 Z"
         style="fill:#2daaaa"
         id="path60"
         inkscape:connector-curvature="0" />
    </clipPath>
    <linearGradient
       id="linearGradient928">
      <stop
         style="stop-color:#808080"
         id="stop924"
         offset="0" />
      <stop
         style="stop-color:#999999"
         id="stop926"
         offset="1" />
    </linearGradient>
    <linearGradient
       id="linearGradient1884"
       x1="152.006"
       x2="152.006"
       y1="112.013"
       y2="239.995"
       gradientTransform="matrix(0.26488626,0,0,0.26488626,-6.4611988,222.04517)"
       gradientUnits="userSpaceOnUse"
       xlink:href="#linearGradient928" />
    <linearGradient
       id="linearGradient3212"
       x1="529.65503"
       x2="-35.310001"
       y1="295.638"
       y2="295.638"
       gradientTransform="matrix(0,-0.11988932,-0.11988589,0,67.723427,291.97285)"
       gradientUnits="userSpaceOnUse"
       xlink:href="#linearGradient876" />
    <linearGradient
       id="linearGradient876">
      <stop
         style="stop-color:#b3b3b3"
         id="stop872"
         offset="0" />
      <stop
         style="stop-color:#d9d9d9"
         id="stop874"
         offset="1" />
    </linearGradient>
    <filter
       style="color-interpolation-filters:sRGB"
       id="filter1203"
       width="1.136"
       height="1.107"
       x="-0.07"
       y="-0.050000001">
      <feGaussianBlur
         id="feGaussianBlur1205"
         stdDeviation="10" />
    </filter>
    <filter
       style="color-interpolation-filters:sRGB"
       id="filter4346"
       width="1.026"
       height="1.022"
       x="-0.0099999998"
       y="-0.0099999998">
      <feGaussianBlur
         id="feGaussianBlur4348"
         stdDeviation="2.12" />
    </filter>
    <linearGradient
       inkscape:collect="always"
       xlink:href="#linearGradient3388"
       id="linearGradient11908"
       gradientUnits="userSpaceOnUse"
       gradientTransform="matrix(0.26457031,0,0,0.26457031,-84.679537,-16.138795)"
       x1="321"
       y1="70"
       x2="367"
       y2="105" />
    <linearGradient
       inkscape:collect="always"
       id="linearGradient3388">
      <stop
         style="stop-color:#666666;stop-opacity:1;"
         offset="0"
         id="stop3384" />
      <stop
         style="stop-color:#7a7a7a;stop-opacity:1"
         offset="1"
         id="stop3386" />
    </linearGradient>
    <linearGradient
       inkscape:collect="always"
       xlink:href="#linearGradient36441"
       id="linearGradient11898"
       gradientUnits="userSpaceOnUse"
       gradientTransform="matrix(0.26457031,0,0,0.26457031,-84.679537,-16.138795)"
       x1="321"
       y1="106"
       x2="367"
       y2="63" />
    <linearGradient
       inkscape:collect="always"
       id="linearGradient36441">
      <stop
         style="stop-color:#2c001e;stop-opacity:1"
         offset="0"
         id="stop36437" />
      <stop
         id="stop36445"
         offset="0.10864977"
         style="stop-color:#2c001e;stop-opacity:1" />
      <stop
         style="stop-color:#370626;stop-opacity:1"
         offset="0.18689813"
         id="stop36449" />
      <stop
         id="stop36451"
         offset="0.2980746"
         style="stop-color:#55163b;stop-opacity:1" />
      <stop
         style="stop-color:#772953;stop-opacity:1"
         offset="0.37246177"
         id="stop36453" />
      <stop
         style="stop-color:#7c2b51;stop-opacity:1"
         offset="0.44700962"
         id="stop36447" />
      <stop
         id="stop36455"
         offset="0.52428877"
         style="stop-color:#8b314b;stop-opacity:1" />
      <stop
         style="stop-color:#8b314b;stop-opacity:1"
         offset="0.59614229"
         id="stop36457" />
      <stop
         id="stop36459"
         offset="0.66876179"
         style="stop-color:#a33a41;stop-opacity:1" />
      <stop
         style="stop-color:#c44732;stop-opacity:1"
         offset="0.79755175"
         id="stop36461" />
      <stop
         id="stop36463"
         offset="0.91251218"
         style="stop-color:#e65524;stop-opacity:1" />
      <stop
         style="stop-color:#e65524;stop-opacity:1"
         offset="1"
         id="stop36439" />
    </linearGradient>
  </defs>
  <path
     sodipodi:nodetypes="sccsccscccssccccssccccccsccs"
     inkscape:connector-curvature="0"
     id="path3461-3"
     d="m 2.5790579,0.79370529 c -0.7673598,0 -1.3363447,-0.025134 -1.76103295,0.29609121 C 0.602797,1.2525919 0.45990257,1.4978062 0.37775349,1.8085811 0.29592189,2.1181124 0.26457031,2.5001044 0.26457031,2.9960468 v 2.4886144 0.8650206 3.2461533 c 0,0.5164999 0.0140222,0.9104839 0.070799,1.2288049 0.0569884,0.319035 0.16461564,0.577967 0.36690611,0.758058 0.20176132,0.17963 0.46371238,0.253966 0.76579878,0.288855 0.3018218,0.03486 0.6604469,0.03411 1.1109837,0.03411 h 7.5412861 c 0.442044,0 0.796383,5.29e-4 1.096512,-0.03411 v 0 c 0.300367,-0.03489 0.562344,-0.108823 0.765825,-0.287305 0.203931,-0.178908 0.315606,-0.437335 0.375664,-0.757023 0.05992,-0.318974 0.07596,-0.714131 0.07596,-1.2313899 V 4.6909503 c 0,-0.068328 -0.0032,-0.1127361 -0.0037,-0.1601894 v -0.0031 l 0.0037,-0.4960693 c 0.0034,-0.4789279 0.005,-0.8601498 -0.03048,-1.1786819 C 12.368375,2.534308 12.293578,2.2628218 12.113935,2.0519699 11.933498,1.840229 11.670885,1.7238418 11.349141,1.6628663 11.028403,1.6020972 10.633611,1.5874214 10.119814,1.5874214 H 5.912538 L 5.118827,0.79371059 Z"
     style="color:#000000;font-style:normal;font-variant:normal;font-weight:normal;font-stretch:normal;font-size:medium;line-height:normal;font-family:sans-serif;font-variant-ligatures:normal;font-variant-position:normal;font-variant-caps:normal;font-variant-numeric:normal;font-variant-alternates:normal;font-feature-settings:normal;text-indent:0;text-align:start;text-decoration:none;text-decoration-line:none;text-decoration-style:solid;text-decoration-color:#000000;letter-spacing:normal;word-spacing:normal;text-transform:none;writing-mode:lr-tb;direction:ltr;text-orientation:mixed;dominant-baseline:auto;baseline-shift:baseline;text-anchor:start;white-space:normal;shape-padding:0;clip-rule:nonzero;display:inline;overflow:visible;visibility:visible;opacity:0.1;isolation:auto;mix-blend-mode:normal;color-interpolation:sRGB;color-interpolation-filters:linearRGB;solid-color:#000000;solid-opacity:1;vector-effect:none;fill:#000000;fill-opacity:1;fill-rule:nonzero;stroke:none;stroke-width:0.26457033;stroke-linecap:butt;stroke-linejoin:miter;stroke-miterlimit:4;stroke-dasharray:none;stroke-dashoffset:0;stroke-opacity:1;marker:none;color-rendering:auto;image-rendering:auto;shape-rendering:auto;text-rendering:auto;enable-background:accumulate" />
  <path
     inkscape:connector-curvature="0"
     id="path3463-01"
     d="m 2.5790579,0.52913499 c -0.7673598,0 -1.3363447,-0.025134 -1.76103295,0.2960912 C 0.602797,0.98802157 0.45990257,1.2332359 0.37775349,1.5440107 0.29592189,1.8535421 0.26457031,2.235534 0.26457031,2.7314764 V 5.0268302 H 12.434805 V 4.4263799 c 0,-0.068328 -0.0032,-0.112736 -0.0037,-0.1601893 v -0.0031 l 0.0037,-0.4960694 c 0.0034,-0.4789278 0.005,-0.8601498 -0.03048,-1.1786819 C 12.368875,2.2697377 12.294107,1.9982515 12.114437,1.7873996 11.934027,1.5756586 11.671388,1.4592716 11.34967,1.398296 11.028905,1.3375295 10.63414,1.3228511 10.120344,1.3228511 H 5.9130671 L 5.1193562,0.52914029 Z"
     style="color:#000000;font-style:normal;font-variant:normal;font-weight:normal;font-stretch:normal;font-size:medium;line-height:normal;font-family:sans-serif;font-variant-ligatures:normal;font-variant-position:normal;font-variant-caps:normal;font-variant-numeric:normal;font-variant-alternates:normal;font-feature-settings:normal;text-indent:0;text-align:start;text-decoration:none;text-decoration-line:none;text-decoration-style:solid;text-decoration-color:#000000;letter-spacing:normal;word-spacing:normal;text-transform:none;writing-mode:lr-tb;direction:ltr;text-orientation:mixed;dominant-baseline:auto;baseline-shift:baseline;text-anchor:start;white-space:normal;shape-padding:0;clip-rule:nonzero;display:inline;overflow:visible;visibility:visible;opacity:1;isolation:auto;mix-blend-mode:normal;color-interpolation:sRGB;color-interpolation-filters:linearRGB;solid-color:#000000;solid-opacity:1;vector-effect:none;fill:url(#linearGradient11898);fill-opacity:1;fill-rule:nonzero;stroke:none;stroke-width:0.26457033;stroke-linecap:butt;stroke-linejoin:miter;stroke-miterlimit:4;stroke-dasharray:none;stroke-dashoffset:0;stroke-opacity:1;marker:none;color-rendering:auto;image-rendering:auto;shape-rendering:auto;text-rendering:auto;enable-background:accumulate" />
  <path
     inkscape:connector-curvature="0"
     id="path3485-99"
     d="M 6.068608,2.3811271 5.2743679,3.174838 h -2.69531 c -1.80246466,0 -2.04989082,-5.55e-5 -2.04989082,2.0452529 v 0.2645703 c 0,-2.0453084 0.24742616,-2.0452529 2.04989082,-2.0452529 h 2.69531 L 6.068608,2.6456974 h 4.051736 c 1.768362,0 2.049918,-5.56e-5 2.049918,2.0452529 V 4.4263799 c 0,-2.0453084 -0.281556,-2.0452528 -2.049918,-2.0452528 z"
     style="color:#000000;display:inline;overflow:visible;visibility:visible;opacity:0.3;fill:#ffffff;fill-opacity:1;fill-rule:nonzero;stroke:none;stroke-width:0.26457033;marker:none;enable-background:accumulate" />
  <path
     sodipodi:nodetypes="sccsccscccssccccssccccccsccs"
     inkscape:connector-curvature="0"
     style="color:#000000;font-style:normal;font-variant:normal;font-weight:normal;font-stretch:normal;font-size:medium;line-height:normal;font-family:sans-serif;font-variant-ligatures:normal;font-variant-position:normal;font-variant-caps:normal;font-variant-numeric:normal;font-variant-alternates:normal;font-feature-settings:normal;text-indent:0;text-align:start;text-decoration:none;text-decoration-line:none;text-decoration-style:solid;text-decoration-color:#000000;letter-spacing:normal;word-spacing:normal;text-transform:none;writing-mode:lr-tb;direction:ltr;text-orientation:mixed;dominant-baseline:auto;baseline-shift:baseline;text-anchor:start;white-space:normal;shape-padding:0;clip-rule:nonzero;display:inline;overflow:visible;visibility:visible;opacity:1;isolation:auto;mix-blend-mode:normal;color-interpolation:sRGB;color-interpolation-filters:linearRGB;solid-color:#000000;solid-opacity:1;vector-effect:none;fill:url(#linearGradient11908);fill-opacity:1;fill-rule:nonzero;stroke:none;stroke-width:0.26457033;stroke-linecap:butt;stroke-linejoin:miter;stroke-miterlimit:4;stroke-dasharray:none;stroke-dashoffset:0;stroke-opacity:1;marker:none;color-rendering:auto;image-rendering:auto;shape-rendering:auto;text-rendering:auto;enable-background:accumulate"
     d="m 10.122063,2.3811271 c 0.767361,0 1.336346,-0.025134 1.761034,0.2960912 0.215228,0.1627954 0.358122,0.4080099 0.440271,0.7187846 0.08181,0.3095314 0.113157,0.6915233 0.113157,1.1874657 V 7.0720831 8.201674 9.3312648 c 0,0.5164995 -0.01402,0.9104872 -0.0708,1.2288052 -0.05696,0.319035 -0.164589,0.577967 -0.36688,0.758057 -0.201787,0.17963 -0.463712,0.253967 -0.765798,0.288855 -0.301822,0.03486 -0.660447,0.03411 -1.110985,0.03411 H 2.5807511 c -0.4420176,0 -0.7963831,5.29e-4 -1.0965117,-0.03411 v 0 C 1.1838992,11.572094 0.92189525,11.498159 0.71844068,11.319678 0.51448343,11.14077 0.4028083,10.882343 0.34277729,10.562655 0.28285212,10.24368 0.26681916,9.8485236 0.26681916,9.3312648 V 6.2783721 c 0,-0.068328 0.003175,-0.112736 0.003704,-0.1601894 v -0.0031 L 0.26681916,5.6190179 C 0.26338016,5.1400901 0.26179216,4.7588681 0.29729766,4.440336 0.33275008,4.1217299 0.40751765,3.8502437 0.58718735,3.6393917 0.76759785,3.4276508 1.0302368,3.3112637 1.3519543,3.2502882 1.6727458,3.1895217 2.0701039,3.1232178 2.5813067,3.1748433 H 5.2011613 L 5.9948722,2.3811324 Z"
     id="path3523-21" />
  <path
     sodipodi:nodetypes="ccssc"
     inkscape:connector-curvature="0"
     style="color:#000000;display:inline;overflow:visible;visibility:visible;opacity:0.05;fill:#ffffff;fill-opacity:1;fill-rule:nonzero;stroke:none;stroke-width:0.26457033;marker:none;enable-background:accumulate"
     d="m 12.417767,8.201674 -3.1748444,3.174844 h 1.2404654 c 1.754524,0 1.934379,-0.179781 1.934379,-1.9307974 z"
     id="path3525-20" />
  <path
     inkscape:connector-curvature="0"
     id="path3527-7"
     d="m 0.26459677,9.0666945 v 0.2645703 c 0,0.5164995 0.0140222,0.9104842 0.0707726,1.2288052 0.0569884,0.319035 0.16461564,0.577967 0.36690611,0.758057 0.20176132,0.17963 0.46371232,0.253967 0.76579872,0.288855 0.3018218,0.03486 0.6604469,0.03411 1.1109837,0.03411 h 7.5412861 c 0.442044,0 0.796383,5.29e-4 1.096512,-0.03411 v 0 c 0.300367,-0.03489 0.562344,-0.108823 0.765825,-0.287304 0.203931,-0.178908 0.315606,-0.437335 0.375664,-0.757023 0.05992,-0.318975 0.07596,-0.7141314 0.07596,-1.2313902 V 9.0666945 c 0,0.5172588 -0.01614,0.9124157 -0.07596,1.2313895 -0.06006,0.319689 -0.171733,0.578116 -0.375664,0.757023 -0.203481,0.178482 -0.465458,0.252416 -0.765825,0.287305 v 0 c -0.300129,0.03463 -0.654468,0.03411 -1.096512,0.03411 H 2.5790579 c -0.4505368,0 -0.8091619,7.94e-4 -1.1109837,-0.03411 C 1.1659878,11.307523 0.90403676,11.233187 0.70227544,11.053557 0.49998497,10.873467 0.39235777,10.614534 0.33536933,10.295499 0.27856608,9.9771789 0.26457031,9.583194 0.26459677,9.0666945 Z"
     style="color:#000000;font-style:normal;font-variant:normal;font-weight:normal;font-stretch:normal;font-size:medium;line-height:normal;font-family:sans-serif;font-variant-ligatures:normal;font-variant-position:normal;font-variant-caps:normal;font-variant-numeric:normal;font-variant-alternates:normal;font-feature-settings:normal;text-indent:0;text-align:start;text-decoration:none;text-decoration-line:none;text-decoration-style:solid;text-decoration-color:#000000;letter-spacing:normal;word-spacing:normal;text-transform:none;writing-mode:lr-tb;direction:ltr;text-orientation:mixed;dominant-baseline:auto;baseline-shift:baseline;text-anchor:start;white-space:normal;shape-padding:0;clip-rule:nonzero;display:inline;overflow:visible;visibility:visible;opacity:0.2;isolation:auto;mix-blend-mode:normal;color-interpolation:sRGB;color-interpolation-filters:linearRGB;solid-color:#000000;solid-opacity:1;vector-effect:none;fill:#000000;fill-opacity:1;fill-rule:nonzero;stroke:none;stroke-width:0.26457033;stroke-linecap:butt;stroke-linejoin:miter;stroke-miterlimit:4;stroke-dasharray:none;stroke-dashoffset:0;stroke-opacity:1;marker:none;color-rendering:auto;image-rendering:auto;shape-rendering:auto;text-rendering:auto;enable-background:accumulate" />
  <path
     inkscape:connector-curvature="0"
     id="path3529-31"
     d="M 5.9941844,2.3811271 5.2004734,3.174838 H 2.5806188 C 2.0694161,3.1232125 1.6720579,3.1895217 1.3512929,3.2502829 1.0295754,3.3112584 0.76693642,3.4276482 0.58652592,3.6393864 0.40685622,3.8502384 0.3320622,4.1217246 0.29663623,4.4403307 0.27732263,4.6136613 0.26970293,4.8107345 0.26666043,5.0268302 h 0.0103182 C 0.28147663,4.9148191 0.28597363,4.801792 0.29655683,4.704901 0.33200928,4.3862949 0.40677685,4.1148087 0.58644655,3.9039568 0.76685705,3.6922185 1.029496,3.5758287 1.3512135,3.5148532 1.6719785,3.4540867 2.0693367,3.3877827 2.5805394,3.4394083 H 5.2003941 L 5.994105,2.6456974 h 4.12772 c 0.767361,0 1.336346,-0.025134 1.761034,0.2960913 0.215228,0.1627954 0.358122,0.4080097 0.440271,0.7187845 0.0818,0.3095314 0.113157,0.6915233 0.113157,1.1874657 V 4.5834686 c 0,-0.4959424 -0.03135,-0.8779343 -0.113157,-1.1874657 C 12.24098,3.0852282 12.098087,2.8400137 11.882859,2.6772183 11.458171,2.3559823 10.889186,2.3811271 10.121825,2.3811271 Z"
     style="color:#000000;font-style:normal;font-variant:normal;font-weight:normal;font-stretch:normal;font-size:medium;line-height:normal;font-family:sans-serif;font-variant-ligatures:normal;font-variant-position:normal;font-variant-caps:normal;font-variant-numeric:normal;font-variant-alternates:normal;font-feature-settings:normal;text-indent:0;text-align:start;text-decoration:none;text-decoration-line:none;text-decoration-style:solid;text-decoration-color:#000000;letter-spacing:normal;word-spacing:normal;text-transform:none;writing-mode:lr-tb;direction:ltr;text-orientation:mixed;dominant-baseline:auto;baseline-shift:baseline;text-anchor:start;white-space:normal;shape-padding:0;clip-rule:nonzero;display:inline;overflow:visible;visibility:visible;opacity:0.2;isolation:auto;mix-blend-mode:normal;color-interpolation:sRGB;color-interpolation-filters:linearRGB;solid-color:#000000;solid-opacity:1;vector-effect:none;fill:#ffffff;fill-opacity:1;fill-rule:nonzero;stroke:none;stroke-width:0.26457033;stroke-linecap:butt;stroke-linejoin:miter;stroke-miterlimit:4;stroke-dasharray:none;stroke-dashoffset:0;stroke-opacity:1;marker:none;color-rendering:auto;image-rendering:auto;shape-rendering:auto;text-rendering:auto;enable-background:accumulate" />
  <path
     inkscape:connector-curvature="0"
     style="color:#000000;font-style:normal;font-variant:normal;font-weight:normal;font-stretch:normal;font-size:medium;line-height:normal;font-family:sans-serif;font-variant-ligatures:normal;font-variant-position:normal;font-variant-caps:normal;font-variant-numeric:normal;font-variant-alternates:normal;font-feature-settings:normal;text-indent:0;text-align:start;text-decoration:none;text-decoration-line:none;text-decoration-style:solid;text-decoration-color:#000000;letter-spacing:normal;word-spacing:normal;text-transform:none;writing-mode:lr-tb;direction:ltr;text-orientation:mixed;dominant-baseline:auto;baseline-shift:baseline;text-anchor:start;white-space:normal;shape-padding:0;clip-rule:nonzero;display:inline;overflow:visible;visibility:visible;opacity:0.1;isolation:auto;mix-blend-mode:normal;color-interpolation:sRGB;color-interpolation-filters:linearRGB;solid-color:#000000;solid-opacity:1;vector-effect:none;fill:#732206;fill-opacity:1;fill-rule:nonzero;stroke:none;stroke-width:0.26457033;stroke-linecap:butt;stroke-linejoin:miter;stroke-miterlimit:4;stroke-dasharray:none;stroke-dashoffset:0;stroke-opacity:1;marker:none;color-rendering:auto;image-rendering:auto;shape-rendering:auto;text-rendering:auto;enable-background:accumulate"
     d="M 5.9941844,2.1165568 5.2004734,2.9102677 H 2.5806188 C 2.0694161,2.8586421 1.6720579,2.9249515 1.3512929,2.9857127 1.0295754,3.0466882 0.76693642,3.163078 0.58652592,3.3748161 0.40685622,3.5856681 0.3320622,3.8571543 0.29663623,4.1757604 0.27732263,4.349091 0.26970293,4.5461641 0.26666043,4.7622599 h 0.0103182 C 0.28147663,4.6502488 0.28597363,4.5372217 0.29655683,4.4403307 0.33200928,4.1217246 0.40677685,3.8502384 0.58644655,3.6393864 0.76685705,3.4276482 1.029496,3.3112584 1.3512135,3.2502829 1.6719785,3.1895164 2.0693367,3.1232125 2.5805394,3.174838 H 5.2003941 L 5.994105,2.3811271 h 4.12772 c 0.767361,0 1.336346,-0.025134 1.761034,0.2960912 0.215228,0.1627954 0.358122,0.4080099 0.440271,0.7187846 0.0818,0.3095314 0.113157,0.6915233 0.113157,1.1874657 V 4.3188982 c 0,-0.4959423 -0.03135,-0.8779342 -0.113157,-1.1874655 C 12.24098,2.8206577 12.098087,2.5754434 11.882859,2.412648 11.458171,2.091412 10.889186,2.1165568 10.121825,2.1165568 Z"
     id="path3531-1" />
  <path
     inkscape:connector-curvature="0"
     id="path3533-9"
     d="m 2.5790579,0.52913499 c -0.7673598,0 -1.3363447,-0.025134 -1.76103295,0.2960912 C 0.602797,0.98802157 0.45990257,1.2332359 0.37775349,1.5440107 0.29592189,1.8535421 0.26457031,2.235534 0.26457031,2.7314764 v 0.2645704 c 0,-0.4959424 0.0313516,-0.8779344 0.11318318,-1.1874657 C 0.45990259,1.4978062 0.60277054,1.2525919 0.81802495,1.0897965 1.2427132,0.76856049 1.8116981,0.79370529 2.5790579,0.79370529 H 5.1193562 L 5.9130671,1.5874161 h 4.2072769 c 0.513796,0 0.908561,0.014684 1.229326,0.075445 0.321718,0.060975 0.584357,0.1773653 0.764767,0.3891036 0.17967,0.2108519 0.254437,0.4823381 0.28989,0.8009443 0.01773,0.1592661 0.02646,0.3341523 0.02998,0.5291406 0,-0.2984167 -0.005,-0.5695723 -0.02998,-0.793711 C 12.368877,2.2697324 12.294107,1.9982462 12.114437,1.7873943 11.934027,1.575656 11.671388,1.4592663 11.34967,1.3982907 11.028905,1.3375242 10.63414,1.3228458 10.120344,1.3228458 H 5.9130671 L 5.1193562,0.52913499 Z m 9.8536841,3.80113181 -0.0026,0.1973933 v 0.0031 c 0,0.047453 0.0037,0.091861 0.0037,0.1601894 V 4.4263746 c 0,-0.040995 0,-0.066516 -0.0026,-0.096113 z"
     style="color:#000000;font-style:normal;font-variant:normal;font-weight:normal;font-stretch:normal;font-size:medium;line-height:normal;font-family:sans-serif;font-variant-ligatures:normal;font-variant-position:normal;font-variant-caps:normal;font-variant-numeric:normal;font-variant-alternates:normal;font-feature-settings:normal;text-indent:0;text-align:start;text-decoration:none;text-decoration-line:none;text-decoration-style:solid;text-decoration-color:#000000;letter-spacing:normal;word-spacing:normal;text-transform:none;writing-mode:lr-tb;direction:ltr;text-orientation:mixed;dominant-baseline:auto;baseline-shift:baseline;text-anchor:start;white-space:normal;shape-padding:0;clip-rule:nonzero;display:inline;overflow:visible;visibility:visible;opacity:0.2;isolation:auto;mix-blend-mode:normal;color-interpolation:sRGB;color-interpolation-filters:linearRGB;solid-color:#000000;solid-opacity:1;vector-effect:none;fill:#ffffff;fill-opacity:1;fill-rule:nonzero;stroke:none;stroke-width:0.26457033;stroke-linecap:butt;stroke-linejoin:miter;stroke-miterlimit:4;stroke-dasharray:none;stroke-dashoffset:0;stroke-opacity:1;marker:none;color-rendering:auto;image-rendering:auto;shape-rendering:auto;text-rendering:auto;enable-background:accumulate" />
  <path
     style="color:#000000;font-style:normal;font-variant:normal;font-weight:normal;font-stretch:normal;font-size:medium;line-height:normal;font-family:sans-serif;font-variant-ligatures:normal;font-variant-position:normal;font-variant-caps:normal;font-variant-numeric:normal;font-variant-alternates:normal;font-feature-settings:normal;text-indent:0;text-align:start;text-decoration:none;text-decoration-line:none;text-decoration-style:solid;text-decoration-color:#000000;letter-spacing:normal;word-spacing:normal;text-transform:none;writing-mode:lr-tb;direction:ltr;text-orientation:mixed;dominant-baseline:auto;baseline-shift:baseline;text-anchor:start;white-space:normal;shape-padding:0;clip-rule:nonzero;display:inline;overflow:visible;visibility:visible;opacity:0.75;isolation:auto;mix-blend-mode:normal;color-interpolation:sRGB;color-interpolation-filters:linearRGB;solid-color:#000000;solid-opacity:1;vector-effect:none;fill:#ffffff;fill-opacity:1;fill-rule:evenodd;stroke:none;stroke-width:0.26457033px;stroke-linecap:butt;stroke-linejoin:round;stroke-miterlimit:4;stroke-dasharray:none;stroke-dashoffset:0;stroke-opacity:1;color-rendering:auto;image-rendering:auto;shape-rendering:auto;text-rendering:auto;enable-background:accumulate"
     d="m 7.7872567,5.0376183 c -0.029711,-0.00172 -0.063735,5.821e-4 -0.104373,0.00414 L 5.7755964,5.3393952 C 5.5604213,5.3613095 5.5370333,5.4617502 5.5389382,5.5869131 v 2.6860086 c -0.116067,-0.07395 -0.2406267,-0.1260831 -0.40511,-0.1260842 -0.2207575,0 -0.352831,0.084511 -0.4325196,0.195844 -0.079689,0.1113325 -0.1059339,0.2516881 -0.1059339,0.3601669 0,0.1308113 0.044739,0.2697959 0.141598,0.3761859 0.096859,0.1063899 0.2462356,0.1813723 0.4604052,0.1813754 0.00291,0 0.00529,-5.027e-4 0.0082,-5.291e-4 0.00317,3.54e-5 0.00556,5.291e-4 0.00873,5.291e-4 0.1298776,0 0.2339067,-0.023949 0.3178019,-0.066142 0.00265,-9.26e-4 0.00476,-0.00111 0.00661,-0.00206 v -0.00156 c 0.05511,-0.0289 0.1030236,-0.064382 0.1374442,-0.1116156 0.068894,-0.09448 0.1073362,-0.2210069 0.1209351,-0.3767026 0.00265,-0.018888 0.00291,-0.038403 0.00423,-0.058391 V 8.5984659 6.2958774 c 0.00582,-0.1638701 0.154509,-0.1880928 0.154509,-0.1880928 L 7.5045104,5.8659507 c 0.1486621,-0.045451 0.1488208,0.1384859 0.1488208,0.1384859 v 2.00288 C 7.5378198,7.9340296 7.4138157,7.8822669 7.2502848,7.8822659 c -0.220731,0 -0.3528309,0.084511 -0.4325195,0.1958439 -0.079689,0.1113325 -0.105934,0.2516881 -0.105934,0.360167 0,0.1308112 0.044739,0.2697958 0.1415981,0.3761859 0.096859,0.1063898 0.2462356,0.1813722 0.4604052,0.1813754 0.00265,0 0.0045,-5.027e-4 0.00714,-5.291e-4 0.00265,2.77e-5 0.00503,5.291e-4 0.00767,5.291e-4 0.1282636,0 0.2312873,-0.023433 0.3147063,-0.064592 0.0037,-0.00164 0.00847,-0.00193 0.011906,-0.00362 v -0.00259 c 0.054158,-0.028768 0.1013834,-0.063936 0.1353806,-0.1105822 0.068894,-0.09448 0.1073362,-0.221007 0.1209351,-0.3767026 0.00265,-0.018888 0.00291,-0.038403 0.00423,-0.058391 V 8.3338956 5.2732513 c 0.00318,-0.1810259 -0.037057,-0.2290111 -0.128149,-0.235633 z"
     id="path1954"
     inkscape:connector-curvature="0"
     sodipodi:nodetypes="cccccccscccsccccccccccccccscccscccccccccc" />
</svg>
