<?xml version="1.0" encoding="UTF-8" standalone="no"?>
<svg
   xmlns:dc="http://purl.org/dc/elements/1.1/"
   xmlns:cc="http://creativecommons.org/ns#"
   xmlns:rdf="http://www.w3.org/1999/02/22-rdf-syntax-ns#"
   xmlns:svg="http://www.w3.org/2000/svg"
   xmlns="http://www.w3.org/2000/svg"
   xmlns:xlink="http://www.w3.org/1999/xlink"
   xmlns:sodipodi="http://sodipodi.sourceforge.net/DTD/sodipodi-0.dtd"
   xmlns:inkscape="http://www.inkscape.org/namespaces/inkscape"
   width="48"
   height="48"
   version="1.1"
   viewBox="0 0 12.699375 12.699375"
   id="svg94"
   sodipodi:docname="folder-dropbox.svg"
   inkscape:version="0.92.4 (5da689c313, 2019-01-14)">
  <metadata
     id="metadata98">
    <rdf:RDF>
      <cc:Work
         rdf:about="">
        <dc:format>image/svg+xml</dc:format>
        <dc:type
           rdf:resource="http://purl.org/dc/dcmitype/StillImage" />
        <dc:title />
      </cc:Work>
    </rdf:RDF>
  </metadata>
  <sodipodi:namedview
     pagecolor="#ffffff"
     bordercolor="#666666"
     borderopacity="1"
     objecttolerance="10"
     gridtolerance="10"
     guidetolerance="10"
     inkscape:pageopacity="0"
     inkscape:pageshadow="2"
     inkscape:window-width="1920"
     inkscape:window-height="1016"
     id="namedview96"
     showgrid="false"
     inkscape:zoom="17.479167"
     inkscape:cx="13.129917"
     inkscape:cy="24"
     inkscape:window-x="0"
     inkscape:window-y="27"
     inkscape:window-maximized="1"
     inkscape:current-layer="svg94" />
  <defs
     id="defs75">
    <linearGradient
       id="linearGradient21865"
       x1="1278"
       x2="1278"
       y1="-1062.6379"
       y2="-1118.6379"
       gradientTransform="matrix(2,0,0,2.00002,-1069,630.656)"
       gradientUnits="userSpaceOnUse"
       xlink:href="#linearGradient8754" />
    <linearGradient
       id="linearGradient8754">
      <stop
         id="stop8756"
         offset="0"
         style="stop-color:#dc85e9" />
      <stop
         id="stop8758"
         offset="1"
         style="stop-color:#f8dcfb" />
    </linearGradient>
    <linearGradient
       id="linearGradient21867"
       x1="1559.5"
       x2="1542"
       y1="184"
       y2="184"
       gradientTransform="matrix(-1,0,0,1,2865,-1753.64)"
       gradientUnits="userSpaceOnUse"
       xlink:href="#linearGradient8742" />
    <linearGradient
       id="linearGradient8742">
      <stop
         id="stop8744"
         offset="0"
         style="stop-color:#9200ff" />
      <stop
         id="stop8746"
         offset="1"
         style="stop-color:#ff00ff;stop-opacity:0" />
    </linearGradient>
    <linearGradient
       id="linearGradient21869"
       x1="1559.5"
       x2="1542"
       y1="184"
       y2="184"
       gradientTransform="translate(-123,-1753.64)"
       gradientUnits="userSpaceOnUse"
       xlink:href="#linearGradient8742" />
    <radialGradient
       id="radialGradient21871"
       cx="152.33299"
       cy="-754.638"
       r="15"
       fx="152.33299"
       fy="-754.638"
       gradientTransform="matrix(4.06286e-6,1.01528,-4.27735,0,-1857.01,-1670.52)"
       gradientUnits="userSpaceOnUse"
       xlink:href="#linearGradient8717" />
    <linearGradient
       id="linearGradient8717">
      <stop
         id="stop8719"
         offset="0"
         style="stop-color:#800080" />
      <stop
         id="stop8723"
         offset=".727"
         style="stop-color:#800080" />
      <stop
         id="stop8721"
         offset="1"
         style="stop-color:#ff00ff;stop-opacity:0" />
    </linearGradient>
    <linearGradient
       id="linearGradient21873"
       x1="453.5"
       x2="404.5"
       y1="970.5"
       y2="970.5"
       gradientTransform="matrix(2,0,0,2,513,-3495.64)"
       gradientUnits="userSpaceOnUse"
       xlink:href="#linearGradient8964" />
    <linearGradient
       id="linearGradient8964">
      <stop
         id="stop8966"
         offset="0"
         style="stop-color:#e196fb" />
      <stop
         id="stop8968"
         offset=".13"
         style="stop-color:#f4c7fa" />
      <stop
         id="stop8970"
         offset=".314"
         style="stop-color:#e091f3" />
      <stop
         id="stop8972"
         offset=".441"
         style="stop-color:#d764e9" />
      <stop
         id="stop8974"
         offset=".684"
         style="stop-color:#e7adf0" />
      <stop
         id="stop8976"
         offset=".756"
         style="stop-color:#e6a9f8" />
      <stop
         id="stop8978"
         offset=".88"
         style="stop-color:#e595f2" />
      <stop
         id="stop8980"
         offset="1"
         style="stop-color:#f2cbf8" />
    </linearGradient>
    <linearGradient
       id="linearGradient21875"
       x1="1322"
       x2="1419"
       y1="-1568.511"
       y2="-1568.511"
       gradientTransform="translate(0.022825,4.5e-5)"
       gradientUnits="userSpaceOnUse"
       xlink:href="#linearGradient8663" />
    <linearGradient
       id="linearGradient8663">
      <stop
         id="stop8665"
         offset="0"
         style="stop-color:#9207a7" />
      <stop
         id="stop8667"
         offset=".273"
         style="stop-color:#c658bc" />
      <stop
         id="stop8669"
         offset=".51"
         style="stop-color:#a42eb6" />
      <stop
         id="stop8671"
         offset=".834"
         style="stop-color:#b415cd" />
      <stop
         id="stop8673"
         offset="1"
         style="stop-color:#950ba8" />
    </linearGradient>
    <radialGradient
       id="radialGradient21877"
       cx="518.854"
       cy="730.48401"
       r="22.889999"
       fx="518.854"
       fy="730.48401"
       gradientTransform="matrix(0.959821,0,1.35768e-7,0.268231,21.681,534.374)"
       gradientUnits="userSpaceOnUse"
       xlink:href="#linearGradient14494" />
    <linearGradient
       id="linearGradient14494">
      <stop
         id="stop14496"
         offset="0"
         style="stop-color:#dc85e9" />
      <stop
         id="stop14498"
         offset="1"
         style="stop-color:#f2cbf8" />
    </linearGradient>
    <linearGradient
       id="linearGradient8859">
      <stop
         id="stop8861"
         offset="0"
         style="stop-color:#ffffff" />
      <stop
         id="stop8863"
         offset="1"
         style="stop-color:#aa0000;stop-opacity:0" />
    </linearGradient>
    <linearGradient
       id="linearGradient21881"
       x1="1510.4771"
       x2="1485.877"
       y1="169"
       y2="194"
       gradientTransform="matrix(0.984483,0,0,0.972527,-100.349,-1748.97)"
       gradientUnits="userSpaceOnUse"
       xlink:href="#linearGradient8984" />
    <linearGradient
       id="linearGradient8984">
      <stop
         id="stop8986"
         offset="0"
         style="stop-color:#ffffff" />
      <stop
         id="stop8988"
         offset="1"
         style="stop-color:#ffffff;stop-opacity:0" />
    </linearGradient>
    <linearGradient
       id="linearGradient21883"
       x1="1354.568"
       x2="1383.38"
       y1="-1522.359"
       y2="-1543.981"
       gradientTransform="matrix(0.976263,0.126435,-0.367421,0.97673,-556.181,-210.596)"
       gradientUnits="userSpaceOnUse"
       xlink:href="#linearGradient8984" />
    <linearGradient
       id="linearGradient7701">
      <stop
         id="stop7699"
         offset="0"
         style="stop-color:#950ba8" />
      <stop
         id="stop7693"
         offset="1"
         style="stop-color:#c557bc" />
    </linearGradient>
    <radialGradient
       id="radialGradient21871-3"
       cx="152.33299"
       cy="-754.638"
       r="15"
       fx="152.33299"
       fy="-754.638"
       gradientTransform="matrix(4.06286e-6,1.01528,-4.27735,0,-1857.01,-1670.52)"
       gradientUnits="userSpaceOnUse"
       xlink:href="#linearGradient8717" />
    <radialGradient
       id="radialGradient21877-8"
       cx="518.854"
       cy="730.48401"
       r="22.889999"
       fx="518.854"
       fy="730.48401"
       gradientTransform="matrix(0.959821,0,1.35768e-7,0.268231,21.681,534.374)"
       gradientUnits="userSpaceOnUse"
       xlink:href="#linearGradient14494" />
    <linearGradient
       id="linearGradient9981">
      <stop
         id="stop9983"
         offset="0"
         style="stop-color:rgb(255, 246, 221)" />
      <stop
         id="stop9985"
         offset="1"
         style="stop-color:rgb(254, 248, 244)" />
    </linearGradient>
    <clipPath
       id="clipPath999"
       clipPathUnits="userSpaceOnUse">
      <path
         style="opacity:0.56300001;fill:#111111"
         d="m 142.9375,44 h 18.125 c 35.90898,0 54.29517,3.184359 63.02539,11.925781 C 232.81811,64.667204 236,80 236,112 c 0,32 -3.18189,47.3328 -11.91211,56.07422 C 215.35767,176.81564 196.97148,180 161.0625,180 h -18.125 C 107.02867,180 88.64237,176.81566 79.912109,168.07422 71.181849,159.33278 68,144 68,112 68,80 71.181849,64.667219 79.912109,55.925781 88.64237,47.184344 107.02867,44 142.9375,44 Z"
         id="path53"
         inkscape:connector-curvature="0" />
    </clipPath>
    <linearGradient
       id="linearGradient3886"
       x1="72"
       x2="88"
       y1="108"
       y2="108"
       gradientUnits="userSpaceOnUse"
       xlink:href="#linearGradient2684" />
    <linearGradient
       id="linearGradient2684">
      <stop
         style="stop-color:#000000"
         id="stop2680"
         offset="0" />
      <stop
         style="stop-color:#103134"
         id="stop2682"
         offset="1" />
    </linearGradient>
    <clipPath
       id="clipPath960"
       clipPathUnits="userSpaceOnUse">
      <path
         d="M 244,192.96875 C 244,265.6174 233.64338,276 161.0625,276 h -18.125 C 70.35691,276 60,265.6174 60,192.96875 v -73.9375 C 60,46.3826 70.35691,36 142.9375,36 h 18.125 C 233.64338,36 244,46.3826 244,119.03125 Z"
         style="fill:#2daaaa"
         id="path60"
         inkscape:connector-curvature="0" />
    </clipPath>
    <linearGradient
       id="linearGradient928">
      <stop
         style="stop-color:#808080"
         id="stop924"
         offset="0" />
      <stop
         style="stop-color:#999999"
         id="stop926"
         offset="1" />
    </linearGradient>
    <linearGradient
       id="linearGradient1884"
       x1="152.006"
       x2="152.006"
       y1="112.013"
       y2="239.995"
       gradientTransform="matrix(0.26488626,0,0,0.26488626,-6.4611988,222.04517)"
       gradientUnits="userSpaceOnUse"
       xlink:href="#linearGradient928" />
    <linearGradient
       id="linearGradient3212"
       x1="529.65503"
       x2="-35.310001"
       y1="295.638"
       y2="295.638"
       gradientTransform="matrix(0,-0.11988932,-0.11988589,0,67.723427,291.97285)"
       gradientUnits="userSpaceOnUse"
       xlink:href="#linearGradient876" />
    <linearGradient
       id="linearGradient876">
      <stop
         style="stop-color:#b3b3b3"
         id="stop872"
         offset="0" />
      <stop
         style="stop-color:#d9d9d9"
         id="stop874"
         offset="1" />
    </linearGradient>
    <filter
       style="color-interpolation-filters:sRGB"
       id="filter1203"
       width="1.136"
       height="1.107"
       x="-0.07"
       y="-0.050000001">
      <feGaussianBlur
         id="feGaussianBlur1205"
         stdDeviation="10" />
    </filter>
    <filter
       style="color-interpolation-filters:sRGB"
       id="filter4346"
       width="1.026"
       height="1.022"
       x="-0.0099999998"
       y="-0.0099999998">
      <feGaussianBlur
         id="feGaussianBlur4348"
         stdDeviation="2.12" />
    </filter>
    <linearGradient
       inkscape:collect="always"
       xlink:href="#linearGradient3388"
       id="linearGradient2420"
       gradientUnits="userSpaceOnUse"
       gradientTransform="matrix(0.26457031,0,0,0.26457031,-84.679538,-16.138794)"
       x1="321"
       y1="70"
       x2="367"
       y2="105" />
    <linearGradient
       inkscape:collect="always"
       id="linearGradient3388">
      <stop
         style="stop-color:#666666;stop-opacity:1;"
         offset="0"
         id="stop3384" />
      <stop
         style="stop-color:#7a7a7a;stop-opacity:1"
         offset="1"
         id="stop3386" />
    </linearGradient>
    <linearGradient
       inkscape:collect="always"
       xlink:href="#linearGradient36441"
       id="linearGradient2408"
       gradientUnits="userSpaceOnUse"
       gradientTransform="matrix(0.26457031,0,0,0.26457031,-84.679538,-16.138794)"
       x1="321"
       y1="106"
       x2="367"
       y2="63" />
    <linearGradient
       inkscape:collect="always"
       id="linearGradient36441">
      <stop
         style="stop-color:#2c001e;stop-opacity:1"
         offset="0"
         id="stop36437" />
      <stop
         id="stop36445"
         offset="0.10864977"
         style="stop-color:#2c001e;stop-opacity:1" />
      <stop
         style="stop-color:#370626;stop-opacity:1"
         offset="0.18689813"
         id="stop36449" />
      <stop
         id="stop36451"
         offset="0.2980746"
         style="stop-color:#55163b;stop-opacity:1" />
      <stop
         style="stop-color:#772953;stop-opacity:1"
         offset="0.37246177"
         id="stop36453" />
      <stop
         style="stop-color:#7c2b51;stop-opacity:1"
         offset="0.44700962"
         id="stop36447" />
      <stop
         id="stop36455"
         offset="0.52428877"
         style="stop-color:#8b314b;stop-opacity:1" />
      <stop
         style="stop-color:#8b314b;stop-opacity:1"
         offset="0.59614229"
         id="stop36457" />
      <stop
         id="stop36459"
         offset="0.66876179"
         style="stop-color:#a33a41;stop-opacity:1" />
      <stop
         style="stop-color:#c44732;stop-opacity:1"
         offset="0.79755175"
         id="stop36461" />
      <stop
         id="stop36463"
         offset="0.91251218"
         style="stop-color:#e65524;stop-opacity:1" />
      <stop
         style="stop-color:#e65524;stop-opacity:1"
         offset="1"
         id="stop36439" />
    </linearGradient>
  </defs>
  <path
     sodipodi:nodetypes="sccsccscccssccccssccccccsccs"
     inkscape:connector-curvature="0"
     id="path3461-1-1"
     d="m 2.5790579,0.79370538 c -0.7673598,0 -1.3363447,-0.0251342 -1.76103295,0.29609122 C 0.602797,1.252592 0.45990261,1.4978064 0.37775351,1.8085813 0.29592191,2.1181126 0.26457031,2.5001046 0.26457031,2.9960469 v 2.4886144 0.8650206 3.2461533 c 0,0.5164998 0.014022,0.9104848 0.070799,1.2288048 0.056988,0.319035 0.1646157,0.577967 0.36690613,0.758058 0.20176132,0.17963 0.46371236,0.253966 0.76579876,0.288855 0.3018218,0.03486 0.6604469,0.03411 1.1109837,0.03411 h 7.5412861 c 0.442043,0 0.796382,5.29e-4 1.096511,-0.03411 v 0 c 0.300367,-0.03489 0.562344,-0.108823 0.765825,-0.287305 0.203931,-0.178908 0.315606,-0.437335 0.375664,-0.757023 0.05992,-0.318974 0.07596,-0.714131 0.07596,-1.2313898 V 4.6909504 c 0,-0.068328 -0.0032,-0.1127361 -0.0037,-0.1601894 v -0.0031 l 0.0037,-0.4960693 c 0.0034,-0.4789279 0.005,-0.8601498 -0.03048,-1.1786818 C 12.368371,2.5343082 12.293577,2.262822 12.113934,2.0519701 11.933497,1.8402292 11.670884,1.723842 11.34914,1.6628665 11.028402,1.6020974 10.63361,1.5874216 10.119814,1.5874216 H 5.912538 L 5.118827,0.79371067 Z"
     style="color:#000000;font-style:normal;font-variant:normal;font-weight:normal;font-stretch:normal;font-size:medium;line-height:normal;font-family:sans-serif;font-variant-ligatures:normal;font-variant-position:normal;font-variant-caps:normal;font-variant-numeric:normal;font-variant-alternates:normal;font-feature-settings:normal;text-indent:0;text-align:start;text-decoration:none;text-decoration-line:none;text-decoration-style:solid;text-decoration-color:#000000;letter-spacing:normal;word-spacing:normal;text-transform:none;writing-mode:lr-tb;direction:ltr;text-orientation:mixed;dominant-baseline:auto;baseline-shift:baseline;text-anchor:start;white-space:normal;shape-padding:0;clip-rule:nonzero;display:inline;overflow:visible;visibility:visible;opacity:0.1;isolation:auto;mix-blend-mode:normal;color-interpolation:sRGB;color-interpolation-filters:linearRGB;solid-color:#000000;solid-opacity:1;vector-effect:none;fill:#000000;fill-opacity:1;fill-rule:nonzero;stroke:none;stroke-width:0.26457033;stroke-linecap:butt;stroke-linejoin:miter;stroke-miterlimit:4;stroke-dasharray:none;stroke-dashoffset:0;stroke-opacity:1;marker:none;color-rendering:auto;image-rendering:auto;shape-rendering:auto;text-rendering:auto;enable-background:accumulate" />
  <path
     inkscape:connector-curvature="0"
     id="path3463-2-9"
     d="m 2.5790579,0.52913507 c -0.7673598,0 -1.3363447,-0.0251342 -1.76103295,0.29609121 C 0.602797,0.98802169 0.45990261,1.233236 0.37775351,1.5440109 0.29592191,1.8535423 0.26457031,2.2355342 0.26457031,2.7314766 V 5.0268303 H 12.434804 V 4.42638 c 0,-0.068328 -0.0032,-0.112736 -0.0037,-0.1601893 v -0.0031 l 0.0037,-0.4960694 c 0.0034,-0.4789278 0.005,-0.8601497 -0.03048,-1.1786818 C 12.368873,2.2697379 12.294106,1.9982517 12.114436,1.7873998 11.934026,1.5756588 11.671387,1.4592717 11.349669,1.3982962 11.028904,1.3375297 10.634139,1.3228513 10.120344,1.3228513 H 5.9130671 L 5.1193562,0.52914036 Z"
     style="color:#000000;font-style:normal;font-variant:normal;font-weight:normal;font-stretch:normal;font-size:medium;line-height:normal;font-family:sans-serif;font-variant-ligatures:normal;font-variant-position:normal;font-variant-caps:normal;font-variant-numeric:normal;font-variant-alternates:normal;font-feature-settings:normal;text-indent:0;text-align:start;text-decoration:none;text-decoration-line:none;text-decoration-style:solid;text-decoration-color:#000000;letter-spacing:normal;word-spacing:normal;text-transform:none;writing-mode:lr-tb;direction:ltr;text-orientation:mixed;dominant-baseline:auto;baseline-shift:baseline;text-anchor:start;white-space:normal;shape-padding:0;clip-rule:nonzero;display:inline;overflow:visible;visibility:visible;opacity:1;isolation:auto;mix-blend-mode:normal;color-interpolation:sRGB;color-interpolation-filters:linearRGB;solid-color:#000000;solid-opacity:1;vector-effect:none;fill:url(#linearGradient2408);fill-opacity:1;fill-rule:nonzero;stroke:none;stroke-width:0.26457033;stroke-linecap:butt;stroke-linejoin:miter;stroke-miterlimit:4;stroke-dasharray:none;stroke-dashoffset:0;stroke-opacity:1;marker:none;color-rendering:auto;image-rendering:auto;shape-rendering:auto;text-rendering:auto;enable-background:accumulate" />
  <path
     inkscape:connector-curvature="0"
     id="path3485-0-0"
     d="M 6.068608,2.3811273 5.2743679,3.1748381 h -2.69531 c -1.80246466,0 -2.04989079,-5.55e-5 -2.04989079,2.0452529 v 0.2645703 c 0,-2.0453084 0.24742613,-2.0452529 2.04989079,-2.0452529 h 2.69531 L 6.068608,2.6456976 h 4.051736 c 1.768361,0 2.049917,-5.56e-5 2.049917,2.0452528 V 4.42638 c 0,-2.0453083 -0.281556,-2.0452527 -2.049917,-2.0452527 z"
     style="color:#000000;display:inline;overflow:visible;visibility:visible;opacity:0.3;fill:#ffffff;fill-opacity:1;fill-rule:nonzero;stroke:none;stroke-width:0.26457033;marker:none;enable-background:accumulate" />
  <path
     sodipodi:nodetypes="sccsccscccssccccssccccccsccs"
     inkscape:connector-curvature="0"
     style="color:#000000;font-style:normal;font-variant:normal;font-weight:normal;font-stretch:normal;font-size:medium;line-height:normal;font-family:sans-serif;font-variant-ligatures:normal;font-variant-position:normal;font-variant-caps:normal;font-variant-numeric:normal;font-variant-alternates:normal;font-feature-settings:normal;text-indent:0;text-align:start;text-decoration:none;text-decoration-line:none;text-decoration-style:solid;text-decoration-color:#000000;letter-spacing:normal;word-spacing:normal;text-transform:none;writing-mode:lr-tb;direction:ltr;text-orientation:mixed;dominant-baseline:auto;baseline-shift:baseline;text-anchor:start;white-space:normal;shape-padding:0;clip-rule:nonzero;display:inline;overflow:visible;visibility:visible;opacity:1;isolation:auto;mix-blend-mode:normal;color-interpolation:sRGB;color-interpolation-filters:linearRGB;solid-color:#000000;solid-opacity:1;vector-effect:none;fill:url(#linearGradient2420);fill-opacity:1;fill-rule:nonzero;stroke:none;stroke-width:0.26457033;stroke-linecap:butt;stroke-linejoin:miter;stroke-miterlimit:4;stroke-dasharray:none;stroke-dashoffset:0;stroke-opacity:1;marker:none;color-rendering:auto;image-rendering:auto;shape-rendering:auto;text-rendering:auto;enable-background:accumulate"
     d="m 10.122063,2.3811273 c 0.76736,0 1.336345,-0.025134 1.761033,0.2960912 0.215228,0.1627954 0.358122,0.4080098 0.440271,0.7187845 0.08181,0.3095314 0.113157,0.6915233 0.113157,1.1874657 v 2.4886145 1.1295909 1.1295908 c 0,0.5164995 -0.01402,0.9104871 -0.0708,1.2288051 -0.05696,0.319035 -0.164589,0.577967 -0.36688,0.758057 -0.201787,0.17963 -0.463712,0.253967 -0.765798,0.288855 -0.301822,0.03486 -0.660447,0.03411 -1.110984,0.03411 H 2.5807511 c -0.4420176,0 -0.7963831,5.29e-4 -1.0965117,-0.03411 v 0 C 1.1838992,11.572094 0.92189525,11.498159 0.71844068,11.319678 0.51448341,11.14077 0.40280831,10.882343 0.34277731,10.562655 0.28285211,10.243681 0.26681921,9.8485237 0.26681921,9.3312649 V 6.2783722 c 0,-0.068328 0.00317,-0.112736 0.0037,-0.1601894 v -0.0031 l -0.0037,-0.4960648 c -0.00344,-0.4789278 -0.00503,-0.8601498 0.030478,-1.1786819 C 0.33275011,4.12173 0.40751761,3.8502438 0.58718735,3.6393918 0.76759785,3.4276509 1.0302368,3.3112638 1.3519543,3.2502883 1.6727458,3.1895218 2.0701039,3.1232179 2.5813067,3.1748434 H 5.2011613 L 5.9948722,2.3811326 Z"
     id="path3523-3-2" />
  <path
     sodipodi:nodetypes="ccssc"
     inkscape:connector-curvature="0"
     style="color:#000000;display:inline;overflow:visible;visibility:visible;opacity:0.05;fill:#ffffff;fill-opacity:1;fill-rule:nonzero;stroke:none;stroke-width:0.26457033;marker:none;enable-background:accumulate"
     d="M 12.417766,8.2016741 9.2429226,11.376518 h 1.2404644 c 1.754524,0 1.934379,-0.179781 1.934379,-1.9307973 z"
     id="path3525-7-5" />
  <path
     inkscape:connector-curvature="0"
     id="path3527-4-4"
     d="m 0.26459681,9.0666946 v 0.2645703 c 0,0.5164995 0.014022,0.9104841 0.070773,1.2288051 0.056988,0.319035 0.1646157,0.577967 0.36690613,0.758057 0.20176132,0.17963 0.46371236,0.253967 0.76579876,0.288855 0.3018218,0.03486 0.6604469,0.03411 1.1109837,0.03411 h 7.5412856 c 0.442044,0 0.796383,5.29e-4 1.096512,-0.03411 v 0 c 0.300367,-0.03489 0.562344,-0.108823 0.765825,-0.287304 0.203931,-0.178908 0.315606,-0.437335 0.375664,-0.757023 0.05992,-0.318974 0.07596,-0.7141313 0.07596,-1.2313901 V 9.0666946 c 0,0.5172588 -0.01614,0.9124157 -0.07596,1.2313894 -0.06006,0.319689 -0.171733,0.578116 -0.375664,0.757023 -0.203481,0.178482 -0.465458,0.252416 -0.765825,0.287305 v 0 c -0.30013,0.03463 -0.654469,0.03411 -1.096512,0.03411 H 2.5790579 c -0.4505368,0 -0.8091619,7.94e-4 -1.1109837,-0.03411 C 1.1659878,11.307522 0.90403676,11.233187 0.70227544,11.053557 0.49998501,10.873467 0.39235781,10.614534 0.33536931,10.2955 0.27856611,9.977179 0.26457031,9.5831941 0.26459681,9.0666946 Z"
     style="color:#000000;font-style:normal;font-variant:normal;font-weight:normal;font-stretch:normal;font-size:medium;line-height:normal;font-family:sans-serif;font-variant-ligatures:normal;font-variant-position:normal;font-variant-caps:normal;font-variant-numeric:normal;font-variant-alternates:normal;font-feature-settings:normal;text-indent:0;text-align:start;text-decoration:none;text-decoration-line:none;text-decoration-style:solid;text-decoration-color:#000000;letter-spacing:normal;word-spacing:normal;text-transform:none;writing-mode:lr-tb;direction:ltr;text-orientation:mixed;dominant-baseline:auto;baseline-shift:baseline;text-anchor:start;white-space:normal;shape-padding:0;clip-rule:nonzero;display:inline;overflow:visible;visibility:visible;opacity:0.2;isolation:auto;mix-blend-mode:normal;color-interpolation:sRGB;color-interpolation-filters:linearRGB;solid-color:#000000;solid-opacity:1;vector-effect:none;fill:#000000;fill-opacity:1;fill-rule:nonzero;stroke:none;stroke-width:0.26457033;stroke-linecap:butt;stroke-linejoin:miter;stroke-miterlimit:4;stroke-dasharray:none;stroke-dashoffset:0;stroke-opacity:1;marker:none;color-rendering:auto;image-rendering:auto;shape-rendering:auto;text-rendering:auto;enable-background:accumulate" />
  <path
     inkscape:connector-curvature="0"
     id="path3529-5-7"
     d="M 5.9941844,2.3811273 5.2004734,3.1748381 H 2.5806188 C 2.0694161,3.1232126 1.6720579,3.1895218 1.3512929,3.250283 1.0295754,3.3112585 0.76693642,3.4276483 0.58652592,3.6393865 0.40685621,3.8502385 0.33206221,4.1217247 0.29663621,4.4403308 0.27732261,4.6136614 0.26970301,4.8107346 0.26666041,5.0268303 h 0.010318 c 0.0045,-0.1120111 0.009,-0.2250382 0.019578,-0.3219292 C 0.33200931,4.386295 0.40677681,4.1148088 0.58644655,3.9039569 0.76685705,3.6922186 1.029496,3.5758288 1.3512135,3.5148533 1.6719785,3.4540868 2.0693367,3.3877828 2.5805394,3.4394084 H 5.2003941 L 5.994105,2.6456976 h 4.12772 c 0.76736,0 1.336345,-0.025134 1.761033,0.2960912 0.215228,0.1627954 0.358122,0.4080097 0.440271,0.7187845 0.0818,0.3095314 0.113157,0.6915233 0.113157,1.1874657 V 4.5834687 c 0,-0.4959424 -0.03135,-0.8779343 -0.113157,-1.1874657 C 12.24098,3.0852283 12.098086,2.8400139 11.882858,2.6772185 11.45817,2.3559825 10.889185,2.3811273 10.121825,2.3811273 Z"
     style="color:#000000;font-style:normal;font-variant:normal;font-weight:normal;font-stretch:normal;font-size:medium;line-height:normal;font-family:sans-serif;font-variant-ligatures:normal;font-variant-position:normal;font-variant-caps:normal;font-variant-numeric:normal;font-variant-alternates:normal;font-feature-settings:normal;text-indent:0;text-align:start;text-decoration:none;text-decoration-line:none;text-decoration-style:solid;text-decoration-color:#000000;letter-spacing:normal;word-spacing:normal;text-transform:none;writing-mode:lr-tb;direction:ltr;text-orientation:mixed;dominant-baseline:auto;baseline-shift:baseline;text-anchor:start;white-space:normal;shape-padding:0;clip-rule:nonzero;display:inline;overflow:visible;visibility:visible;opacity:0.2;isolation:auto;mix-blend-mode:normal;color-interpolation:sRGB;color-interpolation-filters:linearRGB;solid-color:#000000;solid-opacity:1;vector-effect:none;fill:#ffffff;fill-opacity:1;fill-rule:nonzero;stroke:none;stroke-width:0.26457033;stroke-linecap:butt;stroke-linejoin:miter;stroke-miterlimit:4;stroke-dasharray:none;stroke-dashoffset:0;stroke-opacity:1;marker:none;color-rendering:auto;image-rendering:auto;shape-rendering:auto;text-rendering:auto;enable-background:accumulate" />
  <path
     inkscape:connector-curvature="0"
     style="color:#000000;font-style:normal;font-variant:normal;font-weight:normal;font-stretch:normal;font-size:medium;line-height:normal;font-family:sans-serif;font-variant-ligatures:normal;font-variant-position:normal;font-variant-caps:normal;font-variant-numeric:normal;font-variant-alternates:normal;font-feature-settings:normal;text-indent:0;text-align:start;text-decoration:none;text-decoration-line:none;text-decoration-style:solid;text-decoration-color:#000000;letter-spacing:normal;word-spacing:normal;text-transform:none;writing-mode:lr-tb;direction:ltr;text-orientation:mixed;dominant-baseline:auto;baseline-shift:baseline;text-anchor:start;white-space:normal;shape-padding:0;clip-rule:nonzero;display:inline;overflow:visible;visibility:visible;opacity:0.1;isolation:auto;mix-blend-mode:normal;color-interpolation:sRGB;color-interpolation-filters:linearRGB;solid-color:#000000;solid-opacity:1;vector-effect:none;fill:#732206;fill-opacity:1;fill-rule:nonzero;stroke:none;stroke-width:0.26457033;stroke-linecap:butt;stroke-linejoin:miter;stroke-miterlimit:4;stroke-dasharray:none;stroke-dashoffset:0;stroke-opacity:1;marker:none;color-rendering:auto;image-rendering:auto;shape-rendering:auto;text-rendering:auto;enable-background:accumulate"
     d="M 5.9941844,2.116557 5.2004734,2.9102679 H 2.5806188 C 2.0694161,2.8586423 1.6720579,2.9249516 1.3512929,2.9857128 1.0295754,3.0466883 0.76693642,3.1630781 0.58652592,3.3748162 0.40685621,3.5856682 0.33206221,3.8571544 0.29663621,4.1757605 0.27732261,4.3490911 0.26970301,4.5461642 0.26666041,4.76226 h 0.010318 c 0.0045,-0.1120111 0.009,-0.2250382 0.019578,-0.3219292 C 0.33200841,4.1217247 0.40677631,3.8502385 0.58644605,3.6393865 0.76685655,3.4276483 1.0294955,3.3112585 1.351213,3.250283 1.671978,3.189516 2.0693362,3.1232126 2.5805389,3.174838 H 5.2003941 L 5.994105,2.3811273 h 4.12772 c 0.76736,0 1.336345,-0.025134 1.761033,0.2960912 0.215228,0.1627954 0.358122,0.4080098 0.440271,0.7187845 0.0818,0.3095314 0.113157,0.6915233 0.113157,1.1874657 V 4.3188983 c 0,-0.4959423 -0.03135,-0.8779342 -0.113157,-1.1874655 C 12.24098,2.8206579 12.098086,2.5754436 11.882858,2.4126482 11.45817,2.0914122 10.889185,2.116557 10.121825,2.116557 Z"
     id="path3531-2-4" />
  <path
     inkscape:connector-curvature="0"
     id="path3533-5-4"
     d="m 2.5790579,0.52913507 c -0.7673598,0 -1.3363447,-0.0251342 -1.76103295,0.29609121 C 0.602797,0.98802169 0.45990261,1.233236 0.37775351,1.5440109 0.29592191,1.8535423 0.26457031,2.2355342 0.26457031,2.7314766 v 0.2645703 c 0,-0.4959423 0.031352,-0.8779343 0.1131832,-1.1874656 C 0.45990251,1.4978064 0.60277054,1.252592 0.81802495,1.0897966 1.2427132,0.76856062 1.8116981,0.79370538 2.5790579,0.79370538 H 5.1193562 L 5.9130671,1.5874163 h 4.2072769 c 0.513795,0 0.90856,0.014684 1.229325,0.075445 0.321718,0.060975 0.584357,0.1773653 0.764767,0.3891036 0.17967,0.2108519 0.254437,0.4823381 0.28989,0.8009443 0.01773,0.159266 0.02646,0.3341522 0.02998,0.5291405 0,-0.2984167 -0.005,-0.5695722 -0.02998,-0.7937109 -0.03545,-0.3186062 -0.11022,-0.5900924 -0.28989,-0.8009443 -0.18041,-0.2117383 -0.443049,-0.3281281 -0.764767,-0.3891036 -0.320765,-0.060767 -0.71553,-0.075445 -1.229325,-0.075445 H 5.9130671 L 5.1193562,0.52913507 Z m 9.8536831,3.80113183 -0.0026,0.1973933 v 0.0031 c 0,0.047453 0.0037,0.091861 0.0037,0.1601894 V 4.4263747 c 0,-0.040995 0,-0.066516 -0.0026,-0.096113 z"
     style="color:#000000;font-style:normal;font-variant:normal;font-weight:normal;font-stretch:normal;font-size:medium;line-height:normal;font-family:sans-serif;font-variant-ligatures:normal;font-variant-position:normal;font-variant-caps:normal;font-variant-numeric:normal;font-variant-alternates:normal;font-feature-settings:normal;text-indent:0;text-align:start;text-decoration:none;text-decoration-line:none;text-decoration-style:solid;text-decoration-color:#000000;letter-spacing:normal;word-spacing:normal;text-transform:none;writing-mode:lr-tb;direction:ltr;text-orientation:mixed;dominant-baseline:auto;baseline-shift:baseline;text-anchor:start;white-space:normal;shape-padding:0;clip-rule:nonzero;display:inline;overflow:visible;visibility:visible;opacity:0.2;isolation:auto;mix-blend-mode:normal;color-interpolation:sRGB;color-interpolation-filters:linearRGB;solid-color:#000000;solid-opacity:1;vector-effect:none;fill:#ffffff;fill-opacity:1;fill-rule:nonzero;stroke:none;stroke-width:0.26457033;stroke-linecap:butt;stroke-linejoin:miter;stroke-miterlimit:4;stroke-dasharray:none;stroke-dashoffset:0;stroke-opacity:1;marker:none;color-rendering:auto;image-rendering:auto;shape-rendering:auto;text-rendering:auto;enable-background:accumulate" />
  <path
     id="path1359-3"
     d="M 5.2189933,5.2993248 3.824258,6.1361448 4.9400304,6.9686153 3.821533,7.8075545 5.2189933,8.6466075 6.3347393,7.8097848 4.9400304,6.9729675 6.3347393,6.1361448 7.7294481,6.977317 6.3347393,7.8097848 7.4504852,8.6466075 8.8479456,7.8032605 7.7293952,6.9720176 8.8451676,6.135195 7.4504323,5.298375 6.3346864,6.1308454 5.218914,5.298375 Z M 6.3347393,8.0887266 5.2189933,8.9255493 4.9400304,8.7582932 v 0.1672561 l 1.3947089,0.83682 1.3947088,-0.83682 V 8.7572032 L 7.4504852,8.9255493 Z"
     class="ColorScheme-Text"
     style="color:#ffffff;display:inline;opacity:0.7;fill:currentColor;stroke-width:0.27894044;enable-background:new"
     inkscape:connector-curvature="0" />
</svg>
