<svg height="48" viewBox="0 0 12.699375 12.699375" width="48" xmlns="http://www.w3.org/2000/svg" xmlns:xlink="http://www.w3.org/1999/xlink"><linearGradient id="a" gradientUnits="userSpaceOnUse" x1=".24753151" x2="12.41776577" y1="2.3811277" y2="11.64108855"><stop offset="0" stop-color="#666"/><stop offset="1" stop-color="#7a7a7a"/></linearGradient><linearGradient id="b" gradientUnits="userSpaceOnUse" x1=".24753151" x2="12.41776577" y1="11.90565886" y2=".52913553"><stop offset="0" stop-color="#2c001e"/><stop offset=".10864977" stop-color="#2c001e"/><stop offset=".18689813" stop-color="#370626"/><stop offset=".2980746" stop-color="#55163b"/><stop offset=".37246177" stop-color="#772953"/><stop offset=".44700962" stop-color="#7c2b51"/><stop offset=".52428877" stop-color="#8b314b"/><stop offset=".59614229" stop-color="#8b314b"/><stop offset=".66876179" stop-color="#a33a41"/><stop offset=".79755175" stop-color="#c44732"/><stop offset=".91251218" stop-color="#e65524"/><stop offset="1" stop-color="#e65524"/></linearGradient><path d="m2.5790579.79370559c-.7673598 0-1.3363447-.0251342-1.76103295.29609121-.21522795.1627954-.35812238.4080098-.44027146.7187847-.08183158.3095313-.11318318.6915233-.11318318 1.1874656v2.4886144.8650206 3.2461533c0 .5164996.014022.9104846.070799 1.2288046.0569885.319035.16461566.577967.36690613.758058.20176132.17963.46371236.253966.76579876.288855.3018218.03486.6604469.03411 1.1109837.03411h7.5412861c.442043 0 .796382.000529 1.096511-.03411.300367-.03489.562344-.108823.765825-.287305.203931-.178908.315606-.437335.375664-.757023.05992-.318974.07596-.714131.07596-1.2313896v-4.9048848c0-.068328-.0032-.1127361-.0037-.1601894v-.0031l.0037-.4960693c.0034-.4789279.005-.8601498-.03048-1.1786818-.03545-.3186017-.110247-.5900879-.28989-.8009398-.180437-.2117409-.44305-.3281281-.764794-.3891036-.320738-.0607691-.71553-.0754449-1.229326-.0754449h-4.207276l-.793711-.79371092z" opacity=".1"/><path d="m2.5790579.52913529c-.7673598 0-1.3363447-.0251342-1.76103295.2960912-.21522795.16279541-.35812238.40800971-.44027146.71878461-.08183158.3095314-.11318318.6915233-.11318318 1.1874657v2.2953537h12.17023369v-.6004503c0-.068328-.0032-.112736-.0037-.1601893v-.0031l.0037-.4960694c.0034-.4789278.005-.8601497-.03048-1.1786818-.03545-.3186016-.110218-.5900878-.289888-.8009397-.18041-.211741-.443049-.3281281-.764767-.3891036-.320765-.0607665-.71553-.0754449-1.229325-.0754449h-4.2072769l-.7937109-.79371092z" fill="url(#b)"/><path d="m6.068608 2.3811275-.7942401.7937108h-2.69531c-1.80246466 0-2.04989082-.0000555-2.04989082 2.0452529v.2645703c0-2.0453084.24742616-2.0452529 2.04989082-2.0452529h2.69531l.7942401-.7937108h4.051736c1.768361 0 2.049917-.0000556 2.049917 2.0452528v-.2645704c0-2.0453083-.281556-2.0452527-2.049917-2.0452527z" fill="#fff" opacity=".3"/><path d="m10.122063 2.3811275c.76736 0 1.336345-.025134 1.761033.2960912.215228.1627954.358122.4080098.440271.7187845.08181.3095314.113157.6915233.113157 1.1874657v2.4886145 1.1295909 1.1295908c0 .5164995-.01402.9104869-.0708 1.2288049-.05696.319035-.164589.577967-.36688.758057-.201787.17963-.463712.253967-.765798.288855-.301822.03486-.660447.03411-1.110984.03411h-7.5413109c-.4420176 0-.7963831.000529-1.0965117-.03411-.3003402-.034888-.56234415-.108823-.76579872-.287304-.20395725-.178908-.31563238-.437335-.37566337-.757023-.0599252-.318974-.0759582-.7141311-.0759582-1.2313899v-3.0528927c0-.068328.00317-.112736.0037-.1601894v-.0031l-.0037-.4960648c-.00344-.4789278-.00503-.8601498.030478-1.1786819.035453-.3186061.11022004-.5900923.28988974-.8009443.1804105-.2117409.44304945-.328128.76476695-.3891035.320792-.0607665.7181501-.1270704 1.2293529-.0754449h2.6198546l.7937109-.7937108z" fill="url(#a)"/><path d="m12.417766 8.2016743-3.1748434 3.1748437h1.2404644c1.754524 0 1.934379-.179781 1.934379-1.9307971z" fill="#fff" opacity=".05"/><path d="m.26459681 9.0666948v.2645703c0 .5164995.014022.9104839.070773 1.2288049.0569885.319035.16461566.577967.36690613.758057.20176132.17963.46371236.253967.76579876.288855.3018218.03486.6604469.03411 1.1109837.03411h7.5412856c.442044 0 .796383.000529 1.096512-.03411.300366-.03489.562343-.108823.765824-.287304.203931-.178908.315606-.437335.375664-.757023.05992-.318974.07596-.7141311.07596-1.2313899v-.2645703c0 .5172588-.01614.9124157-.07596 1.2313892-.06006.319689-.171733.578116-.375664.757023-.203481.178482-.465458.252416-.765824.287305-.300129.03463-.654468.03411-1.096512.03411h-7.5412861c-.4505368 0-.8091619.000794-1.1109837-.03411-.3020864-.034889-.56403744-.109225-.76579876-.288855-.20229047-.18009-.30991767-.439023-.36690613-.758057-.0568032-.3183208-.070799-.7123057-.0707725-1.2288052z" opacity=".2"/><path d="m5.9941844 2.3811275-.793711.7937108h-2.6198546c-.5112027-.051625-.9085609.014684-1.2293259.075445-.3217175.060975-.58435648.1773653-.76476698.3891035-.1796697.210852-.25446371.4823382-.28988971.8009443-.019314.1733306-.026933.3704038-.029976.5864995h.010318c.0045-.1120111.009-.2250382.019578-.3219292.035453-.3186061.11022004-.5900923.28988974-.8009442.1804105-.2117383.44304945-.3281281.76476695-.3891036.320765-.060767.7181232-.1270705 1.2293259-.075445h2.6198553l.7937109-.7937108h4.12772c.76736 0 1.336345-.025134 1.761033.2960912.215228.1627954.358122.4080097.440271.7187845.0818.3095314.113157.6915233.113157 1.1874657v-.2645703c0-.4959424-.03135-.8779343-.113157-1.1874657-.082149-.3107747-.225043-.5559891-.440271-.7187845-.424688-.321236-.993673-.2960912-1.761033-.2960912z" fill="#fff" opacity=".2"/><path d="m5.9941844 2.1165572-.793711.7937109h-2.6198546c-.5112027-.051626-.9085609.014684-1.2293259.075445-.3217175.060976-.58435648.1773653-.76476698.3891034-.1796697.210852-.25446371.4823382-.28988971.8009443-.019314.1733306-.026933.3704037-.029976.5864995h.010318c.0045-.1120111.009-.2250382.019578-.3219292.035453-.3186061.11022004-.5900923.28988974-.8009443.1804105-.2117382.44304945-.328128.76476695-.3891035.320765-.060766.7181232-.1270704 1.2293259-.075445h2.6198553l.7937109-.7937108h4.12772c.76736 0 1.336345-.025134 1.761033.2960912.215228.1627954.358122.4080098.440271.7187845.0818.3095314.113157.6915233.113157 1.1874657v-.2645704c0-.4959423-.03135-.8779342-.113157-1.1874655-.082149-.3107749-.225043-.5559892-.440271-.7187846-.424688-.321236-.993673-.2960912-1.761033-.2960912z" fill="#732206" opacity=".1"/><path d="m2.5790579.52913529c-.7673598 0-1.3363447-.0251342-1.76103295.2960912-.21522795.16279541-.35812238.40800971-.44027146.71878461-.08183158.3095314-.11318318.6915233-.11318318 1.1874657v.2645703c0-.4959423.031352-.8779343.11318318-1.1874656.0821491-.3107749.22501705-.5559893.44027146-.7187847.42468825-.32123597.99367315-.29609121 1.76103295-.29609121h2.5402983l.7937109.79371091h4.2072769c.513795 0 .90856.014684 1.229325.075445.321718.060975.584357.1773653.764767.3891036.17967.2108519.254437.4823381.28989.8009443.01773.159266.02646.3341522.02998.5291405 0-.2984167-.005-.5695722-.02998-.7937109-.03545-.3186062-.11022-.5900924-.28989-.8009443-.18041-.2117383-.443049-.3281281-.764767-.3891036-.320765-.060766-.71553-.075445-1.229325-.075445h-4.2072769l-.7937109-.79371081zm9.8536831 3.80113181-.0026.1973933v.0031c0 .047453.0037.091861.0037.1601894v-.2645749c0-.040995 0-.066516-.0026-.096113z" fill="#fff" opacity=".2"/><g enable-background="new" opacity=".7" transform="matrix(.1165104 0 0 .1165104 -22.865384 -.042528)"><g fill="none" stroke="#fff" stroke-linecap="square" stroke-width="3.694399"><path d="m245.98762 64.446461a14.777597 14.777597 0 0 1 14.7776-14.777619"/><path d="m253.37642 64.446461a7.3887981 7.3887981 0 0 1 7.3888-7.388804"/><path d="m238.59882 64.446461a22.166395 22.166395 0 0 1 22.1664-22.166392"/></g><path d="m258.91803 71.835281h5.541598v11.083197h-5.541598z" fill="#fff" stroke-width=".9236"/><circle cx="261.68881" cy="65.37014" fill="#fff" r="2.770799" stroke-width=".9236"/></g></svg>