<svg viewBox="0 0 24 24" xmlns="http://www.w3.org/2000/svg"><g transform="matrix(0 1 -1 0 24 0)"><path d="m4 4v1 6h6v-1-6h-1z" fill="#c43ac4"/><path d="m14 16v1 3h6v-1-3h-1z" fill="#1a7fd4"/><path d="m4 13v1h16v-1z" fill="#e95420"/><path d="m14 4v6h5 1v-1-4-1h-1-4z" fill="#c43ac4"/></g><g><path d="m13 9.5v.5h1 6v-.5h-6zm-9 10v.5h1 3v-.5h-3zm6 0v.5h1v-.5zm4 0v.5h1 4 1v-.5h-1-4z" opacity=".2"/><path d="m10 4v.5h1v-.5zm3 0v.5h6 1v-.5h-1zm-9 10v.5h3 1v-.5h-1zm10 0v.5h6v-.5z" fill="#fff" opacity=".3"/></g></svg>