<svg viewBox="0 0 24 24" xmlns="http://www.w3.org/2000/svg"><g transform="matrix(-1 0 0 1 24 0)"><path d="m4 16v1 3h6v-1-3h-1z" fill="#1a7fd4"/><path d="m4 13v1h16v-1z" fill="#e95420"/><g fill="#c43ac4" transform="matrix(-1 0 0 -1 24 14)"><path d="m4 3v1 6h6v-1-6h-1z"/><path d="m14 4v6h5 1v-1-4-1h-1-4z"/><g transform="matrix(1 0 0 -1 0 14)"><path d="m14 9.5v.5h1 4 1v-.5h-1-4zm-10 1v.5h5 1v-.5h-1zm0 3v.5h16v-.5zm10 6v.5h6v-.5z" fill="#372828" opacity=".2"/><path d="m4 4v.5h6v-.5zm10 0v.5h5 1v-.5h-1zm-10 9v.5h16v-.5zm10 3v.5h1 5v-.5h-5z" fill="#fff" opacity=".3"/></g></g></g></svg>