<svg height="16" width="16" xmlns="http://www.w3.org/2000/svg"><path d="m1.9375.5c-.9375 0-.9375.9375-.9375.9375v.9375c0 .9375.9375.9375.9375.9375h3.75c.6377154 0 .8283464-.4238658.8935546-.701294l5.6689454 4.5336918v2.7301022 2.8125h-1.875c-.9375 0-.9375.9375-.9375.9375v.9375c0 .9375.9375.9375.9375.9375h3.75c.9375 0 .9375-.9375.9375-.9375v-.9375c0-.9375-.9375-.9375-.9375-.9375h-.9375v-2.8125-1.9812007-.5310068-.6756586l-6.5643311-5.2569581c-.0055986-.92907675-.9356689-.9301758-.9356689-.9301758zm0 7.5v3.75h8.4375v-3.75zm.9375.9375h6.5625v1.875h-6.5625z" fill="#c43ac4" stroke-width=".9375"/><g stroke-width=".75"><path d="m1.9375.5c-.9375 0-.9375.9375-.9375.9375v.375s0-.9375.9375-.9375h3.75s.9304365.001103.9360352.9301758l6.5639648 5.2573242v-.375l-6.5639648-5.2573242c-.0055987-.92907675-.9360352-.9301758-.9360352-.9301758zm0 7.5v.375h8.4375v-.375zm.9375 2.8125v.375h6.5625v-.375zm7.5 1.875c-.9375 0-.9375.9375-.9375.9375v.375s0-.9375.9375-.9375h1.875v-.375zm2.8125 0v.375h.9375s.9375 0 .9375.9375v-.375c0-.9375-.9375-.9375-.9375-.9375z" fill="#fff" opacity=".3"/><path d="m1 2v.375c0 .9375.9375.9375.9375.9375h3.75c.6377154 0 .8283465-.424232.8935546-.7016602l5.6689454 4.5336914v-.375l-5.6689454-4.5336914c-.0652081.2774282-.2558392.7016602-.8935546.7016602h-3.75s-.9375 0-.9375-.9375zm1.875 6.5625v.375h6.5625v-.375zm-.9375 2.8125v.375h8.4375v-.375zm7.5 2.8125v.375c0 .9375.9375.9375.9375.9375h3.75c.9375 0 .9375-.9375.9375-.9375v-.375s0 .9375-.9375.9375h-3.75s-.9375 0-.9375-.9375z" opacity=".2"/></g></svg>