<?xml version="1.0" encoding="UTF-8" standalone="no"?>
<svg
   xmlns:dc="http://purl.org/dc/elements/1.1/"
   xmlns:cc="http://creativecommons.org/ns#"
   xmlns:rdf="http://www.w3.org/1999/02/22-rdf-syntax-ns#"
   xmlns:svg="http://www.w3.org/2000/svg"
   xmlns="http://www.w3.org/2000/svg"
   xmlns:sodipodi="http://sodipodi.sourceforge.net/DTD/sodipodi-0.dtd"
   xmlns:inkscape="http://www.inkscape.org/namespaces/inkscape"
   height="16"
   width="16"
   version="1.1"
   id="svg4"
   sodipodi:docname="connector-avoid.svg"
   inkscape:version="0.92.4 (5da689c313, 2019-01-14)">
  <metadata
     id="metadata10">
    <rdf:RDF>
      <cc:Work
         rdf:about="">
        <dc:format>image/svg+xml</dc:format>
        <dc:type
           rdf:resource="http://purl.org/dc/dcmitype/StillImage" />
        <dc:title></dc:title>
      </cc:Work>
    </rdf:RDF>
  </metadata>
  <defs
     id="defs8" />
  <sodipodi:namedview
     pagecolor="#ffffff"
     bordercolor="#666666"
     borderopacity="1"
     objecttolerance="10"
     gridtolerance="10"
     guidetolerance="10"
     inkscape:pageopacity="0"
     inkscape:pageshadow="2"
     inkscape:window-width="1920"
     inkscape:window-height="1016"
     id="namedview6"
     showgrid="false"
     inkscape:zoom="10.727273"
     inkscape:cx="-6.8516946"
     inkscape:cy="11"
     inkscape:window-x="0"
     inkscape:window-y="27"
     inkscape:window-maximized="1"
     inkscape:current-layer="svg4" />
  <path
     d="M 1.9375,0.5 C 1,0.5 1,1.4375 1,1.4375 V 2.375 c 0,0.9375 0.9375,0.9375 0.9375,0.9375 h 3.75 c 0.6377154,0 0.8283464,-0.4238658 0.8935546,-0.701294 L 12.25,7.1448978 V 9.875 12.6875 h -1.875 c -0.9375,0 -0.9375,0.9375 -0.9375,0.9375 v 0.9375 C 9.4375,15.5 10.375,15.5 10.375,15.5 h 3.75 c 0.9375,0 0.9375,-0.9375 0.9375,-0.9375 V 13.625 c 0,-0.9375 -0.9375,-0.9375 -0.9375,-0.9375 H 13.1875 V 9.875 7.8937993 7.3627925 6.6871339 L 6.6231689,1.4301758 C 6.6175703,0.50109905 5.6875,0.5 5.6875,0.5 Z m 0,7.5 v 3.75 H 10.375 V 8 Z M 2.875,8.9375 h 6.5625 v 1.875 H 2.875 Z"
     id="path2"
     inkscape:connector-curvature="0"
     style="fill:#c43ac4;stroke-width:0.9375" />
  <path
     d="M 1.9375,0.5 C 1,0.5 1,1.4375 1,1.4375 v 0.375 c 0,0 0,-0.9375 0.9375,-0.9375 h 3.75 c 0,0 0.9304365,0.001103 0.9360352,0.9301758 L 13.1875,7.0625 V 6.6875 L 6.6235352,1.4301758 C 6.6179365,0.50109905 5.6875,0.5 5.6875,0.5 Z m 0,7.5 V 8.375 H 10.375 V 8 Z m 0.9375,2.8125 v 0.375 h 6.5625 v -0.375 z m 7.5,1.875 c -0.9375,0 -0.9375,0.9375 -0.9375,0.9375 V 14 c 0,0 0,-0.9375 0.9375,-0.9375 h 1.875 v -0.375 z m 2.8125,0 v 0.375 h 0.9375 c 0,0 0.9375,0 0.9375,0.9375 v -0.375 c 0,-0.9375 -0.9375,-0.9375 -0.9375,-0.9375 z"
     id="path817"
     style="opacity:0.3;fill:#ffffff;fill-opacity:1;stroke-width:0.75"
     inkscape:connector-curvature="0" />
  <path
     d="m 1,2 v 0.375 c 0,0.9375 0.9375,0.9375 0.9375,0.9375 h 3.75 c 0.6377154,0 0.8283465,-0.424232 0.8935546,-0.7016602 L 12.25,7.1445312 v -0.375 L 6.5810546,2.2358398 C 6.5158465,2.513268 6.3252154,2.9375 5.6875,2.9375 h -3.75 C 1.9375,2.9375 1,2.9375 1,2 Z m 1.875,6.5625 v 0.375 H 9.4375 V 8.5625 Z M 1.9375,11.375 v 0.375 h 8.4375 v -0.375 z m 7.5,2.8125 v 0.375 C 9.4375,15.5 10.375,15.5 10.375,15.5 h 3.75 c 0.9375,0 0.9375,-0.9375 0.9375,-0.9375 v -0.375 c 0,0 0,0.9375 -0.9375,0.9375 h -3.75 c 0,0 -0.9375,0 -0.9375,-0.9375 z"
     id="path823"
     style="opacity:0.2;stroke-width:0.75"
     inkscape:connector-curvature="0" />
</svg>
