<svg height="16" width="16" xmlns="http://www.w3.org/2000/svg"><path d="m.5.49999938 3.7499985 4.55073002h11.2500015l-3.75-4.55073002zm0 5.22462002 3.7499985 4.5507456h11.2500015l-3.75-4.5507456zm0 5.2246356 3.7499985 4.550745h11.2500015l-3.75-4.550745z" fill="#1a7fd4"/><path d="m.5.5.41210938.5h10.83789062l3.337891 4.0507812h.412109l-3.75-4.5507812zm0 5.2246094.41210938.5h10.83789062l3.337891 4.0507816h.412109l-3.75-4.5507816zm0 5.2246096.41210938.5h10.83789062l3.337891 4.050781h.412109l-3.75-4.550781z" fill="#fff" opacity=".3"/><path d="m.5.5 3.75 4.5507812h11.25l-.412109-.5h-10.837891l-3.33789062-4.0507812zm0 5.2246094 3.75 4.5507816h11.25l-.412109-.5000004h-10.837891l-3.33789062-4.0507812zm0 5.2246096 3.75 4.550781h11.25l-.412109-.5h-10.837891l-3.33789062-4.050781z" opacity=".2"/></svg>