<svg height="16" viewBox="0 0 16 16" width="16" xmlns="http://www.w3.org/2000/svg"><g transform="translate(-329.92184 -114.95634)"><path d="m330.4642 120.5063h8.996735v8.992967h-8.996735z" fill="none"/><g fill-rule="evenodd"><path d="m331.45348 120.45634c-.2936.00004-.53161.23827-.53164.53216v7.43568c.00003.29389.23804.53213.53164.53216h7.43672c.2936-.00003.53161-.23827.53164-.53216v-7.43568c-.00003-.29389-.23804-.53212-.53164-.53216z" fill="#fdc92b"/><path d="m343.42184 125.45634c1.5 0 2 1 2 2v2.5l-1 .5h-1v-2h-4v2h-1l-1-.5v-2.5c0-1 .5-2 2-2v-5c-1.5 0-2-1-2-2v-2.5l1-.5h1v2h4v-2h1l1 .5v2.5c0 .5-.5 2-2 2z" fill="#666"/><g transform="translate(329.92184 114.95634)"><path d="m7.5 3v.5c0 .5608687.1655685 1.1155658.5683594 1.5h.9003906c.2825432.0000385.5083885.2215247.5253906.5.0021107.000004.0037448 0 .0058594 0v-.5c-1.5 0-2-1-2-2zm8 0c0 .5-.5 2-2 2v.5c1.5 0 2-1.5 2-2zm-14.5 9.96875v.5c.00003.29389.23765.53122.53125.53125h5.96875v-.5h-5.96875c-.2936-.00003-.53122-.23736-.53125-.53125zm8.5.03125v.5h4v-.5zm-2 1.5v.5l1 .5h1v-.5h-1zm8 0-1 .5h-1v.5h1l1-.5z" fill="#171717" opacity=".2"/><path d="m8.5.5-1 .5v.5l1-.5h1v-.5zm5 0v.5h1l1 .5v-.5l-1-.5zm-4 2v.5h4v-.5zm-7.96875 3c-.2936.00004-.53122.23736-.53125.53125v.5c.00003-.29389.23765-.53121.53125-.53125h7.4375c.2936.00004.53122.23736.53125.53125v-.5c-.0000011-.0110678-.005194-.0203524-.0058594-.03125-.6553486-.0012333-1.1114291-.1999741-1.4257812-.5zm11.96875 5v.5c1.5 0 2 1 2 2v-.5c0-1-.5-2-2-2z" fill="#fff" opacity=".3"/></g></g></g></svg>