<svg height="24" width="24" xmlns="http://www.w3.org/2000/svg"><g transform="matrix(.914058 0 0 .90883507 -35.376228 -88.923961)"><g fill-rule="evenodd"><path d="m54.743661 112.4127-1.999673 5.29205c-.414619 1.2179 1.285404 1.8688 1.716649.60602l2.049518-5.19564" fill="#666"/><path d="m53.288116 107.31357.894204 1.29322 5.749454 2.29092 1.543894-.50636 1.967246-5.47192c-2.472446 0-.494489-5.96684-6.922847-5.96684z" fill="#1a7fd4" stroke-width=".98888"/><path d="m54.18232 108.60679-.901048 3.28267 4.944891 1.88866 1.893962-3.05711" fill="#eab305"/></g><g fill="none"><path d="m63.442914 105.41658-1.720001 4.27896c-.228622.74664-1.173681 1.34821-1.660783 1.02824-1.794273-1.17852-3.741195-1.98537-5.919696-2.2399-.417359-.0487-.899357-1.1718-.711045-1.67201l3.088678-7.36204"/><path d="m40.129433 98.961418h23.735476v23.73077h-23.735476z" stroke-width=".98888"/><path d="m44.93228 119.94763c12.316319-1.97697-2.312429-19.87581-2.312429-19.87581h11.661812" stroke="#666" stroke-width=".994563"/></g><path d="m40.99227 117.9583h3.894102v3.99024h-3.894102zm4.426626 2.99582h5.401344m0-1.01875h1.991457v2.01317h-1.991457z" style="fill:#fff;fill-rule:evenodd;stroke:#666;stroke-width:.991717;stroke-linecap:round;stroke-linejoin:round"/><path d="m52.98615 112.38671 4.450403 1.98893 1.483466-2.98345-4.450401-1.49167z" fill="none" stroke-width=".98888"/><path d="m55.953085 106.41991 2.472446-5.96681" fill="none" stroke="#fff" stroke-linecap="round" stroke-width=".991718"/><g transform="matrix(1.19585544 0 0 1.20248945 -4.936689 85.945176)"><path d="m37.406779 25.940678v.5 4.5h5v-5zm1 1h3v3h-3z" fill="#666"/><path d="m38.40678 26.940678h3v3h-3z" fill="#fff"/></g><path d="m63.270259 104.89211-1.795289 4.99505-1.443696.47205-1.805111 2.91329-1.718685-.65574-2.048674 5.18862c-.350109 1.02518-1.518784.78038-1.730471.004-.281676 1.1468 1.312215 1.72642 1.730471.50167l2.048674-5.1886 1.718685.65573 1.805111-2.91329 1.443696-.47205 1.966175-5.47303c-.06371 0-.112864-.02-.170886-.0277zm-9.856416 2.09756-.12571.32392.793542 1.14952.100174-.36145zm-.0078 4.44202-.125709.45823 1.284595.49181.166957-.44243z" fill-rule="evenodd" opacity=".2"/><path d="m56.520067 98.9442-3.23113 8.36064.12571.18171 3.10542-8.03672c6.262704 0 4.55745 5.64728 6.750996 5.93915l.170887-.47797c-2.472445 0-.493525-5.96681-6.921883-5.96681zm-2.437588 10.01577-.801399 2.92119.12571.0474.775864-2.8244zm.483196 3.91862-1.820824 4.81927c-.07801.22913-.06476.4284-.0157.60833.0087-.0356.0032-.066.0157-.1027l1.987783-5.2617z" fill="#fff" fill-rule="evenodd" opacity=".3"/></g></svg>