<svg viewBox="0 0 24 24" xmlns="http://www.w3.org/2000/svg"><g transform="translate(-36.550108 -98.403025)"><path d="m37.550108 99.579515v.457985c7.328162 2.0038-1.984558 14.32812 4.122091 19.23643 3.804324 3.05777 9.75525 2.61103 12.366274 0 .916021-.91602 2.748061-1.83204 5.238446-.85877v-.20042c-1.574364-2.60489-4.322425-2.14688-5.696456-.31484-1.738057 2.31735-6.870152 5.03811-9.618213.91602-3.664081-5.49612 10.534233-19.236405-6.412142-19.236405z" fill="#666" stroke-width=".91602pt"/><g transform="translate(-.160178 -.468615)"><g fill-rule="evenodd"><path d="m47.786509 109.04735v9.1602h1.832041c1.83204-2.74806 3.664081-4.5801 6.412142-6.41214v-5.49612l-5.496122-.91602z" fill="#eab305"/><path d="m49.155053 116.7116 1.837527-5.3742h.916021v-1.83204h-1.832041v1.83204l-1.221623 5.37209.300116.002z" fill="#666" stroke-width=".91602"/><path d="m52.171581 99.88715-1.637011 5.49612 6.469128 1.63152c.646838-.29615.933186-1.21043.859035-2.12462l1.826553-3.06253" fill="#1a7fd4"/><path d="m56.929189 106.56731c.446331-.21361.58366-.73611.566494-1.2587l-4.737941-.95578-.617993.96448z" fill="#f22c42" stroke-width=".91602"/></g><path d="m51.830757 104.1983 1.184497-3.86242" fill="none" opacity=".3" stroke="#fff" stroke-linecap="round" stroke-width=".91602"/><g fill-rule="evenodd"><path d="m48.275444 115.9175-.03641-6.66405 2.439839-3.24097 3.568723.87397-.619065 1.09245-2.330593-.10928-1.74795 1.67513z" fill="#fff" opacity=".3" stroke-width=".91602"/><path d="m59.452979 101.76735-1.590512 2.66398c.07415.91419-.211931 1.8293-.858769 2.12545l-.973272-.24511v.45801l.973272.24511c.646838-.29615.932921-1.21126.858769-2.12545l1.826673-3.06116zm-3.422553 9.56991c-2.748061 1.83204-4.580101 3.66408-6.412142 6.41214h-1.83204v.45801h1.83204c1.832041-2.74806 3.664081-4.5801 6.412142-6.41214z" opacity=".2"/><path d="m52.171333 99.88702-1.637028 5.49611-2.748061 3.66408v.45801l2.748061-3.66408 1.637028-5.49612 7.281646 1.88034.236161-.39718z" fill="#fff" opacity=".3"/></g></g><g stroke-width=".91602pt" transform="translate(36.550108 98.403025)"><path d="m1 1.1757812v.4589844c.0469763.0128451.0852423.0312333.1308594.0449219 6.4483568.0287725 8.3144578 2.0798191 8.3828125 4.9023437.141083-3.099272-1.573092-5.40625-8.5136719-5.40625zm2.9589844 5.140625c-.057654 2.9029343-1.1992909 6.6019038-1.0253906 9.7753908-.0438911-3.246844 1.1041984-6.9519218 1.0253906-9.7753908zm15.8437496 11.6738278c-1.055564.017897-2.084469.58984-2.771484 1.50586-1.738057 2.31735-6.87108 5.038105-9.6191406.916015-.4132871-.61993-.5900368-1.348329-.6191406-2.146484-.0390021.996683.1210163 1.899298.6191406 2.646484.7777883 1.166682 1.7486051 1.771204 2.7773436 2.00586.611128.071592 1.220941.091248 1.820313.0625 2.059954-.30271 4.060295-1.702823 5.021484-2.984375 1.301816-1.735753 3.833706-2.231824 5.435547-.064453.087868.030209.170181.045067.259765.080078v-.199219c-.787182-1.302445-1.868263-1.840162-2.923828-1.822266z" fill="#fbfbfb" opacity=".3"/><path d="m1 1.1757812v.4589844c2.2215548.6074581 2.9028746 2.1713794 2.9589844 4.1816406.0438084-2.2057938-.5412571-3.9504899-2.828125-4.6367187-.0458-.0002044-.0845962-.0039063-.1308594-.0039063zm8.5136719 4.90625c-.1645359 3.6144717-2.8439481 8.3036838-2.7207031 11.6835938.1368343-3.496752 2.8055245-8.181112 2.7207031-11.6835938zm-6.5800781 9.5097658c.0279414 2.06697.5341857 3.948851 2.1894531 5.279297 3.804324 3.05777 9.7542101 2.61103 12.3652341 0 .916021-.91602 2.747897-1.832645 5.238281-.859375v-.199219c-.082744-.136906-.170907-.26063-.259765-.380859-2.354819-.809583-4.095446.056384-4.978516.939453-1.25611 1.256113-3.287315 2.004277-5.478515 2.109375-.610671.089738-1.224426.073422-1.820313-.0625-1.7987904-.210724-3.5928846-.862515-5.0664061-2.046875-1.5223598-1.22362-2.086948-2.908691-2.1894531-4.779297z" opacity=".2"/></g></g></svg>