<?xml version="1.0" encoding="UTF-8" standalone="no"?>
<svg
   xmlns:dc="http://purl.org/dc/elements/1.1/"
   xmlns:cc="http://creativecommons.org/ns#"
   xmlns:rdf="http://www.w3.org/1999/02/22-rdf-syntax-ns#"
   xmlns:svg="http://www.w3.org/2000/svg"
   xmlns="http://www.w3.org/2000/svg"
   xmlns:sodipodi="http://sodipodi.sourceforge.net/DTD/sodipodi-0.dtd"
   xmlns:inkscape="http://www.inkscape.org/namespaces/inkscape"
   width="16"
   height="15.974"
   version="1.1"
   id="svg8"
   sodipodi:docname="edit-cut.svg"
   inkscape:version="0.92.4 (5da689c313, 2019-01-14)">
  <metadata
     id="metadata14">
    <rdf:RDF>
      <cc:Work
         rdf:about="">
        <dc:format>image/svg+xml</dc:format>
        <dc:type
           rdf:resource="http://purl.org/dc/dcmitype/StillImage" />
      </cc:Work>
    </rdf:RDF>
  </metadata>
  <defs
     id="defs12" />
  <sodipodi:namedview
     pagecolor="#ffffff"
     bordercolor="#666666"
     borderopacity="1"
     objecttolerance="10"
     gridtolerance="10"
     guidetolerance="10"
     inkscape:pageopacity="0"
     inkscape:pageshadow="2"
     inkscape:window-width="1920"
     inkscape:window-height="1016"
     id="namedview10"
     showgrid="false"
     inkscape:zoom="14.774008"
     inkscape:cx="-6.92486"
     inkscape:cy="7.9870001"
     inkscape:window-x="0"
     inkscape:window-y="27"
     inkscape:window-maximized="1"
     inkscape:current-layer="svg8" />
  <path
     style="fill:#c4c4c4;stroke-width:0.18150909"
     d="M 4.52706,0.48379028 C 4.510486,0.46536218 4.49889,0.47144758 4.456849,0.51520028 4.2735426,0.70591121 4.0272463,1.2242115 3.9524462,1.5757402 3.9156008,1.7486457 3.9170408,2.7200081 3.954289,2.8690814 3.997653,3.0426217 4.2621726,3.5732218 5.2605633,5.4834783 6.638237,8.1193711 6.914029,8.6528137 6.9234311,8.7075926 7.1016549,8.672469 8.0246193,8.3454578 8.0246193,8.3454578 l 0.059125,0.03141 0.862843,0.3381164 c 5.451e-4,-0.01418 0.00414,-0.02662 0.00924,-0.038804 C 8.9666613,8.6503562 9.0877444,8.4206193 9.2255829,8.1662342 9.5081469,7.644726 9.5462769,7.573746 10.15495,6.4682648 11.006355,4.9219162 11.770458,3.525378 11.873246,3.3254455 12.015677,3.0483906 12.079809,2.711875 12.083875,2.2187151 c 0.0031,-0.3630006 -0.02067,-0.53666 -0.112708,-0.8240432 -0.104314,-0.3257184 -0.308051,-0.7287866 -0.421259,-0.83328134 -0.0301,-0.0277742 -0.03179,-0.0275758 -0.06837,0.0295628 C 11.427908,0.67473886 10.957146,1.5222075 10.435779,2.4699935 8.7751668,5.4886891 8.0357769,6.8239146 7.972884,6.9227826 7.963614,6.9373606 7.952135,6.9505526 7.947018,6.9504976 7.9254416,6.9503149 7.4650583,6.0790872 4.7746389,0.94385034 4.648817,0.70367747 4.5377468,0.4957334 4.5270561,0.48379038 Z"
     id="path12"
     inkscape:connector-curvature="0" />
  <path
     d="M 7.59733,8.8854858 C 7.669045,9.1232443 7.9199076,9.2578336 8.1576482,9.186137 8.395407,9.1144253 8.5300142,8.8635594 8.4582999,8.625801 8.3865846,8.3880603 8.1357222,8.253453 7.8979815,8.3251674 7.6602229,8.3968637 7.5256156,8.6477275 7.59733,8.8854858 Z"
     id="path24"
     inkscape:connector-curvature="0"
     style="opacity:0.1;fill:#060606;stroke-width:0.18150909" />
  <path
     d="m 13.688358,12.676848 c -0.303393,-0.923972 -1.157321,-1.542427 -2.084142,-1.509357 -0.504359,0.018 -0.830204,0.128093 -1.259401,0.42504 -0.121085,0.08379 -0.223056,0.149727 -0.225797,0.146551 -0.003,-0.0031 -0.03254,-0.111831 -0.06556,-0.241715 C 9.9796269,11.207242 9.7328429,10.437426 9.6175119,10.137119 9.5094059,9.8556696 9.3076949,9.4339523 9.1302333,9.1185435 8.9887289,8.867389 8.9450393,8.7753465 8.9473807,8.715358 8.0841961,7.9001818 7.4275868,8.5148263 6.9231366,8.7075061 c 1.806e-4,0.00114 0.00198,0.00508 0.00198,0.00576 -3.243e-4,0.034539 -0.050116,0.1289491 -0.1855552,0.351442 -0.1832687,0.301033 -0.4471291,0.8456697 -0.5954948,1.2290719 -0.1551352,0.400863 -0.4358756,1.269873 -0.4366741,1.351843 -5.629e-4,0.05903 -0.022241,0.05736 -0.1164567,-0.0089 -0.048774,-0.03431 -0.1420104,-0.100007 -0.2073535,-0.145995 -0.6348281,-0.446731 -1.451347,-0.52516 -2.136689,-0.204997 -0.4647538,0.217121 -0.8170269,0.563713 -1.0444213,1.027559 -0.1600733,0.326536 -0.2045611,0.561952 -0.1969375,1.042226 0.00425,0.263915 0.00927,0.312559 0.043685,0.432354 0.1345524,0.466841 0.4754264,0.966355 0.8208744,1.202861 0.247016,0.169166 0.5435289,0.296042 0.8537832,0.36574 0.208644,0.04682 0.5462326,0.05354 0.7658406,0.01488 0.7117879,-0.12488 1.2338449,-0.51222 1.6161569,-1.198324 0.1469496,-0.263734 0.1749205,-0.365559 0.3121236,-1.140421 0.1884424,-1.06408 0.3720026,-1.794273 0.5440549,-2.163171 0.1464974,-0.314137 0.4686939,-0.682275 0.781597,-0.8934065 0.080569,-0.05437 0.1026794,-0.062054 0.1760274,-0.06135 0.076728,7.268e-4 0.093985,0.00808 0.2045789,0.085799 0.1587121,0.111624 0.4292331,0.388595 0.5488654,0.561863 0.1183259,0.171381 0.2249812,0.392676 0.2944441,0.612666 0.1225554,0.38685 0.262971,1.064223 0.406654,1.964327 0.107127,0.670312 0.148656,0.829678 0.281738,1.08252 0.235399,0.446875 0.5109481,0.745277 0.8865281,0.960183 0.648277,0.371004 1.396511,0.389156 2.067768,0.05028 0.598163,-0.30185 1.041299,-0.896655 1.132035,-1.519594 0.03149,-0.216177 0.03656,-0.616588 0.0099,-0.777947 -0.01168,-0.07044 -0.04041,-0.186411 -0.06377,-0.257926 z m -0.879811,0.294046 c 0.197264,0.653977 -0.173015,1.344073 -0.827047,1.541375 -0.654013,0.197299 -1.344112,-0.172978 -1.541374,-0.827139 -0.197265,-0.653976 0.173014,-1.344073 0.827046,-1.541374 0.654013,-0.197192 1.344111,0.173159 1.541375,0.827138 z m -7.4873426,-0.09057 c 0.1972467,0.654157 -0.1730323,1.344255 -0.8270458,1.541375 -0.6540136,0.197299 -1.344111,-0.172979 -1.5413748,-0.826955 -0.1972647,-0.653978 0.1730144,-1.344076 0.827046,-1.541377 0.6540137,-0.197281 1.3441109,0.17298 1.5413746,0.826957 z"
     id="path28"
     inkscape:connector-curvature="0"
     style="fill:#da1636;stroke-width:0.18150909" />
  <path
     d="M 7.580849,8.5376782 C 7.6525456,8.7754192 7.9034086,8.9100259 8.1411673,8.8383305 8.3789259,8.7666154 8.5135152,8.5157517 8.441819,8.2779928 8.3701037,8.0402522 8.1192412,7.9056449 7.8814816,7.9773592 7.6437419,8.0490556 7.5091346,8.299919 7.580849,8.5376782 Z"
     id="path30"
     inkscape:connector-curvature="0"
     style="fill:#4c4c4c;stroke-width:0.18150909" />
  <path
     style="opacity:0.3;fill:#ffffff;fill-opacity:1;stroke-width:0.18150909"
     d="M 4.52706,0.48379028 C 4.510491,0.46536218 4.499244,0.47158838 4.457198,0.51534108 4.273891,0.70605197 4.0271903,1.2252618 3.9523898,1.5767905 c -0.016367,0.076813 0.00138,0.3247439 0,0.5746702 0.075253,-0.3514992 0.3218104,-0.8688065 0.5048082,-1.0591959 0.042046,-0.043753 0.053293,-0.049979 0.069863,-0.031551 0.010693,0.011944 0.1220759,0.2195633 0.2478972,0.4597361 2.6904202,5.1352369 3.1515034,6.0079374 3.1730803,6.0081193 0.00512,5.66e-5 0.015558,-0.014719 0.02479,-0.029297 0.062893,-0.098868 0.8025851,-1.4321805 2.4631945,-4.4508761 0.521367,-0.9477861 0.992055,-1.7957237 1.045674,-1.8795092 0.03658,-0.057139 0.03751,-0.057072 0.06761,-0.029297 0.113204,0.1044947 0.317106,0.5058631 0.421424,0.8315815 0.05353,0.1671356 0.07917,0.3051878 0.09465,0.4552288 0.004,-0.072779 0.01737,-0.1265677 0.01803,-0.207332 0.0031,-0.3630006 -0.02065,-0.5374373 -0.112684,-0.8248205 C 11.866413,1.0685293 11.66251,0.66716093 11.549303,0.5626662 11.519203,0.5348919 11.518273,0.534825 11.481693,0.5919636 11.428083,0.6757489 10.957388,1.5236865 10.436021,2.4714725 8.7754119,5.490168 8.0357195,6.8234805 7.9728267,6.9223486 7.9635967,6.9369266 7.9531607,6.9517026 7.9480377,6.9516456 7.9264606,6.9514637 7.4653774,6.0787632 4.7749571,0.94352634 4.6491358,0.70335347 4.5377504,0.49573329 4.52706,0.48379028 Z M 6.7761613,8.9979219 c -0.019967,0.033886 -0.00993,0.024686 -0.036058,0.067608 -0.1832689,0.3010335 -0.4465872,0.8448153 -0.5949524,1.2282171 -0.155136,0.400863 -0.4364024,1.270197 -0.4372008,1.352165 -5.631e-4,0.05904 -0.022961,0.05724 -0.1171871,-0.009 C 5.54199,11.602612 5.448774,11.536424 5.3834305,11.490426 4.7486021,11.043697 3.932352,10.965185 3.2470106,11.285349 c -0.4647536,0.21712 -0.8160251,0.563798 -1.0434208,1.027645 -0.1600732,0.326535 -0.2059433,0.563148 -0.1983175,1.043421 0.00213,0.131957 0.016109,0.156137 0.022535,0.216346 0.021737,-0.248556 0.065537,-0.457955 0.1757818,-0.682843 0.2273957,-0.463846 0.5786671,-0.810525 1.0434207,-1.027646 0.6853415,-0.320163 1.5015916,-0.241652 2.13642,0.205079 0.065343,0.046 0.1585594,0.112176 0.2073325,0.146485 0.094227,0.06625 0.1166239,0.06805 0.1171871,0.009 7.984e-4,-0.08196 0.2820648,-0.951302 0.4372008,-1.352164 0.1483655,-0.383402 0.4116838,-0.9271848 0.5949529,-1.2282179 0.135434,-0.222493 0.184469,-0.3170282 0.1847956,-0.3515629 0,-6.923e-4 -0.00208,-0.00564 -0.00225,-0.00676 -8.338e-4,-0.00486 -0.1409064,-0.2727113 -0.146484,-0.2862098 z m 2.3076942,0.015776 c -0.04459,0.084624 -0.1233399,0.2289431 -0.1284556,0.2411357 -0.00481,0.011504 -0.00819,0.022846 -0.00901,0.036058 0,0 0,0.00225 0,0.00225 0,0 0.00225,0 0.00225,0 -0.00235,0.059988 0.041038,0.1522414 0.1825422,0.4033959 0.1774618,0.3154075 0.3786738,0.7371825 0.4867798,1.0186315 0.11533,0.300307 0.361113,1.068801 0.4349461,1.358925 0.03301,0.129885 0.06234,0.240275 0.06536,0.243389 0.0028,0.0032 0.106532,-0.0627 0.227614,-0.146483 0.429197,-0.296949 0.753154,-0.407933 1.257514,-0.425932 0.926821,-0.03307 1.781194,0.585944 2.084587,1.509916 0.02047,0.06267 0.04241,0.155169 0.05635,0.225362 0.01108,-0.202208 0.02777,-0.432184 0.009,-0.545373 -0.01168,-0.07044 -0.042,-0.185398 -0.06536,-0.256912 -0.303393,-0.923972 -1.157766,-1.542987 -2.084587,-1.509917 -0.504359,0.018 -0.828317,0.128983 -1.257514,0.425931 -0.121084,0.08379 -0.224873,0.149662 -0.227614,0.146485 -0.003,-0.0031 -0.03234,-0.113504 -0.06536,-0.243389 C 9.9790739,11.20705 9.7332909,10.438555 9.6179609,10.138248 9.5098549,9.8567984 9.3086429,9.4350255 9.1311813,9.1196167 9.0941059,9.0538128 9.1084009,9.0599628 9.0838555,9.0136979 Z M 5.324837,13.505139 C 5.229353,13.925026 4.9349127,14.289241 4.4932557,14.422358 3.8392423,14.619657 3.1513058,14.24926 2.9540418,13.595283 c -0.00454,-0.01509 -5.596e-4,-0.02997 -0.00451,-0.04506 -0.045286,0.201129 -0.05927,0.410556 0.00451,0.621995 0.197264,0.653977 0.8852005,1.024375 1.5392139,0.827074 0.6381919,-0.19235 0.9974249,-0.854409 0.8315813,-1.494142 z m 7.48874,0.09015 c -0.09549,0.419845 -0.389911,0.78398 -0.83158,0.917219 -0.654014,0.197299 -1.344207,-0.172915 -1.54147,-0.827074 -0.0045,-0.01509 -5.58e-4,-0.02997 -0.0045,-0.04508 -0.04529,0.201129 -0.05927,0.410556 0.0045,0.621996 0.197263,0.65416 0.887456,1.024374 1.54147,0.827074 0.63821,-0.192529 0.997441,-0.854576 0.83158,-1.494142 z"
     id="path850"
     inkscape:connector-curvature="0" />
  <path
     style="opacity:0.2;fill:#000000;fill-opacity:1;stroke-width:0.18150909"
     d="m 12.060357,1.8020112 c -0.02002,0.3716229 -0.07245,0.6675077 -0.191558,0.8991896 -0.102785,0.1999325 -0.868098,1.5974349 -1.719504,3.1437835 -0.6086721,1.105481 -0.6459191,1.1754587 -0.9284861,1.6969669 -0.1378374,0.2543851 -0.259598,0.485746 -0.2704327,0.511569 -0.00481,0.011504 -0.00819,0.022846 -0.00901,0.036058 0,0 0,0.00225 0,0.00225 0,0 0.00225,0 0.00225,0 -0.00174,0.044271 0.066079,0.1671607 0.1352165,0.2974763 0.049849,-0.0946 0.069221,-0.1361548 0.1419772,-0.2704295 0.282567,-0.5215082 0.319814,-0.5914858 0.9284861,-1.6969669 0.851406,-1.5463487 1.616716,-2.943851 1.719504,-3.1437834 0.14243,-0.277055 0.205519,-0.6133618 0.209587,-1.1065217 0.0013,-0.1518874 -0.007,-0.2616431 -0.01803,-0.3695918 z M 3.9496196,2.2459719 c 0.00225,0.249878 -0.016641,0.5104383 0,0.5769238 0.043362,0.1735404 0.3087026,0.703929 1.3070933,2.6141854 1.2554979,2.4021367 1.4570993,2.7977381 1.5144246,2.9364515 0.083534,-0.1417655 0.1484738,-0.2560823 0.148738,-0.2839546 0,-6.923e-4 -0.00208,-0.00564 -0.00225,-0.00676 C 6.9082205,8.0280381 6.6343859,7.4960503 5.2567129,4.8601574 4.2583222,2.9499011 3.9929811,2.4195124 3.9496196,2.2459719 Z m 3.9640969,7.0447793 c -0.073344,-7.04e-4 -0.095208,0.00647 -0.1757817,0.060846 C 7.425031,9.5627287 7.104686,9.9321433 6.9581866,10.246281 6.7861353,10.61518 6.6012567,11.345666 6.4128138,12.409745 6.2756109,13.184608 6.2487655,13.286338 6.1018161,13.55007 c -0.3823123,0.686105 -0.9040498,1.071789 -1.6158375,1.196667 -0.2196083,0.03865 -0.5575829,0.0333 -0.7662274,-0.01352 -0.3102545,-0.0697 -0.6071002,-0.195919 -0.854117,-0.365085 -0.345448,-0.236506 -0.6857615,-0.736586 -0.820314,-1.203427 -0.017225,-0.05989 -0.016109,-0.156138 -0.022535,-0.216347 -0.00984,0.11234 -0.02491,0.211074 -0.022535,0.360578 0.00426,0.263915 0.010618,0.312896 0.045072,0.432693 0.1345525,0.46684 0.474866,0.96692 0.820314,1.203427 0.2470168,0.169167 0.5438625,0.295384 0.854117,0.365084 0.2086445,0.04682 0.5466191,0.05218 0.7662274,0.01352 C 5.1977674,15.19878 5.7195048,14.813096 6.1018171,14.126992 6.2487665,13.86326 6.275612,13.76153 6.4128149,12.986666 6.6012577,11.922588 6.7861364,11.192102 6.9581877,10.823203 7.1046871,10.509066 7.425032,10.139651 7.7379358,9.9285193 c 0.080574,-0.05437 0.1024384,-0.06155 0.1757818,-0.060847 0.076731,7.269e-4 0.094477,0.00796 0.2050779,0.085637 0.1587117,0.1116237 0.4302489,0.3878817 0.5498809,0.5611497 0.118326,0.17138 0.2235061,0.392991 0.2929689,0.61298 0.1225554,0.38685 0.2642206,1.065043 0.4079036,1.965147 0.107127,0.670312 0.148618,0.828889 0.281701,1.081731 0.235399,0.446877 0.5100881,0.745131 0.8856671,0.960037 0.648279,0.371005 1.397556,0.390706 2.068813,0.05184 0.598164,-0.301851 1.040575,-0.898246 1.131311,-1.521185 0.03149,-0.216177 0.038,-0.616136 0.0113,-0.777495 -0.0015,-0.0088 -0.0071,-0.02164 -0.009,-0.03154 -0.0047,0.08606 0.0072,0.167585 -0.0024,0.232121 -0.09074,0.62294 -0.533148,1.219335 -1.131311,1.521186 -0.671257,0.338873 -1.420535,0.319171 -2.068813,-0.05184 C 10.161337,14.342528 9.8866479,14.044273 9.6512489,13.597397 9.5181659,13.344554 9.4766739,13.185978 9.3695479,12.515665 9.2258649,11.615562 9.0841996,10.937369 8.9616443,10.550519 8.8921814,10.33053 8.7870013,10.108918 8.6686754,9.9375368 8.5490434,9.7642693 8.2775061,9.4880115 8.1187944,9.3763883 8.0081935,9.2987113 7.9904473,9.291478 7.9137165,9.2907512 Z M 4.2651253,11.384354 c -0.159749,-0.0172 -0.3255303,-0.0043 -0.489034,0.04506 -0.6389499,0.192751 -0.9988741,0.856141 -0.8315813,1.496396 0.094785,-0.420957 0.3890081,-0.785962 0.8315813,-0.919472 0.1635037,-0.04932 0.329285,-0.06226 0.489034,-0.04506 0.4792494,0.05157 0.9022337,0.381663 1.0501811,0.872146 0.00477,0.01583 3.958e-4,0.03147 0.00451,0.04734 0.04591,-0.201888 0.059538,-0.411847 -0.00451,-0.62425 C 5.167359,11.766027 4.7443747,11.43593 4.2651253,11.384364 Z m 7.4864857,0.09015 c -0.159749,-0.01722 -0.325529,-0.0043 -0.489032,0.04506 -0.638952,0.19275 -0.998875,0.856142 -0.831582,1.496397 0.09479,-0.420959 0.389007,-0.785964 0.831582,-0.919473 0.163503,-0.04931 0.329283,-0.06228 0.489032,-0.04506 0.47925,0.05162 0.904487,0.381663 1.052436,0.872147 0.0047,0.01582 3.95e-4,0.03147 0.0045,0.04731 0.04591,-0.201867 0.05954,-0.411904 -0.0045,-0.624249 -0.147949,-0.490482 -0.573186,-0.820523 -1.052436,-0.872147 z"
     id="path855"
     inkscape:connector-curvature="0" />
</svg>
