<?xml version="1.0" encoding="UTF-8" standalone="no"?>
<svg
   xmlns:dc="http://purl.org/dc/elements/1.1/"
   xmlns:cc="http://creativecommons.org/ns#"
   xmlns:rdf="http://www.w3.org/1999/02/22-rdf-syntax-ns#"
   xmlns:svg="http://www.w3.org/2000/svg"
   xmlns="http://www.w3.org/2000/svg"
   xmlns:sodipodi="http://sodipodi.sourceforge.net/DTD/sodipodi-0.dtd"
   xmlns:inkscape="http://www.inkscape.org/namespaces/inkscape"
   width="16"
   height="16"
   version="1.1"
   id="svg4"
   sodipodi:docname="edit-clone-unlink.svg"
   inkscape:version="0.92.4 (5da689c313, 2019-01-14)">
  <metadata
     id="metadata10">
    <rdf:RDF>
      <cc:Work
         rdf:about="">
        <dc:format>image/svg+xml</dc:format>
        <dc:type
           rdf:resource="http://purl.org/dc/dcmitype/StillImage" />
        <dc:title />
      </cc:Work>
    </rdf:RDF>
  </metadata>
  <defs
     id="defs8" />
  <sodipodi:namedview
     pagecolor="#ffffff"
     bordercolor="#666666"
     borderopacity="1"
     objecttolerance="10"
     gridtolerance="10"
     guidetolerance="10"
     inkscape:pageopacity="0"
     inkscape:pageshadow="2"
     inkscape:window-width="1920"
     inkscape:window-height="1016"
     id="namedview6"
     showgrid="true"
     inkscape:zoom="52.4375"
     inkscape:cx="9.2121581"
     inkscape:cy="2.6600139"
     inkscape:window-x="0"
     inkscape:window-y="27"
     inkscape:window-maximized="1"
     inkscape:current-layer="g837">
    <inkscape:grid
       type="xygrid"
       id="grid877" />
  </sodipodi:namedview>
  <path
     style="color:#000000;overflow:visible;fill:#808080"
     d="M 1.9804688 1.9804688 L 1.9804688 13 L 3 13 L 3 3 L 11 3 L 11 4 L 4.0039062 4 L 4.0039062 15 L 8.203125 15 L 8.203125 14 L 5.0058594 14 L 5.0058594 5 L 13 5 L 13 9.0175781 L 14 9.0175781 L 14 4 L 12 4 L 12 3 L 12.011719 3 L 12.011719 1.9804688 L 3.4824219 1.9804688 L 1.9804688 1.9804688 z "
     id="path2" />
  <g
     id="g837"
     transform="translate(23.614406,-15.135594)">
    <g
       id="g844"
       transform="matrix(0.46153846,0,0,0.44316261,-547.30671,142.07398)"
       style="color:#000000">
      <path
         id="path842"
         style="font-weight:400;line-height:normal;font-family:sans-serif;font-variant-ligatures:none;font-variant-position:normal;font-variant-caps:normal;font-variant-numeric:normal;font-variant-alternates:normal;font-feature-settings:normal;text-indent:0;text-align:start;text-decoration:none;text-decoration-line:none;text-decoration-style:solid;text-decoration-color:#000000;text-transform:none;white-space:normal;shape-padding:0;overflow:visible;isolation:auto;mix-blend-mode:normal;fill:#808080;marker:none"
         overflow="visible"
         font-weight="400"
         d="m 1161,-265 c -2.222,0 -4,1.778 -4,4 v 2 0 h 8 v 0 0 -2 c 0,-2.222 -1.778,-4 -4,-4 z m 0,1 c 1.662,0 3,1.338 3,3 v 2 h -6 v -2 c 0,-1.662 1.338,-3 3,-3 z"
         inkscape:connector-curvature="0"
         sodipodi:nodetypes="sscccccssssccss" />
    </g>
    <path
       style="opacity:1;fill:#808080;fill-opacity:1;stroke:none;stroke-width:0.29847693;stroke-linejoin:bevel;stroke-miterlimit:4;stroke-dasharray:none;stroke-opacity:0.99563317"
       d="m -13.960558,27.295148 v 0.960185 0.960186 0.960185 0.960186 h 1 1 1 1.0000001 1 v -0.960186 -0.960185 -0.960186 -0.960185 h -1 -1.0000001 -1 -1 z m 1,0.960185 h 1 1 1.0000001 v 0.960186 0.960185 h -1.0000001 -1 -1 v -0.960185 z"
       id="rect881"
       inkscape:connector-curvature="0" />
  </g>
</svg>
