<svg height="16" width="16" xmlns="http://www.w3.org/2000/svg"><g fill="#1a7fd4" transform="matrix(.75 0 0 .75 -.054038 -.000005)"><path d="m4.5225718-.00259813c-1.7356302 0-2.8210445-.00190601-3.61458321.67968748-.39676933.34079675-.61288808.82872355-.71614581 1.35677075-.10325772.5280473-.11979166 1.1299929-.11979166 1.8802084v4.0859373 4.0833332c0 .750213.01653295 1.352161.11979166 1.880208.10325872.528048.31937665 1.015975.71614581 1.356771.79353831.681593 1.87895731.679688 3.61458321.679688h2.2161458v-2.666667-4.0859373c0-.7237008.02641-1.2647088.096354-1.6223959.0699445-.357687.1558641-.4983382.2760419-.6015625.2403554-.2064482 1.0482905-.3593749 2.7447915-.3593749h6.21875v-2.7473958-.0026c.004216-.7495589-.011874-1.3490618-.114583-1.8776082-.102852-.5292768-.32044-1.0190613-.718751-1.35937505-.796621-.68062747-1.884164-.67968749-3.619791-.67968748zm0 1.33333333h7.0989582c1.696493 0 2.50983.1519508 2.752603.3593749.121388.1037122.209379.2425046.278647.5989584.06927.3564539.09266.8995004.08854 1.6223958v1.4192708h-4.885415c-1.7356302 0-2.8210445-.00191-3.6145832.6796875-.3967694.3407967-.6128882.8287235-.7161457 1.3567707-.1032578.5280473-.1197918 1.1299929-.1197918 1.8802084v4.0859373 1.333333h-.8828125c-1.6964953 0-2.5044331-.152924-2.7447915-.359374-.1201792-.103226-.2060967-.243876-.2760417-.601563s-.0963542-.898698-.0963542-1.622396v-4.0833332-4.0859373c0-.7237008.02641-1.2647088.096354-1.6223959.0699445-.357687.155864-.4983382.2760419-.6015625.2403554-.2064484 1.0482906-.3593749 2.7447915-.3593749z"/><path d="m9.8574219 5.3320312c-1.7356279 0-2.8215272-.00179-3.6152344.6796876-.3968536.340739-.6114956.8293432-.7148437 1.3574218-.1033482.5280787-.1210938 1.1286627-.1210938 1.8789063v4.0839841 4.083985c0 .750241.017745 1.352781.1210938 1.880859.1033492.528078.3179896 1.014731.7148437 1.355469.7937081.681475 1.8796114.68164 3.6152344.68164h7.0976561c1.735625 0 2.822917.0012 3.619141-.679687.398112-.340438.616126-.830184.71875-1.359375.102412-.528097.117477-1.130143.113281-1.878906v-.0039-4.080078-4.0800779-.00391c.004185-.7487677-.010868-1.3508136-.113281-1.8789095-.102626-.5291897-.320642-1.0189351-.71875-1.359375-.796218-.6808797-1.883516-.6777344-3.619141-.6777344zm0 1.3320313h7.0976561c1.696495 0 2.511662.1522213 2.753906.359375.121123.1035768.206248.2430753.275391.5996094.06914.356534.09396.8981279.08984 1.6210937v.00195 4.0859372 4.085938.002c.0041.722961-.0207 1.264564-.08984 1.621094-.06914.356529-.154266.496032-.275391.599609-.242248.2071102-1.057411.3593312-2.753906.3593312h-7.0976561c-1.6964985 0-2.5055318-.152829-2.7460938-.359375-.120281-.103273-.2053961-.241963-.2753906-.599609-.069994-.357647-.097656-.90133-.097656-1.625v-4.083985-4.0839841c0-.7236727.027662-1.2653981.097656-1.6230469s.1551104-.4982897.2753906-.6015625c.2405605-.2065456 1.0495904-.359375 2.7460938-.359375z"/></g><g fill="#45a925" transform="matrix(.7619048 0 0 .7619048 3.737322 3.208333)"><path d="m7.9824219 3.5c-1.6493997 0-2.9808382 1.3044079-2.9785157 2.9101562l.00391 2.5859376c2.0541237-.00878 3.1831024.018633 5.9492188.00586v-.0488288h-1.488285v.037109l-2.9726562.00586-.00391-2.6289063c-.00113-.79395.6655347-1.4335937 1.4902344-1.4335937.8247006 0 1.4882812.63964 1.4882812 1.4335937v.5859373h1.4882846v-.5429688c.001113-1.6050976-1.3271628-2.9101562-2.9765621-2.9101562z"/><path d="m4 8.966265h8v5.033735h-8z"/></g></svg>