<?xml version="1.0" encoding="UTF-8" standalone="no"?>
<svg
   xmlns:dc="http://purl.org/dc/elements/1.1/"
   xmlns:cc="http://creativecommons.org/ns#"
   xmlns:rdf="http://www.w3.org/1999/02/22-rdf-syntax-ns#"
   xmlns:svg="http://www.w3.org/2000/svg"
   xmlns="http://www.w3.org/2000/svg"
   xmlns:sodipodi="http://sodipodi.sourceforge.net/DTD/sodipodi-0.dtd"
   xmlns:inkscape="http://www.inkscape.org/namespaces/inkscape"
   height="16"
   width="16"
   version="1.1"
   id="svg14"
   sodipodi:docname="edit-clone.svg"
   inkscape:version="0.92.4 (5da689c313, 2019-01-14)">
  <metadata
     id="metadata20">
    <rdf:RDF>
      <cc:Work
         rdf:about="">
        <dc:format>image/svg+xml</dc:format>
        <dc:type
           rdf:resource="http://purl.org/dc/dcmitype/StillImage" />
      </cc:Work>
    </rdf:RDF>
  </metadata>
  <defs
     id="defs18" />
  <sodipodi:namedview
     pagecolor="#ffffff"
     bordercolor="#666666"
     borderopacity="1"
     objecttolerance="10"
     gridtolerance="10"
     guidetolerance="10"
     inkscape:pageopacity="0"
     inkscape:pageshadow="2"
     inkscape:window-width="1920"
     inkscape:window-height="1016"
     id="namedview16"
     showgrid="false"
     inkscape:zoom="14.75"
     inkscape:cx="8"
     inkscape:cy="8"
     inkscape:window-x="0"
     inkscape:window-y="27"
     inkscape:window-maximized="1"
     inkscape:current-layer="svg14" />
  <path
     d="m3.3378906-.00195313c-1.3017225 0-2.1157834-.00142947-2.71093748.50976563-.29757698.25559755-.45966607.6215427-.53710937 1.0175781-.07744329.3960355-.08984375.8474947-.08984375 1.4101563v3.0644531 3.0625c0 .5626597.01239972 1.014121.08984375 1.410156.07744404.396036.23953252.761981.53710937 1.017578.59515378.511195 1.40921818.509766 2.71093748.509766h.6621094v1.0625c0 .562681.0142853 1.014098.0917969 1.410156.0775119.396059.2375157.760072.5351562 1.015625.5952811.511106 1.4111734.511719 2.7128907.511719h5.3222652c1.301719 0 2.117676.0009 2.714844-.509766.298584-.255328.462095-.622638.539063-1.019531.076809-.396073.087131-.846631.083984-1.408203v-.003906-3.0605471-3.0585938-.0039062c.003139-.5615758-.007175-1.0121312-.083984-1.4082031-.07697-.3968923-.240482-.7642014-.539063-1.0195313-.597163-.5106598-1.413125-.5097656-2.714844-.5097656h-.660156v-1.0605469-.0019531c.003162-.5621692-.008906-1.0117935-.085937-1.4082031-.077139-.3969576-.24033-.764296-.539063-1.0195313-.597466-.51047059-1.4131235-.50976563-2.7148436-.50976563zm0 1.00000001h5.3242188c1.2723696 0 1.8823746.11396322 2.0644526.26953122.091041.0777842.157034.1818784.208985.4492188.051952.2673404.069496.6746253.066406 1.2167969v1.0644531h-3.6640624c-.3254306 0-.6199996-.0000407-.8886718.0078125-.5373445.0157063-.9693759.0635254-1.3300782.2070312-.1803511.071753-.343399.1671224-.4921875.2949219-.297577.2555975-.4596663.6215427-.5371093 1.0175781-.0774434.3960355-.0898438.8474947-.0898438 1.4101563v3.0625.0019531 1h-.6621094c-1.2723713 0-1.8783249-.114694-2.0585937-.269531-.0901344-.07742-.1545725-.182907-.2070313-.451172-.0524587-.268265-.0722656-.6740235-.0722656-1.216797v-3.0625-3.0644531c0-.5427756.0198076-.9485316.0722656-1.2167969.0524584-.2682652.1168979-.3737537.2070313-.4511719.1802665-.1548363.7862182-.26953123 2.0585937-.26953122zm4 4.00000002h4.6640624.660156c1.272372 0 1.884724.114166 2.066407.2695312.090842.0776826.153221.1818182.205078.4492188.051855.2674005.071449.6745725.068359 1.2167969v3.0644531 3.0644531.001953c.003075.542221-.016504.9494-.068359 1.216797s-.114235.371536-.205078.449219c-.181686.155332-.794035.269531-2.066407.269531h-5.3222652c-1.2723739 0-1.8801254-.114622-2.0605469-.269531-.0902108-.077455-.1545354-.180985-.2070313-.449219-.0524955-.268235-.0722656-.675998-.0722656-1.21875v-1.0625-2.0019531-3.0625c0-.5427545.0197701-.9485603.0722656-1.2167969.0524584-.2682652.1168979-.3737537.2070313-.4511719.1802665-.1548361.7862181-.2695312 2.0585937-.2695312z"
     fill="#1a7fd4"
     transform="matrix(.99999997323 0 0 .99999997323 .00000025 -.00000030405)"
     id="path2" />
  <g
     id="g846"
     transform="matrix(0.7619048,0,0,0.7619048,3.7998389,3.261299)">
    <g
       style="display:none"
       inkscape:label="Layer 2"
       id="layer2">
      <path
         inkscape:export-ydpi="96"
         inkscape:export-xdpi="96"
         inkscape:export-filename="/home/stuart/yaru/icons/Suru/16x16/actions/window-close.png"
         d="m 8.0433398,0.04505873 c -4.4093907,0 -7.99999071,3.59058997 -7.99999071,7.99999007 0,4.4093902 3.59060001,7.9999902 7.99999071,7.9999902 4.4094002,0 7.9999902,-3.5906 7.9999902,-7.9999902 0,-4.4094001 -3.59059,-7.99999007 -7.9999902,-7.99999007 z"
         style="color:#000000;display:inline;opacity:1;fill:#c7162b;fill-opacity:1;stroke-width:1.49999845;stroke-dashoffset:0.80000001;enable-background:new"
         id="path3689-6"
         inkscape:connector-curvature="0" />
      <path
         sodipodi:nodetypes="ssccsscsccssc"
         id="path5-3"
         d="m 7.9958658,3.0505013 c -1.6499524,0 -2.9811417,1.297562 -2.9782536,2.8937941 L 5.021357,8.01401 c 2.054812,-0.00873 3.1839387,0.018216 5.950982,0.00552 l 0.0018,-2.0752386 C 10.975486,4.3487023 9.6458178,3.0505013 7.9958658,3.0505013 Z m 0,1.4246371 c 0.824977,0 1.489127,0.635388 1.489127,1.424637 l -0.00178,2.1087104 -2.9727301,0.00552 -0.00375,-2.1142346 c -0.0014,-0.7892477 0.6641507,-1.424637 1.4891267,-1.424637 z"
         class="ColorScheme-Text"
         style="display:inline;opacity:1;fill:#ffffff;fill-opacity:1;stroke:none;stroke-width:0.60000002;stroke-miterlimit:4;stroke-dasharray:none;stroke-opacity:0.74509804"
         inkscape:connector-curvature="0" />
      <rect
         ry="0"
         rx="0"
         y="8"
         x="4.0129442"
         height="4.9375"
         width="7.9558058"
         id="rect826"
         style="opacity:1;vector-effect:none;fill:#ffffff;fill-opacity:1;stroke:none;stroke-width:1.01737952;stroke-linecap:round;stroke-linejoin:miter;stroke-miterlimit:4;stroke-dasharray:none;stroke-dashoffset:0;stroke-opacity:1;paint-order:stroke fill markers" />
    </g>
    <g
       id="g1536"
       inkscape:label="Layer 2 copy"
       style="display:inline">
      <path
         inkscape:connector-curvature="0"
         style="display:inline;opacity:1;fill:#c7162b;fill-opacity:1;stroke:none;stroke-width:0.60168487;stroke-miterlimit:4;stroke-dasharray:none;stroke-opacity:0.74509804"
         class="ColorScheme-Text"
         d="M 7.9815874,3.5 C 6.3321877,3.5 5.002009,4.8052959 5.0043315,6.4110442 l 0.00374,2.5850328 c 2.0541237,-0.00878 3.1828721,0.018324 5.9489885,0.00555 l 0.0018,-2.5905898 C 10.959973,4.8059395 9.6309867,3.5 7.9815874,3.5 Z m 0,1.4331294 c 0.8247006,0 1.4886281,0.6391756 1.4886281,1.4331293 l -0.00178,2.6242611 -2.9717342,0.00555 -0.00375,-2.6298181 c -0.00113,-0.79395 0.6639282,-1.4331265 1.4886279,-1.4331265 z"
         id="path1532"
         sodipodi:nodetypes="ssccsscsccssc" />
      <rect
         style="opacity:1;vector-effect:none;fill:#c7162b;fill-opacity:1;stroke:none;stroke-width:1.03009558;stroke-linecap:round;stroke-linejoin:miter;stroke-miterlimit:4;stroke-dasharray:none;stroke-dashoffset:0;stroke-opacity:1;paint-order:stroke fill markers"
         id="rect1534"
         width="8"
         height="5.0337348"
         x="4"
         y="8.9662647"
         rx="0"
         ry="0" />
    </g>
  </g>
</svg>
