<?xml version="1.0" encoding="UTF-8" standalone="no"?>
<svg
   xmlns:dc="http://purl.org/dc/elements/1.1/"
   xmlns:cc="http://creativecommons.org/ns#"
   xmlns:rdf="http://www.w3.org/1999/02/22-rdf-syntax-ns#"
   xmlns:svg="http://www.w3.org/2000/svg"
   xmlns="http://www.w3.org/2000/svg"
   xmlns:sodipodi="http://sodipodi.sourceforge.net/DTD/sodipodi-0.dtd"
   xmlns:inkscape="http://www.inkscape.org/namespaces/inkscape"
   height="16"
   viewBox="0 0 16 16"
   width="16"
   version="1.1"
   id="svg14"
   sodipodi:docname="format-indent-more.svg"
   inkscape:version="0.92.4 (5da689c313, 2019-01-14)">
  <metadata
     id="metadata20">
    <rdf:RDF>
      <cc:Work
         rdf:about="">
        <dc:format>image/svg+xml</dc:format>
        <dc:type
           rdf:resource="http://purl.org/dc/dcmitype/StillImage" />
        <dc:title></dc:title>
      </cc:Work>
    </rdf:RDF>
  </metadata>
  <defs
     id="defs18" />
  <sodipodi:namedview
     pagecolor="#ffffff"
     bordercolor="#666666"
     borderopacity="1"
     objecttolerance="10"
     gridtolerance="10"
     guidetolerance="10"
     inkscape:pageopacity="0"
     inkscape:pageshadow="2"
     inkscape:window-width="796"
     inkscape:window-height="480"
     id="namedview16"
     showgrid="false"
     inkscape:zoom="14.75"
     inkscape:cx="8"
     inkscape:cy="8"
     inkscape:window-x="0"
     inkscape:window-y="27"
     inkscape:window-maximized="0"
     inkscape:current-layer="svg14" />
  <g
     id="g833"
     transform="matrix(-1,0,0,1,16,0)">
    <g
       id="g10"
       style="fill:#c43ac4">
      <path
         id="path2"
         d="M 3,1 H 15 V 3 H 3 Z"
         inkscape:connector-curvature="0" />
      <path
         id="path4"
         d="m 6,13 h 9 v 2 H 6 Z"
         inkscape:connector-curvature="0" />
      <path
         id="path6"
         d="M 1,5 H 8 V 7 H 1 Z"
         inkscape:connector-curvature="0" />
      <path
         id="path8"
         d="m 3,9 h 5 v 2 H 3 Z"
         inkscape:connector-curvature="0" />
    </g>
    <path
       id="path12"
       d="m 14.017578,4.2441406 a 0.750075,0.750075 0 0 0 -0.466797,0.15625 l -3.9999998,3 a 0.750075,0.750075 0 0 0 0,1.1992188 l 3.9999998,2.9999996 a 0.750075,0.750075 0 1 0 0.898438,-1.199218 L 11.248047,8 14.449219,5.5996094 A 0.750075,0.750075 0 0 0 14.017578,4.2441406 Z"
       inkscape:connector-curvature="0"
       style="fill:#e95420" />
  </g>
</svg>
