<svg height="16" width="16" xmlns="http://www.w3.org/2000/svg"><path d="m8 5.3515625-.2070312.0917969c-.5257851.2373224-1.2887385.5500131-2.0371094.9785156v.00195c-.8258956.474509-1.6328116.9792359-2.4199219 1.5156281-.7609667.5157664-1.4921137 1.1027416-2.2070313 1.6679688l-1.1289062.8925781h2.8300781l.1347657-.103516c.4381001-.334428.8718899-.6863582 1.3105468-.9863278.5712284-.3910099 1.1574492-.7568523 1.7558594-1.1015624.6436512-.360414 1.2995453-.6971604 1.9667969-1.0117188.5707125.2695852 1.3861433.6771451 1.96875 1.0117188.5989011.3445295 1.1834431.7102916 1.7558591 1.1015624.438053.30009.87333.6536738 1.3125.9882818l.132813.101562h2.832031l-1.130859-.8925781c-.714874-.5643749-1.447408-1.1516945-2.207032-1.6679688-.829837-.5634594-1.637116-1.0695467-2.419921-1.5175781-.7483717-.4285024-1.5113247-.7411932-2.0371099-.9785156z" fill="#fb7c38"/><path d="m8 5.3515625-.2070312.0917969c-.5257851.2373224-1.2887385.5500131-2.0371094.9785156v.0019531c-.8258956.474509-1.6328116.9792328-2.4199219 1.515625-.7609667.5157664-1.4921136 1.1027416-2.2070313 1.6679688l-1.1289062.8925781h.6328125l.4960937-.392578c.7149177-.5652274 1.4460646-1.1522025 2.2070313-1.6679689.7871103-.5363922 1.5940263-1.041116 2.4199219-1.515625v-.0019531c.7483709-.4285025 1.5113243-.7411932 2.0371094-.9785156l.2070312-.0917969.2050781.0917969c.5257852.2373224 1.2887377.5500132 2.0371099.9785156.782804.4480314 1.590084.9541187 2.419921 1.5175781.759624.5162743 1.492158 1.1035938 2.207032 1.6679689l.498047.392578h.632812l-1.130859-.8925781c-.714874-.5643749-1.447408-1.1516945-2.207032-1.6679688-.829837-.5634594-1.637117-1.0695467-2.419921-1.5175781-.7483722-.4285024-1.5113247-.7411932-2.0371099-.9785156z" fill="#fcfcfc" opacity=".3"/><path d="m7.9980469 6.796875c-.6672516.3145584-1.3231457.6513048-1.9667969 1.0117188-.5984102.3447101-1.184631.7105525-1.7558594 1.1015624-.4386569.2999696-.8724468.6519002-1.3105468.9863282l-.1347657.1035156h-2.1972656l-.6328125.5h2.8300781l.1347657-.103516c.4381-.334428.8718899-.6863582 1.3105468-.9863278.5712284-.3910099 1.1574492-.7568524 1.7558594-1.1015624.6436512-.3604141 1.2995453-.6971604 1.9667969-1.0117188.5707125.2695852 1.3861433.677145 1.96875 1.0117188.5989011.3445295 1.1834431.7102917 1.7558591 1.1015624.438053.3000901.87333.6536728 1.3125.9882818l.132813.101562h2.832031l-.632812-.5h-2.199219l-.132813-.1015625c-.43917-.334608-.874447-.6881912-1.3125-.9882813-.572416-.3912707-1.156958-.7570329-1.7558591-1.1015624-.5826067-.3345737-1.3980375-.7421336-1.96875-1.0117188z" opacity=".2"/></svg>