<?xml version="1.0" encoding="UTF-8" standalone="no"?>
<svg
   xmlns:dc="http://purl.org/dc/elements/1.1/"
   xmlns:cc="http://creativecommons.org/ns#"
   xmlns:rdf="http://www.w3.org/1999/02/22-rdf-syntax-ns#"
   xmlns:svg="http://www.w3.org/2000/svg"
   xmlns="http://www.w3.org/2000/svg"
   xmlns:sodipodi="http://sodipodi.sourceforge.net/DTD/sodipodi-0.dtd"
   xmlns:inkscape="http://www.inkscape.org/namespaces/inkscape"
   height="16"
   width="16"
   version="1.1"
   id="svg4"
   sodipodi:docname="interactive_simplify.svg"
   inkscape:version="0.92.4 (5da689c313, 2019-01-14)">
  <metadata
     id="metadata10">
    <rdf:RDF>
      <cc:Work
         rdf:about="">
        <dc:format>image/svg+xml</dc:format>
        <dc:type
           rdf:resource="http://purl.org/dc/dcmitype/StillImage" />
      </cc:Work>
    </rdf:RDF>
  </metadata>
  <defs
     id="defs8" />
  <sodipodi:namedview
     pagecolor="#ffffff"
     bordercolor="#666666"
     borderopacity="1"
     objecttolerance="10"
     gridtolerance="10"
     guidetolerance="10"
     inkscape:pageopacity="0"
     inkscape:pageshadow="2"
     inkscape:window-width="1920"
     inkscape:window-height="1016"
     id="namedview6"
     showgrid="false"
     inkscape:zoom="14.75"
     inkscape:cx="0.30508475"
     inkscape:cy="8"
     inkscape:window-x="0"
     inkscape:window-y="27"
     inkscape:window-maximized="1"
     inkscape:current-layer="svg4" />
  <path
     d="M 7.4698006,1.0004752 C 6.8569645,1.0159145 6.3834598,1.4072492 6.0879584,1.8456688 5.8065074,2.2632421 5.6335931,2.7447127 5.4879222,3.2630245 5.195129,4.3048121 5.0184548,5.5783176 4.8370687,6.8847096 4.6556017,8.1916838 4.4734224,9.5295122 4.2253054,10.602759 3.9792339,11.667157 3.5684064,12.477874 3.4044092,12.626405 3.12772,12.877 2.8785342,12.953591 2.8415089,12.95565 c -0.059358,0.0033 -0.036971,5.63e-4 -0.023455,0.008 0.013517,0.0075 -0.011797,-0.0024 -0.072318,-0.09436 C 2.6649922,12.746563 2.5031185,12.297276 2.4447422,11.576438 2.3865596,10.857991 2.4092596,9.8572483 2.5874219,8.5670665 v -0.002 C 2.6769493,7.9893491 2.278014,7.4708715 1.8134339,7.386606 1.5808588,7.3444216 1.3236581,7.3904715 1.1117629,7.5472129 0.89986786,7.7039543 0.75632008,7.9702056 0.72085997,8.2599059 0.33159376,11.072582 0.43641983,12.88441 1.2055797,14.053799 1.6115663,14.671037 2.2640063,15.034801 2.93728,14.997365 3.5746074,14.961923 4.1339769,14.631083 4.6162085,14.19433 5.4310091,13.45637 5.7747383,12.320223 6.0566861,11.10064 6.3405906,9.8725918 6.5231612,8.4876439 6.7036306,7.187855 6.8840512,5.8884179 7.0664175,4.6617078 7.2919396,3.8592776 7.3569725,3.6278841 7.4133702,3.537215 7.4776185,3.3895024 c 0.023424,0.077252 0.037675,0.078661 0.056682,0.1726524 0.1300182,0.6430081 0.1793643,1.6794008 0.2149966,2.7022107 0.035595,1.0216974 0.052758,2.0387223 0.2325873,2.8889161 0.087105,0.4118118 0.2164873,0.8836244 0.5941726,1.2587564 0.4502963,0.447253 1.1072615,0.47538 1.622246,0.200759 0.719579,-0.383722 1.192803,-1.0181452 1.47566,-1.6683043 0.279055,-0.6414228 0.399752,-1.2995797 0.488628,-1.881108 0.01086,-0.071121 0.01914,-0.1053796 0.02932,-0.17466 0.01086,0.025586 0.01638,0.042681 0.02736,0.068258 0.235861,0.549448 0.489564,1.1132408 0.877577,1.5739473 0.190454,0.226136 0.473427,0.4985751 0.889303,0.5902304 0.47765,0.1052687 0.920556,-0.091185 1.231345,-0.421593 l 0.002,-0.002 C 15.613041,8.2804673 15.559185,7.649637 15.266361,7.2902419 15.119704,7.1102435 14.91031,6.9695576 14.648734,6.9409219 14.570997,6.9324118 14.505519,7.013632 14.42592,7.0292558 14.314254,6.8652265 14.114927,6.5211886 13.931427,6.0937207 13.720683,5.6027882 13.517845,5.0605129 13.323573,4.6121222 13.228496,4.3926786 13.134073,4.1838341 12.999124,3.9777252 12.940144,3.8876453 12.830663,3.7341154 12.660993,3.6083293 12.527436,3.5093166 12.388027,3.4545939 12.215363,3.4276466 12.042698,3.4006992 11.831972,3.4097107 11.6251,3.5199955 10.972197,3.8680612 10.708518,4.5439483 10.569661,5.0999656 10.432102,5.6507798 10.379022,6.2126815 10.299938,6.7301254 10.220832,7.2477211 10.115107,7.72982 9.9657163,8.0732005 9.9210115,8.1759564 9.8391167,8.1993539 9.7917643,8.2779742 9.7201204,7.7426868 9.6652063,7.0415554 9.6354031,6.1860696 9.5996177,5.1588692 9.5682711,4.0704314 9.3774072,3.1265087 9.2826411,2.6578406 9.1478047,2.1925992 8.8711878,1.7794185 8.5708708,1.330837 8.0684779,0.98539236 7.4698006,1.0004752 Z"
     id="path2"
     inkscape:connector-curvature="0"
     style="fill:#1d99f3;stroke-width:1.01420677" />
  <path
     d="M 7.4698006,1.0004752 C 6.8569644,1.0159145 6.3834598,1.4072492 6.0879584,1.8456688 5.8065074,2.2632421 5.6335931,2.7447127 5.4879222,3.2630245 5.195129,4.3048122 5.0184548,5.5783176 4.8370687,6.8847096 4.6556017,8.1916838 4.4734225,9.5295125 4.2253054,10.602759 3.9792339,11.667157 3.5684064,12.477874 3.4044092,12.626405 3.12772,12.877 2.8785342,12.953591 2.8415089,12.95565 c -0.059358,0.0033 -0.03697,5.75e-4 -0.023454,0.008 0.013517,0.0075 -0.011797,-0.0024 -0.072317,-0.09436 -0.080745,-0.122744 -0.2426191,-0.572047 -0.3009954,-1.292884 -0.019002,-0.234642 -0.012577,-0.548074 -0.011727,-0.843187 -0.023848,0.526301 -0.018485,0.984063 0.011727,1.357129 0.058377,0.720837 0.2202508,1.17014 0.3009954,1.292884 0.06052,0.092 0.085834,0.101864 0.072317,0.09436 -0.013516,-0.0075 -0.035904,-0.0047 0.023454,-0.008 0.037025,-0.0021 0.2862111,-0.07865 0.5629003,-0.329245 C 3.5684064,12.991816 3.9792339,12.181099 4.2253054,11.116701 4.4734224,10.043456 4.6556017,8.7056258 4.8370687,7.3986516 5.0184548,6.0922596 5.195129,4.8187541 5.4879222,3.7769665 5.6335931,3.2586547 5.8065074,2.7771841 6.0879584,2.3596108 6.3834598,1.9211912 6.8569645,1.5298565 7.4698006,1.5144172 8.0684779,1.4993343 8.5708708,1.844779 8.8711878,2.2933605 9.1478047,2.7065412 9.282641,3.1717825 9.3774072,3.6404507 9.568271,4.5843733 9.5996178,5.6728112 9.6354031,6.7000116 9.6652061,7.5554974 9.7201201,8.2566288 9.7917643,8.7919162 9.8391163,8.7132954 9.9210115,8.6898987 9.9657163,8.5871425 10.115107,8.2437619 10.220832,7.7616631 10.299938,7.2440674 10.379018,6.7266235 10.432102,6.1647218 10.569661,5.6139076 10.708518,5.0578903 10.972196,4.3820033 11.6251,4.0339375 c 0.206872,-0.1102847 0.417598,-0.1192963 0.590263,-0.092349 0.172664,0.026947 0.312073,0.081669 0.44563,0.1806828 0.16967,0.1257861 0.279151,0.279316 0.338131,0.3693958 0.134949,0.206109 0.229372,0.4149535 0.324449,0.6343971 0.194272,0.4483907 0.39711,0.990666 0.607854,1.4815985 0.1835,0.4274679 0.382827,0.7715057 0.494493,0.9355351 0.0796,-0.015624 0.145077,-0.096844 0.222814,-0.088334 0.261576,0.028637 0.47097,0.1693223 0.617627,0.3493207 0.09467,0.1161852 0.151914,0.2650644 0.189588,0.421593 0.07901,-0.3371518 0.0056,-0.6959107 -0.189588,-0.935535 -0.146657,-0.1799984 -0.356051,-0.3206842 -0.617627,-0.34932 -0.07774,-0.00851 -0.143215,0.07271 -0.222814,0.088334 C 14.314254,6.8652265 14.114927,6.5211886 13.931427,6.0937207 13.720683,5.6027882 13.517845,5.060513 13.323573,4.6121222 13.228496,4.3926786 13.134073,4.1838341 12.999124,3.9777252 12.940144,3.8876452 12.830663,3.7341154 12.660993,3.6083293 12.527436,3.5093166 12.388027,3.4545939 12.215363,3.4276466 12.042698,3.4006992 11.831971,3.4097108 11.6251,3.5199955 10.972197,3.8680613 10.708518,4.5439483 10.569661,5.0999656 10.432102,5.6507798 10.379022,6.2126815 10.299938,6.7301254 10.220832,7.2477211 10.115107,7.72982 9.9657163,8.0732005 9.9210115,8.1759563 9.8391168,8.1993539 9.7917643,8.2779742 9.7201204,7.7426868 9.6652064,7.0415555 9.6354031,6.1860696 9.5996177,5.1588692 9.568271,4.0704313 9.3774072,3.1265087 9.282641,2.6578405 9.1478047,2.1925992 8.8711878,1.7794185 8.5708708,1.330837 8.0684778,0.98539236 7.4698006,1.0004752 Z M 1.8134339,7.386606 C 1.5808588,7.3444216 1.3236581,7.3904715 1.1117629,7.5472129 0.89986789,7.7039543 0.75632008,7.9702056 0.72085997,8.2599059 0.56100277,9.4149675 0.48923338,10.392839 0.50781783,11.235149 0.52250516,10.511872 0.59235418,9.7023768 0.72085997,8.7738479 0.75632009,8.4841476 0.89986789,8.2178963 1.1117629,8.0611549 1.3236581,7.9044135 1.5808588,7.8583636 1.8134339,7.900548 c 0.3663804,0.066454 0.6810053,0.4054671 0.7583519,0.8271254 0.00765,-0.059049 0.00731,-0.1002937 0.015636,-0.1606069 v -0.002 C 2.6769493,7.9893459 2.278014,7.4708715 1.8134339,7.386606 Z"
     id="path817"
     style="opacity:0.3;fill:#ffffff;fill-opacity:1;stroke-width:1.01420677"
     inkscape:connector-curvature="0" />
  <path
     d="M 7.4776185,2.8755604 C 7.4133702,3.023273 7.3569725,3.1139421 7.2919396,3.3453356 7.0664175,4.1477658 6.8840512,5.3744759 6.7036306,6.673913 6.5231612,7.9737019 6.3405906,9.3586515 6.0566861,10.586698 5.7747383,11.806281 5.4310092,12.942428 4.6162085,13.680388 4.1339769,14.117141 3.5746074,14.447981 2.93728,14.483423 2.2640063,14.520859 1.6115663,14.157095 1.2055797,13.539857 0.7522853,12.850693 0.53448815,11.929993 0.50781783,10.721207 0.47801463,12.18886 0.69033734,13.270453 1.2055797,14.053799 1.6115663,14.671037 2.2640063,15.034801 2.93728,14.997365 3.5746074,14.961925 4.1339769,14.631083 4.6162085,14.19433 5.4310092,13.45637 5.7747383,12.320223 6.0566861,11.10064 6.3405906,9.8725918 6.5231612,8.4876439 6.7036306,7.187855 6.8840511,5.8884179 7.0664175,4.6617078 7.2919396,3.8592776 7.3569725,3.6278841 7.4133703,3.537215 7.4776185,3.3895024 c 0.023424,0.077252 0.037675,0.078661 0.056681,0.1726524 0.1300182,0.6430081 0.1793643,1.6794008 0.2149966,2.7022107 0.035595,1.0216974 0.052758,2.0387223 0.2325873,2.8889161 0.087105,0.4118118 0.2164873,0.8836244 0.5941726,1.2587564 0.4502962,0.447253 1.107262,0.47538 1.622247,0.200759 0.719579,-0.383722 1.192803,-1.0181452 1.47566,-1.6683043 0.279055,-0.6414228 0.399752,-1.2995797 0.488628,-1.881108 0.01086,-0.071121 0.01913,-0.1053796 0.02932,-0.17466 0.01086,0.025586 0.01638,0.042681 0.02737,0.068258 0.235861,0.549448 0.489564,1.1132409 0.877577,1.5739473 0.190454,0.226136 0.473427,0.4985751 0.889303,0.5902304 0.477651,0.1052687 0.920556,-0.091185 1.231345,-0.421593 l 0.002,-0.002 c 0.266319,-0.2822569 0.315358,-0.6580641 0.236497,-0.9857247 -0.03949,0.1685176 -0.105345,0.332783 -0.236497,0.4717827 l -0.002,0.002 C 14.906709,8.5160335 14.463804,8.712487 13.986153,8.6072183 13.570277,8.515563 13.287304,8.2431239 13.09685,8.0169879 12.708837,7.5562815 12.455134,6.9924886 12.219273,6.4430406 c -0.01098,-0.025577 -0.0165,-0.042672 -0.02737,-0.068258 -0.01019,0.06928 -0.01845,0.1035387 -0.02932,0.17466 C 12.073713,7.1309712 11.95301,7.7891281 11.673955,8.4305509 11.391104,9.08071 10.91788,9.715134 10.198301,10.098855 9.683318,10.373476 9.0263522,10.345349 8.576056,9.8980956 8.1983707,9.5229659 8.0689884,9.0511514 7.9818834,8.6393396 7.8020536,7.7891458 7.7848904,6.7721209 7.7492961,5.7504235 7.7136638,4.7276136 7.6643177,3.6912209 7.5342995,3.0482128 7.5152939,2.9542213 7.5010421,2.952812 7.4776185,2.8755604 Z M 2.5717858,8.2137314 C 2.4691455,9.0052844 2.4346471,9.6530618 2.4330151,10.219309 2.4550934,9.7320642 2.5017734,9.1872999 2.5874219,8.5670665 v -0.002 c 0.018924,-0.1216936 0.0051,-0.238315 -0.015636,-0.3513308 z"
     id="path822"
     style="opacity:0.2;stroke-width:1.01420677"
     inkscape:connector-curvature="0" />
</svg>
