<?xml version="1.0" encoding="UTF-8" standalone="no"?>
<svg
   xmlns:dc="http://purl.org/dc/elements/1.1/"
   xmlns:cc="http://creativecommons.org/ns#"
   xmlns:rdf="http://www.w3.org/1999/02/22-rdf-syntax-ns#"
   xmlns:svg="http://www.w3.org/2000/svg"
   xmlns="http://www.w3.org/2000/svg"
   xmlns:sodipodi="http://sodipodi.sourceforge.net/DTD/sodipodi-0.dtd"
   xmlns:inkscape="http://www.inkscape.org/namespaces/inkscape"
   height="16"
   width="16"
   version="1.1"
   id="svg4"
   sodipodi:docname="multisystem-theme.svg"
   inkscape:version="0.92.4 (5da689c313, 2019-01-14)">
  <metadata
     id="metadata10">
    <rdf:RDF>
      <cc:Work
         rdf:about="">
        <dc:format>image/svg+xml</dc:format>
        <dc:type
           rdf:resource="http://purl.org/dc/dcmitype/StillImage" />
      </cc:Work>
    </rdf:RDF>
  </metadata>
  <defs
     id="defs8" />
  <sodipodi:namedview
     pagecolor="#ffffff"
     bordercolor="#666666"
     borderopacity="1"
     objecttolerance="10"
     gridtolerance="10"
     guidetolerance="10"
     inkscape:pageopacity="0"
     inkscape:pageshadow="2"
     inkscape:window-width="1920"
     inkscape:window-height="1016"
     id="namedview6"
     showgrid="false"
     inkscape:zoom="14.75"
     inkscape:cx="-4.9830508"
     inkscape:cy="21.559322"
     inkscape:window-x="0"
     inkscape:window-y="27"
     inkscape:window-maximized="1"
     inkscape:current-layer="svg4" />
  <rect
     height="16"
     rx="8"
     transform="matrix(0,-1,-1,0,0,0)"
     width="16"
     x="-16"
     y="-16"
     id="rect2"
     style="fill:#2daaaa;stroke-width:1.06666672;fill-opacity:1" />
  <path
     inkscape:connector-curvature="0"
     style="opacity:0.3;fill:#ffffff;fill-opacity:1;stroke-width:1.06666672"
     d="M 8,7e-8 C 3.5858741,7e-8 0,3.5858746 0,8.0000001 c 0,0.084467 0.009112,0.1661592 0.0117188,0.25 C 0.1453375,3.9524231 3.6703407,0.50000007 8,0.50000007 c 4.329659,0 7.854663,3.45242303 7.988281,7.75000003 0.0026,-0.083841 0.01172,-0.1655334 0.01172,-0.25 C 16.000001,3.5858746 12.414127,7e-8 8.000001,7e-8 Z"
     id="path817" />
  <path
     id="path822"
     d="m 8,16 c 4.414126,0 8,-3.585874 8,-7.9999999 0,-0.08447 -0.0091,-0.166159 -0.01172,-0.25 C 15.854663,12.047577 12.329659,15.5 8,15.5 3.670341,15.5 0.145337,12.047577 0.011719,7.7500001 0.009109,7.8338401 0,7.9155331 0,8.0000001 0,12.414126 3.585874,16 8,16 Z"
     style="opacity:0.2;fill:#000000;fill-opacity:1;stroke-width:1.06666672"
     inkscape:connector-curvature="0" />
</svg>
