<?xml version="1.0" encoding="UTF-8" standalone="no"?>
<svg
   xmlns:dc="http://purl.org/dc/elements/1.1/"
   xmlns:cc="http://creativecommons.org/ns#"
   xmlns:rdf="http://www.w3.org/1999/02/22-rdf-syntax-ns#"
   xmlns:svg="http://www.w3.org/2000/svg"
   xmlns="http://www.w3.org/2000/svg"
   xmlns:sodipodi="http://sodipodi.sourceforge.net/DTD/sodipodi-0.dtd"
   xmlns:inkscape="http://www.inkscape.org/namespaces/inkscape"
   height="16.000002"
   width="16"
   version="1.1"
   id="svg21"
   sodipodi:docname="multisystem-gparted.svg"
   inkscape:version="0.92.4 (5da689c313, 2019-01-14)">
  <metadata
     id="metadata27">
    <rdf:RDF>
      <cc:Work
         rdf:about="">
        <dc:format>image/svg+xml</dc:format>
        <dc:type
           rdf:resource="http://purl.org/dc/dcmitype/StillImage" />
      </cc:Work>
    </rdf:RDF>
  </metadata>
  <defs
     id="defs25" />
  <sodipodi:namedview
     pagecolor="#ffffff"
     bordercolor="#666666"
     borderopacity="1"
     objecttolerance="10"
     gridtolerance="10"
     guidetolerance="10"
     inkscape:pageopacity="0"
     inkscape:pageshadow="2"
     inkscape:window-width="1920"
     inkscape:window-height="1016"
     id="namedview23"
     showgrid="false"
     inkscape:zoom="14.749998"
     inkscape:cx="8"
     inkscape:cy="8.000001"
     inkscape:window-x="0"
     inkscape:window-y="27"
     inkscape:window-maximized="1"
     inkscape:current-layer="svg21" />
  <linearGradient
     id="a"
     gradientTransform="matrix(0 -.03604403 -.03604301 0 18.56482 16.909092)"
     gradientUnits="userSpaceOnUse"
     x1="469.12317"
     x2="25.221653"
     y1="320.84778"
     y2="320.84778">
    <stop
       offset="0"
       stop-color="#999"
       id="stop2" />
    <stop
       offset=".61328125"
       stop-color="#b7b7b7"
       id="stop4" />
    <stop
       offset="1"
       stop-color="#dbdbdb"
       id="stop6" />
  </linearGradient>
  <path
     d="m4.5005 12.500002h7v3h-7z"
     fill="#8e8e8e"
     id="path9"
     style="fill:#bfbfbf;fill-opacity:1" />
  <path
     d="m9.9043497.50000216c.7104793 0 1.2734393.0154 1.7519493.0957.478511.0803.896711.23728 1.207031.54688004.31032.30959.46726.7261.54688 1.20508.0796.47897.0933 1.04352.0898 1.75586v1.89648 3.89844c.003.7112098-.0103 1.2754598-.0898 1.7538998-.0796.47898-.23655.89549-.54688 1.20508-.31033.3096-.72851.46655-1.207031.54688-.47852.0803-1.04147.0957-1.7519493.0957h-3.8086c-.71048 0-1.27236-.0153-1.75-.0957-.47763-.0804-.89584-.23713-1.2050799-.54688-.30921-.30975-.46469-.72681-.54492-1.20508-.0802-.47826-.0957-1.04201-.0957-1.7538998v-3.89844-1.89844c0-.71189.0155-1.27564.0957-1.7539.0802-.47827.2357-.89533.54492-1.20508.3092399-.30975004.7274499-.46650004 1.2050799-.54688004.47764-.0804 1.03952-.0957 1.75-.0957z"
     fill="url(#a)"
     id="path11"
     style="fill:#8e8e8e;fill-opacity:1" />
  <path
     d="m6.7148497 4.6428922h.85701v3.84541c-.2191-.13965-.44529-.26212-.66453-.37165-.32137-.16059-.61836-.31595-.80193-.46882-.18355-.15318-.24775-.25504-.24775-.4335.4734 0 .8572-.38383.8572-.85723s-.38381-.8571-.8572-.8571c-.47341 0-.85715.3837-.85715.8571v.85723c0 .46424.25714.84436.55587 1.09321.29861.2488.6462.41515.96759.57583.32134.16059.6167.31592.80015.46881.18354.15282.24775.25503.24775.4335-.23736 0-.42849.19121-.42849.4286598v.85702c0 .23753.19113.42864.42849.42864h.8573c.23734 0 .42849-.19111.42849-.42864v-.85702c0-.2374498-.19115-.4286598-.42849-.4286598v-.85702c0-.17874.0635-.28076.24777-.43376.18345-.15282.4804-.30789.80175-.46861.3215-.16059.6673793-.327.9659693-.57599.29872-.2489.55585-.62882.55585-1.0932v-.42844-.8573c0-.23736-.19113-.42847-.42864-.42847h-.8570093c-.23748 0-.42867.19111-.42867.42847v.8573c0 .23734.19119.42844.42867.42844h.4285193c0 .17867-.0634.28078-.2477693.43371-.18356.15283-.4788.30789-.8003.46869-.21941.1107-.44628.23218-.66614.37161v-2.98823h.85702l-1.28568-2.57152z"
     fill="#808080"
     id="path13"
     style="fill:#ffffff;fill-opacity:1" />
  <path
     d="m6.0957031.5c-.71048 0-1.27236.01530312-1.75.09570312-.47763.08038001-.8958382.23712497-1.2050781.54687498-.30922.30975-.4647219.7268082-.5449219 1.2050781-.0802.47826-.0957031 1.0420163-.0957031 1.7539063v.5c0-.71189.0155031-1.2756463.0957031-1.7539063.0802-.47827.2357019-.8953281.5449219-1.2050781.3092399-.30975.7274481-.466495 1.2050781-.546875.47764-.0804 1.03952-.0957031 1.75-.0957031h3.8085938c.7104791 0 1.2734431.0154031 1.7519531.0957031.478511.0803.896711.237275 1.207031.546875.31032.30959.467255.7260982.546875 1.2050781.0796.47897.093344 1.0435194.089844 1.7558594v-.5c.0035-.71234-.010244-1.2768894-.089844-1.7558594-.07962-.47898-.236555-.8954881-.546875-1.2050781-.31032-.30960002-.72852-.46657497-1.207031-.54687498-.47851-.08029999-1.041474-.09570312-1.7519531-.09570312z"
     fill="#fff"
     opacity=".3"
     id="path15" />
  <path
     d="m9.9047874 13.528427c.7104796 0 1.2723596-.0153 1.7499996-.0957.47763-.08038.895839-.237125 1.205079-.546875.30922-.30975.464721-.726808.544921-1.205078.0802-.47826.0957-1.042016.0957-1.7539062v-.5c.000001.7118902-.0155 1.2756462-.0957 1.7539062-.0802.47827-.235701.895328-.544921 1.205078-.30924.30975-.727449.466495-1.205079.546875-.47764.0804-1.03952.0957-1.7499996.0957h-3.8085938c-.7104791 0-1.2734431-.0154-1.7519531-.0957-.478511-.0803-.896711-.237275-1.207031-.546875-.31032-.30959-.467255-.726098-.546875-1.205078-.0796-.47897-.093344-1.043519-.089844-1.7558593v.4999998c-.0035.7123395.010244 1.2768895.089844 1.7558595.07962.47898.236555.895488.546875 1.205078.31032.3096.72852.466575 1.207031.546875.47851.0803 1.041474.0957 1.7519531.0957z"
     opacity=".2"
     id="path17" />
  <path
     d="m4.5 15v.5h7v-.5z"
     opacity=".2"
     id="path19" />
</svg>
