<?xml version="1.0" encoding="UTF-8" standalone="no"?>
<svg
   xmlns:dc="http://purl.org/dc/elements/1.1/"
   xmlns:cc="http://creativecommons.org/ns#"
   xmlns:rdf="http://www.w3.org/1999/02/22-rdf-syntax-ns#"
   xmlns:svg="http://www.w3.org/2000/svg"
   xmlns="http://www.w3.org/2000/svg"
   xmlns:sodipodi="http://sodipodi.sourceforge.net/DTD/sodipodi-0.dtd"
   xmlns:inkscape="http://www.inkscape.org/namespaces/inkscape"
   height="16"
   width="16"
   version="1.1"
   id="svg8"
   sodipodi:docname="package-available-locked.svg"
   inkscape:version="0.92.4 (5da689c313, 2019-01-14)">
  <metadata
     id="metadata14">
    <rdf:RDF>
      <cc:Work
         rdf:about="">
        <dc:format>image/svg+xml</dc:format>
        <dc:type
           rdf:resource="http://purl.org/dc/dcmitype/StillImage" />
      </cc:Work>
    </rdf:RDF>
  </metadata>
  <defs
     id="defs12" />
  <sodipodi:namedview
     pagecolor="#ffffff"
     bordercolor="#808080"
     borderopacity="1"
     objecttolerance="10"
     gridtolerance="10"
     guidetolerance="10"
     inkscape:pageopacity="0"
     inkscape:pageshadow="2"
     inkscape:window-width="1920"
     inkscape:window-height="1016"
     id="namedview10"
     showgrid="false"
     inkscape:zoom="14.75"
     inkscape:cx="8"
     inkscape:cy="8"
     inkscape:window-x="0"
     inkscape:window-y="27"
     inkscape:window-maximized="1"
     inkscape:current-layer="g6" />
  <g
     fill="#808080"
     transform="translate(-212.00006 -280)"
     id="g6">
    <path
       d="m 217.32558,280 c -1.67759,0.0195 -2.90519,-0.0408 -3.90885,0.51303 -0.50183,0.27686 -0.89763,0.74584 -1.11719,1.33072 -0.21956,0.58488 -0.29948,1.27944 -0.29948,2.15625 v 8 c 0,0.87681 0.0799,1.57137 0.29948,2.15625 0.21956,0.58488 0.61536,1.05386 1.11719,1.33072 1.00366,0.55376 2.23126,0.4936 3.90885,0.51303 h 0.005 5.33854 0.005 c 1.67759,-0.0195 2.90519,0.0408 3.90885,-0.51303 0.50183,-0.27686 0.89763,-0.74584 1.11719,-1.33072 0.21998,-0.58488 0.2999,-1.27944 0.2999,-2.15625 v -8 c 0,-0.87681 -0.0799,-1.57136 -0.29948,-2.15625 -0.21955,-0.58488 -0.61536,-1.05384 -1.11719,-1.33072 -1.00366,-0.55379 -2.23125,-0.49367 -3.90885,-0.51303 h -0.005 -2.0026 -3.33594 z"
       id="path2"
       inkscape:connector-curvature="0"
       sodipodi:nodetypes="ccsssccccccccssccccccc" />
    <path
       d="m 220.00005,283 a 2.8571428,2.8571428 0 0 0 -2.85714,2.85715 v 1.42857 h -0.71428 V 293 h 7.14285 v -5.71428 h -0.71428 v -1.42857 A 2.8571428,2.8571428 0 0 0 220.00005,283 Z m 0,0.71429 c 1.19286,0 2.14286,0.95 2.14286,2.14286 v 1.42857 h -4.28571 v -1.42857 c 0,-1.19286 0.95,-2.14286 2.14285,-2.14286 z"
       id="path4"
       inkscape:connector-curvature="0"
       style="stroke-width:0.71428573;fill:#ffffff;fill-opacity:1" />
    <path
       d="M 5.3261719 0 C 3.6485819 0.0195 2.4196756 -0.040158125 1.4160156 0.51367188 C 0.91418562 0.79053187 0.51838813 1.25887 0.29882812 1.84375 C 0.079268125 2.42863 0 3.12319 0 4 L 0 4.5 C 0 3.62319 0.079268125 2.92863 0.29882812 2.34375 C 0.51838813 1.75887 0.91418562 1.2905319 1.4160156 1.0136719 C 2.4196756 0.45984187 3.6485819 0.5195 5.3261719 0.5 L 5.3300781 0.5 L 8.6660156 0.5 L 10.669922 0.5 L 10.673828 0.5 C 12.351428 0.51936 13.580324 0.45988188 14.583984 1.0136719 C 15.085814 1.2905519 15.481622 1.75887 15.701172 2.34375 C 15.920752 2.92864 16 3.62319 16 4.5 L 16 4 C 16 3.12319 15.920752 2.42864 15.701172 1.84375 C 15.481622 1.25887 15.085814 0.79055188 14.583984 0.51367188 C 13.580324 -0.040118125 12.351428 0.01936 10.673828 0 L 10.669922 0 L 8.6660156 0 L 5.3300781 0 L 5.3261719 0 z "
       transform="translate(212.00006,280)"
       id="path821"
       style="fill:#ffffff;fill-opacity:1;opacity:0.3" />
    <path
       style="opacity:0.2;fill:#000000;fill-opacity:1"
       id="path826"
       d="m 222.67398,296 c 1.67759,-0.0195 2.90649,0.0402 3.91015,-0.51367 0.50183,-0.27686 0.89763,-0.7452 1.11719,-1.33008 0.21956,-0.58488 0.29883,-1.27944 0.29883,-2.15625 v -0.5 c 0,0.87681 -0.0793,1.57137 -0.29883,2.15625 -0.21956,0.58488 -0.61536,1.05322 -1.11719,1.33008 -1.00366,0.55383 -2.23256,0.49417 -3.91015,0.51367 h -0.004 -3.33594 -2.0039 -0.004 c -1.6776,-0.0194 -2.90649,0.0401 -3.91015,-0.51367 -0.50183,-0.27688 -0.89764,-0.7452 -1.11719,-1.33008 -0.21958,-0.58489 -0.29883,-1.27944 -0.29883,-2.15625 v 0.5 c 0,0.87681 0.0793,1.57136 0.29883,2.15625 0.21955,0.58488 0.61536,1.0532 1.11719,1.33008 1.00366,0.55379 2.23255,0.49431 3.91015,0.51367 h 0.004 2.0039 3.33594 z"
       inkscape:connector-curvature="0" />
  </g>
</svg>
