<svg height="16" width="16" xmlns="http://www.w3.org/2000/svg"><path d="m2.711865 3.118644h10.644068v10.237288h-10.644068z" fill="#fff"/><path d="m5.3261719 0c-1.67759.0195-2.9064963-.04015813-3.9101563.51367188-.50182995.27685999-.89762746.74519812-1.11718748 1.33007812-.21956.58488-.29882812 1.27944-.29882812 2.15625v8c0 .87681.07924813 1.57137.29882812 2.15625.21956002.58488.61535753 1.053218 1.11718748 1.330078 1.00366.55376 2.2325663.494242 3.9101563.513672h.0039062 5.3398439.003906c1.67759-.0195 2.904543.04016 3.908203-.513672.50183-.27686.897628-.745198 1.117188-1.330078.219982-.58488.300781-1.27944.300781-2.15625v-8c0-.87681-.079248-1.57136-.298828-2.15625-.21955-.58488-.615358-1.05319813-1.117188-1.33007812-1.00366-.55379-2.232556-.49431188-3.910156-.51367188h-.003906-2.0039064-3.3359375zm-.8261719 3.7929688 3.5 3.5 3.5-3.5.707031.7070312-3.4999998 3.5 3.4999998 3.5-.707031.707031-3.5-3.4999998-3.5 3.4999998-.7070312-.707031 3.5-3.5-3.5-3.5z" fill="#fb7c38"/><path d="m5.3261719 0c-1.67759.0195-2.9064963-.04015813-3.9101563.51367188-.50182992.27685998-.89762746.74519812-1.11718748 1.33007812-.21956.58488-.29882812 1.27944-.29882812 2.15625v.5c0-.87681.07926812-1.57137.29882812-2.15625.21956003-.58488.61535756-1.0532181 1.11718748-1.3300781 1.00366-.55383005 2.2325663-.4941719 3.9101563-.5136719h.00391 3.3359375 2.0039064.0039c1.6776.01936 2.906496-.0401182 3.910156.5136719.50183.27688.897638.7451981 1.117188 1.3300781.2195822.58489.2988302 1.27944.2988302 2.15625v-.5c0-.87681-.079248-1.57136-.298828-2.15625-.21955-.58488-.615358-1.05319814-1.117188-1.33007812-1.00366-.55379-2.232556-.49431188-3.910156-.51367188h-.0039-2.0039064-3.3359375z" fill="#fff" opacity=".3"/><path d="m10.673828 16c1.67759-.0195 2.906496.04016 3.910156-.513672.50183-.27686.897628-.745198 1.117188-1.330078s.298828-1.27944.298828-2.15625v-.5c0 .87681-.07927 1.57137-.298828 2.15625-.21956.58488-.615358 1.053218-1.117188 1.330078-1.00366.55383-2.232566.494172-3.910156.513672h-.0039-3.3359374-2.0039064-.0039c-1.67761-.01936-2.906506.04012-3.910166-.513672-.50183-.27688-.897638-.745198-1.117188-1.330078-.2195822-.58489-.2988302-1.27944-.2988302-2.15625v.5c0 .87681.079248 1.57136.298828 2.15625.21955.58488.615358 1.053198 1.117188 1.330078 1.00366.55379 2.232556.494312 3.910156.513672h.0039 2.0039064 3.3359376z" opacity=".2"/></svg>