<?xml version="1.0" encoding="UTF-8" standalone="no"?>
<svg
   xmlns:dc="http://purl.org/dc/elements/1.1/"
   xmlns:cc="http://creativecommons.org/ns#"
   xmlns:rdf="http://www.w3.org/1999/02/22-rdf-syntax-ns#"
   xmlns:svg="http://www.w3.org/2000/svg"
   xmlns="http://www.w3.org/2000/svg"
   xmlns:sodipodi="http://sodipodi.sourceforge.net/DTD/sodipodi-0.dtd"
   xmlns:inkscape="http://www.inkscape.org/namespaces/inkscape"
   height="16"
   width="16"
   version="1.1"
   id="svg8"
   sodipodi:docname="package-installed-outdated.svg"
   inkscape:version="0.92.4 (5da689c313, 2019-01-14)">
  <metadata
     id="metadata14">
    <rdf:RDF>
      <cc:Work
         rdf:about="">
        <dc:format>image/svg+xml</dc:format>
        <dc:type
           rdf:resource="http://purl.org/dc/dcmitype/StillImage" />
      </cc:Work>
    </rdf:RDF>
  </metadata>
  <defs
     id="defs12" />
  <sodipodi:namedview
     pagecolor="#ffffff"
     bordercolor="#808080"
     borderopacity="1"
     objecttolerance="10"
     gridtolerance="10"
     guidetolerance="10"
     inkscape:pageopacity="0"
     inkscape:pageshadow="2"
     inkscape:window-width="1920"
     inkscape:window-height="1016"
     id="namedview10"
     showgrid="false"
     inkscape:zoom="14.75"
     inkscape:cx="8"
     inkscape:cy="8"
     inkscape:window-x="0"
     inkscape:window-y="27"
     inkscape:window-maximized="1"
     inkscape:current-layer="svg8" />
  <g
     transform="translate(-212.00006 -280)"
     id="g6">
    <path
       d="m217.87959 282.54831h3.81538v10.807633h-3.81538z"
       fill="#fff"
       id="path2" />
    <path
       d="m5.3261719 0c-1.67759.0195-2.9064963-.04015813-3.9101563.51367188-.50182998.27685999-.89762747.74519812-1.11718748 1.33007812-.21956.58488-.29882812 1.27944-.29882812 2.15625v8c0 .87681.07924813 1.57137.29882812 2.15625.21956001.58488.61535751 1.053218 1.11718748 1.330078 1.00366.55376 2.2325663.494242 3.9101563.513672h.0039062 5.3398439.003906c1.67759-.0195 2.904543.040158 3.908203-.513672.50183-.27686.897628-.745198 1.117188-1.330078.21998-.58488.300781-1.27944.300781-2.15625v-8c0-.87681-.079248-1.57136-.298828-2.15625-.21955-.58488-.615358-1.05319812-1.117188-1.33007812-1.00366-.55379-2.232556-.49431188-3.910156-.51367188h-.003906-2.0039064-3.3359375zm1.5703125 2.9550781h2v6.9902344l-2 .0097656v-6.9960937zm0 8.0019529h2v1.998047h-2z"
       fill="#1d99f3"
       transform="translate(212.00006 280)"
       id="path4" />
  </g>
  <path
     inkscape:connector-curvature="0"
     style="opacity:0.3;fill:#ffffff;fill-opacity:1"
     d="M 5.3261719,0 C 3.6485819,0.0195 2.4196756,-0.04015813 1.4160157,0.51367188 0.91418573,0.79053187 0.5183882,1.25887 0.29882817,1.84375 0.07926817,2.42863 0,3.12319 0,4 V 4.5 C 0,3.62319 0.0792682,2.92863 0.29882817,2.34375 0.5183882,1.75887 0.91418573,1.2905319 1.4160156,1.0136719 2.4196756,0.45984185 3.6485819,0.5195 5.3261719,0.5 h 0.00391 3.3359375 2.0039066 0.0039 c 1.6776,0.01936 2.906496,-0.0401182 3.910156,0.5136719 C 15.085812,1.2905519 15.48162,1.75887 15.70117,2.34375 15.920752,2.92864 16,3.62319 16,4.5 V 4 C 16,3.12319 15.92075,2.42864 15.701172,1.84375 15.481622,1.25887 15.085814,0.79055186 14.583984,0.51367188 13.580324,-0.04011813 12.351428,0.01936 10.673828,0 h -0.0039 -2.0039064 -3.3359375 z"
     id="path852" />
  <path
     id="path857"
     d="m 10.673828,16 c 1.67759,-0.0195 2.906496,0.04016 3.910156,-0.513672 0.50183,-0.27686 0.897628,-0.745198 1.117188,-1.330078 C 15.920732,13.57137 16,12.87681 16,12 v -0.5 c 0,0.87681 -0.07927,1.57137 -0.298828,2.15625 -0.21956,0.58488 -0.615358,1.053218 -1.117188,1.330078 C 13.580324,15.540158 12.351418,15.4805 10.673828,15.5 H 10.669918 7.3339804 5.330074 5.326164 C 3.648564,15.48064 2.419668,15.54012 1.4160081,14.986328 0.91417805,14.709448 0.51837005,14.24113 0.29882005,13.65625 0.07924005,13.07136 -8e-6,12.37681 -8e-6,11.5 V 12 c 0,0.87681 0.0792481,1.57136 0.29882805,2.15625 0.21955,0.58488 0.615358,1.053198 1.11718805,1.330078 C 2.419668,16.040118 3.648564,15.98064 5.326164,16 h 0.00391 2.0039064 3.3359376 z"
     style="opacity:0.2;fill:#000000;fill-opacity:1"
     inkscape:connector-curvature="0" />
</svg>
