<svg height="16" width="16" xmlns="http://www.w3.org/2000/svg"><g transform="translate(-693.69471 -65.644063)"><path d="m693.6947 65.644066h16v16h-16z" fill="#fff" stroke-width=".786038"/><path d="m694.1947 66.14415h14.999911v14.999911h-14.999911z" fill="#666" fill-rule="evenodd" stroke-width=".833329"/><path d="m698.96749 66.144152-2.72723 2.857124 3.40906 3.571414 3.40906-3.571414-2.72723-2.857124zm4.09089 2.857124 3.40907 3.571414 2.72723-2.857133v-1.428561l-2.0454-2.142844h-1.36366zm3.40907 3.571414-3.40907 3.571404 3.40907 3.571412 2.72723-2.857134v-1.428557zm0 7.142816-1.36367 1.428557h2.72732zm-3.40907-3.571412-3.40906-3.571404-3.40906 3.571404 3.40906 3.571412zm-3.40906 3.571412-1.36366 1.428557h2.72723zm-3.40906-3.571412-2.04549-2.142846v4.285691zm0-7.142817-2.04549-2.142845v4.285692z" fill="#fff"/></g></svg>