<svg height="16" width="16" xmlns="http://www.w3.org/2000/svg"><path d="m4.527 5.5a5.5 5.5 0 0 0 -.027.5 5.5 5.5 0 0 0 5.5 5.5 5.5 5.5 0 0 0 .5-.025v4.025h-10v-10z" fill="#c43ac4"/><path d="m4.4999656 6a5.5 5.5 0 0 0 5.5 5.5 5.5 5.5 0 0 0 5.5000004-5.5 5.5 5.5 0 0 0 -5.5000004-5.5 5.5 5.5 0 0 0 -5.5 5.5z" fill="#1a7fd4"/><path d="m10 .5a5.5 5.5 0 0 0 -5.5 5.5 5.5 5.5 0 0 0 .0097656.2070312 5.5 5.5 0 0 1 5.4902344-5.2070312 5.5 5.5 0 0 1 5.490234 5.2929688 5.5 5.5 0 0 0 .009766-.2929688 5.5 5.5 0 0 0 -5.5-5.5z" fill="#fff" opacity=".3"/><path d="m10.000004 11.5a5.5 5.5 0 0 0 5.5-5.5000004 5.5 5.5 0 0 0 -.0098-.207031 5.5 5.5 0 0 1 -5.4902344 5.2070314 5.5 5.5 0 0 1 -5.490234-5.2929684 5.5 5.5 0 0 0 -.00977.292968 5.5 5.5 0 0 0 5.5 5.5000004z" opacity=".2"/><path d="m.5 5.5v.5h4a5.5 5.5 0 0 1 .0273438-.5zm4.0136719.7617188a5.5 5.5 0 0 0 -.0136719.2382812 5.5 5.5 0 0 0 5.5 5.5 5.5 5.5 0 0 0 .5-.025391v-.5a5.5 5.5 0 0 1 -.5.025391 5.5 5.5 0 0 1 -5.4863281-5.2382812z" fill="#fff" opacity=".3"/><path d="m4.5 5.5a5.5 5.5 0 0 0 .0136719.2617188 5.5 5.5 0 0 1 .0136719-.2617188zm-4 9.5v.5h10v-.5z" opacity=".2"/></svg>