<svg height="16" width="16" xmlns="http://www.w3.org/2000/svg"><g transform="matrix(.6666666 0 0 .6666666 54.302331 -122.08834)"><path d="m-71.318359 184.2793a1.0863284 1.0863284 0 0 0 -.675782.25l-7.601562 6.30664a1.0863284 1.0863284 0 0 0 .189453 1.79687l4.855469 2.55078-2.064453 9.48829a1.0863284 1.0863284 0 0 0 1.78125 1.04296l7.568359-6.70312 6.466797 3.39844a1.0863643 1.0863643 0 1 0 1.009766-1.92383l-5.736329-3.01367 2.826172-2.50391a1.0863284 1.0863284 0 1 0 -1.439453-1.62695l-3.443359 3.05078-4.494141-2.36133 1.835938-8.43359a1.0863284 1.0863284 0 0 0 -1.078125-1.31836zm-1.714844 3.93554-1.039063 4.76758-2.882812-1.51367zm.478515 8.01758 3.234376 1.69922-4.464844 3.95508z" fill="#e95420"/><g fill="#1d99f3" fill-rule="evenodd"><path d="m-31.321972 173.57017c.000615.67731.549542 1.22624 1.226859 1.22685h4.952879c.677316-.00063 1.226237-.54955 1.226865-1.22687l.000008-4.90239c-.000615-.67732-.549542-1.22624-1.226858-1.22686l-4.952866.00002c-.677322.00062-1.226244.54954-1.226865 1.22687z" transform="matrix(.50630448751 0 0 .50977967297 -57.08366690922 97.774559544)"/><path d="m-31.321972 173.57017c.000615.67731.549542 1.22624 1.226859 1.22685h4.952879c.677316-.00063 1.226237-.54955 1.226865-1.22687l.000008-4.90239c-.000615-.67732-.549542-1.22624-1.226858-1.22686l-4.952866.00002c-.677322.00062-1.226244.54954-1.226865 1.22687z" transform="matrix(.50630448751 0 0 .50977967297 -64.95017690922 104.468239544)"/><path d="m-31.321972 173.57017c.000615.67731.549542 1.22624 1.226859 1.22685h4.952879c.677316-.00063 1.226237-.54955 1.226865-1.22687l.000008-4.90239c-.000615-.67732-.549542-1.22624-1.226858-1.22686l-4.952866.00002c-.677322.00062-1.226244.54954-1.226865 1.22687z" transform="matrix(.50630448751 0 0 .50977967297 -61.84504690922 118.024559544)"/><path d="m-31.321972 173.57017c.000615.67731.549542 1.22624 1.226859 1.22685h4.952879c.677316-.00063 1.226237-.54955 1.226865-1.22687l.000008-4.90239c-.000615-.67732-.549542-1.22624-1.226858-1.22686l-4.952866.00002c-.677322.00062-1.226244.54954-1.226865 1.22687z" transform="matrix(.50630448751 0 0 .50977967297 -49.02978690922 106.410729544)"/><path d="m-31.321972 173.57017c.000615.67731.549542 1.22624 1.226859 1.22685h4.952879c.677316-.00063 1.226237-.54955 1.226865-1.22687l.000008-4.90239c-.000615-.67732-.549542-1.22624-1.226858-1.22686l-4.952866.00002c-.677322.00062-1.226244.54954-1.226865 1.22687z" transform="matrix(.50630448751 0 0 .50977967297 -45.82597690922 114.506079544)"/></g></g></svg>