<svg height="16" width="16" xmlns="http://www.w3.org/2000/svg"><path d="m8.0000001.5000001c-4.1382429 0-7.5000001 3.3617572-7.5000001 7.4999999 0 4.138243 3.3617572 7.5 7.5000001 7.5s7.5000069-3.361757 7.4999999-7.5c0-4.1382427-3.361757-7.4999999-7.4999999-7.4999999z" fill="#3eb34f"/><path d="m-124.63086-132.33789-5.18359.15625-11.40039.3418-.0234 1.98828 11.40234-.34375 1.45508-.0625-3.58594 3.62304-13.53711 13.94141 1.68946 1.4668 13.59765-13.5293 3.56836-3.42578-.0273 1.08789-.125 11.40625.60547-.0176 1.03711-.0312.3457-.0117.125-11.40429z" fill="#fff" transform="matrix(-.25261657 .25327368 -.25041456 -.24976485 -56.601242 11.608907)"/><path d="m8 .5c-4.1382429 0-7.5 3.3617573-7.5 7.5 0 .0844697.01089252.1661993.01367188.25.13338367-4.0216657 3.43255492-7.25 7.48632812-7.25 4.053773 0 7.352944 3.2283343 7.486328 7.25.002779-.0838007.013672-.1655303.013672-.25 0-4.1382427-3.361757-7.5-7.5-7.5z" fill="#fff" opacity=".3"/><path d="m8 15.5c4.138243 0 7.5-3.361757 7.5-7.5 0-.08447-.01089-.166199-.01367-.25-.133386 4.021666-3.432557 7.25-7.48633 7.25s-7.352944-3.228334-7.486328-7.25c-.00278.0838-.013672.16553-.013672.25 0 4.138243 3.361757 7.5 7.5 7.5z" opacity=".2"/></svg>