<svg height="16" viewBox="0 0 16 16" width="16" xmlns="http://www.w3.org/2000/svg"><g fill-rule="evenodd" transform="matrix(.69494753 0 0 .69494753 -.347477 -.331267)"><path d="m3.3013766 20.656015c0-8.690191 1.0676776-20.5069901 17.3832234-17.3832244 2.861769.547887.529146 18.5554854-17.3832234 17.3832244" style="fill:#fff;fill-opacity:.75;stroke:#d0438d;stroke-width:1.580294;stroke-linecap:round;stroke-linejoin:round;stroke-miterlimit:0"/><g fill="#1d99f3" transform="matrix(.99911214 0 0 .99911214 -796.74921 -1.371673)"><path d="m816.47413 5.9242099c-.00029.250373.20275.453415.45312.453125h3.6211c.25037.00029.45341-.202752.45312-.453125v-3.583985c.00029-.250373-.20275-.453415-.45312-.453125h-3.6211c-.25037-.00029-.45341.202752-.45312.453125z"/><path d="m797.95769 24.44065c-.00029.250373.20275.453415.45312.453125h3.6211c.25037.00029.45341-.202752.45312-.453125v-3.583985c.00029-.250373-.20275-.453415-.45312-.453125h-3.6211c-.25037-.00029-.45341.202752-.45312.453125z"/></g></g></svg>