<svg height="16" viewBox="0 0 16 16" width="16" xmlns="http://www.w3.org/2000/svg"><g transform="matrix(.99610667 0 0 .9961019 -617.58614 -29.882936)"><path d="m620 30h16v16h-16z" fill="none" stroke-width=".1"/><path d="m620 30.00057h16v16h-16z" fill="none" stroke-width=".1"/><path d="m620.13265 32.667782c-.17541.176517-.17541.461533 0 .63805l2.5605 2.560505c.17629.176712.46237.177339.63943.0014l2.53426-2.534264c.17724-.176834.17724-.463974 0-.640808l-2.5605-2.560505c-.17706-.175939-.46314-.175312-.63943.0014z" fill="#c43ac4" fill-rule="evenodd"/><path d="m630.19511 42.730244c-.17541.176517-.17541.461533 0 .63805l2.5605 2.560498c.17629.176712.46237.177339.63943.0014l2.53427-2.534263c.17725-.176838.17724-.463984-.00001-.640816l-2.5605-2.560497c-.17706-.175939-.46314-.175312-.63943.0014z" fill="#45a925" fill-rule="evenodd"/><g fill="#1d99f3"><path d="m631 41v-4l-4 4z"/><path d="m416.69299 466.7135h1v7.962208h-1z" transform="matrix(.70710678 -.70710678 .70710678 .70710678 0 0)"/></g><path d="m620 30h16v16h-16z" fill="none" stroke-width=".1"/><path d="m620 30.00057h16v16h-16z" fill="none" stroke-width=".1"/><g fill-rule="evenodd"><path d="m620.1325 32.66758c-.11949.175968-.11013.414383.0451.570584l2.56075 2.560763c.17629.176712.46214.175939.6392 0l2.53527-2.533312c.15629-.155936.16641-.394308.0471-.570584-.0158.02313-.0265.04813-.0471.06863l-2.53527 2.533313c-.17706.175939-.46291.176712-.6392 0l-2.56075-2.560764c-.0202-.02032-.0296-.04574-.0451-.06863zm4.82739 2.384295-.25098.250978 3.73328 3.733303.25098-.250978zm2.5882 5.378387-.50196.501957h3.99995v-.501957zm2.64702 2.299982c-.11949.175966-.11012.414382.0451.570583l2.56075 2.560764c.17629.176712.46215.175939.63921 0l2.53526-2.533313c.1563-.155939.16642-.394309.0471-.570584-.0158.02313-.0265.04813-.0471.06863l-2.53526 2.533313c-.17706.175938-.46292.176711-.63921 0l-2.56075-2.560764c-.0202-.02032-.0296-.04574-.0451-.06863z" opacity=".2"/><path d="m622.98638 30.000057c-.11569.000253-.23146.04498-.3196.133332l-2.53527 2.533313c-.15522.156201-.16459.394616-.0451.570583.0155-.02289.0249-.04831.0451-.06863l2.53527-2.533313c.0881-.08835.20392-.133079.3196-.133332.11569-.000254.2311.0434.3196.131371l2.56075 2.560764c.0208.02071.0312.0472.0471.07059.12037-.176389.10964-.416207-.0471-.572544l-2.56075-2.560764c-.0885-.08797-.20391-.131624-.3196-.13137zm2.38232 4.662707-.70587.707837.25097.250979.4549-.456859 3.98426 3.984281 1.64704-1.647045v-.501957l-1.64704 1.647045zm3.02741 4.943097-1.39606 1.394106h.50196l1.14508-1.143128zm4.65288.456859c-.11569.000254-.23146.04498-.3196.133332l-2.53526 2.533313c-.15522.156202-.16459.394617-.0451.570584.0155-.02289.0249-.04831.0451-.06863l2.53526-2.533313c.0882-.08835.20391-.133079.3196-.133332s.23111.0434.31961.131371l2.56075 2.560764c.0208.02071.0312.0472.0471.07059.12037-.176393.10964-.41621-.0471-.572545l-2.56075-2.560763c-.0885-.08797-.20392-.131625-.31961-.131371z" fill="#fff" opacity=".3"/></g></g></svg>