<?xml version="1.0" encoding="UTF-8" standalone="no"?>
<svg
   xmlns:dc="http://purl.org/dc/elements/1.1/"
   xmlns:cc="http://creativecommons.org/ns#"
   xmlns:rdf="http://www.w3.org/1999/02/22-rdf-syntax-ns#"
   xmlns:svg="http://www.w3.org/2000/svg"
   xmlns="http://www.w3.org/2000/svg"
   xmlns:sodipodi="http://sodipodi.sourceforge.net/DTD/sodipodi-0.dtd"
   xmlns:inkscape="http://www.inkscape.org/namespaces/inkscape"
   height="16"
   viewBox="0 0 16 16"
   width="16"
   version="1.1"
   id="svg18"
   sodipodi:docname="snap.svg"
   inkscape:version="0.92.4 (5da689c313, 2019-01-14)">
  <metadata
     id="metadata24">
    <rdf:RDF>
      <cc:Work
         rdf:about="">
        <dc:format>image/svg+xml</dc:format>
        <dc:type
           rdf:resource="http://purl.org/dc/dcmitype/StillImage" />
      </cc:Work>
    </rdf:RDF>
  </metadata>
  <defs
     id="defs22" />
  <sodipodi:namedview
     pagecolor="#ffffff"
     bordercolor="#666666"
     borderopacity="1"
     objecttolerance="10"
     gridtolerance="10"
     guidetolerance="10"
     inkscape:pageopacity="0"
     inkscape:pageshadow="2"
     inkscape:window-width="1920"
     inkscape:window-height="1016"
     id="namedview20"
     showgrid="false"
     inkscape:zoom="14.75"
     inkscape:cx="8"
     inkscape:cy="8"
     inkscape:window-x="0"
     inkscape:window-y="27"
     inkscape:window-maximized="1"
     inkscape:current-layer="g16" />
  <g
     transform="matrix(.99610667 0 0 .9961019 -617.58614 -29.882936)"
     id="g16">
    <path
       d="m620 30h16v16h-16z"
       fill="none"
       stroke-width=".1"
       id="path2" />
    <path
       d="m620 30.00057h16v16h-16z"
       fill="none"
       stroke-width=".1"
       id="path4" />
    <path
       style="color:#000000;font-style:normal;font-variant:normal;font-weight:normal;font-stretch:normal;font-size:medium;line-height:normal;font-family:sans-serif;font-variant-ligatures:normal;font-variant-position:normal;font-variant-caps:normal;font-variant-numeric:normal;font-variant-alternates:normal;font-feature-settings:normal;text-indent:0;text-align:start;text-decoration:none;text-decoration-line:none;text-decoration-style:solid;text-decoration-color:#000000;letter-spacing:normal;word-spacing:normal;text-transform:none;writing-mode:lr-tb;direction:ltr;text-orientation:mixed;dominant-baseline:auto;baseline-shift:baseline;text-anchor:start;white-space:normal;shape-padding:0;clip-rule:nonzero;display:inline;overflow:visible;visibility:visible;opacity:1;isolation:auto;mix-blend-mode:normal;color-interpolation:sRGB;color-interpolation-filters:linearRGB;solid-color:#000000;solid-opacity:1;vector-effect:none;fill:#c43ac4;fill-opacity:1;fill-rule:evenodd;stroke:none;stroke-width:0.90510201;stroke-linecap:round;stroke-linejoin:round;stroke-miterlimit:0;stroke-dasharray:none;stroke-dashoffset:0;stroke-opacity:1;color-rendering:auto;image-rendering:auto;shape-rendering:auto;text-rendering:auto;enable-background:accumulate"
       d="m 620.13265,32.667782 c -0.17541,0.176517 -0.17541,0.461533 0,0.63805 l 2.5605,2.560505 c 0.17629,0.176712 0.46237,0.177339 0.63943,0.0014 l 2.53426,-2.534264 c 0.17724,-0.176834 0.17724,-0.463974 0,-0.640808 l -2.5605,-2.560505 c -0.17706,-0.175939 -0.46314,-0.175312 -0.63943,0.0014 z"
       id="path6"
       inkscape:connector-curvature="0"
       sodipodi:nodetypes="ccccccccc" />
    <path
       style="color:#000000;font-style:normal;font-variant:normal;font-weight:normal;font-stretch:normal;font-size:medium;line-height:normal;font-family:sans-serif;font-variant-ligatures:normal;font-variant-position:normal;font-variant-caps:normal;font-variant-numeric:normal;font-variant-alternates:normal;font-feature-settings:normal;text-indent:0;text-align:start;text-decoration:none;text-decoration-line:none;text-decoration-style:solid;text-decoration-color:#000000;letter-spacing:normal;word-spacing:normal;text-transform:none;writing-mode:lr-tb;direction:ltr;text-orientation:mixed;dominant-baseline:auto;baseline-shift:baseline;text-anchor:start;white-space:normal;shape-padding:0;clip-rule:nonzero;display:inline;overflow:visible;visibility:visible;opacity:1;isolation:auto;mix-blend-mode:normal;color-interpolation:sRGB;color-interpolation-filters:linearRGB;solid-color:#000000;solid-opacity:1;vector-effect:none;fill:#45a925;fill-opacity:1;fill-rule:evenodd;stroke:none;stroke-width:0.90510201;stroke-linecap:round;stroke-linejoin:round;stroke-miterlimit:0;stroke-dasharray:none;stroke-dashoffset:0;stroke-opacity:1;color-rendering:auto;image-rendering:auto;shape-rendering:auto;text-rendering:auto;enable-background:accumulate"
       d="m 630.19511,42.730244 c -0.17541,0.176517 -0.17541,0.461533 0,0.63805 l 2.5605,2.560498 c 0.17629,0.176712 0.46237,0.177339 0.63943,0.0014 l 2.53427,-2.534263 c 0.17725,-0.176838 0.17724,-0.463984 -10e-6,-0.640816 l -2.5605,-2.560497 c -0.17706,-0.175939 -0.46314,-0.175312 -0.63943,0.0014 z"
       id="path8"
       inkscape:connector-curvature="0"
       sodipodi:nodetypes="ccccccccc" />
    <g
       fill="#666"
       id="g14"
       style="fill:#1d99f3;fill-opacity:1">
      <path
         d="m631 41v-4l-4 4z"
         id="path10"
         style="fill:#1d99f3;fill-opacity:1" />
      <path
         d="m416.69299 466.7135h1v7.962208h-1z"
         transform="matrix(.70710678 -.70710678 .70710678 .70710678 0 0)"
         id="path12"
         style="fill:#1d99f3;fill-opacity:1" />
    </g>
    <path
       id="path866"
       stroke-width=".1"
       fill="none"
       d="m620 30h16v16h-16z" />
    <path
       id="path868"
       stroke-width=".1"
       fill="none"
       d="m620 30.00057h16v16h-16z" />
    <path
       style="color:#000000;font-style:normal;font-variant:normal;font-weight:normal;font-stretch:normal;font-size:medium;line-height:normal;font-family:sans-serif;font-variant-ligatures:normal;font-variant-position:normal;font-variant-caps:normal;font-variant-numeric:normal;font-variant-alternates:normal;font-feature-settings:normal;text-indent:0;text-align:start;text-decoration:none;text-decoration-line:none;text-decoration-style:solid;text-decoration-color:#000000;letter-spacing:normal;word-spacing:normal;text-transform:none;writing-mode:lr-tb;direction:ltr;text-orientation:mixed;dominant-baseline:auto;baseline-shift:baseline;text-anchor:start;white-space:normal;shape-padding:0;clip-rule:nonzero;display:inline;overflow:visible;visibility:visible;opacity:0.2;isolation:auto;mix-blend-mode:normal;color-interpolation:sRGB;color-interpolation-filters:linearRGB;solid-color:#000000;solid-opacity:1;vector-effect:none;fill:#000000;fill-opacity:1;fill-rule:evenodd;stroke:none;stroke-width:0.90510201;stroke-linecap:round;stroke-linejoin:round;stroke-miterlimit:0;stroke-dasharray:none;stroke-dashoffset:0;stroke-opacity:1;color-rendering:auto;image-rendering:auto;shape-rendering:auto;text-rendering:auto;enable-background:accumulate"
       d="m 620.1325,32.66758 c -0.11949,0.175968 -0.11013,0.414383 0.0451,0.570584 l 2.56075,2.560763 c 0.17629,0.176712 0.46214,0.175939 0.6392,0 l 2.53527,-2.533312 c 0.15629,-0.155936 0.16641,-0.394308 0.0471,-0.570584 -0.0158,0.02313 -0.0265,0.04813 -0.0471,0.06863 l -2.53527,2.533313 c -0.17706,0.175939 -0.46291,0.176712 -0.6392,0 L 620.1776,32.73621 c -0.0202,-0.02032 -0.0296,-0.04574 -0.0451,-0.06863 z m 4.82739,2.384295 -0.25098,0.250978 3.73328,3.733303 0.25098,-0.250978 z m 2.5882,5.378387 -0.50196,0.501957 h 3.99995 v -0.501957 z m 2.64702,2.299982 c -0.11949,0.175966 -0.11012,0.414382 0.0451,0.570583 l 2.56075,2.560764 c 0.17629,0.176712 0.46215,0.175939 0.63921,0 l 2.53526,-2.533313 c 0.1563,-0.155939 0.16642,-0.394309 0.0471,-0.570584 -0.0158,0.02313 -0.0265,0.04813 -0.0471,0.06863 l -2.53526,2.533313 c -0.17706,0.175938 -0.46292,0.176711 -0.63921,0 l -2.56075,-2.560764 c -0.0202,-0.02032 -0.0296,-0.04574 -0.0451,-0.06863 z"
       id="path870"
       inkscape:connector-curvature="0" />
    <g
       style="fill:#1d99f3;fill-opacity:1"
       id="g878"
       transform="translate(-23.753497,-2.7905388)" />
    <path
       style="color:#000000;font-style:normal;font-variant:normal;font-weight:normal;font-stretch:normal;font-size:medium;line-height:normal;font-family:sans-serif;font-variant-ligatures:normal;font-variant-position:normal;font-variant-caps:normal;font-variant-numeric:normal;font-variant-alternates:normal;font-feature-settings:normal;text-indent:0;text-align:start;text-decoration:none;text-decoration-line:none;text-decoration-style:solid;text-decoration-color:#000000;letter-spacing:normal;word-spacing:normal;text-transform:none;writing-mode:lr-tb;direction:ltr;text-orientation:mixed;dominant-baseline:auto;baseline-shift:baseline;text-anchor:start;white-space:normal;shape-padding:0;clip-rule:nonzero;display:inline;overflow:visible;visibility:visible;opacity:0.3;isolation:auto;mix-blend-mode:normal;color-interpolation:sRGB;color-interpolation-filters:linearRGB;solid-color:#000000;solid-opacity:1;vector-effect:none;fill:#ffffff;fill-opacity:1;fill-rule:evenodd;stroke:none;stroke-width:0.90510201;stroke-linecap:round;stroke-linejoin:round;stroke-miterlimit:0;stroke-dasharray:none;stroke-dashoffset:0;stroke-opacity:1;color-rendering:auto;image-rendering:auto;shape-rendering:auto;text-rendering:auto;enable-background:accumulate"
       d="m 622.98638,30.000057 c -0.11569,2.53e-4 -0.23146,0.04498 -0.3196,0.133332 l -2.53527,2.533313 c -0.15522,0.156201 -0.16459,0.394616 -0.0451,0.570583 0.0155,-0.02289 0.0249,-0.04831 0.0451,-0.06863 l 2.53527,-2.533313 c 0.0881,-0.08835 0.20392,-0.133079 0.3196,-0.133332 0.11569,-2.54e-4 0.2311,0.0434 0.3196,0.131371 l 2.56075,2.560764 c 0.0208,0.02071 0.0312,0.0472 0.0471,0.07059 0.12037,-0.176389 0.10964,-0.416207 -0.0471,-0.572544 l -2.56075,-2.560764 c -0.0885,-0.08797 -0.20391,-0.131624 -0.3196,-0.13137 z m 2.38232,4.662707 -0.70587,0.707837 0.25097,0.250979 0.4549,-0.456859 3.98426,3.984281 L 631,37.501957 V 37 l -1.64704,1.647045 z m 3.02741,4.943097 -1.39606,1.394106 h 0.50196 l 1.14508,-1.143128 z m 4.65288,0.456859 c -0.11569,2.54e-4 -0.23146,0.04498 -0.3196,0.133332 l -2.53526,2.533313 c -0.15522,0.156202 -0.16459,0.394617 -0.0451,0.570584 0.0155,-0.02289 0.0249,-0.04831 0.0451,-0.06863 l 2.53526,-2.533313 c 0.0882,-0.08835 0.20391,-0.133079 0.3196,-0.133332 0.11569,-2.53e-4 0.23111,0.0434 0.31961,0.131371 l 2.56075,2.560764 c 0.0208,0.02071 0.0312,0.0472 0.0471,0.07059 0.12037,-0.176393 0.10964,-0.41621 -0.0471,-0.572545 l -2.56075,-2.560763 c -0.0885,-0.08797 -0.20392,-0.131625 -0.31961,-0.131371 z"
       id="path883"
       inkscape:connector-curvature="0" />
  </g>
</svg>
