<svg height="16" width="16" xmlns="http://www.w3.org/2000/svg" xmlns:xlink="http://www.w3.org/1999/xlink"><linearGradient id="a" gradientTransform="matrix(.31496059 0 0 .31496072 .166665 -77.709954)" gradientUnits="userSpaceOnUse" x1="13.735326" x2="38.099998" xlink:href="#b" y1="249.69423" y2="292.76666"/><linearGradient id="b"><stop offset="0" stop-color="#cdcdcd"/><stop offset="1" stop-color="#d9d9d9"/></linearGradient><linearGradient id="c" gradientTransform="matrix(.20997373 0 0 .20997381 5.577777 -46.23997)" gradientUnits="userSpaceOnUse" x1="13.735326" x2="38.099998" xlink:href="#b" y1="249.69423" y2="292.76666"/><circle cx="7.999999" cy="7.999981" fill="url(#a)" r="7.499999"/><path d="m7.9999989.50000288a7.4999983 7.4999983 0 0 0 -7.4999989 7.49999882h7.4999989zm0 7.49999882v7.4999983a7.4999983 7.4999983 0 0 0 7.4999981-7.4999983z" fill="#fff" opacity=".2"/><path d="m13.303305 2.6966949a7.4999983 7.4999983 0 0 0 -10.6066015 0l5.3032954 5.3033068zm-5.3033061 5.3033068-5.3032954 5.3032943a7.4999983 7.4999983 0 0 0 10.6066015 0z" opacity=".02"/><path d="m5.9541492.78454129a7.4999983 7.4999983 0 0 0 -.1361884.0461538 7.4999983 7.4999983 0 0 1 .3626884-.0983077 7.4999983 7.4999983 0 0 0 -.2265.0521539zm.5905961-.13604998a7.4999983 7.4999983 0 0 1 .3694615-.0613846 7.4999983 7.4999983 0 0 0 -.3694615.0613846zm-1.0807268.3019038a7.4999983 7.4999983 0 0 0 -.3506999.13391539 7.4999983 7.4999983 0 0 1 .3506999-.13391539zm1.822742-.41053839a7.4999983 7.4999983 0 0 1 .3722423-.0242308 7.4999983 7.4999983 0 0 0 -.3722423.0242308zm-2.5132611.69874608a7.4999983 7.4999983 0 0 0 -.3370961.1689922 7.4999983 7.4999983 0 0 1 .3370961-.1689922zm3.2615649-.73285377a7.4999983 7.4999983 0 0 1 .3740538.0133846 7.4999983 7.4999983 0 0 0 -.3740538-.0133846zm-3.9197879 1.08849217a7.4999983 7.4999983 0 0 0 -.3189346.2019115 7.4999983 7.4999983 0 0 1 .3189346-.2019115zm4.6666378-1.04771525a7.4999983 7.4999983 0 0 1 .3718498.05065379 7.4999983 7.4999983 0 0 0 -.3718498-.05065379zm-5.2867839 1.46763445a7.4999983 7.4999983 0 0 0 -.2972307.2329153 7.4999983 7.4999983 0 0 1 .2972307-.2329153zm6.0283027-1.35219217a7.4999983 7.4999983 0 0 1 .3623428.0868846 7.4999983 7.4999983 0 0 0 -.3623428-.0868846zm-6.7114718 1.92805357a7.4999983 7.4999983 0 0 0 -.085038.079269 7.4999983 7.4999983 0 0 1 .085038-.079269zm-.1122692.1086923a7.4999983 7.4999983 0 0 0 -1.1940345 1.5511613l6.4951376 3.7499647zm5.3011031 5.301126 5.3010899 5.3011369a7.4999983 7.4999983 0 0 0 1.194046-1.551161zm2.2473229-7.1493219a7.4999983 7.4999983 0 0 1 .352592.12283844 7.4999983 7.4999983 0 0 0 -.352592-.12283844zm.702102.2599153a7.4999983 7.4999983 0 0 1 .340327.1583654 7.4999983 7.4999983 0 0 0 -.340327-.1583654zm.673073.3289038a7.4999983 7.4999983 0 0 1 .123023.073039l.0046-.00808a7.4999983 7.4999983 0 0 0 -.12745-.065308zm-7.368032 13.0479547-.00462.0081a7.4999983 7.4999983 0 0 0 .1274654.06531 7.4999983 7.4999983 0 0 1 -.1230231-.07304zm.4557807.2436a7.4999983 7.4999983 0 0 0 .3403153.158354 7.4999983 7.4999983 0 0 1 -.3403153-.158354zm.6898268.295431a7.4999983 7.4999983 0 0 0 .3526038.12285 7.4999983 7.4999983 0 0 1 -.3526038-.12285zm7.8738435-1.695865a7.4999983 7.4999983 0 0 1 -.08504.07927 7.4999983 7.4999983 0 0 0 .08504-.07927zm-7.1588744 1.920392a7.4999983 7.4999983 0 0 0 .3623423.08689 7.4999983 7.4999983 0 0 1 -.3623423-.08689zm6.6878744-1.498188a7.4999983 7.4999983 0 0 1 -.297219.232915 7.4999983 7.4999983 0 0 0 .297219-.232915zm-5.9558514 1.649884a7.4999983 7.4999983 0 0 0 .37185.05065 7.4999983 7.4999983 0 0 1 -.37185-.05065zm5.3574214-1.198961a7.4999983 7.4999983 0 0 1 -.318946.201911 7.4999983 7.4999983 0 0 0 .318946-.201911zm-4.6127753 1.277019a7.4999983 7.4999983 0 0 0 .3740422.01338 7.4999983 7.4999983 0 0 1 -.3740422-.01338zm3.9727023-.888462a7.4999983 7.4999983 0 0 1 -.337096.168993 7.4999983 7.4999983 0 0 0 .337096-.168993zm-3.2225871.891923a7.4999983 7.4999983 0 0 0 .3722423-.02423 7.4999983 7.4999983 0 0 1 -.3722423.02423zm2.5456711-.568638a7.4999983 7.4999983 0 0 1 -.350687.133904 7.4999983 7.4999983 0 0 0 .350687-.133904zm-1.800875.497169a7.4999983 7.4999983 0 0 0 .36945-.06138 7.4999983 7.4999983 0 0 1 -.36945.06138zm1.096234-.243507a7.4999983 7.4999983 0 0 1 -.3626762.09831 7.4999983 7.4999983 0 0 0 .3626762-.09831z" fill="#faf8f6"/><circle cx="7.999999" cy="-7.999999" fill="#aea795" r="3.461538" transform="scale(1 -1)"/><circle cx="7.999999" cy="7.999999" fill="#faf8f6" r="2.307692"/><circle cx="7.999999" cy="7.999999" fill="#4d4d4d" r="1.153846"/><path d="m15.490234 7.7128906a7.499999 7.499999 0 0 1 -7.490234 7.2871094 7.499999 7.499999 0 0 1 -7.49023438-7.2128906 7.499999 7.499999 0 0 0 -.00976562.2128906 7.499999 7.499999 0 0 0 7.5 7.5 7.499999 7.499999 0 0 0 7.5-7.5 7.499999 7.499999 0 0 0 -.009766-.2871094z" fill="#030303" opacity=".2"/><path d="m8 .5a7.499999 7.499999 0 0 0 -7.5 7.5 7.499999 7.499999 0 0 0 .00976562.2871094 7.499999 7.499999 0 0 1 7.49023438-7.2871094 7.499999 7.499999 0 0 1 7.490234 7.2128906 7.499999 7.499999 0 0 0 .009766-.2128906 7.499999 7.499999 0 0 0 -7.5-7.5z" fill="#fff" opacity=".3"/><circle cx="10.799999" cy="10.899988" fill="url(#c)" r="5"/><path d="m10.8 5.9000019a4.9999989 4.9999989 0 0 0 -4.9999995 4.9999991h4.9999995zm0 4.9999991v4.999999a4.9999989 4.9999989 0 0 0 4.999998-4.999999z" fill="#fff" opacity=".2"/><path d="m14.335537 7.3644633a4.9999989 4.9999989 0 0 0 -7.0710675 0l3.5355305 3.5355377zm-3.535537 3.5355377-3.5355305 3.53553a4.9999989 4.9999989 0 0 0 7.0710675 0z" opacity=".02"/><path d="m9.4361 6.0896942a4.9999989 4.9999989 0 0 0 -.090792.030769 4.9999989 4.9999989 0 0 1 .2417923-.065538 4.9999989 4.9999989 0 0 0 -.1510003.034769zm.3937307-.0907a4.9999989 4.9999989 0 0 1 .2463073-.0409231 4.9999989 4.9999989 0 0 0 -.2463073.0409231zm-.7204845.2012692a4.9999989 4.9999989 0 0 0 -.2338.089277 4.9999989 4.9999989 0 0 1 .2338-.089277zm1.2151608-.2736923a4.9999989 4.9999989 0 0 1 .248162-.016154 4.9999989 4.9999989 0 0 0 -.248162.016154zm-1.6755069.4658308a4.9999989 4.9999989 0 0 0 -.2247307.1126614 4.9999989 4.9999989 0 0 1 .2247307-.1126614zm2.1743769-.4885692a4.9999989 4.9999989 0 0 1 .249369.00892 4.9999989 4.9999989 0 0 0 -.249369-.00892zm-2.6131922.7256614a4.9999989 4.9999989 0 0 0 -.2126231.1346077 4.9999989 4.9999989 0 0 1 .2126231-.1346077zm3.1110912-.6984768a4.9999989 4.9999989 0 0 1 .2479.033769 4.9999989 4.9999989 0 0 0 -.2479-.033769zm-3.524522.978423a4.9999989 4.9999989 0 0 0 -.1981538.1552768 4.9999989 4.9999989 0 0 1 .1981538-.1552768zm4.018868-.9014615a4.9999989 4.9999989 0 0 1 .241562.057923 4.9999989 4.9999989 0 0 0 -.241562-.057923zm-4.474314 1.2853691a4.9999989 4.9999989 0 0 0 -.056692.052846 4.9999989 4.9999989 0 0 1 .056692-.052846zm-.074846.072462a4.9999989 4.9999989 0 0 0 -.7960232 1.034107l4.3300912 2.4999761zm3.534068 3.5340831 3.53406 3.534092a4.9999989 4.9999989 0 0 0 .796031-1.034108zm1.498216-4.7662142a4.9999989 4.9999989 0 0 1 .235061.081892 4.9999989 4.9999989 0 0 0 -.235061-.081892zm.468068.1732769a4.9999989 4.9999989 0 0 1 .226884.1055769 4.9999989 4.9999989 0 0 0 -.226884-.1055769zm.448715.2192692a4.9999989 4.9999989 0 0 1 .08202.048693l.0031-.00539a4.9999989 4.9999989 0 0 0 -.08497-.043536zm-4.9120212 8.6986361-.00308.0054a4.9999989 4.9999989 0 0 0 .084977.04354 4.9999989 4.9999989 0 0 1 -.082015-.04869zm.3038538.1624a4.9999989 4.9999989 0 0 0 .2268769.10557 4.9999989 4.9999989 0 0 1 -.2268769-.10557zm.4598846.196954a4.9999989 4.9999989 0 0 0 .2350692.0819 4.9999989 4.9999989 0 0 1 -.2350692-.0819zm5.2492288-1.130576a4.9999989 4.9999989 0 0 1 -.05669.05285 4.9999989 4.9999989 0 0 0 .05669-.05285zm-4.7725828 1.280261a4.9999989 4.9999989 0 0 0 .2415616.05793 4.9999989 4.9999989 0 0 1 -.2415616-.05793zm4.4585828-.998792a4.9999989 4.9999989 0 0 1 -.198146.155277 4.9999989 4.9999989 0 0 0 .198146-.155277zm-3.970568 1.099923a4.9999989 4.9999989 0 0 0 .2479.03377 4.9999989 4.9999989 0 0 1 -.2479-.03377zm3.571615-.799308a4.9999989 4.9999989 0 0 1 -.212631.134608 4.9999989 4.9999989 0 0 0 .212631-.134608zm-3.075184.851346a4.9999989 4.9999989 0 0 0 .249362.0089 4.9999989 4.9999989 0 0 1 -.249362-.0089zm2.648468-.592308a4.9999989 4.9999989 0 0 1 -.22473.112662 4.9999989 4.9999989 0 0 0 .22473-.112662zm-2.148391.594616a4.9999989 4.9999989 0 0 0 .248161-.01615 4.9999989 4.9999989 0 0 1 -.248161.01615zm1.697114-.379092a4.9999989 4.9999989 0 0 1 -.233791.08927 4.9999989 4.9999989 0 0 0 .233791-.08927zm-1.200583.331446a4.9999989 4.9999989 0 0 0 .2463-.04092 4.9999989 4.9999989 0 0 1 -.2463.04092zm.730822-.162338a4.9999989 4.9999989 0 0 1 -.241784.06554 4.9999989 4.9999989 0 0 0 .241784-.06554z" fill="#faf8f6"/><circle cx="10.799999" cy="-10.9" fill="#aea795" r="2.307692" transform="scale(1 -1)"/><circle cx="10.799999" cy="10.9" fill="#faf8f6" r="1.538461"/><circle cx="10.799999" cy="10.9" fill="#4d4d4d" r=".769231"/><path d="m15.793489 10.708594a4.9999993 4.9999993 0 0 1 -4.993489 4.858073 4.9999993 4.9999993 0 0 1 -4.9934891-4.808594 4.9999993 4.9999993 0 0 0 -.00651.141927 4.9999993 4.9999993 0 0 0 5.0000001 5 4.9999993 4.9999993 0 0 0 5-5 4.9999993 4.9999993 0 0 0 -.0065-.191406z" fill="#030303" opacity=".2"/><path d="m10.8 5.9a4.9999993 4.9999993 0 0 0 -4.9999995 5 4.9999993 4.9999993 0 0 0 .00651.191406 4.9999993 4.9999993 0 0 1 4.9934895-4.8580727 4.9999993 4.9999993 0 0 1 4.993489 4.8085937 4.9999993 4.9999993 0 0 0 .0065-.141927 4.9999993 4.9999993 0 0 0 -5-5z" fill="#fff" opacity=".3"/></svg>