<svg viewBox="0 0 24 24" xmlns="http://www.w3.org/2000/svg"><g fill-rule="evenodd"><path d="m12.25355 1.000057c-2.8376784 0-4.9443247.933127-6.2873611 2.5727861-1.3430365 1.6396591-1.9221641 3.9290911-1.9221641 6.6146709l-.034984 11.37246-.00194.43812c-.0000034.0019-.8634639-.03437 16.4539812.0019l.002-.438118.036918-11.376181v-.0019c-.018656-2.6849373-.607841-4.9719743-1.955201-6.6109519-1.347359-1.6389776-3.453569-2.5727861-6.291249-2.5727861z" fill="#1a7fd4"/><path d="m12.25355 1.000057c-2.8376784 0-4.9443247.9775636-6.2873611 2.6953054-1.3430365 1.7177419-1.9221641 4.1161996-1.9221641 6.9296696l-.0349839 11.914032-.0019435.458983.9115217.001953.0019436-.458983.0369273-11.915985c0-2.6861636.5605969-4.8728868 1.7258662-6.3632647s2.9352071-2.3456971 5.5701938-2.3456971c2.634988 0 4.405958.8565582 5.576026 2.3476502 1.170067 1.491092 1.739138 3.6764179 1.756962 6.3632646l-.03499 11.912079-.002.458983.911521.002.002-.458983.03693-11.917937v-.002c-.018655-2.8127881-.60784-5.2087368-1.9552-6.9257646-1.347359-1.7170277-3.453569-2.6953054-6.291249-2.6953054z" fill="#c43ac4"/><g fill="#fff" stroke-width="9" transform="matrix(.99509407 0 0 .99999741 -939.08441 -348.99812)"><path d="m955.0246 357.99908h2v2h-2z"/><path d="m955.0246 361.99908h2v2h-2z"/><path d="m955.0246 365.99908h2v2h-2z"/><path d="m955.0246 369.99908h2v2h-2z"/></g></g></svg>