<svg viewBox="0 0 24 24" xmlns="http://www.w3.org/2000/svg"><g stroke-width=".739043"><path d="m8.9191763 21q-.1734287-.567585-.3941562-1.166702-.2049612-.599118-.4099224-1.198235h-4.2568869q-.2049613.599117-.4256887 1.198235-.2049612.599117-.37839 1.166702h-2.5541321q.6148837-1.76582 1.1667023-3.263613.5518187-1.497794 1.0721049-2.822159.5360524-1.324364 1.0405723-2.506833.5202862-1.198235 1.0721049-2.333405h2.3491709q.5360524 1.13517 1.0563386 2.333405.5202862 1.182469 1.0405723 2.506833.5360525 1.324365 1.0878708 2.822159.551819 1.497793 1.166703 3.263613zm-2.9482883-8.450709q-.0788313.236494-.2364938.646416-.1576624.409923-.3626236.945975-.2049613.536053-.4572212 1.182469-.2364938.646416-.4887537 1.355897h3.1059508q-.25226-.709481-.4887537-1.355897-.2364937-.646416-.4572212-1.182469-.2049612-.536052-.3626237-.945975-.1576624-.409922-.2522599-.646416z" fill="#c43ac4"/><path d="m20.867036 13q-.173429-.567585-.394156-1.166702-.204961-.599118-.409923-1.198235h-4.256886q-.204962.599117-.425689 1.198235-.204961.599117-.37839 1.166702h-2.554132q.614883-1.76582 1.166702-3.263613.551819-1.497794 1.072105-2.822159.536052-1.3243644 1.040572-2.506833.520286-1.1982349 1.072105-2.3334047h2.349171q.536052 1.1351698 1.056339 2.3334047.520286 1.1824686 1.040572 2.506833.536052 1.324365 1.087871 2.822159.551819 1.497793 1.166702 3.263613zm-2.948288-8.4507088q-.07883.2364937-.236494.6464162-.157662.4099224-.362624.9459746-.204961.536053-.457221 1.182469-.236494.646416-.488754 1.355897h3.105951q-.25226-.709481-.488753-1.355897-.236494-.646416-.457222-1.182469-.204961-.5360522-.362623-.9459746-.157663-.4099225-.25226-.6464162z" fill="#1a7fd4"/></g><path d="m-10.604371 26.29608h1.4999997v-15h-1.4999997z" fill="#e95420" stroke-width="1.185854" transform="matrix(-1 0 0 1 2.145629 -6.79608)"/></svg>