<svg height="16" viewBox="0 0 4.233125 4.233125" width="16" xmlns="http://www.w3.org/2000/svg"><path d="m.40112006.7394533c-.003087.0745438-.00462.15633267-.004153.25113512v.002066 1.13837568 1.1378591c-.00101.2040388.004647.3612496.0238824.4764332.0192384.1151836.0496719.1849336.0976107.2325324.047939.047599.11979702.077781.23571899.097147.1159217.019364.27197055.025838.47662975.025838h1.704549c.2046601 0 .3605335-.00648.4761106-.025838.1155775-.019356.1864411-.049572.2341618-.097147.047722-.047575.080255-.1172438.099687-.2325324.019436-.1152881.02596-.2723256.02596-.4764329v-1.1378584-1.13837576c0-.0952487-.0017-.17793628-.00519-.25320204z" fill="#f7f7f7"/><path d="m.40112006.7394533c-.003087.0745438-.00462.15633267-.004153.25113512v.002066 1.13837568 1.1378591c-.00101.2040388.004647.3612496.0238824.4764332.0192384.1151836.0496719.1849336.0976107.2325324.047939.047599.11979702.077781.23571899.097147.1159217.019364.27197055.025838.47662975.025838h1.704549c.2046601 0 .3605335-.00648.4761106-.025838.1155775-.019356.1864411-.049572.2341618-.097147.047722-.047575.080255-.1172438.099687-.2325324.019436-.1152881.02596-.2723256.02596-.4764329v-1.1378584-1.13837576c0-.0952487-.0017-.17793628-.00519-.25320204z" fill="#f7f7f7"/><g transform="translate(-3.897196 -.068739)"><path d="m6.0484086 1.5465169v.1406953h1.406953v-.1406953zm0 .5627811v.1406952h1.406953v-.1406952zm.2813905.5627811v.1406951h1.1255625v-.1406951zm-1.6883433.5627811v.1406953h2.8139058v-.1406953z" fill="#c8c4b7" fill-opacity=".996078"/><path d="m599.875 119-4.625 12h-1.156v1h3.593v-1h-1.343l1.093-3h5.469l1.063 3h-1.282v1h4.594v-1h-1.281l-4.656-12zm.281 2.094 2.406 5.906h-4.781z" fill="#5d5d5d" stroke-width="2.6" transform="matrix(.10822713 0 0 .10822713 -59.655634 -11.473207)"/><path d="m5.1382661.21314813c-.2036871.00000002-.3589962.006471-.4743664.025837-.1153701.0193663-.1868885.0516151-.2345995.0992139s-.078001.11734871-.097147.23253252c-.01915.11518375-.024769.27032386-.023769.47436635v.00207.1255675h3.358285v-.1255707c0-.20410669-.0065-.36114501-.025837-.47643325-.0193397-.11528828-.0517195-.18495732-.0992135-.23253251-.0474947-.0475753-.1180211-.07985647-.2330492-.09921387-.115028-.01935829-.2701622-.02583695-.4738496-.02583695z" fill="#f76363" stroke-width="1.234745"/><path d="m4.6914062.54492188c-.7698788.00000007-1.3569024.02445831-1.7929687.09765624-.4360659.07319907-.7063848.19509017-.8867187.37499998-.180334.1799099-.2948212.4435445-.3671876.8789063-.0723815.4353616-.0936234 1.0217466-.0898437 1.7929687v.0078125.4746094c-.0032685-.7603748.0181527-1.3422292.0898437-1.7734375.0723664-.4353618.1868536-.6989964.3671876-.8789063.1803339-.1799098.4506528-.3018009.8867187-.375.4360663-.0731979 1.0230899-.0976561 1.7929687-.0976562h6.4121098c.76988 0 1.356242.0244875 1.791015.0976562.434774.0731655.701343.195179.88086.375.179513.1798206.301901.4431496.375.8789063.072116.42996.097007 1.0169016.097656 1.7734375v-.4746094c0-.7714648-.024568-1.3650247-.097656-1.8007812-.073099-.4357567-.195487-.6990857-.375-.8789063-.179517-.17982098-.446086-.30183455-.88086-.37499998-.434773-.07316879-1.021135-.09765624-1.791015-.09765624z" fill="#fbfbfb" opacity=".3" stroke-width="4.666982" transform="matrix(.26457031 0 0 .26457031 3.897196 .068739)"/></g><path d="m1.2410701.0000001c-.2061862 0-.36629172.003774-.49788777.0258643-.13159603.0220901-.236221.0639715-.31252702.14009832-.0763061.0761269-.11821937.18090311-.14009833.31252702-.021879.1316239-.026875.29337956-.0258643.50004323v1.13802943 1.1380294c-.001014.2066639.003986.3684191.0258643.5000433.0218784.1316241.0637915.2364002.14009833.312527.0763068.076127.18093017.115853.31252702.1379429.13159685.02209.29170157.02802.49788777.02802h1.6962673c.2061869 0 .3687322-.00593.5000433-.02802.1313112-.022097.2343512-.061794.3103716-.1379429.076021-.076149.118036-.1810067.1400984-.312527.022062-.1315204.025864-.2934422.025864-.5000433v-1.1380294-1.13802942c0-.20660034-.0038-.36852297-.025864-.50004323-.0220627-.13152026-.0640777-.2363777-.1400984-.31252702-.0760205-.07614933-.1790605-.11800073-.3103716-.14009832-.131311-.0220976-.2938572-.02586431-.5000433-.02586431zm0 .14440903h1.6962673c.2036874 0 .359151.006506.474179.0258643.1150281.0193574.185284.0515713.2327787.0991466.047494.0475752.079807.11749048.099147.23277874.01934.11528825.025864.27222761.025864.47633428v1.13802945 1.1380294c0 .2041073-.00652.3610458-.025864.4763342-.01934.1152885-.051652.1852039-.099147.2327788-.047494.047575-.1177505.077634-.2327787.096991s-.2704908.025865-.474179.025865h-1.6962673c-.2036872 0-.35880762-.0065-.47417883-.025865-.11537123-.0193663-.18722266-.0493922-.23493411-.0969911-.04771143-.0475988-.07784547-.1175952-.09699114-.2327787-.01914566-.1151835-.02470976-.2722954-.02370895-.4763343v-1.1380294-1.13802942-.00215191c-.00099793-.20404243.00456274-.35899859.02370895-.47418237.01914622-.1151838.04928034-.18517999.09699114-.23277875.04771082-.04759877.11956386-.07978017.23493411-.09914651.11537021-.01936633.27049163-.02586431.47417883-.02586431z" fill="#8d8f8a"/><path d="m.4128806 3.1233765v.1322852c-.001005.2040387.004513.3612496.0236571.4764332.019147.1151836.0494886.1849335.0971998.2325324.0477113.047599.11914243.077781.23451387.097147.11537117.019364.27099753.025837.47468483.025837h1.6966256c.2036883 0 .3586282-.00648.4736563-.025837.1150286-.019356.185477-.049572.2329711-.097147.047495-.047575.079918-.1172438.099257-.2325324.019344-.1152881.025714-.272326.025714-.4764332v-.1322852c0 .2041073-.00637.3611451-.025714.4764332-.01934.1152886-.051762.1849574-.099257.2325324-.047494.047575-.1179425.077791-.2329711.097147-.1150281.019358-.2699681.025837-.4736563.025837h-1.6966255c-.2036873 0-.35931372-.00647-.47468489-.025837-.11537145-.0193659-.18680254-.0495479-.23451387-.097147-.04771115-.0475988-.07805279-.1173488-.09719982-.2325324-.01914407-.1151836-.02466231-.2723944-.02365712-.4764332z" opacity=".2"/></svg>