<svg viewBox="0 0 24 24" xmlns="http://www.w3.org/2000/svg"><path d="m9.3106664 23q-.2613334-.802667-.4853333-1.418667-.2053334-.616-.4106667-1.138666-.1866667-.541334-.392-1.008-.2053333-.485334-.448-1.008l-3.7519998 4.573333h-3.3226666l5.8799998-7.037333-2.6319999-5.898667h3.2106666l1.5493332 3.994667q.84-1.008 1.6240003-2.034667.784-1.045333 1.437333-1.96h3.192q-.541333.765334-1.157333 1.586667-.597334.802667-1.250667 1.624-.634667.802667-1.288 1.586667-.653333.765333-1.2693333 1.456.3920003.877333.7280003 1.661333.354666.784.672 1.586666.317333.784.616 1.624.298666.84.616 1.810667z" fill="#c43ac4" transform="translate(0 -9)"/><path d="m23.763999 3.2280008q-.522666 1.4186666-1.064 2.6506665-.522666 1.232-1.101333 2.352-.578667 1.1013333-1.194667 2.1093337-.616 1.007999-1.306666 1.997333-.504.728-1.045334 1.474666-.541333.746667-1.213333 1.344-.653333.597334-1.474667.970667-.802666.373333-1.866666.373333-.653333 0-1.12-.130666-.466667-.112-.877333-.317334l.84-2.184q.373333.149334.672.224.298666.09333.727999.09333.653334 0 1.232-.429334.597334-.410666.989334-1.12-.485334-1.866666-.896-4.1813327-.392-2.3146666-.541334-5.2266665h2.856q.01867.7279999.07467 1.6053332.056.8773333.130667 1.7733333.07467.8773333.168 1.7173333.09333.84.205333 1.5119999.896-1.3439999 1.568-2.9866665.690667-1.6426666 1.288-3.6213332z" fill="#1a7fd4" transform="translate(0 5.5)"/></svg>