<svg viewBox="0 0 24 24" xmlns="http://www.w3.org/2000/svg"><g fill="#e95420" transform="matrix(1.60000002753 0 0 1.59999999775 57.06232311581 -36.00307909666)"><path d="m23.163952-35.001919h9.999999v9.999996h-9.999999z" opacity=".6" transform="scale(-1)"/><path d="m-21.288952 35.001921h-9.999999l-3.750001-9.999997h10z"/></g><g transform="matrix(1.60000002753 0 0 1.59999999775 96.06232378684 -48.50307807907)"><path d="m-59.413952 32.814424.117188.3125h9.882812l3.632812 9.6875h.117188l-3.75-10z" fill="#fff" opacity=".3"/><path d="m-45.663952 42.814424-.117188-.3125h-9.882812l-3.632812-9.6875h-.117188l3.75 10z" opacity=".2"/></g><g fill="#1a7fd4" stroke-width=".730385" transform="matrix(-1.00000001721 0 0 -.99999999859 29.21343463664 28.29167081291)"><path d="m9.5610909 6.465499c-.555092.253443-1.123675.537496-1.699219.851562-.5697.314065-1.118908.639363-1.648437.97461.529529.327943 1.078737.648094 1.648437.96289.557506.304295 1.124317.591337 1.699219.861328v-1.460937h.271484l2.7285151.000001v-.687501l-2.7265611-.04102h-.273438z"/><path d="m24.865779 26.117843c.555092-.253443 1.123675-.537496 1.699219-.851562.5697-.314065 1.118908-.639363 1.648437-.97461-.529529-.327943-1.078737-.648094-1.648437-.96289-.557506-.304295-1.124317-.591337-1.699219-.861328v1.460937h-.271484l-2.728515-.000001v.687501l2.726561.04102h.273438z"/></g></svg>