<svg viewBox="0 0 24 24" xmlns="http://www.w3.org/2000/svg"><path d="m-19.898306-19.796602h15.999998v15.999994h-15.999998z" fill="#e95420" opacity=".6" transform="scale(-1)"/><path d="m3.8983086 22.796609v-15.999999l15.9999954-6.00000193v15.99999993z" fill="#e95420"/><g transform="matrix(0 1.6 -1.6 0 72.401385 95.858936)"><path d="m-59.413952 32.814424.117188.3125h9.882812l3.632812 9.6875h.117188l-3.75-10z" fill="#080000" opacity=".2"/><path d="m-45.663952 42.814424-.117188-.3125h-9.882812l-3.632812-9.6875h-.117188l3.75 10z" fill="#fff" opacity=".3"/></g><g fill="#1a7fd4" stroke-width=".730385" transform="matrix(-1 0 0 -1 -2.617074 31.647604)"><path d="m-4.6892082 12.198647c-.253443-.555092-.537496-1.123675-.851562-1.699219-.314065-.5696998-.639363-1.1189078-.97461-1.6484368-.327943.529529-.648094 1.078737-.96289 1.6484368-.304295.557506-.591337 1.124317-.861328 1.699219h1.460937v.271484l-.000001 2.728515h.687501l.04102-2.726561v-.273438z"/><path d="m-24.341552 27.503335c.253443.555092.537496 1.123675.851562 1.699219.314065.5697.639363 1.118908.97461 1.648437.327943-.529529.648094-1.078737.96289-1.648437.304295-.557506.591337-1.124317.861328-1.699219h-1.460937v-.271484l.000001-2.728515h-.687501l-.04102 2.726561v.273438z"/></g></svg>