<svg height="16" width="16" xmlns="http://www.w3.org/2000/svg" xmlns:xlink="http://www.w3.org/1999/xlink"><linearGradient id="a" gradientTransform="matrix(.33595803 0 0 .33595815 -.355552 -83.423971)" gradientUnits="userSpaceOnUse" x1="13.735326" x2="38.099998" y1="249.69423" y2="292.76666"><stop offset="0" stop-color="#e1e1e1"/><stop offset="1" stop-color="#f7f7f7"/></linearGradient><circle cx="8" cy="8" fill="url(#a)" r="8" stroke-width="1.066667"/><g enable-background="new" stroke-width="1.375" transform="matrix(.38787878 0 0 .38787878 -125.42462 -24.436736)"><path d="m331.88535 77.40342 10.77775 6.22254 16.65653-9.616652" fill="none" stroke="#3b3b3b" stroke-width="2.2"/><circle cx="342.66309" cy="83.625961" fill="#f22c42" r="2"/><path d="m342.6631 79.62596v20.8" fill="none" stroke="#f22c42" stroke-width="1.65"/></g><g stroke-width="1.066667"><path d="m8 0a8 8 0 0 0 -8 8 8 8 0 0 0 .0104167.30625 8 8 0 0 1 7.9895833-7.77291667 8 8 0 0 1 7.989583 7.69374997 8 8 0 0 0 .010417-.2270833 8 8 0 0 0 -8-8z" fill="#fff" opacity=".3"/><path d="m15.989583 7.69375a8 8 0 0 1 -7.989583 7.772917 8 8 0 0 1 -7.98958334-7.6937503 8 8 0 0 0 -.01041666.2270833 8 8 0 0 0 8 8 8 8 0 0 0 8-8 8 8 0 0 0 -.01042-.30625z" opacity=".2"/></g></svg>