<svg height="16" width="16" xmlns="http://www.w3.org/2000/svg"><g stroke-width="1.499998" transform="translate(-.000003)"><path d="m7.9999933.00002023c-4.40939 0-7.99998999 3.59058997-7.99998999 7.99998977 0 4.40939 3.59059999 7.99999 7.99998999 7.99999 4.4093997 0 7.9999897-3.5906 7.9999897-7.99999 0-4.4093998-3.59059-7.99998977-7.9999897-7.99998977z" fill="#da1636" stroke-dashoffset=".8"/><path d="m.000014.00001h15.999983v15.999983h-15.999983z" fill="none" stroke-dasharray="1.499998 1.499998" stroke-dashoffset=".6"/></g><g stroke-width="1.499998" transform="translate(-.000003)"><path d="m8 0c-4.40939 0-8 3.5906002-8 8 0 .084376.00910864.166243.01171875.25.13379101-4.293291 3.66326725-7.75 7.98828125-7.75 4.325024 0 7.854491 3.456709 7.988281 7.75.00261-.083757.011719-.165624.011719-.25 0-4.4093998-3.5906-8-8-8z" fill="#fff" opacity=".3" stroke-dashoffset=".8" transform="translate(.000003)"/><path d="m.000014.00001h15.999983v15.999983h-15.999983z" fill="none" stroke-dasharray="1.499998 1.499998" stroke-dashoffset=".6"/><path d="m8.0000032 16c4.4093898 0 7.9999998-3.5906 7.9999998-7.9999998 0-.08438-.0091-.1662429-.01172-.25-.13379 4.2932908-3.663266 7.7499998-7.9882798 7.7499998-4.325024 0-7.85449105-3.456709-7.98828105-7.7499998-.00261.08376-.011719.1656241-.011719.25 0 4.4093998 3.59060005 7.9999998 8.00000005 7.9999998z" opacity=".2" stroke-dashoffset=".8"/></g><circle cx="7.999997" cy="8.000004" fill="none" r="5" stroke="#fff" stroke-width="1.011128"/></svg>