<svg height="16" width="16" xmlns="http://www.w3.org/2000/svg"><g stroke-width=".857621"><path d="m2 2.0000008v4.5008371h1.5008373v-2.9999998h2.9999998v-1.5008373zm7.5008371 0v1.5008373h2.9999999v2.9999998h1.499162v-4.5008371zm-7.5008371 7.5008372v4.499162h4.5008371v-1.499162h-2.9999998v-3zm10.500837 0v3h-2.9999999v1.499162h4.4991619v-4.499162z" fill="#1a7fd4"/><path d="m2 2.0000008v.4h4.5015622v-.4zm7.501562 0v.4h4.498437v-.4zm-7.501562 7.5015622v.4h1.5015624v-.4zm10.501562 0v.4h1.498437v-.4zm-8.9999996 2.999999v.4h2.9999998v-.4zm5.9999996 0v.4h3v-.4z" fill="#fff" opacity=".3"/><path d="m14 14v-.4h-4.501563v.4zm-7.5015628 0v-.4h-4.4984372v.4zm7.5015628-7.5015627v-.4h-1.501563v.4zm-10.5015625 0v-.4h-1.4984375v.4zm8.9999985-2.9999998v-.4h-2.999999v.4zm-5.9999988 0v-.4h-2.9999997v.4z" opacity=".2"/></g></svg>