<?xml version="1.0" encoding="UTF-8" standalone="no"?>
<svg
   xmlns:dc="http://purl.org/dc/elements/1.1/"
   xmlns:cc="http://creativecommons.org/ns#"
   xmlns:rdf="http://www.w3.org/1999/02/22-rdf-syntax-ns#"
   xmlns:svg="http://www.w3.org/2000/svg"
   xmlns="http://www.w3.org/2000/svg"
   xmlns:sodipodi="http://sodipodi.sourceforge.net/DTD/sodipodi-0.dtd"
   xmlns:inkscape="http://www.inkscape.org/namespaces/inkscape"
   width="16"
   height="16"
   version="1.1"
   id="svg6"
   sodipodi:docname="installed.svg"
   inkscape:version="0.92.4 (5da689c313, 2019-01-14)">
  <metadata
     id="metadata12">
    <rdf:RDF>
      <cc:Work
         rdf:about="">
        <dc:format>image/svg+xml</dc:format>
        <dc:type
           rdf:resource="http://purl.org/dc/dcmitype/StillImage" />
      </cc:Work>
    </rdf:RDF>
  </metadata>
  <defs
     id="defs10" />
  <sodipodi:namedview
     pagecolor="#ffffff"
     bordercolor="#666666"
     borderopacity="1"
     objecttolerance="10"
     gridtolerance="10"
     guidetolerance="10"
     inkscape:pageopacity="0"
     inkscape:pageshadow="2"
     inkscape:window-width="854"
     inkscape:window-height="480"
     id="namedview8"
     showgrid="false"
     inkscape:zoom="14.75"
     inkscape:cx="8"
     inkscape:cy="8"
     inkscape:window-x="0"
     inkscape:window-y="27"
     inkscape:window-maximized="0"
     inkscape:current-layer="svg6" />
  <g
     transform="translate(-212.00006,-280)"
     id="g4">
    <path
       style="fill:#76c22b"
       d="M 5.3261719 0 C 3.6485819 0.0195 2.4196756 -0.040158145 1.4160156 0.51367188 C 0.91418571 0.79053187 0.51838816 1.25887 0.29882812 1.84375 C 0.079268135 2.42863 -3.7007434e-17 3.12319 0 4 L 0 12 C 0 12.87681 0.079248135 13.57137 0.29882812 14.15625 C 0.51838814 14.74113 0.91418569 15.209468 1.4160156 15.486328 C 2.4196756 16.040088 3.6485819 15.98057 5.3261719 16 L 5.3300781 16 L 10.669922 16 L 10.673828 16 C 12.351418 15.9805 13.578371 16.04016 14.582031 15.486328 C 15.083861 15.209468 15.479659 14.74113 15.699219 14.15625 C 15.919203 13.57137 16 12.87681 16 12 L 16 4 C 16 3.12319 15.920752 2.42864 15.701172 1.84375 C 15.481622 1.25887 15.085814 0.79055185 14.583984 0.51367188 C 13.580324 -0.040118135 12.351428 0.01936 10.673828 0 L 10.669922 0 L 8.6660156 0 L 5.3300781 0 L 5.3261719 0 z M 7.59375 3.0078125 L 7.5957031 3.0078125 C 8.8796321 2.930911 10.15576 3.3542504 11.142578 4.1953125 L 12.119141 3.21875 C 12.309851 3.74656 12.490816 4.2976269 12.660156 4.8730469 C 12.825426 5.4451469 12.973256 6.00809 13.103516 6.5625 C 12.544776 6.43656 11.97836 6.2922131 11.40625 6.1269531 C 10.83114 5.9576931 10.283006 5.7749881 9.7597656 5.5800781 L 10.625 4.7128906 C 9.409 3.7029406 7.7091487 3.41119 6.1992188 4.0625 C 4.3304888 4.86859 3.2876687 6.8721044 3.6992188 8.8652344 C 4.1107688 10.858374 5.8632575 12.285156 7.8984375 12.285156 L 7.9042969 12.285156 L 8.4472656 12.248047 L 8.4960938 12.960938 L 8.2558594 12.976562 L 8.2558594 13 L 7.9003906 13 C 5.5306506 13 3.4811531 11.330546 3.0019531 9.0097656 C 2.5227531 6.6889856 3.7420288 4.3468031 5.9179688 3.4082031 C 6.4613354 3.1738177 7.0288914 3.0419943 7.59375 3.0078125 z M 11.623047 10.123047 L 12.216797 10.519531 L 11.875 11.033203 L 11.845703 11.068359 L 11.78125 11.142578 L 11.244141 10.671875 L 11.296875 10.611328 L 11.623047 10.123047 z M 10.787109 11.154297 L 11.257812 11.691406 L 10.957031 11.955078 L 10.919922 11.984375 L 10.658203 12.158203 L 10.261719 11.564453 L 10.503906 11.402344 L 10.787109 11.154297 z M 9.6796875 11.888672 L 9.9941406 12.529297 L 9.8398438 12.607422 L 9.796875 12.625 L 9.2851562 12.800781 L 9.0546875 12.123047 L 9.5371094 11.958984 L 9.6796875 11.888672 z"
       transform="translate(212.00006,280)"
       id="path2" />
  </g>
  <g
     transform="translate(-212.00006,-280)"
     id="g825">
    <path
       sodipodi:nodetypes="ccsscscccccccccsccccccc"
       inkscape:connector-curvature="0"
       id="path816"
       transform="translate(212.00006,280)"
       d="M 5.3261719,0 C 3.6485819,0.0195 2.4196756,-0.04015813 1.4160156,0.51367188 0.91418565,0.79053187 0.51838814,1.25887 0.29882812,1.84375 0.07926813,2.42863 0,3.12319 0,4 V 4.5 C 0,3.62319 0.07926812,2.92863 0.29882812,2.34375 0.51838813,1.75887 0.91418562,1.2905319 1.4160156,1.0136719 2.4196756,0.45980187 3.6485819,0.5195 5.3261719,0.5 h 0.00391 3.3359375 2.0039066 0.0039 c 1.6776,0.01936 2.906496,-0.0401181 3.910156,0.5136719 C 15.085812,1.2905519 15.48162,1.75887 15.70117,2.34375 15.920702,2.92864 16,3.62319 16,4.5 V 4 C 16,3.12319 15.920752,2.42864 15.701172,1.84375 15.481622,1.25887 15.085814,0.79055187 14.583984,0.51367188 13.580324,-0.04011813 12.351428,0.01936 10.673828,0 h -0.0039 -2.0039064 -3.3359375 z"
       style="opacity:0.3;fill:#ffffff;fill-opacity:1" />
    <path
       sodipodi:nodetypes="ccsscccccccccccsccccccc"
       inkscape:connector-curvature="0"
       style="opacity:0.2;fill:#010000;fill-opacity:1"
       d="m 222.67398,296 c 1.67759,-0.0195 2.90649,0.0402 3.91015,-0.51367 0.50183,-0.27686 0.89763,-0.7452 1.11719,-1.33008 0.21956,-0.58488 0.29883,-1.27944 0.29883,-2.15625 v -0.5 c 0,0.87681 -0.0793,1.57137 -0.29883,2.15625 -0.21956,0.58488 -0.61536,1.05322 -1.11719,1.33008 -1.00366,0.55387 -2.23256,0.49417 -3.91015,0.51367 h -0.004 -3.33594 -2.0039 -0.004 c -1.6776,-0.0194 -2.9065,0.0401 -3.91016,-0.51367 -0.50183,-0.27688 -0.89763,-0.7452 -1.11718,-1.33008 -0.21953,-0.58489 -0.29883,-1.27944 -0.29883,-2.15625 v 0.5 c 0,0.87681 0.0793,1.57136 0.29883,2.15625 0.21955,0.58488 0.61535,1.0532 1.11718,1.33008 1.00366,0.55379 2.23256,0.49431 3.91016,0.51367 h 0.004 2.0039 3.33594 z"
       id="path821" />
  </g>
</svg>
