<?xml version="1.0" encoding="UTF-8" standalone="no"?>
<svg
   xmlns:osb="http://www.openswatchbook.org/uri/2009/osb"
   xmlns:dc="http://purl.org/dc/elements/1.1/"
   xmlns:cc="http://creativecommons.org/ns#"
   xmlns:rdf="http://www.w3.org/1999/02/22-rdf-syntax-ns#"
   xmlns:svg="http://www.w3.org/2000/svg"
   xmlns="http://www.w3.org/2000/svg"
   xmlns:sodipodi="http://sodipodi.sourceforge.net/DTD/sodipodi-0.dtd"
   xmlns:inkscape="http://www.inkscape.org/namespaces/inkscape"
   height="16"
   id="svg7384"
   version="1.1"
   width="16"
   sodipodi:docname="evolution.svg"
   inkscape:version="0.92.4 (5da689c313, 2019-01-14)">
  <sodipodi:namedview
     pagecolor="#ffffff"
     bordercolor="#666666"
     borderopacity="1"
     objecttolerance="10"
     gridtolerance="10"
     guidetolerance="10"
     inkscape:pageopacity="0"
     inkscape:pageshadow="2"
     inkscape:window-width="1920"
     inkscape:window-height="1016"
     id="namedview23"
     showgrid="false"
     inkscape:zoom="14.75"
     inkscape:cx="-6.9491525"
     inkscape:cy="8"
     inkscape:window-x="0"
     inkscape:window-y="27"
     inkscape:window-maximized="1"
     inkscape:current-layer="svg7384" />
  <metadata
     id="metadata20854">
    <rdf:RDF>
      <cc:Work
         rdf:about="">
        <dc:title></dc:title>
        <dc:format>image/svg+xml</dc:format>
        <dc:type
           rdf:resource="http://purl.org/dc/dcmitype/StillImage" />
      </cc:Work>
    </rdf:RDF>
  </metadata>
  <defs
     id="defs7386">
    <linearGradient
       id="linearGradient5606"
       osb:paint="solid">
      <stop
         id="stop5608"
         offset="0"
         style="stop-color:#000000;stop-opacity:1;" />
    </linearGradient>
    <linearGradient
       id="linearGradient4526"
       osb:paint="solid">
      <stop
         id="stop4528"
         offset="0"
         style="stop-color:#ffffff;stop-opacity:1;" />
    </linearGradient>
    <linearGradient
       id="linearGradient3600-4"
       osb:paint="gradient">
      <stop
         id="stop3602-7"
         offset="0"
         style="stop-color:#f4f4f4;stop-opacity:1" />
      <stop
         id="stop3604-6"
         offset="1"
         style="stop-color:#dbdbdb;stop-opacity:1" />
    </linearGradient>
  </defs>
  <g
     id="layer9"
     label="status"
     style="display:inline"
     transform="translate(-813.00024,107)" />
  <g
     id="layer2"
     style="display:inline"
     transform="translate(-572.00004,-260)" />
  <g
     id="layer4"
     style="display:inline"
     transform="translate(-572.00004,-260)" />
  <g
     id="g1812"
     style="display:inline"
     transform="translate(-572.00004,-260)" />
  <g
     id="g6217"
     style="display:inline"
     transform="translate(-572.00004,-260)" />
  <g
     id="layer3"
     style="display:inline"
     transform="translate(-572.00004,-260)" />
  <g
     id="g1833"
     style="display:inline"
     transform="translate(-572.00004,-260)">
    <path
       d="m 572.38841,265.89185 -0.38837,0.59584 7,5.01231 -2,2 c 0,0 2.72412,-1.22906 4,-2 2.45979,-1.48631 7,-5.03358 7,-5.03358 l -0.38837,-0.57457 -7.61296,4.59385 z"
       id="path4237-1"
       style="font-style:normal;font-variant:normal;font-weight:normal;font-stretch:normal;font-size:15px;line-height:125%;font-family:Ubuntu;-inkscape-font-specification:Ubuntu;text-align:center;letter-spacing:0px;word-spacing:0px;writing-mode:lr-tb;text-anchor:middle;display:inline;fill:#808080;fill-opacity:1;stroke:none;stroke-width:0.99980211" />
    <path
       style="color:#000000;font-style:normal;font-variant:normal;font-weight:normal;font-stretch:normal;font-size:medium;line-height:normal;font-family:sans-serif;font-variant-ligatures:normal;font-variant-position:normal;font-variant-caps:normal;font-variant-numeric:normal;font-variant-alternates:normal;font-feature-settings:normal;text-indent:0;text-align:start;text-decoration:none;text-decoration-line:none;text-decoration-style:solid;text-decoration-color:#000000;letter-spacing:normal;word-spacing:normal;text-transform:none;writing-mode:lr-tb;direction:ltr;text-orientation:mixed;dominant-baseline:auto;baseline-shift:baseline;text-anchor:start;white-space:normal;shape-padding:0;clip-rule:nonzero;display:inline;overflow:visible;visibility:visible;opacity:1;isolation:auto;mix-blend-mode:normal;color-interpolation:sRGB;color-interpolation-filters:linearRGB;solid-color:#000000;solid-opacity:1;vector-effect:none;fill:#808080;fill-opacity:1;fill-rule:nonzero;stroke:none;stroke-width:1.00000012;stroke-linecap:butt;stroke-linejoin:miter;stroke-miterlimit:4;stroke-dasharray:none;stroke-dashoffset:0;stroke-opacity:1;marker:none;color-rendering:auto;image-rendering:auto;shape-rendering:auto;text-rendering:auto;enable-background:accumulate"
       d="M 3.9941406 2 C 2.7359406 2.0145 1.81525 1.9693956 1.0625 2.3847656 C 0.68613 2.5924256 0.38926938 2.9441525 0.22460938 3.3828125 C 0.05993937 3.8214825 1.8503717e-17 4.3424 0 5 L 0 12 C 0 12.65761 0.05989937 13.178577 0.22460938 13.617188 C 0.38928936 14.055796 0.68614 14.405711 1.0625 14.613281 C 1.81522 15.028411 2.7360406 14.98493 3.9941406 15 L 3.9960938 15 L 8.4746094 15 L 8.4746094 14 L 4.0058594 14 L 4 14 C 2.74137 13.9848 1.9109019 13.940101 1.5449219 13.738281 C 1.3615019 13.637121 1.2576962 13.525425 1.1601562 13.265625 C 1.0625562 13.005835 1 12.59239 1 12 L 1 5 C 1 4.40761 1.0625963 3.994275 1.1601562 3.734375 C 1.2577563 3.474465 1.3615119 3.3629088 1.5449219 3.2617188 C 1.9108819 3.0597987 2.74147 3.0147 4 3 L 12 3 C 13.25862 3.0152 14.089098 3.0598888 14.455078 3.2617188 C 14.638498 3.3628786 14.742304 3.474565 14.839844 3.734375 C 14.937244 3.994155 15 4.40761 15 5 L 15 10.304688 L 16 10.304688 L 16 5 C 16 4.3424 15.940101 3.8214225 15.775391 3.3828125 C 15.610711 2.9442125 15.31386 2.5942788 14.9375 2.3867188 C 14.18478 1.9715887 13.263949 2.01508 12.005859 2 L 12.003906 2 L 3.9980469 2 L 3.9941406 2 z "
       transform="translate(572.00004,260)"
       id="path2732-8-1-32" />
    <path
       d="m 576.99422,263.99916 c -0.62947,0.007 -1.10654,0.009 -1.50586,0.0547 -0.39932,0.0458 -0.76315,0.14093 -1.03711,0.41406 -0.27395,0.27313 -0.36959,0.63968 -0.41211,1.03711 -0.0425,0.39741 -0.0391,1.37069 -0.0391,1.99497 h 1 c 0,-0.62572 9.9e-4,-1.58835 0.0332,-1.8895 0.0322,-0.30116 0.0892,-0.39788 0.125,-0.43361 0.0358,-0.0357 0.13752,-0.0938 0.44336,-0.12889 0.30457,-0.0349 0.77106,-0.0416 1.39844,-0.0488 H 582 c 0.62741,0.008 2.09166,0.0139 2.39628,0.0488 0.30591,0.0351 0.40951,0.0932 0.44532,0.12889 0.0358,0.0357 0.0928,0.13255 0.125,0.43361 0.0321,0.30108 0.0332,1.26378 0.0332,1.8895 h 1 c 0,-0.62428 0.003,-1.59763 -0.0391,-1.99498 -0.0425,-0.39736 -0.13813,-0.76407 -0.41211,-1.03711 -0.27398,-0.27303 -0.63785,-0.36822 -1.03711,-0.41406 -0.39926,-0.0458 -1.87622,-0.0471 -2.50566,-0.0547 h -0.002 -5.00582 z"
       id="path2732-8-1-36"
       style="color:#000000;font-style:normal;font-variant:normal;font-weight:normal;font-stretch:normal;font-size:medium;line-height:normal;font-family:sans-serif;font-variant-ligatures:normal;font-variant-position:normal;font-variant-caps:normal;font-variant-numeric:normal;font-variant-alternates:normal;font-feature-settings:normal;text-indent:0;text-align:start;text-decoration:none;text-decoration-line:none;text-decoration-style:solid;text-decoration-color:#000000;letter-spacing:normal;word-spacing:normal;text-transform:none;writing-mode:lr-tb;direction:ltr;text-orientation:mixed;dominant-baseline:auto;baseline-shift:baseline;text-anchor:start;white-space:normal;shape-padding:0;clip-rule:nonzero;display:inline;overflow:visible;visibility:visible;opacity:1;isolation:auto;mix-blend-mode:normal;color-interpolation:sRGB;color-interpolation-filters:linearRGB;solid-color:#000000;solid-opacity:1;vector-effect:none;fill:#808080;fill-opacity:1;fill-rule:nonzero;stroke:none;stroke-width:1.00000012;stroke-linecap:butt;stroke-linejoin:miter;stroke-miterlimit:4;stroke-dasharray:none;stroke-dashoffset:0;stroke-opacity:1;marker:none;color-rendering:auto;image-rendering:auto;shape-rendering:auto;text-rendering:auto;enable-background:accumulate" />
  </g>
  <g
     id="layer1"
     style="display:inline"
     transform="translate(-572.00004,-260)" />
  <g
     transform="translate(-733,-48.993)"
     id="g6">
    <path
       style="overflow:visible;fill:#808080"
       inkscape:connector-curvature="0"
       d="m 745,59.003 v 1.996 h -2 v 1.998 h 2 v 1.996 h 2 v -1.996 h 2 v -1.998 h -2 v -1.996 z"
       overflow="visible"
       id="path4" />
  </g>
</svg>
