<svg height="16" width="16" xmlns="http://www.w3.org/2000/svg"><g fill="#808080" transform="translate(-572.00004 -260)"><path d="m572.38841 265.89185-.38837.59584 7 5.01231-2 2s2.72412-1.22906 4-2c2.45979-1.48631 7-5.03358 7-5.03358l-.38837-.57457-7.61296 4.59385z"/><path d="m575.99418 263.09977c-1.2582.0145-2.17889-.0306-2.93164.38477-.37637.20766-.67323.55938-.83789.99804-.16467.43867-.22461.95959-.22461 1.61719v.86523h1v-.86523c0-.59239.0626-1.00572.16016-1.26563.0976-.25991.20135-.37146.38476-.47265.36596-.20192 1.19655-.24702 2.45508-.26172h8c1.25862.0152 2.0891.0599 2.45508.26172.18342.10116.28722.21284.38476.47265.0974.25978.16016.67324.16016 1.26563v.86523h1v-.86523c0-.6576-.0599-1.17858-.22461-1.61719-.16468-.4386-.46153-.78853-.83789-.99609-.75272-.41513-1.67355-.37164-2.93164-.38672h-.002-8.00586z"/><path d="m0 5.8652344v6.1347656c0 .65761.05989938 1.178578.22460938 1.617188.16467999.438609.46153062.788523.83789062.996093.75272.41513 1.6735406.371649 2.9316406.386719h.0019532 8.0058592.003906c1.25819-.0145 2.178891.030604 2.931641-.384766.37637-.20766.673221-.559386.837891-.998046.16453-.438671.224609-.959578.224609-1.617188v-6.1347656h-1v6.1347656c0 .59239-.062596 1.005725-.160156 1.265625-.0976.25991-.201356.371466-.384766.472656-.36596.20192-1.196558.247009-2.455078.261719h-7.9941406-.0058594c-1.25863-.0152-2.0890981-.059899-2.4550781-.261719-.18342-.10116-.2872257-.212856-.3847657-.472656-.0976-.25979-.1601562-.673235-.1601562-1.265625v-6.1347656z" transform="translate(572.00004 260)"/></g></svg>