<?xml version="1.0" encoding="UTF-8" standalone="no"?>
<!-- Created with Inkscape (http://www.inkscape.org/) -->

<svg
   xmlns:dc="http://purl.org/dc/elements/1.1/"
   xmlns:cc="http://creativecommons.org/ns#"
   xmlns:rdf="http://www.w3.org/1999/02/22-rdf-syntax-ns#"
   xmlns:svg="http://www.w3.org/2000/svg"
   xmlns="http://www.w3.org/2000/svg"
   xmlns:sodipodi="http://sodipodi.sourceforge.net/DTD/sodipodi-0.dtd"
   xmlns:inkscape="http://www.inkscape.org/namespaces/inkscape"
   version="1.1"
   id="svg2"
   width="16"
   height="16"
   viewBox="0 0 16 16"
   sodipodi:docname="multisystem-grub48.svg"
   inkscape:version="0.92.4 (5da689c313, 2019-01-14)">
  <metadata
     id="metadata8">
    <rdf:RDF>
      <cc:Work
         rdf:about="">
        <dc:format>image/svg+xml</dc:format>
        <dc:type
           rdf:resource="http://purl.org/dc/dcmitype/StillImage" />
        <dc:title />
      </cc:Work>
    </rdf:RDF>
  </metadata>
  <defs
     id="defs6" />
  <sodipodi:namedview
     pagecolor="#ffffff"
     bordercolor="#666666"
     borderopacity="1"
     objecttolerance="10"
     gridtolerance="10"
     guidetolerance="10"
     inkscape:pageopacity="0"
     inkscape:pageshadow="2"
     inkscape:window-width="1920"
     inkscape:window-height="1016"
     id="namedview4"
     showgrid="false"
     inkscape:zoom="52.4375"
     inkscape:cx="4.3766389"
     inkscape:cy="8"
     inkscape:window-x="0"
     inkscape:window-y="27"
     inkscape:window-maximized="1"
     inkscape:current-layer="svg2" />
  <path
     style="fill:#3d3d3d;fill-opacity:1;stroke-width:0.0500591"
     d="m 7.1447017,13.757833 c 0.1637528,-0.114698 0.1354254,-0.187438 -0.038058,-0.09773 -0.082123,0.04247 -0.2567041,0.09124 -0.3879579,0.108383 l -0.2386432,0.03117 0.1376625,-0.110731 c 0.2139409,-0.172088 0.1623496,-0.213893 -0.095059,-0.07702 -0.2432396,0.129332 -0.6256145,0.165994 -0.7684601,0.07368 -0.056708,-0.03664 -0.033939,-0.04872 0.093018,-0.04929 L 6.0153091,13.63552 5.7595998,13.405615 C 5.4742134,13.149028 5.4278166,13.042959 5.6515813,13.158672 c 0.1773008,0.09169 0.244825,0.09845 0.162675,0.01631 -0.093631,-0.09363 -0.071441,-0.140166 0.066839,-0.140166 0.1713498,0 0.3618976,-0.132361 0.457952,-0.318109 0.076236,-0.147425 0.074759,-0.155876 -0.040103,-0.229355 -0.405916,-0.259674 -0.5284146,-0.526227 -0.3695511,-0.80413 0.095353,-0.166803 0.091153,-0.301665 -0.013628,-0.437545 -0.066778,-0.0866 -0.1583274,-0.119654 -0.4016863,-0.145037 -0.3901115,-0.04069 -0.4607203,-0.122136 -0.4607203,-0.531428 0,-0.231527 -0.017852,-0.297228 -0.087603,-0.322392 C 4.5802345,10.107738 4.478133,9.7918769 4.7530045,9.5886559 c 0.082597,-0.06107 0.1501772,-0.134543 0.1501772,-0.163279 0,-0.02874 -0.1235518,-0.165167 -0.2745595,-0.303179 C 4.2935946,8.8159989 4.2189956,8.6062179 4.302353,8.2046879 4.374287,7.858182 4.5049532,7.7621777 4.8435028,7.8070882 5.0241921,7.8310582 5.0979452,7.8204912 5.1449031,7.7639112 5.2026241,7.6943622 5.3211952,7.1286963 5.285529,7.0930302 5.276759,7.0842602 5.170247,7.1494572 5.0488377,7.2379157 4.634387,7.5398802 3.8987281,7.7461151 3.4567028,7.6842551 3.1887649,7.6467582 2.9900654,7.436782 3.0986781,7.3059115 c 0.035079,-0.042267 0.085173,-0.063627 0.1113205,-0.047467 0.082089,0.050734 0.241469,-0.1397139 0.241469,-0.2885386 0,-0.1163834 -0.021648,-0.1424186 -0.1184218,-0.1424186 -0.2156811,0 -0.8166305,-0.3418235 -1.0329013,-0.58752 C 1.8047762,5.6771989 1.5535046,5.0892728 1.5137227,4.3998931 1.4573588,3.4231656 1.734272,2.5971801 2.3147837,2.0104615 2.8502403,1.4692791 3.4715508,1.2227871 4.3024722,1.2218876 4.84447,1.2213019 5.0428932,1.276915 5.4939712,1.5558418 5.7856534,1.7362057 5.8943653,1.7777953 6.0321063,1.7617143 6.2426264,1.737137 6.2656896,1.8461815 6.0920851,2.0452961 5.9438002,2.2153704 5.6478944,2.2622131 5.1050721,2.201544 4.8701363,2.1752864 4.5652824,2.154965 4.4276199,2.1563852 c -0.63916,0.0066 -1.2693899,0.5501414 -1.4523555,1.2525932 -0.147813,0.5674924 -0.061909,1.0897023 0.2267798,1.3786003 0.1031722,0.1032469 0.236408,0.1877216 0.2960794,0.1877216 0.2663234,0 0.5693466,-0.2789553 1.1206809,-1.0316698 0.6311076,-0.8616256 1.0078027,-1.1242742 1.664168,-1.1603308 0.4611339,-0.025331 0.6660352,0.049285 1.0794998,0.3931081 L 7.5941337,3.3690488 7.8630632,3.1651436 C 8.3703305,2.7805281 8.8172421,2.6629528 9.3767165,2.7669265 c 0.4898542,0.091035 0.7049995,0.2337149 1.2536585,0.8313985 0.977135,1.0644445 1.299045,1.3664174 1.496026,1.4033716 0.239209,0.044876 0.49142,-0.1078098 0.663712,-0.4018033 0.1079,-0.1841184 0.127023,-0.2786335 0.127799,-0.6316522 C 12.918725,3.5825033 12.904384,3.5239657 12.714933,3.1416354 12.430851,2.5683326 12.053814,2.289175 11.368011,2.1443781 11.073789,2.0822576 10.981331,2.0837453 10.566561,2.1572749 9.9409673,2.2681803 9.5032739,2.2048955 9.2958666,1.9735489 9.1421777,1.8021211 9.1052595,1.5903126 9.2379432,1.6412282 9.5020114,1.7425603 9.5659674,1.7307508 9.9482327,1.5100689 10.472665,1.2073145 10.605679,1.1670705 11.185597,1.135703 c 1.643956,-0.088922 2.918354,0.7778922 3.257853,2.2159108 0.06204,0.2627952 0.07501,0.4810178 0.05334,0.8978292 -0.04366,0.8398755 -0.19846,1.2791991 -0.664149,1.8848936 -0.360303,0.4686252 -0.668295,0.6739981 -1.253349,0.8357441 l -0.342454,0.094676 0.0044,0.2073633 c 0.0028,0.1362629 0.0401,0.2457716 0.108578,0.3193815 0.05731,0.06161 0.119828,0.1966021 0.138913,0.2999821 0.02502,0.1354985 0.0886,0.2306511 0.227795,0.3408971 0.192892,0.152774 0.319152,0.429514 0.262874,0.576174 -0.03236,0.08434 -0.246015,0.09569 -0.295455,0.0157 -0.02204,-0.03568 -0.11904,-0.04443 -0.270174,-0.02438 -0.214667,0.02848 -0.249908,0.01777 -0.393602,-0.119549 -0.0868,-0.08296 -0.180556,-0.150827 -0.20834,-0.150827 -0.0313,0 -0.0508,0.242775 -0.05125,0.638253 -4.5e-4,0.3751 -0.0301,0.762092 -0.07196,0.9386091 -0.178084,0.751098 -0.621162,1.430311 -1.299994,1.992812 -0.232722,0.192841 -0.220865,0.172893 0.14677,-0.24694 0.219968,-0.251201 0.474749,-0.581562 0.566178,-0.734136 0.362198,-0.604424 0.543579,-1.4488991 0.481539,-2.2419541 l -0.03454,-0.441554 -0.156421,-0.03436 c -0.08603,-0.01889 -0.251673,-0.08063 -0.368092,-0.137193 -0.116419,-0.05656 -0.225836,-0.08867 -0.243151,-0.07136 -0.01731,0.01731 -0.04296,0.229934 -0.05698,0.472488 -0.02038,0.352526 -0.04448,0.45616 -0.120086,0.516531 -0.06346,0.05067 -0.106848,0.174236 -0.131841,0.375443 -0.03497,0.281523 -0.04594,0.300914 -0.178809,0.316135 -0.105026,0.01203 -0.15495,0.05463 -0.193455,0.1650901 -0.03681,0.105588 -0.0939,0.157275 -0.1963421,0.177764 -0.1619312,0.03239 -0.1796746,0.07499 -0.069355,0.166551 0.1686931,0.140003 0.033142,0.510325 -0.2015861,0.550714 -0.1062171,0.01827 -0.1534073,0.05776 -0.1648238,0.13792 -0.00999,0.0701 -0.050773,0.112311 -0.1085386,0.112311 -0.2592951,0 -0.3117951,0.109329 -0.15079,0.314014 0.055065,0.07001 0.1001182,0.171791 0.1001182,0.226193 0,0.105311 -0.2802628,0.384305 -0.540447,0.538 -0.2354514,0.139085 -0.2438619,0.225921 -0.0386,0.398537 0.2119672,0.178255 0.2222819,0.27177 0.050766,0.460255 l -0.1278089,0.140454 0.074094,-0.153137 c 0.083278,-0.172176 0.057806,-0.242795 -0.1060479,-0.293928 -0.2588991,-0.08079 -0.3268553,-0.280517 -0.1868139,-0.54905 0.1044833,-0.200351 0.059832,-0.216896 -0.082946,-0.03074 -0.065172,0.08497 -0.1783941,0.227522 -0.2516044,0.316774 l -0.1331102,0.162275 0.1203386,0.198812 c 0.1516995,0.250625 0.1512405,0.33392 -0.0028,0.508891 l -0.1236564,0.140454 0.058028,-0.158679 c 0.045703,-0.124977 0.044085,-0.175479 -0.00762,-0.23778 -0.093024,-0.112086 -0.1535092,-0.09805 -0.1535092,0.03562 0,0.192707 -0.5114493,0.636161 -0.7337041,0.636161 -0.076675,0 -0.073556,-0.01118 0.021739,-0.07793 z m 0.3639487,-0.80441 c 0.026215,-0.06895 0.048375,-0.197108 0.049245,-0.284796 0.00133,-0.134531 0.036625,-0.180699 0.2259296,-0.295583 0.2642252,-0.16035 0.3578969,-0.346588 0.2803448,-0.557379 -0.046517,-0.126439 -0.042138,-0.140152 0.038063,-0.119179 0.1710875,0.04475 0.2674817,-0.05632 0.2323478,-0.243606 -0.036039,-0.192107 0.014919,-0.216876 0.1466696,-0.0713 0.049197,0.05436 0.1315312,0.112197 0.182965,0.128521 0.072883,0.02313 0.093516,0.07889 0.093516,0.252728 v 0.223046 l 0.1295599,-0.08489 c 0.1087003,-0.07122 0.1243633,-0.109694 0.097283,-0.238935 -0.092223,-0.44014 -0.088337,-0.502274 0.04008,-0.640839 0.068759,-0.07419 0.1888844,-0.148044 0.2669456,-0.164117 0.3751312,-0.07724 0.4990992,-0.25391 0.344123,-0.490433 -0.1000209,-0.152652 -0.052197,-0.285339 0.1028446,-0.285339 0.087822,0 0.1375432,-0.04409 0.1892401,-0.1678221 0.052,-0.124454 0.1103856,-0.175874 0.2259376,-0.198984 0.146836,-0.02936 0.155817,-0.04422 0.155817,-0.257681 0,-0.162704 0.02935,-0.255862 0.104162,-0.330679 0.08309,-0.08309 0.109188,-0.186888 0.129013,-0.513106 0.03695,-0.6081321 0.03407,-0.6223845 -0.160555,-0.7932672 -0.09824,-0.086251 -0.249017,-0.2591515 -0.335067,-0.3842211 L 9.8906597,7.2081622 9.8236041,7.4057819 C 9.7867247,7.5144733 9.7106699,7.6597187 9.6546001,7.72855 L 9.5526502,7.8536977 9.6408371,7.6784909 c 0.097975,-0.1946548 0.118131,-0.6474217 0.0546,-1.2264477 l -0.038448,-0.3504137 0.099518,0.3659019 c 0.1341567,0.4932612 0.3233509,0.8284755 0.6544769,1.1596024 0.327117,0.3271166 0.654055,0.5131011 1.100002,0.6257561 0.178961,0.04521 0.422375,0.150766 0.54092,0.234571 0.141443,0.09999 0.251707,0.142914 0.320756,0.124857 0.05787,-0.01513 0.183974,0.0054 0.280227,0.04561 0.09625,0.04022 0.184635,0.06349 0.196404,0.05172 0.04115,-0.04115 -0.08758,-0.223545 -0.256864,-0.363949 -0.108377,-0.08989 -0.190814,-0.216882 -0.225775,-0.3478024 -0.03029,-0.1134189 -0.100044,-0.263395 -0.155016,-0.33328 -0.06381,-0.081125 -0.09995,-0.2029821 -0.09995,-0.3370498 0,-0.4605442 -0.479323,-1.5927477 -0.854961,-2.0194955 C 11.02374,5.0433813 10.476324,4.7465388 10.134356,4.6994523 9.9966934,4.6804974 9.7706064,4.6332387 9.6319403,4.5944338 9.4884464,4.5542774 9.1864925,4.5268335 8.931113,4.5307371 8.5696403,4.5362617 8.4386116,4.5170975 8.2571404,4.4321627 7.9669083,4.2963239 7.7565495,4.2902983 7.7565495,4.4178238 c 0,0.1230949 -0.2123592,0.3311644 -0.414273,0.4059042 -0.4968361,0.1839075 -0.598086,0.2843527 -0.3991873,0.3960135 0.082888,0.046533 0.082716,0.051063 -0.00319,0.084157 C 6.6803389,5.4038875 6.4971291,5.0886148 6.7053124,4.9002115 6.7603774,4.8503785 6.8054305,4.7921098 6.8054305,4.7707256 6.8054305,4.7493416 6.6927976,4.6252049 6.5551351,4.494866 6.3357011,4.2871057 6.3048396,4.233108 6.3048396,4.056927 c 0,-0.174105 0.030494,-0.2293562 0.2281899,-0.4134601 C 6.6585304,3.5265918 6.861177,3.3898579 6.9833517,3.339614 7.105527,3.2893698 7.1981468,3.2257346 7.1891737,3.1982022 7.1802011,3.1706696 7.0637952,3.0805632 6.9304949,2.9979657 6.7241153,2.8700858 6.6392361,2.8480478 6.3588205,2.8495365 5.7114749,2.8529706 5.3829531,3.0753065 4.720471,3.9583244 3.992295,4.9289046 3.7399687,5.1327082 3.3945964,5.0292321 2.8316208,4.8605605 2.6431925,3.8116663 3.0292617,2.9955829 3.1678758,2.7025766 3.4863563,2.3830188 3.7984346,2.2238084 4.1270486,2.056162 4.3839213,2.0302675 4.9584265,2.1068738 c 0.2862388,0.038168 0.6099524,0.056097 0.7193631,0.039843 0.2926735,-0.04348 0.5175785,-0.2750812 0.2671274,-0.2750812 -0.060293,0 -0.2574009,-0.089195 -0.4380171,-0.1982115 C 5.0333194,1.3875806 4.8060536,1.3208734 4.3086935,1.3217259 3.450069,1.3231965 2.9466792,1.5279794 2.410271,2.094015 1.7494284,2.7913582 1.5182705,3.5517919 1.6489313,4.5985746 1.7669721,5.5442564 2.4161925,6.4411381 3.140484,6.6591179 c 0.1247277,0.037538 0.2581367,0.06825 0.2964645,0.06825 0.080034,0 0.215292,-0.2921398 0.2136427,-0.4614387 L 3.649478,6.1516883 3.5515859,6.2768361 3.4536944,6.4019838 3.4499569,6.226777 C 3.4462438,6.0528807 3.4456344,6.0524126 3.3676492,6.1642031 3.2610283,6.3170505 3.2195258,6.306021 3.1812552,6.1146699 L 3.1488218,5.9525034 3.0520916,6.0999595 2.955362,6.247416 2.9221324,6.0396102 2.8889027,5.8318045 2.7635903,5.9139124 2.6382774,5.9960203 2.6750284,5.8286968 C 2.711469,5.6627825 2.7104664,5.6616356 2.5560034,5.6925286 2.3851277,5.7267031 2.3755479,5.7156621 2.4520492,5.5727182 c 0.044899,-0.083895 0.03487,-0.096827 -0.075089,-0.096827 -0.1487196,0 -0.1508817,-0.00867 -0.050535,-0.2027223 0.072073,-0.1393735 0.070831,-0.1476913 -0.022075,-0.1476913 -0.1353013,0 -0.1648952,-0.067289 -0.079317,-0.1803469 C 2.3263091,4.8113357 2.3180974,4.779424 2.1676759,4.722234 L 2.0352411,4.6718822 2.1426463,4.5575543 C 2.2763391,4.4152453 2.2781277,4.3429134 2.1499344,4.2628554 2.0280105,4.1867128 2.0234852,4.1295571 2.1330385,4.0494495 2.2155684,3.9891019 2.206443,3.9263707 2.0920926,3.7679572 2.0454096,3.7032863 2.0551376,3.6567159 2.1403201,3.5370877 2.2270265,3.4153199 2.2385276,3.3575933 2.2016801,3.2291127 2.1653565,3.1024596 2.1742062,3.0537656 2.2461515,2.9844208 2.2955523,2.9368058 2.3496947,2.8091734 2.3664675,2.7007935 2.3850778,2.580545 2.4445406,2.4634763 2.5190286,2.4004389 2.5861646,2.343624 2.6660161,2.2474228 2.6964765,2.1866595 2.7310232,2.1177457 2.8182127,2.0637329 2.9282251,2.0430946 3.0531416,2.0196604 3.1261487,1.9683202 3.178491,1.8671008 3.2402118,1.7477449 3.275388,1.7287926 3.3919325,1.7521015 c 0.091855,0.018371 0.1991556,-0.00726 0.3139897,-0.075019 0.1315803,-0.077634 0.210936,-0.093122 0.3229272,-0.063027 0.082829,0.022258 0.2194771,0.018197 0.3090563,-0.00919 0.2555597,-0.078123 0.8042028,0.03189 0.9626283,0.1930239 L 5.4288045,1.9283553 5.2152704,1.8441879 C 5.0369835,1.7739132 4.9770687,1.7702374 4.8522969,1.8219197 c -0.1194825,0.049492 -0.16478,0.049168 -0.2259653,-0.00161 -0.059056,-0.049012 -0.1052952,-0.050403 -0.2025465,-0.00609 -0.069311,0.03158 -0.2261395,0.057419 -0.3485069,0.057419 -0.1682721,0 -0.2377221,0.024396 -0.2850115,0.1001182 -0.041962,0.067192 -0.1167393,0.1001178 -0.2273784,0.1001178 -0.1346079,0 -0.183387,0.031411 -0.2658708,0.1712116 -0.05556,0.094167 -0.1674327,0.1943644 -0.248607,0.2226618 -0.124129,0.043271 -0.1475903,0.078328 -0.1475903,0.2205354 0,0.1138634 -0.039329,0.2060322 -0.1204231,0.2822166 -0.1020129,0.095836 -0.1136596,0.1367169 -0.076182,0.2673957 0.034794,0.1213192 0.022548,0.189366 -0.057343,0.3186321 -0.095015,0.153738 -0.09648,0.1742402 -0.022652,0.3170097 0.071124,0.1375394 0.071348,0.1673105 0.00227,0.3009008 -0.071784,0.1388163 -0.070306,0.1516635 0.023218,0.201716 0.081111,0.04341 0.097632,0.097522 0.087897,0.2878848 -0.010203,0.1994901 0.00293,0.2374349 0.088129,0.2546066 0.1227129,0.024733 0.1734348,0.09747 0.1744404,0.2501508 6.508e-4,0.098591 0.02311,0.1140617 0.1467637,0.1010913 0.090511,-0.00949 0.1858349,0.020738 0.2508201,0.079549 0.1030217,0.093234 0.106749,0.093099 0.2169312,-0.00784 0.06166,-0.056487 0.2022146,-0.1484778 0.3123447,-0.2044263 0.2425112,-0.1232 0.5655571,-0.4500382 0.9744067,-0.9858448 0.5898913,-0.7730665 1.1685103,-1.0829603 1.729029,-0.9260246 0.1237617,0.034651 0.2250211,0.082601 0.2250211,0.1065553 0,0.023954 -0.02009,0.043553 -0.044645,0.043553 -0.024554,0 -0.158055,0.1019654 -0.2966676,0.2265906 -0.290893,0.2615378 -0.354504,0.4421531 -0.2362559,0.6708195 l 0.079549,0.1538311 H 6.2155739 c -0.1906805,0 -0.2924837,0.090776 -0.3301001,0.2943414 C 5.8682785,4.8120451 5.7753883,4.975428 5.6790516,5.0820614 5.5360158,5.2403848 5.5038933,5.3154709 5.5038933,5.4914942 c 0,0.2737477 0.0748,0.366026 0.3253841,0.4014233 0.11013,0.015556 0.2509212,0.043349 0.3128694,0.061761 0.1405569,0.041777 0.1494449,-0.055586 0.02503,-0.2741812 C 6.1017256,5.5655031 6.0415976,5.5251555 5.9293956,5.52094 l -0.1501772,-0.00564 0.1376625,-0.054397 c 0.1569342,-0.062016 0.1687857,-0.097103 0.062574,-0.1852509 -0.041299,-0.034275 -0.075089,-0.1061093 -0.075089,-0.159632 0,-0.1667789 0.2513702,-0.096266 0.3906116,0.1095729 C 6.3977448,5.3775137 6.411034,5.4473766 6.3949615,5.7512148 6.3770346,6.0900944 6.3655365,6.117282 6.0456509,6.5771898 5.8637251,6.8387486 5.6431778,7.2049574 5.5555449,7.390987 5.459586,7.594691 5.3299024,7.7797994 5.2294969,7.8563823 5.0833404,7.9678615 5.0319458,7.9794516 4.812726,7.9503714 4.5807657,7.9196004 4.5564324,7.9267195 4.4764825,8.0487389 c -0.06444,0.09835 -0.080398,0.201357 -0.063241,0.408238 0.01983,0.239127 0.049555,0.304072 0.2189004,0.478269 0.1077747,0.110863 0.3536399,0.280584 0.5463674,0.377159 l 0.3504137,0.17559 -0.2187983,-0.02476 c -0.2000071,-0.02264 -0.2356107,-0.0086 -0.4145564,0.163336 -0.3255268,0.312795 -0.1566754,0.4547611 0.540881,0.4547611 0.2356396,0 0.5668472,0.03612 0.7360163,0.08027 0.3972783,0.103674 1.0008674,0.0763 1.2003999,-0.05444 0.1690766,-0.1107831 0.5347542,-0.6345061 0.5316671,-0.7614521 -0.0012,-0.04969 -0.032344,-0.174828 -0.06919,-0.278075 -0.09031,-0.25306 -0.046324,-0.238812 0.063889,0.02069 l 0.088515,0.208417 0.136809,-0.233447 c 0.075244,-0.128395 0.1712576,-0.233446 0.2133623,-0.233446 0.068206,0 0.068328,0.0082 0.00111,0.07544 -0.041489,0.04149 -0.1818009,0.277171 -0.3118014,0.523732 -0.4185596,0.7938431 -0.7043159,0.9887741 -1.3669296,0.9324581 -0.181736,-0.01545 -0.5815454,-0.0421 -0.8884658,-0.05924 L 5.2137947,10.271079 5.1805817,10.4223 c -0.03461,0.157579 0.010521,0.507916 0.066073,0.512892 0.017585,0.0015 0.2572387,0.01159 0.5325637,0.02225 0.5291541,0.02049 1.2682636,0.136167 1.4145553,0.22139 0.078323,0.04563 0.076145,0.05096 -0.021359,0.05233 -0.059717,8.12e-4 -0.1762007,0.04033 -0.2588528,0.08777 -0.1422659,0.08165 -0.1599578,0.08163 -0.3318642,-3.5e-4 -0.2588421,-0.123433 -0.426563,-0.07167 -0.428628,0.132277 -8.775e-4,0.08649 -0.034665,0.200992 -0.075089,0.254436 -0.1135765,0.150162 -0.089824,0.345929 0.058518,0.482297 0.0958,0.08807 0.138463,0.10323 0.1555197,0.05528 0.016845,-0.04736 0.044067,-0.03673 0.096089,0.03754 0.1178591,0.168268 0.1670431,0.120297 0.1375409,-0.134151 l -0.02757,-0.237783 0.099854,0.209814 c 0.071944,0.15117 0.1603713,0.240199 0.3163669,0.318519 0.4120354,0.206869 0.5253872,0.398297 0.3879314,0.655137 -0.049152,0.09184 -0.044577,0.09565 0.052455,0.04372 0.058467,-0.03129 0.1277518,-0.113305 0.1539667,-0.182255 z M 6.3550821,8.8148489 c -3.004e-4,-0.155692 0.1485429,-0.386053 0.3151125,-0.487616 0.3493689,-0.213023 0.7618608,-0.031045 0.5070996,0.223716 -0.1107473,0.110748 -0.2757445,0.099229 -0.3073038,-0.021453 -0.0144,-0.05506 -0.041068,-0.100119 -0.059264,-0.100119 -0.075845,0 -0.2707381,0.172629 -0.3598147,0.318712 -0.067498,0.110694 -0.095697,0.130339 -0.09583,0.06676 z M 8.829077,8.6739479 c -0.025474,-0.04303 -0.091369,-0.103718 -0.1464343,-0.134855 -0.09305,-0.05262 -0.090289,-0.05672 0.039115,-0.05813 0.139037,-0.0015 0.2145332,0.08854 0.174615,0.208292 -0.015282,0.04584 -0.03356,0.04169 -0.067296,-0.0153 z M 7.6063722,8.4158329 c 0,-0.04172 -0.03379,-0.08883 -0.075089,-0.104677 -0.041299,-0.01585 -0.075089,-0.07378 -0.075089,-0.128742 0,-0.116329 -0.1577046,-0.216747 -0.2716987,-0.1730039 -0.043293,0.016613 -0.078715,0.00706 -0.078715,-0.021231 0,-0.02829 0.069423,-0.066685 0.1542742,-0.085321 0.1212226,-0.026626 0.1802077,-0.00952 0.275325,0.079837 0.066578,0.062547 0.1210508,0.08911 0.1210508,0.05903 0,-0.218258 -0.2325694,-0.3632336 -0.5826993,-0.3632336 -0.2397525,0 -0.5994931,0.1773879 -1.1393349,0.5618036 -0.1073782,0.07646 -0.2312745,0.137596 -0.275325,0.13585 -0.058027,-0.0023 -0.052031,-0.01455 0.021763,-0.04446 0.056021,-0.02271 0.1338255,-0.07981 0.1728996,-0.126888 0.1182059,-0.1424281 0.8007772,-0.5714349 0.9950305,-0.6253916 0.2662097,-0.073944 0.4006675,-0.063183 0.6364022,0.050935 0.2459298,0.1190525 0.3486431,0.3129639 0.3008151,0.5679068 -0.034385,0.183286 -0.1796095,0.359217 -0.1796095,0.217586 z m 0.017275,-1.6155351 c -0.045054,-0.1174072 0.00358,-0.1311929 0.072648,-0.020594 0.038673,0.061926 0.041996,0.097842 0.00905,0.097842 -0.02863,0 -0.065394,-0.034762 -0.081697,-0.077248 z M 7.9284904,6.644674 C 7.8726265,6.593792 7.8505079,6.5658029 7.8793379,6.5824756 8.0943652,6.7068284 8.5366098,6.6341316 8.7140373,6.4452661 8.8305082,6.3212873 8.8309287,6.3174438 8.7356488,6.2477725 8.5937843,6.144037 8.5074359,6.1607162 8.5074359,6.291854 c 0,0.1522267 -0.089722,0.2352778 -0.2541781,0.2352778 -0.1815328,0 -0.2661997,-0.1138174 -0.2277343,-0.3061429 C 8.0554725,6.0712441 8.0509105,6.066116 7.9066081,6.0872955 7.764182,6.1081995 7.7060759,6.0636445 7.8000333,6.0055755 c 0.023916,-0.014781 0.057364,-0.1136797 0.07433,-0.219775 0.044932,-0.2809896 0.1740744,-0.3785123 0.442224,-0.3339476 0.1951574,0.032433 0.4912033,0.1497638 0.4912033,0.1946753 0,0.00984 -0.093745,-0.014409 -0.2083229,-0.053884 C 8.4848897,5.5531685 8.3103087,5.5276449 8.2115095,5.5359251 8.0447207,5.5499027 8.0307952,5.5638692 8.0167837,5.7312247 L 8.0016927,5.91147 8.3421676,5.940221 c 0.4834908,0.040828 0.6157999,0.1002558 0.6157999,0.276591 0,0.2394301 -0.2704076,0.4331538 -0.6805599,0.4875626 C 8.0762777,6.7310555 8.0110837,6.7199007 7.9284904,6.644674 Z M 7.1867969,5.9163963 C 7.2029935,5.8255471 7.2590096,5.6901277 7.3112764,5.6154646 7.363543,5.5408014 7.4486605,5.371852 7.5004256,5.2400214 7.5678377,5.0683447 7.6233828,4.9987776 7.6961717,4.994861 7.7520657,4.991851 7.8335704,4.975666 7.877292,4.958888 7.925784,4.94028 7.956786,4.954808 7.956786,4.996144 c 0,0.076182 -0.2104599,0.2294523 -0.315066,0.2294523 -0.063006,0 -0.187271,0.2351867 -0.3378002,0.6393278 -0.083074,0.2230362 -0.1532047,0.2538575 -0.1171229,0.051472 z M 9.85984,5.7020173 C 9.79562,5.6336591 9.7015877,5.5645615 9.6508772,5.5484665 c -0.05071,-0.016095 -0.0922,-0.067786 -0.0922,-0.1148696 0,-0.1182736 -0.1405449,-0.3081197 -0.2281043,-0.3081197 -0.084164,0 -0.095638,0.1822641 -0.02343,0.3721843 0.062493,0.1643696 5.907e-4,0.1635195 -0.1969545,-0.00271 C 8.9182273,5.3334347 8.8077904,5.1277268 8.8077904,4.9316919 V 4.7829929 L 9.0357049,4.9041764 C 9.1610585,4.9708274 9.3171096,5.02536 9.3824853,5.02536 c 0.1167934,0 0.3263686,0.2055461 0.3263686,0.3200933 0,0.030963 0.045053,0.084433 0.1001179,0.1188213 0.055063,0.034388 0.1001187,0.088718 0.1001187,0.1207325 0,0.032015 0.037278,0.099403 0.082847,0.1497533 0.1267715,0.1400809 9.75e-4,0.1088985 -0.1320978,-0.032742 z m -5.4409103,1.735004 c 0.4484008,-0.1634865 0.970516,-0.5304656 1.0099125,-0.7098369 0.017824,-0.081152 0.018146,-0.1706269 7.159e-4,-0.1988312 -0.043988,-0.071174 0.031462,-0.064085 0.238462,0.022405 0.1552678,0.064875 0.1836673,0.064875 0.2375088,0 0.050979,-0.061427 0.040978,-0.073686 -0.060111,-0.073686 -0.1436556,0 -0.2414075,-0.085134 -0.2414075,-0.2102482 0,-0.097316 -0.074934,-0.1212947 -0.1251477,-0.040047 -0.017015,0.027532 -0.052135,0.050059 -0.078042,0.050059 -0.077448,0 -0.053527,-0.1285113 0.04793,-0.2574925 0.08307,-0.1056066 0.086221,-0.1328698 0.02503,-0.2165546 C 5.3308065,5.6072621 5.4005329,5.2421621 5.6276489,4.9970998 5.7766493,4.836326 5.7843644,4.6111817 5.6417997,4.5841469 5.5937524,4.5750356 5.4333871,4.6027724 5.2854315,4.6457841 4.8474454,4.7731097 4.4115719,5.2760124 4.2038052,5.8937431 4.144717,6.0694235 3.9823618,6.3606257 3.8258991,6.5715602 3.675028,6.7749568 3.5515872,6.9895786 3.5515872,7.0484977 c 0,0.1505307 -0.1375393,0.3296386 -0.2531337,0.3296386 -0.1210269,0 -0.1261044,0.077716 -0.00968,0.1481069 0.1366808,0.082634 0.803096,0.030023 1.1301541,-0.089222 z M 5.7245833,6.8650307 C 5.8216504,6.7184736 5.8290547,6.7275969 5.5966148,6.7073445 5.5313645,6.701657 5.3567917,7.1883989 5.3560298,7.3781363 5.3556293,7.4812265 5.3800148,7.4591693 5.4944672,7.2529886 5.5708844,7.1153261 5.6744367,6.940745 5.7245833,6.8650307 Z M 13.051257,6.6566927 C 13.537431,6.4073684 14.07029,5.7152143 14.268609,5.0754181 14.394331,4.6698283 14.444331,3.8979381 14.370753,3.4985567 14.295589,3.0905721 13.970414,2.4486918 13.691648,2.1580383 13.027175,1.4652265 12.191085,1.18656 11.03542,1.2727252 10.577924,1.3068356 10.517733,1.327491 9.8850218,1.6674967 9.6456,1.7961566 9.5509462,1.8218779 9.4124857,1.7959028 9.2562623,1.7665951 9.2459827,1.7714205 9.3072895,1.8452914 c 0.1938393,0.2335617 0.574947,0.2946348 1.1972615,0.1918615 0.38111,-0.062939 0.53529,-0.06694 0.812894,-0.021094 0.750201,0.1238927 1.181068,0.436716 1.506733,1.0939363 0.202139,0.4079336 0.21351,0.4541166 0.21184,0.8603497 -0.0023,0.5555376 -0.169439,0.8951795 -0.533884,1.0847999 C 12.103863,5.2623653 11.796125,5.0800971 10.992531,4.1610312 10.199534,3.2540861 10.040573,3.103184 9.7338838,2.9661983 9.5400313,2.879612 9.3876344,2.8540108 9.0580859,2.8526707 8.5480989,2.8505989 8.2849923,2.9515645 7.8646901,3.3106399 7.6846932,3.4644159 7.5501553,3.5418538 7.479152,3.5325493 7.4176198,3.524486 7.3015894,3.5758975 7.2129068,3.6505196 7.0905653,3.7534631 7.0557221,3.8225337 7.0557221,3.9621114 c 0,0.1731904 -0.1126509,0.3624203 -0.2157536,0.3624203 -0.027532,0 -0.010928,-0.04324 0.036899,-0.096087 0.047827,-0.052849 0.082614,-0.1485863 0.077306,-0.2127515 C 6.9349587,3.783439 6.9580897,3.7136356 7.1019304,3.5697948 7.2792953,3.3924294 7.2677261,3.3902223 6.9664545,3.5439478 6.6396773,3.7106876 6.4383266,3.9335797 6.4383266,4.1285764 c 0,0.1224055 0.051001,0.2034196 0.2336087,0.3710826 0.1284855,0.1179692 0.2336096,0.2385475 0.2336096,0.2679507 0,0.029404 -0.057212,0.1065118 -0.127139,0.1713513 -0.1230583,0.1141062 -0.1304781,0.2866344 -0.012327,0.2866344 0.027532,0 0.036613,-0.035041 0.020178,-0.077868 C 6.7472806,5.046155 6.9546744,4.8391898 7.1390145,4.7956984 7.5492668,4.6989077 7.7064904,4.4738359 7.7064904,3.9833345 c 0,-0.1519088 0.014406,-0.2617921 0.032013,-0.2441853 0.017607,0.017607 0.1539932,-0.07947 0.3030807,-0.2157271 0.3147877,-0.2876982 0.5526034,-0.3691388 0.9955622,-0.3409335 0.4498606,0.028645 0.8963051,0.2646184 1.2928227,0.6833361 0.173731,0.1834576 0.489774,0.5172091 0.702319,0.7416695 0.239243,0.2526572 0.4948,0.465863 0.67091,0.5597287 0.156456,0.083391 0.338944,0.2096079 0.405528,0.2804831 l 0.121061,0.1288641 0.118629,-0.1114455 c 0.08348,-0.078428 0.167969,-0.1071945 0.285174,-0.097097 0.154476,0.013309 0.168924,0.00167 0.199354,-0.1605315 0.02701,-0.1439824 0.06013,-0.180882 0.187473,-0.2088501 0.151066,-0.03318 0.153949,-0.039201 0.123868,-0.2586643 -0.0261,-0.1904308 -0.01459,-0.2378182 0.07549,-0.3107608 0.0999,-0.080891 0.101657,-0.094906 0.02928,-0.2330371 -0.06988,-0.1333834 -0.06935,-0.1599223 0.0058,-0.2870679 0.07867,-0.1331662 0.07729,-0.1495961 -0.02776,-0.3321165 -0.09159,-0.1591133 -0.102214,-0.2208913 -0.062,-0.360497 0.04309,-0.1496312 0.03496,-0.1784012 -0.07271,-0.2571877 -0.07646,-0.055945 -0.133499,-0.1613059 -0.154442,-0.2852662 -0.02789,-0.1650744 -0.05922,-0.2051427 -0.195644,-0.2501648 -0.108976,-0.035966 -0.189779,-0.110949 -0.24552,-0.2278394 -0.07368,-0.154508 -0.104966,-0.1742312 -0.276372,-0.1742312 -0.129713,0 -0.22309,-0.03293 -0.283894,-0.1001182 -0.06548,-0.072328 -0.154484,-0.1002034 -0.320658,-0.1004262 -0.126512,-1.502e-4 -0.295314,-0.034359 -0.375116,-0.075976 -0.129807,-0.067694 -0.157511,-0.067532 -0.262923,0.00154 -0.105339,0.069022 -0.133304,0.069201 -0.263862,0.00169 -0.12981,-0.067127 -0.169597,-0.067203 -0.35811,-6.907e-4 -0.25463,0.089838 -0.295506,0.069497 -0.126883,-0.063141 0.178781,-0.1406295 0.81568,-0.2430194 1.043654,-0.1677816 0.09649,0.031844 0.264254,0.043422 0.374275,0.025829 0.137896,-0.022051 0.247288,-0.00713 0.354645,0.048393 0.08538,0.044153 0.245888,0.080279 0.356679,0.080279 0.173189,0 0.212328,0.02106 0.279096,0.1501773 0.06359,0.1229662 0.109044,0.1501773 0.250871,0.1501773 0.14639,0 0.193567,0.030759 0.304664,0.198639 0.0723,0.1092509 0.171556,0.211367 0.220572,0.2269238 0.09057,0.028746 0.148067,0.1655009 0.149303,0.3551093 4.01e-4,0.057681 0.04649,0.1463297 0.102478,0.1969975 0.0829,0.075024 0.0961,0.1301026 0.07111,0.2967523 -0.02515,0.167761 -0.01193,0.2216031 0.07341,0.2988372 0.12916,0.116889 0.129492,0.1527213 0.0031,0.3302864 l -0.101045,0.1419015 0.111122,0.077833 0.111121,0.077833 -0.135755,0.1416972 -0.135754,0.1416973 0.125677,0.1180674 c 0.161918,0.1521141 0.158282,0.1856171 -0.0245,0.2257629 -0.177162,0.038912 -0.183466,0.069327 -0.04963,0.2394728 l 0.100547,0.1278263 -0.152037,0.033394 -0.152038,0.033393 0.10563,0.1709152 0.105633,0.1709153 h -0.154261 c -0.169965,0 -0.178073,0.012146 -0.10244,0.1534682 0.04666,0.087182 0.03432,0.096827 -0.123896,0.096827 -0.170053,0 -0.17471,0.00504 -0.144472,0.1562234 l 0.03121,0.1562234 -0.130554,-0.085542 C 12.96813,5.9685299 12.966508,5.9690959 12.935551,6.1097419 12.872481,6.3962937 12.858951,6.409717 12.781258,6.2628417 12.692928,6.09585 12.636907,6.1181303 12.591355,6.3383737 L 12.557485,6.5021074 12.447222,6.3524372 12.336957,6.202767 12.311927,6.4024963 12.286907,6.6022256 12.175118,6.4270188 c -0.06148,-0.096364 -0.11217,-0.1570239 -0.112633,-0.1348002 -8.12e-4,0.038889 0.08959,0.4479794 0.125751,0.5690789 0.02414,0.080827 0.549172,-0.043643 0.863031,-0.2045996 z M 6.1711716,6.2058905 c 0.014973,-0.03902 -0.00514,-0.083366 -0.044703,-0.098547 -0.04752,-0.018235 -0.071928,0.00584 -0.071928,0.070946 0,0.1139085 0.07656,0.1320264 0.116631,0.027601 z"
     id="path817"
     inkscape:connector-curvature="0" />
</svg>
