<svg height="16" viewBox="0 0 16 16" width="16" xmlns="http://www.w3.org/2000/svg">
  <path d="m8 .0000002a8 7.9999602 0 0 0 -8 7.9999998 8 7.9999602 0 0 0 8 8 8 7.9999602 0 0 0 8-8 8 7.9999602 0 0 0 -8-7.9999998m0 1.3333332a6.6666668 6.6666334 0 0 1 6.666667 6.6666666 6.6666668 6.6666334 0 0 1 -6.666667 6.666667 6.6666668 6.6666334 0 0 1 -6.6666666-6.666667 6.6666668 6.6666334 0 0 1 6.6666666-6.6666666m-3.2682292 2.4557295a5.3333334 5.3333334 0 0 0 -.940104.9453121l3.2656676 3.265625-3.268001 3.268a5.3333334 5.3333334 0 0 0 .9450414.940333l3.2656252-3.265666 3.268 3.268a5.3333334 5.3333334 0 0 0 .940333-.945042l-3.265666-3.265625 3.268-3.268a5.3333334 5.3333334 0 0 0 -.945042-.9403331l-3.265625 3.2656661z" fill="#ff453a"/>
</svg>
