<?xml version="1.0" encoding="UTF-8" standalone="no"?>
<svg
   xmlns:dc="http://purl.org/dc/elements/1.1/"
   xmlns:cc="http://creativecommons.org/ns#"
   xmlns:rdf="http://www.w3.org/1999/02/22-rdf-syntax-ns#"
   xmlns:svg="http://www.w3.org/2000/svg"
   xmlns="http://www.w3.org/2000/svg"
   xmlns:sodipodi="http://sodipodi.sourceforge.net/DTD/sodipodi-0.dtd"
   xmlns:inkscape="http://www.inkscape.org/namespaces/inkscape"
   width="16"
   height="16"
   version="1.1"
   id="svg6"
   sodipodi:docname="zoom-previous.svg"
   inkscape:version="0.92.4 (5da689c313, 2019-01-14)">
  <metadata
     id="metadata12">
    <rdf:RDF>
      <cc:Work
         rdf:about="">
        <dc:format>image/svg+xml</dc:format>
        <dc:type
           rdf:resource="http://purl.org/dc/dcmitype/StillImage" />
      </cc:Work>
    </rdf:RDF>
  </metadata>
  <defs
     id="defs10" />
  <sodipodi:namedview
     pagecolor="#ffffff"
     bordercolor="#666666"
     borderopacity="1"
     objecttolerance="10"
     gridtolerance="10"
     guidetolerance="10"
     inkscape:pageopacity="0"
     inkscape:pageshadow="2"
     inkscape:window-width="1836"
     inkscape:window-height="1013"
     id="namedview8"
     showgrid="false"
     inkscape:zoom="14.75"
     inkscape:cx="8"
     inkscape:cy="8"
     inkscape:window-x="0"
     inkscape:window-y="27"
     inkscape:window-maximized="0"
     inkscape:current-layer="svg6" />
  <path
     style="fill:#808080;stroke-width:1.33333337"
     class="ColorScheme-Text"
     d="m 9.414062,4.2291669 0.942709,0.942708 -1.265625,1.2656254 -1.5625003,1.5625 1.5625003,1.5625 1.265625,1.2656247 L 9.414062,11.770833 8.148437,10.505208 5.6432293,8.0000003 8.148437,5.4947923 Z"
     id="path2"
     inkscape:connector-curvature="0" />
  <path
     d="M 5.3253333,0 C 3.648,0.02 2.42,-0.04 1.416,0.5133333 A 2.5066667,2.5066667 0 0 0 0.3,1.844 C 0.08,2.4266667 0,3.124 0,4 V 6.6666667 H 1.3333333 V 4 c 0,-0.7893333 0.084,-1.3413333 0.2133334,-1.688 C 1.6773333,1.9653333 1.8146667,1.8173333 2.06,1.6826667 2.5466667,1.4133333 3.6533333,1.3533333 5.3333333,1.3333333 H 6.6666667 V 0 h -1.336 z M 9.333333,0 v 1.3333333 h 1.333334 c 1.677333,0.02 2.782666,0.08 3.270666,0.3493334 C 14.181333,1.816 14.324,1.9653333 14.453333,2.312 14.582667,2.6586667 14.666667,3.2106667 14.666667,4 V 6.6666667 H 16 V 4 C 16,3.1226667 15.92,2.428 15.7,1.844 A 2.5066667,2.5066667 0 0 0 14.582667,0.5133333 C 13.58,-0.0413333 12.352,0.02 10.674667,0 h -0.0053 z M 0,9.3333333 V 12 c 0,0.877333 0.08,1.572 0.3,2.156 0.2186667,0.585333 0.6146667,1.053333 1.116,1.330667 C 2.42,16.041333 3.648,15.98 5.3253333,16 H 6.6666667 V 14.666667 H 5.3333333 C 3.6546667,14.646667 2.5466667,14.586667 2.06,14.317333 1.8146667,14.184 1.6773333,14.034667 1.5466667,13.688 1.4173333,13.341333 1.3333333,12.789333 1.3333333,12 V 9.3333333 Z m 14.666667,0 V 12 c 0,0.789333 -0.084,1.341333 -0.213334,1.688 -0.130666,0.346667 -0.269333,0.494667 -0.513333,0.629333 -0.488,0.269334 -1.596,0.329334 -3.273333,0.349334 H 9.333333 V 16 h 1.341334 C 12.352,15.98 13.58,16.04 14.584,15.486667 A 2.5066667,2.5066667 0 0 0 15.7,14.156 C 15.92,13.572 16,12.876 16,12 V 9.3333333 Z"
     font-weight="400"
     overflow="visible"
     id="path4"
     inkscape:connector-curvature="0"
     style="color:#000000;font-weight:400;font-family:sans-serif;overflow:visible;fill:#808080;stroke-width:1.33333337" />
</svg>
