<svg fill="none" height="48" viewBox="0 0 48 48" width="48" xmlns="http://www.w3.org/2000/svg" xmlns:xlink="http://www.w3.org/1999/xlink">
  <linearGradient id="paint0_linear" gradientUnits="userSpaceOnUse" x1="47.0614" x2="1.71003" y1="7.64481" y2="24.6479">
    <stop offset="0" stop-color="#f0ea4d"/>
    <stop offset=".874098" stop-color="#fc429d"/>
  </linearGradient>
  <linearGradient id="paint1_linear" gradientUnits="userSpaceOnUse" x1=".935576" x2="46.9356" y1="8.99997" y2="44">
    <stop offset="0" stop-color="#2a2139"/>
    <stop offset="1" stop-color="#413260"/>
  </linearGradient>
  <linearGradient id="paint2_linear" gradientUnits="userSpaceOnUse" x1="24" x2="24" y1="20" y2="36">
    <stop offset="0" stop-color="#0fe4f5"/>
    <stop offset="1" stop-color="#eb36ae"/>
  </linearGradient>
  <path d="m9.7481 2.99997c-2.9004 0-5.051-.095-6.6562 1.11914-.8135.61532-1.3536 1.54216-1.6641 2.7168-.30929 1.16994-.4278 2.61376-.4278 4.48829v9.4062 3.2696 12.2695c0 1.9522.05299 3.4414.2676 4.6445.21541 1.2059.62221 2.1846 1.3868 2.8653.7626.6789 1.75271.9599 2.89451 1.0918 1.1408.1317 2.4963.1289 4.1992.1289h28.50389c1.6708 0 3.0101.002 4.1445-.1289 1.1353-.1319 2.1255-.4114 2.8946-1.086.7708-.6762 1.1929-1.653 1.4199-2.8613.2265-1.2056.2871-2.6992.2871-4.6543v-18.5391c0-.2582-.0121-.4261-.014-.6054v-.0117l.014-1.875c.0129-1.8103.0189-3.2512-.1152-4.4551-.134-1.20425-.4167-2.23039-1.0957-3.02735-.682-.80032-1.6746-1.24023-2.8907-1.4707-1.2123-.22969-2.7045-.28516-4.6465-.28516h-15.9023l-3-3z" fill="#000" opacity=".1"/>
  <path d="m9.7481 1.99997c-2.9004 0-5.051-.095-6.6562 1.11914-.8135.61532-1.3536 1.54216-1.6641 2.7168-.3093 1.16994-.4278 2.61376-.4278 4.48829v8.6758h46v-2.2696c0-.2582-.0121-.4261-.014-.6054v-.0117l.014-1.875c.0129-1.8103.0189-3.2512-.1152-4.45513-.134-1.20424-.4166-2.23038-1.0957-3.02734-.6819-.80032-1.6746-1.24023-2.8906-1.4707-1.2124-.22968-2.7045-.28516-4.6465-.28516h-15.9023l-3-3z" fill="url(#paint0_linear)"/>
  <path d="m38.2585 8.99997c2.9004 0 5.051-.095 6.6562 1.11913.8135.6153 1.3536 1.5422 1.6641 2.7168.3092 1.1699.4277 2.6138.4277 4.4883v9.4062 4.2696 4.2695c0 1.9522-.053 3.4414-.2676 4.6445-.2153 1.2059-.6221 2.1846-1.3867 2.8653-.7627.6789-1.7527.9599-2.8945 1.0918-1.1408.1317-2.4963.1289-4.1992.1289h-28.50402c-1.6707 0-3.0101.002-4.1445-.1289-1.1352-.1319-2.1255-.4114-2.8945-1.086-.7709-.6762-1.193-1.653-1.4199-2.8613-.22648-1.2056-.28711-2.6992-.28711-4.6543v-11.5391c0-.2582.0121-.4261.01399-.6054v-.0117l-.01399-1.875c-.012851-1.8103-.018897-3.2512.11521-4.4551.13399-1.2043.4166-2.2304 1.0957-3.0274.6819-.8003 1.6746-1.2402 2.8906-1.4707 1.2125-.2297 2.50718-.2929 4.6466-.2851h9.90232l3-3.00003z" fill="url(#paint1_linear)"/>
  <path d="m46.9356 31-12 12h4.6886c6.6316 0 7.3114-.6795 7.3114-7.2979z" fill="#fff" opacity=".05"/>
  <path d="m1.00009 34.2695v1c0 1.9523.05299 3.4414.26749 4.6446.21541 1.2058.6222 2.1845 1.3868 2.8652.7626.679 1.7527.9599 2.8945 1.0918 1.1408.1318 2.4963.1289 4.1992.1289h28.50392c1.6708 0 3.0101.002 4.1445-.1289 1.1353-.1319 2.1255-.4113 2.8946-1.0859.7708-.6763 1.1929-1.653 1.4199-2.8614.2265-1.2056.2871-2.6992.2871-4.6543v-1c0 1.9551-.061 3.4487-.2871 4.6543-.227 1.2084-.6491 2.1851-1.4199 2.8614-.7691.6746-1.7593.954-2.8946 1.0859-1.1344.1309-2.4737.1289-4.1445.1289h-28.50392c-1.7029 0-3.0584.003-4.1992-.1289-1.1418-.1319-2.1319-.4128-2.8945-1.0918-.7646-.6807-1.1714-1.6594-1.3868-2.8652-.21469-1.2032-.2676-2.6923-.26749-4.6446z" fill="#000" opacity=".2"/>
  <path d="m22.6563 8.99997-3 3.00003h-9.68755c-2.23437 0-3.64886.0555-4.86126.2851-1.216.2305-2.2087.6704-2.8906 1.4707-.6791.797-.9618 1.8231-1.0957 3.0274-.07299.6551-.10179 1.4-.11332 2.2168h.03901c.01701-.4234.03402-.8506.07401-1.2168.13399-1.2043.4166-2.2304 1.09569-3.0274.68191-.8003 1.67461-1.2402 2.8906-1.4707 1.2124-.2297 2.92039-.2851 4.90842-.3007l9.6404.0156 3-3.00003h15.6016c2.9004 0 5.051-.095 6.6562 1.11913.8135.6153 1.3536 1.5422 1.6641 2.7168.3092 1.17.4277 2.6138.4277 4.4883v-1c0-1.8745-.1185-3.3183-.4277-4.4883-.3105-1.1746-.8506-2.1015-1.6641-2.7168-1.6052-1.21417-3.7558-1.11913-6.6562-1.11913z" fill="#fff" opacity=".2"/>
  <path d="m22.6563 7.99997-3 3.00003h-9.90231c-2.33211.0078-3.4341.0555-4.6465.2851-1.216.2305-2.2087.6704-2.8906 1.4707-.6791.797-.9618 1.8231-1.0957 3.0274-.07299.6551-.10179 1.4-.11332 2.2168h.03901c.01701-.4234.03402-.8506.07401-1.2168.13399-1.2043.4166-2.2304 1.09569-3.0274.68191-.8003 1.67461-1.2402 2.8906-1.4707 1.2124-.2297 2.4397-.2929 4.6465-.2851h9.90232l3-3.00003h15.6016c2.9004 0 5.051-.095 6.6562 1.11913.8135.6153 1.3536 1.5422 1.6641 2.7168.3092 1.17.4277 2.6138.4277 4.4883v-1c0-1.8745-.1185-3.3183-.4277-4.4883-.3105-1.1746-.8506-2.10147-1.6641-2.71679-1.6052-1.21418-3.7558-1.11914-6.6562-1.11914z" fill="#472806" opacity=".1"/>
  <path d="m9.7481 1.99997c-2.9004 0-5.051-.095-6.6562 1.11914-.8135.61532-1.3536 1.54216-1.6641 2.7168-.30929 1.16994-.4278 2.61376-.4278 4.48829v1c0-1.87453.11849-3.31835.4278-4.48829.3105-1.17464.8505-2.10148 1.6641-2.7168 1.6052-1.21418 3.7558-1.11914 6.6562-1.11914h9.6016l3 3h15.9023c1.942 0 3.4341.0555 4.6465.28516 1.216.23047 2.2087.67039 2.8906 1.4707.6791.79696.9617 1.8231 1.0957 3.02737.067.6019.1 1.263.1133 2 0-1.128-.0189-2.1528-.1133-3.00003-.134-1.20424-.4166-2.23038-1.0957-3.02734-.6819-.80031-1.6746-1.24023-2.8906-1.4707-1.2124-.22968-2.7045-.28516-4.6465-.28516h-15.9023l-3-3zm37.2441 14.36723-.0098.746v.0118c0 .1793.014.3472.014.6054v-1c0-.1549 0-.2514-.0099-.3633z" fill="#fff" opacity=".2"/>
  <path d="m22.5447 20c-.5369 0-1.0728.1218-1.5588.3373-.3013.1337-.8089.472-1.0752.717-.2841.2611-.6515.7492-.8287 1.1019-.6482 1.2892-.5716 2.7475.2087 3.9751l.1359.2135.3178-.3158c.8716-.8626 1.9832-1.4421 3.1894-1.6626.5239-.0953 1.2983-.1128 1.8352-.0414.5019.0667 1.159.2365 1.5016.3886l.2151.0955.0299-.1427c.0168-.0785.0292-.4219.0272-.7626-.0037-.6806-.0546-.9452-.2853-1.5011-.3724-.8967-1.2304-1.7422-2.1493-2.1168-.489-.1994-1.0267-.2859-1.5635-.2859zm-5.2166 1.8426c-.4941.0231-.9794.2314-1.3527.6052-.6163.6174-.7863 1.5149-.4353 2.2989.0357.0799.0716.1447.0797.1447.0079 0 .1313-.0584.2743-.1306.5413-.273 1.2944-.45 1.916-.45l.3525-.0005.0047-.4159c.0056-.4862.0894-.9729.2423-1.4057.1236-.3505.1309-.3341-.2051-.483-.2802-.1243-.58-.177-.8764-.1631zm9.6999 1.4103.0246.4422c.0222.3909-.01.8469-.087 1.2336-.018.0903.0104.1198.2816.2921.7557.48 1.5093 1.2534 1.9155 1.9653.0696.1221.144.2142.1652.205.6791-.2939 1.1347-.4309 1.5724-.4715l.2622-.0246v-.1254c0-.2479-.1942-.893-.3855-1.2792-.5368-1.0848-1.564-1.888-2.7194-2.1268-.1674-.0347-.4678-.0733-.6672-.0866zm-8.9562 1.5221c-.2881-.0169-.8919.0576-1.3091.1788-2.2829.6632-3.6085 3.042-2.9623 5.3163.2102.7397.6725 1.4949 1.2236 1.9993.1524.1393.281.2533.2864.2533.0056 0 .0695-.0929.1421-.2066.4631-.7259 1.3129-1.188 2.185-1.188h.3326l.0005-.7453c.0008-.6166.0157-.821.0876-1.1806.1531-.7651.469-1.5507.8806-2.1897l.1689-.2612-.2156-.3315c-.3064-.4714-.4498-.8201-.6561-1.596-.0073-.0275-.0681-.0432-.1642-.0488zm6.2404.0073c-.5142-.0131-1.1692.0269-1.4943.1028-2.179.5081-3.795 2.1517-4.274 4.3465-.1024.4691-.1024 1.736 0 2.2054.4989 2.2864 2.25 3.9863 4.5253 4.3937.4142.0743 1.3776.0771 1.8157.0052 1.539-.2523 2.9528-1.1819 3.7937-2.4939.2237-.3488.5402-1.0409.6488-1.4188.2166-.7544.2777-1.7184.1573-2.4687-.206-1.2843-.8704-2.4803-1.8504-3.33-.8047-.6974-1.8387-1.1694-2.8721-1.3107-.1227-.0168-.2786-.0271-.45-.0315zm7.2914 2.5863c-.6287-.0113-1.2701.1172-1.8944.3871l-.1977.0854.1153.2754c.0636.1516.1639.4689.2235.7054.4859 1.9294.0327 3.9093-1.2446 5.4348-.307.3668-.3099.3302.0603.6645.6006.5423 1.4775.9431 2.2841 1.0443 1.3802.1728 2.7215-.3087 3.6751-1.3202.6144-.6513 1.0128-1.4606 1.1366-2.3098.0647-.4446.0277-1.2918-.074-1.6967-.2525-1.0063-.9298-1.971-1.7838-2.5407-.7047-.4702-1.492-.715-2.3004-.7295zm-18.3167.5717-.4018.0225c-.924.052-1.8001.4534-2.4839 1.1392-1.40783 1.4115-1.56445 3.6085-.3703 5.1972.6311.8401 1.5477 1.3854 2.6104 1.5535.3879.0613 1.1073.0182 1.5393-.0928.3513-.0901.9787-.3633 1.1586-.5046.0722-.0563.0702-.0665-.0682-.3624-.2461-.526-.3165-1.0986-.2008-1.6338.0529-.2445.052-.2541-.0299-.3225-.9512-.7951-1.4644-1.5843-1.7529-2.6959-.1553-.5977-.1658-1.6128-.023-2.2071zm23.3025 3.4265c-.0595-.0003-.1114.0027-.1526.0105l-.1358.0257v.3052c0 1.0642-.3871 2.153-1.0653 2.9954-.1393.173-.2017.2803-.182.3147.1091.1893.6584.5223 1.0259.6215.2708.0731.8095.0731 1.0889 0 .7424-.1937 1.4148-.894 1.5677-1.6322.0662-.3188.0302-.9092-.0724-1.1938-.228-.6326-.8054-1.1763-1.4355-1.3511-.2153-.0593-.4604-.0949-.6389-.0959zm-18.8984.2344c-.0753-.0002-.155.0041-.2334.0136-1.118.1367-1.939 1.0378-1.9406 2.13-.001.6412.1864 1.0991.6352 1.5493.2905.291.6096.4839.9525.5765.2762.0744.8132.0754 1.0946.0021.3286-.0859.713-.302.9493-.5334.2225-.2181.5021-.621.4998-.7207-.0008-.0339-.1059-.1838-.2344-.333-.499-.5792-.8939-1.2837-1.1539-2.0586-.0849-.2528-.1545-.488-.1547-.5229-.0005-.0609-.1883-.1021-.4144-.1028z" fill="url(#paint2_linear)"/>
</svg>
