<svg height="48" viewBox="0 0 12.699375 12.699375" width="48" xmlns="http://www.w3.org/2000/svg" xmlns:xlink="http://www.w3.org/1999/xlink"><linearGradient id="a" gradientUnits="userSpaceOnUse" x1=".247533" x2="12.417767" y1="2.381128" y2="11.641089"><stop offset="0" stop-color="#666"/><stop offset="1" stop-color="#7a7a7a"/></linearGradient><linearGradient id="b" gradientUnits="userSpaceOnUse" x1=".247533" x2="12.417767" y1="11.905659" y2=".529136"><stop offset="0" stop-color="#2c001e"/><stop offset=".10864977" stop-color="#2c001e"/><stop offset=".18689813" stop-color="#370626"/><stop offset=".2980746" stop-color="#55163b"/><stop offset=".37246177" stop-color="#772953"/><stop offset=".44700962" stop-color="#7c2b51"/><stop offset=".52428877" stop-color="#8b314b"/><stop offset=".59614229" stop-color="#8b314b"/><stop offset=".66876179" stop-color="#a33a41"/><stop offset=".79755175" stop-color="#c44732"/><stop offset=".91251218" stop-color="#e65524"/><stop offset="1" stop-color="#e65524"/></linearGradient><path d="m2.579058.79370543c-.7673598 0-1.3363447-.0251342-1.76103305.29609117-.21522795.1627954-.35812238.4080098-.44027146.7187847-.0818316.3095313-.11318318.6915233-.11318318 1.1874656v2.4886144.8650206 3.2461533c0 .5164998.0140222.9104848.070799 1.2288048.0569884.319035.16461564.577967.36690611.758058.20176132.17963.46371248.253966.76579888.288855.3018218.03486.6604469.03411 1.1109837.03411h7.541286c.442044 0 .796383.000529 1.096512-.03411.300367-.03489.562344-.108823.765825-.287305.203931-.178908.315606-.437335.375664-.757023.05992-.318974.07596-.714131.07596-1.2313898v-4.9048848c0-.068328-.0032-.1127361-.0037-.1601894v-.0031l.0037-.4960693c.0034-.4789279.005-.8601498-.03048-1.1786818-.03545-.3186017-.110247-.5900879-.28989-.8009398-.180437-.2117409-.44305-.3281281-.764794-.3891036-.320738-.0607691-.71553-.0754449-1.229326-.0754449h-4.2072769l-.793711-.79371088z" opacity=".1"/><path d="m2.579058.52913513c-.7673598 0-1.3363447-.0251342-1.76103305.2960912-.21522795.16279541-.35812238.40800977-.44027146.71878457-.0818316.3095314-.11318318.6915233-.11318318 1.1874657v2.2953537h12.17023469v-.6004503c0-.068328-.0032-.112736-.0037-.1601893v-.0031l.0037-.4960694c.0034-.4789278.005-.8601497-.03048-1.1786818-.035451-.3186016-.110218-.5900878-.289888-.8009397-.18041-.211741-.443049-.3281281-.764767-.3891036-.320765-.0607665-.71553-.0754449-1.229326-.0754449h-4.2072768l-.7937109-.79371088z" fill="url(#b)"/><path d="m6.0686081 2.3811273-.7942401.7937108h-2.69531c-1.80246476 0-2.04989092-.0000555-2.04989092 2.0452529v.2645703c0-2.0453084.24742616-2.0452529 2.04989092-2.0452529h2.69531l.7942401-.7937108h4.0517359c1.768362 0 2.049918-.0000556 2.049918 2.0452528v-.2645704c0-2.0453083-.281556-2.0452527-2.049918-2.0452527z" fill="#fff" opacity=".3"/><path d="m10.122064 2.3811273c.76736 0 1.336345-.025134 1.761033.2960912.215228.1627954.358122.4080098.440271.7187845.08181.3095314.113157.6915233.113157 1.1874657v2.4886145 1.1295909 1.1295908c0 .5164995-.01402.9104871-.0708 1.2288051-.05696.319035-.164589.577967-.36688.758057-.201787.17963-.463712.253967-.765798.288855-.301822.03486-.660447.03411-1.110984.03411h-7.5413118c-.4420176 0-.7963831.000529-1.0965117-.03411-.3003402-.034888-.56234425-.108823-.76579882-.287304-.20395725-.178908-.31563238-.437335-.37566339-.757023-.05992517-.318974-.07595813-.7141313-.07595813-1.2313901v-3.0528927c0-.068328.003175-.112736.003704-.1601894v-.0031l-.003704-.4960648c-.00343942-.4789278-.00502684-.8601498.0304785-1.1786819.03545242-.3186061.11021999-.5900923.28988969-.8009443.1804105-.2117409.44304945-.328128.76476705-.3891035.3207915-.0607665.7181496-.1270704 1.2293524-.0754449h2.6198546l.7937109-.7937108z" fill="url(#a)"/><path d="m12.417767 8.2016741-3.1748443 3.1748439h1.2404653c1.754524 0 1.934379-.179781 1.934379-1.9307973z" fill="#fff" opacity=".05"/><path d="m.26459677 9.0666946v.2645703c0 .5164995.0140222.9104841.0707726 1.2288051.0569884.319035.16461564.577967.36690611.758057.20176132.17963.46371242.253967.76579882.288855.3018218.03486.6604469.03411 1.1109837.03411h7.541286c.442044 0 .796383.000529 1.096512-.03411.300367-.03489.562344-.108823.765825-.287304.203931-.178908.315606-.437335.375664-.757023.05992-.318974.07596-.7141313.07596-1.2313901v-.2645703c0 .5172588-.01614.9124157-.07596 1.2313894-.06006.319689-.171733.578116-.375664.757023-.203481.178482-.465458.252416-.765825.287305-.300129.03463-.654468.03411-1.096512.03411h-7.541286c-.4505368 0-.8091619.000794-1.1109837-.03411-.3020864-.034889-.56403754-.109225-.76579886-.288855-.20229047-.18009-.30991767-.439023-.36690611-.758058-.05680325-.31832-.07079902-.7123049-.07077256-1.2288044z" opacity=".2"/><path d="m5.9941845 2.3811273-.793711.7937108h-2.6198546c-.5112027-.0516255-.9085609.0146837-1.2293259.0754449-.3217176.0609755-.58435658.1773653-.76476708.3891035-.1796697.210852-.25446372.4823382-.28988969.8009443-.01931363.1733306-.02693326.3704038-.02997581.5864995h.0103182c.00449773-.1120111.00899543-.2250382.01957824-.3219292.03545242-.3186061.11021999-.5900923.28988969-.8009442.1804105-.2117383.44304945-.3281281.76476705-.3891036.320765-.0607665.7181232-.1270705 1.2293259-.0754449h2.6198547l.7937109-.7937108h4.1277199c.767361 0 1.336346-.025134 1.761034.2960912.215228.1627954.358122.4080097.440271.7187845.0818.3095314.113157.6915233.113157 1.1874657v-.2645703c0-.4959424-.03135-.8779343-.113157-1.1874657-.082149-.3107747-.225043-.5559891-.440271-.7187845-.424688-.321236-.993673-.2960912-1.761034-.2960912z" fill="#fff" opacity=".2"/><path d="m5.9941845 2.116557-.793711.7937109h-2.6198546c-.5112027-.0516256-.9085609.0146837-1.2293259.0754449-.3217176.0609755-.58435658.1773653-.76476708.3891034-.1796697.210852-.25446372.4823382-.28988969.8009443-.01931363.1733306-.02693326.3704037-.02997581.5864995h.0103182c.00449773-.1120111.00899543-.2250382.01957824-.3219292.03545242-.3186061.11021999-.5900923.28988969-.8009443.1804105-.2117382.44304945-.328128.76476705-.3891035.320765-.0607665.7181232-.1270704 1.2293259-.0754449h2.6198547l.7937109-.7937108h4.1277199c.767361 0 1.336346-.025134 1.761034.2960912.215228.1627954.358122.4080098.440271.7187845.0818.3095314.113157.6915233.113157 1.1874657v-.2645704c0-.4959423-.03135-.8779342-.113157-1.1874655-.082149-.3107749-.225043-.5559892-.440271-.7187846-.424688-.321236-.993673-.2960912-1.761034-.2960912z" fill="#732206" opacity=".1"/><path d="m2.579058.52913513c-.7673598 0-1.3363447-.0251342-1.76103305.2960912-.21522795.16279541-.35812238.40800977-.44027146.71878457-.0818316.3095314-.11318318.6915233-.11318318 1.1874657v.2645703c0-.4959423.0313516-.8779343.11318318-1.1874656.0821491-.3107749.22501705-.5559893.44027146-.7187847.42468835-.32123593.99367325-.29609117 1.76103305-.29609117h2.5402983l.7937109.79371087h4.2072768c.513796 0 .908561.014684 1.229326.075445.321718.060975.584357.1773653.764767.3891036.17967.2108519.254437.4823381.28989.8009443.01773.159266.02646.3341522.02998.5291405 0-.2984167-.005-.5695722-.02998-.7937109-.035453-.3186062-.11022-.5900924-.28989-.8009443-.18041-.2117383-.443049-.3281281-.764767-.3891036-.320765-.0607665-.71553-.0754449-1.229326-.0754449h-4.2072768l-.7937109-.79371087zm9.853684 3.80113177-.0026.1973933v.0031c0 .047453.0037.091861.0037.1601894v-.2645749c0-.040995 0-.066516-.0026-.096113z" fill="#fff" opacity=".2"/><g enable-background="new" opacity=".75" transform="matrix(.26457031 0 0 .26457031 -83.621256 -16.138858)"><path d="m80-348h16v16h-16z" fill="none" transform="rotate(90)"/><g fill="#fff"><path d="m343 96-.47852-.921875c-.51103-.985285-.88042-1.942066-1.12695-2.666016-.24655-.723952-.35422-1.146604-.38281-1.271484l-.01172-.056641v-10.083984s0-1 1-1h2s1 0 1 1v10.083984l-.0117.05664c-.0281.122106-.13628.547446-.38281 1.271484-.24654.724037-.6165 1.681418-1.12695 2.666016zm-.20898-3.042969h.41601c.13936-.314817.29412-.649389.37695-.892578.22512-.661198.41687-1.071131.41602-1.064453h-2c-.002-.0089.18894.403415.41406 1.064453.0829.24312.2376.577748.37696.892578zm-.79102-9.957031h2v-2h-2z"/><path d="m335 80v.5 14.5h5v-12-1-2zm1 1h3v1h-1v1h1v1h-1v1h1v1h-1v1h1v1h-1v1h1v1h-1v1h1v1h-1v1h1v1h-3z" opacity="1"/></g></g></svg>