<svg width="48" height="48" viewBox="0 0 48 48" fill="none" xmlns="http://www.w3.org/2000/svg">
    <g id="folder-yaru-private">
        <path id="ombra" opacity="0.1" d="M9.7481 2.99997C6.8477 2.99997 4.6971 2.90497 3.0919 4.11911C2.2784 4.73443 1.7383 5.66127 1.4278 6.83591C1.11851 8.00585 1 9.44967 1 11.3242V20.7304V24V36.2695C1 38.2217 1.05299 39.7109 1.2676 40.914C1.48301 42.1199 1.88981 43.0986 2.6544 43.7793C3.417 44.4582 4.40711 44.7392 5.54891 44.8711C6.68971 45.0028 8.04521 45 9.74811 45H38.252C39.9228 45 41.2621 45.002 42.3965 44.8711C43.5318 44.7392 44.522 44.4597 45.2911 43.7851C46.0619 43.1089 46.484 42.1321 46.711 40.9238C46.9375 39.7182 46.9981 38.2246 46.9981 36.2695V17.7304C46.9981 17.4722 46.986 17.3043 46.9841 17.125V17.1133L46.9981 15.2383C47.011 13.428 47.017 11.9871 46.8829 10.7832C46.7489 9.57895 46.4662 8.55281 45.7872 7.75585C45.1052 6.95553 44.1126 6.51562 42.8965 6.28515C41.6842 6.05546 40.192 5.99999 38.25 5.99999H22.3477L19.3477 2.99999L9.7481 2.99997Z" fill="black"/>
        <path id="secondario" d="M9.7481 1.99997C6.8477 1.99997 4.6971 1.90497 3.0919 3.11911C2.2784 3.73443 1.7383 4.66127 1.4278 5.83591C1.1185 7.00585 1 8.44967 1 10.3242V19H47V16.7304C47 16.4722 46.9879 16.3043 46.986 16.125V16.1133L47 14.2383C47.0129 12.428 47.0189 10.9871 46.8848 9.78317C46.7508 8.57893 46.4682 7.55279 45.7891 6.75583C45.1072 5.95551 44.1145 5.5156 42.8985 5.28513C41.6861 5.05545 40.194 4.99997 38.252 4.99997H22.3497L19.3497 1.99997L9.7481 1.99997Z" fill="url(#paint0_linear)"/>
        <path id="primario" d="M38.2585 8.99997C41.1589 8.99997 43.3095 8.90497 44.9147 10.1191C45.7282 10.7344 46.2683 11.6613 46.5788 12.8359C46.888 14.0058 47.0065 15.4497 47.0065 17.3242V26.7304V31V35.2695C47.0065 37.2217 46.9535 38.7109 46.7389 39.914C46.5236 41.1199 46.1168 42.0986 45.3522 42.7793C44.5895 43.4582 43.5995 43.7392 42.4577 43.8711C41.3169 44.0028 39.9614 44 38.2585 44H9.75449C8.08379 44 6.74439 44.002 5.60999 43.8711C4.47479 43.7392 3.48449 43.4597 2.71549 42.7851C1.94459 42.1089 1.52249 41.1321 1.29559 39.9238C1.06911 38.7182 1.00848 37.2246 1.00848 35.2695V23.7304C1.00848 23.4722 1.02058 23.3043 1.02247 23.125V23.1133L1.00848 21.2383C0.995633 19.428 0.989587 17.9871 1.12369 16.7832C1.25768 15.5789 1.54029 14.5528 2.21939 13.7558C2.90129 12.9555 3.89399 12.5156 5.10999 12.2851C6.32249 12.0554 7.61717 11.9922 9.75659 12H19.6589L22.6589 8.99997L38.2585 8.99997Z" fill="url(#paint1_linear)"/>
        <path id="effetto piega" opacity="0.05" d="M46.9356 31L34.9356 43H39.6242C46.2558 43 46.9356 42.3205 46.9356 35.7021V31Z" fill="white"/>
        <path id="contorno inferiore del primario" opacity="0.2" d="M1.00009 34.2695V35.2695C1.00009 37.2218 1.05308 38.7109 1.26758 39.9141C1.48299 41.1199 1.88978 42.0986 2.65438 42.7793C3.41698 43.4583 4.40708 43.7392 5.54888 43.8711C6.68968 44.0029 8.04518 44 9.74808 44H38.252C39.9228 44 41.2621 44.002 42.3965 43.8711C43.5318 43.7392 44.522 43.4598 45.2911 42.7852C46.0619 42.1089 46.484 41.1322 46.711 39.9238C46.9375 38.7182 46.9981 37.2246 46.9981 35.2695V34.2695C46.9981 36.2246 46.9371 37.7182 46.711 38.9238C46.484 40.1322 46.0619 41.1089 45.2911 41.7852C44.522 42.4598 43.5318 42.7392 42.3965 42.8711C41.2621 43.002 39.9228 43 38.252 43H9.74808C8.04518 43 6.68968 43.003 5.54888 42.8711C4.40708 42.7392 3.41698 42.4583 2.65438 41.7793C1.88978 41.0986 1.48298 40.1199 1.26758 38.9141C1.05289 37.7109 0.999978 36.2218 1.00009 34.2695Z" fill="black"/>
        <path id="contorno superiore del primario" opacity="0.2" d="M22.6563 8.99997L19.6563 12L9.96875 12C7.73438 12 6.31989 12.0555 5.10749 12.2851C3.89149 12.5156 2.89879 12.9555 2.21689 13.7558C1.53779 14.5528 1.25509 15.5789 1.12119 16.7832C1.0482 17.4383 1.0194 18.1832 1.00787 19H1.04688C1.06389 18.5766 1.0809 18.1494 1.12089 17.7832C1.25488 16.5789 1.53749 15.5528 2.21658 14.7558C2.89849 13.9555 3.89119 13.5156 5.10718 13.2851C6.31958 13.0554 8.02757 13 10.0156 12.9844L19.656 13L22.656 9.99997H38.2576C41.158 9.99997 43.3086 9.90497 44.9138 11.1191C45.7273 11.7344 46.2674 12.6613 46.5779 13.8359C46.8871 15.0059 47.0056 16.4497 47.0056 18.3242V17.3242C47.0056 15.4497 46.8871 14.0059 46.5779 12.8359C46.2674 11.6613 45.7273 10.7344 44.9138 10.1191C43.3086 8.90493 41.158 8.99997 38.2576 8.99997H22.6563Z" fill="white"/>
        <path id="ombra del primario" opacity="0.1" d="M22.6563 7.99997L19.6563 11H9.75399C7.42188 11.0078 6.31989 11.0555 5.10749 11.2851C3.89149 11.5156 2.89879 11.9555 2.21689 12.7558C1.53779 13.5528 1.25509 14.5789 1.12119 15.7832C1.0482 16.4383 1.0194 17.1832 1.00787 18H1.04688C1.06389 17.5766 1.0809 17.1494 1.12089 16.7832C1.25488 15.5789 1.53749 14.5528 2.21658 13.7558C2.89849 12.9555 3.89119 12.5156 5.10718 12.2851C6.31958 12.0554 7.54688 11.9922 9.75368 12H19.656L22.656 8.99997H38.2576C41.158 8.99997 43.3086 8.90497 44.9138 10.1191C45.7273 10.7344 46.2674 11.6613 46.5779 12.8359C46.8871 14.0059 47.0056 15.4497 47.0056 17.3242V16.3242C47.0056 14.4497 46.8871 13.0059 46.5779 11.8359C46.2674 10.6613 45.7273 9.73443 44.9138 9.11911C43.3086 7.90493 41.158 7.99997 38.2576 7.99997H22.6563Z" fill="#903906"/>
        <path id="contorno superiore del secondario" opacity="0.2" d="M9.7481 1.99997C6.8477 1.99997 4.6971 1.90497 3.0919 3.11911C2.2784 3.73443 1.7383 4.66127 1.4278 5.83591C1.11851 7.00585 1 8.44967 1 10.3242V11.3242C1 9.44967 1.11849 8.00585 1.4278 6.83591C1.7383 5.66127 2.2783 4.73443 3.0919 4.11911C4.6971 2.90493 6.8477 2.99997 9.7481 2.99997H19.3497L22.3497 5.99997H38.252C40.194 5.99997 41.6861 6.05547 42.8985 6.28513C44.1145 6.5156 45.1072 6.95552 45.7891 7.75583C46.4682 8.55279 46.7508 9.57893 46.8848 10.7832C46.9518 11.3851 46.9848 12.0462 46.9981 12.7832C46.9981 11.6552 46.9792 10.6304 46.8848 9.78317C46.7508 8.57893 46.4682 7.55279 45.7891 6.75583C45.1072 5.95552 44.1145 5.5156 42.8985 5.28513C41.6861 5.05545 40.194 4.99997 38.252 4.99997H22.3497L19.3497 1.99997L9.7481 1.99997ZM46.9922 16.3672L46.9824 17.1132V17.125C46.9824 17.3043 46.9964 17.4722 46.9964 17.7304V16.7304C46.9964 16.5755 46.9964 16.479 46.9865 16.3671L46.9922 16.3672Z" fill="white"/>
        <path id="privato" d="M15.1131 19C14.2805 19 13.6079 19.0769 13.0257 19.3069C12.4436 19.5369 11.9664 19.9635 11.6946 20.4819C11.1509 21.5182 11.2189 22.7258 11.2008 24.3722V29.6284C11.22 31.2748 11.1511 32.4824 11.6946 33.5187C11.9662 34.0371 12.4436 34.4637 13.0257 34.6937C13.6079 34.9236 14.2805 35 15.1131 35H20.0909C20.9235 35 21.5961 34.9237 22.1782 34.6937C22.7604 34.4639 23.2344 34.0371 23.5062 33.5187C23.9789 32.6179 23.981 31.5325 23.9874 30.1971L27.0998 30.1905L27.9997 29.3999L28.7997 30.1999L29.5996 29.3999L30.3996 30.1999L31.1995 29.3999L32.7994 30.9998L36.7992 27.0001L33.5994 23.8003L23.9874 23.8031C23.9874 22.4677 23.9714 21.3824 23.5062 20.4815C23.2346 19.9631 22.7572 19.5365 22.175 19.3065C21.5929 19.0764 20.9233 19 20.0907 19H15.1131ZM15.1131 20.6005H20.0909C20.8136 20.6005 21.3006 20.6841 21.5878 20.7974C21.8747 20.9109 21.9781 21.0109 22.0908 21.2255C22.3158 21.6547 22.3817 22.7365 22.4001 24.391V25.4034L32.9368 25.4005L34.5367 27.0004L32.7994 28.7379L31.1995 27.138L30.3996 27.938L29.5996 27.138L28.7997 27.938L28.0716 27.2097L26.4967 28.5909L22.4001 28.6004V29.6098C22.3826 31.2643 22.3154 32.3461 22.0908 32.7753C21.9788 32.9897 21.8749 33.0899 21.5878 33.2032C21.3004 33.3167 20.8136 33.4001 20.0909 33.4001H15.1131C14.3901 33.4001 13.9001 33.3167 13.613 33.2032C13.3261 33.0899 13.2256 32.9897 13.1132 32.7753C12.8888 32.3474 12.8195 31.2656 12.8007 29.6192V24.3816C12.8199 22.7352 12.8888 21.6534 13.1132 21.2255C13.2252 21.0109 13.3261 20.9108 13.613 20.7974C13.9004 20.6839 14.3901 20.6005 15.1131 20.6005ZM16.0005 25.4002C15.7901 25.3998 15.5818 25.4409 15.3874 25.5211C15.1929 25.6014 15.0162 25.7192 14.8673 25.8678C14.7185 26.0164 14.6004 26.1929 14.5198 26.3872C14.4392 26.5815 14.3977 26.7897 14.3977 27.0001C14.3977 27.2104 14.4392 27.4187 14.5198 27.613C14.6004 27.8073 14.7185 27.9838 14.8673 28.1324C15.0162 28.281 15.1929 28.3988 15.3874 28.479C15.5818 28.5592 15.7901 28.6003 16.0005 28.6C16.4243 28.5992 16.8305 28.4303 17.1299 28.1304C17.4294 27.8304 17.5975 27.4239 17.5975 27.0001C17.5975 26.5763 17.4294 26.1697 17.1299 25.8698C16.8305 25.5698 16.4243 25.4009 16.0005 25.4002Z" fill="#FAD9B9"/>
    </g>
    <defs>
        <linearGradient id="paint0_linear" x1="47.0614" y1="7.64481" x2="1.71003" y2="24.6479" gradientUnits="userSpaceOnUse">
            <stop stop-color="#EC7223"/>
            <stop offset="0.874098" stop-color="#ECB622"/>
        </linearGradient>
        <linearGradient id="paint1_linear" x1="0.93559" y1="8.99997" x2="46.9356" y2="44" gradientUnits="userSpaceOnUse">
            <stop stop-color="#F3994A"/>
            <stop offset="1" stop-color="#F6B069"/>
        </linearGradient>
    </defs>
</svg>
