<svg fill="none" height="48" viewBox="0 0 48 48" width="48" xmlns="http://www.w3.org/2000/svg" xmlns:xlink="http://www.w3.org/1999/xlink">
  <linearGradient id="paint0_linear" gradientUnits="userSpaceOnUse" x1="47.0614" x2="1.71003" y1="7.64481" y2="24.6479">
    <stop offset="0" stop-color="#f0ea4d"/>
    <stop offset=".874098" stop-color="#fc429d"/>
  </linearGradient>
  <linearGradient id="paint1_linear" gradientUnits="userSpaceOnUse" x1=".935604" x2="46.9356" y1="8.99997" y2="44">
    <stop offset="0" stop-color="#2a2139"/>
    <stop offset="1" stop-color="#413260"/>
  </linearGradient>
  <linearGradient id="paint2_linear" gradientUnits="userSpaceOnUse" x1="24" x2="24" y1="19" y2="35">
    <stop offset="0" stop-color="#0fe4f5"/>
    <stop offset="1" stop-color="#eb36ae"/>
  </linearGradient>
  <path d="m9.7481 2.99997c-2.9004 0-5.051-.095-6.6562 1.11914-.8135.61532-1.3536 1.54216-1.6641 2.7168-.30929 1.16994-.4278 2.61376-.4278 4.48829v9.4062 3.2696 12.2695c0 1.9522.05299 3.4414.2676 4.6445.21541 1.2059.62221 2.1846 1.3868 2.8653.7626.6789 1.75271.9599 2.89451 1.0918 1.1408.1317 2.4963.1289 4.1992.1289h28.50389c1.6708 0 3.0101.002 4.1445-.1289 1.1353-.1319 2.1255-.4114 2.8946-1.086.7708-.6762 1.1929-1.653 1.4199-2.8613.2265-1.2056.2871-2.6992.2871-4.6543v-18.5391c0-.2582-.0121-.4261-.014-.6054v-.0117l.014-1.875c.0129-1.8103.0189-3.2512-.1152-4.4551-.134-1.20425-.4167-2.23039-1.0957-3.02735-.682-.80032-1.6746-1.24023-2.8907-1.4707-1.2123-.22969-2.7045-.28516-4.6465-.28516h-15.9023l-3-3z" fill="#000" opacity=".1"/>
  <path d="m9.7481 1.99997c-2.9004 0-5.051-.095-6.6562 1.11914-.8135.61532-1.3536 1.54216-1.6641 2.7168-.3093 1.16994-.4278 2.61376-.4278 4.48829v8.6758h46v-2.2696c0-.2582-.0121-.4261-.014-.6054v-.0117l.014-1.875c.0129-1.8103.0189-3.2512-.1152-4.45513-.134-1.20424-.4166-2.23038-1.0957-3.02734-.6819-.80032-1.6746-1.24023-2.8906-1.4707-1.2124-.22968-2.7045-.28516-4.6465-.28516h-15.9023l-3-3z" fill="url(#paint0_linear)"/>
  <path d="m38.2585 8.99997c2.9004 0 5.051-.095 6.6562 1.11913.8135.6153 1.3536 1.5422 1.6641 2.7168.3092 1.1699.4277 2.6138.4277 4.4883v9.4062 4.2696 4.2695c0 1.9522-.053 3.4414-.2676 4.6445-.2153 1.2059-.6221 2.1846-1.3867 2.8653-.7627.6789-1.7527.9599-2.8945 1.0918-1.1408.1317-2.4963.1289-4.1992.1289h-28.50399c-1.6707 0-3.0101.002-4.14451-.1289-1.13519-.1319-2.12549-.4114-2.89449-1.086-.7709-.6762-1.193-1.653-1.4199-2.8613-.22648-1.2056-.28711-2.6992-.28711-4.6543v-11.5391c0-.2582.0121-.4261.01398-.6054v-.0117l-.01398-1.875c-.012853-1.8103-.018899-3.2512.11521-4.4551.13399-1.2043.4166-2.2304 1.0957-3.0274.6819-.8003 1.6746-1.2402 2.8906-1.4707 1.2125-.2297 2.50718-.2929 4.6466-.2851h9.90229l3-3.00003z" fill="url(#paint1_linear)"/>
  <path d="m46.9356 31-12 12h4.6886c6.6316 0 7.3114-.6795 7.3114-7.2979z" fill="#fff" opacity=".05"/>
  <path d="m1.00009 34.2695v1c0 1.9522.05299 3.4414.26749 4.6445.21541 1.2059.6222 2.1846 1.3868 2.8653.7626.6789 1.7527.9599 2.8945 1.0918 1.1408.1317 2.4963.1289 4.1992.1289h28.50392c1.6708 0 3.0101.002 4.1445-.1289 1.1353-.1319 2.1255-.4114 2.8946-1.086.7708-.6762 1.1929-1.653 1.4199-2.8613.2265-1.2056.2871-2.6992.2871-4.6543v-1c0 1.9551-.061 3.4487-.2871 4.6543-.227 1.2083-.6491 2.1851-1.4199 2.8613-.7691.6746-1.7593.9541-2.8946 1.086-1.1344.1309-2.4737.1289-4.1445.1289h-28.50392c-1.7029 0-3.0584.003-4.1992-.1289-1.1418-.1319-2.1319-.4129-2.8945-1.0918-.7646-.6807-1.1714-1.6594-1.3868-2.8653-.21469-1.2031-.2676-2.6923-.26749-4.6445z" fill="#000" opacity=".2"/>
  <path d="m22.6563 8.99997-3 3.00003h-9.68755c-2.23437 0-3.64886.0555-4.86126.2851-1.216.2305-2.2087.6704-2.8906 1.4707-.6791.797-.9618 1.8231-1.0957 3.0274-.07299.6551-.10179 1.4-.11332 2.2168h.03901c.01701-.4234.03402-.8506.07401-1.2168.13399-1.2043.4166-2.2304 1.09569-3.0274.68191-.8003 1.67461-1.2402 2.8906-1.4707 1.2124-.2297 2.92039-.2851 4.90842-.3007l9.6404.0156 3-3.00003h15.6016c2.9004 0 5.051-.095 6.6562 1.11913.8135.6153 1.3536 1.5422 1.6641 2.7168.3092 1.17.4277 2.6138.4277 4.4883v-1c0-1.8745-.1185-3.3183-.4277-4.4883-.3105-1.1746-.8506-2.1015-1.6641-2.7168-1.6052-1.21417-3.7558-1.11913-6.6562-1.11913z" fill="#fff" opacity=".2"/>
  <path d="m22.6563 7.99997-3 3.00003h-9.90231c-2.33211.0078-3.4341.0555-4.6465.2851-1.216.2305-2.2087.6704-2.8906 1.4707-.6791.797-.9618 1.8231-1.0957 3.0274-.07299.6551-.10179 1.4-.11332 2.2168h.03901c.01701-.4234.03402-.8506.07401-1.2168.13399-1.2043.4166-2.2304 1.09569-3.0274.68191-.8003 1.67461-1.2402 2.8906-1.4707 1.2124-.2297 2.4397-.2929 4.6465-.2851h9.90232l3-3.00003h15.6016c2.9004 0 5.051-.095 6.6562 1.11913.8135.6153 1.3536 1.5422 1.6641 2.7168.3092 1.17.4277 2.6138.4277 4.4883v-1c0-1.8745-.1185-3.3183-.4277-4.4883-.3105-1.1746-.8506-2.10147-1.6641-2.71679-1.6052-1.21418-3.7558-1.11914-6.6562-1.11914z" fill="#472806" opacity=".1"/>
  <path d="m9.7481 1.99997c-2.9004 0-5.051-.095-6.6562 1.11914-.8135.61532-1.3536 1.54216-1.6641 2.7168-.30929 1.16994-.4278 2.61376-.4278 4.48829v1c0-1.87453.11849-3.31835.4278-4.48829.3105-1.17464.8505-2.10148 1.6641-2.7168 1.6052-1.21418 3.7558-1.11914 6.6562-1.11914h9.6016l3 3h15.9023c1.942 0 3.4341.0555 4.6465.28516 1.216.23047 2.2087.67039 2.8906 1.4707.6791.79696.9617 1.8231 1.0957 3.02737.067.6019.1 1.263.1133 2 0-1.128-.0189-2.1528-.1133-3.00003-.134-1.20424-.4166-2.23038-1.0957-3.02734-.6819-.80031-1.6746-1.24023-2.8906-1.4707-1.2124-.22968-2.7045-.28516-4.6465-.28516h-15.9023l-3-3zm37.2441 14.36723-.0098.746v.0118c0 .1793.014.3472.014.6054v-1c0-.1549 0-.2514-.0099-.3633z" fill="#fff" opacity=".2"/>
  <path d="m30.7253 30.9961c-.2502 0-.5083-.0939-.7742-.2815-.2659-.1877-.4874-.4327-.6647-.7351.0939.0104.1668.0156.219.0156.4171 0 .7716-.099 1.0635-.2972.292-.1981.438-.4327.438-.7038 0-.2606-.1304-.4848-.3911-.6725-.2606-.1877-.5839-.2972-.9697-.3284-.4275.2919-1.1547.5317-2.1818.7194-1.027.1877-2.1818.2815-3.4643.2815-1.6579 0-3.0733-.1485-4.2463-.4457s-1.7596-.6491-1.7596-1.0557c0-.3128.3441-.5944 1.0323-.8446.146.3754.7403.6934 1.783.9541 1.0427.2606 2.273.391 3.6911.391 1.1782 0 2.2366-.0939 3.175-.2816s1.6057-.4275 2.0019-.7194c.1251.0938.2138.1877.2659.2815.2711-.1877.5318-.2815.782-.2815.3545 0 .6569.1955.9072.5865.2502.391.3753.8628.3753 1.4154 0 .5527-.1251 1.0245-.3753 1.4155-.2503.391-.5527.5865-.9072.5865zm-5.7243-7.0225c0 .3441.0521.6517.1564.9228s.219.4848.3441.6412.2398.3624.3441.6178c.1042.2555.1564.5344.1564.8368-.0522-.0313-.1226-.073-.2112-.1251-.0886-.0522-.2502-.1747-.4848-.3676s-.438-.3962-.61-.61c-.172-.2137-.3311-.4926-.477-.8367-.146-.3441-.219-.7038-.219-1.0792 0-.3441.1642-.7064.4927-1.087.3284-.3806.7168-.7038 1.1652-.9697.4483-.2659.8915-.4874 1.3294-.6647s.7768-.2607 1.0166-.2502c-.1877 0-.5187.1616-.9931.4848-.4745.3232-.928.7299-1.3607 1.2199-.4328.4901-.6491.9124-.6491 1.2669zm-3.0029.5161c0 .365.0834.756.2502 1.1731.1668.417.3337.7455.5005.9853l.2502.3597c-.5005 0-.9592-.2659-1.3763-.7976-.4171-.5318-.6256-1.1053-.6256-1.7205 0-.2711.1042-.5448.3128-.8211.2085-.2763.4588-.5265.7507-.7507.292-.2242.5839-.4353.8759-.6334.2919-.1982.5422-.3937.7507-.5866.2085-.1928.3128-.3623.3128-.5083 0-.2919-.0156-.5474-.0469-.7663-.0313-.219-.1173-.4692-.2581-.7508-.1407-.2815-.3415-.5057-.6021-.6725.6464.073 1.1261.305 1.4389.696s.4692.8889.4692 1.4936c0 .3337-.1043.6309-.3128.8915-.2086.2607-.4588.4745-.7508.6413-.2919.1668-.5839.3284-.8758.4848-.292.1564-.5422.3415-.7507.5553-.2086.2137-.3128.4561-.3128.7272zm2.0019 7.5074c1.5328 0 2.6849-.1669 3.4565-.5005.3649.1564.5474.3232.5474.5005 0 .2711-.391.5057-1.173.7038s-1.7256.2971-2.8309.2971c-1.1052 0-2.0489-.099-2.8309-.2971s-1.173-.4327-1.173-.7038c0-.1773.1825-.3441.5474-.5005.7716.3336 1.9238.5005 3.4565.5005zm-5.0049-2.002c0-.1772.2242-.3441.6726-.5005.9696.3337 2.4138.5005 4.3323.5005s3.3627-.1668 4.3324-.5005c.4483.1564.6725.3233.6725.5005 0 .2711-.4901.5057-1.4702.7038s-2.161.2972-3.5425.2972c-1.3816 0-2.5598-.0991-3.5347-.2972s-1.4624-.4327-1.4624-.7038zm-1.001 2.002c0 .3649.2685.7012.8055 1.0088s1.2669.55 2.1897.7272c.9227.1773 1.9263.2659 3.0107.2659s2.088-.0886 3.0108-.2659c.9227-.1772 1.6526-.4196 2.1896-.7272s.8055-.6439.8055-1.0088c0-.1147-.0313-.2294-.0939-.3441 1.3972.3753 2.0958.8237 2.0958 1.345 0 .365-.3571.7013-1.0713 1.0088-.7143.3076-1.6866.5501-2.9169.7273-1.2304.1773-2.5703.2659-4.0196.2659s-2.7892-.0886-4.0195-.2659c-1.2304-.1772-2.2027-.4197-2.917-.7273-.7142-.3075-1.0713-.6438-1.0713-1.0088 0-.5213.6986-.9697 2.0958-1.345-.0626.1147-.0939.2294-.0939.3441z" fill="url(#paint2_linear)"/>
</svg>
