<svg fill="none" height="48" viewBox="0 0 48 48" width="48" xmlns="http://www.w3.org/2000/svg" xmlns:xlink="http://www.w3.org/1999/xlink">
  <linearGradient id="paint0_linear" gradientUnits="userSpaceOnUse" x1="47.0614" x2="1.71003" y1="7.64481" y2="24.6479">
    <stop offset="0" stop-color="#f0ea4d"/>
    <stop offset=".874098" stop-color="#fc429d"/>
  </linearGradient>
  <linearGradient id="paint1_linear" gradientUnits="userSpaceOnUse" x1=".93559" x2="46.9356" y1="8.99997" y2="44">
    <stop offset="0" stop-color="#2a2139"/>
    <stop offset="1" stop-color="#413260"/>
  </linearGradient>
  <linearGradient id="paint2_linear" gradientUnits="userSpaceOnUse" x1="24" x2="24" y1="19" y2="35">
    <stop offset="0" stop-color="#0fe4f5"/>
    <stop offset="1" stop-color="#eb36ae"/>
  </linearGradient>
  <path d="m9.7481 2.99997c-2.9004 0-5.051-.095-6.6562 1.11914-.8135.61532-1.3536 1.54216-1.6641 2.7168-.30929 1.16994-.4278 2.61376-.4278 4.48829v9.4062 3.2696 12.2695c0 1.9522.05299 3.4414.2676 4.6445.21541 1.2059.62221 2.1846 1.3868 2.8653.7626.6789 1.75271.9599 2.89451 1.0918 1.1408.1317 2.4963.1289 4.1992.1289h28.50389c1.6708 0 3.0101.002 4.1445-.1289 1.1353-.1319 2.1255-.4114 2.8946-1.086.7708-.6762 1.1929-1.653 1.4199-2.8613.2265-1.2056.2871-2.6992.2871-4.6543v-18.5391c0-.2582-.0121-.4261-.014-.6054v-.0117l.014-1.875c.0129-1.8103.0189-3.2512-.1152-4.4551-.134-1.20425-.4167-2.23039-1.0957-3.02735-.682-.80032-1.6746-1.24023-2.8907-1.4707-1.2123-.22969-2.7045-.28516-4.6465-.28516h-15.9023l-3-3z" fill="#000" opacity=".1"/>
  <path d="m9.7481 1.99997c-2.9004 0-5.051-.095-6.6562 1.11914-.8135.61532-1.3536 1.54216-1.6641 2.7168-.3093 1.16994-.4278 2.61376-.4278 4.48829v8.6758h46v-2.2696c0-.2582-.0121-.4261-.014-.6054v-.0117l.014-1.875c.0129-1.8103.0189-3.2512-.1152-4.45513-.134-1.20424-.4166-2.23038-1.0957-3.02734-.6819-.80032-1.6746-1.24023-2.8906-1.4707-1.2124-.22968-2.7045-.28516-4.6465-.28516h-15.9023l-3-3z" fill="url(#paint0_linear)"/>
  <path d="m38.2585 8.99997c2.9004 0 5.051-.095 6.6562 1.11913.8135.6153 1.3536 1.5422 1.6641 2.7168.3092 1.1699.4277 2.6138.4277 4.4883v9.4062 4.2696 4.2695c0 1.9522-.053 3.4414-.2676 4.6445-.2153 1.2059-.6221 2.1846-1.3867 2.8653-.7627.6789-1.7527.9599-2.8945 1.0918-1.1408.1317-2.4963.1289-4.1992.1289h-28.50401c-1.6707 0-3.0101.002-4.1445-.1289-1.1352-.1319-2.1255-.4114-2.8945-1.086-.7709-.6762-1.193-1.653-1.4199-2.8613-.22648-1.2056-.28711-2.6992-.28711-4.6543v-11.5391c0-.2582.0121-.4261.01399-.6054v-.0117l-.01399-1.875c-.012848-1.8103-.018894-3.2512.11521-4.4551.13399-1.2043.4166-2.2304 1.0957-3.0274.6819-.8003 1.6746-1.2402 2.8906-1.4707 1.2125-.2297 2.50718-.2929 4.6466-.2851h9.90231l3-3.00003z" fill="url(#paint1_linear)"/>
  <path d="m46.9356 31-12 12h4.6886c6.6316 0 7.3114-.6795 7.3114-7.2979z" fill="#fff" opacity=".05"/>
  <path d="m1.00009 34.2695v1c0 1.9523.05299 3.4414.26749 4.6446.21541 1.2058.6222 2.1845 1.3868 2.8652.7626.679 1.7527.9599 2.8945 1.0918 1.1408.1318 2.4963.1289 4.1992.1289h28.50392c1.6708 0 3.0101.002 4.1445-.1289 1.1353-.1319 2.1255-.4113 2.8946-1.0859.7708-.6763 1.1929-1.653 1.4199-2.8614.2265-1.2056.2871-2.6992.2871-4.6543v-1c0 1.9551-.061 3.4487-.2871 4.6543-.227 1.2084-.6491 2.1851-1.4199 2.8614-.7691.6746-1.7593.954-2.8946 1.0859-1.1344.1309-2.4737.1289-4.1445.1289h-28.50392c-1.7029 0-3.0584.003-4.1992-.1289-1.1418-.1319-2.1319-.4128-2.8945-1.0918-.7646-.6807-1.1714-1.6594-1.3868-2.8652-.21469-1.2032-.267602-2.6923-.26749-4.6446z" fill="#000" opacity=".2"/>
  <path d="m22.6563 8.99997-3 3.00003h-9.68754c-2.23438 0-3.64886.0555-4.86126.2851-1.216.2305-2.2087.6704-2.8906 1.4707-.6791.797-.9618 1.8231-1.0957 3.0274-.07299.6551-.10179 1.4-.11332 2.2168h.03901c.01701-.4234.03401-.8506.074-1.2168.13399-1.2043.4166-2.2304 1.0957-3.0274.6819-.8003 1.6746-1.2402 2.8906-1.4707 1.2124-.2297 2.92039-.2851 4.90841-.3007l9.6404.0156 3-3.00003h15.6016c2.9004 0 5.051-.095 6.6562 1.11913.8135.6153 1.3536 1.5422 1.6641 2.7168.3092 1.17.4277 2.6138.4277 4.4883v-1c0-1.8745-.1185-3.3183-.4277-4.4883-.3105-1.1746-.8506-2.1015-1.6641-2.7168-1.6052-1.21417-3.7558-1.11913-6.6562-1.11913z" fill="#fff" opacity=".2"/>
  <path d="m22.6563 7.99997-3 3.00003h-9.9023c-2.33212.0078-3.4341.0555-4.6465.2851-1.216.2305-2.2087.6704-2.8906 1.4707-.6791.797-.9618 1.8231-1.0957 3.0274-.07299.6551-.10179 1.4-.11332 2.2168h.03901c.01701-.4234.03401-.8506.074-1.2168.13399-1.2043.4166-2.2304 1.0957-3.0274.6819-.8003 1.6746-1.2402 2.8906-1.4707 1.2124-.2297 2.43969-.2929 4.6465-.2851h9.90231l3-3.00003h15.6016c2.9004 0 5.051-.095 6.6562 1.11913.8135.6153 1.3536 1.5422 1.6641 2.7168.3092 1.17.4277 2.6138.4277 4.4883v-1c0-1.8745-.1185-3.3183-.4277-4.4883-.3105-1.1746-.8506-2.10147-1.6641-2.71679-1.6052-1.21418-3.7558-1.11914-6.6562-1.11914z" fill="#472806" opacity=".1"/>
  <path d="m9.7481 1.99997c-2.9004 0-5.051-.095-6.6562 1.11914-.8135.61532-1.3536 1.54216-1.6641 2.7168-.30929 1.16994-.4278 2.61376-.4278 4.48829v1c0-1.87453.11849-3.31835.4278-4.48829.3105-1.17464.8505-2.10148 1.6641-2.7168 1.6052-1.21418 3.7558-1.11914 6.6562-1.11914h9.6016l3 3h15.9023c1.942 0 3.4341.0555 4.6465.28516 1.216.23047 2.2087.67039 2.8906 1.4707.6791.79696.9617 1.8231 1.0957 3.02737.067.6019.1 1.263.1133 2 0-1.128-.0189-2.1528-.1133-3.00003-.134-1.20424-.4166-2.23038-1.0957-3.02734-.6819-.80031-1.6746-1.24023-2.8906-1.4707-1.2124-.22968-2.7045-.28516-4.6465-.28516h-15.9023l-3-3zm37.2441 14.36723-.0098.746v.0118c0 .1793.014.3472.014.6054v-1c0-.1549 0-.2514-.0099-.3633z" fill="#fff" opacity=".2"/>
  <path d="m22.7903 19c-3.7644 0-3.848 2.5128-4.9359 4.2043 1.3333-.6284 2.8195-1.1653 4.423-1.5795 1.4586-.376 2.9288-.6248 4.3563-.7377-.9057-.736-1.5377-1.8871-3.8434-1.8871zm5.1661 3.599c-1.6596.032-3.4595.288-5.2346.7467-5.8479 1.5102-10.0168 4.7965-9.3102 7.3387.4071 1.4524 2.3706 2.7679 5.2952 2.9421-.0018-.0107-.0044-.0205-.0053-.0311v-.0032c-.0036-.0258-.0125-.0489-.016-.0747-.1707-1.5502.7164-2.7537 1.7368-3.6026 1.0196-.8489 2.328-1.4631 3.8088-1.7928.7191-.1609 1.4436-.2418 2.1564-.2329h.0018c1.0684.0133 2.0551.2124 2.9237.7048.7164.4063 1.3715 1.112 1.6506 1.984 2.6693-1.6311 4.0488-3.8285 3.6284-5.3627-.4667-1.6835-3.0115-2.6871-6.6356-2.616zm-1.5902 7.0676c-.5609-.0064-1.1547.0586-1.7484.1911-2.4497.5458-4.3155 2.0977-4.1644 3.4648.1511 1.368 2.2595 2.0329 4.7101 1.4862 2.4498-.5466 4.3121-2.0977 4.161-3.4648-.1093-.9946-1.2748-1.656-2.9583-1.6773z" fill="url(#paint2_linear)"/>
</svg>
