<svg fill="none" height="48" viewBox="0 0 48 48" width="48" xmlns="http://www.w3.org/2000/svg" xmlns:xlink="http://www.w3.org/1999/xlink">
  <linearGradient id="paint0_linear" gradientUnits="userSpaceOnUse" x1="47.0614" x2="1.71003" y1="7.64481" y2="24.6479">
    <stop offset="0" stop-color="#f0ea4d"/>
    <stop offset=".874098" stop-color="#fc429d"/>
  </linearGradient>
  <linearGradient id="paint1_linear" gradientUnits="userSpaceOnUse" x1=".935605" x2="46.9356" y1="8.99997" y2="44">
    <stop offset="0" stop-color="#2a2139"/>
    <stop offset="1" stop-color="#413260"/>
  </linearGradient>
  <linearGradient id="lg1">
    <stop offset="0" stop-color="#0fe4f5"/>
    <stop offset="1" stop-color="#eb36ae"/>
  </linearGradient>
  <linearGradient id="paint2_linear" gradientUnits="userSpaceOnUse" x1="23.8806" x2="23.8806" xlink:href="#lg1" y1="19" y2="34.9639"/>
  <linearGradient id="paint3_linear" gradientUnits="userSpaceOnUse" x1="21.8897" x2="21.8897" xlink:href="#lg1" y1="29.1213" y2="31.6682"/>
  <linearGradient id="paint4_linear" gradientUnits="userSpaceOnUse" x1="27.42" x2="27.42" xlink:href="#lg1" y1="19" y2="35"/>
  <linearGradient id="paint5_linear" gradientUnits="userSpaceOnUse" x1="20.0883" x2="20.0883" xlink:href="#lg1" y1="22.8375" y2="24.8601"/>
  <path d="m9.7481 2.99997c-2.90041 0-5.051-.095-6.6562 1.11914-.8135.61532-1.3536 1.54216-1.6641 2.7168-.3093 1.16994-.4278 2.61376-.4278 4.48829v9.4062 3.2696 12.2695c0 1.9522.05299 3.4414.2676 4.6445.21541 1.2059.6222 2.1846 1.3868 2.8653.7626.6789 1.7527.9599 2.8945 1.0918 1.1408.1317 2.4963.1289 4.1992.1289h28.5039c1.6708 0 3.0101.002 4.1445-.1289 1.1353-.1319 2.1255-.4114 2.8946-1.086.7708-.6762 1.1929-1.653 1.4199-2.8613.2265-1.2056.2871-2.6992.2871-4.6543v-18.5391c0-.2582-.0121-.4261-.014-.6054v-.0117l.014-1.875c.0129-1.8103.0189-3.2512-.1152-4.4551-.134-1.20425-.4167-2.23039-1.0957-3.02735-.682-.80032-1.6746-1.24023-2.8907-1.4707-1.2123-.22969-2.7045-.28516-4.6465-.28516h-15.9023l-3-3z" fill="#000" opacity=".1"/>
  <path d="m9.7481 1.99997c-2.90041 0-5.051-.095-6.6562 1.11914-.8135.61532-1.3536 1.54216-1.6641 2.7168-.3093 1.16994-.4278 2.61376-.4278 4.48829v8.6758h46v-2.2696c0-.2582-.0121-.4261-.014-.6054v-.0117l.014-1.875c.0128-1.8103.0189-3.2512-.1152-4.45513-.134-1.20424-.4166-2.23038-1.0957-3.02734-.6819-.80032-1.6746-1.24023-2.8906-1.4707-1.2124-.22968-2.7045-.28516-4.6465-.28516h-15.9023l-3-3z" fill="url(#paint0_linear)"/>
  <path d="m38.2585 8.99997c2.9004 0 5.051-.095 6.6562 1.11913.8135.6153 1.3536 1.5422 1.6641 2.7168.3092 1.1699.4277 2.6138.4277 4.4883v9.4062 4.2696 4.2695c0 1.9522-.053 3.4414-.2676 4.6445-.2153 1.2059-.6221 2.1846-1.3867 2.8653-.7627.6789-1.7527.9599-2.8945 1.0918-1.1408.1317-2.4963.1289-4.1992.1289h-28.50399c-1.6707 0-3.01011.002-4.14451-.1289-1.13519-.1319-2.12549-.4114-2.89449-1.086-.7709-.6762-1.193-1.653-1.4199-2.8613-.22649-1.2056-.28711-2.6992-.28711-4.6543v-11.5391c0-.2582.01209-.4261.01398-.6054v-.0117l-.01398-1.875c-.012853-1.8103-.018899-3.2512.1152-4.4551.134-1.2043.41661-2.2304 1.09571-3.0274.6819-.8003 1.67459-1.2402 2.8906-1.4707 1.21249-.2297 2.50718-.2929 4.64659-.2851h9.9023l3-3.00003z" fill="url(#paint1_linear)"/>
  <path d="m46.9356 31-12 12h4.6886c6.6316 0 7.3114-.6795 7.3114-7.2979z" fill="#fff" opacity=".05"/>
  <path d="m1.00011 34.2695v1c0 1.9523.05298 3.4414.26748 4.6446.21541 1.2058.62221 2.1845 1.3868 2.8652.7626.679 1.75271.9599 2.89451 1.0918 1.1408.1318 2.4963.1289 4.1992.1289h28.5039c1.6708 0 3.0101.002 4.1445-.1289 1.1353-.1319 2.1255-.4113 2.8946-1.0859.7708-.6763 1.1929-1.653 1.4199-2.8614.2265-1.2056.2871-2.6992.2871-4.6543v-1c0 1.9551-.061 3.4487-.2871 4.6543-.227 1.2084-.6491 2.1851-1.4199 2.8614-.7691.6746-1.7593.954-2.8946 1.0859-1.1344.1309-2.4737.1289-4.1445.1289h-28.5039c-1.7029 0-3.0584.003-4.1992-.1289-1.1418-.1319-2.13191-.4128-2.89451-1.0918-.76459-.6807-1.1714-1.6594-1.3868-2.8652-.21468-1.2032-.267601-2.6923-.26748-4.6446z" fill="#000" opacity=".2"/>
  <path d="m22.6563 8.99997-3 3.00003h-9.68753c-2.23438 0-3.64886.0555-4.86126.2851-1.216.2305-2.2087.6704-2.8906 1.4707-.6791.797-.9618 1.8231-1.0957 3.0274-.07299.6551-.10179 1.4-.11332 2.2168h.03901c.01701-.4234.03401-.8506.074-1.2168.13399-1.2043.4166-2.2304 1.0957-3.0274.6819-.8003 1.6746-1.2402 2.8906-1.4707 1.2124-.2297 2.92039-.2851 4.9084-.3007l9.6404.0156 3-3.00003h15.6016c2.9004 0 5.051-.095 6.6562 1.11913.8135.6153 1.3536 1.5422 1.6641 2.7168.3092 1.17.4277 2.6138.4277 4.4883v-1c0-1.8745-.1185-3.3183-.4277-4.4883-.3105-1.1746-.8506-2.1015-1.6641-2.7168-1.6052-1.21417-3.7558-1.11913-6.6562-1.11913z" fill="#fff" opacity=".2"/>
  <path d="m22.6563 7.99997-3 3.00003h-9.90229c-2.33212.0078-3.4341.0555-4.6465.2851-1.216.2305-2.2087.6704-2.8906 1.4707-.6791.797-.9618 1.8231-1.0957 3.0274-.07299.6551-.10179 1.4-.11332 2.2168h.03901c.01701-.4234.03401-.8506.074-1.2168.13399-1.2043.4166-2.2304 1.0957-3.0274.6819-.8003 1.6746-1.2402 2.8906-1.4707 1.2124-.2297 2.43969-.2929 4.6465-.2851h9.9023l3-3.00003h15.6016c2.9004 0 5.051-.095 6.6562 1.11913.8135.6153 1.3536 1.5422 1.6641 2.7168.3092 1.17.4277 2.6138.4277 4.4883v-1c0-1.8745-.1185-3.3183-.4277-4.4883-.3105-1.1746-.8506-2.10147-1.6641-2.71679-1.6052-1.21418-3.7558-1.11914-6.6562-1.11914z" fill="#472806" opacity=".1"/>
  <path d="m9.7481 1.99997c-2.90041 0-5.051-.095-6.6562 1.11914-.8135.61532-1.3536 1.54216-1.6641 2.7168-.3093 1.16994-.4278 2.61376-.4278 4.48829v1c0-1.87453.11849-3.31835.4278-4.48829.3105-1.17464.8505-2.10148 1.6641-2.7168 1.6052-1.21418 3.75579-1.11914 6.6562-1.11914h9.6016l3 3h15.9023c1.942 0 3.4341.0555 4.6465.28516 1.216.23047 2.2087.67039 2.8906 1.4707.6791.79696.9617 1.8231 1.0957 3.02737.067.6019.1 1.263.1133 2 0-1.128-.0189-2.1528-.1133-3.00003-.134-1.20424-.4166-2.23038-1.0957-3.02734-.6819-.80031-1.6746-1.24023-2.8906-1.4707-1.2124-.22968-2.7045-.28516-4.6465-.28516h-15.9023l-3-3zm37.2441 14.36723-.0098.746v.0118c0 .1793.014.3472.014.6054v-1c0-.1549 0-.2514-.0099-.3633z" fill="#fff" opacity=".2"/>
  <path clip-rule="evenodd" d="m31.5195 19.8668h-15.2777v14.2303h15.2777zm-15.2777-.8668c-.4787 0-.8668.3881-.8668.8668v14.2303c0 .4787.3881.8668.8668.8668h15.2777c.4787 0 .8668-.3881.8668-.8668v-14.2303c0-.4787-.3881-.8668-.8668-.8668z" fill="url(#paint2_linear)" fill-rule="evenodd"/>
  <path d="m24.0551 31.6682c-1.9332.0044-3.926-.507-5.3722-2.0829-.1026-.1118-.0915-.2849.0198-.3881.1215-.1125.3129-.097.4226.0269 1.3554 1.5304 3.1352 1.8703 4.9285 1.8662.3636-.0009.7228-.0282 1.0729-.0813l.0406.5779c-.3658.0533-.7383.0804-1.1122.0813z" fill="url(#paint3_linear)"/>
  <path clip-rule="evenodd" d="m31.4382 19c.4787 0 .8668.3881.8668.8668v14.235c0 .4769-.3852.8642-.8621.8668l-5.7744.0314c-.2443-1.2821-.4047-2.3429-.498-3.4132 1.5014-.2193 2.8907-.882 3.807-2.0036.101-.1236.071-.3048-.0585-.3981s-.3093-.0632-.4114.0595c-.7996.9614-2.021 1.5583-3.3809 1.7645-.0707-1.0933-.0758-2.2387-.0328-3.6752.0074-.2458-.1898-.4506-.4358-.4497l-1.834.0064c-.1664.0006-.299-.1392-.2886-.3054.1983-3.154.6301-5.1704 1.7063-7.5852zm-6.3115 12.0091.0438.5777c-.0133-.1929-.0303-.3848-.0438-.5777zm2.5643-8.1716c-.2044 0-.3702.1657-.3702.3702v1.2821c0 .2045.1658.3702.3702.3702.2045 0 .3702-.1657.3702-.3702v-1.2821c0-.2045-.1657-.3702-.3702-.3702z" fill="url(#paint4_linear)" fill-rule="evenodd"/>
  <path d="m20.4585 23.2077c0-.2045-.1657-.3702-.3702-.3702s-.3702.1657-.3702.3702v1.2822c0 .2044.1657.3702.3702.3702s.3702-.1658.3702-.3702z" fill="url(#paint5_linear)"/>
</svg>
