<svg fill="none" height="48" viewBox="0 0 48 48" width="48" xmlns="http://www.w3.org/2000/svg" xmlns:xlink="http://www.w3.org/1999/xlink">
  <linearGradient id="paint0_linear" gradientUnits="userSpaceOnUse" x1="47.0614" x2="1.71003" y1="7.64481" y2="24.6479">
    <stop offset="0" stop-color="#f0ea4d"/>
    <stop offset=".874098" stop-color="#fc429d"/>
  </linearGradient>
  <linearGradient id="paint1_linear" gradientUnits="userSpaceOnUse" x1=".935591" x2="46.9356" y1="8.99997" y2="44">
    <stop offset="0" stop-color="#2a2139"/>
    <stop offset="1" stop-color="#413260"/>
  </linearGradient>
  <linearGradient id="paint2_linear" gradientUnits="userSpaceOnUse" x1="24" x2="24" y1="19" y2="35">
    <stop offset="0" stop-color="#0fe4f5"/>
    <stop offset="1" stop-color="#eb36ae"/>
  </linearGradient>
  <path d="m9.7481 2.99997c-2.9004 0-5.051-.095-6.6562 1.11914-.8135.61532-1.3536 1.54216-1.6641 2.7168-.30929 1.16994-.4278 2.61376-.4278 4.48829v9.4062 3.2696 12.2695c0 1.9522.05299 3.4414.2676 4.6445.21541 1.2059.62221 2.1846 1.3868 2.8653.7626.6789 1.75271.9599 2.89451 1.0918 1.1408.1317 2.4963.1289 4.1992.1289h28.50389c1.6708 0 3.0101.002 4.1445-.1289 1.1353-.1319 2.1255-.4114 2.8946-1.086.7708-.6762 1.1929-1.653 1.4199-2.8613.2265-1.2056.2871-2.6992.2871-4.6543v-18.5391c0-.2582-.0121-.4261-.014-.6054v-.0117l.014-1.875c.0129-1.8103.0189-3.2512-.1152-4.4551-.134-1.20425-.4167-2.23039-1.0957-3.02735-.682-.80032-1.6746-1.24023-2.8907-1.4707-1.2123-.22969-2.7045-.28516-4.6465-.28516h-15.9023l-3-3z" fill="#000" opacity=".1"/>
  <path d="m9.7481 1.99997c-2.9004 0-5.051-.095-6.6562 1.11914-.8135.61532-1.3536 1.54216-1.6641 2.7168-.3093 1.16994-.4278 2.61376-.4278 4.48829v8.6758h46v-2.2696c0-.2582-.0121-.4261-.014-.6054v-.0117l.014-1.875c.0129-1.8103.0189-3.2512-.1152-4.45513-.134-1.20424-.4166-2.23038-1.0957-3.02734-.6819-.80032-1.6746-1.24023-2.8906-1.4707-1.2124-.22968-2.7045-.28516-4.6465-.28516h-15.9023l-3-3z" fill="url(#paint0_linear)"/>
  <path d="m38.2585 8.99997c2.9004 0 5.051-.095 6.6562 1.11913.8135.6153 1.3536 1.5422 1.6641 2.7168.3092 1.1699.4277 2.6138.4277 4.4883v9.4062 4.2696 4.2695c0 1.9522-.053 3.4414-.2676 4.6445-.2153 1.2059-.6221 2.1846-1.3867 2.8653-.7627.6789-1.7527.9599-2.8945 1.0918-1.1408.1317-2.4963.1289-4.1992.1289h-28.50401c-1.6707 0-3.0101.002-4.1445-.1289-1.1352-.1319-2.1255-.4114-2.8945-1.086-.7709-.6762-1.193-1.653-1.4199-2.8613-.22648-1.2056-.28711-2.6992-.28711-4.6543v-11.5391c0-.2582.0121-.4261.01399-.6054v-.0117l-.01399-1.875c-.012846-1.8103-.018892-3.2512.11521-4.4551.13399-1.2043.4166-2.2304 1.0957-3.0274.6819-.8003 1.6746-1.2402 2.8906-1.4707 1.2125-.2297 2.50718-.2929 4.6466-.2851h9.90231l3-3.00003z" fill="url(#paint1_linear)"/>
  <path d="m46.9356 31-12 12h4.6886c6.6316 0 7.3114-.6795 7.3114-7.2979z" fill="#fff" opacity=".05"/>
  <path d="m1.00009 34.2695v1c0 1.9522.05299 3.4414.26749 4.6445.21541 1.2059.6222 2.1846 1.3868 2.8653.7626.6789 1.7527.9599 2.8945 1.0918 1.1408.1317 2.4963.1289 4.1992.1289h28.50392c1.6708 0 3.0101.002 4.1445-.1289 1.1353-.1319 2.1255-.4114 2.8946-1.086.7708-.6762 1.1929-1.653 1.4199-2.8613.2265-1.2056.2871-2.6992.2871-4.6543v-1c0 1.9551-.061 3.4487-.2871 4.6543-.227 1.2083-.6491 2.1851-1.4199 2.8613-.7691.6746-1.7593.9541-2.8946 1.086-1.1344.1309-2.4737.1289-4.1445.1289h-28.50392c-1.7029 0-3.0584.003-4.1992-.1289-1.1418-.1319-2.1319-.4129-2.8945-1.0918-.7646-.6807-1.1714-1.6594-1.3868-2.8653-.21469-1.2031-.2676-2.6923-.26749-4.6445z" fill="#000" opacity=".2"/>
  <path d="m22.6563 8.99997-3 3.00003h-9.68755c-2.23437 0-3.64886.0555-4.86126.2851-1.216.2305-2.2087.6704-2.8906 1.4707-.6791.797-.9618 1.8231-1.0957 3.0274-.07299.6551-.10179 1.4-.11332 2.2168h.03901c.01701-.4234.03402-.8506.07401-1.2168.13399-1.2043.4166-2.2304 1.09569-3.0274.68191-.8003 1.67461-1.2402 2.8906-1.4707 1.2124-.2297 2.92039-.2851 4.90842-.3007l9.6404.0156 3-3.00003h15.6016c2.9004 0 5.051-.095 6.6562 1.11913.8135.6153 1.3536 1.5422 1.6641 2.7168.3092 1.17.4277 2.6138.4277 4.4883v-1c0-1.8745-.1185-3.3183-.4277-4.4883-.3105-1.1746-.8506-2.1015-1.6641-2.7168-1.6052-1.21417-3.7558-1.11913-6.6562-1.11913z" fill="#fff" opacity=".2"/>
  <path d="m22.6563 7.99997-3 3.00003h-9.90231c-2.33211.0078-3.4341.0555-4.6465.2851-1.216.2305-2.2087.6704-2.8906 1.4707-.6791.797-.9618 1.8231-1.0957 3.0274-.07299.6551-.10179 1.4-.11332 2.2168h.03901c.01701-.4234.03402-.8506.07401-1.2168.13399-1.2043.4166-2.2304 1.09569-3.0274.68191-.8003 1.67461-1.2402 2.8906-1.4707 1.2124-.2297 2.4397-.2929 4.6465-.2851h9.90232l3-3.00003h15.6016c2.9004 0 5.051-.095 6.6562 1.11913.8135.6153 1.3536 1.5422 1.6641 2.7168.3092 1.17.4277 2.6138.4277 4.4883v-1c0-1.8745-.1185-3.3183-.4277-4.4883-.3105-1.1746-.8506-2.10147-1.6641-2.71679-1.6052-1.21418-3.7558-1.11914-6.6562-1.11914z" fill="#472806" opacity=".1"/>
  <path d="m9.7481 1.99997c-2.9004 0-5.051-.095-6.6562 1.11914-.8135.61532-1.3536 1.54216-1.6641 2.7168-.30929 1.16994-.4278 2.61376-.4278 4.48829v1c0-1.87453.11849-3.31835.4278-4.48829.3105-1.17464.8505-2.10148 1.6641-2.7168 1.6052-1.21418 3.7558-1.11914 6.6562-1.11914h9.6016l3 3h15.9023c1.942 0 3.4341.0555 4.6465.28516 1.216.23047 2.2087.67039 2.8906 1.4707.6791.79696.9617 1.8231 1.0957 3.02737.067.6019.1 1.263.1133 2 0-1.128-.0189-2.1528-.1133-3.00003-.134-1.20424-.4166-2.23038-1.0957-3.02734-.6819-.80031-1.6746-1.24023-2.8906-1.4707-1.2124-.22968-2.7045-.28516-4.6465-.28516h-15.9023l-3-3zm37.2441 14.36723-.0098.746v.0118c0 .1793.014.3472.014.6054v-1c0-.1549 0-.2514-.0099-.3633z" fill="#fff" opacity=".2"/>
  <path d="m24.1362 19.0121c-.4122-.0225-.8535-.0128-1.3259.0223-7.4621.6006-5.4822 8.4842-5.5934 11.1244-.0985 1.3966-.5615 3.1038-1.2164 4.8412h2.0155c.2072-.7362.3605-1.4641.4263-2.1584.1216.0848.2518.1648.3906.2433.2259.1331.4194.3104.6249.4978.4804.4377 1.0249.9355 2.0892.9977.0714.0046.1439.0044.2143.0044 1.0764 0 1.8122-.4718 2.4039-.8504.2834-.1815.5285-.3376.7589-.4129.6548-.205 1.2262-.5363 1.6539-.9575.0668-.0657.1294-.132.1875-.2009.2382.873.5643 1.8543.9263 2.8347h4.3077c-1.0339-1.5972-2.0997-3.1614-2.078-5.1582h-.0022c.0408-3.7013.3996-10.4903-5.7831-10.8275zm.3816 5.8456c1.1585-.0314 2.1235 1.1521 2.1539 2.6427.0137.6742-.1674 1.2954-.4754 1.7767-.0687-.0345-.1397-.0673-.2143-.0982-.3454-.1477-.6229-.2481-.8526-.3281.1268-.2483.207-.5566.2143-.8928v-.0022c.0176-.8184-.3953-1.4831-.9219-1.4843s-.9689.6616-.9865 1.4798c-.0006.0267-.0003.0538 0 .0804-.3244-.1492-.643-.2569-.9553-.3237-.0011-.0307-.0045-.0628-.0045-.0937-.0302-1.4908.8837-2.7251 2.0423-2.7566zm-5.2028.413c.8345-.0486 1.5708.957 1.645 2.2454.0034.0694.0067.1394.0067.2075-.2644.0665-.5027.1622-.7165.2746-.0008-.0092-.0011-.0194-.0022-.029-.0714-.7314-.4621-1.2844-.8727-1.2343-.4106.05-.6852.6837-.6138 1.415v.0023c.031.3189.1222.6033.2499.8191-.0317.0251-.1219.0896-.2254.1652-.0776.0567-.1717.1259-.2857.2098-.3106-.4077-.5244-.9929-.5625-1.6539-.0741-1.2884.5427-2.3733 1.3772-2.4217zm2.4284 3.2654c.6001 0 1.2635.2327 1.9709.6874.3332.2168.6239.3152.991.442.2524.0872.5387.1863.9218.3504l.0045.0022c.3574.1469.7804.4161.7611.8594-.0297.681-.9202 1.3209-1.7432 1.578l-.0044.0022c-.3422.111-.6457.3045-.9687.5112-.5427.3471-1.1046.7075-1.9151.7075-.0532 0-.1071-.001-.1607-.0044-.7424-.0435-1.0915-.3606-1.5312-.7612-.2319-.2114-.4698-.4302-.779-.6115l-.0066-.0023c-.6673-.3766-1.0829-.8464-1.1094-1.2544-.0131-.2028.0766-.3766.2679-.52.4162-.312.6949-.5168.8794-.6518.2048-.1498.2667-.1952.3125-.2388.0327-.0311.0691-.0656.1071-.1027.382-.3714 1.0211-.9932 2.0021-.9932zm-2.5445 1.8816c-.1142.022-.2198.0857-.2901.1897-.1407.2078-.0874.491.1205.6317.5421.3669 1.5007.6397 2.5021.712.1698.0122.3573.0201.558.0201.8715 0 1.9785-.0831 3.1628-.6339.2275-.106.3268-.3751.2209-.6027-.1058-.2276-.3773-.3266-.6048-.2209-1.2803.5956-2.4702.5889-3.2699.5312-.9539-.0688-1.7207-.3298-2.058-.558-.1039-.0704-.2273-.0912-.3415-.0692z" fill="url(#paint2_linear)"/>
</svg>
