<svg fill="none" height="48" viewBox="0 0 48 48" width="48" xmlns="http://www.w3.org/2000/svg" xmlns:xlink="http://www.w3.org/1999/xlink">
  <linearGradient id="paint0_linear" gradientUnits="userSpaceOnUse" x1="47.0614" x2="1.71003" y1="7.64481" y2="24.6479">
    <stop offset="0" stop-color="#f0ea4d"/>
    <stop offset=".874098" stop-color="#fc429d"/>
  </linearGradient>
  <linearGradient id="paint1_linear" gradientUnits="userSpaceOnUse" x1=".935593" x2="46.9356" y1="8.99997" y2="44">
    <stop offset="0" stop-color="#2a2139"/>
    <stop offset="1" stop-color="#413260"/>
  </linearGradient>
  <linearGradient id="paint2_linear" gradientUnits="userSpaceOnUse" x1="24" x2="24" y1="19" y2="35">
    <stop offset="0" stop-color="#0fe4f5"/>
    <stop offset="1" stop-color="#eb36ae"/>
  </linearGradient>
  <path d="m9.7481 2.99997c-2.90041 0-5.051-.095-6.6562 1.11914-.8135.61532-1.3536 1.54216-1.6641 2.7168-.3093 1.16994-.427804 2.61376-.427804 4.48829v9.4062 3.2696 12.2695c0 1.9522.052994 3.4414.267604 4.6445.21541 1.2059.6222 2.1846 1.3868 2.8653.7626.6789 1.7527.9599 2.8945 1.0918 1.1408.1317 2.4963.1289 4.1992.1289h28.5039c1.6708 0 3.0101.002 4.1445-.1289 1.1353-.1319 2.1255-.4114 2.8946-1.086.7708-.6762 1.1929-1.653 1.4199-2.8613.2265-1.2056.2871-2.6992.2871-4.6543v-18.5391c0-.2582-.0121-.4261-.014-.6054v-.0117l.014-1.875c.0129-1.8103.0189-3.2512-.1152-4.4551-.134-1.20425-.4167-2.23039-1.0957-3.02735-.682-.80032-1.6746-1.24023-2.8907-1.4707-1.2123-.22969-2.7045-.28516-4.6465-.28516h-15.9023l-3-3z" fill="#000" opacity=".1"/>
  <path d="m9.7481 1.99997c-2.90041 0-5.051-.095-6.6562 1.11914-.8135.61532-1.3536 1.54216-1.6641 2.7168-.3093 1.16994-.427804 2.61376-.427804 4.48829v8.6758h46.000004v-2.2696c0-.2582-.0121-.4261-.014-.6054v-.0117l.014-1.875c.0128-1.8103.0189-3.2512-.1152-4.45513-.134-1.20424-.4166-2.23038-1.0957-3.02734-.6819-.80032-1.6746-1.24023-2.8906-1.4707-1.2124-.22968-2.7045-.28516-4.6465-.28516h-15.9023l-3-3z" fill="url(#paint0_linear)"/>
  <path d="m38.2585 8.99997c2.9004 0 5.051-.095 6.6562 1.11913.8135.6153 1.3536 1.5422 1.6641 2.7168.3092 1.1699.4277 2.6138.4277 4.4883v9.4062 4.2696 4.2695c0 1.9522-.053 3.4414-.2676 4.6445-.2153 1.2059-.6221 2.1846-1.3867 2.8653-.7627.6789-1.7527.9599-2.8945 1.0918-1.1408.1317-2.4963.1289-4.1992.1289h-28.504c-1.6707 0-3.01011.002-4.14451-.1289-1.13519-.1319-2.12549-.4114-2.89449-1.086-.7709-.6762-1.193-1.653-1.4199-2.8613-.22649-1.2056-.28711-2.6992-.28711-4.6543v-11.5391c0-.2582.01209-.4261.01398-.6054v-.0117l-.01398-1.875c-.012855-1.8103-.018901-3.2512.1152-4.4551.134-1.2043.41661-2.2304 1.09571-3.0274.6819-.8003 1.67459-1.2402 2.8906-1.4707 1.21249-.2297 2.50718-.2929 4.64659-.2851h9.90231l3-3.00003z" fill="url(#paint1_linear)"/>
  <path d="m46.9356 31-12 12h4.6886c6.6316 0 7.3114-.6795 7.3114-7.2979z" fill="#fff" opacity=".05"/>
  <path d="m1.0001 34.2695v1c0 1.9522.05298 3.4414.26748 4.6445.21541 1.2059.62221 2.1846 1.3868 2.8653.7626.6789 1.75271.9599 2.89451 1.0918 1.1408.1317 2.4963.1289 4.1992.1289h28.50391c1.6708 0 3.0101.002 4.1445-.1289 1.1353-.1319 2.1255-.4114 2.8946-1.086.7708-.6762 1.1929-1.653 1.4199-2.8613.2265-1.2056.2871-2.6992.2871-4.6543v-1c0 1.9551-.061 3.4487-.2871 4.6543-.227 1.2083-.6491 2.1851-1.4199 2.8613-.7691.6746-1.7593.9541-2.8946 1.086-1.1344.1309-2.4737.1289-4.1445.1289h-28.50391c-1.7029 0-3.0584.003-4.1992-.1289-1.1418-.1319-2.13191-.4129-2.89451-1.0918-.76459-.6807-1.1714-1.6594-1.3868-2.8653-.21468-1.2031-.267599-2.6923-.26748-4.6445z" fill="#000" opacity=".2"/>
  <path d="m22.6563 8.99997-3 3.00003h-9.68754c-2.23438 0-3.64886.0555-4.86126.2851-1.216.2305-2.2087.6704-2.8906 1.4707-.6791.797-.9618 1.8231-1.0957 3.0274-.07299.6551-.10179 1.4-.11332 2.2168h.03901c.01701-.4234.03401-.8506.074-1.2168.13399-1.2043.4166-2.2304 1.0957-3.0274.6819-.8003 1.6746-1.2402 2.8906-1.4707 1.2124-.2297 2.92039-.2851 4.90841-.3007l9.6404.0156 3-3.00003h15.6016c2.9004 0 5.051-.095 6.6562 1.11913.8135.6153 1.3536 1.5422 1.6641 2.7168.3092 1.17.4277 2.6138.4277 4.4883v-1c0-1.8745-.1185-3.3183-.4277-4.4883-.3105-1.1746-.8506-2.1015-1.6641-2.7168-1.6052-1.21417-3.7558-1.11913-6.6562-1.11913z" fill="#fff" opacity=".2"/>
  <path d="m22.6563 7.99997-3 3.00003h-9.9023c-2.33212.0078-3.4341.0555-4.6465.2851-1.216.2305-2.2087.6704-2.8906 1.4707-.6791.797-.9618 1.8231-1.0957 3.0274-.07299.6551-.10179 1.4-.11332 2.2168h.03901c.01701-.4234.03401-.8506.074-1.2168.13399-1.2043.4166-2.2304 1.0957-3.0274.6819-.8003 1.6746-1.2402 2.8906-1.4707 1.2124-.2297 2.43969-.2929 4.6465-.2851h9.90231l3-3.00003h15.6016c2.9004 0 5.051-.095 6.6562 1.11913.8135.6153 1.3536 1.5422 1.6641 2.7168.3092 1.17.4277 2.6138.4277 4.4883v-1c0-1.8745-.1185-3.3183-.4277-4.4883-.3105-1.1746-.8506-2.10147-1.6641-2.71679-1.6052-1.21418-3.7558-1.11914-6.6562-1.11914z" fill="#472806" opacity=".1"/>
  <path d="m9.7481 1.99997c-2.90041 0-5.051-.095-6.6562 1.11914-.8135.61532-1.3536 1.54216-1.6641 2.7168-.3093 1.16994-.427804 2.61376-.427804 4.48829v1c0-1.87453.118494-3.31835.427804-4.48829.3105-1.17464.8505-2.10148 1.6641-2.7168 1.6052-1.21418 3.75579-1.11914 6.6562-1.11914h9.6016l3 3h15.9023c1.942 0 3.4341.0555 4.6465.28516 1.216.23047 2.2087.67039 2.8906 1.4707.6791.79696.9617 1.8231 1.0957 3.02737.067.6019.1 1.263.1133 2 0-1.128-.0189-2.1528-.1133-3.00003-.134-1.20424-.4166-2.23038-1.0957-3.02734-.6819-.80031-1.6746-1.24023-2.8906-1.4707-1.2124-.22968-2.7045-.28516-4.6465-.28516h-15.9023l-3-3zm37.2441 14.36723-.0098.746v.0118c0 .1793.014.3472.014.6054v-1c0-.1549 0-.2514-.0099-.3633z" fill="#fff" opacity=".2"/>
  <path d="m28.7206 19.0006c-.064-.0013-.1266-.0004-.1901.0027-1.4713.0746-2.6035 1.3279-2.5283 2.7992.0747 1.4714 1.3279 2.6036 2.7992 2.5283 1.4713-.0745 2.6035-1.3278 2.5283-2.7991-.0707-1.3976-1.21-2.5027-2.6091-2.531zm-.028 1.3332c.6995.0151 1.2692.5668 1.3045 1.2656.0374.7346-.5282 1.3603-1.2628 1.3982-.7347.0353-1.3604-.5283-1.3982-1.2629-.0374-.7347.5282-1.3604 1.2628-1.3983.0307-.0013.0626-.0026.0933-.0026zm-4.3225 2.0701-3.4991 2.4164c-.4345-.3064-.9507-.4761-1.4823-.4867-.064-.0014-.1266-.0006-.1901.0026-1.4713.0746-2.6035 1.328-2.5283 2.7993.0747 1.4714 1.3279 2.6036 2.7992 2.5284.5028-.0252.9875-.1961 1.3983-.4869l3.5016 2.4192.5938-1.1927-3.2154-2.2732c.1856-.3951.2715-.8295.25-1.2654-.0187-.3447-.1027-.6825-.25-.9948l3.2154-2.2731zm-5.01 3.2628c.6995.0151 1.2692.5665 1.3045 1.2654.0373.7347-.5282 1.3604-1.2628 1.3983-.7347.0352-1.3604-.5282-1.3983-1.2628-.0373-.7347.5282-1.3604 1.2628-1.3983.0307-.0014.0627-.0028.0934-.0028zm9.3605 3.9995c-.064-.0014-.1267-.0004-.1901.0028-1.4713.0745-2.6035 1.3278-2.5283 2.7991.0747 1.4714 1.3279 2.6036 2.7992 2.5284 1.4713-.0746 2.6035-1.3279 2.5283-2.7992-.0707-1.3976-1.2101-2.5026-2.6091-2.531zm-.028 1.3332c.6995.0151 1.2692.5668 1.3045 1.2656.0373.7346-.5282 1.3603-1.2628 1.3982-.7347.0353-1.3604-.5282-1.3983-1.2629-.0373-.7347.5283-1.3604 1.2629-1.3983.0306-.0013.0626-.0026.0933-.0026z" fill="url(#paint2_linear)"/>
</svg>
