<svg fill="none" height="48" viewBox="0 0 48 48" width="48" xmlns="http://www.w3.org/2000/svg" xmlns:xlink="http://www.w3.org/1999/xlink">
  <linearGradient id="paint0_linear" gradientUnits="userSpaceOnUse" x1="47.0614" x2="1.71003" y1="7.64481" y2="24.6479">
    <stop offset="0" stop-color="#f0ea4d"/>
    <stop offset=".874098" stop-color="#fc429d"/>
  </linearGradient>
  <linearGradient id="paint1_linear" gradientUnits="userSpaceOnUse" x1=".935604" x2="46.9356" y1="8.99998" y2="44">
    <stop offset="0" stop-color="#2a2139"/>
    <stop offset="1" stop-color="#413260"/>
  </linearGradient>
  <linearGradient id="paint2_linear" gradientUnits="userSpaceOnUse" x1="24" x2="24" y1="19" y2="35">
    <stop offset="0" stop-color="#0fe4f5"/>
    <stop offset="1" stop-color="#eb36ae"/>
  </linearGradient>
  <path d="m9.7481 2.99998c-2.9004 0-5.051-.095-6.6562 1.11914-.8135.61532-1.3536 1.54216-1.6641 2.7168-.30929 1.16994-.4278 2.61376-.4278 4.48828v9.4062 3.2696 12.2695c0 1.9522.05299 3.4414.2676 4.6445.21541 1.2059.62221 2.1846 1.3868 2.8653.7626.6789 1.75271.9599 2.89451 1.0918 1.1408.1317 2.4963.1289 4.1992.1289h28.50389c1.6708 0 3.0101.002 4.1445-.1289 1.1353-.1319 2.1255-.4114 2.8946-1.086.7708-.6762 1.1929-1.653 1.4199-2.8613.2265-1.2056.2871-2.6992.2871-4.6543v-18.5391c0-.2582-.0121-.4261-.014-.6054v-.0117l.014-1.875c.0129-1.8102.0189-3.2512-.1152-4.4551-.134-1.20424-.4167-2.23038-1.0957-3.02734-.682-.80032-1.6746-1.24023-2.8907-1.4707-1.2123-.22969-2.7045-.28516-4.6465-.28516h-15.9023l-3-3z" fill="#000" opacity=".1"/>
  <path d="m9.7481 1.99998c-2.9004 0-5.051-.095-6.6562 1.11914-.8135.61532-1.3536 1.54216-1.6641 2.7168-.3093 1.16994-.4278 2.61376-.4278 4.48828v8.6758h46v-2.2696c0-.2582-.0121-.4261-.014-.6054v-.0117l.014-1.875c.0129-1.8103.0189-3.2512-.1152-4.45512-.134-1.20424-.4166-2.23038-1.0957-3.02734-.6819-.80032-1.6746-1.24023-2.8906-1.4707-1.2124-.22968-2.7045-.28516-4.6465-.28516h-15.9023l-3-3z" fill="url(#paint0_linear)"/>
  <path d="m38.2585 8.99998c2.9004 0 5.051-.095 6.6562 1.11912.8135.6153 1.3536 1.5422 1.6641 2.7168.3092 1.17.4277 2.6138.4277 4.4883v9.4062 4.2696 4.2695c0 1.9522-.053 3.4414-.2676 4.6445-.2153 1.2059-.6221 2.1846-1.3867 2.8653-.7627.6789-1.7527.9599-2.8945 1.0918-1.1408.1317-2.4963.1289-4.1992.1289h-28.50399c-1.6707 0-3.0101.002-4.14451-.1289-1.13519-.1319-2.12549-.4114-2.89449-1.086-.7709-.6762-1.193-1.653-1.4199-2.8613-.22648-1.2056-.28711-2.6992-.28711-4.6543v-11.5391c0-.2582.0121-.4261.01398-.6054v-.0117l-.01398-1.875c-.012853-1.8103-.018899-3.2512.11521-4.4551.13399-1.2043.4166-2.2304 1.0957-3.0274.6819-.8003 1.6746-1.2402 2.8906-1.4707 1.2125-.2296 2.50718-.2929 4.6466-.2851h9.90229l3-3.00002z" fill="url(#paint1_linear)"/>
  <path d="m24 19c-.712 1.744-1.144 2.888-1.936 4.584.488.512 1.08 1.112 2.048 1.792-1.04-.432-1.752-.856-2.28-1.304-1.032 2.128-2.608 5.128-5.832 10.928 2.536-1.464 4.504-2.368 6.336-2.712-.08-.336-.128-.704-.12-1.088v-.08c.04-1.624.888-2.872 1.888-2.784 1 .08 1.776 1.464 1.736 3.096-.008.304-.04.6-.096.872 1.808.352 3.752 1.248 6.256 2.696-.496-.912-.936-1.728-1.352-2.504-.648-.512-1.36-1.184-2.768-1.896.968.24 1.664.528 2.208.856-4.28-7.96-4.624-9.016-6.088-12.456z" fill="url(#paint2_linear)"/>
  <path d="m46.9356 31-12 12h4.6886c6.6316 0 7.3114-.6795 7.3114-7.2979z" fill="#fff" opacity=".05"/>
  <path d="m1.00009 34.2695v1c0 1.9522.05299 3.4414.26749 4.6445.21541 1.2059.6222 2.1846 1.3868 2.8653.7626.6789 1.7527.9599 2.8945 1.0918 1.1408.1317 2.4963.1289 4.1992.1289h28.50392c1.6708 0 3.0101.002 4.1445-.1289 1.1353-.1319 2.1255-.4113 2.8946-1.086.7708-.6762 1.1929-1.653 1.4199-2.8613.2265-1.2056.2871-2.6992.2871-4.6543v-1c0 1.9551-.061 3.4487-.2871 4.6543-.227 1.2083-.6491 2.1851-1.4199 2.8613-.7691.6747-1.7593.9541-2.8946 1.086-1.1344.1309-2.4737.1289-4.1445.1289h-28.50392c-1.7029 0-3.0584.003-4.1992-.1289-1.1418-.1319-2.1319-.4129-2.8945-1.0918-.7646-.6807-1.1714-1.6594-1.3868-2.8653-.21469-1.2031-.2676-2.6923-.26749-4.6445z" fill="#000" opacity=".2"/>
  <path d="m22.6563 8.99998-3 3.00002h-9.68755c-2.23437 0-3.64886.0555-4.86126.2851-1.216.2305-2.2087.6704-2.8906 1.4707-.6791.797-.9618 1.8231-1.0957 3.0274-.07299.6551-.10179 1.4-.11332 2.2168h.03901c.01701-.4234.03402-.8506.07401-1.2168.13399-1.2043.4166-2.2304 1.09569-3.0274.68191-.8003 1.67461-1.2402 2.8906-1.4707 1.2124-.2296 2.92039-.2851 4.90842-.3007l9.6404.0156 3-3.00002h15.6016c2.9004 0 5.051-.095 6.6562 1.11912.8135.6153 1.3536 1.5422 1.6641 2.7168.3092 1.17.4277 2.6138.4277 4.4883v-1c0-1.8745-.1185-3.3183-.4277-4.4883-.3105-1.1746-.8506-2.1015-1.6641-2.7168-1.6052-1.21416-3.7558-1.11912-6.6562-1.11912z" fill="#fff" opacity=".2"/>
  <path d="m22.6563 7.99998-3 3.00002h-9.90231c-2.33211.0078-3.4341.0555-4.6465.2851-1.216.2305-2.2087.6704-2.8906 1.4707-.6791.797-.9618 1.8231-1.0957 3.0274-.07299.6551-.10179 1.4-.11332 2.2168h.03901c.01701-.4234.03402-.8506.07401-1.2168.13399-1.2043.4166-2.2304 1.09569-3.0274.68191-.8003 1.67461-1.2402 2.8906-1.4707 1.2124-.2296 2.4397-.2929 4.6465-.2851h9.90232l3-3.00002h15.6016c2.9004 0 5.051-.095 6.6562 1.11912.8135.6153 1.3536 1.5422 1.6641 2.7168.3092 1.17.4277 2.6138.4277 4.4883v-1c0-1.8745-.1185-3.3183-.4277-4.4883-.3105-1.1746-.8506-2.10146-1.6641-2.71678-1.6052-1.21418-3.7558-1.11914-6.6562-1.11914z" fill="#472806" opacity=".1"/>
  <path d="m9.7481 1.99998c-2.9004 0-5.051-.095-6.6562 1.11914-.8135.61532-1.3536 1.54216-1.6641 2.7168-.30929 1.16994-.4278 2.61376-.4278 4.48828v1c0-1.87452.11849-3.31834.4278-4.48828.3105-1.17464.8505-2.10148 1.6641-2.7168 1.6052-1.21418 3.7558-1.11914 6.6562-1.11914h9.6016l3 3h15.9023c1.942 0 3.4341.0555 4.6465.28516 1.216.23047 2.2087.67039 2.8906 1.4707.6791.79696.9617 1.8231 1.0957 3.02736.067.602.1 1.263.1133 2 0-1.128-.0189-2.1528-.1133-3.00002-.134-1.20424-.4166-2.23038-1.0957-3.02734-.6819-.80031-1.6746-1.24023-2.8906-1.4707-1.2124-.22968-2.7045-.28516-4.6465-.28516h-15.9023l-3-3zm37.2441 14.36722-.0098.7461v.0117c0 .1793.014.3472.014.6054v-1c0-.1549 0-.2514-.0099-.3633z" fill="#fff" opacity=".2"/>
</svg>
