<svg fill="none" height="48" viewBox="0 0 48 48" width="48" xmlns="http://www.w3.org/2000/svg" xmlns:xlink="http://www.w3.org/1999/xlink">
  <linearGradient id="paint0_linear" gradientUnits="userSpaceOnUse" x1="1" x2="1" y1="42.7" y2="44.7">
    <stop offset="0" stop-color="#8a826a"/>
    <stop offset="1" stop-color="#a69f8a"/>
  </linearGradient>
  <linearGradient id="lg1">
    <stop offset="0" stop-color="#746c58"/>
    <stop offset="1" stop-color="#8a836a"/>
  </linearGradient>
  <linearGradient id="paint1_linear" gradientUnits="userSpaceOnUse" x1="23" x2="23" xlink:href="#lg1" y1="37.7" y2="43.7"/>
  <linearGradient id="paint2_linear" gradientUnits="userSpaceOnUse" x1="20" x2="20" xlink:href="#lg1" y1="41.7" y2="45.7"/>
  <linearGradient id="paint3_linear" gradientUnits="userSpaceOnUse" x1="47.1262" x2="1.77488" y1="7.34482" y2="24.3479">
    <stop offset="0" stop-color="#f0ea4d"/>
    <stop offset=".874098" stop-color="#fc429d"/>
  </linearGradient>
  <linearGradient id="paint4_linear" gradientUnits="userSpaceOnUse" x1="1.00004" x2="47" y1="8.70005" y2="39.7001">
    <stop offset="0" stop-color="#2a2139"/>
    <stop offset="1" stop-color="#413260"/>
  </linearGradient>
  <path d="m21 42.7c-.554 0-1 .446-1 1h-19v2h19c0 .554.446 1 1 1h6c.554 0 1-.446 1-1h19v-2h-19c0-.554-.446-1-1-1z" fill="#000" opacity=".1"/>
  <path d="m1 42.7h46v2h-46z" fill="url(#paint0_linear)"/>
  <path d="m1 42.7h46v1h-46z" fill="#fff" opacity=".3"/>
  <path d="m25 38.7c0-.5523-.4477-1-1-1s-1 .4477-1 1v4c0 .5522.4477 1 1 1s1-.4478 1-1z" fill="url(#paint1_linear)"/>
  <path d="m27 41.7h-6c-.5523 0-1 .4403-1 .9835v2.0329c0 .5432.4477.9836 1 .9836h6c.5523 0 1-.4404 1-.9836v-2.0329c0-.5432-.4477-.9835-1-.9835z" fill="url(#paint2_linear)"/>
  <path d="m21 41.7c-.554 0-1 .4394-1 .9843v1c0-.5449.446-.9843 1-.9843h6c.554 0 1 .4394 1 .9843v-1c0-.5449-.446-.9843-1-.9843z" fill="#fff" opacity=".7"/>
  <path d="m9.81285 2.69998c-2.9004 0-5.051-.095-6.6563 1.11914-.8134.61532-1.3535 1.54216-1.664 2.7168-.3092 1.16994-.4277 2.61376-.4277 4.48828v9.4063 3.2695 8.2695c0 1.9522.053 3.4414.2675 4.6445.2154 1.2059.6221 2.1846 1.3867 2.8653.7627.6789 1.7527.9599 2.8946 1.0918 1.1407.1317 2.4963.1289 4.1992.1289h28.50385c1.6708 0 3.0101.002 4.1445-.1289 1.1353-.1319 2.1255-.4114 2.8946-1.086.7708-.6762 1.1929-1.653 1.4199-2.8613.2264-1.2056.2871-2.6992.2871-4.6543v-14.539c0-.2583-.0121-.4262-.0139-.6055v-.0117l.0139-1.875c.0129-1.8102.0189-3.2512-.1152-4.4551-.134-1.20424-.4167-2.23038-1.0957-3.02734-.682-.80032-1.6746-1.24023-2.8907-1.47071-1.2123-.22968-2.7045-.28515-4.6465-.28515h-15.9023l-3-3z" fill="#000" opacity=".1"/>
  <path d="m9.81285 1.69998c-2.9004 0-5.051-.095-6.6563 1.11914-.8134.61532-1.3535 1.54216-1.664 2.7168-.3092 1.16994-.4277 2.61376-.4277 4.48828v8.6758h45.99995v-2.2695c0-.2583-.0121-.4262-.0139-.6055v-.0117l.0139-1.875c.0129-1.8102.0189-3.2512-.1152-4.45512-.1341-1.20422-.4167-2.23036-1.0958-3.02732-.6819-.80032-1.6746-1.24023-2.8906-1.47071-1.2124-.22968-2.7045-.28515-4.6465-.28515h-15.9023l-3-3z" fill="url(#paint3_linear)"/>
  <path d="m38.3232 8.69998c2.9004 0 5.051-.095 6.6562 1.11914.8135.61528 1.3536 1.54218 1.6641 2.71678.3092 1.17.4277 2.6138.4277 4.4883v9.4063 4.2695.2695c0 1.9522-.053 3.4414-.2676 4.6445-.2153 1.2059-.6221 2.1846-1.3867 2.8653-.7626.6789-1.7527.9599-2.8945 1.0918-1.1408.1317-2.4963.1289-4.1992.1289h-28.50385c-1.6708 0-3.0102.002-4.1446-.1289-1.1353-.1319-2.1255-.4114-2.8945-1.086-.7709-.6762-1.193-1.653-1.4199-2.8613-.2265-1.2056-.2871-2.6992-.2871-4.6543v-7.539c0-.2583.012-.4262.014-.6055v-.0117l-.014-1.875c-.013-1.8102-.019-3.2511.1152-4.4551.134-1.2042.4166-2.2304 1.0957-3.0273.6819-.8004 1.6746-1.2403 2.8906-1.4707 1.2125-.2297 2.7143-.4803 4.6466-.2852h9.90225l3-3z" fill="url(#paint4_linear)"/>
  <path d="m47.0003 26.7-12 12h4.6886c6.6316 0 7.3114-.6796 7.3114-7.2979z" fill="#fff" opacity=".05"/>
  <path d="m1.06485 29.9695v1c0 1.9522.053 3.4414.2675 4.6445.2154 1.2059.6222 2.1846 1.3868 2.8653.7626.6789 1.7527.9599 2.8945 1.0917 1.1408.1318 2.4963.129 4.1992.129h28.50385c1.6708 0 3.0101.002 4.1445-.129 1.1353-.1318 2.1255-.4113 2.8946-1.0859.7708-.6762 1.1929-1.653 1.4199-2.8613.2264-1.2056.2871-2.6992.2871-4.6543v-1c0 1.9551-.061 3.4487-.2871 4.6543-.227 1.2083-.6491 2.1851-1.4199 2.8613-.7691.6746-1.7593.9541-2.8946 1.0859-1.1344.1309-2.4737.129-4.1445.129h-28.50385c-1.7029 0-3.0584.003-4.1992-.129-1.1419-.1318-2.1319-.4128-2.8946-1.0917-.7645-.6807-1.1713-1.6594-1.3867-2.8653-.2147-1.2031-.2675-2.6923-.2675-4.6445z" fill="#000" opacity=".2"/>
  <path d="m22.721 8.69998-3 3.00002h-9.90227c-1.9322-.1951-3.4341.0555-4.6465.2851-1.216.2305-2.2087.6704-2.8906 1.4707-.6791.797-.9618 1.8231-1.0958 3.0274-.073.6551-.1017 1.4-.1132 2.2168h.039c.017-.4234.034-.8506.074-1.2168.134-1.2043.4166-2.2304 1.0957-3.0274.6819-.8003 1.6746-1.2402 2.8906-1.4707 1.2124-.2296 2.7143-.4802 4.6465-.2851h9.90227l3-3.00002h15.6016c2.9004 0 5.051-.095 6.6562 1.11912.8135.6153 1.3536 1.5422 1.6641 2.7168.3092 1.17.4277 2.6138.4277 4.4883v-1c0-1.8745-.1185-3.3183-.4277-4.4883-.3105-1.1746-.8506-2.1015-1.6641-2.71678-1.6052-1.21418-3.7558-1.11914-6.6562-1.11914z" fill="#fff" opacity=".2"/>
  <path d="m22.721 7.69998-3 3.00002h-9.90227c-1.9322-.1951-3.4341.0555-4.6465.2851-1.216.2305-2.2087.6704-2.8906 1.4707-.6791.797-.9618 1.8231-1.0958 3.0274-.073.6551-.1017 1.4-.1132 2.2168h.039c.017-.4234.034-.8506.074-1.2168.134-1.2043.4166-2.2304 1.0957-3.0274.6819-.8003 1.6746-1.2402 2.8906-1.4707 1.2124-.2296 2.7143-.4802 4.6465-.2851h9.90227l3-3.00002h15.6016c2.9004 0 5.051-.095 6.6562 1.11914.8135.61528 1.3536 1.54218 1.6641 2.71678.3092 1.17.4277 2.6138.4277 4.4883v-1c0-1.8745-.1185-3.3183-.4277-4.4883-.3105-1.1746-.8506-2.10146-1.6641-2.71678-1.6052-1.21418-3.7558-1.11914-6.6562-1.11914z" fill="#472806" opacity=".1"/>
  <path d="m9.81285 1.69998c-2.9004 0-5.051-.095-6.6563 1.11914-.8134.61532-1.3535 1.54216-1.664 2.7168-.3092 1.16994-.4277 2.61376-.4277 4.48828v1c0-1.87452.1185-3.31834.4277-4.48828.3105-1.17464.8506-2.10148 1.664-2.7168 1.6053-1.21418 3.7559-1.11914 6.6563-1.11914h9.60155l3 3h15.9023c1.942 0 3.4341.0555 4.6465.28516 1.216.23047 2.2087.67038 2.8906 1.4707.6791.79696.9617 1.8231 1.0957 3.02736.0671.602.099 1.263.1134 2 0-1.1279-.0189-2.1528-.1134-3.00002-.1339-1.20424-.4166-2.23038-1.0957-3.02734-.6819-.80032-1.6746-1.24023-2.8906-1.4707-1.2124-.22969-2.7045-.28516-4.6465-.28516h-15.9023l-3-3zm37.24405 14.36722-.0098.7461v.0117c0 .1793.014.3472.014.6054v-1c0-.1549 0-.2514-.0098-.3632z" fill="#fff" opacity=".2"/>
</svg>
