<svg width="48" height="48" viewBox="0 0 48 48" fill="none" xmlns="http://www.w3.org/2000/svg">
    <g id="user-yaru-home">
        <path id="ombra" opacity="0.1" d="M9.7481 2.99997C6.8477 2.99997 4.6971 2.90497 3.0919 4.11911C2.2784 4.73443 1.7383 5.66127 1.4278 6.83591C1.11851 8.00585 1 9.44967 1 11.3242V20.7304V24V36.2695C1 38.2217 1.05299 39.7109 1.2676 40.914C1.48301 42.1199 1.88981 43.0986 2.6544 43.7793C3.417 44.4582 4.40711 44.7392 5.54891 44.8711C6.68971 45.0028 8.04521 45 9.74811 45H38.252C39.9228 45 41.2621 45.002 42.3965 44.8711C43.5318 44.7392 44.522 44.4597 45.2911 43.7851C46.0619 43.1089 46.484 42.1321 46.711 40.9238C46.9375 39.7182 46.9981 38.2246 46.9981 36.2695V17.7304C46.9981 17.4722 46.986 17.3043 46.9841 17.125V17.1133L46.9981 15.2383C47.011 13.428 47.017 11.9871 46.8829 10.7832C46.7489 9.57895 46.4662 8.55281 45.7872 7.75585C45.1052 6.95553 44.1126 6.51562 42.8965 6.28515C41.6842 6.05546 40.192 5.99999 38.25 5.99999H22.3477L19.3477 2.99999L9.7481 2.99997Z" fill="black"/>
        <path id="secondario" d="M9.7481 1.99997C6.8477 1.99997 4.6971 1.90497 3.0919 3.11911C2.2784 3.73443 1.7383 4.66127 1.4278 5.83591C1.1185 7.00585 1 8.44967 1 10.3242V19H47V16.7304C47 16.4722 46.9879 16.3043 46.986 16.125V16.1133L47 14.2383C47.0129 12.428 47.0189 10.9871 46.8848 9.78317C46.7508 8.57893 46.4682 7.55279 45.7891 6.75583C45.1072 5.95551 44.1145 5.5156 42.8985 5.28513C41.6861 5.05545 40.194 4.99997 38.252 4.99997H22.3497L19.3497 1.99997L9.7481 1.99997Z" fill="url(#paint0_linear)"/>
        <path id="primario" d="M38.2585 9.00003C41.1589 9.00003 43.3095 8.90503 44.9147 10.1192C45.7282 10.7345 46.2683 11.6613 46.5788 12.836C46.888 14.0059 47.0065 15.4497 47.0065 17.3242V26.7305V31V35.2696C47.0065 37.2218 46.9535 38.7109 46.7389 39.9141C46.5236 41.1199 46.1168 42.0986 45.3522 42.7793C44.5895 43.4583 43.5995 43.7393 42.4577 43.8711C41.3169 44.0029 39.9614 44 38.2585 44H9.75449C8.08379 44 6.74439 44.002 5.60999 43.8711C4.47479 43.7392 3.48449 43.4598 2.71549 42.7852C1.94459 42.109 1.52249 41.1322 1.29559 39.9239C1.06911 38.7182 1.00848 37.2246 1.00848 35.2696V23.7305C1.00848 23.4722 1.02058 23.3044 1.02247 23.125V23.1133L1.00848 21.2383C0.995633 19.4281 0.989587 17.9872 1.12369 16.7832C1.25768 15.579 1.54029 14.5529 2.21939 13.7559C2.90129 12.9556 3.89399 12.5157 5.10999 12.2852C6.32249 12.0555 7.61717 11.9922 9.75659 12H19.6589L22.6589 9.00003L38.2585 9.00003Z" fill="url(#paint1_linear)"/>
        <path id="effetto piega" opacity="0.05" d="M46.9356 31L34.9356 43H39.6242C46.2558 43 46.9356 42.3205 46.9356 35.7021V31Z" fill="white"/>
        <path id="contorno inferiore del primario" opacity="0.2" d="M1.00009 34.2695V35.2695C1.00009 37.2218 1.05308 38.7109 1.26758 39.9141C1.48299 41.1199 1.88978 42.0986 2.65438 42.7793C3.41698 43.4583 4.40708 43.7392 5.54888 43.8711C6.68968 44.0029 8.04518 44 9.74808 44H38.252C39.9228 44 41.2621 44.002 42.3965 43.8711C43.5318 43.7392 44.522 43.4598 45.2911 42.7852C46.0619 42.1089 46.484 41.1322 46.711 39.9238C46.9375 38.7182 46.9981 37.2246 46.9981 35.2695V34.2695C46.9981 36.2246 46.9371 37.7182 46.711 38.9238C46.484 40.1322 46.0619 41.1089 45.2911 41.7852C44.522 42.4598 43.5318 42.7392 42.3965 42.8711C41.2621 43.002 39.9228 43 38.252 43H9.74808C8.04518 43 6.68968 43.003 5.54888 42.8711C4.40708 42.7392 3.41698 42.4583 2.65438 41.7793C1.88978 41.0986 1.48298 40.1199 1.26758 38.9141C1.05289 37.7109 0.999978 36.2218 1.00009 34.2695Z" fill="black"/>
        <path id="contorno superiore del primario" opacity="0.2" d="M22.6563 9.00003L19.6563 12L9.96876 12.0001C7.73438 12.0001 6.3199 12.0555 5.1075 12.2852C3.8915 12.5157 2.8988 12.9556 2.2169 13.7559C1.5378 14.5529 1.2551 15.579 1.1212 16.7832C1.04821 17.4384 1.01941 18.1833 1.00788 19H1.04689C1.0639 18.5767 1.0809 18.1495 1.12089 17.7832C1.25488 16.579 1.53749 15.5529 2.21659 14.7559C2.89849 13.9556 3.89119 13.5157 5.10719 13.2852C6.31959 13.0555 8.02758 13.0001 10.0156 12.9844L19.656 13L22.656 10H38.2576C41.158 10 43.3086 9.90503 44.9138 11.1192C45.7273 11.7345 46.2674 12.6613 46.5779 13.836C46.8871 15.0059 47.0056 16.4497 47.0056 18.3243V17.3243C47.0056 15.4497 46.8871 14.0059 46.5779 12.836C46.2674 11.6613 45.7273 10.7345 44.9138 10.1192C43.3086 8.90499 41.158 9.00003 38.2576 9.00003H22.6563Z" fill="white"/>
        <path id="ombra del primario" opacity="0.1" d="M22.6563 8.00003L19.6563 11H9.754C7.42188 11.0079 6.3199 11.0555 5.1075 11.2852C3.8915 11.5157 2.8988 11.9556 2.2169 12.7559C1.5378 13.5529 1.2551 14.579 1.1212 15.7832C1.04821 16.4384 1.01941 17.1833 1.00788 18H1.04689C1.0639 17.5767 1.0809 17.1495 1.12089 16.7832C1.25488 15.579 1.53749 14.5529 2.21659 13.7559C2.89849 12.9556 3.89119 12.5157 5.10719 12.2852C6.31959 12.0555 7.54688 11.9922 9.75369 12H19.656L22.656 9.00003H38.2576C41.158 9.00003 43.3086 8.90503 44.9138 10.1192C45.7273 10.7345 46.2674 11.6613 46.5779 12.836C46.8871 14.0059 47.0056 15.4497 47.0056 17.3243V16.3243C47.0056 14.4497 46.8871 13.0059 46.5779 11.836C46.2674 10.6613 45.7273 9.73449 44.9138 9.11917C43.3086 7.90499 41.158 8.00003 38.2576 8.00003H22.6563Z" fill="#144706"/>
        <path id="contorno superiore del secondario" opacity="0.2" d="M9.7481 1.99997C6.8477 1.99997 4.6971 1.90497 3.0919 3.11911C2.2784 3.73443 1.7383 4.66127 1.4278 5.83591C1.11851 7.00585 1 8.44967 1 10.3242V11.3242C1 9.44967 1.11849 8.00585 1.4278 6.83591C1.7383 5.66127 2.2783 4.73443 3.0919 4.11911C4.6971 2.90493 6.8477 2.99997 9.7481 2.99997H19.3497L22.3497 5.99997H38.252C40.194 5.99997 41.6861 6.05547 42.8985 6.28513C44.1145 6.5156 45.1072 6.95552 45.7891 7.75583C46.4682 8.55279 46.7508 9.57893 46.8848 10.7832C46.9518 11.3851 46.9848 12.0462 46.9981 12.7832C46.9981 11.6552 46.9792 10.6304 46.8848 9.78317C46.7508 8.57893 46.4682 7.55279 45.7891 6.75583C45.1072 5.95552 44.1145 5.5156 42.8985 5.28513C41.6861 5.05545 40.194 4.99997 38.252 4.99997H22.3497L19.3497 1.99997L9.7481 1.99997ZM46.9922 16.3672L46.9824 17.1132V17.125C46.9824 17.3043 46.9964 17.4722 46.9964 17.7304V16.7304C46.9964 16.5755 46.9964 16.479 46.9865 16.3671L46.9922 16.3672Z" fill="white"/>
        <path id="casa" fill-rule="evenodd" clip-rule="evenodd" d="M16.0347 26.9999L24.0346 19L32.0345 26.9996L31.1443 27.8901L30.3303 27.0759V34.9997H29.0712V25.8169L24.0346 20.7802L18.9981 25.8169V33.7406H22.7755V28.7041H25.5637C25.5937 28.7153 25.6446 28.7303 25.6858 28.7424C25.7126 28.7503 25.7353 28.757 25.7458 28.7607C25.9464 28.844 26.1032 28.9658 26.2203 29.1223C26.3426 29.274 26.4295 29.4581 26.4786 29.6732C26.5277 29.8884 26.5529 30.1246 26.5529 30.384V33.9719V35H17.7389V27.0762L16.9249 27.8903L16.0347 26.9999ZM15.9655 27.7297L15.9831 27.7107L16.0171 27.7811L15.9655 27.7297ZM30.3303 21.1496H27.812L30.3303 23.6679V21.1496Z" fill="#DCE6B8"/>
    </g>
    <defs>
        <linearGradient id="paint0_linear" x1="47.0614" y1="7.64481" x2="1.71003" y2="24.6479" gradientUnits="userSpaceOnUse">
            <stop stop-color="#46A926"/>
            <stop offset="0.874098" stop-color="#89AA27"/>
        </linearGradient>
        <linearGradient id="paint1_linear" x1="0.93559" y1="9.00003" x2="46.9356" y2="44" gradientUnits="userSpaceOnUse">
            <stop stop-color="#A6D74F"/>
            <stop offset="1" stop-color="		#76C22B"/>
        </linearGradient>
    </defs>
</svg>
