<?xml version="1.0" encoding="UTF-8" standalone="no"?>
<svg
   xmlns:dc="http://purl.org/dc/elements/1.1/"
   xmlns:cc="http://creativecommons.org/ns#"
   xmlns:rdf="http://www.w3.org/1999/02/22-rdf-syntax-ns#"
   xmlns:svg="http://www.w3.org/2000/svg"
   xmlns="http://www.w3.org/2000/svg"
   xmlns:xlink="http://www.w3.org/1999/xlink"
   xmlns:sodipodi="http://sodipodi.sourceforge.net/DTD/sodipodi-0.dtd"
   xmlns:inkscape="http://www.inkscape.org/namespaces/inkscape"
   width="48"
   height="48"
   version="1.1"
   viewBox="0 0 12.699375 12.699375"
   id="svg94"
   sodipodi:docname="user-desktop.svg"
   inkscape:version="0.92.4 (5da689c313, 2019-01-14)">
  <metadata
     id="metadata98">
    <rdf:RDF>
      <cc:Work
         rdf:about="">
        <dc:format>image/svg+xml</dc:format>
        <dc:type
           rdf:resource="http://purl.org/dc/dcmitype/StillImage" />
        <dc:title></dc:title>
      </cc:Work>
    </rdf:RDF>
  </metadata>
  <sodipodi:namedview
     pagecolor="#ffffff"
     bordercolor="#666666"
     borderopacity="1"
     objecttolerance="10"
     gridtolerance="10"
     guidetolerance="10"
     inkscape:pageopacity="0"
     inkscape:pageshadow="2"
     inkscape:window-width="1920"
     inkscape:window-height="1016"
     id="namedview96"
     showgrid="false"
     inkscape:zoom="17.479167"
     inkscape:cx="11.327771"
     inkscape:cy="24"
     inkscape:window-x="0"
     inkscape:window-y="27"
     inkscape:window-maximized="1"
     inkscape:current-layer="svg94" />
  <defs
     id="defs75">
    <linearGradient
       id="linearGradient21865"
       x1="1278"
       x2="1278"
       y1="-1062.6379"
       y2="-1118.6379"
       gradientTransform="matrix(2,0,0,2.00002,-1069,630.656)"
       gradientUnits="userSpaceOnUse"
       xlink:href="#linearGradient8754" />
    <linearGradient
       id="linearGradient8754">
      <stop
         id="stop8756"
         offset="0"
         style="stop-color:#dc85e9" />
      <stop
         id="stop8758"
         offset="1"
         style="stop-color:#f8dcfb" />
    </linearGradient>
    <linearGradient
       id="linearGradient21867"
       x1="1559.5"
       x2="1542"
       y1="184"
       y2="184"
       gradientTransform="matrix(-1,0,0,1,2865,-1753.64)"
       gradientUnits="userSpaceOnUse"
       xlink:href="#linearGradient8742" />
    <linearGradient
       id="linearGradient8742">
      <stop
         id="stop8744"
         offset="0"
         style="stop-color:#9200ff" />
      <stop
         id="stop8746"
         offset="1"
         style="stop-color:#ff00ff;stop-opacity:0" />
    </linearGradient>
    <linearGradient
       id="linearGradient21869"
       x1="1559.5"
       x2="1542"
       y1="184"
       y2="184"
       gradientTransform="translate(-123,-1753.64)"
       gradientUnits="userSpaceOnUse"
       xlink:href="#linearGradient8742" />
    <radialGradient
       id="radialGradient21871"
       cx="152.33299"
       cy="-754.638"
       r="15"
       fx="152.33299"
       fy="-754.638"
       gradientTransform="matrix(4.06286e-6,1.01528,-4.27735,0,-1857.01,-1670.52)"
       gradientUnits="userSpaceOnUse"
       xlink:href="#linearGradient8717" />
    <linearGradient
       id="linearGradient8717">
      <stop
         id="stop8719"
         offset="0"
         style="stop-color:#800080" />
      <stop
         id="stop8723"
         offset=".727"
         style="stop-color:#800080" />
      <stop
         id="stop8721"
         offset="1"
         style="stop-color:#ff00ff;stop-opacity:0" />
    </linearGradient>
    <linearGradient
       id="linearGradient21873"
       x1="453.5"
       x2="404.5"
       y1="970.5"
       y2="970.5"
       gradientTransform="matrix(2,0,0,2,513,-3495.64)"
       gradientUnits="userSpaceOnUse"
       xlink:href="#linearGradient8964" />
    <linearGradient
       id="linearGradient8964">
      <stop
         id="stop8966"
         offset="0"
         style="stop-color:#e196fb" />
      <stop
         id="stop8968"
         offset=".13"
         style="stop-color:#f4c7fa" />
      <stop
         id="stop8970"
         offset=".314"
         style="stop-color:#e091f3" />
      <stop
         id="stop8972"
         offset=".441"
         style="stop-color:#d764e9" />
      <stop
         id="stop8974"
         offset=".684"
         style="stop-color:#e7adf0" />
      <stop
         id="stop8976"
         offset=".756"
         style="stop-color:#e6a9f8" />
      <stop
         id="stop8978"
         offset=".88"
         style="stop-color:#e595f2" />
      <stop
         id="stop8980"
         offset="1"
         style="stop-color:#f2cbf8" />
    </linearGradient>
    <linearGradient
       id="linearGradient21875"
       x1="1322"
       x2="1419"
       y1="-1568.511"
       y2="-1568.511"
       gradientTransform="translate(0.022825,4.5e-5)"
       gradientUnits="userSpaceOnUse"
       xlink:href="#linearGradient8663" />
    <linearGradient
       id="linearGradient8663">
      <stop
         id="stop8665"
         offset="0"
         style="stop-color:#9207a7" />
      <stop
         id="stop8667"
         offset=".273"
         style="stop-color:#c658bc" />
      <stop
         id="stop8669"
         offset=".51"
         style="stop-color:#a42eb6" />
      <stop
         id="stop8671"
         offset=".834"
         style="stop-color:#b415cd" />
      <stop
         id="stop8673"
         offset="1"
         style="stop-color:#950ba8" />
    </linearGradient>
    <radialGradient
       id="radialGradient21877"
       cx="518.854"
       cy="730.48401"
       r="22.889999"
       fx="518.854"
       fy="730.48401"
       gradientTransform="matrix(0.959821,0,1.35768e-7,0.268231,21.681,534.374)"
       gradientUnits="userSpaceOnUse"
       xlink:href="#linearGradient14494" />
    <linearGradient
       id="linearGradient14494">
      <stop
         id="stop14496"
         offset="0"
         style="stop-color:#dc85e9" />
      <stop
         id="stop14498"
         offset="1"
         style="stop-color:#f2cbf8" />
    </linearGradient>
    <linearGradient
       id="linearGradient8859">
      <stop
         id="stop8861"
         offset="0"
         style="stop-color:#ffffff" />
      <stop
         id="stop8863"
         offset="1"
         style="stop-color:#aa0000;stop-opacity:0" />
    </linearGradient>
    <linearGradient
       id="linearGradient21881"
       x1="1510.4771"
       x2="1485.877"
       y1="169"
       y2="194"
       gradientTransform="matrix(0.984483,0,0,0.972527,-100.349,-1748.97)"
       gradientUnits="userSpaceOnUse"
       xlink:href="#linearGradient8984" />
    <linearGradient
       id="linearGradient8984">
      <stop
         id="stop8986"
         offset="0"
         style="stop-color:#ffffff" />
      <stop
         id="stop8988"
         offset="1"
         style="stop-color:#ffffff;stop-opacity:0" />
    </linearGradient>
    <linearGradient
       id="linearGradient21883"
       x1="1354.568"
       x2="1383.38"
       y1="-1522.359"
       y2="-1543.981"
       gradientTransform="matrix(0.976263,0.126435,-0.367421,0.97673,-556.181,-210.596)"
       gradientUnits="userSpaceOnUse"
       xlink:href="#linearGradient8984" />
    <linearGradient
       id="linearGradient7701">
      <stop
         id="stop7699"
         offset="0"
         style="stop-color:#950ba8" />
      <stop
         id="stop7693"
         offset="1"
         style="stop-color:#c557bc" />
    </linearGradient>
    <radialGradient
       id="radialGradient21871-3"
       cx="152.33299"
       cy="-754.638"
       r="15"
       fx="152.33299"
       fy="-754.638"
       gradientTransform="matrix(4.06286e-6,1.01528,-4.27735,0,-1857.01,-1670.52)"
       gradientUnits="userSpaceOnUse"
       xlink:href="#linearGradient8717" />
    <radialGradient
       id="radialGradient21877-8"
       cx="518.854"
       cy="730.48401"
       r="22.889999"
       fx="518.854"
       fy="730.48401"
       gradientTransform="matrix(0.959821,0,1.35768e-7,0.268231,21.681,534.374)"
       gradientUnits="userSpaceOnUse"
       xlink:href="#linearGradient14494" />
    <linearGradient
       id="linearGradient9981">
      <stop
         id="stop9983"
         offset="0"
         style="stop-color:rgb(255, 246, 221)" />
      <stop
         id="stop9985"
         offset="1"
         style="stop-color:rgb(254, 248, 244)" />
    </linearGradient>
    <clipPath
       id="clipPath999"
       clipPathUnits="userSpaceOnUse">
      <path
         style="opacity:0.56300001;fill:#111111"
         d="m 142.9375,44 h 18.125 c 35.90898,0 54.29517,3.184359 63.02539,11.925781 C 232.81811,64.667204 236,80 236,112 c 0,32 -3.18189,47.3328 -11.91211,56.07422 C 215.35767,176.81564 196.97148,180 161.0625,180 h -18.125 C 107.02867,180 88.64237,176.81566 79.912109,168.07422 71.181849,159.33278 68,144 68,112 68,80 71.181849,64.667219 79.912109,55.925781 88.64237,47.184344 107.02867,44 142.9375,44 Z"
         id="path53"
         inkscape:connector-curvature="0" />
    </clipPath>
    <linearGradient
       id="linearGradient3886"
       x1="72"
       x2="88"
       y1="108"
       y2="108"
       gradientUnits="userSpaceOnUse"
       xlink:href="#linearGradient2684" />
    <linearGradient
       id="linearGradient2684">
      <stop
         style="stop-color:#000000"
         id="stop2680"
         offset="0" />
      <stop
         style="stop-color:#103134"
         id="stop2682"
         offset="1" />
    </linearGradient>
    <clipPath
       id="clipPath960"
       clipPathUnits="userSpaceOnUse">
      <path
         d="M 244,192.96875 C 244,265.6174 233.64338,276 161.0625,276 h -18.125 C 70.35691,276 60,265.6174 60,192.96875 v -73.9375 C 60,46.3826 70.35691,36 142.9375,36 h 18.125 C 233.64338,36 244,46.3826 244,119.03125 Z"
         style="fill:#2daaaa"
         id="path60"
         inkscape:connector-curvature="0" />
    </clipPath>
    <linearGradient
       id="linearGradient928">
      <stop
         style="stop-color:#808080"
         id="stop924"
         offset="0" />
      <stop
         style="stop-color:#999999"
         id="stop926"
         offset="1" />
    </linearGradient>
    <linearGradient
       id="linearGradient1884"
       x1="152.006"
       x2="152.006"
       y1="112.013"
       y2="239.995"
       gradientTransform="matrix(0.26488626,0,0,0.26488626,-6.4611988,222.04517)"
       gradientUnits="userSpaceOnUse"
       xlink:href="#linearGradient928" />
    <linearGradient
       id="linearGradient3212"
       x1="529.65503"
       x2="-35.310001"
       y1="295.638"
       y2="295.638"
       gradientTransform="matrix(0,-0.11988932,-0.11988589,0,67.723427,291.97285)"
       gradientUnits="userSpaceOnUse"
       xlink:href="#linearGradient876" />
    <linearGradient
       id="linearGradient876">
      <stop
         style="stop-color:#b3b3b3"
         id="stop872"
         offset="0" />
      <stop
         style="stop-color:#d9d9d9"
         id="stop874"
         offset="1" />
    </linearGradient>
    <filter
       style="color-interpolation-filters:sRGB"
       id="filter1203"
       width="1.136"
       height="1.107"
       x="-0.07"
       y="-0.050000001">
      <feGaussianBlur
         id="feGaussianBlur1205"
         stdDeviation="10" />
    </filter>
    <filter
       style="color-interpolation-filters:sRGB"
       id="filter4346"
       width="1.026"
       height="1.022"
       x="-0.0099999998"
       y="-0.0099999998">
      <feGaussianBlur
         id="feGaussianBlur4348"
         stdDeviation="2.12" />
    </filter>
    <clipPath
       clipPathUnits="userSpaceOnUse"
       id="clipPath994-5">
      <path
         style="color:#000000;display:inline;overflow:visible;visibility:visible;fill:#cdcdcd;fill-opacity:1;fill-rule:nonzero;stroke:none;stroke-width:2;stroke-miterlimit:4;stroke-dasharray:none;stroke-opacity:1;marker:none;enable-background:accumulate"
         d="m 335.73108,62 c -8.82418,0 -9.77365,0.90635 -9.7304,9.74838 V 84 96.25162 c -0.0433,8.84203 0.90622,9.74838 9.7304,9.74838 h 16.53919 c 8.82418,0 9.7304,-0.90625 9.7304,-9.74838 V 84 71.74838 C 362.00067,62.90625 361.09445,62 352.27027,62 Z"
         id="path996-3"
         inkscape:connector-curvature="0"
         sodipodi:nodetypes="scccssscsss" />
    </clipPath>
    <clipPath
       clipPathUnits="userSpaceOnUse"
       id="clipPath1237">
      <path
         style="opacity:1;fill:url(#linearGradient1241);fill-opacity:1;stroke:none;stroke-width:2;stroke-linecap:round;stroke-linejoin:round;stroke-miterlimit:4;stroke-dasharray:none;stroke-dashoffset:0;stroke-opacity:1"
         d="M 351.93164,62.5 C 365.55326,62.5 367.5,64.44187 367.5,78.05078 V 89.94922 C 367.5,103.55808 365.55326,105.5 351.93164,105.5 H 336.06836 C 322.44674,105.5 320.5,103.55808 320.5,89.94922 V 78.05078 C 320.5,64.44187 322.44674,62.5 336.06836,62.5 Z"
         id="path1239"
         inkscape:connector-curvature="0"
         sodipodi:nodetypes="sssssssss" />
    </clipPath>
    <linearGradient
       id="linearGradient11065"
       x1="104"
       x2="200"
       y1="44"
       y2="268"
       gradientTransform="matrix(0.26457031,0,0,0.26457031,-9.5636346,-50.657484)"
       gradientUnits="userSpaceOnUse"
       xlink:href="#linearGradient954" />
    <linearGradient
       id="linearGradient954">
      <stop
         id="stop950"
         offset="0"
         style="stop-color:#faf8f6" />
      <stop
         id="stop952"
         offset="1"
         style="stop-color:#f1f0e9" />
    </linearGradient>
    <linearGradient
       gradientTransform="matrix(0.26457031,0,0,0.26457031,-84.662309,-16.138982)"
       inkscape:collect="always"
       xlink:href="#linearGradient927-3-6"
       id="linearGradient945"
       x1="348"
       y1="65"
       x2="348"
       y2="105"
       gradientUnits="userSpaceOnUse" />
    <linearGradient
       inkscape:collect="always"
       id="linearGradient927-3-6">
      <stop
         style="stop-color:#ffffff;stop-opacity:1;"
         offset="0"
         id="stop923-3" />
      <stop
         id="stop933-6"
         offset="0.125"
         style="stop-color:#ffffff;stop-opacity:0.09803922" />
      <stop
         id="stop931-7"
         offset="0.92500001"
         style="stop-color:#ffffff;stop-opacity:0.09803922" />
      <stop
         style="stop-color:#000000;stop-opacity:0.49803922"
         offset="1"
         id="stop925-5" />
    </linearGradient>
    <linearGradient
       inkscape:collect="always"
       xlink:href="#linearGradient1674"
       id="linearGradient962"
       gradientUnits="userSpaceOnUse"
       gradientTransform="matrix(0.02997086,0,0,0.02997,-1.0582707,-2.7753334)"
       x1="512"
       y1="397.99393"
       x2="-1.0000001e-06"
       y2="125.99394" />
    <linearGradient
       inkscape:collect="always"
       id="linearGradient1674">
      <stop
         id="stop1670"
         offset="0"
         style="stop-color:#fb7c38;stop-opacity:1" />
      <stop
         id="stop1672"
         offset="1"
         style="stop-color:#9b33ae;stop-opacity:1" />
    </linearGradient>
  </defs>
  <path
     style="color:#000000;font-style:normal;font-variant:normal;font-weight:normal;font-stretch:normal;font-size:medium;line-height:normal;font-family:sans-serif;font-variant-ligatures:normal;font-variant-position:normal;font-variant-caps:normal;font-variant-numeric:normal;font-variant-alternates:normal;font-feature-settings:normal;text-indent:0;text-align:start;text-decoration:none;text-decoration-line:none;text-decoration-style:solid;text-decoration-color:#000000;letter-spacing:normal;word-spacing:normal;text-transform:none;writing-mode:lr-tb;direction:ltr;text-orientation:mixed;dominant-baseline:auto;baseline-shift:baseline;text-anchor:start;white-space:normal;shape-padding:0;clip-rule:nonzero;display:inline;overflow:visible;visibility:visible;opacity:0.1;isolation:auto;mix-blend-mode:normal;color-interpolation:sRGB;color-interpolation-filters:linearRGB;solid-color:#000000;solid-opacity:1;vector-effect:none;fill:#000000;fill-opacity:1;fill-rule:nonzero;stroke:none;stroke-width:0.52914065;stroke-linecap:butt;stroke-linejoin:miter;stroke-miterlimit:4;stroke-dasharray:none;stroke-dashoffset:0;stroke-opacity:1;marker:none;color-rendering:auto;image-rendering:auto;shape-rendering:auto;text-rendering:auto;enable-background:accumulate"
     d="m 0.26457031,9.0663152 c 0,0.5881821 0.013546,1.0513178 0.077511,1.4323998 0.063968,0.381085 0.1839531,0.692924 0.4118407,0.921348 0.22788502,0.228422 0.53958319,0.348985 0.92082639,0.412357 0.3812458,0.06337 0.8453947,0.07574 1.4349844,0.07286 h 3.2399545 3.2415022 c 0.5886855,0.0029 1.0525985,-0.0096 1.4334335,-0.07286 0.381246,-0.06337 0.692944,-0.183935 0.920829,-0.412357 0.227885,-0.228424 0.347873,-0.540263 0.411841,-0.921348 0.06397,-0.381085 0.07751,-0.8442177 0.07751,-1.4323998 V 4.6905709 c 0,-0.5881821 -0.01352,-1.0510743 -0.07751,-1.4313677 C 12.293296,2.8789098 12.172904,2.5680238 11.944937,2.3404431 11.716971,2.1128597 11.405495,1.9930094 11.024624,1.9291183 10.643757,1.8652272 10.180549,1.8516072 9.5911897,1.8516072 H 6.3496875 3.1081826 c -0.5893595,0 -1.0525639,0.013625 -1.433434,0.077511 -0.3808675,0.063891 -0.69234344,0.1837413 -0.92031049,0.4113247 -0.227967,0.2275807 -0.3483623,0.5384667 -0.4123566,0.9187601 -0.063997,0.3802934 -0.077511,0.8431856 -0.077511,1.4313677 z"
     id="path1020"
     inkscape:connector-curvature="0"
     sodipodi:nodetypes="sccsccccccsscccscsccsss" />
  <path
     inkscape:connector-curvature="0"
     style="color:#000000;display:inline;overflow:visible;visibility:visible;fill:url(#linearGradient962);fill-opacity:1;fill-rule:nonzero;stroke:none;stroke-width:0.26457033;marker:none;enable-background:accumulate"
     d="m 3.1083757,1.0580875 c -0.589206,0 -1.053257,0.013133 -1.4339525,0.076994 -0.3810501,0.063921 -0.69168733,0.1836015 -0.91979459,0.411324 -0.2281866,0.2278012 -0.3483332,0.5388375 -0.4123566,0.9192785 -0.02279,0.1354266 -0.037431,0.2859427 -0.049091,0.4443954 -0.021055,0.286176 -0.02842,0.6084581 -0.02842,0.9869714 v 4.9048854 c 0,0.5880983 0.013599,1.0515998 0.077511,1.4324006 0.064002,0.381274 0.1838552,0.692305 0.4118407,0.920828 0.22802523,0.228565 0.53941649,0.348958 0.92082899,0.412359 0.380759,0.06329 0.8447095,0.07625 1.43395,0.07338 H 6.349878 9.5903484 c 0.5892356,0.0029 1.0536996,-0.01008 1.4344666,-0.07338 0.381412,-0.0634 0.692285,-0.183791 0.920312,-0.412359 0.227983,-0.228523 0.347839,-0.539552 0.411841,-0.920828 0.06392,-0.3808074 0.07803,-0.8443042 0.07803,-1.4324006 V 3.897051 c 0,-0.3785038 -0.0072,-0.7008002 -0.02842,-0.9869714 C 12.394828,2.751619 12.379758,2.6011171 12.356968,2.4656841 12.292947,2.0852425 12.173316,1.7742068 11.945127,1.5464057 11.717021,1.3186832 11.40587,1.1990027 11.024815,1.1350817 10.646498,1.0716169 10.241602,1.0580875 9.5913802,1.0580875 H 6.349878 Z"
     id="path958"
     inkscape:export-xdpi="95.996666"
     inkscape:export-ydpi="95.996666" />
  <path
     style="display:inline;opacity:0.3;vector-effect:none;fill:#000000;fill-opacity:1;stroke:none;stroke-width:0.2645703;stroke-linecap:butt;stroke-linejoin:miter;stroke-miterlimit:4;stroke-dasharray:none;stroke-dashoffset:0;stroke-opacity:1;enable-background:new"
     d="m 2.8240261,1.0586042 c -0.5220871,4.763e-4 -0.9378514,0.013758 -1.2777529,0.076477 -0.3464098,0.063921 -0.62880679,0.1836015 -0.83617699,0.411324 -0.2074443,0.2278012 -0.3166669,0.5388377 -0.3748697,0.9192785 -0.020711,0.1354272 -0.034029,0.2859427 -0.04463,0.4443954 -0.019139,0.2861762 -0.025835,0.6084581 -0.025835,0.9869714 v 4.9048854 c 0,0.5880983 0.012355,1.0515988 0.070466,1.4324006 0.058182,0.381271 0.1671396,0.692305 0.3743987,0.920828 0.2072962,0.228565 0.49037849,0.348958 0.83711899,0.412359 0.3461426,0.06329 0.767918,0.07625 1.3035908,0.07338 H 2.910465 V 1.0586042 Z"
     id="rect1767-6"
     inkscape:connector-curvature="0"
     sodipodi:nodetypes="cccccssccccccc"
     inkscape:export-xdpi="95.996666"
     inkscape:export-ydpi="95.996666" />
  <path
     id="path901"
     d="m 0.39686341,8.8017544 c 0,0.5859201 0.014472,1.0443172 0.075961,1.4106966 0.061502,0.366379 0.173119,0.647009 0.3751528,0.849519 0.20203379,0.20251 0.48213699,0.314257 0.84848489,0.375153 0.3663478,0.0609 0.825036,0.07418 1.4122472,0.07131 h 3.2409863 3.2415049 c 0.5869045,0.0029 1.0455165,-0.01042 1.4117295,-0.07131 0.366348,-0.0609 0.646451,-0.17264 0.848485,-0.375153 0.202033,-0.202513 0.31365,-0.483137 0.375152,-0.849519 0.0615,-0.3663794 0.07596,-0.8247765 0.07596,-1.4106966 V 3.8968695 c 0,-0.5859174 -0.01445,-1.0436082 -0.07596,-1.4091465 C 12.165057,2.1221848 12.053491,1.8420022 11.851415,1.64027 11.649341,1.4385378 11.36909,1.3270584 11.00293,1.2656358 10.63677,1.2042105 10.239514,1.1901909 9.5912005,1.1901909 H 6.3496954 3.1081932 c -0.5871001,0 -1.0455713,0.014022 -1.4117313,0.075445 -0.36616,0.061423 -0.6464114,0.172902 -0.84848489,0.3746342 -0.2020735,0.2017322 -0.3136375,0.4819148 -0.3751528,0.847453 -0.061513,0.3655383 -0.075961,0.8232291 -0.075961,1.4091465 z"
     style="color:#000000;display:inline;overflow:visible;visibility:visible;opacity:0.3;fill:none;fill-opacity:1;fill-rule:nonzero;stroke:url(#linearGradient945);stroke-width:0.26457033;stroke-opacity:1;marker:none;enable-background:accumulate"
     inkscape:connector-curvature="0"
     sodipodi:nodetypes="scssccccsssscccscssscss" />
</svg>
