<svg height="48" viewBox="0 0 12.699375 12.699375" width="48" xmlns="http://www.w3.org/2000/svg" xmlns:xlink="http://www.w3.org/1999/xlink">
    <linearGradient id="a" gradientUnits="userSpaceOnUse" x1="7.40815888" x2="7.40815888" y1="1.05808815" y2="11.64090055">
        <stop offset="0" stop-color="#fff"/>
        <stop offset=".125" stop-color="#fff" stop-opacity=".098039"/>
        <stop offset=".92500001" stop-color="#fff" stop-opacity=".098039"/>
        <stop offset="1" stop-opacity=".498039"/>
    </linearGradient>
    <linearGradient id="b" gradientTransform="matrix(.02997086 0 0 .02997 -1.058271 -2.775333)" gradientUnits="userSpaceOnUse" x1="512" x2="-.000001" y1="397.99393" y2="125.99394">
        <stop offset="0" stop-color="#A6D74F"/>
        <stop offset="1" stop-color="#89AA27"/>
    </linearGradient>
    <path d="m.26457031 9.0663152c0 .5881821.013546 1.0513178.077511 1.4323998.063968.381085.1839531.692924.4118407.921348.22788502.228422.53958319.348985.92082639.412357.3812458.06337.8453947.07574 1.4349844.07286h3.2399545 3.2415022c.5886855.0029 1.0525985-.0096 1.4334335-.07286.381246-.06337.692944-.183935.920829-.412357.227885-.228424.347873-.540263.411841-.921348.06397-.381085.07751-.8442177.07751-1.4323998v-4.3757443c0-.5881821-.01352-1.0510743-.07751-1.4313677-.063997-.3802934-.184389-.6911794-.412356-.9187601-.227966-.2275834-.539442-.3474337-.920313-.4113248-.380867-.0638911-.844075-.0775111-1.4334343-.0775111h-3.2415022-3.2415049c-.5893595 0-1.0525639.013625-1.433434.077511-.3808675.063891-.69234344.1837413-.92031049.4113247-.227967.2275807-.3483623.5384667-.4123566.9187601-.063997.3802934-.077511.8431856-.077511 1.4313677z" opacity=".1"/>
    <path d="m3.1083757 1.0580875c-.589206 0-1.053257.013133-1.4339525.076994-.3810501.063921-.69168733.1836015-.91979459.411324-.2281866.2278012-.3483332.5388375-.4123566.9192785-.02279.1354266-.037431.2859427-.049091.4443954-.021055.286176-.02842.6084581-.02842.9869714v4.9048854c0 .5880983.013599 1.0515998.077511 1.4324006.064002.381274.1838552.692305.4118407.920828.22802523.228565.53941649.348958.92082899.412359.380759.06329.8447095.07625 1.43395.07338h3.2409863 3.2404704c.5892356.0029 1.0536996-.01008 1.4344666-.07338.381412-.0634.692285-.183791.920312-.412359.227983-.228523.347839-.539552.411841-.920828.06392-.3808074.07803-.8443042.07803-1.4324006v-4.9048852c0-.3785038-.0072-.7008002-.02842-.9869714-.01175-.1584606-.02682-.3089625-.04961-.4443955-.064021-.3804416-.183652-.6914773-.411841-.9192784-.228106-.2277225-.539257-.347403-.920312-.411324-.378317-.0634648-.783213-.0769942-1.4334348-.0769942h-3.2415022z" fill="url(#b)"/>
    <path d="m2.8240261 1.0586042c-.5220871.0004763-.9378514.013758-1.2777529.076477-.3464098.063921-.62880679.1836015-.83617699.411324-.2074443.2278012-.3166669.5388377-.3748697.9192785-.020711.1354272-.034029.2859427-.04463.4443954-.019139.2861762-.025835.6084581-.025835.9869714v4.9048854c0 .5880983.012355 1.0515988.070466 1.4324006.058182.381271.1671396.692305.3743987.920828.2072962.228565.49037849.348958.83711899.412359.3461426.06329.767918.07625 1.3035908.07338h.060129v-10.5822993z" opacity=".3"/>
    <path d="m.39686341 8.8017544c0 .5859201.014472 1.0443172.075961 1.4106966.061502.366379.173119.647009.3751528.849519.20203379.20251.48213699.314257.84848489.375153.3663478.0609.825036.07418 1.4122472.07131h3.2409863 3.2415049c.5869045.0029 1.0455165-.01042 1.4117295-.07131.366348-.0609.646451-.17264.848485-.375153.202033-.202513.31365-.483137.375152-.849519.0615-.3663794.07596-.8247765.07596-1.4106966v-4.9048849c0-.5859174-.01445-1.0436082-.07596-1.4091465-.06151-.3655382-.173076-.6457208-.375152-.847453-.202074-.2017322-.482325-.3132116-.848485-.3746342-.36616-.0614253-.763416-.0754449-1.4117295-.0754449h-3.2415051-3.2415022c-.5871001 0-1.0455713.014022-1.4117313.075445s-.6464114.172902-.84848489.3746342c-.2020735.2017322-.3136375.4819148-.3751528.847453-.061513.3655383-.075961.8232291-.075961 1.4091465z" fill="none" opacity=".3" stroke="url(#a)" stroke-width=".26457"/>
</svg>
