<svg height="16" viewBox="0 0 4.233125 4.233125" width="16" xmlns="http://www.w3.org/2000/svg" xmlns:xlink="http://www.w3.org/1999/xlink"><radialGradient cx="32.001057" cy="266.51688" gradientTransform="matrix(1 0 0 .59279415 0 108.52723)" gradientUnits="userSpaceOnUse" r="20.610182"><stop offset="0" stop-color="#ff6834"/><stop offset="1" stop-color="#ffd93c"/></radialGradient><linearGradient id="a" gradientTransform="matrix(.05126081 0 0 .04962104 .065655 292.89595)" gradientUnits="userSpaceOnUse" x1="70.786003" x2="6.447" y1="12.393" y2="74.468002"><stop offset=".048" stop-color="#fff44f"/><stop offset=".111" stop-color="#ffe847"/><stop offset=".225" stop-color="#ffc830"/><stop offset=".368" stop-color="#ff980e"/><stop offset=".401" stop-color="#ff8b16"/><stop offset=".462" stop-color="#ff672a"/><stop offset=".534" stop-color="#ff3647"/><stop offset=".705" stop-color="#e31587"/></linearGradient><radialGradient id="b" cx="-7907.187" cy="-8515.1211" gradientTransform="matrix(.05126081 0 0 .04962104 408.87068 715.86574)" gradientUnits="userSpaceOnUse" r="80.796997"><stop offset=".129" stop-color="#ffbd4f"/><stop offset=".186" stop-color="#ffac31"/><stop offset=".247" stop-color="#ff9d17"/><stop offset=".283" stop-color="#ff980e"/><stop offset=".403" stop-color="#ff563b"/><stop offset=".467" stop-color="#ff3750"/><stop offset=".71" stop-color="#f5156c"/><stop offset=".782" stop-color="#eb0878"/><stop offset=".86" stop-color="#e50080"/></radialGradient><radialGradient id="c" cx="-7936.7109" cy="-8482.0889" gradientTransform="matrix(.05126081 0 0 .04962104 408.87068 715.86574)" gradientUnits="userSpaceOnUse" r="80.796997"><stop offset=".3" stop-color="#960e18"/><stop offset=".351" stop-color="#b11927" stop-opacity=".74"/><stop offset=".435" stop-color="#db293d" stop-opacity=".343"/><stop offset=".497" stop-color="#f5334b" stop-opacity=".094"/><stop offset=".53" stop-color="#ff3750" stop-opacity="0"/></radialGradient><radialGradient id="d" cx="-7926.9702" cy="-8533.457" gradientTransform="matrix(.05126081 0 0 .04962104 408.87068 715.86574)" gradientUnits="userSpaceOnUse" r="58.534"><stop offset=".132" stop-color="#fff44f"/><stop offset=".252" stop-color="#ffdc3e"/><stop offset=".506" stop-color="#ff9d12"/><stop offset=".526" stop-color="#ff980e"/></radialGradient><radialGradient id="e" cx="-7945.6479" cy="-8460.9844" gradientTransform="matrix(.05126081 0 0 .04962104 408.87068 715.86574)" gradientUnits="userSpaceOnUse" r="38.471001"><stop offset=".353" stop-color="#3a8ee6"/><stop offset=".472" stop-color="#5c79f0"/><stop offset=".669" stop-color="#9059ff"/><stop offset="1" stop-color="#c139e6"/></radialGradient><radialGradient id="f" cx="-7937.731" cy="-8518.4268" gradientTransform="matrix(.05126081 0 0 .04962104 408.87068 715.86574)" gradientUnits="userSpaceOnUse" r="27.676001"><stop offset="0" stop-color="#ffe226"/><stop offset=".121" stop-color="#ffdb27"/><stop offset=".295" stop-color="#ffc82a"/><stop offset=".502" stop-color="#ffa930"/><stop offset=".732" stop-color="#ff7e37"/><stop offset=".792" stop-color="#ff7139"/></radialGradient><radialGradient id="g" cx="-7915.9771" cy="-8535.9814" gradientTransform="matrix(.05126081 0 0 .04962104 408.87068 715.86574)" gradientUnits="userSpaceOnUse" r="118.081"><stop offset=".113" stop-color="#fff44f"/><stop offset=".456" stop-color="#ff980e"/><stop offset=".622" stop-color="#ff5634"/><stop offset=".716" stop-color="#ff3647"/><stop offset=".904" stop-color="#e31587"/></radialGradient><radialGradient id="h" cx="-7927.165" cy="-8522.8594" gradientTransform="matrix(.00538239 .04937294 -.03347331 .00342385 -240.04022 713.19569)" gradientUnits="userSpaceOnUse" r="86.499001"><stop offset="0" stop-color="#fff44f"/><stop offset=".06" stop-color="#ffe847"/><stop offset=".168" stop-color="#ffc830"/><stop offset=".304" stop-color="#ff980e"/><stop offset=".356" stop-color="#ff8b16"/><stop offset=".455" stop-color="#ff672a"/><stop offset=".57" stop-color="#ff3647"/><stop offset=".737" stop-color="#e31587"/></radialGradient><radialGradient id="i" cx="-7938.3828" cy="-8508.1758" gradientTransform="matrix(.05126081 0 0 .04962104 408.87068 715.86574)" gradientUnits="userSpaceOnUse" r="73.720001"><stop offset=".137" stop-color="#fff44f"/><stop offset=".48" stop-color="#ff980e"/><stop offset=".592" stop-color="#ff5634"/><stop offset=".655" stop-color="#ff3647"/><stop offset=".904" stop-color="#e31587"/></radialGradient><radialGradient id="j" cx="-7918.9229" cy="-8503.8613" gradientTransform="matrix(.05126081 0 0 .04962104 408.87068 715.86574)" gradientUnits="userSpaceOnUse" r="80.685997"><stop offset=".094" stop-color="#fff44f"/><stop offset=".231" stop-color="#ffe141"/><stop offset=".509" stop-color="#ffaf1e"/><stop offset=".626" stop-color="#ff980e"/></radialGradient><linearGradient id="k" gradientTransform="matrix(.05126081 0 0 .04962104 .065655 292.89595)" gradientUnits="userSpaceOnUse" x1="70.013" x2="15.267" y1="12.061" y2="66.806"><stop offset=".167" stop-color="#fff44f" stop-opacity=".8"/><stop offset=".266" stop-color="#fff44f" stop-opacity=".634"/><stop offset=".489" stop-color="#fff44f" stop-opacity=".217"/><stop offset=".6" stop-color="#fff44f" stop-opacity="0"/></linearGradient><g stroke-width=".050434" transform="translate(0 -292.76353)"><path d="m3.9571714 294.22735c-.086323-.20108-.2614301-.41816-.3985529-.48679a2.0640681 1.998041 0 0 1 .2011987.58375l.0003587.003c-.2246247-.54212-.605544-.76069-.9166456-1.23666-.015737-.0241-.031475-.0482-.046802-.0737-.00876-.0145-.015787-.0277-.021889-.0397a.36154255.34997724 0 0 1 -.029629-.0762.00512608.0049621 0 0 0 -.00451-.005.00707399.0068477 0 0 0 -.00375 0c-.0002562 0-.0006661.0005-.0009781.0005-.0003073.0001-.000978.0005-.00144.00074l.0007685-.00094c-.4990249.28284-.6683393.80644-.6839226 1.06834a.9937935.96200324 0 0 0 -.5467477.20399.5939591.57495906 0 0 0 -.051261-.0376.92105438.89159096 0 0 1 -.00559-.47007 1.4714418 1.4243721 0 0 0 -.478212.35777h-.0009223c-.078737-.0966-.0732-.41518-.0686894-.48171a.35513493.34377459 0 0 0 -.0663316.0341 1.4468366 1.400554 0 0 0 -.19417606.16101 1.7349224 1.6794243 0 0 0 -.18571765.21571v.00024-.00024a1.6779204 1.6242457 0 0 0 -.2665559.58272l-.002665.0127c-.003743.0169-.0172243.10167-.0195299.12008 0 .002-.00030745.003-.00046117.005a1.8934209 1.8328526 0 0 0 -.0322263.26436v.01a1.986818 1.9232621 0 0 0 3.94472468.32521c.00333-.0248.00605-.0494.00903-.0744a2.0431024 1.977746 0 0 0 -.1288718-.96609zm-2.2898208 1.5054c.00928.005.017994.009.027527.0131l.00138.00074q-.014454-.007-.028911-.014zm2.0929793-1.40478v-.002l.0003587.002z" fill="url(#a)"/><path d="m3.9571714 294.22735c-.086323-.20108-.2614301-.41816-.3985529-.48679a2.0640681 1.998041 0 0 1 .2011987.58375v.002l.0003587.002a1.7992547 1.7416987 0 0 1 -.061822 1.29799c-.2277005.47293-.7788567.95769-1.6415763.93411-.9321778-.0256-1.75311979-.69514-1.90659463-1.57215-.0279372-.13829 0-.2084.0140448-.32079a1.4802075 1.4328574 0 0 0 -.031935.26534v.01a1.986818 1.9232621 0 0 0 3.94472473.3252c.00333-.0248.00605-.0494.00903-.0744a2.0431024 1.977746 0 0 0 -.1288685-.9659z" fill="url(#b)"/><path d="m3.9571714 294.22735c-.086323-.20108-.2614301-.41816-.3985529-.48679a2.0640681 1.998041 0 0 1 .2011987.58375v.002l.0003587.002a1.7992547 1.7416987 0 0 1 -.061822 1.29799c-.2277005.47293-.7788567.95769-1.6415763.93411-.9321778-.0256-1.75311979-.69514-1.90659463-1.57215-.0279372-.13829 0-.2084.0140448-.32079a1.4802075 1.4328574 0 0 0 -.031935.26534v.01a1.986818 1.9232621 0 0 0 3.94472473.3252c.00333-.0248.00605-.0494.00903-.0744a2.0431024 1.977746 0 0 0 -.1288685-.9659z" fill="url(#c)"/><path d="m2.9917251 294.45341c.00431.003.0083.006.012354.008a1.0816033 1.0470041 0 0 0 -.1845393-.23263c-.6174879-.59783-.1618305-1.29625-.084991-1.33172l.0007687-.00094c-.4990242.28284-.6683385.80645-.6839218 1.06834.02317-.002.046135-.004.069817-.004a1.0026616.97058766 0 0 1 .8705112.49209z" fill="url(#d)"/><path d="m2.1224954 294.5728c-.00328.0478-.1778749.21283-.2389266.21283-.5649454 0-.656651.33082-.656651.33082.025015.27858.2255478.50802.4679599.62939.011073.006.022299.0106.033524.0155q.029168.0125.058335.0232a.8834802.85521873 0 0 0 .2585087.0483c.9902052.0449 1.1820229-1.14624.4674474-1.49192a.68586974.66392959 0 0 1 .4790321.1126 1.0026616.97058766 0 0 0 -.8705111-.49209c-.02358 0-.046648.002-.069817.004a.9937935.96200324 0 0 0 -.5467479.20398c.030296.0249.064486.0579.1365076.12669.1348159.12857.4805701.26175.4813391.27738z" fill="url(#e)"/><path d="m1.4120206 294.10478c.016097.01.029373.0186.041009.0264a.92105438.89159096 0 0 1 -.00559-.47007 1.4714418 1.4243721 0 0 0 -.4782121.35777c.00969-.00024.2978767-.006.4427912.086z" fill="url(#f)"/><path d="m.15044084 294.98813c.15332087.877.97441676 1.54659 1.90659466 1.57215.8627194.0236 1.4138759-.46119 1.6415765-.93412a1.7992547 1.7416987 0 0 0 .061822-1.29799v-.002c0-.002-.0003074-.002 0-.002l.0003588.003c.070484.44545-.1635736.87701-.5294732 1.16883l-.00113.003c-.7129355.56207-1.3952169.33911-1.5333138.24811q-.014454-.007-.028911-.014c-.4156741-.19233-.5873977-.55893-.5505925-.87333a.51019892.49387827 0 0 1 -.47062558-.28656.74933064.72536045 0 0 1 .73041518-.0284.98933383.95768623 0 0 0 .7459474.0284c-.0007686-.0156-.3465232-.14885-.4813387-.27738-.072022-.0687-.1062128-.10182-.1365078-.12668a.5939591.57495906 0 0 0 -.051261-.0376c-.01179-.007-.025067-.0162-.041009-.0263-.1449142-.0912-.4331024-.0862-.442637-.086h-.0009224c-.078737-.0966-.0732-.41518-.0686894-.48172a.35513493.34377459 0 0 0 -.0663316.0341 1.4468366 1.400554 0 0 0 -.19417606.16101 1.7349224 1.6794243 0 0 0 -.18648677.21522v.00024-.00024a1.6779204 1.6242457 0 0 0 -.26655643.5827c-.00097319.004-.07156.30264-.0367539.45754z" fill="url(#g)"/><path d="m2.8196425 294.22923a1.0816033 1.0470041 0 0 1 .184539.23322c.010919.008.02112.0159.029783.0236.4504291.40193.2144243.97009.1968416 1.01054.3658997-.29183.5997516-.72338.5294731-1.16884-.2247275-.54235-.6056468-.76093-.9167484-1.2369-.015737-.0241-.031475-.0482-.046802-.0737-.00876-.0145-.015787-.0276-.02189-.0396a.36154255.34997724 0 0 1 -.029629-.0762.00512608.0049621 0 0 0 -.00451-.005.00707399.0068477 0 0 0 -.00375 0c-.0002562 0-.0006663.00049-.0009781.00049-.0003074.00011-.000978.00049-.00144.00073-.07684.0353-.5324973.7337.085093 1.33155z" fill="url(#h)"/><path d="m3.0336566 294.48582c-.00867-.007-.018863-.0157-.029783-.0236-.00405-.003-.00805-.006-.012354-.008a.68586974.66392959 0 0 0 -.4790323-.11259c.7145757.34586.5228603 1.53686-.4674476 1.4919a.8834802.85521873 0 0 1 -.2585081-.0483q-.029167-.0106-.058335-.0231c-.011226-.005-.022452-.01-.033524-.0155l.00138.00074c.1380966.0913.8201731.3142 1.5333137-.2481l.00113-.003c.017788-.0402.2537924-.60852-.1968416-1.0103z" fill="url(#i)"/><path d="m1.2269178 295.11645s.091706-.33082.656651-.33082c.061052 0 .2357997-.16499.2389266-.21283a.98933383.95768623 0 0 1 -.7459472-.0284.74933064.72536045 0 0 0 -.73041533.0284.51019892.49387827 0 0 0 .47062543.28656c-.036805.31446.1349186.68106.5505923.87333.00928.005.017994.009.027527.0131-.2426174-.12132-.4429447-.35077-.4679598-.62934z" fill="url(#j)"/><path d="m3.9571714 294.22735c-.086323-.20108-.2614301-.41816-.3985529-.48679a2.0640681 1.998041 0 0 1 .2011987.58375l.0003587.003c-.2246247-.54212-.605544-.76069-.9166456-1.23666-.015737-.0241-.031475-.0482-.046802-.0737-.00876-.0145-.015787-.0277-.021889-.0397a.36154255.34997724 0 0 1 -.029629-.0762.00512608.0049621 0 0 0 -.00451-.005.00707399.0068477 0 0 0 -.00375 0c-.0002562 0-.0006661.0005-.0009781.0005-.0003073.0001-.000978.0005-.00144.00074l.0007685-.00094c-.4990237.28284-.6683383.80644-.6839217 1.06834.02317-.002.046135-.004.069816-.004a1.0026616.97058766 0 0 1 .8705112.49209.68586974.66392959 0 0 0 -.4790322-.11259c.7145758.34587.5228603 1.53687-.4674475 1.49191a.8834802.85521873 0 0 1 -.2585085-.0483q-.029167-.0106-.058335-.0232c-.011227-.005-.022453-.01-.033524-.0155l.00138.00075q-.014454-.007-.028911-.014c.00928.005.017994.009.027528.0131-.2426175-.12137-.4429449-.35082-.46796-.62939 0 0 .091706-.33082.6566512-.33082.061052 0 .2357998-.165.2389267-.21284-.0007686-.0156-.3465233-.14885-.4813392-.27738-.072022-.0687-.1062124-.10181-.1365076-.12667a.5939591.57495906 0 0 0 -.051261-.0376.92105438.89159096 0 0 1 -.00559-.47006 1.4714418 1.4243721 0 0 0 -.4782121.35777h-.0009173c-.078737-.0966-.0732-.41519-.0686894-.48173a.35513493.34377459 0 0 0 -.0663316.0341 1.4468366 1.400554 0 0 0 -.19417605.16102 1.7349224 1.6794243 0 0 0 -.18571765.2157v.00025-.00025a1.6779204 1.6242457 0 0 0 -.26655644.5827l-.002665.0127c-.003743.017-.0205036.10286-.0229144.12132a2.3115554 2.2376115 0 0 0 -.029311.26834v.01a1.986818 1.9232621 0 0 0 3.94472454.3252c.00333-.0248.00605-.0494.00903-.0744a2.0431024 1.977746 0 0 0 -.1288698-.96607zm-.1970977.0988.0003588.002z" fill="url(#k)"/><g fill="none"><path d="m2.1224954 294.5728c-.00328.0478-.1778749.21283-.2389266.21283-.5649454 0-.656651.33082-.656651.33082.025015.27858.2255478.50802.4679599.62939.011073.006.022299.0106.033524.0155q.029168.0125.058335.0232a.8834802.85521873 0 0 0 .2585087.0483c.9902052.0449 1.1820229-1.14624.4674474-1.49192a.68586974.66392959 0 0 1 .4790321.1126 1.0026616.97058766 0 0 0 -.8705111-.49209c-.02358 0-.046648.002-.069817.004a.9937935.96200324 0 0 0 -.5467479.20398c.030296.0249.064486.0579.1365076.12669.1348159.12857.4805701.26175.4813391.27738z"/><path d="m2.1221903 294.8131c-.00329.0478-.1778749.21282-.2389267.21282-.5649453 0-.6566509.33082-.6566509.33082.025015.27858.2255477.50802.4679599.62939.011073.006.022298.0106.033524.0155q.029168.0125.058335.0231a.8834802.85521873 0 0 0 .2585086.0483c.9902051.0449 1.182023-1.14625.4674473-1.49192a.68586974.66392959 0 0 1 .4790322.1126 1.0026616.97058766 0 0 0 -.8705112-.4921c-.02358 0-.046648.002-.069817.004a.9937935.96200324 0 0 0 -.546748.204c.030296.0248.064486.0579.1365076.12669.1348159.12856.4805702.26174.4813391.27738z"/></g></g></svg>