<svg id="svg21" height="16" width="15.999999" xmlns="http://www.w3.org/2000/svg" xmlns:xlink="http://www.w3.org/1999/xlink">
  <linearGradient id="linearGradient4878" gradientTransform="matrix(0 1 -1 0 252 -319.50012)" gradientUnits="userSpaceOnUse" x1="317.26004" x2="338.31595" y1="255.44786" y2="230.85617">
    <stop id="stop4241" offset="0" stop-color="#e8e8e8"/>
    <stop id="stop4243" offset="1" stop-color="#f5f5f5"/>
  </linearGradient>
  <path id="path918" d="m15.499999 5.3543901c0-3.04166-.30899-3.36894-3.32331-3.35403h-4.176689-4.17669c-3.01432-.0149-3.32331.31237-3.32331 3.35403v6.2914599c0 3.04167.30895 3.35404 3.32331 3.35404h4.17669 4.176689c3.01435 0 3.32331-.31238 3.32331-3.35404z" fill="url(#linearGradient4878)"/>
  <path id="path918-7" d="m.57812 8.4998901v3.1758899c-.017 3.01433.35794002 3.32422 3.83398 3.32422h7.189449c3.47605 0 3.83203-.30985 3.83203-3.32422v-3.1758899z" fill="#a2bcfe" opacity=".75"/>
  <path id="path3083-5-4" d="m10.995511 8.822875a3.5 3.5 0 0 1 -3.3179419 3.672507 3.5 3.5 0 0 1 -3.6730421-3.3173496 3.5 3.5 0 0 1 3.3167561-3.6735777 3.5 3.5 0 0 1 3.6741129 3.316163" fill="#1a7fd4"/>
  <g fill="#e7f0fc">
    <path id="rect3189-97-5-5" d="m7.999991 7.499905h1v1h-1z"/>
    <path id="rect3189-6-7-5" d="m5.999991 7.499905h1v1h-1z"/>
    <path id="rect3189-1-6-4" d="m5.999991 9.499905h1v1h-1z"/>
    <path id="rect3189-29-5-7" d="m7.999991 9.499905h1v1h-1z"/>
  </g>
  <path id="path887" d="m3.8242188 2c-3.01432005-.0149-3.3242188.3118556-3.3242188 3.3535156v.5019532c0-3.0416601.30989875-3.3703688 3.3242188-3.3554688h4.1757812 4.175781c3.01432-.01491 3.324219.3138088 3.324219 3.3554688v-.5019532c0-3.04166-.309899-3.3684256-3.324219-3.3535156h-4.175781z" fill="#fff" opacity=".3"/>
  <path id="path24398-3-6-7" d="m4.99999 3.4998901s0-2.5 3-2.5c2.999999 0 2.999999 2.5 2.999999 2.5" fill="none" stroke="#80a3fa" stroke-linecap="round"/>
  <path id="path896" d="m12.175781 14.999534c3.01432.0149 3.324219-.311855 3.324219-3.353515v-.501954c0 3.041661-.309899 3.370369-3.324219 3.355469h-4.1757812-4.175781c-3.01432003.01491-3.32421903-.313809-3.32421903-3.355469v.501954c0 3.04166.309899 3.368425 3.32421903 3.353515h4.175781z" opacity=".2"/>
</svg>
