<svg height="16" width="16" xmlns="http://www.w3.org/2000/svg">
  <g fill="#f2f2f7">
    <path d="m2 7.36c-1.287.729-1.998 1.667-2 2.64 0 1.256 1.039 2.255 2.484 2.93 1.214.566 2.784.92 4.516 1.023v-1c-1.602-.104-3.04-.438-4.092-.93-1.268-.592-1.908-1.346-1.908-2.023a7 3 0 0 1 1-1.537zm12 .001v1.1a7 3 0 0 1 1 1.54c0 .676-.64 1.43-1.908 2.022-.589.275-1.304.499-2.092.667v1.03c.937-.183 1.789-.451 2.516-.79 1.444-.675 2.484-1.674 2.484-2.93-.003-.972-.714-1.91-2-2.639z" fill-rule="evenodd"/>
    <path d="m7 11v5l3.5-2.5z" fill-rule="evenodd"/>
    <path d="m5 0v1.025c-.75.018-1.41.07-1.938.36a1.88 1.88 0 0 0 -.837.998c-.165.438-.225.96-.225 1.617v4c0 .658.06 1.179.225 1.617.164.439.461.79.837.998.753.416 1.674.37 2.932.385h4.012c1.258-.015 2.179.03 2.932-.385a1.88 1.88 0 0 0 .838-.998c.164-.438.224-.96.224-1.617v-4c0-.658-.06-1.179-.225-1.617a1.88 1.88 0 0 0 -.837-.998c-.753-.416-1.674-.37-2.932-.385h-3.006v-1zm1 2h4c1.259.015 2.087.06 2.453.262.184.1.29.212.387.472s.16.674.16 1.266v4c0 .592-.063 1.006-.16 1.266-.098.26-.203.371-.387.472-.366.202-1.194.247-2.453.262h-4c-1.259-.015-2.09-.06-2.455-.262-.183-.1-.287-.212-.385-.472-.097-.26-.16-.674-.16-1.266v-4c0-.592.063-1.006.16-1.266.098-.26.202-.371.385-.472.366-.202 1.196-.247 2.455-.262zm2 1a3 3 0 1 0 0 6 3 3 0 0 0 0-6zm3.5 0a.5.5 0 1 0 0 1 .5.5 0 0 0 0-1zm-3.5 1a2 2 0 0 1 2 2 2 2 0 0 1 -2 2 2 2 0 0 1 -2-2 2 2 0 0 1 2-2zm0 1a1 1 0 0 0 -1 1 1 1 0 0 0 1 1 1 1 0 0 0 1-1 1 1 0 0 0 -1-1z"/>
  </g>
</svg>
