<svg id="svg10" height="16" width="16.015" xmlns="http://www.w3.org/2000/svg">
  <g id="g8" fill="#f2f2f7">
    <path id="path2" d="m8.182 1.004a6.99 6.99 0 0 0 -6.248 3.492c-1.929 3.343-.776 7.63 2.57 9.563s7.634.792 9.562-2.551c1.929-3.343.776-7.633-2.57-9.567a6.98 6.98 0 0 0 -3.314-.937zm-.182.996a6 6 0 0 1 6 6 6 6 0 0 1 -6 6 6 6 0 0 1 -6-6 6 6 0 0 1 6-6z"/>
    <path id="path4" d="m6.69.122v1.545a6.485 6.485 0 0 1 2.632.005v-1.55zm-2.753.99-2.007 1.703.988 1.178a6.466 6.466 0 0 1 2.017-1.691zm8.128.012-.993 1.183.17.09a6.5 6.5 0 0 1 1.845 1.604l1.006-1.198zm-11.61 4.216-.44 2.595 1.515.267a6.477 6.477 0 0 1 .455-2.592zm15.086.003-1.523.268c.33.823.488 1.705.464 2.591l1.533-.27zm-13.683 4.695-1.351.78 1.33 2.272 1.339-.773a6.498 6.498 0 0 1 -1.318-2.279zm12.301.003a6.47 6.47 0 0 1 -.535 1.215c-.22.382-.48.74-.773 1.07l1.338.772 1.302-2.288zm-9.557 3.472-.534 1.469 2.48.884.525-1.445a6.495 6.495 0 0 1 -2.303-.8 6.464 6.464 0 0 1 -.168-.108zm6.814.015a6.473 6.473 0 0 1 -2.475.898l.53 1.456 2.468-.916z"/>
    <path id="path6" d="m7.648 3.014a4.989 4.989 0 0 0 -3.982 2.482 5.013 5.013 0 0 0 1.836 6.834 5.002 5.002 0 0 0 6.83-1.826 5.01 5.01 0 0 0 -1.836-6.832 4.976 4.976 0 0 0 -2.848-.658zm.352.986a4 4 0 0 1 4 4 4 4 0 0 1 -4 4 4 4 0 0 1 -4-4 4 4 0 0 1 4-4z"/>
  </g>
</svg>
