<svg height="16" width="16" xmlns="http://www.w3.org/2000/svg">
  <g fill="#f2f2f7">
    <path d="m7 1c-.658 0-1.179.06-1.617.225a1.88 1.88 0 0 0 -.998.837c-.416.753-.37 1.674-.385 2.932v4.506h1v-4.5c.015-1.259.06-2.09.262-2.455.1-.183.212-.287.472-.385.26-.097.674-.16 1.266-.16h2c.592 0 1.006.063 1.266.16.26.098.371.202.472.385.202.366.247 1.196.262 2.455v10h1v-10.006c-.015-1.258.03-2.179-.385-2.932a1.88 1.88 0 0 0 -.998-.837c-.439-.165-.96-.225-1.617-.225z"/>
    <path d="m2 8 5 .001c-.348.76-.737 1.535-1.166 2.323a44.09 44.09 0 0 1 -1.334 2.259c-.449-.725-.889-1.478-1.32-2.26a43.088 43.088 0 0 1 -1.18-2.323z"/>
  </g>
</svg>
