<svg id="svg7384" height="16" width="16" xmlns="http://www.w3.org/2000/svg">
  <path id="path3301" d="m319 481v4h-1.5c.34766.76042.73627 1.53409 1.16602 2.32227.43079.78078.8757 1.45273 1.33398 2.17773.44911-.725.88953-1.39695 1.32031-2.17773.42999-.78862.82276-1.56338 1.17969-2.32422l-1.5.00195v-3.99805zm-5 7v5.49805c0 .54167.0636.98391.23047 1.35937.16687.37545.45743.66816.79687.83789.67889.33944 1.47266.30274 2.47266.30274h5c1 0 1.79377.0367 2.47266-.30274.33944-.16973.63-.46244.79687-.83789.16687-.37546.23249-.8177.23047-1.35937v-5.49805h-1v3h-10v-3zm1 4h10v1.49805c0 .45833-.0614.76608-.14453.95312-.0831.18705-.16757.26934-.32813.34961-.32111.16056-1.02734.19727-2.02734.19727h-5c-1 0-1.70623-.0367-2.02734-.19727-.16056-.0803-.245-.16256-.32813-.34961-.08313-.18704-.14453-.49479-.14453-.95312zm4 1v1h2v-1z" fill="#f2f2f7" transform="translate(-312 -480)"/>
</svg>
