<svg height="16" width="16" xmlns="http://www.w3.org/2000/svg">
  <g fill="#f2f2f7">
    <path d="m3.994 7c-1.258.015-2.179-.03-2.932.385a1.88 1.88 0 0 0 -.837.998c-.165.437-.225.96-.225 1.617v2c0 .658.06 1.179.225 1.617.164.439.461.79.837.998.753.416 1.674.37 2.932.385h2.012c1.258-.015 2.179.03 2.932-.385a1.88 1.88 0 0 0 .838-.998c.164-.437.224-.96.224-1.617v-2c0-.658-.06-1.179-.225-1.617a1.88 1.88 0 0 0 -.837-.998c-.753-.416-1.674-.37-2.932-.385h-2.008zm.006 1h2c1.259.015 2.087.06 2.453.262.184.1.29.212.387.472s.16.674.16 1.266v2c0 .592-.063 1.006-.16 1.266-.098.26-.202.371-.385.472-.365.202-1.195.247-2.455.262h-2c-1.259-.015-2.09-.06-2.455-.262-.183-.1-.287-.212-.385-.472-.097-.26-.16-.674-.16-1.266v-2c0-.592.063-1.006.16-1.266.098-.26.202-.371.385-.472.365-.202 1.195-.247 2.455-.262z"/>
    <path d="m6.994 2c-1.258.015-2.179-.03-2.932.385a1.88 1.88 0 0 0 -.837.998c-.165.437-.225.96-.225 1.617v1h1v-1c0-.592.063-1.006.16-1.266.098-.26.202-.371.385-.472.365-.202 1.195-.247 2.455-.262h5c1.259.015 2.087.06 2.453.262.184.1.29.212.387.472s.16.674.16 1.266v4c0 .592-.063 1.006-.16 1.266-.098.26-.202.371-.385.472-.367.203-1.197.247-2.46.262h-.995v1h1.006c1.258-.015 2.179.03 2.932-.385a1.88 1.88 0 0 0 .837-.998c.165-.437.225-.96.225-1.617v-4c0-.658-.06-1.179-.225-1.617a1.88 1.88 0 0 0 -.838-.998c-.752-.416-1.673-.37-2.931-.385h-5.008z" opacity=".5"/>
  </g>
</svg>
