<svg enable-background="new" height="256" viewBox="0 0 256 256" width="256" xmlns="http://www.w3.org/2000/svg" xmlns:xlink="http://www.w3.org/1999/xlink">
  <filter id="filter860" color-interpolation-filters="sRGB" height="1.024" width="1.024" x="-.012" y="-.012">
    <feGaussianBlur stdDeviation=".60224208"/>
  </filter>
  <filter id="filter891" color-interpolation-filters="sRGB" height="1.096" width="1.096" x="-.048" y="-.048">
    <feGaussianBlur stdDeviation="2.4089683"/>
  </filter>
  <g transform="translate(0 -44)">
    <text x="107.99998" y="390.00003"><tspan x="107.99998" y="397.90536"/></text>
    <g transform="matrix(1.8929253 0 0 1.8929253 .85372489115 -264.19858287664)">
      <path d="m67.763467 168.65689-60.3198202 120.01475.7488122.003-.043059.0357 117.63808.39488-.0189-.007 2.12357.007z" filter="url(#filter891)" opacity=".1"/>
      <path d="m67.763467 168.65689-60.3198202 120.01475.7488122.003-.043059.0357 117.63808.39488-.0189-.007 2.12357.007z" filter="url(#filter860)" opacity=".1"/>
      <path d="m67.763467 168.65689-60.3198202 120.01475.7488122.003-.043059.0357 117.63808.39488-.0189-.007 2.12357.007z" opacity=".1"/>
      <path d="m67.762297 169.7132-59.2616943 117.90976 118.3353573.4256z" fill="#f6f5f4"/>
      <path d="m66.993312 171.81232-57.1925108 113.35706 62.4751878-53.15223z" fill="#5884f4"/>
      <path d="m68.731451 172.63225 57.549709 114.45845-49.079704-19.77356z" fill="#f22c42"/>
      <path d="m46.672775 256.26749-37.4796097 31.39312 115.5743547.38795z" fill="#76c22b"/>
      <path d="m47.749898 254.98973 24.829914-20.78472 3.001295 32.10093z" fill="#c8c4b7"/>
      <path d="m66.993312 171.81232-57.1925108 113.35706 62.4751878-53.15223z" fill="#5884f4"/>
      <path d="m66.993096 171.81214-.821317 1.62715 5.047579 57.52092-59.689773 50.78223-1.7282693 3.42661 62.4746083-53.15227z" fill="#181818" opacity=".2"/>
      <path d="m66.993096 171.81214-57.1917803 113.35691 2.7848343-2.37005 54.642195-108.30314z" fill="#f6f9ff" opacity=".3"/>
      <path d="m68.73168 172.63242.34359 3.8414 55.21485 109.81474 1.99137.80171z" fill="#f8faff" opacity=".3"/>
      <path d="m68.73168 172.63242 8.47007 94.68439 49.07974 19.77346-.93481-1.85828-47.088365-18.97175-8.12648-90.84298z" fill="#050505" opacity=".2"/>
      <path d="m72.580305 234.20523-.888382.74393 2.832299 30.29992-26.269692-10.68123-.504552.42201 27.83081 11.31578z" fill="#161206" opacity=".2"/>
      <path d="m72.580305 234.20523-24.830327 20.78463 1.561117.63456 23.437394-19.61869z" fill="#fff" opacity=".3"/>
      <path d="m46.672777 256.26723-37.4791932 31.39362.2042971.001 36.2183301-30.33809 75.468099 30.71263 3.68353.0124z" fill="#fcfcfc" opacity=".3"/>
      <path d="m10.454447 286.60532-1.2608632 1.05553 115.5742562.38796-2.62697-1.06894z" fill="#292929" opacity=".2"/>
    </g>
  </g>
</svg>
