<svg fill="none" height="256" viewBox="0 0 256 256" width="256" xmlns="http://www.w3.org/2000/svg" xmlns:xlink="http://www.w3.org/1999/xlink">
  <linearGradient id="paint0_linear" gradientUnits="userSpaceOnUse" x1="27.8835" x2="227.884" y1="25.1748" y2="225.175">
    <stop offset="0" stop-opacity=".588235"/>
    <stop offset="1" stop-opacity=".205556"/>
  </linearGradient>
  <path d="m54.8051 18.1745c-35.2967 0-39.0946 3.6254-38.9216 38.9935v73.006 73.007c-.173 35.368 3.6249 38.993 38.9216 38.993h146.1569c35.297 0 39.89-3.638 38.922-38.993v-73.007-73.006c0-35.3685-3.625-38.9935-38.922-38.9935z" fill="#000" opacity=".1"/>
  <path d="m54.8051 18.1748c-35.2967 0-39.0946 3.6254-38.9216 38.9935v73.0067 73.006c-.173 35.368 3.6249 38.994 38.9216 38.994h146.1569c35.297 0 39.89-3.639 38.922-38.994v-73.006-73.0067c0-35.3685-3.625-38.9935-38.922-38.9935z" fill="url(#paint0_linear)" opacity=".3"/>
  <path d="m53.6951 15.1745c-36.0988 0-39.983 3.6901-39.8061 39.6898v74.3097 74.311c-.1769 35.999 3.7073 39.689 39.8061 39.689h148.3869c36.099 0 40.775-3.702 39.807-39.689v-74.311-74.3097c0-36.0001-3.708-39.6898-39.807-39.6898z" fill="#000" opacity=".1"/>
  <path d="m54.8051 241.174c-35.2967 0-39.0946-3.625-38.9216-38.993v-73.007-73.006c-.173-35.3681 3.6249-38.9935 38.9216-38.9935h146.1569c35.297 0 38.921 3.625 38.921 38.9935v73.006 73.007c0 35.368-3.624 38.993-38.921 38.993z" fill="#179f85"/>
  <path d="m54.8054 17.1745c-35.2967 0-39.0949 3.626-38.9219 38.9941v2c-.173-35.3681 3.6252-38.9941 38.9219-38.9941h146.1566c35.296 0 38.922 3.6256 38.922 38.9941v-2c0-35.3685-3.626-38.9941-38.922-38.9941z" fill="#fff" opacity=".3"/>
  <path d="m54.8108 241.174c-35.2967 0-39.0949-3.626-38.9219-38.994v-2c-.173 35.368 3.6252 38.994 38.9219 38.994h146.1562c35.297 0 38.922-3.625 38.922-38.994v2c0 35.369-3.625 38.994-38.922 38.994z" fill="#000" opacity=".2"/>
  <path d="m99.2573 57c-5.7379 0-10.3572 4.6193-10.3572 10.3571v10.3572c0 5.7378 4.6193 10.3571 10.3572 10.3571h10.3567c5.738 0 10.358-4.6193 10.358-10.3571v-10.3572c0-5.7378-4.62-10.3571-10.358-10.3571zm-4.8885 41.4286-5.4687 3.9664-20.1656 40.331c-3.4696 6.318 6.3183 11.186 9.2598 4.619l10.9058-21.812 3.9358-11.652-3.9358 36.333v51.786h10.3572v-41.429h10.3567v41.429h10.358v-51.786l-5.469-36.374 5.469 11.704 10.905 21.801c.502 1.005 1.316 1.819 2.32 2.32l17.846 8.928v43.407h20.714v-34.106l6.691 6.701c4.889 5.075 12.408-2.444 7.333-7.333l-14.024-14.013v-3.035h-14.324l-18.063-9.041-19.398-38.778-7.178-3.9664zm56.6742 20.7144v20.714h20.714v-20.714z" fill="#fff"/>
</svg>
