<svg height="256" viewBox="0 0 67.733332 67.733336" width="256" xmlns="http://www.w3.org/2000/svg" xmlns:xlink="http://www.w3.org/1999/xlink">
  <linearGradient id="linearGradient1514" gradientUnits="userSpaceOnUse" x1="32.858604" x2="32.857143" y1="252.6799" y2="281.6488">
    <stop offset="0" stop-color="#dfdfdf"/>
    <stop offset=".50732297" stop-color="#dfdfdf"/>
    <stop offset=".50732297" stop-color="#fff"/>
    <stop offset="1" stop-color="#fffefe"/>
  </linearGradient>
  <filter id="filter1544" color-interpolation-filters="sRGB" height="1.024002" width="1.023999" x="-.011999" y="-.012001">
    <feGaussianBlur stdDeviation=".30160678"/>
  </filter>
  <filter id="filter1558" color-interpolation-filters="sRGB" height="1.096006" width="1.095994" x="-.047997" y="-.048003">
    <feGaussianBlur stdDeviation="1.2064271"/>
  </filter>
  <g transform="translate(0 -229.26665)">
    <g fill="#000209">
      <path d="m56.906513 232.82599c-15.140199.00068-30.280511.003-45.420907.00053-.734286-.0186-1.4878833.0271-2.1691853.32558v-.00052c-1.565253.62156-2.662753 2.24004-2.652573 3.92547.005 1.52832-.0072 3.05716.01473 4.58612.512161-.19934 1.067602-.22337 1.610057-.2367-.542455.0142-1.097893.038-1.610057.23722-1.376034.48861-2.509194 1.69585-2.786702 3.14438v.00052c-.161517.63908-.125411 1.30917-.01946 1.95511.923498 6.85159 1.856115 13.70274 2.774604 20.55521 5.3855213-.0104 10.7717023-.008 16.1563423-.001-.01349-.48948.0051-.97944-.01157-1.46804l.04103-.001c1.622375-.0388 3.333097.15979 4.851215-.55176 1.247338-.52649 2.175996-1.71909 2.351706-3.06548.151568-1.28278.02178-2.68557-.73849-3.77136-.598075-.85955-1.611886-1.33597-2.625222-1.48645-1.367659-.19103-2.866848-.0543-4.014889.77584-1.130447.79486-1.729183 2.1977-1.700531 3.55938-1.041296.0266-2.083341.006-3.125439.01.02019-.57195.06414-1.14737.213027-1.70159.35836-1.44431 1.242757-2.74239 2.429552-3.63407 1.349887-1.02863 3.039344-1.5598 4.726558-1.62268 1.673608-.0589 3.406405.21204 4.870675 1.0625 1.158035.66344 2.075262 1.72537 2.574727 2.96186.497944 1.23471.65578 2.59989.504426 3.91968-.323966 2.11353-1.956782 3.82106-3.864456 4.66554.272555.0824.53925.18573.793194.31455.158059.0696.328418.0512.497588.0384-.09238.005-.184677.0137-.276673.0253.760279.45248 1.50454.96746 2.046107 1.68054.963035 1.20456 1.312895 2.7968 1.214514 4.31313-.07335 1.58883-.628415 3.18257-1.701581 4.37362-1.168229 1.31803-2.852978 2.08862-4.572967 2.36117-1.768849.27079-3.617474.12554-5.290417-.52705-1.319666-.5132-2.524776-1.38859-3.301122-2.58629-.728302-1.0951-1.043704-2.42005-1.063027-3.72455 1.031195.003 2.062707.006 3.093879-.00052.0092.51209.06895 1.02814.224597 1.51854.327093 1.11349 1.192747 2.02689 2.253347 2.48004 1.362628.58456 2.937939.62048 4.352576.20146 1.164903-.34237 2.163091-1.22768 2.579459-2.37485.446498-1.22384.490182-2.60328.109934-3.84973-.344797-1.12634-1.241575-2.03912-2.332246-2.46479-1.615839-.67543-3.399532-.47051-5.105269-.50338.0042-.30956.000983-.61828-.0042-.92785-5.382069-.004-10.765357-.0108-16.1474013.003-.450029 6.5119-.872508 13.02626-1.316555 19.53794-.03374 1.02773-.253146 2.07967.01683 3.09388l.02051.0274c.157278.19833.26625.42866.383973.65223.561848 1.02199 1.573744 1.75317 2.689918 2.05768.493726.13261 1.009617.10625 1.515907.10625 16.1488123.006 32.2976893-.0105 48.4474573-.001.168091.001.334938-.0105.500745-.0305-.185297.0252-.37346.0382-.561759.0363-16.149768-.0102-32.298123.007-48.4469323.001-.50629 0-1.022181.0265-1.515907-.10626-1.116196-.30445-2.128595-1.0357-2.690443-2.05767-.11772-.2236-.226698-.45389-.383974-.65223.365106 1.39959 1.503169 2.55672 2.88769 2.96711.603835.19646 1.245072.19033 1.8725293.18463 15.72914 0 31.458215.001 47.187185.001.786423-.008 1.598959.0579 2.355912-.20619 1.313358-.41185 2.388555-1.49965 2.780389-2.81984.03303-.0468.06561-.094.104147-.13728l.01946-.0237c.21449-.75872.116458-1.55423.07101-2.32804-.462459-6.76982-.903176-13.54079-1.370734-20.31062-4.048243-.007-8.097635-.002-12.145657 0-.403169-.004-.80695.016-1.20873-.011.573447.0196 1.148069-.00032 1.722097.005 3.884044.005 7.768927-.007 11.653856.001.921154-6.99541 1.888683-13.98551 2.822469-20.97915.04359-.38845.0668-.78713-.01631-1.17138-.154894-1.58793-1.354117-2.95833-2.834567-3.49258-.488609-.18588-1.01482-.23553-1.533789-.23933v-.00052c.518799.003 1.045346.053 1.533789.2388.02354-1.47092.0018-2.9426.0084-4.41465.01175-.65765-.108116-1.31989-.389758-1.91618-.667877-1.51302-2.276668-2.53424-3.928627-2.50635zm-36.436453 2.1613c.233818.0141.464323.0626.678003.16358.632465.25482 1.079898.86048 1.232924 1.51328.05221.46424.03699.95629-.182521 1.3802-.398688.87638-1.459616 1.38187-2.390628 1.13877-.955522-.2136-1.666135-1.1332-1.656874-2.10975-.01852-.9504.709181-1.81796 1.620054-2.04243.22795-.037.465226-.0577.699042-.0436zm26.97703.00052c.354958-.0209.715143.0187 1.036729.17779.709975.31289 1.190977 1.0537 1.24239 1.82151-.000886.59142-.198668 1.20896-.636976 1.62268-.372496.39288-.909091.60949-1.444897.63382-.829192.0117-1.665192-.48365-1.989823-1.25765-.210289-.41283-.184083-.88842-.157273-1.33601.157329-.78888.818183-1.44081 1.597962-1.62321.11545-.0181.233568-.032.351888-.0389zm-.03629 19.36174c.06462.002.128944.005.193039.0105-.015 4.30622.0023 8.6137-.0079 12.91992h-.0026l-.0011.0395c-.0133 4.29553-.0028 8.59145-.0053 12.88678-1.076709 0-2.152738.00076-3.23011-.001-.0029-4.29533.0093-8.59019-.0058-12.88573v-.0284h.0021c-.0017-2.97995-.0022-5.95873.001-8.93869-2.154971.71662-4.305942 1.44468-6.4618 2.15708-.0066-.97322.0061-1.94654-.0047-2.91977 2.98084-1.0623 5.970807-2.09835 8.953421-3.1549.181648-.075.375795-.0905.569648-.0852zm-3.291126 12.94832c-.419955.0314-.842409.006-1.262903.0147-3.328056.002-6.656127-.00069-9.984363.001 3.748819-.003 7.498725.0107 11.247266-.0158zm-13.371218.0163c.02664-.0001.0533.00009.07995 0-.08242.002-.16498.004-.247213.009.05597-.004.112223-.0104.167263-.009z" filter="url(#filter1558)" opacity=".1"/>
      <path d="m56.906513 232.82599c-15.140199.00068-30.280511.003-45.420907.00053-.734286-.0186-1.4878833.0271-2.1691853.32558v-.00052c-1.565253.62156-2.662753 2.24004-2.652573 3.92547.005 1.52832-.0072 3.05716.01473 4.58612.512161-.19934 1.067602-.22337 1.610057-.2367-.542455.0142-1.097893.038-1.610057.23722-1.376034.48861-2.509194 1.69585-2.786702 3.14438v.00052c-.161517.63908-.125411 1.30917-.01946 1.95511.923498 6.85159 1.856115 13.70274 2.774604 20.55521 5.3855213-.0104 10.7717023-.008 16.1563423-.001-.01349-.48948.0051-.97944-.01157-1.46804l.04103-.001c1.622375-.0388 3.333097.15979 4.851215-.55176 1.247338-.52649 2.175996-1.71909 2.351706-3.06548.151568-1.28278.02178-2.68557-.73849-3.77136-.598075-.85955-1.611886-1.33597-2.625222-1.48645-1.367659-.19103-2.866848-.0543-4.014889.77584-1.130447.79486-1.729183 2.1977-1.700531 3.55938-1.041296.0266-2.083341.006-3.125439.01.02019-.57195.06414-1.14737.213027-1.70159.35836-1.44431 1.242757-2.74239 2.429552-3.63407 1.349887-1.02863 3.039344-1.5598 4.726558-1.62268 1.673608-.0589 3.406405.21204 4.870675 1.0625 1.158035.66344 2.075262 1.72537 2.574727 2.96186.497944 1.23471.65578 2.59989.504426 3.91968-.323966 2.11353-1.956782 3.82106-3.864456 4.66554.272555.0824.53925.18573.793194.31455.158059.0696.328418.0512.497588.0384-.09238.005-.184677.0137-.276673.0253.760279.45248 1.50454.96746 2.046107 1.68054.963035 1.20456 1.312895 2.7968 1.214514 4.31313-.07335 1.58883-.628415 3.18257-1.701581 4.37362-1.168229 1.31803-2.852978 2.08862-4.572967 2.36117-1.768849.27079-3.617474.12554-5.290417-.52705-1.319666-.5132-2.524776-1.38859-3.301122-2.58629-.728302-1.0951-1.043704-2.42005-1.063027-3.72455 1.031195.003 2.062707.006 3.093879-.00052.0092.51209.06895 1.02814.224597 1.51854.327093 1.11349 1.192747 2.02689 2.253347 2.48004 1.362628.58456 2.937939.62048 4.352576.20146 1.164903-.34237 2.163091-1.22768 2.579459-2.37485.446498-1.22384.490182-2.60328.109934-3.84973-.344797-1.12634-1.241575-2.03912-2.332246-2.46479-1.615839-.67543-3.399532-.47051-5.105269-.50338.0042-.30956.000983-.61828-.0042-.92785-5.382069-.004-10.765357-.0108-16.1474013.003-.450029 6.5119-.872508 13.02626-1.316555 19.53794-.03374 1.02773-.253146 2.07967.01683 3.09388l.02051.0274c.157278.19833.26625.42866.383973.65223.561848 1.02199 1.573744 1.75317 2.689918 2.05768.493726.13261 1.009617.10625 1.515907.10625 16.1488123.006 32.2976893-.0105 48.4474573-.001.168091.001.334938-.0105.500745-.0305-.185297.0252-.37346.0382-.561759.0363-16.149768-.0102-32.298123.007-48.4469323.001-.50629 0-1.022181.0265-1.515907-.10626-1.116196-.30445-2.128595-1.0357-2.690443-2.05767-.11772-.2236-.226698-.45389-.383974-.65223.365106 1.39959 1.503169 2.55672 2.88769 2.96711.603835.19646 1.245072.19033 1.8725293.18463 15.72914 0 31.458215.001 47.187185.001.786423-.008 1.598959.0579 2.355912-.20619 1.313358-.41185 2.388555-1.49965 2.780389-2.81984.03303-.0468.06561-.094.104147-.13728l.01946-.0237c.21449-.75872.116458-1.55423.07101-2.32804-.462459-6.76982-.903176-13.54079-1.370734-20.31062-4.048243-.007-8.097635-.002-12.145657 0-.403169-.004-.80695.016-1.20873-.011.573447.0196 1.148069-.00032 1.722097.005 3.884044.005 7.768927-.007 11.653856.001.921154-6.99541 1.888683-13.98551 2.822469-20.97915.04359-.38845.0668-.78713-.01631-1.17138-.154894-1.58793-1.354117-2.95833-2.834567-3.49258-.488609-.18588-1.01482-.23553-1.533789-.23933v-.00052c.518799.003 1.045346.053 1.533789.2388.02354-1.47092.0018-2.9426.0084-4.41465.01175-.65765-.108116-1.31989-.389758-1.91618-.667877-1.51302-2.276668-2.53424-3.928627-2.50635zm-36.436453 2.1613c.233818.0141.464323.0626.678003.16358.632465.25482 1.079898.86048 1.232924 1.51328.05221.46424.03699.95629-.182521 1.3802-.398688.87638-1.459616 1.38187-2.390628 1.13877-.955522-.2136-1.666135-1.1332-1.656874-2.10975-.01852-.9504.709181-1.81796 1.620054-2.04243.22795-.037.465226-.0577.699042-.0436zm26.97703.00052c.354958-.0209.715143.0187 1.036729.17779.709975.31289 1.190977 1.0537 1.24239 1.82151-.000886.59142-.198668 1.20896-.636976 1.62268-.372496.39288-.909091.60949-1.444897.63382-.829192.0117-1.665192-.48365-1.989823-1.25765-.210289-.41283-.184083-.88842-.157273-1.33601.157329-.78888.818183-1.44081 1.597962-1.62321.11545-.0181.233568-.032.351888-.0389zm-.03629 19.36174c.06462.002.128944.005.193039.0105-.015 4.30622.0023 8.6137-.0079 12.91992h-.0026l-.0011.0395c-.0133 4.29553-.0028 8.59145-.0053 12.88678-1.076709 0-2.152738.00076-3.23011-.001-.0029-4.29533.0093-8.59019-.0058-12.88573v-.0284h.0021c-.0017-2.97995-.0022-5.95873.001-8.93869-2.154971.71662-4.305942 1.44468-6.4618 2.15708-.0066-.97322.0061-1.94654-.0047-2.91977 2.98084-1.0623 5.970807-2.09835 8.953421-3.1549.181648-.075.375795-.0905.569648-.0852zm-3.291126 12.94832c-.419955.0314-.842409.006-1.262903.0147-3.328056.002-6.656127-.00069-9.984363.001 3.748819-.003 7.498725.0107 11.247266-.0158zm-13.371218.0163c.02664-.0001.0533.00009.07995 0-.08242.002-.16498.004-.247213.009.05597-.004.112223-.0104.167263-.009z" filter="url(#filter1544)" opacity=".1"/>
      <path d="m56.906513 232.82599c-15.140199.00068-30.280511.003-45.420907.00053-.734286-.0186-1.4878833.0271-2.1691853.32558v-.00052c-1.565253.62156-2.662753 2.24004-2.652573 3.92547.005 1.52832-.0072 3.05716.01473 4.58612.512161-.19934 1.067602-.22337 1.610057-.2367-.542455.0142-1.097893.038-1.610057.23722-1.376034.48861-2.509194 1.69585-2.786702 3.14438v.00052c-.161517.63908-.125411 1.30917-.01946 1.95511.923498 6.85159 1.856115 13.70274 2.774604 20.55521 5.3855213-.0104 10.7717023-.008 16.1563423-.001-.01349-.48948.0051-.97944-.01157-1.46804l.04103-.001c1.622375-.0388 3.333097.15979 4.851215-.55176 1.247338-.52649 2.175996-1.71909 2.351706-3.06548.151568-1.28278.02178-2.68557-.73849-3.77136-.598075-.85955-1.611886-1.33597-2.625222-1.48645-1.367659-.19103-2.866848-.0543-4.014889.77584-1.130447.79486-1.729183 2.1977-1.700531 3.55938-1.041296.0266-2.083341.006-3.125439.01.02019-.57195.06414-1.14737.213027-1.70159.35836-1.44431 1.242757-2.74239 2.429552-3.63407 1.349887-1.02863 3.039344-1.5598 4.726558-1.62268 1.673608-.0589 3.406405.21204 4.870675 1.0625 1.158035.66344 2.075262 1.72537 2.574727 2.96186.497944 1.23471.65578 2.59989.504426 3.91968-.323966 2.11353-1.956782 3.82106-3.864456 4.66554.272555.0824.53925.18573.793194.31455.158059.0696.328418.0512.497588.0384-.09238.005-.184677.0137-.276673.0253.760279.45248 1.50454.96746 2.046107 1.68054.963035 1.20456 1.312895 2.7968 1.214514 4.31313-.07335 1.58883-.628415 3.18257-1.701581 4.37362-1.168229 1.31803-2.852978 2.08862-4.572967 2.36117-1.768849.27079-3.617474.12554-5.290417-.52705-1.319666-.5132-2.524776-1.38859-3.301122-2.58629-.728302-1.0951-1.043704-2.42005-1.063027-3.72455 1.031195.003 2.062707.006 3.093879-.00052.0092.51209.06895 1.02814.224597 1.51854.327093 1.11349 1.192747 2.02689 2.253347 2.48004 1.362628.58456 2.937939.62048 4.352576.20146 1.164903-.34237 2.163091-1.22768 2.579459-2.37485.446498-1.22384.490182-2.60328.109934-3.84973-.344797-1.12634-1.241575-2.03912-2.332246-2.46479-1.615839-.67543-3.399532-.47051-5.105269-.50338.0042-.30956.000983-.61828-.0042-.92785-5.382069-.004-10.765357-.0108-16.1474013.003-.450029 6.5119-.872508 13.02626-1.316555 19.53794-.03374 1.02773-.253146 2.07967.01683 3.09388l.02051.0274c.157278.19833.26625.42866.383973.65223.561848 1.02199 1.573744 1.75317 2.689918 2.05768.493726.13261 1.009617.10625 1.515907.10625 16.1488123.006 32.2976893-.0105 48.4474573-.001.168091.001.334938-.0105.500745-.0305-.185297.0252-.37346.0382-.561759.0363-16.149768-.0102-32.298123.007-48.4469323.001-.50629 0-1.022181.0265-1.515907-.10626-1.116196-.30445-2.128595-1.0357-2.690443-2.05767-.11772-.2236-.226698-.45389-.383974-.65223.365106 1.39959 1.503169 2.55672 2.88769 2.96711.603835.19646 1.245072.19033 1.8725293.18463 15.72914 0 31.458215.001 47.187185.001.786423-.008 1.598959.0579 2.355912-.20619 1.313358-.41185 2.388555-1.49965 2.780389-2.81984.03303-.0468.06561-.094.104147-.13728l.01946-.0237c.21449-.75872.116458-1.55423.07101-2.32804-.462459-6.76982-.903176-13.54079-1.370734-20.31062-4.048243-.007-8.097635-.002-12.145657 0-.403169-.004-.80695.016-1.20873-.011.573447.0196 1.148069-.00032 1.722097.005 3.884044.005 7.768927-.007 11.653856.001.921154-6.99541 1.888683-13.98551 2.822469-20.97915.04359-.38845.0668-.78713-.01631-1.17138-.154894-1.58793-1.354117-2.95833-2.834567-3.49258-.488609-.18588-1.01482-.23553-1.533789-.23933v-.00052c.518799.003 1.045346.053 1.533789.2388.02354-1.47092.0018-2.9426.0084-4.41465.01175-.65765-.108116-1.31989-.389758-1.91618-.667877-1.51302-2.276668-2.53424-3.928627-2.50635zm-36.436453 2.1613c.233818.0141.464323.0626.678003.16358.632465.25482 1.079898.86048 1.232924 1.51328.05221.46424.03699.95629-.182521 1.3802-.398688.87638-1.459616 1.38187-2.390628 1.13877-.955522-.2136-1.666135-1.1332-1.656874-2.10975-.01852-.9504.709181-1.81796 1.620054-2.04243.22795-.037.465226-.0577.699042-.0436zm26.97703.00052c.354958-.0209.715143.0187 1.036729.17779.709975.31289 1.190977 1.0537 1.24239 1.82151-.000886.59142-.198668 1.20896-.636976 1.62268-.372496.39288-.909091.60949-1.444897.63382-.829192.0117-1.665192-.48365-1.989823-1.25765-.210289-.41283-.184083-.88842-.157273-1.33601.157329-.78888.818183-1.44081 1.597962-1.62321.11545-.0181.233568-.032.351888-.0389zm-.03629 19.36174c.06462.002.128944.005.193039.0105-.015 4.30622.0023 8.6137-.0079 12.91992h-.0026l-.0011.0395c-.0133 4.29553-.0028 8.59145-.0053 12.88678-1.076709 0-2.152738.00076-3.23011-.001-.0029-4.29533.0093-8.59019-.0058-12.88573v-.0284h.0021c-.0017-2.97995-.0022-5.95873.001-8.93869-2.154971.71662-4.305942 1.44468-6.4618 2.15708-.0066-.97322.0061-1.94654-.0047-2.91977 2.98084-1.0623 5.970807-2.09835 8.953421-3.1549.181648-.075.375795-.0905.569648-.0852zm-3.291126 12.94832c-.419955.0314-.842409.006-1.262903.0147-3.328056.002-6.656127-.00069-9.984363.001 3.748819-.003 7.498725.0107 11.247266-.0158zm-13.371218.0163c.02664-.0001.0533.00009.07995 0-.08242.002-.16498.004-.247213.009.05597-.004.112223-.0104.167263-.009z" opacity=".1"/>
    </g>
    <rect fill="url(#linearGradient1514)" height="29.310158" rx="3.383095" ry="4.675849" width="35.200577" x="15.400252" y="252.50247"/>
    <path d="m47.276101 267.35627-.000988.0386c-.01307 4.22018-.0024 8.44071-.0048 12.66069-1.057822 0-2.115138.00079-3.173613-.00099-.0028-4.21998.009-8.43954-.0058-12.65973v-.0376l-.05981.006.000988-.002c-.467845.0553-.939948.0177-1.409316.027-3.746467.002-7.493118-.003-11.239801.00099-.36596-.001-.733211-.0118-1.096777.0338.746942.44454 1.478209.95086 2.010276 1.65143.946142 1.18343 1.289896 2.74787 1.19324 4.2376-.07206 1.56096-.617352 3.12628-1.671693 4.29643-1.147734 1.29491-2.803401 2.05215-4.493219 2.31992-1.737819.26604-3.553796.12314-5.197395-.518-1.296515-.5042-2.480341-1.36413-3.243067-2.54082-.715526-1.07589-1.025703-2.37721-1.044687-3.65882 1.013106.003 2.026445.005 3.03953-.00099.009.50311.06798 1.01049.220899 1.49228.321353 1.09396 1.171816 1.99144 2.213812 2.43664 1.338725.5743 2.886356.60942 4.276179.19775 1.144469-.33636 2.125002-1.20638 2.534068-2.33343.438665-1.20237.481616-2.5577.108038-3.78229-.338749-1.10658-1.219444-2.003-2.290983-2.42121-1.587494-.66358-3.340229-.46256-5.016045-.49485.0041-.30413.0012-.60743-.0039-.91157-5.287658-.004-10.576575-.0102-15.8642096.003-.4421338 6.39767-.8573017 12.7976-1.293561 19.19506-.033152 1.0097-.2488428 2.04311.016399 3.03953l.020257.027c.1545185.19485.2615097.42087.377168.64052.5519924 1.00406 1.5464736 1.72268 2.6430699 2.02185.4850652.13029.9919707.10418 1.4893797.10418 15.865535.006 31.730973-.0103 47.59745-.00099.165141.001.329062-.0102.491961-.0299-.182047.0248-.36677.0376-.551766.0357-15.866475-.01-31.731917.007-47.597451.00098-.4974099 0-1.0043143.0263-1.4893801-.10418-1.096618-.29911-2.0910778-1.01781-2.6430702-2.02185-.1156552-.21967-.2226514-.44565-.377168-.64051.3586997 1.37504 1.4767241 2.5119 2.8369595 2.9151.593243.19301 1.2230879.18695 1.8395388.18135 15.453226 0 30.90678.00098 46.359838.00098.772628-.008 1.570458.0569 2.314135-.20256 1.29032-.40463 2.346854-1.47338 2.731815-2.77041.03245-.046.06439-.0925.10225-.13505l.01931-.0232c.210727-.74541.114102-1.52689.06945-2.28712-.454347-6.65107-.887259-13.30315-1.346614-19.95422-3.977232-.007-7.955388-.002-11.932401 0-.46937-.005-.939667.0284-1.406422-.028z" fill="#2f5fdd"/>
    <path d="m19.942016 235.67178c.447903-.0726.932882-.0801 1.352745.11816.621371.25036 1.060959.84513 1.211305 1.48648.0513.45608.0364.9396-.179255 1.35608-.391695.86101-1.433712 1.3576-2.348394 1.11878-.93876-.20987-1.637045-1.11311-1.627945-2.07254-.0182-.93374.696652-1.78647 1.591546-2.00701" fill="#fff"/>
    <path d="m46.78705 235.66852c.453696-.0711.942875-.0721 1.364132.13626.697523.3074 1.170158 1.0354 1.220666 1.78974-.000888.58105-.195062 1.18757-.62568 1.59404-.365961.38598-.893239.59912-1.419647.62307-.814648.0112-1.636045-.47505-1.954981-1.23547-.2066-.40559-.180917-.87322-.154578-1.31297.154578-.77504.803979-1.41553 1.570079-1.59469" fill="#fff"/>
    <path d="m46.78705 235.66852c-.7661.1792-1.41551.81965-1.570079 1.59469-.02634.43974-.05202.90738.154579 1.31297.318936.76042 1.140332 1.247 1.95498 1.23547.526408-.0239 1.053686-.23709 1.419647-.62308.430618-.40646.624811-1.01298.625681-1.59403-.05051-.75434-.523143-1.48234-1.220666-1.78974-.421257-.20834-.910436-.20746-1.364132-.13626zm-26.845034.004c-.894894.22053-1.609746 1.07327-1.591546 2.007-.0091.95942.689185 1.86268 1.627946 2.07253.914682.23884 1.956698-.25775 2.348393-1.11876.215657-.41647.230548-.89999.179255-1.35609-.150341-.64135-.589934-1.23613-1.211304-1.48648-.419864-.19832-.904843-.19093-1.352746-.11816zm-10.2712893-1.84554c.6693523-.29325 1.4097203-.33809 2.1311253-.3198 14.874807.002 29.74964 0 44.624255-.00067 1.62298-.0274 3.20373.97576 3.85989 2.46224.276701.58583.394043 1.23635.382501 1.88247-.0065 1.44622.01493 2.89221-.0082 4.33732-.480038-.18256-.997301-.23141-1.507167-.23467-16.830682.004-33.661386.002-50.4921117.002-.532939.0131-1.078396.0371-1.5815748.23294-.021551-1.50214-.00997-3.0045-.014915-4.50601-.00995-1.65586 1.0684467-3.24575 2.6062412-3.85641" fill="#b9b9b9"/>
    <path d="m59.153485 241.95397c-16.830683.003-33.661563.001-50.4922872.002-.5329392.0139-1.0788045.0377-1.5819837.23343-1.351895.48004-2.464963 1.66561-2.7376033 3.08873-.0001381.00025.0001381.00069 0 .00099-.1586849.62787-.1233812 1.28596-.019293 1.92057.907297 6.7314 1.8236518 13.46214 2.7260278 20.1944 5.2910514-.0102 10.5827084-.008 15.8728914-.00099-.01325-.4809.0048-.96208-.01158-1.44211l.04051-.00099c1.593917-.0381 3.27472.15695 4.766208-.54212 1.225456-.51725 2.137646-1.68878 2.310275-3.01155.14891-1.26028.02154-2.63838-.725397-3.70512-.587583-.84448-1.583845-1.3126-2.579405-1.46044-1.343669-.18768-2.816444-.0535-3.944348.76205-1.110616.78092-1.698878 2.15896-1.670729 3.49676-1.023032.0261-2.046581.006-3.070399.01.01983-.56191.06305-1.12721.209323-1.6717.352072-1.41898 1.220502-2.69403 2.386481-3.57007 1.326208-1.01059 2.986084-1.53274 4.6437-1.59452 1.644252-.0579 3.346915.20818 4.785501 1.04372 1.137721.6518 2.038539 1.69547 2.529244 2.91027.489209 1.21305.644515 2.55414.495817 3.85078-.318283 2.07645-1.922549 3.75422-3.796761 4.58389.267776.081.529928.18212.779417.30868.208123.0917.438863.0233.657873.0289 4.434846-.016 8.871927.0166 13.306991-.0164l.05884-.006c-.0017-2.92767-.0022-5.85424.000988-8.78193-2.117169.70405-4.230152 1.41937-6.348191 2.11928-.0065-.95615.0058-1.91264-.0048-2.8688 2.928551-1.04367 5.866114-2.06132 8.796407-3.09933.237951-.0982.49763-.0931.749513-.0733-.01475 4.23412.0024 8.46901-.0077 12.70314l.05112.004c.63526.0351 1.272642.006 1.908991.0116 3.815912.005 7.632339-.007 11.449122.00099.904994-6.8727 1.855891-13.74017 2.773297-20.61113.04282-.38164.06525-.77328-.0164-1.15079-.152177-1.56007-1.33039-2.90629-2.784869-3.43117-.480039-.18262-.996878-.23164-1.506743-.23537z" fill="#5884f4"/>
    <path d="m31.92118 292.43275-24.8612584-25.02717c-.4421099 6.39734-.8582886 12.79695-1.2945256 19.19409-.016539.50484-.078319 1.01605-.1032147 1.52507-.024895.50902-.013008 1.01625.1196133 1.51446l.020257.027c.1545174.19484.2615135.42086.3771681.64051.2759962.50203.6634142.93279 1.1179992 1.27524.4545849.34245.9767619.59608 1.5250709.74565.4850652.13029.9919697.10515 1.4893802.10515 7.202896.003 14.406511.002 21.60951 0z" fill="#80a3fa" opacity=".2"/>
    <path d="m223.57227 47.951172c-63.61203.011338-127.225709.004033-190.837895.007812-2.014258.052536-4.076736.143046-5.978516.882813-5.109524 1.814324-9.315251 6.295107-10.345703 11.673828-.000522.000945.000522.002772 0 .003906-.364917 1.443871-.438537 2.929388-.367187 4.41211.054278-.811509.166628-1.618556.367187-2.41211.000522-.001134-.000522-.002961 0-.003906 1.030452-5.378721 5.236179-9.859504 10.345703-11.673828 1.90178-.739767 3.964258-.830277 5.978516-.882813 63.612186-.003779 127.225865.003526 190.837895-.007812v.001953c1.92704.014098 3.88099.200408 5.69531.890625 5.49724 1.983798 9.95023 7.070469 10.52539 12.966797.08517.393769.13412.793373.16601 1.193359.07239-1.069265.06061-2.145576-.16601-3.193359-.57516-5.896328-5.02815-10.982999-10.52539-12.966797-1.81432-.690217-3.76827-.876527-5.69531-.890625zm-44.85352 50.035156c-.02305 8.001602-.02221 16.003642-.01758 24.005862-.00446-8.00222-.00834-16.00438.01953-24.005862-.00064-.000051-.0013.000051-.00195 0zm-81.595703 7.421872c-3.907838-.01213-7.837948.85227-11.035156 3.16407-4.197604 2.9515-6.420843 8.15859-6.314453 13.21484-3.829487.0977-7.659778.0258-11.492188.03906-.050233.66613-.087809 1.33357-.111328 2 3.869548-.01512 7.736938.05959 11.603516-.03906-.10639-5.05625 2.116849-10.26334 6.314453-13.21484 4.262944-3.0824 9.829769-3.59021 14.908199-2.88086 3.76275.55876 7.52726 2.32779 9.74805 5.51953 1.97682 2.8232 2.79011 6.22423 2.91602 9.64453.15737-4.07244-.55302-8.2698-2.91602-11.64453-2.22079-3.19174-5.9853-4.96077-9.74805-5.51953-1.269605-.17734-2.57043-.27916-3.873043-.28321zm45.525393 4.56641c-.00194.00069-.00392.00126-.00586.00195.02003 1.80692.01917 3.61465.01562 5.42188.0023-1.80783-.003-3.61608-.00976-5.42383zm24.00586.83594c-8.0019 2.66097-15.98896 5.36443-23.99414 8.00976.00068.6666-.00453 1.33348 0 2 8.00518-2.64533 15.99224-5.34879 23.99414-8.00976.00062-.66673-.00073-1.33325 0-2zm-41.42774 12.10156c-.02757.86036-.07789 1.7206-.17578 2.57422-1.20296 7.848-7.26597 14.18846-14.34961 17.32422.77371.23404 1.5267.52942 2.26367.86133 6.07662-3.39794 11.0136-9.1897 12.08594-16.18555.17374-1.515.22499-3.04637.17578-4.57422zm-38.638669 17.73828c.039202 1.14887.031373 2.29823.029297 3.44922.004556.00001.009114-.00001.013671 0-.031685-1.15-.023543-2.29974-.023437-3.44922z" fill="#fff" opacity=".3" transform="matrix(.26458333 0 0 .26458333 0 229.26665)"/>
    <path d="m116.53711 144.08398c-.69167.01087-1.38326.04274-2.07031.12891 2.82308 1.68015 5.58669 3.59436 7.59765 6.24219 2.98203 3.7299 4.36266 8.46143 4.53321 13.19531.19313-5.38044-1.13011-10.93873-4.53321-15.19531-1.30842-1.7228-2.93659-3.132-4.6914-4.3711-.2787-.00072-.55745-.00437-.83594 0zm-1.3457 19.93164c-.0961 2.33623-.53773 4.65783-1.33594 6.84571-1.54608 4.25971-5.25257 7.54903-9.57813 8.82031-5.252871 1.55592-11.102358 1.42254-16.162106-.74805-3.938252-1.68264-7.152625-5.07433-8.367187-9.20898-.577962-1.82094-.799969-3.73911-.833985-5.64063-3.828982.02264-7.659219.01525-11.488281.00391.009867.66613.045041 1.33347.097657 2 3.796527.01118 7.59419.01854 11.390624-.00391.034016 1.90152.256023 3.81969.833985 5.64063 1.214562 4.13465 4.428935 7.52634 8.367187 9.20898 5.059748 2.17059 10.909235 2.30397 16.162106.74805 4.32556-1.27128 8.03205-4.5606 9.57813-8.82031 1.02599-2.81221 1.47409-5.84482 1.33594-8.84571zm-93.810551 58.79883c-.068499 1.7923-.002273 3.57919.464844 5.33399l.076172.10156c.584007.73644.988648 1.58975 1.425781 2.41992 2.086271 3.79487 5.843666 6.51186 9.988282 7.64258 1.833317.49243 3.750888.39258 5.630859.39258 59.964227.02268 119.926743-.0391 179.894533-.00391.62415.00378 1.24369-.03687 1.85937-.11133-.68805.09374-1.38478.14195-2.08398.13477-59.96778-.0378-119.932263.02666-179.896486.00391-1.879974 0-3.795586.09862-5.628906-.39454-4.144698-1.13049-7.903964-3.84778-9.990234-7.64257-.437122-.83025-.841782-1.68345-1.425782-2.41993 1.355716 5.19701 5.58161 9.49368 10.722657 11.01758 2.242178.72949 4.623232.70671 6.953125.68555 58.405893 0 116.813496.00391 175.218746.00391 2.92017-.03024 5.93535.21501 8.7461-.76563 4.8768-1.52931 8.86925-5.56854 10.32422-10.4707.12264-.17386.24362-.34895.38672-.50977l.07226-.08789c.464-1.64131.52085-3.33047.46484-5.02148-.05158 1.01719-.18417 2.02867-.46484 3.02148l-.07226.08789c-.1431.16082-.26408.33591-.38672.50977-1.45497 4.90216-5.44742 8.94139-10.32422 10.4707-2.81075.98064-5.82593.73539-8.7461.76563-58.40525 0-116.812853-.00391-175.218746-.00391-2.329893.02116-4.710947.04394-6.953125-.68555-5.141047-1.5239-9.366941-5.82057-10.722657-11.01758.584.73648.98866 1.58968 1.425782 2.41993 2.08627 3.79479 5.845536 6.51208 9.990234 7.64257 1.83332.49316 3.748932.39454 5.628906.39454 59.964223.02275 119.928706-.04171 179.896486-.00391.6992.00718 1.39593-.04103 2.08398-.13477-.61568.07446-1.23522.11511-1.85937.11133-59.96779-.03519-119.930306.02659-179.894533.00391-1.879971 0-3.797542.09985-5.630859-.39258-4.144616-1.13072-7.902011-3.84771-9.988282-7.64258-.437133-.83017-.841774-1.68348-1.425781-2.41992l-.076172-.10156c-.293014-1.10076-.419791-2.21508-.464844-3.33399z" fill="#000104" opacity=".2" transform="matrix(.26458333 0 0 .26458333 0 229.26665)"/>
    <path d="m213.26367 16.025391c-56.21902.002532-112.43846.009512-168.658201.001953-2.72657-.069128-5.524852.100638-8.054688 1.208984v-.001953c-5.812136 2.308006-9.887215 8.31585-9.849609 14.574219.002165.65731-.000781 1.315266 0 1.972656-.02557-6.248503 4.045953-12.242236 9.849609-14.546875v.001953c2.529836-1.108346 5.328118-1.278112 8.054688-1.208984 56.219741.007559 112.439181.000579 168.658201-.001953 6.1341-.103559 12.10987 3.686495 14.58985 9.304687 1.04579 2.214161 1.48893 4.673206 1.44531 7.115234-.00979 2.177688-.00054 4.355947.00586 6.533204-.00578-2.843603-.01865-5.688783-.00586-8.533204.04362-2.442028-.39952-4.901073-1.44531-7.115234-2.47998-5.618192-8.45575-9.408246-14.58985-9.304687zm-26.75781 16.748047c-.23832 1.768763-.95968 3.492038-2.26758 4.726562-1.38316 1.45886-3.37761 2.265138-5.36719 2.355469-3.07898.043578-6.18324-1.795894-7.38867-4.669922-.37891-.743865-.54779-1.543911-.61328-2.359375-.0761 1.481181-.07419 3.009753.61328 4.359375 1.20543 2.874028 4.30969 4.7135 7.38867 4.669922 1.98958-.090331 3.98403-.896609 5.36719-2.355469 1.62753-1.536227 2.35999-3.829296 2.36328-6.025391-.01577-.235625-.05855-.467748-.0957-.701171zm-117.085938.011718c-.043252.333576-.071103.670538-.064453 1.011719-.034394 3.626154 2.606224 7.038897 6.154297 7.832031 3.457065.902703 7.394578-.972351 8.875-4.226562.723697-1.397581.835398-2.993798.71875-4.541016-.089661.880582-.306051 1.744023-.71875 2.541016-1.480422 3.254211-5.417935 5.129265-8.875 4.226562-3.222881-.72044-5.689384-3.603664-6.089844-6.84375z" fill="#fff" opacity=".3" transform="matrix(.26458333 0 0 .26458333 0 229.26665)"/>
  </g>
</svg>
