<svg id="svg144" enable-background="new" height="256" viewBox="0 0 256 256" width="256" xmlns="http://www.w3.org/2000/svg" xmlns:xlink="http://www.w3.org/1999/xlink">
  <linearGradient id="linearGradient4358" gradientUnits="userSpaceOnUse" x1="88" x2="488" y1="88" y2="488">
    <stop id="stop4362" offset="0" stop-opacity=".588235"/>
    <stop id="stop4366" offset="1" stop-opacity=".205556"/>
  </linearGradient>
  <filter id="filter4380" color-interpolation-filters="sRGB" height="1.088" width="1.106" x="-.05" y="-.04">
    <feGaussianBlur id="feGaussianBlur4382" stdDeviation="8.48"/>
  </filter>
  <filter id="filter4346" color-interpolation-filters="sRGB" height="1.022" width="1.026" x="-.01" y="-.01">
    <feGaussianBlur id="feGaussianBlur4348" stdDeviation="2.12"/>
  </filter>
  <filter id="filter5063" color-interpolation-filters="sRGB" height="1.024711" width="1.023329" x="-.011664" y="-.012355">
    <feGaussianBlur id="feGaussianBlur5065" stdDeviation=".066206875"/>
  </filter>
  <filter id="filter5093" color-interpolation-filters="sRGB" height="1.098844" width="1.093315" x="-.046658" y="-.049422">
    <feGaussianBlur id="feGaussianBlur5095" stdDeviation=".2648275"/>
  </filter>
  <path id="path72" d="m141.84323 74c-70.59344 0-78.18921 7.250835-77.84323 77.98706v146.01294 146.01294c-.34598 70.73623 7.24979 77.98706 77.84323 77.98706h292.31354c70.59344 0 79.78033-7.27652 77.84323-77.98706v-146.01294-146.01294c0-70.737067-7.24979-77.98706-77.84323-77.98706z" filter="url(#filter4346)" opacity=".1" transform="matrix(.5 0 0 .5 -14.116488 -20.825537)"/>
  <path id="path74" d="m141.84323 74c-70.59344 0-78.18921 7.250835-77.84323 77.98706v146.01294 146.01294c-.34598 70.73623 7.24979 77.98706 77.84323 77.98706h292.31354c70.59344 0 79.78033-7.27652 77.84323-77.98706v-146.01294-146.01294c0-70.737067-7.24979-77.98706-77.84323-77.98706z" fill="url(#linearGradient4358)" filter="url(#filter4380)" opacity=".3" transform="matrix(.5 0 0 .5 -14.116488 -20.825235)"/>
  <path id="path76" d="m55.695112 13.174463c-36.098811 0-39.983003 3.69016-39.806081 39.68984v74.310167 74.31016c-.176922 35.99969 3.70727 39.68984 39.806081 39.68984h148.387318c36.09881 0 40.77464-3.70276 39.80608-39.68984v-74.31016-74.310167c0-36.00011-3.70727-39.68984-39.80608-39.68984z" opacity=".1"/>
  <path id="path78" d="m202.95648 15.174459c35.29673 0 39.09461 3.62542 38.92162 38.99353v73.006471 73.00648c.17299 35.36812-3.62489 38.99353-38.92162 38.99353h-146.15675c-35.29671 0-38.92161-3.625-38.92161-38.99353v-73.00648-73.006471c0-35.36853 3.6249-38.99353 38.92161-38.99353z" fill="#0286c2"/>
  <path id="path80" d="m17.877653 127.17477v8 65.00586c0 35.36853 3.625165 38.99414 38.921875 38.99414h146.156252c35.29673 0 39.09486-3.62602 38.92187-38.99414v-65.00586-8z" fill="#fff" opacity=".1"/>
  <path id="path140" d="m56.805392 15.174463c-35.296728 0-39.09487 3.62603-38.92188 38.99414v2c-.17299-35.36811 3.625152-38.99414 38.92188-38.99414h146.156238c35.29673 0 38.92188 3.62561 38.92188 38.99414v-2c0-35.36853-3.62515-38.99414-38.92188-38.99414z" fill="#fff" opacity=".3"/>
  <path id="path142" d="m56.810792 239.17447c-35.296731 0-39.094875-3.62603-38.921885-38.99414v-2c-.17299 35.36811 3.625154 38.99414 38.921885 38.99414h146.156238c35.29673 0 38.92188-3.62561 38.92188-38.99414v2c0 35.36853-3.62515 38.99414-38.92188 38.99414z" opacity=".2"/>
  <g id="g5071" fill="#160707" filter="url(#filter5093)" opacity=".2" transform="matrix(8.2317011 7.3135991 -7.3151414 8.2299655 -3493.63579 -9736.602906)">
    <path id="path5067" d="m934 467.5s5-2.557 5 1.537v3.963h-.5s-.5 0-.5.5v6c0 .5.5.5.5.5h3s.5 0 .5-.5v-6c0-.5-.5-.5-.5-.5h-.5v-4.186c.01-.467.29-1.72 1.485-1.72l1.015.906h1.5v-4h-1.5l-1.015.686s-2.24-.79-3.64-.723-3.165 1.192-4.845 3.537z" fill="#160707" transform="matrix(.86945773 0 0 .86945773 23.147181 41.607285)"/>
  </g>
  <g id="g5045" fill="#160707" filter="url(#filter5063)" opacity=".2" transform="matrix(8.2317011 7.3135991 -7.3151414 8.2299655 -3493.63579 -9736.602906)">
    <path id="path5041" d="m934 467.5s5-2.557 5 1.537v3.963h-.5s-.5 0-.5.5v6c0 .5.5.5.5.5h3s.5 0 .5-.5v-6c0-.5-.5-.5-.5-.5h-.5v-4.186c.01-.467.29-1.72 1.485-1.72l1.015.906h1.5v-4h-1.5l-1.015.686s-2.24-.79-3.64-.723-3.165 1.192-4.845 3.537z" fill="#160707" transform="matrix(.86945773 0 0 .86945773 23.147181 41.607285)"/>
  </g>
  <path id="path942" d="m934 467.5s5-2.557 5 1.537v3.963h-.5s-.5 0-.5.5v6c0 .5.5.5.5.5h3s.5 0 .5-.5v-6c0-.5-.5-.5-.5-.5h-.5v-4.186c.01-.467.29-1.72 1.485-1.72l1.015.906h1.5v-4h-1.5l-1.015.686s-2.24-.79-3.64-.723-3.165 1.192-4.845 3.537z" fill="#fff" transform="matrix(7.15711615244 6.35886527162 -6.36020623627 7.15560712161 -3607.4582877455 -9224.8871837722)"/>
</svg>
