<?xml version="1.0" encoding="UTF-8" standalone="no"?>
<!-- Created with Inkscape (http://www.inkscape.org/) -->

<svg
   xmlns:dc="http://purl.org/dc/elements/1.1/"
   xmlns:cc="http://creativecommons.org/ns#"
   xmlns:rdf="http://www.w3.org/1999/02/22-rdf-syntax-ns#"
   xmlns:svg="http://www.w3.org/2000/svg"
   xmlns="http://www.w3.org/2000/svg"
   xmlns:xlink="http://www.w3.org/1999/xlink"
   xmlns:sodipodi="http://sodipodi.sourceforge.net/DTD/sodipodi-0.dtd"
   xmlns:inkscape="http://www.inkscape.org/namespaces/inkscape"
   width="48"
   height="48"
   viewBox="0 0 12.7 12.7"
   version="1.1"
   id="svg986"
   inkscape:version="0.92.4 (5da689c313, 2019-01-14)"
   sodipodi:docname="folder-open.svg">
  <defs
     id="defs980">
    <clipPath
       clipPathUnits="userSpaceOnUse"
       id="clipPath994">
      <path
         style="color:#000000;display:inline;overflow:visible;visibility:visible;fill:#cdcdcd;fill-opacity:1;fill-rule:nonzero;stroke:none;stroke-width:2;stroke-miterlimit:4;stroke-dasharray:none;stroke-opacity:1;marker:none;enable-background:accumulate"
         d="m 335.73108,62 c -8.82418,0 -9.77365,0.90635 -9.7304,9.74838 V 84 96.25162 c -0.0433,8.84203 0.90622,9.74838 9.7304,9.74838 h 16.53919 c 8.82418,0 9.7304,-0.90625 9.7304,-9.74838 V 84 71.74838 C 362.00067,62.90625 361.09445,62 352.27027,62 Z"
         id="path996"
         inkscape:connector-curvature="0"
         sodipodi:nodetypes="scccssscsss" />
    </clipPath>
    <linearGradient
       gradientTransform="matrix(0.26458333,0,0,0.26458333,-84.683718,363.4104)"
       inkscape:collect="always"
       xlink:href="#linearGradient3388"
       id="linearGradient13884"
       x1="321"
       y1="-284"
       x2="366"
       y2="-255"
       gradientUnits="userSpaceOnUse" />
    <linearGradient
       inkscape:collect="always"
       id="linearGradient3388">
      <stop
         style="stop-color:#666666;stop-opacity:1;"
         offset="0"
         id="stop3384" />
      <stop
         style="stop-color:#7a7a7a;stop-opacity:1"
         offset="1"
         id="stop3386" />
    </linearGradient>
    <linearGradient
       gradientTransform="matrix(0.26458333,0,0,0.26458333,-84.683718,363.4104)"
       inkscape:collect="always"
       xlink:href="#linearGradient36441"
       id="linearGradient36783"
       x1="321"
       y1="-254"
       x2="367"
       y2="-297"
       gradientUnits="userSpaceOnUse" />
    <linearGradient
       inkscape:collect="always"
       id="linearGradient36441">
      <stop
         style="stop-color:#2c001e;stop-opacity:1"
         offset="0"
         id="stop36437" />
      <stop
         id="stop36445"
         offset="0.10864977"
         style="stop-color:#2c001e;stop-opacity:1" />
      <stop
         style="stop-color:#370626;stop-opacity:1"
         offset="0.18689813"
         id="stop36449" />
      <stop
         id="stop36451"
         offset="0.2980746"
         style="stop-color:#55163b;stop-opacity:1" />
      <stop
         style="stop-color:#772953;stop-opacity:1"
         offset="0.37246177"
         id="stop36453" />
      <stop
         style="stop-color:#7c2b51;stop-opacity:1"
         offset="0.44700962"
         id="stop36447" />
      <stop
         id="stop36455"
         offset="0.52428877"
         style="stop-color:#8b314b;stop-opacity:1" />
      <stop
         style="stop-color:#8b314b;stop-opacity:1"
         offset="0.59614229"
         id="stop36457" />
      <stop
         id="stop36459"
         offset="0.66876179"
         style="stop-color:#a33a41;stop-opacity:1" />
      <stop
         style="stop-color:#c44732;stop-opacity:1"
         offset="0.79755175"
         id="stop36461" />
      <stop
         id="stop36463"
         offset="0.91251218"
         style="stop-color:#e65524;stop-opacity:1" />
      <stop
         style="stop-color:#e65524;stop-opacity:1"
         offset="1"
         id="stop36439" />
    </linearGradient>
  </defs>
  <sodipodi:namedview
     id="base"
     pagecolor="#ffffff"
     bordercolor="#666666"
     borderopacity="1.0"
     inkscape:pageopacity="0.0"
     inkscape:pageshadow="2"
     inkscape:zoom="17.479167"
     inkscape:cx="13.129917"
     inkscape:cy="24"
     inkscape:document-units="px"
     inkscape:current-layer="layer1"
     showgrid="true"
     units="px"
     inkscape:window-width="1920"
     inkscape:window-height="1016"
     inkscape:window-x="0"
     inkscape:window-y="27"
     inkscape:window-maximized="1">
    <inkscape:grid
       type="xygrid"
       id="grid1589" />
  </sodipodi:namedview>
  <metadata
     id="metadata983">
    <rdf:RDF>
      <cc:Work
         rdf:about="">
        <dc:format>image/svg+xml</dc:format>
        <dc:type
           rdf:resource="http://purl.org/dc/dcmitype/StillImage" />
        <dc:title />
      </cc:Work>
    </rdf:RDF>
  </metadata>
  <g
     inkscape:label="Livello 1"
     inkscape:groupmode="layer"
     id="layer1"
     transform="translate(0,-284.29998)">
    <path
       style="color:#000000;font-style:normal;font-variant:normal;font-weight:normal;font-stretch:normal;font-size:medium;line-height:normal;font-family:sans-serif;font-variant-ligatures:normal;font-variant-position:normal;font-variant-caps:normal;font-variant-numeric:normal;font-variant-alternates:normal;font-feature-settings:normal;text-indent:0;text-align:start;text-decoration:none;text-decoration-line:none;text-decoration-style:solid;text-decoration-color:#000000;letter-spacing:normal;word-spacing:normal;text-transform:none;writing-mode:lr-tb;direction:ltr;text-orientation:mixed;dominant-baseline:auto;baseline-shift:baseline;text-anchor:start;white-space:normal;shape-padding:0;clip-rule:nonzero;display:inline;overflow:visible;visibility:visible;opacity:0.1;isolation:auto;mix-blend-mode:normal;color-interpolation:sRGB;color-interpolation-filters:linearRGB;solid-color:#000000;solid-opacity:1;vector-effect:none;fill:#000000;fill-opacity:1;fill-rule:nonzero;stroke:none;stroke-width:0.26458332;stroke-linecap:butt;stroke-linejoin:miter;stroke-miterlimit:4;stroke-dasharray:none;stroke-dashoffset:0;stroke-opacity:1;marker:none;color-rendering:auto;image-rendering:auto;shape-rendering:auto;text-rendering:auto;enable-background:accumulate"
       d="m 2.5791715,285.09374 c -0.7674107,0 -1.3364156,-0.0251 -1.76113277,0.2961 -0.2152385,0.16281 -0.3581347,0.40803 -0.4402825,0.71882 -0.08182,0.30955 -0.1131729,0.69156 -0.1131729,1.18753 v 2.48874 0.86506 3.24631 c 0,0.51653 0.01397,0.91053 0.070797,1.22887 0.056973,0.31905 0.1646026,0.57799 0.366903,0.75809 0.20178713,0.17964 0.46373527,0.25398 0.76584437,0.28887 0.3018287,0.0349 0.6604741,0.0341 1.1110436,0.0341 h 7.5416597 c 0.44206,0 0.796427,5.3e-4 1.096573,-0.0341 h 5.29e-4 c 0.300374,-0.0349 0.562372,-0.10883 0.765845,-0.28732 0.203957,-0.17891 0.315635,-0.43735 0.375687,-0.75706 0.05992,-0.31899 0.07597,-0.71416 0.07597,-1.23145 v -4.90512 c 0,-0.0683 -0.0031,-0.11275 -0.0036,-0.1602 v -0.003 l 0.0036,-0.49609 c 0.0035,-0.47895 0.0049,-0.86019 -0.03049,-1.17874 -0.03545,-0.31862 -0.110234,-0.59012 -0.289904,-0.80098 -0.180433,-0.21176 -0.443072,-0.32815 -0.764813,-0.38913 -0.320775,-0.0608 -0.715565,-0.0754 -1.229394,-0.0754 H 5.9133343 l -0.79375,-0.79375 z"
       id="path1335"
       inkscape:connector-curvature="0"
       sodipodi:nodetypes="sccsccscccssccccssccccccsccs" />
    <path
       style="color:#000000;font-style:normal;font-variant:normal;font-weight:normal;font-stretch:normal;font-size:medium;line-height:normal;font-family:sans-serif;font-variant-ligatures:normal;font-variant-position:normal;font-variant-caps:normal;font-variant-numeric:normal;font-variant-alternates:normal;font-feature-settings:normal;text-indent:0;text-align:start;text-decoration:none;text-decoration-line:none;text-decoration-style:solid;text-decoration-color:#000000;letter-spacing:normal;word-spacing:normal;text-transform:none;writing-mode:lr-tb;direction:ltr;text-orientation:mixed;dominant-baseline:auto;baseline-shift:baseline;text-anchor:start;white-space:normal;shape-padding:0;clip-rule:nonzero;display:inline;overflow:visible;visibility:visible;opacity:1;isolation:auto;mix-blend-mode:normal;color-interpolation:sRGB;color-interpolation-filters:linearRGB;solid-color:#000000;solid-opacity:1;vector-effect:none;fill:url(#linearGradient36783);fill-opacity:1;fill-rule:nonzero;stroke:none;stroke-width:0.26458332;stroke-linecap:butt;stroke-linejoin:miter;stroke-miterlimit:4;stroke-dasharray:none;stroke-dashoffset:0;stroke-opacity:1;marker:none;color-rendering:auto;image-rendering:auto;shape-rendering:auto;text-rendering:auto;enable-background:accumulate"
       d="m 2.5791715,284.96145 c -0.7690114,0 -1.3071448,-0.014 -1.68155138,0.26923 -0.18720329,0.1416 -0.31524309,0.35575 -0.39222359,0.64699 -0.07698,0.29124 -0.1085215,0.66364 -0.1085215,1.15394 v 2.48873 0.86507 3.24631 c 0,0.51402 0.014605,0.90247 0.068731,1.20561 0.054131,0.30314 0.1517438,0.52882 0.3245273,0.68265 0.1727835,0.15382 0.40354247,0.22288 0.69298077,0.25631 0.2894409,0.0334 0.6454193,0.0331 1.0960576,0.0331 h 7.5416593 c 0.442114,0 0.793756,2.7e-4 1.081588,-0.0331 0.28783,-0.0334 0.519393,-0.1021 0.694012,-0.25528 0.174622,-0.15318 0.275794,-0.37865 0.332798,-0.68213 0.057,-0.30348 0.0739,-0.69277 0.0739,-1.20716 v -4.90513 c 0,-0.0643 -0.0031,-0.10711 -0.0036,-0.15916 v -0.002 c 0,-1.7e-4 3e-6,-2.6e-4 0,-5.3e-4 l 0.0036,-0.49919 c 0.0035,-0.47865 0.0046,-0.8569 -0.02946,-1.16324 -0.03408,-0.30634 -0.104405,-0.54775 -0.259414,-0.72967 -0.155011,-0.18192 -0.384004,-0.2869 -0.688847,-0.34468 -0.304842,-0.0578 -0.693438,-0.0734 -1.204577,-0.0734 H 5.8585576 l -0.79375,-0.79375 z"
       id="path1313"
       inkscape:connector-curvature="0"
       sodipodi:nodetypes="scssccscscsscccsscscccccsccs" />
    <path
       style="color:#000000;display:inline;overflow:visible;visibility:visible;fill:url(#linearGradient13884);fill-opacity:1;fill-rule:nonzero;stroke:none;stroke-width:0.26458332;marker:none;enable-background:accumulate"
       d="m 6.0688802,288.26874 -0.794266,0.79375 H 2.4468799 c -1.80256127,0 -2.05000487,-6e-5 -2.05000487,2.04535 v 0.22583 c 0.00265,1.0276 0.0072,2.055 0.020161,3.0825 0.00466,0.40836 0.073737,0.88224 0.4165123,1.15031 0.43695937,0.29666 0.99538887,0.207 1.49293257,0.22893 2.9431642,0.009 5.9129085,0.0113 8.8559031,-0.0233 0.433155,0.008 0.872845,-0.27088 0.983919,-0.70229 0.174176,-0.66886 0.110604,-1.36876 0.130742,-2.05259 0.0011,-1.21305 0.0024,-2.42647 -0.0041,-3.63957 -0.118396,-1.10816 -0.598101,-1.10897 -2.039779,-1.10897 z"
       id="path1275"
       inkscape:connector-curvature="0"
       sodipodi:nodetypes="ccssccccccccsc" />
    <path
       style="color:#000000;display:inline;overflow:visible;visibility:visible;opacity:0.3;fill:#ffffff;fill-opacity:1;fill-rule:nonzero;stroke:none;stroke-width:0.26458332;marker:none;enable-background:accumulate"
       d="m 6.0688802,288.26874 -0.794266,0.79375 H 2.4467529 c -1.80256127,0 -2.05000487,-6e-5 -2.05000487,2.04535 v 0.26459 c 0,-2.04541 0.2474436,-2.04536 2.05000487,-2.04536 h 2.8278613 l 0.794266,-0.79375 h 4.1841288 c 1.768456,0 2.050002,-5e-5 2.050002,2.04536 v -0.26459 c 0,-2.04541 -0.281546,-2.04535 -2.050002,-2.04535 z"
       id="path1304"
       inkscape:connector-curvature="0"
       sodipodi:nodetypes="ccsscsccscssc" />
    <path
       id="path1123"
       d="m 12.153781,292.50207 -3.1750001,3.175 h 1.2405251 c 1.754611,0 1.934475,-0.17979 1.934475,-1.93089 z"
       style="color:#000000;display:inline;overflow:visible;visibility:visible;opacity:0.05;fill:#ffffff;fill-opacity:1;fill-rule:nonzero;stroke:none;stroke-width:0.26458332;marker:none;enable-background:accumulate"
       inkscape:connector-curvature="0"
       sodipodi:nodetypes="ccssc" />
    <path
       sodipodi:nodetypes="scssccscscsscccsscscccccsccs"
       inkscape:connector-curvature="0"
       id="path1320"
       d="m 2.5791715,284.96145 c -0.7690114,0 -1.3071448,-0.014 -1.68155138,0.26923 -0.18720329,0.1416 -0.31524309,0.35575 -0.39222359,0.64699 -0.07698,0.29124 -0.1085215,0.66364 -0.1085215,1.15394 v 2.48873 0.86507 3.24631 c 0,0.51402 0.014605,0.90247 0.068731,1.20561 0.054131,0.30314 0.1517438,0.52882 0.3245273,0.68265 0.1727835,0.15382 0.40354247,0.22288 0.69298077,0.25631 0.2894409,0.0334 0.6454193,0.0331 1.0960576,0.0331 h 7.5416593 c 0.442114,0 0.793756,2.7e-4 1.081588,-0.0331 0.28783,-0.0334 0.519393,-0.1021 0.694012,-0.25528 0.174622,-0.15318 0.275794,-0.37865 0.332798,-0.68213 0.057,-0.30348 0.0739,-0.69277 0.0739,-1.20716 v -4.90513 c 0,-0.0643 -0.0031,-0.10711 -0.0036,-0.15916 v -0.002 c 0,-1.7e-4 3e-6,-2.6e-4 0,-5.3e-4 l 0.0036,-0.49919 c 0.0035,-0.47865 0.0046,-0.8569 -0.02946,-1.16324 -0.03408,-0.30634 -0.104405,-0.54775 -0.259414,-0.72967 -0.155011,-0.18192 -0.384004,-0.2869 -0.688847,-0.34468 -0.304842,-0.0578 -0.693438,-0.0734 -1.204577,-0.0734 H 5.8585576 l -0.79375,-0.79375 z"
       style="color:#000000;font-style:normal;font-variant:normal;font-weight:normal;font-stretch:normal;font-size:medium;line-height:normal;font-family:sans-serif;font-variant-ligatures:normal;font-variant-position:normal;font-variant-caps:normal;font-variant-numeric:normal;font-variant-alternates:normal;font-feature-settings:normal;text-indent:0;text-align:start;text-decoration:none;text-decoration-line:none;text-decoration-style:solid;text-decoration-color:#000000;letter-spacing:normal;word-spacing:normal;text-transform:none;writing-mode:lr-tb;direction:ltr;text-orientation:mixed;dominant-baseline:auto;baseline-shift:baseline;text-anchor:start;white-space:normal;shape-padding:0;clip-rule:nonzero;display:inline;overflow:visible;visibility:visible;opacity:0.4;isolation:auto;mix-blend-mode:normal;color-interpolation:sRGB;color-interpolation-filters:linearRGB;solid-color:#000000;solid-opacity:1;vector-effect:none;fill:none;fill-opacity:1;fill-rule:nonzero;stroke:#000000;stroke-width:0.26458332;stroke-linecap:butt;stroke-linejoin:miter;stroke-miterlimit:4;stroke-dasharray:none;stroke-dashoffset:0;stroke-opacity:1;marker:none;color-rendering:auto;image-rendering:auto;shape-rendering:auto;text-rendering:auto;enable-background:accumulate" />
    <path
       id="path1333"
       d="m 6.0688802,288.00416 -0.794266,0.79375 H 2.4469751 c -1.80256127,0 -2.05000487,-6e-5 -2.05000487,2.04535 v 0.26458 c 0,-2.04541 0.2474436,-2.04535 2.05000487,-2.04535 h 2.8276391 l 0.794266,-0.79375 h 4.1841738 c 1.768456,0 2.050002,-6e-5 2.050002,2.04535 v -0.26458 c 0,-2.04541 -0.281546,-2.04535 -2.050002,-2.04535 z"
       style="color:#000000;display:inline;overflow:visible;visibility:visible;opacity:0.2;fill:#491706;fill-opacity:1;fill-rule:nonzero;stroke:none;stroke-width:0.26458332;marker:none;enable-background:accumulate"
       inkscape:connector-curvature="0"
       sodipodi:nodetypes="ccsscsccscssc" />
    <path
       id="path1322"
       d="m 5.0177885,285.09374 0.7942659,0.79375 h 4.3087736 c 1.802561,0 2.050005,-6e-5 2.050005,2.04535 v 0.26459 c 0,-2.04541 -0.247444,-2.04536 -2.050005,-2.04536 H 5.8120544 L 5.0177885,285.35832 H 2.5791689 c -1.76845647,0 -2.05000227,-5e-5 -2.05000227,2.04536 v -0.26459 c 0,-2.04541 0.2815458,-2.04535 2.05000227,-2.04535 z"
       style="color:#000000;display:inline;overflow:visible;visibility:visible;opacity:0.4;fill:#fec589;fill-opacity:1;fill-rule:nonzero;stroke:none;stroke-width:0.26458332;marker:none;enable-background:accumulate"
       inkscape:connector-curvature="0"
       sodipodi:nodetypes="ccsscsccscssc" />
  </g>
</svg>
