<svg height="16" width="16" xmlns="http://www.w3.org/2000/svg">
  <path d="m920.229 465.084-4.006 3a.5.5 0 0 0 .277.916h.5v2h-3.5c-.277 0-.5.223-.5.5v6c0 .277.223.5.5.5h5c.277 0 .5-.223.5-.5v-2.5s0-1 1-1h1c1 0 1 1 1 1v2.5c0 .277.223.5.5.5h5c.277 0 .5-.223.5-.5v-6c0-.277-.223-.5-.5-.5h-3.5v-2h.5a.5.5 0 0 0 .277-.916l-3.994-3a.5.5 0 0 0 -.555 0zm-1.979 3.916h.5a.25.25 0 0 1 .25.25v1.5a.25.25 0 0 1 -.25.25h-.5a.25.25 0 0 1 -.25-.25v-1.5a.25.25 0 0 1 .25-.25zm2 0h.5a.25.25 0 0 1 .25.25v1.5a.25.25 0 0 1 -.25.25h-.5a.25.25 0 0 1 -.25-.25v-1.5a.25.25 0 0 1 .25-.25zm2 0h.5a.25.25 0 0 1 .25.25v1.5a.25.25 0 0 1 -.25.25h-.5a.25.25 0 0 1 -.25-.25v-1.5a.25.25 0 0 1 .25-.25zm-8 3h.5a.25.25 0 0 1 .25.25v1.5a.25.25 0 0 1 -.25.25h-.5a.25.25 0 0 1 -.25-.25v-1.5a.25.25 0 0 1 .25-.25zm2 0h.5a.25.25 0 0 1 .25.25v1.5a.25.25 0 0 1 -.25.25h-.5a.25.25 0 0 1 -.25-.25v-1.5a.25.25 0 0 1 .25-.25zm8 0h.5a.25.25 0 0 1 .25.25v1.5a.25.25 0 0 1 -.25.25h-.5a.25.25 0 0 1 -.25-.25v-1.5a.25.25 0 0 1 .25-.25zm2 0h.5a.25.25 0 0 1 .25.25v1.5a.25.25 0 0 1 -.25.25h-.5a.25.25 0 0 1 -.25-.25v-1.5a.25.25 0 0 1 .25-.25zm-12 3h.5a.25.25 0 0 1 .25.25v1.5a.25.25 0 0 1 -.25.25h-.5a.25.25 0 0 1 -.25-.25v-1.5a.25.25 0 0 1 .25-.25zm2 0h.5a.25.25 0 0 1 .25.25v1.5a.25.25 0 0 1 -.25.25h-.5a.25.25 0 0 1 -.25-.25v-1.5a.25.25 0 0 1 .25-.25zm8 0h.5a.25.25 0 0 1 .25.25v1.5a.25.25 0 0 1 -.25.25h-.5a.25.25 0 0 1 -.25-.25v-1.5a.25.25 0 0 1 .25-.25zm2 0h.5a.25.25 0 0 1 .25.25v1.5a.25.25 0 0 1 -.25.25h-.5a.25.25 0 0 1 -.25-.25v-1.5a.25.25 0 0 1 .25-.25z" fill="#808080" transform="translate(-912 -464)"/>
</svg>
