<svg id="svg7384" height="16" width="16" xmlns="http://www.w3.org/2000/svg">
  <g id="layer3" fill="#808080" transform="translate(-592 -460)">
    <path id="path4876" d="m597.99994 463.99997-4 8v.55078c.00035 1.35279.89568 2.44922 2 2.44922h8c1.10432 0 1.99965-1.09643 2-2.44922v-.55078l-4-8h-1l.3418 1.00586c.62839 1.25663 1.25637 2.5129 1.88476 3.76953.56784 1.17893 1.21237 2.33909 1.73242 3.5293.0359.61876-.15521 1.46668-.83203 1.63672-2.7251.0657-5.48611.0535-8.17968.0117-.72645-.13044-.95349-1.0129-.92579-1.65039.57553-1.29695 1.27241-2.56366 1.89454-3.84961.57459-1.14901 1.15003-2.29825 1.7246-3.44726l-.0156-.006.375-1z"/>
    <path id="rect4904" d="m597.99994 461.99997v3h.625l.375-.75v-2.25z"/>
    <rect id="rect4911" height="1" rx=".5" width="6" x="596.99994" y="460.99997"/>
    <path id="rect4904-2" d="m601.99994 461.99997v3h-.625l-.375-.75v-2.25z"/>
    <path id="path4961" d="m597.2396 470.1048c-.39616.81476-.8234 1.61568-1.1814 2.44824.0157.22101.0951.42162.36097.34558 2.24872.0833 4.5576.0452 6.81005.0165.22666-.0498.70118.13229.68872-.26758.004-.40578-.34814-.75739-.48025-1.14216-.58319-1.17243-1.16627-2.34491-1.74936-3.51738-1.132 0-2.264 0-3.396 0-.35091.70561-.70182 1.41121-1.05273 2.11682z" opacity=".5"/>
  </g>
</svg>
