<?xml version="1.0" encoding="UTF-8" standalone="no"?>
<svg
   xmlns:dc="http://purl.org/dc/elements/1.1/"
   xmlns:cc="http://creativecommons.org/ns#"
   xmlns:rdf="http://www.w3.org/1999/02/22-rdf-syntax-ns#"
   xmlns:svg="http://www.w3.org/2000/svg"
   xmlns="http://www.w3.org/2000/svg"
   xmlns:sodipodi="http://sodipodi.sourceforge.net/DTD/sodipodi-0.dtd"
   xmlns:inkscape="http://www.inkscape.org/namespaces/inkscape"
   height="16"
   width="16"
   version="1.1"
   id="svg4"
   sodipodi:docname="com.github.maoschanz.drawing-symbolic.svg"
   inkscape:version="0.92.4 (5da689c313, 2019-01-14)">
  <metadata
     id="metadata10">
    <rdf:RDF>
      <cc:Work
         rdf:about="">
        <dc:format>image/svg+xml</dc:format>
        <dc:type
           rdf:resource="http://purl.org/dc/dcmitype/StillImage" />
      </cc:Work>
    </rdf:RDF>
  </metadata>
  <defs
     id="defs8" />
  <sodipodi:namedview
     pagecolor="#ffffff"
     bordercolor="#666666"
     borderopacity="1"
     objecttolerance="10"
     gridtolerance="10"
     guidetolerance="10"
     inkscape:pageopacity="0"
     inkscape:pageshadow="2"
     inkscape:window-width="1920"
     inkscape:window-height="1016"
     id="namedview6"
     showgrid="true"
     inkscape:zoom="59.92857"
     inkscape:cx="9.1800095"
     inkscape:cy="9.394026"
     inkscape:window-x="0"
     inkscape:window-y="27"
     inkscape:window-maximized="1"
     inkscape:current-layer="svg4">
    <inkscape:grid
       type="xygrid"
       id="grid817" />
  </sodipodi:namedview>
  <path
     d="M 13,2 6.9999996,9 6,12 8.9999996,11 15,4 Z"
     id="path2"
     style="fill:#808080;fill-opacity:1"
     inkscape:connector-curvature="0"
     sodipodi:nodetypes="cccccc" />
  <path
     sodipodi:nodetypes="ssssssccczcczcczcccs"
     inkscape:connector-curvature="0"
     style="fill:#808080;fill-opacity:1"
     id="path816"
     d="m 2.2714844,-0.86523438 c -1.108,0 -2.00000002,0.89200001 -2.00000002,1.99999998 v 8 c -1e-8,1.1080004 0.89200002,2.0000004 2.00000002,2.0000004 H 14.271484 c 1.108,0 2,-0.892 2,-2.0000004 V 1.5488281 l -1,1.5859379 v 6.0131108 c 0,0 -0.03086,0.4670945 -0.266985,0.7032182 -0.236123,0.236124 -0.749701,0.283671 -0.749701,0.283671 H 2.2738678 c 0,0 -0.4016686,0.06119 -0.7020262,-0.2669845 C 1.271484,9.539602 1.271484,9.1145037 1.271484,9.1145037 V 1.188401 c 0,0 0.05006,-0.41954678 0.3003576,-0.73659089 C 1.8221396,0.134766 2.3072409,0.134766 2.3072409,0.134766 H 8.271484 l 1.5859379,-1.00000038 z"
     transform="translate(-0.271484,3.865234)" />
</svg>
