<svg height="16" viewBox="0 0 4.2333332 4.2333335" width="16" xmlns="http://www.w3.org/2000/svg"><g fill="#808080" stroke-width=".222666" transform="matrix(1.1882522 0 0 1.1882522 .971869 -348.668881)"><path d="m.10943267 294.51412q.042455 0 .0718469.0212.0293919.0196.0293919.049 0 .0523-.0326577.0849-.0326577.031-.09307438.031-.09470726 0-.14369377.002-.0032658.0196-.02939191.17635-.02939191.17472-.03592344.21391l-.0342906.21391q-.0359234.24003-.0571509.40169.0342906-.002.0930744-.002.08654284 0 .11756763.0229.0310248.0229.0310248.0686 0 .0424-.03429056.0718-.03265768.0294-.09307438.0294-.0408221 0-.12899782-.003-.0816442-.003-.10777033-.003-.10287168 0-.22533796.018-.0538852.008-.0767455.008-.0359234 0-.0604167-.0196-.0244933-.0196-.0244933-.0571 0-.0588.0522523-.0914.0522523-.0327.14695954-.0343l.0767455-.002.004899-.0359q.0391892-.26127.0571509-.36904l.0359234-.2139q.0326577-.18942.0587838-.39026l-.13716224.002q-.0587838 0-.0816442-.018-.0212275-.0196-.0212275-.0539 0-.11103.16002261-.1192.0751127-.003.18288299-.003z"/><path d="m.30537701 295.89717q-.0620496 0-.0881757-.0653-.0244932-.0653-.0244932-.20901 0-.21228.0604167-.40332.0146959-.0474.0473536-.0686.0342906-.0229.0947073-.0229.0326577 0 .0457207.008.0130631.008.0130631.031 0 .0261-.0244933.11757-.0163288.0653-.0261261.1143-.009797.0474-.0163288.1192.0440879-.12736.10450456-.21554.0620496-.0882.12573205-.13063.0653153-.0441.12246629-.0441.0571509 0 .0800113.0261.0244933.0261.0244933.08 0 .0523-.0310248.18942-.0130631.0588-.0179617.0882.0816442-.20084.18125011-.29228.0996059-.0915.18614875-.0915.1061374 0 .1061374.10614 0 .0637-.035923.23024-.031025.14206-.031025.18778 0 .0653.047354.0653.032658 0 .076746-.0392.045721-.0408.1208334-.13064.019595-.0229.044088-.0229.021228 0 .032658.0196.013063.0196.013063.0539 0 .0653-.031025.10124-.070214.0865-.1518582.14206-.080011.0555-.182883.0555-.083277 0-.125732-.0473-.042455-.049-.042455-.14043 0-.0457.02286-.16329.021227-.10287.021227-.14206 0-.0261-.017962-.0261-.021227 0-.0604167.0555-.0391892.0539-.0783784.1437-.0391892.0898-.0636825.18941-.0179617.0784-.042455.10451-.0228604.0261-.0751127.0261-.0538852 0-.0816442-.0506-.0261261-.0522-.0261261-.12573 0-.062.0163288-.17962.0130631-.1045.0130631-.13716 0-.0261-.0179617-.0261-.0244933 0-.0620496.0588-.0375563.0588-.0734798.15022-.0342906.0914-.0555181.17962-.0179617.0768-.042455.10451-.0228604.0261-.0734798.0261z"/><path d="m2.0656249 295.89717q-.1943132 0-.338007-.0702-.1436938-.0718-.2204393-.20248-.076746-.13063-.076746-.30372 0-.24003.089809-.42618.091442-.18615.2465654-.28739.155124-.10287.3445385-.10287.1763515 0 .267793.0914.091441.0898.091441.2384 0 .0996-.035923.16003-.034291.0604-.099606.0604-.045721 0-.071847-.0212-.026126-.0212-.026126-.062 0-.0147.00653-.0539.0098-.049.0098-.0784 0-.14859-.1583897-.14859-.1077704 0-.2057434.0702-.097973.0702-.1583897.20738-.060417.13553-.060417.32331 0 .19595.1094032.30372.1094032.10614.323311.10614.1061374 0 .2139078-.0261.1094032-.0278.2416668-.0833.024493-.01.040822-.01.026126 0 .039189.0196.013063.0196.013063.0506 0 .0996-.1077703.14696-.1159347.0506-.2416668.0751-.1240992.0229-.2367681.0229z"/></g></svg>