<svg fill="none" height="16" viewBox="0 0 16 16" width="16" xmlns="http://www.w3.org/2000/svg">
  <g fill="#808080">
    <path d="m3 9.00001c1.794 1.30299 7.166 1.30299 9 0l-.028.531c-.033.43-.897 3.37499-4.486 3.40599-3.589.033-4.486-2.779-4.486-3.31099zm7-4c.558 0 1 .473 1 1.031v.969c0 .558-.442 1-1 1s-1-.442-1-1v-.969c0-.558.442-1.031 1-1.031zm-5.031-.016c.558 0 1.031.473 1.031 1.032v.968c0 .559-.473 1-1.031 1-.559 0-1-.441-1-1v-.968c0-.559.441-1.032 1-1.032z"/>
    <path clip-rule="evenodd" d="m7.463.999992c-1.98271.009778-3.88087.804278-5.2794 2.209738-1.398529 1.40546-2.18362413 3.30753-2.1836 5.29026 0 1.98911.790176 3.89681 2.1967 5.30331 1.40652 1.4065 3.31418 2.1967 5.3033 2.1967s3.8968-.7902 5.3033-2.1967 2.1967-3.3142 2.1967-5.30331c0-1.98912-.7902-3.89678-2.1967-5.3033s-3.31418-2.196698-5.3033-2.196698c-.01233-.00003-.02467-.00003-.037 0zm.037.999998c.85359 0 1.69883.16813 2.48744.49479.78866.32665 1.50516.80544 2.10876 1.40902s1.0824 1.32013 1.409 2.10875c.3267.78862.4948 1.63385.4948 2.48744s-.1681 1.69881-.4948 2.48741c-.3266.7887-.8054 1.5052-1.409 2.1088s-1.3201 1.0824-2.10876 1.409c-.78861.3267-1.63385.4948-2.48744.4948-1.72391 0-3.37721-.6848-4.59619-1.9038-1.21899-1.219-1.90381-2.8723-1.90381-4.59621 0-1.7239.68482-3.37721 1.90381-4.59619 1.21898-1.21899 2.87228-1.90381 4.59619-1.90381z" fill-rule="evenodd"/>
  </g>
</svg>
