<svg xmlns="http://www.w3.org/2000/svg" xmlns:osb="http://www.openswatchbook.org/uri/2009/osb" width="16" height="16" version="1.1">
 <defs>
  <linearGradient id="linearGradient5606" osb:paint="solid">
   <stop id="stop5608" offset="0" style="stop-color:#000000"/>
  </linearGradient>
  <linearGradient id="linearGradient4526" osb:paint="solid">
   <stop id="stop4528" offset="0" style="stop-color:#ffffff"/>
  </linearGradient>
  <linearGradient id="linearGradient3600-4" osb:paint="gradient">
   <stop id="stop3602-7" offset="0" style="stop-color:#f4f4f4"/>
   <stop id="stop3604-6" offset="1" style="stop-color:#dbdbdb"/>
  </linearGradient>
 </defs>
 <g transform="translate(-652.00004,-240)">
  <path d="m 656.99414,240 c -1.2582,0.0145 -2.17889,-0.0306 -2.93164,0.38477 -0.37637,0.20766 -0.67323,0.55938 -0.83789,0.99804 C 653.05994,241.82148 653,242.34239 653,243 v 10 c 0,0.65761 0.0599,1.17858 0.22461,1.61719 0.16468,0.43861 0.46153,0.78852 0.83789,0.99609 0.75272,0.41513 1.67354,0.37165 2.93164,0.38672 h 0.002 5.00586 0.004 c 1.25819,-0.0145 2.17889,0.0306 2.93164,-0.38477 0.37637,-0.20766 0.67322,-0.55938 0.83789,-0.99804 C 665.94006,254.17852 666,253.65761 666,253 v -10 c 0,-0.65761 -0.0599,-1.17858 -0.22461,-1.61719 -0.16468,-0.43861 -0.46153,-0.78852 -0.83789,-0.99609 -0.75272,-0.41513 -1.67355,-0.37165 -2.93164,-0.38672 h -0.002 -5.00586 z m 0.006,1 h 5 c 1.25862,0.0152 2.0891,0.0599 2.45508,0.26172 0.18342,0.10116 0.28722,0.21286 0.38476,0.47266 C 664.93739,241.99417 665,242.40761 665,243 v 10 c 0,0.59239 -0.0626,1.00572 -0.16016,1.26562 -0.0976,0.25991 -0.20135,0.37147 -0.38476,0.47266 C 664.08912,254.9402 663.25852,254.98529 662,255 H 657.00586 657 c -1.25863,-0.0152 -2.0891,-0.0599 -2.45508,-0.26172 -0.18342,-0.10116 -0.28722,-0.21286 -0.38476,-0.47266 C 654.06261,254.00583 654,253.59239 654,253 v -10 c 0,-0.59239 0.0626,-1.00572 0.16016,-1.26562 0.0976,-0.25991 0.20331,-0.37147 0.38672,-0.47266 C 654.91283,241.05981 655.74148,241.0147 657,241 Z" style="fill:#808080"/>
  <path d="m 655.50004,242 c -0.277,0 -0.5,0.223 -0.5,0.5 v 4 c 0,0.277 0.223,0.5 0.5,0.5 h 8 c 0.277,0 0.5,-0.223 0.5,-0.5 v -4 c 0,-0.277 -0.223,-0.5 -0.5,-0.5 z m 0.75,1 h 6.5 c 0.1385,0 0.25,0.1115 0.25,0.25 v 2.5 c 0,0.1385 -0.1115,0.25 -0.25,0.25 h -6.5 c -0.1385,0 -0.25,-0.1115 -0.25,-0.25 v -2.5 c 0,-0.1385 0.1115,-0.25 0.25,-0.25 z" style="fill:#808080"/>
  <rect width="1" height="4" x="656" y="248.5" rx=".5" ry=".5" style="fill:#808080"/>
  <rect width="4" height="1" x="654.5" y="250" rx=".5" ry=".5" style="fill:#808080"/>
  <rect width="2" height="2" x="662" y="249" rx="1" ry="1" style="fill:#808080"/>
  <rect width="2" height="2" x="660" y="251" rx="1" ry="1" style="fill:#808080"/>
 </g>
</svg>
