<svg height="16.001389" width="16" xmlns="http://www.w3.org/2000/svg">
  <path d="m520.00004 260c-.56278-.006-.76068.0174-.83984.71289l-.0293.24414c-.0694.45111-.0826.65509-.5.76563-.0279.006-.0562.0127-.084.0195-.007.001-.0127.003-.0195.006-.10549.026-.20722.0545-.31054.0859-.0174.006-.0345.0111-.0508.0156-.0156.005-.0313.0113-.0469.0156-.0492.0141-.0815.01-.12305.0156-.8122.27933-1.56053.72461-2.19921 1.30859-.0398.0482-.0691.0935-.13086.14844l.0117-.002c-.0824.0798-.16407.16188-.24218.24609l.004-.0117c-.34824.40752-.52175.31534-.9707.13867l-.22461-.0957c-.19652-.0868-.34203-.12907-.45898-.13281-.25727-.009-.3708.17679-.56055.52148-.2868.49498-.37007.67979.17969 1.09766l.19531.14844c.19164.15829.32182.26834.38672.40234.64224-.33602 1.32928-.61583 1.98828-.65039 1.60347-.0842 2.98176.69897 4.27734 1.45117s2.52222 1.47733 3.77735 1.54883c.52524.0299 1.48165-.18606 2.27734-.43164-.0191-.26992-.0495-.53906-.10156-.80469-.0232-.0497-.047-.0924-.0645-.16211-.007-.0286-.0126-.0575-.0195-.0859-.00087-.006-.004-.0127-.006-.0195-.0255-.10781-.0533-.21278-.084-.31836-.007-.0177-.0115-.0341-.0156-.0508-.005-.0159-.0111-.0328-.0156-.0488-.11772-.42887.0497-.54195.39844-.83007l.19531-.14844c.54975-.41786.46651-.60267.17969-1.09766-.18972-.34468-.30329-.53166-.56055-.52343-.11701.004-.26244.0479-.45898.13476l-.22266.0957c-.44894.17666-.62246.26885-.9707-.13867l.002.0117c-.0781-.0843-.15784-.16624-.24023-.24609l.0117.002c-.0798-.0713-.12796-.13076-.17187-.19141-.63139-.56427-1.36646-.99449-2.16211-1.26562-.0401-.006-.0716-.003-.11914-.0156-.0156-.005-.0312-.0113-.0469-.0156-.0162-.005-.0335-.01-.0508-.0156-.10332-.0314-.20511-.0599-.31054-.0859-.007-.001-.0128-.003-.0195-.006-.0278-.007-.0561-.0132-.084-.0195-.41758-.11051-.43053-.31452-.5-.76563l-.0293-.24414c-.0792-.69564-.27701-.71937-.83981-.71297zm-3.97461 6c-.524.0275-1.45868.45395-2.23047.9082-.0645.36066-.10754.72489-.11133 1.0918.00061.26208.0229.52345.0547.7832.71071-.39403 1.49113-.74412 2.23633-.7832 1.60347-.0842 2.98176.69897 4.27734 1.45117s2.52222 1.47733 3.77735 1.54883c.50505.0287 1.40533-.17469 2.18164-.4082-.21238-.187-.30407-.33061-.21094-.66992.005-.0159.0111-.0327.0156-.0488.005-.0167.008-.0331.0137-.0508.0307-.1056.0604-.2106.0859-.31836.00087-.007.002-.0128.004-.0195.007-.0285.0132-.0574.0195-.0859.0134-.0532.0323-.0818.0488-.12305.0464-.22047.08-.44403.10352-.66797-.76541.22648-1.60091.43353-2.32032.39258-1.58826-.0905-2.93815-.93896-4.2207-1.68359-1.28255-.74464-2.48399-1.38151-3.72461-1.31641zm0 3c-.48655.0255-1.32246.40266-2.05859.81836.00056.002.001.004.002.006.007.0168.0111.0327.0156.0488.005.0159.01.0328.0137.0488.11772.42889-.0498.54194-.39844.83007l-.19141.14844c-.54976.41785-.47039.60464-.18359 1.09961.27599.50137.39061.66442 1.01953.38672l.22461-.0957c.44894-.17666.62247-.26885.9707.13867l-.002-.01c.0781.0843.15781.16431.24023.24414l-.0117-.002c.0483.043.0688.0786.10351.11719.65723.60626 1.43187 1.0648 2.27344 1.3457.0276.006.0476.005.0781.0137.0156.005.0312.009.0469.0137.0163.005.0315.008.0488.0137.10331.0314.2051.0599.31054.0859.007.001.0127.003.0195.006.0278.007.056.0132.084.0195.41759.1105.43054.31453.5.76563l.0293.24805c.0792.69555.27704.71538.83984.70898.5628.006.76066-.0135.83984-.70898l.0293-.24805c.0694-.4511.0826-.65509.5-.76563.028-.006.0562-.0127.084-.0195.007-.001.0127-.003.0195-.006.10548-.026.20723-.0545.31054-.0859.0173-.006.0325-.009.0488-.0137.0156-.005.0313-.009.0469-.0137.0529-.0152.0907-.0134.13476-.0195.79387-.27299 1.52692-.70458 2.15625-1.26953.0435-.0586.0873-.11889.16406-.1875l-.0117.002c.0824-.0798.16213-.16188.24023-.24609l-.004.0117c.34824-.40752.52176-.31533.97071-.13867l.22461.0957c.62891.27771.74355.11473 1.01953-.38672.151-.26059.2379-.43706.21289-.60547-.11731.0392-.19549.0716-.32227.11133-.85069.26673-1.85889.54164-2.69336.49414-1.58826-.0905-2.93815-.93896-4.2207-1.68359-1.28255-.74464-2.48399-1.38151-3.72461-1.31641z" fill="#808080" transform="translate(-512.00004 -259.99931)"/>
</svg>
