<?xml version="1.0" encoding="UTF-8" standalone="no"?>
<svg
   xmlns:dc="http://purl.org/dc/elements/1.1/"
   xmlns:cc="http://creativecommons.org/ns#"
   xmlns:rdf="http://www.w3.org/1999/02/22-rdf-syntax-ns#"
   xmlns:svg="http://www.w3.org/2000/svg"
   xmlns="http://www.w3.org/2000/svg"
   xmlns:sodipodi="http://sodipodi.sourceforge.net/DTD/sodipodi-0.dtd"
   xmlns:inkscape="http://www.inkscape.org/namespaces/inkscape"
   height="16"
   width="16"
   version="1.1"
   id="svg8"
   sodipodi:docname="guitar-rig-symbolic.svg"
   inkscape:version="0.92.5 (2060ec1f9f, 2020-04-08)">
  <metadata
     id="metadata14">
    <rdf:RDF>
      <cc:Work
         rdf:about="">
        <dc:format>image/svg+xml</dc:format>
        <dc:type
           rdf:resource="http://purl.org/dc/dcmitype/StillImage" />
        <dc:title></dc:title>
      </cc:Work>
    </rdf:RDF>
  </metadata>
  <defs
     id="defs12" />
  <sodipodi:namedview
     pagecolor="#ffffff"
     bordercolor="#666666"
     borderopacity="1"
     objecttolerance="10"
     gridtolerance="10"
     guidetolerance="10"
     inkscape:pageopacity="0"
     inkscape:pageshadow="2"
     inkscape:window-width="1365"
     inkscape:window-height="930"
     id="namedview10"
     showgrid="false"
     inkscape:zoom="14.75"
     inkscape:cx="8"
     inkscape:cy="8"
     inkscape:window-x="0"
     inkscape:window-y="27"
     inkscape:window-maximized="0"
     inkscape:current-layer="svg8" />
  <path
     style="opacity:1;isolation:isolate;fill:#808080;fill-opacity:1;stroke:none;stroke-width:0.28708193;stroke-linecap:round;stroke-linejoin:round;stroke-miterlimit:4;stroke-dasharray:none;stroke-opacity:1"
     d="M 7.993791,0.512419 A 7.4937906,7.4937906 0 0 0 0.5,8.006209 7.4937906,7.4937906 0 0 0 7.993791,15.5 7.4937906,7.4937906 0 0 0 15.309107,9.546836 l 0.04418,-0.0126 a 7.4937906,7.4937906 0 0 0 0.109284,-0.7233 7.4937906,7.4937906 0 0 0 0.03743,-0.748137 7.4937906,7.4937906 0 0 0 -0.01419,-0.40414 l -1.354878,0.373803 -9.670254,2.667534 -0.204731,0.102365 a 5.3779125,5.0295506 0 0 0 0.28492,0.372383 5.3779125,5.0295506 0 0 0 0.354642,0.377707 5.3779125,5.0295506 0 0 0 0.393495,0.342755 5.3779125,5.0295506 0 0 0 0.427913,0.304258 5.3779125,5.0295506 0 0 0 0.102542,0.05872 l 7.593672,-2.169545 A 5.8133648,5.8133648 0 0 1 7.993795,13.819567 5.8133648,5.8133648 0 0 1 2.18043,8.006202 5.8133648,5.8133648 0 0 1 7.993795,2.192837 5.8133648,5.8133648 0 0 1 11.634244,3.487574 l -0.389769,0.10751 -7.168243,1.97741 a 5.3779125,5.0295506 0 0 0 -0.0424,0.06458 5.3779125,5.0295506 0 0 0 -0.233827,0.45275 5.3779125,5.0295506 0 0 0 -0.184328,0.472265 5.3779125,5.0295506 0 0 0 -0.13288,0.487167 5.3779125,5.0295506 0 0 0 -0.08037,0.497102 5.3779125,5.0295506 0 0 0 -0.0082,0.153282 L 12.992984,4.957239 14.59127,4.500586 A 7.4937906,7.4937906 0 0 0 14.312027,4.013773 7.4937906,7.4937906 0 0 0 13.876308,3.404548 7.4937906,7.4937906 0 0 0 13.546326,3.028794 l 0.02892,-0.01135 A 7.4937906,7.4937906 0 0 0 7.993752,0.512418 Z M 14.911532,5.170313 13.43087,5.578711 3.386813,8.349497 a 5.3779125,5.0295506 0 0 0 0.0021,0.05464 5.3779125,5.0295506 0 0 0 0.06493,0.499054 5.3779125,5.0295506 0 0 0 0.117622,0.490538 5.3779125,5.0295506 0 0 0 0.169603,0.477233 5.3779125,5.0295506 0 0 0 0.13501,0.282259 L 14.059578,7.2437 15.399732,6.86085 A 7.4937906,7.4937906 0 0 0 15.391032,6.789 7.4937906,7.4937906 0 0 0 15.226928,6.058072 7.4937906,7.4937906 0 0 0 14.990795,5.347369 7.4937906,7.4937906 0 0 0 14.911495,5.170313 Z"
     id="path916"
     inkscape:connector-curvature="0" />
</svg>
