<?xml version="1.0" encoding="UTF-8" standalone="no"?>
<svg
   xmlns:dc="http://purl.org/dc/elements/1.1/"
   xmlns:cc="http://creativecommons.org/ns#"
   xmlns:rdf="http://www.w3.org/1999/02/22-rdf-syntax-ns#"
   xmlns:svg="http://www.w3.org/2000/svg"
   xmlns="http://www.w3.org/2000/svg"
   xmlns:sodipodi="http://sodipodi.sourceforge.net/DTD/sodipodi-0.dtd"
   xmlns:inkscape="http://www.inkscape.org/namespaces/inkscape"
   width="16"
   height="16"
   version="1.1"
   id="svg6"
   sodipodi:docname="kid3-symbolic.svg"
   inkscape:version="0.92.4 (5da689c313, 2019-01-14)">
  <metadata
     id="metadata12">
    <rdf:RDF>
      <cc:Work
         rdf:about="">
        <dc:format>image/svg+xml</dc:format>
        <dc:type
           rdf:resource="http://purl.org/dc/dcmitype/StillImage" />
      </cc:Work>
    </rdf:RDF>
  </metadata>
  <defs
     id="defs10" />
  <sodipodi:namedview
     pagecolor="#ffffff"
     bordercolor="#666666"
     borderopacity="1"
     objecttolerance="10"
     gridtolerance="10"
     guidetolerance="10"
     inkscape:pageopacity="0"
     inkscape:pageshadow="2"
     inkscape:window-width="1920"
     inkscape:window-height="1016"
     id="namedview8"
     showgrid="false"
     inkscape:zoom="14.75"
     inkscape:cx="8"
     inkscape:cy="8"
     inkscape:window-x="0"
     inkscape:window-y="27"
     inkscape:window-maximized="1"
     inkscape:current-layer="g838" />
  <path
     inkscape:connector-curvature="0"
     id="path1035"
     d="M 10.373179,0.50000041 5.4570143,1.2801884 C 4.0898992,1.5712943 4.0945612,1.6618717 4.0899427,2.816847 v 2.2616146 1.1380133 5.9716361 c -0.057,-0.03993 -0.11304,-0.07997 -0.172008,-0.119475 v 2.18e-4 c -0.434325,-0.291066 -0.8971621,-0.498311 -1.5189331,-0.498315 -0.778809,0 -1.2434971,0.298239 -1.52464508,0.691035 C 0.5931875,12.654367 0.5,13.149542 0.5,13.532267 c 0,0.461518 0.15770701,0.954178 0.49951499,1.329532 C 1.3413665,15.237156 1.8666921,15.499986 2.6223216,15.5 c 0.8533246,0 1.4537221,-0.238299 1.7930311,-0.70364 0.267159,-0.366382 0.4149825,-0.856045 0.4677,-1.459815 v -0.0011 -6.71e-4 c 0.00765,-0.07325 0.01245,-0.14853 0.0174,-0.226045 0.0072,-0.11934 0.0054,-0.342512 0.0054,-0.342512 V 5.590545 c 0,-1.0250681 -6.6e-5,-1.086161 1.3673619,-1.3199266 L 10.092813,3.6390197 c 0.106193,-0.01392 0.190011,-0.022356 0.280388,-0.032409 z"
     style="fill:#808080;fill-opacity:1;stroke-width:0.10240199;enable-background:new" />
  <g
     id="g838"
     transform="translate(-29.381356,-5.0423143)">
    <path
       sodipodi:nodetypes="ccccccccccccccc"
       inkscape:connector-curvature="0"
       d="m 41.381356,15.542314 v 1 h 3 v -1 z m -2,2 v 1 h 5 v -1 z m -2,2 v 1 h 7 v -1 z"
       font-size="15"
       font-weight="400"
       letter-spacing="0"
       style="font-weight:400;font-size:15px;line-height:125%;font-family:Ubuntu;-inkscape-font-specification:Ubuntu;text-align:center;letter-spacing:0;word-spacing:0;text-anchor:middle;fill:#808080"
       word-spacing="0"
       id="path821" />
  </g>
</svg>
