<svg height="16" width="16" xmlns="http://www.w3.org/2000/svg"><path d="m80 104v144c0 35.15671 28.84329 64 64 64h96c35.15671 0 64-28.84329 64-64v-80c0-26.32015-21.67985-48-48-48-12.29591 0-23.46684 4.8602-32 12.58594-8.53316-7.72574-19.70409-12.58594-32-12.58594-26.32015 0-48 21.67985-48 48v80h32v-80c0-9.02607 6.97393-16 16-16s16 6.97393 16 16v80h32v-80c0-9.02607 6.97393-16 16-16s16 6.97393 16 16v80c0 17.86263-14.13737 32-32 32h-96c-17.86263 0-32-14.13737-32-32v-144z" fill="#808080" transform="matrix(.06696429 0 0 .06696429 -4.857144 -5.892859)"/></svg>