<svg height="16" width="16" xmlns="http://www.w3.org/2000/svg">
  <path d="m8.0273438.50195312c-.6860001 0-1.3713744.23237876-1.9277344.69921878-1.11273.93369-1.3962019 2.5408781-.6699219 3.7988281l.8652344-.5c-.48695-.84343-.2987944-1.90523.4472656-2.53125.74605-.62602 1.8242525-.62602 2.5703125 0s.934216 1.68782.4472656 2.53125l.8652344.5c.72628-1.25795.442798-2.8651381-.6699219-3.7988281-.55636-.46684003-1.2417344-.69921878-1.9277343-.69921878zm-1.0273438 2.49804688v1h2v-1zm4.919922 1.6269531-.722656.6914063 1.380859 1.4453125.722656-.6894531zm-3.919922.3730469c-2.76142 0-5 2.23858-5 5s2.23858 5 5 5 5-2.23858 5-5-2.23858-5-5-5zm0 1 .2851562 3.0429688a1 1 0 0 1 .7148438.9570312 1 1 0 0 1 -.5429688.888672l.0527344.552734c.0442.35355-.2164556.624216-.5097656.603516-.25733-.0182-.550665-.294156-.484375-.603516l.0488281-.542968a1 1 0 0 1 -.5644531-.898438 1 1 0 0 1 .7304688-.9628906z" fill="#808080"/>
</svg>
