<svg height="16" width="16" xmlns="http://www.w3.org/2000/svg"><g enable-background="new" fill="#808080" transform="matrix(.10000000263 0 0 .10000000263 -7.8172632121 -104.97892336454)"><path d="m117.54762 1094.7893c-18.984777 0-34.374987 15.3903-34.374987 34.3749 0 18.9848 15.39021 34.3751 34.374987 34.3751 5.43501 0 10.78982-1.3143 15.62502-3.7963v25.6712a9.3749994 9.3749994 0 0 0 9.375 9.375 9.3749994 9.3749994 0 0 0 9.375-9.375v-56.25-34.3749h-18.75v3.7597c-4.83788-2.4712-10.19254-3.7579-15.62502-3.7597zm0 18.75c8.62945 0 15.62502 6.9956 15.62502 15.6249 0 8.6295-6.99557 15.6251-15.62502 15.6251-8.62944 0-15.62499-6.9956-15.62499-15.6251 0-8.6293 6.99555-15.6249 15.62499-15.6249z"/><path d="m173.79762 1063.5392a9.3749994 9.3749994 0 0 0 -9.37498 9.375v56.25 34.3751h18.74998v-3.7597c4.83786 2.4709 10.19254 3.7579 15.62502 3.7597 18.98476 0 34.37499-15.3907 34.37499-34.3751s-15.39023-34.3749-34.37499-34.3749c-5.43505 0-10.78982 1.3083-15.62502 3.7903v-25.6654a9.3749994 9.3749994 0 0 0 -9.375-9.375zm25.00002 50.0001c8.62942 0 15.62499 6.996 15.62499 15.6249 0 8.6291-6.99557 15.6251-15.62499 15.6251-8.62949 0-15.62502-6.996-15.62502-15.6251 0-8.6289 6.99553-15.6249 15.62502-15.6249z"/></g></svg>