<svg height="16" width="16" xmlns="http://www.w3.org/2000/svg">
  <path d="m8-.00001a8 8 0 0 0 -8 8 8 8 0 0 0 .58984 3 8 8 0 0 0 .0234.0508l1.74414-1.02734a6 6 0 0 1 -.35738-2.02346 6 6 0 0 1 6-6 6 6 0 0 1 4.50977 2.05273l1.74609-1.02734a8 8 0 0 0 -1.25586-1.26953 8 8 0 0 0 -.004-.002 8 8 0 0 0 -.47265-.3418 8 8 0 0 0 -.17188-.125 8 8 0 0 0 -.01-.006 8 8 0 0 0 -.37305-.21484 8 8 0 0 0 -.32813-.1875 8 8 0 0 0 -.38867-.17774 8 8 0 0 0 -.32031-.14453 8 8 0 0 0 -.0117-.004 8 8 0 0 0 -.49804-.16796 8 8 0 0 0 -.24805-.084 8 8 0 0 0 -.0117-.002 8 8 0 0 0 -.41602-.0957 8 8 0 0 0 -.37109-.082 8 8 0 0 0 -.60156-.0762 8 8 0 0 0 -.17188-.0215 8 8 0 0 0 -.006 0 8 8 0 0 0 -.59527-.02309zm-4 4v1.80078l2 1.19922-2 1.19922v.85937.94141l5-3zm11.38672.94922-1.74414 1.02734a6 6 0 0 1 .35742 2.02344 6 6 0 0 1 -6 6 6 6 0 0 1 -4.50977-2.05273l-1.74609 1.02734a8 8 0 0 0 1.25586 1.26953 8 8 0 0 0 .004.002 8 8 0 0 0 .47265.3418 8 8 0 0 0 .18164.13086 8 8 0 0 0 .37305.21484 8 8 0 0 0 .32813.1875 8 8 0 0 0 .38867.17774 8 8 0 0 0 .33203.14844 8 8 0 0 0 .49804.16796 8 8 0 0 0 .25977.0859 8 8 0 0 0 .41602.0957 8 8 0 0 0 .37109.082 8 8 0 0 0 .60156.0762 8 8 0 0 0 .17188.0215 8 8 0 0 0 .006 0 8 8 0 0 0 .59547.02342 8 8 0 0 0 8-8 8 8 0 0 0 -.58984-3 8 8 0 0 0 -.0234-.0508zm-3.38672 1.05078-5 3 5 3v-1.80078l-2-1.19922 2-1.19922v-.85937z" fill="#808080"/>
</svg>
