<svg xmlns="http://www.w3.org/2000/svg" xmlns:osb="http://www.openswatchbook.org/uri/2009/osb" width="16" height="16" version="1.1">
 <defs>
  <linearGradient id="linearGradient5606" osb:paint="solid">
   <stop id="stop5608" offset="0" style="stop-color:#000000"/>
  </linearGradient>
  <linearGradient id="linearGradient4526" osb:paint="solid">
   <stop id="stop4528" offset="0" style="stop-color:#ffffff"/>
  </linearGradient>
  <linearGradient id="linearGradient3600-4" osb:paint="gradient">
   <stop id="stop3602-7" offset="0" style="stop-color:#f4f4f4"/>
   <stop id="stop3604-6" offset="1" style="stop-color:#dbdbdb"/>
  </linearGradient>
 </defs>
 <g transform="translate(-612.00001,-279.99994)">
  <path d="m 615.99418,282 c -1.2582,0.0145 -2.17889,-0.0306 -2.93164,0.38477 -0.37637,0.20766 -0.67323,0.55938 -0.83789,0.99804 -0.16467,0.43867 -0.22461,0.95958 -0.22461,1.61719 v 7 c 0,0.65761 0.0599,1.17853 0.22461,1.61719 0.16467,0.43866 0.46152,0.79039 0.83789,0.99804 0.75275,0.41532 1.67345,0.3702 2.93164,0.38477 h 0.004 8.0039 0.004 c 1.25819,-0.0145 2.17889,0.0306 2.93164,-0.38477 0.37637,-0.20766 0.67322,-0.55938 0.83789,-0.99804 0.16413,-0.43867 0.22443,-0.95958 0.22443,-1.61719 v -7 c 0,-0.65761 -0.0599,-1.17852 -0.22461,-1.61719 -0.16466,-0.43866 -0.46152,-0.79038 -0.83789,-0.99804 -0.75275,-0.41534 -1.67344,-0.37025 -2.93164,-0.38477 h -0.004 -8.0039 z m 2.90234,1.0918 c 1.74896,-0.004 3.49727,-10e-4 5.2461,0.0215 0.86117,0.14671 2.16104,-0.34154 2.67383,0.66797 0.25574,2.92399 0.0694,5.88197 0.1289,8.81836 -0.0871,0.38019 -0.18482,1.14361 -0.73047,1.12891 -3.53641,0.23538 -7.09146,0.10846 -10.63476,0.13476 -0.78646,-0.11198 -1.99991,0.2903 -2.4043,-0.6914 -0.1705,-2.4656 -0.0888,-4.94964 -0.0898,-7.43555 0.12175,-0.84105 -0.29598,-2.06451 0.6875,-2.51172 1.6892,-0.21162 3.40839,-0.0775 5.12304,-0.13281 z m -3.41406,1.88672 c -0.47384,0.0193 -0.65721,0.62569 -0.27344,0.90429 l 1.4668,1.09961 -1.4668,1.09961 c -0.53385,0.40104 0.0677,1.20182 0.60157,0.80078 l 2,-1.5 c 0.26732,-0.2 0.26732,-0.60078 0,-0.80078 l -2,-1.5 c -0.0937,-0.0722 -0.20995,-0.10851 -0.32813,-0.10351 z m 2.52735,4.0039 v 1 h 3 v -1 z" style="fill:#808080"/>
 </g>
</svg>
