<svg xmlns="http://www.w3.org/2000/svg" version="1.1" viewBox="0 0 16 16">
 <defs>
  <style id="current-color-scheme" type="text/css">
   .ColorScheme-Text { color:#808080; }
  </style>
 </defs>
 <path d="m 10.166465,0.51440473 a 2.4985992,1.4374081 36.353491 0 0 -0.9382341,0.27571 2.4985992,1.4374081 36.353491 0 0 -0.0056,1.59954297 c -0.948414,1.948006 -2.530987,4.366703 -2.771995,4.831461 -0.740232,1.025734 -2.307772,6.0881263 -2.934777,8.2551863 l 0.203058,0.01 c -0.05937,-0.0555 2.922057,-4.47593 6.5664281,-5.07617 0.0079,-3.3773323 1.108597,-5.2363863 1.799714,-6.1419193 a 2.4985992,1.4374081 36.353491 0 0 0.95085,-0.274494 2.4985992,1.4374081 36.353491 0 0 -0.831081,-2.585808 2.4985992,1.4374081 36.353491 0 0 -2.038339,-0.89354897 z" style="fill:currentColor;fill-rule:evenodd;stroke:currentColor;stroke-width:0.01813124pt" class="ColorScheme-Text"/>
</svg>
