<svg height="16.000099" width="16" xmlns="http://www.w3.org/2000/svg"><g fill="#808080"><path d="m8 12.000099c-2.216 0-4 1.784-4 4h1c0-1.662 1.338-3 3-3h4c1.662 0 3 1.338 3 3h1c0-2.216-1.784-4-4-4z"/><path d="m10 4.0020492c-.45935 0-.89692.0853-1.29883.25782-.39955.16424-.75214.4045-1.04687.71679l-.004.004-.002.002c-.28714.31374-.50819.69114-.66406 1.11914-.15878.42836-.23438.89853-.23438 1.40039 0 .50876.0753.98099.23438 1.41016.15624.42152.37762.79443.66406 1.1074198l.002.002.004.002c.29405.31157.64524.55682 1.04297.72851l.002.002.004.002c.40108.16427.83823.24609 1.29688.24609.45856 0 .89352-.0816 1.29492-.24609v-.002c.39741-.17155.74615-.41777 1.0332-.73047.29498-.3130298.52286-.6861798.67969-1.1093798.1597-.42918.23438-.90336.23438-1.41211h.008c0-.50128-.0759-.96854-.23438-1.39648-.15621-.42981-.38216-.80908-.67773-1.12305-.28776-.31369-.63983-.55641-1.03906-.7207-.40191-.17431-.83913-.25977-1.29883-.25977zm-.11328 1.03907c.54235-.0425 1.11014.10554 1.51758.47656.76785.62626.93583 1.71677.74804 2.64258-.12867.83869-.78758 1.60117-1.63281 1.76367-.82209.1882998-1.76697-.0641-2.26172-.7793-.53019-.69173-.55046-1.62181-.39843-2.44336.21073-.92005 1.05679-1.69785 2.02734-1.66015z"/><path d="m6 1.0020492c-.45935 0-.89692.0853-1.29883.25782-.39955.16424-.75214.4045-1.04687.71679l-.004.004-.002.002c-.28714.31374-.5082.69114-.66406 1.11914-.15878.42836-.23438.89853-.23438 1.40039 0 .50876.0753.98099.23438 1.41016.15624.42152.37762.79443.66406 1.10742l.002.002.004.002c.29405.31157.64524.55682 1.04297.72851l.002.002.004.002c.33388.13674.69682.20372 1.07227.22656-.009-.0844-.0153-.16909-.0195-.2539-.0107-.25498-.0009-.51046.0293-.76368-.59869-.0499-1.17681-.31359-1.52735-.82031-.53019-.69173-.55049-1.62181-.39843-2.44336.21073-.92005 1.05679-1.69785 2.02734-1.66015.54235-.0425 1.11014.10554 1.51758.47656.32032.26125.5309.60524.66015.98242.30293-.16576.62359-.29232.95508-.37695-.002-.006-.002-.012-.004-.0176-.1562-.42981-.38216-.80908-.67773-1.12305-.28776-.31369-.63983-.55641-1.03906-.7207-.40191-.17431-.83913-.25977-1.29883-.25977zm-2 7.99805c-2.216 0-4 1.7839998-4 3.9999998v1h1.00001l-.00001-1c-.00001-1.662 1.338-3 3-3h2.4707c-.1962-.3112298-.35498-.6471598-.47265-.9999998z" opacity=".5"/></g></svg>