<svg xmlns="http://www.w3.org/2000/svg" xmlns:osb="http://www.openswatchbook.org/uri/2009/osb" width="16" height="16" version="1.1">
 <defs>
  <linearGradient id="linearGradient5606" osb:paint="solid">
   <stop id="stop5608" offset="0" style="stop-color:#000000"/>
  </linearGradient>
  <linearGradient id="linearGradient4526" osb:paint="solid">
   <stop id="stop4528" offset="0" style="stop-color:#ffffff"/>
  </linearGradient>
  <linearGradient id="linearGradient3600-4" osb:paint="gradient">
   <stop id="stop3602-7" offset="0" style="stop-color:#f4f4f4"/>
   <stop id="stop3604-6" offset="1" style="stop-color:#dbdbdb"/>
  </linearGradient>
 </defs>
 <g transform="translate(-632.00004,-300)">
  <path d="m 643.37688,305.745 c -1.35128,10e-4 -2.48258,0.83016 -3.05952,1.98881 l 0.0574,-0.005 c -0.0254,10e-4 -0.046,0.017 -0.0713,0.0195 -0.0131,0.0267 -0.0437,0.0395 -0.0562,0.0666 l 0.0276,-0.0586 c -1.27895,0.14864 -2.27482,1.25637 -2.27482,2.60116 0,1.44343 1.13731,2.64253 2.5517,2.64253 h 2.82629 2.63557 c 1.1023,0 1.98644,-0.93454 1.98644,-2.05197 0,-0.807 -0.48139,-1.47572 -1.15234,-1.80727 l 0.005,0.0562 v 0.008 c -10e-4,-0.026 -0.0155,-0.0476 -0.0172,-0.0735 -0.0297,-0.0144 -0.0441,-0.0491 -0.0747,-0.062 l 0.0666,0.0288 c -0.1397,-1.85485 -1.6074,-3.35006 -3.44784,-3.35142 h 0.0208 l -0.0126,-0.001 z m 0,1.17765 h 0.006 c 1.22857,0.004 2.23221,1.01288 2.29206,2.33464 v 0.002 l 0.0425,0.64683 0.58019,0.24474 c 0.31089,0.13203 0.5239,0.41749 0.5239,0.79735 v 10e-4 0.001 c 0.005,0.50338 -0.37074,0.87319 -0.80652,0.87319 h -2.63443 -2.82742 c -0.74896,0 -1.37524,-0.63339 -1.37524,-1.46603 0,-0.79397 0.58098,-1.40462 1.28216,-1.45569 l 0.59744,-0.0425 0.25965,-0.55379 c 0.38669,-0.83436 1.15315,-1.38248 2.05997,-1.3833 z" style="fill:#808080"/>
  <path d="M 638.16996,301.16992 637.11332,303 h -2.11328 v 2.11328 l -1.83008,1.05664 1.05664,1.83008 -1.05664,1.83008 1.83008,1.05664 V 313 h 2.11328 l 1.05664,1.83008 1.83008,-1.05664 1.83008,1.05664 L 642.88676,313 h 2.11328 v -1.10547 c -1.08983,0.0533 -2.20382,0.009 -3.30273,0.0137 -0.66748,-0.0692 -1.44659,0.15399 -2.00782,-0.32031 -0.93521,-0.66735 -0.70557,-2.38695 0.44532,-2.67578 0.29232,-0.13809 0.72876,-0.0141 0.92187,-0.25781 0.36394,-0.88479 1.1187,-1.78699 2.15625,-1.77539 0.24345,0 0.49135,-0.0101 0.73047,0.0449 1.19011,0.29385 1.87744,1.55009 1.83594,2.71875 -0.1212,0.36553 0.43525,0.22304 0.46875,0.50976 -0.009,0.0129 -0.0233,0.0209 -0.0332,0.0332 l 0.61524,-0.35547 -1.05665,-1.83008 1.05664,-1.83008 -1.83008,-1.05664 V 303 h -2.11328 l -1.05664,-1.83008 -1.83008,1.05664 z" style="opacity:0.5;fill:#808080"/>
 </g>
</svg>
