<svg id="svg11382" height="48" viewBox="0 0 12.7 12.7" width="48" xmlns="http://www.w3.org/2000/svg">
  <g id="layer1" fill="#808080" transform="translate(0 -284.3)">
    <path id="path12788" d="m31.019531 5.2832031-1.058593 2.8183594a17 17 0 0 1 11.039062 15.8984375 17 17 0 0 1 -11.035156 15.908203l1.048828 2.796875a19.999999 19.999999 0 0 0 12.986328-18.705078 19.999999 19.999999 0 0 0 -12.980469-18.7167969zm-14.033203.0117188a19.999999 19.999999 0 0 0 -12.986328 18.7050781 19.999999 19.999999 0 0 0 12.980469 18.716797l1.058593-2.818359a17 17 0 0 1 -11.039062-15.898438 17 17 0 0 1 11.035156-15.9082031zm10.873047 8.4101561-1.054687 2.8125a7.9999994 7.9999994 0 0 1 5.195312 7.482422 7.9999994 7.9999994 0 0 1 -5.191406 7.486328l1.048828 2.800781a11 11 0 0 0 7.142578-10.287109 11 11 0 0 0 -7.140625-10.294922zm-7.716797.007813a11 11 0 0 0 -7.142578 10.287109 11 11 0 0 0 7.140625 10.294922l1.054687-2.8125a7.9999994 7.9999994 0 0 1 -5.195312-7.482422 7.9999994 7.9999994 0 0 1 5.191406-7.486328z" transform="matrix(.26458333 0 0 .26458333 0 284.3)"/>
    <circle id="path13370" cx="6.35" cy="290.64999" r=".529167"/>
  </g>
</svg>
