<svg height="16" width="16" xmlns="http://www.w3.org/2000/svg"><g fill="#444444" transform="translate(-236.00221 -380.03214)"><path d="m244 381.99023c-3.64794.005-6.83075 2.47651-7.73828 6.00977.91502 3.5255 4.09597 5.98788 7.73828 5.99023 3.64794-.005 6.83075-2.47651 7.73828-6.00977-.91502-3.5255-4.09597-5.98788-7.73828-5.99023zm-.0781 1.0293c1.74028-.0197 3.51122.63214 4.77735 1.83593.93959.82912 1.60241 1.93595 1.97851 3.125-.48037 1.61796-1.56666 3.04638-3.00586 3.92969-1.16942.73635-2.56336 1.08925-3.91992 1.04492-1.03549-.0138-2.10475-.33363-2.99218-.79492-1.61742-.85283-2.88486-2.35778-3.41993-4.10937.085-.51892.34571-1.02472.59766-1.49414 1.18845-2.12493 3.54571-3.53123 5.98437-3.53711z"/><path d="m244.19531 383.99414c-.13341-.006-.26704-.005-.40039.002-2.20495.1136-3.90087 1.99223-3.78906 4.19726.11256 2.20573 1.9915 3.90281 4.19726 3.79102 2.20573-.11256 3.90281-1.9915 3.79102-4.19727v-.002c-.10487-2.0517-1.74691-3.69037-3.79883-3.79101zm-.34765 1a3 3 0 0 1 3.14843 2.84179v.002a3 3 0 0 1 -2.84375 3.14844 3 3 0 0 1 -3.14843-2.84375 3 3 0 0 1 2.84375-3.14844z"/><path d="m243.89844 385.99218a2 2 0 0 0 -1.89649 2.09961 2 2 0 0 0 2.09961 1.89649 2 2 0 0 0 1.89649-2.09961 2 2 0 0 0 -.0879-.48633 1 1 0 0 1 -.85938.58594 1 1 0 0 1 -1.04883-.94727 1 1 0 0 1 .58203-.96094 2 2 0 0 0 -.68554-.0879z"/></g></svg>