<?xml version="1.0" encoding="UTF-8" standalone="no"?>
<!-- Created with Inkscape (http://www.inkscape.org/) -->

<svg
   xmlns:dc="http://purl.org/dc/elements/1.1/"
   xmlns:cc="http://creativecommons.org/ns#"
   xmlns:rdf="http://www.w3.org/1999/02/22-rdf-syntax-ns#"
   xmlns:svg="http://www.w3.org/2000/svg"
   xmlns="http://www.w3.org/2000/svg"
   xmlns:sodipodi="http://sodipodi.sourceforge.net/DTD/sodipodi-0.dtd"
   xmlns:inkscape="http://www.inkscape.org/namespaces/inkscape"
   width="16"
   height="16"
   version="1.1"
   viewBox="0 0 16 16"
   id="svg6"
   sodipodi:docname="caffeine-symbolic.svg"
   inkscape:version="0.92.3 (2405546, 2018-03-11)">
  <metadata
     id="metadata12">
    <rdf:RDF>
      <cc:Work
         rdf:about="">
        <dc:format>image/svg+xml</dc:format>
        <dc:type
           rdf:resource="http://purl.org/dc/dcmitype/StillImage" />
        <dc:title></dc:title>
      </cc:Work>
    </rdf:RDF>
  </metadata>
  <defs
     id="defs10" />
  <sodipodi:namedview
     pagecolor="#ffffff"
     bordercolor="#666666"
     borderopacity="1"
     objecttolerance="10"
     gridtolerance="10"
     guidetolerance="10"
     inkscape:pageopacity="0"
     inkscape:pageshadow="2"
     inkscape:window-width="1920"
     inkscape:window-height="1009"
     id="namedview8"
     showgrid="false"
     inkscape:zoom="9.8333333"
     inkscape:cx="12"
     inkscape:cy="12"
     inkscape:window-x="0"
     inkscape:window-y="34"
     inkscape:window-maximized="1"
     inkscape:current-layer="svg6" />
  <g
     transform="translate(-569.00002,-503.5)"
     id="g4"
     style="fill:#808080;fill-opacity:1">
    <path
       d="m 573.19342,504 c -1.0982,1.38422 -1.4274,2.0662 -1.0313,2.94727 0.3591,0.79867 1.2869,1.2057 0.8203,3.05273 0.7664,-0.89992 1.3753,-2.04289 0.7735,-2.96484 -0.6122,-0.9377 -0.9475,-1.50716 -0.5625,-3.03516 z m 3,0 c -1.0982,1.38422 -1.4274,2.0662 -1.0313,2.94727 0.3591,0.79867 1.2869,1.2057 0.8203,3.05273 0.7664,-0.89992 1.3753,-2.04289 0.7735,-2.96484 -0.6122,-0.9377 -0.9475,-1.50716 -0.5625,-3.03516 z m 3,0 c -1.0982,1.38422 -1.4274,2.0662 -1.0313,2.94727 0.3591,0.79867 1.2869,1.2057 0.8203,3.05273 0.7664,-0.89992 1.3753,-2.04289 0.7735,-2.96484 -0.6122,-0.9377 -0.9475,-1.50716 -0.5625,-3.03516 z m -9.1934,7 v 3 c 0,3 2,5 5,5 h 2 c 3,0 4.7598,-1.56569 4.959,-4 h 0.541 c 1.5,0 1.5,-1.5 1.5,-1.5 v -1 c 0,-1.5 -1.5,-1.5 -1.5,-1.5 h -0.5 z m 12.5,1 c 0.5,-0.0323 0.5156,0.53125 0.5156,0.53125 v 1 c 0,0.46875 -0.5156,0.46875 -0.5156,0.46875 h -0.5 l 0.01,-1.98438 0.49,-0.0156 z"
       style="fill:#808080;fill-opacity:1"
       id="path2"
       inkscape:connector-curvature="0" />
  </g>
</svg>
