<?xml version="1.0" encoding="UTF-8" standalone="no"?>
<svg
   xmlns:dc="http://purl.org/dc/elements/1.1/"
   xmlns:cc="http://creativecommons.org/ns#"
   xmlns:rdf="http://www.w3.org/1999/02/22-rdf-syntax-ns#"
   xmlns:svg="http://www.w3.org/2000/svg"
   xmlns="http://www.w3.org/2000/svg"
   xmlns:sodipodi="http://sodipodi.sourceforge.net/DTD/sodipodi-0.dtd"
   xmlns:inkscape="http://www.inkscape.org/namespaces/inkscape"
   height="256"
   width="256"
   version="1.1"
   id="svg49"
   sodipodi:docname="document-import.svg"
   inkscape:version="0.92.4 (5da689c313, 2019-01-14)">
  <metadata
     id="metadata55">
    <rdf:RDF>
      <cc:Work
         rdf:about="">
        <dc:format>image/svg+xml</dc:format>
        <dc:type
           rdf:resource="http://purl.org/dc/dcmitype/StillImage" />
      </cc:Work>
    </rdf:RDF>
  </metadata>
  <defs
     id="defs53" />
  <sodipodi:namedview
     pagecolor="#ffffff"
     bordercolor="#666666"
     borderopacity="1"
     objecttolerance="10"
     gridtolerance="10"
     guidetolerance="10"
     inkscape:pageopacity="0"
     inkscape:pageshadow="2"
     inkscape:window-width="1920"
     inkscape:window-height="1016"
     id="namedview51"
     showgrid="false"
     inkscape:zoom="0.921875"
     inkscape:cx="128"
     inkscape:cy="128"
     inkscape:window-x="0"
     inkscape:window-y="27"
     inkscape:window-maximized="1"
     inkscape:current-layer="g47" />
  <linearGradient
     id="a"
     gradientUnits="userSpaceOnUse"
     x1="88"
     x2="488"
     y1="88"
     y2="488">
    <stop
       offset="0"
       stop-opacity=".588235"
       id="stop2" />
    <stop
       offset=".88"
       stop-opacity="0"
       id="stop4" />
    <stop
       offset="1"
       id="stop6" />
  </linearGradient>
  <linearGradient
     id="b"
     gradientTransform="matrix(0 -.453125 .45311204 0 253.40213 288.38493)"
     gradientUnits="userSpaceOnUse"
     x1="529.65515"
     x2="-35.310345"
     y1="401.58368"
     y2="119.09284">
    <stop
       offset="0"
       stop-color="#f2f2f2"
       id="stop9" />
    <stop
       offset="1"
       stop-color="#f9f9f9"
       id="stop11" />
  </linearGradient>
  <filter
     id="c"
     color-interpolation-filters="sRGB"
     height="1.087725"
     width="1.105998"
     x="-.052999"
     y="-.043863">
    <feGaussianBlur
       stdDeviation="8.4801079"
       id="feGaussianBlur14" />
  </filter>
  <filter
     id="d"
     color-interpolation-filters="sRGB"
     height="1.021931"
     width="1.0265"
     x="-.01325"
     y="-.010966">
    <feGaussianBlur
       stdDeviation="2.120027"
       id="feGaussianBlur17" />
  </filter>
  <filter
     id="e"
     color-interpolation-filters="sRGB"
     height="1.040889"
     width="1.058105"
     x="-.029053"
     y="-.020444">
    <feGaussianBlur
       stdDeviation=".92"
       id="feGaussianBlur20" />
  </filter>
  <g
     transform="translate(-252.030994 -51.210172)"
     id="g47"
     enable-background="new">
    <path
       d="m330.28615 64.384937c-35.29672 0-39.09461 3.625418-38.92162 38.993533v73.00646 73.00647c-.17299 35.36812 3.6249 38.99353 38.92162 38.99353h98.15676c35.29672 0 38.92162-3.625 38.92162-38.99353v-73.00647-73.00646c0-35.368536-3.6249-38.993533-38.92162-38.993533z"
       id="path23"
       stroke-width="4"
       stroke="#000"
       fill="none"
       opacity=".2" />
    <path
       d="m189.84323 74c-70.59344 0-78.18921 7.250835-77.84323 77.98706v146.01294 146.01294c-.34598 70.73623 7.24979 77.98706 77.84323 77.98706h196.31354c70.59344 0 76.00668-7.27384 77.84323-77.98706v-146.01294-146.01294c0-70.737067-7.24979-77.98706-77.84323-77.98706z"
       transform="matrix(.5 0 0 .5 235.36453 28.384937)"
       id="path25"
       filter="url(#d)"
       opacity=".1" />
    <path
       d="m189.84323 74c-70.59344 0-78.18921 7.250835-77.84323 77.98706v146.01294 146.01294c-.34598 70.73623 7.24979 77.98706 77.84323 77.98706h196.31354c70.59344 0 77.84323-7.24999 77.84323-77.98706v-146.01294-146.01294c0-70.737067-7.24979-77.98706-77.84323-77.98706z"
       transform="matrix(.5 0 0 .5 235.36453 28.384937)"
       id="path27"
       filter="url(#c)"
       fill="url(#a)"
       opacity=".3" />
    <path
       d="m330.28615 64.384937c-35.29672 0-39.09461 3.625418-38.92162 38.993533v73.00646 73.00647c-.17299 35.36812 3.6249 38.99353 38.92162 38.99353h98.15676c35.29672 0 38.92162-3.625 38.92162-38.99353v-73.00647-73.00646c0-35.368536-3.6249-38.993533-38.92162-38.993533z"
       id="path29"
       fill="url(#b)" />
    <path
       d="m174 118v80h-24l40 60 40-60h-24v-80z"
       filter="url(#e)"
       opacity=".2"
       transform="matrix(0 -1 1 0 136.89321 369.28597)"
       id="path39" />
    <path
       d="m254.89321 193.28596h80v24l59.99999-40-59.99999-40v24h-80z"
       fill="#45a925"
       id="path41" />
    <path
       d="m334.89365 217.28521 60-40-60-39.99999v23.99999 32z"
       fill="#fff"
       opacity=".1"
       id="path43" />
    <path
       d="m254.89365 177.28521v16h32 48v24l60-40z"
       fill="#fff"
       opacity=".1"
       id="path45" />
  </g>
</svg>
