<?xml version="1.0" encoding="UTF-8" standalone="no"?>
<svg
   xmlns:dc="http://purl.org/dc/elements/1.1/"
   xmlns:cc="http://creativecommons.org/ns#"
   xmlns:rdf="http://www.w3.org/1999/02/22-rdf-syntax-ns#"
   xmlns:svg="http://www.w3.org/2000/svg"
   xmlns="http://www.w3.org/2000/svg"
   xmlns:xlink="http://www.w3.org/1999/xlink"
   xmlns:sodipodi="http://sodipodi.sourceforge.net/DTD/sodipodi-0.dtd"
   xmlns:inkscape="http://www.inkscape.org/namespaces/inkscape"
   height="48"
   viewBox="0 0 12.699375 12.699375"
   width="48"
   version="1.1"
   id="svg62"
   sodipodi:docname="media-optical-copy.svg"
   inkscape:version="0.92.4 (5da689c313, 2019-01-14)">
  <metadata
     id="metadata68">
    <rdf:RDF>
      <cc:Work
         rdf:about="">
        <dc:format>image/svg+xml</dc:format>
        <dc:type
           rdf:resource="http://purl.org/dc/dcmitype/StillImage" />
      </cc:Work>
    </rdf:RDF>
  </metadata>
  <defs
     id="defs66" />
  <sodipodi:namedview
     pagecolor="#ffffff"
     bordercolor="#666666"
     borderopacity="1"
     objecttolerance="10"
     gridtolerance="10"
     guidetolerance="10"
     inkscape:pageopacity="0"
     inkscape:pageshadow="2"
     inkscape:window-width="1920"
     inkscape:window-height="1016"
     id="namedview64"
     showgrid="false"
     inkscape:zoom="17.893547"
     inkscape:cx="13.411943"
     inkscape:cy="15.05827"
     inkscape:window-x="0"
     inkscape:window-y="27"
     inkscape:window-maximized="1"
     inkscape:current-layer="g60" />
  <linearGradient
     id="a"
     gradientTransform="matrix(.06326681 0 0 .06326678 .276074 284.44104)"
     gradientUnits="userSpaceOnUse"
     x1="96"
     x2="96"
     xlink:href="#b"
     y1="4.000006"
     y2="188" />
  <linearGradient
     id="b">
    <stop
       offset="0"
       stop-color="#fff"
       id="stop3" />
    <stop
       offset=".125"
       stop-color="#fff"
       stop-opacity=".098039"
       id="stop5" />
    <stop
       offset=".92500001"
       stop-color="#fff"
       stop-opacity=".098039"
       id="stop7" />
    <stop
       offset="1"
       stop-color="#fff"
       stop-opacity=".498039"
       id="stop9" />
  </linearGradient>
  <linearGradient
     id="c"
     gradientTransform="matrix(.24998771 0 0 .2499878 .132288 222.4857)"
     gradientUnits="userSpaceOnUse"
     x1="13.735326"
     x2="38.099998"
     xlink:href="#d"
     y1="249.69423"
     y2="292.76666" />
  <linearGradient
     id="d">
    <stop
       offset="0"
       stop-color="#cdcdcd"
       id="stop13" />
    <stop
       offset="1"
       stop-color="#d9d9d9"
       id="stop15" />
  </linearGradient>
  <linearGradient
     id="e"
     gradientTransform="matrix(0.14441495,0,0,0.14500896,5.5363882,253.95012)"
     gradientUnits="userSpaceOnUse"
     x1="13.735326"
     x2="38.099998"
     xlink:href="#d"
     y1="249.69423"
     y2="292.76666" />
  <linearGradient
     id="f"
     gradientUnits="userSpaceOnUse"
     x1="9.13708"
     x2="9.118268"
     xlink:href="#b"
     y1="290.41629"
     y2="296.41879" />
  <g
     transform="translate(0 -284.29728)"
     id="g60">
    <circle
       cx="-6.349688"
       cy="-290.77927"
       opacity=".1"
       r="6.085117"
       transform="scale(-1)"
       id="circle20" />
    <circle
       cx="6.349688"
       cy="290.51468"
       fill="url(#c)"
       r="5.952832"
       id="circle22" />
    <path
       d="m6.3496874 284.56182a5.9528319 5.952832 0 0 0 -5.95283199 5.95283h5.95283199zm0 5.95283v5.95283a5.9528319 5.952832 0 0 0 5.9528316-5.95283z"
       fill="#fff"
       opacity=".2"
       id="path24" />
    <path
       d="m10.558975 286.30536a5.9528319 5.952832 0 0 0 -8.4185774 0l4.2092898 4.20929zm-4.2092876 4.20929-4.2092898 4.20928a5.9528319 5.952832 0 0 0 8.4185774 0z"
       opacity=".02"
       id="path26" />
    <path
       d="m4.7258686 284.78766a5.9528319 5.952832 0 0 0 -.1080902.0366 5.9528319 5.952832 0 0 1 .2878657-.078 5.9528319 5.952832 0 0 0 -.1797755.0414zm.4687657-.10798a5.9528319 5.952832 0 0 1 .2932444-.0487 5.9528319 5.952832 0 0 0 -.2932444.0487zm-.8577873.23962a5.9528319 5.952832 0 0 0 -.2783517.10629 5.9528319 5.952832 0 0 1 .2783517-.10629zm1.4467314-.32585a5.9528319 5.952832 0 0 1 .2954509-.0192 5.9528319 5.952832 0 0 0 -.2954509.0192zm-1.9947994.5546a5.9528319 5.952832 0 0 0 -.2675599.13413 5.9528319 5.952832 0 0 1 .2675599-.13413zm2.5887412-.58167a5.9528319 5.952832 0 0 1 .2968849.0106 5.9528319 5.952832 0 0 0 -.2968849-.0106zm-3.1111829.86395a5.9528319 5.952832 0 0 0 -.2531435.16025 5.9528319 5.952832 0 0 1 .2531435-.16025zm3.703958-.83159a5.9528319 5.952832 0 0 1 .2951414.0402 5.9528319 5.952832 0 0 0 -.2951414-.0402zm-4.1961777 1.16488a5.9528319 5.952832 0 0 0 -.2359094.18487 5.9528319 5.952832 0 0 1 .2359094-.18487zm4.7847381-1.07325a5.9528319 5.952832 0 0 1 .2875933.069 5.9528319 5.952832 0 0 0 -.2875933-.069zm-5.3269776 1.53031a5.9528319 5.952832 0 0 0 -.06751.0629 5.9528319 5.952832 0 0 1 .06751-.0629zm-.089073.0863a5.9528319 5.952832 0 0 0 -.9477252 1.23118l5.1552609 2.97639zm4.2075357 4.20757 4.2075392 4.20757a5.9528319 5.952832 0 0 0 .947725-1.23118zm1.7837251-5.6745a5.9528319 5.952832 0 0 1 .279865.0975 5.9528319 5.952832 0 0 0 -.279865-.0975zm.5572749.2063a5.9528319 5.952832 0 0 1 .2701157.12569 5.9528319 5.952832 0 0 0 -.2701157-.12569zm.534223.26106a5.9528319 5.952832 0 0 1 .097645.058l.00352-.006a5.9528319 5.952832 0 0 0 -.1011611-.0519zm-5.8480912 10.3563-.00352.006a5.9528319 5.952832 0 0 0 .101169.0519 5.9528319 5.952832 0 0 1 -.097645-.058zm.361755.19335a5.9528319 5.952832 0 0 0 .2701157.12569 5.9528319 5.952832 0 0 1 -.2701157-.12569zm.5475256.23449a5.9528319 5.952832 0 0 0 .2798651.0975 5.9528319 5.952832 0 0 1 -.2798651-.0975zm6.2495618-1.34603a5.9528319 5.952832 0 0 1 -.06751.0629 5.9528319 5.952832 0 0 0 .06751-.0629zm-5.6820823 1.52423a5.9528319 5.952832 0 0 0 .2875959.069 5.9528319 5.952832 0 0 1 -.2875959-.069zm5.3082413-1.18912a5.9528319 5.952832 0 0 1 -.2359073.18486 5.9528319 5.952832 0 0 0 .2359073-.18486zm-4.727229 1.30953a5.9528319 5.952832 0 0 0 .295144.0402 5.9528319 5.952832 0 0 1 -.295144-.0402zm4.2522427-.95163a5.9528319 5.952832 0 0 1 -.2531435.16025 5.9528319 5.952832 0 0 0 .2531435-.16025zm-3.6612085 1.01358a5.9528319 5.952832 0 0 0 .2968849.0106 5.9528319 5.952832 0 0 1 -.2968849-.0106zm3.1531833-.70518a5.9528319 5.952832 0 0 1 -.2675573.13413 5.9528319 5.952832 0 0 0 .2675573-.13413zm-2.5578102.70793a5.9528319 5.952832 0 0 0 .2954536-.0192 5.9528319 5.952832 0 0 1 -.2954536.0192zm2.020534-.45134a5.9528319 5.952832 0 0 1 -.2783491.10629 5.9528319 5.952832 0 0 0 .2783491-.10629zm-1.4293807.39461a5.9528319 5.952832 0 0 0 .2932418-.0487 5.9528319 5.952832 0 0 1 -.2932418.0487zm.8701003-.19327a5.9528319 5.952832 0 0 1 -.2878683.078 5.9528319 5.952832 0 0 0 .2878683-.078z"
       fill="#faf8f6"
       id="path28" />
    <circle
       cx="6.349688"
       cy="-290.51468"
       fill="#aea795"
       r="2.126011"
       transform="scale(1 -1)"
       id="circle30" />
    <circle
       cx="6.349688"
       cy="290.51468"
       fill="#faf8f6"
       r="1.851992"
       id="circle32" />
    <circle
       cx="6.349688"
       cy="290.51468"
       fill="#4d4d4d"
       r=".793711"
       id="circle34" />
    <ellipse
       ry="3.4530249"
       rx="3.4388812"
       style="fill:#000000;stroke-width:1.06513035;fill-opacity:1;opacity:0.2"
       id="ellipse843"
       cy="293.27905"
       cx="8.9959164" />
    <path
       d="m6.3496874 284.42953a6.0851171 6.0851172 0 0 0 -6.08511709 6.08512 6.0851171 6.0851172 0 0 0 6.08511709 6.08511 6.0851171 6.0851172 0 0 0 6.0851166-6.08511 6.0851171 6.0851172 0 0 0 -6.0851166-6.08512zm0 .26457c3.2146006 0 5.8205466 2.60595 5.8205466 5.82055 0 3.21459-2.6059486 5.82054-5.8205466 5.82054-3.2145981 0-5.82054679-2.60595-5.82054679-5.82054 0-3.2146 2.60594609-5.82055 5.82054679-5.82055z"
       opacity=".4"
       id="path36" />
    <path
       d="m6.3496874 284.6941a5.8205468 5.8205442 0 0 0 -5.82054679 5.82055 5.8205468 5.8205442 0 0 0 5.82054679 5.82054 5.8205468 5.8205442 0 0 0 5.8205466-5.82054 5.8205468 5.8205442 0 0 0 -5.8205466-5.82055zm0 .25307a5.5674795 5.5674772 0 0 1 5.5674796 5.56748 5.5674795 5.5674772 0 0 1 -5.5674796 5.56748 5.5674795 5.5674772 0 0 1 -5.56748002-5.56748 5.5674795 5.5674772 0 0 1 5.56748002-5.56748z"
       fill="url(#a)"
       opacity=".7"
       id="path38" />
    <ellipse
       cx="9.1281061"
       cy="293.41129"
       id="circle40"
       style="fill:url(#e);stroke-width:1.06513035"
       rx="3.4388812"
       ry="3.4530249" />
    <path
       d="m 9.1281072,289.95825 a 3.4388807,3.4530245 0 0 0 -3.4388812,3.45302 h 3.4388812 z m 0,3.45302 v 3.45303 a 3.4388807,3.4530245 0 0 0 3.4388838,-3.45303 z"
       id="path42"
       inkscape:connector-curvature="0"
       style="opacity:0.2;fill:#ffffff;stroke-width:1.06513035" />
    <path
       d="m 11.559764,290.96961 a 3.4388807,3.4530245 0 0 0 -4.8633142,0 l 2.4316574,2.44166 z m -2.4316568,2.44166 -2.4316574,2.44165 a 3.4388807,3.4530245 0 0 0 4.8633142,0 z"
       id="path44"
       inkscape:connector-curvature="0"
       style="opacity:0.02000002;stroke-width:1.06513035" />
    <path
       d="m 8.1900461,290.08925 a 3.4388807,3.4530245 0 0 0 -0.062448,0.0212 3.4388807,3.4530245 0 0 1 0.166297,-0.0453 3.4388807,3.4530245 0 0 0 -0.1038493,0.024 z m 0.2708006,-0.0626 a 3.4388807,3.4530245 0 0 1 0.1694039,-0.0283 3.4388807,3.4530245 0 0 0 -0.1694039,0.0283 z m -0.495534,0.139 a 3.4388807,3.4530245 0 0 0 -0.1608005,0.0616 3.4388807,3.4530245 0 0 1 0.1608005,-0.0616 z m 0.8357598,-0.18902 a 3.4388807,3.4530245 0 0 1 0.1706784,-0.0111 3.4388807,3.4530245 0 0 0 -0.1706784,0.0111 z m -1.1523724,0.32171 a 3.4388807,3.4530245 0 0 0 -0.1545662,0.0778 3.4388807,3.4530245 0 0 1 0.1545662,-0.0778 z m 1.4954852,-0.33742 a 3.4388807,3.4530245 0 0 1 0.1715075,0.006 3.4388807,3.4530245 0 0 0 -0.1715075,-0.006 z m -1.7972929,0.50114 a 3.4388807,3.4530245 0 0 0 -0.146238,0.093 3.4388807,3.4530245 0 0 1 0.146238,-0.093 z m 2.1397317,-0.48236 a 3.4388807,3.4530245 0 0 1 0.1704999,0.0234 3.4388807,3.4530245 0 0 0 -0.1704999,-0.0234 z m -2.4240816,0.67571 a 3.4388807,3.4530245 0 0 0 -0.1362826,0.1072 3.4388807,3.4530245 0 0 1 0.1362826,-0.1072 z m 2.7640863,-0.62255 a 3.4388807,3.4530245 0 0 1 0.1661404,0.04 3.4388807,3.4530245 0 0 0 -0.1661404,-0.04 z m -3.0773313,0.88768 a 3.4388807,3.4530245 0 0 0 -0.039,0.0365 3.4388807,3.4530245 0 0 1 0.039,-0.0365 z m -0.051458,0.0501 a 3.4388807,3.4530245 0 0 0 -0.5474898,0.71416 l 2.978133,1.72649 z m 2.4306432,2.44065 2.4306483,2.44067 a 3.4388807,3.4530245 0 0 0 0.54749,-0.71417 z m 1.0304383,-3.29156 a 3.4388807,3.4530245 0 0 1 0.161675,0.0566 3.4388807,3.4530245 0 0 0 -0.161675,-0.0566 z m 0.321933,0.11965 a 3.4388807,3.4530245 0 0 1 0.156043,0.073 3.4388807,3.4530245 0 0 0 -0.156043,-0.073 z m 0.308614,0.15144 a 3.4388807,3.4530245 0 0 1 0.05641,0.0336 l 0.002,-0.003 a 3.4388807,3.4530245 0 0 0 -0.05845,-0.0301 z m -3.3783764,6.00732 -0.00202,0.003 a 3.4388807,3.4530245 0 0 0 0.058441,0.0301 3.4388807,3.4530245 0 0 1 -0.056411,-0.0336 z m 0.2089816,0.11216 a 3.4388807,3.4530245 0 0 0 0.1560427,0.0729 3.4388807,3.4530245 0 0 1 -0.1560427,-0.0729 z m 0.3163,0.136 a 3.4388807,3.4530245 0 0 0 0.1616742,0.0567 3.4388807,3.4530245 0 0 1 -0.1616742,-0.0567 z m 3.6102998,-0.78078 a 3.4388807,3.4530245 0 0 1 -0.039,0.0365 3.4388807,3.4530245 0 0 0 0.039,-0.0365 z m -3.2824743,0.88415 a 3.4388807,3.4530245 0 0 0 0.1661407,0.04 3.4388807,3.4530245 0 0 1 -0.1661407,-0.04 z m 3.0665103,-0.68977 a 3.4388807,3.4530245 0 0 1 -0.13628,0.1072 3.4388807,3.4530245 0 0 0 0.13628,-0.1072 z m -2.7308658,0.75963 a 3.4388807,3.4530245 0 0 0 0.1705009,0.0234 3.4388807,3.4530245 0 0 1 -0.1705009,-0.0234 z m 2.4564728,-0.55202 a 3.4388807,3.4530245 0 0 1 -0.146239,0.093 3.4388807,3.4530245 0 0 0 0.146239,-0.093 z m -2.1150395,0.58795 a 3.4388807,3.4530245 0 0 0 0.1715065,0.006 3.4388807,3.4530245 0 0 1 -0.1715065,-0.006 z m 1.8215585,-0.40909 a 3.4388807,3.4530245 0 0 1 -0.154565,0.0778 3.4388807,3.4530245 0 0 0 0.154565,-0.0778 z m -1.4776186,0.41064 a 3.4388807,3.4530245 0 0 0 0.1706793,-0.0111 3.4388807,3.4530245 0 0 1 -0.1706793,0.0111 z m 1.1672396,-0.26182 a 3.4388807,3.4530245 0 0 1 -0.160798,0.0616 3.4388807,3.4530245 0 0 0 0.160798,-0.0616 z m -0.8257372,0.22891 a 3.4388807,3.4530245 0 0 0 0.1694018,-0.0283 3.4388807,3.4530245 0 0 1 -0.1694018,0.0283 z m 0.5026482,-0.11212 a 3.4388807,3.4530245 0 0 1 -0.1662988,0.0452 3.4388807,3.4530245 0 0 0 0.1662988,-0.0452 z"
       id="path46"
       inkscape:connector-curvature="0"
       style="fill:#faf8f6;stroke-width:1.06513035" />
    <ellipse
       cx="9.1281061"
       cy="-293.41129"
       transform="scale(1,-1)"
       id="circle48"
       rx="1.2281722"
       ry="1.2332236"
       style="fill:#aea795;stroke-width:1.06513035" />
    <ellipse
       cx="9.1281061"
       cy="293.41129"
       id="circle50"
       rx="1.0698739"
       ry="1.0742742"
       style="fill:#faf8f6;stroke-width:1.06513035" />
    <ellipse
       cx="9.1281061"
       cy="293.41129"
       id="circle52"
       rx="0.458518"
       ry="0.46040383"
       style="fill:#4d4d4d;stroke-width:1.06513035" />
    <path
       style="opacity:0.3;fill:#ffffff;fill-opacity:1;stroke-width:1.06513035"
       d="m 9.128108,289.95817 a 3.4388811,3.4530248 0 0 0 -3.4389537,3.45311 3.4388811,3.4530248 0 0 0 0.00274,0.0816 3.4388811,3.4530248 0 0 1 3.4362073,-3.39353 3.4388811,3.4530248 0 0 1 3.4362074,3.37147 3.4388811,3.4530248 0 0 0 0.0028,-0.0596 3.4388811,3.4530248 0 0 0 -3.4389546,-3.4531 z"
       id="circle877"
       inkscape:connector-curvature="0" />
    <path
       id="path886"
       d="m 9.1281072,296.8643 a 3.438881,3.4530248 0 0 0 3.4389628,-3.4531 3.438881,3.4530248 0 0 0 -0.0032,-0.0816 3.438881,3.4530248 0 0 1 -3.4362094,3.39353 3.438881,3.4530248 0 0 1 -3.4362089,-3.37146 3.438881,3.4530248 0 0 0 -0.00319,0.0596 3.438881,3.4530248 0 0 0 3.4389513,3.4531 z"
       style="opacity:0.3;fill:#000000;fill-opacity:1;stroke-width:1.06513035"
       inkscape:connector-curvature="0" />
  </g>
</svg>
