<?xml version="1.0" encoding="UTF-8" standalone="no"?>
<svg
   xmlns:dc="http://purl.org/dc/elements/1.1/"
   xmlns:cc="http://creativecommons.org/ns#"
   xmlns:rdf="http://www.w3.org/1999/02/22-rdf-syntax-ns#"
   xmlns:svg="http://www.w3.org/2000/svg"
   xmlns="http://www.w3.org/2000/svg"
   xmlns:xlink="http://www.w3.org/1999/xlink"
   xmlns:sodipodi="http://sodipodi.sourceforge.net/DTD/sodipodi-0.dtd"
   xmlns:inkscape="http://www.inkscape.org/namespaces/inkscape"
   width="48"
   height="48"
   version="1.1"
   viewBox="0 0 12.699375 12.699375"
   id="svg40"
   sodipodi:docname="media-optical-data-new.svg"
   inkscape:version="0.92.4 (5da689c313, 2019-01-14)">
  <metadata
     id="metadata44">
    <rdf:RDF>
      <cc:Work
         rdf:about="">
        <dc:format>image/svg+xml</dc:format>
        <dc:type
           rdf:resource="http://purl.org/dc/dcmitype/StillImage" />
        <dc:title></dc:title>
      </cc:Work>
    </rdf:RDF>
  </metadata>
  <sodipodi:namedview
     pagecolor="#ffffff"
     bordercolor="#666666"
     borderopacity="1"
     objecttolerance="10"
     gridtolerance="10"
     guidetolerance="10"
     inkscape:pageopacity="0"
     inkscape:pageshadow="2"
     inkscape:window-width="1920"
     inkscape:window-height="1016"
     id="namedview42"
     showgrid="false"
     inkscape:zoom="17.479167"
     inkscape:cx="24"
     inkscape:cy="24"
     inkscape:window-x="0"
     inkscape:window-y="27"
     inkscape:window-maximized="1"
     inkscape:current-layer="g1218" />
  <defs
     id="defs24">
    <linearGradient
       id="linearGradient974"
       x1="152"
       x2="152"
       y1="108"
       y2="244"
       gradientTransform="matrix(0.26458333,0,0,0.26458333,-7.055502,221.11081)"
       gradientUnits="userSpaceOnUse">
      <stop
         style="stop-color:#808080"
         offset="0"
         id="stop2" />
      <stop
         style="stop-color:#999999"
         offset="1"
         id="stop4" />
    </linearGradient>
    <linearGradient
       id="linearGradient4226"
       x1="529.65503"
       x2="-35.310001"
       y1="295.638"
       y2="295.638"
       gradientTransform="matrix(0,-0.11988932,-0.11988589,0,66.487288,293.07747)"
       gradientUnits="userSpaceOnUse">
      <stop
         style="stop-color:#999999"
         offset="0"
         id="stop7" />
      <stop
         style="stop-color:#b7b7b7"
         offset=".613"
         id="stop9" />
      <stop
         style="stop-color:#dbdbdb"
         offset="1"
         id="stop11" />
    </linearGradient>
    <linearGradient
       id="linearGradient4358"
       x1="88"
       x2="488"
       y1="88"
       y2="488"
       gradientUnits="userSpaceOnUse">
      <stop
         style="stop-color:#000000;stop-opacity:.58823532"
         offset="0"
         id="stop14" />
      <stop
         style="stop-color:#000000;stop-opacity:0"
         offset=".88"
         id="stop16" />
      <stop
         style="stop-color:#000000"
         offset="1"
         id="stop18" />
    </linearGradient>
    <filter
       id="filter4346"
       width="1.026"
       height="1.022"
       x="-0.0099999998"
       y="-0.0099999998"
       style="color-interpolation-filters:sRGB">
      <feGaussianBlur
         stdDeviation="2.12"
         id="feGaussianBlur21" />
    </filter>
    <clipPath
       clipPathUnits="userSpaceOnUse"
       id="clipPath994-5">
      <path
         style="color:#000000;display:inline;overflow:visible;visibility:visible;fill:#cdcdcd;fill-opacity:1;fill-rule:nonzero;stroke:none;stroke-width:2;stroke-miterlimit:4;stroke-dasharray:none;stroke-opacity:1;marker:none;enable-background:accumulate"
         d="m 335.73108,62 c -8.82418,0 -9.77365,0.90635 -9.7304,9.74838 V 84 96.25162 c -0.0433,8.84203 0.90622,9.74838 9.7304,9.74838 h 16.53919 c 8.82418,0 9.7304,-0.90625 9.7304,-9.74838 V 84 71.74838 C 362.00067,62.90625 361.09445,62 352.27027,62 Z"
         id="path996-3"
         inkscape:connector-curvature="0"
         sodipodi:nodetypes="scccssscsss" />
    </clipPath>
    <clipPath
       clipPathUnits="userSpaceOnUse"
       id="clipPath994-5-3">
      <path
         style="color:#000000;display:inline;overflow:visible;visibility:visible;fill:#cdcdcd;fill-opacity:1;fill-rule:nonzero;stroke:none;stroke-width:2;stroke-miterlimit:4;stroke-dasharray:none;stroke-opacity:1;marker:none;enable-background:accumulate"
         d="m 335.73108,62 c -8.82418,0 -9.77365,0.90635 -9.7304,9.74838 V 84 96.25162 c -0.0433,8.84203 0.90622,9.74838 9.7304,9.74838 h 16.53919 c 8.82418,0 9.7304,-0.90625 9.7304,-9.74838 V 84 71.74838 C 362.00067,62.90625 361.09445,62 352.27027,62 Z"
         id="path996-3-6"
         inkscape:connector-curvature="0"
         sodipodi:nodetypes="scccssscsss" />
    </clipPath>
    <clipPath
       clipPathUnits="userSpaceOnUse"
       id="clipPath994-5-7">
      <path
         style="color:#000000;display:inline;overflow:visible;visibility:visible;fill:#cdcdcd;fill-opacity:1;fill-rule:nonzero;stroke:none;stroke-width:2;stroke-miterlimit:4;stroke-dasharray:none;stroke-opacity:1;marker:none;enable-background:accumulate"
         d="m 335.73108,62 c -8.82418,0 -9.77365,0.90635 -9.7304,9.74838 V 84 96.25162 c -0.0433,8.84203 0.90622,9.74838 9.7304,9.74838 h 16.53919 c 8.82418,0 9.7304,-0.90625 9.7304,-9.74838 V 84 71.74838 C 362.00067,62.90625 361.09445,62 352.27027,62 Z"
         id="path996-3-5"
         inkscape:connector-curvature="0"
         sodipodi:nodetypes="scccssscsss" />
    </clipPath>
    <clipPath
       clipPathUnits="userSpaceOnUse"
       id="clipPath994-5-35">
      <path
         style="color:#000000;display:inline;overflow:visible;visibility:visible;fill:#cdcdcd;fill-opacity:1;fill-rule:nonzero;stroke:none;stroke-width:2;stroke-miterlimit:4;stroke-dasharray:none;stroke-opacity:1;marker:none;enable-background:accumulate"
         d="m 335.73108,62 c -8.82418,0 -9.77365,0.90635 -9.7304,9.74838 V 84 96.25162 c -0.0433,8.84203 0.90622,9.74838 9.7304,9.74838 h 16.53919 c 8.82418,0 9.7304,-0.90625 9.7304,-9.74838 V 84 71.74838 C 362.00067,62.90625 361.09445,62 352.27027,62 Z"
         id="path996-3-62"
         inkscape:connector-curvature="0"
         sodipodi:nodetypes="scccssscsss" />
    </clipPath>
    <clipPath
       clipPathUnits="userSpaceOnUse"
       id="clipPath994-5-9">
      <path
         style="color:#000000;display:inline;overflow:visible;visibility:visible;fill:#cdcdcd;fill-opacity:1;fill-rule:nonzero;stroke:none;stroke-width:2;stroke-miterlimit:4;stroke-dasharray:none;stroke-opacity:1;marker:none;enable-background:accumulate"
         d="m 335.73108,62 c -8.82418,0 -9.77365,0.90635 -9.7304,9.74838 V 84 96.25162 c -0.0433,8.84203 0.90622,9.74838 9.7304,9.74838 h 16.53919 c 8.82418,0 9.7304,-0.90625 9.7304,-9.74838 V 84 71.74838 C 362.00067,62.90625 361.09445,62 352.27027,62 Z"
         id="path996-3-1"
         inkscape:connector-curvature="0"
         sodipodi:nodetypes="scccssscsss" />
    </clipPath>
    <clipPath
       clipPathUnits="userSpaceOnUse"
       id="clipPath994-5-2">
      <path
         style="color:#000000;display:inline;overflow:visible;visibility:visible;fill:#cdcdcd;fill-opacity:1;fill-rule:nonzero;stroke:none;stroke-width:2;stroke-miterlimit:4;stroke-dasharray:none;stroke-opacity:1;marker:none;enable-background:accumulate"
         d="m 335.73108,62 c -8.82418,0 -9.77365,0.90635 -9.7304,9.74838 V 84 96.25162 c -0.0433,8.84203 0.90622,9.74838 9.7304,9.74838 h 16.53919 c 8.82418,0 9.7304,-0.90625 9.7304,-9.74838 V 84 71.74838 C 362.00067,62.90625 361.09445,62 352.27027,62 Z"
         id="path996-3-7"
         inkscape:connector-curvature="0"
         sodipodi:nodetypes="scccssscsss" />
    </clipPath>
    <clipPath
       clipPathUnits="userSpaceOnUse"
       id="clipPath957">
      <path
         sodipodi:nodetypes="scccssscsss"
         inkscape:connector-curvature="0"
         id="path959"
         d="m 340.73108,63 c -8.82418,0 -9.77365,0.90635 -9.7304,9.74838 V 83 87.25162 C 330.95738,96.09365 331.9069,97 340.73108,97 h 6.53919 c 8.82418,0 9.7304,-0.90625 9.7304,-9.74838 V 83 72.74838 C 357.00067,63.90625 356.09445,63 347.27027,63 Z"
         style="color:#000000;display:inline;overflow:visible;visibility:visible;fill:#76c22b;fill-opacity:1;fill-rule:nonzero;stroke:none;stroke-width:2;stroke-miterlimit:4;stroke-dasharray:none;stroke-opacity:1;marker:none;enable-background:accumulate" />
    </clipPath>
    <clipPath
       clipPathUnits="userSpaceOnUse"
       id="clipPath892">
      <path
         sodipodi:nodetypes="ccccccccc"
         inkscape:connector-curvature="0"
         id="path894"
         d="m 365.9998,93.00023 c 0,5 -1.95653,4.94169 -7,5 H 329 c -5.04347,-0.0583 -7,0 -7,-5 V 75.000018 c 0,-5.000001 1.95653,-4.941694 7,-5.000001 h 29.9998 c 5.04347,0.05831 7,0 7,5.000001 z"
         style="color:#000000;display:inline;overflow:visible;visibility:visible;opacity:1;fill:#cdcdcd;fill-opacity:1;fill-rule:nonzero;stroke:none;stroke-width:2;stroke-linecap:butt;stroke-linejoin:miter;stroke-miterlimit:4;stroke-dasharray:none;stroke-dashoffset:0;stroke-opacity:1;marker:none;enable-background:accumulate" />
    </clipPath>
    <clipPath
       clipPathUnits="userSpaceOnUse"
       id="clipPath1049">
      <path
         style="color:#000000;font-style:normal;font-variant:normal;font-weight:normal;font-stretch:normal;font-size:medium;line-height:normal;font-family:sans-serif;font-variant-ligatures:normal;font-variant-position:normal;font-variant-caps:normal;font-variant-numeric:normal;font-variant-alternates:normal;font-feature-settings:normal;text-indent:0;text-align:start;text-decoration:none;text-decoration-line:none;text-decoration-style:solid;text-decoration-color:#000000;letter-spacing:normal;word-spacing:normal;text-transform:none;writing-mode:lr-tb;direction:ltr;text-orientation:mixed;baseline-shift:baseline;text-anchor:start;white-space:normal;shape-padding:0;clip-rule:nonzero;display:inline;overflow:visible;visibility:visible;opacity:0.3;isolation:auto;mix-blend-mode:normal;color-interpolation:sRGB;color-interpolation-filters:linearRGB;solid-color:#000000;solid-opacity:1;fill:#666666;fill-opacity:1;fill-rule:nonzero;stroke:none;stroke-width:2;stroke-linecap:butt;stroke-linejoin:miter;stroke-miterlimit:4;stroke-dasharray:none;stroke-dashoffset:0;stroke-opacity:1;marker:none;color-rendering:auto;image-rendering:auto;shape-rendering:auto;text-rendering:auto;enable-background:accumulate"
         d="m 344.33327,60.935517 c -3.92748,0 -7.68387,0.74958 -11.37341,2.080139 l -0.52146,0.1875 -3.30648,16.341776 c -0.56355,2.783099 -1.12272,5.649118 -1.13181,8.601567 -0.009,2.954609 0.54237,5.954757 1.86063,8.666006 1.3191,2.713015 3.38694,5.071015 5.96712,6.697255 2.57954,1.62579 5.6201,2.49024 8.67509,2.49024 3.05496,0 6.09555,-0.86445 8.67513,-2.49024 2.58018,-1.62624 4.64208,-3.98424 5.96115,-6.697255 1.31826,-2.711249 1.86975,-5.711367 1.86066,-8.666006 -0.009,-2.952479 -0.56226,-5.818468 -1.12587,-8.601567 l -3.31242,-16.341776 -0.52146,-0.1875 c -3.68952,-1.330559 -7.77951,-2.080139 -11.70687,-2.080139 z"
         id="path1051"
         inkscape:connector-curvature="0"
         sodipodi:nodetypes="sccccccsccccccs" />
    </clipPath>
    <clipPath
       clipPathUnits="userSpaceOnUse"
       id="clipPath892-9">
      <path
         sodipodi:nodetypes="ccccccccc"
         inkscape:connector-curvature="0"
         id="path894-3"
         d="m 365.9998,93.00023 c 0,5 -1.95653,4.94169 -7,5 H 329 c -5.04347,-0.0583 -7,0 -7,-5 V 75.000018 c 0,-5.000001 1.95653,-4.941694 7,-5.000001 h 29.9998 c 5.04347,0.05831 7,0 7,5.000001 z"
         style="color:#000000;display:inline;overflow:visible;visibility:visible;opacity:1;fill:#cdcdcd;fill-opacity:1;fill-rule:nonzero;stroke:none;stroke-width:2;stroke-linecap:butt;stroke-linejoin:miter;stroke-miterlimit:4;stroke-dasharray:none;stroke-dashoffset:0;stroke-opacity:1;marker:none;enable-background:accumulate" />
    </clipPath>
    <linearGradient
       inkscape:collect="always"
       xlink:href="#linearGradient927"
       id="linearGradient8590"
       gradientUnits="userSpaceOnUse"
       gradientTransform="matrix(0.06326681,0,0,0.06326678,0.27607381,284.44104)"
       x1="96"
       y1="4.0000062"
       x2="96"
       y2="188" />
    <linearGradient
       inkscape:collect="always"
       id="linearGradient927">
      <stop
         style="stop-color:#ffffff;stop-opacity:1;"
         offset="0"
         id="stop923" />
      <stop
         id="stop933"
         offset="0.125"
         style="stop-color:#ffffff;stop-opacity:0.09803922" />
      <stop
         id="stop931"
         offset="0.92500001"
         style="stop-color:#ffffff;stop-opacity:0.09803922" />
      <stop
         style="stop-color:#ffffff;stop-opacity:0.49803922"
         offset="1"
         id="stop925" />
    </linearGradient>
    <linearGradient
       inkscape:collect="always"
       xlink:href="#linearGradient1048"
       id="linearGradient8588"
       gradientUnits="userSpaceOnUse"
       gradientTransform="matrix(0.24998771,0,0,0.2499878,0.13228782,222.4857)"
       x1="13.735326"
       y1="249.69423"
       x2="38.099998"
       y2="292.76666" />
    <linearGradient
       inkscape:collect="always"
       id="linearGradient1048">
      <stop
         style="stop-color:#cdcdcd;stop-opacity:1;"
         offset="0"
         id="stop1044" />
      <stop
         style="stop-color:#d9d9d9;stop-opacity:1"
         offset="1"
         id="stop1046" />
    </linearGradient>
    <linearGradient
       id="linearGradient950">
      <stop
         offset="0"
         id="stop946"
         style="stop-color:#9a9996" />
      <stop
         offset="1"
         id="stop948"
         style="stop-color:#77767b" />
    </linearGradient>
    <linearGradient
       xlink:href="#linearGradient950"
       gradientUnits="userSpaceOnUse"
       gradientTransform="matrix(1.8293937,-0.81599442,0.81599442,1.8293937,-3645.9624,100.02949)"
       y2="812.882"
       y1="806.297"
       x2="1662.99"
       x1="1660.857"
       id="linearGradient1001" />
    <clipPath
       clipPathUnits="userSpaceOnUse"
       id="clipPath5154">
      <circle
         id="circle7"
         r="109.647"
         cy="924.362"
         cx="128"
         style="fill:url(#radialGradient5158)" />
    </clipPath>
    <clipPath
       clipPathUnits="userSpaceOnUse"
       id="clipPath977">
      <circle
         id="circle10"
         r="109.647"
         cy="924.362"
         cx="128"
         style="fill:url(#radialGradient5158)" />
    </clipPath>
    <clipPath
       clipPathUnits="userSpaceOnUse"
       id="clipPath4688">
      <path
         id="path13"
         d="m 106.42383,889.60156 c -2.2448,-0.0524 -4.09304,1.75264 -4.09375,3.99805 v 32.64453 32.64453 c -4e-5,3.07923 3.33305,5.004 6,3.46485 l 28.26953,-16.32227 28.27148,-16.32227 c 2.66559,-1.54001 2.66559,-5.38772 0,-6.92773 l -28.27148,-16.32227 -28.26953,-16.32226 c -0.58054,-0.3353 -1.23603,-0.51932 -1.90625,-0.53516 z"
         style="fill:url(#radialGradient4692);stroke:#a7003f;stroke-linecap:round;stroke-linejoin:round" />
    </clipPath>
    <clipPath
       clipPathUnits="userSpaceOnUse"
       id="clipPath4564">
      <circle
         id="circle16"
         r="109.647"
         cy="924.362"
         cx="128"
         style="fill:url(#radialGradient4568)" />
    </clipPath>
    <clipPath
       clipPathUnits="userSpaceOnUse"
       id="clipPath6215">
      <path
         id="path19"
         d="m 105.17325,806.18572 c -3.06859,0.56361 -6.11393,1.24721 -9.129005,2.04923 -3.838255,1.06506 -7.62084,2.32142 -11.333578,3.76438 -3.712189,1.44307 -7.34989,3.07087 -10.899472,4.87732 -3.549153,1.80656 -7.005749,3.78947 -10.35684,5.94129 -3.351877,2.15253 -6.593991,4.47137 -9.714191,6.94783 -3.119992,2.47544 -6.114241,5.10535 -8.971529,7.87988 -0.367219,0.38909 -0.731819,0.78065 -1.093777,1.17464 2.60205,17.85956 16.832359,40.03752 30.863064,55.74236 -4.76734,8.84435 -7.265993,18.73329 -7.272057,28.78068 0.02104,2.87431 0.246096,5.7435 0.673482,8.58593 -20.257302,-9.18513 -43.077023,-26.53494 -52.798465,-47.36396 -0.440667,1.15171 -0.863474,2.31018 -1.268271,3.47498 -1.176789,3.80495 -2.162562,7.66637 -2.953625,11.56979 -0.79154,3.90311 -1.3874065,7.84335 -1.7853678,11.80598 -0.39733,3.96334 -0.5961891,7.94407 -0.5958321,11.92728 -4.394e-4,2.81936 0.098928,5.63785 0.2979155,8.45018 0.282275,3.97319 0.763088,7.92978 1.4406374,11.85493 0.625626,3.51826 1.408798,7.00668 2.347153,10.45473 16.778133,6.68355 43.114514,5.45001 63.748015,1.14301 6.818545,11.02763 16.987182,19.58379 29.018153,24.41667 -18.071844,12.93645 -44.490188,24.02095 -67.37308,22.03245 1.384097,1.665 2.813203,3.2921 4.285735,4.8794 2.774977,2.8571 5.691103,5.5737 8.737453,8.1395 3.046107,2.5658 6.218619,4.9777 9.505651,7.2266 3.287242,2.2488 6.684891,4.3319 10.180217,6.2413 3.495379,1.9096 7.084075,3.6433 10.752641,5.1944 3.66896,1.5509 7.413193,2.9174 11.218668,4.0942 1.438565,0.3959 2.884421,0.7648 4.336807,1.1066 14.138748,-11.1844 26.206378,-34.5828 32.780368,-54.56406 12.95816,-0.38251 25.45395,-4.90132 35.65955,-12.89544 2.15922,22.12638 -1.46693,50.5581 -14.64692,69.3832 3.06859,-0.5636 6.11393,-1.2473 9.129,-2.0493 3.83826,-1.0651 7.62084,-2.3214 11.33358,-3.7644 3.71219,-1.4431 7.34989,-3.0709 10.89947,-4.8773 3.54915,-1.8066 7.00575,-3.7895 10.35684,-5.9413 3.35188,-2.1525 6.59399,-4.4714 9.71419,-6.9478 3.11999,-2.4754 6.11424,-5.1054 8.97153,-7.8799 0.36722,-0.3891 0.73182,-0.7806 1.09378,-1.1746 -2.60204,-17.85957 -16.83236,-40.03755 -30.86307,-55.74238 4.76735,-8.84435 7.266,-18.7333 7.27207,-28.78069 -0.021,-2.8743 -0.24611,-5.74349 -0.6735,-8.58592 20.25731,9.18513 43.07704,26.53494 52.79848,47.36396 0.44067,-1.15171 0.86347,-2.31018 1.26827,-3.47499 1.17679,-3.80495 2.16256,-7.66636 2.95362,-11.56978 0.79154,-3.90311 1.38741,-7.84335 1.78537,-11.80598 0.39733,-3.96334 0.59619,-7.94408 0.59583,-11.92729 4.4e-4,-2.81936 -0.0989,-5.63784 -0.29791,-8.45017 -0.28228,-3.97319 -0.76309,-7.92978 -1.44064,-11.85493 -0.62776,-3.53416 -1.41449,-7.03823 -2.35779,-10.50154 -20.56165,-7.32804 -45.89823,-4.79548 -63.74906,-1.11372 -6.81835,-11.01918 -16.98234,-19.56874 -29.00647,-24.39915 18.07184,-12.93645 44.49019,-24.02091 67.37307,-22.03241 -1.38409,-1.66502 -2.8132,-3.2921 -4.28573,-4.87944 -2.77498,-2.85712 -5.6911,-5.57368 -8.73745,-8.13949 -3.04611,-2.56581 -6.21862,-4.97769 -9.50565,-7.22659 -3.28724,-2.24885 -6.68489,-4.3319 -10.18022,-6.24135 -3.49538,-1.90963 -7.08407,-3.64325 -10.75264,-5.19438 -3.66896,-1.55092 -7.41319,-2.91736 -11.21867,-4.09421 -1.42662,-0.39262 -2.86041,-0.75869 -4.30063,-1.09804 -14.14688,11.18369 -26.2293,34.57475 -32.8107,54.55552 -12.96018,0.38127 -25.4582,4.90015 -35.665394,12.89544 -2.15922,-22.12637 1.466931,-50.55807 14.646924,-69.38315 z"
         style="fill:url(#radialGradient6219)" />
    </clipPath>
    <linearGradient
       id="linearGradient954">
      <stop
         style="stop-color:#faf8f6"
         offset="0"
         id="stop950" />
      <stop
         style="stop-color:#f1f0e9"
         offset="1"
         id="stop952" />
    </linearGradient>
    <radialGradient
       xlink:href="#linearGradient1722"
       gradientUnits="userSpaceOnUse"
       gradientTransform="matrix(1.0125135,2.1002674,-1.6092836,0.11574215,-4.6063107,-300.00018)"
       fy="55.927"
       fx="131.915"
       r="160"
       cy="55.927"
       cx="131.915"
       id="radialGradient1062" />
    <linearGradient
       id="linearGradient1722">
      <stop
         offset="0"
         id="stop1718"
         style="stop-color:#e01b24" />
      <stop
         offset="1"
         id="stop1720"
         style="stop-color:#f8e45c" />
    </linearGradient>
    <radialGradient
       xlink:href="#linearGradient1594"
       gradientUnits="userSpaceOnUse"
       gradientTransform="matrix(-0.56672219,1.0065537,-1.1024699,-0.69087589,1449.8905,-224.44988)"
       fy="638.592"
       fx="525.588"
       r="192"
       cy="638.592"
       cx="525.588"
       id="radialGradient1064" />
    <linearGradient
       id="linearGradient1594">
      <stop
         style="stop-color:#2ec27e"
         offset="0"
         id="stop1590" />
      <stop
         style="stop-color:#57e389;stop-opacity:0"
         offset="1"
         id="stop1592" />
    </linearGradient>
    <linearGradient
       xlink:href="#linearGradient2782-839-396"
       gradientUnits="userSpaceOnUse"
       y2="-171.243"
       y1="81.459"
       x2="264.048"
       x1="264.675"
       id="linearGradient1474" />
    <linearGradient
       id="linearGradient2782-839-396">
      <stop
         style="stop-color:#8dc5ff"
         offset="0"
         id="stop7582" />
      <stop
         style="stop-color:#f2c600"
         offset="1"
         id="stop7584" />
    </linearGradient>
    <linearGradient
       xlink:href="#linearGradient6969-5"
       gradientUnits="userSpaceOnUse"
       gradientTransform="matrix(4.0215518,0,0,4.4016601,-113.49853,1.8026083)"
       y2="28.977"
       y1="11.5"
       x2="-11.986"
       x1="-11.986"
       id="linearGradient81638-4" />
    <linearGradient
       id="linearGradient6969-5">
      <stop
         offset="0"
         id="stop6971-9"
         style="stop-color:#204a87" />
      <stop
         offset="1"
         id="stop6973-3"
         style="stop-color:#729fcf" />
    </linearGradient>
    <linearGradient
       xlink:href="#linearGradient3297-2"
       gradientUnits="userSpaceOnUse"
       gradientTransform="matrix(4.8385052,0,0,4.8385052,12.135712,-100.17166)"
       y2="31.996"
       y1="12.519"
       x2="41.335"
       x1="38.884"
       id="linearGradient3206" />
    <linearGradient
       id="linearGradient3297-2">
      <stop
         offset="0"
         id="stop3310"
         style="stop-color:#fce94f;stop-opacity:0.90494299" />
      <stop
         offset="1"
         id="stop3301-9"
         style="stop-color:#ffaf45" />
    </linearGradient>
    <linearGradient
       xlink:href="#linearGradient3297-2"
       gradientUnits="userSpaceOnUse"
       gradientTransform="matrix(4.7884468,0,0,4.7611564,-2.9438985,-108.06444)"
       y2="40.504"
       y1="19.355"
       x2="11.766"
       x1="8.001"
       id="linearGradient3323" />
    <linearGradient
       xlink:href="#linearGradient3193-1"
       gradientUnits="userSpaceOnUse"
       gradientTransform="matrix(4.8506163,0,0,4.8397254,-3.9020289,-108.5292)"
       y2="45.574"
       y1="31.256"
       x2="15.29"
       x1="7.735"
       id="linearGradient3199" />
    <linearGradient
       id="linearGradient3193-1">
      <stop
         offset="0"
         id="stop3195-2"
         style="stop-color:#ff4d19" />
      <stop
         offset="1"
         id="stop3197-2"
         style="stop-color:#ff4d19;stop-opacity:0.17490494" />
    </linearGradient>
    <linearGradient
       xlink:href="#linearGradient3343"
       gradientUnits="userSpaceOnUse"
       gradientTransform="matrix(4.718001,0,0,4.718001,10.362758,-114.62179)"
       y2="23.209"
       y1="17.026"
       x2="23.359"
       x1="23.413"
       id="linearGradient3341" />
    <linearGradient
       id="linearGradient3343">
      <stop
         style="stop-color:#fce94f;stop-opacity:0.8326996"
         offset="0"
         id="stop3345" />
      <stop
         style="stop-color:#fec446"
         offset="1"
         id="stop3347" />
    </linearGradient>
    <linearGradient
       xlink:href="#linearGradient3193-1"
       gradientUnits="userSpaceOnUse"
       gradientTransform="matrix(1.9221253,0,0,2.4396542,78.798138,-70.773152)"
       y2="32.045"
       y1="9.339"
       x2="22.547"
       x1="24.533"
       id="linearGradient3203" />
    <linearGradient
       xlink:href="#linearGradient3193-1"
       gradientUnits="userSpaceOnUse"
       gradientTransform="matrix(1.9221253,0,0,2.4396542,78.798184,-70.77319)"
       y2="32.045"
       y1="9.339"
       x2="22.547"
       x1="24.533"
       id="linearGradient3203-5" />
    <linearGradient
       xlink:href="#linearGradient3343"
       gradientUnits="userSpaceOnUse"
       gradientTransform="matrix(4.718001,0,0,4.718001,10.362801,-114.62183)"
       y2="23.209"
       y1="17.026"
       x2="23.359"
       x1="23.413"
       id="linearGradient3341-6" />
    <linearGradient
       xlink:href="#linearGradient3193-1"
       gradientUnits="userSpaceOnUse"
       gradientTransform="matrix(4.8506163,0,0,4.8397254,-3.9019857,-108.52924)"
       y2="45.574"
       y1="31.256"
       x2="15.29"
       x1="7.735"
       id="linearGradient3199-1" />
    <linearGradient
       xlink:href="#linearGradient3297-2"
       gradientUnits="userSpaceOnUse"
       gradientTransform="matrix(4.7884468,0,0,4.7611564,-2.9438557,-108.06448)"
       y2="40.504"
       y1="19.355"
       x2="11.766"
       x1="8.001"
       id="linearGradient3323-2" />
    <filter
       y="-.01"
       x="-.01"
       height="1.024"
       width="1.024"
       id="filter11191"
       style="color-interpolation-filters:sRGB">
      <feGaussianBlur
         stdDeviation="1.12"
         id="feGaussianBlur11193" />
    </filter>
    <filter
       y="-.05"
       x="-.05"
       height="1.096"
       width="1.096"
       id="filter11210-9"
       style="color-interpolation-filters:sRGB">
      <feGaussianBlur
         stdDeviation="4.48"
         id="feGaussianBlur11212-3" />
    </filter>
    <linearGradient
       xlink:href="#linearGradient4445"
       gradientUnits="userSpaceOnUse"
       gradientTransform="matrix(13.192426,0,0,13.196652,-441.68513,-312.67345)"
       y2="24.939"
       y1="21.958"
       x2="18.557"
       x1="27.754"
       id="linearGradient4368" />
    <linearGradient
       id="linearGradient4445">
      <stop
         style="stop-color:#ffffff"
         offset="0"
         id="stop4447" />
      <stop
         offset=".3"
         id="stop4449"
         style="stop-color:#fce94f" />
      <stop
         style="stop-color:#fce94f;stop-opacity:0"
         offset="1"
         id="stop4451" />
    </linearGradient>
    <linearGradient
       id="linearGradient5571-41">
      <stop
         offset="0"
         id="stop5573-9"
         style="stop-color:#ffffff" />
      <stop
         style="stop-color:#ffffff"
         offset=".208"
         id="stop5581-8" />
      <stop
         style="stop-color:#fce94f"
         offset=".423"
         id="stop5579-04" />
      <stop
         offset="1"
         id="stop5575-90"
         style="stop-color:#fff86f;stop-opacity:0" />
    </linearGradient>
    <filter
       y="-.04"
       x="-.01"
       height="1.082"
       width="1.014"
       id="filter1031"
       style="color-interpolation-filters:sRGB">
      <feGaussianBlur
         stdDeviation=".372"
         id="feGaussianBlur1033" />
    </filter>
    <filter
       y="-.16"
       x="-.03"
       height="1.327"
       width="1.057"
       id="filter1061"
       style="color-interpolation-filters:sRGB">
      <feGaussianBlur
         stdDeviation="1.49"
         id="feGaussianBlur1063" />
    </filter>
    <linearGradient
       gradientUnits="userSpaceOnUse"
       gradientTransform="matrix(0,2.2857343,-2.2857343,0,114.17591,10.346275)"
       y2="14.203"
       y1="32.416"
       x2="35.390999"
       x1="12.274"
       id="linearGradient2658">
      <stop
         id="stop20"
         offset="0"
         style="stop-color:#dedbde" />
      <stop
         id="stop22"
         offset=".5"
         style="stop-color:#e6e6e6" />
      <stop
         id="stop24"
         offset="1"
         style="stop-color:#d2d2d2" />
    </linearGradient>
    <filter
       y="-0.16"
       x="-0.029999999"
       height="1.327"
       width="1.057"
       id="filter1061-3"
       style="color-interpolation-filters:sRGB">
      <feGaussianBlur
         stdDeviation="1.49"
         id="feGaussianBlur1063-6" />
    </filter>
    <filter
       y="-0.039999999"
       x="-0.0099999998"
       height="1.082"
       width="1.0140001"
       id="filter1031-7"
       style="color-interpolation-filters:sRGB">
      <feGaussianBlur
         stdDeviation=".372"
         id="feGaussianBlur1033-5" />
    </filter>
    <linearGradient
       inkscape:collect="always"
       xlink:href="#linearGradient927"
       id="linearGradient955"
       x1="318.62347"
       y1="162.97684"
       x2="318.59879"
       y2="284.1423"
       gradientUnits="userSpaceOnUse" />
    <clipPath
       clipPathUnits="userSpaceOnUse"
       id="clipPath5154-7">
      <circle
         id="circle7-5"
         r="109.647"
         cy="924.362"
         cx="128"
         style="fill:url(#radialGradient5158)" />
    </clipPath>
    <clipPath
       clipPathUnits="userSpaceOnUse"
       id="clipPath977-3">
      <circle
         id="circle10-5"
         r="109.647"
         cy="924.362"
         cx="128"
         style="fill:url(#radialGradient5158)" />
    </clipPath>
    <clipPath
       clipPathUnits="userSpaceOnUse"
       id="clipPath4688-6">
      <path
         id="path13-2"
         d="m 106.42383,889.60156 c -2.2448,-0.0524 -4.09304,1.75264 -4.09375,3.99805 v 32.64453 32.64453 c -4e-5,3.07923 3.33305,5.004 6,3.46485 l 28.26953,-16.32227 28.27148,-16.32227 c 2.66559,-1.54001 2.66559,-5.38772 0,-6.92773 l -28.27148,-16.32227 -28.26953,-16.32226 c -0.58054,-0.3353 -1.23603,-0.51932 -1.90625,-0.53516 z"
         style="fill:url(#radialGradient4692);stroke:#a7003f;stroke-linecap:round;stroke-linejoin:round" />
    </clipPath>
    <clipPath
       clipPathUnits="userSpaceOnUse"
       id="clipPath4564-9">
      <circle
         id="circle16-1"
         r="109.647"
         cy="924.362"
         cx="128"
         style="fill:url(#radialGradient4568)" />
    </clipPath>
    <clipPath
       clipPathUnits="userSpaceOnUse"
       id="clipPath6215-2">
      <path
         id="path19-7"
         d="m 105.17325,806.18572 c -3.06859,0.56361 -6.11393,1.24721 -9.129005,2.04923 -3.838255,1.06506 -7.62084,2.32142 -11.333578,3.76438 -3.712189,1.44307 -7.34989,3.07087 -10.899472,4.87732 -3.549153,1.80656 -7.005749,3.78947 -10.35684,5.94129 -3.351877,2.15253 -6.593991,4.47137 -9.714191,6.94783 -3.119992,2.47544 -6.114241,5.10535 -8.971529,7.87988 -0.367219,0.38909 -0.731819,0.78065 -1.093777,1.17464 2.60205,17.85956 16.832359,40.03752 30.863064,55.74236 -4.76734,8.84435 -7.265993,18.73329 -7.272057,28.78068 0.02104,2.87431 0.246096,5.7435 0.673482,8.58593 -20.257302,-9.18513 -43.077023,-26.53494 -52.798465,-47.36396 -0.440667,1.15171 -0.863474,2.31018 -1.268271,3.47498 -1.176789,3.80495 -2.162562,7.66637 -2.953625,11.56979 -0.79154,3.90311 -1.3874065,7.84335 -1.7853678,11.80598 -0.39733,3.96334 -0.5961891,7.94407 -0.5958321,11.92728 -4.394e-4,2.81936 0.098928,5.63785 0.2979155,8.45018 0.282275,3.97319 0.763088,7.92978 1.4406374,11.85493 0.625626,3.51826 1.408798,7.00668 2.347153,10.45473 16.778133,6.68355 43.114514,5.45001 63.748015,1.14301 6.818545,11.02763 16.987182,19.58379 29.018153,24.41667 -18.071844,12.93645 -44.490188,24.02095 -67.37308,22.03245 1.384097,1.665 2.813203,3.2921 4.285735,4.8794 2.774977,2.8571 5.691103,5.5737 8.737453,8.1395 3.046107,2.5658 6.218619,4.9777 9.505651,7.2266 3.287242,2.2488 6.684891,4.3319 10.180217,6.2413 3.495379,1.9096 7.084075,3.6433 10.752641,5.1944 3.66896,1.5509 7.413193,2.9174 11.218668,4.0942 1.438565,0.3959 2.884421,0.7648 4.336807,1.1066 14.138748,-11.1844 26.206378,-34.5828 32.780368,-54.56406 12.95816,-0.38251 25.45395,-4.90132 35.65955,-12.89544 2.15922,22.12638 -1.46693,50.5581 -14.64692,69.3832 3.06859,-0.5636 6.11393,-1.2473 9.129,-2.0493 3.83826,-1.0651 7.62084,-2.3214 11.33358,-3.7644 3.71219,-1.4431 7.34989,-3.0709 10.89947,-4.8773 3.54915,-1.8066 7.00575,-3.7895 10.35684,-5.9413 3.35188,-2.1525 6.59399,-4.4714 9.71419,-6.9478 3.11999,-2.4754 6.11424,-5.1054 8.97153,-7.8799 0.36722,-0.3891 0.73182,-0.7806 1.09378,-1.1746 -2.60204,-17.85957 -16.83236,-40.03755 -30.86307,-55.74238 4.76735,-8.84435 7.266,-18.7333 7.27207,-28.78069 -0.021,-2.8743 -0.24611,-5.74349 -0.6735,-8.58592 20.25731,9.18513 43.07704,26.53494 52.79848,47.36396 0.44067,-1.15171 0.86347,-2.31018 1.26827,-3.47499 1.17679,-3.80495 2.16256,-7.66636 2.95362,-11.56978 0.79154,-3.90311 1.38741,-7.84335 1.78537,-11.80598 0.39733,-3.96334 0.59619,-7.94408 0.59583,-11.92729 4.4e-4,-2.81936 -0.0989,-5.63784 -0.29791,-8.45017 -0.28228,-3.97319 -0.76309,-7.92978 -1.44064,-11.85493 -0.62776,-3.53416 -1.41449,-7.03823 -2.35779,-10.50154 -20.56165,-7.32804 -45.89823,-4.79548 -63.74906,-1.11372 -6.81835,-11.01918 -16.98234,-19.56874 -29.00647,-24.39915 18.07184,-12.93645 44.49019,-24.02091 67.37307,-22.03241 -1.38409,-1.66502 -2.8132,-3.2921 -4.28573,-4.87944 -2.77498,-2.85712 -5.6911,-5.57368 -8.73745,-8.13949 -3.04611,-2.56581 -6.21862,-4.97769 -9.50565,-7.22659 -3.28724,-2.24885 -6.68489,-4.3319 -10.18022,-6.24135 -3.49538,-1.90963 -7.08407,-3.64325 -10.75264,-5.19438 -3.66896,-1.55092 -7.41319,-2.91736 -11.21867,-4.09421 -1.42662,-0.39262 -2.86041,-0.75869 -4.30063,-1.09804 -14.14688,11.18369 -26.2293,34.57475 -32.8107,54.55552 -12.96018,0.38127 -25.4582,4.90015 -35.665394,12.89544 -2.15922,-22.12637 1.466931,-50.55807 14.646924,-69.38315 z"
         style="fill:url(#radialGradient6219)" />
    </clipPath>
    <radialGradient
       xlink:href="#linearGradient1722"
       gradientUnits="userSpaceOnUse"
       gradientTransform="matrix(1.0125135,2.1002674,-1.6092836,0.11574215,-4.6063107,-300.00018)"
       fy="55.927"
       fx="131.915"
       r="160"
       cy="55.927"
       cx="131.915"
       id="radialGradient1062-3" />
    <radialGradient
       xlink:href="#linearGradient1594"
       gradientUnits="userSpaceOnUse"
       gradientTransform="matrix(-0.56672219,1.0065537,-1.1024699,-0.69087589,1449.8905,-224.44988)"
       fy="638.592"
       fx="525.588"
       r="192"
       cy="638.592"
       cx="525.588"
       id="radialGradient1064-6" />
    <filter
       y="-.01"
       x="-.01"
       height="1.024"
       width="1.024"
       id="filter11191-9"
       style="color-interpolation-filters:sRGB">
      <feGaussianBlur
         stdDeviation="1.12"
         id="feGaussianBlur11193-2" />
    </filter>
    <filter
       y="-.05"
       x="-.05"
       height="1.096"
       width="1.096"
       id="filter11210-9-2"
       style="color-interpolation-filters:sRGB">
      <feGaussianBlur
         stdDeviation="4.48"
         id="feGaussianBlur11212-3-8" />
    </filter>
    <filter
       y="-.04"
       x="-.01"
       height="1.082"
       width="1.014"
       id="filter1031-3"
       style="color-interpolation-filters:sRGB">
      <feGaussianBlur
         stdDeviation=".372"
         id="feGaussianBlur1033-1" />
    </filter>
    <filter
       y="-.16"
       x="-.03"
       height="1.327"
       width="1.057"
       id="filter1061-9"
       style="color-interpolation-filters:sRGB">
      <feGaussianBlur
         stdDeviation="1.49"
         id="feGaussianBlur1063-4" />
    </filter>
    <filter
       y="-0.16"
       x="-0.029999999"
       height="1.327"
       width="1.057"
       id="filter1061-3-5"
       style="color-interpolation-filters:sRGB">
      <feGaussianBlur
         stdDeviation="1.49"
         id="feGaussianBlur1063-6-0" />
    </filter>
    <filter
       y="-0.039999999"
       x="-0.0099999998"
       height="1.082"
       width="1.0140001"
       id="filter1031-7-3"
       style="color-interpolation-filters:sRGB">
      <feGaussianBlur
         stdDeviation=".372"
         id="feGaussianBlur1033-5-6" />
    </filter>
  </defs>
  <g
     transform="translate(0,-284.29728)"
     id="g38">
    <circle
       style="display:inline;opacity:0.1;fill:#000000;fill-opacity:1;stroke:none;stroke-width:0.51707011;stroke-linecap:round;stroke-linejoin:round;stroke-miterlimit:4;stroke-dasharray:none;stroke-opacity:1;enable-background:new"
       id="path9498-0-0"
       cx="-6.3496881"
       cy="-290.77927"
       transform="scale(-1)"
       r="6.0851173" />
    <circle
       style="display:inline;opacity:1;fill:url(#linearGradient8588);fill-opacity:1;stroke:none;stroke-width:0.49458873;stroke-linecap:round;stroke-linejoin:round;stroke-miterlimit:4;stroke-dasharray:none;stroke-opacity:1;enable-background:new"
       id="path9498-6"
       cx="6.3496881"
       cy="290.51468"
       r="5.9528322" />
    <path
       inkscape:connector-curvature="0"
       style="display:inline;opacity:0.2;fill:#ffffff;fill-opacity:1;stroke:none;stroke-width:0.05315029;stroke-linecap:round;stroke-linejoin:round;stroke-miterlimit:4;stroke-dasharray:none;stroke-opacity:1;enable-background:new"
       d="m 6.3496874,284.56182 a 5.9528319,5.952832 0 0 0 -5.95283199,5.95283 H 6.3496874 Z m 0,5.95283 v 5.95283 a 5.9528319,5.952832 0 0 0 5.9528316,-5.95283 z"
       id="path11042-53-1" />
    <path
       inkscape:connector-curvature="0"
       style="display:inline;opacity:0.02000002;fill:#000000;fill-opacity:1;stroke:none;stroke-width:0.05315029;stroke-linecap:round;stroke-linejoin:round;stroke-miterlimit:4;stroke-dasharray:none;stroke-opacity:1;enable-background:new"
       d="m 10.558975,286.30536 a 5.9528319,5.952832 0 0 0 -8.4185774,0 l 4.2092898,4.20929 z m -4.2092876,4.20929 -4.2092898,4.20928 a 5.9528319,5.952832 0 0 0 8.4185774,0 z"
       id="path11042-53-6-27" />
    <path
       style="display:inline;opacity:1;fill:#faf8f6;fill-opacity:1;stroke:none;stroke-width:0.05315029;stroke-linecap:round;stroke-linejoin:round;stroke-miterlimit:4;stroke-dasharray:none;stroke-opacity:1;enable-background:new"
       d="m 4.7258686,284.78766 a 5.9528319,5.952832 0 0 0 -0.1080902,0.0366 5.9528319,5.952832 0 0 1 0.2878657,-0.078 5.9528319,5.952832 0 0 0 -0.1797755,0.0414 z m 0.4687657,-0.10798 a 5.9528319,5.952832 0 0 1 0.2932444,-0.0487 5.9528319,5.952832 0 0 0 -0.2932444,0.0487 z M 4.336847,284.9193 a 5.9528319,5.952832 0 0 0 -0.2783517,0.10629 5.9528319,5.952832 0 0 1 0.2783517,-0.10629 z m 1.4467314,-0.32585 a 5.9528319,5.952832 0 0 1 0.2954509,-0.0192 5.9528319,5.952832 0 0 0 -0.2954509,0.0192 z m -1.9947994,0.5546 a 5.9528319,5.952832 0 0 0 -0.2675599,0.13413 5.9528319,5.952832 0 0 1 0.2675599,-0.13413 z m 2.5887412,-0.58167 a 5.9528319,5.952832 0 0 1 0.2968849,0.0106 5.9528319,5.952832 0 0 0 -0.2968849,-0.0106 z m -3.1111829,0.86395 a 5.9528319,5.952832 0 0 0 -0.2531435,0.16025 5.9528319,5.952832 0 0 1 0.2531435,-0.16025 z m 3.703958,-0.83159 a 5.9528319,5.952832 0 0 1 0.2951414,0.0402 5.9528319,5.952832 0 0 0 -0.2951414,-0.0402 z m -4.1961777,1.16488 a 5.9528319,5.952832 0 0 0 -0.2359094,0.18487 5.9528319,5.952832 0 0 1 0.2359094,-0.18487 z m 4.7847381,-1.07325 a 5.9528319,5.952832 0 0 1 0.2875933,0.069 5.9528319,5.952832 0 0 0 -0.2875933,-0.069 z m -5.3269776,1.53031 a 5.9528319,5.952832 0 0 0 -0.06751,0.0629 5.9528319,5.952832 0 0 1 0.06751,-0.0629 z m -0.089073,0.0863 a 5.9528319,5.952832 0 0 0 -0.9477252,1.23118 l 5.1552609,2.97639 z m 4.2075357,4.20757 4.2075392,4.20757 a 5.9528319,5.952832 0 0 0 0.947725,-1.23118 z m 1.7837251,-5.6745 a 5.9528319,5.952832 0 0 1 0.279865,0.0975 5.9528319,5.952832 0 0 0 -0.279865,-0.0975 z m 0.5572749,0.2063 a 5.9528319,5.952832 0 0 1 0.2701157,0.12569 5.9528319,5.952832 0 0 0 -0.2701157,-0.12569 z m 0.534223,0.26106 a 5.9528319,5.952832 0 0 1 0.097645,0.058 l 0.00352,-0.006 a 5.9528319,5.952832 0 0 0 -0.1011611,-0.0519 z m -5.8480912,10.3563 -0.00352,0.006 a 5.9528319,5.952832 0 0 0 0.101169,0.0519 5.9528319,5.952832 0 0 1 -0.097645,-0.058 z m 0.361755,0.19335 a 5.9528319,5.952832 0 0 0 0.2701157,0.12569 5.9528319,5.952832 0 0 1 -0.2701157,-0.12569 z m 0.5475256,0.23449 a 5.9528319,5.952832 0 0 0 0.2798651,0.0975 5.9528319,5.952832 0 0 1 -0.2798651,-0.0975 z m 6.2495618,-1.34603 a 5.9528319,5.952832 0 0 1 -0.06751,0.0629 5.9528319,5.952832 0 0 0 0.06751,-0.0629 z m -5.6820823,1.52423 a 5.9528319,5.952832 0 0 0 0.2875959,0.069 5.9528319,5.952832 0 0 1 -0.2875959,-0.069 z m 5.3082413,-1.18912 a 5.9528319,5.952832 0 0 1 -0.2359073,0.18486 5.9528319,5.952832 0 0 0 0.2359073,-0.18486 z m -4.727229,1.30953 a 5.9528319,5.952832 0 0 0 0.295144,0.0402 5.9528319,5.952832 0 0 1 -0.295144,-0.0402 z m 4.2522427,-0.95163 a 5.9528319,5.952832 0 0 1 -0.2531435,0.16025 5.9528319,5.952832 0 0 0 0.2531435,-0.16025 z m -3.6612085,1.01358 a 5.9528319,5.952832 0 0 0 0.2968849,0.0106 5.9528319,5.952832 0 0 1 -0.2968849,-0.0106 z m 3.1531833,-0.70518 a 5.9528319,5.952832 0 0 1 -0.2675573,0.13413 5.9528319,5.952832 0 0 0 0.2675573,-0.13413 z m -2.5578102,0.70793 a 5.9528319,5.952832 0 0 0 0.2954536,-0.0192 5.9528319,5.952832 0 0 1 -0.2954536,0.0192 z m 2.020534,-0.45134 a 5.9528319,5.952832 0 0 1 -0.2783491,0.10629 5.9528319,5.952832 0 0 0 0.2783491,-0.10629 z m -1.4293807,0.39461 a 5.9528319,5.952832 0 0 0 0.2932418,-0.0487 5.9528319,5.952832 0 0 1 -0.2932418,0.0487 z m 0.8701003,-0.19327 a 5.9528319,5.952832 0 0 1 -0.2878683,0.078 5.9528319,5.952832 0 0 0 0.2878683,-0.078 z"
       id="path11042-53-6-2-0"
       inkscape:connector-curvature="0" />
    <circle
       style="display:inline;opacity:1;fill:#aea795;fill-opacity:1;stroke:none;stroke-width:0.14670873;stroke-linecap:round;stroke-linejoin:round;stroke-miterlimit:4;stroke-dasharray:none;stroke-dashoffset:0;stroke-opacity:1;enable-background:new"
       id="path7147-9"
       cx="6.3496881"
       cy="-290.51468"
       transform="scale(1,-1)"
       r="2.1260114" />
    <circle
       style="display:inline;opacity:1;fill:#faf8f6;fill-opacity:1;stroke:none;stroke-width:0.13228516;stroke-linecap:round;stroke-linejoin:round;stroke-miterlimit:4;stroke-dasharray:none;stroke-dashoffset:0;stroke-opacity:1;enable-background:new"
       id="path7164-3"
       cx="6.3496881"
       cy="290.51468"
       r="1.8519921" />
    <circle
       style="display:inline;opacity:1;fill:#4d4d4d;fill-opacity:1;stroke:none;stroke-width:0.19842774;stroke-linecap:round;stroke-linejoin:round;stroke-miterlimit:4;stroke-dasharray:none;stroke-dashoffset:0;stroke-opacity:1;enable-background:new"
       id="path7166-6"
       cx="6.3496881"
       cy="290.51468"
       r="0.79371095" />
    <path
       style="display:inline;opacity:0.4;fill:#000000;fill-opacity:1;stroke:none;stroke-width:0.51707011;stroke-linecap:round;stroke-linejoin:round;stroke-miterlimit:4;stroke-dasharray:none;stroke-opacity:1;enable-background:new"
       d="m 6.3496874,284.42953 a 6.0851171,6.0851172 0 0 0 -6.08511709,6.08512 6.0851171,6.0851172 0 0 0 6.08511709,6.08511 6.0851171,6.0851172 0 0 0 6.0851166,-6.08511 6.0851171,6.0851172 0 0 0 -6.0851166,-6.08512 z m 0,0.26457 c 3.2146006,0 5.8205466,2.60595 5.8205466,5.82055 0,3.21459 -2.6059486,5.82054 -5.8205466,5.82054 -3.2145981,0 -5.82054679,-2.60595 -5.82054679,-5.82054 0,-3.2146 2.60594609,-5.82055 5.82054679,-5.82055 z"
       id="path9498-9-1"
       inkscape:connector-curvature="0" />
    <path
       style="display:inline;opacity:0.7;fill:url(#linearGradient8590);fill-opacity:1;stroke:none;stroke-width:0.4945887;stroke-linecap:round;stroke-linejoin:round;stroke-miterlimit:4;stroke-dasharray:none;stroke-opacity:1;enable-background:new"
       d="m 6.3496874,284.6941 a 5.8205468,5.8205442 0 0 0 -5.82054679,5.82055 5.8205468,5.8205442 0 0 0 5.82054679,5.82054 5.8205468,5.8205442 0 0 0 5.8205466,-5.82054 5.8205468,5.8205442 0 0 0 -5.8205466,-5.82055 z m 0,0.25307 a 5.5674795,5.5674772 0 0 1 5.5674796,5.56748 5.5674795,5.5674772 0 0 1 -5.5674796,5.56748 5.5674795,5.5674772 0 0 1 -5.56748002,-5.56748 5.5674795,5.5674772 0 0 1 5.56748002,-5.56748 z"
       id="path9498-1-6"
       inkscape:connector-curvature="0" />
    <g
       style="enable-background:new"
       id="g1258"
       transform="matrix(0.05167389,0,0,0.05167389,-7.381137,281.82783)">
      <circle
         id="circle47"
         r="64"
         cy="224.42918"
         cx="319.48074"
         style="fill:#2b898f;enable-background:new;fill-opacity:1" />
      <circle
         style="fill:none;enable-background:new;stroke:#000000;stroke-opacity:1;stroke-width:5.11999992;stroke-miterlimit:4;stroke-dasharray:none;opacity:0.4"
         cx="319.48074"
         cy="224.42918"
         r="64"
         id="circle945" />
      <circle
         style="fill:none;stroke:url(#linearGradient955);stroke-width:5.11999989;stroke-miterlimit:4;stroke-dasharray:none;stroke-opacity:1;enable-background:new;opacity:0.4"
         cx="319.48074"
         cy="224.42918"
         r="58.879997"
         id="circle947" />
      <g
         style="enable-background:new"
         id="g1218"
         transform="matrix(5.1199999,0,0,5.1199999,-1371.9995,-677.5015)">
        <g
           transform="matrix(0.9375,0,0,0.9375,-119.63276,-0.09165985)"
           style="fill:#fefefe;enable-background:new"
           id="g51">
          <path
             inkscape:connector-curvature="0"
             style="fill:#fefefe"
             d="m 473,180 v 16 h 9 0.75 L 487,191.75 V 191 180 Z m 1,1 h 12 v 10 h -4 v 4 h -8 z m 2,2 v 1 h 8 v -1 z m 0,2 v 1 h 8 v -1 z m 0,2 v 1 h 8 v -1 z m 0,2 v 1 h 3 v -1 z"
             id="path49" />
        </g>
      </g>
    </g>
  </g>
</svg>
