<svg height="16.021481" width="16" xmlns="http://www.w3.org/2000/svg"><g fill="#808080" transform="translate(-632 -39.97853)"><path d="m639.5 39.97853c-1.41179 0-2.5.84433-2.5 2.54296v2.33008 1.06055 2.54297c0 1.69862 1.08821 2.54492 2.5 2.54492s2.5-.84901 2.5-2.54492v-2.54297-1.06055-2.33008c0-1.69591-1.08821-2.54296-2.5-2.54296z"/><path d="m639 51.500011h.999969v4h-.999969z"/><path d="m639.5 55.00001c-.83331 0-1.66831.15904-2.5.45833v.54166h5v-.54166c-.83348-.29292-1.6667-.45833-2.5-.45833z"/><path d="m635 47.00001v1.5c0 2.493 2.007 4.5 4.5 4.5s4.5-2.007 4.5-4.5v-1.5h-1v1.5c0 1.939-1.561 3.5-3.5 3.5s-3.5-1.561-3.5-3.5v-1.5z"/></g></svg>