<?xml version="1.0" encoding="UTF-8" standalone="no"?>
<svg
   xmlns:dc="http://purl.org/dc/elements/1.1/"
   xmlns:cc="http://creativecommons.org/ns#"
   xmlns:rdf="http://www.w3.org/1999/02/22-rdf-syntax-ns#"
   xmlns:svg="http://www.w3.org/2000/svg"
   xmlns="http://www.w3.org/2000/svg"
   xmlns:xlink="http://www.w3.org/1999/xlink"
   xmlns:sodipodi="http://sodipodi.sourceforge.net/DTD/sodipodi-0.dtd"
   xmlns:inkscape="http://www.inkscape.org/namespaces/inkscape"
   width="16"
   height="16"
   version="1.1"
   viewBox="0 0 16 16"
   id="svg65"
   sodipodi:docname="preferences-desktop-locale.svg"
   inkscape:version="0.92.4 (5da689c313, 2019-01-14)">
  <metadata
     id="metadata69">
    <rdf:RDF>
      <cc:Work
         rdf:about="">
        <dc:format>image/svg+xml</dc:format>
        <dc:type
           rdf:resource="http://purl.org/dc/dcmitype/StillImage" />
        <dc:title></dc:title>
      </cc:Work>
    </rdf:RDF>
  </metadata>
  <sodipodi:namedview
     pagecolor="#ffffff"
     bordercolor="#666666"
     borderopacity="1"
     objecttolerance="10"
     gridtolerance="10"
     guidetolerance="10"
     inkscape:pageopacity="0"
     inkscape:pageshadow="2"
     inkscape:window-width="1920"
     inkscape:window-height="1016"
     id="namedview67"
     showgrid="false"
     inkscape:zoom="17.851059"
     inkscape:cx="13.2768"
     inkscape:cy="21.700444"
     inkscape:window-x="0"
     inkscape:window-y="27"
     inkscape:window-maximized="1"
     inkscape:current-layer="svg65" />
  <defs
     id="defs18">
    <clipPath
       id="clipPath1082-3-361"
       clipPathUnits="userSpaceOnUse">
      <path
         style="fill:#8c59d9"
         d="M 361.9375,-212 C 507.2348,-212 528,-191.28677 528,-46.125 V 70.125 C 528,215.28618 507.2348,236 361.9375,236 H 214.0625 C 68.7652,236 48,215.28618 48,70.125 V -46.125 C 48,-191.28677 68.7652,-212 214.0625,-212 Z"
         id="path2"
         inkscape:connector-curvature="0" />
    </clipPath>
    <clipPath
       id="clipPath1082-3"
       clipPathUnits="userSpaceOnUse">
      <path
         style="fill:#8c59d9"
         d="M 361.9375,-212 C 507.2348,-212 528,-191.28677 528,-46.125 V 70.125 C 528,215.28618 507.2348,236 361.9375,236 H 214.0625 C 68.7652,236 48,215.28618 48,70.125 V -46.125 C 48,-191.28677 68.7652,-212 214.0625,-212 Z"
         id="path5"
         inkscape:connector-curvature="0" />
    </clipPath>
    <clipPath
       id="clipPath951"
       clipPathUnits="userSpaceOnUse">
      <path
         style="fill:#8c59d9"
         d="M 188.96875,44 C 261.6174,44 272,54.356615 272,126.9375 v 58.125 C 272,257.64309 261.6174,268 188.96875,268 h -73.9375 C 42.3826,268 32,257.64309 32,185.0625 v -58.125 C 32,54.356615 42.3826,44 115.03125,44 Z"
         id="path8"
         inkscape:connector-curvature="0" />
    </clipPath>
    <clipPath
       id="clipPath951-3"
       clipPathUnits="userSpaceOnUse">
      <path
         style="fill:#8c59d9"
         d="M 188.96875,44 C 261.6174,44 272,54.356615 272,126.9375 v 58.125 C 272,257.64309 261.6174,268 188.96875,268 h -73.9375 C 42.3826,268 32,257.64309 32,185.0625 v -58.125 C 32,54.356615 42.3826,44 115.03125,44 Z"
         id="path11"
         inkscape:connector-curvature="0" />
    </clipPath>
    <filter
       id="filter11191"
       width="1.024"
       height="1.024"
       x="-0.0099999998"
       y="-0.0099999998"
       style="color-interpolation-filters:sRGB">
      <feGaussianBlur
         id="feGaussianBlur11193"
         stdDeviation="1.12" />
    </filter>
    <filter
       id="filter11210"
       width="1.096"
       height="1.096"
       x="-0.050000001"
       y="-0.050000001"
       style="color-interpolation-filters:sRGB">
      <feGaussianBlur
         id="feGaussianBlur11212"
         stdDeviation="4.48" />
    </filter>
    <clipPath
       clipPathUnits="userSpaceOnUse"
       id="clipPath951-3-3">
      <path
         style="opacity:1;fill:#8c59d9;fill-opacity:1;stroke:none;stroke-width:2;stroke-linecap:round;stroke-linejoin:round;stroke-miterlimit:4;stroke-dasharray:none;stroke-dashoffset:0;stroke-opacity:1"
         d="M 188.96875,44 C 261.6174,44 272,54.356615 272,126.9375 v 58.125 C 272,257.64309 261.6174,268 188.96875,268 h -73.9375 C 42.3826,268 32,257.64309 32,185.0625 v -58.125 C 32,54.356615 42.3826,44 115.03125,44 Z"
         id="path953-1"
         inkscape:connector-curvature="0"
         sodipodi:nodetypes="sssssssss" />
    </clipPath>
    <clipPath
       clipPathUnits="userSpaceOnUse"
       id="clipPath994">
      <path
         style="color:#000000;display:inline;overflow:visible;visibility:visible;fill:#cdcdcd;fill-opacity:1;fill-rule:nonzero;stroke:none;stroke-width:2;stroke-miterlimit:4;stroke-dasharray:none;stroke-opacity:1;marker:none;enable-background:accumulate"
         d="m 335.73108,62 c -8.82418,0 -9.77365,0.90635 -9.7304,9.74838 V 84 96.25162 c -0.0433,8.84203 0.90622,9.74838 9.7304,9.74838 h 16.53919 c 8.82418,0 9.7304,-0.90625 9.7304,-9.74838 V 84 71.74838 C 362.00067,62.90625 361.09445,62 352.27027,62 Z"
         id="path996"
         inkscape:connector-curvature="0"
         sodipodi:nodetypes="scccssscsss" />
    </clipPath>
    <clipPath
       clipPathUnits="userSpaceOnUse"
       id="clipPath994-6">
      <path
         style="color:#000000;display:inline;overflow:visible;visibility:visible;fill:#cdcdcd;fill-opacity:1;fill-rule:nonzero;stroke:none;stroke-width:2;stroke-miterlimit:4;stroke-dasharray:none;stroke-opacity:1;marker:none;enable-background:accumulate"
         d="m 335.73108,62 c -8.82418,0 -9.77365,0.90635 -9.7304,9.74838 V 84 96.25162 c -0.0433,8.84203 0.90622,9.74838 9.7304,9.74838 h 16.53919 c 8.82418,0 9.7304,-0.90625 9.7304,-9.74838 V 84 71.74838 C 362.00067,62.90625 361.09445,62 352.27027,62 Z"
         id="path996-7"
         inkscape:connector-curvature="0"
         sodipodi:nodetypes="scccssscsss" />
    </clipPath>
    <clipPath
       clipPathUnits="userSpaceOnUse"
       id="clipPath994-5">
      <path
         style="color:#000000;display:inline;overflow:visible;visibility:visible;fill:#cdcdcd;fill-opacity:1;fill-rule:nonzero;stroke:none;stroke-width:2;stroke-miterlimit:4;stroke-dasharray:none;stroke-opacity:1;marker:none;enable-background:accumulate"
         d="m 335.73108,62 c -8.82418,0 -9.77365,0.90635 -9.7304,9.74838 V 84 96.25162 c -0.0433,8.84203 0.90622,9.74838 9.7304,9.74838 h 16.53919 c 8.82418,0 9.7304,-0.90625 9.7304,-9.74838 V 84 71.74838 C 362.00067,62.90625 361.09445,62 352.27027,62 Z"
         id="path996-3"
         inkscape:connector-curvature="0"
         sodipodi:nodetypes="scccssscsss" />
    </clipPath>
    <clipPath
       clipPathUnits="userSpaceOnUse"
       id="clipPath983-7">
      <path
         id="path985-3"
         d="M 115.03125,44 C 42.3826,44 32,54.356615 32,126.9375 v 58.125 C 32,257.64309 42.3826,268 115.03125,268 H 152 V 44 Z"
         style="opacity:1;fill:#4d4d4d;fill-opacity:1;stroke:none;stroke-width:2;stroke-linecap:round;stroke-linejoin:round;stroke-miterlimit:4;stroke-dasharray:none;stroke-dashoffset:0;stroke-opacity:1"
         inkscape:connector-curvature="0" />
    </clipPath>
  </defs>
  <clipPath
     id="b">
    <use
       id="use5"
       width="100%"
       height="100%"
       x="0"
       y="0"
       overflow="visible"
       xlink:href="#a"
       style="overflow:visible" />
  </clipPath>
  <path
     style="color:#000000;display:inline;overflow:visible;visibility:visible;fill:#f6f5f4;fill-opacity:1;fill-rule:nonzero;stroke:none;stroke-width:0.3333323;marker:none;enable-background:accumulate"
     d="M 15.5,5.41024 C 15.5,2.666402 15.197884,2.152367 12.25055,2.166784 H 8.00004 3.7494499 C 0.8021157,2.15235 0.5,2.666402 0.5,5.41024 v 5.846305 C 0.5,13.999702 0.8020824,14.5 3.7494499,14.5 H 8.00004 12.25055 C 15.197918,14.5 15.5,13.999702 15.5,11.256542 Z"
     id="path964"
     inkscape:connector-curvature="0"
     sodipodi:nodetypes="scccssscsss" />
  <path
     style="display:inline;opacity:1;fill:#3584e4;fill-opacity:1;stroke:none;stroke-width:0.6666646;stroke-linecap:round;stroke-linejoin:round;stroke-miterlimit:4;stroke-dasharray:none;stroke-dashoffset:0;stroke-opacity:1;enable-background:new"
     d="m 7.9998067,2.166558 v 12.333295 h 4.2506363 c 2.947368,0 3.24934,-0.500318 3.24934,-3.243479 V 5.410038 c 0,-2.743838 -0.302005,-3.257896 -3.24934,-3.24348 z"
     id="path888"
     inkscape:connector-curvature="0" />
  <path
     sodipodi:nodetypes="cccccccccccccccccccccc"
     inkscape:connector-curvature="0"
     id="path968"
     d="M 11.635472,5.928299 V 6.666675 H 9.666468 v 0.492252 h 0.814448 C 10.773865,7.915111 11.13366,8.55639 11.557539,9.07974 11.06437,9.590536 10.493556,9.933847 9.844034,10.122169 l 0.13712,0.472782 c 0.721798,-0.209276 1.356466,-0.595165 1.900447,-1.15071 0.543979,0.555545 1.17865,0.941434 1.900441,1.15071 l 0.137123,-0.472782 C 13.269644,9.933847 12.698825,9.590536 12.20566,9.07974 12.629539,8.55639 12.989334,7.91511 13.282284,7.158927 h 0.814447 V 6.666675 H 12.127727 V 5.928299 Z m -0.624865,1.230628 h 1.741985 C 12.502696,7.767336 12.212407,8.281222 11.881601,8.705925 11.550792,8.281222 11.260503,7.767336 11.010607,7.158927 Z"
     style="display:inline;opacity:1;fill:#ffffff;fill-opacity:1;stroke:none;stroke-width:1.3333292;stroke-linecap:round;stroke-linejoin:miter;stroke-miterlimit:4;stroke-dasharray:none;stroke-dashoffset:0;stroke-opacity:1;marker:none;enable-background:new" />
  <path
     d="M 5.8100601,10.331662 C 5.7446437,10.158502 5.6830772,9.98919 5.6253574,9.823727 5.5676376,9.654415 5.5079944,9.497052 5.4464279,9.323892 H 3.6340202 L 3.270388,10.331662 H 2.6874165 C 2.841336,9.908383 2.9856356,9.517811 3.1203152,9.159948 3.2549948,8.798236 3.3858277,8.455765 3.5128106,8.132534 3.6436436,7.809303 3.7725498,7.501463 3.8995328,7.209016 4.026519,6.912721 4.1592719,6.620274 4.2977982,6.331674 h 0.5137084 c 0.1385262,0.2886 0.2712825,0.581047 0.3982687,0.877342 0.126983,0.292447 0.2539659,0.600287 0.3809522,0.923518 0.1308296,0.323231 0.2635858,0.665702 0.3982654,1.027414 0.1346796,0.357863 0.2789792,0.748435 0.4328987,1.171714 z M 5.2848118,8.865 C 5.1616722,8.530224 5.0385392,8.190254 4.9154029,7.878567 4.7961166,7.563031 4.6710537,7.260964 4.5402241,6.972365 4.4055445,7.260964 4.2766383,7.563031 4.1534986,7.878567 4.0342123,8.190254 3.9149227,8.530224 3.7956364,8.865 Z"
     style="font-style:normal;font-variant:normal;font-weight:normal;font-stretch:normal;font-size:medium;line-height:125%;font-family:Ubuntu;-inkscape-font-specification:Ubuntu;text-align:center;letter-spacing:0px;word-spacing:0px;text-anchor:middle;display:inline;fill:#77767b;fill-opacity:1;stroke:none;stroke-width:0.03849988px;stroke-linecap:butt;stroke-linejoin:miter;stroke-opacity:1;enable-background:new"
     id="path972"
     inkscape:connector-curvature="0"
     sodipodi:nodetypes="cccccccccccccccccccccc" />
  <path
     style="color:#000000;display:inline;overflow:visible;visibility:visible;fill:#ffffff;fill-opacity:1;fill-rule:nonzero;stroke:none;stroke-width:0.3333323;marker:none;enable-background:accumulate;opacity:0.3"
     d="M 3.75 2.1660156 C 0.8026658 2.1515816 0.5 2.6663183 0.5 5.4101562 L 0.5 5.9101562 C 0.5 3.1663183 0.8026658 2.6515816 3.75 2.6660156 L 8 2.6660156 L 12.25 2.6660156 C 15.197334 2.6515986 15.5 3.1663183 15.5 5.9101562 L 15.5 5.4101562 C 15.5 2.6663183 15.197334 2.1515986 12.25 2.1660156 L 8 2.1660156 L 3.75 2.1660156 z "
     id="path856" />
  <path
     id="path861"
     d="m 12.25,14.499709 c 2.947335,0.01443 3.25,-0.500303 3.25,-3.244141 v -0.5 c 0,2.743838 -0.302665,3.258575 -3.25,3.244141 h -4.2499998 -4.25 c -2.947334,0.01442 -3.25,-0.500303 -3.25,-3.244141 v 0.5 c 0,2.743838 0.302666,3.258558 3.25,3.244141 h 4.25 z"
     style="color:#000000;display:inline;overflow:visible;visibility:visible;opacity:0.2;fill:#000000;fill-opacity:1;fill-rule:nonzero;stroke:none;stroke-width:0.3333323;marker:none;enable-background:accumulate"
     inkscape:connector-curvature="0" />
</svg>
