<svg height="16" width="16" xmlns="http://www.w3.org/2000/svg"><g transform="translate(-2.644067 -3.254237)"><path d="m7.198815 3.7542371c-3.676604 0-4.072199.3089843-4.0541827 3.323313v4.1766869 4.176694c-.018074 3.014322.3775787 3.323306 4.0541827 3.323306h6.891069c3.676597 0 4.054183-.308941 4.054183-3.323306v-4.176694-4.1766869c0-3.0143573-.377593-3.323313-4.05419-3.323313z" fill="#f7f7f7"/><path d="m8.3578039 5.5402065c-.2959908 0-.5505054.020641-.7636082.062065-.2071879.041425-.3611125.085806-.4617526.1331514l.07988.5060365c.076959-.029568.1983012-.067993.3640557-.1153387.1657546-.047353.417419-.071136.7548431-.071136.236784 0 .4261413.038568.5682074.1154888.1479954.070993.2605225.1687407.3374812.2930215.082874.1183671.1360798.2544896.1597539.4083681.023717.147964.035504.301713.035504.461512v.284122c-.023717-.01186-.068079-.02364-.1331794-.0355-.059221-.01778-.1331722-.03257-.221968-.04435-.082874-.01778-.171641-.02957-.2663589-.0355-.088796-.01186-.174577-.01778-.257465-.01778-.2782245 0-.5357109.02657-.7725093.07986-.2367841.05328-.4410716.139172-.612734.257539-.1716767.112454-.3048347.257397-.3995526.434944-.094711.177561-.1420876.390626-.1420876.639195 0 .26041.041433.482439.1242785.665914.088789.177547.2071592.325475.3551475.4438419.1539175.112447.3315949.195232.5328749.248491.2071878.05328.4321063.08001.6748125.08001.1894215 0 .3729495-.009.5505412-.02671.1835137-.01186.3492468-.02957.4972422-.05328.1479882-.02364.2781602-.04428.3906373-.06206.1124699-.02371.1984011-.04443.2575933-.06221v-2.8940399c0-.242662-.029646-.467669-.088789-.6748202-.0592199-.2071357-.153945-.384647-.2841741-.5326041-.1302362-.1538779-.3019486-.2722236-.5150585-.3550798-.2071879-.0887771-.4616954-.1331585-.7636012-.1331585zm3.2896671 2.3142176v6.2812619h.673683l.210096-.271117c.420005.244948.840002.358615 1.268758.358615 1.260022 0 2.003671-.936044 2.003671-2.213292 0-1.277247-.51623-2.1783809-1.811249-2.1783809-.498757 0-.910003.122602-1.268758.3063129v-2.2833999zm-3.1120969.127074c.2486283 0 .4439577.01778.586031.05328.1420661.02957.245635.05921.3107496.08876v1.615793c-.1183921.02371-.2633585.04428-.4350209.06206-.1657546.01186-.3610911.01778-.5860309.01778-.1835138 0-.349254-.01478-.4972423-.04435-.1420662-.03556-.2664089-.08883-.3729782-.159846-.1006185-.07099-.1805705-.165613-.2397701-.28398-.053292-.118374-.079888-.263453-.079888-.435086 0-.195303.041433-.352194.1242784-.470554.082874-.118367.1894287-.20998.3196578-.275088.1302362-.07099.2723595-.115532.4262699-.133287.1539104-.02371.3018629-.0355.4439362-.0355zm5.1945049 2.7248419c.752521 0 .997599.542419.997599 1.364753 0 .822335-.384987 1.303545-1.102511 1.303545-.350004 0-.647552-.08742-.901303-.288636v-2.14332c.210003-.08748.621207-.236342 1.006215-.236342zm-5.1745669 1.195277c-.4471365 0-.8586548.07007-1.2345475.210044-.3758857.140008-.7001511.34146-.9728464.604277-.2702451.262832-.4816405.584572-.6339579.965299-.1523244.38072-.2284759.810586-.2284759 1.289553 0 .299664.04672.572238.1401088.817864.093346.245626.2308905.455605.4126969.63001.1817992.174383.4066034.309591.6743839.405389.2677947.0958.5774156.143615.9287342.143615.1646116 0 .3304661-.0098.497528-.02943.167069-.01721.329116-.04071.4863625-.07014.1572321-.03193.3058776-.06756.445915-.106861.1424947-.03928.2714879-.07981.3869582-.12156l.224797-1.160501h-.2394987l-.2653801.740542c-.076151.05892-.1670761.115446-.2727239.169484-.1056406.05157-.222311.09818-.3500612.139943-.1252928.04178-.2603939.07495-.4053461.09951-.1449451.02457-.2935906.03685-.445915.03685-.2628799 0-.4876769-.0405-.674391-.121566-.1867141-.081051-.3402316-.192811-.4606167-.335276-.1203851-.144922-.2088809-.316976-.2653802-.515929-.054078-.198959-.081152-.415038-.081152-.648387 0-.4323.057864-.824091.173334-1.175335.1154631-.351259.2750884-.650916.4790045-.899006.2063663-.24809.4508156-.438422.7333406-.571059.2825321-.135101.5909458-.202701.9250623-.202701.2358554 0 .461874.02957.67807.08848.2162031.05649.4003383.137508.5526557.243133v.641167h.2396489l.16584-1.079649c-.2186535-.049138-.4582236-.092055-.7186461-.128909-.2604152-.039281-.5589278-.058922-.8955089-.058922z" fill="#5d5d5d"/><path d="m4.5546875.5c-3.676604 0-4.0727038.30989005-4.0546875 3.3242188v.5c-.0180163-3.0143288.3780835-3.3242188 4.0546875-3.3242188h6.8906245c3.676598 0 4.054688.3098614 4.054688 3.3242188v-.5c0-3.01435735-.37809-3.3242188-4.054688-3.3242188z" opacity=".2" transform="translate(2.644067 3.254237)"/><path d="m14.088379 18.754237c3.676604 0 4.072704-.30989 4.054688-3.324219v-.5c.01802 3.014329-.378084 3.324219-4.054688 3.324219h-6.890624c-3.676598 0-4.054688-.309861-4.054688-3.324219v.5c0 3.014358.37809 3.324219 4.054688 3.324219z" opacity=".2"/></g></svg>