<?xml version="1.0" encoding="UTF-8" standalone="no"?>
<svg
   xmlns:dc="http://purl.org/dc/elements/1.1/"
   xmlns:cc="http://creativecommons.org/ns#"
   xmlns:rdf="http://www.w3.org/1999/02/22-rdf-syntax-ns#"
   xmlns:svg="http://www.w3.org/2000/svg"
   xmlns="http://www.w3.org/2000/svg"
   xmlns:sodipodi="http://sodipodi.sourceforge.net/DTD/sodipodi-0.dtd"
   xmlns:inkscape="http://www.inkscape.org/namespaces/inkscape"
   height="16"
   width="16"
   version="1.1"
   id="svg8"
   sodipodi:docname="weather-storm.svg"
   inkscape:version="0.92.4 (5da689c313, 2019-01-14)">
  <metadata
     id="metadata14">
    <rdf:RDF>
      <cc:Work
         rdf:about="">
        <dc:format>image/svg+xml</dc:format>
        <dc:type
           rdf:resource="http://purl.org/dc/dcmitype/StillImage" />
      </cc:Work>
    </rdf:RDF>
  </metadata>
  <defs
     id="defs12" />
  <sodipodi:namedview
     pagecolor="#ffffff"
     bordercolor="#666666"
     borderopacity="1"
     objecttolerance="10"
     gridtolerance="10"
     guidetolerance="10"
     inkscape:pageopacity="0"
     inkscape:pageshadow="2"
     inkscape:window-width="1920"
     inkscape:window-height="1016"
     id="namedview10"
     showgrid="false"
     inkscape:zoom="52.71425"
     inkscape:cx="8"
     inkscape:cy="9.4756162"
     inkscape:window-x="0"
     inkscape:window-y="27"
     inkscape:window-maximized="1"
     inkscape:current-layer="g6" />
  <g
     fill="gray"
     id="g6">
    <path
       d="M 8.56,0.084 C 6.672,0.085 5.068,1.249 4.301,2.912 L 4.246,3.025 4.125,3.035 C 2.38,3.162 1,4.672 1,6.508 1,8.427 2.5,10 4.357,10 h 8.125 C 13.874,10 15,8.818 15,7.385 c 0,-1.087 -0.653,-2 -1.578,-2.393 l -0.121,-0.05 -0.01,-0.13 C 13.172,2.194 11.115,0.086 8.562,0.084 Z"
       font-weight="400"
       overflow="visible"
       style="color:#000000;font-weight:400;line-height:normal;font-family:sans-serif;-inkscape-font-specification:sans-serif;text-indent:0;text-align:start;text-decoration:none;text-decoration-line:none;text-transform:none;overflow:visible;fill:#627d90;fill-opacity:1;stroke:none;marker:none"
       id="path2"
       inkscape:connector-curvature="0"
       sodipodi:nodetypes="ccccssssccccc" />
    <path
       style="color:#000000;font-weight:400;line-height:normal;font-family:sans-serif;-inkscape-font-specification:sans-serif;text-indent:0;text-align:start;text-decoration:none;text-decoration-line:none;text-transform:none;overflow:visible;fill:#000000;fill-opacity:1;stroke:none;marker:none;opacity:0.2"
       d="M 1.0234375 6.2519531 C 1.0172946 6.3377475 1 6.4204271 1 6.5078125 C 1 8.4268125 2.5004219 10 4.3574219 10 L 12.482422 10 C 13.874422 10 15 8.8177656 15 7.3847656 C 15 7.2875089 14.988698 7.1938325 14.978516 7.0996094 C 14.871022 8.4322998 13.802983 9.5 12.482422 9.5 L 4.3574219 9.5 C 2.5812337 9.5 1.146238 8.0564171 1.0234375 6.2519531 z "
       id="path826" />
    <path
       d="M6.67 9l-.26 3.5h1.613l-.38 3.5 2.767-5H8.5l.324-2z"
       id="path4"
       style="fill:#ffe500;fill-opacity:1" />
    <path
       style="color:#000000;font-weight:400;line-height:normal;font-family:sans-serif;-inkscape-font-specification:sans-serif;text-indent:0;text-align:start;text-decoration:none;text-decoration-line:none;text-transform:none;overflow:visible;fill:#f4fbff;fill-opacity:1;stroke:none;marker:none;opacity:0.3"
       d="M 8.5605469 0.083984375 C 6.6725469 0.084984375 5.0677812 1.2491094 4.3007812 2.9121094 L 4.2460938 3.0253906 L 4.125 3.0351562 C 2.38 3.1621562 1 4.6718125 1 6.5078125 C 1 6.5913224 1.0178504 6.6698548 1.0234375 6.7519531 C 1.1463589 5.0351742 2.4630542 3.6561116 4.125 3.5351562 L 4.2460938 3.5253906 L 4.3007812 3.4121094 C 5.0677812 1.7491094 6.6725469 0.58498438 8.5605469 0.58398438 L 8.5625 0.58398438 C 11.1155 0.58598437 13.172016 2.6945 13.291016 5.3125 L 13.300781 5.4414062 L 13.421875 5.4921875 C 14.264113 5.8500247 14.874896 6.6407388 14.978516 7.5996094 C 14.984331 7.5275148 15 7.4583082 15 7.3847656 C 15 6.2977656 14.346875 5.3851875 13.421875 4.9921875 L 13.300781 4.9414062 L 13.291016 4.8125 C 13.172016 2.1945 11.1155 0.085984375 8.5625 0.083984375 L 8.5605469 0.083984375 z "
       id="path821" />
    <path
       style="fill:#ffffff;fill-opacity:1;opacity:0.3"
       d="M 6.6699219 9 L 6.4101562 12.5 L 6.4472656 12.5 L 6.6699219 9.5 L 8.7421875 9.5 L 8.8242188 9 L 6.6699219 9 z M 8.5820312 11 L 8.5 11.5 L 10.132812 11.5 L 10.410156 11 L 8.5820312 11 z M 7.96875 13 L 7.6425781 16 L 7.7109375 15.876953 L 8.0234375 13 L 7.96875 13 z "
       id="path831" />
    <path
       style="fill:#000000;fill-opacity:1;opacity:0.2"
       d="M 8.7421875 9 L 8.5 10.5 L 8.5820312 10.5 L 8.8242188 9 L 8.7421875 9 z M 10.132812 11 L 7.7109375 15.376953 L 7.6425781 16 L 10.410156 11 L 10.132812 11 z M 6.4472656 12 L 6.4101562 12.5 L 7.96875 12.5 L 8.0234375 12 L 6.4472656 12 z "
       id="path836" />
  </g>
</svg>
