<svg height="16" width="16" xmlns="http://www.w3.org/2000/svg" xmlns:xlink="http://www.w3.org/1999/xlink"><linearGradient id="a" gradientUnits="userSpaceOnUse" x1="14.001" x2="32" y1="30.743999" y2="30.743999"><stop offset="0" stop-color="#c8c8c8"/><stop offset="1" stop-color="#cdcdcd"/></linearGradient><linearGradient id="b" gradientUnits="userSpaceOnUse" x1="28.664" x2="50" y1="36.446999" y2="36.446999"><stop offset="0" stop-color="#d9d9d9"/><stop offset="1" stop-color="#e2e2e2"/></linearGradient><g stroke-width=".128281"><path d="m15.499999 3.4656775c-.0115-.21051-.02757-.40237-.05514-.56616-.02992-.1778-.0711-.32974-.127034-.45955-.02797-.0649-.05962-.12422-.09547-.1785-.03585-.0543-.07583-.10354-.120486-.14812-.04465-.0446-.09401-.0846-.148381-.12036-.05438-.0358-.113745-.0674-.178765-.0953-.130042-.0558-.282322-.0968-.460467-.12664-.178145-.0299-.382176-.0487-.615789-.06s-.496797-.0151-.793244-.0151h-4.895273-4.895404c-.296446 0-.559631.004-.793244.0151-.233613.0113-.437644.0301-.615789.06s-.330425.0708-.460466.12664c-.06502.0279-.124389.0596-.178765.0953-.05438.0358-.10373.0758-.148381.12036-.04465.0446-.08464.0938-.120487.14812-.03585.0543-.06751.1136-.09547.1785-.05593.12981-.09711.28175-.127034.45955-.02992.17781-.04857.38146-.05985.61461s-.01506.49583-.01506.79167v6.5816905c0 .29584.0038.55875.01506.7922.01128.23344.02993.43753.05985.61579.02992.17825.0711.3307.127034.46099.02797.0651.05962.12466.09547.17915.03585.0545.07583.10389.120487.14865.04465.0448.094.085.148381.12088.05438.0359.113744.0676.178765.0956.130041.056.282322.0969.460466.12651.178144.0296.382178.0479.615789.0584s.496801.0131.793244.0117h4.895404 4.895273c.296443.001.559633-.001.793244-.0117.233611-.0105.437645-.0288.615789-.0584s.330425-.0705.460467-.12651c.06502-.028.124388-.0597.178765-.0956.05438-.0359.103729-.0761.148381-.12088.04465-.0448.08464-.0941.120486-.14865.03585-.0545.06751-.11401.09547-.17915.05593-.13029.09711-.28274.127034-.46099.02757-.16424.04364-.3565.05514-.56734z" fill="#eaeaea"/><path d="m1.811988 1.7606675c-.03237.005-.07567.005-.106473.0103-.178145.0299-.330425.0708-.460466.12664-.06502.0279-.124389.0596-.178765.0953-.05438.0358-.10373.0758-.148381.12036-.04465.0446-.08464.0938-.120487.14812-.03585.0543-.06751.1136-.09547.1785-.05593.12981-.09711.28175-.127034.45955-.02992.17781-.04857.38146-.05985.61461s-.01506.49583-.01506.79167v6.5816905c0 .29584.0038.55875.01506.7922.01128.23344.02993.43753.05985.61579.02992.17825.0711.3307.127034.46099.02797.0651.05962.12466.09547.17915.03585.0545.07583.10389.120487.14865.04465.0448.094.085.148381.12088.05438.0359.113744.0676.178765.0956.130041.056.282322.0969.460466.12651.178144.0296.382178.0479.615789.0584.01068.00048.02547.00008.03628.00052v-10.8327905c0-.39662-.224213-.73611-.545593-.89264z" fill="#d54c3f"/><path d="m15.499999 3.4656775c-.0115-.21051-.02757-.40237-.05514-.56616-.02992-.1778-.0711-.32974-.127034-.45955-.02797-.0649-.05962-.12422-.09547-.1785-.03585-.0543-.07583-.10354-.120486-.14812-.04465-.0446-.09401-.0846-.148381-.12036-.05438-.0358-.113745-.0674-.178765-.0953-.130042-.0558-.282322-.0968-.460467-.12664-.04065-.007-.09713-.008-.140523-.0136-.324587.15519-.551224.49685-.551224.89592v10.8335405c.02292-.00087.05359-.00018.07596-.001.233611-.0105.437645-.0288.615789-.0584s.330425-.0705.460467-.12651c.06502-.028.124388-.0597.178765-.0956.05438-.0359.103729-.0761.148381-.12088.04465-.0448.08464-.0941.120486-.14865.03585-.0545.06751-.11401.09547-.17915.05593-.13029.09711-.28274.127034-.46099.02757-.16424.04364-.3565.05514-.56734z" fill="#b63524"/><g fill="#de5145"><path d="m.879792 3.4605675-.02357-.0181.02501.0194c-.000522-.00039-.00092-.00093-.0014-.001z"/><path d="m1.797582 1.7621075c-.0278.004-.06543.004-.09207.009-.178145.0299-.330425.0708-.460466.12664-.06502.0279-.124389.0596-.178765.0953-.05438.0358-.10373.0758-.148381.12036-.04465.0446-.08464.0938-.120487.14812-.03585.0543-.06751.1136-.09547.1785-.05593.12981-.09711.28175-.127034.45955-.0068.0403-.0079.0964-.01362.13948.06916.16924.176739.31679.318502.42157l7.110254 5.43785 7.108813-5.43654c.165931-.12212.28779-.30141.351243-.50814-.0025-.0161-.0026-.0385-.0052-.0542-.02992-.1778-.0711-.32974-.127034-.45955-.02797-.0649-.05962-.12422-.09547-.1785-.03585-.0543-.07583-.10354-.120486-.14812-.04465-.0446-.09401-.0846-.148381-.12036-.05438-.0358-.113745-.0674-.178765-.0953-.130042-.0558-.282322-.0968-.460467-.12664-.03629-.006-.08699-.007-.125463-.0122-.05664.0261-.115082.0491-.165144.0859l-6.032951 4.61384-.000654.00026-.000655-.00026-6.03295-4.61384c-.04816-.0354-.104595-.0571-.158859-.0826z"/><path d="m15.124217 3.442606-7.134203 5.455795"/></g><path d="m14.188795 1.7588275c-.150373-.0203-.304308-.0388-.490326-.0478-.233613-.0113-.496797-.0151-.793244-.0151h-4.895273-4.895404c-.296446 0-.559631.004-.793244.0151-.198688.01-.365555.0284-.523722.0511.05426.0255.110703.0473.158859.0826l6.03295 4.61384.000655.00026.000654-.00026 6.032951-4.61384c.05006-.0368.108507-.0598.165144-.0859z" fill="#efefef"/><path d="m2.357861 5.0159575-1.582097-1.64605-.000603.001c.03317.0329.06853.0631.106078.0907l-.02503-.0194 1.501991 1.14875-.000268.4365" fill="#c64132"/></g><g transform="matrix(.31291469 0 0 .32868565 -2.023257 -2.934283)"><path d="m28.67 38.59-14.67 11.41v-25.94l14.66 14.53" fill="#e3e3e3"/><path d="m28.67 38.59 3.33-2.59-18-13.1v1.16l14.66 14.53z" fill="url(#a)"/><path d="m40.06 50h9.94v-27.11l-18 13.11-3.34 2.59z" fill="url(#b)"/></g><path d="m3.1152344 1.6972656c-.296446 0-.5593548.0025699-.7929688.0136719-.198688.01-.3672236.0300344-.5253906.0527344-.0278.004-.0651569.0028125-.0917969.0078125-.178145.0299-.3289434.071113-.4589843.1269531-.0650201.0279-.1253116.0600031-.1796876.0957031-.05438.0358-.10378645.0745811-.14843745.1191406-.04465.0446-.08524675.094118-.12109375.1484376-.03585.0543-.06774312.1147875-.09570312.1796874-.05593001.12981-.09702913.2811844-.12695313.4589844-.0068.0403-.00795188.0955921-.01367187.1386719.01987113.0486263.04984496.0901846.07617187.1347656.02119336-.0774405.03612592-.1666762.06445313-.2324219.02796-.0648999.05985312-.1253874.09570312-.1796874.035847-.0543196.07644375-.1038376.12109375-.1484376.044651-.0445596.09405745-.0833406.14843745-.1191406.054376-.0357.1146675-.0678031.1796876-.0957031.1300409-.0558401.2808393-.0970531.4589843-.1269531.02664-.005.0639969-.0038125.0917969-.0078125.158167-.0227.3267026-.0427344.5253906-.0527344.233614-.011102.4965228-.0136719.7929688-.0136719h4.8945312 4.8964844c.296447 0 .559356.0023719.792969.0136719.186018.009.339861.0285281.490234.0488281.03847.005199.08871.0057188.125.0117188.178145.0298401.330897.0711531.460938.1269531.065021.0279.123354.0599031.177734.0957031.054367.0357597.103787.0764938.148437.1210938.044655.04458.085244.0921843.121094.1464844.03585.0542799.067733.1147874.095703.1796874.022374.051924.032921.1244581.050782.1835938.028985-.055959.063101-.1082483.082031-.1699219-.0025-.0161-.00326-.0389885-.00586-.0546875-.02992-.1778-.07102-.3291743-.126953-.4589844-.02797-.0649-.059853-.1254075-.095703-.1796874-.03585-.0543001-.076439-.1019044-.121094-.1464844-.04465-.0446-.09407-.0853341-.148437-.1210938-.05438-.0358-.112713-.0678031-.177734-.0957031-.130041-.0558-.282793-.097113-.460938-.1269531-.03629-.006-.08653-.0065198-.125-.0117188-.150373-.0203-.304216-.0398281-.490234-.0488281-.233613-.0113-.496522-.0136719-.792969-.0136719h-4.8964844z" fill="#fff" opacity=".3" stroke-width=".128281"/><path d="m12.896483 13.465753c.296446 0 .559355-.0026.792969-.01367.198688-.01.367223-.03003.52539-.05273.0278-.004.06516-.0028.0918-.0078.178145-.0299.328944-.07111.458985-.126953.06502-.0279.125311-.06.179687-.0957.05438-.0358.103787-.07458.148438-.119141.04465-.0446.08525-.09412.121094-.148438.03585-.0543.06774-.114787.0957-.179687.05593-.12981.09703-.281184.126953-.458984.0068-.0403.0079-.09559.01367-.138672-.01987-.04863-.04985-.09018-.07617-.134766-.02119.07744-.03613.166673-.06445.232419-.02796.0649-.05985.125388-.0957.179688-.03585.05432-.07644.103837-.121093.148437-.04465.04456-.09406.08334-.148438.119141-.05438.0357-.114667.0678-.179687.0957-.130041.05584-.28084.09705-.458985.126953-.02664.005-.064.0038-.0918.0078-.158167.0227-.326702.04274-.52539.05274-.233614.0111-.496523.01367-.792969.01367h-4.8945352-4.8964844c-.296447 0-.559356-.0024-.792969-.01367-.186018-.009-.339861-.02853-.490234-.04883-.03847-.0052-.08871-.0057-.125-.01172-.178145-.02984-.330897-.07115-.460938-.126953-.065021-.0279-.123354-.0599-.177734-.0957-.054367-.03576-.103787-.07649-.148437-.121094-.044655-.04458-.085244-.09218-.121094-.146485-.03585-.05428-.067733-.114787-.095703-.179687-.022374-.05192-.032921-.124458-.050782-.183594-.028985.05596-.063101.108249-.082031.169922.0025.0161.00326.03899.00586.05469.02992.1778.07102.329174.126953.458985.02797.0649.059853.125407.095703.179687.03585.0543.076439.101904.121094.146484.04465.0446.09407.08533.148437.121094.05438.0358.112713.0678.177734.0957.130041.0558.282793.09711.460938.126953.03629.006.08653.0065.125.01172.150373.0203.304216.03983.490234.04883.233613.0113.496522.01367.792969.01367h4.8964844z" opacity=".2" stroke-width=".128281"/></svg>