<svg enable-background="new" height="16" viewBox="0 0 16 16" width="16" xmlns="http://www.w3.org/2000/svg"><g fill="#eede85" transform="translate(0 .5)"><path d="m15.500014 4.8542208c0-3.04166-.30899-3.36894-3.32331-3.35403h-4.1766896-4.17669c-3.01431996-.0149-3.32330996.31237-3.32330996 3.35403v6.2914592c0 3.04167.30895 3.35404 3.32330996 3.35404h4.17669 4.1766896c3.01435 0 3.32331-.31238 3.32331-3.35404z" fill="#eede85"/><path d="m3.8242188 1.5c-3.01432001-.0149-3.3242188.3118556-3.3242188 3.3535156v.5019532c0-3.0416601.30989879-3.3703688 3.3242188-3.3554688h4.1757812 4.175781c3.01432-.01491 3.324219.3138088 3.324219 3.3554688v-.5019532c0-3.04166-.309899-3.3684256-3.324219-3.3535156h-4.175781z" fill="#fff" opacity=".3"/><path d="m12.175781 14.499534c3.01432.0149 3.324219-.311855 3.324219-3.353515v-.501954c0 3.041661-.309899 3.370369-3.324219 3.355469h-4.1757812-4.175781c-3.01432003.01491-3.32421903-.313809-3.32421903-3.355469v.501954c0 3.04166.309899 3.368425 3.32421903 3.353515h4.175781z" fill="#000" opacity=".2"/></g><g enable-background="new" transform="matrix(.07083900392 0 0 .07083900392 -1.23037823238 -.81889471906)"><g enable-background="new" transform="matrix(.67351412 .11218456 -.11221943 .67330488 -502.38434 -212.16267)"><path d="m1011.7255 253.30081-63.48295 10.07464c-17.65345 3.75907-17.59323 4.92872-17.6529 19.84303v29.20444 14.69524 77.11225c-.73626-.51571-1.45994-1.03266-2.22115-1.54278v.004c-5.60862-3.75854-11.58527-6.43472-19.61434-6.43474-10.05696 0-16.05738 3.85117-19.688 8.92336-3.63058 5.07219-4.83379 11.46643-4.83379 16.4086 0 5.95959 2.03612 12.32136 6.45024 17.16835 4.41413 4.84699 11.19785 8.24098 20.95556 8.24114 11.01866 0 18.77188-3.07717 23.15344-9.08618 3.44982-4.73113 5.35856-11.05416 6.03934-18.8507v-.0119-.008c.0953-.94586.16465-1.91792.22485-2.9189.0924-1.54112.0698-4.42291.0698-4.42291v-92.65992c0-13.23678-.001-14.02567 17.65679-17.04431l49.32271-8.15585c1.3714-.17943 2.4534-.28859 3.6205-.41864z" fill="#5d5d5d" stroke-width="1.322326"/><g stroke-width=".881016" transform="matrix(1.5009098 0 0 1.5009098 804.81269 156.28241)"><path d="m137.85742 64.640625-42.29492 6.710937c-11.761833 2.504528-11.721963 3.283857-11.761719 13.220704v2c.039756-9.936847-.000114-10.716176 11.761719-13.220704l42.29492-6.710937zm-68.605467 95.246095c-6.700576 0-10.698241 2.5659-13.117187 5.94531-2.41892 3.37941-3.220704 7.63886-3.220704 10.93164 0 .2753.02204.55458.03516.83203.171742-3.09092 1.043097-6.77051 3.185547-9.76367 2.418946-3.37941 6.416611-5.94531 13.117187-5.94531 5.349469.00001 9.331546 1.78293 13.068359 4.28711v-.004c.507166.33988.989927.6857 1.480469 1.0293v-2c-.490542-.3436-.973303-.68942-1.480469-1.0293v.004c-3.736813-2.50418-7.71889-4.2871-13.068359-4.28711z" fill="#f1f1f1" opacity=".3"/><path d="m137.85742 89.371094c-.77759.08665-1.4984.157796-2.41211.277344l-32.86133 5.435546c-11.76472 2.011207-11.763668 2.536298-11.763668 11.355466v2c0-8.819168-.0011-9.344259 11.763668-11.355466l32.86133-5.435546c.91371-.119548 1.63452-.190697 2.41211-.277344zm-47.037108 79.892576c-.0039.60836-.01609 1.34403-.04687 1.85742-.04011.66692-.0869 1.31513-.150391 1.94532v.006.008c-.453578 5.19454-1.724952 9.40642-4.023438 12.55859-2.919269 4.00358-8.08446 6.05469-15.425781 6.05469-6.501197-.00011-11.019968-2.26087-13.960937-5.49024-2.737055-3.00546-4.087581-6.8832-4.263672-10.60742-.02216.39887-.03516.79162-.03516 1.16797 0 3.97065 1.357866 8.21009 4.298829 11.43945 2.940969 3.22937 7.45974 5.49013 13.960937 5.49024 7.341321 0 12.506512-2.05111 15.425781-6.05469 2.298486-3.15217 3.56986-7.36405 4.023438-12.55859v-.008-.006c.0635-.63019.110281-1.2784.150391-1.94532.06156-1.02679.04687-2.94531.04687-2.94531z" opacity=".2"/></g></g><path d="m160 141.54705v10h55v-10zm-20 20v10h75v-10zm-20 20v10h95v-10z" fill="#fda463"/><path d="m160 141v2h55v-2zm-20 20v2h75v-2zm-20 20v2h95v-2z" fill="#fff" opacity=".3"/><path d="m160 149v2h55v-2zm-20 20v2h75v-2zm-20 20v2h95v-2z" opacity=".2"/></g></svg>