<?xml version="1.0" encoding="UTF-8" standalone="no"?>
<svg
   xmlns:dc="http://purl.org/dc/elements/1.1/"
   xmlns:cc="http://creativecommons.org/ns#"
   xmlns:rdf="http://www.w3.org/1999/02/22-rdf-syntax-ns#"
   xmlns:svg="http://www.w3.org/2000/svg"
   xmlns="http://www.w3.org/2000/svg"
   xmlns:xlink="http://www.w3.org/1999/xlink"
   xmlns:sodipodi="http://sodipodi.sourceforge.net/DTD/sodipodi-0.dtd"
   xmlns:inkscape="http://www.inkscape.org/namespaces/inkscape"
   height="16"
   viewBox="0 0 16 16"
   width="16"
   version="1.1"
   id="svg45"
   sodipodi:docname="krita16.svg"
   inkscape:version="0.92.5 (2060ec1f9f, 2020-04-08)"
   style="enable-background:new">
  <metadata
     id="metadata51">
    <rdf:RDF>
      <cc:Work
         rdf:about="">
        <dc:format>image/svg+xml</dc:format>
        <dc:type
           rdf:resource="http://purl.org/dc/dcmitype/StillImage" />
        <dc:title></dc:title>
      </cc:Work>
    </rdf:RDF>
  </metadata>
  <defs
     id="defs49">
    <linearGradient
       id="linearGradient1664"
       gradientUnits="userSpaceOnUse"
       x1="178.16689"
       x2="-13.92912"
       y1="137.53882"
       y2="128.91682"
       gradientTransform="matrix(0.04542867,0,0,0.04542867,3.9196184,5.0568643)">
      <stop
         offset="0"
         stop-color="#5995e8"
         id="stop23" />
      <stop
         offset="1"
         stop-color="#63a0e6"
         stop-opacity=".01"
         id="stop25" />
    </linearGradient>
    <linearGradient
       inkscape:collect="always"
       xlink:href="#linearGradient900"
       id="linearGradient880"
       gradientUnits="userSpaceOnUse"
       x1="62.612"
       y1="164.32201"
       x2="64.120003"
       y2="248.312" />
    <linearGradient
       id="linearGradient900"
       gradientUnits="userSpaceOnUse"
       x1="62.612"
       x2="64.120003"
       y1="164.32201"
       y2="248.312">
      <stop
         offset="0"
         stop-color="#ff10ff"
         stop-opacity=".988235"
         id="stop8-3" />
      <stop
         offset="1"
         stop-color="#ff0bff"
         stop-opacity=".009524"
         id="stop10" />
    </linearGradient>
    <linearGradient
       id="linearGradient2430"
       gradientUnits="userSpaceOnUse"
       x1="-246.84694"
       x2="-278.93494"
       y1="71.92395"
       y2="115.02795">
      <stop
         offset="0"
         stop-color="#fff755"
         stop-opacity="0"
         id="stop13" />
      <stop
         offset="1"
         stop-color="#fffa3b"
         stop-opacity=".992157"
         id="stop15" />
    </linearGradient>
    <linearGradient
       id="linearGradient2440"
       gradientUnits="userSpaceOnUse"
       x1="61.344002"
       x2="26.404003"
       y1="242.29001"
       y2="278.42102">
      <stop
         offset="0"
         stop-color="#2ffffe"
         stop-opacity="0"
         id="stop18" />
      <stop
         offset="1"
         stop-color="#14ffff"
         stop-opacity=".886275"
         id="stop20" />
    </linearGradient>
    <linearGradient
       inkscape:collect="always"
       xlink:href="#linearGradient900"
       id="linearGradient1010"
       gradientUnits="userSpaceOnUse"
       x1="62.612"
       y1="164.32201"
       x2="64.120003"
       y2="248.312" />
  </defs>
  <sodipodi:namedview
     pagecolor="#ffffff"
     bordercolor="#666666"
     borderopacity="1"
     objecttolerance="10"
     gridtolerance="10"
     guidetolerance="10"
     inkscape:pageopacity="0"
     inkscape:pageshadow="2"
     inkscape:window-width="1920"
     inkscape:window-height="1016"
     id="namedview47"
     showgrid="false"
     inkscape:zoom="56.066667"
     inkscape:cx="9.0000057"
     inkscape:cy="6.3962602"
     inkscape:window-x="0"
     inkscape:window-y="27"
     inkscape:window-maximized="1"
     inkscape:current-layer="svg45" />
  <linearGradient
     id="a"
     gradientTransform="matrix(0.23913043,0,0,0.23913032,1.04348,0.793478)"
     gradientUnits="userSpaceOnUse"
     x1="96"
     x2="96"
     y1="4.0000062"
     y2="188">
    <stop
       offset="0"
       stop-color="#fff"
       id="stop2" />
    <stop
       offset=".125"
       stop-color="#fff"
       stop-opacity=".098039"
       id="stop4" />
    <stop
       offset=".92500001"
       stop-color="#fff"
       stop-opacity=".098039"
       id="stop6" />
    <stop
       offset="1"
       stop-color="#fff"
       stop-opacity=".498039"
       id="stop8" />
  </linearGradient>
  <clipPath
     id="b">
    <path
       d="M 351.93164,62.5 C 365.55326,62.5 367.5,64.44187 367.5,78.05078 V 89.94922 C 367.5,103.55808 365.55326,105.5 351.93164,105.5 H 336.06836 C 322.44674,105.5 320.5,103.55808 320.5,89.94922 V 78.05078 C 320.5,64.44187 322.44674,62.5 336.06836,62.5 Z"
       id="path11"
       inkscape:connector-curvature="0" />
  </clipPath>
  <linearGradient
     id="c"
     gradientTransform="matrix(0.94488193,0,0,0.94488229,0.50001,-233.37995)"
     gradientUnits="userSpaceOnUse"
     x1="13.735326"
     x2="38.099998"
     y1="249.69423"
     y2="292.76666">
    <stop
       offset="0"
       stop-color="#325fd1"
       id="stop14" />
    <stop
       offset="1"
       stop-color="#6e98ff"
       id="stop16" />
  </linearGradient>
  <circle
     cx="7.9932618"
     cy="8"
     r="7.4999995"
     id="circle34"
     style="fill:#ffffff;stroke-width:0.06696428" />
  <g
     transform="matrix(0.13888889,0,0,0.13888889,-0.89562778,-24.63889)"
     id="g44"
     style="enable-background:new">
    <circle
       cx="64"
       cy="235"
       r="0"
       id="circle36"
       style="fill:url(#linearGradient1010)" />
    <circle
       cx="-235"
       cy="64"
       r="54"
       transform="rotate(-90)"
       id="circle38"
       style="fill:url(#linearGradient2430)" />
    <circle
       cx="64"
       cy="235"
       r="54"
       id="circle40"
       style="fill:url(#linearGradient2440)" />
    <circle
       cx="64"
       cy="235"
       r="54"
       id="circle42"
       style="fill:url(#linearGradient880)" />
  </g>
  <path
     style="fill:#ffffff;stroke-width:0.06696428;fill-opacity:1;opacity:0.3"
     d="M 8 0.5 A 7.5 7.5 0 0 0 0.5 8 A 7.5 7.5 0 0 0 0.50976562 8.2871094 A 7.5 7.5 0 0 1 8 1 A 7.5 7.5 0 0 1 15.490234 8.2128906 A 7.5 7.5 0 0 0 15.5 8 A 7.5 7.5 0 0 0 8 0.5 z "
     id="circle925" />
  <path
     d="m 2.8951076,9.0200515 c 0.7842966,1.6475185 3.0036746,2.5652265 4.37421,2.6114665 0.6751065,-0.002 1.3981476,-0.17574 2.0021259,-0.435242 0.6039782,-0.259502 1.2136645,-1.022012 1.8497905,-0.914017 0.636126,0.108001 0.759873,0.92637 0.892252,1.436312 0.132379,0.509934 -0.03516,0.895266 -0.152336,1.175161 -0.117176,0.279888 -0.110043,0.28982 -0.39172,0.500532 -0.281677,0.21071 -0.947012,0.421151 -1.371021,0.54405 C 7.3773245,14.62141 4.5590157,13.164177 3.265065,10.804554 2.9732079,10.26135 2.744035,9.6073233 2.699247,9.259439 2.6544584,8.9115547 2.6259799,8.8332332 2.7427728,8.802427 2.8595651,8.7716277 2.9059901,8.9329989 2.8951092,9.0200515 Z"
     id="path50"
     style="fill:url(#linearGradient1664);stroke-width:0.04542868"
     inkscape:connector-curvature="0" />
  <path
     d="m 9.4016104,7.985428 c 0.087049,0.043554 1.6974556,1.6539363 1.6974556,1.6539363 l 0.152335,0.1958545 c 0,0 -0.652868,0.9575442 -0.761678,0.8704922 C 10.380911,10.618665 8.3352614,9.1605892 8.3352614,9.1605892 8.0390062,8.5688533 8.8447098,7.7157498 9.4016104,7.985428 Z"
     id="path52"
     inkscape:connector-curvature="0"
     style="opacity:0.2;stroke-width:0.04542868" />
  <path
     d="m 0.5835987,1.276864 c 0.9757361,0.5798095 2.7502291,1.686547 2.7502291,1.686547 0,0 1.8248094,1.103678 2.4002893,1.4658291 0.5754799,0.3621511 0.6552309,0.3937986 1.1373736,0.6853756 0.4821427,0.2915702 1.0660633,0.7538127 1.0660633,0.7538127 0,0 0.5915173,0.5210123 0.7727272,0.7361403 0.1812105,0.2151279 0.3372917,0.4186416 0.4515461,0.639692 0.114255,0.2210503 0.2596799,0.6594945 0.2596799,0.6594945 L 8.6772179,9.18974 c 0,0 -0.2673085,0.075092 -0.6031044,0.028968 C 7.7383169,9.1725764 7.2487064,8.9354344 6.9063808,8.7515741 6.5640553,8.5677204 6.4009174,8.4637418 6.0233428,8.1462906 5.6457683,7.8288325 5.2774627,7.4305837 4.6747707,6.8153887 4.3964605,6.5313081 3.9091368,5.9731939 3.4365392,5.469033 2.8857042,4.8814151 2.3644137,4.362309 2.3644137,4.362309 c 0,0 -1.52133386,-1.5655609 -2.27207679,-2.4215477 C -0.18139542,1.5247316 0.20457641,1.1393995 0.5835987,1.2768436 Z"
     id="path56"
     inkscape:connector-curvature="0"
     style="fill:#494949;stroke-width:0.04542868" />
  <path
     d="m 9.4215072,7.9037552 c 0.087049,0.043554 1.6974558,1.6539295 1.6974558,1.6539295 l 0.152335,0.1958613 c 0,0 -0.652868,0.957538 -0.761679,0.870492 C 10.400809,10.536985 8.3551576,9.0789164 8.3551576,9.0789164 8.0589024,8.4871806 8.8646067,7.6340771 9.4215072,7.9037552 Z"
     id="path58"
     inkscape:connector-curvature="0"
     style="fill:#bfbebf;stroke-width:0.04542868" />
  <path
     d="m 11.340506,13.323079 c 0.178424,-0.349743 0.109905,-0.734661 -0.214367,-1.204238 -0.604209,-0.874948 -0.725977,-1.118609 -0.747346,-1.495428 -0.02107,-0.371445 0.271077,-0.8329144 0.649514,-1.025974 0.753502,-0.3844094 1.718784,0.520782 1.718784,1.611787 0,0.809666 -0.433074,1.548426 -1.276291,2.177154 -0.22023,0.164214 -0.241172,0.154038 -0.130294,-0.06329 z"
     id="path60"
     inkscape:connector-curvature="0"
     style="stroke-width:0.04542868" />
  <path
     id="path933"
     d="m 8.000019,15.5 a 7.5,7.5 0 0 0 7.5,-7.4999997 7.5,7.5 0 0 0 -0.0098,-0.28711 A 7.5,7.5 0 0 1 7.999985,15 7.5,7.5 0 0 1 0.509751,7.7871093 7.5,7.5 0 0 0 0.499981,8.0000003 7.5,7.5 0 0 0 7.999981,15.5 Z"
     style="opacity:0.2;fill:#000000;fill-opacity:1;stroke-width:0.06696428"
     inkscape:connector-curvature="0" />
</svg>
