<?xml version="1.0" encoding="UTF-8" standalone="no"?>
<svg
   xmlns:dc="http://purl.org/dc/elements/1.1/"
   xmlns:cc="http://creativecommons.org/ns#"
   xmlns:rdf="http://www.w3.org/1999/02/22-rdf-syntax-ns#"
   xmlns:svg="http://www.w3.org/2000/svg"
   xmlns="http://www.w3.org/2000/svg"
   xmlns:xlink="http://www.w3.org/1999/xlink"
   xmlns:sodipodi="http://sodipodi.sourceforge.net/DTD/sodipodi-0.dtd"
   xmlns:inkscape="http://www.inkscape.org/namespaces/inkscape"
   height="16"
   width="16"
   version="1.1"
   id="svg26"
   sodipodi:docname="update-notifier.svg"
   inkscape:version="0.92.4 (5da689c313, 2019-01-14)">
  <metadata
     id="metadata32">
    <rdf:RDF>
      <cc:Work
         rdf:about="">
        <dc:format>image/svg+xml</dc:format>
        <dc:type
           rdf:resource="http://purl.org/dc/dcmitype/StillImage" />
        <dc:title />
      </cc:Work>
    </rdf:RDF>
  </metadata>
  <defs
     id="defs30">
    <linearGradient
       inkscape:collect="always"
       id="linearGradient4338">
      <stop
         style="stop-color:#ea9d60;stop-opacity:1"
         offset="0"
         id="stop4340" />
      <stop
         style="stop-color:#efbe94;stop-opacity:1"
         offset="1"
         id="stop4342" />
    </linearGradient>
    <linearGradient
       inkscape:collect="always"
       id="linearGradient4235">
      <stop
         style="stop-color:#f1e2a7;stop-opacity:1;"
         offset="0"
         id="stop4237" />
      <stop
         style="stop-color:#f9f1d2;stop-opacity:1"
         offset="1"
         id="stop4239" />
    </linearGradient>
    <clipPath
       clipPathUnits="userSpaceOnUse"
       id="clipPath994-35">
      <path
         style="color:#000000;display:inline;overflow:visible;visibility:visible;fill:#cdcdcd;fill-opacity:1;fill-rule:nonzero;stroke:none;stroke-width:2;stroke-miterlimit:4;stroke-dasharray:none;stroke-opacity:1;marker:none;enable-background:accumulate"
         d="m 335.73108,62 c -8.82418,0 -9.77365,0.90635 -9.7304,9.74838 V 84 96.25162 c -0.0433,8.84203 0.90622,9.74838 9.7304,9.74838 h 16.53919 c 8.82418,0 9.7304,-0.90625 9.7304,-9.74838 V 84 71.74838 C 362.00067,62.90625 361.09445,62 352.27027,62 Z"
         id="path996-62"
         inkscape:connector-curvature="0"
         sodipodi:nodetypes="scccssscsss" />
    </clipPath>
    <linearGradient
       inkscape:collect="always"
       xlink:href="#linearGradient4338"
       id="linearGradient914"
       x1="3.4249663"
       y1="-0.039356742"
       x2="15.236499"
       y2="15.982741"
       gradientUnits="userSpaceOnUse" />
    <linearGradient
       inkscape:collect="always"
       xlink:href="#linearGradient4235"
       id="linearGradient922"
       x1="7.0004997"
       y1="8"
       x2="9.0004997"
       y2="8"
       gradientUnits="userSpaceOnUse" />
  </defs>
  <sodipodi:namedview
     pagecolor="#ffffff"
     bordercolor="#666666"
     borderopacity="1"
     objecttolerance="10"
     gridtolerance="10"
     guidetolerance="10"
     inkscape:pageopacity="0"
     inkscape:pageshadow="2"
     inkscape:window-width="1920"
     inkscape:window-height="1016"
     id="namedview28"
     showgrid="false"
     inkscape:zoom="17.663105"
     inkscape:cx="-26.358811"
     inkscape:cy="15.168626"
     inkscape:window-x="0"
     inkscape:window-y="27"
     inkscape:window-maximized="1"
     inkscape:current-layer="svg26" />
  <linearGradient
     id="a"
     gradientTransform="matrix(0.09375,0,0,0.125,-16.9995,-8)"
     gradientUnits="userSpaceOnUse"
     x1="256"
     x2="256"
     y1="24.000002"
     y2="664"
     xlink:href="#b">
    <stop
       offset="0"
       stop-color="#f29cbb"
       id="stop2" />
    <stop
       offset="1"
       stop-color="#fac4d7"
       id="stop4" />
  </linearGradient>
  <linearGradient
     id="b"
     gradientTransform="matrix(0,-0.03604403,-0.03604301,0,19.56482,16.90909)"
     gradientUnits="userSpaceOnUse"
     x1="459.03448"
     x2="35.310345"
     y1="419.23337"
     y2="207.36522"
     spreadMethod="pad">
    <stop
       offset="0"
       stop-color="#f8367b"
       id="stop7" />
    <stop
       offset="1"
       stop-color="#f29cbb"
       id="stop9" />
  </linearGradient>
  <path
     d="m10.90435.5000003c.71048 0 1.27344.0154 1.75195.0957s.89671.23728 1.20703.54688c.31032.30959.46726.7261.54688 1.20508.0796.47897.0933 1.04352.0898 1.75586v3.8964797 3.89844c.003.71121-.0103 1.27546-.0898 1.7539-.0796.47898-.23655.89549-.54688 1.20508-.31033.3096-.72851.46655-1.20703.54688-.47852.0803-1.04147.0957-1.75195.0957h-5.8086002c-.71048 0-1.27236-.0153-1.75-.0957-.47763-.0804-.89584-.23713-1.20508-.54688-.30921-.30975-.46469-.72681-.54492-1.20508-.0802-.47826-.0957-1.04201-.0957-1.7539v-3.89844-3.8984397c0-.71189.0155-1.27564.0957-1.7539.0802-.47827.2357-.89533.54492-1.20508.30924-.30975.72745-.4665 1.20508-.54688.47764-.0804 1.03952-.0957 1.75-.0957z"
     fill="url(#b)"
     id="path12"
     style="fill-opacity:1;fill:url(#linearGradient914)" />
  <path
     d="m7.0004998 1.0000003h2.0000003v13.9999997h-2.0000003z"
     fill="url(#a)"
     opacity=".6"
     id="path14"
     style="fill-opacity:1.0;fill:url(#linearGradient922)" />
  <path
     d="m9.0005001 10v.5h4.9999999v-.5zm0 2v.5h2.9999999v-.5z"
     fill="#f71364"
     id="path16"
     style="fill:#e49e68;fill-opacity:1" />
  <path
     d="m2.0004998 10h4v3h-4z"
     fill="#f9f9f9"
     id="path18" />
  <path
     d="m2.5004998 11v1h.5v-1zm1 0v1h.5v-1zm1 0v1h1v-1z"
     fill="#5d5d5d"
     id="path20" />
  <path
     d="m5.0957031.5c-.71048 0-1.27236.01530312-1.75.09570312-.47763.08038-.8958381.23712501-1.2050781.54687498-.30922.30975-.4647219.7268082-.5449219 1.2050781-.0802.4782601-.0957031 1.0420163-.0957031 1.7539063v.5c0-.71189.0155031-1.2756462.0957031-1.7539063.0802-.47827.2357019-.8953281.5449219-1.2050781.30924-.30975.7274481-.466495 1.2050781-.546875.47764-.0804 1.03952-.0957031 1.75-.0957031h5.8085939c.71048 0 1.273443.0154031 1.751953.0957031s.896711.237275 1.207031.546875c.31032.30959.467255.7260982.546875 1.2050781.0796.47897.093344 1.0435194.089844 1.7558594v-.5c.0035-.71234-.010244-1.2768894-.089844-1.7558594-.07962-.47898-.236555-.8954881-.546875-1.2050781-.31032-.30959998-.728521-.46657497-1.207031-.54687498-.47851-.0803-1.041473-.09570312-1.751953-.09570312z"
     fill="#fffeff"
     opacity=".3"
     id="path22" />
  <path
     d="m1.5 11.398438v.5c0 .711889.0155031 1.275646.0957031 1.753906.08023.47827.2357119.895328.5449219 1.205078.30924.30975.7274481.466475 1.2050781.546875.47764.0804 1.03952.095703 1.75.095703h5.8085939c.71048 0 1.273433-.015403 1.751953-.095703.47852-.08033.896701-.237275 1.207031-.546875.31033-.30959.467275-.726098.546875-1.205078.0795-.47844.092844-1.042697.089844-1.753906v-.5c.003.711209-.010344 1.275466-.089844 1.753906-.0796.47898-.236545.895488-.546875 1.205078-.31033.3096-.728511.466545-1.207031.546875-.47852.0803-1.041473.095703-1.751953.095703h-5.8085939c-.71048 0-1.27236-.015303-1.75-.095703-.47763-.0804-.8958381-.237125-1.2050781-.546875-.30921-.30975-.4646919-.726808-.5449219-1.205078-.0802-.47826-.0957031-1.042017-.0957031-1.753906z"
     opacity=".2"
     id="path24" />
</svg>
