<svg enable-background="new" height="16" viewBox="0 0 16 16" width="16" xmlns="http://www.w3.org/2000/svg"><circle cx="8" cy="8" fill="#1a7fd4" r="7.5" stroke-width=".066964"/><g enable-background="new" fill="#faf8f6" transform="matrix(.06696428 0 0 .06696428 -2.591916 -67.613672)"><path d="m117.54762 1094.7893c-18.984777 0-34.374987 15.3903-34.374987 34.3749 0 18.9848 15.39021 34.3751 34.374987 34.3751 5.43501 0 10.78982-1.3143 15.62502-3.7963v25.6712a9.3749994 9.3749994 0 0 0 9.375 9.375 9.3749994 9.3749994 0 0 0 9.375-9.375v-56.25-34.3749h-18.75v3.7597c-4.83788-2.4712-10.19254-3.7579-15.62502-3.7597zm0 18.75c8.62945 0 15.62502 6.9956 15.62502 15.6249 0 8.6295-6.99557 15.6251-15.62502 15.6251-8.62944 0-15.62499-6.9956-15.62499-15.6251 0-8.6293 6.99555-15.6249 15.62499-15.6249z" fill="#aee3f8"/><path d="m173.79762 1063.5392a9.3749994 9.3749994 0 0 0 -9.37498 9.375v56.25 34.3751h18.74998v-3.7597c4.83786 2.4709 10.19254 3.7579 15.62502 3.7597 18.98476 0 34.37499-15.3907 34.37499-34.3751s-15.39023-34.3749-34.37499-34.3749c-5.43505 0-10.78982 1.3083-15.62502 3.7903v-25.6654a9.3749994 9.3749994 0 0 0 -9.375-9.375zm25.00002 50.0001c8.62942 0 15.62499 6.996 15.62499 15.6249 0 8.6291-6.99557 15.6251-15.62499 15.6251-8.62949 0-15.62502-6.996-15.62502-15.6251 0-8.6289 6.99553-15.6249 15.62502-15.6249z" fill="#faf8f6"/></g><g stroke-width=".066964"><path d="m8 .5a7.5 7.5 0 0 0 -7.5 7.5 7.5 7.5 0 0 0 .00976562.2871094 7.5 7.5 0 0 1 7.49023438-7.2871094 7.5 7.5 0 0 1 7.490234 7.2128906 7.5 7.5 0 0 0 .009766-.2128906 7.5 7.5 0 0 0 -7.5-7.5z" fill="#fff" opacity=".3"/><path d="m8.000019 15.5a7.5 7.5 0 0 0 7.5-7.4999997 7.5 7.5 0 0 0 -.0098-.28711 7.5 7.5 0 0 1 -7.490234 7.2871097 7.5 7.5 0 0 1 -7.490234-7.2128907 7.5 7.5 0 0 0 -.00977.212891 7.5 7.5 0 0 0 7.5 7.4999997z" opacity=".2"/></g></svg>