<svg height="16.000002" width="16" xmlns="http://www.w3.org/2000/svg" xmlns:xlink="http://www.w3.org/1999/xlink"><linearGradient id="a" gradientTransform="matrix(0 -.03604403 -.03604301 0 18.764321 16.909091)" gradientUnits="userSpaceOnUse" x1="469.12317" x2="25.221653" y1="320.84778" y2="320.84778"><stop offset="0" stop-color="#999"/><stop offset=".61328125" stop-color="#b7b7b7"/><stop offset="1" stop-color="#dbdbdb"/></linearGradient><path d="m4.6992188 12c-.2761309.000028-.4999724.223869-.5.5v3c.0000276.276131.2238691.499972.5.5h7.0000002c.276131-.000028.499972-.223869.5-.5v-3c-.000028-.276131-.223869-.499972-.5-.5z" fill="#808080"/><path d="m10.103851.50000231c.71048 0 1.27344.0154 1.75195.0957s.89671.23728 1.20703.54687999c.31032.30959.46726.7261.54688 1.20508.0796.47897.0933 1.04352.0898 1.75586v1.89648 3.8984403c.003.7112084-.0103 1.2754584-.0898 1.7538984-.0796.47898-.23655.89549-.54688 1.20508-.31033.3096-.72851.46655-1.20703.54688-.47852.0803-1.04147.0957-1.75195.0957h-3.8086009c-.71048 0-1.27236-.0153-1.75-.0957-.47763-.0804-.89584-.23713-1.20508-.54688-.30921-.30975-.46469-.72681-.54492-1.20508-.0802-.47826-.0957-1.04201-.0957-1.7538984v-3.8984403-1.89844c0-.71189.0155-1.27564.0957-1.7539.0802-.47827.2357-.89533.54492-1.20508.30924-.30974999.72745-.46649999 1.20508-.54687999.47764-.0804 1.03952-.0957 1.75-.0957z" fill="url(#a)"/><path d="m6.9143501 4.6428923h.85701v3.8454103c-.2191-.13965-.44529-.26212-.66453-.37165-.32137-.16059-.61836-.31595-.80193-.46882-.18355-.1531803-.24775-.2550403-.24775-.4335003.4734 0 .8572-.38383.8572-.85723s-.38381-.8571-.8572-.8571c-.47341 0-.85715.3837-.85715.8571v.85723c0 .4642403.25714.8443603.55587 1.0932103.29861.2488.6462.41515.96759.57583.32134.16059.6167.31592.80015.46881.18354.15282.24775.25503.24775.4335-.23736 0-.42849.1912096-.42849.4286584v.85702c0 .23753.19113.42864.42849.42864h.8573c.23734 0 .42849-.19111.42849-.42864v-.85702c0-.2374488-.19115-.4286584-.42849-.4286584v-.85702c0-.17874.0635-.28076.24777-.43376.18345-.15282.4804-.30789.80175-.46861.3215-.16059.6673809-.327.9659709-.5759903.29872-.2489.55585-.62882.55585-1.0932v-.42844-.8573c0-.23736-.19113-.42847-.42864-.42847h-.8570109c-.23748 0-.42867.19111-.42867.42847v.8573c0 .23734.19119.42844.42867.42844h.4285209c0 .17867-.0634.28078-.24777.43371-.1835609.15283-.4788009.30789-.8003009.46869-.21941.1107-.44628.23218-.66614.3716103v-2.9882303h.85702l-1.28568-2.57152z" fill="#808080"/><ellipse cx="5.2" cy="5.000002" fill="#5884f4" rx="4.5" ry="4.500001"/><path d="m4.2000101 3.0000123h2v1h.91797c-.3382.75366-.94773 1.81782-1.91798 3.43107-.97044-1.61351-1.57975-2.67839-1.91797-3.43216h.91798z" fill="#fff"/><path d="m.7109375 4.7070312a4.5 4.5000005 0 0 0 -.01171875.2929688 4.5 4.5000005 0 0 0 2.00000005 3.7402344v-.5a4.5 4.5000005 0 0 1 -1.9882813-3.5332032zm1.9882813 4.6914063v.5c0 .7118885.0155031 1.2756465.0957031 1.7539065.08023.47827.2357119.895328.5449219 1.205078.2289629.22934.5310499.356522.859375.449219v-.5c-.3283251-.092697-.6304121-.219879-.859375-.449219-.30921-.30975-.4646919-.726808-.5449219-1.205078-.0802-.47826-.0957031-1.042017-.0957031-1.7539065zm11.0000002 0c.003.7112095-.010344 1.2754665-.089844 1.7539065-.0796.47898-.236545.895488-.546875 1.205078-.230191.22965-.533799.356519-.863281.449219v.5c.329482-.0927.63309-.219569.863281-.449219.31033-.30959.467275-.726098.546875-1.205078.0795-.47844.092844-1.042697.089844-1.7539065zm-9.5000002 5.6015625v.5c.000028.276131.2238689.499972.5.5h7.0000002c.276131-.000028.499972-.223869.5-.5v-.5c-.000028.276131-.223869.499972-.5.5h-7.0000002c-.2761311-.000028-.499972-.223869-.5-.5z" fill-opacity=".4" opacity=".2"/><path d="m5.1992188.5a4.5 4.5000005 0 0 0 -4.50000005 4.5 4.5 4.5000005 0 0 0 .01171875.2070312 4.5 4.5000005 0 0 1 4.4882813-4.2070312 4.5 4.5000005 0 0 1 .2832031.015625c.251691-.009185.512739-.015625.8125-.015625h3.8085941c.71048 0 1.273443.0154031 1.751953.0957031s.896711.237275 1.207031.546875c.31032.30959.467255.7260982.546875 1.2050781.0796.4789701.093344 1.0435194.089844 1.7558594v-.5c.0035-.71234-.010244-1.2768894-.089844-1.7558594-.07962-.4789799-.236555-.8954881-.546875-1.2050781-.31032-.30959995-.728521-.46657498-1.207031-.54687498s-1.041473-.09570312-1.751953-.09570312h-3.8085941c-.299761 0-.560809.006438-.8125.015625a4.5 4.5000005 0 0 0 -.2832031-.015625z" fill="#fff" opacity=".3"/></svg>