<svg height="32" width="32" xmlns="http://www.w3.org/2000/svg" xmlns:xlink="http://www.w3.org/1999/xlink"><linearGradient id="a" gradientUnits="userSpaceOnUse" x1="332" x2="332" y1="189" y2="211"><stop offset="0" stop-color="#fff"/><stop offset=".125" stop-color="#fff" stop-opacity=".098039"/><stop offset=".92500001" stop-color="#fff" stop-opacity=".098039"/><stop offset="1" stop-color="#fff" stop-opacity=".498039"/></linearGradient><clipPath id="b"><path d="m327.8652 189c-4.41209 0-4.88682.45318-4.8652 4.87419v6.12581 6.12581c-.0217 4.42101.45311 4.87419 4.8652 4.87419h8.2696c4.41209 0 4.8652-.45312 4.8652-4.87419v-6.12581-6.12581c0-4.42106-.45312-4.87419-4.86521-4.87419z"/></clipPath><linearGradient id="c" gradientTransform="matrix(.03125 0 0 .03472222 .005642 3.560263)" gradientUnits="userSpaceOnUse" x1="16" x2="16" xlink:href="#d" y1="304" y2="208"/><linearGradient id="d"><stop offset="0" stop-color="#d9d9d9"/><stop offset="1" stop-color="#ececec"/></linearGradient><linearGradient id="e" gradientTransform="matrix(.03125 0 0 .03472222 2.005642 3.560263)" gradientUnits="userSpaceOnUse" x1="16" x2="16" xlink:href="#d" y1="304" y2="208"/><linearGradient id="f" gradientTransform="matrix(0 1 1 0 -187.66173 -319.55015)" gradientUnits="userSpaceOnUse" x1="321.49826" x2="342.50031" y1="199.99998" y2="199.99998"><stop offset="0" stop-color="#2b898f"/><stop offset="1" stop-color="#5bdbc1"/></linearGradient><clipPath id="g"><path d="m327.8652 189c-4.41209 0-4.88682.45318-4.8652 4.87419v6.12581 6.12581c-.0217 4.42101.45311 4.87419 4.8652 4.87419h8.2696c4.41209 0 4.8652-.45312 4.8652-4.87419v-6.12581-6.12581c0-4.42106-.45312-4.87419-4.86521-4.87419z"/></clipPath><clipPath id="h"><path d="m327.8652 189c-4.41209 0-4.88682.45318-4.8652 4.87419v6.12581 6.12581c-.0217 4.42101.45311 4.87419 4.8652 4.87419h8.2696c4.41209 0 4.8652-.45312 4.8652-4.87419v-6.12581-6.12581c0-4.42106-.45312-4.87419-4.86521-4.87419z"/></clipPath><linearGradient id="i" gradientTransform="matrix(0 -.05921519 .05978336 0 2.490629 33.322763)" gradientUnits="userSpaceOnUse" x1="441.37936" x2="52.965523" y1="240.30258" y2="386.30795"><stop offset="0" stop-color="#fee581"/><stop offset="1" stop-color="#fff4c9"/></linearGradient><path d="m7.5846321 1.4491525c-1.28811 0-2.31744.0231-3.20954.14787-.8921.12479-1.70209.37148-2.31114.87784-.6090401.50637-.9093701 1.18534-1.0578701 1.92977-.14847997.74444-.17250997 1.60204-.16619997 2.67847v5.8660505 5.86979c-.006 1.07433.0179 1.93132.16619997 2.67473.14848.74444.44882 1.4234 1.0578701 1.92977.60906.50636 1.41904.75304 2.31114.87784.8921.12479 1.92143.14787 3.20954.14787h9.5095999c1.2881 0 2.31444-.023 3.20505-.14787.89059-.1249 1.70195-.37305 2.30889-.87972.60695-.50666.9038-1.18295 1.05337-1.92602.14958-.74308.17744-1.60101.17744-2.6766v-5.86979-5.8697905c0-1.07559-.0278-1.93352-.17744-2.6766-.14957-.74307-.44642-1.41936-1.05337-1.92602-.60694-.50667-1.41828-.75482-2.30889-.87972-.89062-.1249-1.91694-.14787-3.20505-.14787z" opacity=".1"/><path d="m17.161062 1.9481225c5.14666 0 5.70043.43262 5.67521 4.65309v5.8479305 5.84794c.0253 4.22046-.52855 4.65308-5.67521 4.65308h-9.6463999c-5.14665 0-5.67521-.43256-5.67521-4.65308v-5.84794-5.8479305c0-4.22051.52857-4.65309 5.67522-4.65309z" fill="url(#f)"/><g enable-background="new" stroke-width="10.760672" transform="matrix(.092931 0 0 .092931 -1.786588 -2.047938)"><path d="m105.25195 102.40039c-3.55359 0-6.859884.44363-9.919919 1.33203s-5.825193 1.97457-8.292969 3.25781c-2.46777 1.28324-4.590392 2.66388-6.367187 4.14454-1.776795 1.38195-3.107699 2.56757-3.996094 3.55468l6.808594 9.77149c.69098-.59227 1.679646-1.43176 2.962891-2.51758 1.28324-1.18452 2.862776-2.26875 4.738281-3.25586 1.87551-1.08582 3.998127-2.02282 6.367187-2.8125 2.36906-.78969 4.983096-1.18555 7.845706-1.18555 2.36906 0 4.59113.34613 6.66406 1.03711 2.17164.59226 4.04758 1.57899 5.62695 2.96094s2.81278 3.10871 3.70117 5.18164c.98712 2.07293 1.48047 4.5914 1.48047 7.55274 0 2.7639-.54308 5.37988-1.6289 7.84765-.98711 2.46777-2.36774 4.88485-4.14453 7.25391-1.67809 2.27035-3.65349 4.58992-5.92383 6.95898-.79382.8299-1.62953 1.67434-2.46289 2.51758h17.0664c1.37929-1.62871 2.68265-3.25589 3.9043-4.88477 2.36907-3.25746 4.24499-6.51597 5.62695-9.77343 1.48066-3.35617 2.22266-6.81165 2.22266-10.36524 0-9.0814-2.71543-16.08985-8.14453-21.02539-5.33039-5.03426-13.37528-7.55078-24.13477-7.55078zm88.46094 0c-4.73812 0-9.03114.78977-12.88086 2.36914-3.84972 1.48066-7.15602 3.50383-9.91992 6.07031-2.6652 2.56648-4.73809 5.57637-6.21875 9.03125-1.48066 3.35617-2.2207 6.90915-2.2207 10.66016 0 10.75949 4.8361 18.90383 14.50976 24.43164-.54317.33063-1.07948.67827-1.61133 1.03711h37.00391c-.90352-.51362-1.83287-1.01278-2.81836-1.48047 1.97422-1.28324 3.85016-2.76332 5.62695-4.44141 1.87551-1.67808 3.50477-3.60375 4.88672-5.77539 1.48066-2.17163 2.61462-4.49121 3.4043-6.95898.8884-2.56649 1.33398-5.28191 1.33398-8.14453 0-2.96132-.59281-6.02094-1.77734-9.17969-1.08582-3.15874-2.91204-6.0214-5.47852-8.58789-2.46778-2.66519-5.67656-4.83753-9.625-6.51562-3.94843-1.67808-8.68702-2.51563-14.21484-2.51563zm0 11.40039c3.15875 0 5.82445.54309 7.99609 1.62891 2.17164.98711 3.95009 2.27024 5.33204 3.84961 1.38195 1.48066 2.36867 3.10992 2.96093 4.88672.69098 1.77679 1.03711 3.40605 1.03711 4.88671 0 5.33038-1.23535 9.67313-3.70312 13.0293-2.46777 3.25746-5.77407 6.12012-9.91992 8.58789-3.75102-.8884-7.00759-2.07403-9.77149-3.55469-2.6652-1.48066-4.83753-3.15769-6.51562-5.0332-1.67808-1.87551-2.91149-3.90062-3.70118-6.07226s-1.18554-4.34204-1.18554-6.51368c0-1.77679.29641-3.55328.88867-5.33007.69098-1.87551 1.72741-3.55449 3.10937-5.03516 1.38194-1.57937 3.15845-2.8625 5.33008-3.84961 2.27035-.98711 4.98384-1.48047 8.14258-1.48047z" fill="#ececec"/><path d="m108.7207 156c-1.44476 1.46177-2.94216 2.94123-4.50586 4.44238-2.96132 2.96133-5.972185 6.02094-9.032225 9.17969-3.060035 3.15875-5.82324 6.51477-8.291015 10.06836-2.46777 3.55359-4.49191 7.35423-6.07129 11.40137-1.48066 3.94844-2.2207 8.24243-2.2207 12.88184v1.6289c0 .59227.0497 1.1841.148435 1.77637h62.187495v-11.69727h-47.23339c0-1.67809.64156-3.6525 1.924805-5.92285 1.38195-2.27035 3.05996-4.63868 5.034185-7.10645 1.97421-2.46777 4.04711-4.83707 6.21875-7.10742l5.92285-5.92285c2.96132-2.96133 5.92246-5.97219 8.88379-9.03223 1.43424-1.52986 2.79538-3.06014 4.09082-4.58984zm66.65039 0c-1.69141 1.14114-3.32612 2.42262-4.90332 3.84961-1.97422 1.77679-3.7507 3.80094-5.33008 6.07129-1.48066 2.27035-2.71504 4.73813-3.70215 7.40332-.88839 2.56648-1.33203 5.28094-1.33203 8.14356 0 2.96132.54211 6.11941 1.62793 9.47558 1.08582 3.25746 2.91204 6.26833 5.47852 9.03223s5.97223 5.08348 10.2168 6.95898c4.34327 1.7768 9.72344 2.66504 16.13964 2.66504 5.52781 0 10.41364-.74004 14.65821-2.2207 4.24456-1.38195 7.74879-3.35637 10.51269-5.92285 2.86262-2.6652 4.98524-5.72481 6.36719-9.17969 1.48066-3.55359 2.2207-7.40297 2.2207-11.54883-.18065-10.92947-5.15832-19.17053-14.92675-24.72754zm12.56836 3.40527c3.94843.8884 7.45266 1.97457 10.5127 3.25781 3.15875 1.18453 5.82446 2.66461 7.99609 4.44141 2.27035 1.77679 3.99712 3.85067 5.18165 6.21973s1.77734 5.13227 1.77734 8.29101c0 2.07293-.39488 4.09707-1.18457 6.07129s-1.97434 3.75071-3.55371 5.33008c-1.57938 1.48066-3.65227 2.71406-6.21875 3.70117-2.46777.98711-5.38016 1.48145-8.73633 1.48145-3.75101 0-6.86036-.54309-9.32813-1.62891-2.46777-1.08581-4.49093-2.41867-6.07031-3.99804-1.57937-1.67809-2.71429-3.45458-3.40527-5.33008-.59226-1.97422-.88867-3.85016-.88867-5.62695 0-5.03426 1.18465-9.377 3.55371-13.0293 2.46777-3.6523 5.92227-6.71289 10.36425-9.18067z" fill="#f9f9f9"/></g><path d="m2.3389721 10.449153v4h1v-4z" fill="url(#e)"/><path d="m21.338972 10.449153v4h1v-4z" fill="url(#c)"/><path d="m1.838972 12.449153v5.84766c0 4.22052.5291301 4.65234 5.6757801 4.65234h9.6464899c5.14666 0 5.69912-.43188 5.67382-4.65234v-5.84766z" fill="#fff" opacity=".08"/><path clip-path="url(#b)" d="m327.8652 189c-4.41209 0-4.88682.45318-4.8652 4.87419v6.12581 6.12581c-.0217 4.42101.45311 4.87419 4.8652 4.87419h8.2696c4.41209 0 4.8652-.45312 4.8652-4.87419v-6.12581-6.12581c0-4.42106-.45312-4.87419-4.86521-4.87419z" fill="none" opacity=".7" stroke="url(#a)" stroke-width="1.990926" transform="matrix(1.1051369 0 0 .91313222 -354.56642 -170.1773)"/><path d="m17.321462 22.960893c4.67709 0 5.5533-.42343 5.52872-4.55431v-5.95736-5.9574905c.0245-4.13088-.85163-4.55431-5.52872-4.55431h-9.9654899c-4.67593 0-5.5287301.42338-5.5287301 4.55431v5.9574905 5.95736c0 4.13093.8528001 4.55431 5.5287301 4.55431z" fill="none" opacity=".4" stroke="#000" stroke-width=".976529"/><path d="m17.085959 7.6864131c-1.12014 0-2.01524.0241-2.79101.1542999-.77577.13022-1.48014.38763-2.00977.91601-.52962.52838-.79079 1.23687-.91992 2.01367-.12912.77681-.15002 1.67169-.14453 2.79493v6.12109 6.125c-.005 1.12104.0156 2.01529.14453 2.79102.12912.77681.39029 1.48529.91992 2.01367.52964.52838 1.234.78579 2.00977.91601s1.67087.1543 2.79101.1543h8.269541c1.12013 0 2.01264-.024 2.78711-.1543.77446-.13033 1.48001-.38927 2.00781-.91797.5278-.52869.78594-1.23438.91601-2.00976.13007-.77539.1543-1.67062.1543-2.79297v-6.125-6.125c0-1.12235-.0242-2.01758-.1543-2.79297-.13007-.77538-.38821-1.48107-.91601-2.00976-.5278-.5287-1.23334-.78764-2.00781-.91797-.77448-.13033-1.66697-.1542999-2.78711-.1542999z" opacity=".1"/><path d="m16.856729 7.1864031c-4.65703 0-5.15812.47378-5.1353 5.0957499v6.40425 6.40426c-.0229 4.62196.47827 5.09574 5.1353 5.09574h8.728691c4.65703 0 5.1353-.47372 5.1353-5.09574v-6.40426-6.40425c0-4.6220199-.47828-5.0957499-5.13531-5.0957499z" fill="url(#i)"/><path clip-path="url(#h)" d="m327.8652 189c-4.41209 0-4.88682.45318-4.8652 4.87419v6.12581 6.12581c-.0217 4.42101.45311 4.87419 4.8652 4.87419h8.2696c4.41209 0 4.8652-.45312 4.8652-4.87419v-6.12581-6.12581c0-4.42106-.45312-4.87419-4.86521-4.87419z" fill="none" opacity=".7" stroke="url(#a)" stroke-width="2" transform="translate(-310.77928 -181.31359)"/><path d="m16.857449 7.1864131c-4.65703 0-5.15954.47373-5.13672 5.0956999v.4043h19.000001v-.4043c0-4.6220199-.47774-5.0956999-5.13477-5.0956999z" fill="#fdc92b"/><path d="m25.72922 30.198203c4.23214 0 5.02499-.46371 5.00275-4.98757v-6.5241-6.52423c.0222-4.5238599-.77061-4.9875699-5.00275-4.9875699h-9.017431c-4.23108 0-5.00275.46366-5.00275 4.9875699v6.52423 6.5241c0 4.52391.77167 4.98757 5.00275 4.98757z" fill="none" opacity=".4" stroke="#000" stroke-width=".976529"/><path clip-path="url(#g)" d="m327.8652 189c-4.41209 0-4.88682.45318-4.8652 4.87419v6.12581 6.12581c-.0217 4.42101.45311 4.87419 4.8652 4.87419h8.2696c4.41209 0 4.8652-.45312 4.8652-4.87419v-6.12581-6.12581c0-4.42106-.45312-4.87419-4.86521-4.87419z" fill="none" opacity=".7" stroke="url(#a)" stroke-width="2" transform="translate(-310.77928 -181.31359)"/><path d="m15.220729 16.686413v1h12.000001v-1zm0 2v1h12.000001v-1zm0 2v1h12.000001v-1zm0 2v1h6.000001v-1z" fill="#1463a5"/></svg>