<svg height="16" width="16" xmlns="http://www.w3.org/2000/svg">
  <path d="m5.662 0c-.839.01-1.451-.02-1.952.258-.251.138-.45.371-.56.664-.112.292-.15.64-.15 1.078v12c0 .438.039.786.148 1.078.11.293.31.528.56.666.503.277 1.115.246 1.954.256h5.676c.839-.01 1.451.021 1.953-.256.251-.138.45-.373.56-.666.11-.292.149-.64.149-1.078v-12c0-.438-.039-.786-.148-1.078a1.253 1.253 0 0 0 -.561-.664c-.502-.278-1.114-.248-1.953-.258h-5.674zm2.338 1.303 4.24 4.238-2.94 2.469 2.94 2.469-4.24 4.238v-5.613l-2.428 2.039-.644-.766 2.818-2.367-2.818-2.367.644-.766 2.428 2.039zm1 2.414v3.24l1.76-1.48zm0 5.345v3.24l1.76-1.759z" fill="#f2f2f7"/>
</svg>
