<svg height="16" width="16" xmlns="http://www.w3.org/2000/svg">
  <g fill="#808080" transform="translate(-632.00004 -300)">
    <path d="m643.37688 305.745c-1.35128.001-2.48258.83016-3.05952 1.98881l.0574-.005c-.0254.001-.046.017-.0713.0195-.0131.0267-.0437.0395-.0562.0666l.0276-.0586c-1.27895.14864-2.27482 1.25637-2.27482 2.60116 0 1.44343 1.13731 2.64253 2.5517 2.64253h2.82629 2.63557c1.1023 0 1.98644-.93454 1.98644-2.05197 0-.807-.48139-1.47572-1.15234-1.80727l.005.0562v.008c-.001-.026-.0155-.0476-.0172-.0735-.0297-.0144-.0441-.0491-.0747-.062l.0666.0288c-.1397-1.85485-1.6074-3.35006-3.44784-3.35142h.0208l-.0126-.001zm0 1.17765h.006c1.22857.004 2.23221 1.01288 2.29206 2.33464v.002l.0425.64683.58019.24474c.31089.13203.5239.41749.5239.79735v.001.001c.005.50338-.37074.87319-.80652.87319h-2.63443-2.82742c-.74896 0-1.37524-.63339-1.37524-1.46603 0-.79397.58098-1.40462 1.28216-1.45569l.59744-.0425.25965-.55379c.38669-.83436 1.15315-1.38248 2.05997-1.3833z"/>
    <path d="m638.16996 301.16992-1.05664 1.83008h-2.11328v2.11328l-1.83008 1.05664 1.05664 1.83008-1.05664 1.83008 1.83008 1.05664v2.11328h2.11328l1.05664 1.83008 1.83008-1.05664 1.83008 1.05664 1.05664-1.83008h2.11328v-1.10547c-1.08983.0533-2.20382.009-3.30273.0137-.66748-.0692-1.44659.15399-2.00782-.32031-.93521-.66735-.70557-2.38695.44532-2.67578.29232-.13809.72876-.0141.92187-.25781.36394-.88479 1.1187-1.78699 2.15625-1.77539.24345 0 .49135-.0101.73047.0449 1.19011.29385 1.87744 1.55009 1.83594 2.71875-.1212.36553.43525.22304.46875.50976-.009.0129-.0233.0209-.0332.0332l.61524-.35547-1.05665-1.83008 1.05664-1.83008-1.83008-1.05664v-2.11328h-2.11328l-1.05664-1.83008-1.83008 1.05664z" opacity=".5"/>
  </g>
</svg>
