<svg height="24" viewBox="0 0 24 24" width="24" xmlns="http://www.w3.org/2000/svg">
  <path d="m4.3258041 4.0001051v.0013a.33321871.33323204 0 0 0 -.2422253.5534742c.6044743.7054434 1.7002759 1.0463113 2.9861435 1.3218209.9110089.1950978 1.9206145.3453168 2.9262382.4974738v1.630462h1.3374485v2.000313h-1.3374485v.959785c-.00267.000467-.00515 0-.00782 0-1.4064864.23097-2.8191403.532613-3.9381151 1.122571-1.1190414.589959-1.9546115 1.52233-2.0458924 2.891077-.035999.543485.1652545 1.027475.522217 1.384331.356969.356923.8499619.604138 1.43512.798301 1.0795018.35819 2.4981775.532861 4.0344842.673283v1.501537h1.3374488v.664166h.333389.333385v-.333386-.33078h1.328333v-1.204616c2.469786.241771 4.830357.60066 6.148096 1.479398a.33337303.3333797 0 1 0 .369849-.554774c-1.551441-1.034562-4.011551-1.384658-6.517943-1.609627v-1.442933h-1.328332v-2.667083h1.328332v-2.226911c.236304-.04533.472091-.09058.690212-.143251.566215-.136888 1.065716-.302212 1.46898-.54045.403296-.23817.723579-.569936.833463-1.009272.139455-.558287.07215-1.075661-.171902-1.496327-.244112-.420733-.642276-.737268-1.12257-.99104-.485437-.25644-1.064017-.45516-1.698183-.618586v-1.6395793h-1.328332v-.3333853-.3333855h-.666771v.3333855.3333853h-1.3374485v1.0275043c-.9730186-.1477565-1.937761-.2934396-2.7868936-.4753347-1.2413271-.2659081-2.2239702-.6420981-2.6188986-1.1030368a.33321871.33323204 0 0 0 -.2643642-.1198104zm9.0027079 3.0108869c.532637.146023 1.01181.31103 1.386936.509194.41063.216968.699146.463883.856904.735792.157784.271909.207768.575157.101578 1.000156-.05666.227103-.216313.415522-.524821.59775-.308569.182228-.754576.337599-1.286659.466219-.165799.04001-.352923.07483-.533938.110694v-.425848h-1.328332v-2.000313h1.328332zm-3.3325515 4.630931v1.695578h1.3374485v2.667083h-1.3374485v1.160338c-1.4991009-.139422-2.8643328-.315497-3.8248161-.634214-.5277491-.175161-.929891-.393416-1.1746626-.638121-.2447782-.244705-.3516112-.4977-.326874-.868625.075325-1.13051.6972485-1.822438 1.6916705-2.346721.9701515-.511546 2.2862049-.809949 3.6346822-1.035318z" fill="#f2f2f7"/>
</svg>
