<svg height="24" viewBox="0 0 24 24" width="24" xmlns="http://www.w3.org/2000/svg">
  <path d="m6.0030206 4.0011917v6.6677083h-1.3322395v1.329635h-.3333854-.3333855v.666771h.3333855.3333854v1.337448h1.0275044c-.1477097.973152-.2934663 1.937628-.4753347 2.786895-.2659283 1.24166-.6421383 2.225139-1.103037 2.6202a.33323208.33330543 0 0 0 -.1198104.264364.33323208.33330543 0 0 0 .5534719.242226c.7054436-.604761 1.0463782-1.701245 1.3218212-2.987446.1951639-.911476.3453165-1.920081.4974736-2.926239h1.6304631v-1.337448h2.0003128v1.337448h.959785c.000437.0027.000835.0051.0013.0078.230977 1.40682.532606 2.818874 1.122571 3.938116.589966 1.119241 1.52233 1.955913 2.891078 2.047194.543391.03601 1.027408-.165227 1.384331-.522217.356876-.356989.604098-.849762.798301-1.43512.358723-1.080169.532594-2.49888.673283-4.035787h1.501536v-1.337448h.664167v-.333371-.333386h-.333383-.330782v-1.329635h-1.211126c.06917-.7395156.145923-1.4708646.250039-2.1683076a.33323208.33330543 0 0 0 -.372454-.389383v-4.1100177h-.666771v1.6669272 5.0007811h-1.33224v1.329635h-2.667083v-1.329635h-1.333542v-5.0007811-1.6669272h-.666771v1.6669272 5.0007811h-.226598c-.04534-.23637-.09058-.472045-.143251-.6902116-.136688-.566355-.302212-1.065583-.540449-1.46898-.238171-.403396-.5698705-.723579-1.0092725-.833463-.5581539-.139489-1.0755952-.0722-1.4963276.171902-.4207325.244171-.7372673.642163-.9910403 1.122571-.096348.182362-.1780758.388646-.2591551.595145v-3.8977445-1.6669272zm.6667709 1.6669272 1.3335417 1.0209925v-.6876071h2.0003128v.6667711l1.332239-1.0001565-1.332239-1.0001564v.6667709h-2.0003128v-.6459343zm5.3328645 0 1.333542 1.0209925v-.6876071h2.667083v.6667711l1.33224-1.0001565-1.33224-1.0001564v.6667709h-2.667083v-.6459343zm-3.0447464 2.6045735c.092548.0078.1906648.02424.2969214.05079.2270954.05668.4155011.21624.5977496.524822.1822414.308648.3375654.754443.4662184 1.2866586.04014.165826.07475.352843.110695.533938h-.425848v1.329635h-2.0003128v-1.329636h-.9923425c.1454227-.53355.3099943-1.0121436.5078919-1.3869346.2169672-.410731.4638829-.699147.735792-.856905.2038986-.118419.4255916-.175705.703235-.152368zm4.3782884 4.3926136h2.667083v1.337448h1.160338c-.139462 1.499435-.315517 2.865369-.634213 3.826119-.175121.527883-.393417.928589-.638122 1.173361-.244704.244838-.49768.352846-.868625.328176-1.13051-.07534-1.822438-.696982-2.34672-1.691671-.511414-.970151-.80995-2.287107-1.035319-3.635985h1.695578z" fill="#f2f2f7"/>
</svg>
