<svg height="24" viewBox="0 0 24 24" width="24" xmlns="http://www.w3.org/2000/svg">
  <path d="m4.3259048 3.9950182a.33332471.33333806 0 0 0 -.2423024.5536479c.6046601.705668 1.7007503 1.0467109 2.9870935 1.3222416.9112988.1952263 1.9212256.3454933 2.9271693.4976323v1.630981h1.3378738v2.000949h-1.3378738v.96009c-.00266.000438-.00515.0008-.00782.0013-1.4069338.23105-2.8201039.532775-3.939368 1.122928-1.1193975.590154-1.9552333 1.522814-2.0465433 2.891997-.036008.543617.1653071 1.027735.5223831 1.384771.3570827.35699.8502324.60429 1.4355765.798555 1.0798454.358323 2.4989725.533024 4.0357679.673497v1.502014h1.3378736v.664378h.333491.333492v-.333468-.330886h1.328756v-1.198485c2.470171.241341 4.831293.593944 6.150051 1.473354a.33347933.333486 0 0 0 .369966-.55495c-.726944-.484797-1.66354-.811637-2.700499-1.053885h2.849008v-.667003h-1.667453-5.001069v-1.332663h-1.328756v-2.667932h1.328756v-1.333966h5.001069 1.667457v-.666983h-1.667457-5.001069v-.22667c.236378-.0453.47224-.09056.690431-.143297.566395-.136944 1.066055-.302341 1.469446-.540621.403425-.238273.723811-.570051.833729-1.009593.140067-.558265.07216-1.075937-.171957-1.496804-.244782-.420866-.6427-.737502-1.122928-.991355-.182086-.09638-.388569-.178133-.595334-.259238h3.897682 1.667457v-.6669827h-6.668526v-1.332663h-1.328756v-.3334916-.3334914h-.666983v.3334914.3334916h-1.3378738v1.027831c-.9730614-.1478034-1.9383775-.2935329-2.7877802-.4754858-1.2417222-.2659928-2.2246112-.6423492-2.6197319-1.1033878a.33332471.33333806 0 0 0 -.2644483-.1198485zm14.0066422 2.6705368-1.021318 1.333966h.687826v2.000949h-.666983l1.000475 1.332663 1.000474-1.332663h-.666982v-2.000949h.646139zm0 5.334561-1.021318 1.333966h.687826v2.667932h-.666983l1.000475 1.332663 1.000474-1.332663h-.666982v-2.667932h.646139zm-5.001069-4.994556c.532805.14607 1.012131.311122 1.387376.509356.410761.217037.699368.464044.857177.736026.157835.271989.207835.5753.101611 1.000475-.05668.227168-.216383.415633-.524989.59794-.308666.1823-.754816.337673-1.287068.466367-.165852.0401-.353035.07482-.534107.11073v-.425984h-1.328756v-2.000949h1.328756zm-3.3336128 4.632405v1.696117h1.3378738v2.667932h-1.3378738v1.160707c-1.4995777-.1394-2.8652441-.315598-3.8260329-.634416-.5279171-.175416-.930187-.393541-1.1750364-.638324-.2448495-.244783-.3517497-.497391-.326978-.868901.075302-1.130536.6974036-1.823218 1.6922087-2.347467.9704601-.511576 2.286999-.810208 3.6358386-1.035648z" fill="#f2f2f7"/>
</svg>
