<svg viewBox="0 0 24 24" xmlns="http://www.w3.org/2000/svg">
  <path d="m8.336912 17.14714c-.09611-.045-.722315-.64857-1.915641-1.84642-1.532029-1.53783-1.77888-1.80019-1.817159-1.931281-.0992-.33974-.415731.004 4.708194-5.1194887 5.123626-5.1236202 4.779572-4.8072002 5.119485-4.7083902.132709.0386.485421.37781 2.817133 2.7095299 2.331711 2.3317103 2.670951 2.6844203 2.709527 2.8171303.09805.337319.327497.0828-3.816111 4.2334987-2.602412 2.606881-3.81619 3.799151-3.9147 3.845331-.133703.0627-.257355.0669-1.945364.0669-1.687019 0-1.811739-.004-1.945364-.0668zm4.283492-1.93062.856237-.8568-2.168292-2.168291-2.168292-2.16829-1.597238 1.59724-1.597238 1.59724 1.427514 1.427841 1.427514 1.42785h1.481779 1.481778z" fill="#f2f2f7"/>
  <path d="m4 18v1h18v-1z" fill="#0084ff"/>
</svg>
