<svg height="16" width="16" xmlns="http://www.w3.org/2000/svg">
  <path d="m79.99997 164.00005c-2.68877.003-5.1384 1.54515-6.30273 3.96875l-1.19922-.76758c-.0945.6622-.16757 1.35201-.21875 2.06836-.0472.71183-.0735 1.40955-.0781 2.0957.61561-.29412 1.23786-.60962 1.86524-.94921.63022-.34521 1.22978-.69663 1.79882-1.05469v-.002l-1.31835-.84571c.97329-2.1376 3.10437-3.51074 5.45312-3.51367 3.31371 0 6 2.68629 6 6h1c0-3.86599-3.13401-7-7-7z" fill="#f2f2f7" transform="matrix(-1 0 0 1 87.20117 -160)"/>
</svg>
