<svg height="24" width="24" xmlns="http://www.w3.org/2000/svg">
  <g fill="#f2f2f7">
    <path d="m3 2v17h1v-16h13.475352l-.03049 2h-11.444862v17h8v-1h-7l.2013089-15h12.7986911v4h1v-5h-2.587098l-.0027-3h-13.1035614z"/>
    <g transform="translate(-19.254237 9.01695)">
      <path d="m35.288136 8.8834746v5.6250004h7.5v-5.6250004zm.625.625h6.25v4.3750004h-6.25z"/>
      <path d="m39.038136 4.5084746a3.125 3.125 0 0 0 -3.125 3.125v1.25h.625v-1.25c0-1.38875 1.11125-2.5 2.5-2.5s2.5 1.11125 2.5 2.5v1.25h.625v-1.25a3.125 3.125 0 0 0 -3.125-3.125z"/>
    </g>
  </g>
</svg>
