<svg height="16" width="16" xmlns="http://www.w3.org/2000/svg">
  <g fill="#f2f2f7">
    <path d="m13.238 1-.353.36-8.969 9.095-.03.045c-.061.099-.27.45-.583 1.088-.314.638-.7 1.51-1.012 2.492l-.291.92.92-.291a18.163 18.163 0 0 0 2.492-1.012c.638-.314.987-.52 1.088-.584l.045-.029 9.455-9.322zm-8.347 9.89 1.218 1.22-.177.175c.007-.005-.379.227-.961.514-.214.105-.536.222-.834.338l-.274-.274c.116-.298.233-.62.338-.834.287-.582.518-.966.514-.96z"/>
    <path d="m12 1h-6.5c-1.5 0-2.493.64-2.974 1.558-.482.918-.525 2.018-.525 3.07v.373h-2c.347.76.736 1.537 1.166 2.325.43.78.875 1.533 1.334 2.258.449-.725.889-1.478 1.32-2.258a43.07 43.07 0 0 0 1.179-2.326h-2v-.37c0-1.013.079-1.975.41-2.606.33-.631.84-1.024 2.09-1.024h6.5z"/>
  </g>
</svg>
