<svg height="16" width="16" xmlns="http://www.w3.org/2000/svg">
  <g fill="#f2f2f7">
    <path d="m8 0a8 8 0 0 0 -8 8 8 8 0 0 0 8 8 8 8 0 0 0 7.5625-5.416016h-1.0625a7 7 0 0 1 -6.5 4.416016 7 7 0 0 1 -7-7 7 7 0 0 1 7-7 7 7 0 0 1 6.501953 4.4160156h1.060547a8 8 0 0 0 -7.5625-5.4160156zm-.6777344 5.0820312a3 3 0 0 0 -2.3222656 2.9179688 3 3 0 0 0 2.3222656 2.919922v-.335938-1.2480465a1.5 1.5 0 0 1 -.8222656-1.3359375 1.5 1.5 0 0 1 .8222656-1.3359375v-1.2480469z"/>
    <path d="m7.9999992 8.5000004h3.9999998 2.031251l-1.4375 1.34375.6875.6562496 2.5-2.3124996.21875-.1875-.21875-.1875-2.5-2.3125005-.6875.65625 1.4375 1.3437505h-2.031251-3.9999998z"/>
  </g>
</svg>
