<svg viewBox="0 0 22 22" xmlns="http://www.w3.org/2000/svg">
  <g fill="#f2f2f7">
    <path d="m5 4v1h6v12 1h6v-1h-5v-13h-1z"/>
    <path d="m4.5 3a1.4999979 1.5 0 0 0 -1.5 1.5 1.4999979 1.5 0 0 0 1.5 1.5 1.4999979 1.5 0 0 0 1.5-1.5 1.4999979 1.5 0 0 0 -1.5-1.5zm0 1a.5.5 0 0 1 .5.5.5.5 0 0 1 -.5.5.5.5 0 0 1 -.5-.5.5.5 0 0 1 .5-.5zm13 12a1.4999979 1.5 0 0 0 -1.5 1.5 1.4999979 1.5 0 0 0 1.5 1.5 1.4999979 1.5 0 0 0 1.5-1.5 1.4999979 1.5 0 0 0 -1.5-1.5zm0 1a.5.5 0 0 1 .5.5.5.5 0 0 1 -.5.5.5.5 0 0 1 -.5-.5.5.5 0 0 1 .5-.5z"/>
  </g>
</svg>
