<svg height="16" viewBox="0 0 16 16" width="16" xmlns="http://www.w3.org/2000/svg">
  <g fill="#f2f2f7" transform="translate(-201 -807)">
    <path d="m203.71 816.69c.49379.47964 1.0774.69712 1.7883.69712.71086 0 1.2972-.22349 1.791-.70313.77657.27945 1.7052.99058 1.7063 2.2326l.003 2.3167c0 .42-.31.76-.7.76h-5.6c-.3878 0-.7-.34309-.7-.76924v-2.3077c0-1.0667.77162-1.966 1.7117-2.2356z"/>
    <circle cx="-205.5" cy="814.31" r="2.308" transform="scale(-1 1)"/>
    <path d="m210.71 812.69c.49379.47964 1.0774.69712 1.7883.69712.71086 0 1.2972-.22349 1.791-.70313.77657.27945 1.7052.99058 1.7063 2.2326l-6.9973.009c0-1.0667.77162-1.966 1.7117-2.2356z"/>
    <circle cx="-212.5" cy="810.31" r="2.308" transform="scale(-1 1)"/>
    <path d="m215.16 821.94h.83984v-1c.008-1.6727 0-5 0-5h-6v.8457c-.0954.61124.3814 1.1616 1 1.1543h1.5859l-1.643 1.643-.64999.64998c-.65409.63582-.18523 1.7437.72657 1.7168.25979-.008.50637-.11632.6875-.30273l.62788-.62789 1.6651-1.6651v1.5859c0 .68107.4492 1 1.1602 1z"/>
  </g>
</svg>
