<svg viewBox="0 0 24 24" xmlns="http://www.w3.org/2000/svg">
  <g fill="#f2f2f7">
    <path d="m5 4a1 .99999851 0 0 0 -1 1 1 .99999851 0 0 0 1 1 1 .99999851 0 0 0 1-1 1 .99999851 0 0 0 -1-1zm4 0a1 1 0 0 0 -1 1 1 1 0 0 0 1 1 1 1 0 0 0 1-1 1 1 0 0 0 -1-1zm4 1a1 1 0 0 0 -1 1 1 1 0 0 0 1 1 1 1 0 0 0 1-1 1 1 0 0 0 -1-1zm3.5 0a1.5 1.5 0 0 0 -1.5 1.5v1.5h-1v2h-1v10h7v-10h-1v-2h-1v-1.5a1.5 1.5 0 0 0 -1.5-1.5zm-11.5 2a.99999791 1 0 0 0 -1 1 .99999791 1 0 0 0 1 1 .99999791 1 0 0 0 1-1 .99999791 1 0 0 0 -1-1zm4 0a1 1 0 0 0 -1 1 1 1 0 0 0 1 1 1 1 0 0 0 1-1 1 1 0 0 0 -1-1zm-4 3a.99999791 1 0 0 0 -1 1 .99999791 1 0 0 0 1 1 .99999791 1 0 0 0 1-1 .99999791 1 0 0 0 -1-1z"/>
    <path d="m5 4c-.5522853 0-1.0000008.4477155-1 1-.0000008.5522845.4477147 1 1 1s1.0000008-.4477155 1-1c.0000008-.5522845-.4477147-1-1-1zm4 0c-.5522847 0-1 .4477153-1 1s.4477153 1 1 1 1-.4477153 1-1-.4477153-1-1-1zm4 1c-.552285 0-1 .4477153-1 1s.447715 1 1 1 1-.4477153 1-1-.447715-1-1-1zm-8 2c-.5522844-.0000012-1 .4477144-1 1s.4477156 1.0000012 1 1c.5522844.0000012 1-.4477144 1-1s-.4477156-1.0000012-1-1zm4 0c-.5522847 0-1 .4477153-1 1s.4477153 1 1 1 1-.4477153 1-1-.4477153-1-1-1zm-4 3c-.5522844-.0000012-1 .447714-1 1s.4477156 1.000001 1 1c.5522844.000001 1-.447714 1-1s-.4477156-1.0000012-1-1z"/>
  </g>
</svg>
