<svg height="256" width="256" xmlns="http://www.w3.org/2000/svg" xmlns:xlink="http://www.w3.org/1999/xlink"><filter id="a" color-interpolation-filters="sRGB" height="1.048" width="1.048" x="-.024" y="-.024"><feGaussianBlur stdDeviation="2.24"/></filter><filter id="b" color-interpolation-filters="sRGB" height="1.12" width="1.12" x="-.06" y="-.06"><feGaussianBlur stdDeviation="5.6"/></filter><rect filter="url(#b)" height="224" opacity=".1" rx="112" transform="matrix(0 -1 -1 0 -23.559999 -30.44)" width="224" x="-270" y="-264"/><rect filter="url(#a)" height="224" opacity=".5" rx="112" transform="matrix(0 -1 -1 0 -23.559999 -30.44)" width="224" x="-270" y="-264"/><rect fill="#3eb34f" height="224" rx="112" transform="matrix(0 -1 -1 0 0 0)" width="224" x="-237.56" y="-240.44"/><g fill-rule="evenodd"><circle cx="128.44" cy="125.56001" fill="#0f8420" r="101.50001" stroke="#0f8420" stroke-width="20.999977"/><path d="m6.2503386 10.750019 5.4996704-5.7872404-.69971-.78929v-.00004l-.0659.0577-4.7347504 4.14722-2.77557-2.38094-.83906.94888z" fill="#fff" transform="matrix(13.999985 0 0 13.999985 26.93999 24.059989)"/></g></svg>