<svg height="256" width="256" xmlns="http://www.w3.org/2000/svg" xmlns:xlink="http://www.w3.org/1999/xlink"><linearGradient id="a" gradientUnits="userSpaceOnUse" x1="88" x2="488" y1="88" y2="488"><stop offset="0" stop-opacity=".588235"/><stop offset=".88" stop-opacity="0"/><stop offset="1"/></linearGradient><filter id="b" color-interpolation-filters="sRGB" height="1.048" width="1.048" x="-.024" y="-.024"><feGaussianBlur stdDeviation=".84"/></filter><linearGradient id="c" gradientTransform="matrix(0 -.453125 .45311204 0 17.237135 265.00077)" gradientUnits="userSpaceOnUse" x1="529.65515" x2="-35.310345" y1="401.58368" y2="119.09284"><stop offset="0" stop-color="#f2f2f2"/><stop offset="1" stop-color="#f9f9f9"/></linearGradient><filter id="d" color-interpolation-filters="sRGB" height="1.087725" width="1.105998" x="-.052999" y="-.043863"><feGaussianBlur stdDeviation="8.4801079"/></filter><filter id="e" color-interpolation-filters="sRGB" height="1.021931" width="1.0265" x="-.01325" y="-.010966"><feGaussianBlur stdDeviation="2.120027"/></filter><g enable-background="new" transform="translate(-15.865997 -27.826004)"><path d="m94.121155 41.000769c-35.296723 0-39.09461 3.625418-38.92162 38.99353v73.006471 73.00647c-.17299 35.36812 3.624897 38.99353 38.92162 38.99353h98.156765c35.29672 0 38.92162-3.625 38.92162-38.99353v-73.00647-73.006471c0-35.368533-3.6249-38.99353-38.92162-38.99353z" fill="none" opacity=".2" stroke="#000" stroke-width="4"/><path d="m189.84323 74c-70.59344 0-78.18921 7.250835-77.84323 77.98706v146.01294 146.01294c-.34598 70.73623 7.24979 77.98706 77.84323 77.98706h196.31354c70.59344 0 76.00668-7.27384 77.84323-77.98706v-146.01294-146.01294c0-70.737067-7.24979-77.98706-77.84323-77.98706z" filter="url(#e)" opacity=".1" transform="matrix(.5 0 0 .5 -.800465 5.000769)"/><path d="m189.84323 74c-70.59344 0-78.18921 7.250835-77.84323 77.98706v146.01294 146.01294c-.34598 70.73623 7.24979 77.98706 77.84323 77.98706h196.31354c70.59344 0 77.84323-7.24999 77.84323-77.98706v-146.01294-146.01294c0-70.737067-7.24979-77.98706-77.84323-77.98706z" fill="url(#a)" filter="url(#d)" opacity=".3" transform="matrix(.5 0 0 .5 -.800465 5.000769)"/><path d="m94.121155 41.000769c-35.296723 0-39.09461 3.625418-38.92162 38.99353v73.006471 73.00647c-.17299 35.36812 3.624897 38.99353 38.92162 38.99353h98.156765c35.29672 0 38.92162-3.625 38.92162-38.99353v-73.00647-73.006471c0-35.368533-3.6249-38.99353-38.92162-38.99353z" fill="url(#c)"/><circle cx="208" cy="-182" filter="url(#b)" opacity=".2" r="42" transform="matrix(0 1 -1 0 -8.800465 -2.99923)"/><circle cx="203.00078" cy="-173.19952" fill="#45a925" r="42" transform="rotate(90)"/><rect fill="#f4f4f4" height="12" rx="2.24" ry="2" width="48" x="149.19952" y="197.00078"/><rect fill="#f4f4f4" height="48" rx="2" ry="2.24" width="12" x="167.19952" y="179.00078"/><g fill="#fff"><path d="m173.19954 41.000769v224.000001h19.07812c35.29672 0 38.00361-3.63655 38.92188-38.99317v-73.00683-73.006836c0-35.368534-3.62516-38.993165-38.92188-38.993165z" opacity=".1"/><path d="m55.199535 203.00077v23.00683c-.17299 35.36812 3.625155 38.99317 38.92188 38.99317h98.156245c35.29672 0 38.00361-3.63655 38.92188-38.99317v-23.00683z" opacity=".1"/><path d="m171.19954 265.00077 60-60v22.48388c-.0523 33.99581-3.80268 37.51612-38.1741 37.51612z" opacity=".4"/><path d="m94.121415 41.000769c-35.296728 0-39.09487 3.626029-38.92188 38.994141v2c-.17299-35.368112 3.625152-38.994141 38.92188-38.994141h98.156245c35.29673 0 38.92188 3.625608 38.92188 38.994141v-2c0-35.368533-3.62515-38.994141-38.92188-38.994141z" opacity=".6"/></g></g></svg>