<?xml version="1.0" encoding="UTF-8" standalone="no"?>
<svg
   xmlns:dc="http://purl.org/dc/elements/1.1/"
   xmlns:cc="http://creativecommons.org/ns#"
   xmlns:rdf="http://www.w3.org/1999/02/22-rdf-syntax-ns#"
   xmlns:svg="http://www.w3.org/2000/svg"
   xmlns="http://www.w3.org/2000/svg"
   xmlns:sodipodi="http://sodipodi.sourceforge.net/DTD/sodipodi-0.dtd"
   xmlns:inkscape="http://www.inkscape.org/namespaces/inkscape"
   enable-background="new"
   height="256"
   viewBox="0 0 256 256"
   width="256"
   version="1.1"
   id="svg44"
   sodipodi:docname="multisystem-hide.svg"
   inkscape:version="0.92.4 (5da689c313, 2019-01-14)">
  <metadata
     id="metadata50">
    <rdf:RDF>
      <cc:Work
         rdf:about="">
        <dc:format>image/svg+xml</dc:format>
        <dc:type
           rdf:resource="http://purl.org/dc/dcmitype/StillImage" />
        <dc:title />
      </cc:Work>
    </rdf:RDF>
  </metadata>
  <defs
     id="defs48" />
  <sodipodi:namedview
     pagecolor="#ffffff"
     bordercolor="#666666"
     borderopacity="1"
     objecttolerance="10"
     gridtolerance="10"
     guidetolerance="10"
     inkscape:pageopacity="0"
     inkscape:pageshadow="2"
     inkscape:window-width="1920"
     inkscape:window-height="1016"
     id="namedview46"
     showgrid="true"
     inkscape:zoom="3.2773438"
     inkscape:cx="70.026223"
     inkscape:cy="128"
     inkscape:window-x="0"
     inkscape:window-y="27"
     inkscape:window-maximized="1"
     inkscape:current-layer="svg44">
    <inkscape:grid
       type="xygrid"
       id="grid879" />
  </sodipodi:namedview>
  <filter
     id="filter966"
     color-interpolation-filters="sRGB"
     height="1.032308"
     width="1.019091"
     x="-.009545"
     y="-.016154">
    <feGaussianBlur
       stdDeviation=".4915864"
       id="feGaussianBlur2" />
  </filter>
  <filter
     id="filter992"
     color-interpolation-filters="sRGB"
     height="1.129231"
     width="1.076364"
     x="-.038182"
     y="-.064615">
    <feGaussianBlur
       stdDeviation="1.9663456"
       id="feGaussianBlur5" />
  </filter>
  <g
     transform="matrix(1.8446786,0,0,1.8446786,-305.70524,31.107317)"
     id="g42">
    <path
       d="m 235.11168,15.514848 c -39.03088,0 -69.38865,31.891025 -69.38865,41.749962 0,12.920652 30.35777,40.254989 69.38865,40.254989 39.03088,0 69.38866,-31.891025 69.38866,-40.254989 0,-9.858937 -30.35778,-41.749962 -69.38866,-41.749962 z"
       id="path16"
       inkscape:connector-curvature="0"
       style="fill:#3d3846;stroke-width:1.38777351" />
    <path
       d="m 235.11168,22.751078 c -32.14261,0 -57.14275,26.262807 -57.14275,34.381809 0,10.640381 25.00014,33.150683 57.14275,33.150683 32.14261,0 57.14275,-26.262809 57.14275,-33.150683 0,-8.119002 -25.00014,-34.381809 -57.14275,-34.381809 z"
       id="path18"
       inkscape:connector-curvature="0"
       style="fill:#ffffff;stroke-width:1.14285553" />
    <g
       transform="matrix(1.1428551,0,0,1.1428551,-32.914713,-16.507953)"
       id="g34">
      <circle
         cx="234.52361"
         cy="63.897285"
         r="25.000002"
         id="circle20"
         style="fill:#1c71d8" />
      <circle
         cx="234.52361"
         cy="63.897285"
         r="13.637"
         id="circle22"
         style="fill:#3d3846" />
      <g
         id="g32"
         style="stroke-width:0.54210001">
        <path
           d="m 234.52349,38.897115 a 25,25 0 0 0 -25.00012,25.000128 25,25 0 0 0 0.0222,0.63527 25,25 0 0 1 24.97788,-24.551198 25,25 0 0 1 24.97789,24.364848 25,25 0 0 0 0.0222,-0.44892 25,25 0 0 0 -25.00015,-25.000128 z"
           id="path24"
           inkscape:connector-curvature="0"
           style="opacity:0.3;fill:#ffffff" />
        <path
           d="m 259.50138,63.261963 a 25,25 0 0 1 -24.97789,24.55119 25,25 0 0 1 -24.97788,-24.36484 25,25 0 0 0 -0.0222,0.44893 25,25 0 0 0 25.00013,25.00011 25,25 0 0 0 25.00012,-25.00011 25,25 0 0 0 -0.0222,-0.63528 z"
           id="path26"
           inkscape:connector-curvature="0"
           style="opacity:0.2" />
        <path
           d="m 234.52349,50.261093 a 13.636552,13.636552 0 0 0 -13.6372,13.63615 13.636552,13.636552 0 0 0 0.0233,0.63209 13.636552,13.636552 0 0 1 13.61391,-13.18404 13.636552,13.636552 0 0 1 13.6139,13.00087 13.636552,13.636552 0 0 0 0.0222,-0.44892 13.636552,13.636552 0 0 0 -13.63614,-13.63615 z"
           id="path28"
           inkscape:connector-curvature="0"
           style="opacity:0.3;fill:#ffffff" />
        <path
           d="m 248.1374,63.261963 a 13.636552,13.636552 0 0 1 -13.61391,13.18827 13.636552,13.636552 0 0 1 -13.6139,-13.0051 13.636552,13.636552 0 0 0 -0.0233,0.45211 13.636552,13.636552 0 0 0 13.63719,13.63719 13.636552,13.636552 0 0 0 13.63615,-13.63719 13.636552,13.636552 0 0 0 -0.0222,-0.63528 z"
           id="path30"
           inkscape:connector-curvature="0"
           style="opacity:0.2" />
      </g>
    </g>
    <path
       d="m 292.72347,57.655297 c -1.24502,7.654443 -25.77518,32.576752 -57.08859,32.576752 -31.46061,0 -56.075,-21.563264 -57.10552,-32.455747 -0.0224,0.188514 -0.0375,0.371976 -0.0375,0.544524 0,10.640381 25.00044,33.150306 57.14303,33.150306 32.14262,0 57.14304,-26.262443 57.14304,-33.150306 0,-0.209107 -0.0215,-0.433107 -0.0545,-0.665529 z"
       id="path36"
       inkscape:connector-curvature="0"
       style="opacity:0.2;stroke-width:0.61954165" />
    <path
       d="m 235.11142,15.514865 c -39.03087,0 -69.38865,31.891148 -69.38865,41.75008 0,0.227608 0.0127,0.460666 0.0314,0.696985 1.04279,-10.43067 31.01299,-41.207983 69.3572,-41.207983 38.19511,0 68.08014,30.536379 69.34267,41.083349 0.0276,-0.200012 0.046,-0.39334 0.046,-0.572351 0,-9.858932 -30.35777,-41.75008 -69.38865,-41.75008 z"
       id="path38"
       inkscape:connector-curvature="0"
       style="opacity:0.3;fill:#ffffff;stroke-width:1.38777244" />
    <path
       d="m 304.45409,56.598213 c -1.2619,9.145618 -31.14713,39.682121 -69.34267,39.682121 -38.34332,0 -68.3131,-26.378295 -69.35719,-39.557487 -0.0186,0.186798 -0.0314,0.368652 -0.0314,0.542098 0,12.920658 30.35778,40.254472 69.38866,40.254472 39.03088,0 69.38865,-31.890506 69.38865,-40.254472 0,-0.211109 -0.0184,-0.435946 -0.046,-0.666732 z"
       id="path40"
       inkscape:connector-curvature="0"
       style="opacity:0.2;fill:#030303;stroke-width:1.38777244" />
  </g>
  <path
     style="color:#000000;font-style:normal;font-variant:normal;font-weight:normal;font-stretch:normal;font-size:medium;line-height:normal;font-family:sans-serif;font-variant-ligatures:normal;font-variant-position:normal;font-variant-caps:normal;font-variant-numeric:normal;font-variant-alternates:normal;font-feature-settings:normal;text-indent:0;text-align:start;text-decoration:none;text-decoration-line:none;text-decoration-style:solid;text-decoration-color:#000000;letter-spacing:normal;word-spacing:normal;text-transform:none;writing-mode:lr-tb;direction:ltr;text-orientation:mixed;dominant-baseline:auto;baseline-shift:baseline;text-anchor:start;white-space:normal;shape-padding:0;clip-rule:nonzero;display:inline;overflow:visible;visibility:visible;opacity:1;isolation:auto;mix-blend-mode:normal;color-interpolation:sRGB;color-interpolation-filters:linearRGB;solid-color:#000000;solid-opacity:1;vector-effect:none;fill:#df0505;fill-opacity:1;fill-rule:nonzero;stroke:none;stroke-width:19.40846252;stroke-linecap:butt;stroke-linejoin:miter;stroke-miterlimit:4;stroke-dasharray:none;stroke-dashoffset:0;stroke-opacity:1;color-rendering:auto;image-rendering:auto;shape-rendering:auto;text-rendering:auto;enable-background:accumulate"
     d="M 25,26 11.835479,40.260102 230.60139,242.19787 l 13.16453,-14.2601 z"
     id="path881"
     inkscape:connector-curvature="0" />
  <path
     style="color:#000000;font-style:normal;font-variant:normal;font-weight:normal;font-stretch:normal;font-size:medium;line-height:normal;font-family:sans-serif;font-variant-ligatures:normal;font-variant-position:normal;font-variant-caps:normal;font-variant-numeric:normal;font-variant-alternates:normal;font-feature-settings:normal;text-indent:0;text-align:start;text-decoration:none;text-decoration-line:none;text-decoration-style:solid;text-decoration-color:#000000;letter-spacing:normal;word-spacing:normal;text-transform:none;writing-mode:lr-tb;direction:ltr;text-orientation:mixed;dominant-baseline:auto;baseline-shift:baseline;text-anchor:start;white-space:normal;shape-padding:0;clip-rule:nonzero;display:inline;overflow:visible;visibility:visible;opacity:0.3;isolation:auto;mix-blend-mode:normal;color-interpolation:sRGB;color-interpolation-filters:linearRGB;solid-color:#000000;solid-opacity:1;vector-effect:none;fill:#fafafa;fill-opacity:1;fill-rule:nonzero;stroke:none;stroke-width:19.40846252;stroke-linecap:butt;stroke-linejoin:miter;stroke-miterlimit:4;stroke-dasharray:none;stroke-dashoffset:0;stroke-opacity:1;color-rendering:auto;image-rendering:auto;shape-rendering:auto;text-rendering:auto;enable-background:accumulate"
     d="M 25,26 11.835481,40.260102 12.952975,41.29214 25,28.243753 242.64843,229.14948 l 1.11749,-1.21171 z"
     id="path885"
     inkscape:connector-curvature="0" />
  <path
     style="color:#000000;font-style:normal;font-variant:normal;font-weight:normal;font-stretch:normal;font-size:medium;line-height:normal;font-family:sans-serif;font-variant-ligatures:normal;font-variant-position:normal;font-variant-caps:normal;font-variant-numeric:normal;font-variant-alternates:normal;font-feature-settings:normal;text-indent:0;text-align:start;text-decoration:none;text-decoration-line:none;text-decoration-style:solid;text-decoration-color:#000000;letter-spacing:normal;word-spacing:normal;text-transform:none;writing-mode:lr-tb;direction:ltr;text-orientation:mixed;dominant-baseline:auto;baseline-shift:baseline;text-anchor:start;white-space:normal;shape-padding:0;clip-rule:nonzero;display:inline;overflow:visible;visibility:visible;opacity:0.2;isolation:auto;mix-blend-mode:normal;color-interpolation:sRGB;color-interpolation-filters:linearRGB;solid-color:#000000;solid-opacity:1;vector-effect:none;fill:#1a0b0b;fill-opacity:1;fill-rule:nonzero;stroke:none;stroke-width:19.40846252;stroke-linecap:butt;stroke-linejoin:miter;stroke-miterlimit:4;stroke-dasharray:none;stroke-dashoffset:0;stroke-opacity:1;color-rendering:auto;image-rendering:auto;shape-rendering:auto;text-rendering:auto;enable-background:accumulate"
     d="m 12.952975,39.048387 -1.117494,1.211715 218.765909,201.937768 13.16453,-14.2601 -1.11749,-1.03204 -12.04704,13.04839 z"
     id="path890"
     inkscape:connector-curvature="0" />
</svg>
