<?xml version="1.0" encoding="UTF-8" standalone="no"?>
<svg
   xmlns:dc="http://purl.org/dc/elements/1.1/"
   xmlns:cc="http://creativecommons.org/ns#"
   xmlns:rdf="http://www.w3.org/1999/02/22-rdf-syntax-ns#"
   xmlns:svg="http://www.w3.org/2000/svg"
   xmlns="http://www.w3.org/2000/svg"
   xmlns:sodipodi="http://sodipodi.sourceforge.net/DTD/sodipodi-0.dtd"
   xmlns:inkscape="http://www.inkscape.org/namespaces/inkscape"
   enable-background="new"
   height="256"
   viewBox="0 0 256 256"
   width="256"
   version="1.1"
   id="svg44"
   sodipodi:docname="multisystem-show.svg"
   inkscape:version="0.92.4 (5da689c313, 2019-01-14)">
  <metadata
     id="metadata50">
    <rdf:RDF>
      <cc:Work
         rdf:about="">
        <dc:format>image/svg+xml</dc:format>
        <dc:type
           rdf:resource="http://purl.org/dc/dcmitype/StillImage" />
        <dc:title />
      </cc:Work>
    </rdf:RDF>
  </metadata>
  <defs
     id="defs48" />
  <sodipodi:namedview
     pagecolor="#ffffff"
     bordercolor="#666666"
     borderopacity="1"
     objecttolerance="10"
     gridtolerance="10"
     guidetolerance="10"
     inkscape:pageopacity="0"
     inkscape:pageshadow="2"
     inkscape:window-width="1920"
     inkscape:window-height="1016"
     id="namedview46"
     showgrid="false"
     inkscape:zoom="0.921875"
     inkscape:cx="-201.22034"
     inkscape:cy="128"
     inkscape:window-x="0"
     inkscape:window-y="27"
     inkscape:window-maximized="1"
     inkscape:current-layer="g42" />
  <filter
     id="filter966"
     color-interpolation-filters="sRGB"
     height="1.032308"
     width="1.019091"
     x="-.009545"
     y="-.016154">
    <feGaussianBlur
       stdDeviation=".4915864"
       id="feGaussianBlur2" />
  </filter>
  <filter
     id="filter992"
     color-interpolation-filters="sRGB"
     height="1.129231"
     width="1.076364"
     x="-.038182"
     y="-.064615">
    <feGaussianBlur
       stdDeviation="1.9663456"
       id="feGaussianBlur5" />
  </filter>
  <g
     transform="matrix(1.8446786,0,0,1.8446786,-325.23067,27.485705)"
     id="g42">
    <path
       d="m 245.69641,17.478124 c -39.03088,0 -69.38865,31.891024 -69.38865,41.74996 0,12.920652 30.35777,40.254989 69.38865,40.254989 39.03088,0 69.38865,-31.891024 69.38865,-40.254989 0,-9.858936 -30.35777,-41.74996 -69.38865,-41.74996 z"
       id="path16"
       inkscape:connector-curvature="0"
       style="fill:#3d3846;stroke-width:1.38777339" />
    <path
       d="m 245.69641,24.714353 c -32.14261,0 -57.14275,26.262807 -57.14275,34.381809 0,10.640381 25.00014,33.150682 57.14275,33.150682 32.14261,0 57.14274,-26.262808 57.14274,-33.150682 0,-8.119002 -25.00013,-34.381809 -57.14274,-34.381809 z"
       id="path18"
       inkscape:connector-curvature="0"
       style="fill:#ffffff;stroke-width:1.14285553" />
    <g
       transform="matrix(1.1428551,0,0,1.1428551,-22.329982,-14.544677)"
       id="g34">
      <circle
         cx="234.52361"
         cy="63.897285"
         r="25.000002"
         id="circle20"
         style="fill:#1c71d8" />
      <circle
         cx="234.52361"
         cy="63.897285"
         r="13.637"
         id="circle22"
         style="fill:#3d3846" />
      <g
         id="g32"
         style="stroke-width:0.54210001">
        <path
           d="m 234.52349,38.897115 a 25,25 0 0 0 -25.00012,25.000128 25,25 0 0 0 0.0222,0.63527 25,25 0 0 1 24.97788,-24.551198 25,25 0 0 1 24.97789,24.364848 25,25 0 0 0 0.0222,-0.44892 25,25 0 0 0 -25.00015,-25.000128 z"
           id="path24"
           inkscape:connector-curvature="0"
           style="opacity:0.3;fill:#ffffff" />
        <path
           d="m 259.50138,63.261963 a 25,25 0 0 1 -24.97789,24.55119 25,25 0 0 1 -24.97788,-24.36484 25,25 0 0 0 -0.0222,0.44893 25,25 0 0 0 25.00013,25.00011 25,25 0 0 0 25.00012,-25.00011 25,25 0 0 0 -0.0222,-0.63528 z"
           id="path26"
           inkscape:connector-curvature="0"
           style="opacity:0.2" />
        <path
           d="m 234.52349,50.261093 a 13.636552,13.636552 0 0 0 -13.6372,13.63615 13.636552,13.636552 0 0 0 0.0233,0.63209 13.636552,13.636552 0 0 1 13.61391,-13.18404 13.636552,13.636552 0 0 1 13.6139,13.00087 13.636552,13.636552 0 0 0 0.0222,-0.44892 13.636552,13.636552 0 0 0 -13.63614,-13.63615 z"
           id="path28"
           inkscape:connector-curvature="0"
           style="opacity:0.3;fill:#ffffff" />
        <path
           d="m 248.1374,63.261963 a 13.636552,13.636552 0 0 1 -13.61391,13.18827 13.636552,13.636552 0 0 1 -13.6139,-13.0051 13.636552,13.636552 0 0 0 -0.0233,0.45211 13.636552,13.636552 0 0 0 13.63719,13.63719 13.636552,13.636552 0 0 0 13.63615,-13.63719 13.636552,13.636552 0 0 0 -0.0222,-0.63528 z"
           id="path30"
           inkscape:connector-curvature="0"
           style="opacity:0.2" />
      </g>
    </g>
    <path
       d="m 303.3082,59.618571 c -1.24503,7.654443 -25.77518,32.576752 -57.08859,32.576752 -31.46061,0 -56.075,-21.563264 -57.10552,-32.455746 -0.0224,0.188513 -0.0375,0.371976 -0.0375,0.544524 0,10.640381 25.00044,33.150306 57.14303,33.150306 32.14262,0 57.14304,-26.262443 57.14304,-33.150306 0,-0.209108 -0.0215,-0.433107 -0.0545,-0.66553 z"
       id="path36"
       inkscape:connector-curvature="0"
       style="opacity:0.2;stroke-width:0.61954165" />
    <path
       d="m 245.69615,17.47814 c -39.03088,0 -69.38865,31.891148 -69.38865,41.75008 0,0.227608 0.0127,0.460666 0.0314,0.696985 1.04279,-10.43067 31.01299,-41.207982 69.3572,-41.207982 38.19511,0 68.08014,30.536378 69.34266,41.083348 0.0276,-0.200012 0.046,-0.39334 0.046,-0.572351 0,-9.858932 -30.35777,-41.75008 -69.38865,-41.75008 z"
       id="path38"
       inkscape:connector-curvature="0"
       style="opacity:0.3;fill:#ffffff;stroke-width:1.38777232" />
    <path
       d="m 315.03882,58.561488 c -1.2619,9.145617 -31.14713,39.68212 -69.34267,39.68212 -38.34332,0 -68.3131,-26.378295 -69.35719,-39.557486 -0.0186,0.186798 -0.0314,0.368652 -0.0314,0.542098 0,12.920658 30.35778,40.254472 69.38866,40.254472 39.03088,0 69.38865,-31.890506 69.38865,-40.254472 0,-0.211109 -0.0184,-0.435946 -0.046,-0.666732 z"
       id="path40"
       inkscape:connector-curvature="0"
       style="opacity:0.2;fill:#030303;stroke-width:1.38777232" />
  </g>
</svg>
