<svg width="256" height="256" viewBox="0 0 256 256" fill="none" xmlns="http://www.w3.org/2000/svg">
    <g id="folder-yaru-locked">
        <path id="secondario" d="M55.7169 20.7722C20.3466 20.7722 16.7208 22.7715 16.7208 58.0709V108.777H240.732V77.6969C240.732 42.3974 237.106 36.773 201.736 36.773H114.726L98.7249 20.7722H55.7169Z" fill="url(#paint0_linear)"/>
        <path id="ombra" opacity="0.5" d="M55.7163 68.7745C20.346 68.7745 16.7208 72.3996 16.7208 107.699V189.858C16.7208 225.157 20.346 228.782 55.7163 228.782H201.736C237.107 228.782 240.732 225.157 240.732 189.858V91.6983C240.732 56.3989 237.107 52.7737 201.736 52.7737H120.476L104.467 68.7745H55.7163Z" fill="#135C9A"/>
        <path id="primario" d="M55.7163 68.7745C20.346 68.7745 16.7208 72.3997 16.7208 107.699V189.858C16.7208 225.157 20.346 228.782 55.7163 228.782H201.736C237.107 228.782 240.732 225.157 240.732 189.858V91.6983C240.732 56.3989 237.107 52.7737 201.736 52.7737H120.476L104.467 68.7745H55.7163Z" fill="url(#paint1_linear)"/>
        <path id="contorno superiore del secondario" opacity="0.4" d="M55.7169 20.7722C20.3466 20.7722 16.7208 22.7715 16.7208 58.0709V60.071C16.7208 24.7715 20.3466 22.7723 55.7169 22.7723H98.7249L114.726 38.7731H201.736C237.106 38.7731 240.732 44.3975 240.732 79.697V77.6969C240.732 42.3974 237.106 36.773 201.736 36.773H114.726L98.7249 20.7722H55.7169Z" fill="url(#paint2_radial)"/>
        <path id="contorno superiore del primario" opacity="0.4" d="M120.476 52.7737L104.467 68.7745H55.7169C20.3466 68.7745 16.7208 72.3988 16.7208 107.698V109.698C16.7208 74.3989 20.3466 70.7746 55.7169 70.7746H104.467L120.476 54.7738H201.736C237.106 54.7738 240.732 58.3981 240.732 93.6976V91.6975C240.732 56.398 237.106 52.7737 201.736 52.7737H120.476Z" fill="url(#paint3_radial)"/>
        <path id="effetto piega" opacity="0.1" d="M240.732 162.779L176.729 226.782H201.736C237.106 226.782 240.732 223.158 240.732 187.859V162.779Z" fill="white"/>
        <path id="contorno inferiore del primario" opacity="0.2" d="M16.7208 187.859V189.859C16.7208 225.158 20.3466 228.783 55.7169 228.783H201.736C237.106 228.783 240.732 225.158 240.732 189.859V187.859C240.732 223.158 237.106 226.782 201.736 226.782H55.7169C20.3466 226.782 16.7208 223.158 16.7208 187.859V187.859Z" fill="#491706"/>
        <path id="lucchetto chiuso" d="M127.566 96.5C113.23 96.5 101.658 107.727 101.658 122.408V139.682H97.3399C96.7724 139.68 96.2102 139.791 95.6857 140.008C95.1612 140.224 94.6846 140.542 94.2833 140.943C93.8821 141.345 93.564 141.821 93.3475 142.346C93.1309 142.87 93.0202 143.433 93.0215 144V187.182C93.0202 187.749 93.1309 188.311 93.3475 188.836C93.564 189.36 93.8821 189.837 94.2833 190.238C94.6846 190.639 95.1612 190.957 95.6857 191.174C96.2102 191.391 96.7724 191.501 97.3399 191.5H157.793C157.999 191.5 158.204 191.486 158.408 191.457C159.437 191.311 160.379 190.798 161.06 190.012C161.74 189.226 162.114 188.221 162.111 187.182V144C162.112 143.794 162.097 143.589 162.068 143.385C161.922 142.356 161.409 141.414 160.623 140.733C159.838 140.053 158.832 139.679 157.793 139.682H153.475V122.408C153.475 107.727 141.903 96.5 127.566 96.5V96.5ZM127.566 105.137C137.153 105.137 144.84 112.908 144.84 122.408V139.682H110.293V122.408C110.293 121.814 110.324 121.227 110.383 120.648C111.262 111.967 118.579 105.137 127.566 105.137V105.137Z" fill="#C6E9F7"/>
    </g>
    <defs>
        <radialGradient id="paint2_radial" cx="0" cy="0" r="1" gradientUnits="userSpaceOnUse" gradientTransform="translate(128.726 28.7726) scale(112.006 29.4624)">
            <stop stop-color="white"/>
            <stop offset="1" stop-color="white" stop-opacity="0.203922"/>
        </radialGradient>
        <radialGradient id="paint3_radial" cx="0" cy="0" r="1" gradientUnits="userSpaceOnUse" gradientTransform="translate(124.726 64.7744) scale(112.006 28.4623)">
            <stop stop-color="white"/>
            <stop offset="1" stop-color="white" stop-opacity="0.203922"/>
        </radialGradient>
        <linearGradient id="paint0_linear" x1="241" y1="50" x2="17" y2="129" gradientUnits="userSpaceOnUse">
            <stop stop-color="#1A7FD4"/>
            <stop offset="0.874098" stop-color="#3194A4"/>
        </linearGradient>
        <linearGradient id="paint1_linear" x1="17" y1="52.9999" x2="241" y2="229" gradientUnits="userSpaceOnUse">
            <stop stop-color="#6DC7F1"/>
            <stop offset="1" stop-color="			#37A6E6"/>
        </linearGradient>
    </defs>
</svg>
