<svg fill="none" height="256" viewBox="0 0 256 256" width="256" xmlns="http://www.w3.org/2000/svg" xmlns:xlink="http://www.w3.org/1999/xlink">
  <linearGradient id="paint0_linear" gradientUnits="userSpaceOnUse" x1="241" x2="16.9999" y1="50" y2="129">
    <stop offset="0" stop-color="#f0ea4d"/>
    <stop offset=".874098" stop-color="#fc429d"/>
  </linearGradient>
  <linearGradient id="paint1_linear" gradientUnits="userSpaceOnUse" x1="16.9999" x2="241" y1="53" y2="229">
    <stop offset="0" stop-color="#2a2139"/>
    <stop offset="1" stop-color="#413260"/>
  </linearGradient>
  <linearGradient id="lg1">
    <stop offset="0" stop-color="#fff"/>
    <stop offset="1" stop-color="#fff" stop-opacity=".203922"/>
  </linearGradient>
  <radialGradient id="paint2_radial" cx="0" cy="0" gradientTransform="matrix(112.006 0 0 29.4624 128.726 28.7726)" gradientUnits="userSpaceOnUse" r="1" xlink:href="#lg1"/>
  <radialGradient id="paint3_radial" cx="0" cy="0" gradientTransform="matrix(112.006 0 0 28.4623 124.726 64.7745)" gradientUnits="userSpaceOnUse" r="1" xlink:href="#lg1"/>
  <linearGradient id="paint4_linear" gradientUnits="userSpaceOnUse" x1="127.254" x2="127.254" y1="92.8076" y2="188.834">
    <stop offset="0" stop-color="#0fe4f5"/>
    <stop offset="1" stop-color="#eb36ae"/>
  </linearGradient>
  <path d="m55.7168 20.7722c-35.3703 0-38.9961 1.9993-38.9961 37.2987v50.7061h224.0113v-31.0801c0-35.2995-3.626-40.9239-38.996-40.9239h-87.01l-16.0012-16.0008z" fill="url(#paint0_linear)"/>
  <path d="m55.7162 68.7746c-35.3703 0-38.9955 3.6252-38.9955 38.9244v82.159c0 35.299 3.6252 38.924 38.9955 38.924h146.0198c35.371 0 38.996-3.625 38.996-38.924v-98.1596c0-35.2994-3.625-38.9246-38.996-38.9246h-81.26l-16.009 16.0008z" fill="#685f55" opacity=".5"/>
  <path d="m55.7162 68.7746c-35.3703 0-38.9955 3.6251-38.9955 38.9244v82.159c0 35.299 3.6252 38.924 38.9955 38.924h146.0198c35.371 0 38.996-3.625 38.996-38.924v-98.1596c0-35.2995-3.625-38.9247-38.996-38.9247h-81.26l-16.009 16.0009z" fill="url(#paint1_linear)"/>
  <path d="m55.7168 20.7722c-35.3703 0-38.9961 1.9993-38.9961 37.2987v2.0001c0-35.2995 3.6258-37.2987 38.9961-37.2987h43.008l16.0012 16.0008h87.01c35.37 0 38.996 5.6244 38.996 40.9239v-2.0001c0-35.2995-3.626-40.9239-38.996-40.9239h-87.01l-16.0012-16.0008z" fill="url(#paint2_radial)" opacity=".4"/>
  <path d="m120.476 52.7737-16.009 16.0009h-48.7502c-35.3703 0-38.9961 3.6243-38.9961 38.9234v2c0-35.299 3.6258-38.9234 38.9961-38.9234h48.7502l16.009-16.0007h81.26c35.37 0 38.996 3.6243 38.996 38.9237v-2.0001c0-35.2994-3.626-38.9238-38.996-38.9238z" fill="url(#paint3_radial)" opacity=".4"/>
  <path d="m240.732 162.779-64.003 64.003h25.007c35.37 0 38.996-3.624 38.996-38.923z" fill="#fff" opacity=".1"/>
  <path d="m16.7207 187.859v2c0 35.299 3.6258 38.923 38.9961 38.923h146.0192c35.37 0 38.996-3.624 38.996-38.923v-2c0 35.299-3.626 38.923-38.996 38.923h-146.0192c-35.3703 0-38.9961-3.624-38.9961-38.923z" fill="#491706" opacity=".2"/>
  <path d="m127.254 92.8076c-12.971 0-25.411 5.0585-34.5824 14.0624-9.1717 9.004-14.3244 21.217-14.3244 33.951s5.1527 24.946 14.3244 33.95c9.1714 9.004 21.6114 14.063 34.5824 14.063s25.41-5.059 34.582-14.063 14.324-21.216 14.324-33.95-5.152-24.947-14.324-33.951c-9.172-9.0039-21.611-14.0624-34.582-14.0624zm-.052 30.3244h.052c2.366 0 4.709.457 6.895 1.346s4.172 2.192 5.846 3.835c1.673 1.642 3 3.592 3.905 5.738.906 2.146 1.372 4.447 1.372 6.77s-.466 4.623-1.372 6.769c-.905 2.146-2.232 4.096-3.905 5.739-1.674 1.642-3.66 2.945-5.846 3.834s-4.529 1.347-6.895 1.347-4.709-.458-6.895-1.347-4.173-2.192-5.846-3.834c-1.673-1.643-3-3.593-3.906-5.739-.905-2.146-1.371-4.446-1.371-6.769 0-4.683 1.891-9.174 5.259-12.49 3.367-3.316 7.937-5.186 12.707-5.199z" fill="url(#paint4_linear)"/>
</svg>
