<svg fill="none" height="256" viewBox="0 0 256 256" width="256" xmlns="http://www.w3.org/2000/svg" xmlns:xlink="http://www.w3.org/1999/xlink">
  <linearGradient id="paint0_linear" gradientUnits="userSpaceOnUse" x1="241" x2="17" y1="50" y2="129">
    <stop offset="0" stop-color="#f0ea4d"/>
    <stop offset=".874098" stop-color="#fc429d"/>
  </linearGradient>
  <linearGradient id="paint1_linear" gradientUnits="userSpaceOnUse" x1="17" x2="241" y1="52.9999" y2="229">
    <stop offset="0" stop-color="#2a2139"/>
    <stop offset="1" stop-color="#413260"/>
  </linearGradient>
  <linearGradient id="lg1">
    <stop offset="0" stop-color="#fff"/>
    <stop offset="1" stop-color="#fff" stop-opacity=".203922"/>
  </linearGradient>
  <radialGradient id="paint2_radial" cx="0" cy="0" gradientTransform="matrix(112.006 0 0 29.4624 128.726 28.7726)" gradientUnits="userSpaceOnUse" r="1" xlink:href="#lg1"/>
  <radialGradient id="paint3_radial" cx="0" cy="0" gradientTransform="matrix(112.006 0 0 28.4623 124.726 64.7744)" gradientUnits="userSpaceOnUse" r="1" xlink:href="#lg1"/>
  <linearGradient id="paint4_linear" gradientUnits="userSpaceOnUse" x1="125.779" x2="125.779" y1="93.1934" y2="189.184">
    <stop offset="0" stop-color="#0fe4f5"/>
    <stop offset="1" stop-color="#eb36ae"/>
  </linearGradient>
  <path d="m55.7169 20.7722c-35.3703 0-38.9961 1.9993-38.9961 37.2987v50.7061h224.0112v-31.0801c0-35.2995-3.626-40.9239-38.996-40.9239h-87.01l-16.0011-16.0008z" fill="url(#paint0_linear)"/>
  <path d="m55.7163 68.7745c-35.3703 0-38.9955 3.6251-38.9955 38.9245v82.159c0 35.299 3.6252 38.924 38.9955 38.924h146.0197c35.371 0 38.996-3.625 38.996-38.924v-98.1597c0-35.2994-3.625-38.9246-38.996-38.9246h-81.26l-16.009 16.0008z" fill="#685f55" opacity=".5"/>
  <path d="m55.7163 68.7745c-35.3703 0-38.9955 3.6252-38.9955 38.9245v82.159c0 35.299 3.6252 38.924 38.9955 38.924h146.0197c35.371 0 38.996-3.625 38.996-38.924v-98.1597c0-35.2994-3.625-38.9246-38.996-38.9246h-81.26l-16.009 16.0008z" fill="url(#paint1_linear)"/>
  <path d="m55.7169 20.7722c-35.3703 0-38.9961 1.9993-38.9961 37.2987v2.0001c0-35.2995 3.6258-37.2987 38.9961-37.2987h43.008l16.0011 16.0008h87.01c35.37 0 38.996 5.6244 38.996 40.9239v-2.0001c0-35.2995-3.626-40.9239-38.996-40.9239h-87.01l-16.0011-16.0008z" fill="url(#paint2_radial)" opacity=".4"/>
  <path d="m120.476 52.7737-16.009 16.0008h-48.7501c-35.3703 0-38.9961 3.6243-38.9961 38.9235v2c0-35.2991 3.6258-38.9234 38.9961-38.9234h48.7501l16.009-16.0008h81.26c35.37 0 38.996 3.6243 38.996 38.9238v-2.0001c0-35.2995-3.626-38.9238-38.996-38.9238z" fill="url(#paint3_radial)" opacity=".4"/>
  <path d="m240.732 162.779-64.003 64.003h25.007c35.37 0 38.996-3.624 38.996-38.923z" fill="#fff" opacity=".1"/>
  <path d="m16.7208 187.859v2c0 35.299 3.6258 38.924 38.9961 38.924h146.0191c35.37 0 38.996-3.625 38.996-38.924v-2c0 35.299-3.626 38.923-38.996 38.923h-146.0191c-35.3703 0-38.9961-3.624-38.9961-38.923z" fill="#491706" opacity=".2"/>
  <path d="m148.734 93.1934c-29.919 0-54.2633 24.3446-54.2633 54.2636v4.17h8.3473v-4.17c0-25.408 20.509-45.918 45.916-45.918h4.176v-8.3456zm0 16.6956c-20.698 0-37.566 16.87-37.566 37.568v4.17h8.346v-4.17c0-16.187 13.034-29.223 29.22-29.223h4.176v-8.345zm0 16.697c-11.477 0-20.871 9.394-20.871 20.871v4.17h8.346v-4.17c0-6.965 5.56-12.525 12.525-12.525h4.176v-8.346zm2.088 16.693c-.822 0-1.636.162-2.396.477s-1.45.776-2.031 1.357c-.582.582-1.043 1.272-1.358 2.032-.315.759-.476 1.574-.476 2.396s.161 1.637.476 2.396c.315.76.776 1.45 1.358 2.032.581.581 1.271 1.042 2.031 1.357s1.574.477 2.396.477c.823 0 1.637-.162 2.397-.477.759-.315 1.45-.776 2.031-1.357.581-.582 1.043-1.272 1.357-2.032.315-.759.477-1.574.477-2.396s-.162-1.637-.477-2.396c-.314-.76-.776-1.45-1.357-2.032-.581-.581-1.272-1.042-2.031-1.357-.76-.315-1.574-.477-2.397-.477zm-6.258 20.86v25.045h12.524v-25.045z" fill="url(#paint4_linear)"/>
</svg>
