<svg width="256" height="256" viewBox="0 0 256 256" fill="none" xmlns="http://www.w3.org/2000/svg">
    <g id="folder-yaru-javascript">
        <path id="secondario" d="M55.7169 20.7722C20.3466 20.7722 16.7208 22.7715 16.7208 58.0709V108.777H240.732V77.6969C240.732 42.3974 237.106 36.773 201.736 36.773H114.726L98.7249 20.7722H55.7169Z" fill="url(#paint0_linear)"/>
        <path id="ombra" opacity="0.5" d="M55.7163 68.7745C20.346 68.7745 16.7208 72.3996 16.7208 107.699V189.858C16.7208 225.157 20.346 228.782 55.7163 228.782H201.736C237.107 228.782 240.732 225.157 240.732 189.858V91.6983C240.732 56.3989 237.107 52.7737 201.736 52.7737H120.476L104.467 68.7745H55.7163Z" fill="#4C1A35"/>
        <path id="primario" d="M55.7163 68.7745C20.346 68.7745 16.7208 72.3997 16.7208 107.699V189.858C16.7208 225.157 20.346 228.782 55.7163 228.782H201.736C237.107 228.782 240.732 225.157 240.732 189.858V91.6983C240.732 56.3989 237.107 52.7737 201.736 52.7737H120.476L104.467 68.7745H55.7163Z" fill="url(#paint1_linear)"/>
        <path id="contorno superiore del secondario" opacity="0.4" d="M55.7169 20.7722C20.3466 20.7722 16.7208 22.7715 16.7208 58.0709V60.071C16.7208 24.7715 20.3466 22.7723 55.7169 22.7723H98.7249L114.726 38.7731H201.736C237.106 38.7731 240.732 44.3975 240.732 79.697V77.6969C240.732 42.3974 237.106 36.773 201.736 36.773H114.726L98.7249 20.7722H55.7169Z" fill="url(#paint2_radial)"/>
        <path id="contorno superiore del primario" opacity="0.4" d="M120.476 52.7737L104.467 68.7745H55.7169C20.3466 68.7745 16.7208 72.3988 16.7208 107.698V109.698C16.7208 74.3989 20.3466 70.7746 55.7169 70.7746H104.467L120.476 54.7738H201.736C237.106 54.7738 240.732 58.3981 240.732 93.6976V91.6975C240.732 56.398 237.106 52.7737 201.736 52.7737H120.476Z" fill="url(#paint3_radial)"/>
        <path id="effetto piega" opacity="0.1" d="M240.732 162.779L176.729 226.782H201.736C237.106 226.782 240.732 223.158 240.732 187.859V162.779Z" fill="white"/>
        <path id="contorno inferiore del primario" opacity="0.2" d="M16.7208 187.859V189.859C16.7208 225.158 20.3466 228.783 55.7169 228.783H201.736C237.106 228.783 240.732 225.158 240.732 189.859V187.859C240.732 223.158 237.106 226.782 201.736 226.782H55.7169C20.3466 226.782 16.7208 223.158 16.7208 187.859V187.859Z" fill="#491706"/>
        <path id="javascript" d="M76.3431 95.3264C76.3431 93.1173 78.1339 91.3264 80.3431 91.3264H172.343C174.552 91.3264 176.343 93.1173 176.343 95.3264V187.326C176.343 189.535 174.552 191.326 172.343 191.326H80.3431C78.1339 191.326 76.3431 189.535 76.3431 187.326V95.3264ZM168.149 167.476C167.421 162.915 164.449 159.082 155.637 155.504C152.571 154.065 149.165 153.07 148.143 150.759C147.765 149.382 147.71 148.637 147.954 147.82C148.582 145.132 151.771 144.326 154.271 145.07C155.899 145.57 157.399 146.82 158.337 148.826C162.643 146.009 162.643 146.009 165.649 144.137C164.521 142.393 163.96 141.632 163.21 140.882C160.582 137.948 157.082 136.448 151.399 136.576L148.465 136.948C145.649 137.637 142.96 139.143 141.337 141.137C136.587 146.515 137.96 155.887 143.71 159.77C149.393 164.02 157.715 164.954 158.776 168.954C159.776 173.832 155.154 175.393 150.582 174.832C147.21 174.076 145.332 172.393 143.271 169.265L135.649 173.643C136.521 175.637 137.521 176.515 139.021 178.265C146.271 185.576 164.399 185.204 167.649 174.076C167.765 173.704 168.649 171.143 167.96 167.204L168.149 167.476ZM130.721 137.287H121.354C121.354 145.359 121.315 153.387 121.315 161.476C121.315 166.609 121.576 171.32 120.737 172.77C119.365 175.643 115.815 175.276 114.21 174.765C112.56 173.954 111.721 172.826 110.749 171.204C110.487 170.77 110.293 170.393 110.221 170.393L102.621 175.082C103.893 177.709 105.749 179.965 108.143 181.398C111.704 183.526 116.487 184.215 121.499 183.093C124.765 182.148 127.582 180.209 129.043 177.209C131.176 173.337 130.721 168.582 130.704 163.27C130.749 154.709 130.704 146.143 130.704 137.52L130.721 137.287Z" fill="#DDCAD4"/>
    </g>
    <defs>
        <radialGradient id="paint2_radial" cx="0" cy="0" r="1" gradientUnits="userSpaceOnUse" gradientTransform="translate(128.726 28.7726) scale(112.006 29.4624)">
            <stop stop-color="white"/>
            <stop offset="1" stop-color="white" stop-opacity="0.203922"/>
        </radialGradient>
        <radialGradient id="paint3_radial" cx="0" cy="0" r="1" gradientUnits="userSpaceOnUse" gradientTransform="translate(124.726 64.7744) scale(112.006 28.4623)">
            <stop stop-color="white"/>
            <stop offset="1" stop-color="white" stop-opacity="0.203922"/>
        </radialGradient>
        <linearGradient id="paint0_linear" x1="241" y1="50" x2="17" y2="129" gradientUnits="userSpaceOnUse">
            <stop stop-color="#853E64"/>
            <stop offset="0.874098" stop-color="#E77727"/>
        </linearGradient>
        <linearGradient id="paint1_linear" x1="17" y1="52.9999" x2="241" y2="229" gradientUnits="userSpaceOnUse">
            <stop stop-color="#AD7F98"/>
            <stop offset="1" stop-color="#925475"/>
        </linearGradient>
    </defs>
</svg>
