<svg fill="none" height="256" viewBox="0 0 256 256" width="256" xmlns="http://www.w3.org/2000/svg" xmlns:xlink="http://www.w3.org/1999/xlink">
  <linearGradient id="paint0_linear" gradientUnits="userSpaceOnUse" x1="241" x2="17" y1="50" y2="129">
    <stop offset="0" stop-color="#f0ea4d"/>
    <stop offset=".874098" stop-color="#fc429d"/>
  </linearGradient>
  <linearGradient id="paint1_linear" gradientUnits="userSpaceOnUse" x1="17" x2="241" y1="53" y2="229">
    <stop offset="0" stop-color="#2a2139"/>
    <stop offset="1" stop-color="#413260"/>
  </linearGradient>
  <linearGradient id="lg1">
    <stop offset="0" stop-color="#fff"/>
    <stop offset="1" stop-color="#fff" stop-opacity=".203922"/>
  </linearGradient>
  <radialGradient id="paint2_radial" cx="0" cy="0" gradientTransform="matrix(112.006 0 0 29.4624 128.726 28.7726)" gradientUnits="userSpaceOnUse" r="1" xlink:href="#lg1"/>
  <radialGradient id="paint3_radial" cx="0" cy="0" gradientTransform="matrix(112.006 0 0 28.4623 124.726 64.7745)" gradientUnits="userSpaceOnUse" r="1" xlink:href="#lg1"/>
  <linearGradient id="paint4_linear" gradientUnits="userSpaceOnUse" x1="126.292" x2="126.292" y1="88.9194" y2="188.919">
    <stop offset="0" stop-color="#0fe4f5"/>
    <stop offset="1" stop-color="#eb36ae"/>
  </linearGradient>
  <path d="m55.7169 20.7722c-35.3703 0-38.9961 1.9993-38.9961 37.2987v50.7061h224.0112v-31.0801c0-35.2995-3.626-40.9239-38.996-40.9239h-87.01l-16.0011-16.0008z" fill="url(#paint0_linear)"/>
  <path d="m55.7163 68.7746c-35.3703 0-38.9955 3.6251-38.9955 38.9244v82.159c0 35.299 3.6252 38.924 38.9955 38.924h146.0197c35.371 0 38.996-3.625 38.996-38.924v-98.1596c0-35.2994-3.625-38.9246-38.996-38.9246h-81.26l-16.009 16.0008z" fill="#685f55" opacity=".5"/>
  <path d="m55.7163 68.7746c-35.3703 0-38.9955 3.6252-38.9955 38.9244v82.159c0 35.299 3.6252 38.924 38.9955 38.924h146.0197c35.371 0 38.996-3.625 38.996-38.924v-98.1596c0-35.2994-3.625-38.9246-38.996-38.9246h-81.26l-16.009 16.0008z" fill="url(#paint1_linear)"/>
  <path d="m55.7169 20.7722c-35.3703 0-38.9961 1.9993-38.9961 37.2987v2.0001c0-35.2995 3.6258-37.2987 38.9961-37.2987h43.008l16.0011 16.0008h87.01c35.37 0 38.996 5.6244 38.996 40.9239v-2.0001c0-35.2995-3.626-40.9239-38.996-40.9239h-87.01l-16.0011-16.0008z" fill="url(#paint2_radial)" opacity=".4"/>
  <path d="m120.476 52.7738-16.009 16.0008h-48.7501c-35.3703 0-38.9961 3.6243-38.9961 38.9234v2c0-35.299 3.6258-38.9233 38.9961-38.9233h48.7501l16.009-16.0008h81.26c35.37 0 38.996 3.6243 38.996 38.9238v-2.0001c0-35.2995-3.626-38.9238-38.996-38.9238z" fill="url(#paint3_radial)" opacity=".4"/>
  <path d="m240.732 162.779-64.003 64.003h25.007c35.37 0 38.996-3.624 38.996-38.923z" fill="#fff" opacity=".1"/>
  <path d="m16.7208 187.859v2c0 35.299 3.6258 38.923 38.9961 38.923h146.0191c35.37 0 38.996-3.624 38.996-38.923v-2c0 35.299-3.626 38.923-38.996 38.923h-146.0191c-35.3703 0-38.9961-3.624-38.9961-38.923z" fill="#491706" opacity=".2"/>
  <path d="m101.292 163.919c0 2.292 1.875 4.167 4.166 4.167h4.167v14.583c0 3.458 2.792 6.25 6.25 6.25s6.25-2.792 6.25-6.25v-14.583h8.333v14.583c0 3.458 2.792 6.25 6.25 6.25 3.459 0 6.25-2.792 6.25-6.25v-14.583h4.167c2.292 0 4.167-1.875 4.167-4.167v-41.667h-50zm-10.4168-41.667c-3.4584 0-6.25 2.792-6.25 6.25v29.167c0 3.458 2.7916 6.25 6.25 6.25 3.4583 0 6.25-2.792 6.25-6.25v-29.167c0-3.458-2.7917-6.25-6.25-6.25zm70.8328 0c-3.458 0-6.25 2.792-6.25 6.25v29.167c0 3.458 2.792 6.25 6.25 6.25 3.459 0 6.25-2.792 6.25-6.25v-29.167c0-3.458-2.791-6.25-6.25-6.25zm-20.708-24.3326 5.417-5.4167c.833-.8333.833-2.125 0-2.9583-.834-.8333-2.125-.8333-2.959 0l-6.166 6.1667c-3.41-1.7268-7.178-2.626-11-2.625-4 0-7.75.9583-11.084 2.625l-6.208-6.1667c-.833-.8333-2.125-.8333-2.958 0-.834.8333-.834 2.125 0 2.9583l5.458 5.4587c-3.164 2.3146-5.738 5.3436-7.512 8.8406-1.773 3.497-2.697 7.363-2.696 11.284h50c0-8.292-4.042-15.625-10.292-20.1666zm-23.042 11.8326h-4.166v-4.166h4.166zm20.834 0h-4.167v-4.166h4.167z" fill="url(#paint4_linear)"/>
</svg>
