<svg height="256" viewBox="0 0 67.73 67.73" width="256" version="1.1">
   <radialGradient id="contorno_primario" cx="148" cy="39.684" gradientTransform="matrix(0.26458333,0,0,0.06723474,-6.1595,14.469263)" gradientUnits="userSpaceOnUse" r="112" xlink:href="#linearGradient1361"/>
   <linearGradient id="linearGradient1361">
      <stop offset="0" stop-color="#fff" id="stop3"/>
      <stop offset="1" stop-color="#fff" stop-opacity=".203922" id="stop5"/>
   </linearGradient>
   <radialGradient id="contorno_secondario" cx="152" cy="-.126" gradientTransform="matrix(0.26458333,0,0,0.06959709,-6.1595,7.621143)" gradientUnits="userSpaceOnUse" r="112" xlink:href="#linearGradient1361"/>
   <linearGradient id="primario" gradientUnits="userSpaceOnUse" x1="30.220708" x2="30.220708" y1="241.734512" y2="288.731125" gradientTransform="translate(0,-227.722527)">
      <stop offset="0" stop-color="#a7a7f1" id="stop9"/>
      <stop offset="1" stop-color="		#8f76e4" id="stop11"/>
   </linearGradient>
   <filter id="prima_ombra" color-interpolation-filters="sRGB" height="1.136" width="1.107" x="-.05" y="-.07">
      <feGaussianBlur stdDeviation="5" id="feGaussianBlur14"/>
   </filter>
   <linearGradient id="linearGradient2583" gradientUnits="userSpaceOnUse" x1="236.72" x2="20.72" y1="213.228801" y2="13.228801">
      <stop offset="0" id="stop17"/>
      <stop offset=".159" stop-opacity=".4329" id="stop19"/>
      <stop offset=".194" stop-opacity=".099567" id="stop21"/>
      <stop offset="1" stop-opacity="0" id="stop23"/>
   </linearGradient>
   <filter id="filter1067" color-interpolation-filters="sRGB" height="1.127" width="1.114" x="-.06" y="-.06">
      <feGaussianBlur stdDeviation="5.3" id="feGaussianBlur26"/>
   </filter>
   <filter id="seconda_ombra" color-interpolation-filters="sRGB" height="1.025" width="1.023" x="-.01" y="-.01">
      <feGaussianBlur stdDeviation="1.06" id="feGaussianBlur29"/>
   </filter>
   <path id="ombra_secondaria"                  fill="none"                         filter="url(#seconda_ombra)" opacity="0.1" transform="matrix(0.26458333,0,0,0.26458333,1.058333,1.995593)" d="m 51.714141,14.228801 c -35.36853,0 -38.994141,1.999146 -38.994141,37.296875 v 41.625005 60.656239 29.5 c 0,35.29774 3.625611,38.92188 38.994141,38.92188 h 146.011719 c 35.36853,0 38.99414,-3.62414 38.99414,-38.92188 v -29.5 -76.656239 -6 c 0,-35.297735 -3.62561,-40.92188 -38.99414,-40.92188 h -87.00586 l -16,-16 z"/>
   <path id="secondario"                        fill="#8c59d0"                      filter="none"                opacity="1.0" d="m 14.741034,5.495713 c -9.3579237,0 -10.3172007,0.52894 -10.3172007,9.86813 v 13.4152 h 59.2666667 v -8.22275 c 0,-9.33919 -0.959276,-10.82725 -10.3172,-10.82725 h -23.0203 l -4.233333,-4.23333 z"/>
   <path id="ombra"                             fill="#642f99"                      filter="url(#prima_ombra)"   opacity="0.5" transform="matrix(0.26458333,0,0,0.26458333,-6.1595,-6.145957)"  d="m 78.99353,92 c -35.36853,0 -38.99353,3.625 -38.99353,38.92273 v 82.15454 c 0,35.29773 3.625,38.92273 38.99353,38.92273 h 146.01294 c 35.36853,0 38.99353,-3.625 38.99353,-38.92273 v -98.15454 c 0,-35.29773 -3.625,-38.92273 -38.99353,-38.92273 h -81.25647 l -16.00782,16 z"/>
   <path id="primario"                          fill="url(#primario)"               filter="none"                opacity="1.0" d="m 14.740872,18.195713 c -9.3579237,0 -10.3170387,0.95911 -10.3170387,10.2983 v 21.73672 c 0,9.3392 0.959115,10.29831 10.3170387,10.29831 h 38.63259 c 9.357923,0 10.317038,-0.95911 10.317038,-10.29831 v -25.97005 c 0,-9.33919 -0.959115,-10.29831 -10.317038,-10.29831 h -21.499108 l -4.235401,4.23334 z"/>
   <path id="contorno_superiore_del_secondario" fill="url(#contorno_secondario)"    filter="none"                opacity="0.4" d="m 14.741034,5.495713 c -9.3579237,0 -10.3172007,0.52894 -10.3172007,9.86813 v 0.52917 c 0,-9.3392 0.959277,-9.86814 10.3172007,-9.86814 h 11.378633 l 4.233333,4.23334 h 23.0203 c 9.357924,0 10.3172,1.48805 10.3172,10.82724 v -0.52916 c 0,-9.3392 -0.959276,-10.82725 -10.3172,-10.82725 h -23.0203 l -4.233333,-4.23333 z"/>
   <path id="contorno_superiore_del_primario"   fill="url(#contorno_primario)"      filter="none"                opacity="0.4" d="m 31.874354,13.962373 -4.235399,4.23334 h -12.897921 c -9.3579237,0 -10.3172007,0.95889 -10.3172007,10.29808 v 0.52916 c 0,-9.33919 0.959277,-10.29808 10.3172007,-10.29808 h 12.897921 l 4.235399,-4.23333 h 21.498946 c 9.357924,0 10.3172,0.95889 10.3172,10.29808 v -0.52917 c 0,-9.33919 -0.959276,-10.29808 -10.3172,-10.29808 z"/>
   <path id="effetto_piega"                     fill="#ffffff"                      filter="none"                opacity="0.1" d="m 63.6905,43.066543 -16.933334,16.93333 h 6.616134 c 9.357924,0 10.3172,-0.95888 10.3172,-10.29808 z"/>
   <path id="contorno_inferiore_del_primario"   fill="#491706"                      filter="none"                opacity="0.2" d="m 4.4238333,49.701793 v 0.52917 c 0,9.33919 0.959277,10.29808 10.3172007,10.29808 h 38.632266 c 9.357924,0 10.3172,-0.95889 10.3172,-10.29808 v -0.52917 c 0,9.3392 -0.959276,10.29808 -10.3172,10.29808 h -38.632266 c -9.3579237,0 -10.3172007,-0.95888 -10.3172007,-10.29808 z"/>
   <path id="heroku"                            fill="#dcdef5"                      filter="none"                opacity="1.0" d="m 43.09084778,23.83419424 h -18.98289346 c -0.31311897,0 -0.62340703,0.0591571 -0.91295278,0.17829307 -0.28954575,0.11916247 -0.55263447,0.29449322 -0.77402691,0.51588566 -0.22139243,0.22141889 -0.39672318,0.48448115 -0.51588565,0.7740269 -0.11913601,0.28954575 -0.17829307,0.59983381 -0.17829307,0.91292632 v 21.69582391 c 0,0.31298668 0.0593952,0.62332767 0.17861056,0.91276758 0.11921538,0.28943992 0.29457258,0.55215824 0.51596502,0.7736036 0.22139244,0.22118077 0.48440178,0.39659089 0.77389462,0.51564754 0.28946638,0.11905664 0.59967507,0.17964325 0.91268821,0.17805582 h 18.98289346 c 0.31298668,0.001323 0.62306309,-0.0592637 0.91223844,-0.17858497 0.28943992,-0.11905663 0.55242281,-0.29420219 0.7736036,-0.51564753 0.22118077,-0.22118079 0.39659089,-0.48416367 0.51564753,-0.77333903 0.11932123,-0.28943991 0.17990782,-0.59951633 0.17858498,-0.91250301 v -21.69582391 c 0.001587,-0.31303959 -0.0589992,-0.6233012 -0.17779125,-0.91284695 -0.11905664,-0.28954575 -0.29446676,-0.55260801 -0.51564755,-0.7740269 -0.22144534,-0.2214189 -0.48442824,-0.3967761 -0.77386815,-0.51593857 -0.28943993,-0.11916247 -0.59978091,-0.17831953 -0.9127676,-0.17831953 z m 1.05828125,24.07695586 c 0,0.59422493 -0.46405633,1.05828125 -1.05828125,1.05828125 h -18.98289346 c -0.13948147,0.001852 -0.2778782,-0.0243405 -0.40709434,-0.07699 -0.12918969,-0.0523849 -0.24655308,-0.13043318 -0.34518489,-0.22885332 -0.0986318,-0.0986847 -0.17652131,-0.21615395 -0.22906498,-0.34526426 -0.0525701,-0.12911031 -0.0787097,-0.26774517 -0.0769371,-0.40717372 v -21.69582391 c 0,-0.59525674 0.46299805,-1.05936599 1.05828125,-1.05936599 h 18.98289347 c 0.13942855,-0.001482 0.27779884,0.0249225 0.40690914,0.0776514 0.12911031,0.0527289 0.24657954,0.13072419 0.3449997,0.22940892 0.0986847,0.0986847 0.17646839,0.21607458 0.22911789,0.34526426 0.0526495,0.12918968 0.078842,0.26758641 0.0772545,0.40704142 z m -16.46950194,-1.58953844 2.97641601,-2.64464483 -2.97641601,-2.64570313 z m 10.71509765,-10.71403937 c -0.52808235,-0.52914063 -1.52022102,-1.19056641 -3.17378548,-1.19056641 -1.78690789,0 -3.63890008,0.46405633 -4.96069335,0.92599609 v -7.5402539 h -2.64570313 v 11.44266601 l 1.8519922,-0.85985351 c 0,0 3.04255858,-1.38899414 5.6882617,-1.38899414 1.32285157,0 1.65356446,0.72756836 1.65356446,1.38899414 v 7.93710938 h 2.64570312 v -7.93710938 c 0.0650843,-0.19736944 0.0650843,-1.65462274 -1.05933952,-2.77798828 z m -3.50555665,-3.50555664 h 2.64570313 c 1.19056641,-1.38899415 1.7858496,-2.77904657 1.98427735,-4.29926758 h -2.64464485 c -0.2656286,1.52022101 -0.92705438,2.91027343 -1.98533563,4.29926758 z"/>
</svg>