<svg fill="none" height="256" viewBox="0 0 256 256" width="256" xmlns="http://www.w3.org/2000/svg" xmlns:xlink="http://www.w3.org/1999/xlink">
  <linearGradient id="paint0_linear" gradientUnits="userSpaceOnUse" x1="241" x2="17" y1="50" y2="129">
    <stop offset="0" stop-color="#f0ea4d"/>
    <stop offset=".874098" stop-color="#fc429d"/>
  </linearGradient>
  <linearGradient id="paint1_linear" gradientUnits="userSpaceOnUse" x1="17" x2="241" y1="53" y2="229">
    <stop offset="0" stop-color="#2a2139"/>
    <stop offset="1" stop-color="#413260"/>
  </linearGradient>
  <linearGradient id="lg1">
    <stop offset="0" stop-color="#fff"/>
    <stop offset="1" stop-color="#fff" stop-opacity=".203922"/>
  </linearGradient>
  <radialGradient id="paint2_radial" cx="0" cy="0" gradientTransform="matrix(112.006 0 0 29.4624 128.726 28.7726)" gradientUnits="userSpaceOnUse" r="1" xlink:href="#lg1"/>
  <radialGradient id="paint3_radial" cx="0" cy="0" gradientTransform="matrix(112.006 0 0 28.4623 124.726 64.7745)" gradientUnits="userSpaceOnUse" r="1" xlink:href="#lg1"/>
  <linearGradient id="lg2">
    <stop offset="0" stop-color="#0fe4f5"/>
    <stop offset="1" stop-color="#eb36ae"/>
  </linearGradient>
  <linearGradient id="paint4_linear" gradientUnits="userSpaceOnUse" x1="128.182" x2="128.182" xlink:href="#lg2" y1="92.7231" y2="187.723"/>
  <linearGradient id="paint5_linear" gradientUnits="userSpaceOnUse" x1="114.611" x2="114.611" xlink:href="#lg2" y1="153.795" y2="160.58"/>
  <path d="m55.7169 20.7722c-35.3703 0-38.9961 1.9993-38.9961 37.2987v50.7061h224.0112v-31.0801c0-35.2995-3.626-40.9239-38.996-40.9239h-87.01l-16.0011-16.0008z" fill="url(#paint0_linear)"/>
  <path d="m55.7163 68.7746c-35.3703 0-38.9955 3.6251-38.9955 38.9244v82.159c0 35.299 3.6252 38.924 38.9955 38.924h146.0197c35.371 0 38.996-3.625 38.996-38.924v-98.1596c0-35.2994-3.625-38.9246-38.996-38.9246h-81.26l-16.009 16.0008z" fill="#685f55" opacity=".5"/>
  <path d="m55.7163 68.7746c-35.3703 0-38.9955 3.6252-38.9955 38.9244v82.159c0 35.299 3.6252 38.924 38.9955 38.924h146.0197c35.371 0 38.996-3.625 38.996-38.924v-98.1596c0-35.2994-3.625-38.9246-38.996-38.9246h-81.26l-16.009 16.0008z" fill="url(#paint1_linear)"/>
  <path d="m55.7169 20.7722c-35.3703 0-38.9961 1.9993-38.9961 37.2987v2.0001c0-35.2995 3.6258-37.2987 38.9961-37.2987h43.008l16.0011 16.0008h87.01c35.37 0 38.996 5.6244 38.996 40.9239v-2.0001c0-35.2995-3.626-40.9239-38.996-40.9239h-87.01l-16.0011-16.0008z" fill="url(#paint2_radial)" opacity=".4"/>
  <path d="m120.476 52.7738-16.009 16.0008h-48.7501c-35.3703 0-38.9961 3.6243-38.9961 38.9234v2c0-35.299 3.6258-38.9233 38.9961-38.9233h48.7501l16.009-16.0008h81.26c35.37 0 38.996 3.6243 38.996 38.9238v-2.0001c0-35.2995-3.626-38.9238-38.996-38.9238z" fill="url(#paint3_radial)" opacity=".4"/>
  <path d="m240.732 162.779-64.003 64.003h25.007c35.37 0 38.996-3.624 38.996-38.923z" fill="#fff" opacity=".1"/>
  <path d="m16.7208 187.859v2c0 35.299 3.6258 38.923 38.9961 38.923h146.0191c35.37 0 38.996-3.624 38.996-38.923v-2c0 35.299-3.626 38.923-38.996 38.923h-146.0191c-35.3703 0-38.9961-3.624-38.9961-38.923z" fill="#491706" opacity=".2"/>
  <path d="m119.74 92.7231c-3.29 6.8543-6.447 13.7969-9.463 20.8339-3.016 6.946-6.077 14.258-9.184 21.935-1.4241 3.624-2.9374 7.69-4.4006 11.517h-5.8315c-5.6389 0-10.1785 4.539-10.1785 10.178 0 5.03 3.6209 9.154 8.4026 9.993-2.4503 6.575-4.8958 13.123-7.5942 20.543h18.0378l7.2494-20.357h49.939c.828 2.301 1.638 4.56 2.491 6.918 1.554 4.296 3.194 8.778 4.931 13.439h10.284c-2.784-7.335-5.263-13.907-7.74-20.476 5.072-.589 8.999-4.825 8.999-10.06 0-5.639-4.539-10.178-10.178-10.178h-6.587c-1.463-3.746-2.931-7.585-4.374-11.106-3.016-7.677-6.036-15.03-9.052-22.067s-6.214-14.0758-9.595-21.1129h-8.124zm11.769 10.6959c3.473 7.859 6.862 15.854 10.152 23.988 2.45 6.058 5.004 12.834 7.554 19.602h-35.187c2.161-5.959 4.322-11.908 6.481-17.548 2.335-5.983 4.753-11.759 7.263-17.335v-.106c1.235-2.885 2.478-5.751 3.737-8.601zm-40.6481 50.376h26.6921 20.808 27.593c1.631 0 2.943 1.311 2.943 2.942v.901c0 1.63-1.312 2.942-2.943 2.942h-27.593-20.808-26.6921c-1.8796 0-3.3928-1.513-3.3928-3.393 0-1.879 1.5132-3.392 3.3928-3.392z" fill="url(#paint4_linear)"/>
  <path d="m90.8611 153.795h47.4999c1.874 0 3.393 1.519 3.393 3.393 0 1.873-1.519 3.392-3.393 3.392h-47.4999c-1.8738 0-3.3928-1.519-3.3928-3.392 0-1.874 1.519-3.393 3.3928-3.393z" fill="url(#paint5_linear)" opacity=".5"/>
</svg>
