<svg fill="none" height="256" viewBox="0 0 256 256" width="256" xmlns="http://www.w3.org/2000/svg" xmlns:xlink="http://www.w3.org/1999/xlink">
  <linearGradient id="paint0_linear" gradientUnits="userSpaceOnUse" x1="241" x2="17" y1="50" y2="129">
    <stop offset="0" stop-color="#f0ea4d"/>
    <stop offset=".874098" stop-color="#fc429d"/>
  </linearGradient>
  <linearGradient id="paint1_linear" gradientUnits="userSpaceOnUse" x1="17" x2="241" y1="52.9999" y2="229">
    <stop offset="0" stop-color="#2a2139"/>
    <stop offset="1" stop-color="#413260"/>
  </linearGradient>
  <linearGradient id="lg1">
    <stop offset="0" stop-color="#fff"/>
    <stop offset="1" stop-color="#fff" stop-opacity=".203922"/>
  </linearGradient>
  <radialGradient id="paint2_radial" cx="0" cy="0" gradientTransform="matrix(112.006 0 0 29.4624 128.726 28.7726)" gradientUnits="userSpaceOnUse" r="1" xlink:href="#lg1"/>
  <radialGradient id="paint3_radial" cx="0" cy="0" gradientTransform="matrix(112.006 0 0 28.4623 124.726 64.7744)" gradientUnits="userSpaceOnUse" r="1" xlink:href="#lg1"/>
  <linearGradient id="paint4_linear" gradientUnits="userSpaceOnUse" x1="126.336" x2="126.336" y1="91.9292" y2="192.929">
    <stop offset="0" stop-color="#0fe4f5"/>
    <stop offset="1" stop-color="#eb36ae"/>
  </linearGradient>
  <path d="m55.7169 20.7722c-35.3703 0-38.9961 1.9993-38.9961 37.2987v50.7061h224.0112v-31.0801c0-35.2995-3.626-40.9239-38.996-40.9239h-87.01l-16.0011-16.0008z" fill="url(#paint0_linear)"/>
  <path d="m55.7163 68.7745c-35.3703 0-38.9955 3.6251-38.9955 38.9245v82.159c0 35.299 3.6252 38.924 38.9955 38.924h146.0197c35.371 0 38.996-3.625 38.996-38.924v-98.1597c0-35.2994-3.625-38.9246-38.996-38.9246h-81.26l-16.009 16.0008z" fill="#685f55" opacity=".5"/>
  <path d="m55.7163 68.7745c-35.3703 0-38.9955 3.6252-38.9955 38.9245v82.159c0 35.299 3.6252 38.924 38.9955 38.924h146.0197c35.371 0 38.996-3.625 38.996-38.924v-98.1597c0-35.2994-3.625-38.9246-38.996-38.9246h-81.26l-16.009 16.0008z" fill="url(#paint1_linear)"/>
  <path d="m55.7169 20.7722c-35.3703 0-38.9961 1.9993-38.9961 37.2987v2.0001c0-35.2995 3.6258-37.2987 38.9961-37.2987h43.008l16.0011 16.0008h87.01c35.37 0 38.996 5.6244 38.996 40.9239v-2.0001c0-35.2995-3.626-40.9239-38.996-40.9239h-87.01l-16.0011-16.0008z" fill="url(#paint2_radial)" opacity=".4"/>
  <path d="m120.476 52.7737-16.009 16.0008h-48.7501c-35.3703 0-38.9961 3.6243-38.9961 38.9235v2c0-35.2991 3.6258-38.9234 38.9961-38.9234h48.7501l16.009-16.0008h81.26c35.37 0 38.996 3.6243 38.996 38.9238v-2.0001c0-35.2995-3.626-38.9238-38.996-38.9238z" fill="url(#paint3_radial)" opacity=".4"/>
  <path d="m240.732 162.779-64.003 64.003h25.007c35.37 0 38.996-3.624 38.996-38.923z" fill="#fff" opacity=".1"/>
  <path d="m16.7208 187.859v2c0 35.299 3.6258 38.924 38.9961 38.924h146.0191c35.37 0 38.996-3.625 38.996-38.924v-2c0 35.299-3.626 38.923-38.996 38.923h-146.0191c-35.3703 0-38.9961-3.624-38.9961-38.923z" fill="#491706" opacity=".2"/>
  <path d="m94.7733 91.9292v25.2498.161c-4.7312.113-8.9048.433-12.2305 2.268-2.3758 1.311-4.2497 3.531-5.2891 6.3-1.0395 2.769-1.4179 6.058-1.4179 10.209v18.937c0 4.151.3781 7.44 1.4179 10.209 1.0394 2.769 2.9133 4.989 5.2891 6.3 1.7819.983 3.7815 1.473 5.918 1.812v-6.473c-1.1818-.224-2.1919-.5-2.8727-.875-1.1578-.639-1.8129-1.343-2.4288-2.984-.6158-1.64-1.011-4.249-1.011-7.989v-18.937c0-3.74.3952-6.349 1.011-7.99.6161-1.64 1.271-2.344 2.4288-2.983 2.3101-1.275 7.5532-1.559 15.4979-1.652h50.5c7.944.092 13.175.377 15.485 1.652 1.158.639 1.825 1.343 2.441 2.983.616 1.641 1.011 4.25 1.011 7.99v18.937c0 3.74-.395 6.349-1.011 7.989-.616 1.641-1.283 2.345-2.441 2.984-.679.374-1.684.652-2.86.875v6.473c2.136-.339 4.136-.829 5.918-1.812 2.376-1.311 4.249-3.531 5.289-6.3s1.418-6.058 1.418-10.209v-18.937c0-4.151-.378-7.44-1.418-10.209-1.039-2.769-2.913-4.989-5.289-6.3-3.326-1.835-7.499-2.156-12.231-2.269v-.16-25.2498zm6.3127 6.3126h50.5v18.9372h-50.5zm59.969 31.5622c-.415 0-.825.082-1.208.241-.383.158-.731.391-1.024.684s-.526.641-.684 1.024c-.159.383-.241.793-.241 1.208 0 .414.082.824.241 1.207.158.383.391.731.684 1.024s.641.526 1.024.685c.383.158.793.24 1.208.24.414 0 .824-.082 1.207-.24.383-.159.731-.392 1.024-.685s.526-.641.685-1.024c.158-.383.24-.793.24-1.207 0-.415-.082-.825-.24-1.208-.159-.383-.392-.731-.685-1.024s-.641-.526-1.024-.684c-.383-.159-.793-.241-1.207-.241zm-66.2817 25.25v3.157 34.718h63.1247v-34.718-3.157h-6.312v3.157 28.406h-50.5v-28.406-3.157zm12.6247 6.313v6.312h37.875v-6.312zm0 12.625v6.312h37.875v-6.312z" fill="url(#paint4_linear)"/>
</svg>
