<svg height="256" viewBox="0 0 67.73 67.73" width="256" version="1.1">
   <radialGradient id="contorno_primario" cx="148" cy="39.684" gradientTransform="matrix(0.26458333,0,0,0.06723474,-6.1595,14.469263)" gradientUnits="userSpaceOnUse" r="112" xlink:href="#linearGradient1361"/>
   <linearGradient id="linearGradient1361">
      <stop offset="0" stop-color="#fff" id="stop3"/>
      <stop offset="1" stop-color="#fff" stop-opacity=".203922" id="stop5"/>
   </linearGradient>
   <radialGradient id="contorno_secondario" cx="152" cy="-.126" gradientTransform="matrix(0.26458333,0,0,0.06959709,-6.1595,7.621143)" gradientUnits="userSpaceOnUse" r="112" xlink:href="#linearGradient1361"/>
   <linearGradient id="primario" gradientUnits="userSpaceOnUse" x1="30.220708" x2="30.220708" y1="241.734512" y2="288.731125" gradientTransform="translate(0,-227.722527)">
      <stop offset="0" stop-color="#517D40" id="stop9"/>
      <stop offset="1" stop-color="		#7aaf65" id="stop11"/>
   </linearGradient>
   <filter id="prima_ombra" color-interpolation-filters="sRGB" height="1.136" width="1.107" x="-.05" y="-.07">
      <feGaussianBlur stdDeviation="5" id="feGaussianBlur14"/>
   </filter>
   <linearGradient id="linearGradient2583" gradientUnits="userSpaceOnUse" x1="236.72" x2="20.72" y1="213.228801" y2="13.228801">
      <stop offset="0" id="stop17"/>
      <stop offset=".159" stop-opacity=".4329" id="stop19"/>
      <stop offset=".194" stop-opacity=".099567" id="stop21"/>
      <stop offset="1" stop-opacity="0" id="stop23"/>
   </linearGradient>
   <filter id="filter1067" color-interpolation-filters="sRGB" height="1.127" width="1.114" x="-.06" y="-.06">
      <feGaussianBlur stdDeviation="5.3" id="feGaussianBlur26"/>
   </filter>
   <filter id="seconda_ombra" color-interpolation-filters="sRGB" height="1.025" width="1.023" x="-.01" y="-.01">
      <feGaussianBlur stdDeviation="1.06" id="feGaussianBlur29"/>
   </filter>
   <path id="ombra_secondaria"                  fill="none"                         filter="url(#seconda_ombra)" opacity="0.1" transform="matrix(0.26458333,0,0,0.26458333,1.058333,1.995593)" d="m 51.714141,14.228801 c -35.36853,0 -38.994141,1.999146 -38.994141,37.296875 v 41.625005 60.656239 29.5 c 0,35.29774 3.625611,38.92188 38.994141,38.92188 h 146.011719 c 35.36853,0 38.99414,-3.62414 38.99414,-38.92188 v -29.5 -76.656239 -6 c 0,-35.297735 -3.62561,-40.92188 -38.99414,-40.92188 h -87.00586 l -16,-16 z"/>
   <path id="secondario"                        fill="#579140"                      filter="none"                opacity="1.0" d="m 14.741034,5.495713 c -9.3579237,0 -10.3172007,0.52894 -10.3172007,9.86813 v 13.4152 h 59.2666667 v -8.22275 c 0,-9.33919 -0.959276,-10.82725 -10.3172,-10.82725 h -23.0203 l -4.233333,-4.23333 z"/>
   <path id="ombra"                             fill="#3D5E31"                      filter="url(#prima_ombra)"   opacity="0.5" transform="matrix(0.26458333,0,0,0.26458333,-6.1595,-6.145957)"  d="m 78.99353,92 c -35.36853,0 -38.99353,3.625 -38.99353,38.92273 v 82.15454 c 0,35.29773 3.625,38.92273 38.99353,38.92273 h 146.01294 c 35.36853,0 38.99353,-3.625 38.99353,-38.92273 v -98.15454 c 0,-35.29773 -3.625,-38.92273 -38.99353,-38.92273 h -81.25647 l -16.00782,16 z"/>
   <path id="primario"                          fill="url(#primario)"               filter="none"                opacity="1.0" d="m 14.740872,18.195713 c -9.3579237,0 -10.3170387,0.95911 -10.3170387,10.2983 v 21.73672 c 0,9.3392 0.959115,10.29831 10.3170387,10.29831 h 38.63259 c 9.357923,0 10.317038,-0.95911 10.317038,-10.29831 v -25.97005 c 0,-9.33919 -0.959115,-10.29831 -10.317038,-10.29831 h -21.499108 l -4.235401,4.23334 z"/>
   <path id="contorno_superiore_del_secondario" fill="url(#contorno_secondario)"    filter="none"                opacity="0.4" d="m 14.741034,5.495713 c -9.3579237,0 -10.3172007,0.52894 -10.3172007,9.86813 v 0.52917 c 0,-9.3392 0.959277,-9.86814 10.3172007,-9.86814 h 11.378633 l 4.233333,4.23334 h 23.0203 c 9.357924,0 10.3172,1.48805 10.3172,10.82724 v -0.52916 c 0,-9.3392 -0.959276,-10.82725 -10.3172,-10.82725 h -23.0203 l -4.233333,-4.23333 z"/>
   <path id="contorno_superiore_del_primario"   fill="url(#contorno_primario)"      filter="none"                opacity="0.4" d="m 31.874354,13.962373 -4.235399,4.23334 h -12.897921 c -9.3579237,0 -10.3172007,0.95889 -10.3172007,10.29808 v 0.52916 c 0,-9.33919 0.959277,-10.29808 10.3172007,-10.29808 h 12.897921 l 4.235399,-4.23333 h 21.498946 c 9.357924,0 10.3172,0.95889 10.3172,10.29808 v -0.52917 c 0,-9.33919 -0.959276,-10.29808 -10.3172,-10.29808 z"/>
   <path id="effetto_piega"                     fill="#ffffff"                      filter="none"                opacity="0.1" d="m 63.6905,43.066543 -16.933334,16.93333 h 6.616134 c 9.357924,0 10.3172,-0.95888 10.3172,-10.29808 z"/>
   <path id="contorno_inferiore_del_primario"   fill="#491706"                      filter="none"                opacity="0.2" d="m 4.4238333,49.701793 v 0.52917 c 0,9.33919 0.959277,10.29808 10.3172007,10.29808 h 38.632266 c 9.357924,0 10.3172,-0.95889 10.3172,-10.29808 v -0.52917 c 0,9.3392 -0.959276,10.29808 -10.3172,10.29808 h -38.632266 c -9.3579237,0 -10.3172007,-0.95888 -10.3172007,-10.29808 z"/>
   <path id="atom"                              fill="#d0e3c9"                      filter="none"                opacity="1.0" d="m 28.61386724,24.89914082 c -0.07667,0 -0.152909,0 -0.228915,0 -0.321561,0.03234 -0.63696,0.11661 -0.925996,0.26393 -0.770339,0.3925 -1.243178,1.17633 -1.477874,2.13103 -0.234695,0.9547 -0.253527,2.11118 -0.09405,3.42443001 0.07209,0.59362 0.18299199,1.22016999 0.32813,1.87110999 -0.92183401,0.18627 -1.772758,0.415 -2.526854,0.68726 -1.071342,0.38681001 -1.960051,0.85389 -2.616249,1.42103 -0.656197,0.56715 -1.090134,1.26488 -1.13432109,2.04732 -0.0359499,0.74535 0.28866509,1.45381 0.83151309,2.06386 0.542845,0.61005 1.308161,1.14822 2.24884701,1.63289 a 0.5270789899,0.5270789899 0 1 0 0.48160099,-0.93633 c -0.86164098,-0.44395 -1.52460099,-0.92712999 -1.94293898,-1.39726 -0.418339,-0.47013 -0.586772,-0.9007 -0.565312,-1.30941 0.0225,-0.42928 0.257444,-0.85938 0.770975,-1.30322 0.513528,-0.44384 1.29382298,-0.87187 2.28243498,-1.22881 0.708382,-0.25574999 1.525766,-0.47466 2.422989,-0.65314999 0.304081,1.12824999 0.71104,2.31885999 1.20968601,3.54016999 -1.188378,2.21357 -2.02735901,4.3494 -2.45399301,6.20346 -0.29645899,1.28834 -0.399307,2.44076 -0.26612099,3.41409 0.133185,0.97333 0.524511,1.80182 1.249475,2.27262 0.687995,0.44679 1.550963,0.49035 2.440557,0.2594 0.889596,-0.23095 1.840208,-0.72854 2.835347,-1.43757 a 0.5270789899,0.5270789899 0 1 0 -0.609753,-0.85882 c -0.923996,0.65834 -1.782016,1.09304 -2.488096,1.27635 -0.706079,0.1833 -1.224349,0.12407 -1.602408,-0.12144 -0.397947,-0.25843 -0.673888,-0.74708 -0.781309,-1.53213 -0.107431,-0.78505 -0.02802,-1.83269 0.249068,-3.03687 0.352181,-1.5305 1.020909,-3.31541 1.965158,-5.19116 0.227128,0.50029 0.464464,1.00263 0.721885,1.50784 1.688599,3.31409 3.703066,6.06666 5.639171,7.86839 0.968052,0.90086 1.915124,1.56807 2.82501,1.93932 0.90988699,0.37124 1.822231,0.44673 2.59248,0.0543 0.740834,-0.37747 1.212544,-1.12054 1.45462,-2.02355 0.242077,-0.90301 0.278114,-1.99592 0.151403,-3.23582 -0.253416,-2.47979 -1.17916799,-5.55168 -2.707194,-8.72669 a 0.5270789899,0.5270789899 0 1 0 -0.949249,0.45783001 c 1.484541,3.08466 2.37379099,6.07003999 2.60953099,8.37686 0.11787602,1.15341 0.06847,2.13503 -0.124533,2.85497999 -0.193002,0.71995 -0.506121,1.14987 -0.912562,1.35696 -0.42273,0.2154 -0.983109,0.20853 -1.717122,-0.091 -0.734003,-0.2995 -1.600327,-0.89216 -2.50515,-1.73418 -1.80965,-1.68404 -3.775588,-4.35396 -5.416974,-7.57539 -0.379619,-0.74504 -0.721412,-1.48563 -1.031927,-2.21629 0.386074,-0.69523 0.804579,-1.39744 1.260841,-2.10002999 0.455987,-0.70215001 0.926758,-1.36957001 1.404498,-2.00443 0.15071,-0.002 0.2982,-0.008 0.450595,-0.009 0.653571,0 1.319299,0.0117 1.993061,0.0501 l 0.0036,0.004 c 3.610591,0.18922001 6.850551,0.89806 9.124056,1.86542 1.136753,0.48368 2.027442,1.03388001 2.599197,1.58226 0.571755,0.54838 0.80614599,1.05819001 0.78131099,1.53213 -0.0214799,0.40970001 -0.23391199,0.81715 -0.70069899,1.24224001 -0.466787,0.42508 -1.177589,0.83999 -2.084007,1.1916 a 0.5271694201,0.5271694201 0 1 0 0.38032,0.98335 c 0.989691,-0.3839 1.808851,-0.84237 2.41420398,-1.39364 0.60535302,-0.55127 1.004685,-1.22325 1.04381201,-1.96981 0.04523,-0.86325 -0.395358,-1.66709 -1.104274,-2.34703 -0.70890899,-0.67993 -1.70280499,-1.27350999 -2.91905299,-1.79101 -2.431671,-1.03466 -5.765262,-1.75470999 -9.478025,-1.94965999 h -0.0031 c -0.566956,-0.0322 -1.122461,-0.0444 -1.669066,-0.0491 1.001645,-1.22365 2.019476,-2.28781 2.998635,-3.13919 1.725617,-1.50043 3.346047,-2.32688 4.39383,-2.36666 0.387672,-0.0149 0.691047,0.0639 0.939431,0.2253 0.372941,0.24219001 0.635474,0.68486001 0.757541,1.39054001 0.122065,0.70568 0.08299,1.64675 -0.131253,2.73716999 a 0.5270789899,0.5270789899 0 1 0 1.033476,0.20204001 c 0.231136,-1.17639001 0.292795,-2.22902 0.138487,-3.12110001 -0.154308,-0.89209 -0.545923,-1.65237 -1.225704,-2.09383 -0.452879,-0.29336 -0.994134,-0.41577 -1.552285,-0.39427 -1.509032,0.0573 -3.227966,1.04132 -5.046988,2.62297 -1.213735,1.05534 -2.461914,2.39736 -3.66678,3.95201 -1.31919,0.0408 -2.569647,0.15479 -3.724137,0.33537 -0.143199,-0.63426 -0.253601,-1.24275 -0.322445,-1.80962 -0.149078,-1.22752 -0.118571,-2.27996 0.07079,-3.05031 0.189376,-0.77035 0.513171,-1.22532 0.935814,-1.44067 0.158351,-0.0807 0.322889,-0.12664 0.521905,-0.14159 0.738987,-0.0555 1.873454,0.42914 3.117487,1.46134 a 0.527508464,0.527508464 0 1 0 0.673826,-0.8118 c -1.266117,-1.05055001 -2.489858,-1.71143001 -3.639871,-1.71143001 z m 1.553834,8.26176001 c -0.320466,0.44803999 -0.638098,0.90553999 -0.947701,1.38228 -0.309299,0.47628999 -0.598299,0.95187999 -0.876905,1.42619999 -0.330766,-0.87586 -0.605914,-1.72598999 -0.828849,-2.53976999 0.831225,-0.12644 1.722848,-0.21504001 2.653455,-0.26871 z m 3.608903,2.91285999 a 1.5810802,1.5810802 0 0 0 -1.544532,1.58122 1.5812217,1.5812217 0 0 0 3.162443,0 1.5810802,1.5810802 0 0 0 -1.617911,-1.58122 z"/>
</svg>