<svg width="256" height="256" viewBox="0 0 256 256" fill="none" xmlns="http://www.w3.org/2000/svg">
    <g id="folder-yaru-config">
        <path id="secondario" d="M55.7169 20.7722C20.3466 20.7722 16.7208 22.7715 16.7208 58.0709V108.777H240.732V77.6969C240.732 42.3974 237.106 36.773 201.736 36.773H114.726L98.7249 20.7722H55.7169Z" fill="url(#paint0_linear)"/>
        <path id="ombra" opacity="0.5" d="M55.7163 68.7746C20.346 68.7746 16.7208 72.3998 16.7208 107.699V189.858C16.7208 225.157 20.346 228.782 55.7163 228.782H201.736C237.107 228.782 240.732 225.157 240.732 189.858V91.6984C240.732 56.399 237.107 52.7738 201.736 52.7738H120.476L104.467 68.7746H55.7163Z" fill="#903906"/>
        <path id="primario" d="M55.7163 68.7746C20.346 68.7746 16.7208 72.3997 16.7208 107.699V189.858C16.7208 225.157 20.346 228.782 55.7163 228.782H201.736C237.107 228.782 240.732 225.157 240.732 189.858V91.6984C240.732 56.3989 237.107 52.7737 201.736 52.7737H120.476L104.467 68.7746H55.7163Z" fill="url(#paint1_linear)"/>
        <path id="contorno superiore del secondario" opacity="0.4" d="M55.7169 20.7722C20.3466 20.7722 16.7208 22.7715 16.7208 58.0709V60.071C16.7208 24.7715 20.3466 22.7723 55.7169 22.7723H98.7249L114.726 38.7731H201.736C237.106 38.7731 240.732 44.3975 240.732 79.697V77.6969C240.732 42.3974 237.106 36.773 201.736 36.773H114.726L98.7249 20.7722H55.7169Z" fill="url(#paint2_radial)"/>
        <path id="contorno superiore del primario" opacity="0.4" d="M120.476 52.7737L104.467 68.7746H55.7169C20.3466 68.7746 16.7208 72.3989 16.7208 107.698V109.698C16.7208 74.399 20.3466 70.7746 55.7169 70.7746H104.467L120.476 54.7739H201.736C237.106 54.7739 240.732 58.3982 240.732 93.6976V91.6975C240.732 56.3981 237.106 52.7737 201.736 52.7737H120.476Z" fill="url(#paint3_radial)"/>
        <path id="effetto piega" opacity="0.1" d="M240.732 162.779L176.729 226.782H201.736C237.106 226.782 240.732 223.158 240.732 187.859V162.779Z" fill="white"/>
        <path id="contorno inferiore del primario" opacity="0.2" d="M16.7208 187.859V189.859C16.7208 225.158 20.3466 228.782 55.7169 228.782H201.736C237.106 228.782 240.732 225.158 240.732 189.859V187.859C240.732 223.158 237.106 226.782 201.736 226.782H55.7169C20.3466 226.782 16.7208 223.158 16.7208 187.859V187.859Z" fill="#491706"/>
        <path id="configurazione" d="M91.7305 125.5C96.4148 121.86 100.301 124.37 105.487 130.375C106.069 131.052 106.853 130.259 107.3 129.873C107.741 129.481 114.585 123.321 114.921 123.039C115.252 122.743 115.654 122.191 115.127 121.573C113.857 120.003 112.613 118.411 111.396 116.799C102.319 104.925 136.229 96.8718 131.022 96.7463C128.371 96.676 117.737 96.5505 116.146 96.7262C109.704 97.404 101.616 103.424 97.5445 106.23C92.2175 109.875 90.2294 112.014 89.903 112.31C88.3968 113.626 89.662 116.663 86.9308 119.058C84.0439 121.583 82.2415 119.671 80.5696 121.137C79.7412 121.87 77.4216 123.607 76.7589 124.184C76.0574 124.772 75.9707 125.761 76.6535 126.549C76.6535 126.549 82.9996 133.558 83.5318 134.18C84.059 134.793 85.4949 135.325 86.3785 134.537C87.2672 133.754 89.5516 131.76 89.9331 131.409C90.3247 131.078 89.6821 127.086 91.7305 125.5V125.5ZM120.388 128.095C119.786 127.397 119.038 127.377 118.395 127.95L111.196 134.236C110.918 134.488 110.748 134.838 110.723 135.212C110.698 135.587 110.818 135.957 111.06 136.244L152.701 183.634C153.675 184.754 155.362 184.869 156.472 183.9L161.342 179.818C161.878 179.346 162.206 178.682 162.255 177.969C162.304 177.256 162.07 176.553 161.603 176.013L120.388 128.095ZM175.912 107.927C175.54 105.447 174.255 105.964 173.587 107.013C172.92 108.073 169.968 112.546 168.753 114.575C167.548 116.583 164.575 120.554 159.043 116.633C153.279 112.561 155.282 109.72 156.286 107.807C157.295 105.884 160.393 100.492 160.84 99.824C161.287 99.1462 160.765 97.1781 158.977 98.0015C157.185 98.8249 146.31 103.148 144.804 109.348C143.263 115.654 146.094 121.292 140.536 126.89L133.794 133.919L140.566 141.782L148.871 133.899C150.849 131.911 155.076 129.978 158.902 130.852C167.101 132.704 171.574 129.627 174.27 124.536C176.69 119.987 176.289 110.407 175.912 107.927V107.927ZM89.7424 176.525C89.2402 177.031 88.9583 177.715 88.9583 178.427C88.9583 179.14 89.2402 179.824 89.7424 180.33L94.517 185C95.5613 186.049 97.2181 185.607 98.2621 184.558L122.899 160.338L115.353 151.733L89.7424 176.525Z" fill="#FAD9B9"/>
    </g>
    <defs>
        <radialGradient id="paint2_radial" cx="0" cy="0" r="1" gradientUnits="userSpaceOnUse" gradientTransform="translate(128.726 28.7726) scale(112.006 29.4624)">
            <stop stop-color="white"/>
            <stop offset="1" stop-color="white" stop-opacity="0.203922"/>
        </radialGradient>
        <radialGradient id="paint3_radial" cx="0" cy="0" r="1" gradientUnits="userSpaceOnUse" gradientTransform="translate(124.726 64.7745) scale(112.006 28.4623)">
            <stop stop-color="white"/>
            <stop offset="1" stop-color="white" stop-opacity="0.203922"/>
        </radialGradient>
        <linearGradient id="paint0_linear" x1="241" y1="50" x2="17" y2="129" gradientUnits="userSpaceOnUse">
            <stop stop-color="#EC7223"/>
            <stop offset="0.874098" stop-color="#ECB622"/>
        </linearGradient>
        <linearGradient id="paint1_linear" x1="17" y1="53" x2="241" y2="229" gradientUnits="userSpaceOnUse">
            <stop stop-color="#F3994A"/>
            <stop offset="1" stop-color="#F6B069"/>
        </linearGradient>
    </defs>
</svg>
