<svg width="256" height="256" viewBox="0 0 256 256" fill="none" xmlns="http://www.w3.org/2000/svg">
    <g id="folder-yaru-important">
        <path id="secondario" d="M55.7169 20.7722C20.3466 20.7722 16.7208 22.7715 16.7208 58.0709V108.777H240.732V77.6969C240.732 42.3974 237.106 36.773 201.736 36.773H114.726L98.7249 20.7722H55.7169Z" fill="url(#paint0_linear)"/>
        <path id="ombra" opacity="0.5" d="M55.7163 68.7745C20.346 68.7745 16.7208 72.3996 16.7208 107.699V189.858C16.7208 225.157 20.346 228.782 55.7163 228.782H201.736C237.107 228.782 240.732 225.157 240.732 189.858V91.6983C240.732 56.3989 237.107 52.7737 201.736 52.7737H120.476L104.467 68.7745H55.7163Z" fill="#242424"/>
        <path id="primario" d="M55.7163 68.7745C20.346 68.7745 16.7208 72.3997 16.7208 107.699V189.858C16.7208 225.157 20.346 228.782 55.7163 228.782H201.736C237.107 228.782 240.732 225.157 240.732 189.858V91.6983C240.732 56.3989 237.107 52.7737 201.736 52.7737H120.476L104.467 68.7745H55.7163Z" fill="url(#paint1_linear)"/>
        <path id="contorno superiore del secondario" opacity="0.4" d="M55.7169 20.7722C20.3466 20.7722 16.7208 22.7715 16.7208 58.0709V60.071C16.7208 24.7715 20.3466 22.7723 55.7169 22.7723H98.7249L114.726 38.7731H201.736C237.106 38.7731 240.732 44.3975 240.732 79.697V77.6969C240.732 42.3974 237.106 36.773 201.736 36.773H114.726L98.7249 20.7722H55.7169Z" fill="url(#paint2_radial)"/>
        <path id="contorno superiore del primario" opacity="0.4" d="M120.476 52.7737L104.467 68.7745H55.7169C20.3466 68.7745 16.7208 72.3988 16.7208 107.698V109.698C16.7208 74.3989 20.3466 70.7746 55.7169 70.7746H104.467L120.476 54.7738H201.736C237.106 54.7738 240.732 58.3981 240.732 93.6976V91.6975C240.732 56.398 237.106 52.7737 201.736 52.7737H120.476Z" fill="url(#paint3_radial)"/>
        <path id="effetto piega" opacity="0.1" d="M240.732 162.779L176.729 226.782H201.736C237.106 226.782 240.732 223.158 240.732 187.859V162.779Z" fill="white"/>
        <path id="contorno inferiore del primario" opacity="0.2" d="M16.7208 187.859V189.859C16.7208 225.158 20.3466 228.783 55.7169 228.783H201.736C237.106 228.783 240.732 225.158 240.732 189.859V187.859C240.732 223.158 237.106 226.782 201.736 226.782H55.7169C20.3466 226.782 16.7208 223.158 16.7208 187.859V187.859Z" fill="#491706"/>
        <path id="importante" d="M125.236 99.8606L101.321 141.308L78.333 181.152C77.8857 181.927 77.6506 182.806 77.6512 183.701C77.6519 184.596 77.8882 185.475 78.3365 186.249C78.7848 187.024 79.4293 187.666 80.2049 188.113C80.9806 188.559 81.8601 188.793 82.755 188.791L128.915 188.701L175.014 188.611C175.915 188.609 176.8 188.37 177.579 187.918C178.358 187.465 179.005 186.816 179.453 186.034C179.901 185.252 180.136 184.366 180.133 183.465C180.13 182.564 179.89 181.68 179.436 180.901L156.321 141.201L132.243 99.8468C131.886 99.2335 131.374 98.7247 130.759 98.3716C130.143 98.0185 129.445 97.8333 128.736 97.8347C128.026 97.8361 127.329 98.024 126.715 98.3796C126.101 98.7351 125.591 99.2459 125.236 99.8606V99.8606ZM128.534 123.808H128.918C130.064 123.808 131.162 124.264 131.972 125.074C132.782 125.884 133.238 126.982 133.238 128.128V146.752L132.136 164.273H125.695L124.593 146.752V127.75C124.593 127.232 124.695 126.719 124.893 126.241C125.091 125.763 125.381 125.329 125.747 124.963C126.113 124.597 126.548 124.307 127.026 124.108C127.504 123.91 128.016 123.808 128.534 123.808V123.808ZM127.936 170.48H129.895C130.739 170.48 131.549 170.816 132.147 171.413C132.744 172.01 133.079 172.82 133.079 173.665V175.624C133.079 176.469 132.744 177.279 132.147 177.876C131.549 178.473 130.739 178.808 129.895 178.808H127.936C127.091 178.808 126.281 178.473 125.684 177.876C125.087 177.279 124.751 176.469 124.751 175.624V173.665C124.751 172.82 125.087 172.01 125.684 171.413C126.281 170.816 127.091 170.48 127.936 170.48V170.48Z" fill="#BEBEBE"/>
    </g>
    <defs>
        <radialGradient id="paint2_radial" cx="0" cy="0" r="1" gradientUnits="userSpaceOnUse" gradientTransform="translate(128.726 28.7726) scale(112.006 29.4624)">
            <stop stop-color="white"/>
            <stop offset="1" stop-color="white" stop-opacity="0.203922"/>
        </radialGradient>
        <radialGradient id="paint3_radial" cx="0" cy="0" r="1" gradientUnits="userSpaceOnUse" gradientTransform="translate(124.726 64.7744) scale(112.006 28.4623)">
            <stop stop-color="white"/>
            <stop offset="1" stop-color="white" stop-opacity="0.203922"/>
        </radialGradient>
        <linearGradient id="paint0_linear" x1="241" y1="50" x2="17" y2="129" gradientUnits="userSpaceOnUse">
            <stop stop-color="#E75727"/>
            <stop offset="0.874098" stop-color="#6C234C"/>
        </linearGradient>
        <linearGradient id="paint1_linear" x1="17" y1="52.9999" x2="241" y2="229" gradientUnits="userSpaceOnUse">
            <stop stop-color="#666666"/>
            <stop offset="1" stop-color="#7A7A7A"/>
        </linearGradient>
    </defs>
</svg>
