<svg fill="none" height="256" viewBox="0 0 256 256" width="256" xmlns="http://www.w3.org/2000/svg" xmlns:xlink="http://www.w3.org/1999/xlink">
  <linearGradient id="paint0_linear" gradientUnits="userSpaceOnUse" x1="241" x2="17" y1="50" y2="129">
    <stop offset="0" stop-color="#f0ea4d"/>
    <stop offset=".874098" stop-color="#fc429d"/>
  </linearGradient>
  <linearGradient id="paint1_linear" gradientUnits="userSpaceOnUse" x1="17" x2="241" y1="52.9999" y2="229">
    <stop offset="0" stop-color="#2a2139"/>
    <stop offset="1" stop-color="#413260"/>
  </linearGradient>
  <linearGradient id="lg1">
    <stop offset="0" stop-color="#fff"/>
    <stop offset="1" stop-color="#fff" stop-opacity=".203922"/>
  </linearGradient>
  <radialGradient id="paint2_radial" cx="0" cy="0" gradientTransform="matrix(112.006 0 0 29.4624 128.726 28.7726)" gradientUnits="userSpaceOnUse" r="1" xlink:href="#lg1"/>
  <radialGradient id="paint3_radial" cx="0" cy="0" gradientTransform="matrix(112.006 0 0 28.4623 124.726 64.7744)" gradientUnits="userSpaceOnUse" r="1" xlink:href="#lg1"/>
  <linearGradient id="paint4_linear" gradientUnits="userSpaceOnUse" x1="126.176" x2="126.176" y1="104.634" y2="174.636">
    <stop offset="0" stop-color="#0fe4f5"/>
    <stop offset="1" stop-color="#eb36ae"/>
  </linearGradient>
  <path d="m55.7169 20.7722c-35.3703 0-38.9961 1.9993-38.9961 37.2987v50.7061h224.0112v-31.0801c0-35.2995-3.626-40.9239-38.996-40.9239h-87.01l-16.0011-16.0008z" fill="url(#paint0_linear)"/>
  <path d="m55.7163 68.7745c-35.3703 0-38.9955 3.6251-38.9955 38.9245v82.159c0 35.299 3.6252 38.924 38.9955 38.924h146.0197c35.371 0 38.996-3.625 38.996-38.924v-98.1597c0-35.2994-3.625-38.9246-38.996-38.9246h-81.26l-16.009 16.0008z" fill="#685f55" opacity=".5"/>
  <path d="m55.7163 68.7745c-35.3703 0-38.9955 3.6252-38.9955 38.9245v82.159c0 35.299 3.6252 38.924 38.9955 38.924h146.0197c35.371 0 38.996-3.625 38.996-38.924v-98.1597c0-35.2994-3.625-38.9246-38.996-38.9246h-81.26l-16.009 16.0008z" fill="url(#paint1_linear)"/>
  <path d="m55.7169 20.7722c-35.3703 0-38.9961 1.9993-38.9961 37.2987v2.0001c0-35.2995 3.6258-37.2987 38.9961-37.2987h43.008l16.0011 16.0008h87.01c35.37 0 38.996 5.6244 38.996 40.9239v-2.0001c0-35.2995-3.626-40.9239-38.996-40.9239h-87.01l-16.0011-16.0008z" fill="url(#paint2_radial)" opacity=".4"/>
  <path d="m120.476 52.7737-16.009 16.0008h-48.7501c-35.3703 0-38.9961 3.6243-38.9961 38.9235v2c0-35.2991 3.6258-38.9234 38.9961-38.9234h48.7501l16.009-16.0008h81.26c35.37 0 38.996 3.6243 38.996 38.9238v-2.0001c0-35.2995-3.626-38.9238-38.996-38.9238z" fill="url(#paint3_radial)" opacity=".4"/>
  <path d="m240.732 162.779-64.003 64.003h25.007c35.37 0 38.996-3.624 38.996-38.923z" fill="#fff" opacity=".1"/>
  <path d="m16.7208 187.859v2c0 35.299 3.6258 38.924 38.9961 38.924h146.0191c35.37 0 38.996-3.625 38.996-38.924v-2c0 35.299-3.626 38.923-38.996 38.923h-146.0191c-35.3703 0-38.9961-3.624-38.9961-38.923z" fill="#491706" opacity=".2"/>
  <path d="m128.678 104.634c-13.175 0-25.044 7.967-30.0485 20.154-12.745 1.305-22.4534 12.034-22.4534 24.846 0 6.631 2.6342 12.991 7.3226 17.679 4.6891 4.689 11.0483 7.324 17.6793 7.323h58.753c8.975 0 16.245-7.277 16.245-16.251 0-6.135-3.433-11.417-8.452-14.183 2.232-2.69 3.454-6.075 3.455-9.57-.002-8.283-6.718-14.997-15.002-14.995-.039-.001-.078-.001-.117 0-5.971-9.345-16.294-15.003-27.382-15.003zm1.591 9.546c5.907 0 11.572 2.347 15.749 6.523 4.177 4.178 6.524 9.843 6.524 15.75 0 5.908-2.347 11.573-6.524 15.749-4.177 4.178-9.842 6.525-15.749 6.525-5.908 0-11.573-2.347-15.75-6.525-4.177-4.176-6.524-9.841-6.524-15.749 0-5.907 2.347-11.572 6.524-15.75 4.177-4.176 9.842-6.523 15.75-6.523zm0 6.363c-3.432.008-6.77 1.124-9.515 3.183h6.333 4.866c4.677 0 7.861 1.56 7.861 7.501 0 6.923-3.184 8.408-7.861 8.408h-4.866v9.546h-6.333c2.745 2.059 6.083 3.175 9.515 3.181 8.786 0 15.909-7.122 15.909-15.909 0-8.786-7.123-15.91-15.909-15.91zm-9.546 3.208c-3.999 2.999-6.356 7.703-6.364 12.702.008 4.999 2.365 9.704 6.364 12.703v-10.429zm6.364 6.338v3.183h3.182c1.87 0 3.181-.001 3.181-1.555 0-1.628-1.147-1.628-3.181-1.628z" fill="url(#paint4_linear)"/>
</svg>
