<svg width="256" height="256" viewBox="0 0 256 256" fill="none" xmlns="http://www.w3.org/2000/svg">
    <g id="folder-yaru-icons">
        <path id="secondario" d="M55.7169 20.7722C20.3466 20.7722 16.7208 22.7715 16.7208 58.0709V108.777H240.732V77.6969C240.732 42.3974 237.106 36.773 201.736 36.773H114.726L98.7249 20.7722H55.7169Z" fill="url(#paint0_linear)"/>
        <path id="ombra" opacity="0.5" d="M55.7163 68.7745C20.346 68.7745 16.7208 72.3996 16.7208 107.699V189.858C16.7208 225.157 20.346 228.782 55.7163 228.782H201.736C237.107 228.782 240.732 225.157 240.732 189.858V91.6983C240.732 56.3989 237.107 52.7737 201.736 52.7737H120.476L104.467 68.7745H55.7163Z" fill="#242424"/>
        <path id="primario" d="M55.7163 68.7745C20.346 68.7745 16.7208 72.3997 16.7208 107.699V189.858C16.7208 225.157 20.346 228.782 55.7163 228.782H201.736C237.107 228.782 240.732 225.157 240.732 189.858V91.6983C240.732 56.3989 237.107 52.7737 201.736 52.7737H120.476L104.467 68.7745H55.7163Z" fill="url(#paint1_linear)"/>
        <path id="contorno superiore del secondario" opacity="0.4" d="M55.7169 20.7722C20.3466 20.7722 16.7208 22.7715 16.7208 58.0709V60.071C16.7208 24.7715 20.3466 22.7723 55.7169 22.7723H98.7249L114.726 38.7731H201.736C237.106 38.7731 240.732 44.3975 240.732 79.697V77.6969C240.732 42.3974 237.106 36.773 201.736 36.773H114.726L98.7249 20.7722H55.7169Z" fill="url(#paint2_radial)"/>
        <path id="contorno superiore del primario" opacity="0.4" d="M120.476 52.7737L104.467 68.7745H55.7169C20.3466 68.7745 16.7208 72.3988 16.7208 107.698V109.698C16.7208 74.3989 20.3466 70.7746 55.7169 70.7746H104.467L120.476 54.7738H201.736C237.106 54.7738 240.732 58.3981 240.732 93.6976V91.6975C240.732 56.398 237.106 52.7737 201.736 52.7737H120.476Z" fill="url(#paint3_radial)"/>
        <path id="effetto piega" opacity="0.1" d="M240.732 162.779L176.729 226.782H201.736C237.106 226.782 240.732 223.158 240.732 187.859V162.779Z" fill="white"/>
        <path id="contorno inferiore del primario" opacity="0.2" d="M16.7208 187.859V189.859C16.7208 225.158 20.3466 228.783 55.7169 228.783H201.736C237.106 228.783 240.732 225.158 240.732 189.859V187.859C240.732 223.158 237.106 226.782 201.736 226.782H55.7169C20.3466 226.782 16.7208 223.158 16.7208 187.859V187.859Z" fill="#491706"/>
        <g id="icone">
            <path id="Vector" d="M125.695 102.898V108.836V156.336C125.695 149.25 128.509 142.454 133.52 137.443C138.531 132.432 145.327 129.617 152.413 129.617C156.401 129.622 160.337 130.519 163.933 132.242C167.529 133.966 170.694 136.473 173.195 139.579V108.836C173.195 105.547 170.546 102.898 167.257 102.898H125.695Z" fill="#BEBEBE"/>
            <path id="Vector_2" opacity="0.35" d="M84.1318 102.898C80.8425 102.898 78.1943 105.547 78.1943 108.836V156.336C78.1943 159.625 80.8425 162.273 84.1318 162.273H107.882H119.757H125.694V156.336V108.836V102.898H119.757H107.882H84.1318Z" fill="#BEBEBE"/>
            <path id="Vector_3" d="M152.413 135.555C141.007 135.555 131.632 144.929 131.632 156.336C131.632 167.743 141.007 177.117 152.413 177.117C163.82 177.117 173.195 167.743 173.195 156.336C173.195 144.929 163.82 135.555 152.413 135.555ZM152.413 147.43C157.402 147.43 161.32 151.347 161.32 156.336C161.32 161.325 157.402 165.242 152.413 165.242C147.424 165.242 143.507 161.325 143.507 156.336C143.507 151.347 147.424 147.43 152.413 147.43Z" fill="#BEBEBE"/>
        </g>
    </g>
    <defs>
        <radialGradient id="paint2_radial" cx="0" cy="0" r="1" gradientUnits="userSpaceOnUse" gradientTransform="translate(128.726 28.7726) scale(112.006 29.4624)">
            <stop stop-color="white"/>
            <stop offset="1" stop-color="white" stop-opacity="0.203922"/>
        </radialGradient>
        <radialGradient id="paint3_radial" cx="0" cy="0" r="1" gradientUnits="userSpaceOnUse" gradientTransform="translate(124.726 64.7744) scale(112.006 28.4623)">
            <stop stop-color="white"/>
            <stop offset="1" stop-color="white" stop-opacity="0.203922"/>
        </radialGradient>
        <linearGradient id="paint0_linear" x1="241" y1="50" x2="17" y2="129" gradientUnits="userSpaceOnUse">
            <stop stop-color="#E75727"/>
            <stop offset="0.874098" stop-color="#6C234C"/>
        </linearGradient>
        <linearGradient id="paint1_linear" x1="17" y1="52.9999" x2="241" y2="229" gradientUnits="userSpaceOnUse">
            <stop stop-color="#666666"/>
            <stop offset="1" stop-color="#7A7A7A"/>
        </linearGradient>
    </defs>
</svg>
