<svg height="256" viewBox="0 0 67.73 67.73" width="256" xmlns="http://www.w3.org/2000/svg" xmlns:xlink="http://www.w3.org/1999/xlink">
  <radialGradient id="radialGradient3119" cx="148" cy="39.684" gradientTransform="matrix(.26458333 0 0 .06723474 -6.1595 242.19179)" gradientUnits="userSpaceOnUse" r="112" xlink:href="#linearGradient1361"/>
  <linearGradient id="linearGradient1361">
    <stop offset="0" stop-color="#fff"/>
    <stop offset="1" stop-color="#fff" stop-opacity=".203922"/>
  </linearGradient>
  <radialGradient id="radialGradient3117" cx="152" cy="-.126" gradientTransform="matrix(.26458333 0 0 .06959709 -6.1595 235.34367)" gradientUnits="userSpaceOnUse" r="112" xlink:href="#linearGradient1361"/>
  <linearGradient id="linearGradient3115" gradientUnits="userSpaceOnUse" x1="30.220708" x2="30.220708" y1="241.734512" y2="288.731125">
    <stop offset="0" stop-color="#f3994a"/>
    <stop offset="1" stop-color="#f6b069"/>
  </linearGradient>
  <filter id="filter989" color-interpolation-filters="sRGB" height="1.136" width="1.107" x="-.05" y="-.07">
    <feGaussianBlur stdDeviation="5"/>
  </filter>
  <linearGradient id="linearGradient3113" gradientUnits="userSpaceOnUse" x1="236.72" x2="20.72" y1="213.228801" y2="13.228801">
    <stop offset="0"/>
    <stop offset=".159" stop-opacity=".4329"/>
    <stop offset=".194" stop-opacity=".099567"/>
    <stop offset="1" stop-opacity="0"/>
  </linearGradient>
  <filter id="filter1067" color-interpolation-filters="sRGB" height="1.127" width="1.114" x="-.06" y="-.06">
    <feGaussianBlur stdDeviation="5.3"/>
  </filter>
  <filter id="filter959" color-interpolation-filters="sRGB" height="1.025" width="1.023" x="-.01" y="-.01">
    <feGaussianBlur stdDeviation="1.06"/>
  </filter>
  <g transform="translate(0 -227.722527)">
    <path d="m51.714141 15.228801c-35.36853 0-38.994141 1.999146-38.994141 37.296875v41.625005 9.078119 73.07812c0 35.29774 3.625611 38.92188 38.994141 38.92188h146.011719c35.36853 0 38.99414-3.62414 38.99414-38.92188v-73.07812-25.078119-6c0-35.29774-3.62561-40.92188-38.99414-40.92188h-87.00586l-16-16z" filter="url(#filter959)" opacity=".1" transform="matrix(.26458333 0 0 .26458333 1.058333 229.71812)"/>
    <path d="m51.714141 14.228801c-35.36853 0-38.994141 1.999146-38.994141 37.296875v41.625005 60.656239 29.5c0 35.29774 3.625611 38.92188 38.994141 38.92188h146.011719c35.36853 0 38.99414-3.62414 38.99414-38.92188v-29.5-76.656239-6c0-35.297735-3.62561-40.92188-38.99414-40.92188h-87.00586l-16-16z" filter="url(#filter959)" opacity=".1" transform="matrix(.26458333 0 0 .26458333 1.058333 229.71812)"/>
    <path d="m51.714141 13.228801c-35.36853 0-38.994141 1.999146-38.994141 37.296875v41.625005 9.078119 81.07812c0 35.29774 3.625611 38.92188 38.994141 38.92188h146.011719c35.36853 0 38.99414-3.62414 38.99414-38.92188v-81.07812-25.078119-6c0-35.29774-3.62561-40.92188-38.99414-40.92188h-87.00586l-16-16z" fill="url(#linearGradient3113)" filter="url(#filter1067)" opacity=".4" transform="matrix(.26458333 0 0 .26458333 1.058333 229.71812)"/>
    <path d="m14.741034 233.21824c-9.3579244 0-10.3172007.52894-10.3172007 9.86813v13.4152h59.2666677v-8.22275c0-9.33919-.959276-10.82725-10.3172-10.82725h-23.0203l-4.233334-4.23333z" fill="#ec7223"/>
    <path d="m78.99353 92c-35.36853 0-38.99353 3.625-38.99353 38.92273v82.15454c0 35.29773 3.625 38.92273 38.99353 38.92273h146.01294c35.36853 0 38.99353-3.625 38.99353-38.92273v-98.15454c0-35.29773-3.625-38.92273-38.99353-38.92273h-81.25647l-16.00782 16z" fill="#903906" filter="url(#filter989)" opacity=".5" transform="matrix(.26458333 0 0 .26458333 -6.1595 221.57657)"/>
    <path d="m14.740872 245.91824c-9.3579241 0-10.3170387.95911-10.3170387 10.2983v21.73672c0 9.3392.9591146 10.29831 10.3170387 10.29831h38.632591c9.357923 0 10.317038-.95911 10.317038-10.29831v-25.97005c0-9.33919-.959115-10.29831-10.317038-10.29831h-21.499108l-4.235402 4.23334z" fill="url(#linearGradient3115)"/>
    <path d="m14.741034 233.21824c-9.3579244 0-10.3172007.52894-10.3172007 9.86813v.52917c0-9.3392.9592763-9.86814 10.3172007-9.86814h11.378633l4.233334 4.23334h23.0203c9.357924 0 10.3172 1.48805 10.3172 10.82724v-.52916c0-9.3392-.959276-10.82725-10.3172-10.82725h-23.0203l-4.233334-4.23333z" fill="url(#radialGradient3117)" opacity=".4"/>
    <path d="m31.874355 241.6849-4.2354 4.23334h-12.897921c-9.3579244 0-10.3172007.95889-10.3172007 10.29808v.52916c0-9.33919.9592763-10.29808 10.3172007-10.29808h12.897921l4.2354-4.23333h21.498946c9.357924 0 10.3172.95889 10.3172 10.29808v-.52917c0-9.33919-.959276-10.29808-10.3172-10.29808z" fill="url(#radialGradient3119)" opacity=".4"/>
    <path d="m63.690501 270.78907-16.933334 16.93333h6.616134c9.357924 0 10.3172-.95888 10.3172-10.29808z" fill="#fff" opacity=".1"/>
    <path d="m4.4238333 277.42432v.52917c0 9.33919.9592763 10.29808 10.3172007 10.29808h38.632267c9.357924 0 10.3172-.95889 10.3172-10.29808v-.52917c0 9.3392-.959276 10.29808-10.3172 10.29808h-38.632267c-9.3579244 0-10.3172007-.95888-10.3172007-10.29808z" fill="#491706" opacity=".2"/>
    <path d="m46.757273 257.5599c0-2.33174-1.901587-4.23333-4.233333-4.23333-2.331747 0-4.233333 1.90159-4.233333 4.23333 0 2.33175 1.901586 4.23334 4.233333 4.23334 2.331746 0 4.233333-1.90159 4.233333-4.23334zm0 16.93334c0-2.33175-1.901587-4.23334-4.233333-4.23334-2.331747 0-4.233333 1.90159-4.233333 4.23334 0 2.33174 1.901586 4.23333 4.233333 4.23333 2.331746 0 4.233333-1.90159 4.233333-4.23333zm-1.058333-16.93334c0 1.75977-1.41523 3.175-3.175 3.175s-3.175-1.41523-3.175-3.175 1.41523-3.175 3.175-3.175 3.175 1.41523 3.175 3.175zm0 16.93334c0 1.75977-1.41523 3.175-3.175 3.175s-3.175-1.41523-3.175-3.175 1.41523-3.175 3.175-3.175 3.175 1.41523 3.175 3.175zm-8.184515-13.99088c-.179573-.30258-.333772-.62129-.45683-.95499l-8.95604 4.21474c-.752528-1.18073-2.070364-1.96887-3.569282-1.96887-2.331746 0-4.233333 1.90158-4.233333 4.23333s1.901587 4.23333 4.233333 4.23333c1.498759 0 2.816701-.78785 3.569282-1.96836l8.95604 4.21473c.123085-.33385.277178-.65278.45683-.95549l-8.958633-4.21577c.134805-.41256.209815-.85185.209815-1.30844s-.07501-.89588-.209815-1.30844zm-9.807152 5.52421c0 1.75977-1.41523 3.175-3.175 3.175s-3.175-1.41523-3.175-3.175 1.41523-3.175 3.175-3.175 3.175 1.41523 3.175 3.175z" fill="#fff" opacity=".6"/>
  </g>
</svg>
