<svg fill="none" height="256" viewBox="0 0 256 256" width="256" xmlns="http://www.w3.org/2000/svg" xmlns:xlink="http://www.w3.org/1999/xlink">
  <linearGradient id="paint0_linear" gradientUnits="userSpaceOnUse" x1="241" x2="17" y1="50" y2="129">
    <stop offset="0" stop-color="#f0ea4d"/>
    <stop offset=".874098" stop-color="#fc429d"/>
  </linearGradient>
  <linearGradient id="paint1_linear" gradientUnits="userSpaceOnUse" x1="17" x2="241" y1="52.9999" y2="229">
    <stop offset="0" stop-color="#2a2139"/>
    <stop offset="1" stop-color="#413260"/>
  </linearGradient>
  <linearGradient id="lg1">
    <stop offset="0" stop-color="#fff"/>
    <stop offset="1" stop-color="#fff" stop-opacity=".203922"/>
  </linearGradient>
  <radialGradient id="paint2_radial" cx="0" cy="0" gradientTransform="matrix(112.006 0 0 29.4624 128.726 28.7726)" gradientUnits="userSpaceOnUse" r="1" xlink:href="#lg1"/>
  <radialGradient id="paint3_radial" cx="0" cy="0" gradientTransform="matrix(112.006 0 0 28.4623 124.726 64.7744)" gradientUnits="userSpaceOnUse" r="1" xlink:href="#lg1"/>
  <linearGradient id="paint4_linear" gradientUnits="userSpaceOnUse" x1="127.103" x2="127.103" y1="92.6814" y2="186.186">
    <stop offset="0" stop-color="#0fe4f5"/>
    <stop offset="1" stop-color="#eb36ae"/>
  </linearGradient>
  <path d="m55.7169 20.7722c-35.3703 0-38.9961 1.9993-38.9961 37.2987v50.7061h224.0112v-31.0801c0-35.2995-3.626-40.9239-38.996-40.9239h-87.01l-16.0011-16.0008z" fill="url(#paint0_linear)"/>
  <path d="m55.7163 68.7745c-35.3703 0-38.9955 3.6251-38.9955 38.9245v82.159c0 35.299 3.6252 38.924 38.9955 38.924h146.0197c35.371 0 38.996-3.625 38.996-38.924v-98.1597c0-35.2994-3.625-38.9246-38.996-38.9246h-81.26l-16.009 16.0008z" fill="#685f55" opacity=".5"/>
  <path d="m55.7163 68.7745c-35.3703 0-38.9955 3.6252-38.9955 38.9245v82.159c0 35.299 3.6252 38.924 38.9955 38.924h146.0197c35.371 0 38.996-3.625 38.996-38.924v-98.1597c0-35.2994-3.625-38.9246-38.996-38.9246h-81.26l-16.009 16.0008z" fill="url(#paint1_linear)"/>
  <path d="m55.7169 20.7722c-35.3703 0-38.9961 1.9993-38.9961 37.2987v2.0001c0-35.2995 3.6258-37.2987 38.9961-37.2987h43.008l16.0011 16.0008h87.01c35.37 0 38.996 5.6244 38.996 40.9239v-2.0001c0-35.2995-3.626-40.9239-38.996-40.9239h-87.01l-16.0011-16.0008z" fill="url(#paint2_radial)" opacity=".4"/>
  <path d="m120.476 52.7737-16.009 16.0008h-48.7501c-35.3703 0-38.9961 3.6243-38.9961 38.9235v2c0-35.2991 3.6258-38.9234 38.9961-38.9234h48.7501l16.009-16.0008h81.26c35.37 0 38.996 3.6243 38.996 38.9238v-2.0001c0-35.2995-3.626-38.9238-38.996-38.9238z" fill="url(#paint3_radial)" opacity=".4"/>
  <path d="m240.732 162.779-64.003 64.003h25.007c35.37 0 38.996-3.624 38.996-38.923z" fill="#fff" opacity=".1"/>
  <path d="m16.7208 187.859v2c0 35.299 3.6258 38.924 38.9961 38.924h146.0191c35.37 0 38.996-3.625 38.996-38.924v-2c0 35.299-3.626 38.923-38.996 38.923h-146.0191c-35.3703 0-38.9961-3.624-38.9961-38.923z" fill="#491706" opacity=".2"/>
  <path clip-rule="evenodd" d="m144.727 186.186h-15.027c-.664 0-1.302-.264-1.771-.733-.47-.47-.734-1.107-.734-1.771v-88.496c0-.6642.264-1.3013.734-1.771.469-.4697 1.107-.7336 1.771-.7336h15.027c.665 0 1.302.2639 1.771.7336.47.4697.734 1.1068.734 1.771v88.496c0 .664-.264 1.301-.734 1.771-.469.469-1.106.733-1.771.733zm-65.1193 0h11.688c.6643 0 1.3013-.264 1.771-.733.4697-.47.7336-1.107.7336-1.771v-78.477c0-.665-.2639-1.302-.7336-1.771-.4697-.47-1.1067-.734-1.771-.734h-11.688c-.6643 0-1.3013.264-1.771.734-.4697.469-.7336 1.106-.7336 1.771v78.477c0 .664.2639 1.301.7336 1.771.4697.469 1.1067.733 1.771.733zm44.2483-67.624v10.854h-26.7162v-10.854c0-.664.2638-1.301.7335-1.771.4697-.469 1.1068-.733 1.7713-.733h21.7064c.664 0 1.301.264 1.771.733.47.47.734 1.107.734 1.771zm-26.7162 54.266v10.854c0 .664.2638 1.301.7335 1.771.4697.469 1.1068.733 1.7713.733h21.7064c.664 0 1.301-.264 1.771-.733.47-.47.734-1.107.734-1.771v-10.854zm26.7162-36.733h-26.7162v30.055h26.7162zm33.186 47.697-6.262-76.772c-.054-.651.149-1.297.565-1.801s1.012-.825 1.662-.895l15.055-1.568c.331-.034.666-.002.985.095.319.096.615.256.872.468.257.213.468.475.622.77s.248.619.276.951l6.278 76.461c.053.644-.144 1.283-.551 1.785-.408.502-.993.827-1.634.907l-15.061 1.878c-.335.042-.676.016-1-.077-.325-.093-.628-.25-.89-.463s-.479-.477-.636-.776c-.158-.298-.254-.626-.281-.963z" fill="url(#paint4_linear)" fill-rule="evenodd"/>
</svg>
