<svg width="256" height="256" viewBox="0 0 67.73 67.73">
 <defs>
  <radialGradient id="radialGradient1363-3" cx="148" cy="39.684" r="112" gradientTransform="matrix(0.26458333,0,0,0.06723474,-6.4240841,252.99634)" gradientUnits="userSpaceOnUse" xlink:href="#linearGradient1361"/>
  <linearGradient id="linearGradient1361">
   <stop offset="0" style="stop-color:#ffffff"/>
   <stop offset="1" style="stop-color:#ffffff;stop-opacity:.20392157"/>
  </linearGradient>
  <radialGradient id="radialGradient2373" cx="152" cy="-.126" r="112" gradientTransform="matrix(0.26458333,0,0,0.06959709,-6.4240831,237.68155)" gradientUnits="userSpaceOnUse" xlink:href="#linearGradient1361"/>
  <linearGradient id="primario" x1="291.31" x2="291.31" y1="138.552" y2="474" gradientTransform="matrix(0.11988932,0,0,0.11988932,3.1009165,233.76191)" gradientUnits="userSpaceOnUse">
   <stop offset="0" stop-color="#545454"/>
   <stop offset="1" stop-color="#444444"/>
  </linearGradient>
  <clipPath id="clipPath977-1">
   <path style="fill:#f6531e" d="M 78.994141,52 C 43.625611,52 40,53.999146 40,89.296875 V 140 H 264 V 108.92188 C 264,73.624145 260.37439,68 225.00586,68 H 138 L 122,52 Z"/>
  </clipPath>
  <filter style="color-interpolation-filters:sRGB" id="filter989" width="1.107" height="1.136" x="-.05" y="-.07">
   <feGaussianBlur stdDeviation="5"/>
  </filter>
  <linearGradient id="linearGradient2369" x1="264" x2="48" y1="252" y2="52" gradientTransform="matrix(0.26458333,0,0,0.26458333,-6.4240833,221.79779)" gradientUnits="userSpaceOnUse">
   <stop offset="0.000"     style="stop-color: #000000"/>
   <stop offset="0.160"     style="stop-color: #000000; stop-opacity: 0.433"/>
   <stop offset="0.194"     style="stop-color: #000000; stop-opacity: 0.099"/>
   <stop offset="1.000"     style="stop-color: #000000; stop-opacity: 0"/>
  </linearGradient>
  <filter style="color-interpolation-filters:sRGB" id="filter959" width="1.023" height="1.025" x="-.01" y="-.01">
   <feGaussianBlur stdDeviation="1.06"/>
  </filter>
  <filter style="color-interpolation-filters:sRGB" id="filter1344" width="1.023" height="1.025" x="-.01" y="-.01">
   <feGaussianBlur stdDeviation="1.06"/>
  </filter>
 </defs>
 <g transform="translate(0,-229.26666)">
  <path fill="none"                            filter="url(#filter1344)" opacity="0.1" d="m 51.714141,15.228801 c -35.36853,0 -38.994141,1.99915 -38.994141,37.29687 V 176.30692 c 0,35.29774 3.625611,38.92188 38.994141,38.92188 H 197.72586 c 35.36853,0 38.99414,-3.62414 38.99414,-38.92188 V 72.150681 c 0,-35.29774 -3.62561,-40.92188 -38.99414,-40.92188 H 110.72 l -15.999999,-16 z" transform="matrix(0.26458333,0,0,0.26458333,0.79374998,232.056)"/>
  <path fill="none"                            filter="url(#filter959)"  opacity="0.1" d="m 51.714141,14.228801 c -35.36853,0 -38.994141,1.99915 -38.994141,37.29687 V 183.30692 c 0,35.29774 3.625611,38.92188 38.994141,38.92188 H 197.72586 c 35.36853,0 38.99414,-3.62414 38.99414,-38.92188 V 71.150681 c 0,-35.29774 -3.62561,-40.92188 -38.99414,-40.92188 H 110.72 l -15.999999,-16 z" transform="matrix(0.26458333,0,0,0.26458333,0.79374998,232.056)"/>
  <path fill="url(#linearGradient2369)"        filter="url(#filter1067)" opacity="0.4" d="m 14.47645,235.55612 c -9.3579238,0 -10.3172001,0.52894 -10.3172001,9.86813 v 34.86712 c 0,9.3392 0.9592763,10.29808 10.3172001,10.29808 h 38.632266 c 9.357924,0 10.3172,-0.95888 10.3172,-10.29808 V 250.6167 c 0,-9.33919 -0.959276,-10.82725 -10.3172,-10.82725 h -23.0203 l -4.233333,-4.23333 z" />
  <path id="secondario" fill="#f6454c"         filter="none"             opacity="1.0" d="m 14.47645,235.55612 c -9.3579237,0 -10.3172,0.52894 -10.3172,9.86813 v 23.99853 H 63.425917 V 250.6167 c 0,-9.3392 -0.959276,-10.82725 -10.3172,-10.82725 h -23.0203 l -4.233334,-4.23333 z" />
  <path id="primario"   fill="url(#primario)"  filter="none"             opacity="1.0" d="m 14.476288,256.72278 c -9.3579234,0 -10.317038,0.95912 -10.317038,10.29831 v 13.27005 c 0,9.3392 0.9591147,10.29831 10.317038,10.29831 h 38.632591 c 9.357923,0 10.317038,-0.95911 10.317038,-10.29831 v -17.50338 c 0,-9.3392 -0.961948,-10.06805 -10.317038,-10.29831 H 31.609771 l -4.235402,4.23333 z" />
  <path fill="url(#radialGradient2373)"        filter="none"             opacity="0.4" d="m 14.47645,235.55612 c -9.3579237,0 -10.3172,0.52894 -10.3172,9.86813 v 0.52916 c 0,-9.33918 0.9592764,-9.86813 10.3172,-9.86813 h 11.378633 l 4.233334,4.23334 h 23.0203 c 9.357924,0 10.3172,1.48805 10.3172,10.82724 v -0.52916 c 0,-9.3392 -0.959276,-10.82725 -10.3172,-10.82725 h -23.0203 l -4.233334,-4.23333 z" />
  <path fill="#fff"                            filter="none"             opacity="0.1" d="m 63.425917,273.12695 -16.933334,16.93333 h 6.616134 c 9.357924,0 10.3172,-0.95888 10.3172,-10.29808 z"/>
  <path fill="url(#radialGradient1363-3)"      filter="none"             opacity="0.4" d="m 31.609771,252.48945 -4.2354,4.23333 H 14.476449 c -9.3579233,0 -10.3172,0.95889 -10.3172,10.29808 v 0.52917 c 0,-9.33919 0.9592763,-10.29808 10.3172,-10.29808 h 12.897922 l 4.2354,-4.23333 h 21.498946 c 9.357924,0 10.3172,0.95888 10.3172,10.29808 v -0.52917 c 0,-9.33919 -0.959276,-10.29808 -10.3172,-10.29808 z"/>
 </g>
 <path id="template"       fill="#bebebe"   opacity="1" d="m 25.65712524,33.14514075 v 0.51297652 23.08544625 h 7.18167128 v -19.23762139 -1.53943053 -2.82137085 z m 11.54247264,0 c -0.68401089,0 -0.95532584,0.30412161 -1.11712658,0.62769491 -0.16172381,0.32357071 -0.16531472,0.65474638 -0.16531472,0.65474638 v 15.49349395 l 0.0115219,0.0561068 c 0.0408606,0.17840407 0.20512877,0.8242775 0.58210813,1.93117626 0.3764407,1.10543417 1.70574889,3.54715382 2.48422905,5.04810977 0.77760809,-1.49994021 2.10781403,-3.94262431 2.48422907,-5.04810977 0.37692804,-1.10695775 0.54194009,-1.75710527 0.58210813,-1.9316772 l 0.0115219,-0.0556058 v -15.49349395 c 0,-0.68400319 -0.30411903,-0.95534122 -0.62769489,-1.11712659 -0.32372977,-0.16531477 -0.6547464,-0.16531477 -0.6547464,-0.16531477 z m -10.5165196,1.02595303 h 5.1297652 v 2.05190608 h -2.05190608 v 1.02645401 h 2.05190608 v 3.07785912 h -2.05190608 v 1.02595304 h 2.05190608 v 3.07785912 h -2.05190608 v 1.02595304 h 2.05190608 v 3.07836007 h -2.05190608 v 1.02595304 h 2.05190608 v 3.07785912 h -2.05190608 v 1.02595304 h 2.05190608 v 2.05190608 h -5.1297652 v -21.2895275 z m 10.26003134,0 h 4.10381216 v 3.07836009 h -3.8473239 -0.25648826 z m 0,14.36434448 h 0.25648826 3.8473239 v 1.25939745 c -0.0333708,0.14183216 -0.18177167,0.73377202 -0.53902611,1.78289395 -0.19381207,0.56922163 -0.85097944,1.86447988 -1.51287997,3.14448595 -0.66187485,-1.2799086 -1.31899095,-2.5750668 -1.51287996,-3.14448595 -0.35740832,-1.04938614 -0.50542449,-1.63813794 -0.53902612,-1.78139112 z"/>
</svg>
