<svg height="256" viewBox="0 0 67.73 67.73" width="256" version="1.1">
   <radialGradient id="contorno_primario" cx="148" cy="39.684" gradientTransform="matrix(0.26458333,0,0,0.06723474,-6.1595,14.469263)" gradientUnits="userSpaceOnUse" r="112" xlink:href="#linearGradient1361"/>
   <linearGradient id="linearGradient1361">
      <stop offset="0" stop-color="#fff" id="stop3"/>
      <stop offset="1" stop-color="#fff" stop-opacity=".203922" id="stop5"/>
   </linearGradient>
   <radialGradient id="contorno_secondario" cx="152" cy="-.126" gradientTransform="matrix(0.26458333,0,0,0.06959709,-6.1595,7.621143)" gradientUnits="userSpaceOnUse" r="112" xlink:href="#linearGradient1361"/>
   <linearGradient id="primario" gradientUnits="userSpaceOnUse" x1="30.220708" x2="30.220708" y1="241.734512" y2="288.731125" gradientTransform="translate(0,-227.722527)">
      <stop offset="0" stop-color="#a89888" id="stop9"/>
      <stop offset="1" stop-color="				#c9b8a7" id="stop11"/>
   </linearGradient>
   <filter id="prima_ombra" color-interpolation-filters="sRGB" height="1.136" width="1.107" x="-.05" y="-.07">
      <feGaussianBlur stdDeviation="5" id="feGaussianBlur14"/>
   </filter>
   <linearGradient id="linearGradient2583" gradientUnits="userSpaceOnUse" x1="236.72" x2="20.72" y1="213.228801" y2="13.228801">
      <stop offset="0" id="stop17"/>
      <stop offset=".159" stop-opacity=".4329" id="stop19"/>
      <stop offset=".194" stop-opacity=".099567" id="stop21"/>
      <stop offset="1" stop-opacity="0" id="stop23"/>
   </linearGradient>
   <filter id="filter1067" color-interpolation-filters="sRGB" height="1.127" width="1.114" x="-.06" y="-.06">
      <feGaussianBlur stdDeviation="5.3" id="feGaussianBlur26"/>
   </filter>
   <filter id="seconda_ombra" color-interpolation-filters="sRGB" height="1.025" width="1.023" x="-.01" y="-.01">
      <feGaussianBlur stdDeviation="1.06" id="feGaussianBlur29"/>
   </filter>
   <path id="ombra_secondaria"                  fill="none"                         filter="url(#seconda_ombra)" opacity="0.1" transform="matrix(0.26458333,0,0,0.26458333,1.058333,1.995593)" d="m 51.714141,14.228801 c -35.36853,0 -38.994141,1.999146 -38.994141,37.296875 v 41.625005 60.656239 29.5 c 0,35.29774 3.625611,38.92188 38.994141,38.92188 h 146.011719 c 35.36853,0 38.99414,-3.62414 38.99414,-38.92188 v -29.5 -76.656239 -6 c 0,-35.297735 -3.62561,-40.92188 -38.99414,-40.92188 h -87.00586 l -16,-16 z"/>
   <path id="secondario"                        fill="#908478"                      filter="none"                opacity="1.0" d="m 14.741034,5.495713 c -9.3579237,0 -10.3172007,0.52894 -10.3172007,9.86813 v 13.4152 h 59.2666667 v -8.22275 c 0,-9.33919 -0.959276,-10.82725 -10.3172,-10.82725 h -23.0203 l -4.233333,-4.23333 z"/>
   <path id="ombra"                             fill="#685f55"                      filter="url(#prima_ombra)"   opacity="0.5" transform="matrix(0.26458333,0,0,0.26458333,-6.1595,-6.145957)"  d="m 78.99353,92 c -35.36853,0 -38.99353,3.625 -38.99353,38.92273 v 82.15454 c 0,35.29773 3.625,38.92273 38.99353,38.92273 h 146.01294 c 35.36853,0 38.99353,-3.625 38.99353,-38.92273 v -98.15454 c 0,-35.29773 -3.625,-38.92273 -38.99353,-38.92273 h -81.25647 l -16.00782,16 z"/>
   <path id="primario"                          fill="url(#primario)"               filter="none"                opacity="1.0" d="m 14.740872,18.195713 c -9.3579237,0 -10.3170387,0.95911 -10.3170387,10.2983 v 21.73672 c 0,9.3392 0.959115,10.29831 10.3170387,10.29831 h 38.63259 c 9.357923,0 10.317038,-0.95911 10.317038,-10.29831 v -25.97005 c 0,-9.33919 -0.959115,-10.29831 -10.317038,-10.29831 h -21.499108 l -4.235401,4.23334 z"/>
   <path id="contorno_superiore_del_secondario" fill="url(#contorno_secondario)"    filter="none"                opacity="0.4" d="m 14.741034,5.495713 c -9.3579237,0 -10.3172007,0.52894 -10.3172007,9.86813 v 0.52917 c 0,-9.3392 0.959277,-9.86814 10.3172007,-9.86814 h 11.378633 l 4.233333,4.23334 h 23.0203 c 9.357924,0 10.3172,1.48805 10.3172,10.82724 v -0.52916 c 0,-9.3392 -0.959276,-10.82725 -10.3172,-10.82725 h -23.0203 l -4.233333,-4.23333 z"/>
   <path id="contorno_superiore_del_primario"   fill="url(#contorno_primario)"      filter="none"                opacity="0.4" d="m 31.874354,13.962373 -4.235399,4.23334 h -12.897921 c -9.3579237,0 -10.3172007,0.95889 -10.3172007,10.29808 v 0.52916 c 0,-9.33919 0.959277,-10.29808 10.3172007,-10.29808 h 12.897921 l 4.235399,-4.23333 h 21.498946 c 9.357924,0 10.3172,0.95889 10.3172,10.29808 v -0.52917 c 0,-9.33919 -0.959276,-10.29808 -10.3172,-10.29808 z"/>
   <path id="effetto_piega"                     fill="#ffffff"                      filter="none"                opacity="0.1" d="m 63.6905,43.066543 -16.933334,16.93333 h 6.616134 c 9.357924,0 10.3172,-0.95888 10.3172,-10.29808 z"/>
   <path id="contorno_inferiore_del_primario"   fill="#491706"                      filter="none"                opacity="0.2" d="m 4.4238333,49.701793 v 0.52917 c 0,9.33919 0.959277,10.29808 10.3172007,10.29808 h 38.632266 c 9.357924,0 10.3172,-0.95889 10.3172,-10.29808 v -0.52917 c 0,9.3392 -0.959276,10.29808 -10.3172,10.29808 h -38.632266 c -9.3579237,0 -10.3172007,-0.95888 -10.3172007,-10.29808 z"/>
   <g id="applicazioni"                         fill="#d4d1c9"                      filter="none"                opacity="1.0" transform="matrix(1.7952985,0,0,1.7952985,-971.4538508,-551.7590072)">
      <path d="m 558.75586,321 c -0.48485,1.0101 -0.95009,2.03328 -1.39453,3.07031 -0.44445,1.02357 -0.89561,2.1011 -1.35352,3.23242 -0.2098,0.53405 -0.4328,1.13327 -0.64843,1.69727 h -0.85938 c -0.831,0 -1.5,0.669 -1.5,1.5 0,0.74119 0.53361,1.34896 1.23828,1.47266 -0.36109,0.96894 -0.72149,1.93381 -1.11914,3.02734 h 2.6582 l 1.06836,-3 h 7.35938 c 0.12199,0.33907 0.24149,0.67202 0.36719,1.01953 0.22895,0.633 0.47067,1.2936 0.72656,1.98047 h 1.51562 c -0.41034,-1.08092 -0.77559,-2.04944 -1.14062,-3.01758 0.74736,-0.0867 1.32617,-0.71105 1.32617,-1.48242 0,-0.831 -0.669,-1.5 -1.5,-1.5 h -0.9707 c -0.21556,-0.55206 -0.43194,-1.11772 -0.64453,-1.63672 -0.44445,-1.13131 -0.88955,-2.21492 -1.33399,-3.25195 -0.44445,-1.03704 -0.91574,-2.07429 -1.41406,-3.11133 h -1.19727 z m 1.73437,1.57617 c 0.51179,1.15825 1.01126,2.33651 1.4961,3.53516 0.3611,0.89271 0.73747,1.89134 1.11328,2.88867 h -5.18555 c 0.31844,-0.87809 0.63703,-1.7549 0.95508,-2.58594 0.34411,-0.8818 0.70044,-1.73298 1.07031,-2.55468 v -0.0156 c 0.18202,-0.42526 0.36522,-0.84762 0.55078,-1.26758 z m -5.99023,7.42383 h 3.93359 3.06641 4.06641 c 0.24027,0 0.43359,0.19332 0.43359,0.43359 v 0.13282 c 0,0.24027 -0.19332,0.43359 -0.43359,0.43359 h -4.06641 -3.06641 -3.93359 c -0.277,0 -0.5,-0.223 -0.5,-0.5 0,-0.277 0.223,-0.5 0.5,-0.5 z"/>
      <rect transform="scale(-1,1)" ry="0.5" rx="0.5" y="330" x="-562" height="1" width="8" opacity="0.5"/>
   </g>
</svg>