<svg width="256" height="256" viewBox="0 0 256 256" fill="none" xmlns="http://www.w3.org/2000/svg">
  <g id="folder-yaru-documents">
    <path id="secondario" d="M55.7169 20.7722C20.3466 20.7722 16.7208 22.7715 16.7208 58.0709V108.777H240.732V77.6969C240.732 42.3974 237.106 36.773 201.736 36.773H114.726L98.7249 20.7722H55.7169Z" fill="url(#paint0_linear)" />
    <path id="ombra" opacity="0.5" d="M55.7163 68.7746C20.346 68.7746 16.7208 72.3998 16.7208 107.699V189.858C16.7208 225.157 20.346 228.782 55.7163 228.782H201.736C237.107 228.782 240.732 225.157 240.732 189.858V91.6984C240.732 56.399 237.107 52.7738 201.736 52.7738H120.476L104.467 68.7746H55.7163Z" fill="#242424" />
    <path id="primario" d="M55.7163 68.7746C20.346 68.7746 16.7208 72.3998 16.7208 107.699V189.858C16.7208 225.157 20.346 228.782 55.7163 228.782H201.736C237.107 228.782 240.732 225.157 240.732 189.858V91.6985C240.732 56.399 237.107 52.7738 201.736 52.7738H120.476L104.467 68.7746H55.7163Z" fill="url(#paint1_linear)" />
    <path id="contorno superiore del secondario" opacity="0.4" d="M55.7169 20.7722C20.3466 20.7722 16.7208 22.7715 16.7208 58.0709V60.071C16.7208 24.7715 20.3466 22.7723 55.7169 22.7723H98.7249L114.726 38.7731H201.736C237.106 38.7731 240.732 44.3975 240.732 79.697V77.6969C240.732 42.3974 237.106 36.773 201.736 36.773H114.726L98.7249 20.7722H55.7169Z" fill="url(#paint2_radial)" />
    <path id="contorno superiore del primario" opacity="0.4" d="M120.476 52.7738L104.467 68.7746H55.7169C20.3466 68.7746 16.7208 72.399 16.7208 107.698V109.698C16.7208 74.399 20.3466 70.7747 55.7169 70.7747H104.467L120.476 54.7739H201.736C237.106 54.7739 240.732 58.3982 240.732 93.6977V91.6976C240.732 56.3981 237.106 52.7738 201.736 52.7738H120.476Z" fill="url(#paint3_radial)" />
    <path id="effetto piega" opacity="0.1" d="M240.732 162.779L176.729 226.782H201.736C237.106 226.782 240.732 223.158 240.732 187.859V162.779Z" fill="white" />
    <path id="contorno inferiore del primario" opacity="0.2" d="M16.7208 187.859V189.859C16.7208 225.158 20.3466 228.782 55.7169 228.782H201.736C237.106 228.782 240.732 225.158 240.732 189.859V187.859C240.732 223.158 237.106 226.782 201.736 226.782H55.7169C20.3466 226.782 16.7208 223.158 16.7208 187.859Z" fill="#491706" />
    <path id="documenti" fill-rule="evenodd" clip-rule="evenodd" d="M102.688 191.168C103.259 191.172 103.846 191.176 104.451 191.183H104.468H156.667H156.676C157.271 191.176 157.849 191.172 158.41 191.168C163.008 191.135 166.505 191.11 169.422 189.501C171.058 188.599 172.349 187.078 173.065 185.171C173.781 183.264 174.041 180.999 174.041 178.139V112.922V109.661L155.563 91.1829H152.302H104.459H104.451C103.856 91.19 103.278 91.1941 102.716 91.1981C98.1181 91.2309 94.6211 91.2558 91.7046 92.8642C90.0682 93.7667 88.7776 95.2881 88.0616 97.1951C87.3455 99.1021 87.085 101.367 87.085 104.226V178.139C87.085 180.999 87.3456 183.263 88.0616 185.171C88.7775 187.078 90.0682 188.607 91.7046 189.51C94.6154 191.116 98.1038 191.139 102.688 191.168ZM156.651 186.835H104.477H104.477C99.0049 186.771 95.3936 186.575 93.8025 185.697C93.005 185.257 92.5539 184.772 92.1296 183.642C91.7054 182.512 91.4332 180.715 91.4332 178.139V104.226C91.4332 101.651 91.7052 99.8532 92.1296 98.7236C92.5537 97.5941 93.005 97.1084 93.8025 96.6686C95.3937 95.7911 99.0044 95.5968 104.477 95.5307H104.503H152.303V112.922H160.999H169.695V178.139C169.695 180.715 169.423 182.513 168.998 183.642C168.574 184.772 168.123 185.257 167.325 185.697C165.734 186.575 162.123 186.769 156.651 186.835ZM104.476 130.313V134.661H156.65V130.313H104.476ZM104.476 143.357V147.704H156.65V143.357H104.476ZM104.476 160.748V156.4H156.65V160.748H104.476ZM104.476 169.443V173.791H130.563V169.443H104.476Z" fill="#BEBEBE" />
  </g>
  <defs>
    <linearGradient id="paint0_linear" x1="241" y1="50" x2="17" y2="129" gradientUnits="userSpaceOnUse">
      <stop stop-color="#E75727" />
      <stop offset="0.874098" stop-color="#6C234C" />
    </linearGradient>
    <linearGradient id="paint1_linear" x1="17" y1="53" x2="241" y2="229" gradientUnits="userSpaceOnUse">
      <stop stop-color="#666666" />
      <stop offset="1" stop-color="#7A7A7A" />
    </linearGradient>
    <radialGradient id="paint2_radial" cx="0" cy="0" r="1" gradientUnits="userSpaceOnUse" gradientTransform="translate(128.726 28.7726) scale(112.006 29.4624)">
      <stop stop-color="white" />
      <stop offset="1" stop-color="white" stop-opacity="0.203922" />
    </radialGradient>
    <radialGradient id="paint3_radial" cx="0" cy="0" r="1" gradientUnits="userSpaceOnUse" gradientTransform="translate(124.726 64.7745) scale(112.006 28.4623)">
      <stop stop-color="white" />
      <stop offset="1" stop-color="white" stop-opacity="0.203922" />
    </radialGradient>
  </defs>
</svg>