<svg fill="none" height="256" viewBox="0 0 256 256" width="256" xmlns="http://www.w3.org/2000/svg" xmlns:xlink="http://www.w3.org/1999/xlink">
  <linearGradient id="paint0_linear" gradientUnits="userSpaceOnUse" x1="241" x2="17" y1="50" y2="129">
    <stop offset="0" stop-color="#f0ea4d"/>
    <stop offset=".874098" stop-color="#fc429d"/>
  </linearGradient>
  <linearGradient id="paint1_linear" gradientUnits="userSpaceOnUse" x1="17" x2="241" y1="53" y2="229">
    <stop offset="0" stop-color="#2a2139"/>
    <stop offset="1" stop-color="#413260"/>
  </linearGradient>
  <linearGradient id="lg1">
    <stop offset="0" stop-color="#fff"/>
    <stop offset="1" stop-color="#fff" stop-opacity=".203922"/>
  </linearGradient>
  <radialGradient id="paint2_radial" cx="0" cy="0" gradientTransform="matrix(112.006 0 0 29.4624 128.726 28.7726)" gradientUnits="userSpaceOnUse" r="1" xlink:href="#lg1"/>
  <radialGradient id="paint3_radial" cx="0" cy="0" gradientTransform="matrix(112.006 0 0 28.4623 124.726 64.7745)" gradientUnits="userSpaceOnUse" r="1" xlink:href="#lg1"/>
  <linearGradient id="paint4_linear" gradientUnits="userSpaceOnUse" x1="127.478" x2="127.478" y1="94.1116" y2="189.111">
    <stop offset="0" stop-color="#0fe4f5"/>
    <stop offset="1" stop-color="#eb36ae"/>
  </linearGradient>
  <path d="m55.7169 20.7722c-35.3703 0-38.9961 1.9993-38.9961 37.2987v50.7061h224.0112v-31.0801c0-35.2995-3.626-40.9239-38.996-40.9239h-87.01l-16.0011-16.0008z" fill="url(#paint0_linear)"/>
  <path d="m55.7163 68.7746c-35.3703 0-38.9955 3.6251-38.9955 38.9244v82.159c0 35.299 3.6252 38.924 38.9955 38.924h146.0197c35.371 0 38.996-3.625 38.996-38.924v-98.1596c0-35.2994-3.625-38.9246-38.996-38.9246h-81.26l-16.009 16.0008z" fill="#685f55" opacity=".5"/>
  <path d="m55.7163 68.7746c-35.3703 0-38.9955 3.6252-38.9955 38.9244v82.159c0 35.299 3.6252 38.924 38.9955 38.924h146.0197c35.371 0 38.996-3.625 38.996-38.924v-98.1596c0-35.2994-3.625-38.9246-38.996-38.9246h-81.26l-16.009 16.0008z" fill="url(#paint1_linear)"/>
  <path d="m55.7169 20.7722c-35.3703 0-38.9961 1.9993-38.9961 37.2987v2.0001c0-35.2995 3.6258-37.2987 38.9961-37.2987h43.008l16.0011 16.0008h87.01c35.37 0 38.996 5.6244 38.996 40.9239v-2.0001c0-35.2995-3.626-40.9239-38.996-40.9239h-87.01l-16.0011-16.0008z" fill="url(#paint2_radial)" opacity=".4"/>
  <path d="m120.476 52.7738-16.009 16.0008h-48.7501c-35.3703 0-38.9961 3.6243-38.9961 38.9234v2c0-35.299 3.6258-38.9233 38.9961-38.9233h48.7501l16.009-16.0008h81.26c35.37 0 38.996 3.6243 38.996 38.9238v-2.0001c0-35.2995-3.626-38.9238-38.996-38.9238z" fill="url(#paint3_radial)" opacity=".4"/>
  <path d="m240.732 162.779-64.003 64.003h25.007c35.37 0 38.996-3.624 38.996-38.923z" fill="#fff" opacity=".1"/>
  <path d="m16.7208 187.859v2c0 35.299 3.6258 38.923 38.9961 38.923h146.0191c35.37 0 38.996-3.624 38.996-38.923v-2c0 35.299-3.626 38.923-38.996 38.923h-146.0191c-35.3703 0-38.9961-3.624-38.9961-38.923z" fill="#491706" opacity=".2"/>
  <path d="m108.152 94.1116c-.29 0-.578 0-.865 0-1.215.1223-2.408.4408-3.5.9976-2.912 1.4835-4.6989 4.4462-5.586 8.0548-.887 3.608-.9582 7.98-.3555 12.943.2725 2.244.6917 4.612 1.2403 7.073-3.4843.704-6.7005 1.568-9.5508 2.597-4.0494 1.462-7.4084 3.228-9.8887 5.371-2.4802 2.144-4.1204 4.781-4.2874 7.739-.1359 2.817 1.0911 5.495 3.1429 7.8 2.0518 2.306 4.9445 4.34 8.5 6.172.2336.135.4922.221.76.253s.5394.009.7981-.067c.2588-.076.4994-.204.7073-.376.2078-.172.3786-.384.502-.624s.1967-.502.2157-.771c.0189-.269-.017-.54-.1055-.794-.0886-.255-.228-.489-.4097-.689-.1817-.199-.402-.359-.6476-.471-3.2567-1.678-5.7625-3.504-7.3437-5.281s-2.2179-3.405-2.1368-4.949c.0851-1.623.9731-3.249 2.9141-4.926 1.941-1.678 4.8903-3.296 8.627-4.645 2.6774-.966 5.7669-1.794 9.1583-2.468 1.149 4.264 2.687 8.764 4.572 13.38-4.492 8.367-7.6627 16.44-9.2753 23.448-1.1205 4.869-1.5092 9.225-1.0058 12.904s1.9825 6.81 4.7226 8.59c2.6005 1.689 5.8625 1.853 9.2245.98 3.363-.873 6.956-2.753 10.717-5.433.225-.147.418-.337.568-.56s.253-.474.303-.737c.051-.264.047-.535-.01-.798-.057-.262-.167-.51-.322-.729-.156-.219-.354-.404-.583-.545-.228-.14-.483-.233-.749-.272-.266-.04-.536-.025-.796.043s-.503.187-.716.352c-3.492 2.488-6.735 4.131-9.404 4.824s-4.628.469-6.057-.459c-1.5038-.977-2.5468-2.824-2.9528-5.791-.4061-2.967-.1059-6.927.9414-11.479 1.3314-5.784 3.8584-12.531 7.4274-19.621.859 1.891 1.756 3.79 2.729 5.699 6.382 12.527 13.996 22.931 21.314 29.741 3.659 3.405 7.239 5.927 10.678 7.33s6.888 1.688 9.799.205c2.8-1.427 4.583-4.235 5.498-7.648.915-3.414 1.051-7.544.572-12.231-.958-9.373-4.457-20.984-10.232-32.984-.11-.242-.267-.459-.462-.639s-.424-.319-.674-.41c-.249-.09-.514-.13-.779-.116-.265.013-.525.08-.764.195s-.453.277-.628.476c-.176.199-.31.431-.395.683-.085.251-.118.517-.099.782.02.265.092.523.213.759 5.611 11.659 8.972 22.943 9.863 31.662.446 4.36.259 8.07-.471 10.791-.729 2.722-1.913 4.347-3.449 5.129-1.598.814-3.716.788-6.49-.344s-6.049-3.372-9.469-6.554c-6.84-6.366-14.27-16.457-20.474-28.633-1.435-2.816-2.727-5.615-3.901-8.377 1.459-2.628 3.041-5.282 4.766-7.938 1.723-2.654 3.503-5.176 5.308-7.576.57-.007 1.128-.03 1.704-.034 2.47 0 4.986.044 7.533.19l.013.015c13.647.715 25.894 3.394 34.487 7.05 4.296 1.829 7.663 3.908 9.824 5.981s3.047 4 2.953 5.791c-.081 1.548-.884 3.088-2.648 4.695-1.765 1.607-4.451 3.175-7.877 4.504-.245.094-.469.235-.659.416-.19.18-.343.396-.449.636-.107.24-.165.498-.171.76s.039.523.133.767c.095.245.237.468.418.658s.398.342.638.447c.24.106.498.163.76.169.262.005.523-.041.767-.136 3.741-1.451 6.837-3.184 9.125-5.268 2.288-2.083 3.798-4.623 3.945-7.445.171-3.263-1.494-6.301-4.173-8.871-2.68-2.57-6.436-4.814-11.034-6.77-9.191-3.91-21.791-6.632-35.824-7.369h-.011c-2.143-.121-4.243-.168-6.309-.185 3.786-4.625 7.633-8.648 11.334-11.866 6.522-5.671 12.647-8.795 16.607-8.945 1.466-.056 2.612.242 3.551.852 1.41.915 2.402 2.588 2.863 5.256.462 2.667.314 6.224-.496 10.345-.064.262-.074.534-.029.8.044.265.142.519.287.746s.335.422.557.573c.223.152.474.257.739.308.264.052.536.05.799-.007.264-.056.513-.166.733-.321.22-.156.406-.354.547-.584.141-.229.234-.485.274-.751.873-4.446 1.106-8.425.523-11.797s-2.063-6.2454-4.633-7.914c-1.712-1.1088-3.757-1.5715-5.867-1.4902-5.704.2165-12.201 3.9362-19.076 9.9142-4.588 3.989-9.306 9.061-13.86 14.937-4.986.155-9.712.585-14.076 1.268-.541-2.397-.958-4.697-1.218-6.84-.564-4.64-.449-8.618.267-11.529.716-2.912 1.94-4.6316 3.537-5.4456.599-.305 1.221-.4786 1.973-.5351 2.793-.2098 7.081 1.622 11.783 5.5237.202.167.434.293.684.37.25.078.513.105.774.081s.514-.1.746-.222c.231-.122.436-.289.604-.49.167-.201.293-.434.37-.684.078-.25.105-.513.081-.774s-.1-.514-.222-.746c-.122-.231-.289-.436-.49-.604-4.786-3.9704-9.411-6.4684-13.758-6.4684zm5.873 31.2274c-1.211 1.693-2.412 3.422-3.582 5.224-1.169 1.801-2.261 3.598-3.314 5.391-1.25-3.311-2.29-6.524-3.133-9.6 3.142-.478 6.512-.812 10.029-1.015zm13.641 11.009c-1.561.037-3.046.682-4.137 1.799s-1.702 2.617-1.701 4.178c.001 1.585.631 3.104 1.752 4.224 1.12 1.12 2.64 1.75 4.225 1.75 1.584 0 3.104-.63 4.225-1.75 1.12-1.12 1.75-2.639 1.751-4.224 0-.797-.159-1.585-.468-2.32-.309-.734-.761-1.399-1.331-1.956s-1.245-.994-1.986-1.286c-.742-.292-1.534-.433-2.33-.415z" fill="url(#paint4_linear)"/>
</svg>
