<svg fill="none" height="256" viewBox="0 0 256 256" width="256" xmlns="http://www.w3.org/2000/svg" xmlns:xlink="http://www.w3.org/1999/xlink">
  <linearGradient id="paint0_linear" gradientUnits="userSpaceOnUse" x1="241" x2="17" y1="50.0002" y2="129">
    <stop offset="0" stop-color="#f0ea4d"/>
    <stop offset=".874098" stop-color="#fc429d"/>
  </linearGradient>
  <linearGradient id="paint1_linear" gradientUnits="userSpaceOnUse" x1="17" x2="241" y1="53.0002" y2="229">
    <stop offset="0" stop-color="#2a2139"/>
    <stop offset="1" stop-color="#413260"/>
  </linearGradient>
  <linearGradient id="lg1">
    <stop offset="0" stop-color="#fff"/>
    <stop offset="1" stop-color="#fff" stop-opacity=".203922"/>
  </linearGradient>
  <radialGradient id="paint2_radial" cx="0" cy="0" gradientTransform="matrix(112.006 0 0 29.4624 128.726 28.7728)" gradientUnits="userSpaceOnUse" r="1" xlink:href="#lg1"/>
  <radialGradient id="paint3_radial" cx="0" cy="0" gradientTransform="matrix(112.006 0 0 28.4623 124.726 64.7746)" gradientUnits="userSpaceOnUse" r="1" xlink:href="#lg1"/>
  <linearGradient id="paint4_linear" gradientUnits="userSpaceOnUse" x1="129.396" x2="129.396" y1="92.2026" y2="192.203">
    <stop offset="0" stop-color="#0fe4f5"/>
    <stop offset="1" stop-color="#eb36ae"/>
  </linearGradient>
  <path d="m55.7169 20.7725c-35.3703 0-38.9961 1.9992-38.9961 37.2987v50.7058h224.0112v-31.0799c0-35.2994-3.626-40.9239-38.996-40.9239h-87.01l-16.0011-16.0007z" fill="url(#paint0_linear)"/>
  <path d="m55.7163 68.7747c-35.3703 0-38.9955 3.6252-38.9955 38.9243v82.159c0 35.299 3.6252 38.925 38.9955 38.925h146.0197c35.371 0 38.996-3.626 38.996-38.925v-98.1594c0-35.2995-3.625-38.9247-38.996-38.9247h-81.26l-16.009 16.0008z" fill="#685f55" opacity=".5"/>
  <path d="m55.7163 68.7747c-35.3703 0-38.9955 3.6252-38.9955 38.9243v82.159c0 35.299 3.6252 38.925 38.9955 38.925h146.0197c35.371 0 38.996-3.626 38.996-38.925v-98.1594c0-35.2995-3.625-38.9247-38.996-38.9247h-81.26l-16.009 16.0008z" fill="url(#paint1_linear)"/>
  <path d="m55.7169 20.7725c-35.3703 0-38.9961 1.9992-38.9961 37.2987v2.0001c0-35.2995 3.6258-37.2988 38.9961-37.2988h43.008l16.0011 16.0008h87.01c35.37 0 38.996 5.6245 38.996 40.9239v-2.0001c0-35.2995-3.626-40.9239-38.996-40.9239h-87.01l-16.0011-16.0007z" fill="url(#paint2_radial)" opacity=".4"/>
  <path d="m120.476 52.7739-16.009 16.0008h-48.7501c-35.3703 0-38.9961 3.6244-38.9961 38.9243v2c0-35.2999 3.6258-38.9242 38.9961-38.9242h48.7501l16.009-16.0008h81.26c35.37 0 38.996 3.6244 38.996 38.9238v-2.0001c0-35.2994-3.626-38.9238-38.996-38.9238z" fill="url(#paint3_radial)" opacity=".4"/>
  <path d="m240.732 162.779-64.003 64.003h25.007c35.37 0 38.996-3.624 38.996-38.923z" fill="#fff" opacity=".1"/>
  <path d="m16.7208 187.858v2.001c0 35.299 3.6258 38.923 38.9961 38.923h146.0191c35.37 0 38.996-3.624 38.996-38.923v-2.001c0 35.3-3.626 38.924-38.996 38.924h-146.0191c-35.3703 0-38.9961-3.624-38.9961-38.924z" fill="#491706" opacity=".2"/>
  <path d="m102.937 92.2026c-3.693 0-6.6663 2.9734-6.6663 6.6667 0 3.6937 2.9733 6.6667 6.6663 6.6667h20.209l-.417 26.667h-27.7083l-12.5001 53.333v6.667h93.7504v-6.25l-11.667-53.75h-28.333v20h13.333l-19.792 20.416-20.208-20.416h13.125l.417-20h13.125v-26.667h20c3.693 0 6.666-2.973 6.666-6.6667 0-3.6933-2.973-6.6667-6.666-6.6667z" fill="url(#paint4_linear)"/>
</svg>
