<svg width="256" height="256" viewBox="0 0 256 256" fill="none" xmlns="http://www.w3.org/2000/svg">
    <g id="folder-yaru-insync">
        <path id="secondario" d="M55.7169 20.7722C20.3466 20.7722 16.7208 22.7715 16.7208 58.0709V108.777H240.732V77.6969C240.732 42.3974 237.106 36.773 201.736 36.773H114.726L98.7249 20.7722H55.7169Z" fill="url(#paint0_linear)"/>
        <path id="ombra" opacity="0.5" d="M55.7163 68.7745C20.346 68.7745 16.7208 72.3996 16.7208 107.699V189.858C16.7208 225.157 20.346 228.782 55.7163 228.782H201.736C237.107 228.782 240.732 225.157 240.732 189.858V91.6983C240.732 56.3989 237.107 52.7737 201.736 52.7737H120.476L104.467 68.7745H55.7163Z" fill="#083A31"/>
        <path id="primario" d="M55.7163 68.7745C20.346 68.7745 16.7208 72.3997 16.7208 107.699V189.858C16.7208 225.157 20.346 228.782 55.7163 228.782H201.736C237.107 228.782 240.732 225.157 240.732 189.858V91.6983C240.732 56.3989 237.107 52.7737 201.736 52.7737H120.476L104.467 68.7745H55.7163Z" fill="url(#paint1_linear)"/>
        <path id="contorno superiore del secondario" opacity="0.4" d="M55.7169 20.7722C20.3466 20.7722 16.7208 22.7715 16.7208 58.0709V60.071C16.7208 24.7715 20.3466 22.7723 55.7169 22.7723H98.7249L114.726 38.7731H201.736C237.106 38.7731 240.732 44.3975 240.732 79.697V77.6969C240.732 42.3974 237.106 36.773 201.736 36.773H114.726L98.7249 20.7722H55.7169Z" fill="url(#paint2_radial)"/>
        <path id="contorno superiore del primario" opacity="0.4" d="M120.476 52.7737L104.467 68.7745H55.7169C20.3466 68.7745 16.7208 72.3988 16.7208 107.698V109.698C16.7208 74.3989 20.3466 70.7746 55.7169 70.7746H104.467L120.476 54.7738H201.736C237.106 54.7738 240.732 58.3981 240.732 93.6976V91.6975C240.732 56.398 237.106 52.7737 201.736 52.7737H120.476Z" fill="url(#paint3_radial)"/>
        <path id="effetto piega" opacity="0.1" d="M240.732 162.779L176.729 226.782H201.736C237.106 226.782 240.732 223.158 240.732 187.859V162.779Z" fill="white"/>
        <path id="contorno inferiore del primario" opacity="0.2" d="M16.7208 187.859V189.859C16.7208 225.158 20.3466 228.783 55.7169 228.783H201.736C237.106 228.783 240.732 225.158 240.732 189.859V187.859C240.732 223.158 237.106 226.782 201.736 226.782H55.7169C20.3466 226.782 16.7208 223.158 16.7208 187.859V187.859Z" fill="#491706"/>
        <path id="insync" d="M148.734 93.1934C118.815 93.1934 94.4707 117.538 94.4707 147.457V151.627H102.818V147.457C102.818 122.049 123.327 101.539 148.734 101.539H152.91V93.1934H148.734ZM148.734 109.889C128.036 109.889 111.168 126.759 111.168 147.457V151.627H119.514V147.457C119.514 131.27 132.548 118.234 148.734 118.234H152.91V109.889H148.734ZM148.734 126.586C137.257 126.586 127.863 135.98 127.863 147.457V151.627H136.209V147.457C136.209 140.492 141.769 134.932 148.734 134.932H152.91V126.586H148.734ZM150.822 143.279C150 143.279 149.186 143.441 148.426 143.756C147.666 144.071 146.976 144.532 146.395 145.113C145.813 145.695 145.352 146.385 145.037 147.145C144.722 147.904 144.561 148.719 144.561 149.541C144.561 150.363 144.722 151.178 145.037 151.937C145.352 152.697 145.813 153.387 146.395 153.969C146.976 154.55 147.666 155.011 148.426 155.326C149.186 155.641 150 155.803 150.822 155.803C151.645 155.803 152.459 155.641 153.219 155.326C153.978 155.011 154.669 154.55 155.25 153.969C155.831 153.387 156.293 152.697 156.607 151.937C156.922 151.178 157.084 150.363 157.084 149.541C157.084 148.719 156.922 147.904 156.607 147.145C156.293 146.385 155.831 145.695 155.25 145.113C154.669 144.532 153.978 144.071 153.219 143.756C152.459 143.441 151.645 143.279 150.822 143.279V143.279ZM144.564 164.139V189.184H157.088V164.139H144.564Z" fill="#A6DBD1"/>
    </g>
    <defs>
        <radialGradient id="paint2_radial" cx="0" cy="0" r="1" gradientUnits="userSpaceOnUse" gradientTransform="translate(128.726 28.7726) scale(112.006 29.4624)">
            <stop stop-color="white"/>
            <stop offset="1" stop-color="white" stop-opacity="0.203922"/>
        </radialGradient>
        <radialGradient id="paint3_radial" cx="0" cy="0" r="1" gradientUnits="userSpaceOnUse" gradientTransform="translate(124.726 64.7744) scale(112.006 28.4623)">
            <stop stop-color="white"/>
            <stop offset="1" stop-color="white" stop-opacity="0.203922"/>
        </radialGradient>
        <linearGradient id="paint0_linear" x1="241" y1="50" x2="17" y2="129" gradientUnits="userSpaceOnUse">
            <stop stop-color="#0C5A4A"/>
            <stop offset="0.874098" stop-color="#2F3F49"/>
        </linearGradient>
        <linearGradient id="paint1_linear" x1="17" y1="52.9999" x2="241" y2="229" gradientUnits="userSpaceOnUse">
            <stop stop-color="#12816B"/>
            <stop offset="1" stop-color="		#16A085"/>
        </linearGradient>
    </defs>
</svg>
