<svg width="256" height="256" viewBox="0 0 256 256" fill="none" xmlns="http://www.w3.org/2000/svg">
    <g id="folder-yaru-remote">
        <g id="remoto">
            <path id="path52" opacity="0.2" d="M128.726 202.89C126.51 202.89 124.726 204.674 124.726 206.89V222.891H112.725C110.509 222.891 108.725 224.675 108.725 226.891H18.7206C17.6126 226.891 16.7205 227.783 16.7205 228.891V230.891V232.891C16.7205 233.999 17.6126 234.891 18.7206 234.891H108.725C108.725 237.108 110.509 238.892 112.725 238.892H144.727C146.943 238.892 148.727 237.108 148.727 234.891H238.731C239.84 234.891 240.732 233.999 240.732 232.891V230.891V228.891C240.732 227.783 239.84 226.891 238.731 226.891H148.727C148.727 226.06 148.476 225.289 148.045 224.651C147.328 223.587 146.112 222.891 144.727 222.891H132.726V206.89C132.726 204.674 130.942 202.89 128.726 202.89Z" fill="black"/>
            <path id="rect54" d="M238.719 225.876H18.7058C17.6015 225.876 16.7063 226.771 16.7063 227.875V231.878C16.7063 232.982 17.6015 233.877 18.7058 233.877H238.719C239.823 233.877 240.719 232.982 240.719 231.878V227.875C240.719 226.771 239.823 225.876 238.719 225.876Z" fill="url(#paint0_linear)"/>
            <path id="rect56" d="M128.733 201.875H128.729C126.521 201.875 124.731 203.665 124.731 205.873V225.876C124.731 228.084 126.521 229.875 128.729 229.875H128.733C130.942 229.875 132.732 228.084 132.732 225.876V205.873C132.732 203.665 130.942 201.875 128.733 201.875Z" fill="url(#paint1_linear)"/>
            <path id="path58" opacity="0.2" d="M18.7206 225.891C17.6126 225.891 16.7205 226.783 16.7205 227.891V229.891C16.7205 228.783 17.6126 227.891 18.7206 227.891H238.731C239.84 227.891 240.732 228.783 240.732 229.891V227.891C240.732 226.783 239.84 225.891 238.731 225.891H18.7206Z" fill="white"/>
            <path id="rect60" d="M144.744 221.907H112.741C110.533 221.907 108.742 223.697 108.742 225.906V233.908C108.742 236.116 110.533 237.907 112.741 237.907H144.744C146.953 237.907 148.743 236.116 148.743 233.908V225.906C148.743 223.697 146.953 221.907 144.744 221.907Z" fill="url(#paint2_linear)"/>
            <path id="path62" opacity="0.2" d="M112.725 221.891C110.509 221.891 108.725 223.675 108.725 225.891V227.891C108.725 225.675 110.509 223.891 112.725 223.891H144.727C146.943 223.891 148.727 225.675 148.727 227.891V225.891C148.727 223.675 146.943 221.891 144.727 221.891H112.725Z" fill="white"/>
            <path id="path64" opacity="0.2" d="M124.731 209.887H132.732V221.888H124.731V209.887Z" fill="url(#paint3_linear)"/>
            <path id="path66" opacity="0.8" d="M112.725 221.891C110.509 221.891 108.725 223.675 108.725 225.891V226.891C108.725 224.675 110.509 222.891 112.725 222.891H144.727C146.943 222.891 148.727 224.675 148.727 226.891V225.891C148.727 223.675 146.943 221.891 144.727 221.891H112.725Z" fill="white"/>
        </g>
        <g id="cartella">
            <path id="secondario" d="M61.1299 16.7317C29.078 16.7317 25.7924 18.5434 25.7924 50.531V96.4794H228.787V68.3157C228.787 36.328 225.501 31.2313 193.449 31.2313H114.602L100.103 16.7317H61.1299Z" fill="url(#paint4_linear)"/>
            <g id="ombra" opacity="0.5" filter="url(#filter0_f)">
                <path d="M61.1293 60.2305C29.0775 60.2305 25.7924 63.5156 25.7924 95.5033V169.954C25.7924 201.941 29.0775 205.226 61.1293 205.226H193.45C225.502 205.226 228.787 201.941 228.787 169.954V81.0037C228.787 49.016 225.502 45.731 193.45 45.731H119.813L105.306 60.2305H61.1293Z" fill="#083A31"/>
            </g>
            <path id="primario" d="M61.1293 60.2306C29.0775 60.2306 25.7924 63.5156 25.7924 95.5033V169.954C25.7924 201.941 29.0775 205.226 61.1293 205.226H193.45C225.502 205.226 228.787 201.941 228.787 169.954V81.0037C228.787 49.016 225.502 45.731 193.45 45.731H119.813L105.306 60.2306H61.1293Z" fill="url(#paint5_linear)"/>
            <path id="contorno superiore del secondario" opacity="0.4" d="M61.1299 16.7317C29.078 16.7317 25.7924 18.5434 25.7924 50.531V52.3435C25.7924 20.3558 29.078 18.5441 61.1299 18.5441H100.103L114.602 33.0437H193.449C225.501 33.0437 228.787 38.1404 228.787 70.1281V68.3157C228.787 36.328 225.501 31.2313 193.449 31.2313H114.602L100.103 16.7317H61.1299Z" fill="url(#paint6_radial)"/>
            <path id="contorno superiore del primario" opacity="0.4" d="M119.813 45.731L105.306 60.2306H61.1299C29.078 60.2306 25.7924 63.5149 25.7924 95.5025V97.3149C25.7924 65.3273 29.078 62.043 61.1299 62.043H105.306L119.813 47.5434H193.449C225.501 47.5434 228.787 50.8277 228.787 82.8154V81.0029C228.787 49.0153 225.501 45.731 193.449 45.731H119.813Z" fill="url(#paint7_radial)"/>
            <path id="effetto piega" opacity="0.1" d="M228.787 145.416L170.788 203.414H193.449C225.501 203.414 228.787 200.13 228.787 168.142V145.416Z" fill="white"/>
            <path id="contorno inferiore del primario" opacity="0.2" d="M25.7924 168.142V169.954C25.7924 201.942 29.078 205.226 61.1299 205.226H193.449C225.501 205.226 228.787 201.942 228.787 169.954V168.142C228.787 200.13 225.501 203.414 193.449 203.414H61.1299C29.078 203.414 25.7924 200.13 25.7924 168.142V168.142Z" fill="#491706"/>
        </g>
    </g>
    <defs>
        <linearGradient id="paint0_linear" x1="16.7205" y1="225.891" x2="16.7205" y2="235.892" gradientUnits="userSpaceOnUse">
            <stop stop-color="#8A826A"/>
            <stop offset="1" stop-color="#A69F8A"/>
        </linearGradient>
        <linearGradient id="paint1_linear" x1="127.726" y1="200.89" x2="127.726" y2="230.891" gradientUnits="userSpaceOnUse">
            <stop stop-color="#746C58"/>
            <stop offset="1" stop-color="#8A836A"/>
        </linearGradient>
        <linearGradient id="paint2_linear" x1="112.725" y1="220.891" x2="112.725" y2="240.892" gradientUnits="userSpaceOnUse">
            <stop stop-color="#746C58"/>
            <stop offset="1" stop-color="#8A836A"/>
        </linearGradient>
        <linearGradient id="paint3_linear" x1="124.726" y1="221.891" x2="124.726" y2="209.89" gradientUnits="userSpaceOnUse">
            <stop/>
            <stop offset="1" stop-opacity="0"/>
        </linearGradient>
        <linearGradient id="paint4_linear" x1="229.03" y1="43.2173" x2="26.0454" y2="114.805" gradientUnits="userSpaceOnUse">
            <stop stop-color="#0C5A4A"/>
            <stop offset="0.874098" stop-color="#2F3F49"/>
        </linearGradient>
        <linearGradient id="paint5_linear" x1="26.0454" y1="45.936" x2="229.03" y2="205.424" gradientUnits="userSpaceOnUse">
            <stop stop-color="#12816B"/>
            <stop offset="1" stop-color="		#16A085"/>
        </linearGradient>
        <radialGradient id="paint6_radial" cx="0" cy="0" r="1" gradientUnits="userSpaceOnUse" gradientTransform="translate(127.29 23.9815) scale(101.497 26.6982)">
            <stop stop-color="white"/>
            <stop offset="1" stop-color="white" stop-opacity="0.203922"/>
        </radialGradient>
        <radialGradient id="paint7_radial" cx="0" cy="0" r="1" gradientUnits="userSpaceOnUse" gradientTransform="translate(123.665 56.6058) scale(101.497 25.792)">
            <stop stop-color="white"/>
            <stop offset="1" stop-color="white" stop-opacity="0.203922"/>
        </radialGradient>
        <filter id="filter0_f" x="16.7302" y="36.6687" width="221.119" height="177.62" filterUnits="userSpaceOnUse" color-interpolation-filters="sRGB">
            <feFlood flood-opacity="0" result="BackgroundImageFix"/>
            <feBlend mode="normal" in="SourceGraphic" in2="BackgroundImageFix" result="shape"/>
            <feGaussianBlur stdDeviation="4.53112" result="effect1_foregroundBlur"/>
        </filter>
    </defs>
</svg>
