<svg fill="none" height="256" viewBox="0 0 256 256" width="256" xmlns="http://www.w3.org/2000/svg" xmlns:xlink="http://www.w3.org/1999/xlink">
  <linearGradient id="paint0_linear" gradientUnits="userSpaceOnUse" x1="257.836" x2="1.82702" y1="193.73" y2="65.7181">
    <stop offset="0" stop-color="#f0ea4d"/>
    <stop offset="1" stop-color="#fc429d"/>
  </linearGradient>
  <path d="m17.8247 187.803c0 35.298 3.6256 39.097 38.9955 38.924h73.0098 73.01c35.37.173 38.996-3.626 38.996-38.924v-114.1624c0-35.2984-3.639-37.9549-38.996-38.9235h-73.01-73.0098c-35.3703 0-38.9955 3.6251-38.9955 38.9235z" fill="#000" opacity=".1"/>
  <path d="m17.8247 73.646c0-35.2985 3.6256-39.0966 38.9955-38.9236h73.0098 73.01c35.37-.173 38.996 3.6251 38.996 38.9236v114.162c0 35.299-3.625 38.924-38.996 38.924h-73.01-73.0098c-35.3703 0-38.9955-3.625-38.9955-38.924z" fill="#000" opacity=".2"/>
  <path d="m56.8195 33.7236c-35.3698-.1732-38.9941 4.1648-38.9941 39.4609v.5371 1.0001 112.0873c0 35.299 3.6239 38.922 38.9941 38.922h73.0115 73.009c35.371 0 38.996-3.623 38.996-38.922v-112.0873-1.0001-.5371c0-35.2961-3.626-39.6339-38.996-39.4609h-73.009z" fill="url(#paint0_linear)"/>
  <path d="m17.8254 184.809v2c0 35.299 3.6239 38.922 38.9941 38.922h73.0115 73.009c35.371 0 38.996-3.623 38.996-38.922v-2c0 35.299-3.625 38.922-38.996 38.922h-73.009-73.0115c-35.3702 0-38.9941-3.623-38.9941-38.922z" fill="#000" opacity=".2"/>
  <path d="m52.6436 33.7236c-31.5803-.1732-34.8162 4.1648-34.8162 39.4609v.5371 1.0001 112.0873c0 35.299 3.2356 38.922 34.8162 38.922h15.1863v-192.0074z" fill="#000" opacity=".3"/>
  <path d="m56.8195 33.7217c-35.3698-.1731-38.9941 3.6253-38.9941 38.9238v2.0001c0-35.2985 3.6243-39.0968 38.9941-38.9238h73.0115 73.009c35.37-.1731 38.996 3.6253 38.996 38.9238v-2.0001c0-35.2985-3.626-39.0968-38.996-38.9238h-73.009z" fill="#fff" opacity=".2"/>
</svg>
