<svg fill="none" height="256" viewBox="0 0 256 256" width="256" xmlns="http://www.w3.org/2000/svg" xmlns:xlink="http://www.w3.org/1999/xlink">
  <linearGradient id="paint0_linear" gradientUnits="userSpaceOnUse" x1="239.732" x2="23.7212" y1="223.782" y2="23.7724">
    <stop offset="0"/>
    <stop offset=".16" stop-opacity=".433"/>
    <stop offset=".194" stop-opacity=".099"/>
    <stop offset="1" stop-opacity="0"/>
  </linearGradient>
  <linearGradient id="paint1_linear" gradientUnits="userSpaceOnUse" x1="240" x2="2.12312" y1="66.2856" y2="123.963">
    <stop offset="0" stop-color="#f0ea4d"/>
    <stop offset=".874098" stop-color="#fc429d"/>
  </linearGradient>
  <linearGradient id="paint2_linear" gradientUnits="userSpaceOnUse" x1="15.9999" x2="204.473" y1="87.9605" y2="268.955">
    <stop offset="0" stop-color="#2a2139"/>
    <stop offset="1" stop-color="#413260"/>
  </linearGradient>
  <linearGradient id="lg1">
    <stop offset="0" stop-color="#fff"/>
    <stop offset="1" stop-color="#fff" stop-opacity=".203922"/>
  </linearGradient>
  <radialGradient id="paint3_radial" cx="0" cy="0" gradientTransform="matrix(112.006 0 0 29.4624 127.726 31.7728)" gradientUnits="userSpaceOnUse" r="1" xlink:href="#lg1"/>
  <radialGradient id="paint4_radial" cx="0" cy="0" gradientTransform="matrix(112.006 0 0 28.4623 123.726 99.7761)" gradientUnits="userSpaceOnUse" r="1" xlink:href="#lg1"/>
  <linearGradient id="paint5_linear" gradientUnits="userSpaceOnUse" x1="128.533" x2="128.533" y1="126.417" y2="178.807">
    <stop offset="0" stop-color="#0fe4f5"/>
    <stop offset="1" stop-color="#eb36ae"/>
  </linearGradient>
  <path d="m54.7168 23.7725c-35.3702 0-38.996 1.9992-38.996 37.2987v131.7878c0 35.299 3.6258 38.924 38.996 38.924h146.0192c35.37 0 38.996-3.625 38.996-38.924v-112.1619c0-35.2994-3.626-40.9239-38.996-40.9239h-87.01l-16.0012-16.0007z" fill="url(#paint0_linear)" opacity=".4"/>
  <path d="m54.7168 23.7725c-35.3702 0-38.996 1.9992-38.996 37.2987v90.7078h224.0112v-71.0819c0-35.2995-3.626-40.9239-38.996-40.9239h-87.01l-16.0012-16.0007z" fill="url(#paint1_linear)"/>
  <path d="m54.7162 103.776c-35.3703 0-38.9954 3.625-38.9954 38.925v50.157c0 35.299 3.6251 38.924 38.9954 38.924h146.0198c35.371 0 38.996-3.625 38.996-38.924v-66.158c0-35.2995-3.636-38.0543-38.996-38.9246h-81.26l-16.009 16.0006z" fill="url(#paint2_linear)"/>
  <path d="m54.7168 23.7725c-35.3702 0-38.996 1.9992-38.996 37.2987v2.0001c0-35.2995 3.6258-37.2988 38.996-37.2988h43.008l16.0012 16.0008h87.01c35.37 0 38.996 5.6244 38.996 40.9239v-2.0001c0-35.2995-3.626-40.9239-38.996-40.9239h-87.01l-16.0012-16.0007z" fill="url(#paint3_radial)" opacity=".4"/>
  <path d="m239.732 165.779-64.003 64.003h25.007c35.37 0 38.996-3.624 38.996-38.923z" fill="#fff" opacity=".1"/>
  <path d="m119.476 87.7754-16.009 16.0006h-48.7502c-35.3702 0-38.996 3.625-38.996 38.924v2c0-35.299 3.6258-38.924 38.996-38.924h48.7502l16.009-16.0005h81.26c35.37 0 38.996 3.6243 38.996 38.9235v-2c0-35.2993-3.626-38.9236-38.996-38.9236z" fill="url(#paint4_radial)" opacity=".4"/>
  <path clip-rule="evenodd" d="m80.47 174.474 48.063-48.057 48.063 48.057-4.333 4.333-7.013-7.014v44.625h-6.119l.011-50.734-30.609-30.613-30.5978 30.602v44.625h30.5978v-30.683c1.229-.294 2.468-.543 3.714-.747 1.549-.263 3.323-.391 5.337-.391 1.805 0 3.304.263 4.498.789 1.193.49 2.142 1.206 2.845 2.142.729.899 1.236 1.995 1.53 3.274.288 1.285.435 2.692.435 4.241v22.599h-.001v4.896h-55.0753v-44.625l-7.0131 7.014zm84.78-31.491v12.239l-12.251-12.239z" fill="url(#paint5_linear)" fill-rule="evenodd"/>
</svg>
