<?xml version="1.0" encoding="UTF-8" standalone="no"?>
<svg
   xmlns:dc="http://purl.org/dc/elements/1.1/"
   xmlns:cc="http://creativecommons.org/ns#"
   xmlns:rdf="http://www.w3.org/1999/02/22-rdf-syntax-ns#"
   xmlns:svg="http://www.w3.org/2000/svg"
   xmlns="http://www.w3.org/2000/svg"
   xmlns:xlink="http://www.w3.org/1999/xlink"
   xmlns:sodipodi="http://sodipodi.sourceforge.net/DTD/sodipodi-0.dtd"
   xmlns:inkscape="http://www.inkscape.org/namespaces/inkscape"
   width="256"
   height="256"
   version="1.1"
   viewBox="0 0 67.73 67.73"
   id="svg219"
   sodipodi:docname="user-bookmarks2.svg"
   inkscape:version="0.92.4 (5da689c313, 2019-01-14)">
  <metadata
     id="metadata223">
    <rdf:RDF>
      <cc:Work
         rdf:about="">
        <dc:format>image/svg+xml</dc:format>
        <dc:type
           rdf:resource="http://purl.org/dc/dcmitype/StillImage" />
        <dc:title></dc:title>
      </cc:Work>
    </rdf:RDF>
  </metadata>
  <sodipodi:namedview
     pagecolor="#ffffff"
     bordercolor="#666666"
     borderopacity="1"
     objecttolerance="10"
     gridtolerance="10"
     guidetolerance="10"
     inkscape:pageopacity="0"
     inkscape:pageshadow="2"
     inkscape:window-width="1920"
     inkscape:window-height="1016"
     id="namedview221"
     showgrid="false"
     inkscape:zoom="3.5789312"
     inkscape:cx="128.0543"
     inkscape:cy="130.49463"
     inkscape:window-x="0"
     inkscape:window-y="27"
     inkscape:window-maximized="1"
     inkscape:current-layer="svg219" />
  <defs
     id="defs192">
    <clipPath
       id="clipPath1025"
       clipPathUnits="userSpaceOnUse">
      <path
         d="M 111.94141,84 C 99.359506,84.145 90.1531,83.713998 82.625,87.867188 c -3.7641,2.0768 -6.751838,5.574737 -8.398438,9.960937 C 72.580062,102.21433 72,107.4241 72,114 v 42 h 160 v -26 c 0,-6.5759 -0.57996,-11.78566 -2.22656,-16.17188 -0.205,-0.5455 -0.47919,-1.03993 -0.74219,-1.54296 -0.1,-0.1848 -0.17844,-0.38051 -0.27344,-0.56641 -1.727,-3.38752 -4.25471,-6.14522 -7.38281,-7.87109 C 213.8463,99.694146 204.64049,100.1454 192.05859,100 H 192 151.66797 L 135.45312,84 h -23.49218 z"
         style="fill:#e3dfd5"
         id="path2" />
    </clipPath>
    <clipPath
       id="clipPath1082-3"
       clipPathUnits="userSpaceOnUse">
      <path
         d="M 361.9375,-212 C 507.2348,-212 528,-191.28677 528,-46.125 V 70.125 C 528,215.28618 507.2348,236 361.9375,236 H 214.0625 C 68.7652,236 48,215.28618 48,70.125 V -46.125 C 48,-191.28677 68.7652,-212 214.0625,-212 Z"
         style="fill:#8c59d9"
         id="path5" />
    </clipPath>
    <clipPath
       id="clipPath1082-3-5"
       clipPathUnits="userSpaceOnUse">
      <path
         d="M 361.9375,-212 C 507.2348,-212 528,-191.28677 528,-46.125 V 70.125 C 528,215.28618 507.2348,236 361.9375,236 H 214.0625 C 68.7652,236 48,215.28618 48,70.125 V -46.125 C 48,-191.28677 68.7652,-212 214.0625,-212 Z"
         style="fill:#8c59d9"
         id="path8" />
    </clipPath>
    <clipPath
       id="clipPath1082-3-9"
       clipPathUnits="userSpaceOnUse">
      <path
         d="M 361.9375,-212 C 507.2348,-212 528,-191.28677 528,-46.125 V 70.125 C 528,215.28618 507.2348,236 361.9375,236 H 214.0625 C 68.7652,236 48,215.28618 48,70.125 V -46.125 C 48,-191.28677 68.7652,-212 214.0625,-212 Z"
         style="fill:#8c59d9"
         id="path11" />
    </clipPath>
    <clipPath
       id="clipPath1082-3-3"
       clipPathUnits="userSpaceOnUse">
      <path
         d="M 361.9375,-212 C 507.2348,-212 528,-191.28677 528,-46.125 V 70.125 C 528,215.28618 507.2348,236 361.9375,236 H 214.0625 C 68.7652,236 48,215.28618 48,70.125 V -46.125 C 48,-191.28677 68.7652,-212 214.0625,-212 Z"
         style="fill:#8c59d9"
         id="path14" />
    </clipPath>
    <clipPath
       id="clipPath1082-3-53"
       clipPathUnits="userSpaceOnUse">
      <path
         d="M 361.9375,-212 C 507.2348,-212 528,-191.28677 528,-46.125 V 70.125 C 528,215.28618 507.2348,236 361.9375,236 H 214.0625 C 68.7652,236 48,215.28618 48,70.125 V -46.125 C 48,-191.28677 68.7652,-212 214.0625,-212 Z"
         style="fill:#8c59d9"
         id="path17" />
    </clipPath>
    <clipPath
       id="clipPath1082-3-6"
       clipPathUnits="userSpaceOnUse">
      <path
         d="M 361.9375,-212 C 507.2348,-212 528,-191.28677 528,-46.125 V 70.125 C 528,215.28618 507.2348,236 361.9375,236 H 214.0625 C 68.7652,236 48,215.28618 48,70.125 V -46.125 C 48,-191.28677 68.7652,-212 214.0625,-212 Z"
         style="fill:#8c59d9"
         id="path20" />
    </clipPath>
    <clipPath
       id="clipPath1082-3-91"
       clipPathUnits="userSpaceOnUse">
      <path
         d="M 361.9375,-212 C 507.2348,-212 528,-191.28677 528,-46.125 V 70.125 C 528,215.28618 507.2348,236 361.9375,236 H 214.0625 C 68.7652,236 48,215.28618 48,70.125 V -46.125 C 48,-191.28677 68.7652,-212 214.0625,-212 Z"
         style="fill:#8c59d9"
         id="path23" />
    </clipPath>
    <clipPath
       id="clipPath1025-0"
       clipPathUnits="userSpaceOnUse">
      <path
         style="fill:#8c59d9"
         d="M 329.9375,32 C 475.2348,32 496,52.71323 496,197.875 v 116.25 C 496,459.28618 475.2348,480 329.9375,480 H 182.0625 C 36.7652,480 16,459.28618 16,314.125 V 197.875 C 16,52.71323 36.7652,32 182.0625,32 Z"
         id="path26" />
    </clipPath>
    <clipPath
       id="clipPath4277-8"
       clipPathUnits="userSpaceOnUse">
      <rect
         style="opacity:0.81999972;fill:#88b637"
         width="512"
         height="512"
         x="0"
         y="0"
         ry="1"
         id="rect29" />
    </clipPath>
    <linearGradient
       id="linearGradient3650-7-9">
      <stop
         style="stop-color:#5884f4"
         id="stop4366"
         offset="0" />
      <stop
         id="stop4368"
         offset="1"
         style="stop-color:#80a3fa" />
    </linearGradient>
    <clipPath
       id="clipPath1082-3-36"
       clipPathUnits="userSpaceOnUse">
      <path
         d="M 361.9375,-212 C 507.2348,-212 528,-191.28677 528,-46.125 V 70.125 C 528,215.28618 507.2348,236 361.9375,236 H 214.0625 C 68.7652,236 48,215.28618 48,70.125 V -46.125 C 48,-191.28677 68.7652,-212 214.0625,-212 Z"
         style="fill:#8c59d9"
         id="path35" />
    </clipPath>
    <clipPath
       id="clipPath983"
       clipPathUnits="userSpaceOnUse">
      <path
         d="M 115.03125,44 C 42.3826,44 32,54.356615 32,126.9375 v 58.125 C 32,257.64309 42.3826,268 115.03125,268 H 152 V 44 Z"
         style="fill:#4d4d4d"
         id="path38" />
    </clipPath>
    <clipPath
       id="clipPath1082-3-62"
       clipPathUnits="userSpaceOnUse">
      <path
         d="M 361.9375,-212 C 507.2348,-212 528,-191.28677 528,-46.125 V 70.125 C 528,215.28618 507.2348,236 361.9375,236 H 214.0625 C 68.7652,236 48,215.28618 48,70.125 V -46.125 C 48,-191.28677 68.7652,-212 214.0625,-212 Z"
         style="fill:#8c59d9"
         id="path41" />
    </clipPath>
    <clipPath
       id="clipPath949"
       clipPathUnits="userSpaceOnUse">
      <path
         d="M 329.9375,32 C 475.2348,32 496,52.71323 496,197.875 v 116.25 C 496,459.28618 475.2348,480 329.9375,480 H 182.0625 C 36.7652,480 16,459.28618 16,314.125 V 197.875 C 16,52.71323 36.7652,32 182.0625,32 Z"
         style="fill:#eab305"
         id="path44" />
    </clipPath>
    <clipPath
       id="clipPath954"
       clipPathUnits="userSpaceOnUse">
      <path
         d="M 329.9375,32 C 475.2348,32 496,52.71323 496,197.875 v 116.25 C 496,459.28618 475.2348,480 329.9375,480 H 182.0625 C 36.7652,480 16,459.28618 16,314.125 V 197.875 C 16,52.71323 36.7652,32 182.0625,32 Z"
         style="fill:#eab305"
         id="path47" />
    </clipPath>
    <clipPath
       id="clipPath1082-3-8"
       clipPathUnits="userSpaceOnUse">
      <path
         d="M 361.9375,-212 C 507.2348,-212 528,-191.28677 528,-46.125 V 70.125 C 528,215.28618 507.2348,236 361.9375,236 H 214.0625 C 68.7652,236 48,215.28618 48,70.125 V -46.125 C 48,-191.28677 68.7652,-212 214.0625,-212 Z"
         style="fill:#8c59d9"
         id="path50" />
    </clipPath>
    <clipPath
       id="clipPath1082-3-92"
       clipPathUnits="userSpaceOnUse">
      <path
         d="M 361.9375,-212 C 507.2348,-212 528,-191.28677 528,-46.125 V 70.125 C 528,215.28618 507.2348,236 361.9375,236 H 214.0625 C 68.7652,236 48,215.28618 48,70.125 V -46.125 C 48,-191.28677 68.7652,-212 214.0625,-212 Z"
         style="fill:#8c59d9"
         id="path53" />
    </clipPath>
    <clipPath
       id="clipPath1082"
       clipPathUnits="userSpaceOnUse">
      <path
         d="M 361.9375,-212 C 507.2348,-212 528,-191.28677 528,-46.125 V 70.125 C 528,215.28618 507.2348,236 361.9375,236 H 214.0625 C 68.7652,236 48,215.28618 48,70.125 V -46.125 C 48,-191.28677 68.7652,-212 214.0625,-212 Z"
         style="fill:#8c59d9"
         id="path56" />
    </clipPath>
    <clipPath
       id="clipPath1082-3-361"
       clipPathUnits="userSpaceOnUse">
      <path
         d="M 361.9375,-212 C 507.2348,-212 528,-191.28677 528,-46.125 V 70.125 C 528,215.28618 507.2348,236 361.9375,236 H 214.0625 C 68.7652,236 48,215.28618 48,70.125 V -46.125 C 48,-191.28677 68.7652,-212 214.0625,-212 Z"
         style="fill:#8c59d9"
         id="path59" />
    </clipPath>
    <clipPath
       id="clipPath1079"
       clipPathUnits="userSpaceOnUse">
      <circle
         style="fill:url(#linearGradient1083)"
         cx="213.843"
         cy="146"
         r="55"
         transform="scale(-1,1)"
         id="circle62" />
    </clipPath>
    <clipPath
       id="clipPath984"
       clipPathUnits="userSpaceOnUse">
      <circle
         style="fill:url(#linearGradient1083)"
         cx="213.843"
         cy="146"
         r="55"
         transform="scale(-1,1)"
         id="circle65" />
    </clipPath>
    <clipPath
       id="clipPath988"
       clipPathUnits="userSpaceOnUse">
      <circle
         style="fill:url(#linearGradient1083)"
         cx="213.843"
         cy="146"
         r="55"
         transform="scale(-1,1)"
         id="circle68" />
    </clipPath>
    <clipPath
       id="clipPath992"
       clipPathUnits="userSpaceOnUse">
      <circle
         style="fill:url(#linearGradient1083)"
         cx="213.843"
         cy="146"
         r="55"
         transform="scale(-1,1)"
         id="circle71" />
    </clipPath>
    <clipPath
       id="clipPath1082-3-31"
       clipPathUnits="userSpaceOnUse">
      <path
         d="M 361.9375,-212 C 507.2348,-212 528,-191.28677 528,-46.125 V 70.125 C 528,215.28618 507.2348,236 361.9375,236 H 214.0625 C 68.7652,236 48,215.28618 48,70.125 V -46.125 C 48,-191.28677 68.7652,-212 214.0625,-212 Z"
         style="fill:#8c59d9"
         id="path74" />
    </clipPath>
    <clipPath
       id="clipPath1205"
       clipPathUnits="userSpaceOnUse">
      <path
         d="M 115.03125,44 C 42.3826,44 32,54.356615 32,126.9375 v 58.125 c 0,13.772 0.379014,25.29352 1.482422,34.9375 H 270.51758 C 271.62099,210.35602 272,198.8345 272,185.0625 v -58.125 C 272,54.356615 261.6174,44 188.96875,44 Z"
         style="fill:#f1f0e9"
         id="path77" />
    </clipPath>
    <clipPath
       id="clipPath1082-3-4"
       clipPathUnits="userSpaceOnUse">
      <path
         d="M 361.9375,-212 C 507.2348,-212 528,-191.28677 528,-46.125 V 70.125 C 528,215.28618 507.2348,236 361.9375,236 H 214.0625 C 68.7652,236 48,215.28618 48,70.125 V -46.125 C 48,-191.28677 68.7652,-212 214.0625,-212 Z"
         style="fill:#8c59d9"
         id="path80" />
    </clipPath>
    <clipPath
       id="clipPath1082-3-45"
       clipPathUnits="userSpaceOnUse">
      <path
         d="M 361.9375,-212 C 507.2348,-212 528,-191.28677 528,-46.125 V 70.125 C 528,215.28618 507.2348,236 361.9375,236 H 214.0625 C 68.7652,236 48,215.28618 48,70.125 V -46.125 C 48,-191.28677 68.7652,-212 214.0625,-212 Z"
         style="fill:#8c59d9"
         id="path83" />
    </clipPath>
    <clipPath
       id="clipPath1082-3-61"
       clipPathUnits="userSpaceOnUse">
      <path
         d="M 361.9375,-212 C 507.2348,-212 528,-191.28677 528,-46.125 V 70.125 C 528,215.28618 507.2348,236 361.9375,236 H 214.0625 C 68.7652,236 48,215.28618 48,70.125 V -46.125 C 48,-191.28677 68.7652,-212 214.0625,-212 Z"
         style="fill:#8c59d9"
         id="path86" />
    </clipPath>
    <clipPath
       id="clipPath1064"
       clipPathUnits="userSpaceOnUse">
      <path
         style="fill:#a3dbf0"
         d="M 115.03125,44 C 42.3826,44 32,54.356615 32,126.9375 v 58.125 c 0,10.16582 0.217657,19.07051 0.767578,26.9375 3.376331,48.30069 19.790377,56 82.263672,56 h 73.9375 c 62.4733,0 78.88734,-7.69931 82.26367,-56 C 271.78234,204.13301 272,195.22832 272,185.0625 v -58.125 C 272,54.356615 261.6174,44 188.96875,44 Z"
         id="path89" />
    </clipPath>
    <clipPath
       id="clipPath1082-3-32"
       clipPathUnits="userSpaceOnUse">
      <path
         d="M 361.9375,-212 C 507.2348,-212 528,-191.28677 528,-46.125 V 70.125 C 528,215.28618 507.2348,236 361.9375,236 H 214.0625 C 68.7652,236 48,215.28618 48,70.125 V -46.125 C 48,-191.28677 68.7652,-212 214.0625,-212 Z"
         style="fill:#8c59d9"
         id="path92" />
    </clipPath>
    <clipPath
       id="clipPath947"
       clipPathUnits="userSpaceOnUse">
      <path
         d="m 191.43333,45.066672 c 77.49189,0 88.56666,11.047056 88.56666,88.466668 v 62 C 279.99999,272.95263 268.92522,284 191.43333,284 H 112.56666 C 35.074773,284 23.999999,272.95263 23.999999,195.53334 v -62 c 0,-77.419612 11.074774,-88.466668 88.566661,-88.466668 z"
         style="fill:#a4c1f9"
         id="path95" />
    </clipPath>
    <clipPath
       id="clipPath1082-3-55"
       clipPathUnits="userSpaceOnUse">
      <path
         d="M 361.9375,-212 C 507.2348,-212 528,-191.28677 528,-46.125 V 70.125 C 528,215.28618 507.2348,236 361.9375,236 H 214.0625 C 68.7652,236 48,215.28618 48,70.125 V -46.125 C 48,-191.28677 68.7652,-212 214.0625,-212 Z"
         style="fill:#8c59d9"
         id="path98" />
    </clipPath>
    <clipPath
       id="clipPath991"
       clipPathUnits="userSpaceOnUse">
      <path
         d="M 188.96875,44 C 261.6174,44 272,54.356615 272,126.9375 v 58.125 C 272,257.64309 261.6174,268 188.96875,268 h -73.9375 C 42.3826,268 32,257.64309 32,185.0625 v -58.125 C 32,54.356615 42.3826,44 115.03125,44 Z"
         style="fill:#6dc7f1"
         id="path101" />
    </clipPath>
    <clipPath
       id="clipPath978"
       clipPathUnits="userSpaceOnUse">
      <path
         d="M 188.96875,44 C 261.6174,44 272,54.356615 272,126.9375 v 58.125 C 272,257.64309 261.6174,268 188.96875,268 h -73.9375 C 42.3826,268 32,257.64309 32,185.0625 v -58.125 C 32,54.356615 42.3826,44 115.03125,44 Z"
         style="fill:#6dc7f1"
         id="path104" />
    </clipPath>
    <clipPath
       id="clipPath942"
       clipPathUnits="userSpaceOnUse">
      <path
         d="M 188.96875,44 C 261.6174,44 272,54.356615 272,126.9375 v 58.125 C 272,257.64309 261.6174,268 188.96875,268 h -73.9375 C 42.3826,268 32,257.64309 32,185.0625 v -58.125 C 32,54.356615 42.3826,44 115.03125,44 Z"
         style="fill:#46a926"
         id="path107" />
    </clipPath>
    <clipPath
       id="clipPath1082-3-7"
       clipPathUnits="userSpaceOnUse">
      <path
         d="M 361.9375,-212 C 507.2348,-212 528,-191.28677 528,-46.125 V 70.125 C 528,215.28618 507.2348,236 361.9375,236 H 214.0625 C 68.7652,236 48,215.28618 48,70.125 V -46.125 C 48,-191.28677 68.7652,-212 214.0625,-212 Z"
         style="fill:#8c59d9"
         id="path110" />
    </clipPath>
    <radialGradient
       id="radialGradient3322"
       cx="26.617"
       cy="-2.065"
       r="23"
       gradientTransform="matrix(-4.8906e-8,-2.8515,3.7557,0,674.00149,398.26285)"
       gradientUnits="userSpaceOnUse">
      <stop
         id="stop2749"
         offset="0"
         style="stop-color:#d280b9" />
      <stop
         style="stop-color:#b549b5"
         id="stop4269"
         offset=".529" />
      <stop
         id="stop2755"
         offset="1"
         style="stop-color:#8940a8" />
    </radialGradient>
    <clipPath
       id="clipPath1082-3-69"
       clipPathUnits="userSpaceOnUse">
      <path
         d="M 361.9375,-212 C 507.2348,-212 528,-191.28677 528,-46.125 V 70.125 C 528,215.28618 507.2348,236 361.9375,236 H 214.0625 C 68.7652,236 48,215.28618 48,70.125 V -46.125 C 48,-191.28677 68.7652,-212 214.0625,-212 Z"
         style="fill:#8c59d9"
         id="path117" />
    </clipPath>
    <clipPath
       id="clipPath1082-3-452"
       clipPathUnits="userSpaceOnUse">
      <path
         d="M 361.9375,-212 C 507.2348,-212 528,-191.28677 528,-46.125 V 70.125 C 528,215.28618 507.2348,236 361.9375,236 H 214.0625 C 68.7652,236 48,215.28618 48,70.125 V -46.125 C 48,-191.28677 68.7652,-212 214.0625,-212 Z"
         style="fill:#8c59d9"
         id="path120" />
    </clipPath>
    <clipPath
       id="clipPath1082-3-74"
       clipPathUnits="userSpaceOnUse">
      <path
         d="M 361.9375,-212 C 507.2348,-212 528,-191.28677 528,-46.125 V 70.125 C 528,215.28618 507.2348,236 361.9375,236 H 214.0625 C 68.7652,236 48,215.28618 48,70.125 V -46.125 C 48,-191.28677 68.7652,-212 214.0625,-212 Z"
         style="fill:#8c59d9"
         id="path123" />
    </clipPath>
    <clipPath
       id="clipPath1032"
       clipPathUnits="userSpaceOnUse">
      <path
         d="M 188.96875,44 C 261.6174,44 272,54.356615 272,126.9375 v 58.125 C 272,257.64309 261.6174,268 188.96875,268 h -73.9375 C 42.3826,268 32,257.64309 32,185.0625 v -58.125 C 32,54.356615 42.3826,44 115.03125,44 Z"
         style="fill:#76c22b"
         id="path126" />
    </clipPath>
    <clipPath
       id="clipPath1082-3-0"
       clipPathUnits="userSpaceOnUse">
      <path
         d="M 361.9375,-212 C 507.2348,-212 528,-191.28677 528,-46.125 V 70.125 C 528,215.28618 507.2348,236 361.9375,236 H 214.0625 C 68.7652,236 48,215.28618 48,70.125 V -46.125 C 48,-191.28677 68.7652,-212 214.0625,-212 Z"
         style="fill:#8c59d9"
         id="path129" />
    </clipPath>
    <clipPath
       id="clipPath1082-3-89"
       clipPathUnits="userSpaceOnUse">
      <path
         d="M 361.9375,-212 C 507.2348,-212 528,-191.28677 528,-46.125 V 70.125 C 528,215.28618 507.2348,236 361.9375,236 H 214.0625 C 68.7652,236 48,215.28618 48,70.125 V -46.125 C 48,-191.28677 68.7652,-212 214.0625,-212 Z"
         style="fill:#8c59d9"
         id="path132" />
    </clipPath>
    <clipPath
       id="clipPath951"
       clipPathUnits="userSpaceOnUse">
      <path
         style="fill:#8c59d9"
         d="M 188.96875,44 C 261.6174,44 272,54.356615 272,126.9375 v 58.125 C 272,257.64309 261.6174,268 188.96875,268 h -73.9375 C 42.3826,268 32,257.64309 32,185.0625 v -58.125 C 32,54.356615 42.3826,44 115.03125,44 Z"
         id="path135" />
    </clipPath>
    <clipPath
       id="clipPath1082-3-64"
       clipPathUnits="userSpaceOnUse">
      <path
         d="M 361.9375,-212 C 507.2348,-212 528,-191.28677 528,-46.125 V 70.125 C 528,215.28618 507.2348,236 361.9375,236 H 214.0625 C 68.7652,236 48,215.28618 48,70.125 V -46.125 C 48,-191.28677 68.7652,-212 214.0625,-212 Z"
         style="fill:#8c59d9"
         id="path138" />
    </clipPath>
    <clipPath
       id="clipPath1082-3-04"
       clipPathUnits="userSpaceOnUse">
      <path
         d="M 361.9375,-212 C 507.2348,-212 528,-191.28677 528,-46.125 V 70.125 C 528,215.28618 507.2348,236 361.9375,236 H 214.0625 C 68.7652,236 48,215.28618 48,70.125 V -46.125 C 48,-191.28677 68.7652,-212 214.0625,-212 Z"
         style="fill:#8c59d9"
         id="path141" />
    </clipPath>
    <clipPath
       id="clipPath1082-3-367"
       clipPathUnits="userSpaceOnUse">
      <path
         d="M 361.9375,-212 C 507.2348,-212 528,-191.28677 528,-46.125 V 70.125 C 528,215.28618 507.2348,236 361.9375,236 H 214.0625 C 68.7652,236 48,215.28618 48,70.125 V -46.125 C 48,-191.28677 68.7652,-212 214.0625,-212 Z"
         style="fill:#8c59d9"
         id="path144" />
    </clipPath>
    <linearGradient
       id="linearGradient4336-3">
      <stop
         style="stop-color:#5884f4"
         id="stop4338-8"
         offset="0" />
      <stop
         id="stop4344-3"
         offset=".278"
         style="stop-color:#5884f4" />
      <stop
         style="stop-color:#2f5fdd"
         id="stop4346-3"
         offset=".278" />
      <stop
         id="stop4350-1"
         offset=".707"
         style="stop-color:#2f5fdd" />
      <stop
         id="stop4348-6"
         offset=".709"
         style="stop-color:#234db8" />
      <stop
         style="stop-color:#234db8"
         id="stop4340-0"
         offset="1" />
    </linearGradient>
    <clipPath
       id="clipPath1082-3-56"
       clipPathUnits="userSpaceOnUse">
      <path
         d="M 361.9375,-212 C 507.2348,-212 528,-191.28677 528,-46.125 V 70.125 C 528,215.28618 507.2348,236 361.9375,236 H 214.0625 C 68.7652,236 48,215.28618 48,70.125 V -46.125 C 48,-191.28677 68.7652,-212 214.0625,-212 Z"
         style="fill:#8c59d9"
         id="path154" />
    </clipPath>
    <linearGradient
       id="linearGradient3797-5">
      <stop
         id="stop3801"
         offset="0"
         style="stop-color:#f7f7f7" />
      <stop
         id="stop3799"
         offset="1"
         style="stop-color:#e6e6e6" />
    </linearGradient>
    <clipPath
       id="clipPath1082-3-3675"
       clipPathUnits="userSpaceOnUse">
      <path
         d="M 361.9375,-212 C 507.2348,-212 528,-191.28677 528,-46.125 V 70.125 C 528,215.28618 507.2348,236 361.9375,236 H 214.0625 C 68.7652,236 48,215.28618 48,70.125 V -46.125 C 48,-191.28677 68.7652,-212 214.0625,-212 Z"
         style="fill:#8c59d9"
         id="path160" />
    </clipPath>
    <clipPath
       id="clipPath977"
       clipPathUnits="userSpaceOnUse">
      <path
         d="M 78.994141,52 C 43.625611,52 40,53.999146 40,89.296875 V 140 H 264 V 108.92188 C 264,73.624145 260.37439,68 225.00586,68 H 138 L 122,52 Z"
         style="fill:#f6531e"
         id="path163" />
    </clipPath>
    <radialGradient
       id="radialGradient2589"
       cx="148"
       cy="39.684"
       r="112"
       fx="148"
       fy="39.684"
       gradientTransform="matrix(0.26458333,0,0,0.06723474,-6.1594997,242.19179)"
       gradientUnits="userSpaceOnUse"
       xlink:href="#linearGradient1361" />
    <linearGradient
       id="linearGradient1361">
      <stop
         style="stop-color:#ffffff"
         id="stop1357"
         offset="0" />
      <stop
         style="stop-color:#ffffff;stop-opacity:0.20392157"
         id="stop1359"
         offset="1" />
    </linearGradient>
    <radialGradient
       id="radialGradient2587"
       cx="152"
       cy="-.126"
       r="112"
       fx="152"
       fy="-.126"
       gradientTransform="matrix(0.26458333,0,0,0.06959709,-6.1594997,235.34367)"
       gradientUnits="userSpaceOnUse"
       xlink:href="#linearGradient1361" />
    <linearGradient
       id="linearGradient2585"
       x1="224"
       x2="224"
       y1="86"
       y2="478"
       gradientTransform="matrix(0.11988932,0,0,0.11988932,3.3655003,231.42403)"
       gradientUnits="userSpaceOnUse"
       xlink:href="#linearGradient3602" />
    <linearGradient
       id="linearGradient3602">
      <stop
         id="stop3597"
         offset="0"
         style="stop-color:#f3994a" />
      <stop
         id="stop3599"
         offset="1"
         style="stop-color:#f6b069" />
    </linearGradient>
    <clipPath
       id="clipPath977-3"
       clipPathUnits="userSpaceOnUse">
      <path
         d="M 78.994141,52 C 43.625611,52 40,53.999146 40,89.296875 V 140 H 264 V 108.92188 C 264,73.624145 260.37439,68 225.00586,68 H 138 L 122,52 Z"
         style="fill:#f6531e"
         id="path175" />
    </clipPath>
    <filter
       style="color-interpolation-filters:sRGB"
       id="filter989"
       width="1.107"
       height="1.136"
       x="-.05"
       y="-.07">
      <feGaussianBlur
         id="feGaussianBlur991"
         stdDeviation="5" />
    </filter>
    <linearGradient
       id="linearGradient2583"
       x1="264"
       x2="48"
       y1="252"
       y2="52"
       gradientTransform="translate(-27.28,-38.771199)"
       gradientUnits="userSpaceOnUse"
       xlink:href="#linearGradient1055" />
    <linearGradient
       id="linearGradient1055">
      <stop
         style="stop-color:#000000"
         id="stop1051"
         offset="0" />
      <stop
         id="stop1059"
         offset=".159"
         style="stop-color:#000000;stop-opacity:0.43290043" />
      <stop
         style="stop-color:#000000;stop-opacity:0.0995671"
         id="stop1061"
         offset=".194" />
      <stop
         style="stop-color:#000000;stop-opacity:0"
         id="stop1053"
         offset="1" />
    </linearGradient>
    <filter
       style="color-interpolation-filters:sRGB"
       id="filter1067"
       width="1.114"
       height="1.127"
       x="-.06"
       y="-.06">
      <feGaussianBlur
         id="feGaussianBlur1069"
         stdDeviation="5.3" />
    </filter>
    <filter
       style="color-interpolation-filters:sRGB"
       id="filter959"
       width="1.023"
       height="1.025"
       x="-.01"
       y="-.01">
      <feGaussianBlur
         id="feGaussianBlur961"
         stdDeviation="1.06" />
    </filter>
    <filter
       style="color-interpolation-filters:sRGB"
       id="filter1344"
       width="1.023"
       height="1.025"
       x="-.01"
       y="-.01">
      <feGaussianBlur
         id="feGaussianBlur1346"
         stdDeviation="1.06" />
    </filter>
  </defs>
  <g
     id="layer1"
     transform="translate(0,-229.26666)">
    <g
       transform="translate(0,1.5441334)"
       id="g216">
      <path
         d="M 51.714141,15.228801 C 16.345611,15.228801 12.72,17.227947 12.72,52.525676 v 41.625005 9.078119 73.07812 c 0,35.29774 3.625611,38.92188 38.994141,38.92188 H 197.72586 c 35.36853,0 38.99414,-3.62414 38.99414,-38.92188 v -73.07812 -25.078119 -6 c 0,-35.29774 -3.62561,-40.92188 -38.99414,-40.92188 H 110.72 l -16,-16 z"
         transform="matrix(0.26458333,0,0,0.26458333,1.0583333,229.71812)"
         style="opacity:0.1;filter:url(#filter1344)"
         id="path194" />
      <path
         d="M 51.714141,14.228801 C 16.345611,14.228801 12.72,16.227947 12.72,51.525676 v 41.625005 60.656239 29.5 c 0,35.29774 3.625611,38.92188 38.994141,38.92188 H 197.72586 c 35.36853,0 38.99414,-3.62414 38.99414,-38.92188 v -29.5 -76.656239 -6 c 0,-35.297735 -3.62561,-40.92188 -38.99414,-40.92188 H 110.72 l -16,-16 z"
         transform="matrix(0.26458333,0,0,0.26458333,1.0583333,229.71812)"
         style="opacity:0.1;filter:url(#filter959)"
         id="path196" />
      <path
         style="opacity:0.4;fill:url(#linearGradient2583);filter:url(#filter1067)"
         d="M 51.714141,13.228801 C 16.345611,13.228801 12.72,15.227947 12.72,50.525676 v 41.625005 9.078119 81.07812 c 0,35.29774 3.625611,38.92188 38.994141,38.92188 H 197.72586 c 35.36853,0 38.99414,-3.62414 38.99414,-38.92188 v -81.07812 -25.078119 -6 c 0,-35.29774 -3.62561,-40.92188 -38.99414,-40.92188 H 110.72 l -16,-16 z"
         transform="matrix(0.26458333,0,0,0.26458333,1.0583333,229.71812)"
         id="path198" />
      <path
         d="m 14.741034,233.21824 c -9.3579237,0 -10.3172007,0.52894 -10.3172007,9.86813 v 13.4152 H 63.6905 v -8.22275 c 0,-9.33919 -0.959276,-10.82725 -10.3172,-10.82725 H 30.353 l -4.233333,-4.23333 z"
         style="fill:#ec7223"
         id="path200" />
      <path
         d="M 78.99353,92 C 43.625,92 40,95.625 40,130.92273 v 82.15454 C 40,248.375 43.625,252 78.99353,252 H 225.00647 C 260.375,252 264,248.375 264,213.07727 V 114.92273 C 264,79.625 260.375,76 225.00647,76 H 143.75 l -16.00782,16 z"
         clip-path="url(#clipPath977-3)"
         transform="matrix(0.26458333,0,0,0.26458333,-6.1594997,221.57657)"
         style="opacity:0.5;fill:#903906;filter:url(#filter989)"
         id="path202" />
      <path
         style="fill:url(#linearGradient2585)"
         d="m 14.740872,245.91824 c -9.3579237,0 -10.3170387,0.95911 -10.3170387,10.2983 v 21.73672 c 0,9.3392 0.959115,10.29831 10.3170387,10.29831 h 38.63259 c 9.357923,0 10.317038,-0.95911 10.317038,-10.29831 v -25.97005 c 0,-9.33919 -0.959115,-10.29831 -10.317038,-10.29831 H 31.874354 l -4.235401,4.23334 z"
         id="path204" />
      <path
         d="m 14.741034,233.21824 c -9.3579237,0 -10.3172007,0.52894 -10.3172007,9.86813 v 0.52917 c 0,-9.3392 0.959277,-9.86814 10.3172007,-9.86814 h 11.378633 l 4.233333,4.23334 h 23.0203 c 9.357924,0 10.3172,1.48805 10.3172,10.82724 v -0.52916 c 0,-9.3392 -0.959276,-10.82725 -10.3172,-10.82725 H 30.353 l -4.233333,-4.23333 z"
         style="opacity:0.4;fill:url(#radialGradient2587)"
         id="path206" />
      <path
         d="m 31.874354,241.6849 -4.235399,4.23334 H 14.741034 c -9.3579237,0 -10.3172007,0.95889 -10.3172007,10.29808 v 0.52916 c 0,-9.33919 0.959277,-10.29808 10.3172007,-10.29808 h 12.897921 l 4.235399,-4.23333 H 53.3733 c 9.357924,0 10.3172,0.95889 10.3172,10.29808 v -0.52917 c 0,-9.33919 -0.959276,-10.29808 -10.3172,-10.29808 z"
         style="opacity:0.4;fill:url(#radialGradient2589)"
         id="path208" />
      <path
         d="M 63.6905,270.78907 46.757166,287.7224 H 53.3733 c 9.357924,0 10.3172,-0.95888 10.3172,-10.29808 z"
         style="opacity:0.1;fill:#ffffff"
         id="path210" />
      <path
         d="m 4.4238333,277.42432 v 0.52917 c 0,9.33919 0.959277,10.29808 10.3172007,10.29808 H 53.3733 c 9.357924,0 10.3172,-0.95889 10.3172,-10.29808 v -0.52917 c 0,9.3392 -0.959276,10.29808 -10.3172,10.29808 H 14.741034 c -9.3579237,0 -10.3172007,-0.95888 -10.3172007,-10.29808 z"
         style="opacity:0.2;fill:#491706"
         id="path212" />
    </g>
  </g>
  <path
     inkscape:connector-curvature="0"
     d="m 20.769828,25.937009 v 21.496338 h 9.921387 c 1.612225,0 2.649013,1.32285 2.649013,1.32285 l 0.644887,0.85655 0.661425,-0.843319 c 0,0 1.078125,-1.311281 2.665544,-1.336081 h 9.914775 V 25.937009 h -3.307131 v 1.653563 h 1.653568 v 18.189212 h -8.281049 c -1.694907,0.025 -2.685394,0.7904 -3.287288,1.362538 A 4.6167519,4.6167519 0 0 0 30.691215,45.779784 H 22.423391 V 27.590572 h 8.267824 c 1.625457,0 2.6457,1.3212 2.6457,1.3212 l 0.661432,0.884656 0.661425,-0.884656 c 0,0 1.020249,-1.3212 2.645699,-1.3212 v 11.57495 l 4.960694,-1.653563 v -11.57495 h -4.960694 c -1.713093,0 -2.703575,0.768907 -3.307125,1.355925 -0.603562,-0.587 -1.594037,-1.355925 -3.307131,-1.355925 z m 4.960694,4.960694 v 1.653563 h 4.960693 v -1.653563 z m 0,3.307125 v 1.653569 h 4.960693 v -1.653569 z m 0,3.307132 v 1.653562 h 4.960693 V 37.51196 Z m 0,3.307131 v 1.653562 h 4.960693 v -1.653562 z"
     style="color:#000000;font-weight:400;line-height:normal;font-family:sans-serif;font-variant-ligatures:none;font-variant-position:normal;font-variant-caps:normal;font-variant-numeric:normal;font-variant-alternates:normal;font-feature-settings:normal;text-indent:0;text-align:start;text-decoration:none;text-decoration-line:none;text-decoration-style:solid;text-decoration-color:#000000;text-transform:none;white-space:normal;shape-padding:0;overflow:visible;isolation:auto;mix-blend-mode:normal;fill:#ffffff;stroke-width:1.65356457;marker:none;fill-opacity:1;opacity:0.6"
     font-weight="400"
     overflow="visible"
     id="path2-3" />
</svg>
