<svg xmlns="http://www.w3.org/2000/svg" xmlns:xlink="http://www.w3.org/1999/xlink" width="256" height="256" version="1.1" viewBox="0 0 67.73 67.73">
 <defs>
  <linearGradient id="linearGradient21865" x1="1278" x2="1278" y1="-1062.638" y2="-1118.638" gradientTransform="matrix(2,0,0,2.00002,-1069,630.656)" gradientUnits="userSpaceOnUse" xlink:href="#linearGradient8754"/>
  <linearGradient id="linearGradient8754">
   <stop id="stop8756" offset="0" style="stop-color:#dc85e9"/>
   <stop id="stop8758" offset="1" style="stop-color:#f8dcfb"/>
  </linearGradient>
  <linearGradient id="linearGradient21867" x1="1559.5" x2="1542" y1="184" y2="184" gradientTransform="matrix(-1,0,0,1,2865,-1753.64)" gradientUnits="userSpaceOnUse" xlink:href="#linearGradient8742"/>
  <linearGradient id="linearGradient8742">
   <stop id="stop8744" offset="0" style="stop-color:#9200ff"/>
   <stop id="stop8746" offset="1" style="stop-color:#ff00ff;stop-opacity:0"/>
  </linearGradient>
  <linearGradient id="linearGradient21869" x1="1559.5" x2="1542" y1="184" y2="184" gradientTransform="translate(-123,-1753.64)" gradientUnits="userSpaceOnUse" xlink:href="#linearGradient8742"/>
  <radialGradient id="radialGradient21871" cx="152.333" cy="-754.638" r="15" fx="152.333" fy="-754.638" gradientTransform="matrix(4.06286e-6,1.01528,-4.27735,0,-1857.01,-1670.52)" gradientUnits="userSpaceOnUse" xlink:href="#linearGradient8717"/>
  <linearGradient id="linearGradient8717">
   <stop id="stop8719" offset="0" style="stop-color:#800080"/>
   <stop id="stop8723" offset=".727" style="stop-color:#800080"/>
   <stop id="stop8721" offset="1" style="stop-color:#ff00ff;stop-opacity:0"/>
  </linearGradient>
  <linearGradient id="linearGradient21873" x1="453.5" x2="404.5" y1="970.5" y2="970.5" gradientTransform="matrix(2,0,0,2,513,-3495.64)" gradientUnits="userSpaceOnUse" xlink:href="#linearGradient8964"/>
  <linearGradient id="linearGradient8964">
   <stop id="stop8966" offset="0" style="stop-color:#e196fb"/>
   <stop id="stop8968" offset=".13" style="stop-color:#f4c7fa"/>
   <stop id="stop8970" offset=".314" style="stop-color:#e091f3"/>
   <stop id="stop8972" offset=".441" style="stop-color:#d764e9"/>
   <stop id="stop8974" offset=".684" style="stop-color:#e7adf0"/>
   <stop id="stop8976" offset=".756" style="stop-color:#e6a9f8"/>
   <stop id="stop8978" offset=".88" style="stop-color:#e595f2"/>
   <stop id="stop8980" offset="1" style="stop-color:#f2cbf8"/>
  </linearGradient>
  <linearGradient id="linearGradient21875" x1="1322" x2="1419" y1="-1568.511" y2="-1568.511" gradientTransform="translate(0.022825,4.5e-5)" gradientUnits="userSpaceOnUse" xlink:href="#linearGradient8663"/>
  <linearGradient id="linearGradient8663">
   <stop id="stop8665" offset="0" style="stop-color:#9207a7"/>
   <stop id="stop8667" offset=".273" style="stop-color:#c658bc"/>
   <stop id="stop8669" offset=".51" style="stop-color:#a42eb6"/>
   <stop id="stop8671" offset=".834" style="stop-color:#b415cd"/>
   <stop id="stop8673" offset="1" style="stop-color:#950ba8"/>
  </linearGradient>
  <radialGradient id="radialGradient21877" cx="518.854" cy="730.484" r="22.89" fx="518.854" fy="730.484" gradientTransform="matrix(0.959821,0,1.35768e-7,0.268231,21.681,534.374)" gradientUnits="userSpaceOnUse" xlink:href="#linearGradient14494"/>
  <linearGradient id="linearGradient14494">
   <stop id="stop14496" offset="0" style="stop-color:#dc85e9"/>
   <stop id="stop14498" offset="1" style="stop-color:#f2cbf8"/>
  </linearGradient>
  <linearGradient id="linearGradient8859">
   <stop id="stop8861" offset="0" style="stop-color:#ffffff"/>
   <stop id="stop8863" offset="1" style="stop-color:#aa0000;stop-opacity:0"/>
  </linearGradient>
  <linearGradient id="linearGradient21881" x1="1510.477" x2="1485.877" y1="169" y2="194" gradientTransform="matrix(0.984483,0,0,0.972527,-100.349,-1748.97)" gradientUnits="userSpaceOnUse" xlink:href="#linearGradient8984"/>
  <linearGradient id="linearGradient8984">
   <stop id="stop8986" offset="0" style="stop-color:#ffffff"/>
   <stop id="stop8988" offset="1" style="stop-color:#ffffff;stop-opacity:0"/>
  </linearGradient>
  <linearGradient id="linearGradient21883" x1="1354.568" x2="1383.38" y1="-1522.359" y2="-1543.981" gradientTransform="matrix(0.976263,0.126435,-0.367421,0.97673,-556.181,-210.596)" gradientUnits="userSpaceOnUse" xlink:href="#linearGradient8984"/>
  <linearGradient id="linearGradient7701">
   <stop id="stop7699" offset="0" style="stop-color:#950ba8"/>
   <stop id="stop7693" offset="1" style="stop-color:#c557bc"/>
  </linearGradient>
  <radialGradient id="radialGradient21871-3" cx="152.333" cy="-754.638" r="15" fx="152.333" fy="-754.638" gradientTransform="matrix(4.06286e-6,1.01528,-4.27735,0,-1857.01,-1670.52)" gradientUnits="userSpaceOnUse" xlink:href="#linearGradient8717"/>
  <radialGradient id="radialGradient21877-8" cx="518.854" cy="730.484" r="22.89" fx="518.854" fy="730.484" gradientTransform="matrix(0.959821,0,1.35768e-7,0.268231,21.681,534.374)" gradientUnits="userSpaceOnUse" xlink:href="#linearGradient14494"/>
  <linearGradient id="linearGradient9981">
   <stop id="stop9983" offset="0" style="stop-color:rgb(255, 246, 221)"/>
   <stop id="stop9985" offset="1" style="stop-color:rgb(254, 248, 244)"/>
  </linearGradient>
  <clipPath id="clipPath999" clipPathUnits="userSpaceOnUse">
   <path style="opacity:0.56300001;fill:#111111" d="m 142.9375,44 h 18.125 c 35.90898,0 54.29517,3.184359 63.02539,11.925781 C 232.81811,64.667204 236,80 236,112 c 0,32 -3.18189,47.3328 -11.91211,56.07422 C 215.35767,176.81564 196.97148,180 161.0625,180 h -18.125 C 107.02867,180 88.64237,176.81566 79.912109,168.07422 71.181849,159.33278 68,144 68,112 68,80 71.181849,64.667219 79.912109,55.925781 88.64237,47.184344 107.02867,44 142.9375,44 Z"/>
  </clipPath>
  <linearGradient id="linearGradient3886" x1="72" x2="88" y1="108" y2="108" gradientUnits="userSpaceOnUse" xlink:href="#linearGradient2684"/>
  <linearGradient id="linearGradient2684">
   <stop style="stop-color:#000000" id="stop2680" offset="0"/>
   <stop style="stop-color:#103134" id="stop2682" offset="1"/>
  </linearGradient>
  <clipPath id="clipPath960" clipPathUnits="userSpaceOnUse">
   <path d="M 244,192.96875 C 244,265.6174 233.64338,276 161.0625,276 h -18.125 C 70.35691,276 60,265.6174 60,192.96875 v -73.9375 C 60,46.3826 70.35691,36 142.9375,36 h 18.125 C 233.64338,36 244,46.3826 244,119.03125 Z" style="fill:#2daaaa"/>
  </clipPath>
  <linearGradient id="linearGradient928">
   <stop style="stop-color:#808080" id="stop924" offset="0"/>
   <stop style="stop-color:#999999" id="stop926" offset="1"/>
  </linearGradient>
  <linearGradient id="linearGradient1884" x1="152.006" x2="152.006" y1="112.013" y2="239.995" gradientTransform="matrix(0.26488626,0,0,0.26488626,-6.4611988,222.04517)" gradientUnits="userSpaceOnUse" xlink:href="#linearGradient928"/>
  <linearGradient id="linearGradient3212" x1="529.655" x2="-35.31" y1="295.638" y2="295.638" gradientTransform="matrix(0,-0.11988932,-0.11988589,0,67.723427,291.97285)" gradientUnits="userSpaceOnUse" xlink:href="#linearGradient876"/>
  <linearGradient id="linearGradient876">
   <stop style="stop-color:#b3b3b3" id="stop872" offset="0"/>
   <stop style="stop-color:#d9d9d9" id="stop874" offset="1"/>
  </linearGradient>
  <filter style="color-interpolation-filters:sRGB" id="filter1203" width="1.136" height="1.107" x="-.07" y="-.05">
   <feGaussianBlur id="feGaussianBlur1205" stdDeviation="10"/>
  </filter>
  <filter style="color-interpolation-filters:sRGB" id="filter4346" width="1.026" height="1.022" x="-.01" y="-.01">
   <feGaussianBlur id="feGaussianBlur4348" stdDeviation="2.12"/>
  </filter>
 </defs>
 <g id="layer1" transform="translate(0,-229.26665)">
  <path d="M 189.84323,74 C 119.24979,74 111.65402,81.250835 112,151.98706 V 298 444.01294 C 111.65402,514.74917 119.24979,522 189.84323,522 H 386.15677 C 456.75021,522 462.16345,514.72616 464,444.01294 V 298 151.98706 C 464,81.249993 456.75021,74 386.15677,74 Z" transform="matrix(0.13229167,0,0,0.13229167,-3.7026964,223.18119)" style="opacity:0.1;filter:url(#filter4346)"/>
  <path style="opacity:0.2;filter:url(#filter1203)" d="M 189.84323,74 C 119.24979,74 111.65402,81.250835 112,151.98706 V 298 444.01294 C 111.65402,514.74917 119.24979,522 189.84323,522 H 386.15677 C 456.75021,522 464,514.75001 464,444.01294 V 298 151.98706 C 464,81.249993 456.75021,74 386.15677,74 Z" transform="matrix(0.13229167,0,0,0.13229167,-3.7026964,223.18119)"/>
  <path d="m 47.381197,232.70619 c 9.338927,0 10.343782,0.95922 10.298012,10.31704 v 19.31629 19.3163 c 0.04577,9.35781 -0.959085,10.31704 -10.298012,10.31704 H 21.410554 c -9.338923,0 -10.298011,-0.95912 -10.298011,-10.31704 v -19.3163 -19.31629 c 0,-9.35793 0.959088,-10.31704 10.298011,-10.31704 z" style="fill:url(#linearGradient3212)"/>
  <path d="m 11.11397,281.12649 v 0.52917 c -0.04577,9.35781 0.959154,10.3172 10.298081,10.3172 h 25.970506 c 9.338924,0 10.055122,-0.96243 10.298081,-10.3172 v -0.52917 c -0.242959,9.35477 -0.959157,10.3172 -10.298081,10.3172 H 21.412051 c -9.338927,0 -10.343851,-0.95939 -10.298081,-10.3172 z" style="opacity:0.2"/>
  <path style="opacity:0.2;fill:#ffffff" d="m 11.11397,243.55411 v -0.52917 c -0.04577,-9.35782 0.959154,-10.3172 10.298081,-10.3172 h 25.970506 c 9.338924,0 10.055122,0.96243 10.298081,10.3172 v 0.52917 c -0.242959,-9.35478 -0.959157,-10.3172 -10.298081,-10.3172 H 21.412051 c -9.338927,0 -10.343851,0.95938 -10.298081,10.3172 z"/>
  <path style="fill:#28851e" d="m 32.962024,265.176 c 0.285737,0.0519 0.597588,0.31155 0.753443,0.51935 l 2.519744,4.36408 -1.29863,0.77928 h 4.311883 l 2.155941,-3.74034 -1.324986,0.75292 -1.324464,-2.33784 C 38.625074,265.27967 38.365279,265.176 38.079542,265.176 Z m -1.486731,0.26304 c -0.662384,0.0227 -1.305451,0.26927 -1.578197,0.74982 l -1.97404,3.45509 3.792016,2.20762 2.415873,-4.20802 -0.961181,-1.61024 c -0.350673,-0.41561 -1.032084,-0.617 -1.694471,-0.59427 z m 10.266559,5.34799 -3.818371,2.18178 2.415873,4.12998 h 2.052071 c 0.831229,-0.15586 2.078146,-1.50668 1.350823,-2.90938 z m -16.91008,0.90899 1.376659,0.80512 -0.88315,1.48053 c -0.779277,1.45465 0.519351,3.05905 1.298631,3.14348 h 2.026232 l 1.376659,-2.39004 1.376661,0.75344 -2.207617,-3.79253 z m 12.39046,4.44159 -2.208136,3.79253 2.208136,3.7667 v -1.5844 h 2.701642 c 0.311713,0 0.519313,-0.18183 0.623218,-0.38964 l 2.441712,-4.31188 c -0.129881,0.0779 -0.207708,0.20746 -0.701249,0.25941 h -5.065323 z m -11.221538,1.32498 c 0.103902,0.12988 0.0778,0.10409 2.363679,4.15634 0.155855,0.23378 0.363836,0.51948 0.649573,0.49351 h 4.857583 v -4.44211 h -7.221262 c -0.389639,0 -0.526188,-0.10383 -0.649573,-0.20774 z"/>
  <path d="m 19.584836,237.46869 h 26.802843 2.822226 c 1.77729,0.0207 2.945045,0.0844 3.461639,0.36931 0.258794,0.14278 0.407976,0.30016 0.545703,0.66697 0.138287,0.36681 0.225991,1.78594 0.225991,1.78594 v 2.82222 h 0.0085 v 2.11667 c 0,0.83596 -0.08777,1.41912 -0.225992,1.78594 -0.137726,0.36682 -0.287046,0.52419 -0.545703,0.66697 -0.516752,0.28507 -1.683782,0.34857 -3.461639,0.36931 H 49.204274 23.818048 19.59298 19.57647 c -1.777889,-0.0207 -2.944919,-0.0842 -3.461655,-0.36931 -0.258657,-0.14278 -0.407982,-0.30015 -0.545703,-0.66697 -0.138293,-0.36682 -0.226007,-0.94998 -0.226007,-1.78594 v -2.11667 -2.82222 c 0,-0.83595 0.08904,-1.41913 0.226007,-1.78594 0.138287,-0.36686 0.287046,-0.52419 0.545703,-0.66697 0.517594,-0.28555 1.686957,-0.34868 3.469894,-0.36931 z" style="opacity:0.2;fill:#ffffff"/>
  <path style="opacity:0.4" d="m 19.584836,236.93952 h 26.802843 2.822226 c 1.77729,0.0207 2.945045,0.0844 3.461639,0.36932 0.258794,0.14277 0.407976,0.30015 0.545703,0.66697 0.138287,0.3668 0.225991,1.78593 0.225991,1.78593 v 2.82223 h 0.0085 v 2.11666 c 0,0.83596 -0.08777,1.41912 -0.225992,1.78594 -0.137726,0.36682 -0.287046,0.5242 -0.545703,0.66697 -0.516752,0.28507 -1.683782,0.34857 -3.461639,0.36932 H 49.204274 23.818048 19.59298 19.57647 c -1.777889,-0.0207 -2.944919,-0.0842 -3.461655,-0.36932 -0.258657,-0.14277 -0.407982,-0.30015 -0.545703,-0.66697 -0.138293,-0.36682 -0.226007,-0.94998 -0.226007,-1.78594 v -2.11666 -2.82223 c 0,-0.83595 0.08904,-1.41913 0.226007,-1.78593 0.138287,-0.36686 0.287046,-0.5242 0.545703,-0.66697 0.517594,-0.28555 1.686957,-0.34869 3.469894,-0.36932 z"/>
 </g>
</svg>
