<?xml version="1.0" encoding="UTF-8" standalone="no"?>
<svg
   xmlns:dc="http://purl.org/dc/elements/1.1/"
   xmlns:cc="http://creativecommons.org/ns#"
   xmlns:rdf="http://www.w3.org/1999/02/22-rdf-syntax-ns#"
   xmlns:svg="http://www.w3.org/2000/svg"
   xmlns="http://www.w3.org/2000/svg"
   xmlns:sodipodi="http://sodipodi.sourceforge.net/DTD/sodipodi-0.dtd"
   xmlns:inkscape="http://www.inkscape.org/namespaces/inkscape"
   height="16"
   width="16"
   version="1.1"
   id="svg4"
   sodipodi:docname="avatar-default.svg"
   inkscape:version="0.92.4 (5da689c313, 2019-01-14)">
  <metadata
     id="metadata10">
    <rdf:RDF>
      <cc:Work
         rdf:about="">
        <dc:format>image/svg+xml</dc:format>
        <dc:type
           rdf:resource="http://purl.org/dc/dcmitype/StillImage" />
      </cc:Work>
    </rdf:RDF>
  </metadata>
  <defs
     id="defs8" />
  <sodipodi:namedview
     pagecolor="#ffffff"
     bordercolor="#666666"
     borderopacity="1"
     objecttolerance="10"
     gridtolerance="10"
     guidetolerance="10"
     inkscape:pageopacity="0"
     inkscape:pageshadow="2"
     inkscape:window-width="1920"
     inkscape:window-height="1016"
     id="namedview6"
     showgrid="false"
     inkscape:zoom="14.75"
     inkscape:cx="8"
     inkscape:cy="8"
     inkscape:window-x="0"
     inkscape:window-y="27"
     inkscape:window-maximized="1"
     inkscape:current-layer="svg4" />
  <circle
     cx="8"
     cy="8"
     r="8"
     id="circle18"
     style="fill:#1a7fd4;fill-opacity:1;stroke-width:2.8796401" />
  <path
     d="m 7.9999688,3.4286611 c -0.3230853,0 -0.6303617,0.055937 -0.9130514,0.1685669 C 6.8058982,3.7045666 6.5566013,3.861795 6.3493097,4.065965 l -7.616e-4,0.00227 -7.619e-4,7.938e-4 C 6.1458271,4.2738768 5.9895625,4.5204532 5.8799234,4.8000249 5.7682421,5.0800879 5.7152153,5.3862674 5.7152153,5.7141036 c 0,0.3322205 0.0528,0.641537 0.1647081,0.9218645 0.1098973,0.2751496 0.2664,0.518778 0.4678628,0.7232126 l 7.619e-4,7.559e-4 7.616e-4,7.559e-4 c 0.2068195,0.2037166 0.454278,0.3632126 0.7340269,0.4754646 l 0.00229,7.559e-4 0.00229,7.559e-4 c 0.2820964,0.1073386 0.589158,0.160252 0.9117486,0.160252 0.3225373,0 0.6283503,-0.053291 0.9106666,-0.1606299 V 7.8365351 C 9.1898419,7.724661 9.4352905,7.5640311 9.6372031,7.3599744 9.8446689,7.155502 10.004312,6.9109666 10.114612,6.6345319 10.226932,6.354091 10.280507,6.0449634 10.280507,5.7126296 h 0.0046 c 0,-0.3273071 -0.05318,-0.633411 -0.164708,-0.9129449 C 10.010498,4.5188658 9.8508545,4.2714957 9.6429555,4.0664186 9.4405618,3.8615682 9.1933096,3.702828 8.9125096,3.5954517 8.6298274,3.4824438 8.322666,3.4268847 7.9993365,3.4268847 Z"
     id="path24"
     inkscape:connector-curvature="0"
     style="fill:#f6fcfe;stroke-width:2.8796401" />
  <path
     d="m 11.809439,11.809272 -7.6189939,-5.67e-4 c 0,0 0.03757,-0.882066 0.154118,-1.303446 0.116579,-0.421379 0.323115,-0.7826263 0.635893,-1.0482515 0.62557,-0.5311748 1.4671315,-0.6947906 3.035208,-0.6947906 1.5680458,0 2.3814249,0.1640315 3.0066739,0.6953575 0.312654,0.2653228 0.51875,0.6270616 0.634827,1.0485166 0.116137,0.421417 0.152326,1.303748 0.152326,1.303748 z"
     id="path26"
     inkscape:connector-curvature="0"
     style="fill:#f6fcfe;stroke-width:2.8796401" />
  <path
     style="fill:#ffffff;fill-opacity:1;stroke-width:2.8796401;opacity:0.3"
     d="M 8 0 A 8 8 0 0 0 0 8 A 8 8 0 0 0 0.009765625 8.2929688 A 8 8 0 0 1 8 0.5 A 8 8 0 0 1 15.990234 8.2070312 A 8 8 0 0 0 16 8 A 8 8 0 0 0 8 0 z "
     id="circle827" />
  <path
     id="path832"
     d="M 8.0000195,16 A 8,8 0 0 0 16.000019,7.9999996 8,8 0 0 0 15.990219,7.7070316 8,8 0 0 1 7.9999845,15.5 8,8 0 0 1 0.0097505,7.7929686 a 8,8 0 0 0 -0.00977,0.207031 8,8 0 0 0 8,8.0000004 z"
     style="opacity:0.2;fill:#000000;fill-opacity:1;stroke-width:2.8796401"
     inkscape:connector-curvature="0" />
</svg>
