<svg height="16" width="16" xmlns="http://www.w3.org/2000/svg"><g stroke-width="2.87964"><circle cx="8" cy="8" fill="#1a7fd4" r="8"/><path d="m7.9999688 3.4286611c-.3230853 0-.6303617.055937-.9130514.1685669-.2810192.1073386-.5303161.264567-.7376077.468737l-.0007616.00227-.0007619.0007938c-.2019591.204848-.3582237.4514244-.4678628.7309961-.1116813.280063-.1647081.5862425-.1647081.9140787 0 .3322205.0528.641537.1647081.9218645.1098973.2751496.2664.518778.4678628.7232126l.0007619.0007559.0007616.0007559c.2068195.2037166.454278.3632126.7340269.4754646l.00229.0007559.00229.0007559c.2820964.1073386.589158.160252.9117486.160252.3225373 0 .6283503-.053291.9106666-.1606299v-.0007559c.2795101-.1118741.5249587-.272504.7268713-.4765607.2074658-.2044724.3671089-.4490078.4774089-.7254425.11232-.2804409.165895-.5895685.165895-.9219023h.0046c0-.3273071-.05318-.633411-.164708-.9129449-.109901-.2808189-.2695445-.528189-.4774435-.7332661-.2023937-.2048504-.4496459-.3635906-.7304459-.4709669-.2826822-.1130079-.5898436-.168567-.9131731-.168567z" fill="#f6fcfe"/><path d="m11.809439 11.809272-7.6189939-.000567s.03757-.882066.154118-1.303446c.116579-.421379.323115-.7826263.635893-1.0482515.62557-.5311748 1.4671315-.6947906 3.035208-.6947906 1.5680458 0 2.3814249.1640315 3.0066739.6953575.312654.2653228.51875.6270616.634827 1.0485166.116137.421417.152326 1.303748.152326 1.303748z" fill="#f6fcfe"/><path d="m8 0a8 8 0 0 0 -8 8 8 8 0 0 0 .00976563.2929688 8 8 0 0 1 7.99023437-7.7929688 8 8 0 0 1 7.990234 7.7070312 8 8 0 0 0 .009766-.2070312 8 8 0 0 0 -8-8z" fill="#fff" opacity=".3"/><path d="m8.0000195 16a8 8 0 0 0 7.9999995-8.0000004 8 8 0 0 0 -.0098-.292968 8 8 0 0 1 -7.9902345 7.7929684 8 8 0 0 1 -7.990234-7.7070314 8 8 0 0 0 -.00977.207031 8 8 0 0 0 8 8.0000004z" opacity=".2"/></g></svg>