<?xml version="1.0" encoding="UTF-8" standalone="no"?>
<svg
   xmlns:osb="http://www.openswatchbook.org/uri/2009/osb"
   xmlns:dc="http://purl.org/dc/elements/1.1/"
   xmlns:cc="http://creativecommons.org/ns#"
   xmlns:rdf="http://www.w3.org/1999/02/22-rdf-syntax-ns#"
   xmlns:svg="http://www.w3.org/2000/svg"
   xmlns="http://www.w3.org/2000/svg"
   xmlns:sodipodi="http://sodipodi.sourceforge.net/DTD/sodipodi-0.dtd"
   xmlns:inkscape="http://www.inkscape.org/namespaces/inkscape"
   height="16.000017"
   id="svg7384"
   version="1.1"
   width="16.000044"
   sodipodi:docname="image-missing.svg"
   inkscape:version="0.92.4 (5da689c313, 2019-01-14)">
  <sodipodi:namedview
     pagecolor="#ffffff"
     bordercolor="#666666"
     borderopacity="1"
     objecttolerance="10"
     gridtolerance="10"
     guidetolerance="10"
     inkscape:pageopacity="0"
     inkscape:pageshadow="2"
     inkscape:window-width="1920"
     inkscape:window-height="1016"
     id="namedview22"
     showgrid="false"
     inkscape:zoom="55.930474"
     inkscape:cx="4.0385054"
     inkscape:cy="8.896377"
     inkscape:window-x="0"
     inkscape:window-y="27"
     inkscape:window-maximized="1"
     inkscape:current-layer="layer9" />
  <metadata
     id="metadata20854">
    <rdf:RDF>
      <cc:Work
         rdf:about="">
        <dc:title />
        <dc:format>image/svg+xml</dc:format>
        <dc:type
           rdf:resource="http://purl.org/dc/dcmitype/StillImage" />
      </cc:Work>
    </rdf:RDF>
  </metadata>
  <defs
     id="defs7386">
    <linearGradient
       id="linearGradient5606"
       osb:paint="solid">
      <stop
         id="stop5608"
         offset="0"
         style="stop-color:#000000;stop-opacity:1;" />
    </linearGradient>
    <linearGradient
       id="linearGradient4526"
       osb:paint="solid">
      <stop
         id="stop4528"
         offset="0"
         style="stop-color:#ffffff;stop-opacity:1;" />
    </linearGradient>
    <linearGradient
       id="linearGradient3600-4"
       osb:paint="gradient">
      <stop
         id="stop3602-7"
         offset="0"
         style="stop-color:#f4f4f4;stop-opacity:1" />
      <stop
         id="stop3604-6"
         offset="1"
         style="stop-color:#dbdbdb;stop-opacity:1" />
    </linearGradient>
    <clipPath
       clipPathUnits="userSpaceOnUse"
       id="clipPath983">
      <path
         sodipodi:nodetypes="scccssscsss"
         inkscape:connector-curvature="0"
         id="path985"
         d="m 325.09646,237 c -2.80769,0 -3.10979,0.28839 -3.09603,3.10176 V 244 v 3.89824 c -0.0138,2.81337 0.28834,3.10176 3.09603,3.10176 h 5.8075 C 333.71166,251 334,250.71165 334,247.89824 V 244 240.10176 C 334,237.28836 333.71165,237 330.90396,237 Z"
         style="color:#000000;display:inline;overflow:visible;visibility:visible;opacity:1;fill:#46a926;fill-opacity:1;fill-rule:nonzero;stroke:none;stroke-width:2;stroke-miterlimit:4;stroke-dasharray:none;stroke-opacity:1;marker:none;enable-background:accumulate" />
    </clipPath>
  </defs>
  <g
     id="layer9"
     label="status"
     style="display:inline;stroke:#000000;stroke-opacity:1;stroke-width:0.5;stroke-miterlimit:4;stroke-dasharray:none"
     transform="translate(-1011.3731,62.525455)">
    <path
       style="color:#000000;display:inline;overflow:visible;visibility:visible;fill:#ed3146;fill-opacity:1;fill-rule:nonzero;stroke:none;stroke-width:0.99997997;marker:none;enable-background:accumulate"
       d="m 1026.8731,-57.430045 c 0,-0.71048 -0.015,-1.27344 -0.096,-1.75195 -0.08,-0.47851 -0.2373,-0.89671 -0.5469,-1.20703 -0.3096,-0.31032 -0.726,-0.46726 -1.2049,-0.54688 -0.479,-0.0796 -1.0436,-0.0933 -1.7559,-0.0898 h -3.8963 -3.8982 c -0.7112,-0.003 -1.2755,0.0103 -1.7539,0.0898 -0.479,0.0796 -0.8954,0.23655 -1.205,0.54688 -0.3096,0.31033 -0.4666,0.72851 -0.5469,1.20703 -0.08,0.47852 -0.096,1.04147 -0.096,1.75195 v 5.8086 c 0,0.71048 0.015,1.27236 0.096,1.75 0.08,0.47763 0.2371,0.89584 0.5469,1.20508 0.3097,0.30921 0.7267,0.46469 1.205,0.54492 0.4782,0.0802 1.042,0.0957 1.7539,0.0957 h 3.8982 3.8983 c 0.7118,0 1.2756,-0.0155 1.7539,-0.0957 0.4782,-0.0802 0.8952,-0.2357 1.2049,-0.54492 0.3098,-0.30924 0.4665,-0.72745 0.5469,-1.20508 0.08,-0.47764 0.096,-1.03952 0.096,-1.75 z"
       id="path918"
       inkscape:connector-curvature="0" />
    <path
       style="color:#000000;font-style:normal;font-variant:normal;font-weight:normal;font-stretch:normal;font-size:medium;line-height:normal;font-family:sans-serif;font-variant-ligatures:normal;font-variant-position:normal;font-variant-caps:normal;font-variant-numeric:normal;font-variant-alternates:normal;font-feature-settings:normal;text-indent:0;text-align:start;text-decoration:none;text-decoration-line:none;text-decoration-style:solid;text-decoration-color:#000000;letter-spacing:normal;word-spacing:normal;text-transform:none;writing-mode:lr-tb;direction:ltr;text-orientation:mixed;dominant-baseline:auto;baseline-shift:baseline;text-anchor:start;white-space:normal;shape-padding:0;clip-rule:nonzero;display:inline;overflow:visible;visibility:visible;opacity:0.6;isolation:auto;mix-blend-mode:normal;color-interpolation:sRGB;color-interpolation-filters:linearRGB;solid-color:#000000;solid-opacity:1;vector-effect:none;fill:#ffffff;fill-opacity:1;fill-rule:nonzero;stroke:none;stroke-width:0.50157869;stroke-linecap:square;stroke-linejoin:miter;stroke-miterlimit:4;stroke-dasharray:none;stroke-dashoffset:0;stroke-opacity:1;color-rendering:auto;image-rendering:auto;shape-rendering:auto;text-rendering:auto;enable-background:accumulate"
       d="m 1019.3731,-58.538385 c -2.2131,0 -4.0126,1.79949 -4.0126,4.01263 0,2.21314 1.7995,4.01263 4.0126,4.01263 2.2132,0 4.0126,-1.79949 4.0126,-4.01263 0,-2.21314 -1.7994,-4.01263 -4.0126,-4.01263 z m 0,0.50158 c 1.9421,0 3.5111,1.56898 3.5111,3.51105 0,0.88063 -0.3245,1.68255 -0.8582,2.29825 l -4.9511,-4.95113 c 0.6157,-0.53371 1.4176,-0.85817 2.2982,-0.85817 z m -2.6529,1.2128 4.9512,4.95113 c -0.6157,0.53371 -1.4177,0.85817 -2.2983,0.85817 -1.9421,0 -3.511,-1.56898 -3.511,-3.51105 0,-0.88063 0.3244,-1.68255 0.8581,-2.29825 z"
       id="path2933-7-5-4-7"
       inkscape:connector-curvature="0" />
    <g
       id="g1034"
       transform="matrix(0,1,1,0,775.37314,-382.52576)"
       style="display:inline;opacity:0.1;enable-background:new">
      <path
         inkscape:connector-curvature="0"
         id="path1009"
         d="m 328,237 v 14 h 2.9043 C 333.712,251 334,250.71185 334,247.89844 V 244 240.10156 C 334,237.28816 333.71199,237 330.9043,237 Z"
         style="color:#000000;display:inline;overflow:visible;visibility:visible;opacity:0.03999999;fill:#ffffff;fill-opacity:1;fill-rule:nonzero;stroke:none;stroke-width:1;marker:none;enable-background:accumulate" />
      <path
         inkscape:connector-curvature="0"
         id="path1016"
         d="m 322,244 v 3.89844 C 321.9862,250.71181 322.28801,251 325.0957,251 h 5.8086 C 333.712,251 334,250.71185 334,247.89844 V 244 Z"
         style="color:#000000;display:inline;overflow:visible;visibility:visible;opacity:0.03999999;fill:#ffffff;fill-opacity:1;fill-rule:nonzero;stroke:none;stroke-width:1;marker:none;enable-background:accumulate" />
    </g>
    <path
       style="color:#000000;display:inline;overflow:visible;visibility:visible;fill:#ffffff;fill-opacity:1;fill-rule:nonzero;stroke:none;stroke-width:0.99997997;marker:none;enable-background:accumulate;opacity:0.3"
       d="M 4.1015625 1.5 C 3.3903625 1.497 2.8260563 1.5103438 2.3476562 1.5898438 C 1.8686562 1.6694437 1.4521781 1.8263887 1.1425781 2.1367188 C 0.83297812 2.4470488 0.67600313 2.86523 0.59570312 3.34375 C 0.51570312 3.82227 0.5 4.3852231 0.5 5.0957031 L 0.5 5.5957031 C 0.5 4.8852231 0.51570312 4.32227 0.59570312 3.84375 C 0.67600313 3.36523 0.83297812 2.9470488 1.1425781 2.6367188 C 1.4521781 2.3263887 1.8686562 2.1694437 2.3476562 2.0898438 C 2.8260563 2.0103438 3.3903625 1.997 4.1015625 2 L 8 2 L 11.896484 2 C 12.608784 1.9965 13.173344 2.0102438 13.652344 2.0898438 C 14.131244 2.1694637 14.547822 2.3263988 14.857422 2.6367188 C 15.167022 2.9470388 15.324297 3.36524 15.404297 3.84375 C 15.485297 4.32226 15.5 4.8852231 15.5 5.5957031 L 15.5 5.0957031 C 15.5 4.3852231 15.485297 3.82226 15.404297 3.34375 C 15.324297 2.86524 15.167022 2.4470388 14.857422 2.1367188 C 14.547822 1.8263988 14.131244 1.6694637 13.652344 1.5898438 C 13.173344 1.5102438 12.608784 1.4965 11.896484 1.5 L 8 1.5 L 4.1015625 1.5 z "
       transform="translate(1011.3731,-62.525455)"
       id="path842" />
    <path
       id="path847"
       d="m 1023.2717,-48.025825 c 0.7112,0 1.2755,-0.01 1.7539,-0.09 0.479,-0.08 0.8955,-0.2366 1.2051,-0.5469 0.3096,-0.3103 0.4666,-0.7285 0.5469,-1.207 0.08,-0.4786 0.096,-1.0415 0.096,-1.752 v -0.5 c 0,0.7105 -0.016,1.2734 -0.096,1.752 -0.08,0.4785 -0.2373,0.8967 -0.5469,1.207 -0.3096,0.3103 -0.7261,0.4673 -1.2051,0.5469 -0.4784,0.08 -1.0427,0.093 -1.7539,0.09 h -3.8984 -3.8965 c -0.7123,0 -1.2769,-0.01 -1.7559,-0.09 -0.4789,-0.08 -0.8955,-0.2366 -1.2051,-0.5469 -0.3096,-0.3103 -0.4668,-0.7285 -0.5468,-1.207 -0.081,-0.4786 -0.096,-1.0415 -0.096,-1.752 v 0.5 c 0,0.7105 0.015,1.2734 0.096,1.752 0.08,0.4785 0.2372,0.8967 0.5468,1.207 0.3096,0.3103 0.7262,0.4672 1.2051,0.5469 0.479,0.08 1.0436,0.093 1.7559,0.09 h 3.8965 z"
       style="color:#000000;display:inline;overflow:visible;visibility:visible;opacity:0.2;fill:#000000;fill-opacity:1;fill-rule:nonzero;stroke:none;stroke-width:0.99997997;marker:none;enable-background:accumulate"
       inkscape:connector-curvature="0" />
  </g>
  <g
     id="layer2"
     style="display:inline"
     transform="translate(-792,-299.99998)" />
  <g
     id="layer4"
     style="display:inline"
     transform="translate(-792,-299.99998)" />
  <g
     id="g1812"
     style="display:inline"
     transform="translate(-792,-299.99998)" />
  <g
     id="g6217"
     style="display:inline"
     transform="translate(-792,-299.99998)" />
  <g
     id="layer3"
     style="display:inline"
     transform="translate(-792,-299.99998)" />
  <g
     id="g1833"
     style="display:inline"
     transform="translate(-792,-299.99998)" />
  <g
     id="layer1"
     style="display:inline"
     transform="translate(-792,-299.99998)" />
</svg>
