<svg height="16" width="16" xmlns="http://www.w3.org/2000/svg"><rect fill="#fff" height="8.81356" rx=".392857" width="3.932203" x="6.169491" y="3.728814"/><g stroke-width=".9592"><path d="m7.9995241.5-2.1987436 1.594922-2.6965543.2136229-.6748525 2.6582034-1.9293737 1.9235726 1.1660004 2.4774456-.2608034 2.7316665 2.4614506 1.136744 1.5286503 2.263823 2.6042262-.734631 2.6042259.734631 1.528651-2.263823 2.46145-1.136744-.260803-2.7316665 1.166952-2.4784122-1.929374-1.9235726-.675804-2.6582034-2.694651-.2126563zm-.9518371 3.8664776h1.9036741v2.8998583l-.4759185 1.9332388h-.951837l-.4759186-1.9332388zm.9518371 5.7997164a.95183714.9666195 0 1 1 0 1.933239.95183714.9666195 0 0 1 0-1.933239z" fill="#fdc92b"/><path d="m8 .5-2.1992188 1.5957031-2.6972656.2128907-.6738281 2.6582031-1.9296875 1.9238281.16015625.3398438 1.76953125-1.7636719.6738281-2.6582031 2.6972656-.2128907 2.1992188-1.5957031 2.199219 1.5957031 2.695312.2109375.675781 2.6582032 1.769532 1.7636718.160156-.3398437-1.929688-1.9238281-.675781-2.6582032-2.695312-.2109375zm-6.3730469 9.2832031-.2226562 2.3164059.044922.02149.2167968-2.2539065zm12.7460939 0-.03906.083984.214844 2.2539065.04492-.02149z" fill="#fff" opacity=".3"/><path d="m15.339844 6.7285156-1.00586 2.1386719.03906.4160156 1.126956-2.3945312zm-14.67968775.0019532-.16015625.1601562 1.1269531 2.3925781.0390625-.4160156zm.78906255 4.8906252-.0449219.478515 2.4628906 1.136719 1.5273437 2.263672 2.6054688-.734375 2.603516.734375 1.529296-2.263672 2.460938-1.136719-.044922-.478515-2.416016 1.115234-1.529296 2.263672-2.603516-.734375-2.6054688.734375-1.5273437-2.263672z" opacity=".2"/></g></svg>