<?xml version="1.0" encoding="UTF-8" standalone="no"?>
<svg
   xmlns:dc="http://purl.org/dc/elements/1.1/"
   xmlns:cc="http://creativecommons.org/ns#"
   xmlns:rdf="http://www.w3.org/1999/02/22-rdf-syntax-ns#"
   xmlns:svg="http://www.w3.org/2000/svg"
   xmlns="http://www.w3.org/2000/svg"
   xmlns:sodipodi="http://sodipodi.sourceforge.net/DTD/sodipodi-0.dtd"
   xmlns:inkscape="http://www.inkscape.org/namespaces/inkscape"
   height="24"
   viewBox="0 0 6.3499999 6.3500002"
   width="24"
   version="1.1"
   id="svg34"
   sodipodi:docname="avatar-default.svg"
   inkscape:version="0.92.4 (5da689c313, 2019-01-14)">
  <metadata
     id="metadata40">
    <rdf:RDF>
      <cc:Work
         rdf:about="">
        <dc:format>image/svg+xml</dc:format>
        <dc:type
           rdf:resource="http://purl.org/dc/dcmitype/StillImage" />
      </cc:Work>
    </rdf:RDF>
  </metadata>
  <defs
     id="defs38" />
  <sodipodi:namedview
     pagecolor="#ffffff"
     bordercolor="#666666"
     borderopacity="1"
     objecttolerance="10"
     gridtolerance="10"
     guidetolerance="10"
     inkscape:pageopacity="0"
     inkscape:pageshadow="2"
     inkscape:window-width="1920"
     inkscape:window-height="1016"
     id="namedview36"
     showgrid="false"
     inkscape:zoom="9.8333333"
     inkscape:cx="12"
     inkscape:cy="12"
     inkscape:window-x="0"
     inkscape:window-y="27"
     inkscape:window-maximized="1"
     inkscape:current-layer="g32" />
  <linearGradient
     id="a"
     gradientTransform="matrix(.02875905 0 0 .02875904 .399548 290.96413)"
     gradientUnits="userSpaceOnUse"
     x1="96"
     x2="96"
     y1="4.000006"
     y2="188">
    <stop
       offset="0"
       stop-color="#fff"
       id="stop2" />
    <stop
       offset=".125"
       stop-color="#fff"
       stop-opacity=".098039"
       id="stop4" />
    <stop
       offset=".92500001"
       stop-color="#fff"
       stop-opacity=".098039"
       id="stop6" />
    <stop
       offset="1"
       stop-color="#fff"
       stop-opacity=".498039"
       id="stop8" />
  </linearGradient>
  <linearGradient
     id="b"
     gradientTransform="matrix(.11666666 0 0 .11666671 .258821 261.9766)"
     gradientUnits="userSpaceOnUse"
     x1="13.735326"
     x2="38.099998"
     y1="249.69423"
     y2="292.76666">
    <stop
       offset="0"
       stop-color="#1a7fd4"
       id="stop11" />
    <stop
       offset="1"
       stop-color="#37a6e6"
       id="stop13" />
  </linearGradient>
  <g
     transform="translate(0 -290.64999)"
     id="g32">
    <circle
       cx="3.175"
       cy="293.82498"
       r="2.778125"
       id="circle18"
       style="fill:#1a7fd4;fill-opacity:1" />
    <path
       d="m 3.1749891,292.23752 c -0.1121966,0 -0.218903,0.0194 -0.3170714,0.0585 -0.097589,0.0373 -0.1841606,0.0919 -0.2561458,0.16278 l -2.645e-4,7.9e-4 -2.646e-4,2.7e-4 c -0.070133,0.0712 -0.1243992,0.15677 -0.1624727,0.25386 -0.038783,0.0972 -0.057198,0.20358 -0.057198,0.31742 0,0.11541 0.018336,0.22278 0.057198,0.32014 0.038164,0.0956 0.092511,0.18015 0.1624727,0.25114 l 2.646e-4,2.7e-4 2.645e-4,2.6e-4 c 0.071821,0.0707 0.1577552,0.12616 0.2549023,0.16511 l 7.937e-4,2.6e-4 7.938e-4,2.7e-4 c 0.097962,0.0373 0.2045943,0.0557 0.3166189,0.0557 0.1120061,0 0.2182045,-0.0185 0.3162432,-0.0558 v -2.6e-4 c 0.097068,-0.0389 0.1823032,-0.0946 0.2524205,-0.1655 0.072046,-0.071 0.1274842,-0.15592 0.1657879,-0.25192 0.039005,-0.0974 0.05761,-0.20473 0.05761,-0.32014 h 0.00159 c 0,-0.11371 -0.018468,-0.21996 -0.057198,-0.31703 -0.038156,-0.0975 -0.093594,-0.18342 -0.1657905,-0.25464 -0.070284,-0.0711 -0.1561465,-0.12629 -0.2536587,-0.16355 -0.098166,-0.0392 -0.2048325,-0.0585 -0.3171137,-0.0585 z"
       id="path24"
       inkscape:connector-curvature="0"
       style="fill:#f6fcfe" />
    <path
       d="m 4.4978872,295.14782 -2.6458148,-1.9e-4 c 0,0 0.013044,-0.30632 0.05352,-0.45265 0.040484,-0.14632 0.1122072,-0.27177 0.2208239,-0.36401 0.2172388,-0.18446 0.5094843,-0.24128 1.0540233,-0.24128 0.5445284,0 0.826987,0.057 1.0441146,0.24147 0.1085744,0.0922 0.1801442,0.21776 0.2204535,0.36411 0.04033,0.14635 0.052898,0.45275 0.052898,0.45275 z"
       id="path26"
       inkscape:connector-curvature="0"
       style="fill:#f6fcfe" />
  </g>
</svg>
