<?xml version="1.0" encoding="UTF-8" standalone="no"?>
<svg
   xmlns:dc="http://purl.org/dc/elements/1.1/"
   xmlns:cc="http://creativecommons.org/ns#"
   xmlns:rdf="http://www.w3.org/1999/02/22-rdf-syntax-ns#"
   xmlns:svg="http://www.w3.org/2000/svg"
   xmlns="http://www.w3.org/2000/svg"
   xmlns:sodipodi="http://sodipodi.sourceforge.net/DTD/sodipodi-0.dtd"
   xmlns:inkscape="http://www.inkscape.org/namespaces/inkscape"
   width="24"
   height="24"
   version="1.1"
   id="svg8"
   sodipodi:docname="dropboxstatus-idle.svg"
   inkscape:version="0.92.4 (5da689c313, 2019-01-14)">
  <metadata
     id="metadata12">
    <rdf:RDF>
      <cc:Work
         rdf:about="">
        <dc:format>image/svg+xml</dc:format>
        <dc:type
           rdf:resource="http://purl.org/dc/dcmitype/StillImage" />
        <dc:title></dc:title>
      </cc:Work>
    </rdf:RDF>
  </metadata>
  <sodipodi:namedview
     pagecolor="#ffffff"
     bordercolor="#666666"
     borderopacity="1"
     objecttolerance="10"
     gridtolerance="10"
     guidetolerance="10"
     inkscape:pageopacity="0"
     inkscape:pageshadow="2"
     inkscape:window-width="1920"
     inkscape:window-height="1016"
     id="namedview10"
     showgrid="false"
     inkscape:zoom="9.8333333"
     inkscape:cx="12"
     inkscape:cy="12"
     inkscape:window-x="0"
     inkscape:window-y="27"
     inkscape:window-maximized="1"
     inkscape:current-layer="svg8" />
  <defs
     id="defs4">
    <style
       type="text/css"
       id="style2">
   .ColorScheme-Text { color:#5c616c; } .ColorScheme-Highlight { color:#5294e2; } .ColorScheme-ButtonBackground { color:#d3dae3; }
  </style>
  </defs>
  <path
     class="ColorScheme-ButtonBackground"
     d="M 7.2707552,4.1144881 2.0103105,7.2707549 6.2186663,10.410609 2,13.574872 7.2707552,16.739555 11.479111,13.583288 6.2186663,10.427022 11.479111,7.2707549 l 5.260445,3.1726791 -5.260445,3.139854 1.869877,1.403487 a 5.2604447,5.2604447 0 0 1 4.442972,-2.451367 5.2604447,5.2604447 0 0 1 3.135751,1.045924 l 0.03083,-0.01852 L 16.740713,10.438111 20.949069,7.2818439 15.688624,4.1255771 11.480268,7.2654314 7.2719125,4.1255771 Z M 17.791644,13.583288 A 4.2083558,4.2083558 0 0 0 13.583288,17.791645 4.2083558,4.2083558 0 0 0 17.791644,22 4.2083558,4.2083558 0 0 0 22,17.791645 4.2083558,4.2083558 0 0 0 17.791644,13.583288 Z m 0,0.517828 a 3.6823113,3.6823113 0 0 1 0.571253,0.04935 c -0.208651,-0.03283 -0.419353,-0.05103 -0.630843,-0.04724 a 3.6823113,3.6823113 0 0 1 0.05997,-0.01052 z m -0.07192,0.0021 c -0.168997,0.0032 -0.337436,0.01999 -0.505497,0.04724 a 3.6823113,3.6823113 0 0 1 0.505498,-0.04724 z m -0.53221,0.05135 c -0.173362,0.02945 -0.346126,0.07038 -0.515765,0.125345 a 3.6823113,3.6823113 0 0 1 0.515765,-0.125345 z m 1.337731,0.02673 a 3.6823113,3.6823113 0 0 1 0.423298,0.113016 c -0.13834,-0.04608 -0.280508,-0.08385 -0.423298,-0.113016 z m -1.861671,0.100685 c -0.161243,0.05271 -0.319151,0.119171 -0.474671,0.195215 a 3.6823113,3.6823113 0 0 1 0.474671,-0.195215 z m 2.445265,0.06986 a 3.6823113,3.6823113 0 0 1 0.388368,0.178771 c -0.126608,-0.06691 -0.255552,-0.12745 -0.388368,-0.178771 z m -2.965207,0.147945 c -0.158381,0.08017 -0.312565,0.170481 -0.46234,0.275353 -0.208609,0.146071 -0.39868,0.311397 -0.56714,0.489063 -0.161285,0.170091 -0.301939,0.353628 -0.42536,0.546592 a 3.6823113,3.6823113 0 0 1 0.42536,-0.546592 3.6823113,3.6823113 0 0 1 1.02949,-0.764416 z m 3.51587,0.121243 a 3.6823113,3.6823113 0 0 1 0.443856,0.304117 C 19.962923,14.810532 19.812853,14.712425 19.6595,14.621029 Z m -8.181043,0 -4.2083557,3.156267 -1.0520899,-0.630833 v 0.630844 l 5.2604446,3.156266 1.553514,-0.930856 a 5.2604447,5.2604447 0 0 1 -0.501846,-2.230429 5.2604447,5.2604447 0 0 1 0.416627,-2.051573 l -1.468716,-1.104694 z m 8.626287,0.289745 a 3.6823113,3.6823113 0 0 1 0.456175,0.443855 3.6823113,3.6823113 0 0 1 0.0021,0.0021 3.6823113,3.6823113 0 0 1 0.750024,1.36235 3.6823113,3.6823113 0 0 1 0.110964,0.460289 3.6823113,3.6823113 0 0 1 0.04521,0.484949 c -0.0053,-0.160969 -0.01999,-0.322991 -0.04629,-0.483961 -0.02525,-0.157812 -0.06313,-0.311418 -0.110469,-0.459762 -0.04735,-0.149397 -0.103105,-0.293533 -0.16623,-0.436617 l -3.347327,3.824133 -0.361655,0.427411 -0.413029,-0.394534 -1.580237,-1.580237 c -0.19834,-0.198319 -0.19833,-0.559901 0,-0.758241 0.198339,-0.198318 0.559911,-0.198339 0.75824,0 l 1.185704,1.185705 3.172679,-3.632969 c -0.141536,-0.16318 -0.293415,-0.310913 -0.456184,-0.443877 z m -5.451504,0.941125 c -0.114036,0.185589 -0.209019,0.378942 -0.287683,0.57947 a 3.6823113,3.6823113 0 0 1 0.287683,-0.57947 z m -0.30618,0.628792 c -0.07575,0.200949 -0.133614,0.40821 -0.172541,0.618628 a 3.6823113,3.6823113 0 0 1 0.172605,-0.618512 z m -0.184935,0.688382 c -0.03562,0.213111 -0.05366,0.430473 -0.05137,0.647276 a 3.6823113,3.6823113 0 0 1 -0.0021,-0.04724 3.6823113,3.6823113 0 0 1 0.05343,-0.600017 z m 7.309177,0.534261 a 3.6823113,3.6823113 0 0 1 0.0021,0.06574 3.6823113,3.6823113 0 0 1 -0.0226,0.4007 c 0.01664,-0.154752 0.02361,-0.310198 0.02055,-0.466455 z m -7.356416,0.184936 c 0.0059,0.196194 0.028,0.390999 0.06575,0.585635 a 3.6823113,3.6823113 0 0 1 -0.06575,-0.585635 z m 0.09658,0.725363 c 0.04402,0.187177 0.102189,0.373544 0.176719,0.554819 a 3.6823113,3.6823113 0 0 1 -0.176718,-0.55483 z m 0.23631,0.688382 c 0.08485,0.18502 0.183872,0.366432 0.302064,0.540426 a 3.6823113,3.6823113 0 0 1 -0.302063,-0.540437 z m 6.65362,0.06775 c -0.0035,0.0074 -0.0066,0.01515 -0.01031,0.02262 a 3.6823113,3.6823113 0 0 1 -0.07808,0.158224 c -0.0038,0.0074 -0.0085,0.01357 -0.01233,0.02052 0.03673,-0.06564 0.0682,-0.133836 0.100685,-0.20138 z m -0.203432,0.36782 c -0.0074,0.01136 -0.01319,0.02356 -0.02055,0.03493 a 3.6823113,3.6823113 0 0 1 -0.10685,0.15412 c 0.04479,-0.06196 0.08683,-0.124851 0.127396,-0.18905 z m -6.072131,0.207546 c 0.115393,0.157824 0.241812,0.301686 0.376037,0.435628 a 3.6823113,3.6823113 0 0 1 -0.376037,-0.435628 z m 5.802902,0.168491 c -0.0043,0.0053 -0.0079,0.01116 -0.01233,0.01641 a 3.6823113,3.6823113 0 0 1 -0.176719,0.1911 c 0.06522,-0.06765 0.129849,-0.135929 0.18905,-0.207545 z m -5.299477,0.39043 c 0.131826,0.11936 0.27207,0.2252 0.417131,0.322613 A 3.6823113,3.6823113 0 0 1 15.32766,20.504726 Z m 4.504202,0.326717 a 3.6823113,3.6823113 0 0 1 -0.487001,0.273301 c -0.0075,0.0032 -0.01506,0.0063 -0.0226,0.01052 0.174374,-0.08048 0.34498,-0.173416 0.509611,-0.28358 z m -3.89599,0.117128 c 0.131964,0.07723 0.269503,0.143748 0.408916,0.203433 a 3.6823113,3.6823113 0 0 1 -0.408915,-0.20344 z m 3.242538,0.230144 c -0.0048,0.0021 -0.0096,0.0042 -0.01438,0.0063 a 3.6823113,3.6823113 0 0 1 -0.480835,0.154141 c 0.166893,-0.04219 0.333176,-0.09374 0.495218,-0.160287 z m -2.550053,0.08017 c 0.141759,0.04724 0.283338,0.09164 0.429463,0.121242 a 3.6823113,3.6823113 0 0 1 -0.429463,-0.121242 z m 1.800019,0.133573 a 3.6823113,3.6823113 0 0 1 -0.454124,0.05345 c -0.0048,2.42e-4 -0.0096,-2.2e-4 -0.01438,0 0.15696,-0.0074 0.312543,-0.02577 0.468505,-0.05345 z m -1.150775,0.02262 c 0.144652,0.02031 0.291313,0.02988 0.43769,0.03283 -0.0062,-1.37e-4 -0.01231,1.58e-4 -0.0185,0 a 3.6823113,3.6823113 0 0 1 -0.40275,-0.03083 c -0.0055,-7.47e-4 -0.01095,-0.0011 -0.01645,-0.0021 z"
     style="color:#d3dae3;fill:#ffffff;stroke-width:0.90909094"
     id="path6"
     inkscape:connector-curvature="0" />
</svg>
