<?xml version="1.0" encoding="UTF-8" standalone="no"?>
<svg
   xmlns:dc="http://purl.org/dc/elements/1.1/"
   xmlns:cc="http://creativecommons.org/ns#"
   xmlns:rdf="http://www.w3.org/1999/02/22-rdf-syntax-ns#"
   xmlns:svg="http://www.w3.org/2000/svg"
   xmlns="http://www.w3.org/2000/svg"
   xmlns:sodipodi="http://sodipodi.sourceforge.net/DTD/sodipodi-0.dtd"
   xmlns:inkscape="http://www.inkscape.org/namespaces/inkscape"
   width="24"
   height="24"
   version="1.1"
   id="svg8"
   sodipodi:docname="dropboxstatus-x.svg"
   inkscape:version="0.92.4 (5da689c313, 2019-01-14)">
  <metadata
     id="metadata12">
    <rdf:RDF>
      <cc:Work
         rdf:about="">
        <dc:format>image/svg+xml</dc:format>
        <dc:type
           rdf:resource="http://purl.org/dc/dcmitype/StillImage" />
      </cc:Work>
    </rdf:RDF>
  </metadata>
  <sodipodi:namedview
     pagecolor="#ffffff"
     bordercolor="#666666"
     borderopacity="1"
     objecttolerance="10"
     gridtolerance="10"
     guidetolerance="10"
     inkscape:pageopacity="0"
     inkscape:pageshadow="2"
     inkscape:window-width="854"
     inkscape:window-height="480"
     id="namedview10"
     showgrid="false"
     inkscape:zoom="9.8333333"
     inkscape:cx="0.45762712"
     inkscape:cy="12"
     inkscape:window-x="0"
     inkscape:window-y="27"
     inkscape:window-maximized="0"
     inkscape:current-layer="svg8" />
  <defs
     id="defs4">
    <style
       type="text/css"
       id="style2">
   .ColorScheme-Text { color:#5c616c; } .ColorScheme-Highlight { color:#5294e2; } .ColorScheme-ButtonBackground { color:#d3dae3; }
  </style>
  </defs>
  <path
     class="ColorScheme-ButtonBackground"
     d="M 7.2707552,4.114488 2.0103105,7.2707548 6.2186663,10.410609 2,13.574872 7.2707552,16.739555 11.479111,13.583288 6.2186663,10.427022 11.479111,7.2707548 l 5.260445,3.1726792 -5.260445,3.139854 1.869877,1.403487 c 0.961873,-1.52616 2.63864,-2.452945 4.442657,-2.455575 1.130469,0.0032 2.230007,0.369409 3.135751,1.045923 l 0.03083,-0.01852 -4.218881,-3.1247 L 20.947701,7.2776355 15.687257,4.1213687 11.4789,7.2612229 7.2705447,4.1213687 Z m 10.5208888,9.4688 c -2.32417,0 -4.208356,1.884187 -4.208356,4.208357 C 13.583288,20.115814 15.467474,22 17.791644,22 20.115814,22 22,20.115814 22,17.791645 c 0,-2.32417 -1.884186,-4.208357 -4.208356,-4.208357 z m -6.312533,1.052089 -4.2083562,3.156268 -1.0520889,-0.630844 v 0.630844 l 5.2604451,3.156266 1.553514,-0.930856 c -0.328252,-0.694379 -0.499742,-1.462404 -0.501846,-2.23043 -2.55e-4,-0.706003 0.141611,-1.404853 0.417132,-2.054834 l -1.468717,-1.104694 z m 4.580269,0.680155 1.732264,1.732264 1.732265,-1.732264 0.743868,0.743869 -1.732263,1.732264 1.732263,1.732265 -0.743868,0.743869 -1.728583,-1.746468 -1.732264,1.732265 -0.743858,-0.74387 1.732264,-1.732264 -1.732264,-1.732264 0.743858,-0.743869 z"
     style="color:#d3dae3;fill:#ffffff;stroke-width:0.90909094"
     id="path6"
     inkscape:connector-curvature="0" />
</svg>
