<svg xmlns="http://www.w3.org/2000/svg" width="24" height="24" version="1">
 <defs>
  <style id="style2" type="text/css">
   .ColorScheme-Text { color:#5c616c; } .ColorScheme-Highlight { color:#5294e2; } .ColorScheme-ButtonBackground { color:#d3dae3; }
  </style>
 </defs>
 <g style="fill:#ffffff">
  <path d="M 11.9375,3.125 C 7.0073774,3.125 3,7.1323774 3,12.0625 3,16.992623 7.0073774,21 11.9375,21 c 4.930123,0 8.9375,-4.007377 8.9375,-8.9375 0,-4.9301226 -4.007377,-8.9375 -8.9375,-8.9375 z m 0,1 c 4.389683,0 7.9375,3.5478175 7.9375,7.9375 C 19.875,16.452183 16.327183,20 11.9375,20 7.5478175,20 4,16.452183 4,12.0625 4,7.6728175 7.5478175,4.125 11.9375,4.125 Z" style="fill:#ffffff"/>
  <path d="m 11.9375,5.4335938 c -3.6548616,0 -6.6289063,2.9740449 -6.6289062,6.6289062 0,3.654861 2.9740446,6.628906 6.6289062,6.628906 3.654862,0 6.628906,-2.974045 6.628906,-6.628906 0,-3.6548613 -2.974044,-6.6289063 -6.628906,-6.6289062 z m 0,1 c 3.114421,0 5.628906,2.514485 5.628906,5.6289062 0,3.114421 -2.514485,5.628906 -5.628906,5.628906 -3.1144215,0 -5.6289062,-2.514485 -5.6289062,-5.628906 -10e-8,-3.1144212 2.5144847,-5.6289062 5.6289062,-5.6289062 z" style="fill:#ffffff"/>
  <g transform="matrix(0.85616438,0,0,0.85616438,16.247288,-3.6487697)" style="fill:#ff3f3f">
   <path style="fill:#ff3f3f" d="m -8.937833,22.438763 h 1.808 l 1.664,-2.352 c 0.16,-0.208 0.32,-0.448 0.432,-0.656 0.112,0.208 0.272,0.448 0.416,0.656 l 1.68,2.352 h 1.808 l -2.992,-4.224 2.8,-3.952 h -1.824 l -1.472,2.064 c -0.144,0.208 -0.304,0.448 -0.416,0.656 -0.112,-0.208 -0.272,-0.448 -0.432,-0.656 l -1.456,-2.064 h -1.824 l 2.8,3.952 z"/>
  </g>
 </g>
</svg>
