<svg height="256" width="256" xmlns="http://www.w3.org/2000/svg" xmlns:xlink="http://www.w3.org/1999/xlink">
  <linearGradient id="linearGradient900" gradientUnits="userSpaceOnUse" x1="129.883515" x2="129.883515" y1="-184.82523" y2="23.17477">
    <stop offset="0" stop-color="#111"/>
    <stop offset="1" stop-color="#4d4d4d"/>
  </linearGradient>
  <linearGradient id="linearGradient1694" gradientTransform="matrix(0 1 -1 0 285.880517 -232.822843)" gradientUnits="userSpaceOnUse" x1="39.997" x2="263.997" y1="156" y2="156">
    <stop offset="0" stop-color="#eab305"/>
    <stop offset="1" stop-color="#ffda64"/>
  </linearGradient>
  <linearGradient id="linearGradient4358" gradientUnits="userSpaceOnUse" x1="88" x2="488" y1="88" y2="488">
    <stop offset="0" stop-opacity=".588235"/>
    <stop offset="1" stop-opacity=".205556"/>
  </linearGradient>
  <filter id="filter4380" color-interpolation-filters="sRGB" height="1.088" width="1.106" x="-.05" y="-.04">
    <feGaussianBlur stdDeviation="8.48"/>
  </filter>
  <filter id="filter4346" color-interpolation-filters="sRGB" height="1.022" width="1.026" x="-.01" y="-.01">
    <feGaussianBlur stdDeviation="2.12"/>
  </filter>
  <g transform="translate(0 208)">
    <path d="m141.84323 74c-70.59344 0-78.18921 7.250835-77.84323 77.98706v146.01294 146.01294c-.34598 70.73623 7.24979 77.98706 77.84323 77.98706h292.31354c70.59344 0 79.78033-7.27652 77.84323-77.98706v-146.01294-146.01294c0-70.737067-7.24979-77.98706-77.84323-77.98706z" filter="url(#filter4346)" opacity=".1" transform="matrix(.5 0 0 .5 -14.116488 -228.82553)"/>
    <path d="m141.84323 74c-70.59344 0-78.18921 7.250835-77.84323 77.98706v146.01294 146.01294c-.34598 70.73623 7.24979 77.98706 77.84323 77.98706h292.31354c70.59344 0 79.78033-7.27652 77.84323-77.98706v-146.01294-146.01294c0-70.737067-7.24979-77.98706-77.84323-77.98706z" fill="url(#linearGradient4358)" filter="url(#filter4380)" opacity=".3" transform="matrix(.5 0 0 .5 -14.116488 -228.82523)"/>
    <path d="m55.695112-194.82553c-36.09881 0-39.983002 3.69016-39.80608 39.68984v74.310155 74.3101591c-.176922 35.9996899 3.70727 39.6898399 39.80608 39.6898399h148.387318c36.09881 0 40.77464-3.70276 39.80608-39.6898399v-74.3101591-74.310155c0-36.00011-3.70727-39.68984-39.80608-39.68984z" opacity=".1"/>
    <path d="m202.95648-192.82554c35.29673 0 39.09461 3.62542 38.92162 38.99353v73.006465 73.0064791c.17299 35.3681199-3.62489 38.9935299-38.92162 38.9935299h-146.15675c-35.29671 0-38.921609-3.625-38.921609-38.9935299v-73.0064791-73.006465c0-35.36853 3.624899-38.99353 38.921609-38.99353z" fill="url(#linearGradient1694)"/>
    <path d="m17.877654-80.825235v8 65.0058591c0 35.3685299 3.625164 38.9941399 38.921874 38.9941399h146.156252c35.29673 0 39.09486-3.62602 38.92187-38.9941399v-65.0058591-8z" fill="#fff" opacity=".05"/>
    <path d="m121.88353-6.8252759 39.99998-87.9999591-23.99998-.00003v-55.999985l-40.000018 88.000015 24.000018-.00005z" fill="#fff" opacity=".5"/>
    <path d="m121.88353-8.8252759 39.99998-87.9999591-23.99998-.00003v-55.999985l-40.000018 88.000015 24.000018-.00005z" fill="url(#linearGradient900)"/>
    <path d="m56.805392-192.82553c-35.296728 0-39.094869 3.62603-38.921879 38.99414v2c-.17299-35.36811 3.625151-38.99414 38.921879-38.99414h146.156238c35.29673 0 38.92188 3.62561 38.92188 38.99414v-2c0-35.36853-3.62515-38.99414-38.92188-38.99414z" fill="#fff" opacity=".3"/>
    <path d="m56.810792 31.174464c-35.296731 0-39.094874-3.62603-38.921884-38.9941399v-2c-.17299 35.3681099 3.625153 38.9941399 38.921884 38.9941399h146.156238c35.29673 0 38.92188-3.62561 38.92188-38.9941399v2c0 35.3685299-3.62515 38.9941399-38.92188 38.9941399z" opacity=".2"/>
  </g>
</svg>
