<svg xmlns="http://www.w3.org/2000/svg" xmlns:xlink="http://www.w3.org/1999/xlink" width="256" height="256" version="1.1" viewBox="0 0 256 256">
 <defs>
  <clipPath id="clipPath1082-3-361" clipPathUnits="userSpaceOnUse">
   <path style="fill:#8c59d9" d="M 361.9375,-212 C 507.2348,-212 528,-191.28677 528,-46.125 V 70.125 C 528,215.28618 507.2348,236 361.9375,236 H 214.0625 C 68.7652,236 48,215.28618 48,70.125 V -46.125 C 48,-191.28677 68.7652,-212 214.0625,-212 Z"/>
  </clipPath>
  <clipPath id="clipPath1082-3" clipPathUnits="userSpaceOnUse">
   <path style="fill:#8c59d9" d="M 361.9375,-212 C 507.2348,-212 528,-191.28677 528,-46.125 V 70.125 C 528,215.28618 507.2348,236 361.9375,236 H 214.0625 C 68.7652,236 48,215.28618 48,70.125 V -46.125 C 48,-191.28677 68.7652,-212 214.0625,-212 Z"/>
  </clipPath>
  <clipPath id="clipPath951" clipPathUnits="userSpaceOnUse">
   <path style="fill:#8c59d9" d="M 188.96875,44 C 261.6174,44 272,54.356615 272,126.9375 v 58.125 C 272,257.64309 261.6174,268 188.96875,268 h -73.9375 C 42.3826,268 32,257.64309 32,185.0625 v -58.125 C 32,54.356615 42.3826,44 115.03125,44 Z"/>
  </clipPath>
  <clipPath id="clipPath951-3" clipPathUnits="userSpaceOnUse">
   <path style="fill:#8c59d9" d="M 188.96875,44 C 261.6174,44 272,54.356615 272,126.9375 v 58.125 C 272,257.64309 261.6174,268 188.96875,268 h -73.9375 C 42.3826,268 32,257.64309 32,185.0625 v -58.125 C 32,54.356615 42.3826,44 115.03125,44 Z"/>
  </clipPath>
  <filter id="filter11191" width="1.024" height="1.024" x="-.01" y="-.01" style="color-interpolation-filters:sRGB">
   <feGaussianBlur id="feGaussianBlur11193" stdDeviation="1.12"/>
  </filter>
  <filter id="filter11210" width="1.096" height="1.096" x="-.05" y="-.05" style="color-interpolation-filters:sRGB">
   <feGaussianBlur id="feGaussianBlur11212" stdDeviation="4.48"/>
  </filter>
 </defs>
 <clipPath id="b">
  <use id="use5" width="100%" height="100%" x="0" y="0" overflow="visible" xlink:href="#a"/>
 </clipPath>
 <circle style="opacity:0.1;filter:url(#filter11210)" cx="128.752" cy="127.248" r="112"/>
 <circle style="opacity:0.1;filter:url(#filter11191)" cx="128.752" cy="125.248" r="112"/>
 <circle style="opacity:0.1" cx="128.752" cy="123.248" r="114"/>
 <path style="fill:#46a926" d="m 207.82538,44.07356 c -0.79526,0.79526 32.8761,79.124 32.8761,79.124 l -32.8761,79.124 c 0,0 -79.12416,-41.82458 -79.12416,-79.124 0,-37.299419 79.12416,-79.124 79.12416,-79.124 z"/>
 <path style="fill:#f22c42" d="m 49.577106,202.32156 c 0.795207,-0.79526 -32.876094,-79.124 -32.876094,-79.124 l 32.876094,-79.124 c 0,0 79.124114,41.824582 79.124114,79.124 0,37.29942 -79.124114,79.124 -79.124114,79.124 z"/>
 <path style="fill:#ffda64" d="m 207.82533,44.07356 c -0.79521,0.79526 -79.12411,-32.876025 -79.12411,-32.876025 l -79.124169,32.876025 79.124169,79.124 z"/>
 <path style="fill:#2f5fdd" d="m 49.577106,202.32156 79.124114,32.7742 c 0,0 78.3289,-33.56946 79.12416,-32.7742 l -79.12416,-79.124 z"/>
 <path style="fill:#a6d74f" d="m 128.75209,11.24801 a 112.00024,112 0 0 0 -0.0508,0.002 c -0.0125,28.619584 10.94519,57.244 32.87507,79.17383 L 207.89873,44.101526 A 112.00024,112 0 0 0 128.75209,11.24801 Z"/>
 <path style="fill:#76c22b" d="M 207.89873,44.101526 161.57638,90.42379 c 21.92984,21.92983 50.55434,32.88748 79.17399,32.875 a 112.00024,112 0 0 0 0.002,-0.0508 112.00024,112 0 0 0 -32.85359,-79.146484 z"/>
 <path style="fill:#1463a5" d="m 161.47482,156.07418 c -21.92836,21.92831 -32.88605,50.54838 -32.87507,79.16602 a 112.00024,112 0 0 0 0.15234,0.008 112.00024,112 0 0 0 79.09586,-32.80078 z"/>
 <path style="fill:#2b898f" d="m 240.59998,123.19723 c -28.60338,0 -57.20779,10.95959 -79.12516,32.87695 l 46.37313,46.37305 a 112.00024,112 0 0 0 32.90437,-79.19922 112.00024,112 0 0 0 -0.002,-0.0488 c -0.0501,-7e-5 -0.10026,-0.002 -0.15039,-0.002 z"/>
 <path style="fill:#9b33ae" d="m 16.759664,123.09567 a 112.00024,112 0 0 0 -0.0078,0.15234 112.00024,112 0 0 0 32.802803,79.09766 L 95.927798,155.97262 C 73.999448,134.04431 45.377357,123.08469 16.759664,123.09567 Z"/>
 <path style="fill:#7839b7" d="m 95.927798,155.97262 -46.373143,46.37305 a 112.00024,112 0 0 0 79.197435,32.90234 112.00024,112 0 0 0 0.0488,-0.002 c 0.0385,-28.65343 -10.91733,-57.3177 -32.873122,-79.27344 z"/>
 <path style="fill:#fdc92b" d="M 128.75209,11.24801 A 112.00024,112 0 0 0 49.654265,44.048791 L 96.029358,90.42379 C 117.95771,68.49546 128.91541,39.873455 128.90443,11.255822 a 112.00024,112 0 0 0 -0.15234,-0.0078 z"/>
 <path style="fill:#f34f17" d="m 49.654265,44.048791 a 112.00024,112 0 0 0 -32.902413,79.199219 112.00024,112 0 0 0 0.002,0.0488 c 28.653489,0.0385 57.319766,-10.91728 79.275556,-32.87305 z"/>
 <path style="opacity:0.05" d="M 128.75209,11.248011 A 112.00024,112 0 0 0 16.75185,123.24801 H 240.75232 A 112.00024,112 0 0 0 128.75209,11.248011 Z"/>
 <path style="opacity:0.05" d="M 128.75209,11.248011 A 112.00024,112 0 0 0 16.75185,123.24801 a 112.00024,112 0 0 0 112.00024,112 z"/>
 <path style="opacity:0.1;fill:#ffffff" d="m 128.90477,11.285014 c 61.85605,0 112.00023,50.144077 112.00023,111.999996 0,61.85592 -50.14418,112 -112.00023,112 -61.856006,0 -112.000226,-50.14408 -112.000226,-112 0,-61.855919 50.14422,-111.999996 112.000226,-111.999996 z"/>
 <path style="opacity:0.1;fill:#ffffff" d="m 128.75207,43.248471 c 44.18289,0 80.00016,35.8172 80.00016,79.999999 0,44.1828 -35.81727,80 -80.00016,80 -44.182864,0 -80.000156,-35.8172 -80.000156,-80 0,-44.182799 35.817292,-79.999999 80.000156,-79.999999 z"/>
 <ellipse style="opacity:0.1;fill:#ffffff" id="ellipse955" cx="128.752" cy="123.248" rx="46.5" ry="46.5"/>
 <path style="opacity:0.3;fill:#ffffff" d="M 128.752,11.248005 A 112,112 0 0 0 16.752006,123.248 112,112 0 0 0 16.793026,124.41792 112,112 0 0 1 128.752,13.248005 112,112 0 0 1 240.71098,124.07808 a 112,112 0 0 0 0.041,-0.83008 112,112 0 0 0 -112,-111.999995 z"/>
 <path style="opacity:0.2" d="m 128.752,235.248 a 112,112 0 0 1 -111.999994,-112 112,112 0 0 1 0.04102,-1.16992 A 112,112 0 0 0 128.752,233.248 112,112 0 0 0 240.71098,122.41792 a 112,112 0 0 1 0.041,0.83008 112,112 0 0 1 -112,112 z"/>
</svg>
