<?xml version="1.0" encoding="UTF-8" standalone="no"?>
<svg
   xmlns:dc="http://purl.org/dc/elements/1.1/"
   xmlns:cc="http://creativecommons.org/ns#"
   xmlns:rdf="http://www.w3.org/1999/02/22-rdf-syntax-ns#"
   xmlns:svg="http://www.w3.org/2000/svg"
   xmlns="http://www.w3.org/2000/svg"
   xmlns:sodipodi="http://sodipodi.sourceforge.net/DTD/sodipodi-0.dtd"
   xmlns:inkscape="http://www.inkscape.org/namespaces/inkscape"
   height="16"
   width="16"
   version="1.1"
   id="svg4"
   sodipodi:docname="dropboxstatus-idle.svg"
   inkscape:version="0.92.5 (2060ec1f9f, 2020-04-08)">
  <metadata
     id="metadata10">
    <rdf:RDF>
      <cc:Work
         rdf:about="">
        <dc:format>image/svg+xml</dc:format>
        <dc:type
           rdf:resource="http://purl.org/dc/dcmitype/StillImage" />
        <dc:title></dc:title>
      </cc:Work>
    </rdf:RDF>
  </metadata>
  <defs
     id="defs8" />
  <sodipodi:namedview
     pagecolor="#ffffff"
     bordercolor="#666666"
     borderopacity="1"
     objecttolerance="10"
     gridtolerance="10"
     guidetolerance="10"
     inkscape:pageopacity="0"
     inkscape:pageshadow="2"
     inkscape:window-width="1920"
     inkscape:window-height="1016"
     id="namedview6"
     showgrid="false"
     inkscape:zoom="29.283478"
     inkscape:cx="9.4946252"
     inkscape:cy="16.30841"
     inkscape:window-x="0"
     inkscape:window-y="27"
     inkscape:window-maximized="1"
     inkscape:current-layer="svg4" />
  <path
     d="M 4.2166043,1.1915905 0.00824845,3.7166039 3.3749331,6.2284875 0,8.7598973 4.2166043,11.291645 7.5832887,8.7666313 3.3749331,6.241617 7.5832887,3.7166039 11.791645,6.254747 7.5832887,8.7666313 9.0791907,9.8894207 a 4.2083557,4.2083557 0 0 1 3.5543773,-1.9610934 4.2083557,4.2083557 0 0 1 2.508601,0.836738 L 15.166835,8.750252 11.792567,6.250489 15.159255,3.7254751 10.950899,1.2004617 7.584214,3.7123451 4.2175294,1.2004617 Z M 12.633315,8.7666313 A 3.3666847,3.3666847 0 0 0 9.2666307,12.133317 3.3666847,3.3666847 0 0 0 12.633315,15.5 3.3666847,3.3666847 0 0 0 16,12.133317 3.3666847,3.3666847 0 0 0 12.633315,8.7666313 Z m 0,0.414262 a 2.9458491,2.9458491 0 0 1 0.457002,0.039487 c -0.16692,-0.026267 -0.335482,-0.040827 -0.504674,-0.037793 a 2.9458491,2.9458491 0 0 1 0.04797,-0.00841 z m -0.05753,0.00167 c -0.135198,0.00247 -0.269949,0.015993 -0.404398,0.037787 a 2.9458491,2.9458491 0 0 1 0.404394,-0.03779 z m -0.425768,0.041087 C 12.011323,9.2472 11.873112,9.2799533 11.737401,9.323922 a 2.9458491,2.9458491 0 0 1 0.412612,-0.1002753 z m 1.070185,0.021387 a 2.9458491,2.9458491 0 0 1 0.338639,0.090413 C 13.448165,9.2985793 13.33443,9.268366 13.220198,9.2450333 Z m -1.489337,0.080548 c -0.128995,0.042167 -0.25532,0.095337 -0.379736,0.156172 a 2.9458491,2.9458491 0 0 1 0.379736,-0.156172 z m 1.956212,0.055887 a 2.9458491,2.9458491 0 0 1 0.310694,0.143016 C 13.896481,9.4709573 13.793326,9.422524 13.687073,9.381468 Z m -2.372166,0.118356 c -0.126705,0.064133 -0.250052,0.136384 -0.369872,0.220282 -0.166886,0.1168567 -0.318944,0.249118 -0.453712,0.3912497 -0.129028,0.136074 -0.24155,0.282903 -0.340288,0.437275 a 2.9458491,2.9458491 0 0 1 0.340288,-0.437275 2.9458491,2.9458491 0 0 1 0.823592,-0.6115317 z m 2.812696,0.096994 a 2.9458491,2.9458491 0 0 1 0.355085,0.243294 C 14.370339,9.7484253 14.250283,9.6699407 14.1276,9.5968233 Z m -6.5448343,0 L 4.2160888,12.121836 3.3744167,11.61717 v 0.50467 l 4.2083513,2.525014 1.2428107,-0.744686 a 4.2083557,4.2083557 0 0 1 -0.401476,-1.784342 4.2083557,4.2083557 0 0 1 0.333302,-1.641259 L 7.5824313,9.5928147 Z M 14.483803,9.828619 a 2.9458491,2.9458491 0 0 1 0.364939,0.355083 2.9458491,2.9458491 0 0 1 0.0017,0.0017 2.9458491,2.9458491 0 0 1 0.600018,1.089881 2.9458491,2.9458491 0 0 1 0.08877,0.36823 2.9458491,2.9458491 0 0 1 0.03617,0.38796 c -0.0043,-0.128806 -0.01599,-0.258424 -0.03703,-0.3872 -0.0202,-0.126248 -0.05051,-0.249134 -0.08837,-0.367808 -0.03787,-0.119518 -0.08248,-0.234826 -0.132984,-0.349294 l -2.677857,3.059312 -0.289324,0.34193 -0.330424,-0.315628 -1.264189,-1.26419 c -0.158672,-0.158654 -0.158664,-0.44792 0,-0.606592 0.158671,-0.158654 0.447929,-0.158672 0.606592,0 l 0.948563,0.948564 2.538143,-2.906376 C 14.735233,10.053631 14.61373,9.9354453 14.483514,9.8290747 Z m -4.361204,0.752899 c -0.09123,0.148472 -0.1672143,0.303154 -0.2301463,0.463576 a 2.9458491,2.9458491 0 0 1 0.2301423,-0.46358 z m -0.2449483,0.50303 C 9.8170507,11.245307 9.77076,11.411116 9.739618,11.57945 A 2.9458491,2.9458491 0 0 1 9.8777027,11.08464 Z M 9.7297033,11.635254 C 9.70121,11.805743 9.68677,11.979632 9.68861,12.153074 A 2.9458491,2.9458491 0 0 1 9.68694,12.115284 2.9458491,2.9458491 0 0 1 9.729673,11.63527 Z m 5.8473417,0.427409 a 2.9458491,2.9458491 0 0 1 0.0017,0.05259 2.9458491,2.9458491 0 0 1 -0.01808,0.32056 c 0.01331,-0.123802 0.01889,-0.248159 0.01645,-0.373164 z m -5.885133,0.147948 c 0.00473,0.156956 0.0224,0.312799 0.0526,0.468508 a 2.9458491,2.9458491 0 0 1 -0.0526,-0.468508 z m 0.077264,0.580291 c 0.035213,0.149741 0.081751,0.298834 0.1413753,0.443854 A 2.9458491,2.9458491 0 0 1 9.7691767,12.790892 Z m 0.189048,0.550705 c 0.06788,0.148016 0.147098,0.293145 0.241651,0.432341 A 2.9458491,2.9458491 0 0 1 9.9582247,13.341599 Z m 5.322896,0.0542 c -0.0029,0.0059 -0.0053,0.01213 -0.0082,0.01809 a 2.9458491,2.9458491 0 0 1 -0.06247,0.126578 c -0.0031,0.0059 -0.0068,0.01085 -0.0099,0.01641 0.02939,-0.05251 0.05456,-0.107068 0.08055,-0.161104 z m -0.162745,0.294256 c -0.0059,0.0091 -0.01055,0.01885 -0.01645,0.02795 a 2.9458491,2.9458491 0 0 1 -0.08548,0.123296 c 0.03583,-0.04957 0.06946,-0.09988 0.101916,-0.15124 z M 10.26067,13.8561 c 0.09231,0.126259 0.193449,0.241348 0.300829,0.348502 A 2.9458491,2.9458491 0 0 1 10.26067,13.8561 Z m 4.642321,0.134792 c -0.0035,0.0043 -0.0063,0.0089 -0.0099,0.01313 a 2.9458491,2.9458491 0 0 1 -0.141375,0.15288 c 0.05217,-0.05412 0.103879,-0.108744 0.15124,-0.166036 z m -4.239581,0.312344 c 0.105461,0.09549 0.217656,0.18016 0.333704,0.258091 A 2.9458491,2.9458491 0 0 1 10.66213,14.303781 Z m 3.603361,0.261374 a 2.9458491,2.9458491 0 0 1 -0.389601,0.218641 c -0.006,0.0025 -0.01204,0.0051 -0.01808,0.0084 0.1395,-0.06439 0.275984,-0.138733 0.407689,-0.226864 z m -3.116792,0.0937 c 0.105572,0.06179 0.215603,0.114999 0.327133,0.162747 a 2.9458491,2.9458491 0 0 1 -0.327131,-0.162752 z m 2.594031,0.184116 c -0.0039,0.0017 -0.0077,0.0033 -0.01151,0.0051 a 2.9458491,2.9458491 0 0 1 -0.384667,0.123302 c 0.133515,-0.03375 0.266541,-0.07499 0.396175,-0.128229 z m -2.040043,0.06413 c 0.113408,0.03779 0.226671,0.07331 0.343571,0.09699 a 2.9458491,2.9458491 0 0 1 -0.343571,-0.09698 z m 1.440016,0.106859 a 2.9458491,2.9458491 0 0 1 -0.3633,0.04277 c -0.0039,1.94e-4 -0.0077,-1.76e-4 -0.01151,0 0.125568,-0.0059 0.250035,-0.02061 0.374804,-0.04277 z m -0.920621,0.01809 c 0.115723,0.01625 0.233051,0.02391 0.350152,0.02627 -0.0049,-1.09e-4 -0.0098,1.27e-4 -0.0148,0 a 2.9458491,2.9458491 0 0 1 -0.3222,-0.02467 c -0.0045,-6.5e-4 -0.0088,-8.66e-4 -0.01316,-0.0017 z"
     id="path2"
     inkscape:connector-curvature="0"
     style="fill:#ffffff;stroke-width:0.72727281" />
</svg>
