<svg height="16" width="16" xmlns="http://www.w3.org/2000/svg"><path d="m4.2166043 1.1915905-4.20835585 2.5250134 3.36668465 2.5118836-3.3749331 2.5314098 4.2166043 2.5317477 3.3666844-2.5250137-4.2083556-2.5250143 4.2083556-2.5250131 4.2083563 2.5381431-4.2083563 2.5118843 1.495902 1.1227894a4.2083557 4.2083557 0 0 1 3.5543773-1.9610934 4.2083557 4.2083557 0 0 1 2.508601.836738l.024666-.0148133-3.374268-2.499763 3.366688-2.5250139-4.208356-2.5250134-3.366685 2.5118834-3.3666846-2.5118834zm8.4167107 7.5750408a3.3666847 3.3666847 0 0 0 -3.3666843 3.3666857 3.3666847 3.3666847 0 0 0 3.3666843 3.366683 3.3666847 3.3666847 0 0 0 3.366685-3.366683 3.3666847 3.3666847 0 0 0 -3.366685-3.3666857zm0 .414262a2.9458491 2.9458491 0 0 1 .457002.039487c-.16692-.026267-.335482-.040827-.504674-.037793a2.9458491 2.9458491 0 0 1 .04797-.00841zm-.05753.00167c-.135198.00247-.269949.015993-.404398.037787a2.9458491 2.9458491 0 0 1 .404394-.03779zm-.425768.041087c-.138694.0235497-.276905.056303-.412616.1002717a2.9458491 2.9458491 0 0 1 .412612-.1002753zm1.070185.021387a2.9458491 2.9458491 0 0 1 .338639.090413c-.110676-.036871-.224411-.0670843-.338643-.090417zm-1.489337.080548c-.128995.042167-.25532.095337-.379736.156172a2.9458491 2.9458491 0 0 1 .379736-.156172zm1.956212.055887a2.9458491 2.9458491 0 0 1 .310694.143016c-.10129-.053531-.204445-.1019643-.310698-.1430203zm-2.372166.118356c-.126705.064133-.250052.136384-.369872.220282-.166886.1168567-.318944.249118-.453712.3912497-.129028.136074-.24155.282903-.340288.437275a2.9458491 2.9458491 0 0 1 .340288-.437275 2.9458491 2.9458491 0 0 1 .823592-.6115317zm2.812696.096994a2.9458491 2.9458491 0 0 1 .355085.243294c-.112353-.091691-.232409-.1701756-.355092-.243293zm-6.5448343 0-3.3666839 2.5250137-.8416721-.504666v.50467l4.2083513 2.525014 1.2428107-.744686a4.2083557 4.2083557 0 0 1 -.401476-1.784342 4.2083557 4.2083557 0 0 1 .333302-1.641259l-1.1749734-.8837523zm6.9010303.2317967a2.9458491 2.9458491 0 0 1 .364939.355083 2.9458491 2.9458491 0 0 1 .0017.0017 2.9458491 2.9458491 0 0 1 .600018 1.089881 2.9458491 2.9458491 0 0 1 .08877.36823 2.9458491 2.9458491 0 0 1 .03617.38796c-.0043-.128806-.01599-.258424-.03703-.3872-.0202-.126248-.05051-.249134-.08837-.367808-.03787-.119518-.08248-.234826-.132984-.349294l-2.677857 3.059312-.289324.34193-.330424-.315628-1.264189-1.26419c-.158672-.158654-.158664-.44792 0-.606592.158671-.158654.447929-.158672.606592 0l.948563.948564 2.538143-2.906376c-.113287-.13056-.23479-.2487457-.365006-.3551163zm-4.361204.752899c-.09123.148472-.1672143.303154-.2301463.463576a2.9458491 2.9458491 0 0 1 .2301423-.46358zm-.2449483.50303c-.0606.160759-.1068907.326568-.1380327.494902a2.9458491 2.9458491 0 0 1 .1380847-.49481zm-.1479474.550706c-.0284933.170489-.0429333.344378-.0410933.51782a2.9458491 2.9458491 0 0 1 -.00167-.03779 2.9458491 2.9458491 0 0 1 .042733-.480014zm5.8473417.427409a2.9458491 2.9458491 0 0 1 .0017.05259 2.9458491 2.9458491 0 0 1 -.01808.32056c.01331-.123802.01889-.248159.01645-.373164zm-5.885133.147948c.00473.156956.0224.312799.0526.468508a2.9458491 2.9458491 0 0 1 -.0526-.468508zm.077264.580291c.035213.149741.081751.298834.1413753.443854a2.9458491 2.9458491 0 0 1 -.1413746-.443864zm.189048.550705c.06788.148016.147098.293145.241651.432341a2.9458491 2.9458491 0 0 1 -.2416503-.432349zm5.322896.0542c-.0029.0059-.0053.01213-.0082.01809a2.9458491 2.9458491 0 0 1 -.06247.126578c-.0031.0059-.0068.01085-.0099.01641.02939-.05251.05456-.107068.08055-.161104zm-.162745.294256c-.0059.0091-.01055.01885-.01645.02795a2.9458491 2.9458491 0 0 1 -.08548.123296c.03583-.04957.06946-.09988.101916-.15124zm-4.857705.166037c.09231.126259.193449.241348.300829.348502a2.9458491 2.9458491 0 0 1 -.300829-.348502zm4.642321.134792c-.0035.0043-.0063.0089-.0099.01313a2.9458491 2.9458491 0 0 1 -.141375.15288c.05217-.05412.103879-.108744.15124-.166036zm-4.239581.312344c.105461.09549.217656.18016.333704.258091a2.9458491 2.9458491 0 0 1 -.334984-.257546zm3.603361.261374a2.9458491 2.9458491 0 0 1 -.389601.218641c-.006.0025-.01204.0051-.01808.0084.1395-.06439.275984-.138733.407689-.226864zm-3.116792.0937c.105572.06179.215603.114999.327133.162747a2.9458491 2.9458491 0 0 1 -.327131-.162752zm2.594031.184116c-.0039.0017-.0077.0033-.01151.0051a2.9458491 2.9458491 0 0 1 -.384667.123302c.133515-.03375.266541-.07499.396175-.128229zm-2.040043.06413c.113408.03779.226671.07331.343571.09699a2.9458491 2.9458491 0 0 1 -.343571-.09698zm1.440016.106859a2.9458491 2.9458491 0 0 1 -.3633.04277c-.0039.000194-.0077-.000176-.01151 0 .125568-.0059.250035-.02061.374804-.04277zm-.920621.01809c.115723.01625.233051.02391.350152.02627-.0049-.000109-.0098.000127-.0148 0a2.9458491 2.9458491 0 0 1 -.3222-.02467c-.0045-.00065-.0088-.000866-.01316-.0017z" fill="#fff" stroke-width=".727273"/></svg>