<svg enable-background="new" height="256" viewBox="0 0 256 256" width="256" xmlns="http://www.w3.org/2000/svg" xmlns:xlink="http://www.w3.org/1999/xlink"><clipPath id="a"><path d="m111.94141 84c-12.581904.145-21.78831-.286002-29.31641 3.867188-3.7641 2.0768-6.751838 5.574737-8.398438 9.960937-1.6465 4.386205-2.226562 9.595975-2.226562 16.171875v42h160v-26c0-6.5759-.57996-11.78566-2.22656-16.17188-.205-.5455-.47919-1.03993-.74219-1.54296-.1-.1848-.17844-.38051-.27344-.56641-1.727-3.38752-4.25471-6.14522-7.38281-7.87109-7.5287-4.153514-16.73451-3.70226-29.31641-3.84766h-.05859-40.33203l-16.21485-16h-23.49218z"/></clipPath><filter id="b" color-interpolation-filters="sRGB" height="1.081" width="1.0648" x="-.0324" y="-.0405"><feGaussianBlur stdDeviation="2.16"/></filter><linearGradient id="c" gradientUnits="userSpaceOnUse" x1="72.884" x2="167.884" y1="64.175" y2="155.175"><stop offset="0" stop-opacity="0"/><stop offset=".33684212"/><stop offset="1" stop-opacity="0"/></linearGradient><filter id="d" color-interpolation-filters="sRGB" height="1.126667" width="1.114" x="-.057" y="-.063333"><feGaussianBlur stdDeviation="3.8"/></filter><filter id="e" color-interpolation-filters="sRGB" height="1.025333" width="1.0228" x="-.0114" y="-.012667"><feGaussianBlur stdDeviation=".76"/></filter><filter id="f" color-interpolation-filters="sRGB" height="1.050667" width="1.0456" x="-.0228" y="-.025333"><feGaussianBlur stdDeviation="1.5199998"/></filter><linearGradient id="g" gradientTransform="matrix(0 -1 1 0 -27.11862 280.17176)" gradientUnits="userSpaceOnUse" x1="279.99677" x2="23.996759" y1="36.00288" y2="276.00287"><stop offset="0" stop-color="#948b74"/><stop offset="1" stop-color="#aea795"/></linearGradient><linearGradient id="h" gradientTransform="matrix(0 -1 1 0 -27.11888 280.17176)" gradientUnits="userSpaceOnUse" x1="279.99677" x2="23.996759" y1="36.00288" y2="276.00287"><stop offset="0" stop-color="#aea795"/><stop offset="1" stop-color="#c8c4b7"/></linearGradient><linearGradient id="i" gradientUnits="userSpaceOnUse" x1="88" x2="488" y1="88" y2="488"><stop offset="0" stop-opacity=".588235"/><stop offset="1" stop-opacity=".205556"/></linearGradient><filter id="j" color-interpolation-filters="sRGB" height="1.087725" width="1.105998" x="-.052999" y="-.043863"><feGaussianBlur stdDeviation="8.4801079"/></filter><filter id="k" color-interpolation-filters="sRGB" height="1.021931" width="1.0265" x="-.01325" y="-.010966"><feGaussianBlur stdDeviation="2.120027"/></filter><path d="m141.84323 74c-70.59344 0-78.18921 7.250835-77.84323 77.98706v146.01294 146.01294c-.34598 70.73623 7.24979 77.98706 77.84323 77.98706h292.31354c70.59344 0 79.78033-7.27652 77.84323-77.98706v-146.01294-146.01294c0-70.737067-7.24979-77.98706-77.84323-77.98706z" filter="url(#k)" opacity=".1" transform="matrix(.5 0 0 .5 -15.116488 -19.825537)"/><path d="m141.84323 74c-70.59344 0-78.18921 7.250835-77.84323 77.98706v146.01294 146.01294c-.34598 70.73623 7.24979 77.98706 77.84323 77.98706h292.31354c70.59344 0 79.78033-7.27652 77.84323-77.98706v-146.01294-146.01294c0-70.737067-7.24979-77.98706-77.84323-77.98706z" fill="url(#i)" filter="url(#j)" opacity=".3" transform="matrix(.5 0 0 .5 -15.116488 -19.825235)"/><path d="m54.695112 14.174463c-36.09881 0-39.983 3.69016-39.80608 39.68984v74.310167 74.31015c-.17692 35.99969 3.70727 39.68984 39.80608 39.68984h148.387318c36.09881 0 40.77464-3.70276 39.80608-39.68984v-74.31015-74.310167c0-36.00011-3.70727-39.68984-39.80608-39.68984z" opacity=".1"/><path d="m55.805132 240.17446c-35.29673 0-39.09461-3.62542-38.92162-38.99353v-73.00646-73.006479c-.17299-35.36812 3.62489-38.99353 38.92162-38.99353h146.156758c35.29671 0 38.92161 3.625 38.92161 38.99353v73.006479 73.00646c0 35.36853-3.6249 38.99353-38.92161 38.99353z" fill="url(#h)"/><path d="m55.805392 16.174463c-35.29673 0-39.09487 3.62603-38.92188 38.99414v2c-.17299-35.36811 3.62515-38.99414 38.92188-38.99414h146.156238c35.29673 0 38.92188 3.62561 38.92188 38.99414v-2c0-35.36853-3.62515-38.99414-38.92188-38.99414z" fill="#fff" opacity=".3"/><path d="m55.810792 240.17446c-35.29673 0-39.09487-3.62603-38.92188-38.99414v-2c-.17299 35.36811 3.62515 38.99414 38.92188 38.99414h146.156238c35.29673 0 38.92188-3.62561 38.92188-38.99414v2c0 35.36853-3.62515 38.99414-38.92188 38.99414z" opacity=".2"/><path d="m55.805392 240.17446c-35.29673 0-39.09461-3.62542-38.92162-38.99353v-73.00646-73.006477c-.17299-35.36812 3.62489-38.99353 38.92162-38.99353h146.156758c35.29671 0 38.92161 3.625 38.92161 38.99353v73.006477 73.00646c0 35.36853-3.6249 38.99353-38.92161 38.99353z" fill="url(#g)"/><path d="m184.884 16.175-168 167.99999v17.00586c-.17299 35.36811 3.625145 38.99414 38.921875 38.99414h146.156245c35.29672 0 38.92188-3.62561 38.92188-38.99414v-73.00585-73.007812c0-35.36853-3.62516-38.992188-38.92188-38.992188z" fill="#fff" opacity=".05"/><path d="m88.82221 60.174466c-12.581902.145-21.788304-.286-29.316404 3.86719-3.7641 2.07679-6.751837 5.57473-8.398437 9.960934-1.6465 4.38621-2.226563 9.59598-2.226563 16.17188v32 10 35.99999 5.99999c0 6.5759.58081 11.78567 2.22461 16.17188 1.6466 4.3862 4.634337 7.90367 8.398437 9.98047 7.5281 4.15346 16.734506 3.70225 29.316407 3.84765h.0586 80 .0605c12.5819-.1454 21.78831.30585 29.31641-3.84765 3.7641-2.0768 6.75183-5.59427 8.39843-9.98047 1.6466-4.38621 2.22657-9.59598 2.22657-16.17188v-41.99998-26c0-3.28875-.1451-6.23498-.4961-8.90821-.0877-.66817-.18835-1.3181-.30273-1.95312-.34315-1.90507-.81026-3.66571-1.42774-5.31055-1.11403-2.96755-2.85262-5.51457-5.01953-7.5039-.11246-.10575-.22882-.20609-.34375-.3086-.18481-.16113-.36788-.32362-.55859-.47656-.35643-.29171-.72391-.56757-1.10156-.82813-.44587-.30762-.90085-.60167-1.375-.86328-7.5287-4.15352-16.73451-3.70225-29.31641-3.84765h-.0195-.0391-39.45313-.87891l-16.21484-16.000004h-23.49219z" filter="url(#f)" opacity=".2"/><path d="m88.82541 58.175c-12.581908.145-21.78831-.286002-29.31641 3.867188-3.7641 2.0768-6.751838 5.574737-8.398438 9.960937-1.6465 4.386205-2.226562 9.595975-2.226562 16.171875v32 10 35.99999 6c0 6.5759.580809 11.78566 2.224609 16.17188 1.6466 4.3862 4.634338 7.90366 8.398438 9.98046 7.5281 4.15346 16.734506 3.70226 29.316403 3.84766h.0586 80 .0605c12.5819-.1454 21.78831.30584 29.31641-3.84766 3.7641-2.0768 6.75184-5.59426 8.39844-9.98046 1.64664-4.38622 2.2266-9.59598 2.2266-16.17188v-41.99999-26c0-3.28875-.14509-6.23498-.49609-8.9082-.0877-.66818-.18835-1.31811-.30274-1.95313-.34315-1.90506-.81026-3.66571-1.42773-5.31055-1.11404-2.96755-2.85263-5.51457-5.01953-7.5039-.11246-.10575-.22882-.20609-.34375-.3086-.18482-.16113-.36789-.32362-.5586-.47656-.35643-.29171-.72391-.56757-1.10156-.82812-.44587-.30762-.90085-.60168-1.375-.86328-7.5287-4.15352-16.73451-3.70226-29.31641-3.84766h-.0195-.0391-39.45312-.87891l-16.21485-16h-23.49217z" filter="url(#e)" opacity=".1"/><path d="m88.82541 56.175c-12.581908.145-21.78831-.286002-29.31641 3.867188-3.7641 2.0768-6.751838 5.574737-8.398438 9.960937-1.6465 4.386205-2.226562 9.595975-2.226562 16.171875v32 10 35.99999 6c0 6.5759.580809 11.78566 2.224609 16.17188 1.6466 4.3862 4.634338 7.90366 8.398438 9.98046 7.5281 4.15346 16.734506 3.70226 29.316403 3.84766h.0586 80 .0605c12.5819-.1454 21.78831.30584 29.31641-3.84766 3.7641-2.0768 6.75184-5.59426 8.39844-9.98046 1.64664-4.38622 2.2266-9.59598 2.2266-16.17188v-41.99999-26c0-3.28875-.14509-6.23498-.49609-8.9082-.0877-.66818-.18835-1.31811-.30274-1.95313-.34315-1.90506-.81026-3.66571-1.42773-5.31055-1.11404-2.96755-2.85263-5.51457-5.01953-7.5039-.11246-.10575-.22882-.20609-.34375-.3086-.18482-.16113-.36789-.32362-.5586-.47656-.35643-.29171-.72391-.56757-1.10156-.82812-.44587-.30762-.90085-.60168-1.375-.86328-7.5287-4.153518-16.73451-3.70226-29.31641-3.84766h-.0195-.0391-39.45312-.87891l-16.21485-16h-23.49217z" fill="url(#c)" filter="url(#d)" opacity=".4"/><path d="m88.82541 56.175c-12.581904.145-21.78831-.286002-29.31641 3.867188-3.7641 2.0768-6.751838 5.574737-8.398438 9.960937-1.6465 4.386205-2.226562 9.595975-2.226562 16.171875v42h160v-26c0-6.5759-.57996-11.78566-2.22656-16.17188-.205-.5455-.47919-1.03993-.74219-1.54296-.1-.1848-.17844-.38051-.27344-.56641-1.727-3.38752-4.25471-6.14522-7.38281-7.87109-7.5287-4.153514-16.73451-3.70226-29.31641-3.84766h-.0586-40.33203l-16.21485-16h-23.49217z" fill="#e3dfd5"/><path clip-path="url(#a)" d="m192.0586 99.99979c12.5819.145 21.7883-.286 29.3164 3.86719 3.7641 2.0768 6.7518 5.57473 8.3984 9.96093 1.6465 4.38621 2.2266 9.59598 2.2266 16.17188v68c0 6.5759-.58 11.78567-2.2266 16.17188-1.6466 4.3862-4.6343 7.90366-8.3984 9.98046-7.5281 4.1535-16.7345 3.70226-29.3164 3.84766h-.06-80-.06c-12.5819-.1454-21.7883.3058-29.3164-3.84766-3.7641-2.0768-6.7518-5.59426-8.3984-9.98046-1.6438-4.38621-2.2238-9.59598-2.2238-16.17188v-6-48c0-6.5759.58-11.78566 2.2266-16.17188.205-.5455.479-1.03993.742-1.54296.1-.1848.178-.3805.273-.5664 1.727-3.38752 4.2547-6.14522 7.3828-7.87109 7.5287-4.15351 16.7351-3.70227 29.317-3.84767h.0586 26.332l14.2149-14h39.4922z" filter="url(#b)" opacity=".15" transform="translate(-23.116 -27.825)"/><path d="m168.9426 72.17479c12.5819.145 21.7883-.286 29.3164 3.86719 3.7641 2.0768 6.7518 5.57473 8.3984 9.96093 1.6465 4.38621 2.2266 9.59598 2.2266 16.17188v67.99999c0 6.5759-.58 11.78567-2.2266 16.17188-1.6466 4.3862-4.6343 7.90366-8.3984 9.98046-7.5281 4.1535-16.7345 3.70226-29.3164 3.84766h-.06-80-.06c-12.5819-.1454-21.7883.3058-29.3164-3.84766-3.7641-2.0768-6.7518-5.59426-8.3984-9.98046-1.6438-4.38621-2.2238-9.59598-2.2238-16.17188v-6-45.99999c0-6.5759.58-11.78566 2.2266-16.17188.205-.5455.479-1.03993.742-1.54296.1-.1848.178-.3805.273-.5664 1.727-3.38752 4.2547-6.14522 7.3828-7.87109 7.5287-4.15351 16.7351-3.70227 29.317-3.84767h.0586 24.332l16.2149-16h39.4922z" fill="#faf8f6"/><g fill="#fff"><path d="m88.82541 56.175c-12.581912.145-21.78831-.286002-29.31641 3.867188-3.7641 2.0768-6.751838 5.574737-8.398438 9.960937-1.6465 4.386205-2.226562 9.595975-2.226562 16.171875v2c0-6.5759.580062-11.78567 2.226562-16.171875 1.646601-4.3862 4.634338-7.884137 8.398438-9.960937 7.5281-4.153191 16.734498-3.722188 29.31641-3.867188h.0195 23.49218l15.64066 15.43359 1.45313-1.43359h-.87891l-16.21485-16h-23.49218z" opacity=".4"/><path d="m129.43088 72.175-16.21485 16h-24.33203-.0586c-12.5819.1454-21.78771-.30585-29.31641 3.84766-3.1281 1.72587-5.655812 4.48357-7.382812 7.87109-.095.1859-.173438.38161-.273438.56641-.263.50303-.537188.99746-.742188 1.54296-1.646589 4.38623-2.226552 9.59598-2.226552 16.17188v2c0-6.5759.579963-11.78565 2.226562-16.17188.205-.5455.479188-1.03993.742188-1.54296.1-.1848.178438-.38051.273438-.56641 1.727-3.38752 4.254712-6.14522 7.382812-7.87109 7.5287-4.15351 16.73451-3.70226 29.31641-3.84766h.05859 24.33203l16.21485-16h39.49218.0195c12.5819.145 21.78831-.286 29.31641 3.86719 3.7641 2.0768 6.75184 5.57473 8.39844 9.96093 1.64653 4.38622 2.22659 9.59598 2.22659 16.17188v-2c0-6.5759-.58006-11.78566-2.22656-16.17188-1.6466-4.3862-4.63434-7.88413-8.39844-9.96093-7.5281-4.153193-16.73451-3.72219-29.31641-3.86719h-.0195z"/><path d="m55.80588 16.1747c-35.296728 0-39.09487 3.62603-38.92188 38.99414v2c-.17299-35.36811 3.625152-38.99414 38.92188-38.99414h146.15624c35.29673 0 38.92188 3.62561 38.92188 38.99414v-2c0-35.36853-3.62515-38.99414-38.92188-38.99414z" opacity=".3"/></g><path d="m55.81128 240.17469c-35.296731 0-39.094875-3.62603-38.921885-38.99414v-2c-.17299 35.36811 3.625154 38.99414 38.921885 38.99414h146.15624c35.29673 0 38.92188-3.62561 38.92188-38.99414v2c0 35.36853-3.62515 38.99414-38.92188 38.99414z" opacity=".2"/></svg>