<svg enable-background="new" height="256" viewBox="0 0 256 256" width="256" xmlns="http://www.w3.org/2000/svg" xmlns:xlink="http://www.w3.org/1999/xlink"><filter id="a" color-interpolation-filters="sRGB" height="1.024" width="1.024" x="-.01" y="-.01"><feGaussianBlur stdDeviation="1.12"/></filter><filter id="b" color-interpolation-filters="sRGB" height="1.096" width="1.096" x="-.05" y="-.05"><feGaussianBlur stdDeviation="4.48"/></filter><circle cx="128.752" cy="127.248" filter="url(#b)" opacity=".1" r="112"/><circle cx="128.752" cy="125.248" filter="url(#a)" opacity=".1" r="112"/><circle cx="128.752" cy="123.248" opacity=".1" r="114"/><rect fill="#d5d3cf" height="212.8" rx="104.533" width="209.067" x="24.18" y="19.55"/><path d="m240.752 123.248a112 112 0 0 1 -111.99997 111.99999 112 112 0 0 1 -112.000031-111.99999 112 112 0 0 1 112.000031-112.000004 112 112 0 0 1 111.99997 112.000004z" fill="#3d3846"/><path d="m128.752 11.248007a112 112 0 0 0 -112 111.999993 112 112 0 0 0 .04102 1.16992 112 112 0 0 1 111.95898-111.169913 112 112 0 0 1 111.95898 110.830073 112 112 0 0 0 .041-.83008 112 112 0 0 0 -112-111.999993z" fill="#fff" opacity=".3"/><g enable-background="new" fill="#fff" transform="matrix(1.6692058 0 0 -1.6692058 159.66481 -41.347771)"><path d="m-39.852624-141.65497c.788325.0154 1.434533-.42529 1.434533-.96766.01868-.54679-.616957-.99991-1.405281-1.00979-.792718-.0187-1.435112.42617-1.443894.96416 0 .55227.623029.99902 1.414642 1.01329z"/><path d="m-34.665606-141.00673c.66083.0224 1.209048-.28129 1.296461-.75588.09442-.5325-.452784-1.0814-1.235617-1.22743-.769654-.14163-1.483089.18916-1.580794.71727-.09553.54678.461279 1.09516 1.230939 1.23679.09799.017.194607.026.289011.0292z"/><path d="m-45.485449-140.77739c.179016-.002.367843-.0312.556964-.0901.7488-.22619 1.239416-.83036 1.083506-1.35848-.161396-.51929-.904691-.75309-1.655681-.53239-.749897.22726-1.240872.83365-1.089357 1.35848.116931.3928.567523.62797 1.104568.62249z"/><path d="m-50.31208-137.89545c.368309.0172.807412-.1548 1.164242-.49378.575328-.5336.750382-1.29676.363898-1.69313-.36342-.40074-1.138285-.29404-1.704824.25274-.579715.53469-.741355 1.29354-.37794 1.69429.138341.15067.333642.22999.554624.23988z"/><path d="m-53.492391-134.12659c.377089.0202.824069-.23355 1.136159-.67163.405204-.59948.405592-1.30609-.0094-1.59484-.40624-.28328-1.071875-.0186-1.482506.57101-.406315.59067-.406696 1.29752.0094 1.58079.102647.0708.220649.10803.346347.11467z"/><path d="m-56.070105-130.738c.293357-.009.629913-.17096.900971-.45985.434783-.46772.518865-1.08076.188385-1.3772-.316207-.29314-.935479-.15676-1.353797.30657-.434783.46224-.514836 1.08193-.194235 1.37836.122285.10995.282658.15761.458676.15212z"/><path d="m-58.874816-128.45983c.0814.008.168582.004.25742-.009.118443-.0177.242503-.0534.362729-.10999.480899-.21631.754346-.66995.588556-1.00043-.146023-.33048-.664043-.4297-1.136159-.20243-.481997.2163-.750312.66527-.594408.99575.08029.19022.277668.30407.521862.32646z"/><path d="m103.0957 232.14648a112 112 0 0 0 3.40625.86914 112 112 0 0 0 11.06836 1.67188 112 112 0 0 0 11.18164.56055 112 112 0 0 0 7.92188-.28125 112 112 0 0 0 11.11523-1.34766 112 112 0 0 0 10.92188-2.45312 112 112 0 0 0 2.44922-.8125c-.59518-1.49147-1.4253-3.59487-1.54688-3.94336 0-3.64523.125-15.56292.125-30.3711 0-10.32539-3.5343-17.05966-7.5039-20.49414 24.64425-2.73988 50.5332-12.09806 50.5332-54.60742 0-12.08113-4.29052-21.95461-11.38672-29.705078 1.1491-2.789362 4.93618-14.044703-1.08789-29.289063 0 0-9.28261-2.973143-30.40625 11.345703-8.84459-2.452145-18.31728-3.682577-27.72266-3.726562-9.40538.043984-18.87308 1.274417-27.70117 3.726562-21.147475-14.318846-30.443359-11.345703-30.443359-11.345703-6.011245 15.24436-2.221377 26.499701-1.072265 29.289063-7.079711 7.750468-11.404297 17.623948-11.404297 29.705078 0 42.40672 25.84188 51.89864 50.423831 54.69531-3.16507 2.76372-6.03219 7.64765-7.02735 14.79883-6.315467 2.82787-22.336125 7.72034-32.207028-9.19726 0 0-5.849419-10.62552-16.962891-11.40626 0 0-10.799152-.1424-.757812 6.72657 0 0 7.252704 3.40101 12.287109 16.1914 0 0 6.497822 19.7554 37.287112 13.06055.02573 4.99529-.73674 16.09119-1.49024 26.33984z" transform="matrix(.5990873 0 0 -.5990873 -95.65316 -24.770925)"/></g><g enable-background="new" fill="#3d3846" opacity=".85" transform="matrix(5.2219061 0 0 5.2219061 -22.928976 -1231.7705)"><path d="m0 0c-.133-.301-.605-.391-1.035-.184-.439.197-.684.606-.542.907.13.308.602.394 1.04.188.438-.197.688-.61.537-.911" transform="matrix(.35277777 0 0 -.35277777 16.525238 269.35933)"/><path d="m0 0c-.288-.267-.852-.143-1.233.279-.396.421-.469.985-.177 1.255.297.267.843.142 1.238-.279.396-.426.473-.985.172-1.255" transform="matrix(.35277777 0 0 -.35277777 17.388237 270.32189)"/><path d="m0 0c-.37-.258-.976-.017-1.35.52-.37.538-.37 1.182.009 1.44.374.258.971.025 1.35-.507.369-.546.369-1.19-.009-1.453" transform="matrix(.35277777 0 0 -.35277777 18.228167 271.54867)"/><path d="m0 0c-.331-.365-1.036-.267-1.552.231-.528.487-.675 1.178-.344 1.543.336.366 1.045.263 1.565-.231.524-.486.683-1.182.331-1.543" transform="matrix(.35277777 0 0 -.35277777 19.378822 272.73415)"/><path d="m0 0c-.147-.473-.825-.687-1.509-.486-.683.207-1.13.76-.992 1.238.142.477.824.7 1.513.485.682-.206 1.13-.756.988-1.237" transform="matrix(.35277777 0 0 -.35277777 20.966322 273.42245)"/><path d="m0 0c.017-.498-.563-.911-1.281-.92-.722-.017-1.307.387-1.315.877 0 .503.568.911 1.289.924.718.014 1.307-.387 1.307-.881" transform="matrix(.35277777 0 0 -.35277777 22.709892 273.54994)"/><path d="m0 0c.086-.485-.413-.984-1.126-1.117-.701-.129-1.35.172-1.439.653-.087.498.42.997 1.121 1.126.714.124 1.353-.168 1.444-.662" transform="matrix(.35277777 0 0 -.35277777 24.332174 273.27397)"/></g><path d="m128.752 235.248a112 112 0 0 1 -112-112 112 112 0 0 1 .04102-1.16992 112 112 0 0 0 111.95898 111.16992 112 112 0 0 0 111.95898-110.83008 112 112 0 0 1 .041.83008 112 112 0 0 1 -112 112z" opacity=".2"/></svg>