<svg height="256" width="256" xmlns="http://www.w3.org/2000/svg" xmlns:xlink="http://www.w3.org/1999/xlink">
  <filter id="filter11191" color-interpolation-filters="sRGB" height="1.024" width="1.024" x="-.01" y="-.01">
    <feGaussianBlur stdDeviation="1.12"/>
  </filter>
  <filter id="filter11210" color-interpolation-filters="sRGB" height="1.096" width="1.096" x="-.05" y="-.05">
    <feGaussianBlur stdDeviation="4.48"/>
  </filter>
  <radialGradient id="_rgradient_2" cx=".5" cy=".5" fx="0" fy="0" gradientTransform="matrix(219.306 0 0 219.106 889.484 2688.77)" gradientUnits="userSpaceOnUse" r="1">
    <stop offset="0" stop-color="#fff101"/>
    <stop offset="1" stop-color="#e6da1a"/>
  </radialGradient>
  <linearGradient id="lg1">
    <stop offset="0" stop-color="#cfdc5e"/>
    <stop offset="1" stop-color="#bfca65"/>
  </linearGradient>
  <linearGradient id="_lgradient_6" gradientTransform="matrix(102.996 0 0 145.931 32.109 38.603)" gradientUnits="userSpaceOnUse" x1=".007" x2=".994" xlink:href="#lg1" y1=".743" y2="-.033"/>
  <linearGradient id="_lgradient_7" gradientTransform="matrix(95.677 0 0 94.589 32.947 32.8)" gradientUnits="userSpaceOnUse" x1=".007" x2=".994" xlink:href="#lg1" y1=".743" y2="-.033"/>
  <linearGradient id="_lgradient_8" gradientTransform="matrix(156.952 0 0 218.856 32.701 32.018)" gradientUnits="userSpaceOnUse" x1=".32" x2=".819" y1=".909" y2=".011">
    <stop offset="0" stop-color="#d91963"/>
    <stop offset="1" stop-color="#981245"/>
  </linearGradient>
  <circle cx="128.752" cy="127.248" filter="url(#filter11210)" opacity=".1" r="112"/>
  <circle cx="128.752" cy="125.248" filter="url(#filter11191)" opacity=".1" r="112"/>
  <circle cx="128.752" cy="123.248" opacity=".1" r="114"/>
  <g fill-rule="evenodd" transform="matrix(1.0213154 0 0 1.022145 -15.930094 -21.460652)">
    <path d="m141.669 32c60.565 0 109.656 49.059 109.656 109.596 0 60.515-49.113 109.551-109.656 109.551-60.57 0-109.651-49.045-109.651-109.551 0-60.51 49.1-109.596 109.651-109.596z" fill="url(#_rgradient_2)"/>
    <path d="m249.413 161.938c-12.108 8.895-24.534 18.79-35.367 28.945-24.598 23.092-38.749 41.165-54.484 58.786 45.403-7.435 81.385-42.724 89.851-87.731z" fill="#88a03e"/>
    <path d="m103.89 66.13-71.781 80.341c.592 13.461 3.605 26.285 8.63 38.064 31.453-48.65 62.905-97.296 94.367-145.932-10.406 9.186-20.815 18.372-31.216 27.513" fill="url(#_lgradient_6)"/>
    <path d="m32.746 128.89c-.473 4.166-.746 8.391-.746 12.688 0 1.637.046 3.265.123 4.893l71.78-80.341c-23.714 20.918-47.428 41.846-71.152 62.756" fill="#88a03e"/>
    <path d="m32.947 127.39c31.907-31.533 63.769-63.061 95.677-94.59-49.75 5.899-89.259 45.044-95.677 94.59z" fill="url(#_lgradient_7)"/>
    <path d="m128.405 32.8c-31.907 31.533-63.678 63.057-95.567 94.59-.064.5-.078 1-.137 1.5 23.714-20.918 47.461-41.837 71.175-62.756 10.401-9.186 20.829-18.372 31.225-27.513-31.452 48.632-62.905 97.273-94.357 145.932l.023.027c.887 2.092 1.866 4.138 2.885 6.157.214.428.433.846.651 1.265.993 1.919 2.03 3.811 3.141 5.657l.173.318c1.206 1.992 2.476 3.943 3.796 5.853l.651.909c1.17 1.656 2.39 3.275 3.641 4.866.214.259.41.519.619.773 1.484 1.833 3.014 3.625 4.598 5.344l.113.113c1.53 1.66 3.123 3.275 4.748 4.821l.746.705c3.428 3.229 7.055 6.23 10.879 9.004l.546.386c1.903 1.365 3.842 2.661 5.826 3.889l.06.045c4.173 2.592 8.534 4.911 13.063 6.935l.296.137c4.524 2.001 9.194 3.706 14.028 5.093l.2.068c7.311 2.069 14.93 3.433 22.805 3.956.3-62.988 22.012-141.652 55.421-207.837-14.492-7.053-30.983-11.019-48.189-11.019-2.617 0-10.76.409-13.045.801" fill="url(#_lgradient_8)"/>
  </g>
  <path d="m128.752 11.248006a112 112 0 0 0 -112.000001 111.999994 112 112 0 0 0 .04102 1.16992 112 112 0 0 1 111.958981-111.169914 112 112 0 0 1 111.95898 110.830074 112 112 0 0 0 .041-.83008 112 112 0 0 0 -112-111.999994z" fill="#fff" opacity=".3"/>
  <path d="m128.752 235.248a112 112 0 0 1 -112.000001-112 112 112 0 0 1 .04102-1.16992 112 112 0 0 0 111.958981 111.16992 112 112 0 0 0 111.95898-110.83008 112 112 0 0 1 .041.83008 112 112 0 0 1 -112 112z" opacity=".2"/>
</svg>
