<svg enable-background="new" height="256" viewBox="0 0 256 256" width="256" xmlns="http://www.w3.org/2000/svg" xmlns:xlink="http://www.w3.org/1999/xlink">
  <filter id="filter986" color-interpolation-filters="sRGB" height="1.023123" width="1.024946" x="-.012473" y="-.011562">
    <feGaussianBlur stdDeviation="1.0983465"/>
  </filter>
  <filter id="filter1004" color-interpolation-filters="sRGB" height="1.092492" width="1.099784" x="-.049892" y="-.046246">
    <feGaussianBlur stdDeviation="4.393386"/>
  </filter>
  <g transform="translate(-135.59322 -10.169492)">
    <path d="m158.95454 25.268495c-1.63706.0076-2.96018 1.336792-2.96032 2.973872v222.049163c.00099 2.25139 2.40617 3.68535 4.38723 2.61569l205.39275-111.02457c2.07813-1.12465 2.07813-4.10673 0-5.23138l-205.39275-111.024594c-.43814-.237004-.92879-.360166-1.42691-.358181z" filter="url(#filter1004)" opacity=".1"/>
    <path d="m158.95454 25.268495c-1.63706.0076-2.96018 1.336792-2.96032 2.973872v222.049163c.00099 2.25139 2.40617 3.68535 4.38723 2.61569l205.39275-111.02457c2.07813-1.12465 2.07813-4.10673 0-5.23138l-205.39275-111.024594c-.43814-.237004-.92879-.360166-1.42691-.358181z" filter="url(#filter986)" opacity=".1"/>
    <path d="m158.95454 25.268495c-1.63706.0076-2.96018 1.336792-2.96032 2.973872v222.049163c.00099 2.25139 2.40617 3.68535 4.38723 2.61569l205.39275-111.02457c2.07813-1.12465 2.07813-4.10673 0-5.23138l-205.39275-111.024594c-.43814-.237004-.92879-.360166-1.42691-.358181z" opacity=".1"/>
    <path d="m160.50211 27.169931c-1.60833.0075-2.90823 1.313334-2.90837 2.921687v218.152632c.00097 2.21188 2.36395 3.62068 4.31024 2.56979l201.78853-109.07632c2.04166-1.10491 2.04166-4.03466 0-5.13958l-201.78853-109.076313c-.43045-.232845-.91249-.353846-1.40187-.351896z" fill="#00c458"/>
    <path d="m157.59322 139.22927v109.06164c.00024.54407.14927 1.03996.40135 1.45979.25208.41985.60818.7641 1.02526 1.00876.41707.24466.89522.38944 1.39046.40799.49524.0186 1.00661-.0896 1.49318-.3481l201.78853-107.32112c.51041-.27177.89368-.65473 1.14888-1.09484.25521-.4401.38233-.93737.38233-1.43359s-.12712-.99161-.38233-1.43172c-.01-.0173-.0352-.0259-.0457-.043z" fill="#fff" opacity=".1" stroke-width="1.228161"/>
    <path d="m248.36283 86.609506c-.45805-.07986-.95774-.04519-1.48758.106749l-51.26753 14.842805c-2.11928.61371-3.82165 2.98624-3.82165 5.31742v56.85619c-3.66488-1.58358-7.99666-1.84476-12.13063-.73145-9.06729 2.4582-14.75258 10.73773-12.69773 18.49184 2.05665 7.74815 11.06544 12.03735 20.12733 9.58287 7.4659-2.03308 12.8427-8.11913 13.08398-14.80993l.0327-1.15056v-52.15514l42.0792-12.17997v40.32861c-3.66486-1.58355-7.99663-1.84476-12.13061-.73144-9.06727 2.4582-14.75256 10.73773-12.69771 18.49181 2.05661 7.74817 11.06541 12.03738 20.1273 9.58288 7.46591-2.03309 12.84269-8.11912 13.084-14.80991l.0326-.44375v-73.383738c0-1.748416-.9602-2.96599-2.3341-3.205247z" fill="#ff5846"/>
    <path d="m247.64624 86.575247c-.24841.01768-.50545.06479-.77037.140758l-51.26838 14.842395c-2.11928.6137-3.8214 2.9872-3.8214 5.31838v1.9478c0-2.33119 1.70212-4.70468 3.8214-5.31839l51.26838-14.842393c.52984-.151938 1.02942-.186379 1.48747-.10652 1.37391.239257 2.33393 1.456691 2.33393 3.205106v-1.947791c0-1.748416-.96002-2.965849-2.33393-3.205106-.22902-.03993-.4687-.05192-.7171-.03424zm-12.80711 63.126323c-1.56028.0337-3.13854.25776-4.68878.67526-8.14933 2.20934-13.54615 9.122-13.0677 16.12824.53569-6.30271 5.6761-12.17654 13.0677-14.18045 4.13398-1.11332 8.46509-.85123 12.12995.73232v-1.94779c-2.29054-.98972-4.84072-1.46369-7.44117-1.40758zm-50.49421 12.6245c-1.56028.0337-3.13854.25776-4.68878.67526-8.15276 2.21027-13.5513 9.12657-13.0677 16.13586.53134-6.30632 5.67239-12.18316 13.0677-14.18807 4.13397-1.11331 8.46506-.85315 12.12995.73043v-1.9478c-2.29055-.98974-4.84072-1.46178-7.44117-1.40568z" fill="#fff" opacity=".3"/>
    <path d="m242.2803 108.83218-42.07914 12.17941v1.94779l42.07914-12.1794zm8.41697 52.41918-.0342.4432c-.24132 6.69079-5.61701 12.77697-13.08292 14.81006-9.06189 2.45451-18.06993-1.83481-20.12654-9.58298-.20803-.785-.31703-1.57518-.37092-2.36436-.12144 1.42882-.009 2.87916.37092 4.31215 2.05661 7.74817 11.06465 12.03749 20.12654 9.58298 7.46591-2.03308 12.8416-8.11927 13.08292-14.81006l.0342-.4432zm-50.49611 11.91691-.0323 1.15079c-.24128 6.6908-5.61702 12.77509-13.08292 14.80816-9.06189 2.45448-18.0718-1.83293-20.12845-9.58108-.20725-.78207-.31476-1.5705-.36901-2.35675-.12013 1.42577-.01 2.87471.36901 4.30455 2.05665 7.74814 11.06656 12.03555 20.12845 9.58107 7.4659-2.03307 12.84164-8.11736 13.08292-14.80816l.0323-1.15079z" opacity=".2"/>
    <path d="m160.50159 27.169512c-1.60833.0075-2.90822 1.313335-2.90837 2.921687v1.947792c.00015-1.608353 1.30004-2.914188 2.90837-2.921687.48938-.002.97143.119051 1.40188.351895l201.78853 109.076321c.68639.37146 1.13706.9506 1.36192 1.59589.444-1.27411-.007-2.81024-1.36192-3.54369l-201.78853-109.076312c-.43045-.232845-.9125-.353846-1.40188-.351896z" fill="#fefefe" opacity=".31"/>
    <path d="m365.05392 138.19362c-.22486.64529-.67553 1.22443-1.36192 1.59589l-201.78853 109.07632c-1.94629 1.05089-4.30928-.35791-4.31025-2.56979v1.94779c.00097 2.21188 2.36396 3.62068 4.31025 2.56979l201.78853-109.07632c1.35525-.73344 1.80592-2.26957 1.36192-3.54368z" opacity=".2"/>
  </g>
</svg>
