<svg enable-background="new" height="256" viewBox="0 0 256 256" width="256" xmlns="http://www.w3.org/2000/svg" xmlns:xlink="http://www.w3.org/1999/xlink">
  <linearGradient id="linearGradient4358" gradientUnits="userSpaceOnUse" x1="88" x2="488" y1="88" y2="488">
    <stop offset="0" stop-opacity=".588235"/>
    <stop offset="1" stop-opacity=".205556"/>
  </linearGradient>
  <filter id="filter4380" color-interpolation-filters="sRGB" height="1.088" width="1.106" x="-.05" y="-.04">
    <feGaussianBlur stdDeviation="8.48"/>
  </filter>
  <filter id="filter4346" color-interpolation-filters="sRGB" height="1.022" width="1.026" x="-.01" y="-.01">
    <feGaussianBlur stdDeviation="2.12"/>
  </filter>
  <path d="m141.84323 74c-70.59344 0-78.18921 7.250835-77.84323 77.98706v146.01294 146.01294c-.34598 70.73623 7.24979 77.98706 77.84323 77.98706h292.31354c70.59344 0 79.78033-7.27652 77.84323-77.98706v-146.01294-146.01294c0-70.737067-7.24979-77.98706-77.84323-77.98706z" filter="url(#filter4346)" opacity=".1" transform="matrix(.5 0 0 .5 -14.116488 -20.825537)"/>
  <path d="m141.84323 74c-70.59344 0-78.18921 7.250835-77.84323 77.98706v146.01294 146.01294c-.34598 70.73623 7.24979 77.98706 77.84323 77.98706h292.31354c70.59344 0 79.78033-7.27652 77.84323-77.98706v-146.01294-146.01294c0-70.737067-7.24979-77.98706-77.84323-77.98706z" fill="url(#linearGradient4358)" filter="url(#filter4380)" opacity=".3" transform="matrix(.5 0 0 .5 -14.116488 -20.825235)"/>
  <path d="m55.695112 13.174464c-36.098811 0-39.983003 3.690159-39.806081 39.689839v74.310167 74.31016c-.176922 35.99969 3.70727 39.68984 39.806081 39.68984h148.387318c36.09881 0 40.77464-3.70276 39.80608-39.68984v-74.31016-74.310167c0-36.00011-3.70727-39.689839-39.80608-39.689839z" opacity=".2"/>
  <path d="m202.95649 15.174464c35.29673 0 39.09461 3.625419 38.92162 38.993529v73.006477 73.00647c.17299 35.36812-3.62489 38.99353-38.92162 38.99353h-146.156758c-35.296716 0-38.921616-3.625-38.921616-38.99353v-73.00647-73.006477c0-35.36853 3.6249-38.993529 38.921616-38.993529z" fill="#c01c28"/>
  <path d="m56.805392 15.174464c-35.296728 0-39.09487 3.626029-38.92188 38.994139v2c-.17299-35.36811 3.625152-38.99414 38.92188-38.99414h146.156238c35.29673 0 38.92188 3.62561 38.92188 38.99414v-2c0-35.36853-3.62515-38.994139-38.92188-38.994139z" fill="#fff" opacity=".3"/>
  <path d="m56.810792 239.17447c-35.296731 0-39.094875-3.62603-38.921885-38.99414v-2c-.17299 35.36811 3.625154 38.99414 38.921885 38.99414h146.156238c35.29673 0 38.92188-3.62561 38.92188-38.99414v2c0 35.36853-3.62515 38.99414-38.92188 38.99414z" opacity=".2"/>
  <path d="m366.2712 121.55471c3.616-1.26006 11.09513.41502 12.47556 7.49588 4.63655-5.80086 6.69785-13.07274-2.24221-19.84221-2.87335-2.16935-6.19151-3.67557-9.71594-4.40935-6.79827-1.39816-10.87113-1.32308-16.44134 1.64184s-9.80751 9.29329-10.464 13.79077c-1.06264 7.29944 1.98179 22.04923 12.70621 30.86572 10.95064 10.92529 28.37956 11.6955 34.37685 11.0235 28.92454-3.2443 49.37351-28.38523 28.39925-52.91248-7.35877-8.08394-19.05206-12.609235-28.39925-16.902644-16.91815-7.771565-32.69636-12.720486-41.85057-20.576975-8.84184-7.587442-11.68221-17.650946-10.46276-28.66091 1.11335-10.060303 7.26941-18.635068 14.19913-24.250573 15.69525-12.722702 38.92847-12.3972869 62.77609-1.469784l13.45206-2.939568c1.68714.5088 2.93957 1.98523 3.73735 4.409352.33329 1.679507-1.74227 3.30806-1.49514 4.887136 6.09428 19.871991 1.00308 33.883554-11.95691 37.735613l-3.73736-1.469783c4.45465-9.188181 4.46228-18.000484 0-26.456111-9.81341-11.66498-20.77389-17.2987-32.88146-16.901408-37.79321 1.236922-35.75949 39.246259-5.23273 47.76687 4.66215 2.326153 27.61155 10.200365 35.1249 13.820794 10.28997 4.958029 17.51433 10.149903 21.67286 15.575131 12.26042 20.29464 11.32454 45.83163-5.23151 61.73119-16.36405 15.71421-50.00269 17.19827-76.22815 8.08394l-12.70399 2.20455c-2.33945-.13243-3.82573-.85957-4.48443-2.20455l-.74708-12.49329c-12.39827-26.7013 3.84344-52.387195 26.15728-53.647255 11.66006-.65896 25.88134 6.046765 29.89242 16.167625 4.0384 10.18929-3.808 23.60148-10.46178 26.45514-6.65501 2.85563-18.29292-2.43323-16.44258-11.02228.74363-3.45182 3.28492-6.47729 6.20923-7.49588z" fill="#f6f5f4" stroke-width="2.461537" transform="translate(-252.74576 37.966102)"/>
</svg>
