<svg height="256" width="256" xmlns="http://www.w3.org/2000/svg" xmlns:xlink="http://www.w3.org/1999/xlink">
  <filter id="filter2359" color-interpolation-filters="sRGB" height="1.024" width="1.024" x="-.01" y="-.01">
    <feGaussianBlur stdDeviation="1.14"/>
  </filter>
  <filter id="filter2433" color-interpolation-filters="sRGB" height="1.096" width="1.096" x="-.05" y="-.05">
    <feGaussianBlur stdDeviation="4.56"/>
  </filter>
  <g fill="#050b0e">
    <path d="m75.296871 14.55499c-34.19899 0-61.85266 27.681337-61.85266 61.836376 0 10.55171 2.67588 20.76141 7.33458 29.462214-1.54416 7.36772-2.39519 14.86669-2.39519 22.68235 0 60.19558 48.83281 109.02673 109.124449 109.02673 7.78204 0 15.31862-.82444 22.65304-2.36812 8.73746 4.72293 18.8185 7.36125 29.42883 7.36125 34.20065 0 61.85429-27.67808 61.85429-61.83801 0-10.62174-2.67587-20.76139-7.36966-29.49719 1.54407-7.33265 2.3688-14.86672 2.3688-22.64737 0-60.160544-48.83281-109.02673-109.05117-109.02673-7.81712 0-15.35365.789396-22.68805 2.368231-8.703239-4.657475-18.915399-7.367712-29.470359-7.367712" filter="url(#filter2433)" opacity=".1"/>
    <path d="m75.296871 14.55499c-34.19899 0-61.85266 27.681337-61.85266 61.836376 0 10.55171 2.67588 20.76141 7.33458 29.462214-1.54416 7.36772-2.39519 14.86669-2.39519 22.68235 0 60.19558 48.83281 109.02673 109.124449 109.02673 7.78204 0 15.31862-.82444 22.65304-2.36812 8.73746 4.72293 18.8185 7.36125 29.42883 7.36125 34.20065 0 61.85429-27.67808 61.85429-61.83801 0-10.62174-2.67587-20.76139-7.36966-29.49719 1.54407-7.33265 2.3688-14.86672 2.3688-22.64737 0-60.160544-48.83281-109.02673-109.05117-109.02673-7.81712 0-15.35365.789396-22.68805 2.368231-8.703239-4.657475-18.915399-7.367712-29.470359-7.367712" filter="url(#filter2359)" opacity=".1"/>
    <path d="m75.296871 14.55499c-34.19899 0-61.85266 27.681337-61.85266 61.836376 0 10.55171 2.67588 20.76141 7.33458 29.462214-1.54416 7.36772-2.39519 14.86669-2.39519 22.68235 0 60.19558 48.83281 109.02673 109.124449 109.02673 7.78204 0 15.31862-.82444 22.65304-2.36812 8.73746 4.72293 18.8185 7.36125 29.42883 7.36125 34.20065 0 61.85429-27.67808 61.85429-61.83801 0-10.62174-2.67587-20.76139-7.36966-29.49719 1.54407-7.33265 2.3688-14.86672 2.3688-22.64737 0-60.160544-48.83281-109.02673-109.05117-109.02673-7.81712 0-15.35365.789396-22.68805 2.368231-8.703239-4.657475-18.915399-7.367712-29.470359-7.367712" opacity=".1"/>
  </g>
  <path d="m76.211741 16.554998c-33.59901 0-60.76753 27.1957-60.76753 60.751528 0 10.36659 2.62893 20.39718 7.2059 28.945334-1.51707 7.23846-2.35317 14.60587-2.35317 22.28442 0 59.13951 47.9761 107.11398 107.209989 107.11398 7.64552 0 15.04988-.80998 22.25562-2.32658 8.58418 4.64008 18.48835 7.23211 28.91254 7.23211 33.60063 0 60.76913-27.1925 60.76913-60.75313 0-10.4354-2.62893-20.39716-7.24037-28.9797 1.51698-7.20401 2.32724-14.6059 2.32724-22.25005 0-59.105094-47.97609-107.113982-107.13799-107.113982-7.67998 0-15.08429.775547-22.29002 2.326683-8.550549-4.575765-18.583549-7.238454-28.953339-7.238454" fill="#2fa4ff"/>
  <path d="m125.46978 64.550679c31.57739 0 47.87369 16.681917 47.87369 26.472507 0 9.823384-4.70041 11.293014-12.45063 11.293014-15.06108 0-8.89616-18.151554-37.10709-18.151554-9.33538 0-20.9972 4.27056-20.9972 15.17949 0 8.769764 10.3282 11.995424 28.55973 16.494694 27.48052 7.36014 48.09691 14.70427 48.09691 39.93677 0 24.49643-19.94436 36.77667-51.52896 36.77667-31.577399 0-51.744959-18.88678-51.744959-28.67735 0-9.79056 3.71637-12.24822 11.4666-12.24822 15.085089 0 13.052249 20.60119 41.262369 20.60119 9.36817 0 23.19323-4.27057 23.19323-15.21231 0-8.73694-.73194-11.76657-20.74519-17.16349-21.37638-2.90407-55.905039-9.85619-55.905039-36.52867 0-24.495674 18.48835-38.751941 50.064949-38.751941" fill="#fff"/>
  <path d="m76.149891 16.546613.0625.0078c-33.59901 0-60.76757 27.196126-60.76758 60.751951 0 .41629.0111.83097.01954 1.2461.40515-33.206712 27.40219-59.998051 60.74804-59.998051l-.0625-.0078c10.36979 0 20.40258 2.662516 28.953129 7.238281 7.20573-1.551136 14.61103-2.326172 22.29101-2.326172 58.82391 0 106.5792 47.463354 107.12306 106.103518.003-.33045.0137-.65887.0137-.99023 0-59.105094-47.97483-107.113288-107.13673-107.113288-7.67998 0-15.08528.775036-22.29101 2.326172-8.550549-4.575765-18.583339-7.238281-28.953129-7.238281zm-53.78515 91.152347c-1.33103 6.77395-2.06836 13.66988-2.06836 20.83789 0 .34612.01039.68982.01367 1.03516.06716-7.33056.88663-14.38654 2.33984-21.32031-.09764-.18236-.18929-.36905-.28515-.55274zm210.124999 43.67578c-.095.48282-.18386.96623-.28515 1.44727 4.42968 8.24426 7.0226 17.76312 7.2207 27.75.003-.25734.0195-.51144.0195-.76953 0-10.21385-2.52422-19.97049-6.95508-28.42774z" fill="#fff" opacity=".3"/>
  <path d="m15.464351 76.552476c-.0031.25209-.01954.50108-.01954.7539 0 10.14545 2.52224 19.9654 6.91993 28.392584.0948-.48247.18429-.96599.28515-1.44726-4.39317-8.204894-6.98394-17.776604-7.18554-27.699224zm219.052739 51.009764c-.067 7.29278-.86128 14.36804-2.3125 21.25977.0979.18221.18904.36928.28515.55273 1.32718-6.74781 2.04102-13.66901 2.04102-20.80273 0-.33767-.0105-.67283-.0137-1.00977zm-214.207039.01c-.0029.32212-.01367.64163-.01367.96484 0 59.13951 47.97704 107.11328 107.210929 107.11328 7.64553 0 15.05012-.80957 22.25586-2.32617 8.58418 4.64008 18.48793 7.23242 28.91212 7.23242 33.60063 0 60.76953-27.19327 60.76953-60.7539 0-.41131-.0114-.8207-.0195-1.23047-.41345 33.20411-27.40777 59.98437-60.75 59.98437-10.42419 0-20.32794-2.59234-28.91212-7.23242-7.20574 1.5166-14.61033 2.32617-22.25586 2.32617-58.887219 0-106.640239-47.4159-107.197259-106.07812z" opacity=".2"/>
</svg>
