<svg enable-background="new" height="256" viewBox="0 0 256 256" width="256" xmlns="http://www.w3.org/2000/svg" xmlns:xlink="http://www.w3.org/1999/xlink"><filter id="a" color-interpolation-filters="sRGB" height="1.024" width="1.024" x="-.01" y="-.01"><feGaussianBlur stdDeviation="1.12"/></filter><filter id="b" color-interpolation-filters="sRGB" height="1.096" width="1.096" x="-.05" y="-.05"><feGaussianBlur stdDeviation="4.48"/></filter><linearGradient id="c" gradientUnits="userSpaceOnUse" x1="12.2800922695" x2="107.2798382305" xlink:href="#d" y1="51.4152693285" y2="51.4152693285"/><linearGradient id="d"><stop offset="0" stop-color="#2be8c9"/><stop offset="1" stop-color="#fff"/></linearGradient><linearGradient id="e" gradientUnits="userSpaceOnUse" x1="145.57515" x2="190.577364" xlink:href="#d" y1="108.0422712" y2="173.0454692"/><circle cx="128.752" cy="127.248" filter="url(#b)" opacity=".1" r="112"/><circle cx="128.752" cy="125.248" filter="url(#a)" opacity=".1" r="112"/><circle cx="128.752" cy="123.248" opacity=".1" r="114"/><circle cx="-128.752" cy="-123.248" fill="#3c5771" r="112" transform="scale(-1)"/><path d="m128.752 11.248007a112 112 0 0 0 -112 111.999993 112 112 0 0 0 .04102 1.16992 112 112 0 0 1 111.95898-111.169913 112 112 0 0 1 111.95898 110.830073 112 112 0 0 0 .041-.83008 112 112 0 0 0 -112-111.999993z" fill="#fff" opacity=".3"/><path d="m128.752 235.248a112 112 0 0 1 -112-112 112 112 0 0 1 .04102-1.16992 112 112 0 0 0 111.95898 111.16992 112 112 0 0 0 111.95898-110.83008 112 112 0 0 1 .041.83008 112 112 0 0 1 -112 112z" opacity=".2"/><g enable-background="new" transform="matrix(4.2931454 0 0 4.2931454 -13.543252 -1006.613)"><path d="m30.453262 91.060333a44.782093 44.782092 0 0 1 -15.45539-33.843461 44.782093 44.782092 0 0 1 44.782095-44.782098 44.782093 44.782092 0 0 1 44.782093 44.782098 44.782093 44.782092 0 0 1 -15.453791 33.842084" fill="none" stroke="url(#c)" stroke-width="5.435812" transform="matrix(.49037779 0 0 .49037779 3.829987 234.97387)"/><path d="m125.57422 68.255859v64.787111l1.71875 1.25c.12172-.52367.8457-3.64453.8457-3.64453l43.13867 33.7207a60.002949 60.002949 0 0 0 12.29883-36.21094 60.002949 60.002949 0 0 0 -58.00195-59.902341z" fill="url(#e)" opacity=".3" transform="matrix(.26457031 0 0 .26457031 -.078443 229.06261)"/><g fill="#fff" transform="matrix(.52338117 0 0 .52338117 -.623135 228.37096)"><path d="m65.518735 29.4668v6h-2v-6z" fill="#fff"/><path d="m66.816055 28.13496v6h-2v-6z" fill="#fff" transform="matrix(.70786839 .70634435 -.70634435 .70786839 63.245127 -26.684109)"/><path d="m65.614881 28.283085.411849 5.985849-1.995283.137283-.411849-5.985849z" fill="#529be0" transform="matrix(-.77795657 .62831805 -.62831805 -.77795657 158.410872 73.584699)"/><g fill="#fff" transform="matrix(-1 0 0 -1 128.769908 130.66774)"><path d="m91.389269 39.983398-4.461137 4.012262-1.33742-1.487046 4.461137-4.012262z" fill="#529be0"/><g fill="#fff"><g transform="matrix(.0090636 .99995892 -.99995892 .0090636 126.292311 .27419)"><path d="m65.058689 26.005739-.06351 5.999664-1.999888-.02117.06351-5.999664z"/><path d="m64.448825 93.288828-.06351 5.999664-1.999888-.02117.06351-5.999664z"/></g><path d="m66.167865 28.910898v6h-2v-6z" transform="matrix(-.72704722 .68658746 -.68658746 -.72704722 156.566762 67.55645)"/></g></g></g><circle cx="33.78079127983" cy="263.30986021736" opacity=".3" r="2.61714626523" stroke-width=".49037779"/><path d="m34.522122 263.24701s6.029364 4.69649 7.887039 6.38851c1.857672 1.69202 3.444006 3.52287 3.444006 3.52287s-2.095281-1.08637-4.337872-2.60272c-2.24259-1.51635-8.912353-6.75657-8.912353-6.75657l1.261927-1.39337z" fill="#2ddab8"/><circle cx="33.411" cy="263.529" r="2.617"/><path d="m94.375 200.70508c-1.672257 0-2.953832.3421-3.845703 1.02734-.891871.68525-1.337891 1.66409-1.337891 2.9375 0 1.01645.319096 1.82424.957032 2.42383.644129.59958 1.659521 1.03645 3.046874 1.31055l1.384766.2832c.842323.17131 1.402931.36504 1.681641.58203.284903.21699.427734.52605.427734.92578 0 .44541-.208079.78751-.623047 1.02735-.414968.23983-1.012582.35937-1.792968.35937-.768 0-1.56655-.10722-2.396485-.32422-.823742-.22271-1.678776-.55234-2.564453-.98633v2.78516c.885677.30265 1.770573.52941 2.65625.68359.885678.15419 1.768955.23243 2.648438.23243 1.864257 0 3.248086-.34209 4.152343-1.02735.910453-.69095 1.365239-1.74187 1.365239-3.15234 0-1.07355-.324291-1.90191-.974614-2.48438-.650321-.58245-1.746868-1.01721-3.289062-1.30273l-1.523438-.2832c-.724644-.13705-1.227148-.29789-1.505859-.48633-.272516-.19415-.408203-.46403-.408203-.80664 0-.45683.204507-.79276.613281-1.00977.408774-.21699 1.039821-.32617 1.894531-.32617.644128 0 1.330042.08033 2.054688.24023.724644.15989 1.466708.39687 2.228515.71094v-2.70703c-.860904-.21126-1.692886-.3679-2.498047-.4707-.805161-.10851-1.589756-.16211-2.351562-.16211zm41.82617 0c-2.31019 0-4.14199.5956-5.49219 1.78906-1.35019 1.18776-2.02343 2.80335-2.02343 4.84766 0 2.0386.67324 3.65613 2.02343 4.84961 1.3502 1.18776 3.182 1.78125 5.49219 1.78125.7742 0 1.51626-.08034 2.22852-.24024.71226-.15988 1.39622-.39687 2.05273-.71094v-2.64648c-.66271.41685-1.31485.72185-1.95898.91602-.64413.19415-1.3229.29101-2.03516.29101-1.27587 0-2.27892-.37709-3.00976-1.13086s-1.09571-1.79027-1.09571-3.10937c0-1.32481.36487-2.36342 1.09571-3.11719s1.73389-1.13086 3.00976-1.13086c.71226 0 1.39103.09685 2.03516.29102.64413.19415 1.29627.49916 1.95898.91601v-2.64648c-.65651-.31407-1.34047-.55105-2.05273-.71094s-1.45432-.23828-2.22852-.23828zm-34.57031.23047v2.49218h4.60742v10.29688h3.57813v-10.29688h4.59765v-2.49218zm16.62109 0-5.13867 12.78906h3.5957l.88282-2.33008h5.59375l.87304 2.33008h3.59571l-5.13868-12.78906zm25.20508 0v12.78906h9.85547v-2.49414h-6.2793v-2.92774h5.71289v-2.49414h-5.71289v-2.38086h6.07618v-2.49218zm13.00586 0v12.78906h3.57617v-4.83984h1.01367c.5822 0 1.04574.11744 1.39258.35156.35303.23413.70037.67099 1.04102 1.31055l1.6914 3.17773h3.8086l-1.94141-3.63281c-.39638-.73664-.78949-1.28478-1.17969-1.64453-.384-.36545-.82125-.60032-1.31054-.70313.89187-.25697 1.5583-.65478 1.99804-1.19726.44594-.54249.66797-1.23691.66797-2.08204 0-1.22202-.42654-2.11631-1.28125-2.68164-.84851-.56532-2.18657-.84765-4.01367-.84765zm3.57617 2.39062h1.50586c.74942 0 1.28536.12374 1.60742.375.32826.25126.49219.66949.49219 1.25195 0 .58817-.16393 1.01062-.49219 1.26758-.32206.25696-.858.38477-1.60742.38477h-1.50586zm-39.65039.60742 1.89453 5.08789h-3.79882z" fill="#fff" transform="matrix(.2329294502 0 0 .23292945001 3.15462238769 234.46981282156)"/></g></svg>