<?xml version="1.0" encoding="UTF-8" standalone="no"?>
<svg
   xmlns:osb="http://www.openswatchbook.org/uri/2009/osb"
   xmlns:dc="http://purl.org/dc/elements/1.1/"
   xmlns:cc="http://creativecommons.org/ns#"
   xmlns:rdf="http://www.w3.org/1999/02/22-rdf-syntax-ns#"
   xmlns:svg="http://www.w3.org/2000/svg"
   xmlns="http://www.w3.org/2000/svg"
   xmlns:sodipodi="http://sodipodi.sourceforge.net/DTD/sodipodi-0.dtd"
   xmlns:inkscape="http://www.inkscape.org/namespaces/inkscape"
   height="16"
   id="svg7384"
   version="1.1"
   width="16"
   sodipodi:docname="document.svg"
   inkscape:version="0.92.3 (2405546, 2018-03-11)">
  <sodipodi:namedview
     pagecolor="#ffffff"
     bordercolor="#666666"
     borderopacity="1"
     objecttolerance="10"
     gridtolerance="10"
     guidetolerance="10"
     inkscape:pageopacity="0"
     inkscape:pageshadow="2"
     inkscape:window-width="1920"
     inkscape:window-height="1009"
     id="namedview22"
     showgrid="false"
     inkscape:zoom="14.75"
     inkscape:cx="-28.305085"
     inkscape:cy="8"
     inkscape:window-x="0"
     inkscape:window-y="34"
     inkscape:window-maximized="1"
     inkscape:current-layer="g1833" />
  <metadata
     id="metadata20854">
    <rdf:RDF>
      <cc:Work
         rdf:about="">
        <dc:title />
        <dc:format>image/svg+xml</dc:format>
        <dc:type
           rdf:resource="http://purl.org/dc/dcmitype/StillImage" />
      </cc:Work>
    </rdf:RDF>
  </metadata>
  <defs
     id="defs7386">
    <linearGradient
       id="linearGradient5606"
       osb:paint="solid">
      <stop
         id="stop5608"
         offset="0"
         style="stop-color:#000000;stop-opacity:1;" />
    </linearGradient>
    <linearGradient
       id="linearGradient4526"
       osb:paint="solid">
      <stop
         id="stop4528"
         offset="0"
         style="stop-color:#ffffff;stop-opacity:1;" />
    </linearGradient>
    <linearGradient
       id="linearGradient3600-4"
       osb:paint="gradient">
      <stop
         id="stop3602-7"
         offset="0"
         style="stop-color:#f4f4f4;stop-opacity:1" />
      <stop
         id="stop3604-6"
         offset="1"
         style="stop-color:#dbdbdb;stop-opacity:1" />
    </linearGradient>
  </defs>
  <g
     id="layer9"
     label="status"
     style="display:inline"
     transform="translate(-753.00024,207)" />
  <g
     id="layer2"
     style="display:inline"
     transform="translate(-512.00004,-160)" />
  <g
     id="layer4"
     style="display:inline"
     transform="translate(-512.00004,-160)" />
  <g
     id="g1812"
     style="display:inline"
     transform="translate(-512.00004,-160)" />
  <g
     id="g6217"
     style="display:inline"
     transform="translate(-512.00004,-160)" />
  <g
     id="layer3"
     style="display:inline"
     transform="translate(-512.00004,-160)" />
  <g
     id="g1833"
     style="display:inline"
     transform="translate(-512.00004,-160)">
    <path
       style="color:#000000;font-style:normal;font-variant:normal;font-weight:normal;font-stretch:normal;font-size:medium;line-height:normal;font-family:sans-serif;font-variant-ligatures:normal;font-variant-position:normal;font-variant-caps:normal;font-variant-numeric:normal;font-variant-alternates:normal;font-feature-settings:normal;text-indent:0;text-align:start;text-decoration:none;text-decoration-line:none;text-decoration-style:solid;text-decoration-color:#000000;letter-spacing:normal;word-spacing:normal;text-transform:none;writing-mode:lr-tb;direction:ltr;text-orientation:mixed;dominant-baseline:auto;baseline-shift:baseline;text-anchor:start;white-space:normal;shape-padding:0;clip-rule:nonzero;display:inline;overflow:visible;visibility:visible;opacity:1;isolation:auto;mix-blend-mode:normal;color-interpolation:sRGB;color-interpolation-filters:linearRGB;solid-color:#000000;solid-opacity:1;vector-effect:none;fill:#808080;fill-opacity:1;fill-rule:nonzero;stroke:none;stroke-width:1.00000012;stroke-linecap:butt;stroke-linejoin:miter;stroke-miterlimit:4;stroke-dasharray:none;stroke-dashoffset:0;stroke-opacity:1;marker:none;color-rendering:auto;image-rendering:auto;shape-rendering:auto;text-rendering:auto;enable-background:accumulate"
       d="M 4.9941406 0 C 3.7359406 0.0145 2.81525 -0.030604375 2.0625 0.38476562 C 1.68613 0.59242563 1.3892694 0.9441525 1.2246094 1.3828125 C 1.0599394 1.8214825 1 2.34239 1 3 L 1 13 C 1 13.65761 1.0598994 14.178578 1.2246094 14.617188 C 1.3892894 15.055798 1.68614 15.405711 2.0625 15.613281 C 2.81522 16.028421 3.7360406 15.98493 4.9941406 16 L 4.9960938 16 L 10.001953 16 L 10.005859 16 C 11.264049 15.9855 12.18475 16.030604 12.9375 15.615234 C 13.31387 15.407574 13.610731 15.055847 13.775391 14.617188 C 13.939921 14.178517 14 13.65761 14 13 L 14 3 C 14 2.34239 13.940101 1.8214225 13.775391 1.3828125 C 13.610711 0.9442025 13.31386 0.59428875 12.9375 0.38671875 C 12.18478 -0.02841125 11.263949 0.01507 10.005859 0 L 10.003906 0 L 4.9980469 0 L 4.9941406 0 z M 5 1 L 10 1 C 11.25862 1.0152 12.089098 1.0598988 12.455078 1.2617188 C 12.638498 1.3628787 12.742304 1.474575 12.839844 1.734375 C 12.937254 1.994165 13 2.40761 13 3 L 13 13 C 13 13.59239 12.937404 14.005725 12.839844 14.265625 C 12.742244 14.525535 12.638488 14.637091 12.455078 14.738281 C 12.089118 14.940201 11.25852 14.98529 10 15 L 5.0058594 15 L 5 15 C 3.74137 14.9848 2.9109019 14.940101 2.5449219 14.738281 C 2.3615019 14.637121 2.2576962 14.525425 2.1601562 14.265625 C 2.0626062 14.005835 2 13.59239 2 13 L 2 3 C 2 2.40761 2.0625962 1.994275 2.1601562 1.734375 C 2.2577563 1.474465 2.363465 1.3629088 2.546875 1.2617188 C 2.912825 1.0598088 3.74148 1.0147 5 1 z M 3.5 3.6191406 L 3.5 4.6191406 L 11.5 4.6191406 L 11.5 3.6191406 L 3.5 3.6191406 z M 3.5 5.6191406 L 3.5 6.6191406 L 11.5 6.6191406 L 11.5 5.6191406 L 3.5 5.6191406 z M 3.5 7.6191406 L 3.5 8.6191406 L 11.5 8.6191406 L 11.5 7.6191406 L 3.5 7.6191406 z M 3.5 9.6191406 L 3.5 10.619141 L 6.5 10.619141 L 6.5 9.6191406 L 3.5 9.6191406 z "
       transform="translate(512.00004,160)"
       id="path2732-8" />
  </g>
  <g
     id="layer1"
     style="display:inline"
     transform="translate(-512.00004,-160)" />
</svg>
