<?xml version="1.0" encoding="UTF-8" standalone="no"?>
<svg
   xmlns:dc="http://purl.org/dc/elements/1.1/"
   xmlns:cc="http://creativecommons.org/ns#"
   xmlns:rdf="http://www.w3.org/1999/02/22-rdf-syntax-ns#"
   xmlns:svg="http://www.w3.org/2000/svg"
   xmlns="http://www.w3.org/2000/svg"
   xmlns:sodipodi="http://sodipodi.sourceforge.net/DTD/sodipodi-0.dtd"
   xmlns:inkscape="http://www.inkscape.org/namespaces/inkscape"
   width="16"
   height="16"
   version="1.1"
   id="svg6"
   sodipodi:docname="text-x-c++.svg"
   inkscape:version="0.92.3 (2405546, 2018-03-11)">
  <metadata
     id="metadata12">
    <rdf:RDF>
      <cc:Work
         rdf:about="">
        <dc:format>image/svg+xml</dc:format>
        <dc:type
           rdf:resource="http://purl.org/dc/dcmitype/StillImage" />
      </cc:Work>
    </rdf:RDF>
  </metadata>
  <defs
     id="defs10" />
  <sodipodi:namedview
     pagecolor="#ffffff"
     bordercolor="#666666"
     borderopacity="1"
     objecttolerance="10"
     gridtolerance="10"
     guidetolerance="10"
     inkscape:pageopacity="0"
     inkscape:pageshadow="2"
     inkscape:window-width="1737"
     inkscape:window-height="998"
     id="namedview8"
     showgrid="false"
     inkscape:zoom="14.75"
     inkscape:cx="-11.79661"
     inkscape:cy="8"
     inkscape:window-x="0"
     inkscape:window-y="34"
     inkscape:window-maximized="0"
     inkscape:current-layer="svg6" />
  <path
     inkscape:connector-curvature="0"
     d="M 2,3.999998 H 4 V 5 H 2 C 2,5 1.000001,5 1.000001,5.999997 v 3 C 1.000001,9.999998 2,9.999998 2,9.999998 H 4 V 11 H 2 C 2,11 0,11 0,8.999997 v -3 C 0,3.999998 2,3.999998 2,3.999998 Z M 7,5 h 1 v 1.999998 h 2 V 8 H 8 V 9.999998 H 7 V 8 H 5 V 6.999998 h 2 z m 6,0 h 1.000001 V 6.999998 H 16 V 8 H 14.000001 V 9.999998 H 13 V 8 H 11 V 6.999998 h 2 z"
     style="fill:#808080;fill-opacity:1;stroke-width:0.47244096"
     id="path29" />
</svg>
