<?xml version="1.0" encoding="UTF-8" standalone="no"?>
<svg
   xmlns:dc="http://purl.org/dc/elements/1.1/"
   xmlns:cc="http://creativecommons.org/ns#"
   xmlns:rdf="http://www.w3.org/1999/02/22-rdf-syntax-ns#"
   xmlns:svg="http://www.w3.org/2000/svg"
   xmlns="http://www.w3.org/2000/svg"
   xmlns:xlink="http://www.w3.org/1999/xlink"
   xmlns:sodipodi="http://sodipodi.sourceforge.net/DTD/sodipodi-0.dtd"
   xmlns:inkscape="http://www.inkscape.org/namespaces/inkscape"
   height="48"
   viewBox="0 0 12.699375 12.699375"
   width="48"
   version="1.1"
   id="svg47"
   sodipodi:docname="aptdaemon-cleanup.svg"
   inkscape:version="0.92.5 (2060ec1f9f, 2020-04-08)">
  <metadata
     id="metadata53">
    <rdf:RDF>
      <cc:Work
         rdf:about="">
        <dc:format>image/svg+xml</dc:format>
        <dc:type
           rdf:resource="http://purl.org/dc/dcmitype/StillImage" />
        <dc:title></dc:title>
      </cc:Work>
    </rdf:RDF>
  </metadata>
  <defs
     id="defs51">
    <clipPath
       clipPathUnits="userSpaceOnUse"
       id="clipPath994">
      <path
         style="color:#000000;display:inline;overflow:visible;visibility:visible;fill:#cdcdcd;fill-opacity:1;fill-rule:nonzero;stroke:none;stroke-width:2;stroke-miterlimit:4;stroke-dasharray:none;stroke-opacity:1;marker:none;enable-background:accumulate"
         d="m 335.73108,62 c -8.82418,0 -9.77365,0.90635 -9.7304,9.74838 V 84 96.25162 c -0.0433,8.84203 0.90622,9.74838 9.7304,9.74838 h 16.53919 c 8.82418,0 9.7304,-0.90625 9.7304,-9.74838 V 84 71.74838 C 362.00067,62.90625 361.09445,62 352.27027,62 Z"
         id="path996"
         inkscape:connector-curvature="0"
         sodipodi:nodetypes="scccssscsss" />
    </clipPath>
    <linearGradient
       inkscape:collect="always"
       xlink:href="#linearGradient927"
       id="linearGradient1004"
       x1="344"
       y1="62"
       x2="344"
       y2="106"
       gradientUnits="userSpaceOnUse" />
    <linearGradient
       inkscape:collect="always"
       id="linearGradient927">
      <stop
         style="stop-color:#ffffff;stop-opacity:1;"
         offset="0"
         id="stop923" />
      <stop
         id="stop933"
         offset="0.125"
         style="stop-color:#ffffff;stop-opacity:0.09803922" />
      <stop
         id="stop931"
         offset="0.92500001"
         style="stop-color:#ffffff;stop-opacity:0.09803922" />
      <stop
         style="stop-color:#ffffff;stop-opacity:0.49803922"
         offset="1"
         id="stop925" />
    </linearGradient>
    <clipPath
       clipPathUnits="userSpaceOnUse"
       id="clipPath994-3">
      <path
         style="color:#000000;display:inline;overflow:visible;visibility:visible;fill:#cdcdcd;fill-opacity:1;fill-rule:nonzero;stroke:none;stroke-width:2;stroke-miterlimit:4;stroke-dasharray:none;stroke-opacity:1;marker:none;enable-background:accumulate"
         d="m 335.73108,62 c -8.82418,0 -9.77365,0.90635 -9.7304,9.74838 V 84 96.25162 c -0.0433,8.84203 0.90622,9.74838 9.7304,9.74838 h 16.53919 c 8.82418,0 9.7304,-0.90625 9.7304,-9.74838 V 84 71.74838 C 362.00067,62.90625 361.09445,62 352.27027,62 Z"
         id="path996-6"
         inkscape:connector-curvature="0"
         sodipodi:nodetypes="scccssscsss" />
    </clipPath>
    <linearGradient
       inkscape:collect="always"
       xlink:href="#linearGradient4235"
       id="linearGradient1015"
       gradientUnits="userSpaceOnUse"
       gradientTransform="matrix(0.02480347,0,0,0.03307129,0.13265204,-0.52919066)"
       x1="256"
       y1="24.000002"
       x2="256"
       y2="664" />
    <linearGradient
       inkscape:collect="always"
       id="linearGradient4235">
      <stop
         style="stop-color:#f1e2a7;stop-opacity:1;"
         offset="0"
         id="stop4237" />
      <stop
         style="stop-color:#f9f1d2;stop-opacity:1"
         offset="1"
         id="stop4239" />
    </linearGradient>
    <linearGradient
       inkscape:collect="always"
       xlink:href="#linearGradient4338"
       id="linearGradient951"
       gradientUnits="userSpaceOnUse"
       gradientTransform="matrix(0,-0.02931931,-0.02918021,0,15.624205,13.331992)"
       x1="512"
       y1="397.99393"
       x2="-1.0000001e-06"
       y2="125.99394" />
    <linearGradient
       inkscape:collect="always"
       id="linearGradient4338">
      <stop
         style="stop-color:#ea9d60;stop-opacity:1"
         offset="0"
         id="stop4340" />
      <stop
         style="stop-color:#efbe94;stop-opacity:1"
         offset="1"
         id="stop4342" />
    </linearGradient>
  </defs>
  <sodipodi:namedview
     pagecolor="#ffffff"
     bordercolor="#666666"
     borderopacity="1"
     objecttolerance="10"
     gridtolerance="10"
     guidetolerance="10"
     inkscape:pageopacity="0"
     inkscape:pageshadow="2"
     inkscape:window-width="792"
     inkscape:window-height="668"
     id="namedview49"
     showgrid="false"
     inkscape:zoom="10.270833"
     inkscape:cx="24"
     inkscape:cy="24"
     inkscape:window-x="0"
     inkscape:window-y="27"
     inkscape:window-maximized="0"
     inkscape:current-layer="svg47" />
  <linearGradient
     id="a"
     gradientTransform="matrix(0,-0.11988932,-0.11988589,0,67.016455,292.54831)"
     gradientUnits="userSpaceOnUse"
     x1="529.65503"
     x2="-35.310001"
     y1="401.58401"
     y2="119.093">
    <stop
       offset="0"
       stop-color="#76c22b"
       id="stop2" />
    <stop
       offset="1"
       stop-color="#a6d74f"
       id="stop4" />
  </linearGradient>
  <linearGradient
     id="b"
     gradientUnits="userSpaceOnUse"
     x1="88"
     x2="488"
     y1="88"
     y2="488">
    <stop
       offset="0"
       stop-opacity=".588235"
       id="stop7" />
    <stop
       offset=".88"
       stop-opacity="0"
       id="stop9" />
    <stop
       offset="1"
       id="stop11" />
  </linearGradient>
  <filter
     id="c"
     height="1.022"
     width="1.026"
     x="-0.0099999998"
     y="-0.0099999998"
     style="color-interpolation-filters:sRGB">
    <feGaussianBlur
       stdDeviation="2.12"
       id="feGaussianBlur14" />
  </filter>
  <path
     style="color:#000000;font-style:normal;font-variant:normal;font-weight:normal;font-stretch:normal;font-size:medium;line-height:normal;font-family:sans-serif;font-variant-ligatures:normal;font-variant-position:normal;font-variant-caps:normal;font-variant-numeric:normal;font-variant-alternates:normal;font-feature-settings:normal;text-indent:0;text-align:start;text-decoration:none;text-decoration-line:none;text-decoration-style:solid;text-decoration-color:#000000;letter-spacing:normal;word-spacing:normal;text-transform:none;writing-mode:lr-tb;direction:ltr;text-orientation:mixed;dominant-baseline:auto;baseline-shift:baseline;text-anchor:start;white-space:normal;shape-padding:0;clip-rule:nonzero;display:inline;overflow:visible;visibility:visible;opacity:0.1;isolation:auto;mix-blend-mode:normal;color-interpolation:sRGB;color-interpolation-filters:linearRGB;solid-color:#000000;solid-opacity:1;vector-effect:none;fill:#000000;fill-opacity:1;fill-rule:nonzero;stroke:none;stroke-width:0.52914065;stroke-linecap:butt;stroke-linejoin:miter;stroke-miterlimit:4;stroke-dasharray:none;stroke-dashoffset:0;stroke-opacity:1;marker:none;color-rendering:auto;image-rendering:auto;shape-rendering:auto;text-rendering:auto;enable-background:accumulate"
     d="m 4.1621981,0.1322475 c -0.5881821,0 -1.0513178,0.0135407 -1.4323995,0.0775109 C 2.3487141,0.2737273 2.0368757,0.39371387 1.808451,0.62159913 1.5800289,0.84948465 1.4594669,1.1611826 1.3960944,1.5424279 1.3327219,1.9236734 1.3203506,2.3878202 1.3232344,2.9774117 v 3.3722257 3.3738384 c -0.00286,0.5886852 0.00955,1.0525972 0.07286,1.4334342 0.063373,0.381246 0.1839345,0.692944 0.4123566,0.920829 0.2284247,0.227885 0.5402631,0.347873 0.9213476,0.411841 0.3810844,0.06397 0.8442174,0.07751 1.4323995,0.07751 h 4.6402538 c 0.5881848,0 1.0510743,-0.01352 1.4313701,-0.07751 0.380294,-0.064 0.69118,-0.18439 0.918761,-0.412357 0.227583,-0.227967 0.347431,-0.539443 0.411322,-0.920313 0.06389,-0.380869 0.07751,-0.844074 0.07751,-1.4334342 V 6.3496374 2.9758616 c 0,-0.5893605 -0.01363,-1.0525644 -0.07751,-1.4334337 C 11.500015,1.1615588 11.380164,0.85008364 11.15258,0.62211583 10.924999,0.39414829 10.614113,0.27375504 10.23382,0.2097584 9.8535262,0.1457615 9.390634,0.1322475 8.8024519,0.1322475 Z"
     id="path1020"
     inkscape:connector-curvature="0"
     sodipodi:nodetypes="sccsccccccsscccscsccsss" />
  <path
     style="color:#000000;display:inline;overflow:visible;visibility:visible;fill:url(#linearGradient951);fill-opacity:1;fill-rule:nonzero;stroke:none;stroke-width:0.26457033;marker:none;enable-background:accumulate"
     d="m 4.352202,0.13223506 c -0.572599,0 -1.0238792,0.0137973 -1.3946507,0.0763314 C 2.5863247,0.27117626 2.2829843,0.38842537 2.0604833,0.61145418 1.8379453,0.83452346 1.7207221,1.1386396 1.6589926,1.5117594 1.5973477,1.8843755 1.5852463,2.3383133 1.5880534,2.9150425 v 3.1700246 3.1710355 c -0.00278,0.576132 0.00934,1.0299144 0.070939,1.4022714 0.06173,0.373121 0.17895,0.677237 0.4014907,0.900307 0.2225036,0.223027 0.5258388,0.340277 0.897068,0.402888 0.3707715,0.06253 0.8220517,0.07633 1.3946507,0.07633 h 4.2604313 c 0.5725963,0 1.0231436,-0.01376 1.3931429,-0.07633 0.370417,-0.06263 0.673257,-0.17966 0.895055,-0.402888 0.221723,-0.223149 0.338248,-0.527535 0.400485,-0.900307 0.06218,-0.372414 0.07547,-0.8258735 0.07547,-1.4022714 V 6.0850671 2.9140315 c 0,-0.5763981 -0.01328,-1.0298595 -0.07547,-1.4022721 C 11.239076,1.1389888 11.122554,0.83460389 10.900831,0.61145418 10.679033,0.38822774 10.376193,0.27119638 10.005776,0.20856651 9.6357767,0.14600651 9.1852294,0.13223511 8.6126331,0.13223511 Z"
     id="path949"
     inkscape:connector-curvature="0" />
  <rect
     y="0.26452026"
     x="5.9531975"
     height="11.641094"
     width="1.0582813"
     id="rect1013"
     style="color:#000000;display:inline;overflow:visible;visibility:visible;opacity:0.6;fill:url(#linearGradient1015);fill-opacity:1;fill-rule:nonzero;stroke:none;stroke-width:4.23312521;stroke-linecap:butt;stroke-linejoin:miter;stroke-miterlimit:4;stroke-dasharray:none;stroke-dashoffset:0;stroke-opacity:1;marker:none;enable-background:accumulate" />
  <path
     style="color:#000000;display:inline;overflow:visible;visibility:visible;opacity:1;fill:#e2965b;fill-opacity:1;fill-rule:nonzero;stroke:none;stroke-width:4.23312521;stroke-linecap:butt;stroke-linejoin:miter;stroke-miterlimit:4;stroke-dasharray:none;stroke-dashoffset:0;stroke-opacity:1;marker:none;enable-background:accumulate"
     d="M 7.8051911,8.4661999 V 8.7307702 H 10.715465 V 8.4661999 Z m 0,0.5291406 V 9.2599108 H 10.715465 V 8.9953405 Z m 0,0.5291406 V 9.7890514 H 9.6571833 V 9.5244811 Z"
     id="path1002"
     inkscape:connector-curvature="0"
     sodipodi:nodetypes="ccccccccccccccc" />
  <rect
     y="8.2016287"
     x="2.2492137"
     height="2.1165626"
     width="2.9102736"
     id="rect1004"
     style="color:#000000;display:inline;overflow:visible;visibility:visible;opacity:1;fill:#f9f9f9;fill-opacity:1;fill-rule:nonzero;stroke:none;stroke-width:4.23312473;stroke-linecap:butt;stroke-linejoin:miter;stroke-miterlimit:4;stroke-dasharray:none;stroke-dashoffset:0;stroke-opacity:1;marker:none;enable-background:accumulate" />
  <path
     style="color:#000000;display:inline;overflow:visible;visibility:visible;opacity:1;fill:#5d5d5d;fill-opacity:1;fill-rule:nonzero;stroke:none;stroke-width:4.23312521;stroke-linecap:butt;stroke-linejoin:miter;stroke-miterlimit:4;stroke-dasharray:none;stroke-dashoffset:0;stroke-opacity:1;marker:none;enable-background:accumulate"
     d="M 2.5137848,8.7307702 V 9.7890514 H 2.7783552 V 8.7307702 Z m 0.5291407,0 V 9.7890514 H 3.1752106 V 8.7307702 Z m 0.3968554,0 V 9.7890514 H 3.5720661 V 8.7307702 Z m 0.3968555,0 V 9.7890514 H 4.1012067 V 8.7307702 Z m 0.5291407,0 V 9.7890514 H 4.4980622 V 8.7307702 Z m 0.3968554,0 V 9.7890514 H 4.8949177 V 8.7307702 Z"
     id="path1006"
     inkscape:connector-curvature="0"
     sodipodi:nodetypes="cccccccccccccccccccccccccccccc" />
  <rect
     ry="2.9102736"
     rx="2.9102736"
     y="-9.3925076"
     x="-7.6724887"
     height="5.8205471"
     width="5.8205471"
     id="rect896"
     style="display:inline;opacity:0.2;fill:#000000;fill-opacity:1;stroke:none;stroke-width:0.2771689;stroke-opacity:0.25098039;enable-background:new"
     transform="matrix(0,-1,-1,0,0,0)" />
  <rect
     transform="matrix(0,-1,-1,0,0,0)"
     style="display:inline;fill:#3eb34f;fill-opacity:1;stroke:none;stroke-width:0.2771689;stroke-opacity:0.25098039;enable-background:new"
     id="rect4410"
     width="5.8205471"
     height="5.8205471"
     x="-7.4079185"
     y="-9.3925076"
     rx="2.9102736"
     ry="2.9102736" />
  <path
     style="color:#000000;display:inline;overflow:visible;visibility:visible;opacity:0.07999998;fill:#ffffff;fill-opacity:1;fill-rule:nonzero;stroke:none;stroke-width:0.26457033;marker:none;enable-background:accumulate"
     d="M 6.6148999,0.39680537 V 12.0379 H 8.802772 c 2.334616,0 2.574394,-0.23968 2.574394,-2.5790448 v -3.241503 -3.241503 c 0,-2.33936508 -0.239778,-2.57904383 -2.574394,-2.57904383 z"
     id="path1013"
     inkscape:connector-curvature="0" />
  <path
     style="display:inline;fill:#ffffff;fill-opacity:1;stroke:none;stroke-width:0.26457033;enable-background:new"
     d="m 6.2158273,2.9102233 c 0.053062,0.00966 0.1109767,0.057856 0.139918,0.096446 L 6.8236749,3.8171015 6.5825138,3.9618162 H 7.3832544 L 7.7836207,3.2672186 7.537565,3.4070387 7.2916072,2.9728894 C 7.2674784,2.9294761 7.219242,2.9102233 7.1661771,2.9102233 Z M 5.9397349,2.9590709 C 5.8167256,2.963304 5.6973065,3.0090747 5.6466572,3.0983196 L 5.2800659,3.7399449 5.9842621,4.1499125 6.4329046,3.3684617 6.2544069,3.0694311 C 6.1892856,2.992248 6.0627443,2.954851 5.9397349,2.9590709 Z M 7.8462868,3.9522202 7.1371961,4.3573885 7.5858385,5.1243461 H 7.9669177 C 8.1212812,5.0954048 8.3528384,4.8445471 8.2177726,4.5840591 Z M 4.7059986,4.121024 4.9616502,4.270538 4.7976458,4.5454821 C 4.6529311,4.8156164 4.8940949,5.1135649 5.0388095,5.1292407 H 5.4150894 L 5.670741,4.6854001 5.926398,4.8253182 5.5164304,4.1210267 Z M 7.0069719,4.9458511 6.5969064,5.6501452 7.0069719,6.3496374 V 6.0554087 h 0.5017073 c 0.057888,0 0.096439,-0.033767 0.1157363,-0.07236 L 8.0778546,5.1823108 c -0.024129,0.014472 -0.038574,0.038527 -0.1302268,0.048173 H 7.0069719 Z M 4.9230733,5.1919068 c 0.019287,0.024129 0.014445,0.01934 0.4389459,0.7718521 0.028944,0.043416 0.067569,0.096473 0.1206308,0.09165 H 6.384729 V 5.2304838 H 5.0437014 c -0.072357,0 -0.097714,-0.019287 -0.1206281,-0.038577 z"
     id="path1019"
     inkscape:connector-curvature="0" />
  <path
     style="color:#000000;display:inline;overflow:visible;visibility:visible;opacity:0.4;fill:none;fill-opacity:1;fill-rule:nonzero;stroke:#000000;stroke-width:0.26457033;stroke-miterlimit:4;stroke-dasharray:none;stroke-opacity:1;marker:none;enable-background:accumulate"
     d="m 4.1623595,0.1322475 c -2.1778211,0 -2.5858176,0.2397933 -2.5743749,2.5791319 V 6.0850671 9.4588174 C 1.5765286,11.798157 1.9845384,12.03795 4.1623595,12.03795 h 4.6402908 c 2.1772787,0 2.5743727,-0.239767 2.5743727,-2.5791326 V 6.0850671 2.7113794 c 0,-2.33936506 -0.397094,-2.5791319 -2.5743753,-2.5791319 z"
     id="path958"
     inkscape:connector-curvature="0"
     sodipodi:nodetypes="scccssscsss" />
  <path
     transform="matrix(0.26457031,0,0,0.26457031,-84.529952,-16.138838)"
     sodipodi:nodetypes="scccssscsss"
     inkscape:connector-curvature="0"
     id="path990"
     d="m 335.73108,62 c -8.82418,0 -9.77365,0.90635 -9.7304,9.74838 V 84 96.25162 c -0.0433,8.84203 0.90622,9.74838 9.7304,9.74838 h 16.53919 c 8.82418,0 9.7304,-0.90625 9.7304,-9.74838 V 84 71.74838 C 362.00067,62.90625 361.09445,62 352.27027,62 Z"
     style="color:#000000;display:inline;overflow:visible;visibility:visible;opacity:0.7;fill:none;fill-opacity:1;fill-rule:nonzero;stroke:url(#linearGradient1004);stroke-width:2;stroke-miterlimit:4;stroke-dasharray:none;stroke-opacity:1;marker:none;enable-background:accumulate"
     clip-path="url(#clipPath994-3)" />
</svg>
