<?xml version="1.0" encoding="UTF-8" standalone="no"?>
<svg
   xmlns:dc="http://purl.org/dc/elements/1.1/"
   xmlns:cc="http://creativecommons.org/ns#"
   xmlns:rdf="http://www.w3.org/1999/02/22-rdf-syntax-ns#"
   xmlns:svg="http://www.w3.org/2000/svg"
   xmlns="http://www.w3.org/2000/svg"
   xmlns:sodipodi="http://sodipodi.sourceforge.net/DTD/sodipodi-0.dtd"
   xmlns:inkscape="http://www.inkscape.org/namespaces/inkscape"
   enable-background="new"
   height="48"
   viewBox="0 0 48 48"
   width="48"
   version="1.1"
   id="svg17"
   sodipodi:docname="dialog-information.svg"
   inkscape:version="0.92.5 (2060ec1f9f, 2020-04-08)">
  <metadata
     id="metadata23">
    <rdf:RDF>
      <cc:Work
         rdf:about="">
        <dc:format>image/svg+xml</dc:format>
        <dc:type
           rdf:resource="http://purl.org/dc/dcmitype/StillImage" />
        <dc:title></dc:title>
      </cc:Work>
    </rdf:RDF>
  </metadata>
  <defs
     id="defs21" />
  <sodipodi:namedview
     pagecolor="#ffffff"
     bordercolor="#666666"
     borderopacity="1"
     objecttolerance="10"
     gridtolerance="10"
     guidetolerance="10"
     inkscape:pageopacity="0"
     inkscape:pageshadow="2"
     inkscape:window-width="1233"
     inkscape:window-height="921"
     id="namedview19"
     showgrid="false"
     inkscape:zoom="4.9166667"
     inkscape:cx="24"
     inkscape:cy="24"
     inkscape:window-x="428"
     inkscape:window-y="96"
     inkscape:window-maximized="0"
     inkscape:current-layer="svg17" />
  <linearGradient
     id="a"
     gradientTransform="matrix(.96587929 0 0 .9658796 -.022211 -238.84391)"
     gradientUnits="userSpaceOnUse"
     x1="13.735326"
     x2="38.099998"
     y1="249.69423"
     y2="292.76666">
    <stop
       offset="0"
       stop-color="#1a7fd4"
       id="stop2" />
    <stop
       offset="1"
       stop-color="#37a6e6"
       id="stop4" />
  </linearGradient>
  <circle
     cx="24"
     cy="24"
     fill="url(#a)"
     r="23"
     id="circle7" />
  <path
     d="m24 1a23 23 0 0 0 -23 23 23 23 0 0 0 .0410156 1.181641 23 23 0 0 1 22.9589844-22.181641 23 23 0 0 1 22.958984 21.818359 23 23 0 0 0 .041016-.818359 23 23 0 0 0 -23-23z"
     fill="#fbfdff"
     opacity=".3"
     id="path13" />
  <path
     d="m24.000001 47a23 23 0 0 0 22.999999-22.999999 23 23 0 0 0 -.041015-1.181641 23 23 0 0 1 -22.958984 22.18164 23 23 0 0 1 -22.9589848-21.818359 23 23 0 0 0 -.041016.81836 23 23 0 0 0 23.0000008 22.999999z"
     opacity=".2"
     id="path15" />
  <path
     inkscape:connector-curvature="0"
     style="fill:#ffffff;stroke-width:0.20708656"
     d="m 23.453102,9.1184932 0.003,0.003 c -1.322194,1.19e-4 -2.572887,0.151497 -3.752075,0.453419 -1.070532,0.280374 -2.018892,0.6630748 -2.894979,1.1056008 l 0.894868,2.475355 c 1.706346,-0.866153 3.456581,-1.340318 5.248245,-1.340318 1.506322,0 2.701214,0.398179 3.523882,1.219686 0.811773,0.782723 1.222958,1.827398 1.222958,3.065745 0,0.772099 -0.180666,1.494761 -0.539168,2.152714 -0.320496,0.639593 -0.7407,1.248765 -1.259271,1.82499 -0.507917,0.564348 -1.043215,1.128547 -1.607,1.692361 l -0.0022,0.0022 -0.0059,0.0022 c -0.549438,0.521964 -1.071313,1.099558 -1.56738,1.733404 l -0.0022,0.0022 -0.001,0.0022 c -0.487921,0.596317 -0.89353,1.246355 -1.219322,1.951425 -0.290016,0.687631 -0.438899,1.45699 -0.438899,2.318023 0,0.516428 0.05988,1.000833 0.140247,1.473628 h 2.696605 c -0.0022,-0.05774 -0.01489,-0.10953 -0.01489,-0.169653 v -0.462876 c 0,-0.961188 0.190784,-1.834899 0.57551,-2.606493 0.37383,-0.776413 0.835107,-1.482736 1.382462,-2.117475 l 0.0022,-0.0022 c 10e-4,-10e-4 10e-4,-0.0021 0.0022,-0.006 0.540178,-0.653371 1.13715,-1.277099 1.789361,-1.872549 0.634799,-0.579617 1.213732,-1.186797 1.737066,-1.820285 0.51768,-0.626644 0.95199,-1.293351 1.305791,-2.000088 v -10e-4 c 0.343173,-0.713108 0.517737,-1.520744 0.517737,-2.435739 0,-0.724089 -0.119947,-1.479789 -0.364782,-2.267872 l -0.0022,-0.0059 -0.001,-0.006 c -0.211934,-0.794929 -0.606184,-1.507561 -1.19354,-2.148342 -0.58182,-0.634711 -1.368831,-1.157361 -2.373949,-1.5648548 l -0.006,-0.0022 -0.0059,-0.0022 C 26.287284,9.3395952 25.023164,9.1172312 23.453994,9.1171422 Z M 22.783849,33.833723 c -0.805777,0 -1.393091,0.246145 -1.841696,0.744447 -0.460665,0.511877 -0.681598,1.088635 -0.681598,1.780313 0,0.691648 0.221053,1.26954 0.681598,1.781385 0.448606,0.498452 1.03592,0.74299 1.841696,0.74299 0.805839,0 1.394148,-0.244657 1.842776,-0.74299 0.460623,-0.511845 0.681616,-1.089737 0.681616,-1.781385 0,-0.691678 -0.220845,-1.268436 -0.681616,-1.780313 -0.448628,-0.498451 -1.036937,-0.744447 -1.842776,-0.744447 z"
     id="path4" />
</svg>
