<?xml version="1.0" encoding="UTF-8" standalone="no"?>
<!-- Created with Inkscape (http://www.inkscape.org/) -->

<svg
   xmlns:dc="http://purl.org/dc/elements/1.1/"
   xmlns:cc="http://creativecommons.org/ns#"
   xmlns:rdf="http://www.w3.org/1999/02/22-rdf-syntax-ns#"
   xmlns:svg="http://www.w3.org/2000/svg"
   xmlns="http://www.w3.org/2000/svg"
   xmlns:xlink="http://www.w3.org/1999/xlink"
   xmlns:sodipodi="http://sodipodi.sourceforge.net/DTD/sodipodi-0.dtd"
   xmlns:inkscape="http://www.inkscape.org/namespaces/inkscape"
   width="48"
   height="48"
   viewBox="0 0 12.7 12.7"
   version="1.1"
   id="svg986"
   inkscape:version="0.92.4 (5da689c313, 2019-01-14)"
   sodipodi:docname="4.svg">
  <defs
     id="defs980">
    <clipPath
       clipPathUnits="userSpaceOnUse"
       id="clipPath994">
      <path
         style="color:#000000;display:inline;overflow:visible;visibility:visible;fill:#cdcdcd;fill-opacity:1;fill-rule:nonzero;stroke:none;stroke-width:2;stroke-miterlimit:4;stroke-dasharray:none;stroke-opacity:1;marker:none;enable-background:accumulate"
         d="m 335.73108,62 c -8.82418,0 -9.77365,0.90635 -9.7304,9.74838 V 84 96.25162 c -0.0433,8.84203 0.90622,9.74838 9.7304,9.74838 h 16.53919 c 8.82418,0 9.7304,-0.90625 9.7304,-9.74838 V 84 71.74838 C 362.00067,62.90625 361.09445,62 352.27027,62 Z"
         id="path996"
         inkscape:connector-curvature="0"
         sodipodi:nodetypes="scccssscsss" />
    </clipPath>
    <linearGradient
       inkscape:collect="always"
       xlink:href="#linearGradient927"
       id="linearGradient995"
       gradientUnits="userSpaceOnUse"
       x1="344"
       y1="62"
       x2="344"
       y2="106" />
    <linearGradient
       inkscape:collect="always"
       id="linearGradient927">
      <stop
         style="stop-color:#ffffff;stop-opacity:1;"
         offset="0"
         id="stop923" />
      <stop
         id="stop933"
         offset="0.125"
         style="stop-color:#ffffff;stop-opacity:0.09803922" />
      <stop
         id="stop931"
         offset="0.92500001"
         style="stop-color:#ffffff;stop-opacity:0.09803922" />
      <stop
         style="stop-color:#ffffff;stop-opacity:0.49803922"
         offset="1"
         id="stop925" />
    </linearGradient>
    <clipPath
       clipPathUnits="userSpaceOnUse"
       id="clipPath994-5">
      <path
         style="color:#000000;display:inline;overflow:visible;visibility:visible;fill:#cdcdcd;fill-opacity:1;fill-rule:nonzero;stroke:none;stroke-width:2;stroke-miterlimit:4;stroke-dasharray:none;stroke-opacity:1;marker:none;enable-background:accumulate"
         d="m 335.73108,62 c -8.82418,0 -9.77365,0.90635 -9.7304,9.74838 V 84 96.25162 c -0.0433,8.84203 0.90622,9.74838 9.7304,9.74838 h 16.53919 c 8.82418,0 9.7304,-0.90625 9.7304,-9.74838 V 84 71.74838 C 362.00067,62.90625 361.09445,62 352.27027,62 Z"
         id="path996-3"
         inkscape:connector-curvature="0"
         sodipodi:nodetypes="scccssscsss" />
    </clipPath>
    <linearGradient
       inkscape:collect="always"
       xlink:href="#linearGradient876"
       id="linearGradient999"
       gradientUnits="userSpaceOnUse"
       gradientTransform="matrix(0,-0.02997233,-0.02997147,0,15.740061,297.92606)"
       x1="494.34482"
       y1="313.2872"
       x2="0"
       y2="313.2872" />
    <linearGradient
       inkscape:collect="always"
       id="linearGradient876">
      <stop
         style="stop-color:#b3b3b3;stop-opacity:1"
         offset="0"
         id="stop872" />
      <stop
         style="stop-color:#d9d9d9;stop-opacity:1"
         offset="1"
         id="stop874" />
    </linearGradient>
    <clipPath
       clipPathUnits="userSpaceOnUse"
       id="clipPath1480">
      <path
         style="color:#000000;font-style:normal;font-variant:normal;font-weight:normal;font-stretch:normal;font-size:medium;line-height:normal;font-family:sans-serif;text-indent:0;text-align:start;text-decoration:none;text-decoration-line:none;text-decoration-style:solid;text-decoration-color:#000000;letter-spacing:normal;word-spacing:normal;text-transform:none;writing-mode:lr-tb;direction:ltr;baseline-shift:baseline;text-anchor:start;white-space:normal;clip-rule:nonzero;display:inline;overflow:visible;visibility:visible;opacity:1;isolation:auto;mix-blend-mode:normal;color-interpolation:sRGB;color-interpolation-filters:linearRGB;solid-color:#000000;solid-opacity:1;fill:#1463a5;fill-opacity:1;fill-rule:nonzero;stroke:none;stroke-width:4.00079203;stroke-linecap:butt;stroke-linejoin:miter;stroke-miterlimit:4;stroke-dasharray:none;stroke-dashoffset:0;stroke-opacity:1;marker:none;color-rendering:auto;image-rendering:auto;shape-rendering:auto;text-rendering:auto;enable-background:accumulate"
         d="m 790,59 v 10 c 0,0.74784 0.0973,1.410252 0.25391,1.826172 0.15579,0.41592 0.32634,0.591906 0.61914,0.753906 0.58455,0.32334 1.90484,0.395922 3.91601,0.419922 h 0.0176 4.7793 10.82812 4.77735 0.0176 c 2.01117,-0.024 3.33343,-0.09657 3.91797,-0.419922 0.29281,-0.162 0.4614,-0.337986 0.61719,-0.753906 C 819.90073,70.410252 820,69.74784 820,69 V 59 Z"
         id="path1482"
         inkscape:connector-curvature="0" />
    </clipPath>
  </defs>
  <sodipodi:namedview
     id="base"
     pagecolor="#ffffff"
     bordercolor="#666666"
     borderopacity="1.0"
     inkscape:pageopacity="0.0"
     inkscape:pageshadow="2"
     inkscape:zoom="17.479167"
     inkscape:cx="11.384982"
     inkscape:cy="24"
     inkscape:document-units="px"
     inkscape:current-layer="layer1"
     showgrid="true"
     units="px"
     inkscape:window-width="1920"
     inkscape:window-height="1016"
     inkscape:window-x="0"
     inkscape:window-y="27"
     inkscape:window-maximized="1">
    <inkscape:grid
       type="xygrid"
       id="grid1589" />
  </sodipodi:namedview>
  <metadata
     id="metadata983">
    <rdf:RDF>
      <cc:Work
         rdf:about="">
        <dc:format>image/svg+xml</dc:format>
        <dc:type
           rdf:resource="http://purl.org/dc/dcmitype/StillImage" />
        <dc:title></dc:title>
      </cc:Work>
    </rdf:RDF>
  </metadata>
  <g
     inkscape:label="Livello 1"
     inkscape:groupmode="layer"
     id="layer1"
     transform="translate(0,-284.29998)">
    <path
       sodipodi:nodetypes="sccsccccccsscccscsccsss"
       inkscape:connector-curvature="0"
       id="path1020"
       d="m 4.1624033,284.69689 c -0.5882111,0 -1.0513696,0.0135 -1.4324701,0.0775 -0.3811032,0.064 -0.692957,0.18396 -0.9213929,0.41186 -0.2284334,0.2279 -0.3490013,0.53961 -0.412377,0.92087 -0.063376,0.38127 -0.075747,0.84544 -0.072864,1.43506 v 3.24011 3.24166 c -0.00286,0.58872 0.00955,1.05265 0.072864,1.43351 0.063376,0.38126 0.1839436,0.69297 0.412377,0.92087 0.2284359,0.2279 0.5402897,0.34789 0.9213929,0.41186 0.3811032,0.064 0.844259,0.0775 1.4324701,0.0775 h 4.3759596 c 0.5882108,0 1.0511258,-0.0135 1.4314375,-0.0775 0.3803116,-0.064 0.6912136,-0.1844 0.9188056,-0.41238 0.227594,-0.22797 0.34745,-0.53946 0.411345,-0.92035 0.06389,-0.38089 0.07752,-0.84412 0.07752,-1.43351 v -3.24166 -3.24166 c 0,-0.58939 -0.01363,-1.05262 -0.07752,-1.43351 -0.06389,-0.38088 -0.183751,-0.69238 -0.411345,-0.92035 -0.227592,-0.22798 -0.538494,-0.34838 -0.9188056,-0.41238 -0.3803117,-0.064 -0.8432267,-0.0775 -1.4314375,-0.0775 z"
       style="color:#000000;font-style:normal;font-variant:normal;font-weight:normal;font-stretch:normal;font-size:medium;line-height:normal;font-family:sans-serif;font-variant-ligatures:normal;font-variant-position:normal;font-variant-caps:normal;font-variant-numeric:normal;font-variant-alternates:normal;font-feature-settings:normal;text-indent:0;text-align:start;text-decoration:none;text-decoration-line:none;text-decoration-style:solid;text-decoration-color:#000000;letter-spacing:normal;word-spacing:normal;text-transform:none;writing-mode:lr-tb;direction:ltr;text-orientation:mixed;dominant-baseline:auto;baseline-shift:baseline;text-anchor:start;white-space:normal;shape-padding:0;clip-rule:nonzero;display:inline;overflow:visible;visibility:visible;opacity:0.1;isolation:auto;mix-blend-mode:normal;color-interpolation:sRGB;color-interpolation-filters:linearRGB;solid-color:#000000;solid-opacity:1;vector-effect:none;fill:#000000;fill-opacity:1;fill-rule:nonzero;stroke:none;stroke-width:0.52916664;stroke-linecap:butt;stroke-linejoin:miter;stroke-miterlimit:4;stroke-dasharray:none;stroke-dashoffset:0;stroke-opacity:1;marker:none;color-rendering:auto;image-rendering:auto;shape-rendering:auto;text-rendering:auto;enable-background:accumulate" />
    <path
       inkscape:connector-curvature="0"
       id="path949"
       d="m 8.5380004,284.5646 c 0.5859493,0 1.0443683,0.0145 1.410766,0.076 0.3663976,0.0615 0.6470406,0.17312 0.8495606,0.37517 0.20252,0.20204 0.314272,0.48216 0.375171,0.84852 0.0609,0.36637 0.07419,0.82508 0.07131,1.41232 v 3.24115 3.24166 c 0.0029,0.58693 -0.01042,1.04557 -0.07131,1.4118 -0.0609,0.36637 -0.172648,0.64648 -0.375171,0.84853 -0.202523,0.20204 -0.483161,0.31366 -0.8495606,0.37517 -0.3663977,0.0615 -0.8248167,0.076 -1.410766,0.076 H 4.1620408 c -0.5859463,0 -1.0436596,-0.0144 -1.4092158,-0.076 -0.3655563,-0.0615 -0.6457527,-0.17309 -0.8474949,-0.37517 -0.2017421,-0.20209 -0.313227,-0.48235 -0.3746526,-0.84853 -0.061428,-0.36618 -0.075449,-0.82467 -0.075449,-1.4118 v -3.24166 -3.24167 c 0,-0.58713 0.014023,-1.04562 0.075449,-1.4118 0.061426,-0.36617 0.1729105,-0.64644 0.3746526,-0.84852 0.2017422,-0.20209 0.4819386,-0.31366 0.8474949,-0.37517 0.3655562,-0.0615 0.8232695,-0.076 1.4092158,-0.076 z"
       style="color:#000000;display:inline;overflow:visible;visibility:visible;fill:url(#linearGradient999);fill-opacity:1;fill-rule:nonzero;stroke:none;stroke-width:0.26458332;marker:none;enable-background:accumulate" />
    <path
       inkscape:connector-curvature="0"
       style="color:#000000;display:inline;overflow:visible;visibility:visible;opacity:0.4;fill:none;fill-opacity:1;fill-rule:nonzero;stroke:#000000;stroke-width:0.26458332;stroke-opacity:1;marker:none;enable-background:accumulate"
       d="m 4.1624033,284.5646 c -0.5859489,0 -1.0443687,0.0145 -1.4107663,0.076 -0.3663977,0.0615 -0.6470412,0.17312 -0.8495612,0.37517 -0.2025201,0.20204 -0.3142721,0.48216 -0.3751713,0.84852 -0.060899,0.36637 -0.074187,0.82508 -0.071313,1.41232 v 3.24115 3.24166 c -0.00286,0.58693 0.010425,1.04557 0.071313,1.4118 0.060899,0.36637 0.1726486,0.64648 0.3751713,0.84853 0.2025226,0.20204 0.4831609,0.31366 0.8495612,0.37517 0.3663976,0.0615 0.8248174,0.076 1.4107663,0.076 h 4.3759596 c 0.5859458,0 1.0436598,-0.0144 1.4092155,-0.076 0.3655556,-0.0615 0.6457526,-0.17309 0.8474946,-0.37517 0.201742,-0.20209 0.313227,-0.48235 0.374652,-0.84853 0.06143,-0.36618 0.07545,-0.82467 0.07545,-1.4118 v -3.24166 -3.24167 c 0,-0.58713 -0.01402,-1.04562 -0.07545,-1.4118 -0.06143,-0.36617 -0.17291,-0.64644 -0.374652,-0.84852 -0.201742,-0.20209 -0.481939,-0.31366 -0.8474946,-0.37517 -0.3655557,-0.0615 -0.8232697,-0.076 -1.4092155,-0.076 z"
       id="path901" />
    <path
       clip-path="url(#clipPath994-5)"
       style="color:#000000;display:inline;overflow:visible;visibility:visible;opacity:0.4;fill:none;fill-opacity:1;fill-rule:nonzero;stroke:url(#linearGradient995);stroke-width:2;stroke-miterlimit:4;stroke-dasharray:none;stroke-opacity:1;marker:none;enable-background:accumulate"
       d="m 335.73108,62 c -8.82418,0 -9.77365,0.90635 -9.7304,9.74838 V 84 96.25162 c -0.0433,8.84203 0.90622,9.74838 9.7304,9.74838 h 16.53919 c 8.82418,0 9.7304,-0.90625 9.7304,-9.74838 V 84 71.74838 C 362.00067,62.90625 361.09445,62 352.27027,62 Z"
       id="path990"
       inkscape:connector-curvature="0"
       sodipodi:nodetypes="scccssscsss"
       transform="matrix(0.26458333,0,0,0.26458333,-84.666284,268.29273)" />
    <path
       inkscape:connector-curvature="0"
       id="path993"
       d="m 5.9813131,289.85885 c 0.073475,0.0134 0.1536648,0.0801 0.1937412,0.13355 l 0.6479355,1.12219 -0.3339333,0.20039 h 1.1087709 l 0.5543814,-0.9618 -0.3407092,0.19361 -0.3405743,-0.60116 c -0.033406,-0.0601 -0.100203,-0.0868 -0.1736805,-0.0868 z m -0.3823043,0.0676 c -0.1703256,0.006 -0.3356849,0.0692 -0.405818,0.19282 l -0.507611,0.88845 0.9750875,0.56767 0.6212257,-1.08206 -0.2471631,-0.41406 c -0.09017,-0.10688 -0.2653903,-0.15866 -0.4357211,-0.15282 z m 2.6399728,1.3752 -0.9818661,0.56103 0.6212258,1.06199 h 0.5276744 c 0.2137463,-0.0401 0.5343816,-0.38743 0.3473556,-0.74812 z m -4.3483054,0.23374 0.3539966,0.20703 -0.2270919,0.38071 c -0.2003848,0.37405 0.1335485,0.78661 0.3339333,0.80832 h 0.5210307 l 0.3539967,-0.61458 0.3540019,0.19374 -0.5676741,-0.97522 z m 3.1861204,1.14213 -0.567809,0.97522 0.567809,0.96857 v -0.40741 h 0.6947059 c 0.080156,0 0.1335379,-0.0468 0.1602581,-0.1002 l 0.6278695,-1.10876 c -0.033409,0.02 -0.053414,0.0533 -0.1803241,0.0667 H 7.0767966 Z m -2.8855405,0.3407 c 0.026699,0.0334 0.020002,0.0268 0.6078035,1.06878 0.040076,0.0601 0.093559,0.13358 0.1670341,0.1269 h 1.2490926 v -1.14226 H 4.3582902 c -0.1001924,0 -0.1353053,-0.0267 -0.1670341,-0.0534 z"
       style="display:inline;fill:#28851e;fill-opacity:1;stroke:none;stroke-width:0.26458332;enable-background:new" />
    <path
       sodipodi:nodetypes="cccsccccccccccsccccccc"
       inkscape:connector-curvature="0"
       id="path1484"
       d="m 3.7041667,285.88748 c -0.5331274,0.006 -0.8831527,0.0252 -1.0379207,0.11084 -0.077425,0.0428 -0.1221237,0.0899 -0.1635575,0.19999 -0.041037,0.11004 -0.067437,0.28505 -0.067437,0.48292 0,0.19786 0.026009,0.37287 0.067437,0.48291 0.041219,0.11005 0.086085,0.15713 0.1635549,0.19999 0.1546622,0.0856 0.5042508,0.1045 1.0363728,0.11085 h 0.00466 1.2642612 2.8649454 1.2642612 0.00466 c 0.5321221,-0.006 0.8817106,-0.0253 1.036371,-0.11085 0.07747,-0.0429 0.122338,-0.0899 0.163557,-0.19999 0.04143,-0.11004 0.06743,-0.28505 0.06743,-0.48291 0,-0.19787 -0.02638,-0.37288 -0.06744,-0.48292 -0.04143,-0.11006 -0.08613,-0.15715 -0.163555,-0.19999 -0.1547704,-0.0856 -0.5047959,-0.10465 -1.0379234,-0.11084 H 9.1030425 5.2133765 3.7049419 Z"
       style="color:#000000;font-style:normal;font-variant:normal;font-weight:normal;font-stretch:normal;font-size:medium;line-height:normal;font-family:sans-serif;text-indent:0;text-align:start;text-decoration:none;text-decoration-line:none;text-decoration-style:solid;text-decoration-color:#000000;letter-spacing:normal;word-spacing:normal;text-transform:none;writing-mode:lr-tb;direction:ltr;baseline-shift:baseline;text-anchor:start;white-space:normal;clip-rule:nonzero;display:inline;overflow:visible;visibility:visible;opacity:0.2;isolation:auto;mix-blend-mode:normal;color-interpolation:sRGB;color-interpolation-filters:linearRGB;solid-color:#000000;solid-opacity:1;fill:#ffffff;fill-opacity:1;fill-rule:nonzero;stroke:none;stroke-width:1.05854285;stroke-linecap:butt;stroke-linejoin:miter;stroke-miterlimit:4;stroke-dasharray:none;stroke-dashoffset:0;stroke-opacity:1;marker:none;color-rendering:auto;image-rendering:auto;shape-rendering:auto;text-rendering:auto;enable-background:accumulate" />
    <path
       style="color:#000000;font-style:normal;font-variant:normal;font-weight:normal;font-stretch:normal;font-size:medium;line-height:normal;font-family:sans-serif;text-indent:0;text-align:start;text-decoration:none;text-decoration-line:none;text-decoration-style:solid;text-decoration-color:#000000;letter-spacing:normal;word-spacing:normal;text-transform:none;writing-mode:lr-tb;direction:ltr;baseline-shift:baseline;text-anchor:start;white-space:normal;clip-rule:nonzero;display:inline;overflow:visible;visibility:visible;opacity:0.3;isolation:auto;mix-blend-mode:normal;color-interpolation:sRGB;color-interpolation-filters:linearRGB;solid-color:#000000;solid-opacity:1;fill:#000000;fill-opacity:1;fill-rule:nonzero;stroke:none;stroke-width:1.05854285;stroke-linecap:butt;stroke-linejoin:miter;stroke-miterlimit:4;stroke-dasharray:none;stroke-dashoffset:0;stroke-opacity:1;marker:none;color-rendering:auto;image-rendering:auto;shape-rendering:auto;text-rendering:auto;enable-background:accumulate"
       d="m 3.7041667,285.62289 c -0.5331274,0.006 -0.8831527,0.0253 -1.0379207,0.11085 -0.077425,0.0428 -0.1221237,0.0899 -0.1635575,0.19999 -0.041037,0.11003 -0.067437,0.28505 -0.067437,0.48291 0,0.19787 0.026009,0.37288 0.067437,0.48292 0.041219,0.11005 0.086085,0.15712 0.1635549,0.19999 0.1546622,0.0856 0.5042508,0.10449 1.0363728,0.11084 h 0.00466 1.2642612 2.8649454 1.2642612 0.00466 c 0.5321221,-0.006 0.8817106,-0.0253 1.036371,-0.11084 0.07747,-0.0429 0.122338,-0.0899 0.163557,-0.19999 0.04143,-0.11004 0.06743,-0.28505 0.06743,-0.48292 0,-0.19786 -0.02638,-0.37288 -0.06744,-0.48291 -0.04143,-0.11006 -0.08613,-0.15715 -0.163555,-0.19999 -0.1547704,-0.0856 -0.5047959,-0.10465 -1.0379234,-0.11085 H 9.1030425 5.2133765 3.7049419 Z"
       id="path1246"
       inkscape:connector-curvature="0"
       sodipodi:nodetypes="cccsccccccccccsccccccc" />
    <g
       style="display:inline;enable-background:new"
       id="g1473"
       transform="matrix(0.26458333,0,0,0.26458333,-206.58555,268.16039)"
       clip-path="url(#clipPath1480)">
      <g
         id="g1450">
        <path
           style="color:#000000;display:inline;overflow:visible;visibility:visible;opacity:0.2;fill:none;fill-opacity:1;fill-rule:nonzero;stroke:#000000;stroke-width:2;stroke-miterlimit:4;stroke-dasharray:none;stroke-opacity:1;marker:none;enable-background:accumulate"
           d="m 816.99986,69.865201 c 0,-4.41209 -0.45318,-4.88682 -4.87419,-4.8652 h -6.12581 -8.12581 c -4.42101,-0.0217 -4.87419,0.45311 -4.87419,4.8652 v 8.2696 c 0,4.41209 0.45312,4.8652 4.87419,4.8652 h 8.12581 6.12581 c 4.42106,0 4.87419,-0.45312 4.87419,-4.86521 z"
           id="path4355-2"
           inkscape:connector-curvature="0"
           sodipodi:nodetypes="scccssscsss" />
        <path
           sodipodi:nodetypes="scccssscsss"
           inkscape:connector-curvature="0"
           id="path4357-2"
           d="m 816.99986,69.865201 c 0,-4.41209 -0.45318,-4.88682 -4.87419,-4.8652 h -6.12581 -8.12581 c -4.42101,-0.0217 -4.87419,0.45311 -4.87419,4.8652 v 8.2696 c 0,4.41209 0.45312,4.8652 4.87419,4.8652 h 8.12581 6.12581 c 4.42106,0 4.87419,-0.45312 4.87419,-4.86521 z"
           style="color:#000000;display:inline;overflow:visible;visibility:visible;fill:#ffffff;fill-opacity:1;fill-rule:nonzero;stroke:none;stroke-width:1;marker:none;enable-background:accumulate" />
      </g>
      <g
         transform="rotate(3.1586976,770.2311,93.134065)"
         id="g1456">
        <path
           sodipodi:nodetypes="scccssscsss"
           inkscape:connector-curvature="0"
           id="path1452"
           d="m 818,69.865201 c 0,-4.41209 -0.45318,-4.88682 -4.87419,-4.8652 H 807 798.87419 C 794.45318,64.978301 794,65.453111 794,69.865201 v 8.2696 c 0,4.41209 0.45312,4.8652 4.87419,4.8652 H 807 h 6.12581 c 4.42106,0 4.87419,-0.45312 4.87419,-4.86521 z"
           style="color:#000000;display:inline;overflow:visible;visibility:visible;opacity:0.2;fill:none;fill-opacity:1;fill-rule:nonzero;stroke:#000000;stroke-width:2;stroke-miterlimit:4;stroke-dasharray:none;stroke-opacity:1;marker:none;enable-background:accumulate" />
        <path
           style="color:#000000;display:inline;overflow:visible;visibility:visible;fill:#ffffff;fill-opacity:1;fill-rule:nonzero;stroke:none;stroke-width:1;marker:none;enable-background:accumulate"
           d="m 818,69.865201 c 0,-4.41209 -0.45318,-4.88682 -4.87419,-4.8652 H 807 798.87419 C 794.45318,64.978301 794,65.453111 794,69.865201 v 8.2696 c 0,4.41209 0.45312,4.8652 4.87419,4.8652 H 807 h 6.12581 c 4.42106,0 4.87419,-0.45312 4.87419,-4.86521 z"
           id="path1454"
           inkscape:connector-curvature="0"
           sodipodi:nodetypes="scccssscsss" />
      </g>
      <g
         id="g1462"
         transform="rotate(-4.2193975,858.292,75.999609)">
        <path
           style="color:#000000;display:inline;overflow:visible;visibility:visible;opacity:0.2;fill:none;fill-opacity:1;fill-rule:nonzero;stroke:#000000;stroke-width:2;stroke-miterlimit:4;stroke-dasharray:none;stroke-opacity:1;marker:none;enable-background:accumulate"
           d="m 816,69.865201 c 0,-4.41209 -0.45318,-4.88682 -4.87419,-4.8652 H 805 796.87419 C 792.45318,64.978301 792,65.453111 792,69.865201 v 8.2696 c 0,4.41209 0.45312,4.8652 4.87419,4.8652 H 805 h 6.12581 c 4.42106,0 4.87419,-0.45312 4.87419,-4.86521 z"
           id="path1458"
           inkscape:connector-curvature="0"
           sodipodi:nodetypes="scccssscsss" />
        <path
           sodipodi:nodetypes="scccssscsss"
           inkscape:connector-curvature="0"
           id="path1460"
           d="m 816,69.865201 c 0,-4.41209 -0.45318,-4.88682 -4.87419,-4.8652 H 805 796.87419 C 792.45318,64.978301 792,65.453111 792,69.865201 v 8.2696 c 0,4.41209 0.45312,4.8652 4.87419,4.8652 H 805 h 6.12581 c 4.42106,0 4.87419,-0.45312 4.87419,-4.86521 z"
           style="color:#000000;display:inline;overflow:visible;visibility:visible;fill:#ffffff;fill-opacity:1;fill-rule:nonzero;stroke:none;stroke-width:1;marker:none;enable-background:accumulate" />
      </g>
    </g>
  </g>
</svg>
