<svg height="16" width="16" xmlns="http://www.w3.org/2000/svg">
  <path d="m11 1v2h-1c-1.74 0-2.955.642-3.756 1.582-.8.94-1.216 2.127-1.594 3.26-.377 1.133-.72 2.218-1.246 2.965-.524.747-1.164 1.193-2.404 1.193h-1v1h1c1.511 0 2.559-.679 3.22-1.62.663-.94 1.007-2.105 1.38-3.222.372-1.117.77-2.18 1.406-2.928.637-.747 1.484-1.23 2.994-1.23h1.002v2c.76-.348 1.534-.736 2.322-1.166.781-.43 1.533-.876 2.258-1.334-.725-.45-1.477-.89-2.258-1.32a43.074 43.074 0 0 0 -2.324-1.18zm-11 2v1h1c1.239 0 1.879.446 2.404 1.193.256.364.466.81.66 1.3.151-.405.335-.814.545-1.22a5.886 5.886 0 0 0 -.388-.654c-.662-.939-1.711-1.619-3.221-1.619zm6.21 6.459c-.139.414-.287.823-.478 1.244.153.25.32.49.512.715.8.94 2.016 1.582 3.756 1.582h1.002v2c.76-.348 1.534-.736 2.322-1.166.781-.43 1.533-.876 2.258-1.334-.725-.45-1.477-.89-2.258-1.32a43.074 43.074 0 0 0 -2.324-1.18v2h-1c-1.51 0-2.357-.483-2.994-1.23-.315-.37-.571-.819-.795-1.311z" fill="#f2f2f7"/>
</svg>
