<svg height="16" width="16" xmlns="http://www.w3.org/2000/svg">
  <path d="m7.992 0a2.008 2.008 0 0 0 -1.992 2h-1c-.657 0-1.178.06-1.617.225-.439.164-.79.461-.998.838-.415.752-.37 1.673-.385 2.931v5.012c.015 1.258-.03 2.179.385 2.932.208.376.56.673.998.838.439.164.96.224 1.617.224h3.762a4.5 4.5 0 0 1 -.498-1h-3.264c-.592 0-1.005-.063-1.265-.16-.26-.098-.372-.203-.473-.387-.202-.366-.247-1.194-.262-2.453v-5c.015-1.259.06-2.087.262-2.453.101-.184.213-.29.473-.387.26-.098.673-.16 1.265-.16v.999h6v-.999c.593 0 1.006.063 1.266.16.26.098.371.203.473.387.201.366.247 1.194.261 2.453v2.031a4.5 4.5 0 0 1 1 .233v-2.27c-.015-1.258.031-2.179-.385-2.932a1.88 1.88 0 0 0 -.998-.837c-.438-.165-.96-.225-1.617-.225h-1.004a2.008 2.008 0 0 0 -1.992-2zm.01 1c.559 0 1 .442 1 1a.99.99 0 0 1 -1 1 .982.982 0 0 1 -.922-.61 1.01 1.01 0 0 1 -.077-.39c0-.558.441-1 1-1zm-3.002 5v1h6.012v-1zm0 2v1h4.674a4.5 4.5 0 0 1 1.338-.74v-.26zm-.01 2v1h3v-1z" fill="#f2f2f7"/>
  <path d="m12.5 9a3.5 3.5 0 0 0 -3.5 3.5 3.5 3.5 0 0 0 3.5 3.5 3.5 3.5 0 0 0 3.5-3.5 3.5 3.5 0 0 0 -3.5-3.5zm-.5 1h1v1.168c0 .348-.016.667-.047.957-.03.29-.069.581-.115.875h-.666a12.898 12.898 0 0 1 -.125-.875 9.146 9.146 0 0 1 -.047-.957zm.5 4a.5.5 0 0 1 .5.5.5.5 0 0 1 -.5.5.5.5 0 0 1 -.5-.5.5.5 0 0 1 .5-.5z" fill="#ff453a"/>
</svg>
