<svg height="16" width="16" xmlns="http://www.w3.org/2000/svg">
  <g fill="#f2f2f7">
    <path d="m8.56.084c-1.888.001-3.492 1.165-4.259 2.828l-.055.113-.121.01c-1.745.127-3.125 1.637-3.125 3.473 0 1.919 1.5 3.492 3.357 3.492h8.125c1.392 0 2.518-1.182 2.518-2.615 0-1.087-.653-2-1.578-2.393l-.121-.05-.01-.13c-.119-2.618-2.176-4.726-4.729-4.728zm0 1c2.004.001 3.635 1.652 3.731 3.773v.016l.06.748.677.291v.002c.57.242.973.785.973 1.47 0 .91-.692 1.616-1.518 1.616h-8.123c-1.291 0-2.36-1.095-2.36-2.492 0-1.334.988-2.388 2.198-2.477l.705-.049.305-.648v-.002c.618-1.343 1.872-2.247 3.351-2.248z"/>
    <path d="m8.003 16a1.501 1.501 0 0 1 -1.424-1.972c0-.015.01-.03.014-.045.038-.127.598-1.965 1.412-3.614v.002a27.871 27.871 0 0 1 1.42 3.657 1.501 1.501 0 0 1 -1.425 1.972zm3.997-2a1 1 0 0 1 -.95-1.314c0-.01.01-.02.01-.03.025-.085.4-1.31.941-2.41v.001c.58 1.201.948 2.438.948 2.438a1 1 0 0 1 -.95 1.314zm-8 0a1 1 0 0 1 -.95-1.314c0-.01.01-.02.01-.03.025-.085.4-1.31.941-2.41v.001a18.52 18.52 0 0 1 .948 2.439 1 1 0 0 1 -.95 1.314z"/>
  </g>
</svg>
