<svg height="16" width="16" xmlns="http://www.w3.org/2000/svg">
  <g fill="#f2f2f7">
    <path d="m9.399 6.918c-1.349.002-2.494.832-3.041 2.02l-.04.08-.085.008c-1.247.09-2.233 1.168-2.233 2.48 0 1.37 1.072 2.494 2.4 2.494h5.8c.995 0 1.8-.843 1.8-1.867a1.85 1.85 0 0 0 -1.13-1.71l-.086-.036-.01-.092c-.084-1.87-1.551-3.375-3.374-3.377zm0 1c1.272.002 2.316 1.05 2.378 2.422v.031l.076.705.627.268c.305.13.52.413.52.789 0 .5-.37.867-.799.867h-5.803c-.76 0-1.398-.645-1.398-1.494 0-.81.591-1.432 1.303-1.485l.672-.046.289-.616v-.004c.399-.866 1.193-1.435 2.13-1.437z"/>
    <path d="m9.5 1a3.5 3.5 0 0 0 -3.166 2.018 3.5 3.5 0 0 0 -3.803 3.04 2 2 0 0 0 .47 3.942h.269a3.5 3.25 0 0 1 .71-1h-.982c-.564 0-1-.436-1-1a.99.99 0 0 1 .766-.97l.67-.163.088-.683a2.488 2.488 0 0 1 2.71-2.172l.706.072.3-.643a2.496 2.496 0 0 1 2.26-1.441 2.485 2.485 0 0 1 2.498 2.498v.002c0 .127-.012.253-.033.379l-.16.969.965.18a1.489 1.489 0 0 1 1.229 1.472c0 .84-.66 1.5-1.5 1.5h-.498v1h.5a2.5 2.5 0 0 0 .453-4.957c.03-.18.045-.361.047-.543a3.5 3.5 0 0 0 -3.5-3.5z"/>
  </g>
</svg>
