<svg height="16" width="16" xmlns="http://www.w3.org/2000/svg"><circle cx="8" cy="8" fill="#1a7fd4" r="7.5"/><g fill="none" stroke="#fff" stroke-dashoffset="1" stroke-linejoin="round" stroke-width=".666667" transform="matrix(1.3333333 0 0 1.3333333 2.032397 2.414783)"><ellipse cx="4.456809" cy="2.855579" rx="1.231061" ry="1.333333" stroke-linecap="round"/><path d="m1.9757034 6.8555792c-.028-1.130474.6250003-1.6666676 2.5000014-1.6666676 1.875001 0 2.528008.4941936 2.5000013 1.6666676z"/></g><path d="m8 .5a7.5 7.5 0 0 0 -7.5 7.5 7.5 7.5 0 0 0 .00976562.2871094 7.5 7.5 0 0 1 7.49023438-7.2871094 7.5 7.5 0 0 1 7.490234 7.2128906 7.5 7.5 0 0 0 .009766-.2128906 7.5 7.5 0 0 0 -7.5-7.5z" fill="#fff" opacity=".3"/><path d="m15.490234 7.7128906a7.5 7.5 0 0 1 -7.490234 7.2871094 7.5 7.5 0 0 1 -7.49023438-7.2128906 7.5 7.5 0 0 0 -.00976562.2128906 7.5 7.5 0 0 0 7.5 7.5 7.5 7.5 0 0 0 7.5-7.5 7.5 7.5 0 0 0 -.009766-.2871094z" fill="#060606" opacity=".2"/></svg>