<svg id="svg22" height="16" width="15.999999" xmlns="http://www.w3.org/2000/svg">
  <g id="g855" transform="translate(.000561)">
    <path id="path835" d="m4.5547477.5c-3.6766038 0-4.0721988.30898425-4.0541825 3.3233128v4.1766873 4.1766949c-.018073 3.014321.3775787 3.323305 4.0541825 3.323305h6.8910693c3.676597 0 4.054183-.308942 4.054183-3.323305v-4.1766949-4.1766873c0-3.01435714-.377594-3.3233128-4.05419-3.3233128z" fill="#ededed"/>
    <path id="path839" d="m4.5546875.5c-3.6766038 0-4.0727038.3098902-4.0546875 3.3242188v.5c-.0180163-3.0143287.3780837-3.3242188 4.0546875-3.3242188h6.8906245c3.676597 0 4.054688.3098617 4.054688 3.3242188v-.5c0-3.01435719-.378091-3.3242188-4.054688-3.3242188z" fill="#fff" opacity=".3"/>
    <path id="path841" d="m11.444751 15.5c3.676604 0 4.072704-.30989 4.054688-3.324219v-.5c.018016 3.014329-.378084 3.324219-4.054688 3.324219h-6.8906242c-3.67659703 0-4.05468803-.309862-4.05468803-3.324219v.5c0 3.014357.378091 3.324219 4.05468803 3.324219z" opacity=".2"/>
  </g>
  <g id="g18" enable-background="new" transform="matrix(.0625 0 0 .06495557 -15.647332 -.095624)">
    <g id="g10" enable-background="new">
      <rect id="rect4" fill="#924d8b" height="73.016451" rx="37.636684" ry="35.172624" width="159.999996" x="298.362482" y="47.657664"/>
      <rect id="rect6" fill="#050505" height="64.999998" opacity=".2" rx="32.141846" ry="32.498447" width="64.999998" x="385.491333" y="55.532694"/>
      <rect id="rect8" fill="#f8f7f7" height="64.999998" rx="32.141846" ry="32.498447" width="64.999998" x="385.491333" y="51.66594"/>
    </g>
    <rect id="rect12" fill="#ccc" height="73.016451" rx="37.636684" ry="35.172624" width="159.999996" x="298.362482" y="128.210715"/>
    <rect id="rect14" fill="#050505" height="64.999998" opacity=".2" rx="32.141846" ry="32.498447" width="64.999998" x="307.061961" y="136.609057"/>
    <rect id="rect16" fill="#f8f7f7" height="64.999998" rx="32.141846" ry="32.498447" width="64.999998" x="307.061961" y="132.218991"/>
  </g>
</svg>
