<svg height="16" viewBox="0 0 4.2333332 4.233333" width="16" xmlns="http://www.w3.org/2000/svg" xmlns:xlink="http://www.w3.org/1999/xlink"><linearGradient id="a" gradientTransform="matrix(.01017242 0 0 .01017213 -.397735 291.63717)" gradientUnits="userSpaceOnUse" x1="459.03448" x2="35.310345" y1="419.23337" y2="207.36522"><stop offset="0" stop-color="#fb7c38"/><stop offset="1" stop-color="#9b33ae"/></linearGradient><g transform="translate(0 -292.76669)"><path d="m1.0164426 293.06649c-.20071929-.00085-.35996306.003-.49498936.0254-.1351787.0225-.252727.0668-.34010011.15435-.0873759.0876-.13167068.2056-.15434157.34065-.0215335.12833-.0260209.28077-.0264443.46742-.00002258.01-.00056444.0171-.00056444.027v1.63932c0 .20051.004318.35909.0270086.49388.0226906.13481.0669233.25284.15434157.34011.0874183.0872.20512178.13115.3401001.15378.13497551.0226.29407817.027.49498931.027h1.1002256 1.1002256c.200911 0 .3600137-.004.4949892-.027.1349782-.0226.2526818-.0666.3401001-.15378.087419-.0873.1316566-.2053.1543416-.34011.022691-.13479.027009-.29337.027009-.49388v-1.63932c0-.01-.0005644-.0173-.0005644-.027-.0005644-.18665-.00491-.33909-.026445-.46742-.022662-.13505-.066965-.25308-.1543416-.34065-.087373-.0876-.2049214-.13187-.3401001-.15435-.1351759-.0225-.2945043-.0263-.4955424-.0254h-1.0996718z" fill="url(#a)" stroke-width="1.066666"/><path d="m.89181034 293.06649c-.18192592.00017-.3268046.004-.44525036.0266-.12070917.0222-.21911435.0637-.29137729.1426-.0722855.0789-.11034599.18681-.13062929.31871-.007225.0469-.0118533.0991-.0155504.15406-.00666.0992-.009003.21094-.009003.34217v1.70047c0 .20388.00429.36458.0245534.4966.0202636.13218.058245.24001.13046842.31924.0722347.0792.17087978.12097.29170468.14295.12061886.022.26759162.0265.45425327.0254l.086806.00009v-3.66885z" opacity=".3" stroke-width="1.066666"/><path d="m3.8417969 1.1328125c-.7586242-.0032126-1.3607581.0110417-1.8710938.0957031-.5109116.0850394-.9549271.2530867-1.28515622.5839844-.33023965.3310866-.49829912.7766842-.58398438 1.2871094-.08138646.4850268-.09800912 1.0621292-.09960937 1.7675781-.00008535.0377953-.00195313.0641452-.00195313.1015625v.5c0-.0374173.00186778-.0637672.00195313-.1015625.00160025-.7054489.01822291-1.2825513.09960937-1.7675781.08568526-.5104252.25374473-.9560228.58398438-1.2871094.33022912-.3308977.77424462-.498945 1.28515622-.5839844.5103357-.0846614 1.1124696-.0989157 1.8710938-.0957031h4.1582031 4.15625c.759829-.0034016 1.362146.0106638 1.873047.0957031.510912.0849638.954927.2528978 1.285156.5839844.330242.3309732.498333.7766842.583985 1.2871094.081392.4850268.097476 1.0621292.099609 1.7675781 0 .0366614.001953.0637672.001953.1015625v-.5c0-.0377953-.001953-.0649011-.001953-.1015625-.002133-.7054489-.018217-1.2825513-.099609-1.7675781-.085652-.5104252-.253743-.9561362-.583985-1.2871094-.330229-.3310866-.774244-.4990206-1.285156-.5839844-.510901-.0850393-1.113218-.0991047-1.873047-.0957031h-4.15625z" fill="#fff" opacity=".3" stroke-width="4.031493" transform="matrix(.26458332 0 0 .26458332 0 292.76669)"/><path d="m3.2169016 296.73532c.20072.00085.36004-.003.49506-.0253.13518-.0225.25266-.067.34003-.15451.0874-.0876.13185-.2055.15452-.34055.0215-.12833.0259-.28102.0263-.46767.00002-.01.00052-.017.00052-.0269v-.13229c0 .01-.0005.0169-.00052.0269-.00042.18665-.005.33934-.0263.46767-.0227.13505-.0671.25295-.15452.34055-.0874.0876-.20485.13201-.34003.15451-.13502.0224-.29434.0262-.49506.0253h-1.10019-1.09967c-.20104002.0009-.36040002-.003-.49558002-.0253-.13518-.0225-.25266-.0669-.34003-.15451-.0874-.0876-.13185-.2055-.15451-.34055-.0215-.12833-.0258-.28102-.0264-.46767 0-.01-.00052-.0169-.00052-.0269v.13229c0 .01.00052.0172.00052.0269.00057.18665.005.33934.0264.46767.0227.13505.0671.25298.15451.34055.0874.0876.20485.13203.34003.15451.13518.0225.29454.0262.49558002.0253h1.09967z" opacity=".2" stroke-width="1.066666"/></g></svg>