<?xml version="1.0" encoding="UTF-8" standalone="no"?>
<svg
   xmlns:dc="http://purl.org/dc/elements/1.1/"
   xmlns:cc="http://creativecommons.org/ns#"
   xmlns:rdf="http://www.w3.org/1999/02/22-rdf-syntax-ns#"
   xmlns:svg="http://www.w3.org/2000/svg"
   xmlns="http://www.w3.org/2000/svg"
   xmlns:xlink="http://www.w3.org/1999/xlink"
   xmlns:sodipodi="http://sodipodi.sourceforge.net/DTD/sodipodi-0.dtd"
   xmlns:inkscape="http://www.inkscape.org/namespaces/inkscape"
   height="16"
   width="16"
   version="1.1"
   id="svg48"
   sodipodi:docname="user-home.svg"
   inkscape:version="0.92.4 (5da689c313, 2019-01-14)">
  <metadata
     id="metadata54">
    <rdf:RDF>
      <cc:Work
         rdf:about="">
        <dc:format>image/svg+xml</dc:format>
        <dc:type
           rdf:resource="http://purl.org/dc/dcmitype/StillImage" />
      </cc:Work>
    </rdf:RDF>
  </metadata>
  <defs
     id="defs52">
    <linearGradient
       y2="14.99785"
       x2="16.0024"
       y1="5.99785"
       x1=".0024"
       gradientUnits="userSpaceOnUse"
       id="linearGradient924"
       xlink:href="#a-3"
       inkscape:collect="always" />
  </defs>
  <sodipodi:namedview
     pagecolor="#ffffff"
     bordercolor="#666666"
     borderopacity="1"
     objecttolerance="10"
     gridtolerance="10"
     guidetolerance="10"
     inkscape:pageopacity="0"
     inkscape:pageshadow="2"
     inkscape:window-width="1920"
     inkscape:window-height="1016"
     id="namedview50"
     showgrid="false"
     inkscape:zoom="39.748379"
     inkscape:cx="11.326219"
     inkscape:cy="6.4772264"
     inkscape:window-x="0"
     inkscape:window-y="27"
     inkscape:window-maximized="1"
     inkscape:current-layer="svg48" />
  <linearGradient
     id="a"
     gradientUnits="userSpaceOnUse"
     x1=".0025"
     x2="16.0025"
     y1="2.99785"
     y2="14.99785">
    <stop
       offset="0"
       stop-color="#666"
       id="stop2" />
    <stop
       offset="1"
       stop-color="#7a7a7a"
       id="stop4" />
  </linearGradient>
  <linearGradient
     id="b"
     gradientUnits="userSpaceOnUse"
     x1=".09519"
     x2="16.00239"
     y1="16.06079"
     y2="-.00215">
    <stop
       offset="0"
       stop-color="#2c001e"
       id="stop7" />
    <stop
       offset=".10864977"
       stop-color="#2c001e"
       id="stop9" />
    <stop
       offset=".18689813"
       stop-color="#370626"
       id="stop11" />
    <stop
       offset=".2980746"
       stop-color="#55163b"
       id="stop13" />
    <stop
       offset=".37246177"
       stop-color="#772953"
       id="stop15" />
    <stop
       offset=".44700962"
       stop-color="#7c2b51"
       id="stop17" />
    <stop
       offset=".52428877"
       stop-color="#8b314b"
       id="stop19" />
    <stop
       offset=".59614229"
       stop-color="#8b314b"
       id="stop21" />
    <stop
       offset=".66876179"
       stop-color="#a33a41"
       id="stop23" />
    <stop
       offset=".79755175"
       stop-color="#c44732"
       id="stop25" />
    <stop
       offset=".91251218"
       stop-color="#e65524"
       id="stop27" />
    <stop
       offset="1"
       stop-color="#e65524"
       id="stop29" />
  </linearGradient>
  <path
     d="m 3.7336601,0.06846094 c -0.8295013,0 -1.4743965,0.0666544 -2.0016599,0.2228712 C 1.2046302,0.44757007 0.78390725,0.71177767 0.50715795,1.0807767 -0.0463406,1.8187748 0.00101073,2.734639 0.00101073,3.8011102 v 7.5632008 c 0,0.806124 0.0650547,1.433327 0.22075954,1.947558 0.15538486,0.514231 0.41890988,0.924012 0.78108363,1.19353 0.7244539,0.539038 1.6151706,0.493659 2.6329041,0.493659 h 8.72544 c 0.806146,0 1.433338,-0.06548 1.94759,-0.220791 0.514359,-0.155332 0.926017,-0.418921 1.195621,-0.781105 0.539314,-0.724379 0.492283,-1.616856 0.491643,-2.634941 V 4.8675814 c 0,-0.8005679 -0.05226,-1.4270238 -0.189512,-1.9454781 C 15.668965,2.403649 15.427943,1.9798333 15.071208,1.6910756 14.357846,1.1135707 13.434175,1.1349321 12.263403,1.1349321 H 8.2182783 L 7.151807,0.06846094 Z"
     id="path34"
     style="fill:#7e2c50;fill-opacity:1;stroke-width:1.06647122"
     inkscape:connector-curvature="0" />
  <path
     d="M 7.999545,2.734639 6.9330738,3.8011102 H 3.2004245 c -2.31434925,0 -3.18810918,0.1015281 -3.19728083,3.155667 0.0106647,1.0961298 0.0159971,2.1934327 0.0106647,3.2889868 0.0511906,1.0833 -0.0874506,2.210987 0.25616639,3.257739 0.31674199,0.903109 1.23582694,1.517365 2.19746404,1.466398 3.6053126,0.05471 7.2115848,0.02752 10.8167902,-0.02709 0.860429,0.04202 1.80287,-0.284866 2.303791,-1.008157 0.316102,-0.461259 0.467221,-0.993802 0.393635,-1.55179 -0.01173,-2.5213838 0.01066,-5.044516 -0.0128,-7.5652914 -0.09811,-1.380417 -0.594342,-2.0829443 -3.168164,-2.0829443 z"
     id="path36"
     style="fill:#6c6c6c;fill-opacity:1;stroke-width:1.06647122"
     inkscape:connector-curvature="0" />
  <path
     style="fill:#ffffff;fill-opacity:1;stroke-width:1.06647122;opacity:0.3"
     d="M 3.734375 0.068359375 C 2.9048737 0.068359375 2.2596853 0.13479883 1.7324219 0.29101562 C 1.2050519 0.44725356 0.7845618 0.7110791 0.5078125 1.0800781 C 0.0030078098 1.7531511 -0.0010699235 2.5810085 0.001953125 3.5292969 C 0.014580808 2.7871989 0.092688588 2.1335767 0.5078125 1.5800781 C 0.7845618 1.2110791 1.2050519 0.94725356 1.7324219 0.79101562 C 2.2596853 0.63479882 2.9048737 0.56835938 3.734375 0.56835938 L 7.1523438 0.56835938 L 8.21875 1.6347656 L 12.263672 1.6347656 C 13.434444 1.6347656 14.35695 1.6139013 15.070312 2.1914062 C 15.427048 2.4801639 15.669066 2.9034207 15.806641 3.421875 C 15.943893 3.9403293 15.996094 4.5666196 15.996094 5.3671875 L 15.996094 4.8671875 C 15.996094 4.0666196 15.943893 3.4403293 15.806641 2.921875 C 15.669066 2.4034207 15.427048 1.9801639 15.070312 1.6914062 C 14.35695 1.1139013 13.434444 1.1347656 12.263672 1.1347656 L 8.21875 1.1347656 L 7.1523438 0.068359375 L 3.734375 0.068359375 z "
     id="path936" />
  <path
     style="fill:#ffffff;fill-opacity:1;stroke-width:1.06647122;opacity:0.3"
     d="M 8 2.734375 L 6.9335938 3.8007812 L 3.2011719 3.8007812 C 0.88682263 3.8007812 0.0130779 3.9028924 0.00390625 6.9570312 C 0.0054261651 7.1132498 0.0045715099 7.2695235 0.005859375 7.4257812 C 0.021660045 4.4061316 0.8957655 4.3007812 3.2011719 4.3007812 L 6.9335938 4.3007812 L 8 3.234375 L 12.800781 3.234375 C 15.374603 3.234375 15.87064 3.9379424 15.96875 5.3183594 C 15.967577 5.1517207 15.970301 4.9849786 15.96875 4.8183594 C 15.87064 3.4379424 15.374603 2.734375 12.800781 2.734375 L 8 2.734375 z M 15.982422 12.382812 C 15.98292 12.548835 15.981651 12.714851 15.982422 12.880859 C 15.999841 12.717406 16.004766 12.552241 15.982422 12.382812 z "
     id="path941" />
  <path
     style="fill:#000000;fill-opacity:1;stroke-width:1.06647122;opacity:0.2"
     d="M 0.005859375 6.9257812 C 0.0057982505 6.9374724 0.003941622 6.9452525 0.00390625 6.9570312 C 0.01457095 8.053161 0.019004275 9.1505396 0.013671875 10.246094 C 0.064862475 11.329394 -0.07408574 12.457154 0.26953125 13.503906 C 0.58627324 14.407015 1.5051598 15.02167 2.4667969 14.970703 C 6.0721095 15.025413 9.6799508 14.997969 13.285156 14.943359 C 14.145585 14.985379 15.08697 14.658838 15.587891 13.935547 C 15.903993 13.474288 16.056008 12.9408 15.982422 12.382812 C 15.942414 12.757516 15.80793 13.114464 15.587891 13.435547 C 15.08697 14.158838 14.145585 14.485379 13.285156 14.443359 C 9.6799508 14.497969 6.0721095 14.525413 2.4667969 14.470703 C 1.5051598 14.52167 0.58627324 13.907015 0.26953125 13.003906 C -0.07408574 11.957154 0.064862475 10.829394 0.013671875 9.7460938 C 0.01824431 8.806676 0.013607998 7.8659283 0.005859375 6.9257812 z "
     id="path951" />
</svg>
