<svg height="16" viewBox="0 0 4.233125 4.233125" width="16" xmlns="http://www.w3.org/2000/svg" xmlns:xlink="http://www.w3.org/1999/xlink"><linearGradient id="a" gradientUnits="userSpaceOnUse" x1="2.116712" x2="2.116712" y1=".26457" y2="3.968555"><stop offset="0" stop-color="#fff"/><stop offset=".125" stop-color="#fff" stop-opacity=".098039"/><stop offset=".92500001" stop-color="#fff" stop-opacity=".098039"/><stop offset="1" stop-color="#fff" stop-opacity=".498039"/></linearGradient><linearGradient id="b" gradientTransform="matrix(0 -.00953618 .00953591 0 -.942985 4.473643)" gradientUnits="userSpaceOnUse" x1="459.03448" x2="35.310345" y1="419.23337" y2="207.36522"><stop offset="0" stop-color="#f2f2f2"/><stop offset="1" stop-color="#f9f9f9"/></linearGradient><path d="m1.3483185.26457027c-.1902366 0-.3444308.00368-.48573255.027388-.14130436.0237323-.28264046.0730958-.39065659.180858-.10801348.1077595-.15783472.2495506-.18137354.3911698-.02354675.14162183-.02677187.29644573-.02584852.48728563v.7652908 1.0314115c-.00079371.1900038.002381.3445631.0258485.4857352.0235468.1416192.0733574.2834104.18137354.3911699.10801613.1077621.24935223.1571389.39065659.1808576.14130167.023732.29549597.027388.48573257.027388h1.5367831c.1902367 0 .3440949-.00362.4852167-.027388.1411245-.0237584.2824765-.0735294.3901381-.1813736.1076616-.1078441.1571653-.249413.1808576-.3906539.0236949-.1412435.0273883-.2951308.0273883-.4857352v-1.0314115-.7937109l-1.0582812-1.05828133z" opacity=".1"/><path d="m1.3485196.26457027c-.74283142 0-.82275812.076299-.81911762.82063363v1.0313586 1.0313586c-.003651.7443342.0762862.8206336.81911762.8206336h1.5364921c.7428341 0 .8191203-.076289.8191203-.8206336v-1.0313586-1.0582813l-.7937109-.79371093z" fill="none" opacity=".2" stroke="#000" stroke-width=".529141"/><path d="m1.3485196.26457027c-.74283142 0-.82275812.076299-.81911762.82063363v1.0313586 1.0313586c-.003651.7443342.0762862.8206336.81911762.8206336h1.5364921c.7428341 0 .8191203-.076289.8191203-.8206336v-1.0313586-1.0582813l-.7937109-.79371093z" fill="url(#b)"/><g fill="none" stroke="#1463a5" stroke-width=".26457"><path d="m1.5663615 2.2907344s-.2351369.581052-.1900435.8246313c.031362.1693938.1321079.2544637.2884531.317868.092671.037585.4628657-.060129.4628657-.060129l-.034791-.4209233h.034786s-.2345283-.078921-.2821669-.3833386c0 0 .032981.2893844.08062.2969008" stroke-linecap="round" stroke-linejoin="round"/><path d="m1.4448999 1.8293344c-.1795612-.1653618-.4030967-.0977138-.4030967-.0977138s.1172655.3795817.337134.3419995"/><path d="m1.6135 3.5624631c-.058631.2405261.1428812.2431004.5141315.2431004.3712504 0 .5916189-.00265.5329875-.2431004" stroke-linecap="round" stroke-linejoin="round"/></g><path d="m1.7223654 2.0424246c.1111063-.05294.2291866.011959.2252022.018599 0 0-.038368.1445559-.1290521.1304808-.084946-.013202-.096081-.1120799-.09615-.1490827z" fill="#1463a5" fill-rule="evenodd"/><g fill="none" stroke="#1463a5" stroke-width=".26457"><path d="m2.7946741 2.471129s.1517656-.4617175.058634-.6614495c-.030402-.065196-.1172627-.1202631-.1758968-.1202631-.118882 0-.3738802-.0002143-.5497798-.0002143-.1758943 0-.4026125.0002143-.5214945.0002143-.058631 0-.1454952.055068-.1758943.1202631-.093134.199732.058629.6614495.058629.6614495"/><path d="m2.7266161 2.2907344s.2213581.5721386.1762646.8157153c-.0313595.1693991-.1277583.2633797-.2841008.3267866-.0926711.0375823-.4911431-.0601341-.4911431-.0601341l.034791-.4209208h-.034796s.2345284-.078921.2821669-.3833386c0 0-.032979.2893817-.080617.2968982" stroke-linecap="round" stroke-linejoin="round"/><path d="m2.838651 1.8293317c.1795613-.1653617.4030967-.097714.4030967-.097714s-.1172655.3795817-.3371367.3419968"/></g><path d="m2.5517563 2.042422c-.1111063-.052941-.2291894.011958-.2252023.018599 0 0 .038365.1445559.1290495.1304781.084946-.013202.096081-.1120773.096153-.1490801z" fill="#1463a5" fill-rule="evenodd"/><path d="m2.1167101.26457027v3.70398443h.7683915c.7428341 0 .8190304-.076236.8190304-.8205807v-1.0314115-1.0582813l-.7937109-.79371093z" fill="#fff" opacity=".2"/><path d="m.52928821 2.1165625v1.0314115c-.003651.7443342.0761989.8205807.81903029.8205807h1.5367831c.7428341 0 .8190304-.076236.8190304-.8205807v-1.0314115z" fill="#fff" opacity=".2"/><path d="m1.3483185.26457027c-.74283139 0-.82267079.076246-.81903029.82058073v1.0314115 1.0314115c-.003651.7443342.0761989.8205807.81903029.8205807h1.5367831c.7428341 0 .8190304-.076236.8190304-.8205807v-1.0314115-1.0582813l-.7937109-.79371093zm0 .2645703h1.5621026l.5291406.52914063v1.0582813 1.0314115c0 .1815667-.00582.3159975-.019631.3984058-.013811.082406-.029841.09959-.034103.1038651-.00426.00426-.021245.020293-.1033491.034103-.082112.013816-.2161962.019636-.3973767.019636h-1.5367834c-.1811777 0-.3153969-.0063-.39788727-.02016-.082493-.013837-.10001551-.029235-.10438092-.033587-.004365-.00437-.0199486-.021324-.0335898-.1033491-.0136254-.08203-.0194988-.216564-.0185993-.3978899v-.0005292-1.0319062-1.0319274-.0005291c-.00079371-.18132863.004974-.31585993.0185993-.39789003.0136254-.08203.0292218-.098992.0335898-.1033491.004365-.00436.02188-.019737.10438092-.033587.0824904-.013837.21670957-.02016.39788727-.02016z" fill="url(#a)" opacity=".4"/><path d="m3.704132 1.3228516v-.2645704l-.7937109-.79371093h-.2645704v.4049434.01553.00833c0 .54761033.073304.63205063.6221715.62936523z" opacity=".2"/><path d="m3.704132 1.0581807-.7937109-.79361043v.2943848.012832.00688c0 .45177763.020822.48176403.4736364.47954953z" fill="#faf8f6"/></svg>