<svg height="16" viewBox="0 0 4.233125 4.233125" width="16" xmlns="http://www.w3.org/2000/svg" xmlns:xlink="http://www.w3.org/1999/xlink"><linearGradient id="a" gradientUnits="userSpaceOnUse" x1="328" x2="328" y1="237" y2="251"><stop offset="0" stop-color="#fff"/><stop offset=".125" stop-color="#fff" stop-opacity=".098039"/><stop offset=".92500001" stop-color="#fff" stop-opacity=".098039"/><stop offset="1" stop-color="#fff" stop-opacity=".498039"/></linearGradient><clipPath id="b"><path d="m325.09646 237c-2.80769 0-3.10979.28839-3.09603 3.10176v3.89824 3.89824c-.0138 2.81337.28834 3.10176 3.09603 3.10176h5.8075c2.8077 0 3.09604-.28835 3.09604-3.10176v-3.89824-3.89824c0-2.8134-.28835-3.10176-3.09604-3.10176z"/></clipPath><linearGradient id="c" gradientTransform="matrix(0 -.00953618 -.00953591 0 5.176271 4.473644)" gradientUnits="userSpaceOnUse" x1="459.03448" x2="35.310345" y1="419.23337" y2="207.36522"><stop offset="0" stop-color="#4600d9"/><stop offset="1" stop-color="#7431fe"/></linearGradient><path d="m2.8849672.13228555c.187972 0 .3369145.004074.463514.0253194.1265996.021245.2372429.0627772.3193443.14468821.082102.0819083.1236232.1921045.1446883.31882839.02106.12672124.024684.27608441.023758.46454845v1.0308928 1.0314115c.0007937.188165-.00273.3374488-.023758.4640299-.02106.1267238-.062584.23692-.1446883.3188284-.082104.081911-.1927421.1234352-.3193443.1446882-.1266022.021245-.275542.025319-.463514.025319h-1.5367831c-.1879719 0-.3366287-.00405-.46299804-.025319-.12636672-.0212715-.23701267-.0627376-.31882839-.1446882-.08180779-.0819507-.12294318-.1922924-.14416966-.3188284-.02121854-.1265334-.02531938-.275685-.02531938-.4640299v-1.0314115-1.0314114c0-.18834496.004101-.33749647.0253194-.46402987.02121852-.12653604.06235921-.23687774.14416964-.31882839.08181572-.08195066.19246167-.12342205.31882839-.14468821.12636934-.02127146.27502614-.02531938.46299804-.02531938z" fill="url(#c)"/><path d="m.39698769 1.7197073h.79371091l.3968555 1.1905664.3938526-1.5206681.2818547.7600285.2826193-.7600285.364525 1.1238127h.9259961" fill="none" stroke="#fff" stroke-width=".26457"/><path d="m2.1166947.2645707v3.7039843h.7683916c.7428341 0 .8190303-.076236.8190303-.8205807v-1.0314115-1.0314114c0-.74434212-.076199-.8205807-.8190303-.8205807z" fill="#fff" opacity=".08"/><path d="m.52927284 2.1165628v1.0314115c-.003651.7443342.0761989.8205807.81903036.8205807h1.5367831c.7428341 0 .8190303-.076236.8190303-.8205807v-1.0314115z" fill="#fff" opacity=".08"/><g fill="none"><path d="m1.3483032.13228555c-.187972 0-.3369145.004074-.463514.0253194-.12659954.021245-.23724284.0627772-.3193443.14468821-.0821015.0819083-.12362312.1921045-.14468821.31882839-.0210598.12672124-.0246844.27608441-.0237584.46454845v1.0308928 1.0314115c-.00079371.188165.002725.3374488.0237584.4640299.0210598.1267238.0625841.23692.14468821.3188284.0821041.081911.19274212.1234352.3193443.1446882.1266022.021245.275542.025319.463514.025319h1.5367831c.1879719 0 .3366287-.00405.4629981-.025319.1263667-.021272.2370126-.062738.3188284-.1446882.081808-.081951.1229431-.1922924.1441696-.3188284.021219-.1265334.025319-.275685.025319-.4640299v-1.0314115-1.0314114c0-.18834496-.0041-.33749647-.025319-.46402987-.0212185-.12653604-.0623592-.23687774-.1441696-.31882839-.0818158-.08195066-.1924617-.12342205-.3188284-.14468821-.1263694-.02127146-.2750262-.02531938-.4629981-.02531938z" opacity=".4" stroke="#000" stroke-width=".26457"/><path clip-path="url(#b)" d="m325.09646 237c-2.80769 0-3.10979.28839-3.09603 3.10176v3.89824 3.89824c-.0138 2.81337.28834 3.10176 3.09603 3.10176h5.8075c2.8077 0 3.09604-.28835 3.09604-3.10176v-3.89824-3.89824c0-2.8134-.28835-3.10176-3.09604-3.10176z" opacity=".4" stroke="url(#a)" stroke-width="2" transform="matrix(.26457031 0 0 .26457031 -84.630799 -62.438594)"/></g></svg>