<svg height="16" viewBox="0 0 4.233125 4.233125" width="16" xmlns="http://www.w3.org/2000/svg" xmlns:xlink="http://www.w3.org/1999/xlink"><linearGradient id="a" gradientUnits="userSpaceOnUse" x1="328" x2="328" y1="237" y2="251"><stop offset="0" stop-color="#fff"/><stop offset=".125" stop-color="#fff" stop-opacity=".098039"/><stop offset=".92500001" stop-color="#fff" stop-opacity=".098039"/><stop offset="1" stop-color="#fff" stop-opacity=".498039"/></linearGradient><clipPath id="b"><path d="m325.09646 237c-2.80769 0-3.10979.28839-3.09603 3.10176v3.89824 3.89824c-.0138 2.81337.28834 3.10176 3.09603 3.10176h5.8075c2.8077 0 3.09604-.28835 3.09604-3.10176v-3.89824-3.89824c0-2.8134-.28835-3.10176-3.09604-3.10176z"/></clipPath><linearGradient id="c" gradientTransform="matrix(0 -.00953618 .00953591 0 -.942985 4.473643)" gradientUnits="userSpaceOnUse" x1="459.03448" x2="35.310345" y1="419.23337" y2="207.36522"><stop offset="0" stop-color="#f2f2f2"/><stop offset="1" stop-color="#f9f9f9"/></linearGradient><path d="m1.3483186.26457023c-.1902367 0-.3444309.003678-.48573264.0273883-.14130437.023732-.28264047.0730955-.3906566.18085764-.10801348.10775949-.15783472.24955066-.18137354.39116985-.02354675.14162178-.02677187.29644568-.02584852.48728568v.7652908 1.0314115c-.00079371.1900038.002381.3445631.0258485.4857352.0235468.1416192.0733574.2834104.18137354.3911699.10801613.1077621.24935223.1571389.3906566.1808576.14130166.023732.29549586.027388.48573256.027388h1.5367831c.1902367 0 .3440949-.00362.4852167-.027388.1411246-.0237584.2824766-.0735294.3901382-.1813736.1076616-.1078441.1571653-.249413.1808576-.3906539.0236949-.1412435.0273883-.2951308.0273883-.4857352v-1.0314115-.7668412c0-.1906045-.0037-.3444918-.027388-.48573528-.0236794-.14124086-.0731963-.28280979-.1808579-.39065394s-.2490136-.1576257-.3901381-.18137353c-.1411218-.02375048-.29498-.02738832-.4852167-.02738832z" opacity=".1"/><path d="m1.3485197.26457023c-.74283152 0-.82275822.0762994-.81911772.82063357v1.0313587 1.0313586c-.003651.7443342.0762862.8206336.81911772.8206336h1.5364921c.7428341 0 .8191203-.076289.8191203-.8206336v-1.0313586-1.0313587c0-.74434207-.076289-.82063357-.8191203-.82063357z" fill="none" opacity=".2" stroke="#000" stroke-width=".529141"/><path d="m1.3485197.26457023c-.74283152 0-.82275822.0762994-.81911772.82063357v1.0313587 1.0313586c-.003651.7443342.0762862.8206336.81911772.8206336h1.5364921c.7428341 0 .8191203-.076289.8191203-.8206336v-1.0313586-1.0313587c0-.74434207-.076289-.82063357-.8191203-.82063357z" fill="url(#c)"/><g enable-background="new" opacity=".75" transform="matrix(.19842733 0 0 .19842733 -128.84533 -39.156322)"><path d="m200.00002-668.00006h16v16h-16z" fill="none" transform="rotate(90)"/><path d="m200.00003-668.00006h16.000002v16h-16.000002z" fill="none" transform="rotate(90)"/><path d="m659.55562 202.66833v.4445h.88889v-.4445zm0 .88889v.4445h.88889v-.4445zm0 .88889v2.66667h-3.11112c-.0297-.00081-.0594.002-.0886.005-1.36844.0403-2.56056.96962-2.91667 2.29862-.36392 1.35808.23202 2.79705 1.44965 3.50003 1.20751.69718 2.73429.50093 3.72918-.47222h2.7639c.99489.9729 2.52166 1.1694 3.72918.47222 1.2176-.70298 1.81355-2.14195 1.44965-3.50003-.35655-1.33071-1.55124-2.26143-2.92188-2.29862-.0277-.005-.0554-.005-.0834-.005h-3.11112v-2.66667zm-3.11112 3.55556h7.11113c1.00794 0 1.8867.674 2.14758 1.6476.26085.97361-.16359 1.99605-1.03646 2.50001-.82501.47625-1.84559.36638-2.5573-.24845-.11612-.11541-.23021-.34673-.43926-.3437h-3.34029c-.20789-.003-.35031.23787-.43749.34219-.71179.61594-1.73332.72671-2.55904.24996-.87291-.50396-1.29561-1.5264-1.03473-2.50001.26085-.9736 1.1379-1.6476 2.14584-1.6476zm-.44445.88889v.88889h-.88889v.88889h.88889v.88894h.8889v-.88894h.88889v-.88889h-.88889v-.88889zm7.55558 0c-.24548 0-.44445.19906-.44445.44449s.19897.4445.44445.4445.44444-.19907.44444-.4445-.19896-.44449-.44444-.44449zm-.88889.88889c-.24548 0-.44445.19906-.44445.44449s.19897.4445.44445.4445.44444-.19907.44444-.4445-.19896-.44449-.44444-.44449zm1.77778 0c-.24548 0-.44444.19906-.44444.44449s.19896.4445.44444.4445c.24543 0 .44445-.19907.44445-.4445s-.19902-.44449-.44445-.44449zm-.88889.88889c-.24548 0-.44445.19906-.44445.44449s.19897.4445.44445.4445.44444-.19907.44444-.4445-.19896-.44449-.44444-.44449z" fill="#888" stroke-width=".423196"/></g><path d="m2.1167102.26457023v3.70398447h.7683915c.7428341 0 .8190304-.076236.8190304-.8205807v-1.0314115-1.0314116c0-.74434209-.076199-.82058067-.8190304-.82058067z" fill="#fff" opacity=".2"/><path d="m.52928821 2.1165625v1.0314115c-.003651.7443342.0761989.8205807.81903039.8205807h1.5367831c.7428341 0 .8190304-.076236.8190304-.8205807v-1.0314115z" fill="#fff" opacity=".2"/><path clip-path="url(#b)" d="m325.09646 237c-2.80769 0-3.10979.28839-3.09603 3.10176v3.89824 3.89824c-.0138 2.81337.28834 3.10176 3.09603 3.10176h5.8075c2.8077 0 3.09604-.28835 3.09604-3.10176v-3.89824-3.89824c0-2.8134-.28835-3.10176-3.09604-3.10176z" fill="none" opacity=".4" stroke="url(#a)" stroke-width="2" transform="matrix(.26457031 0 0 .26457031 -84.662352 -62.438594)"/></svg>