<svg height="16" viewBox="0 0 4.233125 4.233125" width="16" xmlns="http://www.w3.org/2000/svg" xmlns:xlink="http://www.w3.org/1999/xlink"><linearGradient id="a" gradientUnits="userSpaceOnUse" x1="328" x2="328" y1="237" y2="251"><stop offset="0" stop-color="#fff"/><stop offset=".125" stop-color="#fff" stop-opacity=".098039"/><stop offset=".92500001" stop-color="#fff" stop-opacity=".098039"/><stop offset="1" stop-color="#fff" stop-opacity=".498039"/></linearGradient><clipPath id="b"><path d="m325.09646 237c-2.80769 0-3.10979.28839-3.09603 3.10176v3.89824 3.89824c-.0138 2.81337.28834 3.10176 3.09603 3.10176h5.8075c2.8077 0 3.09604-.28835 3.09604-3.10176v-3.89824-3.89824c0-2.8134-.28835-3.10176-3.09604-3.10176z"/></clipPath><linearGradient id="c" gradientTransform="matrix(-.26457031 0 0 .26457031 88.895756 -62.438592)" gradientUnits="userSpaceOnUse" x1="332" x2="324" y1="236" y2="252"><stop offset="0"/><stop offset="1" stop-color="#333"/></linearGradient><linearGradient id="d" gradientTransform="matrix(0 -.00953618 -.00953591 0 5.176271 4.473644)" gradientUnits="userSpaceOnUse" x1="459.03448" x2="35.310345" y1="419.23337" y2="207.36522"><stop offset="0" stop-color="#00c8ff"/><stop offset="1" stop-color="#6bdfff"/></linearGradient><path d="m2.8849672.13228549c.187972 0 .3369145.004074.463514.0253194.1265996.021245.2372429.0627772.3193443.14468821.082102.0819083.1236232.1921045.1446883.31882839.02106.12672124.024684.27608441.023758.46454841v1.0308929 1.0314115c.0007937.188165-.00273.3374488-.023758.4640299-.02106.1267238-.062584.23692-.1446883.3188284-.082104.081911-.1927421.1234352-.3193443.1446882-.1266022.021245-.275542.025319-.463514.025319h-1.5367831c-.1879719 0-.3366287-.00405-.46299804-.025319-.12636672-.0212715-.23701267-.0627376-.31882839-.1446882-.08180779-.0819507-.12294318-.1922924-.14416966-.3188284-.02121854-.1265334-.02531938-.275685-.02531938-.4640299v-1.0314115-1.0314115c0-.18834492.004101-.33749643.0253194-.46402983.0212185-.12653604.0623592-.23687774.14416964-.31882839.0818157-.0819507.19246167-.12342205.31882839-.14468821.12636934-.0212715.27502614-.0253194.46299804-.0253194z" fill="url(#d)"/><path d="m2.8850863.52914095c.1822361 0 .3132248.005424.3978873.0196311.080559.0135196.101513.0312352.1048995.0346217.00347.003466.019737.0226208.033071.10283055.013996.0842365.019393.21502687.018599.3973713v.00106 1.0319274 1.0324433.0005292c.0007937.1823313-.00466.3135026-.018599.3973714-.013334.08021-.029605.099365-.033071.1028305-.00339.00339-.024287.021113-.1048995.034622-.084668.014207-.2156512.019631-.3978873.019631h-.7683916-.7683915c-.1822731 0-.3131137-.00545-.39737142-.019631-.00024076-.0000397-.00026457.0000423-.00052914 0-.0806119-.01352-.10151298-.031235-.10489948-.034622-.003466-.00347-.0197369-.022621-.0330713-.1028305-.0139429-.083869-.019393-.2150401-.0185993-.3973714v-.0005309-.00106-1.0314036-.7937109-.2382165-.001058c-.00079371-.18234446.004604-.31313479.0185993-.39737133.0133343-.0802098.0296054-.0993647.0330713-.10283055.003386-.003386.0243405-.0211127.10489948-.0346217.0846625-.0142074.21565126-.0196311.39788726-.0196311h.2392642.5291406z" fill="url(#c)"/><path d="m1.2965268 1.2937491c0-.00926.01852-.015874.029103-.015874.084662-.00397.2103334-.00661.3412957-.00661.3664299 0 .5092978.201076.5092978.4590321 0 .3360016-.2434046.4801951-.5423691.4801951-.050268 0-.067465-.00265-.1031824-.00265v.507975c0 .010583-.00397.015874-.015874.015874h-.2023968c-.010583 0-.015874-.00397-.015874-.015874zm.2354675.7024342c.030426.00265.054237.00265.107151.00265.1547736 0 .3002873-.054234.3002873-.2645677 0-.1680048-.1045053-.2526646-.2804445-.2526646-.052914 0-.1031824.00265-.1269938.00397zm1.1376524-.1574193c-.1045053 0-.1402223.052914-.1402223.096568 0 .047623.023811.080694.1640336.1534508.2076877.1005367.2725075.1971049.2725075.33865 0 .2116563-.161388.3254215-.3796585.3254215-.1150881 0-.2143019-.023811-.2711845-.056883-.00926-.00397-.010583-.010583-.010583-.021166v-.1944583c0-.013229.00661-.017197.015874-.010583.08334.054239.1785849.078051.2658931.078051.1045079 0 .148162-.043654.148162-.1031825 0-.047623-.030428-.089956-.1640362-.1587422-.1878445-.0899564-.2658928-.1812332-.2658928-.3333584 0-.1706479.133608-.3121957.3651071-.3121957.1137652 0 .1931363.017197.2367904.03704.010583.00661.013229.017197.013229.026457v.1812333c0 .010583-.00661.017197-.019843.013229-.058203-.03704-.1441881-.059528-.2301761-.059528z" fill="#00c8ff" stroke-width=".013229"/><path d="m2.1166947.26457064v3.70398436h.7683916c.7428341 0 .8190303-.076236.8190303-.8205807v-1.0314115-1.0314115c0-.74434208-.076199-.82058066-.8190303-.82058066z" fill="#fff" opacity=".05"/><path d="m.52927284 2.1165628v1.0314115c-.003651.7443342.0761989.8205807.81903036.8205807h1.5367831c.7428341 0 .8190303-.076236.8190303-.8205807v-1.0314115z" fill="#fff" opacity=".05"/><g fill="none"><path d="m1.3483032.13228549c-.1879719 0-.3369145.004074-.463514.0253194-.12659954.021245-.23724284.0627772-.3193443.14468821-.0821015.0819083-.12362312.1921045-.14468821.31882839-.0210598.12672124-.0246844.27608441-.0237584.46454841v1.0308929 1.0314115c-.00079371.188165.002725.3374488.0237584.4640299.0210598.1267238.0625841.23692.14468821.3188284.0821041.081911.19274212.1234352.3193443.1446882.1266022.021245.2755421.025319.463514.025319h1.5367831c.1879719 0 .3366287-.00405.4629981-.025319.1263667-.021272.2370126-.062738.3188284-.1446882.081808-.081951.1229431-.1922924.1441696-.3188284.021219-.1265334.025319-.275685.025319-.4640299v-1.0314115-1.0314115c0-.18834492-.0041-.33749643-.025319-.46402983-.021219-.12653604-.06236-.23687774-.14417-.31882839-.081816-.0819507-.1924617-.12342205-.3188284-.14468821-.1263694-.0212715-.2750262-.0253194-.4629981-.0253194z" opacity=".3" stroke="#000" stroke-width=".26457"/><path clip-path="url(#b)" d="m325.09646 237c-2.80769 0-3.10979.28839-3.09603 3.10176v3.89824 3.89824c-.0138 2.81337.28834 3.10176 3.09603 3.10176h5.8075c2.8077 0 3.09604-.28835 3.09604-3.10176v-3.89824-3.89824c0-2.8134-.28835-3.10176-3.09604-3.10176z" opacity=".4" stroke="url(#a)" stroke-width="2" transform="matrix(-.26457031 0 0 .26457031 88.895757 -62.438593)"/></g></svg>