<svg height="16" viewBox="0 0 4.233125 4.233125" width="16" xmlns="http://www.w3.org/2000/svg" xmlns:xlink="http://www.w3.org/1999/xlink"><linearGradient id="a" gradientUnits="userSpaceOnUse" x1="328" x2="328" y1="237" y2="251"><stop offset="0" stop-color="#fff"/><stop offset=".125" stop-color="#fff" stop-opacity=".098039"/><stop offset=".92500001" stop-color="#fff" stop-opacity=".098039"/><stop offset="1" stop-color="#fff" stop-opacity=".498039"/></linearGradient><clipPath id="b"><path d="m325.09646 237c-2.80769 0-3.10979.28839-3.09603 3.10176v3.89824 3.89824c-.0138 2.81337.28834 3.10176 3.09603 3.10176h5.8075c2.8077 0 3.09604-.28835 3.09604-3.10176v-3.89824-3.89824c0-2.8134-.28835-3.10176-3.09604-3.10176z"/></clipPath><linearGradient id="c" gradientTransform="matrix(0 -.00953618 -.00953591 0 5.176271 4.473644)" gradientUnits="userSpaceOnUse" x1="459.03448" x2="35.310345" y1="419.23337" y2="207.36522"><stop offset="0" stop-color="#76c22b"/><stop offset="1" stop-color="#a6d74f"/></linearGradient><path d="m2.8849672.1322855c.187972 0 .3369145.004074.463514.0253194.1265996.021245.2372429.0627772.3193443.14468821.082102.0819083.1236232.1921045.1446883.31882839.02106.12672124.024684.27608441.023758.4645484v1.0308929 1.0314115c.0007937.188165-.00273.3374488-.023758.4640299-.02106.1267238-.062584.23692-.1446883.3188284-.082104.081911-.1927421.1234352-.3193443.1446882-.1266022.021245-.275542.025319-.463514.025319h-1.5367831c-.1879719 0-.3366287-.00405-.46299807-.025319-.1263667-.0212715-.23701264-.0627376-.31882836-.1446882-.08180779-.0819507-.12294318-.1922924-.14416966-.3188284-.02121854-.1265334-.02531938-.275685-.02531938-.4640299v-1.0314115-1.0314115c0-.18834491.004101-.33749642.0253194-.46402982.0212185-.12653604.0623592-.23687774.14416964-.31882839.0818157-.0819507.19246166-.12342205.31882836-.14468821.12636937-.0212715.27502617-.0253194.46299807-.0253194z" fill="url(#c)"/><g fill="#fff"><path d="m2.1174144 2.7816688-.6651034-.6651563.6651034-.6650636.2217178.2216808-.4434357.4433828.2217046.2217179.6651033-.6650636-.5793825-.5793799c-.047311-.04735-.1240491-.04735-.1714019 0l-.9370842.9370816c-.047311.047313-.047311.1240543 0 .1714071l.9370975.9370525c.047353.047353.1240914.047353.1714018 0l.9370975-.9370525c.047311-.047353.047311-.124094 0-.1714071l-.1360394-.1359945z" stroke-width=".013487"/><path d="m2.1166947.26457065v3.70398435h.7683916c.7428341 0 .8190303-.076236.8190303-.8205807v-1.0314115-1.0314115c0-.74434207-.076199-.82058065-.8190303-.82058065z" opacity=".08"/><path d="m.52927284 2.1165628v1.0314115c-.003651.7443342.0761989.8205807.81903036.8205807h1.5367831c.7428341 0 .8190303-.076236.8190303-.8205807v-1.0314115z" opacity=".08"/></g><path d="m1.3483032.1322855c-.187972 0-.3369145.004074-.46351397.0253194-.1265996.021245-.23724287.0627772-.31934433.14468821-.0821015.0819083-.12362312.1921045-.14468821.31882839-.0210598.12672124-.0246844.27608441-.0237584.4645484v1.0308929 1.0314115c-.00079371.188165.002725.3374488.0237584.4640299.0210598.1267238.0625841.23692.14468821.3188284.0821041.081911.19274213.1234352.31934433.1446882.12660217.021245.27554197.025319.46351397.025319h1.5367831c.1879719 0 .3366287-.00405.4629981-.025319.1263667-.0212715.2370126-.0627376.3188284-.1446882.0818078-.0819507.1229431-.1922924.1441696-.3188284.0212186-.1265334.0253194-.275685.0253194-.4640299v-1.0314115-1.0314115c0-.18834491-.0041-.33749642-.025319-.46402982-.021219-.12653604-.06236-.23687774-.14417-.31882839-.0818158-.08195066-.1924617-.12342205-.3188284-.14468821-.1263694-.02127146-.2750262-.02531938-.4629981-.02531938z" fill="none" opacity=".4" stroke="#000" stroke-width=".26457"/><path clip-path="url(#b)" d="m325.09646 237c-2.80769 0-3.10979.28839-3.09603 3.10176v3.89824 3.89824c-.0138 2.81337.28834 3.10176 3.09603 3.10176h5.8075c2.8077 0 3.09604-.28835 3.09604-3.10176v-3.89824-3.89824c0-2.8134-.28835-3.10176-3.09604-3.10176z" fill="none" opacity=".4" stroke="url(#a)" stroke-width="2" transform="matrix(.26457031 0 0 .26457031 -84.662368 -62.438594)"/></svg>