<svg height="16" viewBox="0 0 4.233125 4.233125" width="16" xmlns="http://www.w3.org/2000/svg" xmlns:xlink="http://www.w3.org/1999/xlink"><linearGradient id="a" gradientUnits="userSpaceOnUse" x1="2.116711" x2="2.116711" y1=".264571" y2="3.968556"><stop offset="0" stop-color="#fff"/><stop offset=".125" stop-color="#fff" stop-opacity=".098039"/><stop offset=".92500001" stop-color="#fff" stop-opacity=".098039"/><stop offset="1" stop-color="#fff" stop-opacity=".498039"/></linearGradient><linearGradient id="b" gradientTransform="matrix(0 -.01021733 .01033057 0 -1.197959 4.642008)" gradientUnits="userSpaceOnUse" x1="441.37927" x2="40.018539" y1="240.30267" y2="395.24066"><stop offset="0" stop-color="#da1636"/><stop offset="1" stop-color="#f22c42"/></linearGradient><path d="m1.3483185.26457061c-.1902367 0-.3444309.003678-.48573259.0273883-.1413044.023732-.2826405.0730955-.3906566.18085764-.1080135.10775949-.1578347.24955066-.1813735.39116985-.0235468.1416218-.0267719.2964457-.0258485.4872856v.7652908 1.0314115c-.0007938.1900038.00238.3445631.025848.4857352.023547.1416192.073357.2834104.1813735.3911699.1080161.1077621.2493522.1571389.3906566.1808576.14130169.023732.29549589.027388.48573259.027388h1.5367831c.1902367 0 .3440949-.00362.4852167-.027388.141125-.023758.282477-.073529.3901386-.1813736.1076616-.1078441.1571653-.249413.1808576-.3906539.0236949-.1412435.0273883-.2951308.0273883-.4857352v-1.0314115-.7937109l-1.0582812-1.05828129z" opacity=".1"/><path d="m1.2845041.1322881c-.80473289 0-.89132149.0817496-.88737679.8792492v1.1050281 1.1050256c-.00394.7975022.082644.8792518.88737679.8792518h1.6645336c.8047356 0 .8873794-.081739.8873794-.8792518v-1.1050256-1.1338742l-.8598535-.8504031z" fill="url(#b)"/><g fill="#fff"><path d="m1.735598 2.5581394c.0659137-.129194.1408237-.2747544.2007813-.4208923l.023707-.057689c-.0783152-.2980142-.1252761-.5372314-.0833228-.6919119.011294-.040327.058001-.064794.1079375-.064794l.030429.0004471h.00559c.068365-.00105.1005556.085915.1042083.1197264.00603.056311-.020019.1516116-.020019.1516116 0-.038483.00151-.1006675-.022782-.1543269-.028273-.06209-.05528-.099183-.079493-.1050625-.012225.00817-.024108.025074-.028179.057601-.00843.045606-.010958.1031713-.010958.1328467 0 .1048446.020644.2432292.061212.3858852.00765-.022087.014387-.043308.019742-.063192.00832-.031337.061206-.2390639.061206-.2390639s-.013327.2765159-.031943.3601807c-.00399.01768-.00839.035166-.012973.053065.066898.1869186.1746938.3537473.3032869.4738154.050702.047385.1147363.085591.1753417.1204157.132352-.018912.2542111-.027843.3558742-.026718.1348794.00178.2338853.021727.2739767.061218.019631.019195.027596.042377.03007.068364.000582.010109-.00434.033864-.00578.039827.00146-.00722.00146-.042708-.10683-.077267-.085273-.02726-.2448672-.026412-.4363693-.00603.2214959.1083704.4372886.1622125.5056768.1299331.016721-.00815.036998-.035932.036998-.035932s-.012054.054767-.020708.068459c-.011046.014877-.032715.030989-.053259.036421-.1080009.0288152-.389136-.0378644-.634221-.1779047-.2738237.0403272-.5745419.1148246-.8155912.1938883-.2368783.4151304-.4149656.6057901-.5598427.5332602l-.053265-.026783c-.021651-.012385-.024956-.042531-.019949-.06708.016891-.08264.1205159-.2071088.3286672-.331401.022405-.013557.1222069-.066326.1222069-.066326s-.073885.071511-.091194.085544c-.1661389.1361462-.288758.3074288-.2857003.3738314l.0006006.00579c.1411305-.0201112.3527757-.3073681.6248672-.8397566m.086227.044151c-.045447.085591-.089868.1649493-.1308789.2378151.2268574-.0950475.4710233-.1558711.7034475-.199079-.031236-.021569-.06156-.04441-.090092-.068553-.1279924-.1083619-.2255728-.2435533-.2963058-.3858146-.0448576.1208516-.0981989.2492738-.1861704.4156312" stroke-width=".103663"/><path d="m2.1167101.26457061v3.70398439h.7683915c.7428341 0 .8190304-.076236.8190304-.8205807v-1.0314115-1.0582813l-.7937109-.79371089z" opacity=".1"/><path d="m.52928811 2.1165628v1.0314115c-.00365.7443342.076199.8205807.81903039.8205807h1.5367831c.7428341 0 .8190304-.076236.8190304-.8205807v-1.0314115z" opacity=".1"/></g><path d="m1.3483185.0000003c-.1902367 0-.3444309.003678-.48573259.0273883-.1413044.023732-.2826405.0730955-.3906566.18085762-.1080135.10775949-.1578347.2495533-.1813735.39116985-.0235468.14162449-.0267613.29644573-.0258485.48728563v1.0298611 1.0314115c-.0007938.1900038.00238.3445631.025848.4857352.023547.1416192.073357.2834104.1813735.3911699.1080161.1077621.2493522.1571389.3906566.1808576.14130169.023732.29549589.027388.48573259.027388h1.5367831c.1902367 0 .3440949-.00362.4852167-.027388.141125-.023758.282477-.073529.3901386-.1813736.1076616-.1078441.1571653-.249413.1808576-.3906539.0236949-.1412435.0273883-.2951308.0273883-.4857352v-1.0314115-1.1678292l-.9487333-.9487333zm0 .26457031h1.5621026l.7937109.79371089v1.0582813 1.0314115c0 .7443448-.076196.8205807-.8190304.8205807h-1.5367831c-.74283149 0-.82268139-.076246-.81903039-.8205807v-1.0314115-1.0314115c-.0036405-.74433417.0761989-.82058069.81903039-.82058069z" opacity=".4"/><path d="m1.3483185.26457061c-.74283149 0-.82267089.0762465-.81903039.82058069v1.0314115 1.0314115c-.00365.7443342.076199.8205807.81903039.8205807h1.5367831c.7428341 0 .8190304-.076236.8190304-.8205807v-1.0314115-1.0582813l-.7937109-.79371089zm0 .26457031h1.5621026l.5291406.52914058v1.0582813 1.0314115c0 .1815667-.00582.3159975-.019631.3984058-.013811.082406-.029841.09959-.034103.1038651-.00426.00426-.021245.020293-.1033491.034103-.082112.013816-.2161962.019636-.3973767.019636h-1.5367834c-.1811778 0-.315397-.0063-.39788729-.02016-.082493-.013837-.1000155-.029235-.104381-.033587-.00437-.00437-.019949-.021324-.03359-.1033491-.013625-.08203-.019499-.216564-.018599-.3978899v-.0005292-1.0319062-1.0319274-.0005291c-.0007937-.1813286.00497-.31585996.018599-.39788998.013625-.08203.029222-.0989916.03359-.1033491.00436-.004365.02188-.0197369.104381-.0335872.08249-.013837.21670949-.0201603.39788729-.0201603z" fill="url(#a)" opacity=".4"/><path d="m3.704132 1.3228519v-.2645704l-.7937109-.79371089h-.2645704v.40494339.0155303.008334c0 .5476103.073304.6320506.6221715.6293652z" fill="#830e21" opacity=".6"/><path d="m3.704132 1.058181-.7937109-.79361039v.29438474.0128317.006879c0 .45177765.020822.48176405.4736364.47954955z" fill="#f66f7e"/></svg>