<svg height="16" viewBox="0 0 4.233125 4.233125" width="16" xmlns="http://www.w3.org/2000/svg" xmlns:xlink="http://www.w3.org/1999/xlink"><linearGradient id="a" gradientUnits="userSpaceOnUse" x1="328" x2="328" y1="237" y2="251"><stop offset="0" stop-color="#fff"/><stop offset=".125" stop-color="#fff" stop-opacity=".098039"/><stop offset=".92500001" stop-color="#fff" stop-opacity=".098039"/><stop offset="1" stop-color="#fff" stop-opacity=".498039"/></linearGradient><clipPath id="b"><path d="m325.09646 237c-2.80769 0-3.10979.28839-3.09603 3.10176v3.89824 3.89824c-.0138 2.81337.28834 3.10176 3.09603 3.10176h5.8075c2.8077 0 3.09604-.28835 3.09604-3.10176v-3.89824-3.89824c0-2.8134-.28835-3.10176-3.09604-3.10176z"/></clipPath><linearGradient id="c" gradientTransform="matrix(0 -.00953618 -.00953591 0 5.176272 4.473642)" gradientUnits="userSpaceOnUse" x1="459.03448" x2="35.310345" y1="419.23337" y2="207.36522"><stop offset="0" stop-color="#b52428"/><stop offset="1" stop-color="#d32429"/></linearGradient><path d="m2.8849692.132284c.187972 0 .336915.0041.463514.02532.1266.02125.237243.06278.319344.144688.0821.08191.123624.192105.144689.318829.02106.126721.02468.276084.02376.464548v1.030893 1.031412c.000793.188165-.0027.337448-.02376.464029-.02106.126724-.06258.23692-.144689.318829-.0821.08191-.192742.123435-.319344.144688-.126602.02125-.275542.02532-.463514.02532h-1.536783c-.187972 0-.336629-.004-.462998-.02532-.126367-.02127-.237013-.06274-.318828-.144688-.08181-.08195-.122944-.192293-.14417-.318829-.02122-.126533-.02532-.275685-.02532-.464029v-1.031413-1.031411c0-.188345.0041-.337497.02532-.46403.02122-.126536.06236-.236878.14417-.318829.08181-.08195.192461-.123422.318828-.144688.126369-.02127.275026-.02532.462998-.02532z" fill="url(#c)"/><g stroke-width=".35276"><path d="m2.1166972 1.154909-1.058282.156573v1.610674l1.058282.157089z" fill="#fff"/><path d="m2.3812672 1.32285v1.587292s.793711.00013.793645-.157784v-1.271596c.000066-.157912-.793645-.157912-.793645-.157912z" fill="#fff"/><path d="m1.6583792 1.720224c.07897.264012.153948.529458.23197.793706-.05445-.0035-.108895-.0076-.162875-.01249-.01439-.05893-.02971-.117858-.04527-.176553-.07237-.000159-.144752-.0027-.216884-.0061-.01392.05587-.02802.111498-.0424.167129-.0462-.0035-.09219-.0069-.138156-.0099.06883-.248217.140513-.495487.208873-.743707.05492-.004.109582-.0078.164742-.01201zm-.08861.141193c-.0158.111969-.05116.219718-.07496.330039.05186.000264.103704.000529.1558.0011-.02687-.110323-.05962-.219238-.08084-.330972z" fill="#a33639"/></g><path d="m2.1166972.264569v3.703984h.768391c.742834 0 .819031-.07624.819031-.82058v-1.031412-1.031411c0-.744343-.0762-.820581-.819031-.820581z" fill="#fff" opacity=".08"/><path d="m.5292752 2.116561v1.031412c-.0037.744334.0762.82058.81903.82058h1.536783c.742834 0 .819031-.07624.819031-.82058v-1.031412z" fill="#fff" opacity=".08"/><g fill="none"><path d="m1.3483052.132284c-.187972 0-.336914.0041-.463514.02532-.126599.02125-.237243.06278-.319344.144688-.0821.08191-.123623.192105-.144688.318829-.02106.126721-.02469.276084-.02376.464548v1.030893 1.031412c-.000793.188165.0027.337448.02376.464029.02106.126724.06258.23692.144688.318829.0821.08191.192742.123435.319344.144688.126602.02125.275542.02532.463514.02532h1.536783c.187972 0 .336629-.004.462998-.02532.126367-.02127.237013-.06274.318829-.144688.08181-.08195.122943-.192293.144169-.318829.02122-.126533.02532-.275685.02532-.464029v-1.031413-1.031411c0-.188345-.0041-.337497-.02532-.46403-.02122-.126536-.06236-.236878-.14417-.318829-.08182-.08195-.192462-.123422-.318829-.144688-.126369-.02127-.275026-.02532-.462998-.02532z" opacity=".4" stroke="#000" stroke-width=".26457"/><path clip-path="url(#b)" d="m325.09646 237c-2.80769 0-3.10979.28839-3.09603 3.10176v3.89824 3.89824c-.0138 2.81337.28834 3.10176 3.09603 3.10176h5.8075c2.8077 0 3.09604-.28835 3.09604-3.10176v-3.89824-3.89824c0-2.8134-.28835-3.10176-3.09604-3.10176z" opacity=".4" stroke="url(#a)" stroke-width="2" transform="matrix(.26457031 0 0 .26457031 -84.662366 -62.438595)"/></g></svg>