<svg xmlns="http://www.w3.org/2000/svg" xmlns:osb="http://www.openswatchbook.org/uri/2009/osb" width="16" height="16" version="1.1">
 <defs>
  <linearGradient id="linearGradient5606" osb:paint="solid">
   <stop id="stop5608" offset="0" style="stop-color:#000000"/>
  </linearGradient>
  <linearGradient id="linearGradient4526" osb:paint="solid">
   <stop id="stop4528" offset="0" style="stop-color:#ffffff"/>
  </linearGradient>
  <linearGradient id="linearGradient3600-4" osb:paint="gradient">
   <stop id="stop3602-7" offset="0" style="stop-color:#f4f4f4"/>
   <stop id="stop3604-6" offset="1" style="stop-color:#dbdbdb"/>
  </linearGradient>
 </defs>
 <g transform="translate(-592.00004,-239.99994)">
  <path d="m 596.99414,240 c -1.2582,0.0145 -2.17889,-0.0306 -2.93164,0.38477 -0.37637,0.20766 -0.67323,0.55938 -0.83789,0.99804 C 593.05994,241.82148 593,242.34239 593,243 v 10 c 0,0.65761 0.0599,1.17853 0.22461,1.61719 0.16467,0.43866 0.46152,0.79039 0.83789,0.99804 0.75275,0.41532 1.67345,0.3702 2.93164,0.38477 h 0.004 5.0039 0.004 c 1.25819,-0.0145 2.17889,0.0306 2.93164,-0.38477 0.37637,-0.20766 0.67322,-0.55938 0.83789,-0.99804 C 605.94006,254.17852 606,253.65761 606,253 v -10 c 0,-0.65761 -0.0599,-1.17852 -0.22461,-1.61719 -0.16466,-0.43866 -0.46152,-0.79038 -0.83789,-0.99804 -0.75275,-0.41534 -1.67344,-0.37025 -2.93164,-0.38477 h -0.004 -5.0039 z m 0.006,1 h 5 c 1.25852,0.0147 2.08717,0.0598 2.45312,0.26172 0.18341,0.1012 0.28916,0.21274 0.38672,0.47266 C 604.93741,241.99429 605,242.40761 605,243 v 10 c 0,0.59239 -0.0626,1.00572 -0.16016,1.26562 -0.0976,0.25991 -0.20331,0.37147 -0.38672,0.47266 C 604.08717,254.94019 603.25852,254.98529 602,255 H 597.00586 597 c -1.25853,-0.0147 -2.08717,-0.0598 -2.45312,-0.26172 -0.18341,-0.10119 -0.28916,-0.21275 -0.38672,-0.47266 C 594.06259,254.00572 594,253.59239 594,253 v -10 c 0,-0.59239 0.0626,-1.00572 0.16016,-1.26562 0.0976,-0.25991 0.20331,-0.37147 0.38672,-0.47266 C 594.91283,241.05981 595.74147,241.01471 597,241 Z" style="fill:#808080"/>
  <path d="m 598.25004,246 c -0.1385,0 -0.25,0.1115 -0.25,0.25 v 5.50025 c 0,0.1385 0.1115,0.25 0.25,0.25 h 2.5005 c 0.1385,0 0.25,-0.1115 0.25,-0.25 V 246.25 c 0,-0.1385 -0.1115,-0.25 -0.25,-0.25 z m 0.875,3.99975 h 0.7505 c 0.0693,0 0.125,0.0557 0.125,0.125 v 0.7505 c 0,0.0693 -0.0557,0.125 -0.125,0.125 h -0.7505 c -0.0693,0 -0.125,-0.0557 -0.125,-0.125 v -0.7505 c 0,-0.0693 0.0557,-0.125 0.125,-0.125 z" style="fill:#808080"/>
  <path d="m 599.00004,242 v 1 h 1 v -1 z m 0,2 v 1 h 1 v -1 z" style="fill:#808080"/>
 </g>
</svg>
