<svg height="16" viewBox="0 0 4.233125 4.233125" width="16" xmlns="http://www.w3.org/2000/svg" xmlns:xlink="http://www.w3.org/1999/xlink"><linearGradient id="a" gradientUnits="userSpaceOnUse" x1="328" x2="328" y1="237" y2="251"><stop offset="0" stop-color="#fff"/><stop offset=".125" stop-color="#fff" stop-opacity=".098039"/><stop offset=".92500001" stop-color="#fff" stop-opacity=".098039"/><stop offset="1" stop-color="#fff" stop-opacity=".498039"/></linearGradient><clipPath id="b"><path d="m325.09646 237c-2.80769 0-3.10979.28839-3.09603 3.10176v3.89824 3.89824c-.0138 2.81337.28834 3.10176 3.09603 3.10176h5.8075c2.8077 0 3.09604-.28835 3.09604-3.10176v-3.89824-3.89824c0-2.8134-.28835-3.10176-3.09604-3.10176z"/></clipPath><linearGradient id="c" gradientTransform="matrix(0 -.00953618 -.00953591 0 5.176273 4.473642)" gradientUnits="userSpaceOnUse" x1="459.03448" x2="35.310345" y1="419.23337" y2="207.36522"><stop offset="0" stop-color="#007946"/><stop offset="1" stop-color="#009053"/></linearGradient><path d="m2.8849692.132284c.187972 0 .336915.0041.463514.02532.1266.02125.237243.06278.319345.144688.0821.08191.123623.192105.144688.318829.02106.126721.02468.276084.02376.464548v1.030893 1.031411c.000794.188165-.0027.337449-.02376.46403-.02106.126724-.06258.23692-.144688.318829-.0821.08191-.192742.123435-.319345.144688-.126602.02125-.275542.02532-.463514.02532h-1.536783c-.187972 0-.336628-.004-.462998-.02532-.126366-.02127-.237012-.06274-.318828-.144688-.08181-.08195-.122943-.192293-.14417-.318829-.02122-.126533-.02532-.275685-.02532-.46403v-1.031411-1.031412c0-.188344.0041-.337496.02532-.464029.02122-.126536.06236-.236878.14417-.318829.08182-.08195.192462-.123422.318828-.144688.12637-.02127.275026-.02532.462998-.02532z" fill="url(#c)"/><g enable-background="new" fill="#fff" stroke-width="3.000244" transform="matrix(.08818294 0 0 .08818294 -28.218212 -5.290807)"><path d="m328 240.36523-4 .5918v6.08789l4 .59375zm-.97956 2.20118c-.23252.47634-.46626.95117-.70313 1.42578.23949.48767.48426.97131.72461 1.45898-.20987-.0122-.41708-.0242-.62695-.0391-.14805-.36314-.32931-.71406-.43555-1.09375-.11843.35356-.28797.68661-.42383 1.0332-.19071-.003-.38155-.01-.57226-.0176.2238-.43803.4411-.87903.67187-1.31445-.19593-.44848-.41124-.88811-.61328-1.33398.19159-.0113.38264-.0227.57422-.0332.12976.3405.2718.67619.37891 1.02539.11495-.37011.28642-.71825.43359-1.07617.19681-.0139.39411-.0256.5918-.0352z" stroke-width="1.333333" transform="matrix(3.0002438 0 0 3.0002438 -640.0802 -648.05946)"/><path d="m347 74.999284v18l9 .000716v-18z" stroke-width="4.000325"/></g><g fill="none"><path d="m1.3483052.132284c-.187972 0-.336914.0041-.463514.02532-.126599.02125-.237242.06278-.319344.144688-.0821.08191-.123623.192105-.144688.318829-.02106.126721-.02469.276084-.02376.464548v1.030893 1.031411c-.000793.188165.0027.337449.02376.46403.02106.126724.06258.23692.144688.318829.0821.08191.192742.123435.319344.144688.126603.02125.275542.02532.463514.02532h1.536783c.187972 0 .336629-.004.462999-.02532.126366-.02127.237012-.06274.318828-.144688.08181-.08195.122943-.192293.14417-.318829.02122-.126533.02532-.275685.02532-.46403v-1.031411-1.031412c0-.188344-.0041-.337496-.02532-.464029-.02122-.126536-.06236-.236878-.14417-.318829-.08182-.08195-.192462-.123422-.318828-.144688-.12637-.02127-.275027-.02532-.462999-.02532z" opacity=".4" stroke="#000" stroke-width=".26457"/><path clip-path="url(#b)" d="m325.09646 237c-2.80769 0-3.10979.28839-3.09603 3.10176v3.89824 3.89824c-.0138 2.81337.28834 3.10176 3.09603 3.10176h5.8075c2.8077 0 3.09604-.28835 3.09604-3.10176v-3.89824-3.89824c0-2.8134-.28835-3.10176-3.09604-3.10176z" opacity=".4" stroke="url(#a)" stroke-width="2" transform="matrix(.26457031 0 0 .26457031 -84.662366 -62.438596)"/></g></svg>