<svg height="16" width="16" xmlns="http://www.w3.org/2000/svg" xmlns:xlink="http://www.w3.org/1999/xlink"><linearGradient id="a" gradientUnits="userSpaceOnUse" x1="8.00056" x2="8.00056" y1="1" y2="15"><stop offset="0" stop-color="#fff"/><stop offset=".125" stop-color="#fff" stop-opacity=".098039"/><stop offset=".92500001" stop-color="#fff" stop-opacity=".098039"/><stop offset="1" stop-color="#fff" stop-opacity=".498039"/></linearGradient><linearGradient id="b" gradientTransform="matrix(0 -.03089488 .03003587 0 -1.636752 15.63636)" gradientUnits="userSpaceOnUse" x1="441.37933" x2="52.9655" y1="240.30263" y2="401.439"><stop offset="0" stop-color="#f2f2f2"/><stop offset="1" stop-color="#f9f9f9"/></linearGradient><linearGradient id="c" gradientTransform="matrix(0 -.0386186 .03904659 0 -4.527942 17.54546)" gradientUnits="userSpaceOnUse" x1="441.37927" x2="52.965412" y1="240.30267" y2="401.42969"><stop offset="0" stop-color="#333"/><stop offset="1" stop-color="#666"/></linearGradient><path d="m5.0962579.9999998c-.71904 0-1.30185.0139-1.83593.10352-.5340901.0897-1.0683001.27628-1.4765701.68359-.40826.4073-.59657.94323-.68554 1.47851-.089.53529-.10119007 1.12048-.0977 1.8418v2.8925802 3.89844c-.003.71816.009 1.30235.0977 1.83594.089.53528.27727 1.07121.68554 1.47851.40827.40731.94248.59394 1.4765701.68359.53408.0897 1.11689.10352 1.83593.10352h5.8086001c.71904 0 1.30058-.0137 1.83398-.10352.53341-.0898 1.06768-.27792 1.47461-.68554s.59404-.94271.68359-1.47656c.08956-.53386.10352-1.11551.10352-1.83594v-3.89844-3.0000002l-4-4z" opacity=".1"/><path d="m4.8550579.50000983c-3.0416601 0-3.3689401.30898997-3.3540301 3.32330997v4.1766902 4.17668c-.0149 3.01433.31237 3.32332 3.3540301 3.32332h6.2914601c3.04167 0 3.35404-.30895 3.35404-3.32332v-4.17668-4.2857202l-3.25-3.21427997z" fill="url(#c)"/><path d="m5.5809479 1.9999998c-2.5803901 0-2.5803901 0-2.5800301 2.65865v3.3413502 3.34134c-.00036 2.65866-.00036 2.65866 2.5800301 2.65866h4.8395901c2.58002 0 2.58003 0 2.58003-2.65866v-3.34134l-.00001-4.0000002-2-2z" fill="url(#b)"/><path d="m5.0962579-.00000017c-.71904 0-1.30185.0139-1.83593.10352-.5340901.0897-1.0683001.27628-1.4765701.68359-.40826.40729997-.59657.94323997-.68554 1.47850997-.089.5353-.10115007 1.12048-.0977 1.8418v3.8925802 3.89844c-.003.71816.009 1.30235.0977 1.83594.089.53528.27727 1.07121.68554 1.47851.40827.40731.94248.59394 1.4765701.68359.53408.0897 1.11689.10352 1.83593.10352h5.8086001c.71904 0 1.30058-.0137 1.83398-.10352.53341-.0898 1.06768-.27792 1.47461-.68554s.59404-.94271.68359-1.47656c.08956-.53386.10352-1.11551.10352-1.83594v-3.89844-4.4140602l-3.58594-3.58593997zm0 .99999997h5.9043001l3 3v4.0000002 3.89844c0 2.81341-.288 3.10156-3.0957 3.10156h-5.8086001c-2.8076901 0-3.1095001-.28819-3.0957001-3.10156v-3.89844-3.8984402c-.01376-2.81337.28801-3.10156 3.0957001-3.10156z" opacity=".4"/><path d="m5.0962579.9999998c-2.8076901 0-3.1094601.28819-3.0957001 3.10156v3.8984402 3.89844c-.0138 2.81337.28801 3.10156 3.0957001 3.10156h5.8086001c2.8077 0 3.0957-.28815 3.0957-3.10156v-3.89844-4.0000002l-3-3zm0 1h5.9043001l2 2v4.0000002 3.89844c0 .68627-.022 1.19438-.0742 1.50586-.0522.31147-.11279.37642-.1289.39258-.0161.0161-.0803.0767-.39063.1289-.31036.05222-.81716.07422-1.50197.07422h-5.8086001c-.6848 0-1.19211-.0238-1.5039-.0762-.3118-.0523-.37803-.1105-.39453-.12695-.0165-.0165-.0754-.0806-.1269601-.39063-.0515-.31005-.0737-.81855-.0703-1.50391v-.002-3.90031-3.9003902-.002c-.003-.68537.0188-1.19386.0703-1.50391s.1104501-.37416.1269601-.39063c.0165-.0165.0827-.0746.39453-.12695.31179-.0523.8191-.0762 1.5039-.0762z" fill="url(#a)" opacity=".4"/><path d="m14.000558 4.9999998v-1l-3-3h-1v1.53057.0587.0315c0 2.06981.27707 2.38897 2.35163 2.37882z" opacity=".6"/><path d="m14.000558 3.9996198-3-2.99962v1.11269.0485.026c0 1.70759.0787 1.82093 1.79021 1.81256z" fill="#888"/><g fill="#46a926" fill-rule="evenodd" stroke-linejoin="round"><path d="m5.0005579 6.9999998v1.6562502c0 .56245.33377.0937.72266.0937.41281-.00001.77534.33328.77734.74609.00001.002.00001.002 0 .004 0 .41421-.36313.75-.77734.75-.38889 0-.72266-.46875-.72266.0937v1.65626h1.65625c.56245 0 .0937-.33377.0937-.72266-.00001-.41281.33328-.77534.74609-.77734.002-.00001.002-.00001.004 0 .41421 0 .75.36313.75.77734 0 .38889-.46875.72266.0937.72266h1.6562601v-5.0000002z" stroke-linecap="square" stroke-width=".75"/><g stroke-linecap="round" stroke-width=".749998"><path d="m7.4969279 5.5000098c-.41281.002-.74644.36496-.74643.77777 0 .38889.46875.72222-.0937.72222h.89062.0469.75c-.5625 0-.0937-.33333-.0937-.72222 0-.41421-.33579-.77777-.75-.77777-.002-.00001-.002-.00001-.004 0z"/><path d="m11.500548 9.49637c-.002-.41281-.36496-.74644-.77777-.74643-.38889 0-.72222.46875-.72222-.0937v.89062.0469.75c0-.5625.33333-.0937.72222-.0937.41421 0 .77777-.33579.77777-.75.00001-.002.00001-.002 0-.004z"/></g></g></svg>