<svg height="16" viewBox="0 0 4.233125 4.233125" width="16" xmlns="http://www.w3.org/2000/svg" xmlns:xlink="http://www.w3.org/1999/xlink"><linearGradient id="a" gradientTransform="matrix(0 1 -1 0 572 -84)" gradientUnits="userSpaceOnUse" x1="329" x2="329" y1="239" y2="250"><stop offset="0" stop-color="#fff"/><stop offset=".125" stop-color="#fff" stop-opacity=".098039"/><stop offset=".92500001" stop-color="#fff" stop-opacity=".098039"/><stop offset="1" stop-color="#fff" stop-opacity=".498039"/></linearGradient><clipPath id="b"><path d="m325.09646 237c-2.80769 0-3.10979.28839-3.09603 3.10176v3.89824 3.89824c-.0138 2.81337.28834 3.10176 3.09603 3.10176h5.8075c2.8077 0 3.09604-.28835 3.09604-3.10176v-3.89824-3.89824c0-2.8134-.28835-3.10176-3.09604-3.10176z"/></clipPath><linearGradient id="c" gradientTransform="matrix(-.04805881 0 0 -.04805745 671.87809 223.41872)" gradientUnits="userSpaceOnUse" x1="459.03448" x2="35.310345" y1="419.23337" y2="207.36522"><stop offset="0" stop-color="#f2f2f2"/><stop offset="1" stop-color="#f9f9f9"/></linearGradient><g enable-background="new" opacity=".75" transform="matrix(.19842733 0 0 .19842733 -128.84533 -39.156322)"><path d="m654.80164 199.99927c-.95886 0-1.73977.0167-2.44792.13542-.71396.11973-1.42308.36933-1.96875.91407-.5461.5452-.79652 1.25224-.91667 1.96615-.11907.7076-.13541 1.48843-.13541 2.44531v7.74481c0 .95694.0165 1.73686.13541 2.44532.12.71534.37193 1.42536.91667 1.97136.54457.54584 1.25199.79491 1.96875.91405.70925.11787 1.49186.13488 2.45054.13027h5.19531 5.19532c.95808.004 1.74086-.012 2.45054-.13027.71677-.11906 1.42419-.3682 1.96875-.91405.54472-.54601.79398-1.25606.91406-1.97136.11889-.70847.13802-1.48838.13802-2.44532v-7.74481c0-.95688-.0189-1.73771-.13802-2.44531-.12014-.71389-.36795-1.42094-.91406-1.96615-.54568-.54473-1.25483-.79431-1.96875-.91407-.70815-.11875-1.48906-.13542-2.44792-.13542h-5.19794z" opacity=".1"/><path d="m649.99926 211.8714c0 .94731.0205 1.69793.1276 2.33594.10707.63802.31637 1.19562.72918 1.60938.41278.41376.96813.62301 1.60677.72917.63863.10614 1.39137.1244 2.34115.11974h5.19532 5.19793c.94828.004 1.70062-.0137 2.33854-.11974.63864-.10613 1.19399-.3154 1.60678-.72917.4128-.41378.62206-.97135.72917-1.60938.10707-.63803.1276-1.38863.1276-2.33594v-7.74481c0-.94731-.0204-1.69648-.1276-2.33334-.1072-.63684-.31617-1.19446-.72917-1.60678-.413-.41228-.96909-.61958-1.60678-.72656-.63768-.10693-1.38935-.1276-2.33854-.1276h-5.19793-5.19793c-.94919 0-1.70086.0207-2.33854.1276-.63769.10694-1.19377.31427-1.60677.72656-.41301.41232-.62201.96994-.72918 1.60678-.1072.63686-.1276 1.38603-.1276 2.33334z" fill="url(#c)"/><path d="m660.12781 206.9853c0 .7848-1.25566 1.56959-1.25566 2.51133 0 1.09872 1.25566 1.56957 5.17961 1.56957v.62784c-3.92395 0-5.49354-.78478-5.49354-2.19741 0-1.0987 1.25567-1.8835 1.25567-2.51133 0-.47087-.47088-3.13914-5.17961-3.13914 4.70873 0 5.49353 2.35435 5.49353 3.13914z" stroke="#000" stroke-width=".175469"/><g fill="#fff"><path d="m665.72559 211.38012c0 .92443-.74942 1.67385-1.67383 1.67385-.92445 0-1.67385-.74942-1.67385-1.67385s.7494-1.67383 1.67385-1.67383c.92441 0 1.67383.7494 1.67383 1.67383z" stroke="#1c399e" stroke-width=".384001"/><path d="m659.64523 209.48345c0 .5044-.4164.9133-.93003.9133-.51366 0-.93004-.4089-.93004-.9133s.41638-.91329.93004-.91329c.51363 0 .93003.40889.93003.91329z" stroke="#1c399e" stroke-width=".318667"/><path d="m660.69388 206.41406c0 .48696-.39474.88172-.88171.88172-.48696 0-.88172-.39476-.88172-.88172s.39476-.88174.88172-.88174c.48697 0 .88171.39478.88171.88174z" stroke="#1c399e" stroke-width=".353334"/><ellipse cx="654.85791" cy="203.87837" rx=".773122" ry=".771558" stroke="#1c399e" stroke-width=".353334"/><g enable-background="new" opacity=".1" transform="matrix(0 1.3333361 1.3333361 0 334.66528 -229.33464)"><path d="m328 237v14h2.9043c2.8077 0 3.0957-.28815 3.0957-3.10156v-3.89844-3.89844c0-2.8134-.28801-3.10156-3.0957-3.10156z" opacity=".04"/><path d="m322 244v3.89844c-.0138 2.81337.28801 3.10156 3.0957 3.10156h5.8086c2.8077 0 3.0957-.28815 3.0957-3.10156v-3.89844z" opacity=".04"/></g></g><path d="m649.99925 211.87139c0 .94731.0205 1.69792.1276 2.33594.10706.63801.31637 1.19561.72917 1.60938.41279.41376.96814.62301 1.60678.72917.63863.10613 1.39136.1244 2.34115.11973h5.19532 5.19793c.94828.004 1.70062-.0137 2.33854-.11973.63864-.10613 1.19399-.3154 1.60677-.72917.4128-.41378.62207-.97135.72918-1.60938.10706-.63803.1276-1.38863.1276-2.33594v-7.74481c0-.94731-.0204-1.69649-.1276-2.33334-.1072-.63684-.31618-1.19446-.72918-1.60678-.413-.41228-.96908-.61959-1.60677-.72656-.63768-.10693-1.38935-.1276-2.33854-.1276h-5.19793-5.19793c-.94919 0-1.70086.0207-2.33854.1276-.6377.10693-1.19378.31427-1.60678.72656-.413.41232-.622.96994-.72917 1.60678-.1072.63685-.1276 1.38603-.1276 2.33334z" fill="none" opacity=".2" stroke="#000" stroke-width="1.333336"/><path clip-path="url(#b)" d="m325.09646 237c-2.80769 0-3.10979.28839-3.09603 3.10176v3.89824 3.89824c-.0138 2.81337.28834 3.10176 3.09603 3.10176h5.8075c2.8077 0 3.09604-.28835 3.09604-3.10176v-3.89824-3.89824c0-2.8134-.28835-3.10176-3.09604-3.10176z" fill="none" opacity=".4" stroke="url(#a)" stroke-width="2" transform="matrix(0 -1.3333361 1.3333361 0 334.66558 645.33351)"/></g></svg>