<svg height="16" viewBox="0 0 4.233125 4.233125" width="16" xmlns="http://www.w3.org/2000/svg" xmlns:xlink="http://www.w3.org/1999/xlink"><linearGradient id="a" gradientUnits="userSpaceOnUse" x1="328" x2="328" y1="237" y2="251"><stop offset="0" stop-color="#fff"/><stop offset=".125" stop-color="#fff" stop-opacity=".098039"/><stop offset=".92500001" stop-color="#fff" stop-opacity=".098039"/><stop offset="1" stop-color="#fff" stop-opacity=".498039"/></linearGradient><clipPath id="b"><path d="m325.09646 237c-2.80769 0-3.10979.28839-3.09603 3.10176v3.89824 3.89824c-.0138 2.81337.28834 3.10176 3.09603 3.10176h5.8075c2.8077 0 3.09604-.28835 3.09604-3.10176v-3.89824-3.89824c0-2.8134-.28835-3.10176-3.09604-3.10176z"/></clipPath><g enable-background="new" opacity=".75" transform="matrix(.19842733 0 0 .19842733 -128.84533 -39.156322)"><path d="m663.87174 197.99998c.9473 0 1.69792.0205 2.33593.1276.63802.10707 1.19562.31637 1.60938.72917.41376.41279.62302.96814.72918 1.60678.10613.63863.1244 1.39136.11973 2.34115v5.19532 5.19793c.004.94828-.0137 1.70062-.11973 2.33854-.10614.63864-.3154 1.19399-.72918 1.60677-.41377.41281-.97135.62207-1.60938.72918-.63802.10707-1.38863.1276-2.33593.1276h-7.74482c-.94731 0-1.69648-.0204-2.33334-.1276-.63684-.1072-1.19445-.31617-1.60677-.72918-.41229-.413-.61959-.96908-.72657-1.60677-.10693-.63768-.1276-1.38935-.1276-2.33854v-5.19793-5.19793c0-.94919.0207-1.70086.1276-2.33854.10694-.63769.31427-1.19378.72657-1.60678.41232-.413.96993-.622 1.60677-.72917.63686-.1072 1.38603-.1276 2.33334-.1276z" fill="#1f74bd"/><g fill="#fff"><path d="m659.99993 198.66665v18.6667h3.87241c3.7436 0 4.1276-.3842 4.1276-4.13542v-5.19793-5.19793c0-3.75121-.38401-4.13542-4.1276-4.13542z" opacity=".08"/><path d="m651.99991 208v5.19793c-.0184 3.75117.38402 4.13542 4.12761 4.13542h7.74482c3.7436 0 4.1276-.3842 4.1276-4.13542v-5.19793z" opacity=".08"/><path d="m657.93335 207.70047c.36784-.50474 1.02239-.8987 2.05231-.90005 1.14795-.001 2.41606.83379 2.41606 2.4256l.0257 1.07362c0 1.65042.88122 2.13127 1.82089 2.13127.45176 0 1.50753-.30001 1.50753-1.70865v-3.51042c0-.51111.77699-.51111.77699 0v3.51042c-.0276 1.85682-1.3814 2.45114-2.28452 2.47598-1.44998.0399-2.59529-.79999-2.59529-2.8986l-.0263-1.13577c.007-1.03986-.96154-1.5579-1.65209-1.53202-.68954.0257-1.65209.43354-1.65209 1.39394v3.78942c0 .21219-.17344.38303-.3873.38303h-.001-.00099c-.21389 0-.38738-.17084-.38738-.38303v-3.78942c0-.9604-.96193-1.39394-1.65194-1.39394-.69 0-1.63643.49314-1.65216 1.64489v3.53847c0 .21092-.17344.38303-.38747.38303-.21387 0-.38732-.17084-.38732-.38303v-3.53847c0-1.8674 1.40909-2.41229 2.47104-2.41229 1.08195.0428 1.69439.66373 1.99531.83602z" stroke="#fff" stroke-width=".267527"/><path d="m663.33324 203.99999c.36836 0 .6667.29831.6667.66667s-.29834.66667-.6667.66667c-.36832 0-.66664-.29831-.66664-.66667s.29832-.66667.66664-.66667z" stroke-width=".454646"/><path d="m663.33305 202.43047c-1.41045 0-2.22615 1.18857-2.22615 2.28572 0 .82284-1.10679.82284-1.10697 0 0-1.92001 1.46121-3.38287 3.33312-3.38287 1.87196 0 3.33356 1.46286 3.33356 3.38287 0 .82284-1.11015.82284-1.11015 0 0-1.09715-.81292-2.28572-2.22341-2.28572z" stroke-width=".49616"/></g><path d="m656.12752 197.99998c-.94731 0-1.69792.0205-2.33594.1276-.63801.10707-1.19561.31637-1.60937.72917-.41377.41279-.62302.96814-.72918 1.60678-.10613.63863-.1244 1.39136-.11973 2.34115v5.19532 5.19793c-.004.94828.0137 1.70062.11973 2.33854.10613.63864.3154 1.19399.72918 1.60677.41377.41281.97134.62207 1.60937.72918.63803.10707 1.38863.1276 2.33594.1276h7.74482c.9473 0 1.69648-.0204 2.33333-.1276s1.19446-.31617 1.60678-.72918c.41228-.413.61959-.96908.72656-1.60677.10694-.63768.1276-1.38935.1276-2.33854v-5.19793-5.19793c0-.94919-.0207-1.70086-.1276-2.33854-.10693-.63769-.31426-1.19378-.72656-1.60678-.41232-.413-.96993-.622-1.60678-.72917-.63685-.1072-1.38603-.1276-2.33333-.1276z" fill="none" opacity=".4" stroke="#000" stroke-width="1.333336"/><path clip-path="url(#b)" d="m325.09646 237c-2.80769 0-3.10979.28839-3.09603 3.10176v3.89824 3.89824c-.0138 2.81337.28834 3.10176 3.09603 3.10176h5.8075c2.8077 0 3.09604-.28835 3.09604-3.10176v-3.89824-3.89824c0-2.8134-.28835-3.10176-3.09604-3.10176z" fill="none" opacity=".4" stroke="url(#a)" stroke-width="2" transform="matrix(1.3333361 0 0 1.3333361 222.6657 -117.334)"/></g></svg>