<svg height="16" width="16" xmlns="http://www.w3.org/2000/svg" xmlns:xlink="http://www.w3.org/1999/xlink"><linearGradient id="a" gradientUnits="userSpaceOnUse" x1="328" x2="328" y1="237" y2="251"><stop offset="0" stop-color="#fff"/><stop offset=".125" stop-color="#fff" stop-opacity=".098039"/><stop offset=".92500001" stop-color="#fff" stop-opacity=".098039"/><stop offset="1" stop-color="#fff" stop-opacity=".498039"/></linearGradient><clipPath id="b"><path d="m325.09646 237c-2.80769 0-3.10979.28839-3.09603 3.10176v3.89824 3.89824c-.0138 2.81337.28834 3.10176 3.09603 3.10176h5.8075c2.8077 0 3.09604-.28835 3.09604-3.10176v-3.89824-3.89824c0-2.8134-.28835-3.10176-3.09604-3.10176z"/></clipPath><linearGradient id="c" gradientTransform="matrix(0 -.03604403 .03604301 0 -3.260984 16.90909)" gradientUnits="userSpaceOnUse" x1="459.03448" x2="35.310345" y1="419.23337" y2="207.36522"><stop offset="0" stop-color="#f2f2f2"/><stop offset="1" stop-color="#f9f9f9"/></linearGradient><path d="m5.3994864 1.0000001c-.71904 0-1.30185.0139-1.83593.10352-.53409.0897-1.0683.27628-1.47657.68359-.40826.4073-.59657.94323-.68554 1.47851-.089.53529-.10119 1.12048-.0977 1.8418v2.89258 3.8984399c-.003.71816.009 1.30235.0977 1.83594.089.53528.27727 1.07121.68554 1.47851.40827.40731.94248.59394 1.47657.68359.53408.0897 1.11689.10352 1.83593.10352h5.8085996c.71904 0 1.30058-.0137 1.83398-.10352.53341-.0898 1.06768-.27792 1.47461-.68554s.59404-.94271.68359-1.47656c.08956-.53386.10352-1.11551.10352-1.83594v-3.8984399-2.89844c0-.72043-.014-1.30208-.10352-1.83594-.0895-.53385-.27666-1.06894-.68359-1.47656s-.9412-.59578-1.47461-.68554c-.5334-.08977-1.11494-.10352-1.83398-.10352z" opacity=".1"/><path d="m5.4002464 1.0000001c-2.80769 0-3.10979.28839-3.09603 3.10176v3.89824 3.8982399c-.0138 2.81337.28834 3.10176 3.09603 3.10176h5.8074996c2.8077 0 3.09604-.28835 3.09604-3.10176v-3.8982399-3.89824c0-2.8134-.28835-3.10176-3.09604-3.10176z" fill="none" opacity=".2" stroke="#000" stroke-width="2"/><path d="m5.4002464 1.0000001c-2.80769 0-3.10979.28839-3.09603 3.10176v3.89824 3.8982399c-.0138 2.81337.28834 3.10176 3.09603 3.10176h5.8074996c2.8077 0 3.09604-.28835 3.09604-3.10176v-3.8982399-3.89824c0-2.8134-.28835-3.10176-3.09604-3.10176z" fill="url(#c)"/><path d="m4.1478264-.7442999c-2.85426 0-3.16138001.29321-3.14739 3.15324v.16173c-.0139-2.86002.29313-3.15325 3.14739-3.15325h7.9373396c2.85424 0 3.14739.29319 3.14739 3.15325v-.16173c0-2.86006-.29315-3.15324-3.14739-3.15324z" fill="#fff" opacity=".6"/><g enable-background="new" opacity=".5" transform="matrix(.43914317 0 0 .41652563 -273.25728 -103.98525)"><path d="m634.06577 261.65775c-1.108 0-2 .892-2 2v8c0 1.108.892 2 2 2h1.52148l2.47852 3 2-3h8.22686c1.108 0 2-.892 2-2v-8c0-1.108-.892-2-2-2z" fill="#808080"/><path d="m260-648h16v16h-16z" fill="none" transform="rotate(90)"/><g fill="#fff"><rect height="1" opacity="1" rx=".25" width="10" x="635.0658" y="268.34113"/><rect height="1" opacity="1" rx=".25" width="7" x="635.0658" y="270.34113"/></g></g><path d="m8.3037859 1.0000001v13.9999999h2.9043001c2.8077 0 3.0957-.28815 3.0957-3.10156v-3.8984399-3.89844c0-2.8134-.28801-3.10156-3.0957-3.10156z" fill="#fff" opacity=".2"/><path d="m2.3037864 8.0000001v3.8984399c-.0138 2.81337.28801 3.10156 3.0957 3.10156h5.8085996c2.8077 0 3.0957-.28815 3.0957-3.10156v-3.8984399z" fill="#fff" opacity=".2"/><path clip-path="url(#b)" d="m325.09646 237c-2.80769 0-3.10979.28839-3.09603 3.10176v3.89824 3.89824c-.0138 2.81337.28834 3.10176 3.09603 3.10176h5.8075c2.8077 0 3.09604-.28835 3.09604-3.10176v-3.89824-3.89824c0-2.8134-.28835-3.10176-3.09604-3.10176z" fill="none" opacity=".4" stroke="url(#a)" stroke-width="2" transform="translate(-319.69621 -236)"/></svg>