<svg height="48" viewBox="0 0 12.699375 12.699376" width="48" xmlns="http://www.w3.org/2000/svg" xmlns:xlink="http://www.w3.org/1999/xlink"><linearGradient id="a" gradientUnits="userSpaceOnUse" x1="344" x2="344" y1="62" y2="106"><stop offset="0" stop-color="#fff"/><stop offset=".125" stop-color="#fff" stop-opacity=".098039"/><stop offset=".92500001" stop-color="#fff" stop-opacity=".098039"/><stop offset="1" stop-color="#fff" stop-opacity=".498039"/></linearGradient><clipPath id="b"><path d="m335.73108 62c-8.82418 0-9.77365.90635-9.7304 9.74838v12.25162 12.25162c-.0433 8.84203.90622 9.74838 9.7304 9.74838h16.53919c8.82418 0 9.7304-.90625 9.7304-9.74838v-12.25162-12.25162c0-8.84213-.90622-9.74838-9.7304-9.74838z"/></clipPath><linearGradient id="c" gradientUnits="userSpaceOnUse" x1="178.16689" x2="-13.92912" y1="137.53882" y2="128.91682"><stop offset="0" stop-color="#5995e8"/><stop offset="1" stop-color="#63a0e6" stop-opacity=".01"/></linearGradient><linearGradient id="d" gradientTransform="matrix(0 -.02997086 .02997 0 -3.039509 13.625372)" gradientUnits="userSpaceOnUse" x1="258.63461" x2="49.063271" y1="317.0658" y2="466.71368"><stop offset="0" stop-color="#fff755" stop-opacity="0"/><stop offset="1" stop-color="#fffa3b" stop-opacity=".992157"/></linearGradient><linearGradient id="e" gradientTransform="matrix(0 -.02997086 .02997 0 -3.039509 13.625372)" gradientUnits="userSpaceOnUse" x1="258.63461" x2="47.098564" y1="317.0658" y2="152.35193"><stop offset="0" stop-color="#2ffffe" stop-opacity="0"/><stop offset="1" stop-color="#14ffff" stop-opacity=".886275"/></linearGradient><linearGradient id="f" gradientTransform="matrix(0 -.02997086 .02997 0 -3.039509 13.625372)" gradientUnits="userSpaceOnUse" x1="462.9639" x2="184.6279" y1="301.34772" y2="309.53281"><stop offset="0" stop-color="#ff10ff" stop-opacity=".988235"/><stop offset="1" stop-color="#ff0bff" stop-opacity=".009524"/></linearGradient><linearGradient id="g" gradientTransform="matrix(0 -.02997086 .02997 0 -3.039509 13.625372)" gradientUnits="userSpaceOnUse" x1="459.03448" x2="35.310345" y1="419.23337" y2="207.36522"><stop offset="0" stop-color="#f2f2f2"/><stop offset="1" stop-color="#f9f9f9"/></linearGradient><path d="m4.1621984.39685634c-.5881821 0-1.0513178.013541-1.4323996.077511-.3810844.063969-.6929229.1839555-.9213476.4118408-.2284221.22788546-.3489842.53958346-.4123567.92082876-.063373.3812456-.075744.8453924-.07286 1.4349839v3.239953 3.2415032c-.00286.588686.00955 1.052597.07286 1.433433.063373.381246.1839346.692944.4123567.920829.2284247.227885.5402632.347873.9213476.411841.3810845.06397.8442175.07751 1.4323996.07751h4.3757445c.5881822 0 1.0510744-.01352 1.4313678-.07751.3802933-.064.6911793-.18439.9187603-.412357.227583-.227967.347434-.539443.411325-.920313.06389-.380867.07751-.844073.07751-1.433433v-3.2415033-3.2415031c0-.5893606-.01362-1.0525645-.07751-1.4334338-.06389-.3808691-.183742-.6923443-.411325-.92031206-.227581-.2279676-.538467-.3483608-.9187603-.4123575-.3802934-.0639969-.8431856-.0775109-1.4313678-.0775109z" opacity=".1"/><path d="m4.1623598.39685634c-2.3346162 0-2.5858177.2397933-2.5743751 2.57913206v3.241415 3.2414151c-.011456 2.3393385.2397589 2.5791325 2.5743751 2.5791325h4.3757789c2.3346163 0 2.5743753-.239767 2.5743753-2.5791325v-3.2414151-3.241415c0-2.33936516-.239759-2.57913206-2.5743753-2.57913206z" fill="none" opacity=".2" stroke="#000" stroke-width=".529141"/><path d="m4.1623598.39685634c-2.3346162 0-2.5858177.2397933-2.5743751 2.57913206v3.241415 3.2414151c-.011456 2.3393385.2397589 2.5791325 2.5743751 2.5791325h4.3757789c2.3346163 0 2.5743753-.239767 2.5743753-2.5791325v-3.2414151-3.241415c0-2.33936516-.239759-2.57913206-2.5743753-2.57913206z" fill="url(#g)"/><path d="m4.1623598.39685634c-2.3346162 0-2.5858177.2397933-2.5743751 2.57913206v3.241415 3.2414151c-.011456 2.3393385.2397589 2.5791325 2.5743751 2.5791325h4.3757789c2.3346163 0 2.5743753-.239767 2.5743753-2.5791325v-3.2414151-3.241415c0-2.33936516-.239759-2.57913206-2.5743753-2.57913206z" fill="url(#f)"/><path d="m4.1623598.39685634c-2.3346162 0-2.5858177.2397933-2.5743751 2.57913206v3.241415 3.2414151c-.011456 2.3393385.2397589 2.5791325 2.5743751 2.5791325h4.3757789c2.3346163 0 2.5743753-.239767 2.5743753-2.5791325v-3.2414151-3.241415c0-2.33936516-.239759-2.57913206-2.5743753-2.57913206z" fill="url(#e)"/><path d="m4.1623598.39685634c-2.3346162 0-2.5858177.2397933-2.5743751 2.57913206v3.241415 3.2414151c-.011456 2.3393385.2397589 2.5791325 2.5743751 2.5791325h4.3757789c2.3346163 0 2.5743753-.239767 2.5743753-2.5791325v-3.2414151-3.241415c0-2.33936516-.239759-2.57913206-2.5743753-2.57913206z" fill="url(#d)"/><g enable-background="new" transform="matrix(.02351022 0 0 .02351022 5.112077 4.860975)"><path d="m-22.552093 87.239825c17.2643603 36.266055 66.11848 56.467135 96.28742 57.485025 14.86081-.0446 30.776773-3.86851 44.071863-9.58084s26.71582-22.49711 40.71855-20.11977 16.72673 20.39173 19.64073 31.61677-.77395 19.70712-3.3533 25.86827-2.42232 6.37966-8.62275 11.01796-20.84612 9.27065-30.17964 11.97604c-59.897943 15.03655-121.936043-17.04076-150.419163-68.98203-6.42452-11.95737-11.46919-26.35415-12.45509-34.011965-.9859-7.65782-1.6128-9.38178.95808-10.05988s3.59282 2.87425 3.3533 4.79042z" fill="url(#c)"/><path d="m120.67249 64.465205c1.91616.95809 37.36527 36.407195 37.36527 36.407195l3.35329 4.31138s-14.37126 21.07784-16.76647 19.16168c-2.39521-1.91617-47.425136-34.011981-47.425136-34.011981-6.52132-13.025634 11.214256-31.804604 23.473046-25.868274z" opacity=".2"/><path d="m-76.153067-80.488449c21.47842 12.763076 60.5395 37.12516 60.5395 37.12516s40.16866 24.294753 52.83643 32.266595c12.66776 7.971842 14.42328 8.668474 25.03647 15.086769 10.61318 6.418296 23.46674 16.593385 23.46674 16.593385s13.020791 11.468863 17.009687 16.204355c3.9889 4.735491 7.42464 9.215321 9.93967 14.081191s5.71621 14.517157 5.71621 14.517157l-16.38369 28.307804s-5.884137 1.65296-13.275857.63811c-7.39172-1.01486-18.16929-6.23556-25.70474-10.28277-7.53545-4.047204-11.12653-6.33595-19.4379-13.32394-8.31137-6.987991-16.41871-15.754522-29.68549-29.296469-6.1262999-6.25336-16.8535298-18.538782-27.2566-29.636638-12.12527-12.935074-23.60019-24.361826-23.60019-24.361826s-33.4884-34.461938-50.01415-53.304392c-6.02555-9.157819 2.47067-17.640083 10.81391-14.614491z" fill="#180000" opacity=".2"/><path d="m-73.434241-83.207275c21.47842 12.763076 60.5395 37.12516 60.5395 37.12516s40.16866 24.294753 52.83643 32.266595c12.66776 7.9718421 14.42328 8.6684741 25.03647 15.0867691 10.61318 6.418296 23.46674 16.5933849 23.46674 16.5933849s13.020791 11.468863 17.009691 16.204355c3.9889 4.735491 7.42464 9.215321 9.93967 14.081191s5.71621 14.517157 5.71621 14.517157l-16.38369 28.307804s-5.884141 1.65296-13.275861.63811c-7.39172-1.01486-18.16929-6.23556-25.70474-10.28277-7.53545-4.047204-11.12653-6.33595-19.4379-13.32394-8.31137-6.987991-16.41871-15.754522-29.68549-29.296469-6.1263-6.25336-16.8535299-18.538782-27.2566-29.6366379-12.12527-12.935074-23.60019-24.3618261-23.60019-24.3618261s-33.4884-34.461938-50.01415-53.304392c-6.02555-9.157819 2.47067-17.640083 10.81391-14.614491z" fill="#494949"/><path d="m121.11047 62.667337c1.91616.95809 37.36527 36.407194 37.36527 36.407194l3.35329 4.311379s-14.37126 21.07784-16.76647 19.16168c-2.39521-1.91617-47.425151-34.011979-47.425151-34.011979-6.52132-13.025634 11.214271-31.804604 23.473061-25.868274z" fill="#bfbebf"/><path d="m163.35248 181.96031c3.92757-7.69867 2.41927-16.17171-4.71877-26.50828-13.30017-19.25991-15.98059-24.6234-16.45096-32.9182-.46366-8.17644 5.96708-18.33446 14.29743-22.584289 16.5865-8.4618 37.83479 11.463759 37.83479 35.479529 0 17.82282-9.53306 34.08475-28.09439 47.92467-4.84784 3.6147-5.30881 3.39074-2.8681-1.39343z"/></g><path d="m1.5878048 6.2174034v3.2415032c-.011456 2.3393384.2397775 2.5790444 2.5743936 2.5790444h4.3757445c2.3346161 0 2.5743941-.23968 2.5743941-2.5790444v-3.2415032z" fill="#fff" opacity=".2"/><path d="m6.3500707.39685634v11.64109466h2.1878722c2.3346161 0 2.5743941-.23968 2.5743941-2.5790444v-3.2415032-3.2415031c0-2.33936516-.239778-2.57904396-2.5743941-2.57904396z" fill="#fff" opacity=".1"/><path clip-path="url(#b)" d="m335.73108 62c-8.82418 0-9.77365.90635-9.7304 9.74838v12.25162 12.25162c-.0433 8.84203.90622 9.74838 9.7304 9.74838h16.53919c8.82418 0 9.7304-.90625 9.7304-9.74838v-12.25162-12.25162c0-8.84213-.90622-9.74838-9.7304-9.74838z" fill="none" opacity=".4" stroke="url(#a)" stroke-width="2" transform="matrix(.26457032 0 0 .26457032 -84.662119 -16.006504)"/></svg>