<svg height="16" viewBox="0 0 4.233125 4.233125" width="16" xmlns="http://www.w3.org/2000/svg" xmlns:xlink="http://www.w3.org/1999/xlink"><linearGradient id="a" gradientUnits="userSpaceOnUse" x1="328" x2="328" y1="237" y2="251"><stop offset="0" stop-color="#fff"/><stop offset=".125" stop-color="#fff" stop-opacity=".098039"/><stop offset=".92500001" stop-color="#fff" stop-opacity=".098039"/><stop offset="1" stop-color="#fff" stop-opacity=".498039"/></linearGradient><clipPath id="b"><path d="m325.09646 237c-2.80769 0-3.10979.28839-3.09603 3.10176v3.89824 3.89824c-.0138 2.81337.28834 3.10176 3.09603 3.10176h5.8075c2.8077 0 3.09604-.28835 3.09604-3.10176v-3.89824-3.89824c0-2.8134-.28835-3.10176-3.09604-3.10176z"/></clipPath><linearGradient id="c" gradientTransform="matrix(0 -.00953618 -.00953591 0 5.176271 4.473643)" gradientUnits="userSpaceOnUse" x1="459.03448" x2="35.310345" y1="419.23337" y2="207.36522"><stop offset="0" stop-color="#da1636"/><stop offset="1" stop-color="#f22c42"/></linearGradient><path d="m2.8849678.13228484c.187972 0 .336914.00407.463514.025319.126599.02125.237243.06278.319344.144689.0821.08191.123623.192104.144688.318828.02106.126721.02468.276084.02376.46454796v1.030893 1.031412c.000794.188165-.0027.337449-.02376.46403-.02106.126724-.06258.23692-.144688.318828-.0821.08191-.192742.123435-.319344.144688-.126602.02125-.275542.02532-.463514.02532h-1.536783c-.187972 0-.336629-.004-.46299796-.02532-.126367-.02127-.237013-.06274-.318829-.144688-.08181-.08195-.122943-.192292-.144169-.318828-.02122-.126534-.02532-.275685-.02532-.46403v-1.031412-1.031411c0-.18834496.0041-.33749696.02532-.46402996.02122-.126536.06236-.236878.144169-.318828.08182-.08195.192462-.123422.318829-.144689.12636896-.02127.27502596-.025319.46299796-.025319z" fill="url(#c)"/><path clip-rule="evenodd" d="m2.2832998.96206184-.805825.95433996c.209878.03366.564299.299004.510838.651411.108897-.261353-.09109-.580141-.283141-.708836l.702884-.839485c-.03765-.02772-.06734-.04159-.124756-.05743zm-.271076.06654c-.03134.000108-.05486.0048-.05362.0048l-.257382.294996c-.144542.0079-.285122.01783-.421746.03168-.09702.0099-.17423.08712-.188088.190076-.01982.180175-.0297.370253-.0297.566267 0 .196013.0099.386088.0297.568239.01389.114869.09107.172288.188088.190081.26928.04356.659338.0021.659338-.368272 0-.346491-.568249-.494987-.762285-.399953l.896909-1.071148c-.02072-.0052-.0424-.0068-.06121-.0068zm.591823.303703s-.504853 1.120667-.554354 1.235511c-.07524.170278-.178194.295018-.326694.338574.130682.006.261348.0079.395985.0079.294985 0 .576173-.01389.839505-.0396.09699-.0099.176212-.0891.188094-.190078.02183-.182151.03167-.372224.03167-.568239s-.0099-.38609-.03167-.566265c-.01188-.10296-.09108-.180175-.188094-.190083-.114842-.01188-.233639-.0218-.354442-.02773z" fill="#fff" fill-rule="evenodd" stroke-width=".26457"/><g fill="none"><path d="m1.3483038.13228484c-.187972 0-.336915.00407-.46351396.025319-.1266.02125-.237243.06278-.319345.144689-.0821.08191-.123623.192104-.144688.318828-.02106.126721-.02468.276084-.02376.46454796v1.030893 1.031412c-.000794.188165.0027.337449.02376.46403.02106.126724.06258.23692.144688.318828.08211.08191.192743.123435.319345.144688.12660196.02125.27554196.02532.46351396.02532h1.536783c.187972 0 .336629-.004.462998-.02532.126367-.02127.237013-.06274.318828-.144688.08181-.08195.122943-.192292.14417-.318828.02122-.126534.02532-.275685.02532-.46403v-1.031412-1.031411c0-.18834496-.0041-.33749696-.02532-.46402996-.02122-.126536-.06236-.236878-.14417-.318828-.08182-.08195-.192461-.123422-.318828-.144689-.126369-.02127-.275026-.025319-.462998-.025319z" opacity=".4" stroke="#000" stroke-width=".26457"/><path clip-path="url(#b)" d="m325.09646 237c-2.80769 0-3.10979.28839-3.09603 3.10176v3.89824 3.89824c-.0138 2.81337.28834 3.10176 3.09603 3.10176h5.8075c2.8077 0 3.09604-.28835 3.09604-3.10176v-3.89824-3.89824c0-2.8134-.28835-3.10176-3.09604-3.10176z" opacity=".4" stroke="url(#a)" stroke-width="2" transform="matrix(.26457031 0 0 .26457031 -84.662367 -62.438594)"/></g></svg>