<svg height="16" viewBox="0 0 4.233125 4.233125" width="16" xmlns="http://www.w3.org/2000/svg" xmlns:xlink="http://www.w3.org/1999/xlink"><linearGradient id="a" gradientUnits="userSpaceOnUse" x1="328" x2="328" y1="237" y2="251"><stop offset="0" stop-color="#fff"/><stop offset=".125" stop-color="#fff" stop-opacity=".098039"/><stop offset=".92500001" stop-color="#fff" stop-opacity=".098039"/><stop offset="1" stop-color="#fff" stop-opacity=".498039"/></linearGradient><clipPath id="b"><path d="m325.09646 237c-2.80769 0-3.10979.28839-3.09603 3.10176v3.89824 3.89824c-.0138 2.81337.28834 3.10176 3.09603 3.10176h5.8075c2.8077 0 3.09604-.28835 3.09604-3.10176v-3.89824-3.89824c0-2.8134-.28835-3.10176-3.09604-3.10176z"/></clipPath><linearGradient id="c" gradientTransform="matrix(0 -.00953618 .00953591 0 -.942985 4.473643)" gradientUnits="userSpaceOnUse" x1="459.03448" x2="35.310345" y1="419.23337" y2="207.36522"><stop offset="0" stop-color="#f2f2f2"/><stop offset="1" stop-color="#f9f9f9"/></linearGradient><path d="m1.3483185.2645703c-.1902366 0-.3444309.003678-.48573256.0273883-.14130436.023732-.28264046.0730955-.39065659.18085764-.10801348.10775949-.15783472.24955066-.18137354.39116985-.0235468.14162181-.0267719.29644571-.0258485.48728561v.7652908 1.0314115c-.00079371.1900038.002381.3445631.0258485.4857352.0235468.1416192.0733574.2834104.18137354.3911699.10801613.1077621.24935223.1571389.39065659.1808576.14130166.023732.29549596.027388.48573256.027388h1.5367831c.1902367 0 .3440949-.00362.4852167-.027388.1411245-.0237584.2824765-.0735294.3901381-.1813736.1076616-.1078441.1571653-.249413.1808576-.3906539.0236949-.1412435.0273883-.2951308.0273883-.4857352v-1.0314115-.7668412c0-.1906044-.0037-.3444917-.027388-.48573521-.0236794-.14124086-.0731963-.28280979-.1808579-.39065394s-.2490136-.1576257-.3901381-.18137353c-.1411218-.02375048-.29498-.02738832-.4852167-.02738832z" opacity=".1"/><path d="m1.3485196.2645703c-.74283143 0-.82275813.0762994-.81911763.8206336v1.0313586 1.0313586c-.003651.7443342.0762862.8206336.81911763.8206336h1.5364921c.7428341 0 .8191203-.076289.8191203-.8206336v-1.0313586-1.0313586c0-.7443421-.076289-.8206336-.8191203-.8206336z" fill="none" opacity=".2" stroke="#000" stroke-width=".529141"/><path d="m1.3485196.2645703c-.74283143 0-.82275813.0762994-.81911763.8206336v1.0313586 1.0313586c-.003651.7443342.0762862.8206336.81911763.8206336h1.5364921c.7428341 0 .8191203-.076289.8191203-.8206336v-1.0313586-1.0313586c0-.7443421-.076289-.8206336-.8191203-.8206336z" fill="url(#c)"/><g enable-background="new" transform="matrix(.11340608 0 0 .11340608 -36.90858 -7.380446)"><path d="m338.62647 91.484691 1.53392-5.229131 1.3104 8.252774 1.94918-9.583827 1.05457 9.127215 1.9174-9.79274.95871 9.50751 1.53392-6.750334.86282 3.898083" fill="none" stroke="#eab305" stroke-width=".813853"/><path d="m349.18524 92.843284-1.46585-7.572342-1.66575 9.207283-1.19933-8.26074-2.32944 6.49772-1.3352-7.644442-2.4653 8.288822-2.42889-6.710392" fill="none" stroke="#f60000" stroke-linecap="round" stroke-linejoin="bevel" stroke-width=".783117"/><path d="m460 140c-1.43719-.00082-2.59548.26776-3.53711.69922-.19253.0849-.3801.17695-.56055.2793-.0489.0286-.0932.0602-.14062.0898-.11916.0722-.23898.14417-.35156.22461-.0931.0665-.17671.14019-.26368.21094-.61254.49828-1.06089 1.10259-1.39453 1.75976-.0166.033-.0388.0645-.0547.0977-.0164.0341-.0273.0692-.043.10351-.20436.44371-.37317.902-.47266 1.37891-.0186.0893-.0217.18147-.0371.27148-.0451.24538-.0797.48765-.10156.72657-.002.0216-.004.0428-.006.0645-.0241.28728-.017.54917-.0137.81836.002.0999-.00079.19901.004.29883.0132.28766.0348.54468.0703.79492.0213.17484.0492.34669.0781.51953.005.023.007.0557.0117.0781v.002l.0215.0976c.031.16986.0542.3429.0918.50977l.10938.48828.008-.002 1.05469 5.00781 1.17382-.20703c.66034-.11709 1.13106-.21985 1.34961-.39453.10972-.0877.17262-.18253.20508-.35156.0325-.16904.0242-.41548-.0469-.75196l-.79102-3.74023c-.0711-.33649-.16295-.56845-.26367-.7168s-.20256-.21859-.34375-.26367c-.28239-.0902-.75932-.024-1.42383.0937l-.16211.0293c-.18209-1.06859-.21795-2.17204-.01-3.16992.24666-1.18237.80309-2.20573 1.83007-2.93946 1.01145-.72263 2.51511-1.08713 4.00977-1.08398 1.49466-.003 2.99832.36135 4.00977 1.08398 1.02698.73373 1.58341 1.75709 1.83007 2.93946.20795.99788.17233 2.10133-.01 3.16992l-.16211-.0293c-.66451-.1177-1.14144-.18395-1.42383-.0937-.14119.0451-.24303.11532-.34375.26367s-.19257.38031-.26367.7168l-.79102 3.74023c-.0711.33648-.0794.58292-.0469.75196.0325.16903.0954.26386.20508.35156.21855.17468.68927.27744 1.34961.39453l1.17382.20703 1.05469-5.00781.008.002.10938-.48828c.0376-.16687.0608-.3399.0918-.50977l.0215-.0976v-.002c.005-.0224.007-.0551.0117-.0781.0289-.17284.0568-.34469.0781-.51953.0355-.25024.0571-.50726.0703-.79492.005-.0998.002-.19893.004-.29883.003-.26919.0104-.53108-.0137-.81836-.002-.0217-.004-.0428-.006-.0645-.0219-.23892-.0565-.48119-.10156-.72657-.0154-.09-.0185-.18218-.0371-.27148-.0995-.47691-.2683-.9352-.47266-1.37891-.0157-.0343-.0266-.0694-.043-.10351-.0159-.0332-.0381-.0647-.0547-.0977-.33364-.65717-.78199-1.26148-1.39453-1.75976-.087-.0708-.17058-.14444-.26368-.21094-.11258-.0804-.2324-.15241-.35156-.22461-.0474-.0296-.0917-.0612-.14062-.0898-.18045-.10235-.36802-.1944-.56055-.2793-.94117-.43146-2.09946-.70004-3.53665-.69922z" fill="#234db8" transform="matrix(1.6883939 0 0 1.6883939 -432.54085 -165.30985)"/></g><path d="m2.1167101.2645703v3.7039844h.7683915c.7428341 0 .8190304-.076236.8190304-.8205807v-1.0314115-1.0314115c0-.74434212-.076199-.8205807-.8190304-.8205807z" fill="#fff" opacity=".2"/><path d="m.5292882 2.1165625v1.0314115c-.003651.7443342.0761989.8205807.8190303.8205807h1.5367831c.7428341 0 .8190304-.076236.8190304-.8205807v-1.0314115z" fill="#fff" opacity=".2"/><path clip-path="url(#b)" d="m325.09646 237c-2.80769 0-3.10979.28839-3.09603 3.10176v3.89824 3.89824c-.0138 2.81337.28834 3.10176 3.09603 3.10176h5.8075c2.8077 0 3.09604-.28835 3.09604-3.10176v-3.89824-3.89824c0-2.8134-.28835-3.10176-3.09604-3.10176z" fill="none" opacity=".4" stroke="url(#a)" stroke-width="2" transform="matrix(.26457031 0 0 .26457031 -84.662352 -62.438594)"/></svg>