<svg height="16" viewBox="0 0 4.233125 4.233125" width="16" xmlns="http://www.w3.org/2000/svg" xmlns:xlink="http://www.w3.org/1999/xlink"><linearGradient id="a" gradientTransform="matrix(0 1 -1 0 572 -84)" gradientUnits="userSpaceOnUse" x1="329" x2="329" y1="239" y2="250"><stop offset="0" stop-color="#fff"/><stop offset=".125" stop-color="#fff" stop-opacity=".098039"/><stop offset=".92500001" stop-color="#fff" stop-opacity=".098039"/><stop offset="1" stop-color="#fff" stop-opacity=".498039"/></linearGradient><clipPath id="b"><path d="m325.09646 237c-2.80769 0-3.10979.28839-3.09603 3.10176v3.89824 3.89824c-.0138 2.81337.28834 3.10176 3.09603 3.10176h5.8075c2.8077 0 3.09604-.28835 3.09604-3.10176v-3.89824-3.89824c0-2.8134-.28835-3.10176-3.09604-3.10176z"/></clipPath><linearGradient id="c" gradientTransform="matrix(.00953618 0 0 .00953591 -.240515 -1.075499)" gradientUnits="userSpaceOnUse" x1="459.03448" x2="35.310345" y1="419.23337" y2="207.36522"><stop offset="0" stop-color="#d85eca"/><stop offset="1" stop-color="#9b33ae"/></linearGradient><path d="m1.0852122.396713c-.19026604 0-.34521904.0033-.48573504.02687-.14167.02376-.282379.07329-.390654.181376-.10836.108183-.158052.248479-.181892.390138-.02363.140408-.02687.295345-.02687.485217v1.536783c0 .189882.0033.34464.02687.485217.02381.141944.0738.282831.181892.391172.108058.10831.248429.157732.390654.181374.140735.02339.296025.02676.48625404.02585h1.030893 1.030893c.190109.000794.345433-.0024.486253-.02585.142228-.02363.282598-.07306.390654-.181374.108088-.108344.157547-.249236.181374-.391172.02359-.14058.02739-.295335.02739-.485217v-1.536783c0-.189872-.0038-.344809-.02739-.485217-.02384-.141653-.07301-.281952-.181374-.390138-.108278-.108087-.248992-.157612-.390654-.181376-.140516-.02356-.295469-.02687-.485735-.02687h-1.031411z" opacity=".1"/><path d="m4.1008432 1.215804c0-.187971-.0041-.336914-.02532-.463513-.02125-.1266-.06278-.237243-.144689-.319345-.08191-.0821-.192104-.123623-.318828-.144688-.126721-.02106-.276085-.02468-.464549-.02376h-1.030892-1.031411c-.18816504-.000794-.33744904.0027-.46403004.02376-.126724.02106-.23692.06258-.318828.144688-.08191.0821-.123436.192742-.144689.319345-.02125.126602-.02532.275542-.02532.463513v1.536784c0 .187972.004.336628.02532.462998.02127.126366.06274.237012.144689.318828.08195.08181.192292.122943.318828.14417.126533.02122.275685.02532.46403004.02532h1.031411 1.031412c.188345 0 .337496-.0041.46403-.02532.126536-.02122.236877-.06236.318828-.14417.08195-.08182.123422-.192462.144688-.318828.02127-.12637.02532-.275026.02532-.462998z" fill="url(#c)"/><g fill="#fff"><path d="m1.7161942 1.518354-.657137 1.259492h.616668.971399l-.485709-.930933-.136896.262401z" opacity=".6"/><path d="m2.6464792 1.190424c-.146117 0-.264571.118451-.264571.264571 0 .146116.118454.26457.264571.26457.146116 0 .26457-.118454.26457-.26457 0-.14612-.118448-.264571-.26457-.264571z" opacity=".6"/><g enable-background="new" opacity=".1" transform="matrix(0 .26457031 .26457031 0 -62.438591 -84.794869)"><path d="m328 237v14h2.9043c2.8077 0 3.0957-.28815 3.0957-3.10156v-3.89844-3.89844c0-2.8134-.28801-3.10156-3.0957-3.10156z" opacity=".04"/><path d="m322 244v3.89844c-.0138 2.81337.28801 3.10156 3.0957 3.10156h5.8086c2.8077 0 3.0957-.28815 3.0957-3.10156v-3.89844z" opacity=".04"/></g></g><path d="m.13228516 2.752466c0 .187972.0041.336914.02532.463514.02124.126599.06278.237243.144688.319344.08191.0821.192104.123623.318828.144688.126722.02106.276085.02468.46454904.02376h1.030893 1.031411c.188165.000794.337449-.0027.46403-.02376.126724-.02106.23692-.06258.318829-.144688.08191-.0821.123435-.192742.144688-.319344.02125-.126602.02532-.275542.02532-.463514v-1.536783c0-.187972-.004-.336629-.02532-.462998-.02127-.126367-.06274-.237013-.144688-.318829-.08195-.08181-.192293-.122943-.318829-.144169-.126533-.02122-.275685-.02532-.46403-.02532h-1.031411-1.031412c-.18834504 0-.33749604.0041-.46403004.02532-.126536.02122-.236877.06236-.318828.144169-.08195.08182-.123422.192462-.144688.318829-.02127.126369-.02532.275026-.02532.462998z" fill="none" opacity=".3" stroke="#000" stroke-width=".26457"/><path clip-path="url(#b)" d="m325.09646 237c-2.80769 0-3.10979.28839-3.09603 3.10176v3.89824 3.89824c-.0138 2.81337.28834 3.10176 3.09603 3.10176h5.8075c2.8077 0 3.09604-.28835 3.09604-3.10176v-3.89824-3.89824c0-2.8134-.28835-3.10176-3.09604-3.10176z" fill="none" opacity=".4" stroke="url(#a)" stroke-width="2" transform="matrix(0 -.26457031 .26457031 0 -62.438533 88.763195)"/></svg>