<svg height="16" viewBox="0 0 4.233125 4.233125" width="16" xmlns="http://www.w3.org/2000/svg" xmlns:xlink="http://www.w3.org/1999/xlink"><linearGradient id="a"><stop offset="0" stop-color="#0369a3"/><stop offset="1" stop-color="#047fc6"/></linearGradient><linearGradient id="b" gradientUnits="userSpaceOnUse" x1="328" x2="328" y1="237" y2="251"><stop offset="0" stop-color="#fff"/><stop offset=".125" stop-color="#fff" stop-opacity=".098039"/><stop offset=".92500001" stop-color="#fff" stop-opacity=".098039"/><stop offset="1" stop-color="#fff" stop-opacity=".498039"/></linearGradient><clipPath id="c"><path d="m325.09646 237c-2.80769 0-3.10979.28839-3.09603 3.10176v3.89824 3.89824c-.0138 2.81337.28834 3.10176 3.09603 3.10176h5.8075c2.8077 0 3.09604-.28835 3.09604-3.10176v-3.89824-3.89824c0-2.8134-.28835-3.10176-3.09604-3.10176z"/></clipPath><linearGradient id="d" gradientTransform="matrix(.17638012 0 0 .79371093 -18.167234 -778.38731)" gradientUnits="userSpaceOnUse" x1="115.00122" x2="115.00122" xlink:href="#a" y1="981.36035" y2="985.36035"/><linearGradient id="e" gradientUnits="userSpaceOnUse" x1="3.17497592" x2="1.05841344" y1="-.00000084" y2="4.23312412"><stop offset="0" stop-color="#f2f2f2"/><stop offset="1" stop-color="#fff"/></linearGradient><linearGradient id="f" gradientTransform="matrix(0 -.00953618 -.00953591 0 5.176271 4.473642)" gradientUnits="userSpaceOnUse" x1="459.03448" x2="35.310345" xlink:href="#a" y1="419.23337" y2="207.36522"/><path d="m2.8849668.132284c.187972 0 .336915.0041.463514.02532.1266.02124.237243.06278.319345.144688.0821.08191.123623.192105.144688.318828.02106.126722.02468.276085.02376.464549v1.030893 1.031411c.000794.188165-.0027.337449-.02376.46403-.02106.126724-.06258.23692-.144688.318829-.0821.08191-.192743.123435-.319345.144688-.126602.02124-.275542.02532-.463514.02532h-1.536783c-.187972 0-.336629-.0041-.46299796-.02532-.126367-.02127-.237013-.06274-.318828-.144688-.08181-.08195-.122943-.192293-.14417-.318829-.02122-.126533-.02532-.275685-.02532-.46403v-1.031411-1.031412c0-.188345.0041-.337496.02532-.46403.02122-.126536.06236-.236877.14417-.318828.08181-.08195.192461-.123422.318828-.144688.12636896-.02127.27502596-.02532.46299796-.02532z" fill="url(#f)"/><path d="m1.3483028.52914c-.182236 0-.313225.0054-.39788696.01963-.08056.01352-.101513.03124-.1049.03462-.0035.0035-.01974.02262-.03307.10283-.014.08424-.01939.215027-.0186.397372v.0011 1.031927 1.032443.000529c-.000794.182332.0047.313503.0186.397372.01333.08021.02961.09937.03307.10283.0034.0034.02429.02111.1049.03462.08467.01421.21565096.01963.39788696.01963h1.536783c.182273 0 .313114-.0054.397372-.01963.08052-.01355.10065-.03138.103349-.0341.003-.003.02048-.0227.0341-.103865.01418-.08459.01963-.215823.01963-.398406v-1.031442-.793711l-.793711-.793711z" fill="url(#e)"/><path d="m1.0584138 1.322851v.26457h1.587421v-.26457zm0 .52914v.264571h2.116562v-.264571zm0 .529141v.26457h2.116562v-.26457zm0 .529141v.26457h1.587421v-.26457z" fill="url(#d)"/><path d="m2.1166948.26457v3.703984h.768391c.742834 0 .819031-.07624.819031-.820581v-1.031411-1.031412c0-.744342-.0762-.82058-.819031-.82058z" fill="#fff" opacity=".1"/><path d="m.52927284 2.116562v1.031411c-.0037.744334.0762.820581.81902996.820581h1.536783c.742834 0 .819031-.07624.819031-.820581v-1.031411z" fill="#fff" opacity=".1"/><g fill="none"><path d="m1.3483028.132284c-.187972 0-.336914.0041-.46351396.02532-.126599.02124-.237243.06278-.319344.144688-.0821.08191-.123623.192105-.144688.318828-.02106.126722-.02468.276085-.02376.464549v1.030893 1.031411c-.000793.188165.0027.337449.02376.46403.02106.126724.06258.23692.144688.318829.0821.08191.192742.123435.319344.144688.12660196.02124.27554196.02532.46351396.02532h1.536783c.187972 0 .336629-.0041.462998-.02532.126367-.02127.237013-.06274.318829-.144688.08181-.08195.122943-.192293.144169-.318829.02122-.126533.02532-.275685.02532-.46403v-1.031411-1.031412c0-.188345-.0041-.337496-.02532-.46403-.02122-.126536-.06236-.236877-.14417-.318828-.08182-.08195-.192462-.123422-.318829-.144688-.126369-.02127-.275026-.02532-.462998-.02532z" opacity=".3" stroke="#000" stroke-width=".26457"/><path clip-path="url(#c)" d="m325.09646 237c-2.80769 0-3.10979.28839-3.09603 3.10176v3.89824 3.89824c-.0138 2.81337.28834 3.10176 3.09603 3.10176h5.8075c2.8077 0 3.09604-.28835 3.09604-3.10176v-3.89824-3.89824c0-2.8134-.28835-3.10176-3.09604-3.10176z" opacity=".2" stroke="url(#b)" stroke-width="2" transform="matrix(.26457031 0 0 .26457031 -84.662368 -62.438595)"/></g></svg>