<?xml version="1.0" encoding="UTF-8" standalone="no"?>
<svg
   xmlns:dc="http://purl.org/dc/elements/1.1/"
   xmlns:cc="http://creativecommons.org/ns#"
   xmlns:rdf="http://www.w3.org/1999/02/22-rdf-syntax-ns#"
   xmlns:svg="http://www.w3.org/2000/svg"
   xmlns="http://www.w3.org/2000/svg"
   xmlns:xlink="http://www.w3.org/1999/xlink"
   xmlns:sodipodi="http://sodipodi.sourceforge.net/DTD/sodipodi-0.dtd"
   xmlns:inkscape="http://www.inkscape.org/namespaces/inkscape"
   height="16"
   viewBox="0 0 4.2333333 4.2333334"
   width="16"
   version="1.1"
   id="svg54"
   sodipodi:docname="libreoffice-oasis-spreadsheet-template.svg"
   inkscape:version="0.92.5 (2060ec1f9f, 2020-04-08)">
  <metadata
     id="metadata60">
    <rdf:RDF>
      <cc:Work
         rdf:about="">
        <dc:format>image/svg+xml</dc:format>
        <dc:type
           rdf:resource="http://purl.org/dc/dcmitype/StillImage" />
      </cc:Work>
    </rdf:RDF>
  </metadata>
  <defs
     id="defs58">
    <linearGradient
       gradientTransform="matrix(0.26458333,0,0,0.26458333,-84.666517,-62.441667)"
       inkscape:collect="always"
       xlink:href="#linearGradient927"
       id="linearGradient993"
       x1="328"
       y1="237"
       x2="328"
       y2="251"
       gradientUnits="userSpaceOnUse" />
    <linearGradient
       inkscape:collect="always"
       id="linearGradient927">
      <stop
         style="stop-color:#ffffff;stop-opacity:1;"
         offset="0"
         id="stop923" />
      <stop
         id="stop933"
         offset="0.125"
         style="stop-color:#ffffff;stop-opacity:0.09803922" />
      <stop
         id="stop931"
         offset="0.92500001"
         style="stop-color:#ffffff;stop-opacity:0.09803922" />
      <stop
         style="stop-color:#ffffff;stop-opacity:0.49803922"
         offset="1"
         id="stop925" />
    </linearGradient>
    <linearGradient
       inkscape:collect="always"
       xlink:href="#linearGradient13214"
       id="linearGradient54086"
       gradientUnits="userSpaceOnUse"
       gradientTransform="translate(349,-1742)"
       x1="119"
       y1="1036.2738"
       x2="119"
       y2="1052.4967" />
    <linearGradient
       id="linearGradient13214">
      <stop
         id="stop13216"
         style="stop-color:#18a303;stop-opacity:1"
         offset="0" />
      <stop
         id="stop13218"
         style="stop-color:#106802;stop-opacity:1"
         offset="1" />
    </linearGradient>
    <linearGradient
       inkscape:collect="always"
       xlink:href="#linearGradient13214"
       id="linearGradient54084"
       gradientUnits="userSpaceOnUse"
       gradientTransform="translate(472,11.6378)"
       x1="119"
       y1="1036.2738"
       x2="119"
       y2="1052.4967" />
    <linearGradient
       inkscape:collect="always"
       xlink:href="#linearGradient4338"
       id="linearGradient920-7"
       gradientUnits="userSpaceOnUse"
       gradientTransform="matrix(0,-0.00817427,0.00794699,0,-0.43305736,4.1371199)"
       x1="441.37933"
       y1="240.30263"
       x2="52.9655"
       y2="401.439" />
    <linearGradient
       inkscape:collect="always"
       id="linearGradient4338">
      <stop
         style="stop-color:#f2f2f2;stop-opacity:1"
         offset="0"
         id="stop4340" />
      <stop
         style="stop-color:#f9f9f9;stop-opacity:1"
         offset="1"
         id="stop4342" />
    </linearGradient>
    <linearGradient
       inkscape:collect="always"
       xlink:href="#linearGradient16945"
       id="linearGradient920"
       gradientUnits="userSpaceOnUse"
       gradientTransform="matrix(0,-0.01021784,0.01033108,0,-1.1980181,4.6422358)"
       x1="441.37927"
       y1="240.30267"
       x2="52.965412"
       y2="401.42969" />
    <linearGradient
       id="linearGradient16945">
      <stop
         offset="0"
         style="stop-color:#2e851b;stop-opacity:1"
         id="stop16941" />
      <stop
         offset="1"
         style="stop-color:#18a003;stop-opacity:1"
         id="stop16943" />
    </linearGradient>
  </defs>
  <sodipodi:namedview
     pagecolor="#ffffff"
     bordercolor="#666666"
     borderopacity="1"
     objecttolerance="10"
     gridtolerance="10"
     guidetolerance="10"
     inkscape:pageopacity="0"
     inkscape:pageshadow="2"
     inkscape:window-width="834"
     inkscape:window-height="480"
     id="namedview56"
     showgrid="false"
     inkscape:zoom="14.75"
     inkscape:cx="8"
     inkscape:cy="8"
     inkscape:window-x="0"
     inkscape:window-y="28"
     inkscape:window-maximized="0"
     inkscape:current-layer="svg54" />
  <linearGradient
     id="a">
    <stop
       offset="0"
       stop-color="#18a303"
       id="stop2" />
    <stop
       offset="1"
       stop-color="#106802"
       id="stop4" />
  </linearGradient>
  <linearGradient
     id="b"
     gradientUnits="userSpaceOnUse"
     x1="328"
     x2="328"
     y1="237"
     y2="251">
    <stop
       offset="0"
       stop-color="#fff"
       id="stop7" />
    <stop
       offset=".125"
       stop-color="#fff"
       stop-opacity=".098039"
       id="stop9" />
    <stop
       offset=".92500001"
       stop-color="#fff"
       stop-opacity=".098039"
       id="stop11" />
    <stop
       offset="1"
       stop-color="#fff"
       stop-opacity=".498039"
       id="stop13" />
  </linearGradient>
  <clipPath
     id="c">
    <path
       d="m325.09646 237c-2.80769 0-3.10979.28839-3.09603 3.10176v3.89824 3.89824c-.0138 2.81337.28834 3.10176 3.09603 3.10176h5.8075c2.8077 0 3.09604-.28835 3.09604-3.10176v-3.89824-3.89824c0-2.8134-.28835-3.10176-3.09604-3.10176z"
       id="path16" />
  </clipPath>
  <linearGradient
     gradientUnits="userSpaceOnUse"
     x1="468"
     x2="468"
     xlink:href="#a"
     y1="-705.7262"
     y2="-689.5033"
     id="linearGradient19" />
  <linearGradient
     id="d"
     gradientUnits="userSpaceOnUse"
     x1="591"
     x2="591"
     xlink:href="#a"
     y1="1047.9116"
     y2="1064.1345" />
  <linearGradient
     id="e"
     gradientUnits="userSpaceOnUse"
     x1="3.17513356"
     x2="1.05846692"
     y1="292.76669588"
     y2="297.00002916">
    <stop
       offset="0"
       stop-color="#f2f2f2"
       id="stop22" />
    <stop
       offset="1"
       stop-color="#fff"
       id="stop24" />
  </linearGradient>
  <linearGradient
     id="f"
     gradientTransform="matrix(0 -.00953665 -.00953638 0 5.176527 297.24056)"
     gradientUnits="userSpaceOnUse"
     x1="459.03448"
     x2="35.310345"
     y1="419.23337"
     y2="207.36522">
    <stop
       offset="0"
       stop-color="#2e851b"
       id="stop27" />
    <stop
       offset="1"
       stop-color="#18a003"
       id="stop29" />
  </linearGradient>
  <path
     style="color:#000000;font-style:normal;font-variant:normal;font-weight:normal;font-stretch:normal;font-size:medium;line-height:normal;font-family:sans-serif;font-variant-ligatures:normal;font-variant-position:normal;font-variant-caps:normal;font-variant-numeric:normal;font-variant-alternates:normal;font-feature-settings:normal;text-indent:0;text-align:start;text-decoration:none;text-decoration-line:none;text-decoration-style:solid;text-decoration-color:#000000;letter-spacing:normal;word-spacing:normal;text-transform:none;writing-mode:lr-tb;direction:ltr;text-orientation:mixed;dominant-baseline:auto;baseline-shift:baseline;text-anchor:start;white-space:normal;shape-padding:0;clip-rule:nonzero;display:inline;overflow:visible;visibility:visible;opacity:0.1;isolation:auto;mix-blend-mode:normal;color-interpolation:sRGB;color-interpolation-filters:linearRGB;solid-color:#000000;solid-opacity:1;vector-effect:none;fill:#000000;fill-opacity:1;fill-rule:nonzero;stroke:none;stroke-width:0.5291667;stroke-linecap:butt;stroke-linejoin:miter;stroke-miterlimit:4;stroke-dasharray:none;stroke-dashoffset:0;stroke-opacity:1;marker:none;color-rendering:auto;image-rendering:auto;shape-rendering:auto;text-rendering:auto;enable-background:accumulate"
     d="m 1.3483848,0.26458293 c -0.1902459,0 -0.3444477,0.003678 -0.48575638,0.0273897 C 0.7213171,0.31570565 0.57997404,0.36507165 0.47195259,0.47283915 0.3639338,0.58060395 0.31411011,0.72240205 0.29057013,0.86402825 0.26702223,1.005657 0.26379693,1.1604886 0.26472033,1.3513379 v 0.7653285 1.0314622 c -7.9375e-4,0.1900132 0.002381,0.3445801 0.0258498,0.4857592 0.0235479,0.1416261 0.073361,0.2834243 0.18138246,0.3911891 0.10802145,0.1077674 0.24936451,0.1571466 0.39067583,0.1808664 0.14130868,0.023733 0.29551048,0.02739 0.48575638,0.02739 h 1.5368588 c 0.1902461,0 0.3441118,-0.00362 0.4852406,-0.02739 C 3.5116156,4.1821837 3.6529745,4.1324103 3.7606414,4.0245608 3.8683083,3.9167115 3.9178145,3.7751356 3.941508,3.6338878 3.965204,3.4926373 3.9688976,3.3387424 3.9688976,3.1481286 V 2.1166664 1.3229163 L 2.9105643,0.26458293 Z"
     id="path997"
     inkscape:connector-curvature="0"
     sodipodi:nodetypes="scscccccccsscscscccs" />
  <path
     style="color:#000000;display:inline;overflow:visible;visibility:visible;fill:url(#linearGradient920);fill-opacity:1;fill-rule:nonzero;stroke:none;stroke-width:0.26458335;marker:none;enable-background:accumulate"
     d="m 1.2845673,0.13229391 c -0.80477246,0 -0.89136529,0.0817536 -0.88742035,0.87929249 V 2.116669 3.2217489 c -0.003942,0.7975415 0.0826479,0.879295 0.88742035,0.879295 h 1.6646156 c 0.8047752,0 0.8874231,-0.081743 0.8874231,-0.879295 V 2.116669 0.98273885 L 2.9767101,0.13229391 Z"
     id="path918"
     inkscape:connector-curvature="0"
     sodipodi:nodetypes="scccssscccs" />
  <path
     style="color:#000000;display:inline;overflow:visible;visibility:visible;fill:url(#linearGradient920-7);fill-opacity:1;fill-rule:nonzero;stroke:none;stroke-width:0.26458335;marker:none;enable-background:accumulate"
     d="m 1.4766257,0.52916625 c -0.6827281,0 -0.6827281,0 -0.68263285,0.70343455 V 2.1166664 3.0007293 C 0.7938976,3.7041664 0.7938976,3.7041664 1.4766257,3.7041664 h 1.2804749 c 0.6826304,0 0.682633,0 0.682633,-0.7034371 V 2.1166664 L 3.439731,1.0583329 2.9105643,0.52916625 Z"
     id="path918-8"
     inkscape:connector-curvature="0"
     sodipodi:nodetypes="scccssscccs" />
  <g
     style="display:inline;enable-background:new"
     id="g15640"
     transform="matrix(0.26458333,0,0,0.26458333,-122.76651,186.70058)">
    <rect
       transform="translate(-123,-1753.64)"
       y="1054"
       x="591"
       height="7"
       width="7"
       id="rect15622"
       style="display:inline;overflow:visible;visibility:visible;fill:#ccf4c6;fill-opacity:1;fill-rule:nonzero;stroke:none;stroke-width:1;marker:none" />
    <g
       style="display:inline;overflow:visible;visibility:visible;fill:url(#linearGradient54086);fill-opacity:1;fill-rule:nonzero;stroke:none;stroke-width:5.01121998;marker:none"
       id="g6623">
      <path
         id="rect6525"
         transform="translate(-123,-1753.64)"
         d="m 591,1054 v 1 1 1 1 1 1 1 h 1 2 1 2 1 v -1 -6 h -6 z m 1,1 h 2 v 1 h -2 z m 3,0 h 2 v 1 h -2 z m -3,2 h 2 v 1 h -2 z m 3,0 h 2 v 1 h -2 z m -3,2 h 2 v 1 h -2 z m 3,0 h 2 v 1 h -2 z"
         style="display:inline;overflow:visible;visibility:visible;fill:url(#linearGradient54084);marker:none"
         inkscape:connector-curvature="0" />
    </g>
  </g>
  <path
     style="color:#000000;display:inline;overflow:visible;visibility:visible;opacity:0.2;fill:#ffffff;fill-opacity:1;fill-rule:nonzero;stroke:none;stroke-width:0.26458335;marker:none;enable-background:accumulate"
     d="M 2.1168142,0.26458293 V 3.9687497 h 0.7684294 c 0.7428707,0 0.8190707,-0.07624 0.8190707,-0.8206211 V 2.1166664 1.0583329 l -0.79375,-0.79374997 z"
     id="path1009"
     inkscape:connector-curvature="0"
     sodipodi:nodetypes="ccsscccc" />
  <path
     style="color:#000000;display:inline;overflow:visible;visibility:visible;opacity:0.2;fill:#ffffff;fill-opacity:1;fill-rule:nonzero;stroke:none;stroke-width:0.26458335;marker:none;enable-background:accumulate"
     d="m 0.52931427,2.1166664 v 1.0314622 c -0.003651,0.7443708 0.0762027,0.8206211 0.81907053,0.8206211 h 1.5368588 c 0.7428707,0 0.8190707,-0.07624 0.8190707,-0.8206211 V 2.1166664 Z"
     id="path1016"
     inkscape:connector-curvature="0" />
  <path
     style="color:#000000;font-style:normal;font-variant:normal;font-weight:normal;font-stretch:normal;font-size:medium;line-height:normal;font-family:sans-serif;font-variant-ligatures:normal;font-variant-position:normal;font-variant-caps:normal;font-variant-numeric:normal;font-variant-alternates:normal;font-feature-settings:normal;text-indent:0;text-align:start;text-decoration:none;text-decoration-line:none;text-decoration-style:solid;text-decoration-color:#000000;letter-spacing:normal;word-spacing:normal;text-transform:none;writing-mode:lr-tb;direction:ltr;text-orientation:mixed;dominant-baseline:auto;baseline-shift:baseline;text-anchor:start;white-space:normal;shape-padding:0;clip-rule:nonzero;display:inline;overflow:visible;visibility:visible;opacity:0.4;isolation:auto;mix-blend-mode:normal;color-interpolation:sRGB;color-interpolation-filters:linearRGB;solid-color:#000000;solid-opacity:1;vector-effect:none;fill:#000000;fill-opacity:1;fill-rule:nonzero;stroke:none;stroke-width:0.5291667;stroke-linecap:butt;stroke-linejoin:miter;stroke-miterlimit:4;stroke-dasharray:none;stroke-dashoffset:0;stroke-opacity:1;marker:none;color-rendering:auto;image-rendering:auto;shape-rendering:auto;text-rendering:auto;enable-background:accumulate"
     d="M 1.3483848,-4e-7 C 1.1581389,-4e-7 1.0039371,0.0036776 0.86262842,0.0273893 0.7213171,0.0511224 0.57997404,0.1004884 0.47195259,0.20825582 0.3639338,0.31602055 0.31411011,0.45782135 0.29057013,0.59944485 0.26702223,0.74107635 0.26380753,0.89590525 0.26472033,1.0867545 v 1.0299119 1.0314622 c -7.9375e-4,0.1900132 0.002381,0.3445801 0.0258498,0.4857592 0.0235479,0.1416261 0.073361,0.2834243 0.18138246,0.3911891 0.10802145,0.1077674 0.24936451,0.1571466 0.39067583,0.1808664 0.14130868,0.023733 0.29551048,0.02739 0.48575638,0.02739 h 1.5368588 c 0.1902461,0 0.3441118,-0.00362 0.4852406,-0.02739 C 3.5116156,4.1821837 3.6529745,4.1324103 3.7606414,4.0245608 3.8683083,3.9167115 3.9178145,3.7751356 3.941508,3.6338878 3.965204,3.4926373 3.9688976,3.3387424 3.9688976,3.1481286 V 2.1166664 0.94877955 L 3.0201177,-4e-7 Z m 0,0.26458333 h 1.5621795 l 0.79375,0.79374997 v 1.0583335 1.0314622 c 0,0.7443814 -0.0762,0.8206211 -0.8190707,0.8206211 H 1.3483848 c -0.74286788,0 -0.82272179,-0.07625 -0.81907053,-0.8206211 V 2.1166664 1.085204 C 0.52567327,0.34083325 0.60551692,0.26458293 1.3483848,0.26458293 Z"
     id="path928"
     inkscape:connector-curvature="0"
     sodipodi:nodetypes="scscccccccsscscscccsscccssscccs" />
  <path
     style="color:#000000;font-style:normal;font-variant:normal;font-weight:normal;font-stretch:normal;font-size:medium;line-height:normal;font-family:sans-serif;font-variant-ligatures:normal;font-variant-position:normal;font-variant-caps:normal;font-variant-numeric:normal;font-variant-alternates:normal;font-feature-settings:normal;text-indent:0;text-align:start;text-decoration:none;text-decoration-line:none;text-decoration-style:solid;text-decoration-color:#000000;letter-spacing:normal;word-spacing:normal;text-transform:none;writing-mode:lr-tb;direction:ltr;text-orientation:mixed;dominant-baseline:auto;baseline-shift:baseline;text-anchor:start;white-space:normal;shape-padding:0;clip-rule:nonzero;display:inline;overflow:visible;visibility:visible;opacity:0.4;isolation:auto;mix-blend-mode:normal;color-interpolation:sRGB;color-interpolation-filters:linearRGB;solid-color:#000000;solid-opacity:1;vector-effect:none;fill:url(#linearGradient993);fill-opacity:1;fill-rule:nonzero;stroke:none;stroke-width:0.5291667;stroke-linecap:butt;stroke-linejoin:miter;stroke-miterlimit:4;stroke-dasharray:none;stroke-dashoffset:0;stroke-opacity:1;marker:none;color-rendering:auto;image-rendering:auto;shape-rendering:auto;text-rendering:auto;enable-background:accumulate"
     clip-path="none"
     d="m 1.3483848,0.26458293 c -0.74286788,0 -0.82271121,0.0762503 -0.81907053,0.82062107 v 1.0314624 1.0314622 c -0.003651,0.7443708 0.0762027,0.8206211 0.81907053,0.8206211 h 1.5368588 c 0.7428707,0 0.8190707,-0.07624 0.8190707,-0.8206211 V 2.1166664 1.0583329 l -0.79375,-0.79374997 z m 0,0.26458332 H 2.9105643 L 3.439731,1.0583329 v 1.0583335 1.0314622 c 0,0.1815756 -0.00582,0.3160131 -0.019632,0.3984255 -0.013811,0.08241 -0.029842,0.099594 -0.034105,0.1038701 -0.00426,0.00426 -0.021246,0.020294 -0.1033542,0.034105 -0.082116,0.013816 -0.2162069,0.019637 -0.3973963,0.019637 H 1.3483848 c -0.1811866,0 -0.3154123,-0.0063 -0.39790678,-0.020161 C 0.86798094,3.6701673 0.85045758,3.6547687 0.84609196,3.6504163 0.84172633,3.6460507 0.82614237,3.6290909 0.81250046,3.5470621 0.79887442,3.4650279 0.79300067,3.3304874 0.79390025,3.1491526 V 3.1486234 2.1166664 1.0846881 1.0841589 c -7.9375e-4,-0.18133745 0.004974,-0.31587545 0.0186002,-0.39790955 0.013626,-0.082034 0.0292232,-0.098997 0.0335915,-0.1033541 0.004366,-0.00437 0.021881,-0.019738 0.10438606,-0.033589 0.0824944,-0.013838 0.21672019,-0.020161 0.39790679,-0.020161 z"
     id="path937"
     inkscape:connector-curvature="0"
     sodipodi:nodetypes="scccssscccsscccscccssccccccccsccs" />
  <path
     inkscape:connector-curvature="0"
     style="color:#000000;display:inline;overflow:visible;visibility:visible;opacity:0.6;fill:#1a510f;fill-opacity:1;fill-rule:nonzero;stroke:none;stroke-width:0.06615189;marker:none;enable-background:accumulate"
     d="M 3.7043143,1.3229163 V 1.0583329 L 2.9105643,0.26458293 H 2.6459809 v 0.40496332 0.015531 0.00833 c 0,0.54763735 0.073308,0.63208165 0.6222022,0.62939625 z"
     id="rect4158-0-3-62-2-3-7-3"
     sodipodi:nodetypes="ccccccscc" />
  <path
     inkscape:connector-curvature="0"
     style="color:#000000;display:inline;overflow:visible;visibility:visible;fill:#54ad45;fill-opacity:1;fill-rule:nonzero;stroke:none;stroke-width:0.06615189;marker:none;enable-background:accumulate"
     d="m 3.7043143,1.0582324 -0.79375,-0.79364947 v 0.29439922 0.012832 0.00688 c 0,0.45179985 0.020823,0.48178775 0.4736597,0.47957315 z"
     id="rect4158-0-3-62-6-5-5"
     sodipodi:nodetypes="ccccscc" />
</svg>
