<svg height="16" viewBox="0 0 4.233125 4.233125" width="16" xmlns="http://www.w3.org/2000/svg" xmlns:xlink="http://www.w3.org/1999/xlink"><linearGradient id="a" gradientUnits="userSpaceOnUse" x1="328" x2="328" y1="237" y2="251"><stop offset="0" stop-color="#fff"/><stop offset=".125" stop-color="#fff" stop-opacity=".098039"/><stop offset=".92500001" stop-color="#fff" stop-opacity=".098039"/><stop offset="1" stop-color="#fff" stop-opacity=".498039"/></linearGradient><clipPath id="b"><path d="m325.09646 237c-2.80769 0-3.10979.28839-3.09603 3.10176v3.89824 3.89824c-.0138 2.81337.28834 3.10176 3.09603 3.10176h5.8075c2.8077 0 3.09604-.28835 3.09604-3.10176v-3.89824-3.89824c0-2.8134-.28835-3.10176-3.09604-3.10176z"/></clipPath><linearGradient id="c" gradientUnits="userSpaceOnUse" x1="993.01337" x2="993.01337" y1="-705.58411" y2="-689.63782"><stop offset="0" stop-color="#c99c00"/><stop offset="1" stop-color="#876900"/></linearGradient><linearGradient id="d" gradientUnits="userSpaceOnUse" x1="3.174977" x2="1.058414" y1="-.000001" y2="4.233124"><stop offset="0" stop-color="#f2f2f2"/><stop offset="1" stop-color="#fff"/></linearGradient><linearGradient id="e" gradientTransform="matrix(0 -.00953618 -.00953591 0 5.176271 4.473642)" gradientUnits="userSpaceOnUse" x1="459.03448" x2="35.310345" y1="419.23337" y2="207.36522"><stop offset="0" stop-color="#d98027"/><stop offset="1" stop-color="#be5e0f"/></linearGradient><path d="m2.8849678.132284c.187972 0 .336914.0041.463514.02532.126599.02125.237243.06278.319344.144688.0821.08191.123623.192104.144688.318828.02106.126722.02468.276085.02376.464549v1.030893 1.031411c.000794.188165-.0027.337449-.02376.46403-.02106.126724-.06258.23692-.144688.318828-.0821.08191-.192742.123436-.319344.144689-.126603.02125-.275542.02532-.463514.02532h-1.536783c-.187972 0-.336629-.0041-.46299796-.02532-.126367-.02127-.237013-.06274-.318829-.144689-.08181-.08195-.122943-.192292-.14417-.318828-.02122-.126533-.02532-.275685-.02532-.46403v-1.031411-1.031412c0-.188345.0041-.337496.02532-.46403.02122-.126536.06236-.236877.144169-.318828.08182-.08195.192462-.123422.318829-.144688.12636896-.02127.27502596-.02532.46299796-.02532z" fill="url(#e)"/><path d="m1.3483038.52914c-.182236 0-.313225.0054-.39788796.01963-.08056.01352-.101513.03124-.104899.03462-.0035.0035-.01974.02262-.03307.10283-.014.08424-.01939.215027-.0186.397371v.0011 1.031928 1.032443.000529c-.000793.182332.0047.313503.0186.397372.01333.08021.02961.09936.03307.10283.0034.0034.02429.02111.104899.03462.08467.01421.21565196.01963.39788796.01963h1.536783c.182273 0 .313113-.0055.397371-.01963.08052-.01355.100651-.03138.103349-.0341.003-.003.02048-.0227.0341-.103865.01418-.08459.01963-.215823.01963-.398406v-1.031442-.793711l-.79371-.793711z" fill="url(#d)"/><g enable-background="new" transform="matrix(.26457031 0 0 .26457031 -260.86829 186.68737)"><path d="m997.5-698.1378-5.5 5h5.5z" fill="#e9b913" stroke="#e9b913" stroke-linejoin="round"/><path d="m997.34375-698.625c-.0712.0269-.13532.0696-.1875.125l-5.5 5c-.15783.13912-.21169.36215-.13477.55797.0769.19582.2682.32254.47852.31703h5.5c.27613-.00003.49997-.22387.5-.5v-5c.008-.16474-.0652-.32297-.19636-.42294-.13121-.1-.30327-.12879-.45989-.0771zm-.34375 1.625v3.375h-3.71875z" fill="url(#c)"/><path d="m1113.6781 1058.0121a2.3685112 2.3685112 0 0 1 -.5509-2.4849 2.3685112 2.3685112 0 0 1 2.0193-1.5494 2.3685112 2.3685112 0 0 1 2.2576 1.1752" fill="#f09e6f" stroke="#a33e03" stroke-linecap="round" stroke-linejoin="round" stroke-width=".944449" transform="matrix(1.05634 -.0723819 .0723819 1.05634 -261.636 -1731.79)"/></g><path d="m2.1166948.26457v3.703984h.768392c.742834 0 .81903-.07624.81903-.820581v-1.031411-1.031412c0-.744342-.0762-.82058-.81903-.82058z" fill="#fff" opacity=".1"/><path d="m.52927284 2.116562v1.031411c-.0037.744334.0762.820581.81903096.820581h1.536783c.742834 0 .81903-.07624.81903-.820581v-1.031411z" fill="#fff" opacity=".1"/><g fill="none"><path d="m1.3483038.132284c-.187972 0-.336915.0041-.46351396.02532-.1266.02125-.237243.06278-.319345.144688-.0821.08191-.123623.192104-.144688.318828-.02106.126722-.02468.276085-.02376.464549v1.030893 1.031411c-.000794.188165.0027.337449.02376.46403.02106.126724.06258.23692.144688.318828.0821.08191.192743.123436.319345.144689.12660196.02125.27554196.02532.46351396.02532h1.536783c.187972 0 .336628-.0041.462998-.02532.126367-.02127.237012-.06274.318828-.144689.08181-.08195.122943-.192292.14417-.318828.02122-.126533.02532-.275685.02532-.46403v-1.031411-1.031412c0-.188345-.0041-.337496-.02532-.46403-.02122-.126536-.06236-.236877-.14417-.318828-.08182-.08195-.192461-.123422-.318828-.144688-.12637-.02127-.275026-.02532-.462998-.02532z" opacity=".3" stroke="#000" stroke-width=".26457"/><path clip-path="url(#b)" d="m325.09646 237c-2.80769 0-3.10979.28839-3.09603 3.10176v3.89824 3.89824c-.0138 2.81337.28834 3.10176 3.09603 3.10176h5.8075c2.8077 0 3.09604-.28835 3.09604-3.10176v-3.89824-3.89824c0-2.8134-.28835-3.10176-3.09604-3.10176z" opacity=".2" stroke="url(#a)" stroke-width="2" transform="matrix(.26457031 0 0 .26457031 -84.662367 -62.438595)"/></g></svg>