<svg height="16" viewBox="0 0 4.2333332 4.2333335" width="16" xmlns="http://www.w3.org/2000/svg" xmlns:xlink="http://www.w3.org/1999/xlink"><linearGradient id="a" gradientUnits="userSpaceOnUse" x1="328" x2="328" y1="237" y2="251"><stop offset="0" stop-color="#fff"/><stop offset=".125" stop-color="#fff" stop-opacity=".098039"/><stop offset=".92500001" stop-color="#fff" stop-opacity=".098039"/><stop offset="1" stop-color="#fff" stop-opacity=".498039"/></linearGradient><clipPath id="b"><path d="m325.09646 237c-2.80769 0-3.10979.28839-3.09603 3.10176v3.89824 3.89824c-.0138 2.81337.28834 3.10176 3.09603 3.10176h5.8075c2.8077 0 3.09604-.28835 3.09604-3.10176v-3.89824-3.89824c0-2.8134-.28835-3.10176-3.09604-3.10176z"/></clipPath><linearGradient id="c" gradientTransform="matrix(0 -.00953659 -.00953668 0 5.176667 297.24049)" gradientUnits="userSpaceOnUse" x1="459.03448" x2="35.310345" y1="419.23337" y2="207.36522"><stop offset="0" stop-color="#f2f2f2"/><stop offset="1" stop-color="#f9f9f9"/></linearGradient><g transform="translate(0 -292.76665)"><path d="m2.8851789 293.03124c.1902519 0 .3444586.004.4857717.0274.1413157.0237.2826633.0731.3906881.18087.1080222.10775.1578474.24955.1813882.39118.023549.14163.026774.29646.025851.48731v.76533 1.03145c.0007937.19001-.00238.34458-.025851.48576-.023549.14162-.073363.28342-.1813882.39118-.1080248.10776-.2493724.15714-.3906881.18086-.1413131.0237-.2955198.0274-.4857717.0274h-1.5369072c-.190252 0-.3441226-.004-.48525584-.0274-.14113584-.0238-.28249919-.0735-.39016947-.18138-.10767029-.10784-.15717805-.24941-.18087219-.39066-.0236968-.14125-.0273909-.29515-.0273909-.48576v-1.03145-.76688c0-.19062.0037-.34451.0273909-.48576.0236807-.14125.0732023-.28283.18087219-.39066.10767028-.10785.24903363-.15764.39016947-.18139.14113324-.0238.29500384-.0274.48525584-.0274z" opacity=".1"/><path d="m2.8849778 293.03124c.7428913 0 .8228245.0763.8191837.82067v1.03141 1.0314c.00365.74437-.076292.82066-.8191837.82066h-1.5366161c-.74289404 0-.81918644-.0763-.81918644-.82066v-1.0314-1.03141c0-.74437.0762954-.82067.81918644-.82067z" fill="none" opacity=".2" stroke="#000" stroke-width=".529173"/><path d="m2.8849778 293.03124c.7428913 0 .8228245.0763.8191837.82067v1.03141 1.0314c.00365.74437-.076292.82066-.8191837.82066h-1.5366161c-.74289404 0-.81918644-.0763-.81918644-.82066v-1.0314-1.03141c0-.74437.0762954-.82067.81918644-.82067z" fill="url(#c)"/><path d="m115.28164 129.10508q-1.28 0-2.12-.36-.84-.36-1.4-.96-.88.48-2.12.84-1.24.32-2.48.32-1.92 0-3.52-.6-1.56-.6-2.72-1.76-1.159999-1.2-1.799999-2.92-.64-1.72-.64-4 0-1.92.6-3.6.6-1.72 1.759999-2.96 1.2-1.28 2.88-2 1.72-.72 3.88-.72 2.04 0 3.72.32 1.72.32 2.64.64v12.24q0 1.28.44 1.8.44.52 1.16.52 1.04 0 1.8-.72.8-.72 1.28-1.88.52-1.16.76-2.6.24-1.48.24-3 0-2.52-.88-4.72-.88-2.24-2.52-3.92-1.64-1.68-4-2.64-2.32-.96-5.24-.96-2.92 0-5.36 1-2.439999.96-4.199999 2.8-1.76 1.8-2.76 4.44-.96 2.64-.96 6 0 3.52 1.04 6.2 1.04 2.64 2.88 4.44 1.88 1.76 4.399999 2.64 2.56.92 5.6.92 2.36 0 3.88-.28 1.56-.28 2-.44l.4 2.96q-.68.24-2.48.52-1.76.28-3.8.28-3.56 0-6.72-1.04-3.159999-1-5.519999-3.12-2.36-2.08-3.76-5.32-1.36-3.28-1.36-7.76 0-4.32 1.36-7.56 1.36-3.24 3.64-5.36 2.32-2.16 5.319999-3.24 3.04-1.08 6.4-1.08 3.28 0 6.2 1.08 2.92 1.04 5.12 3.08 2.2 2 3.48 4.88 1.28 2.84 1.28 6.44 0 2.72-.64 4.8-.6 2.08-1.64 3.52-1.04 1.4-2.48 2.12-1.44.72-3.04.72zm-8-3.24q.84 0 1.68-.16.88-.2 1.56-.56-.12-.52-.16-1.04-.04-.52-.04-1v-9.4q-.24-.08-.92-.16-.68-.08-1.52-.08-2.84 0-4.24 1.76-1.4 1.76-1.4 4.44 0 2.84 1.36 4.52 1.36 1.68 3.68 1.68z" fill="#007aa6" fill-opacity=".941176" transform="matrix(-.04793845 0 0 .04793666 7.230877 289.14505)"/><path d="m2.1167253 293.03124v3.70414h-.7684536c-.74289405 0-.81909644-.0762-.81909644-.82061v-1.03145-1.03147c0-.74436.0762054-.82061.81909644-.82061z" fill="#fff" opacity=".2"/><path d="m3.7042753 294.88332v1.03145c.00365.74437-.076205.82061-.8190964.82061h-1.5369072c-.74289405 0-.81909644-.0762-.81909644-.82061v-1.03145z" fill="#fff" opacity=".2"/><path clip-path="url(#b)" d="m325.09646 237c-2.80769 0-3.10979.28839-3.09603 3.10176v3.89824 3.89824c-.0138 2.81337.28834 3.10176 3.09603 3.10176h5.8075c2.8077 0 3.09604-.28835 3.09604-3.10176v-3.89824-3.89824c0-2.8134-.28835-3.10176-3.09604-3.10176z" fill="none" opacity=".4" stroke="url(#a)" stroke-width="2" transform="matrix(-.26459165 0 0 .26458177 88.902788 230.32536)"/></g></svg>