<svg xmlns="http://www.w3.org/2000/svg" width="16" height="16" version="1.1">
 <path style="fill:#808080" d="m 11.102017,4.1201636 c -1.959196,0 -1.959192,1.959215 -1.959192,1.959215 v 4.8979804 h 0.979596 V 6.0793786 c 0,0 -4e-6,-0.979588 0.979596,-0.979588 h 0.979596 v 4.408166 h 0.979596 v -4.408166 h 0.979599 c 0.979592,0 0.979596,0.979588 0.979596,0.979588 V 10.977359 H 16 V 6.0793786 c 0,0 0,-1.959215 -1.959192,-1.959215 z m -9.142821,0.02268 c 0,0 -1.959196,0 -1.959196,1.959176 v 2.938803 C 0,11 1.959196,11 1.959196,11 H 3.918388 V 10.020412 H 1.959196 c 0,0 -0.9796,0 -0.9796,-0.9795894 V 8.0305806 H 2.775444 V 7.1122236 H 0.979596 v -1.010204 c 0,-0.979588 0.9796,-0.979588 0.9796,-0.979588 h 1.959192 v -0.979588 z m 4.408182,0 c 0,0 -1.959192,0 -1.959192,1.959176 v 2.938803 C 4.408186,11 6.367378,11 6.367378,11 H 8.326573 V 10.020412 H 6.367378 c 0,0 -0.979596,0 -0.979596,-0.9795894 v -2.938803 c 0,-0.979588 0.979596,-0.979588 0.979596,-0.979588 h 1.959195 v -0.979588 z"/>
</svg>
