<svg height="16" viewBox="0 0 4.233125 4.233125" width="16" xmlns="http://www.w3.org/2000/svg" xmlns:xlink="http://www.w3.org/1999/xlink"><linearGradient id="a" gradientUnits="userSpaceOnUse" x1="2.116711" x2="2.116711" y1=".26457" y2="3.968555"><stop offset="0" stop-color="#fff"/><stop offset=".125" stop-color="#fff" stop-opacity=".098039"/><stop offset=".92500001" stop-color="#fff" stop-opacity=".098039"/><stop offset="1" stop-color="#fff" stop-opacity=".498039"/></linearGradient><linearGradient id="b" gradientTransform="matrix(0 -.00953618 .00953591 0 -.942985 4.473643)" gradientUnits="userSpaceOnUse" x1="459.03448" x2="35.310345" y1="419.23337" y2="207.36522"><stop offset="0" stop-color="#f2f2f2"/><stop offset="1" stop-color="#f9f9f9"/></linearGradient><path d="m1.3483186.26457027c-.1902367 0-.3444309.00368-.48573265.027388-.14130436.0237323-.28264046.0730958-.39065659.180858-.10801348.1077595-.15783472.2495506-.18137354.3911698-.02354675.14162183-.02677187.29644573-.02584852.48728563v.7652908 1.0314115c-.00079371.1900038.002381.3445631.0258485.4857352.0235468.1416192.0733574.2834104.18137354.3911699.10801613.1077621.24935223.1571389.39065659.1808576.14130167.023732.29549587.027388.48573257.027388h1.5367831c.1902367 0 .3440949-.00362.4852167-.027388.1411246-.0237584.2824766-.0735294.3901382-.1813736.1076616-.1078441.1571653-.249413.1808576-.3906539.0236949-.1412435.0273883-.2951308.0273883-.4857352v-1.0314115-.7937109l-1.0582812-1.05828133z" opacity=".1"/><path d="m1.3485197.26457027c-.74283152 0-.82275822.076299-.81911772.82063363v1.0313586 1.0313586c-.003651.7443342.0762862.8206336.81911772.8206336h1.5364921c.7428341 0 .8191203-.076289.8191203-.8206336v-1.0313586-1.0582813l-.7937109-.79371093z" fill="none" opacity=".2" stroke="#000" stroke-width=".529141"/><path d="m1.3485197.26457027c-.74283152 0-.82275822.076299-.81911772.82063363v1.0313586 1.0313586c-.003651.7443342.0762862.8206336.81911772.8206336h1.5364921c.7428341 0 .8191203-.076289.8191203-.8206336v-1.0313586-1.0582813l-.7937109-.79371093z" fill="url(#b)"/><path d="m1.058429 2.116563h2.116563v.793711h-2.116563z" fill="#fff"/><path d="m.92614368 1.4551367h2.38113292v.5291406h-2.38113292z" fill="#46a926" opacity=".35"/><path d="m.79385852 1.3228516v1.8519921h.79371098v-.2645703h-.5291406v-.2645703h.5291406v-.2645703h-.5291406v-.2645703h.5291406v.2645703h.2645704v-.2645703h.5291406v.2645703h.2645703v-.2645703h.5291407v.2645703h.2645703v-1.0582812zm.26457038.2645703h.5291406v.2645703h-.5291406zm.793711 0h.5291406v.2645703h-.5291406zm.7937109 0h.5291407v.2645703h-.5291407z" fill="#46a926"/><path d="m1.58757 2.645703h1.587422v1.058281h-1.587422z" fill="none" stroke="#b3b3b3" stroke-linecap="round" stroke-width=".529141"/><path d="m1.58757 2.645703h1.587422v1.058281h-1.587422z" fill="#fff"/><path d="m1.8521399 3.1748437v.2645704h.5291406v-.2645704z" fill="#2daaaa"/><path d="m2.3812805 2.9102734v.5291407h.5291407v-.5291407z" fill="#fdc92b"/><path d="m2.1167102.26457027v3.70398443h.7683915c.7428341 0 .8190304-.076236.8190304-.8205807v-1.0314115-1.0582813l-.7937109-.79371093z" fill="#fff" opacity=".2"/><path d="m.52928821 2.1165625v1.0314115c-.003651.7443342.0761989.8205807.81903039.8205807h1.5367831c.7428341 0 .8190304-.076236.8190304-.8205807v-1.0314115z" fill="#fff" opacity=".2"/><path d="m1.3483186.26457027c-.74283149 0-.82267089.076246-.81903039.82058073v1.0314115 1.0314115c-.003651.7443342.0761989.8205807.81903039.8205807h1.5367831c.7428341 0 .8190304-.076236.8190304-.8205807v-1.0314115-1.0582813l-.7937109-.79371093zm0 .2645703h1.5621026l.5291406.52914063v1.0582813 1.0314115c0 .1815667-.00582.3159975-.019631.3984058-.013811.082406-.029841.09959-.034103.1038651-.00426.00426-.021245.020293-.1033491.034103-.082112.013816-.2161962.019636-.3973767.019636h-1.5367834c-.1811778 0-.315397-.0063-.39788737-.02016-.082493-.013837-.10001551-.029235-.10438092-.033587-.004365-.00437-.0199486-.021324-.0335898-.1033491-.0136254-.08203-.0194988-.216564-.0185993-.3978899v-.0005292-1.0319062-1.0319274-.0005291c-.00079371-.18132863.004974-.31585993.0185993-.39789003.0136254-.08203.0292218-.098992.0335898-.1033491.004365-.00436.02188-.019737.10438092-.033587.0824904-.013837.21670957-.02016.39788737-.02016z" fill="url(#a)" opacity=".4"/><path d="m3.7041321 1.3228516v-.2645704l-.7937109-.79371093h-.2645704v.4049434.01553.00833c0 .54761033.073304.63205063.6221715.62936523z" opacity=".2"/><path d="m3.7041321 1.0581807-.7937109-.79361043v.2943848.012832.00688c0 .45177763.020822.48176403.4736364.47954953z" fill="#faf8f6"/></svg>