<?xml version="1.0" encoding="UTF-8" standalone="no"?>
<svg
   xmlns:dc="http://purl.org/dc/elements/1.1/"
   xmlns:cc="http://creativecommons.org/ns#"
   xmlns:rdf="http://www.w3.org/1999/02/22-rdf-syntax-ns#"
   xmlns:svg="http://www.w3.org/2000/svg"
   xmlns="http://www.w3.org/2000/svg"
   xmlns:sodipodi="http://sodipodi.sourceforge.net/DTD/sodipodi-0.dtd"
   xmlns:inkscape="http://www.inkscape.org/namespaces/inkscape"
   width="16"
   height="16"
   version="1.1"
   viewBox="0 0 4.233125 4.233125"
   id="svg35"
   sodipodi:docname="application-x-keepassxc.svg"
   inkscape:version="0.92.4 (5da689c313, 2019-01-14)">
  <metadata
     id="metadata39">
    <rdf:RDF>
      <cc:Work
         rdf:about="">
        <dc:format>image/svg+xml</dc:format>
        <dc:type
           rdf:resource="http://purl.org/dc/dcmitype/StillImage" />
        <dc:title />
      </cc:Work>
    </rdf:RDF>
  </metadata>
  <sodipodi:namedview
     pagecolor="#ffffff"
     bordercolor="#666666"
     borderopacity="1"
     objecttolerance="10"
     gridtolerance="10"
     guidetolerance="10"
     inkscape:pageopacity="0"
     inkscape:pageshadow="2"
     inkscape:window-width="1920"
     inkscape:window-height="1016"
     id="namedview37"
     showgrid="false"
     inkscape:zoom="52.437459"
     inkscape:cx="3.7762037"
     inkscape:cy="8.0000063"
     inkscape:window-x="0"
     inkscape:window-y="27"
     inkscape:window-maximized="1"
     inkscape:current-layer="svg35" />
  <defs
     id="defs11">
    <linearGradient
       id="linearGradient4226"
       x1="529.65503"
       x2="-35.310001"
       y1="401.58401"
       y2="119.093"
       gradientTransform="matrix(0,0.11988932,0.11988589,0,0.36278005,233.28165)"
       gradientUnits="userSpaceOnUse">
      <stop
         style="stop-color:#f2f2f2"
         id="stop2"
         offset="0" />
      <stop
         style="stop-color:#f9f9f9"
         id="stop4"
         offset="1" />
    </linearGradient>
    <linearGradient
       id="linearGradient4358"
       x1="88"
       x2="488"
       y1="88"
       y2="488"
       gradientUnits="userSpaceOnUse">
      <stop
         style="stop-color:#000000;stop-opacity:.58823532"
         id="stop7"
         offset="0" />
      <stop
         style="stop-color:#000000;stop-opacity:0"
         id="stop9"
         offset=".88" />
      <stop
         style="stop-color:#000000"
         id="stop11"
         offset="1" />
    </linearGradient>
    <filter
       id="filter4346"
       width="1.026"
       height="1.022"
       x="-0.0099999998"
       y="-0.0099999998"
       style="color-interpolation-filters:sRGB">
      <feGaussianBlur
         id="feGaussianBlur14"
         stdDeviation="2.12" />
    </filter>
    <clipPath
       clipPathUnits="userSpaceOnUse"
       id="clipPath983">
      <path
         sodipodi:nodetypes="scccssscsss"
         inkscape:connector-curvature="0"
         id="path985"
         d="m 325.09646,237 c -2.80769,0 -3.10979,0.28839 -3.09603,3.10176 V 244 v 3.89824 c -0.0138,2.81337 0.28834,3.10176 3.09603,3.10176 h 5.8075 C 333.71166,251 334,250.71165 334,247.89824 V 244 240.10176 C 334,237.28836 333.71165,237 330.90396,237 Z"
         style="color:#000000;display:inline;overflow:visible;visibility:visible;opacity:1;fill:#46a926;fill-opacity:1;fill-rule:nonzero;stroke:none;stroke-width:2;stroke-miterlimit:4;stroke-dasharray:none;stroke-opacity:1;marker:none;enable-background:accumulate" />
    </clipPath>
  </defs>
  <g
     transform="translate(52.806441,-303.09522)"
     id="g33" />
  <g
     transform="matrix(0.03385127,0,0,0.03385127,-5.0262151,-0.15734797)"
     id="g27"
     style="fill:#808080;fill-opacity:1">
    <path
       style="fill:#808080;fill-opacity:1"
       d="m 221.69829,9.58217 c 0.17002,0.767135 0.26708,1.561547 0.26708,2.380544 0,6.06317 -4.91176,10.971753 -10.97175,10.968582 -6.06,0.0035 -10.96859,-4.902239 -10.96859,-10.96541 0,-0.821692 0.0993,-1.619278 0.27041,-2.39006 3.52879,-0.666425 7.10992,-1.007092 10.70214,-1.018035 3.59064,0.01316 7.17335,0.356209 10.70214,1.024696 z m -41.40972,13.349126 c 0,12.243701 7.18128,22.790414 17.54084,27.722786 v 55.651748 l 13.16198,13.16198 13.16516,-13.16515 -0.75445,-11.656892 6.20591,-6.205908 -6.20591,-6.205907 9.30966,-9.306483 -9.30966,-9.309655 0.75428,-12.971663 c 10.36909,-4.933958 17.55671,-15.475912 17.55671,-27.722786 0,-2.041146 -0.21077,-4.031541 -0.59077,-5.961669 17.65186,10.57526 28.4682,29.625953 28.49991,50.211868 -6.2e-4,32.369684 -26.24783,58.617515 -58.61751,58.617515 -32.36969,-8.3e-4 -58.61752,-26.247831 -58.61752,-58.617515 0.0246,-20.585915 10.84171,-39.649295 28.49991,-50.227727 -0.38143,1.933299 -0.58792,3.926866 -0.58744,5.971184 z m 21.93399,35.097555 h 4.38996 v 43.883839 h -4.38679 l -0.003,-43.86798 v -0.0032 z"
       id="path25"
       inkscape:connector-curvature="0" />
  </g>
</svg>
