<svg height="16" viewBox="0 0 4.233125 4.233125" width="16" xmlns="http://www.w3.org/2000/svg" xmlns:xlink="http://www.w3.org/1999/xlink"><linearGradient id="a" gradientUnits="userSpaceOnUse" x1="328" x2="328" y1="237" y2="251"><stop offset="0" stop-color="#fff"/><stop offset=".125" stop-color="#fff" stop-opacity=".098039"/><stop offset=".92500001" stop-color="#fff" stop-opacity=".098039"/><stop offset="1" stop-color="#fff" stop-opacity=".498039"/></linearGradient><clipPath id="b"><path d="m325.09646 237c-2.80769 0-3.10979.28839-3.09603 3.10176v3.89824 3.89824c-.0138 2.81337.28834 3.10176 3.09603 3.10176h5.8075c2.8077 0 3.09604-.28835 3.09604-3.10176v-3.89824-3.89824c0-2.8134-.28835-3.10176-3.09604-3.10176z"/></clipPath><linearGradient id="c" gradientUnits="userSpaceOnUse" x1="1.65964552791" x2="2.58023306184" y1="1.04239288085" y2="3.174778591"><stop offset="0" stop-color="#216c4d"/><stop offset="1" stop-color="#2d976b"/></linearGradient><linearGradient id="d" gradientTransform="matrix(0 -.00953618 -.00953591 0 5.176271 4.473644)" gradientUnits="userSpaceOnUse" x1="459.03448" x2="35.310345" y1="419.23337" y2="207.36522"><stop offset="0" stop-color="#4d4d4d"/><stop offset="1" stop-color="#707070"/></linearGradient><path d="m2.8849672.13228549c.187972 0 .3369145.004074.463514.0253194.1265996.021245.2372429.0627772.3193443.14468821.082102.0819083.1236232.1921045.1446883.31882839.02106.12672124.024684.27608441.023758.46454841v1.0308929 1.0314115c.0007937.188165-.00273.3374488-.023758.4640299-.02106.1267238-.062584.23692-.1446883.3188284-.082104.081911-.1927421.1234352-.3193443.1446882-.1266022.021245-.275542.025319-.463514.025319h-1.5367831c-.1879719 0-.3366287-.00405-.46299804-.025319-.12636672-.0212715-.23701267-.0627376-.31882839-.1446882-.08180779-.0819507-.12294318-.1922924-.14416966-.3188284-.02121854-.1265334-.02531938-.275685-.02531938-.4640299v-1.0314115-1.0314115c0-.18834492.004101-.33749643.0253194-.46402983.0212185-.12653604.0623592-.23687774.14416964-.31882839.0818157-.08195066.19246167-.12342205.31882839-.14468821.12636934-.0212715.27502614-.0253194.46299804-.0253194z" fill="url(#d)"/><path d="m1.426153 3.1747753c-.3334988 0-.3693825-.034254-.3677475-.3684248v-.689793-.6897956c-.0015874-.3341709.0342487-.3684248.3677475-.3684248h1.3809459c.3334962 0 .3677448.034249.3677448.3684248v.6897956.689793c0 .3341735-.034249.3684248-.3677448.3684248z" fill="url(#c)"/><path d="m1.4258143 1.0582815c-.3334961 0-.3690279.034262-.3674008.3684354v.6898459.6898459c-.00132.2907602.037879.351106.2645703.3627524v-.5234577h.2645703 1.0582812.2645704v.5234577c.2259854-.0117205.2645703-.0722039.2645703-.3627524v-.6898459-.6898459c0-.3341761-.034423-.3684354-.3679168-.3684354z" fill="#b3b3b3"/><path d="m1.322976 1.322876h1.58743v1.058257h-1.58743z" fill="#808080"/><path d="m1.5875541 2.9102817v.2645623l1.0582812-.0000105v-.2645624z" fill="#eab305"/><path d="m1.5875541 2.645714 1.0582812-.0000106v.2645677l-1.0582812.0000106z" fill="#5ca487"/><path d="m2.1166947.26457064v3.70398436h.7683916c.7428341 0 .8190303-.076236.8190303-.8205807v-1.0314115-1.0314115c0-.74434208-.076199-.82058066-.8190303-.82058066z" fill="#fff" opacity=".08"/><path d="m.52927284 2.1165628v1.0314115c-.003651.7443342.0761989.8205807.81903036.8205807h1.5367831c.7428341 0 .8190303-.076236.8190303-.8205807v-1.0314115z" fill="#fff" opacity=".08"/><g fill="none"><path d="m1.3483032.13228549c-.187972 0-.3369145.004074-.463514.0253194-.12659954.021245-.23724284.0627772-.3193443.14468821-.0821015.0819083-.12362312.1921045-.14468821.31882839-.0210598.12672124-.0246844.27608441-.0237584.46454841v1.0308929 1.0314115c-.00079371.188165.002725.3374488.0237584.4640299.0210598.1267238.0625841.23692.14468821.3188284.0821041.081911.19274212.1234352.3193443.1446882.1266022.021245.275542.025319.463514.025319h1.5367831c.1879719 0 .3366287-.00405.4629981-.025319.1263667-.0212715.2370126-.0627376.3188284-.1446882.0818078-.0819507.1229431-.1922924.1441696-.3188284.0212186-.1265334.0253194-.275685.0253194-.4640299v-1.0314115-1.0314115c0-.18834492-.0041-.33749643-.025319-.46402983-.0212189-.12653604-.0623596-.23687774-.14417-.31882839-.0818158-.08195066-.1924617-.12342205-.3188284-.14468821-.1263694-.02127146-.2750262-.02531938-.4629981-.02531938z" opacity=".3" stroke="#000" stroke-width=".26457"/><path clip-path="url(#b)" d="m325.09646 237c-2.80769 0-3.10979.28839-3.09603 3.10176v3.89824 3.89824c-.0138 2.81337.28834 3.10176 3.09603 3.10176h5.8075c2.8077 0 3.09604-.28835 3.09604-3.10176v-3.89824-3.89824c0-2.8134-.28835-3.10176-3.09604-3.10176z" opacity=".4" stroke="url(#a)" stroke-width="2" transform="matrix(.26457031 0 0 .26457031 -84.662368 -62.438593)"/></g></svg>