<svg height="16" viewBox="0 0 4.233125 4.233125" width="16" xmlns="http://www.w3.org/2000/svg" xmlns:xlink="http://www.w3.org/1999/xlink"><linearGradient id="a" gradientUnits="userSpaceOnUse" x1="328" x2="328" y1="237" y2="251"><stop offset="0" stop-color="#fff"/><stop offset=".125" stop-color="#fff" stop-opacity=".098039"/><stop offset=".92500001" stop-color="#fff" stop-opacity=".098039"/><stop offset="1" stop-color="#fff" stop-opacity=".498039"/></linearGradient><clipPath id="b"><path d="m325.09646 237c-2.80769 0-3.10979.28839-3.09603 3.10176v3.89824 3.89824c-.0138 2.81337.28834 3.10176 3.09603 3.10176h5.8075c2.8077 0 3.09604-.28835 3.09604-3.10176v-3.89824-3.89824c0-2.8134-.28835-3.10176-3.09604-3.10176z"/></clipPath><linearGradient id="c" gradientTransform="matrix(0 -.00953618 .00953591 0 -.942983 4.47364)" gradientUnits="userSpaceOnUse" x1="459.03448" x2="35.310345" y1="419.23337" y2="207.36522"><stop offset="0" stop-color="#f2f2f2"/><stop offset="1" stop-color="#f9f9f9"/></linearGradient><path d="m1.3483196.264567c-.190237 0-.344431.0037-.48573304.02739-.141304.02373-.28264.0731-.390656.180858-.108014.10776-.157835.249551-.181374.39117-.02355.141622-.02677.296446-.02585.487285v.765291 1.031412c-.000794.190004.0024.344563.02585.485735.02355.141619.07336.28341.181374.39117.108016.107762.249352.157139.390656.180857.14130204.02373.29549604.02739.48573304.02739h1.536783c.190237 0 .344095-.0036.485217-.02739.141124-.02376.282476-.07353.390138-.181374.107661-.107844.157165-.249413.180857-.390654.0237-.141244.02739-.295131.02739-.485735v-1.031412-.766841c0-.190604-.0037-.344492-.02739-.485735-.02368-.141241-.0732-.28281-.180858-.390654-.107662-.107844-.249014-.157626-.390138-.181374-.141122-.02375-.29498-.02739-.485217-.02739z" opacity=".1"/><path d="m1.3485206.264567c-.74283104 0-.82275804.0763-.81911804.820634v1.031358 1.031359c-.0037.744334.07629.820633.81911804.820633h1.536492c.742834 0 .81912-.07629.81912-.820633v-1.031359-1.031358c0-.744342-.07629-.820634-.81912-.820634z" fill="none" opacity=".2" stroke="#000" stroke-width=".529141"/><path d="m1.3485206.264567c-.74283104 0-.82275804.0763-.81911804.820634v1.031358 1.031359c-.0037.744334.07629.820633.81911804.820633h1.536492c.742834 0 .81912-.07629.81912-.820633v-1.031359-1.031358c0-.744342-.07629-.820634-.81912-.820634z" fill="url(#c)"/><path d="m2.6690676.795425c-.166184-.009-.353056.01712-.535982.08211-.289977.103103-.604348.265483-.830532.476843-.26871.251315-.31137004.470032-.293971.561534.06251.324773.51043.535853.689573.692444-.009.0052-.0173.0099-.02439.01378-.08957.04446-.431115.222872-.516174.411677-.09666.213937.01545.367229.08957.387849.230049.06379.466456-.05084.5934-.240288.121657-.181558.112011-.413846.05942-.532252.01429-.003.02665-.0074.04192-.0098.33044-.05234.449809.129349.461342.216747.01156.08739-.04266.152186-.06086.172537-.0182.02034-.02437.02695-.01953.03646.0069.01402.01725.01024.03531.0024.02487-.01209.1491-.114759.111674-.271009-.0455-.200391-.294361-.363141-.626412-.26756v-.00022c-.0072.0018-.01381.0047-.02066.0072-.0021-.0024-.0044-.0049-.0066-.0072-.197189-.210717-.562076-.359604-.54661-.64249.0058-.103106.04127-.37356.700482-.702204.542581-.26742.974534-.193316 1.049286-.02899.106968.23456-.231438.670056-.79206.733206-.21394.02384-.326194-.05864-.354548-.08957-.02964-.03222-.03412-.03429-.04507-.02785-.01804.0097-.0064.03865 0 .05541.01675.04382.08576.121308.202396.159329.103103.03351.353905.05211.657417-.06517.339595-.131457.605057-.496884.527083-.802971-.04873-.194126-.268478-.306825-.545457-.321821zm-.887083 1.885272c.04575.167545.0018.315138-.105074.431774-.101817.110833-.243664.152569-.30488.117128-.06573-.03802-.03975-.201672.08526-.318948.07604-.07153.174058-.137968.239142-.178566.01482-.009.03645-.02177.06287-.03789.0045-.0027.0072-.004.0072-.004.0052-.0032.01037-.0063.0155-.0095z" fill="#e97cc8" stroke-width=".006444"/><path d="m2.1167106.264567v3.703984h.768392c.742834 0 .81903-.07624.81903-.82058v-1.031412-1.031411c0-.744342-.0762-.820581-.81903-.820581z" fill="#fff" opacity=".2"/><path d="m.52928956 2.116559v1.031412c-.0037.744334.0762.82058.81903004.82058h1.536783c.742834 0 .81903-.07624.81903-.82058v-1.031412z" fill="#fff" opacity=".2"/><path clip-path="url(#b)" d="m325.09646 237c-2.80769 0-3.10979.28839-3.09603 3.10176v3.89824 3.89824c-.0138 2.81337.28834 3.10176 3.09603 3.10176h5.8075c2.8077 0 3.09604-.28835 3.09604-3.10176v-3.89824-3.89824c0-2.8134-.28835-3.10176-3.09604-3.10176z" fill="none" opacity=".4" stroke="url(#a)" stroke-width="2" transform="matrix(.26457031 0 0 .26457031 -84.66235 -62.438597)"/></svg>