<svg height="16" viewBox="0 0 4.233125 4.233125" width="16" xmlns="http://www.w3.org/2000/svg" xmlns:xlink="http://www.w3.org/1999/xlink"><linearGradient id="a" gradientUnits="userSpaceOnUse" x1="328" x2="328" y1="237" y2="251"><stop offset="0" stop-color="#fff"/><stop offset=".125" stop-color="#fff" stop-opacity=".098039"/><stop offset=".92500001" stop-color="#fff" stop-opacity=".098039"/><stop offset="1" stop-color="#fff" stop-opacity=".498039"/></linearGradient><clipPath id="b"><path d="m325.09646 237c-2.80769 0-3.10979.28839-3.09603 3.10176v3.89824 3.89824c-.0138 2.81337.28834 3.10176 3.09603 3.10176h5.8075c2.8077 0 3.09604-.28835 3.09604-3.10176v-3.89824-3.89824c0-2.8134-.28835-3.10176-3.09604-3.10176z"/></clipPath><linearGradient id="c" gradientTransform="matrix(0 -.00953618 .00953591 0 -.942983 4.473639)" gradientUnits="userSpaceOnUse" x1="459.03448" x2="35.310345" y1="419.23337" y2="207.36522"><stop offset="0" stop-color="#f2f2f2"/><stop offset="1" stop-color="#f9f9f9"/></linearGradient><path d="m1.3483196.264566c-.190236 0-.344431.0037-.48573204.02739-.141305.02373-.282641.0731-.390657.180858-.108013.10776-.157835.249551-.181374.39117-.02355.141622-.02677.296446-.02585.487286v.76529 1.031412c-.000794.190004.0024.344563.02585.485735.02355.141619.07336.28341.181374.39117.108016.107762.249352.157139.390657.180858.14130104.02373.29549604.02739.48573204.02739h1.536783c.190237 0 .344095-.0036.485217-.02739.141124-.02376.282476-.07353.390138-.181374s.157165-.249413.180858-.390654c.02369-.141243.02739-.295131.02739-.485735v-1.031412-.766841c0-.190604-.0037-.344492-.02739-.485735-.02368-.141241-.0732-.28281-.180858-.390654-.107662-.107844-.249014-.157626-.390138-.181373-.141122-.02375-.29498-.02739-.485217-.02739z" opacity=".1"/><path d="m1.3485206.264566c-.74283104 0-.82275804.0763-.81911704.820634v1.031358 1.031359c-.0037.744334.07629.820634.81911704.820634h1.536492c.742834 0 .819121-.07629.819121-.820634v-1.031359-1.031358c0-.744342-.07629-.820634-.819121-.820634z" fill="none" opacity=".2" stroke="#000" stroke-width=".529141"/><path d="m1.3485206.264566c-.74283104 0-.82275804.0763-.81911704.820634v1.031358 1.031359c-.0037.744334.07629.820634.81911704.820634h1.536492c.742834 0 .819121-.07629.819121-.820634v-1.031359-1.031358c0-.744342-.07629-.820634-.819121-.820634z" fill="url(#c)"/><path d="m1.5727366 3.11624c-.12142-.0264-.189203-.07356-.227936-.158613-.01818-.03992-.02048-.06807-.02537-.309176-.0051-.251914-.0065-.267537-.02765-.3105-.02766-.05616-.0813-.08507-.171254-.09228l-.06208-.005v-.117926-.117916l.06511-.0066c.08941-.009.142394-.03615.16869-.08633.01841-.03513.0213-.0581.02381-.189488.0069-.361413.0092-.399353.0264-.438882.02244-.05157.05846-.08854.113707-.116729.09041-.04614.142006-.05395.390437-.05917l.233536-.0049.0028.664328c.0027.642303.0034.665585.02209.702289.0344.06769.05815.07779.18302.07779h.109222l.0058.04234c.0032.02328.0058.06733.0058.09787v.05553l-.08408.01191c-.04725.0067-.122242.0096-.171211.0067-.154192-.0093-.248644-.06162-.299682-.165942-.04781-.09771-.05201-.15688-.05238-.736575l-.000529-.533834-.05064.0067c-.07248.0096-.109069.02957-.12943.07059-.01513.03049-.01826.06902-.02246.276571-.0045.225512-.0063.244011-.02665.285363-.02827.05736-.05257.07932-.136844.123668l-.06929.03646.05609.02053c.07205.02638.120922.06722.149265.12478.0214.04346.02281.05855.02739.291797.0052.265837.0085.283405.05989.32144.01593.0118.04702.02106.07958.02376l.05346.0044v.109728.109733l-.07958-.000529c-.04377-.000529-.106415-.0066-.139216-.01373zm.869198-.09643v-.110926l.04581-.000019c.06303-.000018.109066-.02516.13251-.07233.01717-.03451.01971-.06455.02416-.284553.0047-.230952.0063-.248437.02655-.286403.0259-.04854.06534-.08011.145701-.116591l.06-.02723-.05523-.02289c-.06574-.02725-.122292-.07585-.151022-.129793-.01942-.03643-.02127-.05682-.02595-.285215-.0046-.224432-.0067-.248929-.02466-.279727-.02307-.03975-.06852-.06474-.132087-.07264l-.04581-.0057v-.111713-.111712l.09601.0066c.212326.01463.318289.07032.363985.191316.01233.03264.01675.09702.02132.311233.0053.247121.0075.272949.02524.30384.02511.04356.09266.07736.168362.08422l.05815.0053v.117914.117911l-.06187.005c-.08004.0064-.136973.03743-.163996.08931-.01844.03543-.02058.06029-.0259.303843-.0062.284863-.01122.315672-.06182.38201-.04843.06349-.190734.109443-.33991.109757l-.07957.000172z" fill="#234db8" stroke-width=".009646"/><path d="m2.1167116.264566v3.703985h.768391c.742834 0 .819031-.07624.819031-.820581v-1.031412-1.031411c0-.744342-.0762-.820581-.819031-.820581z" fill="#fff" opacity=".2"/><path d="m.52928956 2.116558v1.031412c-.0037.744334.0762.820581.81903004.820581h1.536783c.742834 0 .819031-.07624.819031-.820581v-1.031412z" fill="#fff" opacity=".2"/><path clip-path="url(#b)" d="m325.09646 237c-2.80769 0-3.10979.28839-3.09603 3.10176v3.89824 3.89824c-.0138 2.81337.28834 3.10176 3.09603 3.10176h5.8075c2.8077 0 3.09604-.28835 3.09604-3.10176v-3.89824-3.89824c0-2.8134-.28835-3.10176-3.09604-3.10176z" fill="none" opacity=".4" stroke="url(#a)" stroke-width="2" transform="matrix(.26457031 0 0 .26457031 -84.66235 -62.438598)"/></svg>