<svg height="16" width="16" xmlns="http://www.w3.org/2000/svg" xmlns:xlink="http://www.w3.org/1999/xlink"><linearGradient id="a" gradientTransform="matrix(0 -.03604403 .03604301 0 -3.564212 16.90909)" gradientUnits="userSpaceOnUse" x1="459.03448" x2="35.310345" y1="419.23337" y2="207.36522"><stop offset="0" stop-color="#f2f2f2"/><stop offset="1" stop-color="#f9f9f9"/></linearGradient><path d="m5.0962578.9999996c-.71904 0-1.30185.0139-1.83593.10352-.53409.0897-1.0683.27628-1.47657.68359-.40826.4073-.59657.94323-.68554 1.47851-.089.53529-.10119004 1.12048-.0977 1.8418v2.89258 3.8984404c-.003.71816.009 1.30235.0977 1.83594.089.53528.27727 1.07121.68554 1.47851.40827.40731.94248.59394 1.47657.68359.53408.0897 1.11689.10352 1.83593.10352h5.8086002c.71904 0 1.30058-.0137 1.83398-.10352.53341-.0898 1.06768-.27792 1.47461-.68554s.59404-.94271.68359-1.47656c.08956-.53386.10352-1.11551.10352-1.83594v-3.8984404-2.89844c0-.72043-.014-1.30208-.10352-1.83594-.0895-.53385-.27666-1.06894-.68359-1.47656s-.9412-.59578-1.47461-.68554c-.5334-.08977-1.11494-.10352-1.83398-.10352z" opacity=".1"/><path d="m5.0970178.9999996c-2.80769 0-3.10979.28839-3.09603 3.10176v3.89824 3.8982404c-.0138 2.81337.28834 3.10176 3.09603 3.10176h5.8075002c2.8077 0 3.09604-.28835 3.09604-3.10176v-3.8982404-3.89824c0-2.8134-.28835-3.10176-3.09604-3.10176z" fill="none" opacity=".2" stroke="#000" stroke-width="2"/><path d="m5.0970178.9999996c-2.80769 0-3.10979.28839-3.09603 3.10176v3.89824 3.8982404c-.0138 2.81337.28834 3.10176 3.09603 3.10176h5.8075002c2.8077 0 3.09604-.28835 3.09604-3.10176v-3.8982404-3.89824c0-2.8134-.28835-3.10176-3.09604-3.10176z" fill="url(#a)"/><g enable-background="new" fill="#31c6b7" transform="matrix(.06628099 0 0 .06628099 -.659142 5.39961)"><path d="m129.1 22.3c-6.3 1.6-10.6 2.8-16.8 4.4-1.5.4-1.6.5-2.9-1-1.5-1.7-2.6-2.8-4.7-3.8-6.3-3.1-12.4-2.2-18.1 1.5-6.8 4.4-10.3 10.9-10.2 19 .1 8 5.6 14.6 13.5 15.7 6.8.9 12.5-1.5 17-6.6.9-1.1 1.7-2.3 2.7-3.7h-19.3c-2.1 0-2.6-1.3-1.9-3 1.3-3.1 3.7-8.3 5.1-10.9.3-.6 1-1.6 2.5-1.6h36.4c-.2 2.7-.2 5.4-.6 8.1-1.1 7.2-3.8 13.8-8.2 19.6-7.2 9.5-16.6 15.4-28.5 17-9.8 1.3-18.9-.6-26.9-6.6-7.4-5.6-11.6-13-12.7-22.2-1.3-10.9 1.9-20.7 8.5-29.3 7.1-9.3 16.5-15.2 28-17.3 9.4-1.7 18.4-.6 26.5 4.9 5.3 3.5 9.1 8.3 11.6 14.1.6.9.2 1.4-1 1.7z"/><path d="m162.2 77.6c-9.1-.2-17.4-2.8-24.4-8.8-5.9-5.1-9.6-11.6-10.8-19.3-1.8-11.3 1.3-21.3 8.1-30.2 7.3-9.6 16.1-14.6 28-16.7 10.2-1.8 19.8-.8 28.5 5.1 7.9 5.4 12.8 12.7 14.1 22.3 1.7 13.5-2.2 24.5-11.5 33.9-6.6 6.7-14.7 10.9-24 12.8-2.7.5-5.4.6-8 .9zm23.8-40.4c-.1-1.3-.1-2.3-.3-3.3-1.8-9.9-10.9-15.5-20.4-13.3-9.3 2.1-15.3 8-17.5 17.4-1.8 7.8 2 15.7 9.2 18.9 5.5 2.4 11 2.1 16.3-.6 7.9-4.1 12.2-10.5 12.7-19.1z"/></g><g fill="#fff"><path d="m8.0005578.9999996v14.0000004h2.9043002c2.8077 0 3.0957-.28815 3.0957-3.10156v-3.8984404-3.89844c0-2.8134-.28801-3.10156-3.0957-3.10156z" opacity=".2"/><path d="m2.0005578 7.9999996v3.8984404c-.0138 2.81337.28801 3.10156 3.0957 3.10156h5.8086002c2.8077 0 3.0957-.28815 3.0957-3.10156v-3.8984404z" opacity=".2"/></g></svg>