<svg height="16" viewBox="0 0 4.233125 4.233125" width="16" xmlns="http://www.w3.org/2000/svg" xmlns:xlink="http://www.w3.org/1999/xlink"><linearGradient id="a" gradientUnits="userSpaceOnUse" x1="2.116711" x2="2.116711" y1=".26457" y2="3.968555"><stop offset="0" stop-color="#fff"/><stop offset=".125" stop-color="#fff" stop-opacity=".098039"/><stop offset=".92500001" stop-color="#fff" stop-opacity=".098039"/><stop offset="1" stop-color="#fff" stop-opacity=".498039"/></linearGradient><linearGradient id="b" gradientTransform="matrix(0 -.00953618 .00953591 0 -.942985 4.473643)" gradientUnits="userSpaceOnUse" x1="459.03448" x2="35.310345" y1="419.23337" y2="207.36522"><stop offset="0" stop-color="#f2f2f2"/><stop offset="1" stop-color="#f9f9f9"/></linearGradient><path d="m1.3483185.26457027c-.1902366 0-.3444309.003678-.48573256.0273883-.14130436.023732-.28264046.0730955-.39065659.1808576-.10801348.1077595-.15783472.2495507-.18137354.3911699-.0235468.14162183-.0267719.29644573-.0258485.48728563v.7652908 1.0314115c-.00079371.1900038.002381.3445631.0258485.4857352.0235468.1416192.0733574.2834104.18137354.3911699.10801613.1077621.24935223.1571389.39065659.1808576.14130166.023732.29549596.027388.48573256.027388h1.5367831c.1902367 0 .3440949-.00362.4852167-.027388.1411245-.0237584.2824765-.0735294.3901381-.1813736.1076616-.1078441.1571653-.249413.1808576-.3906539.0236949-.1412435.0273883-.2951308.0273883-.4857352v-1.0314115-.7937109l-1.0582812-1.05828133z" opacity=".1"/><path d="m1.3485196.26457027c-.74283143 0-.82275813.0762994-.81911763.82063363v1.0313586 1.0313586c-.003651.7443342.0762862.8206336.81911763.8206336h1.5364921c.7428341 0 .8191203-.076289.8191203-.8206336v-1.0313586-1.0582813l-.7937109-.79371093z" fill="none" opacity=".2" stroke="#000" stroke-width=".529141"/><path d="m1.3485196.26457027c-.74283143 0-.82275813.0762994-.81911763.82063363v1.0313586 1.0313586c-.003651.7443342.0762862.8206336.81911763.8206336h1.5364921c.7428341 0 .8191203-.076289.8191203-.8206336v-1.0313586-1.0582813l-.7937109-.79371093z" fill="url(#b)"/><path d="m1.11928 2.2521204c.065595 0 .1129715-.018943.1421245-.056846.029153-.0379.043731-.087462.043731-.1486885v-.3301622c0-.062679.00802-.1180724.02405-.1661766.016033-.049562.04227-.091105.078715-.1246338.0379-.033526.087459-.059036.1486833-.076527.062682-.017488.1399391-.026245.2317741-.026245h.043731v.2601969h-.054663c-.065595 0-.110056.014578-.1333778.043731-.021853.029153-.032799.074339-.032799.1355632v.2908104c0 .075799-.010212.1399365-.030611.192414-.020398.052478-.061222.097666-.1224458.1355658.061224.0379.1020395.083086.1224458.1355632.020398.052477.030611.1166147.030611.1924141v.2908104c0 .061224.010927.1064101.032799.1355631.023335.029153.067783.043731.1333778.043731h.054663v.2601969h-.043731c-.091835 0-.1690921-.00876-.2317715-.026245-.061225-.0174889-.1107843-.0430067-.148684-.0765278-.0364419-.033529-.0626794-.0750718-.078715-.1246338-.0160329-.0481042-.0240494-.1034972-.0240494-.1661766v-.3301652c0-.061224-.014578-.1107862-.043731-.1486859-.029153-.0379-.07653-.056848-.1421245-.056848z" fill="#5884f4"/><path d="m3.1141137 2.510132c-.065595 0-.1129715.018943-.1421245.056848-.029153.0379-.043731.087462-.043731.1486859v.3301652c0 .062679-.00802.1180725-.024049.1661766-.016033.049562-.043001.091105-.0809.1246338-.036444.033526-.086006.059036-.1486858.076527-.061224.017488-.1377513.026245-.2295863.026245h-.043731v-.260197h.054666c.065595 0 .1093258-.014578.1311899-.043731.023335-.029153.034987-.074339.034987-.1355632v-.2908096c0-.075799.010212-.1399365.030611-.1924141.020398-.052477.061222-.097663.1224458-.1355631-.0612256-.0378997-.1020409-.0830883-.1224472-.1355659-.0203984-.0524775-.0306108-.1166146-.0306108-.192414v-.2908104c0-.061224-.011668-.1064102-.034987-.1355632-.0218533-.029153-.0655947-.0437308-.1311896-.0437308h-.0546655v-.2602049h.043731c.091835 0 .168362.00876.2295862.026245.062679.017488.1122413.043006.1486859.076527.0379.033532.064865.075072.0809.1246338.016033.048104.024049.1034973.024049.1661766v.3301652c0 .061224.014578.1107862.043731.1486859.029153.0379.07653.056848.1421245.056848z" fill="#5884f4"/><path d="m2.1167101.26457027v3.70398443h.7683915c.7428341 0 .8190304-.076236.8190304-.8205807v-1.0314115-1.0582813l-.7937109-.79371093z" fill="#fff" opacity=".2"/><path d="m.5292882 2.1165625v1.0314115c-.003651.7443342.0761989.8205807.8190303.8205807h1.5367831c.7428341 0 .8190304-.076236.8190304-.8205807v-1.0314115z" fill="#fff" opacity=".2"/><path d="m1.3483185.26457027c-.7428314 0-.8226708.0762465-.8190303.82058073v1.0314115 1.0314115c-.003651.7443342.0761989.8205807.8190303.8205807h1.5367831c.7428341 0 .8190304-.076236.8190304-.8205807v-1.0314115-1.0582813l-.7937109-.79371093zm0 .2645703h1.5621026l.5291406.52914063v1.0582813 1.0314115c0 .1815667-.00582.3159975-.019631.3984058-.013811.082406-.029841.09959-.034103.1038651-.00426.00426-.021245.020293-.1033491.034103-.082112.013816-.2161962.019636-.3973767.019636h-1.5367834c-.1811777 0-.3153969-.0063-.39788728-.02016-.082493-.013837-.10001551-.029235-.10438092-.033587-.004365-.00437-.0199486-.021324-.0335898-.1033491-.0136254-.08203-.0194988-.216564-.0185993-.3978899v-.0005292-1.0319062-1.0319274-.0005291c-.00079371-.18132863.004974-.31586003.0185993-.39789003.0136254-.08203.0292218-.098992.0335898-.1033491.004365-.00436.02188-.019737.10438092-.033587.0824904-.013837.21670958-.02016.39788728-.02016z" fill="url(#a)" opacity=".4"/><path d="m3.704132 1.3228516v-.2645704l-.7937109-.79371093h-.2645704v.4049434.01553.00833c0 .54761033.073304.63205063.6221715.62936523z" opacity=".2"/><path d="m3.704132 1.0581807-.7937109-.79361043v.2943847.012832.00688c0 .45177773.020822.48176413.4736364.47954963z" fill="#faf8f6"/></svg>