<svg height="16" width="16" xmlns="http://www.w3.org/2000/svg" xmlns:xlink="http://www.w3.org/1999/xlink"><linearGradient id="a" gradientUnits="userSpaceOnUse" x1="8.00056" x2="8.00056" y1="1" y2="15"><stop offset="0" stop-color="#fff"/><stop offset=".125" stop-color="#fff" stop-opacity=".098039"/><stop offset=".92500001" stop-color="#fff" stop-opacity=".098039"/><stop offset="1" stop-color="#fff" stop-opacity=".498039"/></linearGradient><linearGradient id="b" gradientTransform="matrix(0 -.03604403 .03604301 0 -3.564212 16.90909)" gradientUnits="userSpaceOnUse" x1="459.03448" x2="35.310345" y1="419.23337" y2="207.36522"><stop offset="0" stop-color="#f2f2f2"/><stop offset="1" stop-color="#f9f9f9"/></linearGradient><path d="m5.0962578 1c-.71904 0-1.30185.0139-1.83593.10352-.53409.0897-1.0683.27628-1.47657.68359-.40826.4073-.59657.94323-.68554 1.47851-.089.53529-.10119004 1.12048-.0977 1.8418v2.89258 3.89844c-.003.71816.009 1.30235.0977 1.83594.089.53528.27727 1.07121.68554 1.47851.40827.40731.94248.59394 1.47657.68359.53408.0897 1.11689.10352 1.83593.10352h5.8085992c.719041 0 1.300581-.0137 1.833981-.10352.53341-.0898 1.06768-.27792 1.47461-.68554s.59404-.94271.68359-1.47656c.08956-.53386.10352-1.11551.10352-1.83594v-3.89844-3l-4-4z" opacity=".1"/><path d="m5.0970178 1c-2.80769 0-3.10979.28839-3.09603 3.10176v3.89824 3.89824c-.0138 2.81337.28834 3.10176 3.09603 3.10176h5.8074992c2.807701 0 3.096041-.28835 3.096041-3.10176v-3.89824-4l-3-3z" fill="none" opacity=".2" stroke="#000" stroke-width="2"/><path d="m5.0970178 1c-2.80769 0-3.10979.28839-3.09603 3.10176v3.89824 3.89824c-.0138 2.81337.28834 3.10176 3.09603 3.10176h5.8074992c2.807701 0 3.096041-.28835 3.096041-3.10176v-3.89824-4l-3-3z" fill="url(#b)"/><path d="m4.0005578 8v4h1v-2.1875l1 1.5625.9999997-1.5625v2.1875h1v-4h-1l-.9999997 1.5625-1-1.5625zm5.9999992 0v2h-.9999995l.9999995 2h1.000001l1-2h-1v-2z" fill="#455a64"/><path d="m8.0005575 1v14h2.9042995c2.807701 0 3.095701-.28815 3.095701-3.10156v-3.89844-4l-3-3z" fill="#fff" opacity=".2"/><path d="m2.0005578 8v3.89844c-.0138 2.81337.28801 3.10156 3.0957 3.10156h5.8085992c2.807701 0 3.095701-.28815 3.095701-3.10156v-3.89844z" fill="#fff" opacity=".2"/><path d="m5.0962578 1c-2.80769 0-3.10946.28819-3.0957 3.10156v3.89844 3.89844c-.0138 2.81337.28801 3.10156 3.0957 3.10156h5.8085992c2.807701 0 3.095701-.28815 3.095701-3.10156v-3.89844-4l-3-3zm0 1h5.9043002l2 2v4 3.89844c0 .68627-.022 1.19438-.0742 1.50586-.0522.31147-.11279.37642-.1289.39258-.0161.0161-.0803.0767-.39063.1289-.31036.05222-.81716.07422-1.501971.07422h-5.8085992c-.6848 0-1.19211-.0238-1.5039-.0762-.3118-.0523-.37803-.1105-.39453-.12695-.0165-.0165-.0754-.0806-.12696-.39063-.0515-.31005-.0737-.81855-.0703-1.50391v-.002-3.90031-3.90039-.002c-.003-.68537.0188-1.19386.0703-1.50391s.11045-.37416.12696-.39063c.0165-.0165.0827-.0746.39453-.12695.31179-.0523.8191-.0762 1.5039-.0762z" fill="url(#a)" opacity=".4"/><path d="m14.000558 5v-1l-3-3h-1.000001v1.53057.0587.0315c0 2.06981.27707 2.38897 2.351631 2.37882z" opacity=".2"/><path d="m14.000558 3.99962-3-2.99962v1.11269.0485.026c0 1.70759.0787 1.82093 1.79021 1.81256z" fill="#faf8f6"/></svg>