<svg height="16" viewBox="0 0 4.233125 4.233125" width="16" xmlns="http://www.w3.org/2000/svg" xmlns:xlink="http://www.w3.org/1999/xlink"><linearGradient id="a" gradientUnits="userSpaceOnUse" x1="2.116711" x2="2.116711" y1=".26457" y2="3.968555"><stop offset="0" stop-color="#fff"/><stop offset=".125" stop-color="#fff" stop-opacity=".098039"/><stop offset=".92500001" stop-color="#fff" stop-opacity=".098039"/><stop offset="1" stop-color="#fff" stop-opacity=".498039"/></linearGradient><linearGradient id="b" gradientTransform="matrix(0 -.01021733 .01033057 0 -1.197959 4.642008)" gradientUnits="userSpaceOnUse" x1="441.37927" x2="40.018539" y1="240.30267" y2="395.24066"><stop offset="0" stop-color="#46a926"/><stop offset="1" stop-color="#57b039"/></linearGradient><path d="m1.3483182.26457057c-.1902367 0-.3444309.003678-.48573263.0273883-.1413044.023732-.2826405.0730955-.3906566.18085764-.1080135.10775949-.1578347.24955069-.1813735.39116989-.023547.1416218-.026772.2964457-.025848.4872856v.7652908 1.0314115c-.0007938.1900038.00238.3445631.025848.4857352.023547.1416192.073357.2834104.1813735.3911699.1080161.1077621.2493522.1571389.3906566.1808576.14130173.023732.29549593.027388.48573263.027388h1.536783c.1902367 0 .3440949-.00362.4852167-.027388.1411245-.023759.2824765-.07353.3901381-.1813739.1076616-.1078441.1571653-.249413.1808576-.3906539.0236949-.1412432.0273883-.2951305.0273883-.4857349v-1.0314115-.7937109l-1.0582812-1.05828133z" opacity=".1"/><path d="m1.2845038.13228806c-.80473293 0-.89132153.0817496-.88737683.87924924v1.1050281 1.1050256c-.00394.7975022.082644.8792518.88737683.8792518h1.6645335c.8047356 0 .8873794-.081739.8873794-.8792518v-1.1050256-1.1338743l-.8598535-.85040304z" fill="url(#b)"/><g fill="#fff"><g enable-background="new" transform="matrix(.06438709 0 0 .06438709 -4.556489 -6.63423)"><path d="m91.439333 141.59111q0 1.496.352 2.69866.381334 1.20267 1.056 2.08267.704001.85067 1.701334 1.32.997333.46933 2.288.46933 1.261333 0 2.258667-.46933 1.026666-.46933 1.701336-1.32.704-.88 1.056-2.08267.38133-1.20266.38133-2.69866 0-1.496-.38133-2.69867-.352-1.232-1.056-2.08267-.67467-.88-1.701336-1.34933-.997334-.46934-2.258667-.46934-1.290667 0-2.288.49867-.997333.46933-1.701334 1.34933-.674666.85067-1.056 2.08267-.352 1.20267-.352 2.66934zm15.517337 0q0 2.14133-.528 3.872-.528 1.70133-1.496 2.992-.93867 1.29066-2.25867 2.14133-1.32.85067-2.904 1.232.146667.58667.64533.93867.49867.38133 1.26134.616.76266.23466 1.76.352 1.02666.11733 2.2.20533l-.93867 3.344q-2.288-.088-3.93067-.46933-1.61333-.352-2.75733-.99734-1.114666-.64533-1.789333-1.584-.645333-.93866-.997333-2.17066-1.818667-.23467-3.373334-.99734-1.554667-.792-2.698667-2.112-1.144-1.32-1.789333-3.168-.645333-1.848-.645333-4.19466 0-2.61067.821333-4.57601.821333-1.99466 2.2-3.344 1.408-1.34933 3.226667-2.024 1.848-.67466 3.872-.67466 2.082667 0 3.930663.67466 1.848.67467 3.22667 2.024 1.37867 1.34934 2.17067 3.344.792 1.96534.792 4.57601z"/><path d="m110.32997 132.49777 4.37067-.704v4.54667h5.25067v3.63733h-5.25067v5.42667q0 1.37867.46933 2.2.49867.82133 1.96534.82133.704 0 1.43733-.11733.76267-.14667 1.37867-.38133l.616 3.40266q-.792.32267-1.76.55734-.968.23466-2.376.23466-1.78934 0-2.96267-.46933-1.17333-.49867-1.87733-1.34933-.704-.88-.99734-2.112-.264-1.232-.264-2.728z"/></g><path d="m2.1167098.26457057v3.70398443h.7683914c.7428341 0 .8190304-.076236.8190304-.8205807v-1.0314115-1.0582813l-.7937109-.79371093z" opacity=".1"/><path d="m.52928787 2.1165628v1.0314115c-.00365.7443342.076199.8205807.81903033.8205807h1.536783c.7428341 0 .8190304-.076236.8190304-.8205807v-1.0314115z" opacity=".1"/></g><path d="m1.3483182.00000026c-.1902367 0-.3444309.003678-.48573263.0273883-.1413044.023732-.2826405.0730955-.3906566.18085762-.1080135.10775949-.1578347.2495533-.1813735.39116982-.023547.1416245-.026761.2964458-.025848.4872857v1.0298611 1.0314115c-.0007938.1900038.00238.3445631.025848.4857352.023547.1416192.073357.2834104.1813735.3911699.1080161.1077621.2493522.1571389.3906566.1808576.14130173.023732.29549593.027388.48573263.027388h1.536783c.1902367 0 .3440949-.00362.4852167-.027388.1411245-.023759.2824765-.07353.3901381-.1813739.1076616-.1078441.1571653-.249413.1808576-.3906539.0236949-.1412432.0273883-.2951305.0273883-.4857349v-1.0314115-1.1678293l-.9487333-.94873324zm0 .26457031h1.5621025l.7937109.79371093v1.0582813 1.0314115c0 .7443448-.076196.8205807-.8190304.8205807h-1.536783c-.74283143 0-.82268143-.076246-.81903033-.8205807v-1.0314115-1.0314115c-.00364-.74433421.076199-.82058073.81903033-.82058073z" opacity=".4"/><path d="m1.3483182.26457057c-.74283143 0-.82267083.0762465-.81903033.82058073v1.0314115 1.0314115c-.00365.7443342.076199.8205807.81903033.8205807h1.536783c.7428341 0 .8190304-.076236.8190304-.8205807v-1.0314115-1.0582813l-.7937109-.79371093zm0 .26457031h1.5621025l.5291406.52914062v1.0582813 1.0314115c0 .1815667-.00582.3159975-.019631.3984058-.013811.082406-.029841.09959-.034103.1038651-.00426.00426-.021245.020293-.1033491.034103-.082112.013816-.2161962.019636-.3973767.019636h-1.5367833c-.1811778 0-.3153969-.0063-.39788733-.02016-.082493-.013837-.1000155-.029235-.1043809-.033587-.00436-.00437-.019949-.021324-.03359-.1033491-.013625-.08203-.019499-.216564-.018599-.3978899v-.0005292-1.0319062-1.0319274-.0005291c-.0007938-.1813286.00497-.31586.018599-.39789.013625-.08203.029222-.098992.03359-.1033491.00436-.00437.02188-.019737.1043809-.0335872.08249003-.013837.21670953-.0201603.39788733-.0201603z" fill="url(#a)" opacity=".4"/><path d="m3.7041316 1.3228519v-.2645704l-.7937109-.79371093h-.2645703v.40494343.01553.00833c0 .5476103.073304.6320506.6221714.6293652z" fill="#2a6517" opacity=".6"/><path d="m3.7041316 1.058181-.7937109-.79361043v.29438473.0128317.006879c0 .4517777.020822.4817641.4736364.4795496z" fill="#8dca7a"/></svg>