<svg id="svg47" height="16" width="16" xmlns="http://www.w3.org/2000/svg">
  <g fill="#808080">
    <path id="path43" d="m1000.9961-26.46875c-.5834.000488-1.14693.109319-1.66798.330078-.00084.000347-.001.0016-.002.002-.51731.211825-.98227.524331-1.36719.929688l-.002.0039-.008.0078c-.37476.407693-.66045.894027-.85938 1.435546h-.002v.002c-.20374.564455-.30364 1.159723-.29687 1.759765v.002c0 .000648-.00001.0013 0 .002.0004.625414.0937 1.222145.29882 1.771485.1993.533658.48761 1.014494.86133 1.419922l.006.0059.002.002c.38187.402198.84152.721226 1.35547.941406h.002l.0156.0059c.52181.212339 1.085.316406 1.668.316406s1.1446-.104245 1.666-.316406l.293-.117188.2701-.19912c.3833-.204493.4932-.311917.7904-.630958v-.002c.3854-.406345.6784-.889616.8789-1.425781.1521-.405095.2306-.508667.2684-.959015l.042-.349579v-.468999c0-.618329-.093-1.208796-.2968-1.755859v-.002c-.1911-.535652-.4888-1.025771-.8769-1.441407-.3785-.408063-.8418-.728267-1.3575-.9375-.5308-.222518-1.1021-.33584-1.6777-.332031zm0 1.9375c.3498 0 .6482.06201.918.177734v.002l.033.01172c.256.106369.4572.25136.6347.4375l.029.03125c.1906.200917.3446.451529.4629.769532l.01.01562c.1069.288676.1664.638669.1719 1.046876v.039018c0 .434671-.067.794512-.1797 1.097656v.0078.0039c-.095.260474-.2476.492837-.4297.701172-.1758.16211-.1377.126986-.1758.16211-.1628.151661-.3333.292677-.5586.390625-.2889.113359-.5978.17098-.9082.167969-.3551 0-.6562-.05976-.9336-.171875-.25903-.112608-.47449-.267917-.66992-.466797l-.0664-.09375-.006-.0039c-.17703-.206576-.32235-.438483-.41797-.69336-.0002-.000527.0002-.0014 0-.002-.12349-.350409-.18397-.720271-.17773-1.091797v-.0039-.003853c0-.39775.0652-.725042.16601-1.015625l.043-.04297v-.08398c.11457-.292787.25395-.534423.42578-.72461l.01-.0098c.19566-.203815.41562-.354184.68353-.464844 0-.000943 0-.003.01-.0039l.019-.0078.024-.0098-.012.0078c.2692-.11226.5616-.175781.9062-.175781zm.029 8.087891c-2.90996 0-4.58506.267794-5.85938 1.228515-.65872.497189-1.09492 1.180318-1.33398 1.945313-.22589.726205-.30171 1.330867-.30274 2.267578l-.002.466797 1.9375.0039.002-.466797c.002-.840435.0593-1.194901.21485-1.695312.14546-.467922.31874-.724849.65039-.97461.67286-.507553 1.91714-.839844 4.69336-.839843 2.7761 0 3.959.327399 4.6387.839843.3304.250638.5042.506825.6484.972657v.002c.1554.499076.2129.853287.2128 1.693359v.46875h1.9376v-.468791c-.0001-.937541-.075-1.5411-.3008-2.267578-.2371-.765618-.6735-1.450512-1.3321-1.947266-1.2681-.958011-2.8966-1.228515-5.8066-1.228515z" transform="matrix(.53332951 0 0 .53332951 -525.86308 17.866625)"/>
    <path id="path11" d="m5.49414.0000003c-1.2582.0145-2.17889-.030604-2.93164.3847656-.37637.20766-.673231.5593869-.837891.9980469-.16467.43867-.224609.9595775-.224609 1.6171875v9.9999997c0 .65761.0599 1.178578.224609 1.617188.16468.43861.461531.788523.837891.996093.75272.41514 1.67354.371649 2.93164.386719h.002 5.00586.0039c1.25819-.0145 2.178891.0306 2.931641-.384766.37637-.20766.673231-.559387.837891-.998046.164539-.438671.224618-.959578.224618-1.617188v-9.9999997c0-.65761-.0599-1.1785775-.224609-1.6171875-.16468-.43861-.461531-.7885237-.837891-.9960937-.75272-.41513-1.673551-.3716488-2.931641-.3867188h-.002-5.005859zm.0059 1h5c1.25862.0152 2.089098.059899 2.455078.2617188.18342.1011599.287226.2128562.384766.4726562.09741.25979.160156.673235.160156 1.265625v9.9999997c0 .59239-.0626 1.005725-.160156 1.265625-.0976.25991-.201356.371466-.384766.472656-.36596.20192-1.196558.247009-2.455078.261719h-4.994141-.0059c-1.25863-.0152-2.089098-.0599-2.455078-.261719-.18342-.10116-.287226-.212856-.384766-.472656-.09755-.25979-.160156-.673235-.160156-1.265625v-9.9999997c0-.59239.0626-1.005725.160156-1.265625.0976-.25991.203309-.3714662.386719-.4726562.36595-.20191 1.194605-.2470188 2.453125-.2617188z"/>
  </g>
</svg>
