<svg id="svg41" height="16" viewBox="0 0 4.233125 4.233125" width="16" xmlns="http://www.w3.org/2000/svg">
  <path id="path17" d="m6.0098 3.9883v1.5586h1.5586v-1.5586zm2 0v1.5586h1.5586v-1.5586zm4.2598 1.2832c-.52394.35908-.76491 1.0092-.60156 1.623.16516.61336.69874 1.0562 1.332 1.1055.21163.59859.77721.99911 1.4121 1 .6349-.0008906 1.2005-.40141 1.4121-1-.21163-.59859-.77721-.99911-1.4121-1-.30289.0009283-.5984.093532-.84766.26562.10129-.28586.11354-.59571.03516-.88867-.16492-.61272-.69753-1.0554-1.3301-1.1055zm.73047 2.7285h-12c-.0000004 3.3137 2.6863 5 6 5s6-1.6863 6-5zm-9.5586-2.0039v1.5586h1.5586v-1.5586zm2 0v1.5586h1.5586v-1.5586zm2 0v1.5586h1.5586v-1.5586zm2 0v1.5586h1.5586v-1.5586zm-5.9414 3.0039a.5.5 0 0 1 .5.5.5.5 0 0 1 -.5.5.5.5 0 0 1 -.5-.5.5.5 0 0 1 .5-.5z" fill="#808080" stroke-width=".13229" transform="matrix(.26770839392 0 0 .26770839392 -.135442 -.040795)"/>
</svg>
