<svg height="16" viewBox="0 0 4.233125 4.233125" width="16" xmlns="http://www.w3.org/2000/svg" xmlns:xlink="http://www.w3.org/1999/xlink"><linearGradient id="a" gradientTransform="matrix(0 -.00953618 .00953591 0 -.942984 4.47364)" gradientUnits="userSpaceOnUse" x1="459.03448" x2="35.310345" y1="419.23337" y2="207.36522"><stop offset="0" stop-color="#f2f2f2"/><stop offset="1" stop-color="#f9f9f9"/></linearGradient><linearGradient id="b" gradientUnits="userSpaceOnUse" x1="328" x2="328" y1="237" y2="251"><stop offset="0" stop-color="#fff"/><stop offset=".125" stop-color="#fff" stop-opacity=".098039"/><stop offset=".92500001" stop-color="#fff" stop-opacity=".098039"/><stop offset="1" stop-color="#fff" stop-opacity=".498039"/></linearGradient><clipPath id="c"><path d="m325.09646 237c-2.80769 0-3.10979.28839-3.09603 3.10176v3.89824 3.89824c-.0138 2.81337.28834 3.10176 3.09603 3.10176h5.8075c2.8077 0 3.09604-.28835 3.09604-3.10176v-3.89824-3.89824c0-2.8134-.28835-3.10176-3.09604-3.10176z"/></clipPath><path d="m1.3483186.264567c-.190236 0-.34443.0037-.48573204.02739-.141305.02373-.282641.0731-.390657.180858-.108013.107759-.157834.24955-.181373.39117-.02355.141621-.02677.296445-.02585.487285v.765291 1.031412c-.000794.190003.0024.344563.02585.485735.02355.141619.07336.28341.181373.39117.108016.107762.249352.157139.390657.180857.14130204.02373.29549604.02739.48573204.02739h1.536784c.190236 0 .344094-.0036.485216-.02739.141125-.02376.282477-.07353.390138-.181374.107662-.107844.157166-.249413.180858-.390654.0237-.141244.02739-.295131.02739-.485735v-1.031413-.766841c0-.190605-.0037-.344492-.02739-.485735-.02368-.141241-.0732-.28281-.180858-.390654-.107661-.107844-.249013-.157626-.390138-.181374-.141122-.02375-.29498-.02739-.485216-.02739z" opacity=".1"/><path d="m1.3485206.264567c-.74283204 0-.82275904.0763-.81911804.820633v1.031359 1.031359c-.0037.744334.07629.820633.81911804.820633h1.536492c.742834 0 .81912-.07629.81912-.820633v-1.031359-1.031359c0-.744342-.07629-.820633-.81912-.820633z" fill="none" opacity=".2" stroke="#000" stroke-width=".529141"/><path d="m1.3485206.264567c-.74283204 0-.82275904.0763-.81911804.820633v1.031359 1.031359c-.0037.744334.07629.820633.81911804.820633h1.536492c.742834 0 .81912-.07629.81912-.820633v-1.031359-1.031359c0-.744342-.07629-.820633-.81912-.820633z" fill="url(#a)"/><path d="m2.1167106.264567v3.703984h.768392c.742834 0 .81903-.07624.81903-.82058v-1.031412-1.031411c0-.744343-.0762-.820581-.81903-.820581z" fill="#fff" opacity=".2"/><path d="m.52928856 2.116559v1.031412c-.0037.744334.0762.82058.81903004.82058h1.536784c.742834 0 .81903-.07624.81903-.82058v-1.031412z" fill="#fff" opacity=".2"/><path clip-path="url(#c)" d="m325.09646 237c-2.80769 0-3.10979.28839-3.09603 3.10176v3.89824 3.89824c-.0138 2.81337.28834 3.10176 3.09603 3.10176h5.8075c2.8077 0 3.09604-.28835 3.09604-3.10176v-3.89824-3.89824c0-2.8134-.28835-3.10176-3.09604-3.10176z" fill="none" opacity=".4" stroke="url(#b)" stroke-width="2" transform="matrix(.26457031 0 0 .26457031 -84.662351 -62.438597)"/><g transform="matrix(.09567846 0 0 .09567846 -1.287749 -23.386628)"><path d="m35.806999 252.33164v1.05833h12.7v-1.05833zm0 3.175v1.05833h12.7v-1.05833zm0 3.175v1.05833h12.7v-1.05833zm0 3.175v1.05833h12.7v-1.05833zm0 3.175v1.05833h12.7v-1.05833z" fill="#b3b3b3"/><path d="m22.489583 267.36665v1.05833h12.7v-1.05833zm0 3.175v1.05833h12.7v-1.05833zm0 3.175v1.05833h12.7v-1.05833zm0 3.175v1.05833h12.7v-1.05833zm0 3.175v1.05833h12.7v-1.05833z" fill="#b3b3b3"/><g fill-opacity=".321285"><path d="m-8.1308443 262.0643c2.712041-1.85882 3.9918805-3.71763 3.9918805-5.8507 0-1.82834-1.0055882-3.01676-2.4987343-3.01676-1.1274777 0-1.9807041.79228-1.9807041 1.82834 0 1.09701.822754 1.79787 2.0721212 1.79787.1218895 0 .4266132 0 .4875579-.0305h.091417c.1523619 0 .2133066.0914.2133066.27425 0 1.27984-1.0360606 2.71204-3.0777094 4.14424z" transform="translate(48.392057 19.040767)"/><path d="m-8.1308443 262.0643c2.712041-1.85882 3.9918805-3.71763 3.9918805-5.8507 0-1.82834-1.0055882-3.01676-2.4987343-3.01676-1.1274777 0-1.9807041.79228-1.9807041 1.82834 0 1.09701.822754 1.79787 2.0721212 1.79787.1218895 0 .4266132 0 .4875579-.0305h.091417c.1523619 0 .2133066.0914.2133066.27425 0 1.27984-1.0360606 2.71204-3.0777094 4.14424z" transform="translate(53.683727 19.040767)"/><path d="m-8.1308443 262.0643c2.712041-1.85882 3.9918805-3.71763 3.9918805-5.8507 0-1.82834-1.0055882-3.01676-2.4987343-3.01676-1.1274777 0-1.9807041.79228-1.9807041 1.82834 0 1.09701.822754 1.79787 2.0721212 1.79787.1218895 0 .4266132 0 .4875579-.0305h.091417c.1523619 0 .2133066.0914.2133066.27425 0 1.27984-1.0360606 2.71204-3.0777094 4.14424z" transform="matrix(-1 0 0 -1 23.045445 514.458153)"/><path d="m-8.1308443 262.0643c2.712041-1.85882 3.9918805-3.71763 3.9918805-5.8507 0-1.82834-1.0055882-3.01676-2.4987343-3.01676-1.1274777 0-1.9807041.79228-1.9807041 1.82834 0 1.09701.822754 1.79787 2.0721212 1.79787.1218895 0 .4266132 0 .4875579-.0305h.091417c.1523619 0 .2133066.0914.2133066.27425 0 1.27984-1.0360606 2.71204-3.0777094 4.14424z" transform="matrix(-1 0 0 -1 17.753775 514.458153)"/></g></g></svg>