<svg height="16" viewBox="0 0 4.233125 4.233125" width="16" xmlns="http://www.w3.org/2000/svg" xmlns:xlink="http://www.w3.org/1999/xlink"><linearGradient id="a" gradientTransform="matrix(0 -.00953618 .00953591 0 -.942984 4.47364)" gradientUnits="userSpaceOnUse" x1="459.03448" x2="35.310345" y1="419.23337" y2="207.36522"><stop offset="0" stop-color="#f2f2f2"/><stop offset="1" stop-color="#f9f9f9"/></linearGradient><linearGradient id="b" gradientUnits="userSpaceOnUse" x1="328" x2="328" y1="237" y2="251"><stop offset="0" stop-color="#fff"/><stop offset=".125" stop-color="#fff" stop-opacity=".098039"/><stop offset=".92500001" stop-color="#fff" stop-opacity=".098039"/><stop offset="1" stop-color="#fff" stop-opacity=".498039"/></linearGradient><clipPath id="c"><path d="m325.09646 237c-2.80769 0-3.10979.28839-3.09603 3.10176v3.89824 3.89824c-.0138 2.81337.28834 3.10176 3.09603 3.10176h5.8075c2.8077 0 3.09604-.28835 3.09604-3.10176v-3.89824-3.89824c0-2.8134-.28835-3.10176-3.09604-3.10176z"/></clipPath><path d="m1.3483186.264567c-.190236 0-.34443.0037-.48573204.02739-.141305.02373-.282641.0731-.390657.180858-.108013.107759-.157834.24955-.181373.39117-.02355.141621-.02677.296445-.02585.487285v.765291 1.031412c-.000794.190003.0024.344563.02585.485735.02355.141619.07336.28341.181373.39117.108016.107762.249352.157139.390657.180857.14130204.02373.29549604.02739.48573204.02739h1.536784c.190236 0 .344094-.0036.485216-.02739.141125-.02376.282477-.07353.390138-.181374.107662-.107844.157166-.249413.180858-.390654.0237-.141244.02739-.295131.02739-.485735v-1.031413-.766841c0-.190605-.0037-.344492-.02739-.485735-.02368-.141241-.0732-.28281-.180858-.390654-.107661-.107844-.249013-.157626-.390138-.181374-.141122-.02375-.29498-.02739-.485216-.02739z" opacity=".1"/><path d="m1.3485206.264567c-.74283204 0-.82275904.0763-.81911804.820633v1.031359 1.031359c-.0037.744334.07629.820633.81911804.820633h1.536492c.742834 0 .81912-.07629.81912-.820633v-1.031359-1.031359c0-.744342-.07629-.820633-.81912-.820633z" fill="none" opacity=".2" stroke="#000" stroke-width=".529141"/><path d="m1.3485206.264567c-.74283204 0-.82275904.0763-.81911804.820633v1.031359 1.031359c-.0037.744334.07629.820633.81911804.820633h1.536492c.742834 0 .81912-.07629.81912-.820633v-1.031359-1.031359c0-.744342-.07629-.820633-.81912-.820633z" fill="url(#a)"/><path d="m2.1167106.264567v3.703984h.768392c.742834 0 .81903-.07624.81903-.82058v-1.031412-1.031411c0-.744343-.0762-.820581-.81903-.820581z" fill="#fff" opacity=".2"/><path d="m.52928856 2.116559v1.031412c-.0037.744334.0762.82058.81903004.82058h1.536784c.742834 0 .81903-.07624.81903-.82058v-1.031412z" fill="#fff" opacity=".2"/><path clip-path="url(#c)" d="m325.09646 237c-2.80769 0-3.10979.28839-3.09603 3.10176v3.89824 3.89824c-.0138 2.81337.28834 3.10176 3.09603 3.10176h5.8075c2.8077 0 3.09604-.28835 3.09604-3.10176v-3.89824-3.89824c0-2.8134-.28835-3.10176-3.09604-3.10176z" fill="none" opacity=".4" stroke="url(#b)" stroke-width="2" transform="matrix(.26457031 0 0 .26457031 -84.662351 -62.438597)"/><g fill="#5884f4" stroke-width=".096149"><path d="m1.3928719.47525358c-.08044.00077-.148938.01-.204807.0281-.05678.0173-.102486.0434-.137184.0781-.0347.0331-.05919.0749-.07339.12541-.0142.0505-.02127.10804-.02127.17271v.90920992c0 .0284-.0047.0568-.01421.0852-.0079.0268-.02127.0513-.0402.0733-.01735.0205-.03947.0378-.06628.052-.02337.011-.05117.0169-.08293.0183v.17166c.03176.002.05956.008.08293.0206.02681.0126.04893.03.06628.0521.01893.0205.03231.045.0402.0733.0095.0268.01421.0544.01421.0828v.90916c0 .0647.0071.12229.02127.1727599.01419.0505.03869.093.07339.1277002.0347.0347.0804.0608.137184.0781.05587.016599.124366.024999.204807.0257h.07205v-.17296h-.07205c-.07945-.00201-.137638-.018599-.174051-.0492-.03785-.0315-.05679-.093-.05679-.1844802v-.8476999c0-.1041-.01419-.18455-.04258-.24133-.02681-.0568-.06545-.10092-.115919-.13247.05047-.0315.0891-.0757.115919-.13251.02839-.0568.04258-.13723.04258-.24133v-.84769991c0-.0915.01894-.15294001.05679-.18448001.03641-.0306.0946-.0469.174051-.0492h.07205v-.17286z"/><path d="m2.6860109.47525358v.17286h.07205c.07945.002.137638.0186.174051.0492.03785.0315.05679.093.05679.18448001v.84769991c0 .1041.01419.18455.04258.24133.02681.0568.06545.10097.115919.13251-.05047.0315-.0891.0757-.115919.13247-.02839.0568-.04258.13723-.04258.24133v.8477c0 .0915-.01894.1529399-.05679.1844801-.03641.0306-.0946.0468-.174051.0492h-.07205v.17296h.07205c.08044-.0006614.148938-.009.204807-.0257.05678-.0173.102486-.0434.137184-.0781.0347-.0347.05919-.0772.07339-.1277002.0142-.0505.02127-.1080899.02127-.1727599v-.90916c0-.0284.0047-.056.01421-.0828.0079-.0284.02127-.0528.0402-.0733.01735-.0221.03947-.0394.06628-.0521.02337-.0124.05117-.019.08293-.0206v-.17166c-.03176-.001-.05956-.007-.08293-.0183-.02681-.0142-.04893-.0315-.06628-.052-.01893-.0221-.03231-.0465-.0402-.0733-.0095-.0284-.01421-.0568-.01421-.0852v-.90920992c0-.0647-.0071-.12224-.02127-.17271-.01419-.0505-.03869-.0923-.07339-.12541-.0347-.0347-.0804-.0607-.137184-.0781-.05587-.0181-.124366-.0273-.204807-.0281z"/></g></svg>