<svg id="svg7384" height="16" width="16.000031" xmlns="http://www.w3.org/2000/svg">
  <g fill="#808080">
    <path id="path1817" d="m475.99418 162c-1.2582.0145-2.17889-.0306-2.93164.38477-.37637.20766-.67323.55938-.83789.99804-.16467.43867-.22461.95958-.22461 1.61719v7c0 .65761.0599 1.17853.22461 1.61719.16467.43866.46152.79039.83789.99804.75275.41532 1.67345.3702 2.93164.38477h.004 8.0039.004c1.25819-.0145 2.17889.0306 2.93164-.38477.37637-.20766.67322-.55938.83789-.99804.16413-.43867.22443-.95958.22443-1.61719v-7c0-.65761-.0599-1.17852-.22461-1.61719-.16466-.43866-.46152-.79038-.83789-.99804-.75275-.41534-1.67344-.37025-2.93164-.38477h-.004-8.0039zm2.90234 1.0918c1.74896-.004 3.49727-.001 5.2461.0215.86117.14671 2.16104-.34154 2.67383.66797.25574 2.92399.0694 5.88197.1289 8.81836-.0871.38019-.18482 1.14361-.73047 1.12891-3.53641.23538-7.09146.10846-10.63476.13476-.78646-.11198-1.99991.2903-2.4043-.6914-.1705-2.4656-.0888-4.94964-.0898-7.43555.12175-.84105-.29598-2.06451.6875-2.51172 1.6892-.21162 3.40839-.0775 5.12304-.13281z" transform="translate(-472.00001 -159.99994)"/>
    <path id="path986" d="m6.8654158.45843927v1.78694783s.846842-.366309 1.587419-.8940361c0-.000117-.000084-.000133-.000132-.00053-.000079-.000113-.000135-.000198-.000198-.000529-.000135-.000114-.000135-.000198-.00053-.000529-.000079-.000114-.000134-.000198-.000134-.000529-.781195-.54454093-1.586361-.89067273-1.586361-.89067273z" transform="matrix(3.7797136 0 0 3.7797136 -20.94927 3.390215)"/>
  </g>
</svg>
