<svg height="16" width="16" xmlns="http://www.w3.org/2000/svg">
  <path d="m8 2a2.84 2.84 0 0 0 -1.12.221c-.345.141-.651.348-.906.615v.003l-.001.002c-.248.269-.44.592-.574.96-.137.367-.203.769-.203 1.2 0 .435.065.841.203 1.209.135.361.327.68.574.95l.001.002c.254.267.558.477.901.624v.003c.346.141.723.21 1.12.21.395 0 .77-.069 1.117-.21v-.002c.343-.147.644-.357.892-.625.255-.268.45-.59.586-.952.138-.368.204-.774.204-1.21h.01c0-.43-.065-.831-.203-1.198a2.771 2.771 0 0 0 -.585-.963 2.5 2.5 0 0 0 -.897-.618 2.835 2.835 0 0 0 -1.12-.221zm.024 8.002c-2.317 0-3.561.213-4.486.91-.462.35-.767.825-.939 1.378s-.226.975-.228 1.71l5.629.002h5.629c-.001-.736-.052-1.159-.225-1.712-.172-.553-.477-1.027-.94-1.376-.923-.697-2.124-.912-4.44-.912z" fill="#f2f2f7"/>
</svg>
