<svg id="svg7384" height="15.000045" width="16.000099" xmlns="http://www.w3.org/2000/svg">
  <g id="layer9" fill="#f2f2f7" transform="translate(-1293 -30.00001)">
    <path id="path7416-1" d="m1296.9941 30c-1.2581.01454-2.1788-.03055-2.9316.384766-.3764.20766-.6732.559382-.8379.998046-.1647.438665-.2246.959578-.2246 1.617188v6c0 .65761.06 1.178526.2246 1.617188.1647.438661.4615.79039.8379.998046.7527.415312 1.6735.370197 2.9316.384766a.50005006.50005006 0 0 0 .01 0h8a.50005006.50005006 0 0 0 .01 0c1.2582-.01454 2.1789.03056 2.9316-.384766.3764-.207663.6732-.559383.8379-.998046.1564-.438664.2164-.959581.2164-1.617188v-6c0-.657607-.06-1.178522-.2246-1.617188-.1647-.438665-.4615-.790379-.8379-.998046-.7527-.415336-1.6734-.370247-2.9316-.384766a.50005006.50005006 0 0 0 -.01 0h-8a.50005006.50005006 0 0 0 -.01 0zm.01 1h8c1.2586.01469 2.0891.05981 2.4551.261719.1834.101194.2872.212744.3847.472656.0935.259912.1561.673232.1561 1.265625v6c0 .592393-.063 1.005718-.1602 1.265625-.098.259907-.2013.371463-.3847.472656-.366.20191-1.1965.247007-2.4551.261719h-7.9941-.01c-1.2585-.01474-2.0872-.05981-2.4531-.261719-.1834-.101194-.2892-.212755-.3867-.472656-.0935-.259901-.1561-.673235-.1561-1.265625v-6c0-.59239.063-1.005719.1602-1.265625.098-.259906.2033-.371461.3867-.472656.3659-.201915 1.1946-.247007 2.4531-.261719z"/>
    <path id="rect4188-9" d="m1299.0002 41h4v1.5c0 1.5.5 1.5 1.5 1.5h.5v1h-8v-1h.5c1 0 1.5 0 1.5-1.5z"/>
    <path id="path3013" d="m1296.584 41.222656c-1 1.5-1.5174 2.240314-1.8477 2.523438-.1651.141562-.2623.183644-.4336.216797-.1713.033152-.4277.037109-.8027.037109h-.5v1h.5c.375 0 .6811.004.9941-.05664.3131-.0606.6222-.206015.8946-.439453.5447-.466876 1.0273-1.226562 2.0273-2.726562z" opacity=".5"/>
  </g>
</svg>
