<?xml version="1.0" encoding="UTF-8" standalone="no"?>
<svg
   xmlns:dc="http://purl.org/dc/elements/1.1/"
   xmlns:cc="http://creativecommons.org/ns#"
   xmlns:rdf="http://www.w3.org/1999/02/22-rdf-syntax-ns#"
   xmlns:svg="http://www.w3.org/2000/svg"
   xmlns="http://www.w3.org/2000/svg"
   xmlns:xlink="http://www.w3.org/1999/xlink"
   xmlns:sodipodi="http://sodipodi.sourceforge.net/DTD/sodipodi-0.dtd"
   xmlns:inkscape="http://www.inkscape.org/namespaces/inkscape"
   width="256"
   height="256"
   version="1.1"
   viewBox="0 0 67.73 67.73"
   id="svg219"
   sodipodi:docname="folder-documents.svg"
   inkscape:version="0.92.4 (5da689c313, 2019-01-14)">
  <metadata
     id="metadata223">
    <rdf:RDF>
      <cc:Work
         rdf:about="">
        <dc:format>image/svg+xml</dc:format>
        <dc:type
           rdf:resource="http://purl.org/dc/dcmitype/StillImage" />
      </cc:Work>
    </rdf:RDF>
  </metadata>
  <sodipodi:namedview
     pagecolor="#ffffff"
     bordercolor="#666666"
     borderopacity="1"
     objecttolerance="10"
     gridtolerance="10"
     guidetolerance="10"
     inkscape:pageopacity="0"
     inkscape:pageshadow="2"
     inkscape:window-width="793"
     inkscape:window-height="480"
     id="namedview221"
     showgrid="false"
     inkscape:zoom="0.921875"
     inkscape:cx="4.8813559"
     inkscape:cy="128"
     inkscape:window-x="0"
     inkscape:window-y="27"
     inkscape:window-maximized="0"
     inkscape:current-layer="svg219" />
  <defs
     id="defs192">
    <clipPath
       id="clipPath1025"
       clipPathUnits="userSpaceOnUse">
      <path
         d="M 111.94141,84 C 99.359506,84.145 90.1531,83.713998 82.625,87.867188 c -3.7641,2.0768 -6.751838,5.574737 -8.398438,9.960937 C 72.580062,102.21433 72,107.4241 72,114 v 42 h 160 v -26 c 0,-6.5759 -0.57996,-11.78566 -2.22656,-16.17188 -0.205,-0.5455 -0.47919,-1.03993 -0.74219,-1.54296 -0.1,-0.1848 -0.17844,-0.38051 -0.27344,-0.56641 -1.727,-3.38752 -4.25471,-6.14522 -7.38281,-7.87109 C 213.8463,99.694146 204.64049,100.1454 192.05859,100 H 192 151.66797 L 135.45312,84 h -23.49218 z"
         style="fill:#e3dfd5"
         id="path2" />
    </clipPath>
    <clipPath
       id="clipPath1082-3"
       clipPathUnits="userSpaceOnUse">
      <path
         d="M 361.9375,-212 C 507.2348,-212 528,-191.28677 528,-46.125 V 70.125 C 528,215.28618 507.2348,236 361.9375,236 H 214.0625 C 68.7652,236 48,215.28618 48,70.125 V -46.125 C 48,-191.28677 68.7652,-212 214.0625,-212 Z"
         style="fill:#8c59d9"
         id="path5" />
    </clipPath>
    <clipPath
       id="clipPath1082-3-5"
       clipPathUnits="userSpaceOnUse">
      <path
         d="M 361.9375,-212 C 507.2348,-212 528,-191.28677 528,-46.125 V 70.125 C 528,215.28618 507.2348,236 361.9375,236 H 214.0625 C 68.7652,236 48,215.28618 48,70.125 V -46.125 C 48,-191.28677 68.7652,-212 214.0625,-212 Z"
         style="fill:#8c59d9"
         id="path8" />
    </clipPath>
    <clipPath
       id="clipPath1082-3-9"
       clipPathUnits="userSpaceOnUse">
      <path
         d="M 361.9375,-212 C 507.2348,-212 528,-191.28677 528,-46.125 V 70.125 C 528,215.28618 507.2348,236 361.9375,236 H 214.0625 C 68.7652,236 48,215.28618 48,70.125 V -46.125 C 48,-191.28677 68.7652,-212 214.0625,-212 Z"
         style="fill:#8c59d9"
         id="path11" />
    </clipPath>
    <clipPath
       id="clipPath1082-3-3"
       clipPathUnits="userSpaceOnUse">
      <path
         d="M 361.9375,-212 C 507.2348,-212 528,-191.28677 528,-46.125 V 70.125 C 528,215.28618 507.2348,236 361.9375,236 H 214.0625 C 68.7652,236 48,215.28618 48,70.125 V -46.125 C 48,-191.28677 68.7652,-212 214.0625,-212 Z"
         style="fill:#8c59d9"
         id="path14" />
    </clipPath>
    <clipPath
       id="clipPath1082-3-53"
       clipPathUnits="userSpaceOnUse">
      <path
         d="M 361.9375,-212 C 507.2348,-212 528,-191.28677 528,-46.125 V 70.125 C 528,215.28618 507.2348,236 361.9375,236 H 214.0625 C 68.7652,236 48,215.28618 48,70.125 V -46.125 C 48,-191.28677 68.7652,-212 214.0625,-212 Z"
         style="fill:#8c59d9"
         id="path17" />
    </clipPath>
    <clipPath
       id="clipPath1082-3-6"
       clipPathUnits="userSpaceOnUse">
      <path
         d="M 361.9375,-212 C 507.2348,-212 528,-191.28677 528,-46.125 V 70.125 C 528,215.28618 507.2348,236 361.9375,236 H 214.0625 C 68.7652,236 48,215.28618 48,70.125 V -46.125 C 48,-191.28677 68.7652,-212 214.0625,-212 Z"
         style="fill:#8c59d9"
         id="path20" />
    </clipPath>
    <clipPath
       id="clipPath1082-3-91"
       clipPathUnits="userSpaceOnUse">
      <path
         d="M 361.9375,-212 C 507.2348,-212 528,-191.28677 528,-46.125 V 70.125 C 528,215.28618 507.2348,236 361.9375,236 H 214.0625 C 68.7652,236 48,215.28618 48,70.125 V -46.125 C 48,-191.28677 68.7652,-212 214.0625,-212 Z"
         style="fill:#8c59d9"
         id="path23" />
    </clipPath>
    <clipPath
       id="clipPath1025-0"
       clipPathUnits="userSpaceOnUse">
      <path
         style="fill:#8c59d9"
         d="M 329.9375,32 C 475.2348,32 496,52.71323 496,197.875 v 116.25 C 496,459.28618 475.2348,480 329.9375,480 H 182.0625 C 36.7652,480 16,459.28618 16,314.125 V 197.875 C 16,52.71323 36.7652,32 182.0625,32 Z"
         id="path26" />
    </clipPath>
    <clipPath
       id="clipPath4277-8"
       clipPathUnits="userSpaceOnUse">
      <rect
         style="opacity:0.81999972;fill:#88b637"
         width="512"
         height="512"
         x="0"
         y="0"
         ry="1"
         id="rect29" />
    </clipPath>
    <linearGradient
       id="linearGradient3650-7-9">
      <stop
         style="stop-color:#5884f4"
         id="stop4366"
         offset="0" />
      <stop
         id="stop4368"
         offset="1"
         style="stop-color:#80a3fa" />
    </linearGradient>
    <clipPath
       id="clipPath1082-3-36"
       clipPathUnits="userSpaceOnUse">
      <path
         d="M 361.9375,-212 C 507.2348,-212 528,-191.28677 528,-46.125 V 70.125 C 528,215.28618 507.2348,236 361.9375,236 H 214.0625 C 68.7652,236 48,215.28618 48,70.125 V -46.125 C 48,-191.28677 68.7652,-212 214.0625,-212 Z"
         style="fill:#8c59d9"
         id="path35" />
    </clipPath>
    <clipPath
       id="clipPath983"
       clipPathUnits="userSpaceOnUse">
      <path
         d="M 115.03125,44 C 42.3826,44 32,54.356615 32,126.9375 v 58.125 C 32,257.64309 42.3826,268 115.03125,268 H 152 V 44 Z"
         style="fill:#4d4d4d"
         id="path38" />
    </clipPath>
    <clipPath
       id="clipPath1082-3-62"
       clipPathUnits="userSpaceOnUse">
      <path
         d="M 361.9375,-212 C 507.2348,-212 528,-191.28677 528,-46.125 V 70.125 C 528,215.28618 507.2348,236 361.9375,236 H 214.0625 C 68.7652,236 48,215.28618 48,70.125 V -46.125 C 48,-191.28677 68.7652,-212 214.0625,-212 Z"
         style="fill:#8c59d9"
         id="path41" />
    </clipPath>
    <clipPath
       id="clipPath949"
       clipPathUnits="userSpaceOnUse">
      <path
         d="M 329.9375,32 C 475.2348,32 496,52.71323 496,197.875 v 116.25 C 496,459.28618 475.2348,480 329.9375,480 H 182.0625 C 36.7652,480 16,459.28618 16,314.125 V 197.875 C 16,52.71323 36.7652,32 182.0625,32 Z"
         style="fill:#eab305"
         id="path44" />
    </clipPath>
    <clipPath
       id="clipPath954"
       clipPathUnits="userSpaceOnUse">
      <path
         d="M 329.9375,32 C 475.2348,32 496,52.71323 496,197.875 v 116.25 C 496,459.28618 475.2348,480 329.9375,480 H 182.0625 C 36.7652,480 16,459.28618 16,314.125 V 197.875 C 16,52.71323 36.7652,32 182.0625,32 Z"
         style="fill:#eab305"
         id="path47" />
    </clipPath>
    <clipPath
       id="clipPath1082-3-8"
       clipPathUnits="userSpaceOnUse">
      <path
         d="M 361.9375,-212 C 507.2348,-212 528,-191.28677 528,-46.125 V 70.125 C 528,215.28618 507.2348,236 361.9375,236 H 214.0625 C 68.7652,236 48,215.28618 48,70.125 V -46.125 C 48,-191.28677 68.7652,-212 214.0625,-212 Z"
         style="fill:#8c59d9"
         id="path50" />
    </clipPath>
    <clipPath
       id="clipPath1082-3-92"
       clipPathUnits="userSpaceOnUse">
      <path
         d="M 361.9375,-212 C 507.2348,-212 528,-191.28677 528,-46.125 V 70.125 C 528,215.28618 507.2348,236 361.9375,236 H 214.0625 C 68.7652,236 48,215.28618 48,70.125 V -46.125 C 48,-191.28677 68.7652,-212 214.0625,-212 Z"
         style="fill:#8c59d9"
         id="path53" />
    </clipPath>
    <clipPath
       id="clipPath1082"
       clipPathUnits="userSpaceOnUse">
      <path
         d="M 361.9375,-212 C 507.2348,-212 528,-191.28677 528,-46.125 V 70.125 C 528,215.28618 507.2348,236 361.9375,236 H 214.0625 C 68.7652,236 48,215.28618 48,70.125 V -46.125 C 48,-191.28677 68.7652,-212 214.0625,-212 Z"
         style="fill:#8c59d9"
         id="path56" />
    </clipPath>
    <clipPath
       id="clipPath1082-3-361"
       clipPathUnits="userSpaceOnUse">
      <path
         d="M 361.9375,-212 C 507.2348,-212 528,-191.28677 528,-46.125 V 70.125 C 528,215.28618 507.2348,236 361.9375,236 H 214.0625 C 68.7652,236 48,215.28618 48,70.125 V -46.125 C 48,-191.28677 68.7652,-212 214.0625,-212 Z"
         style="fill:#8c59d9"
         id="path59" />
    </clipPath>
    <clipPath
       id="clipPath1079"
       clipPathUnits="userSpaceOnUse">
      <circle
         style="fill:url(#linearGradient1083)"
         cx="213.843"
         cy="146"
         r="55"
         transform="scale(-1,1)"
         id="circle62" />
    </clipPath>
    <clipPath
       id="clipPath984"
       clipPathUnits="userSpaceOnUse">
      <circle
         style="fill:url(#linearGradient1083)"
         cx="213.843"
         cy="146"
         r="55"
         transform="scale(-1,1)"
         id="circle65" />
    </clipPath>
    <clipPath
       id="clipPath988"
       clipPathUnits="userSpaceOnUse">
      <circle
         style="fill:url(#linearGradient1083)"
         cx="213.843"
         cy="146"
         r="55"
         transform="scale(-1,1)"
         id="circle68" />
    </clipPath>
    <clipPath
       id="clipPath992"
       clipPathUnits="userSpaceOnUse">
      <circle
         style="fill:url(#linearGradient1083)"
         cx="213.843"
         cy="146"
         r="55"
         transform="scale(-1,1)"
         id="circle71" />
    </clipPath>
    <clipPath
       id="clipPath1082-3-31"
       clipPathUnits="userSpaceOnUse">
      <path
         d="M 361.9375,-212 C 507.2348,-212 528,-191.28677 528,-46.125 V 70.125 C 528,215.28618 507.2348,236 361.9375,236 H 214.0625 C 68.7652,236 48,215.28618 48,70.125 V -46.125 C 48,-191.28677 68.7652,-212 214.0625,-212 Z"
         style="fill:#8c59d9"
         id="path74" />
    </clipPath>
    <clipPath
       id="clipPath1205"
       clipPathUnits="userSpaceOnUse">
      <path
         d="M 115.03125,44 C 42.3826,44 32,54.356615 32,126.9375 v 58.125 c 0,13.772 0.379014,25.29352 1.482422,34.9375 H 270.51758 C 271.62099,210.35602 272,198.8345 272,185.0625 v -58.125 C 272,54.356615 261.6174,44 188.96875,44 Z"
         style="fill:#f1f0e9"
         id="path77" />
    </clipPath>
    <clipPath
       id="clipPath1082-3-4"
       clipPathUnits="userSpaceOnUse">
      <path
         d="M 361.9375,-212 C 507.2348,-212 528,-191.28677 528,-46.125 V 70.125 C 528,215.28618 507.2348,236 361.9375,236 H 214.0625 C 68.7652,236 48,215.28618 48,70.125 V -46.125 C 48,-191.28677 68.7652,-212 214.0625,-212 Z"
         style="fill:#8c59d9"
         id="path80" />
    </clipPath>
    <clipPath
       id="clipPath1082-3-45"
       clipPathUnits="userSpaceOnUse">
      <path
         d="M 361.9375,-212 C 507.2348,-212 528,-191.28677 528,-46.125 V 70.125 C 528,215.28618 507.2348,236 361.9375,236 H 214.0625 C 68.7652,236 48,215.28618 48,70.125 V -46.125 C 48,-191.28677 68.7652,-212 214.0625,-212 Z"
         style="fill:#8c59d9"
         id="path83" />
    </clipPath>
    <clipPath
       id="clipPath1082-3-61"
       clipPathUnits="userSpaceOnUse">
      <path
         d="M 361.9375,-212 C 507.2348,-212 528,-191.28677 528,-46.125 V 70.125 C 528,215.28618 507.2348,236 361.9375,236 H 214.0625 C 68.7652,236 48,215.28618 48,70.125 V -46.125 C 48,-191.28677 68.7652,-212 214.0625,-212 Z"
         style="fill:#8c59d9"
         id="path86" />
    </clipPath>
    <clipPath
       id="clipPath1064"
       clipPathUnits="userSpaceOnUse">
      <path
         style="fill:#a3dbf0"
         d="M 115.03125,44 C 42.3826,44 32,54.356615 32,126.9375 v 58.125 c 0,10.16582 0.217657,19.07051 0.767578,26.9375 3.376331,48.30069 19.790377,56 82.263672,56 h 73.9375 c 62.4733,0 78.88734,-7.69931 82.26367,-56 C 271.78234,204.13301 272,195.22832 272,185.0625 v -58.125 C 272,54.356615 261.6174,44 188.96875,44 Z"
         id="path89" />
    </clipPath>
    <clipPath
       id="clipPath1082-3-32"
       clipPathUnits="userSpaceOnUse">
      <path
         d="M 361.9375,-212 C 507.2348,-212 528,-191.28677 528,-46.125 V 70.125 C 528,215.28618 507.2348,236 361.9375,236 H 214.0625 C 68.7652,236 48,215.28618 48,70.125 V -46.125 C 48,-191.28677 68.7652,-212 214.0625,-212 Z"
         style="fill:#8c59d9"
         id="path92" />
    </clipPath>
    <clipPath
       id="clipPath947"
       clipPathUnits="userSpaceOnUse">
      <path
         d="m 191.43333,45.066672 c 77.49189,0 88.56666,11.047056 88.56666,88.466668 v 62 C 279.99999,272.95263 268.92522,284 191.43333,284 H 112.56666 C 35.074773,284 23.999999,272.95263 23.999999,195.53334 v -62 c 0,-77.419612 11.074774,-88.466668 88.566661,-88.466668 z"
         style="fill:#a4c1f9"
         id="path95" />
    </clipPath>
    <clipPath
       id="clipPath1082-3-55"
       clipPathUnits="userSpaceOnUse">
      <path
         d="M 361.9375,-212 C 507.2348,-212 528,-191.28677 528,-46.125 V 70.125 C 528,215.28618 507.2348,236 361.9375,236 H 214.0625 C 68.7652,236 48,215.28618 48,70.125 V -46.125 C 48,-191.28677 68.7652,-212 214.0625,-212 Z"
         style="fill:#8c59d9"
         id="path98" />
    </clipPath>
    <clipPath
       id="clipPath991"
       clipPathUnits="userSpaceOnUse">
      <path
         d="M 188.96875,44 C 261.6174,44 272,54.356615 272,126.9375 v 58.125 C 272,257.64309 261.6174,268 188.96875,268 h -73.9375 C 42.3826,268 32,257.64309 32,185.0625 v -58.125 C 32,54.356615 42.3826,44 115.03125,44 Z"
         style="fill:#6dc7f1"
         id="path101" />
    </clipPath>
    <clipPath
       id="clipPath978"
       clipPathUnits="userSpaceOnUse">
      <path
         d="M 188.96875,44 C 261.6174,44 272,54.356615 272,126.9375 v 58.125 C 272,257.64309 261.6174,268 188.96875,268 h -73.9375 C 42.3826,268 32,257.64309 32,185.0625 v -58.125 C 32,54.356615 42.3826,44 115.03125,44 Z"
         style="fill:#6dc7f1"
         id="path104" />
    </clipPath>
    <clipPath
       id="clipPath942"
       clipPathUnits="userSpaceOnUse">
      <path
         d="M 188.96875,44 C 261.6174,44 272,54.356615 272,126.9375 v 58.125 C 272,257.64309 261.6174,268 188.96875,268 h -73.9375 C 42.3826,268 32,257.64309 32,185.0625 v -58.125 C 32,54.356615 42.3826,44 115.03125,44 Z"
         style="fill:#46a926"
         id="path107" />
    </clipPath>
    <clipPath
       id="clipPath1082-3-7"
       clipPathUnits="userSpaceOnUse">
      <path
         d="M 361.9375,-212 C 507.2348,-212 528,-191.28677 528,-46.125 V 70.125 C 528,215.28618 507.2348,236 361.9375,236 H 214.0625 C 68.7652,236 48,215.28618 48,70.125 V -46.125 C 48,-191.28677 68.7652,-212 214.0625,-212 Z"
         style="fill:#8c59d9"
         id="path110" />
    </clipPath>
    <radialGradient
       id="radialGradient3322"
       cx="26.617"
       cy="-2.065"
       r="23"
       gradientTransform="matrix(-4.8906e-8,-2.8515,3.7557,0,674.00149,398.26285)"
       gradientUnits="userSpaceOnUse">
      <stop
         id="stop2749"
         offset="0"
         style="stop-color:#d280b9" />
      <stop
         style="stop-color:#b549b5"
         id="stop4269"
         offset=".529" />
      <stop
         id="stop2755"
         offset="1"
         style="stop-color:#8940a8" />
    </radialGradient>
    <clipPath
       id="clipPath1082-3-69"
       clipPathUnits="userSpaceOnUse">
      <path
         d="M 361.9375,-212 C 507.2348,-212 528,-191.28677 528,-46.125 V 70.125 C 528,215.28618 507.2348,236 361.9375,236 H 214.0625 C 68.7652,236 48,215.28618 48,70.125 V -46.125 C 48,-191.28677 68.7652,-212 214.0625,-212 Z"
         style="fill:#8c59d9"
         id="path117" />
    </clipPath>
    <clipPath
       id="clipPath1082-3-452"
       clipPathUnits="userSpaceOnUse">
      <path
         d="M 361.9375,-212 C 507.2348,-212 528,-191.28677 528,-46.125 V 70.125 C 528,215.28618 507.2348,236 361.9375,236 H 214.0625 C 68.7652,236 48,215.28618 48,70.125 V -46.125 C 48,-191.28677 68.7652,-212 214.0625,-212 Z"
         style="fill:#8c59d9"
         id="path120" />
    </clipPath>
    <clipPath
       id="clipPath1082-3-74"
       clipPathUnits="userSpaceOnUse">
      <path
         d="M 361.9375,-212 C 507.2348,-212 528,-191.28677 528,-46.125 V 70.125 C 528,215.28618 507.2348,236 361.9375,236 H 214.0625 C 68.7652,236 48,215.28618 48,70.125 V -46.125 C 48,-191.28677 68.7652,-212 214.0625,-212 Z"
         style="fill:#8c59d9"
         id="path123" />
    </clipPath>
    <clipPath
       id="clipPath1032"
       clipPathUnits="userSpaceOnUse">
      <path
         d="M 188.96875,44 C 261.6174,44 272,54.356615 272,126.9375 v 58.125 C 272,257.64309 261.6174,268 188.96875,268 h -73.9375 C 42.3826,268 32,257.64309 32,185.0625 v -58.125 C 32,54.356615 42.3826,44 115.03125,44 Z"
         style="fill:#76c22b"
         id="path126" />
    </clipPath>
    <clipPath
       id="clipPath1082-3-0"
       clipPathUnits="userSpaceOnUse">
      <path
         d="M 361.9375,-212 C 507.2348,-212 528,-191.28677 528,-46.125 V 70.125 C 528,215.28618 507.2348,236 361.9375,236 H 214.0625 C 68.7652,236 48,215.28618 48,70.125 V -46.125 C 48,-191.28677 68.7652,-212 214.0625,-212 Z"
         style="fill:#8c59d9"
         id="path129" />
    </clipPath>
    <clipPath
       id="clipPath1082-3-89"
       clipPathUnits="userSpaceOnUse">
      <path
         d="M 361.9375,-212 C 507.2348,-212 528,-191.28677 528,-46.125 V 70.125 C 528,215.28618 507.2348,236 361.9375,236 H 214.0625 C 68.7652,236 48,215.28618 48,70.125 V -46.125 C 48,-191.28677 68.7652,-212 214.0625,-212 Z"
         style="fill:#8c59d9"
         id="path132" />
    </clipPath>
    <clipPath
       id="clipPath951"
       clipPathUnits="userSpaceOnUse">
      <path
         style="fill:#8c59d9"
         d="M 188.96875,44 C 261.6174,44 272,54.356615 272,126.9375 v 58.125 C 272,257.64309 261.6174,268 188.96875,268 h -73.9375 C 42.3826,268 32,257.64309 32,185.0625 v -58.125 C 32,54.356615 42.3826,44 115.03125,44 Z"
         id="path135" />
    </clipPath>
    <clipPath
       id="clipPath1082-3-64"
       clipPathUnits="userSpaceOnUse">
      <path
         d="M 361.9375,-212 C 507.2348,-212 528,-191.28677 528,-46.125 V 70.125 C 528,215.28618 507.2348,236 361.9375,236 H 214.0625 C 68.7652,236 48,215.28618 48,70.125 V -46.125 C 48,-191.28677 68.7652,-212 214.0625,-212 Z"
         style="fill:#8c59d9"
         id="path138" />
    </clipPath>
    <clipPath
       id="clipPath1082-3-04"
       clipPathUnits="userSpaceOnUse">
      <path
         d="M 361.9375,-212 C 507.2348,-212 528,-191.28677 528,-46.125 V 70.125 C 528,215.28618 507.2348,236 361.9375,236 H 214.0625 C 68.7652,236 48,215.28618 48,70.125 V -46.125 C 48,-191.28677 68.7652,-212 214.0625,-212 Z"
         style="fill:#8c59d9"
         id="path141" />
    </clipPath>
    <clipPath
       id="clipPath1082-3-367"
       clipPathUnits="userSpaceOnUse">
      <path
         d="M 361.9375,-212 C 507.2348,-212 528,-191.28677 528,-46.125 V 70.125 C 528,215.28618 507.2348,236 361.9375,236 H 214.0625 C 68.7652,236 48,215.28618 48,70.125 V -46.125 C 48,-191.28677 68.7652,-212 214.0625,-212 Z"
         style="fill:#8c59d9"
         id="path144" />
    </clipPath>
    <linearGradient
       id="linearGradient4336-3">
      <stop
         style="stop-color:#5884f4"
         id="stop4338-8"
         offset="0" />
      <stop
         id="stop4344-3"
         offset=".278"
         style="stop-color:#5884f4" />
      <stop
         style="stop-color:#2f5fdd"
         id="stop4346-3"
         offset=".278" />
      <stop
         id="stop4350-1"
         offset=".707"
         style="stop-color:#2f5fdd" />
      <stop
         id="stop4348-6"
         offset=".709"
         style="stop-color:#234db8" />
      <stop
         style="stop-color:#234db8"
         id="stop4340-0"
         offset="1" />
    </linearGradient>
    <clipPath
       id="clipPath1082-3-56"
       clipPathUnits="userSpaceOnUse">
      <path
         d="M 361.9375,-212 C 507.2348,-212 528,-191.28677 528,-46.125 V 70.125 C 528,215.28618 507.2348,236 361.9375,236 H 214.0625 C 68.7652,236 48,215.28618 48,70.125 V -46.125 C 48,-191.28677 68.7652,-212 214.0625,-212 Z"
         style="fill:#8c59d9"
         id="path154" />
    </clipPath>
    <linearGradient
       id="linearGradient3797-5">
      <stop
         id="stop3801"
         offset="0"
         style="stop-color:#f7f7f7" />
      <stop
         id="stop3799"
         offset="1"
         style="stop-color:#e6e6e6" />
    </linearGradient>
    <clipPath
       id="clipPath1082-3-3675"
       clipPathUnits="userSpaceOnUse">
      <path
         d="M 361.9375,-212 C 507.2348,-212 528,-191.28677 528,-46.125 V 70.125 C 528,215.28618 507.2348,236 361.9375,236 H 214.0625 C 68.7652,236 48,215.28618 48,70.125 V -46.125 C 48,-191.28677 68.7652,-212 214.0625,-212 Z"
         style="fill:#8c59d9"
         id="path160" />
    </clipPath>
    <clipPath
       id="clipPath977"
       clipPathUnits="userSpaceOnUse">
      <path
         d="M 78.994141,52 C 43.625611,52 40,53.999146 40,89.296875 V 140 H 264 V 108.92188 C 264,73.624145 260.37439,68 225.00586,68 H 138 L 122,52 Z"
         style="fill:#f6531e"
         id="path163" />
    </clipPath>
    <radialGradient
       id="radialGradient2589"
       cx="148"
       cy="39.684"
       r="112"
       fx="148"
       fy="39.684"
       gradientTransform="matrix(0.26458333,0,0,0.06723474,-6.1594997,242.19179)"
       gradientUnits="userSpaceOnUse"
       xlink:href="#linearGradient1361" />
    <linearGradient
       id="linearGradient1361">
      <stop
         style="stop-color:#ffffff"
         id="stop1357"
         offset="0" />
      <stop
         style="stop-color:#ffffff;stop-opacity:0.20392157"
         id="stop1359"
         offset="1" />
    </linearGradient>
    <radialGradient
       id="radialGradient2587"
       cx="152"
       cy="-.126"
       r="112"
       fx="152"
       fy="-.126"
       gradientTransform="matrix(0.26458333,0,0,0.06959709,-6.1594997,235.34367)"
       gradientUnits="userSpaceOnUse"
       xlink:href="#linearGradient1361" />
    <linearGradient
       id="linearGradient2585"
       x1="224"
       x2="224"
       y1="86"
       y2="478"
       gradientTransform="matrix(0.11988932,0,0,0.11988932,3.3655003,231.42403)"
       gradientUnits="userSpaceOnUse"
       xlink:href="#linearGradient3602" />
    <linearGradient
       id="linearGradient3602">
      <stop
         id="stop3597"
         offset="0"
         style="stop-color:#f3994a" />
      <stop
         id="stop3599"
         offset="1"
         style="stop-color:#f6b069" />
    </linearGradient>
    <clipPath
       id="clipPath977-3"
       clipPathUnits="userSpaceOnUse">
      <path
         d="M 78.994141,52 C 43.625611,52 40,53.999146 40,89.296875 V 140 H 264 V 108.92188 C 264,73.624145 260.37439,68 225.00586,68 H 138 L 122,52 Z"
         style="fill:#f6531e"
         id="path175" />
    </clipPath>
    <filter
       style="color-interpolation-filters:sRGB"
       id="filter989"
       width="1.107"
       height="1.136"
       x="-.05"
       y="-.07">
      <feGaussianBlur
         id="feGaussianBlur991"
         stdDeviation="5" />
    </filter>
    <linearGradient
       id="linearGradient2583"
       x1="264"
       x2="48"
       y1="252"
       y2="52"
       gradientTransform="translate(-27.28,-38.771199)"
       gradientUnits="userSpaceOnUse"
       xlink:href="#linearGradient1055" />
    <linearGradient
       id="linearGradient1055">
      <stop
         style="stop-color:#000000"
         id="stop1051"
         offset="0" />
      <stop
         id="stop1059"
         offset=".159"
         style="stop-color:#000000;stop-opacity:0.43290043" />
      <stop
         style="stop-color:#000000;stop-opacity:0.0995671"
         id="stop1061"
         offset=".194" />
      <stop
         style="stop-color:#000000;stop-opacity:0"
         id="stop1053"
         offset="1" />
    </linearGradient>
    <filter
       style="color-interpolation-filters:sRGB"
       id="filter1067"
       width="1.114"
       height="1.127"
       x="-.06"
       y="-.06">
      <feGaussianBlur
         id="feGaussianBlur1069"
         stdDeviation="5.3" />
    </filter>
    <filter
       style="color-interpolation-filters:sRGB"
       id="filter959"
       width="1.023"
       height="1.025"
       x="-.01"
       y="-.01">
      <feGaussianBlur
         id="feGaussianBlur961"
         stdDeviation="1.06" />
    </filter>
    <filter
       style="color-interpolation-filters:sRGB"
       id="filter1344"
       width="1.023"
       height="1.025"
       x="-.01"
       y="-.01">
      <feGaussianBlur
         id="feGaussianBlur1346"
         stdDeviation="1.06" />
    </filter>
    <radialGradient
       inkscape:collect="always"
       xlink:href="#linearGradient1361"
       id="radialGradient3543-3"
       gradientUnits="userSpaceOnUse"
       gradientTransform="matrix(0.26457031,0,0,0.06723143,-6.423767,14.997759)"
       cx="148"
       cy="39.683556"
       fx="148"
       fy="39.683556"
       r="112" />
    <radialGradient
       inkscape:collect="always"
       xlink:href="#linearGradient1361"
       id="radialGradient3541-8"
       gradientUnits="userSpaceOnUse"
       gradientTransform="matrix(0.26457031,0,0,0.06959366,-6.423767,8.1499731)"
       cx="152"
       cy="-0.12591045"
       fx="152"
       fy="-0.12591045"
       r="112" />
    <linearGradient
       inkscape:collect="always"
       xlink:href="#linearGradient3388"
       id="linearGradient13390"
       gradientUnits="userSpaceOnUse"
       gradientTransform="matrix(0.26457031,0,0,0.26457031,-6.423767,-7.7330087)"
       x1="40"
       y1="84"
       x2="264"
       y2="260" />
    <linearGradient
       inkscape:collect="always"
       id="linearGradient3388">
      <stop
         style="stop-color:#666666;stop-opacity:1;"
         offset="0"
         id="stop3384" />
      <stop
         style="stop-color:#7a7a7a;stop-opacity:1"
         offset="1"
         id="stop3386" />
    </linearGradient>
    <clipPath
       clipPathUnits="userSpaceOnUse"
       id="clipPath977-1">
      <path
         id="path979-3"
         d="M 78.994141,52 C 43.625611,52 40,53.999146 40,89.296875 V 140 H 264 V 108.92188 C 264,73.624145 260.37439,68 225.00586,68 H 138 L 122,52 Z"
         style="color:#000000;display:inline;overflow:visible;visibility:visible;fill:#f6531e;fill-opacity:1;fill-rule:nonzero;stroke:none;stroke-width:1;marker:none;enable-background:accumulate"
         inkscape:connector-curvature="0" />
    </clipPath>
    <filter
       inkscape:collect="always"
       style="color-interpolation-filters:sRGB"
       id="filter989-33"
       x="-0.053571429"
       width="1.1071429"
       y="-0.06818182"
       height="1.1363636">
      <feGaussianBlur
         inkscape:collect="always"
         stdDeviation="5"
         id="feGaussianBlur991-85" />
    </filter>
    <linearGradient
       inkscape:collect="always"
       xlink:href="#linearGradient36441"
       id="linearGradient13388"
       gradientUnits="userSpaceOnUse"
       gradientTransform="matrix(0.26457031,0,0,0.26457031,-6.423767,-7.7330087)"
       x1="40"
       y1="260"
       x2="264"
       y2="52" />
    <linearGradient
       inkscape:collect="always"
       id="linearGradient36441">
      <stop
         style="stop-color:#2c001e;stop-opacity:1"
         offset="0"
         id="stop36437" />
      <stop
         id="stop36445"
         offset="0.10864977"
         style="stop-color:#2c001e;stop-opacity:1" />
      <stop
         style="stop-color:#370626;stop-opacity:1"
         offset="0.18689813"
         id="stop36449" />
      <stop
         id="stop36451"
         offset="0.2980746"
         style="stop-color:#55163b;stop-opacity:1" />
      <stop
         style="stop-color:#772953;stop-opacity:1"
         offset="0.37246177"
         id="stop36453" />
      <stop
         style="stop-color:#7c2b51;stop-opacity:1"
         offset="0.44700962"
         id="stop36447" />
      <stop
         id="stop36455"
         offset="0.52428877"
         style="stop-color:#8b314b;stop-opacity:1" />
      <stop
         style="stop-color:#8b314b;stop-opacity:1"
         offset="0.59614229"
         id="stop36457" />
      <stop
         id="stop36459"
         offset="0.66876179"
         style="stop-color:#a33a41;stop-opacity:1" />
      <stop
         style="stop-color:#c44732;stop-opacity:1"
         offset="0.79755175"
         id="stop36461" />
      <stop
         id="stop36463"
         offset="0.91251218"
         style="stop-color:#e65524;stop-opacity:1" />
      <stop
         style="stop-color:#e65524;stop-opacity:1"
         offset="1"
         id="stop36439" />
    </linearGradient>
    <filter
       inkscape:collect="always"
       style="color-interpolation-filters:sRGB"
       id="filter959-65"
       x="-0.011357143"
       width="1.0227143"
       y="-0.01272"
       height="1.02544">
      <feGaussianBlur
         inkscape:collect="always"
         stdDeviation="1.06"
         id="feGaussianBlur961-7" />
    </filter>
    <filter
       inkscape:collect="always"
       style="color-interpolation-filters:sRGB"
       id="filter1344-24"
       x="-0.011357143"
       width="1.0227143"
       y="-0.01272"
       height="1.02544">
      <feGaussianBlur
         inkscape:collect="always"
         stdDeviation="1.06"
         id="feGaussianBlur1346-7" />
    </filter>
    <linearGradient
       inkscape:collect="always"
       xlink:href="#linearGradient1055-7"
       id="linearGradient2583-2"
       gradientUnits="userSpaceOnUse"
       x1="264"
       y1="252"
       x2="48"
       y2="52"
       gradientTransform="translate(-27.28,-38.771199)" />
    <linearGradient
       inkscape:collect="always"
       id="linearGradient1055-7">
      <stop
         style="stop-color:#000000;stop-opacity:1;"
         offset="0"
         id="stop1051-0" />
      <stop
         id="stop1059-9"
         offset="0.1589853"
         style="stop-color:#000000;stop-opacity:0.43290043" />
      <stop
         style="stop-color:#000000;stop-opacity:0.0995671"
         offset="0.19443204"
         id="stop1061-3" />
      <stop
         style="stop-color:#000000;stop-opacity:0;"
         offset="1"
         id="stop1053-6" />
    </linearGradient>
    <filter
       inkscape:collect="always"
       style="color-interpolation-filters:sRGB"
       id="filter1067-0"
       x="-0.056785714"
       width="1.1135714"
       y="-0.063600004"
       height="1.1272">
      <feGaussianBlur
         inkscape:collect="always"
         stdDeviation="5.3"
         id="feGaussianBlur1069-6" />
    </filter>
  </defs>
  <path
     inkscape:connector-curvature="0"
     id="path2513"
     d="m 51.71414,13.228801 c -35.36853,0 -38.99414,1.999146 -38.99414,37.296875 v 41.625005 9.078119 81.07812 c 0,35.29774 3.62561,38.92188 38.99414,38.92188 h 146.01172 c 35.36853,0 38.99414,-3.62414 38.99414,-38.92188 v -81.07812 -25.078119 -6 c 0,-35.29774 -3.62561,-40.92188 -38.99414,-40.92188 H 110.72 l -16,-16 z"
     style="color:#000000;display:inline;overflow:visible;visibility:visible;opacity:0.4;fill:url(#linearGradient2583-2);fill-opacity:1;fill-rule:nonzero;stroke:none;stroke-width:1;marker:none;filter:url(#filter1067-0);enable-background:accumulate"
     sodipodi:nodetypes="ssccssssccssccs"
     transform="matrix(0.26457031,0,0,0.26457031,0.79371091,2.5246361)" />
  <path
     inkscape:connector-curvature="0"
     id="path3459-50"
     d="m 51.71414,15.229041 c -35.36853,0 -38.99414,1.99915 -38.99414,37.29688 v 41.625 9.078119 73.07812 c 0,35.29774 3.62561,38.92188 38.99414,38.92188 H 197.7259 c 35.3685,0 38.9941,-3.62414 38.9941,-38.92188 v -73.07812 -25.078119 -6 c 0,-35.29774 -3.6256,-40.92188 -38.9941,-40.92188 H 110.72 l -16,-16 z"
     style="color:#000000;display:inline;overflow:visible;visibility:visible;opacity:0.1;fill:#000000;fill-opacity:1;fill-rule:nonzero;stroke:none;stroke-width:1;marker:none;filter:url(#filter1344-24);enable-background:accumulate"
     transform="matrix(0.26457031,0,0,0.26457031,0.79371091,2.5246361)" />
  <path
     sodipodi:nodetypes="ssccssssccssccs"
     inkscape:connector-curvature="0"
     id="path3465-5"
     d="m 51.71414,14.229041 c -35.36853,0 -38.99414,1.99915 -38.99414,37.29688 v 41.625 60.656239 29.5 c 0,35.29774 3.62561,38.92188 38.99414,38.92188 H 197.7259 c 35.3685,0 38.9941,-3.62414 38.9941,-38.92188 v -29.5 -76.656239 -6 c 0,-35.29773 -3.6256,-40.92188 -38.9941,-40.92188 H 110.72 l -16,-16 z"
     style="color:#000000;display:inline;overflow:visible;visibility:visible;opacity:0.1;fill:#000000;fill-opacity:1;fill-rule:nonzero;stroke:none;stroke-width:1;marker:none;filter:url(#filter959-65);enable-background:accumulate"
     transform="matrix(0.26457031,0,0,0.26457031,0.79371091,2.5246361)" />
  <path
     sodipodi:nodetypes="ssccssccs"
     inkscape:connector-curvature="0"
     id="path3469-65"
     d="m 14.475737,6.0246481 c -9.357463,0 -10.3166917,0.528915 -10.3166917,9.8676469 v 13.41454 H 63.422795 v -8.222348 c 0,-9.338731 -0.959226,-10.826714 -10.316681,-10.826714 H 30.086936 L 25.853811,6.0246481 Z"
     style="color:#000000;display:inline;overflow:visible;visibility:visible;fill:url(#linearGradient13388);fill-opacity:1;fill-rule:nonzero;stroke:none;stroke-width:0.26457033;marker:none;enable-background:accumulate" />
  <path
     transform="matrix(0.26457031,0,0,0.26457031,-6.423767,-5.6164459)"
     clip-path="url(#clipPath977-1)"
     inkscape:connector-curvature="0"
     id="path3471-990"
     d="M 78.99353,92 C 43.625,92 40,95.625 40,130.92273 v 82.15454 C 40,248.375 43.625,252 78.99353,252 H 225.00647 C 260.375,252 264,248.375 264,213.07727 V 114.92273 C 264,79.625 260.375,76 225.00647,76 H 143.75 l -16.00782,16 z"
     style="color:#000000;display:inline;overflow:visible;visibility:visible;opacity:0.5;fill:#903906;fill-opacity:1;fill-rule:nonzero;stroke:none;stroke-width:1;marker:none;filter:url(#filter989-33);enable-background:accumulate"
     sodipodi:nodetypes="ssssssssccs" />
  <path
     sodipodi:nodetypes="ssssssssccs"
     style="color:#000000;display:inline;overflow:visible;visibility:visible;fill:url(#linearGradient13390);fill-opacity:1;fill-rule:nonzero;stroke:none;stroke-width:0.26457033;marker:none;enable-background:accumulate"
     d="m 14.475576,18.724023 c -9.3574633,0 -10.3165307,0.959067 -10.3165307,10.297798 v 21.735652 c 0,9.338732 0.9590674,10.297799 10.3165307,10.297799 h 38.630697 c 9.357455,0 10.316522,-0.959067 10.316522,-10.297799 V 24.788696 c 0,-9.338731 -0.959067,-10.297798 -10.316522,-10.297798 H 31.608215 l -4.235194,4.233125 z"
     id="path3473-76"
     inkscape:connector-curvature="0" />
  <path
     sodipodi:nodetypes="sscsccscssccs"
     inkscape:connector-curvature="0"
     id="path3475-37"
     d="m 14.475737,6.0246481 c -9.357463,0 -10.3166917,0.528915 -10.3166917,9.8676469 v 0.52914 c 0,-9.3387309 0.9592287,-9.8676469 10.3166917,-9.8676469 h 11.378074 l 4.233125,4.2331249 h 23.019178 c 9.357455,0 10.316681,1.487981 10.316681,10.826715 v -0.529141 c 0,-9.338734 -0.959226,-10.826714 -10.316681,-10.826714 H 30.086936 L 25.853811,6.0246481 Z"
     style="color:#000000;display:inline;overflow:visible;visibility:visible;opacity:0.4;fill:url(#radialGradient3541-8);fill-opacity:1;fill-rule:nonzero;stroke:none;stroke-width:0.26457033;marker:none;enable-background:accumulate" />
  <path
     sodipodi:nodetypes="ccsscsccscssc"
     inkscape:connector-curvature="0"
     id="path3477-6"
     d="m 31.608215,14.490898 -4.235191,4.233125 H 14.475737 c -9.357463,0 -10.3166917,0.958842 -10.3166917,10.297573 v 0.529141 c 0,-9.338731 0.9592287,-10.297574 10.3166917,-10.297574 h 12.897287 l 4.235191,-4.233125 h 21.497899 c 9.357455,0 10.316681,0.958843 10.316681,10.297574 v -0.529141 c 0,-9.338731 -0.959226,-10.297573 -10.316681,-10.297573 z"
     style="color:#000000;display:inline;overflow:visible;visibility:visible;opacity:0.4;fill:url(#radialGradient3543-3);fill-opacity:1;fill-rule:nonzero;stroke:none;stroke-width:0.26457033;marker:none;enable-background:accumulate" />
  <path
     sodipodi:nodetypes="ccssc"
     inkscape:connector-curvature="0"
     id="path3479-1"
     d="m 63.422795,43.593632 -16.9325,16.9325 h 6.615819 c 9.357455,0 10.316681,-0.95884 10.316681,-10.297574 z"
     style="color:#000000;display:inline;overflow:visible;visibility:visible;opacity:0.05;fill:#ffffff;fill-opacity:1;fill-rule:nonzero;stroke:none;stroke-width:0.26457033;marker:none;enable-background:accumulate" />
  <path
     inkscape:connector-curvature="0"
     id="path3487-08"
     d="m 4.1590453,50.228558 v 0.52914 c 0,9.338734 0.9592287,10.297574 10.3166917,10.297574 h 38.630377 c 9.357455,0 10.316681,-0.95884 10.316681,-10.297574 v -0.52914 c 0,9.338734 -0.959226,10.297574 -10.316681,10.297574 H 14.475737 c -9.357463,0 -10.3166917,-0.95884 -10.3166917,-10.297574 z"
     style="color:#000000;display:inline;overflow:visible;visibility:visible;opacity:0.2;fill:#491706;fill-opacity:1;fill-rule:nonzero;stroke:none;stroke-width:0.26457033;marker:none;enable-background:accumulate" />
  <path
     inkscape:connector-curvature="0"
     style="color:#000000;display:inline;overflow:visible;visibility:visible;opacity:0.6;fill:#ffffff;fill-opacity:1;fill-rule:nonzero;stroke:none;stroke-width:1.0582813;marker:none;enable-background:accumulate"
     d="m 23.208108,25.073647 v 26.45703 h 15.874219 0.793711 l 4.497695,-4.497695 V 46.239271 25.073647 Z m 1.058281,1.058281 h 19.049063 v 20.107343 h -4.233125 v 4.233125 H 24.266389 Z m 3.174844,3.174843 v 1.058281 h 12.699375 v -1.058281 z m 0,3.174844 v 1.058281 h 12.699375 v -1.058281 z m 0,3.174844 v 1.058281 h 12.699375 v -1.058281 z m 0,3.174843 v 1.058282 h 6.349687 v -1.058282 z"
     id="path5289"
     sodipodi:nodetypes="ccccccccccccccccccccccccccccccccccc" />
</svg>
