<?xml version="1.0" encoding="UTF-8" standalone="no"?>
<svg
   xmlns:dc="http://purl.org/dc/elements/1.1/"
   xmlns:cc="http://creativecommons.org/ns#"
   xmlns:rdf="http://www.w3.org/1999/02/22-rdf-syntax-ns#"
   xmlns:svg="http://www.w3.org/2000/svg"
   xmlns="http://www.w3.org/2000/svg"
   xmlns:xlink="http://www.w3.org/1999/xlink"
   xmlns:sodipodi="http://sodipodi.sourceforge.net/DTD/sodipodi-0.dtd"
   xmlns:inkscape="http://www.inkscape.org/namespaces/inkscape"
   width="256"
   height="256"
   version="1.1"
   viewBox="0 0 67.73 67.73"
   id="svg50"
   sodipodi:docname="avatar-default.svg"
   inkscape:version="0.92.4 (5da689c313, 2019-01-14)">
  <metadata
     id="metadata54">
    <rdf:RDF>
      <cc:Work
         rdf:about="">
        <dc:format>image/svg+xml</dc:format>
        <dc:type
           rdf:resource="http://purl.org/dc/dcmitype/StillImage" />
        <dc:title></dc:title>
      </cc:Work>
    </rdf:RDF>
  </metadata>
  <sodipodi:namedview
     pagecolor="#ffffff"
     bordercolor="#666666"
     borderopacity="1"
     objecttolerance="10"
     gridtolerance="10"
     guidetolerance="10"
     inkscape:pageopacity="0"
     inkscape:pageshadow="2"
     inkscape:window-width="1920"
     inkscape:window-height="1016"
     id="namedview52"
     showgrid="false"
     inkscape:zoom="0.921875"
     inkscape:cx="-111.18644"
     inkscape:cy="128"
     inkscape:window-x="0"
     inkscape:window-y="27"
     inkscape:window-maximized="1"
     inkscape:current-layer="svg50" />
  <defs
     id="defs38">
    <linearGradient
       id="linearGradient1108"
       x1="296"
       x2="296"
       y1="-212"
       y2="236"
       gradientUnits="userSpaceOnUse">
      <stop
         style="stop-color:#ffffff"
         id="stop65"
         offset="0" />
      <stop
         style="stop-color:#ffffff;stop-opacity:.09803922"
         id="stop67"
         offset=".125" />
      <stop
         style="stop-color:#000000;stop-opacity:.09803922"
         id="stop69"
         offset=".925" />
      <stop
         style="stop-color:#000000;stop-opacity:.49803922"
         id="stop71"
         offset="1" />
    </linearGradient>
    <clipPath
       id="clipPath1082-3-3">
      <path
         style="fill:#8c59d9"
         d="M 361.9375,-212 C 507.2348,-212 528,-191.28677 528,-46.125 V 70.125 C 528,215.28618 507.2348,236 361.9375,236 H 214.0625 C 68.7652,236 48,215.28618 48,70.125 V -46.125 C 48,-191.28677 68.7652,-212 214.0625,-212 Z"
         id="path7" />
    </clipPath>
    <filter
       id="filter929"
       width="1.119"
       height="1.121"
       x="-.06"
       y="-.06"
       style="color-interpolation-filters:sRGB">
      <feGaussianBlur
         id="feGaussianBlur77"
         stdDeviation="3.909" />
    </filter>
    <linearGradient
       id="linearGradient878"
       x1="32"
       x2="272"
       y1="156"
       y2="156"
       gradientTransform="matrix(0 .26458333 -.26458333 0 74.498196 223.03096)"
       gradientUnits="userSpaceOnUse">
      <stop
         style="stop-color:#2f9b3f"
         id="stop80"
         offset="0" />
      <stop
         style="stop-color:#3eb34f"
         id="stop82"
         offset="1" />
    </linearGradient>
    <filter
       id="filter938"
       width="1.046"
       height="1.05"
       x="-.02"
       y="-.03"
       style="color-interpolation-filters:sRGB">
      <feGaussianBlur
         id="feGaussianBlur85"
         stdDeviation="2.32" />
    </filter>
    <filter
       id="filter4569"
       width="1.023"
       height="1.025"
       x="-.01"
       y="-.01"
       style="color-interpolation-filters:sRGB">
      <feGaussianBlur
         id="feGaussianBlur88"
         stdDeviation="1.16" />
    </filter>
    <filter
       id="filter913"
       width="1.046"
       height="1.05"
       x="-.02"
       y="-.03"
       style="color-interpolation-filters:sRGB">
      <feGaussianBlur
         id="feGaussianBlur17"
         stdDeviation="2.32" />
    </filter>
    <filter
       id="filter4569-3"
       width="1.023"
       height="1.025"
       x="-.01"
       y="-.01"
       style="color-interpolation-filters:sRGB">
      <feGaussianBlur
         id="feGaussianBlur14"
         stdDeviation="1.16" />
    </filter>
    <clipPath
       id="clipPath1082-3-2">
      <path
         style="fill:#8c59d9"
         d="M 361.9375,-212 C 507.2348,-212 528,-191.28677 528,-46.125 V 70.125 C 528,215.28618 507.2348,236 361.9375,236 H 214.0625 C 68.7652,236 48,215.28618 48,70.125 V -46.125 C 48,-191.28677 68.7652,-212 214.0625,-212 Z"
         id="path23" />
    </clipPath>
    <filter
       id="filter1013"
       width="1.104"
       height="1.089"
       x="-.05"
       y="-.04"
       style="color-interpolation-filters:sRGB">
      <feGaussianBlur
         id="feGaussianBlur20"
         stdDeviation=".745" />
    </filter>
    <linearGradient
       id="linearGradient4317"
       x1="526.097"
       x2="397.147"
       y1="51.276"
       y2="51.276"
       gradientTransform="matrix(0.17977937,0,0,0.15709877,32.450636,231.55237)"
       gradientUnits="userSpaceOnUse"
       spreadMethod="reflect">
      <stop
         style="stop-color:#b4b4b4"
         id="stop23"
         offset="0" />
      <stop
         style="stop-color:#ffffff"
         id="stop25"
         offset="1" />
    </linearGradient>
    <linearGradient
       id="linearGradient4292"
       x1="116"
       x2="116"
       y1="15.25"
       y2="47.25"
       gradientTransform="matrix(1.0079364,0,0,1.0079364,4.0637822,227.76452)"
       gradientUnits="userSpaceOnUse">
      <stop
         style="stop-color:#bc1938"
         id="stop28"
         offset="0" />
      <stop
         style="stop-color:#da1636"
         id="stop30"
         offset="1" />
    </linearGradient>
    <filter
       style="color-interpolation-filters:sRGB"
       id="filter945"
       width="1.048"
       height="1.048"
       x="-.02"
       y="-.02">
      <feGaussianBlur
         id="feGaussianBlur947"
         stdDeviation="2.24" />
    </filter>
    <filter
       style="color-interpolation-filters:sRGB"
       id="filter951"
       width="1.12"
       height="1.12"
       x="-.06"
       y="-.06">
      <feGaussianBlur
         id="feGaussianBlur953"
         stdDeviation="5.6" />
    </filter>
    <filter
       inkscape:collect="always"
       style="color-interpolation-filters:sRGB"
       id="filter12608"
       x="-0.023999287"
       width="1.0479985"
       y="-0.024000714"
       height="1.0480014">
      <feGaussianBlur
         inkscape:collect="always"
         stdDeviation="1.2799619"
         id="feGaussianBlur12610" />
    </filter>
    <linearGradient
       inkscape:collect="always"
       xlink:href="#linearGradient876"
       id="linearGradient11065"
       x1="104"
       y1="44"
       x2="200"
       y2="268"
       gradientUnits="userSpaceOnUse"
       gradientTransform="matrix(0.26457031,0,0,0.26457031,-6.4153005,-8.4006345)" />
    <linearGradient
       inkscape:collect="always"
       id="linearGradient876">
      <stop
         style="stop-color:#1a7fd4;stop-opacity:1;"
         offset="0"
         id="stop872" />
      <stop
         style="stop-color:#37a6e6;stop-opacity:1"
         offset="1"
         id="stop874" />
    </linearGradient>
    <filter
       inkscape:collect="always"
       style="color-interpolation-filters:sRGB"
       id="filter11191"
       x="-0.012"
       width="1.024"
       y="-0.012"
       height="1.024">
      <feGaussianBlur
         inkscape:collect="always"
         stdDeviation="1.12"
         id="feGaussianBlur11193" />
    </filter>
    <filter
       inkscape:collect="always"
       style="color-interpolation-filters:sRGB"
       id="filter11210"
       x="-0.048"
       width="1.096"
       y="-0.048"
       height="1.096">
      <feGaussianBlur
         inkscape:collect="always"
         stdDeviation="4.48"
         id="feGaussianBlur11212" />
    </filter>
  </defs>
  <circle
     style="display:inline;opacity:0.1;fill:#000000;fill-opacity:1;stroke:none;stroke-width:1;stroke-linecap:round;stroke-linejoin:round;stroke-miterlimit:4;stroke-dasharray:none;stroke-opacity:1;filter:url(#filter11210);enable-background:new"
     id="path11042-0"
     r="112"
     cy="122.752"
     cx="122.752"
     transform="matrix(0.26457031,0,0,0.26457031,1.3228519,1.454082)" />
  <circle
     style="display:inline;opacity:0.1;fill:#000000;fill-opacity:1;stroke:none;stroke-width:1;stroke-linecap:round;stroke-linejoin:round;stroke-miterlimit:4;stroke-dasharray:none;stroke-opacity:1;filter:url(#filter11191);enable-background:new"
     id="path11042-6"
     r="112"
     cy="120.75198"
     cx="122.752"
     transform="matrix(0.26457031,0,0,0.26457031,1.3228519,1.454082)" />
  <circle
     style="display:inline;opacity:0.1;fill:#000000;fill-opacity:1;stroke:none;stroke-width:0.2645703;stroke-linecap:round;stroke-linejoin:round;stroke-miterlimit:4;stroke-dasharray:none;stroke-opacity:1;enable-background:new"
     id="path11042-7"
     cy="32.87233"
     cx="33.799389"
     r="30.161015" />
  <circle
     style="display:inline;opacity:1;fill:url(#linearGradient11065);fill-opacity:1;stroke:none;stroke-width:0.26457033;stroke-linecap:round;stroke-linejoin:round;stroke-miterlimit:4;stroke-dasharray:none;stroke-opacity:1;enable-background:new"
     id="path11042"
     r="29.631874"
     cy="32.87233"
     cx="33.799389" />
  <path
     inkscape:connector-curvature="0"
     style="display:inline;opacity:0.05;fill:#ffffff;fill-opacity:1;stroke:none;stroke-width:0.26457033;stroke-linecap:round;stroke-linejoin:round;stroke-miterlimit:4;stroke-dasharray:none;stroke-opacity:1;enable-background:new"
     d="M 33.799387,3.2404608 V 62.504211 A 29.631875,29.631875 0 0 0 63.431262,32.872336 29.631875,29.631875 0 0 0 33.799387,3.2404608 Z"
     id="path11042-2" />
  <path
     style="color:#000000;font-style:normal;font-variant:normal;font-weight:normal;font-stretch:normal;font-size:medium;line-height:125%;font-family:Ubuntu;-inkscape-font-specification:'Ubuntu, Normal';font-variant-ligatures:normal;font-variant-position:normal;font-variant-caps:normal;font-variant-numeric:normal;font-variant-alternates:normal;font-feature-settings:normal;text-indent:0;text-align:start;text-decoration:none;text-decoration-line:none;text-decoration-style:solid;text-decoration-color:#000000;letter-spacing:0px;word-spacing:0px;text-transform:none;writing-mode:lr-tb;direction:ltr;text-orientation:mixed;dominant-baseline:auto;baseline-shift:baseline;text-anchor:start;white-space:normal;shape-padding:0;clip-rule:nonzero;display:inline;overflow:visible;visibility:visible;opacity:0.2;isolation:auto;mix-blend-mode:normal;color-interpolation:sRGB;color-interpolation-filters:linearRGB;solid-color:#000000;solid-opacity:1;fill:#000000;fill-opacity:1;fill-rule:nonzero;stroke:none;stroke-width:1.99999976;stroke-linecap:butt;stroke-linejoin:miter;stroke-miterlimit:4;stroke-dasharray:none;stroke-dashoffset:0;stroke-opacity:1;filter:url(#filter12608);color-rendering:auto;image-rendering:auto;shape-rendering:auto;text-rendering:auto;enable-background:accumulate"
     d="m 122.752,48.752 c -4.52317,0 -8.82552,0.879318 -12.7832,2.654297 -3.93424,1.689839 -7.42396,4.169995 -10.32618,7.382812 l -0.0176,0.03516 -0.0176,0.01953 c -2.82743,3.227839 -5.01393,7.110241 -6.54883,11.513671 -1.56345,4.40694 -2.30664,9.23309 -2.30664,14.39648 0,5.23412 0.7399,10.10405 2.30664,14.51953 1.5385,4.33664 3.72832,8.17052 6.54883,11.39063 l 0.0176,0.0176 0.0176,0.0176 c 2.89546,3.20544 6.35896,5.72193 10.2754,7.48828 l 0.0351,0.0176 0.0332,0.0176 c 3.94931,1.68999 8.24934,2.52921 12.76568,2.52921 4.51549,0 8.79746,-0.8388 12.75,-2.53125 v -0.0176 c 3.91319,-1.76491 7.34912,-4.28872 10.17578,-7.50586 2.90454,-3.22048 5.13938,-7.07177 6.6836,-11.42578 1.57247,-4.41548 2.32226,-9.28541 2.32226,-14.51953 h 0.0684 c 0,-5.15736 -0.74589,-9.9763 -2.30664,-14.37891 -1.53824,-4.42206 -3.77308,-8.318738 -6.68359,-11.548824 -2.83352,-3.227397 -6.29541,-5.72777 -10.22657,-7.417969 C 131.57761,49.628258 127.2786,48.752 122.752,48.752 Z m 0.26367,88 c -26.34364,0 -40.48272,2.14837 -50.99219,9.11914 -5.254739,3.48585 -8.723155,8.22746 -10.681636,13.75781 -1.95839,5.53033 -2.589844,17.10743 -2.589844,17.10743 l 128,0.008 c -0.001,-0.0237 -0.60951,-11.57781 -2.55859,-17.10352 -1.95016,-5.53132 -5.41348,-10.27499 -10.66602,-13.76172 -10.50418,-6.97366 -24.16854,-9.12714 -50.51172,-9.12714 z"
     id="path3307-2-9"
     inkscape:connector-curvature="0"
     transform="matrix(0.26457031,0,0,0.26457031,1.3228519,1.454082)" />
  <path
     sodipodi:nodetypes="scccccscccccccscccccccccs"
     inkscape:connector-curvature="0"
     id="path3307-2"
     d="m 33.799271,13.823273 c -1.196697,0 -2.334865,0.232637 -3.38195,0.702243 -1.040883,0.447082 -1.964247,1.10325 -2.732088,1.953266 l -0.0045,0.0095 -0.0045,0.0048 c -0.748054,0.853991 -1.326873,1.881164 -1.732962,3.046181 -0.413643,1.165945 -0.61007,2.442801 -0.61007,3.808881 0,1.384793 0.195562,2.673226 0.610075,3.841431 0.407042,1.147346 0.986739,2.161685 1.732962,3.013631 l 0.0045,0.0048 0.0045,0.0048 c 0.766052,0.848064 1.682648,1.51385 2.718822,1.981174 l 0.0091,0.0048 0.0091,0.0048 c 1.044855,0.447145 2.182208,0.6689 3.377098,0.6689 1.194664,0 2.327377,-0.221922 3.373102,-0.669694 v -0.0048 c 1.035314,-0.466943 1.944465,-1.134682 2.692315,-1.985841 0.768455,-0.852044 1.359785,-1.870975 1.76834,-3.022917 0.416029,-1.168205 0.614491,-2.456639 0.614491,-3.841431 h 0.01807 c 0,-1.364485 -0.197149,-2.639439 -0.610078,-3.804238 -0.406972,-1.169946 -0.998305,-2.200881 -1.76834,-3.055466 -0.749665,-0.853874 -1.665489,-1.5154 -2.705557,-1.962576 -1.047061,-0.470416 -2.184779,-0.702124 -3.382383,-0.702124 z"
     style="color:#000000;font-style:normal;font-variant:normal;font-weight:normal;font-stretch:normal;font-size:medium;line-height:125%;font-family:Ubuntu;-inkscape-font-specification:'Ubuntu, Normal';font-variant-ligatures:normal;font-variant-position:normal;font-variant-caps:normal;font-variant-numeric:normal;font-variant-alternates:normal;font-feature-settings:normal;text-indent:0;text-align:start;text-decoration:none;text-decoration-line:none;text-decoration-style:solid;text-decoration-color:#000000;letter-spacing:0px;word-spacing:0px;text-transform:none;writing-mode:lr-tb;direction:ltr;text-orientation:mixed;dominant-baseline:auto;baseline-shift:baseline;text-anchor:start;white-space:normal;shape-padding:0;clip-rule:nonzero;display:inline;overflow:visible;visibility:visible;opacity:1;isolation:auto;mix-blend-mode:normal;color-interpolation:sRGB;color-interpolation-filters:linearRGB;solid-color:#000000;solid-opacity:1;fill:#f6fcfe;fill-opacity:1;fill-rule:nonzero;stroke:none;stroke-width:0.52914059;stroke-linecap:butt;stroke-linejoin:miter;stroke-miterlimit:4;stroke-dasharray:none;stroke-dashoffset:0;stroke-opacity:1;color-rendering:auto;image-rendering:auto;shape-rendering:auto;text-rendering:auto;enable-background:accumulate" />
  <path
     sodipodi:nodetypes="ccccscccc"
     style="color:#000000;font-style:normal;font-variant:normal;font-weight:normal;font-stretch:normal;font-size:medium;line-height:125%;font-family:Ubuntu;-inkscape-font-specification:'Ubuntu, Normal';font-variant-ligatures:normal;font-variant-position:normal;font-variant-caps:normal;font-variant-numeric:normal;font-variant-alternates:normal;font-feature-settings:normal;text-indent:0;text-align:start;text-decoration:none;text-decoration-line:none;text-decoration-style:solid;text-decoration-color:#000000;letter-spacing:0px;word-spacing:0px;text-transform:none;writing-mode:lr-tb;direction:ltr;text-orientation:mixed;dominant-baseline:auto;baseline-shift:baseline;text-anchor:start;white-space:normal;shape-padding:0;clip-rule:nonzero;display:inline;overflow:visible;visibility:visible;opacity:1;isolation:auto;mix-blend-mode:normal;color-interpolation:sRGB;color-interpolation-filters:linearRGB;solid-color:#000000;solid-opacity:1;fill:#f6fcfe;fill-opacity:1;fill-rule:nonzero;stroke:none;stroke-width:0.52914053;stroke-linecap:butt;stroke-linejoin:miter;stroke-miterlimit:4;stroke-dasharray:none;stroke-dashoffset:0;stroke-opacity:1;color-rendering:auto;image-rendering:auto;shape-rendering:auto;text-rendering:auto;enable-background:accumulate"
     d="m 50.731641,47.686453 -33.864758,-0.0024 c 0,0 0.166905,-3.063076 0.685037,-4.526237 0.518156,-1.463167 1.436159,-2.717643 2.826408,-3.639895 2.780493,-1.844259 6.52106,-2.412479 13.490805,-2.412479 6.969623,0 10.584934,0.569643 13.364029,2.414617 1.389666,0.922485 2.305711,2.177514 2.821666,3.640937 0.516198,1.463439 0.677054,4.527258 0.677054,4.527258 z"
     id="path3309-70"
     inkscape:connector-curvature="0" />
  <path
     style="display:inline;opacity:0.3;fill:#ffffff;fill-opacity:1;stroke:none;stroke-width:0.26457033;stroke-linecap:round;stroke-linejoin:round;stroke-miterlimit:4;stroke-dasharray:none;stroke-opacity:1;enable-background:new"
     d="M 33.799387,3.2404592 A 29.631875,29.631875 0 0 0 4.1675119,32.872333 29.631875,29.631875 0 0 0 4.1783646,33.181859 29.631875,29.631875 0 0 1 33.799387,3.7695998 29.631875,29.631875 0 0 1 63.420409,33.091948 29.631875,29.631875 0 0 0 63.431257,32.872333 29.631875,29.631875 0 0 0 33.799382,3.2404592 Z"
     id="path11042-1"
     inkscape:connector-curvature="0" />
  <path
     inkscape:connector-curvature="0"
     style="display:inline;opacity:0.2;fill:#000000;fill-opacity:1;stroke:none;stroke-width:0.26457033;stroke-linecap:round;stroke-linejoin:round;stroke-miterlimit:4;stroke-dasharray:none;stroke-opacity:1;enable-background:new"
     d="M 33.799387,62.504208 A 29.631875,29.631875 0 0 1 4.1675119,32.872333 a 29.631875,29.631875 0 0 1 0.010853,-0.309526 29.631875,29.631875 0 0 0 29.6210221,29.41226 29.631875,29.631875 0 0 0 29.621022,-29.322348 29.631875,29.631875 0 0 1 0.01085,0.219614 29.631875,29.631875 0 0 1 -29.631875,29.631875 z"
     id="path11042-1-7" />
</svg>
