<?xml version="1.0" encoding="UTF-8" standalone="no"?>
<svg
   xmlns:dc="http://purl.org/dc/elements/1.1/"
   xmlns:cc="http://creativecommons.org/ns#"
   xmlns:rdf="http://www.w3.org/1999/02/22-rdf-syntax-ns#"
   xmlns:svg="http://www.w3.org/2000/svg"
   xmlns="http://www.w3.org/2000/svg"
   xmlns:sodipodi="http://sodipodi.sourceforge.net/DTD/sodipodi-0.dtd"
   xmlns:inkscape="http://www.inkscape.org/namespaces/inkscape"
   height="256"
   viewBox="0 0 67.73 67.73"
   width="256"
   version="1.1"
   id="svg50"
   sodipodi:docname="256.svg"
   inkscape:version="0.92.4 (5da689c313, 2019-01-14)">
  <metadata
     id="metadata56">
    <rdf:RDF>
      <cc:Work
         rdf:about="">
        <dc:format>image/svg+xml</dc:format>
        <dc:type
           rdf:resource="http://purl.org/dc/dcmitype/StillImage" />
      </cc:Work>
    </rdf:RDF>
  </metadata>
  <defs
     id="defs54">
    <filter
       style="color-interpolation-filters:sRGB"
       id="a-3-1"
       height="2.6199999"
       width="2.6199999"
       x="-0.81"
       y="-0.81">
      <feGaussianBlur
         stdDeviation="2.7"
         id="feGaussianBlur2-6-2" />
    </filter>
    <filter
       style="color-interpolation-filters:sRGB"
       id="filter1105"
       height="2.6199999"
       width="2.6199999"
       x="-0.81"
       y="-0.81">
      <feGaussianBlur
         stdDeviation="2.7"
         id="feGaussianBlur1103" />
    </filter>
    <filter
       style="color-interpolation-filters:sRGB"
       id="filter1109"
       height="2.6199999"
       width="2.6199999"
       x="-0.81"
       y="-0.81">
      <feGaussianBlur
         stdDeviation="2.7"
         id="feGaussianBlur1107" />
    </filter>
  </defs>
  <sodipodi:namedview
     pagecolor="#ffffff"
     bordercolor="#666666"
     borderopacity="1"
     objecttolerance="10"
     gridtolerance="10"
     guidetolerance="10"
     inkscape:pageopacity="0"
     inkscape:pageshadow="2"
     inkscape:window-width="796"
     inkscape:window-height="480"
     id="namedview52"
     showgrid="false"
     inkscape:zoom="0.921875"
     inkscape:cx="128"
     inkscape:cy="128"
     inkscape:window-x="0"
     inkscape:window-y="27"
     inkscape:window-maximized="0"
     inkscape:current-layer="g46" />
  <filter
     id="a"
     color-interpolation-filters="sRGB"
     height="2.62"
     width="2.62"
     x="-.81"
     y="-.81">
    <feGaussianBlur
       stdDeviation="2.7"
       id="feGaussianBlur2" />
  </filter>
  <linearGradient
     id="b"
     gradientUnits="userSpaceOnUse"
     x1="21.10001124"
     x2="46.498761"
     y1="3.24045864"
     y2="62.50420808">
    <stop
       offset="0"
       stop-color="#8c59d9"
       id="stop5" />
    <stop
       offset="1"
       stop-color="#a7a7f1"
       id="stop7" />
  </linearGradient>
  <filter
     id="c"
     color-interpolation-filters="sRGB"
     height="1.024"
     width="1.024"
     x="-.012"
     y="-.012">
    <feGaussianBlur
       stdDeviation="1.12"
       id="feGaussianBlur10" />
  </filter>
  <filter
     id="d"
     color-interpolation-filters="sRGB"
     height="1.096"
     width="1.096"
     x="-.048"
     y="-.048">
    <feGaussianBlur
       stdDeviation="4.48"
       id="feGaussianBlur13" />
  </filter>
  <circle
     cx="122.752"
     cy="122.752"
     filter="url(#d)"
     opacity=".1"
     r="112"
     transform="matrix(.26457031 0 0 .26457031 1.322852 1.454082)"
     id="circle16" />
  <circle
     cx="122.752"
     cy="120.75198"
     filter="url(#c)"
     opacity=".1"
     r="112"
     transform="matrix(.26457031 0 0 .26457031 1.322852 1.454082)"
     id="circle18" />
  <circle
     cx="33.799385"
     cy="32.87233"
     opacity=".1"
     r="30.161015"
     id="circle20" />
  <circle
     cx="33.799385"
     cy="32.87233"
     fill="url(#b)"
     r="29.631874"
     id="circle22" />
  <g
     fill="#fff"
     id="g46">
    <path
       d="m33.799387 3.2404592a29.631875 29.631875 0 0 0 -29.6318751 29.6318738 29.631875 29.631875 0 0 0 .0108527.309526 29.631875 29.631875 0 0 1 29.6210224-29.4122592 29.631875 29.631875 0 0 1 29.621022 29.3223482 29.631875 29.631875 0 0 0 .010848-.219615 29.631875 29.631875 0 0 0 -29.631875-29.6318738z"
       opacity=".3"
       id="path44" />
    <g
       transform="translate(2.1869106e-5,-1.3300863e-5)"
       id="g1091">
      <g
         style="fill:#ffffff;fill-opacity:1"
         transform="translate(4.4552694,-7.3845972)"
         id="g1037">
        <g
           style="opacity:0.4;fill:#ffffff;fill-opacity:1"
           id="g1027"
           transform="matrix(0.36372536,0,0,0.36372536,-37.972537,24.165561)">
          <path
             inkscape:connector-curvature="0"
             id="rect996"
             transform="matrix(0.72739034,0,0,0.72739034,92.149933,-46.136359)"
             d="m 49.751953,75.425781 c -1.108,0 -2,0.892 -2,2 v 30.455079 c 0,1.108 0.892,2 2,2 H 73.375 a 1.0912852,1.0912852 0 0 0 -0.002,0.0703 V 121.9414 H 54.097656 a 1.8197261,1.8197261 0 0 0 0,3.63867 H 126.6582 v 12.72656 a 1.092775,1.092775 0 0 0 0.0449,0.30859 h -23.66406 c -1.108,0 -2,0.892 -2,2 v 30.45508 c 0,1.108 0.892,2 2,2 h 49.42578 c 1.108,0 2,-0.892 2,-2 v -30.45508 c 0,-1.108 -0.892,-2 -2,-2 h -23.66601 a 1.092775,1.092775 0 0 0 0.0449,-0.30859 v -12.72656 h 72.56055 a 1.8197261,1.8197261 0 0 0 0,-3.63867 h -19.27539 v -11.99024 a 1.0912852,1.0912852 0 0 0 -0.002,-0.0703 h 23.625 c 1.108,0 2,-0.892 2,-2 V 77.425781 c 0,-1.108 -0.892,-2 -2,-2 h -49.42578 c -1.108,0 -2,0.892 -2,2 v 30.455079 c 0,1.108 0.892,2 2,2 h 23.62695 a 1.0912852,1.0912852 0 0 0 -0.002,0.0703 V 121.9414 H 75.558594 v -11.99024 a 1.0912852,1.0912852 0 0 0 -0.002,-0.0703 h 23.621093 c 1.107993,0 1.999993,-0.892 1.999993,-2 V 77.425781 c 0,-1.108 -0.892,-2 -1.999993,-2 z"
             style="opacity:1;fill:#ffffff;fill-opacity:1;stroke:none;stroke-width:0.17760146;stroke-linecap:round;stroke-linejoin:round;stroke-miterlimit:4;stroke-dasharray:none;stroke-opacity:1" />
        </g>
      </g>
      <circle
         id="circle30"
         r="1.0582809"
         cy="32.685867"
         cx="19.715395"
         style="fill:#ffffff;fill-opacity:1;stroke-width:1" />
      <circle
         transform="matrix(0.26457031,0,0,0.26457031,16.942701,29.913166)"
         style="fill:#ffffff;fill-opacity:1;filter:url(#a-3-1)"
         id="circle40"
         r="4"
         cy="10.48"
         cx="10.48" />
      <circle
         style="fill:#ffffff;fill-opacity:1;stroke-width:1"
         cx="47.895271"
         cy="32.685867"
         r="1.0582809"
         id="circle1074" />
      <circle
         cx="10.48"
         cy="10.48"
         r="4"
         id="circle1076"
         style="fill:#ffffff;fill-opacity:1;filter:url(#a-3-1)"
         transform="matrix(0.26457031,0,0,0.26457031,45.122577,29.913166)" />
      <circle
         id="circle1078"
         r="1.0582809"
         cy="32.685867"
         cx="33.805332"
         style="fill:#ffffff;fill-opacity:1;stroke-width:1" />
      <circle
         transform="matrix(0.26457031,0,0,0.26457031,31.032639,29.913166)"
         style="fill:#ffffff;fill-opacity:1;filter:url(#a-3-1)"
         id="circle1080"
         r="4"
         cy="10.48"
         cx="10.48" />
    </g>
  </g>
  <path
     d="m33.799387 62.504208a29.631875 29.631875 0 0 1 -29.6318751-29.631875 29.631875 29.631875 0 0 1 .010853-.309526 29.631875 29.631875 0 0 0 29.6210221 29.41226 29.631875 29.631875 0 0 0 29.621022-29.322348 29.631875 29.631875 0 0 1 .01085.219614 29.631875 29.631875 0 0 1 -29.631875 29.631875z"
     opacity=".2"
     id="path48" />
</svg>
