<?xml version="1.0" encoding="UTF-8" standalone="no"?>
<svg
   xmlns:osb="http://www.openswatchbook.org/uri/2009/osb"
   xmlns:dc="http://purl.org/dc/elements/1.1/"
   xmlns:cc="http://creativecommons.org/ns#"
   xmlns:rdf="http://www.w3.org/1999/02/22-rdf-syntax-ns#"
   xmlns:svg="http://www.w3.org/2000/svg"
   xmlns="http://www.w3.org/2000/svg"
   xmlns:xlink="http://www.w3.org/1999/xlink"
   xmlns:sodipodi="http://sodipodi.sourceforge.net/DTD/sodipodi-0.dtd"
   xmlns:inkscape="http://www.inkscape.org/namespaces/inkscape"
   width="256"
   height="256"
   version="1.1"
   id="svg66"
   sodipodi:docname="starred.svg"
   inkscape:version="0.92.3 (2405546, 2018-03-11)">
  <metadata
     id="metadata70">
    <rdf:RDF>
      <cc:Work
         rdf:about="">
        <dc:format>image/svg+xml</dc:format>
        <dc:type
           rdf:resource="http://purl.org/dc/dcmitype/StillImage" />
        <dc:title></dc:title>
      </cc:Work>
    </rdf:RDF>
  </metadata>
  <sodipodi:namedview
     pagecolor="#ffffff"
     bordercolor="#666666"
     borderopacity="1"
     objecttolerance="10"
     gridtolerance="10"
     guidetolerance="10"
     inkscape:pageopacity="0"
     inkscape:pageshadow="2"
     inkscape:window-width="1920"
     inkscape:window-height="1009"
     id="namedview68"
     showgrid="false"
     inkscape:zoom="0.921875"
     inkscape:cx="-18.983051"
     inkscape:cy="128"
     inkscape:window-x="0"
     inkscape:window-y="34"
     inkscape:window-maximized="1"
     inkscape:current-layer="svg66" />
  <defs
     id="defs34">
    <linearGradient
       id="linearGradient5606"
       osb:paint="solid">
      <stop
         id="stop5608"
         offset="0"
         style="stop-color:#000000" />
    </linearGradient>
    <linearGradient
       id="linearGradient4526"
       osb:paint="solid">
      <stop
         id="stop4528"
         offset="0"
         style="stop-color:#ffffff" />
    </linearGradient>
    <linearGradient
       id="linearGradient3600-4"
       osb:paint="gradient">
      <stop
         id="stop3602-7"
         offset="0"
         style="stop-color:#f4f4f4" />
      <stop
         id="stop3604-6"
         offset="1"
         style="stop-color:#dbdbdb" />
    </linearGradient>
    <linearGradient
       id="linearGradient955"
       x1="200"
       x2="200"
       y1="268"
       y2="44"
       gradientTransform="translate(-23.247998,-32.751992)"
       gradientUnits="userSpaceOnUse"
       xlink:href="#linearGradient945" />
    <linearGradient
       id="linearGradient945">
      <stop
         id="stop943"
         offset="0"
         style="stop-color:#e6e6e6" />
      <stop
         id="stop941"
         offset="1"
         style="stop-color:#d3d3d3" />
    </linearGradient>
    <linearGradient
       id="linearGradient1035"
       x1="152"
       x2="152"
       y1="100"
       y2="212"
       gradientTransform="translate(-23.247998,-32.751992)"
       gradientUnits="userSpaceOnUse"
       xlink:href="#linearGradient1033" />
    <linearGradient
       id="linearGradient1033">
      <stop
         style="stop-color:#000000;stop-opacity:0"
         id="stop1029"
         offset="0" />
      <stop
         id="stop1037"
         offset=".5"
         style="stop-color:#000000" />
      <stop
         style="stop-color:#000000;stop-opacity:0"
         id="stop1031"
         offset="1" />
    </linearGradient>
    <filter
       style="color-interpolation-filters:sRGB"
       id="filter1025"
       width="1.048"
       height="1.048"
       x="-.02"
       y="-.02">
      <feGaussianBlur
         id="feGaussianBlur1027"
         stdDeviation="1.5" />
    </filter>
    <linearGradient
       id="linearGradient982"
       x1="152"
       x2="152"
       y1="124"
       y2="236"
       gradientUnits="userSpaceOnUse"
       xlink:href="#linearGradient980" />
    <linearGradient
       id="linearGradient980">
      <stop
         style="stop-color:#000000"
         id="stop976"
         offset="0" />
      <stop
         style="stop-color:#000000;stop-opacity:0"
         id="stop978"
         offset="1" />
    </linearGradient>
    <clipPath
       id="clipPath999"
       clipPathUnits="userSpaceOnUse">
      <path
         style="fill:#5d5d5d"
         d="m 152,68 c -48.60106,0 -88,39.39894 -88,88 0,48.60106 39.39894,88 88,88 48.60106,0 88,-39.39894 88,-88 0,-48.60106 -39.39894,-88 -88,-88 z"
         id="path24" />
    </clipPath>
    <filter
       style="color-interpolation-filters:sRGB"
       id="filter1003"
       width="1.12"
       height="1.12"
       x="-.06"
       y="-.06">
      <feGaussianBlur
         id="feGaussianBlur1005"
         stdDeviation="4.4" />
    </filter>
    <linearGradient
       id="linearGradient11065"
       x1="104"
       x2="200"
       y1="44"
       y2="268"
       gradientTransform="translate(-280.752,-279.24801)"
       gradientUnits="userSpaceOnUse"
       xlink:href="#linearGradient945" />
    <filter
       style="color-interpolation-filters:sRGB"
       id="filter11191"
       width="1.024"
       height="1.024"
       x="-.01"
       y="-.01">
      <feGaussianBlur
         id="feGaussianBlur11193"
         stdDeviation="1.12" />
    </filter>
    <filter
       style="color-interpolation-filters:sRGB"
       id="filter11210"
       width="1.096"
       height="1.096"
       x="-.05"
       y="-.05">
      <feGaussianBlur
         id="feGaussianBlur11212"
         stdDeviation="4.48" />
    </filter>
  </defs>
  <circle
     style="opacity:0.1;filter:url(#filter11210)"
     cx="128.752"
     cy="127.248"
     r="112"
     id="circle36" />
  <circle
     style="opacity:0.1;filter:url(#filter11191)"
     cx="128.752"
     cy="125.248"
     r="112"
     id="circle38" />
  <circle
     style="opacity:0.1"
     cx="128.752"
     cy="123.248"
     r="114"
     id="circle40" />
  <circle
     style="fill:url(#linearGradient11065)"
     cx="-128.752"
     cy="-123.248"
     r="112"
     transform="scale(-1)"
     id="circle42" />
  <path
     style="opacity:0.25;fill:#ffffff"
     d="M 16.752001,132.94392 A 112.5345,112.53445 0 0 0 128.72953,235.24801 112.5345,112.53445 0 0 0 240.752,132.94392 Z"
     id="path44" />
  <circle
     style="fill:#5d5d5d"
     cx="128.752"
     cy="-123.248"
     r="88"
     transform="scale(1,-1)"
     id="circle46" />
  <path
     style="opacity:0.05"
     d="M 40.752001,123.24801 A 88,88 0 0 1 128.752,35.248005 a 88,88 0 0 1 88,88.000005 z"
     id="path48" />
  <path
     style="opacity:0.2;fill:none;stroke:url(#linearGradient982);stroke-width:10;stroke-linejoin:round;filter:url(#filter1003)"
     d="m 152,70 c -48.60106,0 -88,39.39894 -88,88 0,48.60106 39.39894,88 88,88 48.60106,0 88,-39.39894 88,-88 0,-48.60106 -39.39894,-88 -88,-88 z"
     clip-path="url(#clipPath999)"
     transform="translate(-23.247998,-32.751992)"
     id="path50" />
  <path
     style="opacity:0.3;fill:#ffffff"
     d="M 128.752,11.248005 A 112,112 0 0 0 16.752001,123.24801 112,112 0 0 0 16.793021,124.41793 112,112 0 0 1 128.752,13.248005 112,112 0 0 1 240.71098,124.07809 a 112,112 0 0 0 0.041,-0.83008 112,112 0 0 0 -112,-112.000005 z"
     id="path62" />
  <path
     style="opacity:0.2"
     d="m 128.752,235.24801 a 112,112 0 0 1 -111.999999,-112 112,112 0 0 1 0.04102,-1.16992 112,112 0 0 0 111.958979,111.16992 112,112 0 0 0 111.95898,-110.83008 112,112 0 0 1 0.041,0.83008 112,112 0 0 1 -112,112 z"
     id="path64" />
  <g
     id="layer9"
     label="status"
     transform="matrix(10.702418,0,0,10.702418,-2878.5736,1063.7113)"
     style="fill:#e4e4e4;fill-opacity:1">
    <path
       inkscape:connector-curvature="0"
       d="m 281.0002,-95.000001 c -6.7e-4,0 -0.001,1.59e-4 -0.002,0.0012 -10e-4,1.66e-4 -10e-4,9.99e-4 -10e-4,0.0015 -0.001,5e-4 -0.001,0.0013 -0.002,0.0018 -0.001,4.99e-4 -0.001,4.99e-4 -0.002,0.0012 -0.84339,1.809997 -1.49509,3.65462 -1.86564,4.784918 -1.21897,0.001 -3.22666,0.04723 -5.14021,0.295595 -1.6e-4,6.66e-4 -3.3e-4,10e-4 3.4e-4,0.0015 -1.7e-4,0.0012 6.6e-4,0.0017 0.001,0.0022 1.7e-4,0.0012 6.7e-4,0.0015 10e-4,0.0018 1.7e-4,0.0012 3.3e-4,0.001 6.7e-4,0.0015 1.46077,1.361454 3.01387,2.551278 3.97436,3.252997 -0.37586,1.159558 -0.95241,3.083467 -1.30752,4.980185 5e-4,3.33e-4 6.6e-4,5e-4 0.002,0 10e-4,5e-4 0.002,-1.67e-4 0.002,-3.33e-4 10e-4,1.66e-4 0.002,-1.67e-4 0.002,-3.33e-4 10e-4,1.66e-4 10e-4,1.66e-4 0.002,0 1.74632,-0.968619 3.35794,-2.077725 4.32211,-2.774361 0.98669,0.715812 2.63856,1.858515 4.33253,2.782274 5e-4,-3.33e-4 5e-4,-9.99e-4 3.3e-4,-0.0018 6.7e-4,-6.67e-4 3.4e-4,-0.0017 3.4e-4,-0.0021 5e-4,-0.001 3.3e-4,-0.0018 3.3e-4,-0.0021 5e-4,-0.001 6.7e-4,-0.0012 6.7e-4,-0.0019 -0.38157,-1.960181 -0.93862,-3.835712 -1.30321,-4.967959 0.9857,-0.717221 2.58251,-1.934673 3.98443,-3.26019 -1.7e-4,-5e-4 -5e-4,-0.001 -0.002,-0.0012 -5e-4,-10e-4 -10e-4,-10e-4 -0.002,-0.0012 -6.7e-4,-6.66e-4 -0.002,-9.99e-4 -0.002,-0.0012 -6.7e-4,-6.66e-4 -6.7e-4,-0.0012 -0.001,-0.0015 -1.98208,-0.242821 -3.93775,-0.292461 -5.12727,-0.295597 -0.37754,-1.159123 -1.04226,-3.054058 -1.86959,-4.796785 z"
       style="fill:#e4e4e4;fill-opacity:1"
       id="path131" />
  </g>
</svg>
