<svg height="256" viewBox="0 0 67.73 67.73" width="256" xmlns="http://www.w3.org/2000/svg" xmlns:xlink="http://www.w3.org/1999/xlink">
  <linearGradient id="linearGradient3212" gradientTransform="matrix(0 -.11988932 -.11988589 0 67.723427 62.7062)" gradientUnits="userSpaceOnUse" x1="529.655" x2="-35.31" y1="295.638" y2="295.638">
    <stop offset="0" stop-color="#b3b3b3"/>
    <stop offset="1" stop-color="#d9d9d9"/>
  </linearGradient>
  <filter id="filter1203" color-interpolation-filters="sRGB" height="1.107" width="1.136" x="-.07" y="-.05">
    <feGaussianBlur stdDeviation="10"/>
  </filter>
  <filter id="filter4346" color-interpolation-filters="sRGB" height="1.022" width="1.026" x="-.01" y="-.01">
    <feGaussianBlur stdDeviation="2.12"/>
  </filter>
  <filter id="filter1365-8" color-interpolation-filters="sRGB" height="1.623146" width="1.066393" x="-.033196" y="-.311573">
    <feGaussianBlur stdDeviation="1.731428"/>
  </filter>
  <filter id="filter1110" color-interpolation-filters="sRGB" height="1.413422" width="1.070186" x="-.035093" y="-.206711">
    <feGaussianBlur stdDeviation="4.627788"/>
  </filter>
  <filter id="filter1160" color-interpolation-filters="sRGB" height="1.278924" width="1.076444" x="-.038222" y="-.139462">
    <feGaussianBlur stdDeviation="5.0517961"/>
  </filter>
  <filter id="filter1217" color-interpolation-filters="sRGB" height="1.23937" width="1.08007" x="-.040035" y="-.119685">
    <feGaussianBlur stdDeviation="5.2959004"/>
  </filter>
  <path d="m189.84323 74c-70.59344 0-78.18921 7.250835-77.84323 77.98706v146.01294 146.01294c-.34598 70.73623 7.24979 77.98706 77.84323 77.98706h196.31354c70.59344 0 76.00668-7.27384 77.84323-77.98706v-146.01294-146.01294c0-70.737067-7.24979-77.98706-77.84323-77.98706z" filter="url(#filter4346)" opacity=".1" transform="matrix(.13229167 0 0 .13229167 -3.702696 -6.08546)"/>
  <path d="m189.84323 74c-70.59344 0-78.18921 7.250835-77.84323 77.98706v146.01294 146.01294c-.34598 70.73623 7.24979 77.98706 77.84323 77.98706h196.31354c70.59344 0 77.84323-7.24999 77.84323-77.98706v-146.01294-146.01294c0-70.737067-7.24979-77.98706-77.84323-77.98706z" filter="url(#filter1203)" opacity=".2" transform="matrix(.13229167 0 0 .13229167 -3.702696 -6.08546)"/>
  <path d="m47.381197 3.43954c9.338927 0 10.343782.95922 10.298012 10.31704v19.31629 19.3163c.04577 9.35781-.959085 10.31704-10.298012 10.31704h-25.970643c-9.338923 0-10.298011-.95912-10.298011-10.31704v-19.3163-19.31629c0-9.35793.959088-10.31704 10.298011-10.31704z" fill="url(#linearGradient3212)"/>
  <path d="m11.11397 51.85984v.52917c-.04577 9.35781.959154 10.3172 10.298081 10.3172h25.970506c9.338924 0 10.055122-.96243 10.298081-10.3172v-.52917c-.242959 9.35477-.959157 10.3172-10.298081 10.3172h-25.970506c-9.338927 0-10.343851-.95939-10.298081-10.3172z" opacity=".2"/>
  <path d="m11.11397 14.28746v-.52917c-.04577-9.35782.959154-10.3172 10.298081-10.3172h25.970506c9.338924 0 10.055122.96243 10.298081 10.3172v.52917c-.242959-9.35478-.959157-10.3172-10.298081-10.3172h-25.970506c-9.338927 0-10.343851.95938-10.298081 10.3172z" fill="#fff" opacity=".2"/>
  <path d="m32.962024 35.90935c.285737.0519.597588.31155.753443.51935l2.519744 4.36408-1.29863.77928h4.311883l2.155941-3.74034-1.324986.75292-1.324464-2.33784c-.129881-.23378-.389676-.33745-.675413-.33745zm-1.486731.26304c-.662384.0227-1.305451.26927-1.578197.74982l-1.97404 3.45509 3.792016 2.20762 2.415873-4.20802-.961181-1.61024c-.350673-.41561-1.032084-.617-1.694471-.59427zm10.266559 5.34799-3.818371 2.18178 2.415873 4.12998h2.052071c.831229-.15586 2.078146-1.50668 1.350823-2.90938zm-16.91008.90899 1.376659.80512-.88315 1.48053c-.779277 1.45465.519351 3.05905 1.298631 3.14348h2.026232l1.376659-2.39004 1.376661.75344-2.207617-3.79253zm12.39046 4.44159-2.208136 3.79253 2.208136 3.7667v-1.5844h2.701642c.311713 0 .519313-.18183.623218-.38964l2.441712-4.31188c-.129881.0779-.207708.20746-.701249.25941h-5.065323zm-11.221538 1.32498c.103902.12988.0778.10409 2.363679 4.15634.155855.23378.363836.51948.649573.49351h4.857583v-4.44211h-7.221262c-.389639 0-.526188-.10383-.649573-.20774z" fill="#28851e"/>
  <path d="m19.584836 8.20204h26.802843 2.822226c1.77729.0207 2.945045.0844 3.461639.36931.258794.14278.407976.30016.545703.66697.138287.36681.225991 1.78594.225991 1.78594v2.82222h.0085v2.11667c0 .83596-.08777 1.41912-.225992 1.78594-.137726.36682-.287046.52419-.545703.66697-.516752.28507-1.683782.34857-3.461639.36931h-.01413-25.386226-4.225068-.01651c-1.777889-.0207-2.944919-.0842-3.461655-.36931-.258657-.14278-.407982-.30015-.545703-.66697-.138293-.36682-.226007-.94998-.226007-1.78594v-2.11667-2.82222c0-.83595.08904-1.41913.226007-1.78594.138287-.36686.287046-.52419.545703-.66697.517594-.28555 1.686957-.34868 3.469894-.36931z" fill="#fff" opacity=".2"/>
  <path d="m19.632021 8.20208h26.802841 2.822226c1.777291.0207 2.945045.0844 3.461639.36931.258794.14278.407977.30015.545703.66697.138287.36681.225991 1.78594.225991 1.78594v2.82222h.0085v2.11667c0 .83595-.08777 1.41912-.225991 1.78594-.137726.36681-.287047.52419-.545703.66697-.516753.28507-1.683782.34857-3.461639.36931h-.01416-25.386225-4.225068-.01651c-1.777857-.0207-2.944886-.0842-3.461623-.36931-.258657-.14278-.407982-.30016-.545703-.66697-.138292-.36682-.226007-.94999-.226007-1.78594v-2.11667-2.82222c0-.83596.08904-1.41913.226007-1.78594.138287-.36686.287046-.52419.545703-.66697.517594-.28555 1.686957-.34868 3.469894-.36931z" fill="#fff" opacity=".2"/>
  <path d="m19.632021 7.67291h26.802841 2.822226c1.777291.0207 2.945045.0844 3.461639.36931.258794.14278.407977.30016.545703.66697.138287.36681.225991 1.78594.225991 1.78594v2.82222h.0085v2.11667c0 .83596-.08777 1.41912-.225991 1.78594-.137726.36682-.287047.52419-.545703.66697-.516753.28507-1.683782.34857-3.461639.36931h-.01416-25.386225-4.225068-.01651c-1.777857-.0207-2.944886-.0842-3.461623-.36931-.258657-.14278-.407982-.30015-.545703-.66697-.138292-.36682-.226007-.94998-.226007-1.78594v-2.11667-2.82222c0-.83595.08904-1.41913.226007-1.78594.138287-.36686.287046-.52419.545703-.66697.517594-.28555 1.686957-.34868 3.469894-.36931z" opacity=".3"/>
  <g transform="matrix(.10685013316 -.00000000133 .00000000133 .10685013316 17.06815875316 6.23584361083)">
    <path d="m7.7500001 107.32859c-3.4670761-.37121-3.7495802-.64215-3.7444355-3.59114.0030604-1.75429-.5089624-16.846232-1.1378285-33.53764-1.5607635-41.425891-.2610724-45.257214 8.5778049-53.017851 3.980772-3.495164 10.760049-5.775843 21.115134-7.103535 3.816629-.4893552 60.939325-2.8064352 126.939325-5.1490671 128.62935-4.56562444 134.40444-4.56956364 143.17011-.0976566 8.74479 4.4612594 12.51962 11.8981637 14.29274 28.1585637 1.31539 12.062784 3.49437 72.933636 2.60766 73.820536-.7487.74886-304.944492 1.25398-311.8205099.51779z" filter="url(#filter1217)" opacity=".25"/>
    <path d="m7.75 112.28077c-3.4670761-.37121-3.7495802-.64215-3.7444355-3.59114.0030604-1.75429-.5089624-16.846236-1.1378285-33.537644-1.5607635-41.425891-.2610723-50.20939 8.577805-57.970027 3.980772-3.495164 10.760049-5.775843 21.115134-7.103535 3.816629-.4893552 60.939325-2.8064352 126.939325-5.1490671 128.62935-4.56562444 134.40444-4.56956364 143.17011-.0976566 8.74479 4.4612594 12.51962 11.8981637 14.29274 28.1585637 1.31539 12.062784 3.49437 77.885816 2.60766 78.772716-.7487.74886-304.944492 1.25398-311.82051.51779z" fill="#e6e6e6"/>
  </g>
  <g transform="matrix(.10685013504 -.00000000121 .00000000121 .10685013504 18.4572119947 8.33393066055)">
    <path d="m2.7530867 80.300152c1.0272559-31.466003 2.5022869-50.843161 3.7356288-56.663718 2.7404477-12.933098 8.5547305-19.0985347 20.3105055-21.5371602 8.17791-1.6964308 26.033326-1.37662848 132.700779 2.3767587 137.42707 4.8357488 138.7863 4.9355365 148.73927 10.9196615 6.16041 3.703888 9.27516 9.033668 10.88713 18.629409 1.19861 7.135081.3772 49.91912-.96732 51.263638-2.24708 2.247082-30.66546 2.709393-168.15908 2.735611l-147.4999999.028127z" filter="url(#filter1160)" opacity=".25" stroke="#000" stroke-width="4.95242"/>
    <path d="m2.7530866 85.252328c1.0272558-31.466003 2.502287-55.795337 3.7356289-61.615894 2.7404477-12.933098 8.5547305-19.0985347 20.3105055-21.5371602 8.17791-1.6964308 26.033326-1.37662848 132.700779 2.3767587 137.42707 4.8357488 138.7863 4.9355365 148.73927 10.9196615 6.16041 3.703888 9.27516 9.033668 10.88713 18.629409 1.19861 7.135081.3772 54.871296-.96732 56.215814-2.24708 2.247082-30.66546 2.709392-168.15908 2.735611l-147.5.028127z" fill="#ececec"/>
  </g>
  <g transform="matrix(.26458333 0 0 -.26458333 -111.60548 53.249583)">
    <path d="m5.1362548 54.315945-3.3637452-.411805.4834886-11.725982c.8315849-20.168314 1.9902906-25.687605 8.1124228-31.809737 9.337751-9.3377504 13.760838-9.58824602 160.215719-9.0736026 125.23291.4400693 123.9087.3875407 133.60249 5.2997566 9.21473 4.669457 12.1547 13.016421 13.38453 38.000443l.69381 9.142842-5.38248.64629c-5.75071.690505-302.085342.624827-307.7462352-.0682z" filter="url(#filter1110)" opacity=".25" transform="matrix(.40384303 0 0 -.40384303 487.5371 157.05907)"/>
    <path d="m5.1362548 59.268121-3.3637452-.411805.4834886-16.678158c.5849169-20.176974 1.9902906-25.687605 8.1124228-31.809737 9.337751-9.3377504 13.760838-9.58824602 160.215719-9.0736026 125.23291.4400693 123.9087.3875407 133.60249 5.2997566 9.21473 4.669457 12.1547 13.016421 13.38453 38.000443l.69381 14.095018-5.38248.64629c-5.75071.690503-302.085342.624827-307.7462352-.0682z" fill="#f7f7f7" transform="matrix(.40384303 0 0 -.40384303 487.5371 156.35947)"/>
  </g>
  <g transform="matrix(.26458333 0 0 .26458333 -111.44668 -8.330046)">
    <path d="m8.5614901 13.389032c-3.081019-.300096-6.057944-1.259684-6.057944-1.95273 0-.210449.63301 1.061576 1.406688.382278 1.625569-1.427268 5.238507-2.6450466 9.6802789-3.2628406 6.181042-.859704 95.180947-8.10524703 99.441757-8.09562203 10.39311.02348 12.37536-.049417 14.42569 12.02436263l.2229 1.312554-58.045204-.05649c-31.924857-.031069-59.408232-.189248-61.0741659-.351512z" filter="url(#filter1365-8)" opacity=".25" transform="matrix(.9999508 0 0 .9999508 478.59586 84.203366)"/>
    <path d="m487.15694 100.13325c-3.08088-.300084-6.05765-1.259618-6.05765-1.952639 0-.210439.63298-.938376 1.40661-1.617642 1.62549-1.427194 5.23826-2.644908 9.67981-3.262673 6.18074-.859669 95.17626-8.104854 99.43687-8.09523 10.39259.02348 12.37474 1.95049 14.42497 14.023675l.2229 1.312489-58.04235-.0565c-31.92329-.0311-59.40531-.18925-61.07116-.3515z" fill="#fff" stroke-width=".403863"/>
  </g>
</svg>
