<?xml version="1.0" encoding="UTF-8" standalone="no"?>
<svg
   xmlns:dc="http://purl.org/dc/elements/1.1/"
   xmlns:cc="http://creativecommons.org/ns#"
   xmlns:rdf="http://www.w3.org/1999/02/22-rdf-syntax-ns#"
   xmlns:svg="http://www.w3.org/2000/svg"
   xmlns="http://www.w3.org/2000/svg"
   xmlns:sodipodi="http://sodipodi.sourceforge.net/DTD/sodipodi-0.dtd"
   xmlns:inkscape="http://www.inkscape.org/namespaces/inkscape"
   width="16"
   height="16"
   version="1.1"
   id="svg6"
   sodipodi:docname="notification-disabled-symbolic.svg"
   inkscape:version="0.92.4 (5da689c313, 2019-01-14)">
  <metadata
     id="metadata12">
    <rdf:RDF>
      <cc:Work
         rdf:about="">
        <dc:format>image/svg+xml</dc:format>
        <dc:type
           rdf:resource="http://purl.org/dc/dcmitype/StillImage" />
      </cc:Work>
    </rdf:RDF>
  </metadata>
  <defs
     id="defs10" />
  <sodipodi:namedview
     pagecolor="#ffffff"
     bordercolor="#808080"
     borderopacity="1"
     objecttolerance="10"
     gridtolerance="10"
     guidetolerance="10"
     inkscape:pageopacity="0"
     inkscape:pageshadow="2"
     inkscape:window-width="1356"
     inkscape:window-height="891"
     id="namedview8"
     showgrid="false"
     inkscape:zoom="14.75"
     inkscape:cx="8.0677966"
     inkscape:cy="8"
     inkscape:window-x="0"
     inkscape:window-y="27"
     inkscape:window-maximized="0"
     inkscape:current-layer="g4" />
  <g
     color="#808080"
     transform="translate(-313 211)"
     id="g4">
    <path
       fill="#666"
       opacity=".4"
       d="M315.352-210.263l-.94.94 13.543 13.544.94-.941-1.918-1.918c.007-.041.023-.079.023-.122a.738.738 0 0 0-.086-.334c-.014-.028-.035-.05-.052-.076a.725.725 0 0 0-.163-.176c-.015-.011-.022-.032-.039-.043-1.66-.62-1.66-5.62-1.66-5.62-.002-1.823-1.235-3.535-3-3.99v-.01a1 1 0 1 0-2 0v.01c-.822.211-1.52.702-2.039 1.345zm1.68 4.873c-.013.126-.032.252-.032.38 0 0 0 5-1.66 5.622-.016.01-.023.03-.039.043a.726.726 0 0 0-.162.175c-.018.027-.039.048-.053.077a.738.738 0 0 0-.086.334c0 .415.335.75.75.75h8.662zm2.035 8.38a2 2 0 0 0 1.933 1.5 2 2 0 0 0 1.936-1.5z"
       overflow="visible"
       id="path2"
       style="fill:#808080;fill-opacity:1" />
  </g>
</svg>
