<svg height="16" width="16" xmlns="http://www.w3.org/2000/svg">
  <path d="m14.278664 2.116878h-.838693v-1.272023c0-.481674-.375039-.844895-.872466-.844895h-11.683125c-.495901 0-.88438.3711-.88438.844895v3.089125c0 .491078.39675.890588.88438.890588h11.683125c.481082 0 .872466-.39951.872466-.890588v-1.029408h.838693c.04578 0 .07562.0036.09359.0076.0016.01173.0031.02854.0031.0514v3.268329c0 .147147-.05854.26658-.09669.26658h-6.798983c-.615531 0-1.079678.37898-1.079678.881577v.496883h-.241132c-.125882 0-.237932.07975-.279137.198694l-.743531 2.146507c-.01078.03108-.01624.0638-.01624.09669v5.385785c0 .163148.132283.295383.295384.295383h2.904609c.16315 0 .295383-.132235.295383-.295383v-5.385785c0-.03181-.0051-.06336-.01522-.09349l-.716207-2.146507c-.04022-.120563-.153058-.201892-.280172-.201892h-.416491l-.000672-.495111c.01388-.02637.125095-.09566.292971-.09566h6.798995c.512442 0 .88438-.443377.88438-1.054275v-3.268329c.000097-.530118-.330535-.846618-.884283-.846618z" fill="#f2f2f7"/>
</svg>
