<?xml version="1.0" encoding="UTF-8" standalone="no"?>
<svg
   xmlns:dc="http://purl.org/dc/elements/1.1/"
   xmlns:cc="http://creativecommons.org/ns#"
   xmlns:rdf="http://www.w3.org/1999/02/22-rdf-syntax-ns#"
   xmlns:svg="http://www.w3.org/2000/svg"
   xmlns="http://www.w3.org/2000/svg"
   xmlns:xlink="http://www.w3.org/1999/xlink"
   xmlns:sodipodi="http://sodipodi.sourceforge.net/DTD/sodipodi-0.dtd"
   xmlns:inkscape="http://www.inkscape.org/namespaces/inkscape"
   width="256"
   height="256"
   version="1.1"
   viewBox="0 0 67.73 67.73"
   id="svg49"
   sodipodi:docname="drive-harddisk.svg"
   inkscape:version="0.92.4 (5da689c313, 2019-01-14)">
  <metadata
     id="metadata53">
    <rdf:RDF>
      <cc:Work
         rdf:about="">
        <dc:format>image/svg+xml</dc:format>
        <dc:type
           rdf:resource="http://purl.org/dc/dcmitype/StillImage" />
      </cc:Work>
    </rdf:RDF>
  </metadata>
  <sodipodi:namedview
     pagecolor="#ffffff"
     bordercolor="#666666"
     borderopacity="1"
     objecttolerance="10"
     gridtolerance="10"
     guidetolerance="10"
     inkscape:pageopacity="0"
     inkscape:pageshadow="2"
     inkscape:window-width="1920"
     inkscape:window-height="1016"
     id="namedview51"
     showgrid="false"
     inkscape:zoom="3.6647275"
     inkscape:cx="65.424004"
     inkscape:cy="125.59484"
     inkscape:window-x="0"
     inkscape:window-y="27"
     inkscape:window-maximized="1"
     inkscape:current-layer="g43" />
  <defs
     id="defs25">
    <linearGradient
       id="linearGradient930"
       x1="334.866"
       x2="334.866"
       y1="140.23"
       y2="160.631"
       gradientUnits="userSpaceOnUse"
       xlink:href="#linearGradient928" />
    <linearGradient
       id="linearGradient928">
      <stop
         style="stop-color:#808080"
         offset="0"
         id="stop3" />
      <stop
         style="stop-color:#999999"
         offset="1"
         id="stop5" />
    </linearGradient>
    <linearGradient
       id="linearGradient4226"
       x1="529.655"
       x2="-35.31"
       y1="295.638"
       y2="295.638"
       gradientTransform="matrix(0 -.11988932 -.11988589 0 66.487288 293.07747)"
       gradientUnits="userSpaceOnUse">
      <stop
         style="stop-color:#999999"
         offset="0"
         id="stop8" />
      <stop
         style="stop-color:#b7b7b7"
         offset=".613"
         id="stop10" />
      <stop
         style="stop-color:#dbdbdb"
         offset="1"
         id="stop12" />
    </linearGradient>
    <linearGradient
       id="linearGradient4358"
       x1="88"
       x2="488"
       y1="88"
       y2="488"
       gradientUnits="userSpaceOnUse">
      <stop
         style="stop-color:#000000;stop-opacity:.58823532"
         offset="0"
         id="stop15" />
      <stop
         style="stop-color:#000000;stop-opacity:0"
         offset=".88"
         id="stop17" />
      <stop
         style="stop-color:#000000"
         offset="1"
         id="stop19" />
    </linearGradient>
    <filter
       id="filter4346"
       width="1.026"
       height="1.022"
       x="-.01"
       y="-.01"
       style="color-interpolation-filters:sRGB">
      <feGaussianBlur
         stdDeviation="2.12"
         id="feGaussianBlur22" />
    </filter>
    <linearGradient
       gradientTransform="matrix(0.99995074,0,0,0.99995077,0.01677419,0.0071747)"
       inkscape:collect="always"
       xlink:href="#linearGradient928"
       id="linearGradient930-6"
       x1="334.86633"
       y1="140.23035"
       x2="334.86633"
       y2="160.63107"
       gradientUnits="userSpaceOnUse" />
    <linearGradient
       inkscape:collect="always"
       xlink:href="#linearGradient928"
       id="linearGradient952"
       x1="334.86633"
       y1="140.23035"
       x2="334.86633"
       y2="160.63107"
       gradientUnits="userSpaceOnUse" />
    <linearGradient
       inkscape:collect="always"
       xlink:href="#linearGradient928"
       id="linearGradient866"
       gradientUnits="userSpaceOnUse"
       gradientTransform="matrix(0.99995074,0,0,0.99995077,0.01677419,0.0071747)"
       x1="334.86633"
       y1="140.23035"
       x2="334.86633"
       y2="160.63107" />
  </defs>
  <g
     transform="translate(0,-229.26666)"
     id="g47">
    <path
       d="m189.84323 74c-70.59344 0-78.18921 7.250835-77.84323 77.98706v292.02588c-0.34598 70.73623 7.24979 77.98706 77.84323 77.98706h196.31354c70.59344 0 76.00668-7.27384 77.84323-77.98706v-292.02588c0-70.737067-7.24979-77.98706-77.84323-77.98706z"
       transform="matrix(.13229167 0 0 .13229167 -4.938835 224.28581)"
       style="filter:url(#filter4346);opacity:.1"
       id="path27" />
    <path
       d="m189.84323 74c-70.59344 0-78.18921 7.250835-77.84323 77.98706v292.02588c-0.34598 70.73623 7.24979 77.98706 77.84323 77.98706h196.31354c70.59344 0 77.84323-7.24999 77.84323-77.98706v-292.02588c0-70.737067-7.24979-77.98706-77.84323-77.98706z"
       transform="matrix(.13229167 0 0 .13229167 -4.938835 224.28581)"
       style="fill:url(#linearGradient4358);filter:url(#filter4380);opacity:.3"
       id="path29" />
    <path
       d="m46.145058 233.81081c9.338927 0 10.343782 0.95922 10.298012 10.31704v38.63259c0.04577 9.35781-0.959085 10.31704-10.298012 10.31704h-25.970643c-9.338923 0-10.298011-0.95912-10.298011-10.31704v-38.63259c0-9.35793 0.959088-10.31704 10.298011-10.31704z"
       style="fill:url(#linearGradient4226)"
       id="path31" />
    <g
       transform="matrix(1.8676559,0,0,1.8675796,-594.37058,-10.618006)"
       style="enable-background:new;opacity:.2;stroke-width:1.1333512;stroke:#ffffff"
       id="g37">
      <path
         d="m344.21014 147.66357a8.5001656 8.500124 0 0 1-4.95766 10.05309 8.5001656 8.500124 0 0 1-10.61423-3.60303 8.5001656 8.500124 0 0 1 2.18678-10.99367 8.5001656 8.500124 0 0 1 11.1851 0.73311l-1.76044 1.76043"
         style="fill:none;stroke-linecap:square;stroke-linejoin:round;stroke-width:1.1333512;stroke:#ffffff"
         id="path33" />
      <circle
         cx="336"
         cy="149.864"
         r="2.267"
         style="fill:none;stroke-linecap:square;stroke-linejoin:round;stroke-width:1.1333512;stroke:#ffffff"
         id="circle35" />
    </g>
    <g
       transform="matrix(1.8676559,0,0,1.8675796,-594.37058,-11.147173)"
       style="enable-background:new;stroke-width:1.1333512;stroke:url(#linearGradient930)"
       id="g43">
      <circle
         cx="336"
         cy="149.864"
         r="2.267"
         style="fill:none;stroke-linecap:square;stroke-linejoin:round;stroke-width:1.1333512;stroke:#5d5d5d;stroke-opacity:1"
         id="circle41" />
      <path
         style="display:inline;opacity:1;fill:none;fill-opacity:1;stroke:url(#linearGradient866);stroke-width:1.13329554;stroke-linecap:square;stroke-linejoin:round;stroke-miterlimit:4;stroke-dasharray:none;stroke-dashoffset:0;stroke-opacity:1;enable-background:new"
         d="m 344.20995,147.66347 a 8.4997471,8.4997057 0 0 1 -4.95742,10.0526 8.4997471,8.4997057 0 0 1 -10.6137,-3.60286 8.4997471,8.4997057 0 0 1 2.18667,-10.99313 8.4997471,8.4997057 0 0 1 11.18455,0.73308 l -1.76036,1.76034"
         id="path1033"
         inkscape:connector-curvature="0" />
      <circle
         style="display:inline;opacity:1;fill:none;fill-opacity:1;stroke:url(#linearGradient930-6);stroke-width:1.13329554;stroke-linecap:square;stroke-linejoin:round;stroke-miterlimit:4;stroke-dasharray:none;stroke-dashoffset:0;stroke-opacity:1;enable-background:new"
         id="circle1035"
         cx="335.99988"
         cy="149.86392"
         r="2.2665329" />
    </g>
    <path
       d="m9.8778317 282.23111v0.52917c-0.04577 9.35781 0.9591543 10.3172 10.29808 10.3172h25.970506c9.338924 0 10.055122-0.96243 10.298081-10.3172v-0.52917c-0.242959 9.35477-0.959157 10.3172-10.298081 10.3172h-25.970506c-9.338926 0-10.343851-0.95939-10.29808-10.3172z"
       style="opacity:.2"
       id="path45" />
  </g>
</svg>
