<svg id="svg67" height="256" width="256" xmlns="http://www.w3.org/2000/svg" xmlns:xlink="http://www.w3.org/1999/xlink">
  <filter id="filter960" color-interpolation-filters="sRGB" height="1.029638" width="1.020164" x="-.010082" y="-.014819">
    <feGaussianBlur id="feGaussianBlur962" stdDeviation=".54778103"/>
  </filter>
  <filter id="filter974" color-interpolation-filters="sRGB" height="1.118554" width="1.080656" x="-.040328" y="-.059277">
    <feGaussianBlur id="feGaussianBlur976" stdDeviation="2.1911241"/>
  </filter>
  <linearGradient id="i">
    <stop id="stop2" offset="0" stop-color="#9a9996"/>
    <stop id="stop4" offset="1" stop-color="#9a9996" stop-opacity="0"/>
  </linearGradient>
  <linearGradient id="j" gradientUnits="userSpaceOnUse" x1="-256.00046" x2="-240.0005" xlink:href="#i" y1="-84.00116" y2="-84.00116"/>
  <linearGradient id="k" gradientUnits="userSpaceOnUse" x1="-256.00046" x2="-240.0005" xlink:href="#i" y1="-44.117161" y2="-44.117161"/>
  <g id="g65" transform="matrix(1.7484897 0 0 1.7484897 16.995245 -297.55676)">
    <g fill="#020203" stroke-width="1.019804">
      <path id="path964" d="m31.661027 195.84962a22.435698 22.435698 0 0 0 -22.4129284 21.79437l-9.75347234 47.31719a16.318911 16.318911 0 0 0 28.69197074 13.52294l10.706943-13.3065a14.158965 14.158965 0 0 0 5.005458.92045 14.158965 14.158965 0 0 0 13.545726-10.08041h13.388522a14.158965 14.158965 0 0 0 13.552561 10.08041 14.158965 14.158965 0 0 0 5.334673-1.05259l10.81292 13.43864a16.318911 16.318911 0 0 0 28.69197-13.52294l-9.93688-48.20915a22.435698 22.435698 0 0 0 -22.359417-20.90241 22.435698 22.435698 0 0 0 -12.224304 3.62935h-40.380862v.28594a22.435698 22.435698 0 0 0 -12.66288-3.91529z" filter="url(#filter974)" opacity=".1"/>
      <path id="path958" d="m31.661027 195.84962a22.435698 22.435698 0 0 0 -22.4129284 21.79437l-9.75347234 47.31719a16.318911 16.318911 0 0 0 28.69197074 13.52294l10.706943-13.3065a14.158965 14.158965 0 0 0 5.005458.92045 14.158965 14.158965 0 0 0 13.545726-10.08041h13.388522a14.158965 14.158965 0 0 0 13.552561 10.08041 14.158965 14.158965 0 0 0 5.334673-1.05259l10.81292 13.43864a16.318911 16.318911 0 0 0 28.69197-13.52294l-9.93688-48.20915a22.435698 22.435698 0 0 0 -22.359417-20.90241 22.435698 22.435698 0 0 0 -12.224304 3.62935h-40.380862v.28594a22.435698 22.435698 0 0 0 -12.66288-3.91529z" filter="url(#filter960)" opacity=".1"/>
      <path id="path923" d="m31.661027 195.84962a22.435698 22.435698 0 0 0 -22.4129284 21.79437l-9.75347234 47.31719a16.318911 16.318911 0 0 0 28.69197074 13.52294l10.706943-13.3065a14.158965 14.158965 0 0 0 5.005458.92045 14.158965 14.158965 0 0 0 13.545726-10.08041h13.388522a14.158965 14.158965 0 0 0 13.552561 10.08041 14.158965 14.158965 0 0 0 5.334673-1.05259l10.81292 13.43864a16.318911 16.318911 0 0 0 28.69197-13.52294l-9.93688-48.20915a22.435698 22.435698 0 0 0 -22.359417-20.90241 22.435698 22.435698 0 0 0 -12.224304 3.62935h-40.380862v.28594a22.435698 22.435698 0 0 0 -12.66288-3.91529z" opacity=".1"/>
    </g>
    <path id="path9" d="m89.179 213.97 6.084 7.563 22.648-4.67 9.875 47.907a16.002 16.002 0 0 1 -28.135 13.26l-35.404-44zm-49.997 0-6.084 7.563-22.649-4.67-9.875 47.907a16.002 16.002 0 0 0 28.135 13.26l35.405-44z" fill="#77767b"/>
    <path id="path11" d="m41.116 200h46v32h-46z" fill="#77767b"/>
    <path id="path13" d="m60.45 231.28-31.985 39.75a16.002 16.002 0 0 1 -28.07-6.577l-.065.317a16.002 16.002 0 0 0 28.135 13.26l35.404-44zm7.1 0-3.42 2.75 35.405 44a16.002 16.002 0 0 0 28.135-13.26l-.065-.317a16.002 16.002 0 0 1 -28.07 6.576z" fill="#5e5c64" fill-opacity=".235"/>
    <g id="g21" fill="#c0bfbc">
      <circle id="circle15" cx="32.116001" cy="221" r="22"/>
      <path id="path17" d="m46.116 204h36v52h-36z"/>
      <circle id="circle19" cx="96.115997" cy="221" r="22"/>
    </g>
    <path id="path23" d="m46.116 204h36v48h-36z" fill="#deddda"/>
    <circle id="circle25" cx="44.116001" cy="252" fill="#c0bfbc" r="13.884"/>
    <circle id="circle27" cx="44.116001" cy="250" fill="#deddda" r="13.884"/>
    <circle id="circle29" cx="84.115997" cy="252" fill="#c0bfbc" r="13.884"/>
    <circle id="circle31" cx="84.115997" cy="250" fill="#deddda" r="13.884"/>
    <path id="path893" d="m88.886719 52.140625v2h80.429691v-2z" fill="#fff" opacity=".3" stroke-width="1.74849" transform="matrix(.57192216 0 0 .57192216 -9.719957 170.1793)"/>
    <circle id="circle33" cx="32.116001" cy="219" fill="#deddda" r="22"/>
    <circle id="circle35" cx="96.115997" cy="219" fill="#deddda" r="22"/>
    <path id="path37" d="m30 208c-1.108 0-2 .892-2 2v6h-6c-1.108 0-2 .892-2 2v4c0 1.108.892 2 2 2h6v6c0 1.108.892 2 2 2h4c1.108 0 2-.892 2-2v-6h6c1.108 0 2-.892 2-2v-4c0-1.108-.892-2-2-2h-6v-6c0-1.108-.892-2-2-2z" fill="#3d3846"/>
    <path id="path39" d="m30 206c-1.108 0-2 .892-2 2v6h-6c-1.108 0-2 .892-2 2v4c0 1.108.892 2 2 2h6v6c0 1.108.892 2 2 2h4c1.108 0 2-.892 2-2v-6h6c1.108 0 2-.892 2-2v-4c0-1.108-.892-2-2-2h-6v-6c0-1.108-.892-2-2-2z" fill="#5e5c64"/>
    <g id="g51" transform="matrix(-1 0 0 1 -28.492 -180.773)">
      <g id="g45" transform="translate(-208.492 146.773)">
        <path id="path41" d="m70 256v2c0 3.324 2.676 6 6 6s6-2.676 6-6v-2z" fill="#a4152c"/>
        <circle id="circle43" cx="76" cy="256" fill="#da1636" r="6"/>
      </g>
      <path id="path47" d="m-122.492 394.773v2c0 3.324 2.676 6 6 6s6-2.676 6-6v-2z" fill="#1e45a9"/>
      <circle id="circle49" cx="-116.492" cy="394.77301" fill="#2f5fdd" r="6"/>
    </g>
    <circle id="circle53" cx="44.116001" cy="250" fill="#241f31" r="10"/>
    <circle id="circle55" cx="84.115997" cy="250" fill="#241f31" r="10"/>
    <circle id="circle57" cx="44.116001" cy="248" fill="#3d3846" r="10"/>
    <circle id="circle59" cx="84.115997" cy="248" fill="#3d3846" r="10"/>
    <circle id="circle61" cx="-248" cy="-84" fill="url(#j)" r="8" transform="matrix(0 -1 -1 0 0 0)"/>
    <circle id="circle63" cx="-248" cy="-44.116001" fill="url(#k)" r="8" transform="matrix(0 -1 -1 0 0 0)"/>
    <path id="path883" d="m73.150391 46.896484a38.466773 38.466773 0 0 0 -38.466797 38.466797 38.466773 38.466773 0 0 0 .041015.828125 38.466773 38.466773 0 0 1 38.425782-37.294922 38.466773 38.466773 0 0 1 28.095699 12.238282h55.73438a38.466773 38.466773 0 0 1 28.07226-12.238282 38.466773 38.466773 0 0 1 38.42579 37.638672 38.466773 38.466773 0 0 0 .04101-1.171875 38.466773 38.466773 0 0 0 -38.4668-38.466797 38.466773 38.466773 0 0 0 -28.07226 12.238282h-55.73438a38.466773 38.466773 0 0 0 -28.095699-12.238282z" fill="#fff" opacity=".3" stroke-width="1.74849" transform="matrix(.57192216 0 0 .57192216 -9.719957 170.1793)"/>
    <path id="circle900" d="m69.449219 62.632812c-1.937327 0-3.496094 1.558768-3.496094 3.496094v2c0-1.937326 1.558767-3.496094 3.496094-3.496094h6.99414c1.937327 0 3.498047 1.558768 3.498047 3.496094v-2c0-1.937326-1.56072-3.496094-3.498047-3.496094zm101.414061 3.496094a10.490938 10.490938 0 0 0 -10.49219 10.490235 10.490938 10.490938 0 0 0 .05274 1.037109 10.490938 10.490938 0 0 1 10.43945-9.527344 10.490938 10.490938 0 0 1 10.4375 9.44336 10.490938 10.490938 0 0 0 .05274-.953125 10.490938 10.490938 0 0 0 -10.49024-10.490235zm-115.400389 10.490235c-1.937329 0-3.498047 1.56072-3.498047 3.498047v2c0-1.937327 1.560718-3.498047 3.498047-3.498047h10.490234v-2zm24.478515 0v2h10.490235c1.937326 0 3.498047 1.56072 3.498047 3.498047v-2c0-1.937327-1.560721-3.498047-3.498047-3.498047zm118.896484 3.498047a10.490938 10.490938 0 0 0 -10.49023 10.490234 10.490938 10.490938 0 0 0 .05273 1.039062 10.490938 10.490938 0 0 1 10.4375-9.529296 10.490938 10.490938 0 0 1 10.43945 9.443359 10.490938 10.490938 0 0 0 .05274-.953125 10.490938 10.490938 0 0 0 -10.49219-10.490234z" fill="#fdfdfd" opacity=".3" stroke-width="1.74849" transform="matrix(.57192216 0 0 .57192216 -9.719957 170.1793)"/>
  </g>
</svg>
