<svg height="256" viewBox="0 0 67.73 67.73" width="256" xmlns="http://www.w3.org/2000/svg" xmlns:xlink="http://www.w3.org/1999/xlink"><radialGradient id="a" cx="152" cy="228.005" gradientTransform="matrix(.34811542 .00000005 -.00000005 .32490771 -18.793185 208.75322)" gradientUnits="userSpaceOnUse" r="88"><stop offset="0" stop-color="#fff" stop-opacity="0"/><stop offset="1" stop-color="#fff"/></radialGradient><radialGradient id="b" cx="340" cy="210.56" gradientTransform="matrix(7.4264632 -.00001286 .00001286 7.4264601 -2490.8795 -1287.0045)" gradientUnits="userSpaceOnUse" r="5.5"><stop offset="0" stop-color="#ccc"/><stop offset=".628" stop-color="#b3b3b3"/><stop offset="1" stop-color="#e6e6e6"/></radialGradient><filter id="c" color-interpolation-filters="sRGB" height="1.021" width="1.028" x="-.01" y="-.01"><feGaussianBlur stdDeviation="1.041"/></filter><filter id="d" color-interpolation-filters="sRGB" height="1.104" width="1.142" x="-.07" y="-.05"><feGaussianBlur stdDeviation="5.204"/></filter><g transform="translate(0 -229.26666)"><path d="m33.893318 231.68939c-5.347336 0-10.461731 1.02057-15.485123 2.83215l-.709977.25528-4.501834 22.24964c-.767283 3.78925-1.528604 7.69139-1.54098 11.7112-.01225 4.02276.738447 8.10752 2.533282 11.79894 1.795979 3.69382 4.611382 6.90429 8.124346 9.11844 3.512104 2.21355 7.651883 3.39051 11.811311 3.39051 4.159384 0 8.299204-1.17696 11.81135-3.39051 3.512963-2.21415 6.320278-5.42462 8.116216-9.11844 1.794838-3.69142 2.545702-7.77614 2.533326-11.79894-.01225-4.01985-.765528-7.92195-1.532893-11.7112l-4.509924-22.24964-.709977-.25528c-5.02335-1.81158-10.591947-2.83215-15.939123-2.83215z" fill="none" opacity=".3" stroke="#000" stroke-width="1.021139"/><path d="m99.601146 12.490323c-20.94656 0-40.98064 3.997761-60.658244 11.094081l-2.78112 1-17.634561 87.156166c-3.0056 14.8432-5.98784 30.12864-6.03632 45.87504-.048 15.75792 2.89264 31.75872 9.92336 46.21872 7.035201 14.46944 18.063681 27.04544 31.824645 35.71872 13.7576 8.67089 29.97392 13.28129 46.267204 13.28129 16.29312 0 32.5096-4.6104 46.26736-13.28129 13.76096-8.67328 24.75776-21.24928 31.7928-35.71872 7.03073-14.46 9.97201-30.46064 9.92353-46.21872-.048-15.74656-2.99872-31.03184-6.00464-45.87504l-17.66625-87.156166-2.78112-1c-19.67744-7.09632-41.49072-11.094081-62.436644-11.094081z" filter="url(#d)" opacity=".3" transform="matrix(.25528473 0 0 .25528473 8.466667 229.26666)"/><path d="m99.601146 10.490323c-20.94656 0-40.98064 3.997761-60.658244 11.094081l-2.78112 1-17.634561 87.156166c-3.0056 14.8432-5.98784 30.12864-6.03632 45.87504-.048 15.75792 2.89264 31.75872 9.92336 46.21872 7.035201 14.46944 18.063681 27.04544 31.824645 35.71872 13.7576 8.67089 29.97392 13.28129 46.267204 13.28129 16.29312 0 32.5096-4.6104 46.26736-13.28129 13.76096-8.67328 24.75776-21.24928 31.7928-35.71872 7.03073-14.46 9.97201-30.46064 9.92353-46.21872-.048-15.74656-2.99872-31.03184-6.00464-45.87504l-17.66625-87.156166-2.78112-1c-19.67744-7.09632-41.49072-11.094081-62.436644-11.094081z" filter="url(#c)" opacity=".1" transform="matrix(.25528473 0 0 .25528473 8.466667 229.26666)"/><path d="m33.893318 231.68939c-5.347336 0-10.461731 1.02057-15.485123 2.83215l-.709977.25528-4.501834 22.24964c-.767283 3.78925-1.528604 7.69139-1.54098 11.7112-.01225 4.02276.738447 8.10752 2.533282 11.79894 1.795979 3.69382 4.611382 6.90429 8.124346 9.11844 3.512104 2.21355 7.651883 3.39051 11.811311 3.39051 4.159384 0 8.299204-1.17696 11.81135-3.39051 3.512963-2.21415 6.320278-5.42462 8.116216-9.11844 1.794838-3.69142 2.545702-7.77614 2.533326-11.79894-.01225-4.01985-.765528-7.92195-1.532893-11.7112l-4.509924-22.24964-.709977-.25528c-5.02335-1.81158-10.591947-2.83215-15.939123-2.83215z" fill="url(#b)"/><path d="m33.893318 231.68939c-5.347336 0-10.461731 1.02057-15.485123 2.83215l-.709977.25528-4.501834 22.24964c-.767283 3.78925-1.528604 7.69139-1.54098 11.7112-.01225 4.02276.738447 8.10752 2.533282 11.79894 1.795979 3.69382 4.611382 6.90429 8.124346 9.11844 3.512104 2.21355 7.651883 3.39051 11.811311 3.39051 4.159384 0 8.299204-1.17696 11.81135-3.39051 3.512963-2.21415 6.320278-5.42462 8.116216-9.11844 1.794838-3.69142 2.545702-7.77614 2.533326-11.79894-.01225-4.01985-.765528-7.92195-1.532893-11.7112l-4.509924-22.24964-.709977-.25528c-5.02335-1.81158-10.591947-2.83215-15.939123-2.83215z" fill="url(#a)" opacity=".7"/><path d="m33.893484 231.6892c-5.347336 0-10.461721 1.02098-15.485113 2.83256l-.71001.25529-4.501887 22.24965c-.767284 3.78925-1.528805 7.69138-1.541181 11.71119-.000307.10413.0022.20843.003.31263.0362-3.94991.783523-7.7863 1.538189-11.51324l4.501887-22.24966.71001-.25528c5.023392-1.81159 10.137777-2.83257 15.485113-2.83257 5.347176 0 10.915492 1.02098 15.938844 2.83257l.710008.25528 4.509866 22.24966c.754746 3.72694 1.494385 7.56329 1.530212 11.51324.000766-.1042.0033-.2085.003-.31263-.01225-4.01985-.765839-7.92194-1.533205-11.71119l-4.509865-22.24965-.710008-.25529c-5.023347-1.81158-10.591664-2.83256-15.938839-2.83256z" fill="#fff"/><g fill="none" stroke-width="1.021139"><path d="m34.12035 231.77695v21.44392" stroke="#ccc"/><path d="m34.12035 253.73144v-.51057" opacity=".5" stroke="#fff"/><path d="m34.12035 253.22087v-.51056" opacity=".2" stroke="#000"/><path d="m34.12035 232.28753v-.51058" opacity=".1" stroke="#000"/></g></g></svg>