<svg id="svg57" height="256" viewBox="0 0 67.73 67.73" width="256" xmlns="http://www.w3.org/2000/svg" xmlns:xlink="http://www.w3.org/1999/xlink">
  <linearGradient id="linearGradient1694-7" gradientTransform="matrix(0 -.05803571 .05803571 0 -12.322952 16.591689)" gradientUnits="userSpaceOnUse" x1="26.132627" x2="280.91214" y1="281.93378" y2="29.766859">
    <stop id="stop4342-7" offset="0" stop-color="#999"/>
    <stop id="stop932" offset=".61328125" stop-color="#b7b7b7"/>
    <stop id="stop4340-0" offset="1" stop-color="#dbdbdb"/>
  </linearGradient>
  <linearGradient id="linearGradient1694" gradientTransform="matrix(0 -.05803571 .05803571 0 -12.322967 16.591689)" gradientUnits="userSpaceOnUse" x1="279.99677" x2="23.996759" y1="36.00288" y2="276.00287">
    <stop id="stop997" offset="0" stop-color="#aea795"/>
    <stop id="stop999" offset="1" stop-color="#c8c4b7"/>
  </linearGradient>
  <linearGradient id="linearGradient4358-3" gradientUnits="userSpaceOnUse" x1="88" x2="488" y1="88" y2="488">
    <stop id="stop4362" offset="0" stop-opacity=".588235"/>
    <stop id="stop4366" offset="1" stop-opacity=".205556"/>
  </linearGradient>
  <filter id="filter4380" color-interpolation-filters="sRGB" height="1.087725" width="1.105998" x="-.052999" y="-.043863">
    <feGaussianBlur id="feGaussianBlur4382" stdDeviation="8.4801079"/>
  </filter>
  <filter id="filter4346-6" color-interpolation-filters="sRGB" height="1.021931" width="1.0265" x="-.01325" y="-.010966">
    <feGaussianBlur id="feGaussianBlur4348" stdDeviation="2.120027"/>
  </filter>
  <g id="g968" fill="#999" transform="matrix(-4.55875 0 0 -4.55875 19.22594830375 68.8054047025)">
    <path id="rect4158-9" d="m141.84323 74c-70.59344 0-78.18921 7.250835-77.84323 77.98706v146.01294 146.01294c-.34598 70.73623 7.24979 77.98706 77.84323 77.98706h292.31354c70.59344 0 79.78033-7.27652 77.84323-77.98706v-146.01294-146.01294c0-70.737067-7.24979-77.98706-77.84323-77.98706z" fill="#000" filter="url(#filter4346-6)" opacity=".1" transform="matrix(.02901786 0 0 .02901786 -11.6264 -.818858)"/>
    <path id="path4350" d="m141.84323 74c-70.59344 0-78.18921 7.250835-77.84323 77.98706v146.01294 146.01294c-.34598 70.73623 7.24979 77.98706 77.84323 77.98706h292.31354c70.59344 0 79.78033-7.27652 77.84323-77.98706v-146.01294-146.01294c0-70.737067-7.24979-77.98706-77.84323-77.98706z" fill="url(#linearGradient4358-3)" filter="url(#filter4380)" opacity=".3" transform="matrix(.02901786 0 0 .02901786 -11.6264 -.818841)"/>
    <path id="rect4158-7" d="m-7.5748327 1.1543555c-2.0950199 0-2.3204419.214161-2.3101749 2.3034283v4.3126434 4.3126348c-.01027 2.089268.215155 2.303429 2.3101749 2.303429h8.611764c2.0950202 0 2.3663854-.214893 2.3101743-2.303429v-4.3126348-4.3126434c0-2.0892922-.2151541-2.3034283-2.3101743-2.3034283z" fill="#000" opacity=".1"/>
    <path id="rect4158" d="m-7.5104119 14.270419c-2.0484707 0-2.2688837-.210404-2.2588447-2.263017v-4.2369748-4.236983c-.01004-2.0526142.210374-2.2630174 2.2588447-2.2630174h8.48231191c2.04846969 0 2.25884339.2103794 2.25884339 2.2630174v4.236983 4.2369748c0 2.052638-.2103737 2.263017-2.25884339 2.263017z" fill="url(#linearGradient1694)"/>
    <path id="path931-3" d="m-7.5103968 1.2704269c-2.0484708 0-2.2688988.2104392-2.2588598 2.2630529v.1160714c-.01004-2.0526136.210389-2.2630529 2.2588598-2.2630529h8.48228171c2.04847089 0 2.25885909.2104149 2.25885909 2.2630529v-.1160714c0-2.052638-.2103882-2.2630529-2.25885909-2.2630529z" fill="#fff" opacity=".3"/>
    <path id="path931-8" d="m-7.5100834 14.270419c-2.0484712 0-2.2688992-.210439-2.2588592-2.263053v-.116071c-.01004 2.052613.210388 2.263053 2.2588592 2.263053h8.48228171c2.04847089 0 2.25885909-.210415 2.25885909-2.263053v.116071c0 2.052638-.2103882 2.263053-2.25885909 2.263053z" fill="#000" opacity=".2"/>
    <path id="rect4158-5" d="m-7.5103968 14.270419c-2.0484708 0-2.2688838-.210404-2.2588448-2.263017v-4.2369748-4.2369828c-.01004-2.0526143.210374-2.2630175 2.2588448-2.2630175h8.48231191c2.04846969 0 2.25884339.2103795 2.25884339 2.2630175v4.2369828 4.2369748c0 2.052638-.2103737 2.263017-2.25884339 2.263017z" fill="url(#linearGradient1694-7)"/>
    <rect id="rect980" fill="#fff" height="6.930072" opacity=".937" ry=".295867" width="9.291685" x="-7.91507" y="1.774598"/>
    <path id="path4" d="m-6.5178951 14.154005v-3.075118c0-.284135.2417658-.51316.5418795-.51316h5.4135767c.3001775 0 .5418789.229025.5418789.51316v3.075118c-5.8291943-.000174-.1781511.0096-6.4973351 0zm4.1777856-.384235h1.390429c.1546373 0 .2793863-.126368.2793863-.284135v-1.99497c0-.157638-.124749-.284135-.2793863-.284135h-1.390429c-.154635 0-.279385.126497-.279385.284135v1.99497c0 .157767.12475.284135.279385.284135z" fill="#666" stroke-width=".645256"/>
    <g fill="#9a9a9a">
      <path id="path11736-0-7-2-2-1-2-7-7-5-5-6" d="m-7.2171181 5.4521068c.0002901.054709.0002901.1092604.0002901.1638847.0000639.023055.0002902.046106.0002902.069164h7.89222352c.00034821-.077659.00086473-.1553848.00086473-.2330848z"/>
      <path id="path11736-0-7-2-2-1-2-7-7-5-5-5" d="m-7.2171181 4.1737784c.0002901.054709.0002901.1092604.0002901.1638847.0000639.023055.0002902.046106.0002902.069164h7.89222352c.00034821-.077659.00086473-.1553848.00086473-.2330848z"/>
      <path id="path11736-0-7-2-2-1-2-7-7-5-5-69" d="m-7.2171181 2.89545c.0002901.054709.0002901.1092604.0002901.1638848.0000639.023055.0002902.046106.0002902.069164h7.89222352c.00034821-.077659.00086473-.1553848.00086473-.2330848z"/>
    </g>
    <path id="path951" d="m-.0192275 1.2704581-9.7500001 9.7499919v.986947c-.01004 2.052614.210388 2.263053 2.2588588 2.263053h8.48228211c2.04847039 0 2.25885909-.210415 2.25885909-2.263053v-4.236939-4.2370604c0-2.052638-.2103887-2.2629395-2.25885909-2.2629395z" fill="#fff" opacity=".05"/>
    <path id="path931-36" d="m-7.5103685 1.2704407c-2.0484711 0-2.2688991.2104392-2.2588591 2.2630528v.1160714c-.01004-2.0526136.210388-2.2630528 2.2588591-2.2630528h8.48228181c2.04847089 0 2.25885909.2104148 2.25885909 2.2630528v-.1160714c0-2.052638-.2103882-2.2630528-2.25885909-2.2630528z" fill="#000" opacity=".2"/>
    <path id="path931-8-0" d="m-7.5100551 14.270432c-2.0484705 0-2.2688995-.210439-2.2588595-2.263052v-.116072c-.01004 2.052614.210389 2.263053 2.2588595 2.263053h8.48228181c2.04847089 0 2.25885909-.210415 2.25885909-2.263053v.116072c0 2.052638-.2103882 2.263052-2.25885909 2.263052z" fill="#fff" opacity=".3"/>
    <path id="path977" d="m209.05078 146.1543v-30.98047c0-.70608-.14115-1.37795-.39844-1.98828s-.63106-1.15841-1.09179-1.61914c-.46074-.46074-1.00882-.83256-1.61914-1.08985-.61033-.25729-1.28221-.40039-1.98829-.40039h-67.86718v36.07813z" fill="#bc1938" transform="matrix(-.05803571 0 0 -.05803571 4.217373 15.093042)"/>
    <path id="path970" d="m-7.890028 6.4967494c.0003408.054709.0003408.1092604.0003408.1638847.0000752.023055.0003411.046106.0003411.069164h9.2732067c.0004092-.077659.00102-.1553848.00102-.2330848z" fill="#535353"/>
    <g id="text1348" fill="#535353" stroke-width=".058036" transform="scale(-1)">
      <path id="path1352" d="m.71511088-8.3064585q-.0533929.060357-.12535713.14625-.0696428.083571-.14857141.1880357-.0789286.1021428-.16249998.2182143-.0835714.1137499-.16482141.2321428-.07892856.1160714-.15089284.2321428-.07196428.1160714-.12999998.2205357h.90535703v.1926786h-1.16767843v-.1508929q.04875-.092857.11374999-.2042857.0673214-.1114285.14160712-.2274999.07660714-.1160715.15785713-.2344643.08124999-.1183928.16017855-.2275.08125-.1091071.15553569-.2042857.0766071-.095179.1392857-.1671428h-.82642847v-.1926786h1.10267844z"/>
      <path id="path1354" d="m1.022156-8.4852085h.2251785v1.6087499h-.2251785z"/>
      <path id="path1356" d="m2.0749963-8.5014585q.3389285 0 .5199999.13.1833929.1276786.1833929.3830357 0 .1392857-.051071.2391071-.04875.0975-.1439285.1601786-.092857.060357-.2275.088214-.1346428.027857-.3041071.027857h-.17875v.5966071h-.225179v-1.5855356q.095179-.023214.21125-.030178.1183928-.00929.2158928-.00929zm.018571.1973215q-.1439285 0-.2205357.00696v.6314285h.1694643q.1160714 0 .2089285-.013928.092857-.01625.1555357-.051071.065-.037143.099822-.099821.034821-.062678.034821-.1601785 0-.092857-.037143-.1532143-.034821-.060357-.0975-.095179-.060357-.037143-.1416071-.051071-.08125-.013929-.1717857-.013929z"/>
    </g>
  </g>
</svg>
