<svg height="256" viewBox="0 0 67.73 67.73" width="256" xmlns="http://www.w3.org/2000/svg" xmlns:xlink="http://www.w3.org/1999/xlink">
  <linearGradient id="linearGradient948" gradientUnits="userSpaceOnUse" x1="-2.976093" x2="-3.125768" y1=".469679" y2="15.664687">
    <stop offset="0" stop-color="#999"/>
    <stop offset=".613" stop-color="#b7b7b7"/>
    <stop offset="1" stop-color="#dbdbdb"/>
  </linearGradient>
  <filter id="filter971" color-interpolation-filters="sRGB" height="1.021231" width="1.0276" x="-.0138" y="-.010615">
    <feGaussianBlur stdDeviation=".058526793"/>
  </filter>
  <filter id="filter1018" color-interpolation-filters="sRGB" height="1.084923" width="1.1104" x="-.0552" y="-.042462">
    <feGaussianBlur stdDeviation=".23410717"/>
  </filter>
  <g fill="#999" transform="matrix(4.55875 0 0 4.55875 49.002477 -2.041427)">
    <g fill="#030000" stroke-width="1.017857">
      <path d="m-5.0839252 1.3183374c-.6697501 0-1.1990358.061071-1.6458751.2290179-.4294715.1541178-.7897375.4566258-1.0158214.8529643-.4234286.7654286-.3766071 1.702875-.391875 2.9833393v5.1015031c.015268 1.280464-.030536 2.21791.391875 2.984357.2106964.382714.57.685018 1.0158214.852964.4458215.166929.9771429.228 1.6458751.228h4.0714287c.66974997 0 1.20005354-.06107 1.64587498-.229018.44683922-.166928.80308922-.469232 1.01378562-.851946.4234286-.766447.3786428-1.703893.3939107-2.984357v-3.7233245l-1.04126797-1.5634286c-.01017861-1.161375.02850007-2.0794822-.36846407-2.7991072-.22626964-.3959559-.58651372-.6980838-1.01582143-.8519464-.44480358-.1679464-.97714293-.2290179-1.64587513-.2290179z" filter="url(#filter1018)" opacity=".1"/>
      <path d="m-5.0839252 1.3183374c-.6697501 0-1.1990358.061071-1.6458751.2290179-.4294715.1541178-.7897375.4566258-1.0158214.8529643-.4234286.7654286-.3766071 1.702875-.391875 2.9833393v5.1015031c.015268 1.280464-.030536 2.21791.391875 2.984357.2106964.382714.57.685018 1.0158214.852964.4458215.166929.9771429.228 1.6458751.228h4.0714287c.66974997 0 1.20005354-.06107 1.64587498-.229018.44683922-.166928.80308922-.469232 1.01378562-.851946.4234286-.766447.3786428-1.703893.3939107-2.984357v-3.7233245l-1.04126797-1.5634286c-.01017861-1.161375.02850007-2.0794822-.36846407-2.7991072-.22626964-.3959559-.58651372-.6980838-1.01582143-.8519464-.44480358-.1679464-.97714293-.2290179-1.64587513-.2290179z" filter="url(#filter971)" opacity=".1"/>
      <path d="m-5.0839252 1.3183374c-.6697501 0-1.1990358.061071-1.6458751.2290179-.4294715.1541178-.7897375.4566258-1.0158214.8529643-.4234286.7654286-.3766071 1.702875-.391875 2.9833393v5.1015031c.015268 1.280464-.030536 2.21791.391875 2.984357.2106964.382714.57.685018 1.0158214.852964.4458215.166929.9771429.228 1.6458751.228h4.0714287c.66974997 0 1.20005354-.06107 1.64587498-.229018.44683922-.166928.80308922-.469232 1.01378562-.851946.4234286-.766447.3786428-1.703893.3939107-2.984357v-3.7233245l-1.04126797-1.5634286c-.01017861-1.161375.02850007-2.0794822-.36846407-2.7991072-.22626964-.3959559-.58651372-.6980838-1.01582143-.8519464-.44480358-.1679464-.97714293-.2290179-1.64587513-.2290179z" opacity=".1"/>
    </g>
    <path d="m-5.0214252 1.4344112c-.658 0-1.178.06-1.617.225-.4219369.151414-.7758825.4486148-.998.838-.416.752-.37 1.673-.385 2.931v5.0119998c.015 1.258-.03 2.179.385 2.932.207.376.56.673.998.838.438.164.96.224 1.617.224h4c.65799992 0 1.17899992-.06 1.61699992-.225.43900008-.164.78900008-.461.99600008-.837.416-.753.372-1.674.387-2.932v-3.6579998l-1.02300008-1.536c-.01-1.141.028-2.043-.362-2.75-.2223-.3890093-.576224-.6858367-.998-.837-.437-.165-.95999992-.225-1.61699992-.225z" fill="url(#linearGradient948)"/>
  </g>
  <path d="m3.8444766 3.6306275v2h1v-2zm2 0v2h1v-2zm2 0v2h1v-2z" opacity=".6" transform="matrix(4.55875 0 0 4.55875 3.395891 -4.880576)"/>
  <path d="m3.8444766 3.6306275v2h1v-2zm2 0v2h1v-2zm2 0v2h1v-2z" fill="#e7e7e7" transform="matrix(4.55875 0 0 4.55875 3.395891 -5.521265)"/>
  <path d="m47.035156 169.84766v2c.258462 21.6763-.517956 37.54476 6.632813 50.51953 3.566769 6.47877 9.650188 11.59637 17.197265 14.43945 7.547077 2.82585 16.540713 3.85938 27.861328 3.85938h68.923828c11.33785 0 20.31425-1.03388 27.86133-3.87696 7.56431-2.82584 13.59534-7.9431 17.16211-14.42187 7.168-12.97477 6.40951-28.84323 6.66797-50.51953v-2c-.25846 21.6763.50003 37.54476-6.66797 50.51953-3.56677 6.47877-9.5978 11.59603-17.16211 14.42187-7.54708 2.84308-16.52348 3.87696-27.86133 3.87696h-68.923828c-11.320615 0-20.314251-1.03353-27.861328-3.85938-7.547077-2.84308-13.630496-7.96068-17.197265-14.43945-7.150769-12.97477-6.374351-28.84323-6.632813-50.51953z" opacity=".2" stroke-width="17.23077" transform="matrix(.26457029296 0 0 .26457029296 -.00928186 .088130485)"/>
</svg>
