<svg id="svg254" height="256" viewBox="0 0 67.73 67.73" width="256" xmlns="http://www.w3.org/2000/svg" xmlns:xlink="http://www.w3.org/1999/xlink">
  <filter id="filter1718" color-interpolation-filters="sRGB" height="1.173" width="1.028" x="-.01" y="-.09">
    <feGaussianBlur id="feGaussianBlur1720" stdDeviation="1.3"/>
  </filter>
  <linearGradient id="linearGradient3585-3" gradientTransform="matrix(1.2884058 0 0 1.3229166 -2985.9661 -554.06924)" gradientUnits="userSpaceOnUse" x1="2321" x2="2321" y1="464" y2="466">
    <stop id="stop3609" offset="0" stop-color="#8a826a"/>
    <stop id="stop3611" offset="1" stop-color="#a69f8a"/>
  </linearGradient>
  <linearGradient id="linearGradient3601-5" gradientUnits="userSpaceOnUse" x1="33.7923938" x2="33.7923938" xlink:href="#linearGradient3634" y1="53.1494794" y2="61.086979"/>
  <linearGradient id="linearGradient3634">
    <stop id="stop3630" offset="0" stop-color="#746c58"/>
    <stop id="stop3632" offset="1" stop-color="#8a836a"/>
  </linearGradient>
  <linearGradient id="linearGradient3593-3" gradientUnits="userSpaceOnUse" x1="29.823644" x2="29.823644" xlink:href="#linearGradient3634" y1="58.4411458" y2="63.7328122"/>
  <linearGradient id="linearGradient7073-3" gradientUnits="userSpaceOnUse" x1="510.52826" x2="510.52826" y1="202.508738" y2="234.508738">
    <stop id="stop1536" offset="0"/>
    <stop id="stop1538" offset="1" stop-opacity="0"/>
  </linearGradient>
  <linearGradient id="linearGradient1041-3" gradientTransform="matrix(.97222223 0 0 .98333334 362.75048 17.108738)" gradientUnits="userSpaceOnUse" x1="112" x2="192" y1="36" y2="276">
    <stop id="stop4340" offset="0" stop-color="#f2f2f2"/>
    <stop id="stop4342" offset="1" stop-color="#f9f9f9"/>
  </linearGradient>
  <linearGradient id="linearGradient1945-3" gradientTransform="matrix(0 1.9999999 -1 0 350.52826 -133.49123)" gradientUnits="userSpaceOnUse" x1="152" x2="164" y1="-212" y2="-212">
    <stop id="stop6350" offset="0" stop-color="#f22c42"/>
    <stop id="stop6352" offset="1" stop-color="#f77e8b"/>
  </linearGradient>
  <linearGradient id="linearGradient1943-5" gradientTransform="matrix(0 1.9999999 -1 0 350.52826 -133.49123)" gradientUnits="userSpaceOnUse" x1="152" x2="164" y1="-228" y2="-228">
    <stop id="stop6344" offset="0" stop-color="#f34f17"/>
    <stop id="stop6346" offset="1" stop-color="#f8906c"/>
  </linearGradient>
  <linearGradient id="linearGradient1941-6" gradientTransform="matrix(0 1.9999999 -1 0 350.52826 -133.49123)" gradientUnits="userSpaceOnUse" x1="152" x2="164" y1="-244" y2="-244">
    <stop id="stop7383" offset="0" stop-color="#76c22b"/>
    <stop id="stop7385" offset="1" stop-color="#cbe667"/>
  </linearGradient>
  <linearGradient id="linearGradient962-5" gradientUnits="userSpaceOnUse" x1="152" x2="152" y1="76" y2="228">
    <stop id="stop1005-7" offset="0" stop-color="#fff"/>
    <stop id="stop1007-5" offset=".125" stop-color="#fff" stop-opacity=".098039"/>
    <stop id="stop1009-3" offset=".92500001" stop-opacity=".098039"/>
    <stop id="stop1011" offset="1" stop-opacity=".498039"/>
  </linearGradient>
  <clipPath id="clipPath2719">
    <path id="path2721" d="m271.99897 203.00107c0 25.00001-9.78264 24.70848-35 25.00001h-169.99902c-25.21735-.29153-35 0-35-25.00001v-94.00104c0-25.00001 9.78265-24.708475 35-25.00001h169.99902c25.21736.291535 35 0 35 25.00001z"/>
  </clipPath>
  <linearGradient id="linearGradient1331" gradientUnits="userSpaceOnUse" x1="510.52826" x2="510.52826" y1="98.508738" y2="242.508738">
    <stop id="stop23" offset="0" stop-color="#cdcdcd"/>
    <stop id="stop25" offset="1" stop-color="#d9d9d9"/>
  </linearGradient>
  <filter id="filter932-3" color-interpolation-filters="sRGB" height="1.03" width="1.02" x="-.01" y="-.015">
    <feGaussianBlur id="feGaussianBlur934" stdDeviation="1.0000002"/>
  </filter>
  <filter id="filter938-5" color-interpolation-filters="sRGB" height="1.06" width="1.04" x="-.02" y="-.03">
    <feGaussianBlur id="feGaussianBlur940" stdDeviation="2.0000004"/>
  </filter>
  <g id="g1693" transform="translate(0 2.412909)">
    <path id="path216" d="m2152 593c-2.216 0-4 1.784-4 4v16h-12c-2.216 0-4 1.784-4 4h-90c-1.108 0-2 .892-2 2v2 2c0 1.108.892 2 2 2h90c0 2.216 1.784 4 4 4h32c2.216 0 4-1.784 4-4h90c1.108 0 2-.892 2-2v-2-2c0-1.108-.892-2-2-2h-90c0-.831-.2512-1.60203-.6816-2.24023-.7175-1.06368-1.9334-1.75977-3.3184-1.75977h-12v-16c0-2.216-1.784-4-4-4z" filter="url(#filter1718)" opacity=".2" transform="matrix(.26458333 0 0 .26458333 -535.32624 -103.21925)"/>
    <rect id="rect218" fill="url(#linearGradient3585-3)" height="2.117" rx=".529" width="59.266998" x="4.42" y="59.759998"/>
    <rect id="rect220" fill="url(#linearGradient3601-5)" height="7.408" rx="1.058" width="2.117" x="33" y="53.41"/>
    <path id="path222" d="m4.9529199 59.764081c-.2931584 0-.5291667.236009-.5291667.529167v.529167c0-.293159.2360083-.529167.5291667-.529167h58.2083321c.293159 0 .529167.236008.529167.529167v-.529167c0-.293158-.236008-.529167-.529167-.529167z" fill="#fff" opacity=".2"/>
    <rect id="rect224" fill="url(#linearGradient3593-3)" height="4.233" rx="1.058" width="10.583" x="28.77" y="58.709999"/>
    <g fill="#fff">
      <path id="path226" d="m29.823753 58.705748c-.586317 0-1.058333.472017-1.058333 1.058333v.529167c0-.586317.472016-1.058333 1.058333-1.058333h8.466666c.586317 0 1.058334.472016 1.058334 1.058333v-.529167c0-.586316-.472017-1.058333-1.058334-1.058333z" opacity=".2"/>
      <path id="path230" d="m29.823753 58.705748c-.586317 0-1.058333.472017-1.058333 1.058333v.264584c0-.586317.472016-1.058334 1.058333-1.058334h8.466666c.586317 0 1.058334.472017 1.058334 1.058334v-.264584c0-.586316-.472017-1.058333-1.058334-1.058333z" opacity=".8"/>
    </g>
  </g>
  <g id="layer2" enable-background="new" transform="matrix(.26457031 0 0 .26457031 -101.28607614605 -14.51472440747)">
    <path id="path936" d="m630.52723 219.50984c0 25.00001-9.78264 24.70848-35 25.00001h-169.99902c-25.21735-.29153-35 0-35-25.00001v-94.00105c0-25.00001 9.78265-24.70847 35-25.00001h169.99902c25.21736.29154 35 0 35 25.00001z" filter="url(#filter938-5)" opacity=".2"/>
    <path id="path930" d="m630.52723 217.50984c0 25.00001-9.78264 24.70848-35 25.00001h-169.99902c-25.21735-.29153-35 0-35-25.00001v-94.00105c0-25.000022 9.78265-24.708482 35-25.000022h169.99902c25.21736.29154 35 0 35 25.000022z" filter="url(#filter932-3)" opacity=".1"/>
    <path id="path1323" d="m630.52723 217.50984c0 25.00001-9.78264 24.70848-35 25.00001h-169.99902c-25.21735-.29153-35 0-35-25.00001v-94.00105c0-25.000022 9.78265-24.708482 35-25.000022h169.99902c25.21736.29154 35 0 35 25.000022z" fill="url(#linearGradient1331)"/>
    <path id="path1323-5-0" d="m390.52826 186.50877v31.00195c-.00038 25.00001 9.78265 24.70847 35 25h169.99805c25.21736-.29153 35 .00001 35-25v-31.00195z" opacity=".075"/>
    <path id="path1333" clip-path="url(#clipPath2719)" d="m271.99897 203.00107c0 25.00001-9.78264 24.70848-35 25.00001h-169.99902c-25.21735-.29153-35 0-35-25.00001v-94.00104c0-25.000009 9.78265-24.708474 35-25.000009h169.99902c25.21736.291535 35 0 35 25.000009z" fill="none" opacity=".5" stroke="url(#linearGradient962-5)" stroke-width="4" transform="translate(358.52826 14.508738)"/>
    <path id="rect4299" d="m438.52826 106.50876h144c4.432 0 8 0 8 3.75v.5 3.75h-160v-3.75-.5c0-3.75 4-3.75 8-3.75z" fill="#000021" opacity=".3"/>
    <path id="rect4301" d="m422.52826 210.50877h176v8 4c0 4.432-3.568 8-8 8h-160c-4.432 0-8-4-8-8v-4z" fill="#000021" opacity=".3"/>
    <rect id="rect1893-1" fill="url(#linearGradient1941-6)" height="8" rx="4" width="8" x="590.52826" y="170.50862"/>
    <rect id="rect1895-2" fill="url(#linearGradient1943-5)" height="8" rx="4" width="8" x="574.52826" y="170.50862"/>
    <rect id="rect1897-7" fill="url(#linearGradient1945-3)" height="8" rx="4" width="8" x="558.52826" y="170.50862"/>
    <path id="rect1130" d="m390.52826 185.50862h239.99899v1h-239.99899z" fill="#fff" opacity=".2"/>
    <path id="rect1017" d="m448.52826 58.508739c-6 0-10 4-10 10v46.000021h144v-46.000021c0-6-4-10-10-10zm-10 152.000031v62c0 6 4 10 10 10h124c6 0 10-4 10-10v-62z" opacity=".2"/>
    <path id="rect1017-5" d="m448.52826 60.508739c-4.432 0-8 3.568-8 8v46.000021h140v-46.000021c0-4.432-3.568-8-8-8zm-8 150.000031v62c0 4.432 3.568 8 8 8h124c4.432 0 8-3.568 8-8v-62z" fill="url(#linearGradient1041-3)"/>
    <path id="rect2092" d="m438.52826 210.50862h144v2h-144z" opacity=".2"/>
    <path id="path938" d="m562.52826 244.60582h-104v-2h104z" fill="#999" opacity=".6"/>
    <path id="path940" d="m562.52826 228.59175h-104v-2h104z" fill="#999" opacity=".6"/>
    <path id="rect7065" d="m422.52826 210.50877h176v8 4c0 4.432-3.568 8-8 8h-160c-4.432 0-8-3.568-8-8v-4z" fill="url(#linearGradient7073-3)" opacity=".2"/>
    <path id="path950" d="m562.52826 260.61987h-104v-2h104z" fill="#999" opacity=".6"/>
  </g>
</svg>
