<svg height="256" viewBox="0 0 67.73 67.73" width="256" xmlns="http://www.w3.org/2000/svg" xmlns:xlink="http://www.w3.org/1999/xlink"><linearGradient id="a"><stop offset="0"/><stop offset="1" stop-opacity="0"/></linearGradient><linearGradient id="b"><stop offset="0" stop-color="#746c58"/><stop offset="1" stop-color="#8a836a"/></linearGradient><linearGradient id="c" gradientUnits="userSpaceOnUse" x1="508.02826" x2="508.02826" xlink:href="#a" y1="207.388772" y2="239.388772"/><linearGradient id="d" gradientTransform="matrix(.97222223 0 0 .98333334 360.25048 21.988772)" gradientUnits="userSpaceOnUse" x1="112" x2="192" y1="36" y2="276"><stop offset="0" stop-color="#f2f2f2"/><stop offset="1" stop-color="#f9f9f9"/></linearGradient><linearGradient id="e" gradientTransform="matrix(0 1.9999999 -1 0 348.02826 -128.61122)" gradientUnits="userSpaceOnUse" x1="152" x2="164" y1="-212" y2="-212"><stop offset="0" stop-color="#f22c42"/><stop offset="1" stop-color="#f77e8b"/></linearGradient><linearGradient id="f" gradientTransform="matrix(0 1.9999999 -1 0 348.02826 -128.61122)" gradientUnits="userSpaceOnUse" x1="152" x2="164" y1="-228" y2="-228"><stop offset="0" stop-color="#f34f17"/><stop offset="1" stop-color="#f8906c"/></linearGradient><linearGradient id="g" gradientTransform="matrix(0 1.9999999 -1 0 348.02826 -128.61122)" gradientUnits="userSpaceOnUse" x1="152" x2="164" y1="-244" y2="-244"><stop offset="0" stop-color="#76c22b"/><stop offset="1" stop-color="#cbe667"/></linearGradient><clipPath id="h"><path d="m271.99897 203.00107c0 25.00001-9.78264 24.70848-35 25.00001h-169.99902c-25.21735-.29153-35 0-35-25.00001v-94.00104c0-25.00001 9.78265-24.708475 35-25.00001h169.99902c25.21736.291535 35 0 35 25.00001z"/></clipPath><linearGradient id="i" gradientUnits="userSpaceOnUse" x1="508.02826" x2="508.02826" y1="103.388772" y2="247.388772"><stop offset="0" stop-color="#cdcdcd"/><stop offset="1" stop-color="#d9d9d9"/></linearGradient><filter id="j" color-interpolation-filters="sRGB" height="1.03" width="1.02" x="-.01" y="-.015"><feGaussianBlur stdDeviation="1.0000002"/></filter><filter id="k" color-interpolation-filters="sRGB" height="1.06" width="1.04" x="-.02" y="-.03"><feGaussianBlur stdDeviation="2.0000004"/></filter><filter id="l" color-interpolation-filters="sRGB" height="1.173333" width="1.027857" x="-.013929" y="-.086667"><feGaussianBlur stdDeviation="1.3"/></filter><linearGradient id="m" gradientTransform="matrix(4.8695652 0 0 5 -9262.2609 -1704)" gradientUnits="userSpaceOnUse" x1="2321" x2="2321" y1="464" y2="466"><stop offset="0" stop-color="#8a826a"/><stop offset="1" stop-color="#a69f8a"/></linearGradient><linearGradient id="n" gradientUnits="userSpaceOnUse" x1="2151" x2="2151" xlink:href="#b" y1="591" y2="621"/><linearGradient id="o" gradientUnits="userSpaceOnUse" x1="2136" x2="2136" xlink:href="#b" y1="611" y2="631"/><linearGradient id="p" gradientTransform="matrix(1 0 0 3 0 -1224)" gradientUnits="userSpaceOnUse" x1="2148" x2="2148" xlink:href="#a" y1="612" y2="608"/><linearGradient id="q" gradientUnits="userSpaceOnUse" x1="152" x2="152" y1="76" y2="228"><stop offset="0" stop-color="#fff"/><stop offset=".125" stop-color="#fff" stop-opacity=".098039"/><stop offset=".92500001" stop-opacity=".098039"/><stop offset="1" stop-opacity=".498039"/></linearGradient><g enable-background="new" transform="matrix(.26457031 0 0 .26457031 -100.72938 -10.981987)"><g enable-background="new" transform="translate(-1643.9718 -352.61123)"><path d="m2152 593c-2.216 0-4 1.784-4 4v16h-12c-2.216 0-4 1.784-4 4h-90c-1.108 0-2 .892-2 2v2 2c0 1.108.892 2 2 2h90c0 2.216 1.784 4 4 4h32c2.216 0 4-1.784 4-4h90c1.108 0 2-.892 2-2v-2-2c0-1.108-.892-2-2-2h-90c0-.831-.2512-1.60203-.6816-2.24023-.7175-1.06368-1.9334-1.75977-3.3184-1.75977h-12v-16c0-2.216-1.784-4-4-4z" filter="url(#l)" opacity=".2"/><rect fill="url(#m)" height="8" rx="2" width="224" x="2040" y="616"/><rect fill="url(#n)" height="28" rx="4" width="8" x="2148" y="592"/><path d="m2042 616c-1.108 0-2 .892-2 2v2c0-1.108.892-2 2-2h220c1.108 0 2 .892 2 2v-2c0-1.108-.892-2-2-2z" fill="#fff" opacity=".2"/><rect fill="url(#o)" height="16" rx="4" width="40" x="2132" y="612"/><path d="m2136 612c-2.216 0-4 1.784-4 4v2c0-2.216 1.784-4 4-4h32c2.216 0 4 1.784 4 4v-2c0-2.216-1.784-4-4-4z" fill="#fff" opacity=".2"/><path d="m2148 600h8v12h-8z" fill="url(#p)" opacity=".2"/><path d="m2136 612c-2.216 0-4 1.784-4 4v1c0-2.216 1.784-4 4-4h32c2.216 0 4 1.784 4 4v-1c0-2.216-1.784-4-4-4z" fill="#fff" opacity=".8"/></g><path d="m628.02723 224.38985c0 25.00001-9.78264 24.70848-35 25.00001h-169.99902c-25.21735-.29153-35 0-35-25.00001v-94.00104c0-25.00002 9.78265-24.70848 35-25.00002h169.99902c25.21736.29154 35 0 35 25.00002z" filter="url(#k)" opacity=".2"/><path d="m628.02723 222.38985c0 25.00001-9.78264 24.70848-35 25.00001h-169.99902c-25.21735-.29153-35 0-35-25.00001v-94.00104c0-25.00002 9.78265-24.70848 35-25.00002h169.99902c25.21736.29154 35 0 35 25.00002z" filter="url(#j)" opacity=".1"/><path d="m628.02723 222.38985c0 25.00001-9.78264 24.70848-35 25.00001h-169.99902c-25.21735-.29153-35 0-35-25.00001v-94.00104c0-25.00002 9.78265-24.70848 35-25.00002h169.99902c25.21736.29154 35 0 35 25.00002z" fill="url(#i)"/><path d="m388.02826 191.38878v31.00195c-.00038 25.00001 9.78265 24.70847 35 25h169.99805c25.21736-.29153 35 .00001 35-25v-31.00195z" opacity=".075"/><path clip-path="url(#h)" d="m271.99897 203.00107c0 25.00001-9.78264 24.70848-35 25.00001h-169.99902c-25.21735-.29153-35 0-35-25.00001v-94.00104c0-25.000009 9.78265-24.708474 35-25.000009h169.99902c25.21736.291535 35 0 35 25.000009z" fill="none" opacity=".5" stroke="url(#q)" stroke-width="4" transform="translate(356.02826 19.388772)"/><path d="m436.02826 111.38877h144c4.432 0 8 0 8 3.75001v.5 3.75h-160v-3.75-.5c0-3.75001 4-3.75001 8-3.75001z" fill="#000021" opacity=".3"/><path d="m420.02826 215.38878h176v8 4c0 4.432-3.568 8-8 8h-160c-4.432 0-8-4-8-8v-4z" fill="#000021" opacity=".3"/><rect fill="url(#g)" height="8" rx="4" width="8" x="588.02826" y="175.38878"/><rect fill="url(#f)" height="8" rx="4" width="8" x="572.02826" y="175.38878"/><rect fill="url(#e)" height="8" rx="4" width="8" x="556.02826" y="175.38878"/><path d="m388.02826 190.38878h239.99899v1h-239.99899z" fill="#fff" opacity=".2"/><path d="m446.02826 63.388773c-6 0-10 4-10 10v46.000007h144v-46.000007c0-6-4-10-10-10zm-10 152.000007h144z" opacity=".2"/><path d="m446.02826 65.388773c-4.432 0-8 3.568-8 8v46.000007h140v-46.000007c0-4.432-3.568-8-8-8zm-8 150.000007h140z" fill="url(#d)"/><path d="m420.02826 215.38878h176v8 4c0 4.432-3.568 8-8 8h-160c-4.432 0-8-3.568-8-8v-4z" fill="url(#c)" opacity=".2"/></g></svg>