<svg width="256" height="256" viewBox="0 0 256 256" fill="none" xmlns="http://www.w3.org/2000/svg">
<g opacity="0.1" filter="url(#filter0_f)">
<path d="M111.33 10.7728C107.297 10.7728 104.047 13.9032 104.047 17.7984V43.8333L104.045 43.8353C103.525 44.2451 103.017 44.6677 102.52 45.1036L102.518 45.1056C102.022 45.5417 101.538 45.9904 101.067 46.4515C101.051 46.4675 101.036 46.4852 101.02 46.5012C99.2467 48.2439 97.6613 50.1648 96.2857 52.2287C96.213 52.3377 96.1349 52.4429 96.0634 52.5527L96.0614 52.5547C95.7027 53.106 95.3601 53.6674 95.0322 54.2385C94.9281 54.4199 94.8347 54.6079 94.7338 54.7912C94.2295 55.707 93.7605 56.6428 93.3382 57.6042C93.312 57.6639 93.2818 57.7213 93.2559 57.7812C93.2553 57.7826 93.2549 57.7838 93.2539 57.7852C92.9914 58.3924 92.7455 59.0082 92.5171 59.632C92.5165 59.6334 92.5161 59.6346 92.5151 59.636C92.1522 60.6272 91.8476 61.6441 91.5744 62.6737C91.5033 62.942 91.4211 63.2061 91.3562 63.4768C91.3559 63.4781 91.3565 63.4795 91.3562 63.4808C91.1995 64.135 91.0597 64.7953 90.9404 65.4629C90.9402 65.4642 90.9407 65.4656 90.9404 65.4669C90.8213 66.1345 90.7206 66.8087 90.6399 67.4887C90.6398 67.49 90.6401 67.4914 90.6399 67.4927C90.6263 67.6083 90.6216 67.7266 90.6091 67.8426C90.4735 69.0932 90.395 70.361 90.395 71.6476V83.673V148.182V148.184V192.492C90.395 195.22 90.4601 197.789 90.5864 200.206C90.7677 203.675 91.0804 206.821 91.5065 209.696C91.5257 209.826 91.5404 209.966 91.56 210.094C91.5819 210.237 91.6096 210.366 91.6321 210.508C91.895 212.162 92.1982 213.72 92.5398 215.187C92.5749 215.338 92.6047 215.502 92.6406 215.651V215.653C92.8481 216.512 93.0694 217.34 93.3034 218.138C93.359 218.327 93.4233 218.498 93.4804 218.684C94.1445 220.849 94.9002 222.8 95.7549 224.525C96.3736 225.774 97.0401 226.913 97.7514 227.954C98.8181 229.515 99.9867 230.854 101.244 232C102.083 232.765 102.961 233.444 103.877 234.048H103.879C104.337 234.349 104.803 234.632 105.279 234.896H105.281C105.756 235.161 106.241 235.408 106.734 235.638H106.736C107.229 235.868 107.731 236.082 108.24 236.28C113.853 238.461 120.448 238.773 127.519 238.773H133.657C140.729 238.773 147.326 238.775 152.939 236.896C153.448 236.726 153.949 236.54 154.441 236.338L154.443 236.336C154.936 236.133 155.421 235.914 155.897 235.676L155.899 235.674C156.374 235.436 156.841 235.18 157.298 234.904L157.3 234.902C157.757 234.626 158.206 234.331 158.644 234.014L158.646 234.012C159.307 233.533 159.938 232.989 160.554 232.409C160.756 232.22 160.963 232.042 161.159 231.841C161.558 231.433 161.947 231.002 162.324 230.545L162.326 230.543C167.614 224.138 170.782 212.75 170.782 192.494V147.782C170.783 147.781 170.783 147.781 170.784 147.78V84.0764V71.6474C170.784 69.1625 170.524 66.7394 170.031 64.3992C169.908 63.8159 169.771 63.2361 169.619 62.6637C169.619 62.6623 169.617 62.6611 169.617 62.6597C169.465 62.0872 169.301 61.5208 169.121 60.9599C169.12 60.9585 169.119 60.9573 169.119 60.9559C168.939 60.3951 168.745 59.8405 168.538 59.292C168.538 59.2906 168.537 59.2894 168.536 59.288C168.329 58.7395 168.109 58.1972 167.876 57.6618C167.875 57.6604 167.875 57.6592 167.874 57.6578C167.64 57.1224 167.394 56.5929 167.135 56.0713C167.134 56.07 167.134 56.0687 167.133 56.0673C166.873 55.5458 166.602 55.0317 166.318 54.5247C166.317 54.5234 166.317 54.522 166.316 54.5207C166.031 54.0137 165.733 53.5154 165.425 53.0237C165.424 53.0224 165.424 53.021 165.423 53.0197C165.114 52.528 164.793 52.0442 164.461 51.5685C164.46 51.5673 164.46 51.5657 164.459 51.5645C164.127 51.0888 163.783 50.6219 163.428 50.1629C163.427 50.1617 163.427 50.1601 163.426 50.1589C163.071 49.6996 162.706 49.2489 162.329 48.8071L162.327 48.8051C162.268 48.7362 162.205 48.6707 162.146 48.6023C161.824 48.2307 161.499 47.8614 161.162 47.5029C160.764 47.0797 160.353 46.6667 159.935 46.2624C159.516 45.8575 159.087 45.4628 158.649 45.0776C158.648 45.0763 158.646 45.0749 158.645 45.0736C158.206 44.6888 157.76 44.3147 157.303 43.9503L157.301 43.9483C155.928 42.8547 154.47 41.8545 152.941 40.9584C150.9 39.7618 148.729 38.7515 146.451 37.9486L146.449 37.9466C142.465 36.5423 138.158 35.7757 133.659 35.7757H127.521C124.903 35.7757 122.356 36.0456 119.893 36.539V17.7984C119.893 13.9032 116.644 10.7728 112.611 10.7728H111.33Z" fill="black"/>
</g>
<g opacity="0.1" filter="url(#filter1_f)">
<path d="M111.33 10.7728C107.297 10.7728 104.047 13.9032 104.047 17.7984V43.8333L104.045 43.8353C103.525 44.2451 103.017 44.6677 102.52 45.1036L102.518 45.1056C102.022 45.5417 101.538 45.9904 101.067 46.4515C101.051 46.4675 101.036 46.4852 101.02 46.5012C99.2467 48.2439 97.6613 50.1648 96.2857 52.2287C96.213 52.3377 96.1349 52.4429 96.0634 52.5527L96.0614 52.5547C95.7027 53.106 95.3601 53.6674 95.0322 54.2385C94.9281 54.4199 94.8347 54.6079 94.7338 54.7912C94.2295 55.707 93.7605 56.6428 93.3382 57.6042C93.312 57.6639 93.2818 57.7213 93.2559 57.7812C93.2553 57.7826 93.2549 57.7838 93.2539 57.7852C92.9914 58.3924 92.7455 59.0082 92.5171 59.632C92.5165 59.6334 92.5161 59.6346 92.5151 59.636C92.1522 60.6272 91.8476 61.6441 91.5744 62.6737C91.5033 62.942 91.4211 63.2061 91.3562 63.4768C91.3559 63.4781 91.3565 63.4795 91.3562 63.4808C91.1995 64.135 91.0597 64.7953 90.9404 65.4629C90.9402 65.4642 90.9407 65.4656 90.9404 65.4669C90.8213 66.1345 90.7206 66.8087 90.6399 67.4887C90.6398 67.49 90.6401 67.4914 90.6399 67.4927C90.6263 67.6083 90.6216 67.7266 90.6091 67.8426C90.4735 69.0932 90.395 70.361 90.395 71.6476V83.673V148.182V148.184V192.492C90.395 195.22 90.4601 197.789 90.5864 200.206C90.7677 203.675 91.0804 206.821 91.5065 209.696C91.5257 209.826 91.5404 209.966 91.56 210.094C91.5819 210.237 91.6096 210.366 91.6321 210.508C91.895 212.162 92.1982 213.72 92.5398 215.187C92.5749 215.338 92.6047 215.502 92.6406 215.651V215.653C92.8481 216.512 93.0694 217.34 93.3034 218.138C93.359 218.327 93.4233 218.498 93.4804 218.684C94.1445 220.849 94.9002 222.8 95.7549 224.525C96.3736 225.774 97.0401 226.913 97.7514 227.954C98.8181 229.515 99.9867 230.854 101.244 232C102.083 232.765 102.961 233.444 103.877 234.048H103.879C104.337 234.349 104.803 234.632 105.279 234.896H105.281C105.756 235.161 106.241 235.408 106.734 235.638H106.736C107.229 235.868 107.731 236.082 108.24 236.28C113.853 238.461 120.448 238.773 127.519 238.773H133.657C140.729 238.773 147.326 238.775 152.939 236.896C153.448 236.726 153.949 236.54 154.441 236.338L154.443 236.336C154.936 236.133 155.421 235.914 155.897 235.676L155.899 235.674C156.374 235.436 156.841 235.18 157.298 234.904L157.3 234.902C157.757 234.626 158.206 234.331 158.644 234.014L158.646 234.012C159.307 233.533 159.938 232.989 160.554 232.409C160.756 232.22 160.963 232.042 161.159 231.841C161.558 231.433 161.947 231.002 162.324 230.545L162.326 230.543C167.614 224.138 170.782 212.75 170.782 192.494V147.782C170.783 147.781 170.783 147.781 170.784 147.78V84.0764V71.6474C170.784 69.1625 170.524 66.7394 170.031 64.3992C169.908 63.8159 169.771 63.2361 169.619 62.6637C169.619 62.6623 169.617 62.6611 169.617 62.6597C169.465 62.0872 169.301 61.5208 169.121 60.9599C169.12 60.9585 169.119 60.9573 169.119 60.9559C168.939 60.3951 168.745 59.8405 168.538 59.292C168.538 59.2906 168.537 59.2894 168.536 59.288C168.329 58.7395 168.109 58.1972 167.876 57.6618C167.875 57.6604 167.875 57.6592 167.874 57.6578C167.64 57.1224 167.394 56.5929 167.135 56.0713C167.134 56.07 167.134 56.0687 167.133 56.0673C166.873 55.5458 166.602 55.0317 166.318 54.5247C166.317 54.5234 166.317 54.522 166.316 54.5207C166.031 54.0137 165.733 53.5154 165.425 53.0237C165.424 53.0224 165.424 53.021 165.423 53.0197C165.114 52.528 164.793 52.0442 164.461 51.5685C164.46 51.5673 164.46 51.5657 164.459 51.5645C164.127 51.0888 163.783 50.6219 163.428 50.1629C163.427 50.1617 163.427 50.1601 163.426 50.1589C163.071 49.6996 162.706 49.2489 162.329 48.8071L162.327 48.8051C162.268 48.7362 162.205 48.6707 162.146 48.6023C161.824 48.2307 161.499 47.8614 161.162 47.5029C160.764 47.0797 160.353 46.6667 159.935 46.2624C159.516 45.8575 159.087 45.4628 158.649 45.0776C158.648 45.0763 158.646 45.0749 158.645 45.0736C158.206 44.6888 157.76 44.3147 157.303 43.9503L157.301 43.9483C155.928 42.8547 154.47 41.8545 152.941 40.9584C150.9 39.7618 148.729 38.7515 146.451 37.9486L146.449 37.9466C142.465 36.5423 138.158 35.7757 133.659 35.7757H127.521C124.903 35.7757 122.356 36.0456 119.893 36.539V17.7984C119.893 13.9032 116.644 10.7728 112.611 10.7728H111.33Z" fill="black"/>
</g>
<path opacity="0.1" d="M111.33 10.7728C107.297 10.7728 104.047 13.9032 104.047 17.7984V43.8333L104.045 43.8353C103.525 44.2451 103.017 44.6677 102.52 45.1036L102.518 45.1056C102.022 45.5417 101.538 45.9904 101.067 46.4515C101.051 46.4675 101.036 46.4852 101.02 46.5012C99.2467 48.2439 97.6613 50.1648 96.2857 52.2287C96.213 52.3377 96.1349 52.4429 96.0634 52.5527L96.0614 52.5547C95.7027 53.106 95.3601 53.6674 95.0322 54.2385C94.9281 54.4199 94.8347 54.6079 94.7338 54.7912C94.2295 55.707 93.7605 56.6428 93.3382 57.6042C93.312 57.6639 93.2818 57.7213 93.2559 57.7812C93.2553 57.7826 93.2549 57.7838 93.2539 57.7852C92.9914 58.3924 92.7455 59.0082 92.5171 59.632C92.5165 59.6334 92.5161 59.6346 92.5151 59.636C92.1522 60.6272 91.8476 61.6441 91.5744 62.6737C91.5033 62.942 91.4211 63.2061 91.3562 63.4768C91.3559 63.4781 91.3565 63.4795 91.3562 63.4808C91.1995 64.135 91.0597 64.7953 90.9404 65.4629C90.9402 65.4642 90.9407 65.4656 90.9404 65.4669C90.8213 66.1345 90.7206 66.8087 90.6399 67.4887C90.6398 67.49 90.6401 67.4914 90.6399 67.4927C90.6263 67.6083 90.6216 67.7266 90.6091 67.8426C90.4735 69.0932 90.395 70.361 90.395 71.6476V83.673V148.182V148.184V192.492C90.395 195.22 90.4601 197.789 90.5864 200.206C90.7677 203.675 91.0804 206.821 91.5065 209.696C91.5257 209.826 91.5404 209.966 91.56 210.094C91.5819 210.237 91.6096 210.366 91.6321 210.508C91.895 212.162 92.1982 213.72 92.5398 215.187C92.5749 215.338 92.6047 215.502 92.6406 215.651V215.653C92.8481 216.512 93.0694 217.34 93.3034 218.138C93.359 218.327 93.4233 218.498 93.4804 218.684C94.1445 220.849 94.9002 222.8 95.7549 224.525C96.3736 225.774 97.0401 226.913 97.7514 227.954C98.8181 229.515 99.9867 230.854 101.244 232C102.083 232.765 102.961 233.444 103.877 234.048H103.879C104.337 234.349 104.803 234.632 105.279 234.896H105.281C105.756 235.161 106.241 235.408 106.734 235.638H106.736C107.229 235.868 107.731 236.082 108.24 236.28C113.853 238.461 120.448 238.773 127.519 238.773H133.657C140.729 238.773 147.326 238.775 152.939 236.896C153.448 236.726 153.949 236.54 154.441 236.338L154.443 236.336C154.936 236.133 155.421 235.914 155.897 235.676L155.899 235.674C156.374 235.436 156.841 235.18 157.298 234.904L157.3 234.902C157.757 234.626 158.206 234.331 158.644 234.014L158.646 234.012C159.307 233.533 159.938 232.989 160.554 232.409C160.756 232.22 160.963 232.042 161.159 231.841C161.558 231.433 161.947 231.002 162.324 230.545L162.326 230.543C167.614 224.138 170.782 212.75 170.782 192.494V147.782C170.783 147.781 170.783 147.781 170.784 147.78V84.0764V71.6474C170.784 69.1625 170.524 66.7394 170.031 64.3992C169.908 63.8159 169.771 63.2361 169.619 62.6637C169.619 62.6623 169.617 62.6611 169.617 62.6597C169.465 62.0872 169.301 61.5208 169.121 60.9599C169.12 60.9585 169.119 60.9573 169.119 60.9559C168.939 60.3951 168.745 59.8405 168.538 59.292C168.538 59.2906 168.537 59.2894 168.536 59.288C168.329 58.7395 168.109 58.1972 167.876 57.6618C167.875 57.6604 167.875 57.6592 167.874 57.6578C167.64 57.1224 167.394 56.5929 167.135 56.0713C167.134 56.07 167.134 56.0687 167.133 56.0673C166.873 55.5458 166.602 55.0317 166.318 54.5247C166.317 54.5234 166.317 54.522 166.316 54.5207C166.031 54.0137 165.733 53.5154 165.425 53.0237C165.424 53.0224 165.424 53.021 165.423 53.0197C165.114 52.528 164.793 52.0442 164.461 51.5685C164.46 51.5673 164.46 51.5657 164.459 51.5645C164.127 51.0888 163.783 50.6219 163.428 50.1629C163.427 50.1617 163.427 50.1601 163.426 50.1589C163.071 49.6996 162.706 49.2489 162.329 48.8071L162.327 48.8051C162.268 48.7362 162.205 48.6707 162.146 48.6023C161.824 48.2307 161.499 47.8614 161.162 47.5029C160.764 47.0797 160.353 46.6667 159.935 46.2624C159.516 45.8575 159.087 45.4628 158.649 45.0776C158.648 45.0763 158.646 45.0749 158.645 45.0736C158.206 44.6888 157.76 44.3147 157.303 43.9503L157.301 43.9483C155.928 42.8547 154.47 41.8545 152.941 40.9584C150.9 39.7618 148.729 38.7515 146.451 37.9486L146.449 37.9466C142.465 36.5423 138.158 35.7757 133.659 35.7757H127.521C124.903 35.7757 122.356 36.0456 119.893 36.539V17.7984C119.893 13.9032 116.644 10.7728 112.611 10.7728H111.33Z" fill="black"/>
<path d="M120.447 37.47C118.11 37.9549 111.477 39.5907 105.412 44.6336C97.4991 51.0837 92.4583 60.9059 92.4583 71.9561V190.686C92.4583 233.57 108.168 236.151 127.686 236.151H133.509C153.028 236.151 168.737 236.173 168.737 190.686V71.9561C168.737 52.4373 153.027 36.718 133.509 36.718H127.686C125.2 36.718 122.783 36.9832 120.446 37.4682L120.447 37.47Z" fill="#9A9996"/>
<path d="M127.686 36.7229C125.2 36.7229 122.784 36.988 120.446 37.4729C118.109 37.958 111.476 39.5938 105.411 44.6364C97.498 51.0868 92.4572 60.909 92.4572 71.9591V83.7749C93.5768 82.5822 94.7748 81.4592 96.0139 80.3783V74.2262C96.0139 55.0661 111.442 39.638 130.602 39.638C149.762 39.638 165.182 55.0661 165.182 74.2262V80.6988C166.423 81.8035 167.62 82.953 168.739 84.171V71.9591C168.739 52.4404 153.029 36.7211 133.511 36.7211H127.688L127.686 36.7229ZM168.738 146.757C167.622 147.974 166.421 149.118 165.182 150.221V155.506C165.182 215.412 166.559 231.846 130.602 231.846C94.8458 231.846 95.7789 214.834 96.0135 155.506V150.542C94.7766 149.462 93.5752 148.345 92.4568 147.154V190.685C92.4568 233.568 108.167 236.153 127.684 236.153H133.508C153.027 236.153 168.735 236.173 168.735 190.685V146.757H168.738Z" fill="#3D3846"/>
<path d="M130.601 39.6221C111.441 39.6221 96.0132 55.0502 96.0132 74.2101V80.6874C100.819 76.4953 106.709 72.7366 112.95 70.531C111.82 68.5751 110.947 66.5198 110.947 64.2315C110.947 55.6721 119.755 48.1848 130.601 48.1848C141.448 48.1848 150.247 55.6721 150.247 64.2315C150.247 66.5607 149.352 68.6895 148.184 70.6725C154.465 72.9374 160.31 76.7301 165.116 81.0077L165.181 74.2101C165.181 55.0502 149.761 39.6221 130.601 39.6221H130.601Z" fill="url(#paint0_linear)"/>
<path d="M130.601 39.6221C111.441 39.6221 96.0132 55.0502 96.0132 74.2101V80.6874C100.819 76.4953 106.709 72.7366 112.95 70.531C111.82 68.5751 110.947 66.5198 110.947 64.2315C110.947 55.6721 119.755 48.1848 130.601 48.1848C141.448 48.1848 150.247 55.6721 150.247 64.2315C150.247 66.5607 149.352 68.6895 148.184 70.6725C154.465 72.9374 160.31 76.4855 165.197 80.7088L165.181 74.2101C165.181 55.0502 149.761 39.6221 130.601 39.6221H130.601Z" fill="#77767B"/>
<path d="M113.004 70.5451C106.647 72.7492 100.894 76.1227 96.0132 80.3805V150.544C102.75 156.424 111.157 160.606 120.505 162.368C121.373 157.573 125.549 153.932 130.593 153.932C135.616 153.932 139.789 157.543 140.681 162.309C150.055 160.475 158.47 156.2 165.181 150.224V80.7023C160.302 76.3599 154.526 72.9115 148.131 70.6479C144.894 75.7071 138.26 79.1852 130.593 79.1852C122.875 79.1852 116.217 75.6592 113.004 70.5467L113.004 70.5451Z" fill="#E2E4D2"/>
<path d="M113.004 70.5451C106.647 72.7492 100.894 76.1227 96.0132 80.3805V150.544C102.75 156.424 111.157 160.606 120.505 162.368C121.373 157.573 125.549 153.932 130.593 153.932C135.616 153.932 139.789 157.543 140.681 162.309C150.055 160.475 158.47 156.2 165.181 150.224V80.7023C160.302 76.3599 154.526 72.9115 148.131 70.6479C144.894 75.7071 138.26 79.1852 130.593 79.1852C122.875 79.1852 116.217 75.6592 113.004 70.5467L113.004 70.5451ZM130.315 92.1458C138.338 92.1751 146.45 92.8485 155.118 94.0759C156.979 94.4337 159.358 96.0088 159.358 98.4162V130.847C159.358 133.254 156.91 134.873 155.118 135.196C137.98 137.625 121.836 137.422 106.077 135.196C104.359 134.751 101.838 133.254 101.838 130.847V98.4162C101.838 96.0088 103.732 94.5202 106.077 94.0759C114.367 92.731 122.293 92.1165 130.316 92.1458H130.315ZM107.829 144.499H122.081C124.016 144.499 125.57 146.052 125.57 147.988C125.57 149.924 124.016 151.485 122.081 151.485H107.829C105.894 151.485 104.34 149.924 104.34 147.988C104.34 146.052 105.893 144.499 107.829 144.499ZM139.165 144.499H153.315C155.251 144.499 156.813 146.052 156.813 147.988C156.813 149.924 155.251 151.485 153.315 151.485H139.165C137.229 151.485 135.667 149.924 135.667 147.988C135.667 146.052 137.229 144.499 139.165 144.499Z" fill="#DEDDDA"/>
<path d="M165.181 80.699V150.22C166.42 149.117 167.621 147.973 168.738 146.756V84.1716C167.62 82.9534 166.423 81.8041 165.181 80.6992V80.699Z" fill="#C0BFBC"/>
<path d="M96.0131 150.541V80.3781C94.774 81.459 93.5762 82.5818 92.4564 83.7745V147.152C93.5746 148.344 94.776 149.461 96.0131 150.54V150.541Z" fill="#C0BFBC"/>
<path d="M130.315 92.1448C122.292 92.1155 114.366 92.73 106.077 94.0746C103.732 94.5192 101.837 96.0075 101.837 98.4151V130.846C101.837 133.253 104.359 134.75 106.077 135.195C121.835 137.421 137.981 137.623 155.118 135.195C156.91 134.872 159.357 133.253 159.357 130.846V98.4151C159.357 96.0077 156.978 94.4326 155.118 94.0746C146.45 92.8475 138.338 92.1741 130.314 92.1448H130.315ZM130.332 93.9315C137.912 93.9586 145.582 94.5805 153.77 95.7098C155.528 96.0391 157.765 97.4894 157.765 99.7044V129.549C157.765 131.764 155.463 133.247 153.77 133.543C137.579 135.778 122.313 135.592 107.426 133.543C105.803 133.134 103.431 131.764 103.431 129.549V99.7044C103.431 97.4892 105.211 96.1185 107.426 95.7098C115.257 94.4725 122.754 93.9044 130.333 93.9315H130.332Z" fill="#F6F5F4"/>
<path d="M107.429 95.7047C123.091 93.2301 137.389 93.4462 153.765 95.7047C155.523 96.034 157.764 97.488 157.764 99.7033V129.545C157.764 131.76 155.458 133.247 153.765 133.544C137.574 135.779 122.316 135.592 107.429 133.544C105.806 133.135 103.43 131.76 103.43 129.545V99.7033C103.43 97.4882 105.214 96.1138 107.429 95.7047Z" fill="#FDA463"/>
<g opacity="0.7">
<path opacity="0.7" d="M107.266 101.566H109.555V105.727H107.266V101.566Z" fill="#444444"/>
<path opacity="0.7" d="M107.266 106.82H108.931V110.981H107.266V106.82Z" fill="#444444"/>
<path opacity="0.7" d="M107.266 112.074H108.567V116.236H107.266V112.074Z" fill="#444444"/>
<path opacity="0.7" d="M107.266 117.328H108.099V120.605H107.266V117.328Z" fill="#444444"/>
<path opacity="0.7" d="M153.669 101.566H151.38V105.727H153.669V101.566Z" fill="#444444"/>
<path opacity="0.7" d="M153.669 106.82H152.004V110.981H153.669V106.82Z" fill="#444444"/>
<path opacity="0.7" d="M153.669 112.074H152.368V116.236H153.669V112.074Z" fill="#444444"/>
<path opacity="0.7" d="M153.669 117.328H152.836V120.605H153.669V117.328Z" fill="#444444"/>
<path opacity="0.7" fill-rule="evenodd" clip-rule="evenodd" d="M152.212 121.906H152.68V122.374H152.967V122.686H153.617V125.781H151.276V122.686H151.952V122.374H152.212V121.906ZM151.692 123.102V125.365H153.201V123.102H151.692Z" fill="#444444"/>
<path opacity="0.7" fill-rule="evenodd" clip-rule="evenodd" d="M110.18 121.49H106.954V122.712H107.318V123.284H108.333V125.313H108.801V123.284H109.763V122.712H110.18V121.49ZM108.801 122.868H109.347V122.296H109.763V121.906H108.801V122.868ZM108.333 121.906H107.37V122.296H107.735V122.868H108.333V121.906Z" fill="#444444"/>
<path opacity="0.7" d="M126.072 129.631H125.5V130.203H124.927V129.631H124.355V131.347H123.211V127.342H123.783V127.914H124.355V128.486H124.927V129.059H125.5V128.486H126.072V127.914H126.644V127.342H127.216V131.347H126.072V129.631Z" fill="#444444"/>
<path opacity="0.7" d="M128.933 129.631H129.505V129.059H128.933V129.631ZM130.65 129.059V130.203H128.933V130.775H130.65V131.347H128.361V130.775H127.789V129.059H128.361V128.486H130.077V129.059H130.65Z" fill="#444444"/>
<path opacity="0.7" d="M134.083 129.059V131.347H132.939V129.059H132.366V131.347H131.222V128.486H133.511V129.059H134.083Z" fill="#444444"/>
<path opacity="0.7" d="M135.227 130.775H134.655V128.486H135.8V130.775H136.372V128.486H137.516V131.347H135.227V130.775Z" fill="#444444"/>
<path opacity="0.7" d="M115.668 109.525V110.981H114.211V106.612H114.939V105.883H117.124V106.612H117.853V110.981H116.396V109.525H115.668ZM115.668 106.612V108.797H116.396V106.612H115.668Z" fill="#444444"/>
<path opacity="0.7" d="M120.766 108.068H120.037V110.253H120.766V108.068ZM119.309 110.981V110.253H118.581V108.068H119.309V107.34H120.766V105.883H122.222V110.981H119.309Z" fill="#444444"/>
<path opacity="0.7" d="M125.135 110.253V108.068H124.407V110.253H125.135ZM123.679 110.981V110.253H122.951V108.068H123.679V107.34H125.864V108.068H126.592V110.253H125.864V110.981H123.679Z" fill="#444444"/>
<path opacity="0.7" d="M127.32 110.981V107.34H128.777V108.068H129.505V107.34H130.233V108.797H128.777V110.981H127.32Z" fill="#444444"/>
<path opacity="0.7" d="M133.147 110.253V108.068H132.418V110.253H133.147ZM131.69 110.981V110.253H130.962V108.068H131.69V107.34H133.875V108.068H134.603V110.253H133.875V110.981H131.69Z" fill="#444444"/>
<path opacity="0.7" d="M138.973 109.525H139.701V108.068H138.973V109.525ZM138.245 110.981H139.701V110.253H138.245V109.525H137.516V108.068H138.245V107.34H141.158V110.981H140.429V111.71H138.245V110.981Z" fill="#444444"/>
<path opacity="0.7" d="M141.886 105.883H143.343V110.981H141.886V105.883Z" fill="#444444"/>
<path opacity="0.7" d="M145.528 106.612H144.071V105.883H145.528V106.612ZM144.071 110.981V107.34H145.528V110.981H144.071Z" fill="#444444"/>
<path opacity="0.7" d="M117.853 118.16H118.581V117.432H117.853V118.16ZM120.037 115.975V118.889H117.124V118.16H116.396V117.432H117.124V116.704H118.581V115.975H117.124V115.247H119.309V115.975H120.037Z" fill="#444444"/>
<path opacity="0.7" d="M124.407 115.975V118.889H122.951V115.975H122.222V118.889H120.766V115.247H123.679V115.975H124.407Z" fill="#444444"/>
<path opacity="0.7" d="M128.777 115.975V118.889H127.32V115.975H126.592V118.889H125.135V115.247H128.049V115.975H128.777Z" fill="#444444"/>
<path opacity="0.7" d="M130.962 114.519H129.505V113.791H130.962V114.519ZM129.505 118.889V115.247H130.962V118.889H129.505Z" fill="#444444"/>
<path opacity="0.7" d="M133.875 113.791H134.603V115.247H133.875V113.791Z" fill="#444444"/>
<path opacity="0.7" d="M136.788 116.704H137.516V114.519H136.788V116.704ZM136.06 118.889V118.16H137.516V117.432H136.06V116.704H135.331V114.519H136.06V113.791H138.245V114.519H138.973V118.16H138.245V118.889H136.06Z" fill="#444444"/>
<path opacity="0.7" d="M141.886 118.16V114.519H141.158V118.16H141.886ZM140.43 118.889V118.16H139.701V114.519H140.43V113.791H142.614V114.519H143.343V118.16H142.614V118.889H140.43Z" fill="#444444"/>
</g>
<path d="M142.567 63.6927C142.567 66.8676 141.306 69.9126 139.06 72.1577C136.815 74.4025 133.771 75.6639 130.596 75.6639C127.421 75.6639 124.376 74.4025 122.131 72.1577C119.886 69.9126 118.625 66.8676 118.625 63.6927C118.625 60.5178 119.886 57.4728 122.131 55.2277C124.376 52.9829 127.421 51.7215 130.596 51.7215C133.771 51.7215 136.815 52.9829 139.06 55.2277C141.306 57.4728 142.567 60.5178 142.567 63.6927V63.6927Z" fill="#3D3846"/>
<path d="M128.083 73.0803C125.593 72.413 123.471 70.7841 122.182 68.5517C120.893 66.3192 120.543 63.6662 121.211 61.1762C121.878 58.6863 123.507 56.5634 125.739 55.2746C127.972 53.9856 130.625 53.6363 133.115 54.3034C135.605 54.9707 137.728 56.5996 139.016 58.8321C140.305 61.0646 140.655 63.7175 139.987 66.2076C139.32 68.6975 137.691 70.8204 135.459 72.1092C133.226 73.3982 130.573 73.7474 128.083 73.0803V73.0803Z" fill="#9A9996"/>
<path d="M119.719 68.6735C117.405 69.1439 115.162 69.7867 112.977 70.5445C116.19 75.658 122.856 79.1829 130.574 79.1829C138.24 79.1829 144.867 75.7034 148.104 70.6455C145.929 69.8755 143.693 69.2163 141.387 68.7323C139.477 72.8083 135.362 75.6517 130.566 75.6517C125.745 75.6517 121.616 72.7826 119.719 68.6732V68.6735Z" fill="#C0BFBC"/>
<path d="M130.601 48.1848C119.755 48.1848 110.947 55.1327 110.947 63.6921C110.947 66.1535 111.691 68.4763 112.987 70.5441C115.169 69.7875 117.409 69.1428 119.721 68.673C119.974 69.2218 118.625 66.1148 118.625 63.6921C118.625 57.0841 123.993 51.7244 130.601 51.7244C137.209 51.7244 142.569 57.0841 142.569 63.6921C142.569 65.5016 142.134 67.2024 141.414 68.7404L148.106 70.6451C149.39 68.447 150.152 66.0415 150.246 63.6921C150.246 55.1327 141.447 48.1848 130.601 48.1848H130.601Z" fill="#9A9996"/>
<path d="M120.447 37.47V19.055C120.447 15.2281 117.363 12.1525 113.536 12.1525H112.323C108.496 12.1525 105.412 15.2281 105.412 19.055V44.6338C109.695 41.142 114.821 38.6375 120.447 37.4702" fill="#77767B"/>
<path d="M107.57 19.0581V43.0774C108.273 42.5872 108.987 42.1172 109.727 41.6784V19.0579C109.727 15.7447 110.633 14.4488 112.965 12.7441C110.848 12.7704 107.57 15.3867 107.57 19.0579V19.0581Z" fill="white" fill-opacity="0.23684"/>
<path d="M154.313 216.982C154.313 217.962 153.671 218.898 152.529 219.591C151.387 220.283 149.838 220.672 148.223 220.672C146.608 220.672 145.059 220.283 143.917 219.591C142.775 218.898 142.133 217.962 142.133 216.982C142.133 216.003 142.775 215.066 143.917 214.374C145.059 213.681 146.608 213.292 148.223 213.292C149.838 213.292 151.387 213.681 152.529 214.374C153.671 215.066 154.313 216.003 154.313 216.982Z" fill="#241F31"/>
<path d="M137.837 217.697C137.837 218.86 137.074 219.976 135.716 220.798C134.358 221.621 132.517 222.083 130.596 222.083C128.676 222.083 126.834 221.621 125.477 220.798C124.119 219.976 123.356 218.86 123.356 217.697C123.356 216.534 124.119 215.418 125.477 214.596C126.834 213.773 128.676 213.311 130.596 213.311C132.517 213.311 134.358 213.773 135.716 214.596C137.074 215.418 137.837 216.534 137.837 217.697Z" fill="#241F31"/>
<path d="M153.842 216.982C153.842 217.837 153.25 218.658 152.197 219.261C151.143 219.866 149.714 220.206 148.225 220.206C146.735 220.206 145.306 219.866 144.253 219.261C143.199 218.658 142.607 217.837 142.607 216.982C142.607 216.129 143.199 215.308 144.253 214.706C145.306 214.101 146.735 213.761 148.225 213.761C149.714 213.761 151.143 214.101 152.197 214.706C153.25 215.308 153.842 216.129 153.842 216.982Z" fill="#5E5C64"/>
<path d="M137.275 217.699C137.275 218.715 136.572 219.689 135.319 220.407C134.067 221.126 132.368 221.529 130.597 221.529C128.826 221.529 127.127 221.126 125.875 220.407C124.622 219.689 123.919 218.715 123.919 217.699C123.919 216.683 124.622 215.707 125.875 214.989C127.127 214.272 128.826 213.867 130.597 213.867C132.368 213.867 134.067 214.272 135.319 214.989C136.572 215.707 137.275 216.683 137.275 217.699Z" fill="#5E5C64"/>
<path d="M119.134 216.98C119.134 217.958 118.493 218.896 117.351 219.589C116.209 220.281 114.66 220.668 113.044 220.668C111.429 220.668 109.88 220.281 108.738 219.589C107.596 218.896 106.954 217.958 106.954 216.98C106.954 216.001 107.596 215.062 108.738 214.372C109.88 213.679 111.429 213.29 113.044 213.29C114.66 213.29 116.209 213.679 117.351 214.372C118.493 215.062 119.134 216.001 119.134 216.98Z" fill="#241F31"/>
<path fill-rule="evenodd" clip-rule="evenodd" d="M118.501 216.98C118.501 218.707 116.056 220.11 113.044 220.11C110.032 220.11 107.587 218.707 107.587 216.98C107.587 215.251 110.032 213.85 113.044 213.85C116.056 213.85 118.501 215.251 118.501 216.98Z" fill="#5E5C64"/>
<path d="M118.697 204.837C118.697 206 117.934 207.116 116.576 207.939C115.218 208.761 113.377 209.224 111.456 209.224C109.536 209.224 107.694 208.761 106.337 207.939C104.979 207.116 104.216 206 104.216 204.837C104.216 203.673 104.979 202.557 106.337 201.734C107.694 200.911 109.536 200.449 111.456 200.449C113.377 200.449 115.218 200.911 116.576 201.734C117.934 202.557 118.697 203.673 118.697 204.837Z" fill="#0A0000"/>
<path d="M118.135 204.837C118.135 205.854 117.432 206.829 116.179 207.546C114.927 208.265 113.228 208.668 111.457 208.668C109.686 208.668 107.987 208.265 106.735 207.546C105.482 206.829 104.779 205.854 104.779 204.837C104.779 203.821 105.482 202.848 106.735 202.129C107.987 201.41 109.686 201.007 111.457 201.007C113.228 201.007 114.927 201.41 116.179 202.129C117.432 202.848 118.135 203.821 118.135 204.837Z" fill="#5E5C64"/>
<path d="M137.837 204.837C137.837 206 137.074 207.116 135.716 207.939C134.358 208.761 132.517 209.224 130.596 209.224C128.676 209.224 126.834 208.761 125.477 207.939C124.119 207.116 123.356 206 123.356 204.837C123.356 203.673 124.119 202.557 125.477 201.734C126.834 200.911 128.676 200.449 130.596 200.449C132.517 200.449 134.358 200.911 135.716 201.734C137.074 202.557 137.837 203.673 137.837 204.837Z" fill="#0A0000"/>
<path d="M156.614 204.949C156.614 206.112 155.851 207.228 154.493 208.051C153.135 208.873 151.294 209.336 149.373 209.336C147.453 209.336 145.611 208.873 144.254 208.051C142.896 207.228 142.133 206.112 142.133 204.949C142.133 203.785 142.896 202.669 144.254 201.846C145.611 201.023 147.453 200.561 149.373 200.561C151.294 200.561 153.135 201.023 154.493 201.846C155.851 202.669 156.614 203.785 156.614 204.949Z" fill="#0A0000"/>
<path d="M156.051 204.949C156.051 205.963 155.348 206.939 154.096 207.658C152.843 208.377 151.144 208.78 149.373 208.78C147.602 208.78 145.903 208.377 144.651 207.658C143.399 206.939 142.695 205.963 142.695 204.949C142.695 203.933 143.399 202.958 144.651 202.239C145.903 201.52 147.602 201.117 149.373 201.117C151.144 201.117 152.843 201.52 154.096 202.239C155.348 202.958 156.051 203.933 156.051 204.949Z" fill="#5E5C64"/>
<path d="M137.275 204.837C137.275 205.854 136.572 206.829 135.319 207.546C134.067 208.265 132.368 208.668 130.597 208.668C128.826 208.668 127.127 208.265 125.875 207.546C124.622 206.829 123.919 205.854 123.919 204.837C123.919 203.821 124.622 202.848 125.875 202.129C127.127 201.41 128.826 201.007 130.597 201.007C132.368 201.007 134.067 201.41 135.319 202.129C136.572 202.848 137.275 203.821 137.275 204.837Z" fill="#5E5C64"/>
<path d="M118.697 192.618C118.697 193.782 117.934 194.897 116.576 195.72C115.218 196.543 113.377 197.005 111.456 197.005C109.536 197.005 107.694 196.543 106.337 195.72C104.979 194.897 104.216 193.782 104.216 192.618C104.216 191.455 104.979 190.339 106.337 189.516C107.694 188.694 109.536 188.231 111.456 188.231C113.377 188.231 115.218 188.694 116.576 189.516C117.934 190.339 118.697 191.455 118.697 192.618Z" fill="#0A0000"/>
<path d="M118.135 192.619C118.135 193.636 117.432 194.61 116.179 195.328C114.927 196.047 113.228 196.45 111.457 196.45C109.686 196.45 107.987 196.047 106.735 195.328C105.482 194.61 104.779 193.636 104.779 192.619C104.779 191.603 105.482 190.629 106.735 189.911C107.987 189.192 109.686 188.789 111.457 188.789C113.228 188.789 114.927 189.192 116.179 189.911C117.432 190.629 118.135 191.603 118.135 192.619Z" fill="#5E5C64"/>
<path d="M137.837 192.618C137.837 193.782 137.074 194.897 135.716 195.72C134.358 196.543 132.517 197.005 130.596 197.005C128.676 197.005 126.834 196.543 125.477 195.72C124.119 194.897 123.356 193.782 123.356 192.618C123.356 191.455 124.119 190.339 125.477 189.516C126.834 188.694 128.676 188.231 130.596 188.231C132.517 188.231 134.358 188.694 135.716 189.516C137.074 190.339 137.837 191.455 137.837 192.618Z" fill="#0A0000"/>
<path d="M156.614 192.73C156.614 193.894 155.851 195.009 154.493 195.832C153.135 196.655 151.294 197.117 149.373 197.117C147.453 197.117 145.611 196.655 144.254 195.832C142.896 195.009 142.133 193.894 142.133 192.73C142.133 191.567 142.896 190.451 144.254 189.628C145.611 188.805 147.453 188.343 149.373 188.343C151.294 188.343 153.135 188.805 154.493 189.628C155.851 190.451 156.614 191.567 156.614 192.73Z" fill="#0A0000"/>
<path d="M156.051 192.73C156.051 193.746 155.348 194.721 154.096 195.439C152.843 196.158 151.144 196.561 149.373 196.561C147.602 196.561 145.903 196.158 144.651 195.439C143.399 194.721 142.695 193.746 142.695 192.73C142.695 191.714 143.399 190.74 144.651 190.021C145.903 189.303 147.602 188.899 149.373 188.899C151.144 188.899 152.843 189.303 154.096 190.021C155.348 190.74 156.051 191.714 156.051 192.73Z" fill="#5E5C64"/>
<path d="M137.275 192.619C137.275 193.636 136.572 194.61 135.319 195.328C134.067 196.047 132.368 196.45 130.597 196.45C128.826 196.45 127.127 196.047 125.875 195.328C124.622 194.61 123.919 193.636 123.919 192.619C123.919 191.603 124.622 190.629 125.875 189.911C127.127 189.192 128.826 188.789 130.597 188.789C132.368 188.789 134.067 189.192 135.319 189.911C136.572 190.629 137.275 191.603 137.275 192.619Z" fill="#5E5C64"/>
<path d="M118.697 180.4C118.697 181.564 117.934 182.679 116.576 183.502C115.218 184.325 113.377 184.787 111.456 184.787C109.536 184.787 107.694 184.325 106.337 183.502C104.979 182.679 104.216 181.564 104.216 180.4C104.216 179.237 104.979 178.121 106.337 177.298C107.694 176.475 109.536 176.013 111.456 176.013C113.377 176.013 115.218 176.475 116.576 177.298C117.934 178.121 118.697 179.237 118.697 180.4Z" fill="#0A0000"/>
<path d="M118.135 180.401C118.135 181.417 117.432 182.392 116.179 183.11C114.927 183.829 113.228 184.232 111.457 184.232C109.686 184.232 107.987 183.829 106.735 183.11C105.482 182.392 104.779 181.417 104.779 180.401C104.779 179.385 105.482 178.411 106.735 177.692C107.987 176.974 109.686 176.57 111.457 176.57C113.228 176.57 114.927 176.974 116.179 177.692C117.432 178.411 118.135 179.385 118.135 180.401Z" fill="#5E5C64"/>
<path d="M137.837 180.4C137.837 181.564 137.074 182.679 135.716 183.502C134.358 184.325 132.517 184.787 130.596 184.787C128.676 184.787 126.834 184.325 125.477 183.502C124.119 182.679 123.356 181.564 123.356 180.4C123.356 179.237 124.119 178.121 125.477 177.298C126.834 176.475 128.676 176.013 130.596 176.013C132.517 176.013 134.358 176.475 135.716 177.298C137.074 178.121 137.837 179.237 137.837 180.4Z" fill="#0A0000"/>
<path d="M156.614 180.512C156.614 181.676 155.851 182.791 154.493 183.614C153.135 184.437 151.294 184.899 149.373 184.899C147.453 184.899 145.611 184.437 144.254 183.614C142.896 182.791 142.133 181.676 142.133 180.512C142.133 179.349 142.896 178.233 144.254 177.41C145.611 176.587 147.453 176.125 149.373 176.125C151.294 176.125 153.135 176.587 154.493 177.41C155.851 178.233 156.614 179.349 156.614 180.512Z" fill="#0A0000"/>
<path d="M156.051 180.512C156.051 181.528 155.348 182.503 154.096 183.221C152.843 183.939 151.144 184.343 149.373 184.343C147.602 184.343 145.903 183.939 144.651 183.221C143.399 182.503 142.695 181.528 142.695 180.512C142.695 179.496 143.399 178.522 144.651 177.803C145.903 177.085 147.602 176.681 149.373 176.681C151.144 176.681 152.843 177.085 154.096 177.803C155.348 178.522 156.051 179.496 156.051 180.512Z" fill="#5E5C64"/>
<path d="M137.275 180.401C137.275 181.417 136.572 182.392 135.319 183.11C134.067 183.829 132.368 184.232 130.597 184.232C128.826 184.232 127.127 183.829 125.875 183.11C124.622 182.392 123.919 181.417 123.919 180.401C123.919 179.385 124.622 178.411 125.875 177.692C127.127 176.974 128.826 176.57 130.597 176.57C132.368 176.57 134.067 176.974 135.319 177.692C136.572 178.411 137.275 179.385 137.275 180.401Z" fill="#5E5C64"/>
<path d="M130.593 153.929C125.549 153.929 121.373 157.57 120.505 162.365C121.099 162.477 121.682 162.627 122.283 162.719C122.988 158.761 126.433 155.741 130.593 155.741C134.735 155.741 138.17 158.734 138.894 162.669C139.499 162.572 140.084 162.423 140.681 162.306C139.79 157.54 135.617 153.928 130.593 153.929V153.929Z" fill="#C0BFBC"/>
<path d="M139.052 164.21C139.052 166.453 138.161 168.604 136.575 170.19C134.989 171.776 132.838 172.667 130.596 172.667C128.353 172.667 126.202 171.776 124.616 170.19C123.03 168.604 122.139 166.453 122.139 164.21C122.139 161.968 123.03 159.817 124.616 158.231C126.202 156.645 128.353 155.754 130.596 155.754C132.838 155.754 134.989 156.645 136.575 158.231C138.161 159.817 139.052 161.968 139.052 164.21Z" fill="#241F31"/>
<path d="M156.838 166.912C156.838 168.387 156.252 169.801 155.209 170.844C154.166 171.887 152.752 172.473 151.277 172.473C149.803 172.473 148.388 171.887 147.346 170.844C146.303 169.801 145.717 168.387 145.717 166.912C145.717 165.438 146.303 164.023 147.346 162.98C148.388 161.938 149.803 161.352 151.277 161.352C152.752 161.352 154.166 161.938 155.209 162.98C156.252 164.023 156.838 165.438 156.838 166.912Z" fill="#241F31"/>
<path d="M115.276 166.912C115.276 168.387 114.69 169.801 113.647 170.844C112.605 171.887 111.19 172.473 109.716 172.473C108.241 172.473 106.826 171.887 105.784 170.844C104.741 169.801 104.155 168.387 104.155 166.912C104.155 165.438 104.741 164.023 105.784 162.98C106.826 161.938 108.241 161.352 109.716 161.352C111.19 161.352 112.605 161.938 113.647 162.98C114.69 164.023 115.276 165.438 115.276 166.912Z" fill="#241F31"/>
<path d="M138.137 164.214C138.137 166.213 137.342 168.131 135.928 169.545C134.514 170.958 132.597 171.753 130.597 171.753C128.598 171.753 126.68 170.958 125.267 169.545C123.853 168.131 123.058 166.213 123.058 164.214C123.058 162.214 123.853 160.297 125.267 158.883C126.68 157.469 128.598 156.675 130.597 156.675C132.597 156.675 134.514 157.469 135.928 158.883C137.342 160.297 138.137 162.214 138.137 164.214Z" fill="#3D3846"/>
<path fill-rule="evenodd" clip-rule="evenodd" d="M151.238 162.216C153.833 162.216 155.939 164.322 155.939 166.918C155.939 169.513 153.833 171.619 151.238 171.619C148.643 171.619 146.537 169.513 146.537 166.918C146.537 164.322 148.643 162.216 151.238 162.216Z" fill="#5E5C64"/>
<path d="M137.837 164.21C137.837 166.11 137.082 167.932 135.739 169.275C134.396 170.618 132.574 171.373 130.675 171.373C128.775 171.373 126.953 170.618 125.61 169.275C124.267 167.932 123.512 166.11 123.512 164.21C123.512 162.311 124.267 160.489 125.61 159.146C126.953 157.803 128.775 157.049 130.675 157.049C132.574 157.049 134.396 157.803 135.739 159.146C137.082 160.489 137.837 162.311 137.837 164.21Z" fill="#5E5C64"/>
<path fill-rule="evenodd" clip-rule="evenodd" d="M114.511 166.917C114.511 169.512 112.405 171.618 109.81 171.618C107.215 171.618 105.109 169.512 105.109 166.917C105.109 164.322 107.215 162.216 109.81 162.216C112.405 162.216 114.511 164.322 114.511 166.917Z" fill="#5E5C64"/>
<path d="M107.831 151.485H122.079C122.537 151.485 122.992 151.395 123.416 151.219C123.84 151.044 124.225 150.786 124.549 150.462C124.873 150.138 125.131 149.752 125.306 149.328C125.482 148.905 125.572 148.45 125.572 147.991C125.572 147.065 125.204 146.176 124.549 145.521C123.894 144.866 123.005 144.497 122.079 144.497H107.831C106.904 144.497 106.016 144.866 105.36 145.521C104.705 146.176 104.337 147.065 104.337 147.991C104.337 148.45 104.428 148.905 104.603 149.328C104.779 149.752 105.036 150.138 105.36 150.462C105.685 150.786 106.07 151.044 106.494 151.219C106.918 151.395 107.372 151.485 107.831 151.485V151.485Z" fill="#3D3846"/>
<path d="M139.164 151.485H153.317C153.776 151.485 154.23 151.395 154.654 151.219C155.078 151.044 155.463 150.786 155.787 150.462C156.112 150.138 156.369 149.752 156.545 149.328C156.72 148.905 156.811 148.45 156.811 147.991C156.811 147.065 156.443 146.176 155.787 145.521C155.132 144.866 154.243 144.497 153.317 144.497H139.164C138.237 144.497 137.349 144.866 136.693 145.521C136.038 146.176 135.67 147.065 135.67 147.991C135.67 148.45 135.76 148.905 135.936 149.328C136.112 149.752 136.369 150.138 136.693 150.462C137.018 150.786 137.403 151.044 137.827 151.219C138.251 151.395 138.705 151.485 139.164 151.485V151.485Z" fill="#3D3846"/>
<path d="M108.562 150.887H121.348C122.279 150.887 123.171 150.582 123.829 150.039C124.487 149.496 124.856 148.76 124.856 147.992C124.856 147.225 124.487 146.489 123.829 145.946C123.171 145.403 122.279 145.098 121.348 145.098H108.562C107.632 145.098 106.739 145.403 106.081 145.946C105.424 146.489 105.054 147.225 105.054 147.992C105.054 148.76 105.424 149.496 106.081 150.039C106.739 150.582 107.632 150.887 108.562 150.887Z" fill="#5E5C64"/>
<path d="M139.846 150.887H152.633C153.563 150.887 154.455 150.582 155.113 150.039C155.771 149.496 156.141 148.76 156.141 147.992C156.141 147.225 155.771 146.489 155.113 145.946C154.455 145.403 153.563 145.098 152.633 145.098H139.846C138.916 145.098 138.024 145.403 137.366 145.946C136.708 146.489 136.339 147.225 136.339 147.992C136.339 148.76 136.708 149.496 137.366 150.039C138.024 150.582 138.916 150.887 139.846 150.887Z" fill="#5E5C64"/>
<path d="M127.686 36.7229C125.2 36.7229 122.784 36.988 120.446 37.4729C118.109 37.958 111.476 39.5938 105.411 44.6364C97.498 51.0868 92.4572 60.909 92.4572 71.9591V83.7749C93.5768 82.5822 94.7748 81.4592 96.0139 80.3783V74.2262C96.0139 55.0661 111.442 39.638 130.602 39.638C149.762 39.638 165.182 55.0661 165.182 74.2262V80.6988C166.423 81.8035 167.62 82.953 168.739 84.171V71.9591C168.739 52.4404 153.029 36.7211 133.511 36.7211H127.688L127.686 36.7229ZM168.738 146.757C167.622 147.974 166.421 149.118 165.182 150.221V155.506C165.182 215.412 166.559 231.846 130.602 231.846C94.8458 231.846 95.7789 214.834 96.0135 155.506V150.542C94.7766 149.462 93.5752 148.345 92.4568 147.154V190.685C92.4568 233.568 108.167 236.153 127.684 236.153H133.508C153.027 236.153 168.735 236.173 168.735 190.685V146.757H168.738Z" fill="#3D3846"/>
<path d="M120.447 37.47V19.055C120.447 15.2281 117.363 12.1525 113.536 12.1525H112.323C108.496 12.1525 105.412 15.2281 105.412 19.055V44.6338C109.695 41.142 114.821 38.6375 120.447 37.4702" fill="#77767B"/>
<path d="M115.011 85.1029C115.291 84.6296 115.558 84.1562 115.811 83.6829C116.065 83.2096 116.298 82.7329 116.511 82.2529H118.231C117.851 82.9996 117.458 83.7229 117.051 84.4229C116.645 85.1229 116.215 85.8262 115.761 86.5329V89.1829H114.201V86.5529C113.748 85.8462 113.315 85.1396 112.901 84.4329C112.495 83.7262 112.101 82.9996 111.721 82.2529H113.531C113.745 82.7329 113.975 83.2096 114.221 83.6829C114.468 84.1562 114.731 84.6296 115.011 85.1029Z" fill="#D88446"/>
<path d="M122.726 89.1829C122.653 88.9429 122.57 88.6962 122.476 88.4429C122.39 88.1896 122.303 87.9362 122.216 87.6829H119.516C119.43 87.9362 119.34 88.1896 119.246 88.4429C119.16 88.6962 119.08 88.9429 119.006 89.1829H117.386C117.646 88.4362 117.893 87.7462 118.126 87.1129C118.36 86.4796 118.586 85.8829 118.806 85.3229C119.033 84.7629 119.253 84.2329 119.466 83.7329C119.686 83.2262 119.913 82.7329 120.146 82.2529H121.636C121.863 82.7329 122.086 83.2262 122.306 83.7329C122.526 84.2329 122.746 84.7629 122.966 85.3229C123.193 85.8829 123.423 86.4796 123.656 87.1129C123.89 87.7462 124.136 88.4362 124.396 89.1829H122.726ZM120.856 83.8229C120.823 83.9229 120.773 84.0596 120.706 84.2329C120.64 84.4062 120.563 84.6062 120.476 84.8329C120.39 85.0596 120.293 85.3096 120.186 85.5829C120.086 85.8562 119.983 86.1429 119.876 86.4429H121.846C121.74 86.1429 121.636 85.8562 121.536 85.5829C121.436 85.3096 121.34 85.0596 121.246 84.8329C121.16 84.6062 121.083 84.4062 121.016 84.2329C120.95 84.0596 120.896 83.9229 120.856 83.8229Z" fill="#D88446"/>
<path d="M127.323 82.1729C128.363 82.1729 129.16 82.3596 129.713 82.7329C130.267 83.0996 130.543 83.6729 130.543 84.4529C130.543 84.9396 130.43 85.3362 130.203 85.6429C129.983 85.9429 129.663 86.1796 129.243 86.3529C129.383 86.5262 129.53 86.7262 129.683 86.9529C129.837 87.1729 129.987 87.4062 130.133 87.6529C130.287 87.8929 130.433 88.1462 130.573 88.4129C130.713 88.6729 130.843 88.9296 130.963 89.1829H129.213C129.087 88.9562 128.957 88.7262 128.823 88.4929C128.697 88.2596 128.563 88.0329 128.423 87.8129C128.29 87.5929 128.157 87.3862 128.023 87.1929C127.89 86.9929 127.757 86.8129 127.623 86.6529H126.853V89.1829H125.293V82.3529C125.633 82.2862 125.983 82.2396 126.343 82.2129C126.71 82.1862 127.037 82.1729 127.323 82.1729ZM127.413 83.5029C127.3 83.5029 127.197 83.5062 127.103 83.5129C127.017 83.5196 126.933 83.5262 126.853 83.5329V85.4129H127.293C127.88 85.4129 128.3 85.3396 128.553 85.1929C128.807 85.0462 128.933 84.7962 128.933 84.4429C128.933 84.1029 128.803 83.8629 128.543 83.7229C128.29 83.5762 127.913 83.5029 127.413 83.5029Z" fill="#D88446"/>
<path d="M134.595 89.3229C134.109 89.3229 133.689 89.2562 133.335 89.1229C132.982 88.9829 132.689 88.7929 132.455 88.5529C132.229 88.3062 132.059 88.0162 131.945 87.6829C131.839 87.3429 131.785 86.9696 131.785 86.5629V82.2529H133.345V86.4329C133.345 86.7129 133.375 86.9529 133.435 87.1529C133.502 87.3462 133.589 87.5062 133.695 87.6329C133.809 87.7529 133.942 87.8396 134.095 87.8929C134.255 87.9462 134.429 87.9729 134.615 87.9729C134.995 87.9729 135.302 87.8562 135.535 87.6229C135.775 87.3896 135.895 86.9929 135.895 86.4329V82.2529H137.455V86.5629C137.455 86.9696 137.399 87.3429 137.285 87.6829C137.172 88.0229 136.999 88.3162 136.765 88.5629C136.532 88.8029 136.235 88.9896 135.875 89.1229C135.515 89.2562 135.089 89.3229 134.595 89.3229Z" fill="#D88446"/>
<path d="M138.646 85.5729H140.316V83.7229H141.676V85.5729H143.346V86.8229H141.676V88.6729H140.316V86.8229H138.646V85.5729Z" fill="#D88446"/>
<path d="M144.329 85.5729H145.999V83.7229H147.359V85.5729H149.029V86.8229H147.359V88.6729H145.999V86.8229H144.329V85.5729Z" fill="#D88446"/>
<defs>
<filter id="filter0_f" x="84.2272" y="4.60504" width="92.7246" height="240.336" filterUnits="userSpaceOnUse" color-interpolation-filters="sRGB">
<feFlood flood-opacity="0" result="BackgroundImageFix"/>
<feBlend mode="normal" in="SourceGraphic" in2="BackgroundImageFix" result="shape"/>
<feGaussianBlur stdDeviation="3.08389" result="effect1_foregroundBlur"/>
</filter>
<filter id="filter1_f" x="88.8531" y="9.23088" width="83.4729" height="231.084" filterUnits="userSpaceOnUse" color-interpolation-filters="sRGB">
<feFlood flood-opacity="0" result="BackgroundImageFix"/>
<feBlend mode="normal" in="SourceGraphic" in2="BackgroundImageFix" result="shape"/>
<feGaussianBlur stdDeviation="0.770973" result="effect1_foregroundBlur"/>
</filter>
<linearGradient id="paint0_linear" x1="165.181" y1="-17.755" x2="96.0132" y2="-17.755" gradientUnits="userSpaceOnUse">
<stop stop-color="#43434B"/>
<stop offset="1" stop-color="#E5E3FF" stop-opacity="0"/>
</linearGradient>
</defs>
</svg>
