<?xml version="1.0" encoding="UTF-8" standalone="no"?>
<!-- Created with Inkscape (http://www.inkscape.org/) -->

<svg
   xmlns:dc="http://purl.org/dc/elements/1.1/"
   xmlns:cc="http://creativecommons.org/ns#"
   xmlns:rdf="http://www.w3.org/1999/02/22-rdf-syntax-ns#"
   xmlns:svg="http://www.w3.org/2000/svg"
   xmlns="http://www.w3.org/2000/svg"
   xmlns:xlink="http://www.w3.org/1999/xlink"
   xmlns:sodipodi="http://sodipodi.sourceforge.net/DTD/sodipodi-0.dtd"
   xmlns:inkscape="http://www.inkscape.org/namespaces/inkscape"
   width="32"
   height="32"
   viewBox="0 0 8.4666665 8.4666669"
   version="1.1"
   id="svg905"
   inkscape:version="0.92.4 (5da689c313, 2019-01-14)"
   sodipodi:docname="image-missing.svg">
  <defs
     id="defs899">
    <linearGradient
       inkscape:collect="always"
       xlink:href="#linearGradient927"
       id="linearGradient969"
       x1="336"
       y1="136"
       x2="336"
       y2="160"
       gradientUnits="userSpaceOnUse"
       gradientTransform="rotate(90,335.99998,147.99998)" />
    <linearGradient
       inkscape:collect="always"
       id="linearGradient927">
      <stop
         style="stop-color:#ffffff;stop-opacity:1;"
         offset="0"
         id="stop923" />
      <stop
         id="stop933"
         offset="0.125"
         style="stop-color:#ffffff;stop-opacity:0.09803922" />
      <stop
         id="stop931"
         offset="0.92500001"
         style="stop-color:#ffffff;stop-opacity:0.09803922" />
      <stop
         style="stop-color:#ffffff;stop-opacity:0.49803922"
         offset="1"
         id="stop925" />
    </linearGradient>
    <clipPath
       clipPathUnits="userSpaceOnUse"
       id="clipPath959">
      <path
         style="color:#000000;display:inline;overflow:visible;visibility:visible;opacity:1;fill:#46a926;fill-opacity:1;fill-rule:nonzero;stroke:none;stroke-width:2;stroke-miterlimit:4;stroke-dasharray:none;stroke-opacity:1;marker:none;enable-background:accumulate"
         d="m 330.1929,133.99999 c -5.61538,0 -6.21958,0.57678 -6.19206,6.20352 v 7.79648 7.79648 c -0.0276,5.62673 0.57668,6.20351 6.19206,6.20351 h 11.615 c 5.6154,0 6.19208,-0.5767 6.19208,-6.20351 v -7.79648 -7.79648 c 0,-5.6268 -0.5767,-6.20352 -6.19208,-6.20352 z"
         id="path961"
         inkscape:connector-curvature="0"
         sodipodi:nodetypes="scccssscsss" />
    </clipPath>
  </defs>
  <sodipodi:namedview
     id="base"
     pagecolor="#ffffff"
     bordercolor="#666666"
     borderopacity="1.0"
     inkscape:pageopacity="0.0"
     inkscape:pageshadow="2"
     inkscape:zoom="26.40625"
     inkscape:cx="8.8047337"
     inkscape:cy="16"
     inkscape:document-units="mm"
     inkscape:current-layer="layer1"
     showgrid="false"
     units="px"
     inkscape:window-width="1920"
     inkscape:window-height="1016"
     inkscape:window-x="0"
     inkscape:window-y="27"
     inkscape:window-maximized="1" />
  <metadata
     id="metadata902">
    <rdf:RDF>
      <cc:Work
         rdf:about="">
        <dc:format>image/svg+xml</dc:format>
        <dc:type
           rdf:resource="http://purl.org/dc/dcmitype/StillImage" />
        <dc:title></dc:title>
      </cc:Work>
    </rdf:RDF>
  </metadata>
  <g
     inkscape:label="Livello 1"
     inkscape:groupmode="layer"
     id="layer1"
     transform="translate(0,-288.53332)">
    <path
       style="color:#000000;font-style:normal;font-variant:normal;font-weight:normal;font-stretch:normal;font-size:medium;line-height:normal;font-family:sans-serif;font-variant-ligatures:normal;font-variant-position:normal;font-variant-caps:normal;font-variant-numeric:normal;font-variant-alternates:normal;font-feature-settings:normal;text-indent:0;text-align:start;text-decoration:none;text-decoration-line:none;text-decoration-style:solid;text-decoration-color:#000000;letter-spacing:normal;word-spacing:normal;text-transform:none;writing-mode:lr-tb;direction:ltr;text-orientation:mixed;dominant-baseline:auto;baseline-shift:baseline;text-anchor:start;white-space:normal;shape-padding:0;clip-rule:nonzero;display:inline;overflow:visible;visibility:visible;opacity:0.1;isolation:auto;mix-blend-mode:normal;color-interpolation:sRGB;color-interpolation-filters:linearRGB;solid-color:#000000;solid-opacity:1;vector-effect:none;fill:#000000;fill-opacity:1;fill-rule:nonzero;stroke:none;stroke-width:0.52916664;stroke-linecap:butt;stroke-linejoin:miter;stroke-miterlimit:4;stroke-dasharray:none;stroke-dashoffset:0;stroke-opacity:1;marker:none;color-rendering:auto;image-rendering:auto;shape-rendering:auto;text-rendering:auto;enable-background:accumulate"
       d="m 0.25,294.59648 c 0,0.37596 0.008149,0.67438 0.0506439,0.92759 0.0425027,0.25322 0.12504208,0.47399 0.28886943,0.63821 0.16382736,0.16421 0.38526509,0.24777 0.63872267,0.2899 0.2534576,0.0421 0.5521987,0.0494 0.92914,0.0475 H 4.21875 6.2816745 c 0.3760549,0.002 0.6745552,-0.005 0.9275895,-0.0475 0.2534602,-0.0421 0.4748953,-0.12569 0.6387227,-0.2899 0.1638273,-0.16422 0.2463667,-0.38499 0.2888694,-0.63821 0.042505,-0.25321 0.050644,-0.55163 0.050644,-0.92759 v -3.0732 c 0,-0.37596 -0.00812,-0.67381 -0.050644,-0.92656 -0.042532,-0.25275 -0.1254786,-0.47302 -0.289388,-0.63665 C 7.6835587,289.79644 7.4628618,289.71365 7.2097826,289.6712 6.9567007,289.6287 6.658383,289.6206 6.2816745,289.6206 H 4.21875 2.1558255 c -0.3767085,0 -0.6750262,0.008 -0.9281081,0.0506 -0.25308186,0.0424 -0.47377611,0.12524 -0.63768548,0.28887 -0.16391202,0.16363 -0.24685625,0.3839 -0.28938802,0.63665 C 0.2581095,290.84947 0.25,291.14732 0.25,291.52328 Z"
       id="path999"
       inkscape:connector-curvature="0"
       sodipodi:nodetypes="scscccccscsscccscscscss" />
    <path
       style="color:#000000;display:inline;overflow:visible;visibility:visible;fill:#ed3146;fill-opacity:1;fill-rule:nonzero;stroke:none;stroke-width:0.26458332;marker:none;enable-background:accumulate"
       d="m 8.0552189,291.25947 c 0,-0.3737 -0.00905,-0.66738 -0.049093,-0.90589 -0.040037,-0.23851 -0.1142048,-0.42859 -0.2521797,-0.56689 -0.1379749,-0.1383 -0.3278134,-0.21253 -0.566375,-0.25218 -0.2385589,-0.0397 -0.531839,-0.0478 -0.9064043,-0.046 H 4.2187606 2.1558361 c -0.3742584,-0.002 -0.6674617,0.006 -0.9058858,0.046 -0.2385615,0.0396 -0.42840003,0.11388 -0.56637495,0.25218 -0.13797491,0.1383 -0.21214291,0.32838 -0.25217966,0.56689 -0.0400368,0.23851 -0.0490934,0.53219 -0.0490934,0.90589 v 3.07319 c 0,0.3737 0.009049,0.66635 0.0490934,0.90434 0.04005,0.23799 0.11416506,0.42756 0.25217966,0.56534 0.13801461,0.13778 0.32748535,0.21168 0.56585645,0.25166 0.2383737,0.04 0.531958,0.0491 0.9064043,0.0491 h 2.0629245 2.0629245 c 0.3744489,0 0.6680306,-0.009 0.9064043,-0.0491 0.238371,-0.04 0.4278392,-0.11388 0.5658564,-0.25166 0.1380146,-0.13778 0.2121297,-0.32735 0.2521797,-0.56534 0.04005,-0.23799 0.049093,-0.53064 0.049093,-0.90434 z"
       id="path922"
       inkscape:connector-curvature="0" />
    <path
       style="color:#000000;font-style:normal;font-variant:normal;font-weight:normal;font-stretch:normal;font-size:medium;line-height:normal;font-family:sans-serif;font-variant-ligatures:normal;font-variant-position:normal;font-variant-caps:normal;font-variant-numeric:normal;font-variant-alternates:normal;font-feature-settings:normal;text-indent:0;text-align:start;text-decoration:none;text-decoration-line:none;text-decoration-style:solid;text-decoration-color:#000000;letter-spacing:normal;word-spacing:normal;text-transform:none;writing-mode:lr-tb;direction:ltr;text-orientation:mixed;dominant-baseline:auto;baseline-shift:baseline;text-anchor:start;white-space:normal;shape-padding:0;clip-rule:nonzero;display:inline;overflow:visible;visibility:visible;opacity:0.6;isolation:auto;mix-blend-mode:normal;color-interpolation:sRGB;color-interpolation-filters:linearRGB;solid-color:#000000;solid-opacity:1;vector-effect:none;fill:#ffffff;fill-opacity:1;fill-rule:nonzero;stroke:none;stroke-width:0.26543358;stroke-linecap:square;stroke-linejoin:miter;stroke-miterlimit:4;stroke-dasharray:none;stroke-dashoffset:0;stroke-opacity:1;color-rendering:auto;image-rendering:auto;shape-rendering:auto;text-rendering:auto;enable-background:accumulate"
       d="m 4.2187659,290.67233 c -1.1711887,0 -2.1234691,0.95228 -2.1234691,2.12347 0,1.17119 0.9522804,2.12347 2.1234691,2.12347 1.1711887,0 2.1234691,-0.95228 2.1234691,-2.12347 0,-1.17119 -0.9522804,-2.12347 -2.1234691,-2.12347 z m 0,0.26544 c 1.0277369,0 1.8580338,0.83029 1.8580338,1.85803 0,0.46603 -0.1717014,0.8904 -0.4541414,1.21622 L 3.0025398,291.3919 c 0.3258291,-0.28243 0.7501969,-0.45413 1.2162261,-0.45413 z m -1.4038924,0.64181 2.6201185,2.62011 c -0.3258291,0.28244 -0.750197,0.45414 -1.2162261,0.45414 -1.0277369,0 -1.8580338,-0.83029 -1.8580338,-1.85803 0,-0.46603 0.1717013,-0.8904 0.4541414,-1.21622 z"
       id="path2933-7-5"
       inkscape:connector-curvature="0" />
    <path
       style="color:#000000;display:inline;overflow:visible;visibility:visible;opacity:0.1;fill:#ffffff;fill-opacity:1;fill-rule:nonzero;stroke:none;stroke-width:0.26458332;marker:none;enable-background:accumulate"
       d="m 4.2187659,289.6208 h 2.0629245 c 1.488739,-0.007 1.6412421,0.15292 1.6412421,1.63866 v 3.07319 c 0,1.48575 -0.152482,1.63815 -1.6412421,1.63815 H 4.2187659 Z"
       id="path1011"
       inkscape:connector-curvature="0" />
    <path
       style="color:#000000;display:inline;overflow:visible;visibility:visible;opacity:0.1;fill:#ffffff;fill-opacity:1;fill-rule:nonzero;stroke:none;stroke-width:0.26458332;marker:none;enable-background:accumulate"
       d="M 0.51459921,292.7958 H 7.9229325 v 1.53685 c 0,1.48575 -0.152482,1.63815 -1.6412421,1.63815 H 4.2187659 2.1558414 c -1.48875753,0 -1.64124219,-0.15241 -1.64124219,-1.63815 z"
       id="path1018"
       inkscape:connector-curvature="0" />
    <path
       id="path1089"
       d="m 0.3822996,294.3319 c 0,0.3737 0.009049,0.66738 0.0490934,0.90589 0.0400367,0.23851 0.11420475,0.42859 0.25217967,0.56689 0.13797491,0.1383 0.32781343,0.21253 0.56637503,0.25218 0.2385589,0.0397 0.531839,0.0478 0.9064043,0.046 h 2.0624059 2.0629245 c 0.3742585,0.002 0.6674618,-0.006 0.9058857,-0.046 0.2385616,-0.0396 0.4284001,-0.11388 0.5663751,-0.25218 0.1379749,-0.1383 0.2121429,-0.32838 0.2521796,-0.56689 0.040037,-0.23851 0.049093,-0.53219 0.049093,-0.90589 v -3.07319 c 0,-0.3737 -0.00905,-0.66635 -0.049093,-0.90434 -0.04005,-0.23799 -0.114165,-0.42756 -0.2521796,-0.56534 -0.1380146,-0.13778 -0.3274854,-0.21168 -0.5658565,-0.25166 -0.2383737,-0.04 -0.531958,-0.0491 -0.9064043,-0.0491 H 4.2187579 2.1558334 c -0.3744489,0 -0.6680305,0.009 -0.9064043,0.0491 -0.2383711,0.04 -0.42783914,0.11388 -0.56585639,0.25166 -0.13801461,0.13778 -0.21212969,0.32735 -0.25217967,0.56534 -0.04005,0.23799 -0.0490934,0.53064 -0.0490934,0.90434 z"
       style="color:#000000;display:inline;overflow:visible;visibility:visible;opacity:0.3;fill:none;fill-opacity:1;fill-rule:nonzero;stroke:#000000;stroke-width:0.26458332;stroke-opacity:1;marker:none;enable-background:accumulate"
       inkscape:connector-curvature="0" />
    <path
       transform="matrix(0,-0.26458333,0.26458333,0,-34.939453,381.69567)"
       sodipodi:nodetypes="scccssscsss"
       inkscape:connector-curvature="0"
       id="path939"
       d="m 330.1929,133.99999 c -5.61538,0 -6.21958,0.57678 -6.19206,6.20352 v 7.79648 7.79648 c -0.0276,5.62673 0.57668,6.20351 6.19206,6.20351 h 11.615 c 5.6154,0 6.19208,-0.5767 6.19208,-6.20351 v -7.79648 -7.79648 c 0,-5.6268 -0.5767,-6.20352 -6.19208,-6.20352 z"
       style="color:#000000;display:inline;overflow:visible;visibility:visible;opacity:0.4;fill:none;fill-opacity:1;fill-rule:nonzero;stroke:url(#linearGradient969);stroke-width:2;stroke-miterlimit:4;stroke-dasharray:none;stroke-opacity:1;marker:none;enable-background:accumulate"
       clip-path="url(#clipPath959)" />
  </g>
</svg>
