<?xml version="1.0" encoding="UTF-8" standalone="no"?>
<svg
   xmlns:dc="http://purl.org/dc/elements/1.1/"
   xmlns:cc="http://creativecommons.org/ns#"
   xmlns:rdf="http://www.w3.org/1999/02/22-rdf-syntax-ns#"
   xmlns:svg="http://www.w3.org/2000/svg"
   xmlns="http://www.w3.org/2000/svg"
   xmlns:sodipodi="http://sodipodi.sourceforge.net/DTD/sodipodi-0.dtd"
   xmlns:inkscape="http://www.inkscape.org/namespaces/inkscape"
   height="32"
   viewBox="0 0 8.4666664 8.4666659"
   width="32"
   version="1.1"
   id="svg43"
   sodipodi:docname="network-idle.svg"
   inkscape:version="0.92.4 (5da689c313, 2019-01-14)">
  <metadata
     id="metadata49">
    <rdf:RDF>
      <cc:Work
         rdf:about="">
        <dc:format>image/svg+xml</dc:format>
        <dc:type
           rdf:resource="http://purl.org/dc/dcmitype/StillImage" />
      </cc:Work>
    </rdf:RDF>
  </metadata>
  <defs
     id="defs47">
    <filter
       style="color-interpolation-filters:sRGB"
       id="a-3-1"
       height="2.6199999"
       width="2.6199999"
       x="-0.81"
       y="-0.81">
      <feGaussianBlur
         stdDeviation="2.7"
         id="feGaussianBlur2-6-2" />
    </filter>
    <filter
       style="color-interpolation-filters:sRGB"
       id="filter902"
       height="2.6199999"
       width="2.6199999"
       x="-0.81"
       y="-0.81">
      <feGaussianBlur
         stdDeviation="2.7"
         id="feGaussianBlur900" />
    </filter>
    <filter
       style="color-interpolation-filters:sRGB"
       id="filter906"
       height="2.6199999"
       width="2.6199999"
       x="-0.81"
       y="-0.81">
      <feGaussianBlur
         stdDeviation="2.7"
         id="feGaussianBlur904" />
    </filter>
  </defs>
  <sodipodi:namedview
     pagecolor="#ffffff"
     bordercolor="#666666"
     borderopacity="1"
     objecttolerance="10"
     gridtolerance="10"
     guidetolerance="10"
     inkscape:pageopacity="0"
     inkscape:pageshadow="2"
     inkscape:window-width="1920"
     inkscape:window-height="1016"
     id="namedview45"
     showgrid="false"
     inkscape:zoom="27.128955"
     inkscape:cx="16.133859"
     inkscape:cy="15.878034"
     inkscape:window-x="0"
     inkscape:window-y="27"
     inkscape:window-maximized="1"
     inkscape:current-layer="g41" />
  <linearGradient
     id="a"
     gradientTransform="matrix(.04026269 0 0 .04026259 .403531 288.80144)"
     gradientUnits="userSpaceOnUse"
     x1="96"
     x2="96"
     y1="4.000006"
     y2="188">
    <stop
       offset="0"
       stop-color="#fff"
       id="stop2" />
    <stop
       offset=".125"
       stop-color="#fff"
       stop-opacity=".098039"
       id="stop4" />
    <stop
       offset=".92500001"
       stop-color="#fff"
       stop-opacity=".098039"
       id="stop6" />
    <stop
       offset="1"
       stop-color="#fff"
       stop-opacity=".498039"
       id="stop8" />
  </linearGradient>
  <clipPath
     id="b">
    <path
       d="m341.12109 133.5c9.08109 0 10.37891 1.29458 10.37891 10.36719v8.26562c0 9.07258-1.29782 10.36719-10.37891 10.36719h-10.24218c-9.08108 0-10.37891-1.29461-10.37891-10.36719v-8.26562c0-9.07261 1.29783-10.36719 10.37891-10.36719z"
       id="path11" />
  </clipPath>
  <linearGradient
     id="c"
     gradientTransform="matrix(.16111112 0 0 .16111088 .261784 248.8237)"
     gradientUnits="userSpaceOnUse"
     x1="13.735326"
     x2="38.099998"
     y1="249.69423"
     y2="292.76666">
    <stop
       offset="0"
       stop-color="#8c59d9"
       id="stop14" />
    <stop
       offset="1"
       stop-color="#a7a7f1"
       id="stop16" />
  </linearGradient>
  <g
     transform="translate(0 -288.53336)"
     id="g41">
    <ellipse
       cx="-4.26875"
       cy="-292.93127"
       opacity=".1"
       rx="3.968749"
       ry="3.968742"
       transform="scale(-1)"
       id="ellipse19" />
    <ellipse
       cx="4.26875"
       cy="292.66669"
       fill="url(#c)"
       rx="3.836458"
       ry="3.836451"
       id="ellipse21"
       style="fill:#8c59d9;fill-opacity:1" />
    <g
       id="g861"
       transform="matrix(0.15000745,0,0,0.15000745,-0.80140609,287.73559)">
      <g
         id="g847"
         transform="translate(4.4552694,-7.3845972)"
         style="fill:#ffffff;fill-opacity:1">
        <g
           transform="matrix(0.36372536,0,0,0.36372536,-37.972537,24.165561)"
           id="g845"
           style="opacity:0.4;fill:#ffffff;fill-opacity:1">
          <path
             style="opacity:1;fill:#ffffff;fill-opacity:1;stroke:none;stroke-width:0.17760146;stroke-linecap:round;stroke-linejoin:round;stroke-miterlimit:4;stroke-dasharray:none;stroke-opacity:1"
             d="m 49.751953,75.425781 c -1.108,0 -2,0.892 -2,2 v 30.455079 c 0,1.108 0.892,2 2,2 H 73.375 a 1.0912852,1.0912852 0 0 0 -0.002,0.0703 V 121.9414 H 54.097656 a 1.8197261,1.8197261 0 0 0 0,3.63867 H 126.6582 v 12.72656 a 1.092775,1.092775 0 0 0 0.0449,0.30859 h -23.66406 c -1.108,0 -2,0.892 -2,2 v 30.45508 c 0,1.108 0.892,2 2,2 h 49.42578 c 1.108,0 2,-0.892 2,-2 v -30.45508 c 0,-1.108 -0.892,-2 -2,-2 h -23.66601 a 1.092775,1.092775 0 0 0 0.0449,-0.30859 v -12.72656 h 72.56055 a 1.8197261,1.8197261 0 0 0 0,-3.63867 h -19.27539 v -11.99024 a 1.0912852,1.0912852 0 0 0 -0.002,-0.0703 h 23.625 c 1.108,0 2,-0.892 2,-2 V 77.425781 c 0,-1.108 -0.892,-2 -2,-2 h -49.42578 c -1.108,0 -2,0.892 -2,2 v 30.455079 c 0,1.108 0.892,2 2,2 h 23.62695 a 1.0912852,1.0912852 0 0 0 -0.002,0.0703 V 121.9414 H 75.558594 v -11.99024 a 1.0912852,1.0912852 0 0 0 -0.002,-0.0703 h 23.621093 c 1.107993,0 1.999993,-0.892 1.999993,-2 V 77.425781 c 0,-1.108 -0.892,-2 -1.999993,-2 z"
             transform="matrix(0.72739034,0,0,0.72739034,92.149933,-46.136359)"
             id="path843"
             inkscape:connector-curvature="0" />
        </g>
      </g>
      <circle
         style="fill:#ffffff;fill-opacity:1;stroke-width:1"
         cx="19.715395"
         cy="32.685867"
         r="1.0582809"
         id="circle849" />
      <circle
         cx="10.48"
         cy="10.48"
         r="4"
         id="circle851"
         style="fill:#ffffff;fill-opacity:1;filter:url(#a-3-1)"
         transform="matrix(0.26457031,0,0,0.26457031,16.942701,29.913166)" />
      <circle
         id="circle853"
         r="1.0582809"
         cy="32.685867"
         cx="47.895271"
         style="fill:#ffffff;fill-opacity:1;stroke-width:1" />
      <circle
         transform="matrix(0.26457031,0,0,0.26457031,45.122577,29.913166)"
         style="fill:#ffffff;fill-opacity:1;filter:url(#a-3-1)"
         id="circle855"
         r="4"
         cy="10.48"
         cx="10.48" />
      <circle
         style="fill:#ffffff;fill-opacity:1;stroke-width:1"
         cx="33.805332"
         cy="32.685867"
         r="1.0582809"
         id="circle857" />
      <circle
         cx="10.48"
         cy="10.48"
         r="4"
         id="circle859"
         style="fill:#ffffff;fill-opacity:1;filter:url(#a-3-1)"
         transform="matrix(0.26457031,0,0,0.26457031,31.032639,29.913166)" />
    </g>
  </g>
</svg>
