<svg id="svg4" height="16" width="16" xmlns="http://www.w3.org/2000/svg">
  <g fill="#444444">
    <path id="path816" d="m3.8339844 3.6660156s-3.3339844.0006507-3.3339844 3.3339844v1.6660156c0 3.3333334 3.3339844 3.3339844 3.3339844 3.3339844h1.6660156v-1.666016h-1.6660156s-1.6679688-.0013-1.6679688-1.6679684v-1.6660156c0-1.6666666 1.6679688-1.6660156 1.6679688-1.6660156h1.6660156v-1.6679688z"/>
    <path id="path821" d="m7.0091217 5.33831v.017578 1.6660156h-1.667969v1.6679685h1.667969v1.6660159h1.666016v-1.6660159h1.6523433v-1.6679684h-1.6523433v-1.234375h-.002v-.4433594z"/>
    <path id="path823" d="m12.40231 5.33831v.017578 1.6660156h-1.667969v1.6679685h1.667969v1.6660159h1.666016v-1.6660159h1.652343v-1.6679684h-1.652343v-1.234375h-.002v-.4433594z"/>
  </g>
</svg>
