<svg id="svg41" height="16" viewBox="0 0 4.233125 4.233125" width="16" xmlns="http://www.w3.org/2000/svg" xmlns:xlink="http://www.w3.org/1999/xlink">
  <linearGradient id="linearGradient993" gradientUnits="userSpaceOnUse" x1="328" x2="328" y1="237" y2="251">
    <stop id="stop923" offset="0" stop-color="#fff"/>
    <stop id="stop933" offset=".125" stop-color="#fff" stop-opacity=".098039"/>
    <stop id="stop931" offset=".92500001" stop-color="#fff" stop-opacity=".098039"/>
    <stop id="stop925" offset="1" stop-color="#fff" stop-opacity=".498039"/>
  </linearGradient>
  <clipPath id="clipPath983-3">
    <path id="path985-6" d="m325.09646 237c-2.80769 0-3.10979.28839-3.09603 3.10176v3.89824 3.89824c-.0138 2.81337.28834 3.10176 3.09603 3.10176h5.8075c2.8077 0 3.09604-.28835 3.09604-3.10176v-3.89824-3.89824c0-2.8134-.28835-3.10176-3.09604-3.10176z"/>
  </clipPath>
  <filter id="filter4508" color-interpolation-filters="sRGB" height="1.024264" width="1.023742" x="-.011871" y="-.012132">
    <feGaussianBlur id="feGaussianBlur4510" stdDeviation=".039570175"/>
  </filter>
  <linearGradient id="linearGradient5119" gradientUnits="userSpaceOnUse" x1="2.88508723133" x2="1.34818507203" y1="4.100839965" y2=".132285315">
    <stop id="stop4428" offset="0" stop-color="#27ab5f"/>
    <stop id="stop4430" offset="1" stop-color="#249a56"/>
  </linearGradient>
  <path id="path918" d="m2.8849672.13228548c.187972 0 .3369145.004074.463514.0253194.1265996.021245.2372429.0627772.3193443.14468826.082102.081908.1236232.1921045.1446883.3188283.02106.1267213.024684.2760845.023758.46454846v1.0308929 1.0314115c.0007937.188165-.00273.3374488-.023758.4640299-.02106.1267238-.062584.23692-.1446883.3188284-.082104.081911-.1927421.1234352-.3193443.1446882-.1266022.021245-.275542.025319-.463514.025319h-1.5367831c-.1879719 0-.3366287-.00405-.46299804-.025319-.12636672-.0212715-.23701267-.0627376-.31882839-.1446882-.08180779-.0819507-.12294318-.1922924-.14416966-.3188284-.02121854-.1265334-.02531938-.275685-.02531938-.4640299v-1.0314115-1.0314115c0-.18834496.004101-.33749646.0253194-.46402986.0212185-.126536.0623592-.2368777.14416964-.3188284.0818157-.0819506.19246167-.12342202.31882839-.14468818.12636934-.0212715.27502614-.0253194.46299804-.0253194z" fill="url(#linearGradient5119)"/>
  <path id="path4265-5-9-6-8-0" d="m7.0004998 5.17196-4 2.23659v4.89253l1.33333.69895 1.33333-.69895v-1.67745l-1.33333-.69892v-1.67744l2.66667-1.53766 2.66667 1.53766v1.67744l-1.33334.69893v1.67744l1.33334.69895 1.3333302-.69895v-4.89253z" filter="url(#filter4508)" opacity=".2" transform="matrix(.26457031 0 0 .26457031 .26457 0)"/>
  <path id="path1009" d="m2.1166947.26457063v3.70398437h.7683916c.7428341 0 .8190303-.076236.8190303-.8205807v-1.0314115-1.0314115c0-.74434206-.076199-.82058067-.8190303-.82058067z" fill="#fff" opacity=".08"/>
  <path id="path1016" d="m.52927284 2.1165628v1.0314115c-.003651.7443342.0761989.8205807.81903036.8205807h1.5367831c.7428341 0 .8190303-.076236.8190303-.8205807v-1.0314115z" fill="#fff" opacity=".08"/>
  <path id="path1087" d="m1.3483032.13228548c-.1879719 0-.3369145.004074-.463514.0253194-.12659954.021245-.23724284.0627772-.3193443.14468826-.0821015.0819083-.12362312.1921045-.14468821.3188283-.0210598.1267213-.0246844.2760845-.0237584.46454846v1.0308929 1.0314115c-.00079371.188165.002725.3374488.0237584.4640299.0210598.1267238.0625841.23692.14468821.3188284.0821041.081911.19274212.1234352.3193443.1446882.1266022.021245.2755421.025319.463514.025319h1.5367831c.1879719 0 .3366287-.00405.4629981-.025319.1263667-.0212715.2370126-.0627376.3188284-.1446882.0818078-.0819507.1229431-.1922924.1441696-.3188284.0212186-.1265334.0253194-.275685.0253194-.4640299v-1.0314115-1.0314115c0-.18834496-.0041-.33749646-.025319-.46402986-.021219-.126536-.06236-.2368777-.14417-.3188284-.0818158-.08195063-.1924617-.12342202-.3188284-.14468818-.1263694-.02127146-.2750262-.02531938-.4629981-.02531938z" fill="none" opacity=".4" stroke="#000" stroke-width=".26457"/>
  <path id="path937" clip-path="url(#clipPath983-3)" d="m325.09646 237c-2.80769 0-3.10979.28839-3.09603 3.10176v3.89824 3.89824c-.0138 2.81337.28834 3.10176 3.09603 3.10176h5.8075c2.8077 0 3.09604-.28835 3.09604-3.10176v-3.89824-3.89824c0-2.8134-.28835-3.10176-3.09604-3.10176z" fill="none" opacity=".4" stroke="url(#linearGradient993)" stroke-width="2" transform="matrix(.26457031 0 0 .26457031 -84.662367 -62.438594)"/>
  <path id="path860" d="m1.058413 1.7072869c.02821-.0049 1.058281-.560313 1.058281-.560313l1.058281.560313v1.225685l-.35276.175098-.352761-.175098v-.420235l.352761-.175098v-.420234l-.705521-.385216-.705521.385216v.420234l.352761.175098v.420235l-.352761.175098-.35276-.175098z" fill="#fff" fill-opacity=".957547"/>
</svg>
