<svg height="16" viewBox="0 0 4.233125 4.233125" width="16" xmlns="http://www.w3.org/2000/svg" xmlns:xlink="http://www.w3.org/1999/xlink">
  <linearGradient id="a" gradientUnits="userSpaceOnUse" x1="328" x2="328" y1="237" y2="251">
    <stop offset="0" stop-color="#fff"/>
    <stop offset=".125" stop-color="#fff" stop-opacity=".098039"/>
    <stop offset=".92500001" stop-color="#fff" stop-opacity=".098039"/>
    <stop offset="1" stop-color="#fff" stop-opacity=".498039"/>
  </linearGradient>
  <clipPath id="b">
    <path d="m325.09646 237c-2.80769 0-3.10979.28839-3.09603 3.10176v3.89824 3.89824c-.0138 2.81337.28834 3.10176 3.09603 3.10176h5.8075c2.8077 0 3.09604-.28835 3.09604-3.10176v-3.89824-3.89824c0-2.8134-.28835-3.10176-3.09604-3.10176z"/>
  </clipPath>
  <linearGradient id="c" gradientTransform="matrix(0 -.00953618 .00953591 0 -.942984 4.47364)" gradientUnits="userSpaceOnUse" x1="459.03448" x2="35.310345" y1="419.23337" y2="207.36522">
    <stop offset="0" stop-color="#f2f2f2"/>
    <stop offset="1" stop-color="#f9f9f9"/>
  </linearGradient>
  <path d="m1.3483196.264567c-.190237 0-.344431.0037-.48573304.02739-.141304.02373-.28264.0731-.390657.180857-.108013.10776-.157834.249551-.181373.39117-.02355.141622-.02677.296446-.02585.487286v.765291 1.031411c-.000793.190004.0024.344563.02585.485735.02355.14162.07336.283411.181373.39117.108017.107762.249353.157139.390657.180858.14130204.02373.29549604.02739.48573304.02739h1.536783c.190236 0 .344095-.0036.485216-.02739.141125-.02376.282477-.07353.390138-.181374.107662-.107844.157166-.249413.180858-.390654.02369-.141243.02739-.29513.02739-.485735v-1.031412-.766842c0-.190604-.0037-.344491-.02739-.485735-.02368-.141241-.0732-.28281-.180858-.390654-.107661-.107844-.249013-.157625-.390138-.181373-.141121-.02375-.29498-.02739-.485216-.02739z" opacity=".1"/>
  <path d="m1.3485206.264567c-.74283204 0-.82275804.0763-.81911804.820634v1.031359 1.031358c-.0037.744334.07629.820634.81911804.820634h1.536492c.742834 0 .81912-.07629.81912-.820634v-1.031358-1.031359c0-.744342-.07629-.820634-.81912-.820634z" fill="none" opacity=".2" stroke="#000" stroke-width=".529141"/>
  <path d="m1.3485206.264567c-.74283204 0-.82275804.0763-.81911804.820634v1.031359 1.031358c-.0037.744334.07629.820634.81911804.820634h1.536492c.742834 0 .81912-.07629.81912-.820634v-1.031358-1.031359c0-.744342-.07629-.820634-.81912-.820634z" fill="url(#c)"/>
  <g fill="none">
    <g enable-background="new" stroke="#8f8f8f" stroke-linecap="square" stroke-linejoin="round" stroke-width="1.133351" transform="matrix(.11621622 0 0 .11621146 -36.933946 -15.299845)">
      <circle cx="335.99966" cy="149.86414" r="2.266645"/>
      <ellipse cx="335.99966" cy="149.86414" rx="8.500429" ry="8.500777"/>
    </g>
    <path clip-path="url(#b)" d="m325.09646 237c-2.80769 0-3.10979.28839-3.09603 3.10176v3.89824 3.89824c-.0138 2.81337.28834 3.10176 3.09603 3.10176h5.8075c2.8077 0 3.09604-.28835 3.09604-3.10176v-3.89824-3.89824c0-2.8134-.28835-3.10176-3.09604-3.10176z" opacity=".4" stroke="url(#a)" stroke-width="2" transform="matrix(.26457031 0 0 .26457031 -84.662351 -62.438597)"/>
  </g>
</svg>
