<svg height="16" viewBox="0 0 4.233125 4.233125" width="16" xmlns="http://www.w3.org/2000/svg" xmlns:xlink="http://www.w3.org/1999/xlink"><linearGradient id="a" gradientUnits="userSpaceOnUse" x1="328" x2="328" y1="237" y2="251"><stop offset="0" stop-color="#fff"/><stop offset=".125" stop-color="#fff" stop-opacity=".098039"/><stop offset=".92500001" stop-color="#fff" stop-opacity=".098039"/><stop offset="1" stop-color="#fff" stop-opacity=".498039"/></linearGradient><clipPath id="b"><path d="m325.09646 237c-2.80769 0-3.10979.28839-3.09603 3.10176v3.89824 3.89824c-.0138 2.81337.28834 3.10176 3.09603 3.10176h5.8075c2.8077 0 3.09604-.28835 3.09604-3.10176v-3.89824-3.89824c0-2.8134-.28835-3.10176-3.09604-3.10176z"/></clipPath><linearGradient id="c" gradientTransform="matrix(0 -.00953618 -.00953591 0 5.17627 4.473642)" gradientUnits="userSpaceOnUse" x1="459.03448" x2="35.310345" y1="419.23337" y2="207.36522"><stop offset="0" stop-color="#fdc92b"/><stop offset="1" stop-color="#fee581"/></linearGradient><path d="m2.8849668.132284c.187972 0 .336915.0041.463514.02532.1266.02124.237243.06278.319344.144688.0821.08191.123624.192104.144689.318828.02106.126722.02468.276085.02376.464549v1.030893 1.031411c.000793.188165-.0027.337449-.02376.46403-.02106.126724-.06258.23692-.144689.318829-.0821.08191-.192742.123435-.319344.144688-.126602.02125-.275542.02532-.463514.02532h-1.536783c-.187972 0-.336629-.004-.46299796-.02532-.126367-.02127-.237013-.06274-.318828-.144688-.08181-.08195-.122944-.192293-.14417-.318829-.02122-.126533-.02532-.275685-.02532-.46403v-1.031411-1.031412c0-.188345.0041-.337496.02532-.46403.02122-.126536.06236-.236877.14417-.318828.08182-.08195.192461-.123422.318828-.144688.12636896-.02127.27502596-.02532.46299796-.02532z" fill="url(#c)"/><path d="m1.8521238 2.116562v.727568c.000003.03664.0295.06614.06614.06614h.396856c.03664 0 .06614-.0295.06614-.06614v-.727568zm.132286.396855h.26457v.264571h-.26457z" fill="#111" opacity=".5"/><path d="m2.1166968.26457h-.26457v.26457h.26457zm0 .26457v.26457h.264571v-.26457zm0 .26457h-.26457v.26457h.26457zm0 .26457v.264571h.264571v-.264571zm0 .264571h-.26457v.26457h.26457zm0 .26457v.26457h.264571v-.26457z" fill="#111" opacity=".5"/><path d="m2.1166948.26457v3.703984h.768391c.742834 0 .819031-.07624.819031-.820581v-1.031411-1.031412c0-.744342-.0762-.82058-.819031-.82058z" fill="#fff" opacity=".08"/><path d="m.52927284 2.116562v1.031411c-.0037.744334.0762.820581.81902996.820581h1.536783c.742834 0 .819031-.07624.819031-.820581v-1.031411z" fill="#fff" opacity=".08"/><g fill="none"><path d="m1.3483028.132284c-.187972 0-.336914.0041-.46351396.02532-.126599.02124-.237243.06278-.319344.144688-.0821.08191-.123623.192104-.144688.318828-.02106.126722-.02468.276085-.02376.464549v1.030893 1.031411c-.000793.188165.0027.337449.02376.46403.02106.126724.06258.23692.144688.318829.0821.08191.192742.123435.319344.144688.12660196.02125.27554196.02532.46351396.02532h1.536783c.187972 0 .336629-.004.462998-.02532.126367-.02127.237013-.06274.318829-.144688.08181-.08195.122943-.192293.144169-.318829.02122-.126533.02532-.275685.02532-.46403v-1.031411-1.031412c0-.188345-.0041-.337496-.02532-.46403-.02122-.126536-.06236-.236877-.14417-.318828-.08182-.08195-.192462-.123422-.318829-.144688-.126369-.02127-.275026-.02532-.462998-.02532z" opacity=".3" stroke="#000" stroke-width=".26457"/><path clip-path="url(#b)" d="m325.09646 237c-2.80769 0-3.10979.28839-3.09603 3.10176v3.89824 3.89824c-.0138 2.81337.28834 3.10176 3.09603 3.10176h5.8075c2.8077 0 3.09604-.28835 3.09604-3.10176v-3.89824-3.89824c0-2.8134-.28835-3.10176-3.09604-3.10176z" opacity=".4" stroke="url(#a)" stroke-width="2" transform="matrix(.26457031 0 0 .26457031 -84.662368 -62.438595)"/></g></svg>