<svg height="16" viewBox="0 0 4.233125 4.233125" width="16" xmlns="http://www.w3.org/2000/svg" xmlns:xlink="http://www.w3.org/1999/xlink"><linearGradient id="a" gradientUnits="userSpaceOnUse" x1="328" x2="328" y1="237" y2="251"><stop offset="0" stop-color="#fff"/><stop offset=".125" stop-color="#fff" stop-opacity=".098039"/><stop offset=".92500001" stop-color="#fff" stop-opacity=".098039"/><stop offset="1" stop-color="#fff" stop-opacity=".498039"/></linearGradient><clipPath id="b"><path d="m325.09646 237c-2.80769 0-3.10979.28839-3.09603 3.10176v3.89824 3.89824c-.0138 2.81337.28834 3.10176 3.09603 3.10176h5.8075c2.8077 0 3.09604-.28835 3.09604-3.10176v-3.89824-3.89824c0-2.8134-.28835-3.10176-3.09604-3.10176z"/></clipPath><linearGradient id="c" gradientTransform="matrix(0 -.00953618 .00953591 0 -.942983 4.473639)" gradientUnits="userSpaceOnUse" x1="459.03448" x2="35.310345" y1="419.23337" y2="207.36522"><stop offset="0" stop-color="#f2f2f2"/><stop offset="1" stop-color="#f9f9f9"/></linearGradient><path d="m1.3483195.264567c-.1902369 0-.3444309.0037-.48573294.02739-.141304.02373-.28264.0731-.390656.180858-.108014.107759-.157835.24955-.181374.391169-.02355.141622-.02677.296446-.02585.487286v.765291 1.031411c-.000794.190004.0024.344563.02585.485735.02355.14162.07336.283411.181374.39117.108016.107762.249352.157139.390656.180858.14130204.02373.29549604.02739.48573294.02739h1.536783c.190237 0 .344095-.0036.485217-.02739.141124-.02376.282476-.07353.390138-.181374.107661-.107844.157165-.249413.180857-.390654.0237-.141243.02739-.29513.02739-.485735v-1.031411-.766841c0-.190605-.0037-.344492-.02739-.485736-.02368-.14124-.0732-.282809-.180858-.390654-.107662-.107844-.249014-.157625-.390138-.181373-.141122-.02375-.29498-.02739-.485217-.02739z" opacity=".1"/><path d="m1.3485205.264567c-.74283194 0-.82275794.0763-.81911794.820633v1.031359 1.031358c-.0037.744335.07629.820634.81911794.820634h1.536492c.742834 0 .81912-.07629.81912-.820634v-1.031358-1.031359c0-.744342-.07629-.820633-.81912-.820633z" fill="none" opacity=".2" stroke="#000" stroke-width=".529141"/><path d="m1.3485205.264567c-.74283194 0-.82275794.0763-.81911794.820633v1.031359 1.031358c-.0037.744335.07629.820634.81911794.820634h1.536492c.742834 0 .81912-.07629.81912-.820634v-1.031358-1.031359c0-.744342-.07629-.820633-.81912-.820633z" fill="url(#c)"/><path d="m2.1168585.793559-.604865.60457.604569.604569.60457-.604569zm-.71843.718726-.60456894.604274.60456894.60427.604271-.60427zm1.436863 0-.604569.604274.604569.60427.604271-.60427zm-.718433.718433-.604865.604271.604569.604569.60457-.604569z" fill="#37a6e6"/><path d="m2.1167105.264567v3.703984h.768392c.742834 0 .81903-.07624.81903-.820581v-1.031411-1.031412c0-.744342-.0762-.82058-.81903-.82058z" fill="#fff" opacity=".2"/><path d="m.52928856 2.116559v1.031411c-.0037.744334.0762.820581.81903094.820581h1.536783c.742834 0 .81903-.07624.81903-.820581v-1.031411z" fill="#fff" opacity=".2"/><path clip-path="url(#b)" d="m325.09646 237c-2.80769 0-3.10979.28839-3.09603 3.10176v3.89824 3.89824c-.0138 2.81337.28834 3.10176 3.09603 3.10176h5.8075c2.8077 0 3.09604-.28835 3.09604-3.10176v-3.89824-3.89824c0-2.8134-.28835-3.10176-3.09604-3.10176z" fill="none" opacity=".4" stroke="url(#a)" stroke-width="2" transform="matrix(.26457031 0 0 .26457031 -84.662351 -62.438598)"/></svg>