<svg height="16" width="16" xmlns="http://www.w3.org/2000/svg" xmlns:xlink="http://www.w3.org/1999/xlink"><linearGradient id="a" gradientUnits="userSpaceOnUse" x1="328" x2="328" y1="237" y2="251"><stop offset="0" stop-color="#fff"/><stop offset=".125" stop-color="#fff" stop-opacity=".098039"/><stop offset=".92500001" stop-color="#fff" stop-opacity=".098039"/><stop offset="1" stop-color="#fff" stop-opacity=".498039"/></linearGradient><clipPath id="b"><path d="m325.09646 237c-2.80769 0-3.10979.28839-3.09603 3.10176v3.89824 3.89824c-.0138 2.81337.28834 3.10176 3.09603 3.10176h5.8075c2.8077 0 3.09604-.28835 3.09604-3.10176v-3.89824-3.89824c0-2.8134-.28835-3.10176-3.09604-3.10176z"/></clipPath><linearGradient id="c" gradientTransform="matrix(0 -.03604403 .03604301 0 -3.564212 16.899555)" gradientUnits="userSpaceOnUse" x1="459.03448" x2="35.310345" y1="419.23337" y2="207.36522"><stop offset="0" stop-color="#f2f2f2"/><stop offset="1" stop-color="#f9f9f9"/></linearGradient><path d="m5.0962579.99046468c-.71904 0-1.30185.0139-1.83593.10352002-.53409.0897-1.0683.27628-1.47657.68359-.40826.4073-.5965701.94323-.6855401 1.47851-.089.53529-.10119002 1.12048-.0977 1.8418v2.89258 3.8984403c-.003.71816.009 1.30235.0977 1.83594.089.53528.2772701 1.07121.6855401 1.47851.40827.40731.94248.59394 1.47657.68359.53408.0897 1.11689.10352 1.83593.10352h5.8085991c.71904 0 1.30058-.0137 1.83398-.10352.53341-.0898 1.06768-.27792 1.47461-.68554s.59404-.94271.68359-1.47656c.08956-.53386.10352-1.11551.10352-1.83594v-3.8984403-2.89844c0-.72043-.014-1.30208-.10352-1.83594-.0895-.53385-.27666-1.06894-.68359-1.47656s-.9412-.59578-1.47461-.68554c-.5334-.08977-1.11494-.10352002-1.83398-.10352002z" opacity=".1"/><path d="m5.0970179.99046468c-2.80769 0-3.10979.28839002-3.09603 3.10176002v3.89824 3.8982403c-.0138 2.81337.28834 3.10176 3.09603 3.10176h5.8074991c2.8077 0 3.09604-.28835 3.09604-3.10176v-3.8982403-3.89824c0-2.8134-.28835-3.10176002-3.09604-3.10176002z" fill="none" opacity=".2" stroke="#000" stroke-width="2"/><path d="m5.0970179.99046468c-2.80769 0-3.10979.28839002-3.09603 3.10176002v3.89824 3.8982403c-.0138 2.81337.28834 3.10176 3.09603 3.10176h5.8074991c2.8077 0 3.09604-.28835 3.09604-3.10176v-3.8982403-3.89824c0-2.8134-.28835-3.10176002-3.09604-3.10176002z" fill="url(#c)"/><path d="m10.787777 3.8317147c-.0655-.004-.1426.00087-.23345.009l-4.1033391.64034c-.46293.0472-.51327.26324-.50917.53252v5.4184903c-.23529-.15457-.4871-.26459-.82266-.26459-.43208 0-.69003.16563-.84602.38354-.15597.21792-.20789.4925-.20789.70482 0 .25605.0883.52883.27794.73708.18964.20823.48126.35462.90048.35463.4734 0 .80563-.13204.99387-.39021.14821-.20327.2309-.47548.26014-.81044.004-.0406.007-.0827.009-.12562.003-.034.003-.0579.003-.0978h.002v-4.3845903c.0126-.35255.3324-.40466.3324-.40466l3.3318091-.52028c.31984-.0978.32018.29794.32018.29794v3.95102c-.2353-.15457-.487109-.26458-.8226591-.26458-.4321 0-.69004.16562-.84602.38353-.15598.2179303-.20791.4924903-.20791.7048303 0 .25605.0883.52883.27795.73706.18965.20825.48125.35464.90048.35465.4733991 0 .8056291-.13206.9938791-.39022.1482-.20326.23088-.47548.26012-.81043.004-.0407.007-.0827.009-.12563.003-.034.003-.0579.003-.0978h.002v-6.0154903c.007-.39026-.0799-.49302-.27681-.50694z" fill="#ec3c50" fill-rule="evenodd" opacity=".8"/><path d="m8.0005579.99046468v14.00000032h2.9042991c2.8077 0 3.0957-.28815 3.0957-3.10156v-3.8984403-3.89844c0-2.8134-.28801-3.10156002-3.0957-3.10156002z" fill="#fff" opacity=".2"/><path d="m2.0005579 7.9904647v3.8984403c-.0138 2.81337.28801 3.10156 3.0957 3.10156h5.8085991c2.8077 0 3.0957-.28815 3.0957-3.10156v-3.8984403z" fill="#fff" opacity=".2"/><path clip-path="url(#b)" d="m325.09646 237c-2.80769 0-3.10979.28839-3.09603 3.10176v3.89824 3.89824c-.0138 2.81337.28834 3.10176 3.09603 3.10176h5.8075c2.8077 0 3.09604-.28835 3.09604-3.10176v-3.89824-3.89824c0-2.8134-.28835-3.10176-3.09604-3.10176z" fill="none" opacity=".4" stroke="url(#a)" stroke-width="2" transform="translate(-319.99944 -236.00953)"/></svg>