<?xml version="1.0" encoding="UTF-8" standalone="no"?>
<svg
   xmlns:dc="http://purl.org/dc/elements/1.1/"
   xmlns:cc="http://creativecommons.org/ns#"
   xmlns:rdf="http://www.w3.org/1999/02/22-rdf-syntax-ns#"
   xmlns:svg="http://www.w3.org/2000/svg"
   xmlns="http://www.w3.org/2000/svg"
   xmlns:xlink="http://www.w3.org/1999/xlink"
   xmlns:sodipodi="http://sodipodi.sourceforge.net/DTD/sodipodi-0.dtd"
   xmlns:inkscape="http://www.inkscape.org/namespaces/inkscape"
   height="16"
   viewBox="0 0 4.233125 4.2331253"
   width="16"
   version="1.1"
   id="svg33"
   sodipodi:docname="application-x-shellscript.svg"
   inkscape:version="0.92.5 (2060ec1f9f, 2020-04-08)">
  <metadata
     id="metadata39">
    <rdf:RDF>
      <cc:Work
         rdf:about="">
        <dc:format>image/svg+xml</dc:format>
        <dc:type
           rdf:resource="http://purl.org/dc/dcmitype/StillImage" />
        <dc:title></dc:title>
      </cc:Work>
    </rdf:RDF>
  </metadata>
  <defs
     id="defs37">
    <linearGradient
       gradientTransform="matrix(0.26457032,0,0,0.26457032,-84.662354,-62.438598)"
       inkscape:collect="always"
       xlink:href="#linearGradient927"
       id="linearGradient993"
       x1="328"
       y1="237"
       x2="328"
       y2="251"
       gradientUnits="userSpaceOnUse" />
    <linearGradient
       inkscape:collect="always"
       id="linearGradient927">
      <stop
         style="stop-color:#ffffff;stop-opacity:1;"
         offset="0"
         id="stop923" />
      <stop
         id="stop933"
         offset="0.125"
         style="stop-color:#ffffff;stop-opacity:0.09803922" />
      <stop
         id="stop931"
         offset="0.92500001"
         style="stop-color:#ffffff;stop-opacity:0.09803922" />
      <stop
         style="stop-color:#ffffff;stop-opacity:0.49803922"
         offset="1"
         id="stop925" />
    </linearGradient>
    <linearGradient
       inkscape:collect="always"
       xlink:href="#linearGradient4338"
       id="linearGradient920"
       gradientUnits="userSpaceOnUse"
       gradientTransform="matrix(0,-0.00953618,0.00953591,0,-0.94298438,4.4736421)"
       x1="459.03448"
       y1="419.23337"
       x2="35.310345"
       y2="207.36522" />
    <linearGradient
       inkscape:collect="always"
       id="linearGradient4338">
      <stop
         style="stop-color:#f2f2f2;stop-opacity:1"
         offset="0"
         id="stop4340" />
      <stop
         style="stop-color:#f9f9f9;stop-opacity:1"
         offset="1"
         id="stop4342" />
    </linearGradient>
  </defs>
  <sodipodi:namedview
     pagecolor="#ffffff"
     bordercolor="#666666"
     borderopacity="1"
     objecttolerance="10"
     gridtolerance="10"
     guidetolerance="10"
     inkscape:pageopacity="0"
     inkscape:pageshadow="2"
     inkscape:window-width="834"
     inkscape:window-height="480"
     id="namedview35"
     showgrid="false"
     inkscape:zoom="4.9166667"
     inkscape:cx="24"
     inkscape:cy="24"
     inkscape:window-x="0"
     inkscape:window-y="28"
     inkscape:window-maximized="0"
     inkscape:current-layer="svg33" />
  <linearGradient
     id="a"
     gradientUnits="userSpaceOnUse"
     x1="344"
     x2="344"
     y1="62"
     y2="106">
    <stop
       offset="0"
       stop-color="#fff"
       id="stop2" />
    <stop
       offset=".125"
       stop-color="#fff"
       stop-opacity=".098039"
       id="stop4" />
    <stop
       offset=".92500001"
       stop-color="#fff"
       stop-opacity=".098039"
       id="stop6" />
    <stop
       offset="1"
       stop-color="#fff"
       stop-opacity=".498039"
       id="stop8" />
  </linearGradient>
  <clipPath
     id="b">
    <path
       d="m 335.73108,62 c -8.82418,0 -9.77365,0.90635 -9.7304,9.74838 V 84 96.25162 c -0.0433,8.84203 0.90622,9.74838 9.7304,9.74838 h 16.53919 c 8.82418,0 9.7304,-0.90625 9.7304,-9.74838 V 84 71.74838 C 362.00067,62.90625 361.09445,62 352.27027,62 Z"
       id="path11"
       inkscape:connector-curvature="0" />
  </clipPath>
  <linearGradient
     id="c"
     gradientTransform="matrix(0,-0.02997086,0.02997,0,-3.039509,13.625372)"
     gradientUnits="userSpaceOnUse"
     x1="459.03448"
     x2="35.310345"
     y1="419.23337"
     y2="207.36522">
    <stop
       offset="0"
       stop-color="#f2f2f2"
       id="stop14" />
    <stop
       offset="1"
       stop-color="#f9f9f9"
       id="stop16" />
  </linearGradient>
  <path
     style="color:#000000;font-style:normal;font-variant:normal;font-weight:normal;font-stretch:normal;font-size:medium;line-height:normal;font-family:sans-serif;font-variant-ligatures:normal;font-variant-position:normal;font-variant-caps:normal;font-variant-numeric:normal;font-variant-alternates:normal;font-feature-settings:normal;text-indent:0;text-align:start;text-decoration:none;text-decoration-line:none;text-decoration-style:solid;text-decoration-color:#000000;letter-spacing:normal;word-spacing:normal;text-transform:none;writing-mode:lr-tb;direction:ltr;text-orientation:mixed;dominant-baseline:auto;baseline-shift:baseline;text-anchor:start;white-space:normal;shape-padding:0;clip-rule:nonzero;display:inline;overflow:visible;visibility:visible;opacity:0.1;isolation:auto;mix-blend-mode:normal;color-interpolation:sRGB;color-interpolation-filters:linearRGB;solid-color:#000000;solid-opacity:1;vector-effect:none;fill:#000000;fill-opacity:1;fill-rule:nonzero;stroke:none;stroke-width:0.52914065;stroke-linecap:butt;stroke-linejoin:miter;stroke-miterlimit:4;stroke-dasharray:none;stroke-dashoffset:0;stroke-opacity:1;marker:none;color-rendering:auto;image-rendering:auto;shape-rendering:auto;text-rendering:auto;enable-background:accumulate"
     d="m 1.3483189,0.26456852 c -0.1902366,0 -0.3444309,0.00368 -0.48573258,0.027388 -0.1413043,0.0237323 -0.2826405,0.0730958 -0.3906566,0.180858 -0.1080135,0.1077595 -0.1578347,0.2495507 -0.1813735,0.3911699 -0.023547,0.14162178 -0.026772,0.29644568 -0.025849,0.48728558 v 0.7652908 1.0314113 c -7.937e-4,0.190004 0.00238,0.344563 0.025849,0.485736 0.023547,0.141619 0.073357,0.28341 0.1813735,0.391169 0.1080161,0.107763 0.2493523,0.157139 0.3906566,0.180858 0.14130168,0.02373 0.29549598,0.02739 0.48573258,0.02739 h 1.5367832 c 0.1902367,0 0.344095,-0.0036 0.4852168,-0.02739 0.1411244,-0.02376 0.2824764,-0.07353 0.390138,-0.181374 0.1076616,-0.107844 0.1571654,-0.249413 0.1808576,-0.390653 0.023695,-0.141244 0.027388,-0.295131 0.027388,-0.485736 V 2.1165608 1.3228498 L 2.9104216,0.26456852 Z"
     id="path997"
     inkscape:connector-curvature="0"
     sodipodi:nodetypes="scscccccccsscscscccs" />
  <path
     sodipodi:nodetypes="scccssscccs"
     inkscape:connector-curvature="0"
     id="path928"
     d="m 1.34852,0.26456852 c -0.74283148,0 -0.82275818,0.076299 -0.81911768,0.82063368 v 1.0313586 1.0313583 c -0.00365,0.744335 0.076286,0.820634 0.81911768,0.820634 h 1.5364922 c 0.7428341,0 0.8191203,-0.07629 0.8191203,-0.820634 V 2.1165608 1.0582795 L 2.9104216,0.26456852 Z"
     style="color:#000000;display:inline;overflow:visible;visibility:visible;opacity:0.2;fill:none;fill-opacity:1;fill-rule:nonzero;stroke:#000000;stroke-width:0.52914065;stroke-miterlimit:4;stroke-dasharray:none;stroke-opacity:1;marker:none;enable-background:accumulate" />
  <path
     style="color:#000000;display:inline;overflow:visible;visibility:visible;fill:url(#linearGradient920);fill-opacity:1;fill-rule:nonzero;stroke:none;stroke-width:0.26457033;marker:none;enable-background:accumulate"
     d="m 1.34852,0.26456852 c -0.74283148,0 -0.82275818,0.076299 -0.81911768,0.82063368 v 1.0313586 1.0313583 c -0.00365,0.744335 0.076286,0.820634 0.81911768,0.820634 h 1.5364922 c 0.7428341,0 0.8191203,-0.07629 0.8191203,-0.820634 V 2.1165608 1.0582795 L 2.9104216,0.26456852 Z"
     id="path918"
     inkscape:connector-curvature="0"
     sodipodi:nodetypes="scccssscccs" />
  <path
     style="font-style:normal;font-variant:normal;font-weight:500;font-stretch:normal;font-size:299.10678101px;line-height:125%;font-family:Ubuntu;-inkscape-font-specification:'Ubuntu Medium';text-align:center;letter-spacing:0px;word-spacing:0px;writing-mode:lr-tb;text-anchor:middle;display:inline;fill:#999999;fill-opacity:1;stroke:none;stroke-width:0.26457033;enable-background:new"
     d="M 1.1337788,1.6999684 1.058334,1.9268162 1.8225904,2.2332442 1.058334,2.5396696 1.1337788,2.7660021 2.1166153,2.3495097 V 2.1164602 Z m 0.9828365,1.2102027 v 0.260438 h 1.0582813 v -0.260438 z"
     id="path975"
     inkscape:connector-curvature="0"
     sodipodi:nodetypes="ccccccccccccc" />
  <path
     style="color:#000000;display:inline;overflow:visible;visibility:visible;opacity:0.2;fill:#ffffff;fill-opacity:1;fill-rule:nonzero;stroke:none;stroke-width:0.26457033;marker:none;enable-background:accumulate"
     d="M 2.1167105,0.26456852 V 3.9685531 h 0.7683916 c 0.7428342,0 0.8190304,-0.07624 0.8190304,-0.820581 V 2.1165608 1.0582795 L 2.9104216,0.26456852 Z"
     id="path1009"
     inkscape:connector-curvature="0"
     sodipodi:nodetypes="ccsscccc" />
  <path
     style="color:#000000;display:inline;overflow:visible;visibility:visible;opacity:0.2;fill:#ffffff;fill-opacity:1;fill-rule:nonzero;stroke:none;stroke-width:0.26457033;marker:none;enable-background:accumulate"
     d="m 0.52928862,2.1165608 v 1.0314113 c -0.00365,0.744334 0.076199,0.820581 0.81903028,0.820581 h 1.5367832 c 0.7428342,0 0.8190304,-0.07624 0.8190304,-0.820581 V 2.1165608 Z"
     id="path1016"
     inkscape:connector-curvature="0" />
  <path
     style="color:#000000;font-style:normal;font-variant:normal;font-weight:normal;font-stretch:normal;font-size:medium;line-height:normal;font-family:sans-serif;font-variant-ligatures:normal;font-variant-position:normal;font-variant-caps:normal;font-variant-numeric:normal;font-variant-alternates:normal;font-feature-settings:normal;text-indent:0;text-align:start;text-decoration:none;text-decoration-line:none;text-decoration-style:solid;text-decoration-color:#000000;letter-spacing:normal;word-spacing:normal;text-transform:none;writing-mode:lr-tb;direction:ltr;text-orientation:mixed;dominant-baseline:auto;baseline-shift:baseline;text-anchor:start;white-space:normal;shape-padding:0;clip-rule:nonzero;display:inline;overflow:visible;visibility:visible;opacity:0.4;isolation:auto;mix-blend-mode:normal;color-interpolation:sRGB;color-interpolation-filters:linearRGB;solid-color:#000000;solid-opacity:1;vector-effect:none;fill:url(#linearGradient993);fill-opacity:1;fill-rule:nonzero;stroke:none;stroke-width:0.52914065;stroke-linecap:butt;stroke-linejoin:miter;stroke-miterlimit:4;stroke-dasharray:none;stroke-dashoffset:0;stroke-opacity:1;marker:none;color-rendering:auto;image-rendering:auto;shape-rendering:auto;text-rendering:auto;enable-background:accumulate"
     clip-path="none"
     d="m 1.3483189,0.26456852 c -0.74283138,0 -0.82267078,0.076246 -0.81903028,0.82058078 v 1.0314115 1.0314113 c -0.00365,0.744334 0.076199,0.820581 0.81903028,0.820581 h 1.5367832 c 0.7428342,0 0.8190304,-0.07624 0.8190304,-0.820581 V 2.1165608 1.0582795 L 2.9104216,0.26456852 Z m 0,0.2645704 H 2.9104216 L 3.4395622,1.0582795 v 1.0582813 1.0314113 c 0,0.181567 -0.00582,0.315998 -0.019631,0.398406 -0.013811,0.08241 -0.029841,0.09959 -0.034103,0.103865 -0.00426,0.0043 -0.021245,0.02029 -0.1033491,0.0341 -0.082112,0.01382 -0.2161963,0.01964 -0.3973768,0.01964 H 1.3483189 c -0.1811777,0 -0.3153969,-0.0063 -0.39788728,-0.02016 -0.082493,-0.01384 -0.1000155,-0.02923 -0.1043809,-0.03359 -0.00437,-0.0044 -0.019949,-0.02132 -0.03359,-0.103349 -0.013625,-0.08203 -0.019499,-0.216564 -0.018599,-0.39789 V 3.1484671 2.1165608 1.0846333 1.0841042 c -7.937e-4,-0.18132848 0.00497,-0.31585988 0.018599,-0.39788988 0.013625,-0.08203 0.029222,-0.098992 0.03359,-0.1033491 0.00436,-0.00436 0.02188,-0.019737 0.104381,-0.033587 0.08249,-0.013837 0.21670948,-0.02016 0.39788728,-0.02016 z"
     id="path937"
     inkscape:connector-curvature="0"
     sodipodi:nodetypes="scccssscccsscccscccssccccccccsccs" />
  <path
     inkscape:connector-curvature="0"
     style="color:#000000;display:inline;overflow:visible;visibility:visible;opacity:0.2;fill:#000000;fill-opacity:1;fill-rule:nonzero;stroke:none;stroke-width:0.06614864;marker:none;enable-background:accumulate"
     d="M 3.7041325,1.3228498 V 1.0582795 L 2.9104216,0.26456852 H 2.6458512 v 0.4049434 0.01553 0.00833 c 0,0.54761028 0.073304,0.63205048 0.6221715,0.62936508 z"
     id="rect4158-0-3-62-2-3-7-3"
     sodipodi:nodetypes="ccccccscc" />
  <path
     inkscape:connector-curvature="0"
     style="color:#000000;display:inline;overflow:visible;visibility:visible;fill:#faf8f6;fill-opacity:1;fill-rule:nonzero;stroke:none;stroke-width:0.06614864;marker:none;enable-background:accumulate"
     d="M 3.7041325,1.058179 2.9104216,0.26456852 v 0.2943848 0.012832 0.00688 c 0,0.45177758 0.020822,0.48176398 0.4736364,0.47954948 z"
     id="rect4158-0-3-62-6-5-5"
     sodipodi:nodetypes="ccccscc" />
</svg>
