<svg id="svg41" height="16" viewBox="0 0 4.233125 4.233125" width="16" xmlns="http://www.w3.org/2000/svg" xmlns:xlink="http://www.w3.org/1999/xlink">
  <linearGradient id="linearGradient993" gradientUnits="userSpaceOnUse" x1="2.11671168" x2="2.11671168" y1=".26457047" y2="3.96855481">
    <stop id="stop923" offset="0" stop-color="#fff"/>
    <stop id="stop933" offset=".125" stop-color="#fff" stop-opacity=".098039"/>
    <stop id="stop931" offset=".92500001" stop-color="#fff" stop-opacity=".098039"/>
    <stop id="stop925" offset="1" stop-color="#fff" stop-opacity=".498039"/>
  </linearGradient>
  <linearGradient id="linearGradient920" gradientTransform="matrix(0 -.00953618 .00953591 0 -.942984 4.473643)" gradientUnits="userSpaceOnUse" x1="459.03448" x2="35.310345" y1="419.23337" y2="207.36522">
    <stop id="stop4340" offset="0" stop-color="#f2f2f2"/>
    <stop id="stop4342" offset="1" stop-color="#f9f9f9"/>
  </linearGradient>
  <path id="path997" d="m1.3483189.26457023c-.1902367 0-.3444309.003678-.48573259.0273883-.1413044.023732-.2826405.0730955-.3906566.18085764-.1080135.10775949-.1578347.24955066-.1813735.3911699-.023547.14162183-.026772.29644573-.025849.48728563v.7652908 1.0314115c-.0007937.1900038.00238.3445631.025849.4857352.023547.1416192.073357.2834104.1813735.3911699.1080161.1077621.2493522.1571389.3906566.1808576.14130169.023732.29549589.027388.48573259.027388h1.5367831c.1902367 0 .3440949-.00362.4852167-.027388.1411245-.0237584.2824765-.0735294.3901381-.1813736.1076616-.1078441.1571653-.249413.1808576-.3906539.0236949-.1412435.0273883-.2951308.0273883-.4857352v-1.0314115-.7937109l-1.0582812-1.05828137z" opacity=".1"/>
  <path id="path928" d="m1.34852.26457023c-.74283149 0-.82275819.0762994-.81911769.82063367v1.0313586 1.0313586c-.00365.7443342.076286.8206336.81911769.8206336h1.5364921c.7428341 0 .8191203-.076289.8191203-.8206336v-1.0313586-1.0582813l-.7937109-.79371097z" fill="none" opacity=".2" stroke="#000" stroke-width=".529141"/>
  <path id="path918" d="m1.34852.26457023c-.74283149 0-.82275819.0762994-.81911769.82063367v1.0313586 1.0313586c-.00365.7443342.076286.8206336.81911769.8206336h1.5364921c.7428341 0 .8191203-.076289.8191203-.8206336v-1.0313586-1.0582813l-.7937109-.79371097z" fill="url(#linearGradient920)"/>
  <path id="path4583" d="m.65424251 2.7781761h.52798969l.1291633-.7479376.5153406 1.1686494.3220826-.7011907.1288352.2804763.1288351.2571015.1288352-.2571015h1.0436585" fill="none" stroke="#5d5d5d" stroke-linecap="square" stroke-width=".26457"/>
  <path id="path1009" d="m2.1167105.26457023v3.70398447h.7683915c.7428341 0 .8190304-.076236.8190304-.8205807v-1.0314115-1.0582813l-.7937109-.79371097z" fill="#fff" opacity=".2"/>
  <path id="path1016" d="m.52928861 2.1165625v1.0314115c-.00365.7443342.076199.8205807.81903029.8205807h1.5367831c.7428341 0 .8190304-.076236.8190304-.8205807v-1.0314115z" fill="#fff" opacity=".2"/>
  <path id="path937" d="m1.3483189.26457023c-.74283139 0-.82267079.0762465-.81903029.82058077v1.0314115 1.0314115c-.00365.7443342.076199.8205807.81903029.8205807h1.5367831c.7428341 0 .8190304-.076236.8190304-.8205807v-1.0314115-1.0582813l-.7937109-.79371097zm0 .26457031h1.5621026l.5291406.52914066v1.0582813 1.0314115c0 .1815667-.00582.3159975-.019631.3984058-.013811.082406-.029841.09959-.034103.1038651-.00426.00426-.021245.020293-.1033491.034103-.082112.013816-.2161962.019636-.3973767.019636h-1.5367834c-.1811778 0-.3153969-.0063-.39788729-.02016-.082493-.013837-.1000155-.029235-.1043809-.033587-.00436-.00437-.019949-.021324-.03359-.1033491-.013625-.08203-.019499-.216564-.018599-.3978899v-.0005292-1.0319062-1.0319274-.0005291c-.0007938-.18132863.00497-.31586003.018599-.39789006.013625-.08203.029222-.0989916.03359-.1033491.00436-.004365.02188-.0197369.1043809-.0335872.08249-.013837.21670949-.0201603.39788729-.0201603z" fill="url(#linearGradient993)" opacity=".4"/>
  <path id="rect4158-0-3-62-2-3-7-3" d="m3.7041324 1.3228516v-.2645704l-.7937109-.79371097h-.2645704v.40494339.0155303.008334c0 .54761038.073304.63205068.6221715.62936528z" opacity=".2"/>
  <path id="rect4158-0-3-62-6-5-5" d="m3.7041324 1.0581807-.7937109-.79361047v.29438474.0128317.006879c0 .45177773.020822.48176413.4736364.47954963z" fill="#faf8f6"/>
</svg>
