<?xml version="1.0" encoding="UTF-8" standalone="no"?>
<svg
   xmlns:dc="http://purl.org/dc/elements/1.1/"
   xmlns:cc="http://creativecommons.org/ns#"
   xmlns:rdf="http://www.w3.org/1999/02/22-rdf-syntax-ns#"
   xmlns:svg="http://www.w3.org/2000/svg"
   xmlns="http://www.w3.org/2000/svg"
   xmlns:xlink="http://www.w3.org/1999/xlink"
   xmlns:sodipodi="http://sodipodi.sourceforge.net/DTD/sodipodi-0.dtd"
   xmlns:inkscape="http://www.inkscape.org/namespaces/inkscape"
   height="16"
   viewBox="0 0 4.233125 4.233125"
   width="16"
   version="1.1"
   id="svg47"
   sodipodi:docname="text-x-bibtex.svg"
   inkscape:version="0.92.5 (2060ec1f9f, 2020-04-08)">
  <metadata
     id="metadata53">
    <rdf:RDF>
      <cc:Work
         rdf:about="">
        <dc:format>image/svg+xml</dc:format>
        <dc:type
           rdf:resource="http://purl.org/dc/dcmitype/StillImage" />
      </cc:Work>
    </rdf:RDF>
  </metadata>
  <defs
     id="defs51">
    <linearGradient
       gradientTransform="matrix(0.26457862,0,0,0.26457004,-84.665017,-62.43853)"
       inkscape:collect="always"
       xlink:href="#linearGradient927"
       id="linearGradient993"
       x1="328"
       y1="237"
       x2="328"
       y2="251"
       gradientUnits="userSpaceOnUse" />
    <linearGradient
       inkscape:collect="always"
       id="linearGradient927">
      <stop
         style="stop-color:#ffffff;stop-opacity:1;"
         offset="0"
         id="stop923" />
      <stop
         id="stop933"
         offset="0.125"
         style="stop-color:#ffffff;stop-opacity:0.09803922" />
      <stop
         id="stop931"
         offset="0.92500001"
         style="stop-color:#ffffff;stop-opacity:0.09803922" />
      <stop
         style="stop-color:#ffffff;stop-opacity:0.49803922"
         offset="1"
         id="stop925" />
    </linearGradient>
    <linearGradient
       inkscape:collect="always"
       xlink:href="#linearGradient4338"
       id="linearGradient920"
       gradientUnits="userSpaceOnUse"
       gradientTransform="matrix(0,-0.00953617,0.00953621,0,-0.94302199,4.4736387)"
       x1="459.03448"
       y1="419.23337"
       x2="35.310345"
       y2="207.36522" />
    <linearGradient
       inkscape:collect="always"
       id="linearGradient4338">
      <stop
         style="stop-color:#f2f2f2;stop-opacity:1"
         offset="0"
         id="stop4340" />
      <stop
         style="stop-color:#f9f9f9;stop-opacity:1"
         offset="1"
         id="stop4342" />
    </linearGradient>
  </defs>
  <sodipodi:namedview
     pagecolor="#ffffff"
     bordercolor="#666666"
     borderopacity="1"
     objecttolerance="10"
     gridtolerance="10"
     guidetolerance="10"
     inkscape:pageopacity="0"
     inkscape:pageshadow="2"
     inkscape:window-width="1920"
     inkscape:window-height="1024"
     id="namedview49"
     showgrid="false"
     inkscape:zoom="14.75"
     inkscape:cx="8"
     inkscape:cy="8"
     inkscape:window-x="0"
     inkscape:window-y="28"
     inkscape:window-maximized="1"
     inkscape:current-layer="svg47" />
  <linearGradient
     id="a"
     gradientTransform="matrix(0 -.00953618 .00953591 0 -.942984 4.47364)"
     gradientUnits="userSpaceOnUse"
     x1="459.03448"
     x2="35.310345"
     y1="419.23337"
     y2="207.36522">
    <stop
       offset="0"
       stop-color="#f2f2f2"
       id="stop2" />
    <stop
       offset="1"
       stop-color="#f9f9f9"
       id="stop4" />
  </linearGradient>
  <linearGradient
     id="b"
     gradientUnits="userSpaceOnUse"
     x1="328"
     x2="328"
     y1="237"
     y2="251">
    <stop
       offset="0"
       stop-color="#fff"
       id="stop7" />
    <stop
       offset=".125"
       stop-color="#fff"
       stop-opacity=".098039"
       id="stop9" />
    <stop
       offset=".92500001"
       stop-color="#fff"
       stop-opacity=".098039"
       id="stop11" />
    <stop
       offset="1"
       stop-color="#fff"
       stop-opacity=".498039"
       id="stop13" />
  </linearGradient>
  <clipPath
     id="c">
    <path
       d="m325.09646 237c-2.80769 0-3.10979.28839-3.09603 3.10176v3.89824 3.89824c-.0138 2.81337.28834 3.10176 3.09603 3.10176h5.8075c2.8077 0 3.09604-.28835 3.09604-3.10176v-3.89824-3.89824c0-2.8134-.28835-3.10176-3.09604-3.10176z"
       id="path16" />
  </clipPath>
  <path
     style="color:#000000;font-style:normal;font-variant:normal;font-weight:normal;font-stretch:normal;font-size:medium;line-height:normal;font-family:sans-serif;font-variant-ligatures:normal;font-variant-position:normal;font-variant-caps:normal;font-variant-numeric:normal;font-variant-alternates:normal;font-feature-settings:normal;text-indent:0;text-align:start;text-decoration:none;text-decoration-line:none;text-decoration-style:solid;text-decoration-color:#000000;letter-spacing:normal;word-spacing:normal;text-transform:none;writing-mode:lr-tb;direction:ltr;text-orientation:mixed;dominant-baseline:auto;baseline-shift:baseline;text-anchor:start;white-space:normal;shape-padding:0;clip-rule:nonzero;display:inline;overflow:visible;visibility:visible;opacity:0.1;isolation:auto;mix-blend-mode:normal;color-interpolation:sRGB;color-interpolation-filters:linearRGB;solid-color:#000000;solid-opacity:1;vector-effect:none;fill:#000000;fill-opacity:1;fill-rule:nonzero;stroke:none;stroke-width:0.5291487;stroke-linecap:butt;stroke-linejoin:miter;stroke-miterlimit:4;stroke-dasharray:none;stroke-dashoffset:0;stroke-opacity:1;marker:none;color-rendering:auto;image-rendering:auto;shape-rendering:auto;text-rendering:auto;enable-background:accumulate"
     d="m 1.348353,0.26456995 c -0.1902426,0 -0.3444416,0.00368 -0.48574778,0.027388 -0.14130885,0.023732 -0.28264939,0.0730949 -0.39066889,0.1808574 -0.1080169,0.1077594 -0.15783966,0.2495505 -0.1813793,0.3911695 C 0.26700929,1.0056066 0.26378418,1.1604303 0.26470721,1.35127 v 0.76529 1.0314105 c -7.9372e-4,0.1900036 0.00238,0.3445628 0.0258498,0.4857347 0.0235477,0.1416191 0.0733593,0.2834101 0.1813793,0.3911695 0.1080195,0.107762 0.24936004,0.1571388 0.39066889,0.1808574 0.1413062,0.023732 0.2955052,0.027388 0.4857478,0.027388 h 1.5368314 c 0.1902427,0 0.3441057,-0.00362 0.485232,-0.027388 0.141129,-0.023759 0.2824854,-0.07353 0.3901504,-0.1813737 C 3.8682318,3.9165144 3.917737,3.7749457 3.9414301,3.6337049 3.9651257,3.4924616 3.9688192,3.3385744 3.9688192,3.1479702 V 2.1165603 1.3228503 L 2.9105047,0.26456995 Z"
     id="path997"
     inkscape:connector-curvature="0"
     sodipodi:nodetypes="scscccccccsscscscccs" />
  <path
     sodipodi:nodetypes="scccssscccs"
     inkscape:connector-curvature="0"
     id="path928"
     d="m 1.3485541,0.26456995 c -0.74285476,0 -0.82278398,0.076299 -0.81914336,0.82063285 v 1.0313575 1.0313576 c -0.00365,0.7443334 0.0762884,0.8206328 0.81914336,0.8206328 h 1.5365404 c 0.7428575,0 0.8191461,-0.076289 0.8191461,-0.8206328 V 2.1165603 1.0582801 L 2.9105047,0.26456995 Z"
     style="color:#000000;display:inline;overflow:visible;visibility:visible;opacity:0.2;fill:none;fill-opacity:1;fill-rule:nonzero;stroke:#000000;stroke-width:0.5291487;stroke-miterlimit:4;stroke-dasharray:none;stroke-opacity:1;marker:none;enable-background:accumulate" />
  <path
     style="color:#000000;display:inline;overflow:visible;visibility:visible;fill:url(#linearGradient920);fill-opacity:1;fill-rule:nonzero;stroke:none;stroke-width:0.26457435;marker:none;enable-background:accumulate"
     d="m 1.3485541,0.26456995 c -0.74285476,0 -0.82278398,0.076299 -0.81914336,0.82063285 v 1.0313575 1.0313576 c -0.00365,0.7443334 0.0762884,0.8206328 0.81914336,0.8206328 h 1.5365404 c 0.7428575,0 0.8191461,-0.076289 0.8191461,-0.8206328 V 2.1165603 1.0582801 L 2.9105047,0.26456995 Z"
     id="path918"
     inkscape:connector-curvature="0"
     sodipodi:nodetypes="scccssscccs" />
  <path
     style="color:#000000;display:inline;overflow:visible;visibility:visible;opacity:0.2;fill:#ffffff;fill-opacity:1;fill-rule:nonzero;stroke:none;stroke-width:0.26457435;marker:none;enable-background:accumulate"
     d="M 2.1167688,0.26456995 V 3.9685507 h 0.7684156 c 0.7428575,0 0.8190562,-0.076236 0.8190562,-0.8205799 V 2.1165603 1.0582801 L 2.9105047,0.26456995 Z"
     id="path1009"
     inkscape:connector-curvature="0"
     sodipodi:nodetypes="ccsscccc" />
  <path
     style="color:#000000;display:inline;overflow:visible;visibility:visible;opacity:0.2;fill:#ffffff;fill-opacity:1;fill-rule:nonzero;stroke:none;stroke-width:0.26457435;marker:none;enable-background:accumulate"
     d="m 0.52929693,2.1165603 v 1.0314105 c -0.00365,0.7443334 0.0762014,0.8205799 0.81905607,0.8205799 h 1.5368314 c 0.7428575,0 0.8190562,-0.076236 0.8190562,-0.8205799 V 2.1165603 Z"
     id="path1016"
     inkscape:connector-curvature="0" />
  <path
     style="color:#000000;font-style:normal;font-variant:normal;font-weight:normal;font-stretch:normal;font-size:medium;line-height:normal;font-family:sans-serif;font-variant-ligatures:normal;font-variant-position:normal;font-variant-caps:normal;font-variant-numeric:normal;font-variant-alternates:normal;font-feature-settings:normal;text-indent:0;text-align:start;text-decoration:none;text-decoration-line:none;text-decoration-style:solid;text-decoration-color:#000000;letter-spacing:normal;word-spacing:normal;text-transform:none;writing-mode:lr-tb;direction:ltr;text-orientation:mixed;dominant-baseline:auto;baseline-shift:baseline;text-anchor:start;white-space:normal;shape-padding:0;clip-rule:nonzero;display:inline;overflow:visible;visibility:visible;opacity:0.4;isolation:auto;mix-blend-mode:normal;color-interpolation:sRGB;color-interpolation-filters:linearRGB;solid-color:#000000;solid-opacity:1;vector-effect:none;fill:url(#linearGradient993);fill-opacity:1;fill-rule:nonzero;stroke:none;stroke-width:0.5291487;stroke-linecap:butt;stroke-linejoin:miter;stroke-miterlimit:4;stroke-dasharray:none;stroke-dashoffset:0;stroke-opacity:1;marker:none;color-rendering:auto;image-rendering:auto;shape-rendering:auto;text-rendering:auto;enable-background:accumulate"
     clip-path="none"
     d="m 1.348353,0.26456995 c -0.74285477,0 -0.82269668,0.076247 -0.81905607,0.82057995 v 1.0314104 1.0314105 c -0.00365,0.7443334 0.0762014,0.8205799 0.81905607,0.8205799 h 1.5368314 c 0.7428575,0 0.8190562,-0.076236 0.8190562,-0.8205799 V 2.1165603 1.0582801 L 2.9105047,0.26456995 Z m 0,0.2645701 H 2.9105047 L 3.439662,1.0582801 v 1.0582802 1.0314105 c 0,0.1815665 -0.00582,0.3159972 -0.019632,0.3984054 -0.013811,0.082406 -0.029842,0.09959 -0.034104,0.103865 -0.00426,0.00426 -0.021246,0.020293 -0.1033524,0.034103 -0.082115,0.013816 -0.216203,0.019636 -0.3973892,0.019636 H 1.348353 c -0.1811834,0 -0.3154068,-0.0063 -0.39789972,-0.02016 C 0.86795768,3.6699832 0.85043453,3.6545852 0.846069,3.6502332 0.84170886,3.6458632 0.82611937,3.6289092 0.81247794,3.5468842 0.79885251,3.4648543 0.79297833,3.3303204 0.79387835,3.1489947 V 3.1484655 2.1165603 1.084634 1.0841049 c -7.9372e-4,-0.18132845 0.00497,-0.31585975 0.0185996,-0.39788965 0.0136254,-0.08203 0.0292229,-0.098992 0.0335911,-0.103349 0.00436,-0.00436 0.0218807,-0.019737 0.10438428,-0.033587 0.0824926,-0.013837 0.21671627,-0.02016 0.39789967,-0.02016 z"
     id="path937"
     inkscape:connector-curvature="0"
     sodipodi:nodetypes="scccssscccsscccscccssccccccccsccs" />
  <path
     inkscape:connector-curvature="0"
     style="color:#000000;display:inline;overflow:visible;visibility:visible;opacity:0.2;fill:#000000;fill-opacity:1;fill-rule:nonzero;stroke:none;stroke-width:0.06614964;marker:none;enable-background:accumulate"
     d="M 3.7042406,1.3228503 V 1.0582801 L 2.9105047,0.26456995 H 2.645926 v 0.404943 0.01553 0.00833 c 0,0.54760975 0.073306,0.63204995 0.6221911,0.62936465 z"
     id="rect4158-0-3-62-2-3-7-3"
     sodipodi:nodetypes="ccccccscc" />
  <path
     inkscape:connector-curvature="0"
     style="color:#000000;display:inline;overflow:visible;visibility:visible;fill:#faf8f6;fill-opacity:1;fill-rule:nonzero;stroke:none;stroke-width:0.06614964;marker:none;enable-background:accumulate"
     d="M 3.7042406,1.0581796 2.9105047,0.26456995 v 0.2943844 0.012832 0.00688 c 0,0.45177725 0.020823,0.48176365 0.4736513,0.47954915 z"
     id="rect4158-0-3-62-6-5-5"
     sodipodi:nodetypes="ccccscc" />
  <g
     transform="matrix(0.07654518,0,0,0.07350868,-0.61738642,-16.974781)"
     id="g45">
    <path
       d="m 35.806999,252.33164 v 1.05833 h 12.7 v -1.05833 z m 0,3.175 v 1.05833 h 12.7 v -1.05833 z m 0,3.175 v 1.05833 h 12.7 v -1.05833 z m 0,3.175 v 1.05833 h 12.7 v -1.05833 z m 0,3.175 v 1.05833 h 12.7 v -1.05833 z"
       id="path31"
       inkscape:connector-curvature="0"
       style="fill:#b3b3b3" />
    <path
       d="m 22.489583,267.36665 v 1.05833 h 12.7 v -1.05833 z m 0,3.175 v 1.05833 h 12.7 v -1.05833 z m 0,3.175 v 1.05833 h 12.7 v -1.05833 z m 0,3.175 v 1.05833 h 12.7 v -1.05833 z m 0,3.175 v 1.05833 h 12.7 v -1.05833 z"
       id="path33"
       inkscape:connector-curvature="0"
       style="fill:#b3b3b3" />
    <g
       id="g43"
       style="fill-opacity:0.32128505">
      <path
         d="m -8.1308443,262.0643 c 2.712041,-1.85882 3.9918805,-3.71763 3.9918805,-5.8507 0,-1.82834 -1.0055882,-3.01676 -2.4987343,-3.01676 -1.1274777,0 -1.9807041,0.79228 -1.9807041,1.82834 0,1.09701 0.822754,1.79787 2.0721212,1.79787 0.1218895,0 0.4266132,0 0.4875579,-0.0305 h 0.091417 c 0.1523619,0 0.2133066,0.0914 0.2133066,0.27425 0,1.27984 -1.0360606,2.71204 -3.0777094,4.14424 z"
         transform="translate(48.392057,19.040767)"
         id="path35"
         inkscape:connector-curvature="0" />
      <path
         d="m -8.1308443,262.0643 c 2.712041,-1.85882 3.9918805,-3.71763 3.9918805,-5.8507 0,-1.82834 -1.0055882,-3.01676 -2.4987343,-3.01676 -1.1274777,0 -1.9807041,0.79228 -1.9807041,1.82834 0,1.09701 0.822754,1.79787 2.0721212,1.79787 0.1218895,0 0.4266132,0 0.4875579,-0.0305 h 0.091417 c 0.1523619,0 0.2133066,0.0914 0.2133066,0.27425 0,1.27984 -1.0360606,2.71204 -3.0777094,4.14424 z"
         transform="translate(53.683727,19.040767)"
         id="path37"
         inkscape:connector-curvature="0" />
      <path
         d="m -8.1308443,262.0643 c 2.712041,-1.85882 3.9918805,-3.71763 3.9918805,-5.8507 0,-1.82834 -1.0055882,-3.01676 -2.4987343,-3.01676 -1.1274777,0 -1.9807041,0.79228 -1.9807041,1.82834 0,1.09701 0.822754,1.79787 2.0721212,1.79787 0.1218895,0 0.4266132,0 0.4875579,-0.0305 h 0.091417 c 0.1523619,0 0.2133066,0.0914 0.2133066,0.27425 0,1.27984 -1.0360606,2.71204 -3.0777094,4.14424 z"
         transform="rotate(180,11.522723,257.22908)"
         id="path39"
         inkscape:connector-curvature="0" />
      <path
         d="m -8.1308443,262.0643 c 2.712041,-1.85882 3.9918805,-3.71763 3.9918805,-5.8507 0,-1.82834 -1.0055882,-3.01676 -2.4987343,-3.01676 -1.1274777,0 -1.9807041,0.79228 -1.9807041,1.82834 0,1.09701 0.822754,1.79787 2.0721212,1.79787 0.1218895,0 0.4266132,0 0.4875579,-0.0305 h 0.091417 c 0.1523619,0 0.2133066,0.0914 0.2133066,0.27425 0,1.27984 -1.0360606,2.71204 -3.0777094,4.14424 z"
         transform="rotate(180,8.8768875,257.22908)"
         id="path41"
         inkscape:connector-curvature="0" />
    </g>
  </g>
</svg>
