<svg height="16" viewBox="0 0 4.233125 4.233125" width="16" xmlns="http://www.w3.org/2000/svg" xmlns:xlink="http://www.w3.org/1999/xlink"><linearGradient id="a" gradientUnits="userSpaceOnUse" x1="328" x2="328" y1="237" y2="251"><stop offset="0" stop-color="#fff"/><stop offset=".125" stop-color="#fff" stop-opacity=".098039"/><stop offset=".92500001" stop-color="#fff" stop-opacity=".098039"/><stop offset="1" stop-color="#fff" stop-opacity=".498039"/></linearGradient><clipPath id="b"><path d="m325.09646 237c-2.80769 0-3.10979.28839-3.09603 3.10176v3.89824 3.89824c-.0138 2.81337.28834 3.10176 3.09603 3.10176h5.8075c2.8077 0 3.09604-.28835 3.09604-3.10176v-3.89824-3.89824c0-2.8134-.28835-3.10176-3.09604-3.10176z"/></clipPath><linearGradient id="c" gradientTransform="matrix(0 -.00953618 .00953591 0 -.942984 4.47364)" gradientUnits="userSpaceOnUse" x1="459.03448" x2="35.310345" y1="419.23337" y2="207.36522"><stop offset="0" stop-color="#f2f2f2"/><stop offset="1" stop-color="#f9f9f9"/></linearGradient><path d="m1.3483186.264567c-.190236 0-.34443.0037-.48573204.02739-.141304.02373-.282641.0731-.390657.180858-.108013.107759-.157834.24955-.181373.39117-.02355.141621-.02677.296445-.02585.487285v.765291 1.031411c-.000793.190004.0024.344564.02585.485736.02355.141619.07336.28341.181373.39117.108016.107762.249353.157138.390657.180857.14130204.02373.29549604.02739.48573204.02739h1.536784c.190236 0 .344094-.0036.485216-.02739.141125-.02376.282477-.07353.390138-.181373.107662-.107845.157166-.249413.180858-.390654.0237-.141244.02739-.295131.02739-.485736v-1.031411-.766841c0-.190605-.0037-.344492-.02739-.485735-.02368-.141241-.0732-.28281-.180858-.390654-.107661-.107845-.249013-.157626-.390138-.181374-.141122-.02375-.29498-.02739-.485216-.02739z" opacity=".1"/><path d="m1.3485206.264567c-.74283204 0-.82275904.0763-.81911804.820633v1.031359 1.031359c-.0037.744334.07629.820633.81911804.820633h1.536492c.742834 0 .81912-.07629.81912-.820633v-1.031359-1.031359c0-.744342-.07629-.820633-.81912-.820633z" fill="none" opacity=".2" stroke="#000" stroke-width=".529141"/><path d="m1.3485206.264567c-.74283204 0-.82275904.0763-.81911804.820633v1.031359 1.031359c-.0037.744334.07629.820633.81911804.820633h1.536492c.742834 0 .81912-.07629.81912-.820633v-1.031359-1.031359c0-.744342-.07629-.820633-.81912-.820633z" fill="url(#c)"/><path d="m2.1689476.959339c-.102839.000011-.200108.0118-.291824.03528-.08327.0218-.15702.05157-.22516.08599l.06959.192539c.132719-.06737.268862-.104246.408214-.104246.117162 0 .210108.03095.274095.09485.06314.06088.09512.14214.09512.23846 0 .06005-.01405.116273-.04193.167449-.02492.04975-.05762.0971-.09796.141923-.03951.04389-.08114.08778-.124989.13164l-.000172.000169-.000529.00017c-.04274.0406-.0833.08553-.121887.134833l-.000172.000172-.000085.000169c-.03795.04638-.06951.09692-.09485.151763-.02257.05348-.03413.113334-.03413.180304 0 .04017.0047.07784.0109.114618h.209733c-.00017-.0045-.0011-.0085-.0011-.0132v-.03599c0-.07476.01484-.14272.04477-.202733.02908-.06039.06495-.115334.107527-.164703l.000169-.000172c.00009-.000084.00009-.000172.000172-.000529.04201-.05082.08844-.09933.139172-.145643.04937-.04508.09439-.0923.1351-.141569.04026-.04874.07407-.100603.101584-.155573v-.000084c.02669-.05546.04025-.118269.04025-.189435 0-.05632-.0093-.11511-.02837-.176405l-.000172-.000529-.000084-.00053c-.01648-.06183-.04713-.11726-.09281-.167099-.04525-.04937-.106473-.09002-.184648-.121711l-.00053-.000172-.000529-.000171c-.07438-.03306-.172701-.05034-.29475-.05035h-.000084z" fill="#999"/><path d="m2.1166416 2.881355c-.06267 0-.108357.01913-.143249.05788-.03583.03981-.05301.08467-.05301.138465 0 .05379.0172.09874.05301.138553.03489.03877.08058.05779.143249.05779.06268 0 .108448-.01902.143342-.05779.03583-.03981.05301-.08476.05301-.138553 0-.0538-.01717-.09865-.05301-.138465-.03489-.03877-.08066-.05788-.143342-.05788z" fill="#999"/><path d="m2.1167106.264567v3.703984h.768392c.742834 0 .81903-.07624.81903-.820581v-1.031411-1.031412c0-.744342-.0762-.82058-.81903-.82058z" fill="#fff" opacity=".2"/><path d="m.52928856 2.116559v1.031411c-.0037.744335.0762.820581.81903004.820581h1.536784c.742834 0 .81903-.07624.81903-.820581v-1.031411z" fill="#fff" opacity=".2"/><path clip-path="url(#b)" d="m325.09646 237c-2.80769 0-3.10979.28839-3.09603 3.10176v3.89824 3.89824c-.0138 2.81337.28834 3.10176 3.09603 3.10176h5.8075c2.8077 0 3.09604-.28835 3.09604-3.10176v-3.89824-3.89824c0-2.8134-.28835-3.10176-3.09604-3.10176z" fill="none" opacity=".4" stroke="url(#a)" stroke-width="2" transform="matrix(.26457031 0 0 .26457031 -84.662351 -62.438597)"/></svg>