<?xml version="1.0" encoding="UTF-8" standalone="no"?>
<svg
   xmlns:dc="http://purl.org/dc/elements/1.1/"
   xmlns:cc="http://creativecommons.org/ns#"
   xmlns:rdf="http://www.w3.org/1999/02/22-rdf-syntax-ns#"
   xmlns:svg="http://www.w3.org/2000/svg"
   xmlns="http://www.w3.org/2000/svg"
   xmlns:sodipodi="http://sodipodi.sourceforge.net/DTD/sodipodi-0.dtd"
   xmlns:inkscape="http://www.inkscape.org/namespaces/inkscape"
   width="16"
   height="16"
   version="1.1"
   id="svg6"
   sodipodi:docname="wps-office-etmain-symbolic.svg"
   inkscape:version="0.92.3 (2405546, 2018-03-11)">
  <metadata
     id="metadata12">
    <rdf:RDF>
      <cc:Work
         rdf:about="">
        <dc:format>image/svg+xml</dc:format>
        <dc:type
           rdf:resource="http://purl.org/dc/dcmitype/StillImage" />
        <dc:title></dc:title>
      </cc:Work>
    </rdf:RDF>
  </metadata>
  <defs
     id="defs10" />
  <sodipodi:namedview
     pagecolor="#ffffff"
     bordercolor="#666666"
     borderopacity="1"
     objecttolerance="10"
     gridtolerance="10"
     guidetolerance="10"
     inkscape:pageopacity="0"
     inkscape:pageshadow="2"
     inkscape:window-width="1920"
     inkscape:window-height="1009"
     id="namedview8"
     showgrid="false"
     inkscape:zoom="14.75"
     inkscape:cx="-4.1016949"
     inkscape:cy="8"
     inkscape:window-x="0"
     inkscape:window-y="34"
     inkscape:window-maximized="1"
     inkscape:current-layer="g865" />
  <g
     style="fill:#808080;fill-opacity:1;enable-background:new"
     id="g865"
     transform="matrix(0.13341867,0,0,0.13341867,4.0558082,-13.361548)">
    <path
       inkscape:connector-curvature="0"
       id="path2-3"
       d="m 10.460582,100.40931 c 0,0 -9.1670793,-0.16866 -18.9609403,3.91211 -9.7938597,4.08078 -21.7226567,15.23405 -21.7226567,31.98633 0,16.75228 11.928797,27.90556 21.7226567,31.98633 9.793861,4.08077 18.9609403,3.91211 18.9609403,3.91211 h 38.29101 c 0,0 5.19258,0.16813 9.75782,2.07031 4.56523,1.90218 6.99414,2.71498 6.99414,9.89453 0,7.17956 -2.42891,7.9943 -6.99414,9.89649 -4.56524,1.90218 -9.75782,2.07031 -9.75782,2.07031 h -67.00781 a 11.967111,11.967111 0 1 0 0,23.93164 h 67.00781 c 0,0 9.16708,0.16867 18.96094,-3.91211 9.79386,-4.08078 21.72266,-15.23405 21.72266,-31.98633 0,-16.75228 -11.9288,-27.9036 -21.72266,-31.98437 -9.79386,-4.08078 -18.96094,-3.91211 -18.96094,-3.91211 h -38.29101 c 0,0 -5.1906193,-0.17009 -9.75585931,-2.07227 -4.56524199,-1.90218 -6.99609599,-2.71498 -6.99609599,-9.89453 0,-7.17955 2.430854,-7.99235 6.99609599,-9.89453 4.56524001,-1.90218 9.75585931,-2.07031 9.75585931,-2.07031 h 67.00976 a 11.967111,11.967111 0 1 0 0,-23.9336 z"
       style="color:#000000;font-style:normal;font-variant:normal;font-weight:normal;font-stretch:normal;font-size:medium;line-height:normal;font-family:sans-serif;font-variant-ligatures:normal;font-variant-position:normal;font-variant-caps:normal;font-variant-numeric:normal;font-variant-alternates:normal;font-feature-settings:normal;text-indent:0;text-align:start;text-decoration:none;text-decoration-line:none;text-decoration-style:solid;text-decoration-color:#000000;letter-spacing:normal;word-spacing:normal;text-transform:none;writing-mode:lr-tb;direction:ltr;text-orientation:mixed;dominant-baseline:auto;baseline-shift:baseline;text-anchor:start;white-space:normal;shape-padding:0;clip-rule:nonzero;display:inline;overflow:visible;visibility:visible;opacity:1;isolation:auto;mix-blend-mode:normal;color-interpolation:sRGB;color-interpolation-filters:linearRGB;solid-color:#000000;solid-opacity:1;vector-effect:none;fill:#808080;fill-opacity:1;fill-rule:nonzero;stroke:none;stroke-width:23.93182945;stroke-linecap:round;stroke-linejoin:round;stroke-miterlimit:4;stroke-dasharray:none;stroke-dashoffset:0;stroke-opacity:1;color-rendering:auto;image-rendering:auto;shape-rendering:auto;text-rendering:auto;enable-background:accumulate" />
  </g>
</svg>
