<?xml version="1.0" encoding="UTF-8" standalone="no"?>
<svg
   xmlns:dc="http://purl.org/dc/elements/1.1/"
   xmlns:cc="http://creativecommons.org/ns#"
   xmlns:rdf="http://www.w3.org/1999/02/22-rdf-syntax-ns#"
   xmlns:svg="http://www.w3.org/2000/svg"
   xmlns="http://www.w3.org/2000/svg"
   xmlns:xlink="http://www.w3.org/1999/xlink"
   xmlns:sodipodi="http://sodipodi.sourceforge.net/DTD/sodipodi-0.dtd"
   xmlns:inkscape="http://www.inkscape.org/namespaces/inkscape"
   width="48"
   height="48"
   version="1.1"
   viewBox="0 0 12.699375 12.699375"
   id="svg40"
   sodipodi:docname="4.svg"
   inkscape:version="0.92.4 (5da689c313, 2019-01-14)">
  <metadata
     id="metadata44">
    <rdf:RDF>
      <cc:Work
         rdf:about="">
        <dc:format>image/svg+xml</dc:format>
        <dc:type
           rdf:resource="http://purl.org/dc/dcmitype/StillImage" />
        <dc:title></dc:title>
      </cc:Work>
    </rdf:RDF>
  </metadata>
  <sodipodi:namedview
     pagecolor="#ffffff"
     bordercolor="#666666"
     borderopacity="1"
     objecttolerance="10"
     gridtolerance="10"
     guidetolerance="10"
     inkscape:pageopacity="0"
     inkscape:pageshadow="2"
     inkscape:window-width="1920"
     inkscape:window-height="1016"
     id="namedview42"
     showgrid="false"
     inkscape:zoom="17.479167"
     inkscape:cx="24"
     inkscape:cy="24"
     inkscape:window-x="0"
     inkscape:window-y="27"
     inkscape:window-maximized="1"
     inkscape:current-layer="g38" />
  <defs
     id="defs24">
    <linearGradient
       id="linearGradient974"
       x1="152"
       x2="152"
       y1="108"
       y2="244"
       gradientTransform="matrix(0.26458333,0,0,0.26458333,-7.055502,221.11081)"
       gradientUnits="userSpaceOnUse">
      <stop
         style="stop-color:#808080"
         offset="0"
         id="stop2" />
      <stop
         style="stop-color:#999999"
         offset="1"
         id="stop4" />
    </linearGradient>
    <linearGradient
       id="linearGradient4226"
       x1="529.65503"
       x2="-35.310001"
       y1="295.638"
       y2="295.638"
       gradientTransform="matrix(0,-0.11988932,-0.11988589,0,66.487288,293.07747)"
       gradientUnits="userSpaceOnUse">
      <stop
         style="stop-color:#999999"
         offset="0"
         id="stop7" />
      <stop
         style="stop-color:#b7b7b7"
         offset=".613"
         id="stop9" />
      <stop
         style="stop-color:#dbdbdb"
         offset="1"
         id="stop11" />
    </linearGradient>
    <linearGradient
       id="linearGradient4358"
       x1="88"
       x2="488"
       y1="88"
       y2="488"
       gradientUnits="userSpaceOnUse">
      <stop
         style="stop-color:#000000;stop-opacity:.58823532"
         offset="0"
         id="stop14" />
      <stop
         style="stop-color:#000000;stop-opacity:0"
         offset=".88"
         id="stop16" />
      <stop
         style="stop-color:#000000"
         offset="1"
         id="stop18" />
    </linearGradient>
    <filter
       id="filter4346"
       width="1.026"
       height="1.022"
       x="-0.0099999998"
       y="-0.0099999998"
       style="color-interpolation-filters:sRGB">
      <feGaussianBlur
         stdDeviation="2.12"
         id="feGaussianBlur21" />
    </filter>
    <clipPath
       clipPathUnits="userSpaceOnUse"
       id="clipPath994-5">
      <path
         style="color:#000000;display:inline;overflow:visible;visibility:visible;fill:#cdcdcd;fill-opacity:1;fill-rule:nonzero;stroke:none;stroke-width:2;stroke-miterlimit:4;stroke-dasharray:none;stroke-opacity:1;marker:none;enable-background:accumulate"
         d="m 335.73108,62 c -8.82418,0 -9.77365,0.90635 -9.7304,9.74838 V 84 96.25162 c -0.0433,8.84203 0.90622,9.74838 9.7304,9.74838 h 16.53919 c 8.82418,0 9.7304,-0.90625 9.7304,-9.74838 V 84 71.74838 C 362.00067,62.90625 361.09445,62 352.27027,62 Z"
         id="path996-3"
         inkscape:connector-curvature="0"
         sodipodi:nodetypes="scccssscsss" />
    </clipPath>
    <clipPath
       clipPathUnits="userSpaceOnUse"
       id="clipPath994-5-3">
      <path
         style="color:#000000;display:inline;overflow:visible;visibility:visible;fill:#cdcdcd;fill-opacity:1;fill-rule:nonzero;stroke:none;stroke-width:2;stroke-miterlimit:4;stroke-dasharray:none;stroke-opacity:1;marker:none;enable-background:accumulate"
         d="m 335.73108,62 c -8.82418,0 -9.77365,0.90635 -9.7304,9.74838 V 84 96.25162 c -0.0433,8.84203 0.90622,9.74838 9.7304,9.74838 h 16.53919 c 8.82418,0 9.7304,-0.90625 9.7304,-9.74838 V 84 71.74838 C 362.00067,62.90625 361.09445,62 352.27027,62 Z"
         id="path996-3-6"
         inkscape:connector-curvature="0"
         sodipodi:nodetypes="scccssscsss" />
    </clipPath>
    <clipPath
       clipPathUnits="userSpaceOnUse"
       id="clipPath994-5-7">
      <path
         style="color:#000000;display:inline;overflow:visible;visibility:visible;fill:#cdcdcd;fill-opacity:1;fill-rule:nonzero;stroke:none;stroke-width:2;stroke-miterlimit:4;stroke-dasharray:none;stroke-opacity:1;marker:none;enable-background:accumulate"
         d="m 335.73108,62 c -8.82418,0 -9.77365,0.90635 -9.7304,9.74838 V 84 96.25162 c -0.0433,8.84203 0.90622,9.74838 9.7304,9.74838 h 16.53919 c 8.82418,0 9.7304,-0.90625 9.7304,-9.74838 V 84 71.74838 C 362.00067,62.90625 361.09445,62 352.27027,62 Z"
         id="path996-3-5"
         inkscape:connector-curvature="0"
         sodipodi:nodetypes="scccssscsss" />
    </clipPath>
    <clipPath
       clipPathUnits="userSpaceOnUse"
       id="clipPath994-5-35">
      <path
         style="color:#000000;display:inline;overflow:visible;visibility:visible;fill:#cdcdcd;fill-opacity:1;fill-rule:nonzero;stroke:none;stroke-width:2;stroke-miterlimit:4;stroke-dasharray:none;stroke-opacity:1;marker:none;enable-background:accumulate"
         d="m 335.73108,62 c -8.82418,0 -9.77365,0.90635 -9.7304,9.74838 V 84 96.25162 c -0.0433,8.84203 0.90622,9.74838 9.7304,9.74838 h 16.53919 c 8.82418,0 9.7304,-0.90625 9.7304,-9.74838 V 84 71.74838 C 362.00067,62.90625 361.09445,62 352.27027,62 Z"
         id="path996-3-62"
         inkscape:connector-curvature="0"
         sodipodi:nodetypes="scccssscsss" />
    </clipPath>
    <linearGradient
       inkscape:collect="always"
       xlink:href="#linearGradient1048"
       id="linearGradient8588"
       gradientUnits="userSpaceOnUse"
       gradientTransform="matrix(0.76001289,0,0,0.76001318,324.59781,-118.12598)"
       x1="13.735326"
       y1="249.69423"
       x2="38.099998"
       y2="292.76666" />
    <linearGradient
       inkscape:collect="always"
       id="linearGradient1048">
      <stop
         style="stop-color:#cdcdcd;stop-opacity:1;"
         offset="0"
         id="stop1044" />
      <stop
         style="stop-color:#d9d9d9;stop-opacity:1"
         offset="1"
         id="stop1046" />
    </linearGradient>
    <linearGradient
       inkscape:collect="always"
       xlink:href="#linearGradient927"
       id="linearGradient8590"
       gradientUnits="userSpaceOnUse"
       gradientTransform="matrix(0.19234383,0,0,0.19234374,325.03495,70.230696)"
       x1="96"
       y1="4.0000062"
       x2="96"
       y2="188" />
    <linearGradient
       inkscape:collect="always"
       id="linearGradient927">
      <stop
         style="stop-color:#ffffff;stop-opacity:1;"
         offset="0"
         id="stop923" />
      <stop
         id="stop933"
         offset="0.125"
         style="stop-color:#ffffff;stop-opacity:0.09803922" />
      <stop
         id="stop931"
         offset="0.92500001"
         style="stop-color:#ffffff;stop-opacity:0.09803922" />
      <stop
         style="stop-color:#ffffff;stop-opacity:0.49803922"
         offset="1"
         id="stop925" />
    </linearGradient>
    <linearGradient
       inkscape:collect="always"
       xlink:href="#linearGradient927"
       id="linearGradient1004"
       x1="344"
       y1="62"
       x2="344"
       y2="106"
       gradientUnits="userSpaceOnUse"
       gradientTransform="rotate(-90,344,84)" />
    <clipPath
       clipPathUnits="userSpaceOnUse"
       id="clipPath994-5-9">
      <path
         style="color:#000000;display:inline;overflow:visible;visibility:visible;fill:#cdcdcd;fill-opacity:1;fill-rule:nonzero;stroke:none;stroke-width:2;stroke-miterlimit:4;stroke-dasharray:none;stroke-opacity:1;marker:none;enable-background:accumulate"
         d="m 335.73108,62 c -8.82418,0 -9.77365,0.90635 -9.7304,9.74838 V 84 96.25162 c -0.0433,8.84203 0.90622,9.74838 9.7304,9.74838 h 16.53919 c 8.82418,0 9.7304,-0.90625 9.7304,-9.74838 V 84 71.74838 C 362.00067,62.90625 361.09445,62 352.27027,62 Z"
         id="path996-3-1"
         inkscape:connector-curvature="0"
         sodipodi:nodetypes="scccssscsss" />
    </clipPath>
    <linearGradient
       inkscape:collect="always"
       xlink:href="#linearGradient4338-3"
       id="linearGradient11811"
       gradientUnits="userSpaceOnUse"
       gradientTransform="matrix(0,-0.02997086,-0.02997,0,15.739095,297.65809)"
       x1="494.34482"
       y1="313.2872"
       x2="0"
       y2="313.2872" />
    <linearGradient
       inkscape:collect="always"
       id="linearGradient4338-3">
      <stop
         id="stop4342-7"
         offset="0"
         style="stop-color:#999999;stop-opacity:1" />
      <stop
         style="stop-color:#b7b7b7;stop-opacity:1"
         offset="0.61328125"
         id="stop932" />
      <stop
         id="stop4340-0"
         offset="1"
         style="stop-color:#dbdbdb;stop-opacity:1" />
    </linearGradient>
    <linearGradient
       inkscape:collect="always"
       xlink:href="#linearGradient4338-3"
       id="linearGradient1131"
       gradientUnits="userSpaceOnUse"
       gradientTransform="matrix(0,-0.02997086,-0.02997,0,15.739095,297.65809)"
       x1="494.34482"
       y1="313.2872"
       x2="0"
       y2="313.2872" />
  </defs>
  <g
     transform="translate(0,-284.29728)"
     id="g38">
    <path
       style="color:#000000;font-style:normal;font-variant:normal;font-weight:normal;font-stretch:normal;font-size:medium;line-height:normal;font-family:sans-serif;font-variant-ligatures:normal;font-variant-position:normal;font-variant-caps:normal;font-variant-numeric:normal;font-variant-alternates:normal;font-feature-settings:normal;text-indent:0;text-align:start;text-decoration:none;text-decoration-line:none;text-decoration-style:solid;text-decoration-color:#000000;letter-spacing:normal;word-spacing:normal;text-transform:none;writing-mode:lr-tb;direction:ltr;text-orientation:mixed;dominant-baseline:auto;baseline-shift:baseline;text-anchor:start;white-space:normal;shape-padding:0;clip-rule:nonzero;display:inline;overflow:visible;visibility:visible;opacity:0.1;isolation:auto;mix-blend-mode:normal;color-interpolation:sRGB;color-interpolation-filters:linearRGB;solid-color:#000000;solid-opacity:1;vector-effect:none;fill:#000000;fill-opacity:1;fill-rule:nonzero;stroke:none;stroke-width:0.52914065;stroke-linecap:butt;stroke-linejoin:miter;stroke-miterlimit:4;stroke-dasharray:none;stroke-dashoffset:0;stroke-opacity:1;marker:none;color-rendering:auto;image-rendering:auto;shape-rendering:auto;text-rendering:auto;enable-background:accumulate"
       d="m 12.434805,288.32701 c 0,-0.58818 -0.01355,-1.05132 -0.07751,-1.4324 -0.06397,-0.38108 -0.183956,-0.69292 -0.411841,-0.92135 -0.227885,-0.22842 -0.539583,-0.34898 -0.920829,-0.41235 -0.381245,-0.0634 -0.845392,-0.0758 -1.4349847,-0.0729 H 6.3496875 3.1081826 c -0.5886848,-0.003 -1.0525956,0.01 -1.4334314,0.0729 -0.3812457,0.0634 -0.69294396,0.18393 -0.92082895,0.41235 -0.227885,0.22843 -0.34787293,0.54027 -0.41184074,0.92135 -0.0639705,0.38108 -0.0775112,0.84422 -0.0775112,1.4324 v 4.37574 c 0,0.58819 0.0135195,1.05108 0.0775112,1.43137 0.0639969,0.38029 0.18438964,0.69118 0.41235665,0.91876 0.22796701,0.22758 0.53944304,0.34743 0.92031304,0.41133 0.3808675,0.0639 0.8440719,0.0775 1.4334314,0.0775 h 3.2415049 3.2415022 c 0.5893593,0 1.0525643,-0.0136 1.4334343,-0.0775 0.380868,-0.0639 0.692344,-0.18375 0.920311,-0.41133 0.22797,-0.22758 0.348362,-0.53847 0.412359,-0.91876 0.064,-0.38029 0.07751,-0.84318 0.07751,-1.43137 z"
       id="path1020"
       inkscape:connector-curvature="0"
       sodipodi:nodetypes="sccsccccccsscccscsccsss" />
    <path
       style="color:#000000;display:inline;overflow:visible;visibility:visible;fill:url(#linearGradient1131);fill-opacity:1;fill-rule:nonzero;stroke:none;stroke-width:0.26457033;marker:none;enable-background:accumulate"
       d="m 12.302531,292.43781 c 0,0.58592 -0.01447,1.04432 -0.07596,1.4107 -0.0615,0.36638 -0.173119,0.64701 -0.375153,0.84952 -0.202034,0.20251 -0.482137,0.31425 -0.848485,0.37515 -0.366348,0.0609 -0.825036,0.0742 -1.4122476,0.0713 H 6.3496981 3.1081932 c -0.5869043,0.003 -1.0455157,-0.0104 -1.4117287,-0.0713 -0.3663477,-0.0609 -0.646451,-0.17264 -0.84848486,-0.37515 -0.20203383,-0.20252 -0.31365075,-0.48314 -0.37515277,-0.84952 -0.061502,-0.36638 -0.0759608,-0.82478 -0.0759608,-1.4107 v -4.37574 c 0,-0.58592 0.0144455,-1.04361 0.0759608,-1.40915 0.0615126,-0.36554 0.17307661,-0.64572 0.37515277,-0.84745 0.20207356,-0.20174 0.48232496,-0.31322 0.84848486,-0.37464 0.36616,-0.0614 0.8246286,-0.0754 1.4117287,-0.0754 h 3.2415049 3.2415022 c 0.5871007,0 1.0455717,0.014 1.4117317,0.0754 0.36616,0.0614 0.646412,0.1729 0.848485,0.37464 0.202074,0.20173 0.313638,0.48191 0.375153,0.84745 0.06151,0.36554 0.07596,0.82323 0.07596,1.40915 z"
       id="path949"
       inkscape:connector-curvature="0" />
    <path
       style="color:#000000;display:inline;overflow:visible;visibility:visible;fill:url(#linearGradient11811);fill-opacity:1;fill-rule:nonzero;stroke:none;stroke-width:0.26457033;marker:none;enable-background:accumulate"
       d="m 12.302531,292.43781 c 0,0.58592 -0.01447,1.04432 -0.07596,1.4107 -0.0615,0.36638 -0.173119,0.64701 -0.375153,0.84952 -0.202034,0.20251 -0.482137,0.31425 -0.848485,0.37515 -0.366348,0.0609 -0.825036,0.0742 -1.4122476,0.0713 H 6.3496981 3.1081932 c -0.5869043,0.003 -1.0455157,-0.0104 -1.4117287,-0.0713 -0.3663477,-0.0609 -0.646451,-0.17264 -0.84848486,-0.37515 -0.20203383,-0.20252 -0.31365075,-0.48314 -0.37515277,-0.84952 -0.061502,-0.36638 -0.0759608,-0.82478 -0.0759608,-1.4107 v -4.37575 c 0,-0.58591 0.0144455,-1.0436 0.0759608,-1.40914 0.0615126,-0.36554 0.17307661,-0.64572 0.37515277,-0.84745 0.20207356,-0.20174 0.48232496,-0.31322 0.84848486,-0.37464 0.36616,-0.0614 0.8246286,-0.0754 1.4117287,-0.0754 h 3.2415049 3.2415022 c 0.5871007,0 1.0455717,0.014 1.4117317,0.0754 0.36616,0.0614 0.646412,0.1729 0.848485,0.37464 0.202074,0.20173 0.313638,0.48191 0.375153,0.84745 0.06151,0.36554 0.07596,0.82323 0.07596,1.40914 z"
       id="path949-6"
       inkscape:connector-curvature="0" />
    <path
       style="display:inline;opacity:0.2;fill:#000000;fill-opacity:1;stroke:none;stroke-width:0.70560902;stroke-linecap:round;stroke-linejoin:bevel;stroke-miterlimit:10;stroke-dasharray:none;stroke-dashoffset:0;stroke-opacity:1;enable-background:new"
       d="m 0.397046,291.83754 v 0.60045 c 0,0.58592 0.0144455,1.04432 0.0759608,1.4107 0.061502,0.36638 0.17311894,0.64701 0.37515277,0.84952 0.20203383,0.20251 0.48213713,0.31425 0.84848483,0.37515 0.366213,0.0609 0.8248271,0.0742 1.4117313,0.0713 H 6.349878 9.5908643 c 0.5872117,0.003 1.0458997,-0.0104 1.4122477,-0.0713 0.366348,-0.0609 0.646451,-0.17264 0.848485,-0.37515 0.202034,-0.20251 0.313651,-0.48314 0.375153,-0.84952 0.06149,-0.36638 0.07596,-0.82478 0.07596,-1.4107 v -0.60045 z"
       id="rect11813"
       inkscape:connector-curvature="0"
       sodipodi:nodetypes="cscsccccsscscc" />
    <path
       style="display:inline;opacity:0.15;fill:#ffffff;fill-opacity:1;stroke:none;stroke-width:0.70560902;stroke-linecap:round;stroke-linejoin:bevel;stroke-miterlimit:10;stroke-dasharray:none;stroke-dashoffset:0;stroke-opacity:1;enable-background:new"
       d="m 0.397046,291.57297 v 0.26457 h 11.905665 v -0.26457 z"
       id="rect11813-7"
       inkscape:connector-curvature="0" />
    <path
       id="path901"
       d="m 12.302528,288.06243 c 0,-0.58592 -0.01445,-1.04432 -0.07596,-1.4107 -0.0615,-0.36638 -0.173116,-0.64701 -0.37515,-0.84952 -0.202036,-0.20251 -0.482139,-0.31425 -0.848487,-0.37515 -0.366348,-0.0609 -0.825034,-0.0742 -1.4122482,-0.0713 H 6.3496954 3.1081932 c -0.5869043,-0.003 -1.0455184,0.0104 -1.4117313,0.0713 -0.3663478,0.0609 -0.6464511,0.17264 -0.84848491,0.37515 -0.20203383,0.20252 -0.31365075,0.48314 -0.37515276,0.84952 -0.061502,0.36638 -0.0759608,0.82478 -0.0759608,1.4107 v 4.37574 c 0,0.58592 0.0144455,1.04361 0.0759608,1.40915 0.0615126,0.36554 0.1730766,0.64572 0.37515276,0.84745 0.20207351,0.20174 0.48232501,0.31322 0.84848491,0.37464 0.36616,0.0614 0.8246312,0.0754 1.4117313,0.0754 h 3.2415022 3.2415049 c 0.5871007,0 1.0455697,-0.014 1.4117297,-0.0754 0.366162,-0.0614 0.646411,-0.1729 0.848487,-0.37464 0.202074,-0.20173 0.313638,-0.48191 0.37515,-0.84745 0.06152,-0.36554 0.07596,-0.82323 0.07596,-1.40915 z"
       style="color:#000000;display:inline;overflow:visible;visibility:visible;opacity:0.4;fill:none;fill-opacity:1;fill-rule:nonzero;stroke:#000000;stroke-width:0.26457033;stroke-opacity:1;marker:none;enable-background:accumulate"
       inkscape:connector-curvature="0" />
    <path
       transform="matrix(0,0.26457031,-0.26457031,0,28.573785,199.23793)"
       sodipodi:nodetypes="scccssscsss"
       inkscape:connector-curvature="0"
       id="path990"
       d="m 335.73108,62 c -8.82418,0 -9.77365,0.90635 -9.7304,9.74838 V 84 96.25162 c -0.0433,8.84203 0.90622,9.74838 9.7304,9.74838 h 16.53919 c 8.82418,0 9.7304,-0.90625 9.7304,-9.74838 V 84 71.74838 C 362.00067,62.90625 361.09445,62 352.27027,62 Z"
       style="color:#000000;display:inline;overflow:visible;visibility:visible;opacity:0.4;fill:none;fill-opacity:1;fill-rule:nonzero;stroke:url(#linearGradient1004);stroke-width:2;stroke-miterlimit:4;stroke-dasharray:none;stroke-opacity:1;marker:none;enable-background:accumulate"
       clip-path="url(#clipPath994-5-9)" />
    <path
       style="display:inline;opacity:0.5;fill:#000000;fill-opacity:1;stroke:none;stroke-width:0.70560902;stroke-linecap:round;stroke-linejoin:bevel;stroke-miterlimit:10;stroke-dasharray:none;stroke-dashoffset:0;stroke-opacity:1;enable-background:new"
       d="m 1.4832288,293.00611 c 0.032151,0.30962 -0.00627,0.65211 0.140037,0.9344 0.4358743,0.15525 0.9123046,0.0708 1.3658655,0.10188 2.4085872,0.009 4.8484758,0.0243 7.2538937,-0.004 0.270135,-0.0294 0.575671,0.031 0.824031,-0.0976 0.164833,-0.24568 0.100082,-0.57556 0.131706,-0.85617 0.09948,-0.28707 -0.224205,-0.16085 -0.392593,-0.18616 -3.1090249,0 -6.2180489,0 -9.3270728,0 0.00132,0.0359 0.00275,0.0718 0.00413,0.10774 z"
       id="path11845"
       inkscape:connector-curvature="0" />
    <path
       style="display:inline;opacity:0.3;fill:#ffffff;fill-opacity:1;stroke:none;stroke-width:0.70560902;stroke-linecap:round;stroke-linejoin:bevel;stroke-miterlimit:10;stroke-dasharray:none;stroke-dashoffset:0;stroke-opacity:1;enable-background:new"
       d="m 1.4790962,293.16298 c 0.00132,0.0359 0.00275,0.0721 0.00413,0.108 0.032151,0.30961 -0.00627,0.65197 0.1400371,0.93426 0.4358743,0.15525 0.9121802,0.0707 1.365741,0.1018 2.4085846,0.009 4.8485605,0.0243 7.2539787,-0.004 0.270135,-0.0294 0.57584,0.031 0.824201,-0.0977 0.164832,-0.24568 0.100145,-0.57562 0.131766,-0.85624 0.02789,-0.0805 0.02021,-0.12603 -0.0057,-0.15399 -0.01082,0.254 0.01781,0.5312 -0.126084,0.74566 -0.24836,0.12862 -0.554066,0.0682 -0.8242,0.0977 -2.4054185,0.0284 -4.8453944,0.0128 -7.253979,0.004 -0.4535608,-0.0311 -0.9298667,0.0534 -1.365741,-0.1018 -0.1222421,-0.23586 -0.1180169,-0.51207 -0.1312534,-0.77769 z"
       id="path11845-2"
       inkscape:connector-curvature="0" />
    <g
       style="display:inline;enable-background:new"
       id="g10096"
       transform="matrix(0.26457031,0,0,0.26457031,-84.528989,268.02621)">
      <path
         inkscape:connector-curvature="0"
         id="path9498-0-0"
         d="M 325.57227,94 A 18.499979,18.499979 0 0 0 343.5,108 18.499979,18.499979 0 0 0 361.41992,94 Z"
         style="display:inline;opacity:0.1;fill:#000000;fill-opacity:1;stroke:none;stroke-width:1.57199717;stroke-linecap:round;stroke-linejoin:round;stroke-miterlimit:4;stroke-dasharray:none;stroke-opacity:1;enable-background:new" />
      <path
         inkscape:connector-curvature="0"
         id="path9498-6"
         d="M 326.2168,94 A 18.097807,18.097807 0 0 0 343.5,106.79297 18.097807,18.097807 0 0 0 360.80078,94 Z"
         style="display:inline;opacity:1;fill:url(#linearGradient8588);fill-opacity:1;stroke:none;stroke-width:1.50364912;stroke-linecap:round;stroke-linejoin:round;stroke-miterlimit:4;stroke-dasharray:none;stroke-opacity:1;enable-background:new" />
      <path
         inkscape:connector-curvature="0"
         id="path11042-53-1"
         d="m 343.5,94 v 12.79297 A 18.097806,18.097806 0 0 0 360.7832,94 Z"
         style="display:inline;opacity:0.2;fill:#ffffff;fill-opacity:1;stroke:none;stroke-width:0.16158757;stroke-linecap:round;stroke-linejoin:round;stroke-miterlimit:4;stroke-dasharray:none;stroke-opacity:1;enable-background:new" />
      <path
         inkscape:connector-curvature="0"
         id="path11042-53-6-27"
         d="m 338.19531,94 -7.49219,7.49219 a 18.097806,18.097806 0 0 0 25.59376,0 L 348.80469,94 Z"
         style="display:inline;opacity:0.02000002;fill:#000000;fill-opacity:1;stroke:none;stroke-width:0.16158757;stroke-linecap:round;stroke-linejoin:round;stroke-miterlimit:4;stroke-dasharray:none;stroke-opacity:1;enable-background:new" />
      <path
         inkscape:connector-curvature="0"
         id="path11042-53-6-2-0"
         d="m 348.80664,94 7.48633,7.48633 a 18.097806,18.097806 0 0 0 2.88281,-3.742189 L 352.68945,94 Z m 7.42188,7.55859 a 18.097806,18.097806 0 0 1 -0.20508,0.19141 18.097806,18.097806 0 0 0 0.20508,-0.19141 z m -1.13672,1.01953 a 18.097806,18.097806 0 0 1 -0.7168,0.56055 18.097806,18.097806 0 0 0 0.7168,-0.56055 z m -1.44336,1.0879 a 18.097806,18.097806 0 0 1 -0.76953,0.48632 18.097806,18.097806 0 0 0 0.76953,-0.48632 z m -19.18555,0.68359 -0.01,0.0195 a 18.097806,18.097806 0 0 0 0.30665,0.15625 18.097806,18.097806 0 0 1 -0.29688,-0.17578 z m 17.64063,0.25391 a 18.097806,18.097806 0 0 1 -0.81446,0.40625 18.097806,18.097806 0 0 0 0.81446,-0.40625 z m -16.53907,0.33398 a 18.097806,18.097806 0 0 0 0.82032,0.38281 18.097806,18.097806 0 0 1 -0.82032,-0.38281 z m 14.9043,0.44531 a 18.097806,18.097806 0 0 1 -0.8457,0.32422 18.097806,18.097806 0 0 0 0.8457,-0.32422 z m -13.24023,0.26758 a 18.097806,18.097806 0 0 0 0.8496,0.29688 18.097806,18.097806 0 0 1 -0.8496,-0.29688 z m 11.54101,0.3457 a 18.097806,18.097806 0 0 1 -0.875,0.23633 18.097806,18.097806 0 0 0 0.875,-0.23633 z m -9.81641,0.19727 a 18.097806,18.097806 0 0 0 0.875,0.20898 18.097806,18.097806 0 0 1 -0.875,-0.20898 z m 8.0625,0.24219 a 18.097806,18.097806 0 0 1 -0.89257,0.14648 18.097806,18.097806 0 0 0 0.89257,-0.14648 z m -6.29492,0.12304 a 18.097806,18.097806 0 0 0 0.89649,0.12305 18.097806,18.097806 0 0 1 -0.89649,-0.12305 z m 4.50391,0.13868 a 18.097806,18.097806 0 0 1 -0.89844,0.0586 18.097806,18.097806 0 0 0 0.89844,-0.0586 z m -2.70703,0.0488 a 18.097806,18.097806 0 0 0 0.90234,0.0332 18.097806,18.097806 0 0 1 -0.90234,-0.0332 z"
         style="display:inline;opacity:1;fill:#faf8f6;fill-opacity:1;stroke:none;stroke-width:0.16158757;stroke-linecap:round;stroke-linejoin:round;stroke-miterlimit:4;stroke-dasharray:none;stroke-opacity:1;enable-background:new" />
      <path
         inkscape:connector-curvature="0"
         id="path7147-9"
         d="m 337.51172,94 a 7.4999995,7.4999995 0 0 0 5.98828,3 7.4999995,7.4999995 0 0 0 5.99023,-3 z"
         style="display:inline;opacity:1;fill:#7f7f7f;fill-opacity:1;stroke:none;stroke-width:0.51754922;stroke-linecap:round;stroke-linejoin:round;stroke-miterlimit:4;stroke-dasharray:none;stroke-dashoffset:0;stroke-opacity:1;enable-background:new" />
      <path
         inkscape:connector-curvature="0"
         id="path7164-3"
         d="m 338.8125,94 a 6.5,6.5 0 0 0 4.6875,2 6.5,6.5 0 0 0 4.67969,-2 z"
         style="display:inline;opacity:1;fill:#faf8f6;fill-opacity:1;stroke:none;stroke-width:0.46428573;stroke-linecap:round;stroke-linejoin:round;stroke-miterlimit:4;stroke-dasharray:none;stroke-dashoffset:0;stroke-opacity:1;enable-background:new" />
      <path
         inkscape:connector-curvature="0"
         id="path9498-9-1"
         d="M 325.78516,94 A 18.49998,18.49998 0 0 0 343.5,107.19531 18.49998,18.49998 0 0 0 361.20703,94 h -0.82226 c -2.25406,7.1807 -8.96031,12.39063 -16.88477,12.39062 -7.92447,0 -14.63071,-5.20992 -16.88477,-12.39062 z"
         style="display:inline;opacity:0.4;fill:#000000;fill-opacity:1;stroke:none;stroke-width:1.57199717;stroke-linecap:round;stroke-linejoin:round;stroke-miterlimit:4;stroke-dasharray:none;stroke-opacity:1;enable-background:new" />
      <path
         inkscape:connector-curvature="0"
         id="path9498-1-6"
         d="M 326.62109,94 A 17.695633,17.695625 0 0 0 343.5,106.39062 17.695633,17.695625 0 0 0 360.36133,94 h -0.80274 A 16.926257,16.92625 0 0 1 343.5,105.62109 16.926257,16.92625 0 0 1 327.44922,94 Z"
         style="display:inline;opacity:0.7;fill:url(#linearGradient8590);fill-opacity:1;stroke:none;stroke-width:1.50364912;stroke-linecap:round;stroke-linejoin:round;stroke-miterlimit:4;stroke-dasharray:none;stroke-opacity:1;enable-background:new" />
    </g>
    <path
       style="display:inline;opacity:0.2;fill:#000000;fill-opacity:1;stroke:none;stroke-width:0.70560902;stroke-linecap:round;stroke-linejoin:bevel;stroke-miterlimit:10;stroke-dasharray:none;stroke-dashoffset:0;stroke-opacity:1;enable-background:new"
       d="m 11.102842,292.89324 c -0.08953,-0.007 -0.212413,0.0178 -0.296607,0.005 H 1.4790962 c 0.00132,0.0359 0.00275,0.0716 0.00413,0.10748 0.00529,0.0509 0.00616,0.10479 0.00878,0.15709 h 9.3142198 c 0.121178,0.0182 0.32059,-0.0397 0.387037,0.032 0.0016,-0.037 0.0016,-0.0749 0.0057,-0.11058 0.04974,-0.14353 -0.0066,-0.1837 -0.09611,-0.19119 z"
       id="path11845-7"
       inkscape:connector-curvature="0" />
  </g>
</svg>
