<?xml version="1.0" encoding="UTF-8" standalone="no"?>
<svg
   xmlns:dc="http://purl.org/dc/elements/1.1/"
   xmlns:cc="http://creativecommons.org/ns#"
   xmlns:rdf="http://www.w3.org/1999/02/22-rdf-syntax-ns#"
   xmlns:svg="http://www.w3.org/2000/svg"
   xmlns="http://www.w3.org/2000/svg"
   xmlns:xlink="http://www.w3.org/1999/xlink"
   xmlns:sodipodi="http://sodipodi.sourceforge.net/DTD/sodipodi-0.dtd"
   xmlns:inkscape="http://www.inkscape.org/namespaces/inkscape"
   width="48"
   height="48"
   version="1.1"
   viewBox="0 0 12.699375 12.699375"
   id="svg40"
   sodipodi:docname="input-keyboard.svg"
   inkscape:version="0.92.4 (5da689c313, 2019-01-14)">
  <metadata
     id="metadata44">
    <rdf:RDF>
      <cc:Work
         rdf:about="">
        <dc:format>image/svg+xml</dc:format>
        <dc:type
           rdf:resource="http://purl.org/dc/dcmitype/StillImage" />
        <dc:title />
      </cc:Work>
    </rdf:RDF>
  </metadata>
  <sodipodi:namedview
     pagecolor="#ffffff"
     bordercolor="#666666"
     borderopacity="1"
     objecttolerance="10"
     gridtolerance="10"
     guidetolerance="10"
     inkscape:pageopacity="0"
     inkscape:pageshadow="2"
     inkscape:window-width="1920"
     inkscape:window-height="1016"
     id="namedview42"
     showgrid="false"
     inkscape:zoom="17.479167"
     inkscape:cx="64.541125"
     inkscape:cy="26.123962"
     inkscape:window-x="0"
     inkscape:window-y="27"
     inkscape:window-maximized="1"
     inkscape:current-layer="g38"
     showguides="false" />
  <defs
     id="defs24">
    <linearGradient
       id="linearGradient974"
       x1="152"
       x2="152"
       y1="108"
       y2="244"
       gradientTransform="matrix(0.26458333,0,0,0.26458333,-7.055502,221.11081)"
       gradientUnits="userSpaceOnUse">
      <stop
         style="stop-color:#808080"
         offset="0"
         id="stop2" />
      <stop
         style="stop-color:#999999"
         offset="1"
         id="stop4" />
    </linearGradient>
    <linearGradient
       id="linearGradient4226"
       x1="529.65503"
       x2="-35.310001"
       y1="295.638"
       y2="295.638"
       gradientTransform="matrix(0,-0.11988932,-0.11988589,0,66.487288,293.07747)"
       gradientUnits="userSpaceOnUse">
      <stop
         style="stop-color:#999999"
         offset="0"
         id="stop7" />
      <stop
         style="stop-color:#b7b7b7"
         offset=".613"
         id="stop9" />
      <stop
         style="stop-color:#dbdbdb"
         offset="1"
         id="stop11" />
    </linearGradient>
    <linearGradient
       id="linearGradient4358"
       x1="88"
       x2="488"
       y1="88"
       y2="488"
       gradientUnits="userSpaceOnUse">
      <stop
         style="stop-color:#000000;stop-opacity:.58823532"
         offset="0"
         id="stop14" />
      <stop
         style="stop-color:#000000;stop-opacity:0"
         offset=".88"
         id="stop16" />
      <stop
         style="stop-color:#000000"
         offset="1"
         id="stop18" />
    </linearGradient>
    <filter
       id="filter4346"
       width="1.026"
       height="1.022"
       x="-0.0099999998"
       y="-0.0099999998"
       style="color-interpolation-filters:sRGB">
      <feGaussianBlur
         stdDeviation="2.12"
         id="feGaussianBlur21" />
    </filter>
    <clipPath
       clipPathUnits="userSpaceOnUse"
       id="clipPath994-5">
      <path
         style="color:#000000;display:inline;overflow:visible;visibility:visible;fill:#cdcdcd;fill-opacity:1;fill-rule:nonzero;stroke:none;stroke-width:2;stroke-miterlimit:4;stroke-dasharray:none;stroke-opacity:1;marker:none;enable-background:accumulate"
         d="m 335.73108,62 c -8.82418,0 -9.77365,0.90635 -9.7304,9.74838 V 84 96.25162 c -0.0433,8.84203 0.90622,9.74838 9.7304,9.74838 h 16.53919 c 8.82418,0 9.7304,-0.90625 9.7304,-9.74838 V 84 71.74838 C 362.00067,62.90625 361.09445,62 352.27027,62 Z"
         id="path996-3"
         inkscape:connector-curvature="0"
         sodipodi:nodetypes="scccssscsss" />
    </clipPath>
    <clipPath
       clipPathUnits="userSpaceOnUse"
       id="clipPath994-5-3">
      <path
         style="color:#000000;display:inline;overflow:visible;visibility:visible;fill:#cdcdcd;fill-opacity:1;fill-rule:nonzero;stroke:none;stroke-width:2;stroke-miterlimit:4;stroke-dasharray:none;stroke-opacity:1;marker:none;enable-background:accumulate"
         d="m 335.73108,62 c -8.82418,0 -9.77365,0.90635 -9.7304,9.74838 V 84 96.25162 c -0.0433,8.84203 0.90622,9.74838 9.7304,9.74838 h 16.53919 c 8.82418,0 9.7304,-0.90625 9.7304,-9.74838 V 84 71.74838 C 362.00067,62.90625 361.09445,62 352.27027,62 Z"
         id="path996-3-6"
         inkscape:connector-curvature="0"
         sodipodi:nodetypes="scccssscsss" />
    </clipPath>
    <clipPath
       clipPathUnits="userSpaceOnUse"
       id="clipPath994-5-7">
      <path
         style="color:#000000;display:inline;overflow:visible;visibility:visible;fill:#cdcdcd;fill-opacity:1;fill-rule:nonzero;stroke:none;stroke-width:2;stroke-miterlimit:4;stroke-dasharray:none;stroke-opacity:1;marker:none;enable-background:accumulate"
         d="m 335.73108,62 c -8.82418,0 -9.77365,0.90635 -9.7304,9.74838 V 84 96.25162 c -0.0433,8.84203 0.90622,9.74838 9.7304,9.74838 h 16.53919 c 8.82418,0 9.7304,-0.90625 9.7304,-9.74838 V 84 71.74838 C 362.00067,62.90625 361.09445,62 352.27027,62 Z"
         id="path996-3-5"
         inkscape:connector-curvature="0"
         sodipodi:nodetypes="scccssscsss" />
    </clipPath>
    <clipPath
       clipPathUnits="userSpaceOnUse"
       id="clipPath994-5-35">
      <path
         style="color:#000000;display:inline;overflow:visible;visibility:visible;fill:#cdcdcd;fill-opacity:1;fill-rule:nonzero;stroke:none;stroke-width:2;stroke-miterlimit:4;stroke-dasharray:none;stroke-opacity:1;marker:none;enable-background:accumulate"
         d="m 335.73108,62 c -8.82418,0 -9.77365,0.90635 -9.7304,9.74838 V 84 96.25162 c -0.0433,8.84203 0.90622,9.74838 9.7304,9.74838 h 16.53919 c 8.82418,0 9.7304,-0.90625 9.7304,-9.74838 V 84 71.74838 C 362.00067,62.90625 361.09445,62 352.27027,62 Z"
         id="path996-3-62"
         inkscape:connector-curvature="0"
         sodipodi:nodetypes="scccssscsss" />
    </clipPath>
    <clipPath
       clipPathUnits="userSpaceOnUse"
       id="clipPath994-5-9">
      <path
         style="color:#000000;display:inline;overflow:visible;visibility:visible;fill:#cdcdcd;fill-opacity:1;fill-rule:nonzero;stroke:none;stroke-width:2;stroke-miterlimit:4;stroke-dasharray:none;stroke-opacity:1;marker:none;enable-background:accumulate"
         d="m 335.73108,62 c -8.82418,0 -9.77365,0.90635 -9.7304,9.74838 V 84 96.25162 c -0.0433,8.84203 0.90622,9.74838 9.7304,9.74838 h 16.53919 c 8.82418,0 9.7304,-0.90625 9.7304,-9.74838 V 84 71.74838 C 362.00067,62.90625 361.09445,62 352.27027,62 Z"
         id="path996-3-1"
         inkscape:connector-curvature="0"
         sodipodi:nodetypes="scccssscsss" />
    </clipPath>
    <clipPath
       clipPathUnits="userSpaceOnUse"
       id="clipPath994-5-2">
      <path
         style="color:#000000;display:inline;overflow:visible;visibility:visible;fill:#cdcdcd;fill-opacity:1;fill-rule:nonzero;stroke:none;stroke-width:2;stroke-miterlimit:4;stroke-dasharray:none;stroke-opacity:1;marker:none;enable-background:accumulate"
         d="m 335.73108,62 c -8.82418,0 -9.77365,0.90635 -9.7304,9.74838 V 84 96.25162 c -0.0433,8.84203 0.90622,9.74838 9.7304,9.74838 h 16.53919 c 8.82418,0 9.7304,-0.90625 9.7304,-9.74838 V 84 71.74838 C 362.00067,62.90625 361.09445,62 352.27027,62 Z"
         id="path996-3-7"
         inkscape:connector-curvature="0"
         sodipodi:nodetypes="scccssscsss" />
    </clipPath>
    <clipPath
       clipPathUnits="userSpaceOnUse"
       id="clipPath957">
      <path
         sodipodi:nodetypes="scccssscsss"
         inkscape:connector-curvature="0"
         id="path959"
         d="m 340.73108,63 c -8.82418,0 -9.77365,0.90635 -9.7304,9.74838 V 83 87.25162 C 330.95738,96.09365 331.9069,97 340.73108,97 h 6.53919 c 8.82418,0 9.7304,-0.90625 9.7304,-9.74838 V 83 72.74838 C 357.00067,63.90625 356.09445,63 347.27027,63 Z"
         style="color:#000000;display:inline;overflow:visible;visibility:visible;fill:#76c22b;fill-opacity:1;fill-rule:nonzero;stroke:none;stroke-width:2;stroke-miterlimit:4;stroke-dasharray:none;stroke-opacity:1;marker:none;enable-background:accumulate" />
    </clipPath>
    <clipPath
       clipPathUnits="userSpaceOnUse"
       id="clipPath892">
      <path
         sodipodi:nodetypes="ccccccccc"
         inkscape:connector-curvature="0"
         id="path894"
         d="m 365.9998,93.00023 c 0,5 -1.95653,4.94169 -7,5 H 329 c -5.04347,-0.0583 -7,0 -7,-5 V 75.000018 c 0,-5.000001 1.95653,-4.941694 7,-5.000001 h 29.9998 c 5.04347,0.05831 7,0 7,5.000001 z"
         style="color:#000000;display:inline;overflow:visible;visibility:visible;opacity:1;fill:#cdcdcd;fill-opacity:1;fill-rule:nonzero;stroke:none;stroke-width:2;stroke-linecap:butt;stroke-linejoin:miter;stroke-miterlimit:4;stroke-dasharray:none;stroke-dashoffset:0;stroke-opacity:1;marker:none;enable-background:accumulate" />
    </clipPath>
    <clipPath
       clipPathUnits="userSpaceOnUse"
       id="clipPath892-3">
      <path
         sodipodi:nodetypes="ccccccccc"
         inkscape:connector-curvature="0"
         id="path894-6"
         d="m 365.9998,93.00023 c 0,5 -1.95653,4.94169 -7,5 H 329 c -5.04347,-0.0583 -7,0 -7,-5 V 75.000018 c 0,-5.000001 1.95653,-4.941694 7,-5.000001 h 29.9998 c 5.04347,0.05831 7,0 7,5.000001 z"
         style="color:#000000;display:inline;overflow:visible;visibility:visible;opacity:1;fill:#cdcdcd;fill-opacity:1;fill-rule:nonzero;stroke:none;stroke-width:2;stroke-linecap:butt;stroke-linejoin:miter;stroke-miterlimit:4;stroke-dasharray:none;stroke-dashoffset:0;stroke-opacity:1;marker:none;enable-background:accumulate" />
    </clipPath>
    <clipPath
       clipPathUnits="userSpaceOnUse"
       id="clipPath892-35">
      <path
         sodipodi:nodetypes="ccccccccc"
         inkscape:connector-curvature="0"
         id="path894-62"
         d="m 365.9998,93.00023 c 0,5 -1.95653,4.94169 -7,5 H 329 c -5.04347,-0.0583 -7,0 -7,-5 V 75.000018 c 0,-5.000001 1.95653,-4.941694 7,-5.000001 h 29.9998 c 5.04347,0.05831 7,0 7,5.000001 z"
         style="color:#000000;display:inline;overflow:visible;visibility:visible;opacity:1;fill:#cdcdcd;fill-opacity:1;fill-rule:nonzero;stroke:none;stroke-width:2;stroke-linecap:butt;stroke-linejoin:miter;stroke-miterlimit:4;stroke-dasharray:none;stroke-dashoffset:0;stroke-opacity:1;marker:none;enable-background:accumulate" />
    </clipPath>
    <linearGradient
       inkscape:collect="always"
       xlink:href="#linearGradient927"
       id="linearGradient920"
       x1="344"
       y1="70"
       x2="344"
       y2="98"
       gradientUnits="userSpaceOnUse" />
    <linearGradient
       inkscape:collect="always"
       id="linearGradient927">
      <stop
         style="stop-color:#ffffff;stop-opacity:1;"
         offset="0"
         id="stop923" />
      <stop
         id="stop933"
         offset="0.125"
         style="stop-color:#ffffff;stop-opacity:0.09803922" />
      <stop
         id="stop931"
         offset="0.92500001"
         style="stop-color:#ffffff;stop-opacity:0.09803922" />
      <stop
         style="stop-color:#ffffff;stop-opacity:0.49803922"
         offset="1"
         id="stop925" />
    </linearGradient>
    <clipPath
       clipPathUnits="userSpaceOnUse"
       id="clipPath892-6">
      <path
         sodipodi:nodetypes="ccccccccc"
         inkscape:connector-curvature="0"
         id="path894-2"
         d="m 365.9998,93.00023 c 0,5 -1.95653,4.94169 -7,5 H 329 c -5.04347,-0.0583 -7,0 -7,-5 V 75.000018 c 0,-5.000001 1.95653,-4.941694 7,-5.000001 h 29.9998 c 5.04347,0.05831 7,0 7,5.000001 z"
         style="color:#000000;display:inline;overflow:visible;visibility:visible;opacity:1;fill:#cdcdcd;fill-opacity:1;fill-rule:nonzero;stroke:none;stroke-width:2;stroke-linecap:butt;stroke-linejoin:miter;stroke-miterlimit:4;stroke-dasharray:none;stroke-dashoffset:0;stroke-opacity:1;marker:none;enable-background:accumulate" />
    </clipPath>
    <linearGradient
       gradientTransform="matrix(0.26457031,0,0,0.26457031,-84.662499,268.423)"
       inkscape:collect="always"
       xlink:href="#linearGradient1048"
       id="linearGradient1050"
       x1="344"
       y1="70"
       x2="344"
       y2="98"
       gradientUnits="userSpaceOnUse" />
    <linearGradient
       inkscape:collect="always"
       id="linearGradient1048">
      <stop
         style="stop-color:#cdcdcd;stop-opacity:1;"
         offset="0"
         id="stop1044" />
      <stop
         style="stop-color:#d9d9d9;stop-opacity:1"
         offset="1"
         id="stop1046" />
    </linearGradient>
  </defs>
  <g
     transform="translate(0,-284.29728)"
     id="g38">
    <path
       style="color:#000000;display:inline;overflow:visible;visibility:visible;opacity:0.2;fill:none;fill-opacity:1;fill-rule:nonzero;stroke:#000000;stroke-width:0.52914065;stroke-linecap:butt;stroke-linejoin:miter;stroke-miterlimit:4;stroke-dasharray:none;stroke-dashoffset:0;stroke-opacity:1;marker:none;enable-background:accumulate"
       d="m 12.170182,293.29267 c 0,1.32285 -0.51764,1.30742 -1.851992,1.32285 H 2.3811328 c -1.3343524,-0.0154 -1.85199216,0 -1.85199216,-1.32285 v -4.76232 c 0,-1.32285 0.51763976,-1.30743 1.85199216,-1.32285 H 10.31819 c 1.334352,0.0154 1.851992,0 1.851992,1.32285 z"
       id="path922"
       inkscape:connector-curvature="0"
       sodipodi:nodetypes="ccccccccc" />
    <path
       style="color:#000000;display:inline;overflow:visible;visibility:visible;opacity:1;fill:url(#linearGradient1050);fill-opacity:1;fill-rule:nonzero;stroke:none;stroke-width:0.52914065;stroke-linecap:butt;stroke-linejoin:miter;stroke-miterlimit:4;stroke-dasharray:none;stroke-dashoffset:0;stroke-opacity:1;marker:none;enable-background:accumulate"
       d="m 2.3795824,294.48317 c -0.6664685,-0.008 -1.1414674,0.004 -1.48872386,-0.18757 -0.1736296,-0.0958 -0.3056819,-0.24988 -0.3839365,-0.45835 -0.078255,-0.20847 -0.1100665,-0.46987 -0.1100665,-0.80921 v -4.76227 c 0,-0.33934 0.031812,-0.60074 0.1100665,-0.80921 0.078255,-0.20847 0.2103069,-0.36255 0.3839365,-0.45835 0.34725646,-0.19159 0.82225536,-0.17987 1.48872386,-0.18757 h 0.00106 7.9381426 0.0011 c 0.666468,0.008 1.141467,-0.004 1.488724,0.18757 0.173629,0.0958 0.305682,0.24988 0.383936,0.45835 0.07816,0.20847 0.110019,0.46987 0.110019,0.80921 v 4.76227 c 0,0.33934 -0.03181,0.60074 -0.110066,0.80921 -0.07826,0.20847 -0.210307,0.36255 -0.383937,0.45835 -0.347256,0.19159 -0.822255,0.17987 -1.488724,0.18757 h -0.0011 -7.9381422 z"
       id="path865"
       inkscape:connector-curvature="0"
       sodipodi:nodetypes="cssssscccccscsssccccc" />
    <path
       transform="matrix(0.26457031,0,0,0.26457031,-84.662499,268.423)"
       style="color:#000000;display:inline;overflow:visible;visibility:visible;opacity:0.5;fill:none;fill-opacity:1;fill-rule:nonzero;stroke:url(#linearGradient920);stroke-width:2;stroke-linecap:butt;stroke-linejoin:miter;stroke-miterlimit:4;stroke-dasharray:none;stroke-dashoffset:0;stroke-opacity:1;marker:none;enable-background:accumulate"
       d="m 365.9998,93.00023 c 0,5 -1.95653,4.94169 -7,5 H 329 c -5.04347,-0.0583 -7,0 -7,-5 V 75.000018 c 0,-5.000001 1.95653,-4.941694 7,-5.000001 h 29.9998 c 5.04347,0.05831 7,0 7,5.000001 z"
       id="path888"
       inkscape:connector-curvature="0"
       sodipodi:nodetypes="ccccccccc"
       clip-path="url(#clipPath892-6)" />
    <path
       id="path1057"
       d="m 2.3795824,286.81064 c -0.6664685,0.008 -1.1414674,-0.004 -1.48872386,0.18757 -0.1736296,0.0958 -0.3056819,0.24988 -0.3839365,0.45835 -0.078255,0.20847 -0.1100665,0.46987 -0.1100665,0.80921 v 4.76227 c 0,0.33934 0.031812,0.60074 0.1100665,0.80921 0.078255,0.20847 0.2103069,0.36255 0.3839365,0.45835 0.34725646,0.19159 0.82225536,0.17987 1.48872386,0.18757 h 0.00106 7.9381426 0.0011 c 0.666468,-0.008 1.141467,0.004 1.488724,-0.18757 0.173629,-0.0958 0.305682,-0.24988 0.383936,-0.45835 0.07816,-0.20847 0.110019,-0.46987 0.110019,-0.80921 v -4.76227 c 0,-0.33934 -0.03181,-0.60074 -0.110066,-0.80921 -0.07826,-0.20847 -0.210307,-0.36255 -0.383937,-0.45835 -0.347256,-0.19159 -0.822255,-0.17987 -1.488724,-0.18757 h -0.0011 -7.9381422 z"
       style="color:#000000;display:inline;overflow:visible;visibility:visible;opacity:0.3;fill:none;fill-opacity:1;fill-rule:nonzero;stroke:#000000;stroke-width:0.26457033;stroke-linecap:butt;stroke-linejoin:miter;stroke-miterlimit:4;stroke-dasharray:none;stroke-dashoffset:0;stroke-opacity:1;marker:none;enable-background:accumulate"
       inkscape:connector-curvature="0"
       sodipodi:nodetypes="cssssscccccscsssccccc" />
    <path
       inkscape:connector-curvature="0"
       style="font-style:normal;font-variant:normal;font-weight:normal;font-stretch:normal;font-size:15px;line-height:125%;font-family:Ubuntu;-inkscape-font-specification:Ubuntu;text-align:center;letter-spacing:0px;word-spacing:0px;writing-mode:lr-tb;text-anchor:middle;display:inline;opacity:0.05;fill:#000000;fill-opacity:1;stroke:#000000;stroke-width:0.52914065;stroke-linejoin:round;stroke-miterlimit:4;stroke-dasharray:none;stroke-opacity:1;enable-background:new"
       d="m 2.1165625,288.26577 v 1.05828 h 1.0582812 v -1.05828 z m 1.8519922,0 v 1.05828 h 1.0582812 v -1.05828 z m 1.8519922,0 v 1.05828 h 1.0582807 v -1.05828 z m 1.8519917,0 v 1.05828 h 1.058282 v -1.05828 z m 1.851993,0 v 1.05828 h 1.0582814 v -1.05828 z m -6.6142582,1.85199 v 1.05829 h 1.0582813 v -1.05829 z m 1.8519922,0 v 1.05829 h 1.0582813 v -1.05829 z m 1.851992,0 v 1.05829 h 1.058281 v -1.05829 z m 1.851992,0 v 1.05829 h 1.058282 v -1.05829 z m -6.3496871,1.852 v 1.05828 h 1.0582812 v -1.05828 z m 1.8519922,0 v 1.05828 h 4.7622659 v -1.05828 z m 5.5559769,0 v 1.05828 h 1.0582814 v -1.05828 z"
       id="path886"
       sodipodi:nodetypes="cccccccccccccccccccccccccccccccccccccccccccccccccccccccccccc" />
    <path
       id="path884"
       d="m 2.1165625,288.53034 v 1.05828 h 1.0582812 v -1.05828 z m 1.8519922,0 v 1.05828 h 1.0582812 v -1.05828 z m 1.8519922,0 v 1.05828 h 1.0582807 v -1.05828 z m 1.8519917,0 v 1.05828 h 1.058282 v -1.05828 z m 1.851993,0 v 1.05828 h 1.0582814 v -1.05828 z m -6.6142582,1.85199 v 1.05829 h 1.0582813 v -1.05829 z m 1.8519922,0 v 1.05829 h 1.0582813 v -1.05829 z m 1.851992,0 v 1.05829 h 1.058281 v -1.05829 z m 1.851992,0 v 1.05829 h 1.058282 v -1.05829 z m -6.3496871,1.852 v 1.05828 h 1.0582812 v -1.05828 z m 1.8519922,0 v 1.05828 h 4.7622659 v -1.05828 z m 5.5559769,0 v 1.05828 h 1.0582814 v -1.05828 z"
       style="font-style:normal;font-variant:normal;font-weight:normal;font-stretch:normal;font-size:15px;line-height:125%;font-family:Ubuntu;-inkscape-font-specification:Ubuntu;text-align:center;letter-spacing:0px;word-spacing:0px;writing-mode:lr-tb;text-anchor:middle;display:inline;opacity:0.25;fill:#000000;fill-opacity:1;stroke:none;stroke-width:0.13225898;enable-background:new"
       inkscape:connector-curvature="0"
       sodipodi:nodetypes="cccccccccccccccccccccccccccccccccccccccccccccccccccccccccccc" />
    <path
       inkscape:connector-curvature="0"
       style="font-style:normal;font-variant:normal;font-weight:normal;font-stretch:normal;font-size:15px;line-height:125%;font-family:Ubuntu;-inkscape-font-specification:Ubuntu;text-align:center;letter-spacing:0px;word-spacing:0px;writing-mode:lr-tb;text-anchor:middle;display:inline;opacity:1;fill:#f7f7f7;fill-opacity:1;stroke:none;stroke-width:0.13225898;enable-background:new"
       d="m 2.1165625,288.26577 v 1.05828 h 1.0582812 v -1.05828 z m 1.8519922,0 v 1.05828 h 1.0582812 v -1.05828 z m 1.8519922,0 v 1.05828 h 1.0582807 v -1.05828 z m 1.8519917,0 v 1.05828 h 1.058282 v -1.05828 z m 1.851993,0 v 1.05828 h 1.0582814 v -1.05828 z m -6.6142582,1.85199 v 1.05829 h 1.0582813 v -1.05829 z m 1.8519922,0 v 1.05829 h 1.0582813 v -1.05829 z m 1.851992,0 v 1.05829 h 1.058281 v -1.05829 z m 1.851992,0 v 1.05829 h 1.058282 v -1.05829 z m -6.3496871,1.852 v 1.05828 h 1.0582812 v -1.05828 z m 1.8519922,0 v 1.05828 h 4.7622659 v -1.05828 z m 5.5559769,0 v 1.05828 h 1.0582814 v -1.05828 z"
       id="path4321"
       sodipodi:nodetypes="cccccccccccccccccccccccccccccccccccccccccccccccccccccccccccc" />
    <path
       style="font-style:normal;font-variant:normal;font-weight:normal;font-stretch:normal;font-size:15px;line-height:125%;font-family:Ubuntu;-inkscape-font-specification:Ubuntu;text-align:center;letter-spacing:0px;word-spacing:0px;writing-mode:lr-tb;text-anchor:middle;display:inline;opacity:1;fill:#ffffff;fill-opacity:1;stroke:none;stroke-width:0.13225898;enable-background:new"
       d="m 2.1165625,288.26577 v 0.26457 h 1.0582812 v -0.26457 z m 1.8519922,0 v 0.26457 h 1.0582812 v -0.26457 z m 1.8519922,0 v 0.26457 h 1.0582807 v -0.26457 z m 1.8519917,0 v 0.26457 h 1.058282 v -0.26457 z m 1.851993,0 v 0.26457 h 1.0582814 v -0.26457 z m -6.6142582,1.85199 v 0.26457 h 1.0582813 v -0.26457 z m 1.8519922,0 v 0.26457 h 1.0582813 v -0.26457 z m 1.851992,0 v 0.26457 h 1.058281 v -0.26457 z m 1.851992,0 v 0.26457 h 1.058282 v -0.26457 z m -6.3496871,1.852 v 0.26457 h 1.0582812 v -0.26457 z m 1.8519922,0 v 0.26457 h 4.7622659 v -0.26457 z m 5.5559769,0 v 0.26457 h 1.0582814 v -0.26457 z"
       id="path1256"
       inkscape:connector-curvature="0"
       sodipodi:nodetypes="cccccccccccccccccccccccccccccccccccccccccccccccccccccccccccc" />
  </g>
</svg>
