<svg height="48" viewBox="0 0 12.699375 12.699375" width="48" xmlns="http://www.w3.org/2000/svg" xmlns:xlink="http://www.w3.org/1999/xlink"><linearGradient id="a" gradientUnits="userSpaceOnUse" x1="4.49775116" x2="8.73087612" y1="286.01698077" y2="295.01237131"><stop offset="0" stop-color="#9a9a9a"/><stop offset="1" stop-color="#c5c5c5"/></linearGradient><linearGradient id="b" gradientUnits="userSpaceOnUse" x1="366.00003" x2="322.00003" y1="84.000221" y2="84.000221"><stop offset="0" stop-color="#fff"/><stop offset=".125" stop-color="#fff" stop-opacity=".098039"/><stop offset=".92500001" stop-color="#fff" stop-opacity=".098039"/><stop offset="1" stop-color="#fff" stop-opacity=".498039"/></linearGradient><clipPath id="c"><path d="m365.9998 93.00023c0 5-1.95653 4.94169-7 5h-29.9998c-5.04347-.0583-7 0-7-5v-18.000212c0-5.000001 1.95653-4.941694 7-5.000001h29.9998c5.04347.05831 7 0 7 5.000001z"/></clipPath><g transform="translate(0 -284.29728)"><path d="m8.9954489 284.95876c1.3228521 0 1.3074251.51764 1.3228521 1.85199v7.93706c-.01542 1.33435 0 1.85199-1.3228521 1.85199h-4.7623238c-1.3228516 0-1.3074245-.51764-1.3228516-1.85199v-7.93706c.015424-1.33435 0-1.85199 1.3228516-1.85199z" fill="none" opacity=".2" stroke="#000" stroke-width=".529141"/><path d="m10.450583 294.48478c-.0077.66647.004 1.14147-.187575 1.48873-.0958.17363-.249881.30568-.4583492.38393-.2084686.0783-.469872.11007-.8092125.11007h-4.7622657c-.3393405 0-.6007439-.0318-.8092121-.11007-.2084682-.0783-.3625513-.2103-.4583496-.38393-.1915965-.34726-.1798707-.82226-.187575-1.48873v-.001-7.93814-.001c.0077-.66646-.00402-1.14146.187575-1.48872.095798-.17363.2498814-.30568.4583496-.38394.2084655-.0782.4698716-.11001.8092121-.11001h4.7622657c.3393405 0 .6007439.0318.8092125.11006.2084682.0783.3625512.21031.4583492.38394.191594.34725.179871.82225.187575 1.48872v.001 7.93814z" fill="#4d4d4d"/><path d="m4.2331806 284.56185c-.3393405 0-.6007466.0319-.8092121.11006-.2084682.0783-.3625513.21031-.4583496.38394-.1915965.34725-.179876.82225-.187575 1.48872v.001 7.93815.001c.0077.66647-.00402 1.14147.187575 1.48872.095798.17363.2498814.30568.4583496.38394.2084682.0782.4698716.11007.8092121.11007h2.3811328v-11.90567z" opacity=".03"/><path d="m2.7780439 294.48478c.0077.66647-.00402 1.14147.187575 1.48873.095798.17363.2498814.30568.4583496.38393.2084655.0783.4698716.11007.8092121.11007h4.7622657c.3393405 0 .6007439-.0318.8092125-.11007.2084682-.0783.3625512-.2103.4583492-.38393.191594-.34726.179871-.82226.187575-1.48873v-.001-7.93814-.001c-.0077-.66646.004-1.14146-.187575-1.48872-.0958-.17363-.249881-.30568-.4583492-.38394-.2084686-.0782-.469872-.11001-.8092125-.11001h-4.7622657c-.3393405 0-.6007466.0318-.8092121.11006-.2084682.0783-.3625513.21031-.4583496.38394-.1915939.34725-.1798707.82225-.187575 1.48872v.001 7.93814z" fill="none" opacity=".3" stroke="#000" stroke-width=".26457"/><path clip-path="url(#c)" d="m365.9998 93.00023c0 5-1.95653 4.94169-7 5h-29.9998c-5.04347-.0583-7 0-7-5v-18.000212c0-5.000001 1.95653-4.941694 7-5.000001h29.9998c5.04347.05831 7 0 7 5.000001z" fill="none" opacity=".3" stroke="url(#b)" stroke-width="2" transform="matrix(0 -.26457031 .26457031 0 -15.609651 381.52687)"/><rect fill="url(#a)" height="8.995391" rx=".26457" width="6.349688" x="3.43947" y="286.017"/><rect height=".26457" opacity=".3" rx=".132285" width="1.058281" x="6.085172" y="285.2233"/><path d="m6.4460467 286.01698-3.006577 6.01289v2.57362c0 .22652.182363.40888.4088828.40888h.9139688l4.4976953-8.99539z" fill="#fff" opacity=".2"/><path d="m3.70404 286.01698c-.146572 0-.2645703.118-.2645703.26457v5.74832l3.0063125-6.01289z" fill="#fff" opacity=".4"/><path d="m3.70404 286.01698c-.146572 0-.2645703.118-.2645703.26457v.26457c0-.14657.1179983-.26457.2645703-.26457h5.8205469c.1465719 0 .2645699.118.2645699.26457v-.26457c0-.14657-.117998-.26457-.2645699-.26457z" fill="#393939"/><path d="m3.4394697 294.48323v.26457c0 .14657.1179983.26457.2645703.26457h5.8205469c.1465719 0 .2645699-.118.2645699-.26457v-.26457c0 .14657-.117998.26457-.2645699.26457h-5.8205469c-.146572 0-.2645703-.118-.2645703-.26457z" fill="#fff" opacity=".4"/></g></svg>