<svg id="svg40" height="48" viewBox="0 0 12.699375 12.699375" width="48" xmlns="http://www.w3.org/2000/svg" xmlns:xlink="http://www.w3.org/1999/xlink">
  <linearGradient id="linearGradient920" gradientUnits="userSpaceOnUse" x1="344" x2="344" y1="70" y2="98">
    <stop id="stop923" offset="0" stop-color="#fff"/>
    <stop id="stop933" offset=".125" stop-color="#fff" stop-opacity=".098039"/>
    <stop id="stop931" offset=".92500001" stop-color="#fff" stop-opacity=".098039"/>
    <stop id="stop925" offset="1" stop-color="#fff" stop-opacity=".498039"/>
  </linearGradient>
  <clipPath id="clipPath892-367">
    <path id="path894-5" d="m365.9998 93.00023c0 5-1.95653 4.94169-7 5h-29.9998c-5.04347-.0583-7 0-7-5v-18.000212c0-5.000001 1.95653-4.941694 7-5.000001h29.9998c5.04347.05831 7 0 7 5.000001z"/>
  </clipPath>
  <linearGradient id="linearGradient1050" gradientUnits="userSpaceOnUse" x1="6.34968664" x2="6.34968664" y1="286.8107017" y2="294.21867038">
    <stop id="stop1044" offset="0" stop-color="#cdcdcd"/>
    <stop id="stop1046" offset="1" stop-color="#d9d9d9"/>
  </linearGradient>
  <g id="g38" transform="translate(0 -284.29728)">
    <path id="path922" d="m12.170181 293.16045c0 1.32285-.51764 1.30743-1.851992 1.32285h-7.9370562c-1.3343524-.0154-1.85199216 0-1.85199216-1.32285v-4.76232c0-1.32285.51763976-1.30743 1.85199216-1.32285h7.9370562c1.334352.0154 1.851992 0 1.851992 1.32285z" fill="none" opacity=".2" stroke="#000" stroke-width=".529141"/>
    <path id="path865" d="m2.3795824 294.35096c-.6664685-.008-1.1414674.004-1.48872388-.18758-.17362955-.0958-.30568189-.24988-.38393649-.45835s-.11006654-.46987-.11006654-.80921v-4.76227c0-.33934.0318119-.60074.11006654-.80921.0782546-.20847.21030694-.36255.38393649-.45835.34725648-.19159.82225538-.17987 1.48872388-.18757h.00106 7.9381416.0011c.666468.008 1.141467-.004 1.488724.18757.173629.0958.305682.24988.383936.45835.07816.20847.110019.46987.110019.80921v4.76227c0 .33934-.03181.60074-.110066.80921-.07826.20847-.210307.36255-.383937.45835-.347256.1916-.822255.17987-1.488724.18758h-.0011-7.9381412z" fill="url(#linearGradient1050)"/>
    <path id="rect2234" d="m.396856 290.77924h11.905664v.26457h-11.905664z" fill="#fff" opacity=".2"/>
    <path id="path888" clip-path="url(#clipPath892-367)" d="m365.9998 93.00023c0 5-1.95653 4.94169-7 5h-29.9998c-5.04347-.0583-7 0-7-5v-18.000212c0-5.000001 1.95653-4.941694 7-5.000001h29.9998c5.04347.05831 7 0 7 5.000001z" fill="none" opacity=".5" stroke="url(#linearGradient920)" stroke-width="2" transform="matrix(.26457031 0 0 .26457031 -84.6625 268.29078)"/>
    <path id="path1057" d="m2.3795824 286.67842c-.6664685.008-1.1414674-.004-1.48872388.18757-.17362955.0958-.30568189.24988-.38393649.45835s-.11006654.46987-.11006654.80921v4.76227c0 .33934.0318119.60074.11006654.80921.0782546.20847.21030694.36255.38393649.45835.34725648.1916.82225538.17987 1.48872388.18758h.00106 7.9381416.0011c.666468-.008 1.141467.004 1.488724-.18758.173629-.0958.305682-.24988.383936-.45835.07816-.20847.110019-.46987.110019-.80921v-4.76227c0-.33934-.03181-.60074-.110066-.80921-.07826-.20847-.210307-.36255-.383937-.45835-.347256-.19159-.822255-.17987-1.488724-.18757h-.0011-7.9381412z" fill="none" opacity=".3" stroke="#000" stroke-width=".26457"/>
    <path id="path865-4" d="m.39685549 291.04383v1.45513.52914c0 .33935.0318119.60075.11006654.80922.0782546.20847.21030694.36255.38393649.45835.34725648.19159.82225538.17987 1.48872388.18757h.00106 7.9381416.0011c.666468-.008 1.141467.004 1.488724-.18757.173629-.0958.305682-.24988.383936-.45835.07821-.20847.110019-.46987.110019-.80922v-.52914-1.45513h-1.982771-7.9402096z" opacity=".1"/>
    <path id="rect972" d="m2.6457031 287.33984h7.4079689c.146572 0 .26457.118.26457.26457v.26457h-7.9371092v-.26457c0-.14657.1179984-.26457.2645703-.26457z" opacity=".3"/>
    <path id="rect974-78" d="m2.1165625 292.36668v.52914.26457c0 .29314.2359967.52914.5291406.52914h3.7039844 3.7039845c.293143 0 .52914-.236.52914-.52914v-.26457-.52914h-4.2331245z" opacity=".3"/>
    <path id="rect978" d="m3.4394141 296.33523c-.293144 0-.5291407-.23599-.5291407-.52914v-3.43941h6.8788286v3.43941c0 .29315-.2359972.52914-.5291411.52914zm-.5291407-8.46625v-2.6457c0-.29314.2359967-.52914.5291407-.52914h5.8205468c.2931439 0 .5291411.236.5291411.52914v2.6457z" fill="#939393"/>
    <path id="rect980" d="m3.5716992 296.07066c-.2198579 0-.3968555-.17699-.3968555-.39685v-3.30713h6.3496875v3.30713c0 .21986-.1769975.39685-.3968554.39685zm-.3968555-8.20168v-2.51341c0-.21986.1769976-.39686.3968555-.39686h5.5559766c.2198579 0 .3968554.177.3968554.39686v2.51341z" fill="#fff"/>
    <rect id="rect1052" fill="#939393" height=".26457" opacity=".5" rx=".148821" ry=".132285" width="4.762266" x="3.968555" y="294.48325"/>
    <rect id="rect1052-6" fill="#939393" height=".26457" opacity=".5" rx=".148821" ry=".132285" width="4.762266" x="3.968555" y="293.42496"/>
    <rect id="rect2739" fill="#46a926" height=".529141" rx=".26457" width=".529141" x="10.053673" y="289.98553"/>
    <rect id="rect2739-0" fill="#f34f17" height=".529141" rx=".26457" width=".529141" x="8.995392" y="289.98553"/>
    <rect id="rect2739-2" fill="#f22c42" height=".529141" rx=".26457" width=".529141" x="7.93711" y="289.98553"/>
    <path id="rect2237" d="m2.116562 292.36667h8.46625v.529141h-8.46625z" opacity=".2"/>
    <path id="rect2240" d="m2.116562 292.36667h8.46625v.26457h-8.46625z" opacity=".2"/>
  </g>
</svg>
