<svg height="24" viewBox="0 0 6.3499999 6.3500002" width="24" xmlns="http://www.w3.org/2000/svg" xmlns:xlink="http://www.w3.org/1999/xlink">
  <linearGradient id="linearGradient981" gradientUnits="userSpaceOnUse" x1="332" x2="332" y1="189" y2="211">
    <stop offset="0" stop-color="#f2f2f7"/>
    <stop offset=".125" stop-color="#f2f2f7" stop-opacity=".098039"/>
    <stop offset=".92500001" stop-color="#f2f2f7" stop-opacity=".098039"/>
    <stop offset="1" stop-color="#f2f2f7" stop-opacity=".498039"/>
  </linearGradient>
  <clipPath id="clipPath971-3">
    <path d="m327.8652 189c-4.41209 0-4.88682.45318-4.8652 4.87419v6.12581 6.12581c-.0217 4.42101.45311 4.87419 4.8652 4.87419h8.2696c4.41209 0 4.8652-.45312 4.8652-4.87419v-6.12581-6.12581c0-4.42106-.45312-4.87419-4.86521-4.87419z"/>
  </clipPath>
  <linearGradient id="linearGradient916" gradientTransform="matrix(0 -.01438682 .01438642 0 -1.173372 297.25399)" gradientUnits="userSpaceOnUse" x1="459.03448" x2="35.310345" y1="419.23337" y2="207.36522">
    <stop offset="0" stop-color="#f2f2f2"/>
    <stop offset="1" stop-color="#f9f9f9"/>
  </linearGradient>
  <g transform="translate(0 -290.64999)">
    <path d="m2.2837288 290.90393c-.2845177 0-.5118748.006-.7089219.0392-.197047.033-.3759584.0985-.5104854.23267-.13452445.13421-.20086213.31416-.2336614.51147-.0327967.19731-.0381054.42461-.0367109.70992v1.55477 1.55576c-.00127.28474.003963.51189.0367109.70892.0327967.19731.0991344.37728.2336614.51148.1345296.13421.3134384.19959.5104854.23267.1970471.033.4244042.0392.7089219.0392h2.1004792c.2845151 0 .5112144-.006.7079312-.0392.1967143-.0331.3759254-.0989.5099876-.23316.1340623-.13429.1996303-.31354.2326683-.51049s.039192-.42434.039192-.70942v-1.55576-1.55576c0-.28508-.00614-.51247-.039192-.70942-.033038-.19695-.098606-.3762-.2326683-.51048-.1340622-.1343-.3132707-.20007-.5099876-.23317-.1967194-.0331-.4234136-.0392-.7079312-.0392z" opacity=".1"/>
    <path d="m2.2837212 290.90393c-1.1206793 0-1.2412617.11512-1.2357701 1.23806v1.55597 1.55597c-.00551 1.12294.1150908 1.23805 1.2357701 1.23805h2.1004943c1.1206794 0 1.2357702-.11509 1.2357702-1.23805v-1.55597-1.55597c0-1.12296-.1150934-1.23806-1.2357727-1.23806z" fill="none" opacity=".2" stroke="#000" stroke-width=".508004"/>
    <path d="m2.2837212 290.90393c-1.1206793 0-1.2412617.11512-1.2357701 1.23806v1.55597 1.55597c-.00551 1.12294.1150908 1.23805 1.2357701 1.23805h2.1004943c1.1206794 0 1.2357702-.11509 1.2357702-1.23805v-1.55597-1.55597c0-1.12296-.1150934-1.23806-1.2357727-1.23806z" fill="url(#linearGradient916)"/>
    <g enable-background="new" opacity=".75" transform="matrix(.19050106 0 0 .19050106 -122.39674 254.07373)">
      <g fill="none">
        <path d="m901.0002-164v5l3 3" stroke="#f2f2f7" transform="translate(-241.0002 367)"/>
        <path d="m200.00002-668.00006h16v16h-16z" transform="rotate(90)"/>
        <path d="m200.00003-668.00006h16.000002v16h-16.000002z" transform="rotate(90)"/>
      </g>
      <path d="m660 200a8 8 0 0 0 -8 8 8 8 0 0 0 8 8 8 8 0 0 0 8-8 8 8 0 0 0 -8-8zm0 1a7 7 0 0 1 7 7 7 7 0 0 1 -7 7 7 7 0 0 1 -7-7 7 7 0 0 1 7-7z" fill="#f2f2f7" opacity="1"/>
    </g>
    <path d="m1.0479511 293.69796v1.55576c-.00551 1.12294.1150984 1.23826 1.2357777 1.23826h2.1004792c1.1206792 0 1.2357777-.11531 1.2357777-1.23826v-1.55576z" fill="#f2f2f7" opacity=".2"/>
    <path d="m3.3339684 290.90393v5.58805h1.0502396c1.1206792 0 1.2357777-.11531 1.2357777-1.23826v-1.55576-1.55576c0-1.12296-.1150985-1.23827-1.2357777-1.23827z" fill="#f2f2f7" opacity=".2"/>
    <path clip-path="url(#clipPath971-3)" d="m327.8652 189c-4.41209 0-4.88682.45318-4.8652 4.87419v6.12581 6.12581c-.0217 4.42101.45311 4.87419 4.8652 4.87419h8.2696c4.41209 0 4.8652-.45312 4.8652-4.87419v-6.12581-6.12581c0-4.42106-.45312-4.87419-4.86521-4.87419z" fill="none" opacity=".4" stroke="url(#linearGradient981)" stroke-width="2" transform="matrix(.25400192 0 0 .25400192 -80.99467 242.89757)"/>
  </g>
</svg>
