<svg height="24" width="24" xmlns="http://www.w3.org/2000/svg">
  <g fill-rule="evenodd">
    <path d="m11.683594.49609375a11 11 0 0 0 -10.683594 11.00000025 11 11 0 0 0 12.257812 10.923828 6.5 6.5 0 0 1 -2.257812-4.919922 6.5 6.5 0 0 1 .962891-3.390625.64569997.64569997 0 0 1 -.427735-.193359l-2.9277341-2.970704a.0407.0407 0 0 0 -.0136719-.007812.0407.0407 0 0 0 -.0351562.001953.0407.0407 0 0 0 -.0214844.035156v4.316407a.32999999.32999999 0 0 1 -.3300782.330078h-1.3769531a.32999999.32999999 0 0 1 -.3300781-.330078v-7.5898441a.32999999.32999999 0 0 1 .3300781-.3300781h.9472657a.64789997.64789997 0 0 1 .4609374.1933593l3.6523438 3.6894529a.16169999.16169999 0 0 0 .230469 0l3.644531-3.691406a.64789997.64789997 0 0 1 .460937-.1933594h.94336a.32999999.32999999 0 0 1 .330078.3300782v3.3007812a6.5 6.5 0 0 1 5.263672 2.701172 11 11 0 0 0 .236328-2.205078 11 11 0 0 0 -11.316406-11.00000025zm3.726562 10.43945325a.0407.0407 0 0 0 -.007812.001953.0407.0407 0 0 0 -.013672.009766l-.681641.689453a6.5 6.5 0 0 1 .751953-.298828v-.361329a.0407.0407 0 0 0 -.011718-.029296.0407.0407 0 0 0 -.009766-.007813.0407.0407 0 0 0 -.027344-.003906z" fill="#f2f2f7" fill-opacity=".89"/>
    <path d="m12.003054 17.634224a5.5 5.5 0 1 0 5.5-5.5 5.5 5.5 0 0 0 -5.5 5.5zm4 2.5h-1v-5h1zm4 0h-1v-5h1z" fill="#ff9f0a" fill-opacity=".89"/>
  </g>
</svg>
