<svg height="24" width="24" xmlns="http://www.w3.org/2000/svg">
  <g enable-background="new" fill="#f2f2f7" transform="matrix(.28629058 0 0 .28629058 1 1)">
    <g>
      <path d="m20.618 26.923 8.931 5.954-8.931 5.954v9.181l22.702-15.135-22.702-15.135z"/>
      <path d="m55.388 50.051-8.931-5.954 8.931-5.954v-9.181l-22.703 15.135 22.703 15.135z"/>
    </g>
    <g>
      <path d="m64.776 23.074c2.632 4.509 4.147 9.75 4.147 15.348 0 16.845-13.656 30.5-30.5 30.5-9.922 0-18.734-4.741-24.304-12.077l-6.589 4.393c7.005 9.461 18.243 15.607 30.892 15.607 21.186 0 38.423-17.236 38.423-38.423 0-7.215-2.002-13.97-5.476-19.744z"/>
      <path d="m7.922 38.423c0-16.845 13.656-30.5 30.5-30.5 9.826 0 18.561 4.652 24.139 11.868l6.596-4.397c-7.015-9.341-18.181-15.394-30.734-15.394-21.187 0-38.423 17.236-38.423 38.423 0 7.12 1.954 13.789 5.343 19.513l6.594-4.396c-2.55-4.457-4.015-9.615-4.015-15.117z"/>
    </g>
  </g>
</svg>
