<svg width="256" height="256" viewBox="0 0 256 256" fill="none" xmlns="http://www.w3.org/2000/svg">
    <g id="folder-yaru-wifi">
        <path id="secondario" d="M55.7169 20.7725C20.3466 20.7725 16.7208 22.7717 16.7208 58.0712V108.777H240.732V77.6971C240.732 42.3977 237.106 36.7732 201.736 36.7732H114.726L98.7249 20.7725H55.7169Z" fill="url(#paint0_linear)"/>
        <path id="ombra" opacity="0.5" d="M55.7163 68.7747C20.346 68.7747 16.7208 72.3999 16.7208 107.699V189.858C16.7208 225.157 20.346 228.783 55.7163 228.783H201.736C237.107 228.783 240.732 225.157 240.732 189.858V91.6986C240.732 56.3991 237.107 52.7739 201.736 52.7739H120.476L104.467 68.7747H55.7163Z" fill="#242424"/>
        <path id="primario" d="M55.7163 68.7747C20.346 68.7747 16.7208 72.3999 16.7208 107.699V189.858C16.7208 225.157 20.346 228.783 55.7163 228.783H201.736C237.107 228.783 240.732 225.157 240.732 189.858V91.6986C240.732 56.3991 237.107 52.7739 201.736 52.7739H120.476L104.467 68.7747H55.7163Z" fill="url(#paint1_linear)"/>
        <path id="contorno superiore del secondario" opacity="0.4" d="M55.7169 20.7725C20.3466 20.7725 16.7208 22.7717 16.7208 58.0712V60.0713C16.7208 24.7718 20.3466 22.7725 55.7169 22.7725H98.7249L114.726 38.7733H201.736C237.106 38.7733 240.732 44.3978 240.732 79.6972V77.6971C240.732 42.3976 237.106 36.7732 201.736 36.7732H114.726L98.7249 20.7725H55.7169Z" fill="url(#paint2_radial)"/>
        <path id="contorno superiore del primario" opacity="0.4" d="M120.476 52.7739L104.467 68.7747H55.7169C20.3466 68.7747 16.7208 72.3991 16.7208 107.699V109.699C16.7208 74.3991 20.3466 70.7748 55.7169 70.7748H104.467L120.476 54.774H201.736C237.106 54.774 240.732 58.3984 240.732 93.6978V91.6977C240.732 56.3983 237.106 52.7739 201.736 52.7739H120.476Z" fill="url(#paint3_radial)"/>
        <path id="effetto piega" opacity="0.1" d="M240.732 162.779L176.729 226.782H201.736C237.106 226.782 240.732 223.158 240.732 187.859V162.779Z" fill="white"/>
        <path id="contorno inferiore del primario" opacity="0.2" d="M16.7208 187.858V189.859C16.7208 225.158 20.3466 228.782 55.7169 228.782H201.736C237.106 228.782 240.732 225.158 240.732 189.859V187.858C240.732 223.158 237.106 226.782 201.736 226.782H55.7169C20.3466 226.782 16.7208 223.158 16.7208 187.858V187.858Z" fill="#491706"/>
        <path id="wifi" d="M124.929 93.7017C105.272 93.7017 85.6181 101.12 70.6434 115.967L76.0711 121.362C103.086 94.5756 146.771 94.5756 173.788 121.362L179.215 115.967C164.239 101.12 144.587 93.7017 124.929 93.7017ZM124.929 115.496C110.774 115.496 96.6227 120.839 85.8452 131.524L91.2729 136.906C109.894 118.442 139.964 118.442 158.586 136.906L164.013 131.524C153.235 120.839 139.084 115.496 124.929 115.496ZM124.929 137.405C116.275 137.405 107.626 140.658 101.047 147.182L106.474 152.577C116.7 142.438 133.157 142.438 143.384 152.577L148.811 147.182C142.231 140.658 133.583 137.405 124.929 137.405ZM124.929 159.471C121.026 159.468 117.28 161.007 114.505 163.752C113.139 165.104 112.054 166.713 111.313 168.487C110.572 170.261 110.19 172.164 110.189 174.086C110.189 177.962 111.741 181.68 114.505 184.421C117.28 187.166 121.026 188.704 124.929 188.702C128.839 188.702 132.588 187.162 135.353 184.421C136.719 183.069 137.804 181.459 138.545 179.686C139.287 177.912 139.669 176.009 139.67 174.086C139.67 170.21 138.117 166.492 135.353 163.752C132.578 161.007 128.832 159.468 124.929 159.471Z" fill="#BEBEBE"/>
    </g>
    <defs>
        <radialGradient id="paint2_radial" cx="0" cy="0" r="1" gradientUnits="userSpaceOnUse" gradientTransform="translate(128.726 28.7728) scale(112.006 29.4624)">
            <stop stop-color="white"/>
            <stop offset="1" stop-color="white" stop-opacity="0.203922"/>
        </radialGradient>
        <radialGradient id="paint3_radial" cx="0" cy="0" r="1" gradientUnits="userSpaceOnUse" gradientTransform="translate(124.726 64.7746) scale(112.006 28.4623)">
            <stop stop-color="white"/>
            <stop offset="1" stop-color="white" stop-opacity="0.203922"/>
        </radialGradient>
        <linearGradient id="paint0_linear" x1="241" y1="50.0002" x2="17" y2="129" gradientUnits="userSpaceOnUse">
            <stop stop-color="#E75727"/>
            <stop offset="0.874098" stop-color="#6C234C"/>
        </linearGradient>
        <linearGradient id="paint1_linear" x1="17" y1="53.0002" x2="241" y2="229" gradientUnits="userSpaceOnUse">
            <stop stop-color="#666666"/>
            <stop offset="1" stop-color="#7A7A7A"/>
        </linearGradient>
    </defs>
</svg>
