<svg width="256" height="256" viewBox="0 0 256 256" fill="none" xmlns="http://www.w3.org/2000/svg">
    <g id="folder-yaru-music">
        <path id="secondario" d="M55.7169 20.7722C20.3466 20.7722 16.7208 22.7715 16.7208 58.0709V108.777H240.732V77.6969C240.732 42.3974 237.106 36.773 201.736 36.773H114.726L98.7249 20.7722H55.7169Z" fill="url(#paint0_linear)"/>
        <path id="ombra" opacity="0.5" d="M55.7163 68.7745C20.346 68.7745 16.7208 72.3996 16.7208 107.699V189.858C16.7208 225.157 20.346 228.782 55.7163 228.782H201.736C237.107 228.782 240.732 225.157 240.732 189.858V91.6983C240.732 56.3989 237.107 52.7737 201.736 52.7737H120.476L104.467 68.7745H55.7163Z" fill="#242424"/>
        <path id="primario" d="M55.7163 68.7745C20.346 68.7745 16.7208 72.3997 16.7208 107.699V189.858C16.7208 225.157 20.346 228.782 55.7163 228.782H201.736C237.107 228.782 240.732 225.157 240.732 189.858V91.6983C240.732 56.3989 237.107 52.7737 201.736 52.7737H120.476L104.467 68.7745H55.7163Z" fill="url(#paint1_linear)"/>
        <path id="contorno superiore del secondario" opacity="0.4" d="M55.7169 20.7722C20.3466 20.7722 16.7208 22.7715 16.7208 58.0709V60.071C16.7208 24.7715 20.3466 22.7723 55.7169 22.7723H98.7249L114.726 38.7731H201.736C237.106 38.7731 240.732 44.3975 240.732 79.697V77.6969C240.732 42.3974 237.106 36.773 201.736 36.773H114.726L98.7249 20.7722H55.7169Z" fill="url(#paint2_radial)"/>
        <path id="contorno superiore del primario" opacity="0.4" d="M120.476 52.7737L104.467 68.7745H55.7169C20.3466 68.7745 16.7208 72.3988 16.7208 107.698V109.698C16.7208 74.3989 20.3466 70.7746 55.7169 70.7746H104.467L120.476 54.7738H201.736C237.106 54.7738 240.732 58.3981 240.732 93.6976V91.6975C240.732 56.398 237.106 52.7737 201.736 52.7737H120.476Z" fill="url(#paint3_radial)"/>
        <path id="effetto piega" opacity="0.1" d="M240.732 162.779L176.729 226.782H201.736C237.106 226.782 240.732 223.158 240.732 187.859V162.779Z" fill="white"/>
        <path id="contorno inferiore del primario" opacity="0.2" d="M16.7208 187.859V189.859C16.7208 225.158 20.3466 228.783 55.7169 228.783H201.736C237.106 228.783 240.732 225.158 240.732 189.859V187.859C240.732 223.158 237.106 226.782 201.736 226.782H55.7169C20.3466 226.782 16.7208 223.158 16.7208 187.859V187.859Z" fill="#491706"/>
        <path id="musica" d="M161.457 92.3418C160.331 92.3418 158.834 92.5099 156.842 92.8092L120.869 98.1395C112.867 99.8435 112.867 100.371 112.867 107.132V107.373V170.526C112.277 170.113 111.695 169.698 111.086 169.29V169.292C108.543 167.588 105.834 166.375 102.195 166.375C97.6358 166.375 94.9162 168.121 93.2704 170.421C91.6247 172.72 91.0789 175.618 91.0789 177.858C91.0789 180.56 92.002 183.443 94.003 185.64C96.0039 187.837 99.0801 189.377 103.503 189.377C108.498 189.377 112.012 187.981 113.998 185.257C115.562 183.113 116.426 180.248 116.734 176.714V176.706V176.703C116.777 176.274 116.808 175.834 116.836 175.38C116.878 174.682 116.869 173.374 116.869 173.374V123.372C116.869 117.372 116.868 117.013 124.873 115.645L152.851 111.684C160.745 110.651 160.867 111.368 160.869 115.682V162.524C160.279 162.111 159.697 161.696 159.088 161.288V161.29C156.545 159.586 153.836 158.374 150.197 158.374C145.638 158.374 142.918 160.12 141.272 162.419C139.627 164.718 139.081 167.616 139.081 169.857C139.081 172.558 140.004 175.441 142.005 177.638C144.006 179.836 147.082 181.375 151.505 181.375C156.5 181.375 160.014 179.979 162 177.256C163.564 175.111 164.428 172.246 164.737 168.712V168.705V168.701C164.78 168.272 164.811 167.832 164.838 167.378C164.88 166.68 164.871 165.373 164.871 165.373V111.37V99.3851C164.871 94.1225 164.837 92.3418 161.459 92.3418H161.457Z" fill="#BEBEBE"/>
    </g>
    <defs>
        <radialGradient id="paint2_radial" cx="0" cy="0" r="1" gradientUnits="userSpaceOnUse" gradientTransform="translate(128.726 28.7726) scale(112.006 29.4624)">
            <stop stop-color="white"/>
            <stop offset="1" stop-color="white" stop-opacity="0.203922"/>
        </radialGradient>
        <radialGradient id="paint3_radial" cx="0" cy="0" r="1" gradientUnits="userSpaceOnUse" gradientTransform="translate(124.726 64.7744) scale(112.006 28.4623)">
            <stop stop-color="white"/>
            <stop offset="1" stop-color="white" stop-opacity="0.203922"/>
        </radialGradient>
        <linearGradient id="paint0_linear" x1="241" y1="50" x2="17" y2="129" gradientUnits="userSpaceOnUse">
            <stop stop-color="#E75727"/>
            <stop offset="0.874098" stop-color="#6C234C"/>
        </linearGradient>
        <linearGradient id="paint1_linear" x1="17" y1="52.9999" x2="241" y2="229" gradientUnits="userSpaceOnUse">
            <stop stop-color="#666666"/>
            <stop offset="1" stop-color="#7A7A7A"/>
        </linearGradient>
    </defs>
</svg>
