<svg width="256" height="256" viewBox="0 0 256 256" fill="none" xmlns="http://www.w3.org/2000/svg">
    <path opacity="0.4" d="M54.7141 22.7712C19.3456 22.7712 15.72 24.7703 15.72 60.0681V101.693V110.771V191.849C15.72 227.147 19.3456 230.771 54.7141 230.771H200.726C236.094 230.771 239.72 227.147 239.72 191.849V110.771V85.6931V79.6931C239.72 44.3953 236.094 38.7712 200.726 38.7712H113.72L97.72 22.7712H54.7141Z" fill="url(#paint0_linear)"/>
    <path opacity="0.1" d="M54.7141 24.7714C19.3456 24.7714 15.72 26.7706 15.72 62.0683V103.693V112.771V185.85C15.72 221.147 19.3456 224.771 54.7141 224.771H200.726C236.094 224.771 239.72 221.147 239.72 185.85V112.771V87.6933V81.6933C239.72 46.3956 236.094 40.7714 200.726 40.7714H113.72L97.72 24.7714H54.7141Z" fill="black"/>
    <path opacity="0.1" d="M54.7141 23.7714C19.3456 23.7714 15.72 25.7706 15.72 61.0683V102.693V163.35V192.85C15.72 228.147 19.3456 231.771 54.7141 231.771H200.726C236.094 231.771 239.72 228.147 239.72 192.85V163.35V86.6933V80.6933C239.72 45.3956 236.094 39.7714 200.726 39.7714H113.72L97.72 23.7714H54.7141Z" fill="black"/>
    <path d="M54.7141 22.7714C19.3456 22.7714 15.72 24.7706 15.72 60.0683V110.771H239.72V79.6933C239.72 44.3956 236.094 38.7714 200.726 38.7714H113.72L97.72 22.7714H54.7141Z" fill="url(#paint1_linear)"/>
    <path opacity="0.5" d="M54.7135 70.7714C19.345 70.7714 15.72 74.3964 15.72 109.694V191.849C15.72 227.146 19.345 230.771 54.7135 230.771H200.726C236.095 230.771 239.72 227.146 239.72 191.849V93.6942C239.72 58.3964 236.095 54.7714 200.726 54.7714H119.47L103.462 70.7714H54.7135Z" fill="#903906"/>
    <path d="M54.7135 70.7714C19.345 70.7714 15.72 74.3964 15.72 109.694V191.849C15.72 227.146 19.345 230.771 54.7135 230.771H200.727C236.095 230.771 239.72 227.146 239.72 191.849V93.6942C239.72 58.3964 236.095 54.7714 200.727 54.7714H119.47L103.462 70.7714H54.7135Z" fill="url(#paint2_linear)"/>
    <path opacity="0.4" d="M54.7141 22.7714C19.3456 22.7714 15.72 24.7706 15.72 60.0683V62.0683C15.72 26.7706 19.3456 24.7714 54.7141 24.7714H97.72L113.72 40.7714H200.726C236.094 40.7714 239.72 46.3956 239.72 81.6933V79.6933C239.72 44.3956 236.094 38.7714 200.726 38.7714H113.72L97.72 22.7714H54.7141Z" fill="url(#paint3_radial)"/>
    <path opacity="0.4" d="M119.47 54.7714L103.462 70.7714H54.7141C19.3456 70.7714 15.72 74.3956 15.72 109.693V111.693C15.72 76.3956 19.3456 72.7714 54.7141 72.7714H103.462L119.47 56.7714H200.726C236.094 56.7714 239.72 60.3956 239.72 95.6933V93.6933C239.72 58.3956 236.094 54.7714 200.726 54.7714H119.47Z" fill="url(#paint4_radial)"/>
    <path opacity="0.05" d="M239.72 164.771L175.72 228.771H200.726C236.094 228.771 239.72 225.147 239.72 189.85V164.771Z" fill="white"/>
    <path opacity="0.2" d="M15.72 189.85V191.85C15.72 227.147 19.3456 230.771 54.7141 230.771H200.726C236.094 230.771 239.72 227.147 239.72 191.85V189.85C239.72 225.147 236.094 228.771 200.726 228.771H54.7141C19.3456 228.771 15.72 225.147 15.72 189.85V189.85Z" fill="#491706"/>
    <path opacity="0.6" d="M77.72 98.0277V179.278H115.22C121.314 179.278 125.232 184.278 125.232 184.278L127.67 187.515L130.17 184.328C130.17 184.328 134.245 179.371 140.245 179.278H177.72V98.0277H165.22V104.278H171.47V173.028H140.17C133.764 173.122 130.02 176.015 127.745 178.178C126.106 176.528 124.153 175.223 122.002 174.338C119.852 173.454 117.546 173.008 115.22 173.028H83.97V104.278H115.22C121.364 104.278 125.22 109.271 125.22 109.271L127.72 112.615L130.22 109.271C130.22 109.271 134.076 104.278 140.22 104.278V148.028L158.97 141.778V98.0277H140.22C133.745 98.0277 130.001 100.934 127.72 103.153C125.439 100.934 121.695 98.0277 115.22 98.0277H77.72ZM96.47 116.778V123.028H115.22V116.778H96.47ZM96.47 129.278V135.528H115.22V129.278H96.47ZM96.47 141.778V148.028H115.22V141.778H96.47ZM96.47 154.278V160.528H115.22V154.278H96.47Z" fill="white"/>
    <defs>
        <linearGradient id="paint0_linear" x1="239.72" y1="222.771" x2="23.72" y2="22.7712" gradientUnits="userSpaceOnUse">
            <stop/>
            <stop offset="0.158985" stop-opacity="0.4329"/>
            <stop offset="0.194432" stop-opacity="0.099567"/>
            <stop offset="1" stop-opacity="0"/>
        </linearGradient>
        <linearGradient id="paint1_linear" x1="239.988" y1="51.9976" x2="15.9994" y2="130.994" gradientUnits="userSpaceOnUse">
            <stop stop-color="#E75727"/>
            <stop offset="0.874098" stop-color="#6C234C"/>
        </linearGradient>
        <linearGradient id="paint2_linear" x1="15.72" y1="54.7714" x2="239.72" y2="230.771" gradientUnits="userSpaceOnUse">
            <stop stop-color="#666666"/>
            <stop offset="1" stop-color="#7A7A7A"/>
        </linearGradient>
        <radialGradient id="paint3_radial" cx="0" cy="0" r="1" gradientUnits="userSpaceOnUse" gradientTransform="translate(127.72 30.7714) scale(112 29.4609)">
            <stop stop-color="white"/>
            <stop offset="1" stop-color="white" stop-opacity="0.203922"/>
        </radialGradient>
        <radialGradient id="paint4_radial" cx="0" cy="0" r="1" gradientUnits="userSpaceOnUse" gradientTransform="translate(123.72 66.7714) scale(112 28.4609)">
            <stop stop-color="white"/>
            <stop offset="1" stop-color="white" stop-opacity="0.203922"/>
        </radialGradient>
    </defs>
</svg>
