<svg xmlns="http://www.w3.org/2000/svg" xmlns:xlink="http://www.w3.org/1999/xlink" style="enable-background:new" width="256" height="256" version="1.0" viewBox="0 0 256 256">
 <title id="title4162">
  Adwaita Icon Template
 </title>
 <defs>
  <linearGradient id="linearGradient1038">
   <stop style="stop-color:#c0bfbc" id="stop1026" offset="0"/>
   <stop id="stop1028" offset=".045" style="stop-color:#ffffff"/>
   <stop id="stop1030" offset=".091" style="stop-color:#deddda"/>
   <stop id="stop1032" offset=".909" style="stop-color:#deddda"/>
   <stop style="stop-color:#ffffff" id="stop1034" offset=".955"/>
   <stop style="stop-color:#c0bfbc" id="stop1036" offset="1"/>
  </linearGradient>
  <clipPath id="clipPath2213" clipPathUnits="userSpaceOnUse">
   <rect style="fill:none;stroke:#000000" width="16" height="56" x="160" y="-188" rx="8" ry="8"/>
  </clipPath>
  <linearGradient id="linearGradient1005">
   <stop style="stop-color:#d0bb8e" id="stop1001" offset="0"/>
   <stop style="stop-color:#ffffff" id="stop1003" offset="1"/>
  </linearGradient>
  <linearGradient id="linearGradient1351-3">
   <stop id="stop1347" offset="0" style="stop-color:#d5d3cf"/>
   <stop id="stop1349-6" offset="1" style="stop-color:#ffffff"/>
  </linearGradient>
  <linearGradient id="linearGradient1159" x1="28" x2="116" y1="-276" y2="-276" gradientTransform="translate(-52.363187,-51.341404)" gradientUnits="userSpaceOnUse" xlink:href="#linearGradient1038"/>
  <linearGradient id="linearGradient1103" x1="128.817" x2="158.518" y1="-97.698" y2="-127.399" gradientTransform="matrix(0.07621224,-0.44419723,0.44419725,-0.07621223,77.725794,331.83807)" gradientUnits="userSpaceOnUse" xlink:href="#linearGradient1005"/>
  <clipPath id="clipPath1609-7" clipPathUnits="userSpaceOnUse">
   <path style="fill:#e74747" d="m 252,116 28,-28 v -8 h -36 v 36 z"/>
  </clipPath>
  <linearGradient id="linearGradient1130" x1="344" x2="340" y1="76" y2="72" gradientTransform="matrix(0.25,0,0,0.25,180,83)" gradientUnits="userSpaceOnUse" xlink:href="#linearGradient1351-3"/>
  <clipPath id="clipPath1062" clipPathUnits="userSpaceOnUse">
   <rect style="fill:#f6f5f4" width="88" height="108" x="-108" y="-116" rx="8" ry="8" transform="scale(-1)"/>
  </clipPath>
  <linearGradient id="linearGradient4336-3">
   <stop style="stop-color:#5884f4" id="stop4338-8" offset="0"/>
   <stop id="stop4344-3" offset=".278" style="stop-color:#5884f4"/>
   <stop style="stop-color:#2f5fdd" id="stop4346-3" offset=".278"/>
   <stop id="stop4350-1" offset=".707" style="stop-color:#2f5fdd"/>
   <stop id="stop4348-6" offset=".709" style="stop-color:#234db8"/>
   <stop style="stop-color:#234db8" id="stop4340-0" offset="1"/>
  </linearGradient>
  <linearGradient id="linearGradient4226" x1="494.345" x2="4.414" y1="386.295" y2="169.657" gradientTransform="matrix(0,-0.453125,-0.45311204,0,253.29053,239.17476)" gradientUnits="userSpaceOnUse" xlink:href="#linearGradient4245"/>
  <linearGradient id="linearGradient4245">
   <stop id="stop4241" offset="0" style="stop-color:#e8e8e8"/>
   <stop id="stop4243" offset="1" style="stop-color:#f5f5f5"/>
  </linearGradient>
  <linearGradient id="linearGradient4358" x1="88" x2="488" y1="88" y2="488" gradientUnits="userSpaceOnUse" xlink:href="#linearGradient4360"/>
  <linearGradient id="linearGradient4360">
   <stop id="stop4362" offset="0" style="stop-color:#000000;stop-opacity:0.58823532"/>
   <stop style="stop-color:#000000;stop-opacity:0" id="stop4364" offset=".88"/>
   <stop id="stop4366" offset="1" style="stop-color:#000000"/>
  </linearGradient>
  <filter style="color-interpolation-filters:sRGB" id="filter4380" width="1.106" height="1.088" x="-.05" y="-.04">
   <feGaussianBlur id="feGaussianBlur4382" stdDeviation="8.48"/>
  </filter>
  <filter style="color-interpolation-filters:sRGB" id="filter4346" width="1.026" height="1.022" x="-.01" y="-.01">
   <feGaussianBlur id="feGaussianBlur4348" stdDeviation="2.12"/>
  </filter>
  <clipPath id="clipPath4123" clipPathUnits="userSpaceOnUse">
   <path style="fill:none;stroke:#000000;stroke-width:2" d="m 229.00001,528 c 0,0 -175.528626,-366.71501 -224.2343464,-366.6728 -48.7057196,0.0422 -125.3637236,178.14259 -150.9245736,266.37026 -25.56083,88.22768 27.66165,37.95068 267.66713,-47.8494 -43.257256,34.33899 -332.8723,214.94732 -332.50787,120.18647 C -210.63523,405.2737 -72.888996,76 4.7656636,76 82.420324,76 213.23453,408.98418 229.00001,528 Z"/>
  </clipPath>
  <clipPath id="clipPath915" clipPathUnits="userSpaceOnUse">
   <path style="fill:none;stroke:#000000;stroke-width:2" d="m 229.00001,528 c 0,0 -175.528626,-366.71501 -224.2343464,-366.6728 -48.7057196,0.0422 -125.3637236,178.14259 -150.9245736,266.37026 -25.56083,88.22768 27.66165,37.95068 267.66713,-47.8494 -43.257256,34.33899 -332.8723,214.94732 -332.50787,120.18647 C -210.63523,405.2737 -72.888996,76 4.7656636,76 82.420324,76 213.23453,408.98418 229.00001,528 Z"/>
  </clipPath>
 </defs>
 <path style="opacity:0.1;filter:url(#filter4346)" d="M 189.84323,74 C 119.24979,74 111.65402,81.250835 112,151.98706 V 298 444.01294 C 111.65402,514.74917 119.24979,522 189.84323,522 H 386.15677 C 456.75021,522 462.16345,514.72616 464,444.01294 V 298 151.98706 C 464,81.249993 456.75021,74 386.15677,74 Z" transform="matrix(0.5,0,0,0.5,-16.666462,-20.825235)"/>
 <path d="M 189.84323,74 C 119.24979,74 111.65402,81.250835 112,151.98706 V 298 444.01294 C 111.65402,514.74917 119.24979,522 189.84323,522 H 386.15677 C 456.75021,522 464,514.75001 464,444.01294 V 298 151.98706 C 464,81.249993 456.75021,74 386.15677,74 Z" transform="matrix(0.5,0,0,0.5,-16.666462,-20.825235)" style="opacity:0.3;fill:url(#linearGradient4358);filter:url(#filter4380)"/>
 <path style="opacity:0.1" d="m 77.145138,13.174765 c -36.098811,0 -39.983003,3.690158 -39.806081,39.689842 v 74.310153 74.31016 c -0.176922,35.99969 3.70727,39.68984 39.806081,39.68984 H 177.53245 c 36.09881,0 39.80608,-3.68973 39.80608,-39.68984 V 127.17476 52.864607 c 0,-36.000113 -3.70727,-39.689842 -39.80608,-39.689842 z"/>
 <path style="fill:url(#linearGradient4226)" d="m 176.40651,15.174765 c 35.29673,0 39.09461,3.625418 38.92162,38.99353 v 73.006465 73.00647 c 0.17299,35.36812 -3.62489,38.99353 -38.92162,38.99353 H 78.249758 c -35.296716,0 -38.921616,-3.625 -38.921616,-38.99353 V 127.17476 54.168295 c 0,-35.368533 3.6249,-38.99353 38.921616,-38.99353 z"/>
 <path style="fill:#ffffff" d="m 215.32767,187.18062 -51.99414,51.99414 h 13.07227 c 35.29673,0 39.09486,-3.62602 38.92187,-38.99414 z"/>
 <path style="opacity:0.3;fill:#ffffff" d="m 78.255418,15.174765 c -35.296728,0 -39.09487,3.626029 -38.92188,38.994141 v 2 C 39.160548,20.800794 42.95869,17.174765 78.255418,17.174765 h 98.156232 c 35.29673,0 38.92188,3.625608 38.92188,38.994141 v -2 c 0,-35.368533 -3.62515,-38.994141 -38.92188,-38.994141 z"/>
 <path style="opacity:0.2" d="m 78.260818,239.17476 c -35.296731,0 -39.094875,-3.62603 -38.921885,-38.99414 v -2 c -0.17299,35.36811 3.625154,38.99414 38.921885,38.99414 h 98.156232 c 35.29673,0 38.92188,-3.62561 38.92188,-38.99414 v 2 c 0,35.36853 -3.62515,38.99414 -38.92188,38.99414 z"/>
 <path style="opacity:0.2;fill:#ffffff" d="M 127.33353,15.174765 V 239.17476 h 49.07227 c 35.29673,0 39.09486,-3.62602 38.92187,-38.99414 V 127.17476 54.168906 C 215.50066,18.800794 211.70253,15.174765 176.4058,15.174765 Z"/>
 <path style="opacity:0.2;fill:#ffffff" d="m 39.327679,127.17476 v 73.00586 c 0,35.36853 3.625159,38.99414 38.921879,38.99414 H 176.4058 c 35.29673,0 39.09486,-3.62602 38.92187,-38.99414 v -73.00586 z"/>
 <g style="enable-background:new" id="layer1" transform="matrix(1.9649123,0,0,1.9649123,-270.56795,-288.87066)">
  <g style="display:none" id="layer2">
   <g style="enable-background:new">
    <rect style="fill:#f0f0f0" width="128" height="128" x="0" y="172"/>
    <circle style="opacity:0.1;fill:none;stroke:#000000;stroke-width:0.99000001;stroke-dasharray:0.99000001, 0.99000001" cx="64" cy="236" r="59.504"/>
    <rect style="opacity:0.1;fill:none;stroke:#000000;stroke-width:0.99000001;stroke-dasharray:0.99000001, 0.99000001" width="87.01" height="111.01" x="20.5" y="180.5" rx="8.701" ry="7.929"/>
    <rect style="opacity:0.1;fill:none;stroke:#000000;stroke-width:0.99000001;stroke-dasharray:0.99000001, 0.99000001" width="103.01" height="103.01" x="12.49" y="184.5" rx="7.924" ry="7.924"/>
    <rect style="opacity:0.1;fill:none;stroke:#000000;stroke-width:0.99000001;stroke-dasharray:0.99000001, 0.99000001" width="111.01" height="87.01" x="8.49" y="200.5" rx="7.929" ry="8.701"/>
    <path style="fill:none;stroke:#62a0ea;stroke-width:2" d="M 2.6203015e-5,288.99999 H 128.00003"/>
   </g>
  </g>
  <g id="layer9" transform="translate(5.5205811,-10.489104)">
   <g transform="translate(0.21150675,3.2313457)">
    <g clip-path="url(#clipPath4123)" transform="matrix(0.17575759,0,0,0.17699115,195.18815,164.54383)" style="fill:#5884f4;enable-background:new">
     <path d="m 229.00001,528 c 0,0 -175.528646,-366.71501 -224.234366,-366.6728 -48.70572,0.0422 -125.363704,178.14259 -150.924554,266.37026 -25.56083,88.22768 27.66165,37.95068 267.66713,-47.8494 -43.257276,34.33899 -332.8723,214.94732 -332.50787,120.18647 C -210.63523,405.2737 -72.889016,76 4.765644,76 82.420304,76 213.23453,408.98418 229.00001,528 Z" style="fill:#5884f4"/>
    </g>
    <path d="m 220.15283,252.38451 6.56958,6.46604 c 2.75329,-0.3718 6.17968,-0.0986 8.71423,1.14461 -1.56709,-2.37577 -2.1861,-3.80131 -2.50236,-7.57798 l -7.25432,-6.34991" style="fill:#eab305"/>
    <path d="m 168.98255,200.74854 c 16.76598,11.03154 36.4724,24.96356 58.20561,43.83098 -2.29051,3.1185 -4.66231,6.2099 -8.34062,8.8658 -54.61559,-50.56519 -52.81901,-54.64044 -49.86499,-52.69678 z" style="fill:#5e5c64"/>
   </g>
  </g>
 </g>
</svg>
