<svg xmlns="http://www.w3.org/2000/svg" xmlns:xlink="http://www.w3.org/1999/xlink" width="256" height="256" version="1.0" viewBox="0 0 256 256" style="enable-background:new">
 <title id="title4162">
  Adwaita Icon Template
 </title>
 <defs>
  <linearGradient id="linearGradient1115">
   <stop style="stop-color:#d5d3cf" id="stop1103" offset="0"/>
   <stop id="stop1105" offset=".038" style="stop-color:#e3e2df"/>
   <stop id="stop1107" offset=".077" style="stop-color:#c0bfbc"/>
   <stop id="stop1109" offset=".923" style="stop-color:#c0bfbc"/>
   <stop id="stop1111" offset=".962" style="stop-color:#e3e2df"/>
   <stop style="stop-color:#d5d3cf" id="stop1113" offset="1"/>
  </linearGradient>
  <linearGradient id="linearGradient6058">
   <stop id="stop6054" offset="0" style="stop-color:#ffffff"/>
   <stop id="stop6056" offset="1" style="stop-color:#f6f5f4"/>
  </linearGradient>
  <linearGradient id="paint3_linear-2-6-5" x2="1" gradientTransform="matrix(0,6,-12,0,-64,209.99687)" gradientUnits="userSpaceOnUse">
   <stop id="stop91-0-7-4" stop-color="#C01C27"/>
   <stop id="stop93-2-5-7" offset="1" stop-color="#E01B24"/>
  </linearGradient>
  <linearGradient id="linearGradient1097" x1="43.844" x2="-60" y1="234" y2="234" gradientTransform="matrix(1.0015061,0,0,0.99993452,72.09037,56.015192)" gradientUnits="userSpaceOnUse" xlink:href="#linearGradient1115"/>
  <radialGradient id="radialGradient1099" cx="-24.239" cy="225.596" r="24" fx="-24.239" fy="225.596" gradientTransform="matrix(1.757743,-9.5621778e-8,3.7652438e-8,1.9495846,106.60563,-336.54495)" gradientUnits="userSpaceOnUse" xlink:href="#linearGradient6058"/>
  <linearGradient id="linearGradient1383" x2="1" gradientTransform="matrix(0,6,-12,0,-264,209.99687)" gradientUnits="userSpaceOnUse" xlink:href="#paint3_linear-2-6-5"/>
  <linearGradient id="linearGradient4358" x1="88" x2="488" y1="88" y2="488" gradientUnits="userSpaceOnUse" xlink:href="#linearGradient4360"/>
  <linearGradient id="linearGradient4360">
   <stop style="stop-color:#000000;stop-opacity:0.58823532" id="stop4362" offset="0"/>
   <stop style="stop-color:#000000;stop-opacity:0.20555556" id="stop4366" offset="1"/>
  </linearGradient>
  <filter id="filter4380" width="1.106" height="1.088" x="-.05" y="-.04" style="color-interpolation-filters:sRGB">
   <feGaussianBlur id="feGaussianBlur4382" stdDeviation="8.48"/>
  </filter>
  <filter id="filter4346" width="1.026" height="1.022" x="-.01" y="-.01" style="color-interpolation-filters:sRGB">
   <feGaussianBlur id="feGaussianBlur4348" stdDeviation="2.12"/>
  </filter>
 </defs>
 <path d="M 141.84323,74 C 71.24979,74 63.65402,81.250835 64,151.98706 V 298 444.01294 C 63.65402,514.74917 71.24979,522 141.84323,522 H 434.15677 C 504.75021,522 513.9371,514.72348 512,444.01294 V 298 151.98706 C 512,81.249993 504.75021,74 434.15677,74 Z" transform="matrix(0.5,0,0,0.5,-14.116488,-20.825537)" style="opacity:0.1;filter:url(#filter4346)"/>
 <path style="opacity:0.3;fill:url(#linearGradient4358);filter:url(#filter4380)" d="M 141.84323,74 C 71.24979,74 63.65402,81.250835 64,151.98706 V 298 444.01294 C 63.65402,514.74917 71.24979,522 141.84323,522 H 434.15677 C 504.75021,522 513.9371,514.72348 512,444.01294 V 298 151.98706 C 512,81.249993 504.75021,74 434.15677,74 Z" transform="matrix(0.5,0,0,0.5,-14.116488,-20.825235)"/>
 <path d="m 55.695112,13.174464 c -36.098811,0 -39.983003,3.690159 -39.806081,39.689839 v 74.310167 74.31016 c -0.176922,35.99969 3.70727,39.68984 39.806081,39.68984 H 204.08243 c 36.09881,0 40.77464,-3.70276 39.80608,-39.68984 V 127.17447 52.864303 c 0,-36.00011 -3.70727,-39.689839 -39.80608,-39.689839 z" style="opacity:0.2"/>
 <path d="m 202.95649,15.174464 c 35.29673,0 39.09461,3.625419 38.92162,38.993529 v 73.006477 73.00647 c 0.17299,35.36812 -3.62489,38.99353 -38.92162,38.99353 H 56.799732 c -35.296716,0 -38.921616,-3.625 -38.921616,-38.99353 V 127.17447 54.167993 c 0,-35.36853 3.6249,-38.993529 38.921616,-38.993529 z" style="fill:#f7f7f7"/>
 <text style="font-size:137.755px;line-height:1000%;letter-spacing:0px;word-spacing:0px;fill:white" id="text948" x="179.81" y="202.78" xml:space="preserve">
  <tspan id="tspan946" x="179.81" y="202.78" style="font-weight:300;font-family:Ubuntu;text-align:center;text-anchor:middle;fill:white">à</tspan>
 </text>
 <path style="fill:#666" d="m 179.00091,194.30918 q 5.23469,0 9.09183,-0.27551 3.99489,-0.41327 6.74999,-0.96429 v -25.07141 q -1.5153,-0.68878 -4.82142,-1.37755 -3.30612,-0.82653 -9.09183,-0.82653 -3.30612,0 -6.88775,0.55102 -3.58163,0.41326 -6.61224,2.06632 -3.03061,1.51531 -4.95918,4.27041 -1.92857,2.7551 -1.92857,7.30102 0,3.99489 1.23979,6.74999 1.37755,2.7551 3.71939,4.40816 2.47959,1.65306 5.78571,2.47959 3.44387,0.68878 7.71428,0.68878 z m -0.82653,-66.39792 q 7.0255,0 11.84693,2.06633 4.95918,1.92857 7.98979,5.5102 3.03061,3.44387 4.40816,8.2653 1.37755,4.82142 1.37755,10.46938 v 44.90813 q -1.37755,0.41327 -3.9949,0.96429 -2.61734,0.41326 -6.06122,0.96428 -3.44387,0.55102 -7.71428,0.82653 -4.13265,0.41327 -8.54081,0.41327 -5.64795,0 -10.46938,-1.2398 -4.68367,-1.23979 -8.2653,-3.85714 -3.44387,-2.7551 -5.5102,-6.88775 -1.92857,-4.2704 -1.92857,-10.33162 0,-5.78572 2.20408,-9.91837 2.20408,-4.13265 6.19898,-6.74999 3.99489,-2.7551 9.50509,-3.9949 5.5102,-1.23979 11.98469,-1.23979 1.92857,0 3.99489,0.27551 2.20408,0.13775 4.13265,0.55102 2.06633,0.27551 3.44388,0.68877 1.5153,0.27551 2.06632,0.55102 v -4.40816 q 0,-3.71938 -0.55102,-7.16326 -0.55102,-3.58163 -2.47959,-6.33673 -1.79081,-2.89285 -5.23469,-4.54591 -3.30612,-1.79082 -8.81632,-1.79082 -7.85203,0 -11.70917,1.10204 -3.85714,1.10204 -5.64796,1.79082 l -1.23979,-7.85204 q 2.34183,-1.10204 7.16326,-2.06632 4.95918,-0.96429 11.84693,-0.96429 z m -10.33163,-33.612218 21.76529,20.938758 -4.54591,5.23469 -23.55611,-19.14794 z"/>
 <path d="m 56.805392,15.174464 c -35.296728,0 -39.09487,3.626029 -38.92188,38.994139 v 2 c -0.17299,-35.36811 3.625152,-38.99414 38.92188,-38.99414 H 202.96163 c 35.29673,0 38.92188,3.62561 38.92188,38.99414 v -2 c 0,-35.36853 -3.62515,-38.994139 -38.92188,-38.994139 z" style="opacity:0.3;fill:#ffffff"/>
 <path d="m 56.810792,239.17447 c -35.296731,0 -39.094875,-3.62603 -38.921885,-38.99414 v -2 c -0.17299,35.36811 3.625154,38.99414 38.921885,38.99414 H 202.96703 c 35.29673,0 38.92188,-3.62561 38.92188,-38.99414 v 2 c 0,35.36853 -3.62515,38.99414 -38.92188,38.99414 z" style="opacity:0.2"/>
</svg>
