<svg height="256" width="256" xmlns="http://www.w3.org/2000/svg" xmlns:xlink="http://www.w3.org/1999/xlink">
  <linearGradient id="linearGradient4929" gradientUnits="userSpaceOnUse" x1="15.568" x2="43.591" y1="5.25" y2="47.773">
    <stop offset="0" stop-color="#f46363"/>
    <stop offset="1" stop-color="#9f0000"/>
  </linearGradient>
  <filter id="filter864" color-interpolation-filters="sRGB" height="1.025" width="1.023" x="-.01" y="-.01">
    <feGaussianBlur stdDeviation="1.082"/>
  </filter>
  <filter id="filter878" color-interpolation-filters="sRGB" height="1.101" width="1.091" x="-.05" y="-.05">
    <feGaussianBlur stdDeviation="4.33"/>
  </filter>
  <g fill="url(#linearGradient4929)" fill-rule="evenodd" transform="translate(0 192)">
    <g fill="#030303">
      <path d="m77.854278-172.96487a2.8167106 2.8167106 0 0 0 -2.479045 4.1513l50.871737 94.588735a2.8167106 2.8167106 0 0 0 4.97643-.03667l49.2105-94.588745a2.8167106 2.8167106 0 0 0 -2.49738-4.11462zm-10.557942 9.68881a2.8167106 2.8167106 0 0 0 -2.314019 1.33853l-50.875415 82.435558a2.8167106 2.8167106 0 0 0 2.409366 4.294322l95.762252-.330053a2.8167106 2.8167106 0 0 0 2.4607-4.165967l-44.886828-82.10551a2.8167106 2.8167106 0 0 0 -2.556056-1.46688zm120.666384.16502a2.8167106 2.8167106 0 0 0 -2.51573 1.44855l-45.5506 82.105511a2.8167106 2.8167106 0 0 0 2.45338 4.184302l96.426.330051a2.8167106 2.8167106 0 0 0 2.40938-4.294321l-50.87542-82.435563a2.8167106 2.8167106 0 0 0 -2.34701-1.33853zm-59.17802 94.915124a2.8167106 2.8167106 0 0 0 -2.45338 1.481558l-50.875408 94.588732a2.8167106 2.8167106 0 0 0 2.479045 4.151304h100.085913a2.8167106 2.8167106 0 0 0 2.49737-4.114615l-49.21049-94.588749a2.8167106 2.8167106 0 0 0 -2.52305-1.51823zm110.07543 2.29935-96.42969.330049a2.8167106 2.8167106 0 0 0 -2.45337 4.184305l45.55427 82.105505a2.8167106 2.8167106 0 0 0 4.86274.110009l50.87542-82.435546a2.8167106 2.8167106 0 0 0 -2.40937-4.294322zm-222.259515.165025a2.8167106 2.8167106 0 0 0 -2.409368 4.29432l50.87175 82.435566a2.8167106 2.8167106 0 0 0 4.870075-.128355l44.890498-82.10918a2.8167106 2.8167106 0 0 0 -2.46071-4.165968z" filter="url(#filter878)" opacity=".1"/>
      <path d="m77.854278-172.96487a2.8167106 2.8167106 0 0 0 -2.479045 4.1513l50.871737 94.588735a2.8167106 2.8167106 0 0 0 4.97643-.03667l49.2105-94.588745a2.8167106 2.8167106 0 0 0 -2.49738-4.11462zm-10.557942 9.68881a2.8167106 2.8167106 0 0 0 -2.314019 1.33853l-50.875415 82.435558a2.8167106 2.8167106 0 0 0 2.409366 4.294322l95.762252-.330053a2.8167106 2.8167106 0 0 0 2.4607-4.165967l-44.886828-82.10551a2.8167106 2.8167106 0 0 0 -2.556056-1.46688zm120.666384.16502a2.8167106 2.8167106 0 0 0 -2.51573 1.44855l-45.5506 82.105511a2.8167106 2.8167106 0 0 0 2.45338 4.184302l96.426.330051a2.8167106 2.8167106 0 0 0 2.40938-4.294321l-50.87542-82.435563a2.8167106 2.8167106 0 0 0 -2.34701-1.33853zm-59.17802 94.915124a2.8167106 2.8167106 0 0 0 -2.45338 1.481558l-50.875408 94.588732a2.8167106 2.8167106 0 0 0 2.479045 4.151304h100.085913a2.8167106 2.8167106 0 0 0 2.49737-4.114615l-49.21049-94.588749a2.8167106 2.8167106 0 0 0 -2.52305-1.51823zm110.07543 2.29935-96.42969.330049a2.8167106 2.8167106 0 0 0 -2.45337 4.184305l45.55427 82.105505a2.8167106 2.8167106 0 0 0 4.86274.110009l50.87542-82.435546a2.8167106 2.8167106 0 0 0 -2.40937-4.294322zm-222.259515.165025a2.8167106 2.8167106 0 0 0 -2.409368 4.29432l50.87175 82.435566a2.8167106 2.8167106 0 0 0 4.870075-.128355l44.890498-82.10918a2.8167106 2.8167106 0 0 0 -2.46071-4.165968z" filter="url(#filter864)" opacity=".1"/>
      <path d="m77.854278-172.96487a2.8167106 2.8167106 0 0 0 -2.479045 4.1513l50.871737 94.588735a2.8167106 2.8167106 0 0 0 4.97643-.03667l49.2105-94.588745a2.8167106 2.8167106 0 0 0 -2.49738-4.11462zm-10.557942 9.68881a2.8167106 2.8167106 0 0 0 -2.314019 1.33853l-50.875415 82.435558a2.8167106 2.8167106 0 0 0 2.409366 4.294322l95.762252-.330053a2.8167106 2.8167106 0 0 0 2.4607-4.165967l-44.886828-82.10551a2.8167106 2.8167106 0 0 0 -2.556056-1.46688zm120.666384.16502a2.8167106 2.8167106 0 0 0 -2.51573 1.44855l-45.5506 82.105511a2.8167106 2.8167106 0 0 0 2.45338 4.184302l96.426.330051a2.8167106 2.8167106 0 0 0 2.40938-4.294321l-50.87542-82.435563a2.8167106 2.8167106 0 0 0 -2.34701-1.33853zm-59.17802 94.915124a2.8167106 2.8167106 0 0 0 -2.45338 1.481558l-50.875408 94.588732a2.8167106 2.8167106 0 0 0 2.479045 4.151304h100.085913a2.8167106 2.8167106 0 0 0 2.49737-4.114615l-49.21049-94.588749a2.8167106 2.8167106 0 0 0 -2.52305-1.51823zm110.07543 2.29935-96.42969.330049a2.8167106 2.8167106 0 0 0 -2.45337 4.184305l45.55427 82.105505a2.8167106 2.8167106 0 0 0 4.86274.110009l50.87542-82.435546a2.8167106 2.8167106 0 0 0 -2.40937-4.294322zm-222.259515.165025a2.8167106 2.8167106 0 0 0 -2.409368 4.29432l50.87175 82.435566a2.8167106 2.8167106 0 0 0 4.870075-.128355l44.890498-82.10918a2.8167106 2.8167106 0 0 0 -2.46071-4.165968z" opacity=".1"/>
    </g>
    <path d="m78.728558-171.2017a2.7672947 2.7672947 0 0 0 -2.435553 4.07847l49.979255 92.929293a2.7672947 2.7672947 0 0 0 4.88912-.03603l48.34716-92.929293a2.7672947 2.7672947 0 0 0 -2.45357-4.04244zm-10.372715 9.51883a2.7672947 2.7672947 0 0 0 -2.273422 1.31506l-49.982865 80.989317a2.7672947 2.7672947 0 0 0 2.367097 4.218983l94.082217-.324261a2.7672947 2.7672947 0 0 0 2.41753-4.092881l-44.099344-80.665058a2.7672947 2.7672947 0 0 0 -2.511213-1.44116zm118.549427.16213a2.7672947 2.7672947 0 0 0 -2.47159 1.42314l-44.75147 80.665065a2.7672947 2.7672947 0 0 0 2.41034 4.110895l94.73432.324259a2.7672947 2.7672947 0 0 0 2.36711-4.218981l-49.98287-80.989318a2.7672947 2.7672947 0 0 0 -2.30584-1.31506zm-58.13981 93.249952a2.7672947 2.7672947 0 0 0 -2.41033 1.455566l-49.982861 92.929281a2.7672947 2.7672947 0 0 0 2.435553 4.078474h98.330018a2.7672947 2.7672947 0 0 0 2.45356-4.042429l-48.34715-92.929298a2.7672947 2.7672947 0 0 0 -2.47879-1.491594zm108.14429 2.25901-94.73794.324259a2.7672947 2.7672947 0 0 0 -2.41033 4.110896l44.75507 80.665058a2.7672947 2.7672947 0 0 0 4.77743.108098l49.98287-80.989328a2.7672947 2.7672947 0 0 0 -2.3671-4.218983zm-218.36023.162131a2.7672947 2.7672947 0 0 0 -2.367098 4.218981l49.979263 80.989328a2.7672947 2.7672947 0 0 0 4.784635-.126176l44.10295-80.668596a2.7672947 2.7672947 0 0 0 -2.41754-4.092881z" fill="#c01c28"/>
    <path d="m78.692122-171.23604a2.7672947 2.7672947 0 0 0 -2.57617 3.76367 2.7672947 2.7672947 0 0 1 2.57617-1.76367h98.326178a2.7672947 2.7672947 0 0 1 2.57617 1.77148 2.7672947 2.7672947 0 0 0 -2.57617-3.77148zm-10.37304 9.51953a2.7672947 2.7672947 0 0 0 -2.27344 1.31445l-49.98242 80.990236a2.7672947 2.7672947 0 0 0 -.22266 2.453125 2.7672947 2.7672947 0 0 1 .22266-.453125l49.98242-80.990236a2.7672947 2.7672947 0 0 1 2.27344-1.31445 2.7672947 2.7672947 0 0 1 2.51171 1.44141l44.099618 80.664058a2.7672947 2.7672947 0 0 1 .14844.330078 2.7672947 2.7672947 0 0 0 -.14844-2.330078l-44.099618-80.664058a2.7672947 2.7672947 0 0 0 -2.51171-1.44141zm118.550778.16211a2.7672947 2.7672947 0 0 0 -2.47265 1.42383l-44.75 80.664059a2.7672947 2.7672947 0 0 0 -.1582 2.345703 2.7672947 2.7672947 0 0 1 .1582-.345703l44.75-80.664059a2.7672947 2.7672947 0 0 1 2.47265-1.42383 2.7672947 2.7672947 0 0 1 2.30469 1.31445l49.98438 80.990236a2.7672947 2.7672947 0 0 1 .2207.457031 2.7672947 2.7672947 0 0 0 -.2207-2.457031l-49.98438-80.990236a2.7672947 2.7672947 0 0 0 -2.30469-1.31445zm-58.14062 93.249998a2.7672947 2.7672947 0 0 0 -2.41015 1.455078l-49.982438 92.929686a2.7672947 2.7672947 0 0 0 -.14062 2.31055 2.7672947 2.7672947 0 0 1 .14062-.31055l49.982438-92.929686a2.7672947 2.7672947 0 0 1 2.41015-1.455078 2.7672947 2.7672947 0 0 1 2.47852 1.492188l48.34765 92.929686a2.7672947 2.7672947 0 0 1 .12305.2793 2.7672947 2.7672947 0 0 0 -.12305-2.2793l-48.34765-92.929686a2.7672947 2.7672947 0 0 0 -2.47852-1.492188zm108.14453 2.259766-94.73828.324219a2.7672947 2.7672947 0 0 0 -2.56836 3.763669 2.7672947 2.7672947 0 0 1 2.56836-1.76367l94.73828-.32422a2.7672947 2.7672947 0 0 1 2.58984 1.76758 2.7672947 2.7672947 0 0 0 -2.58984-3.767578zm-218.359378.162109a2.7672947 2.7672947 0 0 0 -2.58985 3.761719 2.7672947 2.7672947 0 0 1 2.58985-1.76172l94.082038.32031a2.7672947 2.7672947 0 0 1 2.5664 1.76563 2.7672947 2.7672947 0 0 0 -2.5664-3.765626z" fill="#fff" opacity=".3"/>
    <path d="m76.10245-169.5317a2.7672947 2.7672947 0 0 0 .14063 2.31446l49.98047 92.929687a2.7672947 2.7672947 0 0 0 4.88867-.03711l48.34766-92.927737a2.7672947 2.7672947 0 0 0 .12109-2.27344 2.7672947 2.7672947 0 0 1 -.12109.27344l-48.34766 92.927734a2.7672947 2.7672947 0 0 1 -4.88867.03711l-49.98047-92.929684a2.7672947 2.7672947 0 0 1 -.14063-.31446zm38.96289 90.191409a2.7672947 2.7672947 0 0 1 -2.5664 1.763672l-94.08203.324218a2.7672947 2.7672947 0 0 1 -2.58789-1.765624 2.7672947 2.7672947 0 0 0 2.58789 3.765624l94.08203-.324218a2.7672947 2.7672947 0 0 0 2.5664-3.763672zm24.41016.160156a2.7672947 2.7672947 0 0 0 2.56836 3.765625l94.73438.324219a2.7672947 2.7672947 0 0 0 2.58789-3.763672 2.7672947 2.7672947 0 0 1 -2.58789 1.763672l-94.73438-.324219a2.7672947 2.7672947 0 0 1 -2.56836-1.765625zm99.97461 14.841802a2.7672947 2.7672947 0 0 1 -.22266.45117l-49.98242 80.99023a2.7672947 2.7672947 0 0 1 -4.77734-.10937l-44.75586-80.66407a2.7672947 2.7672947 0 0 1 -.1582-.3457 2.7672947 2.7672947 0 0 0 .1582 2.3457l44.75586 80.66407a2.7672947 2.7672947 0 0 0 4.77734.10937l49.98242-80.99023a2.7672947 2.7672947 0 0 0 .22266-2.45117zm-223.54102.1582a2.7672947 2.7672947 0 0 0 .22461 2.45508l49.97852 80.99023a2.7672947 2.7672947 0 0 0 4.78516-.12695l44.10156-80.66797a2.7672947 2.7672947 0 0 0 .14844-2.32617 2.7672947 2.7672947 0 0 1 -.14844.32617l-44.10156 80.66797a2.7672947 2.7672947 0 0 1 -4.78516.12695l-49.97852-80.99023a2.7672947 2.7672947 0 0 1 -.22461-.45508zm60.27344 90.50976a2.7672947 2.7672947 0 0 0 2.57617 3.76954h98.33008a2.7672947 2.7672947 0 0 0 2.57617-3.76172 2.7672947 2.7672947 0 0 1 -2.57617 1.76172h-98.33008a2.7672947 2.7672947 0 0 1 -2.57617-1.76954z" fill="#030303" opacity=".2"/>
  </g>
  <circle cx="128.8263790216" cy="119.191499009" fill="#1c71d8" r="46.116965" stroke-width="1.8446786"/>
  <circle cx="128.8263790216" cy="119.191499009" fill="#3d3846" r="25.1558820682" stroke-width="1.8446786"/>
  <g transform="matrix(1.8446786 0 0 1.8446786 7.527693 116.304577)">
    <path d="m65.755647-27.980371c-28.124828 0-49.999999 22.9799992-49.999999 30.0841406 0 9.3103494 21.875171 29.0068954 49.999999 29.0068954 28.12483 0 50.000003-22.9799989 50.000003-29.0068954 0-7.1041414-21.875173-30.0841406-50.000003-30.0841406z" fill="#fff"/>
    <circle cx="65.756" cy="1.565" fill="#1c71d8" r="25"/>
    <circle cx="65.756" cy="1.565" fill="#3d3846" r="13.637"/>
    <g transform="matrix(.54209985 0 0 .54209985 -4.080761 -63.048694)">
      <path d="m128.82617 73.074219a46.116965 46.116965 0 0 0 -46.117186 46.117191 46.116965 46.116965 0 0 0 .041016 1.17187 46.116965 46.116965 0 0 1 46.07617-45.289061 46.116965 46.116965 0 0 1 46.07617 44.945311 46.116965 46.116965 0 0 0 .04102-.82812 46.116965 46.116965 0 0 0 -46.11719-46.117191z" fill="#fff" opacity=".3"/>
      <path d="m174.90234 118.01953a46.116965 46.116965 0 0 1 -46.07617 45.28906 46.116965 46.116965 0 0 1 -46.07617-44.94531 46.116965 46.116965 0 0 0 -.041016.82813 46.116965 46.116965 0 0 0 46.117186 46.11718 46.116965 46.116965 0 0 0 46.11719-46.11718 46.116965 46.116965 0 0 0 -.04102-1.17188z" opacity=".2"/>
      <path d="m128.82617 94.037109a25.155055 25.155055 0 0 0 -25.15625 25.154301 25.155055 25.155055 0 0 0 .04297 1.16601 25.155055 25.155055 0 0 1 25.11328-24.320311 25.155055 25.155055 0 0 1 25.11328 23.982421 25.155055 25.155055 0 0 0 .04102-.82812 25.155055 25.155055 0 0 0 -25.1543-25.154301z" fill="#fff" opacity=".3"/>
      <path d="m153.93945 118.01953a25.155055 25.155055 0 0 1 -25.11328 24.32813 25.155055 25.155055 0 0 1 -25.11328-23.99024 25.155055 25.155055 0 0 0 -.04297.83399 25.155055 25.155055 0 0 0 25.15625 25.15625 25.155055 25.155055 0 0 0 25.1543-25.15625 25.155055 25.155055 0 0 0 -.04102-1.17188z" opacity=".2"/>
      <path d="m220.97266 119.11133c-2.00957 12.35501-41.6036 52.58203-92.14649 52.58203-50.780458 0-90.510468-34.8052-92.173826-52.38672-.036175.30428-.060547.6004-.060547.87891 0 17.1746 40.353107 53.50781 92.234373 53.50781 51.88127 0 92.23438-42.39013 92.23438-53.50781 0-.33752-.03485-.69907-.08789-1.07422z" opacity=".2"/>
    </g>
  </g>
</svg>
