<svg enable-background="new" height="256" viewBox="0 0 256 256" width="256" xmlns="http://www.w3.org/2000/svg" xmlns:xlink="http://www.w3.org/1999/xlink">
  <filter id="filter11191" color-interpolation-filters="sRGB" height="1.024" width="1.024" x="-.01" y="-.01">
    <feGaussianBlur stdDeviation="1.12"/>
  </filter>
  <filter id="filter11210" color-interpolation-filters="sRGB" height="1.096" width="1.096" x="-.05" y="-.05">
    <feGaussianBlur stdDeviation="4.48"/>
  </filter>
  <circle cx="128.752" cy="127.248" filter="url(#filter11210)" opacity=".1" r="112"/>
  <circle cx="128.752" cy="125.248" filter="url(#filter11191)" opacity=".1" r="112"/>
  <circle cx="128.752" cy="123.248" opacity=".1" r="114"/>
  <rect fill="#d5d3cf" height="212.8" rx="104.533" width="209.067" x="24.18" y="19.55"/>
  <path d="m240.752 123.248a112 112 0 0 1 -111.99997 111.99999 112 112 0 0 1 -112.000031-111.99999 112 112 0 0 1 112.000031-112.000004 112 112 0 0 1 111.99997 112.000004z" fill="#f6f5f4"/>
  <path d="m128.752 11.248007a112 112 0 0 0 -112 111.999993 112 112 0 0 0 .04102 1.16992 112 112 0 0 1 111.95898-111.169913 112 112 0 0 1 111.95898 110.830073 112 112 0 0 0 .041-.83008 112 112 0 0 0 -112-111.999993z" fill="#fff" opacity=".3"/>
  <path d="m179.0957 48.34375c-4.65589 0-13.69407 10.728047-17.08203 12.421875-3.38796 1.694159-30.21106 20.890996-32.75195 24.279297-2.54089 3.387634-5.92775 4.799848-9.59766 4.517578-3.66989-.282087-15.27214-.397464-19.22461 1.861328-3.953096 2.258941-21.996397 20.725442-26.513669 22.984372-4.516976 2.25805-10.408957 3.4147-13.232422 3.69727-2.822833.28166-12.175899 10.70104-14.716797 12.67773-2.540879 1.97668-22.62021 10.66617-25.443359 12.35938-2.823463 1.69412 20.598361 25.41628 23.986328 25.98047 2.273747.37949-3.748711 7.74077-9.849609 12.64257a112 112 0 0 0 .132812.23243 112 112 0 0 0 6.511719 9.10742 112 112 0 0 0 7.388672 8.41015 112 112 0 0 0 8.191406 7.63086 112 112 0 0 0 8.91211 6.7754 112 112 0 0 0 9.544921 5.85156 112 112 0 0 0 10.080079 4.86914 112 112 0 0 0 10.517578 3.83984 112 112 0 0 0 10.847661 2.76953 112 112 0 0 0 11.06835 1.67188 112 112 0 0 0 11.18165.56055 112 112 0 0 0 7.92187-.28126 112 112 0 0 0 11.11523-1.34765 112 112 0 0 0 2.57227-.57813c1.17033-1.19111 2.37284-2.71429 3.42969-2.97656 1.10483-1.68395-3.23621-6.26995-3.03906-9.41797.28162-4.51757.51916-10.45762 1.08398-15.53906.56513-5.08178 2.54176-47.71492 9.88281-59.00781 7.34012-11.29228 28.31747-24.84817 35.65821-26.25977 7.34105-1.41155 5.93164-4.23873 5.93164-6.77929s-1.13072-8.1842-3.10743-9.03126c-1.97606-.84676-9.68567 4.2363-12.22656 4.80079-2.54089.56448-14.68445 1.41299-16.37891-1.41016-1.69382-2.82378 13.69744-31.619825 15.67383-35.007812 1.97671-3.388284 2.82287-7.908101-.84765-12.707032-3.66896-4.80045-6.20953-9.597656-7.6211-9.597656zm-60.19726 53.01367c2.30646-.0378 3.8789.20508 3.8789.20508 1.29151 3.01111-4.73237 12.47642-10.32617 13.76758-5.59254 1.29023-18.500051 20.22254-18.929686 15.91992-.431559-4.30262 5.163119-18.5013 11.617186-24.95508 4.0336-4.03377 9.91566-4.8745 13.75977-4.9375z" fill="#1463a5" transform="matrix(1.00000000514 0 0 1.00000000514 -.00000074748 1.99999657717)"/>
  <path d="m128.752 235.248a112 112 0 0 1 -112-112 112 112 0 0 1 .04102-1.16992 112 112 0 0 0 111.95898 111.16992 112 112 0 0 0 111.95898-110.83008 112 112 0 0 1 .041.83008 112 112 0 0 1 -112 112z" opacity=".2"/>
</svg>
