<?xml version="1.0" encoding="UTF-8" standalone="no"?>
<svg
   xmlns:dc="http://purl.org/dc/elements/1.1/"
   xmlns:cc="http://creativecommons.org/ns#"
   xmlns:rdf="http://www.w3.org/1999/02/22-rdf-syntax-ns#"
   xmlns:svg="http://www.w3.org/2000/svg"
   xmlns="http://www.w3.org/2000/svg"
   xmlns:xlink="http://www.w3.org/1999/xlink"
   xmlns:sodipodi="http://sodipodi.sourceforge.net/DTD/sodipodi-0.dtd"
   xmlns:inkscape="http://www.inkscape.org/namespaces/inkscape"
   style="enable-background:new"
   width="256"
   height="256"
   version="1.0"
   viewBox="0 0 256 256"
   id="svg72"
   sodipodi:docname="3.svg"
   inkscape:version="0.92.4 (5da689c313, 2019-01-14)">
  <metadata
     id="metadata76">
    <rdf:RDF>
      <cc:Work
         rdf:about="">
        <dc:format>image/svg+xml</dc:format>
        <dc:type
           rdf:resource="http://purl.org/dc/dcmitype/StillImage" />
        <dc:title>
  Adwaita Icon Template
 </dc:title>
      </cc:Work>
    </rdf:RDF>
  </metadata>
  <sodipodi:namedview
     pagecolor="#ffffff"
     bordercolor="#666666"
     borderopacity="1"
     objecttolerance="10"
     gridtolerance="10"
     guidetolerance="10"
     inkscape:pageopacity="0"
     inkscape:pageshadow="2"
     inkscape:window-width="1920"
     inkscape:window-height="1016"
     id="namedview74"
     showgrid="false"
     inkscape:zoom="0.921875"
     inkscape:cx="-78.101695"
     inkscape:cy="128"
     inkscape:window-x="0"
     inkscape:window-y="27"
     inkscape:window-maximized="1"
     inkscape:current-layer="svg72" />
  <title
     id="title4162">
  Adwaita Icon Template
 </title>
  <defs
     id="defs44">
    <linearGradient
       id="linearGradient1494">
      <stop
         id="stop1490"
         offset="0"
         style="stop-color:#babdb6" />
      <stop
         id="stop1492"
         offset="1"
         style="stop-color:#babdb6;stop-opacity:0" />
    </linearGradient>
    <linearGradient
       id="linearGradient1496"
       x1="280"
       x2="280"
       y1="172"
       y2="20"
       gradientUnits="userSpaceOnUse"
       xlink:href="#linearGradient1494" />
    <linearGradient
       id="linearGradient1329"
       x1="11.823"
       x2="115.82"
       y1="268"
       y2="268"
       gradientUnits="userSpaceOnUse">
      <stop
         id="stop1345"
         offset="0"
         style="stop-color:#986a44" />
      <stop
         id="stop1347"
         offset=".029"
         style="stop-color:#cdab8f" />
      <stop
         id="stop1349"
         offset=".058"
         style="stop-color:#b5835a" />
      <stop
         id="stop1351"
         offset=".942"
         style="stop-color:#b5835a" />
      <stop
         id="stop1353"
         offset=".971"
         style="stop-color:#cdab8f" />
      <stop
         id="stop1355"
         offset="1"
         style="stop-color:#986a44" />
    </linearGradient>
    <linearGradient
       id="linearGradient1610"
       x1="70.586"
       x2="60"
       y1="53.255"
       y2="23"
       gradientTransform="translate(0,170)"
       gradientUnits="userSpaceOnUse">
      <stop
         id="stop1652"
         offset="0"
         style="stop-color:#fff" />
      <stop
         id="stop1654"
         offset="1"
         style="stop-color:#deddda" />
    </linearGradient>
    <linearGradient
       id="linearGradient1612"
       x1="60"
       x2="68"
       y1="268"
       y2="268"
       gradientUnits="userSpaceOnUse">
      <stop
         id="stop1258"
         offset="0"
         style="stop-color:#949390" />
      <stop
         id="stop1260"
         offset=".083"
         style="stop-color:#d5d3cf" />
      <stop
         id="stop1262"
         offset=".167"
         style="stop-color:#949390" />
      <stop
         id="stop1264"
         offset=".833"
         style="stop-color:#949390" />
      <stop
         id="stop1266"
         offset=".917"
         style="stop-color:#d5d3cf" />
      <stop
         id="stop1268"
         offset="1"
         style="stop-color:#949390" />
    </linearGradient>
    <linearGradient
       id="linearGradient29716"
       x1="174"
       x2="175.168"
       y1="45"
       y2="268"
       gradientTransform="translate(-24.666462,-28.825235)"
       gradientUnits="userSpaceOnUse"
       xlink:href="#linearGradient4235" />
    <linearGradient
       id="linearGradient4235">
      <stop
         style="stop-color:#f1e2a7"
         id="stop4237"
         offset="0" />
      <stop
         style="stop-color:#f9f1d2"
         id="stop4239"
         offset="1" />
    </linearGradient>
    <filter
       style="color-interpolation-filters:sRGB"
       id="filter29967"
       width="1.346"
       height="1.184"
       x="-.17"
       y="-.09">
      <feGaussianBlur
         id="feGaussianBlur29969"
         stdDeviation="6.35" />
    </filter>
    <linearGradient
       id="linearGradient4241"
       x1="256"
       x2="256"
       y1="24"
       y2="664"
       gradientTransform="matrix(0.375,0,0,0.5,31.333934,3.174765)"
       gradientUnits="userSpaceOnUse"
       xlink:href="#linearGradient4235" />
    <linearGradient
       id="linearGradient4226"
       x1="529.655"
       x2="-35.31"
       y1="401.584"
       y2="119.093"
       gradientTransform="matrix(0,-0.453125,-0.45311204,0,253.29094,239.17476)"
       gradientUnits="userSpaceOnUse"
       xlink:href="#linearGradient4338" />
    <linearGradient
       id="linearGradient4338">
      <stop
         style="stop-color:#ea9d60"
         id="stop4340"
         offset="0" />
      <stop
         style="stop-color:#efbe94"
         id="stop4342"
         offset="1" />
    </linearGradient>
    <linearGradient
       id="linearGradient4358"
       x1="88"
       x2="488"
       y1="88"
       y2="488"
       gradientUnits="userSpaceOnUse"
       xlink:href="#linearGradient4360" />
    <linearGradient
       id="linearGradient4360">
      <stop
         id="stop4362"
         offset="0"
         style="stop-color:#000000;stop-opacity:0.58823532" />
      <stop
         style="stop-color:#000000;stop-opacity:0"
         id="stop4364"
         offset=".88" />
      <stop
         id="stop4366"
         offset="1"
         style="stop-color:#000000" />
    </linearGradient>
    <filter
       style="color-interpolation-filters:sRGB"
       id="filter4380"
       width="1.106"
       height="1.088"
       x="-.05"
       y="-.04">
      <feGaussianBlur
         id="feGaussianBlur4382"
         stdDeviation="8.48" />
    </filter>
    <filter
       style="color-interpolation-filters:sRGB"
       id="filter4346"
       width="1.026"
       height="1.022"
       x="-.01"
       y="-.01">
      <feGaussianBlur
         id="feGaussianBlur4348"
         stdDeviation="2.12" />
    </filter>
    <linearGradient
       id="linearGradient955"
       x1="200"
       x2="200"
       y1="268"
       y2="44"
       gradientTransform="matrix(0.5877193,0,0,0.5877193,-20.333325,-20.684206)"
       gradientUnits="userSpaceOnUse"
       xlink:href="#linearGradient945" />
    <linearGradient
       id="linearGradient945">
      <stop
         id="stop943"
         offset="0"
         style="stop-color:#e6e6e6" />
      <stop
         id="stop941"
         offset="1"
         style="stop-color:#d3d3d3" />
    </linearGradient>
    <linearGradient
       id="linearGradient1035"
       x1="152"
       x2="152"
       y1="100"
       y2="212"
       gradientTransform="translate(-386.30507,3.4576371)"
       gradientUnits="userSpaceOnUse"
       xlink:href="#linearGradient1033" />
    <linearGradient
       id="linearGradient1033">
      <stop
         style="stop-color:#000000;stop-opacity:0"
         id="stop1029"
         offset="0" />
      <stop
         id="stop1037"
         offset=".5"
         style="stop-color:#000000" />
      <stop
         style="stop-color:#000000;stop-opacity:0"
         id="stop1031"
         offset="1" />
    </linearGradient>
    <filter
       style="color-interpolation-filters:sRGB"
       id="filter1025"
       width="1.048"
       height="1.048"
       x="-0.02"
       y="-0.02">
      <feGaussianBlur
         id="feGaussianBlur1027"
         stdDeviation="1.5" />
    </filter>
    <filter
       style="color-interpolation-filters:sRGB"
       id="filter938"
       width="1.048"
       height="1.048"
       x="-0.02"
       y="-0.02">
      <feGaussianBlur
         id="feGaussianBlur936"
         stdDeviation="1.5" />
    </filter>
    <linearGradient
       id="linearGradient982"
       x1="152"
       x2="152"
       y1="124"
       y2="236"
       gradientUnits="userSpaceOnUse"
       xlink:href="#linearGradient980" />
    <linearGradient
       id="linearGradient980">
      <stop
         style="stop-color:#000000"
         id="stop976"
         offset="0" />
      <stop
         style="stop-color:#000000;stop-opacity:0"
         id="stop978"
         offset="1" />
    </linearGradient>
    <clipPath
       id="clipPath999"
       clipPathUnits="userSpaceOnUse">
      <path
         inkscape:connector-curvature="0"
         style="fill:#5d5d5d"
         d="m 152,68 c -48.60106,0 -88,39.39894 -88,88 0,48.60106 39.39894,88 88,88 48.60106,0 88,-39.39894 88,-88 0,-48.60106 -39.39894,-88 -88,-88 z"
         id="path24" />
    </clipPath>
    <filter
       style="color-interpolation-filters:sRGB"
       id="filter1003"
       width="1.12"
       height="1.12"
       x="-0.059999999"
       y="-0.059999999">
      <feGaussianBlur
         id="feGaussianBlur1005"
         stdDeviation="4.4" />
    </filter>
    <linearGradient
       id="linearGradient11065"
       x1="104"
       x2="200"
       y1="44"
       y2="268"
       gradientTransform="matrix(0.5877193,0,0,0.5877193,-158.33335,-162.68421)"
       gradientUnits="userSpaceOnUse"
       xlink:href="#linearGradient945" />
    <linearGradient
       id="linearGradient3212"
       x1="529.65503"
       x2="-35.310001"
       y1="295.638"
       y2="295.638"
       gradientTransform="matrix(0,-0.26721011,-0.26720247,0,267.21262,243.82516)"
       gradientUnits="userSpaceOnUse"
       xlink:href="#linearGradient876" />
    <linearGradient
       id="linearGradient876">
      <stop
         style="stop-color:#b3b3b3"
         id="stop872"
         offset="0" />
      <stop
         style="stop-color:#d9d9d9"
         id="stop874"
         offset="1" />
    </linearGradient>
    <filter
       style="color-interpolation-filters:sRGB"
       id="filter4346-2"
       width="1.026"
       height="1.022"
       x="-0.0099999998"
       y="-0.0099999998">
      <feGaussianBlur
         id="feGaussianBlur4348-9"
         stdDeviation="2.12" />
    </filter>
    <linearGradient
       id="linearGradient4195">
      <stop
         style="stop-color:#8c59d9"
         id="stop4197"
         offset="0" />
      <stop
         style="stop-color:#a7a7f1"
         id="stop4199"
         offset="1" />
    </linearGradient>
    <filter
       inkscape:collect="always"
       style="color-interpolation-filters:sRGB"
       id="filter2020"
       x="-0.024"
       width="1.048"
       y="-0.024"
       height="1.048">
      <feGaussianBlur
         inkscape:collect="always"
         stdDeviation="0.84"
         id="feGaussianBlur2022" />
    </filter>
  </defs>
  <path
     style="opacity:0.1;filter:url(#filter4346)"
     d="M 189.84323,74 C 119.24979,74 111.65402,81.250835 112,151.98706 V 298 444.01294 C 111.65402,514.74917 119.24979,522 189.84323,522 H 386.15677 C 456.75021,522 462.16345,514.72616 464,444.01294 V 298 151.98706 C 464,81.249993 456.75021,74 386.15677,74 Z"
     transform="matrix(0.5,0,0,0.5,-16.666462,-20.825235)"
     id="path46" />
  <path
     d="M 189.84323,74 C 119.24979,74 111.65402,81.250835 112,151.98706 V 298 444.01294 C 111.65402,514.74917 119.24979,522 189.84323,522 H 386.15677 C 456.75021,522 464,514.75001 464,444.01294 V 298 151.98706 C 464,81.249993 456.75021,74 386.15677,74 Z"
     transform="matrix(0.5,0,0,0.5,-16.666462,-20.825235)"
     style="opacity:0.3;fill:url(#linearGradient4358);filter:url(#filter4380)"
     id="path48" />
  <path
     style="opacity:0.1"
     d="m 77.145138,13.174765 c -36.098811,0 -39.983003,3.690158 -39.806081,39.689842 v 74.310153 74.31016 c -0.176922,35.99969 3.70727,39.68984 39.806081,39.68984 H 177.53246 c 36.09881,0 39.80608,-3.68973 39.80608,-39.68984 V 127.17476 52.864607 c 0,-36.000113 -3.70727,-39.689842 -39.80608,-39.689842 z"
     id="path50" />
  <path
     style="fill:url(#linearGradient4226)"
     d="m 176.40692,15.174765 c 35.29673,0 39.09461,3.625418 38.92162,38.99353 v 73.006465 73.00647 c 0.17299,35.36812 -3.62489,38.99353 -38.92162,38.99353 H 78.250158 c -35.29672,0 -38.92162,-3.625 -38.92162,-38.99353 V 127.17476 54.168295 c 0,-35.368533 3.6249,-38.99353 38.92162,-38.99353 z"
     id="path52" />
  <rect
     style="opacity:0.6;fill:url(#linearGradient4241)"
     width="16"
     height="224"
     x="119.33"
     y="15.18"
     id="rect54" />
  <rect
     style="fill:#f9f9f9"
     width="52"
     height="32"
     x="55.33"
     y="175.18"
     id="rect56" />
  <path
     style="fill:#5d5d5d"
     d="m 59.333934,183.17476 v 16 h 8 v -16 z m 12,0 v 16 h 4.000004 v -16 z m 8.000004,0 v 16 h 8 v -16 z m 12,0 v 16 h 4 v -16 z m 8,0 v 16 h 4.000002 v -16 z"
     id="path58" />
  <path
     style="opacity:0.07999998;fill:#ffffff"
     d="M 127.33394,15.174765 V 239.17476 h 49.07812 c 35.29672,0 38.00361,-3.63655 38.92188,-38.99317 V 127.17476 54.16793 c 0,-35.368534 -3.62516,-38.993165 -38.92188,-38.993165 z"
     id="path62" />
  <path
     style="opacity:0.5;fill:#da9763;filter:url(#filter29967)"
     d="M 105.33354,37.174765 V 109.17476 H 83.333538 c 0,0 18.038682,44.02555 44.027342,80 0.008,0 0.0144,-0.005 0.0234,-0.01 0.0101,-0.004 0.0197,-0.009 0.0293,-0.0156 0.009,-0.007 0.0201,-0.0129 0.0293,-0.0176 0.0101,-0.005 0.0189,-0.01 0.0273,-0.01 26.8177,-37.94599 43.86336,-79.9468 43.86336,-79.9468 h -22 V 37.174765 Z"
     id="path64" />
  <path
     style="fill:url(#linearGradient29716)"
     d="M 105.33354,15.174765 V 101.17477 H 83.333538 c 0,0 18.038682,44.02554 44.027342,79.99999 0.008,0 0.0144,-0.005 0.0234,-0.01 0.0101,-0.004 0.0197,-0.009 0.0293,-0.0156 0.009,-0.007 0.0201,-0.0129 0.0293,-0.0176 0.0101,-0.005 0.0189,-0.01 0.0273,-0.01 26.8177,-37.94599 43.86336,-79.94679 43.86336,-79.94679 h -22 V 15.174765 Z"
     id="path66" />
  <path
     style="opacity:0.3;fill:#ffffff"
     d="m 78.255418,15.174765 c -35.296728,0 -39.09487,3.626029 -38.92188,38.994141 v 2 C 39.160548,20.800794 42.95869,17.174765 78.255418,17.174765 h 98.156242 c 35.29673,0 38.92188,3.625608 38.92188,38.994141 v -2 c 0,-35.368533 -3.62515,-38.994141 -38.92188,-38.994141 z"
     id="path68" />
  <path
     style="opacity:0.2"
     d="m 78.260818,239.17476 c -35.296731,0 -39.094875,-3.62603 -38.921885,-38.99414 v -2 c -0.17299,35.36811 3.625154,38.99414 38.921885,38.99414 h 98.156242 c 35.29673,0 38.92188,-3.62561 38.92188,-38.99414 v 2 c 0,35.36853 -3.62515,38.99414 -38.92188,38.99414 z"
     id="path70" />
  <circle
     style="display:inline;opacity:0.2;fill:#000000;fill-opacity:1;stroke:none;stroke-width:0.12500001;stroke-linecap:round;stroke-linejoin:round;stroke-miterlimit:4;stroke-dasharray:none;stroke-dashoffset:0;stroke-opacity:1;filter:url(#filter2020);enable-background:new"
     id="path4980-6-3-1-8-2-7-6-6"
     cx="208"
     cy="-182"
     transform="matrix(0,1.5335333,-1.5335333,0,-209.60306,-248.47493)"
     r="42"
     inkscape:export-filename="/home/stuart/yaru/icons/Suru/256x256/legacy/document-new.png"
     inkscape:export-xdpi="96"
     inkscape:export-ydpi="96" />
  <circle
     style="display:inline;opacity:1;fill:#45a925;fill-opacity:1;stroke:none;stroke-width:0.19169168;stroke-linecap:round;stroke-linejoin:round;stroke-miterlimit:4;stroke-dasharray:none;stroke-dashoffset:0;stroke-opacity:1;enable-background:new"
     id="path4980-6-2-7-9-0-0-1"
     cx="67.432945"
     cy="-69.499969"
     transform="rotate(90)"
     r="64.408401"
     inkscape:export-filename="/home/stuart/yaru/icons/Suru/256x256/legacy/document-new.png"
     inkscape:export-xdpi="96"
     inkscape:export-ydpi="96" />
  <rect
     style="display:inline;opacity:1;fill:#f4f4f4;fill-opacity:1;stroke:none;stroke-width:0.20447116;stroke-linecap:round;stroke-linejoin:round;stroke-miterlimit:4;stroke-dasharray:none;stroke-dashoffset:0;stroke-opacity:1;enable-background:new"
     id="rect9617-7-7-9-1-9-6-8"
     width="73.609596"
     height="18.402399"
     x="32.695183"
     y="58.231743"
     rx="3.4351149"
     ry="3.0670667"
     inkscape:export-filename="/home/stuart/yaru/icons/Suru/256x256/legacy/document-new.png"
     inkscape:export-xdpi="96"
     inkscape:export-ydpi="96" />
  <rect
     style="display:inline;opacity:1;fill:#f4f4f4;fill-opacity:1;stroke:none;stroke-width:0.20447116;stroke-linecap:round;stroke-linejoin:round;stroke-miterlimit:4;stroke-dasharray:none;stroke-dashoffset:0;stroke-opacity:1;enable-background:new"
     id="rect9619-5-0-2-2-3-2-7"
     width="18.402399"
     height="73.609596"
     x="60.298767"
     y="30.628138"
     rx="3.0670667"
     ry="3.4351149"
     inkscape:export-filename="/home/stuart/yaru/icons/Suru/256x256/legacy/document-new.png"
     inkscape:export-xdpi="96"
     inkscape:export-ydpi="96" />
</svg>
