<svg id="svg72" enable-background="new" height="256" viewBox="0 0 256 256" width="256" xmlns="http://www.w3.org/2000/svg" xmlns:xlink="http://www.w3.org/1999/xlink">
  <linearGradient id="linearGradient29716" gradientUnits="userSpaceOnUse" x1="149.333538" x2="150.501538" xlink:href="#linearGradient4235" y1="16.174765" y2="239.174765"/>
  <linearGradient id="linearGradient4235">
    <stop id="stop4237" offset="0" stop-color="#f1e2a7"/>
    <stop id="stop4239" offset="1" stop-color="#f9f1d2"/>
  </linearGradient>
  <filter id="filter29967" color-interpolation-filters="sRGB" height="1.184" width="1.346" x="-.17" y="-.09">
    <feGaussianBlur id="feGaussianBlur29969" stdDeviation="6.35"/>
  </filter>
  <linearGradient id="linearGradient4241" gradientTransform="matrix(.375 0 0 .5 31.333934 3.174765)" gradientUnits="userSpaceOnUse" x1="256" x2="256" xlink:href="#linearGradient4235" y1="24" y2="664"/>
  <linearGradient id="linearGradient4226" gradientTransform="matrix(0 -.453125 -.45311204 0 253.29094 239.17476)" gradientUnits="userSpaceOnUse" x1="529.655" x2="-35.31" y1="401.584" y2="119.093">
    <stop id="stop4340" offset="0" stop-color="#ea9d60"/>
    <stop id="stop4342" offset="1" stop-color="#efbe94"/>
  </linearGradient>
  <linearGradient id="linearGradient4358" gradientUnits="userSpaceOnUse" x1="88" x2="488" y1="88" y2="488">
    <stop id="stop4362" offset="0" stop-opacity=".588235"/>
    <stop id="stop4364" offset=".88" stop-opacity="0"/>
    <stop id="stop4366" offset="1"/>
  </linearGradient>
  <filter id="filter4380" color-interpolation-filters="sRGB" height="1.088" width="1.106" x="-.05" y="-.04">
    <feGaussianBlur id="feGaussianBlur4382" stdDeviation="8.48"/>
  </filter>
  <filter id="filter4346" color-interpolation-filters="sRGB" height="1.022" width="1.026" x="-.01" y="-.01">
    <feGaussianBlur id="feGaussianBlur4348" stdDeviation="2.12"/>
  </filter>
  <filter id="filter1345-3" color-interpolation-filters="sRGB" height="1.048" width="1.048" x="-.024" y="-.024">
    <feGaussianBlur id="feGaussianBlur1347-6" stdDeviation="1.28"/>
  </filter>
  <path id="path46" d="m189.84323 74c-70.59344 0-78.18921 7.250835-77.84323 77.98706v146.01294 146.01294c-.34598 70.73623 7.24979 77.98706 77.84323 77.98706h196.31354c70.59344 0 76.00668-7.27384 77.84323-77.98706v-146.01294-146.01294c0-70.737067-7.24979-77.98706-77.84323-77.98706z" filter="url(#filter4346)" opacity=".1" transform="matrix(.5 0 0 .5 -16.666462 -20.825235)"/>
  <path id="path48" d="m189.84323 74c-70.59344 0-78.18921 7.250835-77.84323 77.98706v146.01294 146.01294c-.34598 70.73623 7.24979 77.98706 77.84323 77.98706h196.31354c70.59344 0 77.84323-7.24999 77.84323-77.98706v-146.01294-146.01294c0-70.737067-7.24979-77.98706-77.84323-77.98706z" fill="url(#linearGradient4358)" filter="url(#filter4380)" opacity=".3" transform="matrix(.5 0 0 .5 -16.666462 -20.825235)"/>
  <path id="path50" d="m77.145138 13.174765c-36.098811 0-39.983003 3.690158-39.806081 39.689842v74.310153 74.31016c-.176922 35.99969 3.70727 39.68984 39.806081 39.68984h100.387322c36.09881 0 39.80608-3.68973 39.80608-39.68984v-74.31016-74.310153c0-36.000113-3.70727-39.689842-39.80608-39.689842z" opacity=".1"/>
  <path id="path52" d="m176.40692 15.174765c35.29673 0 39.09461 3.625418 38.92162 38.99353v73.006465 73.00647c.17299 35.36812-3.62489 38.99353-38.92162 38.99353h-98.156762c-35.29672 0-38.92162-3.625-38.92162-38.99353v-73.00647-73.006465c0-35.368533 3.6249-38.99353 38.92162-38.99353z" fill="url(#linearGradient4226)"/>
  <path id="rect54" d="m119.33 15.18h16v224h-16z" fill="url(#linearGradient4241)" opacity=".6"/>
  <path id="rect56" d="m55.33 175.18h52v32h-52z" fill="#f9f9f9"/>
  <path id="path58" d="m59.333934 183.17476v16h8v-16zm12 0v16h4.000004v-16zm8.000004 0v16h8v-16zm12 0v16h4v-16zm8 0v16h4.000002v-16z" fill="#5d5d5d"/>
  <path id="path60" d="m151.33394 179.17476v4h48v-4zm0 8v4h40v-4zm0 8v4h48v-4zm0 8v4h32v-4z" fill="#e2965b"/>
  <path id="path62" d="m127.33394 15.174765v223.999995h49.07812c35.29672 0 38.00361-3.63655 38.92188-38.99317v-73.00683-73.00683c0-35.368534-3.62516-38.993165-38.92188-38.993165z" fill="#fff" opacity=".08"/>
  <path id="path64" d="m105.33354 37.174765v71.999995h-22.000002s18.038682 44.02555 44.027342 80c.008 0 .0144-.005.0234-.01.0101-.004.0197-.009.0293-.0156.009-.007.0201-.0129.0293-.0176.0101-.005.0189-.01.0273-.01 26.8177-37.94599 43.86336-79.9468 43.86336-79.9468h-22v-71.999995z" fill="#da9763" filter="url(#filter29967)" opacity=".5"/>
  <path id="path66" d="m105.33354 15.174765v86.000005h-22.000002s18.038682 44.02554 44.027342 79.99999c.008 0 .0144-.005.0234-.01.0101-.004.0197-.009.0293-.0156.009-.007.0201-.0129.0293-.0176.0101-.005.0189-.01.0273-.01 26.8177-37.94599 43.86336-79.94679 43.86336-79.94679h-22v-86.000005z" fill="url(#linearGradient29716)"/>
  <path id="path68" d="m78.255418 15.174765c-35.296728 0-39.09487 3.626029-38.92188 38.994141v2c-.17299-35.368112 3.625152-38.994141 38.92188-38.994141h98.156242c35.29673 0 38.92188 3.625608 38.92188 38.994141v-2c0-35.368533-3.62515-38.994141-38.92188-38.994141z" fill="#fff" opacity=".3"/>
  <path id="path70" d="m78.260818 239.17476c-35.296731 0-39.094875-3.62603-38.921885-38.99414v-2c-.17299 35.36811 3.625154 38.99414 38.921885 38.99414h98.156242c35.29673 0 38.92188-3.62561 38.92188-38.99414v2c0 35.36853-3.62515 38.99414-38.92188 38.99414z" opacity=".2"/>
  <circle id="circle1327" cx="69.071999" cy="70.928001" filter="url(#filter1345-3)" opacity=".2" r="64"/>
  <circle id="path1173-9" cx="69.071999" cy="68.928047" fill="#fb7c38" r="64"/>
  <path id="path117" d="m95.310397 29.012544c-2.940534-.0951-6.020634 1.40071-7.372494 3.6142l-8.48477 18.01678c-.27153.44459-.48398.90127-.65158 1.36024l-7.227557-3.86145c-.88134 3.27456-.13499 5.04264-1.2945 8.57547l-1.34799-.72533c-.97609-.52551-2.21582-.21401-2.77934.69443l-1.48478 2.40157c-.5637.91077-.2318 2.0689.7443 2.59514l.17574.0951c-9.4291.789527-21.366092 18.274357-37.963146 25.851749 13.308944 12.877857 32.930426 19.638657 41.774756 19.370147 10.912417-10.398247 14.060297-27.565139 12.927647-36.200039l2.49577 1.34596c.97609.52556 2.21582.21401 2.77935-.69438l1.48477-2.40161c.5637-.91078.2318-2.06891-.7443-2.59442l-1.22597-.66114c2.47411-2.3281 5.28543-2.96374 7.77969-5.191507l-7.48895-4.00078c.31228-.34953.60216-.73006.85713-1.14623l12.042997-15.87159c1.80241-2.9516 1.2787-8.27771-2.171263-9.91265-.87981-.41632-1.84444-.62541-2.82469-.65631zm-.465894 3.40351a2.638671 2.4634242 0 0 1 2.525064 1.82633 2.638671 2.4634242 0 0 1 -1.86635 3.01653 2.638671 2.4634242 0 0 1 -3.231024-1.74072 2.638671 2.4634242 0 0 1 1.86533-3.01678 2.638671 2.4634242 0 0 1 .70685-.0951z" fill="#fff" fill-rule="evenodd"/>
</svg>
