<svg id="svg72" enable-background="new" height="256" viewBox="0 0 256 256" width="256" xmlns="http://www.w3.org/2000/svg" xmlns:xlink="http://www.w3.org/1999/xlink">
  <linearGradient id="linearGradient29716" gradientUnits="userSpaceOnUse" x1="149.333538" x2="150.501538" xlink:href="#linearGradient4235" y1="16.174765" y2="239.174765"/>
  <linearGradient id="linearGradient4235">
    <stop id="stop4237" offset="0" stop-color="#f1e2a7"/>
    <stop id="stop4239" offset="1" stop-color="#f9f1d2"/>
  </linearGradient>
  <filter id="filter29967" color-interpolation-filters="sRGB" height="1.184" width="1.346" x="-.17" y="-.09">
    <feGaussianBlur id="feGaussianBlur29969" stdDeviation="6.35"/>
  </filter>
  <linearGradient id="linearGradient4241" gradientTransform="matrix(.375 0 0 .5 31.333934 3.174765)" gradientUnits="userSpaceOnUse" x1="256" x2="256" xlink:href="#linearGradient4235" y1="24" y2="664"/>
  <linearGradient id="linearGradient4226" gradientTransform="matrix(0 -.453125 -.45311204 0 253.29094 239.17476)" gradientUnits="userSpaceOnUse" x1="529.655" x2="-35.31" y1="401.584" y2="119.093">
    <stop id="stop4340" offset="0" stop-color="#ea9d60"/>
    <stop id="stop4342" offset="1" stop-color="#efbe94"/>
  </linearGradient>
  <linearGradient id="linearGradient4358" gradientUnits="userSpaceOnUse" x1="88" x2="488" y1="88" y2="488">
    <stop id="stop4362" offset="0" stop-opacity=".588235"/>
    <stop id="stop4364" offset=".88" stop-opacity="0"/>
    <stop id="stop4366" offset="1"/>
  </linearGradient>
  <filter id="filter4380" color-interpolation-filters="sRGB" height="1.088" width="1.106" x="-.05" y="-.04">
    <feGaussianBlur id="feGaussianBlur4382" stdDeviation="8.48"/>
  </filter>
  <filter id="filter4346" color-interpolation-filters="sRGB" height="1.022" width="1.026" x="-.01" y="-.01">
    <feGaussianBlur id="feGaussianBlur4348" stdDeviation="2.12"/>
  </filter>
  <linearGradient id="linearGradient3212-3" gradientTransform="matrix(0 -.26721011 -.26720247 0 129.21262 135.82517)" gradientUnits="userSpaceOnUse" x1="529.65503" x2="-35.310001" y1="295.638" y2="295.638">
    <stop id="stop872" offset="0" stop-color="#b3b3b3"/>
    <stop id="stop874" offset="1" stop-color="#d9d9d9"/>
  </linearGradient>
  <path id="path46" d="m189.84323 74c-70.59344 0-78.18921 7.250835-77.84323 77.98706v146.01294 146.01294c-.34598 70.73623 7.24979 77.98706 77.84323 77.98706h196.31354c70.59344 0 76.00668-7.27384 77.84323-77.98706v-146.01294-146.01294c0-70.737067-7.24979-77.98706-77.84323-77.98706z" filter="url(#filter4346)" opacity=".1" transform="matrix(.5 0 0 .5 -16.666462 -20.825235)"/>
  <path id="path48" d="m189.84323 74c-70.59344 0-78.18921 7.250835-77.84323 77.98706v146.01294 146.01294c-.34598 70.73623 7.24979 77.98706 77.84323 77.98706h196.31354c70.59344 0 77.84323-7.24999 77.84323-77.98706v-146.01294-146.01294c0-70.737067-7.24979-77.98706-77.84323-77.98706z" fill="url(#linearGradient4358)" filter="url(#filter4380)" opacity=".3" transform="matrix(.5 0 0 .5 -16.666462 -20.825235)"/>
  <path id="path50" d="m77.145138 13.174765c-36.098811 0-39.983003 3.690158-39.806081 39.689842v74.310153 74.31016c-.176922 35.99969 3.70727 39.68984 39.806081 39.68984h100.387322c36.09881 0 39.80608-3.68973 39.80608-39.68984v-74.31016-74.310153c0-36.000113-3.70727-39.689842-39.80608-39.689842z" opacity=".1"/>
  <path id="path52" d="m176.40692 15.174765c35.29673 0 39.09461 3.625418 38.92162 38.99353v73.006465 73.00647c.17299 35.36812-3.62489 38.99353-38.92162 38.99353h-98.156762c-35.29672 0-38.92162-3.625-38.92162-38.99353v-73.00647-73.006465c0-35.368533 3.6249-38.99353 38.92162-38.99353z" fill="url(#linearGradient4226)"/>
  <path id="rect54" d="m119.33 15.18h16v224h-16z" fill="url(#linearGradient4241)" opacity=".6"/>
  <path id="rect56" d="m55.33 175.18h52v32h-52z" fill="#f9f9f9"/>
  <path id="path58" d="m59.333934 183.17476v16h8v-16zm12 0v16h4.000004v-16zm8.000004 0v16h8v-16zm12 0v16h4v-16zm8 0v16h4.000002v-16z" fill="#5d5d5d"/>
  <path id="path60" d="m151.33394 179.17476v4h48v-4zm0 8v4h40v-4zm0 8v4h48v-4zm0 8v4h32v-4z" fill="#e2965b"/>
  <path id="path62" d="m127.33394 15.174765v223.999995h49.07812c35.29672 0 38.00361-3.63655 38.92188-38.99317v-73.00683-73.00683c0-35.368534-3.62516-38.993165-38.92188-38.993165z" fill="#fff" opacity=".08"/>
  <path id="path64" d="m105.33354 37.174765v71.999995h-22.000002s18.038682 44.02555 44.027342 80c.008 0 .0144-.005.0234-.01.0101-.004.0197-.009.0293-.0156.009-.007.0201-.0129.0293-.0176.0101-.005.0189-.01.0273-.01 26.8177-37.94599 43.86336-79.9468 43.86336-79.9468h-22v-71.999995z" fill="#da9763" filter="url(#filter29967)" opacity=".5"/>
  <path id="path66" d="m105.33354 15.174765v86.000005h-22.000002s18.038682 44.02554 44.027342 79.99999c.008 0 .0144-.005.0234-.01.0101-.004.0197-.009.0293-.0156.009-.007.0201-.0129.0293-.0176.0101-.005.0189-.01.0273-.01 26.8177-37.94599 43.86336-79.94679 43.86336-79.94679h-22v-86.000005z" fill="url(#linearGradient29716)"/>
  <path id="path68" d="m78.255418 15.174765c-35.296728 0-39.09487 3.626029-38.92188 38.994141v2c-.17299-35.368112 3.625152-38.994141 38.92188-38.994141h98.156242c35.29673 0 38.92188 3.625608 38.92188 38.994141v-2c0-35.368533-3.62515-38.994141-38.92188-38.994141z" fill="#fff" opacity=".3"/>
  <path id="path70" d="m78.260818 239.17476c-35.296731 0-39.094875-3.62603-38.921885-38.99414v-2c-.17299 35.36811 3.625154 38.99414 38.921885 38.99414h98.156242c35.29673 0 38.92188-3.62561 38.92188-38.99414v2c0 35.36853-3.62515 38.99414-38.92188 38.99414z" opacity=".2"/>
  <path id="path77-6" d="m189.84323 74c-70.59344 0-78.18921 7.250835-77.84323 77.98706v146.01294 146.01294c-.34598 70.73623 7.24979 77.98706 77.84323 77.98706h196.31354c70.59344 0 76.00668-7.27384 77.84323-77.98706v-146.01294-146.01294c0-70.737067-7.24979-77.98706-77.84323-77.98706z" filter="url(#filter4346)" opacity=".1" transform="matrix(.29485254 0 0 .29485254 -29.98239 -17.498147)"/>
  <g stroke-width="2.228807">
    <path id="path81-2" d="m83.87373 3.7312358c20.81466 0 23.05429 2.13792 22.95227 22.9946802v43.05228 43.052314c.10202 20.85675-2.13761 22.99468-22.95227 22.99468h-57.88355c-20.8146398 0-22.9522698-2.13768-22.9522698-22.99468v-43.052314-43.05228c0-20.8570102 2.13763-22.9946802 22.9522698-22.9946802z" fill="url(#linearGradient3212-3)"/>
    <path id="path83-9" d="m3.0410902 111.65073v1.17942c-.10201 20.85675 2.13777 22.99504 22.9524298 22.99504h57.88324c20.81465 0 22.41092-2.14507 22.95243-22.99504v-1.17942c-.54151 20.84997-2.13778 22.99504-22.95243 22.99504h-57.88324c-20.8146598 0-23.0544398-2.13829-22.9524298-22.99504z" opacity=".2"/>
    <path id="path85-1" d="m3.0410902 27.909156v-1.17942c-.10201-20.8567702 2.13777-22.9950402 22.9524298-22.9950402h57.88324c20.81465 0 22.41092 2.14507 22.95243 22.9950402v1.17942c-.54151-20.8500002-2.13778-22.9950502-22.95243-22.9950502h-57.88324c-20.8146598 0-23.0544398 2.13827-22.9524298 22.9950502z" fill="#fff" opacity=".2"/>
    <path id="path87-2" d="m51.73618 76.100166c.63685.11567 1.3319.69438 1.67928 1.15753l5.61602 9.72669-2.8944 1.73686h9.61036l4.80517-8.33649-2.95313 1.67811-2.95198-5.21059c-.28947-.52105-.86851-.75211-1.50537-.75211zm-3.31364.58626c-1.47632.0506-2.9096.60016-3.51749 1.6712l-4.39976 7.70073 8.45168 4.92036 5.38451-9.37886-2.14229-3.58892c-.78158-.92631-2.30031-1.37517-3.77665-1.32451zm22.88218 11.91963-8.51041 4.86277 5.38451 9.204934h4.57367c1.85265-.34739 4.63178-3.358104 3.01072-6.484444zm-37.6893 2.02597 3.06831 1.79445-1.96837 3.29982c-1.73687 3.24214 1.15753 6.818034 2.89439 7.006214h4.51609l3.0683-5.326944 3.06831 1.67927-4.92035-8.45281zm27.61594 9.899444-4.92151 8.45283 4.92151 8.39524v-3.53131h6.02144c.69475 0 1.15745-.40527 1.38903-.86844l5.44211-9.61035c-.28948.17363-.46295.46239-1.56296.57818h-11.28962zm-25.01064 2.95314c.23158.28948.1734.232 5.26819 9.26367.34736.52106.81092 1.15783 1.44777 1.09995h10.82661v-9.90061h-16.09479c-.86844 0-1.17278-.23142-1.44778-.46301z" fill="#28851e"/>
    <path id="path89-7" d="m21.92101 14.345926h59.73836 6.29019c3.96125.0461 6.56393.18811 7.71533.82312.5768.31823.9093.669 1.21627 1.48655.30821.81755.50368 3.98052.50368 3.98052v6.29018h.0189v4.71765c0 1.86319-.19562 3.16294-.50369 3.98051-.30696.81757-.63977 1.16832-1.21626 1.48654-1.15175.63538-3.75283.7769-7.71533.82313h-.0315-56.58099-9.41686-.0368c-3.96256-.0461-6.56364-.18767-7.71535-.82313-.5765-.31822-.90932-.66897-1.21627-1.48654-.30822-.81757-.50372-2.11732-.50372-3.98051v-4.71765-6.29018c0-1.86318.19845-3.16297.50372-3.98052.30821-.81766.63977-1.16832 1.21627-1.48655 1.15362-.63644 3.7599-.77714 7.73372-.82312z" fill="#fff" opacity=".2"/>
    <path id="path91-0" d="m21.92101 13.166506h59.73836 6.29019c3.96125.0461 6.56393.18812 7.71533.82315.5768.3182.9093.66897 1.21627 1.48654.30821.81753.50368 3.9805.50368 3.9805v6.29021h.0189v4.71762c0 1.86319-.19562 3.16294-.50369 3.98051-.30696.81757-.63977 1.16834-1.21626 1.48654-1.15175.63538-3.75283.7769-7.71533.82315h-.0315-56.58099-9.41686-.0368c-3.96256-.0461-6.56364-.18766-7.71535-.82315-.5765-.3182-.90932-.66897-1.21627-1.48654-.30822-.81757-.50372-2.11732-.50372-3.98051v-4.71762-6.29021c0-1.86318.19845-3.16297.50372-3.9805.30821-.81765.63977-1.16834 1.21627-1.48654 1.15362-.63644 3.7599-.77716 7.73372-.82315z" opacity=".4"/>
  </g>
</svg>
