<svg height="256" viewBox="0 0 67.73 67.73" width="256" xmlns="http://www.w3.org/2000/svg" xmlns:xlink="http://www.w3.org/1999/xlink">
  <linearGradient id="linearGradient3165">
    <stop offset="0"/>
    <stop offset="1" stop-color="#707070"/>
  </linearGradient>
  <linearGradient id="linearGradient3169" gradientUnits="userSpaceOnUse" x1="20.057518" x2="19.999518" xlink:href="#linearGradient3165" y1="266.586932" y2="263.984932"/>
  <linearGradient id="linearGradient3185" gradientUnits="userSpaceOnUse" x1="17.943518" x2="17.943518" xlink:href="#linearGradient3165" y1="278.200932" y2="263.735932"/>
  <linearGradient id="linearGradient3203" gradientUnits="userSpaceOnUse" x1="20.140518" x2="20.083518" xlink:href="#linearGradient3165" y1="275.318932" y2="277.249932"/>
  <linearGradient id="linearGradient3205" gradientUnits="userSpaceOnUse" x1="17.506518" x2="17.506518" xlink:href="#linearGradient3165" y1="263.774932" y2="278.161932"/>
  <filter id="filter2182" color-interpolation-filters="sRGB" height="1.024" width="1.024" x="-.01" y="-.01">
    <feGaussianBlur stdDeviation=".294"/>
  </filter>
  <filter id="filter2272" color-interpolation-filters="sRGB" height="1.094" width="1.098" x="-.05" y="-.05">
    <feGaussianBlur stdDeviation="1.176"/>
  </filter>
  <g filter="url(#filter2272)" opacity=".1" transform="matrix(1.0087662 0 0 1.0087662 -1.085662 -234.600286)">
    <g transform="matrix(1.3175821 0 0 1.3175821 -11.593213 -80.15716)">
      <g opacity=".1" transform="matrix(1.0178572 0 0 1.0178572 -.63793 -4.658791)">
        <path d="m34.955374 242.10138c-9.335945 0-16.923707 9.67245-17.379882 21.76978h.691993c.453674-11.70389 7.769275-20.96233 16.687889-20.96233 8.918615 0 16.235465 9.25844 16.689239 20.96233h.692443c-.456273-12.09733-8.045735-21.76978-17.381682-21.76978z"/>
        <path d="m49.337945 268.81599c0 7.93644-6.429503 14.37021-14.360694 14.37021-7.931194 0-14.360696-6.43377-14.360696-14.37021 0-5.64491 7.882133-13.59088 10.478797-20.95748 1.050148-2.97923 1.587729-5.67901 2.014017-9.26061.410305.71114 2.541465 5.3879 4.10899 7.91276 4.538433 7.31019 12.119586 14.92609 12.119586 22.30533z"/>
        <rect height="1.877" rx=".577" transform="matrix(-.99777897 .06661174 .06652395 .99778483 0 0)" width="1.51" x="-35.04" y="263.53"/>
        <g transform="matrix(-1.0899999 0 0 -1.0907222 71.18175 565.41163)">
          <path d="m21.762554 276.72245c0 .53533-.554861.96932-1.239287.96932h-.989998c-.684427 0-1.239286-.43399-1.239286-.96932v-11.53871c0-.53533.554859-.96932 1.239286-.96932h.989998c.684426 0 1.239287.43399 1.239287.96932z"/>
          <path d="m15.230947 265.67295v10.59127c0 2.19664 3.365926 1.93821 3.365926 1.93821.276023-.021.484746-.21284.484746-.42603v-13.61563c0-.21319-.208723-.40493-.484746-.42602 0 0-3.365926-.25853-3.365926 1.9382z"/>
          <path d="m15.111171 265.68615s-.317868-.0492-.636719.10937c-1.001601 1.19353-1.016287 3.25008-1.044553 4.96698.02428 1.44484.01272 4.75566 1.044553 5.36115.318851.15859.636719.10937.636719.10937.0677-.0104.121417-.0615.158203-.125.03679-.0634.05859-.14197.05859-.22656l-.05859-10.07226c-.03679-.0635-.0905-.11265-.158203-.12305z"/>
          <path d="m17.506345 278.16234c.175031.0192.262546.0313.437576.0388v-14.46517c-.17503.007-.262545.0197-.437576.0387z"/>
        </g>
        <rect height="1.877" rx=".577" transform="matrix(.99777897 .06661174 -.06652395 .99778483 0 0)" width="1.51" x="34.77" y="258.8"/>
        <g transform="matrix(1.0899999 0 0 1.0907222 -1.20869 -25.691266)">
          <path d="m21.762554 276.72245c0 .53533-.554861.96932-1.239287.96932h-.989998c-.684427 0-1.239286-.43399-1.239286-.96932v-11.53871c0-.53533.554859-.96932 1.239286-.96932h.989998c.684426 0 1.239287.43399 1.239287.96932z"/>
          <path d="m15.230947 265.67295v10.59127c0 2.19664 3.365926 1.93821 3.365926 1.93821.276023-.021.484746-.21284.484746-.42603v-13.61563c0-.21319-.208723-.40493-.484746-.42602 0 0-3.365926-.25853-3.365926 1.9382z"/>
          <path d="m15.111171 265.68615s-.317868-.0492-.636719.10937c-1.001601 1.19353-1.016287 3.25008-1.044553 4.96698.02428 1.44484.01272 4.75566 1.044553 5.36115.318851.15859.636719.10937.636719.10937.0677-.0104.121417-.0615.158203-.125.03679-.0634.05859-.14197.05859-.22656l-.05859-10.07226c-.03679-.0635-.0905-.11265-.158203-.12305z"/>
          <path d="m17.506345 278.16234c.175031.0192.262546.0313.437576.0388v-14.46517c-.17503.007-.262545.0197-.437576.0387z"/>
        </g>
        <g transform="matrix(1.0899999 0 0 1.0907222 -1.601859 -25.691266)">
          <path d="m32.321425 266.26907-9.903269.69659s-.0574 1.864.182932 2.75126c.13606.5023.38589.97987.696601 1.39733.412705.5545.913598 1.07314 1.512051 1.41903.631743.36514 1.287113.58836 2.094963.63511 1.355251.0784 2.018951-.0407 3.322278-.26459 1.053541-.18097 1.952506-.83708 2.161624-1.72496.361876-1.53645-.06718-4.90977-.06718-4.90977zm2.474269 0s-.428537 3.37332-.06666 4.90977c.209121.88788 1.107569 1.54399 2.16111 1.72496 1.303326.22391 1.967541.34298 3.322794.26459.80785-.0468 1.463219-.26997 2.094963-.63511.598454-.34589 1.09883-.86453 1.511535-1.41903.31071-.41746.561056-.89503.697115-1.39733.240337-.88726.182935-2.75126.182935-2.75126z"/>
          <path d="m122.31641 143.1582c-14.36661.23205-28.714483 1.16933-43.082035 2.82032-.09288.83038-.169922 1.6253-.169922 2.48046 0 12.42152 10.078513 22.5 22.499997 22.5 12.4215 0 22.5-10.07848 22.5-22.5 0-1.84032-.2589-3.58887-.67578-5.30078-.35681.004-.7155-.008-1.07226 0zm5.42578 0c-.41688 1.71191-.67774 3.46046-.67774 5.30078 0 12.42152 10.0785 22.5 22.5 22.5 12.42149 0 22.5-10.07848 22.5-22.5 0-.85516-.0751-1.65008-.16797-2.48046-14.36755-1.65099-28.71737-2.58827-43.08398-2.82032-.35676-.008-.7135.004-1.07031 0z" opacity=".5" transform="matrix(.24062764 0 0 .24046829 3.352203 231.86256)"/>
          <path d="m33.983857 265.61588c-4.410805 0-8.642379.39228-12.583728 1.10794v.97668c3.930568-.72568 8.165962-1.12551 12.583728-1.12551 4.101572 0 8.044124.34647 11.73365.97617v-.97617c-3.698082-.62056-7.63861-.95911-11.73365-.95911z"/>
        </g>
      </g>
      <path d="m34.955374 242.10138c-9.335945 0-16.923707 9.67245-17.379882 21.76978h.691993c.453674-11.70389 7.769275-20.96233 16.687889-20.96233 8.918615 0 16.235465 9.25844 16.689239 20.96233h.692443c-.456273-12.09733-8.045735-21.76978-17.381682-21.76978z"/>
      <path d="m49.337945 268.81599c0 7.93644-6.429503 14.37021-14.360694 14.37021-7.931194 0-14.360696-6.43377-14.360696-14.37021 0-5.64491 7.882133-13.59088 10.478797-20.95748 1.050148-2.97923 1.587729-5.67901 2.014017-9.26061.410305.71114 2.541465 5.3879 4.10899 7.91276 4.538433 7.31019 12.119586 14.92609 12.119586 22.30533z"/>
      <rect height="1.877" rx=".577" transform="matrix(-.99777897 .06661174 .06652395 .99778483 0 0)" width="1.51" x="-35.04" y="263.53"/>
      <g transform="matrix(-1.0899999 0 0 -1.0907222 71.18175 565.41163)">
        <path d="m21.762554 276.72245c0 .53533-.554861.96932-1.239287.96932h-.989998c-.684427 0-1.239286-.43399-1.239286-.96932v-11.53871c0-.53533.554859-.96932 1.239286-.96932h.989998c.684426 0 1.239287.43399 1.239287.96932z"/>
        <path d="m15.230947 265.67295v10.59127c0 2.19664 3.365926 1.93821 3.365926 1.93821.276023-.021.484746-.21284.484746-.42603v-13.61563c0-.21319-.208723-.40493-.484746-.42602 0 0-3.365926-.25853-3.365926 1.9382z"/>
        <path d="m15.111171 265.68615s-.317868-.0492-.636719.10937c-1.001601 1.19353-1.016287 3.25008-1.044553 4.96698.02428 1.44484.01272 4.75566 1.044553 5.36115.318851.15859.636719.10937.636719.10937.0677-.0104.121417-.0615.158203-.125.03679-.0634.05859-.14197.05859-.22656l-.05859-10.07226c-.03679-.0635-.0905-.11265-.158203-.12305z"/>
        <path d="m17.506345 278.16234c.175031.0192.262546.0313.437576.0388v-14.46517c-.17503.007-.262545.0197-.437576.0387z"/>
      </g>
      <rect height="1.877" rx=".577" transform="matrix(.99777897 .06661174 -.06652395 .99778483 0 0)" width="1.51" x="34.77" y="258.8"/>
      <g transform="matrix(1.0899999 0 0 1.0907222 -1.20869 -25.691266)">
        <path d="m21.762554 276.72245c0 .53533-.554861.96932-1.239287.96932h-.989998c-.684427 0-1.239286-.43399-1.239286-.96932v-11.53871c0-.53533.554859-.96932 1.239286-.96932h.989998c.684426 0 1.239287.43399 1.239287.96932z"/>
        <path d="m15.230947 265.67295v10.59127c0 2.19664 3.365926 1.93821 3.365926 1.93821.276023-.021.484746-.21284.484746-.42603v-13.61563c0-.21319-.208723-.40493-.484746-.42602 0 0-3.365926-.25853-3.365926 1.9382z"/>
        <path d="m15.111171 265.68615s-.317868-.0492-.636719.10937c-1.001601 1.19353-1.016287 3.25008-1.044553 4.96698.02428 1.44484.01272 4.75566 1.044553 5.36115.318851.15859.636719.10937.636719.10937.0677-.0104.121417-.0615.158203-.125.03679-.0634.05859-.14197.05859-.22656l-.05859-10.07226c-.03679-.0635-.0905-.11265-.158203-.12305z"/>
        <path d="m17.506345 278.16234c.175031.0192.262546.0313.437576.0388v-14.46517c-.17503.007-.262545.0197-.437576.0387z"/>
      </g>
      <g transform="matrix(1.0899999 0 0 1.0907222 -1.601859 -25.691266)">
        <path d="m32.321425 266.26907-9.903269.69659s-.0574 1.864.182932 2.75126c.13606.5023.38589.97987.696601 1.39733.412705.5545.913598 1.07314 1.512051 1.41903.631743.36514 1.287113.58836 2.094963.63511 1.355251.0784 2.018951-.0407 3.322278-.26459 1.053541-.18097 1.952506-.83708 2.161624-1.72496.361876-1.53645-.06718-4.90977-.06718-4.90977zm2.474269 0s-.428537 3.37332-.06666 4.90977c.209121.88788 1.107569 1.54399 2.16111 1.72496 1.303326.22391 1.967541.34298 3.322794.26459.80785-.0468 1.463219-.26997 2.094963-.63511.598454-.34589 1.09883-.86453 1.511535-1.41903.31071-.41746.561056-.89503.697115-1.39733.240337-.88726.182935-2.75126.182935-2.75126z"/>
        <path d="m122.31641 143.1582c-14.36661.23205-28.714483 1.16933-43.082035 2.82032-.09288.83038-.169922 1.6253-.169922 2.48046 0 12.42152 10.078513 22.5 22.499997 22.5 12.4215 0 22.5-10.07848 22.5-22.5 0-1.84032-.2589-3.58887-.67578-5.30078-.35681.004-.7155-.008-1.07226 0zm5.42578 0c-.41688 1.71191-.67774 3.46046-.67774 5.30078 0 12.42152 10.0785 22.5 22.5 22.5 12.42149 0 22.5-10.07848 22.5-22.5 0-.85516-.0751-1.65008-.16797-2.48046-14.36755-1.65099-28.71737-2.58827-43.08398-2.82032-.35676-.008-.7135.004-1.07031 0z" opacity=".5" transform="matrix(.24062764 0 0 .24046829 3.352203 231.86256)"/>
        <path d="m33.983857 265.61588c-4.410805 0-8.642379.39228-12.583728 1.10794v.97668c3.930568-.72568 8.165962-1.12551 12.583728-1.12551 4.101572 0 8.044124.34647 11.73365.97617v-.97617c-3.698082-.62056-7.63861-.95911-11.73365-.95911z"/>
      </g>
    </g>
  </g>
  <g filter="url(#filter2182)" opacity=".1" transform="matrix(1.0087662 0 0 1.0087662 -1.085662 -234.600286)">
    <g transform="matrix(1.3175821 0 0 1.3175821 -11.593213 -80.15716)">
      <g opacity=".1" transform="matrix(1.0178572 0 0 1.0178572 -.63793 -4.658791)">
        <path d="m34.955374 242.10138c-9.335945 0-16.923707 9.67245-17.379882 21.76978h.691993c.453674-11.70389 7.769275-20.96233 16.687889-20.96233 8.918615 0 16.235465 9.25844 16.689239 20.96233h.692443c-.456273-12.09733-8.045735-21.76978-17.381682-21.76978z"/>
        <path d="m49.337945 268.81599c0 7.93644-6.429503 14.37021-14.360694 14.37021-7.931194 0-14.360696-6.43377-14.360696-14.37021 0-5.64491 7.882133-13.59088 10.478797-20.95748 1.050148-2.97923 1.587729-5.67901 2.014017-9.26061.410305.71114 2.541465 5.3879 4.10899 7.91276 4.538433 7.31019 12.119586 14.92609 12.119586 22.30533z"/>
        <rect height="1.877" rx=".577" transform="matrix(-.99777897 .06661174 .06652395 .99778483 0 0)" width="1.51" x="-35.04" y="263.53"/>
        <g transform="matrix(-1.0899999 0 0 -1.0907222 71.18175 565.41163)">
          <path d="m21.762554 276.72245c0 .53533-.554861.96932-1.239287.96932h-.989998c-.684427 0-1.239286-.43399-1.239286-.96932v-11.53871c0-.53533.554859-.96932 1.239286-.96932h.989998c.684426 0 1.239287.43399 1.239287.96932z"/>
          <path d="m15.230947 265.67295v10.59127c0 2.19664 3.365926 1.93821 3.365926 1.93821.276023-.021.484746-.21284.484746-.42603v-13.61563c0-.21319-.208723-.40493-.484746-.42602 0 0-3.365926-.25853-3.365926 1.9382z"/>
          <path d="m15.111171 265.68615s-.317868-.0492-.636719.10937c-1.001601 1.19353-1.016287 3.25008-1.044553 4.96698.02428 1.44484.01272 4.75566 1.044553 5.36115.318851.15859.636719.10937.636719.10937.0677-.0104.121417-.0615.158203-.125.03679-.0634.05859-.14197.05859-.22656l-.05859-10.07226c-.03679-.0635-.0905-.11265-.158203-.12305z"/>
          <path d="m17.506345 278.16234c.175031.0192.262546.0313.437576.0388v-14.46517c-.17503.007-.262545.0197-.437576.0387z"/>
        </g>
        <rect height="1.877" rx=".577" transform="matrix(.99777897 .06661174 -.06652395 .99778483 0 0)" width="1.51" x="34.77" y="258.8"/>
        <g transform="matrix(1.0899999 0 0 1.0907222 -1.20869 -25.691266)">
          <path d="m21.762554 276.72245c0 .53533-.554861.96932-1.239287.96932h-.989998c-.684427 0-1.239286-.43399-1.239286-.96932v-11.53871c0-.53533.554859-.96932 1.239286-.96932h.989998c.684426 0 1.239287.43399 1.239287.96932z"/>
          <path d="m15.230947 265.67295v10.59127c0 2.19664 3.365926 1.93821 3.365926 1.93821.276023-.021.484746-.21284.484746-.42603v-13.61563c0-.21319-.208723-.40493-.484746-.42602 0 0-3.365926-.25853-3.365926 1.9382z"/>
          <path d="m15.111171 265.68615s-.317868-.0492-.636719.10937c-1.001601 1.19353-1.016287 3.25008-1.044553 4.96698.02428 1.44484.01272 4.75566 1.044553 5.36115.318851.15859.636719.10937.636719.10937.0677-.0104.121417-.0615.158203-.125.03679-.0634.05859-.14197.05859-.22656l-.05859-10.07226c-.03679-.0635-.0905-.11265-.158203-.12305z"/>
          <path d="m17.506345 278.16234c.175031.0192.262546.0313.437576.0388v-14.46517c-.17503.007-.262545.0197-.437576.0387z"/>
        </g>
        <g transform="matrix(1.0899999 0 0 1.0907222 -1.601859 -25.691266)">
          <path d="m32.321425 266.26907-9.903269.69659s-.0574 1.864.182932 2.75126c.13606.5023.38589.97987.696601 1.39733.412705.5545.913598 1.07314 1.512051 1.41903.631743.36514 1.287113.58836 2.094963.63511 1.355251.0784 2.018951-.0407 3.322278-.26459 1.053541-.18097 1.952506-.83708 2.161624-1.72496.361876-1.53645-.06718-4.90977-.06718-4.90977zm2.474269 0s-.428537 3.37332-.06666 4.90977c.209121.88788 1.107569 1.54399 2.16111 1.72496 1.303326.22391 1.967541.34298 3.322794.26459.80785-.0468 1.463219-.26997 2.094963-.63511.598454-.34589 1.09883-.86453 1.511535-1.41903.31071-.41746.561056-.89503.697115-1.39733.240337-.88726.182935-2.75126.182935-2.75126z"/>
          <path d="m122.31641 143.1582c-14.36661.23205-28.714483 1.16933-43.082035 2.82032-.09288.83038-.169922 1.6253-.169922 2.48046 0 12.42152 10.078513 22.5 22.499997 22.5 12.4215 0 22.5-10.07848 22.5-22.5 0-1.84032-.2589-3.58887-.67578-5.30078-.35681.004-.7155-.008-1.07226 0zm5.42578 0c-.41688 1.71191-.67774 3.46046-.67774 5.30078 0 12.42152 10.0785 22.5 22.5 22.5 12.42149 0 22.5-10.07848 22.5-22.5 0-.85516-.0751-1.65008-.16797-2.48046-14.36755-1.65099-28.71737-2.58827-43.08398-2.82032-.35676-.008-.7135.004-1.07031 0z" opacity=".5" transform="matrix(.24062764 0 0 .24046829 3.352203 231.86256)"/>
          <path d="m33.983857 265.61588c-4.410805 0-8.642379.39228-12.583728 1.10794v.97668c3.930568-.72568 8.165962-1.12551 12.583728-1.12551 4.101572 0 8.044124.34647 11.73365.97617v-.97617c-3.698082-.62056-7.63861-.95911-11.73365-.95911z"/>
        </g>
      </g>
      <path d="m34.955374 242.10138c-9.335945 0-16.923707 9.67245-17.379882 21.76978h.691993c.453674-11.70389 7.769275-20.96233 16.687889-20.96233 8.918615 0 16.235465 9.25844 16.689239 20.96233h.692443c-.456273-12.09733-8.045735-21.76978-17.381682-21.76978z"/>
      <path d="m49.337945 268.81599c0 7.93644-6.429503 14.37021-14.360694 14.37021-7.931194 0-14.360696-6.43377-14.360696-14.37021 0-5.64491 7.882133-13.59088 10.478797-20.95748 1.050148-2.97923 1.587729-5.67901 2.014017-9.26061.410305.71114 2.541465 5.3879 4.10899 7.91276 4.538433 7.31019 12.119586 14.92609 12.119586 22.30533z"/>
      <rect height="1.877" rx=".577" transform="matrix(-.99777897 .06661174 .06652395 .99778483 0 0)" width="1.51" x="-35.04" y="263.53"/>
      <g transform="matrix(-1.0899999 0 0 -1.0907222 71.18175 565.41163)">
        <path d="m21.762554 276.72245c0 .53533-.554861.96932-1.239287.96932h-.989998c-.684427 0-1.239286-.43399-1.239286-.96932v-11.53871c0-.53533.554859-.96932 1.239286-.96932h.989998c.684426 0 1.239287.43399 1.239287.96932z"/>
        <path d="m15.230947 265.67295v10.59127c0 2.19664 3.365926 1.93821 3.365926 1.93821.276023-.021.484746-.21284.484746-.42603v-13.61563c0-.21319-.208723-.40493-.484746-.42602 0 0-3.365926-.25853-3.365926 1.9382z"/>
        <path d="m15.111171 265.68615s-.317868-.0492-.636719.10937c-1.001601 1.19353-1.016287 3.25008-1.044553 4.96698.02428 1.44484.01272 4.75566 1.044553 5.36115.318851.15859.636719.10937.636719.10937.0677-.0104.121417-.0615.158203-.125.03679-.0634.05859-.14197.05859-.22656l-.05859-10.07226c-.03679-.0635-.0905-.11265-.158203-.12305z"/>
        <path d="m17.506345 278.16234c.175031.0192.262546.0313.437576.0388v-14.46517c-.17503.007-.262545.0197-.437576.0387z"/>
      </g>
      <rect height="1.877" rx=".577" transform="matrix(.99777897 .06661174 -.06652395 .99778483 0 0)" width="1.51" x="34.77" y="258.8"/>
      <g transform="matrix(1.0899999 0 0 1.0907222 -1.20869 -25.691266)">
        <path d="m21.762554 276.72245c0 .53533-.554861.96932-1.239287.96932h-.989998c-.684427 0-1.239286-.43399-1.239286-.96932v-11.53871c0-.53533.554859-.96932 1.239286-.96932h.989998c.684426 0 1.239287.43399 1.239287.96932z"/>
        <path d="m15.230947 265.67295v10.59127c0 2.19664 3.365926 1.93821 3.365926 1.93821.276023-.021.484746-.21284.484746-.42603v-13.61563c0-.21319-.208723-.40493-.484746-.42602 0 0-3.365926-.25853-3.365926 1.9382z"/>
        <path d="m15.111171 265.68615s-.317868-.0492-.636719.10937c-1.001601 1.19353-1.016287 3.25008-1.044553 4.96698.02428 1.44484.01272 4.75566 1.044553 5.36115.318851.15859.636719.10937.636719.10937.0677-.0104.121417-.0615.158203-.125.03679-.0634.05859-.14197.05859-.22656l-.05859-10.07226c-.03679-.0635-.0905-.11265-.158203-.12305z"/>
        <path d="m17.506345 278.16234c.175031.0192.262546.0313.437576.0388v-14.46517c-.17503.007-.262545.0197-.437576.0387z"/>
      </g>
      <g transform="matrix(1.0899999 0 0 1.0907222 -1.601859 -25.691266)">
        <path d="m32.321425 266.26907-9.903269.69659s-.0574 1.864.182932 2.75126c.13606.5023.38589.97987.696601 1.39733.412705.5545.913598 1.07314 1.512051 1.41903.631743.36514 1.287113.58836 2.094963.63511 1.355251.0784 2.018951-.0407 3.322278-.26459 1.053541-.18097 1.952506-.83708 2.161624-1.72496.361876-1.53645-.06718-4.90977-.06718-4.90977zm2.474269 0s-.428537 3.37332-.06666 4.90977c.209121.88788 1.107569 1.54399 2.16111 1.72496 1.303326.22391 1.967541.34298 3.322794.26459.80785-.0468 1.463219-.26997 2.094963-.63511.598454-.34589 1.09883-.86453 1.511535-1.41903.31071-.41746.561056-.89503.697115-1.39733.240337-.88726.182935-2.75126.182935-2.75126z"/>
        <path d="m122.31641 143.1582c-14.36661.23205-28.714483 1.16933-43.082035 2.82032-.09288.83038-.169922 1.6253-.169922 2.48046 0 12.42152 10.078513 22.5 22.499997 22.5 12.4215 0 22.5-10.07848 22.5-22.5 0-1.84032-.2589-3.58887-.67578-5.30078-.35681.004-.7155-.008-1.07226 0zm5.42578 0c-.41688 1.71191-.67774 3.46046-.67774 5.30078 0 12.42152 10.0785 22.5 22.5 22.5 12.42149 0 22.5-10.07848 22.5-22.5 0-.85516-.0751-1.65008-.16797-2.48046-14.36755-1.65099-28.71737-2.58827-43.08398-2.82032-.35676-.008-.7135.004-1.07031 0z" opacity=".5" transform="matrix(.24062764 0 0 .24046829 3.352203 231.86256)"/>
        <path d="m33.983857 265.61588c-4.410805 0-8.642379.39228-12.583728 1.10794v.97668c3.930568-.72568 8.165962-1.12551 12.583728-1.12551 4.101572 0 8.044124.34647 11.73365.97617v-.97617c-3.698082-.62056-7.63861-.95911-11.73365-.95911z"/>
      </g>
    </g>
  </g>
  <g transform="matrix(1.32913228821 0 0 1.32913228821 -12.7805034238 -315.46011969599)">
    <g fill="#010101" opacity=".1" transform="matrix(1.0178572 0 0 1.0178572 -.63793 -4.658791)">
      <path d="m34.955374 242.10138c-9.335945 0-16.923707 9.67245-17.379882 21.76978h.691993c.453674-11.70389 7.769275-20.96233 16.687889-20.96233 8.918615 0 16.235465 9.25844 16.689239 20.96233h.692443c-.456273-12.09733-8.045735-21.76978-17.381682-21.76978z"/>
      <path d="m49.337945 268.81599c0 7.93644-6.429503 14.37021-14.360694 14.37021-7.931194 0-14.360696-6.43377-14.360696-14.37021 0-5.64491 7.882133-13.59088 10.478797-20.95748 1.050148-2.97923 1.587729-5.67901 2.014017-9.26061.410305.71114 2.541465 5.3879 4.10899 7.91276 4.538433 7.31019 12.119586 14.92609 12.119586 22.30533z"/>
      <rect height="1.877" rx=".577" transform="matrix(-.99777897 .06661174 .06652395 .99778483 0 0)" width="1.51" x="-35.04" y="263.53"/>
      <g transform="matrix(-1.0899999 0 0 -1.0907222 71.18175 565.41163)">
        <path d="m21.762554 276.72245c0 .53533-.554861.96932-1.239287.96932h-.989998c-.684427 0-1.239286-.43399-1.239286-.96932v-11.53871c0-.53533.554859-.96932 1.239286-.96932h.989998c.684426 0 1.239287.43399 1.239287.96932z"/>
        <path d="m15.230947 265.67295v10.59127c0 2.19664 3.365926 1.93821 3.365926 1.93821.276023-.021.484746-.21284.484746-.42603v-13.61563c0-.21319-.208723-.40493-.484746-.42602 0 0-3.365926-.25853-3.365926 1.9382z"/>
        <path d="m15.111171 265.68615s-.317868-.0492-.636719.10937c-1.001601 1.19353-1.016287 3.25008-1.044553 4.96698.02428 1.44484.01272 4.75566 1.044553 5.36115.318851.15859.636719.10937.636719.10937.0677-.0104.121417-.0615.158203-.125.03679-.0634.05859-.14197.05859-.22656l-.05859-10.07226c-.03679-.0635-.0905-.11265-.158203-.12305z"/>
        <path d="m17.506345 278.16234c.175031.0192.262546.0313.437576.0388v-14.46517c-.17503.007-.262545.0197-.437576.0387z"/>
      </g>
      <rect height="1.877" rx=".577" transform="matrix(.99777897 .06661174 -.06652395 .99778483 0 0)" width="1.51" x="34.77" y="258.8"/>
      <g transform="matrix(1.0899999 0 0 1.0907222 -1.20869 -25.691266)">
        <path d="m21.762554 276.72245c0 .53533-.554861.96932-1.239287.96932h-.989998c-.684427 0-1.239286-.43399-1.239286-.96932v-11.53871c0-.53533.554859-.96932 1.239286-.96932h.989998c.684426 0 1.239287.43399 1.239287.96932z"/>
        <path d="m15.230947 265.67295v10.59127c0 2.19664 3.365926 1.93821 3.365926 1.93821.276023-.021.484746-.21284.484746-.42603v-13.61563c0-.21319-.208723-.40493-.484746-.42602 0 0-3.365926-.25853-3.365926 1.9382z"/>
        <path d="m15.111171 265.68615s-.317868-.0492-.636719.10937c-1.001601 1.19353-1.016287 3.25008-1.044553 4.96698.02428 1.44484.01272 4.75566 1.044553 5.36115.318851.15859.636719.10937.636719.10937.0677-.0104.121417-.0615.158203-.125.03679-.0634.05859-.14197.05859-.22656l-.05859-10.07226c-.03679-.0635-.0905-.11265-.158203-.12305z"/>
        <path d="m17.506345 278.16234c.175031.0192.262546.0313.437576.0388v-14.46517c-.17503.007-.262545.0197-.437576.0387z"/>
      </g>
      <g transform="matrix(1.0899999 0 0 1.0907222 -1.601859 -25.691266)">
        <path d="m32.321425 266.26907-9.903269.69659s-.0574 1.864.182932 2.75126c.13606.5023.38589.97987.696601 1.39733.412705.5545.913598 1.07314 1.512051 1.41903.631743.36514 1.287113.58836 2.094963.63511 1.355251.0784 2.018951-.0407 3.322278-.26459 1.053541-.18097 1.952506-.83708 2.161624-1.72496.361876-1.53645-.06718-4.90977-.06718-4.90977zm2.474269 0s-.428537 3.37332-.06666 4.90977c.209121.88788 1.107569 1.54399 2.16111 1.72496 1.303326.22391 1.967541.34298 3.322794.26459.80785-.0468 1.463219-.26997 2.094963-.63511.598454-.34589 1.09883-.86453 1.511535-1.41903.31071-.41746.561056-.89503.697115-1.39733.240337-.88726.182935-2.75126.182935-2.75126z"/>
        <path d="m122.31641 143.1582c-14.36661.23205-28.714483 1.16933-43.082035 2.82032-.09288.83038-.169922 1.6253-.169922 2.48046 0 12.42152 10.078513 22.5 22.499997 22.5 12.4215 0 22.5-10.07848 22.5-22.5 0-1.84032-.2589-3.58887-.67578-5.30078-.35681.004-.7155-.008-1.07226 0zm5.42578 0c-.41688 1.71191-.67774 3.46046-.67774 5.30078 0 12.42152 10.0785 22.5 22.5 22.5 12.42149 0 22.5-10.07848 22.5-22.5 0-.85516-.0751-1.65008-.16797-2.48046-14.36755-1.65099-28.71737-2.58827-43.08398-2.82032-.35676-.008-.7135.004-1.07031 0z" opacity=".5" transform="matrix(.24062764 0 0 .24046829 3.352203 231.86256)"/>
        <path d="m33.983857 265.61588c-4.410805 0-8.642379.39228-12.583728 1.10794v.97668c3.930568-.72568 8.165962-1.12551 12.583728-1.12551 4.101572 0 8.044124.34647 11.73365.97617v-.97617c-3.698082-.62056-7.63861-.95911-11.73365-.95911z"/>
      </g>
    </g>
    <path d="m34.955374 242.10138c-9.335945 0-16.923707 9.67245-17.379882 21.76978h.691993c.453674-11.70389 7.769275-20.96233 16.687889-20.96233 8.918615 0 16.235465 9.25844 16.689239 20.96233h.692443c-.456273-12.09733-8.045735-21.76978-17.381682-21.76978z"/>
    <path d="m49.337945 268.81599c0 7.93644-6.429503 14.37021-14.360694 14.37021-7.931194 0-14.360696-6.43377-14.360696-14.37021 0-5.64491 7.882133-13.59088 10.478797-20.95748 1.050148-2.97923 1.587729-5.67901 2.014017-9.26061.410305.71114 2.541465 5.3879 4.10899 7.91276 4.538433 7.31019 12.119586 14.92609 12.119586 22.30533z" fill="#1a7fd4"/>
    <rect height="1.877" rx=".577" transform="matrix(-.99777897 .06661174 .06652395 .99778483 0 0)" width="1.51" x="-35.04" y="263.53"/>
    <g transform="matrix(-1.0899999 0 0 -1.0907222 71.18175 565.41163)">
      <path d="m21.762554 276.72245c0 .53533-.554861.96932-1.239287.96932h-.989998c-.684427 0-1.239286-.43399-1.239286-.96932v-11.53871c0-.53533.554859-.96932 1.239286-.96932h.989998c.684426 0 1.239287.43399 1.239287.96932z" fill="url(#linearGradient3203)"/>
      <path d="m15.230947 265.67295v10.59127c0 2.19664 3.365926 1.93821 3.365926 1.93821.276023-.021.484746-.21284.484746-.42603v-13.61563c0-.21319-.208723-.40493-.484746-.42602 0 0-3.365926-.25853-3.365926 1.9382z" fill="url(#linearGradient3205)"/>
      <path d="m15.111171 265.68615s-.317868-.0492-.636719.10937c-1.001601 1.19353-1.016287 3.25008-1.044553 4.96698.02428 1.44484.01272 4.75566 1.044553 5.36115.318851.15859.636719.10937.636719.10937.0677-.0104.121417-.0615.158203-.125.03679-.0634.05859-.14197.05859-.22656l-.05859-10.07226c-.03679-.0635-.0905-.11265-.158203-.12305z" fill="#201e1e"/>
      <path d="m17.506345 278.16234c.175031.0192.262546.0313.437576.0388v-14.46517c-.17503.007-.262545.0197-.437576.0387z"/>
    </g>
    <rect height="1.877" rx=".577" transform="matrix(.99777897 .06661174 -.06652395 .99778483 0 0)" width="1.51" x="34.77" y="258.8"/>
    <g transform="matrix(1.0899999 0 0 1.0907222 -1.20869 -25.691266)">
      <path d="m21.762554 276.72245c0 .53533-.554861.96932-1.239287.96932h-.989998c-.684427 0-1.239286-.43399-1.239286-.96932v-11.53871c0-.53533.554859-.96932 1.239286-.96932h.989998c.684426 0 1.239287.43399 1.239287.96932z" fill="url(#linearGradient3169)"/>
      <path d="m15.230947 265.67295v10.59127c0 2.19664 3.365926 1.93821 3.365926 1.93821.276023-.021.484746-.21284.484746-.42603v-13.61563c0-.21319-.208723-.40493-.484746-.42602 0 0-3.365926-.25853-3.365926 1.9382z" fill="url(#linearGradient3185)"/>
      <path d="m15.111171 265.68615s-.317868-.0492-.636719.10937c-1.001601 1.19353-1.016287 3.25008-1.044553 4.96698.02428 1.44484.01272 4.75566 1.044553 5.36115.318851.15859.636719.10937.636719.10937.0677-.0104.121417-.0615.158203-.125.03679-.0634.05859-.14197.05859-.22656l-.05859-10.07226c-.03679-.0635-.0905-.11265-.158203-.12305z" fill="#201e1e"/>
      <path d="m17.506345 278.16234c.175031.0192.262546.0313.437576.0388v-14.46517c-.17503.007-.262545.0197-.437576.0387z"/>
    </g>
    <g transform="matrix(1.0899999 0 0 1.0907222 -1.601859 -25.691266)">
      <path d="m32.321425 266.26907-9.903269.69659s-.0574 1.864.182932 2.75126c.13606.5023.38589.97987.696601 1.39733.412705.5545.913598 1.07314 1.512051 1.41903.631743.36514 1.287113.58836 2.094963.63511 1.355251.0784 2.018951-.0407 3.322278-.26459 1.053541-.18097 1.952506-.83708 2.161624-1.72496.361876-1.53645-.06718-4.90977-.06718-4.90977zm2.474269 0s-.428537 3.37332-.06666 4.90977c.209121.88788 1.107569 1.54399 2.16111 1.72496 1.303326.22391 1.967541.34298 3.322794.26459.80785-.0468 1.463219-.26997 2.094963-.63511.598454-.34589 1.09883-.86453 1.511535-1.41903.31071-.41746.561056-.89503.697115-1.39733.240337-.88726.182935-2.75126.182935-2.75126z" fill="none"/>
      <path d="m122.31641 143.1582c-14.36661.23205-28.714483 1.16933-43.082035 2.82032-.09288.83038-.169922 1.6253-.169922 2.48046 0 12.42152 10.078513 22.5 22.499997 22.5 12.4215 0 22.5-10.07848 22.5-22.5 0-1.84032-.2589-3.58887-.67578-5.30078-.35681.004-.7155-.008-1.07226 0zm5.42578 0c-.41688 1.71191-.67774 3.46046-.67774 5.30078 0 12.42152 10.0785 22.5 22.5 22.5 12.42149 0 22.5-10.07848 22.5-22.5 0-.85516-.0751-1.65008-.16797-2.48046-14.36755-1.65099-28.71737-2.58827-43.08398-2.82032-.35676-.008-.7135.004-1.07031 0z" fill="#fff" opacity=".5" transform="matrix(.24062764 0 0 .24046829 3.352203 231.86256)"/>
      <path d="m33.983857 265.61588c-4.410805 0-8.642379.39228-12.583728 1.10794v.97668c3.930568-.72568 8.165962-1.12551 12.583728-1.12551 4.101572 0 8.044124.34647 11.73365.97617v-.97617c-3.698082-.62056-7.63861-.95911-11.73365-.95911z"/>
      <path d="m129.45703 143.8457c-.00933.28274-.0293.56168-.0293.84766 0 16.36718 13.28129 29.64648 29.64844 29.64648 16.36714 0 29.64649-13.2793 29.64649-29.64648 0-.27068-.02088-.52775-.03125-.79102-.63545 15.80655-13.65348 28.4375-29.61524 28.4375-15.98076 0-29.01248-12.66122-29.61914-28.49414zm-4.00976.00977c-.61162 15.82837-13.64165 28.48437-29.619145 28.48437-15.957165 0-28.972862-12.62364-29.615234-28.42382-.010253.2588-.03125.51135-.03125.77734 0 16.36718 13.279353 29.64648 29.646484 29.64648 16.367155 0 29.646485-13.2793 29.646485-29.64648 0-.28267-.01828-.55839-.02734-.83789z" opacity=".2" transform="matrix(.1826192 0 0 .18249827 10.291316 241.15597)"/>
    </g>
    <g transform="matrix(1.0899999 0 0 1.0907222 -1.601859 -25.691266)">
      <path d="m32.321425 266.26907-9.903269.69659s-.0574 1.864.182932 2.75126c.13606.5023.38589.97987.696601 1.39733.412705.5545.913598 1.07314 1.512051 1.41903.631743.36514 1.287113.58836 2.094963.63511 1.355251.0784 2.018951-.0407 3.322278-.26459 1.053541-.18097 1.952506-.83708 2.161624-1.72496.361876-1.53645-.06718-4.90977-.06718-4.90977zm2.474269 0s-.428537 3.37332-.06666 4.90977c.209121.88788 1.107569 1.54399 2.16111 1.72496 1.303326.22391 1.967541.34298 3.322794.26459.80785-.0468 1.463219-.26997 2.094963-.63511.598454-.34589 1.09883-.86453 1.511535-1.41903.31071-.41746.561056-.89503.697115-1.39733.240337-.88726.182935-2.75126.182935-2.75126z" fill="none"/>
      <path d="m129.73828 134.02734c-24.15302 0-47.325866 2.15081-68.908202 6.07227v2c21.582336-3.92146 44.755182-6.07227 68.908202-6.07227 22.42393 0 44.00172 1.8555 64.25195 5.25586v-2c-20.25023-3.40036-41.82802-5.25586-64.25195-5.25586z" fill="#fff" opacity=".3" transform="matrix(.1826192 0 0 .18249827 10.291316 241.15597)"/>
    </g>
    <path d="m32.321425 266.26907-9.903269.69659s-.0574 1.864.182932 2.75126c.13606.5023.38589.97987.696601 1.39733.412705.5545.913598 1.07314 1.512051 1.41903.631743.36514 1.287113.58836 2.094963.63511 1.355251.0784 2.018951-.0407 3.322278-.26459 1.053541-.18097 1.952506-.83708 2.161624-1.72496.361876-1.53645-.06718-4.90977-.06718-4.90977zm2.474269 0s-.428537 3.37332-.06666 4.90977c.209121.88788 1.107569 1.54399 2.16111 1.72496 1.303326.22391 1.967541.34298 3.322794.26459.80785-.0468 1.463219-.26997 2.094963-.63511.598454-.34589 1.09883-.86453 1.511535-1.41903.31071-.41746.561056-.89503.697115-1.39733.240337-.88726.182935-2.75126.182935-2.75126z" fill="none" transform="matrix(1.0899999 0 0 1.0907222 -1.601859 -25.293156)"/>
  </g>
  <g transform="matrix(1.32913228821 0 0 1.32913228821 -100.87654492141 -319.7754570707)">
    <path d="m99.414526 241.88988c-.159931 1.34372-.335728 2.56343-.548178 3.72023-7.380717 1.33717-13.267471 8.76597-14.682242 18.28-.239131.0573-.423613.2613-.440873.52019l-.04821.72157c-.0038.0564.004.10997.01594.16212l.03227-.48558c.01726-.25889.201742-.46289.440873-.52019 1.414771-9.51403 7.301525-16.94283 14.682242-18.28.21245-1.1568.388247-2.37651.548178-3.72023.214975.37268.905094 1.83633 1.735524 3.50484.0369 0 .0735-.002.11042-.002 8.3837 0 15.35548 7.80168 17.02153 18.15326.29253.0104.53487.23666.55478.53535l.0331.49608c.0133-.0551.0191-.11318.0152-.173l-.0482-.72119c-.0199-.29869-.26225-.52493-.55478-.53535-1.66605-10.35158-8.63783-18.15326-17.02153-18.15326-.0369 0-.0735.002-.11042.002-.83043-1.66851-1.520549-3.13216-1.735524-3.50484zm2.142584 4.71395v.00039c.65094 1.28449 1.351 2.60528 1.96644 3.59659 3.31586 5.34095 8.25263 10.84492 10.67354 16.30073.24125-.17589.56377-.28458.91947-.28458h1.07886c.17392 0 .33989.0266.49258.0735v-.16562c0-.23253.22749-.4417.52835-.4646 0 0 .13485-.006.3153-.007-.0863-.0934-.14437-.21411-.15357-.35146l-.003-.0432c-.0571.002-.15901.004-.15901.004-.30086.0229-.52835.23206-.52835.46459v.16562c-.15269-.0469-.31866-.0735-.49258-.0735h-1.07886c-.3557 0-.67822.10869-.91947.28458-2.42091-5.45581-7.35768-10.95978-10.67354-16.30073-.55072-.88707-1.16764-2.03846-1.75806-3.1911-.0694-.003-.13873-.006-.20838-.008zm-2.859104.25543c-.03117.006-.0618.0148-.09292.0214-.313392 1.44408-.696256 2.82717-1.204828 4.26996-1.812598 5.14225-6.197905 10.56589-8.682602 15.29301-.201159-.38618-.68538-.6582-1.251092-.6582h-1.078861c-.173821 0-.339572.0263-.492194.0731v-.13179c0-.23253-.227487-.44159-.528351-.46459 0 0-.06534-.003-.140738-.006l-.02488.37479c-.000499.008-.0031.0142-.0039.0222.105608.003.169507.007.169507.007.300864.023.528351.23207.528351.4646v.13179c.152622-.0468.318373-.0731.492194-.0731h1.078861c.565712 0 1.049933.27202 1.251092.6582 2.484697-4.72712 6.870004-10.15076 8.682602-15.29301.557963-1.58291.968988-3.09012 1.297745-4.68945zm18.836364 16.85202c-.13335.11378-.2171.28208-.20449.4712l.0152.22704c.0351-.14659.12613-.27196.25115-.35184-.0188-.11635-.0416-.23075-.0618-.3464zm-32.594478.25309c-.02036.12321-.04301.24536-.06181.36934.178483.0675.312232.2186.356509.40355l.01516-.22588c.01574-.23611-.113119-.44482-.309859-.54701zm-1.235148 1.4206c-.971091.20482-2.006489.71749-2.006489 1.99094v.0921c-.0356-.0402-.07903-.07-.13063-.0781 0 0-.346423-.0536-.693971.11936-1.091749 1.30181-1.107926 3.54498-1.138736 5.41764.0011.0629.0025.14708.0035.21616.02999-1.83474.07812-3.97518 1.135236-5.23569.347548-.17295.693971-.11936.693971-.11936.0516.008.09503.0379.13063.0781v-.0921c0-1.28599 1.055994-1.7972 2.035258-1.99794-.02939-.0761-.04429-.159-.03849-.2461zm35.161586.00078c-.0389.14621-.13364.27044-.26204.34718 1.03938.16327 2.28097.64506 2.28097 2.0407v.11274c.0355-.0405.0789-.0705.13024-.0785 0 0 .34681-.0536.69436.11936 1.07961.63394 1.11104 3.969 1.13524 5.63068.00097-.0598.002-.12204.003-.18117-.0265-1.57591-.0136-5.1872-1.13835-5.84762-.34755-.17298-.69436-.11936-.69436-.11936-.0514.008-.0947.038-.13024.0785v-.11274c0-1.28038-1.04379-1.788-2.01893-1.98977z" fill="#e4e4e4" opacity=".3"/>
    <path d="m101.53287 245.71084v.00039c.0684.13502.13903.2701.20839.40549 7.68988.3028 14.08937 7.49063 15.76849 17.09968.0205-.0175.0393-.0371.0622-.0517-1.59782-9.87043-8.16371-17.272-16.03908-17.45385zm-2.859078.25543c-6.915936 1.40959-12.448548 8.43322-13.819933 17.47445.02146.008.04131.0187.06143.0292 1.457805-8.82155 6.887635-15.65041 13.6652-17.08412.03043-.14023.06421-.27794.09331-.41949zm18.647008 17.9476c-.0132.0548-.0191.1123-.0152.17184l.0455.67803c.0562-.002.0668-.003.15629-.004-.0863-.0934-.14437-.21411-.15356-.35146zm-32.11043.33007-.03305.49414c-.000499.008-.0031.0142-.0039.0222.01793.00051.01336.00062.02877.001l.02333-.34679c.0039-.0591-.0022-.11613-.01516-.17067zm33.63523.2356c-.0364.15207-.13322.2817-.26554.36079.0858.0135.17391.0328.26165.0509.0157-.0588.0233-.12069.019-.18506zm-35.159244.32035-.0058.0902c.0096-.002.01923-.005.02877-.007-.01028-.0266-.01647-.055-.02294-.0832zm-3.972545 7.84945c-.000979.0599-.0021.12202-.0031.18117.02647 1.57592.01404 5.18721 1.138734 5.84763.347548.17298.693971.11936.693971.11936.05162-.008.09503-.0385.13063-.0793v.11313c0 2.39594 3.668908 2.11418 3.668908 2.11418.300864-.0229.528351-.23206.528351-.46459v-.16562c.152624.0468.318373.0731.492196.0731h1.078861c.746024 0 1.351008-.47319 1.351008-1.05709v-.18739c2.475821 4.3229 7.128506 7.23751 12.46465 7.23751 5.34926 0 10.01216-2.92891 12.48331-7.26939v.25309c0 .58389.60498 1.05709 1.351 1.05709h1.07886c.17393 0 .33989-.0266.49259-.0735v.13219c0 .23253.22748.44158.52835.46459 0 0 3.66891.28185 3.66891-2.11418v-.0914c.0355.0399.0788.0691.13024.077 0 0 .34681.0536.69436-.11936 1.09174-1.30182 1.10753-3.54458 1.13834-5.41725-.001-.0629-.002-.14704-.004-.21616-.03 1.83472-.0777 3.97478-1.13485 5.2353-.34754.17295-.69436.11936-.69436.11936-.0514-.008-.0947-.0371-.13024-.077v.0914c0 2.39603-3.6689 2.11418-3.6689 2.11418-.30087-.023-.52836-.23206-.52836-.46459v-.13218c-.1527.0469-.31865.0735-.49258.0735h-1.07886c-.74602 0-1.35101-.4732-1.35101-1.05708v-.2531c-2.47115 4.34048-7.13404 7.26939-12.48331 7.26939-5.336137 0-9.988822-2.91461-12.464643-7.23751v.18739c0 .5839-.604984 1.05709-1.351008 1.05709h-1.078861c-.173823 0-.339572-.0263-.492196-.0731v.16562c0 .23253-.227487.44169-.528351.46459 0 0-3.668908.28176-3.668908-2.11418v-.11313c-.0356.0408-.07901.0713-.13063.0793 0 0-.346423.0536-.693971-.11936-1.079611-.63395-1.111394-3.96899-1.135623-5.63069z" opacity=".3"/>
  </g>
</svg>
