<svg height="256" width="256" xmlns="http://www.w3.org/2000/svg" xmlns:xlink="http://www.w3.org/1999/xlink">
  <filter id="filter1786" color-interpolation-filters="sRGB" height="1.025" width="1.023" x="-.01" y="-.01">
    <feGaussianBlur stdDeviation="1.112"/>
  </filter>
  <filter id="filter1812" color-interpolation-filters="sRGB" height="1.099" width="1.094" x="-.05" y="-.05">
    <feGaussianBlur stdDeviation="4.446"/>
  </filter>
  <g transform="translate(0 208)">
    <path d="m18.107069 10.458741 108.489101-199.104741 116.34024 215.345763s.67266 1.664478-2.35737.802484c-2.84823-.810298-5.28454-3.199782-8.23488-2.945584-2.48292.213987-3.96576 3.807839-6.42644 3.413073-3.51745-.564345-5.31857-7.267538-8.87946-7.162884-3.13654.09214-2.36509 6.08636-7.04525 6.48171-4.15332.350903-3.4774-11.040971-7.66185-11.391692-2.83722-.237804-3.46704 11.737782-6.98592 11.735269-3.72521-.0021.15409-17.225691-5.21406-17.513436-4.20171-.2252327-1.89116 15.117139-5.66474 15.133443-5.20693.02236-.78659-25.1262273-7.20485-25.0201696-4.56293.075454.34546 23.2778226-5.59642 23.2048786-5.47154-.06717-.19815-35.910152-6.34131-35.479342-5.0684.355437.62498 32.060108-4.95178 32.19238-6.75189.160132-.0284-44.161354-6.73515-44.219862-5.93078-.05198-.61573 39.204016-6.07381 39.205793-6.61512.0021.0206-50.65377-6.26827-50.989138-6.84235-.364867 1.67396 50.883681-5.78649 50.829505-7.19786-.05198 2.05267-64.312289-6.28501-64.926076-6.83102-.502871 1.86677 60.15475-5.14347 60.420475-7.36461.279152 2.22651-70.649854-6.48416-70.672818-6.37957-.01693.44992 67.958522-6.15895 68.9115996-6.10725-1.3454615 1.21971-75.0361716-5.91476-75.0605446-7.36278-.02538 1.24657 73.2545566-6.37642 73.4327162-6.39078.083179 2.71142-73.5424242-5.67443-73.2934122-7.713539.22904.295109 72.9356853-6.044842 72.8619375-6.845511-.079607 1.752055-67.2787235-5.920802-66.8335145-5.845846 3.02259-.225775 51.978588-5.835478 67.5260666-6.150537-6.0862555.443992-48.1286526-6.394798-55.5266566-5.610736 8.073479-1.223656 56.548579-5.785451 56.7326198-5.604741.2704467-.271351-38.0295178-6.279484-38.3926908-3.599612-.217554-5.506259 43.385621-9.911523 43.553131-5.121982.511332-4.556274-24.526427-8.098322-24.447934-4.105995.523302-3.030276 27.397574-8.417371 27.460871-3.097886.736303-3.844551-10.5916093-6.612298-10.3263201-2.481759.237865-2.950068 11.9127811-7.057067 14.0203031-3.753843.5096-1.929254-3.575655.993345-9.957203z" fill="#140000" filter="url(#filter1812)" opacity=".1"/>
    <path d="m18.107069 10.458741 108.489101-199.104741 116.34024 215.345763s.67266 1.664478-2.35737.802484c-2.84823-.810298-5.28454-3.199782-8.23488-2.945584-2.48292.213987-3.96576 3.807839-6.42644 3.413073-3.51745-.564345-5.31857-7.267538-8.87946-7.162884-3.13654.09214-2.36509 6.08636-7.04525 6.48171-4.15332.350903-3.4774-11.040971-7.66185-11.391692-2.83722-.237804-3.46704 11.737782-6.98592 11.735269-3.72521-.0021.15409-17.225691-5.21406-17.513436-4.20171-.2252327-1.89116 15.117139-5.66474 15.133443-5.20693.02236-.78659-25.1262273-7.20485-25.0201696-4.56293.075454.34546 23.2778226-5.59642 23.2048786-5.47154-.06717-.19815-35.910152-6.34131-35.479342-5.0684.355437.62498 32.060108-4.95178 32.19238-6.75189.160132-.0284-44.161354-6.73515-44.219862-5.93078-.05198-.61573 39.204016-6.07381 39.205793-6.61512.0021.0206-50.65377-6.26827-50.989138-6.84235-.364867 1.67396 50.883681-5.78649 50.829505-7.19786-.05198 2.05267-64.312289-6.28501-64.926076-6.83102-.502871 1.86677 60.15475-5.14347 60.420475-7.36461.279152 2.22651-70.649854-6.48416-70.672818-6.37957-.01693.44992 67.958522-6.15895 68.9115996-6.10725-1.3454615 1.21971-75.0361716-5.91476-75.0605446-7.36278-.02538 1.24657 73.2545566-6.37642 73.4327162-6.39078.083179 2.71142-73.5424242-5.67443-73.2934122-7.713539.22904.295109 72.9356853-6.044842 72.8619375-6.845511-.079607 1.752055-67.2787235-5.920802-66.8335145-5.845846 3.02259-.225775 51.978588-5.835478 67.5260666-6.150537-6.0862555.443992-48.1286526-6.394798-55.5266566-5.610736 8.073479-1.223656 56.548579-5.785451 56.7326198-5.604741.2704467-.271351-38.0295178-6.279484-38.3926908-3.599612-.217554-5.506259 43.385621-9.911523 43.553131-5.121982.511332-4.556274-24.526427-8.098322-24.447934-4.105995.523302-3.030276 27.397574-8.417371 27.460871-3.097886.736303-3.844551-10.5916093-6.612298-10.3263201-2.481759.237865-2.950068 11.9127811-7.057067 14.0203031-3.753843.5096-1.929254-3.575655.993345-9.957203z" fill="#140000" filter="url(#filter1786)" opacity=".1"/>
    <path d="m18.107069 10.458741 108.489101-199.104741 116.34024 215.345763s.67266 1.664478-2.35737.802484c-2.84823-.810298-5.28454-3.199782-8.23488-2.945584-2.48292.213987-3.96576 3.807839-6.42644 3.413073-3.51745-.564345-5.31857-7.267538-8.87946-7.162884-3.13654.09214-2.36509 6.08636-7.04525 6.48171-4.15332.350903-3.4774-11.040971-7.66185-11.391692-2.83722-.237804-3.46704 11.737782-6.98592 11.735269-3.72521-.0021.15409-17.225691-5.21406-17.513436-4.20171-.2252327-1.89116 15.117139-5.66474 15.133443-5.20693.02236-.78659-25.1262273-7.20485-25.0201696-4.56293.075454.34546 23.2778226-5.59642 23.2048786-5.47154-.06717-.19815-35.910152-6.34131-35.479342-5.0684.355437.62498 32.060108-4.95178 32.19238-6.75189.160132-.0284-44.161354-6.73515-44.219862-5.93078-.05198-.61573 39.204016-6.07381 39.205793-6.61512.0021.0206-50.65377-6.26827-50.989138-6.84235-.364867 1.67396 50.883681-5.78649 50.829505-7.19786-.05198 2.05267-64.312289-6.28501-64.926076-6.83102-.502871 1.86677 60.15475-5.14347 60.420475-7.36461.279152 2.22651-70.649854-6.48416-70.672818-6.37957-.01693.44992 67.958522-6.15895 68.9115996-6.10725-1.3454615 1.21971-75.0361716-5.91476-75.0605446-7.36278-.02538 1.24657 73.2545566-6.37642 73.4327162-6.39078.083179 2.71142-73.5424242-5.67443-73.2934122-7.713539.22904.295109 72.9356853-6.044842 72.8619375-6.845511-.079607 1.752055-67.2787235-5.920802-66.8335145-5.845846 3.02259-.225775 51.978588-5.835478 67.5260666-6.150537-6.0862555.443992-48.1286526-6.394798-55.5266566-5.610736 8.073479-1.223656 56.548579-5.785451 56.7326198-5.604741.2704467-.271351-38.0295178-6.279484-38.3926908-3.599612-.217554-5.506259 43.385621-9.911523 43.553131-5.121982.511332-4.556274-24.526427-8.098322-24.447934-4.105995.523302-3.030276 27.397574-8.417371 27.460871-3.097886.736303-3.844551-10.5916093-6.612298-10.3263201-2.481759.237865-2.950068 11.9127811-7.057067 14.0203031-3.753843.5096-1.929254-3.575655.993345-9.957203z" fill="#020000" opacity=".1"/>
    <path d="m20.052559 8.7664828 106.585781-195.6116728 114.29918 211.567764s.66086 1.635277-2.31601.788406c-2.79826-.796083-5.19183-3.143646-8.09041-2.893908-2.43936.210233-3.89618 3.741035-6.31369 3.353195-3.45574-.554444-5.22526-7.140037-8.72368-7.037219-3.08151.09052-2.3236 5.979581-6.92165 6.367995-4.08046.344747-3.41639-10.847269-7.52743-11.191837-2.78745-.233632-3.40622 11.531856-6.86336 11.529387-3.65986-.0021.15138-16.9234862-5.12259-17.2061832-4.12799-.221281-1.85798 14.8519262-5.56536 14.8679442-5.11558.02197-.77279-24.6854162-7.07845-24.5812192-4.48287.07413.3394 22.8694392-5.49823 22.7977752-5.37555-.06599-.19468-35.280149-6.23006-34.856897-4.97948.349201.61401 31.49765-4.86491 31.627601-6.63343.157323-.0279-43.386593-6.61699-43.444075-5.82673-.05107-.60493 38.516227-5.96725 38.517972-6.49906.0021.0202-49.765107-6.1583-50.094591-6.72231-.358466 1.64459 49.990984-5.68497 49.937759-7.07158-.05107 2.01666-63.184003-6.17475-63.787022-6.71118-.494049 1.83402 59.0994038-5.05323 59.3604668-7.23541.274254 2.18745-69.4103828-6.37041-69.4329438-6.26764-.01663.44203 66.7662668-6.05089 67.7026238-6.00011-1.321857 1.19831-73.7197468-5.811-73.7436928-7.233602-.02494 1.2247 71.9693888-6.264546 72.1444228-6.278664.08172 2.663846-72.2522058-5.574881-72.0075628-7.578214.225022.289931 71.6561118-5.938792 71.5836578-6.725415-.07821 1.721317-66.0983948-5.816929-65.6609968-5.743287 2.969562-.221814 51.0666835-5.733101 66.3413988-6.042633-5.97947898.436203-47.2842898-6.282608-54.5525048-5.512302 7.931839-1.202189 55.5564988-5.683952 55.7373108-5.506412.265702-.266591-37.3623328-6.169318-37.7191348-3.536461-.213737-5.409658 42.62447-9.737636 42.789041-5.032123.502361-4.47634-24.096139-7.956247-24.019023-4.03396.514121-2.977113 26.916915-8.269697 26.979101-3.043537.723386-3.777103-10.4057912-6.496293-10.1451562-2.438219.233692-2.898313 11.7037852-6.933259 13.7743332-3.687986.500659-1.895407-3.512925.975918-9.7825152z" fill="#f22c42"/>
    <g transform="translate(0 -208)">
      <path d="m126.63867 21.154297-106.585936 195.611323c-2.062558 4.50364-3.557264 7.83346-2.875 9.17188.39968-1.71914 1.503659-4.17753 2.875-7.17188l106.585936-195.611323 113.74805 210.550783c.85485-.18093.55078-.98242.55078-.98242zm-23.88476 143.751953c-.00261 8.3771.2472 17.94469.27343 26.53906.01421-8.4105-.23695-17.98417-.27343-26.53906zm-4.939457.11914c-.05489 10.76659-.567826 23.14982-.550781 32.73633.052949-9.90371.559763-22.26126.550781-32.73633zm-7.283203.89258c-.043893 8.41536.190399 17.95969.240234 26.39648-.015927-8.2722-.24319-17.78051-.240234-26.39648zm-4.820312 2.92578c-.039212 8.17178-.336976 17.3418-.363282 25.25586.071378-8.10619.373919-17.29617.363282-25.25586zm29.130862 1.50977c-.04093 5.64807.0191 11.84506.0332 17.83984-.00118-5.93083-.05251-12.08055-.0332-17.83984zm6.8125.04296c-.04659 10.07743-.5159 21.60446-.44141 30.66797-.00082-9.36457.45767-20.84346.44141-30.66797zm-12.38477.48438c-.03521 7.15259-.15202 14.65057-.14648 21.43164.01751-6.90093.13006-14.37897.14648-21.43164zm17.19922 1.67969c-.08224 9.01139.56354 20.94527.56445 30.46484.09884-9.13326-.54752-21.06529-.56445-30.46484zm6.42969 6.23633c-.0487 9.18178-.49678 19.64454-.41602 27.89843-.00312-8.54931.43277-18.96187.41602-27.89843zm5.36133 8.12695c.00769 6.09535.31894 13.27505.37109 19.68359.01434-6.18894-.29977-13.37944-.37109-19.68359zm5.77734 10.18945c-.00508 1.48731-.00706 2.96508-.00391 4.42383.00194-1.47835-.00132-2.93599.00391-4.42383zm18.37695 9.16992c-.03429 3.22784.04059 6.80261.03711 10.17774.05287-3.23732-.02764-6.82137-.03711-10.17774z" fill="#fff" opacity=".3"/>
      <path d="m105.93359 139.30469c-2.7704-.00955-3.23528 10.56381-3.17968 23.60156.00376-12.09073.55387-21.61062 3.17968-21.60156 2.62571.00897 3.25899 10.17476 3.33789 22.95508-.02781-13.68773-.57888-24.94566-3.33789-24.95508zm-11.83984.13672c-2.967037.0881-3.557918 11.12307-3.5625 24.47656.064908-12.44447.743449-22.39286 3.5625-22.47656 2.99536-.08895 3.710302 9.45367 3.720703 21.58398.066669-13.07704-.561104-23.67781-3.720703-23.58398zm23.70117 5.90429c-2.46741-.00654-2.91087 10.40216-2.95312 23.00782.08485-11.70883.61371-21.01402 2.95312-21.00782 3.11828.00822 3.83992 9.29913 3.85938 21.05078.05865-12.68964-.56511-23.04209-3.85938-23.05078zm-35.457029.01758c-5.743287 2.96956-.221135 51.06708-5.732422 66.3418-3.021317-2.98974-2.911247-14.81081-2.886719-26.79297-.005398 12.64067-.303033 25.63655 2.886719 28.79297 5.511287-15.27472-.010865-63.37224 5.732422-66.3418 2.734872-.15869 3.358328 8.46686 3.373047 19.48047.057402-11.96284-.473365-21.64872-3.373047-21.48047zm46.880859 10.05469c-2.23537-.16456-2.76577 6.38749-2.75 15.14258.07065-7.74125.68595-13.29453 2.75-13.14258 2.97147.21875 3.65966 8.69955 3.67969 19.37891.06159-11.61264-.52366-21.14658-3.67969-21.37891zm-58.896484 1.73437c-5.512302 7.93184-1.201831 55.55747-5.683594 55.73828-5.506412.26571-.265242-37.3639-6.167969-37.7207-3.536461-.21374-5.410303 42.62449-9.738281 42.78906-5.032123.50237-4.477124-24.09469-7.957031-24.01757-4.03396.51412-2.976948 26.91633-8.269532 26.97851-3.043537.72339-3.776903-10.40516-6.496093-10.14453-2.438219.23369-2.898648 11.70289-6.933594 13.77344-1.038796.14102-1.630909-.08651-1.898438-.61133-.437172 1.88041-.02817 2.87287 1.898438 2.61133 4.034946-2.07055 4.495375-13.53975 6.933594-13.77344 2.71919-.26063 3.452556 10.86792 6.496093 10.14453 5.292584-.06218 4.235572-26.46439 8.269532-26.97851 3.479907-.07712 2.924908 24.51994 7.957031 24.01757 4.327978-.16457 6.20182-43.0028 9.738281-42.78906 5.902727.3568.661557 37.98641 6.167969 37.7207 4.481763-.18081.171292-47.80644 5.683594-55.73828 2.939479 3.17985 3.353551 12.8743 3.394531 23.27539-.002416-11.13445-.267768-21.89294-3.394531-25.27539zm70.757814 12.11524c-2.297-.12249-2.8206 5.72158-2.82227 13.40625.09453-6.69112.72459-11.51811 2.82227-11.40625 2.97765.15879 2.99927 11.82662 2.95703 23.8457.04339-12.70296.18812-25.67798-2.95703-25.8457zm12.125 11.57617c-5.82673-.05107-.60448 38.51583-5.9668 38.51758-2.80337.0009-3.18223-9.26686-3.20508-19.82422-.01485 11.35923.22589 21.82518 3.20508 21.82422 5.36232-.00175.14007-38.56865 5.9668-38.51758 6.58909.05748-.01624 43.60068 6.61719 43.44336 2.27506-.05396 2.62238-5.50154 2.6289-11.82617-.08886 5.4416-.59323 9.77789-2.6289 9.82617-6.63343.15732-.0281-43.38588-6.61719-43.44336zm-38.33008 5.34961c.00279 14.06223-.36187 26.45419-3.13086 26.85352-2.17942-.48014-2.611-10.37384-2.62109-22.73438-.03373 13.28479.32487 24.22851 2.62109 24.73438 2.90038-.41827 3.16584-13.98057 3.13086-28.85352zm-11.84766 3.25195c-.02066 12.2392-.61856 21.9399-3.357418 22.00391-1.888286.02458-2.390015-6.55646-2.40625-15.6875-.054384 10.17214.381572 17.71385 2.40625 17.6875 2.887038-.06748 3.397628-10.83106 3.357418-24.00391zm-12.255856.86914c.022437 11.65291-.398684 20.73672-2.615234 20.71094-2.099393-.02441-2.720261-6.47594-2.810547-15.32422.02018 9.83251.560102 17.29805 2.810547 17.32422 2.34481.02728 2.689813-10.08531 2.615234-22.71094zm73.916016 2.34571c-2.02871.14227-2.29089 5.43671-2.27344 11.62304.05621-5.29015.46505-9.49622 2.27344-9.62304 6.03538-.42326.85297 34.79143 6.22852 34.85742 5.83763.07166 1.01517-22.7247 5.49804-22.79883 6.30566-.1042 1.9645 24.604 7.08008 24.58203 3.70738-.01602 1.43646-15.09042 5.56445-14.86914 5.27397.2827 1.46319 17.20493 5.12305 17.20703 3.45714.00247 4.07583-11.76293 6.86328-11.52929 4.11104.34456 3.44689 11.53615 7.52735 11.1914 4.59805-.38841 3.84036-6.27667 6.92187-6.36719 3.49842-.10281 5.26692 6.48267 8.72266 7.03711 2.41751.38784 3.87509-3.14328 6.31445-3.35351 2.89858-.24974 5.29158 2.09845 8.08984 2.89453 2.97687.84687 2.31641-.78906 2.31641-.78906l-.55078-1.01758c-.35562.07526-.89107.05544-1.76563-.19336-2.79826-.79608-5.19126-3.14427-8.08984-2.89453-2.43936.21023-3.89694 3.74135-6.31445 3.35351-3.45574-.55444-5.22424-7.13992-8.72266-7.03711-3.08151.09052-2.32382 5.97878-6.92187 6.36719-4.08046.34475-3.41631-10.84684-7.52735-11.1914-2.78745-.23364-3.40614 11.53176-6.86328 11.52929-3.65986-.0021.15092-16.92433-5.12305-17.20703-4.12799-.22128-1.85707 14.85312-5.56445 14.86914-5.11558.02197-.77442-24.68623-7.08008-24.58203-4.48287.07413.33959 22.87049-5.49804 22.79883-5.37555-.06599-.19314-35.28068-6.22852-34.85742zm-43.47461 6.40429c.00089 10.17555.55819 17.80367 2.95313 17.71289 2.3033-.0873 2.86804-6.8595 2.86718-15.75195-.08549 7.90018-.73682 13.6712-2.86718 13.75195-2.23835.08485-2.87774-6.54084-2.95313-15.71289zm17.41797 5.54297c-.019 8.20179-.62547 14.61662-3.23633 14.59766-2.19275-.01584-2.82991-6.10835-2.91211-14.50977.00343 9.39804.55239 16.49273 2.91211 16.50977 2.82181.02049 3.3108-7.44663 3.23633-16.59766z" fill="#090909" opacity=".2"/>
    </g>
  </g>
</svg>
