<svg height="256" width="256" xmlns="http://www.w3.org/2000/svg" xmlns:xlink="http://www.w3.org/1999/xlink">
  <linearGradient id="linearGradient4358" gradientUnits="userSpaceOnUse" x1="88" x2="488" y1="88" y2="488">
    <stop offset="0" stop-opacity=".588235"/>
    <stop offset="1" stop-opacity=".205556"/>
  </linearGradient>
  <filter id="filter4380" color-interpolation-filters="sRGB" height="1.088" width="1.106" x="-.05" y="-.04">
    <feGaussianBlur stdDeviation="8.48"/>
  </filter>
  <filter id="filter4346" color-interpolation-filters="sRGB" height="1.022" width="1.026" x="-.01" y="-.01">
    <feGaussianBlur stdDeviation="2.12"/>
  </filter>
  <filter id="filter1345-3" color-interpolation-filters="sRGB" height="1.048" width="1.048" x="-.024" y="-.024">
    <feGaussianBlur stdDeviation="1.28"/>
  </filter>
  <g transform="translate(0 208)">
    <path d="m141.84323 74c-70.59344 0-78.18921 7.250835-77.84323 77.98706v146.01294 146.01294c-.34598 70.73623 7.24979 77.98706 77.84323 77.98706h292.31354c70.59344 0 79.78033-7.27652 77.84323-77.98706v-146.01294-146.01294c0-70.737067-7.24979-77.98706-77.84323-77.98706z" filter="url(#filter4346)" opacity=".1" transform="matrix(.5 0 0 .5 -14.116488 -228.82553)"/>
    <path d="m141.84323 74c-70.59344 0-78.18921 7.250835-77.84323 77.98706v146.01294 146.01294c-.34598 70.73623 7.24979 77.98706 77.84323 77.98706h292.31354c70.59344 0 79.78033-7.27652 77.84323-77.98706v-146.01294-146.01294c0-70.737067-7.24979-77.98706-77.84323-77.98706z" fill="url(#linearGradient4358)" filter="url(#filter4380)" opacity=".3" transform="matrix(.5 0 0 .5 -14.116488 -228.82523)"/>
    <path d="m55.695112-194.82553c-36.09881 0-39.983002 3.69016-39.80608 39.68984v74.310155 74.3101591c-.176922 35.9996899 3.70727 39.6898399 39.80608 39.6898399h148.387318c36.09881 0 40.77464-3.70276 39.80608-39.6898399v-74.3101591-74.310155c0-36.00011-3.70727-39.68984-39.80608-39.68984z" opacity=".1"/>
    <path d="m202.95648-192.82554c35.29673 0 39.09461 3.62542 38.92162 38.99353v73.006465 73.0064791c.17299 35.3681199-3.62489 38.9935299-38.92162 38.9935299h-146.15675c-35.29671 0-38.921609-3.625-38.921609-38.9935299v-73.0064791-73.006465c0-35.36853 3.624899-38.99353 38.921609-38.99353z" fill="#33d17a"/>
    <path d="m17.877654-80.825235v8 65.0058591c0 35.3685299 3.625164 38.9941399 38.921874 38.9941399h146.156252c35.29673 0 39.09486-3.62602 38.92187-38.9941399v-65.0058591-8z" fill="#fff" opacity=".05"/>
    <path d="m56.805392-192.82553c-35.296728 0-39.094869 3.62603-38.921879 38.99414v2c-.17299-35.36811 3.625151-38.99414 38.921879-38.99414h146.156238c35.29673 0 38.92188 3.62561 38.92188 38.99414v-2c0-35.36853-3.62515-38.99414-38.92188-38.99414z" fill="#fff" opacity=".3"/>
    <path d="m56.810792 31.174464c-35.296731 0-39.094874-3.62603-38.921884-38.9941399v-2c-.17299 35.3681099 3.625153 38.9941399 38.921884 38.9941399h146.156238c35.29673 0 38.92188-3.62561 38.92188-38.9941399v2c0 35.3685299-3.62515 38.9941399-38.92188 38.9941399z" opacity=".2"/>
  </g>
  <g enable-background="new" transform="translate(-118.15971 21.367104)">
    <path d="m214.62333 29.852022c-14.6404 0-26.46952 5.326121-35.46164 15.9773-10.25924 12.137332-15.39208 28.586037-15.39208 49.39228 0 15.481208 2.9691 28.939328 8.96313 40.332518 9.10702 16.96736 23.10098 25.42794 41.89059 25.42794 4.06012 18.1303 15.25894 27.66684 41.59961 23.67227v-13.1521c-12.26187 1.13073-14.92494-5.60854-15.88063-17.53539v-.77959c3.68963-2.35382 7.03777-5.27352 10.03479-8.86542 9.79857-11.7658 14.71128-28.16942 14.71128-49.100228 0-15.604682-3.12803-29.035962-9.35294-40.429147-9.22193-16.595815-22.89804-24.940433-41.11211-24.940433zm98.68795 5.261694-18.50936.486438-6.13792 29.031673h-13.1521v21.724359h12.08042v41.599614c0 11.39318 1.62469 19.38344 4.77418 23.96434 3.96452 6.0692 12.38541 9.06192 25.32809 9.06192 4.31566 0 9.66111-.58738 16.07502-1.94897v-20.65376c-4.43057.24698-7.72181.3898-9.93602.3898-3.61552 0-6.18088-.61208-7.6971-1.85126-1.8663-1.48616-2.82521-5.32935-2.82521-11.39855v-39.163134h19.0946v-21.724359h-19.0946zm-98.68795 19.093512c14.29465.0011 21.4323 13.714767 21.4323 41.208733 0 27.495059-7.13765 41.307549-21.4323 41.307549-14.52441 0-21.82097-13.88336-21.82097-41.501908 0-1.114615 0-2.197022 0-3.312716.69044-25.140168 7.9881-37.700585 21.82097-37.701658z" fill="#f6f5f4" stroke-width="2.428571"/>
    <path d="m319.23189 194.63273a4 4 0 0 0 -4 3.99999 4 4 0 0 0 4 4.00001 4 4 0 0 0 4-4.00001 4 4 0 0 0 -4-3.99999z" opacity=".1"/>
    <circle cx="307.23172" cy="167.5609" filter="url(#filter1345-3)" opacity=".2" r="64"/>
    <circle cx="307.23172" cy="165.56093" fill="#4d4d4d" r="64"/>
    <path d="m307.1138 181.71807q-2.61485 0-4.09824-1.78276-1.48582-1.78153-1.48582-4.75195 0-6.05816 2.1982-10.09776 2.19816-4.03837 6.4736-8.91006 3.20745-3.68156 4.69333-6.11681 1.48456-2.43524 1.48456-5.5242 0-3.326-2.43523-5.28593-2.43526-1.96115-6.59216-1.96115-3.80253 0-7.06987 1.54572-3.26614 1.54447-8.73045 4.75195-3.44575 1.90005-5.70259 1.90005-2.49511 0-4.21676-2.19819-1.72289-2.19697-1.72289-5.28593 0-2.13709.77348-3.62291.77101-1.48585 2.4328-2.79327 5.22848-4.15689 12.06009-6.47361 6.83042-2.31671 13.71946-2.31671 7.36562 0 13.24538 2.61485 5.87975 2.61365 9.14713 7.1872 3.26613 4.57233 3.26613 10.27494 0 4.39516-1.72169 8.01808-1.72286 3.62413-4.09702 6.29766-2.37656 2.67227-6.41616 6.59335-4.51491 4.15689-6.77175 6.94772-2.25682 2.792-2.85069 6.23775-.47533 2.25684-1.95992 3.50442-1.48462 1.24755-3.62292 1.24755zm.23836 26.60925q-4.39635 0-7.24828-2.91178-2.84947-2.90935-2.84947-7.30452 0-4.39518 2.84947-7.30694 2.85193-2.90935 7.24828-2.90935 4.27544 0 7.1261 2.90935 2.85193 2.91176 2.85193 7.30694 0 4.39517-2.85193 7.30452-2.85066 2.91178-7.1261 2.91178z" fill="#f6f5f4" fill-rule="evenodd" stroke-width="2.851093"/>
  </g>
</svg>
