<svg enable-background="new" height="256" viewBox="0 0 256 256" width="256" xmlns="http://www.w3.org/2000/svg" xmlns:xlink="http://www.w3.org/1999/xlink">
  <linearGradient id="linearGradient1694" gradientTransform="matrix(0 1 -1 0 285.88052 -24.82284)" gradientUnits="userSpaceOnUse" x1="39.997" x2="263.997" y1="156" y2="156">
    <stop offset="0" stop-color="#5884f4"/>
    <stop offset="1" stop-color="#80a3fa"/>
  </linearGradient>
  <linearGradient id="linearGradient4358" gradientUnits="userSpaceOnUse" x1="88" x2="488" y1="88" y2="488">
    <stop offset="0" stop-opacity=".588235"/>
    <stop offset="1" stop-opacity=".205556"/>
  </linearGradient>
  <filter id="filter4380" color-interpolation-filters="sRGB" height="1.088" width="1.106" x="-.05" y="-.04">
    <feGaussianBlur stdDeviation="8.48"/>
  </filter>
  <filter id="filter4346" color-interpolation-filters="sRGB" height="1.022" width="1.026" x="-.01" y="-.01">
    <feGaussianBlur stdDeviation="2.12"/>
  </filter>
  <path d="m141.84323 74c-70.59344 0-78.18921 7.250835-77.84323 77.98706v146.01294 146.01294c-.34598 70.73623 7.24979 77.98706 77.84323 77.98706h292.31354c70.59344 0 79.78033-7.27652 77.84323-77.98706v-146.01294-146.01294c0-70.737067-7.24979-77.98706-77.84323-77.98706z" filter="url(#filter4346)" opacity=".1" transform="matrix(.5 0 0 .5 -14.116488 -20.825537)"/>
  <path d="m141.84323 74c-70.59344 0-78.18921 7.250835-77.84323 77.98706v146.01294 146.01294c-.34598 70.73623 7.24979 77.98706 77.84323 77.98706h292.31354c70.59344 0 79.78033-7.27652 77.84323-77.98706v-146.01294-146.01294c0-70.737067-7.24979-77.98706-77.84323-77.98706z" fill="url(#linearGradient4358)" filter="url(#filter4380)" opacity=".3" transform="matrix(.5 0 0 .5 -14.116488 -20.825235)"/>
  <path d="m55.695112 13.174464c-36.098811 0-39.983002 3.69016-39.80608 39.689839v74.310167 74.31016c-.176922 35.99969 3.707269 39.68984 39.80608 39.68984h148.387318c36.09881 0 40.77464-3.70276 39.80608-39.68984v-74.31016-74.310167c0-36.000109-3.70727-39.689839-39.80608-39.689839z" opacity=".1"/>
  <path d="m202.95648 15.17446c35.29673 0 39.09461 3.62542 38.92162 38.993529v73.006471 73.00648c.17299 35.36812-3.62489 38.99353-38.92162 38.99353h-146.15675c-35.29671 0-38.921609-3.625-38.921609-38.99353v-73.00648-73.006471c0-35.368529 3.624899-38.993529 38.921609-38.993529z" fill="url(#linearGradient1694)"/>
  <g fill="#fff">
    <path d="m17.877654 127.17477v8 65.00586c0 35.36853 3.625164 38.99414 38.921874 38.99414h146.156252c35.29673 0 39.09486-3.62602 38.92187-38.99414v-65.00586-8z" opacity=".05"/>
    <path d="m812.20261 1309.7929c-27.70079 0-55.72369 7.4083-74.72772 20.9366l18.03773 35.1092c12.56198-9.9852 31.56602-16.1051 49.92584-16.1051 27.05659 0 42.19199 14.4169 42.19199 35.9977l-50.00981-.2354c-52.82417-.2486-74.40225 26.624-74.40225 57.2238 0 29.9555 22.04572 51.6578 62.6306 51.6578 25.44607 0 52.4405-7.5298 61.78146-23.3128l.003 21.3432 53.33034-.01-.006-104.013c-.003-52.5026-35.93005-78.5921-88.75482-78.5921zm-11.67969 151.6087c-17.71562 0-28.34499-8.3747-28.34499-20.9367 0-11.5956 7.40547-23.1197 30.91845-22.9689l44.53407.2354.003 16.1495c.003 16.8142-30.36157 27.5207-47.11089 27.5207z" transform="matrix(.57040043254 0 0 .57040043254 -384.73698113293 -627.74229612735)"/>
    <path d="m17.878906 69.361328v17.601563c6.482415 1.835794 14.330644 3.915293 20.189453 4.992187 12.731898 2.34022 36.859375 2.455078 36.859375 2.455078l.246094-16.84375s-25.55513-.619866-34.0625-2.183594c-6.532161-1.200666-16.51154-4.051037-23.232422-6.021484z" stroke-width="2.10603" transform="matrix(.99999999603 0 0 .99999999603 .00000086851 -.00000311627)"/>
    <path d="m119.22656 15.173828h-16.91992c-.59948 2.28582-1.08558 3.998257-2.17187 8.738281-1.622195 7.078345-3.37725 14.638704-3.347661 21.019532.027589 5.96396 1.520694 12.498126 2.898438 18.216797 1.377743 5.718649 2.751953 10.328124 2.751953 10.328124l16.14844-4.808593s-1.2577-4.223157-2.52149-9.46875c-1.26376-5.245594-2.41791-11.802125-2.42968-14.345703-.01053-2.126753 1.38374-10.474727 2.91992-17.177735 1.53616-6.703008 3.08203-12.390625 3.08203-12.390625z" stroke-width="2.10603" transform="matrix(.99999999603 0 0 .99999999603 .00000086851 -.00000311627)"/>
    <path d="m241.87891 73.707031v-16.917969c-.74622.064191-10.24243.879854-21.10352 1.921876-5.63961.541081-11.43864 1.124355-16.19922 1.662109-4.76057.537732-7.53045.714096-10.72656 1.566406-2.16601.5776-5.25551 1.646931-9.84375 3.212891-4.58824 1.565959-10.20513 3.520108-15.66406 5.429687-10.91787 3.81918-26.50782 10.117188-26.50782 10.117188l12.92383 11.572265s8.27146-1.983577 19.14453-5.787109c5.43655-1.901745 11.02945-3.843636 15.54493-5.384766 4.51549-1.541108 8.42448-2.793675 8.74414-2.878906-.71047.189543 3.68561-.58877 8.27734-1.107422 4.59173-.518673 10.33069-1.092858 15.91797-1.628906 10.01547-.960893 17.62254-1.615267 19.49219-1.777344z" stroke-width="2.10603" transform="matrix(.99999999603 0 0 .99999999603 .00000086851 -.00000311627)"/>
    <path d="m236.01758 232.57227c.5373-.5744 1.05546-1.16781 1.50195-1.84375.53566-.81095 1.00851-1.69828 1.42578-2.66797.83454-1.93939 1.44706-4.20848 1.88867-6.86524.44162-2.65676.71291-5.69962.86914-9.18359.09498-2.11788.08597-4.73522.10743-7.19141-2.69911-4.06715-5.29956-8.12768-12.10938-17.67578-9.50209-13.32291-20.74423-28.42778-30.43555-37.5625-18.40581-17.34873-54.29492-39.68555-54.29492-39.68555l-14.89258 14.48829s40.00053 26.62842 54.74219 40.52343c6.88242 6.48716 18.50985 21.5358 27.73242 34.4668 8.14354 11.4181 20.18754 28.54092 23.46485 33.19727z" stroke-width="2.10603" transform="matrix(.99999999603 0 0 .99999999603 .00000086851 -.00000311627)"/>
    <path d="m56.805392 15.174464c-35.296728 0-39.094869 3.62603-38.921879 38.994139v2c-.17299-35.368109 3.625151-38.994139 38.921879-38.994139h146.156238c35.29673 0 38.92188 3.62561 38.92188 38.994139v-2c0-35.368529-3.62515-38.994139-38.92188-38.994139z" opacity=".3"/>
  </g>
  <path d="m56.810792 239.17447c-35.296731 0-39.094874-3.62603-38.921884-38.99414v-2c-.17299 35.36811 3.625153 38.99414 38.921884 38.99414h146.156238c35.29673 0 38.92188-3.62561 38.92188-38.99414v2c0 35.36853-3.62515 38.99414-38.92188 38.99414z" opacity=".2"/>
</svg>
