<svg height="256" viewBox="0 0 67.733332 67.733335" width="256" xmlns="http://www.w3.org/2000/svg" xmlns:xlink="http://www.w3.org/1999/xlink"><filter id="a" color-interpolation-filters="sRGB" height="1.172261" width="1.188467" x="-.094234" y="-.08613"><feGaussianBlur stdDeviation="1.3992409"/></filter><filter id="b" color-interpolation-filters="sRGB" height="1.026611" width="1.021856" x="-.010928" y="-.013306"><feGaussianBlur stdDeviation=".28190143"/></filter><filter id="c" color-interpolation-filters="sRGB" height="1.106445" width="1.087422" x="-.043711" y="-.053222"><feGaussianBlur stdDeviation="1.1276057"/></filter><filter id="d" color-interpolation-filters="sRGB" height="1.02376" width="1.024245" x="-.012122" y="-.01188"><feGaussianBlur stdDeviation=".62507427"/></filter><filter id="e" color-interpolation-filters="sRGB" height="1.104654" width="1.054877" x="-.027439" y="-.052327"><feGaussianBlur stdDeviation=".37794173"/></filter><g transform="translate(0 -229.26665)"><g fill="#131519"><path d="m33.866665 236.43112c-6.415232 0-12.265767 2.00287-16.581547 5.36596-4.315778 3.36308-7.119331 8.17506-7.119331 13.52825v1.93475c-4.2849238 2.17103-7.2553703 7.86605-7.2553703 14.54099 0 8.54394 4.8608326 15.47812 11.1249013 15.47812v-31.95386c0-4.00889 2.074959-7.69841 5.638028-10.47497 3.563067-2.7765 8.594399-4.54969 14.193319-4.54969 5.598919 0 10.630253 1.77319 14.193319 4.54969 3.563072 2.77656 5.638031 6.46608 5.638031 10.47497v31.95386c6.264071 0 11.124902-6.93418 11.124902-15.47812 0-6.67494-2.970451-12.36996-7.255372-14.54099v-1.93475c0-5.35319-2.803554-10.16517-7.119333-13.52825-4.315781-3.36309-10.166313-5.36596-16.581547-5.36596zm-18.380273 20.37549v30.47258c.967383 0 1.934765-.4837 2.418457-1.45108v-28.0541c-.483692-.48369-1.451074-.9674-2.418457-.9674zm36.760547 0c-.967382 0-1.934764.48371-2.418458.9674v28.0541c.483694.96738 1.451076 1.45108 2.418458 1.45108z" filter="url(#c)" opacity=".1"/><path d="m33.866665 236.43112c-6.415232 0-12.265767 2.00287-16.581547 5.36596-4.315778 3.36308-7.119331 8.17506-7.119331 13.52825v1.93475c-4.2849238 2.17103-7.2553703 7.86605-7.2553703 14.54099 0 8.54394 4.8608326 15.47812 11.1249013 15.47812v-31.95386c0-4.00889 2.074959-7.69841 5.638028-10.47497 3.563067-2.7765 8.594399-4.54969 14.193319-4.54969 5.598919 0 10.630253 1.77319 14.193319 4.54969 3.563072 2.77656 5.638031 6.46608 5.638031 10.47497v31.95386c6.264071 0 11.124902-6.93418 11.124902-15.47812 0-6.67494-2.970451-12.36996-7.255372-14.54099v-1.93475c0-5.35319-2.803554-10.16517-7.119333-13.52825-4.315781-3.36309-10.166313-5.36596-16.581547-5.36596zm-18.380273 20.37549v30.47258c.967383 0 1.934765-.4837 2.418457-1.45108v-28.0541c-.483692-.48369-1.451074-.9674-2.418457-.9674zm36.760547 0c-.967382 0-1.934764.48371-2.418458.9674v28.0541c.483694.96738 1.451076 1.45108 2.418458 1.45108z" filter="url(#b)" opacity=".1"/><path d="m33.866665 236.43112c-6.415232 0-12.265767 2.00287-16.581547 5.36596-4.315778 3.36308-7.119331 8.17506-7.119331 13.52825v1.93475c-4.2849238 2.17103-7.2553703 7.86605-7.2553703 14.54099 0 8.54394 4.8608326 15.47812 11.1249013 15.47812v-31.95386c0-4.00889 2.074959-7.69841 5.638028-10.47497 3.563067-2.7765 8.594399-4.54969 14.193319-4.54969 5.598919 0 10.630253 1.77319 14.193319 4.54969 3.563072 2.77656 5.638031 6.46608 5.638031 10.47497v31.95386c6.264071 0 11.124902-6.93418 11.124902-15.47812 0-6.67494-2.970451-12.36996-7.255372-14.54099v-1.93475c0-5.35319-2.803554-10.16517-7.119333-13.52825-4.315781-3.36309-10.166313-5.36596-16.581547-5.36596zm-18.380273 20.37549v30.47258c.967383 0 1.934765-.4837 2.418457-1.45108v-28.0541c-.483692-.48369-1.451074-.9674-2.418457-.9674zm36.760547 0c-.967382 0-1.934764.48371-2.418458.9674v28.0541c.483694.96738 1.451076 1.45108 2.418458 1.45108z" opacity=".1"/></g><path d="m32.679376 250.27812c-1.096943 2.74529-2.153503 7.28833-3.429517 2.06195-.956942-3.71217-3.001761 2.32623-4.488791 3.36135-2.999146 2.27983-4.658995 5.49245-5.991022 8.93424-3.527204-2.99921-2.204185 1.81428-2.420314 4.16832.192279 3.5287-.382714 7.38743.283864 10.71212 2.799076 2.43899 4.823835 6.28852 8.989012 6.23892 2.849129.9903 2.49229-3.31795 5.075697.25709 2.377483 3.25865 3.845721 1.35337 5.397643-.24968 2.26769 3.47118 2.962232-4.15329 4.875242-.73339 2.956573 1.15038 5.607537 1.698 6.092608-2.20414.607153-3.0819 5.905826-3.14437 4.66434-6.84963-.173154-3.84429.343916-7.96299-.253984-11.63841-2.006772-1.56625-3.555085-5.18305-5.841619-5.498-2.829084 1.37292-1.739019-4.6803-2.90324-6.46203-.38065-4.67851-1.382776-2.56307-2.472241.64531-.602809 4.61888-3.136906 2.41705-4.431316-.60591-1.151477-.96806-2.463578-6.08296-3.146362-2.13811z" fill="#fee581" fill-rule="evenodd" filter="url(#a)" transform="matrix(1.0030731 0 0 1.0030731 -.335756 -.867403)"/><path d="m3.1580045 60.068928 6.9365115 24.908382.472944-23.174254 5.360032 8.670639 3.468256-35.628445 3.783551 43.82614 4.72944-10.877711 2.522368-43.826141 3.625904 43.195549 3.783551 6.148272 5.202384-63.3744912 10.562415 73.7792582 10.562415-80.7157695s2.36472 74.0945545 2.049424 71.8874825 11.350659-51.866189 11.350659-51.866189l6.93651 48.397933s2.83766-11.823599 2.99531-12.611839 6.46357-47.294396 6.46357-47.294396 5.67533 63.532139 6.148271 61.482715c.47294-2.049424 9.93182-36.416686 9.61653-35.31315-.3153 1.103536 1.73412 26.327214 1.73412 26.327214s5.04474 8.355344 4.72944 7.251808c-.31529-1.103536 2.20708-24.120142 2.20708-24.120142l2.04942 29.637822 5.83298-13.557727.47294 34.367261-6.30592-10.720063s-1.41883 15.922444-1.57648 15.291854c-.15765-.6306-5.51768-16.868334-5.51768-16.868334s-8.51299 40.042584-8.82829 39.096694c-.31529-.94588-1.73413-41.146118-1.73413-41.146118l-5.360031 10.247119-2.20707 32.317839-8.67064-42.092014s-9.45888 40.988474-9.45888 39.884934c0-1.10353-3.31061-37.362566-3.31061-37.362566l-10.562411 43.037896-4.098847-42.564952-3.783552 9.301231-.472944 27.273101-12.138895-44.299084-4.887088 39.884934-5.202383-29.480166-3.783552-3.9412-.472944 32.790776-8.040047-31.68724-.630592 32.00254-5.832976-25.066029-1.734128 19.548349-5.2023845-17.341277-3.941199-3.310608z" fill="#ff7901" filter="url(#d)" transform="matrix(.26539641 0 0 .26539641 17.005631 251.64852)"/><path d="m17.842114 270.4 1.664314 2.97016.179234-3.04697s1.331452 1.40826 1.38266 1.25463c.05121-.15363.99859-4.73689.99859-4.73689l.998588 5.8379 1.177824-1.28024.79375-6.04274 1.101008 5.94032.921774.66573 1.382659-8.50081 2.944558 9.80665 2.688509-10.80524.64012 9.37137 2.995767-6.81088 1.869153 6.70846s2.38125-8.09113 2.43246-7.98871 1.689919 8.14234 1.689919 8.14234l2.586089-4.71129.435282 3.61028 1.280242 1.0242.563306-3.27742s.435282 3.94314.563306 3.81512 1.715524-1.68992 1.715524-1.68992v4.7369l-1.741128-1.40827-.230444 2.02278-1.664314-2.30443-2.278832 5.3258-.563306-5.55625-1.536289 1.43387s-.486492 4.42964-.460888 4.27601c.02561-.15363-2.304435-5.73548-2.304435-5.73548l-2.458065 5.50504-.921775-4.91613-2.86774 5.76109-1.0498-5.76109-.921774.89617-.256049 3.7127-3.200604-5.60746-1.305847 5.06976-1.382662-3.86633-1.075402-.38408-.05121 4.37843-2.150806-4.17359-.256048 4.12238-1.433872-3.12379-.460888 2.30444-1.53629-2.27883s-.998588-.0256-.947378-.17924c.05121-.15363.05121-4.50645.05121-4.50645z" fill="#f22c42" filter="url(#e)"/><path d="m33.866567 236.60124c-6.360381 0-12.160893 1.98575-16.439772 5.32008-4.278878 3.33433-7.05846 8.10516-7.05846 13.41258v1.91821c-4.2482864 2.15247-7.193335 7.79879-7.193335 14.41666 0 8.47089 4.8192716 15.34578 11.029781 15.34578v-31.68065c0-3.97461 2.057218-7.63259 5.589822-10.38541 3.532602-2.75276 8.520915-4.51079 14.071964-4.51079 5.551047 0 10.539362 1.75803 14.071963 4.51079 3.532607 2.75282 5.589825 6.4108 5.589825 10.38541v31.68065c6.210512 0 11.029782-6.87489 11.029782-15.34578 0-6.61787-2.945053-12.26419-7.193337-14.41666v-1.91821c0-5.30742-2.779583-10.07825-7.058462-13.41258-4.27888-3.33433-10.079389-5.32008-16.439771-5.32008zm-18.223119 20.20128v30.21203c.959112 0 1.918223-.47956 2.397779-1.43867v-27.81424c-.479556-.47955-1.438667-.95912-2.397779-.95912zm36.446238 0c-.959111 0-1.918222.47957-2.39778.95912v27.81424c.479558.95911 1.438669 1.43867 2.39778 1.43867z" fill="#234db8"/><path d="m33.86669 236.60125c-6.360382 0-12.161186 1.98552-16.440065 5.31985-4.278878 3.33433-7.058404 8.10547-7.058404 13.41289v.53079c0-5.30742 2.779526-10.07856 7.058404-13.41289 4.278879-3.33433 10.079683-5.31985 16.440065-5.31985 6.360381 0 12.160665 1.98552 16.439545 5.31985 4.278878 3.33433 7.058404 8.10547 7.058404 13.41289v-.53079c0-5.30742-2.779526-10.07856-7.058404-13.41289-4.27888-3.33433-10.079164-5.31985-16.439545-5.31985zm-18.223197 20.20123v.53079c.959111 0 1.918342.4794 2.397898.95895v-.53079c-.479556-.47955-1.438787-.95895-2.397898-.95895zm36.446392 0c-.959111 0-1.918341.4794-2.397899.95895v.53079c.479558-.47955 1.438788-.95895 2.397899-.95895zm-41.721664.44941c-4.2482865 2.15248-7.193176 7.79907-7.193176 14.41693 0 .0767.00336.15221.00415.2286.088345-6.48678 3.005729-11.99519 7.189029-14.11474zm46.996418 0v.53079c4.185081 2.12046 7.103582 7.63265 7.189546 14.12303.000847-.0791.0041-.15745.0041-.23689 0-6.61786-2.945412-12.26445-7.193694-14.41693z" fill="#fff" opacity=".3"/><path d="m33.86669 239.90678c-5.55105 0-10.53963 1.75794-14.072231 4.51071-3.532604 2.75281-5.589912 6.41109-5.589912 10.3857v.5308c0-3.97462 2.057308-7.6329 5.589912-10.38571 3.532601-2.75276 8.521181-4.5107 14.072231-4.5107 5.551047 0 10.539109 1.75794 14.07171 4.5107 3.532607 2.75281 5.589912 6.41109 5.589912 10.38571v-.5308c0-3.97461-2.057305-7.63289-5.589912-10.3857-3.532601-2.75277-8.520663-4.51071-14.07171-4.51071zm-30.6874982 31.45985c-.00137.10077-.00415.20096-.00415.30219 0 8.4709 4.8189929 15.34583 11.0295022 15.34583v-.53079c-6.1543116 0-10.9392054-6.75205-11.0253554-15.11723zm61.3749932.008c-.08923 8.36135-4.873596 15.10894-11.025873 15.10894v.53079c6.210513 0 11.030021-6.87493 11.030021-15.34583 0-.0984-.0028-.19588-.0041-.2939zm-46.512794 13.66999c-.479556.95911-1.438787 1.43895-2.397898 1.43895v.53079c.959111 0 1.918342-.47984 2.397898-1.43895zm31.650595 0v.53079c.479558.95911 1.438788 1.43895 2.397899 1.43895v-.53079c-.959111 0-1.918341-.47984-2.397899-1.43895z" opacity=".2"/></g></svg>