<svg enable-background="new" height="256" viewBox="0 0 256 256" width="256" xmlns="http://www.w3.org/2000/svg" xmlns:xlink="http://www.w3.org/1999/xlink">
  <filter id="filter11191" color-interpolation-filters="sRGB" height="1.024" width="1.024" x="-.01" y="-.01">
    <feGaussianBlur stdDeviation="1.12"/>
  </filter>
  <filter id="filter11210" color-interpolation-filters="sRGB" height="1.096" width="1.096" x="-.05" y="-.05">
    <feGaussianBlur stdDeviation="4.48"/>
  </filter>
  <circle cx="128.752" cy="127.248" filter="url(#filter11210)" opacity=".1" r="112"/>
  <circle cx="128.752" cy="125.248" filter="url(#filter11191)" opacity=".1" r="112"/>
  <circle cx="128.752" cy="123.248" opacity=".1" r="114"/>
  <rect fill="#d5d3cf" height="212.8" rx="104.533" width="209.067" x="24.18" y="19.55"/>
  <path d="m240.752 123.248a112 112 0 0 1 -111.99997 111.99999 112 112 0 0 1 -112.000031-111.99999 112 112 0 0 1 112.000031-112.000004 112 112 0 0 1 111.99997 112.000004z" fill="#3d3846"/>
  <path d="m130.75384 85.072878c-.64902.01867-1.3045.05115-1.9724.08027-7.93202.344232-21.96857.06235-27.44218 6.522395-3.344792 3.94759-1.786012 13.126557 3.3396 14.080217 6.38536 1.18809 17.18242-1.75943 24.10259-1.03542 4.82509.50478 6.2372 4.38595 2.30781 7.08021-4.16059 2.85268-13.60632 1.98699-18.375 3.41979-16.486792 4.95359-22.411892 15.448-18.375002 29.66978 2.63226 9.27353 11.947732 16.15782 22.111972 16.54844 19.55257-.0429 15.90763-9.91003 25.37501-4.77604 3.11565 3.59606 9.39362 4.7544 12.64739 2.22761 5.23128-4.06254 13.12232-6.23988 7.55782-14.55416-2.66478-3.98157 3.54541-9.14135 2.14739-28.95521-1.24021-17.576931-12.48768-29.633209-31.5-30.307823-.63373-.02259-1.27596-.01867-1.925 0zm-.61979 42.477612c4.40367 0 7.875 3.083 7.875 6.91979 0 3.83678-3.47133 7-7.875 7-4.40365 0-8.03542-3.16322-8.03542-7 0-3.83679 3.63177-6.91979 8.03542-6.91979z" fill="#f6f5f4"/>
  <path d="m128.752 11.248007a112 112 0 0 0 -112 111.999993 112 112 0 0 0 .04102 1.16992 112 112 0 0 1 111.95898-111.169913 112 112 0 0 1 111.95898 110.830073 112 112 0 0 0 .041-.83008 112 112 0 0 0 -112-111.999993z" fill="#fff" opacity=".3"/>
  <path d="m128.752 235.248a112 112 0 0 1 -112-112 112 112 0 0 1 .04102-1.16992 112 112 0 0 0 111.95898 111.16992 112 112 0 0 0 111.95898-110.83008 112 112 0 0 1 .041.83008 112 112 0 0 1 -112 112z" opacity=".2"/>
</svg>
