<?xml version="1.0" encoding="UTF-8" standalone="no"?>
<!-- Created with Inkscape (http://www.inkscape.org/) -->

<svg
   xmlns:dc="http://purl.org/dc/elements/1.1/"
   xmlns:cc="http://creativecommons.org/ns#"
   xmlns:rdf="http://www.w3.org/1999/02/22-rdf-syntax-ns#"
   xmlns:svg="http://www.w3.org/2000/svg"
   xmlns="http://www.w3.org/2000/svg"
   xmlns:sodipodi="http://sodipodi.sourceforge.net/DTD/sodipodi-0.dtd"
   xmlns:inkscape="http://www.inkscape.org/namespaces/inkscape"
   width="256"
   height="256"
   viewBox="0 0 67.733332 67.733335"
   version="1.1"
   id="svg931"
   inkscape:version="0.92.4 (5da689c313, 2019-01-14)"
   sodipodi:docname="audacity.svg">
  <defs
     id="defs925">
    <filter
       inkscape:collect="always"
       style="color-interpolation-filters:sRGB"
       id="filter1835"
       x="-0.094233639"
       width="1.1884673"
       y="-0.086130415"
       height="1.1722608">
      <feGaussianBlur
         inkscape:collect="always"
         stdDeviation="1.3992409"
         id="feGaussianBlur1837" />
    </filter>
    <filter
       inkscape:collect="always"
       style="color-interpolation-filters:sRGB"
       id="filter1874"
       x="-0.010927735"
       width="1.0218555"
       y="-0.013305587"
       height="1.0266112">
      <feGaussianBlur
         inkscape:collect="always"
         stdDeviation="0.28190143"
         id="feGaussianBlur1876" />
    </filter>
    <filter
       inkscape:collect="always"
       style="color-interpolation-filters:sRGB"
       id="filter1900"
       x="-0.043710942"
       width="1.0874219"
       y="-0.053222348"
       height="1.1064447">
      <feGaussianBlur
         inkscape:collect="always"
         stdDeviation="1.1276057"
         id="feGaussianBlur1902" />
    </filter>
    <filter
       inkscape:collect="always"
       style="color-interpolation-filters:sRGB"
       id="filter834"
       x="-0.012122293"
       width="1.0242446"
       y="-0.01188015"
       height="1.0237603">
      <feGaussianBlur
         inkscape:collect="always"
         stdDeviation="0.62507427"
         id="feGaussianBlur836" />
    </filter>
    <filter
       inkscape:collect="always"
       style="color-interpolation-filters:sRGB"
       id="filter851"
       x="-0.027438653"
       width="1.0548773"
       y="-0.052326931"
       height="1.1046539">
      <feGaussianBlur
         inkscape:collect="always"
         stdDeviation="0.37794173"
         id="feGaussianBlur853" />
    </filter>
  </defs>
  <sodipodi:namedview
     id="base"
     pagecolor="#ffffff"
     bordercolor="#666666"
     borderopacity="1.0"
     inkscape:pageopacity="0.0"
     inkscape:pageshadow="2"
     inkscape:zoom="3.2773438"
     inkscape:cx="57.061166"
     inkscape:cy="128"
     inkscape:document-units="mm"
     inkscape:current-layer="layer1"
     showgrid="false"
     units="px"
     inkscape:window-width="1920"
     inkscape:window-height="1016"
     inkscape:window-x="0"
     inkscape:window-y="27"
     inkscape:window-maximized="1" />
  <metadata
     id="metadata928">
    <rdf:RDF>
      <cc:Work
         rdf:about="">
        <dc:format>image/svg+xml</dc:format>
        <dc:type
           rdf:resource="http://purl.org/dc/dcmitype/StillImage" />
        <dc:title />
      </cc:Work>
    </rdf:RDF>
  </metadata>
  <g
     inkscape:label="Livello 1"
     inkscape:groupmode="layer"
     id="layer1"
     transform="translate(0,-229.26665)">
    <path
       style="display:inline;overflow:visible;visibility:visible;fill:#131519;fill-opacity:1;fill-rule:nonzero;stroke:none;stroke-width:9.18529892;marker:none;enable-background:accumulate;opacity:0.1;filter:url(#filter1900)"
       id="path1878"
       d="m 33.866665,236.43112 c -6.415232,0 -12.265767,2.00287 -16.581547,5.36596 -4.315778,3.36308 -7.119331,8.17506 -7.119331,13.52825 v 1.93475 c -4.2849238,2.17103 -7.2553703,7.86605 -7.2553703,14.54099 0,8.54394 4.8608326,15.47812 11.1249013,15.47812 v -31.95386 c 0,-4.00889 2.074959,-7.69841 5.638028,-10.47497 3.563067,-2.7765 8.594399,-4.54969 14.193319,-4.54969 5.598919,0 10.630253,1.77319 14.193319,4.54969 3.563072,2.77656 5.638031,6.46608 5.638031,10.47497 v 31.95386 c 6.264071,0 11.124902,-6.93418 11.124902,-15.47812 0,-6.67494 -2.970451,-12.36996 -7.255372,-14.54099 v -1.93475 c 0,-5.35319 -2.803554,-10.16517 -7.119333,-13.52825 -4.315781,-3.36309 -10.166313,-5.36596 -16.581547,-5.36596 z m -18.380273,20.37549 v 30.47258 c 0.967383,0 1.934765,-0.4837 2.418457,-1.45108 v -28.0541 c -0.483692,-0.48369 -1.451074,-0.9674 -2.418457,-0.9674 z m 36.760547,0 c -0.967382,0 -1.934764,0.48371 -2.418458,0.9674 v 28.0541 c 0.483694,0.96738 1.451076,1.45108 2.418458,1.45108 z"
       inkscape:connector-curvature="0" />
    <path
       inkscape:connector-curvature="0"
       d="m 33.866665,236.43112 c -6.415232,0 -12.265767,2.00287 -16.581547,5.36596 -4.315778,3.36308 -7.119331,8.17506 -7.119331,13.52825 v 1.93475 c -4.2849238,2.17103 -7.2553703,7.86605 -7.2553703,14.54099 0,8.54394 4.8608326,15.47812 11.1249013,15.47812 v -31.95386 c 0,-4.00889 2.074959,-7.69841 5.638028,-10.47497 3.563067,-2.7765 8.594399,-4.54969 14.193319,-4.54969 5.598919,0 10.630253,1.77319 14.193319,4.54969 3.563072,2.77656 5.638031,6.46608 5.638031,10.47497 v 31.95386 c 6.264071,0 11.124902,-6.93418 11.124902,-15.47812 0,-6.67494 -2.970451,-12.36996 -7.255372,-14.54099 v -1.93475 c 0,-5.35319 -2.803554,-10.16517 -7.119333,-13.52825 -4.315781,-3.36309 -10.166313,-5.36596 -16.581547,-5.36596 z m -18.380273,20.37549 v 30.47258 c 0.967383,0 1.934765,-0.4837 2.418457,-1.45108 v -28.0541 c -0.483692,-0.48369 -1.451074,-0.9674 -2.418457,-0.9674 z m 36.760547,0 c -0.967382,0 -1.934764,0.48371 -2.418458,0.9674 v 28.0541 c 0.483694,0.96738 1.451076,1.45108 2.418458,1.45108 z"
       id="path1868"
       style="display:inline;overflow:visible;visibility:visible;fill:#131519;fill-opacity:1;fill-rule:nonzero;stroke:none;stroke-width:9.18529892;marker:none;enable-background:accumulate;opacity:0.1;filter:url(#filter1874)" />
    <path
       style="display:inline;overflow:visible;visibility:visible;fill:#131519;fill-opacity:1;fill-rule:nonzero;stroke:none;stroke-width:9.18529892;marker:none;enable-background:accumulate;opacity:0.1"
       id="path1866"
       d="m 33.866665,236.43112 c -6.415232,0 -12.265767,2.00287 -16.581547,5.36596 -4.315778,3.36308 -7.119331,8.17506 -7.119331,13.52825 v 1.93475 c -4.2849238,2.17103 -7.2553703,7.86605 -7.2553703,14.54099 0,8.54394 4.8608326,15.47812 11.1249013,15.47812 v -31.95386 c 0,-4.00889 2.074959,-7.69841 5.638028,-10.47497 3.563067,-2.7765 8.594399,-4.54969 14.193319,-4.54969 5.598919,0 10.630253,1.77319 14.193319,4.54969 3.563072,2.77656 5.638031,6.46608 5.638031,10.47497 v 31.95386 c 6.264071,0 11.124902,-6.93418 11.124902,-15.47812 0,-6.67494 -2.970451,-12.36996 -7.255372,-14.54099 v -1.93475 c 0,-5.35319 -2.803554,-10.16517 -7.119333,-13.52825 -4.315781,-3.36309 -10.166313,-5.36596 -16.581547,-5.36596 z m -18.380273,20.37549 v 30.47258 c 0.967383,0 1.934765,-0.4837 2.418457,-1.45108 v -28.0541 c -0.483692,-0.48369 -1.451074,-0.9674 -2.418457,-0.9674 z m 36.760547,0 c -0.967382,0 -1.934764,0.48371 -2.418458,0.9674 v 28.0541 c 0.483694,0.96738 1.451076,1.45108 2.418458,1.45108 z"
       inkscape:connector-curvature="0" />
    <path
       inkscape:connector-curvature="0"
       d="m 32.679376,250.27812 c -1.096943,2.74529 -2.153503,7.28833 -3.429517,2.06195 -0.956942,-3.71217 -3.001761,2.32623 -4.488791,3.36135 -2.999146,2.27983 -4.658995,5.49245 -5.991022,8.93424 -3.527204,-2.99921 -2.204185,1.81428 -2.420314,4.16832 0.192279,3.5287 -0.382714,7.38743 0.283864,10.71212 2.799076,2.43899 4.823835,6.28852 8.989012,6.23892 2.849129,0.9903 2.49229,-3.31795 5.075697,0.25709 2.377483,3.25865 3.845721,1.35337 5.397643,-0.24968 2.26769,3.47118 2.962232,-4.15329 4.875242,-0.73339 2.956573,1.15038 5.607537,1.698 6.092608,-2.20414 0.607153,-3.0819 5.905826,-3.14437 4.66434,-6.84963 -0.173154,-3.84429 0.343916,-7.96299 -0.253984,-11.63841 -2.006772,-1.56625 -3.555085,-5.18305 -5.841619,-5.498 -2.829084,1.37292 -1.739019,-4.6803 -2.90324,-6.46203 -0.38065,-4.67851 -1.382776,-2.56307 -2.472241,0.64531 -0.602809,4.61888 -3.136906,2.41705 -4.431316,-0.60591 -1.151477,-0.96806 -2.463578,-6.08296 -3.146362,-2.13811 z"
       id="path3178"
       style="display:inline;fill:#fee581;fill-opacity:1;fill-rule:evenodd;stroke:none;stroke-width:0.47808659;filter:url(#filter1835)"
       transform="matrix(1.0030731,0,0,1.0030731,-0.33575577,-0.86740295)" />
    <path
       style="fill:#ff7901;fill-opacity:1;stroke:none;stroke-width:1px;stroke-linecap:butt;stroke-linejoin:miter;stroke-opacity:1;filter:url(#filter834)"
       d="m 3.1580045,60.068928 6.9365115,24.908382 0.472944,-23.174254 5.360032,8.670639 3.468256,-35.628445 3.783551,43.82614 4.72944,-10.877711 2.522368,-43.826141 3.625904,43.195549 3.783551,6.148272 L 43.042946,9.9368678 53.605361,83.716126 64.167776,3.0003565 c 0,0 2.36472,74.0945545 2.049424,71.8874825 C 65.901904,72.680767 77.567859,23.02165 77.567859,23.02165 l 6.93651,48.397933 c 0,0 2.83766,-11.823599 2.99531,-12.611839 0.15765,-0.78824 6.46357,-47.294396 6.46357,-47.294396 0,0 5.67533,63.532139 6.148271,61.482715 0.47294,-2.049424 9.93182,-36.416686 9.61653,-35.31315 -0.3153,1.103536 1.73412,26.327214 1.73412,26.327214 0,0 5.04474,8.355344 4.72944,7.251808 -0.31529,-1.103536 2.20708,-24.120142 2.20708,-24.120142 l 2.04942,29.637822 5.83298,-13.557727 0.47294,34.367261 -6.30592,-10.720063 c 0,0 -1.41883,15.922444 -1.57648,15.291854 -0.15765,-0.6306 -5.51768,-16.868334 -5.51768,-16.868334 0,0 -8.51299,40.042584 -8.82829,39.096694 -0.31529,-0.94588 -1.73413,-41.146118 -1.73413,-41.146118 l -5.360031,10.247119 -2.20707,32.317839 -8.67064,-42.092014 c 0,0 -9.45888,40.988474 -9.45888,39.884934 0,-1.10353 -3.31061,-37.362566 -3.31061,-37.362566 L 63.221888,129.27639 59.123041,86.711438 55.339489,96.012669 54.866545,123.28577 42.72765,78.986686 37.840562,118.87162 32.638179,89.391454 28.854627,85.450254 28.381683,118.24103 20.341636,86.55379 19.711044,118.55633 13.878068,93.490301 12.14394,113.03865 6.9415555,95.697373 3.0003565,92.386765 Z"
       id="path817"
       inkscape:connector-curvature="0"
       transform="matrix(0.26539641,0,0,0.26539641,17.005631,251.64852)" />
    <path
       style="fill:#f22c42;fill-opacity:1;stroke:none;stroke-width:0.26458332px;stroke-linecap:butt;stroke-linejoin:miter;stroke-opacity:1;filter:url(#filter851)"
       d="m 17.842114,270.4 1.664314,2.97016 0.179234,-3.04697 c 0,0 1.331452,1.40826 1.38266,1.25463 0.05121,-0.15363 0.99859,-4.73689 0.99859,-4.73689 l 0.998588,5.8379 1.177824,-1.28024 0.79375,-6.04274 1.101008,5.94032 0.921774,0.66573 1.382659,-8.50081 2.944558,9.80665 2.688509,-10.80524 0.64012,9.37137 2.995767,-6.81088 1.869153,6.70846 c 0,0 2.38125,-8.09113 2.43246,-7.98871 0.05121,0.10242 1.689919,8.14234 1.689919,8.14234 l 2.586089,-4.71129 0.435282,3.61028 1.280242,1.0242 0.563306,-3.27742 c 0,0 0.435282,3.94314 0.563306,3.81512 0.128024,-0.12802 1.715524,-1.68992 1.715524,-1.68992 v 4.7369 l -1.741128,-1.40827 -0.230444,2.02278 -1.664314,-2.30443 -2.278832,5.3258 -0.563306,-5.55625 -1.536289,1.43387 c 0,0 -0.486492,4.42964 -0.460888,4.27601 0.02561,-0.15363 -2.304435,-5.73548 -2.304435,-5.73548 l -2.458065,5.50504 -0.921775,-4.91613 -2.86774,5.76109 -1.0498,-5.76109 -0.921774,0.89617 -0.256049,3.7127 -3.200604,-5.60746 -1.305847,5.06976 -1.382662,-3.86633 -1.075402,-0.38408 -0.05121,4.37843 -2.150806,-4.17359 -0.256048,4.12238 -1.433872,-3.12379 -0.460888,2.30444 -1.53629,-2.27883 c 0,0 -0.998588,-0.0256 -0.947378,-0.17924 0.05121,-0.15363 0.05121,-4.50645 0.05121,-4.50645 z"
       id="path847"
       inkscape:connector-curvature="0" />
    <path
       inkscape:connector-curvature="0"
       d="m 33.866567,236.60124 c -6.360381,0 -12.160893,1.98575 -16.439772,5.32008 -4.278878,3.33433 -7.05846,8.10516 -7.05846,13.41258 v 1.91821 C 6.1200486,259.40458 3.175,265.0509 3.175,271.66877 c 0,8.47089 4.8192716,15.34578 11.029781,15.34578 V 255.3339 c 0,-3.97461 2.057218,-7.63259 5.589822,-10.38541 3.532602,-2.75276 8.520915,-4.51079 14.071964,-4.51079 5.551047,0 10.539362,1.75803 14.071963,4.51079 3.532607,2.75282 5.589825,6.4108 5.589825,10.38541 v 31.68065 c 6.210512,0 11.029782,-6.87489 11.029782,-15.34578 0,-6.61787 -2.945053,-12.26419 -7.193337,-14.41666 v -1.91821 c 0,-5.30742 -2.779583,-10.07825 -7.058462,-13.41258 -4.27888,-3.33433 -10.079389,-5.32008 -16.439771,-5.32008 z m -18.223119,20.20128 v 30.21203 c 0.959112,0 1.918223,-0.47956 2.397779,-1.43867 v -27.81424 c -0.479556,-0.47955 -1.438667,-0.95912 -2.397779,-0.95912 z m 36.446238,0 c -0.959111,0 -1.918222,0.47957 -2.39778,0.95912 v 27.81424 c 0.479558,0.95911 1.438669,1.43867 2.39778,1.43867 z"
       id="path2127"
       style="display:inline;overflow:visible;visibility:visible;fill:#234db8;fill-opacity:1;fill-rule:nonzero;stroke:none;stroke-width:9.10676289;marker:none;enable-background:accumulate" />
    <path
       style="display:inline;overflow:visible;visibility:visible;opacity:0.3;fill:#ffffff;fill-opacity:1;fill-rule:nonzero;stroke:none;stroke-width:9.10676289;marker:none;enable-background:accumulate"
       d="m 33.86669,236.60125 c -6.360382,0 -12.161186,1.98552 -16.440065,5.31985 -4.278878,3.33433 -7.058404,8.10547 -7.058404,13.41289 v 0.53079 c 0,-5.30742 2.779526,-10.07856 7.058404,-13.41289 4.278879,-3.33433 10.079683,-5.31985 16.440065,-5.31985 6.360381,0 12.160665,1.98552 16.439545,5.31985 4.278878,3.33433 7.058404,8.10547 7.058404,13.41289 v -0.53079 c 0,-5.30742 -2.779526,-10.07856 -7.058404,-13.41289 -4.27888,-3.33433 -10.079164,-5.31985 -16.439545,-5.31985 z m -18.223197,20.20123 v 0.53079 c 0.959111,0 1.918342,0.4794 2.397898,0.95895 v -0.53079 c -0.479556,-0.47955 -1.438787,-0.95895 -2.397898,-0.95895 z m 36.446392,0 c -0.959111,0 -1.918341,0.4794 -2.397899,0.95895 v 0.53079 c 0.479558,-0.47955 1.438788,-0.95895 2.397899,-0.95895 z m -41.721664,0.44941 c -4.2482865,2.15248 -7.193176,7.79907 -7.193176,14.41693 0,0.0767 0.00336,0.15221 0.00415,0.2286 0.088345,-6.48678 3.005729,-11.99519 7.189029,-14.11474 z m 46.996418,0 v 0.53079 c 4.185081,2.12046 7.103582,7.63265 7.189546,14.12303 8.47e-4,-0.0791 0.0041,-0.15745 0.0041,-0.23689 0,-6.61786 -2.945412,-12.26445 -7.193694,-14.41693 z"
       id="path1839"
       inkscape:connector-curvature="0" />
    <path
       style="display:inline;overflow:visible;visibility:visible;opacity:0.2;fill:#000000;fill-opacity:1;fill-rule:nonzero;stroke:none;stroke-width:9.10676289;marker:none;enable-background:accumulate"
       d="m 33.86669,239.90678 c -5.55105,0 -10.53963,1.75794 -14.072231,4.51071 -3.532604,2.75281 -5.589912,6.41109 -5.589912,10.3857 v 0.5308 c 0,-3.97462 2.057308,-7.6329 5.589912,-10.38571 3.532601,-2.75276 8.521181,-4.5107 14.072231,-4.5107 5.551047,0 10.539109,1.75794 14.07171,4.5107 3.532607,2.75281 5.589912,6.41109 5.589912,10.38571 v -0.5308 c 0,-3.97461 -2.057305,-7.63289 -5.589912,-10.3857 -3.532601,-2.75277 -8.520663,-4.51071 -14.07171,-4.51071 z M 3.1791918,271.36663 c -0.00137,0.10077 -0.00415,0.20096 -0.00415,0.30219 0,8.4709 4.8189929,15.34583 11.0295022,15.34583 v -0.53079 c -6.1543116,0 -10.9392054,-6.75205 -11.0253554,-15.11723 z m 61.3749932,0.008 c -0.08923,8.36135 -4.873596,15.10894 -11.025873,15.10894 v 0.53079 c 6.210513,0 11.030021,-6.87493 11.030021,-15.34583 0,-0.0984 -0.0028,-0.19588 -0.0041,-0.2939 z m -46.512794,13.66999 c -0.479556,0.95911 -1.438787,1.43895 -2.397898,1.43895 v 0.53079 c 0.959111,0 1.918342,-0.47984 2.397898,-1.43895 z m 31.650595,0 v 0.53079 c 0.479558,0.95911 1.438788,1.43895 2.397899,1.43895 v -0.53079 c -0.959111,0 -1.918341,-0.47984 -2.397899,-1.43895 z"
       id="path1846"
       inkscape:connector-curvature="0" />
  </g>
</svg>
