<svg height="256" viewBox="0 0 256 256" width="256" xmlns="http://www.w3.org/2000/svg" xmlns:xlink="http://www.w3.org/1999/xlink">
  <filter id="filter822" color-interpolation-filters="sRGB" height="1.024" width="1.024" x="-.01" y="-.01">
    <feGaussianBlur stdDeviation="1.13"/>
  </filter>
  <filter id="filter836" color-interpolation-filters="sRGB" height="1.095" width="1.097" x="-.05" y="-.05">
    <feGaussianBlur stdDeviation="4.52"/>
  </filter>
  <path d="m157.14595 14.563922c-4.68074.09424-10.18298 1.042604-17.23697 2.857352-7.17818 1.846707-14.07641 4.021954-15.32957 4.835271-1.2532.813298-3.28551 4.169791-4.51612 7.458834-2.99037 7.992475-21.11417 42.186532-27.248879 51.410297-1.27094 1.910906-2.26006 3.32349-3.20618 4.493868.60074-.903129 1.11037-1.698891 1.41013-2.237663-1.20789 1.685534-2.40935 3.505925-3.61438 4.560655-.47969.412572-.98286.80319-1.54743 1.183771 0 0-.004.0041-.004.0041-1.6025 1.079707-3.64899 2.115566-6.70182 3.588405-4.82191 2.32633-9.43355 5.138427-10.2457 6.249084-.29496.403401-.54558.855812-.75332 1.343344v.004c-.20709.48663-.37111 1.00686-.49353 1.54745v.004c-.36723 1.62438-.35803 3.42425 0 4.99854.11894.5252.27548 1.02469.47129 1.48435v.004c.10982.25799.25999.46755.39335.69763.10374.17878.18657.38263.30427.54179 0 0 .004.004.004.004.13415.18087.27853.34906.43046.50096v.004c.15314.15295.31516.28846.48613.40821l2.3193 1.62163-2.34527 4.83155-2.34898 4.83155-3.62922-3.18762c-1.46586-1.28704-3.12998-2.28277-4.91319-2.97985-.89053-.348-1.81197-.6209-2.75346-.82008h-.004c-.47016-.0993-.94573-.18278-1.42497-.24493h-.004c-.47925-.0621-.96134-.10506-1.44724-.12995h-.004c-.48592-.0247-.97951-.0311-1.46951-.019-.49.0133-.98502.0462-1.47692.0965-2.46533.2535-4.94684.97991-7.28442 2.18571-.46792.24146-.92848.50299-1.38415.78298-.97079.59652-1.78662 1.22251-2.49741 1.97789 0 0-.004.004-.004.004-.35405.37667-.68353.78722-.99082 1.23943-.30767.45275-.59527.9492-.86833 1.50288v.004c-.27253.55296-.53358 1.1597-.78299 1.83689v.004c-.24944.67752-.48917 1.42303-.72732 2.24879v.004c-.47705 1.6534-.94397 3.62647-1.44724 6.019-.43585 2.07194-.93065 3.98221-1.49549 5.76299-.56561 1.78052-1.20282 3.43109-1.92593 4.98367-1.08468 2.3289-2.35996 4.43634-3.88156 6.42723-.5075.6636-1.04333 1.31386-1.6068 1.95561-.58483.66609-1.07574 1.28979-1.48065 1.89626-.20261.3031-.38375.59958-.54549.89804v.004c-.1617.29858-.30308.59355-.42675.89432-.1235.30072-.22709.60299-.31542.91287v.004c-.26396.92762-.37927 1.91365-.37815 3.04562.007 7.15775 4.68229 12.33777 12.1976 14.21261 1.25259.31246 2.58371.53421 3.98548.65682 1.40189.12273 2.87419.1461 4.4085.0669 3.26818-.1689 4.95811-.23447 5.82977.0483.0473.0152.0428.0606.0853.0779.002-.009.004-.0171.007-.0261.7626.30065.83223.91763.83124 2.08921-.006 6.20136 8.19623 14.81748 14.10499 14.81748.39805 0 .6896.075.90175.24491-.18393.002-.32172.004-.50839.007.34539.0977.74007.12806.84607.53807.15618.601.0737 1.61352-.18924 3.25813-.28849 1.80411-.22627 3.47186.23379 5.10615.15333.54402.35033 1.08465.59374 1.62536.00048.001-.0005.002 0 .004.24312.53977.53231 1.07829.86834 1.62164 1.00951 1.63323 2.44639 3.29786 4.35655 5.09502.4616.43431.95112.86351 1.46208 1.28396.00073.0006.003-.00059.004 0 1.02127.84024 2.11946 1.64443 3.21731 2.36011.00085.00055.003-.00055.004 0 .54844.35743 1.09903.69656 1.6365 1.00565.91029.52365 1.77408.94762 2.57534 1.28766.14559.0618.30521.14193.4453.19668.00098.00039.003-.00038.004 0 .91063.35493 1.69993.55664 2.2859.55664.7656 0 3.51114 2.8046 6.10065 6.23424 1.74312 2.30857 3.14321 4.07749 4.53468 5.44754.00061.00061-.00061.004 0 .004.34784.34245.69474.65937 1.04647.95369.35172.29432.70642.56577 1.07243.81639.36687.25161.7439.48184 1.13553.69392.39068.21136.79509.40238 1.22087.5789 3.406709 1.41394 8.099379 1.77422 16.735999 2.182 3.82348.1805 6.83851.35111 9.40332.59745 2.31387.22221 4.24281.52313 6.08583.93141.19866.0441.41569.0719.61228.11875.001.00028.002-.00027.004 0 1.0095.24161 1.99415.52443 3.00209.85722.001.00038.002-.00037.004 0 .27222.0899.56985.21787.84608.31541 1.77104.62515 3.61925 1.37911 5.82235 2.38239 1.27341.5799 2.65719 1.23131 4.19698 1.96676 2.6218 1.25222 5.09942 2.15783 7.24361 2.68666.71468.1765 1.39278.31268 2.02613.40448.58401.0848 1.12178.12331 1.62536.13357.0426.00088.0954.0114.13737.0114 1.61028.0152 2.76008-.36536 3.25443-1.1652.13623-.22033.18714-.45953.15579-.71249-.00015-.001.00014-.002 0-.004-.0644-.50821-.46286-1.07558-1.17263-1.69586-.35494-.31019-.78991-.63522-1.2988-.96855-.001-.00084-.002-.004-.004-.004-2.03947-1.33487-5.29124-2.84086-9.60001-4.41594-4.19418-1.53318-7.62582-2.93767-7.62582-3.12083 0-.18335-.27446-1.04411-.60859-1.9148-.1146-.29868-.17021-.57718-.15214-.83866.018-.26148.10871-.5071.28945-.74217.36147-.47014 1.07917-.89556 2.27104-1.32479 1.19192-.42916 2.85897-.86093 5.121-1.33589 2.26198-.47459 5.11901-.99315 8.69084-1.59939 7.14088-1.21199 15.01903-3.10348 17.50785-4.20442 2.4888-1.1009 6.1121-2.34189 8.05257-2.75716.54761-.11722 1.05355-.24261 1.52145-.37481.46988-.13281.89863-.27262 1.29139-.42302.78058-.29895 1.41593-.63674 1.9111-1.02049.9924-.76913 1.4361-1.72694 1.4361-2.95756 0-.37716-.058-.71469-.17061-1.01308-.056-.14895-.12654-.28662-.20782-.41562-.0811-.12881-.17385-.2476-.27831-.35624-.41803-.43461-1.01583-.70807-1.73297-.80896-.71716-.10087-1.55552-.0306-2.45289.21895-.44868.12482-.91295.29569-1.38414.51209-.47148.21557-.94936.4783-1.4287.7867-1.20716.77667-2.62892 1.60036-4.12277 2.41206-1.59653.86694-3.28497 1.72405-4.93173 2.50113-3.1904 1.50483-6.20634 2.71408-8.00803 3.13568l-3.15795.73846 2.89446-2.32671c2.24251-1.80362 3.07446-4.23175 2.53453-7.14713-.077-.41628-.18278-.84083-.31543-1.27653-.26539-.87136-.64124-1.77968-1.1281-2.72379-.48643-.94327-1.0868-1.92216-1.79235-2.93158-.00055-.00078.00055-.004 0-.004-.70635-1.01035-1.52161-2.05079-2.44546-3.12085-.92384-1.07003-1.95552-2.16829-3.09485-3.29153-1.92337-1.89618-6.3096-4.82375-11.25876-7.74083-.00091-.00056-.004.00052-.004 0-4.95177-2.91851-10.464-5.82531-14.63937-7.68523-1.39049-.61939-2.63233-1.12447-3.65519-1.4732-.001-.00044-.002.00043-.004 0-.51169-.17442-.9685-.30873-1.36189-.40077-.39358-.0919-.72204-.14097-.97967-.14097-.51304 0-.93827-.0263-1.28024-.0817-.50927-.0824-.83114-.22908-.96112-.43418-.0427-.0675-.0651-.14174-.0668-.22266-.00001-.001.00001-.002 0-.004-.002-.16454.0812-.35585.24863-.57518.0164-.0215.13043-.0745.14844-.0965-.0336.0133-.0521.0232-.0853.037.71016-.87694 2.70027-2.16844 6.01161-3.88527 14.94427-7.74824 23.97785-20.87693 27.74612-40.32225 2.08468-10.75767 2.57269-13.37576 3.61438-12.50191.36224.30388.78869.99239 1.37673 1.95933 1.06449 1.75042 5.36289 5.98336 9.55548 9.40704 10.6096 8.66385 16.00273 16.72081 13.67082 20.42459-.73991 1.17521-2.67762 1.51771-7.59985 1.34335-7.05371-.24988-12.39429 1.21894-12.39429 3.40656 0 2.16039 2.93018 2.67727 8.21215 1.44724 2.71402-.63202 11.08935-1.24803 18.60997-1.3656 16.67901-.26073 19.98117-1.43966 28.10979-10.05271 5.78643-6.13132 10.22619-8.39805 16.59127-8.46819 4.60011-.0507 11.57049-3.83078 11.57049-6.27508 0-2.48049-2.15821-3.59584-6.9653-3.59584-2.44516 0-4.70477 1.26188-8.72053 4.87238-6.72938 6.05028-11.45836 7.83358-15.5745 5.86687-5.21484-2.4917-4.65624-7.75105 1.86656-17.519 2.36363-3.53955 4.00077-6.91787 3.63666-7.50707-1.15886-1.87506-9.50414-1.26381-11.40349.83496-1.4196 1.56859-1.51481 2.46286-.53807 5.05047 1.55852 4.12901.32797 12.11639-2.40093 15.58562-4.17697 5.31015-14.08088 2.12671-20.33182-6.53482-1.96921-2.7286-5.8029-6.80995-8.52015-9.06935-3.0497-2.53584-5.87316-6.1586-7.37349-9.46642-2.00419-4.41876-2.91448-6.76568-2.79798-8.94688.15428-2.887352 2.29816-5.424231 7.96351-11.492539 10.62555-11.382627 11.023-12.621022 11.45252-35.934394.27248-14.790047.19019-15.443804-2.66811-21.56383-3.43341-7.35101-9.18351-13.708302-14.40574-15.919631-3.77116-1.596879-7.6319-2.35411-12.31265-2.259909z" filter="url(#filter836)" opacity=".1"/>
  <path d="m157.14595 14.563922c-4.68074.09424-10.18298 1.042604-17.23697 2.857352-7.17818 1.846707-14.07641 4.021954-15.32957 4.835271-1.2532.813298-3.28551 4.169791-4.51612 7.458834-2.99037 7.992475-21.11417 42.186532-27.248879 51.410297-1.27094 1.910906-2.26006 3.32349-3.20618 4.493868.60074-.903129 1.11037-1.698891 1.41013-2.237663-1.20789 1.685534-2.40935 3.505925-3.61438 4.560655-.47969.412572-.98286.80319-1.54743 1.183771 0 0-.004.0041-.004.0041-1.6025 1.079707-3.64899 2.115566-6.70182 3.588405-4.82191 2.32633-9.43355 5.138427-10.2457 6.249084-.29496.403401-.54558.855812-.75332 1.343344v.004c-.20709.48663-.37111 1.00686-.49353 1.54745v.004c-.36723 1.62438-.35803 3.42425 0 4.99854.11894.5252.27548 1.02469.47129 1.48435v.004c.10982.25799.25999.46755.39335.69763.10374.17878.18657.38263.30427.54179 0 0 .004.004.004.004.13415.18087.27853.34906.43046.50096v.004c.15314.15295.31516.28846.48613.40821l2.3193 1.62163-2.34527 4.83155-2.34898 4.83155-3.62922-3.18762c-1.46586-1.28704-3.12998-2.28277-4.91319-2.97985-.89053-.348-1.81197-.6209-2.75346-.82008h-.004c-.47016-.0993-.94573-.18278-1.42497-.24493h-.004c-.47925-.0621-.96134-.10506-1.44724-.12995h-.004c-.48592-.0247-.97951-.0311-1.46951-.019-.49.0133-.98502.0462-1.47692.0965-2.46533.2535-4.94684.97991-7.28442 2.18571-.46792.24146-.92848.50299-1.38415.78298-.97079.59652-1.78662 1.22251-2.49741 1.97789 0 0-.004.004-.004.004-.35405.37667-.68353.78722-.99082 1.23943-.30767.45275-.59527.9492-.86833 1.50288v.004c-.27253.55296-.53358 1.1597-.78299 1.83689v.004c-.24944.67752-.48917 1.42303-.72732 2.24879v.004c-.47705 1.6534-.94397 3.62647-1.44724 6.019-.43585 2.07194-.93065 3.98221-1.49549 5.76299-.56561 1.78052-1.20282 3.43109-1.92593 4.98367-1.08468 2.3289-2.35996 4.43634-3.88156 6.42723-.5075.6636-1.04333 1.31386-1.6068 1.95561-.58483.66609-1.07574 1.28979-1.48065 1.89626-.20261.3031-.38375.59958-.54549.89804v.004c-.1617.29858-.30308.59355-.42675.89432-.1235.30072-.22709.60299-.31542.91287v.004c-.26396.92762-.37927 1.91365-.37815 3.04562.007 7.15775 4.68229 12.33777 12.1976 14.21261 1.25259.31246 2.58371.53421 3.98548.65682 1.40189.12273 2.87419.1461 4.4085.0669 3.26818-.1689 4.95811-.23447 5.82977.0483.0473.0152.0428.0606.0853.0779.002-.009.004-.0171.007-.0261.7626.30065.83223.91763.83124 2.08921-.006 6.20136 8.19623 14.81748 14.10499 14.81748.39805 0 .6896.075.90175.24491-.18393.002-.32172.004-.50839.007.34539.0977.74007.12806.84607.53807.15618.601.0737 1.61352-.18924 3.25813-.28849 1.80411-.22627 3.47186.23379 5.10615.15333.54402.35033 1.08465.59374 1.62536.00048.001-.0005.002 0 .004.24312.53977.53231 1.07829.86834 1.62164 1.00951 1.63323 2.44639 3.29786 4.35655 5.09502.4616.43431.95112.86351 1.46208 1.28396.00073.0006.003-.00059.004 0 1.02127.84024 2.11946 1.64443 3.21731 2.36011.00085.00055.003-.00055.004 0 .54844.35743 1.09903.69656 1.6365 1.00565.91029.52365 1.77408.94762 2.57534 1.28766.14559.0618.30521.14193.4453.19668.00098.00039.003-.00038.004 0 .91063.35493 1.69993.55664 2.2859.55664.7656 0 3.51114 2.8046 6.10065 6.23424 1.74312 2.30857 3.14321 4.07749 4.53468 5.44754.00061.00061-.00061.004 0 .004.34784.34245.69474.65937 1.04647.95369.35172.29432.70642.56577 1.07243.81639.36687.25161.7439.48184 1.13553.69392.39068.21136.79509.40238 1.22087.5789 3.406709 1.41394 8.099379 1.77422 16.735999 2.182 3.82348.1805 6.83851.35111 9.40332.59745 2.31387.22221 4.24281.52313 6.08583.93141.19866.0441.41569.0719.61228.11875.001.00028.002-.00027.004 0 1.0095.24161 1.99415.52443 3.00209.85722.001.00038.002-.00037.004 0 .27222.0899.56985.21787.84608.31541 1.77104.62515 3.61925 1.37911 5.82235 2.38239 1.27341.5799 2.65719 1.23131 4.19698 1.96676 2.6218 1.25222 5.09942 2.15783 7.24361 2.68666.71468.1765 1.39278.31268 2.02613.40448.58401.0848 1.12178.12331 1.62536.13357.0426.00088.0954.0114.13737.0114 1.61028.0152 2.76008-.36536 3.25443-1.1652.13623-.22033.18714-.45953.15579-.71249-.00015-.001.00014-.002 0-.004-.0644-.50821-.46286-1.07558-1.17263-1.69586-.35494-.31019-.78991-.63522-1.2988-.96855-.001-.00084-.002-.004-.004-.004-2.03947-1.33487-5.29124-2.84086-9.60001-4.41594-4.19418-1.53318-7.62582-2.93767-7.62582-3.12083 0-.18335-.27446-1.04411-.60859-1.9148-.1146-.29868-.17021-.57718-.15214-.83866.018-.26148.10871-.5071.28945-.74217.36147-.47014 1.07917-.89556 2.27104-1.32479 1.19192-.42916 2.85897-.86093 5.121-1.33589 2.26198-.47459 5.11901-.99315 8.69084-1.59939 7.14088-1.21199 15.01903-3.10348 17.50785-4.20442 2.4888-1.1009 6.1121-2.34189 8.05257-2.75716.54761-.11722 1.05355-.24261 1.52145-.37481.46988-.13281.89863-.27262 1.29139-.42302.78058-.29895 1.41593-.63674 1.9111-1.02049.9924-.76913 1.4361-1.72694 1.4361-2.95756 0-.37716-.058-.71469-.17061-1.01308-.056-.14895-.12654-.28662-.20782-.41562-.0811-.12881-.17385-.2476-.27831-.35624-.41803-.43461-1.01583-.70807-1.73297-.80896-.71716-.10087-1.55552-.0306-2.45289.21895-.44868.12482-.91295.29569-1.38414.51209-.47148.21557-.94936.4783-1.4287.7867-1.20716.77667-2.62892 1.60036-4.12277 2.41206-1.59653.86694-3.28497 1.72405-4.93173 2.50113-3.1904 1.50483-6.20634 2.71408-8.00803 3.13568l-3.15795.73846 2.89446-2.32671c2.24251-1.80362 3.07446-4.23175 2.53453-7.14713-.077-.41628-.18278-.84083-.31543-1.27653-.26539-.87136-.64124-1.77968-1.1281-2.72379-.48643-.94327-1.0868-1.92216-1.79235-2.93158-.00055-.00078.00055-.004 0-.004-.70635-1.01035-1.52161-2.05079-2.44546-3.12085-.92384-1.07003-1.95552-2.16829-3.09485-3.29153-1.92337-1.89618-6.3096-4.82375-11.25876-7.74083-.00091-.00056-.004.00052-.004 0-4.95177-2.91851-10.464-5.82531-14.63937-7.68523-1.39049-.61939-2.63233-1.12447-3.65519-1.4732-.001-.00044-.002.00043-.004 0-.51169-.17442-.9685-.30873-1.36189-.40077-.39358-.0919-.72204-.14097-.97967-.14097-.51304 0-.93827-.0263-1.28024-.0817-.50927-.0824-.83114-.22908-.96112-.43418-.0427-.0675-.0651-.14174-.0668-.22266-.00001-.001.00001-.002 0-.004-.002-.16454.0812-.35585.24863-.57518.0164-.0215.13043-.0745.14844-.0965-.0336.0133-.0521.0232-.0853.037.71016-.87694 2.70027-2.16844 6.01161-3.88527 14.94427-7.74824 23.97785-20.87693 27.74612-40.32225 2.08468-10.75767 2.57269-13.37576 3.61438-12.50191.36224.30388.78869.99239 1.37673 1.95933 1.06449 1.75042 5.36289 5.98336 9.55548 9.40704 10.6096 8.66385 16.00273 16.72081 13.67082 20.42459-.73991 1.17521-2.67762 1.51771-7.59985 1.34335-7.05371-.24988-12.39429 1.21894-12.39429 3.40656 0 2.16039 2.93018 2.67727 8.21215 1.44724 2.71402-.63202 11.08935-1.24803 18.60997-1.3656 16.67901-.26073 19.98117-1.43966 28.10979-10.05271 5.78643-6.13132 10.22619-8.39805 16.59127-8.46819 4.60011-.0507 11.57049-3.83078 11.57049-6.27508 0-2.48049-2.15821-3.59584-6.9653-3.59584-2.44516 0-4.70477 1.26188-8.72053 4.87238-6.72938 6.05028-11.45836 7.83358-15.5745 5.86687-5.21484-2.4917-4.65624-7.75105 1.86656-17.519 2.36363-3.53955 4.00077-6.91787 3.63666-7.50707-1.15886-1.87506-9.50414-1.26381-11.40349.83496-1.4196 1.56859-1.51481 2.46286-.53807 5.05047 1.55852 4.12901.32797 12.11639-2.40093 15.58562-4.17697 5.31015-14.08088 2.12671-20.33182-6.53482-1.96921-2.7286-5.8029-6.80995-8.52015-9.06935-3.0497-2.53584-5.87316-6.1586-7.37349-9.46642-2.00419-4.41876-2.91448-6.76568-2.79798-8.94688.15428-2.887352 2.29816-5.424231 7.96351-11.492539 10.62555-11.382627 11.023-12.621022 11.45252-35.934394.27248-14.790047.19019-15.443804-2.66811-21.56383-3.43341-7.35101-9.18351-13.708302-14.40574-15.919631-3.77116-1.596879-7.6319-2.35411-12.31265-2.259909z" fill="#030202" filter="url(#filter822)" opacity=".1"/>
  <path d="m157.14595 14.563922c-4.68074.09424-10.18298 1.042604-17.23697 2.857352-7.17818 1.846707-14.07641 4.021954-15.32957 4.835271-1.2532.813298-3.28551 4.169791-4.51612 7.458834-2.99037 7.992475-21.11417 42.186532-27.248879 51.410297-1.27094 1.910906-2.26006 3.32349-3.20618 4.493868.60074-.903129 1.11037-1.698891 1.41013-2.237663-1.20789 1.685534-2.40935 3.505925-3.61438 4.560655-.47969.412572-.98286.80319-1.54743 1.183771 0 0-.004.0041-.004.0041-1.6025 1.079707-3.64899 2.115566-6.70182 3.588405-4.82191 2.32633-9.43355 5.138427-10.2457 6.249084-.29496.403401-.54558.855812-.75332 1.343344v.004c-.20709.48663-.37111 1.00686-.49353 1.54745v.004c-.36723 1.62438-.35803 3.42425 0 4.99854.11894.5252.27548 1.02469.47129 1.48435v.004c.10982.25799.25999.46755.39335.69763.10374.17878.18657.38263.30427.54179 0 0 .004.004.004.004.13415.18087.27853.34906.43046.50096v.004c.15314.15295.31516.28846.48613.40821l2.3193 1.62163-2.34527 4.83155-2.34898 4.83155-3.62922-3.18762c-1.46586-1.28704-3.12998-2.28277-4.91319-2.97985-.89053-.348-1.81197-.6209-2.75346-.82008h-.004c-.47016-.0993-.94573-.18278-1.42497-.24493h-.004c-.47925-.0621-.96134-.10506-1.44724-.12995h-.004c-.48592-.0247-.97951-.0311-1.46951-.019-.49.0133-.98502.0462-1.47692.0965-2.46533.2535-4.94684.97991-7.28442 2.18571-.46792.24146-.92848.50299-1.38415.78298-.97079.59652-1.78662 1.22251-2.49741 1.97789 0 0-.004.004-.004.004-.35405.37667-.68353.78722-.99082 1.23943-.30767.45275-.59527.9492-.86833 1.50288v.004c-.27253.55296-.53358 1.1597-.78299 1.83689v.004c-.24944.67752-.48917 1.42303-.72732 2.24879v.004c-.47705 1.6534-.94397 3.62647-1.44724 6.019-.43585 2.07194-.93065 3.98221-1.49549 5.76299-.56561 1.78052-1.20282 3.43109-1.92593 4.98367-1.08468 2.3289-2.35996 4.43634-3.88156 6.42723-.5075.6636-1.04333 1.31386-1.6068 1.95561-.58483.66609-1.07574 1.28979-1.48065 1.89626-.20261.3031-.38375.59958-.54549.89804v.004c-.1617.29858-.30308.59355-.42675.89432-.1235.30072-.22709.60299-.31542.91287v.004c-.26396.92762-.37927 1.91365-.37815 3.04562.007 7.15775 4.68229 12.33777 12.1976 14.21261 1.25259.31246 2.58371.53421 3.98548.65682 1.40189.12273 2.87419.1461 4.4085.0669 3.26818-.1689 4.95811-.23447 5.82977.0483.0473.0152.0428.0606.0853.0779.002-.009.004-.0171.007-.0261.7626.30065.83223.91763.83124 2.08921-.006 6.20136 8.19623 14.81748 14.10499 14.81748.39805 0 .6896.075.90175.24491-.18393.002-.32172.004-.50839.007.34539.0977.74007.12806.84607.53807.15618.601.0737 1.61352-.18924 3.25813-.28849 1.80411-.22627 3.47186.23379 5.10615.15333.54402.35033 1.08465.59374 1.62536.00048.001-.0005.002 0 .004.24312.53977.53231 1.07829.86834 1.62164 1.00951 1.63323 2.44639 3.29786 4.35655 5.09502.4616.43431.95112.86351 1.46208 1.28396.00073.0006.003-.00059.004 0 1.02127.84024 2.11946 1.64443 3.21731 2.36011.00085.00055.003-.00055.004 0 .54844.35743 1.09903.69656 1.6365 1.00565.91029.52365 1.77408.94762 2.57534 1.28766.14559.0618.30521.14193.4453.19668.00098.00039.003-.00038.004 0 .91063.35493 1.69993.55664 2.2859.55664.7656 0 3.51114 2.8046 6.10065 6.23424 1.74312 2.30857 3.14321 4.07749 4.53468 5.44754.00061.00061-.00061.004 0 .004.34784.34245.69474.65937 1.04647.95369.35172.29432.70642.56577 1.07243.81639.36687.25161.7439.48184 1.13553.69392.39068.21136.79509.40238 1.22087.5789 3.406709 1.41394 8.099379 1.77422 16.735999 2.182 3.82348.1805 6.83851.35111 9.40332.59745 2.31387.22221 4.24281.52313 6.08583.93141.19866.0441.41569.0719.61228.11875.001.00028.002-.00027.004 0 1.0095.24161 1.99415.52443 3.00209.85722.001.00038.002-.00037.004 0 .27222.0899.56985.21787.84608.31541 1.77104.62515 3.61925 1.37911 5.82235 2.38239 1.27341.5799 2.65719 1.23131 4.19698 1.96676 2.6218 1.25222 5.09942 2.15783 7.24361 2.68666.71468.1765 1.39278.31268 2.02613.40448.58401.0848 1.12178.12331 1.62536.13357.0426.00088.0954.0114.13737.0114 1.61028.0152 2.76008-.36536 3.25443-1.1652.13623-.22033.18714-.45953.15579-.71249-.00015-.001.00014-.002 0-.004-.0644-.50821-.46286-1.07558-1.17263-1.69586-.35494-.31019-.78991-.63522-1.2988-.96855-.001-.00084-.002-.004-.004-.004-2.03947-1.33487-5.29124-2.84086-9.60001-4.41594-4.19418-1.53318-7.62582-2.93767-7.62582-3.12083 0-.18335-.27446-1.04411-.60859-1.9148-.1146-.29868-.17021-.57718-.15214-.83866.018-.26148.10871-.5071.28945-.74217.36147-.47014 1.07917-.89556 2.27104-1.32479 1.19192-.42916 2.85897-.86093 5.121-1.33589 2.26198-.47459 5.11901-.99315 8.69084-1.59939 7.14088-1.21199 15.01903-3.10348 17.50785-4.20442 2.4888-1.1009 6.1121-2.34189 8.05257-2.75716.54761-.11722 1.05355-.24261 1.52145-.37481.46988-.13281.89863-.27262 1.29139-.42302.78058-.29895 1.41593-.63674 1.9111-1.02049.9924-.76913 1.4361-1.72694 1.4361-2.95756 0-.37716-.058-.71469-.17061-1.01308-.056-.14895-.12654-.28662-.20782-.41562-.0811-.12881-.17385-.2476-.27831-.35624-.41803-.43461-1.01583-.70807-1.73297-.80896-.71716-.10087-1.55552-.0306-2.45289.21895-.44868.12482-.91295.29569-1.38414.51209-.47148.21557-.94936.4783-1.4287.7867-1.20716.77667-2.62892 1.60036-4.12277 2.41206-1.59653.86694-3.28497 1.72405-4.93173 2.50113-3.1904 1.50483-6.20634 2.71408-8.00803 3.13568l-3.15795.73846 2.89446-2.32671c2.24251-1.80362 3.07446-4.23175 2.53453-7.14713-.077-.41628-.18278-.84083-.31543-1.27653-.26539-.87136-.64124-1.77968-1.1281-2.72379-.48643-.94327-1.0868-1.92216-1.79235-2.93158-.00055-.00078.00055-.004 0-.004-.70635-1.01035-1.52161-2.05079-2.44546-3.12085-.92384-1.07003-1.95552-2.16829-3.09485-3.29153-1.92337-1.89618-6.3096-4.82375-11.25876-7.74083-.00091-.00056-.004.00052-.004 0-4.95177-2.91851-10.464-5.82531-14.63937-7.68523-1.39049-.61939-2.63233-1.12447-3.65519-1.4732-.001-.00044-.002.00043-.004 0-.51169-.17442-.9685-.30873-1.36189-.40077-.39358-.0919-.72204-.14097-.97967-.14097-.51304 0-.93827-.0263-1.28024-.0817-.50927-.0824-.83114-.22908-.96112-.43418-.0427-.0675-.0651-.14174-.0668-.22266-.00001-.001.00001-.002 0-.004-.002-.16454.0812-.35585.24863-.57518.0164-.0215.13043-.0745.14844-.0965-.0336.0133-.0521.0232-.0853.037.71016-.87694 2.70027-2.16844 6.01161-3.88527 14.94427-7.74824 23.97785-20.87693 27.74612-40.32225 2.08468-10.75767 2.57269-13.37576 3.61438-12.50191.36224.30388.78869.99239 1.37673 1.95933 1.06449 1.75042 5.36289 5.98336 9.55548 9.40704 10.6096 8.66385 16.00273 16.72081 13.67082 20.42459-.73991 1.17521-2.67762 1.51771-7.59985 1.34335-7.05371-.24988-12.39429 1.21894-12.39429 3.40656 0 2.16039 2.93018 2.67727 8.21215 1.44724 2.71402-.63202 11.08935-1.24803 18.60997-1.3656 16.67901-.26073 19.98117-1.43966 28.10979-10.05271 5.78643-6.13132 10.22619-8.39805 16.59127-8.46819 4.60011-.0507 11.57049-3.83078 11.57049-6.27508 0-2.48049-2.15821-3.59584-6.9653-3.59584-2.44516 0-4.70477 1.26188-8.72053 4.87238-6.72938 6.05028-11.45836 7.83358-15.5745 5.86687-5.21484-2.4917-4.65624-7.75105 1.86656-17.519 2.36363-3.53955 4.00077-6.91787 3.63666-7.50707-1.15886-1.87506-9.50414-1.26381-11.40349.83496-1.4196 1.56859-1.51481 2.46286-.53807 5.05047 1.55852 4.12901.32797 12.11639-2.40093 15.58562-4.17697 5.31015-14.08088 2.12671-20.33182-6.53482-1.96921-2.7286-5.8029-6.80995-8.52015-9.06935-3.0497-2.53584-5.87316-6.1586-7.37349-9.46642-2.00419-4.41876-2.91448-6.76568-2.79798-8.94688.15428-2.887352 2.29816-5.424231 7.96351-11.492539 10.62555-11.382627 11.023-12.621022 11.45252-35.934394.27248-14.790047.19019-15.443804-2.66811-21.56383-3.43341-7.35101-9.18351-13.708302-14.40574-15.919631-3.77116-1.596879-7.6319-2.35411-12.31265-2.259909z" fill="#030202" opacity=".1"/>
  <path d="m166.37321 101.64816c-.58785-1.11597-2.04908-3.893993-2.13281-4.061453-.10117-.20233-.91146-.86042-.91146-.86042s-2.07313.201-2.73072.65626c-.6576.45524-2.22851 1.8211-2.32969 2.02343-.10117.20234-1.77005 2.985953-1.97239 3.390623-.20233.40468-1.16347 4.85398-1.21406 5.4104-.0506.55643-.0984 4.25015-.0984 4.95832 0 .7082 1.2127 2.93447 1.46562 3.69323.25292.75877 1.36719 2.78176 1.36719 2.78176s.12305.27491.1276.28439c.3559.29855.77488.97499 1.35261 1.92499 1.04583 1.71974 5.2689 5.87848 9.388 9.24217 10.42367 8.51199 15.72228 16.42776 13.43123 20.06664-.72693 1.1546-2.63069 1.49111-7.46666 1.31978-6.93008-.2455-12.17706 1.19758-12.17706 3.34688 0 2.12251 2.87883 2.63035 8.06822 1.42187 2.66646-.62096 10.895-1.22615 18.28382-1.34166 16.38671-.25618 19.63097-1.41443 27.61715-9.87656 5.68502-6.02383 10.04697-8.25086 16.30049-8.31977 4.5195-.0498 11.36771-3.76363 11.36771-6.16509 0-2.43702-2.12039-3.53281-6.84323-3.53281-2.40232 0-4.62233 1.23976-8.56769 4.78697-6.61144 5.94426-11.25755 7.69631-15.30154 5.76405-5.12345-2.44802-4.57464-7.61519 1.83384-17.21195 2.32221-3.47752 3.93066-6.79665 3.57293-7.3755-1.13855-1.84221-9.33758-1.24167-11.20364.8203-1.39472 1.5411-1.48825 2.41972-.52864 4.96197 1.53121 4.05663.32222 11.90403-2.35885 15.31248-4.10378 5.21707-13.83412 2.08942-19.9755-6.42029-1.9347-2.68078-5.7012-6.69061-8.37083-8.91041-2.99625-2.49142-5.77024-6.05066-7.24426-9.3005-1.96907-4.34132-2.86341-6.64712-2.74895-8.7901z" fill="#1463a5"/>
  <path d="m156.57687 16.007681c-4.59871.09259-10.0045 1.024332-16.93487 2.807276-7.05238 1.814341-13.82971 3.951465-15.06091 4.750509-1.23123.799063-3.22792 4.09673-4.43697 7.32813-2.93796 7.852381-20.744121 41.447174-26.771309 50.509285-4.471205 6.722606-5.419175 7.527656-13.423936 11.389556-4.737404 2.28557-9.268215 5.04838-10.066129 6.13957-2.318406 3.170643-1.859983 9.456073.827604 11.338533l2.278642 1.59323-2.304163 4.74687-2.307809 4.74687-3.56562-3.13177c-5.760634-5.0579-14.613469-5.5097-21.776526-1.10834-3.815095 2.34422-5.211706 5.17725-7.189572 14.57967-1.71283 8.14254-4.324859 13.75015-8.753632 18.79424-2.298318 2.61765-3.094574 4.55198-3.091662 7.52133.0091 9.3764 8.171318 15.29748 20.230697 14.67446 6.421818-.33176 6.637459-.26068 6.635405 2.15105-.0052 6.09268 8.052591 14.55778 13.85779 14.55778 1.352239 0 1.548535.74603 1.03177 3.97759-.755805 4.72664.944842 8.51046 5.946345 13.21613 3.628077 3.4135 9.123858 6.57344 11.429667 6.57344.752189 0 3.449604 2.75546 5.993741 6.12499 6.85026 9.07247 8.32949 9.68806 25.294747 10.48904 15.02589.70945 17.34856 1.26327 29.45099 7.04375 6.86893 3.28075 12.7402 4.13171 14.03644 2.03436 1.07557-1.74035-3.2439-4.5686-11.7104-7.66353-4.12069-1.50632-7.49218-2.8862-7.49218-3.06614 0-.18014-.26965-1.02581-.59791-1.88125-.90081-2.34748 1.89899-3.35611 15.93591-5.73853 7.01573-1.19075 14.75582-3.04908 17.20101-4.13072 2.44519-1.08162 6.00498-2.30085 7.91145-2.70885 4.30405-.92109 6.05207-2.27404 6.05207-4.69218 0-2.95392-3.75382-3.48123-7.52134-1.05729-4.91095 3.15957-13.22327 7.07939-16.76352 7.9078l-3.10259.72552 2.84374-2.28594c5.03393-4.0487 2.8227-11.30744-6.13228-20.1359-5.04003-4.96884-27.29337-17.1354-31.34318-17.1354-4.01496 0-2.69782-1.72575 3.94479-5.16978 14.68238-7.61244 23.55762-20.51103 27.25985-39.61555 2.04814-10.56912 2.5276-13.14135 3.55103-12.28279-.004-.009-.1276-.28439-.1276-.28439s-1.11427-2.02299-1.36719-2.78176c-.25292-.75876-1.46562-2.98503-1.46562-3.69323 0-.70817.0478-4.40189.0984-4.95832.0506-.55642 1.01173-5.00572 1.21406-5.4104.20234-.40467 1.87123-3.188283 1.9724-3.390623.10117-.20233 1.67208-1.56819 2.32968-2.02343.65759-.45526 2.73072-.65626 2.73072-.65626s.81029.65809.91146.86042c.0837.16744 1.54496 2.945483 2.13281 4.061453.1515-2.836733 2.25789-5.329163 7.82394-11.291133 10.43856-11.181057 10.82904-12.397748 11.25103-35.302551.26771-14.530837.18685-15.173138-2.62135-21.185885-3.37305-7.222159-9.02238-13.468034-14.1531-15.640607-3.70505-1.568893-7.49814-2.31287-12.09685-2.220303z" fill="#1a7fd4"/>
  <g fill="#1463a5">
    <path d="m68.37702 121.35751-3.56562-3.13177c-1.440157-1.26448-3.075028-2.24293-4.827075-2.92761-1.752047-.68465-3.623569-1.07669-5.538012-1.17394-1.914443-.0973-3.869517.10024-5.796866.59791-1.927349.49775-3.82381 1.29496-5.614573 2.3953-.953774.58606-1.759021 1.20495-2.457289 1.94688-.698267.74192-1.290012 1.60628-1.826558 2.69427-1.073095 2.17597-1.916791 5.23731-2.905725 9.93852-.856415 4.07127-1.940578 7.50756-3.361453 10.55832s-3.177793 5.71388-5.392179 8.23592c-1.149159 1.30882-1.924318 2.44574-2.409892 3.6276-.485574 1.18184-.683226 2.40906-.68177 3.89373.0023 2.3441.514283 4.47257 1.469269 6.33647.954985 1.86388 2.352423 3.46333 4.127076 4.75051 1.774654 1.28717 3.926217 2.2626 6.38749 2.87654 2.461273.61397 5.232018.8667 8.246862.71094 3.210908-.16594 4.871246-.23005 5.727594.0474.04639.0149.04206.0595.08385.0765 1.629827-5.73475 3.259816-11.51791 4.557284-15.8958 1.983334-6.69212 3.425165-11.86698 4.859888-15.87394 1.434724-4.00694 1.931491-4.97193 3.401556-8.26144s3.82776-7.93689 5.516138-11.42238z"/>
    <path d="m91.608231 83.619544c-1.211078 1.689984-2.415571 3.528461-3.623952 4.553633-1.796671 1.52428-4.033024 2.68831-8.035404 4.61926-4.737404 2.28557-9.268215 5.04838-10.066129 6.13957-.579601.79266-.98399 1.783173-1.224998 2.847393-.241007 1.06424-.317419 2.20205-.236979 3.30314.08044 1.10107.315257 2.16292.699999 3.06612.384742.90321.917684 1.65127 1.589582 2.12188l2.278642 1.59323c1.671306-3.17474 3.61154-6.73804 5.424991-9.53749 1.81345-2.799443 2.954837-3.926323 5.344782-7.291663 2.105457-2.96472 6.615062-9.196338 7.849466-11.415073z"/>
    <path d="m65.110359 189.64386c.339354.0959.727116.12581.831248.52863.152674.59049.07244 1.58525-.185939 3.20103-.188951 1.18166-.226325 2.30498-.09479 3.39793.131525 1.09293.429562 2.15312.907813 3.21561.956497 2.12499 2.632572 4.24976 5.133325 6.60259 1.814038 1.70675 4.097022 3.3513 6.212488 4.56823 2.115467 1.21694 4.064275 2.00521 5.217179 2.00521.752189 0 3.449603 2.75546 5.993741 6.12499 1.712565 2.26811 3.088212 4.00993 4.455201 5.35572 1.366988 1.34579 2.723612 2.29586 4.396867 2.98957s3.664978 1.13189 6.296338 1.44375c2.63137.31185 5.90502.49975 10.14634.7 7.51294.35473 11.8473.66853 15.81924 1.61874 3.97195.95022 7.58054 2.53478 13.63175 5.42501 3.43446 1.64036 6.61828 2.67621 9.10728 3.03696 1.2445.18032 2.31704.1894 3.15729.0256.84024-.1639 1.44781-.5038 1.77187-1.02812.26889-.43508.20033-.93658-.18594-1.49479s-1.08681-1.17088-2.08906-1.82657c-2.00449-1.31137-5.20215-2.79471-9.4354-4.34217-4.12069-1.50633-7.49218-2.8862-7.49218-3.06615 0-.18013-.26965-1.0258-.59791-1.88124-.2252-.58688-.22027-1.09125.1349-1.55312s1.06022-.87991 2.23125-1.30157c2.34205-.8433 6.55131-1.69263 13.56977-2.88385 7.01573-1.19074 14.75582-3.04908 17.20101-4.13072 2.44519-1.08162 6.00498-2.30085 7.91145-2.70884 2.15202-.46055 3.66668-1.03046 4.64113-1.78646.97445-.75601 1.41094-1.69666 1.41094-2.90572 0-.73849-.23461-1.32664-.64531-1.75366-.4107-.42699-.99802-.69566-1.7026-.79478-.70459-.0991-1.52825-.0301-2.4099.21511-.88164.24521-1.82165.67004-2.76353 1.27603-2.45548 1.57978-5.76109 3.34785-8.89582 4.82708-3.13473 1.47922-6.09758 2.66651-7.8677 3.08073l-3.1026.72551 2.84375-2.28593c1.25848-1.01218 2.06375-2.2251 2.42448-3.61302.36072-1.3879.27712-2.95069-.24428-4.663-.52139-1.71233-1.48138-3.57087-2.86926-5.55626-1.38789-1.98538-3.20448-4.0965-5.44322-6.30363-1.26001-1.24221-3.59468-2.93314-6.45312-4.77238-2.85843-1.83925-6.23854-3.82711-9.58852-5.65833-3.34999-1.83121-6.67158-3.50684-9.40624-4.72499-2.73465-1.21815-4.88285-1.97969-5.8953-1.97969-1.00374 0-1.67535-.10491-2.0125-.32082-.33714-.2159-.34005-.54206-.011-.97345.0161-.0211.12815-.0732.14584-.0948-3.08336 1.28524-4.94542 2.13586-7.4229 3.01875-4.91958 1.75319-10.85236 3.40149-14.740078 4.53542-3.88772 1.13392-10.369034 2.42756-14.094768 3.23748-3.725733.80995-14.416603 2.75677-15.064557 3.08072-.336427.16819-2.53283.1288-4.878117.16763z"/>
  </g>
  <path d="m185.53983 46.129232c-.008 1.917232-.0378 4.099304-.0898 6.925781-.422 22.904687-.81267 24.121599-11.25195 35.304688-5.56603 5.96193-7.67264 8.454275-7.82422 11.291019-.0249.4671.008.94724.0801 1.44921.38625-2.6247 2.5415-5.167533 7.74414-10.740229 10.43928-11.183089 10.82995-12.400001 11.25195-35.304688.0707-3.839928.11168-6.670222.0898-8.925781zm-117.09375 57.107418c-.10128 1.17043-.0346 2.36684.21289 3.45508.11685.516.27051 1.00739.46289 1.45899v.004c.10789.25347.2557.4595.38672.68555.10192.17565.18318.37488.29882.53125l.0039.006c.13179.1777.27456.34295.42383.49219v.004c.15046.15027.30859.28274.47656.40039l1.55469 1.08594.72461-1.49219-2.2793-1.59375c-.16797-.11765-.3261-.25012-.47656-.40039v-.004c-.14927-.14924-.29204-.31449-.42383-.49219l-.0039-.006c-.11564-.15637-.1969-.3556-.29882-.53125-.13102-.22605-.27883-.43208-.38672-.68555v-.004c-.19238-.4516-.34604-.94299-.46289-1.45899-.10636-.46765-.16995-.9578-.21289-1.45508zm150.00586 10.38868c-.58441 1.41949-1.76052 3.53992-3.22071 5.72656-3.94862 5.91311-5.66577 10.14001-5.20898 13.08984.35472-2.77377 2.07707-6.39978 5.20898-11.08984 2.3222-3.4775 3.93-6.79613 3.57227-7.375-.0807-.13057-.2047-.24519-.35156-.35156zm-11.85157 2.67382c-.32097.87808-.14494 1.82477.47266 3.46094.36707.97249.57299 2.16613.64258 3.46094.0985-2.05467-.0924-4.00333-.64258-5.46094-.21275-.56362-.36614-1.03551-.47266-1.46094zm-49.01758 1.47657c-.80539.0617-1.39734 3.18564-3.18945 12.43359-3.70221 19.10445-12.57746 32.00282-27.25976 39.61523-3.25329 1.68674-5.20854 2.9568-5.90625 3.81836.0326-.0136.051-.024.084-.0371-.0177.0216-.12843.0746-.14453.0957-.16447.21549-.2481.40279-.24609.56445 0 .002-.00002.003 0 .004.002.0795.0244.15245.0664.21875.1277.20151.44497.34673.94531.42773.0146.002.0398.002.0547.004.99675-.79941 2.70652-1.83065 5.14649-3.09571 14.6823-7.61241 23.55755-20.51078 27.25976-39.61523 2.04813-10.56908 2.52735-13.13978 3.55078-12.28125.35589.29856.77579.97384 1.35352 1.92383 1.04584 1.71973 5.26957 5.87853 9.38867 9.24219 8.09375 6.6094 13.07603 12.85028 13.83594 17.01757.90912-3.97506-4.31481-11.24257-13.83594-19.01757-4.1191-3.36366-8.34283-7.52246-9.38867-9.24219-.57773-.94999-.99763-1.62527-1.35352-1.92383-.12793-.10732-.24627-.16116-.36133-.15234zm86.30469 12.54882c-1.17571 2.34955-7.08941 5.34204-11.14453 5.38672-6.2535.0689-10.61579 2.29649-16.30078 8.32032-7.98613 8.46207-11.23057 9.62079-27.61719 9.87695-7.38879.11551-15.61675.72086-18.2832 1.3418-4.13752.96352-6.80102.83113-7.71289-.33594-.22416.28734-.35547.59161-.35547.91406 0 2.12252 2.87899 2.63035 8.06836 1.42188 2.66645-.62094 10.89441-1.22629 18.2832-1.3418 16.38662-.25616 19.63106-1.41488 27.61719-9.87695 5.68499-6.02383 10.04728-8.25141 16.30078-8.32032 4.51947-.0498 11.36719-3.76261 11.36719-6.16406 0-.45295-.0731-.86079-.22266-1.22266zm-219.83789 26.83204c-.01748.28461-.04913.55504-.04883.85937.007 7.03227 4.60081 12.12092 11.98438 13.96289 1.23063.30698 2.53881.52603 3.91601.64649 1.37731.12058 2.82266.14229 4.33008.0645 3.21089-.16594 4.87214-.22893 5.72852.0488.0465.0149.04218.0592.08398.0762.002-.009.0029-.0166.0059-.0254.74923.29538.81738.90169.81641 2.05273-.006 6.09265 8.05224 14.55664 13.85742 14.55664.39107 0 .67829.0733.88672.24024-.1807.002-.3166.005-.5.008.31943.0904.67445.13324.80273.47266.09589-.85028.13416-1.53986.0293-1.94336-.10414-.40283-.49269-.4333-.83203-.5293.1834-.003.3193-.006.5-.008-.20843-.16691-.49565-.24024-.88672-.24024-5.80518 0-13.86342-8.46399-13.85742-14.55664.00097-1.15104-.06718-1.75735-.81641-2.05273-.003.009-.0039.0164-.0059.0254-.0418-.017-.03748-.0613-.08398-.0762-.85638-.27776-2.51763-.21477-5.72852-.0488-1.50742.0778-2.95277.0561-4.33008-.0645-1.3772-.12046-2.68538-.33951-3.91601-.64649-6.97708-1.74056-11.4569-6.38305-11.93555-12.82226zm41.58984 37.24218c-.11802 1.38645-.0178 2.70281.34571 3.99414.15064.53448.34484 1.06643.58398 1.59766.00047.001-.00049.002 0 .004.23886.5303.52338 1.05796.85352 1.59179.99181 1.6046 2.40261 3.24021 4.27929 5.00586.45351.4267.93551.84864 1.4375 1.26172.00073.00059.0029-.00058.0039 0 1.00336.82551 2.08155 1.61523 3.16016 2.31836.00083.00054.0029-.00054.0039 0 .53882.35117 1.07938.68461 1.60743.98828.89433.51447 1.74404.93155 2.53125 1.26563.14304.0607.29986.13957.4375.19336.00096.00038.0029-.00037.0039 0 .89466.34871 1.67041.54687 2.2461.54687.75218 0 3.45002 2.75548 5.99414 6.125 1.71256 2.2681 3.08799 4.00553 4.45507 5.35156.00059.0006-.0006.004 0 .004.34174.33645.68179.64834 1.02735.9375.34555.28916.69314.5565 1.05273.80273.36044.2472.73243.47328 1.11719.68165.38384.20765.78091.39492 1.19922.56835 3.34699 1.38915 7.95618 1.74195 16.44141 2.14258 3.75645.17733 6.71843.34587 9.23828.58789 2.27331.21832 4.16976.51489 5.98046.91602.19518.0433.40843.0692.60157.11523.001.00028.002-.00026.004 0 .9918.23738 1.95895.51484 2.94922.8418.001.00037.002-.00037.004 0 .26745.0883.56064.21472.83203.31055 1.73999.61419 3.55427 1.3561 5.71875 2.34179 1.25109.56974 2.6122 1.20908 4.125 1.93164 2.57584 1.23027 5.00863 2.11912 7.11523 2.63868.70216.17341 1.36799.30824 1.99024.39843.57377.0833 1.1029.12078 1.59765.13086.0418.00086.0935.0117.13477.0117 1.58204.0149 2.71159-.35871 3.19727-1.14453.13384-.21646.18509-.45264.15429-.70117-.00015-.001.00013-.002 0-.004-.0371-.29241-.20129-.60645-.45898-.9375-.5797.53884-1.57674.7995-2.89258.78711-.0413 0-.093-.0109-.13477-.0117-.49475-.0101-1.02388-.0476-1.59765-.13086-.62225-.0902-1.28808-.22502-1.99024-.39843-2.1066-.51956-4.53939-1.40841-7.11523-2.63868-1.5128-.72256-2.87391-1.3619-4.125-1.93164-2.16448-.98569-3.97876-1.7276-5.71875-2.34179-.27139-.0958-.56458-.22225-.83203-.31055-.002-.00037-.003.00037-.004 0-.99027-.32696-1.95742-.60442-2.94922-.8418-.002-.00026-.003.00028-.004 0-.19314-.0461-.40639-.0719-.60157-.11523-1.8107-.40113-3.70715-.6977-5.98046-.91602-2.51985-.24202-5.48183-.41056-9.23828-.58789-8.48523-.40063-13.09442-.75343-16.44141-2.14258-.41831-.17343-.81538-.3607-1.19922-.56835-.38476-.20837-.75675-.43445-1.11719-.68165-.35959-.24623-.70718-.51357-1.05273-.80273-.34556-.28916-.68561-.60105-1.02735-.9375-.0006 0 .00059-.003 0-.004-1.36708-1.34603-2.74251-3.08346-4.45507-5.35156-2.54412-3.36952-5.24196-6.125-5.99414-6.125-.57569 0-1.35144-.19816-2.2461-.54687-.001-.00037-.0029.00038-.0039 0-.13764-.0538-.29446-.13266-.4375-.19336-.78721-.33408-1.63692-.75116-2.53125-1.26563-.52805-.30367-1.06861-.63711-1.60743-.98828-.001-.00054-.0031.00054-.0039 0-1.07861-.70313-2.1568-1.49285-3.16016-2.31836-.001-.00058-.0032.00059-.0039 0-.50199-.41308-.98399-.83502-1.4375-1.26172-1.87668-1.76565-3.28748-3.40126-4.27929-5.00586-.33014-.53383-.61466-1.06149-.85352-1.59179-.00049-.002.00047-.003 0-.004-.23914-.53123-.43334-1.06318-.58398-1.59766-.1847-.65612-.28838-1.32013-.34571-1.99414zm97.59376 13.44532c-.2299 1.72699-1.07222 3.22049-2.56836 4.42382l-2.84375 2.28516 3.10351-.72461c.0946-.0221.22691-.0692.32813-.0957 1.6115-1.57237 2.26208-3.56198 1.98047-5.88867zm21.82421.19531c-.19582.71546-.59378 1.32761-1.25976 1.84375-.48648.37703-1.11005.70825-1.87695 1.00195-.38587.14777-.80789.28554-1.26954.41602-.4597.12988-.95613.25201-1.49414.36718-1.90645.40799-5.46694 1.62738-7.91211 2.70899-2.44519 1.08164-10.18548 2.94012-17.20117 4.13086-3.50922.59561-6.31479 1.10599-8.53711 1.57226-2.22239.46664-3.86023.89086-5.03125 1.3125-1.17098.4217-1.87729.83888-2.23242 1.30079-.17757.23095-.2655.47357-.2832.73046-.0178.2569.0358.52883.14844.82227.059.15383.0983.2803.15234.42969.35954-.45473 1.05918-.86702 2.21484-1.28321 1.17102-.42164 2.80886-.84586 5.03125-1.3125 2.22232-.46627 5.02789-.97665 8.53711-1.57226 7.01569-1.19074 14.75598-3.04922 17.20117-4.13086 2.44517-1.08161 6.00566-2.301 7.91211-2.70899.53801-.11517 1.03444-.2373 1.49414-.36718.46165-.13048.88367-.26825 1.26954-.41602.7669-.2937 1.39047-.62492 1.87695-1.00195.97501-.75564 1.41211-1.6972 1.41211-2.90625 0-.34739-.0549-.65816-.15235-.9375z" fill="#030202" opacity=".2"/>
  <path d="m156.57697 16.008216c-4.5987.09259-10.00325 1.023705-16.93359 2.806641-7.05235 1.814334-13.8313 3.952894-15.0625 4.751953-1.23122.799041-3.2265 4.096739-4.43554 7.328125-2.93795 7.852367-20.744309 41.445741-26.771479 50.507813-1.24866 1.877408-2.22085 3.266154-3.1504 4.416015.59022-.887297 1.09027-1.669892 1.38477-2.199219-1.18671 1.655986-2.36687 3.444229-3.55078 4.480469-.47128.40534-.96486.790153-1.51953 1.164063l-.004.0039c-1.57441 1.060772-3.58466 2.078362-6.58398 3.525382-4.737385 2.28555-9.268505 5.04749-10.066415 6.13868-.28979.39633-.53613.84132-.74023 1.320312v.004c-.20346.47809-.36411.98842-.48438 1.51954v.004c-.25059 1.10846-.31199 2.29862-.21484 3.44141.04287-.48792.109-.97323.21484-1.44141v-.004c.12027-.53112.28092-1.04144.48438-1.51953v-.004c.2041-.47898.45044-.92397.74023-1.3203.79791-1.091192 5.32903-3.853132 10.066415-6.138682 2.99932-1.44702 5.00957-2.46461 6.58398-3.52539l.004-.004c.55467-.37391 1.04825-.75873 1.51953-1.16407 1.18391-1.036231 2.36407-2.824474 3.55078-4.48046-.2945.529327-.79455 1.311922-1.38477 2.199219.92955-1.149861 1.90174-2.538607 3.1504-4.416015 6.02717-9.062072 23.833529-42.655446 26.771479-50.507813 1.20904-3.231386 3.20432-6.529084 4.43554-7.328125 1.2312-.799059 8.01015-2.937619 15.0625-4.751953 6.93034-1.782936 12.33489-2.714051 16.93359-2.806641 4.59869-.09255 8.39261.651818 12.09766 2.220704 5.13069 2.172563 10.77913 8.418478 14.15234 15.640624 2.06348 4.418199 2.65083 5.976566 2.71289 12.236329.0329-7.919709-.45302-9.397635-2.71289-14.236329-3.37321-7.22206-9.02165-13.467975-14.15234-15.640538-3.70505-1.568886-7.49897-2.313253-12.09766-2.220704zm9.875 87.091794c-.0269.18295-.0683.36596-.0781.55078-.11447 2.14296.77898 4.44776 2.74804 8.78906 1.47403 3.24983 4.2479 6.8094 7.24414 9.30079 2.66962 2.21979 6.4364 6.22939 8.3711 8.91015 6.14135 8.5097 15.87281 11.63698 19.97656 6.41992 2.03575-2.58804 3.21881-7.73213 3.00195-11.83593-.1779 3.65973-1.28646 7.65504-3.00195 9.83593-4.10375 5.21706-13.83521 2.08978-19.97656-6.41992-1.9347-2.68076-5.70148-6.69036-8.3711-8.91015-2.99624-2.49139-5.77011-6.05095-7.24414-9.30079-1.53945-3.39413-2.4128-5.53918-2.66992-7.33984zm48.79883 9.7832c-2.84402-.0926-6.4841.62533-7.65039 1.91407-1.08541 1.19932-1.37379 2.00675-1 3.5.17778-.48614.50303-.95088 1-1.5 1.73338-1.91538 8.9223-2.56699 10.84961-1.17383.345-.838.48631-1.4316.35351-1.64649-.42695-.69082-1.84632-1.03819-3.55273-1.09375zm-142.986324.47657-1.57812 3.2539-2.3086 4.7461-3.56445-3.13086c-1.44016-1.26448-3.07618-2.24288-4.82813-2.92774-.87492-.3419-1.780094-.61095-2.705074-.80664h-.004c-.46192-.0976-.92955-.17917-1.40039-.24023h-.004c-.47085-.061-.94449-.10445-1.42187-.12891h-.004c-.4774-.0243-.96195-.0295-1.44336-.0176-.48141.0131-.96789.0443-1.45117.0937-2.42211.24905-4.85965.96378-7.15625 2.14844-.45972.23723-.91364.49444-1.36133.76953-.95377.58606-1.75479 1.20122-2.45312 1.94336l-.004.004c-.34785.37007-.67076.77251-.97266 1.2168-.30228.44481-.58524.93258-.85351 1.47656v.004c-.26776.54326-.52449 1.13937-.76953 1.80469v.004c-.24506.66565-.48087 1.3977-.71485 2.20898v.006c-.46868 1.62442-.92742 3.56152-1.42187 5.91211-.42821 2.03562-.91381 3.91255-1.46875 5.66211-.5557 1.74931-1.18215 3.37112-1.89258 4.89648-1.06566 2.28807-2.31757 4.35847-3.8125 6.31446-.4986.65197-1.02649 1.29137-1.58008 1.92187-.57458.65441-1.05531 1.26744-1.45312 1.86328-.19906.29778-.3782.58763-.53711.88086v.004c-.15886.29335-.29647.58342-.41797.87891-.12133.29545-.22377.59398-.31055.89843v.004c-.25933.91136-.37219 1.88006-.37109 2.99219.00038.38649.021.76413.0488 1.13867.0464-.75514.13397-1.46914.32226-2.13086v-.004c.0868-.30445.18922-.60298.31055-.89843.1215-.29549.25911-.58556.41797-.87891v-.004c.15891-.29323.33805-.58308.53711-.88086.39781-.59584.87854-1.20887 1.45312-1.86328.55359-.6305 1.08148-1.2699 1.58008-1.92187 1.49493-1.95599 2.74684-4.02639 3.8125-6.31446.71043-1.52536 1.33688-3.14717 1.89258-4.89648.55494-1.74956 1.04054-3.62649 1.46875-5.66211.49445-2.35059.95319-4.28769 1.42187-5.91211v-.006c.23398-.81128.46979-1.54333.71485-2.20898v-.004c.24504-.66532.50177-1.26143.76953-1.80469v-.004c.26827-.54398.55123-1.03175.85351-1.47656.3019-.44429.62481-.84673.97266-1.2168l.004-.004c.69833-.74214 1.49935-1.3573 2.45312-1.94336.44769-.27509.90161-.5323 1.36133-.76953 2.2966-1.18466 4.73414-1.89939 7.15625-2.14844.48328-.0494.96976-.0807 1.45117-.0937.48141-.0119.96596-.007 1.44336.0176h.004c.47738.0245.95102.0679 1.42187.12891h.004c.47084.0611.93847.14263 1.40039.24023h.004c.92498.19569 1.830154.46474 2.705074.80664 1.75195.68486 3.38797 1.66326 4.82813 2.92774l3.56445 3.13086 2.3086-4.7461 2.30273-4.74804zm165.001954 14.65234c-2.4023 0-4.623 1.2399-8.56836 4.78711-6.61142 5.94421-11.25681 7.69785-15.30079 5.76562-1.96858-.9406-3.09188-2.28839-3.375-4.1289-.37336 2.90506.75373 4.87643 3.375 6.1289 4.04398 1.93224 8.68937.17859 15.30079-5.76562 3.94536-3.54721 6.16606-4.78711 8.56836-4.78711 3.84506 0 5.96585.72741 6.62109 2.3125.13447-.26887.22265-.53271.22265-.7793 0-2.437-2.12092-3.5332-6.84374-3.5332zm-54.74415 22.09766c-.0862.37684-.20786.73569-.40625 1.05078-.72693 1.1546-2.63085 1.49161-7.46679 1.32031-6.93006-.2455-12.17578 1.19643-12.17578 3.3457 0 .42944.12254.78954.35351 1.08594 1.26943-1.62821 5.93131-2.64033 11.82227-2.43164 4.83594.1713 6.73986-.16571 7.46679-1.32031.51207-.81332.62496-1.85126.40625-3.05078zm-60.53514 26.80859c-.33225.26647-.58534.50727-.75977.72266.0326-.0136.051-.0221.084-.0352-.0177.0216-.13039.0726-.14649.0937-.16447.21549-.24614.40475-.24414.56641.00001.002-.00001.003 0 .004.002.0795.0244.15245.0664.21875.1277.20151.44302.34478.94336.42578.33598.0545.75376.0801 1.25781.0801.25311 0 .57621.0484.96288.13867.38649.0904.83517.22318 1.33789.39454.002.00043.003-.00043.004 0 1.00493.34262 2.22567.83873 3.59179 1.44726 4.10217 1.82731 9.51785 4.68344 14.38282 7.55078 0 .00052.003-.00055.004 0 4.8624 2.86595 9.1709 5.74058 11.06055 7.60352 1.11936 1.10355 2.13337 2.18309 3.04102 3.23437.90766 1.0513 1.70837 2.07377 2.40234 3.06641.00054 0-.00054.003 0 .004.69318.99172 1.28382 1.95412 1.76172 2.88085.47833.92756.84669 1.8197 1.10742 2.67579.13033.42806.23495.84492.31055 1.2539.0378.20428.0521.40026.0762.59961.10866-.81616.0941-1.68038-.0762-2.59961-.0756-.40898-.18022-.82584-.31055-1.2539-.26073-.85609-.62909-1.74823-1.10742-2.67579-.4779-.92673-1.06854-1.88913-1.76172-2.88085-.00054-.00077.00054-.004 0-.004-.69397-.99264-1.49468-2.01511-2.40234-3.06641-.90765-1.05128-1.92166-2.13082-3.04102-3.23437-1.88965-1.86294-6.19815-4.73757-11.06055-7.60352-.0009-.00055-.004.00052-.004 0-4.86497-2.86734-10.28065-5.72347-14.38282-7.55078-1.36612-.60853-2.58686-1.10464-3.59179-1.44726-.001-.00043-.002.00043-.004 0-.50272-.17136-.9514-.30412-1.33789-.39454-.38667-.0903-.70977-.13867-.96288-.13867-.48135 0-.87328-.0266-1.20117-.0762zm-56.076184 15.20117c-.04442.39377-.07451.74461-.15624 1.25586-.16784 1.04959-.19866 2.04876-.11524 3.02539.02873-.3382.05963-.67764.11524-1.02539.25832-1.61578.33898-2.61071.18554-3.20117-.006-.0232-.02147-.0339-.0293-.0547zm116.400394 14.26563c-.57023-.0109-1.2001.0739-1.86133.25781-.44081.12264-.89645.2913-1.35938.50391-.46321.21179-.93335.46848-1.40429.77148-1.186.76305-2.58117 1.57362-4.04883 2.37109-1.56855.85174-3.22782 1.69358-4.8457 2.45704-2.96697 1.39944-5.74562 2.51532-7.53907 2.98437-.18679.18226-.37533.3642-.58789.53516l-2.84375 2.28711 3.10352-.72657c1.77011-.41421 4.73272-1.60162 7.86719-3.08007 1.61788-.76346 3.27715-1.6053 4.8457-2.45704 1.46766-.79747 2.86283-1.60804 4.04883-2.37109.47094-.303.94108-.55969 1.40429-.77148.46293-.21261.91857-.38127 1.35938-.50391.88164-.24521 1.70557-.31394 2.41016-.21484.70456.0991 1.29242.36793 1.70312.79492.10263.10674.19373.22305.27344.34961.0799.12673.14805.26186.20312.4082.007.0189.009.0414.0156.0605.0913-.33263.15235-.68039.15235-1.06446 0-.37055-.0573-.70293-.16797-.99609-.0551-.14634-.12327-.28147-.20313-.4082-.0797-.12656-.17081-.24287-.27343-.34961-.41071-.42699-.99856-.6958-1.70313-.79492-.17615-.0248-.35875-.0393-.54883-.043zm-44.05079 20.29101c-.005.006-.0129.0116-.0176.0176-.17757.23095-.26746.47163-.28516.72852-.0178.2569.0378.53078.15039.82422.32827.85543.59766 1.70073.59766 1.88085 0 .17995 3.37152 1.5601 7.49218 3.06641 4.23324 1.54746 7.42792 3.02642 9.43165 4.33789.002 0 .003.003.004.004.49996.32749.92668.64837 1.27539.95312.28878.25237.51302.49246.69531.72657.11683-.10876.2232-.22559.30469-.35743.13384-.21646.18314-.45069.15234-.69921-.00015-.001.00013-.002 0-.004-.0633-.49931-.45502-1.05661-1.15234-1.66602-.34871-.30475-.77543-.62563-1.27539-.95312-.001-.00082-.002-.004-.004-.004-2.00373-1.31147-5.19841-2.79043-9.43165-4.33789-4.12066-1.50631-7.49218-2.88646-7.49218-3.06641 0-.14769-.19909-.77011-.44532-1.45117z" fill="#f3f0f0" opacity=".3"/>
</svg>
