<svg xmlns="http://www.w3.org/2000/svg" xmlns:osb="http://www.openswatchbook.org/uri/2009/osb" xmlns:xlink="http://www.w3.org/1999/xlink" width="256" height="256" version="1.1">
 <defs>
  <linearGradient id="linearGradient5606" osb:paint="solid">
   <stop id="stop5608" offset="0" style="stop-color:#000000"/>
  </linearGradient>
  <linearGradient id="linearGradient4526" osb:paint="solid">
   <stop id="stop4528" offset="0" style="stop-color:#ffffff"/>
  </linearGradient>
  <linearGradient id="linearGradient3600-4" osb:paint="gradient">
   <stop id="stop3602-7" offset="0" style="stop-color:#f4f4f4"/>
   <stop id="stop3604-6" offset="1" style="stop-color:#dbdbdb"/>
  </linearGradient>
  <clipPath id="clipPath1094" clipPathUnits="userSpaceOnUse">
   <path style="fill:url(#linearGradient1098)" d="M 188.96875,43.999998 C 261.6174,43.999998 272,54.356613 272,126.9375 v 58.125 C 272,257.64309 261.6174,268 188.96875,268 h -73.9375 C 42.3826,268 32,257.64309 32,185.0625 v -58.125 C 32,54.356613 42.3826,43.999998 115.03125,43.999998 Z"/>
  </clipPath>
  <clipPath id="clipPath1100" clipPathUnits="userSpaceOnUse">
   <path style="fill:url(#linearGradient1104)" d="M 188.96875,44 C 261.6174,44 272,54.356615 272,126.9375 v 58.125 C 272,257.64309 261.6174,268 188.96875,268 h -73.9375 C 42.3826,268 32,257.64309 32,185.0625 v -58.125 C 32,54.356615 42.3826,44 115.03125,44 Z"/>
  </clipPath>
  <filter style="color-interpolation-filters:sRGB" id="filter11191" width="1.024" height="1.024" x="-.01" y="-.01">
   <feGaussianBlur id="feGaussianBlur11193" stdDeviation="1.12"/>
  </filter>
  <filter style="color-interpolation-filters:sRGB" id="filter11210" width="1.096" height="1.096" x="-.05" y="-.05">
   <feGaussianBlur id="feGaussianBlur11212" stdDeviation="4.48"/>
  </filter>
  <linearGradient id="linearGradient1490" x1="33.076" x2="91.624" y1="210.425" y2="262.805" gradientTransform="matrix(2.1947377,0,0,2.1923444,-10.836741,-394.1216)" gradientUnits="userSpaceOnUse" xlink:href="#linearGradient1488"/>
  <linearGradient id="linearGradient1488">
   <stop style="stop-color:#ff8b00" id="stop1484" offset="0"/>
   <stop style="stop-color:#ffda2c" id="stop1486" offset="1"/>
  </linearGradient>
  <filter id="filter4460" width="1.026" height="1.023" x="-.01" y="-.01" style="color-interpolation-filters:sRGB">
   <feGaussianBlur id="feGaussianBlur7" stdDeviation="1.133"/>
  </filter>
  <linearGradient id="linearGradient4413" x1="256" x2="256" y1="138" y2="375" gradientTransform="matrix(0.43877818,0,0,0.43877818,20.296981,11.211784)" gradientUnits="userSpaceOnUse">
   <stop style="stop-color:#000000;stop-opacity:0" id="stop10" offset="0"/>
   <stop style="stop-color:#000000" id="stop12" offset=".505"/>
   <stop style="stop-color:#000000;stop-opacity:0" id="stop14" offset="1"/>
  </linearGradient>
 </defs>
 <circle style="opacity:0.1;filter:url(#filter11210)" cx="128.752" cy="127.248" r="112"/>
 <circle style="opacity:0.1;filter:url(#filter11191)" cx="128.752" cy="125.248" r="112"/>
 <circle style="opacity:0.1" cx="128.752" cy="123.248" r="114"/>
 <circle style="fill:#8148c7" cx="128.752" cy="123.248" r="112"/>
 <path style="opacity:0.3;fill:#ffffff" d="M 128.752,11.248006 A 112,112 0 0 0 16.751999,123.248 112,112 0 0 0 16.793019,124.41792 112,112 0 0 1 128.752,13.248006 112,112 0 0 1 240.71098,124.07808 a 112,112 0 0 0 0.041,-0.83008 112,112 0 0 0 -112,-111.999994 z"/>
 <g transform="translate(-11.590952,-7.1625041)">
  <g style="enable-background:new" transform="matrix(1.1018589,0,0,1.1018589,-330.9147,-92.472513)">
   <g>
    <g>
     <g style="enable-background:new" transform="matrix(1.2838047,0,0,1.2838047,232.0033,1.6506319)">
      <path style="fill:#f6f5f4" d="M 233.52539 162.43945 A 112 112 0 0 0 235.75 156.3457 A 112 112 0 0 0 237.11133 151.00977 L 128.14453 151.14648 C 115.31232 151.16258 104.13763 142.57269 100.81641 130.17773 C 97.495182 117.78277 102.88503 104.77352 113.99805 98.357422 C 125.11107 91.941323 139.0786 93.779785 148.15234 102.85352 L 156.15039 94.851562 C 148.73429 87.435459 138.91676 83.476275 128.93945 83.269531 C 128.27429 83.255751 127.60732 83.257694 126.94141 83.277344 C 120.54865 83.466087 114.15483 85.2005 108.3418 88.556641 C 92.840414 97.50638 85.252056 115.81786 89.884766 133.10742 C 94.517486 150.39697 110.24506 162.47151 128.14453 162.4668 L 233.52539 162.43945 z" transform="matrix(0.70692779,0,0,0.70692779,61.411348,69.149028)"/>
      <path style="fill:#f6f5f4" d="M 222.0957 185.00977 A 112 112 0 0 0 227.04102 176.94336 A 112 112 0 0 0 228.66016 173.5918 L 128.14453 173.7832 C 107.54354 173.8224 89.005625 161.4046 81.109375 142.37695 C 73.21312 123.34931 77.540037 101.48091 92.087891 86.894531 C 106.63575 72.308177 128.49059 67.923608 147.53906 75.769531 L 151.84961 65.310547 C 144.22131 62.168505 136.21337 60.633666 128.26953 60.621094 C 127.13469 60.619294 126.00007 60.648954 124.86914 60.708984 C 109.78989 61.509334 95.173222 67.777871 84.076172 78.904297 C 66.320885 96.706595 61.021038 123.4921 70.658203 146.71484 C 80.295365 169.93759 103.00152 185.12106 128.14453 185.09766 L 222.0957 185.00977 z" transform="matrix(0.70692779,0,0,0.70692779,61.411348,69.149028)"/>
      <path style="fill:#f6f5f4" d="M 201.20898 208.48828 A 112 112 0 0 0 206.7832 203.5918 A 112 112 0 0 0 213.29297 196.60547 L 128.14453 196.41406 C 101.85588 196.35516 77.58576 182.40147 64.441406 159.63477 C 51.297045 136.86808 51.297045 108.84286 64.441406 86.076172 C 77.58576 63.309477 101.85581 49.300781 128.14453 49.300781 L 128.14453 37.984375 C 97.830932 37.984375 69.797435 54.167581 54.640625 80.419922 C 39.483831 106.67226 39.483831 139.04258 54.640625 165.29492 C 69.797435 191.54726 97.834272 207.28077 128.14453 207.73047 L 201.20898 208.48828 z" transform="matrix(0.70692779,0,0,0.70692779,61.411348,69.149028)"/>
     </g>
    </g>
   </g>
  </g>
 </g>
 <path style="opacity:0.2" d="m 128.752,235.248 a 112,112 0 0 1 -112.000001,-112 112,112 0 0 1 0.04102,-1.16992 A 112,112 0 0 0 128.752,233.248 112,112 0 0 0 240.71098,122.41792 a 112,112 0 0 1 0.041,0.83008 112,112 0 0 1 -112,112 z"/>
 <circle style="opacity:0.05;fill:#ffffff" cx="128.752" cy="122.353" r="85"/>
 <ellipse style="opacity:0.1;fill:#ffffff" cx="128.752" cy="123.248" rx="62.5" ry="62.5"/>
 <ellipse id="ellipse968" cx="128.752" cy="123.248" rx="40" ry="40" style="opacity:0.15;fill:#ffffff"/>
</svg>
