<svg height="256" viewBox="0 0 67.73 67.73" width="256" xmlns="http://www.w3.org/2000/svg" xmlns:xlink="http://www.w3.org/1999/xlink"><linearGradient id="a" gradientUnits="userSpaceOnUse" x1="21.100011" x2="46.498761" y1="3.24046" y2="62.504209"><stop offset="0" stop-color="#cdcdcd"/><stop offset="1" stop-color="#d9d9d9"/></linearGradient><filter id="b" color-interpolation-filters="sRGB" height="1.024" width="1.024" x="-.012" y="-.012"><feGaussianBlur stdDeviation="1.12"/></filter><filter id="c" color-interpolation-filters="sRGB" height="1.096" width="1.096" x="-.048" y="-.048"><feGaussianBlur stdDeviation="4.48"/></filter><linearGradient id="d" gradientUnits="userSpaceOnUse" x1="32.035999" x2="209.99899" y1="22.969999" y2="22.969999"><stop offset="0" stop-color="#250808"/><stop offset="1" stop-color="#250808" stop-opacity="0"/></linearGradient><filter id="e" color-interpolation-filters="sRGB" height="1.075" width="1.069" x="-.04" y="-.04"><feGaussianBlur stdDeviation="2.398"/></filter><radialGradient id="f" cx="79.964313" cy="-52.549027" gradientUnits="userSpaceOnUse" r="16.143167"><stop offset="0" stop-color="#fff"/><stop offset=".208" stop-color="#fff"/><stop offset=".423" stop-color="#fce94f"/><stop offset="1" stop-color="#fff86f" stop-opacity="0"/></radialGradient><linearGradient id="g" gradientTransform="matrix(-13.192426 0 0 13.196652 441.68513 -312.67345)" gradientUnits="userSpaceOnUse" x1="27.754" x2="18.556999" y1="21.958" y2="24.938999"><stop offset="0" stop-color="#fff"/><stop offset=".3" stop-color="#fce94f"/><stop offset="1" stop-color="#fce94f" stop-opacity="0"/></linearGradient><circle cx="122.752" cy="122.752" filter="url(#c)" opacity=".3" r="112" transform="matrix(.26457031 0 0 .26457031 1.322852 1.454082)"/><circle cx="122.752" cy="120.75198" filter="url(#b)" opacity=".1" r="112" transform="matrix(.26457031 0 0 .26457031 1.322852 1.454082)"/><circle cx="33.799385" cy="32.872284" opacity=".1" r="30.161015"/><circle cx="33.799385" cy="32.872284" fill="url(#a)" r="29.631874"/><path d="m33.799387 3.2404611a29.631875 29.631875 0 0 0 -29.6318752 29.6318759h29.6318752zm0 29.6318759v29.631875a29.631875 29.631875 0 0 0 29.631875-29.631875z" fill="#fff" opacity=".2"/><path d="m54.752287 11.919437a29.631875 29.631875 0 0 0 -41.9058 0l20.9529 20.9529zm-20.9529 20.9529-20.9529 20.9529a29.631875 29.631875 0 0 0 41.9058 0z" opacity=".02"/><path d="m25.716383 4.3646501a29.631875 29.631875 0 0 0 -.538049.182153 29.631875 29.631875 0 0 1 1.432934-.388233 29.631875 29.631875 0 0 0 -.894885.20608zm2.333415-.537501a29.631875 29.631875 0 0 1 1.459703-.242406 29.631875 29.631875 0 0 0 -1.459703.242406zm-4.269879 1.192792a29.631875 29.631875 0 0 0 -1.385568.529078 29.631875 29.631875 0 0 1 1.385568-.529078zm7.201503-1.62203a29.631875 29.631875 0 0 1 1.470699-.09556 29.631875 29.631875 0 0 0 -1.470699.09556zm-9.929668 2.7606849a29.631875 29.631875 0 0 0 -1.331844.667682 29.631875 29.631875 0 0 1 1.331844-.667682zm12.886178-2.8954039a29.631875 29.631875 0 0 1 1.477831.05285 29.631875 29.631875 0 0 0 -1.477831-.05285zm-15.486769 4.3005269a29.631875 29.631875 0 0 0 -1.26009.797712 29.631875 29.631875 0 0 1 1.26009-.797712zm18.437477-4.1394599a29.631875 29.631875 0 0 1 1.469153.200155 29.631875 29.631875 0 0 0 -1.469153-.200155zm-20.887645 5.7985101a29.631875 29.631875 0 0 0 -1.174298.9202358 29.631875 29.631875 0 0 1 1.174298-.9202358zm23.817367-5.3424031a29.631875 29.631875 0 0 1 1.431579.343431 29.631875 29.631875 0 0 0 -1.431579-.343431zm-26.516511 7.6175769a29.631875 29.631875 0 0 0 -.336047.313125 29.631875 29.631875 0 0 1 .336047-.313125zm-.443389.429622a29.631875 29.631875 0 0 0 -4.7175592 6.128526l25.6617462 14.815817zm20.944187 20.944343 20.944188 20.944341a29.631875 29.631875 0 0 0 4.717558-6.128525zm8.878977-28.2463979a29.631875 29.631875 0 0 1 1.393106.485341 29.631875 29.631875 0 0 0 -1.393106-.485341zm2.773996 1.026918a29.631875 29.631875 0 0 1 1.344573.6256669 29.631875 29.631875 0 0 0 -1.344573-.6256669zm2.659249 1.2994679a29.631875 29.631875 0 0 1 .486056.2886421l.01754-.03038a29.631875 29.631875 0 0 0 -.503593-.258264zm-29.1105 51.55138-.01754.03038a29.631875 29.631875 0 0 0 .503595.258263 29.631875 29.631875 0 0 1 -.486056-.288641zm1.800732.962441a29.631875 29.631875 0 0 0 1.344576.625669 29.631875 29.631875 0 0 1 -1.344576-.625669zm2.725466 1.167244a29.631875 29.631875 0 0 0 1.393103.485341 29.631875 29.631875 0 0 1 -1.393103-.485341zm31.108926-6.700216a29.631875 29.631875 0 0 1 -.336049.313124 29.631875 29.631875 0 0 0 .336049-.313124zm-28.284138 7.587273a29.631875 29.631875 0 0 0 1.43158.343431 29.631875 29.631875 0 0 1 -1.43158-.343431zm26.423243-5.919208a29.631875 29.631875 0 0 1 -1.174295.920234 29.631875 29.631875 0 0 0 1.174295-.920234zm-23.531095 6.51859a29.631875 29.631875 0 0 0 1.469154.200155 29.631875 29.631875 0 0 1 -1.469154-.200155zm21.16672-4.737018a29.631875 29.631875 0 0 1 -1.26009.797714 29.631875 29.631875 0 0 0 1.26009-.797714zm-18.22469 5.045385a29.631875 29.631875 0 0 0 1.477831.05286 29.631875 29.631875 0 0 1 -1.477831-.05286zm15.695853-3.510232a29.631875 29.631875 0 0 1 -1.331844.667683 29.631875 29.631875 0 0 0 1.331844-.667683zm-12.732211 3.523929a29.631875 29.631875 0 0 0 1.470699-.09556 29.631875 29.631875 0 0 1 -1.470699.09556zm10.05777-2.246671a29.631875 29.631875 0 0 1 -1.385567.529077 29.631875 29.631875 0 0 0 1.385567-.529077zm-7.11515 1.964276a29.631875 29.631875 0 0 0 1.459703-.242404 29.631875 29.631875 0 0 1 -1.459703.242404zm4.331167-.962057a29.631875 29.631875 0 0 1 -1.432934.388231 29.631875 29.631875 0 0 0 1.432934-.388231z" fill="#faf8f6"/><circle cx="33.799385" cy="-32.872288" fill="#aea795" r="10.582812" transform="scale(1 -1)"/><circle cx="33.799385" cy="32.872288" fill="#faf8f6" r="9.524531"/><circle cx="33.799385" cy="32.872288" fill="#4d4d4d" r="3.703984"/><path d="m33.799387 3.2404601a29.631875 29.631875 0 0 0 -29.6318752 29.6318739 29.631875 29.631875 0 0 0 .010853.309526 29.631875 29.631875 0 0 1 29.6210222-29.4122599 29.631875 29.631875 0 0 1 29.621022 29.3223489 29.631875 29.631875 0 0 0 .010848-.219615 29.631875 29.631875 0 0 0 -29.631875-29.6318739z" fill="#fff" opacity=".3"/><path d="m33.799387 62.504209a29.631875 29.631875 0 0 1 -29.6318752-29.631875 29.631875 29.631875 0 0 1 .010853-.309526 29.631875 29.631875 0 0 0 29.6210222 29.41226 29.631875 29.631875 0 0 0 29.621022-29.322348 29.631875 29.631875 0 0 1 .01085.219614 29.631875 29.631875 0 0 1 -29.631875 29.631875z" opacity=".2"/><g enable-background="new" transform="matrix(.28681636 0 0 .28681636 -.991951 28.104919)"><path d="m76.753906-53.644531a2.7675907 2.7675907 0 0 1 1.484375 5.099609c-31.000767 20.457326-43.189012 59.953129-29.111328 94.332031 14.077684 34.378903 50.459526 53.969021 86.898437 46.792969 36.43891-7.176051 62.68555-39.1005 62.68555-76.251953a2.7675907 2.7675907 0 1 1 5.5332 0c0 39.760884-28.14769 74.001077-67.14844 81.681641-39.000744 7.680564-78.025185-13.333013-93.091794-50.126954-15.066608-36.79394-1.994151-79.151678 31.185547-101.046874a2.7675907 2.7675907 0 0 1 1.564453-.480469z" fill="url(#d)" filter="url(#e)" opacity=".1"/><circle cx="79.963997" cy="-52.549" fill="url(#f)" r="16.143"/><path d="m76.753906-53.644531a2.7675907 2.7675907 0 0 1 1.484375 5.099609c-31.000767 20.457326-43.189012 59.953129-29.111328 94.332031 14.077684 34.378903 50.459526 53.969021 86.898437 46.792969 36.43891-7.176051 62.68555-39.1005 62.68555-76.251953a2.7675907 2.7675907 0 1 1 5.5332 0c0 39.760884-28.14769 74.001077-67.14844 81.681641-39.000744 7.680564-78.025185-13.333013-93.091794-50.126954-15.066608-36.79394-1.994151-79.151678 31.185547-101.046874a2.7675907 2.7675907 0 0 1 1.564453-.480469z" fill="url(#g)"/></g></svg>