<svg xmlns="http://www.w3.org/2000/svg" width="256" height="256" version="1">
 <defs>
  <filter style="color-interpolation-filters:sRGB" id="filter843" width="1.024" height="1.024" x="-.01" y="-.01">
   <feGaussianBlur id="feGaussianBlur845" stdDeviation="1.436"/>
  </filter>
  <filter style="color-interpolation-filters:sRGB" id="filter873" width="1.097" height="1.095" x="-.05" y="-.05">
   <feGaussianBlur id="feGaussianBlur875" stdDeviation="5.746"/>
  </filter>
 </defs>
 <g transform="matrix(-2.1428571,0,0,2.1428571,132.57137,123.42863)">
  <g style="fill:#ffefc5" transform="matrix(-0.3674131,0,0,0.3674131,50.113911,7.5834279)">
   <path d="m 138.57062,-165.65365 c -18.55578,31.08763 -24.36667,46.1742 -17.67278,65.961733 6.0679,17.937047 22.08151,27.543082 14.1958,69.024618 12.95035,-20.210931 22.69406,-46.508367 12.52422,-67.214168 -10.3435,-21.059343 -15.55139,-33.455313 -9.04724,-67.772183 z m 36.32277,13.49889 c -12.83717,18.98681 -15.89116,29.84888 -10.16078,43.14038 5.83485,13.53387 12.39688,15.348993 4.73194,35.067823 14.14205,-15.948157 14.8703,-26.324683 9.04471,-38.686213 -5.94287,-12.61036 -12.08484,-17.24314 -3.61587,-39.52199 z m -73.05963,23.37939 c -11.646551,20.00119 -15.271212,29.701773 -10.855177,42.304593 4.003059,11.424235 14.217627,17.40204 9.463877,43.973645 14.58941,-18.405852 14.11321,-31.489891 7.65341,-43.137861 -6.2978,-11.355832 -10.182333,-21.158337 -6.26211,-43.140377 z M 39.629276,-18.559716 v 35.623329 c 0,39.472499 15.887081,71.251699 35.623332,71.251699 H 182.12765 c 16.65243,0 30.57094,-22.657612 34.5123,-53.437507 h 27.83356 c 7.4011,0 13.35749,-5.958917 13.35749,-13.360017 V -5.202233 c 0,-7.401087 -5.95639,-13.357483 -13.35749,-13.357483 H 217.75349 Z M 217.75349,-5.202233 h 18.3697 c 4.62569,0 8.35032,3.7246478 8.35032,8.3503292 V 14.281019 c 0,4.625681 -3.72463,8.350316 -8.35032,8.350316 h -18.50857 c 0.0722,-1.859674 0.13887,-3.669794 0.13887,-5.567722 z M -13.808235,97.221145 c 0,14.802185 31.776686,26.717495 71.249187,26.717495 H 199.94183 c 39.47251,0 71.24917,-11.91531 71.24917,-26.717495 z" style="fill:#0d0a00;opacity:0.1;filter:url(#filter873)"/>
   <path style="fill:#0d0a00;opacity:0.1;filter:url(#filter843)" d="m 138.57062,-165.65365 c -18.55578,31.08763 -24.36667,46.1742 -17.67278,65.961733 6.0679,17.937047 22.08151,27.543082 14.1958,69.024618 12.95035,-20.210931 22.69406,-46.508367 12.52422,-67.214168 -10.3435,-21.059343 -15.55139,-33.455313 -9.04724,-67.772183 z m 36.32277,13.49889 c -12.83717,18.98681 -15.89116,29.84888 -10.16078,43.14038 5.83485,13.53387 12.39688,15.348993 4.73194,35.067823 14.14205,-15.948157 14.8703,-26.324683 9.04471,-38.686213 -5.94287,-12.61036 -12.08484,-17.24314 -3.61587,-39.52199 z m -73.05963,23.37939 c -11.646551,20.00119 -15.271212,29.701773 -10.855177,42.304593 4.003059,11.424235 14.217627,17.40204 9.463877,43.973645 14.58941,-18.405852 14.11321,-31.489891 7.65341,-43.137861 -6.2978,-11.355832 -10.182333,-21.158337 -6.26211,-43.140377 z M 39.629276,-18.559716 v 35.623329 c 0,39.472499 15.887081,71.251699 35.623332,71.251699 H 182.12765 c 16.65243,0 30.57094,-22.657612 34.5123,-53.437507 h 27.83356 c 7.4011,0 13.35749,-5.958917 13.35749,-13.360017 V -5.202233 c 0,-7.401087 -5.95639,-13.357483 -13.35749,-13.357483 H 217.75349 Z M 217.75349,-5.202233 h 18.3697 c 4.62569,0 8.35032,3.7246478 8.35032,8.3503292 V 14.281019 c 0,4.625681 -3.72463,8.350316 -8.35032,8.350316 h -18.50857 c 0.0722,-1.859674 0.13887,-3.669794 0.13887,-5.567722 z M -13.808235,97.221145 c 0,14.802185 31.776686,26.717495 71.249187,26.717495 H 199.94183 c 39.47251,0 71.24917,-11.91531 71.24917,-26.717495 z"/>
   <path d="m 138.57062,-165.65365 c -18.55578,31.08763 -24.36667,46.1742 -17.67278,65.961733 6.0679,17.937047 22.08151,27.543082 14.1958,69.024618 12.95035,-20.210931 22.69406,-46.508367 12.52422,-67.214168 -10.3435,-21.059343 -15.55139,-33.455313 -9.04724,-67.772183 z m 36.32277,13.49889 c -12.83717,18.98681 -15.89116,29.84888 -10.16078,43.14038 5.83485,13.53387 12.39688,15.348993 4.73194,35.067823 14.14205,-15.948157 14.8703,-26.324683 9.04471,-38.686213 -5.94287,-12.61036 -12.08484,-17.24314 -3.61587,-39.52199 z m -73.05963,23.37939 c -11.646551,20.00119 -15.271212,29.701773 -10.855177,42.304593 4.003059,11.424235 14.217627,17.40204 9.463877,43.973645 14.58941,-18.405852 14.11321,-31.489891 7.65341,-43.137861 -6.2978,-11.355832 -10.182333,-21.158337 -6.26211,-43.140377 z M 39.629276,-18.559716 v 35.623329 c 0,39.472499 15.887081,71.251699 35.623332,71.251699 H 182.12765 c 16.65243,0 30.57094,-22.657612 34.5123,-53.437507 h 27.83356 c 7.4011,0 13.35749,-5.958917 13.35749,-13.360017 V -5.202233 c 0,-7.401087 -5.95639,-13.357483 -13.35749,-13.357483 H 217.75349 Z M 217.75349,-5.202233 h 18.3697 c 4.62569,0 8.35032,3.7246478 8.35032,8.3503292 V 14.281019 c 0,4.625681 -3.72463,8.350316 -8.35032,8.350316 h -18.50857 c 0.0722,-1.859674 0.13887,-3.669794 0.13887,-5.567722 z M -13.808235,97.221145 c 0,14.802185 31.776686,26.717495 71.249187,26.717495 H 199.94183 c 39.47251,0 71.24917,-11.91531 71.24917,-26.717495 z" style="fill:#0d0a00;opacity:0.1"/>
   <path d="m 41.23155,-18.600376 v 35 c 0,38.780007 15.610002,70.000007 35.000002,70.000007 H 181.23156 c 16.3603,0 30.03403,-22.260112 33.90624,-52.500007 h 27.34376 c 7.27125,0 13.125,-5.853749 13.125,-13.125 V -5.4753758 c 0,-7.2712512 -5.85375,-13.1250002 -13.125,-13.1250002 h -26.25 z m 175.00001,13.1250002 h 18.04688 c 4.54453,0 8.20312,3.658594 8.20312,8.203125 V 13.665249 c 0,4.544532 -3.65859,8.203126 -8.20312,8.203126 h -18.1836 c 0.0709,-1.827045 0.13645,-3.604121 0.13645,-5.468751 z M -11.268448,95.149631 c 0,14.542489 31.22,26.249999 70.000002,26.249999 H 198.73156 c 38.78,0 70,-11.70751 70,-26.249999 z" style="fill:#deddda"/>
   <path style="fill:#986a44" d="m 138.43859,-163.1121 c -18.23024,30.54224 -23.93973,45.36431 -17.36328,64.804692 5.96144,17.622364 21.69268,27.058714 13.94531,67.812502 12.72315,-19.85635 22.2961,-45.692625 12.30469,-66.035159 -10.16203,-20.689885 -15.27677,-32.867215 -8.88672,-66.582035 z m 35.6836,13.26172 c -12.61195,18.65371 -15.61032,29.3245 -9.98047,42.38282 5.73248,13.29643 12.1789,15.080235 4.64843,34.453121 13.89395,-15.668359 14.6101,-25.86315 8.88671,-38.007811 -5.8386,-12.38912 -11.87506,-16.94013 -3.55467,-38.82813 z m -71.77736,22.96875 c -11.442219,19.6503 -15.002634,29.18079 -10.66406,41.562503 3.932831,11.223814 13.96724,17.097683 9.29688,43.203125 14.33345,-18.082947 13.86601,-30.93919 7.51953,-42.382812 -6.1873,-11.15661 -10.003779,-20.786426 -6.15235,-42.382816 z"/>
   <path style="fill:#ffffff;opacity:0.3" d="m 138.43785,-163.11332 c -13.78988,23.10304 -20.41196,37.21201 -19.97496,51.12816 0.38902,-12.89916 6.82094,-26.44635 19.33989,-47.51124 0.20617,-1.19595 0.3974,-2.36292 0.63507,-3.61692 z m 35.68553,13.26206 c -8.9895,13.29591 -13.07324,22.53561 -12.6518,31.4757 0.36341,-7.53993 3.90298,-15.54851 10.83342,-26.18675 0.51583,-1.65698 1.09523,-3.38658 1.81838,-5.28895 z m -38.47388,13.84752 c -0.18976,16.87943 4.45785,27.31602 11.67687,42.013905 2.73727,5.573077 3.99741,11.560649 4.1354,17.722445 0.18837,-7.056276 -1.02297,-13.925806 -4.1354,-20.262728 -6.85176,-13.950132 -11.39309,-24.051962 -11.67687,-39.473622 z m 34.43026,5.15747 c -0.4367,9.11599 3.62038,13.92786 7.59604,22.36392 1.9178,4.06944 3.08849,7.92234 3.30684,11.833156 0.2603,-4.800676 -0.9759,-9.427326 -3.30684,-14.373436 -3.58937,-7.61641 -7.23945,-12.28246 -7.59604,-19.82364 z m -67.73427,3.96423 c -8.678314,14.90369 -12.812993,23.98696 -12.416125,32.90709 0.406941,-7.9318 4.384999,-16.46063 11.838115,-29.34722 0.17041,-1.15331 0.35897,-2.33163 0.57801,-3.55987 z m -1.53062,16.57138 c -0.28743,12.419714 3.02617,19.955715 7.68287,28.35244 2.40176,4.330732 3.95318,8.866063 4.18749,13.807829 0.26564,-5.94484 -1.38005,-11.285901 -4.18749,-16.348112 -4.32919,-7.806152 -7.48954,-14.87866 -7.68287,-25.812157 z m 71.33136,24.169904 c -0.18775,3.373668 -1.16747,7.494224 -3.35645,13.125623 0.54114,-0.610257 1.02658,-1.197009 1.52813,-1.791098 1.53832,-4.792244 2.04551,-8.360592 1.82832,-11.334525 z m -69.97439,32.993912 c -0.0821,3.233654 -0.44972,6.873397 -1.19323,11.029389 0.18097,-0.228321 0.33227,-0.445616 0.50855,-0.672273 0.55265,-3.906371 0.75369,-7.325135 0.68468,-10.357116 z m 34.9289,3.75337 c -0.0846,5.469941 -0.70769,11.685455 -2.07887,18.89831 0.21248,-0.331609 0.41697,-0.677239 0.62763,-1.012138 1.11772,-6.820673 1.53574,-12.703918 1.45124,-17.886172 z m -95.868413,30.793491 v 2.540283 h 174.999223 26.25124 c 7.27125,0 13.12315,5.851898 13.12315,13.1231413 v -2.5402832 c 0,-7.2712431 -5.8519,-13.1231411 -13.12315,-13.1231411 H 216.23155 Z M 242.48279,13.664586 c 0,4.544528 -3.65929,8.203832 -8.20382,8.203832 h -18.09704 c -0.0246,0.845228 -0.0537,1.687561 -0.0868,2.540283 h 18.18386 c 4.54453,0 8.20382,-3.659304 8.20382,-8.203832 z M -11.267681,95.149631 c 0,0.857523 0.117679,1.704301 0.329932,2.540283 H 268.39914 c 0.21226,-0.835982 0.33242,-1.68276 0.33242,-2.540283 z"/>
   <path style="opacity:0.2" d="m 138.43785,-163.11332 c -0.22114,0.3705 -0.41761,0.71073 -0.63507,1.07664 -1.5993,9.27769 -2.27473,16.89055 -2.15328,23.49018 0.0774,-6.88136 0.93773,-14.80268 2.78835,-24.56682 z m 35.68552,13.26206 c -0.63618,0.94094 -1.231,1.84702 -1.81839,2.74867 -1.77462,5.70046 -2.40225,10.07613 -2.22522,13.74084 0.20108,-4.27642 1.38346,-9.4916 4.04361,-16.48951 z m -71.77789,22.96922 c -0.21076,0.36198 -0.37258,0.6644 -0.578,1.01959 -0.7268,4.9188 -1.01455,9.17322 -0.95013,12.96685 0.0968,-4.07202 0.57858,-8.66191 1.52813,-13.98644 z m 59.1261,5.96371 c -0.21642,4.48993 0.67402,8.82267 2.66928,13.45061 3.6283,8.415802 7.5299,12.228523 8.00536,18.799082 0.4632,-8.240926 -3.93721,-11.903322 -8.00536,-21.339372 -1.61718,-3.75101 -2.49959,-7.30742 -2.66928,-10.91032 z m -43.00869,6.3904 c -0.16128,5.34771 0.70821,10.59074 2.61223,16.219117 4.73932,14.009663 15.6422,22.86156 16.02562,46.372577 0.39284,-25.435457 -11.11932,-34.409569 -16.02562,-48.912864 -1.60184,-4.73511 -2.47151,-9.19782 -2.61223,-13.67883 z m 62.51974,15.335971 c -0.35394,6.527785 -3.53328,13.398428 -10.66472,21.845444 -0.43379,1.351357 -0.91949,2.765578 -1.52814,4.331381 9.23837,-10.418207 12.62613,-18.416352 12.19286,-26.176825 z m -91.053281,2.674244 c -0.19111,3.718704 0.39202,7.31853 1.75142,11.198084 3.13655,8.951323 10.146881,14.510343 10.491071,29.632503 0.43336,-17.078143 -7.184351,-22.735813 -10.491071,-32.172786 -1.04805,-2.990975 -1.62505,-5.816751 -1.75142,-8.657801 z m 61.532421,17.70756 c -0.40559,15.218326 -7.34049,31.290341 -15.81476,44.762567 -0.18981,1.158141 -0.39463,2.339881 -0.62514,3.552434 9.2376,-14.416653 16.80578,-31.985185 16.4399,-48.315001 z m -38.77653,8.119479 c -0.32733,7.324396 -3.589,15.576799 -11.19809,25.360662 -0.14711,1.039852 -0.30975,2.10136 -0.50855,3.212569 8.90824,-11.238556 12.09077,-20.457331 11.70664,-28.573231 z m 103.54631,62.6735482 v 2.5402832 h 18.04742 c 4.54452,0 8.20383,3.6593034 8.20383,8.2038316 V 0.1867041 c 0,-4.5445285 -3.65931,-8.2038319 -8.20383,-8.2038319 z M 41.232329,13.858089 v 2.540283 c 0,38.780002 15.60835,70.00167 34.99836,70.00167 H 181.23071 c 16.3603,0 30.03461,-22.260121 33.90683,-52.50002 h 27.34526 c 7.27124,0 13.12314,-5.854362 13.12314,-13.125618 v -2.540283 c 0,7.271256 -5.8519,13.125618 -13.12314,13.125618 h -27.34526 c -3.87222,30.239899 -17.54653,52.50002 -33.90683,52.50002 H 76.230689 c -19.39001,0 -34.99836,-31.221668 -34.99836,-70.00167 z m 174.999221,0 c 0,1.864632 -0.0655,3.642995 -0.13645,5.470043 h 0.0868 c 0.0282,-0.965778 0.0496,-1.935391 0.0496,-2.92976 z M -11.267681,95.149631 c 0,14.542499 31.21919,26.248769 69.99918,26.248769 H 198.73236 c 38.78001,0 69.9992,-11.70627 69.9992,-26.248769 h -0.33242 c -3.38729,13.341179 -33.17353,23.708489 -69.66678,23.708489 H 58.731499 c -36.49325,0 -66.28196,-10.36731 -69.66925,-23.708489 z"/>
  </g>
 </g>
</svg>
