<?xml version="1.0" encoding="UTF-8" standalone="no"?>
<svg
   xmlns:osb="http://www.openswatchbook.org/uri/2009/osb"
   xmlns:dc="http://purl.org/dc/elements/1.1/"
   xmlns:cc="http://creativecommons.org/ns#"
   xmlns:rdf="http://www.w3.org/1999/02/22-rdf-syntax-ns#"
   xmlns:svg="http://www.w3.org/2000/svg"
   xmlns="http://www.w3.org/2000/svg"
   xmlns:xlink="http://www.w3.org/1999/xlink"
   xmlns:sodipodi="http://sodipodi.sourceforge.net/DTD/sodipodi-0.dtd"
   xmlns:inkscape="http://www.inkscape.org/namespaces/inkscape"
   enable-background="new"
   height="256"
   viewBox="0 0 256 256"
   width="256"
   version="1.1"
   id="svg48"
   sodipodi:docname="cheese.svg"
   inkscape:version="0.92.4 (5da689c313, 2019-01-14)">
  <metadata
     id="metadata54">
    <rdf:RDF>
      <cc:Work
         rdf:about="">
        <dc:format>image/svg+xml</dc:format>
        <dc:type
           rdf:resource="http://purl.org/dc/dcmitype/StillImage" />
      </cc:Work>
    </rdf:RDF>
  </metadata>
  <defs
     id="defs52">
    <linearGradient
       osb:paint="solid"
       id="linearGradient5606">
      <stop
         style="stop-color:#000000"
         offset="0"
         id="stop5608" />
    </linearGradient>
    <linearGradient
       osb:paint="solid"
       id="linearGradient4526">
      <stop
         style="stop-color:#ffffff"
         offset="0"
         id="stop4528" />
    </linearGradient>
    <linearGradient
       osb:paint="gradient"
       id="linearGradient3600-4">
      <stop
         style="stop-color:#f4f4f4"
         offset="0"
         id="stop3602-7" />
      <stop
         style="stop-color:#dbdbdb"
         offset="1"
         id="stop3604-6" />
    </linearGradient>
    <clipPath
       clipPathUnits="userSpaceOnUse"
       id="clipPath1094">
      <path
         id="path871"
         d="M 188.96875,43.999998 C 261.6174,43.999998 272,54.356613 272,126.9375 v 58.125 C 272,257.64309 261.6174,268 188.96875,268 h -73.9375 C 42.3826,268 32,257.64309 32,185.0625 v -58.125 C 32,54.356613 42.3826,43.999998 115.03125,43.999998 Z"
         style="fill:url(#linearGradient1098)" />
    </clipPath>
    <filter
       y="-.01"
       x="-.03"
       height="1.015"
       width="1.056"
       id="filter965"
       style="color-interpolation-filters:sRGB">
      <feGaussianBlur
         stdDeviation=".411"
         id="feGaussianBlur967" />
    </filter>
    <clipPath
       clipPathUnits="userSpaceOnUse"
       id="clipPath1100">
      <path
         id="path876"
         d="M 188.96875,44 C 261.6174,44 272,54.356615 272,126.9375 v 58.125 C 272,257.64309 261.6174,268 188.96875,268 h -73.9375 C 42.3826,268 32,257.64309 32,185.0625 v -58.125 C 32,54.356615 42.3826,44 115.03125,44 Z"
         style="fill:url(#linearGradient1104)" />
    </clipPath>
    <filter
       y="-.06"
       x="-.23"
       height="1.122"
       width="1.451"
       id="filter984"
       style="color-interpolation-filters:sRGB">
      <feGaussianBlur
         stdDeviation="3.288"
         id="feGaussianBlur986" />
    </filter>
    <linearGradient
       xlink:href="#linearGradient905"
       gradientUnits="userSpaceOnUse"
       gradientTransform="translate(-23.248001,-32.751998)"
       y2="268"
       y1="44"
       x2="200"
       x1="104"
       id="linearGradient11065" />
    <linearGradient
       id="linearGradient905">
      <stop
         style="stop-color:#7839b7"
         offset="0"
         id="stop903" />
      <stop
         style="stop-color:#8c59d9"
         offset="1"
         id="stop901" />
    </linearGradient>
    <filter
       y="-.01"
       x="-.01"
       height="1.024"
       width="1.024"
       id="filter11191"
       style="color-interpolation-filters:sRGB">
      <feGaussianBlur
         stdDeviation="1.12"
         id="feGaussianBlur11193" />
    </filter>
    <filter
       y="-.05"
       x="-.05"
       height="1.096"
       width="1.096"
       id="filter11210"
       style="color-interpolation-filters:sRGB">
      <feGaussianBlur
         stdDeviation="4.48"
         id="feGaussianBlur11212" />
    </filter>
  </defs>
  <sodipodi:namedview
     pagecolor="#ffffff"
     bordercolor="#666666"
     borderopacity="1"
     objecttolerance="10"
     gridtolerance="10"
     guidetolerance="10"
     inkscape:pageopacity="0"
     inkscape:pageshadow="2"
     inkscape:window-width="1920"
     inkscape:window-height="1016"
     id="namedview50"
     showgrid="false"
     inkscape:zoom="3.4425878"
     inkscape:cx="127.85885"
     inkscape:cy="126.92923"
     inkscape:window-x="0"
     inkscape:window-y="27"
     inkscape:window-maximized="1"
     inkscape:current-layer="svg48" />
  <linearGradient
     id="linearGradient4358"
     gradientUnits="userSpaceOnUse"
     x1="88"
     x2="488"
     y1="88"
     y2="488">
    <stop
       offset="0"
       stop-opacity=".588235"
       id="stop2" />
    <stop
       offset=".88"
       stop-opacity="0"
       id="stop4" />
    <stop
       offset="1"
       id="stop6" />
  </linearGradient>
  <filter
     id="filter4380"
     color-interpolation-filters="sRGB"
     height="1.088"
     width="1.106"
     x="-.05"
     y="-.04">
    <feGaussianBlur
       stdDeviation="8.48"
       id="feGaussianBlur9" />
  </filter>
  <filter
     id="filter4346"
     color-interpolation-filters="sRGB"
     height="1.022"
     width="1.026"
     x="-.01"
     y="-.01">
    <feGaussianBlur
       stdDeviation="2.12"
       id="feGaussianBlur12" />
  </filter>
  <radialGradient
     id="radialGradient896"
     cx="127.331"
     cy="127.175"
     gradientTransform="matrix(1 0 0 1.2726883 0 -34.679071)"
     gradientUnits="userSpaceOnUse"
     r="88.003">
    <stop
       offset="0"
       stop-color="#c061cb"
       id="stop15" />
    <stop
       offset="1"
       stop-color="#813d9c"
       id="stop17" />
  </radialGradient>
  <path
     d="m189.84323 74c-70.59344 0-78.18921 7.250835-77.84323 77.98706v146.01294 146.01294c-.34598 70.73623 7.24979 77.98706 77.84323 77.98706h196.31354c70.59344 0 76.00668-7.27384 77.84323-77.98706v-146.01294-146.01294c0-70.737067-7.24979-77.98706-77.84323-77.98706z"
     filter="url(#filter4346)"
     opacity=".1"
     transform="matrix(.5 0 0 .5 -16.666462 -20.825235)"
     id="path20" />
  <path
     d="m189.84323 74c-70.59344 0-78.18921 7.250835-77.84323 77.98706v146.01294 146.01294c-.34598 70.73623 7.24979 77.98706 77.84323 77.98706h196.31354c70.59344 0 77.84323-7.24999 77.84323-77.98706v-146.01294-146.01294c0-70.737067-7.24979-77.98706-77.84323-77.98706z"
     fill="url(#linearGradient4358)"
     filter="url(#filter4380)"
     opacity=".3"
     transform="matrix(.5 0 0 .5 -16.666462 -20.825235)"
     id="path22" />
  <path
     d="m77.145138 13.174765c-36.098811 0-39.983003 3.690158-39.806081 39.689842v74.310153 74.31016c-.176922 35.99969 3.70727 39.68984 39.806081 39.68984h100.387312c36.09881 0 39.80608-3.68973 39.80608-39.68984v-74.31016-74.310153c0-36.000113-3.70727-39.689842-39.80608-39.689842z"
     opacity=".1"
     id="path24" />
  <path
     d="m176.40651 15.174765c35.29673 0 39.09461 3.625418 38.92162 38.99353v73.006465 73.00647c.17299 35.36812-3.62489 38.99353-38.92162 38.99353h-98.156752c-35.296716 0-38.921616-3.625-38.921616-38.99353v-73.00647-73.006465c0-35.368533 3.6249-38.99353 38.921616-38.99353z"
     fill="url(#radialGradient896)"
     id="path26"
     style="fill:#7b3ebd;fill-opacity:1" />
  <path
     d="m78.255418 15.174765c-35.296728 0-39.09487 3.626029-38.92188 38.994141v2c-.17299-35.368112 3.625152-38.994141 38.92188-38.994141h98.156232c35.29673 0 38.92188 3.625608 38.92188 38.994141v-2c0-35.368533-3.62515-38.994141-38.92188-38.994141z"
     fill="#fff"
     opacity=".3"
     id="path28" />
  <path
     d="m78.260818 239.17476c-35.296731 0-39.094875-3.62603-38.921885-38.99414v-2c-.17299 35.36811 3.625154 38.99414 38.921885 38.99414h98.156232c35.29673 0 38.92188-3.62561 38.92188-38.99414v2c0 35.36853-3.62515 38.99414-38.92188 38.99414z"
     opacity=".2"
     id="path30" />
  <g
     fill-rule="evenodd"
     id="g46">
    <path
       d="m203.48817 173.34163c-45.67473 25.3231-75.29323 37.44725-134.870226 18.56253 62.390316 30.80015 90.464526 15.72803 134.870226-18.56253z"
       fill="#12121c"
       opacity=".05"
       id="path32" />
    <path
       d="m212.39691 52.411762c-30.65188-3.890975-50.67814 2.664406-67.82035 11.57361 17.41816-21.927186 39.16373-28.784148 67.82035-11.57361z"
       fill="#12121c"
       id="path34" />
    <path
       d="m39.0493 67.291953c29.144791-10.156948 50.116701-7.897685 68.76816-2.739222-21.683451-17.829819-44.400447-20.027632-68.76816 2.739222z"
       fill="#12121c"
       id="path36" />
    <path
       d="m212.39691 56.751364c-30.65188-3.890974-50.67814 2.664407-67.82035 11.573611 17.41816-21.927186 39.16373-28.784148 67.82035-11.573611z"
       fill="#12121c"
       opacity=".1"
       id="path38" />
    <path
       d="m39.0493 71.631556c29.144791-10.156947 50.116701-7.897686 68.76816-2.739244-21.683451-17.82982-44.400447-20.027612-68.76816 2.739244z"
       fill="#12121c"
       opacity=".1"
       id="path40" />
    <path
       d="m215.16136 109.96072c-68.46713 29.60708-133.758714 28.60581-175.872923 22.86215v28.09779c68.214843 41.87098 129.500403 22.41824 175.872923-10.82024z"
       fill="#fbcaca"
       id="path42" />
    <path
       d="m215.16136 109.96733c-6.05166 2.6169-12.08517 4.98121-18.07346 7.13774 2.57327 7.54049 12.10314 33.36878 13.21161 36.37445 1.63357-1.111 3.26344-2.22055 4.86185-3.36627zm-22.37162 8.66506c-8.17002 2.80739-16.26148 5.19097-24.23889 7.23121-.64116 4.89077 9.11214 35.19567 12.15466 44.47845 10.37057-4.77401 20.22003-10.50817 29.52353-16.83137-1.78025-4.49631-11.74031-29.29085-17.4393-34.87829zm-28.85417 8.38448c-9.3269 2.23752-18.47449 3.99094-27.40969 5.32994-.18289 10.55686 4.35387 41.53449 5.67217 50.30709 13.43793-2.3882 26.28358-6.69214 38.437-12.28067-3.09286-9.08828-13.15823-38.33275-16.69948-43.35636zm-21.73752 55.63703c-1.34978-8.80631-6.3902-40.38978-10.63976-49.62136-10.66467 1.43175-20.98201 2.30608-30.86226 2.71171-3.114547 7.89572-3.420447 38.9391-3.452649 47.37717 15.589359 2.46398 30.601659 2.0833 44.954669-.46752zm-44.954669.46752c-.009-8.33415-.162707-38.23105-1.620653-47.19014-9.824347.25835-19.156294.0705-27.93812-.40522-3.348689 6.27019-6.221208 27.34596-7.363275 36.49912 12.599216 5.5998 24.93053 9.20097 36.922048 11.09624zm-57.954944-50.30708v28.11463c7.054738 4.33024 14.029515 7.99399 20.927182 11.06506.88974-9.04759 2.878184-29.79633 3.029861-36.74848-8.613285-.57594-16.638621-1.43309-23.957043-2.43121z"
       fill="#fff"
       id="path44" />
  </g>
</svg>
