<?xml version="1.0" encoding="UTF-8" standalone="no"?>
<svg
   xmlns:dc="http://purl.org/dc/elements/1.1/"
   xmlns:cc="http://creativecommons.org/ns#"
   xmlns:rdf="http://www.w3.org/1999/02/22-rdf-syntax-ns#"
   xmlns:svg="http://www.w3.org/2000/svg"
   xmlns="http://www.w3.org/2000/svg"
   xmlns:xlink="http://www.w3.org/1999/xlink"
   xmlns:sodipodi="http://sodipodi.sourceforge.net/DTD/sodipodi-0.dtd"
   xmlns:inkscape="http://www.inkscape.org/namespaces/inkscape"
   style="enable-background:new"
   width="256"
   height="256"
   version="1.0"
   viewBox="0 0 256 256"
   id="svg68"
   sodipodi:docname="chrome-nmmhkkegccagdldgiimedpiccmgmieda-Default.svg"
   inkscape:version="0.92.4 (5da689c313, 2019-01-14)">
  <metadata
     id="metadata72">
    <rdf:RDF>
      <cc:Work
         rdf:about="">
        <dc:format>image/svg+xml</dc:format>
        <dc:type
           rdf:resource="http://purl.org/dc/dcmitype/StillImage" />
        <dc:title>
  Adwaita Icon Template
 </dc:title>
      </cc:Work>
    </rdf:RDF>
  </metadata>
  <sodipodi:namedview
     pagecolor="#ffffff"
     bordercolor="#666666"
     borderopacity="1"
     objecttolerance="10"
     gridtolerance="10"
     guidetolerance="10"
     inkscape:pageopacity="0"
     inkscape:pageshadow="2"
     inkscape:window-width="1920"
     inkscape:window-height="1016"
     id="namedview70"
     showgrid="false"
     inkscape:zoom="3.2773438"
     inkscape:cx="128"
     inkscape:cy="128"
     inkscape:window-x="0"
     inkscape:window-y="27"
     inkscape:window-maximized="1"
     inkscape:current-layer="svg68" />
  <title
     id="title4162">
  Adwaita Icon Template
 </title>
  <defs
     id="defs37">
    <linearGradient
       id="linearGradient984">
      <stop
         style="stop-color:#cacaca;stop-opacity:1"
         offset="0"
         id="stop980" />
      <stop
         style="stop-color:#c2c2c2;stop-opacity:1"
         offset="1"
         id="stop982" />
    </linearGradient>
    <linearGradient
       id="linearGradient965"
       x1="48"
       x2="464"
       y1="44"
       y2="44"
       gradientUnits="userSpaceOnUse">
      <stop
         id="stop989"
         offset="0"
         style="stop-color:#77767b" />
      <stop
         id="stop991"
         offset=".05"
         style="stop-color:#c0bfbc" />
      <stop
         id="stop993"
         offset=".1"
         style="stop-color:#9a9996" />
      <stop
         id="stop995"
         offset=".9"
         style="stop-color:#9a9996" />
      <stop
         id="stop997"
         offset=".95"
         style="stop-color:#c0bfbc" />
      <stop
         id="stop999"
         offset="1"
         style="stop-color:#77767b" />
    </linearGradient>
    <radialGradient
       id="radialGradient1030"
       cx="64"
       cy="194.19"
       r="44"
       gradientTransform="matrix(-4.7273,7.9359e-7,-3.0301e-7,-1.6364,238.55,49.766)"
       gradientUnits="userSpaceOnUse">
      <stop
         id="stop1016"
         offset="0"
         style="stop-color:#fff" />
      <stop
         id="stop1018"
         offset="1"
         style="stop-color:#fff;stop-opacity:.094118" />
    </radialGradient>
    <linearGradient
       id="linearGradient1950"
       x1="70.347"
       x2="70.347"
       y1="245.4"
       y2="269.14"
       gradientUnits="userSpaceOnUse">
      <stop
         id="stop1944"
         offset="0"
         style="stop-color:#2d2839" />
      <stop
         id="stop1946"
         offset="1"
         style="stop-color:#282433" />
    </linearGradient>
    <linearGradient
       id="linearGradient4360">
      <stop
         id="stop4362"
         offset="0"
         style="stop-color:#000000;stop-opacity:0.58823532" />
      <stop
         style="stop-color:#000000;stop-opacity:0"
         id="stop4364"
         offset=".88" />
      <stop
         id="stop4366"
         offset="1"
         style="stop-color:#000000" />
    </linearGradient>
    <linearGradient
       id="linearGradient1494">
      <stop
         style="stop-color:#babdb6"
         id="stop1490"
         offset="0" />
      <stop
         style="stop-color:#babdb6;stop-opacity:0"
         id="stop1492"
         offset="1" />
    </linearGradient>
    <linearGradient
       id="linearGradient1496"
       x1="280"
       x2="280"
       y1="172"
       y2="20"
       gradientUnits="userSpaceOnUse"
       xlink:href="#linearGradient1494" />
    <linearGradient
       id="linearGradient7537">
      <stop
         id="stop7539"
         offset="0"
         style="stop-color:#f37e40" />
      <stop
         id="stop7541"
         offset="1"
         style="stop-color:#f34f17" />
    </linearGradient>
    <filter
       style="color-interpolation-filters:sRGB"
       id="filter1066-3"
       width="1.014"
       height="1.08"
       x="-.01"
       y="-.04">
      <feGaussianBlur
         id="feGaussianBlur1068-6"
         stdDeviation=".4" />
    </filter>
    <filter
       style="color-interpolation-filters:sRGB"
       id="filter1062-3-7"
       width="1.024"
       height="1.024"
       x="-.01"
       y="-.01">
      <feGaussianBlur
         id="feGaussianBlur1064-6-5"
         stdDeviation=".673" />
    </filter>
    <linearGradient
       id="linearGradient4886"
       x1="24.987"
       x2="292.575"
       y1="298.462"
       y2="-5.118"
       gradientTransform="rotate(-90,131.92307,159.74339)"
       gradientUnits="userSpaceOnUse"
       xlink:href="#linearGradient7537" />
    <filter
       style="color-interpolation-filters:sRGB"
       id="filter4380-1"
       width="1.106"
       height="1.088"
       x="-.05"
       y="-.04">
      <feGaussianBlur
         id="feGaussianBlur4382-2"
         stdDeviation="8.48" />
    </filter>
    <filter
       style="color-interpolation-filters:sRGB"
       id="filter4346-7"
       width="1.026"
       height="1.022"
       x="-.01"
       y="-.01">
      <feGaussianBlur
         id="feGaussianBlur4348-0"
         stdDeviation="2.12" />
    </filter>
    <linearGradient
       id="linearGradient930"
       x1="88"
       x2="488"
       y1="88"
       y2="488"
       gradientTransform="rotate(-90,287.9946,298)"
       gradientUnits="userSpaceOnUse"
       xlink:href="#linearGradient4360" />
    <linearGradient
       inkscape:collect="always"
       xlink:href="#linearGradient984"
       id="linearGradient4886-3"
       x1="24.987097"
       y1="298.46219"
       x2="292.57532"
       y2="-5.1179543"
       gradientUnits="userSpaceOnUse"
       gradientTransform="rotate(-90,130.24585,159.4206)" />
    <filter
       inkscape:collect="always"
       style="color-interpolation-filters:sRGB"
       id="filter4380"
       x="-0.052999184"
       width="1.1059984"
       y="-0.043862626"
       height="1.0877253">
      <feGaussianBlur
         inkscape:collect="always"
         stdDeviation="8.4801079"
         id="feGaussianBlur4382" />
    </filter>
    <filter
       inkscape:collect="always"
       style="color-interpolation-filters:sRGB"
       id="filter4346"
       x="-0.013249796"
       width="1.0264996"
       y="-0.010965657"
       height="1.0219313">
      <feGaussianBlur
         inkscape:collect="always"
         stdDeviation="2.120027"
         id="feGaussianBlur4348" />
    </filter>
    <clipPath
       id="b">
      <use
         xlink:href="#a"
         overflow="visible"
         y="0"
         x="0"
         height="100%"
         width="100%"
         id="use5" />
    </clipPath>
    <clipPath
       id="clipPath2166">
      <use
         xlink:href="#a"
         overflow="visible"
         y="0"
         x="0"
         height="100%"
         width="100%"
         id="use2164" />
    </clipPath>
    <clipPath
       id="clipPath2170">
      <use
         xlink:href="#a"
         overflow="visible"
         y="0"
         x="0"
         height="100%"
         width="100%"
         id="use2168" />
    </clipPath>
    <linearGradient
       xlink:href="#g"
       gradientUnits="userSpaceOnUse"
       gradientTransform="matrix(0.68181818,0,0,0.68181818,-1.4545454,-1.4545454)"
       y2="114.13"
       y1="49.804"
       x2="136.55"
       x1="121.86"
       id="linearGradient954" />
    <clipPath
       id="b-3">
      <use
         xlink:href="#a"
         overflow="visible"
         y="0"
         x="0"
         height="100%"
         width="100%"
         id="use5-6" />
    </clipPath>
    <clipPath
       id="clipPath2177">
      <use
         xlink:href="#a"
         overflow="visible"
         y="0"
         x="0"
         height="100%"
         width="100%"
         id="use2175" />
    </clipPath>
    <clipPath
       id="clipPath2181">
      <use
         xlink:href="#a"
         overflow="visible"
         y="0"
         x="0"
         height="100%"
         width="100%"
         id="use2179" />
    </clipPath>
  </defs>
  <path
     style="color:#000000;display:inline;overflow:visible;visibility:visible;opacity:0.1;fill:#000000;fill-opacity:1;fill-rule:nonzero;stroke:none;stroke-width:2;marker:none;filter:url(#filter4346);enable-background:accumulate"
     d="M 189.84323,74 C 119.24979,74 111.65402,81.250835 112,151.98706 V 298 444.01294 C 111.65402,514.74917 119.24979,522 189.84323,522 H 386.15677 C 456.75021,522 462.16345,514.72616 464,444.01294 V 298 151.98706 C 464,81.249993 456.75021,74 386.15677,74 Z"
     id="rect4158-9"
     inkscape:connector-curvature="0"
     sodipodi:nodetypes="scccssscsss"
     transform="matrix(0,0.5,-0.5,0,275.82523,-5.3281475)" />
  <path
     sodipodi:nodetypes="scccssscsss"
     inkscape:connector-curvature="0"
     id="path4350"
     d="M 189.84323,74 C 119.24979,74 111.65402,81.250835 112,151.98706 V 298 444.01294 C 111.65402,514.74917 119.24979,522 189.84323,522 H 386.15677 C 456.75021,522 464,514.75001 464,444.01294 V 298 151.98706 C 464,81.249993 456.75021,74 386.15677,74 Z"
     style="color:#000000;display:inline;overflow:visible;visibility:visible;opacity:0.3;fill:url(#linearGradient930);fill-opacity:1;fill-rule:nonzero;stroke:none;stroke-width:2;marker:none;filter:url(#filter4380);enable-background:accumulate"
     transform="matrix(0,0.5,-0.5,0,275.82523,-5.3281475)" />
  <path
     style="color:#000000;display:inline;overflow:visible;visibility:visible;opacity:0.1;fill:#000000;fill-opacity:1;fill-rule:nonzero;stroke:none;stroke-width:1.02028775;marker:none;enable-background:accumulate"
     d="m 240.83043,87.478257 c 0,-36.09881 -3.69016,-39.98301 -39.68984,-39.80608 H 126.83043 52.520283 c -35.99969,-0.17693 -39.68984,3.70727 -39.68984,39.80608 V 187.86557 c 0,36.09882 3.68973,39.80608 39.68984,39.80608 h 74.310147 74.31016 c 36.00011,0 39.68984,-3.70726 39.68984,-39.80608 z"
     id="rect4158-7"
     inkscape:connector-curvature="0"
     sodipodi:nodetypes="scccssscsss" />
  <path
     style="color:#000000;display:inline;overflow:visible;visibility:visible;fill:url(#linearGradient4886-3);fill-opacity:1;fill-rule:nonzero;stroke:none;stroke-width:1;marker:none;enable-background:accumulate"
     d="m 14.825243,88.593477 c 0,-35.29673 3.62542,-39.09461 38.99353,-38.92162 h 73.006457 73.00647 c 35.36812,-0.17299 38.99353,3.62489 38.99353,38.92162 v 98.156753 c 0,35.29672 -3.625,38.92162 -38.99353,38.92162 H 126.82523 53.818773 c -35.36853,0 -38.99353,-3.6249 -38.99353,-38.92162 z"
     id="rect4158"
     inkscape:connector-curvature="0"
     sodipodi:nodetypes="scccssscsss" />
  <path
     style="color:#000000;display:inline;overflow:visible;visibility:visible;opacity:0.1;fill:#ffffff;fill-opacity:1;fill-rule:nonzero;stroke:none;stroke-width:1;marker:none;enable-background:accumulate"
     d="m 14.827943,137.66916 v 8 41.00585 c 0,35.36854 3.625165,38.99415 38.921875,38.99415 H 199.90606 c 35.29673,0 39.09486,-3.62603 38.92187,-38.99414 v -41.00586 -8 z"
     id="rect4158-5"
     inkscape:connector-curvature="0"
     sodipodi:nodetypes="ccssscccc" />
  <path
     style="color:#000000;display:inline;overflow:visible;visibility:visible;opacity:0.3;fill:#ffffff;fill-opacity:1;fill-rule:nonzero;stroke:none;stroke-width:1;marker:none;enable-background:accumulate"
     d="m 53.818177,49.667197 c -35.36853,0 -38.992187,3.62321 -38.992187,38.91993 v 98.158193 c 0,0.0882 0.0019,0.16224 0.002,0.25 V 90.585177 c -4.7e-5,-35.29672 3.625564,-38.92188 38.994094,-38.92188 h 73.005846 73.00586 c 35.28016,0 38.97394,3.62103 38.99219,38.67188 v -1.74805 c 0,-35.29672 -3.62561,-38.91993 -38.99414,-38.91993 h -73.00586 z"
     id="rect4158-78"
     inkscape:connector-curvature="0" />
  <path
     style="display:inline;fill:none;stroke:#8e8e8e;stroke-width:10;stroke-linecap:round;stroke-linejoin:miter;stroke-miterlimit:4;stroke-dasharray:none;stroke-opacity:1;enable-background:new"
     d="m 91.825244,53.669157 c 0,0 0,-34.999998 34.999986,-34.999998 35,0 35,34.999998 35,34.999998"
     id="path24398-6"
     inkscape:connector-curvature="0"
     sodipodi:nodetypes="csc" />
  <g
     style="enable-background:new"
     id="g972"
     transform="translate(-142.53016,90.719832)">
    <g
       transform="translate(0,-172)"
       id="layer1">
      <g
         id="layer9">
        <g
           id="g44"
           transform="matrix(5.6114788,0,0,5.6114788,180.92569,-1211.2588)">
          <path
             id="path34"
             transform="matrix(0.3105491,0,0,0.3105491,-4.0145322,236.73009)"
             d="M 35.916016,108 H 51.216797 L 63.994141,86.160156 h 45.529299 c -0.76535,-1.501566 -1.60577,-2.966085 -2.51563,-4.384765 -0.92074,-1.434266 -1.91137,-2.821067 -2.9707,-4.15625 -1.05963,-1.335087 -2.18542,-2.615282 -3.37305,-3.837891 -1.187523,-1.222544 -2.436589,-2.386513 -3.740232,-3.484375 -1.303256,-1.097733 -2.660091,-2.12963 -4.066406,-3.091797 C 91.450707,66.24275 89.997717,65.352225 88.501953,64.535156 87.006289,63.717862 85.470178,62.976389 83.900391,62.3125 82.330359,61.64874 80.72807,61.064203 79.099609,60.560547 77.471554,60.05673 75.818653,59.633677 74.148438,59.294922 72.478219,58.956264 70.793337,58.701465 69.097656,58.53125 67.40177,58.361229 65.698522,58.277022 63.994141,58.277344 c -1.20645,3.2e-5 -2.413761,0.04162 -3.617188,0.126953 -1.699863,0.120432 -3.392927,0.327539 -5.072265,0.617187 -1.679976,0.289488 -3.343645,0.661511 -4.986329,1.117188 -1.6422,0.456288 -3.261168,0.995311 -4.849609,1.613281 -1.588011,0.617423 -3.143649,1.313081 -4.662109,2.085938 -1.519131,0.773114 -2.999246,1.622051 -4.433594,2.542968 -1.434263,0.920724 -2.821075,1.911386 -4.15625,2.970703 -1.335075,1.05964 -2.615282,2.185409 -3.837891,3.373047 -1.222547,1.18751 -2.386492,2.436576 -3.484375,3.740235 -1.09773,1.303272 -2.129631,2.660091 -3.091797,4.066406 -0.277965,0.438481 -0.548021,0.8814 -0.8125,1.328125 C 20.950071,82.435059 29.176993,96.638414 35.916016,108 Z"
             style="fill:#db4437"
             inkscape:connector-curvature="0" />
          <path
             id="path36"
             transform="matrix(0.3105491,0,0,0.3105491,-4.0145322,236.73009)"
             d="M 13.058594,108 H 36.207031 L 20.992188,81.902344 a 50.907979,50.907979 0 0 0 -1.759766,2.873047 50.907979,50.907979 0 0 0 -2.212891,4.582031 50.907979,50.907979 0 0 0 -1.746093,4.779297 50.907979,50.907979 0 0 0 -1.259766,4.93164 50.907979,50.907979 0 0 0 -0.759766,5.031251 A 50.907979,50.907979 0 0 0 13.058594,108 Z"
             style="fill:#0f9d58"
             inkscape:connector-curvature="0" />
          <path
             id="path38"
             transform="matrix(0.3105491,0,0,0.3105491,-4.0145322,236.73009)"
             d="m 76.480469,108 h 38.480471 c -0.0179,-0.83768 -0.0287,-1.67582 -0.0879,-2.51172 -0.12027,-1.69593 -0.32624,-3.38509 -0.61524,-5.06055 -0.28903,-1.675286 -0.6604,-3.334586 -1.11523,-4.972652 -0.45467,-1.638324 -0.99146,-3.253149 -1.60742,-4.83789 -0.61615,-1.584323 -1.31082,-3.137415 -2.08204,-4.652344 -0.0466,-0.08147 -0.0935,-0.162672 -0.14062,-0.244141 l -45.941406,0.230469 z"
             style="fill:#ffcd40"
             inkscape:connector-curvature="0" />
          <path
             id="path40"
             transform="matrix(0.3105491,0,0,0.3105491,-4.0145322,236.73009)"
             d="M 40.816406,108 H 87.1875 A 23.235971,23.235971 0 0 0 63.994141,85.947266 23.235971,23.235971 0 0 0 40.816406,108 Z"
             style="fill:#f1f1f1"
             inkscape:connector-curvature="0" />
          <path
             id="path42"
             transform="matrix(0.3105491,0,0,0.3105491,-4.0145322,236.73009)"
             d="M 45.722656,108 H 82.818359 A 18.588775,18.588775 0 0 0 64.263672,90.367188 18.588775,18.588775 0 0 0 45.722656,108 Z"
             style="fill:#4285f4"
             inkscape:connector-curvature="0" />
        </g>
        <g
           id="g49"
           transform="matrix(0.58313384,0,0,0.58313384,9.6233191,240.65991)"
           clip-path="url(#b)">
          <linearGradient
             gradientUnits="userSpaceOnUse"
             y2="44.354"
             y1="75.021004"
             x2="81.836998"
             x1="29.337"
             id="c">
            <stop
               stop-opacity=".6"
               stop-color="#A52714"
               offset="0"
               id="stop10" />
            <stop
               stop-opacity="0"
               stop-color="#A52714"
               offset=".66"
               id="stop12" />
          </linearGradient>
        </g>
        <g
           id="g54"
           transform="matrix(0.58313384,0,0,0.58313384,9.6233191,240.65991)"
           clip-path="url(#b)">
          <linearGradient
             gradientUnits="userSpaceOnUse"
             y2="130.33"
             y1="164.5"
             x2="52.537998"
             x1="110.87"
             id="d">
            <stop
               stop-opacity=".4"
               stop-color="#055524"
               offset="0"
               id="stop23" />
            <stop
               stop-opacity="0"
               stop-color="#055524"
               offset=".33"
               id="stop25" />
          </linearGradient>
        </g>
        <g
           id="g58"
           transform="matrix(0.58313384,0,0,0.58313384,9.6233191,240.65991)"
           clip-path="url(#b)">
          <path
             id="path56"
             transform="matrix(1.4666667,0,0,1.4666667,2.1333333,2.1333333)"
             d="M 61.195312,123.85938 61.115234,124 H 64 a 60,60 0 0 1 -2.804688,-0.14062 z"
             style="fill:url(#linearGradient954)"
             inkscape:connector-curvature="0" />
        </g>
        <g
           id="g63"
           transform="matrix(0.58313384,0,0,0.58313384,11.3277,255.4749)"
           clip-path="url(#b-3)">
          <linearGradient
             gradientUnits="userSpaceOnUse"
             y2="44.354"
             y1="75.021004"
             x2="81.836998"
             x1="29.337"
             id="linearGradient1841">
            <stop
               stop-opacity=".6"
               stop-color="#A52714"
               offset="0"
               id="stop10-5" />
            <stop
               stop-opacity="0"
               stop-color="#A52714"
               offset=".66"
               id="stop12-6" />
          </linearGradient>
        </g>
        <g
           id="g68"
           transform="matrix(0.58313384,0,0,0.58313384,11.3277,255.4749)"
           clip-path="url(#b-3)">
          <linearGradient
             gradientUnits="userSpaceOnUse"
             y2="130.33"
             y1="164.5"
             x2="52.537998"
             x1="110.87"
             id="linearGradient1847">
            <stop
               stop-opacity=".4"
               stop-color="#055524"
               offset="0"
               id="stop23-1" />
            <stop
               stop-opacity="0"
               stop-color="#055524"
               offset=".33"
               id="stop25-2" />
          </linearGradient>
        </g>
        <g
           id="g72"
           transform="matrix(0.58313384,0,0,0.58313384,11.3277,255.4749)"
           clip-path="url(#b-3)">
          <path
             id="path70"
             transform="matrix(1.4666667,0,0,1.4666667,2.1333333,2.1333333)"
             d="M 61.195312,123.85938 61.115234,124 H 64 a 60,60 0 0 1 -2.804688,-0.14062 z"
             style="fill:url(#linearGradient954)"
             inkscape:connector-curvature="0" />
        </g>
      </g>
    </g>
  </g>
  <path
     style="color:#000000;display:inline;overflow:visible;visibility:visible;opacity:0.2;fill:#000000;fill-opacity:1;fill-rule:nonzero;stroke:none;stroke-width:1;marker:none;enable-background:accumulate"
     d="m 14.82599,184.74532 v 2 c 0,35.29673 3.624067,39.09488 38.992187,38.92188 h 73.007803 73.00586 c 35.36811,0.17299 38.99414,-3.62515 38.99414,-38.92188 v -2 c 0,35.29673 -3.62603,39.09488 -38.99414,38.92188 H 126.82598 53.818177 C 18.450057,223.84019 14.82599,220.04205 14.82599,184.74532 Z"
     id="rect4158-6"
     inkscape:connector-curvature="0" />
</svg>
