<?xml version="1.0" encoding="UTF-8" standalone="no"?>
<svg
   xmlns:osb="http://www.openswatchbook.org/uri/2009/osb"
   xmlns:dc="http://purl.org/dc/elements/1.1/"
   xmlns:cc="http://creativecommons.org/ns#"
   xmlns:rdf="http://www.w3.org/1999/02/22-rdf-syntax-ns#"
   xmlns:svg="http://www.w3.org/2000/svg"
   xmlns="http://www.w3.org/2000/svg"
   xmlns:xlink="http://www.w3.org/1999/xlink"
   xmlns:sodipodi="http://sodipodi.sourceforge.net/DTD/sodipodi-0.dtd"
   xmlns:inkscape="http://www.inkscape.org/namespaces/inkscape"
   width="256"
   height="256"
   version="1.1"
   id="svg72"
   sodipodi:docname="chrome-aohghmighlieiainnegkcijnfilokake-Default.svg"
   inkscape:version="0.92.4 (5da689c313, 2019-01-14)">
  <metadata
     id="metadata76">
    <rdf:RDF>
      <cc:Work
         rdf:about="">
        <dc:format>image/svg+xml</dc:format>
        <dc:type
           rdf:resource="http://purl.org/dc/dcmitype/StillImage" />
        <dc:title></dc:title>
      </cc:Work>
    </rdf:RDF>
  </metadata>
  <sodipodi:namedview
     pagecolor="#ffffff"
     bordercolor="#666666"
     borderopacity="1"
     objecttolerance="10"
     gridtolerance="10"
     guidetolerance="10"
     inkscape:pageopacity="0"
     inkscape:pageshadow="2"
     inkscape:window-width="1920"
     inkscape:window-height="1016"
     id="namedview74"
     showgrid="false"
     inkscape:zoom="0.921875"
     inkscape:cx="128"
     inkscape:cy="128"
     inkscape:window-x="0"
     inkscape:window-y="27"
     inkscape:window-maximized="1"
     inkscape:current-layer="g1029" />
  <defs
     id="defs26">
    <linearGradient
       id="linearGradient5606"
       osb:paint="solid">
      <stop
         id="stop5608"
         offset="0"
         style="stop-color:#000000" />
    </linearGradient>
    <linearGradient
       id="linearGradient4526"
       osb:paint="solid">
      <stop
         id="stop4528"
         offset="0"
         style="stop-color:#ffffff" />
    </linearGradient>
    <linearGradient
       id="linearGradient3600-4"
       osb:paint="gradient">
      <stop
         id="stop3602-7"
         offset="0"
         style="stop-color:#f4f4f4" />
      <stop
         id="stop3604-6"
         offset="1"
         style="stop-color:#dbdbdb" />
    </linearGradient>
    <linearGradient
       id="linearGradient9039"
       x1="64"
       x2="64"
       y1="92"
       y2="108"
       gradientTransform="translate(-24.666462,-28.825235)"
       gradientUnits="userSpaceOnUse"
       xlink:href="#linearGradient9037" />
    <linearGradient
       id="linearGradient9037">
      <stop
         style="stop-color:#000000"
         id="stop9033"
         offset="0" />
      <stop
         style="stop-color:#f1f0e9;stop-opacity:0"
         id="stop9035"
         offset="1" />
    </linearGradient>
    <linearGradient
       id="linearGradient7182"
       x1="101.812"
       x2="201.072"
       y1="42"
       y2="268"
       gradientTransform="translate(-24.666462,-28.825235)"
       gradientUnits="userSpaceOnUse"
       xlink:href="#linearGradient4245" />
    <linearGradient
       id="linearGradient4245">
      <stop
         id="stop4241"
         offset="0"
         style="stop-color:#e8e8e8" />
      <stop
         id="stop4243"
         offset="1"
         style="stop-color:#f5f5f5" />
    </linearGradient>
    <linearGradient
       id="linearGradient4358"
       x1="88"
       x2="488"
       y1="88"
       y2="488"
       gradientUnits="userSpaceOnUse"
       xlink:href="#linearGradient4360" />
    <linearGradient
       id="linearGradient4360">
      <stop
         id="stop4362"
         offset="0"
         style="stop-color:#000000;stop-opacity:0.58823532" />
      <stop
         style="stop-color:#000000;stop-opacity:0"
         id="stop4364"
         offset=".88" />
      <stop
         id="stop4366"
         offset="1"
         style="stop-color:#000000" />
    </linearGradient>
    <filter
       style="color-interpolation-filters:sRGB"
       id="filter4380"
       width="1.106"
       height="1.088"
       x="-.05"
       y="-.04">
      <feGaussianBlur
         id="feGaussianBlur4382"
         stdDeviation="8.48" />
    </filter>
    <filter
       style="color-interpolation-filters:sRGB"
       id="filter4346"
       width="1.026"
       height="1.022"
       x="-.01"
       y="-.01">
      <feGaussianBlur
         id="feGaussianBlur4348"
         stdDeviation="2.12" />
    </filter>
    <filter
       style="color-interpolation-filters:sRGB"
       id="filter4346-3"
       width="1.026"
       height="1.022"
       x="-0.0099999998"
       y="-0.0099999998">
      <feGaussianBlur
         id="feGaussianBlur4348-6"
         stdDeviation="2.12" />
    </filter>
    <filter
       style="color-interpolation-filters:sRGB"
       id="filter4380-5"
       width="1.1059999"
       height="1.0880001"
       x="-0.050000001"
       y="-0.039999999">
      <feGaussianBlur
         id="feGaussianBlur4382-6"
         stdDeviation="8.48" />
    </filter>
    <linearGradient
       id="linearGradient7182-2"
       x1="101.812"
       x2="201.07201"
       y1="42"
       y2="268"
       gradientTransform="matrix(0.77152918,0,0,0.77152918,54.851922,-16.499621)"
       gradientUnits="userSpaceOnUse"
       xlink:href="#linearGradient4221" />
    <linearGradient
       id="linearGradient4221">
      <stop
         style="stop-color:#fee581"
         id="stop4223"
         offset="0" />
      <stop
         style="stop-color:#fff4c9"
         id="stop4225"
         offset="1" />
    </linearGradient>
    <linearGradient
       inkscape:collect="always"
       xlink:href="#linearGradient4360"
       id="linearGradient937"
       gradientUnits="userSpaceOnUse"
       x1="88"
       y1="88"
       x2="488"
       y2="488" />
    <filter
       style="color-interpolation-filters:sRGB"
       y="-.03"
       x="-.02"
       height="1.05"
       width="1.046"
       id="filter925">
      <feGaussianBlur
         stdDeviation="2.32"
         id="feGaussianBlur2" />
    </filter>
    <filter
       style="color-interpolation-filters:sRGB"
       y="-.01"
       x="-.01"
       height="1.025"
       width="1.023"
       id="filter931">
      <feGaussianBlur
         stdDeviation="1.16"
         id="feGaussianBlur5" />
    </filter>
    <linearGradient
       gradientUnits="userSpaceOnUse"
       y2="236"
       y1="-212"
       x2="296"
       x1="296"
       id="linearGradient1108">
      <stop
         offset="0"
         id="stop8"
         style="stop-color:#ffffff" />
      <stop
         offset=".125"
         id="stop10"
         style="stop-color:#ffffff;stop-opacity:.09803922" />
      <stop
         offset=".925"
         id="stop12"
         style="stop-color:#000000;stop-opacity:.09803922" />
      <stop
         offset="1"
         id="stop14"
         style="stop-color:#000000;stop-opacity:.49803922" />
    </linearGradient>
    <clipPath
       id="clipPath1082-3">
      <path
         id="path11"
         d="M 361.9375,-212 C 507.2348,-212 528,-191.28677 528,-46.125 V 70.125 C 528,215.28618 507.2348,236 361.9375,236 H 214.0625 C 68.7652,236 48,215.28618 48,70.125 V -46.125 C 48,-191.28677 68.7652,-212 214.0625,-212 Z"
         style="fill:#8c59d9" />
    </clipPath>
    <filter
       style="color-interpolation-filters:sRGB"
       y="-.02"
       x="-.04"
       height="1.034"
       width="1.079"
       id="filter1576">
      <feGaussianBlur
         stdDeviation=".513"
         id="feGaussianBlur20" />
    </filter>
  </defs>
  <path
     style="opacity:0.1;filter:url(#filter4346)"
     d="M 189.84323,74 C 119.24979,74 111.65402,81.250835 112,151.98706 V 298 444.01294 C 111.65402,514.74917 119.24979,522 189.84323,522 H 386.15677 C 456.75021,522 462.16345,514.72616 464,444.01294 V 298 151.98706 C 464,81.249993 456.75021,74 386.15677,74 Z"
     transform="matrix(0.5,0,0,0.5,-16.666462,-20.825235)"
     id="path28" />
  <path
     d="M 189.84323,74 C 119.24979,74 111.65402,81.250835 112,151.98706 V 298 444.01294 C 111.65402,514.74917 119.24979,522 189.84323,522 H 386.15677 C 456.75021,522 464,514.75001 464,444.01294 V 298 151.98706 C 464,81.249993 456.75021,74 386.15677,74 Z"
     transform="matrix(0.5,0,0,0.5,-16.666462,-20.825235)"
     style="opacity:0.3;fill:url(#linearGradient4358);filter:url(#filter4380)"
     id="path30" />
  <path
     style="opacity:0.1"
     d="m 77.145138,13.174766 c -36.098811,0 -39.983003,3.690158 -39.806081,39.689841 v 74.310153 74.31016 c -0.176922,35.99969 3.70727,39.68984 39.806081,39.68984 H 177.53246 c 36.09881,0 39.80608,-3.68973 39.80608,-39.68984 V 127.17476 52.864607 c 0,-36.000112 -3.70727,-39.689841 -39.80608,-39.689841 z"
     id="path32" />
  <path
     style="fill:url(#linearGradient7182)"
     d="m 176.40652,15.174766 c 35.29673,0 39.09461,3.625418 38.92162,38.993529 v 73.006465 73.00647 c 0.17299,35.36812 -3.62489,38.99353 -38.92162,38.99353 H 78.249758 c -35.296716,0 -38.921616,-3.625 -38.921616,-38.99353 V 127.17476 54.168295 c 0,-35.368532 3.6249,-38.993529 38.921616,-38.993529 z"
     id="path34" />
  <path
     style="fill:#ffffff"
     d="m 210.74515,137.49881 -51.99414,51.99414 h 13.07227 c 35.29673,0 39.09486,-3.62602 38.92187,-38.99414 z"
     id="path36"
     inkscape:connector-curvature="0" />
  <path
     style="opacity:0.2"
     d="m 78.260818,239.17476 c -35.296731,0 -39.094875,-3.62603 -38.921885,-38.99414 v -2 c -0.17299,35.36811 3.625154,38.99414 38.921885,38.99414 h 98.156242 c 35.29673,0 38.92188,-3.62561 38.92188,-38.99414 v 2 c 0,35.36853 -3.62515,38.99414 -38.92188,38.99414 z"
     id="path38" />
  <path
     style="opacity:0.2;fill:#ffffff"
     d="m 39.327679,127.17476 v 73.00586 c 0,35.36853 3.625159,38.99414 38.921879,38.99414 h 98.156252 c 35.29673,0 39.09486,-3.62602 38.92187,-38.99414 v -73.00586 z"
     id="path40" />
  <path
     style="fill:#f76363"
     d="m 78.249558,15.174766 c -35.29672,0 -38.921879,3.625608 -38.921879,38.99414 v 9.005859 H 215.32768 v -9.005859 c 0.17299,-35.368111 -3.62514,-38.99414 -38.92187,-38.99414 z"
     id="path42" />
  <path
     style="opacity:0.2;fill:#ffffff"
     d="M 127.33354,15.174766 V 239.17476 h 49.07227 c 35.29673,0 39.09486,-3.62602 38.92187,-38.99414 V 127.17476 54.168906 c 0.17299,-35.368111 -3.62514,-38.99414 -38.92187,-38.99414 z"
     id="path44" />
  <path
     style="opacity:0.5;fill:#f76363"
     d="m 78.249558,15.174766 c -35.29672,0 -38.921879,3.625608 -38.921879,38.99414 v 9.005859 H 215.32768 v -9.005859 c 0.17299,-35.368111 -3.62514,-38.99414 -38.92187,-38.99414 z"
     id="path46" />
  <path
     style="opacity:0.2"
     d="m 78.260818,239.17476 c -35.296731,0 -39.094875,-3.62603 -38.921885,-38.99414 v -2 c -0.17299,35.36811 3.625154,38.99414 38.921885,38.99414 h 98.156242 c 35.29673,0 38.92188,-3.62561 38.92188,-38.99414 v 2 c 0,35.36853 -3.62515,38.99414 -38.92188,38.99414 z"
     id="path48" />
  <path
     style="fill:#5d5d5d"
     d="m 87.914518,83.247875 -19.73348,52.000265 h -4.8475 v 3.99999 h 13.99986 v -3.99999 h -4.48214 l 4.67576,-12.00839 h 23.201522 l 4.67022,12.00839 h -6.055222 v 3.99999 h 20.082502 v -3.99999 h -5.54 L 94.147018,83.247875 Z m 1.21326,9.0025 10.21576,27.006115 h -20.25978 z"
     font-size="13.717"
     font-weight="400"
     letter-spacing="0"
     overflow="visible"
     word-spacing="0"
     id="path50" />
  <path
     style="fill:#e3dfd5;fill-opacity:0.99607843"
     d="m 122.75101,37.567173 v 4 h 64 v -4 z"
     id="path52"
     inkscape:connector-curvature="0" />
  <path
     style="fill:#e3dfd5;fill-opacity:0.99607843"
     d="m 122.75101,53.567178 v 4 h 64 v -4 z"
     id="path54"
     inkscape:connector-curvature="0" />
  <path
     style="fill:#e3dfd5;fill-opacity:0.99607843"
     d="m 122.75101,69.492948 v 4 h 64 v -4 z"
     id="path56"
     inkscape:connector-curvature="0" />
  <path
     style="fill:#e3dfd5;fill-opacity:0.99607843"
     d="m 122.75101,85.492948 v 4 h 64 v -4 z"
     id="path58"
     inkscape:connector-curvature="0" />
  <path
     style="fill:#e3dfd5;fill-opacity:0.99607843"
     d="m 63.333538,151.17476 v 4 l 128.000002,0.0742 v -4 z"
     id="path60" />
  <path
     style="fill:#e3dfd5;fill-opacity:0.99607843"
     d="m 63.333538,167.17476 v 4 H 191.33354 v -4 z"
     id="path62" />
  <path
     style="fill:#e3dfd5;fill-opacity:0.99607843"
     d="m 63.333538,199.17476 v 4 h 88.000002 v -4 z"
     id="path64" />
  <path
     style="opacity:0.3;fill:#ffffff"
     d="m 78.255418,15.174766 c -35.296728,0 -39.09487,3.626029 -38.92188,38.99414 v 2 c -0.17299,-35.368111 3.625152,-38.99414 38.92188,-38.99414 h 98.156242 c 35.29673,0 38.92188,3.625608 38.92188,38.99414 v -2 c 0,-35.368532 -3.62515,-38.99414 -38.92188,-38.99414 z"
     id="path66" />
  <rect
     style="opacity:0.15;fill:url(#linearGradient9039)"
     width="176"
     height="16"
     x="39.33"
     y="63.17"
     id="rect68" />
  <path
     style="fill:#e3dfd5;fill-opacity:0.99607843"
     d="m 63.333538,183.17476 v 4 H 191.33354 v -4 z"
     id="path70" />
  <path
     inkscape:connector-curvature="0"
     style="opacity:0.1;filter:url(#filter4346-3)"
     d="M 189.84323,74 C 119.24979,74 111.65402,81.250835 112,151.98706 V 298 444.01294 C 111.65402,514.74917 119.24979,522 189.84323,522 H 386.15677 C 456.75021,522 462.16345,514.72616 464,444.01294 V 298 151.98706 C 464,81.249993 456.75021,74 386.15677,74 Z"
     transform="matrix(0.38576459,0,0,0.38576459,61.024152,-10.327387)"
     id="path24" />
  <path
     inkscape:connector-curvature="0"
     d="M 189.84323,74 C 119.24979,74 111.65402,81.250835 112,151.98706 V 298 444.01294 C 111.65402,514.74917 119.24979,522 189.84323,522 H 386.15677 C 456.75021,522 464,514.75001 464,444.01294 V 298 151.98706 C 464,81.249993 456.75021,74 386.15677,74 Z"
     transform="matrix(0.38576459,0,0,0.38576459,61.024152,-10.327387)"
     style="opacity:0.3;fill:url(#linearGradient937);filter:url(#filter4380-5)"
     id="path26" />
  <path
     inkscape:connector-curvature="0"
     style="opacity:0.1;stroke-width:0.7715292"
     d="m 133.40254,15.904605 c -27.85128,0 -30.84805,2.847065 -30.71155,30.621873 v 57.332452 57.33246 c -0.1365,27.77481 2.86027,30.62187 30.71155,30.62187 h 77.45176 c 27.85128,0 30.71155,-2.84673 30.71155,-30.62187 V 103.85893 46.526478 c 0,-27.775139 -2.86027,-30.621873 -30.71155,-30.621873 z"
     id="path28-9" />
  <path
     inkscape:connector-curvature="0"
     style="fill:url(#linearGradient7182-2);stroke-width:0.7715292"
     d="m 209.9856,17.447664 c 27.23246,0 30.16263,2.797115 30.02917,30.084644 v 56.326622 56.32663 c 0.13346,27.28753 -2.79671,30.08464 -30.02917,30.08464 h -75.73081 c -27.23244,0 -30.02916,-2.79679 -30.02916,-30.08464 V 103.85893 47.532308 c 0,-27.287853 2.79672,-30.084644 30.02916,-30.084644 z"
     id="path30-1" />
  <path
     inkscape:connector-curvature="0"
     style="opacity:0.2;fill:#ffffff;stroke-width:0.7715292"
     d="m 240.01441,150.15521 -40.11499,40.11499 h 10.08563 c 27.23246,0 30.16283,-2.79758 30.02936,-30.08511 z"
     id="path32-2" />
  <path
     inkscape:connector-curvature="0"
     style="opacity:0.2;stroke-width:0.7715292"
     d="m 134.26332,190.2702 c -27.23246,0 -30.16283,-2.79759 -30.02937,-30.08511 v -1.54306 c -0.13346,27.28753 2.79691,30.08511 30.02937,30.08511 h 75.73041 c 27.23246,0 30.02937,-2.79726 30.02937,-30.08511 v 1.54306 c 0,27.28785 -2.79691,30.08511 -30.02937,30.08511 z"
     id="path34-7" />
  <path
     inkscape:connector-curvature="0"
     style="fill:#fdc92b;stroke-width:0.7715292"
     d="m 134.25463,17.447664 c -27.23245,0 -30.02936,2.797262 -30.02936,30.085114 v 6.94829 h 135.78914 v -6.94829 c 0.13347,-27.287527 -2.7969,-30.085114 -30.02936,-30.085114 z"
     id="path36-0" />
  <path
     inkscape:connector-curvature="0"
     style="opacity:0.2;fill:#ef5145;fill-opacity:0.99607843;stroke-width:0.7715292"
     d="M 116.57426,54.481068 V 189.88142 c 1.01665,0.0221 2.04054,0.0435 3.08611,0.0633 V 54.481068 Z"
     id="path38-9" />
  <path
     inkscape:connector-curvature="0"
     style="opacity:0.15;fill:#5c81df;fill-opacity:0.99607843;stroke-width:0.7715292"
     d="m 104.22527,79.169998 v 3.08612 h 135.78914 v -3.08612 z m 0,18.5167 v 3.086122 h 135.78914 v -3.086122 z m 0,18.516702 v 3.08612 h 135.78914 v -3.08612 z m 0,18.5167 v 3.08612 h 135.78914 v -3.08612 z m 0,18.5167 v 3.08612 h 135.78914 v -3.08612 z m 0.3285,18.5167 c 0.0826,1.08652 0.17995,2.12184 0.30439,3.08612 h 134.5776 c 0.12249,-0.96428 0.21733,-1.9996 0.29687,-3.08612 z"
     id="path40-3" />
  <path
     inkscape:connector-curvature="0"
     style="opacity:0.2;stroke-width:0.7715292"
     d="m 134.26332,190.2702 c -27.23246,0 -30.16283,-2.79759 -30.02937,-30.08511 v -1.54306 c -0.13346,27.28753 2.79691,30.08511 30.02937,30.08511 h 75.73041 c 27.23246,0 30.02937,-2.79726 30.02937,-30.08511 v 1.54306 c 0,27.28785 -2.79691,30.08511 -30.02937,30.08511 z"
     id="path42-6" />
  <path
     inkscape:connector-curvature="0"
     style="fill:#fac82e;stroke-width:0.7715292"
     d="m 110.40654,57.567178 c -1.70441,0 -3.08611,1.38171 -3.08611,3.08612 0,1.70442 1.3817,3.08612 3.08611,3.08612 1.70442,0 3.08612,-1.3817 3.08612,-3.08612 0,-1.70441 -1.3817,-3.08612 -3.08612,-3.08612 z m 12.34447,0 c -1.70441,0 -3.08612,1.38171 -3.08612,3.08612 0,1.70442 1.38171,3.08612 3.08612,3.08612 1.70442,0 3.08612,-1.3817 3.08612,-3.08612 0,-1.70441 -1.3817,-3.08612 -3.08612,-3.08612 z m 12.34447,0 c -1.70441,0 -3.08612,1.38171 -3.08612,3.08612 0,1.70442 1.38171,3.08612 3.08612,3.08612 1.70441,0 3.08611,-1.3817 3.08611,-3.08612 0,-1.70441 -1.3817,-3.08612 -3.08611,-3.08612 z m 12.34446,0 c -1.70441,0 -3.08611,1.38171 -3.08611,3.08612 0,1.70442 1.3817,3.08612 3.08611,3.08612 1.70442,0 3.08612,-1.3817 3.08612,-3.08612 0,-1.70441 -1.3817,-3.08612 -3.08612,-3.08612 z m 12.34447,0 c -1.70441,0 -3.08612,1.38171 -3.08612,3.08612 0,1.70442 1.38171,3.08612 3.08612,3.08612 1.70442,0 3.08612,-1.3817 3.08612,-3.08612 0,-1.70441 -1.3817,-3.08612 -3.08612,-3.08612 z m 12.34447,0 c -1.70442,0 -3.08612,1.38171 -3.08612,3.08612 0,1.70442 1.3817,3.08612 3.08612,3.08612 1.70441,0 3.08612,-1.3817 3.08612,-3.08612 0,-1.70441 -1.38171,-3.08612 -3.08612,-3.08612 z m 12.34447,0 c -1.70441,0 -3.08611,1.38171 -3.08611,3.08612 0,1.70442 1.3817,3.08612 3.08611,3.08612 1.70441,0 3.08612,-1.3817 3.08612,-3.08612 0,-1.70441 -1.38171,-3.08612 -3.08612,-3.08612 z m 12.34447,0 c -1.70441,0 -3.08612,1.38171 -3.08612,3.08612 0,1.70442 1.38171,3.08612 3.08612,3.08612 1.70442,0 3.08612,-1.3817 3.08612,-3.08612 0,-1.70441 -1.3817,-3.08612 -3.08612,-3.08612 z m 12.34447,0 c -1.70441,0 -3.08612,1.38171 -3.08612,3.08612 0,1.70442 1.38171,3.08612 3.08612,3.08612 1.70441,0 3.08611,-1.3817 3.08611,-3.08612 0,-1.70441 -1.3817,-3.08612 -3.08611,-3.08612 z m 12.34446,0 c -1.70441,0 -3.08611,1.38171 -3.08611,3.08612 0,1.70442 1.3817,3.08612 3.08611,3.08612 1.70442,0 3.08612,-1.3817 3.08612,-3.08612 0,-1.70441 -1.3817,-3.08612 -3.08612,-3.08612 z m 12.34447,0 c -1.70442,0 -3.08612,1.38171 -3.08612,3.08612 0,1.70442 1.3817,3.08612 3.08612,3.08612 1.70442,0 3.08612,-1.3817 3.08612,-3.08612 0,-1.70441 -1.3817,-3.08612 -3.08612,-3.08612 z"
     id="path44-0" />
  <path
     inkscape:connector-curvature="0"
     style="opacity:0.3;fill:#ffffff;stroke-width:0.7715292"
     d="m 134.25916,17.447664 c -27.23246,0 -30.16284,2.797587 -30.02937,30.085114 v 1.54306 c -0.13347,-27.287529 2.79691,-30.085116 30.02937,-30.085116 h 75.73041 c 27.23245,0 30.02936,2.797262 30.02936,30.085116 v -1.54306 c 0,-27.287852 -2.79691,-30.085114 -30.02936,-30.085114 z"
     id="path46-6" />
  <path
     inkscape:connector-curvature="0"
     d="m 135.09096,72.997768 v 6.17223 H 215.33 v -6.17223 z m 0,18.5167 v 6.17223 H 215.33 v -6.17223 z m 0,18.516702 v 6.17223 H 215.33 v -6.17223 z m 0,18.5167 v 6.17223 h 37.10256 v -6.17223 z"
     style="fill:#1463a5;stroke-width:0.7715292"
     id="path48-2" />
  <g
     style="enable-background:new"
     id="g1029"
     transform="matrix(2.5457626,0,0,2.5457626,-398.33343,15.511878)">
    <path
       id="path58-2"
       d="m 207.54601,-2.4814419 a 1.3175933,1.3175933 0 0 0 -1.31899,1.324618 l 0.1398,28.2578169 c -0.008,0.09725 -0.11094,1.411763 -0.0473,3.051699 0.066,1.701359 0.19506,3.677119 1.19836,5.217313 1.12349,1.724715 3.02277,3.414702 5.79902,3.414702 2.70506,0 5.22799,-1.280051 6.70878,-3.37299 1.08767,-1.537322 1.20024,-3.531199 1.25584,-5.245496 0.0532,-1.640689 -0.0659,-2.95489 -0.0767,-3.070865 l -0.10366,-9.381694 a 1.3179453,1.3179453 0 1 0 -2.63571,0.03043 l 0.10713,9.411004 a 1.3175933,1.3175933 0 0 0 0.006,0.110476 c 0,0 0.12048,1.287676 0.071,2.813831 -0.0495,1.526159 -0.40604,3.288041 -0.77562,3.810397 -0.94423,1.334571 -2.70112,2.261438 -4.55668,2.261438 -1.78441,0 -2.72207,-0.885327 -3.59057,-2.218598 -0.37384,-0.573891 -0.71419,-2.354798 -0.77335,-3.880292 -0.0591,-1.525495 0.044,-2.80594 0.044,-2.80594 a 1.3175933,1.3175933 0 0 0 0.004,-0.111607 L 208.871,0.15426714 h 12.65548 v 0.193903 h 2.63571 V -1.1624629 a 1.3175933,1.3175933 0 0 0 -1.31898,-1.318985 z"
       style="fill:#00c02e;fill-opacity:1"
       inkscape:connector-curvature="0" />
  </g>
</svg>
