<svg height="256" width="256" xmlns="http://www.w3.org/2000/svg" xmlns:xlink="http://www.w3.org/1999/xlink">
  <filter id="filter11191" color-interpolation-filters="sRGB" height="1.024" width="1.024" x="-.01" y="-.01">
    <feGaussianBlur stdDeviation="1.12"/>
  </filter>
  <filter id="filter11210" color-interpolation-filters="sRGB" height="1.096" width="1.096" x="-.05" y="-.05">
    <feGaussianBlur stdDeviation="4.48"/>
  </filter>
  <circle cx="128.752" cy="127.248" filter="url(#filter11210)" opacity=".1" r="112"/>
  <circle cx="128.752" cy="125.248" filter="url(#filter11191)" opacity=".1" r="112"/>
  <circle cx="128.752" cy="123.248" opacity=".1" r="114"/>
  <circle cx="-128.752" cy="-123.248" fill="#fb7c38" r="112" transform="scale(-1)"/>
  <path d="m128.752 11.248005a112 112 0 0 0 -111.999999 112.000005 112 112 0 0 0 .04102 1.16992 112 112 0 0 1 111.958979-111.169925 112 112 0 0 1 111.95898 110.830085 112 112 0 0 0 .041-.83008 112 112 0 0 0 -112-112.000005z" fill="#fff" opacity=".3"/>
  <path d="m128.752 235.24801a112 112 0 0 1 -111.999999-112 112 112 0 0 1 .04102-1.16992 112 112 0 0 0 111.958979 111.16992 112 112 0 0 0 111.95898-110.83008 112 112 0 0 1 .041.83008 112 112 0 0 1 -112 112z" opacity=".2"/>
  <path d="m16.757812 123.13281a112 112 0 0 0 -.005859.11524 112 112 0 0 0 .28125 7.92187 112 112 0 0 0 1.347656 11.11524 112 112 0 0 0 2.453125 10.92187 112 112 0 0 0 3.529297 10.625 112 112 0 0 0 4.574219 10.21875 112 112 0 0 0 5.570312 9.71094 112 112 0 0 0 6.511719 9.10742 112 112 0 0 0 7.388672 8.41016 112 112 0 0 0 8.191406 7.63086 112 112 0 0 0 8.91211 6.77539 112 112 0 0 0 9.544922 5.85156 112 112 0 0 0 10.080078 4.86914 112 112 0 0 0 10.517578 3.83984 112 112 0 0 0 10.847653 2.76953 112 112 0 0 0 11.06836 1.67188 112 112 0 0 0 11.17188.56055h.00976c2.92661-.00184 5.94305-.19061 8.96875-.40821a112 112 0 0 0 10.06836-1.2207 112 112 0 0 0 10.92188-2.45312 112 112 0 0 0 10.625-3.5293 112 112 0 0 0 10.21875-4.57422 112 112 0 0 0 9.71093-5.57031 112 112 0 0 0 9.10743-6.51172 112 112 0 0 0 8.41015-7.38867 112 112 0 0 0 7.63086-8.19141 112 112 0 0 0 6.77539-8.91211 112 112 0 0 0 5.85157-9.54492 112 112 0 0 0 4.86914-10.08008 112 112 0 0 0 3.83984-10.51758 112 112 0 0 0 2.76953-10.84765 112 112 0 0 0 1.67383-11.06836 112 112 0 0 0 .55859-11.18164 112 112 0 0 0 -.0039-.11524z" fill="#fff" opacity=".25"/>
  <g transform="translate(-1.542618 -.731056)">
    <circle cx="130.295" cy="123.979" fill="#faf8f6" r="96"/>
    <path d="m130.07011 43.97986c-9.97868-.0476-19.28381 1.96412-23.7753 4.15632.006.032-.006-.19-.00018-.1572.76204 1.57492 23.99999 59.99999 23.99999 59.99999l24-59.99999c-4.76344-2.1908-14.2554-3.9516-24.22461-3.99916z" fill="#cbe667"/>
    <path d="m130.07011 203.9782c-9.97868.048-19.28381-1.96408-23.7753-4.15632.006-.032-.006.19-.00018.1572.76208-1.57488 23.99999-59.99999 23.99999-59.99999l24 59.99999c-4.76344 2.19084-14.2554 3.9516-24.22461 3.9992z" fill="#f22c42"/>
    <path d="m210.29289 123.75541c.048-9.97868-1.96409-19.2838-4.15632-23.775275-.032.008.18992-.008.15712-.0002-1.57489.762085-59.99999 23.999995-59.99999 23.999995l59.99999 24c2.19083-4.76344 3.95161-14.2554 3.99919-24.2246z" fill="#e97cc8"/>
    <path d="m50.294551 123.75541c-.048-9.97868 1.9641-19.2838 4.15632-23.775275.032.008-.18992-.008-.15712-.0002 1.57489.762085 59.999999 23.999995 59.999999 23.999995l-59.999999 24c-2.19083-4.76344-3.95161-14.2554-3.99918-24.2246z" fill="#fda463"/>
    <path d="m186.70356 67.252978c-7.02233-7.089639-15.02454-12.246919-19.75064-13.872719-.0184.028.12976-.1388.11096-.1112-.5748 1.65248-25.45584 59.396951-25.45584 59.396951l59.39697-25.455835c-1.8191-4.917399-7.28588-12.874278-14.30153-19.957237z" fill="#76c22b"/>
    <path d="m73.567641 180.38888c-7.08993-7.02208-12.24688-15.02456-13.87271-19.75064.0268-.02-.13884.1296-.11124.1108 1.65249-.57472 59.396979-25.45583 59.396979-25.45583l-25.455849 59.39695c-4.91741-1.81912-12.8743-7.28588-19.95724-14.30152z" fill="#f34f17"/>
    <path d="m187.0198 180.38888c7.08965-7.02232 12.24689-15.02456 13.87271-19.75064-.0272-.02.13888.1296.11128.1108-1.65247-.5748-59.39696-25.45583-59.39696-25.45583l25.45584 59.39695c4.9174-1.81912 12.87429-7.28588 19.95723-14.30156z" fill="#da1636"/>
    <path d="m73.883881 67.252978c7.02205-7.089919 15.02455-12.246879 19.75064-13.872719.0184.028-.12976-.1388-.11096-.1112.57472 1.65248 25.455849 59.396951 25.455849 59.396951l-59.396979-25.455835c1.81911-4.917399 7.28588-12.874278 14.30154-19.957237z" fill="#fee581"/>
    <path d="m128.52734 43.248047c-9.94277-.047429-19.21091 1.949818-23.7207 4.132812.03806.081535.57882 1.436965.69141 1.707032 4.70925-2.06427 13.5374-3.885123 23.02929-3.839844 9.51962.045415 18.5934 1.654491 23.54102 3.707031l.68359-1.707031c-4.76344-2.1908-14.2554-3.95244-24.22461-4zm-23.7207 4.132812c-.00302-.006464-.05216-.127592-.05469-.132812-.00582-.0328.006.18825 0 .15625.01616-.007888.03841-.015555.05469-.023438zm-12.826171 5.15625c.001915.005506.054188.126066.05664.132813.016867-.005863.037904-.015711.054688-.021484.0184.027999-.130128-.138929-.111328-.111329zm.05664.132813c-4.732441 1.645037-12.6982 6.786822-19.695312 13.851562-7.01566 7.082959-12.483623 15.039633-14.302735 19.957032l.71875.308593c2.301847-4.931669 7.322095-11.943666 13.583985-18.265625 6.997112-7.06474 14.962871-12.206525 19.695312-13.851562-.00245-.006747-.05474-.127313-.05664-.132813-.0188-.0276.129728.139328.111328.111329-.01679.005769-.037818.015584-.054688.021484.702521 1.932506 22.423341 52.350458 24.345701 56.812498l1.05469.45313s-24.666709-57.247403-25.400391-59.265628zm73.484371-.132813c.0188-.0276-.12972.139328-.11132.111329.01678.005772.03782.015621.05468.021484.00246-.006747.05473-.127307.05664-.132813zm-.05664.132813c-.73376 2.018225-25.40039 59.265628-25.40039 59.265628l1.05469-.45313c1.92236-4.46204 23.64311-54.879992 24.3457-56.812498-.0169-.00586-.03788-.015684-.05468-.021484-.0184.027999.13012-.138929.11132-.111329-.0019.005506-.05464.126113-.05664.132813 4.73245 1.645 12.69792 6.787101 19.69532 13.851562 6.26188 6.321959 11.28214 13.333956 13.58398 18.265625l.71875-.308593c-1.8191-4.917399-7.28708-12.874073-14.30273-19.957032-6.9974-7.064461-14.96287-12.206562-19.69532-13.851562zm-112.712887 46.578125c.005286.002558.128204.051625.134766.054687.007547-.015586.013933-.037262.021484-.052734.032.008-.18905-.009753-.15625-.001953zm.134766.054687c-2.18341 4.509006-4.182601 13.776396-4.134766 23.720706.001404.29414.019083.58179.023438.875.101485-9.50994 2.011141-18.25856 4.111328-22.59571-.006562-.0031-.129466-.05168-.134766-.05468-.0328-.008.18825.00995.15625.00195-.00755.0154-.013984.03713-.021484.05273 1.865023.87037 52.803271 21.13488 57.359371 22.94727l2.50586-1.00195s-57.916599-23.03594-59.865231-23.945316zm151.865231-.054687c.0328-.0078-.1902.009953-.1582.001953.00765.01568.01579.036937.02344.052734.00656-.003061.12948-.05213.13476-.054687zm-.13476.054687c-1.94857.909346-59.86524 23.945316-59.86524 23.945316l2.50586 1.00195c4.55611-1.8124 55.49441-22.07693 57.35938-22.94727-.0076-.0158-.01544-.03703-.02344-.05273-.032.008.191-.00995.1582-.00195-.00528.0026-.12776.05168-.13476.05468 2.10008 4.33737 4.00799 13.08617 4.10937 22.59571.00435-.29321.02204-.58086.02344-.875.04783-9.94385-1.94951-19.21147-4.13281-23.720706zm-87.17969 35.259766s-57.245411 24.66475-59.263672 25.39844c.182998.52644.424032 1.1063.691406 1.70703 3.737295-1.4836 55.547066-23.80169 57.521486-24.65235zm-59.263672 25.39844c-.005865-.01687-.015708-.0379-.021484-.05469.0268-.02-.138928.13013-.111328.11133.005505-.00192.126065-.05419.132812-.05664zm81.890622-25.39844 1.05078 2.45312c1.97442.85066 53.78421 23.16868 57.52149 24.65235.26738-.60073.50841-1.18059.6914-1.70703-2.01824-.73377-59.26367-25.39844-59.26367-25.39844zm59.26367 25.39844c.00675.00245.12731.05472.13282.05664.0276.0188-.13853-.13133-.11133-.11133-.00578.01679-.01561.03782-.02149.05469zm-70.57617-20.71289s-23.03776 57.92318-23.94531 59.86718c.20451.099.46771.19491.69141.29297 2.57182-6.16917 23.2539-58.16015 23.2539-58.16015l23.31641 58.29297c.23367-.09694.46877-.19417.68359-.29297zm-23.94531 59.86718c-.01628-.00788-.03853-.01555-.05469-.02343.006-.032-.00582.18905 0 .15625.00253-.00522.05167-.12635.05469-.13282z" fill="#f7fbe8" opacity=".3" transform="translate(1.542618 .731056)"/>
    <path d="m153.61097 47.686137-23.3164 58.292973s-20.68212-51.990952-23.25391-58.16016c-.2237.09806-.4869.193975-.69141.292968.90751 1.944044 23.94532 59.867192 23.94532 59.867192l24-60.000004c-.21483-.0988-.44993-.196031-.6836-.292969zm-47.26172.425781c-.003-.0065-.0522-.127592-.0547-.132812-.006-.0328.006.18825 0 .15625.0162-.0079.0384-.01555.0547-.02344zm-46.048818 37.40625c-.27709.593646-.52331 1.163076-.71876 1.691407l59.398438 25.457035s-.96942-2.25522-1.05468-2.45312zm139.986318 0-57.625 24.695322c-.0853.19789-1.05468 2.45312-1.05468 2.45312l59.39843-25.457035c-.19544-.528331-.44166-1.097761-.71875-1.691407zm-149.968748 37.111332c-.004.37684-.02526.74596-.02343 1.125.0476 9.9692 1.80917 19.46117 4 24.22461l59.999998-24s-2.30162-.9168-2.50586-.99805l-57.494138 22.99805c-2.12619-4.62289-3.8333-13.70548-3.97657-23.34961zm159.951178 0c-.14315 9.64413-1.84842 18.72672-3.97461 23.34961l-57.49414-22.99805c-.20422.0812-2.50586.99805-2.50586.99805l60 24c2.19083-4.76344 3.95046-14.25541 3.99804-24.22461.002-.37902-.0194-.74817-.0234-1.125zm-91.28907 12.66406s-1.01352.43708-1.05078.45313l-24.404298 56.94336c-4.91741-1.81912-12.87409-7.28514-19.95703-14.30078-6.27884-6.21876-11.024-13.19079-13.16015-17.99024-.06625.0263-.6569.28043-.69141.29297 1.64503 4.73243 6.78682 12.70014 13.85156 19.69727 7.08294 7.01564 15.03962 12.48166 19.95703 14.30078zm-59.263668 25.39844c-.006-.0169-.01568-.0379-.02148-.0547.0268-.02-.13893.13013-.11133.11133.005-.002.12607-.0542.13281-.0566zm81.890628-25.39844 25.45508 59.39649c4.9174-1.81912 12.87409-7.2851 19.95703-14.30078 7.06447-6.99737 12.20654-14.96484 13.85156-19.69727-.0345-.0126-.62516-.26667-.69141-.29297-2.13619 4.79941-6.88155 11.77127-13.16015 17.99024-7.08294 7.01568-15.03963 12.48166-19.95703 14.30078l-24.4043-56.94336c-.0373-.0161-1.05078-.45313-1.05078-.45313zm59.26367 25.39844c.007.002.1273.0547.13281.0566.0276.0188-.13853-.13133-.11133-.11133-.006.0168-.0156.0378-.0215.0547zm-93.83008 37.44727c-.11259.27006-.65334 1.6255-.69141 1.70703 4.50979 2.18304 13.77794 4.18063 23.72071 4.13281 9.96921-.0476 19.46117-1.80916 24.22461-4l-.6836-1.70898c-4.94757 2.0526-14.02127 3.66353-23.54101 3.70898-9.49189.0456-18.32005-1.77551-23.0293-3.83984zm-.69141 1.70703c-.0163-.008-.0385-.0156-.0547-.0234.006-.032-.006.18905 0 .15625.003-.005.0517-.12634.0547-.13281z" fill="#121504" opacity=".2"/>
    <g transform="translate(1.542618 .731056)">
      <path d="m128.75195 27.248047a95.999992 95.999992 0 0 0 -95.999997 96.000003 95.999992 95.999992 0 0 0 .041016 1.17187 95.999992 95.999992 0 0 1 95.958981-95.171873 95.999992 95.999992 0 0 1 95.95899 94.828123 95.999992 95.999992 0 0 0 .04101-.82812 95.999992 95.999992 0 0 0 -96-96.000003z" fill="#efefef" opacity=".3"/>
      <path d="m224.71094 122.07617a95.999992 95.999992 0 0 1 -95.95899 95.17188 95.999992 95.999992 0 0 1 -95.958981-94.82813 95.999992 95.999992 0 0 0 -.041016.82813 95.999992 95.999992 0 0 0 95.999997 96 95.999992 95.999992 0 0 0 96-96 95.999992 95.999992 0 0 0 -.04101-1.17188z" fill="#252525" opacity=".2"/>
    </g>
  </g>
</svg>
