<svg xmlns="http://www.w3.org/2000/svg" xmlns:osb="http://www.openswatchbook.org/uri/2009/osb" width="256" height="256" version="1.1">
 <defs>
  <linearGradient id="linearGradient5606" osb:paint="solid">
   <stop id="stop5608" offset="0" style="stop-color:#000000"/>
  </linearGradient>
  <linearGradient id="linearGradient4526" osb:paint="solid">
   <stop id="stop4528" offset="0" style="stop-color:#ffffff"/>
  </linearGradient>
  <linearGradient id="linearGradient3600-4" osb:paint="gradient">
   <stop id="stop3602-7" offset="0" style="stop-color:#f4f4f4"/>
   <stop id="stop3604-6" offset="1" style="stop-color:#dbdbdb"/>
  </linearGradient>
  <clipPath id="clipPath999" clipPathUnits="userSpaceOnUse">
   <path style="fill:#5d5d5d" d="m 152,68 c -48.60106,0 -88,39.39894 -88,88 0,48.60106 39.39894,88 88,88 48.60106,0 88,-39.39894 88,-88 0,-48.60106 -39.39894,-88 -88,-88 z"/>
  </clipPath>
  <filter style="color-interpolation-filters:sRGB" id="filter11191" width="1.024" height="1.024" x="-.01" y="-.01">
   <feGaussianBlur id="feGaussianBlur11193" stdDeviation="1.12"/>
  </filter>
  <filter style="color-interpolation-filters:sRGB" id="filter11210" width="1.096" height="1.096" x="-.05" y="-.05">
   <feGaussianBlur id="feGaussianBlur11212" stdDeviation="4.48"/>
  </filter>
 </defs>
 <circle style="opacity:0.1;filter:url(#filter11210)" cx="128.752" cy="127.248" r="112"/>
 <circle style="opacity:0.1;filter:url(#filter11191)" cx="128.752" cy="125.248" r="112"/>
 <circle style="opacity:0.1" cx="128.752" cy="123.248" r="114"/>
 <circle style="fill:#fb7c38" cx="-128.752" cy="-123.248" r="112" transform="scale(-1)"/>
 <path style="opacity:0.3;fill:#ffffff" d="M 128.752,11.248005 A 112,112 0 0 0 16.752001,123.24801 112,112 0 0 0 16.793021,124.41793 112,112 0 0 1 128.752,13.248005 112,112 0 0 1 240.71098,124.07809 a 112,112 0 0 0 0.041,-0.83008 112,112 0 0 0 -112,-112.000005 z"/>
 <path style="opacity:0.2" d="m 128.752,235.24801 a 112,112 0 0 1 -111.999999,-112 112,112 0 0 1 0.04102,-1.16992 112,112 0 0 0 111.958979,111.16992 112,112 0 0 0 111.95898,-110.83008 112,112 0 0 1 0.041,0.83008 112,112 0 0 1 -112,112 z"/>
 <path style="opacity:0.25;fill:#ffffff" d="M 16.757812 123.13281 A 112 112 0 0 0 16.751953 123.24805 A 112 112 0 0 0 17.033203 131.16992 A 112 112 0 0 0 18.380859 142.28516 A 112 112 0 0 0 20.833984 153.20703 A 112 112 0 0 0 24.363281 163.83203 A 112 112 0 0 0 28.9375 174.05078 A 112 112 0 0 0 34.507812 183.76172 A 112 112 0 0 0 41.019531 192.86914 A 112 112 0 0 0 48.408203 201.2793 A 112 112 0 0 0 56.599609 208.91016 A 112 112 0 0 0 65.511719 215.68555 A 112 112 0 0 0 75.056641 221.53711 A 112 112 0 0 0 85.136719 226.40625 A 112 112 0 0 0 95.654297 230.24609 A 112 112 0 0 0 106.50195 233.01562 A 112 112 0 0 0 117.57031 234.6875 A 112 112 0 0 0 128.74219 235.24805 C 128.74537 235.24805 128.74877 235.24805 128.75195 235.24805 C 131.67856 235.24621 134.695 235.05744 137.7207 234.83984 A 112 112 0 0 0 147.78906 233.61914 A 112 112 0 0 0 158.71094 231.16602 A 112 112 0 0 0 169.33594 227.63672 A 112 112 0 0 0 179.55469 223.0625 A 112 112 0 0 0 189.26562 217.49219 A 112 112 0 0 0 198.37305 210.98047 A 112 112 0 0 0 206.7832 203.5918 A 112 112 0 0 0 214.41406 195.40039 A 112 112 0 0 0 221.18945 186.48828 A 112 112 0 0 0 227.04102 176.94336 A 112 112 0 0 0 231.91016 166.86328 A 112 112 0 0 0 235.75 156.3457 A 112 112 0 0 0 238.51953 145.49805 A 112 112 0 0 0 240.19336 134.42969 A 112 112 0 0 0 240.75195 123.24805 A 112 112 0 0 0 240.74805 123.13281 L 16.757812 123.13281 z"/>
 <g transform="translate(-1.5426178,-0.73105621)">
  <circle cx="130.295" cy="123.979" r="96" style="fill:#faf8f6"/>
  <path d="m 130.07011,43.97986 c -9.97868,-0.0476 -19.28381,1.96412 -23.7753,4.15632 0.006,0.032 -0.006,-0.19 -1.8e-4,-0.1572 0.76204,1.57492 23.99999,59.99999 23.99999,59.99999 l 24,-59.99999 c -4.76344,-2.1908 -14.2554,-3.9516 -24.22461,-3.99916 z" style="fill:#cbe667"/>
  <path d="m 130.07011,203.9782 c -9.97868,0.048 -19.28381,-1.96408 -23.7753,-4.15632 0.006,-0.032 -0.006,0.19 -1.8e-4,0.1572 0.76208,-1.57488 23.99999,-59.99999 23.99999,-59.99999 l 24,59.99999 c -4.76344,2.19084 -14.2554,3.9516 -24.22461,3.9992 z" style="fill:#f22c42"/>
  <path d="m 210.29289,123.75541 c 0.048,-9.97868 -1.96409,-19.2838 -4.15632,-23.775275 -0.032,0.008 0.18992,-0.008 0.15712,-2e-4 -1.57489,0.762085 -59.99999,23.999995 -59.99999,23.999995 l 59.99999,24 c 2.19083,-4.76344 3.95161,-14.2554 3.99919,-24.2246 z" style="fill:#e97cc8"/>
  <path d="m 50.294551,123.75541 c -0.048,-9.97868 1.9641,-19.2838 4.15632,-23.775275 0.032,0.008 -0.18992,-0.008 -0.15712,-2e-4 1.57489,0.762085 59.999999,23.999995 59.999999,23.999995 l -59.999999,24 c -2.19083,-4.76344 -3.95161,-14.2554 -3.99918,-24.2246 z" style="fill:#fda463"/>
  <path d="m 186.70356,67.252978 c -7.02233,-7.089639 -15.02454,-12.246919 -19.75064,-13.872719 -0.0184,0.028 0.12976,-0.1388 0.11096,-0.1112 -0.5748,1.65248 -25.45584,59.396951 -25.45584,59.396951 l 59.39697,-25.455835 c -1.8191,-4.917399 -7.28588,-12.874278 -14.30153,-19.957237 z" style="fill:#76c22b"/>
  <path d="m 73.567641,180.38888 c -7.08993,-7.02208 -12.24688,-15.02456 -13.87271,-19.75064 0.0268,-0.02 -0.13884,0.1296 -0.11124,0.1108 1.65249,-0.57472 59.396979,-25.45583 59.396979,-25.45583 l -25.455849,59.39695 c -4.91741,-1.81912 -12.8743,-7.28588 -19.95724,-14.30152 z" style="fill:#f34f17"/>
  <path d="m 187.0198,180.38888 c 7.08965,-7.02232 12.24689,-15.02456 13.87271,-19.75064 -0.0272,-0.02 0.13888,0.1296 0.11128,0.1108 -1.65247,-0.5748 -59.39696,-25.45583 -59.39696,-25.45583 l 25.45584,59.39695 c 4.9174,-1.81912 12.87429,-7.28588 19.95723,-14.30156 z" style="fill:#da1636"/>
  <path d="m 73.883881,67.252978 c 7.02205,-7.089919 15.02455,-12.246879 19.75064,-13.872719 0.0184,0.028 -0.12976,-0.1388 -0.11096,-0.1112 0.57472,1.65248 25.455849,59.396951 25.455849,59.396951 L 59.582431,87.210175 c 1.81911,-4.917399 7.28588,-12.874278 14.30154,-19.957237 z" style="fill:#fee581"/>
  <path style="fill:#f7fbe8;opacity:0.3" d="M 128.52734 43.248047 C 118.58457 43.200618 109.31643 45.197865 104.80664 47.380859 C 104.8447 47.462394 105.38546 48.817824 105.49805 49.087891 C 110.2073 47.023621 119.03545 45.202768 128.52734 45.248047 C 138.04696 45.293462 147.12074 46.902538 152.06836 48.955078 L 152.75195 47.248047 C 147.98851 45.057247 138.49655 43.295607 128.52734 43.248047 z M 104.80664 47.380859 C 104.80362 47.374395 104.75448 47.253267 104.75195 47.248047 C 104.74613 47.215247 104.75795 47.436297 104.75195 47.404297 C 104.76811 47.396409 104.79036 47.388742 104.80664 47.380859 z M 91.980469 52.537109 C 91.982384 52.542615 92.034657 52.663175 92.037109 52.669922 C 92.053976 52.664059 92.075013 52.654211 92.091797 52.648438 C 92.110197 52.676437 91.961669 52.509509 91.980469 52.537109 z M 92.037109 52.669922 C 87.304668 54.314959 79.338909 59.456744 72.341797 66.521484 C 65.326137 73.604443 59.858174 81.561117 58.039062 86.478516 L 58.757812 86.787109 C 61.059659 81.85544 66.079907 74.843443 72.341797 68.521484 C 79.338909 61.456744 87.304668 56.314959 92.037109 54.669922 C 92.034659 54.663175 91.982369 54.542609 91.980469 54.537109 C 91.961669 54.509509 92.110197 54.676437 92.091797 54.648438 C 92.075007 54.654207 92.053979 54.664022 92.037109 54.669922 C 92.73963 56.602428 114.46045 107.02038 116.38281 111.48242 L 117.4375 111.93555 C 117.4375 111.93555 92.770791 54.688147 92.037109 52.669922 z M 165.52148 52.537109 C 165.54028 52.509509 165.39176 52.676437 165.41016 52.648438 C 165.42694 52.65421 165.44798 52.664059 165.46484 52.669922 C 165.4673 52.663175 165.51957 52.542615 165.52148 52.537109 z M 165.46484 52.669922 C 164.73108 54.688147 140.06445 111.93555 140.06445 111.93555 L 141.11914 111.48242 C 143.0415 107.02038 164.76225 56.602428 165.46484 54.669922 C 165.44794 54.664062 165.42696 54.654238 165.41016 54.648438 C 165.39176 54.676437 165.54028 54.509509 165.52148 54.537109 C 165.51958 54.542615 165.46684 54.663222 165.46484 54.669922 C 170.19729 56.314922 178.16276 61.457023 185.16016 68.521484 C 191.42204 74.843443 196.4423 81.85544 198.74414 86.787109 L 199.46289 86.478516 C 197.64379 81.561117 192.17581 73.604443 185.16016 66.521484 C 178.16276 59.457023 170.19729 54.314922 165.46484 52.669922 z M 52.751953 99.248047 C 52.757239 99.250605 52.880157 99.299672 52.886719 99.302734 C 52.894266 99.287148 52.900652 99.265472 52.908203 99.25 C 52.940203 99.258 52.719153 99.240247 52.751953 99.248047 z M 52.886719 99.302734 C 50.703309 103.81174 48.704118 113.07913 48.751953 123.02344 C 48.753357 123.31758 48.771036 123.60523 48.775391 123.89844 C 48.876876 114.3885 50.786532 105.63988 52.886719 101.30273 C 52.880157 101.29963 52.757253 101.25105 52.751953 101.24805 C 52.719153 101.24005 52.940203 101.258 52.908203 101.25 C 52.900653 101.2654 52.894219 101.28713 52.886719 101.30273 C 54.751742 102.1731 105.68999 122.43761 110.24609 124.25 L 112.75195 123.24805 C 112.75195 123.24805 54.835351 100.21211 52.886719 99.302734 z M 204.75195 99.248047 C 204.78475 99.240247 204.56175 99.258 204.59375 99.25 C 204.6014 99.26568 204.60954 99.286937 204.61719 99.302734 C 204.62375 99.299673 204.74667 99.250604 204.75195 99.248047 z M 204.61719 99.302734 C 202.66862 100.21208 144.75195 123.24805 144.75195 123.24805 L 147.25781 124.25 C 151.81392 122.4376 202.75222 102.17307 204.61719 101.30273 C 204.60959 101.28693 204.60175 101.2657 204.59375 101.25 C 204.56175 101.258 204.78475 101.24005 204.75195 101.24805 C 204.74667 101.25065 204.62419 101.29973 204.61719 101.30273 C 206.71727 105.6401 208.62518 114.3889 208.72656 123.89844 C 208.73091 123.60523 208.7486 123.31758 208.75 123.02344 C 208.79783 113.07959 206.80049 103.81197 204.61719 99.302734 z M 117.4375 134.5625 C 117.4375 134.5625 60.192089 159.22725 58.173828 159.96094 C 58.356826 160.48738 58.59786 161.06724 58.865234 161.66797 C 62.602529 160.18437 114.4123 137.86628 116.38672 137.01562 L 117.4375 134.5625 z M 58.173828 159.96094 C 58.167963 159.94407 58.15812 159.92304 58.152344 159.90625 C 58.179144 159.88625 58.013416 160.03638 58.041016 160.01758 C 58.046521 160.01566 58.167081 159.96339 58.173828 159.96094 z M 140.06445 134.5625 L 141.11523 137.01562 C 143.08965 137.86628 194.89944 160.1843 198.63672 161.66797 C 198.9041 161.06724 199.14513 160.48738 199.32812 159.96094 C 197.30988 159.22717 140.06445 134.5625 140.06445 134.5625 z M 199.32812 159.96094 C 199.33487 159.96339 199.45543 160.01566 199.46094 160.01758 C 199.48854 160.03638 199.32241 159.88625 199.34961 159.90625 C 199.34383 159.92304 199.334 159.94407 199.32812 159.96094 z M 128.75195 139.24805 C 128.75195 139.24805 105.71419 197.17123 104.80664 199.11523 C 105.01115 199.21423 105.27435 199.31014 105.49805 199.4082 C 108.06987 193.23903 128.75195 141.24805 128.75195 141.24805 L 152.06836 199.54102 C 152.30203 199.44408 152.53713 199.34685 152.75195 199.24805 L 128.75195 139.24805 z M 104.80664 199.11523 C 104.79036 199.10735 104.76811 199.09968 104.75195 199.0918 C 104.75795 199.0598 104.74613 199.28085 104.75195 199.24805 C 104.75448 199.24283 104.80362 199.1217 104.80664 199.11523 z" transform="translate(1.5426178,0.73105621)"/>
  <path style="fill:#121504;opacity:0.2" d="m 153.61097,47.686137 -23.3164,58.292973 c 0,0 -20.68212,-51.990952 -23.25391,-58.16016 -0.2237,0.09806 -0.4869,0.193975 -0.69141,0.292968 0.90751,1.944044 23.94532,59.867192 23.94532,59.867192 l 24,-60.000004 c -0.21483,-0.0988 -0.44993,-0.196031 -0.6836,-0.292969 z m -47.26172,0.425781 c -0.003,-0.0065 -0.0522,-0.127592 -0.0547,-0.132812 -0.006,-0.0328 0.006,0.18825 0,0.15625 0.0162,-0.0079 0.0384,-0.01555 0.0547,-0.02344 z m -46.048818,37.40625 c -0.27709,0.593646 -0.52331,1.163076 -0.71876,1.691407 l 59.398438,25.457035 c 0,0 -0.96942,-2.25522 -1.05468,-2.45312 z m 139.986318,0 -57.625,24.695322 c -0.0853,0.19789 -1.05468,2.45312 -1.05468,2.45312 L 201.0055,87.209575 c -0.19544,-0.528331 -0.44166,-1.097761 -0.71875,-1.691407 z M 50.318002,122.6295 c -0.004,0.37684 -0.02526,0.74596 -0.02343,1.125 0.0476,9.9692 1.80917,19.46117 4,24.22461 l 59.999998,-24 c 0,0 -2.30162,-0.9168 -2.50586,-0.99805 l -57.494138,22.99805 c -2.12619,-4.62289 -3.8333,-13.70548 -3.97657,-23.34961 z m 159.951178,0 c -0.14315,9.64413 -1.84842,18.72672 -3.97461,23.34961 l -57.49414,-22.99805 c -0.20422,0.0812 -2.50586,0.99805 -2.50586,0.99805 l 60,24 c 2.19083,-4.76344 3.95046,-14.25541 3.99804,-24.22461 0.002,-0.37902 -0.0194,-0.74817 -0.0234,-1.125 z m -91.28907,12.66406 c 0,0 -1.01352,0.43708 -1.05078,0.45313 l -24.404298,56.94336 c -4.91741,-1.81912 -12.87409,-7.28514 -19.95703,-14.30078 -6.27884,-6.21876 -11.024,-13.19079 -13.16015,-17.99024 -0.06625,0.0263 -0.6569,0.28043 -0.69141,0.29297 1.64503,4.73243 6.78682,12.70014 13.85156,19.69727 7.08294,7.01564 15.03962,12.48166 19.95703,14.30078 z M 59.716442,160.692 c -0.006,-0.0169 -0.01568,-0.0379 -0.02148,-0.0547 0.0268,-0.02 -0.13893,0.13013 -0.11133,0.11133 0.005,-0.002 0.12607,-0.0542 0.13281,-0.0566 z m 81.890628,-25.39844 25.45508,59.39649 c 4.9174,-1.81912 12.87409,-7.2851 19.95703,-14.30078 7.06447,-6.99737 12.20654,-14.96484 13.85156,-19.69727 -0.0345,-0.0126 -0.62516,-0.26667 -0.69141,-0.29297 -2.13619,4.79941 -6.88155,11.77127 -13.16015,17.99024 -7.08294,7.01568 -15.03963,12.48166 -19.95703,14.30078 l -24.4043,-56.94336 c -0.0373,-0.0161 -1.05078,-0.45313 -1.05078,-0.45313 z m 59.26367,25.39844 c 0.007,0.002 0.1273,0.0547 0.13281,0.0566 0.0276,0.0188 -0.13853,-0.13133 -0.11133,-0.11133 -0.006,0.0168 -0.0156,0.0378 -0.0215,0.0547 z m -93.83008,37.44727 c -0.11259,0.27006 -0.65334,1.6255 -0.69141,1.70703 4.50979,2.18304 13.77794,4.18063 23.72071,4.13281 9.96921,-0.0476 19.46117,-1.80916 24.22461,-4 l -0.6836,-1.70898 c -4.94757,2.0526 -14.02127,3.66353 -23.54101,3.70898 -9.49189,0.0456 -18.32005,-1.77551 -23.0293,-3.83984 z m -0.69141,1.70703 c -0.0163,-0.008 -0.0385,-0.0156 -0.0547,-0.0234 0.006,-0.032 -0.006,0.18905 0,0.15625 0.003,-0.005 0.0517,-0.12634 0.0547,-0.13281 z"/>
  <path style="fill:#efefef;opacity:0.3" d="M 128.75195 27.248047 A 95.999992 95.999992 0 0 0 32.751953 123.24805 A 95.999992 95.999992 0 0 0 32.792969 124.41992 A 95.999992 95.999992 0 0 1 128.75195 29.248047 A 95.999992 95.999992 0 0 1 224.71094 124.07617 A 95.999992 95.999992 0 0 0 224.75195 123.24805 A 95.999992 95.999992 0 0 0 128.75195 27.248047 z" transform="translate(1.5426178,0.73105621)"/>
  <path style="fill:#252525;opacity:0.2" d="M 224.71094 122.07617 A 95.999992 95.999992 0 0 1 128.75195 217.24805 A 95.999992 95.999992 0 0 1 32.792969 122.41992 A 95.999992 95.999992 0 0 0 32.751953 123.24805 A 95.999992 95.999992 0 0 0 128.75195 219.24805 A 95.999992 95.999992 0 0 0 224.75195 123.24805 A 95.999992 95.999992 0 0 0 224.71094 122.07617 z" transform="translate(1.5426178,0.73105621)"/>
 </g>
</svg>
