<?xml version="1.0" encoding="UTF-8" standalone="no"?>
<svg
   xmlns:osb="http://www.openswatchbook.org/uri/2009/osb"
   xmlns:dc="http://purl.org/dc/elements/1.1/"
   xmlns:cc="http://creativecommons.org/ns#"
   xmlns:rdf="http://www.w3.org/1999/02/22-rdf-syntax-ns#"
   xmlns:svg="http://www.w3.org/2000/svg"
   xmlns="http://www.w3.org/2000/svg"
   xmlns:xlink="http://www.w3.org/1999/xlink"
   xmlns:sodipodi="http://sodipodi.sourceforge.net/DTD/sodipodi-0.dtd"
   xmlns:inkscape="http://www.inkscape.org/namespaces/inkscape"
   width="256"
   height="256"
   version="1.1"
   id="svg57"
   sodipodi:docname="com.github.phase1geo.minder.svg"
   inkscape:version="0.92.4 (5da689c313, 2019-01-14)">
  <metadata
     id="metadata61">
    <rdf:RDF>
      <cc:Work
         rdf:about="">
        <dc:format>image/svg+xml</dc:format>
        <dc:type
           rdf:resource="http://purl.org/dc/dcmitype/StillImage" />
        <dc:title></dc:title>
      </cc:Work>
    </rdf:RDF>
  </metadata>
  <sodipodi:namedview
     pagecolor="#ffffff"
     bordercolor="#666666"
     borderopacity="1"
     objecttolerance="10"
     gridtolerance="10"
     guidetolerance="10"
     inkscape:pageopacity="0"
     inkscape:pageshadow="2"
     inkscape:window-width="1920"
     inkscape:window-height="1016"
     id="namedview59"
     showgrid="false"
     inkscape:zoom="4.3100358"
     inkscape:cx="126.92922"
     inkscape:cy="126.80283"
     inkscape:window-x="0"
     inkscape:window-y="27"
     inkscape:window-maximized="1"
     inkscape:current-layer="svg57" />
  <defs
     id="defs27">
    <linearGradient
       id="linearGradient5606"
       osb:paint="solid">
      <stop
         id="stop5608"
         offset="0"
         style="stop-color:#000000" />
    </linearGradient>
    <linearGradient
       id="linearGradient4526"
       osb:paint="solid">
      <stop
         id="stop4528"
         offset="0"
         style="stop-color:#ffffff" />
    </linearGradient>
    <linearGradient
       id="linearGradient3600-4"
       osb:paint="gradient">
      <stop
         id="stop3602-7"
         offset="0"
         style="stop-color:#f4f4f4" />
      <stop
         id="stop3604-6"
         offset="1"
         style="stop-color:#dbdbdb" />
    </linearGradient>
    <linearGradient
       id="linearGradient4210">
      <stop
         style="stop-color:#d78ec1"
         id="stop4212"
         offset="0" />
      <stop
         id="stop4218"
         offset=".646"
         style="stop-color:#d78ec1" />
      <stop
         style="stop-color:#d78ec1;stop-opacity:0"
         id="stop4214"
         offset="1" />
    </linearGradient>
    <linearGradient
       id="linearGradient1108"
       x1="56"
       x2="56"
       y1="288"
       y2="83.578"
       gradientTransform="matrix(0.5,0,0,0.5,12,10)"
       gradientUnits="userSpaceOnUse"
       spreadMethod="reflect"
       xlink:href="#linearGradient4210" />
    <radialGradient
       id="radialGradient3322"
       cx="26.617"
       cy="-2.065"
       r="23"
       gradientTransform="matrix(-4.8906e-8,-2.8515,3.7557,0,674.00149,398.26285)"
       gradientUnits="userSpaceOnUse">
      <stop
         id="stop2749"
         offset="0"
         style="stop-color:#d280b9" />
      <stop
         style="stop-color:#b549b5"
         id="stop4269"
         offset=".529" />
      <stop
         id="stop2755"
         offset="1"
         style="stop-color:#8940a8" />
    </radialGradient>
    <linearGradient
       id="linearGradient4358"
       x1="88"
       x2="488"
       y1="88"
       y2="488"
       gradientTransform="rotate(-90,287.9946,298)"
       gradientUnits="userSpaceOnUse"
       xlink:href="#linearGradient4360" />
    <linearGradient
       id="linearGradient4360">
      <stop
         id="stop4362"
         offset="0"
         style="stop-color:#000000;stop-opacity:0.58823532" />
      <stop
         style="stop-color:#000000;stop-opacity:0"
         id="stop4364"
         offset=".88" />
      <stop
         id="stop4366"
         offset="1"
         style="stop-color:#000000" />
    </linearGradient>
    <filter
       style="color-interpolation-filters:sRGB"
       id="filter4380"
       width="1.106"
       height="1.088"
       x="-.05"
       y="-.04">
      <feGaussianBlur
         id="feGaussianBlur4382"
         stdDeviation="8.48" />
    </filter>
    <filter
       style="color-interpolation-filters:sRGB"
       id="filter4346"
       width="1.026"
       height="1.022"
       x="-.01"
       y="-.01">
      <feGaussianBlur
         id="feGaussianBlur4348"
         stdDeviation="2.12" />
    </filter>
    <linearGradient
       id="linearGradient1533">
      <stop
         id="stop1525"
         style="stop-color:#ffffff;stop-opacity:1"
         offset="0" />
      <stop
         id="stop1527-7"
         style="stop-color:#ffffff;stop-opacity:0.23529412"
         offset="0.62697953" />
      <stop
         id="stop1529-4"
         style="stop-color:#ffffff;stop-opacity:0.15686275"
         offset="0.86322731" />
      <stop
         id="stop1531"
         style="stop-color:#ffffff;stop-opacity:0.39215687"
         offset="1" />
    </linearGradient>
    <clipPath
       clipPathUnits="userSpaceOnUse"
       id="clipPath3168">
      <path
         inkscape:connector-curvature="0"
         id="use3170"
         d="m 272.58004,33.21005 5.75,0.57 5.68,0.79 5.6,1.01 5.53,1.22 5.44,1.42 5.36,1.63 5.26,1.82 5.17,2.02 5.06,2.21 4.96,2.39 4.85,2.58 4.73,2.74 4.61,2.92 4.49,3.09 4.36,3.25 4.22,3.4 4.09,3.56 3.94,3.7 3.8,3.85 2.02,2.22 1.67,-1.38 2.9,-2.22 2.99,-2.1 3.07,-1.99 3.15,-1.88 3.23,-1.75 3.3,-1.63 3.38,-1.51 3.44,-1.38 3.5,-1.24 3.57,-1.11 3.62,-0.97 3.68,-0.83 3.73,-0.69 3.78,-0.54 3.83,-0.39 3.87,-0.24 3.91,-0.07 3.91,0.07 3.87,0.24 3.83,0.39 3.78,0.54 3.74,0.69 3.68,0.83 3.62,0.97 3.57,1.11 3.5,1.24 3.44,1.38 3.37,1.51 3.31,1.63 3.22,1.75 3.15,1.88 3.08,1.99 2.98,2.1 2.91,2.22 2.81,2.32 2.72,2.43 2.63,2.52 2.53,2.63 2.42,2.72 2.32,2.81 2.22,2.91 2.1,2.99 1.99,3.07 1.88,3.15 1.75,3.23 1.63,3.3 1.04,2.32 2.73,0.27 4.47,0.6 4.41,0.77 4.35,0.94 4.28,1.09 4.21,1.25 4.14,1.4 4.07,1.55 3.98,1.69 3.9,1.84 3.82,1.97 3.72,2.11 3.63,2.24 3.53,2.36 3.43,2.49 3.32,2.62 3.22,2.72 3.1,2.85 2.99,2.95 2.87,3.06 2.74,3.16 2.62,3.27 2.48,3.36 2.35,3.45 2.22,3.55 2.07,3.63 1.93,3.71 1.78,3.79 1.63,3.87 1.47,3.94 1.31,4.01 1.15,4.08 0.98,4.14 0.81,4.19 0.64,4.26 0.46,4.3 0.28,4.35 0.09,4.4 -0.09,4.4 -0.28,4.35 -0.46,4.31 -0.64,4.25 -0.81,4.19 -0.98,4.14 -1.15,4.08 -1.31,4.01 -1.47,3.94 -1.63,3.87 -1.78,3.79 -1.93,3.71 -2.07,3.63 -2.22,3.55 -2.35,3.45 -2.48,3.36 -2.62,3.27 -2.74,3.16 -2.87,3.06 -2.99,2.95 -3.1,2.85 -3.22,2.73 -3.32,2.61 -3.43,2.49 -3.53,2.36 -3.63,2.24 -3.72,2.11 -0.68,0.35 0.07,3.11 -0.09,4.34 -0.26,4.3 -0.43,4.25 -0.6,4.2 -0.77,4.14 -0.92,4.09 -1.08,4.02 -1.23,3.96 -1.38,3.89 -1.53,3.82 -1.67,3.75 -1.82,3.66 -1.94,3.59 -2.08,3.5 -2.21,3.41 -2.34,3.32 -2.46,3.22 -2.58,3.12 -2.69,3.02 -2.81,2.92 -2.92,2.81 -3.02,2.69 -3.12,2.58 -3.22,2.46 -3.32,2.33 -3.41,2.21 -3.5,2.09 -3.59,1.94 -3.66,1.82 -3.75,1.67 -3.82,1.53 -3.89,1.38 -3.96,1.23 -4.02,1.08 -4.09,0.92 -4.14,0.77 -4.2,0.59 -4.25,0.44 -4.3,0.26 -4.34,0.09 -4.34,-0.09 -4.3,-0.26 -4.25,-0.44 -4.2,-0.59 -4.14,-0.77 -4.09,-0.92 -4.02,-1.08 -3.96,-1.23 -3.89,-1.38 -3.82,-1.53 -3.75,-1.67 -2.09,-1.04 -3.49,4.01 -3.74,3.98 -3.89,3.83 -4.03,3.68 -4.16,3.52 -4.3,3.35 -4.42,3.19 -4.54,3.02 -4.67,2.84 -4.78,2.66 -4.88,2.47 -4.99,2.28 -5.1,2.09 -5.18,1.89 -5.28,1.68 -5.37,1.47 -5.44,1.26 -5.53,1.04 -5.59,0.82 -5.67,0.59 -5.73,0.36 -5.78,0.12 -5.79,-0.12 -5.73,-0.36 -5.66,-0.59 -5.6,-0.82 -5.52,-1.04 -5.45,-1.26 -5.37,-1.47 -5.27,-1.68 -5.19,-1.89 -5.09,-2.09 -4.99,-2.28 -4.89,-2.47 -4.78,-2.66 -4.66,-2.84 -4.55,-3.02 -4.42,-3.19 -4.3,-3.35 -4.16,-3.52 -4.03,-3.68 -3.89,-3.83 -3.74,-3.98 -3.59,-4.13 -3.44,-4.26 -3.27,-4.4 -3.12,-4.53 -2.94,-4.66 -2.78,-4.77 -0.97,-1.83 -0.16,0.04 -4.9,1.12 -4.97,0.93 -5.03,0.73 -5.1,0.53 -5.15,0.32 -5.2,0.1 -5.21,-0.1 -5.15,-0.32 -5.09,-0.53 -5.04,-0.73 -4.96,-0.93 -4.9,-1.12 -4.82,-1.31 -4.75,-1.51 -4.67,-1.68 -4.570002,-1.86 -4.49,-2.04 -4.4,-2.21 -4.29,-2.37 -4.2,-2.53 -4.09,-2.69 -3.97,-2.85 -3.87,-3 -3.74,-3.14 -3.62,-3.28 -3.5,-3.42 -3.36,-3.55 -3.23,-3.68 -3.09,-3.8 -2.95,-3.93 -2.8,-4.04 -2.65,-4.15 -2.5,-4.26 -2.33,-4.37 -2.17,-4.46 -2.01,-4.56 -1.83,-4.66 -1.66,-4.74 -1.47,-4.82 -1.3,-4.9 -1.1,-4.98 -0.92,-5.04 -0.72,-5.12 -0.51,-5.17 -0.32,-5.24 -0.1,-5.29 0.1,-5.28 0.32,-5.24 0.51,-5.17 0.72,-5.12 0.92,-5.04 1.1,-4.98 1.3,-4.9 1.47,-4.82 1.66,-4.74 1.83,-4.66 2.01,-4.56 2.17,-4.46 2.33,-4.37 2.5,-4.26 2.65,-4.15 2.8,-4.04 2.95,-3.93 3.09,-3.8 3.23,-3.68 3.36,-3.55 3.5,-3.42 3.62,-3.28 3.74,-3.15 3.87,-2.99 3.97,-2.85 4.09,-2.69 4.2,-2.53 4.29,-2.38 4.4,-2.2 4.49,-2.04 4.570002,-1.86 4.67,-1.68 4.75,-1.51 4.82,-1.31 4.9,-1.12 2.2,-0.41 0.83,-3.04 1.67,-5.23 1.87,-5.14 2.07,-5.04 2.26,-4.94 2.45,-4.85 2.63,-4.73 2.82,-4.62 2.99,-4.5 3.16,-4.38 3.32,-4.26 3.49,-4.12 3.65,-4 3.79,-3.85 3.95,-3.7 4.08,-3.56 4.23,-3.4 4.36,-3.25 4.49,-3.09 4.61,-2.92 4.73,-2.74 4.85,-2.58 4.96,-2.39 5.06,-2.21 5.17,-2.02 5.26,-1.82 5.36,-1.63 5.44,-1.42 5.53,-1.22 5.6,-1.01 5.68,-0.79 5.75,-0.57 5.81,-0.35 5.87,-0.11 5.88,0.11 z"
         style="fill-opacity:1;stroke-width:1" />
    </clipPath>
    <mask
       maskUnits="userSpaceOnUse"
       id="mask1558">
      <path
         inkscape:connector-curvature="0"
         id="use1560"
         d="m 452.91,509.7 c 0,26.48 -23.62,47.98 -52.7,47.98 -29.09,0 -52.71,-21.5 -52.71,-47.98 0,-26.47 23.62,-47.97 52.71,-47.97 29.08,0 52.7,21.5 52.7,47.97 z"
         style="fill:#e0e0e0;fill-opacity:1;stroke:none;stroke-width:10;stroke-miterlimit:4;stroke-dasharray:none;stroke-opacity:0.74509804" />
    </mask>
    <filter
       id="shadow4519085"
       x="329.5"
       y="443.73001"
       width="142.41"
       height="141.95"
       filterUnits="userSpaceOnUse"
       primitiveUnits="userSpaceOnUse">
      <feFlood
         id="feFlood45" />
      <feComposite
         in2="SourceAlpha"
         operator="in"
         id="feComposite47" />
      <feGaussianBlur
         stdDeviation="1"
         id="feGaussianBlur49" />
      <feOffset
         dx="1"
         dy="10"
         result="afterOffset"
         id="feOffset51" />
      <feFlood
         flood-color="#cccccc"
         flood-opacity="1"
         id="feFlood53" />
      <feComposite
         in2="afterOffset"
         operator="in"
         id="feComposite55" />
      <feMorphology
         operator="dilate"
         radius="1"
         id="feMorphology57" />
      <feComposite
         in2="SourceAlpha"
         operator="out"
         id="feComposite59" />
    </filter>
    <mask
       maskUnits="userSpaceOnUse"
       id="mask2665">
      <path
         inkscape:connector-curvature="0"
         id="use2663"
         d="m 452.91,509.7 c 0,26.48 -23.62,47.98 -52.7,47.98 -29.09,0 -52.71,-21.5 -52.71,-47.98 0,-26.47 23.62,-47.97 52.71,-47.97 29.08,0 52.7,21.5 52.7,47.97 z"
         style="fill:#e0e0e0;fill-opacity:1;stroke:none;stroke-width:10;stroke-miterlimit:4;stroke-dasharray:none;stroke-opacity:0.74509804" />
    </mask>
    <filter
       id="filter2695"
       x="329.5"
       y="443.73001"
       width="142.41"
       height="141.95"
       filterUnits="userSpaceOnUse"
       primitiveUnits="userSpaceOnUse">
      <feFlood
         id="feFlood2679" />
      <feComposite
         in2="SourceAlpha"
         operator="in"
         id="feComposite2681" />
      <feGaussianBlur
         stdDeviation="1"
         id="feGaussianBlur2683" />
      <feOffset
         dx="1"
         dy="10"
         result="afterOffset"
         id="feOffset2685" />
      <feFlood
         flood-color="#cccccc"
         flood-opacity="1"
         id="feFlood2687" />
      <feComposite
         in2="afterOffset"
         operator="in"
         id="feComposite2689" />
      <feMorphology
         operator="dilate"
         radius="1"
         id="feMorphology2691" />
      <feComposite
         in2="SourceAlpha"
         operator="out"
         id="feComposite2693" />
    </filter>
    <linearGradient
       y2="461.73001"
       x2="318.14999"
       y1="32.75"
       x1="318.14999"
       gradientUnits="userSpaceOnUse"
       id="linearGradient1552"
       spreadMethod="pad">
      <stop
         id="stop1548"
         offset="0%"
         style="stop-color:#d4d4d4;stop-opacity:1" />
      <stop
         id="stop1550"
         offset="100%"
         style="stop-color:#fafafa;stop-opacity:1" />
    </linearGradient>
    <filter
       id="shadow10818811"
       x="2"
       y="14.75"
       width="633.29999"
       height="474.98001"
       filterUnits="userSpaceOnUse"
       primitiveUnits="userSpaceOnUse">
      <feFlood
         id="feFlood17" />
      <feComposite
         in2="SourceAlpha"
         operator="in"
         id="feComposite19" />
      <feGaussianBlur
         stdDeviation="1"
         id="feGaussianBlur21" />
      <feOffset
         dx="1"
         dy="10"
         result="afterOffset"
         id="feOffset23" />
      <feFlood
         flood-color="#cccccc"
         flood-opacity="1"
         id="feFlood25" />
      <feComposite
         in2="afterOffset"
         operator="in"
         id="feComposite27" />
      <feMorphology
         operator="dilate"
         radius="1"
         id="feMorphology29" />
      <feComposite
         in2="SourceAlpha"
         operator="out"
         id="feComposite31" />
    </filter>
    <clipPath
       clipPathUnits="userSpaceOnUse"
       id="clipPath1025">
      <path
         id="path2"
         style="fill:#e3dfd5"
         d="M 111.94141,84 C 99.359506,84.145 90.1531,83.713998 82.625,87.867188 c -3.7641,2.0768 -6.751838,5.574737 -8.398438,9.960937 C 72.580062,102.21433 72,107.4241 72,114 v 42 h 160 v -26 c 0,-6.5759 -0.57996,-11.78566 -2.22656,-16.17188 -0.205,-0.5455 -0.47919,-1.03993 -0.74219,-1.54296 -0.1,-0.1848 -0.17844,-0.38051 -0.27344,-0.56641 -1.727,-3.38752 -4.25471,-6.14522 -7.38281,-7.87109 C 213.8463,99.694146 204.64049,100.1454 192.05859,100 H 192 151.66797 L 135.45312,84 h -23.49218 z" />
    </clipPath>
    <clipPath
       clipPathUnits="userSpaceOnUse"
       id="clipPath1082-3">
      <path
         id="path5"
         style="fill:#8c59d9"
         d="M 361.9375,-212 C 507.2348,-212 528,-191.28677 528,-46.125 V 70.125 C 528,215.28618 507.2348,236 361.9375,236 H 214.0625 C 68.7652,236 48,215.28618 48,70.125 V -46.125 C 48,-191.28677 68.7652,-212 214.0625,-212 Z" />
    </clipPath>
    <clipPath
       clipPathUnits="userSpaceOnUse"
       id="clipPath1082-3-5">
      <path
         id="path8"
         style="fill:#8c59d9"
         d="M 361.9375,-212 C 507.2348,-212 528,-191.28677 528,-46.125 V 70.125 C 528,215.28618 507.2348,236 361.9375,236 H 214.0625 C 68.7652,236 48,215.28618 48,70.125 V -46.125 C 48,-191.28677 68.7652,-212 214.0625,-212 Z" />
    </clipPath>
    <clipPath
       clipPathUnits="userSpaceOnUse"
       id="clipPath1082-3-9">
      <path
         id="path11"
         style="fill:#8c59d9"
         d="M 361.9375,-212 C 507.2348,-212 528,-191.28677 528,-46.125 V 70.125 C 528,215.28618 507.2348,236 361.9375,236 H 214.0625 C 68.7652,236 48,215.28618 48,70.125 V -46.125 C 48,-191.28677 68.7652,-212 214.0625,-212 Z" />
    </clipPath>
    <clipPath
       clipPathUnits="userSpaceOnUse"
       id="clipPath1082-3-3">
      <path
         id="path14"
         style="fill:#8c59d9"
         d="M 361.9375,-212 C 507.2348,-212 528,-191.28677 528,-46.125 V 70.125 C 528,215.28618 507.2348,236 361.9375,236 H 214.0625 C 68.7652,236 48,215.28618 48,70.125 V -46.125 C 48,-191.28677 68.7652,-212 214.0625,-212 Z" />
    </clipPath>
    <clipPath
       clipPathUnits="userSpaceOnUse"
       id="clipPath1082-3-53">
      <path
         id="path17"
         style="fill:#8c59d9"
         d="M 361.9375,-212 C 507.2348,-212 528,-191.28677 528,-46.125 V 70.125 C 528,215.28618 507.2348,236 361.9375,236 H 214.0625 C 68.7652,236 48,215.28618 48,70.125 V -46.125 C 48,-191.28677 68.7652,-212 214.0625,-212 Z" />
    </clipPath>
    <clipPath
       clipPathUnits="userSpaceOnUse"
       id="clipPath1082-3-6">
      <path
         id="path20"
         style="fill:#8c59d9"
         d="M 361.9375,-212 C 507.2348,-212 528,-191.28677 528,-46.125 V 70.125 C 528,215.28618 507.2348,236 361.9375,236 H 214.0625 C 68.7652,236 48,215.28618 48,70.125 V -46.125 C 48,-191.28677 68.7652,-212 214.0625,-212 Z" />
    </clipPath>
    <clipPath
       clipPathUnits="userSpaceOnUse"
       id="clipPath1082-3-91">
      <path
         id="path23"
         style="fill:#8c59d9"
         d="M 361.9375,-212 C 507.2348,-212 528,-191.28677 528,-46.125 V 70.125 C 528,215.28618 507.2348,236 361.9375,236 H 214.0625 C 68.7652,236 48,215.28618 48,70.125 V -46.125 C 48,-191.28677 68.7652,-212 214.0625,-212 Z" />
    </clipPath>
    <clipPath
       clipPathUnits="userSpaceOnUse"
       id="clipPath1025-0">
      <path
         id="path26"
         d="M 329.9375,32 C 475.2348,32 496,52.71323 496,197.875 v 116.25 C 496,459.28618 475.2348,480 329.9375,480 H 182.0625 C 36.7652,480 16,459.28618 16,314.125 V 197.875 C 16,52.71323 36.7652,32 182.0625,32 Z"
         style="fill:#8c59d9" />
    </clipPath>
    <clipPath
       clipPathUnits="userSpaceOnUse"
       id="clipPath4277-8">
      <rect
         id="rect29"
         ry="1"
         y="0"
         x="0"
         height="512"
         width="512"
         style="opacity:0.81999972;fill:#88b637" />
    </clipPath>
    <linearGradient
       id="linearGradient3650-7-9">
      <stop
         offset="0"
         id="stop4366-3"
         style="stop-color:#5884f4" />
      <stop
         style="stop-color:#80a3fa"
         offset="1"
         id="stop4368" />
    </linearGradient>
    <clipPath
       clipPathUnits="userSpaceOnUse"
       id="clipPath1082-3-36">
      <path
         id="path35-6"
         style="fill:#8c59d9"
         d="M 361.9375,-212 C 507.2348,-212 528,-191.28677 528,-46.125 V 70.125 C 528,215.28618 507.2348,236 361.9375,236 H 214.0625 C 68.7652,236 48,215.28618 48,70.125 V -46.125 C 48,-191.28677 68.7652,-212 214.0625,-212 Z" />
    </clipPath>
    <clipPath
       clipPathUnits="userSpaceOnUse"
       id="clipPath983">
      <path
         id="path38"
         style="fill:#4d4d4d"
         d="M 115.03125,44 C 42.3826,44 32,54.356615 32,126.9375 v 58.125 C 32,257.64309 42.3826,268 115.03125,268 H 152 V 44 Z" />
    </clipPath>
    <clipPath
       clipPathUnits="userSpaceOnUse"
       id="clipPath1082-3-62">
      <path
         id="path41-7"
         style="fill:#8c59d9"
         d="M 361.9375,-212 C 507.2348,-212 528,-191.28677 528,-46.125 V 70.125 C 528,215.28618 507.2348,236 361.9375,236 H 214.0625 C 68.7652,236 48,215.28618 48,70.125 V -46.125 C 48,-191.28677 68.7652,-212 214.0625,-212 Z" />
    </clipPath>
    <clipPath
       clipPathUnits="userSpaceOnUse"
       id="clipPath949">
      <path
         id="path44"
         style="fill:#eab305"
         d="M 329.9375,32 C 475.2348,32 496,52.71323 496,197.875 v 116.25 C 496,459.28618 475.2348,480 329.9375,480 H 182.0625 C 36.7652,480 16,459.28618 16,314.125 V 197.875 C 16,52.71323 36.7652,32 182.0625,32 Z" />
    </clipPath>
    <clipPath
       clipPathUnits="userSpaceOnUse"
       id="clipPath954">
      <path
         id="path47"
         style="fill:#eab305"
         d="M 329.9375,32 C 475.2348,32 496,52.71323 496,197.875 v 116.25 C 496,459.28618 475.2348,480 329.9375,480 H 182.0625 C 36.7652,480 16,459.28618 16,314.125 V 197.875 C 16,52.71323 36.7652,32 182.0625,32 Z" />
    </clipPath>
    <clipPath
       clipPathUnits="userSpaceOnUse"
       id="clipPath1082-3-8">
      <path
         id="path50"
         style="fill:#8c59d9"
         d="M 361.9375,-212 C 507.2348,-212 528,-191.28677 528,-46.125 V 70.125 C 528,215.28618 507.2348,236 361.9375,236 H 214.0625 C 68.7652,236 48,215.28618 48,70.125 V -46.125 C 48,-191.28677 68.7652,-212 214.0625,-212 Z" />
    </clipPath>
    <clipPath
       clipPathUnits="userSpaceOnUse"
       id="clipPath1082-3-92">
      <path
         id="path53"
         style="fill:#8c59d9"
         d="M 361.9375,-212 C 507.2348,-212 528,-191.28677 528,-46.125 V 70.125 C 528,215.28618 507.2348,236 361.9375,236 H 214.0625 C 68.7652,236 48,215.28618 48,70.125 V -46.125 C 48,-191.28677 68.7652,-212 214.0625,-212 Z" />
    </clipPath>
    <clipPath
       clipPathUnits="userSpaceOnUse"
       id="clipPath1082">
      <path
         id="path56"
         style="fill:#8c59d9"
         d="M 361.9375,-212 C 507.2348,-212 528,-191.28677 528,-46.125 V 70.125 C 528,215.28618 507.2348,236 361.9375,236 H 214.0625 C 68.7652,236 48,215.28618 48,70.125 V -46.125 C 48,-191.28677 68.7652,-212 214.0625,-212 Z" />
    </clipPath>
    <clipPath
       clipPathUnits="userSpaceOnUse"
       id="clipPath1082-3-361">
      <path
         id="path59"
         style="fill:#8c59d9"
         d="M 361.9375,-212 C 507.2348,-212 528,-191.28677 528,-46.125 V 70.125 C 528,215.28618 507.2348,236 361.9375,236 H 214.0625 C 68.7652,236 48,215.28618 48,70.125 V -46.125 C 48,-191.28677 68.7652,-212 214.0625,-212 Z" />
    </clipPath>
    <clipPath
       clipPathUnits="userSpaceOnUse"
       id="clipPath1079">
      <circle
         id="circle62"
         transform="scale(-1,1)"
         r="55"
         cy="146"
         cx="213.843"
         style="fill:url(#linearGradient1083)" />
    </clipPath>
    <clipPath
       clipPathUnits="userSpaceOnUse"
       id="clipPath984">
      <circle
         id="circle65"
         transform="scale(-1,1)"
         r="55"
         cy="146"
         cx="213.843"
         style="fill:url(#linearGradient1083)" />
    </clipPath>
    <clipPath
       clipPathUnits="userSpaceOnUse"
       id="clipPath988">
      <circle
         id="circle68"
         transform="scale(-1,1)"
         r="55"
         cy="146"
         cx="213.843"
         style="fill:url(#linearGradient1083)" />
    </clipPath>
    <clipPath
       clipPathUnits="userSpaceOnUse"
       id="clipPath992">
      <circle
         id="circle71"
         transform="scale(-1,1)"
         r="55"
         cy="146"
         cx="213.843"
         style="fill:url(#linearGradient1083)" />
    </clipPath>
    <clipPath
       clipPathUnits="userSpaceOnUse"
       id="clipPath1082-3-31">
      <path
         id="path74"
         style="fill:#8c59d9"
         d="M 361.9375,-212 C 507.2348,-212 528,-191.28677 528,-46.125 V 70.125 C 528,215.28618 507.2348,236 361.9375,236 H 214.0625 C 68.7652,236 48,215.28618 48,70.125 V -46.125 C 48,-191.28677 68.7652,-212 214.0625,-212 Z" />
    </clipPath>
    <clipPath
       clipPathUnits="userSpaceOnUse"
       id="clipPath1205">
      <path
         id="path77"
         style="fill:#f1f0e9"
         d="M 115.03125,44 C 42.3826,44 32,54.356615 32,126.9375 v 58.125 c 0,13.772 0.379014,25.29352 1.482422,34.9375 H 270.51758 C 271.62099,210.35602 272,198.8345 272,185.0625 v -58.125 C 272,54.356615 261.6174,44 188.96875,44 Z" />
    </clipPath>
    <clipPath
       clipPathUnits="userSpaceOnUse"
       id="clipPath1082-3-4">
      <path
         id="path80"
         style="fill:#8c59d9"
         d="M 361.9375,-212 C 507.2348,-212 528,-191.28677 528,-46.125 V 70.125 C 528,215.28618 507.2348,236 361.9375,236 H 214.0625 C 68.7652,236 48,215.28618 48,70.125 V -46.125 C 48,-191.28677 68.7652,-212 214.0625,-212 Z" />
    </clipPath>
    <clipPath
       clipPathUnits="userSpaceOnUse"
       id="clipPath1082-3-45">
      <path
         id="path83"
         style="fill:#8c59d9"
         d="M 361.9375,-212 C 507.2348,-212 528,-191.28677 528,-46.125 V 70.125 C 528,215.28618 507.2348,236 361.9375,236 H 214.0625 C 68.7652,236 48,215.28618 48,70.125 V -46.125 C 48,-191.28677 68.7652,-212 214.0625,-212 Z" />
    </clipPath>
    <clipPath
       clipPathUnits="userSpaceOnUse"
       id="clipPath1082-3-61">
      <path
         id="path86"
         style="fill:#8c59d9"
         d="M 361.9375,-212 C 507.2348,-212 528,-191.28677 528,-46.125 V 70.125 C 528,215.28618 507.2348,236 361.9375,236 H 214.0625 C 68.7652,236 48,215.28618 48,70.125 V -46.125 C 48,-191.28677 68.7652,-212 214.0625,-212 Z" />
    </clipPath>
    <clipPath
       clipPathUnits="userSpaceOnUse"
       id="clipPath1064">
      <path
         id="path89"
         d="M 115.03125,44 C 42.3826,44 32,54.356615 32,126.9375 v 58.125 c 0,10.16582 0.217657,19.07051 0.767578,26.9375 3.376331,48.30069 19.790377,56 82.263672,56 h 73.9375 c 62.4733,0 78.88734,-7.69931 82.26367,-56 C 271.78234,204.13301 272,195.22832 272,185.0625 v -58.125 C 272,54.356615 261.6174,44 188.96875,44 Z"
         style="fill:#a3dbf0" />
    </clipPath>
    <clipPath
       clipPathUnits="userSpaceOnUse"
       id="clipPath1082-3-32">
      <path
         id="path92"
         style="fill:#8c59d9"
         d="M 361.9375,-212 C 507.2348,-212 528,-191.28677 528,-46.125 V 70.125 C 528,215.28618 507.2348,236 361.9375,236 H 214.0625 C 68.7652,236 48,215.28618 48,70.125 V -46.125 C 48,-191.28677 68.7652,-212 214.0625,-212 Z" />
    </clipPath>
    <clipPath
       clipPathUnits="userSpaceOnUse"
       id="clipPath947">
      <path
         id="path95"
         style="fill:#a4c1f9"
         d="m 191.43333,45.066672 c 77.49189,0 88.56666,11.047056 88.56666,88.466668 v 62 C 279.99999,272.95263 268.92522,284 191.43333,284 H 112.56666 C 35.074773,284 23.999999,272.95263 23.999999,195.53334 v -62 c 0,-77.419612 11.074774,-88.466668 88.566661,-88.466668 z" />
    </clipPath>
    <clipPath
       clipPathUnits="userSpaceOnUse"
       id="clipPath1082-3-55">
      <path
         id="path98"
         style="fill:#8c59d9"
         d="M 361.9375,-212 C 507.2348,-212 528,-191.28677 528,-46.125 V 70.125 C 528,215.28618 507.2348,236 361.9375,236 H 214.0625 C 68.7652,236 48,215.28618 48,70.125 V -46.125 C 48,-191.28677 68.7652,-212 214.0625,-212 Z" />
    </clipPath>
    <clipPath
       clipPathUnits="userSpaceOnUse"
       id="clipPath991">
      <path
         id="path101"
         style="fill:#6dc7f1"
         d="M 188.96875,44 C 261.6174,44 272,54.356615 272,126.9375 v 58.125 C 272,257.64309 261.6174,268 188.96875,268 h -73.9375 C 42.3826,268 32,257.64309 32,185.0625 v -58.125 C 32,54.356615 42.3826,44 115.03125,44 Z" />
    </clipPath>
    <clipPath
       clipPathUnits="userSpaceOnUse"
       id="clipPath978">
      <path
         id="path104"
         style="fill:#6dc7f1"
         d="M 188.96875,44 C 261.6174,44 272,54.356615 272,126.9375 v 58.125 C 272,257.64309 261.6174,268 188.96875,268 h -73.9375 C 42.3826,268 32,257.64309 32,185.0625 v -58.125 C 32,54.356615 42.3826,44 115.03125,44 Z" />
    </clipPath>
    <clipPath
       clipPathUnits="userSpaceOnUse"
       id="clipPath942">
      <path
         id="path107"
         style="fill:#46a926"
         d="M 188.96875,44 C 261.6174,44 272,54.356615 272,126.9375 v 58.125 C 272,257.64309 261.6174,268 188.96875,268 h -73.9375 C 42.3826,268 32,257.64309 32,185.0625 v -58.125 C 32,54.356615 42.3826,44 115.03125,44 Z" />
    </clipPath>
    <clipPath
       clipPathUnits="userSpaceOnUse"
       id="clipPath1082-3-7">
      <path
         id="path110"
         style="fill:#8c59d9"
         d="M 361.9375,-212 C 507.2348,-212 528,-191.28677 528,-46.125 V 70.125 C 528,215.28618 507.2348,236 361.9375,236 H 214.0625 C 68.7652,236 48,215.28618 48,70.125 V -46.125 C 48,-191.28677 68.7652,-212 214.0625,-212 Z" />
    </clipPath>
    <radialGradient
       gradientUnits="userSpaceOnUse"
       gradientTransform="matrix(-4.8906e-8,-2.8515,3.7557,0,674.00149,398.26285)"
       r="23"
       cy="-2.065"
       cx="26.617"
       id="radialGradient3322-5">
      <stop
         style="stop-color:#d280b9"
         offset="0"
         id="stop2749-3" />
      <stop
         offset=".529"
         id="stop4269-5"
         style="stop-color:#b549b5" />
      <stop
         style="stop-color:#8940a8"
         offset="1"
         id="stop2755-6" />
    </radialGradient>
    <clipPath
       clipPathUnits="userSpaceOnUse"
       id="clipPath1082-3-69">
      <path
         id="path117"
         style="fill:#8c59d9"
         d="M 361.9375,-212 C 507.2348,-212 528,-191.28677 528,-46.125 V 70.125 C 528,215.28618 507.2348,236 361.9375,236 H 214.0625 C 68.7652,236 48,215.28618 48,70.125 V -46.125 C 48,-191.28677 68.7652,-212 214.0625,-212 Z" />
    </clipPath>
    <clipPath
       clipPathUnits="userSpaceOnUse"
       id="clipPath1082-3-452">
      <path
         id="path120"
         style="fill:#8c59d9"
         d="M 361.9375,-212 C 507.2348,-212 528,-191.28677 528,-46.125 V 70.125 C 528,215.28618 507.2348,236 361.9375,236 H 214.0625 C 68.7652,236 48,215.28618 48,70.125 V -46.125 C 48,-191.28677 68.7652,-212 214.0625,-212 Z" />
    </clipPath>
    <clipPath
       clipPathUnits="userSpaceOnUse"
       id="clipPath1082-3-74">
      <path
         id="path123"
         style="fill:#8c59d9"
         d="M 361.9375,-212 C 507.2348,-212 528,-191.28677 528,-46.125 V 70.125 C 528,215.28618 507.2348,236 361.9375,236 H 214.0625 C 68.7652,236 48,215.28618 48,70.125 V -46.125 C 48,-191.28677 68.7652,-212 214.0625,-212 Z" />
    </clipPath>
    <clipPath
       clipPathUnits="userSpaceOnUse"
       id="clipPath1032">
      <path
         id="path126"
         style="fill:#76c22b"
         d="M 188.96875,44 C 261.6174,44 272,54.356615 272,126.9375 v 58.125 C 272,257.64309 261.6174,268 188.96875,268 h -73.9375 C 42.3826,268 32,257.64309 32,185.0625 v -58.125 C 32,54.356615 42.3826,44 115.03125,44 Z" />
    </clipPath>
    <clipPath
       clipPathUnits="userSpaceOnUse"
       id="clipPath1082-3-0">
      <path
         id="path129"
         style="fill:#8c59d9"
         d="M 361.9375,-212 C 507.2348,-212 528,-191.28677 528,-46.125 V 70.125 C 528,215.28618 507.2348,236 361.9375,236 H 214.0625 C 68.7652,236 48,215.28618 48,70.125 V -46.125 C 48,-191.28677 68.7652,-212 214.0625,-212 Z" />
    </clipPath>
    <clipPath
       clipPathUnits="userSpaceOnUse"
       id="clipPath1082-3-89">
      <path
         id="path132"
         style="fill:#8c59d9"
         d="M 361.9375,-212 C 507.2348,-212 528,-191.28677 528,-46.125 V 70.125 C 528,215.28618 507.2348,236 361.9375,236 H 214.0625 C 68.7652,236 48,215.28618 48,70.125 V -46.125 C 48,-191.28677 68.7652,-212 214.0625,-212 Z" />
    </clipPath>
    <clipPath
       clipPathUnits="userSpaceOnUse"
       id="clipPath951">
      <path
         id="path135"
         d="M 188.96875,44 C 261.6174,44 272,54.356615 272,126.9375 v 58.125 C 272,257.64309 261.6174,268 188.96875,268 h -73.9375 C 42.3826,268 32,257.64309 32,185.0625 v -58.125 C 32,54.356615 42.3826,44 115.03125,44 Z"
         style="fill:#8c59d9" />
    </clipPath>
    <clipPath
       clipPathUnits="userSpaceOnUse"
       id="clipPath1082-3-64">
      <path
         id="path138"
         style="fill:#8c59d9"
         d="M 361.9375,-212 C 507.2348,-212 528,-191.28677 528,-46.125 V 70.125 C 528,215.28618 507.2348,236 361.9375,236 H 214.0625 C 68.7652,236 48,215.28618 48,70.125 V -46.125 C 48,-191.28677 68.7652,-212 214.0625,-212 Z" />
    </clipPath>
    <clipPath
       clipPathUnits="userSpaceOnUse"
       id="clipPath1082-3-04">
      <path
         id="path141"
         style="fill:#8c59d9"
         d="M 361.9375,-212 C 507.2348,-212 528,-191.28677 528,-46.125 V 70.125 C 528,215.28618 507.2348,236 361.9375,236 H 214.0625 C 68.7652,236 48,215.28618 48,70.125 V -46.125 C 48,-191.28677 68.7652,-212 214.0625,-212 Z" />
    </clipPath>
    <clipPath
       clipPathUnits="userSpaceOnUse"
       id="clipPath1082-3-367">
      <path
         id="path144"
         style="fill:#8c59d9"
         d="M 361.9375,-212 C 507.2348,-212 528,-191.28677 528,-46.125 V 70.125 C 528,215.28618 507.2348,236 361.9375,236 H 214.0625 C 68.7652,236 48,215.28618 48,70.125 V -46.125 C 48,-191.28677 68.7652,-212 214.0625,-212 Z" />
    </clipPath>
    <linearGradient
       id="linearGradient4336-3">
      <stop
         offset="0"
         id="stop4338-8"
         style="stop-color:#5884f4" />
      <stop
         style="stop-color:#5884f4"
         offset=".278"
         id="stop4344-3" />
      <stop
         offset=".278"
         id="stop4346-3"
         style="stop-color:#2f5fdd" />
      <stop
         style="stop-color:#2f5fdd"
         offset=".707"
         id="stop4350-1" />
      <stop
         style="stop-color:#234db8"
         offset=".709"
         id="stop4348-6" />
      <stop
         offset="1"
         id="stop4340-0"
         style="stop-color:#234db8" />
    </linearGradient>
    <clipPath
       clipPathUnits="userSpaceOnUse"
       id="clipPath1082-3-56">
      <path
         id="path154"
         style="fill:#8c59d9"
         d="M 361.9375,-212 C 507.2348,-212 528,-191.28677 528,-46.125 V 70.125 C 528,215.28618 507.2348,236 361.9375,236 H 214.0625 C 68.7652,236 48,215.28618 48,70.125 V -46.125 C 48,-191.28677 68.7652,-212 214.0625,-212 Z" />
    </clipPath>
    <linearGradient
       id="linearGradient3797-5">
      <stop
         style="stop-color:#f7f7f7"
         offset="0"
         id="stop3801" />
      <stop
         style="stop-color:#e6e6e6"
         offset="1"
         id="stop3799" />
    </linearGradient>
    <clipPath
       clipPathUnits="userSpaceOnUse"
       id="clipPath1082-3-3675">
      <path
         id="path160"
         style="fill:#8c59d9"
         d="M 361.9375,-212 C 507.2348,-212 528,-191.28677 528,-46.125 V 70.125 C 528,215.28618 507.2348,236 361.9375,236 H 214.0625 C 68.7652,236 48,215.28618 48,70.125 V -46.125 C 48,-191.28677 68.7652,-212 214.0625,-212 Z" />
    </clipPath>
    <clipPath
       clipPathUnits="userSpaceOnUse"
       id="clipPath977">
      <path
         id="path163"
         style="fill:#f6531e"
         d="M 78.994141,52 C 43.625611,52 40,53.999146 40,89.296875 V 140 H 264 V 108.92188 C 264,73.624145 260.37439,68 225.00586,68 H 138 L 122,52 Z" />
    </clipPath>
    <clipPath
       clipPathUnits="userSpaceOnUse"
       id="clipPath942-3">
      <path
         id="path166"
         style="fill:url(#linearGradient946)"
         d="m 39.998047,108 v 113.08203 c 0,35.29672 3.623657,38.91992 38.992187,38.91992 h 73.007816 73.00586 c 35.36853,0 38.99414,-3.6232 38.99414,-38.91992 V 108 Z" />
    </clipPath>
    <linearGradient
       xlink:href="#linearGradient1674"
       gradientUnits="userSpaceOnUse"
       gradientTransform="matrix(0.11988932,0,0,0.11988589,3.6614303,228.72469)"
       y2="119.093"
       y1="401.584"
       x2="-35.31"
       x1="529.655"
       id="linearGradient4226" />
    <linearGradient
       id="linearGradient1674">
      <stop
         style="stop-color:#fb7c38"
         offset="0"
         id="stop1670" />
      <stop
         style="stop-color:#9b33ae"
         offset="1"
         id="stop1672" />
    </linearGradient>
    <filter
       y="-.03"
       x="-.02"
       height="1.052"
       width="1.045"
       id="filter965"
       style="color-interpolation-filters:sRGB">
      <feGaussianBlur
         stdDeviation="4.16"
         id="feGaussianBlur967" />
    </filter>
    <filter
       y="-.01"
       x="-.01"
       height="1.022"
       width="1.026"
       id="filter4346-2"
       style="color-interpolation-filters:sRGB">
      <feGaussianBlur
         stdDeviation="2.12"
         id="feGaussianBlur4348-9" />
    </filter>
  </defs>
  <path
     style="opacity:0.1;filter:url(#filter4346)"
     d="M 189.84323,74 C 119.24979,74 111.65402,81.250835 112,151.98706 V 298 444.01294 C 111.65402,514.74917 119.24979,522 189.84323,522 H 386.15677 C 456.75021,522 462.16345,514.72616 464,444.01294 V 298 151.98706 C 464,81.249993 456.75021,74 386.15677,74 Z"
     transform="matrix(0,0.5,-0.5,0,276.82523,-15.328148)"
     id="path29" />
  <path
     style="opacity:0.3;fill:url(#linearGradient4358);filter:url(#filter4380)"
     d="M 189.84323,74 C 119.24979,74 111.65402,81.250835 112,151.98706 V 298 444.01294 C 111.65402,514.74917 119.24979,522 189.84323,522 H 386.15677 C 456.75021,522 464,514.75001 464,444.01294 V 298 151.98706 C 464,81.249993 456.75021,74 386.15677,74 Z"
     transform="matrix(0,0.5,-0.5,0,276.82523,-15.328148)"
     id="path31" />
  <path
     style="opacity:0.1"
     d="m 241.83043,77.478254 c 0,-36.098811 -3.69016,-39.983003 -39.68984,-39.806081 H 127.83043 53.520285 C 17.520595,37.495251 13.830444,41.379443 13.830444,77.478254 V 177.86558 c 0,36.09881 3.689731,39.80608 39.689841,39.80608 h 74.310145 74.31016 c 36.00011,0 39.68984,-3.70727 39.68984,-39.80608 z"
     id="path33" />
  <path
     style="fill:#e3dfd5;fill-opacity:1"
     d="m 239.82523,176.74484 c 0,35.29673 -3.62542,39.09461 -38.99353,38.92162 H 127.82523 54.818775 c -35.36812,0.17299 -38.993531,-3.62489 -38.993531,-38.92162 V 78.588074 c 0,-35.296716 3.625001,-38.921616 38.993531,-38.921616 h 73.006455 73.00647 c 35.36853,0 38.99353,3.6249 38.99353,38.921616 z"
     id="path35" />
  <path
     style="opacity:0.1;fill:#ffffff"
     d="m 15.827944,127.66916 v 8 41.00586 c 0,35.36853 3.625166,38.99414 38.921876,38.99414 h 146.15624 c 35.29673,0 39.09486,-3.62602 38.92187,-38.99414 v -41.00586 -8 z"
     id="path37" />
  <path
     style="opacity:0.3;fill:#ffffff"
     d="m 54.818179,39.667201 c -35.36853,0 -38.992188,3.623202 -38.992188,38.919923 v 98.158206 c 0,0.0882 0.0019,0.16224 0.002,0.25 V 80.585174 c -4.7e-5,-35.29672 3.625565,-38.921879 38.994095,-38.921879 h 73.005844 73.00586 c 35.28016,0 38.97394,3.621035 38.99219,38.671879 v -1.74805 c 0,-35.296721 -3.62561,-38.919923 -38.99414,-38.919923 h -73.00586 z"
     id="path39" />
  <path
     style="opacity:0.2"
     d="m 15.825991,174.74533 v 2 c 0,35.29673 3.624068,39.09487 38.992188,38.92188 h 73.007801 73.00586 c 35.36811,0.17299 38.99414,-3.62515 38.99414,-38.92188 v -2 c 0,35.29673 -3.62603,39.09487 -38.99414,38.92188 H 127.82598 54.818179 c -35.36812,0.17299 -38.992188,-3.62515 -38.992188,-38.92188 z"
     id="path41" />
  <path
     inkscape:connector-curvature="0"
     id="use37"
     d="m 112.54092,55.883104 1.92856,0.19118 1.90509,0.264967 1.87825,0.338756 1.85476,0.40919 1.82459,0.476269 1.79776,0.546705 1.76421,0.610432 1.73402,0.677512 1.69714,0.741237 1.66359,0.80161 1.62669,0.865337 1.58646,0.919 1.5462,0.979374 1.50595,1.03639 1.46236,1.090056 1.4154,1.140365 1.37178,1.194031 1.32148,1.240986 1.27453,1.291297 0.67751,0.744592 0.56012,-0.462854 0.97267,-0.744592 1.00286,-0.704345 1.02967,-0.667448 1.05652,-0.630556 1.08335,-0.586953 1.10682,-0.546705 1.13366,-0.506457 1.15377,-0.462854 1.17392,-0.415898 1.19739,-0.372295 1.21414,-0.32534 1.23428,-0.278384 1.25105,-0.231427 1.26781,-0.181117 1.2846,-0.130807 1.29801,-0.0805 1.31141,-0.02349 1.31142,0.02349 1.29801,0.0805 1.2846,0.130807 1.26781,0.181117 1.2544,0.231427 1.23427,0.278384 1.21416,0.32534 1.1974,0.372295 1.17389,0.415898 1.15378,0.462854 1.13031,0.506457 1.11019,0.546705 1.07998,0.586953 1.05653,0.630556 1.03303,0.667448 0.9995,0.704345 0.97601,0.744592 0.94249,0.778131 0.9123,0.815027 0.8821,0.845212 0.84856,0.882105 0.81168,0.912294 0.77814,0.942479 0.74457,0.976018 0.70435,1.002852 0.66746,1.029682 0.63055,1.056516 0.58696,1.083347 0.5467,1.106827 0.34881,0.778132 0.91565,0.09056 1.49925,0.201242 1.47912,0.258259 1.459,0.315277 1.43552,0.365588 1.41203,0.419252 1.38857,0.469563 1.36509,0.519872 1.33489,0.566829 1.30807,0.61714 1.28122,0.660741 1.24771,0.707705 1.21751,0.751293 1.18396,0.791551 1.15043,0.835151 1.11354,0.878751 1.07999,0.912288 1.03975,0.955899 1.00285,0.989435 0.9626,1.026327 0.919,1.059874 0.87876,1.096764 0.83179,1.126945 0.78819,1.157124 0.7446,1.190692 0.69428,1.2175 0.64731,1.24434 0.59703,1.27118 0.5467,1.298 0.49304,1.32148 0.43938,1.34497 0.38571,1.36843 0.3287,1.38856 0.27165,1.40534 0.21467,1.4288 0.15429,1.44223 0.0939,1.459 0.0302,1.47576 -0.0302,1.47578 -0.0939,1.459 -0.15429,1.44557 -0.21467,1.42546 -0.27165,1.40533 -0.3287,1.38856 -0.38571,1.36843 -0.43938,1.34497 -0.49304,1.32149 -0.5467,1.298 -0.59703,1.27118 -0.64731,1.24434 -0.69428,1.2175 -0.7446,1.19067 -0.78819,1.15714 -0.83179,1.12695 -0.87876,1.09677 -0.919,1.05987 -0.9626,1.02632 -1.00285,0.98944 -1.03975,0.9559 -1.07999,0.91564 -1.11354,0.87539 -1.15043,0.83515 -1.18396,0.79156 -1.21751,0.7513 -1.24771,0.7077 -0.22807,0.11741 0.0235,1.04311 -0.0301,1.45564 -0.0872,1.44222 -0.14424,1.42546 -0.20125,1.40869 -0.25825,1.38856 -0.30857,1.3718 -0.36223,1.34832 -0.41255,1.32818 -0.46285,1.30471 -0.51317,1.28123 -0.56011,1.25776 -0.61044,1.22758 -0.65067,1.20408 -0.69765,1.17391 -0.74124,1.14372 -0.78482,1.11353 -0.82511,1.08 -0.86533,1.04646 -0.90223,1.01291 -0.94247,0.97936 -0.97938,0.94249 -1.01291,0.90223 -1.04645,0.86533 -1.08,0.82508 -1.11353,0.78149 -1.14373,0.74125 -1.17389,0.70099 -1.2041,0.65068 -1.22758,0.61042 -1.25774,0.56013 -1.28124,0.51316 -1.30472,0.46285 -1.32818,0.41255 -1.34832,0.36223 -1.3718,0.30857 -1.38855,0.25826 -1.40869,0.19789 -1.42547,0.14757 -1.44222,0.0872 -1.45564,0.0301 -1.45564,-0.0301 -1.44223,-0.0872 -1.42546,-0.14757 -1.40869,-0.19789 -1.38856,-0.25826 -1.37179,-0.30857 -1.34832,-0.36223 -1.32819,-0.41255 -1.30471,-0.46285 -1.28123,-0.51316 -1.25776,-0.56013 -0.70099,-0.34881 -1.17055,1.34496 -1.2544,1.33489 -1.30471,1.2846 -1.35167,1.23427 -1.39528,1.18061 -1.44223,1.1236 -1.48247,1.06993 -1.52273,1.01292 -1.56633,0.95254 -1.60322,0.89216 -1.63675,0.82845 -1.67365,0.76472 -1.71055,0.70098 -1.73739,0.63392 -1.77092,0.56347 -1.8011,0.49305 -1.82458,0.4226 -1.85479,0.34881 -1.87488,0.27504 -1.90174,0.19789 -1.92185,0.12071 -1.93862,0.0402 -1.94197,-0.0402 -1.92186,-0.12071 -1.89837,-0.19789 -1.87825,-0.27504 -1.85142,-0.34881 -1.82794,-0.4226 -1.8011,-0.49305 -1.76757,-0.56347 -1.74073,-0.63392 -1.70719,-0.70098 -1.67366,-0.76472 -1.64011,-0.82845 -1.60322,-0.89216 -1.562973,-0.95254 -1.526076,-1.01292 -1.482476,-1.06993 -1.442228,-1.1236 -1.395271,-1.18061 -1.351669,-1.23427 -1.304718,-1.2846 -1.254403,-1.33489 -1.204093,-1.38521 -1.153781,-1.42881 -1.096764,-1.47577 -1.046454,-1.51937 -0.98608,-1.56297 -0.932417,-1.59987 -0.325339,-0.61379 -0.05366,0.0135 -1.643468,0.37565 -1.666947,0.31193 -1.68707,0.24484 -1.710549,0.17776 -1.727319,0.10738 -1.744089,0.0335 -1.747443,-0.0335 -1.727319,-0.10738 -1.707195,-0.17776 -1.690424,-0.24484 -1.663593,-0.31193 -1.643468,-0.37565 -1.616636,-0.43938 -1.593158,-0.50646 -1.566327,-0.56347 -1.532785,-0.62384 -1.505954,-0.68423 -1.475768,-0.74123 -1.438873,-0.7949 -1.408687,-0.84857 -1.371792,-0.90222 -1.331545,-0.9559 -1.298006,-1.00621 -1.254402,-1.05315 -1.214154,-1.10012 -1.173907,-1.14708 -1.126949,-1.19068 -1.083348,-1.23428 -1.03639,-1.27453 -0.989436,-1.31813 -0.939125,-1.35502 -0.888815,-1.39192 -0.838502,-1.42881 -0.781487,-1.46569 -0.727822,-1.49591 -0.674158,-1.52942 -0.613785,-1.56298 -0.556767,-1.5898 -0.49304,-1.61663 -0.436022,-1.64347 -0.368941,-1.6703 -0.308571,-1.69043 -0.241489,-1.71725 -0.171054,-1.73404 -0.107329,-1.7575 -0.03354,-1.77427 0.03354,-1.77092 0.107329,-1.75751 0.171054,-1.73403 0.241489,-1.71726 0.308571,-1.69041 0.368941,-1.67031 0.436022,-1.64348 0.49304,-1.61663 0.556767,-1.58979 0.613785,-1.56298 0.674158,-1.52943 0.727822,-1.4959 0.781487,-1.4657 0.838502,-1.4288 0.888815,-1.39191 0.939125,-1.35503 0.989436,-1.31813 1.03639,-1.27453 1.083348,-1.23428 1.126949,-1.19067 1.173907,-1.14708 1.214154,-1.10012 1.254402,-1.056505 1.298006,-1.002854 1.331545,-0.955888 1.371792,-0.902234 1.408687,-0.84857 1.438873,-0.798248 1.475768,-0.737886 1.505954,-0.684222 1.532785,-0.623847 1.566327,-0.563473 1.593158,-0.506453 1.616636,-0.439381 1.643468,-0.375653 0.737884,-0.13751 0.278384,-1.019617 0.560121,-1.754159 0.627202,-1.723964 0.694281,-1.690424 0.758006,-1.656885 0.821735,-1.626698 0.882107,-1.586451 0.945833,-1.549555 1.00285,-1.509309 1.05987,-1.469058 1.113534,-1.428812 1.170552,-1.381855 1.224217,-1.341606 1.271171,-1.291297 1.324837,-1.240986 1.36844,-1.194031 1.418749,-1.140365 1.462351,-1.090056 1.505954,-1.036391 1.546202,-0.979373 1.586449,-0.919 1.626699,-0.865337 1.663592,-0.801611 1.697139,-0.741236 1.734028,-0.677512 1.764213,-0.610432 1.797752,-0.546705 1.824586,-0.47627 1.854772,-0.40919 1.878248,-0.338755 1.90508,-0.264968 1.92856,-0.19118 1.94868,-0.117393 1.9688,-0.03689 1.97216,0.03689 z"
     style="fill:#faf8f6;fill-opacity:1;stroke-width:0.33540174" />
  <path
     inkscape:connector-curvature="0"
     style="color:#000000;font-style:normal;font-variant:normal;font-weight:normal;font-stretch:normal;font-size:medium;line-height:normal;font-family:sans-serif;font-variant-ligatures:normal;font-variant-position:normal;font-variant-caps:normal;font-variant-numeric:normal;font-variant-alternates:normal;font-feature-settings:normal;text-indent:0;text-align:start;text-decoration:none;text-decoration-line:none;text-decoration-style:solid;text-decoration-color:#000000;letter-spacing:normal;word-spacing:normal;text-transform:none;writing-mode:lr-tb;direction:ltr;text-orientation:mixed;dominant-baseline:auto;baseline-shift:baseline;text-anchor:start;white-space:normal;shape-padding:0;clip-rule:nonzero;display:inline;overflow:visible;visibility:visible;opacity:1;isolation:auto;mix-blend-mode:normal;color-interpolation:sRGB;color-interpolation-filters:linearRGB;solid-color:#000000;solid-opacity:1;vector-effect:none;fill:#0e141f;fill-opacity:1;fill-rule:nonzero;stroke:none;stroke-width:3.7730546;stroke-linecap:butt;stroke-linejoin:miter;stroke-miterlimit:4;stroke-dasharray:none;stroke-dashoffset:0;stroke-opacity:1;color-rendering:auto;image-rendering:auto;shape-rendering:auto;text-rendering:auto;enable-background:accumulate"
     d="m 134.59802,97.628247 -12.7746,10.243253 -11.69867,9.38841 2.36184,2.94402 0.27635,-0.22107 -1.88285,-2.34711 11.69867,-9.38474 12.49825,-10.025852 z"
     id="path1296" />
  <path
     style="color:#000000;font-style:normal;font-variant:normal;font-weight:normal;font-stretch:normal;font-size:medium;line-height:normal;font-family:sans-serif;font-variant-ligatures:normal;font-variant-position:normal;font-variant-caps:normal;font-variant-numeric:normal;font-variant-alternates:normal;font-feature-settings:normal;text-indent:0;text-align:start;text-decoration:none;text-decoration-line:none;text-decoration-style:solid;text-decoration-color:#000000;letter-spacing:normal;word-spacing:normal;text-transform:none;writing-mode:lr-tb;direction:ltr;text-orientation:mixed;dominant-baseline:auto;baseline-shift:baseline;text-anchor:start;white-space:normal;shape-padding:0;clip-rule:nonzero;display:inline;overflow:visible;visibility:visible;opacity:1;isolation:auto;mix-blend-mode:normal;color-interpolation:sRGB;color-interpolation-filters:linearRGB;solid-color:#000000;solid-opacity:1;vector-effect:none;fill:#0e141f;fill-opacity:1;fill-rule:nonzero;stroke:none;stroke-width:3.7730546;stroke-linecap:butt;stroke-linejoin:miter;stroke-miterlimit:4;stroke-dasharray:none;stroke-dashoffset:0;stroke-opacity:1;color-rendering:auto;image-rendering:auto;shape-rendering:auto;text-rendering:auto;enable-background:accumulate"
     d="m 112.48714,139.38748 -2.36183,2.94033 0.46057,0.36848 1.90126,-2.36922 11.69871,9.38842 12.31031,9.87477 0.46058,-0.57478 -12.77089,-10.24326 z"
     id="path986"
     inkscape:connector-curvature="0" />
  <g
     style="fill:#68b723;fill-opacity:1;stroke:none"
     id="g1158"
     transform="matrix(0.37730544,0,0,0.37730544,-0.57724361,-22.494813)">
    <path
       inkscape:connector-curvature="0"
       id="use1156"
       d="m 490.72,290.58 c 4.1,0 7.42,3.32 7.42,7.42 0,13.65 0,47.18 0,60.83 0,4.1 -3.32,7.43 -7.42,7.43 -27.3,0 -101.77,0 -129.07,0 -4.1,0 -7.43,-3.33 -7.43,-7.43 0,-13.65 0,-47.18 0,-60.83 0,-4.1 3.33,-7.42 7.43,-7.42 27.3,0 101.77,0 129.07,0 z"
       style="fill:#68b723;fill-opacity:1;stroke:none;stroke-width:1;stroke-opacity:1" />
  </g>
  <path
     inkscape:connector-curvature="0"
     id="use1241"
     d="m 111.6109,115.69448 c 2.08271,0 3.77305,1.69032 3.77305,3.77305 0,4.95779 0,16.05435 0,21.00837 0,2.08272 -1.69034,3.77305 -3.77305,3.77305 -13.881079,0 -51.743681,0 -65.620975,0 -2.082726,0 -3.773054,-1.69033 -3.773054,-3.77305 0,-4.95402 0,-16.05058 0,-21.00837 0,-2.08273 1.690328,-3.77305 3.773054,-3.77305 13.877294,0 51.739896,0 65.620975,0 z"
     style="fill:#c6262e;fill-opacity:1;stroke:none;stroke-width:0.37730545;stroke-opacity:1" />
  <path
     inkscape:connector-curvature="0"
     id="use1064"
     d="m 184.57409,144.24967 c 1.54694,0 2.79961,1.25265 2.79961,2.79961 0,5.15022 0,17.80127 0,22.95148 0,1.54696 -1.25267,2.80338 -2.79961,2.80338 -10.30044,0 -38.39838,0 -48.69882,0 -1.54695,0 -2.80337,-1.25642 -2.80337,-2.80338 0,-5.15021 0,-17.80126 0,-22.95148 0,-1.54696 1.25642,-2.79961 2.80337,-2.79961 10.30044,0 38.39838,0 48.69882,0 z"
     style="fill:#64baff;fill-opacity:1;stroke:none;stroke-width:0.37730545;stroke-opacity:1" />
</svg>
