<svg enable-background="new" height="256" viewBox="0 0 256 256" width="256" xmlns="http://www.w3.org/2000/svg" xmlns:xlink="http://www.w3.org/1999/xlink">
  <linearGradient id="linearGradient4358" gradientTransform="matrix(0 -1 1 0 -10.0054 585.9946)" gradientUnits="userSpaceOnUse" x1="88" x2="488" y1="88" y2="488">
    <stop offset="0" stop-opacity=".588235"/>
    <stop offset=".88" stop-opacity="0"/>
    <stop offset="1"/>
  </linearGradient>
  <filter id="filter4380" color-interpolation-filters="sRGB" height="1.088" width="1.106" x="-.05" y="-.04">
    <feGaussianBlur stdDeviation="8.48"/>
  </filter>
  <filter id="filter4346" color-interpolation-filters="sRGB" height="1.022" width="1.026" x="-.01" y="-.01">
    <feGaussianBlur stdDeviation="2.12"/>
  </filter>
  <path d="m189.84323 74c-70.59344 0-78.18921 7.250835-77.84323 77.98706v146.01294 146.01294c-.34598 70.73623 7.24979 77.98706 77.84323 77.98706h196.31354c70.59344 0 76.00668-7.27384 77.84323-77.98706v-146.01294-146.01294c0-70.737067-7.24979-77.98706-77.84323-77.98706z" filter="url(#filter4346)" opacity=".1" transform="matrix(0 .5 -.5 0 276.82523 -15.328148)"/>
  <path d="m189.84323 74c-70.59344 0-78.18921 7.250835-77.84323 77.98706v146.01294 146.01294c-.34598 70.73623 7.24979 77.98706 77.84323 77.98706h196.31354c70.59344 0 77.84323-7.24999 77.84323-77.98706v-146.01294-146.01294c0-70.737067-7.24979-77.98706-77.84323-77.98706z" fill="url(#linearGradient4358)" filter="url(#filter4380)" opacity=".3" transform="matrix(0 .5 -.5 0 276.82523 -15.328148)"/>
  <path d="m241.83043 77.478254c0-36.098811-3.69016-39.983003-39.68984-39.806081h-74.31016-74.310154c-35.99969-.176922-39.68984 3.70727-39.68984 39.806081v100.387326c0 36.09881 3.68973 39.80608 39.68984 39.80608h74.310154 74.31016c36.00011 0 39.68984-3.70727 39.68984-39.80608z" opacity=".1"/>
  <path d="m239.82523 176.74484c0 35.29673-3.62542 39.09461-38.99353 38.92162h-73.00647-73.006464c-35.36812.17299-38.99353-3.62489-38.99353-38.92162v-98.156766c0-35.296716 3.625-38.921616 38.99353-38.921616h73.006464 73.00647c35.36853 0 38.99353 3.6249 38.99353 38.921616z" fill="#da1636"/>
  <path d="m54.81817 39.667201c-35.36853 0-38.992187 3.623202-38.992187 38.919923v98.158206c0 .0882.0019.16224.002.25v-96.410156c-.000047-35.29672 3.625564-38.921879 38.994094-38.921879h73.005853 73.00586c35.28016 0 38.97394 3.621035 38.99219 38.671879v-1.74805c0-35.296721-3.62561-38.919923-38.99414-38.919923h-73.00586z" fill="#fff" opacity=".3"/>
  <circle cx="127.82524415194" cy="116.74624764682" fill="none" r="48.2060556978" stroke-width=".59141278"/>
  <g transform="translate(.94369)">
    <path d="m61.128613 215.66602h67.212887 64.29297l-14.7793-52.31836-100.326166 1.47461z" fill="#5e5c64"/>
    <path d="m46.881542 55.122905h159.999998l16 16v104.000015h-191.999998v-104.000015z" fill="#f6f5f4"/>
    <g enable-background="new" transform="matrix(2 0 0 2 -1.118457 -344.87711)">
      <path d="m16 216h96v32h-96z" fill="#424048"/>
      <circle cx="40" cy="232" fill="#f6f5f4" r="6"/>
      <circle cx="88" cy="232" fill="#f6f5f4" r="6"/>
      <path d="m52 226h24v12h-24z" fill="#949390"/>
      <path d="m51.999992 226h15.35563s.64094 3.55767.64094 5.55767-.64094 6.44233-.64094 6.44233h-15.35563z" fill="#6b696c"/>
    </g>
    <g transform="translate(-.94369)">
      <path d="m47.826172 55.123047-16 16v2l16-16h159.999998l16 16v-2l-16-16z" fill="#fff" opacity=".3"/>
      <path d="m31.826172 173.12305v2h191.999998v-2z" opacity=".2"/>
    </g>
  </g>
  <path d="m15.520889 174.22376v2c0 35.29673 3.624067 39.09487 38.992187 38.92188h73.007814 73.00586c35.36811.17299 38.99414-3.62515 38.99414-38.92188v-2c0 35.29673-3.62603 39.09487-38.99414 38.92188h-73.00586-73.007814c-35.36812.17299-38.992187-3.62515-38.992187-38.92188z" opacity=".2"/>
</svg>
