<svg height="256" viewBox="0 0 67.73 67.73" width="256" xmlns="http://www.w3.org/2000/svg" xmlns:xlink="http://www.w3.org/1999/xlink"><linearGradient id="a" gradientUnits="userSpaceOnUse" x1="624" x2="688" y1="369.23901" y2="369.23901"><stop offset="0" stop-color="#5884f4"/><stop offset=".278" stop-color="#5884f4"/><stop offset=".278" stop-color="#2f5fdd"/><stop offset=".707" stop-color="#2f5fdd"/><stop offset=".709" stop-color="#234db8"/><stop offset="1" stop-color="#234db8"/></linearGradient><linearGradient id="b" gradientUnits="userSpaceOnUse" x1="30.50802635724" x2="202.90088082437" y1="119.2843141172" y2="248.12802285099"><stop offset="0" stop-color="#bc1938"/><stop offset="1" stop-color="#da1636"/></linearGradient><filter id="c" color-interpolation-filters="sRGB" height="1.036177" width="1.017956" x="-.008978" y="-.018088"><feGaussianBlur stdDeviation=".23654283"/></filter><linearGradient id="d" gradientUnits="userSpaceOnUse" x1="21.100011" x2="46.498761" y1="3.24046" y2="62.504209"><stop offset="0" stop-color="#cdcdcd"/><stop offset="1" stop-color="#d9d9d9"/></linearGradient><filter id="e" color-interpolation-filters="sRGB" height="1.024" width="1.024" x="-.012" y="-.012"><feGaussianBlur stdDeviation="1.12"/></filter><filter id="f" color-interpolation-filters="sRGB" height="1.096" width="1.096" x="-.048" y="-.048"><feGaussianBlur stdDeviation="4.48"/></filter><circle cx="122.752" cy="122.752" filter="url(#f)" opacity=".3" r="112" transform="matrix(.26457031 0 0 .26457031 1.322852 1.454082)"/><circle cx="122.752" cy="120.75198" filter="url(#e)" opacity=".1" r="112" transform="matrix(.26457031 0 0 .26457031 1.322852 1.454082)"/><circle cx="33.799385" cy="32.872284" opacity=".1" r="30.161015"/><circle cx="33.799385" cy="32.872284" fill="url(#d)" r="29.631874"/><path d="m33.799387 3.2404611a29.631875 29.631875 0 0 0 -29.6318752 29.6318759h29.6318752zm0 29.6318759v29.631875a29.631875 29.631875 0 0 0 29.631875-29.631875z" fill="#fff" opacity=".2"/><path d="m54.752287 11.919437a29.631875 29.631875 0 0 0 -41.9058 0l20.9529 20.9529zm-20.9529 20.9529-20.9529 20.9529a29.631875 29.631875 0 0 0 41.9058 0z" opacity=".02"/><path d="m25.716383 4.3646501a29.631875 29.631875 0 0 0 -.538049.182153 29.631875 29.631875 0 0 1 1.432934-.388233 29.631875 29.631875 0 0 0 -.894885.20608zm2.333415-.537501a29.631875 29.631875 0 0 1 1.459703-.242406 29.631875 29.631875 0 0 0 -1.459703.242406zm-4.269879 1.192792a29.631875 29.631875 0 0 0 -1.385568.529078 29.631875 29.631875 0 0 1 1.385568-.529078zm7.201503-1.62203a29.631875 29.631875 0 0 1 1.470699-.09556 29.631875 29.631875 0 0 0 -1.470699.09556zm-9.929668 2.7606849a29.631875 29.631875 0 0 0 -1.331844.667682 29.631875 29.631875 0 0 1 1.331844-.667682zm12.886178-2.8954039a29.631875 29.631875 0 0 1 1.477831.05285 29.631875 29.631875 0 0 0 -1.477831-.05285zm-15.486769 4.3005269a29.631875 29.631875 0 0 0 -1.26009.797712 29.631875 29.631875 0 0 1 1.26009-.797712zm18.437477-4.1394599a29.631875 29.631875 0 0 1 1.469153.200155 29.631875 29.631875 0 0 0 -1.469153-.200155zm-20.887645 5.7985101a29.631875 29.631875 0 0 0 -1.174298.9202358 29.631875 29.631875 0 0 1 1.174298-.9202358zm23.817367-5.3424031a29.631875 29.631875 0 0 1 1.431579.343431 29.631875 29.631875 0 0 0 -1.431579-.343431zm-26.516511 7.6175769a29.631875 29.631875 0 0 0 -.336047.313125 29.631875 29.631875 0 0 1 .336047-.313125zm-.443389.429622a29.631875 29.631875 0 0 0 -4.7175592 6.128526l25.6617462 14.815817zm20.944187 20.944343 20.944188 20.944341a29.631875 29.631875 0 0 0 4.717558-6.128525zm8.878977-28.2463979a29.631875 29.631875 0 0 1 1.393106.485341 29.631875 29.631875 0 0 0 -1.393106-.485341zm2.773996 1.026918a29.631875 29.631875 0 0 1 1.344573.6256669 29.631875 29.631875 0 0 0 -1.344573-.6256669zm2.659249 1.2994679a29.631875 29.631875 0 0 1 .486056.2886421l.01754-.03038a29.631875 29.631875 0 0 0 -.503593-.258264zm-29.1105 51.55138-.01754.03038a29.631875 29.631875 0 0 0 .503595.258263 29.631875 29.631875 0 0 1 -.486056-.288641zm1.800732.962441a29.631875 29.631875 0 0 0 1.344576.625669 29.631875 29.631875 0 0 1 -1.344576-.625669zm2.725466 1.167244a29.631875 29.631875 0 0 0 1.393103.485341 29.631875 29.631875 0 0 1 -1.393103-.485341zm31.108926-6.700216a29.631875 29.631875 0 0 1 -.336049.313124 29.631875 29.631875 0 0 0 .336049-.313124zm-28.284138 7.587273a29.631875 29.631875 0 0 0 1.43158.343431 29.631875 29.631875 0 0 1 -1.43158-.343431zm26.423243-5.919208a29.631875 29.631875 0 0 1 -1.174295.920234 29.631875 29.631875 0 0 0 1.174295-.920234zm-23.531095 6.51859a29.631875 29.631875 0 0 0 1.469154.200155 29.631875 29.631875 0 0 1 -1.469154-.200155zm21.16672-4.737018a29.631875 29.631875 0 0 1 -1.26009.797714 29.631875 29.631875 0 0 0 1.26009-.797714zm-18.22469 5.045385a29.631875 29.631875 0 0 0 1.477831.05286 29.631875 29.631875 0 0 1 -1.477831-.05286zm15.695853-3.510232a29.631875 29.631875 0 0 1 -1.331844.667683 29.631875 29.631875 0 0 0 1.331844-.667683zm-12.732211 3.523929a29.631875 29.631875 0 0 0 1.470699-.09556 29.631875 29.631875 0 0 1 -1.470699.09556zm10.05777-2.246671a29.631875 29.631875 0 0 1 -1.385567.529077 29.631875 29.631875 0 0 0 1.385567-.529077zm-7.11515 1.964276a29.631875 29.631875 0 0 0 1.459703-.242404 29.631875 29.631875 0 0 1 -1.459703.242404zm4.331167-.962057a29.631875 29.631875 0 0 1 -1.432934.388231 29.631875 29.631875 0 0 0 1.432934-.388231z" fill="#faf8f6"/><circle cx="33.799385" cy="-32.872288" fill="#aea795" r="10.582812" transform="scale(1 -1)"/><circle cx="33.799385" cy="32.872288" fill="#faf8f6" r="9.524531"/><path d="m33.799387 3.2404601a29.631875 29.631875 0 0 0 -29.6318752 29.6318739 29.631875 29.631875 0 0 0 .010853.309526 29.631875 29.631875 0 0 1 29.6210222-29.4122599 29.631875 29.631875 0 0 1 29.621022 29.3223489 29.631875 29.631875 0 0 0 .010848-.219615 29.631875 29.631875 0 0 0 -29.631875-29.6318739z" fill="#fff" opacity=".3"/><path d="m9.3344791 34.352956c-6.3068458 0-6.9533463.646165-6.9533463 6.940209v17.50345c0 6.294041.6465748 6.971052 6.9533463 6.940208h13.0180129 10.271045 2.747495 10.271044 13.018014c6.306774.03085 6.953347-.646167 6.953347-6.940208v-17.50345c0-6.294044-.646498-6.940209-6.953347-6.940209h-13.018014-1.232903a10.762945 10.762945 0 0 1 -10.613169 8.991895 10.762945 10.762945 0 0 1 -10.604233-8.991895h-.839279z" fill="#050505" opacity=".1" stroke-width=".178318"/><circle cx="33.799385" cy="32.872288" fill="#4d4d4d" r="3.703984"/><path d="m9.3344791 34.352956c-6.3068458 0-6.9533463.646165-6.9533463 6.940209v17.50345c0 6.294041.6465748 6.971052 6.9533463 6.940208h13.0180129 10.271045 2.747495 10.271044 13.018014c6.306774.03085 6.953347-.646167 6.953347-6.940208v-17.50345c0-6.294044-.646498-6.940209-6.953347-6.940209h-13.018014-1.232903a10.762945 10.762945 0 0 1 -10.613169 8.991895 10.762945 10.762945 0 0 1 -10.604233-8.991895h-.839279z" fill="#050505" filter="url(#c)" opacity=".1" stroke-width=".178318"/><g transform="scale(.26457031)"><path d="m36.841797 130.83008c-23.439107 0-25.841797 2.40144-25.841797 25.79297v65.05078c0 23.39152 2.402966 25.9076 25.841797 25.79297h48.380859 38.171874 10.21094 38.17187 48.38086c23.43884.11464 25.8418-2.40145 25.8418-25.79297v-65.05078c0-23.39153-2.40268-25.79297-25.8418-25.79297h-48.38086-4.58203a39.999999 39.999999 0 0 1 -39.44336 33.41797 39.999999 39.999999 0 0 1 -39.410153-33.41797h-3.119141z" fill="url(#b)" stroke-width=".662711"/><path d="m11 182.62891v39.04492c0 2.92394.03697 5.52088.148438 7.82812.111467 2.30725.298025 4.32413.59375 6.08594.295724 1.76181.701134 3.26901 1.253906 4.55664.552772 1.28764 1.252157 2.35552 2.134765 3.24024.882609.88472 1.94914 1.5856 3.234375 2.13867 1.285236.55306 2.79013.95928 4.550782 1.25195 1.760651.29267 3.777079.47263 6.085937.57617s4.90999.12957 7.839844.11524h48.380859 38.171874 10.21094 38.17187 48.38086c2.92986.01433 5.53099-.0117 7.83985-.11524s4.32528-.2835 6.08593-.57617c1.76066-.29267 3.26555-.69889 4.55079-1.25195 1.28523-.55307 2.35176-1.25395 3.23437-2.13867s1.58199-1.9526 2.13477-3.24024c.55277-1.28763.95818-2.79483 1.2539-4.55664.29573-1.76181.48229-3.77869.59375-6.08594.11147-2.30724.14844-4.90418.14844-7.82812v-39.04492h-85.54883-64.244139z" fill="#fff" opacity=".1" stroke-width=".692756"/><path d="m36.841797 130.83008c-23.439107 0-25.841797 2.40144-25.841797 25.79297v2c0-23.39153 2.40269-25.79297 25.841797-25.79297h48.380859 3.488282a39.999999 39.999999 0 0 1 -.369141-2h-3.119141zm130.353513 0a39.999999 39.999999 0 0 1 -.42578 2h5.00781 48.38086c23.43912 0 25.8418 2.40144 25.8418 25.79297v-2c0-23.39153-2.40268-25.79297-25.8418-25.79297h-48.38086z" fill="#fff" opacity=".3" stroke-width=".662711"/></g><path d="m58.247323 65.473328c6.201292 0 6.836973-.63535 6.836973-6.824055v-.52914c0 6.188704-.635681 6.824054-6.836973 6.824054h-12.800139-10.099144-2.701512-10.099143-12.8001389c-6.2012955 0-6.8369733-.63535-6.8369733-6.824054v.52914c0 6.188705.6356778 6.824055 6.8369733 6.824055h12.8001389 10.099143 2.701512 10.099144z" fill="#0e0e0e" opacity=".2" stroke-width=".175334"/><g transform="translate(-.216122 -.25834)"><path d="m18.162808 44.878183h32.101197c.633693 0 1.146472.512777 1.146472 1.14647v14.904128c0 .633697-.512779 1.146472-1.146472 1.146472h-32.101197c-.633694 0-1.146472-.512775-1.146472-1.146472v-14.904128c0-.633693.512778-1.14647 1.146472-1.14647zm0 0" fill="#fff" stroke-width=".573236"/><g fill="none" stroke="#c0bfbc"><path d="m20.455749 50.61054h27.515315" stroke-width="2.292943"/><path d="m20.455749 55.196425h17.197072" stroke-width="2.292949"/></g></g><g enable-background="new" transform="matrix(.11187509 .11187509 -.12133714 .12133714 6.953106 -65.895887)"><path d="m688.00003 319.35584-32 81.13762-31.99999-81.13762v-11.06422h63.99999z" fill="#fee1c2"/><path d="m645.81253 374.67694 10.1875 25.81651 10.1875-25.81651s.77644-2.76606-1.20553-2.76606-3.94669 3.68807-3.94669 3.68807-1.03528-4.61009-5.01377-4.61009c-3.9785 0-5.01378 4.61009-5.01378 4.61009s-2.00773-3.68807-4.00773-3.68807-1.1875 2.76606-1.1875 2.76606z" fill="#5d5d5d"/><path d="m624.00004 319.35583c0-7.37615 17.99999-3.68808 17.99999 7.37614 0-18.44036 28-18.44036 28 0 0-11.06422 18-14.75229 18-7.37614v-185.89981h-63.99999z" fill="url(#a)"/></g></svg>