<?xml version="1.0" encoding="UTF-8" standalone="no"?>
<svg
   xmlns:dc="http://purl.org/dc/elements/1.1/"
   xmlns:cc="http://creativecommons.org/ns#"
   xmlns:rdf="http://www.w3.org/1999/02/22-rdf-syntax-ns#"
   xmlns:svg="http://www.w3.org/2000/svg"
   xmlns="http://www.w3.org/2000/svg"
   xmlns:xlink="http://www.w3.org/1999/xlink"
   xmlns:sodipodi="http://sodipodi.sourceforge.net/DTD/sodipodi-0.dtd"
   xmlns:inkscape="http://www.inkscape.org/namespaces/inkscape"
   enable-background="new"
   height="256"
   viewBox="0 0 256 256"
   width="256"
   version="1.1"
   id="svg61"
   sodipodi:docname="editor-di-testo.svg"
   inkscape:version="0.92.4 (5da689c313, 2019-01-14)">
  <metadata
     id="metadata67">
    <rdf:RDF>
      <cc:Work
         rdf:about="">
        <dc:format>image/svg+xml</dc:format>
        <dc:type
           rdf:resource="http://purl.org/dc/dcmitype/StillImage" />
        <dc:title></dc:title>
      </cc:Work>
    </rdf:RDF>
  </metadata>
  <defs
     id="defs65">
    <linearGradient
       gradientUnits="userSpaceOnUse"
       y2="89.048683"
       x2="94.019379"
       y1="106.0194"
       x1="77.04866"
       id="linearGradient1437"
       xlink:href="#linearGradient1435" />
    <linearGradient
       id="linearGradient1435">
      <stop
         id="stop1431"
         offset="0"
         style="stop-color:#33d17a;stop-opacity:1;" />
      <stop
         style="stop-color:#2ec27e;stop-opacity:1"
         offset="0.10000067"
         id="stop1439" />
      <stop
         id="stop1441"
         offset="0.23066732"
         style="stop-color:#33d17a;stop-opacity:1;" />
      <stop
         style="stop-color:#33d17a;stop-opacity:1;"
         offset="0.75333387"
         id="stop1443" />
      <stop
         id="stop1445"
         offset="0.93333316"
         style="stop-color:#57e389;stop-opacity:1" />
      <stop
         id="stop1433"
         offset="1"
         style="stop-color:#33d17a;stop-opacity:1" />
    </linearGradient>
  </defs>
  <sodipodi:namedview
     pagecolor="#ffffff"
     bordercolor="#666666"
     borderopacity="1"
     objecttolerance="10"
     gridtolerance="10"
     guidetolerance="10"
     inkscape:pageopacity="0"
     inkscape:pageshadow="2"
     inkscape:window-width="1920"
     inkscape:window-height="1016"
     id="namedview63"
     showgrid="false"
     inkscape:zoom="3.4425878"
     inkscape:cx="127.85885"
     inkscape:cy="126.92923"
     inkscape:window-x="0"
     inkscape:window-y="27"
     inkscape:window-maximized="1"
     inkscape:current-layer="svg61" />
  <linearGradient
     id="linearGradient1127"
     gradientUnits="userSpaceOnUse"
     x1="624"
     x2="688"
     y1="369.239"
     y2="369.239">
    <stop
       offset="0"
       stop-color="#5884f4"
       id="stop2" />
    <stop
       offset=".278"
       stop-color="#5884f4"
       id="stop4" />
    <stop
       offset=".278"
       stop-color="#2f5fdd"
       id="stop6" />
    <stop
       offset=".707"
       stop-color="#2f5fdd"
       id="stop8" />
    <stop
       offset=".709"
       stop-color="#234db8"
       id="stop10" />
    <stop
       offset="1"
       stop-color="#234db8"
       id="stop12" />
  </linearGradient>
  <linearGradient
     id="linearGradient4226"
     gradientTransform="matrix(0 -.453125 -.45311204 0 253.29053 239.17476)"
     gradientUnits="userSpaceOnUse"
     x1="494.345"
     x2="4.414"
     y1="386.295"
     y2="169.657">
    <stop
       offset="0"
       stop-color="#e8e8e8"
       id="stop15" />
    <stop
       offset="1"
       stop-color="#f5f5f5"
       id="stop17" />
  </linearGradient>
  <linearGradient
     id="linearGradient4358"
     gradientUnits="userSpaceOnUse"
     x1="88"
     x2="488"
     y1="88"
     y2="488">
    <stop
       offset="0"
       stop-opacity=".588235"
       id="stop20" />
    <stop
       offset=".88"
       stop-opacity="0"
       id="stop22" />
    <stop
       offset="1"
       id="stop24" />
  </linearGradient>
  <filter
     id="filter4380"
     color-interpolation-filters="sRGB"
     height="1.088"
     width="1.106"
     x="-.05"
     y="-.04">
    <feGaussianBlur
       stdDeviation="8.48"
       id="feGaussianBlur27" />
  </filter>
  <filter
     id="filter4346"
     color-interpolation-filters="sRGB"
     height="1.022"
     width="1.026"
     x="-.01"
     y="-.01">
    <feGaussianBlur
       stdDeviation="2.12"
       id="feGaussianBlur30" />
  </filter>
  <path
     d="m189.84323 74c-70.59344 0-78.18921 7.250835-77.84323 77.98706v146.01294 146.01294c-.34598 70.73623 7.24979 77.98706 77.84323 77.98706h196.31354c70.59344 0 76.00668-7.27384 77.84323-77.98706v-146.01294-146.01294c0-70.737067-7.24979-77.98706-77.84323-77.98706z"
     filter="url(#filter4346)"
     opacity=".1"
     transform="matrix(.5 0 0 .5 -16.666462 -20.825235)"
     id="path33" />
  <path
     d="m189.84323 74c-70.59344 0-78.18921 7.250835-77.84323 77.98706v146.01294 146.01294c-.34598 70.73623 7.24979 77.98706 77.84323 77.98706h196.31354c70.59344 0 77.84323-7.24999 77.84323-77.98706v-146.01294-146.01294c0-70.737067-7.24979-77.98706-77.84323-77.98706z"
     fill="url(#linearGradient4358)"
     filter="url(#filter4380)"
     opacity=".3"
     transform="matrix(.5 0 0 .5 -16.666462 -20.825235)"
     id="path35" />
  <path
     d="m77.145138 13.174765c-36.098811 0-39.983003 3.690158-39.806081 39.689842v74.310153 74.31016c-.176922 35.99969 3.70727 39.68984 39.806081 39.68984h100.387312c36.09881 0 39.80608-3.68973 39.80608-39.68984v-74.31016-74.310153c0-36.000113-3.70727-39.689842-39.80608-39.689842z"
     opacity=".1"
     id="path37" />
  <path
     d="m176.40651 15.174765c35.29673 0 39.09461 3.625418 38.92162 38.99353v73.006465 73.00647c.17299 35.36812-3.62489 38.99353-38.92162 38.99353h-98.156752c-35.296716 0-38.921616-3.625-38.921616-38.99353v-73.00647-73.006465c0-35.368533 3.6249-38.99353 38.921616-38.99353z"
     fill="url(#linearGradient4226)"
     id="path39" />
  <path
     d="m215.32767 187.18062-51.99414 51.99414h13.07227c35.29673 0 39.09486-3.62602 38.92187-38.99414z"
     fill="#fff"
     id="path41" />
  <path
     d="m78.255418 15.174765c-35.296728 0-39.09487 3.626029-38.92188 38.994141v2c-.17299-35.368112 3.625152-38.994141 38.92188-38.994141h98.156232c35.29673 0 38.92188 3.625608 38.92188 38.994141v-2c0-35.368533-3.62515-38.994141-38.92188-38.994141z"
     fill="#fff"
     opacity=".3"
     id="path43" />
  <path
     d="m78.260818 239.17476c-35.296731 0-39.094875-3.62603-38.921885-38.99414v-2c-.17299 35.36811 3.625154 38.99414 38.921885 38.99414h98.156232c35.29673 0 38.92188-3.62561 38.92188-38.99414v2c0 35.36853-3.62515 38.99414-38.92188 38.99414z"
     opacity=".2"
     id="path45" />
  <path
     d="m59.333538 47.174757v4h135.999992v-4zm0 12v4h135.999992v-4zm0 12v3.999998h135.999992v-3.999998zm0 11.999998v4h135.999992v-4zm0 12v4h135.999992v-4zm0 11.999995v4h135.999992v-4zm0 12v4h135.999992v-4zm0 12v4h135.999992v-4zm0 12v4h135.999992v-4zm0 12v4h135.999992v-4zm0 12v4h135.999992v-4zm0 12v4h135.999992v-4zm0 12v4h136.111322v-4z"
     fill="#cdcdcd"
     opacity=".75"
     id="path47" />
  <path
     d="m127.33353 15.174765v223.999995h49.07227c35.29673 0 39.09486-3.62602 38.92187-38.99414v-73.00586-73.005854c.17299-35.368112-3.62514-38.994141-38.92187-38.994141z"
     fill="#fff"
     opacity=".2"
     id="path49" />
  <path
     d="m39.327679 127.17476v73.00586c0 35.36853 3.625159 38.99414 38.921879 38.99414h98.156242c35.29673 0 39.09486-3.62602 38.92187-38.99414v-73.00586z"
     fill="#fff"
     opacity=".2"
     id="path51" />
  <rect
     y="44.004108"
     x="59.624016"
     height="9.975893"
     width="50"
     id="rect1347"
     style="display:inline;opacity:1;vector-effect:none;fill:#8ff0a4;fill-opacity:1;stroke:none;stroke-width:5.15775013;stroke-linecap:butt;stroke-linejoin:round;stroke-miterlimit:4;stroke-dasharray:none;stroke-dashoffset:0;stroke-opacity:1;enable-background:new" />
  <rect
     y="79.923103"
     x="73.433807"
     height="9.975893"
     width="39.238331"
     id="rect1360"
     style="display:inline;opacity:1;vector-effect:none;fill:#8ff0a4;fill-opacity:1;stroke:none;stroke-width:8.07710075;stroke-linecap:butt;stroke-linejoin:round;stroke-miterlimit:4;stroke-dasharray:none;stroke-dashoffset:0;stroke-opacity:1;enable-background:new" />
  <rect
     style="display:inline;opacity:1;vector-effect:none;fill:#8ff0a4;fill-opacity:1;stroke:none;stroke-width:6.4018755;stroke-linecap:butt;stroke-linejoin:round;stroke-miterlimit:4;stroke-dasharray:none;stroke-dashoffset:0;stroke-opacity:1;enable-background:new"
     id="rect1358"
     width="55.462105"
     height="9.975893"
     x="134.31673"
     y="56.064114" />
  <path
     inkscape:connector-curvature="0"
     id="path884"
     d="m 95.416348,104.29905 -5.835139,17.50537 5.835139,5.83514 5.835132,29.17967 v 0.004 l 5.83513,5.83501 64.06953,65.8363 c 3.28261,3.55616 12.94984,4.79877 16.50599,2.06325 l 16.50598,-16.50599 v -2.92731 -21.41428 l -21.21679,-21.21681 -40.84992,-40.84992 -5.83514,-5.83511 v -0.004 l -29.17965,-5.83504 z"
     style="display:inline;opacity:1;vector-effect:none;fill:#000000;fill-opacity:0.03921569;stroke:none;stroke-width:8.2529974;stroke-linecap:butt;stroke-linejoin:round;stroke-miterlimit:4;stroke-dasharray:none;stroke-dashoffset:0;stroke-opacity:1;enable-background:new" />
  <rect
     style="display:inline;opacity:1;vector-effect:none;fill:#8ff0a4;fill-opacity:1;stroke:none;stroke-width:8.07710075;stroke-linecap:butt;stroke-linejoin:round;stroke-miterlimit:4;stroke-dasharray:none;stroke-dashoffset:0;stroke-opacity:1;enable-background:new"
     id="rect1722"
     width="39.238331"
     height="9.975893"
     x="59.333538"
     y="104.9991" />
  <g
     transform="matrix(1.4589376,1.4589376,-1.4589376,1.4589376,681.90908,-420.41899)"
     id="g1428"
     style="display:inline;enable-background:new">
    <path
       inkscape:connector-curvature="0"
       id="rect1420"
       transform="rotate(-45,395.54625,320.3259)"
       d="M 77.900391,72.929688 75.080078,75.75 c -0.003,0.003 -0.0067,0.0048 -0.0098,0.0078 l -11.3125,11.3125 c -0.003,0.003 -0.0048,0.0067 -0.0078,0.0098 l -2.820312,2.820313 2.828124,2.828125 19.798829,19.798822 12.644531,12.64454 c 1.566949,1.56694 4.0893,1.56694 5.65625,0 l 11.31446,-11.31446 c 1.56694,-1.56695 1.56694,-4.0893 0,-5.65625 L 100.52734,95.556641 80.728516,75.757812 Z"
       style="opacity:1;vector-effect:none;fill:url(#linearGradient1437);fill-opacity:1;stroke:none;stroke-width:4;stroke-linecap:butt;stroke-linejoin:round;stroke-miterlimit:4;stroke-dasharray:none;stroke-dashoffset:0;stroke-opacity:1" />
    <path
       inkscape:connector-curvature="0"
       style="opacity:1;vector-effect:none;fill:#33d17a;fill-opacity:1;stroke:none;stroke-width:4;stroke-linecap:butt;stroke-linejoin:round;stroke-miterlimit:4;stroke-dasharray:none;stroke-dashoffset:0;stroke-opacity:1"
       d="m -24,378 h 8 v 8 h -4 z"
       id="path1424" />
    <path
       inkscape:connector-curvature="0"
       style="fill:#3d3846;fill-opacity:1;stroke:none;stroke-width:1px;stroke-linecap:butt;stroke-linejoin:miter;stroke-opacity:1"
       d="m -16,386 12,8 v -24 l -12,8 z"
       id="path1426" />
  </g>
</svg>
