<?xml version="1.0" encoding="UTF-8" standalone="no"?>
<svg
   xmlns:osb="http://www.openswatchbook.org/uri/2009/osb"
   xmlns:dc="http://purl.org/dc/elements/1.1/"
   xmlns:cc="http://creativecommons.org/ns#"
   xmlns:rdf="http://www.w3.org/1999/02/22-rdf-syntax-ns#"
   xmlns:svg="http://www.w3.org/2000/svg"
   xmlns="http://www.w3.org/2000/svg"
   xmlns:xlink="http://www.w3.org/1999/xlink"
   xmlns:sodipodi="http://sodipodi.sourceforge.net/DTD/sodipodi-0.dtd"
   xmlns:inkscape="http://www.inkscape.org/namespaces/inkscape"
   width="256"
   height="256"
   version="1.1"
   id="svg66"
   sodipodi:docname="com.github.cryptowyrm.copypastegrab.svg"
   inkscape:version="0.92.4 (5da689c313, 2019-01-14)">
  <metadata
     id="metadata70">
    <rdf:RDF>
      <cc:Work
         rdf:about="">
        <dc:format>image/svg+xml</dc:format>
        <dc:type
           rdf:resource="http://purl.org/dc/dcmitype/StillImage" />
        <dc:title></dc:title>
      </cc:Work>
    </rdf:RDF>
  </metadata>
  <sodipodi:namedview
     pagecolor="#ffffff"
     bordercolor="#666666"
     borderopacity="1"
     objecttolerance="10"
     gridtolerance="10"
     guidetolerance="10"
     inkscape:pageopacity="0"
     inkscape:pageshadow="2"
     inkscape:window-width="1920"
     inkscape:window-height="1016"
     id="namedview68"
     showgrid="false"
     inkscape:zoom="3.4174597"
     inkscape:cx="127.75199"
     inkscape:cy="127.75199"
     inkscape:window-x="0"
     inkscape:window-y="27"
     inkscape:window-maximized="1"
     inkscape:current-layer="svg66" />
  <defs
     id="defs34">
    <linearGradient
       id="linearGradient5606"
       osb:paint="solid">
      <stop
         id="stop5608"
         offset="0"
         style="stop-color:#000000" />
    </linearGradient>
    <linearGradient
       id="linearGradient4526"
       osb:paint="solid">
      <stop
         id="stop4528"
         offset="0"
         style="stop-color:#ffffff" />
    </linearGradient>
    <linearGradient
       id="linearGradient3600-4"
       osb:paint="gradient">
      <stop
         id="stop3602-7"
         offset="0"
         style="stop-color:#f4f4f4" />
      <stop
         id="stop3604-6"
         offset="1"
         style="stop-color:#dbdbdb" />
    </linearGradient>
    <linearGradient
       id="linearGradient955"
       x1="200"
       x2="200"
       y1="268"
       y2="44"
       gradientTransform="translate(-23.799997,-31.303983)"
       gradientUnits="userSpaceOnUse"
       xlink:href="#linearGradient945" />
    <linearGradient
       id="linearGradient945">
      <stop
         id="stop943"
         offset="0"
         style="stop-color:#e6e6e6" />
      <stop
         id="stop941"
         offset="1"
         style="stop-color:#d3d3d3" />
    </linearGradient>
    <linearGradient
       id="linearGradient1035"
       x1="152"
       x2="152"
       y1="100"
       y2="212"
       gradientTransform="translate(-23.799997,-31.303983)"
       gradientUnits="userSpaceOnUse"
       xlink:href="#linearGradient1033" />
    <linearGradient
       id="linearGradient1033">
      <stop
         style="stop-color:#000000;stop-opacity:0"
         id="stop1029"
         offset="0" />
      <stop
         id="stop1037"
         offset=".5"
         style="stop-color:#000000" />
      <stop
         style="stop-color:#000000;stop-opacity:0"
         id="stop1031"
         offset="1" />
    </linearGradient>
    <filter
       style="color-interpolation-filters:sRGB"
       id="filter1025"
       width="1.048"
       height="1.048"
       x="-.02"
       y="-.02">
      <feGaussianBlur
         id="feGaussianBlur1027"
         stdDeviation="1.5" />
    </filter>
    <linearGradient
       id="linearGradient982"
       x1="152"
       x2="152"
       y1="124"
       y2="236"
       gradientUnits="userSpaceOnUse"
       xlink:href="#linearGradient980" />
    <linearGradient
       id="linearGradient980">
      <stop
         style="stop-color:#000000"
         id="stop976"
         offset="0" />
      <stop
         style="stop-color:#000000;stop-opacity:0"
         id="stop978"
         offset="1" />
    </linearGradient>
    <clipPath
       id="clipPath999"
       clipPathUnits="userSpaceOnUse">
      <path
         style="fill:#5d5d5d"
         d="m 152,68 c -48.60106,0 -88,39.39894 -88,88 0,48.60106 39.39894,88 88,88 48.60106,0 88,-39.39894 88,-88 0,-48.60106 -39.39894,-88 -88,-88 z"
         id="path24" />
    </clipPath>
    <filter
       style="color-interpolation-filters:sRGB"
       id="filter1003"
       width="1.12"
       height="1.12"
       x="-.06"
       y="-.06">
      <feGaussianBlur
         id="feGaussianBlur1005"
         stdDeviation="4.4" />
    </filter>
    <linearGradient
       id="linearGradient11065"
       x1="104"
       x2="200"
       y1="44"
       y2="268"
       gradientTransform="translate(-280.2,-280.69602)"
       gradientUnits="userSpaceOnUse"
       xlink:href="#linearGradient945" />
    <filter
       style="color-interpolation-filters:sRGB"
       id="filter11191"
       width="1.024"
       height="1.024"
       x="-.01"
       y="-.01">
      <feGaussianBlur
         id="feGaussianBlur11193"
         stdDeviation="1.12" />
    </filter>
    <filter
       style="color-interpolation-filters:sRGB"
       id="filter11210"
       width="1.096"
       height="1.096"
       x="-.05"
       y="-.05">
      <feGaussianBlur
         id="feGaussianBlur11212"
         stdDeviation="4.48" />
    </filter>
    <radialGradient
       gradientTransform="matrix(0,25.311449,-31.074374,0,372.78533,-255.44129)"
       gradientUnits="userSpaceOnUse"
       xlink:href="#linearGradient2867-449-88-871-390-598-476-591-434-148-57-177-8-3-3-6-4-8-8-8-5-7-8"
       id="radialGradient3936-3"
       fy="9.9571075"
       fx="7.1183534"
       r="8.9330635"
       cy="9.9571075"
       cx="7.1183534" />
    <linearGradient
       id="linearGradient2867-449-88-871-390-598-476-591-434-148-57-177-8-3-3-6-4-8-8-8-5-7-8">
      <stop
         offset="0"
         style="stop-color:#404648;stop-opacity:1"
         id="stop3750-1-0-7-6-6-1-3-9-3-9-2" />
      <stop
         offset="1"
         style="stop-color:#0c1011;stop-opacity:1"
         id="stop3754-1-8-5-2-7-6-7-1-9-1-0" />
    </linearGradient>
    <linearGradient
       id="linearGradient950">
      <stop
         offset="0"
         id="stop946"
         style="stop-color:#9a9996" />
      <stop
         offset="1"
         id="stop948"
         style="stop-color:#77767b" />
    </linearGradient>
    <linearGradient
       xlink:href="#linearGradient950"
       gradientUnits="userSpaceOnUse"
       gradientTransform="matrix(1.8293937,-0.81599442,0.81599442,1.8293937,-3645.9624,100.02949)"
       y2="812.882"
       y1="806.297"
       x2="1662.99"
       x1="1660.857"
       id="linearGradient1001" />
    <clipPath
       clipPathUnits="userSpaceOnUse"
       id="clipPath5154">
      <circle
         id="circle7"
         style="fill:url(#radialGradient5158)"
         r="109.647"
         cy="924.362"
         cx="128" />
    </clipPath>
    <clipPath
       clipPathUnits="userSpaceOnUse"
       id="clipPath977">
      <circle
         id="circle10"
         style="fill:url(#radialGradient5158)"
         r="109.647"
         cy="924.362"
         cx="128" />
    </clipPath>
    <clipPath
       clipPathUnits="userSpaceOnUse"
       id="clipPath4688">
      <path
         id="path13"
         style="fill:url(#radialGradient4692);stroke:#a7003f;stroke-linecap:round;stroke-linejoin:round"
         d="m 106.42383,889.60156 c -2.2448,-0.0524 -4.09304,1.75264 -4.09375,3.99805 v 32.64453 32.64453 c -4e-5,3.07923 3.33305,5.004 6,3.46485 l 28.26953,-16.32227 28.27148,-16.32227 c 2.66559,-1.54001 2.66559,-5.38772 0,-6.92773 l -28.27148,-16.32227 -28.26953,-16.32226 c -0.58054,-0.3353 -1.23603,-0.51932 -1.90625,-0.53516 z" />
    </clipPath>
    <clipPath
       clipPathUnits="userSpaceOnUse"
       id="clipPath4564">
      <circle
         id="circle16"
         style="fill:url(#radialGradient4568)"
         r="109.647"
         cy="924.362"
         cx="128" />
    </clipPath>
    <clipPath
       clipPathUnits="userSpaceOnUse"
       id="clipPath6215">
      <path
         id="path19"
         style="fill:url(#radialGradient6219)"
         d="m 105.17325,806.18572 c -3.06859,0.56361 -6.11393,1.24721 -9.129005,2.04923 -3.838255,1.06506 -7.62084,2.32142 -11.333578,3.76438 -3.712189,1.44307 -7.34989,3.07087 -10.899472,4.87732 -3.549153,1.80656 -7.005749,3.78947 -10.35684,5.94129 -3.351877,2.15253 -6.593991,4.47137 -9.714191,6.94783 -3.119992,2.47544 -6.114241,5.10535 -8.971529,7.87988 -0.367219,0.38909 -0.731819,0.78065 -1.093777,1.17464 2.60205,17.85956 16.832359,40.03752 30.863064,55.74236 -4.76734,8.84435 -7.265993,18.73329 -7.272057,28.78068 0.02104,2.87431 0.246096,5.7435 0.673482,8.58593 -20.257302,-9.18513 -43.077023,-26.53494 -52.798465,-47.36396 -0.440667,1.15171 -0.863474,2.31018 -1.268271,3.47498 -1.176789,3.80495 -2.162562,7.66637 -2.953625,11.56979 -0.79154,3.90311 -1.3874065,7.84335 -1.7853678,11.80598 -0.39733,3.96334 -0.5961891,7.94407 -0.5958321,11.92728 -4.394e-4,2.81936 0.098928,5.63785 0.2979155,8.45018 0.282275,3.97319 0.763088,7.92978 1.4406374,11.85493 0.625626,3.51826 1.408798,7.00668 2.347153,10.45473 16.778133,6.68355 43.114514,5.45001 63.748015,1.14301 6.818545,11.02763 16.987182,19.58379 29.018153,24.41667 -18.071844,12.93645 -44.490188,24.02095 -67.37308,22.03245 1.384097,1.665 2.813203,3.2921 4.285735,4.8794 2.774977,2.8571 5.691103,5.5737 8.737453,8.1395 3.046107,2.5658 6.218619,4.9777 9.505651,7.2266 3.287242,2.2488 6.684891,4.3319 10.180217,6.2413 3.495379,1.9096 7.084075,3.6433 10.752641,5.1944 3.66896,1.5509 7.413193,2.9174 11.218668,4.0942 1.438565,0.3959 2.884421,0.7648 4.336807,1.1066 14.138748,-11.1844 26.206378,-34.5828 32.780368,-54.56406 12.95816,-0.38251 25.45395,-4.90132 35.65955,-12.89544 2.15922,22.12638 -1.46693,50.5581 -14.64692,69.3832 3.06859,-0.5636 6.11393,-1.2473 9.129,-2.0493 3.83826,-1.0651 7.62084,-2.3214 11.33358,-3.7644 3.71219,-1.4431 7.34989,-3.0709 10.89947,-4.8773 3.54915,-1.8066 7.00575,-3.7895 10.35684,-5.9413 3.35188,-2.1525 6.59399,-4.4714 9.71419,-6.9478 3.11999,-2.4754 6.11424,-5.1054 8.97153,-7.8799 0.36722,-0.3891 0.73182,-0.7806 1.09378,-1.1746 -2.60204,-17.85957 -16.83236,-40.03755 -30.86307,-55.74238 4.76735,-8.84435 7.266,-18.7333 7.27207,-28.78069 -0.021,-2.8743 -0.24611,-5.74349 -0.6735,-8.58592 20.25731,9.18513 43.07704,26.53494 52.79848,47.36396 0.44067,-1.15171 0.86347,-2.31018 1.26827,-3.47499 1.17679,-3.80495 2.16256,-7.66636 2.95362,-11.56978 0.79154,-3.90311 1.38741,-7.84335 1.78537,-11.80598 0.39733,-3.96334 0.59619,-7.94408 0.59583,-11.92729 4.4e-4,-2.81936 -0.0989,-5.63784 -0.29791,-8.45017 -0.28228,-3.97319 -0.76309,-7.92978 -1.44064,-11.85493 -0.62776,-3.53416 -1.41449,-7.03823 -2.35779,-10.50154 -20.56165,-7.32804 -45.89823,-4.79548 -63.74906,-1.11372 -6.81835,-11.01918 -16.98234,-19.56874 -29.00647,-24.39915 18.07184,-12.93645 44.49019,-24.02091 67.37307,-22.03241 -1.38409,-1.66502 -2.8132,-3.2921 -4.28573,-4.87944 -2.77498,-2.85712 -5.6911,-5.57368 -8.73745,-8.13949 -3.04611,-2.56581 -6.21862,-4.97769 -9.50565,-7.22659 -3.28724,-2.24885 -6.68489,-4.3319 -10.18022,-6.24135 -3.49538,-1.90963 -7.08407,-3.64325 -10.75264,-5.19438 -3.66896,-1.55092 -7.41319,-2.91736 -11.21867,-4.09421 -1.42662,-0.39262 -2.86041,-0.75869 -4.30063,-1.09804 -14.14688,11.18369 -26.2293,34.57475 -32.8107,54.55552 -12.96018,0.38127 -25.4582,4.90015 -35.665394,12.89544 -2.15922,-22.12637 1.466931,-50.55807 14.646924,-69.38315 z" />
    </clipPath>
    <linearGradient
       gradientUnits="userSpaceOnUse"
       gradientTransform="matrix(117.16873,0,0,110.27645,69.41563,62.390233)"
       y2="1"
       y1="0"
       x2="0"
       x1="0"
       id="_lgradient_78">
      <stop
         style="stop-color:#1fd1b0"
         offset="0%"
         id="stop51" />
      <stop
         style="stop-color:#00ffaa"
         offset="100%"
         id="stop53" />
    </linearGradient>
    <linearGradient
       gradientUnits="userSpaceOnUse"
       gradientTransform="matrix(108,0,0,108,10.00011,7.9999983)"
       y2="1"
       y1="0"
       x2="0"
       x1="0"
       id="_lgradient_139">
      <stop
         id="stop948-3"
         style="stop-color:#ee00ff"
         offset="0%" />
      <stop
         id="stop950"
         style="stop-color:#9914dc"
         offset="100%" />
    </linearGradient>
    <linearGradient
       gradientTransform="translate(-129.37186,16.700018)"
       gradientUnits="userSpaceOnUse"
       y2="125.206"
       x2="64.5"
       y1="3.7941401"
       x1="64.5"
       id="paint0_linear">
      <stop
         id="stop22"
         stop-color="#B9E968" />
      <stop
         id="stop24"
         stop-opacity="0"
         stop-color="white"
         offset="1" />
    </linearGradient>
    <linearGradient
       gradientTransform="translate(-138.86887,-3.462857)"
       gradientUnits="userSpaceOnUse"
       y2="113.836"
       x2="64.735298"
       y1="11.6933"
       x1="64.735298"
       id="paint1_linear">
      <stop
         id="stop27"
         stop-color="#B9E968" />
      <stop
         id="stop29"
         stop-opacity="0"
         stop-color="white"
         offset="1" />
    </linearGradient>
    <linearGradient
       gradientTransform="translate(-2.2580897,-0.3945859)"
       gradientUnits="userSpaceOnUse"
       y2="113.836"
       x2="64.735298"
       y1="11.6933"
       x1="64.735298"
       id="paint1_linear-3">
      <stop
         id="stop27-6"
         stop-color="#B9E968" />
      <stop
         id="stop29-7"
         stop-opacity="0"
         stop-color="white"
         offset="1" />
    </linearGradient>
    <linearGradient
       inkscape:collect="always"
       xlink:href="#linearGradient913"
       id="linearGradient878"
       x1="15.096322"
       y1="94.400116"
       x2="76.951645"
       y2="94.400116"
       gradientUnits="userSpaceOnUse"
       spreadMethod="pad"
       gradientTransform="matrix(1.0516135,-0.76957408,0.76957408,1.0516135,21.28754,70.092383)" />
    <linearGradient
       gradientUnits="userSpaceOnUse"
       gradientTransform="matrix(63.051,0,0,70.028,34,50.972)"
       y2="0.63239431"
       x2="1.1747544"
       y1="0.91637206"
       x1="0.41732463"
       id="linearGradient913"
       spreadMethod="reflect">
      <stop
         id="stop905"
         style="stop-color:#626262;stop-opacity:1"
         stop-opacity="1"
         offset="0" />
      <stop
         id="stop907-3"
         style="stop-color:rgb(251,251,251)"
         stop-opacity="1"
         offset="0.50128251" />
      <stop
         id="stop909-6"
         style="stop-color:#3e3e3e;stop-opacity:1"
         stop-opacity="1"
         offset="1" />
      <stop
         id="stop911"
         style="stop-color:rgb(34,34,34)"
         stop-opacity="1"
         offset="1" />
    </linearGradient>
    <linearGradient
       inkscape:collect="always"
       xlink:href="#linearGradient913"
       id="linearGradient1533"
       x1="95.41539"
       y1="159.50749"
       x2="106.85539"
       y2="154.38976"
       gradientUnits="userSpaceOnUse"
       spreadMethod="pad"
       gradientTransform="matrix(4.7426417,-1.3285028,1.3285028,4.7426417,-513.07382,-438.49772)" />
  </defs>
  <circle
     style="opacity:0.1;filter:url(#filter11210)"
     cx="128.2"
     cy="128.69601"
     r="112"
     id="circle36" />
  <circle
     style="opacity:0.1;filter:url(#filter11191)"
     cx="128.2"
     cy="126.69601"
     r="112"
     id="circle38" />
  <circle
     style="opacity:0.1"
     cx="128.2"
     cy="124.69601"
     r="114"
     id="circle40" />
  <circle
     style="fill:url(#linearGradient11065)"
     cx="-128.2"
     cy="-124.69601"
     r="112"
     transform="scale(-1)"
     id="circle42" />
  <path
     style="opacity:0.25;fill:#ffffff"
     d="M 16.200002,134.39193 A 112.5345,112.53445 0 0 0 128.17753,236.69602 112.5345,112.53445 0 0 0 240.2,134.39193 Z"
     id="path44"
     inkscape:connector-curvature="0" />
  <circle
     style="opacity:1;fill:#959595;fill-opacity:1;stroke:none;stroke-width:6.04503012"
     id="path952"
     cx="127.79564"
     cy="124.69298"
     r="88" />
  <path
     style="opacity:0.05"
     d="M 40.200002,124.69602 A 88,88 0 0 1 128.2,36.696014 a 88,88 0 0 1 88,88.000006 z"
     id="path48"
     inkscape:connector-curvature="0" />
  <path
     style="opacity:0.2;fill:none;stroke:url(#linearGradient982);stroke-width:10;stroke-linejoin:round;filter:url(#filter1003)"
     d="m 152,70 c -48.60106,0 -88,39.39894 -88,88 0,48.60106 39.39894,88 88,88 48.60106,0 88,-39.39894 88,-88 0,-48.60106 -39.39894,-88 -88,-88 z"
     clip-path="url(#clipPath999)"
     transform="translate(-23.799997,-31.303983)"
     id="path50"
     inkscape:connector-curvature="0" />
  <path
     style="opacity:0.3;fill:#ffffff"
     d="M 128.2,12.696014 A 112,112 0 0 0 16.200002,124.69602 112,112 0 0 0 16.241022,125.86594 112,112 0 0 1 128.2,14.696014 112,112 0 0 1 240.15898,125.5261 a 112,112 0 0 0 0.041,-0.83008 112,112 0 0 0 -112,-112.000006 z"
     id="path62"
     inkscape:connector-curvature="0" />
  <path
     style="opacity:0.2"
     d="m 128.2,236.69602 a 112,112 0 0 1 -111.999998,-112 112,112 0 0 1 0.04102,-1.16992 A 112,112 0 0 0 128.2,234.69602 112,112 0 0 0 240.15898,123.86594 a 112,112 0 0 1 0.041,0.83008 112,112 0 0 1 -112,112 z"
     id="path64"
     inkscape:connector-curvature="0" />
  <path
     inkscape:connector-curvature="0"
     id="rect33"
     d="m 71.028209,78.017963 3.872501,62.762687 88.09696,-5.43279 -3.87322,-62.765299 z m 5.820304,2.600615 c 0.130229,-0.06229 0.274796,-0.101609 0.428192,-0.108366 l 9.027453,-0.421705 c 0.613231,-0.02832 1.133684,0.446709 1.162912,1.058323 l 0.254869,5.459271 c 0.02925,0.611617 -0.447075,1.132329 -1.059036,1.160301 l -9.030078,0.42238 c -0.61197,0.02795 -1.131985,-0.445825 -1.160292,-1.059058 l -0.254154,-5.456641 c -0.02125,-0.459912 0.239471,-0.867331 0.630209,-1.054238 z m 13.389884,-0.625336 c 0.13025,-0.0625 0.272288,-0.100522 0.425622,-0.10749 l 9.028183,-0.419088 c 0.612878,-0.02959 1.133858,0.442483 1.162178,1.055711 l 0.25416,5.456672 c 0.0296,0.612885 -0.44544,1.133327 -1.05833,1.162917 l -9.024852,0.420911 c -0.612869,0.02957 -1.134572,-0.445098 -1.16291,-1.058318 L 89.60569,81.048626 c -0.02125,-0.459916 0.242233,-0.867536 0.632823,-1.054972 z m 13.387263,-0.62461 c 0.1302,-0.0624 0.2748,-0.101619 0.42832,-0.107913 l 9.03006,-0.42243 c 0.61197,-0.02797 1.13233,0.447089 1.16031,1.059053 l 0.25488,5.459278 c 0.028,0.611968 -0.44583,1.131971 -1.05903,1.160294 l -9.02752,0.421558 c -0.61321,0.02835 -1.13368,-0.446701 -1.16291,-1.058324 l -0.25414,-5.456686 c -0.0219,-0.458719 0.2396,-0.867052 0.6302,-1.054237 z m 13.38989,-0.625343 c 0.13002,-0.06243 0.27521,-0.10133 0.42835,-0.107766 l 9.02818,-0.419098 c 0.61161,-0.02924 1.13385,0.442493 1.16217,1.055722 l 0.25417,5.456648 c 0.007,0.153296 -0.0165,0.299427 -0.0666,0.435008 -0.0501,0.135578 -0.12786,0.261189 -0.22369,0.366481 -0.19153,0.209509 -0.46294,0.347472 -0.76803,0.361396 l -9.02746,0.421616 c -0.61324,0.02831 -1.13459,-0.445131 -1.16292,-1.058348 l -0.25415,-5.456669 c -0.0212,-0.45991 0.24014,-0.866948 0.63021,-1.054242 z m 13.38988,-0.625333 c 0.1302,-0.06237 0.2748,-0.101587 0.42835,-0.107765 l 9.02745,-0.421705 c 0.61322,-0.02833 1.1327,0.448437 1.16104,1.061658 l 0.25414,5.456668 c 0.0283,0.61322 -0.44408,1.132943 -1.05571,1.16218 l -9.03082,0.419673 c -0.61161,0.02925 -1.13232,-0.447081 -1.16031,-1.059051 l -0.25415,-5.456658 c -0.021,-0.458979 0.23957,-0.867042 0.63022,-1.054247 z m 13.38987,-0.625333 c 0.13023,-0.06231 0.27293,-0.09831 0.42645,-0.104616 l 9.02744,-0.421705 c 0.61322,-0.02837 1.13296,0.444097 1.16218,1.055717 l 0.25489,5.459266 c 0.0292,0.61163 -0.44584,1.131977 -1.05906,1.160304 l -9.02753,0.421424 c -0.61196,0.02798 -1.13197,-0.445828 -1.16031,-1.059046 l -0.25675,-5.455938 c -0.0212,-0.459917 0.24208,-0.86806 0.63282,-1.054966 z m -36.63163,13.853611 26.08041,16.237716 -23.21851,17.72001 z M 80.379676,129.83025 c 0.130188,-0.0624 0.274786,-0.10158 0.428352,-0.10773 l 9.027448,-0.42171 c 0.613234,-0.0283 1.133682,0.4467 1.162926,1.05834 l 0.254123,5.45658 c 0.0292,0.61164 -0.446349,1.13494 -1.058316,1.16291 l -9.030084,0.42236 c -0.611962,0.028 -1.132321,-0.44708 -1.160287,-1.05904 l -0.254165,-5.45668 c -0.02099,-0.45897 0.239572,-0.86702 0.630224,-1.05424 z m 13.389878,-0.62534 c 0.130162,-0.0625 0.272268,-0.10056 0.425969,-0.10623 l 9.027447,-0.4217 c 0.61288,-0.0296 1.13332,0.44544 1.16291,1.05832 l 0.25415,5.45665 c 0.0296,0.61286 -0.44248,1.13385 -1.05572,1.16217 l -9.030091,0.42231 c -0.611959,0.028 -1.131966,-0.44581 -1.160288,-1.05904 l -0.256787,-5.45597 c -0.02125,-0.45992 0.24225,-0.86753 0.632839,-1.05498 z m 13.387266,-0.62459 c 0.13023,-0.0624 0.2748,-0.10159 0.42815,-0.10851 l 9.03005,-0.42245 c 0.61197,-0.028 1.13198,0.44583 1.16032,1.05906 l 0.25414,5.45666 c 0.0284,0.61322 -0.44509,1.13458 -1.05833,1.16292 l -9.02751,0.42147 c -0.61322,0.0283 -1.13369,-0.44674 -1.16292,-1.05836 l -0.25414,-5.45668 c -0.0219,-0.45871 0.23961,-0.86704 0.63021,-1.05422 z m 13.38988,-0.62534 c 0.13003,-0.0624 0.27519,-0.10139 0.42858,-0.10697 l 9.02744,-0.42171 c 0.61164,-0.0292 1.13494,0.44635 1.16293,1.05832 l 0.25487,5.45924 c 0.028,0.61197 -0.44583,1.13198 -1.05906,1.1603 l -9.02749,0.42151 c -0.61324,0.0283 -1.13333,-0.44544 -1.16293,-1.05832 l -0.25413,-5.45666 c -0.0213,-0.4599 0.24014,-0.86696 0.6302,-1.05424 z m 13.38986,-0.62535 c 0.13004,-0.0624 0.27252,-0.10095 0.42599,-0.10624 l 9.03006,-0.42248 c 0.61321,-0.0283 1.13197,0.44584 1.16028,1.05905 l 0.25676,5.45591 c 0.0283,0.61322 -0.4467,1.13367 -1.05832,1.1629 l -9.0301,0.42233 c -0.61161,0.0292 -1.13196,-0.44582 -1.16028,-1.05905 l -0.25419,-5.45676 c -0.0213,-0.45993 0.2401,-0.86714 0.6302,-1.05425 z"
     style="isolation:isolate;vector-effect:non-scaling-stroke;fill:#ff5e65;fill-opacity:1;stroke:none;stroke-width:3.25781369;stroke-linecap:butt;stroke-linejoin:miter;stroke-miterlimit:2;stroke-dasharray:none;stroke-opacity:1;enable-background:new" />
  <g
     id="g61"
     style="isolation:isolate;enable-background:new"
     transform="matrix(1.2548239,-0.35149969,0.35149969,1.2548239,32.590747,70.881978)">
    <path
       d="m 23.45,53.46 6.758,1.557 c 0.459,0.106 0.745,0.564 0.64,1.022 l -0.942,4.086 c -0.105,0.458 -0.564,0.745 -1.022,0.639 L 22.125,59.207 C 21.667,59.101 21.38,58.643 21.486,58.185 l 0.941,-4.086 c 0.106,-0.458 0.564,-0.745 1.023,-0.639 z"
       stroke-miterlimit="2"
       id="path39"
       inkscape:connector-curvature="0"
       style="vector-effect:non-scaling-stroke;fill:none;stroke:#565656;stroke-width:0.105;stroke-linecap:butt;stroke-linejoin:miter;stroke-miterlimit:2;stroke-opacity:1" />
    <path
       d="m 33.473,55.769 6.758,1.558 c 0.459,0.105 0.745,0.563 0.64,1.022 l -0.942,4.085 c -0.105,0.459 -0.563,0.746 -1.022,0.64 L 32.148,61.517 C 31.69,61.411 31.403,60.953 31.509,60.494 l 0.941,-4.085 c 0.106,-0.459 0.564,-0.745 1.023,-0.64 z"
       stroke-miterlimit="2"
       id="path43"
       inkscape:connector-curvature="0"
       style="vector-effect:non-scaling-stroke;fill:none;stroke:#565656;stroke-width:0.105;stroke-linecap:butt;stroke-linejoin:miter;stroke-miterlimit:2;stroke-opacity:1" />
    <path
       d="m 43.496,58.079 6.759,1.557 c 0.458,0.106 0.745,0.564 0.639,1.023 l -0.941,4.085 c -0.106,0.459 -0.564,0.745 -1.023,0.639 l -6.758,-1.557 c -0.459,-0.106 -0.745,-0.564 -0.64,-1.022 l 0.942,-4.086 c 0.105,-0.458 0.563,-0.745 1.022,-0.639 z"
       stroke-miterlimit="2"
       id="path47"
       inkscape:connector-curvature="0"
       style="vector-effect:non-scaling-stroke;fill:none;stroke:#565656;stroke-width:0.105;stroke-linecap:butt;stroke-linejoin:miter;stroke-miterlimit:2;stroke-opacity:1" />
    <path
       d="m 53.519,60.388 6.759,1.558 c 0.458,0.105 0.745,0.564 0.639,1.022 l -0.941,4.086 c -0.106,0.458 -0.564,0.745 -1.023,0.639 L 52.195,66.136 C 51.736,66.03 51.45,65.572 51.555,65.113 l 0.942,-4.085 c 0.106,-0.459 0.564,-0.745 1.022,-0.64 z"
       stroke-miterlimit="2"
       id="path51"
       inkscape:connector-curvature="0"
       style="vector-effect:non-scaling-stroke;fill:none;stroke:#565656;stroke-width:0.105;stroke-linecap:butt;stroke-linejoin:miter;stroke-miterlimit:2;stroke-opacity:1" />
    <path
       d="m 73.566,65.008 6.758,1.557 c 0.459,0.106 0.745,0.564 0.64,1.022 l -0.942,4.086 C 79.917,72.131 79.458,72.418 79,72.312 l -6.759,-1.557 c -0.458,-0.106 -0.745,-0.564 -0.639,-1.023 l 0.941,-4.085 c 0.106,-0.458 0.564,-0.745 1.023,-0.639 z"
       id="path57"
       inkscape:connector-curvature="0"
       style="fill:#000000" />
    <path
       d="m 73.566,65.008 6.758,1.557 c 0.459,0.106 0.745,0.564 0.64,1.022 l -0.942,4.086 C 79.917,72.131 79.458,72.418 79,72.312 l -6.759,-1.557 c -0.458,-0.106 -0.745,-0.564 -0.639,-1.023 l 0.941,-4.085 c 0.106,-0.458 0.564,-0.745 1.023,-0.639 z"
       stroke-miterlimit="2"
       id="path59"
       inkscape:connector-curvature="0"
       style="vector-effect:non-scaling-stroke;fill:none;stroke:#565656;stroke-width:0.105;stroke-linecap:butt;stroke-linejoin:miter;stroke-miterlimit:2;stroke-opacity:1" />
  </g>
  <g
     id="g113"
     style="isolation:isolate;enable-background:new"
     transform="matrix(1.2548239,-0.35149969,0.35149969,1.2548239,32.590747,70.881978)">
    <path
       d="m 31.027,16.365 6.758,1.557 c 0.459,0.106 0.745,0.564 0.64,1.022 l -0.942,4.086 c -0.105,0.458 -0.564,0.745 -1.022,0.639 l -6.759,-1.557 c -0.458,-0.106 -0.745,-0.564 -0.639,-1.023 l 0.941,-4.085 c 0.106,-0.459 0.564,-0.745 1.023,-0.639 z"
       stroke-miterlimit="2"
       id="path91"
       inkscape:connector-curvature="0"
       style="vector-effect:non-scaling-stroke;fill:none;stroke:#565656;stroke-width:0.105;stroke-linecap:butt;stroke-linejoin:miter;stroke-miterlimit:2;stroke-opacity:1" />
    <path
       d="m 41.05,18.674 6.758,1.558 c 0.459,0.105 0.746,0.563 0.64,1.022 l -0.942,4.085 c -0.105,0.459 -0.563,0.745 -1.022,0.64 l -6.758,-1.558 c -0.459,-0.105 -0.746,-0.563 -0.64,-1.022 l 0.941,-4.085 c 0.106,-0.459 0.564,-0.745 1.023,-0.64 z"
       stroke-miterlimit="2"
       id="path95"
       inkscape:connector-curvature="0"
       style="vector-effect:non-scaling-stroke;fill:none;stroke:#565656;stroke-width:0.105;stroke-linecap:butt;stroke-linejoin:miter;stroke-miterlimit:2;stroke-opacity:1" />
    <path
       d="m 51.073,20.984 6.759,1.557 c 0.458,0.106 0.745,0.564 0.639,1.022 l -0.941,4.086 c -0.106,0.458 -0.564,0.745 -1.023,0.639 l -6.758,-1.557 c -0.459,-0.106 -0.745,-0.564 -0.64,-1.022 l 0.942,-4.086 c 0.105,-0.458 0.563,-0.745 1.022,-0.639 z"
       stroke-miterlimit="2"
       id="path99"
       inkscape:connector-curvature="0"
       style="vector-effect:non-scaling-stroke;fill:none;stroke:#565656;stroke-width:0.105;stroke-linecap:butt;stroke-linejoin:miter;stroke-miterlimit:2;stroke-opacity:1" />
    <path
       d="m 81.143,27.913 6.758,1.557 c 0.459,0.106 0.745,0.564 0.64,1.022 l -0.942,4.086 c -0.105,0.458 -0.563,0.745 -1.022,0.639 L 79.818,33.66 C 79.36,33.554 79.073,33.096 79.179,32.637 l 0.941,-4.085 c 0.106,-0.459 0.564,-0.745 1.023,-0.639 z"
       stroke-miterlimit="2"
       id="path111"
       inkscape:connector-curvature="0"
       style="vector-effect:non-scaling-stroke;fill:none;stroke:#565656;stroke-width:0.105;stroke-linecap:butt;stroke-linejoin:miter;stroke-miterlimit:2;stroke-opacity:1" />
  </g>
  <path
     sodipodi:nodetypes="csssscc"
     inkscape:connector-curvature="0"
     id="rect880"
     d="m 173.67692,123.7324 1.77349,1.9725 c 0.95235,1.05923 1.45332,2.20915 0.30286,3.04903 l -48.12684,35.13477 c -1.15027,0.84014 -2.64094,0.50276 -3.59329,-0.55647 l -1.7735,-1.97249 c 12.46081,-14.01942 41.69737,-33.08045 51.41728,-37.62734 z"
     style="opacity:1;isolation:isolate;fill:#9ac1f2;fill-opacity:0.95378149;stroke:none;stroke-width:0.39093754;stroke-miterlimit:2;stroke-dasharray:none;stroke-opacity:1;enable-background:new" />
  <path
     sodipodi:nodetypes="csssscc"
     inkscape:connector-curvature="0"
     id="rect870"
     d="m 171.23141,105.18808 7.25473,9.91352 c 1.28129,1.75083 0.90326,4.1918 -0.84754,5.47306 l -58.72727,42.97679 c -1.75081,1.28126 -4.1918,0.90323 -5.47305,-0.84758 l -7.25475,-9.91353 z"
     style="opacity:1;isolation:isolate;fill:url(#linearGradient878);fill-opacity:1;stroke:none;stroke-width:0.39093754;stroke-miterlimit:2;stroke-dasharray:none;stroke-opacity:1;enable-background:new" />
  <path
     sodipodi:nodetypes="cccsscc"
     inkscape:connector-curvature="0"
     id="path1514"
     d="m 127.80401,164.57943 48.26292,-35.26608 11.41583,42.68098 7.59744,9.23199 c 0.99579,1.21008 -12.12826,14.06386 -13.23431,13.02895 l -9.89765,-9.26111 z"
     style="fill:url(#linearGradient1533);fill-opacity:1;stroke:none;stroke-width:1.30312514px;stroke-linecap:butt;stroke-linejoin:miter;stroke-opacity:1;enable-background:new" />
</svg>
