<svg enable-background="new" height="256" viewBox="0 0 256 256" width="256" xmlns="http://www.w3.org/2000/svg" xmlns:xlink="http://www.w3.org/1999/xlink">
  <linearGradient id="linearGradient4358" gradientTransform="matrix(0 -1 1 0 -10.0054 585.9946)" gradientUnits="userSpaceOnUse" x1="88" x2="488" y1="88" y2="488">
    <stop offset="0" stop-opacity=".588235"/>
    <stop offset=".88" stop-opacity="0"/>
    <stop offset="1"/>
  </linearGradient>
  <filter id="filter4380" color-interpolation-filters="sRGB" height="1.088" width="1.106" x="-.05" y="-.04">
    <feGaussianBlur stdDeviation="8.48"/>
  </filter>
  <filter id="filter4346" color-interpolation-filters="sRGB" height="1.022" width="1.026" x="-.01" y="-.01">
    <feGaussianBlur stdDeviation="2.12"/>
  </filter>
  <clipPath>
    <path d="m6 196h74v98h-74z"/>
  </clipPath>
  <path d="m189.84323 74c-70.59344 0-78.18921 7.250835-77.84323 77.98706v146.01294 146.01294c-.34598 70.73623 7.24979 77.98706 77.84323 77.98706h196.31354c70.59344 0 76.00668-7.27384 77.84323-77.98706v-146.01294-146.01294c0-70.737067-7.24979-77.98706-77.84323-77.98706z" filter="url(#filter4346)" opacity=".1" transform="matrix(0 .5 -.5 0 276.82523 -15.328148)"/>
  <path d="m189.84323 74c-70.59344 0-78.18921 7.250835-77.84323 77.98706v146.01294 146.01294c-.34598 70.73623 7.24979 77.98706 77.84323 77.98706h196.31354c70.59344 0 77.84323-7.24999 77.84323-77.98706v-146.01294-146.01294c0-70.737067-7.24979-77.98706-77.84323-77.98706z" fill="url(#linearGradient4358)" filter="url(#filter4380)" opacity=".3" transform="matrix(0 .5 -.5 0 276.82523 -15.328148)"/>
  <path d="m241.83043 77.478254c0-36.098811-3.69016-39.983003-39.68984-39.806081h-74.31016-74.310154c-35.99969-.176922-39.68984 3.70727-39.68984 39.806081v100.387326c0 36.09881 3.68973 39.80608 39.68984 39.80608h74.310154 74.31016c36.00011 0 39.68984-3.70727 39.68984-39.80608z" opacity=".1"/>
  <path d="m15.825983 119.66916v57.07617c0 35.29673 3.624067 39.09487 38.992187 38.92188h73.00781 73.00586c35.36811.17299 38.99414-3.62515 38.99414-38.92188v-57.07617z" fill="#fff" opacity=".05"/>
  <path d="m144.81641 39.666016h-16.99024-73.007811c-35.36853 0-38.992187 3.625159-38.992187 38.921875v98.156249c0 35.29673 3.624067 39.09487 38.992187 38.92188h73.007811 16.99024z" fill="#e5a50a"/>
  <path d="m144.81641 39.666016v176.000004h56.01562c35.36811.17299 38.99414-3.62515 38.99414-38.92188v-98.156249c0-35.296716-3.62561-38.921875-38.99414-38.921875z" fill="#63452c"/>
  <g enable-background="new" stroke-width="2.3505219">
    <circle cx="192.32129" cy="101.8129796" fill="#e5a50a" r="18.8041752"/>
    <circle cx="185.2697243" cy="90.0603701" fill="#63452c" r="3.0862352547"/>
  </g>
  <g stroke-width="2.350522">
    <rect fill="#e5a50a" height="9.402088" rx="4.701044" width="14.103132" x="173.517125" y="139.421367"/>
    <rect fill="#e5a50a" height="9.402088" rx="4.701044" width="14.103132" x="197.022315" y="139.421367"/>
    <rect fill="#e5a50a" height="9.402088" rx="4.701044" width="14.103132" x="173.517125" y="162.926537"/>
    <rect fill="#e5a50a" height="9.402088" rx="4.701044" width="14.103132" x="197.022315" y="162.926537"/>
    <path d="m80.321279 75.957224a51.711483 51.711483 0 0 0 -29.620227 9.402109h59.304758a51.711483 51.711483 0 0 0 -29.684531-9.402109zm-39.85787 18.80419a51.711483 51.711483 0 0 0 -6.142578 9.402086h92.060569a51.711483 51.711483 0 0 0 -6.22519-9.402086zm-9.842814 18.804166a51.711483 51.711483 0 0 0 -1.776645 9.40208h102.93175a51.711483 51.711483 0 0 0 -1.717-9.40208zm-1.753704 18.80418a51.711483 51.711483 0 0 0 1.716994 9.40209h99.438085a51.711483 51.711483 0 0 0 1.77666-9.40209zm5.394264 18.80417a51.711483 51.711483 0 0 0 6.225222 9.40208h79.692773a51.711483 51.711483 0 0 0 6.14257-9.40208zm16.375616 18.80419a51.711483 51.711483 0 0 0 29.684508 9.40209 51.711483 51.711483 0 0 0 29.620251-9.40209z" fill="#63452c"/>
  </g>
  <path d="m54.81817 39.667201c-35.36853 0-38.992187 3.623202-38.992187 38.919923v98.158206c0 .0882.0019.16224.002.25v-96.410156c-.000047-35.29672 3.625564-38.921879 38.994094-38.921879h73.005853 73.00586c35.28016 0 38.97394 3.621035 38.99219 38.671879v-1.74805c0-35.296721-3.62561-38.919923-38.99414-38.919923h-73.00586z" fill="#fff" opacity=".3"/>
  <path d="m15.825983 174.74533v2c0 35.29673 3.624067 39.09487 38.992187 38.92188h73.00781 73.00586c35.36811.17299 38.99414-3.62515 38.99414-38.92188v-2c0 35.29673-3.62603 39.09487-38.99414 38.92188h-73.00586-73.00781c-35.36812.17299-38.992187-3.62515-38.992187-38.92188z" opacity=".2"/>
</svg>
