<?xml version="1.0" encoding="UTF-8" standalone="no"?>
<svg
   xmlns:osb="http://www.openswatchbook.org/uri/2009/osb"
   xmlns:dc="http://purl.org/dc/elements/1.1/"
   xmlns:cc="http://creativecommons.org/ns#"
   xmlns:rdf="http://www.w3.org/1999/02/22-rdf-syntax-ns#"
   xmlns:svg="http://www.w3.org/2000/svg"
   xmlns="http://www.w3.org/2000/svg"
   xmlns:xlink="http://www.w3.org/1999/xlink"
   xmlns:sodipodi="http://sodipodi.sourceforge.net/DTD/sodipodi-0.dtd"
   xmlns:inkscape="http://www.inkscape.org/namespaces/inkscape"
   width="256"
   height="256"
   version="1.1"
   id="svg81"
   sodipodi:docname="camera-app.svg"
   inkscape:version="0.92.4 (5da689c313, 2019-01-14)">
  <metadata
     id="metadata85">
    <rdf:RDF>
      <cc:Work
         rdf:about="">
        <dc:format>image/svg+xml</dc:format>
        <dc:type
           rdf:resource="http://purl.org/dc/dcmitype/StillImage" />
        <dc:title></dc:title>
      </cc:Work>
    </rdf:RDF>
  </metadata>
  <sodipodi:namedview
     pagecolor="#ffffff"
     bordercolor="#666666"
     borderopacity="1"
     objecttolerance="10"
     gridtolerance="10"
     guidetolerance="10"
     inkscape:pageopacity="0"
     inkscape:pageshadow="2"
     inkscape:window-width="1920"
     inkscape:window-height="1016"
     id="namedview83"
     showgrid="false"
     showguides="false"
     inkscape:zoom="4.3100358"
     inkscape:cx="127.62421"
     inkscape:cy="126.80283"
     inkscape:window-x="0"
     inkscape:window-y="27"
     inkscape:window-maximized="1"
     inkscape:current-layer="svg81" />
  <defs
     id="defs33">
    <linearGradient
       id="linearGradient2017">
      <stop
         offset="0"
         stop-color="#e01b24"
         id="stop2013"
         style="stop-color:#da1636;stop-opacity:1" />
      <stop
         style="stop-color:#f76363;stop-opacity:1"
         offset="1"
         stop-color="#f66151"
         id="stop2015" />
    </linearGradient>
    <linearGradient
       id="linearGradient2009">
      <stop
         id="stop2005"
         stop-color="#e01b24"
         offset="0" />
      <stop
         id="stop2007"
         stop-color="#f66151"
         offset="1"
         style="stop-color:#f76363;stop-opacity:1" />
    </linearGradient>
    <linearGradient
       id="linearGradient5606"
       osb:paint="solid">
      <stop
         id="stop5608"
         offset="0"
         style="stop-color:#000000" />
    </linearGradient>
    <linearGradient
       id="linearGradient4526"
       osb:paint="solid">
      <stop
         id="stop4528"
         offset="0"
         style="stop-color:#ffffff" />
    </linearGradient>
    <linearGradient
       id="linearGradient3600-4"
       osb:paint="gradient">
      <stop
         id="stop3602-7"
         offset="0"
         style="stop-color:#f4f4f4" />
      <stop
         id="stop3604-6"
         offset="1"
         style="stop-color:#dbdbdb" />
    </linearGradient>
    <radialGradient
       id="radialGradient4404"
       cx="-256"
       cy="-256.2"
       r="96"
       fx="-256"
       fy="-256.2"
       gradientTransform="matrix(0,-0.8333347,-0.8333347,0,-461.50049,-57.33369)"
       gradientUnits="userSpaceOnUse"
       xlink:href="#linearGradient4398" />
    <linearGradient
       id="linearGradient4398">
      <stop
         id="stop4402"
         offset="0"
         style="stop-color:#000000;stop-opacity:0" />
      <stop
         style="stop-color:#000000;stop-opacity:0"
         id="stop4408"
         offset=".899" />
      <stop
         id="stop4410"
         offset=".949"
         style="stop-color:#000000;stop-opacity:0.26165804" />
      <stop
         id="stop4400"
         offset="1"
         style="stop-color:#000000" />
    </linearGradient>
    <linearGradient
       id="linearGradient4301"
       x1="-434"
       x2="-82"
       y1="-256"
       y2="-256"
       gradientUnits="userSpaceOnUse"
       xlink:href="#linearGradient4295" />
    <linearGradient
       id="linearGradient4295">
      <stop
         id="stop4365"
         offset="0"
         style="stop-color:#000000;stop-opacity:0" />
      <stop
         style="stop-color:#000000"
         id="stop4367"
         offset=".733" />
      <stop
         id="stop4369"
         offset="1"
         style="stop-color:#000000;stop-opacity:0" />
    </linearGradient>
    <filter
       style="color-interpolation-filters:sRGB"
       id="filter4291"
       width="1.192"
       height="1.192"
       x="-.1"
       y="-.1">
      <feGaussianBlur
         id="feGaussianBlur4293"
         stdDeviation="14.08" />
    </filter>
    <filter
       style="color-interpolation-filters:sRGB"
       id="filter4323"
       width="1.024"
       height="1.024"
       x="-.01"
       y="-.01">
      <feGaussianBlur
         id="feGaussianBlur4325"
         stdDeviation="1.76" />
    </filter>
    <linearGradient
       id="linearGradient4358"
       x1="88"
       x2="488"
       y1="88"
       y2="488"
       gradientTransform="rotate(-90,287.9946,298)"
       gradientUnits="userSpaceOnUse"
       xlink:href="#linearGradient4360" />
    <linearGradient
       id="linearGradient4360">
      <stop
         id="stop4362"
         offset="0"
         style="stop-color:#000000;stop-opacity:0.58823532" />
      <stop
         style="stop-color:#000000;stop-opacity:0"
         id="stop4364"
         offset=".88" />
      <stop
         id="stop4366"
         offset="1"
         style="stop-color:#000000" />
    </linearGradient>
    <filter
       style="color-interpolation-filters:sRGB"
       id="filter4380"
       width="1.106"
       height="1.088"
       x="-.05"
       y="-.04">
      <feGaussianBlur
         id="feGaussianBlur4382"
         stdDeviation="8.48" />
    </filter>
    <filter
       style="color-interpolation-filters:sRGB"
       id="filter4346"
       width="1.026"
       height="1.022"
       x="-.01"
       y="-.01">
      <feGaussianBlur
         id="feGaussianBlur4348"
         stdDeviation="2.12" />
    </filter>
    <clipPath
       id="clipPath1521">
      <rect
         height="82"
         rx="8"
         transform="scale(-1)"
         width="111.99999"
         x="-119.99999"
         y="-282"
         id="rect32" />
    </clipPath>
    <linearGradient
       id="linearGradient2279"
       gradientTransform="matrix(0.83333333,0,0,0.95454545,-278.5,-124.97727)"
       gradientUnits="userSpaceOnUse"
       x1="-48"
       x2="-24"
       xlink:href="#linearGradient2017"
       y1="248"
       y2="248" />
    <linearGradient
       id="linearGradient1029">
      <stop
         offset="0"
         stop-color="#e01b24"
         id="stop6" />
      <stop
         offset="1"
         stop-color="#f66151"
         id="stop8" />
    </linearGradient>
    <linearGradient
       id="linearGradient2281"
       gradientTransform="matrix(0,-0.99438074,0.99438074,0,-138.2532,272.60495)"
       gradientUnits="userSpaceOnUse"
       x1="-42"
       x2="-30"
       xlink:href="#linearGradient2009"
       y1="194"
       y2="194" />
    <linearGradient
       inkscape:collect="always"
       xlink:href="#linearGradient1029"
       id="linearGradient1059"
       gradientUnits="userSpaceOnUse"
       gradientTransform="matrix(-1.0101405,-1.0101405,1.15707,-1.15707,-471.78004,338.69226)"
       x1="-48"
       y1="248"
       x2="-24"
       y2="248" />
    <filter
       inkscape:collect="always"
       style="color-interpolation-filters:sRGB"
       id="filter1064"
       x="-0.012000086"
       width="1.0240002"
       y="-0.011999914"
       height="1.0239998">
      <feGaussianBlur
         inkscape:collect="always"
         stdDeviation="0.39597925"
         id="feGaussianBlur1066" />
    </filter>
    <filter
       inkscape:collect="always"
       style="color-interpolation-filters:sRGB"
       id="filter1076"
       x="-0.036000259"
       width="1.0720005"
       y="-0.035999741"
       height="1.0719995">
      <feGaussianBlur
         inkscape:collect="always"
         stdDeviation="1.1879377"
         id="feGaussianBlur1078" />
    </filter>
    <linearGradient
       inkscape:collect="always"
       xlink:href="#linearGradient2017"
       id="linearGradient2011"
       gradientUnits="userSpaceOnUse"
       gradientTransform="matrix(0,-0.99438074,0.99438074,0,-138.2532,272.60495)"
       x1="-42"
       y1="194"
       x2="-30"
       y2="194" />
    <linearGradient
       id="linearGradient1277"
       gradientUnits="userSpaceOnUse"
       x1="34"
       x2="34"
       y1="212"
       y2="200"
       gradientTransform="matrix(2.0466923,0,0,2.0466923,-3.7121268,-371.54304)">
      <stop
         offset="0"
         stop-color="#3d3846"
         id="stop27" />
      <stop
         offset="1"
         stop-color="#77767b"
         id="stop29" />
    </linearGradient>
  </defs>
  <path
     style="opacity:0.1;filter:url(#filter4346)"
     d="M 189.84323,74 C 119.24979,74 111.65402,81.250835 112,151.98706 V 298 444.01294 C 111.65402,514.74917 119.24979,522 189.84323,522 H 386.15677 C 456.75021,522 462.16345,514.72616 464,444.01294 V 298 151.98706 C 464,81.249993 456.75021,74 386.15677,74 Z"
     transform="matrix(0,0.5,-0.5,0,276.82523,-15.328148)"
     id="path35" />
  <path
     d="M 189.84323,74 C 119.24979,74 111.65402,81.250835 112,151.98706 V 298 444.01294 C 111.65402,514.74917 119.24979,522 189.84323,522 H 386.15677 C 456.75021,522 464,514.75001 464,444.01294 V 298 151.98706 C 464,81.249993 456.75021,74 386.15677,74 Z"
     transform="matrix(0,0.5,-0.5,0,276.82523,-15.328148)"
     style="opacity:0.3;fill:url(#linearGradient4358);filter:url(#filter4380)"
     id="path37" />
  <path
     style="opacity:0.1"
     d="m 241.83043,77.478254 c 0,-36.098811 -3.69016,-39.983003 -39.68984,-39.806081 H 127.83043 53.520277 c -35.99969,-0.176922 -39.68984,3.70727 -39.68984,39.806081 V 177.86558 c 0,36.09881 3.68973,39.80608 39.68984,39.80608 h 74.310153 74.31016 c 36.00011,0 39.68984,-3.70727 39.68984,-39.80608 z"
     id="path39" />
  <path
     style="fill:#e6e6e6"
     d="m 239.82523,176.74484 c 0,35.29673 -3.62542,39.09461 -38.99353,38.92162 H 127.82523 54.818767 c -35.36812,0.17299 -38.99353,-3.62489 -38.99353,-38.92162 V 78.588074 c 0,-35.296716 3.625,-38.921616 38.99353,-38.921616 h 73.006463 73.00647 c 35.36853,0 38.99353,3.6249 38.99353,38.921616 z"
     id="path41" />
  <path
     style="opacity:0.3;fill:#ffffff"
     d="m 15.825984,87.669154 v 89.076176 c 0,35.29673 3.624067,39.09487 38.992187,38.92188 h 73.007809 73.00586 c 35.36811,0.17299 38.99414,-3.62515 38.99414,-38.92188 V 87.669154 Z"
     id="path43" />
  <path
     style="fill:url(#linearGradient1277);stroke-width:2.04669237"
     d="M 239.67188 70.542969 C 239.63916 69.343998 239.6532 67.889099 239.59961 66.78125 C 239.43141 63.304126 239.15327 60.266952 238.70703 57.615234 C 238.26079 54.963517 237.64661 52.697588 236.8125 50.761719 C 236.39544 49.793784 235.92329 48.909124 235.38867 48.099609 C 234.85405 47.290095 234.25771 46.555414 233.5918 45.890625 C 232.92588 45.225836 232.18984 44.629462 231.37891 44.095703 C 230.56797 43.561944 229.68258 43.090251 228.71289 42.673828 C 226.77351 41.840982 224.50247 41.230829 221.8457 40.785156 C 219.18893 40.339483 216.14611 40.058682 212.66211 39.890625 C 209.17811 39.722568 205.2531 39.666016 200.83203 39.666016 L 127.82617 39.666016 L 54.818359 39.666016 C 50.397293 39.666016 46.472281 39.722568 42.988281 39.890625 C 39.504281 40.058682 36.461459 40.339483 33.804688 40.785156 C 31.147916 41.230829 28.876881 41.840982 26.9375 42.673828 C 25.967809 43.090251 25.082422 43.561944 24.271484 44.095703 C 23.460547 44.629462 22.724508 45.225836 22.058594 45.890625 C 21.392679 46.555414 20.79634 47.290095 20.261719 48.099609 C 19.727098 48.909124 19.254948 49.793784 18.837891 50.761719 C 18.003776 52.697588 17.389598 54.963517 16.943359 57.615234 C 16.497121 60.266952 16.218982 63.304126 16.050781 66.78125 C 15.997191 67.889102 16.011233 69.343994 15.978516 70.542969 L 239.67188 70.542969 z "
     id="path2046" />
  <path
     style="opacity:0.3;fill:#ffffff"
     d="m 54.818171,39.667201 c -35.36853,0 -38.992187,3.623202 -38.992187,38.919923 v 98.158206 c 0,0.0882 0.0019,0.16224 0.002,0.25 V 80.585174 c -4.7e-5,-35.29672 3.625564,-38.921879 38.994094,-38.921879 h 73.005852 73.00586 c 35.28016,0 38.97394,3.621035 38.99219,38.671879 v -1.74805 c 0,-35.296721 -3.62561,-38.919923 -38.99414,-38.919923 h -73.00586 z"
     id="path77" />
  <path
     style="fill:#3d3846;stroke-width:2.04669237"
     d="M 17.896484 54.169922 C 17.581014 55.315223 17.167699 56.282124 16.943359 57.615234 C 16.911888 57.802249 16.910694 58.070852 16.880859 58.261719 L 238.76953 58.261719 C 238.7397 58.070852 238.7385 57.802249 238.70703 57.615234 C 238.48269 56.282124 238.06938 55.315223 237.75391 54.169922 L 17.896484 54.169922 z "
     id="path54" />
  <path
     style="fill:#5e5c64;stroke-width:2.04669237"
     d="M 16.880859 58.261719 C 16.691926 59.470425 16.611378 60.986624 16.482422 62.355469 L 239.16797 62.355469 C 239.03901 60.986624 238.95846 59.470425 238.76953 58.261719 L 16.880859 58.261719 z "
     id="path56" />
  <g
     style="enable-background:new"
     transform="matrix(1.2121686,-1.2121686,1.2121686,1.2121686,-336.88382,-132.08271)"
     id="g76">
    <g
       id="g1055"
       transform="matrix(0,-1.0238527,1.0238527,0,-48.774841,-21.973633)"
       style="filter:url(#filter1064);opacity:0.1">
      <path
         style="fill:#000000;fill-opacity:1;stroke-width:0.99999994"
         d="m -312.5964,193.27059 -10e-6,-84.00008 -2.00038,-8e-4 -6.00035,-15.99987 h -3.99916 l -6.00036,15.99987 h -1.99958 l 1e-5,84.00008 z"
         id="path1049"
         inkscape:connector-curvature="0" />
    </g>
    <g
       style="opacity:0.1;filter:url(#filter1076)"
       transform="matrix(0,-1.0238527,1.0238527,0,-48.774841,-21.973633)"
       id="g1070">
      <path
         inkscape:connector-curvature="0"
         id="path1068"
         d="m -312.5964,193.27059 -10e-6,-84.00008 -2.00038,-8e-4 -6.00035,-15.99987 h -3.99916 l -6.00036,15.99987 h -1.99958 l 1e-5,84.00008 z"
         style="fill:#000000;fill-opacity:1;stroke-width:0.99999994" />
    </g>
    <g
       transform="matrix(0,-0.99438075,0.99438075,0,-4.7575758,1.6361993)"
       id="g68">
      <path
         style="fill:url(#linearGradient2279);fill-opacity:1.0"
         inkscape:connector-curvature="0"
         d="m -318.5,69.75 h 20 v 84 h -20 z"
         id="path62" />
      <path
         style="fill:#3b3b3b;fill-opacity:1"
         inkscape:connector-curvature="0"
         d="m -318.5,137.75 h 20 v 4 h -20 z"
         id="path64" />
      <path
         style="fill:#3b3b3b;fill-opacity:1"
         inkscape:connector-curvature="0"
         d="m -318.5,81.75 h 20 v 4 h -20 z"
         id="path66" />
    </g>
    <path
       style="fill:url(#linearGradient2011);stroke-width:0.99438077;fill-opacity:1"
       inkscape:connector-curvature="0"
       d="m 64.600479,316.35771 v -15.9101 l -15.910092,5.96629 v 3.97752 z"
       id="path70" />
    <path
       style="fill-opacity:0.25925897;stroke-width:0.99474478"
       inkscape:connector-curvature="0"
       d="m 66.596521,318.35011 v -19.8949 h -1.989489 v 19.8949 z"
       id="path72" />
    <path
       style="fill:#3b3b3b;stroke-width:0.99474478;fill-opacity:1"
       inkscape:connector-curvature="0"
       d="m 96.43841,298.45569 a 9.9474478,4.9737239 0 0 0 9.94743,4.97372 9.9474478,4.9737239 0 0 0 9.94745,-4.97372 z"
       id="path74" />
  </g>
  <path
     style="color:#000000;font-style:normal;font-variant:normal;font-weight:normal;font-stretch:normal;font-size:medium;line-height:normal;font-family:sans-serif;font-variant-ligatures:normal;font-variant-position:normal;font-variant-caps:normal;font-variant-numeric:normal;font-variant-alternates:normal;font-feature-settings:normal;text-indent:0;text-align:start;text-decoration:none;text-decoration-line:none;text-decoration-style:solid;text-decoration-color:#000000;letter-spacing:normal;word-spacing:normal;text-transform:none;writing-mode:lr-tb;direction:ltr;text-orientation:mixed;dominant-baseline:auto;baseline-shift:baseline;text-anchor:start;white-space:normal;shape-padding:0;clip-rule:nonzero;display:inline;overflow:visible;visibility:visible;opacity:1;isolation:auto;mix-blend-mode:normal;color-interpolation:sRGB;color-interpolation-filters:linearRGB;solid-color:#000000;solid-opacity:1;vector-effect:none;fill:#f22c42;fill-opacity:1;fill-rule:nonzero;stroke:none;stroke-width:6.82102537;stroke-linecap:round;stroke-linejoin:miter;stroke-miterlimit:4;stroke-dasharray:none;stroke-dashoffset:0;stroke-opacity:1;color-rendering:auto;image-rendering:auto;shape-rendering:auto;text-rendering:auto;enable-background:accumulate"
     d="m 52.170007,118.01246 a 3.4108538,3.4108538 0 0 0 -1.192342,6.65449 c 4.999718,1.69684 5.961657,3.36063 6.424686,5.50545 0.463008,2.14482 -0.174035,5.38025 -0.742723,8.99257 -0.568667,3.61231 -1.011241,8.1096 1.948388,11.84021 2.959609,3.7306 8.256131,5.5828 16.989284,6.14159 4.108118,0.26284 6.867336,1.75611 9.095807,3.96004 2.228472,2.20394 3.845276,5.22094 4.932583,8.33978 2.174618,6.23766 2.174866,12.503 2.174866,12.503 a 3.4108538,3.4108538 0 1 0 6.821034,0.0399 c 0,0 0.079,-7.22437 -2.55789,-14.78776 -1.31838,-3.78168 -3.329513,-7.7416 -6.571222,-10.94762 -3.24173,-3.20602 -7.794536,-5.55246 -13.462194,-5.91511 -7.901071,-0.50554 -11.036181,-2.25796 -12.080025,-3.57371 -1.04382,-1.31576 -1.061298,-3.30838 -0.552872,-6.53793 0.508414,-3.22954 1.602336,-7.18782 0.672773,-11.49382 -0.929575,-4.306 -4.484874,-8.34822 -10.89765,-10.52461 a 3.4108538,3.4108538 0 0 0 -1.002503,-0.19653 z"
     id="path60"
     inkscape:connector-curvature="0" />
  <path
     style="fill:#ffffff;enable-background:new"
     d="m 239.82058,163.67847 -51.99414,51.99414 h 13.07227 c 35.29673,0 39.09486,-3.62602 38.92187,-38.99414 z"
     id="path59"
     inkscape:connector-curvature="0" />
  <path
     style="opacity:0.2"
     d="m 15.825984,174.74533 v 2 c 0,35.29673 3.624067,39.09487 38.992187,38.92188 h 73.007809 73.00586 c 35.36811,0.17299 38.99414,-3.62515 38.99414,-38.92188 v -2 c 0,35.29673 -3.62603,39.09487 -38.99414,38.92188 H 127.82598 54.818171 c -35.36812,0.17299 -38.992187,-3.62515 -38.992187,-38.92188 z"
     id="path79" />
</svg>
