<?xml version="1.0" encoding="UTF-8" standalone="no"?>
<svg
   xmlns:osb="http://www.openswatchbook.org/uri/2009/osb"
   xmlns:dc="http://purl.org/dc/elements/1.1/"
   xmlns:cc="http://creativecommons.org/ns#"
   xmlns:rdf="http://www.w3.org/1999/02/22-rdf-syntax-ns#"
   xmlns:svg="http://www.w3.org/2000/svg"
   xmlns="http://www.w3.org/2000/svg"
   xmlns:xlink="http://www.w3.org/1999/xlink"
   xmlns:sodipodi="http://sodipodi.sourceforge.net/DTD/sodipodi-0.dtd"
   xmlns:inkscape="http://www.inkscape.org/namespaces/inkscape"
   width="256"
   height="256"
   version="1.1"
   id="svg66"
   sodipodi:docname="crow-translate.svg"
   inkscape:version="0.92.4 (5da689c313, 2019-01-14)">
  <metadata
     id="metadata70">
    <rdf:RDF>
      <cc:Work
         rdf:about="">
        <dc:format>image/svg+xml</dc:format>
        <dc:type
           rdf:resource="http://purl.org/dc/dcmitype/StillImage" />
        <dc:title></dc:title>
      </cc:Work>
    </rdf:RDF>
  </metadata>
  <sodipodi:namedview
     pagecolor="#ffffff"
     bordercolor="#666666"
     borderopacity="1"
     objecttolerance="10"
     gridtolerance="10"
     guidetolerance="10"
     inkscape:pageopacity="0"
     inkscape:pageshadow="2"
     inkscape:window-width="1920"
     inkscape:window-height="1016"
     id="namedview68"
     showgrid="false"
     inkscape:zoom="3.4174597"
     inkscape:cx="16.558286"
     inkscape:cy="127.75199"
     inkscape:window-x="0"
     inkscape:window-y="27"
     inkscape:window-maximized="1"
     inkscape:current-layer="g897" />
  <defs
     id="defs34">
    <linearGradient
       id="linearGradient5606"
       osb:paint="solid">
      <stop
         id="stop5608"
         offset="0"
         style="stop-color:#000000" />
    </linearGradient>
    <linearGradient
       id="linearGradient4526"
       osb:paint="solid">
      <stop
         id="stop4528"
         offset="0"
         style="stop-color:#ffffff" />
    </linearGradient>
    <linearGradient
       id="linearGradient3600-4"
       osb:paint="gradient">
      <stop
         id="stop3602-7"
         offset="0"
         style="stop-color:#f4f4f4" />
      <stop
         id="stop3604-6"
         offset="1"
         style="stop-color:#dbdbdb" />
    </linearGradient>
    <linearGradient
       id="linearGradient955"
       x1="200"
       x2="200"
       y1="268"
       y2="44"
       gradientTransform="translate(-23.799997,-31.303983)"
       gradientUnits="userSpaceOnUse"
       xlink:href="#linearGradient945" />
    <linearGradient
       id="linearGradient945">
      <stop
         id="stop943"
         offset="0"
         style="stop-color:#e6e6e6" />
      <stop
         id="stop941"
         offset="1"
         style="stop-color:#d3d3d3" />
    </linearGradient>
    <linearGradient
       id="linearGradient1035"
       x1="152"
       x2="152"
       y1="100"
       y2="212"
       gradientTransform="translate(-23.799997,-31.303983)"
       gradientUnits="userSpaceOnUse"
       xlink:href="#linearGradient1033" />
    <linearGradient
       id="linearGradient1033">
      <stop
         style="stop-color:#000000;stop-opacity:0"
         id="stop1029"
         offset="0" />
      <stop
         id="stop1037"
         offset=".5"
         style="stop-color:#000000" />
      <stop
         style="stop-color:#000000;stop-opacity:0"
         id="stop1031"
         offset="1" />
    </linearGradient>
    <filter
       style="color-interpolation-filters:sRGB"
       id="filter1025"
       width="1.048"
       height="1.048"
       x="-.02"
       y="-.02">
      <feGaussianBlur
         id="feGaussianBlur1027"
         stdDeviation="1.5" />
    </filter>
    <linearGradient
       id="linearGradient982"
       x1="152"
       x2="152"
       y1="124"
       y2="236"
       gradientUnits="userSpaceOnUse"
       xlink:href="#linearGradient980" />
    <linearGradient
       id="linearGradient980">
      <stop
         style="stop-color:#000000"
         id="stop976"
         offset="0" />
      <stop
         style="stop-color:#000000;stop-opacity:0"
         id="stop978"
         offset="1" />
    </linearGradient>
    <clipPath
       id="clipPath999"
       clipPathUnits="userSpaceOnUse">
      <path
         style="fill:#5d5d5d"
         d="m 152,68 c -48.60106,0 -88,39.39894 -88,88 0,48.60106 39.39894,88 88,88 48.60106,0 88,-39.39894 88,-88 0,-48.60106 -39.39894,-88 -88,-88 z"
         id="path24" />
    </clipPath>
    <filter
       style="color-interpolation-filters:sRGB"
       id="filter1003"
       width="1.12"
       height="1.12"
       x="-.06"
       y="-.06">
      <feGaussianBlur
         id="feGaussianBlur1005"
         stdDeviation="4.4" />
    </filter>
    <linearGradient
       id="linearGradient11065"
       x1="104"
       x2="200"
       y1="44"
       y2="268"
       gradientTransform="translate(-280.2,-280.69602)"
       gradientUnits="userSpaceOnUse"
       xlink:href="#linearGradient945" />
    <filter
       style="color-interpolation-filters:sRGB"
       id="filter11191"
       width="1.024"
       height="1.024"
       x="-.01"
       y="-.01">
      <feGaussianBlur
         id="feGaussianBlur11193"
         stdDeviation="1.12" />
    </filter>
    <filter
       style="color-interpolation-filters:sRGB"
       id="filter11210"
       width="1.096"
       height="1.096"
       x="-.05"
       y="-.05">
      <feGaussianBlur
         id="feGaussianBlur11212"
         stdDeviation="4.48" />
    </filter>
    <radialGradient
       gradientTransform="matrix(0,25.311449,-31.074374,0,372.78533,-255.44129)"
       gradientUnits="userSpaceOnUse"
       xlink:href="#linearGradient2867-449-88-871-390-598-476-591-434-148-57-177-8-3-3-6-4-8-8-8-5-7-8"
       id="radialGradient3936-3"
       fy="9.9571075"
       fx="7.1183534"
       r="8.9330635"
       cy="9.9571075"
       cx="7.1183534" />
    <linearGradient
       id="linearGradient2867-449-88-871-390-598-476-591-434-148-57-177-8-3-3-6-4-8-8-8-5-7-8">
      <stop
         offset="0"
         style="stop-color:#404648;stop-opacity:1"
         id="stop3750-1-0-7-6-6-1-3-9-3-9-2" />
      <stop
         offset="1"
         style="stop-color:#0c1011;stop-opacity:1"
         id="stop3754-1-8-5-2-7-6-7-1-9-1-0" />
    </linearGradient>
  </defs>
  <circle
     style="opacity:0.1;filter:url(#filter11210)"
     cx="128.2"
     cy="128.69601"
     r="112"
     id="circle36" />
  <circle
     style="opacity:0.1;filter:url(#filter11191)"
     cx="128.2"
     cy="126.69601"
     r="112"
     id="circle38" />
  <circle
     style="opacity:0.1"
     cx="128.2"
     cy="124.69601"
     r="114"
     id="circle40" />
  <circle
     style="fill:url(#linearGradient11065)"
     cx="-128.2"
     cy="-124.69601"
     r="112"
     transform="scale(-1)"
     id="circle42" />
  <path
     style="opacity:0.25;fill:#ffffff"
     d="M 16.200002,134.39193 A 112.5345,112.53445 0 0 0 128.17753,236.69602 112.5345,112.53445 0 0 0 240.2,134.39193 Z"
     id="path44"
     inkscape:connector-curvature="0" />
  <path
     style="opacity:0.3;fill:#ffffff"
     d="M 128.2,12.696014 A 112,112 0 0 0 16.200002,124.69602 112,112 0 0 0 16.241022,125.86594 112,112 0 0 1 128.2,14.696014 112,112 0 0 1 240.15898,125.5261 a 112,112 0 0 0 0.041,-0.83008 112,112 0 0 0 -112,-112.000006 z"
     id="path62"
     inkscape:connector-curvature="0" />
  <path
     style="opacity:0.2"
     d="m 128.2,236.69602 a 112,112 0 0 1 -111.999998,-112 112,112 0 0 1 0.04102,-1.16992 A 112,112 0 0 0 128.2,234.69602 112,112 0 0 0 240.15898,123.86594 a 112,112 0 0 1 0.041,0.83008 112,112 0 0 1 -112,112 z"
     id="path64"
     inkscape:connector-curvature="0" />
  <g
     style="enable-background:new"
     id="g897"
     transform="translate(-164.95218,51.374338)">
    <circle
       id="circle868"
       style="fill:#cdab8f;stroke-width:1.62962961"
       r="88"
       cy="73.321671"
       cx="293.15219" />
    <g
       id="g878"
       style="isolation:isolate"
       transform="matrix(1.2434383,0,0,1.2434383,150.60658,-83.880254)">
      <path
         id="path872"
         style="fill:#3d3846"
         d="m 153.6788,107.64021 c 0.33925,3.02603 -0.24997,6.17595 0.0893,9.25507 0.35711,3.34457 -0.10715,6.8661 -0.71422,10.15758 -0.0714,-2.67211 -0.14287,-5.37962 -0.2857,-7.99865 -0.14287,-2.7606 -1.24988,-5.59198 -1.99982,-8.28179 0.8035,5.66277 1.16061,11.3963 1.30345,17.07676 0.10715,4.38864 0.12496,8.95424 -0.60708,13.2367 -0.71423,4.17629 -2.91045,8.37027 -4.28532,12.24573 -2.03553,5.73354 -1.39273,13.39596 -1.87483,19.69578 0,0 -0.48212,1.09716 -1.30345,-4.24707 -1.10706,-7.22002 -1.72207,-15.13018 -1.57923,-22.47407 v -0.17701 c 0,-0.0885 -0.0176,-0.24774 -0.0176,-0.24774 0,0 -0.23215,0.67245 -0.26783,0.86711 -0.0176,0.0708 -0.0536,0.26545 -0.0536,0.31853 v 0.0171 c -0.0176,0.0885 -0.0357,0.19471 -0.0536,0.31853 -0.0176,0.0708 -0.0176,0.12382 -0.0357,0.19466 -0.0176,0.12382 -0.0536,0.28316 -0.0715,0.42469 -0.0176,0.0708 -0.0357,0.15924 -0.0357,0.23004 -0.10714,0.58397 -0.24997,1.30951 -0.42852,2.17662 -0.87492,4.15859 -6.1714,6.03568 -6.76063,10.22967 -0.0176,0.0885 -8.04984,0.74289 -0.0357,0.24774 -0.48212,2.90216 -0.74299,3.90115 -2.54639,5.93621 -1.91055,2.15892 -0.70199,-1.31864 -3.29105,0.20326 2.47541,0.63673 0.10715,-0.0708 0,0 -3.46397,2.33589 7.09425,-2.11456 3.46959,-0.16799 -0.24997,0.14153 1.81573,-1.99848 -0.17856,-0.0352 6.58997,-2.86523 -4.06001,5.96015 -3.93505,5.81855 0.9285,-0.99099 -0.60709,1.11485 0,0 5.01619,-6.91353 -0.0176,0.0352 0,0 1.99982,-4.03472 -1.1594,-1.45673 0.644,-5.61532 0,0 -0.49999,0.74324 -1.12489,1.62804 -0.78564,1.09716 -1.82127,2.44207 -2.24979,2.95526 -3.39255,4.07011 -5.78519,9.98061 -9.33843,13.85607 -1.28561,1.39799 -3.48183,1.92887 -4.92812,3.29147 -1.35703,1.27413 -3.30327,2.10584 -5.07097,2.40667 -2.85688,0.47777 -5.89231,2.21202 -8.802764,3.27379 0,0 1.714125,-2.03505 2.964014,-3.64541 2.60691,-3.39765 5.0174,-6.97227 7.21363,-10.67075 -0.0536,0.0352 -1.53558,1.23872 -2.49977,3.30917 -1.67856,3.66314 -5.8746,6.40604 -8.78505,9.23742 -2.142419,2.08836 -5.160001,3.30939 -8.070446,3.92875 -4.910265,-0.19466 -9.909805,-0.72555 -14.677224,-1.89349 -3.963923,-0.99098 -11.195403,-3.27378 -12.641699,-5.98129 -0.19641,-0.38933 -0.285689,-1.94657 0.535666,-3.43305 1.42844,-2.58363 4.303176,-4.72486 6.053016,-7.23771 3.285413,-4.76026 7.981411,-11.98028 12.713118,-14.79396 2.624759,-1.55726 6.142296,-2.49516 9.21344,-3.73388 1.410588,-0.47778 2.089095,-0.72555 3.481825,-1.23873 -3.463967,0.76093 -6.802944,2.05275 -10.106215,3.29147 0,0 0.01761,0.0352 1.785548,-2.30049 1.964108,-2.58364 4.553153,-4.72486 6.838659,-6.98997 4.017489,-3.98163 13.802312,-10.42302 13.802312,-10.42302 0,0 -5.195959,3.07913 -7.909991,3.11452 -1.642708,0.0171 -3.249707,0.97329 -4.606723,1.8227 1.678417,-1.87579 3.481823,-3.69849 5.213812,-5.5035 3.499672,-3.68079 8.302802,-6.31751 12.588132,-9.07811 -2.12481,0.44241 -4.48173,0.23004 -6.60654,-0.0885 4.03534,-2.51285 7.96355,-5.36192 11.33825,-8.63571 8.30281,-8.08712 12.39171,-19.94353 18.8197,-29.30478 2.94615,-4.282464 7.01721,-8.016346 10.92756,-11.52018 0,0 2.60691,0.389317 2.99973,1.875792 0.9642,3.69849 2.6069,7.379286 3.87465,11.060077 1.3213,3.769275 1.46415,8.051731 1.91053,12.015671 z"
         inkscape:connector-curvature="0" />
      <path
         id="path874"
         style="fill:#57e389"
         d="m 139.78416,122.80726 c -0.50123,0.1768 2.27489,9.96626 3.1617,14.4016 0.42413,2.12048 0.7326,4.32931 0.52053,6.48514 0,0 -0.25065,0.67148 -0.28917,0.86585 -0.0192,0.0707 -0.0578,0.26504 -0.0578,0.31807 v 0.0171 c -0.0192,0.106 -0.0383,0.19435 -0.0578,0.31806 -0.0192,0.0706 -0.0192,0.12367 -0.0383,0.19436 -0.0192,0.12366 -0.0578,0.28275 -0.0772,0.42407 -0.0192,0.0707 -0.0383,0.15903 -0.0383,0.22977 -0.11569,0.58314 -0.26996,1.30763 -0.4627,2.1735 -0.94466,4.1526 -1.61942,8.35822 -2.25562,12.54617 -0.0192,0.0884 -0.0192,0.15904 -0.0383,0.24738 -0.52052,2.898 -1.50374,4.13494 -3.45088,6.16708 -2.06282,2.15581 -4.54977,4.85942 -7.34517,6.37911 -0.0771,0.053 -0.1928,0.106 -0.30844,0.1768 -3.74005,2.33253 -7.21021,5.28353 -11.12378,7.2273 -0.26996,0.14133 -0.36633,0.14133 -0.1928,-0.0352 0.13495,-0.14132 0.26996,-0.26504 0.40486,-0.40641 1.00249,-0.98956 1.96642,-2.08514 2.62189,-3.19839 0.0192,-0.0352 0.0383,-0.0707 0.0578,-0.106 2.15921,-4.02892 4.10635,-8.25221 6.05349,-12.40482 0.0964,-0.15903 0.13495,-0.24738 0.21212,-0.40641 0.19279,-0.35338 0.32774,-0.74216 0.42412,-1.16626 1.11816,-5.35421 2.31344,-11.57429 1.02177,-16.9285 -1.15672,-4.75342 -1.23384,-3.58715 -1.23384,-3.58715 -0.28917,2.29719 -0.75186,4.61204 -1.4459,6.82087 -0.5398,1.67872 -1.52302,3.14539 -1.65796,4.01125 -0.36633,2.27952 0.63619,4.61204 0.69403,4.75341 -0.0578,-0.0883 -0.92538,-1.43132 -1.11817,-3.42811 -0.21201,-2.1735 1.21456,-4.52369 1.73509,-6.52047 0.84826,-3.23375 -0.84826,-7.8988 -0.0964,-10.249 1.94714,-6.20241 9.58149,-15.77991 12.68535,-24.36786 1.61942,4.59438 2.87253,9.59518 4.60761,13.87149 0.15427,0.38875 0.21206,0.51241 0.0578,0.33572 -0.80976,-1.7139 -2.96898,-5.15967 -2.96898,-5.15967 z"
         inkscape:connector-curvature="0" />
      <path
         id="path876"
         style="fill:#77767b"
         d="m 145.91135,51.616075 c 2.87227,10.610948 2.92715,17.890851 2.4332,28.721337 -0.54884,11.781809 -4.99447,24.149058 -8.83636,35.272258 -4.04314,11.72693 -10.51947,21.64268 -16.61163,32.27192 -5.59818,9.7511 -14.47114,16.42808 -23.197723,23.36178 -7.610612,6.03727 -16.026192,10.64754 -25.082087,13.97718 -2.817388,1.02451 -5.964085,1.3904 -8.946127,1.48188 -2.195369,0.0549 -3.768717,-0.0732 -3.841896,-0.0732 6.476338,-1.3538 13.04415,-3.31134 18.788696,-6.62269 15.93472,-9.20225 30.936407,-20.23338 40.285017,-36.29616 5.94579,-10.19017 11.56227,-20.19739 15.47735,-31.39378 3.60406,-10.35482 7.53743,-21.203598 8.61682,-32.143853 0.82326,-8.360695 0.78667,-13.298872 -0.71349,-21.604683 0.51225,-1.738001 0.73178,-2.616148 1.11598,-4.354148 0.21952,-1.061095 0.3293,-1.573348 0.51225,-2.597853 z"
         inkscape:connector-curvature="0" />
    </g>
  </g>
  <path
     style="opacity:0.2;fill:none;stroke:url(#linearGradient982);stroke-width:10;stroke-linejoin:round;filter:url(#filter1003)"
     d="m 152,70 c -48.60106,0 -88,39.39894 -88,88 0,48.60106 39.39894,88 88,88 48.60106,0 88,-39.39894 88,-88 0,-48.60106 -39.39894,-88 -88,-88 z"
     clip-path="url(#clipPath999)"
     transform="translate(-23.799997,-31.303983)"
     id="path50"
     inkscape:connector-curvature="0" />
  <path
     style="opacity:0.05"
     d="M 40.200002,124.69602 A 88,88 0 0 1 128.2,36.696014 a 88,88 0 0 1 88,88.000006 z"
     id="path48"
     inkscape:connector-curvature="0" />
</svg>
