<svg enable-background="new" height="256" viewBox="0 0 256 256" width="256" xmlns="http://www.w3.org/2000/svg" xmlns:xlink="http://www.w3.org/1999/xlink"><filter id="a" color-interpolation-filters="sRGB" height="1.024" width="1.024" x="-.01" y="-.01"><feGaussianBlur stdDeviation="1.12"/></filter><filter id="b" color-interpolation-filters="sRGB" height="1.096" width="1.096" x="-.05" y="-.05"><feGaussianBlur stdDeviation="4.48"/></filter><circle cx="128.2" cy="128.69601" filter="url(#b)" opacity=".1" r="112"/><circle cx="128.2" cy="126.69601" filter="url(#a)" opacity=".1" r="112"/><circle cx="128.2" cy="124.69601" opacity=".1" r="114"/><g transform="matrix(1.8662001 0 0 1.8662001 62.72306 -342.74666)"><ellipse cx="35.228001" cy="250.498" rx="20.014999" ry="20.025999"/><path d="m19.406675 192.6236-1.025 53.35882 59.062-38.06327a60.015 60.048558 0 0 0 -12.208-9.42527 60.015 60.048558 0 0 0 -45.83-5.87028z" fill="#fb7c38"/><path d="m-22.776325 235.26943 45.673 27.56741-3.415-70.20924a60.015 60.048558 0 0 0 -14.2619997 5.86628 60.015 60.048558 0 0 0 -27.9960003 36.77655z" fill="#f76363"/><path d="m-6.9543247 293.14477 46.6959997-25.79241-62.474-32.14496a60.015 60.048558 0 0 0 -2.055 15.29054 60.015 60.048558 0 0 0 17.8330003 42.64683z" fill="#9b33ae"/><path d="m51.048675 308.37228 1.025-53.35882-59.0619997 38.06328a60.015 60.048558 0 0 0 12.208 9.42526 60.015 60.048558 0 0 0 45.8299997 5.87028z" fill="#5884f4"/><path d="m93.231675 265.72645-45.674-27.5684 3.415 70.20923a60.015 60.048558 0 0 0 14.262-5.86628 60.015 60.048558 0 0 0 27.996-36.77655z" fill="#76c22b"/><path d="m77.409675 207.85111-42.921 27.7355 58.7 30.20188a60.013 60.046556 0 0 0 2.054-15.29055 60.015 60.048558 0 0 0 -17.833-42.64683z" fill="#fdc92b"/></g><path d="m151.86337 109.65276 84.8076 43.47316-84.68816-41.00653zm-24.75141-12.736474 80.03198-51.746921-77.8392 52.880337z" opacity=".2"/><path d="m103.71353 111.99801-4.7756-95.223819 6.84895 93.885009z" opacity=".098"/><path d="m105.06653 139.81247-84.80759-43.473162 84.68814 41.006542z" opacity=".03"/><path d="m129.81794 152.54895-80.032 51.74691 77.83923-52.88033z" opacity=".06"/><path d="m153.21636 137.46723 4.77561 95.22383-6.84895-93.88502z" opacity=".2"/><path d="m128.20001 12.696012a112 112 0 0 0 -112.000006 111.999998 112 112 0 0 0 .04102 1.16992 112 112 0 0 1 111.958986-111.169918 112 112 0 0 1 111.95898 110.830078 112 112 0 0 0 .041-.83008 112 112 0 0 0 -112-111.999998z" fill="#fff" opacity=".3"/><path d="m128.20001 236.69601a112 112 0 0 1 -112.000006-112 112 112 0 0 1 .04102-1.16992 112 112 0 0 0 111.958986 111.16992 112 112 0 0 0 111.95898-110.83008 112 112 0 0 1 .041.83008 112 112 0 0 1 -112 112z" opacity=".2"/></svg>