<svg xmlns="http://www.w3.org/2000/svg" xmlns:xlink="http://www.w3.org/1999/xlink" style="enable-background:new" width="256" height="256" version="1.0" viewBox="0 0 256 256">
 <title id="title4162">
  Adwaita Icon Template
 </title>
 <defs>
  <linearGradient id="linearGradient1106">
   <stop id="stop1102" offset="0" style="stop-color:#26a269"/>
   <stop id="stop1104" offset="1" style="stop-color:#2ec27e"/>
  </linearGradient>
  <linearGradient id="linearGradient1096">
   <stop id="stop1092" offset="0" style="stop-color:#e5a50a"/>
   <stop style="stop-color:#f8e45c" id="stop1100" offset=".256"/>
   <stop id="stop1094" offset="1" style="stop-color:#e5a50a"/>
  </linearGradient>
  <linearGradient id="linearGradient1098" x1="13.916" x2="116" y1="264.001" y2="264.001" gradientTransform="matrix(1.1538452,0,0,1.0344633,-9.8460411,-6.0655371)" gradientUnits="userSpaceOnUse" xlink:href="#linearGradient1096"/>
  <linearGradient id="linearGradient1108" x1="12" x2="19.416" y1="251.713" y2="251.713" gradientTransform="matrix(1.1538452,0,0,1.0344633,-9.8460411,-6.0655371)" gradientUnits="userSpaceOnUse" xlink:href="#linearGradient1106"/>
  <filter style="color-interpolation-filters:sRGB" id="filter11191" width="1.024" height="1.024" x="-.01" y="-.01">
   <feGaussianBlur id="feGaussianBlur11193" stdDeviation="1.12"/>
  </filter>
  <filter style="color-interpolation-filters:sRGB" id="filter11210" width="1.096" height="1.096" x="-.05" y="-.05">
   <feGaussianBlur id="feGaussianBlur11212" stdDeviation="4.48"/>
  </filter>
 </defs>
 <circle style="opacity:0.1;filter:url(#filter11210)" cx="128.752" cy="127.248" r="112"/>
 <circle style="opacity:0.1;filter:url(#filter11191)" cx="128.752" cy="125.248" r="112"/>
 <circle style="opacity:0.1" cx="128.752" cy="123.248" r="114"/>
 <g transform="matrix(1.8662001,0,0,1.8662001,63.275059,-344.19467)">
  <ellipse cx="35.228" cy="250.498" rx="20.015" ry="20.026"/>
  <path style="fill:#fb7c38" d="m 19.406675,192.6236 -1.025,53.35882 59.062,-38.06327 a 60.015,60.048558 0 0 0 -12.208,-9.42527 60.015,60.048558 0 0 0 -45.83,-5.87028 z"/>
  <path style="fill:#f76363" d="m -22.776325,235.26943 45.673,27.56741 -3.415,-70.20924 a 60.015,60.048558 0 0 0 -14.2619997,5.86628 60.015,60.048558 0 0 0 -27.9960003,36.77655 z"/>
  <path style="fill:#9b33ae" d="m -6.9543247,293.14477 46.6959997,-25.79241 -62.474,-32.14496 a 60.015,60.048558 0 0 0 -2.055,15.29054 60.015,60.048558 0 0 0 17.8330003,42.64683 z"/>
  <path style="fill:#5884f4" d="m 51.048675,308.37228 1.025,-53.35882 -59.0619997,38.06328 a 60.015,60.048558 0 0 0 12.208,9.42526 60.015,60.048558 0 0 0 45.8299997,5.87028 z"/>
  <path style="fill:#76c22b" d="m 93.231675,265.72645 -45.674,-27.5684 3.415,70.20923 a 60.015,60.048558 0 0 0 14.262,-5.86628 60.015,60.048558 0 0 0 27.996,-36.77655 z"/>
  <path style="fill:#fdc92b" d="m 77.409675,207.85111 -42.921,27.7355 58.7,30.20188 a 60.013,60.046556 0 0 0 2.054,-15.29055 60.015,60.048558 0 0 0 -17.833,-42.64683 z"/>
 </g>
 <path style="opacity:0.2" d="m 152.41537,108.20475 84.8076,43.47316 -84.68816,-41.00653 z m -24.75141,-12.736473 80.03198,-51.746921 -77.8392,52.880337 z"/>
 <path style="opacity:0.09800002" d="M 104.26553,110.55 99.489929,15.326182 106.33888,109.21119 Z"/>
 <path style="opacity:0.02999998" d="M 105.61853,138.36446 20.810939,94.891299 105.49908,135.89784 Z"/>
 <path style="opacity:0.06000001" d="M 130.36994,151.10094 50.337939,202.84785 128.17717,149.96752 Z"/>
 <path style="opacity:0.2" d="m 153.76836,136.01922 4.77561,95.22383 -6.84895,-93.88502 z"/>
 <path style="opacity:0.3;fill:#ffffff" d="M 128.75201,11.248003 A 112,112 0 0 0 16.752003,123.248 a 112,112 0 0 0 0.04102,1.16992 112,112 0 0 1 111.958987,-111.169917 112,112 0 0 1 111.95898,110.830077 112,112 0 0 0 0.041,-0.83008 112,112 0 0 0 -112,-111.999997 z"/>
 <path style="opacity:0.2" d="m 128.75201,235.248 a 112,112 0 0 1 -112.000007,-112 112,112 0 0 1 0.04102,-1.16992 112,112 0 0 0 111.958987,111.16992 112,112 0 0 0 111.95898,-110.83008 112,112 0 0 1 0.041,0.83008 112,112 0 0 1 -112,112 z"/>
</svg>
