<svg height="256" width="256" xmlns="http://www.w3.org/2000/svg" xmlns:xlink="http://www.w3.org/1999/xlink"><linearGradient id="a" gradientUnits="userSpaceOnUse" x1="88" x2="488" y1="88" y2="488"><stop offset="0" stop-opacity=".588235"/><stop offset="1" stop-opacity=".205556"/></linearGradient><filter id="b" color-interpolation-filters="sRGB" height="1.047976" width="1.048024" x="-.024012" y="-.023988"><feGaussianBlur stdDeviation="1.5307812"/></filter><linearGradient id="c" gradientTransform="matrix(0 -1 1 0 -28.11888 279.17176)" gradientUnits="userSpaceOnUse" x1="39.997299" x2="263.99731" y1="155.99969" y2="155.99969"><stop offset="0" stop-color="#f76363"/><stop offset="1" stop-color="#f22c42"/></linearGradient><filter id="d" color-interpolation-filters="sRGB" height="1.087725" width="1.105998" x="-.052999" y="-.043863"><feGaussianBlur stdDeviation="8.4801079"/></filter><filter id="e" color-interpolation-filters="sRGB" height="1.021931" width="1.0265" x="-.01325" y="-.010966"><feGaussianBlur stdDeviation="2.120027"/></filter><path d="m141.84323 74c-70.59344 0-78.18921 7.250835-77.84323 77.98706v146.01294 146.01294c-.34598 70.73623 7.24979 77.98706 77.84323 77.98706h292.31354c70.59344 0 79.78033-7.27652 77.84323-77.98706v-146.01294-146.01294c0-70.737067-7.24979-77.98706-77.84323-77.98706z" filter="url(#e)" opacity=".1" transform="matrix(.5 0 0 .5 -16.116488 -20.825537)"/><path d="m141.84323 74c-70.59344 0-78.18921 7.250835-77.84323 77.98706v146.01294 146.01294c-.34598 70.73623 7.24979 77.98706 77.84323 77.98706h292.31354c70.59344 0 79.78033-7.27652 77.84323-77.98706v-146.01294-146.01294c0-70.737067-7.24979-77.98706-77.84323-77.98706z" fill="url(#a)" filter="url(#d)" opacity=".3" transform="matrix(.5 0 0 .5 -16.116488 -20.825235)"/><path d="m53.695112 13.174463c-36.098811 0-39.983003 3.69016-39.806081 39.68984v74.310167 74.31016c-.176922 35.99969 3.70727 39.68984 39.806081 39.68984h148.387318c36.09881 0 40.77464-3.70276 39.80608-39.68984v-74.31016-74.310167c0-36.00011-3.70727-39.68984-39.80608-39.68984z" opacity=".1"/><path d="m54.805134 239.17447c-35.29673 0-39.09461-3.62542-38.92162-38.99353v-73.00647-73.006479c-.17299-35.36812 3.62489-38.99353 38.92162-38.99353h146.156756c35.29671 0 38.92161 3.625 38.92161 38.99353v73.006479 73.00647c0 35.36853-3.6249 38.99353-38.92161 38.99353z" fill="url(#c)"/><path d="m185.6287 80.764625-72.26904 72.269035-43.241442-43.25112-10.26609 10.29512 53.517202 53.50753 82.54481-82.535125z" fill="#fff" stroke="#fff" stroke-width="1.9"/><path d="m115.75838 61.174765c-35.298038 0-63.999993 28.70196-63.999993 64.000005 0 35.29804 28.701955 64 63.999993 64 15.45232 0 29.63935-5.50209 40.70897-14.64844l6.89063 6.89063-1.41406 1.41406 31.5 31.5 11.31445-11.3125-31.5-31.5-1.41406 1.41406-6.88086-6.88086c9.23157-11.09442 14.79492-25.34465 14.79492-40.87695 0-35.298045-28.70196-64.000005-63.99999-64.000005zm0 8.13672c30.90124 0 55.86327 24.96204 55.86327 55.863285 0 30.90124-24.96203 55.86523-55.86327 55.86523-30.901238 0-55.865223-24.96399-55.865223-55.86523 0-30.901245 24.963985-55.863285 55.865223-55.863285z" filter="url(#b)" opacity=".2"/><path d="m171.60086 179.17507-12.00001-12" fill="none" stroke="#666" stroke-width="11.999999"/><path d="m199.10086 206.67507-31.50001-31.5" fill="none" stroke="#3b3b3b" stroke-width="15.999999"/><circle cx="115.7581" cy="123.17508" fill="#fff" fill-opacity=".235294" r="59.932201" stroke="#545454" stroke-width="8.135592"/><path d="m54.805392 15.174463c-35.296728 0-39.09487 3.62603-38.92188 38.99414v2c-.17299-35.36811 3.625152-38.99414 38.92188-38.99414h146.156238c35.29673 0 38.92188 3.62561 38.92188 38.99414v-2c0-35.36853-3.62515-38.99414-38.92188-38.99414z" fill="#fff" opacity=".3"/><path d="m54.810792 239.17447c-35.296731 0-39.094875-3.62603-38.921885-38.99414v-2c-.17299 35.36811 3.625154 38.99414 38.921885 38.99414h146.156238c35.29673 0 38.92188-3.62561 38.92188-38.99414v2c0 35.36853-3.62515 38.99414-38.92188 38.99414z" opacity=".2"/></svg>