<svg fill="none" height="256" viewBox="0 0 256 256" width="256" xmlns="http://www.w3.org/2000/svg" xmlns:xlink="http://www.w3.org/1999/xlink">
  <linearGradient id="lg1">
    <stop offset="0" stop-color="#f8367b"/>
    <stop offset="1" stop-color="#f29cbb"/>
  </linearGradient>
  <linearGradient id="paint0_linear" gradientUnits="userSpaceOnUse" x1="70.0889" x2="117.834" xlink:href="#lg1" y1="88.7958" y2="260.355"/>
  <linearGradient id="paint1_linear" gradientUnits="userSpaceOnUse" x1="128.021" x2="128.021" y1="137.711" y2="269.506">
    <stop offset="0" stop-color="#f29cbb"/>
    <stop offset="1" stop-color="#fac4d7"/>
  </linearGradient>
  <linearGradient id="paint2_linear" gradientUnits="userSpaceOnUse" x1="171.291" x2="167.771" xlink:href="#lg1" y1="138.418" y2="84.5977"/>
  <linearGradient id="paint3_linear" gradientUnits="userSpaceOnUse" x1="214.58" x2="215.595" xlink:href="#lg1" y1="167.515" y2="102.757"/>
  <g clip-rule="evenodd" fill-rule="evenodd">
    <path d="m204.33 224.892h-152.2301c-3.1637 0-5.0741-2.415-5.0741-5.074v-187.7439c0-2.9422 1.9104-5.0741 5.0741-5.0741h106.6081l50.69 50.7415v142.0765c-.161 5.074-5.068 5.074-5.068 5.074z" fill="#da1a5f"/>
    <path d="m92.7088 162.206c-.0383.037-.0383 5.71-.1192 7.191-.0795 1.198-.2001 3.771-3.0757 3.771-2.9551 0-3.6761-2.996-3.916-4.299-.2768-1.445-.2768-2.646-.2768-3.172 0-1.692.1193-6.417 4.6328-6.417 1.3583 0 2.1176.355 2.7166.634zm-11.5847 4.161c0-4.09 1.1611-9.588 8.3103-9.59 1.6379 0 2.5974.247 3.3553.459 0-4.651 0-5.179-1.0801-6.203 2.718-.21 3.9571-.597 5.3935-1.198-.5181 2.75-.5181 11.807-.5181 17.165 0 5.498.4783 8.036 1.1171 9.163-.3591-.036-.6785-.07-.9978-.07-.3222-.035-.6785-.035-1.1185-.035-1.2376 0-1.997.069-2.7563.105l-.0795-3.135c-.6785 2.079-2.2766 3.277-4.7534 3.277-.88 0-6.8725 0-6.8725-9.938zm32.4459-1.447-.076 2.08h-10.627c0 1.725.08 6.732 6.312 6.732 2.397 0 3.476-.599 4.315-1.058-.24 1.092-.44 1.903-.401 3.171-.718.179-2.038.529-4.752.529-6.111 0-9.7462-2.82-9.7462-9.973 0-1.691 0-9.658 8.1482-9.658 5.912 0 6.827 4.054 6.827 8.177zm-10.782-.353h6.831c.079-2.502-.159-5.533-3.276-5.533-2.834 0-3.516 2.608-3.555 5.533zm12.317 5.711v-8.669c0-7.578 0-9.907-1.557-10.469 1.716-.142 3.315-.317 5.91-1.375-.318 3.207-.358 9.481-.358 11.279.599-1.446 1.717-4.265 5.551-4.265 1.918 0 3.716.846 4.833 2.501 1.157 1.764 1.316 4.547 1.316 5.816 0 2.08-.398 4.829-1.557 6.874-2.435 4.404-6.948 4.404-8.506 4.404-2.437 0-4.474-.316-6.112-.881.48-1.127.48-2.606.48-5.215zm11.461-3.842c0-2.748-.598-6.448-3.634-6.448-.359 0-2.235.034-3.074 2.535-.281.778-.639 2.362-.639 5.393 0 2.538 0 4.723.08 5.992.519.105 1.317.211 1.957.211 4.633 0 5.31-4.406 5.31-7.683zm11.914 9.727c-.834-.124-1.676-.183-2.518-.176-1.278 0-2.159.071-3.074.176.398-.67.557-.988.677-3.277.161-3.137.201-11.527-.08-13.288-.199-1.34-.556-1.552-1.117-1.904 3.276-.282 4.194-.492 5.711-1.127-.317 1.549-.36 2.327-.36 4.687-.078 12.161-.119 13.464.761 14.909zm1.805-5.639c0-4.724 3.355-6.448 8.43-6.448 1.08 0 1.718.069 2.478.103 0-2.748 0-4.686-3.319-4.686-2.073 0-4.111.634-5.671 1.832-.358-1.517-.758-2.184-1.237-2.961 1.157-.528 3.475-1.587 7.428-1.587 5.992 0 6.791 2.645 6.791 5.323l-.039 7.19c0 1.868 0 3.208.079 4.547.122 1.373.361 1.728.801 2.326-.679-.036-1.319-.105-1.997-.105-1.2 0-1.918.069-2.638.105-.125-1.241-.165-2.489-.119-3.736-.759 1.481-1.997 3.878-5.674 3.878-.318 0-1.317 0-2.315-.388-2.24-.952-2.998-3.172-2.998-5.393zm10.984-4.336h-2.117c-1.516 0-4.871.248-4.871 3.561 0 1.727.516 3.489 2.913 3.489 1.041 0 2.439-.459 3.276-2.046.68-1.232.72-2.783.799-5.004zm23.009 6.486c.04 1.199.04 2.468.599 3.49-.88-.069-1.399-.176-3.034-.176-.75-.001-1.498.057-2.239.176.159-.458.239-.634.318-1.235.122-.809.202-3.524.202-4.475v-3.806c0-1.657 0-4.054-.122-4.9-.08-.598-.278-2.218-2.596-2.218-2.277 0-3.035 1.479-3.317 2.676-.318 1.234-.318 2.574-.318 7.79.04 4.512.04 4.933.44 6.167-.901-.095-1.808-.142-2.715-.139-.961 0-1.6.034-2.396.139.278-.564.44-.846.519-2.819.081-1.939.24-11.455-.122-13.709-.198-1.377-.599-1.694-1.039-2.046 3.236-.142 4.275-.6 5.273-1.056v3.735c.48-1.095 1.478-3.526 5.473-3.526 4.995 0 5.032 3.208 5.074 5.321zm-35.462-21.094-3.307 2.917-3.308-2.917 3.308-2.918zm18.18-67.7808-.796 1.6862c1.178-3.5583.5-7.4331.664-10.7842l-.327-.088c-.287-8.428-7.574-17.3855-14.056-20.4172-5.591-2.5789-14.195-3.0232-18.169-1.0787.548-.484 2.725-.687 2.071-1.0603-6.226.6175-4.833 2.1702-9.605 3.388-1.307 1.2647 3.819-1.0134 1.062.6245-2.561.7069-3.753-.4456-7.544 3.4788.338.5451 2.407-1.6152.681.5536-3.565-.4414-11.2581 8.1541-12.8917 11.0013l.853.1462c-1.4009 3.5157-3.2475 5.7568-3.4958 7.8617-.3648 5.1763-2.173 14.6164.3378 17.5161l-.2456 2.4214c.3449.687.6061 1.3854 1.0333 2.0324l-.5592.046c2.64 8.33 2.8358.154 6.3242 8.805-.508-.17-1.016-.358-1.753-1.351-.089.759 1.073 3.036 2.452 4.813l-.584.667c.768 1.398 1.478 1.703 2.01 2.189-2.87-1.566 2.663 5.162 3.16 6.019l.442-.786c-.066 1.13.809 2.59 2.449 4.61l1.364-.056c.562 1.115 2.617 3.12 3.865 3.215l-.831 1.082c3.131.99 1.522 1.314 5.367 2.675l-.775-1.372c1.96 1.703 2.567 3.192 5.337 4.498 3.839 1.338 4.347.807 8.289 1.934-3.342-.092-7.266-.059-9.907-1.005-18.016-4.879-34.499-26.013-33.2954-47.7833-.2767-4.4071.4386-9.9141-.2938-11.0113 1.0291-3.3553 2.2213-7.443 4.6228-12.3099-.1745-.3265.3946.9538 1.6152-1.127.7395-1.6237 1.3427-3.4135 2.2767-4.9946l.4797-.1107c.4783-2.7905 6.5058-7.0655 8.2988-9.2186l.124.8232c3.913-3.6705 10.885-6.1302 14.812-7.8816-1.032 1.1411 2.311-.1136 4.716-.2598-.759.4244-1.513.7565-2.224 1.2547 2.89-.6898 2.751.2839 5.703-.1064-1.036.149-2.294.562-2.093.7167 3.298.3818 3.803-1.019 6.855-.0014l-.192-.9027c4.24 1.5301 5.13 1.2703 9.74 3.7159 1.615.0794 1.777-.9964 4.221-.0015.43.7537-.098.8942 2.905 2.6797.334-.1334-.599-.9807-1.334-1.6549 6.034 3.2247 12.591 10.1029 14.592 17.4622-1.874-3.4533-.19 1.7614-.836 1.4888.836 2.2511 1.518 4.5788 1.944 6.9818-.557-1.9701-1.763-6.7277-3.882-9.7963-.172 1.98-2.733-1.3668-1.332 2.992 1.062 1.5456.215-1.5656 1.528 1.178.021 1.3044.519 2.6003.807 4.2992-.447-.0724-1.003-1.8792-1.331-1.3753.457 2.1375 1.206 3.2517 1.49 3.4163-.146.3577-.526-.3335-.553 1.1199.177 3.3468.939 1.936 1.3 2.0949-.365 1.6465-1.838 3.5839-1.11 6.4183-.209-.8587-.619-1.7231-.927-2.5364-.288 2.42.535 2.8926-.582 5.8236.805-2.6428.718-5.0287-.043-3.8805.337 3.7584-2.973 6.6425-2.613 9.0199l-.963-1.3242c-2.606 3.7768-.061 2.0807-1.831 4.9421.65-1.1241-.344-.4627.504-1.7358-.562.0312-2.508 2.3916-4.29 3.7797-7.001 5.6103-15.358 6.3443-23.449 3.3243-.315.257 1.444 1.635 2.741 2.302 3.083 1.14 6.567 1.185 9.311 1.083-5.93 2.481-17.251-2.518-20.954-9.1492.835.1817 3.708 4.6622 5.858 5.3882-1.272-1.017-2.254-2.3125-3.165-3.6438 1.717 1.9718 3.801 3.5828 6.08 4.6488-.143-.554.63-.665-.448-1.391-6.86-5.2577-10.912-9.7243-9.504-20.0671 1.044-.7905 1.323-5.1039 3.724-6.6141 1.462-3.2333 5.846-6.2096 10.53-6.2863 4.781-.2597 8.816 2.5548 10.843 5.2104-3.688-3.4419-9.73-4.4865-14.884-1.9374-5.268 2.3718-8.391 8.174-7.935 13.9507.194-.2867.367-.1078.463-.8203-.162 11.2284 12.099 19.4591 20.928 15.3051l.103.234c3.58-.9781 3.119-1.7843 5.461-3.3896-.184.3762-1.577 1.3385-.746 1.3569 1.137-.3037 4.693-3.6108 6.443-5.1664.8-1.7302-.429-.9353.691-3.1112l1.37-.6813c.762-2.1999 1.605-3.4447 1.508-6.0052z" fill="#c10648"/>
    <path d="m92.7088 159.866c-.0383.035-.0383 5.71-.1192 7.19-.0795 1.197-.2001 3.77-3.0757 3.77-2.9551 0-3.6761-2.996-3.916-4.299-.2768-1.445-.2768-2.644-.2768-3.171 0-1.693.1193-6.417 4.6328-6.417 1.3583 0 2.1176.354 2.7166.635zm-11.5847 4.16c0-4.09 1.1611-9.588 8.3103-9.589 1.6379 0 2.5974.247 3.3553.458 0-4.651 0-5.18-1.0801-6.202 2.718-.21 3.9571-.599 5.3935-1.199-.5181 2.75-.5181 11.807-.5181 17.164 0 5.5.4783 8.037 1.1171 9.164-.3591-.035-.6785-.069-.9978-.069-.3222-.036-.6785-.036-1.1185-.036-1.2376 0-1.997.07-2.7563.105l-.0795-3.135c-.6785 2.078-2.2766 3.277-4.7534 3.277-.88 0-6.8725 0-6.8725-9.938zm32.4459-1.446-.076 2.078h-10.627c0 1.727.08 6.733 6.312 6.733 2.397 0 3.476-.599 4.315-1.059-.24 1.093-.44 1.904-.401 3.172-.718.179-2.038.53-4.752.53-6.111 0-9.7462-2.82-9.7462-9.974 0-1.69 0-9.659 8.1482-9.659 5.912 0 6.827 4.056 6.827 8.179zm-10.782-.354h6.831c.079-2.503-.159-5.534-3.276-5.534-2.834 0-3.516 2.609-3.555 5.534zm12.317 5.71v-8.669c0-7.578 0-9.906-1.557-10.468 1.716-.142 3.315-.316 5.91-1.375-.318 3.208-.358 9.481-.358 11.278.599-1.445 1.717-4.264 5.551-4.264 1.918 0 3.716.846 4.833 2.501 1.157 1.763 1.316 4.548 1.316 5.815 0 2.081-.398 4.83-1.557 6.874-2.435 4.406-6.948 4.406-8.506 4.406-2.437 0-4.474-.317-6.112-.882.48-1.127.48-2.606.48-5.216zm11.461-3.84c0-2.748-.598-6.45-3.634-6.45-.359 0-2.235.036-3.074 2.536-.281.778-.639 2.362-.639 5.394 0 2.536 0 4.722.08 5.991.519.105 1.317.211 1.957.211 4.633 0 5.31-4.405 5.31-7.682zm11.914 9.726c-.834-.124-1.676-.182-2.518-.176-1.278 0-2.159.071-3.074.176.398-.67.557-.988.677-3.277.161-3.138.201-11.526-.08-13.288-.199-1.341-.556-1.551-1.117-1.903 3.276-.283 4.194-.493 5.711-1.127-.317 1.548-.36 2.326-.36 4.687-.078 12.16-.119 13.463.761 14.908zm1.805-5.639c0-4.723 3.355-6.448 8.43-6.449 1.08 0 1.718.071 2.478.105 0-2.748 0-4.687-3.319-4.687-2.073 0-4.111.635-5.671 1.833-.358-1.518-.758-2.185-1.237-2.961 1.157-.53 3.475-1.587 7.428-1.587 5.992 0 6.791 2.643 6.791 5.322l-.039 7.191c0 1.868 0 3.208.079 4.546.122 1.374.361 1.727.801 2.326-.679-.035-1.319-.105-1.997-.105-1.2 0-1.918.07-2.638.105-.125-1.241-.165-2.489-.119-3.735-.759 1.48-1.997 3.877-5.674 3.877-.318 0-1.317 0-2.315-.387-2.24-.953-2.998-3.172-2.998-5.394zm10.984-4.336h-2.117c-1.516 0-4.871.249-4.871 3.561 0 1.726.516 3.489 2.913 3.489 1.041 0 2.439-.458 3.276-2.045.68-1.234.72-2.784.799-5.005zm23.009 6.487c.04 1.199.04 2.466.599 3.49-.88-.071-1.399-.178-3.034-.178-.96 0-1.479.073-2.239.178.159-.459.239-.635.318-1.235.122-.809.202-3.524.202-4.477v-3.805c0-1.656 0-4.055-.122-4.9-.08-.598-.278-2.219-2.596-2.219-2.277 0-3.035 1.48-3.317 2.678-.318 1.233-.318 2.573-.318 7.789.04 4.512.04 4.933.44 6.167-.901-.095-1.808-.142-2.715-.139-.961 0-1.6.034-2.396.139.278-.563.44-.846.519-2.818.081-1.939.24-11.456-.122-13.711-.198-1.376-.599-1.692-1.039-2.044 3.236-.142 4.275-.601 5.273-1.058v3.736c.48-1.094 1.478-3.526 5.473-3.526 4.995 0 5.032 3.208 5.074 5.322zm-35.462-21.096-3.307 2.918-3.308-2.918 3.308-2.917zm18.18-67.7793-.796 1.6862c1.178-3.5583.5-7.4331.664-10.7842l-.327-.088c-.287-8.428-7.574-17.3855-14.056-20.4172-5.591-2.5804-14.195-3.0246-18.169-1.0787.548-.484 2.725-.687 2.071-1.0602-6.226.6174-4.833 2.1701-9.605 3.3879-1.307 1.2632 3.819-1.0134 1.062.6231-2.561.7068-3.753-.4442-7.544 3.4802.338.5436 2.407-1.6152.681.5522-3.565-.44-11.2581 8.1541-12.8917 11.0027l.853.1462c-1.4009 3.5157-3.2475 5.7568-3.4958 7.8603-.3648 5.1763-2.173 14.6178.3378 17.5175l-.2456 2.4214c.3449.687.6061 1.3853 1.0333 2.0325l-.5592.0454c2.64 8.33 2.8358.1547 6.3242 8.806-.508-.171-1.016-.358-1.753-1.352-.089.758 1.073 3.036 2.452 4.813l-.584.666c.768 1.398 1.478 1.705 2.01 2.19-2.87-1.567 2.663 5.162 3.16 6.02l.442-.787c-.066 1.13.809 2.589 2.449 4.609l1.364-.054c.562 1.114 2.617 3.118 3.865 3.215l-.831 1.081c3.131.991 1.522 1.315 5.367 2.676l-.775-1.373c1.96 1.703 2.567 3.192 5.337 4.498 3.839 1.339 4.347.808 8.289 1.935-3.342-.094-7.266-.06-9.907-1.005-18.016-4.88-34.499-26.015-33.2954-47.7852-.2767-4.4071.4386-9.9141-.2938-11.0098 1.0291-3.3554 2.2213-7.4431 4.6228-12.31-.1745-.3264.3946.9524 1.6152-1.127.7395-1.6251 1.3427-3.4149 2.2767-4.9946l.4797-.1107c.4783-2.7905 6.5058-7.0669 8.2988-9.2186l.124.8217c3.913-3.6689 10.885-6.1287 14.812-7.8815-1.032 1.1425 2.311-.1122 4.716-.2584-.759.4244-1.513.7551-2.224 1.2547 2.89-.6898 2.751.2825 5.703-.1064-1.036.149-2.294.5606-2.093.7167 3.298.3818 3.803-1.019 6.855-.0014l-.192-.9027c4.24 1.5301 5.13 1.2703 9.74 3.7159 1.615.0794 1.777-.9978 4.221-.0029.43.7551-.098.8956 2.905 2.6812.334-.1335-.599-.9808-1.334-1.6564 6.034 3.2262 12.591 10.1029 14.592 17.4621-1.874-3.4518-.19 1.7614-.836 1.4889.836 2.2525 1.518 4.5802 1.944 6.9832-.557-1.9701-1.763-6.7277-3.882-9.7963-.172 1.98-2.733-1.3682-1.332 2.992 1.062 1.5442.215-1.567 1.528 1.178.021 1.3044.519 2.6003.807 4.2992-.447-.0738-1.003-1.8792-1.331-1.3753.457 2.1375 1.206 3.2517 1.49 3.4163-.146.3577-.526-.3335-.553 1.1199.177 3.3468.939 1.9345 1.3 2.0935-.365 1.6479-1.838 3.5853-1.11 6.4197-.209-.8587-.619-1.7231-.927-2.5364-.288 2.42.535 2.8912-.582 5.8236.805-2.6428.718-5.0287-.043-3.8805.337 3.757-2.973 6.6425-2.613 9.0199l-.963-1.3242c-2.606 3.7768-.061 2.0793-1.831 4.9421.65-1.1241-.344-.4627.504-1.7373-.562.0327-2.508 2.3916-4.29 3.7798-7.001 5.6122-15.358 6.3462-23.449 3.3242-.315.258 1.444 1.636 2.741 2.303 3.083 1.139 6.567 1.184 9.311 1.083-5.93 2.481-17.251-2.518-20.954-9.1487.835.1817 3.708 4.6626 5.858 5.3878-1.272-1.0176-2.254-2.3121-3.165-3.6434 1.717 1.9715 3.801 3.5824 6.08 4.6483-.143-.554.63-.664-.448-1.3909-6.86-5.2573-10.912-9.7239-9.504-20.0667 1.044-.7905 1.323-5.1039 3.724-6.6141 1.462-3.2333 5.846-6.2096 10.53-6.2863 4.781-.2611 8.816 2.5549 10.843 5.2104-3.688-3.4433-9.73-4.4879-14.884-1.9374-5.268 2.3718-8.391 8.174-7.935 13.9493.194-.2853.367-.1078.463-.8189-.162 11.2284 12.099 19.4576 20.928 15.3047l.103.2342c3.58-.9779 3.119-1.7841 5.461-3.3908-.184.3761-1.577 1.3399-.746 1.3583 1.137-.3037 4.693-3.6122 6.443-5.1664.8-1.7302-.429-.9353.691-3.1126l1.37-.6813c.762-2.2 1.605-3.4433 1.508-6.0038z" fill="#fff"/>
    <path d="m47.0258 32.0741c0-2.9422 1.9104-5.0741 5.0741-5.0741h106.6081v2.5378h-106.6081c-3.1637 0-5.0741 2.1304-5.0741 5.0741v92.6031z" fill="#fff" opacity=".197"/>
    <path d="m163.371 77.8834c-2.801 0-4.714-2.4143-4.714-5.2161v-45.6673l50.741 50.7415z" fill="#b2174f"/>
  </g>
  <path d="m41.9516 98.038h172.5214c1.345.0008 2.635.5356 3.587 1.487.951.951 1.486 2.242 1.487 3.587v121.78c-.001 1.345-.536 2.635-1.487 3.587-.952.951-2.242 1.486-3.587 1.487h-172.5214c-1.3455-.001-2.6357-.536-3.5871-1.487-.9515-.952-1.4863-2.242-1.4871-3.587v-121.78c.0008-1.345.5356-2.636 1.4871-3.587.9514-.9514 2.2416-1.4862 3.5871-1.487z" fill="#c36e8c"/>
  <path clip-rule="evenodd" d="m36.8774 103.111c.0012-1.346.5366-2.636 1.4886-3.5875.952-.9512 2.2427-1.4855 3.5884-1.4855h172.5166c2.802 0 5.074 2.271 5.076 5.073v119.246c-.001 1.345-.537 2.635-1.488 3.586-.952.952-2.242 1.486-3.588 1.486h-172.5166c-1.3459.001-2.6368-.533-3.5888-1.485-.9521-.951-1.4874-2.241-1.4882-3.587z" fill="url(#paint0_linear)" fill-rule="evenodd"/>
  <path d="m116.646 137.709h22.709v92.257h-22.709z" fill="url(#paint1_linear)" opacity=".6"/>
  <path clip-rule="evenodd" d="m128.213 227.429h86.258c1.346 0 2.636-.534 3.588-1.486.951-.951 1.487-2.241 1.488-3.586v-119.246c-.002-2.802-2.274-5.073-5.076-5.073h-86.258z" fill="#fff" fill-rule="evenodd" opacity=".08"/>
  <path clip-rule="evenodd" d="m237.596 134.001c1.14 2.558-.218 4.63-3.02 4.63h-213.1495c-2.8074 0-4.1586-2.081-3.026-4.63l16.1805-36.4058c1.1369-2.5577 4.3347-4.6313 7.1336-4.6313h172.5164c2.805 0 6.004 2.0807 7.141 4.6313z" fill="url(#paint2_linear)" fill-rule="evenodd"/>
  <path clip-rule="evenodd" d="m215.414 95.6237c1.405 0 3.006 1.0404 3.576 2.3207l15.952 35.7946c.571 1.28-.076 2.319-1.504 2.32l-210.9342.128c-1.4023.001-2.0736-1.043-1.5158-2.301l16.0286-36.0623c.5649-1.2717 2.1716-2.3022 3.5668-2.3007z" fill="url(#paint3_linear)" fill-rule="evenodd"/>
  <path clip-rule="evenodd" d="m113.902 175.185-10.527.001.001-1.761c0-.599.565-1.187 1.177-1.189h8.782c.529 0 1.144.6 1.141 1.18-.002.46-.009.741-.009 1.18 0 0 0 .589-.565.589zm2.901 8.252c.604 0 .608-.544.608-.599l-.004-1.751c0-.591-.594-.599-.594-.599l-12.28-.01c-1.176 0-1.158-1.151-1.158-1.151-.016-.074 0-1.2 0-1.2h11.69c3.246 0 2.916-2.36 2.916-2.36v-2.339s.317-4.152-4.08-4.152h-9.849c-4.4751 0-4.1728 4.096-4.1728 4.096l.0014 5.93c0 4.135 4.0964 4.117 4.0964 4.117zm-21.6175-3.526s.0099.575-.5848.575c-.6359 0-3.7471.009-5.6575.003-1.9119-.007-4.2552-.43-4.2566-4.086-.0014-3.657 2.6031-4.163 4.2282-4.163 1.6252 0 6.2678.007 6.2678.007zm2.9238-15.945h-2.3291s-.5848 0-.5848.609l-.0028 4.701h-7.568c-5.4985-.001-6.4665 4.808-6.4622 7.09.0056 2.281.9893 7.061 6.5488 7.055 5.561-.004 5.7171.007 8.0704.007 2.9153 0 2.9196-2.932 2.9196-2.932v-15.939c0-.591-.5919-.591-.5919-.591zm61.9417 3.54h-2.336c-.078 0-.154-.015-.225-.045s-.136-.073-.19-.128-.097-.12-.127-.191c-.029-.071-.044-.148-.043-.225v-2.36c0-.327.261-.591.585-.591h2.336c.323 0 .585.264.585.591v2.36c0 .077-.015.154-.044.225s-.072.136-.127.191c-.054.055-.119.098-.19.128s-.147.045-.224.045zm0 15.931h-2.336c-.078 0-.154-.016-.225-.046s-.136-.073-.19-.128-.097-.12-.127-.191c-.029-.072-.044-.148-.043-.225v-12.98c0-.325.261-.591.585-.591h2.336c.323 0 .585.266.585.591v12.98c0 .326-.262.59-.585.59zm11.102-14.157c-4.292-.005-9.349-.001-9.349-.001v13.559c0 .267.17.661.699.593l2.041-.007c.805.117.782-.596.782-.596l-.017-10.592 5.84-.005c.098 0 2.36.046 2.36 2.945l-.017 7.672c-.001.077.014.154.043.225.029.072.072.137.127.192.054.055.118.099.19.129.071.03.147.045.225.046l2.335-.003c.077 0 .153-.016.224-.045.071-.03.136-.074.19-.128.054-.055.097-.12.127-.191.029-.072.044-.148.043-.225v-7.94c0-3.27-1.551-5.622-5.843-5.628zm-29.214 3.515s-.009-.577.584-.577c.638 0 3.747-.007 5.659-.001 1.911.006 4.255.43 4.257 4.086 0 3.655-2.605 4.162-4.23 4.162s-6.268-.006-6.268-.006zm-2.92 15.945c.775-.002 1.551-.002 2.326 0 0 0 .585 0 .585-.609l.001-4.701h7.568c5.499.001 6.467-4.807 6.463-7.09-.006-2.281-.99-7.062-6.549-7.057-5.561.006-5.713-.007-8.066-.007-2.916 0-2.914 2.934-2.914 2.934v15.939c0 .591.586.591.586.591zm-5.835-13.555-10.527.001.001-1.761c0-.599.565-1.187 1.177-1.189h8.781c.53 0 1.144.6 1.141 1.18-.001.46-.008.741-.008 1.18 0 0 0 .589-.565.589zm2.901 8.252c.603 0 .608-.544.608-.599l-.005-1.751c0-.591-.593-.599-.593-.599l-12.28-.01c-1.177 0-1.158-1.151-1.158-1.151-.016-.074 0-1.2 0-1.2h11.69c3.246 0 2.916-2.36 2.916-2.36v-2.339s.317-4.152-4.08-4.152h-9.849c-4.475 0-4.173 4.096-4.173 4.096l.001 5.93c0 4.135 4.097 4.117 4.097 4.117z" fill="#da1a5f" fill-rule="evenodd"/>
  <path d="m51.3562 199.45h29.5744v18.201h-29.5744z" fill="#f9f9f9"/>
  <path d="m53.632 203.989v9.1h4.55v-9.1zm6.825 0v9.1h2.275v-9.1zm4.55 0v9.1h4.55v-9.1zm6.825 0v9.1h2.275v-9.1zm4.55 0v9.1h2.275v-9.1z" fill="#5d5d5d"/>
</svg>
