<svg enable-background="new" height="256" viewBox="0 0 256 256" width="256" xmlns="http://www.w3.org/2000/svg" xmlns:xlink="http://www.w3.org/1999/xlink"><filter id="a" color-interpolation-filters="sRGB" height="1.241" width="1.08" x="-.04" y="-.12"><feGaussianBlur stdDeviation="2.321"/></filter><linearGradient id="b" gradientTransform="matrix(0 .94666648 -.94666648 0 275.01366 -32.718705)" gradientUnits="userSpaceOnUse" x1="77" x2="227" y1="156" y2="156"><stop offset="0" stop-color="#e6e6e6"/><stop offset="1" stop-color="#f2f2f2"/></linearGradient><filter id="c" color-interpolation-filters="sRGB" height="1.12" width="1.12" x="-.06" y="-.06"><feGaussianBlur stdDeviation="3.75"/></filter><linearGradient id="d" gradientUnits="userSpaceOnUse" x1="152" x2="152" y1="124" y2="236"><stop offset="0"/><stop offset="1" stop-opacity="0"/></linearGradient><clipPath id="e"><path d="m152 68c-48.60106 0-88 39.39894-88 88s39.39894 88 88 88 88-39.39894 88-88-39.39894-88-88-88z"/></clipPath><filter id="f" color-interpolation-filters="sRGB" height="1.12" width="1.12" x="-.06" y="-.06"><feGaussianBlur stdDeviation="4.4"/></filter><linearGradient id="g" gradientTransform="matrix(0 -.453125 -.45311204 0 253.29054 239.17477)" gradientUnits="userSpaceOnUse" x1="494.345" x2="4.414" y1="386.295" y2="169.657"><stop offset="0" stop-color="#b3b3b3"/><stop offset="1" stop-color="#d9d9d9"/></linearGradient><linearGradient id="h" gradientUnits="userSpaceOnUse" x1="88" x2="488" y1="88" y2="488"><stop offset="0" stop-opacity=".588235"/><stop offset=".88" stop-opacity="0"/><stop offset="1"/></linearGradient><filter id="i" color-interpolation-filters="sRGB" height="1.088" width="1.106" x="-.05" y="-.04"><feGaussianBlur stdDeviation="8.48"/></filter><filter id="j" color-interpolation-filters="sRGB" height="1.022" width="1.026" x="-.01" y="-.01"><feGaussianBlur stdDeviation="2.12"/></filter><path d="m189.84323 74c-70.59344 0-78.18921 7.250835-77.84323 77.98706v146.01294 146.01294c-.34598 70.73623 7.24979 77.98706 77.84323 77.98706h196.31354c70.59344 0 76.00668-7.27384 77.84323-77.98706v-146.01294-146.01294c0-70.737067-7.24979-77.98706-77.84323-77.98706z" filter="url(#j)" opacity=".1" transform="matrix(.5 0 0 .5 -16.666462 -20.825235)"/><path d="m189.84323 74c-70.59344 0-78.18921 7.250835-77.84323 77.98706v146.01294 146.01294c-.34598 70.73623 7.24979 77.98706 77.84323 77.98706h196.31354c70.59344 0 77.84323-7.24999 77.84323-77.98706v-146.01294-146.01294c0-70.737067-7.24979-77.98706-77.84323-77.98706z" fill="url(#h)" filter="url(#i)" opacity=".3" transform="matrix(.5 0 0 .5 -16.666462 -20.825235)"/><path d="m77.145138 13.174766c-36.098811 0-39.983003 3.690157-39.806081 39.689841v74.310163 74.31016c-.176922 35.99969 3.70727 39.68984 39.806081 39.68984h100.387322c36.09881 0 39.80608-3.68973 39.80608-39.68984v-74.31016-74.310163c0-36.000113-3.70727-39.689841-39.80608-39.689841z" opacity=".1"/><path d="m176.40652 15.174766c35.29673 0 39.09461 3.625417 38.92162 38.993529v73.006475 73.00647c.17299 35.36812-3.62489 38.99353-38.92162 38.99353h-98.156762c-35.296716 0-38.921616-3.625-38.921616-38.99353v-73.00647-73.006475c0-35.368533 3.6249-38.993529 38.921616-38.993529z" fill="url(#g)"/><g fill="#fff"><path d="m78.255418 15.174766c-35.296728 0-39.09487 3.626028-38.92188 38.99414v2c-.17299-35.368112 3.625152-38.994141 38.92188-38.994141h98.156242c35.29673 0 38.92188 3.625608 38.92188 38.994141v-2c0-35.368533-3.62515-38.99414-38.92188-38.99414z" opacity=".3"/><path d="m39.327679 127.17477v73.00586c0 35.36853 3.625159 38.99414 38.921879 38.99414h98.156252c35.29673 0 39.09486-3.62602 38.92187-38.99414v-73.00586z" opacity=".2"/><path d="m127.33354 15.174766v224.000004h49.07227c35.29673 0 39.09486-3.62602 38.92187-38.99414v-73.00586-73.005864c.17299-35.368112-3.62514-38.99414-38.92187-38.99414z" opacity=".2"/></g><path d="m78.260818 239.17477c-35.296731 0-39.094875-3.62603-38.921885-38.99414v-2c-.17299 35.36811 3.625154 38.99414 38.921885 38.99414h98.156242c35.29673 0 38.92188-3.62561 38.92188-38.99414v2c0 35.36853-3.62515 38.99414-38.92188 38.99414z" opacity=".2"/><circle cx="127.334" cy="-111.175" fill="#5d5d5d" r="80" transform="scale(1 -1)"/><path d="m47.333708 111.17461a80 80 0 0 1 80.000002-80.000021 80 80 0 0 1 80 80.000021z" opacity=".05"/><path d="m152 70c-48.60106 0-88 39.39894-88 88s39.39894 88 88 88 88-39.39894 88-88-39.39894-88-88-88z" style="opacity:.2;fill:none;stroke-width:11;stroke-linejoin:round;clip-path:url(#e);stroke:url(#d);filter:url(#f)" transform="matrix(.90909091 0 0 .90909091 -10.848121 -30.643417)"/><path d="m127.33371 188.17461c-41.421352 0-75.000002-33.57864-75.000002-75 0-41.421365 33.57865-75.000023 75.000002-75.000023 41.42135 0 75 33.578658 75 75.000023 0 41.42136-33.57865 75-75 75z" filter="url(#c)" opacity=".2"/><path d="m127.33369 182.1746c-39.212212 0-70.999992-31.78777-70.999992-70.99999 0-39.212215 31.78778-70.99999 70.999992-70.99999 39.2122 0 70.99998 31.787775 70.99998 70.99999 0 39.21222-31.78778 70.99999-70.99998 70.99999z" fill="url(#b)"/><ellipse cx="127.334" cy="111.174" opacity=".05" rx="32" ry="32"/><ellipse cx="127.334" cy="111.174" fill="#fff" rx="20" ry="20"/><g enable-background="new" opacity=".1" transform="translate(-24.666302 -44.825408)"><circle cx="53.636" cy="185.1" r="2" transform="matrix(.8660254 -.5 .5 .8660254 0 0)"/><circle cx="53.636" cy="237.1" r="2" transform="matrix(.8660254 -.5 .5 .8660254 0 0)"/><circle cx="-59.1" cy="183.636" r="2" transform="matrix(.5 -.8660254 .8660254 .5 0 0)"/><circle cx="-59.1" cy="235.636" r="2" transform="matrix(.5 -.8660254 .8660254 .5 0 0)"/><circle cx="-156" cy="126" r="2" transform="rotate(-90)"/><circle cx="-156" cy="178" r="2" transform="rotate(-90)"/><circle cx="-211.1" cy="27.636" r="2" transform="matrix(-.5 -.8660254 .8660254 -.5 0 0)"/><circle cx="-211.1" cy="79.636" r="2" transform="matrix(-.5 -.8660254 .8660254 -.5 0 0)"/><circle cx="152" cy="130" r="2" transform="matrix(-.8660254 -.5 .5 -.8660254 205.635861 367.099963)"/><circle cx="152" cy="182" r="2" transform="matrix(-.8660254 -.5 .5 -.8660254 205.635861 367.099963)"/><g transform="scale(-1)"><circle cx="-152" cy="-182" r="2"/><circle cx="-152" cy="-130" r="2"/></g></g><ellipse cx="127.334" cy="111.174" opacity=".1" rx="16" ry="16"/><ellipse cx="127.334" cy="111.175" fill="#888" rx="4" ry="4"/><path d="m127.3337 40.174616c-39.212212 0-70.999992 31.787789-70.999992 71.000004 0 .31752.01988.63015.02405.94667.509032-38.773865 32.08126-70.053342 70.975962-70.053342 38.89468 0 70.4669 31.279477 70.97595 70.053342.004-.31652.024-.62915.024-.94667 0-39.212215-31.78778-71.000004-70.99999-71.000004z" fill="#fff" opacity=".5"/><path d="m67.333708 31.174587a4 4 0 0 0 -4 4 4 4 0 0 0 4 4 4 4 0 0 0 4-4 4 4 0 0 0 -4-4z" opacity=".1"/><path d="m187.33371 31.174587a4 4 0 0 0 -4 4 4 4 0 0 0 4 4 4 4 0 0 0 4-4 4 4 0 0 0 -4-4z" opacity=".1"/><path d="m211.50536 215.83276s-117.99478 44.0399-124.39638 45.7552c-6.4016 1.71532-12.98164-2.08367-14.69694-8.48526-1.71531-6.40159 2.08368-12.98164 8.48528-14.69695 6.4016-1.71529 130.60804-22.57299 130.60804-22.57299z" filter="url(#a)" opacity=".2" transform="matrix(.96592583 -.25881905 .25881905 .96592583 -77.672445 2.003964)"/><path d="m181.97004 153.80893s-102.575842 73.07858-108.31536 76.39228c-5.739513 3.31373-13.078595 1.34723-16.392301-4.39228-3.313715-5.73951-1.347215-13.0786 4.392301-16.39232 5.739521-3.31369 120.31536-55.60768 120.31536-55.60768z" fill="#fff"/><circle cx="8.456" cy="229.832" fill="#808080" r="4" transform="matrix(.96592583 -.25881905 .25881905 .96592583 0 0)"/><path d="m187.33371 215.17461a4 4 0 0 0 -4 4 4 4 0 0 0 4 4 4 4 0 0 0 4-4 4 4 0 0 0 -4-4z" opacity=".1"/></svg>