<svg fill="none" height="256" viewBox="0 0 256 256" width="256" xmlns="http://www.w3.org/2000/svg" xmlns:xlink="http://www.w3.org/1999/xlink">
  <linearGradient id="lg1">
    <stop offset="0" stop-color="#fff"/>
    <stop offset=".125" stop-color="#fff" stop-opacity=".098039"/>
    <stop offset=".925" stop-color="#fff" stop-opacity=".098039"/>
    <stop offset="1" stop-color="#fff" stop-opacity=".498039"/>
  </linearGradient>
  <linearGradient id="paint0_linear" gradientUnits="userSpaceOnUse" x1="103.045" x2="103.045" xlink:href="#lg1" y1="22.8052" y2="138.511"/>
  <linearGradient id="lg2">
    <stop offset="0" stop-color="#cdcdcd"/>
    <stop offset="1" stop-color="#d9d9d9"/>
  </linearGradient>
  <linearGradient id="paint1_linear" gradientUnits="userSpaceOnUse" x1="100" x2="100" xlink:href="#lg2" y1="25.85" y2="135.466"/>
  <linearGradient id="lg3">
    <stop offset="0" stop-color="#fff"/>
    <stop offset=".125" stop-color="#fff" stop-opacity=".098039"/>
    <stop offset=".925" stop-opacity=".098039"/>
    <stop offset="1" stop-opacity=".498039"/>
  </linearGradient>
  <linearGradient id="paint2_linear" gradientUnits="userSpaceOnUse" x1="100" x2="100" xlink:href="#lg3" y1="19.7603" y2="135.466"/>
  <linearGradient id="paint3_linear" gradientUnits="userSpaceOnUse" x1="100" x2="100" y1="38.0296" y2="123.286">
    <stop offset="0" stop-color="#f2f2f2"/>
    <stop offset="1" stop-color="#f7f7f7"/>
  </linearGradient>
  <linearGradient id="paint4_linear" gradientUnits="userSpaceOnUse" x1="160.693" x2="160.693" xlink:href="#lg1" y1="104.147" y2="219.853"/>
  <linearGradient id="paint5_linear" gradientUnits="userSpaceOnUse" x1="157.648" x2="157.648" xlink:href="#lg2" y1="107.192" y2="216.808"/>
  <linearGradient id="paint6_linear" gradientUnits="userSpaceOnUse" x1="157.648" x2="157.648" xlink:href="#lg3" y1="101.102" y2="216.808"/>
  <linearGradient id="paint7_linear" gradientUnits="userSpaceOnUse" x1="195.081" x2="90.5159" y1="64.4593" y2="249.131">
    <stop offset="0" stop-color="#f2f2f2"/>
    <stop offset="1" stop-color="#f9f9f9"/>
  </linearGradient>
  <linearGradient id="paint9_linear" gradientUnits="userSpaceOnUse" x1="179.849" x2="179.849" y1="162.554" y2="168.367">
    <stop offset="0" stop-color="#f22c42"/>
    <stop offset="1" stop-color="#f77e8b"/>
  </linearGradient>
  <linearGradient id="paint10_linear" gradientUnits="userSpaceOnUse" x1="222.477" x2="222.477" y1="162.478" y2="168.29">
    <stop offset="0" stop-color="#76c22b"/>
    <stop offset="1" stop-color="#cbe667"/>
  </linearGradient>
  <linearGradient id="paint11_linear" gradientUnits="userSpaceOnUse" x1="201.163" x2="201.163" y1="162.554" y2="168.367">
    <stop offset="0" stop-color="#f34f17"/>
    <stop offset="1" stop-color="#f8906c"/>
  </linearGradient>
  <linearGradient id="paint12_linear" gradientUnits="userSpaceOnUse" x1="157.648" x2="157.648" y1="186.359" y2="210.718">
    <stop offset="0"/>
    <stop offset="1" stop-opacity="0"/>
  </linearGradient>
  <path d="m191.346 124.048c0 19.031-7.447 18.809-26.643 19.031h-129.4064c-19.196-.222-26.64275 0-26.64275-19.031v-83.7347c0-19.0306 7.44675-18.8086 26.64275-19.0306h129.4064c19.196.222 26.643 0 26.643 19.0306z" fill="#000" opacity=".2"/>
  <path d="m191.346 122.526c0 19.03-7.447 18.809-26.643 19.03h-129.4064c-19.196-.221-26.64275 0-26.64275-19.03v-83.7352c0-19.0305 7.44675-18.8086 26.64275-19.0305h129.4064c19.196.2219 26.643 0 26.643 19.0305z" fill="#000" opacity=".1"/>
  <path d="m191.346 122.526c0 19.03-7.447 18.809-26.643 19.03h-129.4064c-19.196-.221-26.64275 0-26.64275-19.03v-83.7352c0-19.0305 7.44675-18.8086 26.64275-19.0305h129.4064c19.196.2219 26.643 0 26.643 19.0305z" fill="#000" opacity=".5" stroke="url(#paint0_linear)" stroke-width="4"/>
  <path d="m191.346 122.526c0 19.03-7.447 18.809-26.643 19.03h-129.4064c-19.196-.221-26.64275 0-26.64275-19.03v-83.7352c0-19.0305 7.44675-18.8086 26.64275-19.0305h129.4064c19.196.2219 26.643 0 26.643 19.0305z" fill="url(#paint1_linear)"/>
  <path d="m191.346 122.526c0 19.03-7.447 18.809-26.643 19.03h-129.4064c-19.196-.221-26.64275 0-26.64275-19.03v-83.7352c0-19.0305 7.44675-18.8086 26.64275-19.0305h129.4064c19.196.2219 26.643 0 26.643 19.0305z" opacity=".3" stroke="url(#paint2_linear)" stroke-width="4"/>
  <path d="m33.8723 38.0296c-2.1891.0252-3.7912-.0537-5.1011.669-.6549.3614-1.1705.9734-1.457 1.7366-.2865.7631-.391 1.6702-.391 2.8144v13.919c0 1.1442.1046 2.0513.391 2.8145.2865.7631.8021 1.3707 1.457 1.732 1.3099.7227 2.912.6482 5.1011.6735h.0076 10.446.0076c2.1892-.0252 3.7912.0492 5.1011-.6735.6549-.3613 1.1705-.9689 1.457-1.732.2852-.7632.391-1.6703.391-2.8145v-13.919c0-1.1442-.1046-2.0513-.391-2.8144-.2865-.7632-.8021-1.3752-1.4571-1.7366-1.3098-.7227-2.9119-.6437-5.101-.669h-.0077-10.4459zm30.4489 0c-2.1892.0252-3.7913-.0537-5.1011.669-.6549.3614-1.1705.9734-1.457 1.7366-.2865.7631-.3911 1.6702-.3911 2.8144v13.919c0 1.1442.1046 2.0513.3911 2.8145.2865.7631.8021 1.3707 1.457 1.732 1.3098.7227 2.9119.6482 5.1011.6735h.0076 10.4459.0077c2.1891-.0252 3.7912.0492 5.101-.6735.655-.3613 1.1706-.9689 1.4571-1.732.2854-.7632.391-1.6703.391-2.8145v-13.919c0-1.1442-.1046-2.0513-.391-2.8144-.2865-.7632-.8021-1.3752-1.4571-1.7366-1.3098-.7227-2.9119-.6437-5.101-.669h-.0077-10.4459zm30.4488 0c-2.1892.0252-3.7912-.0537-5.1011.669-.6549.3614-1.1705.9734-1.457 1.7366-.2865.7631-.391 1.6702-.391 2.8144v13.919c0 1.1442.1046 2.0513.391 2.8145.2865.7631.8021 1.3707 1.457 1.732 1.3099.7227 2.9119.6482 5.1011.6735h.0076 10.4464.007c2.189-.0252 3.791.0492 5.101-.6735.655-.3613 1.171-.9689 1.457-1.732.286-.7632.391-1.6703.391-2.8145v-13.919c0-1.1442-.104-2.0513-.391-2.8144-.286-.7632-.802-1.3752-1.457-1.7366-1.31-.7227-2.912-.6437-5.101-.669h-.007-10.4464zm30.449 0c-2.189.0252-3.791-.0537-5.101.669-.655.3614-1.171.9734-1.457 1.7366-.287.7631-.391 1.6702-.391 2.8144v13.919c0 1.1442.104 2.0513.391 2.8145.286.7631.802 1.3707 1.457 1.732 1.31.7227 2.912.6482 5.101.6735h.007 10.446.008c2.189-.0252 3.791.0492 5.101-.6735.655-.3613 1.171-.9689 1.457-1.732.286-.7632.391-1.6703.391-2.8145v-13.919c0-1.1442-.104-2.0513-.391-2.8144-.286-.7632-.802-1.3752-1.457-1.7366-1.31-.7227-2.912-.6437-5.101-.669h-.008-10.446zm30.449 0c-2.189.0252-3.792-.0537-5.101.669-.655.3614-1.171.9734-1.457 1.7366-.287.7631-.391 1.6702-.391 2.8144v13.919c0 1.1442.104 2.0513.391 2.8145.286.7631.802 1.3707 1.457 1.732 1.309.7227 2.912.6482 5.101.6735h.007 10.446.008c2.189-.0252 3.791.0492 5.101-.6735.655-.3613 1.17-.9689 1.457-1.732.285-.7632.391-1.6703.391-2.8145v-13.919c0-1.1442-.105-2.0513-.391-2.8144-.287-.7632-.802-1.3752-1.457-1.7366-1.31-.7227-2.912-.6437-5.101-.669h-.008-10.446zm-109.6161 30.4488c-2.1892.0252-3.7913-.0537-5.1011.6691-.6549.3613-1.1705.9733-1.457 1.7365s-.3911 1.6703-.3911 2.8144v13.9191c0 1.1441.1046 2.0512.3911 2.8144s.8021 1.3707 1.457 1.7321c1.3098.7227 2.9119.6482 5.1011.6735h.0075 10.446.0076c2.1892-.0252 3.7913.0492 5.1011-.6735.655-.3614 1.1706-.9689 1.457-1.7321.2855-.7632.3911-1.6703.3911-2.8144v-13.9191c0-1.1441-.1047-2.0512-.3911-2.8144s-.802-1.3752-1.457-1.7365c-1.3099-.7227-2.9119-.6438-5.1011-.6691h-.0076-10.446zm30.4488 0c-2.1892.0252-3.7912-.0537-5.1011.6691-.6549.3613-1.1705.9733-1.457 1.7365s-.391 1.6703-.391 2.8144v13.9191c0 1.1441.1046 2.0512.391 2.8144.2865.7632.8021 1.3707 1.457 1.7321 1.3099.7227 2.9119.6482 5.1011.6735h.0076 10.446.0076c2.1892-.0252 3.7912.0492 5.1011-.6735.6549-.3614 1.1705-.9689 1.457-1.7321.2854-.7632.391-1.6703.391-2.8144v-13.9191c0-1.1441-.1046-2.0512-.391-2.8144-.2865-.7632-.8021-1.3752-1.457-1.7365-1.3099-.7227-2.9119-.6438-5.1011-.6691h-.0076-10.446zm30.4493 0c-2.19.0252-3.792-.0537-5.102.6691-.654.3613-1.17.9733-1.457 1.7365-.286.7632-.391 1.6703-.391 2.8144v13.9191c0 1.1441.105 2.0512.391 2.8144.287.7632.803 1.3707 1.457 1.7321 1.31.7227 2.912.6482 5.102.6735h.007 10.446.008c2.189-.0252 3.791.0492 5.101-.6735.655-.3614 1.17-.9689 1.457-1.7321.285-.7632.391-1.6703.391-2.8144v-13.9191c0-1.1441-.105-2.0512-.391-2.8144-.287-.7632-.802-1.3752-1.457-1.7365-1.31-.7227-2.912-.6438-5.101-.6691h-.008-10.446zm30.448 0c-2.189.0252-3.791-.0537-5.101.6691-.655.3613-1.17.9733-1.457 1.7365-.286.7632-.391 1.6703-.391 2.8144v13.9191c0 1.1441.105 2.0512.391 2.8144.287.7632.802 1.3707 1.457 1.7321 1.31.7227 2.912.6482 5.101.6735h.008 10.446.008c2.189-.0252 3.791.0492 5.101-.6735.655-.3614 1.17-.9689 1.457-1.7321.285-.7632.391-1.6703.391-2.8144v-13.9191c0-1.1441-.105-2.0512-.391-2.8144-.287-.7632-.802-1.3752-1.457-1.7365-1.31-.7227-2.912-.6438-5.101-.6691h-.008-10.446zm-103.5257 30.4488c-2.1891.0252-3.7912-.0536-5.1011.6691-.6549.3613-1.1705.9737-1.457 1.7367s-.391 1.67-.391 2.814v13.919c0 1.144.1046 2.052.391 2.815.2865.763.8021 1.37 1.457 1.732 1.3099.722 2.912.648 5.1011.673h.0076 10.446.0076c2.1892-.025 3.7912.049 5.1011-.673.6549-.362 1.1705-.969 1.457-1.732.2854-.763.391-1.671.391-2.815v-13.919c0-1.144-.1046-2.051-.391-2.814-.2865-.763-.8021-1.3754-1.4571-1.7367-1.3098-.7227-2.9119-.6438-5.101-.6691h-.0077-10.4459zm30.4489 0c-2.1892.0252-3.7913-.0536-5.1011.6691-.6549.3613-1.1705.9737-1.457 1.7367s-.3911 1.67-.3911 2.814v13.919c0 1.144.1046 2.052.3911 2.815s.8021 1.37 1.457 1.732c1.3098.722 2.9119.648 5.1011.673h.0076 71.3432.008c2.189-.025 3.791.049 5.101-.673.655-.362 1.171-.969 1.457-1.732s.391-1.671.391-2.815v-13.919c0-1.144-.104-2.051-.391-2.814-.286-.763-.802-1.3754-1.457-1.7367-1.31-.7227-2.912-.6438-5.101-.6691h-.008-71.3432zm91.3468 0c-2.189.0252-3.792-.0536-5.101.6691-.655.3613-1.171.9737-1.457 1.7367-.287.763-.391 1.67-.391 2.814v13.919c0 1.144.104 2.052.391 2.815.286.763.802 1.37 1.457 1.732 1.309.722 2.912.648 5.101.673h.007 10.446.008c2.189-.025 3.791.049 5.101-.673.655-.362 1.17-.969 1.457-1.732.285-.763.391-1.671.391-2.815v-13.919c0-1.144-.105-2.051-.391-2.814-.287-.763-.802-1.3754-1.457-1.7367-1.31-.7227-2.912-.6438-5.101-.6691h-.008-10.446z" fill="#000" opacity=".1"/>
  <path d="m33.8723 39.552c-2.1891.0252-3.7912-.0537-5.1011.6691-.6549.3613-1.1705.9733-1.457 1.7365s-.391 1.6703-.391 2.8144v13.9191c0 1.1441.1046 2.0512.391 2.8144.2865.7632.8021 1.3707 1.457 1.7321 1.3099.7227 2.912.6482 5.1011.6735h.0076 10.446.0076c2.1892-.0252 3.7912.0492 5.1011-.6735.6549-.3614 1.1705-.9689 1.457-1.7321.2852-.7632.391-1.6703.391-2.8144v-13.9191c0-1.1441-.1046-2.0512-.391-2.8144-.2865-.7632-.8021-1.3752-1.4571-1.7365-1.3098-.7227-2.9119-.6438-5.101-.6691h-.0077-10.4459zm30.4489 0c-2.1892.0252-3.7913-.0537-5.1011.6691-.6549.3613-1.1705.9733-1.457 1.7365s-.3911 1.6703-.3911 2.8144v13.9191c0 1.1441.1046 2.0512.3911 2.8144s.8021 1.3707 1.457 1.7321c1.3098.7227 2.9119.6482 5.1011.6735h.0076 10.4459.0077c2.1891-.0252 3.7912.0492 5.101-.6735.655-.3614 1.1706-.9689 1.4571-1.7321.2854-.7632.391-1.6703.391-2.8144v-13.9191c0-1.1441-.1046-2.0512-.391-2.8144-.2865-.7632-.8021-1.3752-1.4571-1.7365-1.3098-.7227-2.9119-.6438-5.101-.6691h-.0077-10.4459zm30.4488 0c-2.1892.0252-3.7912-.0537-5.1011.6691-.6549.3613-1.1705.9733-1.457 1.7365s-.391 1.6703-.391 2.8144v13.9191c0 1.1441.1046 2.0512.391 2.8144.2865.7632.8021 1.3707 1.457 1.7321 1.3099.7227 2.9119.6482 5.1011.6735h.0076 10.4464.007c2.189-.0252 3.791.0492 5.101-.6735.655-.3614 1.171-.9689 1.457-1.7321s.391-1.6703.391-2.8144v-13.9191c0-1.1441-.104-2.0512-.391-2.8144-.286-.7632-.802-1.3752-1.457-1.7365-1.31-.7227-2.912-.6438-5.101-.6691h-.007-10.4464zm30.449 0c-2.189.0252-3.791-.0537-5.101.6691-.655.3613-1.171.9733-1.457 1.7365-.287.7632-.391 1.6703-.391 2.8144v13.9191c0 1.1441.104 2.0512.391 2.8144.286.7632.802 1.3707 1.457 1.7321 1.31.7227 2.912.6482 5.101.6735h.007 10.446.008c2.189-.0252 3.791.0492 5.101-.6735.655-.3614 1.171-.9689 1.457-1.7321s.391-1.6703.391-2.8144v-13.9191c0-1.1441-.104-2.0512-.391-2.8144-.286-.7632-.802-1.3752-1.457-1.7365-1.31-.7227-2.912-.6438-5.101-.6691h-.008-10.446zm30.449 0c-2.189.0252-3.792-.0537-5.101.6691-.655.3613-1.171.9733-1.457 1.7365-.287.7632-.391 1.6703-.391 2.8144v13.9191c0 1.1441.104 2.0512.391 2.8144.286.7632.802 1.3707 1.457 1.7321 1.309.7227 2.912.6482 5.101.6735h.007 10.446.008c2.189-.0252 3.791.0492 5.101-.6735.655-.3614 1.17-.9689 1.457-1.7321.285-.7632.391-1.6703.391-2.8144v-13.9191c0-1.1441-.105-2.0512-.391-2.8144-.287-.7632-.802-1.3752-1.457-1.7365-1.31-.7227-2.912-.6438-5.101-.6691h-.008-10.446zm-109.6161 30.4489c-2.1892.0252-3.7913-.0537-5.1011.669-.6549.3613-1.1705.9734-1.457 1.7365-.2865.7632-.3911 1.6703-.3911 2.8145v13.919c0 1.1442.1046 2.0513.3911 2.8144.2865.7632.8021 1.3708 1.457 1.7321 1.3098.7227 2.9119.6482 5.1011.6735h.0075 10.446.0076c2.1892-.0252 3.7913.0492 5.1011-.6735.655-.3613 1.1706-.9689 1.457-1.7321.2855-.7631.3911-1.6702.3911-2.8144v-13.919c0-1.1442-.1047-2.0513-.3911-2.8145-.2864-.7631-.802-1.3752-1.457-1.7365-1.3099-.7227-2.9119-.6438-5.1011-.669h-.0076-10.446zm30.4488 0c-2.1892.0252-3.7912-.0537-5.1011.669-.6549.3613-1.1705.9734-1.457 1.7365-.2865.7632-.391 1.6703-.391 2.8145v13.919c0 1.1442.1046 2.0513.391 2.8144.2865.7632.8021 1.3708 1.457 1.7321 1.3099.7227 2.9119.6482 5.1011.6735h.0076 10.446.0076c2.1892-.0252 3.7912.0492 5.1011-.6735.6549-.3613 1.1705-.9689 1.457-1.7321.2854-.7631.391-1.6702.391-2.8144v-13.919c0-1.1442-.1046-2.0513-.391-2.8145-.2865-.7631-.8021-1.3752-1.457-1.7365-1.3099-.7227-2.9119-.6438-5.1011-.669h-.0076-10.446zm30.4493 0c-2.19.0252-3.792-.0537-5.102.669-.654.3613-1.17.9734-1.457 1.7365-.286.7632-.391 1.6703-.391 2.8145v13.919c0 1.1442.105 2.0513.391 2.8144.287.7632.803 1.3708 1.457 1.7321 1.31.7227 2.912.6482 5.102.6735h.007 10.446.008c2.189-.0252 3.791.0492 5.101-.6735.655-.3613 1.17-.9689 1.457-1.7321.285-.7631.391-1.6702.391-2.8144v-13.919c0-1.1442-.105-2.0513-.391-2.8145-.287-.7631-.802-1.3752-1.457-1.7365-1.31-.7227-2.912-.6438-5.101-.669h-.008-10.446zm30.448 0c-2.189.0252-3.791-.0537-5.101.669-.655.3613-1.17.9734-1.457 1.7365-.286.7632-.391 1.6703-.391 2.8145v13.919c0 1.1442.105 2.0513.391 2.8144.287.7632.802 1.3708 1.457 1.7321 1.31.7227 2.912.6482 5.101.6735h.008 10.446.008c2.189-.0252 3.791.0492 5.101-.6735.655-.3613 1.17-.9689 1.457-1.7321.285-.7631.391-1.6702.391-2.8144v-13.919c0-1.1442-.105-2.0513-.391-2.8145-.287-.7631-.802-1.3752-1.457-1.7365-1.31-.7227-2.912-.6438-5.101-.669h-.008-10.446zm-103.5257 30.4491c-2.1891.025-3.7912-.054-5.1011.669-.6549.361-1.1705.973-1.457 1.736s-.391 1.671-.391 2.815v13.919c0 1.144.1046 2.051.391 2.814.2865.763.8021 1.371 1.457 1.732 1.3099.723 2.912.648 5.1011.674h.0076 10.446.0076c2.1892-.025 3.7912.049 5.1011-.674.6549-.361 1.1705-.969 1.457-1.732.2854-.763.391-1.67.391-2.814v-13.919c0-1.144-.1046-2.052-.391-2.815-.2865-.763-.8021-1.375-1.4571-1.736-1.3098-.723-2.9119-.644-5.101-.669h-.0077-10.4459zm30.4489 0c-2.1892.025-3.7913-.054-5.1011.669-.6549.361-1.1705.973-1.457 1.736s-.3911 1.671-.3911 2.815v13.919c0 1.144.1046 2.051.3911 2.814s.8021 1.371 1.457 1.732c1.3098.723 2.9119.648 5.1011.674h.0076 71.3432.008c2.189-.025 3.791.049 5.101-.674.655-.361 1.171-.969 1.457-1.732s.391-1.67.391-2.814v-13.919c0-1.144-.104-2.052-.391-2.815-.286-.763-.802-1.375-1.457-1.736-1.31-.723-2.912-.644-5.101-.669h-.008-71.3432zm91.3468 0c-2.189.025-3.792-.054-5.101.669-.655.361-1.171.973-1.457 1.736-.287.763-.391 1.671-.391 2.815v13.919c0 1.144.104 2.051.391 2.814.286.763.802 1.371 1.457 1.732 1.309.723 2.912.648 5.101.674h.007 10.446.008c2.189-.025 3.791.049 5.101-.674.655-.361 1.17-.969 1.457-1.732.285-.763.391-1.67.391-2.814v-13.919c0-1.144-.105-2.052-.391-2.815-.287-.763-.802-1.375-1.457-1.736-1.31-.723-2.912-.644-5.101-.669h-.008-10.446z" fill="#000" opacity=".1"/>
  <path d="m33.8723 38.0296c-2.1892.0252-3.7912-.0537-5.1011.669-.6549.3614-1.1705.9734-1.457 1.7366-.2865.7631-.391 1.6702-.391 2.8144v13.919c0 1.1442.1046 2.0513.391 2.8145.2865.7631.8021 1.3707 1.457 1.732 1.3099.7227 2.9119.6482 5.1011.6735h.008 10.446.008c2.1891-.0252 3.7912.0492 5.1011-.6735.6549-.3613 1.1705-.9689 1.457-1.732.2852-.7632.3909-1.6703.3909-2.8145v-13.919c0-1.1442-.1046-2.0513-.391-2.8144-.2865-.7632-.8021-1.3752-1.457-1.7366-1.3098-.7227-2.9119-.6437-5.1011-.669h-.008-10.4459zm30.4488 0c-2.1891.0252-3.7912-.0537-5.101.669-.655.3614-1.1706.9734-1.4571 1.7366-.2864.7631-.391 1.6702-.391 2.8144v13.919c0 1.1442.1046 2.0513.391 2.8145.2865.7631.8021 1.3707 1.4571 1.732 1.3098.7227 2.9119.6482 5.101.6735h.008 10.446.008c2.1892-.0252 3.7913.0492 5.1011-.6735.6549-.3613 1.1705-.9689 1.457-1.732.2855-.7632.391-1.6703.391-2.8145v-13.919c0-1.1442-.1046-2.0513-.391-2.8144-.2865-.7632-.8021-1.3752-1.457-1.7366-1.3098-.7227-2.9119-.6437-5.1011-.669h-.008-10.446zm30.4489 0c-2.1892.0252-3.7913-.0537-5.1011.669-.6549.3614-1.1705.9734-1.457 1.7366-.2865.7631-.391 1.6702-.391 2.8144v13.919c0 1.1442.1046 2.0513.391 2.8145.2865.7631.8021 1.3707 1.457 1.732 1.3098.7227 2.9119.6482 5.1011.6735h.008 10.446.008c2.189-.0252 3.791.0492 5.101-.6735.655-.3613 1.171-.9689 1.457-1.732.286-.7632.391-1.6703.391-2.8145v-13.919c0-1.1442-.105-2.0513-.391-2.8144-.286-.7632-.802-1.3752-1.457-1.7366-1.31-.7227-2.912-.6437-5.101-.669h-.008-10.446zm30.449 0c-2.189.0252-3.791-.0537-5.101.669-.655.3614-1.171.9734-1.457 1.7366-.287.7631-.391 1.6702-.391 2.8144v13.919c0 1.1442.104 2.0513.391 2.8145.286.7631.802 1.3707 1.457 1.732 1.31.7227 2.912.6482 5.101.6735h.008 10.446.008c2.189-.0252 3.791.0492 5.101-.6735.655-.3613 1.17-.9689 1.457-1.732.285-.7632.391-1.6703.391-2.8145v-13.919c0-1.1442-.105-2.0513-.391-2.8144-.287-.7632-.802-1.3752-1.457-1.7366-1.31-.7227-2.912-.6437-5.101-.669h-.008-10.446zm30.449 0c-2.19.0252-3.792-.0537-5.101.669-.655.3614-1.171.9734-1.457 1.7366-.287.7631-.391 1.6702-.391 2.8144v13.919c0 1.1442.104 2.0513.391 2.8145.286.7631.802 1.3707 1.457 1.732 1.309.7227 2.911.6482 5.101.6735h.008 10.446.008c2.189-.0252 3.791.0492 5.101-.6735.655-.3613 1.17-.9689 1.457-1.732.285-.7632.391-1.6703.391-2.8145v-13.919c0-1.1442-.105-2.0513-.391-2.8144-.287-.7632-.802-1.3752-1.457-1.7366-1.31-.7227-2.912-.6437-5.101-.669h-.008-10.446zm-109.6162 30.4488c-2.1891.0252-3.7912-.0537-5.101.6691-.655.3613-1.1706.9733-1.4571 1.7365-.2864.7632-.391 1.6703-.391 2.8144v13.9191c0 1.1441.1046 2.0512.391 2.8144.2865.7632.8021 1.3707 1.4571 1.7321 1.3098.7227 2.9119.6482 5.101.6735h.008 10.446.008c2.1892-.0252 3.7912.0492 5.1011-.6735.6549-.3614 1.1705-.9689 1.457-1.7321.2855-.7632.391-1.6703.391-2.8144v-13.9191c0-1.1441-.1046-2.0512-.391-2.8144-.2865-.7632-.8021-1.3752-1.457-1.7365-1.3099-.7227-2.912-.6438-5.1011-.6691h-.008-10.446zm30.4489 0c-2.1892.0252-3.7913-.0537-5.1011.6691-.6549.3613-1.1705.9733-1.457 1.7365s-.391 1.6703-.391 2.8144v13.9191c0 1.1441.1046 2.0512.391 2.8144.2865.7632.8021 1.3707 1.457 1.7321 1.3098.7227 2.9119.6482 5.1011.6735h.008 10.446.008c2.1891-.0252 3.7912.0492 5.101-.6735.655-.3614 1.1706-.9689 1.4571-1.7321.2854-.7632.391-1.6703.391-2.8144v-13.9191c0-1.1441-.1046-2.0512-.391-2.8144-.2865-.7632-.8021-1.3752-1.4571-1.7365-1.3098-.7227-2.9119-.6438-5.101-.6691h-.008-10.446zm30.4493 0c-2.19.0252-3.792-.0537-5.102.6691-.654.3613-1.17.9733-1.457 1.7365-.286.7632-.391 1.6703-.391 2.8144v13.9191c0 1.1441.105 2.0512.391 2.8144.287.7632.803 1.3707 1.457 1.7321 1.31.7227 2.912.6482 5.102.6735h.008 10.445.008c2.19-.0252 3.792.0492 5.102-.6735.655-.3614 1.17-.9689 1.457-1.7321.285-.7632.391-1.6703.391-2.8144v-13.9191c0-1.1441-.105-2.0512-.391-2.8144-.287-.7632-.802-1.3752-1.457-1.7365-1.31-.7227-2.912-.6438-5.102-.6691h-.008-10.445zm30.448 0c-2.189.0252-3.791-.0537-5.101.6691-.655.3613-1.17.9733-1.457 1.7365-.286.7632-.391 1.6703-.391 2.8144v13.9191c0 1.1441.105 2.0512.391 2.8144.287.7632.802 1.3707 1.457 1.7321 1.31.7227 2.912.6482 5.101.6735h.008 10.446.008c2.19-.0252 3.792.0492 5.101-.6735.655-.3614 1.171-.9689 1.457-1.7321s.391-1.6703.391-2.8144v-13.9191c0-1.1441-.104-2.0512-.391-2.8144-.286-.7632-.802-1.3752-1.457-1.7365-1.309-.7227-2.911-.6438-5.101-.6691h-.008-10.446zm-103.5257 30.4488c-2.1892.0252-3.7912-.0537-5.1011.6691-.6549.3613-1.1705.9737-1.457 1.7367s-.391 1.67-.391 2.814v13.919c0 1.144.1046 2.052.391 2.815.2865.763.8021 1.37 1.457 1.732 1.3099.722 2.9119.648 5.1011.673h.008 10.446.008c2.1892-.025 3.7912.05 5.1011-.673.6549-.362 1.1705-.969 1.457-1.732.2854-.763.3909-1.671.3909-2.815v-13.919c0-1.144-.1046-2.051-.391-2.814-.2865-.763-.8021-1.3754-1.457-1.7367-1.3098-.7227-2.9119-.6438-5.1011-.6691h-.008-10.4459zm30.4488 0c-2.1891.0252-3.7912-.0537-5.101.6691-.655.3613-1.1706.9737-1.4571 1.7367-.2864.763-.391 1.67-.391 2.814v13.919c0 1.144.1046 2.052.391 2.815.2865.763.8021 1.37 1.4571 1.732 1.3098.722 2.9119.648 5.101.673h.008 71.3439.008c2.189-.025 3.791.05 5.101-.673.655-.362 1.17-.969 1.457-1.732.285-.763.391-1.671.391-2.815v-13.919c0-1.144-.105-2.051-.391-2.814-.287-.763-.802-1.3754-1.457-1.7367-1.31-.7227-2.912-.6438-5.101-.6691h-.008-71.3439zm91.3469 0c-2.19.0252-3.792-.0537-5.101.6691-.655.3613-1.171.9737-1.457 1.7367-.287.763-.391 1.67-.391 2.814v13.919c0 1.144.104 2.052.391 2.815.286.763.802 1.37 1.457 1.732 1.309.722 2.911.648 5.101.673h.008 10.446.008c2.189-.025 3.791.05 5.101-.673.655-.362 1.17-.969 1.457-1.732.285-.763.391-1.671.391-2.815v-13.919c0-1.144-.105-2.051-.391-2.814-.287-.763-.802-1.3754-1.457-1.7367-1.31-.7227-2.912-.6438-5.101-.6691h-.008-10.446z" fill="url(#paint3_linear)"/>
  <path d="m33.8723 38.0296c-2.1892.0252-3.7912-.0537-5.1011.669-.6549.3614-1.1705.9734-1.457 1.7366-.2865.7631-.391 1.6702-.391 2.8144v1.5224c0-1.1441.1045-2.0512.391-2.8144s.8021-1.3752 1.457-1.7365c1.3099-.7228 2.9119-.6439 5.1011-.6691h.008 10.446.008c2.1891.0253 3.7912-.0537 5.1011.6691.6549.3613 1.1705.9733 1.457 1.7365.2863.7632.3909 1.6703.3909 2.8144v-1.5224c0-1.1442-.1046-2.0513-.391-2.8144-.2865-.7632-.8021-1.3752-1.457-1.7366-1.3098-.7227-2.9119-.6437-5.1011-.669h-.008-10.4459zm30.4488 0c-2.1891.0252-3.7912-.0537-5.101.669-.655.3614-1.1706.9734-1.4571 1.7366-.2864.7631-.391 1.6702-.391 2.8144v1.5224c0-1.1441.1046-2.0512.391-2.8144.2865-.7632.8021-1.3752 1.4571-1.7365 1.3098-.7228 2.9119-.6439 5.101-.6691h.008 10.446.008c2.1892.0253 3.7913-.0537 5.1011.6691.6549.3613 1.1705.9733 1.457 1.7365.2864.7632.391 1.6703.391 2.8144v-1.5224c0-1.1442-.1046-2.0513-.391-2.8144-.2865-.7632-.8021-1.3752-1.457-1.7366-1.3098-.7227-2.9119-.6437-5.1011-.669h-.008-10.446zm30.4489 0c-2.1892.0252-3.7913-.0537-5.1011.669-.6549.3614-1.1705.9734-1.457 1.7366-.2865.7631-.391 1.6702-.391 2.8144v1.5224c0-1.1441.1045-2.0512.391-2.8144s.8021-1.3752 1.457-1.7365c1.3098-.7228 2.9119-.6439 5.1011-.6691h.008 10.446.008c2.189.0253 3.791-.0537 5.101.6691.655.3613 1.171.9733 1.457 1.7365s.391 1.6703.391 2.8144v-1.5224c0-1.1442-.105-2.0513-.391-2.8144-.286-.7632-.802-1.3752-1.457-1.7366-1.31-.7227-2.912-.6437-5.101-.669h-.008-10.446zm30.449 0c-2.189.0252-3.791-.0537-5.101.669-.655.3614-1.171.9734-1.457 1.7366-.287.7631-.391 1.6702-.391 2.8144v1.5224c0-1.1441.104-2.0512.391-2.8144.286-.7632.802-1.3752 1.457-1.7365 1.31-.7228 2.912-.6439 5.101-.6691h.008 10.446.008c2.189.0253 3.791-.0537 5.101.6691.655.3613 1.17.9733 1.457 1.7365.286.7632.391 1.6703.391 2.8144v-1.5224c0-1.1442-.105-2.0513-.391-2.8144-.287-.7632-.802-1.3752-1.457-1.7366-1.31-.7227-2.912-.6437-5.101-.669h-.008-10.446zm30.449 0c-2.19.0252-3.792-.0537-5.101.669-.655.3614-1.171.9734-1.457 1.7366-.287.7631-.391 1.6702-.391 2.8144v1.5224c0-1.1441.104-2.0512.391-2.8144.286-.7632.802-1.3752 1.457-1.7365 1.309-.7228 2.911-.6439 5.101-.6691h.008 10.446.008c2.189.0253 3.791-.0537 5.101.6691.655.3613 1.17.9733 1.457 1.7365.286.7632.391 1.6703.391 2.8144v-1.5224c0-1.1442-.105-2.0513-.391-2.8144-.287-.7632-.802-1.3752-1.457-1.7366-1.31-.7227-2.912-.6437-5.101-.669h-.008-10.446zm-109.6162 30.4488c-2.1891.0252-3.7912-.0537-5.101.6691-.655.3613-1.1706.9733-1.4571 1.7365-.2864.7632-.391 1.6703-.391 2.8144v1.5225c0-1.1442.1046-2.0513.391-2.8145.2865-.7631.8021-1.3752 1.4571-1.7365 1.3098-.7227 2.9119-.6439 5.101-.6691h.008 10.446.008c2.1892.0253 3.7912-.0536 5.1011.6691.6549.3613 1.1705.9734 1.457 1.7365.2864.7632.391 1.6703.391 2.8145v-1.5225c0-1.1441-.1046-2.0512-.391-2.8144-.2865-.7632-.8021-1.3752-1.457-1.7365-1.3099-.7227-2.912-.6438-5.1011-.6691h-.008-10.446zm30.4489 0c-2.1892.0252-3.7913-.0537-5.1011.6691-.6549.3613-1.1705.9733-1.457 1.7365s-.391 1.6703-.391 2.8144v1.5225c0-1.1442.1045-2.0513.391-2.8145.2865-.7631.8021-1.3752 1.457-1.7365 1.3098-.7227 2.9119-.6439 5.1011-.6691h.008 10.446.008c2.1891.0253 3.7912-.0536 5.101.6691.655.3613 1.1706.9734 1.4571 1.7365.2864.7632.391 1.6703.391 2.8145v-1.5225c0-1.1441-.1046-2.0512-.391-2.8144-.2865-.7632-.8021-1.3752-1.4571-1.7365-1.3098-.7227-2.9119-.6438-5.101-.6691h-.008-10.446zm30.4493 0c-2.19.0252-3.792-.0537-5.102.6691-.654.3613-1.17.9733-1.457 1.7365-.286.7632-.391 1.6703-.391 2.8144v1.5225c0-1.1442.105-2.0513.391-2.8145.287-.7631.803-1.3752 1.457-1.7365 1.31-.7227 2.912-.6439 5.102-.6691h.008 10.445.008c2.19.0253 3.792-.0536 5.102.6691.655.3613 1.17.9734 1.457 1.7365.286.7632.391 1.6703.391 2.8145v-1.5225c0-1.1441-.105-2.0512-.391-2.8144-.287-.7632-.802-1.3752-1.457-1.7365-1.31-.7227-2.912-.6438-5.102-.6691h-.008-10.445zm30.448 0c-2.189.0252-3.791-.0537-5.101.6691-.655.3613-1.17.9733-1.457 1.7365-.286.7632-.391 1.6703-.391 2.8144v1.5225c0-1.1442.105-2.0513.391-2.8145.287-.7631.802-1.3752 1.457-1.7365 1.31-.7227 2.912-.6439 5.101-.6691h.008 10.446.008c2.19.0253 3.792-.0536 5.101.6691.655.3613 1.171.9734 1.457 1.7365.287.7632.391 1.6703.391 2.8145v-1.5225c0-1.1441-.104-2.0512-.391-2.8144-.286-.7632-.802-1.3752-1.457-1.7365-1.309-.7227-2.911-.6438-5.101-.6691h-.008-10.446zm-103.5257 30.4488c-2.1892.0252-3.7912-.0537-5.1011.6691-.6549.3613-1.1705.9737-1.457 1.7367s-.391 1.67-.391 2.814v1.523c0-1.144.1045-2.052.391-2.815s.8021-1.375 1.457-1.736c1.3099-.723 2.9119-.644 5.1011-.669h.008 10.446.008c2.1891.025 3.7912-.054 5.1011.669.6549.361 1.1705.973 1.457 1.736.2863.763.3909 1.671.3909 2.815v-1.523c0-1.144-.1046-2.051-.391-2.814-.2865-.763-.8021-1.3754-1.457-1.7367-1.3098-.7227-2.9119-.6438-5.1011-.6691h-.008-10.4459zm30.4488 0c-2.1891.0252-3.7912-.0537-5.101.6691-.655.3613-1.1706.9737-1.4571 1.7367-.2864.763-.391 1.67-.391 2.814v1.523c0-1.144.1046-2.052.391-2.815.2865-.763.8021-1.375 1.4571-1.736 1.3098-.723 2.9119-.644 5.101-.669h.008 71.3439.008c2.189.025 3.791-.054 5.101.669.655.361 1.17.973 1.457 1.736.286.763.391 1.671.391 2.815v-1.523c0-1.144-.105-2.051-.391-2.814-.287-.763-.802-1.3754-1.457-1.7367-1.31-.7227-2.912-.6438-5.101-.6691h-.008-71.3439zm91.3469 0c-2.19.0252-3.792-.0537-5.101.6691-.655.3613-1.171.9737-1.457 1.7367-.287.763-.391 1.67-.391 2.814v1.523c0-1.144.104-2.052.391-2.815.286-.763.802-1.375 1.457-1.736 1.309-.723 2.911-.644 5.101-.669h.008 10.446.008c2.189.025 3.791-.054 5.101.669.655.361 1.17.973 1.457 1.736.286.763.391 1.671.391 2.815v-1.523c0-1.144-.105-2.051-.391-2.814-.287-.763-.802-1.3754-1.457-1.7367-1.31-.7227-2.912-.6438-5.101-.6691h-.008-10.446z" fill="#fff" opacity=".4"/>
  <g fill="#000">
    <g opacity=".2">
      <path d="m35.7652 50.6382c0 .5176.0609.9845.1827 1.4006.132.4161.3147.7765.5481 1.0809.2436.2944.538.5227.883.6851.3451.1624.741.2436 1.1875.2436.4365 0 .8272-.0812 1.1723-.2436.3553-.1624.6496-.3907.883-.6851.2436-.3044.4263-.6648.5481-1.0809.132-.4161.1979-.883.1979-1.4006 0-.5177-.0659-.9846-.1979-1.4007-.1218-.4263-.3045-.7866-.5481-1.0809-.2334-.3045-.5277-.5379-.883-.7003-.3451-.1624-.7358-.2436-1.1723-.2436-.4465 0-.8424.0862-1.1875.2588-.345.1624-.6394.3958-.883.7003-.2334.2943-.4161.6547-.5481 1.0809-.1218.4162-.1827.878-.1827 1.3855zm8.0538 0c0 .7409-.0914 1.4108-.2741 2.0096-.1827.5887-.4415 1.1063-.7764 1.5529-.3248.4466-.7156.817-1.1723 1.1114-.4567.2943-.9591.5074-1.5072.6394.0507.203.1624.3654.3349.4872.1726.1319.3908.2385.6547.3197s.5683.1421.9134.1827c.3553.0406.7359.0761 1.1419.1065l-.4872 1.7356c-.7917-.0304-1.4717-.1116-2.0401-.2436-.5582-.1218-1.0352-.2943-1.4311-.5176-.3857-.2233-.6952-.4973-.9287-.8221-.2233-.3248-.3958-.7003-.5176-1.1266-.6293-.0812-1.2129-.2538-1.7508-.5176-.5379-.2741-1.0048-.6395-1.4007-1.0962-.3958-.4567-.7054-1.0048-.9286-1.6442-.2233-.6395-.335-1.3652-.335-2.1771 0-.9034.1421-1.695.4263-2.375.2842-.6902.6648-1.2687 1.1418-1.7356.4872-.4669 1.0454-.8171 1.6747-1.0505.6394-.2335 1.3093-.3502 2.0096-.3502.7207 0 1.4007.1167 2.0401.3502.6394.2334 1.1977.5836 1.6747 1.0505s.8526 1.0454 1.1266 1.7356c.274.68.4111 1.4716.4111 2.375z" opacity=".2"/>
      <path d="m70.4754 46.4971c.1218.4162.2537.8881.3958 1.4159.1523.5176.3096 1.0556.472 1.6138.1725.5582.3451 1.1164.5176 1.6747.1725.5582.34 1.0758.5024 1.5529.132-.5177.2639-1.081.3958-1.69.1421-.6089.2741-1.2382.3959-1.8878s.2385-1.2941.3501-1.9335c.1218-.6496.2335-1.2738.335-1.8726h2.4663c-.3552 1.766-.7663 3.5575-1.2331 5.3742-.4568 1.8168-.9541 3.5422-1.492 5.1763h-2.1771c-.3553-.9743-.7004-1.9944-1.0353-3.0601-.3349-1.0758-.6648-2.1517-.9896-3.2275-.3248 1.0758-.6496 2.1517-.9743 3.2275-.3248 1.0657-.6648 2.0858-1.0201 3.0601h-2.1771c-.5379-1.6341-1.0403-3.3595-1.5072-5.1763-.4567-1.8167-.8627-3.6082-1.2179-5.3742h2.5729c.1015.5988.2131 1.223.3349 1.8726.1218.6394.2487 1.2839.3806 1.9335.132.6496.2639 1.2789.3959 1.8878.1421.609.2842 1.1723.4263 1.69.1826-.4974.3603-1.0252.5328-1.5834.1726-.5582.34-1.1164.5024-1.6747.1624-.5582.3096-1.0961.4415-1.6138.1421-.5176.269-.9794.3806-1.3854z" opacity=".2"/>
      <path d="m96.0661 55.921v-10.5505h7.1249v1.9944h-4.7499v2.0705h4.2169v1.9488h-4.2169v2.5424h5.0999v1.9944z" opacity=".2"/>
      <path d="m128.764 45.2487c1.583 0 2.796.2842 3.639.8526.842.5582 1.263 1.4311 1.263 2.6186 0 .7409-.172 1.3448-.517 1.8117-.335.4567-.823.817-1.462 1.0809.213.2639.436.5684.67.9135.233.3349.462.6902.685 1.0657.233.3654.457.7511.67 1.1571.213.3958.411.7866.594 1.1722h-2.665c-.192-.3451-.39-.6952-.593-1.0504-.193-.3553-.396-.7004-.609-1.0353-.203-.3349-.406-.6496-.609-.9439-.203-.3045-.406-.5786-.609-.8221h-1.173v3.8517h-2.375v-10.3982c.518-.1015 1.051-.1726 1.599-.2132.558-.0406 1.056-.0609 1.492-.0609zm.137 2.0249c-.173 0-.33.005-.472.0152-.132.0101-.259.0203-.381.0304v2.8622h.67c.893 0 1.533-.1116 1.919-.3349.385-.2233.578-.6039.578-1.1418 0-.5177-.198-.8831-.594-1.0962-.385-.2233-.959-.3349-1.72-.3349z" opacity=".2"/>
      <path d="m165.11 45.3705v2.0249h-3.182v8.5256h-2.375v-8.5256h-3.182v-2.0249z" opacity=".2"/>
      <path d="m53.5423 86.3699c-.1116-.3654-.2385-.741-.3806-1.1266-.1319-.3857-.2639-.7714-.3958-1.1571h-4.1106c-.132.3857-.269.7714-.4111 1.1571-.1319.3856-.2537.7612-.3654 1.1266h-2.4663c.3958-1.1368.7713-2.1873 1.1266-3.1515.3552-.9642.7003-1.8726 1.0352-2.7252.3451-.8525.6801-1.6594 1.0049-2.4207.3349-.7713.68-1.5224 1.0352-2.2532h2.2685c.345.7308.6851 1.4819 1.02 2.2532.3349.7613.6699 1.5682 1.0048 2.4207.3451.8526.6953 1.761 1.0505 2.7252s.7308 2.0147 1.1266 3.1515zm-2.847-8.1603c-.0507.1522-.1268.3603-.2283.6242s-.2182.5683-.3502.9134c-.1319.3451-.2791.7257-.4415 1.1419-.1522.4161-.3095.8525-.4719 1.3093h2.9992c-.1624-.4568-.3197-.8932-.472-1.3093-.1522-.4162-.2994-.7968-.4415-1.1419-.1319-.3451-.2487-.6495-.3502-.9134s-.1827-.472-.2436-.6242z" opacity=".2"/>
      <path d="m80.86 84.5582c.335 0 .609-.0254.8221-.0762.2233-.0609.401-.137.5329-.2283.1319-.1015.2233-.2183.274-.3502.0508-.1319.0762-.2791.0762-.4415 0-.3451-.1624-.6293-.4872-.8526-.3248-.2334-.883-.4821-1.6747-.746-.3451-.1218-.6902-.2588-1.0353-.411-.345-.1624-.6546-.3603-.9287-.5938-.274-.2436-.4973-.5328-.6698-.8678-.1726-.3451-.2588-.7612-.2588-1.2484s.0913-.9236.274-1.3093c.1827-.3958.4415-.7307.7764-1.0048.335-.274.741-.4821 1.218-.6242.477-.1522 1.015-.2284 1.6138-.2284.7105 0 1.3245.0762 1.8421.2284.5177.1523.944.3197 1.2789.5024l-.6851 1.8726c-.2943-.1522-.6242-.2842-.9896-.3958-.3552-.1218-.7866-.1827-1.2941-.1827-.5683 0-.9794.0812-1.2331.2436-.2436.1522-.3654.3907-.3654.7155 0 .1929.0456.3553.137.4872.0913.132.2182.2538.3806.3654.1725.1015.3654.1979.5785.2893.2233.0812.4669.1674.7308.2588.5481.203 1.0251.406 1.4311.609.406.1928.7409.4212 1.0048.6851.274.2638.477.5734.609.9286.1319.3553.1979.7866.1979 1.2941 0 .9845-.3451 1.7508-1.0353 2.2989-.6901.5379-1.7305.8069-3.121.8069-.4669 0-.8881-.0304-1.2636-.0913-.3755-.0508-.7105-.1168-1.0048-.198-.2842-.0812-.5329-.1674-.746-.2588-.203-.0913-.3755-.1776-.5176-.2588l.6698-1.8878c.3147.1725.7004.3298 1.1571.4719.4669.132 1.0353.198 1.7051.198z" opacity=".2"/>
      <path d="m109.624 84.4364c.112.0101.239.0203.381.0304h.533c1.187 0 2.065-.2994 2.634-.8982.578-.5989.868-1.4261.868-2.4816 0-1.1063-.274-1.9437-.823-2.512-.548-.5684-1.415-.8526-2.603-.8526-.162 0-.33.0051-.502.0152-.173 0-.335.0102-.488.0305zm6.867-3.3494c0 .9134-.142 1.7102-.427 2.3902-.284.68-.69 1.2433-1.218 1.6899-.517.4466-1.152.7815-1.903 1.0048s-1.593.335-2.527.335c-.426 0-.923-.0203-1.492-.0609-.568-.0305-1.126-.1015-1.675-.2132v-10.2764c.549-.1015 1.117-.1675 1.706-.198.598-.0406 1.111-.0609 1.537-.0609.904 0 1.721.1015 2.451.3045.741.203 1.376.5227 1.903.9592.528.4364.934.9946 1.218 1.6747.285.68.427 1.497.427 2.4511z" opacity=".2"/>
      <path d="m138.559 86.3699v-10.5506h7.064v1.9944h-4.689v2.2076h4.172v1.9944h-4.172v4.3542z" opacity=".2"/>
      <path d="m39.982 115.616c0 .457-.1472.807-.4415 1.05-.2842.234-.609.351-.9744.351s-.6952-.117-.9896-.351c-.2842-.243-.4262-.593-.4262-1.05s.142-.802.4262-1.035c.2944-.244.6242-.366.9896-.366s.6902.122.9744.366c.2943.233.4415.578.4415 1.035z" opacity=".2"/>
      <path d="m158.988 119.635h-2.329l5.115-14.737h2.299z" opacity=".2"/>
    </g>
    <path d="m248.993 205.39c0 19.031-7.446 18.809-26.642 19.031h-129.4071c-19.196-.222-26.6428 0-26.6428-19.031v-83.735c0-19.03 7.4468-18.808 26.6428-19.03h129.4071c19.196.222 26.642 0 26.642 19.03z" opacity=".2"/>
    <path d="m248.993 203.868c0 19.031-7.446 18.809-26.642 19.031h-129.4071c-19.196-.222-26.6428 0-26.6428-19.031v-83.735c0-19.031 7.4468-18.809 26.6428-19.031h129.4071c19.196.222 26.642 0 26.642 19.031z" opacity=".1"/>
    <path d="m248.993 203.868c0 19.031-7.446 18.809-26.642 19.031h-129.4071c-19.196-.222-26.6428 0-26.6428-19.031v-83.735c0-19.031 7.4468-18.809 26.6428-19.031h129.4071c19.196.222 26.642 0 26.642 19.031z" opacity=".5" stroke="url(#paint4_linear)" stroke-width="4"/>
  </g>
  <path d="m248.993 203.868c0 19.031-7.446 18.809-26.642 19.031h-129.4071c-19.196-.222-26.6428 0-26.6428-19.031v-83.735c0-19.031 7.4468-18.809 26.6428-19.031h129.4071c19.196.222 26.642 0 26.642 19.031z" fill="url(#paint5_linear)"/>
  <path d="m66.3019 177.224-.0007 26.645c-.0006 19.03 7.4467 18.808 26.6427 19.03h129.4061c19.196-.222 26.643 0 26.643-19.03v-26.645z" fill="#000" opacity=".1"/>
  <path d="m248.993 203.868c0 19.031-7.446 18.809-26.642 19.031h-129.4071c-19.196-.222-26.6428 0-26.6428-19.031v-83.735c0-19.031 7.4468-18.809 26.6428-19.031h129.4071c19.196.222 26.642 0 26.642 19.031z" opacity=".3" stroke="url(#paint6_linear)" stroke-width="4"/>
  <path d="m96.75 107.192h121.795c3.374 0 6.09 1.273 6.09 2.855v.38 2.855h-133.9748v-2.855-.38c0-1.582 2.7161-2.855 6.0898-2.855z" fill="#000021" opacity=".3"/>
  <path d="m84.5705 186.359h146.1545v6.09 15.224c0 3.374-2.716 6.09-6.09 6.09h-133.9748c-3.3737 0-6.0897-2.716-6.0897-6.09v-15.224z" fill="#000021" opacity=".3"/>
  <path d="m66.3012 175.702h182.6928v1.522h-182.6928z" fill="#fff" opacity=".15"/>
  <path d="m90.6602 113.282h133.9748v1.522h-133.9748z" fill="#fff" opacity=".3"/>
  <path d="m124.361 77.4153c-23.756 0-26.3105 2.7629-26.1941 29.7177v6.149h118.4501v-6.149c0-26.9552-2.438-29.7177-26.194-29.7177zm-26.1941 108.9437v32.052c-.1164 26.954 2.4381 29.717 26.1941 29.717h66.062c23.756 0 25.576-2.772 26.194-29.717v-32.052z" fill="#000" opacity=".1"/>
  <path d="m228.441 165.045c0-2.102-2.385-3.806-5.328-3.806s-5.329 1.704-5.329 3.806 2.386 3.806 5.329 3.806 5.328-1.704 5.328-3.806z" fill="#000" opacity=".2"/>
  <path d="m124.361 75.2209c-5.967 0-10.642.1631-14.398.8771-3.757.7141-6.667 2.0316-8.724 4.3563-4.1155 4.6492-4.5623 12.3989-4.5039 25.9217v6.906h121.3139v-6.912c0-13.5206-.448-21.2646-4.547-25.9143-2.049-2.3248-4.948-3.6434-8.696-4.3577-3.748-.7142-8.416-.8771-14.383-.8771zm0 2.8635h66.062c5.911 0 10.456.182 13.846.8281 3.391.6461 5.555 1.7022 7.085 3.4374 3.059 3.4703 3.831 10.5858 3.831 24.0201v5.48h-115.5864v-5.483-.003c-.058-13.4318.7134-20.5403 3.7854-24.0112 1.536-1.7354 3.713-2.794 7.113-3.4403 3.4-.6464 7.953-.8282 13.864-.8282zm-27.6259 108.2746v31.29c-.0582 13.519.3891 21.268 4.5039 25.916 2.057 2.325 4.967 3.642 8.724 4.356 3.756.714 8.431.878 14.398.878h66.062c5.967 0 10.635-.163 14.383-.878 3.748-.714 6.647-2.032 8.696-4.357 4.099-4.65 4.547-12.394 4.547-25.915v-31.29zm2.8635 1.432h115.5864v29.858c0 13.435-.772 20.55-3.831 24.021-1.53 1.735-3.694 2.791-7.085 3.437-3.39.646-7.935.828-13.846.828h-66.062c-5.911 0-10.464-.182-13.864-.828s-5.577-1.705-7.113-3.44c-3.072-3.471-3.8434-10.58-3.7854-24.012v-.003z" fill="#000" opacity=".2"/>
  <path d="m124.361 76.6526c-23.756 0-26.3105 2.7629-26.1941 29.7174v6.912h118.4501v-6.912c0-26.9548-2.438-29.7174-26.194-29.7174z" fill="url(#paint7_linear)"/>
  <path d="m98.1669 186.359v31.29c-.1164 26.955 2.4381 29.718 26.1941 29.718h66.062c23.756 0 26.194-2.763 26.194-29.718v-31.29z" fill="url(#paint7_linear)"/>
  <path d="m124.362 76.653c-23.756 0-26.3121 2.7635-26.1957 29.718v1.524c-.1164-26.9543 2.4397-29.7177 26.1957-29.7177h66.061c23.755 0 26.195 2.7631 26.195 29.7177v-1.524c0-26.9548-2.44-29.718-26.195-29.718z" fill="#fff" opacity=".6"/>
  <path d="m98.1669 186.359v31.29c-.1164 26.955 2.4401 29.718 26.1951 29.718h66.06c23.755 0 25.577-2.772 26.195-29.718v-31.29z" fill="#fff" opacity=".2"/>
  <g fill="#999" opacity=".6">
    <path d="m195.081 189.446h-75.378v-3.049h75.378z"/>
    <path d="m195.081 216.882h-75.378v-3.049h75.378z"/>
    <path d="m195.081 207.736h-75.378v-3.048h75.378z"/>
    <path d="m195.081 198.591h-75.378v-3.048h75.378z"/>
    <path d="m195.081 226.027h-75.378v-3.048h75.378z"/>
  </g>
  <path d="m157.392 76.6526v36.6294h59.225v-6.912c0-26.9548-2.44-29.7174-26.195-29.7174zm0 109.7064v61.008h33.03c23.755 0 25.577-2.772 26.195-29.718v-31.29z" fill="#fff" opacity=".1"/>
  <path d="m176.237 247.366 40.381-45.726v17.135c-.035 25.908-2.56 28.591-25.692 28.591z" fill="#fff" opacity=".4"/>
  <path d="m185.813 165.045c0-2.102-2.386-3.806-5.329-3.806s-5.328 1.704-5.328 3.806 2.385 3.806 5.328 3.806 5.329-1.704 5.329-3.806z" fill="#000" opacity=".2"/>
  <path d="m180.484 168.09c2.523 0 4.568-1.363 4.568-3.045s-2.045-3.045-4.568-3.045c-2.522 0-4.567 1.363-4.567 3.045s2.045 3.045 4.567 3.045z" fill="url(#paint9_linear)"/>
  <path d="m180.484 162c-2.53 0-4.567 1.358-4.567 3.045 0 .064.009.127.014.19.107-1.159 1.177-2.136 2.686-2.587-.261.248-.416.548-.416.875 0 .843 1.018 1.522 2.283 1.522s2.284-.679 2.284-1.522c0-.327-.156-.627-.416-.875 1.508.451 2.578 1.428 2.685 2.587.006-.063.015-.126.015-.19 0-1.687-2.037-3.045-4.568-3.045z" fill="#fff" opacity=".5"/>
  <path d="m223.113 168.014c2.522 0 4.567-1.364 4.567-3.045 0-1.682-2.045-3.045-4.567-3.045-2.523 0-4.568 1.363-4.568 3.045 0 1.681 2.045 3.045 4.568 3.045z" fill="url(#paint10_linear)"/>
  <path d="m223.113 161.924c-2.531 0-4.568 1.358-4.568 3.045 0 .064.009.127.015.19.107-1.159 1.177-2.136 2.685-2.587-.26.247-.416.548-.416.874 0 .844 1.019 1.523 2.284 1.523s2.283-.679 2.283-1.523c0-.326-.155-.627-.416-.874 1.509.451 2.579 1.428 2.685 2.587.006-.063.015-.126.015-.19 0-1.687-2.037-3.045-4.567-3.045z" fill="#fff" opacity=".5"/>
  <path d="m207.127 165.045c0-2.102-2.386-3.806-5.328-3.806-2.943 0-5.329 1.704-5.329 3.806s2.386 3.806 5.329 3.806c2.942 0 5.328-1.704 5.328-3.806z" fill="#000" opacity=".2"/>
  <path d="m201.799 168.09c2.522 0 4.567-1.363 4.567-3.045s-2.045-3.045-4.567-3.045c-2.523 0-4.568 1.363-4.568 3.045s2.045 3.045 4.568 3.045z" fill="url(#paint11_linear)"/>
  <path d="m201.798 162c-2.53 0-4.567 1.358-4.567 3.045 0 .064.009.127.015.19.106-1.159 1.177-2.136 2.685-2.587-.261.248-.416.548-.416.875 0 .843 1.018 1.522 2.283 1.522 1.266 0 2.284-.679 2.284-1.522 0-.327-.155-.627-.416-.875 1.508.451 2.579 1.428 2.685 2.587.006-.063.015-.126.015-.19 0-1.687-2.037-3.045-4.568-3.045z" fill="#fff" opacity=".5"/>
  <path d="m84.5705 186.359h146.1545v6.09 15.224c0 3.374-2.716 6.09-6.09 6.09h-133.9748c-3.3737 0-6.0897-2.716-6.0897-6.09v-15.224z" fill="url(#paint12_linear)" opacity=".2"/>
  <path d="m98.2725 186.359h118.7505v1.523h-118.7505z" fill="#000" opacity=".2"/>
</svg>
