<svg enable-background="new" height="256" viewBox="0 0 256 256" width="256" xmlns="http://www.w3.org/2000/svg" xmlns:xlink="http://www.w3.org/1999/xlink"><linearGradient id="a" gradientUnits="userSpaceOnUse" x1="624" x2="688" y1="369.23901" y2="369.23901"><stop offset="0" stop-color="#5884f4"/><stop offset=".278" stop-color="#5884f4"/><stop offset=".278" stop-color="#2f5fdd"/><stop offset=".707" stop-color="#2f5fdd"/><stop offset=".709" stop-color="#234db8"/><stop offset="1" stop-color="#234db8"/></linearGradient><linearGradient id="b" gradientTransform="matrix(0 -1 1 0 -10.0054 585.9946)" gradientUnits="userSpaceOnUse" x1="88" x2="488" y1="88" y2="488"><stop offset="0" stop-opacity=".588235"/><stop offset=".88" stop-opacity="0"/><stop offset="1"/></linearGradient><filter id="c" color-interpolation-filters="sRGB" height="1.088" width="1.106" x="-.05" y="-.04"><feGaussianBlur stdDeviation="8.48"/></filter><filter id="d" color-interpolation-filters="sRGB" height="1.022" width="1.026" x="-.01" y="-.01"><feGaussianBlur stdDeviation="2.12"/></filter><path d="m189.84323 74c-70.59344 0-78.18921 7.250835-77.84323 77.98706v146.01294 146.01294c-.34598 70.73623 7.24979 77.98706 77.84323 77.98706h196.31354c70.59344 0 76.00668-7.27384 77.84323-77.98706v-146.01294-146.01294c0-70.737067-7.24979-77.98706-77.84323-77.98706z" filter="url(#d)" opacity=".1" transform="matrix(0 .5 -.5 0 276.82523 -15.328148)"/><path d="m189.84323 74c-70.59344 0-78.18921 7.250835-77.84323 77.98706v146.01294 146.01294c-.34598 70.73623 7.24979 77.98706 77.84323 77.98706h196.31354c70.59344 0 77.84323-7.24999 77.84323-77.98706v-146.01294-146.01294c0-70.737067-7.24979-77.98706-77.84323-77.98706z" fill="url(#b)" filter="url(#c)" opacity=".3" transform="matrix(0 .5 -.5 0 276.82523 -15.328148)"/><path d="m241.83043 77.478254c0-36.098811-3.69016-39.983003-39.68984-39.806081h-74.31016-74.310154c-35.99969-.176922-39.68984 3.70727-39.68984 39.806081v100.387326c0 36.09881 3.68973 39.80608 39.68984 39.80608h74.310154 74.31016c36.00011 0 39.68984-3.70727 39.68984-39.80608z" opacity=".1"/><path d="m239.82523 176.74484c0 35.29673-3.62542 39.09461-38.99353 38.92162h-73.00647-73.006464c-35.36812.17299-38.99353-3.62489-38.99353-38.92162v-98.156766c0-35.296716 3.625-38.921616 38.99353-38.921616h73.006464 73.00647c35.36853 0 38.99353 3.6249 38.99353 38.921616z" fill="#ededed"/><path d="m54.818359 39.666016c-35.36853 0-38.992187 3.625159-38.992187 38.921875v25.999999c0-35.296711 3.623657-38.921874 38.992187-38.921874h73.007811 73.00586c35.36853 0 38.99414 3.625163 38.99414 38.921874v-25.999999c0-35.296716-3.62561-38.921875-38.99414-38.921875h-73.00586z" fill="#4d4d4d"/><path d="m15.825236 119.66842v57.07616c0 35.29673 3.624067 39.09487 38.992187 38.92188h73.007817 73.00586c35.36811.17299 38.99414-3.62515 38.99414-38.92188v-57.07616z" fill="#fff" opacity=".05"/><path d="m54.81817 39.667201c-35.36853 0-38.992187 3.625159-38.992187 38.921875v14c0-35.296716 3.623657-38.921875 38.992187-38.921875h73.00781 73.00586c35.36853 0 38.99414 3.625159 38.99414 38.921875v-14c0-35.296716-3.62561-38.921875-38.99414-38.921875h-73.00586z" fill="#2d2d2d"/><path d="m54.81817 39.667201c-35.36853 0-38.992187 3.623202-38.992187 38.919923v98.158206c0 .0882.0019.16224.002.25v-96.410156c-.000047-35.29672 3.625564-38.921879 38.994094-38.921879h73.005853 73.00586c35.28016 0 38.97394 3.621035 38.99219 38.671879v-1.74805c0-35.296721-3.62561-38.919923-38.99414-38.919923h-73.00586z" fill="#fff" opacity=".3"/><path d="m15.825983 174.74533v2c0 35.29673 3.624067 39.09487 38.992187 38.92188h73.00781 73.00586c35.36811.17299 38.99414-3.62515 38.99414-38.92188v-2c0 35.29673-3.62603 39.09487-38.99414 38.92188h-73.00586-73.00781c-35.36812.17299-38.992187-3.62515-38.992187-38.92188z" opacity=".2"/><path d="m313.67731 107.25084a3.4108538 3.4108538 0 0 0 -1.19235 6.65449c4.99972 1.69684 5.96166 3.36063 6.42469 5.50545.46301 2.14482-.17404 5.38025-.74272 8.99257-.56867 3.61231-1.01124 8.1096 1.94838 11.84021 2.95961 3.7306 8.25614 5.5828 16.98929 6.14159 4.10812.26284 6.86733 1.75611 9.09581 3.96004 2.22847 2.20394 3.84527 5.22094 4.93258 8.33978 2.17462 6.23766 2.17486 12.503 2.17486 12.503a3.4108538 3.4108538 0 1 0 6.82104.0399s.079-7.22437-2.55789-14.78776c-1.31838-3.78168-3.32951-7.7416-6.57122-10.94762-3.24173-3.20602-7.79454-5.55246-13.4622-5.91511-7.90107-.50554-11.03618-2.25796-12.08002-3.57371-1.04382-1.31576-1.0613-3.30838-.55287-6.53793.50841-3.22954 1.60233-7.18782.67277-11.49382-.92958-4.306-4.48488-8.34822-10.89765-10.52461a3.4108538 3.4108538 0 0 0 -1.0025-.19653z" fill="#5d5d5d" transform="translate(-255.11914 28.977071)"/><g enable-background="new" transform="matrix(.42285581 .42285581 -.45861964 .45861964 7.386127 -257.06759)"><path d="m688.00003 319.35584-32 81.13762-31.99999-81.13762v-11.06422h63.99999z" fill="#fee1c2"/><path d="m645.81253 374.67694 10.1875 25.81651 10.1875-25.81651s.77644-2.76606-1.20553-2.76606-3.94669 3.68807-3.94669 3.68807-1.03528-4.61009-5.01377-4.61009c-3.9785 0-5.01378 4.61009-5.01378 4.61009s-2.00773-3.68807-4.00773-3.68807-1.1875 2.76606-1.1875 2.76606z" fill="#5d5d5d"/><path d="m624.00004 319.35583c0-7.37615 17.99999-3.68808 17.99999 7.37614 0-18.44036 28-18.44036 28 0 0-11.06422 18-14.75229 18-7.37614v-185.89981h-63.99999z" fill="url(#a)"/></g><path d="m54.818168 51.667205c-35.36853 0-38.99219 3.625165-38.99219 38.921871v2c0-35.296706 3.62366-38.921871 38.99219-38.921871h73.007812 73.00586c35.36853 0 38.99414 3.625165 38.99414 38.921871v-2c0-35.296706-3.62561-38.921871-38.99414-38.921871h-73.00586z" fill="#f7f7f7" opacity=".25"/></svg>