<?xml version="1.0" encoding="UTF-8" standalone="no"?>
<svg
   xmlns:dc="http://purl.org/dc/elements/1.1/"
   xmlns:cc="http://creativecommons.org/ns#"
   xmlns:rdf="http://www.w3.org/1999/02/22-rdf-syntax-ns#"
   xmlns:svg="http://www.w3.org/2000/svg"
   xmlns="http://www.w3.org/2000/svg"
   xmlns:xlink="http://www.w3.org/1999/xlink"
   xmlns:sodipodi="http://sodipodi.sourceforge.net/DTD/sodipodi-0.dtd"
   xmlns:inkscape="http://www.inkscape.org/namespaces/inkscape"
   style="enable-background:new"
   width="256"
   height="256"
   version="1.0"
   viewBox="0 0 256 256"
   id="svg107"
   sodipodi:docname="dvd95.svg"
   inkscape:version="0.92.3 (2405546, 2018-03-11)">
  <metadata
     id="metadata111">
    <rdf:RDF>
      <cc:Work
         rdf:about="">
        <dc:format>image/svg+xml</dc:format>
        <dc:type
           rdf:resource="http://purl.org/dc/dcmitype/StillImage" />
        <dc:title>
  Adwaita Icon Template
 </dc:title>
      </cc:Work>
    </rdf:RDF>
  </metadata>
  <sodipodi:namedview
     pagecolor="#ffffff"
     bordercolor="#666666"
     borderopacity="1"
     objecttolerance="10"
     gridtolerance="10"
     guidetolerance="10"
     inkscape:pageopacity="0"
     inkscape:pageshadow="2"
     inkscape:window-width="1920"
     inkscape:window-height="1009"
     id="namedview109"
     showgrid="false"
     inkscape:zoom="3.4011667"
     inkscape:cx="130.48065"
     inkscape:cy="129.19996"
     inkscape:window-x="0"
     inkscape:window-y="34"
     inkscape:window-maximized="1"
     inkscape:current-layer="svg107" />
  <title
     id="title4162">
  Adwaita Icon Template
 </title>
  <defs
     id="defs29">
    <linearGradient
       id="linearGradient950">
      <stop
         style="stop-color:#9a9996"
         id="stop946"
         offset="0" />
      <stop
         style="stop-color:#77767b"
         id="stop948"
         offset="1" />
    </linearGradient>
    <linearGradient
       id="linearGradient1001"
       x1="1660.857"
       x2="1662.99"
       y1="806.297"
       y2="812.882"
       gradientTransform="matrix(1.8293937,-0.81599442,0.81599442,1.8293937,-3645.9624,100.02949)"
       gradientUnits="userSpaceOnUse"
       xlink:href="#linearGradient950" />
    <clipPath
       id="clipPath5154"
       clipPathUnits="userSpaceOnUse">
      <circle
         style="fill:url(#radialGradient5158)"
         cx="128"
         cy="924.362"
         r="109.647"
         id="circle7" />
    </clipPath>
    <clipPath
       id="clipPath977"
       clipPathUnits="userSpaceOnUse">
      <circle
         style="fill:url(#radialGradient5158)"
         cx="128"
         cy="924.362"
         r="109.647"
         id="circle10" />
    </clipPath>
    <clipPath
       id="clipPath4688"
       clipPathUnits="userSpaceOnUse">
      <path
         style="fill:url(#radialGradient4692);stroke:#a7003f;stroke-linecap:round;stroke-linejoin:round"
         d="m 106.42383,889.60156 c -2.2448,-0.0524 -4.09304,1.75264 -4.09375,3.99805 v 32.64453 32.64453 c -4e-5,3.07923 3.33305,5.004 6,3.46485 l 28.26953,-16.32227 28.27148,-16.32227 c 2.66559,-1.54001 2.66559,-5.38772 0,-6.92773 l -28.27148,-16.32227 -28.26953,-16.32226 c -0.58054,-0.3353 -1.23603,-0.51932 -1.90625,-0.53516 z"
         id="path13" />
    </clipPath>
    <clipPath
       id="clipPath4564"
       clipPathUnits="userSpaceOnUse">
      <circle
         style="fill:url(#radialGradient4568)"
         cx="128"
         cy="924.362"
         r="109.647"
         id="circle16" />
    </clipPath>
    <clipPath
       id="clipPath6215"
       clipPathUnits="userSpaceOnUse">
      <path
         style="fill:url(#radialGradient6219)"
         d="m 105.17325,806.18572 c -3.06859,0.56361 -6.11393,1.24721 -9.129005,2.04923 -3.838255,1.06506 -7.62084,2.32142 -11.333578,3.76438 -3.712189,1.44307 -7.34989,3.07087 -10.899472,4.87732 -3.549153,1.80656 -7.005749,3.78947 -10.35684,5.94129 -3.351877,2.15253 -6.593991,4.47137 -9.714191,6.94783 -3.119992,2.47544 -6.114241,5.10535 -8.971529,7.87988 -0.367219,0.38909 -0.731819,0.78065 -1.093777,1.17464 2.60205,17.85956 16.832359,40.03752 30.863064,55.74236 -4.76734,8.84435 -7.265993,18.73329 -7.272057,28.78068 0.02104,2.87431 0.246096,5.7435 0.673482,8.58593 -20.257302,-9.18513 -43.077023,-26.53494 -52.798465,-47.36396 -0.440667,1.15171 -0.863474,2.31018 -1.268271,3.47498 -1.176789,3.80495 -2.162562,7.66637 -2.953625,11.56979 -0.79154,3.90311 -1.3874065,7.84335 -1.7853678,11.80598 -0.39733,3.96334 -0.5961891,7.94407 -0.5958321,11.92728 -4.394e-4,2.81936 0.098928,5.63785 0.2979155,8.45018 0.282275,3.97319 0.763088,7.92978 1.4406374,11.85493 0.625626,3.51826 1.408798,7.00668 2.347153,10.45473 16.778133,6.68355 43.114514,5.45001 63.748015,1.14301 6.818545,11.02763 16.987182,19.58379 29.018153,24.41667 -18.071844,12.93645 -44.490188,24.02095 -67.37308,22.03245 1.384097,1.665 2.813203,3.2921 4.285735,4.8794 2.774977,2.8571 5.691103,5.5737 8.737453,8.1395 3.046107,2.5658 6.218619,4.9777 9.505651,7.2266 3.287242,2.2488 6.684891,4.3319 10.180217,6.2413 3.495379,1.9096 7.084075,3.6433 10.752641,5.1944 3.66896,1.5509 7.413193,2.9174 11.218668,4.0942 1.438565,0.3959 2.884421,0.7648 4.336807,1.1066 14.138748,-11.1844 26.206378,-34.5828 32.780368,-54.56406 12.95816,-0.38251 25.45395,-4.90132 35.65955,-12.89544 2.15922,22.12638 -1.46693,50.5581 -14.64692,69.3832 3.06859,-0.5636 6.11393,-1.2473 9.129,-2.0493 3.83826,-1.0651 7.62084,-2.3214 11.33358,-3.7644 3.71219,-1.4431 7.34989,-3.0709 10.89947,-4.8773 3.54915,-1.8066 7.00575,-3.7895 10.35684,-5.9413 3.35188,-2.1525 6.59399,-4.4714 9.71419,-6.9478 3.11999,-2.4754 6.11424,-5.1054 8.97153,-7.8799 0.36722,-0.3891 0.73182,-0.7806 1.09378,-1.1746 -2.60204,-17.85957 -16.83236,-40.03755 -30.86307,-55.74238 4.76735,-8.84435 7.266,-18.7333 7.27207,-28.78069 -0.021,-2.8743 -0.24611,-5.74349 -0.6735,-8.58592 20.25731,9.18513 43.07704,26.53494 52.79848,47.36396 0.44067,-1.15171 0.86347,-2.31018 1.26827,-3.47499 1.17679,-3.80495 2.16256,-7.66636 2.95362,-11.56978 0.79154,-3.90311 1.38741,-7.84335 1.78537,-11.80598 0.39733,-3.96334 0.59619,-7.94408 0.59583,-11.92729 4.4e-4,-2.81936 -0.0989,-5.63784 -0.29791,-8.45017 -0.28228,-3.97319 -0.76309,-7.92978 -1.44064,-11.85493 -0.62776,-3.53416 -1.41449,-7.03823 -2.35779,-10.50154 -20.56165,-7.32804 -45.89823,-4.79548 -63.74906,-1.11372 -6.81835,-11.01918 -16.98234,-19.56874 -29.00647,-24.39915 18.07184,-12.93645 44.49019,-24.02091 67.37307,-22.03241 -1.38409,-1.66502 -2.8132,-3.2921 -4.28573,-4.87944 -2.77498,-2.85712 -5.6911,-5.57368 -8.73745,-8.13949 -3.04611,-2.56581 -6.21862,-4.97769 -9.50565,-7.22659 -3.28724,-2.24885 -6.68489,-4.3319 -10.18022,-6.24135 -3.49538,-1.90963 -7.08407,-3.64325 -10.75264,-5.19438 -3.66896,-1.55092 -7.41319,-2.91736 -11.21867,-4.09421 -1.42662,-0.39262 -2.86041,-0.75869 -4.30063,-1.09804 -14.14688,11.18369 -26.2293,34.57475 -32.8107,54.55552 -12.96018,0.38127 -25.4582,4.90015 -35.665394,12.89544 -2.15922,-22.12637 1.466931,-50.55807 14.646924,-69.38315 z"
         id="path19" />
    </clipPath>
    <linearGradient
       id="linearGradient954">
      <stop
         id="stop950"
         offset="0"
         style="stop-color:#faf8f6" />
      <stop
         id="stop952"
         offset="1"
         style="stop-color:#f1f0e9" />
    </linearGradient>
    <filter
       style="color-interpolation-filters:sRGB"
       id="filter11191"
       width="1.024"
       height="1.024"
       x="-.01"
       y="-.01">
      <feGaussianBlur
         id="feGaussianBlur11193"
         stdDeviation="1.12" />
    </filter>
    <filter
       style="color-interpolation-filters:sRGB"
       id="filter11210"
       width="1.096"
       height="1.096"
       x="-.05"
       y="-.05">
      <feGaussianBlur
         id="feGaussianBlur11212"
         stdDeviation="4.48" />
    </filter>
  </defs>
  <path
     style="opacity:0.1;filter:url(#filter11210)"
     d="M 128.75195 15.248047 A 112 112 0 0 0 16.751953 127.24805 A 112 112 0 0 0 128.75195 239.24805 A 112 112 0 0 0 240.75195 127.24805 A 112 112 0 0 0 128.75195 15.248047 z M 128.75195 98.748047 A 24.5 24.5 0 0 1 153.25195 123.24805 A 24.5 24.5 0 0 1 128.75195 147.74805 A 24.5 24.5 0 0 1 104.25195 123.24805 A 24.5 24.5 0 0 1 128.75195 98.748047 z"
     id="path31" />
  <path
     style="opacity:0.1;filter:url(#filter11191)"
     d="M 128.75195 13.248047 A 112 112 0 0 0 16.751953 125.24805 A 112 112 0 0 0 128.75195 237.24805 A 112 112 0 0 0 240.75195 125.24805 A 112 112 0 0 0 128.75195 13.248047 z M 128.75195 98.748047 A 24.5 24.5 0 0 1 153.25195 123.24805 A 24.5 24.5 0 0 1 128.75195 147.74805 A 24.5 24.5 0 0 1 104.25195 123.24805 A 24.5 24.5 0 0 1 128.75195 98.748047 z"
     id="path33" />
  <path
     style="opacity:0.1"
     d="M 128.75195 9.2480469 A 113.99999 113.99999 0 0 0 14.751953 123.24805 A 113.99999 113.99999 0 0 0 128.75195 237.24805 A 113.99999 113.99999 0 0 0 242.75195 123.24805 A 113.99999 113.99999 0 0 0 128.75195 9.2480469 z M 128.75195 98.748047 A 24.5 24.5 0 0 1 144.53516 104.50977 A 24.5 24.5 0 0 1 146.32812 106.17969 A 24.5 24.5 0 0 1 147.94336 108.01758 A 24.5 24.5 0 0 1 147.94336 108.01953 A 24.5 24.5 0 0 1 150.58594 112.13477 A 24.5 24.5 0 0 1 152.35938 116.69336 A 24.5 24.5 0 0 1 153.19141 121.51562 A 24.5 24.5 0 0 1 153.25195 123.24805 A 24.5 24.5 0 0 1 145.82227 140.82227 A 24.5 24.5 0 0 1 145.82031 140.82422 A 24.5 24.5 0 0 1 128.75195 147.74805 A 24.5 24.5 0 0 1 111.17773 140.31641 A 24.5 24.5 0 0 1 109.56055 138.47656 A 24.5 24.5 0 0 1 105.14453 129.80273 A 24.5 24.5 0 0 1 105.14453 129.80078 A 24.5 24.5 0 0 1 104.25195 123.24805 A 24.5 24.5 0 0 1 104.375 120.80273 A 24.5 24.5 0 0 1 117.63867 101.41406 A 24.5 24.5 0 0 1 121.61914 99.833984 A 24.5 24.5 0 0 1 122.63672 99.542969 A 24.5 24.5 0 0 1 127.01953 98.808594 A 24.5 24.5 0 0 1 128.75195 98.748047 z"
     id="path35" />
  <g
     transform="matrix(1.8690398,0,0,1.8690398,282.83689,-146.33739)"
     style="fill:#538e21"
     id="g41">
    <path
       d="m -82.440666,112.13533 a 32.102043,32.102041 0 0 0 -32.102044,32.10204 32.102043,32.102041 0 0 0 32.102044,32.10204 32.102043,32.102041 0 0 0 32.102039,-32.10204 32.102043,32.102041 0 0 0 -32.102039,-32.10204 z m 0,19.26122 c 7.091984,0 12.840813,5.74884 12.840813,12.84082 0,7.09198 -5.748829,12.84082 -12.840813,12.84082 -7.091985,0 -12.840819,-5.74884 -12.840819,-12.84082 0,-7.09198 5.748834,-12.84082 12.840819,-12.84082 z"
       style="fill:#538e21"
       id="path37" />
    <path
       d="m -82.440666,84.313559 c -33.197794,0 -59.923814,26.726021 -59.923814,59.923811 0,33.19779 26.72602,59.92381 59.923814,59.92381 33.197789,0 59.923818,-26.72602 59.923818,-59.92381 0,-33.19779 -26.726029,-59.923811 -59.923818,-59.923811 z m 0,34.242181 a 25.681636,25.681633 0 0 1 25.681632,25.68163 25.681636,25.681633 0 0 1 -25.681632,25.68164 25.681636,25.681633 0 0 1 -25.681634,-25.68164 25.681636,25.681633 0 0 1 25.681634,-25.68163 z"
       style="fill:#538e21"
       id="path39" />
  </g>
  <g
     transform="matrix(1.8690398,0,0,1.8690398,282.83689,-146.33739)"
     style="fill:#4d4d4d"
     id="g45">
    <path
       style="fill:#4d4d4d"
       d="m -82.440666,112.13533 a 32.102043,32.102041 0 0 0 -32.102044,32.10204 32.102043,32.102041 0 0 0 32.102044,32.10204 32.102043,32.102041 0 0 0 32.102039,-32.10204 32.102043,32.102041 0 0 0 -32.102039,-32.10204 z m 0,19.26122 c 7.091984,0 12.840813,5.74884 12.840813,12.84082 0,7.09198 -5.748829,12.84082 -12.840813,12.84082 -7.091985,0 -12.840819,-5.74884 -12.840819,-12.84082 0,-7.09198 5.748834,-12.84082 12.840819,-12.84082 z"
       id="path43" />
    <path
       style="fill:#ffffff;stroke-width:1.86903977;fill-opacity:1;opacity:0.3"
       d="M 128.75195 63.248047 A 59.999996 59.999992 0 0 0 68.751953 123.24805 A 59.999996 59.999992 0 0 0 68.792969 124.07812 A 59.999996 59.999992 0 0 1 128.75195 65.248047 A 59.999996 59.999992 0 0 1 188.71094 124.41797 A 59.999996 59.999992 0 0 0 188.75195 123.24805 A 59.999996 59.999992 0 0 0 128.75195 63.248047 z M 104.77734 124.24805 C 104.7637 124.58027 104.75195 124.91247 104.75195 125.24805 C 104.75195 138.50324 115.49675 149.24805 128.75195 149.24805 C 142.00715 149.24805 152.75195 138.50324 152.75195 125.24805 C 152.75195 124.91247 152.7402 124.58027 152.72656 124.24805 C 152.20144 137.03863 141.67158 147.24805 128.75195 147.24805 C 115.83233 147.24805 105.30247 137.03863 104.77734 124.24805 z "
       transform="matrix(0.53503409,0,0,0.53503409,-151.32738,78.295492)"
       id="path918" />
    <path
       style="fill:#000000;stroke-width:1.86903977;fill-opacity:1;opacity:0.2"
       d="M 128.75195 97.248047 C 115.49675 97.248047 104.75195 107.99285 104.75195 121.24805 C 104.75195 121.58362 104.7637 121.91582 104.77734 122.24805 C 105.30247 109.45746 115.83233 99.248047 128.75195 99.248047 C 141.67158 99.248047 152.20144 109.45746 152.72656 122.24805 C 152.7402 121.91582 152.75195 121.58362 152.75195 121.24805 C 152.75195 107.99285 142.00715 97.248047 128.75195 97.248047 z M 68.792969 122.07812 A 59.999996 59.999992 0 0 0 68.751953 123.24805 A 59.999996 59.999992 0 0 0 128.75195 183.24805 A 59.999996 59.999992 0 0 0 188.75195 123.24805 A 59.999996 59.999992 0 0 0 188.71094 122.41797 A 59.999996 59.999992 0 0 1 128.75195 181.24805 A 59.999996 59.999992 0 0 1 68.792969 122.07812 z "
       transform="matrix(0.53503409,0,0,0.53503409,-151.32738,78.295492)"
       id="path923" />
  </g>
  <path
     style="fill:#fac7c3"
     d="M 255.11523 110.97461 C 255.11276 110.97503 255.11185 110.97419 255.10938 110.97461 C 255.00146 110.90412 254.93966 110.87102 254.85156 110.81836 C 254.88214 110.86162 254.8442 110.84202 255 111 C 255.50029 111.37273 255.45846 111.30475 255.31055 111.16016 C 255.47872 111.23946 255.4022 111.16775 255.13867 110.99414 C 255.12831 110.98515 255.1257 110.9836 255.11523 110.97461 z"
     id="path47" />
  <g
     id="g57">
    <path
       d="M 209.92383 46.076172 L 173.08008 82.919922 A 59.999996 59.999992 0 0 1 174.64258 84.595703 A 59.999996 59.999992 0 0 1 178.27148 89.369141 A 59.999996 59.999992 0 0 1 181.40625 94.482422 A 59.999996 59.999992 0 0 1 184.01562 99.882812 A 59.999996 59.999992 0 0 1 186.07227 105.51758 A 59.999996 59.999992 0 0 1 187.55664 111.32812 A 59.999996 59.999992 0 0 1 188.45312 117.25781 A 59.999996 59.999992 0 0 1 188.75195 123.24805 A 59.999996 59.999992 0 0 1 188.60156 127.49219 A 59.999996 59.999992 0 0 1 187.87891 133.44531 A 59.999996 59.999992 0 0 1 186.56641 139.29883 A 59.999996 59.999992 0 0 1 184.67383 144.99023 A 59.999996 59.999992 0 0 1 182.22461 150.46289 A 59.999996 59.999992 0 0 1 179.24023 155.66602 A 59.999996 59.999992 0 0 1 175.75195 160.54492 A 59.999996 59.999992 0 0 1 171.79297 165.05078 A 59.999996 59.999992 0 0 1 168.15039 168.44336 L 204.98242 205.27539 C 205.98467 204.34398 207.05218 203.48297 208.01953 202.51562 C 210.55003 199.98513 212.9594 197.33394 215.23828 194.57031 C 217.51716 191.80668 219.667 188.93141 221.67578 185.95312 C 223.68456 182.97484 225.55324 179.89319 227.27344 176.71875 C 228.99363 173.54431 230.56344 170.27595 231.97656 166.92383 C 233.38969 163.5717 234.64485 160.13632 235.73242 156.625 C 236.81999 153.11368 237.74083 149.52703 238.48438 145.875 C 239.22791 142.22297 239.79477 138.50473 240.17578 134.73047 C 240.55679 130.95621 240.75195 127.12605 240.75195 123.24805 C 240.75195 119.37005 240.55679 115.53988 240.17578 111.76562 C 239.79477 107.99138 239.22791 104.27312 238.48438 100.62109 C 237.74084 96.969067 236.81999 93.382414 235.73242 89.871094 C 234.64485 86.359774 233.38969 82.92439 231.97656 79.572266 C 230.56344 76.220141 228.99363 72.951789 227.27344 69.777344 C 225.55324 66.602899 223.68456 63.52125 221.67578 60.542969 C 219.667 57.564688 217.51716 54.689414 215.23828 51.925781 C 213.56052 49.891142 211.73929 47.98577 209.92383 46.076172 z"
       style="fill:#edc911;opacity:0.335"
       id="path49" />
    <path
       d="M 216.72656 53.916016 L 177.72852 88.65625 A 59.999996 59.999992 0 0 1 178.27148 89.369141 A 59.999996 59.999992 0 0 1 181.40625 94.482422 A 59.999996 59.999992 0 0 1 184.01562 99.882812 A 59.999996 59.999992 0 0 1 186.07227 105.51758 A 59.999996 59.999992 0 0 1 187.55664 111.32812 A 59.999996 59.999992 0 0 1 188.45312 117.25781 A 59.999996 59.999992 0 0 1 188.75195 123.24805 A 59.999996 59.999992 0 0 1 188.60156 127.49219 A 59.999996 59.999992 0 0 1 187.87891 133.44531 A 59.999996 59.999992 0 0 1 186.56641 139.29883 A 59.999996 59.999992 0 0 1 184.67383 144.99023 A 59.999996 59.999992 0 0 1 182.22461 150.46289 A 59.999996 59.999992 0 0 1 179.24023 155.66602 A 59.999996 59.999992 0 0 1 175.75195 160.54492 A 59.999996 59.999992 0 0 1 173.5625 163.03711 C 181.1504 169.55414 198.04627 183.89061 213.24609 196.76172 C 213.89446 196.01651 214.60957 195.33276 215.23828 194.57031 C 217.51716 191.80668 219.667 188.93141 221.67578 185.95312 C 223.68456 182.97484 225.55324 179.89319 227.27344 176.71875 C 228.99363 173.54431 230.56344 170.27595 231.97656 166.92383 C 233.38969 163.5717 234.64485 160.13632 235.73242 156.625 C 236.81999 153.11368 237.74083 149.52703 238.48438 145.875 C 239.22791 142.22297 239.79477 138.50473 240.17578 134.73047 C 240.55679 130.95621 240.75195 127.12605 240.75195 123.24805 C 240.75195 119.37005 240.55679 115.53988 240.17578 111.76562 C 239.79477 107.99138 239.22791 104.27312 238.48438 100.62109 C 237.74084 96.969067 236.81999 93.382414 235.73242 89.871094 C 234.64485 86.359774 233.38969 82.92439 231.97656 79.572266 C 230.56344 76.220141 228.99363 72.951789 227.27344 69.777344 C 225.55324 66.602899 223.68456 63.52125 221.67578 60.542969 C 220.13111 58.252798 218.4322 56.080528 216.72656 53.916016 z"
       style="fill:#e37d0a;opacity:0.335"
       id="path51" />
    <path
       d="M 180.14258 154.09375 C 190.83188 161.57946 208.03266 174.0529 222.49609 184.60156 C 224.17569 182.03383 225.8051 179.42842 227.27344 176.71875 C 228.99363 173.54431 230.56344 170.27595 231.97656 166.92383 C 233.38969 163.5717 234.64485 160.13632 235.73242 156.625 C 236.81999 153.11368 237.74083 149.52703 238.48438 145.875 C 239.22791 142.22297 239.79477 138.50473 240.17578 134.73047 C 240.55679 130.95621 240.75195 127.12605 240.75195 123.24805 C 240.75195 119.37005 240.55679 115.53988 240.17578 111.76562 C 239.79477 107.99138 239.22791 104.27312 238.48438 100.62109 C 237.74084 96.969067 236.81999 93.382414 235.73242 89.871094 C 234.64485 86.359774 233.38969 82.92439 231.97656 79.572266 C 230.64603 76.41607 229.15206 73.348768 227.54883 70.349609 L 183.38477 98.578125 A 59.999996 59.999992 0 0 1 184.01562 99.882812 A 59.999996 59.999992 0 0 1 186.07227 105.51758 A 59.999996 59.999992 0 0 1 187.55664 111.32812 A 59.999996 59.999992 0 0 1 188.45312 117.25781 A 59.999996 59.999992 0 0 1 188.75195 123.24805 A 59.999996 59.999992 0 0 1 188.60156 127.49219 A 59.999996 59.999992 0 0 1 187.87891 133.44531 A 59.999996 59.999992 0 0 1 186.56641 139.29883 A 59.999996 59.999992 0 0 1 184.67383 144.99023 A 59.999996 59.999992 0 0 1 182.22461 150.46289 A 59.999996 59.999992 0 0 1 180.14258 154.09375 z"
       style="fill:#e02313;opacity:0.335"
       id="path53" />
    <path
       d="M 185.45703 142.63477 L 233.90234 161.64453 C 234.51085 159.9699 235.20237 158.33632 235.73242 156.625 C 236.81999 153.11368 237.74083 149.52703 238.48438 145.875 C 239.22791 142.22297 239.79477 138.50473 240.17578 134.73047 C 240.55679 130.95621 240.75195 127.12605 240.75195 123.24805 C 240.75195 119.37005 240.55679 115.53988 240.17578 111.76562 C 239.79477 107.99138 239.22791 104.27312 238.48438 100.62109 C 238.01305 98.306093 237.35116 96.066464 236.74023 93.806641 L 187.36523 110.58008 A 59.999996 59.999992 0 0 1 187.55664 111.32812 A 59.999996 59.999992 0 0 1 188.45312 117.25781 A 59.999996 59.999992 0 0 1 188.75195 123.24805 A 59.999996 59.999992 0 0 1 188.60156 127.49219 A 59.999996 59.999992 0 0 1 187.87891 133.44531 A 59.999996 59.999992 0 0 1 186.56641 139.29883 A 59.999996 59.999992 0 0 1 185.45703 142.63477 z"
       style="fill:#910c01;opacity:0.335"
       id="path55" />
  </g>
  <g
     transform="matrix(-1,0,0,1,257.50395,0)"
     id="g67">
    <path
       style="opacity:0.33500001;fill:#edc911"
       d="m 209.92383,46.076172 -36.84375,36.84375 a 59.999996,59.999992 0 0 1 1.5625,1.675781 59.999996,59.999992 0 0 1 3.6289,4.773438 59.999996,59.999992 0 0 1 3.13477,5.113281 59.999996,59.999992 0 0 1 2.60937,5.40039 59.999996,59.999992 0 0 1 2.05665,5.634768 59.999996,59.999992 0 0 1 1.48437,5.81054 59.999996,59.999992 0 0 1 0.89648,5.92969 59.999996,59.999992 0 0 1 0.29883,5.99024 59.999996,59.999992 0 0 1 -0.15039,4.24414 59.999996,59.999992 0 0 1 -0.72265,5.95312 59.999996,59.999992 0 0 1 -1.3125,5.85352 59.999996,59.999992 0 0 1 -1.89258,5.6914 59.999996,59.999992 0 0 1 -2.44922,5.47266 59.999996,59.999992 0 0 1 -2.98438,5.20313 59.999996,59.999992 0 0 1 -3.48828,4.8789 59.999996,59.999992 0 0 1 -3.95898,4.50586 59.999996,59.999992 0 0 1 -3.64258,3.39258 l 36.83203,36.83203 c 1.00225,-0.93141 2.06976,-1.79242 3.03711,-2.75977 2.5305,-2.53049 4.93987,-5.18168 7.21875,-7.94531 2.27888,-2.76363 4.42872,-5.6389 6.4375,-8.61719 2.00878,-2.97828 3.87746,-6.05993 5.59766,-9.23437 1.72019,-3.17444 3.29,-6.4428 4.70312,-9.79492 1.41313,-3.35213 2.66829,-6.78751 3.75586,-10.29883 1.08757,-3.51132 2.00841,-7.09797 2.75196,-10.75 0.74353,-3.65203 1.31039,-7.37027 1.6914,-11.14453 0.38101,-3.77426 0.57617,-7.60442 0.57617,-11.48242 0,-3.878 -0.19516,-7.70817 -0.57617,-11.48243 -0.38101,-3.77424 -0.94787,-7.4925 -1.6914,-11.14453 -0.74354,-3.652023 -1.66439,-7.238676 -2.75196,-10.749996 -1.08757,-3.51132 -2.34273,-6.946704 -3.75586,-10.298828 -1.41312,-3.352125 -2.98293,-6.620477 -4.70312,-9.794922 -1.7202,-3.174445 -3.58888,-6.256094 -5.59766,-9.234375 -2.00878,-2.978281 -4.15862,-5.853555 -6.4375,-8.617188 -1.67776,-2.034639 -3.49899,-3.940011 -5.31445,-5.849609 z"
       id="path59" />
    <path
       style="opacity:0.33500001;fill:#e37d0a"
       d="M 216.72656,53.916016 177.72852,88.65625 a 59.999996,59.999992 0 0 1 0.54296,0.712891 59.999996,59.999992 0 0 1 3.13477,5.113281 59.999996,59.999992 0 0 1 2.60937,5.40039 59.999996,59.999992 0 0 1 2.05665,5.634768 59.999996,59.999992 0 0 1 1.48437,5.81054 59.999996,59.999992 0 0 1 0.89648,5.92969 59.999996,59.999992 0 0 1 0.29883,5.99024 59.999996,59.999992 0 0 1 -0.15039,4.24414 59.999996,59.999992 0 0 1 -0.72265,5.95312 59.999996,59.999992 0 0 1 -1.3125,5.85352 59.999996,59.999992 0 0 1 -1.89258,5.6914 59.999996,59.999992 0 0 1 -2.44922,5.47266 59.999996,59.999992 0 0 1 -2.98438,5.20313 59.999996,59.999992 0 0 1 -3.48828,4.8789 59.999996,59.999992 0 0 1 -2.18945,2.49219 c 7.5879,6.51703 24.48377,20.8535 39.68359,33.72461 0.64837,-0.74521 1.36348,-1.42896 1.99219,-2.19141 2.27888,-2.76363 4.42872,-5.6389 6.4375,-8.61719 2.00878,-2.97828 3.87746,-6.05993 5.59766,-9.23437 1.72019,-3.17444 3.29,-6.4428 4.70312,-9.79492 1.41313,-3.35213 2.66829,-6.78751 3.75586,-10.29883 1.08757,-3.51132 2.00841,-7.09797 2.75196,-10.75 0.74353,-3.65203 1.31039,-7.37027 1.6914,-11.14453 0.38101,-3.77426 0.57617,-7.60442 0.57617,-11.48242 0,-3.878 -0.19516,-7.70817 -0.57617,-11.48243 -0.38101,-3.77424 -0.94787,-7.4925 -1.6914,-11.14453 -0.74354,-3.652023 -1.66439,-7.238676 -2.75196,-10.749996 -1.08757,-3.51132 -2.34273,-6.946704 -3.75586,-10.298828 -1.41312,-3.352125 -2.98293,-6.620477 -4.70312,-9.794922 -1.7202,-3.174445 -3.58888,-6.256094 -5.59766,-9.234375 -1.54467,-2.290171 -3.24358,-4.462441 -4.94922,-6.626953 z"
       id="path61" />
    <path
       style="opacity:0.33500001;fill:#e02313"
       d="m 180.14258,154.09375 c 10.6893,7.48571 27.89008,19.95915 42.35351,30.50781 1.6796,-2.56773 3.30901,-5.17314 4.77735,-7.88281 1.72019,-3.17444 3.29,-6.4428 4.70312,-9.79492 1.41313,-3.35213 2.66829,-6.78751 3.75586,-10.29883 1.08757,-3.51132 2.00841,-7.09797 2.75196,-10.75 0.74353,-3.65203 1.31039,-7.37027 1.6914,-11.14453 0.38101,-3.77426 0.57617,-7.60442 0.57617,-11.48242 0,-3.878 -0.19516,-7.70817 -0.57617,-11.48243 -0.38101,-3.77424 -0.94787,-7.4925 -1.6914,-11.14453 -0.74354,-3.652023 -1.66439,-7.238676 -2.75196,-10.749996 -1.08757,-3.51132 -2.34273,-6.946704 -3.75586,-10.298828 -1.33053,-3.156196 -2.8245,-6.223498 -4.42773,-9.222657 l -44.16406,28.228516 a 59.999996,59.999992 0 0 1 0.63085,1.304687 59.999996,59.999992 0 0 1 2.05665,5.634768 59.999996,59.999992 0 0 1 1.48437,5.81054 59.999996,59.999992 0 0 1 0.89648,5.92969 59.999996,59.999992 0 0 1 0.29883,5.99024 59.999996,59.999992 0 0 1 -0.15039,4.24414 59.999996,59.999992 0 0 1 -0.72265,5.95312 59.999996,59.999992 0 0 1 -1.3125,5.85352 59.999996,59.999992 0 0 1 -1.89258,5.6914 59.999996,59.999992 0 0 1 -2.44922,5.47266 59.999996,59.999992 0 0 1 -2.08203,3.63086 z"
       id="path63" />
    <path
       style="opacity:0.33500001;fill:#910c01"
       d="m 185.45703,142.63477 48.44531,19.00976 c 0.60851,-1.67463 1.30003,-3.30821 1.83008,-5.01953 1.08757,-3.51132 2.00841,-7.09797 2.75196,-10.75 0.74353,-3.65203 1.31039,-7.37027 1.6914,-11.14453 0.38101,-3.77426 0.57617,-7.60442 0.57617,-11.48242 0,-3.878 -0.19516,-7.70817 -0.57617,-11.48243 -0.38101,-3.77424 -0.94787,-7.4925 -1.6914,-11.14453 -0.47133,-2.314997 -1.13322,-4.554626 -1.74415,-6.814449 l -49.375,16.773439 a 59.999996,59.999992 0 0 1 0.19141,0.74804 59.999996,59.999992 0 0 1 0.89648,5.92969 59.999996,59.999992 0 0 1 0.29883,5.99024 59.999996,59.999992 0 0 1 -0.15039,4.24414 59.999996,59.999992 0 0 1 -0.72265,5.95312 59.999996,59.999992 0 0 1 -1.3125,5.85352 59.999996,59.999992 0 0 1 -1.10938,3.33594 z"
       id="path65" />
  </g>
  <path
     style="opacity:0.3;fill:#ffffff"
     d="M 128.752,11.248007 A 112,112 0 0 0 16.752,123.248 112,112 0 0 0 16.79302,124.41792 112,112 0 0 1 128.752,13.248007 112,112 0 0 1 240.71098,124.07808 a 112,112 0 0 0 0.041,-0.83008 112,112 0 0 0 -112,-111.999993 z"
     id="path69" />
  <path
     style="opacity:0.2"
     d="m 128.752,235.248 a 112,112 0 0 1 -112,-112 112,112 0 0 1 0.04102,-1.16992 A 112,112 0 0 0 128.752,233.248 112,112 0 0 0 240.71098,122.41792 a 112,112 0 0 1 0.041,0.83008 112,112 0 0 1 -112,112 z"
     id="path71" />
  <path
     d="m 189.99997,119.94739 a 59.999996,59.999996 0 0 0 -60,60 59.999996,59.999996 0 0 0 60,60 59.999996,59.999996 0 0 0 60,-60 59.999996,59.999996 0 0 0 -60,-60 z m 0,47.10526 a 12.894737,12.894737 0 0 1 8.30696,3.03249 12.894737,12.894737 0 0 1 0.94366,0.8789 12.894737,12.894737 0 0 1 0.85012,0.96731 12.894737,12.894737 0 0 1 0,0.001 12.894737,12.894737 0 0 1 1.39084,2.16591 12.894737,12.894737 0 0 1 0.93339,2.39926 12.894737,12.894737 0 0 1 0.43791,2.53803 12.894737,12.894737 0 0 1 0.0319,0.91181 12.894737,12.894737 0 0 1 -3.91036,9.24959 12.894737,12.894737 0 0 1 -0.001,0.001 12.894737,12.894737 0 0 1 -8.98335,3.64412 12.894737,12.894737 0 0 1 -9.24959,-3.91139 12.894737,12.894737 0 0 1 -0.85115,-0.96835 12.894737,12.894737 0 0 1 -2.32422,-4.56517 12.894737,12.894737 0 0 1 0,-0.001 12.894737,12.894737 0 0 1 -0.46978,-3.4488 12.894737,12.894737 0 0 1 0.0648,-1.28701 12.894737,12.894737 0 0 1 6.98088,-10.20456 12.894737,12.894737 0 0 1 2.09499,-0.83162 12.894737,12.894737 0 0 1 0.53557,-0.15317 12.894737,12.894737 0 0 1 2.30674,-0.38651 12.894737,12.894737 0 0 1 0.9118,-0.0319 z"
     style="opacity:0.1"
     id="path73" />
  <g
     style="fill:#538e21"
     transform="matrix(0.98370517,0,0,0.98370517,271.09731,38.060314)"
     id="g81">
    <path
       style="fill:#538e21"
       d="m -82.440666,112.13533 a 32.102043,32.102041 0 0 0 -32.102044,32.10204 32.102043,32.102041 0 0 0 32.102044,32.10204 32.102043,32.102041 0 0 0 32.102039,-32.10204 32.102043,32.102041 0 0 0 -32.102039,-32.10204 z m 0,19.26122 c 7.091984,0 12.840813,5.74884 12.840813,12.84082 0,7.09198 -5.748829,12.84082 -12.840813,12.84082 -7.091985,0 -12.840819,-5.74884 -12.840819,-12.84082 0,-7.09198 5.748834,-12.84082 12.840819,-12.84082 z"
       id="path75" />
    <path
       style="fill:#538e21"
       d="m -82.440666,84.313559 c -33.197794,0 -59.923814,26.726021 -59.923814,59.923811 0,33.19779 26.72602,59.92381 59.923814,59.92381 33.197789,0 59.923818,-26.72602 59.923818,-59.92381 0,-33.19779 -26.726029,-59.923811 -59.923818,-59.923811 z m 0,34.242181 a 25.681636,25.681633 0 0 1 25.681632,25.68163 25.681636,25.681633 0 0 1 -25.681632,25.68164 25.681636,25.681633 0 0 1 -25.681634,-25.68164 25.681636,25.681633 0 0 1 25.681634,-25.68163 z"
       id="path77" />
    <path
       d="m -82.440666,84.313559 c -33.197794,0 -59.923814,26.726021 -59.923814,59.923811 0,33.19779 26.72602,59.92381 59.923814,59.92381 33.197789,0 59.923818,-26.72602 59.923818,-59.92381 0,-33.19779 -26.726029,-59.923811 -59.923818,-59.923811 z m 0,34.242181 a 25.681636,25.681633 0 0 1 25.681632,25.68163 25.681636,25.681633 0 0 1 -25.681632,25.68164 25.681636,25.681633 0 0 1 -25.681634,-25.68164 25.681636,25.681633 0 0 1 25.681634,-25.68163 z"
       style="fill:#266666"
       id="path79" />
  </g>
  <g
     style="fill:#4d4d4d"
     transform="matrix(0.98370517,0,0,0.98370517,271.09731,38.060314)"
     id="g85">
    <path
       d="m -82.440666,112.13533 a 32.102043,32.102041 0 0 0 -32.102044,32.10204 32.102043,32.102041 0 0 0 32.102044,32.10204 32.102043,32.102041 0 0 0 32.102039,-32.10204 32.102043,32.102041 0 0 0 -32.102039,-32.10204 z m 0,19.26122 c 7.091984,0 12.840813,5.74884 12.840813,12.84082 0,7.09198 -5.748829,12.84082 -12.840813,12.84082 -7.091985,0 -12.840819,-5.74884 -12.840819,-12.84082 0,-7.09198 5.748834,-12.84082 12.840819,-12.84082 z"
       style="fill:#4d4d4d"
       id="path83" />
  </g>
  <g
     transform="matrix(-0.5263158,0,0,0.5263158,257.76418,115.07999)"
     id="g101">
    <g
       style="fill:#ffffff;opacity:0.5"
       id="g93">
      <g
         transform="matrix(-1,0,0,1,257.50394,0)"
         style="enable-background:new;fill:#ffffff"
         id="g89">
        <path
           d="m 180.14258,154.09375 c 10.6893,7.48571 27.89008,19.95915 42.35351,30.50781 1.6796,-2.56773 3.30901,-5.17314 4.77735,-7.88281 1.72019,-3.17444 3.29,-6.4428 4.70312,-9.79492 1.41313,-3.35213 2.66829,-6.78751 3.75586,-10.29883 1.08757,-3.51132 2.00841,-7.09797 2.75196,-10.75 0.74353,-3.65203 1.31039,-7.37027 1.6914,-11.14453 0.38101,-3.77426 0.57617,-7.60442 0.57617,-11.48242 0,-3.878 -0.19516,-7.70817 -0.57617,-11.48243 -0.38101,-3.77424 -0.94787,-7.4925 -1.6914,-11.14453 -0.74354,-3.652023 -1.66439,-7.238676 -2.75196,-10.749996 -1.08757,-3.51132 -2.34273,-6.946704 -3.75586,-10.298828 -1.33053,-3.156196 -2.8245,-6.223498 -4.42773,-9.222657 l -44.16406,28.228516 a 59.999996,59.999992 0 0 1 0.63085,1.304687 59.999996,59.999992 0 0 1 2.05665,5.634768 59.999996,59.999992 0 0 1 1.48437,5.81054 59.999996,59.999992 0 0 1 0.89648,5.92969 59.999996,59.999992 0 0 1 0.29883,5.99024 59.999996,59.999992 0 0 1 -0.15039,4.24414 59.999996,59.999992 0 0 1 -0.72265,5.95312 59.999996,59.999992 0 0 1 -1.3125,5.85352 59.999996,59.999992 0 0 1 -1.89258,5.6914 59.999996,59.999992 0 0 1 -2.44922,5.47266 59.999996,59.999992 0 0 1 -2.08203,3.63086 z"
           style="opacity:0.33500001;fill:#ffffff"
           id="path87" />
      </g>
      <path
         style="opacity:0.33500001;fill:#ffffff"
         d="m 180.14258,154.09375 c 10.6893,7.48571 27.89008,19.95915 42.35351,30.50781 1.6796,-2.56773 3.30901,-5.17314 4.77735,-7.88281 1.72019,-3.17444 3.29,-6.4428 4.70312,-9.79492 1.41313,-3.35213 2.66829,-6.78751 3.75586,-10.29883 1.08757,-3.51132 2.00841,-7.09797 2.75196,-10.75 0.74353,-3.65203 1.31039,-7.37027 1.6914,-11.14453 0.38101,-3.77426 0.57617,-7.60442 0.57617,-11.48242 0,-3.878 -0.19516,-7.70817 -0.57617,-11.48243 -0.38101,-3.77424 -0.94787,-7.4925 -1.6914,-11.14453 -0.74354,-3.652023 -1.66439,-7.238676 -2.75196,-10.749996 -1.08757,-3.51132 -2.34273,-6.946704 -3.75586,-10.298828 -1.33053,-3.156196 -2.8245,-6.223498 -4.42773,-9.222657 l -44.16406,28.228516 a 59.999996,59.999992 0 0 1 0.63085,1.304687 59.999996,59.999992 0 0 1 2.05665,5.634768 59.999996,59.999992 0 0 1 1.48437,5.81054 59.999996,59.999992 0 0 1 0.89648,5.92969 59.999996,59.999992 0 0 1 0.29883,5.99024 59.999996,59.999992 0 0 1 -0.15039,4.24414 59.999996,59.999992 0 0 1 -0.72265,5.95312 59.999996,59.999992 0 0 1 -1.3125,5.85352 59.999996,59.999992 0 0 1 -1.89258,5.6914 59.999996,59.999992 0 0 1 -2.44922,5.47266 59.999996,59.999992 0 0 1 -2.08203,3.63086 z"
         id="path91" />
    </g>
    <g
       transform="rotate(-90,126.51316,125.48681)"
       style="fill:#ffffff;opacity:0.75"
       id="g99">
      <path
         style="opacity:0.33500001;fill:#ffffff"
         d="M 181.90625 210.45508 L 172.29688 236.20508 C 172.34331 236.21959 172.3871 236.23951 172.43359 236.25391 C 174.28166 236.82631 176.16968 237.30984 178.0918 237.70117 C 180.01392 238.0925 181.97058 238.39127 183.95703 238.5918 C 185.94348 238.79233 187.95895 238.89453 190 238.89453 C 192.04105 238.89453 194.05652 238.79233 196.04297 238.5918 C 198.02942 238.39127 199.98608 238.0925 201.9082 237.70117 C 203.83032 237.30984 205.71834 236.82631 207.56641 236.25391 C 207.59569 236.24484 207.62308 236.23177 207.65234 236.22266 L 198.47266 210.33398 A 31.578946 31.578944 0 0 1 196.27344 210.89648 A 31.578946 31.578944 0 0 1 193.15234 211.36914 A 31.578946 31.578944 0 0 1 190 211.52539 A 31.578946 31.578944 0 0 1 187.76562 211.44727 A 31.578946 31.578944 0 0 1 184.63281 211.06641 A 31.578946 31.578944 0 0 1 181.90625 210.45508 z"
         transform="matrix(0,-1.9,-1.9,0,470.65195,488.72558)"
         id="path95" />
      <path
         style="opacity:0.33500001;fill:#ffffff"
         d="M 190 121 C 187.95895 121 185.94348 121.1022 183.95703 121.30273 C 181.97058 121.50326 180.01392 121.80203 178.0918 122.19336 C 176.16968 122.58469 174.28166 123.06822 172.43359 123.64062 C 172.37561 123.65859 172.32157 123.68499 172.26367 123.70312 L 181.91211 149.46094 A 31.578946 31.578944 0 0 1 183.72656 148.99805 A 31.578946 31.578944 0 0 1 186.84766 148.52539 A 31.578946 31.578944 0 0 1 190 148.36914 A 31.578946 31.578944 0 0 1 192.23438 148.44727 A 31.578946 31.578944 0 0 1 195.36719 148.82812 A 31.578946 31.578944 0 0 1 198.44727 149.51953 A 31.578946 31.578944 0 0 1 198.875 149.66211 C 198.91651 149.52373 199.00448 149.09268 199.02344 149.09766 L 207.66016 123.67383 C 207.62833 123.66391 207.59825 123.6505 207.56641 123.64062 C 205.71834 123.06822 203.83032 122.58469 201.9082 122.19336 C 199.98608 121.80203 198.02942 121.50326 196.04297 121.30273 C 194.05652 121.1022 192.04105 121 190 121 z"
         transform="matrix(0,-1.9,-1.9,0,470.65195,488.72558)"
         id="path97" />
    </g>
  </g>
  <path
     d="m 190,121 a 58.947369,58.947369 0 0 0 -58.94737,58.94736 58.947369,58.947369 0 0 0 0.0216,0.61575 A 58.947369,58.947369 0 0 1 190,122.05263 a 58.947369,58.947369 0 0 1 58.92578,58.33162 58.947369,58.947369 0 0 0 0.0216,-0.43689 A 58.947369,58.947369 0 0 0 190.00001,121 Z"
     style="opacity:0.3;fill:#ffffff"
     id="path103" />
  <path
     d="m 190,238.89473 a 58.947369,58.947369 0 0 1 -58.94737,-58.94737 58.947369,58.947369 0 0 1 0.0216,-0.61574 A 58.947369,58.947369 0 0 0 190,237.8421 a 58.947369,58.947369 0 0 0 58.92578,-58.33162 58.947369,58.947369 0 0 1 0.0216,0.43688 58.947369,58.947369 0 0 1 -58.94737,58.94737 z"
     style="opacity:0.2"
     id="path105" />
  <g
     id="g960"
     transform="matrix(0.98370517,0,0,0.98370517,271.09801,38.060667)"
     style="fill:#ffffff;fill-opacity:1;opacity:0.3">
    <path
       style="fill:#ffffff;fill-opacity:1;stroke-width:0.98370516"
       d="m 297.61133,30.945312 a 31.578946,31.578944 0 0 0 -31.57813,31.580079 31.578946,31.578944 0 0 0 0.041,0.820312 31.578946,31.578944 0 0 1 31.53711,-30.400391 31.578946,31.578944 0 0 1 31.53906,30.746094 31.578946,31.578944 0 0 0 0.041,-1.166015 31.578946,31.578944 0 0 0 -31.58008,-31.580079 z m -12.58008,32.580079 c -0.0259,0.330579 -0.0508,0.662755 -0.0508,1 0,6.976417 5.65444,12.630859 12.63086,12.630859 6.97642,0 12.63281,-5.654442 12.63281,-12.630859 0,-0.337219 -0.0248,-0.669445 -0.0508,-1 -0.51136,6.507294 -5.94334,11.630859 -12.58203,11.630859 -6.63867,0 -12.06868,-5.123601 -12.58008,-11.630859 z"
       transform="matrix(1.0165647,0,0,1.0165647,-384.98251,80.677059)"
       id="path958"
       inkscape:connector-curvature="0" />
  </g>
  <g
     style="fill:#4d4d4d"
     transform="matrix(0.98370517,0,0,0.98370517,378.70929,-77.36244)"
     id="g964" />
  <g
     id="g968"
     transform="matrix(0.98370517,0,0,0.98370517,380.3529,39.46591)"
     style="fill:#080000;fill-opacity:1;opacity:0.2">
    <path
       style="fill:#080000;fill-opacity:1;stroke-width:0.99999994"
       d="m -193.39345,128.01235 c -7.09199,0 -12.84009,5.75008 -12.84009,12.84207 0,0.34335 0.0252,0.68001 0.0516,1.01656 0.51987,-6.61505 6.03983,-11.8255 12.78847,-11.8255 6.74865,0 12.27061,5.21042 12.79044,11.8255 0.0265,-0.33652 0.0516,-0.67324 0.0516,-1.01656 0,-7.09199 -5.75009,-12.84207 -12.84207,-12.84207 z m -32.05952,13.67596 a 32.102042,32.10204 0 0 0 -0.0417,1.19923 32.102042,32.10204 0 0 0 32.10121,32.10122 32.102042,32.10204 0 0 0 32.10319,-32.10122 32.102042,32.10204 0 0 0 -0.0417,-0.84779 32.102042,32.10204 0 0 1 -32.06149,30.91588 32.102042,32.10204 0 0 1 -32.05952,-31.26732 z"
       id="path966"
       inkscape:connector-curvature="0" />
  </g>
</svg>
