<svg enable-background="new" height="256" viewBox="0 0 256 256" width="256" xmlns="http://www.w3.org/2000/svg" xmlns:xlink="http://www.w3.org/1999/xlink">
  <filter id="filter11191" color-interpolation-filters="sRGB" height="1.024" width="1.024" x="-.01" y="-.01">
    <feGaussianBlur stdDeviation="1.12"/>
  </filter>
  <filter id="filter11210" color-interpolation-filters="sRGB" height="1.096" width="1.096" x="-.05" y="-.05">
    <feGaussianBlur stdDeviation="4.48"/>
  </filter>
  <circle cx="128.752" cy="127.248" filter="url(#filter11210)" opacity=".1" r="112"/>
  <circle cx="128.752" cy="125.248" filter="url(#filter11191)" opacity=".1" r="112"/>
  <circle cx="128.752" cy="123.248" opacity=".1" r="114"/>
  <rect fill="#d5d3cf" height="212.8" rx="104.533" width="209.067" x="24.18" y="19.55"/>
  <path d="m240.752 123.248a112 112 0 0 1 -111.99997 111.99999 112 112 0 0 1 -112.000031-111.99999 112 112 0 0 1 112.000031-112.000004 112 112 0 0 1 111.99997 112.000004z" fill="#fb7c38"/>
  <path d="m128.752 11.248007a112 112 0 0 0 -112 111.999993 112 112 0 0 0 .04102 1.16992 112 112 0 0 1 111.95898-111.169913 112 112 0 0 1 111.95898 110.830073 112 112 0 0 0 .041-.83008 112 112 0 0 0 -112-111.999993z" fill="#fff" opacity=".3"/>
  <path d="m128.752 235.248a112 112 0 0 1 -112-112 112 112 0 0 1 .04102-1.16992 112 112 0 0 0 111.95898 111.16992 112 112 0 0 0 111.95898-110.83008 112 112 0 0 1 .041.83008 112 112 0 0 1 -112 112z" opacity=".2"/>
  <g transform="translate(-1.906138 4.350976)">
    <g fill-rule="evenodd">
      <path d="m67.521484 13.425781c-3.116073.05372-6.839864 1.355459-9.267578 6.347657-4.75001 9.767633 4.22461 16.128906 4.22461 16.128906 2.230022-7.974193 5.522365-15.53327 10.667968-21.335938 0 0-2.508927-1.194344-5.625-1.140625zm13.509766 4.400391c-4.736941 2.284044-11.213657 12.130047-10.943359 20.789062 4.626508 2.367457 9.387244 5.205789 2.736328 25.712891-6.731133 20.754453-10.271379 18.514048-14.498047 18.328125-3.17854 4.22695-4.380352 20.82269-1.09375 23.52344 0 0 20.090055 9.86098 32.003906-39.115237 11.851022-48.717913-8.205078-49.238281-8.205078-49.238281zm-31.615234 63.078125c-3.346841-.04914-9.989963 1.122226-9.587891 11.279297.536409 13.550746 9.992187 12.699216 9.992187 12.699216-2.719886-8.950313-2.231639-16.88538 1.460938-23.808591 0 0-.749621-.153541-1.865234-.169922z" fill="#d64310" transform="matrix(1.86666661792 0 0 1.86666653553 .46082281135 6.50837177042)"/>
      <path d="m88.424425 76.618547c-.51119-.139944-1.07733-.07006-1.52931.15805-.45197.227978-.80289.576431-1.10906.982672-1.22463 1.624959-1.97919 4.39961-2.79319 7.734999-.814 3.335373-1.601 7.186929-2.5183 10.673536-.9173 3.48661-1.99565 6.614616-3.21345 8.379576-1.29293 1.87387-2.14304 2.33884-2.53725 2.39507-.3942.0563-.74328-.18377-1.35867-.60351-.3077-.20987-.66074-.45713-1.15647-.5877-.49571-.13056-1.14899-.0579-1.67149.27173-1.045.6592-1.79969 1.9636-2.8943 4.60055-2.29315 5.52427-2.46486 15.40035-3.00491 23.45778-.27001 4.02872-.63155 7.60066-1.26704 9.73512-.31774 1.06721-.73544 1.72784-.98584 1.91479-.12525.0935-.1777.10845-.30333.10117-.12563-.006-.34929-.0702-.6667-.27806-.53551-.35082-1.32565-1.40099-2.07909-2.98276-.75345-1.58182-1.51266-3.67228-2.26552-6.08564-1.50573-4.82671-2.98838-10.94628-4.48366-17.04669-1.49525-6.10044-3.00408-12.18007-4.59106-16.98668-.79349-2.4033-1.60228-4.486546-2.46458-6.120366-.86233-1.63383-1.74102-2.86515-2.96067-3.447261-1.13969-.543946-2.45104-.304126-3.32403.477111-.87298.78124-1.47119 1.94941-2.00011 3.40301-1.05782 2.90723-1.76152 7.034146-2.3287 11.567736-1.1344 9.06723-1.70373 19.80425-2.79321 24.49102a.93342722.93342722 0 1 0 1.81685.42025c1.19476-5.13972 1.70691-15.72008 2.82796-24.6806.56052-4.48026 1.27909-8.54467 2.23076-11.160126.47583-1.30774 1.02806-2.23323 1.49139-2.64785.46331-.41463.67426-.47388 1.27652-.18644.52229.24929 1.33019 1.15324 2.1107 2.63206.7805 1.47881 1.56941 3.488366 2.34451 5.835996 1.55021 4.69524 3.05564 10.75086 4.55 16.84764 1.49436 6.09677 2.97978 12.23523 4.51524 17.15729.76774 2.46103 1.54609 4.61606 2.36348 6.33209.81738 1.71603 1.62902 3.01366 2.73947 3.7411.5056.33122 1.03097.54661 1.58302.57824.55205.0315 1.10529-.1512 1.52931-.46764.84802-.63314 1.28984-1.6391 1.65885-2.87851.73802-2.47882 1.06444-6.08265 1.33657-10.14272.54424-8.12013.88067-18.07691 2.86903-22.86689 1.04613-2.52017 1.87284-3.54889 2.16757-3.73481.14728-.093.10397-.0717.19591-.0474.0918.0241.3051.13701.58137.32545.55255.37688 1.44194 1.08562 2.67312.91 1.2312-.17565 2.3915-1.12507 3.81063-3.18184 1.49427-2.16567 2.54576-5.40864 3.48203-8.967296.93625-3.55866 1.72657-7.422167 2.52777-10.705139.80121-3.282957 1.6985-6.030737 2.4709-7.055647.19311-.256239.36279-.391098.45816-.43921.0954-.04805.10192-.04788.1959-.02216.18788.05145.77956.477197 1.4756 1.605143 1.33545 2.164183 2.45993 6.60804 3.3335 12.114374.87358 5.506329 1.55133 12.106975 2.24657 18.794015.69522 6.68706 1.40877 13.46119 2.3603 19.35013.95154 5.88898 2.11091 10.87413 3.851695 14.11765.85219 1.58779 1.61876 2.61239 2.54358 3.18183.92484.56948 2.11738.43254 2.88799-.17379 1.54125-1.21264 2.36063-3.59105 3.32403-6.32574.96341-2.73472 1.92321-5.8208 3.02385-8.18369.55031-1.18145 1.13833-2.1753 1.72521-2.83742.58688-.66215 1.11642-.96279 1.64306-.99848 1.27191-.0862 2.36492.67179 3.47254 2.10436 1.10761 1.43258 2.10305 3.45914 3.01752 5.43473.91448 1.97559 1.73253 3.88528 2.67946 5.22303.47346.66886.9819 1.23644 1.72203 1.51666.74015.28021 1.66451.0631 2.32242-.49924 1.19877-1.02452 1.78007-2.51669 2.05697-4.24666s.27479-3.75473.23697-6.08879c-.0756-4.66814-.31853-10.57459.91316-17.51433 1.27398-7.17784 1.34573-16.150966 1.95272-22.424556.30348-3.136791.81228-5.629204 1.40924-6.619608.29846-.495218.42939-.544479.64142-.53715.21204.008.76798.227378 1.53877.985825 1.40987 1.387277 3.09165 5.140828 4.6606 9.991043 1.56895 4.850216 3.1223 10.822556 4.7143 16.863436 1.59201 6.04087 3.22495 12.1509 4.97025 17.3121 1.74529 5.16122 3.54549 9.36134 5.76333 11.71942 1.06993 1.1376 1.98974 1.81826 3.05545 1.88636.53285.034 1.07188-.14131 1.47559-.44552.40371-.30424.69194-.70537.92896-1.1533.94807-1.79177 1.264-4.57286 1.68097-7.70024s.86978-6.5503 1.73785-9.25167c.86807-2.70138 2.0816-4.51974 3.87698-4.98289 4.06896-1.04965 8.35033 1.10204 12.45246 4.095 4.10214 2.99297 7.85185 6.72418 11.13488 8.43014a.93346327.93346327 0 1 0 .86259-1.65569c-2.77989-1.44452-6.64579-5.17926-10.89788-8.28164-4.25209-3.10236-9.06527-5.67323-14.01969-4.39516-2.7163.70071-4.23914 3.26473-5.18827 6.21833-.94912 2.95359-1.39422 6.45477-1.81052 9.57712-.4163 3.12234-.8669 5.91513-1.47875 7.07146-.15295.28907-.30594.46291-.40444.53715-.0985.0743-.1255.0795-.23382.0726-.21665-.0149-.88505-.31444-1.81368-1.30179-1.77928-1.89181-3.64069-5.96518-5.35573-11.03693s-3.3414-11.15214-4.93233-17.18888c-1.59092-6.03674-3.1468-12.0309-4.74274-16.964556-1.59595-4.933634-3.13182-8.781778-5.12822-10.746197-.93234-.917425-1.79919-1.485945-2.78057-1.519838-.98138-.0338-1.81421.620742-2.30658 1.437671-.98478 1.633858-1.36062 4.190077-1.67151 7.403243-.62175 6.426311-.70185 15.356267-1.93058 22.279187-1.27096 7.16093-1.01657 13.24387-.9416 17.87137.0375 2.31378.025 4.26523-.21486 5.76334-.23981 1.49815-.67825 2.48358-1.42503 3.12181-.31489.26912-.30593.22783-.44869.17379-.1428-.0539-.4888-.32635-.85945-.84997-.74125-1.0472-1.58409-2.93143-2.50882-4.92916-.92473-1.99772-1.94458-4.12524-3.23555-5.79491-1.29096-1.66972-2.98007-2.9636-5.07451-2.82164-1.15655.0782-2.13082.73816-2.91327 1.62092-.78243.88279-1.42929 2.01636-2.02222 3.28927-1.18585 2.54586-2.14474 5.66739-3.09021 8.35115-.94544 2.68376-2.02512 4.93433-2.71736 5.47897-.34612.27231-.35358.29976-.75833.0504-.40473-.24922-1.09572-1.02449-1.87372-2.47408-1.51951-2.8312-2.71686-7.72214-3.655795-13.53307-.93893-5.81096-1.64944-12.56037-2.34451-19.24588-.69507-6.6855-1.37611-13.305676-2.26236-18.89197-.88626-5.586285-1.92269-10.10723-3.58628-12.803191-.80351-1.302133-1.54961-2.146856-2.57202-2.426667z" fill="#fff4c9"/>
      <path d="m197.11453 124.75191-8.55839-37.670871 6.49924 38.366781-10.17858-27.326126 8.09458 28.337636-27.07136-18.99363 24.60113 21.25418-36.89893 3.25978 35.64369-.9279-21.59141 8.25921 22.151-5.55921-22.80168 13.10475 23.79723-9.60074 3.28658 2.12782-6.91797 26.51023 10.59733-26.91838 8.08218 25.75813-4.78318-25.39344 14.07929 14.14075-11.46057-17.45294 22.5132 4.91586-21.58569-8.32399 19.26579-14.25696-19.4947 12.24955 24.8433-33.397226-26.24998 30.496556 9.86332-19.65349-12.60271 17.41747.82875-17.78547z" fill="#ffda64"/>
    </g>
    <path d="m205.42297 132.38521a8.5059373 8.5079061 0 0 1 -8.49914 8.50791 8.5059373 8.5079061 0 0 1 -8.51271-8.49434 8.5059373 8.5079061 0 0 1 8.48557-8.52144 8.5059373 8.5079061 0 0 1 8.52626 8.48073" fill="#fff4c9"/>
  </g>
</svg>
