<svg height="256" width="256" xmlns="http://www.w3.org/2000/svg" xmlns:xlink="http://www.w3.org/1999/xlink">
  <filter id="filter880" color-interpolation-filters="sRGB" height="1.025" width="1.023" x="-.01" y="-.01">
    <feGaussianBlur stdDeviation="1.083"/>
  </filter>
  <filter id="filter906" color-interpolation-filters="sRGB" height="1.101" width="1.091" x="-.05" y="-.05">
    <feGaussianBlur stdDeviation="4.332"/>
  </filter>
  <g transform="translate(-1.089394 -36.332879)">
    <path d="m76.974798 64.1329a13.029946 13.681533 0 0 0 -9.50429 4.321815l-48.85742 54.720645a13.029946 13.681533 0 0 0 -.368979 18.28252l100.972001 123.12147a13.029946 13.681533 0 0 0 19.74653 0l100.97202-123.12147a13.029946 13.681533 0 0 0 -.36894-18.28252l-48.85744-54.720645a13.029946 13.681533 0 0 0 -9.50433-4.321815h-52.11457z" filter="url(#filter906)" opacity=".1"/>
    <path d="m76.974798 64.1329a13.029946 13.681533 0 0 0 -9.50429 4.321815l-48.85742 54.720645a13.029946 13.681533 0 0 0 -.368979 18.28252l100.972001 123.12147a13.029946 13.681533 0 0 0 19.74653 0l100.97202-123.12147a13.029946 13.681533 0 0 0 -.36894-18.28252l-48.85744-54.720645a13.029946 13.681533 0 0 0 -9.50433-4.321815h-52.11457z" filter="url(#filter880)" opacity=".1"/>
    <path d="m76.974798 64.1329a13.029946 13.681533 0 0 0 -9.50429 4.321815l-48.85742 54.720645a13.029946 13.681533 0 0 0 -.368979 18.28252l100.972001 123.12147a13.029946 13.681533 0 0 0 19.74653 0l100.97202-123.12147a13.029946 13.681533 0 0 0 -.36894-18.28252l-48.85744-54.720645a13.029946 13.681533 0 0 0 -9.50433-4.321815h-52.11457z" opacity=".1"/>
    <path d="m77.88909 65.732895a12.801351 13.441506 0 0 0 -9.337548 4.245994l-48.000273 53.760631a12.801351 13.441506 0 0 0 -.362506 17.96178l99.200567 120.96144a12.801351 13.441506 0 0 0 19.4001 0l99.20058-120.96144a12.801351 13.441506 0 0 0 -.36247-17.96178l-48.00029-53.760631a12.801351 13.441506 0 0 0 -9.33759-4.245994h-51.20028z" fill="#cbe667"/>
    <path d="m76.798828 29.400391c-.860044-.000336-1.709142.085505-2.539062.261718a12.801351 13.441506 0 0 0 -.072266.015625c-.02539.0075-.046726.021827-.072266.029297-.789835.17808-1.564091.429018-2.304687.757813a12.801351 13.441506 0 0 0 -.058594.03125c-.0498.0224-.09698.049495-.146484.072265-.74686.347946-1.45572.760361-2.128907 1.253907-.0336.02613-.068112.047255-.101562.072265-.684954.51255-1.325878 1.095584-1.910156 1.75l-48.007813 53.767578a12.801351 13.441506 0 0 0 -3.443359 9.1875h59.71875l52.267578-67.199218zm51.201172 0 52.26758 67.199218h59.73242a12.801351 13.441506 0 0 0 -3.45703-9.1875l-48.00781-53.767578c-.5889-.659605-1.23272-1.250164-1.92383-1.765625a12.801351 13.441506 0 0 0 -.13281-.08789c-.6873-.49952-1.40886-.919183-2.17188-1.267578a12.801351 13.441506 0 0 0 -.05859-.029297c-.73622-.33152-1.50342-.591513-2.28907-.773438a12.801351 13.441506 0 0 0 -.02929 0 12.801351 13.441506 0 0 0 -.32031-.072265c-.78909-.158667-1.59268-.24842-2.40821-.248047z" fill="#76c22b" transform="translate(1.089393 36.332879)"/>
    <path d="m129.08939 267.33288 52.26667-134.39999h-104.533333z" fill="#76c22b"/>
    <g transform="translate(1.089393 36.332879)">
      <path d="m76.798828 29.400391a12.801351 13.441506 0 0 0 -9.335937 4.246093l-.583985.654297a12.801351 13.441506 0 0 1 7.919922-2.90039h51.201172 51.20117a12.801351 13.441506 0 0 1 9.33594 4.246093l48.00195 53.759766a12.801351 13.441506 0 0 1 .36133 17.96289l-99.09375 120.83008a12.801351 13.441506 0 0 0 1.89258-1.86914l99.20117-120.96094a12.801351 13.441506 0 0 0 -.36133-17.96289l-48.00195-53.759766a12.801351 13.441506 0 0 0 -9.33594-4.246093h-51.20117z" fill="#fff" opacity=".3"/>
      <path d="m239.95508 95.53125a12.801351 13.441506 0 0 1 -3.05469 7.83789l-99.20117 120.96094a12.801351 13.441506 0 0 1 -19.39844 0l-99.201171-120.96094a12.801351 13.441506 0 0 1 -3.052734-7.781249 12.801351 13.441506 0 0 0 3.052734 9.781249l99.201171 120.96094a12.801351 13.441506 0 0 0 19.39844 0l99.20117-120.96094a12.801351 13.441506 0 0 0 3.05469-9.83789z" opacity=".2"/>
    </g>
  </g>
</svg>
