<svg height="256" width="256" xmlns="http://www.w3.org/2000/svg" xmlns:xlink="http://www.w3.org/1999/xlink">
  <filter id="filter11191" color-interpolation-filters="sRGB" height="1.024" width="1.024" x="-.01" y="-.01">
    <feGaussianBlur stdDeviation="1.12"/>
  </filter>
  <filter id="filter11210" color-interpolation-filters="sRGB" height="1.096" width="1.096" x="-.05" y="-.05">
    <feGaussianBlur stdDeviation="4.48"/>
  </filter>
  <filter id="filter4460" color-interpolation-filters="sRGB" height="1.023" width="1.026" x="-.01" y="-.01">
    <feGaussianBlur stdDeviation="1.133"/>
  </filter>
  <linearGradient id="linearGradient4413" gradientUnits="userSpaceOnUse" x1="132.62419508" x2="132.62419508" y1="71.76317284" y2="175.7536015">
    <stop offset="0" stop-opacity="0"/>
    <stop offset=".505"/>
    <stop offset="1" stop-opacity="0"/>
  </linearGradient>
  <circle cx="128.752" cy="127.248" filter="url(#filter11210)" opacity=".1" r="112"/>
  <circle cx="128.752" cy="125.248" filter="url(#filter11191)" opacity=".1" r="112"/>
  <circle cx="128.752" cy="123.248" opacity=".1" r="114"/>
  <circle cx="128.752" cy="123.248" fill="#90ae32" r="112"/>
  <path d="m16.751953 123.24805c.219543 2.63999.266428 5.98571.402344 8.91797a112 112 0 0 0 1.226562 10.11914 112 112 0 0 0 2.453125 10.92187 112 112 0 0 0 3.529297 10.625 112 112 0 0 0 4.574219 10.21875 112 112 0 0 0 5.570312 9.71094 112 112 0 0 0 6.511719 9.10742 112 112 0 0 0 7.388672 8.41016 112 112 0 0 0 8.191406 7.63086 112 112 0 0 0 8.91211 6.77539 112 112 0 0 0 9.544922 5.85156 112 112 0 0 0 10.080078 4.86914 112 112 0 0 0 10.517578 3.83984 112 112 0 0 0 10.847653 2.76953 112 112 0 0 0 11.06836 1.67188 112 112 0 0 0 11.05664.55469c1.00274-.00122 2.05955-.08622 3.07227-.09961a112 112 0 0 0 4.97461-.17578 112 112 0 0 0 11.11523-1.34766 112 112 0 0 0 10.92188-2.45312 112 112 0 0 0 10.625-3.5293 112 112 0 0 0 10.21875-4.57422 112 112 0 0 0 9.71093-5.57031 112 112 0 0 0 9.10743-6.51172 112 112 0 0 0 8.41015-7.38867 112 112 0 0 0 7.63086-8.19141 112 112 0 0 0 6.77539-8.91211 112 112 0 0 0 5.85157-9.54492 112 112 0 0 0 4.86914-10.08008 112 112 0 0 0 3.83984-10.51758 112 112 0 0 0 2.76953-10.84765 112 112 0 0 0 1.63867-10.83008c-.1976-4.0827-.28991-8.00416-.00586-11.41992z" fill="#fff" opacity=".1"/>
  <path d="m128.752 11.248006a112 112 0 0 0 -112.000001 111.999994 112 112 0 0 0 .04102 1.16992 112 112 0 0 1 111.958981-111.169914 112 112 0 0 1 111.95898 110.830074 112 112 0 0 0 .041-.83008 112 112 0 0 0 -112-111.999994z" fill="#fff" opacity=".3"/>
  <path d="m128.752 235.248a112 112 0 0 1 -112.000001-112 112 112 0 0 1 .04102-1.16992 112 112 0 0 0 111.958981 111.16992 112 112 0 0 0 111.95898-110.83008 112 112 0 0 1 .041.83008 112 112 0 0 1 -112 112z" opacity=".2"/>
  <g transform="translate(-.553826 -.026917)">
    <path d="m88.488054 71.763169v105.306751s53.410266-21.58685 97.053216-52.68663c0-.01-.005-.0174-.0111-.0283-.005-.0115-.0117-.0229-.0197-.0345-.009-.0115-.0163-.0234-.0221-.0345-.006-.0115-.0111-.0231-.0111-.0333-46.03482-32.091539-96.989134-52.489469-96.989134-52.489469z" fill="url(#linearGradient4413)" opacity=".4" visibility="hidden"/>
    <path d="m155.41127 137.99999v239.99999s121.72498-49.19762 221.18971-120.07579c0-.0217-.0115-.0398-.0253-.0645-.0115-.0263-.0264-.0523-.0448-.0786-.0191-.026-.0374-.0533-.0504-.0786-.0147-.0262-.0253-.0526-.0253-.0758-104.91599-73.13856-221.04372-119.62658-221.04372-119.62658z" filter="url(#filter4460)" opacity=".1" transform="matrix(.43877818 0 0 .43877818 20.296981 11.211786)"/>
    <g fill="#fff">
      <path d="m88.48805 70.88563v105.30676s53.41025-21.58686 97.05321-52.68665c0-.01-.005-.0165-.0113-.0299-.005-.01-.0117-.0232-.0196-.0345-.009-.01-.0162-.0232-.0222-.0345-.006-.01-.0113-.0232-.0113-.0332-46.03451-32.089999-96.988812-52.487935-96.988812-52.487935z"/>
      <path d="m88.487804 70.88563v.877544s50.608256 20.25336 96.484666 52.142636c.18919-.13434.38009-.26568.56904-.40024 0-.01-.005-.0165-.0113-.0299-.005-.01-.0117-.0232-.0199-.0342-.009-.01-.0165-.0232-.0222-.0345-.006-.01-.0113-.0232-.0113-.0335-46.03477-32.091431-96.989358-52.489534-96.989358-52.489534z"/>
    </g>
  </g>
</svg>
