<svg height="256" width="256" xmlns="http://www.w3.org/2000/svg" xmlns:xlink="http://www.w3.org/1999/xlink"><linearGradient id="a" gradientUnits="userSpaceOnUse" x1="88" x2="488" y1="88" y2="488"><stop offset="0" stop-opacity=".588235"/><stop offset="1" stop-opacity=".205556"/></linearGradient><filter id="b" color-interpolation-filters="sRGB" height="1.088" width="1.106" x="-.05" y="-.04"><feGaussianBlur stdDeviation="8.48"/></filter><filter id="c" color-interpolation-filters="sRGB" height="1.022" width="1.026" x="-.01" y="-.01"><feGaussianBlur stdDeviation="2.12"/></filter><clipPath id="d"><path d="m1279.04 1574.14c-13.44 0-26.89 5.44-37.15 16.32l-175.54 186.2-8.22 8.71c-2.92 3.1-5.45 6.51-7.57 10.15-.02.05-.04.09-.06.12h.07c-7.24 12.5-9.69 27.67-6.35 42.26 0 .01 0 .01.01.02.01.06.02.11.03.16s.02.09.03.14c0 0 .01.01.01.01.01.04.02.08.03.13 2.76 11.67 7.82 20.37 16.17 27.62 5.08 4.41 11.37 8.29 19.11 11.98 17.6 8.39 83.41 32.18 153.51 40.42 7.93.93 15.9 1.66 23.87 2.15 7.38.45 14.75.7 22.05.7h.48.01c20.5-.03 41.56-1.89 61.99-4.84 13.18-1.91 26.09-4.28 38.42-6.92.16-.03.32-.07.48-.1.03-.02.05-.04.08-.06 47.41-10.2 86.18-24.27 97.9-31.31.02-.01.04-.03.07-.04 7.77-4.69 14.23-9.01 19.53-13.69.03 0 .06-.01.09-.01.05-.04.09-.08.13-.12 6.61-5.87 11.31-12.37 14.19-21.03.51-1.54.97-3.15 1.36-4.84.02-.06.03-.13.05-.19 1.02-4.4 1.52-8.85 1.52-13.28.01-14.61-5.4-28.85-15.39-39.43l-183.75-194.91c-10.27-10.88-23.71-16.32-37.16-16.32"/></clipPath><radialGradient id="e" cx="0" cy="0" gradientTransform="matrix(229.762 0 0 -229.762 1279.04 1747.69)" gradientUnits="userSpaceOnUse" r="1" spreadMethod="pad"><stop offset="0" stop-color="#f1da1e"/><stop offset="1" stop-color="#fab20b"/></radialGradient><g transform="translate(0 208)"><path d="m141.84323 74c-70.59344 0-78.18921 7.250835-77.84323 77.98706v146.01294 146.01294c-.34598 70.73623 7.24979 77.98706 77.84323 77.98706h292.31354c70.59344 0 79.78033-7.27652 77.84323-77.98706v-146.01294-146.01294c0-70.737067-7.24979-77.98706-77.84323-77.98706z" filter="url(#c)" opacity=".1" transform="matrix(.5 0 0 .5 -14.116488 -228.82553)"/><path d="m141.84323 74c-70.59344 0-78.18921 7.250835-77.84323 77.98706v146.01294 146.01294c-.34598 70.73623 7.24979 77.98706 77.84323 77.98706h292.31354c70.59344 0 79.78033-7.27652 77.84323-77.98706v-146.01294-146.01294c0-70.737067-7.24979-77.98706-77.84323-77.98706z" fill="url(#a)" filter="url(#b)" opacity=".3" transform="matrix(.5 0 0 .5 -14.116488 -228.82523)"/><path d="m55.695112-194.82553c-36.09881 0-39.983002 3.69016-39.80608 39.68984v74.310155 74.3101591c-.176922 35.9996899 3.70727 39.6898399 39.80608 39.6898399h148.387318c36.09881 0 40.77464-3.70276 39.80608-39.6898399v-74.3101591-74.310155c0-36.00011-3.70727-39.68984-39.80608-39.68984z" opacity=".1"/><path d="m202.95648-192.82554c35.29673 0 39.09461 3.62542 38.92162 38.99353v73.006465 73.0064791c.17299 35.3681199-3.62489 38.9935299-38.92162 38.9935299h-146.15675c-35.29671 0-38.921609-3.625-38.921609-38.9935299v-73.0064791-73.006465c0-35.36853 3.624899-38.99353 38.921609-38.99353z" fill="#323232"/><path d="m17.877654-80.825235v8 65.0058591c0 35.3685299 3.625164 38.9941399 38.921874 38.9941399h146.156252c35.29673 0 39.09486-3.62602 38.92187-38.9941399v-65.0058591-8z" fill="#fff" opacity=".05"/><path d="m56.805392-192.82553c-35.296728 0-39.094869 3.62603-38.921879 38.99414v2c-.17299-35.36811 3.625151-38.99414 38.921879-38.99414h146.156238c35.29673 0 38.92188 3.62561 38.92188 38.99414v-2c0-35.36853-3.62515-38.99414-38.92188-38.99414z" fill="#fff" opacity=".3"/><path d="m56.810792 31.174464c-35.296731 0-39.094874-3.62603-38.921884-38.9941399v-2c-.17299 35.3681099 3.625153 38.9941399 38.921884 38.9941399h146.156238c35.29673 0 38.92188-3.62561 38.92188-38.9941399v2c0 35.3685299-3.62515 38.9941399-38.92188 38.9941399z" opacity=".2"/><path d="m131.11176-81.17145c-1.60822 0-3.23172.07008-4.85306.170667 2.99103-5.859539 5.27534-12.316427 6.68662-19.199987 2.12897 7.585911 6.27967 14.438839 11.88539 20.101466-4.52264-.65641-9.18316-1.072146-13.71895-1.072146m53.45144-78.76915c-23.61763 0-43.62937 13.85461-50.60044 33.02615-4.04349-32.32816-26.87123-57.09232-54.422916-57.09232-30.415395 0-55.068389 30.16421-55.068389 67.37388 0 37.20749 24.652994 67.371697 55.068389 67.371697 1.695727 0 3.373945-.09846 5.030289-.282255l38.413077 40.7455456c2.24493 2.3805672 5.18783 3.5708686 8.12855 3.5708686 2.9429 0 5.8836-1.1903014 8.13074-3.5708686l40.20508-42.6469346c2.84661-3.017303 3.99535-7.391173 3.03479-11.53312-.094-.406974-.2188-.778947-.34133-1.146535.80738.03282 1.60603.09403 2.42216.09403 29.40278 0 53.24138-21.471159 53.24138-47.955098 0-26.48394-23.8386-47.9551-53.24138-47.9551" fill="#fff"/><path d="m148.24004-92.499537c-7.53994 0-13.67519-8.916253-13.67519-19.876093 0-10.95767 6.13525-19.8739 13.67519-19.8739 7.53997 0 13.67521 8.91623 13.67521 19.8739 0 10.95984-6.13524 19.876093-13.67521 19.876093" fill="#231f20"/><g clip-path="url(#d)" transform="matrix(.21880321 0 0 -.21880321 -148.74629 339.19983)"><path d="m1279.04 1574.14c-13.44 0-26.89 5.44-37.15 16.32l-175.54 186.2-8.22 8.71c-2.92 3.1-5.45 6.51-7.57 10.15-.02.05-.04.09-.06.12h.07c-7.24 12.5-9.69 27.67-6.35 42.26 0 .01 0 .01.01.02.01.06.02.11.03.16s.02.09.03.14c0 0 .01.01.01.01.01.04.02.08.03.13 2.76 11.67 7.82 20.37 16.17 27.62 5.08 4.41 11.37 8.29 19.11 11.98 17.6 8.39 83.41 32.18 153.51 40.42 7.93.93 15.9 1.66 23.87 2.15 7.38.45 14.75.7 22.05.7h.48.01c20.5-.03 41.56-1.89 61.99-4.84 13.18-1.91 26.09-4.28 38.42-6.92.16-.03.32-.07.48-.1.03-.02.05-.04.08-.06 47.41-10.2 86.18-24.27 97.9-31.31.02-.01.04-.03.07-.04 7.77-4.69 14.23-9.01 19.53-13.69.03 0 .06-.01.09-.01.05-.04.09-.08.13-.12 6.61-5.87 11.31-12.37 14.19-21.03.51-1.54.97-3.15 1.36-4.84.02-.06.03-.13.05-.19 1.02-4.4 1.52-8.85 1.52-13.28.01-14.61-5.4-28.85-15.39-39.43l-183.75-194.91c-10.27-10.88-23.71-16.32-37.16-16.32" fill="url(#e)"/><path d="m79.462891 146.9375c-.197513 2.58828.382793 5.16907 1.658203 7.37109h-.013672c.004376.00657.007343.01445.011719.02539.463862.79645 1.017344 1.54242 1.65625 2.22071l1.798828 1.90625 38.408201 40.74023c2.24492 2.38058 5.18819 3.57227 8.12891 3.57227 2.9429 0 5.88375-1.19169 8.13086-3.57227l40.20508-42.64648c2.18584-2.31494 3.36937-5.43024 3.36718-8.62696 0-.2986-.02989-.5975-.05078-.89648-.23836 2.80215-1.38322 5.47608-3.3164 7.52344l-40.20508 42.64648c-2.24711 2.38058-5.18796 3.57227-8.13086 3.57227-2.94072 0-5.88399-1.19169-8.12891-3.57227l-38.408201-40.74023-1.798828-1.90625c-.638906-.67829-1.192388-1.42426-1.65625-2.22071-.004376-.01094-.007343-.01882-.011719-.02539h.013672c-.945124-1.63177-1.505672-3.47443-1.658203-5.37109z" fill="#080808" opacity=".2" transform="matrix(4.5703169 0 0 -4.5703169 679.81768 2500.8766)"/></g><path d="m132.80628-115.9823a17.875622 26.217583 0 0 1 -17.87562 26.217583 17.875622 26.217583 0 0 1 -17.875625-26.217583 17.875622 26.217583 0 0 1 17.875625-26.21758 17.875622 26.217583 0 0 1 17.87562 26.21758z" fill="#231f20" stroke-width="1.641024"/><g clip-path="url(#d)" transform="matrix(.21880321 0 0 -.21880321 -148.74629 339.19983)"><path d="m131.11133 126.82812c-1.59727 0-3.20945.05584-4.82422.1543-1.74386.10722-3.48755.26526-5.22266.46875-15.3381 1.80294-29.736951 7.00995-33.587888 8.84571-1.693536.80738-3.07012 1.65617-4.18164 2.62109-1.827007 1.58632-2.935166 3.48953-3.539063 6.04297-.002188.01094-.003671.01859-.005859.02734l-.001953.00391c-.002188.01094-.005625.01835-.007813.02929s-.003671.02203-.005859.03516c-.002188.00219-.001953.00172-.001953.00391-.294793 1.28773-.37266 2.59459-.269531 3.87695.047809-.62652.127108-1.25481.269531-1.87695 0-.00219-.000235-.00172.001953-.00391.002188-.01313.003671-.02422.005859-.03516s.005625-.01835.007813-.02929l.001953-.00391c.002188-.00875.003671-.0164.005859-.02734.603897-2.55344 1.712056-4.45665 3.539063-6.04297 1.11152-.96492 2.488104-1.81371 4.18164-2.62109 3.850937-1.83576 18.249788-7.04277 33.587888-8.84571 1.73511-.20349 3.4788-.36153 5.22266-.46875 1.61477-.09846 3.22695-.1543 4.82422-.1543h.10547.00195c4.48547.00657 9.0943.41313 13.56445 1.0586 2.88383.41791 5.70841.93798 8.40625 1.51562.03501.00657.07046.01492.10547.02149.00657.00437.01102.00929.01758.01367 10.37346 2.23179 18.85555 5.30923 21.41992 6.84961.00438.00219.00906.00758.01563.00977 1.7001 1.02618 3.11378 1.97014 4.27343 2.99414.00657 0 .01297.00195.01954.00195.01094.00875.01859.01859.02734.02734 1.44629 1.28438 2.47531 2.70673 3.10547 4.60157.11159.33695.21154.68881.29687 1.05859.00438.01313.00735.02789.01172.04101.15443.66616.23432 1.33821.28125 2.00977.03116-.36623.05104-.73401.05078-1.10352 0-.96929-.10885-1.94351-.33203-2.90625-.00437-.01312-.00734-.02788-.01172-.04101-.08533-.36978-.18528-.72164-.29687-1.05859-.63016-1.89484-1.65918-3.31719-3.10547-4.60157-.00875-.00875-.0164-.01859-.02734-.02734-.00657 0-.01297-.00195-.01954-.00195-1.15965-1.024-2.57333-1.96796-4.27343-2.99414-.00657-.00219-.01125-.00758-.01563-.00977-2.56437-1.54038-11.04646-4.61782-21.41992-6.84961-.00656-.00438-.01101-.0093-.01758-.01367-.03501-.00657-.07046-.01492-.10547-.02149-2.69784-.57764-5.52242-1.09771-8.40625-1.51562-4.47015-.64547-9.07898-1.05203-13.56445-1.0586h-.00195z" fill="#fff" opacity=".3" transform="matrix(4.5703169 0 0 -4.5703169 679.81768 2500.8766)"/></g></g></svg>