<?xml version="1.0" encoding="UTF-8" standalone="no"?>
<svg
   xmlns:dc="http://purl.org/dc/elements/1.1/"
   xmlns:cc="http://creativecommons.org/ns#"
   xmlns:rdf="http://www.w3.org/1999/02/22-rdf-syntax-ns#"
   xmlns:svg="http://www.w3.org/2000/svg"
   xmlns="http://www.w3.org/2000/svg"
   xmlns:xlink="http://www.w3.org/1999/xlink"
   xmlns:sodipodi="http://sodipodi.sourceforge.net/DTD/sodipodi-0.dtd"
   xmlns:inkscape="http://www.inkscape.org/namespaces/inkscape"
   width="256"
   height="256"
   version="1.1"
   id="svg128"
   sodipodi:docname="fcitx.svg"
   inkscape:version="0.92.4 (5da689c313, 2019-01-14)">
  <metadata
     id="metadata132">
    <rdf:RDF>
      <cc:Work
         rdf:about="">
        <dc:format>image/svg+xml</dc:format>
        <dc:type
           rdf:resource="http://purl.org/dc/dcmitype/StillImage" />
        <dc:title />
      </cc:Work>
    </rdf:RDF>
  </metadata>
  <sodipodi:namedview
     pagecolor="#ffffff"
     bordercolor="#666666"
     borderopacity="1"
     objecttolerance="10"
     gridtolerance="10"
     guidetolerance="10"
     inkscape:pageopacity="0"
     inkscape:pageshadow="2"
     inkscape:window-width="1920"
     inkscape:window-height="1016"
     id="namedview130"
     showgrid="false"
     inkscape:zoom="3.4425878"
     inkscape:cx="19.93734"
     inkscape:cy="126.92922"
     inkscape:window-x="0"
     inkscape:window-y="27"
     inkscape:window-maximized="1"
     inkscape:current-layer="layer1" />
  <defs
     id="defs107">
    <linearGradient
       id="linearGradient4773"
       x1="11.566"
       x2="15.215"
       y1="22.292"
       y2="33.955"
       gradientTransform="translate(12.128253,-14.362661)"
       gradientUnits="userSpaceOnUse"
       xlink:href="#linearGradient8265-821-176-38-919-66-249" />
    <linearGradient
       id="linearGradient8265-821-176-38-919-66-249">
      <stop
         id="stop2687"
         offset="0"
         style="stop-color:#ffffff;stop-opacity:0.27450982" />
      <stop
         id="stop2689"
         offset="1"
         style="stop-color:#ffffff;stop-opacity:0" />
    </linearGradient>
    <linearGradient
       id="linearGradient4708"
       x1="24"
       x2="33"
       y1="33.402"
       y2="33.402"
       gradientTransform="translate(0,-1.9999996)"
       gradientUnits="userSpaceOnUse"
       spreadMethod="reflect"
       xlink:href="#linearGradient4702" />
    <linearGradient
       id="linearGradient4702">
      <stop
         id="stop4704"
         offset="0"
         style="stop-color:#ffffff" />
      <stop
         id="stop4706"
         offset="1"
         style="stop-color:#ffffff;stop-opacity:0" />
    </linearGradient>
    <linearGradient
       id="linearGradient4777"
       x1="102.308"
       x2="102.308"
       y1="-2.393"
       y2="-24.582"
       gradientTransform="matrix(0.12747837,0,0,0.81926866,69.892246,33.811851)"
       gradientUnits="userSpaceOnUse"
       spreadMethod="reflect"
       xlink:href="#linearGradient3844-4-1-98" />
    <linearGradient
       id="linearGradient3844-4-1-98">
      <stop
         id="stop3846-6-6-1"
         offset="0"
         style="stop-color:#a5a6a8" />
      <stop
         id="stop3848-9-0-6"
         offset="1"
         style="stop-color:#e8e8e8" />
    </linearGradient>
    <linearGradient
       id="linearGradient4779"
       x1="109.956"
       x2="109.956"
       y1="-24.911"
       y2="-2.376"
       gradientTransform="matrix(0.12747837,0,0,0.81926866,69.892246,33.811851)"
       gradientUnits="userSpaceOnUse"
       xlink:href="#linearGradient2509-9-1-4" />
    <linearGradient
       id="linearGradient2509-9-1-4">
      <stop
         id="stop2511-0-9-7"
         offset="0"
         style="stop-color:#b3b3b3" />
      <stop
         id="stop2513-3-1-74"
         offset="1"
         style="stop-color:#dadada" />
    </linearGradient>
    <linearGradient
       id="linearGradient4781"
       x1="89.018"
       x2="89.018"
       y1="22.537"
       y2="27.546"
       gradientTransform="matrix(0.27703571,0,0,1.7410302,57.055001,-5.2547316)"
       gradientUnits="userSpaceOnUse"
       xlink:href="#linearGradient3858-4-6-8-7" />
    <linearGradient
       id="linearGradient3858-4-6-8-7">
      <stop
         id="stop3860-9-8-5-3"
         offset="0"
         style="stop-color:#a0a0a0" />
      <stop
         id="stop3862-9-2-3-8"
         offset="1"
         style="stop-color:#4a4a4a" />
    </linearGradient>
    <linearGradient
       id="linearGradient4681"
       x1="77.444"
       x2="77.444"
       y1="41.185"
       y2="30.155"
       gradientTransform="matrix(2.9195982,0,0,2.7200462,-157.64596,-76.984368)"
       gradientUnits="userSpaceOnUse"
       xlink:href="#linearGradient3188-6-5" />
    <linearGradient
       id="linearGradient3188-6-5">
      <stop
         id="stop3190-6-58"
         offset="0"
         style="stop-color:#4d4d4d" />
      <stop
         id="stop3192-6-88"
         offset="1"
         style="stop-color:#282828" />
    </linearGradient>
    <linearGradient
       id="linearGradient4166"
       x1="27"
       x2="27"
       y1="9"
       y2="27"
       gradientUnits="userSpaceOnUse"
       xlink:href="#linearGradient3642" />
    <linearGradient
       id="linearGradient3642">
      <stop
         id="stop3644"
         offset="0"
         style="stop-color:#ffffff" />
      <stop
         id="stop3646"
         offset="1"
         style="stop-color:#ffffff;stop-opacity:0" />
    </linearGradient>
    <radialGradient
       id="radialGradient4025"
       cx="25"
       cy="12"
       r="7.5"
       fx="25"
       fy="12"
       gradientTransform="matrix(0,9.5217056,-4.906667,0,127.62111,-315.64264)"
       gradientUnits="userSpaceOnUse"
       xlink:href="#linearGradient3690" />
    <linearGradient
       id="linearGradient3690">
      <stop
         id="stop3692"
         offset="0"
         style="stop-color:#ffeb9f" />
      <stop
         id="stop3694"
         offset=".262"
         style="stop-color:#ffd57e" />
      <stop
         id="stop3696"
         offset=".661"
         style="stop-color:#ffbc43" />
      <stop
         id="stop3698"
         offset="1"
         style="stop-color:#ff921a" />
    </linearGradient>
    <linearGradient
       id="linearGradient4033"
       x1="20"
       x2="20"
       y1="31.174"
       y2="8"
       gradientTransform="translate(0,-0.99999964)"
       gradientUnits="userSpaceOnUse"
       xlink:href="#linearGradient3603" />
    <linearGradient
       id="linearGradient3603">
      <stop
         id="stop3605"
         offset="0"
         style="stop-color:#a7651c" />
      <stop
         id="stop3607"
         offset="1"
         style="stop-color:#c8a700" />
    </linearGradient>
    <linearGradient
       id="linearGradient4647"
       x1="21.381"
       x2="21.381"
       y1="5.052"
       y2="44.137"
       gradientTransform="matrix(0.54285711,0,0,0.36842106,10.97143,25.473684)"
       gradientUnits="userSpaceOnUse"
       xlink:href="#linearGradient4649" />
    <linearGradient
       id="linearGradient4649">
      <stop
         id="stop4652"
         offset="0"
         style="stop-color:#ffffff" />
      <stop
         id="stop4654"
         offset=".185"
         style="stop-color:#ffffff;stop-opacity:0.23529412" />
      <stop
         id="stop4656"
         offset=".88"
         style="stop-color:#ffffff;stop-opacity:0.15686275" />
      <stop
         id="stop4658"
         offset="1"
         style="stop-color:#ffffff;stop-opacity:0.39215687" />
    </linearGradient>
    <linearGradient
       id="linearGradient4190-0"
       x1="77.444"
       x2="77.444"
       y1="41.185"
       y2="30.155"
       gradientTransform="matrix(3.2000001,0,0,3.2000001,-179.08112,-134.09731)"
       gradientUnits="userSpaceOnUse"
       xlink:href="#linearGradient3188-6" />
    <linearGradient
       id="linearGradient3188-6">
      <stop
         id="stop3190-6"
         offset="0"
         style="stop-color:#4d4d4d" />
      <stop
         id="stop3192-6"
         offset="1"
         style="stop-color:#4d4d4d" />
    </linearGradient>
    <radialGradient
       id="radialGradient4267"
       cx="28.925"
       cy="22.569"
       r="11.491"
       fx="28.925"
       fy="22.569"
       gradientTransform="matrix(1.1454014e-7,1.0911469,-3.5984978,3.7774237e-7,146.75381,-38.761306)"
       gradientUnits="userSpaceOnUse"
       xlink:href="#linearGradient4660" />
    <linearGradient
       id="linearGradient4660">
      <stop
         id="stop4662"
         offset="0"
         style="stop-color:#5e5c64" />
      <stop
         id="stop4664"
         offset="1"
         style="stop-color:#241f31" />
    </linearGradient>
    <linearGradient
       id="linearGradient3421"
       x1="32.085"
       x2="32.085"
       y1="-14.402"
       y2="-5.563"
       gradientTransform="matrix(0.6655121,0,0,0.4518781,-54.615029,45.875214)"
       gradientUnits="userSpaceOnUse"
       xlink:href="#linearGradient47870" />
    <linearGradient
       id="linearGradient47870">
      <stop
         id="stop47872"
         offset="0"
         style="stop-color:#000000;stop-opacity:0" />
      <stop
         id="stop47878"
         offset=".5"
         style="stop-color:#000000" />
      <stop
         id="stop47874"
         offset="1"
         style="stop-color:#000000;stop-opacity:0" />
    </linearGradient>
    <radialGradient
       id="radialGradient3418"
       cx="51.438"
       cy="-12.203"
       r="2.172"
       fx="51.438"
       fy="-12.203"
       gradientTransform="matrix(1.8417267,-5.1455073e-7,6.2669991e-7,0.9200109,-115.2312,52.586443)"
       gradientUnits="userSpaceOnUse"
       xlink:href="#linearGradient51765" />
    <linearGradient
       id="linearGradient51765">
      <stop
         id="stop51767"
         offset="0"
         style="stop-color:#000000" />
      <stop
         id="stop51769"
         offset="1"
         style="stop-color:#000000;stop-opacity:0" />
    </linearGradient>
    <radialGradient
       id="radialGradient4142"
       cx="51.438"
       cy="-12.203"
       r="2.172"
       fx="51.438"
       fy="-12.203"
       gradientTransform="matrix(-1.8417267,-5.8450938e-8,-1.2125708e-7,0.9200109,52.236437,52.586419)"
       gradientUnits="userSpaceOnUse"
       xlink:href="#linearGradient51765" />
    <radialGradient
       id="radialGradient5244"
       cx="25"
       cy="12"
       r="7.5"
       fx="25"
       fy="12"
       gradientTransform="matrix(0,2.9755329,-1.5333334,0,50.911001,-73.192276)"
       gradientUnits="userSpaceOnUse"
       xlink:href="#linearGradient3690-9" />
    <linearGradient
       id="linearGradient3690-9">
      <stop
         id="stop3692-0"
         offset="0"
         style="stop-color:#ffeb9f" />
      <stop
         id="stop3694-0"
         offset=".262"
         style="stop-color:#ffd57e" />
      <stop
         id="stop3696-74"
         offset=".661"
         style="stop-color:#ffbc43" />
      <stop
         id="stop3698-1"
         offset="1"
         style="stop-color:#ff921a" />
    </linearGradient>
    <radialGradient
       id="radialGradient5263"
       cx="25"
       cy="12"
       r="7.5"
       fx="25"
       fy="12"
       gradientTransform="matrix(0,2.9755329,-1.5333334,0,49.838001,-70.656095)"
       gradientUnits="userSpaceOnUse"
       xlink:href="#linearGradient3690-9-0" />
    <linearGradient
       id="linearGradient3690-9-0">
      <stop
         id="stop3692-0-0"
         offset="0"
         style="stop-color:#ffeb9f" />
      <stop
         id="stop3694-0-9"
         offset=".262"
         style="stop-color:#ffd57e" />
      <stop
         id="stop3696-74-4"
         offset=".661"
         style="stop-color:#ffbc43" />
      <stop
         id="stop3698-1-2"
         offset="1"
         style="stop-color:#ff921a" />
    </linearGradient>
    <radialGradient
       id="radialGradient5303"
       cx="25"
       cy="12"
       r="7.5"
       fx="25"
       fy="12"
       gradientTransform="matrix(0,2.9755329,-1.5333334,0,43.400001,-67.388322)"
       gradientUnits="userSpaceOnUse"
       xlink:href="#linearGradient3690-9-0-4" />
    <linearGradient
       id="linearGradient3690-9-0-4">
      <stop
         id="stop3692-0-0-8"
         offset="0"
         style="stop-color:#ffeb9f" />
      <stop
         id="stop3694-0-9-4"
         offset=".262"
         style="stop-color:#ffd57e" />
      <stop
         id="stop3696-74-4-3"
         offset=".661"
         style="stop-color:#ffbc43" />
      <stop
         id="stop3698-1-2-4"
         offset="1"
         style="stop-color:#ff921a" />
    </linearGradient>
    <linearGradient
       id="linearGradient7652-827">
      <stop
         id="stop3225"
         offset="0"
         style="stop-color:#5e5c64" />
      <stop
         id="stop3227"
         offset="1"
         style="stop-color:#5e5c64;stop-opacity:0" />
    </linearGradient>
    <linearGradient
       id="linearGradient7576-259">
      <stop
         id="stop3231"
         offset="0"
         style="stop-color:#3f3f3f" />
      <stop
         id="stop3233"
         offset="1"
         style="stop-color:#6c6c6c;stop-opacity:0" />
    </linearGradient>
    <linearGradient
       id="linearGradient5448"
       x1="37.625"
       x2="38.875"
       y1="40.313"
       y2="45.063"
       gradientTransform="matrix(-2.3059252,-0.19289566,0.19289566,-2.3059252,105.59662,57.135264)"
       gradientUnits="userSpaceOnUse"
       xlink:href="#linearGradient7652-827" />
    <linearGradient
       id="linearGradient5450"
       x1="38.75"
       x2="40.125"
       y1="40.625"
       y2="46.563"
       gradientTransform="matrix(-0.72060161,-0.06027989,0.06027989,-0.72060161,36.517347,49.104769)"
       gradientUnits="userSpaceOnUse"
       xlink:href="#linearGradient7576-259" />
    <linearGradient
       id="linearGradient3089"
       x1="27"
       x2="27"
       y1="9"
       y2="27"
       gradientTransform="translate(17.265545,-4.9993632)"
       gradientUnits="userSpaceOnUse"
       xlink:href="#linearGradient3642" />
    <linearGradient
       id="linearGradient4358"
       x1="88"
       x2="488"
       y1="88"
       y2="488"
       gradientUnits="userSpaceOnUse"
       xlink:href="#linearGradient4360" />
    <linearGradient
       id="linearGradient4360">
      <stop
         id="stop4362"
         offset="0"
         style="stop-color:#000000;stop-opacity:0.58823532" />
      <stop
         id="stop4366"
         offset="1"
         style="stop-color:#000000;stop-opacity:0.20555556" />
    </linearGradient>
    <filter
       style="color-interpolation-filters:sRGB"
       id="filter4380"
       width="1.106"
       height="1.088"
       x="-.05"
       y="-.04">
      <feGaussianBlur
         id="feGaussianBlur4382"
         stdDeviation="8.48" />
    </filter>
    <filter
       style="color-interpolation-filters:sRGB"
       id="filter4346"
       width="1.026"
       height="1.022"
       x="-.01"
       y="-.01">
      <feGaussianBlur
         id="feGaussianBlur4348"
         stdDeviation="2.12" />
    </filter>
    <linearGradient
       id="e"
       x1="43.844"
       x2="-60"
       y1="234"
       y2="234"
       gradientTransform="matrix(1.0015,0,0,0.99993,72.09,56.015)"
       gradientUnits="userSpaceOnUse"
       xlink:href="#b" />
    <linearGradient
       id="b">
      <stop
         id="stop11"
         offset="0"
         stop-color="#d5d3cf" />
      <stop
         id="stop13"
         offset=".038"
         stop-color="#e3e2df" />
      <stop
         id="stop15"
         offset=".077"
         stop-color="#c0bfbc" />
      <stop
         id="stop17"
         offset=".923"
         stop-color="#c0bfbc" />
      <stop
         id="stop19"
         offset=".962"
         stop-color="#e3e2df" />
      <stop
         id="stop21"
         offset="1"
         stop-color="#d5d3cf" />
    </linearGradient>
    <clipPath
       clipPathUnits="userSpaceOnUse"
       id="clipPath606">
      <path
         d="m 1279.04,1574.14 c -13.44,0 -26.89,5.44 -37.15,16.32 v 0 l -175.54,186.2 -8.22,8.71 c -2.92,3.1 -5.45,6.51 -7.57,10.15 -0.02,0.05 -0.04,0.09 -0.06,0.12 0.02,0 0.05,0 0.07,0 -7.24,12.5 -9.69,27.67 -6.35,42.26 0,0.01 0,0.01 0.01,0.02 0.01,0.06 0.02,0.11 0.03,0.16 0.01,0.05 0.02,0.09 0.03,0.14 0,0 0.01,0.01 0.01,0.01 0.01,0.04 0.02,0.08 0.03,0.13 v 0 c 2.76,11.67 7.82,20.37 16.17,27.62 v 0 c 5.08,4.41 11.37,8.29 19.11,11.98 17.6,8.39 83.41,32.18 153.51,40.42 7.93,0.93 15.9,1.66 23.87,2.15 7.38,0.45 14.75,0.7 22.05,0.7 v 0 0 c 0.16,0 0.32,0 0.48,0 h 0.01 c 20.5,-0.03 41.56,-1.89 61.99,-4.84 13.18,-1.91 26.09,-4.28 38.42,-6.92 0.16,-0.03 0.32,-0.07 0.48,-0.1 0.03,-0.02 0.05,-0.04 0.08,-0.06 47.41,-10.2 86.18,-24.27 97.9,-31.31 v 0 c 0.02,-0.01 0.04,-0.03 0.07,-0.04 7.77,-4.69 14.23,-9.01 19.53,-13.69 0.03,0 0.06,-0.01 0.09,-0.01 0.05,-0.04 0.09,-0.08 0.13,-0.12 6.61,-5.87 11.31,-12.37 14.19,-21.03 0.51,-1.54 0.97,-3.15 1.36,-4.84 0.02,-0.06 0.03,-0.13 0.05,-0.19 1.02,-4.4 1.52,-8.85 1.52,-13.28 0.01,-14.61 -5.4,-28.85 -15.39,-39.43 L 1316.2,1590.46 c -10.27,-10.88 -23.71,-16.32 -37.16,-16.32"
         id="path604"
         inkscape:connector-curvature="0" />
    </clipPath>
    <radialGradient
       fx="0"
       fy="0"
       cx="0"
       cy="0"
       r="1"
       gradientUnits="userSpaceOnUse"
       gradientTransform="matrix(229.762,0,0,-229.762,1279.04,1747.69)"
       spreadMethod="pad"
       id="radialGradient612">
      <stop
         style="stop-opacity:1;stop-color:#f1da1e"
         offset="0"
         id="stop608" />
      <stop
         style="stop-opacity:1;stop-color:#fab20b"
         offset="1"
         id="stop610" />
    </radialGradient>
    <clipPath
       clipPathUnits="userSpaceOnUse"
       id="clipPath282">
      <path
         d="m 1043.34,1795.39 c 2.4,0 4.77,0.16 7.16,0.25 0.02,-0.03 0.04,-0.07 0.06,-0.12 -2.4,-0.09 -4.81,-0.13 -7.22,-0.13 m 0.88,42.51 c 0,0.01 0,0.01 0.01,0.02 -0.01,-0.01 -0.01,-0.01 -0.01,-0.02 m 0.07,0.32 c 0,0 0.01,0.01 0.01,0.01 0,0 -0.01,-0.01 -0.01,-0.01 m 0.04,0.14 c 0,0 0,0 0,0 v 0 m 16.17,27.62 c -166.566,100.57 -204.289,256.29 -206.516,382.91 -26.363,-46.42 -42.015,-102.86 -42.32,-163.78 0.781,157.42 103.734,285.28 230.426,286.11 -41.8,-0.28 -80.988,-14.45 -114.805,-38.88 84.975,-27.52 155.445,-84.73 208.805,-268.91 l 0.74,0.41 c 1.7,59.73 32.79,107.38 71.02,107.38 20.85,0 39.55,-14.25 52.57,-36.82 l 10.02,5.71 c -20.72,128.18 -110.12,225.84 -218.27,230.91 123.66,-5.79 222.82,-132.63 222.82,-287.72 0,-61.29 -15.49,-118.18 -41.87,-164.92 -70.1,-8.24 -135.91,-32.03 -153.51,-40.42 -7.74,-3.69 -14.03,-7.57 -19.12,-11.98 M 811.66,2083.3 v 0 c 0,0.11 0,0.21 0,0.32 0,-0.11 0,-0.21 0,-0.32 m 0,0.4 c 0,0.11 0,0.21 0,0.32 0,-0.11 0,-0.21 0,-0.32 m 0,0.34 c 0,0.1 0,0.2 0,0.31 0,-0.1 0,-0.21 0,-0.31 m 0,0.37 c 0,0.11 0.004,0.22 0.004,0.33 0,-0.11 -0.004,-0.22 -0.004,-0.33 m 0.004,0.34 c 0,0.12 0,0.23 0,0.35 0,-0.12 0,-0.23 0,-0.35 m 240.496,286.27 c -0.11,0 -0.21,0.01 -0.32,0.01 0.11,0 0.21,-0.01 0.32,-0.01 m -0.33,0.01 c -0.32,0.02 -0.64,0.03 -0.96,0.04 0.32,-0.01 0.64,-0.02 0.96,-0.04 m -0.98,0.04 c -0.1,0.01 -0.2,0.01 -0.31,0.02 0.11,-0.01 0.21,-0.01 0.31,-0.02 m -0.33,0.02 c -0.31,0.01 -0.63,0.02 -0.95,0.03 0.32,-0.01 0.64,-0.02 0.95,-0.03 m -0.98,0.03 c -0.09,0 -0.2,0.01 -0.3,0.01 0.11,0 0.2,-0.01 0.3,-0.01 m -0.33,0.01 c -0.1,0 -0.2,0.01 -0.31,0.01 0.11,0 0.21,-0.01 0.31,-0.01 m -0.31,0.01 c -0.21,0 -0.43,0.01 -0.64,0.02 0.21,-0.01 0.43,-0.02 0.64,-0.02 m -0.66,0.02 c -0.1,0 -0.2,0 -0.3,0 0.1,0 0.2,0 0.3,0 m -0.34,0.01 c -0.1,0 -0.2,0 -0.3,0.01 0.1,-0.01 0.2,-0.01 0.3,-0.01 m -0.31,0.01 c -0.22,0 -0.42,0 -0.63,0.01 0.21,-0.01 0.42,-0.01 0.63,-0.01 m -0.66,0.01 c -0.1,0 -0.2,0 -0.3,0 0.1,0 0.2,0 0.3,0 m -0.34,0.01 c -0.09,0 -0.2,0 -0.29,0 0.1,0 0.19,0 0.29,0 m -0.33,0 c -0.2,0 -0.4,0 -0.6,0.01 0.2,-0.01 0.4,-0.01 0.6,-0.01 m -0.64,0.01 c -0.1,0 -0.2,0 -0.29,0 0.1,0 0.18,0 0.29,0 m -0.34,0 c -0.1,0 -0.2,0 -0.29,0 0.09,0 0.2,0 0.29,0 m -0.33,0 c -0.21,0.01 -0.4,0.01 -0.6,0.01 0.2,0 0.4,0 0.6,-0.01 m -2.85,0.01 c 0.08,0 0.16,0 0.24,0 -0.08,0 -0.16,0 -0.24,0 m 0.25,0 c 0.15,0 0.31,0 0.47,0 -0.16,0 -0.31,0 -0.47,0 m 1.96,0 c -0.1,0 -0.2,0 -0.29,0 0.1,0 0.18,0 0.29,0 m -0.34,0 c -0.1,0 -0.19,0 -0.29,0 0.09,0 0.19,0 0.29,0 m -1.1,0 c 0.07,0 0.11,0 0.17,0 -0.05,0 -0.11,0 -0.17,0 m 0.76,0 c -0.1,0 -0.19,0 -0.29,0 -0.08,0 -0.15,0 -0.23,0 0.07,0 0.15,0 0.23,0 0.1,0 0.19,0 0.29,0"
         id="path280"
         inkscape:connector-curvature="0" />
    </clipPath>
    <radialGradient
       fx="0"
       fy="0"
       cx="0"
       cy="0"
       r="1"
       gradientUnits="userSpaceOnUse"
       gradientTransform="matrix(271.252,0,0,-271.252,1043.33,2083.3)"
       spreadMethod="pad"
       id="radialGradient292">
      <stop
         style="stop-opacity:1;stop-color:#e9e9e9"
         offset="0"
         id="stop284" />
      <stop
         style="stop-opacity:1;stop-color:#e9e9e9"
         offset="0.44960085"
         id="stop286" />
      <stop
         style="stop-opacity:1;stop-color:#918f90"
         offset="0.963636"
         id="stop288" />
      <stop
         style="stop-opacity:1;stop-color:#918f90"
         offset="1"
         id="stop290" />
    </radialGradient>
    <clipPath
       clipPathUnits="userSpaceOnUse"
       id="clipPath262">
      <path
         d="m 1523.07,1862.89 c -8.4,0.01 -16.68,0.43 -24.85,1.25 -0.04,0.04 -0.08,0.08 -0.13,0.12 8.22,-0.83 16.53,-1.36 24.98,-1.37 m 0.58,0 c 0.04,0 0.07,0 0.11,0 -0.04,0 -0.07,0 -0.11,0 m 0.34,0 c 0.04,0 0.07,0 0.11,0 -0.04,0 -0.08,0 -0.11,0 m 0.4,0 c 0,0 0.02,0 0.03,0 -0.01,0 -0.03,0 -0.03,0 m 0.35,0.01 c 0.03,0 0.07,0 0.11,0 -0.04,0 -0.07,0 -0.11,0 m 0.33,0 c 0.04,0 0.07,0 0.11,0 -0.03,0 -0.07,0 -0.11,0 m 0.36,0 c 0.03,0 0.05,0 0.08,0 -0.03,0 -0.05,0 -0.08,0 m 0.39,0.01 c 0.04,0 0.08,0 0.12,0 -0.04,0 -0.08,0 -0.12,0 m 0.32,0 c 0.04,0 0.1,0 0.15,0 -0.05,0 -0.11,0 -0.15,0 m 0.33,0 c 0.05,0 0.09,0 0.14,0 -0.05,0 -0.1,0 -0.14,0 m 0.43,0.01 c 0.05,0 0.09,0 0.13,0 -0.04,0 -0.08,0 -0.13,0 m 0.32,0 c 0.05,0 0.1,0.01 0.16,0.01 -0.06,0 -0.11,-0.01 -0.16,-0.01 m 0.32,0.01 c 0.05,0 0.11,0 0.16,0 -0.05,0 -0.11,0 -0.16,0 m 0.35,0 c 0.09,0 0.18,0.01 0.27,0.01 -0.09,0 -0.18,-0.01 -0.27,-0.01 m 0.4,0.01 c 0.06,0 0.14,0.01 0.2,0.01 -0.07,0 -0.13,-0.01 -0.2,-0.01 m 0.3,0.01 c 0.07,0 0.14,0 0.21,0 -0.07,0 -0.14,0 -0.21,0 m 0.27,0 c 0.17,0.01 0.32,0.01 0.49,0.01 -0.17,0 -0.32,0 -0.49,-0.01 m 0.5,0.01 c 0.08,0 0.16,0.01 0.24,0.01 -0.08,0 -0.16,-0.01 -0.24,-0.01 m 0.3,0.01 c 0.08,0 0.16,0.01 0.24,0.01 -0.08,0 -0.17,-0.01 -0.24,-0.01 m 0.25,0.01 c 90.96,2.36 168.41,53.49 200.67,125 -92.32,-36.84 -169.91,-50.93 -237,-50.93 -51.57,0 -96.94,8.32 -138.07,21.04 35.26,3.16 63.17,44.78 63.17,95.64 0,52.92 -30.22,95.83 -67.5,95.83 -13.07,0 -25.28,-5.28 -35.62,-14.42 32.68,73.63 113.22,125.88 207.22,126.09 -10.41,-0.03 -20.62,-0.73 -30.65,-1.98 86.35,-47.19 124.81,-156.07 131.2,-212.32 0.33,-2.9 0.63,-5.56 0.93,-8.2 l 120.93,45.89 c -12.17,95.74 -100.72,171.14 -209.85,176.32 117.58,-5.58 211.32,-92.65 211.32,-198.88 0,-107.86 -96.64,-195.97 -216.75,-199.08 M 1478.4,1878 v 0 c 0,0 0,0 0,0 m -97.98,31.37 c -0.16,0.03 -0.32,0.07 -0.48,0.1 -20.02,14.99 -37.07,33.05 -50.21,53.37 0.07,-0.04 0.15,-0.07 0.22,-0.11 13.2,-20.34 30.37,-38.36 50.47,-53.36 m -29.4,48.52 c -0.01,0 -0.01,0 -0.02,0 0.01,0 0.01,0 0.02,0 m 184.32,303.05 c -0.11,0.01 -0.21,0.01 -0.32,0.02 0.11,-0.01 0.21,-0.01 0.32,-0.02 m -0.35,0.02 c -0.1,0 -0.2,0.01 -0.3,0.01 0.1,0 0.2,-0.01 0.3,-0.01 m -0.33,0.01 c -0.11,0.01 -0.21,0.01 -0.31,0.02 0.1,-0.01 0.2,-0.01 0.31,-0.02 m -0.32,0.02 c -0.76,0.03 -1.52,0.06 -2.28,0.09 0.76,-0.03 1.52,-0.06 2.28,-0.09 m -2.33,0.09 c -0.09,0 -0.16,0 -0.25,0.01 0.09,-0.01 0.16,-0.01 0.25,-0.01 m -0.35,0.01 c -0.08,0 -0.15,0.01 -0.24,0.01 0.09,0 0.16,-0.01 0.24,-0.01 m -0.34,0.01 c -0.07,0.01 -0.15,0.01 -0.22,0.01 0.07,0 0.14,0 0.22,-0.01 m -0.35,0.01 c -0.08,0 -0.13,0.01 -0.21,0.01 0.07,0 0.14,-0.01 0.21,-0.01 m -0.35,0.01 c -0.07,0.01 -0.13,0.01 -0.2,0.01 0.07,0 0.13,0 0.2,-0.01 m -0.34,0.01 c -0.07,0 -0.14,0.01 -0.21,0.01 0.07,0 0.14,-0.01 0.21,-0.01 m -0.35,0.01 c -0.07,0 -0.13,0 -0.2,0.01 0.07,-0.01 0.14,-0.01 0.2,-0.01 m -0.35,0.01 c -0.06,0 -0.13,0 -0.19,0.01 0.06,-0.01 0.13,-0.01 0.19,-0.01 m -0.35,0.01 c -0.06,0 -0.12,0 -0.18,0 0.06,0 0.12,0 0.18,0 m -0.33,0 c -0.07,0.01 -0.14,0.01 -0.21,0.01 0.07,0 0.14,0 0.21,-0.01 m -0.31,0.01 c -0.25,0.01 -0.51,0.01 -0.76,0.02 0.26,-0.01 0.51,-0.01 0.76,-0.02 m -0.92,0.02 c -0.05,0 -0.12,0 -0.17,0 0.06,0 0.11,0 0.17,0 m -0.34,0.01 c -0.06,0 -0.12,0 -0.18,0 0.06,0 0.12,0 0.18,0 m -0.35,0 c -0.06,0 -0.12,0 -0.17,0 0.05,0 0.11,0 0.17,0 m -0.35,0.01 c -0.05,0 -0.11,0 -0.17,0 0.06,0 0.11,0 0.17,0 m -0.35,0 c -0.06,0 -0.11,0 -0.16,0 0.05,0 0.1,0 0.16,0 m -0.35,0 c -0.05,0 -0.1,0 -0.16,0 0.05,0 0.11,0 0.16,0 m -0.35,0.01 c -0.05,0 -0.11,0 -0.16,0 0.06,0 0.1,0 0.16,0 m -0.35,0 c -0.05,0 -0.11,0 -0.16,0 0.06,0 0.1,0 0.16,0 m -0.36,0 c -0.04,0 -0.1,0 -0.15,0 0.06,0 0.1,0 0.15,0 m -0.35,0 c -0.04,0.01 -0.1,0.01 -0.14,0.01 0.05,0 0.09,0 0.14,-0.01 m -0.35,0.01 c -0.05,0 -0.09,0 -0.14,0 0.04,0 0.09,0 0.14,0 m -0.37,0 c -0.04,0 -0.08,0 -0.12,0 0.04,0 0.08,0 0.12,0 m -0.92,0 c 0.05,0 0.1,0 0.15,0 -0.05,0 -0.1,0 -0.15,0"
         id="path260"
         inkscape:connector-curvature="0" />
    </clipPath>
    <radialGradient
       fx="0"
       fy="0"
       cx="0"
       cy="0"
       r="1"
       gradientUnits="userSpaceOnUse"
       gradientTransform="matrix(221.58,0,0,-221.58,1523.33,2062.06)"
       spreadMethod="pad"
       id="radialGradient270">
      <stop
         style="stop-opacity:1;stop-color:#e9e9e9"
         offset="0"
         id="stop264" />
      <stop
         style="stop-opacity:1;stop-color:#e9e9e9"
         offset="0.46656709"
         id="stop266" />
      <stop
         style="stop-opacity:1;stop-color:#918f90"
         offset="1"
         id="stop268" />
    </radialGradient>
    <radialGradient
       inkscape:collect="always"
       xlink:href="#radialGradient612"
       id="radialGradient1904"
       gradientUnits="userSpaceOnUse"
       gradientTransform="matrix(229.762,0,0,-229.762,1279.04,1747.69)"
       cx="0"
       cy="0"
       fx="0"
       fy="0"
       r="1"
       spreadMethod="pad" />
  </defs>
  <g
     id="layer1"
     transform="translate(0,208)">
    <path
       style="opacity:0.1;filter:url(#filter4346)"
       d="M 141.84323,74 C 71.24979,74 63.65402,81.250835 64,151.98706 V 298 444.01294 C 63.65402,514.74917 71.24979,522 141.84323,522 H 434.15677 C 504.75021,522 513.9371,514.72348 512,444.01294 V 298 151.98706 C 512,81.249993 504.75021,74 434.15677,74 Z"
       transform="matrix(0.5,0,0,0.5,-14.116488,-228.82553)"
       id="path109" />
    <path
       d="M 141.84323,74 C 71.24979,74 63.65402,81.250835 64,151.98706 V 298 444.01294 C 63.65402,514.74917 71.24979,522 141.84323,522 H 434.15677 C 504.75021,522 513.9371,514.72348 512,444.01294 V 298 151.98706 C 512,81.249993 504.75021,74 434.15677,74 Z"
       transform="matrix(0.5,0,0,0.5,-14.116488,-228.82523)"
       style="opacity:0.3;fill:url(#linearGradient4358);filter:url(#filter4380)"
       id="path111" />
    <path
       style="opacity:0.1"
       d="m 55.695112,-194.82553 c -36.09881,0 -39.983002,3.69016 -39.80608,39.68984 v 74.310155 74.3101591 C 15.71211,29.484314 19.596302,33.174464 55.695112,33.174464 H 204.08243 c 36.09881,0 40.77464,-3.70276 39.80608,-39.6898399 V -80.825535 -155.13569 c 0,-36.00011 -3.70727,-39.68984 -39.80608,-39.68984 z"
       id="path113" />
    <path
       style="fill:#323232;fill-opacity:1"
       d="m 202.95648,-192.82554 c 35.29673,0 39.09461,3.62542 38.92162,38.99353 v 73.006465 73.0064791 C 242.05109,27.549054 238.25321,31.174464 202.95648,31.174464 H 56.79973 c -35.29671,0 -38.921609,-3.625 -38.921609,-38.9935299 V -80.825545 -153.83201 c 0,-35.36853 3.624899,-38.99353 38.921609,-38.99353 z"
       id="path115" />
    <path
       style="opacity:0.05;fill:#ffffff"
       d="m 17.877654,-80.825235 v 8 65.0058591 c 0,35.3685299 3.625164,38.9941399 38.921874,38.9941399 H 202.95578 c 35.29673,0 39.09486,-3.62602 38.92187,-38.9941399 v -65.0058591 -8 z"
       id="path117" />
    <path
       style="opacity:0.3;fill:#ffffff"
       d="m 56.805392,-192.82553 c -35.296728,0 -39.094869,3.62603 -38.921879,38.99414 v 2 c -0.17299,-35.36811 3.625151,-38.99414 38.921879,-38.99414 H 202.96163 c 35.29673,0 38.92188,3.62561 38.92188,38.99414 v -2 c 0,-35.36853 -3.62515,-38.99414 -38.92188,-38.99414 z"
       id="path119" />
    <path
       style="opacity:0.2"
       d="m 56.810792,31.174464 c -35.296731,0 -39.094874,-3.62603 -38.921884,-38.9941399 v -2 C 17.715918,25.548434 21.514061,29.174464 56.810792,29.174464 H 202.96703 c 35.29673,0 38.92188,-3.62561 38.92188,-38.9941399 v 2 c 0,35.3685299 -3.62515,38.9941399 -38.92188,38.9941399 z"
       id="path121" />
    <path
       d="m 131.11176,-81.17145 c -1.60822,0 -3.23172,0.07008 -4.85306,0.170667 2.99103,-5.859539 5.27534,-12.316427 6.68662,-19.199987 2.12897,7.585911 6.27967,14.438839 11.88539,20.101466 -4.52264,-0.65641 -9.18316,-1.072146 -13.71895,-1.072146 m 53.45144,-78.76915 c -23.61763,0 -43.62937,13.85461 -50.60044,33.02615 -4.04349,-32.32816 -26.87123,-57.09232 -54.422916,-57.09232 -30.415395,0 -55.068389,30.16421 -55.068389,67.37388 0,37.20749 24.652994,67.371697 55.068389,67.371697 1.695727,0 3.373945,-0.09846 5.030289,-0.282255 l 38.413077,40.7455456 c 2.24493,2.3805672 5.18783,3.5708686 8.12855,3.5708686 2.9429,0 5.8836,-1.1903014 8.13074,-3.5708686 l 40.20508,-42.6469346 c 2.84661,-3.017303 3.99535,-7.391173 3.03479,-11.53312 -0.094,-0.406974 -0.2188,-0.778947 -0.34133,-1.146535 0.80738,0.03282 1.60603,0.09403 2.42216,0.09403 29.40278,0 53.24138,-21.471159 53.24138,-47.955098 0,-26.48394 -23.8386,-47.9551 -53.24138,-47.9551"
       style="fill:#ffffff;fill-opacity:1;fill-rule:nonzero;stroke:none;stroke-width:0.2188032"
       id="path254"
       inkscape:connector-curvature="0" />
    <path
       d="m 148.24004,-92.499537 c -7.53994,0 -13.67519,-8.916253 -13.67519,-19.876093 0,-10.95767 6.13525,-19.8739 13.67519,-19.8739 7.53997,0 13.67521,8.91623 13.67521,19.8739 0,10.95984 -6.13524,19.876093 -13.67521,19.876093"
       style="fill:#231f20;fill-opacity:1;fill-rule:nonzero;stroke:none;stroke-width:0.2188032"
       id="path346"
       inkscape:connector-curvature="0" />
    <g
       id="g600"
       transform="matrix(0.21880321,0,0,-0.21880321,-148.74629,339.19983)">
      <g
         id="g602"
         clip-path="url(#clipPath606)">
        <path
           d="m 1279.04,1574.14 c -13.44,0 -26.89,5.44 -37.15,16.32 v 0 l -175.54,186.2 -8.22,8.71 c -2.92,3.1 -5.45,6.51 -7.57,10.15 -0.02,0.05 -0.04,0.09 -0.06,0.12 0.02,0 0.05,0 0.07,0 -7.24,12.5 -9.69,27.67 -6.35,42.26 0,0.01 0,0.01 0.01,0.02 0.01,0.06 0.02,0.11 0.03,0.16 0.01,0.05 0.02,0.09 0.03,0.14 0,0 0.01,0.01 0.01,0.01 0.01,0.04 0.02,0.08 0.03,0.13 v 0 c 2.76,11.67 7.82,20.37 16.17,27.62 v 0 c 5.08,4.41 11.37,8.29 19.11,11.98 17.6,8.39 83.41,32.18 153.51,40.42 7.93,0.93 15.9,1.66 23.87,2.15 7.38,0.45 14.75,0.7 22.05,0.7 v 0 0 c 0.16,0 0.32,0 0.48,0 h 0.01 c 20.5,-0.03 41.56,-1.89 61.99,-4.84 13.18,-1.91 26.09,-4.28 38.42,-6.92 0.16,-0.03 0.32,-0.07 0.48,-0.1 0.03,-0.02 0.05,-0.04 0.08,-0.06 47.41,-10.2 86.18,-24.27 97.9,-31.31 v 0 c 0.02,-0.01 0.04,-0.03 0.07,-0.04 7.77,-4.69 14.23,-9.01 19.53,-13.69 0.03,0 0.06,-0.01 0.09,-0.01 0.05,-0.04 0.09,-0.08 0.13,-0.12 6.61,-5.87 11.31,-12.37 14.19,-21.03 0.51,-1.54 0.97,-3.15 1.36,-4.84 0.02,-0.06 0.03,-0.13 0.05,-0.19 1.02,-4.4 1.52,-8.85 1.52,-13.28 0.01,-14.61 -5.4,-28.85 -15.39,-39.43 L 1316.2,1590.46 c -10.27,-10.88 -23.71,-16.32 -37.16,-16.32"
           style="fill:url(#radialGradient612);fill-opacity:1;fill-rule:nonzero;stroke:none"
           id="path614"
           inkscape:connector-curvature="0" />
        <path
           style="fill:#080808;fill-opacity:1;fill-rule:nonzero;stroke:none;stroke-width:0.21880321;opacity:0.2"
           d="M 79.462891 146.9375 C 79.265378 149.52578 79.845684 152.10657 81.121094 154.30859 L 81.107422 154.30859 C 81.111798 154.31516 81.114765 154.32304 81.119141 154.33398 C 81.583003 155.13043 82.136485 155.8764 82.775391 156.55469 L 84.574219 158.46094 L 122.98242 199.20117 C 125.22734 201.58175 128.17061 202.77344 131.11133 202.77344 C 134.05423 202.77344 136.99508 201.58175 139.24219 199.20117 L 179.44727 156.55469 C 181.63311 154.23975 182.81664 151.12445 182.81445 147.92773 C 182.81445 147.62913 182.78456 147.33023 182.76367 147.03125 C 182.52531 149.8334 181.38045 152.50733 179.44727 154.55469 L 139.24219 197.20117 C 136.99508 199.58175 134.05423 200.77344 131.11133 200.77344 C 128.17061 200.77344 125.22734 199.58175 122.98242 197.20117 L 84.574219 156.46094 L 82.775391 154.55469 C 82.136485 153.8764 81.583003 153.13043 81.119141 152.33398 C 81.114765 152.32304 81.111798 152.31516 81.107422 152.30859 L 81.121094 152.30859 C 80.17597 150.67682 79.615422 148.83416 79.462891 146.9375 z "
           transform="matrix(4.5703169,0,0,-4.5703169,679.81768,2500.8766)"
           id="path1909" />
      </g>
    </g>
    <path
       style="fill:#231f20;fill-opacity:1;stroke-width:1.64102399"
       d="m 132.80628,-115.9823 a 17.875622,26.217583 0 0 1 -17.87562,26.217583 17.875622,26.217583 0 0 1 -17.875625,-26.217583 17.875622,26.217583 0 0 1 17.875625,-26.21758 17.875622,26.217583 0 0 1 17.87562,26.21758 z"
       id="path1890" />
    <g
       transform="matrix(0.21880321,0,0,-0.21880321,-148.74629,339.19983)"
       id="g1896">
      <g
         clip-path="url(#clipPath606)"
         id="g1894">
        <path
           style="fill:#ffffff;fill-opacity:1;fill-rule:nonzero;stroke:none;stroke-width:0.21880321;opacity:0.3"
           d="M 131.11133 126.82812 C 129.51406 126.82812 127.90188 126.88396 126.28711 126.98242 C 124.54325 127.08964 122.79956 127.24768 121.06445 127.45117 C 105.72635 129.25411 91.327499 134.46112 87.476562 136.29688 C 85.783026 137.10426 84.406442 137.95305 83.294922 138.91797 C 81.467915 140.50429 80.359756 142.4075 79.755859 144.96094 C 79.753671 144.97188 79.752188 144.97953 79.75 144.98828 L 79.748047 144.99219 C 79.745859 145.00313 79.742422 145.01054 79.740234 145.02148 C 79.738046 145.03242 79.736563 145.04351 79.734375 145.05664 C 79.732187 145.05883 79.732422 145.05836 79.732422 145.06055 C 79.437629 146.34828 79.359762 147.65514 79.462891 148.9375 C 79.5107 148.31098 79.589999 147.68269 79.732422 147.06055 C 79.732422 147.05836 79.732187 147.05883 79.734375 147.05664 C 79.736563 147.04351 79.738046 147.03242 79.740234 147.02148 C 79.742422 147.01054 79.745859 147.00313 79.748047 146.99219 L 79.75 146.98828 C 79.752188 146.97953 79.753671 146.97188 79.755859 146.96094 C 80.359756 144.4075 81.467915 142.50429 83.294922 140.91797 C 84.406442 139.95305 85.783026 139.10426 87.476562 138.29688 C 91.327499 136.46112 105.72635 131.25411 121.06445 129.45117 C 122.79956 129.24768 124.54325 129.08964 126.28711 128.98242 C 127.90188 128.88396 129.51406 128.82812 131.11133 128.82812 L 131.2168 128.82812 L 131.21875 128.82812 C 135.70422 128.83469 140.31305 129.24125 144.7832 129.88672 C 147.66703 130.30463 150.49161 130.8247 153.18945 131.40234 C 153.22446 131.40891 153.25991 131.41726 153.29492 131.42383 C 153.30149 131.4282 153.30594 131.43312 153.3125 131.4375 C 163.68596 133.66929 172.16805 136.74673 174.73242 138.28711 C 174.7368 138.2893 174.74148 138.29469 174.74805 138.29688 C 176.44815 139.32306 177.86183 140.26702 179.02148 141.29102 C 179.02805 141.29102 179.03445 141.29297 179.04102 141.29297 C 179.05196 141.30172 179.05961 141.31156 179.06836 141.32031 C 180.51465 142.60469 181.54367 144.02704 182.17383 145.92188 C 182.28542 146.25883 182.38537 146.61069 182.4707 146.98047 C 182.47508 146.9936 182.47805 147.00836 182.48242 147.02148 C 182.63685 147.68764 182.71674 148.35969 182.76367 149.03125 C 182.79483 148.66502 182.81471 148.29724 182.81445 147.92773 C 182.81445 146.95844 182.7056 145.98422 182.48242 145.02148 C 182.47805 145.00836 182.47508 144.9936 182.4707 144.98047 C 182.38537 144.61069 182.28542 144.25883 182.17383 143.92188 C 181.54367 142.02704 180.51465 140.60469 179.06836 139.32031 C 179.05961 139.31156 179.05196 139.30172 179.04102 139.29297 C 179.03445 139.29297 179.02805 139.29102 179.02148 139.29102 C 177.86183 138.26702 176.44815 137.32306 174.74805 136.29688 C 174.74148 136.29469 174.7368 136.2893 174.73242 136.28711 C 172.16805 134.74673 163.68596 131.66929 153.3125 129.4375 C 153.30594 129.43312 153.30149 129.4282 153.29492 129.42383 C 153.25991 129.41726 153.22446 129.40891 153.18945 129.40234 C 150.49161 128.8247 147.66703 128.30463 144.7832 127.88672 C 140.31305 127.24125 135.70422 126.83469 131.21875 126.82812 L 131.2168 126.82812 L 131.11133 126.82812 z "
           transform="matrix(4.5703169,0,0,-4.5703169,679.81768,2500.8766)"
           id="path1892" />
      </g>
    </g>
    <g
       id="g1902"
       transform="matrix(0.21880321,0,0,-0.21880321,-148.74629,341.19983)">
      <g
         id="g1900"
         clip-path="url(#clipPath606)" />
    </g>
  </g>
</svg>
