<?xml version="1.0" encoding="UTF-8" standalone="no"?>
<svg
   xmlns:osb="http://www.openswatchbook.org/uri/2009/osb"
   xmlns:dc="http://purl.org/dc/elements/1.1/"
   xmlns:cc="http://creativecommons.org/ns#"
   xmlns:rdf="http://www.w3.org/1999/02/22-rdf-syntax-ns#"
   xmlns:svg="http://www.w3.org/2000/svg"
   xmlns="http://www.w3.org/2000/svg"
   xmlns:xlink="http://www.w3.org/1999/xlink"
   xmlns:sodipodi="http://sodipodi.sourceforge.net/DTD/sodipodi-0.dtd"
   xmlns:inkscape="http://www.inkscape.org/namespaces/inkscape"
   width="256"
   height="256"
   version="1.1"
   id="svg48"
   sodipodi:docname="file-roller.svg"
   inkscape:version="0.92.3 (2405546, 2018-03-11)">
  <metadata
     id="metadata52">
    <rdf:RDF>
      <cc:Work
         rdf:about="">
        <dc:format>image/svg+xml</dc:format>
        <dc:type
           rdf:resource="http://purl.org/dc/dcmitype/StillImage" />
      </cc:Work>
    </rdf:RDF>
  </metadata>
  <sodipodi:namedview
     pagecolor="#ffffff"
     bordercolor="#666666"
     borderopacity="1"
     objecttolerance="10"
     gridtolerance="10"
     guidetolerance="10"
     inkscape:pageopacity="0"
     inkscape:pageshadow="2"
     inkscape:window-width="808"
     inkscape:window-height="480"
     id="namedview50"
     showgrid="false"
     inkscape:zoom="0.921875"
     inkscape:cx="128"
     inkscape:cy="128"
     inkscape:window-x="0"
     inkscape:window-y="34"
     inkscape:window-maximized="0"
     inkscape:current-layer="svg48" />
  <defs
     id="defs24">
    <linearGradient
       id="linearGradient5606"
       osb:paint="solid">
      <stop
         id="stop5608"
         offset="0"
         style="stop-color:#000000" />
    </linearGradient>
    <linearGradient
       id="linearGradient4526"
       osb:paint="solid">
      <stop
         id="stop4528"
         offset="0"
         style="stop-color:#ffffff" />
    </linearGradient>
    <linearGradient
       id="linearGradient3600-4"
       osb:paint="gradient">
      <stop
         id="stop3602-7"
         offset="0"
         style="stop-color:#f4f4f4" />
      <stop
         id="stop3604-6"
         offset="1"
         style="stop-color:#dbdbdb" />
    </linearGradient>
    <filter
       style="color-interpolation-filters:sRGB"
       id="filter946"
       width="1.555"
       height="1.067"
       x="-.28"
       y="-.03">
      <feGaussianBlur
         id="feGaussianBlur948"
         stdDeviation="1.85" />
    </filter>
    <linearGradient
       id="linearGradient4226"
       x1="494.345"
       x2="4.414"
       y1="386.295"
       y2="169.657"
       gradientTransform="matrix(0,-0.453125,-0.45311204,0,252.76267,239.24798)"
       gradientUnits="userSpaceOnUse"
       xlink:href="#linearGradient876" />
    <linearGradient
       id="linearGradient876">
      <stop
         style="stop-color:#aea795"
         id="stop872"
         offset="0" />
      <stop
         style="stop-color:#c8c4b7"
         id="stop874"
         offset="1" />
    </linearGradient>
    <linearGradient
       id="linearGradient4358"
       x1="88"
       x2="488"
       y1="88"
       y2="488"
       gradientUnits="userSpaceOnUse"
       xlink:href="#linearGradient4360" />
    <linearGradient
       id="linearGradient4360">
      <stop
         id="stop4362"
         offset="0"
         style="stop-color:#000000;stop-opacity:0.58823532" />
      <stop
         style="stop-color:#000000;stop-opacity:0"
         id="stop4364"
         offset=".88" />
      <stop
         id="stop4366"
         offset="1"
         style="stop-color:#000000" />
    </linearGradient>
    <filter
       style="color-interpolation-filters:sRGB"
       id="filter4380"
       width="1.106"
       height="1.088"
       x="-.05"
       y="-.04">
      <feGaussianBlur
         id="feGaussianBlur4382"
         stdDeviation="8.48" />
    </filter>
    <filter
       style="color-interpolation-filters:sRGB"
       id="filter4346"
       width="1.026"
       height="1.022"
       x="-.01"
       y="-.01">
      <feGaussianBlur
         id="feGaussianBlur4348"
         stdDeviation="2.12" />
    </filter>
  </defs>
  <path
     style="opacity:0.1;filter:url(#filter4346)"
     d="M 189.84323,74 C 119.24979,74 111.65402,81.250835 112,151.98706 V 298 444.01294 C 111.65402,514.74917 119.24979,522 189.84323,522 H 386.15677 C 456.75021,522 462.16345,514.72616 464,444.01294 V 298 151.98706 C 464,81.249993 456.75021,74 386.15677,74 Z"
     transform="matrix(0.5,0,0,0.5,-17.194334,-20.752013)"
     id="path26"
     inkscape:connector-curvature="0" />
  <path
     d="M 189.84323,74 C 119.24979,74 111.65402,81.250835 112,151.98706 V 298 444.01294 C 111.65402,514.74917 119.24979,522 189.84323,522 H 386.15677 C 456.75021,522 464,514.75001 464,444.01294 V 298 151.98706 C 464,81.249993 456.75021,74 386.15677,74 Z"
     transform="matrix(0.5,0,0,0.5,-17.194334,-20.752013)"
     style="opacity:0.3;fill:url(#linearGradient4358);filter:url(#filter4380)"
     id="path28"
     inkscape:connector-curvature="0" />
  <path
     style="opacity:0.1"
     d="m 76.617266,13.247988 c -36.09881,0 -39.983,3.690157 -39.80608,39.689841 v 74.310161 74.31015 c -0.17692,35.99969 3.70727,39.68984 39.80608,39.68984 H 177.00459 c 36.09881,0 39.80608,-3.68973 39.80608,-39.68984 V 127.24799 52.937829 c 0,-36.000113 -3.70727,-39.689841 -39.80608,-39.689841 z"
     id="path30"
     inkscape:connector-curvature="0" />
  <path
     style="fill:url(#linearGradient4226)"
     d="m 175.87865,15.247988 c 35.29673,0 39.09461,3.625417 38.92162,38.99353 v 73.006472 73.00646 c 0.17299,35.36812 -3.62489,38.99353 -38.92162,38.99353 H 77.721886 c -35.29672,0 -38.92162,-3.625 -38.92162,-38.99353 V 127.24799 54.241518 c 0,-35.368534 3.6249,-38.99353 38.92162,-38.99353 z"
     id="path32"
     inkscape:connector-curvature="0" />
  <path
     style="opacity:0.3;fill:#ffffff"
     d="m 77.727546,15.247988 c -35.29673,0 -39.09487,3.626028 -38.92188,38.994141 v 2 c -0.17299,-35.368113 3.62515,-38.994142 38.92188,-38.994142 h 98.156244 c 35.29673,0 38.92188,3.625608 38.92188,38.994142 v -2 c 0,-35.368534 -3.62515,-38.994141 -38.92188,-38.994141 z"
     id="path34"
     inkscape:connector-curvature="0" />
  <path
     style="opacity:0.1;fill:#ffffff"
     d="M 126.80567,15.247988 V 239.24798 h 49.07227 c 35.29673,0 39.09486,-3.62602 38.92187,-38.99414 V 127.24799 54.242129 C 214.9728,18.874016 211.17467,15.247988 175.87794,15.247988 Z"
     id="path36"
     inkscape:connector-curvature="0" />
  <path
     d="m 126.80567,15.247981 v 7.999999 h 8 v -7.999999 z m 0,7.999999 h -8 v 8 h 8 z m 0,8 v 8 h 8 v -8 z m 0,8 h -8 v 8.000001 h 8 z m 0,8.000001 v 8 h 8 v -8 z m 0,8 h -8 v 7.999999 h 8 z m 0,7.999999 v 7.999998 h 8 V 63.24798 Z m 0,7.999998 h -8 v 7.999999 h 8 z m 0,7.999999 v 8 h 8 v -8 z m 0,8 h -8 v 8 h 8 z m 0,8 v 8.000003 h 8 v -8.000003 z m 0,8.000003 h -8 v 8 h 8 z m 0,8 v 8.00001 h 8 v -8.00001 z"
     style="opacity:0.1"
     id="path38"
     inkscape:connector-curvature="0" />
  <path
     style="opacity:0.2;filter:url(#filter946)"
     d="m 118.80567,17.247978 v 8 h 8 v -8 z m 8,8 v 8 h 8 v -8 z m 0,8 h -8 v 8 h 8 z m 0,8 v 8.000001 h 8 v -8.000001 z m 0,8.000001 h -8 v 8 h 8 z m 0,8 v 7.999999 h 8 v -7.999999 z m 0,7.999999 h -8 v 7.999999 h 8 z m 0,7.999999 v 8 h 8 v -8 z m 0,8 h -8 v 8 h 8 z m 0,8 v 8 h 8 v -8 z m 0,8 h -8 v 8.000003 h 8 z m 0,8.000003 v 8.00001 h 8 v -8.00001 z m 0,8.00001 h -8 v 8 30 c 0,1.10799 0.892,1.99999 2,1.99999 h 12 c 1.108,0 2,-0.892 2,-1.99999 v -30 h -8 z m -4,28 h 8 v 8 h -8 z"
     id="path40"
     inkscape:connector-curvature="0" />
  <path
     style="fill:#faf8f6"
     d="m 118.80567,119.24799 v 30 c 0,1.108 0.892,2 2,2 h 12 c 1.108,0 2,-0.892 2,-2 v -30 z m 4,20 h 8 v 8 h -8 z"
     id="path42"
     inkscape:connector-curvature="0" />
  <path
     style="fill:#f1f0e9"
     d="m 126.80567,15.247981 v 7.999999 h -8 v -7.999999 z m 0,7.999999 h 8 v 8 h -8 z m 0,8 v 8 h -8 v -8 z m 0,8 h 8 v 8.000001 h -8 z m 0,8.000001 v 8 h -8 v -8 z m 0,8 h 8 v 7.999999 h -8 z m 0,7.999999 v 7.999998 h -8 V 63.24798 Z m 0,7.999998 h 8 v 7.999999 h -8 z m 0,7.999999 v 8 h -8 v -8 z m 0,8 h 8 v 8 h -8 z m 0,8 v 8.000003 h -8 v -8.000003 z m 0,8.000003 h 8 v 8 h -8 z m 0,8 v 8.00001 h -8 v -8.00001 z"
     id="path44"
     inkscape:connector-curvature="0" />
  <path
     style="opacity:0.2"
     d="m 77.732946,239.24798 c -35.296735,0 -39.094875,-3.62603 -38.921885,-38.99414 v -2 c -0.17299,35.36811 3.62515,38.99414 38.921885,38.99414 h 98.156244 c 35.29673,0 38.92188,-3.62561 38.92188,-38.99414 v 2 c 0,35.36853 -3.62515,38.99414 -38.92188,38.99414 z"
     id="path46"
     inkscape:connector-curvature="0" />
</svg>
