<svg height="256" width="256" xmlns="http://www.w3.org/2000/svg" xmlns:xlink="http://www.w3.org/1999/xlink">
  <filter id="filter920" color-interpolation-filters="sRGB" height="1.024" width="1.024" x="-.01" y="-.01">
    <feGaussianBlur stdDeviation="1.14"/>
  </filter>
  <filter id="filter934" color-interpolation-filters="sRGB" height="1.096" width="1.096" x="-.05" y="-.05">
    <feGaussianBlur stdDeviation="4.56"/>
  </filter>
  <path d="m15.559325 18.991369v10.065136c4.208819 0 7.633552 3.424636 7.633552 7.632034 0 4.210001-3.424733 7.634637-7.633552 7.634637v10.065135c4.208819 0 7.633552 3.424617 7.633552 7.632015 0 4.210002-3.424733 7.634637-7.633552 7.634637v10.065136c4.208819 0 7.633552 3.424636 7.633552 7.637239 0 4.212624-3.424733 7.637241-7.633552 7.637241v10.065141c4.208819 0 7.633552 3.42202 7.633552 7.63202s-3.424733 7.63464-7.633552 7.63464v10.06514c4.208819 0 7.633552 3.42201 7.633552 7.63201 0 4.21001-3.424733 7.63464-7.633552 7.63464v10.06513c4.208819 0 7.633552 3.42202 7.633552 7.63202 0 4.21002-3.424733 7.63464-7.633552 7.63464v10.06514c4.208819 0 7.633552 3.42201 7.633552 7.63203 0 4.21-3.424733 7.63463-7.633552 7.63463v10.06515c4.208819 0 7.633552 3.422 7.633552 7.63201 0 4.21-3.424733 7.63463-7.633552 7.63463v10.07034c2.009179 0 3.976605.81278 5.398684 2.23482 1.419462 1.41943 2.234868 3.38679 2.234868 5.39722h10.065477c0-4.21 3.424733-7.63204 7.633572-7.63204 4.208849 0 7.633572 3.42204 7.633572 7.63204h10.065467c0-4.21 3.424723-7.63204 7.633572-7.63204 4.208839 0 7.633572 3.42204 7.633572 7.63204h10.065457c0-4.21 3.424753-7.63204 7.633572-7.63204 4.208839 0 7.633572 3.42204 7.633572 7.63204h10.06546c0-4.21 3.42476-7.63204 7.63359-7.63204s7.63358 3.42204 7.63358 7.63204h10.06545c0-4.21 3.42474-7.63204 7.63357-7.63204s7.63359 3.42204 7.63359 7.63204h10.06545c0-4.21 3.42474-7.63204 7.63358-7.63204 4.20882 0 7.63357 3.42204 7.63357 7.63204h10.06546c0-4.21 3.42473-7.63204 7.63357-7.63204s7.63357 3.42204 7.63357 7.63204h10.06546c0-4.21 3.42475-7.63204 7.63359-7.63204 4.20883 0 7.63356 3.42204 7.63356 7.63204h10.07068c0-2.01043.81543-3.97779 2.23749-5.39722 1.41948-1.42204 3.38691-2.23482 5.39739-2.23482v-10.06513c-4.21015 0-7.63488-3.42462-7.63488-7.63462 0-4.21002 3.42473-7.63202 7.63488-7.63202v-10.06514c-4.21015 0-7.63488-3.42462-7.63488-7.63464 0-4.21 3.42473-7.63202 7.63488-7.63202v-10.06514c-4.21015 0-7.63488-3.42463-7.63488-7.63463s3.42473-7.63202 7.63488-7.63202v-10.06514c-4.21015 0-7.63488-3.42463-7.63488-7.63463 0-4.21002 3.42473-7.63203 7.63488-7.63203v-10.06514c-4.21015 0-7.63488-3.42461-7.63488-7.63461 0-4.21002 3.42473-7.63204 7.63488-7.63204v-10.065136c-4.21015 0-7.63488-3.424617-7.63488-7.63724 0-4.212624 3.42473-7.63724 7.63488-7.63724v-10.065136c-4.21015 0-7.63488-3.424636-7.63488-7.634636 0-4.207398 3.42473-7.632035 7.63488-7.632035v-10.065136c-4.21015 0-7.63488-3.424617-7.63488-7.634617 0-4.207417 3.42473-7.632034 7.63488-7.632034v-10.070361c-2.01048 0-3.97791-.815385-5.39739-2.234817-1.42206-1.422018-2.23747-3.389391-2.23747-5.399801h-10.06548c0 4.210001-3.42473 7.634618-7.63357 7.634618-4.20883 0-7.63357-3.424617-7.63357-7.634618h-10.06546c0 4.210001-3.42473 7.634618-7.63357 7.634618-4.20885 0-7.63358-3.424617-7.63358-7.634618h-10.06546c0 4.210001-3.42474 7.634618-7.63359 7.634618-4.20882 0-7.63355-3.424617-7.63355-7.634618h-10.06548c0 4.210001-3.42473 7.634618-7.63355 7.634618-4.20884 0-7.63359-3.424617-7.63359-7.634618h-10.06546c0 4.210001-3.42473 7.634618-7.63357 7.634618-4.20885 0-7.63358-3.424617-7.63358-7.634618h-10.06547c0 4.210001-3.424721 7.634618-7.63357 7.634618-4.208839 0-7.633572-3.424617-7.633572-7.634618h-10.065457c0 4.210001-3.424733 7.634618-7.633572 7.634618s-7.633593-3.424617-7.633593-7.634618h-10.065456c0 4.210001-3.424733 7.634618-7.633573 7.634618-4.208829 0-7.633572-3.424617-7.633572-7.634618h-10.070688c0 2.01041-.815406 3.977783-2.234868 5.399801-1.422079 1.419432-3.389505 2.234817-5.398684 2.234817z" filter="url(#filter934)" opacity=".1"/>
  <path d="m15.559325 18.991369v10.065136c4.208819 0 7.633552 3.424636 7.633552 7.632034 0 4.210001-3.424733 7.634637-7.633552 7.634637v10.065135c4.208819 0 7.633552 3.424617 7.633552 7.632015 0 4.210002-3.424733 7.634637-7.633552 7.634637v10.065136c4.208819 0 7.633552 3.424636 7.633552 7.637239 0 4.212624-3.424733 7.637241-7.633552 7.637241v10.065141c4.208819 0 7.633552 3.42202 7.633552 7.63202s-3.424733 7.63464-7.633552 7.63464v10.06514c4.208819 0 7.633552 3.42201 7.633552 7.63201 0 4.21001-3.424733 7.63464-7.633552 7.63464v10.06513c4.208819 0 7.633552 3.42202 7.633552 7.63202 0 4.21002-3.424733 7.63464-7.633552 7.63464v10.06514c4.208819 0 7.633552 3.42201 7.633552 7.63203 0 4.21-3.424733 7.63463-7.633552 7.63463v10.06515c4.208819 0 7.633552 3.422 7.633552 7.63201 0 4.21-3.424733 7.63463-7.633552 7.63463v10.07034c2.009179 0 3.976605.81278 5.398684 2.23482 1.419462 1.41943 2.234868 3.38679 2.234868 5.39722h10.065477c0-4.21 3.424733-7.63204 7.633572-7.63204 4.208849 0 7.633572 3.42204 7.633572 7.63204h10.065467c0-4.21 3.424723-7.63204 7.633572-7.63204 4.208839 0 7.633572 3.42204 7.633572 7.63204h10.065457c0-4.21 3.424753-7.63204 7.633572-7.63204 4.208839 0 7.633572 3.42204 7.633572 7.63204h10.06546c0-4.21 3.42476-7.63204 7.63359-7.63204s7.63358 3.42204 7.63358 7.63204h10.06545c0-4.21 3.42474-7.63204 7.63357-7.63204s7.63359 3.42204 7.63359 7.63204h10.06545c0-4.21 3.42474-7.63204 7.63358-7.63204 4.20882 0 7.63357 3.42204 7.63357 7.63204h10.06546c0-4.21 3.42473-7.63204 7.63357-7.63204s7.63357 3.42204 7.63357 7.63204h10.06546c0-4.21 3.42475-7.63204 7.63359-7.63204 4.20883 0 7.63356 3.42204 7.63356 7.63204h10.07068c0-2.01043.81543-3.97779 2.23749-5.39722 1.41948-1.42204 3.38691-2.23482 5.39739-2.23482v-10.06513c-4.21015 0-7.63488-3.42462-7.63488-7.63462 0-4.21002 3.42473-7.63202 7.63488-7.63202v-10.06514c-4.21015 0-7.63488-3.42462-7.63488-7.63464 0-4.21 3.42473-7.63202 7.63488-7.63202v-10.06514c-4.21015 0-7.63488-3.42463-7.63488-7.63463s3.42473-7.63202 7.63488-7.63202v-10.06514c-4.21015 0-7.63488-3.42463-7.63488-7.63463 0-4.21002 3.42473-7.63203 7.63488-7.63203v-10.06514c-4.21015 0-7.63488-3.42461-7.63488-7.63461 0-4.21002 3.42473-7.63204 7.63488-7.63204v-10.065136c-4.21015 0-7.63488-3.424617-7.63488-7.63724 0-4.212624 3.42473-7.63724 7.63488-7.63724v-10.065136c-4.21015 0-7.63488-3.424636-7.63488-7.634636 0-4.207398 3.42473-7.632035 7.63488-7.632035v-10.065136c-4.21015 0-7.63488-3.424617-7.63488-7.634617 0-4.207417 3.42473-7.632034 7.63488-7.632034v-10.070361c-2.01048 0-3.97791-.815385-5.39739-2.234817-1.42206-1.422018-2.23747-3.389391-2.23747-5.399801h-10.06548c0 4.210001-3.42473 7.634618-7.63357 7.634618-4.20883 0-7.63357-3.424617-7.63357-7.634618h-10.06546c0 4.210001-3.42473 7.634618-7.63357 7.634618-4.20885 0-7.63358-3.424617-7.63358-7.634618h-10.06546c0 4.210001-3.42474 7.634618-7.63359 7.634618-4.20882 0-7.63355-3.424617-7.63355-7.634618h-10.06548c0 4.210001-3.42473 7.634618-7.63355 7.634618-4.20884 0-7.63359-3.424617-7.63359-7.634618h-10.06546c0 4.210001-3.42473 7.634618-7.63357 7.634618-4.20885 0-7.63358-3.424617-7.63358-7.634618h-10.06547c0 4.210001-3.424721 7.634618-7.63357 7.634618-4.208839 0-7.633572-3.424617-7.633572-7.634618h-10.065457c0 4.210001-3.424733 7.634618-7.633572 7.634618s-7.633593-3.424617-7.633593-7.634618h-10.065456c0 4.210001-3.424733 7.634618-7.633573 7.634618-4.208829 0-7.633572-3.424617-7.633572-7.634618h-10.070688c0 2.01041-.815406 3.977783-2.234868 5.399801-1.422079 1.419432-3.389505 2.234817-5.398684 2.234817z" filter="url(#filter920)" opacity=".1"/>
  <path d="m15.559325 18.991369v10.065136c4.208819 0 7.633552 3.424636 7.633552 7.632034 0 4.210001-3.424733 7.634637-7.633552 7.634637v10.065135c4.208819 0 7.633552 3.424617 7.633552 7.632015 0 4.210002-3.424733 7.634637-7.633552 7.634637v10.065136c4.208819 0 7.633552 3.424636 7.633552 7.637239 0 4.212624-3.424733 7.637241-7.633552 7.637241v10.065141c4.208819 0 7.633552 3.42202 7.633552 7.63202s-3.424733 7.63464-7.633552 7.63464v10.06514c4.208819 0 7.633552 3.42201 7.633552 7.63201 0 4.21001-3.424733 7.63464-7.633552 7.63464v10.06513c4.208819 0 7.633552 3.42202 7.633552 7.63202 0 4.21002-3.424733 7.63464-7.633552 7.63464v10.06514c4.208819 0 7.633552 3.42201 7.633552 7.63203 0 4.21-3.424733 7.63463-7.633552 7.63463v10.06515c4.208819 0 7.633552 3.422 7.633552 7.63201 0 4.21-3.424733 7.63463-7.633552 7.63463v10.07034c2.009179 0 3.976605.81278 5.398684 2.23482 1.419462 1.41943 2.234868 3.38679 2.234868 5.39722h10.065477c0-4.21 3.424733-7.63204 7.633572-7.63204 4.208849 0 7.633572 3.42204 7.633572 7.63204h10.065467c0-4.21 3.424723-7.63204 7.633572-7.63204 4.208839 0 7.633572 3.42204 7.633572 7.63204h10.065457c0-4.21 3.424753-7.63204 7.633572-7.63204 4.208839 0 7.633572 3.42204 7.633572 7.63204h10.06546c0-4.21 3.42476-7.63204 7.63359-7.63204s7.63358 3.42204 7.63358 7.63204h10.06545c0-4.21 3.42474-7.63204 7.63357-7.63204s7.63359 3.42204 7.63359 7.63204h10.06545c0-4.21 3.42474-7.63204 7.63358-7.63204 4.20882 0 7.63357 3.42204 7.63357 7.63204h10.06546c0-4.21 3.42473-7.63204 7.63357-7.63204s7.63357 3.42204 7.63357 7.63204h10.06546c0-4.21 3.42475-7.63204 7.63359-7.63204 4.20883 0 7.63356 3.42204 7.63356 7.63204h10.07068c0-2.01043.81543-3.97779 2.23749-5.39722 1.41948-1.42204 3.38691-2.23482 5.39739-2.23482v-10.06513c-4.21015 0-7.63488-3.42462-7.63488-7.63462 0-4.21002 3.42473-7.63202 7.63488-7.63202v-10.06514c-4.21015 0-7.63488-3.42462-7.63488-7.63464 0-4.21 3.42473-7.63202 7.63488-7.63202v-10.06514c-4.21015 0-7.63488-3.42463-7.63488-7.63463s3.42473-7.63202 7.63488-7.63202v-10.06514c-4.21015 0-7.63488-3.42463-7.63488-7.63463 0-4.21002 3.42473-7.63203 7.63488-7.63203v-10.06514c-4.21015 0-7.63488-3.42461-7.63488-7.63461 0-4.21002 3.42473-7.63204 7.63488-7.63204v-10.065136c-4.21015 0-7.63488-3.424617-7.63488-7.63724 0-4.212624 3.42473-7.63724 7.63488-7.63724v-10.065136c-4.21015 0-7.63488-3.424636-7.63488-7.634636 0-4.207398 3.42473-7.632035 7.63488-7.632035v-10.065136c-4.21015 0-7.63488-3.424617-7.63488-7.634617 0-4.207417 3.42473-7.632034 7.63488-7.632034v-10.070361c-2.01048 0-3.97791-.815385-5.39739-2.234817-1.42206-1.422018-2.23747-3.389391-2.23747-5.399801h-10.06548c0 4.210001-3.42473 7.634618-7.63357 7.634618-4.20883 0-7.63357-3.424617-7.63357-7.634618h-10.06546c0 4.210001-3.42473 7.634618-7.63357 7.634618-4.20885 0-7.63358-3.424617-7.63358-7.634618h-10.06546c0 4.210001-3.42474 7.634618-7.63359 7.634618-4.20882 0-7.63355-3.424617-7.63355-7.634618h-10.06548c0 4.210001-3.42473 7.634618-7.63355 7.634618-4.20884 0-7.63359-3.424617-7.63359-7.634618h-10.06546c0 4.210001-3.42473 7.634618-7.63357 7.634618-4.20885 0-7.63358-3.424617-7.63358-7.634618h-10.06547c0 4.210001-3.424721 7.634618-7.63357 7.634618-4.208839 0-7.633572-3.424617-7.633572-7.634618h-10.065457c0 4.210001-3.424733 7.634618-7.633572 7.634618s-7.633593-3.424617-7.633593-7.634618h-10.065456c0 4.210001-3.424733 7.634618-7.633573 7.634618-4.208829 0-7.633572-3.424617-7.633572-7.634618h-10.070688c0 2.01041-.815406 3.977783-2.234868 5.399801-1.422079 1.419432-3.389505 2.234817-5.398684 2.234817z" opacity=".1"/>
  <path d="m17.559325 20.857409v9.888555c4.13498 0 7.49963 3.364555 7.49963 7.498139 0 4.136141-3.36465 7.500696-7.49963 7.500696v9.888554c4.13498 0 7.49963 3.364536 7.49963 7.49812 0 4.136142-3.36465 7.500696-7.49963 7.500696v9.888555c4.13498 0 7.49963 3.364555 7.49963 7.503253 0 4.138718-3.36465 7.503254-7.49963 7.503254v9.888559c4.13498 0 7.49963 3.36199 7.49963 7.49813s-3.36465 7.5007-7.49963 7.5007v9.88855c4.13498 0 7.49963 3.36198 7.49963 7.49812 0 4.13615-3.36465 7.5007-7.49963 7.5007v9.88855c4.13498 0 7.49963 3.36198 7.49963 7.49812 0 4.13616-3.36465 7.5007-7.49963 7.5007v9.88856c4.13498 0 7.49963 3.36198 7.49963 7.49814 0 4.13614-3.36465 7.50068-7.49963 7.50068v9.88857c4.13498 0 7.49963 3.36197 7.49963 7.49812 0 4.13614-3.36465 7.50069-7.49963 7.50069v9.89367c1.97393 0 3.90684.79852 5.30397 2.19561 1.39456 1.39453 2.19566 3.32737 2.19566 5.30253h9.88889c0-4.13614 3.36465-7.49814 7.49965-7.49814 4.13501 0 7.49965 3.362 7.49965 7.49814h9.88888c0-4.13614 3.36464-7.49814 7.49965-7.49814 4.135 0 7.49965 3.362 7.49965 7.49814h9.88887c0-4.13614 3.36467-7.49814 7.49965-7.49814 4.135 0 7.49965 3.362 7.49965 7.49814h9.888875c0-4.13614 3.36467-7.49814 7.49967-7.49814 4.13499 0 7.49965 3.362 7.49965 7.49814h9.88887c0-4.13614 3.36465-7.49814 7.49964-7.49814 4.135 0 7.49967 3.362 7.49967 7.49814h9.88887c0-4.13614 3.36465-7.49814 7.49965-7.49814 4.13498 0 7.49965 3.362 7.49965 7.49814h9.88887c0-4.13614 3.36465-7.49814 7.49965-7.49814s7.49965 3.362 7.49965 7.49814h9.88887c0-4.13614 3.36467-7.49814 7.49967-7.49814 4.13499 0 7.49964 3.362 7.49964 7.49814h9.894c0-1.97516.80112-3.908 2.19824-5.30253 1.39457-1.39709 3.32749-2.19561 5.3027-2.19561v-9.88855c-4.13629 0-7.50094-3.36454-7.50094-7.50068 0-4.13616 3.36465-7.49813 7.50094-7.49813v-9.88856c-4.13629 0-7.50094-3.36454-7.50094-7.5007 0-4.13614 3.36465-7.49812 7.50094-7.49812v-9.88856c-4.13629 0-7.50094-3.36455-7.50094-7.50069s3.36465-7.49812 7.50094-7.49812v-9.88856c-4.13629 0-7.50094-3.36455-7.50094-7.50069 0-4.13616 3.36465-7.49814 7.50094-7.49814v-9.88856c-4.13629 0-7.50094-3.36453-7.50094-7.50067 0-4.13616 3.36465-7.49814 7.50094-7.49814v-9.888556c-4.13629 0-7.50094-3.364536-7.50094-7.503253 0-4.138718 3.36465-7.503254 7.50094-7.503254v-9.888554c-4.13629 0-7.50094-3.364555-7.50094-7.500696 0-4.133584 3.36465-7.498139 7.50094-7.498139v-9.888555c-4.13629 0-7.50094-3.364536-7.50094-7.500677 0-4.133603 3.36465-7.498139 7.50094-7.498139v-9.893688c-1.97521 0-3.90813-.80108-5.3027-2.19561-1.39712-1.39707-2.19822-3.329928-2.19822-5.305067h-9.88889c0 4.136141-3.36465 7.500677-7.49965 7.500677-4.13499 0-7.49965-3.364536-7.49965-7.500677h-9.88887c0 4.136141-3.36465 7.500677-7.49965 7.500677-4.13501 0-7.49966-3.364536-7.49966-7.500677h-9.88887c0 4.136141-3.36466 7.500677-7.49967 7.500677-4.13498 0-7.49963-3.364536-7.49963-7.500677h-9.88889c0 4.136141-3.36465 7.500677-7.49963 7.500677-4.135 0-7.49967-3.364536-7.49967-7.500677h-9.88887c0 4.136141-3.36465 7.500677-7.49965 7.500677-4.13501 0-7.49965-3.364536-7.49965-7.500677h-9.888885c0 4.136141-3.36464 7.500677-7.49965 7.500677-4.135 0-7.49965-3.364536-7.49965-7.500677h-9.88887c0 4.136141-3.36465 7.500677-7.49965 7.500677s-7.49967-3.364536-7.49967-7.500677h-9.88887c0 4.136141-3.36465 7.500677-7.49965 7.500677-4.13499 0-7.49965-3.364536-7.49965-7.500677h-9.89401c0 1.975139-.8011 3.907997-2.19566 5.305067-1.39713 1.39453-3.33004 2.19561-5.30397 2.19561z" fill="#f22c42"/>
  <path d="m208.37937 102.98563h-111.776975l5.833335-27.291901h68.12622l6.24992-29.374725h-97.919735l-30.83431 145.417536h29.58457l13.53938-63.54311h70.960205l-61.65966 61.04247 10.83354 19.16572c4.99891-3.3325 13.12406-3.75034 18.74977-3.75034 10.00167 0 19.79312 3.33506 29.9986 3.33506 9.35821 0 18.93819-.62548 34.56557-8.12618l5.46034-25.62437c-10.62718 4.37326-26.35069 8.54146-40.02591 8.54146-5.62186 0-10.83098-1.24968-16.24775-2.08281l59.77035-58.12395z" fill="#fff"/>
  <path d="m25.05822 13.356732c0 1.975139-.80076 3.907618-2.19532 5.304688-1.39713 1.39453-3.33075 2.197266-5.30468 2.197266v2c1.97393 0 3.90755-.802736 5.30468-2.197266 1.39456-1.39707 2.19532-3.329549 2.19532-5.304688h9.89453c0 4.136141 3.36501 7.501954 7.5 7.501954 4.135 0 7.5-3.365813 7.5-7.501954h9.88867c0 4.136141 3.365 7.501954 7.5 7.501954s7.49805-3.365813 7.49805-7.501954h9.88867c0 4.136141 3.365 7.501954 7.5 7.501954 4.13501 0 7.5-3.365813 7.5-7.501954h9.88867c0 4.136141 3.36499 7.501954 7.5 7.501954 4.135 0 7.5-3.365813 7.5-7.501954h9.88867c0 4.136141 3.365 7.501954 7.5 7.501954 4.13498 0 7.5-3.365813 7.5-7.501954h9.88867c0 4.136141 3.36502 7.501954 7.5 7.501954 4.13501 0 7.49805-3.365813 7.49805-7.501954h9.88867c0 4.136141 3.36499 7.501954 7.5 7.501954 4.135 0 7.5-3.365813 7.5-7.501954h9.88867c0 4.136141 3.36501 7.501954 7.5 7.501954 4.135 0 7.5-3.365813 7.5-7.501954h9.88868c0 1.975139.80014 3.907618 2.19726 5.304688 1.39457 1.39453 3.32753 2.197266 5.30274 2.197266v-2c-1.97521 0-3.90817-.802736-5.30274-2.197266-1.39712-1.39707-2.19726-3.329549-2.19726-5.304688h-9.88868c0 4.136141-3.365 7.501954-7.5 7.501954-4.13499 0-7.5-3.365813-7.5-7.501954h-9.88867c0 4.136141-3.365 7.501954-7.5 7.501954-4.13501 0-7.5-3.365813-7.5-7.501954h-9.88867c0 4.136141-3.36304 7.501954-7.49805 7.501954-4.13498 0-7.5-3.365813-7.5-7.501954h-9.88867c0 4.136141-3.36502 7.501954-7.5 7.501954-4.135 0-7.5-3.365813-7.5-7.501954h-9.88867c0 4.136141-3.365 7.501954-7.5 7.501954-4.13501 0-7.5-3.365813-7.5-7.501954h-9.88867c0 4.136141-3.36499 7.501954-7.5 7.501954-4.135 0-7.5-3.365813-7.5-7.501954h-9.88867c0 4.136141-3.36305 7.501954-7.49805 7.501954s-7.5-3.365813-7.5-7.501954h-9.88867c0 4.136141-3.365 7.501954-7.5 7.501954-4.13499 0-7.5-3.365813-7.5-7.501954zm-.07422 25.888672c-.49148 3.663773-3.63061 6.5-7.42578 6.5v2c4.13498 0 7.5-3.363859 7.5-7.5 0-.339691-.03022-.672135-.07422-1zm209.14843.0039c-.0441.328059-.0742.660097-.0742 1 0 4.136141 3.36371 7.501953 7.5 7.501953v-2c-3.79638 0-6.9343-2.838183-7.42579-6.501953zm-209.14843 24.882819c-.49148 3.663774-3.63061 6.5-7.42578 6.5v2c4.13498 0 7.5-3.363858 7.5-7.5 0-.339692-.03022-.672136-.07422-1zm209.14843.0059c-.044.327865-.0742.660309-.0742 1 0 4.136142 3.36371 7.5 7.5 7.5v-2c-3.79638 0-6.9343-2.836227-7.42579-6.5zm-209.14843 24.886678c-.49148 3.665763-3.63061 6.503907-7.42578 6.503907v1.998042c4.13498 0 7.5-3.363231 7.5-7.501949 0-.339448-.03039-.672396-.07422-1zm209.14843.0039c-.044.328219-.0742.659886-.0742 1 0 4.138717 3.36371 7.503902 7.5 7.503902v-1.999996c-3.79704 0-6.93514-2.837214-7.42579-6.503906zm-209.14843 24.886729c-.49148 3.66377-3.63061 6.5-7.42578 6.5v2c4.13498 0 7.5-3.36582 7.5-7.50196 0-.33944-.03033-.67046-.07422-.99804zm209.14843.004c-.044.32801-.0742.6601-.0742 1 0 4.13614 3.36371 7.5 7.5 7.5v-2c-3.79638 0-6.9343-2.83623-7.42579-6.5zm-209.14843 24.88271c-.49148 3.66378-3.63061 6.5-7.42578 6.5v2c4.13498 0 7.5-3.36385 7.5-7.5 0-.3399-.03022-.67199-.07422-1zm209.14843.004c-.044.32801-.0742.6601-.0742 1 0 4.13614 3.36371 7.50195 7.5 7.50195v-2c-3.79684 0-6.93488-2.83754-7.42579-6.50195zm-209.14843 24.88272c-.49148 3.66379-3.63061 6.50196-7.42578 6.50196v2c4.13498 0 7.5-3.3658 7.5-7.50196 0-.3399-.03022-.67199-.07422-1zm209.14843.006c-.044.32801-.0742.6601-.0742 1 0 4.13614 3.36371 7.5 7.5 7.5v-2c-3.79638 0-6.9343-2.83623-7.42579-6.5zm-209.14843 24.88268c-.49148 3.66377-3.63061 6.5-7.42578 6.5v2c4.13498 0 7.5-3.36386 7.5-7.5 0-.33945-.03033-.67242-.07422-1zm209.14843.004c-.044.32801-.0742.6601-.0742 1 0 4.13616 3.36371 7.5 7.5 7.5v-2c-3.79638 0-6.9343-2.83621-7.42579-6.5zm-209.14843 24.88271c-.49148 3.66378-3.63061 6.5-7.42578 6.5v2c4.13498 0 7.5-3.36386 7.5-7.5 0-.3399-.03022-.67199-.07422-1zm209.14843.004c-.044.32801-.0742.6601-.0742 1 0 4.13614 3.36371 7.50195 7.5 7.50195v-2c-3.79684 0-6.93488-2.83754-7.42579-6.50195z" fill="#fff" opacity=".3"/>
  <path d="m17.558185 28.74656v2c3.79517 0 6.9343 2.83625 7.42578 6.49804.044-.32804.07422-.66009.07422-1 0-4.13358-3.36502-7.49804-7.5-7.49804zm223.999995.0039c-4.13629 0-7.5 3.36444-7.5 7.49805 0 .34011.0302.67372.0742 1.00195.49149-3.66181 3.62941-6.5 7.42578-6.5zm-223.999995 24.88281v2c3.79517 0 6.9343 2.83626 7.42578 6.49805.044-.32804.07422-.6601.07422-1 0-4.13358-3.36502-7.49805-7.5-7.49805zm223.999995.0059c-4.13629 0-7.5 3.36446-7.5 7.49805 0 .3399.0302.67196.0742 1 .49149-3.6618 3.62941-6.49805 7.42578-6.49805zm-223.999995 24.88082v2c3.79517 0 6.9343 2.83816 7.42578 6.50391.04395-.32803.07422-.6601.07422-1 0-4.1387-3.36502-7.50391-7.5-7.50391zm223.999995.0059c-4.13629 0-7.5 3.36519-7.5 7.50391 0 .34011.0302.67178.0742 1 .49064-3.6667 3.62874-6.50391 7.42578-6.50391zm-223.999995 24.89059v2c3.79517 0 6.9343 2.83463 7.42578 6.49804.044-.32804.07422-.66009.07422-1 0-4.13614-3.36502-7.49804-7.5-7.49804zm223.999995.004c-4.13629 0-7.5 3.36189-7.5 7.49805 0 .3399.0302.67196.0742 1 .49149-3.66343 3.62941-6.49805 7.42578-6.49805zm-223.999995 24.88272v2c3.79517 0 6.9343 2.83463 7.42578 6.49804.044-.32804.07422-.66009.07422-1 0-4.13614-3.36502-7.49804-7.5-7.49804zm223.999995.006c-4.13629 0-7.5 3.36188-7.5 7.49804 0 .3399.0302.67196.0742 1 .49149-3.66343 3.62941-6.49804 7.42578-6.49804zm-223.999995 24.88072v2c3.79517 0 6.9343 2.83463 7.42578 6.49804.044-.32804.07422-.66009.07422-1 0-4.13614-3.36502-7.49804-7.5-7.49804zm223.999995.006c-4.13629 0-7.5 3.36191-7.5 7.49805 0 .3399.0302.67196.0742 1 .49149-3.66341 3.62941-6.49805 7.42578-6.49805zm-223.999995 24.88267v2c3.79517 0 6.9343 2.83461 7.42578 6.49804.044-.32804.07422-.66009.07422-1 0-4.13616-3.36502-7.49804-7.5-7.49804zm223.999995.004c-4.13629 0-7.5 3.36191-7.5 7.49805 0 .3399.0302.67196.0742 1 .49149-3.66342 3.62941-6.49805 7.42578-6.49805zm-223.999995 24.88272v2c3.79517 0 6.9343 2.83462 7.42578 6.49804.044-.32804.07422-.6601.07422-1 0-4.13615-3.36502-7.49804-7.5-7.49804zm223.999995.006c-4.13629.00001-7.5 3.36189-7.5 7.49805 0 .3399.0302.67196.0742 1 .49149-3.66343 3.62941-6.49804 7.42578-6.49805zm-223.999995 24.88657v2c1.97393 0 3.90755.79823 5.30468 2.19532 1.39456 1.39453 2.19532 3.32757 2.19532 5.30273h9.88867c0-4.13614 3.365-7.49805 7.5-7.49805 4.13501 0 7.5 3.36191 7.5 7.49805h9.88867c0-4.13614 3.36499-7.49805 7.5-7.49805 4.135 0 7.5 3.36191 7.5 7.49805h9.88867c0-4.13614 3.36307-7.49805 7.49805-7.49805 4.135 0 7.5 3.36191 7.5 7.49805h9.888675c0-4.13614 3.365-7.49805 7.5-7.49805 4.13498 0 7.5 3.36191 7.5 7.49805h9.88866c0-4.13614 3.36501-7.49805 7.5-7.49805 4.13501 0 7.5 3.36191 7.5 7.49805h9.88868c0-4.13614 3.36499-7.49805 7.5-7.49805 4.13497 0 7.49804 3.36191 7.49804 7.49805h9.89063c0-4.13614 3.36305-7.49805 7.49805-7.49805s7.5 3.36191 7.5 7.49805h9.88867c0-4.13614 3.365-7.49805 7.5-7.49805 4.13499 0 7.5 3.36191 7.5 7.49805h9.89453c0-1.97516.80015-3.9082 2.19727-5.30273 1.39457-1.39709 3.32752-2.19532 5.30273-2.19532v-2c-1.97521 0-3.90816.79823-5.30273 2.19532-1.39712 1.39453-2.19727 3.32757-2.19727 5.30273h-9.89453c0-4.13614-3.36501-7.49805-7.5-7.49805-4.135 0-7.5 3.36191-7.5 7.49805h-9.88867c0-4.13614-3.365-7.49805-7.5-7.49805s-7.49805 3.36191-7.49805 7.49805h-9.89063c0-4.13614-3.36307-7.49805-7.49804-7.49805-4.13501 0-7.5 3.36191-7.5 7.49805h-9.88868c0-4.13614-3.36499-7.49805-7.5-7.49805-4.13499 0-7.5 3.36191-7.5 7.49805h-9.88866c0-4.13614-3.36502-7.49805-7.5-7.49805-4.135 0-7.5 3.36191-7.5 7.49805h-9.888675c0-4.13614-3.365-7.49805-7.5-7.49805-4.13498 0-7.49805 3.36191-7.49805 7.49805h-9.88867c0-4.13614-3.365-7.49805-7.5-7.49805-4.13501 0-7.5 3.36191-7.5 7.49805h-9.88867c0-4.13614-3.36499-7.49805-7.5-7.49805-4.135 0-7.5 3.36191-7.5 7.49805h-9.88867c0-1.97516-.80076-3.9082-2.19532-5.30273-1.39713-1.39709-3.33075-2.19532-5.30468-2.19532z" opacity=".2"/>
</svg>
