<?xml version="1.0" encoding="UTF-8" standalone="no"?>
<svg
   xmlns:dc="http://purl.org/dc/elements/1.1/"
   xmlns:cc="http://creativecommons.org/ns#"
   xmlns:rdf="http://www.w3.org/1999/02/22-rdf-syntax-ns#"
   xmlns:svg="http://www.w3.org/2000/svg"
   xmlns="http://www.w3.org/2000/svg"
   xmlns:xlink="http://www.w3.org/1999/xlink"
   xmlns:sodipodi="http://sodipodi.sourceforge.net/DTD/sodipodi-0.dtd"
   xmlns:inkscape="http://www.inkscape.org/namespaces/inkscape"
   height="256"
   width="256"
   id="svg1008"
   version="1.1"
   viewBox="0 0 256 256"
   sodipodi:docname="firefox.svg"
   inkscape:version="0.92.4 (5da689c313, 2019-01-14)">
  <sodipodi:namedview
     pagecolor="#ffffff"
     bordercolor="#666666"
     borderopacity="1"
     objecttolerance="10"
     gridtolerance="10"
     guidetolerance="10"
     inkscape:pageopacity="0"
     inkscape:pageshadow="2"
     inkscape:window-width="1920"
     inkscape:window-height="1016"
     id="namedview95"
     showgrid="true"
     inkscape:zoom="3.7455355"
     inkscape:cx="82.136343"
     inkscape:cy="123.34446"
     inkscape:window-x="0"
     inkscape:window-y="27"
     inkscape:window-maximized="1"
     inkscape:current-layer="svg1008">
    <inkscape:grid
       type="xygrid"
       id="grid974" />
  </sodipodi:namedview>
  <metadata
     id="metadata1012">
    <rdf:RDF>
      <cc:Work
         rdf:about="">
        <dc:format>image/svg+xml</dc:format>
        <dc:type
           rdf:resource="http://purl.org/dc/dcmitype/StillImage" />
        <dc:title></dc:title>
      </cc:Work>
    </rdf:RDF>
  </metadata>
  <defs
     id="defs978">
    <linearGradient
       gradientTransform="translate(3.7,-81.97106)"
       gradientUnits="userSpaceOnUse"
       y2="74.468002"
       x2="6.447"
       y1="12.393"
       x1="70.786003"
       id="a">
      <stop
         id="stop834"
         stop-color="#fff44f"
         offset=".048" />
      <stop
         id="stop836"
         stop-color="#ffe847"
         offset=".111" />
      <stop
         id="stop838"
         stop-color="#ffc830"
         offset=".225" />
      <stop
         id="stop840"
         stop-color="#ff980e"
         offset=".368" />
      <stop
         id="stop842"
         stop-color="#ff8b16"
         offset=".401" />
      <stop
         id="stop844"
         stop-color="#ff672a"
         offset=".462" />
      <stop
         id="stop846"
         stop-color="#ff3647"
         offset=".534" />
      <stop
         id="stop848"
         stop-color="#e31587"
         offset=".705" />
    </linearGradient>
    <radialGradient
       gradientUnits="userSpaceOnUse"
       gradientTransform="translate(7978.7,8442.0289)"
       r="80.796997"
       cy="-8515.1211"
       cx="-7907.187"
       id="b">
      <stop
         id="stop851"
         stop-color="#ffbd4f"
         offset=".129" />
      <stop
         id="stop853"
         stop-color="#ffac31"
         offset=".186" />
      <stop
         id="stop855"
         stop-color="#ff9d17"
         offset=".247" />
      <stop
         id="stop857"
         stop-color="#ff980e"
         offset=".283" />
      <stop
         id="stop859"
         stop-color="#ff563b"
         offset=".403" />
      <stop
         id="stop861"
         stop-color="#ff3750"
         offset=".467" />
      <stop
         id="stop863"
         stop-color="#f5156c"
         offset=".71" />
      <stop
         id="stop865"
         stop-color="#eb0878"
         offset=".782" />
      <stop
         id="stop867"
         stop-color="#e50080"
         offset=".86" />
    </radialGradient>
    <radialGradient
       gradientUnits="userSpaceOnUse"
       gradientTransform="translate(7978.7,8442.0289)"
       r="80.796997"
       cy="-8482.0889"
       cx="-7936.7109"
       id="c">
      <stop
         id="stop870"
         stop-color="#960e18"
         offset=".3" />
      <stop
         id="stop872"
         stop-opacity=".74"
         stop-color="#b11927"
         offset=".351" />
      <stop
         id="stop874"
         stop-opacity=".343"
         stop-color="#db293d"
         offset=".435" />
      <stop
         id="stop876"
         stop-opacity=".094"
         stop-color="#f5334b"
         offset=".497" />
      <stop
         id="stop878"
         stop-opacity="0"
         stop-color="#ff3750"
         offset=".53" />
    </radialGradient>
    <radialGradient
       gradientUnits="userSpaceOnUse"
       gradientTransform="translate(7978.7,8442.0289)"
       r="58.534"
       cy="-8533.457"
       cx="-7926.9702"
       id="d">
      <stop
         id="stop881"
         stop-color="#fff44f"
         offset=".132" />
      <stop
         id="stop883"
         stop-color="#ffdc3e"
         offset=".252" />
      <stop
         id="stop885"
         stop-color="#ff9d12"
         offset=".506" />
      <stop
         id="stop887"
         stop-color="#ff980e"
         offset=".526" />
    </radialGradient>
    <radialGradient
       gradientUnits="userSpaceOnUse"
       gradientTransform="translate(7978.7,8442.0289)"
       r="38.471001"
       cy="-8460.9844"
       cx="-7945.6479"
       id="e">
      <stop
         id="stop890"
         stop-color="#3a8ee6"
         offset=".353" />
      <stop
         id="stop892"
         stop-color="#5c79f0"
         offset=".472" />
      <stop
         id="stop894"
         stop-color="#9059ff"
         offset=".669" />
      <stop
         id="stop896"
         stop-color="#c139e6"
         offset="1" />
    </radialGradient>
    <radialGradient
       gradientUnits="userSpaceOnUse"
       gradientTransform="matrix(0.972,-0.235,0.275,1.138,10095.002,7751.8269)"
       r="20.396999"
       cy="-8491.5459"
       cx="-7935.6201"
       id="f">
      <stop
         id="stop899"
         stop-opacity="0"
         stop-color="#9059ff"
         offset=".206" />
      <stop
         id="stop901"
         stop-opacity=".064"
         stop-color="#8c4ff3"
         offset=".278" />
      <stop
         id="stop903"
         stop-opacity=".45"
         stop-color="#7716a8"
         offset=".747" />
      <stop
         id="stop905"
         stop-opacity=".6"
         stop-color="#6e008b"
         offset=".975" />
    </radialGradient>
    <radialGradient
       gradientUnits="userSpaceOnUse"
       gradientTransform="translate(7978.7,8442.0289)"
       r="27.676001"
       cy="-8518.4268"
       cx="-7937.731"
       id="g">
      <stop
         id="stop908"
         stop-color="#ffe226"
         offset="0" />
      <stop
         id="stop910"
         stop-color="#ffdb27"
         offset=".121" />
      <stop
         id="stop912"
         stop-color="#ffc82a"
         offset=".295" />
      <stop
         id="stop914"
         stop-color="#ffa930"
         offset=".502" />
      <stop
         id="stop916"
         stop-color="#ff7e37"
         offset=".732" />
      <stop
         id="stop918"
         stop-color="#ff7139"
         offset=".792" />
    </radialGradient>
    <radialGradient
       gradientUnits="userSpaceOnUse"
       gradientTransform="translate(7978.7,8442.0289)"
       r="118.081"
       cy="-8535.9814"
       cx="-7915.9771"
       id="h">
      <stop
         id="stop921"
         stop-color="#fff44f"
         offset=".113" />
      <stop
         id="stop923"
         stop-color="#ff980e"
         offset=".456" />
      <stop
         id="stop925"
         stop-color="#ff5634"
         offset=".622" />
      <stop
         id="stop927"
         stop-color="#ff3647"
         offset=".716" />
      <stop
         id="stop929"
         stop-color="#e31587"
         offset=".904" />
    </radialGradient>
    <radialGradient
       gradientUnits="userSpaceOnUse"
       gradientTransform="matrix(0.105,0.995,-0.653,0.069,-4680.304,8388.2199)"
       r="86.499001"
       cy="-8522.8594"
       cx="-7927.165"
       id="i">
      <stop
         id="stop932"
         stop-color="#fff44f"
         offset="0" />
      <stop
         id="stop934"
         stop-color="#ffe847"
         offset=".06" />
      <stop
         id="stop936"
         stop-color="#ffc830"
         offset=".168" />
      <stop
         id="stop938"
         stop-color="#ff980e"
         offset=".304" />
      <stop
         id="stop940"
         stop-color="#ff8b16"
         offset=".356" />
      <stop
         id="stop942"
         stop-color="#ff672a"
         offset=".455" />
      <stop
         id="stop944"
         stop-color="#ff3647"
         offset=".57" />
      <stop
         id="stop946"
         stop-color="#e31587"
         offset=".737" />
    </radialGradient>
    <radialGradient
       gradientUnits="userSpaceOnUse"
       gradientTransform="translate(7978.7,8442.0289)"
       r="73.720001"
       cy="-8508.1758"
       cx="-7938.3828"
       id="j">
      <stop
         id="stop949"
         stop-color="#fff44f"
         offset=".137" />
      <stop
         id="stop951"
         stop-color="#ff980e"
         offset=".48" />
      <stop
         id="stop953"
         stop-color="#ff5634"
         offset=".592" />
      <stop
         id="stop955"
         stop-color="#ff3647"
         offset=".655" />
      <stop
         id="stop957"
         stop-color="#e31587"
         offset=".904" />
    </radialGradient>
    <radialGradient
       gradientUnits="userSpaceOnUse"
       gradientTransform="translate(7978.7,8442.0289)"
       r="80.685997"
       cy="-8503.8613"
       cx="-7918.9229"
       id="k">
      <stop
         id="stop960"
         stop-color="#fff44f"
         offset=".094" />
      <stop
         id="stop962"
         stop-color="#ffe141"
         offset=".231" />
      <stop
         id="stop964"
         stop-color="#ffaf1e"
         offset=".509" />
      <stop
         id="stop966"
         stop-color="#ff980e"
         offset=".626" />
    </radialGradient>
    <linearGradient
       gradientTransform="translate(3.7,-81.97106)"
       gradientUnits="userSpaceOnUse"
       y2="66.806"
       x2="15.267"
       y1="12.061"
       x1="70.013"
       id="l">
      <stop
         id="stop969"
         stop-opacity=".8"
         stop-color="#fff44f"
         offset=".167" />
      <stop
         id="stop971"
         stop-opacity=".634"
         stop-color="#fff44f"
         offset=".266" />
      <stop
         id="stop973"
         stop-opacity=".217"
         stop-color="#fff44f"
         offset=".489" />
      <stop
         id="stop975"
         stop-opacity="0"
         stop-color="#fff44f"
         offset=".6" />
    </linearGradient>
    <linearGradient
       inkscape:collect="always"
       xlink:href="#a"
       id="linearGradient950"
       gradientUnits="userSpaceOnUse"
       gradientTransform="matrix(2.8011559,0,0,2.8011559,15.3585,15.988543)"
       x1="70.786003"
       y1="12.393"
       x2="6.447"
       y2="74.468002" />
    <radialGradient
       inkscape:collect="always"
       xlink:href="#b"
       id="radialGradient952"
       gradientUnits="userSpaceOnUse"
       gradientTransform="matrix(2.8011559,0,0,2.8011559,22354.577,23893.041)"
       cx="-7907.187"
       cy="-8515.1211"
       r="80.796997" />
    <radialGradient
       inkscape:collect="always"
       xlink:href="#c"
       id="radialGradient954"
       gradientUnits="userSpaceOnUse"
       gradientTransform="matrix(2.8011559,0,0,2.8011559,22354.577,23893.041)"
       cx="-7936.7109"
       cy="-8482.0889"
       r="80.796997" />
    <radialGradient
       inkscape:collect="always"
       xlink:href="#d"
       id="radialGradient956"
       gradientUnits="userSpaceOnUse"
       gradientTransform="matrix(2.8011559,0,0,2.8011559,22354.577,23893.041)"
       cx="-7926.9702"
       cy="-8533.457"
       r="58.534" />
    <radialGradient
       inkscape:collect="always"
       xlink:href="#e"
       id="radialGradient958"
       gradientUnits="userSpaceOnUse"
       gradientTransform="matrix(2.8011559,0,0,2.8011559,22354.577,23893.041)"
       cx="-7945.6479"
       cy="-8460.9844"
       r="38.471001" />
    <radialGradient
       inkscape:collect="always"
       xlink:href="#g"
       id="radialGradient962"
       gradientUnits="userSpaceOnUse"
       gradientTransform="matrix(2.8011559,0,0,2.8011559,22354.577,23893.041)"
       cx="-7937.731"
       cy="-8518.4268"
       r="27.676001" />
    <radialGradient
       inkscape:collect="always"
       xlink:href="#h"
       id="radialGradient964"
       gradientUnits="userSpaceOnUse"
       gradientTransform="matrix(2.8011559,0,0,2.8011559,22354.577,23893.041)"
       cx="-7915.9771"
       cy="-8535.9814"
       r="118.081" />
    <radialGradient
       inkscape:collect="always"
       xlink:href="#i"
       id="radialGradient966"
       gradientUnits="userSpaceOnUse"
       gradientTransform="matrix(0.29412137,2.7871501,-1.8291548,0.19327976,-13105.267,23742.314)"
       cx="-7927.165"
       cy="-8522.8594"
       r="86.499001" />
    <radialGradient
       inkscape:collect="always"
       xlink:href="#j"
       id="radialGradient968"
       gradientUnits="userSpaceOnUse"
       gradientTransform="matrix(2.8011559,0,0,2.8011559,22354.577,23893.041)"
       cx="-7938.3828"
       cy="-8508.1758"
       r="73.720001" />
    <radialGradient
       inkscape:collect="always"
       xlink:href="#k"
       id="radialGradient970"
       gradientUnits="userSpaceOnUse"
       gradientTransform="matrix(2.8011559,0,0,2.8011559,22354.577,23893.041)"
       cx="-7918.9229"
       cy="-8503.8613"
       r="80.685997" />
    <linearGradient
       inkscape:collect="always"
       xlink:href="#l"
       id="linearGradient972"
       gradientUnits="userSpaceOnUse"
       gradientTransform="matrix(2.8011559,0,0,2.8011559,15.3585,15.988543)"
       x1="70.013"
       y1="12.061"
       x2="15.267"
       y2="66.806" />
    <filter
       inkscape:collect="always"
       style="color-interpolation-filters:sRGB"
       id="filter1013"
       x="-0.012197541"
       width="1.0243951"
       y="-0.011808756"
       height="1.0236175">
      <feGaussianBlur
         inkscape:collect="always"
         stdDeviation="1.1218324"
         id="feGaussianBlur1015" />
    </filter>
    <filter
       inkscape:collect="always"
       style="color-interpolation-filters:sRGB"
       id="filter1043"
       x="-0.048790163"
       width="1.0975803"
       y="-0.047235022"
       height="1.09447">
      <feGaussianBlur
         inkscape:collect="always"
         stdDeviation="4.4873297"
         id="feGaussianBlur1045" />
    </filter>
  </defs>
  <path
     style="fill:#000000;fill-opacity:1;stroke-width:2.85116482;opacity:0.1;filter:url(#filter1043)"
     d="m 161.96452,14.000212 a 0.39346072,0.39346072 0 0 0 -0.0775,0.0099 0.39346072,0.39346072 0 0 0 -0.0139,0.004 c -0.0143,0 -0.0366,0.02611 -0.0537,0.03181 -0.0171,0.0057 -0.0539,0.03034 -0.0795,0.04175 l 0.0418,-0.07356 c -3.46951,2.031454 -6.65266,4.278248 -9.56821,6.685623 -0.72889,0.601844 -1.43936,1.213985 -2.13511,1.834919 0,0 -0.002,0 -0.002,0 -0.69537,0.620617 -1.37481,1.252655 -2.0377,1.890582 -0.66322,0.63826 -1.30899,1.284467 -1.94028,1.938293 -0.63163,0.654155 -1.24658,1.314059 -1.84684,1.982031 -14.39889,16.023107 -19.86007,35.767492 -20.51013,47.053828 a 55.275529,55.275529 0 0 0 -5.48488,0.65405 55.275529,55.275529 0 0 0 -24.925465,11.067162 33.036445,33.036445 0 0 0 -2.850784,-2.16095 51.229726,51.229726 0 0 1 -0.310127,-27.008885 81.842681,81.842681 0 0 0 -0.02386,0.01193 51.229726,51.229726 0 0 1 0.004,-0.01193 81.842681,81.842681 0 0 0 -26.599359,20.555857 h -0.0099 c -4.35634,-5.58476 -4.049693,-23.83205 -3.799205,-27.649003 a 19.752868,19.752868 0 0 0 -0.04572,0.02187 c 7.87e-4,-0.01228 0.0012,-0.0397 0.002,-0.05169 A 19.752868,19.752868 0 0 0 56.010405,52.787961 80.474122,80.474122 0 0 0 45.209634,62.040085 96.497668,96.497668 0 0 0 34.880017,74.433239 93.327172,93.327172 0 0 0 20.053559,107.91105 c -0.0331,0.13767 -1.505206,6.61458 -2.208662,13.65354 a 82.33023,82.33023 0 0 0 -0.63417,6.26219 A 128.57042,128.57042 0 0 0 17,131.01751 v 0.57055 a 110.50829,110.50829 0 0 0 199.09958,65.96164 110.50829,110.50829 0 0 0 11.3574,-18.91775 110.50829,110.50829 0 0 0 8.95195,-28.35674 c 0.18533,-1.42558 0.33559,-2.83833 0.50096,-4.27817 A 113.63887,113.63887 0 0 0 229.74318,90.488277 C 224.94182,78.935343 215.20193,66.462352 207.57506,62.519191 a 114.80499,114.80499 0 0 1 11.19042,33.539446 V 96.164 l 0.01,0.05765 c -0.3874,-0.964815 -0.78315,-1.912697 -1.18684,-2.842832 -0.12027,-0.277195 -0.2461,-0.542836 -0.36778,-0.817065 -0.28849,-0.650032 -0.57653,-1.30244 -0.87273,-1.936306 -0.42288,-0.905204 -0.85224,-1.793921 -1.29021,-2.667888 -0.002,-0.0035 -0.004,-0.0065 -0.006,-0.0099 -0.17932,-0.357758 -0.36493,-0.702861 -0.54669,-1.055625 -0.26217,-0.508727 -0.52016,-1.024107 -0.78725,-1.522803 -0.45079,-0.841838 -0.90947,-1.668141 -1.3737,-2.483005 -0.001,-0.0026 -0.003,-0.0054 -0.004,-0.008 -0.46454,-0.815243 -0.93623,-1.617196 -1.41346,-2.407461 -0.001,-0.0021 -0.003,-0.0039 -0.004,-0.006 -0.47724,-0.790171 -0.96007,-1.56867 -1.44924,-2.335893 -0.001,-0.002 -0.003,-0.0039 -0.004,-0.006 -0.86463,-1.355898 -1.74943,-2.673081 -2.64801,-3.966048 -0.11985,-0.172455 -0.23742,-0.349406 -0.35784,-0.520854 -0.001,-0.0015 -0.003,-0.0025 -0.004,-0.004 -2.53047,-3.602583 -5.1842,-6.985259 -7.91421,-10.271964 -0.0321,-0.03865 -0.0633,-0.07867 -0.0954,-0.117293 0,0 -0.002,-0.002 -0.002,-0.002 -1.10521,-1.328779 -2.2227,-2.642353 -3.34976,-3.948156 0,0 -0.002,-0.002 -0.002,-0.002 -3.38274,-3.919446 -6.85097,-7.771418 -10.31969,-11.776876 -5.78205,-6.67653 -11.56806,-13.778797 -16.97547,-22.325171 -0.87532,-1.382815 -1.75177,-2.769793 -2.60427,-4.23244 -0.48754,-0.835391 -0.87737,-1.587396 -1.21666,-2.280229 a 20.109264,20.109264 0 0 1 -1.64805,-4.377562 0.28511646,0.28511646 0 0 0 -0.25048,-0.284283 0.39346072,0.39346072 0 0 0 -0.11729,-0.01392 z M 17.749474,122.55263 c -0.04461,0.50496 -0.08841,1.01089 -0.123256,1.51684 a 105.31347,105.31347 0 0 0 -0.182895,1.29219 c 0.02418,-0.30999 0.03592,-0.62974 0.06759,-0.93436 0.06566,-0.63161 0.148875,-1.25284 0.23856,-1.87467 z m 84.630886,54.43326 c 0.51606,0.24805 1.00045,0.5168 1.53076,0.75345 l 0.0338,0.0219 c -0.0146,-0.008 -0.0292,-0.0143 -0.0437,-0.0219 l 0.0318,0.0199 c -0.51744,-0.24841 -1.03516,-0.50542 -1.55262,-0.77333 z"
     id="path1017"
     inkscape:connector-curvature="0" />
  <path
     inkscape:connector-curvature="0"
     id="path1007"
     d="m 161.96452,14.000212 a 0.39346072,0.39346072 0 0 0 -0.0775,0.0099 0.39346072,0.39346072 0 0 0 -0.0139,0.004 c -0.0143,0 -0.0366,0.02611 -0.0537,0.03181 -0.0171,0.0057 -0.0539,0.03034 -0.0795,0.04175 l 0.0418,-0.07356 c -3.46951,2.031454 -6.65266,4.278248 -9.56821,6.685623 -0.72889,0.601844 -1.43936,1.213985 -2.13511,1.834919 0,0 -0.002,0 -0.002,0 -0.69537,0.620617 -1.37481,1.252655 -2.0377,1.890582 -0.66322,0.63826 -1.30899,1.284467 -1.94028,1.938293 -0.63163,0.654155 -1.24658,1.314059 -1.84684,1.982031 -14.39889,16.023107 -19.86007,35.767492 -20.51013,47.053828 a 55.275529,55.275529 0 0 0 -5.48488,0.65405 55.275529,55.275529 0 0 0 -24.925465,11.067162 33.036445,33.036445 0 0 0 -2.850784,-2.16095 51.229726,51.229726 0 0 1 -0.310127,-27.008885 81.842681,81.842681 0 0 0 -0.02386,0.01193 51.229726,51.229726 0 0 1 0.004,-0.01193 81.842681,81.842681 0 0 0 -26.599359,20.555857 h -0.0099 c -4.35634,-5.58476 -4.049693,-23.83205 -3.799205,-27.649003 a 19.752868,19.752868 0 0 0 -0.04572,0.02187 c 7.87e-4,-0.01228 0.0012,-0.0397 0.002,-0.05169 A 19.752868,19.752868 0 0 0 56.010405,52.787961 80.474122,80.474122 0 0 0 45.209634,62.040085 96.497668,96.497668 0 0 0 34.880017,74.433239 93.327172,93.327172 0 0 0 20.053559,107.91105 c -0.0331,0.13767 -1.505206,6.61458 -2.208662,13.65354 a 82.33023,82.33023 0 0 0 -0.63417,6.26219 A 128.57042,128.57042 0 0 0 17,131.01751 v 0.57055 a 110.50829,110.50829 0 0 0 199.09958,65.96164 110.50829,110.50829 0 0 0 11.3574,-18.91775 110.50829,110.50829 0 0 0 8.95195,-28.35674 c 0.18533,-1.42558 0.33559,-2.83833 0.50096,-4.27817 A 113.63887,113.63887 0 0 0 229.74318,90.488277 C 224.94182,78.935343 215.20193,66.462352 207.57506,62.519191 a 114.80499,114.80499 0 0 1 11.19042,33.539446 V 96.164 l 0.01,0.05765 c -0.3874,-0.964815 -0.78315,-1.912697 -1.18684,-2.842832 -0.12027,-0.277195 -0.2461,-0.542836 -0.36778,-0.817065 -0.28849,-0.650032 -0.57653,-1.30244 -0.87273,-1.936306 -0.42288,-0.905204 -0.85224,-1.793921 -1.29021,-2.667888 -0.002,-0.0035 -0.004,-0.0065 -0.006,-0.0099 -0.17932,-0.357758 -0.36493,-0.702861 -0.54669,-1.055625 -0.26217,-0.508727 -0.52016,-1.024107 -0.78725,-1.522803 -0.45079,-0.841838 -0.90947,-1.668141 -1.3737,-2.483005 -0.001,-0.0026 -0.003,-0.0054 -0.004,-0.008 -0.46454,-0.815243 -0.93623,-1.617196 -1.41346,-2.407461 -0.001,-0.0021 -0.003,-0.0039 -0.004,-0.006 -0.47724,-0.790171 -0.96007,-1.56867 -1.44924,-2.335893 -0.001,-0.002 -0.003,-0.0039 -0.004,-0.006 -0.86463,-1.355898 -1.74943,-2.673081 -2.64801,-3.966048 -0.11985,-0.172455 -0.23742,-0.349406 -0.35784,-0.520854 -0.001,-0.0015 -0.003,-0.0025 -0.004,-0.004 -2.53047,-3.602583 -5.1842,-6.985259 -7.91421,-10.271964 -0.0321,-0.03865 -0.0633,-0.07867 -0.0954,-0.117293 0,0 -0.002,-0.002 -0.002,-0.002 -1.10521,-1.328779 -2.2227,-2.642353 -3.34976,-3.948156 0,0 -0.002,-0.002 -0.002,-0.002 -3.38274,-3.919446 -6.85097,-7.771418 -10.31969,-11.776876 -5.78205,-6.67653 -11.56806,-13.778797 -16.97547,-22.325171 -0.87532,-1.382815 -1.75177,-2.769793 -2.60427,-4.23244 -0.48754,-0.835391 -0.87737,-1.587396 -1.21666,-2.280229 a 20.109264,20.109264 0 0 1 -1.64805,-4.377562 0.28511646,0.28511646 0 0 0 -0.25048,-0.284283 0.39346072,0.39346072 0 0 0 -0.11729,-0.01392 z M 17.749474,122.55263 c -0.04461,0.50496 -0.08841,1.01089 -0.123256,1.51684 a 105.31347,105.31347 0 0 0 -0.182895,1.29219 c 0.02418,-0.30999 0.03592,-0.62974 0.06759,-0.93436 0.06566,-0.63161 0.148875,-1.25284 0.23856,-1.87467 z m 84.630886,54.43326 c 0.51606,0.24805 1.00045,0.5168 1.53076,0.75345 l 0.0338,0.0219 c -0.0146,-0.008 -0.0292,-0.0143 -0.0437,-0.0219 l 0.0318,0.0199 c -0.51744,-0.24841 -1.03516,-0.50542 -1.55262,-0.77333 z"
     style="fill:#000000;fill-opacity:1;stroke-width:2.85116482;opacity:0.1;filter:url(#filter1013)" />
  <path
     style="fill:#000000;fill-opacity:1;stroke-width:2.85116482;opacity:0.1"
     d="m 161.96452,14.000212 a 0.39346072,0.39346072 0 0 0 -0.0775,0.0099 0.39346072,0.39346072 0 0 0 -0.0139,0.004 c -0.0143,0 -0.0366,0.02611 -0.0537,0.03181 -0.0171,0.0057 -0.0539,0.03034 -0.0795,0.04175 l 0.0418,-0.07356 c -3.46951,2.031454 -6.65266,4.278248 -9.56821,6.685623 -0.72889,0.601844 -1.43936,1.213985 -2.13511,1.834919 0,0 -0.002,0 -0.002,0 -0.69537,0.620617 -1.37481,1.252655 -2.0377,1.890582 -0.66322,0.63826 -1.30899,1.284467 -1.94028,1.938293 -0.63163,0.654155 -1.24658,1.314059 -1.84684,1.982031 -14.39889,16.023107 -19.86007,35.767492 -20.51013,47.053828 a 55.275529,55.275529 0 0 0 -5.48488,0.65405 55.275529,55.275529 0 0 0 -24.925465,11.067162 33.036445,33.036445 0 0 0 -2.850784,-2.16095 51.229726,51.229726 0 0 1 -0.310127,-27.008885 81.842681,81.842681 0 0 0 -0.02386,0.01193 51.229726,51.229726 0 0 1 0.004,-0.01193 81.842681,81.842681 0 0 0 -26.599359,20.555857 h -0.0099 c -4.35634,-5.58476 -4.049693,-23.83205 -3.799205,-27.649003 a 19.752868,19.752868 0 0 0 -0.04572,0.02187 c 7.87e-4,-0.01228 0.0012,-0.0397 0.002,-0.05169 A 19.752868,19.752868 0 0 0 56.010405,52.787961 80.474122,80.474122 0 0 0 45.209634,62.040085 96.497668,96.497668 0 0 0 34.880017,74.433239 93.327172,93.327172 0 0 0 20.053559,107.91105 c -0.0331,0.13767 -1.505206,6.61458 -2.208662,13.65354 a 82.33023,82.33023 0 0 0 -0.63417,6.26219 A 128.57042,128.57042 0 0 0 17,131.01751 v 0.57055 a 110.50829,110.50829 0 0 0 199.09958,65.96164 110.50829,110.50829 0 0 0 11.3574,-18.91775 110.50829,110.50829 0 0 0 8.95195,-28.35674 c 0.18533,-1.42558 0.33559,-2.83833 0.50096,-4.27817 A 113.63887,113.63887 0 0 0 229.74318,90.488277 C 224.94182,78.935343 215.20193,66.462352 207.57506,62.519191 a 114.80499,114.80499 0 0 1 11.19042,33.539446 V 96.164 l 0.01,0.05765 c -0.3874,-0.964815 -0.78315,-1.912697 -1.18684,-2.842832 -0.12027,-0.277195 -0.2461,-0.542836 -0.36778,-0.817065 -0.28849,-0.650032 -0.57653,-1.30244 -0.87273,-1.936306 -0.42288,-0.905204 -0.85224,-1.793921 -1.29021,-2.667888 -0.002,-0.0035 -0.004,-0.0065 -0.006,-0.0099 -0.17932,-0.357758 -0.36493,-0.702861 -0.54669,-1.055625 -0.26217,-0.508727 -0.52016,-1.024107 -0.78725,-1.522803 -0.45079,-0.841838 -0.90947,-1.668141 -1.3737,-2.483005 -0.001,-0.0026 -0.003,-0.0054 -0.004,-0.008 -0.46454,-0.815243 -0.93623,-1.617196 -1.41346,-2.407461 -0.001,-0.0021 -0.003,-0.0039 -0.004,-0.006 -0.47724,-0.790171 -0.96007,-1.56867 -1.44924,-2.335893 -0.001,-0.002 -0.003,-0.0039 -0.004,-0.006 -0.86463,-1.355898 -1.74943,-2.673081 -2.64801,-3.966048 -0.11985,-0.172455 -0.23742,-0.349406 -0.35784,-0.520854 -0.001,-0.0015 -0.003,-0.0025 -0.004,-0.004 -2.53047,-3.602583 -5.1842,-6.985259 -7.91421,-10.271964 -0.0321,-0.03865 -0.0633,-0.07867 -0.0954,-0.117293 0,0 -0.002,-0.002 -0.002,-0.002 -1.10521,-1.328779 -2.2227,-2.642353 -3.34976,-3.948156 0,0 -0.002,-0.002 -0.002,-0.002 -3.38274,-3.919446 -6.85097,-7.771418 -10.31969,-11.776876 -5.78205,-6.67653 -11.56806,-13.778797 -16.97547,-22.325171 -0.87532,-1.382815 -1.75177,-2.769793 -2.60427,-4.23244 -0.48754,-0.835391 -0.87737,-1.587396 -1.21666,-2.280229 a 20.109264,20.109264 0 0 1 -1.64805,-4.377562 0.28511646,0.28511646 0 0 0 -0.25048,-0.284283 0.39346072,0.39346072 0 0 0 -0.11729,-0.01392 z M 17.749474,122.55263 c -0.04461,0.50496 -0.08841,1.01089 -0.123256,1.51684 a 105.31347,105.31347 0 0 0 -0.182895,1.29219 c 0.02418,-0.30999 0.03592,-0.62974 0.06759,-0.93436 0.06566,-0.63161 0.148875,-1.25284 0.23856,-1.87467 z m 84.630886,54.43326 c 0.51606,0.24805 1.00045,0.5168 1.53076,0.75345 l 0.0338,0.0219 c -0.0146,-0.008 -0.0292,-0.0143 -0.0437,-0.0219 l 0.0318,0.0199 c -0.51744,-0.24841 -1.03516,-0.50542 -1.55262,-0.77333 z"
     id="path980"
     inkscape:connector-curvature="0" />
  <path
     inkscape:connector-curvature="0"
     d="M 228.01105,91.146404 C 223.2939,79.796106 213.72516,67.541049 206.23206,63.66705 a 112.79134,112.79134 0 0 1 10.99454,32.952817 l 0.0196,0.18208 C 204.97154,66.199295 184.15615,53.860204 167.15594,26.991488 c -0.85996,-1.358561 -1.71991,-2.719923 -2.55746,-4.156916 -0.47899,-0.820738 -0.86275,-1.560243 -1.19609,-2.240924 a 19.756553,19.756553 0 0 1 -1.61907,-4.299775 0.28011559,0.28011559 0 0 0 -0.2465,-0.280115 0.38655952,0.38655952 0 0 0 -0.20448,0 c -0.014,0 -0.0364,0.02521 -0.0532,0.03081 -0.0168,0.0056 -0.0532,0.03081 -0.0784,0.04202 l 0.042,-0.07283 c -27.2693,15.966589 -36.52152,45.524414 -37.37307,60.308915 A 54.30601,54.30601 0 0 0 93.992547,87.838234 32.456994,32.456994 0 0 0 91.191397,85.714949 50.33117,50.33117 0 0 1 90.886067,59.179599 80.407181,80.407181 0 0 0 64.75409,79.375933 h -0.0504 C 60.40111,73.922082 60.70364,55.938661 60.95014,52.182311 a 19.406408,19.406408 0 0 0 -3.6247,1.924394 79.062626,79.062626 0 0 0 -10.61078,9.089751 94.805123,94.805123 0 0 0 -10.14858,12.176625 v 0.01681 -0.01961 A 91.690237,91.690237 0 0 0 22.00006,108.26431 l -0.14566,0.71709 c -0.20448,0.9552 -0.94118,5.73957 -1.06724,6.7788 0,0.0812 -0.0168,0.15686 -0.0252,0.2381 a 103.4663,103.4663 0 0 0 -1.76192,14.96658 v 0.56023 a 108.57,108.57 0 0 0 215.56014,18.35878 c 0.18208,-1.40058 0.33054,-2.78715 0.49301,-4.20173 A 111.64567,111.64567 0 0 0 228.01105,91.146404 Z M 102.88341,176.12792 c 0.50701,0.2437 0.98321,0.50701 1.50422,0.73951 l 0.0756,0.0476 q -0.78992,-0.37815 -1.57985,-0.78712 z m 24.86867,-65.47983 z m 89.50253,-13.820933 v -0.10365 l 0.0196,0.11485 z"
     id="path902"
     style="fill:url(#linearGradient950);stroke-width:2.80115604" />
  <path
     inkscape:connector-curvature="0"
     d="M 228.01105,91.146404 C 223.2939,79.796106 213.72516,67.541049 206.23206,63.66705 a 112.79134,112.79134 0 0 1 10.99454,32.952817 v 0.10364 l 0.0196,0.11485 a 98.320573,98.320573 0 0 1 -3.3782,73.272683 c -12.44273,26.69781 -42.56076,54.06231 -89.70421,52.73176 -50.93902,-1.4426 -95.79953,-39.2414 -104.18619,-88.74903 -1.52663,-7.80683 0,-11.76486 0.76752,-18.10948 a 80.886179,80.886179 0 0 0 -1.74511,14.98059 v 0.56023 a 108.57,108.57 0 0 0 215.56014,18.35878 c 0.18208,-1.40058 0.33054,-2.78715 0.49301,-4.20173 a 111.64567,111.64567 0 0 0 -7.04211,-54.535756 z"
     id="path904"
     style="fill:url(#radialGradient952);stroke-width:2.80115604" />
  <path
     inkscape:connector-curvature="0"
     d="M 228.01105,91.146404 C 223.2939,79.796106 213.72516,67.541049 206.23206,63.66705 a 112.79134,112.79134 0 0 1 10.99454,32.952817 v 0.10364 l 0.0196,0.11485 a 98.320573,98.320573 0 0 1 -3.3782,73.272683 c -12.44273,26.69781 -42.56076,54.06231 -89.70421,52.73176 -50.93902,-1.4426 -95.79953,-39.2414 -104.18619,-88.74903 -1.52663,-7.80683 0,-11.76486 0.76752,-18.10948 a 80.886179,80.886179 0 0 0 -1.74511,14.98059 v 0.56023 a 108.57,108.57 0 0 0 215.56014,18.35878 c 0.18208,-1.40058 0.33054,-2.78715 0.49301,-4.20173 a 111.64567,111.64567 0 0 0 -7.04211,-54.535756 z"
     id="path906"
     style="fill:url(#radialGradient954);stroke-width:2.80115604" />
  <path
     inkscape:connector-curvature="0"
     d="m 175.25408,103.90851 c 0.2353,0.16527 0.45379,0.33053 0.67508,0.4958 A 59.10439,59.10439 0 0 0 165.845,91.252854 C 132.10227,57.504507 157.00175,18.07821 161.20068,16.075383 l 0.042,-0.06162 c -27.26925,15.966589 -36.52147,45.524414 -37.37302,60.308915 1.26612,-0.08684 2.52104,-0.19328 3.81517,-0.19328 a 54.79061,54.79061 0 0 1 47.56923,27.779112 z"
     id="path908"
     style="fill:url(#radialGradient956);stroke-width:2.80115604" />
  <path
     inkscape:connector-curvature="0"
     d="m 127.75488,110.64809 c -0.17927,2.70031 -9.72001,12.01416 -13.05619,12.01416 -30.87153,0 -35.8828,18.67531 -35.8828,18.67531 1.36696,15.72569 12.325087,28.67824 25.57174,35.52987 0.60505,0.31372 1.21851,0.59664 1.83196,0.87396 q 1.59386,0.70589 3.18771,1.30533 a 48.277923,48.277923 0 0 0 14.12624,2.72553 c 54.10993,2.53785 64.59185,-64.70671 25.54374,-84.219603 a 37.479466,37.479466 0 0 1 26.1768,6.355863 54.79061,54.79061 0 0 0 -47.56923,-27.779117 c -1.28853,0 -2.54905,0.106444 -3.81517,0.19328 A 54.30601,54.30601 0 0 0 93.992547,87.838234 c 1.65549,1.40058 3.52386,3.27176 7.459483,7.151363 7.36703,7.257823 26.26083,14.776123 26.30285,15.658493 z"
     id="path910"
     style="fill:url(#radialGradient958);stroke-width:2.80115604" />
  <path
     inkscape:connector-curvature="0"
     d="m 88.930857,84.227535 c 0.87957,0.560231 1.60507,1.047632 2.24093,1.487414 A 50.33117,50.33117 0 0 1 90.866457,59.179599 80.407181,80.407181 0 0 0 64.73448,79.375933 C 65.2639,79.361923 81.012,79.07901 88.930857,84.227535 Z"
     id="path914"
     style="fill:url(#radialGradient962);stroke-width:2.80115604" />
  <path
     inkscape:connector-curvature="0"
     d="m 19.99162,134.09377 c 8.37825,49.50763 53.24717,87.30643 104.18618,88.74903 47.14346,1.33335 77.26149,-26.03395 89.70422,-52.73176 a 98.320573,98.320573 0 0 0 3.37819,-73.272683 v -0.10364 c 0,-0.0812 -0.0168,-0.12886 0,-0.10365 l 0.0196,0.18208 c 3.85159,25.146013 -8.93849,49.507673 -28.93314,65.981273 l -0.0616,0.14006 c -38.95848,31.72869 -76.24187,19.1431 -83.78818,14.00578 q -0.78993,-0.37816 -1.57985,-0.78713 C 80.20246,165.29585 70.81859,144.60091 72.82982,126.85279 a 27.879905,27.879905 0 0 1 -25.71741,-16.17669 40.947297,40.947297 0 0 1 39.913667,-1.60226 54.06231,54.06231 0 0 0 40.762413,1.60226 c -0.042,-0.88236 -18.93581,-8.40347 -26.30284,-15.658493 -3.935633,-3.879603 -5.804003,-5.747973 -7.459483,-7.151363 a 32.456994,32.456994 0 0 0 -2.80116,-2.123284 c -0.64426,-0.439781 -1.36976,-0.915978 -2.24092,-1.487413 C 81.06522,79.107022 65.31712,79.389939 64.7961,79.403945 H 64.7457 C 60.44313,73.950094 60.74565,55.966673 60.99216,52.210323 a 19.406408,19.406408 0 0 0 -3.6247,1.924394 79.062626,79.062626 0 0 0 -10.61078,9.089751 94.805123,94.805123 0 0 0 -10.1906,12.148613 v 0.01681 -0.01961 A 91.690237,91.690237 0 0 0 22.00006,108.26431 c -0.0532,0.22129 -3.91041,17.08425 -2.00842,25.82946 z"
     id="path916"
     style="fill:url(#radialGradient964);stroke-width:2.80115604" />
  <path
     inkscape:connector-curvature="0"
     d="m 165.8506,91.252854 a 59.10439,59.10439 0 0 1 10.08416,13.165466 c 0.59665,0.45098 1.15408,0.89917 1.62747,1.33335 24.61376,22.68937 11.71724,54.76261 10.75644,57.04555 19.99465,-16.4736 32.77353,-40.83526 28.93314,-65.981273 -12.28027,-30.616652 -33.09566,-42.955743 -50.09587,-69.824459 -0.85996,-1.358561 -1.71991,-2.719923 -2.55746,-4.156916 -0.47899,-0.820738 -0.86275,-1.560243 -1.19609,-2.240924 a 19.756553,19.756553 0 0 1 -1.61907,-4.299775 0.28011559,0.28011559 0 0 0 -0.2465,-0.280115 0.38655952,0.38655952 0 0 0 -0.20448,0 c -0.014,0 -0.0364,0.02521 -0.0532,0.03081 -0.0168,0.0056 -0.0532,0.03081 -0.0784,0.04202 -4.19892,1.991622 -29.09841,41.417919 4.64992,75.166266 z"
     id="path918"
     style="fill:url(#radialGradient966);stroke-width:2.80115604" />
  <path
     inkscape:connector-curvature="0"
     d="m 177.54543,105.73766 c -0.4734,-0.43418 -1.03083,-0.88236 -1.62748,-1.33335 -0.22129,-0.16527 -0.43978,-0.33053 -0.67507,-0.4958 a 37.479466,37.479466 0 0 0 -26.17681,-6.355863 c 39.04812,19.524093 28.57179,86.757453 -25.54374,84.219603 a 48.277923,48.277923 0 0 1 -14.12623,-2.72553 q -1.59386,-0.59664 -3.18772,-1.30533 c -0.61345,-0.28012 -1.2269,-0.56024 -1.83195,-0.87396 l 0.0756,0.0476 c 7.54631,5.15133 44.8185,17.73692 83.78818,-14.00577 l 0.0616,-0.14006 c 0.97201,-2.26894 13.86853,-34.35058 -10.75643,-57.03155 z"
     id="path920"
     style="fill:url(#radialGradient968);stroke-width:2.80115604" />
  <path
     inkscape:connector-curvature="0"
     d="m 78.81589,141.33756 c 0,0 5.01127,-18.67531 35.8828,-18.67531 3.33618,0 12.88532,-9.31385 13.05619,-12.01416 a 54.06231,54.06231 0 0 1 -40.762423,-1.60226 40.947297,40.947297 0 0 0 -39.913667,1.60226 27.879905,27.879905 0 0 0 25.71742,16.17668 c -2.01123,17.75093 7.37264,38.44587 30.0872,49.30035 0.50701,0.2437 0.98321,0.50701 1.50422,0.7395 C 91.129767,170.0158 80.18285,157.06325 78.81589,141.33756 Z"
     id="path922"
     style="fill:url(#radialGradient970);stroke-width:2.80115604" />
  <path
     inkscape:connector-curvature="0"
     d="M 228.01105,91.146404 C 223.2939,79.796106 213.72516,67.541049 206.23206,63.66705 a 112.79134,112.79134 0 0 1 10.99454,32.952817 l 0.0196,0.18208 C 204.97154,66.199295 184.15615,53.860204 167.15594,26.991488 c -0.85996,-1.358561 -1.71991,-2.719923 -2.55746,-4.156916 -0.47899,-0.820738 -0.86275,-1.560243 -1.19609,-2.240924 a 19.756553,19.756553 0 0 1 -1.61907,-4.299775 0.28011559,0.28011559 0 0 0 -0.2465,-0.280115 0.38655952,0.38655952 0 0 0 -0.20448,0 c -0.014,0 -0.0364,0.02521 -0.0532,0.03081 -0.0168,0.0056 -0.0532,0.03081 -0.0784,0.04202 l 0.042,-0.07283 c -27.26925,15.966589 -36.52147,45.524414 -37.37302,60.308915 1.26612,-0.08684 2.52104,-0.19328 3.81516,-0.19328 a 54.79061,54.79061 0 0 1 47.56923,27.779117 37.479466,37.479466 0 0 0 -26.1768,-6.355863 c 39.04811,19.524093 28.57179,86.757453 -25.54374,84.219603 a 48.277923,48.277923 0 0 1 -14.12624,-2.72553 q -1.59385,-0.59664 -3.18771,-1.30533 c -0.61345,-0.28012 -1.22691,-0.56024 -1.83195,-0.87396 l 0.0756,0.0476 q -0.78991,-0.37815 -1.57984,-0.78712 c 0.507,0.2437 0.98321,0.50701 1.50422,0.73951 -13.257873,-6.85163 -24.20479,-19.80418 -25.57175,-35.52987 0,0 5.01127,-18.67531 35.88281,-18.67531 3.33618,0 12.88532,-9.31385 13.05619,-12.01416 -0.042,-0.88237 -18.93582,-8.40347 -26.30286,-15.658493 -3.935623,-3.879603 -5.804003,-5.747973 -7.459483,-7.151363 a 32.456994,32.456994 0 0 0 -2.80119,-2.123275 50.33117,50.33117 0 0 1 -0.30533,-26.53535 80.407181,80.407181 0 0 0 -26.131977,20.196334 h -0.0504 C 60.40108,73.922082 60.70361,55.938661 60.95011,52.182311 a 19.406408,19.406408 0 0 0 -3.6247,1.924394 79.062626,79.062626 0 0 0 -10.61078,9.089751 94.805123,94.805123 0 0 0 -10.14858,12.176625 v 0.01681 -0.01961 A 91.690237,91.690237 0 0 0 22.00003,108.26431 l -0.14566,0.71709 c -0.20448,0.9552 -1.12046,5.8068 -1.25211,6.84883 0,0.0784 0,-0.0812 0,0 A 126.31533,126.31533 0 0 0 19,130.96488 v 0.56023 a 108.57,108.57 0 0 0 215.56014,18.35878 c 0.18208,-1.40058 0.33054,-2.78715 0.49301,-4.20173 a 111.64567,111.64567 0 0 0 -7.04211,-54.535756 z m -10.77044,5.577103 0.0196,0.11485 z"
     id="path924"
     style="fill:url(#linearGradient972);stroke-width:2.80115604" />
  <path
     style="opacity:0.3;fill:#ffffff;fill-opacity:1;stroke-width:2.80114269"
     d="M 161.42188 16 A 0.38655768 0.38655768 0 0 0 161.3457 16.009766 A 0.38655768 0.38655768 0 0 0 161.33203 16.013672 C 161.31803 16.013672 161.2961 16.039322 161.2793 16.044922 C 161.2625 16.050522 161.22627 16.074728 161.20117 16.085938 L 161.24219 16.013672 C 157.83355 18.009486 154.70619 20.216892 151.8418 22.582031 C 151.12569 23.173316 150.42768 23.774726 149.74414 24.384766 L 149.74219 24.384766 C 149.05902 24.994495 148.39149 25.615452 147.74023 26.242188 C 147.08865 26.869249 146.4542 27.504129 145.83398 28.146484 C 145.21343 28.789162 144.60926 29.437497 144.01953 30.09375 C 130.41982 45.227534 124.94946 63.71846 123.97852 74.978516 L 124.16797 75.167969 C 125.5423 63.805648 131.12638 46.441265 144.01953 32.09375 C 144.60926 31.437497 145.21343 30.789162 145.83398 30.146484 C 146.4542 29.504129 147.08865 28.869249 147.74023 28.242188 C 148.39149 27.615452 149.05902 26.994495 149.74219 26.384766 L 149.74414 26.384766 C 150.42768 25.774726 151.12569 25.173316 151.8418 24.582031 C 154.70619 22.216892 157.83355 20.009486 161.24219 18.013672 L 161.20117 18.085938 C 161.22627 18.074728 161.2625 18.050522 161.2793 18.044922 C 161.2961 18.039322 161.31803 18.013672 161.33203 18.013672 A 0.38655768 0.38655768 0 0 1 161.3457 18.009766 A 0.38655768 0.38655768 0 0 1 161.42188 18 A 0.38655768 0.38655768 0 0 1 161.53711 18.013672 A 0.28011425 0.28011425 0 0 1 161.7832 18.292969 A 19.756458 19.756458 0 0 0 163.40234 22.59375 C 163.73567 23.274428 164.11867 24.013249 164.59766 24.833984 C 165.4352 26.270969 166.29629 27.633633 167.15625 28.992188 C 172.46879 37.388621 178.15338 44.366387 183.83398 50.925781 C 187.24185 54.860966 190.64927 58.645412 193.97266 62.496094 L 193.97461 62.498047 C 195.08189 63.78094 196.1798 65.071486 197.26562 66.376953 L 197.26758 66.378906 C 197.29908 66.416851 197.32983 66.456171 197.36133 66.494141 C 200.04344 69.723182 202.65064 73.046559 205.13672 76.585938 C 205.13772 76.587338 205.13963 76.588344 205.14062 76.589844 C 205.25893 76.758284 205.37444 76.932132 205.49219 77.101562 C 206.375 78.371844 207.24429 79.665937 208.09375 80.998047 C 208.09475 81.000147 208.09668 81.001906 208.09766 81.003906 C 208.57825 81.757669 209.05262 82.522521 209.52148 83.298828 C 209.52248 83.300928 209.52441 83.302587 209.52539 83.304688 C 209.99425 84.081087 210.45767 84.868982 210.91406 85.669922 C 210.91506 85.672522 210.91698 85.675134 210.91797 85.677734 C 211.37405 86.478302 211.82469 87.29012 212.26758 88.117188 C 212.52998 88.607135 212.78345 89.113479 213.04102 89.613281 C 213.21959 89.959856 213.40195 90.29891 213.57812 90.650391 C 213.58013 90.653691 213.58198 90.656756 213.58398 90.660156 C 214.01426 91.518789 214.4361 92.391927 214.85156 93.28125 C 215.14256 93.903995 215.42555 94.544966 215.70898 95.183594 C 215.82852 95.453012 215.95215 95.713996 216.07031 95.986328 C 216.46691 96.900144 216.85573 97.831409 217.23633 98.779297 L 217.22656 98.722656 L 217.22656 98.619141 A 112.7908 112.7908 0 0 0 216.39648 94.767578 C 216.28677 94.509253 216.18125 94.241943 216.07031 93.986328 C 215.95215 93.713996 215.82852 93.453012 215.70898 93.183594 C 215.42555 92.544966 215.14256 91.903995 214.85156 91.28125 C 214.4361 90.391927 214.01426 89.518789 213.58398 88.660156 C 213.58198 88.656756 213.58014 88.653691 213.57812 88.650391 C 213.40195 88.29891 213.21959 87.959856 213.04102 87.613281 C 212.78345 87.113479 212.52998 86.607134 212.26758 86.117188 C 211.82469 85.29012 211.37405 84.478302 210.91797 83.677734 C 210.91698 83.675134 210.91506 83.672522 210.91406 83.669922 C 210.45767 82.868982 209.99425 82.081088 209.52539 81.304688 C 209.52441 81.302588 209.52248 81.300928 209.52148 81.298828 C 209.05262 80.522521 208.57825 79.757669 208.09766 79.003906 C 208.09668 79.001906 208.09475 79.000147 208.09375 78.998047 C 207.24429 77.665937 206.375 76.371844 205.49219 75.101562 C 205.37444 74.932132 205.25894 74.758284 205.14062 74.589844 C 205.13963 74.588344 205.13772 74.587338 205.13672 74.585938 C 202.65064 71.04656 200.04344 67.723182 197.36133 64.494141 C 197.32983 64.456171 197.29908 64.416851 197.26758 64.378906 L 197.26562 64.376953 C 196.1798 63.071486 195.08189 61.78094 193.97461 60.498047 L 193.97266 60.496094 C 190.64927 56.645412 187.24185 52.860966 183.83398 48.925781 C 178.15338 42.366387 172.46879 35.388621 167.15625 26.992188 C 166.29629 25.633633 165.4352 24.270969 164.59766 22.833984 C 164.11867 22.013249 163.73567 21.274428 163.40234 20.59375 A 19.756458 19.756458 0 0 1 161.7832 16.292969 A 0.28011425 0.28011425 0 0 0 161.53711 16.013672 A 0.38655768 0.38655768 0 0 0 161.42188 16 z M 60.949219 52.181641 A 19.406315 19.406315 0 0 0 57.326172 54.107422 A 79.062249 79.062249 0 0 0 46.714844 63.197266 A 94.804671 94.804671 0 0 0 36.566406 75.373047 A 91.6898 91.6898 0 0 0 22 108.26367 C 21.96748 108.39893 20.521192 114.76227 19.830078 121.67773 A 80.885793 80.885793 0 0 0 19.714844 122.82422 C 19.723123 122.76595 19.727924 122.70671 19.736328 122.64844 C 19.692498 123.14454 19.649468 123.6416 19.615234 124.13867 A 103.46581 103.46581 0 0 0 19.494141 124.99219 A 80.885793 80.885793 0 0 0 19.207031 127.83008 A 126.31473 126.31473 0 0 0 19 130.96484 L 19 131.52539 A 108.56949 108.56949 0 0 0 19.041016 132.33789 A 126.31473 126.31473 0 0 1 19.207031 129.83008 A 80.885793 80.885793 0 0 1 19.494141 126.99219 A 103.46581 103.46581 0 0 0 19.435547 127.4082 C 19.459307 127.10365 19.470843 126.7895 19.501953 126.49023 C 19.56031 125.92889 19.636323 125.37686 19.714844 124.82422 A 80.885793 80.885793 0 0 1 19.830078 123.67773 C 20.521192 116.76227 21.96748 110.39893 22 110.26367 A 91.6898 91.6898 0 0 1 36.566406 77.373047 A 94.804671 94.804671 0 0 1 46.714844 65.197266 A 79.062249 79.062249 0 0 1 57.326172 56.107422 A 19.406315 19.406315 0 0 1 60.908203 54.201172 C 60.931526 53.358723 60.961872 52.672879 60.992188 52.210938 A 19.406315 19.406315 0 0 0 60.947266 52.232422 C 60.94804 52.220362 60.948419 52.193421 60.949219 52.181641 z M 19.714844 124.82422 A 80.885793 80.885793 0 0 0 19.494141 126.99219 A 103.46581 103.46581 0 0 1 19.615234 126.13867 C 19.649468 125.6416 19.692498 125.14454 19.736328 124.64844 C 19.727924 124.70671 19.723123 124.76595 19.714844 124.82422 z M 19.494141 124.99219 A 80.885793 80.885793 0 0 1 19.714844 122.82422 C 19.636323 123.37686 19.56031 123.92889 19.501953 124.49023 C 19.470843 124.7895 19.459307 125.10365 19.435547 125.4082 A 103.46581 103.46581 0 0 1 19.494141 124.99219 z M 60.884766 58.054688 C 60.818789 64.740356 61.301233 76.986284 64.724609 81.375 L 64.734375 81.375 A 80.406798 80.406798 0 0 1 90.378906 61.447266 A 50.33093 50.33093 0 0 1 90.886719 59.179688 A 80.406798 80.406798 0 0 0 90.863281 59.191406 A 50.33093 50.33093 0 0 1 90.867188 59.179688 A 80.406798 80.406798 0 0 0 64.734375 79.375 L 64.724609 79.375 C 61.627482 75.40453 60.940851 64.967675 60.884766 58.054688 z M 206.23242 63.667969 A 112.7908 112.7908 0 0 1 207.46484 66.376953 C 214.74655 70.871654 223.54902 82.408415 228.01172 93.146484 A 111.64514 111.64514 0 0 1 235.79688 135.14062 A 111.64514 111.64514 0 0 0 228.01172 91.146484 C 223.2946 79.796239 213.72548 67.54195 206.23242 63.667969 z M 89.308594 72.232422 A 50.33093 50.33093 0 0 0 91.191406 87.714844 A 32.456839 32.456839 0 0 1 93.992188 89.837891 A 54.305751 54.305751 0 0 1 95.857422 88.513672 L 94.330078 87.597656 A 54.305751 54.305751 0 0 0 93.992188 87.837891 A 32.456839 32.456839 0 0 0 91.191406 85.714844 A 50.33093 50.33093 0 0 1 89.308594 72.232422 z M 102.88281 178.12695 C 103.39119 178.39015 103.89984 178.64267 104.4082 178.88672 L 104.37695 178.86719 C 104.39115 178.87469 104.40562 178.88067 104.41992 178.88867 L 104.38672 178.86719 C 103.86572 178.63469 103.38982 178.37064 102.88281 178.12695 z "
     id="path1049" />
  <path
     style="opacity:0.2;fill:#000000;fill-opacity:1;stroke-width:2.80114269"
     d="M 60.949219 52.181641 A 19.406315 19.406315 0 0 0 60.908203 52.201172 C 60.879203 53.2487 60.872894 54.59143 60.884766 56.054688 C 60.901273 54.381924 60.942937 52.961418 60.992188 52.210938 A 19.406315 19.406315 0 0 0 60.947266 52.232422 C 60.94804 52.220362 60.948419 52.193421 60.949219 52.181641 z M 90.867188 59.179688 A 80.406798 80.406798 0 0 0 90.378906 59.447266 A 50.33093 50.33093 0 0 0 89.308594 70.232422 A 50.33093 50.33093 0 0 1 90.886719 59.179688 A 80.406798 80.406798 0 0 0 90.863281 59.191406 A 50.33093 50.33093 0 0 1 90.867188 59.179688 z M 206.23242 63.667969 A 112.7908 112.7908 0 0 1 216.39648 92.767578 C 216.67898 93.432761 216.96219 94.096554 217.23633 94.779297 L 217.22656 94.722656 L 217.22656 94.619141 A 112.7908 112.7908 0 0 0 207.46484 64.376953 C 207.04971 64.120711 206.63656 63.876912 206.23242 63.667969 z M 19.041016 130.33789 A 126.31473 126.31473 0 0 0 19 130.96484 L 19 131.52539 A 108.56949 108.56949 0 0 0 214.60742 196.33008 A 108.56949 108.56949 0 0 0 225.76562 177.74414 A 108.56949 108.56949 0 0 0 234.56055 149.88477 C 234.74262 148.4842 234.89026 147.09622 235.05273 145.68164 A 111.64514 111.64514 0 0 0 235.79688 133.14062 A 111.64514 111.64514 0 0 1 235.05273 143.68164 C 234.89026 145.09622 234.74262 146.4842 234.56055 147.88477 A 108.56949 108.56949 0 0 1 225.76562 175.74414 A 108.56949 108.56949 0 0 1 214.60742 194.33008 A 108.56949 108.56949 0 0 1 19.041016 130.33789 z M 102.88281 174.12695 C 103.39119 174.39015 103.89984 174.64267 104.4082 174.88672 L 104.37695 174.86719 C 104.39115 174.87469 104.40562 174.88067 104.41992 174.88867 L 104.38672 174.86719 C 103.86572 174.63469 103.38982 174.37064 102.88281 174.12695 z "
     id="path1054" />
  <path
     style="fill:#0a0a0a;stroke-width:2.80115604;fill-opacity:0"
     id="path936"
     d="m 127.75488,110.64809 c -0.17927,2.70031 -9.72001,12.01416 -13.05619,12.01416 -30.87153,0 -35.8828,18.67531 -35.8828,18.67531 1.36696,15.72569 12.325087,28.67824 25.57174,35.52987 0.60505,0.31372 1.21851,0.59664 1.83196,0.87396 q 1.59386,0.70589 3.18771,1.30533 a 48.277923,48.277923 0 0 0 14.12624,2.72553 c 54.10993,2.53785 64.59185,-64.70671 25.54374,-84.219603 a 37.479466,37.479466 0 0 1 26.1768,6.355863 54.79061,54.79061 0 0 0 -47.56923,-27.779117 c -1.28853,0 -2.54905,0.106444 -3.81517,0.19328 A 54.30601,54.30601 0 0 0 93.992547,87.838234 c 1.65549,1.40058 3.52386,3.27176 7.459483,7.151363 7.36703,7.257823 26.26083,14.776123 26.30285,15.658493 z"
     inkscape:connector-curvature="0" />
  <path
     style="opacity:0.3;fill:#ffffff;fill-opacity:1;stroke-width:2.80115604"
     d="m 127.68164,76.128906 c -1.28853,0 -2.54833,0.106524 -3.81445,0.19336 -10.88999,0.74862 -21.30164,4.761634 -29.876956,11.515625 0.395247,0.334387 0.807202,0.70041 1.251954,1.109375 8.329182,-6.206361 18.263562,-9.893795 28.625002,-10.625 1.26612,-0.08684 2.52592,-0.19336 3.81445,-0.19336 18.29282,0.05571 35.35116,9.236975 45.47266,24.474614 0.71336,0.41173 1.41296,0.84686 2.09765,1.30468 -9.71062,-17.137431 -27.87294,-27.743547 -47.57031,-27.779294 z"
     id="path912"
     inkscape:connector-curvature="0"
     sodipodi:nodetypes="ccccccccc" />
</svg>
