<svg enable-background="new" height="256" viewBox="0 0 256 256" width="256" xmlns="http://www.w3.org/2000/svg" xmlns:xlink="http://www.w3.org/1999/xlink">
  <filter id="filter11191" color-interpolation-filters="sRGB" height="1.024" width="1.024" x="-.01" y="-.01">
    <feGaussianBlur stdDeviation="1.12"/>
  </filter>
  <filter id="filter11210" color-interpolation-filters="sRGB" height="1.096" width="1.096" x="-.05" y="-.05">
    <feGaussianBlur stdDeviation="4.48"/>
  </filter>
  <circle cx="128.752" cy="127.248" filter="url(#filter11210)" opacity=".1" r="112"/>
  <circle cx="128.752" cy="125.248" filter="url(#filter11191)" opacity=".1" r="112"/>
  <circle cx="128.752" cy="123.248" opacity=".1" r="114"/>
  <g enable-background="new" fill="#f6f5f4" transform="matrix(.86666672166 0 0 .86666672166 -169.4271021115 -91.70394261673)">
    <circle cx="344.053" cy="248.022" fill="#ffbe6f" r="129.23"/>
    <circle cx="400.534" cy="238.747" fill="#ff7800" r="55.226"/>
    <path d="m215.38832 236.78018a129.22946 129.22946 0 0 0 -.56629 11.24481 129.22946 129.22946 0 0 0 .32359 9.14145 129.22946 129.22946 0 0 0 1.55863 12.81962 129.22946 129.22946 0 0 0 2.83143 12.60388 129.22946 129.22946 0 0 0 4.07186 12.25871 129.22946 129.22946 0 0 0 5.27454 11.78952 129.22946 129.22946 0 0 0 6.42868 11.20704 129.22946 129.22946 0 0 0 7.51271 10.50595 129.22946 129.22946 0 0 0 8.52663 9.70773 129.22946 129.22946 0 0 0 9.45426 8.8017 129.22946 129.22946 0 0 0 10.27942 7.82011 129.22946 129.22946 0 0 0 11.0129 6.75227 129.22946 129.22946 0 0 0 11.63311 5.61973 129.22946 129.22946 0 0 0 12.13467 4.42779 129.22946 129.22946 0 0 0 12.5176 3.19276 129.22946 129.22946 0 0 0 12.77107 1.93078 129.22946 129.22946 0 0 0 12.90051.64718 129.22946 129.22946 0 0 0 9.14146-.32359 129.22946 129.22946 0 0 0 12.825-1.55863 129.22946 129.22946 0 0 0 12.60389-2.82604 129.22946 129.22946 0 0 0 12.25872-4.07185 129.22946 129.22946 0 0 0 11.78951-5.27993 129.22946 129.22946 0 0 0 11.20704-6.42328 129.22946 129.22946 0 0 0 10.50594-7.51814 129.22946 129.22946 0 0 0 9.70236-8.52122 129.22946 129.22946 0 0 0 8.80707-9.45426 129.22946 129.22946 0 0 0 7.81474-10.28482 129.22946 129.22946 0 0 0 6.75227-11.01289 129.22946 129.22946 0 0 0 5.61971-11.62772 129.22946 129.22946 0 0 0 3.44627-9.44347l-22.06894-19.12427s-12.56074-11.24736-18.60652-15.78584c-6.04577-4.53851-10.21277-6.97544-17.47934-11.56301-7.26657-4.58758-19.3756-12.19701-26.22169-15.78587-6.84608-3.58884-9.02521-4.21485-14.37824-6.48262-5.35304-2.26775-10.4411-4.6628-17.75978-7.0489-7.31867-2.38607-18.61267-5.40392-26.21629-6.76844-7.60361-1.36452-12.71833-1.78294-19.17279-1.97392-6.45446-.19081-12.61287-.0166-19.45324.84673-6.84037.86283-14.1012 2.23515-21.42713 4.51412-7.32594 2.27895-13.48582 4.52077-22.27388 9.30325-7.4454 4.05178-21.34254 14.24588-26.08146 17.74358z" fill="#3584e4"/>
  </g>
  <path d="m128.752 11.248007a112 112 0 0 0 -112 111.999993 112 112 0 0 0 .04102 1.16992 112 112 0 0 1 111.95898-111.169913 112 112 0 0 1 111.95898 110.830073 112 112 0 0 0 .041-.83008 112 112 0 0 0 -112-111.999993z" fill="#fff" opacity=".3"/>
  <path d="m128.752 235.248a112 112 0 0 1 -112-112 112 112 0 0 1 .04102-1.16992 112 112 0 0 0 111.95898 111.16992 112 112 0 0 0 111.95898-110.83008 112 112 0 0 1 .041.83008 112 112 0 0 1 -112 112z" opacity=".2"/>
</svg>
