<svg enable-background="new" height="256" viewBox="0 0 256 256" width="256" xmlns="http://www.w3.org/2000/svg" xmlns:xlink="http://www.w3.org/1999/xlink">
  <filter id="filter11191" color-interpolation-filters="sRGB" height="1.024" width="1.024" x="-.01" y="-.01">
    <feGaussianBlur stdDeviation="1.12"/>
  </filter>
  <filter id="filter11210" color-interpolation-filters="sRGB" height="1.096" width="1.096" x="-.05" y="-.05">
    <feGaussianBlur stdDeviation="4.48"/>
  </filter>
  <circle cx="128.752" cy="127.248" filter="url(#filter11210)" opacity=".1" r="112"/>
  <circle cx="128.752" cy="125.248" filter="url(#filter11191)" opacity=".1" r="112"/>
  <circle cx="128.752" cy="123.248" opacity=".1" r="114"/>
  <rect fill="#d5d3cf" height="212.8" rx="104.533" width="209.067" x="24.18" y="19.55"/>
  <path d="m240.75624 123.248a112 112 0 0 1 -111.99997 111.99999 112 112 0 0 1 -112.000035-111.99999 112 112 0 0 1 112.000035-112.000004 112 112 0 0 1 111.99997 112.000004z" fill="#3d3846"/>
  <path d="m396.82165 229.45358c-1.0641-2.76634-4.25856-4.04456-6.81289-2.98024-1.91615.85185-3.1934 2.76823-3.1934 4.6846 0 .63732 0 1.27675.42612 1.70164 4.89664 12.98785 7.664 27.03853 7.664 41.94152 0 60.25174-44.92183 110.28323-103.25638 117.73418v-55.56712c3.61846-.63732 7.02491-1.70373 10.43135-2.76635v46.62404c47.47716-11.49658 83.03076-54.50199 83.03076-106.02475 0-41.08924-22.77997-77.07005-56.4173-95.59249-2.55433-1.48919-5.74876-.42488-7.02692 2.34231-.42506.63942-.42506 1.49128-.42506 2.34231 0 1.91615 1.06415 3.61863 2.55433 4.47069 30.44494 16.81915 51.09663 49.39332 51.09663 86.65024 0 41.94131-25.97437 77.70906-62.80614 92.18588v-41.30232c6.38783-1.91615 11.07145-7.87709 11.07145-15.11604 0-5.96072-2.9804-10.85842-7.87704-13.62561 3.61848-35.76772 20.01261-26.18647 20.01261-37.68303v-6.6008c0-17.03221-39.38712-72.59934-57.90953-73.87649h-3.40652c-18.52241 1.27883-57.90852 56.84428-57.90852 73.87649v6.59994c0 11.28331 16.1801 1.91408 20.01261 37.68285-4.68462 2.76739-7.665 7.87688-7.665 13.62581 0 7.02587 4.68461 12.9866 11.07145 15.11584v41.30336c-36.61876-14.47789-62.80615-50.24541-62.80615-92.18693 0-37.25691 20.65168-69.83109 51.09662-86.65024 2.34231-1.27674 3.40644-4.25762 2.12826-6.81279-.63706-1.91617-2.55431-2.97943-4.47057-2.97943-.85111 0-1.70322.21245-2.55433.63732-33.63836 18.52245-56.42032 54.50326-56.42032 95.59249 0 51.52277 35.55461 94.52819 83.45682 106.23783v-46.6251c3.40645 1.06432 6.81289 2.12925 10.43235 2.76741v55.56713c-58.33356-7.66403-103.25538-57.4835-103.25538-117.94727 0-14.6899 2.76735-28.7408 7.664-41.94152 1.06513-2.55433-.21204-5.53459-2.76738-6.59973-.63907-.21244-1.27715-.42489-1.91624-.42489-2.12927 0-4.04552 1.27674-4.89662 3.40641-5.53573 14.2648-8.51611 29.59372-8.51611 45.56078 0 69.61909 54.92813 126.25031 123.90807 129.01876v-65.3604c1.91625.21244 5.32269.21244 5.32269.21244s3.40644 0 5.32269-.21244v65.3604c68.97994-2.76845 123.90807-59.39967 123.90807-129.01876-.21204-15.96706-2.9804-31.29598-8.30308-45.34793zm-97.08258 73.6647c1.91625-1.91617 4.47057-3.19459 7.45095-3.19459 2.9814 0 5.53573 1.27885 7.45097 3.19459 1.91725 1.91406 3.19442 4.4705 3.19442 7.45097 0 2.98025-1.27717 5.53562-3.19341 7.45095-1.91625 1.91617-4.47058 3.19439-7.45097 3.19439-2.98139 0-5.53571-1.27674-7.45196-3.19355-1.91625-1.91617-3.19342-4.47154-3.19342-7.45095 0-2.98131 1.27717-5.5367 3.19342-7.45181zm-47.6902 14.90192c-1.91625 1.91617-4.47057 3.19439-7.45095 3.19439-2.9814 0-5.53573-1.27674-7.45097-3.19355-2.13029-1.91617-3.19443-4.47154-3.19443-7.45095 0-2.98131 1.27718-5.5367 3.19342-7.45181 1.91625-1.91617 4.47058-3.19459 7.45097-3.19459 2.98139 0 5.53571 1.27885 7.45196 3.19459 1.91625 1.91406 3.19342 4.4705 3.19342 7.45097-.21204 2.98025-1.27717 5.53562-3.19342 7.45095z" fill="#17988c" transform="matrix(.86666673 0 0 .86666673 -110.35189 -114.7296)"/>
  <path d="m128.752 235.248a112 112 0 0 1 -112-112 112 112 0 0 1 .04102-1.16992 112 112 0 0 0 111.95898 111.16992 112 112 0 0 0 111.95898-110.83008 112 112 0 0 1 .041.83008 112 112 0 0 1 -112 112z" opacity=".2"/>
  <path d="m172.78711 40.019531c-1.7645-.172642-3.53052.79703-4.36133 2.595703-.36838.554164-.36719 1.291738-.36719 2.029297 0 .265387.03133.523668.07618.777344.05144-.291917.13249-.568179.29101-.806641 1.10774-2.398231 3.87609-3.321881 6.08984-2.03125 28.85065 15.886646 48.47363 46.595792 48.87696 81.746096.00279-.3004.01953-.59737.01953-.89844 0-35.610677-19.74413-66.794873-48.89649-82.847656-.55343-.322657-1.14035-.506905-1.72851-.564453zm-87.761719.011719c-.737629 0-1.475262.184514-2.212891.552734-29.153247 16.052792-48.898437 47.236988-48.898438 82.847656 0 .30107.016736.59804.019532.89844.403359-35.150295 20.027377-65.859441 48.878906-81.746096.737629-.36822 1.475262-.552734 2.212891-.552734 1.660758 0 3.322881.92135 3.875 2.582031.159288.318429.265666.644459.34375.972657.218965-.958988.143043-1.999523-.34375-2.972657-.552119-1.660681-2.214242-2.582031-3.875-2.582031zm42.070309.369141c-16.05275 1.108319-50.187497 49.264141-50.187497 64.025389v2c0-14.761248 34.134747-62.91707 50.187497-64.025389h2.95118c16.05275 1.106863 50.18945 49.264141 50.18945 64.025389v-2c0-14.761248-34.1367-62.918526-50.18945-64.025389zm-98.714841 40.59375c-1.845367 0-3.50652 1.105457-4.24414 2.951171-4.797633 12.362828-7.38086 25.648208-7.38086 39.486328 0 .32905.008893.656.011719.98438.123388-13.47202 2.689185-26.411117 7.369141-38.470708.73762-1.845714 2.398773-2.951171 4.24414-2.951171.553878 0 1.106296.183072 1.660157.367187 1.345814.560975 2.273064 1.738781 2.59375 3.070313.488468-2.047742-.592474-4.236123-2.59375-5.070313-.553861-.184115-1.106279-.367187-1.660157-.367187zm201.001951.230468c-.58527-.011602-1.17312.091663-1.72656.322266-1.66066.73827-2.76758 2.399693-2.76758 4.060547 0 .378154.00649.752652.125 1.072266.32194-1.322371 1.29392-2.533248 2.64258-3.132813 2.21375-.922411 4.98208.18649 5.9043 2.583984 4.53552 11.973858 6.92585 25.018131 7.17968 38.605471.00497-.43493.01563-.86857.01563-1.30469-.18377-13.83812-2.58232-27.122423-7.19531-39.300781-.69167-1.798121-2.42193-2.871443-4.17774-2.90625zm2.50586 43.212891c-.4969 51.76756-39.24736 94.61338-89.47851 101.0293v2c50.55661-6.45749 89.49023-49.81698 89.49023-102.03516 0-.33243-.00855-.66269-.01172-.99414zm-206.080076.00781c-.003206.32889-.011719.65669-.011719.98633 0 52.40194 38.932526 95.57854 89.488285 102.2207v-2c-50.228827-6.5992-88.977425-49.26364-89.476566-101.20703zm16.982422.10938c-.004311.35387-.017578.70568-.017578 1.06054 0 36.34932 22.695379 67.34703 54.43164 79.89454v-2c-31.461472-12.43887-54.025458-43.01332-54.414062-78.95508zm171.746094 0c-.38526 35.94182-22.76942 66.51707-54.41406 78.95508v2c31.92087-12.54658 54.43164-43.5454 54.43164-79.89454 0-.35509-.01326-.70644-.01758-1.06054zm-51.42773 18.38281c-.07504.61443-.15122 1.22086-.2168 1.86914 3.95186 2.23328 6.46029 6.06731 6.78711 10.75586.02073-.31356.03906-.62764.03906-.94727 0-5.07582-2.49688-9.25831-6.60937-11.67773zm-69.083989.01172c-3.927048 2.42806-6.416016 6.77658-6.416016 11.66406 0 .32469.016367.64577.039063.96484.330643-4.55564 2.827124-8.54257 6.603515-10.77343-.068954-.64355-.148606-1.24513-.226562-1.85547zm16.744139 12.29297c-.30515 2.23498-1.19625 4.16376-2.67969 5.64648-1.66075 1.66068-3.87403 2.76758-6.45703 2.76758-2.583878 0-4.797154-1.10634-6.457029-2.76758-1.597239-1.4367-2.499593-3.2884-2.714843-5.43359-.03536.31934-.054688.64464-.054688.97656 0 2.58216.92328 4.79635 2.769531 6.45703 1.659875 1.66124 3.873151 2.76758 6.457029 2.76758 2.583 0 4.79628-1.1069 6.45703-2.76758 1.66075-1.65995 2.58381-3.8761 2.76758-6.45898 0-.40633-.03526-.8001-.08789-1.1875zm54.27735.1875c-.24479 2.15577-1.26693 4.0176-2.70899 5.45898-1.66075 1.66068-3.87403 2.76758-6.45703 2.76758-2.58387 0-4.79823-1.10634-6.45898-2.76758-1.44208-1.44201-2.4642-3.30172-2.70899-5.45703-.03711.32697-.05859.65981-.05859 1 0 2.58216 1.10682 4.79635 2.76758 6.45703 1.66075 1.66124 3.87511 2.76758 6.45898 2.76758 2.583 0 4.79628-1.1069 6.45703-2.76758 1.66074-1.65995 2.76758-3.8761 2.76758-6.45898 0-.34013-.02147-.67305-.05859-1z" fill="#fcfcfc" opacity=".3" transform="matrix(1.00000002641 0 0 1.00000002641 -.00000393582 .00000171742)"/>
  <path d="m128.752 11.248007a112 112 0 0 0 -112 111.999993 112 112 0 0 0 .04102 1.16992 112 112 0 0 1 111.95898-111.169913 112 112 0 0 1 111.95898 110.830073 112 112 0 0 0 .041-.83008 112 112 0 0 0 -112-111.999993z" fill="#fff" opacity=".3"/>
</svg>
