<svg height="256" width="256" xmlns="http://www.w3.org/2000/svg" xmlns:xlink="http://www.w3.org/1999/xlink">
  <linearGradient id="linearGradient4358" gradientUnits="userSpaceOnUse" x1="88" x2="488" y1="88" y2="488">
    <stop offset="0" stop-opacity=".588235"/>
    <stop offset="1" stop-opacity=".205556"/>
  </linearGradient>
  <filter id="filter4380" color-interpolation-filters="sRGB" height="1.088" width="1.106" x="-.05" y="-.04">
    <feGaussianBlur stdDeviation="8.48"/>
  </filter>
  <filter id="filter4346" color-interpolation-filters="sRGB" height="1.022" width="1.026" x="-.01" y="-.01">
    <feGaussianBlur stdDeviation="2.12"/>
  </filter>
  <g transform="translate(0 208)">
    <path d="m141.84323 74c-70.59344 0-78.18921 7.250835-77.84323 77.98706v146.01294 146.01294c-.34598 70.73623 7.24979 77.98706 77.84323 77.98706h292.31354c70.59344 0 79.78033-7.27652 77.84323-77.98706v-146.01294-146.01294c0-70.737067-7.24979-77.98706-77.84323-77.98706z" filter="url(#filter4346)" opacity=".1" transform="matrix(.5 0 0 .5 -14.116488 -228.82553)"/>
    <path d="m141.84323 74c-70.59344 0-78.18921 7.250835-77.84323 77.98706v146.01294 146.01294c-.34598 70.73623 7.24979 77.98706 77.84323 77.98706h292.31354c70.59344 0 79.78033-7.27652 77.84323-77.98706v-146.01294-146.01294c0-70.737067-7.24979-77.98706-77.84323-77.98706z" fill="url(#linearGradient4358)" filter="url(#filter4380)" opacity=".3" transform="matrix(.5 0 0 .5 -14.116488 -228.82523)"/>
    <path d="m55.695112-194.82553c-36.09881 0-39.983002 3.69016-39.80608 39.68984v74.310155 74.3101591c-.176922 35.9996899 3.70727 39.6898399 39.80608 39.6898399h148.387318c36.09881 0 40.77464-3.70276 39.80608-39.6898399v-74.3101591-74.310155c0-36.00011-3.70727-39.68984-39.80608-39.68984z" opacity=".1"/>
    <path d="m17.877654-80.825235v8 65.0058591c0 35.3685299 3.625164 38.9941399 38.921874 38.9941399h146.156252c35.29673 0 39.09486-3.62602 38.92187-38.9941399v-65.0058591-8z" fill="#fff" opacity=".05"/>
    <g transform="translate(-.258061)">
      <g transform="translate(.258061 -208)">
        <path d="m55.361328 15.201172c-3.769678.01283-7.313486.049548-10.367187.197266-3.477124.1682-6.514299.448292-9.166016.894531-2.651717.446238-4.9196 1.060416-6.855469 1.894531-.967934.417057-1.852595.889207-2.662109 1.423828-.800406.528606-1.522797 1.120458-2.181641 1.777344l105.810544 105.810548 105.78516-105.783204c-.00228-.002281-.00358-.005534-.00586-.007813-.66749-.665921-1.40403-1.262246-2.2168-1.796875-.81276-.534629-1.70234-1.006762-2.67383-1.423828-1.94296-.834132-4.21652-1.448276-6.875-1.894531-2.65847-.446255-5.70207-.726321-9.18359-.894531-3.05784-.147741-6.60434-.184442-10.375-.197266z" fill="#2f5fdd"/>
        <path d="m24.158203 232.98438c.651837.64635 1.362609 1.23234 2.152344 1.7539.809514.53462 1.694175 1.00677 2.662109 1.42383 1.935869.83411 4.203752 1.44634 6.855469 1.89258s5.688892.72633 9.166016.89453c3.477123.1682 7.392598.22461 11.804687.22461h146.158202c4.41209 0 8.33098-.0564 11.8125-.22461s6.52512-.44828 9.18359-.89453c2.65848-.44626 4.93204-1.05845 6.875-1.89258.97149-.41707 1.86107-.8892 2.67383-1.42383.80486-.52943 1.53298-1.12118 2.19532-1.7793l-105.75782-105.75781z" fill="#9b33ae"/>
        <path d="m235.70117 232.95703c.00551-.00547.01208-.01014.01758-.01562.66749-.66592 1.26512-1.40195 1.80078-2.21289.53566-.81095 1.00851-1.69828 1.42578-2.66797.83454-1.93939 1.44706-4.20848 1.88867-6.86524.44162-2.65676.71291-5.69962.86914-9.18359.15624-3.48397.19741-7.40906.17579-11.83008v-73.00781-73.005861c.02162-4.421014-.01955-8.346107-.17579-11.830078-.15623-3.483972-.42752-6.526832-.86914-9.183594-.44161-2.656762-1.05413-4.927802-1.88867-6.867188-.41727-.969692-.89012-1.857026-1.42578-2.667968-.53331-.807386-1.12901-1.537568-1.79297-2.201172l-105.7832 105.781251z" fill="#46a926"/>
        <path d="m24.128906 21.388672c-.007497.007475-.017911.012039-.02539.019531-.66479.665915-1.261163 1.4-1.794922 2.210938-.533759.810937-1.005452 1.698278-1.421875 2.667968-.832847 1.939382-1.444953 4.210416-1.890625 6.867188-.445673 2.656772-.724521 5.699594-.892578 9.183594-.121306 2.514784-.136303 5.544018-.16211 8.539062v152.595707c.025807 2.99504.040804 6.02427.16211 8.53906.168057 3.484.446905 6.52682.892578 9.18359.445672 2.65677 1.057778 4.92781 1.890625 6.86719.416423.96969.888116 1.85508 1.421875 2.66602.533759.81093 1.130132 1.54697 1.794922 2.21289.015889.01591.036766.02713.052734.04297l105.7832-105.78516z" fill="#da1636"/>
      </g>
      <path d="m140.37969-176.79232c-4.72004 0-8.85033.57168-12.39844 1.71096-3.51579 1.10676-6.54688 2.655-9.08594 4.6406-2.50647 1.95312-4.58987 4.26048-6.25 6.92972-1.62755 2.66908-2.92967 4.3672-3.90625 7.49216-.94398 3.09244-1.6094 6.33344-2 9.71876-.35808 3.38516-.53906 6.7852-.53906 10.20312h.008c0 5.37272.63694 10.025 1.90625 13.96096 1.30132 3.90924 3.0672 7.14812 5.3125 9.71872 2.28263 2.57064 4.95186 4.48852 8.00781 5.75784 3.0611 1.23728 6.35239 1.85936 9.867 1.85936 3.58395 0 6.80544-.55228 9.66406-1.65624 2.86455-1.13928 5.30992-2.76696 7.32813-4.88284 2.01816-2.14836 3.55859-4.75264 4.63281-7.81248 1.10676-3.0596 1.66406-6.5248 1.66406-10.39844 0-3.61328-.45573-6.81776-1.36718-9.6172-.9114-2.7994-2.22787-5.5638-3.95313-7.48436-1.69267-1.92056-3.77606-3.38152-6.25-4.39064-2.47393-1.00908-5.25918-1.5156-8.35156-1.5156-1.92056 0-3.66408.2096-5.22656.6328-1.52995.4232-2.9115 1.00912-4.14844 1.7578-1.237.71616-2.32945 1.99744-3.27344 3.03908-.91145 1.00912-1.69271 2.10156-2.34375 3.27344h-.58594c.16276-3.32048.58988-6.3516 1.27344-9.08596.71615-2.73436 1.90237-3.875 3.5625-5.82812 1.66014-1.95308 3.90236-3.47264 6.73438-4.54688 2.83206-1.10676 6.44925-1.65624 10.84375-1.65624 1.39971 0 2.78125.0936 4.14843.2892 1.39972.1628 2.71619.3944 3.95313.68752v-12.06252c-.61849-.1304-1.31253-.246-2.09375-.3436-.78127-.0976-1.59898-.1628-2.44531-.1952-.8138-.0652-1.6237-.108-2.4375-.1408-.8138-.032-1.56644-.0548-2.25-.0548zm-9.17969 36.20312c2.9622 0 5.16151 1.01304 6.59375 3.03128 1.46483 1.98568 2.19531 4.72008 2.19531 8.20312 0 2.1484-.23176 4-.6875 5.56248-.42314 1.56248-1.03776 2.86464-1.85156 3.90628-.78122 1.00904-1.72137 1.776-2.82812 2.29684-1.07423.48828-2.2826.7344-3.61719.7344-1.62761 0-3.05994-.41276-4.29688-1.22656-1.20441-.8138-2.23179-1.86984-3.07812-3.17188-.81375-1.3346-1.42837-2.81772-1.85157-4.44532-.3906-1.66012-.58593-3.31644-.58593-4.97656 0-1.2044.22396-2.39064.67969-3.56248.48826-1.17188 1.17576-2.23572 2.05468-3.17972.87892-.94404 1.93494-1.70312 3.17188-2.28904 1.23699-.58592 2.6042-.88284 4.10156-.88284zm51 27.78908v36.01564l3.42188 3.22656c.6185-.1952 1.35679-.3764 2.20312-.53908.84633-.1952 1.72136-.3764 2.63281-.53904.94399-.1628 1.88414-.2932 2.82813-.3908.97657-.0976 1.88804-.1408 2.73437-.1408 4.65465 0 8.09117.9258 10.30469 2.78124 2.24604 1.823 3.36719 4.49224 3.36719 8.0078 0 3.9386-1.13543 6.81772-3.41407 8.64064-2.27852 1.79032-5.59902 2.68748-9.96093 2.68748-1.46478 0-3.01302-.116-4.64063-.3436-1.62754-.2604-3.25521-.58596-4.88281-.97656-1.59501-.42308-3.14326-.90752-4.64063-1.46088-1.49736-.58576-2.81383-1.2082-3.95312-1.85924v13.03908c1.17332.65064 2.47694 1.2178 3.90625 1.70312 1.46664.49068 2.99911.87856 4.59375 1.17188 1.62664.3252 3.31815.57436 5.07812.73436 1.75464.1652 3.52834.2424 5.32032.2424 4.4906 0 8.46345-.5696 11.91406-1.71092 3.48288-1.13928 6.39068-2.76696 8.73438-4.8828 2.3437-2.1484 4.12371-4.75268 5.32812-7.81252 1.20441-3.09264 1.80469-6.57168 1.80469-10.44532 0-3.51572-.55731-6.62636-1.66407-9.32812-1.10675-2.73428-2.63284-5.01304-4.58593-6.83592-1.95315-1.82292-4.24616-3.20448-6.88281-4.14844-2.6366-.944-5.48703-1.42188-8.54688-1.42188v.008c-2.18098 0-3.96747.116-5.36719.3436-1.36718.228-2.57555.4518-3.61719.67968l1.17188-14.44556h22.8125v-12zm-124.023436.3748c-2.864544 0-5.454464.2968-7.765628.8828-2.311164.5534-4.423192 1.2982-6.343748 2.2422-1.92056.94404-3.678424 2.03648-5.273436 3.27344-1.595016 1.2044-3.12892 1.6732-4.593752 3.0078l8.203124 9.72656c2.604124-2.34368 5.092468-4.14452 7.468752-5.41404 2.376232-1.26952 4.850288-1.90624 7.421876-1.90624 2.441404 0 4.380256.6654 5.812496 2 1.464828 1.33456 2.195316 3.20836 2.195316 5.61716 0 2.181-.33988 4.2136-1.02344 6.10156-.683616 1.888-1.645872 3.7474-2.882812 5.57032-1.23694 1.82284-2.712248 3.68884-4.4375 5.60936-1.725204 1.92052-3.649764 4.02608-5.765624 6.30472l-16.796876 18.91404v9.69552h47.89844v-.008-11.89844h-29.093752v-.67968l8.585936-9.44532c2.539-2.50648 4.9193-4.96616 7.132816-7.375 2.2461-2.4414 4.21358-4.87896 5.906248-7.32032 1.692668-2.47392 3.03124-4.98444 4.007812-7.52344.976516-2.57168 1.46094-5.25524 1.46094-8.05468 0-3.09236-.520868-5.8776-1.562504-8.35156-1.009104-2.47388-2.470064-3.77476-4.390624-5.5-1.920504-1.7576-4.250016-3.10268-6.984376-4.04668-2.701984-.944-5.76176-1.42188-9.179684-1.42188zm48.023436 64.33612v11.28908h32.8125l-25.39062 60h.008 15.76562l24.8045-61.81248v-9.4766z" fill="#ededed"/>
      <path d="m140.12109 31.207031c-4.72004 0-8.85032.571658-12.39843 1.710938-3.51579 1.10676-6.54688 2.655025-9.08594 4.640625-2.50647 1.95312-4.58987 4.260447-6.25 6.929687-1.62755 2.66908-2.92967 4.367228-3.90625 7.492188-.94398 3.09244-1.6094 6.33343-2 9.71875-.35808 3.38516-.53906 6.785205-.53906 10.203125h.00781c0 .225624.00752.442932.00976.666015.04098-2.96841.21008-5.92521.52149-8.86914.3906-3.38532 1.05602-6.62631 2-9.71875.97658-3.12496 2.2787-4.823108 3.90625-7.492188 1.66013-2.66924 3.74353-4.976567 6.25-6.929687 2.53906-1.9856 5.57015-3.533865 9.08594-4.640625 3.54811-1.13928 7.67839-1.710938 12.39843-1.710938.68356 0 1.4362.022688 2.25.054688.8138.0328 1.6237.077378 2.4375.142578.84633.0324 1.66405.095759 2.44532.193359.78122.0976 1.47526.21335 2.09375.34375v-2c-.61849-.1304-1.31253-.24615-2.09375-.34375-.78127-.0976-1.59899-.160959-2.44532-.193359-.8138-.0652-1.6237-.109778-2.4375-.142578-.8138-.032-1.56644-.054688-2.25-.054688zm-5.71093 24.234375c-1.92056 0-3.66409.209613-5.22657.632813-1.52995.4232-2.91149 1.009132-4.14843 1.757812-1.237.71616-2.32945 1.997423-3.27344 3.039063-.91145 1.00912-1.69271 2.101557-2.34375 3.273437h-.44531c-.05563.657205-.10722 1.318342-.14063 2h.58594c.65104-1.17188 1.4323-2.264317 2.34375-3.273437.94399-1.04164 2.03644-2.322903 3.27344-3.039063 1.23694-.74868 2.61848-1.334612 4.14843-1.757812 1.56248-.4232 3.30601-.632813 5.22657-.632813 3.09238 0 5.87763.506545 8.35156 1.515625 2.47394 1.00912 4.55733 2.470065 6.25 4.390625 1.72526 1.92056 3.04172 4.684975 3.95312 7.484375.84958 2.609414 1.28608 5.58605 1.34375 8.902344.01399-.42382.02344-.851083.02344-1.285156 0-3.61328-.45574-6.817748-1.36719-9.617188-.9114-2.7994-2.22786-5.563815-3.95312-7.484375-1.69267-1.92056-3.77606-3.381505-6.25-4.390625-2.47393-1.00908-5.25918-1.515625-8.35156-1.515625zm-13.43946 23.115235c-.02051.25563-.03711.510327-.03711.767578 0 1.66012.19534 3.316442.58594 4.976562.4232 1.6276 1.03781 3.110713 1.85156 4.445313.84633 1.30204 1.87372 2.358075 3.07813 3.171875 1.23694.8138 2.66926 1.226562 4.29687 1.226562 1.33459 0 2.54296-.246095 3.61719-.734375 1.10675-.52084 2.04691-1.287835 2.82813-2.296875.8138-1.04164 1.42842-2.34377 1.85156-3.90625.45574-1.56248.6875-3.4141.6875-5.5625 0-.352327-.01239-.690337-.02735-1.027343-.06093 1.734707-.2756 3.271443-.66015 4.589843-.42314 1.56248-1.03776 2.86461-1.85156 3.90625-.78122 1.00904-1.72138 1.776035-2.82813 2.296875-1.07423.48828-2.2826.734375-3.61719.734375-1.62761 0-3.05993-.412762-4.29687-1.226562-1.20441-.8138-2.2318-1.869835-3.07813-3.171875-.81375-1.3346-1.42836-2.817713-1.85156-4.445313-.29402-1.249639-.47612-2.495566-.54883-3.74414zm60.97071 16.642578v2h36v-2zm-124.023441.375c-2.864544 0-5.454461.296812-7.765625.882812-2.311164.5534-4.423194 1.298188-6.34375 2.242188-1.92056.94404-3.678426 2.036481-5.273438 3.273441-1.595016 1.2044-3.128918 1.67321-4.59375 3.00781l1.015625 1.20508c1.153999-.7887 2.347745-1.28383 3.578125-2.21289 1.595012-1.23696 3.352878-2.3294 5.273438-3.27344 1.920556-.944001 4.032586-1.688789 6.34375-2.242189 2.311164-.586 4.901081-.882812 7.765625-.882812 3.417924 0 6.477703.477875 9.179687 1.421875 2.73436.944 5.063871 2.289276 6.984375 4.046876 1.92056 1.72524 3.381521 3.02612 4.390625 5.5.897094 2.13066 1.406755 4.49421 1.53125 7.08398.007527-.24486.03125-.48576.03125-.73242 0-3.09236-.520864-5.8776-1.5625-8.35156-1.009104-2.47388-2.470065-3.77476-4.390625-5.5-1.920504-1.757601-4.250015-3.102876-6.984375-4.046876-2.701984-.944-5.761763-1.421875-9.179687-1.421875zm7.083984 20.488281c-.093485 1.78166-.411267 3.46547-.982422 5.04297-.683616 1.888-1.645872 3.74739-2.882812 5.57031-1.23694 1.82284-2.712248 3.68886-4.4375 5.60938-1.725204 1.92052-3.649765 4.02604-5.765625 6.30468l-16.796875 18.91407v2l16.796875-18.91407c2.11586-2.27864 4.040421-4.38416 5.765625-6.30468 1.725252-1.92052 3.20056-3.78654 4.4375-5.60938 1.23694-1.82292 2.199196-3.68231 2.882812-5.57031.68356-1.88796 1.023438-3.92056 1.023438-6.10156 0-.32453-.014489-.63632-.041016-.94141zm137.939457 4.55078v.00977c-2.18098 0-3.96747.11419-5.36719.34179-1.30514.21766-2.44432.43124-3.45313.64844l-.16406 2.03125c1.04164-.22788 2.25001-.45169 3.61719-.67969 1.39972-.2276 3.18621-.34179 5.36719-.34179v-.00977c3.05985 0 5.91027.47788 8.54687 1.42188 2.63665.94396 4.92966 2.32551 6.88281 4.14843 1.95309 1.82288 3.47919 4.10166 4.58594 6.83594 1.0017 2.4453 1.54883 5.22944 1.64453 8.3418.00936-.33577.01953-.67176.01953-1.01367 0-3.51572-.5573-6.62637-1.66406-9.32813-1.10675-2.73428-2.63285-5.01306-4.58594-6.83594-1.95315-1.82292-4.24616-3.20447-6.88281-4.14843-2.6366-.944-5.48702-1.42188-8.54687-1.42188zm6.45312 24.0625c-.19039 3.39734-1.30677 5.93135-3.375 7.58594-2.27852 1.79032-5.59903 2.6875-9.96094 2.6875-1.46478 0-3.01301-.11615-4.64062-.34375-1.62754-.2604-3.25521-.58596-4.88281-.97656-1.59501-.42308-3.14326-.90758-4.64063-1.46094-1.49736-.58576-2.81383-1.20834-3.95312-1.85938v2c1.13929.65104 2.45576 1.27362 3.95312 1.85938 1.49737.55336 3.04562 1.03786 4.64063 1.46094 1.6276.3906 3.25527.71616 4.88281.97656 1.62761.2276 3.17584.34375 4.64062.34375 4.36191 0 7.68242-.89718 9.96094-2.6875 2.27864-1.82292 3.41406-4.70203 3.41406-8.64063 0-.32472-.01993-.63503-.03906-.94531zm-155.253905 10.61719-1.199219 1.32031v.67969h29.09375v-2zm51.800785 4.61719v2h48v-2zm31.96679 13.28906-24.54492 58h.00781.83789l24.54493-58z" fill="#fff" opacity=".3" transform="translate(.258061 -208)"/>
      <path d="m141.24609 41.027344c-4.3945 0-8.01169.54949-10.84375 1.65625-2.83202 1.07424-5.07423 2.593795-6.73437 4.546875-1.66013 1.95312-2.84635 3.093765-3.5625 5.828125-.68356 2.73436-1.11068 5.765457-1.27344 9.085937h.14063c.21534-2.544158.58958-4.912911 1.13281-7.085937.71615-2.73436 1.90237-3.875005 3.5625-5.828125 1.66014-1.95308 3.90235-3.472635 6.73437-4.546875 2.83206-1.10676 6.44925-1.65625 10.84375-1.65625 1.39971 0 2.78126.093462 4.14844.289062 1.39972.1628 2.71619.39438 3.95313.6875v-2c-1.23694-.29312-2.55341-.5247-3.95313-.6875-1.36718-.1956-2.74873-.289062-4.14844-.289062zm-10.30468 24.382812c-1.49736 0-2.86458.296893-4.10157.882813-1.23694.58592-2.29295 1.345022-3.17187 2.289062-.87892.944-1.56643 2.007808-2.05469 3.179688-.45573 1.17184-.67969 2.3581-.67969 3.5625 0 .41048.01323.822291.03711 1.232422.07552-.941184.28419-1.873378.64258-2.794922.48826-1.17188 1.17577-2.235688 2.05469-3.179688.87892-.94404 1.93493-1.703142 3.17187-2.289062 1.23699-.58592 2.60421-.882813 4.10157-.882813 2.9622 0 5.16151 1.01301 6.59375 3.03125 1.31665 1.784819 2.03509 4.181206 2.16796 7.175782.01129-.321152.02735-.637049.02735-.972657 0-3.48304-.73048-6.217445-2.19531-8.203125-1.43224-2.01824-3.63155-3.03125-6.59375-3.03125zm-24.98243 5.158203c-.00614.4449-.01757.888485-.01757 1.333985h.00781c0 5.37272.63694 10.024977 1.90625 13.960937 1.30132 3.90924 3.0672 7.14815 5.3125 9.71875 2.28263 2.57064 4.95186 4.488489 8.00781 5.757809 3.0611 1.23728 6.35258 1.85938 9.86719 1.85938 3.58395 0 6.80544-.55229 9.66406-1.65625 2.86455-1.13928 5.30992-2.766934 7.32813-4.882814 2.01816-2.14836 3.55859-4.75266 4.63281-7.8125 1.10676-3.0596 1.66406-6.524797 1.66406-10.398437 0-.245271-.01924-.47334-.02344-.714844-.11081 3.358318-.65788 6.396535-1.64062 9.113281-1.07422 3.05984-2.61465 5.66414-4.63281 7.8125-2.01821 2.11588-4.46358 3.743533-7.32813 4.882813-2.85862 1.103961-6.08011 1.656251-9.66406 1.656251-3.51461 0-6.80609-.6221-9.86719-1.859376-3.05595-1.26932-5.72518-3.187173-8.00781-5.757813-2.2453-2.5706-4.01118-5.80951-5.3125-9.71875-1.21601-3.770672-1.84524-8.205786-1.89649-13.294922zm-71.001949 33.617191c-.341998.23373-.680751.48982-1.015625.79492l8.203125 9.72656c2.604124-2.34368 5.092466-4.14454 7.46875-5.41406 2.376232-1.26952 4.850287-1.90625 7.421875-1.90625 2.441404 0 4.38026.6654 5.8125 2 1.26748 1.15476 1.983925 2.7163 2.154297 4.67578.018398-.35064.041016-.69995.041016-1.05859 0-2.4088-.730485-4.28263-2.195313-5.61719-1.43224-1.3346-3.371096-2-5.8125-2-2.571588 0-5.045643.63673-7.421875 1.90625-2.376284 1.26952-4.864626 3.07038-7.46875 5.41406zm160.171879 1.01367-1.17188 14.44531c.04727-.01034.11611-.02092.16406-.03125l1.00782-12.41406h22.8125v-2zm-115.125004 8.42773c-.077897 2.5342-.539211 4.97718-1.429687 7.32227-.976572 2.539-2.315145 5.04952-4.007813 7.52344-1.692668 2.44136-3.66015 4.87891-5.90625 7.32031-2.213516 2.40884-4.593812 4.86852-7.132812 7.375l-8.585938 9.44531v.67969h1.199219l7.386719-8.125c2.539-2.50648 4.919296-4.96616 7.132812-7.375 2.2461-2.4414 4.213582-4.87895 5.90625-7.32031 1.692668-2.47392 3.031241-4.98444 4.007813-7.52344.976516-2.57168 1.460937-5.25525 1.460937-8.05469 0-.42911-.011191-.8503-.03125-1.26758zm101.937504 15.58789v2l3.42187 3.22657c.6185-.1952 1.3568-.37639 2.20313-.53907.84633-.1952 1.72136-.37642 2.63281-.53906.94399-.1628 1.88413-.29302 2.82812-.39062.97657-.0976 1.88805-.14063 2.73438-.14063 4.65465 0 8.09117.92581 10.30469 2.78125 2.03858 1.65462 3.14011 4.01356 3.32812 7.0625.01937-.34562.03906-.691.03906-1.05469 0-3.51556-1.12114-6.18481-3.36718-8.00781-2.21352-1.85544-5.65004-2.78125-10.30469-2.78125-.84633 0-1.75781.04303-2.73438.14063-.94399.0976-1.88413.22782-2.82812.39062-.91145.16264-1.78648.34386-2.63281.53906-.84633.16268-1.58463.34387-2.20313.53907zm42.66015 12.14649c-.09664 3.46828-.68705 6.61197-1.78515 9.43164-1.20441 3.05984-2.98443 5.6641-5.32813 7.8125-2.3437 2.11584-5.25149 3.74353-8.73437 4.88281-3.45061 1.14132-7.42347 1.71094-11.91407 1.71094-1.79198 0-3.56567-.07699-5.32031-.24219-1.75997-.16-3.45148-.40917-5.07812-.73437-1.59464-.29332-3.12711-.6812-4.59375-1.17188-1.42931-.48532-2.73293-1.05248-3.90625-1.70312v2c1.17332.65064 2.47694 1.2178 3.90625 1.70312 1.46664.49068 2.99911.87856 4.59375 1.17188 1.62664.3252 3.31815.57437 5.07812.73437 1.75464.1652 3.52833.24219 5.32031.24219 4.4906 0 8.46346-.56962 11.91407-1.71094 3.48288-1.13928 6.39067-2.76697 8.73437-4.88281 2.3437-2.1484 4.12372-4.75266 5.32813-7.8125 1.20441-3.09264 1.80468-6.57167 1.80468-10.44531 0-.33373-.00949-.6599-.01953-.98633zm-190.464841 23.83789v2h47.898437v-.00781-1.99219zm119.804691 2.1875-24.80469 61.8125h-14.92774l-.8457 2h.00781 15.76563l24.80469-61.8125zm-48 1.8125v2h31.96679l.84571-2z" fill="#030000" opacity=".2" transform="translate(.258061 -208)"/>
    </g>
    <path d="m56.810792 31.174464c-35.296731 0-39.094874-3.62603-38.921884-38.9941399v-2c-.17299 35.3681099 3.625153 38.9941399 38.921884 38.9941399h146.156238c35.29673 0 38.92188-3.62561 38.92188-38.9941399v2c0 35.3685299-3.62515 38.9941399-38.92188 38.9941399z" opacity=".2"/>
    <path d="m56.805392-192.82553c-35.296728 0-39.094869 3.62603-38.921879 38.99414v2c-.17299-35.36811 3.625151-38.99414 38.921879-38.99414h146.156238c35.29673 0 38.92188 3.62561 38.92188 38.99414v-2c0-35.36853-3.62515-38.99414-38.92188-38.99414z" fill="#fff" opacity=".3"/>
  </g>
</svg>
