<svg xmlns="http://www.w3.org/2000/svg" xmlns:xlink="http://www.w3.org/1999/xlink" style="enable-background:new" width="256" height="256" version="1.0" viewBox="0 0 256 256">
 <title id="title4162">
  Adwaita Icon Template
 </title>
 <defs>
  <linearGradient id="linearGradient950">
   <stop style="stop-color:#9a9996" id="stop946" offset="0"/>
   <stop style="stop-color:#77767b" id="stop948" offset="1"/>
  </linearGradient>
  <linearGradient id="linearGradient1001" x1="1660.857" x2="1662.99" y1="806.297" y2="812.882" gradientTransform="matrix(1.8293937,-0.81599442,0.81599442,1.8293937,-3645.9624,100.02949)" gradientUnits="userSpaceOnUse" xlink:href="#linearGradient950"/>
  <clipPath id="clipPath5154" clipPathUnits="userSpaceOnUse">
   <circle style="fill:url(#radialGradient5158)" cx="128" cy="924.362" r="109.647"/>
  </clipPath>
  <clipPath id="clipPath977" clipPathUnits="userSpaceOnUse">
   <circle style="fill:url(#radialGradient5158)" cx="128" cy="924.362" r="109.647"/>
  </clipPath>
  <clipPath id="clipPath4688" clipPathUnits="userSpaceOnUse">
   <path style="fill:url(#radialGradient4692);stroke:#a7003f;stroke-linecap:round;stroke-linejoin:round" d="m 106.42383,889.60156 c -2.2448,-0.0524 -4.09304,1.75264 -4.09375,3.99805 v 32.64453 32.64453 c -4e-5,3.07923 3.33305,5.004 6,3.46485 l 28.26953,-16.32227 28.27148,-16.32227 c 2.66559,-1.54001 2.66559,-5.38772 0,-6.92773 l -28.27148,-16.32227 -28.26953,-16.32226 c -0.58054,-0.3353 -1.23603,-0.51932 -1.90625,-0.53516 z"/>
  </clipPath>
  <clipPath id="clipPath4564" clipPathUnits="userSpaceOnUse">
   <circle style="fill:url(#radialGradient4568)" cx="128" cy="924.362" r="109.647"/>
  </clipPath>
  <clipPath id="clipPath6215" clipPathUnits="userSpaceOnUse">
   <path style="fill:url(#radialGradient6219)" d="m 105.17325,806.18572 c -3.06859,0.56361 -6.11393,1.24721 -9.129005,2.04923 -3.838255,1.06506 -7.62084,2.32142 -11.333578,3.76438 -3.712189,1.44307 -7.34989,3.07087 -10.899472,4.87732 -3.549153,1.80656 -7.005749,3.78947 -10.35684,5.94129 -3.351877,2.15253 -6.593991,4.47137 -9.714191,6.94783 -3.119992,2.47544 -6.114241,5.10535 -8.971529,7.87988 -0.367219,0.38909 -0.731819,0.78065 -1.093777,1.17464 2.60205,17.85956 16.832359,40.03752 30.863064,55.74236 -4.76734,8.84435 -7.265993,18.73329 -7.272057,28.78068 0.02104,2.87431 0.246096,5.7435 0.673482,8.58593 -20.257302,-9.18513 -43.077023,-26.53494 -52.798465,-47.36396 -0.440667,1.15171 -0.863474,2.31018 -1.268271,3.47498 -1.176789,3.80495 -2.162562,7.66637 -2.953625,11.56979 -0.79154,3.90311 -1.3874065,7.84335 -1.7853678,11.80598 -0.39733,3.96334 -0.5961891,7.94407 -0.5958321,11.92728 -4.394e-4,2.81936 0.098928,5.63785 0.2979155,8.45018 0.282275,3.97319 0.763088,7.92978 1.4406374,11.85493 0.625626,3.51826 1.408798,7.00668 2.347153,10.45473 16.778133,6.68355 43.114514,5.45001 63.748015,1.14301 6.818545,11.02763 16.987182,19.58379 29.018153,24.41667 -18.071844,12.93645 -44.490188,24.02095 -67.37308,22.03245 1.384097,1.665 2.813203,3.2921 4.285735,4.8794 2.774977,2.8571 5.691103,5.5737 8.737453,8.1395 3.046107,2.5658 6.218619,4.9777 9.505651,7.2266 3.287242,2.2488 6.684891,4.3319 10.180217,6.2413 3.495379,1.9096 7.084075,3.6433 10.752641,5.1944 3.66896,1.5509 7.413193,2.9174 11.218668,4.0942 1.438565,0.3959 2.884421,0.7648 4.336807,1.1066 14.138748,-11.1844 26.206378,-34.5828 32.780368,-54.56406 12.95816,-0.38251 25.45395,-4.90132 35.65955,-12.89544 2.15922,22.12638 -1.46693,50.5581 -14.64692,69.3832 3.06859,-0.5636 6.11393,-1.2473 9.129,-2.0493 3.83826,-1.0651 7.62084,-2.3214 11.33358,-3.7644 3.71219,-1.4431 7.34989,-3.0709 10.89947,-4.8773 3.54915,-1.8066 7.00575,-3.7895 10.35684,-5.9413 3.35188,-2.1525 6.59399,-4.4714 9.71419,-6.9478 3.11999,-2.4754 6.11424,-5.1054 8.97153,-7.8799 0.36722,-0.3891 0.73182,-0.7806 1.09378,-1.1746 -2.60204,-17.85957 -16.83236,-40.03755 -30.86307,-55.74238 4.76735,-8.84435 7.266,-18.7333 7.27207,-28.78069 -0.021,-2.8743 -0.24611,-5.74349 -0.6735,-8.58592 20.25731,9.18513 43.07704,26.53494 52.79848,47.36396 0.44067,-1.15171 0.86347,-2.31018 1.26827,-3.47499 1.17679,-3.80495 2.16256,-7.66636 2.95362,-11.56978 0.79154,-3.90311 1.38741,-7.84335 1.78537,-11.80598 0.39733,-3.96334 0.59619,-7.94408 0.59583,-11.92729 4.4e-4,-2.81936 -0.0989,-5.63784 -0.29791,-8.45017 -0.28228,-3.97319 -0.76309,-7.92978 -1.44064,-11.85493 -0.62776,-3.53416 -1.41449,-7.03823 -2.35779,-10.50154 -20.56165,-7.32804 -45.89823,-4.79548 -63.74906,-1.11372 -6.81835,-11.01918 -16.98234,-19.56874 -29.00647,-24.39915 18.07184,-12.93645 44.49019,-24.02091 67.37307,-22.03241 -1.38409,-1.66502 -2.8132,-3.2921 -4.28573,-4.87944 -2.77498,-2.85712 -5.6911,-5.57368 -8.73745,-8.13949 -3.04611,-2.56581 -6.21862,-4.97769 -9.50565,-7.22659 -3.28724,-2.24885 -6.68489,-4.3319 -10.18022,-6.24135 -3.49538,-1.90963 -7.08407,-3.64325 -10.75264,-5.19438 -3.66896,-1.55092 -7.41319,-2.91736 -11.21867,-4.09421 -1.42662,-0.39262 -2.86041,-0.75869 -4.30063,-1.09804 -14.14688,11.18369 -26.2293,34.57475 -32.8107,54.55552 -12.96018,0.38127 -25.4582,4.90015 -35.665394,12.89544 -2.15922,-22.12637 1.466931,-50.55807 14.646924,-69.38315 z"/>
  </clipPath>
  <linearGradient id="linearGradient954">
   <stop id="stop950" offset="0" style="stop-color:#faf8f6"/>
   <stop id="stop952" offset="1" style="stop-color:#f1f0e9"/>
  </linearGradient>
  <filter style="color-interpolation-filters:sRGB" id="filter11191" width="1.024" height="1.024" x="-.01" y="-.01">
   <feGaussianBlur id="feGaussianBlur11193" stdDeviation="1.12"/>
  </filter>
  <filter style="color-interpolation-filters:sRGB" id="filter11210" width="1.096" height="1.096" x="-.05" y="-.05">
   <feGaussianBlur id="feGaussianBlur11212" stdDeviation="4.48"/>
  </filter>
 </defs>
 <circle style="opacity:0.1;filter:url(#filter11210)" cx="128.752" cy="127.248" r="112"/>
 <circle style="opacity:0.1;filter:url(#filter11191)" cx="128.752" cy="125.248" r="112"/>
 <circle style="opacity:0.1" cx="128.752" cy="123.248" r="114"/>
 <circle style="fill:#595959" cx="-128.752" cy="-123.248" r="112" transform="scale(-1)"/>
 <path style="opacity:0.1;fill:#ffffff" d="M 16.751953 123.24219 A 112 112 0 0 0 16.751953 123.24805 A 112 112 0 0 0 17.033203 131.16992 A 112 112 0 0 0 18.380859 142.28516 A 112 112 0 0 0 20.833984 153.20703 A 112 112 0 0 0 24.363281 163.83203 A 112 112 0 0 0 28.9375 174.05078 A 112 112 0 0 0 34.507812 183.76172 A 112 112 0 0 0 41.019531 192.86914 A 112 112 0 0 0 48.408203 201.2793 A 112 112 0 0 0 56.599609 208.91016 A 112 112 0 0 0 65.511719 215.68555 A 112 112 0 0 0 75.056641 221.53711 A 112 112 0 0 0 85.136719 226.40625 A 112 112 0 0 0 95.654297 230.24609 A 112 112 0 0 0 106.50195 233.01562 A 112 112 0 0 0 117.57031 234.6875 A 112 112 0 0 0 128.75195 235.24805 A 112 112 0 0 0 136.67383 234.9668 A 112 112 0 0 0 147.78906 233.61914 A 112 112 0 0 0 158.71094 231.16602 A 112 112 0 0 0 169.33594 227.63672 A 112 112 0 0 0 179.55469 223.0625 A 112 112 0 0 0 189.26562 217.49219 A 112 112 0 0 0 198.37305 210.98047 A 112 112 0 0 0 206.7832 203.5918 A 112 112 0 0 0 214.41406 195.40039 A 112 112 0 0 0 221.18945 186.48828 A 112 112 0 0 0 227.04102 176.94336 A 112 112 0 0 0 231.91016 166.86328 A 112 112 0 0 0 235.75 156.3457 A 112 112 0 0 0 238.51953 145.49805 A 112 112 0 0 0 240.19336 134.42969 A 112 112 0 0 0 240.75195 123.24805 A 112 112 0 0 0 240.75195 123.24219 L 16.751953 123.24219 z"/>
 <path style="opacity:0.3;fill:#ffffff" d="M 128.752,11.248007 A 112,112 0 0 0 16.752,123.248 112,112 0 0 0 16.79302,124.41792 112,112 0 0 1 128.752,13.248007 112,112 0 0 1 240.71098,124.07808 a 112,112 0 0 0 0.041,-0.83008 112,112 0 0 0 -112,-111.999993 z"/>
 <path style="opacity:0.2" d="m 128.752,235.248 a 112,112 0 0 1 -112,-112 112,112 0 0 1 0.04102,-1.16992 A 112,112 0 0 0 128.752,233.248 112,112 0 0 0 240.71098,122.41792 a 112,112 0 0 1 0.041,0.83008 112,112 0 0 1 -112,112 z"/>
 <g style="enable-background:new" id="layer9" transform="translate(-147.20667,-117.0118)">
  <g style="fill:#f6f5f4" transform="matrix(0.21757041,0,0,0.21757041,-2090.8865,-4419.1498)">
   <path style="fill:#f6f5f4" d="m 11114.595,21047.943 c -152.987,0 -181.676,217.907 -95.614,217.907 86.052,0 248.606,-217.907 95.614,-217.907 z m -236.373,26.698 c -2.429,0 -4.983,0.153 -7.675,0.502 -86.095,11.174 -55.815,160.908 -9.973,163.705 44.392,2.711 92.957,-163.948 17.648,-164.207 z m -149.17,59.239 c -4.551,0.1 -9.524,1.19 -14.929,3.42 -69.199,28.555 -10.498,146.427 28.269,138.506 35.766,-7.292 40.364,-143.115 -13.34,-141.926 z m -110.264,92.4 c -6.017,-0.203 -12.526,1.788 -19.453,6.571 -55.395,38.277 18.631,130.733 51.222,116.395 28.517,-12.552 10.346,-121.548 -31.769,-122.966 z m 316.331,70.747 c -118.758,-2.009 -275.404,57.572 -302.121,177.215 -28.934,129.474 119.108,309.095 273.574,309.095 75.99,0 163.634,-68.612 180.033,-155.535 12.525,-66.283 -147.375,-39.721 -141.63,4.138 6.884,52.57 -38.561,78.533 -83.073,44.643 -141.701,-107.885 234.614,-161.705 209.81,-309.095 -7.721,-45.879 -65.339,-69.255 -136.593,-70.461 z"/>
   <path style="fill:#ffffff" d="m 11114.595,21047.943 c -98.759,0 -145.648,90.766 -143.38,155.141 2.239,-63.475 49.246,-145.948 143.38,-145.948 42.902,0 60.981,17.137 62.902,41.797 2.055,-29.488 -14.851,-50.99 -62.902,-50.99 z m -236.373,26.698 c -2.429,0 -4.983,0.154 -7.675,0.503 -41.409,5.374 -55.85,42.799 -54.634,80.514 1.303,-34.403 16.601,-66.386 54.634,-71.322 2.692,-0.349 5.246,-0.503 7.675,-0.503 27.032,0.09 38.043,21.662 39.077,49.105 1.214,-31.679 -9.085,-58.194 -39.077,-58.297 z m -149.17,59.239 c -4.551,0.1 -9.524,1.19 -14.929,3.42 -24.781,10.226 -33.112,31.918 -31.877,55.173 1.254,-19.641 10.397,-37.117 31.877,-45.98 5.405,-2.23 10.378,-3.32 14.929,-3.42 26.845,-0.595 39.127,33.049 40.225,67.758 0.924,-37.697 -11.01,-77.598 -40.225,-76.951 z m -110.265,92.4 c -6.017,-0.203 -12.526,1.788 -19.453,6.571 -15.895,10.983 -21.102,26.432 -19.722,42.533 1.065,-12.682 6.888,-24.472 19.722,-33.34 6.927,-4.783 13.436,-6.774 19.453,-6.571 27.154,0.914 44.256,46.484 45.406,82.157 1.874,-36.443 -15.862,-90.355 -45.406,-91.35 z m 305.092,70.739 c -117.182,1.781 -264.999,61.319 -290.881,177.223 -2.799,12.525 -3.923,25.526 -3.564,38.781 0.267,-10.074 1.415,-19.974 3.564,-29.588 26.717,-119.643 183.362,-179.224 302.12,-177.215 71.254,1.206 128.873,24.581 136.594,70.46 0.543,3.225 0.828,6.388 0.996,9.525 0.365,-6.073 0.08,-12.301 -0.996,-18.717 -7.721,-45.879 -65.34,-69.254 -136.594,-70.46 -3.711,-0.06 -7.459,-0.07 -11.239,0 z m 108.469,290.773 c -41.422,0.279 -90.605,19.478 -87.373,44.149 0.145,1.11 0.233,2.19 0.332,3.276 7.809,-37.479 134.415,-58.513 141.666,-9.811 3.537,-27.212 -23.317,-37.825 -54.625,-37.614 z m -202.108,45.406 c -2.065,16.396 6.802,33.651 31.662,52.578 42.865,32.636 86.573,9.752 83.602,-38.933 -2.729,42.242 -43.533,60.247 -83.602,29.74 -20.261,-15.425 -29.895,-29.739 -31.662,-43.385 z"/>
   <path style="opacity:0.2" d="m 11177.299,21090.526 c -4.491,64.4 -99.491,166.918 -158.515,166.918 -30.508,0 -46.524,-27.425 -47.767,-62.776 -1.4,39.685 14.659,71.968 47.767,71.968 61.921,0 163.444,-112.83 158.515,-176.11 z m -260.198,34.005 c -1.834,47.864 -30.013,107.542 -56.725,105.91 -23.796,-1.452 -43.351,-42.495 -44.661,-83.198 -1.647,43.476 19.07,90.829 44.661,92.391 28.457,1.738 58.569,-66.092 56.725,-115.103 z m -235.053,59.526 c -2.793,43.638 33.41,97.998 60.146,92.535 17.871,-3.644 27.954,-39.373 26.877,-74.069 -0.794,31.559 -10.586,61.555 -26.877,64.876 -24.885,5.085 -57.936,-41.657 -60.146,-83.342 z m -102.634,82.921 c -3.529,42.058 45.906,94.071 70.945,83.055 10.142,-4.464 14.281,-21.19 13.636,-40.873 -0.789,15.534 -5.113,27.929 -13.636,31.68 -23.239,10.224 -67.514,-33.849 -70.945,-73.862 z m 493.088,110.731 c -6.689,113.56 -252.512,169.412 -242.459,247.073 9.449,-75.037 248.762,-131.936 242.459,-247.073 z m -443.274,126.907 c -3.318,125.58 134.154,279.507 277.146,279.507 75.99,0 163.634,-68.612 180.033,-155.535 0.803,-4.246 0.892,-8.112 0.368,-11.616 -0.103,0.796 -0.212,1.599 -0.368,2.424 -16.399,86.923 -104.043,155.535 -180.033,155.535 -139.52,0 -273.789,-146.546 -277.146,-270.315 z m 315.882,122.195 c -0.403,1.935 -0.597,3.9 -0.333,5.916 0.255,1.945 0.416,3.839 0.53,5.709 0.239,-3.693 0.172,-7.578 -0.197,-11.625 z"/>
  </g>
 </g>
</svg>
