<svg height="256" width="256" xmlns="http://www.w3.org/2000/svg" xmlns:xlink="http://www.w3.org/1999/xlink">
  <filter id="filter945" color-interpolation-filters="sRGB" height="1.048" width="1.048" x="-.024" y="-.024">
    <feGaussianBlur stdDeviation="2.24"/>
  </filter>
  <filter id="filter951" color-interpolation-filters="sRGB" height="1.12" width="1.12" x="-.06" y="-.06">
    <feGaussianBlur stdDeviation="5.6"/>
  </filter>
  <rect filter="url(#filter951)" height="224" opacity=".1" rx="112" transform="matrix(0 -1 -1 0 -21.559999 -32.44)" width="224" x="-270" y="-264"/>
  <rect filter="url(#filter945)" height="224" opacity=".5" rx="112" transform="matrix(0 -1 -1 0 -21.559999 -32.44)" width="224" x="-270" y="-264"/>
  <rect fill="#f1f0e9" height="224" rx="112" transform="matrix(0 -1 -1 0 0 0)" width="224" x="-235.56001" y="-242.43999"/>
  <path d="m136.45445 63.319485c-20.25804.0188-37.466576 12.48887-45.695526 30.32608l-.56298 1.2198-1.30425.0938c-18.70985 1.34178-33.516324 17.546325-33.516324 37.222615 0 20.57706 16.101344 37.46659 36.012214 37.46659h87.121766c14.92847 0 26.99509-12.66714 26.99509-28.03661a27.755111 27.755111 0 0 0 -16.93643-25.66269l-1.2761-.54421-.0938-1.39808c-1.2761-28.083515-23.33569-50.668565-50.71548-50.687335zm0 9.38308c22.2191.0187 40.26274 18.31574 41.32302 41.726495v.0938l.47855 7.27187 6.59629 2.78679a18.240682 18.240682 0 0 1 11.22214 17.03025c.0938 10.45274-7.93808 18.65354-17.55571 18.65354h-87.131156c-14.60006 0-26.619764-12.39503-26.619764-28.07414-.0094-14.99413 11.109554-26.89186 24.808834-27.89586l6.78395-.46915 2.90876-6.220965v-.0376c6.830866-14.82524 20.764716-24.84635 37.166326-24.86512z" fill="#808080" stroke="#808080" stroke-width="2"/>
</svg>
