<?xml version="1.0" encoding="UTF-8" standalone="no"?>
<svg
   xmlns:dc="http://purl.org/dc/elements/1.1/"
   xmlns:cc="http://creativecommons.org/ns#"
   xmlns:rdf="http://www.w3.org/1999/02/22-rdf-syntax-ns#"
   xmlns:svg="http://www.w3.org/2000/svg"
   xmlns="http://www.w3.org/2000/svg"
   xmlns:xlink="http://www.w3.org/1999/xlink"
   xmlns:sodipodi="http://sodipodi.sourceforge.net/DTD/sodipodi-0.dtd"
   xmlns:inkscape="http://www.inkscape.org/namespaces/inkscape"
   width="256"
   height="256"
   version="1.1"
   viewBox="0 0 67.73 67.73"
   id="svg44"
   sodipodi:docname="goox.svg"
   inkscape:version="0.92.3 (2405546, 2018-03-11)">
  <metadata
     id="metadata48">
    <rdf:RDF>
      <cc:Work
         rdf:about="">
        <dc:format>image/svg+xml</dc:format>
        <dc:type
           rdf:resource="http://purl.org/dc/dcmitype/StillImage" />
        <dc:title></dc:title>
      </cc:Work>
    </rdf:RDF>
  </metadata>
  <sodipodi:namedview
     pagecolor="#ffffff"
     bordercolor="#666666"
     borderopacity="1"
     objecttolerance="10"
     gridtolerance="10"
     guidetolerance="10"
     inkscape:pageopacity="0"
     inkscape:pageshadow="2"
     inkscape:window-width="1920"
     inkscape:window-height="1009"
     id="namedview46"
     showgrid="false"
     inkscape:zoom="3.2617188"
     inkscape:cx="67.449103"
     inkscape:cy="29.892217"
     inkscape:window-x="0"
     inkscape:window-y="34"
     inkscape:window-maximized="1"
     inkscape:current-layer="svg44" />
  <defs
     id="defs20">
    <radialGradient
       id="radialGradient971"
       cx="152"
       cy="228.005"
       r="88"
       gradientTransform="matrix(.34811542 5.4590196e-8 -5.4663176e-8 .32490771 -18.793185 208.75322)"
       gradientUnits="userSpaceOnUse">
      <stop
         style="stop-color:#ffffff;stop-opacity:0"
         offset="0"
         id="stop2" />
      <stop
         style="stop-color:#ffffff"
         offset="1"
         id="stop4" />
    </radialGradient>
    <radialGradient
       id="radialGradient893"
       cx="340"
       cy="210.56"
       r="5.5"
       gradientTransform="matrix(7.4264632,-1.2863223e-5,1.2863218e-5,7.4264601,-2490.8795,-1287.0045)"
       gradientUnits="userSpaceOnUse">
      <stop
         style="stop-color:#cccccc"
         offset="0"
         id="stop7" />
      <stop
         style="stop-color:#b3b3b3"
         offset=".628"
         id="stop9" />
      <stop
         style="stop-color:#e6e6e6"
         offset="1"
         id="stop11" />
    </radialGradient>
    <filter
       id="filter935"
       width="1.028"
       height="1.021"
       x="-.01"
       y="-.01"
       style="color-interpolation-filters:sRGB">
      <feGaussianBlur
         stdDeviation="1.041"
         id="feGaussianBlur14" />
    </filter>
    <filter
       id="filter941"
       width="1.142"
       height="1.104"
       x="-.07"
       y="-.05"
       style="color-interpolation-filters:sRGB">
      <feGaussianBlur
         stdDeviation="5.204"
         id="feGaussianBlur17" />
    </filter>
    <linearGradient
       inkscape:collect="always"
       xlink:href="#linearGradient1048"
       id="linearGradient11065"
       x1="104"
       y1="44"
       x2="200"
       y2="268"
       gradientUnits="userSpaceOnUse"
       gradientTransform="matrix(0.26457031,0,0,0.26457031,-6.4153006,-8.4006339)" />
    <linearGradient
       inkscape:collect="always"
       id="linearGradient1048">
      <stop
         style="stop-color:#cdcdcd;stop-opacity:1;"
         offset="0"
         id="stop1044" />
      <stop
         style="stop-color:#d9d9d9;stop-opacity:1"
         offset="1"
         id="stop1046" />
    </linearGradient>
    <filter
       inkscape:collect="always"
       style="color-interpolation-filters:sRGB"
       id="filter11191"
       x="-0.012"
       width="1.024"
       y="-0.012"
       height="1.024">
      <feGaussianBlur
         inkscape:collect="always"
         stdDeviation="1.12"
         id="feGaussianBlur11193" />
    </filter>
    <filter
       inkscape:collect="always"
       style="color-interpolation-filters:sRGB"
       id="filter11210"
       x="-0.048"
       width="1.096"
       y="-0.048"
       height="1.096">
      <feGaussianBlur
         inkscape:collect="always"
         stdDeviation="4.48"
         id="feGaussianBlur11212" />
    </filter>
  </defs>
  <circle
     style="display:inline;opacity:0.3;fill:#000000;fill-opacity:1;stroke:none;stroke-width:1;stroke-linecap:round;stroke-linejoin:round;stroke-miterlimit:4;stroke-dasharray:none;stroke-opacity:1;filter:url(#filter11210);enable-background:new"
     id="path11042-0"
     r="112"
     cy="122.752"
     cx="122.752"
     transform="matrix(0.26457031,0,0,0.26457031,1.3228519,1.454082)" />
  <circle
     style="display:inline;opacity:0.1;fill:#000000;fill-opacity:1;stroke:none;stroke-width:1;stroke-linecap:round;stroke-linejoin:round;stroke-miterlimit:4;stroke-dasharray:none;stroke-opacity:1;filter:url(#filter11191);enable-background:new"
     id="path11042-6"
     r="112"
     cy="120.75198"
     cx="122.752"
     transform="matrix(0.26457031,0,0,0.26457031,1.3228519,1.454082)" />
  <circle
     style="display:inline;opacity:0.1;fill:#000000;fill-opacity:1;stroke:none;stroke-width:0.2645703;stroke-linecap:round;stroke-linejoin:round;stroke-miterlimit:4;stroke-dasharray:none;stroke-opacity:1;enable-background:new"
     id="path11042-7"
     cy="32.872284"
     cx="33.799385"
     r="30.161015" />
  <circle
     style="display:inline;opacity:1;fill:url(#linearGradient11065);fill-opacity:1;stroke:none;stroke-width:0.26457033;stroke-linecap:round;stroke-linejoin:round;stroke-miterlimit:4;stroke-dasharray:none;stroke-opacity:1;enable-background:new"
     id="path11042"
     r="29.631874"
     cy="32.872284"
     cx="33.799385" />
  <path
     inkscape:connector-curvature="0"
     style="display:inline;opacity:0.2;fill:#ffffff;fill-opacity:1;stroke:none;stroke-width:0.26457033;stroke-linecap:round;stroke-linejoin:round;stroke-miterlimit:4;stroke-dasharray:none;stroke-opacity:1;enable-background:new"
     d="M 33.799387,3.2404611 A 29.631875,29.631875 0 0 0 4.1675118,32.872337 H 33.799387 Z m 0,29.6318759 V 62.504212 A 29.631875,29.631875 0 0 0 63.431262,32.872337 Z"
     id="path11042-53" />
  <path
     inkscape:connector-curvature="0"
     style="display:inline;opacity:0.02000002;fill:#000000;fill-opacity:1;stroke:none;stroke-width:0.26457033;stroke-linecap:round;stroke-linejoin:round;stroke-miterlimit:4;stroke-dasharray:none;stroke-opacity:1;enable-background:new"
     d="m 54.752287,11.919437 a 29.631875,29.631875 0 0 0 -41.9058,0 l 20.9529,20.9529 z m -20.9529,20.9529 -20.9529,20.9529 a 29.631875,29.631875 0 0 0 41.9058,0 z"
     id="path11042-53-6" />
  <path
     style="display:inline;opacity:1;fill:#faf8f6;fill-opacity:1;stroke:none;stroke-width:0.26457033;stroke-linecap:round;stroke-linejoin:round;stroke-miterlimit:4;stroke-dasharray:none;stroke-opacity:1;enable-background:new"
     d="m 25.716383,4.3646501 a 29.631875,29.631875 0 0 0 -0.538049,0.182153 29.631875,29.631875 0 0 1 1.432934,-0.388233 29.631875,29.631875 0 0 0 -0.894885,0.20608 z m 2.333415,-0.537501 a 29.631875,29.631875 0 0 1 1.459703,-0.242406 29.631875,29.631875 0 0 0 -1.459703,0.242406 z m -4.269879,1.192792 a 29.631875,29.631875 0 0 0 -1.385568,0.529078 29.631875,29.631875 0 0 1 1.385568,-0.529078 z m 7.201503,-1.62203 a 29.631875,29.631875 0 0 1 1.470699,-0.09556 29.631875,29.631875 0 0 0 -1.470699,0.09556 z M 21.051754,6.158596 A 29.631875,29.631875 0 0 0 19.71991,6.826278 29.631875,29.631875 0 0 1 21.051754,6.158596 Z M 33.937932,3.2631921 a 29.631875,29.631875 0 0 1 1.477831,0.05285 29.631875,29.631875 0 0 0 -1.477831,-0.05285 z M 18.451163,7.563719 a 29.631875,29.631875 0 0 0 -1.26009,0.797712 29.631875,29.631875 0 0 1 1.26009,-0.797712 z M 36.88864,3.4242591 a 29.631875,29.631875 0 0 1 1.469153,0.200155 29.631875,29.631875 0 0 0 -1.469153,-0.200155 z M 16.000995,9.2227692 A 29.631875,29.631875 0 0 0 14.826697,10.143005 29.631875,29.631875 0 0 1 16.000995,9.2227692 Z M 39.818362,3.8803661 a 29.631875,29.631875 0 0 1 1.431579,0.343431 29.631875,29.631875 0 0 0 -1.431579,-0.343431 z M 13.301851,11.497943 a 29.631875,29.631875 0 0 0 -0.336047,0.313125 29.631875,29.631875 0 0 1 0.336047,-0.313125 z m -0.443389,0.429622 A 29.631875,29.631875 0 0 0 8.1409028,18.056091 L 33.802649,32.871908 Z m 20.944187,20.944343 20.944188,20.944341 a 29.631875,29.631875 0 0 0 4.717558,-6.128525 z M 42.681626,4.6255101 a 29.631875,29.631875 0 0 1 1.393106,0.485341 29.631875,29.631875 0 0 0 -1.393106,-0.485341 z m 2.773996,1.026918 A 29.631875,29.631875 0 0 1 46.800195,6.278095 29.631875,29.631875 0 0 0 45.455622,5.6524281 Z m 2.659249,1.2994679 a 29.631875,29.631875 0 0 1 0.486056,0.2886421 l 0.01754,-0.03038 a 29.631875,29.631875 0 0 0 -0.503593,-0.258264 z m -29.1105,51.55138 -0.01754,0.03038 a 29.631875,29.631875 0 0 0 0.503595,0.258263 29.631875,29.631875 0 0 1 -0.486056,-0.288641 z m 1.800732,0.962441 a 29.631875,29.631875 0 0 0 1.344576,0.625669 29.631875,29.631875 0 0 1 -1.344576,-0.625669 z m 2.725466,1.167244 a 29.631875,29.631875 0 0 0 1.393103,0.485341 29.631875,29.631875 0 0 1 -1.393103,-0.485341 z m 31.108926,-6.700216 a 29.631875,29.631875 0 0 1 -0.336049,0.313124 29.631875,29.631875 0 0 0 0.336049,-0.313124 z m -28.284138,7.587273 a 29.631875,29.631875 0 0 0 1.43158,0.343431 29.631875,29.631875 0 0 1 -1.43158,-0.343431 z M 52.7786,55.60081 A 29.631875,29.631875 0 0 1 51.604305,56.521044 29.631875,29.631875 0 0 0 52.7786,55.60081 Z M 29.247505,62.1194 a 29.631875,29.631875 0 0 0 1.469154,0.200155 29.631875,29.631875 0 0 1 -1.469154,-0.200155 z m 21.16672,-4.737018 a 29.631875,29.631875 0 0 1 -1.26009,0.797714 29.631875,29.631875 0 0 0 1.26009,-0.797714 z m -18.22469,5.045385 a 29.631875,29.631875 0 0 0 1.477831,0.05286 29.631875,29.631875 0 0 1 -1.477831,-0.05286 z m 15.695853,-3.510232 a 29.631875,29.631875 0 0 1 -1.331844,0.667683 29.631875,29.631875 0 0 0 1.331844,-0.667683 z m -12.732211,3.523929 a 29.631875,29.631875 0 0 0 1.470699,-0.09556 29.631875,29.631875 0 0 1 -1.470699,0.09556 z m 10.05777,-2.246671 a 29.631875,29.631875 0 0 1 -1.385567,0.529077 29.631875,29.631875 0 0 0 1.385567,-0.529077 z m -7.11515,1.964276 a 29.631875,29.631875 0 0 0 1.459703,-0.242404 29.631875,29.631875 0 0 1 -1.459703,0.242404 z m 4.331167,-0.962057 a 29.631875,29.631875 0 0 1 -1.432934,0.388231 29.631875,29.631875 0 0 0 1.432934,-0.388231 z"
     id="path11042-53-6-2"
     inkscape:connector-curvature="0" />
  <circle
     style="display:inline;opacity:1;fill:#aea795;fill-opacity:1;stroke:none;stroke-width:0.73028344;stroke-linecap:round;stroke-linejoin:round;stroke-miterlimit:4;stroke-dasharray:none;stroke-dashoffset:0;stroke-opacity:1;enable-background:new"
     id="path7147"
     cx="33.799385"
     cy="-32.872288"
     transform="scale(1,-1)"
     r="10.582812" />
  <circle
     style="display:inline;opacity:1;fill:#faf8f6;fill-opacity:1;stroke:none;stroke-width:0.68032366;stroke-linecap:round;stroke-linejoin:round;stroke-miterlimit:4;stroke-dasharray:none;stroke-dashoffset:0;stroke-opacity:1;enable-background:new"
     id="path7164"
     cx="33.799385"
     cy="32.872288"
     r="9.5245314" />
  <circle
     style="display:inline;opacity:1;fill:#4d4d4d;fill-opacity:1;stroke:none;stroke-width:0.92599607;stroke-linecap:round;stroke-linejoin:round;stroke-miterlimit:4;stroke-dasharray:none;stroke-dashoffset:0;stroke-opacity:1;enable-background:new"
     id="path7166"
     cx="33.799385"
     cy="32.872288"
     r="3.7039843" />
  <path
     style="display:inline;opacity:0.3;fill:#ffffff;fill-opacity:1;stroke:none;stroke-width:0.26457033;stroke-linecap:round;stroke-linejoin:round;stroke-miterlimit:4;stroke-dasharray:none;stroke-opacity:1;enable-background:new"
     d="M 33.799387,3.2404601 A 29.631875,29.631875 0 0 0 4.1675118,32.872334 29.631875,29.631875 0 0 0 4.1783648,33.18186 29.631875,29.631875 0 0 1 33.799387,3.7696001 29.631875,29.631875 0 0 1 63.420409,33.091949 29.631875,29.631875 0 0 0 63.431257,32.872334 29.631875,29.631875 0 0 0 33.799382,3.2404601 Z"
     id="path11042-1"
     inkscape:connector-curvature="0" />
  <path
     inkscape:connector-curvature="0"
     style="display:inline;opacity:0.2;fill:#000000;fill-opacity:1;stroke:none;stroke-width:0.26457033;stroke-linecap:round;stroke-linejoin:round;stroke-miterlimit:4;stroke-dasharray:none;stroke-opacity:1;enable-background:new"
     d="M 33.799387,62.504209 A 29.631875,29.631875 0 0 1 4.1675118,32.872334 29.631875,29.631875 0 0 1 4.1783648,32.562808 29.631875,29.631875 0 0 0 33.799387,61.975068 29.631875,29.631875 0 0 0 63.420409,32.65272 a 29.631875,29.631875 0 0 1 0.01085,0.219614 29.631875,29.631875 0 0 1 -29.631875,29.631875 z"
     id="path11042-1-7" />
  <g
     style="enable-background:new"
     transform="matrix(0.28681636,0,0,0.28681636,-0.71418906,30.311862)"
     id="g107">
    <path
       inkscape:connector-curvature="0"
       d="m 218.88752,39.498766 c 0.0781,-0.245816 0.18616,-0.477354 0.26264,-0.723976 0.1013,-0.326635 0.15793,-0.672062 0.25593,-1.000097 h -66.24888 a 44.277024,44.277018 0 0 1 -1.60622,1.724073 z"
       style="opacity:0.1"
       id="path91-3" />
    <path
       inkscape:connector-curvature="0"
       d="m 21.528255,37.774693 c 0.0979,0.328035 0.15476,0.673462 0.25591,1.000097 0.0764,0.246622 0.18448,0.47816 0.26266,0.723976 h 67.37018 a 44.277024,44.277018 0 0 1 -0.71387,-0.663363 44.277024,44.277018 0 0 1 -0.93275,-1.06071 z"
       style="opacity:0.1"
       id="path93-6" />
    <path
       inkscape:connector-curvature="0"
       d="m 213.86009,52.082482 c 0.27174,-0.576954 0.56364,-1.141267 0.82499,-1.724073 h -81.49277 a 44.277024,44.277018 0 0 1 -0.88224,0.292957 44.277024,44.277018 0 0 1 -4.31692,0.96979 44.277024,44.277018 0 0 1 -3.81182,0.461326 z"
       style="opacity:0.1"
       id="path95" />
    <path
       inkscape:connector-curvature="0"
       d="m 26.249245,50.358409 c 0.26135,0.582806 0.55326,1.147119 0.825,1.724073 h 89.776405 a 44.277024,44.277018 0 0 1 -0.8048,-0.04041 44.277024,44.277018 0 0 1 -4.37416,-0.659997 44.277024,44.277018 0 0 1 -4.01386,-1.023668 z"
       style="opacity:0.1"
       id="path97" />
    <path
       inkscape:connector-curvature="0"
       d="m 62.303255,93.460235 c 0.11157,0.07586 0.21139,0.167055 0.32327,0.242439 0.78769,0.531289 1.63825,0.971738 2.44131,1.481634 H 175.86649 c 0.80307,-0.509896 1.65362,-0.950345 2.44131,-1.481634 0.11188,-0.07551 0.2117,-0.16655 0.32327,-0.242439 z"
       style="opacity:0.1"
       id="path99" />
    <path
       inkscape:connector-curvature="0"
       d="m 42.907435,76.219507 c 0.51306,0.583186 1.03986,1.152727 1.56581,1.724068 H 196.46108 c 0.52594,-0.571341 1.05275,-1.140882 1.56582,-1.724068 z"
       style="opacity:0.1"
       id="path101" />
    <path
       inkscape:connector-curvature="0"
       d="m 33.546255,63.837832 c 0.36267,0.564785 0.67054,1.166956 1.04388,1.724074 H 206.34421 c 0.3733,-0.557118 0.68117,-1.159289 1.04386,-1.724074 z"
       style="opacity:0.1"
       id="path103" />
    <path
       inkscape:connector-curvature="0"
       d="m 199.90586,16.738978 c 0,0 -29.04727,0.06731 -31.48454,0.154888 -0.41152,-0.03755 -0.54699,0.0077 -0.55561,0.188571 -0.007,0.130702 0.79764,7.440661 1.78469,16.244005 0.98704,8.803376 1.77688,16.16602 1.75774,16.361858 -0.0288,0.293161 -0.38377,0.120104 -2.01366,-0.989995 -2.35167,-1.6017 -3.88318,-2.293022 -5.76487,-2.599578 -4.84825,-0.789884 -8.48895,2.244064 -8.38802,6.990577 0.11848,5.571292 7.31921,10.763297 13.29759,9.586791 3.50894,-0.690543 5.76355,-3.987942 5.74803,-8.408225 -0.002,-0.57079 -0.36793,-4.201673 -0.81489,-8.071491 -1.70978,-14.803999 -1.93286,-17.102899 -1.65,-17.136347 0.27612,-0.03269 27.22856,1.470975 27.94212,1.559074 0.40426,0.04987 0.41567,0.136141 1.5759,9.883116 0.64366,5.407143 1.12987,9.906056 1.0809,9.997604 -0.049,0.09164 -1.24212,-0.458851 -2.65344,-1.222339 -3.95363,-2.138783 -6.16561,-2.554895 -9.0817,-1.707239 -2.13059,0.61965 -3.17536,1.414357 -4.11488,3.121517 -2.00161,3.637036 -0.16913,8.476176 4.22264,11.149232 6.54234,3.857717 15.06722,2.634679 14.72534,-6.431602 -0.0968,-1.062667 -0.54189,-4.757996 -0.98663,-8.212919 -0.44474,-3.454939 -1.43522,-11.472336 -2.20224,-17.816547 -0.76698,-6.344204 -2.35292,-12.601645 -2.42447,-12.640951 z m -28.89843,5.923135 c 0.34837,-0.05325 28.06236,1.048566 28.20477,1.121322 0.081,0.04144 0.22965,0.775906 0.32999,1.629788 0.10035,0.853899 0.21411,1.818536 0.25256,2.14499 0.0385,0.326471 -0.0267,0.615309 -0.14482,0.639791 -0.23431,0.04833 -28.15823,-1.567904 -28.27547,-1.636522 -0.1681,-0.09842 -0.52358,-3.875404 -0.36704,-3.899369 z M 61.979995,42.08151 c -5.51384,0 -10.50927,1.11058 -14.15962,2.929578 -2.70979,1.350297 -4.70547,3.112003 -5.55609,5.131811 a 29.6618,26.366045 0 0 1 1.68365,-1.232443 c 0.95616,-1.186973 2.38616,-2.275423 4.22601,-3.19223 3.50662,-1.747352 8.39872,-2.842026 13.80605,-2.842026 v 42.825705 h 1.72407 v -42.78193 c 4.71782,0.205695 8.95256,1.238849 12.08199,2.798251 2.0468,1.019942 3.58511,2.251393 4.52569,3.596309 a 29.6618,26.366045 0 0 1 1.48836,1.138159 c -0.77095,-2.147915 -2.8146,-4.023482 -5.66048,-5.441606 -3.65036,-1.818998 -8.64579,-2.929578 -14.15963,-2.929578 z m -30.05679,8.70455 c -1.61388,-0.01869 -3.39078,0.376019 -5.01733,0.946218 0.87329,1.872457 1.70029,3.770986 2.68039,5.579667 1.05481,1.946553 2.26098,3.792631 3.43468,5.660484 1.4443,-0.664195 2.73007,-1.53379 3.61652,-2.771315 0.61181,-0.85357 1.27263,-2.569776 1.34694,-3.498653 0.15177,-1.89845 -0.49733,-3.50459 -1.86551,-4.619979 -0.29904,-0.243768 -0.8603,-0.505781 -1.76448,-0.821628 -1.11343,-0.388953 -1.50129,-0.464451 -2.43121,-0.474794 z m 64.53826,0.434385 c -2.9207,-0.03368 -6.64003,1.143215 -8.34425,2.639987 -1.7727,1.556924 -2.54305,3.490531 -2.74437,6.889559 0.0146,0.06988 0.038,0.118311 0.0539,0.185204 v 37.545729 h 1.72407 V 63.70314 c 0.37967,0.216853 0.6903,0.296325 0.6903,0.296325 0.15149,0.02729 0.78237,0.145243 1.40081,0.262651 5.10905,0.969845 9.62024,-0.401442 11.930455,-3.626614 0.6118,-0.853572 1.27262,-2.569777 1.34693,-3.498656 0.15186,-1.898447 -0.49397,-3.50459 -1.86213,-4.619979 h -0.003 c -0.29896,-0.243767 -0.856845,-0.502411 -1.761035,-0.818261 -1.11343,-0.389021 -1.50128,-0.467817 -2.43121,-0.478161 z m 13.792575,2.757843 a 4.3101833,4.3101833 0 0 0 -4.31018,4.310184 4.3101833,4.3101833 0 0 0 4.31018,4.310183 4.3101833,4.3101833 0 0 0 4.31019,-4.310183 4.3101833,4.3101833 0 0 0 -4.31019,-4.310184 z m 33.73729,4.566102 c -2.92069,-0.03777 -6.64002,1.284116 -8.34424,2.96325 -1.7727,1.746618 -2.54305,3.914867 -2.74437,7.728024 0.0146,0.07839 0.038,0.13373 0.0539,0.208774 V 110.4821 c 0.99037,-0.11861 1.95829,-0.3017 2.93968,-0.44787 0.35081,-0.70273 0.74214,-1.48837 1.00009,-2.03049 1.18485,-2.49022 2.6559,-4.50745 5.66385,-7.77181 3.03448,-3.293171 5.14802,-6.562101 6.31038,-9.765256 0.64792,-1.785484 0.85606,-3.626709 0.55561,-4.909558 l -0.19194,-0.814899 -0.28285,0.360296 c -0.15573,0.19701 -0.88075,1.73078 -1.61295,3.411114 -1.59172,3.65281 -2.17411,4.739287 -3.19897,5.970275 -1.55598,1.868949 -5.20899,4.773201 -7.86272,6.249768 -0.6663,0.23789 -1.18161,0.58161 -1.59611,0.99 V 72.549111 c 0.3789,0.242267 0.6903,0.330005 0.6903,0.330005 0.15149,0.03069 0.78236,0.164644 1.40081,0.296335 5.10905,1.087992 9.62024,-0.449622 11.93045,-4.067745 0.61181,-0.957567 1.27263,-2.884255 1.34694,-3.926309 0.15186,-2.129747 -0.49397,-3.931036 -1.86214,-5.18232 h -0.003 c -0.299,-0.273467 -0.85688,-0.564949 -1.76107,-0.919282 -1.11344,-0.436415 -1.50129,-0.523854 -2.43122,-0.535405 z"
       style="fill:#ababab"
       id="path105" />
  </g>
</svg>
