<svg xmlns="http://www.w3.org/2000/svg" width="256" height="256" version="1.1" viewBox="0 0 67.73 67.73">
 <defs>
  <filter style="color-interpolation-filters:sRGB" id="filter876" width="1.024" height="1.024" x="-.01" y="-.01">
   <feGaussianBlur id="feGaussianBlur878" stdDeviation=".159"/>
  </filter>
  <filter style="color-interpolation-filters:sRGB" id="filter920" width="1.096" height="1.096" x="-.05" y="-.05">
   <feGaussianBlur id="feGaussianBlur922" stdDeviation=".635"/>
  </filter>
 </defs>
 <g id="layer1" transform="translate(0,-229.26665)">
  <g transform="matrix(1.900006,0,0,1.900006,-4.1613556,-260.29248)" style="opacity:0.1;fill:#010101;filter:url(#filter920)">
   <path style="fill:#010101" d="m 35.782657,276.05793 c 0.06284,-0.0595 0.09921,-0.14221 0.09921,-0.23482 0,-0.1819 -0.148828,-0.33073 -0.330728,-0.33073 H 20.006907 v 8.26821 h 8.268212 z"/>
   <polygon style="fill:#010101" id="polygon882" points="73 73 48 48 48 73" transform="matrix(0.33072851,0,0,0.33072851,4.1319386,259.61742)"/>
   <path style="fill:#010101" d="m 19.441361,291.26814 c 0.05954,0.0629 0.142213,0.0992 0.234818,0.0992 0.1819,0 0.330728,-0.14883 0.330728,-0.33073 v -15.54428 h -8.268212 v 8.26821 z"/>
   <polygon style="fill:#010101" id="polygon886" points="48 48 23 48 23 73" transform="matrix(0.33072851,0,0,0.33072851,4.1319386,259.61742)"/>
   <path style="fill:#010101" d="m 4.231157,274.92683 c -0.062839,0.0595 -0.099219,0.14222 -0.099219,0.23483 0,0.1819 0.1488278,0.33072 0.3307285,0.33072 H 20.006907 v -8.26821 h -8.268212 z"/>
   <polygon style="fill:#010101" id="polygon890" points="23 23 48 48 48 23" transform="matrix(0.33072851,0,0,0.33072851,4.1319386,259.61742)"/>
   <path style="fill:#010101" d="m 20.572452,259.71664 c -0.05954,-0.0629 -0.142212,-0.0992 -0.234817,-0.0992 -0.181901,0 -0.330728,0.14882 -0.330728,0.33072 v 15.54425 h 8.268212 v -8.26821 z"/>
   <polygon style="fill:#010101" id="polygon894" points="48 48 73 48 73 23" transform="matrix(0.33072851,0,0,0.33072851,4.1319386,259.61742)"/>
   <polygon style="fill:#010101" id="polygon896" points="45 45 48 38 51 45 58 48 51 51 48 58 45 51 38 48" transform="matrix(0.33072851,0,0,0.33072851,4.1446105,259.59208)"/>
  </g>
  <g style="opacity:0.1;fill:#010101;filter:url(#filter876)" transform="matrix(1.900006,0,0,1.900006,-4.1613556,-260.29248)">
   <path d="m 35.782657,276.05793 c 0.06284,-0.0595 0.09921,-0.14221 0.09921,-0.23482 0,-0.1819 -0.148828,-0.33073 -0.330728,-0.33073 H 20.006907 v 8.26821 h 8.268212 z" style="fill:#010101"/>
   <polygon id="polygon854" points="73 73 48 48 48 73" transform="matrix(0.33072851,0,0,0.33072851,4.1319386,259.61742)" style="fill:#010101"/>
   <path d="m 19.441361,291.26814 c 0.05954,0.0629 0.142213,0.0992 0.234818,0.0992 0.1819,0 0.330728,-0.14883 0.330728,-0.33073 v -15.54428 h -8.268212 v 8.26821 z" style="fill:#010101"/>
   <polygon id="polygon858" points="48 48 23 48 23 73" transform="matrix(0.33072851,0,0,0.33072851,4.1319386,259.61742)" style="fill:#010101"/>
   <path d="m 4.231157,274.92683 c -0.062839,0.0595 -0.099219,0.14222 -0.099219,0.23483 0,0.1819 0.1488278,0.33072 0.3307285,0.33072 H 20.006907 v -8.26821 h -8.268212 z" style="fill:#010101"/>
   <polygon id="polygon862" points="23 23 48 48 48 23" transform="matrix(0.33072851,0,0,0.33072851,4.1319386,259.61742)" style="fill:#010101"/>
   <path d="m 20.572452,259.71664 c -0.05954,-0.0629 -0.142212,-0.0992 -0.234817,-0.0992 -0.181901,0 -0.330728,0.14882 -0.330728,0.33072 v 15.54425 h 8.268212 v -8.26821 z" style="fill:#010101"/>
   <polygon id="polygon866" points="48 48 73 48 73 23" transform="matrix(0.33072851,0,0,0.33072851,4.1319386,259.61742)" style="fill:#010101"/>
   <polygon id="polygon868" points="45 45 48 38 51 45 58 48 51 51 48 58 45 51 38 48" transform="matrix(0.33072851,0,0,0.33072851,4.1446105,259.59208)" style="fill:#010101"/>
  </g>
  <g transform="matrix(1.900006,0,0,1.900006,-4.1613556,-260.29248)" style="opacity:0.1;fill:#010101">
   <path style="fill:#010101" d="m 35.782657,276.05793 c 0.06284,-0.0595 0.09921,-0.14221 0.09921,-0.23482 0,-0.1819 -0.148828,-0.33073 -0.330728,-0.33073 H 20.006907 v 8.26821 h 8.268212 z"/>
   <polygon style="fill:#010101" id="polygon1543" points="73 73 48 48 48 73" transform="matrix(0.33072851,0,0,0.33072851,4.1319386,259.61742)"/>
   <path style="fill:#010101" d="m 19.441361,291.26814 c 0.05954,0.0629 0.142213,0.0992 0.234818,0.0992 0.1819,0 0.330728,-0.14883 0.330728,-0.33073 v -15.54428 h -8.268212 v 8.26821 z"/>
   <polygon style="fill:#010101" id="polygon1547" points="48 48 23 48 23 73" transform="matrix(0.33072851,0,0,0.33072851,4.1319386,259.61742)"/>
   <path style="fill:#010101" d="m 4.231157,274.92683 c -0.062839,0.0595 -0.099219,0.14222 -0.099219,0.23483 0,0.1819 0.1488278,0.33072 0.3307285,0.33072 H 20.006907 v -8.26821 h -8.268212 z"/>
   <polygon style="fill:#010101" id="polygon1551" points="23 23 48 48 48 23" transform="matrix(0.33072851,0,0,0.33072851,4.1319386,259.61742)"/>
   <path style="fill:#010101" d="m 20.572452,259.71664 c -0.05954,-0.0629 -0.142212,-0.0992 -0.234817,-0.0992 -0.181901,0 -0.330728,0.14882 -0.330728,0.33072 v 15.54425 h 8.268212 v -8.26821 z"/>
   <polygon style="fill:#010101" id="polygon1555" points="48 48 73 48 73 23" transform="matrix(0.33072851,0,0,0.33072851,4.1319386,259.61742)"/>
   <polygon style="fill:#010101" id="polygon1557" points="45 45 48 38 51 45 58 48 51 51 48 58 45 51 38 48" transform="matrix(0.33072851,0,0,0.33072851,4.1446105,259.59208)"/>
  </g>
  <g transform="matrix(1.8666708,0,0,1.8666708,-4.1399841,-251.10885)">
   <path d="m 36.128478,276.05793 c 0.06284,-0.0595 0.09921,-0.14221 0.09921,-0.23482 0,-0.1819 -0.148828,-0.33073 -0.330728,-0.33073 H 20.352728 v 8.26821 h 8.268212 z" style="fill:#4285f4"/>
   <polygon id="polygon14" points="48 48 48 73 73 73" transform="matrix(0.33072851,0,0,0.33072851,4.4777598,259.61742)" style="fill:#3367d6"/>
   <path d="m 19.787182,291.26814 c 0.05954,0.0629 0.142213,0.0992 0.234818,0.0992 0.1819,0 0.330728,-0.14883 0.330728,-0.33073 v -15.54428 h -8.268212 v 8.26821 z" style="fill:#8bc34a"/>
   <polygon id="polygon30" points="23 48 23 73 48 48" transform="matrix(0.33072851,0,0,0.33072851,4.4777598,259.61742)" style="fill:#0f9d58"/>
   <path d="m 4.5769782,274.92683 c -0.062839,0.0595 -0.099219,0.14222 -0.099219,0.23483 0,0.1819 0.1488278,0.33072 0.3307285,0.33072 H 20.352728 v -8.26821 h -8.268212 z" style="fill:#ffbc00"/>
   <polygon id="polygon44" points="48 48 48 23 23 23" transform="matrix(0.33072851,0,0,0.33072851,4.4777598,259.61742)" style="fill:#ff9800"/>
   <path d="m 20.918273,259.71664 c -0.05954,-0.0629 -0.142212,-0.0992 -0.234817,-0.0992 -0.181901,0 -0.330728,0.14882 -0.330728,0.33072 v 15.54425 h 8.268212 v -8.26821 z" style="fill:#db4437"/>
   <polygon id="polygon58" points="73 48 73 23 48 48" transform="matrix(0.33072851,0,0,0.33072851,4.4777598,259.61742)" style="fill:#ad1457"/>
   <polygon id="polygon66" points="58 48 51 51 48 58 45 51 38 48 45 45 48 38 51 45" transform="matrix(0.33072851,0,0,0.33072851,4.4904317,259.59208)" style="fill:#f1f1f1"/>
   <path style="opacity:0.3;fill:#ffffff" id="polygon987" d="m 20.365418,272.15979 -0.992185,2.31519 -2.315191,0.99218 0.33082,0.14175 1.984371,-0.85045 0.992185,-2.31519 0.992186,2.31519 1.98437,0.85045 0.33082,-0.14175 -2.31519,-0.99218 z"/>
   <path style="opacity:0.2" id="polygon992" d="m 17.388862,275.32542 -0.33082,0.14174 2.315191,0.99219 0.992185,2.31492 0.992186,-2.31492 2.31519,-0.99219 -0.33082,-0.14174 -1.98437,0.85045 -0.992186,2.31491 -0.992185,-2.31491 z"/>
  </g>
  <g style="opacity:0.2;fill:#010101" transform="matrix(1.8666708,0,0,1.8666708,-64.251657,-259.38288)">
   <path style="fill:#f4f4f4" d="m 52.885974,264.05001 c -0.1819,0 -0.330544,0.14893 -0.330544,0.33083 v 0.28348 c 0,-0.1819 0.148644,-0.33082 0.330544,-0.33082 0.09261,0 0.175495,0.0362 0.235035,0.0991 l 7.702448,7.50756 v -0.28348 l -7.702448,-7.50756 c -0.05954,-0.0629 -0.142429,-0.0991 -0.235035,-0.0991 z m -8.598848,7.60667 -7.507553,7.70272 c -0.06284,0.0595 -0.09911,0.14215 -0.09911,0.23476 0,0.0506 0.0124,0.0982 0.03294,0.14119 0.01658,-0.0344 0.03823,-0.066 0.06616,-0.0925 l 7.507553,-7.70272 h 8.268304 v -0.28348 z m 16.536331,8.2683 v 0.28348 h 7.276118 c 0.131269,0 0.244255,0.0781 0.2976,0.18963 0.0208,-0.043 0.03322,-0.0908 0.03322,-0.14229 0,-0.1819 -0.14892,-0.33082 -0.33082,-0.33082 h -6.260828 z"/>
   <path style="fill:#010101" d="m 36.713317,279.45169 c -0.02079,0.0431 -0.03294,0.0908 -0.03294,0.14229 0,0.1819 0.148643,0.33082 0.330543,0.33082 h 7.276118 v -0.28348 H 37.01092 c -0.131269,0 -0.244335,-0.0781 -0.2976,-0.18963 z m 31.684043,0.66302 c -0.01663,0.0344 -0.03856,0.0658 -0.06644,0.0922 l -7.507554,7.70273 H 52.55534 v 0.28348 h 8.268026 l 7.507554,-7.70273 c 0.06284,-0.0595 0.09939,-0.14215 0.09939,-0.23476 0,-0.0506 -0.01238,-0.0979 -0.03294,-0.14091 z m -24.110325,7.79464 v 0.28348 h 2.77e-4 l 7.702447,7.50783 c 0.05954,0.0629 0.142153,0.0991 0.234758,0.0991 0.1819,0 0.330822,-0.14892 0.330822,-0.33082 v -0.28348 c 0,0.1819 -0.148922,0.33082 -0.330822,0.33082 -0.0926,0 -0.175217,-0.0362 -0.234758,-0.0991 l -7.702447,-7.50783 z"/>
  </g>
 </g>
</svg>
