<svg height="256" viewBox="0 0 67.73 67.73" width="256" xmlns="http://www.w3.org/2000/svg" xmlns:xlink="http://www.w3.org/1999/xlink">
  <filter id="filter826" color-interpolation-filters="sRGB" height="1.023" width="1.025" x="-.01" y="-.01">
    <feGaussianBlur stdDeviation=".286"/>
  </filter>
  <filter id="filter840" color-interpolation-filters="sRGB" height="1.091" width="1.101" x="-.05" y="-.05">
    <feGaussianBlur stdDeviation="1.145"/>
  </filter>
  <g transform="translate(0 -229.26665)">
    <path d="m11.496527 232.33422c-.81429.0171-1.5176517.29985-2.049264.81423-.7539352.72028-1.1655982 1.88641-1.1655982 3.39528v51.87858c0 1.50964.4453442 2.67566 1.1655982 3.39528 1.097282 1.06311 2.811741 1.1657 4.766013.0337l14.958683-8.50003c.0198.005.03909.012.05891.0173l26.813494-15.22481c.007-.0241.01252-.0489.01946-.0731l3.891289-2.21075c3.292606-1.85148 3.292606-4.86851 0-6.75479l-3.705087-2.10502c-2.332402-9.61215-11.006879-16.76757-21.327395-16.76757-2.251282 0-4.424278.34097-6.470226.97309l-14.239128-8.09081c-.977136-.54884-1.902458-.79766-2.716749-.78057z" fill="#030303" filter="url(#filter840)" opacity=".1"/>
    <path d="m11.496527 232.33422c-.81429.0171-1.5176517.29985-2.049264.81423-.7539352.72028-1.1655982 1.88641-1.1655982 3.39528v51.87858c0 1.50964.4453442 2.67566 1.1655982 3.39528 1.097282 1.06311 2.811741 1.1657 4.766013.0337l14.958683-8.50003c.0198.005.03909.012.05891.0173l26.813494-15.22481c.007-.0241.01252-.0489.01946-.0731l3.891289-2.21075c3.292606-1.85148 3.292606-4.86851 0-6.75479l-3.705087-2.10502c-2.332402-9.61215-11.006879-16.76757-21.327395-16.76757-2.251282 0-4.424278.34097-6.470226.97309l-14.239128-8.09081c-.977136-.54884-1.902458-.79766-2.716749-.78057z" fill="#030303" filter="url(#filter826)" opacity=".1"/>
    <path d="m11.496527 232.33422c-.81429.0171-1.5176517.29985-2.049264.81423-.7539352.72028-1.1655982 1.88641-1.1655982 3.39528v51.87858c0 1.50964.4453442 2.67566 1.1655982 3.39528 1.097282 1.06311 2.811741 1.1657 4.766013.0337l14.958683-8.50003c.0198.005.03909.012.05891.0173l26.813494-15.22481c.007-.0241.01252-.0489.01946-.0731l3.891289-2.21075c3.292606-1.85148 3.292606-4.86851 0-6.75479l-3.705087-2.10502c-2.332402-9.61215-11.006879-16.76757-21.327395-16.76757-2.251282 0-4.424278.34097-6.470226.97309l-14.239128-8.09081c-.977136-.54884-1.902458-.79766-2.716749-.78057z" fill="#030303" opacity=".1"/>
    <path d="m59.577747 259.16481-44.939213-25.53474c-1.919987-1.07841-3.637729-.97741-4.6823014.0333-.7407089.70764-1.1454492 1.85322-1.1454492 3.33562v50.96834c0 1.48315.4378307 2.62871 1.1454492 3.33571 1.0780324 1.04446 2.7623144 1.14547 4.6823014.0333l44.939213-25.53524c3.234842-1.819 3.234842-4.78318 0-6.63637z" fill="#f1471d"/>
    <path d="m45.238281 13.59375c-3.023642.063449-5.63538 1.113434-7.609375 3.023438-2.799529 2.674544-4.328125 7.00465-4.328125 12.607421v2c0-5.602771 1.528596-9.932877 4.328125-12.607421 3.94799-3.820007 10.440622-4.200881 17.697266-.125l169.849608 96.507812c5.66336 3.24445 8.69664 7.39098 9.11328 11.58984.48282-4.86063-2.55046-9.83011-9.11328-13.58984l-169.849608-96.507812c-3.628322-2.037941-7.064248-2.961887-10.087891-2.898438z" fill="#fff" opacity=".3" transform="matrix(.26458333 0 0 .26458333 0 229.26665)"/>
    <path d="m55.73555 268.04442c.53982-1.85258.809482-3.8406.809482-5.86121 0-11.89195-9.669335-21.56018-21.560668-21.56018-11.891705 0-21.560052 9.66823-21.560052 21.56018 0 9.97135 6.771447 18.35941 15.968131 20.81908z" fill="#fcd117"/>
    <path d="m48.882363 262.50041c0 7.44177-6.032345 13.47498-13.474986 13.47498-7.442393 0-13.475108-6.03321-13.475108-13.47498 0-7.4424 6.032715-13.47512 13.475108-13.47512 7.442518-.00011 13.474986 6.03261 13.474986 13.47512z" fill="#f48b15"/>
    <path d="m35.407254 255.42608v8.28595c-.471785-.26843-1.010618-.43732-1.583403-.43732-1.75145 0-3.132854 1.41571-3.132854 3.1326 0 1.75267 1.414619 3.1336 3.132854 3.1336 1.752313 0 3.267931-1.41561 3.267931-3.1336v-7.61266h3.031607v-3.36869h-4.716135z" fill="#fff"/>
    <g transform="matrix(.26458333 0 0 .26458333 0 229.26665)">
      <path d="m234.28906 124.58984c-.41664 4.19447-3.44992 8.3076-9.11328 11.49219l-169.849608 96.51172c-7.256644 4.20348-13.622813 3.82257-17.697266-.125-2.674463-2.67213-4.328125-7.00182-4.328125-12.60742v2c0 5.6056 1.653662 9.93529 4.328125 12.60742 4.074453 3.94757 10.440622 4.32848 17.697266.125l169.849608-96.51172c6.56282-3.69037 9.5961-8.62645 9.11328-13.49219z" opacity=".2"/>
      <path d="m132.22461 42.921875c-44.945027 0-81.486329 36.540375-81.486329 81.486325 0 .24405.013483.48497.015625.72852.682495-44.360622 36.950957-80.214845 81.470704-80.214845 44.55886 0 80.85628 35.919485 81.47461 80.335935.00281-.28348.01367-.56577.01367-.84961 0-44.94595-36.54466-81.486325-81.48828-81.486325z" fill="#fff" opacity=".3"/>
      <path d="m133.82227 74.677734c-28.12873 0-50.927739 22.800932-50.927739 50.929686 0 .33535.018938.6662.025391 1 .53476-27.665396 23.108988-49.929686 50.902348-49.929686 27.79383-.00041 50.36956 22.263881 50.90429 49.929686.00645-.33379.02539-.66466.02539-1 0-28.12917-22.80048-50.930101-50.92968-50.929686z" fill="#fff" opacity=".3"/>
      <path d="m82.919922 124.60742c-.006453.33383-.025391.66463-.025391 1 0 28.12638 22.799009 50.92969 50.927739 50.92969 28.12966 0 50.92968-22.80331 50.92968-50.92969 0-.33537-.01894-.66617-.02539-1-.53472 27.66315-23.11 49.92969-50.90429 49.92969-27.79336 0-50.367588-22.26654-50.902348-49.92969z" opacity=".2"/>
      <path d="m140.18945 109.60156v2h11.45703v-2zm0 28.77344c0 6.49319-5.72864 11.8418-12.35156 11.8418-6.15943 0-11.27695-4.69613-11.78906-10.83203-.02712.32721-.05078.65641-.05078.99023 0 6.62426 5.34572 11.8418 11.83984 11.8418 6.62292 0 12.35156-5.34861 12.35156-11.8418z" fill="#090000" opacity=".2"/>
    </g>
  </g>
</svg>
