<svg width="256" height="256" viewBox="0 0 256 256" fill="none" xmlns="http://www.w3.org/2000/svg">
<path opacity="0.1" d="M239.825 79.5935C239.825 44.2968 236.2 40.4989 200.832 40.6719H127.825H54.8188C19.4506 40.4989 15.8252 44.2968 15.8252 79.5935V177.75C15.8252 213.047 19.4621 215.754 54.8188 216.672H127.825H200.832C236.2 216.672 239.825 213.047 239.825 177.75V79.5935Z" fill="black"/>
<path opacity="0.3" d="M239.825 79.5935C239.825 44.2968 236.2 40.4989 200.832 40.6719H127.825H54.8188C19.4506 40.4989 15.8252 44.2968 15.8252 79.5935V177.75C15.8252 213.047 19.4502 216.672 54.8188 216.672H127.825H200.832C236.2 216.672 239.825 213.047 239.825 177.75V79.5935Z" fill="url(#paint0_linear)"/>
<path opacity="0.1" d="M241.83 77.4784C241.83 41.3795 238.14 37.4953 202.141 37.6723H127.83H53.5203C17.5206 37.4953 13.8304 41.3795 13.8304 77.4784V177.866C13.8304 213.964 17.5202 217.672 53.5203 217.672H127.83H202.141C238.141 217.672 241.83 213.964 241.83 177.866V77.4784Z" fill="black"/>
<path d="M239.825 176.745C239.825 212.042 236.2 215.839 200.832 215.667H127.825H54.8188C19.4507 215.839 15.8253 212.042 15.8253 176.745V78.5881C15.8253 43.2914 19.4503 39.6665 54.8188 39.6665H127.825H200.832C236.2 39.6665 239.825 43.2914 239.825 78.5881V176.745Z" fill="#4D4D4D"/>
<path opacity="0.3" d="M54.8182 39.6672C19.4496 39.6672 15.826 43.2904 15.826 78.5872V176.745C15.826 176.834 15.8279 176.908 15.828 176.995V80.5852C15.8279 45.2885 19.4536 41.6633 54.8221 41.6633H127.828H200.834C236.114 41.6633 239.808 45.2844 239.826 80.3352V78.5872C239.826 43.2904 236.2 39.6672 200.832 39.6672H127.826H54.8182Z" fill="white"/>
<path opacity="0.2" d="M15.826 174.745V176.745C15.826 212.042 19.4501 215.84 54.8182 215.667H127.826H200.832C236.2 215.84 239.826 212.042 239.826 176.745V174.745C239.826 210.042 236.2 213.84 200.832 213.667H127.826H54.8182C19.4501 213.84 15.826 210.042 15.826 174.745V174.745Z" fill="black"/>
<path d="M217.825 54.0657H37.8253C32.3024 54.0657 27.8253 58.5428 27.8253 64.0657V172.583C27.8253 178.106 32.3024 182.583 37.8253 182.583H217.825C223.348 182.583 227.825 178.106 227.825 172.583V64.0657C227.825 58.5428 223.348 54.0657 217.825 54.0657Z" fill="url(#paint1_linear)"/>
<path opacity="0.2" d="M232.813 103.5C245.834 103.5 245.682 108.595 245.834 121.729V210.271C245.682 223.405 245.834 228.5 232.813 228.5H175.521C162.5 228.5 162.652 223.405 162.5 210.271V121.729C162.652 108.595 162.5 103.5 175.521 103.5H232.813Z" fill="black"/>
<path opacity="0.1" d="M232.813 102.458C245.834 102.458 245.682 107.553 245.834 120.688V209.229C245.682 222.363 245.834 227.458 232.813 227.458H175.521C162.5 227.458 162.652 222.363 162.5 209.229V120.688C162.652 107.553 162.5 102.458 175.521 102.458H232.813Z" fill="black"/>
<path opacity="0.6" d="M27.8262 170.584V172.584C27.8262 178.124 32.2862 182.584 37.8262 182.584H217.826C223.366 182.584 227.826 178.124 227.826 172.584V170.584C227.826 176.124 223.366 180.584 217.826 180.584H37.8262C32.2862 180.584 27.8262 176.124 27.8262 170.584V170.584Z" fill="white"/>
<path opacity="0.5" d="M232.813 102.458C245.834 102.458 245.682 107.553 245.834 120.688V209.229C245.682 222.363 245.834 227.458 232.813 227.458H175.521C162.5 227.458 162.652 222.363 162.5 209.229V120.688C162.652 107.553 162.5 102.458 175.521 102.458H232.813Z" fill="black" stroke="url(#paint2_linear)" stroke-width="2.08334"/>
<path d="M232.813 102.458C245.834 102.458 245.682 107.553 245.834 120.687V209.229C245.682 222.363 245.834 227.458 232.813 227.458H175.521C162.5 227.458 162.652 222.363 162.5 209.229V120.687C162.652 107.553 162.5 102.458 175.521 102.458H232.813Z" fill="#4D4D4D"/>
<path opacity="0.3" d="M232.813 102.458C245.834 102.458 245.682 107.553 245.834 120.688V209.229C245.682 222.363 245.834 227.458 232.813 227.458H175.521C162.5 227.458 162.652 222.363 162.5 209.229V120.688C162.652 107.553 162.5 102.458 175.521 102.458H232.813Z" stroke="url(#paint3_linear)" stroke-width="2.08334"/>
<path opacity="0.05" d="M232.813 102.459C245.834 102.459 245.682 107.554 245.834 120.688V209.229C245.682 222.363 245.834 227.458 232.813 227.458H204.166V102.459H232.813Z" fill="white"/>
<path opacity="0.3" d="M207.292 109.75H201.042C200.467 109.75 200.001 110.216 200.001 110.791C200.001 111.366 200.467 111.833 201.042 111.833H207.292C207.868 111.833 208.334 111.366 208.334 110.791C208.334 110.216 207.868 109.75 207.292 109.75Z" fill="black"/>
<path d="M237.501 119.125H170.834C168.533 119.125 166.667 120.99 166.667 123.291V206.625C166.667 208.926 168.533 210.792 170.834 210.792H237.501C239.802 210.792 241.668 208.926 241.668 206.625V123.291C241.668 120.99 239.802 119.125 237.501 119.125Z" fill="#5486C8"/>
<path opacity="0.2" d="M200.001 119.125L166.667 185.791V206.625C166.667 208.933 168.526 210.792 170.834 210.792H187.501L233.334 119.125H200.001Z" fill="white"/>
<path opacity="0.5" d="M170.834 210.792C168.526 210.792 166.667 208.933 166.667 206.625V205.583C166.667 207.892 168.526 209.75 170.834 209.75H237.501C239.809 209.75 241.668 207.892 241.668 205.583V206.625C241.668 208.933 239.809 210.792 237.501 210.792H170.834Z" fill="white"/>
<path opacity="0.4" d="M170.834 119.125C168.526 119.125 166.667 120.983 166.667 123.291V185.791L200.001 119.125H170.834Z" fill="white"/>
<path opacity="0.68" d="M166.667 124.333V123.291C166.667 120.983 168.526 119.125 170.834 119.125H237.501C239.809 119.125 241.668 120.983 241.668 123.291V124.333C241.668 122.025 239.809 120.166 237.501 120.166H170.834C168.526 120.166 166.667 122.025 166.667 124.333Z" fill="black"/>
<path opacity="0.4" d="M104.672 54.0664H37.8262C36.4412 54.0664 35.123 54.3449 33.9258 54.8496C32.7286 55.3543 31.6518 56.0845 30.748 56.9883C29.8443 57.892 29.1141 58.9688 28.6094 60.166C28.1047 61.3632 27.8262 62.6814 27.8262 64.0664V172.584C27.8262 173.969 28.1047 175.285 28.6094 176.482C29.1141 177.68 29.8443 178.756 30.748 179.66C31.6518 180.564 32.7286 181.296 33.9258 181.801C35.123 182.305 36.4412 182.584 37.8262 182.584H40.4121L104.672 54.0664Z" fill="white"/>
<path opacity="0.2" d="M172.332 54.0664H104.705L40.4453 182.584H108.074L172.332 54.0664Z" fill="white"/>
<path opacity="0.68" d="M37.8262 54.0664C32.2862 54.0664 27.8262 58.5264 27.8262 64.0664V66.0664C27.8262 60.5264 32.2862 56.0664 37.8262 56.0664H217.826C223.366 56.0664 227.826 60.5264 227.826 66.0664V64.0664C227.826 58.5264 223.366 54.0664 217.826 54.0664H37.8262Z" fill="black"/>
<defs>
<linearGradient id="paint0_linear" x1="27.8279" y1="23.6692" x2="227.828" y2="223.669" gradientUnits="userSpaceOnUse">
<stop stop-opacity="0.588235"/>
<stop offset="0.88" stop-opacity="0"/>
<stop offset="1"/>
</linearGradient>
<linearGradient id="paint1_linear" x1="72.2697" y1="48.224" x2="106.664" y2="205.231" gradientUnits="userSpaceOnUse">
<stop stop-color="#9A9A9A"/>
<stop offset="1" stop-color="#C5C5C5"/>
</linearGradient>
<linearGradient id="paint2_linear" x1="164.583" y1="162.875" x2="243.75" y2="162.875" gradientUnits="userSpaceOnUse">
<stop stop-color="white"/>
<stop offset="0.125" stop-color="white" stop-opacity="0.098039"/>
<stop offset="0.925" stop-color="white" stop-opacity="0.098039"/>
<stop offset="1" stop-color="white" stop-opacity="0.498039"/>
</linearGradient>
<linearGradient id="paint3_linear" x1="204.167" y1="102.458" x2="204.167" y2="227.458" gradientUnits="userSpaceOnUse">
<stop stop-color="white"/>
<stop offset="0.125" stop-color="white" stop-opacity="0.098039"/>
<stop offset="0.925" stop-opacity="0.098039"/>
<stop offset="1" stop-opacity="0.498039"/>
</linearGradient>
</defs>
</svg>
