<svg xmlns="http://www.w3.org/2000/svg" width="256" height="256" version="1.1" viewBox="0 0 67.73 67.73">
 <title id="title1096">
  Hangouts icon
 </title>
 <defs>
  <filter style="color-interpolation-filters:sRGB" id="filter854" width="1.026" height="1.022" x="-.01" y="-.01">
   <feGaussianBlur id="feGaussianBlur856" stdDeviation=".282"/>
  </filter>
  <filter style="color-interpolation-filters:sRGB" id="filter880" width="1.103" height="1.09" x="-.05" y="-.04">
   <feGaussianBlur id="feGaussianBlur882" stdDeviation="1.128"/>
  </filter>
 </defs>
 <g id="layer1" transform="translate(191.24475,-119.94668)">
  <g transform="translate(17.727083,-23.547916)">
   <path style="opacity:0.1;paint-order:markers stroke fill;filter:url(#filter880)" d="m -174.90301,147.33202 c 14.50019,1.2e-4 26.24319,11.58261 26.24414,25.87244 -0.003,3.52659 -0.73749,7.01655 -2.15809,10.25335 v 0.002 l -0.002,0.003 c -4.51499,10.74918 -13.01238,19.3812 -23.74384,24.19413 0,0 0,-7.17915 0,-7.91025 0,-0.73109 0.0644,-0.66807 -0.34059,-0.66807 -14.50089,8e-5 -26.24408,-11.5817 -26.24413,-25.87243 4e-5,-14.29074 11.74324,-25.87415 26.24413,-25.87408 z"/>
   <path d="m -174.90301,147.33202 c 14.50019,1.2e-4 26.24319,11.58261 26.24414,25.87244 -0.003,3.52659 -0.73749,7.01655 -2.15809,10.25335 v 0.002 l -0.002,0.003 c -4.51499,10.74918 -13.01238,19.3812 -23.74384,24.19413 0,0 0,-7.17915 0,-7.91025 0,-0.73109 0.0644,-0.66807 -0.34059,-0.66807 -14.50089,8e-5 -26.24408,-11.5817 -26.24413,-25.87243 4e-5,-14.29074 11.74324,-25.87415 26.24413,-25.87408 z" style="opacity:0.1;paint-order:markers stroke fill;filter:url(#filter854)"/>
   <path style="opacity:0.1;paint-order:markers stroke fill" d="m -174.90301,147.33202 c 14.50019,1.2e-4 26.24319,11.58261 26.24414,25.87244 -0.003,3.52659 -0.73749,7.01655 -2.15809,10.25335 v 0.002 l -0.002,0.003 c -4.51499,10.74918 -13.01238,19.3812 -23.74384,24.19413 0,0 0,-7.17915 0,-7.91025 0,-0.73109 0.0644,-0.66807 -0.34059,-0.66807 -14.50089,8e-5 -26.24408,-11.5817 -26.24413,-25.87243 4e-5,-14.29074 11.74324,-25.87415 26.24413,-25.87408 z"/>
   <path d="m -174.83436,147.8614 c 14.24574,1.2e-4 25.78268,11.37936 25.78362,25.41844 -0.003,3.46471 -0.72455,6.89343 -2.12022,10.07343 v 0.002 l -0.002,0.003 c -4.43576,10.56055 -12.78404,19.0411 -23.32719,23.76958 0,0 0,-7.05317 0,-7.77145 0,-0.71826 0.0633,-0.65634 -0.33462,-0.65634 -14.24643,8e-5 -25.78356,-11.37847 -25.78361,-25.41844 4e-5,-14.03997 11.53718,-25.42012 25.78361,-25.42005 z" style="fill:#18a15f;paint-order:markers stroke fill"/>
   <path d="m -187.98724,166.39524 v 11.25841 h 6.22161 v 6.65697 a 6.1117078,6.7687163 0 0 0 5.03715,-6.65697 6.1117078,6.7687163 0 0 0 -3.6e-4,-0.0113 v -11.24713 z" style="fill:#ffffff;paint-order:markers stroke fill"/>
   <path style="fill:#ffffff;paint-order:markers stroke fill" d="m -173.03681,166.39524 v 11.25842 h 6.2216 v 6.65697 a 6.111708,6.7687164 0 0 0 5.03716,-6.65697 6.111708,6.7687164 0 0 0 -3.7e-4,-0.0113 v -11.24714 z"/>
   <path style="opacity:0.3;fill:#ffffff;paint-order:markers stroke fill" d="M 129.02344 16.503906 L 129.02148 16.505859 C 75.17671 16.505595 31.572417 59.515625 31.572266 112.58008 C 31.572267 112.91434 31.580531 113.24662 31.583984 113.58008 C 32.12913 60.9774 75.516153 18.505596 129.02148 18.505859 L 129.02344 18.503906 C 182.51451 18.504357 225.89196 60.955611 226.45898 113.53906 C 226.46254 113.21734 226.47238 112.89612 226.47266 112.57422 C 226.4691 59.513129 182.8656 16.50436 129.02344 16.503906 z M 130.28711 211.25195 L 130.28711 213.13086 C 130.28711 212.1876 130.3125 211.61672 130.28711 211.25195 z" transform="matrix(0.26458333,0,0,0.26458333,-208.97183,143.4946)"/>
   <path style="opacity:0.2;paint-order:markers stroke fill" d="M 226.45898 111.53906 C 226.31779 124.30513 223.60624 136.92304 218.46094 148.64648 L 218.46094 148.6543 L 218.45312 148.66602 C 201.68805 188.57991 170.13524 220.63249 130.28711 238.50391 L 130.28711 240.50391 C 170.13524 222.63249 201.68805 190.57991 218.45312 150.66602 L 218.46094 150.6543 L 218.46094 150.64648 C 223.73591 138.62759 226.46132 125.66919 226.47266 112.57422 C 226.47263 112.22822 226.46271 111.88419 226.45898 111.53906 z M 31.583984 111.58008 C 31.580526 111.91379 31.572267 112.24555 31.572266 112.58008 C 31.572455 165.64453 75.17671 208.65069 129.02148 208.65039 C 130.00286 208.65039 130.23942 208.56693 130.28711 209.25195 L 130.28711 209.13086 C 130.28711 206.41618 130.52543 206.65039 129.02148 206.65039 C 75.515885 206.65069 32.128741 164.18305 31.583984 111.58008 z" transform="matrix(0.26458333,0,0,0.26458333,-208.97183,143.4946)"/>
  </g>
 </g>
</svg>
