<svg height="256" width="256" xmlns="http://www.w3.org/2000/svg" xmlns:xlink="http://www.w3.org/1999/xlink">
  <filter id="filter11191" color-interpolation-filters="sRGB" height="1.024" width="1.024" x="-.012" y="-.012">
    <feGaussianBlur stdDeviation="1.12"/>
  </filter>
  <filter id="filter11210" color-interpolation-filters="sRGB" height="1.096" width="1.096" x="-.048" y="-.048">
    <feGaussianBlur stdDeviation="4.48"/>
  </filter>
  <filter id="filter1345-3" color-interpolation-filters="sRGB" height="1.048" width="1.048" x="-.024" y="-.024">
    <feGaussianBlur stdDeviation="1.28"/>
  </filter>
  <linearGradient id="linearGradient1242" gradientUnits="userSpaceOnUse" x1="-2.186146" x2="-238.42224" y1="-2.409558" y2="-233.8644">
    <stop offset="0" stop-color="#2daaaa"/>
    <stop offset="1" stop-color="#31c6b7"/>
  </linearGradient>
  <circle cx="127.752" cy="128.24802" filter="url(#filter11210)" opacity=".1" r="112"/>
  <circle cx="127.752" cy="126.24799" filter="url(#filter11191)" opacity=".1" r="112"/>
  <circle cx="127.752" cy="124.24799" opacity=".1" r="113.99999"/>
  <circle cx="-127.752" cy="-124.24799" fill="url(#linearGradient1242)" r="112" transform="scale(-1)"/>
  <path d="m127.75195 12.248047a112 112 0 0 0 -111.999997 112.000003 112 112 0 0 0 .041016 1.16992 112 112 0 0 1 111.958981-111.169923 112 112 0 0 1 111.95899 110.830073 112 112 0 0 0 .04101-.83007 112 112 0 0 0 -112-112.000003z" fill="#f4f4f4" opacity=".2"/>
  <path d="m239.71094 123.07812a112 112 0 0 1 -111.95899 111.16993 112 112 0 0 1 -111.958981-110.83008 112 112 0 0 0 -.041016.83008 112 112 0 0 0 111.999997 112 112 112 0 0 0 112-112 112 112 0 0 0 -.04101-1.16993z" opacity=".2"/>
  <g transform="translate(-255.56195 10.057495)">
    <path d="m78.921901 15.974762c-35.29673 0-39.09487 3.626029-38.92188 38.994139v2c-.17299-35.36811 3.62515-38.994139 38.92188-38.994139h98.156239c35.29673 0 38.92188 3.625608 38.92188 38.994139v-2c0-35.368531-3.62515-38.994139-38.92188-38.994139z" fill="#fff" opacity=".3"/>
    <circle cx="322.63394" cy="57.870506" filter="url(#filter1345-3)" opacity=".2" r="64"/>
    <g transform="matrix(3.7797136 0 0 3.7797136 33.44901148067 -16.32654083714)">
      <path d="m88.587519 16.264963a.52919356.52919356 0 0 0 -.521389.536892v7.937626a.52929701.52929701 0 0 0 1.058281 0v-7.937626a.52919356.52919356 0 0 0 -.536892-.536892zm2.645703 0a.52919356.52919356 0 0 0 -.521389.536892v7.937626a.52929701.52929701 0 0 0 1.058281 0v-7.937626a.52919356.52919356 0 0 0 -.536892-.536892zm2.645703 0a.52919356.52919356 0 0 0 -.521389.536892v7.937626a.52929701.52929701 0 0 0 1.058282 0v-7.937626a.52919356.52919356 0 0 0 -.536893-.536892zm2.645703 0a.52919356.52919356 0 0 0 -.521389.536892v7.937626a.52929701.52929701 0 1 0 1.058282 0v-7.937626a.52919356.52919356 0 0 0 -.536893-.536892z" fill="#eaca44"/>
      <rect fill="#d8d8d8" height="6.035728" rx="1.146807" stroke-width=".095567" width="15.411616" x="84.85807" y="19.99077"/>
      <path d="m88.587519 43.780295a.52919356.52919356 0 0 0 -.521389.536892v7.937626a.52929701.52929701 0 0 0 1.058281 0v-7.937626a.52919356.52919356 0 0 0 -.536892-.536892zm2.645703 0a.52919356.52919356 0 0 0 -.521389.536892v7.937626a.52929701.52929701 0 0 0 1.058281 0v-7.937626a.52919356.52919356 0 0 0 -.536892-.536892zm2.645703 0a.52919356.52919356 0 0 0 -.521389.536892v7.937626a.52929701.52929701 0 0 0 1.058282 0v-7.937626a.52919356.52919356 0 0 0 -.536893-.536892zm2.645703 0a.52919356.52919356 0 0 0 -.521389.536892v7.937626a.52929701.52929701 0 1 0 1.058282 0v-7.937626a.52919356.52919356 0 0 0 -.536893-.536892z" fill="#eaca44"/>
      <rect fill="#d8d8d8" height="6.035728" rx="1.146807" stroke-width=".095567" transform="scale(-1)" width="15.411616" x="-100.26968" y="-49.308681"/>
      <g fill="#eaca44" transform="matrix(0 1 -1 0 125.645782 1.860142)">
        <path d="m28.694435 14.815937a.52919356.52919356 0 0 0 -.521389.536892v7.937626a.52929701.52929701 0 0 0 1.058281 0v-7.937626a.52919356.52919356 0 0 0 -.536892-.536892zm2.645703 0a.52919356.52919356 0 0 0 -.521389.536892v7.937626a.52929701.52929701 0 0 0 1.058281 0v-7.937626a.52919356.52919356 0 0 0 -.536892-.536892zm2.645703 0a.52919356.52919356 0 0 0 -.521389.536892v7.937626a.52929701.52929701 0 0 0 1.058282 0v-7.937626a.52919356.52919356 0 0 0 -.536893-.536892zm2.645703 0a.52919356.52919356 0 0 0 -.521389.536892v7.937626a.52929701.52929701 0 1 0 1.058282 0v-7.937626a.52919356.52919356 0 0 0 -.536893-.536892z"/>
        <path d="m28.694435 42.331269a.52919356.52919356 0 0 0 -.521389.536892v7.937626a.52929701.52929701 0 0 0 1.058281 0v-7.937626a.52919356.52919356 0 0 0 -.536892-.536892zm2.645703 0a.52919356.52919356 0 0 0 -.521389.536892v7.937626a.52929701.52929701 0 0 0 1.058281 0v-7.937626a.52919356.52919356 0 0 0 -.536892-.536892zm2.645703 0a.52919356.52919356 0 0 0 -.521389.536892v7.937626a.52929701.52929701 0 0 0 1.058282 0v-7.937626a.52919356.52919356 0 0 0 -.536893-.536892zm2.645703 0a.52919356.52919356 0 0 0 -.521389.536892v7.937626a.52929701.52929701 0 1 0 1.058282 0v-7.937626a.52919356.52919356 0 0 0 -.536893-.536892z"/>
      </g>
      <g fill="#d8d8d8" stroke-width=".095567" transform="matrix(0 1 -1 0 125.764574 1.978934)">
        <rect height="6.035728" rx="1.146807" width="15.411616" x="24.964983" y="18.541744"/>
        <rect height="6.035728" rx="1.146807" transform="scale(-1)" width="15.411616" x="-40.376598" y="-47.859653"/>
      </g>
      <path d="m80.658211 22.980293h23.811329v23.811329h-23.811329z" fill="#434853" opacity=".6" stroke-width=".107422"/>
      <path d="m82.086891 24.408974h20.953968v20.953968h-20.953968z" fill="#434854" stroke-width=".094531"/>
      <path d="m85.685047 26.684279a1.0582813 1.0582813 0 0 0 -1.058281 1.05828 1.0582813 1.0582813 0 0 0 1.058281 1.058281 1.0582813 1.0582813 0 0 0 1.058282-1.058281 1.0582813 1.0582813 0 0 0 -1.058282-1.05828zm13.757657 0a1.0582813 1.0582813 0 0 0 -1.058281 1.05828 1.0582813 1.0582813 0 0 0 1.058281 1.058281 1.0582813 1.0582813 0 0 0 1.058276-1.058281 1.0582813 1.0582813 0 0 0 -1.058276-1.05828zm-13.757657 14.286796a1.0582813 1.0582813 0 0 0 -1.058281 1.058281 1.0582813 1.0582813 0 0 0 1.058281 1.058281 1.0582813 1.0582813 0 0 0 1.058282-1.058281 1.0582813 1.0582813 0 0 0 -1.058282-1.058281zm13.757657 0a1.0582813 1.0582813 0 0 0 -1.058281 1.058281 1.0582813 1.0582813 0 0 0 1.058281 1.058281 1.0582813 1.0582813 0 0 0 1.058276-1.058281 1.0582813 1.0582813 0 0 0 -1.058276-1.058281z" fill="#fff" opacity=".2" stroke-width=".172591"/>
    </g>
    <circle cx="322.63394" cy="55.870544" fill="#5884f4" r="64"/>
    <text fill="#fff" font-family="sans-serif" font-size="102.663239" letter-spacing="0" stroke-width="2.566581" word-spacing="0" x="305.03882" y="94.870544"><tspan fill="#fff" font-family="sans-serif" font-weight="bold" stroke-width="2.566581" x="305.03882" y="94.870544">i</tspan></text>
  </g>
</svg>
