<svg height="256" width="256" xmlns="http://www.w3.org/2000/svg" xmlns:xlink="http://www.w3.org/1999/xlink">
  <filter id="filter11191" color-interpolation-filters="sRGB" height="1.024" width="1.024" x="-.01" y="-.01">
    <feGaussianBlur stdDeviation="1.12"/>
  </filter>
  <filter id="filter11210" color-interpolation-filters="sRGB" height="1.096" width="1.096" x="-.05" y="-.05">
    <feGaussianBlur stdDeviation="4.48"/>
  </filter>
  <circle cx="128.752" cy="127.248" filter="url(#filter11210)" opacity=".1" r="112"/>
  <circle cx="128.752" cy="125.248" filter="url(#filter11191)" opacity=".1" r="112"/>
  <circle cx="128.752" cy="123.248" opacity=".1" r="114"/>
  <circle cx="128.752" cy="123.248" fill="#fb7c38" r="112"/>
  <path d="m16.751953 123.24805c.219543 2.63999.266428 5.98571.402344 8.91797a112 112 0 0 0 1.226562 10.11914 112 112 0 0 0 2.453125 10.92187 112 112 0 0 0 3.529297 10.625 112 112 0 0 0 4.574219 10.21875 112 112 0 0 0 5.570312 9.71094 112 112 0 0 0 6.511719 9.10742 112 112 0 0 0 7.388672 8.41016 112 112 0 0 0 8.191406 7.63086 112 112 0 0 0 8.91211 6.77539 112 112 0 0 0 9.544922 5.85156 112 112 0 0 0 10.080078 4.86914 112 112 0 0 0 10.517578 3.83984 112 112 0 0 0 10.847653 2.76953 112 112 0 0 0 11.06836 1.67188 112 112 0 0 0 11.05664.55469c1.00274-.00122 2.05955-.08622 3.07227-.09961a112 112 0 0 0 4.97461-.17578 112 112 0 0 0 11.11523-1.34766 112 112 0 0 0 10.92188-2.45312 112 112 0 0 0 10.625-3.5293 112 112 0 0 0 10.21875-4.57422 112 112 0 0 0 9.71093-5.57031 112 112 0 0 0 9.10743-6.51172 112 112 0 0 0 8.41015-7.38867 112 112 0 0 0 7.63086-8.19141 112 112 0 0 0 6.77539-8.91211 112 112 0 0 0 5.85157-9.54492 112 112 0 0 0 4.86914-10.08008 112 112 0 0 0 3.83984-10.51758 112 112 0 0 0 2.76953-10.84765 112 112 0 0 0 1.63867-10.83008c-.1976-4.0827-.28991-8.00416-.00586-11.41992z" fill="#fff" opacity=".1"/>
  <path d="m128.752 11.248006a112 112 0 0 0 -112.000001 111.999994 112 112 0 0 0 .04102 1.16992 112 112 0 0 1 111.958981-111.169914 112 112 0 0 1 111.95898 110.830074 112 112 0 0 0 .041-.83008 112 112 0 0 0 -112-111.999994z" fill="#fff" opacity=".3"/>
  <g transform="matrix(.36090014 0 0 .36090014 327.86187 93.204339)">
    <path d="m-713.43102 21.050714c-27.50072 30.197992-48.46198 66.492027-48.46198 107.831716 0 101.17581 92.85279 183.19504 207.39299 183.19504 114.54022 0 207.39301-82.01924 207.39301-183.19504 0-40.313081-19.57985-77.577698-46.25793-107.831716z" fill="#a86d54"/>
    <g transform="matrix(2.7708496 0 0 2.7708496 -908.45592 -258.2552)">
      <path d="m162.77344 124.41016c-2.58994.07411-5.53762 1.23515-10.58985 3.07812-7.3487 2.68069-18.94325 6.3908-28.25195 10.36133s-8.90274 2.46247-12.21484 2.71484c-3.3121.25238-5.48734-.11758-7.40235-.49414s-2.529-.87864-4.07031-1.35547c-1.541314-.47682-3.01163-1.15897-5.18164-1.48046-2.17001-.3215-3.226817-.52166-7.771484-.125-4.544668.39665-13.159853 2.52906-19.246094 3.70117-4.52417.87127-11.433313 2.28339-14.998047 2.95312 2.36802 34.62902 34.896751 62.07031 74.695315 62.07031 41.33758 0 74.84765-29.60087 74.84765-66.11523 0-.92582-.02987-1.84712-.08593-2.76367-1.83249.6742-4.18266 1.4545-5.53711 1.51172-2.36417.09987-3.3654-.47484-5.67578-1.23242-2.31039-.75759-5.13004-2.10994-8.01954-3.57813-2.88949-1.46819-5.53688-2.89571-8.38867-4.31836-2.85178-1.42265-4.82049-2.86774-8.63672-4.31836-1.19257-.45332-2.29541-.64306-3.47265-.60937z" fill="#fda463"/>
      <path d="m146.38477 164.99219c-7.02626-.07622-12.30184 1.16824-23.19336 2.71484-10.89153 1.54661-36.754806 5.95145-42.070316 7.03125-8.901657 1.8083-14.484893 1.28674-16.074219 1.07617 13.359686 18.06863 36.440705 30.01953 62.695315 30.01953 24.77006 0 46.7204-10.63417 60.34375-27.00976-2.00341-1.40384-8.86461-6.15635-12.33985-7.78711-4.06113-1.90569-5.84462-2.33752-10.73242-3.45508-4.88779-1.11755-11.60265-2.51362-18.6289-2.58984z" fill="#ffda64"/>
      <path d="m114.11719 234.16602a112 112 0 0 0 3.45312.52148 112 112 0 0 0 11.18164.56055 112 112 0 0 0 7.92188-.28125 112 112 0 0 0 2.44336-.29688c.90131-5.6182 2.19083-11.00067 6.12695-17.73437 42.21527-7.11082 74.0957-39.44855 74.0957-78.27344 0-17.54581-8.64701-33.76588-20.42968-46.933594h-141.361332c-12.146004 13.143334-21.404297 28.940964-21.404297 46.933594 0 38.64131 31.58016 70.85955 73.498049 78.17383 1.59426 5.1146 3.76849 11.60852 4.47461 17.33008zm-43.732424-133.36524h115.511714c9.62813 10.91868 16.69336 24.36897 16.69336 38.91797 0 36.51436-33.51007 66.11523-74.84765 66.11523-41.337577 0-74.847659-29.60087-74.847659-66.11523 0-14.9195 7.565221-28.01951 17.490235-38.91797z" fill="#f1f0e9"/>
      <path d="m72.697266 68.175781-6.63086 3.75 21.029297 28.874999h9.046875z" fill="#234db8"/>
    </g>
    <ellipse cx="-727.29431" cy="-78.280022" fill="#da1636" rx="33.508984" ry="33.239521"/>
    <rect fill="#fdc92b" height="52.18462" rx="19.529627" ry="19.537653" transform="matrix(.81117627 -.58480173 .58380461 .81189419 0 0)" width="78.598824" x="-583.14392" y="-440.7179"/>
    <path d="m175.31445 70.490234.18555 1.419922-7.9668 28.890624h7.58399l7.72265-28.335936z" fill="#f34f17" transform="matrix(2.7708496 0 0 2.7708496 -908.45592 -258.2552)"/>
    <path d="m-422.17235-55.928965 18.45936 4.61484-2.73472 10.084279z" fill="#675331" fill-opacity=".409524"/>
    <path d="m-390-144-165 51.996094 282.0625 75.68164z" fill="#28851e"/>
    <path d="m-390-144-165 51.996094 53.5957 14.380859z" fill="#46a926"/>
    <path d="m-390-144-111.4043 66.376953 47.18555 12.660156z" fill="#28851e"/>
    <path d="m-390-144-64.21875 79.037109 39.33203 10.552735z" fill="#46a926"/>
    <path d="m-390-144-24.88672 89.589844 39.77734 10.673828z" fill="#28851e"/>
    <path d="m-390-144 14.58984 100.183594 45.55664 12.222656z" fill="#46a926"/>
    <path d="m114.11719 234.16602a112 112 0 0 0 3.45312.52148 112 112 0 0 0 11.18164.56055 112 112 0 0 0 7.92188-.28125 112 112 0 0 0 2.44336-.29688c.90131-5.6182 2.19083-11.00067 6.12695-17.73437 42.21527-7.11082 74.0957-39.44855 74.0957-78.27344 0-17.54581-8.64701-33.76588-20.42968-46.933594h-141.361332c-12.146004 13.143334-21.404297 28.940964-21.404297 46.933594 0 38.64131 31.58016 70.85955 73.498049 78.17383 1.59426 5.1146 3.76849 11.60852 4.47461 17.33008zm-43.732424-133.36524h115.511714c9.62813 10.91868 16.69336 24.36897 16.69336 38.91797 0 36.51436-33.51007 66.11523-74.84765 66.11523-41.337577 0-74.847659-29.60087-74.847659-66.11523 0-14.9195 7.565221-28.01951 17.490235-38.91797z" fill="#f1f0e9" fill-opacity=".37" transform="matrix(2.7708496 0 0 2.7708496 -908.45592 -258.2552)"/>
    <ellipse cx="-676.83752" cy="393.02118" fill="#fff" rx="37.722786" ry="63.585491" transform="matrix(.9183016 .3958815 -.30667887 .95181304 0 0)"/>
  </g>
  <path d="m128.752 235.248a112 112 0 0 1 -112.000001-112 112 112 0 0 1 .04102-1.16992 112 112 0 0 0 111.958981 111.16992 112 112 0 0 0 111.95898-110.83008 112 112 0 0 1 .041.83008 112 112 0 0 1 -112 112z" opacity=".2"/>
</svg>
