<svg height="256" width="256" xmlns="http://www.w3.org/2000/svg" xmlns:xlink="http://www.w3.org/1999/xlink">
  <linearGradient id="linearGradient4358" gradientTransform="matrix(0 -1 1 0 -10.0054 585.9946)" gradientUnits="userSpaceOnUse" x1="88" x2="488" y1="88" y2="488">
    <stop offset="0" stop-opacity=".588235"/>
    <stop offset=".88" stop-opacity="0"/>
    <stop offset="1"/>
  </linearGradient>
  <filter id="filter4380" color-interpolation-filters="sRGB" height="1.088" width="1.106" x="-.05" y="-.04">
    <feGaussianBlur stdDeviation="8.48"/>
  </filter>
  <filter id="filter4346" color-interpolation-filters="sRGB" height="1.022" width="1.026" x="-.01" y="-.01">
    <feGaussianBlur stdDeviation="2.12"/>
  </filter>
  <filter id="c" color-interpolation-filters="sRGB" height="1.067" width="1.083" x="-.04" y="-.03">
    <feOffset dy="4" result="pf_100_offsetBlur"/>
    <feFlood flood-opacity=".4"/>
    <feComposite in2="pf_100_offsetBlur" operator="in" result="pf_100_dropShadow"/>
    <feBlend in="SourceGraphic" in2="pf_100_dropShadow" mode="normal"/>
  </filter>
  <path d="m189.84323 74c-70.59344 0-78.18921 7.250835-77.84323 77.98706v146.01294 146.01294c-.34598 70.73623 7.24979 77.98706 77.84323 77.98706h196.31354c70.59344 0 76.00668-7.27384 77.84323-77.98706v-146.01294-146.01294c0-70.737067-7.24979-77.98706-77.84323-77.98706z" filter="url(#filter4346)" opacity=".1" transform="matrix(0 .5 -.5 0 276.82523 -15.328148)"/>
  <path d="m189.84323 74c-70.59344 0-78.18921 7.250835-77.84323 77.98706v146.01294 146.01294c-.34598 70.73623 7.24979 77.98706 77.84323 77.98706h196.31354c70.59344 0 77.84323-7.24999 77.84323-77.98706v-146.01294-146.01294c0-70.737067-7.24979-77.98706-77.84323-77.98706z" fill="url(#linearGradient4358)" filter="url(#filter4380)" opacity=".3" transform="matrix(0 .5 -.5 0 276.82523 -15.328148)"/>
  <path d="m241.83043 77.478254c0-36.098811-3.69016-39.983003-39.68984-39.806081h-74.31016-74.310145c-35.99969-.176922-39.689841 3.70727-39.689841 39.806081v100.387326c0 36.09881 3.689731 39.80608 39.689841 39.80608h74.310145 74.31016c36.00011 0 39.68984-3.70727 39.68984-39.80608z" opacity=".1"/>
  <path d="m239.82523 176.74484c0 35.29673-3.62542 39.09461-38.99353 38.92162h-73.00647-73.006455c-35.36812.17299-38.993531-3.62489-38.993531-38.92162v-98.156766c0-35.296716 3.625001-38.921616 38.993531-38.921616h73.006455 73.00647c35.36853 0 38.99353 3.6249 38.99353 38.921616z" fill="#3584e4"/>
  <path d="m15.827944 127.66916v8 41.00586c0 35.36853 3.625166 38.99414 38.921876 38.99414h146.15624c35.29673 0 39.09486-3.62602 38.92187-38.99414v-41.00586-8z" fill="#fff" opacity=".1"/>
  <path d="m54.818179 39.667201c-35.36853 0-38.992188 3.623202-38.992188 38.919923v98.158206c0 .0882.0019.16224.002.25v-96.410156c-.000047-35.29672 3.625565-38.921879 38.994095-38.921879h73.005844 73.00586c35.28016 0 38.97394 3.621035 38.99219 38.671879v-1.74805c0-35.296721-3.62561-38.919923-38.99414-38.919923h-73.00586z" fill="#fff" opacity=".3"/>
  <path d="m15.825991 174.74533v2c0 35.29673 3.624068 39.09487 38.992188 38.92188h73.007801 73.00586c35.36811.17299 38.99414-3.62515 38.99414-38.92188v-2c0 35.29673-3.62603 39.09487-38.99414 38.92188h-73.00586-73.007801c-35.36812.17299-38.992188-3.62515-38.992188-38.92188z" opacity=".2"/>
  <path d="m51.426237 3.5849023-13.757004 37.8110007h-.004l-23.379 64.228997h15.564l19.882004-54.580997h11.7l-19.883 54.581997 15.559.005 18.527-50.920997c2.666-7.321-1.528-13.313-9.314-13.313h-13.083l14.46-38.0612516h-16.272zm40.769 37.8110007-24.042 66.065997h-.011l-13.487 32.84579h14.851l14.884-34.68279h20.656003c3.625 0 7.605-2.787 8.844-6.190997l16.282-44.725c2.664-7.324-1.529-13.313-9.32-13.313zm12.108003 9.612h11.695l-16.377003 44.933h-11.695z" fill="#f6f5f4" filter="url(#c)" transform="matrix(1.01672798388 0 0 1.02634860924 53.8021127075 53.4630485477)"/>
</svg>
