<?xml version="1.0" encoding="UTF-8" standalone="no"?>
<svg
   xmlns:dc="http://purl.org/dc/elements/1.1/"
   xmlns:cc="http://creativecommons.org/ns#"
   xmlns:rdf="http://www.w3.org/1999/02/22-rdf-syntax-ns#"
   xmlns:svg="http://www.w3.org/2000/svg"
   xmlns="http://www.w3.org/2000/svg"
   xmlns:xlink="http://www.w3.org/1999/xlink"
   xmlns:sodipodi="http://sodipodi.sourceforge.net/DTD/sodipodi-0.dtd"
   xmlns:inkscape="http://www.inkscape.org/namespaces/inkscape"
   width="256"
   height="256"
   version="1.1"
   viewBox="0 0 67.73 67.73"
   id="svg44"
   sodipodi:docname="imagination.svg"
   inkscape:version="0.92.3 (2405546, 2018-03-11)">
  <metadata
     id="metadata48">
    <rdf:RDF>
      <cc:Work
         rdf:about="">
        <dc:format>image/svg+xml</dc:format>
        <dc:type
           rdf:resource="http://purl.org/dc/dcmitype/StillImage" />
        <dc:title></dc:title>
      </cc:Work>
    </rdf:RDF>
  </metadata>
  <sodipodi:namedview
     pagecolor="#ffffff"
     bordercolor="#666666"
     borderopacity="1"
     objecttolerance="10"
     gridtolerance="10"
     guidetolerance="10"
     inkscape:pageopacity="0"
     inkscape:pageshadow="2"
     inkscape:window-width="1920"
     inkscape:window-height="1009"
     id="namedview46"
     showgrid="false"
     inkscape:zoom="3.2617188"
     inkscape:cx="67.449103"
     inkscape:cy="66.682636"
     inkscape:window-x="0"
     inkscape:window-y="34"
     inkscape:window-maximized="1"
     inkscape:current-layer="svg44" />
  <defs
     id="defs20">
    <radialGradient
       id="radialGradient971"
       cx="152"
       cy="228.005"
       r="88"
       gradientTransform="matrix(.34811542 5.4590196e-8 -5.4663176e-8 .32490771 -18.793185 208.75322)"
       gradientUnits="userSpaceOnUse">
      <stop
         style="stop-color:#ffffff;stop-opacity:0"
         offset="0"
         id="stop2" />
      <stop
         style="stop-color:#ffffff"
         offset="1"
         id="stop4" />
    </radialGradient>
    <radialGradient
       id="radialGradient893"
       cx="340"
       cy="210.56"
       r="5.5"
       gradientTransform="matrix(7.4264632,-1.2863223e-5,1.2863218e-5,7.4264601,-2490.8795,-1287.0045)"
       gradientUnits="userSpaceOnUse">
      <stop
         style="stop-color:#cccccc"
         offset="0"
         id="stop7" />
      <stop
         style="stop-color:#b3b3b3"
         offset=".628"
         id="stop9" />
      <stop
         style="stop-color:#e6e6e6"
         offset="1"
         id="stop11" />
    </radialGradient>
    <filter
       id="filter935"
       width="1.028"
       height="1.021"
       x="-.01"
       y="-.01"
       style="color-interpolation-filters:sRGB">
      <feGaussianBlur
         stdDeviation="1.041"
         id="feGaussianBlur14" />
    </filter>
    <filter
       id="filter941"
       width="1.142"
       height="1.104"
       x="-.07"
       y="-.05"
       style="color-interpolation-filters:sRGB">
      <feGaussianBlur
         stdDeviation="5.204"
         id="feGaussianBlur17" />
    </filter>
    <linearGradient
       inkscape:collect="always"
       xlink:href="#linearGradient1048"
       id="linearGradient11065"
       x1="104"
       y1="44"
       x2="200"
       y2="268"
       gradientUnits="userSpaceOnUse"
       gradientTransform="matrix(0.26457031,0,0,0.26457031,-6.4153006,-8.4006339)" />
    <linearGradient
       inkscape:collect="always"
       id="linearGradient1048">
      <stop
         style="stop-color:#cdcdcd;stop-opacity:1;"
         offset="0"
         id="stop1044" />
      <stop
         style="stop-color:#d9d9d9;stop-opacity:1"
         offset="1"
         id="stop1046" />
    </linearGradient>
    <filter
       inkscape:collect="always"
       style="color-interpolation-filters:sRGB"
       id="filter11191"
       x="-0.012"
       width="1.024"
       y="-0.012"
       height="1.024">
      <feGaussianBlur
         inkscape:collect="always"
         stdDeviation="1.12"
         id="feGaussianBlur11193" />
    </filter>
    <filter
       inkscape:collect="always"
       style="color-interpolation-filters:sRGB"
       id="filter11210"
       x="-0.048"
       width="1.096"
       y="-0.048"
       height="1.096">
      <feGaussianBlur
         inkscape:collect="always"
         stdDeviation="4.48"
         id="feGaussianBlur11212" />
    </filter>
    <linearGradient
       id="linearGradient1116"
       x1="794.60199"
       x2="805.84497"
       y1="464.77301"
       y2="312.491"
       gradientUnits="userSpaceOnUse"
       xlink:href="#linearGradient2782-839-396" />
    <linearGradient
       id="linearGradient2782-839-396">
      <stop
         id="stop7582"
         offset="0"
         style="stop-color:#8dc5ff" />
      <stop
         id="stop7584"
         offset="1"
         style="stop-color:#f2c600" />
    </linearGradient>
    <radialGradient
       id="radialGradient1062-2"
       cx="131.91499"
       cy="55.926998"
       r="160"
       fx="131.91499"
       fy="55.926998"
       gradientTransform="matrix(1.0125135,2.1002674,-1.6092836,0.11574215,-4.6063107,-300.00018)"
       gradientUnits="userSpaceOnUse"
       xlink:href="#linearGradient1722" />
    <linearGradient
       id="linearGradient1722">
      <stop
         style="stop-color:#e01b24"
         id="stop1718"
         offset="0" />
      <stop
         style="stop-color:#f8e45c"
         id="stop1720"
         offset="1" />
    </linearGradient>
    <radialGradient
       id="radialGradient1064-8"
       cx="525.58801"
       cy="638.59198"
       r="192"
       fx="525.58801"
       fy="638.59198"
       gradientTransform="matrix(-0.56672219,1.0065537,-1.1024699,-0.69087589,1449.8905,-224.44988)"
       gradientUnits="userSpaceOnUse"
       xlink:href="#linearGradient1594" />
    <linearGradient
       id="linearGradient1594">
      <stop
         id="stop1590"
         offset="0"
         style="stop-color:#2ec27e" />
      <stop
         id="stop1592"
         offset="1"
         style="stop-color:#57e389;stop-opacity:0" />
    </linearGradient>
    <linearGradient
       id="linearGradient81638-4"
       x1="-11.986"
       x2="-11.986"
       y1="11.5"
       y2="28.976999"
       gradientTransform="matrix(4.0215518,0,0,4.4016601,-113.49853,1.8026083)"
       gradientUnits="userSpaceOnUse"
       xlink:href="#linearGradient6969-5" />
    <linearGradient
       id="linearGradient6969-5">
      <stop
         style="stop-color:#204a87"
         id="stop6971-9"
         offset="0" />
      <stop
         style="stop-color:#729fcf"
         id="stop6973-3"
         offset="1" />
    </linearGradient>
  </defs>
  <circle
     style="display:inline;opacity:0.3;fill:#000000;fill-opacity:1;stroke:none;stroke-width:1;stroke-linecap:round;stroke-linejoin:round;stroke-miterlimit:4;stroke-dasharray:none;stroke-opacity:1;filter:url(#filter11210);enable-background:new"
     id="path11042-0"
     r="112"
     cy="122.752"
     cx="122.752"
     transform="matrix(0.26457031,0,0,0.26457031,1.3228519,1.454082)" />
  <circle
     style="display:inline;opacity:0.1;fill:#000000;fill-opacity:1;stroke:none;stroke-width:1;stroke-linecap:round;stroke-linejoin:round;stroke-miterlimit:4;stroke-dasharray:none;stroke-opacity:1;filter:url(#filter11191);enable-background:new"
     id="path11042-6"
     r="112"
     cy="120.75198"
     cx="122.752"
     transform="matrix(0.26457031,0,0,0.26457031,1.3228519,1.454082)" />
  <circle
     style="display:inline;opacity:0.1;fill:#000000;fill-opacity:1;stroke:none;stroke-width:0.2645703;stroke-linecap:round;stroke-linejoin:round;stroke-miterlimit:4;stroke-dasharray:none;stroke-opacity:1;enable-background:new"
     id="path11042-7"
     cy="32.872284"
     cx="33.799385"
     r="30.161015" />
  <circle
     style="display:inline;opacity:1;fill:url(#linearGradient11065);fill-opacity:1;stroke:none;stroke-width:0.26457033;stroke-linecap:round;stroke-linejoin:round;stroke-miterlimit:4;stroke-dasharray:none;stroke-opacity:1;enable-background:new"
     id="path11042"
     r="29.631874"
     cy="32.872284"
     cx="33.799385" />
  <path
     inkscape:connector-curvature="0"
     style="display:inline;opacity:0.2;fill:#ffffff;fill-opacity:1;stroke:none;stroke-width:0.26457033;stroke-linecap:round;stroke-linejoin:round;stroke-miterlimit:4;stroke-dasharray:none;stroke-opacity:1;enable-background:new"
     d="M 33.799387,3.2404611 A 29.631875,29.631875 0 0 0 4.1675118,32.872337 H 33.799387 Z m 0,29.6318759 V 62.504212 A 29.631875,29.631875 0 0 0 63.431262,32.872337 Z"
     id="path11042-53" />
  <path
     inkscape:connector-curvature="0"
     style="display:inline;opacity:0.02000002;fill:#000000;fill-opacity:1;stroke:none;stroke-width:0.26457033;stroke-linecap:round;stroke-linejoin:round;stroke-miterlimit:4;stroke-dasharray:none;stroke-opacity:1;enable-background:new"
     d="m 54.752287,11.919437 a 29.631875,29.631875 0 0 0 -41.9058,0 l 20.9529,20.9529 z m -20.9529,20.9529 -20.9529,20.9529 a 29.631875,29.631875 0 0 0 41.9058,0 z"
     id="path11042-53-6" />
  <path
     style="display:inline;opacity:1;fill:#faf8f6;fill-opacity:1;stroke:none;stroke-width:0.26457033;stroke-linecap:round;stroke-linejoin:round;stroke-miterlimit:4;stroke-dasharray:none;stroke-opacity:1;enable-background:new"
     d="m 25.716383,4.3646501 a 29.631875,29.631875 0 0 0 -0.538049,0.182153 29.631875,29.631875 0 0 1 1.432934,-0.388233 29.631875,29.631875 0 0 0 -0.894885,0.20608 z m 2.333415,-0.537501 a 29.631875,29.631875 0 0 1 1.459703,-0.242406 29.631875,29.631875 0 0 0 -1.459703,0.242406 z m -4.269879,1.192792 a 29.631875,29.631875 0 0 0 -1.385568,0.529078 29.631875,29.631875 0 0 1 1.385568,-0.529078 z m 7.201503,-1.62203 a 29.631875,29.631875 0 0 1 1.470699,-0.09556 29.631875,29.631875 0 0 0 -1.470699,0.09556 z M 21.051754,6.158596 A 29.631875,29.631875 0 0 0 19.71991,6.826278 29.631875,29.631875 0 0 1 21.051754,6.158596 Z M 33.937932,3.2631921 a 29.631875,29.631875 0 0 1 1.477831,0.05285 29.631875,29.631875 0 0 0 -1.477831,-0.05285 z M 18.451163,7.563719 a 29.631875,29.631875 0 0 0 -1.26009,0.797712 29.631875,29.631875 0 0 1 1.26009,-0.797712 z M 36.88864,3.4242591 a 29.631875,29.631875 0 0 1 1.469153,0.200155 29.631875,29.631875 0 0 0 -1.469153,-0.200155 z M 16.000995,9.2227692 A 29.631875,29.631875 0 0 0 14.826697,10.143005 29.631875,29.631875 0 0 1 16.000995,9.2227692 Z M 39.818362,3.8803661 a 29.631875,29.631875 0 0 1 1.431579,0.343431 29.631875,29.631875 0 0 0 -1.431579,-0.343431 z M 13.301851,11.497943 a 29.631875,29.631875 0 0 0 -0.336047,0.313125 29.631875,29.631875 0 0 1 0.336047,-0.313125 z m -0.443389,0.429622 A 29.631875,29.631875 0 0 0 8.1409028,18.056091 L 33.802649,32.871908 Z m 20.944187,20.944343 20.944188,20.944341 a 29.631875,29.631875 0 0 0 4.717558,-6.128525 z M 42.681626,4.6255101 a 29.631875,29.631875 0 0 1 1.393106,0.485341 29.631875,29.631875 0 0 0 -1.393106,-0.485341 z m 2.773996,1.026918 A 29.631875,29.631875 0 0 1 46.800195,6.278095 29.631875,29.631875 0 0 0 45.455622,5.6524281 Z m 2.659249,1.2994679 a 29.631875,29.631875 0 0 1 0.486056,0.2886421 l 0.01754,-0.03038 a 29.631875,29.631875 0 0 0 -0.503593,-0.258264 z m -29.1105,51.55138 -0.01754,0.03038 a 29.631875,29.631875 0 0 0 0.503595,0.258263 29.631875,29.631875 0 0 1 -0.486056,-0.288641 z m 1.800732,0.962441 a 29.631875,29.631875 0 0 0 1.344576,0.625669 29.631875,29.631875 0 0 1 -1.344576,-0.625669 z m 2.725466,1.167244 a 29.631875,29.631875 0 0 0 1.393103,0.485341 29.631875,29.631875 0 0 1 -1.393103,-0.485341 z m 31.108926,-6.700216 a 29.631875,29.631875 0 0 1 -0.336049,0.313124 29.631875,29.631875 0 0 0 0.336049,-0.313124 z m -28.284138,7.587273 a 29.631875,29.631875 0 0 0 1.43158,0.343431 29.631875,29.631875 0 0 1 -1.43158,-0.343431 z M 52.7786,55.60081 A 29.631875,29.631875 0 0 1 51.604305,56.521044 29.631875,29.631875 0 0 0 52.7786,55.60081 Z M 29.247505,62.1194 a 29.631875,29.631875 0 0 0 1.469154,0.200155 29.631875,29.631875 0 0 1 -1.469154,-0.200155 z m 21.16672,-4.737018 a 29.631875,29.631875 0 0 1 -1.26009,0.797714 29.631875,29.631875 0 0 0 1.26009,-0.797714 z m -18.22469,5.045385 a 29.631875,29.631875 0 0 0 1.477831,0.05286 29.631875,29.631875 0 0 1 -1.477831,-0.05286 z m 15.695853,-3.510232 a 29.631875,29.631875 0 0 1 -1.331844,0.667683 29.631875,29.631875 0 0 0 1.331844,-0.667683 z m -12.732211,3.523929 a 29.631875,29.631875 0 0 0 1.470699,-0.09556 29.631875,29.631875 0 0 1 -1.470699,0.09556 z m 10.05777,-2.246671 a 29.631875,29.631875 0 0 1 -1.385567,0.529077 29.631875,29.631875 0 0 0 1.385567,-0.529077 z m -7.11515,1.964276 a 29.631875,29.631875 0 0 0 1.459703,-0.242404 29.631875,29.631875 0 0 1 -1.459703,0.242404 z m 4.331167,-0.962057 a 29.631875,29.631875 0 0 1 -1.432934,0.388231 29.631875,29.631875 0 0 0 1.432934,-0.388231 z"
     id="path11042-53-6-2"
     inkscape:connector-curvature="0" />
  <circle
     style="display:inline;opacity:1;fill:#aea795;fill-opacity:1;stroke:none;stroke-width:0.73028344;stroke-linecap:round;stroke-linejoin:round;stroke-miterlimit:4;stroke-dasharray:none;stroke-dashoffset:0;stroke-opacity:1;enable-background:new"
     id="path7147"
     cx="33.799385"
     cy="-32.872288"
     transform="scale(1,-1)"
     r="10.582812" />
  <circle
     style="display:inline;opacity:1;fill:#faf8f6;fill-opacity:1;stroke:none;stroke-width:0.68032366;stroke-linecap:round;stroke-linejoin:round;stroke-miterlimit:4;stroke-dasharray:none;stroke-dashoffset:0;stroke-opacity:1;enable-background:new"
     id="path7164"
     cx="33.799385"
     cy="32.872288"
     r="9.5245314" />
  <circle
     style="display:inline;opacity:1;fill:#4d4d4d;fill-opacity:1;stroke:none;stroke-width:0.92599607;stroke-linecap:round;stroke-linejoin:round;stroke-miterlimit:4;stroke-dasharray:none;stroke-dashoffset:0;stroke-opacity:1;enable-background:new"
     id="path7166"
     cx="33.799385"
     cy="32.872288"
     r="3.7039843" />
  <path
     style="display:inline;opacity:0.3;fill:#ffffff;fill-opacity:1;stroke:none;stroke-width:0.26457033;stroke-linecap:round;stroke-linejoin:round;stroke-miterlimit:4;stroke-dasharray:none;stroke-opacity:1;enable-background:new"
     d="M 33.799387,3.2404601 A 29.631875,29.631875 0 0 0 4.1675118,32.872334 29.631875,29.631875 0 0 0 4.1783648,33.18186 29.631875,29.631875 0 0 1 33.799387,3.7696001 29.631875,29.631875 0 0 1 63.420409,33.091949 29.631875,29.631875 0 0 0 63.431257,32.872334 29.631875,29.631875 0 0 0 33.799382,3.2404601 Z"
     id="path11042-1"
     inkscape:connector-curvature="0" />
  <path
     inkscape:connector-curvature="0"
     style="display:inline;opacity:0.2;fill:#000000;fill-opacity:1;stroke:none;stroke-width:0.26457033;stroke-linecap:round;stroke-linejoin:round;stroke-miterlimit:4;stroke-dasharray:none;stroke-opacity:1;enable-background:new"
     d="M 33.799387,62.504209 A 29.631875,29.631875 0 0 1 4.1675118,32.872334 29.631875,29.631875 0 0 1 4.1783648,32.562808 29.631875,29.631875 0 0 0 33.799387,61.975068 29.631875,29.631875 0 0 0 63.420409,32.65272 a 29.631875,29.631875 0 0 1 0.01085,0.219614 29.631875,29.631875 0 0 1 -29.631875,29.631875 z"
     id="path11042-1-7" />
  <path
     inkscape:connector-curvature="0"
     style="opacity:0.2;stroke-width:0.28681636;enable-background:new"
     d="M 34.010111,61.887742 A 29.631875,29.631875 0 0 0 63.641984,32.255861 29.631875,29.631875 0 0 0 63.631142,31.946333 29.631875,29.631875 0 0 1 34.010109,61.358596 29.631875,29.631875 0 0 1 4.3890863,32.036244 29.631875,29.631875 0 0 0 4.3782442,32.255861 29.631875,29.631875 0 0 0 34.010119,61.887742 Z"
     id="path93" />
  <g
     style="enable-background:new"
     transform="translate(-0.00171869,-229.36986)"
     id="g926">
    <path
       inkscape:connector-curvature="0"
       id="path51"
       d="m 33.536461,291.87736 a 29.633333,29.633333 0 0 1 -29.6333297,-29.63333 29.633333,29.633333 0 0 1 0.010898,-0.30954 29.633333,29.633333 0 0 0 29.6224817,29.41371 29.633333,29.633333 0 0 0 29.62248,-29.3238 29.633333,29.633333 0 0 1 0.0109,0.21963 29.633333,29.633333 0 0 1 -29.63333,29.63333 z"
       style="opacity:0.2;filter:url(#filter4407-3)" />
    <rect
       id="rect53"
       style="opacity:0.2;filter:url(#filter4407-3)"
       transform="rotate(-29.499058)"
       ry="1.999"
       rx="1.999"
       y="250.61"
       x="-105.93"
       height="26.004999"
       width="25.993999" />
    <rect
       id="rect55"
       transform="rotate(-29.499058)"
       ry="1.999"
       rx="1.999"
       y="249.36"
       x="-107.05"
       height="26.004999"
       width="25.993999"
       style="fill:#f6f5f4;filter:url(#filter4407-3)" />
    <g
       id="g67"
       transform="matrix(0.23929793,-0.13538307,0.13538308,0.23929798,0.05998471,226.85465)"
       style="fill:#7ad4fc;filter:url(#filter4407-3);enable-background:new">
      <g
         id="g65"
         transform="matrix(0.20833334,0,0,0.234375,10.666663,215.6875)"
         style="fill:#7ad4fc;enable-background:new">
        <rect
           id="rect57"
           transform="matrix(1,0,0,-1,0,300)"
           y="0"
           x="0"
           height="0"
           width="0"
           style="opacity:0.32000002;fill:#7ad4fc;stroke:#3d3d3d;stroke-width:1.81818175;stroke-linejoin:round" />
        <rect
           id="rect59"
           transform="matrix(4.1739129,0,0,3.6571428,-11.130432,-149.82858)"
           y="0"
           x="0"
           height="0"
           width="0"
           style="opacity:0.35;fill:#7ad4fc" />
        <g
           id="g63"
           transform="matrix(0.87107999,-0.43656983,0.55253384,0.87108005,-537.37449,476.68549)"
           style="fill:#7ad4fc;filter:url(#filter4407-3);enable-background:new">
          <rect
             id="rect61"
             transform="matrix(0.89560761,0.44484492,0.53220792,-0.84661368,0,0)"
             ry="0"
             rx="0"
             y="311.73001"
             x="590.5"
             height="263.966"
             width="374.289"
             style="fill:url(#linearGradient1116)" />
        </g>
      </g>
    </g>
    <rect
       id="rect69"
       style="opacity:0.2;filter:url(#filter4407-3)"
       ry="1.999"
       rx="1.999"
       y="267.92001"
       x="17.709999"
       height="26.004999"
       width="25.993999" />
    <rect
       id="rect71"
       ry="1.999"
       rx="1.999"
       y="266.87"
       x="16.66"
       height="26.004999"
       width="25.993999"
       style="fill:#f6f5f4;filter:url(#filter4407-3)" />
    <g
       id="g83"
       transform="matrix(0.27450518,0,0,0.27450523,11.93271,214.88654)"
       style="fill:#7ad4fc;filter:url(#filter4407-3);enable-background:new">
      <g
         id="g81"
         transform="matrix(0.20833334,0,0,0.234375,10.666663,215.6875)"
         style="enable-background:new">
        <rect
           id="rect73"
           transform="scale(1,-1)"
           ry="0"
           rx="0"
           y="-172"
           x="64"
           height="256"
           width="384"
           style="fill:url(#radialGradient1062-2)" />
        <rect
           id="rect75"
           transform="scale(1,-1)"
           ry="0"
           rx="0"
           y="-172"
           x="64"
           height="256"
           width="384"
           style="fill:url(#radialGradient1064-8)" />
        <rect
           id="rect77"
           transform="matrix(1,0,0,-1,0,300)"
           y="0"
           x="0"
           height="0"
           width="0"
           style="opacity:0.32000002;fill:#87bae1;fill-opacity:0;stroke:#3d3d3d;stroke-width:1.81818175;stroke-linejoin:round" />
        <rect
           id="rect79"
           transform="matrix(4.1739129,0,0,3.6571428,-11.130432,-149.82858)"
           y="0"
           x="0"
           height="0"
           width="0"
           style="opacity:0.35;fill:#1c71d8;fill-opacity:0.20331953" />
      </g>
    </g>
    <rect
       id="rect85"
       style="opacity:0.2;filter:url(#filter4407-3)"
       ry="1.999"
       rx="1.999"
       y="262.73001"
       x="2.1199999"
       height="26.004999"
       width="25.993999" />
    <rect
       id="rect87"
       ry="1.999"
       rx="1.999"
       y="261.67001"
       x="1.0599999"
       height="26.004999"
       width="25.993999"
       style="fill:#f6f5f4;filter:url(#filter4407-3)" />
    <g
       id="g91"
       transform="matrix(0.15585917,4.5239162e-5,-4.5237053e-5,0.15585917,39.230715,255.17047)"
       style="fill:#7ad4fc;filter:url(#filter4407-3);enable-background:new">
      <rect
         id="rect89"
         transform="matrix(1,-4.3668387e-5,-5.1401921e-5,1,0,0)"
         ry="0"
         rx="0"
         y="52.419998"
         x="-232.13"
         height="105.64"
         width="140.86301"
         style="fill:url(#linearGradient81638-4)" />
    </g>
  </g>
</svg>
