<svg height="256" width="256" xmlns="http://www.w3.org/2000/svg" xmlns:xlink="http://www.w3.org/1999/xlink"><linearGradient id="a"><stop offset="0" stop-color="#505050"/><stop offset=".339" stop-color="#2b2b2b"/><stop offset=".705" stop-color="#0a0a0a"/><stop offset="1"/></linearGradient><radialGradient id="b" cx="30.369" cy="306.191" gradientTransform="matrix(.01113435 9.4282978 -10.156359 .01199445 3252.4251 -66.892287)" gradientUnits="userSpaceOnUse" r="30" xlink:href="#a"/><filter id="c" color-interpolation-filters="sRGB" height="1.024" width="1.024" x="-.01" y="-.01"><feGaussianBlur stdDeviation=".607"/></filter><filter id="d" color-interpolation-filters="sRGB" height="1.097" width="1.095" x="-.05" y="-.05"><feGaussianBlur stdDeviation="2.427"/></filter><linearGradient id="e" gradientUnits="userSpaceOnUse" x1="79.354016" x2="213.146016" xlink:href="#a" y1="326.426693" y2="326.426693"/><g transform="matrix(1.8666667 0 0 1.8666667 -143.12768 -482.70284)"><path d="m134.98364 270.2971-45.089315 46.13985c-15.234503 18.8661 10.367805 16.67104 21.343085 22.10498 3.93701 4.02427-15.090191 6.99464-11.15316 11.02227 3.937 4.02427 23.80662 7.75318 27.75035 11.77747 3.937 4.02426-8.05862 8.29357-4.12161 12.31782 3.93701 4.02428 13.04281.21146 14.74784 9.50184 1.215 6.63889 16.40923 2.85291 23.84021-2.58438 3.937-4.02764-7.53167-3.64837-3.59467-7.67264 9.79049-10.012 18.90636-3.63829 22.25602-13.67043 1.65467-4.95735-14.41221-7.64244-10.46849-11.66669 11.32771-6.61539 50.47962-10.9216 31.90219-29.49903l-46.73728-47.77106c-5.71588-5.48763-15.25465-5.54805-20.67517 0zm51.79195 88.93678c0 2.28903 16.8657 3.78931 16.8657-.54038-2.40316-6.95437-14.87203-6.48449-16.8657.54038zm-75.9745 12.16341c3.99406 3.45371 10.16305-.85923 12.01239-5.67894-3.86987-5.14195-18.35591.18475-12.01239 5.67894zm73.86-7.46116c-5.14865 4.61835.57728 9.30382 5.6521 6.32001 1.13109-1.14787-.0302-5.17212-5.6521-6.32001z" fill="url(#e)" filter="url(#d)" opacity=".3"/><path d="m134.98364 270.2971-45.089315 46.13985c-15.234503 18.8661 10.367805 16.67104 21.343085 22.10498 3.93701 4.02427-15.090191 6.99464-11.15316 11.02227 3.937 4.02427 23.80662 7.75318 27.75035 11.77747 3.937 4.02426-8.05862 8.29357-4.12161 12.31782 3.93701 4.02428 13.04281.21146 14.74784 9.50184 1.215 6.63889 16.40923 2.85291 23.84021-2.58438 3.937-4.02764-7.53167-3.64837-3.59467-7.67264 9.79049-10.012 18.90636-3.63829 22.25602-13.67043 1.65467-4.95735-14.41221-7.64244-10.46849-11.66669 11.32771-6.61539 50.47962-10.9216 31.90219-29.49903l-46.73728-47.77106c-5.71588-5.48763-15.25465-5.54805-20.67517 0zm51.79195 88.93678c0 2.28903 16.8657 3.78931 16.8657-.54038-2.40316-6.95437-14.87203-6.48449-16.8657.54038zm-75.9745 12.16341c3.99406 3.45371 10.16305-.85923 12.01239-5.67894-3.86987-5.14195-18.35591.18475-12.01239 5.67894zm73.86-7.46116c-5.14865 4.61835.57728 9.30382 5.6521 6.32001 1.13109-1.14787-.0302-5.17212-5.6521-6.32001z" filter="url(#c)" opacity=".1"/><path d="m134.98364 270.2971-45.089316 46.13985c-15.234503 18.8661 10.367806 16.67104 21.343086 22.10498 3.93701 4.02427-15.090192 6.99464-11.15316 11.02227 3.937 4.02427 23.80662 7.75318 27.75035 11.77747 3.937 4.02426-8.05862 8.29357-4.12161 12.31782 3.93701 4.02428 13.04281.21146 14.74784 9.50184 1.215 6.63889 16.40923 2.85291 23.84021-2.58438 3.937-4.02764-7.53167-3.64837-3.59467-7.67264 9.79049-10.012 18.90636-3.63829 22.25602-13.67043 1.65467-4.95735-14.41221-7.64244-10.46849-11.66669 11.32771-6.61539 50.47962-10.9216 31.90219-29.49903l-46.73728-47.77106c-5.71588-5.48763-15.25465-5.54805-20.67517 0zm51.79195 88.93678c0 2.28903 16.8657 3.78931 16.8657-.54038-2.40316-6.95437-14.87203-6.48449-16.8657.54038zm-75.9745 12.16341c3.99406 3.45371 10.16305-.85923 12.01239-5.67894-3.86987-5.14195-18.35591.18475-12.01239 5.67894zm73.86-7.46116c-5.14865 4.61835.57728 9.30382 5.6521 6.32001 1.13109-1.14787-.0302-5.17212-5.6521-6.32001z" opacity=".1"/><path d="m135.1813 271.28184-44.298282 45.33038c-14.967232 18.53511 10.185912 16.37856 20.968652 21.71717 3.86794 3.95367-14.825458 6.87193-10.9575 10.8289 3.86793 3.95367 23.38897 7.61716 27.26351 11.57085 3.86793 3.95365-7.91724 8.14806-4.0493 12.10171 3.86794 3.95368 12.81399.20775 14.4891 9.33515 1.19369 6.52241 16.12135 2.80285 23.42196-2.53904 3.86793-3.95698-7.39953-3.58437-3.5316-7.53804 9.61873-9.83635 18.57467-3.57446 21.86556-13.4306 1.62564-4.87037-14.15936-7.50836-10.28483-11.46201 11.12898-6.49933 49.59401-10.72999 31.3425-28.9815l-45.91733-46.93297c-5.6156-5.39136-14.98702-5.45072-20.31244 0zm50.88332 87.37648c0 2.24888 16.56981 3.72284 16.56981-.5309-2.361-6.83236-14.61112-6.37072-16.56981.5309zm-74.64162 11.95002c3.92399 3.39312 9.98475-.84415 11.80165-5.57931-3.80198-5.05174-18.03388.18151-11.80165 5.57931zm72.56421-7.33026c-5.05832 4.53733.56716 9.14059 5.55294 6.20913 1.11125-1.12773-.0297-5.08138-5.55294-6.20913z" fill="url(#b)"/><path d="m123.50849 341.84005c1.18379.73531 19.08907 4.37244 23.46482 5.09789 1.51684.31985.44187 1.88286-1.64873 2.93804-4.71539 1.25304-27.58667-8.03593-21.81609-8.03593z" fill="#fff"/><path d="m151.74475 275.51793 17.52608 17.79977c1.66193 1.69821 1.63885 4.98909.70896 5.93546l-8.70203-6.96098-1.7114 10.30792-7.27092-3.83827-11.64338 7.35667-3.85475-15.50802-6.25531 10.82229h-9.56267c-3.89762 0-4.35597-4.94619-.81448-8.48767 6.18607-6.6774 13.28553-13.48338 17.14357-17.42717 3.87783-3.96355 10.63435-3.85145 14.43633 0z" fill="#fff"/><path d="m86.273421 325.56272c-.757521 9.01855 16.979579 8.50989 25.578259 12.76716.18793.19209.30788.3807.39447.56815.23879-.52973.15935-1.07349-.39447-1.63958-8.24262-4.08098-24.881595-3.78349-25.578259-11.69573zm119.950819.95738c-.82569 10.65169-27.2465 14.40199-36.15548 19.60484-.61516.62772-.73196 1.22198-.50433 1.79757.0977-.23729.26259-.47947.50433-.72614 9.20151-5.3737 37.08717-9.19732 36.15548-20.67627zm-105.72405 20.99749c-.23879.53006-.15936 1.07405.39446 1.64062 3.86793 3.95367 23.38829 7.61753 27.26284 11.57122.39295.40166.61824.80551.72091 1.21164.18294-.7674.016-1.52981-.72091-2.28307-3.87455-3.95369-23.39491-7.61755-27.26284-11.57122-.18806-.19238-.30788-.38148-.39446-.56919zm79.89362 9.88978c-.0149.0602-.0205.1191-.0408.17997-3.29089 9.85614-12.24616 3.59418-21.86489 13.43053-.83185.85029-.96084 1.49994-.69371 2.03613.12518-.29147.34646-.60976.69371-.96471 9.61873-9.83634 18.574-3.57438 21.86489-13.43052.14492-.43418.14636-.85018.0408-1.2514zm22.07834.31913c-1.56082 3.16948-14.38265 2.15896-16.19071.2982-.0818.20513-.15472.41606-.21659.63407 0 2.24888 16.56948 3.7222 16.56948-.53153-.0478-.13838-.10642-.26833-.16218-.40074zm-79.5609 6.94127c-2.1161 4.43171-7.76229 8.0917-11.48856 4.86956-.88021-.76236-1.34016-1.52021-1.491-2.24749-.22636 1.03449.16756 2.17266 1.491 3.31892 3.92399 3.39311 9.98556-.84381 11.80246-5.57896-.0967-.12845-.20425-.24672-.3139-.36203zm59.14202 1.70131c-.52678 3.18417 3.66454 5.36515 7.4864 3.11802.34298-.34806.46996-.96532.32122-1.68561-.0621.24725-.16841.45911-.32122.61419-3.37407 1.98383-7.03588.51533-7.4864-2.0466zm-58.66489 4.17899c-.18304.76749-.0172 1.52973.71986 2.28307 3.86794 3.95367 12.81429.20783 14.4894 9.33523 1.19369 6.52241 16.12119 2.80248 23.4218-2.53941.83183-.85098.96082-1.50059.69371-2.03718-.12517.29174-.34642.61047-.69371.96575-7.30061 5.34189-22.22811 9.06182-23.4218 2.53942-1.67511-9.12741-10.62146-5.38156-14.4894-9.33524-.3929-.40161-.61718-.80557-.71986-1.21164z" opacity=".2"/><path d="m145.22876 267.2156c-3.71048-.007-7.38508 1.34063-10.04779 4.06599l-44.297952 45.33063c-3.525879 4.36638-4.823722 7.58332-4.609029 10.02163.192413-2.29071 1.57739-5.19588 4.609029-8.9502l44.297952-45.33063c5.32543-5.45072 14.69762-5.39137 20.31322 0l45.91662 46.93359c3.16105 3.16105 4.61895 5.90008 4.81411 8.30462.20575-2.65427-1.1733-5.73524-4.81411-9.37605l-45.91662-46.93359c-2.8078-2.69568-6.55493-4.05857-10.26543-4.06599zm-32.98203 72.75356c-1.34752 2.99015-13.186255 5.49915-11.74701 8.61956 1.34789-2.99205 13.1868-5.50153 11.74701-8.61956zm57.31835 9.02448c-1.32864 3.22754 9.82846 5.66718 10.82939 9.48696.99544-3.99163-9.64104-6.48204-10.82939-9.48696zm25.30938 4.24596c-3.82386-.0966-7.76944 1.75239-8.80999 5.41887 0 .14982.0783.29589.21554.43736 2.45347-6.15852 13.58206-6.49699 16.19282-.2982.10149-.20613.16217-.42827.16217-.67069-1.10672-3.20267-4.38654-4.80208-7.76054-4.88734zm-76.64489 9.74225c-4.17355-.0387-8.91675 2.40638-8.2973 5.38121.8097-3.71437 9.69102-6.0818 12.97853-2.62416.11232-.23522.22232-.47179.3139-.71045-1.06931-1.4208-2.96308-2.02776-4.99513-2.0466zm10.64838.0303c-.67998 2.85122-6.20539 5.77724-5.49003 8.607.67972-2.85136 6.20565-5.7771 5.49003-8.607zm55.10958.26576c-1.63565 1.46718-2.1493 2.93931-1.9336 4.16329.16018-.96999.75233-2.03226 1.9336-3.09186 3.8167.7793 5.53863 2.90692 5.87298 4.52009.38688-1.55172-1.1122-4.61945-5.87298-5.59152zm-26.19353 10.84722c-.96918 2.25691 4.05638 2.8013 4.91979 4.53578.96898-2.25871-4.05639-2.80263-4.91979-4.53578z" fill="#fffafa" opacity=".3"/></g></svg>