<?xml version="1.0" encoding="UTF-8" standalone="no"?>
<svg
   xmlns:dc="http://purl.org/dc/elements/1.1/"
   xmlns:cc="http://creativecommons.org/ns#"
   xmlns:rdf="http://www.w3.org/1999/02/22-rdf-syntax-ns#"
   xmlns:svg="http://www.w3.org/2000/svg"
   xmlns="http://www.w3.org/2000/svg"
   xmlns:xlink="http://www.w3.org/1999/xlink"
   xmlns:sodipodi="http://sodipodi.sourceforge.net/DTD/sodipodi-0.dtd"
   xmlns:inkscape="http://www.inkscape.org/namespaces/inkscape"
   width="256"
   height="256"
   version="1.0"
   id="svg111"
   sodipodi:docname="intellij.svg"
   inkscape:version="0.92.3 (2405546, 2018-03-11)">
  <metadata
     id="metadata115">
    <rdf:RDF>
      <cc:Work
         rdf:about="">
        <dc:format>image/svg+xml</dc:format>
        <dc:type
           rdf:resource="http://purl.org/dc/dcmitype/StillImage" />
        <dc:title></dc:title>
      </cc:Work>
    </rdf:RDF>
  </metadata>
  <sodipodi:namedview
     pagecolor="#ffffff"
     bordercolor="#666666"
     borderopacity="1"
     objecttolerance="10"
     gridtolerance="10"
     guidetolerance="10"
     inkscape:pageopacity="0"
     inkscape:pageshadow="2"
     inkscape:window-width="1920"
     inkscape:window-height="1009"
     id="namedview113"
     showgrid="false"
     inkscape:zoom="2.668115"
     inkscape:cx="187.10629"
     inkscape:cy="126.92923"
     inkscape:window-x="0"
     inkscape:window-y="34"
     inkscape:window-maximized="1"
     inkscape:current-layer="svg111" />
  <defs
     id="defs77">
    <linearGradient
       id="a">
      <stop
         id="stop2"
         offset="0"
         stop-color="#68676b" />
      <stop
         id="stop4"
         offset=".8"
         stop-color="#424048" />
      <stop
         id="stop6"
         offset="1"
         stop-color="#241f31" />
    </linearGradient>
    <radialGradient
       id="d"
       cx="279.422"
       cy="446.483"
       r="224"
       fx="279.422"
       fy="446.483"
       gradientTransform="matrix(1.34416,6e-4,-6.2e-4,1.38763,-121.22,-718.103)"
       gradientUnits="userSpaceOnUse"
       xlink:href="#a" />
    <linearGradient
       id="e"
       x1="43.844"
       x2="-60"
       y1="234"
       y2="234"
       gradientTransform="matrix(1.0015,0,0,0.99993,-9.2659322,149.30314)"
       gradientUnits="userSpaceOnUse"
       xlink:href="#b" />
    <linearGradient
       id="b">
      <stop
         id="stop11"
         offset="0"
         stop-color="#d5d3cf" />
      <stop
         id="stop13"
         offset=".038"
         stop-color="#e3e2df" />
      <stop
         id="stop15"
         offset=".077"
         stop-color="#c0bfbc" />
      <stop
         id="stop17"
         offset=".923"
         stop-color="#c0bfbc" />
      <stop
         id="stop19"
         offset=".962"
         stop-color="#e3e2df" />
      <stop
         id="stop21"
         offset="1"
         stop-color="#d5d3cf" />
    </linearGradient>
    <linearGradient
       id="linearGradient1007"
       x1="160.305"
       x2="161.33"
       y1="240.139"
       y2="135.579"
       gradientTransform="matrix(0.54625232,0,0,0.54625232,-6.0941965,-68.413544)"
       gradientUnits="userSpaceOnUse"
       xlink:href="#linearGradient1018" />
    <linearGradient
       id="linearGradient1018">
      <stop
         id="stop2-3"
         offset="0"
         style="stop-color:#37a6e6" />
      <stop
         id="stop4-6"
         offset="1"
         style="stop-color:#1a7fd4" />
    </linearGradient>
    <linearGradient
       id="linearGradient1108"
       x1="296"
       x2="296"
       y1="-212"
       y2="202.4"
       gradientUnits="userSpaceOnUse"
       xlink:href="#linearGradient1013" />
    <linearGradient
       id="linearGradient1013">
      <stop
         id="stop1005"
         offset="0"
         style="stop-color:#ffffff" />
      <stop
         style="stop-color:#ffffff;stop-opacity:0.09803922"
         id="stop1007"
         offset=".135" />
      <stop
         style="stop-color:#ffffff;stop-opacity:0"
         id="stop1009"
         offset="1" />
    </linearGradient>
    <clipPath
       id="clipPath1082-3"
       clipPathUnits="userSpaceOnUse">
      <path
         style="fill:#8c59d9"
         d="M 361.9375,-212 C 507.2348,-212 528,-191.28677 528,-46.125 V 70.125 C 528,215.28618 507.2348,236 361.9375,236 H 214.0625 C 68.7652,236 48,215.28618 48,70.125 V -46.125 C 48,-191.28677 68.7652,-212 214.0625,-212 Z"
         id="path24" />
    </clipPath>
    <linearGradient
       id="linearGradient4358"
       x1="88"
       x2="488"
       y1="88"
       y2="488"
       gradientUnits="userSpaceOnUse"
       xlink:href="#linearGradient4360" />
    <linearGradient
       id="linearGradient4360">
      <stop
         id="stop4362"
         offset="0"
         style="stop-color:#000000;stop-opacity:0.58823532" />
      <stop
         id="stop4366"
         offset="1"
         style="stop-color:#000000;stop-opacity:0.20555556" />
    </linearGradient>
    <filter
       style="color-interpolation-filters:sRGB"
       id="filter4380"
       width="1.106"
       height="1.088"
       x="-.05"
       y="-.04">
      <feGaussianBlur
         id="feGaussianBlur4382"
         stdDeviation="8.48" />
    </filter>
    <filter
       style="color-interpolation-filters:sRGB"
       id="filter4346"
       width="1.026"
       height="1.022"
       x="-.01"
       y="-.01">
      <feGaussianBlur
         id="feGaussianBlur4348"
         stdDeviation="2.12" />
    </filter>
    <linearGradient
       id="linear-gradient"
       x1="25.113"
       x2="55.876"
       y1="24.242"
       y2="24.242"
       gradientUnits="userSpaceOnUse">
      <stop
         id="stop2-36"
         offset="0"
         stop-color="#21d789" />
      <stop
         id="stop4-7"
         offset="1"
         stop-color="#07c3f2" />
    </linearGradient>
    <linearGradient
       id="linear-gradient-2"
       x1="-17.865"
       x2="57.823"
       y1="49.244"
       y2="-6.628"
       gradientTransform="matrix(4.3370796,0,0,4.3370796,-11.363459,-11.994123)"
       gradientUnits="userSpaceOnUse">
      <stop
         id="stop7"
         offset=".011"
         stop-color="#fcf84a" />
      <stop
         id="stop9"
         offset=".112"
         stop-color="#a7eb62" />
      <stop
         id="stop11-5"
         offset=".206"
         stop-color="#5fe077" />
      <stop
         id="stop13-3"
         offset=".273"
         stop-color="#32da84" />
      <stop
         id="stop15-5"
         offset=".306"
         stop-color="#21d789" />
      <stop
         id="stop17-6"
         offset=".577"
         stop-color="#21d789" />
      <stop
         id="stop19-2"
         offset=".597"
         stop-color="#21d789" />
      <stop
         id="stop21-9"
         offset=".686"
         stop-color="#20d68c" />
      <stop
         id="stop23"
         offset=".763"
         stop-color="#1ed497" />
      <stop
         id="stop25"
         offset=".835"
         stop-color="#19d1a9" />
      <stop
         id="stop27"
         offset=".904"
         stop-color="#13ccc2" />
      <stop
         id="stop29"
         offset=".971"
         stop-color="#0bc6e1" />
      <stop
         id="stop31"
         offset="1"
         stop-color="#07c3f2" />
    </linearGradient>
    <linearGradient
       id="linear-gradient-3"
       x1="13.35"
       x2="25.987"
       y1="71.201"
       y2="31.544"
       gradientUnits="userSpaceOnUse">
      <stop
         id="stop34"
         offset="0"
         stop-color="#21d789" />
      <stop
         id="stop36"
         offset=".164"
         stop-color="#24d788" />
      <stop
         id="stop38"
         offset=".305"
         stop-color="#2fd886" />
      <stop
         id="stop40"
         offset=".437"
         stop-color="#41da82" />
      <stop
         id="stop42"
         offset=".564"
         stop-color="#5adc7d" />
      <stop
         id="stop44"
         offset=".688"
         stop-color="#7ae077" />
      <stop
         id="stop46"
         offset=".809"
         stop-color="#a1e36e" />
      <stop
         id="stop48"
         offset=".925"
         stop-color="#cfe865" />
      <stop
         id="stop50"
         offset="1"
         stop-color="#f1eb5e" />
    </linearGradient>
    <linearGradient
       id="linear-gradient-4"
       x1="27.244"
       x2="48.149"
       y1="33.668"
       y2="5.561"
       gradientUnits="userSpaceOnUse">
      <stop
         id="stop53"
         offset="0"
         stop-color="#21d789" />
      <stop
         id="stop55"
         offset=".061"
         stop-color="#24d788" />
      <stop
         id="stop57"
         offset=".113"
         stop-color="#2fd886" />
      <stop
         id="stop59"
         offset=".162"
         stop-color="#41da82" />
      <stop
         id="stop61"
         offset=".209"
         stop-color="#5add7d" />
      <stop
         id="stop63"
         offset=".255"
         stop-color="#79e077" />
      <stop
         id="stop65"
         offset=".258"
         stop-color="#7ce076" />
      <stop
         id="stop67"
         offset=".499"
         stop-color="#8ce173" />
      <stop
         id="stop69"
         offset=".925"
         stop-color="#b2e56b" />
    </linearGradient>
    <linearGradient
       id="linear-gradient-5"
       x1="62.688"
       x2="13.302"
       y1="37.731"
       y2="37.273"
       gradientUnits="userSpaceOnUse">
      <stop
         id="stop72"
         offset=".387"
         stop-color="#fcf84a" />
      <stop
         id="stop74"
         offset=".536"
         stop-color="#ecf451" />
      <stop
         id="stop76"
         offset=".826"
         stop-color="#c2e964" />
      <stop
         id="stop78"
         offset=".925"
         stop-color="#b2e56b" />
    </linearGradient>
    <radialGradient
       xlink:href="#a"
       gradientUnits="userSpaceOnUse"
       gradientTransform="matrix(1.34416 .0006 -.00062 1.38763 -121.22 -718.103)"
       fy="446.483"
       fx="279.422"
       r="224"
       cy="446.483"
       cx="279.422"
       id="d-5" />
  </defs>
  <path
     style="opacity:0.1;filter:url(#filter4346)"
     d="M 141.84323,74 C 71.24979,74 63.65402,81.250835 64,151.98706 V 298 444.01294 C 63.65402,514.74917 71.24979,522 141.84323,522 H 434.15677 C 504.75021,522 513.9371,514.72348 512,444.01294 V 298 151.98706 C 512,81.249993 504.75021,74 434.15677,74 Z"
     transform="matrix(0.5,0,0,0.5,-16.116488,-20.825537)"
     id="path79" />
  <path
     style="opacity:0.3;fill:url(#linearGradient4358);filter:url(#filter4380)"
     d="M 141.84323,74 C 71.24979,74 63.65402,81.250835 64,151.98706 V 298 444.01294 C 63.65402,514.74917 71.24979,522 141.84323,522 H 434.15677 C 504.75021,522 513.9371,514.72348 512,444.01294 V 298 151.98706 C 512,81.249993 504.75021,74 434.15677,74 Z"
     transform="matrix(0.5,0,0,0.5,-16.116488,-20.825235)"
     id="path81" />
  <path
     style="opacity:0.2"
     d="m 53.695112,13.174464 c -36.098811,0 -39.983002,3.690159 -39.80608,39.689839 v 74.310167 74.31016 c -0.176922,35.99969 3.707269,39.68984 39.80608,39.68984 H 202.08243 c 36.09881,0 40.77464,-3.70276 39.80608,-39.68984 V 127.17447 52.864303 c 0,-36.00011 -3.70727,-39.689839 -39.80608,-39.689839 z"
     id="path83" />
  <g
     id="g972"
     transform="matrix(2.1538461,0,0,2.1538461,-240.29488,-213.11321)">
    <g
       id="g57"
       transform="translate(-2.4502856e-7,-135.50781)">
      <g
         transform="matrix(2.5214371,0,0,2.5214371,-13.559471,218.13527)"
         id="g864">
        <path
           style="fill:#fb7c38;fill-opacity:1;stroke-width:5.64947844"
           d="M 15.880859 106.50586 L 15.880859 127.17188 L 15.880859 127.17383 L 15.880859 173.07422 L 75.154297 191.79492 L 124.98633 127.75391 L 15.880859 106.50586 z "
           id="path830"
           transform="matrix(0.18413536,0,0,0.18413536,49.62446,6.4716908)" />
        <path
           style="fill:#37a6e6;fill-opacity:1;stroke-width:5.64947844"
           d="M 114.10938 239.17383 L 200.95898 239.17383 C 206.47325 239.17383 211.21911 239.08493 215.30078 238.80078 L 215.30273 238.80078 C 216.11848 238.74398 216.90831 238.67882 217.67188 238.60547 C 219.96355 238.38542 222.02528 238.087 223.87695 237.6875 L 223.87891 237.6875 C 225.42236 237.35442 226.82149 236.95034 228.08789 236.46289 C 229.35429 235.97544 230.48795 235.40461 231.50391 234.73633 C 232.31668 234.2017 233.05321 233.60537 233.7207 232.93945 C 234.38819 232.27353 234.98582 231.5375 235.52148 230.72656 C 235.78931 230.32108 236.04198 229.89753 236.2793 229.45312 C 236.5167 229.00883 236.73864 228.54343 236.94727 228.05859 C 237.15591 227.57374 237.35152 227.06994 237.5332 226.54297 C 237.71476 226.01586 237.8829 225.46756 238.03906 224.89648 C 238.35171 223.75469 238.61514 222.52174 238.83594 221.19336 C 239.05675 219.86498 239.2344 218.44042 239.37695 216.91211 C 239.66238 213.85601 239.8055 210.38518 239.85938 206.44727 L 239.85938 206.44531 C 239.88628 204.47592 239.89166 202.3902 239.88086 200.17969 L 239.88086 162.80469 L 239.88086 161.05469 L 239.88086 127.17383 L 239.88086 127.17188 L 239.88086 73.144531 L 175.52148 127.75391 L 114.10938 239.17383 z "
           id="path832"
           transform="matrix(0.18413536,0,0,0.18413536,49.62446,6.4716908)" />
        <path
           style="fill:#2f5fdd;fill-opacity:1;stroke-width:5.64947844"
           d="M 239.88086 77.822266 L 239.88086 54.166016 C 239.90786 48.638844 239.83837 43.888727 239.56641 39.804688 C 239.51211 38.987974 239.44823 38.1997 239.37695 37.435547 C 239.2344 35.90724 239.05675 34.480725 238.83594 33.152344 C 238.61514 31.823963 238.35171 30.59345 238.03906 29.451172 C 237.88273 28.879446 237.71499 28.330384 237.5332 27.802734 C 237.35172 27.276176 237.15564 26.771459 236.94727 26.287109 C 236.94727 26.287109 236.94727 26.285156 236.94727 26.285156 C 236.73864 25.80031 236.51663 25.336991 236.2793 24.892578 C 236.04165 24.447791 235.78964 24.02306 235.52148 23.617188 C 235.25365 23.211716 234.96972 22.82711 234.66992 22.458984 C 234.07033 21.722646 233.40596 21.057303 232.66797 20.458984 C 232.66797 20.458984 232.66602 20.458984 232.66602 20.458984 C 231.74296 19.710785 230.70775 19.06614 229.54492 18.509766 C 228.3821 17.953392 227.09165 17.48529 225.66211 17.09375 C 224.51854 16.780166 223.28432 16.514143 221.95508 16.291016 C 221.29046 16.179452 220.60225 16.07992 219.88867 15.988281 C 219.17513 15.896671 218.43601 15.813609 217.67188 15.740234 C 216.14347 15.593409 214.51224 15.480588 212.77148 15.396484 C 211.03072 15.312374 209.18126 15.257782 207.21484 15.222656 C 205.24842 15.187526 203.16503 15.171875 200.95898 15.171875 L 192.76758 15.171875 L 192.76758 15.173828 L 168.94531 15.173828 L 168.94727 15.171875 L 117.05078 15.171875 L 142.76367 53.349609 L 173.77734 156.73828 L 239.88086 77.822266 z "
           id="path1018"
           transform="matrix(0.18413536,0,0,0.18413536,49.62446,6.4716908)" />
        <path
           style="fill:#8c59d9;fill-opacity:1;stroke-width:5.64947844"
           d="M 15.880859 167.04883 L 15.880859 177.04492 L 15.880859 200.17969 C 15.880859 204.60075 15.937404 208.52575 16.105469 212.00977 C 16.273533 215.49378 16.552361 218.53656 16.998047 221.19336 C 17.443732 223.85016 18.05581 226.12113 18.888672 228.06055 C 19.305103 229.03026 19.77678 229.91756 20.310547 230.72852 C 20.844314 231.53947 21.440671 232.27352 22.105469 232.93945 C 22.770266 233.60539 23.50493 234.20364 24.314453 234.73828 C 25.123976 235.27292 26.00862 235.74503 26.976562 236.16211 C 28.912447 236.99626 31.178348 237.60842 33.830078 238.05469 C 36.481808 238.50095 39.518963 238.781 42.996094 238.94922 C 46.473225 239.11744 50.390646 239.17383 54.802734 239.17383 L 118.53125 239.17383 L 189.81445 102.71289 L 69.578125 121.31641 L 15.880859 167.04883 z "
           id="path836"
           transform="matrix(0.18413536,0,0,0.18413536,49.62446,6.4716908)" />
        <path
           style="fill:#f22c42;fill-opacity:1;stroke-width:5.64947844"
           d="M 120.80469 15.171875 L 54.800781 15.171875 C 50.388691 15.171875 46.473224 15.228284 42.996094 15.396484 C 41.257534 15.480584 39.628916 15.593406 38.103516 15.740234 C 37.243236 15.822994 36.422823 15.921241 35.626953 16.027344 C 35.012273 16.109334 34.407628 16.193824 33.830078 16.291016 C 33.167148 16.402575 32.527859 16.524839 31.912109 16.658203 C 30.236659 17.02079 28.747077 17.476706 27.398438 18.023438 C 27.260527 18.079338 27.109279 18.127532 26.974609 18.185547 C 25.765084 18.706828 24.683776 19.315568 23.71875 20.023438 C 22.753724 20.731307 21.904983 21.538307 21.158203 22.458984 C 20.859293 22.827111 20.577427 23.211718 20.310547 23.617188 L 20.310547 23.619141 C 20.211487 23.769681 20.124127 23.935954 20.029297 24.091797 C 19.695997 24.639365 19.388919 25.220741 19.105469 25.835938 C 19.035319 25.988249 18.955912 26.128575 18.888672 26.285156 L 18.888672 26.287109 C 18.680722 26.771458 18.485958 27.276177 18.304688 27.802734 C 17.805582 29.252296 17.404801 30.864788 17.083984 32.658203 C 16.763168 34.451618 16.521953 36.426538 16.34375 38.599609 C 15.987345 42.945753 15.880859 48.08643 15.880859 54.166016 L 15.880859 117.00781 L 69.578125 121.31641 L 189.81445 102.71289 L 120.80469 15.171875 z "
           id="path1006"
           transform="matrix(0.18413536,0,0,0.18413536,49.62446,6.4716908)" />
      </g>
    </g>
  </g>
  <path
     d="m 185.03094,39.676569 c 27.5749,0 30.54193,2.832291 30.40678,30.462961 v 57.03494 57.03493 c 0.13515,27.63067 -2.83188,30.46296 -30.40678,30.46296 H 70.848721 c -27.574896,0 -30.406781,-2.83197 -30.406781,-30.46296 V 127.17447 70.13953 c 0,-27.630999 2.831885,-30.462961 30.406781,-30.462961 z"
     style="fill:#2d2d2d"
     id="path97" />
  <g
     transform="translate(-0.62784704,5.971281)"
     id="g105">
    <rect
       width="65.056"
       height="10.409"
       x="59.18"
       y="179.32"
       style="fill:#ffffff"
       id="rect103" />
  </g>
  <path
     style="opacity:0.2"
     d="M 40.441406 182.20898 L 40.441406 184.20898 C 40.441406 211.83997 43.274713 214.67188 70.849609 214.67188 L 185.03125 214.67188 C 212.60615 214.67188 215.57265 211.83965 215.4375 184.20898 L 215.4375 182.20898 C 215.57265 209.83965 212.60615 212.67188 185.03125 212.67188 L 70.849609 212.67188 C 43.274713 212.67188 40.441406 209.83997 40.441406 182.20898 z"
     id="path109" />
  <g
     transform="matrix(5.4307875,0,0,5.4307875,-262.00655,-19.209381)"
     id="g870">
    <path
       style="fill:#ffffff;stroke-width:6.96942568"
       d="M 61.724609,62.986328 V 76.052734 H 72.177734 V 121.35547 H 61.724609 v 13.06641 H 96.570312 V 121.35547 H 87.224609 V 76.052734 h 9.345703 V 62.986328 Z m 78.406251,0 V 109.1582 c 0,4.3559 -1.74338,12.19727 -9.58398,12.19727 -6.09825,0 -11.03921,-5.20064 -12.81641,-7.16602 l -9.83399,11.1875 c 2.64141,3.13624 9.58273,10.78711 22.6504,10.78711 7.8406,0 16.37815,-3.83233 20.0371,-8.71094 5.22707,-6.96942 5.22657,-13.94599 5.22657,-18.29492 V 62.986328 Z"
       transform="matrix(0.18413536,0,0,0.18413536,47.54043,4.1830475)"
       id="path844"
       inkscape:connector-curvature="0" />
  </g>
  <path
     style="opacity:0.3;fill:#ffffff"
     d="m 54.805392,15.174464 c -35.296728,0 -39.09487,3.626029 -38.92188,38.994139 v 2 c -0.17299,-35.36811 3.625152,-38.99414 38.92188,-38.99414 H 200.96163 c 35.29673,0 38.92188,3.62561 38.92188,38.99414 v -2 c 0,-35.36853 -3.62515,-38.994139 -38.92188,-38.994139 z"
     id="path93" />
  <path
     style="fill:#ffffff;opacity:0.3"
     d="M 70.849609 39.675781 C 43.274713 39.675781 40.441406 42.507673 40.441406 70.138672 L 40.441406 72.138672 C 40.441406 44.507673 43.274713 41.675781 70.849609 41.675781 L 185.03125 41.675781 C 212.60615 41.675781 215.57265 44.508002 215.4375 72.138672 L 215.4375 70.138672 C 215.57265 42.508002 212.60615 39.675781 185.03125 39.675781 L 70.849609 39.675781 z"
     id="path107" />
  <path
     style="opacity:0.2"
     d="m 54.810792,239.17447 c -35.296731,0 -39.094875,-3.62603 -38.921885,-38.99414 v -2 c -0.17299,35.36811 3.625154,38.99414 38.921885,38.99414 H 200.96703 c 35.29673,0 38.92188,-3.62561 38.92188,-38.99414 v 2 c 0,35.36853 -3.62515,38.99414 -38.92188,38.99414 z"
     id="path95" />
</svg>
