<?xml version="1.0" encoding="UTF-8" standalone="no"?>
<svg
   xmlns:dc="http://purl.org/dc/elements/1.1/"
   xmlns:cc="http://creativecommons.org/ns#"
   xmlns:rdf="http://www.w3.org/1999/02/22-rdf-syntax-ns#"
   xmlns:svg="http://www.w3.org/2000/svg"
   xmlns="http://www.w3.org/2000/svg"
   xmlns:xlink="http://www.w3.org/1999/xlink"
   xmlns:sodipodi="http://sodipodi.sourceforge.net/DTD/sodipodi-0.dtd"
   xmlns:inkscape="http://www.inkscape.org/namespaces/inkscape"
   width="256"
   height="256"
   version="1.0"
   id="svg154"
   sodipodi:docname="javaws.svg"
   inkscape:version="0.92.3 (2405546, 2018-03-11)">
  <metadata
     id="metadata158">
    <rdf:RDF>
      <cc:Work
         rdf:about="">
        <dc:format>image/svg+xml</dc:format>
        <dc:type
           rdf:resource="http://purl.org/dc/dcmitype/StillImage" />
      </cc:Work>
    </rdf:RDF>
  </metadata>
  <sodipodi:namedview
     pagecolor="#ffffff"
     bordercolor="#666666"
     borderopacity="1"
     objecttolerance="10"
     gridtolerance="10"
     guidetolerance="10"
     inkscape:pageopacity="0"
     inkscape:pageshadow="2"
     inkscape:window-width="1920"
     inkscape:window-height="1009"
     id="namedview156"
     showgrid="false"
     inkscape:zoom="3.2617188"
     inkscape:cx="-101.4452"
     inkscape:cy="128"
     inkscape:window-x="0"
     inkscape:window-y="34"
     inkscape:window-maximized="1"
     inkscape:current-layer="g130" />
  <defs
     id="defs46">
    <linearGradient
       id="a">
      <stop
         id="stop2"
         offset="0"
         stop-color="#68676b" />
      <stop
         id="stop4"
         offset=".8"
         stop-color="#424048" />
      <stop
         id="stop6"
         offset="1"
         stop-color="#241f31" />
    </linearGradient>
    <radialGradient
       id="d"
       cx="279.422"
       cy="446.483"
       r="224"
       fx="279.422"
       fy="446.483"
       gradientTransform="matrix(1.34416,6e-4,-6.2e-4,1.38763,-121.22,-718.103)"
       gradientUnits="userSpaceOnUse"
       xlink:href="#a" />
    <linearGradient
       id="e"
       x1="43.844"
       x2="-60"
       y1="234"
       y2="234"
       gradientTransform="matrix(1.0015,0,0,0.99993,72.09,56.015)"
       gradientUnits="userSpaceOnUse"
       xlink:href="#b" />
    <linearGradient
       id="b">
      <stop
         id="stop11"
         offset="0"
         stop-color="#d5d3cf" />
      <stop
         id="stop13"
         offset=".038"
         stop-color="#e3e2df" />
      <stop
         id="stop15"
         offset=".077"
         stop-color="#c0bfbc" />
      <stop
         id="stop17"
         offset=".923"
         stop-color="#c0bfbc" />
      <stop
         id="stop19"
         offset=".962"
         stop-color="#e3e2df" />
      <stop
         id="stop21"
         offset="1"
         stop-color="#d5d3cf" />
    </linearGradient>
    <linearGradient
       id="linearGradient1007"
       x1="160.305"
       x2="161.33"
       y1="240.139"
       y2="135.579"
       gradientTransform="matrix(0.54625232,0,0,0.54625232,-6.0941965,-68.413544)"
       gradientUnits="userSpaceOnUse"
       xlink:href="#linearGradient1018" />
    <linearGradient
       id="linearGradient1018">
      <stop
         id="stop2-3"
         offset="0"
         style="stop-color:#37a6e6" />
      <stop
         id="stop4-6"
         offset="1"
         style="stop-color:#1a7fd4" />
    </linearGradient>
    <clipPath
       id="clipPath1082-3"
       clipPathUnits="userSpaceOnUse">
      <path
         d="M 361.9375,-212 C 507.2348,-212 528,-191.28677 528,-46.125 V 70.125 C 528,215.28618 507.2348,236 361.9375,236 H 214.0625 C 68.7652,236 48,215.28618 48,70.125 V -46.125 C 48,-191.28677 68.7652,-212 214.0625,-212 Z"
         style="fill:#8c59d9"
         id="path19" />
    </clipPath>
    <linearGradient
       id="linearGradient4358"
       x1="88"
       x2="488"
       y1="88"
       y2="488"
       gradientUnits="userSpaceOnUse"
       xlink:href="#linearGradient4360" />
    <linearGradient
       id="linearGradient4360">
      <stop
         id="stop4362"
         offset="0"
         style="stop-color:#000000;stop-opacity:0.58823532" />
      <stop
         id="stop4366"
         offset="1"
         style="stop-color:#000000;stop-opacity:0.20555556" />
    </linearGradient>
    <filter
       style="color-interpolation-filters:sRGB"
       id="filter4380"
       width="1.106"
       height="1.088"
       x="-.05"
       y="-.04">
      <feGaussianBlur
         id="feGaussianBlur4382"
         stdDeviation="8.48" />
    </filter>
    <filter
       style="color-interpolation-filters:sRGB"
       id="filter4346"
       width="1.026"
       height="1.022"
       x="-.01"
       y="-.01">
      <feGaussianBlur
         id="feGaussianBlur4348"
         stdDeviation="2.12" />
    </filter>
    <radialGradient
       id="SVGID_1_"
       cx="173.588"
       cy="130.215"
       r="65.523"
       gradientTransform="translate(-431.12529,73.925223)"
       gradientUnits="userSpaceOnUse">
      <stop
         style="stop-color:#FBC8B4"
         id="stop10"
         offset="0" />
      <stop
         style="stop-color:#ED1C24"
         id="stop12"
         offset="1" />
    </radialGradient>
    <radialGradient
       id="SVGID_1_-3"
       cx="86.63"
       cy="167.069"
       r="54.715"
       gradientUnits="userSpaceOnUse">
      <stop
         style="stop-color:#FFFFFF"
         id="stop14"
         offset="0" />
      <stop
         style="stop-color:#FBC8B4"
         id="stop16"
         offset=".06" />
      <stop
         style="stop-color:#FBC3B0"
         id="stop18"
         offset=".071" />
      <stop
         style="stop-color:#F7978B"
         id="stop20"
         offset=".183" />
      <stop
         style="stop-color:#F4716B"
         id="stop22"
         offset=".299" />
      <stop
         style="stop-color:#F15251"
         id="stop24"
         offset=".42" />
      <stop
         style="stop-color:#EF3A3D"
         id="stop26"
         offset=".545" />
      <stop
         style="stop-color:#EE292F"
         id="stop28"
         offset=".678" />
      <stop
         style="stop-color:#ED1F27"
         id="stop30"
         offset=".822" />
      <stop
         style="stop-color:#ED1C24"
         id="stop32"
         offset="1" />
    </radialGradient>
    <filter
       style="color-interpolation-filters:sRGB"
       id="filter1657"
       width="1.102"
       height="1.091"
       x="-.05"
       y="-.04">
      <feGaussianBlur
         id="feGaussianBlur1659"
         stdDeviation="7.806" />
    </filter>
    <linearGradient
       id="linearGradient4106"
       x1="224"
       x2="224"
       y1="86"
       y2="478"
       gradientTransform="matrix(0.45314729,0,0,0.45314729,-306.92096,16.636739)"
       gradientUnits="userSpaceOnUse"
       xlink:href="#linearGradient3602" />
    <linearGradient
       id="linearGradient3602">
      <stop
         style="stop-color:#f3994a"
         id="stop3597"
         offset="0" />
      <stop
         style="stop-color:#f6b069"
         id="stop3599"
         offset="1" />
    </linearGradient>
  </defs>
  <g
     id="g152">
    <path
       d="M 141.84323,74 C 71.24979,74 63.65402,81.250835 64,151.98706 V 298 444.01294 C 63.65402,514.74917 71.24979,522 141.84323,522 H 434.15677 C 504.75021,522 513.9371,514.72348 512,444.01294 V 298 151.98706 C 512,81.249993 504.75021,74 434.15677,74 Z"
       transform="matrix(0.5,0,0,0.5,-16.116488,-20.825537)"
       style="opacity:0.1;filter:url(#filter4346)"
       id="path48" />
    <path
       style="opacity:0.3;fill:url(#linearGradient4358);filter:url(#filter4380)"
       d="M 141.84323,74 C 71.24979,74 63.65402,81.250835 64,151.98706 V 298 444.01294 C 63.65402,514.74917 71.24979,522 141.84323,522 H 434.15677 C 504.75021,522 513.9371,514.72348 512,444.01294 V 298 151.98706 C 512,81.249993 504.75021,74 434.15677,74 Z"
       transform="matrix(0.5,0,0,0.5,-16.116488,-20.825235)"
       id="path50" />
    <path
       d="m 53.695112,13.174464 c -36.098811,0 -39.983002,3.690159 -39.80608,39.689839 v 74.310167 74.31016 c -0.176922,35.99969 3.707269,39.68984 39.80608,39.68984 H 202.08243 c 36.09881,0 40.77464,-3.70276 39.80608,-39.68984 V 127.17447 52.864303 c 0,-36.00011 -3.70727,-39.689839 -39.80608,-39.689839 z"
       style="opacity:0.2"
       id="path52" />
    <path
       d="m 200.95649,15.174464 c 35.29673,0 39.09461,3.625419 38.92162,38.993529 v 73.006477 73.00647 c 0.17299,35.36812 -3.62489,38.99353 -38.92162,38.99353 H 54.799732 c -35.296716,0 -38.921616,-3.625 -38.921616,-38.99353 V 127.17447 54.167993 c 0,-35.36853 3.6249,-38.993529 38.921616,-38.993529 z"
       style="fill:#fb7c38;fill-opacity:1"
       id="path54" />
    <path
       d="m 54.805392,15.174464 c -35.296728,0 -39.09487,3.626029 -38.92188,38.994139 v 2 c -0.17299,-35.36811 3.625152,-38.99414 38.92188,-38.99414 H 200.96163 c 35.29673,0 38.92188,3.62561 38.92188,38.99414 v -2 c 0,-35.36853 -3.62515,-38.994139 -38.92188,-38.994139 z"
       style="opacity:0.3;fill:#ffffff"
       id="path56" />
    <path
       d="m 54.810792,239.17447 c -35.296731,0 -39.094875,-3.62603 -38.921885,-38.99414 v -2 c -0.17299,35.36811 3.625154,38.99414 38.921885,38.99414 H 200.96703 c 35.29673,0 38.92188,-3.62561 38.92188,-38.99414 v 2 c 0,35.36853 -3.62515,38.99414 -38.92188,38.99414 z"
       style="opacity:0.2"
       id="path58" />
    <g
       transform="translate(3.677419,1.8863343)"
       id="g150">
      <g
         transform="matrix(0.49090931,0,0,0.49090931,68.746142,25.287853)"
         id="g148">
        <path
           style="fill:none"
           d="m 139.162,172.181 c -1.95,-18.251 -19.12,-25.421 -35.661,-23.168 -13.889,1.893 -32.403,13.613 -34.107,28.64 -1.921,16.937 11.402,32.522 28.361,33.203 15.03,0.604 31.176,-6.668 37.93,-20.79 2.73,-5.704 3.797,-11.578 3.477,-17.885"
           id="path105" />
        <radialGradient
           id="radialGradient896"
           cx="86.63"
           cy="167.069"
           r="54.715"
           gradientUnits="userSpaceOnUse">
          <stop
             id="stop876"
             offset="0"
             style="stop-color:#FFFFFF" />
          <stop
             id="stop878"
             offset=".06"
             style="stop-color:#FBC8B4" />
          <stop
             id="stop880"
             offset=".071"
             style="stop-color:#FBC3B0" />
          <stop
             id="stop882"
             offset=".183"
             style="stop-color:#F7978B" />
          <stop
             id="stop884"
             offset=".299"
             style="stop-color:#F4716B" />
          <stop
             id="stop886"
             offset=".42"
             style="stop-color:#F15251" />
          <stop
             id="stop888"
             offset=".545"
             style="stop-color:#EF3A3D" />
          <stop
             id="stop890"
             offset=".678"
             style="stop-color:#EE292F" />
          <stop
             id="stop892"
             offset=".822"
             style="stop-color:#ED1F27" />
          <stop
             id="stop894"
             offset="1"
             style="stop-color:#ED1C24" />
        </radialGradient>
        <g
           transform="matrix(0.75000002,0,0,0.75000002,24.618764,-6.2921033)"
           id="g130">
          <path
             style="clip-rule:evenodd;fill:#3c3c3c;fill-rule:evenodd"
             d="m 92.731477,46.651253 c 4.13542,8.65964 1.34313,69.135737 -3.499199,90.343017 -4.842329,21.24263 -9.684659,48.24657 -10.815713,70.9737 -0.494837,9.68466 0.989672,13.50197 7.316512,13.50197 11.16917,0 25.342703,-23.54008 43.121473,-23.0099 17.81412,0.53018 23.4694,27.00394 31.81093,26.82721 8.34153,-0.17672 15.05717,-3.07505 15.12786,-28.8419 C 176.04076,119.53312 111.57062,57.183713 92.731477,46.651253 Z"
             transform="matrix(2.0370361,0,0,2.0370361,-140.03837,-51.51227)"
             id="path118" />
          <path
             style="clip-rule:evenodd;fill:#3c3c3c;fill-rule:evenodd"
             d="m 148.64802,108.11702 c 3.92334,6.6096 13.92611,1.51985 14.35026,-5.93804 0.42414,-7.457889 -0.67157,-16.859787 -5.51389,-17.213237 -4.84233,-0.35346 -8.30619,-5.19579 -13.14852,-5.54924 -4.84233,-0.35346 -10.03811,4.48887 -12.30022,-1.944 -2.26211,-6.43288 6.07942,-9.15448 12.30022,-10.1795 -5.54924,-5.54924 -8.80102,-11.69935 -11.23986,-18.09688 -2.43884,-6.39753 -4.24146,-12.26488 2.58022,-14.77441 6.82168,-2.50953 6.25615,10.39157 14.0675,16.29427 -2.29746,-8.69499 -3.14575,-12.30023 -2.96902,-17.35463 0.17672,-5.0544 -0.17673,-8.90706 6.9984,-7.91739 7.17513,0.98968 4.06473,15.90547 9.64931,21.98489 1.69659,-5.76132 2.72161,-13.07783 6.82168,-16.08219 4.10008,-3.00437 13.43128,-3.07506 7.49324,9.26051 -5.93804,12.33557 1.73193,19.01586 -0.0707,28.73587 -1.80262,9.72 -7.3872,7.95273 -9.7907,14.20888 -2.40349,6.25615 1.41383,20.500367 -3.1104,26.897897 -4.52422,6.39753 -5.33716,16.22357 -2.40349,24.07027 -9.01309,-8.41223 -13.71404,-26.40307 -13.71404,-26.40307 v 0 0 z"
             transform="matrix(2.0370361,0,0,2.0370361,-140.03837,-51.51227)"
             id="path120" />
          <path
             style="clip-rule:evenodd;fill:#3c3c3c;fill-rule:evenodd"
             d="m 92.484067,116.4232 c -3.640589,24.95391 -16.294267,27.92293 -16.930485,38.27915 -0.636219,10.35622 3.357819,11.3459 3.110401,20.92452 -0.247418,9.57862 -8.765677,13.46662 -9.790695,18.66241 -1.025019,5.19578 4.382838,6.85702 7.528585,6.85702 3.145746,0 6.291493,-13.78474 7.56393,-22.55041 1.272437,-8.76568 -4.170765,-13.92612 -4.170765,-19.93485 0,-6.00873 7.88204,-17.00117 6.432875,-7.35186 6.538914,-10.32087 9.649804,-23.46988 6.256154,-34.88598 z"
             transform="matrix(2.0370361,0,0,2.0370361,-140.03837,-51.51227)"
             id="path122" />
          <path
             d="m 97.362227,125.93065 c -2.75695,13.50197 -19.97019,88.89385 -11.204514,89.84818 8.765674,0.95433 21.242627,-23.32801 41.672317,-23.15128 20.46502,0.17673 28.52379,27.21601 33.5075,27.03928 4.98371,-0.17672 8.27085,1.76728 8.80103,-28.70052 0.53018,-30.46779 -18.06154,-69.38316 -29.05398,-86.52571 -14.91628,0.95433 -30.96313,12.90159 -43.722353,21.49005 z"
             transform="matrix(2.0370361,0,0,2.0370361,-140.03837,-51.51227)"
             style="clip-rule:evenodd;fill:#ffffff;fill-rule:evenodd"
             id="path124" />
          <path
             style="color:#000000;font-style:normal;font-variant:normal;font-weight:normal;font-stretch:normal;font-size:medium;line-height:normal;font-family:sans-serif;font-variant-ligatures:normal;font-variant-position:normal;font-variant-caps:normal;font-variant-numeric:normal;font-variant-alternates:normal;font-feature-settings:normal;text-indent:0;text-align:start;text-decoration:none;text-decoration-line:none;text-decoration-style:solid;text-decoration-color:#000000;letter-spacing:normal;word-spacing:normal;text-transform:none;writing-mode:lr-tb;direction:ltr;text-orientation:mixed;dominant-baseline:auto;baseline-shift:baseline;text-anchor:start;white-space:normal;shape-padding:0;clip-rule:nonzero;display:inline;overflow:visible;visibility:visible;opacity:1;isolation:auto;mix-blend-mode:normal;color-interpolation:sRGB;color-interpolation-filters:linearRGB;solid-color:#000000;solid-opacity:1;vector-effect:none;fill-opacity:1;fill-rule:nonzero;stroke:none;stroke-width:1;stroke-linecap:butt;stroke-linejoin:miter;stroke-miterlimit:4;stroke-dasharray:none;stroke-dashoffset:0;stroke-opacity:1;color-rendering:auto;image-rendering:auto;shape-rendering:auto;text-rendering:auto;enable-background:accumulate;fill:#f22c42"
             d="m 110.16992,139.91016 c -14.302415,-0.11818 -28.89909,6.94401 -38.744139,16.78906 -12.697218,12.69722 -13.208337,30.42971 -4.33789,45.43945 8.800981,14.89389 28.20886,19.77695 44.107419,16.06836 21.72222,-5.06542 37.79858,-24.08916 36.38477,-46.70508 l -0.4961,0.0312 0.4961,-0.0488 c -1.68362,-17.41871 -14.65608,-28.406 -31.31446,-31.07227 -2.0165,-0.32279 -4.0525,-0.48507 -6.0957,-0.50195 z"
             id="path126"
             inkscape:connector-curvature="0"
             sodipodi:nodetypes="cscccccccc" />
          <path
             style="color:#000000;font-style:normal;font-variant:normal;font-weight:normal;font-stretch:normal;font-size:medium;line-height:normal;font-family:sans-serif;font-variant-ligatures:normal;font-variant-position:normal;font-variant-caps:normal;font-variant-numeric:normal;font-variant-alternates:normal;font-feature-settings:normal;text-indent:0;text-align:start;text-decoration:none;text-decoration-line:none;text-decoration-style:solid;text-decoration-color:#000000;letter-spacing:normal;word-spacing:normal;text-transform:none;writing-mode:lr-tb;direction:ltr;text-orientation:mixed;dominant-baseline:auto;baseline-shift:baseline;text-anchor:start;white-space:normal;shape-padding:0;clip-rule:nonzero;display:inline;overflow:visible;visibility:visible;opacity:0.3;isolation:auto;mix-blend-mode:normal;color-interpolation:sRGB;color-interpolation-filters:linearRGB;solid-color:#000000;solid-opacity:1;vector-effect:none;fill:#ffffff;fill-opacity:1;fill-rule:nonzero;stroke:none;stroke-width:0.368182;stroke-linecap:butt;stroke-linejoin:miter;stroke-miterlimit:4;stroke-dasharray:none;stroke-dashoffset:0;stroke-opacity:1;color-rendering:auto;image-rendering:auto;shape-rendering:auto;text-rendering:auto;enable-background:accumulate"
             d="M 125.07227 75.597656 C 119.80637 75.554145 114.43141 78.154527 110.80664 81.779297 C 107.94608 84.63986 106.77246 88.19464 107.03516 91.789062 C 107.26543 88.894356 108.47866 86.107273 110.80664 83.779297 C 114.43141 80.154527 119.80637 77.554145 125.07227 77.597656 C 125.82454 77.603871 126.57397 77.664358 127.31641 77.783203 C 133.43123 78.761916 138.19492 82.786339 138.83789 89.166016 C 138.87464 88.528544 138.8867 87.884256 138.8457 87.228516 L 138.66211 87.240234 L 138.8457 87.222656 C 138.22582 80.809401 133.44972 76.764876 127.31641 75.783203 C 126.57397 75.664358 125.82454 75.603871 125.07227 75.597656 z M 138.83398 89.224609 L 138.66211 89.240234 L 138.83203 89.228516 C 138.83211 89.227164 138.8339 89.225961 138.83398 89.224609 z "
             transform="matrix(2.7160481,0,0,2.7160481,-229.53089,-65.416929)"
             id="path2009" />
          <path
             style="color:#000000;font-style:normal;font-variant:normal;font-weight:normal;font-stretch:normal;font-size:medium;line-height:normal;font-family:sans-serif;font-variant-ligatures:normal;font-variant-position:normal;font-variant-caps:normal;font-variant-numeric:normal;font-variant-alternates:normal;font-feature-settings:normal;text-indent:0;text-align:start;text-decoration:none;text-decoration-line:none;text-decoration-style:solid;text-decoration-color:#000000;letter-spacing:normal;word-spacing:normal;text-transform:none;writing-mode:lr-tb;direction:ltr;text-orientation:mixed;dominant-baseline:auto;baseline-shift:baseline;text-anchor:start;white-space:normal;shape-padding:0;clip-rule:nonzero;display:inline;overflow:visible;visibility:visible;opacity:0.2;isolation:auto;mix-blend-mode:normal;color-interpolation:sRGB;color-interpolation-filters:linearRGB;solid-color:#000000;solid-opacity:1;vector-effect:none;fill:#000000;fill-opacity:1;fill-rule:nonzero;stroke:none;stroke-width:0.368182;stroke-linecap:butt;stroke-linejoin:miter;stroke-miterlimit:4;stroke-dasharray:none;stroke-dashoffset:0;stroke-opacity:1;color-rendering:auto;image-rendering:auto;shape-rendering:auto;text-rendering:auto;enable-background:accumulate"
             d="M 138.83789 87.166016 C 138.83676 87.185629 138.83519 87.205015 138.83398 87.224609 L 138.8457 87.222656 C 138.84383 87.20332 138.83984 87.185309 138.83789 87.166016 z M 138.83203 87.228516 C 138.37435 94.657126 132.79641 100.71249 125.44922 102.42578 C 119.59566 103.79122 112.44935 101.99343 109.20898 96.509766 C 107.94147 94.365001 107.20177 92.068841 107.03516 89.789062 C 106.80301 92.707313 107.5694 95.735416 109.20898 98.509766 C 112.44935 103.99343 119.59566 105.79122 125.44922 104.42578 C 133.44695 102.56078 139.36624 95.55529 138.8457 87.228516 L 138.83203 87.228516 z "
             transform="matrix(2.7160481,0,0,2.7160481,-229.53089,-65.416929)"
             id="path2015" />
          <path
             style="clip-rule:evenodd;fill:#000000;fill-opacity:1;fill-rule:evenodd;stroke-width:2.03703618;opacity:0.2"
             d="m 206.53028,333.25782 c -1.10128,61.65671 -7.78889,57.73875 -17.91954,58.09798 -10.15201,0.36001 -26.56862,-54.71954 -68.25662,-55.07956 -41.616022,-0.35998 -67.031116,49.10352 -84.887123,47.15951 -3.282561,-0.35738 -4.763785,-5.86629 -4.981178,-14.74727 -0.300503,12.05319 1.070802,19.75365 4.981178,20.17936 17.856007,1.94401 43.271101,-47.51949 84.887123,-47.1595 41.688,0.36001 58.10461,55.43957 68.25662,55.07955 10.152,-0.35998 16.85018,3.60002 17.93016,-58.46399 0.0291,-1.67472 0.0159,-3.36752 -0.0106,-5.06608 z"
             id="path2020"
             inkscape:connector-curvature="0" />
        </g>
        <g
           transform="translate(15.526784)"
           id="g146"
           style="fill:#faf8f6;fill-opacity:1">
          <path
             style="fill:#faf8f6;fill-opacity:1;stroke-width:0.49090931"
             d="M 50.75 178.41992 C 41.689735 178.317 37.880859 187.24816 37.880859 198.13281 C 37.880859 209.01745 41.689735 217.83594 50.75 217.83594 C 59.810269 217.83594 63.609375 209.01745 63.609375 198.13281 C 63.609375 187.24816 59.810269 178.52284 50.75 178.41992 z M 169.7168 178.62695 L 158.28906 178.72656 L 158.28906 217.32227 L 170.33789 217.32227 C 170.33789 217.32227 173.66728 216.96401 175.17383 216.29492 C 176.99254 215.4872 178.6554 214.25099 180.00977 212.79297 C 181.65557 211.02121 182.99542 208.88913 183.81836 206.61523 C 184.8915 203.64997 185.07148 200.40249 185.15039 197.25 C 185.21595 194.63258 185.12805 191.95698 184.42969 189.43359 C 183.90174 187.52597 183.0761 185.64821 181.86328 184.08398 C 180.81902 182.73714 179.44256 181.60674 177.94727 180.78906 C 176.11938 179.78952 174.01048 179.38462 171.97656 178.93359 C 171.23293 178.76869 169.7168 178.62695 169.7168 178.62695 z M 191.01953 178.67773 L 191.01953 217.32227 L 198.5332 217.32227 L 198.5332 200.13477 L 208.41211 217.32227 L 217.88086 217.32227 L 204.70703 196.32812 L 217.26367 178.67773 L 208.51562 178.67773 L 198.5332 195.19531 L 198.5332 178.67773 L 191.01953 178.67773 z M 142.75195 178.83203 L 142.64844 216.39648 C 142.64844 216.39648 142.6517 218.04919 142.44336 218.83984 C 142.17153 219.87144 141.65504 220.83368 141.10547 221.74805 C 140.63891 222.52431 139.45898 223.9082 139.45898 223.9082 L 143.57617 227.30469 C 143.57617 227.30469 145.21095 225.90669 145.96875 225.14453 C 146.6497 224.45967 147.34004 223.7704 147.89844 222.98242 C 148.5554 222.05537 149.15448 221.06509 149.54492 219.99805 C 150.0258 218.68388 150.39753 216.65578 150.36719 215.88086 L 150.36719 178.83203 L 142.75195 178.83203 z M 50.75 181.92383 C 55.903847 181.92383 58.773437 187.3282 58.773438 198.13281 C 58.773438 208.93742 55.800929 214.3418 50.75 214.3418 C 45.699071 214.3418 42.716797 209.14325 42.716797 198.13281 C 42.716797 187.12236 45.596153 181.92383 50.75 181.92383 z M 169.92383 185.00195 C 169.92383 185.00195 171.99946 185.73557 172.9043 186.34375 C 173.77023 186.92578 174.57435 187.65192 175.17383 188.50586 C 175.90631 189.54928 176.39565 190.77308 176.71289 192.00781 C 177.20136 193.90898 177.20602 195.90829 177.22656 197.87109 C 177.24816 199.93387 177.30967 202.04482 176.82031 204.04883 C 176.53609 205.21287 176.0356 206.3324 175.38086 207.33594 C 174.74408 208.31194 173.98143 209.26382 173.01172 209.91016 C 172.00937 210.57825 169.61719 211.14453 169.61719 211.14453 L 165.69922 211.14453 L 165.69922 185.11133 L 169.92383 185.00195 z M 129.41016 188.46094 C 128.73123 188.45333 128.04562 188.55049 127.39258 188.72266 C 126.66848 188.91357 125.99811 189.2855 125.35547 189.66992 C 124.73094 190.04349 124.18929 190.54342 123.60742 190.98047 C 123.14984 191.32416 122.23633 192.01172 122.23633 192.01172 L 122.26172 188.86914 L 118.15039 188.86914 L 118.15039 217.03125 L 122.26172 217.03125 L 122.26172 195.27344 C 122.26172 195.27344 123.6449 194.04539 124.4082 193.52734 C 125.18997 192.99678 125.96491 192.36836 126.88281 192.14453 C 127.63732 191.96055 128.48942 191.92949 129.21094 192.2168 C 129.75369 192.43292 130.13862 192.93961 130.52148 193.38086 C 130.87035 193.78292 131.20043 194.22115 131.4043 194.71289 C 131.77125 195.59802 132.04055 196.82696 131.97656 197.5293 L 131.97656 217.03125 L 136.19727 217.03125 L 136.19727 196.29102 C 136.22991 195.81033 135.7699 194.00891 135.32422 192.94531 C 134.95746 192.07008 134.49036 191.21397 133.86523 190.5 C 133.41764 189.9888 132.86506 189.55598 132.26758 189.23242 C 131.59304 188.86713 130.84553 188.59802 130.08398 188.50586 C 129.8605 188.47882 129.63646 188.46347 129.41016 188.46094 z M 102.375 188.50586 C 100.68021 188.55899 98.957729 189.18375 97.576172 190.1543 C 96.194978 191.12458 95.18204 192.63202 94.486328 194.16992 C 93.679394 195.9537 93.552048 197.98608 93.351562 199.93359 C 93.129975 202.08602 93.123084 204.258 93.28125 206.41602 C 93.420428 208.31469 93.478525 210.28948 94.171875 212.0625 C 94.667406 213.32964 95.460071 214.51656 96.441406 215.45898 C 97.397753 216.37739 98.559395 217.17082 99.835938 217.5293 C 101.71852 218.05798 103.77023 217.84956 105.69922 217.5293 C 107.16541 217.28587 108.58914 216.74575 109.92188 216.08789 C 110.47644 215.81415 111.46094 215.0625 111.46094 215.0625 L 110.33594 212.69336 C 110.33594 212.69336 108.00895 213.91617 106.73438 214.13477 C 105.07623 214.41915 103.24947 214.56238 101.69141 213.92773 C 100.4091 213.40543 99.360202 212.3028 98.601562 211.14453 C 97.888295 210.05554 97.577666 208.72834 97.369141 207.44336 C 97.165818 206.19045 97.369141 203.63477 97.369141 203.63477 L 111.36328 203.63477 C 111.36328 203.63477 111.54884 197.98969 110.84961 195.29492 C 110.41027 193.60176 109.88231 191.73628 108.58008 190.56836 C 107.03735 189.18477 104.79083 188.53462 102.71875 188.50586 C 102.6062 188.5039 102.48799 188.50242 102.375 188.50586 z M 80.294922 188.60547 C 78.811685 188.64818 77.34258 189.29218 76.0625 190.04492 C 75.19956 190.55237 73.875 192.10742 73.875 192.10742 L 73.875 188.96484 L 69.677734 188.96484 L 69.677734 227.10156 L 73.875 227.10156 L 73.875 217.73633 C 73.875 217.73633 77.891278 217.93068 79.763672 217.32227 C 81.610435 216.72217 83.390511 215.6598 84.707031 214.23242 C 86.17379 212.64215 87.08616 210.54885 87.6875 208.4707 C 88.357424 206.1555 88.366077 203.67517 88.310547 201.26562 C 88.256327 198.91315 88.241583 196.46031 87.382812 194.26953 C 86.754032 192.66557 85.764976 191.09909 84.402344 190.04492 C 83.328953 189.2145 81.948428 188.64188 80.591797 188.60547 C 80.492824 188.60301 80.3938 188.60301 80.294922 188.60547 z M 102.73633 191.47656 C 103.28181 191.46213 103.8432 191.60013 104.32031 191.85547 C 105.01597 192.22777 105.55375 192.87788 105.99609 193.53125 C 106.61752 194.44911 107.0387 195.5094 107.31055 196.58398 C 107.6391 197.88274 107.66992 200.58203 107.66992 200.58203 L 97.189453 200.58203 C 97.189453 200.58203 97.281353 198.43671 97.486328 197.38477 C 97.646307 196.56376 97.827265 195.72573 98.207031 194.98047 C 98.663003 194.08567 99.237583 193.20878 100.02539 192.58594 C 100.73254 192.02688 101.60585 191.58443 102.50195 191.48633 C 102.57876 191.47813 102.65839 191.47838 102.73633 191.47656 z M 79.222656 192.19727 C 79.301842 192.19771 79.377342 192.19986 79.457031 192.20703 C 80.376507 192.29518 81.172017 192.99629 81.826172 193.64844 C 82.709505 194.52907 83.406878 195.65332 83.779297 196.84375 C 84.323028 198.58177 84.089017 200.47188 84.085938 202.29297 C 84.083242 204.01132 84.134303 205.76208 83.779297 207.44336 C 83.454163 208.98335 83.052675 210.58807 82.132812 211.86523 C 81.334371 212.97384 80.231649 213.98666 78.943359 214.44141 C 77.972878 214.78397 76.869016 214.61996 75.855469 214.44141 C 75.163442 214.31949 73.875 213.7207 73.875 213.7207 L 73.875 195.08789 C 73.875 195.08789 75.124314 193.95664 75.855469 193.54883 C 76.904158 192.9639 78.035233 192.1907 79.222656 192.19727 z "
             transform="matrix(2.0370361,0,0,2.0370361,-163.05619,-55.354801)"
             id="path132" />
          <path
             style="fill:#ffffff;fill-opacity:1;stroke-width:0.49090931;opacity:0.3"
             d="M 50.75 178.41992 C 41.689735 178.317 37.880859 187.24816 37.880859 198.13281 C 37.880859 198.47031 37.894977 198.79948 37.902344 199.13281 C 38.132569 188.70965 41.970668 180.32019 50.75 180.41992 C 59.529063 180.51965 63.358018 188.7219 63.587891 199.13281 C 63.595239 198.79948 63.609375 198.47031 63.609375 198.13281 C 63.609375 187.24816 59.810269 178.52284 50.75 178.41992 z M 169.7168 178.62695 L 158.28906 178.72656 L 158.28906 180.72656 L 169.7168 180.62695 C 169.7168 180.62695 171.23293 180.7687 171.97656 180.93359 C 174.01048 181.38463 176.11937 181.78952 177.94727 182.78906 C 179.44256 183.60675 180.81902 184.73715 181.86328 186.08398 C 183.0761 187.64822 183.90173 189.52597 184.42969 191.43359 C 184.92961 193.23995 185.11043 195.1246 185.15234 197.00977 C 185.20643 194.46887 185.10676 191.88008 184.42969 189.43359 C 183.90174 187.52597 183.0761 185.64821 181.86328 184.08398 C 180.81902 182.73714 179.44256 181.60674 177.94727 180.78906 C 176.11938 179.78952 174.01048 179.38462 171.97656 178.93359 C 171.23293 178.76869 169.7168 178.62695 169.7168 178.62695 z M 191.01953 178.67773 L 191.01953 180.67773 L 198.5332 180.67773 L 198.5332 178.67773 L 191.01953 178.67773 z M 208.51562 178.67773 L 198.5332 195.19531 L 198.5332 197.19531 L 208.51562 180.67773 L 215.8418 180.67773 L 217.26367 178.67773 L 208.51562 178.67773 z M 142.75195 178.83203 L 142.64844 216.39648 C 142.64844 216.39648 142.6517 218.04919 142.44336 218.83984 C 142.17153 219.87144 141.65504 220.83368 141.10547 221.74805 C 140.63891 222.52431 139.45898 223.9082 139.45898 223.9082 L 140.42578 224.70508 C 140.68553 224.36658 140.94044 224.02263 141.10547 223.74805 C 141.65504 222.83368 142.17153 221.87144 142.44336 220.83984 C 142.65187 220.04919 142.64844 218.39648 142.64844 218.39648 L 142.75195 180.83203 L 150.36719 180.83203 L 150.36719 178.83203 L 142.75195 178.83203 z M 129.41016 188.46094 C 128.73123 188.45333 128.04562 188.55049 127.39258 188.72266 C 126.66848 188.91357 125.99811 189.2855 125.35547 189.66992 C 124.73094 190.04349 124.18929 190.54342 123.60742 190.98047 C 123.15505 191.32025 122.27234 191.98466 122.25195 192 L 122.23633 194.01172 C 122.23633 194.01172 123.14984 193.32416 123.60742 192.98047 C 124.18929 192.54342 124.73094 192.04349 125.35547 191.66992 C 125.99811 191.2855 126.66848 190.91357 127.39258 190.72266 C 128.04562 190.55049 128.73123 190.45333 129.41016 190.46094 C 129.63646 190.46349 129.86051 190.47881 130.08398 190.50586 C 130.84554 190.59802 131.59303 190.86713 132.26758 191.23242 C 132.86505 191.55599 133.41764 191.9888 133.86523 192.5 C 134.49036 193.21397 134.95746 194.07009 135.32422 194.94531 C 135.7699 196.00891 136.22991 197.81032 136.19727 198.29102 L 136.19727 196.29102 C 136.22991 195.81033 135.7699 194.00891 135.32422 192.94531 C 134.95746 192.07008 134.49036 191.21397 133.86523 190.5 C 133.41764 189.9888 132.86506 189.55598 132.26758 189.23242 C 131.59304 188.86713 130.84553 188.59802 130.08398 188.50586 C 129.8605 188.47882 129.63646 188.46347 129.41016 188.46094 z M 102.375 188.50586 C 100.68021 188.55899 98.957729 189.18375 97.576172 190.1543 C 96.194978 191.12458 95.18204 192.63202 94.486328 194.16992 C 93.679394 195.9537 93.552048 197.98608 93.351562 199.93359 C 93.192771 201.47604 93.149913 203.02793 93.193359 204.57812 C 93.215615 203.69477 93.26106 202.81271 93.351562 201.93359 C 93.552048 199.98608 93.679394 197.9537 94.486328 196.16992 C 95.18204 194.63202 96.194978 193.12458 97.576172 192.1543 C 98.957729 191.18375 100.68021 190.55899 102.375 190.50586 C 102.48799 190.50242 102.6062 190.5039 102.71875 190.50586 C 104.79083 190.53462 107.03735 191.18477 108.58008 192.56836 C 109.88231 193.73628 110.41027 195.60177 110.84961 197.29492 C 111.25144 198.84353 111.35248 201.27657 111.37305 203.14258 C 111.39943 201.97127 111.45571 197.63076 110.84961 195.29492 C 110.41027 193.60176 109.88231 191.73628 108.58008 190.56836 C 107.03735 189.18477 104.79083 188.53462 102.71875 188.50586 C 102.6062 188.5039 102.48799 188.50242 102.375 188.50586 z M 80.294922 188.60547 C 78.811685 188.64818 77.34258 189.29218 76.0625 190.04492 C 75.19956 190.55237 73.875 192.10742 73.875 192.10742 L 73.875 194.10742 C 73.875 194.10742 75.19956 192.55237 76.0625 192.04492 C 77.34258 191.29219 78.811685 190.64818 80.294922 190.60547 C 80.3938 190.60301 80.492824 190.60301 80.591797 190.60547 C 81.948428 190.64188 83.328953 191.2145 84.402344 192.04492 C 85.764976 193.0991 86.754032 194.66557 87.382812 196.26953 C 88.241583 198.46031 88.256327 200.91316 88.310547 203.26562 C 88.31298 203.37121 88.312317 203.47815 88.314453 203.58398 C 88.329155 202.80893 88.328253 202.03394 88.310547 201.26562 C 88.256327 198.91316 88.241583 196.46031 87.382812 194.26953 C 86.754033 192.66557 85.764976 191.09909 84.402344 190.04492 C 83.328953 189.2145 81.948428 188.64188 80.591797 188.60547 C 80.492824 188.60301 80.3938 188.60301 80.294922 188.60547 z M 118.15039 188.86914 L 118.15039 190.86914 L 122.24609 190.86914 L 122.26172 188.86914 L 118.15039 188.86914 z M 69.677734 188.96484 L 69.677734 190.96484 L 73.875 190.96484 L 73.875 188.96484 L 69.677734 188.96484 z M 205.37305 197.39062 L 204.70703 198.32812 L 216.625 217.32227 L 217.88086 217.32227 L 205.37305 197.39062 z M 42.734375 199.10352 C 42.728414 199.44632 42.716797 199.77796 42.716797 200.13281 C 42.716797 211.14325 45.699071 216.3418 50.75 216.3418 C 55.800929 216.3418 58.773438 210.93742 58.773438 200.13281 C 58.773437 199.77871 58.762003 199.44602 58.755859 199.10352 C 58.578617 209.25067 55.644814 214.3418 50.75 214.3418 C 45.85259 214.3418 42.909334 209.4373 42.734375 199.10352 z M 177.22852 200.125 C 177.21125 201.44936 177.13229 202.77121 176.82031 204.04883 C 176.53609 205.21287 176.0356 206.3324 175.38086 207.33594 C 174.74408 208.31194 173.98143 209.26382 173.01172 209.91016 C 172.00937 210.57825 169.61719 211.14453 169.61719 211.14453 L 165.69922 211.14453 L 165.69922 213.14453 L 169.61719 213.14453 C 169.61719 213.14453 172.00937 212.57825 173.01172 211.91016 C 173.98143 211.26382 174.74408 210.31193 175.38086 209.33594 C 176.0356 208.3324 176.5361 207.21287 176.82031 206.04883 C 177.28967 204.12674 177.25142 202.10698 177.22852 200.125 z M 97.332031 200.58203 C 97.237712 201.56021 97.189453 202.58203 97.189453 202.58203 L 107.66992 202.58203 C 107.66992 202.58203 107.6515 201.62521 107.57422 200.58203 L 97.332031 200.58203 z M 84.109375 201.05859 C 84.09685 201.47088 84.086627 201.88512 84.085938 202.29297 C 84.083242 204.01132 84.134303 205.76208 83.779297 207.44336 C 83.454163 208.98335 83.052675 210.58807 82.132812 211.86523 C 81.334372 212.97384 80.231649 213.98666 78.943359 214.44141 C 77.972878 214.78397 76.869016 214.61996 75.855469 214.44141 C 75.163442 214.31949 73.875 213.7207 73.875 213.7207 L 73.875 215.7207 C 73.875 215.7207 75.163442 216.31949 75.855469 216.44141 C 76.869016 216.61996 77.972878 216.78397 78.943359 216.44141 C 80.231649 215.98666 81.334372 214.97385 82.132812 213.86523 C 83.052676 212.58807 83.454163 210.98335 83.779297 209.44336 C 84.134303 207.76208 84.083242 206.01132 84.085938 204.29297 C 84.087747 203.22287 84.152748 202.1315 84.109375 201.05859 z M 97.3125 206.70312 C 97.27057 207.56192 97.241579 208.6573 97.369141 209.44336 C 97.577666 210.72834 97.888296 212.05554 98.601562 213.14453 C 99.360202 214.3028 100.4091 215.40544 101.69141 215.92773 C 103.24947 216.56239 105.07623 216.41914 106.73438 216.13477 C 108.00894 215.91616 110.33594 214.69336 110.33594 214.69336 L 110.75 215.56641 C 111.13301 215.30259 111.46094 215.0625 111.46094 215.0625 L 110.33594 212.69336 C 110.33594 212.69336 108.00894 213.91617 106.73438 214.13477 C 105.07623 214.41915 103.24947 214.56238 101.69141 213.92773 C 100.4091 213.40543 99.360202 212.3028 98.601562 211.14453 C 97.888296 210.05554 97.577666 208.72834 97.369141 207.44336 C 97.335637 207.2369 97.32665 206.96307 97.3125 206.70312 z "
             transform="matrix(2.0370361,0,0,2.0370361,-163.05619,-55.354801)"
             id="path1966" />
          <path
             style="fill:#000000;fill-opacity:1;stroke-width:0.49090931;opacity:0.2"
             d="M 215.8418 178.67773 L 204.70703 194.32812 L 205.37305 195.39062 L 217.26367 178.67773 L 215.8418 178.67773 z M 50.75 179.92383 C 45.596153 179.92383 42.716797 185.12236 42.716797 196.13281 C 42.716797 196.46747 42.728891 196.77958 42.734375 197.10352 C 42.913381 186.80985 45.762255 181.92383 50.75 181.92383 C 55.734936 181.92383 58.574537 186.99539 58.755859 197.10352 C 58.761512 196.77988 58.773438 196.46676 58.773438 196.13281 C 58.773437 185.3282 55.903847 179.92383 50.75 179.92383 z M 169.92383 183.00195 L 165.69922 183.11133 L 165.69922 185.11133 L 169.92383 185.00195 C 169.92383 185.00195 171.99946 185.73557 172.9043 186.34375 C 173.77023 186.92578 174.57435 187.65192 175.17383 188.50586 C 175.90631 189.54928 176.39565 190.77308 176.71289 192.00781 C 177.20136 193.90898 177.20602 195.90829 177.22656 197.87109 C 177.22745 197.95542 177.22754 198.04052 177.22852 198.125 C 177.23833 197.37203 177.23439 196.61879 177.22656 195.87109 C 177.20602 193.9083 177.20136 191.90898 176.71289 190.00781 C 176.39565 188.77308 175.9063 187.54928 175.17383 186.50586 C 174.57434 185.65192 173.77023 184.92578 172.9043 184.34375 C 171.99946 183.73557 169.92383 183.00195 169.92383 183.00195 z M 122.24609 188.86914 L 122.23633 190.01172 C 122.23633 190.01172 122.25172 190.00018 122.25195 190 L 122.26172 188.86914 L 122.24609 188.86914 z M 102.73633 189.47656 C 102.65839 189.47838 102.57876 189.47813 102.50195 189.48633 C 101.60585 189.58443 100.73254 190.02688 100.02539 190.58594 C 99.237584 191.20878 98.663004 192.08567 98.207031 192.98047 C 97.827265 193.72573 97.646307 194.56375 97.486328 195.38477 C 97.281353 196.43671 97.189453 198.58203 97.189453 198.58203 L 97.332031 198.58203 C 97.374507 198.14152 97.422682 197.7114 97.486328 197.38477 C 97.646307 196.56376 97.827265 195.72573 98.207031 194.98047 C 98.663003 194.08567 99.237584 193.20878 100.02539 192.58594 C 100.73254 192.02688 101.60585 191.58443 102.50195 191.48633 C 102.57876 191.47813 102.65839 191.47838 102.73633 191.47656 C 103.28181 191.46213 103.8432 191.60013 104.32031 191.85547 C 105.01597 192.22777 105.55375 192.87788 105.99609 193.53125 C 106.61752 194.44911 107.0387 195.5094 107.31055 196.58398 C 107.44431 197.11277 107.52114 197.86563 107.57422 198.58203 L 107.66992 198.58203 C 107.66992 198.58203 107.6391 195.88274 107.31055 194.58398 C 107.0387 193.5094 106.61752 192.44911 105.99609 191.53125 C 105.55375 190.87788 105.01597 190.22776 104.32031 189.85547 C 103.8432 189.60013 103.28181 189.46213 102.73633 189.47656 z M 128.05859 190.00391 C 127.66106 189.99875 127.26007 190.05254 126.88281 190.14453 C 125.96491 190.36836 125.18997 190.99678 124.4082 191.52734 C 123.6449 192.0454 122.26172 193.27344 122.26172 193.27344 L 122.26172 195.27344 C 122.26172 195.27344 123.6449 194.04539 124.4082 193.52734 C 125.18997 192.99678 125.96491 192.36836 126.88281 192.14453 C 127.63732 191.96055 128.48942 191.92949 129.21094 192.2168 C 129.75369 192.43292 130.13862 192.93961 130.52148 193.38086 C 130.87035 193.78292 131.20043 194.22115 131.4043 194.71289 C 131.77125 195.59802 132.04055 196.82696 131.97656 197.5293 L 131.97656 195.5293 C 132.04055 194.82696 131.77125 193.59802 131.4043 192.71289 C 131.20043 192.22115 130.87035 191.78292 130.52148 191.38086 C 130.13862 190.93961 129.75369 190.43291 129.21094 190.2168 C 128.85018 190.07314 128.45612 190.00906 128.05859 190.00391 z M 79.222656 190.19727 C 78.035233 190.1907 76.904158 190.9639 75.855469 191.54883 C 75.124314 191.95664 73.875 193.08789 73.875 193.08789 L 73.875 195.08789 C 73.875 195.08789 75.124314 193.95664 75.855469 193.54883 C 76.904158 192.9639 78.035233 192.1907 79.222656 192.19727 C 79.301842 192.19771 79.377342 192.19986 79.457031 192.20703 C 80.376507 192.29518 81.172017 192.99629 81.826172 193.64844 C 82.709505 194.52907 83.406878 195.65332 83.779297 196.84375 C 84.003522 197.56048 84.078937 198.30564 84.109375 199.05859 C 84.152775 197.62996 84.201256 196.19253 83.779297 194.84375 C 83.406878 193.65332 82.709505 192.52906 81.826172 191.64844 C 81.172017 190.99629 80.376507 190.29518 79.457031 190.20703 C 79.377342 190.19972 79.301842 190.19771 79.222656 190.19727 z M 185.15234 195.00977 C 185.15064 195.08964 185.15239 195.17023 185.15039 195.25 C 185.07148 198.40249 184.8915 201.64998 183.81836 204.61523 C 182.99542 206.88914 181.65556 209.02121 180.00977 210.79297 C 178.6554 212.25099 176.99253 213.4872 175.17383 214.29492 C 173.66728 214.96401 170.33789 215.32227 170.33789 215.32227 L 158.28906 215.32227 L 158.28906 217.32227 L 170.33789 217.32227 C 170.33789 217.32227 173.66728 216.96401 175.17383 216.29492 C 176.99254 215.4872 178.6554 214.25099 180.00977 212.79297 C 181.65557 211.02121 182.99542 208.88913 183.81836 206.61523 C 184.8915 203.64997 185.07148 200.40249 185.15039 197.25 C 185.16902 196.50624 185.16898 195.75809 185.15234 195.00977 z M 37.902344 197.13281 C 37.894977 197.46635 37.880859 197.79531 37.880859 198.13281 C 37.880859 209.01745 41.689735 217.83594 50.75 217.83594 C 59.810269 217.83594 63.609375 209.01745 63.609375 198.13281 C 63.609375 197.79498 63.595254 197.46629 63.587891 197.13281 C 63.358235 207.5495 59.529335 215.83594 50.75 215.83594 C 41.970668 215.83594 38.132569 207.5495 37.902344 197.13281 z M 198.5332 198.13477 L 198.5332 200.13477 L 208.41211 217.32227 L 217.88086 217.32227 L 216.625 215.32227 L 208.41211 215.32227 L 198.5332 198.13477 z M 111.37305 201.14258 C 111.36899 201.32256 111.36328 201.63477 111.36328 201.63477 L 97.369141 201.63477 C 97.369141 201.63477 97.24078 203.38558 97.3125 204.70312 C 97.337403 204.19307 97.369141 203.63477 97.369141 203.63477 L 111.36328 203.63477 C 111.36328 203.63477 111.38827 202.52365 111.37305 201.14258 z M 88.314453 201.58398 C 88.283047 203.23963 88.143811 204.89373 87.6875 206.4707 C 87.08616 208.54885 86.17379 210.64215 84.707031 212.23242 C 83.390511 213.6598 81.610435 214.72216 79.763672 215.32227 C 77.891278 215.93067 73.875 215.73633 73.875 215.73633 L 73.875 217.73633 C 73.875 217.73633 77.891278 217.93068 79.763672 217.32227 C 81.610435 216.72217 83.390511 215.6598 84.707031 214.23242 C 86.17379 212.64215 87.08616 210.54885 87.6875 208.4707 C 88.328069 206.25695 88.361075 203.89345 88.314453 201.58398 z M 93.193359 202.57812 C 93.161124 203.85758 93.187684 205.13939 93.28125 206.41602 C 93.420428 208.31469 93.478525 210.28948 94.171875 212.0625 C 94.667406 213.32964 95.460071 214.51656 96.441406 215.45898 C 97.397753 216.37739 98.559395 217.17082 99.835938 217.5293 C 101.71852 218.05798 103.77023 217.84956 105.69922 217.5293 C 107.16541 217.28587 108.58914 216.74575 109.92188 216.08789 C 110.47643 215.81415 111.46094 215.0625 111.46094 215.0625 L 110.75 213.56641 C 110.46812 213.76056 110.15698 213.97184 109.92188 214.08789 C 108.58913 214.74575 107.16541 215.28587 105.69922 215.5293 C 103.77023 215.84956 101.71852 216.05798 99.835938 215.5293 C 98.559395 215.17082 97.397753 214.37739 96.441406 213.45898 C 95.460071 212.51656 94.667406 211.32964 94.171875 210.0625 C 93.478525 208.28948 93.420428 206.31469 93.28125 204.41602 C 93.236427 203.80445 93.210541 203.19117 93.193359 202.57812 z M 150.36719 213.88086 C 150.39753 214.65578 150.0258 216.68387 149.54492 217.99805 C 149.15448 219.06509 148.5554 220.05537 147.89844 220.98242 C 147.34004 221.7704 146.6497 222.45967 145.96875 223.14453 C 145.21095 223.90669 143.57617 225.30469 143.57617 225.30469 L 140.42578 222.70508 C 139.95119 223.32353 139.45898 223.9082 139.45898 223.9082 L 143.57617 227.30469 C 143.57617 227.30469 145.21095 225.90669 145.96875 225.14453 C 146.6497 224.45967 147.34004 223.7704 147.89844 222.98242 C 148.5554 222.05537 149.15448 221.06509 149.54492 219.99805 C 150.0258 218.68388 150.39753 216.65578 150.36719 215.88086 L 150.36719 213.88086 z M 118.15039 215.03125 L 118.15039 217.03125 L 122.26172 217.03125 L 122.26172 215.03125 L 118.15039 215.03125 z M 131.97656 215.03125 L 131.97656 217.03125 L 136.19727 217.03125 L 136.19727 215.03125 L 131.97656 215.03125 z M 191.01953 215.32227 L 191.01953 217.32227 L 198.5332 217.32227 L 198.5332 215.32227 L 191.01953 215.32227 z M 69.677734 225.10156 L 69.677734 227.10156 L 73.875 227.10156 L 73.875 225.10156 L 69.677734 225.10156 z "
             transform="matrix(2.0370361,0,0,2.0370361,-163.05619,-55.354801)"
             id="path1971" />
        </g>
        <g
           id="g1986"
           transform="matrix(0.75000002,0,0,0.75000002,358.74148,-29.399656)">
          <path
             style="clip-rule:evenodd;fill:#000000;fill-rule:evenodd;stroke-width:0.75000006;fill-opacity:1;opacity:0.2"
             d="M 167.58398 29.658203 C 167.41217 30.726031 167.00844 32.006769 166.25391 33.574219 C 164.76721 36.662643 164.43044 39.27238 164.57422 41.658203 C 164.69948 39.816853 165.17138 37.823044 166.25391 35.574219 C 167.56515 32.85026 167.86594 30.950268 167.58398 29.658203 z M 143.03906 29.957031 C 143.03698 30.021825 143.03353 30.075281 143.03125 30.140625 C 142.91875 33.35808 143.40613 35.933978 144.5957 40.583984 C 144.812 40.778167 145.02191 40.97799 145.25781 41.15625 C 143.82064 35.717125 143.14856 32.930495 143.03906 29.957031 z M 131.20508 34.669922 C 130.86392 36.740255 131.74197 39.315015 132.77148 42.015625 C 134.35596 46.171997 136.40183 50.188645 139.625 53.894531 C 140.1598 53.778315 140.69186 53.673765 141.20117 53.589844 C 137.03924 49.427912 134.60062 44.813773 132.77148 40.015625 C 132.05206 38.128442 131.41228 36.304908 131.20508 34.669922 z M 102.49805 40.107422 C 103.52298 42.25365 103.97278 48.666089 103.99414 56.828125 C 104.03431 49.801572 103.77468 43.91369 103.14844 40.501953 C 102.93506 40.374682 102.69797 40.219192 102.49805 40.107422 z M 166.36523 53.84375 C 166.33148 54.264579 166.28003 54.691234 166.19922 55.126953 C 164.84725 62.416953 160.66004 61.091088 158.85742 65.783203 C 158.25854 67.342052 158.18837 69.585307 158.21875 72.03125 C 158.26524 70.381813 158.42537 68.9078 158.85742 67.783203 C 160.66004 63.091088 164.84725 64.416953 166.19922 57.126953 C 166.41118 55.98401 166.43575 54.899782 166.36523 53.84375 z M 131.83789 60.6875 C 131.62752 61.433734 131.64218 62.273702 131.97656 63.224609 C 133.67314 68.049263 137.56942 64.416546 141.20117 64.681641 C 144.83292 64.946728 147.43075 68.578655 151.0625 68.84375 C 154.03414 69.060656 155.10819 73.821728 155.23242 78.609375 C 155.38073 73.241031 154.45262 67.091201 151.0625 66.84375 C 147.43075 66.578655 144.83292 62.946728 141.20117 62.681641 C 137.56942 62.416546 133.67314 66.049263 131.97656 61.224609 C 131.91135 61.039157 131.88015 60.864813 131.83789 60.6875 z M 158.28125 77.566406 C 158.25974 80.815009 157.96351 83.920674 156.52344 85.957031 C 154.28498 89.122347 153.26633 93.405596 153.45898 97.644531 C 153.61978 94.085246 154.63739 90.624011 156.52344 87.957031 C 158.25903 85.502802 158.35736 81.510832 158.28125 77.566406 z M 97.164062 113.74219 C 95.8498 113.70697 92.796875 118.87615 92.796875 122.11523 C 92.796875 122.47814 92.829189 122.83649 92.876953 123.19336 C 93.342414 119.98243 95.968303 115.71014 97.164062 115.74219 C 97.388094 115.7482 97.555195 115.92061 97.650391 116.27344 C 97.654525 116.25296 97.657973 116.23141 97.662109 116.21094 C 97.87127 114.49009 97.640501 113.75496 97.164062 113.74219 z M 89.589844 121.81641 C 89.349213 128.31711 91.65039 129.67896 91.923828 135.14453 C 91.929188 135.04089 91.944542 134.94531 91.947266 134.83984 C 92.109004 128.57841 89.85553 127.20719 89.589844 121.81641 z M 84.634766 150.73438 C 84.627128 150.76856 84.612242 150.8016 84.605469 150.83594 C 83.836701 154.73277 87.892643 155.97852 90.251953 155.97852 C 90.879645 155.97852 91.504494 155.20997 92.105469 154.00977 C 92.168526 153.21934 92.227802 152.43306 92.298828 151.63477 C 91.639896 153.06787 90.946764 153.97852 90.251953 153.97852 C 88.329095 153.97852 85.281163 153.15012 84.634766 150.73438 z M 164.7793 151.22656 C 164.58911 169.80474 159.61708 171.95331 153.44922 172.08398 C 147.19307 172.21653 142.95239 152.36248 129.5918 151.96484 C 116.25773 151.56721 105.62688 169.22266 97.25 169.22266 C 93.297364 169.22266 91.884467 167.19193 91.730469 162.33008 C 91.56041 168.64826 92.795462 171.22266 97.25 171.22266 C 105.62688 171.22266 116.25773 153.56721 129.5918 153.96484 C 142.95239 154.36248 147.19307 174.21653 153.44922 174.08398 C 159.70536 173.95144 164.7419 171.77825 164.79492 152.45312 C 164.79624 152.04278 164.78288 151.63578 164.7793 151.22656 z "
             transform="matrix(2.7160481,0,0,2.7160481,-675.02784,-34.606859)"
             id="path1976" />
          <path
             style="clip-rule:evenodd;fill:#ffffff;fill-rule:evenodd;stroke-width:0.75000006;fill-opacity:1;opacity:0.3"
             d="M 146.51562 24.089844 C 142.95947 24.197487 143.14722 26.823675 143.03125 30.140625 C 143.00926 30.76966 143.01728 31.365458 143.03906 31.957031 C 143.14256 28.732801 143.02953 26.195366 146.51562 26.089844 C 147.02364 26.074466 147.60664 26.110343 148.2793 26.203125 C 153.66064 26.945385 151.32914 38.131841 155.51758 42.691406 C 156.79002 38.370416 157.55776 32.882176 160.63281 30.628906 C 162.80249 29.039059 166.90829 28.561887 167.58398 31.658203 C 168.42627 26.42331 163.18689 26.757387 160.63281 28.628906 C 157.55776 30.882176 156.79002 36.370416 155.51758 40.691406 C 151.32914 36.131841 153.66064 24.945385 148.2793 24.203125 C 147.60664 24.110343 147.02364 24.074466 146.51562 24.089844 z M 136.00977 30.697266 C 135.61776 30.684398 135.18668 30.759096 134.70703 30.935547 C 131.60307 32.077417 130.88548 34.14797 131.20508 36.669922 C 131.47005 35.061914 132.47043 33.758338 134.70703 32.935547 C 139.82329 31.053399 139.3993 40.729225 145.25781 45.15625 C 144.9972 44.169936 144.80768 43.412607 144.5957 42.583984 C 139.94387 38.407801 139.63077 30.816128 136.00977 30.697266 z M 102.49805 40.107422 C 102.75193 40.639051 102.96225 41.487638 103.14844 42.501953 C 111.62726 47.559219 130.51517 64.755379 145.18164 89.166016 C 148.4763 92.562708 154.90509 88.925553 155.19922 83.753906 C 155.25704 82.737261 155.26002 81.672862 155.23242 80.609375 C 155.22185 80.991988 155.22038 81.381774 155.19922 81.753906 C 154.90509 86.925553 148.4763 90.562708 145.18164 87.166016 C 130.14607 62.141061 110.64205 44.660511 102.49805 40.107422 z M 164.57422 43.658203 C 164.26495 48.204502 166.09529 51.80137 166.36523 55.84375 C 166.7077 51.574112 164.8354 47.992176 164.57422 43.658203 z M 139.625 55.894531 C 135.44908 56.801999 130.90081 58.755459 131.83789 62.6875 C 132.6949 59.647536 137.45513 58.20709 141.20117 57.589844 C 140.64449 57.033164 140.12268 56.466749 139.625 55.894531 z M 103.99414 58.828125 C 103.93001 70.044759 103.11825 84.03982 101.86328 95.052734 C 98.673942 111.37219 90.069096 113.75867 89.615234 121.14648 C 89.55396 122.1439 89.550699 123.02216 89.589844 123.81641 C 89.59812 123.59283 89.600724 123.38268 89.615234 123.14648 C 90.069096 115.75867 98.673942 113.37219 101.86328 97.052734 C 103.19456 85.370133 104.02427 70.34385 103.99414 58.828125 z M 158.21875 74.03125 C 158.17049 75.743645 158.24423 77.647565 158.28125 79.566406 C 158.29358 77.703551 158.24101 75.822984 158.21875 74.03125 z M 153.45898 99.644531 C 153.34971 102.0634 153.63211 104.5276 154.32227 106.81836 C 160.48006 120.91292 164.63379 136.59996 164.7793 153.22656 C 164.78202 152.96066 164.79417 152.72582 164.79492 152.45312 C 164.84987 135.37018 160.63161 119.25982 154.32227 104.81836 C 153.82186 103.15745 153.53897 101.40439 153.45898 99.644531 z M 97.650391 118.27344 C 96.754035 122.71318 95.902097 127.31158 95.126953 131.98633 C 94.293687 129.54024 93.173453 127.40861 92.876953 125.19336 C 92.830825 125.51157 92.796875 125.82318 92.796875 126.11523 C 92.796875 128.73092 94.159452 131.14619 95.126953 133.98633 C 95.905673 129.29002 96.761201 124.66968 97.662109 120.21094 C 97.772918 119.29927 97.757643 118.67095 97.650391 118.27344 z M 91.923828 137.14453 C 91.564083 144.10066 85.362943 146.9963 84.605469 150.83594 C 84.463253 151.55682 84.488046 152.18605 84.634766 152.73438 C 85.493977 148.8886 91.76334 145.96052 91.947266 138.83984 C 91.963118 138.22613 91.950248 137.67262 91.923828 137.14453 z M 92.298828 155.63477 C 92.235175 155.7732 92.169731 155.88143 92.105469 156.00977 C 91.968362 157.72841 91.844408 159.43409 91.761719 161.0957 C 91.699735 162.30879 91.699592 163.35529 91.730469 164.33008 C 91.741562 163.91791 91.738991 163.54052 91.761719 163.0957 C 91.882438 160.66989 92.073368 158.16881 92.298828 155.63477 z "
             transform="matrix(2.7160481,0,0,2.7160481,-675.02784,-34.606859)"
             id="path2003" />
        </g>
      </g>
    </g>
  </g>
</svg>
