<?xml version="1.0" encoding="UTF-8" standalone="no"?>
<svg
   xmlns:dc="http://purl.org/dc/elements/1.1/"
   xmlns:cc="http://creativecommons.org/ns#"
   xmlns:rdf="http://www.w3.org/1999/02/22-rdf-syntax-ns#"
   xmlns:svg="http://www.w3.org/2000/svg"
   xmlns="http://www.w3.org/2000/svg"
   xmlns:xlink="http://www.w3.org/1999/xlink"
   xmlns:sodipodi="http://sodipodi.sourceforge.net/DTD/sodipodi-0.dtd"
   xmlns:inkscape="http://www.inkscape.org/namespaces/inkscape"
   width="256"
   height="256"
   version="1.1"
   viewBox="0 0 67.73 67.73"
   id="svg44"
   sodipodi:docname="k3b.svg"
   inkscape:version="0.92.3 (2405546, 2018-03-11)">
  <metadata
     id="metadata48">
    <rdf:RDF>
      <cc:Work
         rdf:about="">
        <dc:format>image/svg+xml</dc:format>
        <dc:type
           rdf:resource="http://purl.org/dc/dcmitype/StillImage" />
        <dc:title></dc:title>
      </cc:Work>
    </rdf:RDF>
  </metadata>
  <sodipodi:namedview
     pagecolor="#ffffff"
     bordercolor="#666666"
     borderopacity="1"
     objecttolerance="10"
     gridtolerance="10"
     guidetolerance="10"
     inkscape:pageopacity="0"
     inkscape:pageshadow="2"
     inkscape:window-width="1920"
     inkscape:window-height="1009"
     id="namedview46"
     showgrid="false"
     inkscape:zoom="3.2617188"
     inkscape:cx="135.70942"
     inkscape:cy="128"
     inkscape:window-x="0"
     inkscape:window-y="34"
     inkscape:window-maximized="1"
     inkscape:current-layer="svg44" />
  <defs
     id="defs20">
    <radialGradient
       id="radialGradient971"
       cx="152"
       cy="228.005"
       r="88"
       gradientTransform="matrix(.34811542 5.4590196e-8 -5.4663176e-8 .32490771 -18.793185 208.75322)"
       gradientUnits="userSpaceOnUse">
      <stop
         style="stop-color:#ffffff;stop-opacity:0"
         offset="0"
         id="stop2" />
      <stop
         style="stop-color:#ffffff"
         offset="1"
         id="stop4" />
    </radialGradient>
    <radialGradient
       id="radialGradient893"
       cx="340"
       cy="210.56"
       r="5.5"
       gradientTransform="matrix(7.4264632,-1.2863223e-5,1.2863218e-5,7.4264601,-2490.8795,-1287.0045)"
       gradientUnits="userSpaceOnUse">
      <stop
         style="stop-color:#cccccc"
         offset="0"
         id="stop7" />
      <stop
         style="stop-color:#b3b3b3"
         offset=".628"
         id="stop9" />
      <stop
         style="stop-color:#e6e6e6"
         offset="1"
         id="stop11" />
    </radialGradient>
    <filter
       id="filter935"
       width="1.028"
       height="1.021"
       x="-.01"
       y="-.01"
       style="color-interpolation-filters:sRGB">
      <feGaussianBlur
         stdDeviation="1.041"
         id="feGaussianBlur14" />
    </filter>
    <filter
       id="filter941"
       width="1.142"
       height="1.104"
       x="-.07"
       y="-.05"
       style="color-interpolation-filters:sRGB">
      <feGaussianBlur
         stdDeviation="5.204"
         id="feGaussianBlur17" />
    </filter>
    <linearGradient
       inkscape:collect="always"
       xlink:href="#linearGradient1048"
       id="linearGradient11065"
       x1="104"
       y1="44"
       x2="200"
       y2="268"
       gradientUnits="userSpaceOnUse"
       gradientTransform="matrix(0.26457031,0,0,0.26457031,-6.4153006,-8.4006339)" />
    <linearGradient
       inkscape:collect="always"
       id="linearGradient1048">
      <stop
         style="stop-color:#cdcdcd;stop-opacity:1;"
         offset="0"
         id="stop1044" />
      <stop
         style="stop-color:#d9d9d9;stop-opacity:1"
         offset="1"
         id="stop1046" />
    </linearGradient>
    <filter
       inkscape:collect="always"
       style="color-interpolation-filters:sRGB"
       id="filter11191"
       x="-0.012"
       width="1.024"
       y="-0.012"
       height="1.024">
      <feGaussianBlur
         inkscape:collect="always"
         stdDeviation="1.12"
         id="feGaussianBlur11193" />
    </filter>
    <filter
       inkscape:collect="always"
       style="color-interpolation-filters:sRGB"
       id="filter11210"
       x="-0.048"
       width="1.096"
       y="-0.048"
       height="1.096">
      <feGaussianBlur
         inkscape:collect="always"
         stdDeviation="4.48"
         id="feGaussianBlur11212" />
    </filter>
  </defs>
  <circle
     style="display:inline;opacity:0.3;fill:#000000;fill-opacity:1;stroke:none;stroke-width:1;stroke-linecap:round;stroke-linejoin:round;stroke-miterlimit:4;stroke-dasharray:none;stroke-opacity:1;filter:url(#filter11210);enable-background:new"
     id="path11042-0"
     r="112"
     cy="122.752"
     cx="122.752"
     transform="matrix(0.26457031,0,0,0.26457031,1.3228519,1.454082)" />
  <circle
     style="display:inline;opacity:0.1;fill:#000000;fill-opacity:1;stroke:none;stroke-width:1;stroke-linecap:round;stroke-linejoin:round;stroke-miterlimit:4;stroke-dasharray:none;stroke-opacity:1;filter:url(#filter11191);enable-background:new"
     id="path11042-6"
     r="112"
     cy="120.75198"
     cx="122.752"
     transform="matrix(0.26457031,0,0,0.26457031,1.3228519,1.454082)" />
  <circle
     style="display:inline;opacity:0.1;fill:#000000;fill-opacity:1;stroke:none;stroke-width:0.2645703;stroke-linecap:round;stroke-linejoin:round;stroke-miterlimit:4;stroke-dasharray:none;stroke-opacity:1;enable-background:new"
     id="path11042-7"
     cy="32.872284"
     cx="33.799385"
     r="30.161015" />
  <circle
     style="display:inline;opacity:1;fill:url(#linearGradient11065);fill-opacity:1;stroke:none;stroke-width:0.26457033;stroke-linecap:round;stroke-linejoin:round;stroke-miterlimit:4;stroke-dasharray:none;stroke-opacity:1;enable-background:new"
     id="path11042"
     r="29.631874"
     cy="32.872284"
     cx="33.799385" />
  <path
     inkscape:connector-curvature="0"
     style="display:inline;opacity:0.2;fill:#ffffff;fill-opacity:1;stroke:none;stroke-width:0.26457033;stroke-linecap:round;stroke-linejoin:round;stroke-miterlimit:4;stroke-dasharray:none;stroke-opacity:1;enable-background:new"
     d="M 33.799387,3.2404611 A 29.631875,29.631875 0 0 0 4.1675118,32.872337 H 33.799387 Z m 0,29.6318759 V 62.504212 A 29.631875,29.631875 0 0 0 63.431262,32.872337 Z"
     id="path11042-53" />
  <path
     inkscape:connector-curvature="0"
     style="display:inline;opacity:0.02000002;fill:#000000;fill-opacity:1;stroke:none;stroke-width:0.26457033;stroke-linecap:round;stroke-linejoin:round;stroke-miterlimit:4;stroke-dasharray:none;stroke-opacity:1;enable-background:new"
     d="m 54.752287,11.919437 a 29.631875,29.631875 0 0 0 -41.9058,0 l 20.9529,20.9529 z m -20.9529,20.9529 -20.9529,20.9529 a 29.631875,29.631875 0 0 0 41.9058,0 z"
     id="path11042-53-6" />
  <path
     style="display:inline;opacity:1;fill:#faf8f6;fill-opacity:1;stroke:none;stroke-width:0.26457033;stroke-linecap:round;stroke-linejoin:round;stroke-miterlimit:4;stroke-dasharray:none;stroke-opacity:1;enable-background:new"
     d="m 25.716383,4.3646501 a 29.631875,29.631875 0 0 0 -0.538049,0.182153 29.631875,29.631875 0 0 1 1.432934,-0.388233 29.631875,29.631875 0 0 0 -0.894885,0.20608 z m 2.333415,-0.537501 a 29.631875,29.631875 0 0 1 1.459703,-0.242406 29.631875,29.631875 0 0 0 -1.459703,0.242406 z m -4.269879,1.192792 a 29.631875,29.631875 0 0 0 -1.385568,0.529078 29.631875,29.631875 0 0 1 1.385568,-0.529078 z m 7.201503,-1.62203 a 29.631875,29.631875 0 0 1 1.470699,-0.09556 29.631875,29.631875 0 0 0 -1.470699,0.09556 z M 21.051754,6.158596 A 29.631875,29.631875 0 0 0 19.71991,6.826278 29.631875,29.631875 0 0 1 21.051754,6.158596 Z M 33.937932,3.2631921 a 29.631875,29.631875 0 0 1 1.477831,0.05285 29.631875,29.631875 0 0 0 -1.477831,-0.05285 z M 18.451163,7.563719 a 29.631875,29.631875 0 0 0 -1.26009,0.797712 29.631875,29.631875 0 0 1 1.26009,-0.797712 z M 36.88864,3.4242591 a 29.631875,29.631875 0 0 1 1.469153,0.200155 29.631875,29.631875 0 0 0 -1.469153,-0.200155 z M 16.000995,9.2227692 A 29.631875,29.631875 0 0 0 14.826697,10.143005 29.631875,29.631875 0 0 1 16.000995,9.2227692 Z M 39.818362,3.8803661 a 29.631875,29.631875 0 0 1 1.431579,0.343431 29.631875,29.631875 0 0 0 -1.431579,-0.343431 z M 13.301851,11.497943 a 29.631875,29.631875 0 0 0 -0.336047,0.313125 29.631875,29.631875 0 0 1 0.336047,-0.313125 z m -0.443389,0.429622 A 29.631875,29.631875 0 0 0 8.1409028,18.056091 L 33.802649,32.871908 Z m 20.944187,20.944343 20.944188,20.944341 a 29.631875,29.631875 0 0 0 4.717558,-6.128525 z M 42.681626,4.6255101 a 29.631875,29.631875 0 0 1 1.393106,0.485341 29.631875,29.631875 0 0 0 -1.393106,-0.485341 z m 2.773996,1.026918 A 29.631875,29.631875 0 0 1 46.800195,6.278095 29.631875,29.631875 0 0 0 45.455622,5.6524281 Z m 2.659249,1.2994679 a 29.631875,29.631875 0 0 1 0.486056,0.2886421 l 0.01754,-0.03038 a 29.631875,29.631875 0 0 0 -0.503593,-0.258264 z m -29.1105,51.55138 -0.01754,0.03038 a 29.631875,29.631875 0 0 0 0.503595,0.258263 29.631875,29.631875 0 0 1 -0.486056,-0.288641 z m 1.800732,0.962441 a 29.631875,29.631875 0 0 0 1.344576,0.625669 29.631875,29.631875 0 0 1 -1.344576,-0.625669 z m 2.725466,1.167244 a 29.631875,29.631875 0 0 0 1.393103,0.485341 29.631875,29.631875 0 0 1 -1.393103,-0.485341 z m 31.108926,-6.700216 a 29.631875,29.631875 0 0 1 -0.336049,0.313124 29.631875,29.631875 0 0 0 0.336049,-0.313124 z m -28.284138,7.587273 a 29.631875,29.631875 0 0 0 1.43158,0.343431 29.631875,29.631875 0 0 1 -1.43158,-0.343431 z M 52.7786,55.60081 A 29.631875,29.631875 0 0 1 51.604305,56.521044 29.631875,29.631875 0 0 0 52.7786,55.60081 Z M 29.247505,62.1194 a 29.631875,29.631875 0 0 0 1.469154,0.200155 29.631875,29.631875 0 0 1 -1.469154,-0.200155 z m 21.16672,-4.737018 a 29.631875,29.631875 0 0 1 -1.26009,0.797714 29.631875,29.631875 0 0 0 1.26009,-0.797714 z m -18.22469,5.045385 a 29.631875,29.631875 0 0 0 1.477831,0.05286 29.631875,29.631875 0 0 1 -1.477831,-0.05286 z m 15.695853,-3.510232 a 29.631875,29.631875 0 0 1 -1.331844,0.667683 29.631875,29.631875 0 0 0 1.331844,-0.667683 z m -12.732211,3.523929 a 29.631875,29.631875 0 0 0 1.470699,-0.09556 29.631875,29.631875 0 0 1 -1.470699,0.09556 z m 10.05777,-2.246671 a 29.631875,29.631875 0 0 1 -1.385567,0.529077 29.631875,29.631875 0 0 0 1.385567,-0.529077 z m -7.11515,1.964276 a 29.631875,29.631875 0 0 0 1.459703,-0.242404 29.631875,29.631875 0 0 1 -1.459703,0.242404 z m 4.331167,-0.962057 a 29.631875,29.631875 0 0 1 -1.432934,0.388231 29.631875,29.631875 0 0 0 1.432934,-0.388231 z"
     id="path11042-53-6-2"
     inkscape:connector-curvature="0" />
  <circle
     style="display:inline;opacity:1;fill:#aea795;fill-opacity:1;stroke:none;stroke-width:0.73028344;stroke-linecap:round;stroke-linejoin:round;stroke-miterlimit:4;stroke-dasharray:none;stroke-dashoffset:0;stroke-opacity:1;enable-background:new"
     id="path7147"
     cx="33.799385"
     cy="-32.872288"
     transform="scale(1,-1)"
     r="10.582812" />
  <circle
     style="display:inline;opacity:1;fill:#faf8f6;fill-opacity:1;stroke:none;stroke-width:0.68032366;stroke-linecap:round;stroke-linejoin:round;stroke-miterlimit:4;stroke-dasharray:none;stroke-dashoffset:0;stroke-opacity:1;enable-background:new"
     id="path7164"
     cx="33.799385"
     cy="32.872288"
     r="9.5245314" />
  <circle
     style="display:inline;opacity:1;fill:#4d4d4d;fill-opacity:1;stroke:none;stroke-width:0.92599607;stroke-linecap:round;stroke-linejoin:round;stroke-miterlimit:4;stroke-dasharray:none;stroke-dashoffset:0;stroke-opacity:1;enable-background:new"
     id="path7166"
     cx="33.799385"
     cy="32.872288"
     r="3.7039843" />
  <path
     style="display:inline;opacity:0.3;fill:#ffffff;fill-opacity:1;stroke:none;stroke-width:0.26457033;stroke-linecap:round;stroke-linejoin:round;stroke-miterlimit:4;stroke-dasharray:none;stroke-opacity:1;enable-background:new"
     d="M 33.799387,3.2404601 A 29.631875,29.631875 0 0 0 4.1675118,32.872334 29.631875,29.631875 0 0 0 4.1783648,33.18186 29.631875,29.631875 0 0 1 33.799387,3.7696001 29.631875,29.631875 0 0 1 63.420409,33.091949 29.631875,29.631875 0 0 0 63.431257,32.872334 29.631875,29.631875 0 0 0 33.799382,3.2404601 Z"
     id="path11042-1"
     inkscape:connector-curvature="0" />
  <path
     inkscape:connector-curvature="0"
     style="display:inline;opacity:0.2;fill:#000000;fill-opacity:1;stroke:none;stroke-width:0.26457033;stroke-linecap:round;stroke-linejoin:round;stroke-miterlimit:4;stroke-dasharray:none;stroke-opacity:1;enable-background:new"
     d="M 33.799387,62.504209 A 29.631875,29.631875 0 0 1 4.1675118,32.872334 29.631875,29.631875 0 0 1 4.1783648,32.562808 29.631875,29.631875 0 0 0 33.799387,61.975068 29.631875,29.631875 0 0 0 63.420409,32.65272 a 29.631875,29.631875 0 0 1 0.01085,0.219614 29.631875,29.631875 0 0 1 -29.631875,29.631875 z"
     id="path11042-1-7" />
  <g
     style="enable-background:new"
     transform="matrix(0.26658951,0,0,0.26658951,-71.894893,4.1393055)"
     id="g113">
    <g
       style="enable-background:new"
       transform="matrix(1.0840837,0,0,1.0840837,-1.83901,110.34456)"
       id="g111">
      <path
         inkscape:connector-curvature="0"
         style="fill:#e01b24;fill-rule:evenodd;stroke-width:1.0753969"
         d="m 114.76367,10.058594 c -51.745739,2.119499 -55.147207,8.109081 -61.521482,11.335937 -8.535931,4.321604 -19.036219,6.756785 -17.939454,-0.236328 -3.632109,1.329063 -7.816981,6.387805 -4.271484,12.71875 3.545444,6.330888 -3.536752,13.708991 -6.947266,9.71875 -6.527153,-7.636451 -22.5272324,-1.645393 -20.1914059,8.125 2.2999298,-2.297263 13.0066159,-7.326183 11.5175779,3.896485 -1.464348,11.035556 -2.141503,19.528078 8.683594,27.082031 0.459286,-1.205493 0.826979,-2.455803 1.326172,-3.640625 1.412489,-3.352507 2.983605,-6.622342 4.703125,-9.796875 1.719519,-3.174533 3.58759,-6.2543 5.595703,-9.232422 2.008113,-2.978123 4.155323,-5.853912 6.433594,-8.617188 2.27827,-2.763275 4.686806,-5.413368 7.216797,-7.943359 2.529991,-2.529991 5.182037,-4.940479 7.945312,-7.21875 2.763275,-2.278271 5.639065,-4.42548 8.617188,-6.433594 2.978122,-2.008113 6.057889,-3.876183 9.232421,-5.595703 3.174533,-1.71952 6.444369,-3.290636 9.796876,-4.703125 3.352506,-1.412489 6.788737,-2.666884 10.300781,-3.753906 3.512044,-1.087022 7.098811,-2.006882 10.751951,-2.75 2.59527,-0.527925 5.2614,-0.854771 7.91992,-1.201172 z"
         id="path75"
         transform="matrix(0.92988928,0,0,0.92988928,247.05811,-116.30747)" />
      <g
         transform="matrix(2.1538421,0,0,2.1538421,408.93633,8.3107066)"
         id="g107">
        <path
           inkscape:connector-curvature="0"
           style="fill:#e01b24;fill-rule:evenodd;stroke-width:1.0090977"
           d="m 0.8156102,-48.849196 c 1.5153318,1.391743 3.4790502,3.399087 4.6937829,5.568254 2.117639,3.781498 1.8151186,10.361302 -4.6890563,11.571382 -6.5042969,1.210079 -6.7528468,-1.005382 -6.7310654,-3.630238 -3.457627,0.475973 -5.0039684,8.140324 1.058819,10.815083 5.1428364,2.268898 7.0335849,1.361339 16.7142196,0.756299 9.680636,-0.60504 10.815085,11.193232 6.277288,13.008351 -4.537797,1.8151193 -6.270536,-1.420342 -5.974769,-3.176458 -3.6369905,1.420342 -4.0809925,5.3829643 -2.2688984,7.2604753 C 24.046236,7.9851977 17.259629,19.314031 13.374911,20.475102 8.5611408,21.913861 5.1675703,19.06185 7.6270321,15.256636 9.6312376,12.155808 7.9015067,7.041995 5.4668515,5.2309421 3.0321963,3.4198407 -1.6956113,3.8528506 -3.7174597,5.1978638 -0.80317833,6.2996643 3.4673849,7.9961716 2.332936,11.777668 1.4568868,14.697832 -1.4132758,16.536909 -5.0031693,16.466725 -13.181392,16.306559 -10.591705,8.9182759 -9.46534,8.0718015 c -4.394519,-0.5439552 -7.330055,7.4747065 -4.462159,10.2100415 2.822164,2.691748 6.7886611,4.193336 4.3865372,8.319294 -2.5195552,4.32768 -6.0503982,6.655435 -12.1007962,5.445356 -6.050389,-1.210079 -9.378111,-5.067206 -8.621812,-8.621814 0.756298,-3.554607 2.522774,-4.02908 5.596617,-4.084017 -1.917729,-4.063275 -11.344489,-4.084016 -11.193235,2.949568 0.0781,3.633335 -6.004434,4.231429 -8.54618,0.15126 -2.87394,-4.613431 -0.443569,-6.586974 2.798309,-5.823511 0.216673,-5.135671 -4.159652,-2.647048 -5.2941,-8.319293 -1.134448,-5.6722464 8.319294,-9.9831534 8.319294,-9.9831534 l -29.41532,-0.5861345 c 1.414008,25.5282989 22.428933,45.6615779 48.322805,45.6615779 26.8153307,0 48.403167,-21.587834 48.403167,-48.4031617 0,-19.4718863 -11.410289,-36.1421523 -27.9121768,-43.8370073 z"
           id="path91-2" />
        <path
           inkscape:connector-curvature="0"
           style="fill:#95a5a6;stroke-width:1.0090977"
           d="m -9.9947429,-5.0121887 c 0,2.4727228 -0.9465031,4.94544731 -2.8408621,6.8397781 -1.894328,1.894354 -4.367052,2.8408543 -6.839775,2.8408543 v 2.4201585 c 3.091492,0 6.182974,-1.181933 8.550902,-3.5498888 2.3679575,-2.3679306 3.5498905,-5.4594167 3.5498905,-8.5509021 z"
           id="path93-9" />
        <path
           inkscape:connector-curvature="0"
           style="opacity:0.3;fill:#ffffff;fill-rule:evenodd;stroke-width:1.0090977"
           d="m 0.8160978,-48.848756 c 0.5501073,0.505241 1.1598544,1.092996 1.7708894,1.738817 15.4414998,7.983644 26.0003238,23.990852 26.1345858,42.6043863 0.0017,-0.168868 0.0068,-0.33716 0.0068,-0.50645 0,-19.4718883 -11.410345,-36.1418983 -27.9122301,-43.8367533 z m 5.8554241,10.574706 c -0.1442979,2.956157 -1.787247,5.808372 -5.8512061,6.564456 -6.5042999,1.210079 -6.7525136,-1.004712 -6.7307364,-3.629569 -1.8781328,0.258543 -3.1888541,2.638402 -3.0260506,5.186907 0.1443454,-2.200317 1.3626165,-4.093576 3.0260506,-4.322563 -0.021777,2.624857 0.2264365,4.839648 6.7307364,3.62957 4.4596513,-0.829702 6.0035423,-4.183323 5.8512061,-7.428801 z m 14.0160451,23.06549 c -0.115014,2.051726 -1.000885,3.830548 -2.547451,4.449176 -4.537805,1.8151183 -6.271052,-1.421023 -5.975287,-3.177139 -2.4771144,0.967381 -3.4701806,3.113455 -3.2809585,4.9775713 0.1509191,-1.6249623 1.1804305,-3.2929153 3.2809585,-4.1132273 -0.295765,1.756115 1.437482,4.9922563 5.975287,3.1771393 1.760324,-0.7041293 2.662119,-2.9114713 2.547451,-5.3135203 z M 0.7198704,4.0306895 c -1.7390599,0.050028 -3.4264319,0.4948628 -4.4373599,1.1673699 0.3061635,0.1157486 0.6323108,0.242483 0.9605713,0.3730854 C -0.45449632,4.6427746 3.3619405,4.52939 5.4670112,6.0953218 7.0644007,7.2835612 8.3505228,9.8929419 8.4854599,12.423434 8.6438119,9.645169 7.2475508,6.5554552 5.4670112,5.2309779 4.2496822,4.3254265 2.4589346,3.9806569 0.7198704,4.0306895 Z M -46.972666,7.805439 c -0.03747,0.4429202 -0.02163,0.8955035 0.07091,1.358135 1.064539,5.322746 4.984089,3.459459 5.283976,7.453276 0.0034,7.99e-4 0.0067,8.82e-4 0.01013,0.0017 0.216673,-5.135672 -4.15966,-2.647066 -5.294107,-8.3193101 -0.03318,-0.1659022 -0.05534,-0.3302917 -0.07091,-0.493791 z M -9.87256,8.0460033 c -3.1136,-0.016159 -5.388942,4.2309457 -5.179312,7.4836667 0.186824,-3.024491 2.243607,-6.4729722 4.994455,-6.6091928 C -9.8548798,8.5153161 -9.6425753,8.2057211 -9.4648662,8.0721713 -9.6021975,8.0551743 -9.7382149,8.0466993 -9.87256,8.0460033 Z M 2.4924495,11.002837 c -0.028415,0.248586 -0.078776,0.505693 -0.159532,0.774872 -0.8760471,2.920164 -3.7460532,4.759924 -7.33595,4.689739 -4.2073017,-0.0824 -5.5618455,-2.0779 -5.7347185,-4.111541 -0.149912,2.292599 0.9271862,4.881732 5.7347185,4.975884 3.5898968,0.07018 6.4599029,-1.769574 7.33595,-4.689739 0.1789063,-0.596354 0.2229576,-1.14073 0.159532,-1.639215 z m 15.9515365,0.135897 c -0.160704,5.274874 -3.017875,8.723468 -5.068734,9.336434 -3.4877014,1.042416 -6.2283064,-0.168033 -6.5391331,-2.360907 -0.3629683,2.720582 2.6159407,4.397824 6.5391331,3.225251 2.160691,-0.645798 5.214596,-4.440126 5.068734,-10.200778 z m -48.508768,5.442665 c -2.934932,0.0285 -5.880572,1.753006 -5.795495,5.709397 0.07811,3.633335 -6.003775,4.231261 -8.545521,0.151092 -0.758591,-1.217735 -1.144607,-2.249714 -1.246717,-3.097795 -0.135352,0.973216 0.207599,2.294081 1.246717,3.962138 2.541746,4.08017 8.623628,3.482243 8.545521,-0.151091 -0.139915,-6.506495 7.912485,-6.974213 10.638859,-3.791634 0.184624,-0.0076 0.359485,-0.0193 0.554563,-0.02279 -0.839006,-1.777683 -3.115204,-2.781484 -5.397927,-2.759318 z m 21.2321358,8.109978 c -0.075064,0.572787 -0.2959384,1.202065 -0.7081916,1.910166 -2.5195532,4.327679 -6.0504112,6.655274 -12.1008132,5.445197 -5.23849,-1.047701 -8.433023,-4.079616 -8.7059,-7.181483 -0.303891,3.386188 2.980783,6.900801 8.7059,8.045827 6.050402,1.210078 9.58126,-1.117518 12.1008132,-5.445197 0.630513,-1.082989 0.8193808,-1.984158 0.7081916,-2.77451 z"
           id="path95"
           sodipodi:nodetypes="cccsccccccccccccccscccccccccccccccccccccccccsccscccccscsccccccsccscc" />
        <path
           inkscape:connector-curvature="0"
           style="opacity:0.2;fill:#090000;fill-rule:evenodd;stroke-width:0.43217194"
           d="m 0.8158166,-48.848649 c 1.5153331,1.391743 3.4792261,3.399267 4.6939577,5.568434 0.6652855,1.188011 1.0912601,2.652367 1.1614621,4.139397 0.086089,-1.774234 -0.3673462,-3.585679 -1.1614621,-5.003741 -0.773752,-1.381699 -1.8509405,-2.696454 -2.9230683,-3.829617 -0.5840372,-0.301963 -1.1731956,-0.595767 -1.7708894,-0.874473 z m -9.752569,17.836377 c -0.1541211,2.372305 0.94035,5.100505 4.0845304,6.487644 5.1428331,2.268898 7.0339569,1.36134 16.714587,0.756301 5.925263,-0.370329 8.643992,3.905543 8.824916,7.69553 0.222448,-3.968248 -2.443638,-8.958706 -8.824916,-8.559874 -9.6806301,0.605039 -11.5717539,1.512597 -16.714587,-0.756301 -2.7677414,-1.221064 -3.9463261,-3.481284 -4.0845304,-5.6233 z M 8.883585,-9.8231837 c -0.1103897,1.188607 0.2465326,2.354429 1.0120606,3.147594 6.2798214,6.50657361 8.4316784,12.353687 8.5480584,16.9500857 0.143701,-4.7167197 -1.868141,-10.89331229 -8.5480584,-17.8144287 -0.577901,-0.598762 -0.923461,-1.410402 -1.0120606,-2.283251 z m 19.837708,4.458458 C 28.448411,21.21272 6.9691325,42.527016 -19.675213,42.527016 c -25.600378,0 -46.429409,-19.680319 -48.264825,-44.7964785 l -0.05824,-8.643e-4 c 1.414006,25.5282918 22.429197,45.6616658 48.323067,45.6616658 26.81533,0 48.403256,-21.587931 48.403256,-48.4032567 0,-0.118143 -0.0059,-0.234898 -0.0067,-0.352829 z m -68.883312,3.6498263 c -2.532872,1.45370971 -7.188815,4.6870472 -6.810928,8.6561013 0.421921,-4.9876228 8.390213,-8.6248683 8.390213,-8.6248683 z M -2.7571994,4.7069075 C -3.1176826,4.8522599 -3.4440675,5.0160877 -3.7177707,5.198166 -1.2622691,6.1265146 2.1553465,7.4769654 2.4921683,10.141133 2.823588,7.2623661 -0.18230605,5.7313581 -2.7571994,4.7069075 Z m -7.115646,3.3392024 c -0.062626,-3.241e-4 -0.1237611,0.00704 -0.1856956,0.010113 -0.420672,0.8417586 -0.789617,2.1399811 -0.679491,3.4354301 0.105104,-1.6074033 0.8086455,-3.070517 1.2728803,-3.4193922 -0.1373313,-0.016984 -0.2733444,-0.025455 -0.4076937,-0.02619 z M 8.4843359,11.560882 c -0.058373,1.020038 -0.3194269,1.999275 -0.8575933,2.83191 -0.6775203,1.048242 -0.909091,2.023473 -0.7909092,2.857231 0.082398,-0.617586 0.3358883,-1.288892 0.7909092,-1.992887 0.6889469,-1.065917 0.9280244,-2.370476 0.8575933,-3.696254 z m -23.5364889,3.109616 c -0.08764,1.434637 0.244086,2.772287 1.124321,3.611842 2.081396,1.985212 4.7824702,3.324076 5.0949003,5.5448 0.3623156,-2.764738 -2.7570793,-4.179358 -5.0949003,-6.409144 -0.700101,-0.667745 -1.052754,-1.65148 -1.124321,-2.747498 z m -27.724843,0.925962 c -1.814055,-0.04935 -3.112178,0.920116 -2.875801,2.883395 0.239,-1.718458 1.975123,-2.348629 4.044859,-1.861209 0.01335,-0.316436 0.0087,-0.603796 -0.01097,-0.866033 -0.401306,-0.09379 -0.790377,-0.146148 -1.158086,-0.156153 z m 17.555297,2.902808 c -2.724434,0.111418 -4.333427,0.732726 -5.041727,4.061742 -0.101659,0.477805 -0.127849,0.960978 -0.08525,1.442543 0.01724,-0.193255 0.0444,-0.386245 0.08525,-0.578199 0.756297,-3.554605 2.522445,-4.029593 5.59629,-4.08453 -0.143715,-0.3045 -0.333697,-0.583735 -0.554563,-0.841556 z"
           id="path97"
           sodipodi:nodetypes="cscscccsscsscccccccsccsscccccccccccccccccccsccccccccccaccccccc" />
        <path
           inkscape:connector-curvature="0"
           style="fill:#3d3846;stroke-width:1.0090977"
           d="m -67.1757,-14.555745 c -0.583046,3.091147 -0.90284,6.2779153 -0.90284,9.5435563 0,3.2656395 0.319794,6.4524077 0.90284,9.5435546 l 28.139054,-4.70323909 c 2.650365,-0.4077482 4.840319,-2.15878111 4.840319,-4.84031551 0,-2.681536 -2.189954,-4.432569 -4.840319,-4.840317 z"
           id="path99" />
        <circle
           style="fill:#46a926;stroke-width:1.0090977"
           cx="-39.036518"
           cy="-5.0128312"
           r="2.4198165"
           id="circle101" />
        <path
           inkscape:connector-curvature="0"
           style="opacity:0.3;fill:#ffffff;stroke-width:1.0090977"
           d="m -67.175672,-14.55595 c -0.583047,3.091147 -0.902328,6.2775933 -0.902328,9.5432343 0,0.144438 0.0039,0.288044 0.005,0.432172 0.02696,-3.1144 0.34002,-6.1567303 0.897262,-9.1110623 l 28.139288,4.7032463 c 2.504646,0.38533 4.595412,1.971585 4.818042,4.407816 0.01291,-0.141506 0.02195,-0.284992 0.02195,-0.432172 0,-2.681537 -2.189622,-4.43224 -4.839988,-4.839989 z"
           id="path103" />
        <path
           inkscape:connector-curvature="0"
           style="opacity:0.2;stroke-width:1.0090977"
           d="m -68.073776,-5.4448877 c -0.001,0.144229 -0.005,0.287638 -0.005,0.432172 0,3.2656427 0.320126,6.4529324 0.903173,9.5440814 l 28.138438,-4.70324519 c 2.650365,-0.4077501 4.840834,-2.15929961 4.840834,-4.84083621 0,-0.147431 -0.0091,-0.290431 -0.022,-0.432172 -0.222274,2.4366423 -2.313982,4.0232921 -4.818885,4.4086645 l -28.13844,4.7032452 c -0.557264,-2.95443129 -0.871174,-5.997406 -0.898107,-9.1119097 z"
           id="path105" />
      </g>
      <path
         inkscape:connector-curvature="0"
         style="opacity:0.3;fill:#fbf8f8;fill-opacity:1;fill-rule:evenodd;stroke-width:1.0753969"
         d="m 114.76367,10.058594 c -51.745737,2.119499 -55.147207,8.109081 -61.521482,11.335937 -8.535932,4.321604 -19.036219,6.756785 -17.939454,-0.236328 -2.875005,1.052024 -6.08137,4.446188 -5.541015,8.953125 0.441135,-3.49639 3.109075,-6.063229 5.541015,-6.953125 -1.096765,6.993113 9.403523,4.557932 17.939454,0.236328 6.192515,-3.134844 9.715301,-8.866528 57.347652,-11.134765 1.11241,-0.154766 2.22823,-0.301915 3.34375,-0.447266 z M 31.921875,38.626953 c -0.656001,4.558892 -5.280005,7.961431 -7.837891,4.96875 C 17.754604,36.190636 2.5200987,41.600254 3.7324219,50.84375 4.7525365,42.866421 18.227128,38.743468 24.083984,45.595703 c 2.921308,3.41788 8.515246,-1.507445 7.837891,-6.96875 z M 15.505859,54.712891 c -0.02304,0.290089 -0.05386,0.588968 -0.0957,0.904297 -0.490597,3.697217 -0.88007,7.104341 -0.791015,10.291015 0.07649,-2.605576 0.401535,-5.355824 0.791015,-8.291015 0.149658,-1.127949 0.171519,-2.085407 0.0957,-2.904297 z"
         transform="matrix(0.92988928,0,0,0.92988928,247.05811,-116.30747)"
         id="path973" />
      <path
         style="opacity:0.2;fill:#000000;fill-opacity:1;fill-rule:evenodd;stroke-width:1.0753969"
         d="m 24.57154,81.040498 c -7.198388,-5.02317 -9.775642,-10.807296 -9.952399,-17.132295 -0.211093,7.190714 1.528726,13.246232 9.474609,18.791016 z m 5.190179,-52.92917 c -0.217703,1.725478 0.09798,3.673672 1.269531,5.765625 0.5082,0.907463 0.777025,1.834117 0.890625,2.748047 0.218206,-1.519102 -0.0046,-3.165988 -0.890625,-4.748047 -0.739049,-1.319668 -1.127234,-2.578769 -1.269531,-3.765625 z M 11.072266,46.599609 C 8.2942333,46.741164 5.042543,48.572071 3.8925781,49.720703 3.8218028,49.424661 3.770303,49.132579 3.7324219,48.84375 3.6156732,49.756728 3.6527036,50.717346 3.8925781,51.720703 5.9613505,49.65433 14.827335,45.384128 15.505859,52.712891 15.892802,47.840782 13.694186,46.46601 11.072266,46.599609 Z"
         transform="matrix(0.92988928,0,0,0.92988928,247.05811,-116.30747)"
         id="path978"
         inkscape:connector-curvature="0"
         sodipodi:nodetypes="cccccccccsccccs" />
    </g>
  </g>
  <g
     style="enable-background:new"
     id="g959"
     transform="matrix(0.74079693,0,0,0.74079693,-11.604751,-15.303145)">
    <path
       inkscape:connector-curvature="0"
       id="path957"
       style="fill:none"
       d="m 61.375433,50.569767 c -8.078048,0 -14.634146,6.556097 -14.634146,14.634146 0,8.078048 6.556098,14.634146 14.634146,14.634146 8.078047,0 14.634146,-6.556098 14.634146,-14.634146 0,-8.078049 -6.556099,-14.634146 -14.634146,-14.634146 z m 0,7.317072 c 4.039024,0 7.317073,3.278049 7.317073,7.317074 0,4.039024 -3.278049,7.317072 -7.317073,7.317072 -4.039024,0 -7.317073,-3.278048 -7.317073,-7.317072 0,-4.039025 3.278049,-7.317074 7.317073,-7.317074 z" />
  </g>
</svg>
