<svg xmlns="http://www.w3.org/2000/svg" xmlns:osb="http://www.openswatchbook.org/uri/2009/osb" width="256" height="256" version="1.1">
 <defs>
  <linearGradient id="linearGradient5606" osb:paint="solid">
   <stop id="stop5608" offset="0" style="stop-color:#000000"/>
  </linearGradient>
  <linearGradient id="linearGradient4526" osb:paint="solid">
   <stop id="stop4528" offset="0" style="stop-color:#ffffff"/>
  </linearGradient>
  <linearGradient id="linearGradient3600-4" osb:paint="gradient">
   <stop id="stop3602-7" offset="0" style="stop-color:#f4f4f4"/>
   <stop id="stop3604-6" offset="1" style="stop-color:#dbdbdb"/>
  </linearGradient>
  <clipPath id="clipPath999" clipPathUnits="userSpaceOnUse">
   <path style="fill:#5d5d5d" d="m 152,68 c -48.60106,0 -88,39.39894 -88,88 0,48.60106 39.39894,88 88,88 48.60106,0 88,-39.39894 88,-88 0,-48.60106 -39.39894,-88 -88,-88 z"/>
  </clipPath>
  <filter style="color-interpolation-filters:sRGB" id="filter11191" width="1.024" height="1.024" x="-.01" y="-.01">
   <feGaussianBlur id="feGaussianBlur11193" stdDeviation="1.12"/>
  </filter>
  <filter style="color-interpolation-filters:sRGB" id="filter11210" width="1.096" height="1.096" x="-.05" y="-.05">
   <feGaussianBlur id="feGaussianBlur11212" stdDeviation="4.48"/>
  </filter>
 </defs>
 <circle style="opacity:0.1;filter:url(#filter11210)" cx="128.752" cy="127.248" r="112"/>
 <circle style="opacity:0.1;filter:url(#filter11191)" cx="128.752" cy="125.248" r="112"/>
 <circle style="opacity:0.1" cx="128.752" cy="123.248" r="114"/>
 <circle style="fill:#e6e6e6" cx="-128.752" cy="-123.248" r="112" transform="scale(-1)"/>
 <path style="opacity:0.3;fill:#ffffff" d="M 128.752,11.248005 A 112,112 0 0 0 16.752001,123.24801 112,112 0 0 0 16.793021,124.41793 112,112 0 0 1 128.752,13.248005 112,112 0 0 1 240.71098,124.07809 a 112,112 0 0 0 0.041,-0.83008 112,112 0 0 0 -112,-112.000005 z"/>
 <path style="opacity:0.2" d="m 128.752,235.24801 a 112,112 0 0 1 -111.999999,-112 112,112 0 0 1 0.04102,-1.16992 112,112 0 0 0 111.958979,111.16992 112,112 0 0 0 111.95898,-110.83008 112,112 0 0 1 0.041,0.83008 112,112 0 0 1 -112,112 z"/>
 <path style="opacity:0.25;fill:#ffffff" d="M 16.752001,127.73194 A 112.5345,118.26762 0 0 0 128.72953,235.24801 112.5345,118.26762 0 0 0 240.752,127.73194 Z"/>
 <g transform="translate(2.4382735,-4.5987284)">
  <g style="fill:#83b9f5;enable-background:new" transform="matrix(1.1267459,0,0,1.1267459,-1053.753,1824.4374)">
   <path style="fill:#83b9f5;fill-rule:evenodd" d="m 1024.0723,-1553.3262 v 7.5 h 10.3086 v -7.5 z"/>
   <path style="fill:#83b9f5;fill-rule:evenodd" d="m 1015.9238,-1541.2715 v 7.5 h 18.4571 v -7.5 z"/>
   <path style="fill:#83b9f5;fill-rule:evenodd" d="m 994.25586,-1529.2148 v 7.5 h 40.12504 v -7.5 z"/>
   <path style="fill:#83b9f5;fill-rule:evenodd" d="m 972.14844,-1517.1602 v 7.5 h 62.23246 v -7.5 z"/>
   <path style="fill:#83b9f5;fill-rule:evenodd" d="m 957.5625,-1505.1035 v 7.5 h 76.8184 v -7.5 z"/>
   <path style="fill:#83b9f5;fill-rule:evenodd" d="m 981.85742,-1493.0488 v 7.5 h 52.52348 v -7.5 z"/>
   <path style="fill:#83b9f5;fill-rule:evenodd" d="m 1003.2227,-1480.9941 v 7.5 h 31.1582 v -7.5 z"/>
   <path style="fill:#83b9f5;fill-rule:evenodd" d="m 994.78125,-1468.9375 v 7.5 h 39.59965 v -7.5 z"/>
   <path style="fill:#83b9f5;fill-rule:evenodd" d="m 1015.2461,-1457.4258 v 7.5 h 19.1348 v -7.5 z"/>
  </g>
  <g style="fill:#ff835d;enable-background:new" transform="matrix(-3.9402862,0,0,3.9402862,888.92069,-1833.949)">
   <path style="fill:#f38577" d="m 188.32192,478.62102 h 9.27502 l -4.63751,7.09692 z"/>
   <path style="fill:#f38577;fill-rule:evenodd" d="m 192.36328,479.92773 v 37.21431 h 1.19336 v -37.21431 z"/>
  </g>
  <path style="fill:#527eb2" d="m 148.26817,74.175961 c -1.71652,-0.04822 -3.1341,1.330227 -3.13365,3.047422 V 187.88872 c 0.001,2.48923 2.82495,3.92699 4.83885,2.464 l 76.21917,-55.33116 c 1.67772,-1.21686 1.67772,-3.71719 0,-4.93405 L 149.97337,74.756246 c -0.49697,-0.360729 -1.09127,-0.563128 -1.7052,-0.580285 z"/>
 </g>
 <g transform="translate(-277.75969,-19.005549)">
  <g transform="matrix(1.1267459,0,0,1.1267459,-1053.753,1824.4374)" style="fill:#83b9f5;enable-background:new">
   <path style="fill:#ffffff;fill-rule:evenodd;opacity:0.3" d="m 1281.8184,-1560.3122 1.1596,1.7751 h 30.1165 l 1.1596,-1.7751 z m 33.6682,19.7212 c -1.5234,-0.043 -2.7808,1.1818 -2.7804,2.7058 v 1.7751 c -4e-4,-1.524 1.257,-2.7489 2.7804,-2.7059 0.5449,0.015 1.0722,0.1946 1.5133,0.5148 l 67.6467,49.1078 c 0.4717,0.3422 0.7771,0.8036 0.9499,1.3018 0.3728,-1.0746 0.067,-2.3389 -0.9499,-3.0768 l -67.6467,-49.1078 c -0.4411,-0.3201 -0.9684,-0.4996 -1.5133,-0.5148 z m -42.734,0.052 v 1.775 h 10.3086 v -1.775 z m -8.1488,12.0542 v 1.775 h 18.4574 v -1.775 z m -21.6678,12.0559 v 1.7751 h 40.1252 v -1.7751 z m -22.1081,12.056 v 1.775 h 62.2333 v -1.775 z m -14.5867,12.0559 v 1.775 h 76.82 v -1.775 z m 24.2956,12.0542 v 1.7751 h 52.5244 v -1.7751 z m 21.3662,12.056 v 1.775 h 31.1582 v -1.775 z m -8.4418,12.0559 v 1.775 h 39.6 v -1.775 z m 20.4648,11.5117 v 1.775 h 19.1352 v -1.775 z"/>
   <path style="fill:#000306;fill-rule:evenodd;opacity:0.2" d="m 1281.8172,-1560.3119 14.1292,21.6227 v -1.7751 l -12.9695,-19.8476 z m 31.2762,0 -12.973,19.8528 v 1.7751 l 14.1326,-21.6279 z m -40.342,25.4969 v 1.775 h 10.3087 v -1.775 z m -8.1488,12.0559 v 1.775 h 18.4575 v -1.775 z m -21.6677,12.0559 v 1.7751 h 40.1252 v -1.7751 z m -22.1081,12.0543 v 1.775 h 62.2333 v -1.775 z m 164.7686,8.9825 c -0.1728,0.4983 -0.4782,0.9597 -0.9499,1.3018 l -67.6468,49.1079 c -1.7873,1.2984 -4.2927,0.022 -4.2936,-2.1876 v 1.775 c 9e-4,2.2092 2.5063,3.486 4.2936,2.1876 l 67.6468,-49.1078 c 1.0173,-0.7378 1.3227,-2.0022 0.9499,-3.0769 z m -179.3553,3.0751 v 1.7751 h 76.82 v -1.7751 z m 24.2956,12.0542 v 1.7751 h 52.5244 v -1.7751 z m 21.3662,12.0542 v 1.7751 h 31.1582 v -1.7751 z m -8.4418,12.0577 v 1.7751 h 39.6 v -1.7751 z m 20.4648,11.5117 v 1.775 h 19.1352 v -1.775 z m 32.0215,11.5359 v 1.775 h 4.174 v -1.775 z"/>
  </g>
 </g>
</svg>
