<svg xmlns="http://www.w3.org/2000/svg" xmlns:osb="http://www.openswatchbook.org/uri/2009/osb" width="256" height="256" version="1.1">
 <defs>
  <linearGradient id="linearGradient5606" osb:paint="solid">
   <stop id="stop5608" offset="0" style="stop-color:#000000"/>
  </linearGradient>
  <linearGradient id="linearGradient4526" osb:paint="solid">
   <stop id="stop4528" offset="0" style="stop-color:#ffffff"/>
  </linearGradient>
  <linearGradient id="linearGradient3600-4" osb:paint="gradient">
   <stop id="stop3602-7" offset="0" style="stop-color:#f4f4f4"/>
   <stop id="stop3604-6" offset="1" style="stop-color:#dbdbdb"/>
  </linearGradient>
  <clipPath id="clipPath999" clipPathUnits="userSpaceOnUse">
   <path style="fill:#5d5d5d" d="m 152,68 c -48.60106,0 -88,39.39894 -88,88 0,48.60106 39.39894,88 88,88 48.60106,0 88,-39.39894 88,-88 0,-48.60106 -39.39894,-88 -88,-88 z"/>
  </clipPath>
  <filter style="color-interpolation-filters:sRGB" id="filter11191" width="1.024" height="1.024" x="-.01" y="-.01">
   <feGaussianBlur id="feGaussianBlur11193" stdDeviation="1.12"/>
  </filter>
  <filter style="color-interpolation-filters:sRGB" id="filter11210" width="1.096" height="1.096" x="-.05" y="-.05">
   <feGaussianBlur id="feGaussianBlur11212" stdDeviation="4.48"/>
  </filter>
 </defs>
 <circle style="opacity:0.1;filter:url(#filter11210)" cx="128.752" cy="127.248" r="112"/>
 <circle style="opacity:0.1;filter:url(#filter11191)" cx="128.752" cy="125.248" r="112"/>
 <circle style="opacity:0.1" cx="128.752" cy="123.248" r="114"/>
 <circle style="fill:#e6e6e6" cx="-128.752" cy="-123.248" r="112" transform="scale(-1)"/>
 <path style="opacity:0.3;fill:#ffffff" d="M 128.752,11.248005 A 112,112 0 0 0 16.752001,123.24801 112,112 0 0 0 16.793021,124.41793 112,112 0 0 1 128.752,13.248005 112,112 0 0 1 240.71098,124.07809 a 112,112 0 0 0 0.041,-0.83008 112,112 0 0 0 -112,-112.000005 z"/>
 <path style="opacity:0.2" d="m 128.752,235.24801 a 112,112 0 0 1 -111.999999,-112 112,112 0 0 1 0.04102,-1.16992 112,112 0 0 0 111.958979,111.16992 112,112 0 0 0 111.95898,-110.83008 112,112 0 0 1 0.041,0.83008 112,112 0 0 1 -112,112 z"/>
 <path style="opacity:0.25;fill:#ffffff" d="M 16.752001,127.73194 A 112.5345,118.26762 0 0 0 128.72953,235.24801 112.5345,118.26762 0 0 0 240.752,127.73194 Z"/>
 <g transform="translate(2.4382735,-4.5987284)">
  <g style="fill:#83b9f5;enable-background:new" transform="matrix(1.1267459,0,0,1.1267459,-1053.753,1824.4374)">
   <path style="fill:#83b9f5;fill-rule:evenodd" d="m 1024.0723,-1553.3262 v 7.5 h 10.3086 v -7.5 z"/>
   <path style="fill:#83b9f5;fill-rule:evenodd" d="m 1015.9238,-1541.2715 v 7.5 h 18.4571 v -7.5 z"/>
   <path style="fill:#83b9f5;fill-rule:evenodd" d="m 994.25586,-1529.2148 v 7.5 h 40.12504 v -7.5 z"/>
   <path style="fill:#83b9f5;fill-rule:evenodd" d="m 972.14844,-1517.1602 v 7.5 h 62.23246 v -7.5 z"/>
   <path style="fill:#83b9f5;fill-rule:evenodd" d="m 957.5625,-1505.1035 v 7.5 h 76.8184 v -7.5 z"/>
   <path style="fill:#83b9f5;fill-rule:evenodd" d="m 981.85742,-1493.0488 v 7.5 h 52.52348 v -7.5 z"/>
   <path style="fill:#83b9f5;fill-rule:evenodd" d="m 1003.2227,-1480.9941 v 7.5 h 31.1582 v -7.5 z"/>
   <path style="fill:#83b9f5;fill-rule:evenodd" d="m 994.78125,-1468.9375 v 7.5 h 39.59965 v -7.5 z"/>
   <path style="fill:#83b9f5;fill-rule:evenodd" d="m 1015.2461,-1457.4258 v 7.5 h 19.1348 v -7.5 z"/>
  </g>
  <g transform="matrix(-3.9402862,0,0,3.9402862,888.92069,-1833.949)" style="fill:#ff835d;enable-background:new">
   <path style="fill:#f38577" d="m 188.32192,478.62102 h 9.27502 l -4.63751,7.09692 z"/>
   <path style="fill:#f38577;fill-rule:evenodd" d="m 192.36328,479.92773 v 37.21431 h 1.19336 v -37.21431 z"/>
  </g>
  <path d="m 148.26817,74.175961 c -1.71652,-0.04822 -3.1341,1.330227 -3.13365,3.047422 V 187.88872 c 0.001,2.48923 2.82495,3.92699 4.83885,2.464 l 76.21917,-55.33116 c 1.67772,-1.21686 1.67772,-3.71719 0,-4.93405 L 149.97337,74.756246 c -0.49697,-0.360729 -1.09127,-0.563128 -1.7052,-0.580285 z" style="fill:#527eb2"/>
 </g>
</svg>
