<svg xmlns="http://www.w3.org/2000/svg" xmlns:xlink="http://www.w3.org/1999/xlink" style="enable-background:new" width="256" height="256" version="1.0" viewBox="0 0 256 256">
 <title id="title4162">
  Adwaita Icon Template
 </title>
 <defs>
  <linearGradient id="linearGradient1038">
   <stop style="stop-color:#c0bfbc" id="stop1026" offset="0"/>
   <stop id="stop1028" offset=".045" style="stop-color:#ffffff"/>
   <stop id="stop1030" offset=".091" style="stop-color:#deddda"/>
   <stop id="stop1032" offset=".909" style="stop-color:#deddda"/>
   <stop style="stop-color:#ffffff" id="stop1034" offset=".955"/>
   <stop style="stop-color:#c0bfbc" id="stop1036" offset="1"/>
  </linearGradient>
  <clipPath id="clipPath2213" clipPathUnits="userSpaceOnUse">
   <rect style="fill:none;stroke:#000000" width="16" height="56" x="160" y="-188" rx="8" ry="8"/>
  </clipPath>
  <linearGradient id="linearGradient1005">
   <stop style="stop-color:#d0bb8e" id="stop1001" offset="0"/>
   <stop style="stop-color:#ffffff" id="stop1003" offset="1"/>
  </linearGradient>
  <linearGradient id="linearGradient1351-3">
   <stop id="stop1347" offset="0" style="stop-color:#d5d3cf"/>
   <stop id="stop1349-6" offset="1" style="stop-color:#ffffff"/>
  </linearGradient>
  <linearGradient id="linearGradient1159" x1="28" x2="116" y1="-276" y2="-276" gradientTransform="translate(-135.99999)" gradientUnits="userSpaceOnUse" xlink:href="#linearGradient1038"/>
  <linearGradient id="linearGradient1103" x1="128.817" x2="158.518" y1="-97.698" y2="-127.399" gradientTransform="matrix(0.07621224,-0.44419723,0.44419725,-0.07621223,77.725794,331.83807)" gradientUnits="userSpaceOnUse" xlink:href="#linearGradient1005"/>
  <clipPath id="clipPath1609-7" clipPathUnits="userSpaceOnUse">
   <path style="fill:#e74747" d="m 252,116 28,-28 v -8 h -36 v 36 z"/>
  </clipPath>
  <linearGradient id="linearGradient1130" x1="344" x2="340" y1="76" y2="72" gradientTransform="matrix(0.25,0,0,0.25,180,83)" gradientUnits="userSpaceOnUse" xlink:href="#linearGradient1351-3"/>
  <clipPath id="clipPath1062" clipPathUnits="userSpaceOnUse">
   <rect style="fill:#f6f5f4" width="88" height="108" x="-108" y="-116" rx="8" ry="8" transform="scale(-1)"/>
  </clipPath>
  <linearGradient id="linearGradient4336-3">
   <stop style="stop-color:#5884f4" id="stop4338-8" offset="0"/>
   <stop id="stop4344-3" offset=".278" style="stop-color:#5884f4"/>
   <stop style="stop-color:#2f5fdd" id="stop4346-3" offset=".278"/>
   <stop id="stop4350-1" offset=".707" style="stop-color:#2f5fdd"/>
   <stop id="stop4348-6" offset=".709" style="stop-color:#234db8"/>
   <stop style="stop-color:#234db8" id="stop4340-0" offset="1"/>
  </linearGradient>
  <linearGradient id="s" x1="151.899" x2="-27.383" y1="-1166.13" y2="-1398.941" gradientTransform="matrix(1.004,0,0,1.0093981,-184.45419,1421.4051)" gradientUnits="userSpaceOnUse" xlink:href="#q"/>
  <linearGradient id="q">
   <stop id="stop62" offset="0" stop-color="#0369a3"/>
   <stop id="stop64" offset="1" stop-color="#1c99e0"/>
  </linearGradient>
  <linearGradient id="r" x1="217" x2="37" y1="241" y2="11" gradientTransform="translate(-248.94719,-1.6837587)" gradientUnits="userSpaceOnUse">
   <stop id="stop67" offset="0" stop-color="#e6e6e6"/>
   <stop id="stop69" offset="1" stop-color="#fff"/>
  </linearGradient>
  <linearGradient id="p" x1="214" x2="38" y1="262" y2="30" gradientTransform="translate(-213.90965,-18.683758)" gradientUnits="userSpaceOnUse" xlink:href="#q"/>
  <linearGradient id="linearGradient1024" x1="214" x2="38" y1="262" y2="30" gradientUnits="userSpaceOnUse" xlink:href="#q"/>
  <linearGradient id="o" x2="0" y1="-581.638" y2="-577.573" gradientTransform="matrix(9.6839884,0,0,7.819649,-2041.0977,4661.2793)" gradientUnits="userSpaceOnUse">
   <stop id="stop56" offset="0" stop-color="#44adeb"/>
   <stop id="stop58" offset="1" stop-color="#aadcf7"/>
  </linearGradient>
  <linearGradient id="n" x2="0" y1="1173" y2="1178" gradientTransform="matrix(-8.7452806,0,0,7.923748,3202.0839,-9184.0543)" gradientUnits="userSpaceOnUse">
   <stop id="stop51" offset="0" stop-color="#666"/>
   <stop id="stop53" offset="1" stop-color="#333"/>
  </linearGradient>
  <linearGradient id="m" x1="346.696" x2="361.368" y1="-1576.519" y2="-1566.796" gradientTransform="matrix(0.98634841,0,0,0.97745612,-198.72705,1675.6786)" gradientUnits="userSpaceOnUse">
   <stop id="stop46" offset="0" stop-color="#fff"/>
   <stop id="stop48" offset="1" stop-color="#fff" stop-opacity="0"/>
  </linearGradient>
  <linearGradient id="l" x2="0" y1="1173.911" y2="1178" gradientTransform="matrix(8.7452806,0,0,7.923748,-2907.1214,-9181.6107)" gradientUnits="userSpaceOnUse">
   <stop id="stop41" offset="0" stop-color="#666"/>
   <stop id="stop43" offset="1" stop-color="#1a1a1a"/>
  </linearGradient>
  <linearGradient id="k" x2="0" y1="-1554.465" y2="-1562.367" gradientTransform="matrix(0.98634841,0,0,0.97745612,-198.72705,1675.6786)" gradientUnits="userSpaceOnUse">
   <stop id="stop36" offset="0" stop-color="#18a303"/>
   <stop id="stop38" offset="1" stop-color="#106802"/>
  </linearGradient>
  <linearGradient id="j" x2="0" y1="1173" y2="1178" gradientTransform="matrix(8.7452806,0,0,7.923748,-2907.1214,-9171.7384)" gradientUnits="userSpaceOnUse">
   <stop id="stop31" offset="0" stop-color="#0369a3"/>
   <stop id="stop33" offset="1" stop-color="#023f62"/>
  </linearGradient>
  <linearGradient id="i" x2="0" y1="-8.721" y2="-1.764" gradientTransform="matrix(0.98634841,0,0,0.97745612,-922.15171,126.65244)" gradientUnits="userSpaceOnUse" xlink:href="#g"/>
  <linearGradient id="g">
   <stop id="stop20" offset="0" stop-color="#666"/>
   <stop id="stop22" offset="1" stop-color="#666" stop-opacity=".5"/>
  </linearGradient>
  <radialGradient id="h" cx="-1535.304" cy="-842.908" r="10" gradientTransform="matrix(0,3.2409904,7.4808609,0,6490.9936,5088.6915)" gradientUnits="userSpaceOnUse">
   <stop id="stop25" offset="0" stop-color="#fff"/>
   <stop id="stop27" offset="1" stop-color="#00a8ff" stop-opacity="0"/>
  </radialGradient>
  <linearGradient id="f" x2="0" y1="-8.721" y2="2.989" gradientTransform="matrix(0.98634841,0,0,0.97745612,-922.15171,126.65244)" gradientUnits="userSpaceOnUse" xlink:href="#g"/>
  <linearGradient id="e" x2="0" y1="-6.308" y2="-.088" gradientTransform="matrix(0.98634841,0,0,0.97745612,-922.15171,126.65244)" gradientUnits="userSpaceOnUse" xlink:href="#d"/>
  <linearGradient id="d">
   <stop id="stop13" offset="0" stop-color="#808080"/>
   <stop id="stop15" offset="1" stop-color="#666"/>
  </linearGradient>
  <linearGradient id="c" x2="0" y1="-5.058" y2="1.412" gradientTransform="matrix(0.98634841,0,0,0.97745612,-922.15171,126.65244)" gradientUnits="userSpaceOnUse" xlink:href="#d"/>
  <linearGradient id="b" x2="0" y1="-1556.638" y2="-1550.512" gradientTransform="matrix(0.98634841,0,0,0.97745612,-198.72705,1675.6786)" gradientUnits="userSpaceOnUse">
   <stop id="stop7" offset="0" stop-color="#0369a3"/>
   <stop id="stop9" offset="1" stop-color="#047fc6"/>
  </linearGradient>
  <linearGradient id="a" x1="445.695" x2="441.388" y1="1103.578" y2="1099.82" gradientTransform="matrix(0,1.6753598,-2.73544,0,3193.1279,-626.07412)" gradientUnits="userSpaceOnUse">
   <stop id="stop2" offset="0" stop-color="#e9b913"/>
   <stop id="stop4" offset="1" stop-color="#ff0"/>
  </linearGradient>
  <linearGradient id="linearGradient1085" x2="0" y1="-581.638" y2="-577.573" gradientTransform="matrix(9.6839884,0,0,7.819649,-2041.0977,4661.2793)" gradientUnits="userSpaceOnUse">
   <stop id="stop1081" offset="0" stop-color="#44adeb"/>
   <stop id="stop1083" offset="1" stop-color="#aadcf7"/>
  </linearGradient>
  <linearGradient id="linearGradient1091" x2="0" y1="1173" y2="1178" gradientTransform="matrix(-8.7452806,0,0,7.923748,3202.0839,-9184.0543)" gradientUnits="userSpaceOnUse">
   <stop id="stop1087" offset="0" stop-color="#666"/>
   <stop id="stop1089" offset="1" stop-color="#333"/>
  </linearGradient>
  <linearGradient id="linearGradient1103-7" x2="0" y1="1173.911" y2="1178" gradientTransform="matrix(8.7452806,0,0,7.923748,-2907.1214,-9181.6107)" gradientUnits="userSpaceOnUse">
   <stop id="stop1099" offset="0" stop-color="#666"/>
   <stop id="stop1101" offset="1" stop-color="#1a1a1a"/>
  </linearGradient>
  <linearGradient id="linearGradient1109" x2="0" y1="-1554.465" y2="-1562.367" gradientTransform="matrix(0.98634841,0,0,0.97745612,-198.72705,1675.6786)" gradientUnits="userSpaceOnUse">
   <stop id="stop1105" offset="0" stop-color="#18a303"/>
   <stop id="stop1107" offset="1" stop-color="#106802"/>
  </linearGradient>
  <linearGradient id="linearGradient1115" x2="0" y1="1173" y2="1178" gradientTransform="matrix(8.7452806,0,0,7.923748,-2907.1214,-9171.7384)" gradientUnits="userSpaceOnUse">
   <stop id="stop1111" offset="0" stop-color="#0369a3"/>
   <stop id="stop1113" offset="1" stop-color="#023f62"/>
  </linearGradient>
  <linearGradient id="linearGradient1117" x2="0" y1="-8.721" y2="-1.764" gradientTransform="matrix(0.98634841,0,0,0.97745612,-708.24209,145.3362)" gradientUnits="userSpaceOnUse" xlink:href="#g"/>
  <radialGradient id="radialGradient1129" cx="-1535.304" cy="-842.908" r="10" gradientTransform="matrix(0,3.2409904,7.4808609,0,6490.9936,5088.6915)" gradientUnits="userSpaceOnUse">
   <stop id="stop1125" offset="0" stop-color="#fff"/>
   <stop id="stop1127" offset="1" stop-color="#00a8ff" stop-opacity="0"/>
  </radialGradient>
  <linearGradient id="linearGradient1131" x2="0" y1="-8.721" y2="2.989" gradientTransform="matrix(0.98634841,0,0,0.97745612,-708.24209,145.3362)" gradientUnits="userSpaceOnUse" xlink:href="#g"/>
  <linearGradient id="linearGradient1139" x2="0" y1="-6.308" y2="-.088" gradientTransform="matrix(0.98634841,0,0,0.97745612,-708.24209,145.3362)" gradientUnits="userSpaceOnUse" xlink:href="#d"/>
  <linearGradient id="linearGradient1147" x2="0" y1="-5.058" y2="1.412" gradientTransform="matrix(0.98634841,0,0,0.97745612,-708.24209,145.3362)" gradientUnits="userSpaceOnUse" xlink:href="#d"/>
  <linearGradient id="linearGradient1159-5" x2="0" y1="-1556.638" y2="-1550.512" gradientTransform="matrix(0.98634841,0,0,0.97745612,-198.72705,1675.6786)" gradientUnits="userSpaceOnUse">
   <stop id="stop1155" offset="0" stop-color="#0369a3"/>
   <stop id="stop1157" offset="1" stop-color="#047fc6"/>
  </linearGradient>
  <linearGradient id="linearGradient1209" x1="151.899" x2="-27.383" y1="-1166.13" y2="-1398.941" gradientTransform="matrix(0.87716491,0,0,0.88188107,277.17946,1250.7691)" gradientUnits="userSpaceOnUse" xlink:href="#q"/>
  <filter style="color-interpolation-filters:sRGB" id="filter1087" width="1.03" height="1.024" x="-.01" y="-.01">
   <feGaussianBlur id="feGaussianBlur1089" stdDeviation="1.099"/>
  </filter>
  <linearGradient id="b-7" x2="0" y1="-1556.638" y2="-1550.512" gradientTransform="matrix(0.98634841,0,0,0.97745612,-198.72705,1675.6786)" gradientUnits="userSpaceOnUse">
   <stop id="stop7-5" offset="0" stop-color="#0369a3"/>
   <stop id="stop9-3" offset="1" stop-color="#047fc6"/>
  </linearGradient>
  <linearGradient id="c-5" x2="0" y1="-5.058" y2="1.412" gradientTransform="matrix(0.84764322,0,0,0.84000141,-599.1981,118.43222)" gradientUnits="userSpaceOnUse" xlink:href="#d"/>
  <linearGradient id="e-9" x2="0" y1="-6.308" y2="-.088" gradientTransform="matrix(0.84764322,0,0,0.84000141,-599.1981,118.43222)" gradientUnits="userSpaceOnUse" xlink:href="#d"/>
  <linearGradient id="f-1" x2="0" y1="-8.721" y2="2.989" gradientTransform="matrix(0.84764322,0,0,0.84000141,-599.1981,118.43222)" gradientUnits="userSpaceOnUse" xlink:href="#g"/>
  <radialGradient id="h-0" cx="-1535.304" cy="-842.908" r="10" gradientTransform="matrix(0,3.2409904,7.4808609,0,6490.9936,5088.6915)" gradientUnits="userSpaceOnUse">
   <stop id="stop25-9" offset="0" stop-color="#fff"/>
   <stop id="stop27-3" offset="1" stop-color="#00a8ff" stop-opacity="0"/>
  </radialGradient>
  <linearGradient id="i-6" x2="0" y1="-8.721" y2="-1.764" gradientTransform="matrix(0.84764322,0,0,0.84000141,-599.1981,118.43222)" gradientUnits="userSpaceOnUse" xlink:href="#g"/>
  <linearGradient id="j-6" x2="0" y1="1173" y2="1178" gradientTransform="matrix(8.7452806,0,0,7.923748,-2907.1214,-9171.7384)" gradientUnits="userSpaceOnUse">
   <stop id="stop31-1" offset="0" stop-color="#0369a3"/>
   <stop id="stop33-8" offset="1" stop-color="#023f62"/>
  </linearGradient>
  <linearGradient id="k-7" x2="0" y1="-1554.465" y2="-1562.367" gradientTransform="matrix(0.98634841,0,0,0.97745612,-198.72705,1675.6786)" gradientUnits="userSpaceOnUse">
   <stop id="stop36-9" offset="0" stop-color="#18a303"/>
   <stop id="stop38-2" offset="1" stop-color="#106802"/>
  </linearGradient>
  <linearGradient id="l-0" x2="0" y1="1173.911" y2="1178" gradientTransform="matrix(8.7452806,0,0,7.923748,-2907.1214,-9181.6107)" gradientUnits="userSpaceOnUse">
   <stop id="stop41-2" offset="0" stop-color="#666"/>
   <stop id="stop43-3" offset="1" stop-color="#1a1a1a"/>
  </linearGradient>
  <linearGradient id="n-9" x2="0" y1="1173" y2="1178" gradientTransform="matrix(-8.7452806,0,0,7.923748,3202.0839,-9184.0543)" gradientUnits="userSpaceOnUse">
   <stop id="stop51-2" offset="0" stop-color="#666"/>
   <stop id="stop53-2" offset="1" stop-color="#333"/>
  </linearGradient>
  <linearGradient id="o-8" x2="0" y1="-581.638" y2="-577.573" gradientTransform="matrix(9.6839884,0,0,7.819649,-2041.0977,4661.2793)" gradientUnits="userSpaceOnUse">
   <stop id="stop56-9" offset="0" stop-color="#44adeb"/>
   <stop id="stop58-7" offset="1" stop-color="#aadcf7"/>
  </linearGradient>
  <linearGradient id="linearGradient1129" x2="0" y1="-1556.638" y2="-1550.512" gradientTransform="matrix(0.98634841,0,0,0.97745612,-198.72705,1675.6786)" gradientUnits="userSpaceOnUse">
   <stop id="stop1125-3" offset="0" stop-color="#0369a3"/>
   <stop id="stop1127-6" offset="1" stop-color="#047fc6"/>
  </linearGradient>
  <radialGradient id="radialGradient1157" cx="-1535.304" cy="-842.908" r="10" gradientTransform="matrix(0,3.2409904,7.4808609,0,6490.9936,5088.6915)" gradientUnits="userSpaceOnUse">
   <stop id="stop1153" offset="0" stop-color="#fff"/>
   <stop id="stop1155-1" offset="1" stop-color="#00a8ff" stop-opacity="0"/>
  </radialGradient>
  <linearGradient id="linearGradient1171" x2="0" y1="1173" y2="1178" gradientTransform="matrix(8.7452806,0,0,7.923748,-2907.1214,-9171.7384)" gradientUnits="userSpaceOnUse">
   <stop id="stop1167" offset="0" stop-color="#0369a3"/>
   <stop id="stop1169" offset="1" stop-color="#023f62"/>
  </linearGradient>
  <linearGradient id="linearGradient1178" x2="0" y1="-1554.465" y2="-1562.367" gradientTransform="matrix(0.98634841,0,0,0.97745612,-198.72705,1675.6786)" gradientUnits="userSpaceOnUse">
   <stop id="stop1174" offset="0" stop-color="#18a303"/>
   <stop id="stop1176" offset="1" stop-color="#106802"/>
  </linearGradient>
  <linearGradient id="linearGradient1185" x2="0" y1="1173.911" y2="1178" gradientTransform="matrix(8.7452806,0,0,7.923748,-2907.1214,-9181.6107)" gradientUnits="userSpaceOnUse">
   <stop id="stop1181" offset="0" stop-color="#666"/>
   <stop id="stop1183" offset="1" stop-color="#1a1a1a"/>
  </linearGradient>
  <linearGradient id="linearGradient1199" x2="0" y1="1173" y2="1178" gradientTransform="matrix(-8.7452806,0,0,7.923748,3202.0839,-9184.0543)" gradientUnits="userSpaceOnUse">
   <stop id="stop1195" offset="0" stop-color="#666"/>
   <stop id="stop1197" offset="1" stop-color="#333"/>
  </linearGradient>
  <linearGradient id="linearGradient1206" x2="0" y1="-581.638" y2="-577.573" gradientTransform="matrix(9.6839884,0,0,7.819649,-2041.0977,4661.2793)" gradientUnits="userSpaceOnUse">
   <stop id="stop1202" offset="0" stop-color="#44adeb"/>
   <stop id="stop1204" offset="1" stop-color="#aadcf7"/>
  </linearGradient>
  <linearGradient id="p-2" x1="214" x2="38" y1="262" y2="30" gradientTransform="matrix(0.85937506,0,0,0.85937506,9.4474601,-6.4660842)" gradientUnits="userSpaceOnUse" xlink:href="#q"/>
  <linearGradient id="g-8" x1="151.899" x2="-27.383" y1="-1166.13" y2="-1398.941" gradientTransform="matrix(1.0040189,0,0,1.0094443,-180.23849,1412.7117)" gradientUnits="userSpaceOnUse" xlink:href="#c-7"/>
  <linearGradient id="c-7">
   <stop id="stop8" offset="0" stop-color="#8e03a3"/>
   <stop id="stop10" offset="1" stop-color="#c254d2"/>
  </linearGradient>
  <linearGradient id="f-9" x1="693" x2="513" y1="-2347.013" y2="-2577.013" gradientTransform="matrix(1.0000188,0,0,1.0000458,-720.74116,2577.6892)" gradientUnits="userSpaceOnUse">
   <stop id="stop31-2" offset="0" stop-color="#e6e6e6"/>
   <stop id="stop33-0" offset="1" stop-color="#fff"/>
  </linearGradient>
  <linearGradient id="e-2" x1="945.608" x2="739.9" y1="126.645" y2="-127.309" gradientTransform="matrix(0.80354981,0,0,0.8035715,-375.17548,105.95152)" gradientUnits="userSpaceOnUse" xlink:href="#c-7"/>
  <linearGradient id="d-3" x1="891.005" x2="793.005" y1="22.998" y2="22.998" gradientTransform="matrix(0.80354981,0,0,0.8035715,-375.17548,105.95152)" gradientUnits="userSpaceOnUse">
   <stop id="stop13-7" offset="0" stop-color="#e196fb"/>
   <stop id="stop15-5" offset=".13" stop-color="#f4c7fa"/>
   <stop id="stop17" offset=".314" stop-color="#e091f3"/>
   <stop id="stop19" offset=".441" stop-color="#d764e9"/>
   <stop id="stop21" offset=".684" stop-color="#e7adf0"/>
   <stop id="stop23" offset=".756" stop-color="#e6a9f8"/>
   <stop id="stop25-92" offset=".88" stop-color="#e595f2"/>
   <stop id="stop27-2" offset="1" stop-color="#f2cbf8"/>
  </linearGradient>
  <linearGradient id="b-8" x1="948.638" x2="741.392" y1="125.847" y2="-126.308" gradientTransform="matrix(0.80354981,0,0,0.8035715,-375.17548,105.95152)" gradientUnits="userSpaceOnUse" xlink:href="#c-7"/>
  <radialGradient id="a-9" cx="518.854" cy="730.484" r="22.89" gradientTransform="matrix(1.6160994,0,0,0.45440361,-536.82469,-222.1892)" gradientUnits="userSpaceOnUse">
   <stop id="stop2-7" offset="0" stop-color="#dc85e9"/>
   <stop id="stop4-3" offset="1" stop-color="#f2cbf8"/>
  </radialGradient>
  <linearGradient id="h-6" x1="843.888" x2="843.888" y1="32.749" y2="18.5" gradientTransform="matrix(1.0000188,0,0,1.0000458,-718.01395,127.94336)" gradientUnits="userSpaceOnUse">
   <stop id="stop37" offset="0" stop-color="#fff"/>
   <stop id="stop39" offset="1" stop-color="#a00" stop-opacity="0"/>
  </linearGradient>
  <linearGradient id="linearGradient957" x1="843.888" x2="843.888" y1="32.749" y2="18.5" gradientTransform="matrix(1.0000188,0,0,1.0000458,-718.01395,127.94336)" gradientUnits="userSpaceOnUse" xlink:href="#h-6"/>
  <linearGradient id="k-9" x1="151.899" x2="-27.383" y1="-1166.13" y2="-1398.941" gradientTransform="matrix(1.0040189,0,0,1.0094443,-180.2843,1409.6287)" gradientUnits="userSpaceOnUse" xlink:href="#b-3"/>
  <linearGradient id="b-3">
   <stop id="stop2004" offset="0" stop-color="#18a303"/>
   <stop id="stop2006" offset="1" stop-color="#43c330"/>
  </linearGradient>
  <linearGradient id="j-1" x1="693" x2="513" y1="-2347.013" y2="-2577.013" gradientTransform="matrix(1.0000188,0,0,1.0000458,-720.78696,2574.6062)" gradientUnits="userSpaceOnUse">
   <stop id="stop2044" offset="0" stop-color="#e6e6e6"/>
   <stop id="stop2046" offset="1" stop-color="#fff"/>
  </linearGradient>
  <linearGradient id="a-94" x1="934" x2="758" y1="116" y2="-116" gradientUnits="userSpaceOnUse" xlink:href="#b-3"/>
  <linearGradient id="c-78" x1="860.125" x2="860.125" y1="79.996" y2="27.996" gradientUnits="userSpaceOnUse">
   <stop id="stop2009" offset="0" stop-color="#727272"/>
   <stop id="stop2011" offset="1" stop-color="#9a9a9a"/>
  </linearGradient>
  <linearGradient id="d-4" x1="829.361" x2="829.361" y1="-1064.799" y2="-1082.341" gradientTransform="matrix(1.897436,0,0,2.6,-732.77,2843.4542)" gradientUnits="userSpaceOnUse">
   <stop id="stop2014" offset="0" stop-color="#e4e4e4"/>
   <stop id="stop2016" offset="1" stop-color="#f9f9f9"/>
  </linearGradient>
  <linearGradient id="e-5" x1="525.639" x2="525.639" y1="-1078.644" y2="-1068.787" gradientTransform="matrix(1.428572,0,0,-3.1111,94.142,-3282.2079)" gradientUnits="userSpaceOnUse">
   <stop id="stop2019" offset="0" stop-color="#63bbee"/>
   <stop id="stop2021" offset="1" stop-color="#aadcf7"/>
  </linearGradient>
  <linearGradient id="f-0" x1="869.313" x2="869.313" y1="50.059" y2="31.997" gradientUnits="userSpaceOnUse">
   <stop id="stop2024" offset="0" stop-color="#a33e03"/>
   <stop id="stop2026" offset="1" stop-color="#c15414"/>
  </linearGradient>
  <linearGradient id="g-3" x1="525.639" x2="525.639" y1="-1078.644" y2="-1068.787" gradientTransform="matrix(1.428572,0,0,-4.22222,110.142,-4480.1278)" gradientUnits="userSpaceOnUse">
   <stop id="stop2029" offset="0" stop-color="#f09e6f"/>
   <stop id="stop2031" offset="1" stop-color="#f9cfb5"/>
  </linearGradient>
  <linearGradient id="h-61" x1="525.639" x2="525.639" y1="-1078.644" y2="-1068.787" gradientTransform="matrix(1.428572,0,0,-1.777768,126.142,-1844.6879)" gradientUnits="userSpaceOnUse">
   <stop id="stop2034" offset="0" stop-color="#f5ce53"/>
   <stop id="stop2036" offset="1" stop-color="#fde9a9"/>
  </linearGradient>
  <linearGradient id="i-0" x1="525.639" x2="525.639" y1="-1078.644" y2="-1068.787" gradientTransform="matrix(1.428572,0,0,-2.66666,142.142,-2803.0279)" gradientUnits="userSpaceOnUse">
   <stop id="stop2039" offset="0" stop-color="#8ee780"/>
   <stop id="stop2041" offset="1" stop-color="#ccf4c6"/>
  </linearGradient>
  <linearGradient id="linearGradient2860" x1="39.328" x2="215.262" y1="126.85" y2="126.85" gradientUnits="userSpaceOnUse" xlink:href="#a"/>
  <linearGradient id="b-6" x1="151.899" x2="-27.383" y1="-1166.13" y2="-1398.941" gradientTransform="matrix(1.0040189,0,0,1.0094443,-193.89259,1433.9969)" gradientUnits="userSpaceOnUse">
   <stop id="stop3277" offset="0" stop-color="#c99c00"/>
   <stop id="stop3279" offset="1" stop-color="#e9b913"/>
  </linearGradient>
  <linearGradient id="a-3" x1="693" x2="513" y1="-2347.013" y2="-2577.013" gradientTransform="matrix(1.0000188,0,0,1.0000458,-734.39525,2598.9744)" gradientUnits="userSpaceOnUse">
   <stop id="stop3272" offset="0" stop-color="#e6e6e6"/>
   <stop id="stop3274" offset="1" stop-color="#fff"/>
  </linearGradient>
  <linearGradient id="linearGradient3923" x1="203.893" x2="57.342" y1="222.424" y2="24.629" gradientUnits="userSpaceOnUse" xlink:href="#b-5"/>
  <linearGradient id="f-2" x1="151.899" x2="-27.383" y1="-1166.13" y2="-1398.941" gradientTransform="matrix(1.0040189,0,0,1.0094443,-174.90429,1415.9581)" gradientUnits="userSpaceOnUse" xlink:href="#b-0"/>
  <linearGradient id="b-0">
   <stop id="stop3" offset="0" stop-color="#a33e03"/>
   <stop id="stop5" offset="1" stop-color="#d36118"/>
  </linearGradient>
  <linearGradient id="e-6" x1="693" x2="513" y1="-2347.013" y2="-2577.013" gradientTransform="matrix(1.0000188,0,0,1.0000458,-714.77401,2581.2521)" gradientUnits="userSpaceOnUse">
   <stop id="stop18" offset="0" stop-color="#e6e6e6"/>
   <stop id="stop20-1" offset="1" stop-color="#fff"/>
  </linearGradient>
  <linearGradient id="d-5" x1="940.353" x2="757.401" y1="119.732" y2="-114.91" gradientTransform="matrix(0.84109879,0,0,0.8411215,-586.92155,140.11625)" gradientUnits="userSpaceOnUse">
   <stop id="stop13-5" offset="0" stop-color="#6e6e6e"/>
   <stop id="stop15-4" offset="1" stop-color="#b0b0b0"/>
  </linearGradient>
  <linearGradient id="c-76" x1="934.9" x2="757.078" y1="117.548" y2="-112.672" gradientTransform="matrix(0.84109879,0,0,0.8411215,-586.92155,138.434)" gradientUnits="userSpaceOnUse">
   <stop id="stop8-5" offset="0" stop-color="#18a303"/>
   <stop id="stop10-6" offset="1" stop-color="#106802"/>
  </linearGradient>
  <linearGradient id="a-93" x1="933.151" x2="755.434" y1="115.87" y2="-112.254" gradientTransform="matrix(0.84109879,0,0,0.8411215,-586.92155,138.434)" gradientUnits="userSpaceOnUse" xlink:href="#b-0"/>
  <linearGradient id="f-4" x1="151.899" x2="-27.383" y1="-1166.13" y2="-1398.941" gradientTransform="matrix(1.004,0,0,1.0093981,-169.83954,1411.1518)" gradientUnits="userSpaceOnUse" xlink:href="#b-5"/>
  <linearGradient id="b-5">
   <stop id="stop4405" offset="0" stop-color="#535353"/>
   <stop id="stop4407" offset="1" stop-color="#7e7e7e"/>
  </linearGradient>
  <linearGradient id="e-25" x1="217" x2="37" y1="240.949" y2="10.949" gradientTransform="translate(-234.33254,-11.886365)" gradientUnits="userSpaceOnUse">
   <stop id="stop4418" offset="0" stop-color="#e6e6e6"/>
   <stop id="stop4420" offset="1" stop-color="#fff"/>
  </linearGradient>
  <linearGradient id="d-47" x1="232.729" x2="23.632" y1="256.009" y2=".324" gradientTransform="matrix(0.81818183,0,0,0.81818183,23.922791,38.052069)" gradientUnits="userSpaceOnUse" xlink:href="#b-5"/>
  <linearGradient id="c-4" x1="3783.3" x2="3775.677" y1="-1444.328" y2="-1451.951" gradientTransform="matrix(-0.81818183,0,0,0.81818183,3178.0137,1432.756)" gradientUnits="userSpaceOnUse">
   <stop id="stop4410" offset="0"/>
   <stop id="stop4412" offset=".455" stop-opacity=".361"/>
   <stop id="stop4414" offset="1" stop-opacity="0"/>
  </linearGradient>
  <linearGradient id="a-4" x1="231.068" x2="23.928" y1="257.138" y2="1.666" gradientTransform="matrix(0.81818183,0,0,0.81818183,23.922791,38.052069)" gradientUnits="userSpaceOnUse" xlink:href="#b-5"/>
 </defs>
 <g style="filter:url(#filter1087);opacity:0.1">
  <path d="m 215.26109,49.000104 c -0.0208,-2.502788 -0.0109,-5.157582 -0.10742,-7.310546 -0.15623,-3.483972 -0.42947,-6.526832 -0.87109,-9.183594 -0.44162,-2.656762 -1.05218,-4.927802 -1.88672,-6.867188 -0.41727,-0.969692 -0.89012,-1.857026 -1.42578,-2.667968 -0.53566,-0.810943 -1.13329,-1.545017 -1.80078,-2.210938 -0.66749,-0.665921 -1.40599,-1.262246 -2.21875,-1.796875 -0.81277,-0.534629 -1.7004,-1.006762 -2.67188,-1.423828 -1.94296,-0.834132 -4.21652,-1.448276 -6.875,-1.894531 -1.89802,-0.318605 -4.24693,-0.469801 -6.55664,-0.638672 h -29.07226 c -5.97415,0 -6.23537,6.215266 -3.07618,9.388672 v 0.002 l 46.46875,46.681641 c 3.79173,3.806692 10.09375,2.902845 10.09375,-3.101563 z"/>
  <path d="m 63.956412,14.992292 c -2.3629,0.169625 -4.74725,0.327148 -6.67969,0.652344 -2.65172,0.446238 -4.91765,1.058463 -6.85352,1.892578 -0.96793,0.417057 -1.85259,0.89116 -2.66211,1.425781 -0.80951,0.534621 -1.54419,1.130961 -2.20898,1.796875 -0.66479,0.665915 -1.25921,1.4 -1.79297,2.210938 -0.53376,0.810937 -1.00545,1.698278 -1.42187,2.667968 -0.83285,1.939382 -1.44496,4.210416 -1.89063,6.867188 -0.44567,2.656772 -0.72647,5.699593 -0.89453,9.183594 -0.16806,3.484 -0.22461,7.409011 -0.22461,11.830078 v 73.005854 73.00782 c 0,4.42106 0.05655,8.34607 0.22461,11.83007 0.16806,3.484 0.44886,6.52683 0.89453,9.1836 0.44567,2.65677 1.05778,4.92585 1.89063,6.86523 0.41642,0.96969 0.88811,1.85703 1.42187,2.66797 0.53376,0.81094 1.12818,1.54698 1.79297,2.21289 0.66479,0.66592 1.39947,1.26226 2.20898,1.79688 0.80952,0.53462 1.69418,1.00677 2.66211,1.42382 1.93587,0.83412 4.2018,1.44634 6.85352,1.89258 2.65172,0.44624 5.68889,0.72633 9.16601,0.89453 3.47713,0.1682 7.39456,0.22461 11.80665,0.22461 h 98.156248 c 4.41209,0 8.33293,-0.0564 11.81445,-0.22461 3.48152,-0.16821 6.52512,-0.44827 9.18359,-0.89453 2.65848,-0.44625 4.93204,-1.05844 6.875,-1.89258 0.97148,-0.41706 1.85911,-0.88919 2.67188,-1.42382 0.81276,-0.53463 1.55126,-1.13096 2.21875,-1.79688 0.66749,-0.66592 1.26512,-1.40195 1.80078,-2.21289 0.53566,-0.81094 1.00851,-1.69828 1.42578,-2.66797 0.83454,-1.93938 1.4451,-4.20847 1.88672,-6.86523 0.44162,-2.65676 0.71486,-5.69962 0.87109,-9.1836 0.093,-2.07473 0.0813,-4.64575 0.10352,-7.04492 V 101.51964 c 0,-3.690525 -0.44611,-5.40064 -3.05664,-8.00977 L 137.65758,19.000104 c -2.61053,-2.608254 -4.60866,-3.953536 -8.30078,-3.957031 z"/>
 </g>
 <path style="opacity:0.2;fill:#ffffff" d="M 160.56055 15.173828 C 160.31397 15.217229 160.01793 15.211308 159.79688 15.279297 C 159.22416 15.455444 158.7377 15.711211 158.33008 16.027344 C 157.92246 16.343477 157.59523 16.720667 157.34375 17.140625 C 157.09227 17.560583 156.91679 18.022143 156.8125 18.509766 C 156.60391 19.485012 156.67943 20.560902 157.00586 21.589844 C 157.33229 22.618785 157.90942 23.60118 158.69922 24.394531 L 158.69922 24.396484 L 205.16797 71.078125 C 206.1159 72.029798 207.21972 72.68816 208.34375 73.044922 C 209.46778 73.401683 210.61198 73.457369 211.63672 73.207031 C 212.14909 73.081862 212.6305 72.878839 213.06641 72.599609 C 213.50232 72.32038 213.89177 71.96411 214.2168 71.529297 C 214.54183 71.094484 214.8027 70.582155 214.98242 69.990234 C 215.16215 69.398314 215.26172 68.727114 215.26172 67.976562 L 215.26172 49.699219 C 215.01075 18.797456 210.03634 15.173828 176.40625 15.173828 L 160.56055 15.173828 z"/>
 <g style="opacity:0.1">
  <path d="m 215.26109,49.000104 c -0.0208,-2.502788 -0.0109,-5.157582 -0.10742,-7.310546 -0.15623,-3.483972 -0.42947,-6.526832 -0.87109,-9.183594 -0.44162,-2.656762 -1.05218,-4.927802 -1.88672,-6.867188 -0.41727,-0.969692 -0.89012,-1.857026 -1.42578,-2.667968 -0.53566,-0.810943 -1.13329,-1.545017 -1.80078,-2.210938 -0.66749,-0.665921 -1.40599,-1.262246 -2.21875,-1.796875 -0.81277,-0.534629 -1.7004,-1.006762 -2.67188,-1.423828 -1.94296,-0.834132 -4.21652,-1.448276 -6.875,-1.894531 -1.89802,-0.318605 -4.24693,-0.469801 -6.55664,-0.638672 h -29.07226 c -5.97415,0 -6.23537,6.215266 -3.07618,9.388672 v 0.002 l 46.46875,46.681641 c 3.79173,3.806692 10.09375,2.902845 10.09375,-3.101563 z"/>
  <path d="m 63.956412,14.992292 c -2.3629,0.169625 -4.74725,0.327148 -6.67969,0.652344 -2.65172,0.446238 -4.91765,1.058463 -6.85352,1.892578 -0.96793,0.417057 -1.85259,0.89116 -2.66211,1.425781 -0.80951,0.534621 -1.54419,1.130961 -2.20898,1.796875 -0.66479,0.665915 -1.25921,1.4 -1.79297,2.210938 -0.53376,0.810937 -1.00545,1.698278 -1.42187,2.667968 -0.83285,1.939382 -1.44496,4.210416 -1.89063,6.867188 -0.44567,2.656772 -0.72647,5.699593 -0.89453,9.183594 -0.16806,3.484 -0.22461,7.409011 -0.22461,11.830078 v 73.005854 73.00782 c 0,4.42106 0.05655,8.34607 0.22461,11.83007 0.16806,3.484 0.44886,6.52683 0.89453,9.1836 0.44567,2.65677 1.05778,4.92585 1.89063,6.86523 0.41642,0.96969 0.88811,1.85703 1.42187,2.66797 0.53376,0.81094 1.12818,1.54698 1.79297,2.21289 0.66479,0.66592 1.39947,1.26226 2.20898,1.79688 0.80952,0.53462 1.69418,1.00677 2.66211,1.42382 1.93587,0.83412 4.2018,1.44634 6.85352,1.89258 2.65172,0.44624 5.68889,0.72633 9.16601,0.89453 3.47713,0.1682 7.39456,0.22461 11.80665,0.22461 h 98.156248 c 4.41209,0 8.33293,-0.0564 11.81445,-0.22461 3.48152,-0.16821 6.52512,-0.44827 9.18359,-0.89453 2.65848,-0.44625 4.93204,-1.05844 6.875,-1.89258 0.97148,-0.41706 1.85911,-0.88919 2.67188,-1.42382 0.81276,-0.53463 1.55126,-1.13096 2.21875,-1.79688 0.66749,-0.66592 1.26512,-1.40195 1.80078,-2.21289 0.53566,-0.81094 1.00851,-1.69828 1.42578,-2.66797 0.83454,-1.93938 1.4451,-4.20847 1.88672,-6.86523 0.44162,-2.65676 0.71486,-5.69962 0.87109,-9.1836 0.093,-2.07473 0.0813,-4.64575 0.10352,-7.04492 V 101.51964 c 0,-3.690525 -0.44611,-5.40064 -3.05664,-8.00977 L 137.65758,19.000104 c -2.61053,-2.608254 -4.60866,-3.953536 -8.30078,-3.957031 z"/>
 </g>
 <g style="fill:url(#linearGradient2860)">
  <path style="fill:url(#linearGradient3923)" d="M 78.255859 15.173828 C 71.64242 15.173828 66.135442 15.302211 61.552734 15.742188 C 59.261381 15.962173 57.201206 16.258924 55.349609 16.658203 C 53.498013 17.057483 51.853608 17.558824 50.396484 18.183594 C 48.939361 18.808363 47.668481 19.556667 46.560547 20.453125 C 45.452612 21.349583 44.509107 22.393077 43.705078 23.607422 C 42.952846 24.743537 42.344895 26.062126 41.820312 27.515625 C 41.605238 28.153659 41.433319 28.876148 41.253906 29.578125 C 40.942712 30.714092 40.607227 31.802823 40.386719 33.123047 C 40.288945 33.748098 40.262873 34.574956 40.181641 35.242188 C 39.91415 37.297859 39.670189 39.409165 39.548828 41.908203 C 39.471092 43.567812 39.444224 45.477034 39.423828 47.421875 C 39.423685 47.435556 39.423971 47.449205 39.423828 47.462891 C 39.402842 48.281833 39.367358 49.038955 39.355469 49.902344 C 39.343947 50.739091 39.349699 51.684892 39.345703 52.564453 C 39.339597 52.883776 39.328125 53.162609 39.328125 53.519531 L 39.328125 126.52539 L 39.328125 199.5332 C 39.328125 203.95426 39.384674 207.87928 39.552734 211.36328 C 39.720794 214.84728 40.001596 217.89009 40.447266 220.54688 C 40.892936 223.20364 41.505041 225.47273 42.337891 227.41211 C 42.754311 228.3818 43.226006 229.26914 43.759766 230.08008 C 44.293526 230.89102 44.887944 231.62706 45.552734 232.29297 C 46.217524 232.95889 46.952209 233.55522 47.761719 234.08984 C 48.571239 234.62446 49.455898 235.09662 50.423828 235.51367 C 52.359698 236.34779 54.625624 236.96001 57.277344 237.40625 C 59.929064 237.85249 62.966239 238.13258 66.443359 238.30078 C 69.920489 238.46898 73.83791 238.52539 78.25 238.52539 L 176.40625 238.52539 C 180.81834 238.52539 184.73918 238.46899 188.2207 238.30078 C 191.70222 238.13257 194.74583 237.85251 197.4043 237.40625 C 200.06278 236.96 202.33634 236.34781 204.2793 235.51367 C 205.25078 235.09661 206.1384 234.62447 206.95117 234.08984 C 207.76393 233.55521 208.50243 232.95889 209.16992 232.29297 C 209.83741 231.62705 210.43504 230.89102 210.9707 230.08008 C 211.50636 229.26914 211.97921 228.3818 212.39648 227.41211 C 213.23102 225.47273 213.84158 223.20363 214.2832 220.54688 C 214.72482 217.89012 214.99807 214.84726 215.1543 211.36328 C 215.2473 209.28855 215.23559 206.71753 215.25781 204.31836 L 215.25781 101.51953 C 215.25781 97.829008 214.8117 96.118896 212.20117 93.509766 L 137.6582 19 C 136.8517 18.194197 136.10136 17.736216 135.34375 17.173828 C 133.96502 16.150375 132.49061 15.369433 130.63867 15.173828 L 78.255859 15.173828 z M 160.56055 15.173828 C 159.02068 15.444864 157.92732 16.156525 157.33008 17.173828 C 156.09726 19.273729 156.73438 22.420849 158.69922 24.394531 L 158.69922 24.396484 L 205.16797 71.078125 C 208.9597 74.884817 215.26172 73.980971 215.26172 67.976562 L 215.26172 52.361328 L 215.26172 50.361328 C 215.22129 46.418981 215.11292 42.913051 214.88867 39.794922 C 214.66443 36.676793 214.32369 33.947198 213.81836 31.558594 C 213.31302 29.16999 212.64346 27.120959 211.75977 25.367188 C 211.31792 24.490302 210.82226 23.687105 210.26758 22.951172 C 209.7129 22.215239 209.09959 21.548222 208.41992 20.941406 C 207.74025 20.33459 206.99455 19.788364 206.17773 19.298828 C 205.36092 18.809292 204.47198 18.37628 203.50586 17.992188 C 201.57361 17.224001 199.33095 16.653759 196.72852 16.236328 C 194.12608 15.818897 191.16482 15.553947 187.79492 15.392578 C 184.42503 15.231209 180.64674 15.173828 176.41211 15.173828 L 160.56055 15.173828 z"/>
  <path style="fill:url(#linearGradient2860)" d="M 40.386719 33.123047 C 40.607227 31.802823 40.942712 30.714092 41.253906 29.578125 C 40.999171 30.574815 40.637281 31.373121 40.447266 32.505859 C 40.417312 32.684421 40.415199 32.940981 40.386719 33.123047 z"/>
  <path style="fill:url(#linearGradient2860)" d="M 39.548828 41.908203 C 39.670189 39.409165 39.91415 37.297859 40.181641 35.242188 C 39.934482 37.272317 39.670721 39.243506 39.552734 41.689453 C 39.549627 41.753874 39.55186 41.84348 39.548828 41.908203 z"/>
 </g>
 <path style="opacity:0.2" d="m 78.260818,239.17476 c -35.296731,0 -39.094875,-3.62603 -38.921885,-38.99414 v -2 c -0.17299,35.36811 3.625154,38.99414 38.921885,38.99414 h 98.156232 c 35.29673,0 38.92188,-3.62561 38.92188,-38.99414 v 2 c 0,35.36853 -3.62515,38.99414 -38.92188,38.99414 z"/>
 <path style="opacity:0.3;fill:#ffffff" d="M 215.26172 52.361328 C 215.27527 53.683045 215.33398 54.745374 215.33398 56.167969 L 215.33398 54.167969 C 215.33398 52.745374 215.27527 51.683045 215.26172 50.361328 L 215.26172 52.361328 z"/>
 <path style="opacity:0.3;fill:#ffffff" d="M 160.56055 15.173828 C 160.31397 15.217229 160.01793 15.211308 159.79688 15.279297 C 159.22416 15.455444 158.7377 15.711211 158.33008 16.027344 C 157.92246 16.343477 157.59523 16.720667 157.34375 17.140625 C 157.3376 17.150891 157.33614 17.163511 157.33008 17.173828 L 176.41211 17.173828 C 210.28913 17.173828 214.93828 20.822554 215.26172 52.361328 L 215.26172 50.361328 C 214.93828 18.822554 210.28913 15.173828 176.41211 15.173828 L 160.56055 15.173828 z"/>
 <path style="opacity:0.3;fill:#ffffff" d="M 40.386719 33.125 C 40.291388 33.734568 40.265133 34.541743 40.185547 35.191406 C 39.915633 37.261818 39.671112 39.39016 39.548828 41.908203 C 39.437576 44.283363 39.423157 47.136138 39.396484 49.935547 C 39.385874 51.392794 39.326248 52.58627 39.333984 54.167969 L 39.333984 56.167969 C 39.160994 20.799857 42.959131 17.173828 78.255859 17.173828 L 135.34375 17.173828 C 134.87523 16.826037 134.40403 16.298182 133.91211 16.044922 C 133.26843 15.713527 132.59107 15.464241 131.84375 15.296875 C 131.48154 15.215756 131.0378 15.215985 130.63867 15.173828 L 78.255859 15.173828 C 51.802102 15.173828 43.043285 17.215284 40.386719 33.125 z"/>
 <g transform="matrix(0.95867209,0,0,0.99781487,-177.80917,-13.872946)" style="fill:#ffffff">
  <path d="m 321.00597,40.135036 -48.20874,0.437981 c -3.98632,0.03622 -7.52913,0.05094 -10.67483,0.202944 -3.14569,0.152 -5.89393,0.405009 -8.29598,0.808245 -2.40205,0.403234 -4.45628,0.956315 -6.21184,1.71002 -0.87777,0.376851 -1.68153,0.805173 -2.41591,1.28825 -0.73437,0.483076 -1.39985,1.021846 -2.00296,1.623548 -0.60311,0.601703 -1.14308,1.264935 -1.62708,1.997671 -0.484,0.732736 -0.91299,1.534444 -1.29001,2.410616 -0.75405,1.752345 -1.3057,3.804263 -1.70473,6.204779 -0.39903,2.400517 -0.64414,5.149823 -0.7853,8.297745 -0.14117,3.147923 -0.17837,6.694386 -0.15883,10.688949 v -1.807079 c -0.007,-1.429129 0.0469,-2.507482 0.0565,-3.824164 -0.0108,1.129299 -0.0618,2.028084 -0.0618,3.238274 v 65.963715 65.96548 c 0,3.99461 0.0511,7.54102 0.20294,10.68896 0.15185,3.14793 0.40557,5.89724 0.80825,8.29774 0.40268,2.4005 0.95574,4.45071 1.70826,6.20301 0.37625,0.87616 0.80244,1.67791 1.28472,2.41062 0.48227,0.73272 1.01935,1.39776 1.62001,1.99944 0.60067,0.60168 1.26449,1.14049 1.99591,1.62355 0.73143,0.48305 1.53076,0.90966 2.40532,1.28648 1.74914,0.75366 3.79649,1.30683 6.19243,1.71002 2.39593,0.4032 5.14014,0.65628 8.28186,0.80825 3.14173,0.15197 6.68127,0.20294 10.66777,0.20294 h 88.68811 c 3.9865,0 7.52913,-0.051 10.67483,-0.20294 3.14568,-0.15198 5.89571,-0.40503 8.29775,-0.80825 2.40204,-0.4032 4.45629,-0.95634 6.21184,-1.71002 0.87777,-0.37683 1.67976,-0.80342 2.41413,-1.28648 0.73437,-0.48307 1.40163,-1.02187 2.00473,-1.62355 0.6031,-0.60169 1.14309,-1.26672 1.62708,-1.99944 0.48399,-0.73271 0.91123,-1.53446 1.28825,-2.41062 0.75405,-1.7523 1.30571,-3.80252 1.70473,-6.20301 0.39902,-2.40048 0.64591,-5.14982 0.78707,-8.29774 0.084,-1.8746 0.0734,-4.19762 0.0935,-6.36537 v -92.88286 c 0,-3.33453 -0.40308,-4.87969 -2.7618,-7.23715 L 327.84927,46.31086 c -0.7287,-0.728075 -6.15877,-5.667684 -6.8433,-6.175824 z" style="fill:#f4f4f4"/>
  <path style="opacity:0.5;fill:#ffffff" d="m 321.00597,40.135036 -48.20917,0.438458 c -3.98633,0.03622 -7.52988,0.05157 -10.67558,0.20357 -3.14569,0.151999 -5.89394,0.40517 -8.29598,0.808406 -2.40205,0.403234 -4.45624,0.955107 -6.2118,1.708812 -0.87777,0.376852 -1.68189,0.804894 -2.41627,1.287972 -0.73437,0.483075 -1.39958,1.022941 -2.00268,1.624643 -0.60311,0.601704 -1.14179,1.265772 -1.62578,1.998508 -0.48401,0.732736 -0.91465,1.53339 -1.29166,2.409562 -0.75406,1.752345 -1.30418,3.80445 -1.70322,6.204964 -0.39903,2.400519 -0.64524,5.149506 -0.7864,8.297428 -0.10099,2.251858 -0.13482,4.787649 -0.14669,7.465532 -0.005,0.278435 -0.0163,0.519704 -0.0163,0.829939 v 2.00438 c 0,-0.07756 0.004,-0.132342 0.004,-0.207485 V 74.00005 c -0.001,-0.214294 0.007,-0.373012 0.008,-0.573518 -9.2e-4,0.557504 -0.008,1.081501 -0.006,1.657919 0.001,-0.176899 0.007,-0.330379 0.0102,-0.49718 0.0119,-2.677883 0.0457,-5.213674 0.14669,-7.465532 0.14116,-3.147923 0.38737,-5.896909 0.7864,-8.297428 0.39904,-2.400514 0.94916,-4.452619 1.70322,-6.204964 0.37701,-0.876172 0.80765,-1.676826 1.29166,-2.409563 0.48399,-0.732736 1.02267,-1.396804 1.62578,-1.998507 0.6031,-0.601702 1.26831,-1.141568 2.00268,-1.624644 0.73438,-0.483077 1.5385,-0.911119 2.41627,-1.287971 1.75556,-0.753705 3.80975,-1.305578 6.2118,-1.708812 2.40204,-0.403236 5.15029,-0.656407 8.29598,-0.808406 3.1457,-0.152004 6.68925,-0.167351 10.67558,-0.20357 l 48.20917,-0.438458 c 0.68453,0.508139 6.11468,5.447528 6.84337,6.175603 l 65.9726,63.235831 c 2.35871,2.35746 2.76058,3.90199 2.76058,7.23652 v -2.00438 c 0,-3.33453 -0.40187,-4.87906 -2.76058,-7.23652 l -65.9726,-63.235831 c -0.72869,-0.728075 -6.15884,-5.667464 -6.84337,-6.175603 z m -83.36931,35.295876 c -0.001,0.200506 -0.009,0.359223 -0.008,0.573518 v 1.806683 c -0.004,-0.839508 0.007,-1.579819 0.008,-2.380201 z"/>
  <path style="opacity:0.2" d="m 237.64012,72.91117 c -6.6e-4,0.05602 -0.004,0.103286 -0.004,0.160508 v 0.708579 c -0.001,-0.306532 0.005,-0.567809 0.004,-0.869087 z m -0.0102,130.40605 v 2.00438 c 0,3.9946 0.0519,7.53947 0.20373,10.68741 0.15185,3.14793 0.40614,5.89888 0.80881,8.29939 0.40269,2.40049 0.95476,4.4507 1.70728,6.203 0.37625,0.87617 0.80328,1.67686 1.28555,2.40957 0.48227,0.73272 1.01902,1.39878 1.61968,2.00046 0.60066,0.60168 1.26516,1.13963 1.99657,1.62268 0.73143,0.48306 1.52948,0.9092 2.40405,1.28603 1.74914,0.75365 3.79752,1.30757 6.19346,1.71076 2.39593,0.4032 5.14,0.65644 8.28172,0.80841 3.14173,0.15197 6.68092,0.20161 10.66742,0.20161 h 88.68876 c 3.9865,0 7.52784,-0.0497 10.67353,-0.20161 3.14568,-0.15198 5.89598,-0.40519 8.29802,-0.80841 2.40204,-0.4032 4.45625,-0.95709 6.2118,-1.71076 0.87777,-0.37684 1.67986,-0.80296 2.41423,-1.28603 0.73437,-0.48306 1.40161,-1.021 2.00473,-1.62268 0.60308,-0.60169 1.14383,-1.26774 1.62782,-2.00046 0.48398,-0.73271 0.91056,-1.5334 1.28758,-2.40957 0.75406,-1.7523 1.30623,-3.80252 1.70525,-6.203 0.39901,-2.40049 0.64524,-5.15147 0.7864,-8.29939 0.084,-1.8746 0.0736,-4.19772 0.0937,-6.36547 v -2.00438 c -0.0201,2.16775 -0.01,4.49087 -0.0937,6.36547 -0.14116,3.14792 -0.38739,5.8989 -0.7864,8.29939 -0.39902,2.40048 -0.95119,4.4507 -1.70525,6.203 -0.37702,0.87617 -0.8036,1.67686 -1.28758,2.40957 -0.48399,0.73272 -1.02474,1.39877 -1.62782,2.00046 -0.60312,0.60168 -1.27036,1.13962 -2.00473,1.62269 -0.73437,0.48306 -1.53646,0.90918 -2.41423,1.28602 -1.75555,0.75367 -3.80976,1.30756 -6.2118,1.71076 -2.40204,0.40322 -5.15234,0.65643 -8.29802,0.80841 -3.14569,0.15194 -6.68703,0.20161 -10.67353,0.20161 h -88.68876 c -3.9865,0 -7.52569,-0.0496 -10.66742,-0.20161 -3.14172,-0.15197 -5.88579,-0.40521 -8.28172,-0.80841 -2.39594,-0.40319 -4.44432,-0.95711 -6.19346,-1.71076 -0.87457,-0.37683 -1.67262,-0.80297 -2.40405,-1.28602 -0.73141,-0.48306 -1.39591,-1.02101 -1.99657,-1.62269 -0.60066,-0.60168 -1.13741,-1.26774 -1.61968,-2.00046 -0.48227,-0.73271 -0.9093,-1.5334 -1.28555,-2.40957 -0.75252,-1.7523 -1.30459,-3.80251 -1.70728,-6.203 -0.40267,-2.40051 -0.65696,-5.15146 -0.80881,-8.29939 -0.15184,-3.14793 -0.20373,-6.69281 -0.20373,-10.68741 z"/>
  <g style="enable-background:new" transform="matrix(1.0431095,0,0,1.0021899,185.46846,-1.6372384)">
   <path d="m 73.831881,121.50661 v 67.09091 1.63636 21.27273 H 178.55915 v -21.27273 -1.63636 -67.09091 z m 2.45455,69.54545 H 176.1046 v 18 H 76.286431 Z" style="fill:url(#d-47)"/>
   <rect width="99.818" height="63.818" x="76.29" y="123.96" rx=".818" style="fill:#fcede4"/>
   <path d="m 93.468241,191.87025 h -16.36363 v 16.36363 h 16.36363 z" style="opacity:0.15;fill:url(#c-4)"/>
   <path d="M 168.33188,126.00743 V 185.7347 M 84.059151,126.00743 V 185.7347 M 125.78642,126.00743 V 185.7347 M 79.146791,182.46197 H 173.24424 M 79.146791,145.64379 H 173.24424 M 79.146791,129.28016 h 94.097449" style="fill:none;stroke:#f09e6f;stroke-width:0.81818181;stroke-linecap:square;stroke-dasharray:0.81818183, 2.45454548"/>
   <path d="m 119.62129,128.86865 -17.39754,40.55753 -10.303979,-20.11098 -9.90607,3.77131 1.761,6.13157 4.77327,-2.50089 12.256749,26.15306 h 2.90518 l 20.01188,-47.45455 h 40.1069 v 3.27273 h 4.91229 v -9.81818 h -49.11648 z m 9.37394,16.36364 13.80362,18.35316 v 0.2333 l -14.31179,19.0499 h 8.1147 l 10.64915,-14.17596 h 0.25408 l 10.64915,14.17596 h 8.79066 l -14.64897,-19.36151 v -0.23331 l 13.46325,-18.03995 h -8.11151 l -9.97319,13.08771 h -0.25408 l -9.63601,-13.0893 z m 9.21892,47.83327 c -1.16509,0 -1.94348,0.17244 -2.33948,0.51935 -0.39273,0.34036 -0.58967,1.02733 -0.58967,2.05824 v 1.68111 c 0,0.70037 -0.12361,1.1843 -0.37233,1.4494 -0.24546,0.26672 -0.69886,0.40109 -1.35832,0.40109 h -0.43306 v 0.99877 h 0.43306 c 0.65455,0 1.10479,0.13745 1.35352,0.40909 0.252,0.27 0.37553,0.75686 0.37553,1.46377 v 1.67471 c 0,1.03091 0.19694,1.721 0.58966,2.06464 0.39765,0.34691 1.17768,0.51775 2.3395,0.51775 h 0.44904 v -1.00674 h -0.49059 c -0.65291,0 -1.08197,-0.10072 -1.28161,-0.30363 -0.19636,-0.20127 -0.29403,-0.63473 -0.29403,-1.30237 v -1.73864 c 0,-0.72654 -0.10368,-1.25628 -0.31641,-1.58683 -0.20781,-0.33218 -0.57435,-0.56114 -1.09144,-0.68714 0.51218,-0.11782 0.8756,-0.34054 1.08505,-0.67436 0.21437,-0.33055 0.3228,-0.86332 0.3228,-1.59641 v -1.73704 c 0,-0.66273 0.0977,-1.09471 0.29403,-1.29599 0.20127,-0.20454 0.62706,-0.30842 1.28161,-0.30842 h 0.49059 v -1.00035 z m 11.39702,0.003 v 1.00035 h 0.47461 c 0.65946,0 1.08832,0.10388 1.2896,0.30843 0.20291,0.20618 0.30202,0.63816 0.30202,1.29598 v 1.73704 c 0,0.73309 0.10375,1.26754 0.31321,1.59482 0.216,0.33054 0.57922,0.55654 1.09304,0.67436 -0.52036,0.12436 -0.88031,0.35332 -1.09304,0.68714 -0.20946,0.32727 -0.31321,0.85864 -0.31321,1.58682 v 1.73704 c 0,0.65782 -0.10075,1.08981 -0.30202,1.29599 -0.20128,0.20454 -0.63014,0.30842 -1.2896,0.30842 h -0.47461 v 1.00675 h 0.43626 c 1.16181,0 1.93877,-0.17245 2.3315,-0.51936 0.39272,-0.34691 0.58967,-1.03372 0.58967,-2.06463 v -1.67312 c 0,-0.70527 0.12528,-1.19214 0.37073,-1.46378 0.252,-0.27 0.70689,-0.4059 1.3647,-0.4059 h 0.44905 v -1.00195 h -0.45064 c -0.65946,0 -1.11431,-0.13277 -1.3663,-0.3995 -0.2471,-0.26509 -0.36915,-0.74903 -0.36915,-1.44939 v -1.68111 c 0,-1.03091 -0.19693,-1.71792 -0.58966,-2.05664 -0.39273,-0.34528 -1.16968,-0.51776 -2.3315,-0.51776 z m -24.16673,1.43981 v 2.22443 h -2.09499 v 1.00195 h 2.09499 v 4.25711 c 0,0.94909 0.20006,1.61768 0.59606,2.0055 0.39764,0.38455 1.08,0.58008 2.04546,0.58008 h 1.57564 v -1.03072 h -1.4494 c -0.54655,0 -0.9297,-0.11448 -1.14897,-0.34357 -0.21927,-0.22909 -0.33079,-0.63202 -0.33079,-1.21129 v -4.25711 h 2.92916 v -1.00355 h -2.92596 v -2.22283 z m -24.99768,1.82972 c -0.940909,0 -1.669219,0.20614 -2.176489,0.61523 -0.50891,0.40582 -0.76385,0.98591 -0.76385,1.73864 0,0.58909 0.1726,1.06094 0.51296,1.40785 0.34036,0.34037 0.88227,0.57982 1.62518,0.7271 l 0.482599,0.0991 0.0543,0.016 c 1.14218,0.22909 1.71626,0.64115 1.71626,1.24006 0,0.41727 -0.1573,0.74078 -0.46821,0.97478 -0.31418,0.22582 -0.75689,0.34038 -1.32635,0.34038 -0.392719,0 -0.807899,-0.0595 -1.246449,-0.18057 -0.43854,-0.126 -0.89799,-0.31386 -1.37908,-0.55931 v 1.32954 c 0.49581,0.16364 0.95363,0.28253 1.37908,0.36435 0.42546,0.0834 0.83146,0.12624 1.219279,0.12624 0.98018,0 1.74649,-0.21668 2.29795,-0.65359 0.54818,-0.43691 0.82616,-1.04457 0.82616,-1.81693 0,-0.58582 -0.16803,-1.06055 -0.49857,-1.42383 -0.32727,-0.36491 -0.81122,-0.60597 -1.4494,-0.72869 l -0.51776,-0.0991 c -0.854179,-0.16363 -1.391669,-0.33156 -1.604399,-0.50338 -0.21437,-0.17345 -0.3228,-0.43603 -0.3228,-0.78621 0,-0.38618 0.1435,-0.67319 0.42987,-0.85974 0.288,-0.19145 0.72459,-0.29083 1.308769,-0.29083 0.38945,0 0.76621,0.0566 1.14258,0.16459 0.37309,0.10637 0.74239,0.26987 1.11221,0.4826 v -1.26083 h 0.003 c -0.37636,-0.15545 -0.75631,-0.2683 -1.14577,-0.34358 -0.38454,-0.0802 -0.78911,-0.11984 -1.21129,-0.11984 z m 8.21537,0.0272 c -0.94091,0 -1.68602,0.36634 -2.22602,1.09943 -0.54164,0.73309 -0.81019,1.74813 -0.81019,3.04741 -10e-6,1.27309 0.27011,2.27608 0.81339,3.00426 0.5449,0.72491 1.28839,1.08505 2.22602,1.08505 0.47128,0 0.88496,-0.10391 1.24006,-0.30682 0.35901,-0.21215 0.64404,-0.5086 0.85333,-0.89649 v 3.98225 h 1.296 v -10.82653 h -1.296 v 1.00196 c -0.21436,-0.38782 -0.50132,-0.68243 -0.86132,-0.88371 -0.35509,-0.20454 -0.76563,-0.30681 -1.23527,-0.30681 z m 10.93359,0.12784 c -0.61037,0 -1.13846,0.14799 -1.58682,0.44744 -0.4451,0.29455 -0.77644,0.72045 -0.98917,1.27681 v -1.53249 h -1.29599 v 7.84304 h 1.29599 v -3.90394 c 0,-0.95237 0.21375,-1.68048 0.6392,-2.18448 0.42382,-0.504 1.03742,-0.75586 1.84251,-0.75586 0.34036,0 0.6549,0.0488 0.93963,0.14702 0.28246,0.098 0.56303,0.25461 0.83735,0.46661 v -1.31516 c -0.25036,-0.16854 -0.5161,-0.29059 -0.79101,-0.36914 -0.27654,-0.0802 -0.5726,-0.11985 -0.89169,-0.11985 z m 20.79813,0.0352 2.8093,3.75373 -3.08097,4.09091 h 1.48935 l 2.29155,-3.14489 2.29793,3.14489 h 1.48935 l -3.08096,-4.09091 2.8093,-3.75373 h -1.4494 l -2.06622,2.83807 -2.07902,-2.83807 z m -31.52557,0.93004 c 0.62182,0 1.09203,0.25482 1.40785,0.76864 0.32236,0.50891 0.48259,1.26152 0.48259,2.2548 0,0.99491 -0.16179,1.75052 -0.48579,2.26598 -0.31582,0.50891 -0.78443,0.76225 -1.40625,0.76225 -0.62182,0 -1.09039,-0.25338 -1.40785,-0.76065 -0.31091,-0.50891 -0.46822,-1.2662 -0.46822,-2.26438 l 0.002,-0.003 c 0,-0.99818 0.1573,-1.75391 0.46821,-2.26118 0.31746,-0.50891 0.78604,-0.76225 1.40786,-0.76225 z" style="fill:url(#a-4)"/>
  </g>
 </g>
</svg>
