<?xml version="1.0" encoding="UTF-8" standalone="no"?>
<svg
   xmlns:dc="http://purl.org/dc/elements/1.1/"
   xmlns:cc="http://creativecommons.org/ns#"
   xmlns:rdf="http://www.w3.org/1999/02/22-rdf-syntax-ns#"
   xmlns:svg="http://www.w3.org/2000/svg"
   xmlns="http://www.w3.org/2000/svg"
   xmlns:sodipodi="http://sodipodi.sourceforge.net/DTD/sodipodi-0.dtd"
   xmlns:inkscape="http://www.inkscape.org/namespaces/inkscape"
   enable-background="new"
   height="256"
   viewBox="0 0 256 256"
   width="256"
   version="1.1"
   id="svg53"
   sodipodi:docname="lightdm-settings.svg"
   inkscape:version="0.92.4 (5da689c313, 2019-01-14)">
  <metadata
     id="metadata59">
    <rdf:RDF>
      <cc:Work
         rdf:about="">
        <dc:format>image/svg+xml</dc:format>
        <dc:type
           rdf:resource="http://purl.org/dc/dcmitype/StillImage" />
        <dc:title></dc:title>
      </cc:Work>
    </rdf:RDF>
  </metadata>
  <defs
     id="defs57">
    <filter
       style="color-interpolation-filters:sRGB"
       height="1.136"
       width="1.109"
       y="-.07"
       x="-.05"
       id="filter1498-3">
      <feGaussianBlur
         id="feGaussianBlur866"
         stdDeviation="1.36" />
    </filter>
    <linearGradient
       gradientUnits="userSpaceOnUse"
       y2="236"
       y1="-212"
       x2="296"
       x1="296"
       id="linearGradient1108">
      <stop
         id="stop869"
         offset="0"
         style="stop-color:#ffffff" />
      <stop
         id="stop871"
         offset=".125"
         style="stop-color:#ffffff;stop-opacity:.09803922" />
      <stop
         id="stop873"
         offset=".925"
         style="stop-color:#000000;stop-opacity:0" />
      <stop
         id="stop875"
         offset="1"
         style="stop-color:#000000;stop-opacity:0" />
    </linearGradient>
    <clipPath
       id="clipPath1082-3-09">
      <path
         id="path878"
         style="fill:#8c59d9"
         d="M 361.9375,-212 C 507.2348,-212 528,-191.28677 528,-46.125 V 70.125 C 528,215.28618 507.2348,236 361.9375,236 H 214.0625 C 68.7652,236 48,215.28618 48,70.125 V -46.125 C 48,-191.28677 68.7652,-212 214.0625,-212 Z" />
    </clipPath>
    <linearGradient
       gradientUnits="userSpaceOnUse"
       gradientTransform="matrix(0.26970778,0,0,0.26970778,-7.1289177,220.56049)"
       y2="28"
       y1="284"
       x2="168"
       x1="168"
       id="linearGradient2059">
      <stop
         id="stop881"
         offset="0"
         style="stop-color:#e6eaef" />
      <stop
         id="stop883"
         offset="1"
         style="stop-color:#e6eaef" />
    </linearGradient>
    <filter
       style="color-interpolation-filters:sRGB"
       height="1.05"
       width="1.046"
       y="-.03"
       x="-.02"
       id="filter1132">
      <feGaussianBlur
         id="feGaussianBlur886"
         stdDeviation="2.32" />
    </filter>
    <filter
       style="color-interpolation-filters:sRGB"
       height="1.025"
       width="1.023"
       y="-.01"
       x="-.01"
       id="filter4569">
      <feGaussianBlur
         id="feGaussianBlur889"
         stdDeviation="1.16" />
    </filter>
    <filter
       style="color-interpolation-filters:sRGB"
       height="1.296"
       width="1.057"
       y="-.15"
       x="-.03"
       id="filter4720">
      <feGaussianBlur
         id="feGaussianBlur892"
         stdDeviation=".443" />
    </filter>
  </defs>
  <sodipodi:namedview
     pagecolor="#ffffff"
     bordercolor="#666666"
     borderopacity="1"
     objecttolerance="10"
     gridtolerance="10"
     guidetolerance="10"
     inkscape:pageopacity="0"
     inkscape:pageshadow="2"
     inkscape:window-width="1920"
     inkscape:window-height="1016"
     id="namedview55"
     showgrid="false"
     inkscape:zoom="3.4425878"
     inkscape:cx="130.6099"
     inkscape:cy="126.92923"
     inkscape:window-x="0"
     inkscape:window-y="27"
     inkscape:window-maximized="1"
     inkscape:current-layer="g931" />
  <filter
     id="filter1498"
     color-interpolation-filters="sRGB"
     height="1.136"
     width="1.109"
     x="-.05"
     y="-.07">
    <feGaussianBlur
       stdDeviation="1.36"
       id="feGaussianBlur2" />
  </filter>
  <linearGradient
     id="linearGradient1694"
     gradientTransform="matrix(0 -1 1 0 -26.11888 279.17176)"
     gradientUnits="userSpaceOnUse"
     x1="39.997"
     x2="263.997"
     y1="156"
     y2="156">
    <stop
       offset="0"
       stop-color="#f7f7f7"
       id="stop5" />
    <stop
       offset="1"
       stop-color="#e6e6e6"
       id="stop7" />
  </linearGradient>
  <linearGradient
     id="linearGradient4358"
     gradientUnits="userSpaceOnUse"
     x1="88"
     x2="488"
     y1="88"
     y2="488">
    <stop
       offset="0"
       stop-opacity=".588235"
       id="stop10" />
    <stop
       offset="1"
       stop-opacity=".205556"
       id="stop12" />
  </linearGradient>
  <filter
     id="filter4380"
     color-interpolation-filters="sRGB"
     height="1.088"
     width="1.106"
     x="-.05"
     y="-.04">
    <feGaussianBlur
       stdDeviation="8.48"
       id="feGaussianBlur15" />
  </filter>
  <filter
     id="filter4346"
     color-interpolation-filters="sRGB"
     height="1.022"
     width="1.026"
     x="-.01"
     y="-.01">
    <feGaussianBlur
       stdDeviation="2.12"
       id="feGaussianBlur18" />
  </filter>
  <path
     d="m141.84323 74c-70.59344 0-78.18921 7.250835-77.84323 77.98706v146.01294 146.01294c-.34598 70.73623 7.24979 77.98706 77.84323 77.98706h292.31354c70.59344 0 79.78033-7.27652 77.84323-77.98706v-146.01294-146.01294c0-70.737067-7.24979-77.98706-77.84323-77.98706z"
     filter="url(#filter4346)"
     opacity=".1"
     transform="matrix(.5 0 0 .5 -14.116488 -20.825537)"
     id="path21" />
  <path
     d="m141.84323 74c-70.59344 0-78.18921 7.250835-77.84323 77.98706v146.01294 146.01294c-.34598 70.73623 7.24979 77.98706 77.84323 77.98706h292.31354c70.59344 0 79.78033-7.27652 77.84323-77.98706v-146.01294-146.01294c0-70.737067-7.24979-77.98706-77.84323-77.98706z"
     fill="url(#linearGradient4358)"
     filter="url(#filter4380)"
     opacity=".3"
     transform="matrix(.5 0 0 .5 -14.116488 -20.825235)"
     id="path23" />
  <path
     d="m55.695112 13.174463c-36.098811 0-39.983002 3.69016-39.80608 39.68984v74.310167 74.31016c-.176922 35.99969 3.707269 39.68984 39.80608 39.68984h148.387318c36.09881 0 40.77464-3.70276 39.80608-39.68984v-74.31016-74.310167c0-36.00011-3.70727-39.68984-39.80608-39.68984z"
     opacity=".1"
     id="path25" />
  <path
     d="m56.805134 239.17447c-35.29673 0-39.09461-3.62542-38.92162-38.99353v-73.00647-73.006479c-.17299-35.36812 3.62489-38.99353 38.92162-38.99353h146.156756c35.29671 0 38.92161 3.625 38.92161 38.99353v73.006479 73.00647c0 35.36853-3.6249 38.99353-38.92161 38.99353z"
     fill="url(#linearGradient1694)"
     id="path27" />
  <path
     d="m67.350026 57.178025c-5.529497-.0695-10.452621 1.03283-13.645215 4.86435-2.95778 3.53402-3.812299 8.09886-3.812299 13.38478v27.498685c0 5.28604.85468 9.85089 3.812299 13.38479 3.226352 3.87223 8.117105 4.86435 13.572311 4.86435h125.212738c5.45521 0 10.35034-.98487 13.58271-4.86435 2.96333-3.54073 3.80191-8.1054 3.80191-13.38479v-27.498685c0-5.27926-.83842-9.84395-3.80191-13.38478-3.23243-3.87958-8.12745-4.86435-13.58271-4.86435z"
     fill="#fff"
     opacity=".6"
     id="path29" />
  <path
     d="m192.41696 137.17803c5.5295-.0695 10.45262 1.03283 13.64522 4.86435 2.95778 3.53403 3.8123 8.09886 3.8123 13.38478v27.49869c0 5.28603-.85468 9.85088-3.8123 13.38478-3.22635 3.87223-8.11711 4.86435-13.57231 4.86435h-125.212744c-5.455203 0-10.350338-.98487-13.582709-4.86435-2.963328-3.54073-3.801905-8.1054-3.801905-13.38478v-27.49869c0-5.27926.838419-9.84394 3.801905-13.38478 3.232427-3.87958 8.12745-4.86435 13.582709-4.86435z"
     fill="#fff"
     opacity=".6"
     id="path31" />
  <path
     d="m192.41697 55.178025c5.52949-.0695 10.45262 1.03283 13.64521 4.86435 2.95778 3.53402 3.8123 8.09886 3.8123 13.38478v27.498685c0 5.28603-.85468 9.85089-3.8123 13.38479-3.22635 3.87223-8.1171 4.86435-13.57231 4.86435h-125.212738c-5.45521 0-10.35034-.98487-13.58271-4.86435-2.96333-3.54073-3.80191-8.10541-3.80191-13.38479v-27.498685c0-5.27926.83842-9.84395 3.80191-13.38478 3.23243-3.87958 8.12745-4.86435 13.58271-4.86435z"
     fill="#3eb34f"
     id="path33" />
  <path
     d="m90.851072 94.002131c-4.231344-.05324-7.071551.896961-8.530848 2.648323-1.53216 1.824316-2.320224 4.816666-2.320224 8.976166v24.7489c0 4.15961.788064 7.15179 2.320224 8.97616 1.459297 1.75143 4.299168 2.64832 8.530848 2.64832h42.299708c4.23167 0 7.07942-.89689 8.53871-2.64832 1.53217-1.82437 2.3124-4.81655 2.3124-8.97616v-24.7489c0-4.1595-.78023-7.15185-2.3124-8.976166-1.45919-1.751362-4.30704-2.648323-8.53871-2.648323z"
     filter="url(#filter1498)"
     opacity=".2"
     transform="matrix(-1 0 0 1 281.88351 -28.825017)"
     id="path35" />
  <path
     d="m191.03244 63.177115c4.23134-.0532 7.07155.89696 8.53084 2.64832 1.53216 1.82432 2.32023 4.81667 2.32023 8.97617v24.748897c0 4.159608-.78807 7.151798-2.32023 8.976158-1.45929 1.75144-4.29916 2.64833-8.53084 2.64833h-42.29971c-4.23167 0-7.07942-.89689-8.53871-2.64833-1.53217-1.82436-2.3124-4.81655-2.3124-8.976158v-24.748897c0-4.1595.78023-7.15185 2.3124-8.97617 1.45919-1.75136 4.30704-2.64832 8.53871-2.64832z"
     fill="#fff"
     id="path37" />
  <path
     d="m67.350032 135.17803c-5.5295-.0695-10.45262 1.03283-13.64522 4.86435-2.95778 3.53403-3.8123 8.09886-3.8123 13.38478v27.49869c0 5.28603.85468 9.85088 3.8123 13.38478 3.22635 3.87223 8.11711 4.86435 13.57231 4.86435h125.212748c5.4552 0 10.35033-.98487 13.5827-4.86435 2.96333-3.54073 3.80191-8.1054 3.80191-13.38478v-27.49869c0-5.27926-.83842-9.84394-3.80191-13.38478-3.23242-3.87958-8.12745-4.86435-13.5827-4.86435z"
     fill="#b3b3b3"
     id="path39"
     style="fill:#ffffff;fill-opacity:1" />
  <path
     d="m67.350281 55.178885c-5.529497-.0695-10.451937 1.03176-13.644531 4.86329-2.95778 3.53402-3.8125 8.09884-3.8125 13.38476v1c0-5.28592.85472-9.85074 3.8125-13.38476 3.192594-3.83153 8.115034-4.93283 13.644531-4.86329h125.138669c5.45526 0 10.35155.9837 13.58398 4.86329 2.96349 3.54083 3.80078 8.1055 3.80078 13.38476v-1c0-5.27926-.83729-9.84393-3.80078-13.38476-3.23243-3.87959-8.12872-4.86329-13.58398-4.86329z"
     opacity=".1"
     id="path45" />
  <path
     d="m67.350281 135.1789c-5.529497-.0695-10.451937 1.03175-13.644531 4.86328-2.95778 3.53402-3.8125 8.09884-3.8125 13.38476v1c0-5.28592.85472-9.85074 3.8125-13.38476 3.192594-3.83153 8.115034-4.93282 13.644531-4.86328h125.138669c5.45526 0 10.35155.9837 13.58398 4.86328 2.96349 3.54083 3.80078 8.10551 3.80078 13.38476v-1c0-5.27925-.83729-9.84393-3.80078-13.38476-3.23243-3.87958-8.12872-4.86328-13.58398-4.86328z"
     opacity=".1"
     id="path47" />
  <path
     d="m56.805392 15.174463c-35.296728 0-39.09487 3.62603-38.92188 38.99414v2c-.17299-35.36811 3.625152-38.99414 38.92188-38.99414h146.156238c35.29673 0 38.92188 3.62561 38.92188 38.99414v-2c0-35.36853-3.62515-38.99414-38.92188-38.99414z"
     fill="#fff"
     opacity=".3"
     id="path49" />
  <path
     d="m56.810792 239.17447c-35.296731 0-39.094875-3.62603-38.921885-38.99414v-2c-.17299 35.36811 3.625154 38.99414 38.921885 38.99414h146.156238c35.29673 0 38.92188-3.62561 38.92188-38.99414v2c0 35.36853-3.62515 38.99414-38.92188 38.99414z"
     opacity=".2"
     id="path51" />
  <g
     id="g943"
     transform="matrix(3.7797136,0,0,3.7797136,-325.07927,-778.80214)">
    <g
       id="g931"
       transform="translate(86.34619,-1.6106551)">
      <path
         id="path923"
         d="m 17.748501,255.48474 1.045998,-1.6736 0.370122,-1.19083 0.370123,1.19083 1.029905,1.6736 1.110367,-0.69197 -0.981628,-1.60923 -0.885076,-0.90116 1.255198,0.25747 h 1.818427 v -1.30347 H 21.06351 l -1.255198,0.27357 0.885076,-0.91726 0.981628,-1.60923 -1.110367,-0.69197 -1.029905,1.6736 -0.370123,1.20692 -0.370122,-1.20692 -1.029906,-1.6736 -1.110367,0.69197 0.981629,1.60923 0.885075,0.91726 -1.255197,-0.27357 h -1.802335 v 1.30347 h 1.802335 l 1.255197,-0.25747 -0.885075,0.90116 -0.981629,1.60923 z"
         inkscape:connector-curvature="0" />
      <path
         id="path925"
         d="m 27.649022,255.48474 1.045998,-1.6736 0.370123,-1.19083 0.370122,1.19083 1.029906,1.6736 1.110367,-0.69197 -0.981629,-1.60923 -0.885075,-0.90116 1.255197,0.25747 h 1.818427 v -1.30347 h -1.818427 l -1.255197,0.27357 0.885075,-0.91726 0.981629,-1.60923 -1.110367,-0.69197 -1.029906,1.6736 -0.370122,1.20692 -0.370123,-1.20692 -1.029905,-1.6736 -1.110367,0.69197 0.981628,1.60923 0.885076,0.91726 -1.255198,-0.27357 h -1.802335 v 1.30347 h 1.802335 l 1.255198,-0.25747 -0.885076,0.90116 -0.981628,1.60923 z"
         inkscape:connector-curvature="0" />
      <path
         id="path927"
         d="m 37.549544,255.48474 1.045998,-1.6736 0.370122,-1.19083 0.370122,1.19083 1.029906,1.6736 1.110367,-0.69197 -0.981629,-1.60923 -0.885075,-0.90116 1.255197,0.25747 h 1.818428 v -1.30347 h -1.818428 l -1.255197,0.27357 0.885075,-0.91726 0.981629,-1.60923 -1.110367,-0.69197 -1.029906,1.6736 -0.370122,1.20692 -0.370122,-1.20692 -1.029906,-1.6736 -1.110367,0.69197 0.981629,1.60923 0.885075,0.91726 -1.255198,-0.27357 h -1.802334 v 1.30347 h 1.802334 l 1.255198,-0.25747 -0.885075,0.90116 -0.981629,1.60923 z"
         inkscape:connector-curvature="0" />
      <path
         id="path929"
         d="m 47.450066,255.48474 1.045998,-1.6736 0.370122,-1.19083 0.370122,1.19083 1.029906,1.6736 1.110367,-0.69197 -0.981629,-1.60923 -0.885075,-0.90116 1.255198,0.25747 h 1.818427 v -1.30347 h -1.818427 l -1.255198,0.27357 0.885075,-0.91726 0.981629,-1.60923 -1.110367,-0.69197 -1.029906,1.6736 -0.370122,1.20692 -0.370122,-1.20692 -1.029906,-1.6736 -1.110367,0.69197 0.981629,1.60923 0.885075,0.91726 -1.255197,-0.27357 h -1.802335 v 1.30347 h 1.802335 l 1.255197,-0.25747 -0.885075,0.90116 -0.981629,1.60923 z"
         inkscape:connector-curvature="0" />
    </g>
  </g>
</svg>
