<?xml version="1.0" encoding="UTF-8" standalone="no"?>
<svg
   xmlns:dc="http://purl.org/dc/elements/1.1/"
   xmlns:cc="http://creativecommons.org/ns#"
   xmlns:rdf="http://www.w3.org/1999/02/22-rdf-syntax-ns#"
   xmlns:svg="http://www.w3.org/2000/svg"
   xmlns="http://www.w3.org/2000/svg"
   xmlns:xlink="http://www.w3.org/1999/xlink"
   xmlns:sodipodi="http://sodipodi.sourceforge.net/DTD/sodipodi-0.dtd"
   xmlns:inkscape="http://www.inkscape.org/namespaces/inkscape"
   width="256"
   height="256"
   version="1.1"
   id="svg128"
   sodipodi:docname="assistant.svg"
   inkscape:version="0.92.4 (5da689c313, 2019-01-14)">
  <metadata
     id="metadata132">
    <rdf:RDF>
      <cc:Work
         rdf:about="">
        <dc:format>image/svg+xml</dc:format>
        <dc:type
           rdf:resource="http://purl.org/dc/dcmitype/StillImage" />
        <dc:title></dc:title>
      </cc:Work>
    </rdf:RDF>
  </metadata>
  <sodipodi:namedview
     pagecolor="#ffffff"
     bordercolor="#666666"
     borderopacity="1"
     objecttolerance="10"
     gridtolerance="10"
     guidetolerance="10"
     inkscape:pageopacity="0"
     inkscape:pageshadow="2"
     inkscape:window-width="1920"
     inkscape:window-height="1016"
     id="namedview130"
     showgrid="false"
     inkscape:zoom="3.2773438"
     inkscape:cx="231.00616"
     inkscape:cy="128"
     inkscape:window-x="0"
     inkscape:window-y="27"
     inkscape:window-maximized="1"
     inkscape:current-layer="g15" />
  <defs
     id="defs107">
    <linearGradient
       id="linearGradient4773"
       x1="11.566"
       x2="15.215"
       y1="22.292"
       y2="33.955"
       gradientTransform="translate(12.128253,-14.362661)"
       gradientUnits="userSpaceOnUse"
       xlink:href="#linearGradient8265-821-176-38-919-66-249" />
    <linearGradient
       id="linearGradient8265-821-176-38-919-66-249">
      <stop
         id="stop2687"
         offset="0"
         style="stop-color:#ffffff;stop-opacity:0.27450982" />
      <stop
         id="stop2689"
         offset="1"
         style="stop-color:#ffffff;stop-opacity:0" />
    </linearGradient>
    <linearGradient
       id="linearGradient4708"
       x1="24"
       x2="33"
       y1="33.402"
       y2="33.402"
       gradientTransform="translate(0,-1.9999996)"
       gradientUnits="userSpaceOnUse"
       spreadMethod="reflect"
       xlink:href="#linearGradient4702" />
    <linearGradient
       id="linearGradient4702">
      <stop
         id="stop4704"
         offset="0"
         style="stop-color:#ffffff" />
      <stop
         id="stop4706"
         offset="1"
         style="stop-color:#ffffff;stop-opacity:0" />
    </linearGradient>
    <linearGradient
       id="linearGradient4777"
       x1="102.308"
       x2="102.308"
       y1="-2.393"
       y2="-24.582"
       gradientTransform="matrix(0.12747837,0,0,0.81926866,69.892246,33.811851)"
       gradientUnits="userSpaceOnUse"
       spreadMethod="reflect"
       xlink:href="#linearGradient3844-4-1-98" />
    <linearGradient
       id="linearGradient3844-4-1-98">
      <stop
         id="stop3846-6-6-1"
         offset="0"
         style="stop-color:#a5a6a8" />
      <stop
         id="stop3848-9-0-6"
         offset="1"
         style="stop-color:#e8e8e8" />
    </linearGradient>
    <linearGradient
       id="linearGradient4779"
       x1="109.956"
       x2="109.956"
       y1="-24.911"
       y2="-2.376"
       gradientTransform="matrix(0.12747837,0,0,0.81926866,69.892246,33.811851)"
       gradientUnits="userSpaceOnUse"
       xlink:href="#linearGradient2509-9-1-4" />
    <linearGradient
       id="linearGradient2509-9-1-4">
      <stop
         id="stop2511-0-9-7"
         offset="0"
         style="stop-color:#b3b3b3" />
      <stop
         id="stop2513-3-1-74"
         offset="1"
         style="stop-color:#dadada" />
    </linearGradient>
    <linearGradient
       id="linearGradient4781"
       x1="89.018"
       x2="89.018"
       y1="22.537"
       y2="27.546"
       gradientTransform="matrix(0.27703571,0,0,1.7410302,57.055001,-5.2547316)"
       gradientUnits="userSpaceOnUse"
       xlink:href="#linearGradient3858-4-6-8-7" />
    <linearGradient
       id="linearGradient3858-4-6-8-7">
      <stop
         id="stop3860-9-8-5-3"
         offset="0"
         style="stop-color:#a0a0a0" />
      <stop
         id="stop3862-9-2-3-8"
         offset="1"
         style="stop-color:#4a4a4a" />
    </linearGradient>
    <linearGradient
       id="linearGradient4681"
       x1="77.444"
       x2="77.444"
       y1="41.185"
       y2="30.155"
       gradientTransform="matrix(2.9195982,0,0,2.7200462,-157.64596,-76.984368)"
       gradientUnits="userSpaceOnUse"
       xlink:href="#linearGradient3188-6-5" />
    <linearGradient
       id="linearGradient3188-6-5">
      <stop
         id="stop3190-6-58"
         offset="0"
         style="stop-color:#4d4d4d" />
      <stop
         id="stop3192-6-88"
         offset="1"
         style="stop-color:#282828" />
    </linearGradient>
    <linearGradient
       id="linearGradient4166"
       x1="27"
       x2="27"
       y1="9"
       y2="27"
       gradientUnits="userSpaceOnUse"
       xlink:href="#linearGradient3642" />
    <linearGradient
       id="linearGradient3642">
      <stop
         id="stop3644"
         offset="0"
         style="stop-color:#ffffff" />
      <stop
         id="stop3646"
         offset="1"
         style="stop-color:#ffffff;stop-opacity:0" />
    </linearGradient>
    <radialGradient
       id="radialGradient4025"
       cx="25"
       cy="12"
       r="7.5"
       fx="25"
       fy="12"
       gradientTransform="matrix(0,9.5217056,-4.906667,0,127.62111,-315.64264)"
       gradientUnits="userSpaceOnUse"
       xlink:href="#linearGradient3690" />
    <linearGradient
       id="linearGradient3690">
      <stop
         id="stop3692"
         offset="0"
         style="stop-color:#ffeb9f" />
      <stop
         id="stop3694"
         offset=".262"
         style="stop-color:#ffd57e" />
      <stop
         id="stop3696"
         offset=".661"
         style="stop-color:#ffbc43" />
      <stop
         id="stop3698"
         offset="1"
         style="stop-color:#ff921a" />
    </linearGradient>
    <linearGradient
       id="linearGradient4033"
       x1="20"
       x2="20"
       y1="31.174"
       y2="8"
       gradientTransform="translate(0,-0.99999964)"
       gradientUnits="userSpaceOnUse"
       xlink:href="#linearGradient3603" />
    <linearGradient
       id="linearGradient3603">
      <stop
         id="stop3605"
         offset="0"
         style="stop-color:#a7651c" />
      <stop
         id="stop3607"
         offset="1"
         style="stop-color:#c8a700" />
    </linearGradient>
    <linearGradient
       id="linearGradient4647"
       x1="21.381"
       x2="21.381"
       y1="5.052"
       y2="44.137"
       gradientTransform="matrix(0.54285711,0,0,0.36842106,10.97143,25.473684)"
       gradientUnits="userSpaceOnUse"
       xlink:href="#linearGradient4649" />
    <linearGradient
       id="linearGradient4649">
      <stop
         id="stop4652"
         offset="0"
         style="stop-color:#ffffff" />
      <stop
         id="stop4654"
         offset=".185"
         style="stop-color:#ffffff;stop-opacity:0.23529412" />
      <stop
         id="stop4656"
         offset=".88"
         style="stop-color:#ffffff;stop-opacity:0.15686275" />
      <stop
         id="stop4658"
         offset="1"
         style="stop-color:#ffffff;stop-opacity:0.39215687" />
    </linearGradient>
    <linearGradient
       id="linearGradient4190-0"
       x1="77.444"
       x2="77.444"
       y1="41.185"
       y2="30.155"
       gradientTransform="matrix(3.2000001,0,0,3.2000001,-179.08112,-134.09731)"
       gradientUnits="userSpaceOnUse"
       xlink:href="#linearGradient3188-6" />
    <linearGradient
       id="linearGradient3188-6">
      <stop
         id="stop3190-6"
         offset="0"
         style="stop-color:#4d4d4d" />
      <stop
         id="stop3192-6"
         offset="1"
         style="stop-color:#4d4d4d" />
    </linearGradient>
    <radialGradient
       id="radialGradient4267"
       cx="28.925"
       cy="22.569"
       r="11.491"
       fx="28.925"
       fy="22.569"
       gradientTransform="matrix(1.1454014e-7,1.0911469,-3.5984978,3.7774237e-7,146.75381,-38.761306)"
       gradientUnits="userSpaceOnUse"
       xlink:href="#linearGradient4660" />
    <linearGradient
       id="linearGradient4660">
      <stop
         id="stop4662"
         offset="0"
         style="stop-color:#5e5c64" />
      <stop
         id="stop4664"
         offset="1"
         style="stop-color:#241f31" />
    </linearGradient>
    <linearGradient
       id="linearGradient3421"
       x1="32.085"
       x2="32.085"
       y1="-14.402"
       y2="-5.563"
       gradientTransform="matrix(0.6655121,0,0,0.4518781,-54.615029,45.875214)"
       gradientUnits="userSpaceOnUse"
       xlink:href="#linearGradient47870" />
    <linearGradient
       id="linearGradient47870">
      <stop
         id="stop47872"
         offset="0"
         style="stop-color:#000000;stop-opacity:0" />
      <stop
         id="stop47878"
         offset=".5"
         style="stop-color:#000000" />
      <stop
         id="stop47874"
         offset="1"
         style="stop-color:#000000;stop-opacity:0" />
    </linearGradient>
    <radialGradient
       id="radialGradient3418"
       cx="51.438"
       cy="-12.203"
       r="2.172"
       fx="51.438"
       fy="-12.203"
       gradientTransform="matrix(1.8417267,-5.1455073e-7,6.2669991e-7,0.9200109,-115.2312,52.586443)"
       gradientUnits="userSpaceOnUse"
       xlink:href="#linearGradient51765" />
    <linearGradient
       id="linearGradient51765">
      <stop
         id="stop51767"
         offset="0"
         style="stop-color:#000000" />
      <stop
         id="stop51769"
         offset="1"
         style="stop-color:#000000;stop-opacity:0" />
    </linearGradient>
    <radialGradient
       id="radialGradient4142"
       cx="51.438"
       cy="-12.203"
       r="2.172"
       fx="51.438"
       fy="-12.203"
       gradientTransform="matrix(-1.8417267,-5.8450938e-8,-1.2125708e-7,0.9200109,52.236437,52.586419)"
       gradientUnits="userSpaceOnUse"
       xlink:href="#linearGradient51765" />
    <radialGradient
       id="radialGradient5244"
       cx="25"
       cy="12"
       r="7.5"
       fx="25"
       fy="12"
       gradientTransform="matrix(0,2.9755329,-1.5333334,0,50.911001,-73.192276)"
       gradientUnits="userSpaceOnUse"
       xlink:href="#linearGradient3690-9" />
    <linearGradient
       id="linearGradient3690-9">
      <stop
         id="stop3692-0"
         offset="0"
         style="stop-color:#ffeb9f" />
      <stop
         id="stop3694-0"
         offset=".262"
         style="stop-color:#ffd57e" />
      <stop
         id="stop3696-74"
         offset=".661"
         style="stop-color:#ffbc43" />
      <stop
         id="stop3698-1"
         offset="1"
         style="stop-color:#ff921a" />
    </linearGradient>
    <radialGradient
       id="radialGradient5263"
       cx="25"
       cy="12"
       r="7.5"
       fx="25"
       fy="12"
       gradientTransform="matrix(0,2.9755329,-1.5333334,0,49.838001,-70.656095)"
       gradientUnits="userSpaceOnUse"
       xlink:href="#linearGradient3690-9-0" />
    <linearGradient
       id="linearGradient3690-9-0">
      <stop
         id="stop3692-0-0"
         offset="0"
         style="stop-color:#ffeb9f" />
      <stop
         id="stop3694-0-9"
         offset=".262"
         style="stop-color:#ffd57e" />
      <stop
         id="stop3696-74-4"
         offset=".661"
         style="stop-color:#ffbc43" />
      <stop
         id="stop3698-1-2"
         offset="1"
         style="stop-color:#ff921a" />
    </linearGradient>
    <radialGradient
       id="radialGradient5303"
       cx="25"
       cy="12"
       r="7.5"
       fx="25"
       fy="12"
       gradientTransform="matrix(0,2.9755329,-1.5333334,0,43.400001,-67.388322)"
       gradientUnits="userSpaceOnUse"
       xlink:href="#linearGradient3690-9-0-4" />
    <linearGradient
       id="linearGradient3690-9-0-4">
      <stop
         id="stop3692-0-0-8"
         offset="0"
         style="stop-color:#ffeb9f" />
      <stop
         id="stop3694-0-9-4"
         offset=".262"
         style="stop-color:#ffd57e" />
      <stop
         id="stop3696-74-4-3"
         offset=".661"
         style="stop-color:#ffbc43" />
      <stop
         id="stop3698-1-2-4"
         offset="1"
         style="stop-color:#ff921a" />
    </linearGradient>
    <linearGradient
       id="linearGradient7652-827">
      <stop
         id="stop3225"
         offset="0"
         style="stop-color:#5e5c64" />
      <stop
         id="stop3227"
         offset="1"
         style="stop-color:#5e5c64;stop-opacity:0" />
    </linearGradient>
    <linearGradient
       id="linearGradient7576-259">
      <stop
         id="stop3231"
         offset="0"
         style="stop-color:#3f3f3f" />
      <stop
         id="stop3233"
         offset="1"
         style="stop-color:#6c6c6c;stop-opacity:0" />
    </linearGradient>
    <linearGradient
       id="linearGradient5448"
       x1="37.625"
       x2="38.875"
       y1="40.313"
       y2="45.063"
       gradientTransform="matrix(-2.3059252,-0.19289566,0.19289566,-2.3059252,105.59662,57.135264)"
       gradientUnits="userSpaceOnUse"
       xlink:href="#linearGradient7652-827" />
    <linearGradient
       id="linearGradient5450"
       x1="38.75"
       x2="40.125"
       y1="40.625"
       y2="46.563"
       gradientTransform="matrix(-0.72060161,-0.06027989,0.06027989,-0.72060161,36.517347,49.104769)"
       gradientUnits="userSpaceOnUse"
       xlink:href="#linearGradient7576-259" />
    <linearGradient
       id="linearGradient3089"
       x1="27"
       x2="27"
       y1="9"
       y2="27"
       gradientTransform="translate(17.265545,-4.9993632)"
       gradientUnits="userSpaceOnUse"
       xlink:href="#linearGradient3642" />
    <linearGradient
       id="linearGradient900"
       x1="152"
       x2="152"
       y1="52"
       y2="260"
       gradientTransform="translate(-22.116485,-236.82523)"
       gradientUnits="userSpaceOnUse"
       xlink:href="#linearGradient898" />
    <linearGradient
       id="linearGradient898">
      <stop
         id="stop896"
         offset="0"
         style="stop-color:#111111" />
      <stop
         id="stop894"
         offset="1"
         style="stop-color:#4d4d4d" />
    </linearGradient>
    <linearGradient
       id="linearGradient1694"
       x1="39.997"
       x2="263.997"
       y1="156"
       y2="156"
       gradientTransform="rotate(90,259.35168,26.528837)"
       gradientUnits="userSpaceOnUse"
       xlink:href="#linearGradient908" />
    <linearGradient
       id="linearGradient908">
      <stop
         style="stop-color:#eab305"
         id="stop904"
         offset="0" />
      <stop
         style="stop-color:#ffda64"
         id="stop906"
         offset="1" />
    </linearGradient>
    <linearGradient
       id="linearGradient4358"
       x1="88"
       x2="488"
       y1="88"
       y2="488"
       gradientUnits="userSpaceOnUse"
       xlink:href="#linearGradient4360" />
    <linearGradient
       id="linearGradient4360">
      <stop
         id="stop4362"
         offset="0"
         style="stop-color:#000000;stop-opacity:0.58823532" />
      <stop
         id="stop4366"
         offset="1"
         style="stop-color:#000000;stop-opacity:0.20555556" />
    </linearGradient>
    <filter
       style="color-interpolation-filters:sRGB"
       id="filter4380"
       width="1.106"
       height="1.088"
       x="-.05"
       y="-.04">
      <feGaussianBlur
         id="feGaussianBlur4382"
         stdDeviation="8.48" />
    </filter>
    <filter
       style="color-interpolation-filters:sRGB"
       id="filter4346"
       width="1.026"
       height="1.022"
       x="-.01"
       y="-.01">
      <feGaussianBlur
         id="feGaussianBlur4348"
         stdDeviation="2.12" />
    </filter>
    <style
       id="style939"
       type="text/css"><![CDATA[
    .fil1 {fill:#252653}
    .fil0 {fill:#87BCF6}
   ]]></style>
    <linearGradient
       xlink:href="#linearGradient1018"
       gradientUnits="userSpaceOnUse"
       gradientTransform="matrix(0.54625232,0,0,0.54625232,-6.0941965,-68.413544)"
       y2="135.579"
       y1="240.139"
       x2="161.33"
       x1="160.305"
       id="linearGradient1007" />
    <linearGradient
       id="linearGradient1018">
      <stop
         style="stop-color:#37a6e6"
         offset="0"
         id="stop2" />
      <stop
         style="stop-color:#1a7fd4"
         offset="1"
         id="stop4" />
    </linearGradient>
    <filter
       y="-.03"
       x="-.02"
       height="1.05"
       width="1.046"
       id="filter925"
       style="color-interpolation-filters:sRGB">
      <feGaussianBlur
         stdDeviation="2.32"
         id="feGaussianBlur2" />
    </filter>
    <filter
       y="-.01"
       x="-.01"
       height="1.025"
       width="1.023"
       id="filter931"
       style="color-interpolation-filters:sRGB">
      <feGaussianBlur
         stdDeviation="1.16"
         id="feGaussianBlur5" />
    </filter>
    <linearGradient
       gradientUnits="userSpaceOnUse"
       y2="236"
       y1="-212"
       x2="296"
       x1="296"
       id="linearGradient1108">
      <stop
         style="stop-color:#ffffff"
         offset="0"
         id="stop8" />
      <stop
         style="stop-color:#ffffff;stop-opacity:.09803922"
         offset=".125"
         id="stop10" />
      <stop
         style="stop-color:#000000;stop-opacity:.09803922"
         offset=".925"
         id="stop12" />
      <stop
         style="stop-color:#000000;stop-opacity:.49803922"
         offset="1"
         id="stop14" />
    </linearGradient>
    <clipPath
       id="clipPath1082-3">
      <path
         id="path16"
         style="fill:#8c59d9"
         d="M 361.9375,-212 C 507.2348,-212 528,-191.28677 528,-46.125 V 70.125 C 528,215.28618 507.2348,236 361.9375,236 H 214.0625 C 68.7652,236 48,215.28618 48,70.125 V -46.125 C 48,-191.28677 68.7652,-212 214.0625,-212 Z" />
    </clipPath>
    <linearGradient
       xlink:href="#linearGradient1458"
       gradientUnits="userSpaceOnUse"
       gradientTransform="translate(0,640)"
       y2="120"
       y1="120"
       x2="416"
       x1="384"
       id="linearGradient1053-2" />
    <linearGradient
       id="linearGradient1458">
      <stop
         offset="0"
         id="stop1452"
         style="stop-color:#deddda" />
      <stop
         style="stop-color:#ffffff"
         offset=".511"
         id="stop1454" />
      <stop
         offset="1"
         id="stop1456"
         style="stop-color:#c0bfbc" />
    </linearGradient>
    <clipPath
       id="clipPath6207"
       clipPathUnits="userSpaceOnUse">
      <rect
         y="-7.7317243"
         x="-2.7109578"
         height="50.296413"
         width="68.065804"
         id="rect6209"
         style="opacity:0.98000004;fill:#695c89;fill-opacity:1;stroke:#aa0000;stroke-width:0;stroke-miterlimit:4;stroke-dasharray:none;stroke-opacity:1" />
    </clipPath>
    <linearGradient
       id="a">
      <stop
         stop-color="#68676b"
         offset="0"
         id="stop2-6" />
      <stop
         stop-color="#424048"
         offset=".8"
         id="stop4-7" />
      <stop
         stop-color="#241f31"
         offset="1"
         id="stop6" />
    </linearGradient>
    <radialGradient
       xlink:href="#a"
       gradientUnits="userSpaceOnUse"
       gradientTransform="matrix(1.34416 .0006 -.00062 1.38763 -121.22 -718.103)"
       fy="446.483"
       fx="279.422"
       r="224"
       cy="446.483"
       cx="279.422"
       id="d" />
    <linearGradient
       xlink:href="#b"
       gradientUnits="userSpaceOnUse"
       gradientTransform="matrix(1.0015,0,0,0.99993,21.106949,252.35398)"
       y2="234"
       y1="234"
       x2="-60"
       x1="43.844"
       id="e" />
    <linearGradient
       id="b">
      <stop
         stop-color="#d5d3cf"
         offset="0"
         id="stop11" />
      <stop
         stop-color="#e3e2df"
         offset=".038"
         id="stop13" />
      <stop
         stop-color="#c0bfbc"
         offset=".077"
         id="stop15" />
      <stop
         stop-color="#c0bfbc"
         offset=".923"
         id="stop17" />
      <stop
         stop-color="#e3e2df"
         offset=".962"
         id="stop19" />
      <stop
         stop-color="#d5d3cf"
         offset="1"
         id="stop21" />
    </linearGradient>
    <filter
       y="-.03"
       x="-.02"
       height="1.05"
       width="1.046"
       id="filter925-5"
       style="color-interpolation-filters:sRGB">
      <feGaussianBlur
         stdDeviation="2.32"
         id="feGaussianBlur2-6" />
    </filter>
    <filter
       y="-.01"
       x="-.01"
       height="1.025"
       width="1.023"
       id="filter931-2"
       style="color-interpolation-filters:sRGB">
      <feGaussianBlur
         stdDeviation="1.16"
         id="feGaussianBlur5-9" />
    </filter>
    <clipPath
       id="clipPath1082-3-9">
      <path
         id="path16-3"
         style="fill:#8c59d9"
         d="M 361.9375,-212 C 507.2348,-212 528,-191.28677 528,-46.125 V 70.125 C 528,215.28618 507.2348,236 361.9375,236 H 214.0625 C 68.7652,236 48,215.28618 48,70.125 V -46.125 C 48,-191.28677 68.7652,-212 214.0625,-212 Z" />
    </clipPath>
    <radialGradient
       xlink:href="#a"
       gradientUnits="userSpaceOnUse"
       gradientTransform="matrix(1.34416 .0006 -.00062 1.38763 -121.22 -718.103)"
       fy="446.483"
       fx="279.422"
       r="224"
       cy="446.483"
       cx="279.422"
       id="d-5" />
    <linearGradient
       xlink:href="#b-2"
       gradientUnits="userSpaceOnUse"
       gradientTransform="matrix(1.0015,0,0,0.99993,72.09,-115.985)"
       y2="234"
       y1="234"
       x2="-60"
       x1="43.844"
       id="e-6" />
    <linearGradient
       id="b-2">
      <stop
         stop-color="#d5d3cf"
         offset="0"
         id="stop11-9"
         style="stop-color:#57e389" />
      <stop
         stop-color="#e3e2df"
         offset=".038"
         id="stop13-1"
         style="stop-color:#8ff0a4" />
      <stop
         stop-color="#c0bfbc"
         offset=".077"
         id="stop15-2"
         style="stop-color:#26a269" />
      <stop
         stop-color="#c0bfbc"
         offset=".923"
         id="stop17-7"
         style="stop-color:#26a269" />
      <stop
         stop-color="#e3e2df"
         offset=".962"
         id="stop19-0"
         style="stop-color:#8ff0a4" />
      <stop
         stop-color="#d5d3cf"
         offset="1"
         id="stop21-9"
         style="stop-color:#57e389" />
    </linearGradient>
    <filter
       inkscape:collect="always"
       style="color-interpolation-filters:sRGB"
       id="filter1345-3"
       x="-0.024"
       width="1.048"
       y="-0.024"
       height="1.048">
      <feGaussianBlur
         inkscape:collect="always"
         stdDeviation="1.28"
         id="feGaussianBlur1347-6" />
    </filter>
    <radialGradient
       xlink:href="#a"
       gradientUnits="userSpaceOnUse"
       gradientTransform="matrix(1.34416 .0006 -.00062 1.38763 -121.22 -718.103)"
       fy="446.483"
       fx="279.422"
       r="224"
       cy="446.483"
       cx="279.422"
       id="d-6" />
  </defs>
  <g
     id="layer1"
     transform="translate(0,208)">
    <path
       style="opacity:0.1;filter:url(#filter4346)"
       d="M 141.84323,74 C 71.24979,74 63.65402,81.250835 64,151.98706 V 298 444.01294 C 63.65402,514.74917 71.24979,522 141.84323,522 H 434.15677 C 504.75021,522 513.9371,514.72348 512,444.01294 V 298 151.98706 C 512,81.249993 504.75021,74 434.15677,74 Z"
       transform="matrix(0.5,0,0,0.5,-14.116488,-228.82553)"
       id="path109" />
    <path
       d="M 141.84323,74 C 71.24979,74 63.65402,81.250835 64,151.98706 V 298 444.01294 C 63.65402,514.74917 71.24979,522 141.84323,522 H 434.15677 C 504.75021,522 513.9371,514.72348 512,444.01294 V 298 151.98706 C 512,81.249993 504.75021,74 434.15677,74 Z"
       transform="matrix(0.5,0,0,0.5,-14.116488,-228.82523)"
       style="opacity:0.3;fill:url(#linearGradient4358);filter:url(#filter4380)"
       id="path111" />
    <path
       style="opacity:0.1"
       d="m 55.695112,-194.82553 c -36.09881,0 -39.983002,3.69016 -39.80608,39.68984 v 74.310155 74.3101591 C 15.71211,29.484314 19.596302,33.174464 55.695112,33.174464 H 204.08243 c 36.09881,0 40.77464,-3.70276 39.80608,-39.6898399 V -80.825535 -155.13569 c 0,-36.00011 -3.70727,-39.68984 -39.80608,-39.68984 z"
       id="path113" />
    <path
       style="fill:#33d17a;fill-opacity:1"
       d="m 202.95648,-192.82554 c 35.29673,0 39.09461,3.62542 38.92162,38.99353 v 73.006465 73.0064791 C 242.05109,27.549054 238.25321,31.174464 202.95648,31.174464 H 56.79973 c -35.29671,0 -38.921609,-3.625 -38.921609,-38.9935299 V -80.825545 -153.83201 c 0,-35.36853 3.624899,-38.99353 38.921609,-38.99353 z"
       id="path115" />
    <path
       style="opacity:0.05;fill:#ffffff"
       d="m 17.877654,-80.825235 v 8 65.0058591 c 0,35.3685299 3.625164,38.9941399 38.921874,38.9941399 H 202.95578 c 35.29673,0 39.09486,-3.62602 38.92187,-38.9941399 v -65.0058591 -8 z"
       id="path117" />
    <path
       style="opacity:0.3;fill:#ffffff"
       d="m 56.805392,-192.82553 c -35.296728,0 -39.094869,3.62603 -38.921879,38.99414 v 2 c -0.17299,-35.36811 3.625151,-38.99414 38.921879,-38.99414 H 202.96163 c 35.29673,0 38.92188,3.62561 38.92188,38.99414 v -2 c 0,-35.36853 -3.62515,-38.99414 -38.92188,-38.99414 z"
       id="path123" />
    <path
       style="opacity:0.2"
       d="m 56.810792,31.174464 c -35.296731,0 -39.094874,-3.62603 -38.921884,-38.9941399 v -2 C 17.715918,25.548434 21.514061,29.174464 56.810792,29.174464 H 202.96703 c 35.29673,0 38.92188,-3.62561 38.92188,-38.9941399 v 2 c 0,35.3685299 -3.62515,38.9941399 -38.92188,38.9941399 z"
       id="path125" />
  </g>
  <g
     style="clip-rule:evenodd;fill-rule:evenodd;image-rendering:optimizeQuality;shape-rendering:geometricPrecision;text-rendering:geometricPrecision"
     id="g964"
     transform="matrix(0.03779506,0,0,0.03779506,-714.36141,-185.95348)">
    <g
       id="Layer_x0020_1">
      <g
         id="g970" />
    </g>
  </g>
  <g
     style="enable-background:new"
     id="g990"
     transform="translate(-154.03488,32.542373)">
    <g
       transform="translate(0,-172)"
       id="layer1-3">
      <g
         id="layer9">
        <g
           id="g1062"
           transform="translate(-95.456646,218.55933)">
          <g
             id="g57"
             transform="translate(-117.15254,-266.37288)">
            <g
               style="enable-background:new"
               id="g1128"
               transform="translate(205.01597,227.40677)">
              <g
                 id="g1029"
                 transform="translate(43.468386,-18.768489)">
                <path
                   id="path21"
                   d="m 214.62333,29.852022 c -14.6404,0 -26.46952,5.326121 -35.46164,15.9773 -10.25924,12.137332 -15.39208,28.586037 -15.39208,49.39228 0,15.481208 2.9691,28.939328 8.96313,40.332518 9.10702,16.96736 23.10098,25.42794 41.89059,25.42794 4.06012,18.1303 15.25894,27.66684 41.59961,23.67227 v -13.1521 c -12.26187,1.13073 -14.92494,-5.60854 -15.88063,-17.53539 v -0.77959 c 3.68963,-2.35382 7.03777,-5.27352 10.03479,-8.86542 9.79857,-11.7658 14.71128,-28.16942 14.71128,-49.100228 0,-15.604682 -3.12803,-29.035962 -9.35294,-40.429147 C 246.51351,38.19664 232.8374,29.852022 214.62333,29.852022 Z m 98.68795,5.261694 -18.50936,0.486438 -6.13792,29.031673 h -13.1521 v 21.724359 h 12.08042 V 127.9558 c 0,11.39318 1.62469,19.38344 4.77418,23.96434 3.96452,6.0692 12.38541,9.06192 25.32809,9.06192 4.31566,0 9.66111,-0.58738 16.07502,-1.94897 v -20.65376 c -4.43057,0.24698 -7.72181,0.3898 -9.93602,0.3898 -3.61552,0 -6.18088,-0.61208 -7.6971,-1.85126 -1.8663,-1.48616 -2.82521,-5.32935 -2.82521,-11.39855 V 86.356186 h 19.0946 V 64.631827 h -19.0946 z m -98.68795,19.093512 c 14.29465,0.0011 21.4323,13.714767 21.4323,41.208733 0,27.495059 -7.13765,41.307549 -21.4323,41.307549 -14.52441,0 -21.82097,-13.88336 -21.82097,-41.501908 0,-1.114615 0,-2.197022 0,-3.312716 0.69044,-25.140168 7.9881,-37.700585 21.82097,-37.701658 z"
                   style="isolation:isolate;fill:#f6f5f4;stroke-width:2.42857146"
                   inkscape:connector-curvature="0" />
                <path
                   style="display:inline;opacity:0.1;fill:#000000;fill-opacity:1;stroke:none;stroke-width:16;stroke-linecap:round;stroke-linejoin:round;stroke-miterlimit:4;stroke-dasharray:none;stroke-dashoffset:0;stroke-opacity:1;enable-background:new"
                   d="m 319.23189,194.63273 a 4,4 0 0 0 -4,3.99999 4,4 0 0 0 4,4.00001 4,4 0 0 0 4,-4.00001 4,4 0 0 0 -4,-3.99999 z"
                   id="circle1473"
                   inkscape:connector-curvature="0" />
                <circle
                   cy="167.5609"
                   cx="307.23172"
                   id="circle1327"
                   style="display:inline;opacity:0.2;fill:#000000;fill-opacity:1;stroke:none;stroke-width:1;stroke-linecap:round;stroke-linejoin:round;stroke-miterlimit:4;stroke-dasharray:none;stroke-dashoffset:1;stroke-opacity:0.4;filter:url(#filter1345-3);enable-background:new"
                   r="64" />
                <circle
                   style="display:inline;opacity:1;fill:#4d4d4d;fill-opacity:1;stroke:none;stroke-width:1;stroke-linecap:round;stroke-linejoin:round;stroke-miterlimit:4;stroke-dasharray:none;stroke-dashoffset:1;stroke-opacity:0.4;enable-background:new"
                   id="path1173-9"
                   cx="307.23172"
                   cy="165.56093"
                   r="64" />
                <g
                   id="g1108"
                   transform="translate(382.05459,-5.492253)" />
                <g
                   transform="matrix(5.3125,0,0,5.3125,-2986.5183,-833.18907)"
                   id="g15"
                   style="fill:#f6f5f4;fill-opacity:1">
                  <path
                     inkscape:connector-curvature="0"
                     d="m 617.13672,181.62305 c -0.26735,0.11903 -0.52697,0.25472 -0.77734,0.40625 -0.0854,1.24206 -0.11186,2.46684 -0.0625,3.66015 0.21136,-0.1141 0.44824,-0.18554 0.70312,-0.18554 0.10137,0 0.20085,0.0118 0.29688,0.0312 -0.0491,-1.25875 -0.0291,-2.5564 0.082,-3.89258 z m 6.16211,0.20703 c -0.0169,0.75686 -0.0849,1.5034 -0.20313,2.23828 0.12973,-0.037 0.26348,-0.0645 0.4043,-0.0645 0.21405,0 0.41639,0.0486 0.60156,0.13086 0.0849,-0.54825 0.13966,-1.1037 0.17578,-1.66407 -0.30773,-0.24046 -0.63504,-0.45475 -0.97851,-0.64062 z m -9.3125,2.60351 c -0.17399,0.29 -0.32673,0.59222 -0.45703,0.9043 0.60759,0.42109 1.22564,0.84164 1.86914,1.25391 -0.82208,0.3399 -1.61365,0.76021 -2.38867,1.23047 -0.004,0.0592 -0.007,0.11845 -0.01,0.17773 0.003,0.31507 0.027,0.62959 0.0723,0.94141 0.82021,-0.52963 1.6745,-0.97098 2.55859,-1.3418 -0.0822,-0.18436 -0.13093,-0.38616 -0.13086,-0.59961 -1.6e-4,-0.4774 0.23271,-0.90117 0.58594,-1.17578 -0.71749,-0.45476 -1.41549,-0.9214 -2.09961,-1.39063 z m 12.18164,0.26758 c -0.4567,0.0202 -0.9247,0.0298 -1.375,0.0566 0.12829,0.21999 0.20712,0.47136 0.20703,0.74219 3e-5,0.0847 -0.0116,0.16708 -0.0254,0.24805 0.52881,-0.0302 1.08034,-0.0433 1.62109,-0.0645 -0.11727,-0.33792 -0.26026,-0.66636 -0.42773,-0.98242 z m -4.07031,0.28516 c -1.46687,0.16701 -2.88623,0.41422 -4.25,0.7832 0.29865,0.20618 0.51671,0.51806 0.60546,0.87891 1.16603,-0.29432 2.38157,-0.50085 3.64063,-0.64844 -0.057,-0.15726 -0.0938,-0.32409 -0.0937,-0.5 -6e-5,-0.1809 0.0376,-0.35266 0.0977,-0.51367 z m 0.40039,1.61719 c -0.15229,0.4736 -0.32269,0.93962 -0.51172,1.39843 0.005,-4e-5 0.009,-0.002 0.0137,-0.002 0.35106,0 0.67262,0.12684 0.92969,0.33203 0.17948,-0.44115 0.34443,-0.88804 0.49219,-1.34375 -0.35367,-0.0188 -0.67535,-0.15995 -0.92383,-0.38476 z m -4.02149,0.62695 c -0.0553,0.34908 -0.23156,0.6569 -0.48633,0.88281 0.81971,0.44481 1.66091,0.8579 2.52539,1.22852 0.0372,-0.35232 0.19235,-0.6709 0.4336,-0.90821 -0.8428,-0.36186 -1.66693,-0.76442 -2.47266,-1.20312 z m -0.89062,1.14258 c -0.1809,0.0778 -0.37807,0.12304 -0.58594,0.12304 -0.15664,0 -0.30473,-0.0327 -0.44727,-0.0781 0.13402,0.82273 0.32528,1.61557 0.56641,2.37891 0.24868,-0.1823 0.55204,-0.29297 0.88086,-0.29297 0.0267,0 0.0518,0.006 0.0781,0.008 -0.21384,-0.67907 -0.36692,-1.39948 -0.49218,-2.13867 z m 5.90039,0.99218 c 0.004,0.0437 0.0137,0.0862 0.0137,0.13086 1.1e-4,0.31252 -0.0987,0.60281 -0.26562,0.84375 1.00549,0.29283 2.03831,0.50474 3.0957,0.62891 0.14779,-0.31071 0.27248,-0.63189 0.37304,-0.96094 -1.09568,-0.11262 -2.1683,-0.33539 -3.21679,-0.64258 z m -2.95508,0.43165 c -0.48076,0.41864 -1.00921,0.77559 -1.57031,1.0664 0.25934,0.21882 0.44486,0.51872 0.50976,0.86328 0.55912,-0.29554 1.09783,-0.65159 1.59571,-1.07226 -0.2666,-0.21473 -0.46351,-0.51205 -0.53516,-0.85742 z m -4.00391,1.94726 c -0.14486,0.0365 -0.29311,0.0879 -0.43554,0.11719 -0.64334,0.13227 -1.2284,0.19061 -1.76563,0.22265 0.24026,0.33426 0.50953,0.64667 0.80469,0.9336 0.3743,-0.044 0.75587,-0.0923 1.16211,-0.17578 0.13332,-0.0274 0.27446,-0.077 0.41015,-0.10938 -0.12504,-0.21791 -0.20321,-0.4653 -0.20312,-0.73242 -3e-5,-0.0874 0.0127,-0.17244 0.0273,-0.25586 z m 2.61719,1.20703 c -0.22057,0.26289 -0.52394,0.45269 -0.87305,0.51758 0.23556,0.40242 0.9888,1.79207 1.27501,2.16189 l 0.79101,-0.61328 c -0.25879,-0.3344 -0.9831,-1.69395 -1.19297,-2.06619 z"
                     style="opacity:0.5;fill:#f6f5f4;fill-rule:evenodd;fill-opacity:1"
                     id="path11" />
                  <path
                     inkscape:connector-curvature="0"
                     d="m 620,180 a 8,8 0 0 0 -8,8 8,8 0 0 0 8,8 8,8 0 0 0 8,-8 8,8 0 0 0 -8,-8 z m 0,1 a 7,7 0 0 1 7,7 7,7 0 0 1 -7,7 7,7 0 0 1 -7,-7 7,7 0 0 1 7,-7 z m 3.5,3.50391 a 1,0.9957518 0 0 0 -1,0.99609 1,0.9957518 0 0 0 1,0.99609 1,0.9957518 0 0 0 1,-0.99609 1,0.9957518 0 0 0 -1,-0.99609 z m -6.5,1.5 A 1,0.9957518 0 0 0 616,187 a 1,0.9957518 0 0 0 1,0.99609 1,0.9957518 0 0 0 1,-0.99609 1,0.9957518 0 0 0 -1,-0.99609 z m 5,2.49609 a 1,0.9957518 0 0 0 -1,0.99609 1,0.9957518 0 0 0 1,0.9961 1,0.9957518 0 0 0 1,-0.9961 1,0.9957518 0 0 0 -1,-0.99609 z m -4,2.50391 A 1,0.9957518 0 0 0 617,192 a 1,0.9957518 0 0 0 1,0.99609 1,0.9957518 0 0 0 1,-0.99609 1,0.9957518 0 0 0 -1,-0.99609 z"
                     style="fill:#f6f5f4;fill-opacity:1"
                     id="path13" />
                </g>
              </g>
            </g>
          </g>
        </g>
      </g>
    </g>
  </g>
</svg>
