<svg height="256" width="256" xmlns="http://www.w3.org/2000/svg" xmlns:xlink="http://www.w3.org/1999/xlink">
  <filter id="filter1458" color-interpolation-filters="sRGB" height="1.142" width="1.104" x="-.05" y="-.07">
    <feGaussianBlur stdDeviation="1.929"/>
  </filter>
  <filter id="filter1462" color-interpolation-filters="sRGB" height="1.66" width="1.066" x="-.03" y="-.33">
    <feGaussianBlur stdDeviation="1.1"/>
  </filter>
  <linearGradient id="linearGradient4226" gradientTransform="matrix(0 -.453125 -.45311204 0 253.29054 239.17476)" gradientUnits="userSpaceOnUse" x1="494.345" x2="4.414" y1="386.295" y2="169.657">
    <stop offset="0" stop-color="#5884f4"/>
    <stop offset="1" stop-color="#80a3fa"/>
  </linearGradient>
  <linearGradient id="linearGradient4358" gradientUnits="userSpaceOnUse" x1="88" x2="488" y1="88" y2="488">
    <stop offset="0" stop-opacity=".588235"/>
    <stop offset=".88" stop-opacity="0"/>
    <stop offset="1"/>
  </linearGradient>
  <filter id="filter4380" color-interpolation-filters="sRGB" height="1.088" width="1.106" x="-.05" y="-.04">
    <feGaussianBlur stdDeviation="8.48"/>
  </filter>
  <filter id="filter4346" color-interpolation-filters="sRGB" height="1.022" width="1.026" x="-.01" y="-.01">
    <feGaussianBlur stdDeviation="2.12"/>
  </filter>
  <path d="m189.84323 74c-70.59344 0-78.18921 7.250835-77.84323 77.98706v146.01294 146.01294c-.34598 70.73623 7.24979 77.98706 77.84323 77.98706h196.31354c70.59344 0 76.00668-7.27384 77.84323-77.98706v-146.01294-146.01294c0-70.737067-7.24979-77.98706-77.84323-77.98706z" filter="url(#filter4346)" opacity=".1" transform="matrix(.5 0 0 .5 -16.666462 -20.825235)"/>
  <path d="m189.84323 74c-70.59344 0-78.18921 7.250835-77.84323 77.98706v146.01294 146.01294c-.34598 70.73623 7.24979 77.98706 77.84323 77.98706h196.31354c70.59344 0 77.84323-7.24999 77.84323-77.98706v-146.01294-146.01294c0-70.737067-7.24979-77.98706-77.84323-77.98706z" fill="url(#linearGradient4358)" filter="url(#filter4380)" opacity=".3" transform="matrix(.5 0 0 .5 -16.666462 -20.825235)"/>
  <path d="m77.145138 13.174765c-36.09881 0-39.983 3.690158-39.80608 39.689842v74.310153 74.31016c-.17692 35.99969 3.70727 39.68984 39.80608 39.68984h100.387322c36.09881 0 39.80608-3.68973 39.80608-39.68984v-74.31016-74.310153c0-36.000113-3.70727-39.689842-39.80608-39.689842z" opacity=".1"/>
  <path d="m176.40652 15.174765c35.29673 0 39.09461 3.625418 38.92162 38.99353v73.006465 73.00647c.17299 35.36812-3.62489 38.99353-38.92162 38.99353h-98.156762c-35.29672 0-38.92162-3.625-38.92162-38.99353v-73.00647-73.006465c0-35.368533 3.6249-38.99353 38.92162-38.99353z" fill="url(#linearGradient4226)"/>
  <path d="m127.33354 15.174765v223.999995h49.07227c35.29673 0 39.09486-3.62602 38.92187-38.99414v-73.00586-73.005854c.17299-35.368112-3.62514-38.994141-38.92187-38.994141z" fill="#fff" opacity=".1"/>
  <path d="m127.33392 121.1749v8h64v-8z" fill-rule="evenodd" filter="url(#filter1462)" opacity=".2"/>
  <path d="m104.0058 50.846779-21.171882 21.171876-12.171884-12.171876-5.65625 5.65625 17.828134 17.828126 26.828122-26.828126z" fill="#024" opacity=".2"/>
  <path d="m252.34375 159.70508-42.34375 42.34375-24.34375-24.34375-11.3125 11.31445 35.65625 35.65625 53.65625-53.65625z" filter="url(#filter1458)" opacity=".2" transform="matrix(.50000004 0 0 .50000004 -22.166096 28.993783)"/>
  <path d="m104.0058 106.84679-21.171882 21.17186-12.171884-12.17187-5.65625 5.65624 17.828134 17.82813 26.828122-26.82812z" fill="#fdfeff"/>
  <path d="m104.0058 162.84678-21.171882 21.17187-12.171884-12.17187-5.65625 5.65624 17.828134 17.82813 26.828122-26.82813z" fill="#024" opacity=".2"/>
  <g fill-rule="evenodd">
    <path d="m127.33392 63.174904v8.000001h64v-8.000001z" fill="#024" opacity=".2"/>
    <path d="m127.33392 119.1749v8h64v-8z" fill="#fdfeff"/>
    <path d="m127.33392 175.1749v8h64v-8z" fill="#024" opacity=".2"/>
  </g>
  <path d="m78.260818 239.17476c-35.296735 0-39.094875-3.62603-38.921885-38.99414v-2c-.17299 35.36811 3.62515 38.99414 38.921885 38.99414h98.156242c35.29673 0 38.92188-3.62561 38.92188-38.99414v2c0 35.36853-3.62515 38.99414-38.92188 38.99414z" opacity=".2"/>
  <path d="m78.255418 15.174765c-35.29673 0-39.09487 3.626029-38.92188 38.994141v2c-.17299-35.368112 3.62515-38.994141 38.92188-38.994141h98.156242c35.29673 0 38.92188 3.625608 38.92188 38.994141v-2c0-35.368533-3.62515-38.994141-38.92188-38.994141z" fill="#fff" opacity=".3"/>
</svg>
