<svg xmlns="http://www.w3.org/2000/svg" xmlns:xlink="http://www.w3.org/1999/xlink" style="enable-background:new" width="256" height="256" version="1.0" viewBox="0 0 256 256">
 <title id="title4162">
  Adwaita Icon Template
 </title>
 <defs>
  <linearGradient id="linearGradient1574" x1="344" x2="340" y1="76" y2="72" gradientTransform="matrix(0.25,0,0,0.25,180,83)" gradientUnits="userSpaceOnUse" xlink:href="#linearGradient1351-3"/>
  <linearGradient id="linearGradient1351-3">
   <stop id="stop1347" offset="0" style="stop-color:#d5d3cf"/>
   <stop id="stop1349-6" offset="1" style="stop-color:#ffffff"/>
  </linearGradient>
  <clipPath id="clipPath1609" clipPathUnits="userSpaceOnUse">
   <path style="fill:#e74747" d="m 252,116 28,-28 v -8 h -36 v 36 z"/>
  </clipPath>
  <linearGradient id="linearGradient1572" x1="256" x2="256" y1="268" y2="-180" gradientUnits="userSpaceOnUse" xlink:href="#linearGradient1187"/>
  <linearGradient id="linearGradient1187">
   <stop id="stop1183" offset="0" style="stop-color:#eeeeec"/>
   <stop id="stop1185" offset="1" style="stop-color:#ffffff"/>
  </linearGradient>
  <linearGradient id="linearGradient979" x1="261.503" x2="261.23" y1="105.838" y2="105.559" gradientUnits="userSpaceOnUse" xlink:href="#linearGradient1351-3"/>
  <clipPath id="clipPath1609-7-3" clipPathUnits="userSpaceOnUse">
   <path style="fill:#e74747" d="m 252,116 28,-28 v -8 h -36 v 36 z"/>
  </clipPath>
  <linearGradient id="linearGradient917" x1="103.436" x2="102.252" y1="264.437" y2="263.286" gradientUnits="userSpaceOnUse" xlink:href="#linearGradient1351-3"/>
  <filter style="color-interpolation-filters:sRGB" id="filter1060" width="1.048" height="1.048" x="-.02" y="-.02">
   <feGaussianBlur id="feGaussianBlur1062" stdDeviation="1.531"/>
  </filter>
  <linearGradient id="linearGradient4226" x1="494.345" x2="4.414" y1="386.295" y2="169.657" gradientTransform="matrix(0,-0.453125,-0.45311204,0,253.29054,239.17476)" gradientUnits="userSpaceOnUse" xlink:href="#linearGradient4245"/>
  <linearGradient id="linearGradient4245">
   <stop id="stop4241" offset="0" style="stop-color:#e8e8e8"/>
   <stop id="stop4243" offset="1" style="stop-color:#f5f5f5"/>
  </linearGradient>
  <linearGradient id="linearGradient4358" x1="88" x2="488" y1="88" y2="488" gradientUnits="userSpaceOnUse" xlink:href="#linearGradient4360"/>
  <linearGradient id="linearGradient4360">
   <stop id="stop4362" offset="0" style="stop-color:#000000;stop-opacity:0.58823532"/>
   <stop style="stop-color:#000000;stop-opacity:0" id="stop4364" offset=".88"/>
   <stop id="stop4366" offset="1" style="stop-color:#000000"/>
  </linearGradient>
  <filter style="color-interpolation-filters:sRGB" id="filter4380" width="1.106" height="1.088" x="-.05" y="-.04">
   <feGaussianBlur id="feGaussianBlur4382" stdDeviation="8.48"/>
  </filter>
  <filter style="color-interpolation-filters:sRGB" id="filter4346" width="1.026" height="1.022" x="-.01" y="-.01">
   <feGaussianBlur id="feGaussianBlur4348" stdDeviation="2.12"/>
  </filter>
 </defs>
 <path style="opacity:0.1;filter:url(#filter4346)" d="M 189.84323,74 C 119.24979,74 111.65402,81.250835 112,151.98706 V 298 444.01294 C 111.65402,514.74917 119.24979,522 189.84323,522 H 386.15677 C 456.75021,522 462.16345,514.72616 464,444.01294 V 298 151.98706 C 464,81.249993 456.75021,74 386.15677,74 Z" transform="matrix(0.5,0,0,0.5,-16.666462,-20.825235)"/>
 <path d="M 189.84323,74 C 119.24979,74 111.65402,81.250835 112,151.98706 V 298 444.01294 C 111.65402,514.74917 119.24979,522 189.84323,522 H 386.15677 C 456.75021,522 464,514.75001 464,444.01294 V 298 151.98706 C 464,81.249993 456.75021,74 386.15677,74 Z" transform="matrix(0.5,0,0,0.5,-16.666462,-20.825235)" style="opacity:0.3;fill:url(#linearGradient4358);filter:url(#filter4380)"/>
 <path style="opacity:0.1" d="m 77.145138,13.174765 c -36.098811,0 -39.983003,3.690158 -39.806081,39.689842 v 74.310153 74.31016 c -0.176922,35.99969 3.70727,39.68984 39.806081,39.68984 H 177.53246 c 36.09881,0 39.80608,-3.68973 39.80608,-39.68984 V 127.17476 52.864607 c 0,-36.000113 -3.70727,-39.689842 -39.80608,-39.689842 z"/>
 <path style="fill:url(#linearGradient4226)" d="m 176.40652,15.174765 c 35.29673,0 39.09461,3.625418 38.92162,38.99353 v 73.006465 73.00647 c 0.17299,35.36812 -3.62489,38.99353 -38.92162,38.99353 H 78.249758 c -35.296716,0 -38.921616,-3.625 -38.921616,-38.99353 V 127.17476 54.168295 c 0,-35.368533 3.6249,-38.99353 38.921616,-38.99353 z"/>
 <path style="fill:#ffffff" d="m 215.32768,187.18062 -51.99414,51.99414 h 13.07227 c 35.29673,0 39.09486,-3.62602 38.92187,-38.99414 z"/>
 <path style="opacity:0.3;fill:#ffffff" d="m 78.255418,15.174765 c -35.296728,0 -39.09487,3.626029 -38.92188,38.994141 v 2 C 39.160548,20.800794 42.95869,17.174765 78.255418,17.174765 h 98.156242 c 35.29673,0 38.92188,3.625608 38.92188,38.994141 v -2 c 0,-35.368533 -3.62515,-38.994141 -38.92188,-38.994141 z"/>
 <path style="opacity:0.2" d="m 78.260818,239.17476 c -35.296731,0 -39.094875,-3.62603 -38.921885,-38.99414 v -2 c -0.17299,35.36811 3.625154,38.99414 38.921885,38.99414 h 98.156242 c 35.29673,0 38.92188,-3.62561 38.92188,-38.99414 v 2 c 0,35.36853 -3.62515,38.99414 -38.92188,38.99414 z"/>
 <path style="opacity:0.2;fill:#ffffff" d="M 127.33353,15.174765 V 239.17476 h 49.07228 c 35.29673,0 39.09486,-3.62602 38.92187,-38.99414 V 127.17476 54.168906 c 0.17299,-35.368112 -3.62514,-38.994141 -38.92187,-38.994141 z"/>
 <path style="opacity:0.2;fill:#ffffff" d="m 39.327679,127.17476 v 73.00586 c 0,35.36853 3.625159,38.99414 38.921879,38.99414 h 98.156252 c 35.29673,0 39.09486,-3.62602 38.92187,-38.99414 v -73.00586 z"/>
 <rect style="opacity:0.4" width="8" height="8" x="47.33" y="27.18" rx="2" ry="2"/>
 <rect style="opacity:0.4" width="8" height="8" x="47.33" y="43.17" rx="2" ry="2"/>
 <rect style="opacity:0.4" width="8" height="8" x="47.33" y="59.17" rx="2" ry="2"/>
 <rect style="opacity:0.4" width="8" height="8" x="47.33" y="75.17" rx="2" ry="2"/>
 <rect style="opacity:0.4" width="8" height="8" x="47.33" y="91.17" rx="2" ry="2"/>
 <rect style="opacity:0.4" width="8" height="8" x="47.33" y="107.17" rx="2" ry="2"/>
 <rect style="opacity:0.4" width="8" height="8" x="47.33" y="123.17" rx="2" ry="2"/>
 <rect style="opacity:0.4" width="8" height="8" x="47.33" y="139.18" rx="2" ry="2"/>
 <rect style="opacity:0.4" width="8" height="8" x="47.33" y="155.18" rx="2" ry="2"/>
 <rect style="opacity:0.4" width="8" height="8" x="47.33" y="171.18" rx="2" ry="2"/>
 <rect style="opacity:0.4" width="8" height="8" x="47.33" y="187.18" rx="2" ry="2"/>
 <rect style="opacity:0.4" width="8" height="8" x="47.33" y="203.18" rx="2" ry="2"/>
 <rect style="opacity:0.4" width="8" height="8" x="47.33" y="219.18" rx="2" ry="2"/>
 <rect style="opacity:0.4" width="8" height="8" x="199.33" y="27.18" rx="2" ry="2"/>
 <rect style="opacity:0.4" width="8" height="8" x="199.33" y="43.17" rx="2" ry="2"/>
 <rect style="opacity:0.4" width="8" height="8" x="199.33" y="59.17" rx="2" ry="2"/>
 <rect style="opacity:0.4" width="8" height="8" x="199.33" y="75.17" rx="2" ry="2"/>
 <rect style="opacity:0.4" width="8" height="8" x="199.33" y="91.17" rx="2" ry="2"/>
 <rect style="opacity:0.4" width="8" height="8" x="199.33" y="107.17" rx="2" ry="2"/>
 <rect style="opacity:0.4" width="8" height="8" x="199.33" y="123.17" rx="2" ry="2"/>
 <rect style="opacity:0.4" width="8" height="8" x="199.33" y="139.18" rx="2" ry="2"/>
 <rect style="opacity:0.4" width="8" height="8" x="199.33" y="155.18" rx="2" ry="2"/>
 <rect style="opacity:0.4" width="8" height="8" x="199.33" y="171.18" rx="2" ry="2"/>
 <rect style="opacity:0.4" width="8" height="8" x="199.33" y="187.18" rx="2" ry="2"/>
 <rect style="opacity:0.4" width="8" height="8" x="199.33" y="203.18" rx="2" ry="2"/>
 <rect style="opacity:0.4" width="8" height="8" x="199.33" y="219.18" rx="2" ry="2"/>
 <path style="fill:#e3dfd5;fill-opacity:0.99607843" d="m 63.333538,51.248994 v 4 H 191.33354 v -4 z"/>
 <path style="fill:#e3dfd5;fill-opacity:0.99607843" d="m 63.333538,67.248995 v 4 H 191.33354 v -4 z"/>
 <path style="fill:#e3dfd5;fill-opacity:0.99607843" d="m 63.333538,83.174775 v 3.99999 H 191.33354 v -3.99999 z"/>
 <path style="fill:#e3dfd5;fill-opacity:0.99607843" d="m 63.333538,99.174764 v 3.999996 H 191.33354 v -3.999996 z"/>
 <path style="fill:#e3dfd5;fill-opacity:0.99607843" d="m 63.333538,115.17476 v 4 l 128.000002,0.0742 v -4 z"/>
 <path style="fill:#e3dfd5;fill-opacity:0.99607843" d="m 63.333538,131.17476 v 4 H 191.33354 v -4 z"/>
 <path style="fill:#e3dfd5;fill-opacity:0.99607843" d="m 63.333538,147.17476 v 4 H 191.33354 v -4 z"/>
 <path style="fill:#e3dfd5;fill-opacity:0.99607843" d="m 63.333538,163.17476 v 4 l 128.000002,0.0742 v -4 z"/>
 <path style="fill:#e3dfd5;fill-opacity:0.99607843" d="m 63.333538,179.17476 v 4 H 191.33354 v -4 z"/>
 <path style="fill:#e3dfd5;fill-opacity:0.99607843" d="m 63.333538,195.17476 v 4 H 191.33354 v -4 z"/>
 <path style="opacity:0.1;filter:url(#filter1060)" d="m 119.2084,54.174775 c -35.298037,0 -63.999992,28.70196 -63.999992,63.999985 0,35.29804 28.701955,64 63.999992,64 15.45233,0 29.63936,-5.50209 40.70899,-14.64844 l 6.89063,6.89063 -1.41406,1.41406 31.49999,31.5 11.31445,-11.3125 -31.49999,-31.5 -1.41406,1.41406 -6.88086,-6.88086 c 9.23157,-11.09442 14.79492,-25.34465 14.79492,-40.87695 0,-35.298025 -28.70196,-63.999985 -64.00001,-63.999985 z m 0,8.136719 c 30.90125,0 55.86524,24.962031 55.86524,55.863266 0,30.90124 -24.96399,55.86523 -55.86524,55.86523 -30.901237,0 -55.865222,-24.96399 -55.865222,-55.86523 0,-30.901235 24.963985,-55.863266 55.865222,-55.863266 z"/>
 <g style="enable-background:new" transform="translate(-26.666302,-24.825228)">
  <g transform="matrix(-1,0,0,1,319.8747,3.1e-4)" style="enable-background:new">
   <path d="m 116.15722,195.99999 12.00001,-12" style="fill:none;stroke:#888888;stroke-width:11.99999905"/>
   <path style="fill:none;stroke:#3b3b3b;stroke-width:15.99999905" d="m 88.657217,223.49999 31.500013,-31.5"/>
  </g>
  <circle cx="147.875" cy="140" r="59.932" style="fill:#ffffff;fill-opacity:0.54292345;stroke:#666666;stroke-width:8.13559246"/>
 </g>
</svg>
