<svg enable-background="new" height="256" viewBox="0 0 256 256" width="256" xmlns="http://www.w3.org/2000/svg" xmlns:xlink="http://www.w3.org/1999/xlink">
  <linearGradient id="linearGradient5663" gradientUnits="userSpaceOnUse" x1="127.746694" x2="170.496694" y1="100.031998" y2="215.249998">
    <stop offset="0" stop-color="#5884f4"/>
    <stop offset="1" stop-color="#80a3fa"/>
  </linearGradient>
  <filter id="filter5669" color-interpolation-filters="sRGB" height="1.095" width="1.097" x="-.05" y="-.05">
    <feGaussianBlur stdDeviation="2.265"/>
  </filter>
  <linearGradient id="linearGradient4226" gradientTransform="matrix(0 -.453125 -.45311204 0 253.29054 239.17476)" gradientUnits="userSpaceOnUse" x1="494.345" x2="4.414" y1="386.295" y2="169.657">
    <stop offset="0" stop-color="#e8e8e8"/>
    <stop offset="1" stop-color="#f5f5f5"/>
  </linearGradient>
  <linearGradient id="linearGradient4358" gradientUnits="userSpaceOnUse" x1="88" x2="488" y1="88" y2="488">
    <stop offset="0" stop-opacity=".588235"/>
    <stop offset=".88" stop-opacity="0"/>
    <stop offset="1"/>
  </linearGradient>
  <filter id="filter4380" color-interpolation-filters="sRGB" height="1.088" width="1.106" x="-.05" y="-.04">
    <feGaussianBlur stdDeviation="8.48"/>
  </filter>
  <filter id="filter4346" color-interpolation-filters="sRGB" height="1.022" width="1.026" x="-.01" y="-.01">
    <feGaussianBlur stdDeviation="2.12"/>
  </filter>
  <path d="m189.84323 74c-70.59344 0-78.18921 7.250835-77.84323 77.98706v146.01294 146.01294c-.34598 70.73623 7.24979 77.98706 77.84323 77.98706h196.31354c70.59344 0 76.00668-7.27384 77.84323-77.98706v-146.01294-146.01294c0-70.737067-7.24979-77.98706-77.84323-77.98706z" filter="url(#filter4346)" opacity=".1" transform="matrix(.5 0 0 .5 -16.666462 -20.825235)"/>
  <path d="m189.84323 74c-70.59344 0-78.18921 7.250835-77.84323 77.98706v146.01294 146.01294c-.34598 70.73623 7.24979 77.98706 77.84323 77.98706h196.31354c70.59344 0 77.84323-7.24999 77.84323-77.98706v-146.01294-146.01294c0-70.737067-7.24979-77.98706-77.84323-77.98706z" fill="url(#linearGradient4358)" filter="url(#filter4380)" opacity=".3" transform="matrix(.5 0 0 .5 -16.666462 -20.825235)"/>
  <path d="m77.145136 13.174765c-36.098809 0-39.983001 3.690158-39.806079 39.689842v74.310163 74.31015c-.176922 35.99969 3.70727 39.68984 39.806079 39.68984h100.387324c36.09881 0 39.80608-3.68973 39.80608-39.68984v-74.31015-74.310163c0-36.000113-3.70727-39.689842-39.80608-39.689842z" opacity=".1"/>
  <path d="m176.40652 15.174765c35.29673 0 39.09461 3.625418 38.92162 38.99353v73.006475 73.00646c.17299 35.36812-3.62489 38.99353-38.92162 38.99353h-98.156764c-35.296714 0-38.921614-3.625-38.921614-38.99353v-73.00646-73.006475c0-35.368533 3.6249-38.99353 38.921614-38.99353z" fill="url(#linearGradient4226)"/>
  <path d="m215.32768 187.18062-51.99414 51.99414h13.07227c35.29673 0 39.09486-3.62602 38.92187-38.99414z" fill="#fff"/>
  <path d="m78.255416 15.174765c-35.296726 0-39.094868 3.626029-38.921878 38.994141v2c-.17299-35.368112 3.625152-38.994141 38.921878-38.994141h98.156244c35.29673 0 38.92188 3.625608 38.92188 38.994141v-2c0-35.368533-3.62515-38.994141-38.92188-38.994141z" fill="#fff" opacity=".3"/>
  <path d="m78.260816 239.17476c-35.296729 0-39.094873-3.62603-38.921883-38.99414v-2c-.17299 35.36811 3.625154 38.99414 38.921883 38.99414h98.156244c35.29673 0 38.92188-3.62561 38.92188-38.99414v2c0 35.36853-3.62515 38.99414-38.92188 38.99414z" opacity=".2"/>
  <path d="m127.33354 15.174765v223.999995h49.07227c35.29673 0 39.09486-3.62602 38.92187-38.99414v-73.00585-73.005864c.17299-35.368112-3.62514-38.994141-38.92187-38.994141z" fill="#fff" opacity=".2"/>
  <path d="m39.327679 127.17477v73.00585c0 35.36853 3.625159 38.99414 38.921877 38.99414h98.156254c35.29673 0 39.09486-3.62602 38.92187-38.99414v-73.00585z" fill="#fff" opacity=".2"/>
  <g enable-background="new" filter="url(#filter5669)" opacity=".1" transform="translate(-24.666462 -28.825235)">
    <path d="m155.9973 123.75v8.5h34v47h-10v-3h-20.5q21 17.5 48.5 24.5l-5 12q-23-6-47-28.5v33h-10v-31q-17.5 19-44.99999 28l-5.000004-10.5q29.999994-9.5 47.499994-27.5h-21.5v4.5h-9.99999v-48.5h33.99999v-8.5h-49.499994v-9.49999h49.499994v-11.5h9.5q4 .5.5 3v8.5h48.5v9.49999zm0 44.5h24v-10h-24zm0-18h24v-10h-24zm-34 18h24v-10h-24zm0-18h24v-10h-24z"/>
  </g>
  <path d="m39.327538 127.17477v73.00585c0 25.47626 1.88547 34.48036 16.12891 37.52539 9.64189 1.09415 21.155568 1.46875 34.908198 1.46875h73.937504c13.7812 0 25.31269-.37517 34.9668-1.47461 14.24957-3.05295 16.18309-12.06603 16.05859-37.51953v-73.00585z" fill="#fff" opacity=".2"/>
  <path d="m156.997 121.75v8.5h34v47h-10v-3h-20.5q21 17.5 48.49999 24.5l-5 12q-22.99999-6-46.99999-28.5v33h-10v-31q-17.5 19-45 28l-4.999999-10.5q29.999999-9.5 47.499999-27.5h-21.5v4.5h-10v-48.5h34v-8.5h-49.499999v-9.49999h49.499999v-11.5h9.5q4 .5.5 3v8.5h48.49999v9.49999zm0 44.5h24v-10h-24zm0-18h24v-10h-24zm-34 18h24v-10h-24zm0-18h24v-10h-24z" fill="url(#linearGradient5663)" transform="translate(-24.666462 -28.825235)"/>
  <path d="m122.33128 71.924765v1h9.5c.98305.12288 1.62027.3385 1.92383.64258.53251-.8607-.0889-1.41321-1.92383-1.64258zm-49.500004 11.5v1h49.500004v-1zm59.500004 0v1h48.5v-1zm-44.000004 18.000005v1h34.000004v-1zm44.000004 0v1h34v-1zm-34.000004 18v1h24.000004v-1zm34.000004 0v1h24v-1zm-34.000004 17.99999v1h24.000004v-1zm34.000004 0v1h24v-1zm-13.50977 9c-11.56601 11.50618-27.054384 20.34531-46.490234 26.5l.41211.86523c19.80339-6.32842 35.502344-15.44867 47.087894-27.36523zm17.00977 0c13.90377 11.58648 29.94725 19.71606 48.125 24.39844l.375-.89844c-17.79962-4.53081-33.55072-12.37082-47.26563-23.5z" fill="#fff" opacity=".3"/>
  <path d="m133.75346 72.567345c-.24136.39011-.69608.8376-1.42383 1.35742v1c1.47317-1.05226 1.94372-1.83664 1.42383-2.35742zm-60.923824 19.35742v1h49.499994v-1zm59.499994 0v1h48.5v-1zm-34.000004 16.500005v1h24.000004v-1zm34.000004 0v1h24v-1zm-34.000004 18v1h24.000004v-1zm34.000004 0v1h24v-1zm-34.000004 17.99999v1h20.490244c.33571-.33398.68068-.66151 1.00976-1zm37.500004 0c.40757.33964.82314.66629 1.23438 1h19.26562v-1zm20.5 3v1h10v-1zm-68.000004 1.5v1h10v-1zm44.000004 3.5v1c16 15 31.66667 24.5 47 28.5l5-12c-.126-.0321-.2492-.0692-.375-.10156l-4.625 11.10156c-15.33333-4-31-13.5-47-28.5zm-10 2c-11.66666 12.66667-26.666664 22-45.000004 28l-4.58788-9.63477c-.13867.0443-.27305.0907-.41211.13477l4.99999 10.5c18.33334-6 33.333344-15.33333 45.000004-28zm0 31v1h10v-1z" opacity=".2"/>
</svg>
