<?xml version="1.0" encoding="UTF-8" standalone="no"?>
<svg
   xmlns:osb="http://www.openswatchbook.org/uri/2009/osb"
   xmlns:dc="http://purl.org/dc/elements/1.1/"
   xmlns:cc="http://creativecommons.org/ns#"
   xmlns:rdf="http://www.w3.org/1999/02/22-rdf-syntax-ns#"
   xmlns:svg="http://www.w3.org/2000/svg"
   xmlns="http://www.w3.org/2000/svg"
   xmlns:xlink="http://www.w3.org/1999/xlink"
   xmlns:sodipodi="http://sodipodi.sourceforge.net/DTD/sodipodi-0.dtd"
   xmlns:inkscape="http://www.inkscape.org/namespaces/inkscape"
   height="256"
   id="svg7384"
   version="1.1"
   width="256"
   sodipodi:docname="maps-app.svg"
   inkscape:version="0.92.3 (2405546, 2018-03-11)">
  <sodipodi:namedview
     pagecolor="#ffffff"
     bordercolor="#666666"
     borderopacity="1"
     objecttolerance="10"
     gridtolerance="10"
     guidetolerance="10"
     inkscape:pageopacity="0"
     inkscape:pageshadow="2"
     inkscape:window-width="1920"
     inkscape:window-height="1009"
     id="namedview21"
     showgrid="false"
     inkscape:zoom="3.2617188"
     inkscape:cx="128"
     inkscape:cy="128"
     inkscape:window-x="0"
     inkscape:window-y="34"
     inkscape:window-maximized="1"
     inkscape:current-layer="svg7384" />
  <metadata
     id="metadata20854">
    <rdf:RDF>
      <cc:Work
         rdf:about="">
        <dc:title></dc:title>
        <dc:format>image/svg+xml</dc:format>
        <dc:type
           rdf:resource="http://purl.org/dc/dcmitype/StillImage" />
      </cc:Work>
    </rdf:RDF>
  </metadata>
  <defs
     id="defs7386">
    <linearGradient
       id="linearGradient5606"
       osb:paint="solid">
      <stop
         id="stop5608"
         offset="0"
         style="stop-color:#000000;stop-opacity:1;" />
    </linearGradient>
    <linearGradient
       id="linearGradient4526"
       osb:paint="solid">
      <stop
         id="stop4528"
         offset="0"
         style="stop-color:#ffffff;stop-opacity:1;" />
    </linearGradient>
    <linearGradient
       id="linearGradient3600-4"
       osb:paint="gradient">
      <stop
         id="stop3602-7"
         offset="0"
         style="stop-color:#f4f4f4;stop-opacity:1" />
      <stop
         id="stop3604-6"
         offset="1"
         style="stop-color:#dbdbdb;stop-opacity:1" />
    </linearGradient>
    <linearGradient
       gradientTransform="translate(-307.22615,125.39245)"
       inkscape:collect="always"
       xlink:href="#linearGradient4311"
       id="linearGradient4317"
       x1="667.97504"
       y1="-19.787647"
       x2="667.97504"
       y2="282.68454"
       gradientUnits="userSpaceOnUse" />
    <linearGradient
       inkscape:collect="always"
       id="linearGradient4311">
      <stop
         style="stop-color:#000000;stop-opacity:0"
         offset="0"
         id="stop4313" />
      <stop
         id="stop4319"
         offset="0.50383204"
         style="stop-color:#000000;stop-opacity:1" />
      <stop
         style="stop-color:#000000;stop-opacity:0;"
         offset="1"
         id="stop4315" />
    </linearGradient>
    <filter
       inkscape:collect="always"
       style="color-interpolation-filters:sRGB"
       id="filter4321"
       x="-0.1380356"
       width="1.2760712"
       y="-0.073589876"
       height="1.1471798">
      <feGaussianBlur
         inkscape:collect="always"
         stdDeviation="9.3237456"
         id="feGaussianBlur4323" />
    </filter>
    <filter
       inkscape:collect="always"
       style="color-interpolation-filters:sRGB"
       id="filter4398"
       x="-0.017254449"
       width="1.0345089"
       y="-0.0091987345"
       height="1.0183975">
      <feGaussianBlur
         inkscape:collect="always"
         stdDeviation="1.1654682"
         id="feGaussianBlur4400" />
    </filter>
    <linearGradient
       inkscape:collect="always"
       xlink:href="#linearGradient4360"
       id="linearGradient4358"
       x1="88"
       y1="88"
       x2="488"
       y2="488"
       gradientUnits="userSpaceOnUse"
       gradientTransform="rotate(-90,287.9946,298)" />
    <linearGradient
       id="linearGradient4360"
       inkscape:collect="always">
      <stop
         id="stop4362"
         offset="0"
         style="stop-color:#000000;stop-opacity:0.58823532" />
      <stop
         style="stop-color:#000000;stop-opacity:0"
         offset="0.88"
         id="stop4364" />
      <stop
         id="stop4366"
         offset="1"
         style="stop-color:#000000;stop-opacity:1" />
    </linearGradient>
    <filter
       inkscape:collect="always"
       style="color-interpolation-filters:sRGB"
       id="filter4380"
       x="-0.052999184"
       width="1.1059984"
       y="-0.043862626"
       height="1.0877253">
      <feGaussianBlur
         inkscape:collect="always"
         stdDeviation="8.4801079"
         id="feGaussianBlur4382" />
    </filter>
    <filter
       inkscape:collect="always"
       style="color-interpolation-filters:sRGB"
       id="filter4346"
       x="-0.013249796"
       width="1.0264996"
       y="-0.010965657"
       height="1.0219313">
      <feGaussianBlur
         inkscape:collect="always"
         stdDeviation="2.120027"
         id="feGaussianBlur4348" />
    </filter>
  </defs>
  <g
     id="layer9"
     label="status"
     style="display:inline"
     transform="translate(-833.00024,347.00001)" />
  <g
     id="layer2"
     style="display:inline"
     transform="translate(-592.00004,-19.99999)" />
  <g
     id="layer4"
     style="display:inline"
     transform="translate(-592.00004,-19.99999)" />
  <g
     id="g1812"
     style="display:inline"
     transform="translate(-592.00004,-19.99999)" />
  <g
     id="g6217"
     style="display:inline"
     transform="translate(-592.00004,-19.99999)" />
  <g
     id="layer3"
     style="display:inline"
     transform="translate(-592.00004,-19.99999)" />
  <g
     id="layer1"
     style="display:inline"
     transform="translate(-592.00004,-19.99999)" />
  <path
     style="color:#000000;display:inline;overflow:visible;visibility:visible;opacity:0.1;fill:#000000;fill-opacity:1;fill-rule:nonzero;stroke:none;stroke-width:2;marker:none;filter:url(#filter4346);enable-background:accumulate"
     d="M 189.84323,74 C 119.24979,74 111.65402,81.250835 112,151.98706 V 298 444.01294 C 111.65402,514.74917 119.24979,522 189.84323,522 H 386.15677 C 456.75021,522 462.16345,514.72616 464,444.01294 V 298 151.98706 C 464,81.249993 456.75021,74 386.15677,74 Z"
     id="rect4158-9"
     inkscape:connector-curvature="0"
     sodipodi:nodetypes="scccssscsss"
     transform="matrix(0,0.5,-0.5,0,276.82523,-15.328148)" />
  <path
     sodipodi:nodetypes="scccssscsss"
     inkscape:connector-curvature="0"
     id="path4350"
     d="M 189.84323,74 C 119.24979,74 111.65402,81.250835 112,151.98706 V 298 444.01294 C 111.65402,514.74917 119.24979,522 189.84323,522 H 386.15677 C 456.75021,522 464,514.75001 464,444.01294 V 298 151.98706 C 464,81.249993 456.75021,74 386.15677,74 Z"
     style="color:#000000;display:inline;overflow:visible;visibility:visible;opacity:0.3;fill:url(#linearGradient4358);fill-opacity:1;fill-rule:nonzero;stroke:none;stroke-width:2;marker:none;filter:url(#filter4380);enable-background:accumulate"
     transform="matrix(0,0.5,-0.5,0,276.82523,-15.328148)" />
  <path
     style="color:#000000;display:inline;overflow:visible;visibility:visible;opacity:0.1;fill:#000000;fill-opacity:1;fill-rule:nonzero;stroke:none;stroke-width:1.02028775;marker:none;enable-background:accumulate"
     d="m 241.83043,77.478254 c 0,-36.098811 -3.69016,-39.983003 -39.68984,-39.806081 H 127.83043 53.52028 C 17.52059,37.495251 13.83044,41.379443 13.83044,77.478254 V 177.86557 c 0,36.09881 3.68973,39.80608 39.68984,39.80608 h 74.31015 74.31016 c 36.00011,0 39.68984,-3.70727 39.68984,-39.80608 z"
     id="rect4158-7"
     inkscape:connector-curvature="0"
     sodipodi:nodetypes="scccssscsss" />
  <path
     inkscape:connector-curvature="0"
     style="display:inline;opacity:1;fill:#6dc7f1;fill-opacity:1;stroke:none;stroke-width:2;stroke-linecap:round;stroke-linejoin:round;stroke-miterlimit:4;stroke-dasharray:none;stroke-dashoffset:0;stroke-opacity:1;enable-background:new"
     d="m 54.818174,39.667201 c -35.36853,0 -38.992187,3.623202 -38.992187,38.919923 v 98.158196 c 0,35.29673 3.624067,39.09487 38.992187,38.92188 h 73.007806 73.00586 c 35.36811,0.17299 38.99414,-3.62515 38.99414,-38.92188 V 78.587124 c 0,-35.296721 -3.62561,-38.919923 -38.99414,-38.919923 h -73.00586 z"
     id="rect877" />
  <path
     inkscape:connector-curvature="0"
     style="color:#000000;display:inline;overflow:visible;visibility:visible;fill:#e3dfd5;fill-opacity:1;fill-rule:nonzero;stroke:none;stroke-width:2.00627851;marker:none;enable-background:accumulate"
     clip-path="none"
     d="M 134.5252,39.667201 97.6795,186.13399 125.73809,215.6672 h 2.08789 73.00586 c 35.36811,0.17299 38.99414,-3.62515 38.99414,-38.92188 V 78.587124 c 0,-35.296721 -3.62561,-38.919923 -38.99414,-38.919923 z"
     id="path4267" />
  <path
     inkscape:connector-curvature="0"
     style="color:#000000;display:inline;overflow:visible;visibility:visible;fill:#a6d74f;fill-opacity:1;fill-rule:nonzero;stroke:none;stroke-width:2.00627851;marker:none;enable-background:accumulate"
     d="m 54.818174,39.667201 c -35.36853,0 -38.992187,3.623202 -38.992187,38.919923 V 101.48751 L 100.40997,188.56563 233.91191,46.247279 c -5.25058,-5.623135 -15.0216,-6.580078 -33.08007,-6.580078 h -73.00586 z"
     id="path4208" />
  <path
     inkscape:connector-curvature="0"
     style="color:#000000;display:inline;overflow:visible;visibility:visible;fill:#f9f9f9;fill-opacity:0.99607843;fill-rule:nonzero;stroke:none;stroke-width:2.00627851;marker:none;enable-background:accumulate"
     d="m 15.825987,86.944544 v 29.033196 l 97.472643,99.68946 h 14.52735 13.85742 z"
     id="rect4236" />
  <path
     inkscape:connector-curvature="0"
     style="color:#000000;display:inline;overflow:visible;visibility:visible;opacity:0.15;fill:#ffffff;fill-opacity:1;fill-rule:nonzero;stroke:none;stroke-width:2;stroke-linecap:butt;stroke-linejoin:miter;stroke-miterlimit:4;stroke-dasharray:none;stroke-dashoffset:0;stroke-opacity:1;marker:none;enable-background:accumulate"
     d="M 87.82794,39.667201 V 215.6672 h 39.99804 40.00195 V 39.667201 h -40.00195 z"
     id="rect4277-3" />
  <path
     inkscape:connector-curvature="0"
     style="display:inline;opacity:0.15;fill:#ffffff;fill-opacity:1;stroke:none;stroke-width:2;stroke-linecap:round;stroke-linejoin:round;stroke-miterlimit:4;stroke-dasharray:none;stroke-dashoffset:0;stroke-opacity:1;enable-background:new"
     d="m 15.825987,127.66915 v 49.07617 c 0,35.29673 3.624067,39.09487 38.992187,38.92188 h 73.007806 73.00586 c 35.36811,0.17299 38.99414,-3.62515 38.99414,-38.92188 v -49.07617 z"
     id="path1026" />
  <path
     inkscape:connector-curvature="0"
     style="color:#000000;display:inline;overflow:visible;visibility:visible;fill:#fdc92b;fill-opacity:1;fill-rule:nonzero;stroke:none;stroke-width:4.01255703;marker:none;enable-background:accumulate"
     d="M 227.49199,42.20431 53.113096,215.66134 c 0.583324,-5.1e-4 1.103528,0.009 1.705078,0.006 H 81.81817 L 238.9627,59.354701 C 237.67138,49.744009 234.57152,44.750269 227.49199,42.20431 Z"
     id="path969" />
  <path
     inkscape:connector-curvature="0"
     style="color:#000000;display:inline;overflow:visible;visibility:visible;opacity:0.1;fill:#000000;fill-opacity:1;fill-rule:nonzero;stroke:none;stroke-width:6;marker:none;filter:url(#filter4398);enable-background:accumulate"
     d="m 344.62023,104 c -44.76554,0 -81.05518,36.28966 -81.05518,81.05519 0,8.88851 1.49956,17.4171 4.14327,25.41957 0.26885,0.81383 0.48141,1.64776 0.77513,2.44993 2.06461,6.83163 32.32582,106.11802 76.22181,195.15231 0.0123,0 0.0303,-0.007 0.0445,-0.0201 0.0175,-0.009 0.0336,-0.027 0.0496,-0.0448 0.0175,-0.0175 0.0338,-0.0345 0.0504,-0.0462 0.0175,-0.0123 0.0338,-0.0236 0.0473,-0.0236 46.90025,-97.24086 76.71206,-197.46607 76.71206,-197.46607 h -0.0236 c 2.64047,-7.99809 4.08981,-16.53778 4.08981,-25.42064 2.1e-4,-44.76582 -36.28945,-81.05548 -81.05497,-81.05548 z"
     id="path4394"
     inkscape:transform-center-x="0.2769014"
     inkscape:transform-center-y="-151.90341"
     transform="matrix(0.5,0,0,0.5,-0.17209011,-0.33082552)" />
  <path
     inkscape:connector-curvature="0"
     style="color:#000000;display:inline;overflow:visible;visibility:visible;opacity:0.4;fill:url(#linearGradient4317);fill-opacity:1;fill-rule:nonzero;stroke:none;stroke-width:6;marker:none;filter:url(#filter4321);enable-background:accumulate"
     d="m 344.62023,104 c -44.76554,0 -81.05518,36.28966 -81.05518,81.05519 0,8.88851 1.49956,17.4171 4.14327,25.41957 0.26885,0.81383 0.48141,1.64776 0.77513,2.44993 2.06461,6.83163 32.32582,106.11802 76.22181,195.15231 0.0123,0 0.0303,-0.007 0.0445,-0.0201 0.0175,-0.009 0.0336,-0.027 0.0496,-0.0448 0.0175,-0.0175 0.0338,-0.0345 0.0504,-0.0462 0.0175,-0.0123 0.0338,-0.0236 0.0473,-0.0236 46.90025,-97.24086 76.71206,-197.46607 76.71206,-197.46607 h -0.0236 c 2.64047,-7.99809 4.08981,-16.53778 4.08981,-25.42064 2.1e-4,-44.76582 -36.28945,-81.05548 -81.05497,-81.05548 z"
     id="path4307"
     inkscape:transform-center-x="0.2769014"
     inkscape:transform-center-y="-151.90341"
     transform="matrix(0.5,0,0,0.5,-0.17209011,-0.33082552)" />
  <path
     inkscape:transform-center-y="-151.90341"
     inkscape:transform-center-x="0.2769014"
     id="path4789"
     d="m 172.138,50.669174 c -22.3828,0 -40.5276,18.14483 -40.5276,40.52759 0,4.44426 0.7498,8.70855 2.0716,12.709786 0.1344,0.40691 0.2407,0.82388 0.3876,1.22496 1.0323,3.41582 16.1629,53.05901 38.1109,97.57616 0.01,0 0.015,-0.004 0.022,-0.0101 0.01,-0.004 0.017,-0.0135 0.025,-0.0224 0.01,-0.009 0.017,-0.0172 0.025,-0.0231 0.01,-0.006 0.017,-0.0118 0.024,-0.0118 23.4501,-48.62043 38.356,-98.73304 38.356,-98.73304 h -0.012 c 1.3203,-3.999036 2.0449,-8.268886 2.0449,-12.710316 1e-4,-22.382905 -18.1447,-40.527735 -40.5275,-40.527735 z"
     style="color:#000000;display:inline;overflow:visible;visibility:visible;fill:#f22c42;fill-opacity:1;fill-rule:nonzero;stroke:none;stroke-width:3;marker:none;enable-background:accumulate"
     inkscape:connector-curvature="0" />
  <circle
     inkscape:transform-center-y="-219.429"
     inkscape:transform-center-x="0.2725578"
     style="color:#000000;display:inline;overflow:visible;visibility:visible;opacity:1;fill:#bc1938;fill-opacity:1;fill-rule:nonzero;stroke:none;stroke-width:2;marker:none;enable-background:accumulate"
     id="path4793"
     cx="171.82793"
     cy="91.669182"
     r="20" />
  <path
     style="color:#000000;display:inline;overflow:visible;visibility:visible;opacity:0.4;fill:#ffffff;fill-opacity:1;fill-rule:nonzero;stroke:none;stroke-width:3;marker:none;enable-background:accumulate"
     d="m 172.1384,50.669174 c -22.3828,0 -40.5273,18.144584 -40.5273,40.52734 0,0.37362 0.011,0.74421 0.021,1.11524 0.4722,-21.972822 18.4197,-39.64258 40.5058,-39.64258 22.0861,0 40.0337,17.669619 40.5059,39.64258 0.01,-0.3709 0.022,-0.74185 0.022,-1.11524 1e-4,-22.382901 -18.1446,-40.52734 -40.5274,-40.52734 z"
     id="path994"
     inkscape:connector-curvature="0" />
  <path
     style="color:#000000;display:inline;overflow:visible;visibility:visible;opacity:0.3;fill:#ffffff;fill-opacity:1;fill-rule:nonzero;stroke:none;stroke-width:1;marker:none;enable-background:accumulate"
     d="m 54.818174,39.667201 c -35.36853,0 -38.992187,3.623202 -38.992187,38.919923 v 98.158196 c 0,0.0882 0.0019,0.16224 0.002,0.25 V 80.585174 c -4.7e-5,-35.29672 3.625564,-38.921879 38.994094,-38.921879 h 73.005849 73.00586 c 35.28016,0 38.97394,3.621035 38.99219,38.671879 v -1.74805 c 0,-35.296721 -3.62561,-38.919923 -38.99414,-38.919923 h -73.00586 z"
     id="rect4158-78"
     inkscape:connector-curvature="0" />
  <path
     style="color:#000000;display:inline;overflow:visible;visibility:visible;opacity:0.2;fill:#000000;fill-opacity:1;fill-rule:nonzero;stroke:none;stroke-width:1;marker:none;enable-background:accumulate"
     d="m 15.825987,174.74532 v 2 c 0,35.29673 3.624067,39.09487 38.992187,38.92188 h 73.007806 73.00586 c 35.36811,0.17299 38.99414,-3.62515 38.99414,-38.92188 v -2 c 0,35.29673 -3.62603,39.09487 -38.99414,38.92188 H 127.82598 54.818174 c -35.36812,0.17299 -38.992187,-3.62515 -38.992187,-38.92188 z"
     id="rect4158-6"
     inkscape:connector-curvature="0" />
</svg>
