<svg xmlns="http://www.w3.org/2000/svg" xmlns:xlink="http://www.w3.org/1999/xlink" width="256" height="256" version="1.1" viewBox="0 0 67.73 67.73">
 <defs>
  <linearGradient id="linearGradient1108" x1="296" x2="296" y1="-212" y2="236" gradientUnits="userSpaceOnUse">
   <stop style="stop-color:#ffffff" id="stop2" offset="0"/>
   <stop style="stop-color:#ffffff;stop-opacity:.09803922" id="stop4" offset=".125"/>
   <stop style="stop-color:#000000;stop-opacity:.09803922" id="stop6" offset=".925"/>
   <stop style="stop-color:#000000;stop-opacity:.49803922" id="stop8" offset="1"/>
  </linearGradient>
  <clipPath id="clipPath1082-3-361">
   <path style="fill:#8c59d9" d="M 361.9375,-212 C 507.2348,-212 528,-191.28677 528,-46.125 V 70.125 C 528,215.28618 507.2348,236 361.9375,236 H 214.0625 C 68.7652,236 48,215.28618 48,70.125 V -46.125 C 48,-191.28677 68.7652,-212 214.0625,-212 Z"/>
  </clipPath>
  <filter id="filter4569" width="1.023" height="1.025" x="-.01" y="-.01" style="color-interpolation-filters:sRGB">
   <feGaussianBlur id="feGaussianBlur14" stdDeviation="1.16"/>
  </filter>
  <filter id="filter939" width="1.046" height="1.05" x="-.02" y="-.03" style="color-interpolation-filters:sRGB">
   <feGaussianBlur id="feGaussianBlur17" stdDeviation="2.32"/>
  </filter>
  <filter style="color-interpolation-filters:sRGB" id="filter1661" width="1.022" height="1.026" x="-.01" y="-.01">
   <feGaussianBlur id="feGaussianBlur1663" stdDeviation="3.046"/>
  </filter>
  <filter style="color-interpolation-filters:sRGB" id="filter1679" width="1.089" height="1.105" x="-.04" y="-.05">
   <feGaussianBlur id="feGaussianBlur1681" stdDeviation="12.183"/>
  </filter>
 </defs>
 <g transform="translate(0,-229.26666)">
  <g transform="matrix(0.09147444,0,0,0.09147444,-123.21518,229.94352)">
   <g transform="translate(-48.350115,4.7973834)">
    <g transform="translate(948.13908,-286.13561)">
     <g transform="translate(199.22411,-50.977611)" style="opacity:0.1;filter:url(#filter1679)">
      <g transform="matrix(0.87499997,0,0,0.87499997,496.95096,15.174403)">
       <path style="fill-rule:evenodd" d="m 295.08841,445.4589 c -8.2193,-0.0242 -16.4521,0.2457 -24.6752,0.78854 -8.2232,0.54286 -16.4288,1.35327 -24.5964,2.42482 -8.1677,1.07155 -16.3004,2.40058 -24.3533,3.9625 -8.0528,1.56191 -16.0276,3.36138 -23.9064,5.37532 -3.9373,1.00645 -7.8602,2.06836 -11.7429,3.18051 -11.6528,3.33659 -23.0452,7.13837 -34.0722,11.34207 -0.044,0.0169 -0.081,0.0416 -0.1249,0.0591 -14.6591,5.59383 -28.6792,11.89058 -41.8197,18.74793 -12.920197,6.74224 -25.596097,14.11766 -38.008497,22.02701 -9.3092,5.93201 -18.4708,12.16321 -27.4746,18.64936 -12.0053,8.64569 -23.7289,17.74333 -35.1563996,27.18548 -2.857,2.36006 -5.6972,4.74096 -8.51640003,7.14301 -22.55380037,19.21634 -43.89030037,39.70726 -63.85340037,60.62684 -9.98156,10.45979 -19.62009,21.02693 -28.89402,31.59482 -9.273933,10.56791 -18.186013,21.13719 -26.712343,31.6014 -8.52637,10.46421 -16.67356,20.82186 -24.41239,30.97055 -3.56315,4.67269 -7.01497,9.28133 -10.36951,13.82604 -26.07457,35.17124 -47.00291,67.10433 -61.83598,91.07169 -16.75639,27.07503 -25.77267,44.00144 -25.77267,44.00144 4.77414,4.97034 9.53693,9.82806 14.27944,14.58173 4.74143,4.75244 9.46591,9.40428 14.17433,13.94431 14.12841,13.62323 28.10481,26.29628 41.91177,38.08726 h 0.006 c 4.60234,3.92985 9.18329,7.76421 13.74717,11.49979 18.25545,14.94228 36.19389,28.34473 53.77953,40.34781 8.793153,6.004 17.497363,11.65307 26.107803,16.97367 17.21804,10.6394 34.05687,19.9482 50.47417,28.0726 12.8486,6.3584 25.4284004,11.9685 37.739,16.9408 3.4189,1.384 6.8244,2.7349 10.1987,4.0151 h 0.01 c 3.8803,1.4722 7.7304,2.8816 11.5523,4.2254 h 0.01 c 11.4695,4.0324 22.6723,7.4986 33.5859,10.4548 7.277,1.9714 14.4256,3.7148 21.4422,5.2506 17.541997,3.8423 34.257097,6.3845 50.053597,7.8987 3.1593,0.3032 6.2787,0.5656 9.3641,0.7885 12.3415,0.8919 24.085,1.1622 35.1893,0.9528 11.1044,-0.2091 21.5719,-0.8975 31.3517,-1.9254 9.7799,-1.0277 18.87,-2.3924 27.2381,-3.9559 h 0.01 c 8.3655,-1.563 16.0074,-3.3229 22.8747,-5.1387 6.8667,-1.8157 12.9657,-3.693 18.2485,-5.4805 10.5655,-3.5727 17.8772,-6.7993 21.5736,-8.5558 1.8478,-0.8768 2.7928,-1.3866 2.7928,-1.3866 0.7417,-0.3463 1.447,-0.7305 2.1817,-1.0842 6.5265,-3.1191 12.872,-6.421 18.991,-9.9621 6.8083,-3.9399 13.3669,-8.1341 19.6877,-12.5577 h 0.01 c 6.3192,-4.4228 12.3986,-9.0789 18.2485,-13.9444 5.8512,-4.8666 11.4756,-9.9437 16.8751,-15.2126 5.3995,-5.26889 10.5755,-10.73201 15.5411,-16.36251 4.9656,-5.63048 9.7168,-11.42981 14.2663,-17.38111 9.0991,-11.90263 17.3895,-24.40968 24.9316,-37.35128 3.77,-6.46914 7.3559,-13.04695 10.7637,-19.7139 v -0.006 c 3.4087,-6.66875 6.6419,-13.42532 9.7059,-20.25275 4.5951,-10.23927 8.8141,-20.63449 12.6826,-31.11513 v -0.006 c 1.2897,-3.49417 2.538,-6.99693 3.7522,-10.50752 2.4283,-7.02116 4.71,-14.06977 6.8473,-21.12672 2.1386,-7.05658 4.1355,-14.12073 5.9996,-21.17275 3.6924,-13.96882 6.856,-27.885 9.581,-41.59634 0.028,-0.13253 0.066,-0.26883 0.092,-0.40084 0.097,-0.4885 0.1688,-0.95896 0.2628,-1.4457 16.1672,-82.45835 16.1823,-157.13075 15.16,-189.43096 v -0.006 c -0.1714,-5.41459 -0.3686,-9.63501 -0.5257,-12.50519 -0.1584,-2.87109 -0.276,-4.38963 -0.276,-4.38963 -6.106,-10.39005 -12.7415,-19.9654 -19.8453,-28.77573 -5.3279,-6.60775 -10.9164,-12.78513 -16.7437,-18.54423 -3.8849,-3.83948 -7.8792,-7.49243 -11.9664,-10.9675 -2.0433,-1.73777 -4.1124,-3.43097 -6.2033,-5.07961 -1.5862,-1.25034 -3.1975,-2.45399 -4.8102,-3.65365 -0.511,-0.38028 -1.0174,-0.7879 -1.5311,-1.16312 -2.1368,-1.56042 -4.2921,-3.07357 -6.4727,-4.54735 -6.5417,-4.42132 -13.2816,-8.46031 -20.1805,-12.12404 -2.2981,-1.22055 -4.6119,-2.39627 -6.9458,-3.53537 h -0.01 c -1.0917,-0.53275 -2.1997,-1.02912 -3.2988,-1.54426 -1.2507,-0.58596 -2.4986,-1.19778 -3.7588,-1.76111 -14.2176,-6.35761 -29.0289,-11.27628 -44.2183,-14.90371 -2.5314,-0.60503 -5.071,-1.17536 -7.6227,-1.70854 -10.2068,-2.13273 -20.5664,-3.69649 -31.0166,-4.73791 -10.4501,-1.04142 -20.9942,-1.55875 -31.562,-1.59025 z M -4.8915866,630.67764 c 80.0914996,0 259.2524966,0.19057 305.4209966,0.19057 5.6046,0 10.1277,0.1417 14.0429,0.44685 1.9575,0.15249 3.7623,0.34775 5.4739,0.58485 h 0.01 c 1.7117,0.23714 3.3253,0.52044 4.9088,0.8477 0.1223,0.0253 0.2854,0.0924 0.4074,0.11828 6.1918,1.31194 11.8799,3.29555 20.693,6.20988 3.9272,1.95851 7.5496,4.20882 10.8821,6.70273 1.6662,1.24696 3.2603,2.55262 4.7839,3.9165 2.2317,1.99841 4.2643,4.15749 6.2033,6.38073 2.0324,2.33117 3.9574,4.74024 5.6842,7.28101 1.1249,1.65512 2.1853,3.34827 3.1871,5.07961 v 0.006 c 1.0006,1.72974 1.9456,3.49604 2.8256,5.2899 2.6427,5.38675 4.7558,11.04227 6.4005,16.82253 0.5483,1.92669 1.0454,3.86633 1.4917,5.81561 1.7849,7.79709 2.7708,15.73292 3.1016,23.46612 0.3292,18.08133 0.1175,36.1776 0.1446,54.26583 0.049,33.09242 0.117,66.17858 0.276,99.26608 h -65.6735 -23.6895 v -99.26608 -37.97557 c 0,-28.82764 -13.4368,-41.58978 -31.9366,-41.58978 -1.1562,0 -2.2893,0.0506 -3.4039,0.15114 -1.1146,0.10077 -2.2103,0.25065 -3.2791,0.45343 -1.0668,0.20214 -2.1173,0.45713 -3.1345,0.76226 -1.0172,0.30535 -2.0133,0.66796 -2.9768,1.0777 -0.3187,0.13563 -0.614,0.31283 -0.9266,0.45998 -1.2068,0.56778 -2.3667,1.22339 -3.4762,1.96483 -0.3419,0.22864 -0.7061,0.43151 -1.0382,0.67685 -0.8453,0.62459 -1.6523,1.30344 -2.4314,2.0371 -0.7802,0.73394 -1.532,1.52157 -2.2409,2.36566 -0.7088,0.84412 -1.3768,1.74456 -2.0108,2.70082 -1.9037,2.8679 -3.4648,6.23931 -4.6262,10.13952 v 0.006 c -1.5474,5.199 -2.3854,11.33381 -2.3854,18.44564 -0.5062,22.92418 -0.4464,45.86378 -0.2891,68.79499 0.079,11.46449 0.1818,22.92925 0.2497,34.39422 0.068,11.46916 0.101,22.93231 0.039,34.40073 h -89.4157 v -99.26608 -38.92183 c 0,-3.48284 -0.205,-6.73033 -0.5914,-9.74523 -0.3865,-3.01493 -0.9601,-5.80061 -1.7085,-8.35871 -0.7479,-2.55602 -1.6759,-4.89055 -2.76,-6.99845 -9e-4,-0.002 9e-4,-0.005 0,-0.006 -0.9233,-1.79443 -1.985,-3.38762 -3.1345,-4.86276 -0.2017,-0.2588 -0.3829,-0.546 -0.5914,-0.79514 0,-0.001 0.001,-0.005 0,-0.006 -0.3381,-0.40412 -0.7157,-0.75163 -1.0712,-1.13028 -0.3791,-0.40347 -0.7383,-0.83446 -1.1368,-1.20913 -0.7717,-0.72647 -1.5763,-1.39806 -2.4182,-2.01739 -1.4061,-1.03433 -2.9309,-1.88888 -4.5211,-2.62851 -0.3123,-0.14528 -0.6074,-0.3194 -0.9265,-0.45343 0,-8e-4 0,7.9e-4 -0.01,0 -0.2533,-0.1063 -0.5246,-0.18333 -0.782,-0.28257 -1.7207,-0.66331 -3.516,-1.19291 -5.4148,-1.54425 -2.1829,-0.4039 -4.4785,-0.60456 -6.8736,-0.60456 -2.395,0 -4.6905,0.21841 -6.8735,0.65056 -2.1836,0.43246 -4.2573,1.08012 -6.2033,1.93196 -1.6153,0.70708 -3.1242,1.59376 -4.560497,2.58253 -0.2919,0.20095 -0.603,0.37245 -0.8872,0.58486 0,0.002 0,0.005 -0.01,0.006 -0.8406,0.62892 -1.6475,1.30899 -2.4182,2.0371 -0.7707,0.72809 -1.5038,1.50054 -2.2014,2.32623 0,0.002 0,0.004 -0.01,0.006 -0.1714,0.20283 -0.3194,0.43529 -0.4863,0.64396 -0.5115,0.6401 -1.0236,1.28349 -1.4917,1.97796 -0.001,10e-4 0.001,0.005 0,0.006 -0.621,0.92191 -1.2061,1.88809 -1.7479,2.9045 -0.001,0.002 9e-4,0.005 0,0.006 -0.5417,1.01655 -1.0456,2.07762 -1.5049,3.1871 -8e-4,0.002 8e-4,0.005 0,0.006 -2.2987,5.55561 -3.5485,12.2674 -3.5485,20.03591 0,0.002 0,0.004 0,0.006 -0.7184,23.30708 -0.6299,46.63335 -0.4074,69.9581 0.1113,11.66347 0.2528,23.32374 0.3483,34.98563 0.096,11.66334 0.1448,23.32545 0.059,34.98559 H -4.8992866 v -99.26542 z"/>
      </g>
     </g>
     <g style="opacity:0.1;filter:url(#filter1661)" transform="translate(199.22411,-50.977611)">
      <g transform="matrix(0.87499997,0,0,0.87499997,496.95096,15.174403)">
       <path d="m 295.08841,445.4589 c -8.2193,-0.0242 -16.4521,0.2457 -24.6752,0.78854 -8.2232,0.54286 -16.4288,1.35327 -24.5964,2.42482 -8.1677,1.07155 -16.3004,2.40058 -24.3533,3.9625 -8.0528,1.56191 -16.0276,3.36138 -23.9064,5.37532 -3.9373,1.00645 -7.8602,2.06836 -11.7429,3.18051 -11.6528,3.33659 -23.0452,7.13837 -34.0722,11.34207 -0.044,0.0169 -0.081,0.0416 -0.1249,0.0591 -14.6591,5.59383 -28.6792,11.89058 -41.8197,18.74793 -12.920197,6.74224 -25.596097,14.11766 -38.008497,22.02701 -9.3092,5.93201 -18.4708,12.16321 -27.4746,18.64936 -12.0053,8.64569 -23.7289,17.74333 -35.1563996,27.18548 -2.857,2.36006 -5.6972,4.74096 -8.51640003,7.14301 -22.55380037,19.21634 -43.89030037,39.70726 -63.85340037,60.62684 -9.98156,10.45979 -19.62009,21.02693 -28.89402,31.59482 -9.273933,10.56791 -18.186013,21.13719 -26.712343,31.6014 -8.52637,10.46421 -16.67356,20.82186 -24.41239,30.97055 -3.56315,4.67269 -7.01497,9.28133 -10.36951,13.82604 -26.07457,35.17124 -47.00291,67.10433 -61.83598,91.07169 -16.75639,27.07503 -25.77267,44.00144 -25.77267,44.00144 4.77414,4.97034 9.53693,9.82806 14.27944,14.58173 4.74143,4.75244 9.46591,9.40428 14.17433,13.94431 14.12841,13.62323 28.10481,26.29628 41.91177,38.08726 h 0.006 c 4.60234,3.92985 9.18329,7.76421 13.74717,11.49979 18.25545,14.94228 36.19389,28.34473 53.77953,40.34781 8.793153,6.004 17.497363,11.65307 26.107803,16.97367 17.21804,10.6394 34.05687,19.9482 50.47417,28.0726 12.8486,6.3584 25.4284004,11.9685 37.739,16.9408 3.4189,1.384 6.8244,2.7349 10.1987,4.0151 h 0.01 c 3.8803,1.4722 7.7304,2.8816 11.5523,4.2254 h 0.01 c 11.4695,4.0324 22.6723,7.4986 33.5859,10.4548 7.277,1.9714 14.4256,3.7148 21.4422,5.2506 17.541997,3.8423 34.257097,6.3845 50.053597,7.8987 3.1593,0.3032 6.2787,0.5656 9.3641,0.7885 12.3415,0.8919 24.085,1.1622 35.1893,0.9528 11.1044,-0.2091 21.5719,-0.8975 31.3517,-1.9254 9.7799,-1.0277 18.87,-2.3924 27.2381,-3.9559 h 0.01 c 8.3655,-1.563 16.0074,-3.3229 22.8747,-5.1387 6.8667,-1.8157 12.9657,-3.693 18.2485,-5.4805 10.5655,-3.5727 17.8772,-6.7993 21.5736,-8.5558 1.8478,-0.8768 2.7928,-1.3866 2.7928,-1.3866 0.7417,-0.3463 1.447,-0.7305 2.1817,-1.0842 6.5265,-3.1191 12.872,-6.421 18.991,-9.9621 6.8083,-3.9399 13.3669,-8.1341 19.6877,-12.5577 h 0.01 c 6.3192,-4.4228 12.3986,-9.0789 18.2485,-13.9444 5.8512,-4.8666 11.4756,-9.9437 16.8751,-15.2126 5.3995,-5.26889 10.5755,-10.73201 15.5411,-16.36251 4.9656,-5.63048 9.7168,-11.42981 14.2663,-17.38111 9.0991,-11.90263 17.3895,-24.40968 24.9316,-37.35128 3.77,-6.46914 7.3559,-13.04695 10.7637,-19.7139 v -0.006 c 3.4087,-6.66875 6.6419,-13.42532 9.7059,-20.25275 4.5951,-10.23927 8.8141,-20.63449 12.6826,-31.11513 v -0.006 c 1.2897,-3.49417 2.538,-6.99693 3.7522,-10.50752 2.4283,-7.02116 4.71,-14.06977 6.8473,-21.12672 2.1386,-7.05658 4.1355,-14.12073 5.9996,-21.17275 3.6924,-13.96882 6.856,-27.885 9.581,-41.59634 0.028,-0.13253 0.066,-0.26883 0.092,-0.40084 0.097,-0.4885 0.1688,-0.95896 0.2628,-1.4457 16.1672,-82.45835 16.1823,-157.13075 15.16,-189.43096 v -0.006 c -0.1714,-5.41459 -0.3686,-9.63501 -0.5257,-12.50519 -0.1584,-2.87109 -0.276,-4.38963 -0.276,-4.38963 -6.106,-10.39005 -12.7415,-19.9654 -19.8453,-28.77573 -5.3279,-6.60775 -10.9164,-12.78513 -16.7437,-18.54423 -3.8849,-3.83948 -7.8792,-7.49243 -11.9664,-10.9675 -2.0433,-1.73777 -4.1124,-3.43097 -6.2033,-5.07961 -1.5862,-1.25034 -3.1975,-2.45399 -4.8102,-3.65365 -0.511,-0.38028 -1.0174,-0.7879 -1.5311,-1.16312 -2.1368,-1.56042 -4.2921,-3.07357 -6.4727,-4.54735 -6.5417,-4.42132 -13.2816,-8.46031 -20.1805,-12.12404 -2.2981,-1.22055 -4.6119,-2.39627 -6.9458,-3.53537 h -0.01 c -1.0917,-0.53275 -2.1997,-1.02912 -3.2988,-1.54426 -1.2507,-0.58596 -2.4986,-1.19778 -3.7588,-1.76111 -14.2176,-6.35761 -29.0289,-11.27628 -44.2183,-14.90371 -2.5314,-0.60503 -5.071,-1.17536 -7.6227,-1.70854 -10.2068,-2.13273 -20.5664,-3.69649 -31.0166,-4.73791 -10.4501,-1.04142 -20.9942,-1.55875 -31.562,-1.59025 z M -4.8915866,630.67764 c 80.0914996,0 259.2524966,0.19057 305.4209966,0.19057 5.6046,0 10.1277,0.1417 14.0429,0.44685 1.9575,0.15249 3.7623,0.34775 5.4739,0.58485 h 0.01 c 1.7117,0.23714 3.3253,0.52044 4.9088,0.8477 0.1223,0.0253 0.2854,0.0924 0.4074,0.11828 6.1918,1.31194 11.8799,3.29555 20.693,6.20988 3.9272,1.95851 7.5496,4.20882 10.8821,6.70273 1.6662,1.24696 3.2603,2.55262 4.7839,3.9165 2.2317,1.99841 4.2643,4.15749 6.2033,6.38073 2.0324,2.33117 3.9574,4.74024 5.6842,7.28101 1.1249,1.65512 2.1853,3.34827 3.1871,5.07961 v 0.006 c 1.0006,1.72974 1.9456,3.49604 2.8256,5.2899 2.6427,5.38675 4.7558,11.04227 6.4005,16.82253 0.5483,1.92669 1.0454,3.86633 1.4917,5.81561 1.7849,7.79709 2.7708,15.73292 3.1016,23.46612 0.3292,18.08133 0.1175,36.1776 0.1446,54.26583 0.049,33.09242 0.117,66.17858 0.276,99.26608 h -65.6735 -23.6895 v -99.26608 -37.97557 c 0,-28.82764 -13.4368,-41.58978 -31.9366,-41.58978 -1.1562,0 -2.2893,0.0506 -3.4039,0.15114 -1.1146,0.10077 -2.2103,0.25065 -3.2791,0.45343 -1.0668,0.20214 -2.1173,0.45713 -3.1345,0.76226 -1.0172,0.30535 -2.0133,0.66796 -2.9768,1.0777 -0.3187,0.13563 -0.614,0.31283 -0.9266,0.45998 -1.2068,0.56778 -2.3667,1.22339 -3.4762,1.96483 -0.3419,0.22864 -0.7061,0.43151 -1.0382,0.67685 -0.8453,0.62459 -1.6523,1.30344 -2.4314,2.0371 -0.7802,0.73394 -1.532,1.52157 -2.2409,2.36566 -0.7088,0.84412 -1.3768,1.74456 -2.0108,2.70082 -1.9037,2.8679 -3.4648,6.23931 -4.6262,10.13952 v 0.006 c -1.5474,5.199 -2.3854,11.33381 -2.3854,18.44564 -0.5062,22.92418 -0.4464,45.86378 -0.2891,68.79499 0.079,11.46449 0.1818,22.92925 0.2497,34.39422 0.068,11.46916 0.101,22.93231 0.039,34.40073 h -89.4157 v -99.26608 -38.92183 c 0,-3.48284 -0.205,-6.73033 -0.5914,-9.74523 -0.3865,-3.01493 -0.9601,-5.80061 -1.7085,-8.35871 -0.7479,-2.55602 -1.6759,-4.89055 -2.76,-6.99845 -9e-4,-0.002 9e-4,-0.005 0,-0.006 -0.9233,-1.79443 -1.985,-3.38762 -3.1345,-4.86276 -0.2017,-0.2588 -0.3829,-0.546 -0.5914,-0.79514 0,-0.001 0.001,-0.005 0,-0.006 -0.3381,-0.40412 -0.7157,-0.75163 -1.0712,-1.13028 -0.3791,-0.40347 -0.7383,-0.83446 -1.1368,-1.20913 -0.7717,-0.72647 -1.5763,-1.39806 -2.4182,-2.01739 -1.4061,-1.03433 -2.9309,-1.88888 -4.5211,-2.62851 -0.3123,-0.14528 -0.6074,-0.3194 -0.9265,-0.45343 0,-8e-4 0,7.9e-4 -0.01,0 -0.2533,-0.1063 -0.5246,-0.18333 -0.782,-0.28257 -1.7207,-0.66331 -3.516,-1.19291 -5.4148,-1.54425 -2.1829,-0.4039 -4.4785,-0.60456 -6.8736,-0.60456 -2.395,0 -4.6905,0.21841 -6.8735,0.65056 -2.1836,0.43246 -4.2573,1.08012 -6.2033,1.93196 -1.6153,0.70708 -3.1242,1.59376 -4.560497,2.58253 -0.2919,0.20095 -0.603,0.37245 -0.8872,0.58486 0,0.002 0,0.005 -0.01,0.006 -0.8406,0.62892 -1.6475,1.30899 -2.4182,2.0371 -0.7707,0.72809 -1.5038,1.50054 -2.2014,2.32623 0,0.002 0,0.004 -0.01,0.006 -0.1714,0.20283 -0.3194,0.43529 -0.4863,0.64396 -0.5115,0.6401 -1.0236,1.28349 -1.4917,1.97796 -0.001,10e-4 0.001,0.005 0,0.006 -0.621,0.92191 -1.2061,1.88809 -1.7479,2.9045 -0.001,0.002 9e-4,0.005 0,0.006 -0.5417,1.01655 -1.0456,2.07762 -1.5049,3.1871 -8e-4,0.002 8e-4,0.005 0,0.006 -2.2987,5.55561 -3.5485,12.2674 -3.5485,20.03591 0,0.002 0,0.004 0,0.006 -0.7184,23.30708 -0.6299,46.63335 -0.4074,69.9581 0.1113,11.66347 0.2528,23.32374 0.3483,34.98563 0.096,11.66334 0.1448,23.32545 0.059,34.98559 H -4.8992866 v -99.26542 z" style="fill-rule:evenodd"/>
      </g>
     </g>
     <g transform="translate(199.22411,-50.977611)" style="opacity:0.1">
      <g transform="matrix(0.87499997,0,0,0.87499997,496.95096,15.174403)">
       <path style="fill-rule:evenodd" d="m 295.08841,445.4589 c -8.2193,-0.0242 -16.4521,0.2457 -24.6752,0.78854 -8.2232,0.54286 -16.4288,1.35327 -24.5964,2.42482 -8.1677,1.07155 -16.3004,2.40058 -24.3533,3.9625 -8.0528,1.56191 -16.0276,3.36138 -23.9064,5.37532 -3.9373,1.00645 -7.8602,2.06836 -11.7429,3.18051 -11.6528,3.33659 -23.0452,7.13837 -34.0722,11.34207 -0.044,0.0169 -0.081,0.0416 -0.1249,0.0591 -14.6591,5.59383 -28.6792,11.89058 -41.8197,18.74793 -12.920197,6.74224 -25.596097,14.11766 -38.008497,22.02701 -9.3092,5.93201 -18.4708,12.16321 -27.4746,18.64936 -12.0053,8.64569 -23.7289,17.74333 -35.1563996,27.18548 -2.857,2.36006 -5.6972,4.74096 -8.51640003,7.14301 -22.55380037,19.21634 -43.89030037,39.70726 -63.85340037,60.62684 -9.98156,10.45979 -19.62009,21.02693 -28.89402,31.59482 -9.273933,10.56791 -18.186013,21.13719 -26.712343,31.6014 -8.52637,10.46421 -16.67356,20.82186 -24.41239,30.97055 -3.56315,4.67269 -7.01497,9.28133 -10.36951,13.82604 -26.07457,35.17124 -47.00291,67.10433 -61.83598,91.07169 -16.75639,27.07503 -25.77267,44.00144 -25.77267,44.00144 4.77414,4.97034 9.53693,9.82806 14.27944,14.58173 4.74143,4.75244 9.46591,9.40428 14.17433,13.94431 14.12841,13.62323 28.10481,26.29628 41.91177,38.08726 h 0.006 c 4.60234,3.92985 9.18329,7.76421 13.74717,11.49979 18.25545,14.94228 36.19389,28.34473 53.77953,40.34781 8.793153,6.004 17.497363,11.65307 26.107803,16.97367 17.21804,10.6394 34.05687,19.9482 50.47417,28.0726 12.8486,6.3584 25.4284004,11.9685 37.739,16.9408 3.4189,1.384 6.8244,2.7349 10.1987,4.0151 h 0.01 c 3.8803,1.4722 7.7304,2.8816 11.5523,4.2254 h 0.01 c 11.4695,4.0324 22.6723,7.4986 33.5859,10.4548 7.277,1.9714 14.4256,3.7148 21.4422,5.2506 17.541997,3.8423 34.257097,6.3845 50.053597,7.8987 3.1593,0.3032 6.2787,0.5656 9.3641,0.7885 12.3415,0.8919 24.085,1.1622 35.1893,0.9528 11.1044,-0.2091 21.5719,-0.8975 31.3517,-1.9254 9.7799,-1.0277 18.87,-2.3924 27.2381,-3.9559 h 0.01 c 8.3655,-1.563 16.0074,-3.3229 22.8747,-5.1387 6.8667,-1.8157 12.9657,-3.693 18.2485,-5.4805 10.5655,-3.5727 17.8772,-6.7993 21.5736,-8.5558 1.8478,-0.8768 2.7928,-1.3866 2.7928,-1.3866 0.7417,-0.3463 1.447,-0.7305 2.1817,-1.0842 6.5265,-3.1191 12.872,-6.421 18.991,-9.9621 6.8083,-3.9399 13.3669,-8.1341 19.6877,-12.5577 h 0.01 c 6.3192,-4.4228 12.3986,-9.0789 18.2485,-13.9444 5.8512,-4.8666 11.4756,-9.9437 16.8751,-15.2126 5.3995,-5.26889 10.5755,-10.73201 15.5411,-16.36251 4.9656,-5.63048 9.7168,-11.42981 14.2663,-17.38111 9.0991,-11.90263 17.3895,-24.40968 24.9316,-37.35128 3.77,-6.46914 7.3559,-13.04695 10.7637,-19.7139 v -0.006 c 3.4087,-6.66875 6.6419,-13.42532 9.7059,-20.25275 4.5951,-10.23927 8.8141,-20.63449 12.6826,-31.11513 v -0.006 c 1.2897,-3.49417 2.538,-6.99693 3.7522,-10.50752 2.4283,-7.02116 4.71,-14.06977 6.8473,-21.12672 2.1386,-7.05658 4.1355,-14.12073 5.9996,-21.17275 3.6924,-13.96882 6.856,-27.885 9.581,-41.59634 0.028,-0.13253 0.066,-0.26883 0.092,-0.40084 0.097,-0.4885 0.1688,-0.95896 0.2628,-1.4457 16.1672,-82.45835 16.1823,-157.13075 15.16,-189.43096 v -0.006 c -0.1714,-5.41459 -0.3686,-9.63501 -0.5257,-12.50519 -0.1584,-2.87109 -0.276,-4.38963 -0.276,-4.38963 -6.106,-10.39005 -12.7415,-19.9654 -19.8453,-28.77573 -5.3279,-6.60775 -10.9164,-12.78513 -16.7437,-18.54423 -3.8849,-3.83948 -7.8792,-7.49243 -11.9664,-10.9675 -2.0433,-1.73777 -4.1124,-3.43097 -6.2033,-5.07961 -1.5862,-1.25034 -3.1975,-2.45399 -4.8102,-3.65365 -0.511,-0.38028 -1.0174,-0.7879 -1.5311,-1.16312 -2.1368,-1.56042 -4.2921,-3.07357 -6.4727,-4.54735 -6.5417,-4.42132 -13.2816,-8.46031 -20.1805,-12.12404 -2.2981,-1.22055 -4.6119,-2.39627 -6.9458,-3.53537 h -0.01 c -1.0917,-0.53275 -2.1997,-1.02912 -3.2988,-1.54426 -1.2507,-0.58596 -2.4986,-1.19778 -3.7588,-1.76111 -14.2176,-6.35761 -29.0289,-11.27628 -44.2183,-14.90371 -2.5314,-0.60503 -5.071,-1.17536 -7.6227,-1.70854 -10.2068,-2.13273 -20.5664,-3.69649 -31.0166,-4.73791 -10.4501,-1.04142 -20.9942,-1.55875 -31.562,-1.59025 z M -4.8915866,630.67764 c 80.0914996,0 259.2524966,0.19057 305.4209966,0.19057 5.6046,0 10.1277,0.1417 14.0429,0.44685 1.9575,0.15249 3.7623,0.34775 5.4739,0.58485 h 0.01 c 1.7117,0.23714 3.3253,0.52044 4.9088,0.8477 0.1223,0.0253 0.2854,0.0924 0.4074,0.11828 6.1918,1.31194 11.8799,3.29555 20.693,6.20988 3.9272,1.95851 7.5496,4.20882 10.8821,6.70273 1.6662,1.24696 3.2603,2.55262 4.7839,3.9165 2.2317,1.99841 4.2643,4.15749 6.2033,6.38073 2.0324,2.33117 3.9574,4.74024 5.6842,7.28101 1.1249,1.65512 2.1853,3.34827 3.1871,5.07961 v 0.006 c 1.0006,1.72974 1.9456,3.49604 2.8256,5.2899 2.6427,5.38675 4.7558,11.04227 6.4005,16.82253 0.5483,1.92669 1.0454,3.86633 1.4917,5.81561 1.7849,7.79709 2.7708,15.73292 3.1016,23.46612 0.3292,18.08133 0.1175,36.1776 0.1446,54.26583 0.049,33.09242 0.117,66.17858 0.276,99.26608 h -65.6735 -23.6895 v -99.26608 -37.97557 c 0,-28.82764 -13.4368,-41.58978 -31.9366,-41.58978 -1.1562,0 -2.2893,0.0506 -3.4039,0.15114 -1.1146,0.10077 -2.2103,0.25065 -3.2791,0.45343 -1.0668,0.20214 -2.1173,0.45713 -3.1345,0.76226 -1.0172,0.30535 -2.0133,0.66796 -2.9768,1.0777 -0.3187,0.13563 -0.614,0.31283 -0.9266,0.45998 -1.2068,0.56778 -2.3667,1.22339 -3.4762,1.96483 -0.3419,0.22864 -0.7061,0.43151 -1.0382,0.67685 -0.8453,0.62459 -1.6523,1.30344 -2.4314,2.0371 -0.7802,0.73394 -1.532,1.52157 -2.2409,2.36566 -0.7088,0.84412 -1.3768,1.74456 -2.0108,2.70082 -1.9037,2.8679 -3.4648,6.23931 -4.6262,10.13952 v 0.006 c -1.5474,5.199 -2.3854,11.33381 -2.3854,18.44564 -0.5062,22.92418 -0.4464,45.86378 -0.2891,68.79499 0.079,11.46449 0.1818,22.92925 0.2497,34.39422 0.068,11.46916 0.101,22.93231 0.039,34.40073 h -89.4157 v -99.26608 -38.92183 c 0,-3.48284 -0.205,-6.73033 -0.5914,-9.74523 -0.3865,-3.01493 -0.9601,-5.80061 -1.7085,-8.35871 -0.7479,-2.55602 -1.6759,-4.89055 -2.76,-6.99845 -9e-4,-0.002 9e-4,-0.005 0,-0.006 -0.9233,-1.79443 -1.985,-3.38762 -3.1345,-4.86276 -0.2017,-0.2588 -0.3829,-0.546 -0.5914,-0.79514 0,-0.001 0.001,-0.005 0,-0.006 -0.3381,-0.40412 -0.7157,-0.75163 -1.0712,-1.13028 -0.3791,-0.40347 -0.7383,-0.83446 -1.1368,-1.20913 -0.7717,-0.72647 -1.5763,-1.39806 -2.4182,-2.01739 -1.4061,-1.03433 -2.9309,-1.88888 -4.5211,-2.62851 -0.3123,-0.14528 -0.6074,-0.3194 -0.9265,-0.45343 0,-8e-4 0,7.9e-4 -0.01,0 -0.2533,-0.1063 -0.5246,-0.18333 -0.782,-0.28257 -1.7207,-0.66331 -3.516,-1.19291 -5.4148,-1.54425 -2.1829,-0.4039 -4.4785,-0.60456 -6.8736,-0.60456 -2.395,0 -4.6905,0.21841 -6.8735,0.65056 -2.1836,0.43246 -4.2573,1.08012 -6.2033,1.93196 -1.6153,0.70708 -3.1242,1.59376 -4.560497,2.58253 -0.2919,0.20095 -0.603,0.37245 -0.8872,0.58486 0,0.002 0,0.005 -0.01,0.006 -0.8406,0.62892 -1.6475,1.30899 -2.4182,2.0371 -0.7707,0.72809 -1.5038,1.50054 -2.2014,2.32623 0,0.002 0,0.004 -0.01,0.006 -0.1714,0.20283 -0.3194,0.43529 -0.4863,0.64396 -0.5115,0.6401 -1.0236,1.28349 -1.4917,1.97796 -0.001,10e-4 0.001,0.005 0,0.006 -0.621,0.92191 -1.2061,1.88809 -1.7479,2.9045 -0.001,0.002 9e-4,0.005 0,0.006 -0.5417,1.01655 -1.0456,2.07762 -1.5049,3.1871 -8e-4,0.002 8e-4,0.005 0,0.006 -2.2987,5.55561 -3.5485,12.2674 -3.5485,20.03591 0,0.002 0,0.004 0,0.006 -0.7184,23.30708 -0.6299,46.63335 -0.4074,69.9581 0.1113,11.66347 0.2528,23.32374 0.3483,34.98563 0.096,11.66334 0.1448,23.32545 0.059,34.98559 H -4.8992866 v -99.26542 z"/>
      </g>
     </g>
     <g transform="translate(11.500978,21.155638)">
      <rect width="364.274" height="235.397" x="674.71" y="484.39" style="fill:#f2f2f2"/>
      <g transform="matrix(0.87499997,0,0,0.87499997,366.60062,173.90033)">
       <path style="fill:#e99361;fill-rule:evenodd" d="m 19.246483,221.50817 c -5.90933,-0.0174 -11.9148805,1.65106 -16.6522905,4.12326 -18.5780695,9.69473 -31.5445095,34.03325 -31.5445095,34.03325 27.4589895,28.58761 49.22145,16.85856 49.22145,16.85856 21.03242,-9.82239 18.40339,-44.7125 18.40339,-44.7125 -4.38996,-7.46998 -11.83033,-10.27992 -19.42804,-10.30257 z m -26.9593505,16.64552 c 7.19777004,0 23.2989905,0.0174 27.4481305,0.0174 2.01472,0 2.47661,0.20349 4.09189,0.73763 2.82347,1.40808 3.88551,4.47787 4.00444,7.25778 0.0837,4.59782 0.0161,9.19918 0.0382,13.79808 h -8.03131 c 0,-2.60129 0,-9.73262 0,-12.33396 0,-2.59072 -1.20736,-3.73763 -2.86992,-3.73763 -1.66256,0 -2.86992,1.14873 -2.86992,3.70624 -0.091,4.12075 0.0221,8.24348 0,12.36535 H 6.0628425 v -12.41917 c 0,-2.50399 -1.14797,-3.65242 -2.86992,-3.65242 -1.72195,0 -2.86991996,1.26068 -2.86991996,3.49551 -0.12917,4.18958 0.0308,8.38451 0,12.57608 H -7.7127875 Z" transform="matrix(10.932016,0,0,10.932016,447.2013,-2232.4079)"/>
       <path style="fill:#b6312c" d="m 140.72461,82.308594 c 0.14503,-0.700018 0.34821,-1.418225 0.48633,-2.115235 0.59966,-3.026117 1.0362,-5.951071 1.51367,-8.902343 V 22.617188 H 83.03125 v 11.716796 c 2.103239,0.44564 4.035637,1.119433 7.029297,2.109375 1.333988,0.665268 2.563336,1.430209 3.695312,2.277344 1.131977,0.847135 2.165376,1.777156 3.107422,2.777344 0.942047,1.000188 1.792442,2.068932 2.556641,3.193359 0.764198,1.124427 1.442578,2.305539 2.041018,3.525391 1.19686,2.439703 2.07534,5.040936 2.68164,7.689453 0.60629,2.648517 0.94035,5.343887 1.05273,7.970703 0.11181,6.141875 0.0416,12.287424 0.0508,18.431641 z" transform="matrix(2.8922868,0,0,2.8922868,447.2013,273.93878)"/>
       <path style="fill:#b6312c" d="m -29.152344,82.308594 h -7.203125 v 59.693356 h 59.69336 V 116.0293 H 22.916016 V 82.308594 H 1.140625 c -0.0013,3.317464 -0.090243,6.633076 -0.058594,9.951172 0.07558,7.923704 0.1968795,15.848064 0.1386719,23.769534 H -29.152344 Z" transform="matrix(2.8922868,0,0,2.8922868,447.2013,273.93878)"/>
       <path style="fill:#b6312c" d="m -39.246094,22.617188 c -3.327024,3.192605 -6.58385,6.431788 -9.716797,9.714843 -3.390534,3.552986 -6.664279,7.142714 -9.814453,10.732422 -3.150173,3.589709 -6.177981,7.179888 -9.074218,10.734375 -2.896238,3.554487 -5.662287,7.07221 -8.291016,10.519531 -4.841308,6.348903 -9.090437,12.351538 -12.958984,17.990235 h 52.746093 V 22.617188 Z" transform="matrix(2.8922868,0,0,2.8922868,447.2013,273.93878)"/>
       <path style="fill:#b6312c" d="m -96.048828,92.835938 c -1.50995,2.344348 -3.363226,5.080812 -4.621092,7.113281 -5.69182,9.196861 -8.75391,14.947261 -8.75391,14.947261 3.24335,3.37666 6.46462,6.60443 9.664064,9.68946 1.245948,1.20139 2.47204,2.28102 3.710938,3.43945 z" transform="matrix(2.8922868,0,0,2.8922868,447.2013,273.93878)"/>
       <path style="fill:#822d37" d="M 22.916016,82.308594 V 69.087891 c 0,-2.366092 -0.270821,-4.410568 -0.779297,-6.148438 -0.254238,-0.868935 -0.568855,-1.662439 -0.9375,-2.378906 -0.368645,-0.716467 -0.791048,-1.356771 -1.265625,-1.923828 -0.474578,-0.567058 -1.000231,-1.059763 -1.572266,-1.480469 -0.572035,-0.420706 -1.190545,-0.769463 -1.851562,-1.046875 -1.322036,-0.554825 -2.814287,-0.826172 -4.441407,-0.826172 -1.627119,0 -3.1193702,0.298249 -4.4414059,0.876953 -1.3220357,0.578705 -2.4746735,1.438936 -3.4238281,2.5625 C 3.2539704,59.846221 2.508476,61.232606 2,62.867188 1.491524,64.501769 1.2207031,66.384339 1.2207031,68.496094 1.078814,73.098215 1.1424296,77.703865 1.140625,82.308594 Z" transform="matrix(2.8922868,0,0,2.8922868,447.2013,273.93878)"/>
       <path style="fill:#822d37" d="m -36.355469,22.617188 v 59.691406 h 7.203125 v -48.71875 c 13.764601,0 31.7060118,0.01657 52.490235,0.0332 V 22.617188 Z" transform="matrix(2.8922868,0,0,2.8922868,447.2013,273.93878)"/>
       <path style="fill:#822d37" d="m 23.337891,116.0293 v 25.97265 H 83.03125 V 116.0293 H 74.984375 V 82.308594 h -21.75 c -0.003,3.449972 -0.06664,6.899312 -0.04297,10.349609 0.05344,7.790027 0.139422,15.581347 0.09766,23.371097 z" transform="matrix(2.8922868,0,0,2.8922868,447.2013,273.93878)"/>
       <path style="fill:#822d37" d="m 83.03125,175.27344 c 0.253256,-0.14338 0.529988,-0.2628 0.78125,-0.40821 2.312624,-1.33832 4.540453,-2.76299 6.6875,-4.26562 2.147047,-1.50263 4.213637,-3.08322 6.201172,-4.73633 1.987535,-1.65311 3.896378,-3.37822 5.730468,-5.16797 1.83409,-1.78975 3.59259,-3.64407 5.2793,-5.55664 1.6867,-1.91256 3.30226,-3.88275 4.84765,-5.90429 1.76185,-2.3047 3.23957,-4.80532 4.82618,-7.23243 H 83.03125 Z" transform="matrix(2.8922868,0,0,2.8922868,447.2013,273.93878)"/>
       <path style="fill:#822d37" d="m -80.121094,142.00195 c 2.851034,2.31774 5.685979,4.55287 8.490235,6.6543 6.090967,4.5644 12.067387,8.63012 17.916015,12.24414 5.848628,3.61402 11.567894,6.77741 17.144532,9.53711 0.07355,0.0364 0.141341,0.0575 0.214843,0.0937 v -28.5293 z" transform="matrix(2.8922868,0,0,2.8922868,447.2013,273.93878)"/>
       <path style="fill:#9f3135" d="m -36.355469,170.53125 c 5.49935,2.71281 10.86489,5.04841 16.070313,7.02344 5.274996,2.00142 10.3922323,3.64712 15.3359372,4.98633 4.94370503,1.33921 9.7141125,2.37148 14.296875,3.14453 4.5827628,0.77304 8.9777528,1.2869 13.1699218,1.58984 0.287691,0.0208 0.534536,0.003 0.820313,0.0215 v -45.29493 h -59.69336 z" transform="matrix(2.8922868,0,0,2.8922868,447.2013,273.93878)"/>
       <path style="fill:#9f3135" d="m 117.38477,142.00195 c 1.19675,-1.83072 2.53909,-3.56493 3.64062,-5.45507 2.5619,-4.39602 4.87158,-8.93984 6.95313,-13.57813 2.08154,-4.63829 3.93427,-9.37072 5.58398,-14.14063 1.64971,-4.7699 3.09689,-9.578268 4.36328,-14.369136 1.07864,-4.080559 1.96568,-8.12895 2.79883,-12.15039 h -35.47852 c 0.0168,11.240851 0.0397,22.481496 0.0937,33.720706 H 83.03125 v 25.97265 z" transform="matrix(2.8922868,0,0,2.8922868,447.2013,273.93878)"/>
       <path style="fill:#9f3135" d="m 146.46875,22.617188 c -0.0174,-2.398725 0.0372,-5.532267 -0.0176,-7.261719 -0.11645,-3.678458 -0.27344,-5.7402346 -0.27344,-5.7402346 -1.06255,-1.8080474 -2.29888,-3.3423643 -3.45312,-5.0078125 V 22.617188 Z" transform="matrix(2.8922868,0,0,2.8922868,447.2013,273.93878)"/>
       <path style="fill:#d45e4f" d="M 74.984375,82.308594 V 69.410156 c 0,-2.448045 -0.286487,-4.55446 -0.8125,-6.33789 -0.263007,-0.891716 -0.585039,-1.70341 -0.962891,-2.435547 -0.377852,-0.732137 -0.811376,-1.383995 -1.292968,-1.960938 -0.481593,-0.576942 -1.011711,-1.077774 -1.585938,-1.503906 -0.574227,-0.426132 -1.191899,-0.77889 -1.847656,-1.058594 -1.311513,-0.559408 -2.774703,-0.830078 -4.345703,-0.830078 -1.571,0 -3.03419,0.271986 -4.345703,0.830078 -0.655757,0.279046 -1.27343,0.628406 -1.847657,1.052735 -0.574227,0.424328 -1.106298,0.922644 -1.58789,1.496093 -0.481592,0.57345 -0.913164,1.222808 -1.291016,1.949219 -0.377852,0.726411 -0.701837,1.530851 -0.964844,2.414063 -0.526013,1.766423 -0.810547,3.848961 -0.810547,6.265625 -0.09581,4.338393 -0.05087,8.678255 -0.05469,13.017578 z" transform="matrix(2.8922868,0,0,2.8922868,447.2013,273.93878)"/>
       <path style="fill:#d45e4f" d="m 23.337891,22.617188 v 11.005859 c 20.295455,0.01624 43.507874,0.0332 51.255859,0.0332 3.807532,0 6.14733,0.192073 8.298828,0.636719 0.04157,0.0086 0.09723,0.03223 0.138672,0.04102 V 22.617188 Z" transform="matrix(2.8922868,0,0,2.8922868,447.2013,273.93878)"/>
       <path style="fill:#d45e4f" d="m -89.101562,82.308594 c -0.332534,0.484692 -0.788276,1.069233 -1.113282,1.546875 -2.29117,3.367197 -3.927694,6.020762 -5.833984,8.980469 v 35.189452 c 1.942442,1.81628 3.893937,3.67967 5.818359,5.39258 3.151828,2.80541 6.278397,5.47392 9.378907,8.01172 0.245586,0.20101 0.485216,0.37289 0.730468,0.57226 h 43.765625 V 82.308594 Z" transform="matrix(2.8922868,0,0,2.8922868,447.2013,273.93878)"/>
       <path style="fill:#6c2b5e" d="m 23.337891,187.29688 c 3.878501,0.25538 7.619737,0.36897 11.132812,0.30273 3.771926,-0.0711 7.326406,-0.30518 10.648438,-0.6543 3.322031,-0.34912 6.41142,-0.81268 9.253906,-1.34375 2.842486,-0.53106 5.438194,-1.12913 7.771484,-1.74609 4.666581,-1.23392 8.286388,-2.54375 10.738281,-3.54492 2.451894,-1.00118 3.736329,-1.69336 3.736329,-1.69336 2.214356,-1.03413 4.334386,-2.16749 6.412109,-3.34375 V 142.00195 H 23.337891 Z" transform="matrix(2.8922868,0,0,2.8922868,447.2013,273.93878)"/>
       <path style="fill:#c13b37" d="m 83.03125,-28.806641 c -3.407854,-0.325492 -6.841339,-0.507311 -10.285156,-0.517578 -2.791947,-0.0082 -5.589573,0.08318 -8.382813,0.267578 -2.79324,0.184395 -5.58108,0.460234 -8.355469,0.824219 -2.774388,0.363985 -5.53609,0.815151 -8.271484,1.345703 -2.735394,0.530552 -5.444839,1.142077 -8.121094,1.826172 -5.352509,1.36819 -10.567412,3.029377 -15.5625,4.933594 -0.250595,0.09553 -0.465361,0.22357 -0.714843,0.320312 V 22.615234 H 83.03125 Z" transform="matrix(2.8922868,0,0,2.8922868,447.2013,273.93878)"/>
       <path style="fill:#e99361" d="m 23.337891,-19.806641 c -4.723429,1.831622 -9.281269,3.84755 -13.5332035,6.066407 -4.3887363,2.290206 -8.6939127,4.7957706 -12.9101563,7.4824215 -4.2162435,2.6866509 -8.3428702,5.55525517 -12.3730472,8.5664063 -4.030177,3.011151 -7.964385,6.1659805 -11.794922,9.4296872 -3.113495,2.652772 -6.108557,5.416817 -9.082031,8.19336 v 2.683593 h 59.69336 z" transform="matrix(2.8922868,0,0,2.8922868,447.2013,273.93878)"/>
       <path style="fill:#cf4544" d="m 142.72461,4.6074219 c -1.09883,-1.5854972 -2.11026,-3.3080293 -3.28711,-4.76757815 -2.41304,-2.99269765 -4.98604,-5.72328375 -7.69531,-8.20703125 -2.70928,-2.4837475 -5.55479,-4.7202085 -8.51758,-6.7226565 -2.96279,-2.002447 -6.04125,-3.771514 -9.21484,-5.320312 -3.17359,-1.548798 -6.44348,-2.877202 -9.78516,-4 -3.34168,-1.122799 -6.755609,-2.039223 -10.222657,-2.763672 -3.467048,-0.724449 -6.985452,-1.257578 -10.535156,-1.611328 -0.144206,-0.01437 -0.291241,-0.0077 -0.435547,-0.02148 v 51.423829 h 59.69336 z" transform="matrix(2.8922868,0,0,2.8922868,447.2013,273.93878)"/>
       <path style="fill:#d3554e" d="m -36.355469,19.931641 c -0.684793,0.63944 -1.414668,1.241974 -2.091797,1.886718 -0.274818,0.261675 -0.525282,0.536335 -0.798828,0.798829 h 2.890625 z" transform="matrix(2.8922868,0,0,2.8922868,447.2013,273.93878)"/>
      </g>
     </g>
     <g transform="matrix(0.98243598,0,0,0.98243598,-539.20723,-2.1269564)">
      <g transform="matrix(0.87499997,0,0,0.87499997,496.95096,15.174403)">
       <path style="opacity:0.3;fill:#ffffff;fill-rule:evenodd" d="m 1168.504,404.54574 c -8.2193,-0.0242 -16.4526,0.24573 -24.6757,0.78857 -8.2232,0.54286 -16.4292,1.3533 -24.5968,2.42485 -8.1677,1.07155 -16.3008,2.40065 -24.3537,3.96257 -8.0528,1.56191 -16.028,3.36148 -23.9068,5.37542 -3.9373,1.00644 -7.8605,2.06841 -11.7431,3.18056 -11.6528,3.33659 -23.0459,7.13857 -34.0729,11.34227 -0.044,0.0169 -0.081,0.0416 -0.1248,0.0591 -14.6591,5.59383 -28.68002,11.89091 -41.8205,18.74826 -12.9202,6.74224 -25.59671,14.11804 -38.0091,22.02739 -9.30918,5.93201 -18.4713,12.15696 -27.47508,18.64311 -12.00531,8.64569 -23.72301,17.74381 -35.15053,27.18596 -2.85698,2.36006 -5.69735,4.74108 -8.51655,7.14313 -22.5538,19.21634 -43.89137,39.70832 -63.85449,60.6279 -9.98155,10.45979 -19.62056,21.02749 -28.89452,31.59538 -9.27392,10.56791 -18.18649,21.13774 -26.7128,31.60195 -8.52638,10.46422 -16.67398,20.8224 -24.41282,30.97108 -3.56314,4.67271 -7.01516,9.28156 -10.3697,13.82628 -26.07457,35.17122 -47.00396,67.10593 -61.83705,91.07328 -16.75638,27.07503 -25.77308,44.0022 -25.77308,44.0022 0.79891,0.83179 1.59373,1.6125 2.39197,2.438 2.63991,-4.83821 9.65913,-17.53901 23.38111,-39.71107 14.83309,-23.96735 35.76248,-55.90206 61.83705,-91.07328 3.35454,-4.54472 6.80656,-9.15357 10.3697,-13.82628 7.73884,-10.14867 15.88644,-20.50686 24.41282,-30.97108 8.52631,-10.46421 17.43888,-21.03404 26.7128,-31.60195 9.27396,-10.56789 18.91297,-21.13559 28.89452,-31.59537 19.96312,-20.91958 41.30069,-41.41157 63.85449,-60.62791 2.8192,-2.40205 5.65957,-4.78307 8.51655,-7.14313 11.42752,-9.44215 23.14522,-18.54026 35.15053,-27.18595 9.00378,-6.48615 18.1659,-12.71111 27.47508,-18.64312 12.41239,-7.90935 25.0889,-15.28515 38.0091,-22.02739 13.14048,-6.85735 27.1614,-13.15442 41.8205,-18.74825 0.044,-0.0175 0.081,-0.0422 0.1248,-0.0591 11.027,-4.2037 22.4201,-8.00568 34.0729,-11.34226 3.8826,-1.11216 7.8058,-2.17412 11.7431,-3.18057 7.8788,-2.01394 15.854,-3.81351 23.9068,-5.37542 8.0529,-1.56192 16.186,-2.89102 24.3537,-3.96257 8.1676,-1.07155 16.3736,-1.88199 24.5968,-2.42485 8.2231,-0.54284 16.4564,-0.81277 24.6757,-0.78857 h 0.01 c 10.5678,0.0315 21.1125,0.54886 31.5626,1.59028 10.4502,1.04142 20.8102,2.60526 31.017,4.738 2.5517,0.53318 5.0915,1.10353 7.6229,1.70856 15.1894,3.62744 30.0015,8.54637 44.2191,14.90398 1.2602,0.56333 2.5081,1.17518 3.7588,1.76114 1.0991,0.51514 2.2072,1.01153 3.2989,1.54428 h 0.01 c 2.3339,1.1391 4.6479,2.31488 6.946,3.53543 6.8989,3.66373 13.6391,7.70294 20.1808,12.12426 2.1806,1.47378 4.3361,2.987 6.4729,4.54742 0.5137,0.37522 1.0201,0.78286 1.5311,1.16314 1.6127,1.19966 3.2241,2.40337 4.8103,3.65371 2.0909,1.64864 4.1601,3.34194 6.2034,5.07971 4.0872,3.47507 8.0817,7.12821 11.9666,10.9677 5.8273,5.7591 11.4161,11.93679 16.744,18.54454 7.1038,8.81033 13.7396,18.38619 19.8456,28.77624 0,0 0.1176,1.51861 0.276,4.3897 0.1571,2.87018 0.3544,7.09082 0.5258,12.50541 v 0.007 c 0.21,6.63675 0.3372,15.44463 0.3285,25.35911 0.1183,-13.02047 -0.07,-23.92373 -0.3285,-32.08824 v -0.007 c -0.1714,-5.41459 -0.3687,-9.63523 -0.5258,-12.50541 -0.1584,-2.87109 -0.276,-4.38971 -0.276,-4.38971 -6.106,-10.39005 -12.7418,-19.96591 -19.8456,-28.77623 -5.3279,-6.60776 -10.9167,-12.78545 -16.744,-18.54455 -3.8849,-3.83948 -7.8794,-7.49262 -11.9666,-10.96769 -2.0433,-1.73777 -4.1125,-3.43107 -6.2034,-5.07971 -1.5862,-1.25034 -3.1976,-2.45405 -4.8103,-3.65371 -0.511,-0.38028 -1.0174,-0.78792 -1.5311,-1.16314 -2.1368,-1.56042 -4.2923,-3.07364 -6.4729,-4.54742 -6.5417,-4.42132 -13.2819,-8.46054 -20.1808,-12.12427 -2.2981,-1.22055 -4.6121,-2.39632 -6.946,-3.53542 h -0.01 c -1.0917,-0.53275 -2.1998,-1.02914 -3.2989,-1.54428 -1.2507,-0.58596 -2.4986,-1.19781 -3.7588,-1.76114 -14.2176,-6.35761 -29.0297,-11.27655 -44.2191,-14.90398 -2.5314,-0.60503 -5.0712,-1.17539 -7.6229,-1.70857 -10.2068,-2.13273 -20.5668,-3.69657 -31.017,-4.73799 -10.4501,-1.04142 -20.9948,-1.55878 -31.5626,-1.59028 z M 989.87309,653.62219 c -2.395,0 -4.69068,0.21842 -6.87367,0.65057 -2.18361,0.43246 -4.25742,1.08016 -6.20342,1.932 -1.61533,0.70708 -3.12427,1.5938 -4.56057,2.58257 -0.29191,0.20095 -0.60296,0.37245 -0.88714,0.58486 0,0 -0.007,0.007 -0.007,0.007 -0.8406,0.62894 -1.64756,1.30905 -2.41828,2.03714 -0.77069,0.72809 -1.50383,1.5006 -2.2014,2.3263 0,0.002 -0.003,0.005 -0.0132,0.007 -0.17139,0.20281 -0.3194,0.43534 -0.48628,0.64401 -0.51151,0.64007 -1.02364,1.28351 -1.49171,1.97799 0,0 0,0.007 0,0.007 -0.621,0.92192 -1.2062,1.88816 -1.748,2.90456 0,0 0,0.007 0,0.007 -0.54169,1.01657 -1.04557,2.07769 -1.50487,3.18715 0,0 0,0.007 0,0.007 -2.2987,5.55561 -3.54857,12.26119 -3.54857,20.0297 v 0.007 c -0.40654,13.19014 -0.5206,26.38755 -0.53227,39.58624 0.0511,-10.95479 0.1948,-21.90864 0.53227,-32.85711 v -0.007 c 0,-7.76851 1.24987,-14.47409 3.54857,-20.0297 0,0 0,-0.007 0,-0.007 0.4593,-1.10946 0.96318,-2.17058 1.50487,-3.18715 0,0 0,-0.007 0,-0.007 0.5418,-1.0164 1.127,-1.98264 1.748,-2.90456 0,0 0,-0.007 0,-0.007 0.46807,-0.69448 0.9802,-1.33792 1.49171,-1.978 0.16688,-0.20867 0.31489,-0.44119 0.48628,-0.64401 0.01,-0.002 0.0132,-0.005 0.0132,-0.007 0.69757,-0.8257 1.43071,-1.5982 2.2014,-2.3263 0.77072,-0.72809 1.57768,-1.4082 2.41828,-2.03714 0,0 0.007,-0.007 0.007,-0.007 0.28418,-0.21241 0.59523,-0.3839 0.88714,-0.58486 1.4363,-0.98878 2.94524,-1.87548 4.56057,-2.58258 1.946,-0.85184 4.01981,-1.49952 6.20342,-1.932 2.18299,-0.43214 4.47867,-0.65057 6.87367,-0.65057 2.3951,0 4.69081,0.2007 6.87371,0.60458 1.89882,0.35136 3.6942,0.88098 5.4149,1.5443 0.2574,0.0992 0.5287,0.17627 0.782,0.28256 0.01,8.1e-4 0.013,-8.1e-4 0.013,0 0.3191,0.13404 0.6143,0.30816 0.9266,0.45344 1.5902,0.73963 3.115,1.59423 4.5211,2.62857 0.8419,0.61931 1.6466,1.29095 2.4183,2.01742 0.3985,0.37465 0.7577,0.80565 1.1368,1.20913 0.3555,0.37865 0.7331,0.72617 1.0712,1.13029 0,0 0,0.007 0,0.007 0.2085,0.24915 0.3897,0.53635 0.5914,0.79515 1.1495,1.47513 2.2113,3.06842 3.1346,4.86284 0,0 0,0.007 0,0.007 1.0841,2.10786 2.0121,4.44253 2.76,6.99853 0.7484,2.55811 1.322,5.34394 1.7085,8.35886 0.3864,3.01489 0.5915,6.26257 0.5915,9.7454 v -6.72914 c 0,-3.48283 -0.2051,-6.73051 -0.5915,-9.74539 -0.3865,-3.01492 -0.9601,-5.80075 -1.7085,-8.35886 -0.7479,-2.556 -1.6759,-4.89067 -2.76,-6.99854 0,0 0,-0.007 0,-0.007 -0.9233,-1.79443 -1.9851,-3.38772 -3.1346,-4.86284 -0.2017,-0.2588 -0.3829,-0.546 -0.5914,-0.79515 0,0 0,-0.007 0,-0.007 -0.3381,-0.40412 -0.7157,-0.75164 -1.0712,-1.13029 -0.3791,-0.40348 -0.7383,-0.83448 -1.1368,-1.20913 -0.7717,-0.72647 -1.5764,-1.39811 -2.4183,-2.01742 -1.4061,-1.03435 -2.9309,-1.88896 -4.5211,-2.62859 -0.3123,-0.14527 -0.6075,-0.31939 -0.9266,-0.45342 0,-8e-4 0,7.9e-4 -0.013,0 -0.2533,-0.1063 -0.5246,-0.18333 -0.782,-0.28257 -1.7207,-0.66331 -3.51608,-1.19295 -5.4149,-1.54429 -2.1829,-0.4039 -4.47861,-0.60457 -6.87371,-0.60457 z m 153.28491,0 c -1.1562,0 -2.2894,0.0506 -3.404,0.15114 -1.1146,0.10078 -2.2103,0.25065 -3.2791,0.45343 -1.0668,0.20214 -2.1174,0.45716 -3.1346,0.76229 -1.0172,0.30535 -2.0134,0.66797 -2.9769,1.07771 -0.3187,0.13563 -0.6139,0.31285 -0.9265,0.46 -1.2068,0.56778 -2.3668,1.22341 -3.4763,1.96485 -0.3419,0.22864 -0.7062,0.43152 -1.0383,0.67685 -0.8453,0.6246 -1.6523,1.3035 -2.4314,2.03715 -0.7802,0.73394 -1.532,1.52162 -2.2409,2.36572 -0.7088,0.84411 -1.3768,1.7446 -2.0108,2.70084 -1.9037,2.86789 -3.4649,6.23949 -4.6263,10.13969 v 0.007 c -1.5474,5.19902 -2.3854,11.33414 -2.3854,18.44599 -0.2874,13.01663 -0.3664,26.03828 -0.3746,39.06049 0.036,-10.77906 0.1367,-21.55664 0.3746,-32.33136 0,-7.11185 0.838,-13.24696 2.3854,-18.44599 v -0.007 c 1.1614,-3.90021 2.7226,-7.27181 4.6263,-10.1397 0.634,-0.95624 1.302,-1.85673 2.0108,-2.70083 0.7089,-0.84411 1.4607,-1.63178 2.2409,-2.36573 0.7791,-0.73364 1.5861,-1.41255 2.4314,-2.03714 0.3321,-0.24535 0.6964,-0.4482 1.0383,-0.67685 1.1095,-0.74145 2.2695,-1.39707 3.4763,-1.96484 0.3126,-0.14717 0.6078,-0.32438 0.9265,-0.46001 0.9635,-0.40973 1.9597,-0.77237 2.9769,-1.07773 1.0172,-0.3051 2.0678,-0.56014 3.1346,-0.76228 1.0688,-0.20278 2.1645,-0.35264 3.2791,-0.45341 1.1146,-0.10057 2.2478,-0.15117 3.404,-0.15117 18.4998,0 31.9371,12.76288 31.9371,41.59051 v -6.72913 c 0,-28.82764 -13.4373,-41.5905 -31.9371,-41.5905 z m 121.0587,57.96648 c -0.016,7.19916 -0.044,14.40219 -0.033,21.60025 0,0.76897 0.01,1.5376 0.01,2.30657 0,-7.96739 0.022,-15.93899 0.026,-23.90682 z m -395.70455,120.8615 v 6.72914 h 89.41728 c 0.0165,-2.24266 -0.0203,-4.48632 -0.0131,-6.72914 z m 153.30465,0 v 6.72914 h 89.4107 c 0.012,-2.2433 -0.012,-4.48615 -0.01,-6.72914 z m 153.2783,0 v 6.72914 h 23.69 65.6747 c -0.011,-2.24306 -0.01,-4.48605 -0.02,-6.72914 h -65.655 z"/>
      </g>
     </g>
     <g transform="matrix(0.98243598,0,0,0.98243598,-630.54113,12.947572)">
      <g transform="matrix(0.87499997,0,0,0.87499997,496.95096,15.174403)">
       <path style="opacity:0.2;fill-rule:evenodd" d="m 1493.5474,546.43278 c -0.3539,38.48991 -3.4119,95.67774 -15.4823,157.24088 -0.094,0.48675 -0.1658,0.95722 -0.2628,1.44572 -0.026,0.13203 -0.064,0.26833 -0.092,0.40086 -2.725,13.71134 -5.8888,27.62167 -9.5812,41.59051 -1.8641,7.05203 -3.8611,14.11651 -5.9997,21.17311 -2.1373,7.05694 -4.4191,14.10594 -6.8474,21.12709 -1.2142,3.51058 -2.4626,7.01353 -3.7523,10.5077 v 0.007 c -3.8685,10.48066 -8.0877,20.87643 -12.6828,31.11568 -3.064,6.82744 -6.2973,13.58437 -9.706,20.25311 v 0.007 c -3.4078,6.66692 -6.994,13.24508 -10.764,19.71424 -7.5421,12.9416 -15.8328,25.4493 -24.9319,37.35193 -4.5495,5.95131 -9.301,11.75091 -14.2666,17.38141 -4.9656,5.6305 -10.1419,11.09395 -15.5414,16.36283 -5.3995,5.26891 -11.0242,10.34624 -16.8754,15.21282 -5.8499,4.8655 -11.9296,9.52175 -18.2488,13.94458 h -0.01 c -6.3208,4.42359 -12.8797,8.61806 -19.688,12.55797 -6.119,3.5411 -12.4648,6.84316 -18.9913,9.96228 -0.7347,0.35368 -1.44,0.73798 -2.1818,1.08426 0,0 -0.945,0.50977 -2.7928,1.38657 -3.6964,1.75651 -11.0085,4.98327 -21.574,8.55597 -5.2828,1.7875 -11.3821,3.6648 -18.2488,5.4805 -6.8673,1.8158 -14.5096,3.5759 -22.8751,5.1389 h -0.01 c -8.3681,1.5635 -17.4586,2.9283 -27.2385,3.956 -9.7798,1.0279 -20.2478,1.7163 -31.3523,1.9254 -11.1042,0.2094 -22.8484,-0.061 -35.1899,-0.9529 -3.0854,-0.2229 -6.2049,-0.4853 -9.3642,-0.7885 -15.7965,-1.5142 -32.5125,-4.0566 -50.0546,-7.8989 -7.0166,-1.5358 -14.1655,-3.2791 -21.4425,-5.2505 -10.9136,-2.9562 -22.117,-6.4228 -33.5865,-10.45512 h -0.01 c -3.8219,-1.3438 -7.6722,-2.75322 -11.5525,-4.22542 h -0.013 c -3.37426,-1.28018 -6.77991,-2.63112 -10.19881,-4.01514 -12.31058,-4.97229 -24.89106,-10.5827 -37.73963,-16.94109 -16.4173,-8.12442 -33.25705,-17.4337 -50.47508,-28.0731 -8.61043,-5.32062 -17.30851,-10.96997 -26.10167,-16.97397 -17.58564,-12.00309 -35.52504,-25.40624 -53.78047,-40.34851 -4.56389,-3.73558 -9.14509,-7.57014 -13.74741,-11.49999 h -0.007 c -13.80694,-11.79098 -27.78409,-24.4647 -41.9125,-38.08793 -4.70841,-4.54004 -9.4331,-9.19213 -14.17455,-13.94454 -3.94886,-3.95818 -7.91585,-8.03661 -11.88769,-12.144 -0.58375,1.0699 -2.392,4.29113 -2.392,4.29113 4.77415,4.97034 9.5372,9.8283 14.27969,14.582 4.74145,4.75242 9.46614,9.4045 14.17455,13.94454 14.12841,13.62323 28.10556,26.29695 41.9125,38.08793 h 0.007 c 4.60232,3.92985 9.18352,7.76441 13.74741,11.49999 18.25543,14.94227 36.19483,28.34543 53.78047,40.34851 8.79316,6.00401 17.49124,11.65335 26.10167,16.97397 17.21803,10.6394 34.05778,19.94868 50.47508,28.0731 12.84857,6.35839 25.42905,11.9688 37.73963,16.94109 3.4189,1.38402 6.82455,2.73496 10.19881,4.01514 h 0.013 c 3.8803,1.4722 7.7306,2.88161 11.5525,4.22541 h 0.01 c 11.4695,4.0324 22.6729,7.4989 33.5865,10.4551 7.277,1.9714 14.4259,3.7148 21.4425,5.2506 17.5421,3.8423 34.2581,6.3846 50.0546,7.8988 3.1593,0.3032 6.2788,0.5657 9.3642,0.7886 12.3415,0.8919 24.0857,1.1622 35.1899,0.9528 11.1045,-0.2091 21.5725,-0.8975 31.3523,-1.9254 9.7799,-1.0277 18.8704,-2.3925 27.2385,-3.956 h 0.01 c 8.3655,-1.563 16.0078,-3.323 22.8751,-5.1389 6.8667,-1.8156 12.966,-3.693 18.2488,-5.4805 10.5655,-3.5727 17.8776,-6.7995 21.574,-8.556 1.8478,-0.8768 2.7928,-1.3866 2.7928,-1.3866 0.7418,-0.3462 1.4471,-0.7305 2.1818,-1.0842 6.5265,-3.11909 12.8723,-6.42114 18.9913,-9.96225 6.8083,-3.93991 13.3672,-8.13437 19.688,-12.55797 h 0.01 c 6.3192,-4.42282 12.3989,-9.07908 18.2488,-13.94458 5.8512,-4.86658 11.4759,-9.94391 16.8754,-15.21282 5.3995,-5.26887 10.5758,-10.73232 15.5414,-16.36282 4.9656,-5.6305 9.7171,-11.43011 14.2666,-17.38142 9.0991,-11.90262 17.3898,-24.41033 24.9319,-37.35193 3.77,-6.46915 7.3562,-13.04732 10.764,-19.71424 v -0.007 c 3.4087,-6.66874 6.642,-13.42566 9.706,-20.25311 4.5951,-10.23925 8.8143,-20.63502 12.6828,-31.11567 v -0.007 c 1.2897,-3.49417 2.5381,-6.99712 3.7523,-10.50771 2.4283,-7.02114 4.7101,-14.07015 6.8474,-21.12709 2.1386,-7.0566 4.1356,-14.12108 5.9997,-21.17311 3.6924,-13.96884 6.8562,-27.87916 9.5812,-41.59051 0.028,-0.13253 0.066,-0.26883 0.092,-0.40086 0.097,-0.4885 0.1688,-0.95896 0.2628,-1.44572 12.8333,-65.45399 15.4439,-125.6262 15.4823,-163.97001 z m -517.30203,21.48854 v 6.72913 c 80.09153,0 259.25783,0.19057 305.42633,0.19057 5.6046,0 10.128,0.14171 14.0431,0.44686 1.9576,0.15249 3.7624,0.34775 5.4741,0.58486 h 0.01 c 1.7117,0.23713 3.3254,0.52045 4.9089,0.84771 0.1223,0.0253 0.2854,0.0924 0.4074,0.11828 6.1918,1.31194 11.8803,3.29566 20.6934,6.20999 3.9272,1.95851 7.5497,4.20894 10.8822,6.70285 1.6662,1.24696 3.2604,2.55268 4.7841,3.91656 2.2316,1.99841 4.2644,4.15761 6.2034,6.38085 2.0324,2.33117 3.9574,4.74036 5.6842,7.28113 1.125,1.65512 2.1854,3.34837 3.1872,5.07971 v 0.007 c 1.0006,1.72974 1.9457,3.49613 2.8257,5.28999 2.6427,5.38675 4.7558,11.03601 6.4005,16.81627 0.5484,1.92668 1.0455,3.86642 1.4918,5.81568 1.7849,7.79711 2.7709,15.73335 3.1017,23.46654 0.1573,8.64437 0.1821,17.29528 0.1774,25.94396 0.024,-10.89227 0.021,-21.78664 -0.1774,-32.67309 -0.3308,-7.73319 -1.3168,-15.66943 -3.1017,-23.46654 -0.4463,-1.94926 -0.9434,-3.889 -1.4918,-5.81569 -1.6447,-5.78026 -3.7578,-11.42951 -6.4005,-16.81626 -0.88,-1.79386 -1.8251,-3.56025 -2.8257,-5.28999 v -0.007 c -1.0018,-1.73133 -2.0622,-3.42458 -3.1872,-5.0797 -1.7268,-2.54077 -3.6518,-4.94996 -5.6842,-7.28113 -1.939,-2.22324 -3.9718,-4.38244 -6.2034,-6.38085 -1.5237,-1.36388 -3.1179,-2.6696 -4.7841,-3.91656 -3.3325,-2.49391 -6.955,-4.74434 -10.8822,-6.70285 -8.8131,-2.91433 -14.5016,-4.89805 -20.6934,-6.20999 -0.122,-0.0259 -0.2851,-0.093 -0.4074,-0.11828 -1.5835,-0.32727 -3.1972,-0.61058 -4.9089,-0.84772 h -0.01 c -1.7117,-0.2371 -3.5165,-0.43236 -5.4741,-0.58486 -3.9151,-0.30515 -8.4385,-0.44685 -14.0431,-0.44685 -46.1685,0 -225.3348,-0.19057 -305.42633,-0.19057 z m 88.87183,142.27778 c -0.058,12.38736 0.013,24.77828 0.1315,37.16793 0.1113,11.66347 0.2527,23.32435 0.3482,34.98623 0.078,9.42005 0.076,18.83905 0.046,28.25711 h 0.013 c 0.086,-11.66014 0.037,-23.3229 -0.059,-34.98624 -0.095,-11.66189 -0.2369,-23.32277 -0.3482,-34.98624 -0.097,-10.14652 -0.1408,-20.29341 -0.1315,-30.43879 z m 153.4558,1.87286 c -0.041,12.15678 0.01,24.31571 0.092,36.47135 0.079,11.46449 0.1818,22.92982 0.2497,34.39482 0.055,9.2257 0.055,18.44842 0.033,27.67224 h 0.01 c 0.062,-11.46843 0.029,-22.93224 -0.039,-34.40138 -0.068,-11.46499 -0.1707,-22.93032 -0.2497,-34.39481 -0.068,-9.91275 -0.098,-19.82826 -0.092,-29.74222 z m 153.344,1.57714 c -5e-4,1.47421 -0.01,2.94843 -0.01,4.42255 0.046,30.84917 0.1192,61.69426 0.2562,92.53872 h 0.02 c -0.1554,-32.31871 -0.2207,-64.63809 -0.2695,-96.96127 z"/>
      </g>
     </g>
     <use id="use1709" width="100%" height="100%" x="0" y="0" xlink:href="#g1699"/>
     <use id="use1711" width="100%" height="100%" x="0" y="0" xlink:href="#g1706"/>
    </g>
   </g>
  </g>
 </g>
</svg>
