<svg height="256" width="256" xmlns="http://www.w3.org/2000/svg" xmlns:xlink="http://www.w3.org/1999/xlink">
  <filter id="filter850" color-interpolation-filters="sRGB" height="1.026" width="1.022" x="-.01" y="-.01">
    <feGaussianBlur stdDeviation=".381"/>
  </filter>
  <filter id="filter864" color-interpolation-filters="sRGB" height="1.104" width="1.089" x="-.04" y="-.05">
    <feGaussianBlur stdDeviation="1.524"/>
  </filter>
  <g enable-background="new" fill-rule="evenodd" transform="matrix(2.7694321 0 0 2.7947778 2517.69271517736 609.5987920055)">
    <g fill="#010306">
      <path d="m-832.98917-208.05454c-5.38083 2.20955-22.63565 9.40464-23.06586 9.5842-4.82746-3.9424-11.10625-7.00552-17.60943-7.35202-15.77481-.99202-30.28412 13.01694-30.32931 28.55773-.69253 13.99135 5.69322 26.93158 11.46207 39.29345 4.82624-2.01354 22.37537-9.32819 22.81784-9.51333 4.73795 3.95939 10.80594 6.87704 17.13111 7.3343 15.52212 1.30245 29.94819-12.10694 30.73676-27.28218 1.1267-14.19529-5.41722-27.3269-10.91288-40.01982-.08-.19802-.15046-.40429-.2303-.60233z" filter="url(#filter864)" opacity=".1"/>
      <path d="m-832.98917-208.05454c-5.38083 2.20955-22.63565 9.40464-23.06586 9.5842-4.82746-3.9424-11.10625-7.00552-17.60943-7.35202-15.77481-.99202-30.28412 13.01694-30.32931 28.55773-.69253 13.99135 5.69322 26.93158 11.46207 39.29345 4.82624-2.01354 22.37537-9.32819 22.81784-9.51333 4.73795 3.95939 10.80594 6.87704 17.13111 7.3343 15.52212 1.30245 29.94819-12.10694 30.73676-27.28218 1.1267-14.19529-5.41722-27.3269-10.91288-40.01982-.08-.19802-.15046-.40429-.2303-.60233z" filter="url(#filter850)" opacity=".1"/>
      <path d="m-832.98917-208.05454c-5.38083 2.20955-22.63565 9.40464-23.06586 9.5842-4.82746-3.9424-11.10625-7.00552-17.60943-7.35202-15.77481-.99202-30.28412 13.01694-30.32931 28.55773-.69253 13.99135 5.69322 26.93158 11.46207 39.29345 4.82624-2.01354 22.37537-9.32819 22.81784-9.51333 4.73795 3.95939 10.80594 6.87704 17.13111 7.3343 15.52212 1.30245 29.94819-12.10694 30.73676-27.28218 1.1267-14.19529-5.41722-27.3269-10.91288-40.01982-.08-.19802-.15046-.40429-.2303-.60233z" opacity=".1"/>
    </g>
    <path d="m-833.5136-207.54063c-5.28643 2.17079-22.23854 9.23965-22.6612 9.41606-4.74277-3.87324-10.9114-6.88262-17.30049-7.22304-15.49806-.97461-29.75282 12.78857-29.79722 28.05672-.68038 13.74589 5.59334 26.45909 11.26098 38.60409 4.74157-1.97821 21.98282-9.16454 22.41753-9.34643 4.65483 3.88993 10.61636 6.75639 16.83056 7.20563 15.24981 1.2796 29.42279-11.89454 30.19752-26.80355 1.10694-13.94625-5.32218-26.84748-10.72142-39.31771-.0786-.19455-.14782-.3972-.22626-.59177z" fill="#1a5fb4"/>
    <path d="m-888.47627-147.59485c-3.34442-8.09587-7.77829-15.23055-7.87685-28.45245-.10181-13.66044 11.61626-22.50459 20.87767-22.50564 11.21296-.001 21.07856 9.46777 21.59876 17.311.46948 7.07815-2.04927 17.37225-15.05002 17.29574-6.20761-.036-12.65784-5.43626-12.69184-13.47062-.0368-8.66983 10.82416-9.51562 13.56301-7.30846 1.06388.85735 1.03135 2.55394.0901 2.24765-5.84783-1.90403-9.46054 1.84854-9.19225 5.58189.36421 5.06556 3.3695 8.07934 8.75669 8.33568 7.77106.36913 9.94658-7.18857 9.7479-10.25598-.24142-3.72943-3.4931-11.39993-13.608-12.80125-4.77601-.66096-8.73423.76956-11.62553 3.57274-2.89124 2.80343-4.51672 5.70232-4.7542 10.45763-.24561 4.91859.82824 7.80458 3.77001 14.25778 1.05079 2.3047 3.9859 6.95458 6.25891 11.61077z" fill="#fafafa"/>
    <path d="m-837.28744-198.55294c3.34446 8.09642 7.77829 15.23082 7.87687 28.453.10182 13.66044-11.61629 22.50458-20.87767 22.50509-11.21298.002-21.07857-9.4675-21.59875-17.30994-.46946-7.07893 2.04925-17.37329 15.05003-17.29627 6.20761.036 12.65784 5.43627 12.69184 13.47038.0368 8.66956-10.82418 9.51586-13.56303 7.30845-1.06386-.85735-1.03139-2.55367-.0901-2.24765 5.84781 1.90428 9.46049-1.8488 9.1922-5.58191-.36419-5.06554-3.36947-8.07879-8.75666-8.33513-7.77103-.36913-9.94658 7.18884-9.74792 10.25572.24142 3.72941 3.49308 11.40043 13.60804 12.80071 4.776.66123 8.73422-.76928 11.62547-3.57247 2.8913-2.80369 4.5168-5.70258 4.75426-10.4571.24561-4.91885-.82828-7.80458-3.77005-14.25779-1.05076-2.30548-3.98592-6.95432-6.25887-11.61104z" fill="#83bbff"/>
    <path d="m-875.49136-198.58177c-9.26141.001-20.96054 8.8481-20.8587 22.50854.0986 13.2219 4.55124 20.36388 7.89567 28.45975l9.84012-4.1246c-.8786-1.79979-1.83998-3.52238-2.76938-5.18521h-2.18014v-3.94783c-.53559-.96479-1.00135-1.82782-1.29631-2.47477-2.94177-6.45319-4.01667-9.34075-3.77106-14.25933.23748-4.75532 1.88151-7.62593 4.77275-10.42935 2.89129-2.80319 6.83179-4.25526 11.60781-3.5943 4.78331.66269 8.01362 2.73941 10.13474 5.12629h2.00337v2.94614c.91198 1.76064 1.39173 3.45741 1.47308 4.71384.0882 1.36278-.34159 3.61009-1.47308 5.65659v7.01183c5.37419-3.40218 6.57947-10.05413 6.24583-15.08426-.5202-7.84323-10.41174-17.32463-21.6247-17.32333z" fill="#fff"/>
    <path d="m209.33398 29.568359c-14.6404 6.066876-61.58923 25.82338-62.75976 26.316407-13.13478-10.824846-30.21796-19.236102-47.912111-20.1875-42.920824-2.723819-82.398521 35.741022-82.521484 78.412114-.121417 2.47545-.159866 4.93878-.126953 7.39062.005725-1.79114.038483-3.58689.126953-5.39062.122963-42.671092 39.60066-81.135933 82.521484-78.412114 17.694151.951398 34.777331 9.362654 47.912111 20.1875 1.17053-.493027 48.11936-20.249531 62.75976-26.316407.21724.54378.40928 1.110573.62696 1.654297 13.76834 32.090755 29.9406 65.204748 30.02539 100.677734.53684-36.230494-15.99831-69.983917-30.02539-102.677734-.21768-.543724-.40972-1.110517-.62696-1.654297z" fill="#fff" opacity=".3" transform="matrix(.36108486 0 0 .3578102 -909.10072 -218.12066)"/>
    <path d="m16.013672 119.5c-.116216 36.35741 16.355271 70.15109 31.314453 102.5 13.131456-5.52866 60.880085-25.61275 62.083985-26.12109 12.89123 10.87149 29.39957 18.88314 46.60937 20.13867 42.23332 3.5762 81.4853-33.24279 83.63086-74.91016.24285-3.08754.34128-6.15529.33399-9.20703-.03543 2.39112-.14419 4.79393-.33399 7.20703-2.14556 41.66737-41.39754 78.48636-83.63086 74.91016-17.2098-1.25553-33.71814-9.26718-46.60937-20.13867-1.2039.50834-48.952529 20.59243-62.083985 26.12109-14.684731-31.75542-30.836592-64.90169-31.314453-100.5z" fill="#0e0e0e" opacity=".2" transform="matrix(.36108486 0 0 .3578102 -909.10072 -218.12066)"/>
  </g>
</svg>
