<svg xmlns="http://www.w3.org/2000/svg" xmlns:xlink="http://www.w3.org/1999/xlink" width="256" height="256" version="1.1">
 <defs>
  <linearGradient id="linearGradient4773" x1="11.566" x2="15.215" y1="22.292" y2="33.955" gradientTransform="translate(12.128253,-14.362661)" gradientUnits="userSpaceOnUse" xlink:href="#linearGradient8265-821-176-38-919-66-249"/>
  <linearGradient id="linearGradient8265-821-176-38-919-66-249">
   <stop id="stop2687" offset="0" style="stop-color:#ffffff;stop-opacity:0.27450982"/>
   <stop id="stop2689" offset="1" style="stop-color:#ffffff;stop-opacity:0"/>
  </linearGradient>
  <linearGradient id="linearGradient4708" x1="24" x2="33" y1="33.402" y2="33.402" gradientTransform="translate(0,-1.9999996)" gradientUnits="userSpaceOnUse" spreadMethod="reflect" xlink:href="#linearGradient4702"/>
  <linearGradient id="linearGradient4702">
   <stop id="stop4704" offset="0" style="stop-color:#ffffff"/>
   <stop id="stop4706" offset="1" style="stop-color:#ffffff;stop-opacity:0"/>
  </linearGradient>
  <linearGradient id="linearGradient4777" x1="102.308" x2="102.308" y1="-2.393" y2="-24.582" gradientTransform="matrix(0.12747837,0,0,0.81926866,69.892246,33.811851)" gradientUnits="userSpaceOnUse" spreadMethod="reflect" xlink:href="#linearGradient3844-4-1-98"/>
  <linearGradient id="linearGradient3844-4-1-98">
   <stop id="stop3846-6-6-1" offset="0" style="stop-color:#a5a6a8"/>
   <stop id="stop3848-9-0-6" offset="1" style="stop-color:#e8e8e8"/>
  </linearGradient>
  <linearGradient id="linearGradient4779" x1="109.956" x2="109.956" y1="-24.911" y2="-2.376" gradientTransform="matrix(0.12747837,0,0,0.81926866,69.892246,33.811851)" gradientUnits="userSpaceOnUse" xlink:href="#linearGradient2509-9-1-4"/>
  <linearGradient id="linearGradient2509-9-1-4">
   <stop id="stop2511-0-9-7" offset="0" style="stop-color:#b3b3b3"/>
   <stop id="stop2513-3-1-74" offset="1" style="stop-color:#dadada"/>
  </linearGradient>
  <linearGradient id="linearGradient4781" x1="89.018" x2="89.018" y1="22.537" y2="27.546" gradientTransform="matrix(0.27703571,0,0,1.7410302,57.055001,-5.2547316)" gradientUnits="userSpaceOnUse" xlink:href="#linearGradient3858-4-6-8-7"/>
  <linearGradient id="linearGradient3858-4-6-8-7">
   <stop id="stop3860-9-8-5-3" offset="0" style="stop-color:#a0a0a0"/>
   <stop id="stop3862-9-2-3-8" offset="1" style="stop-color:#4a4a4a"/>
  </linearGradient>
  <linearGradient id="linearGradient4681" x1="77.444" x2="77.444" y1="41.185" y2="30.155" gradientTransform="matrix(2.9195982,0,0,2.7200462,-157.64596,-76.984368)" gradientUnits="userSpaceOnUse" xlink:href="#linearGradient3188-6-5"/>
  <linearGradient id="linearGradient3188-6-5">
   <stop id="stop3190-6-58" offset="0" style="stop-color:#4d4d4d"/>
   <stop id="stop3192-6-88" offset="1" style="stop-color:#282828"/>
  </linearGradient>
  <linearGradient id="linearGradient4166" x1="27" x2="27" y1="9" y2="27" gradientUnits="userSpaceOnUse" xlink:href="#linearGradient3642"/>
  <linearGradient id="linearGradient3642">
   <stop id="stop3644" offset="0" style="stop-color:#ffffff"/>
   <stop id="stop3646" offset="1" style="stop-color:#ffffff;stop-opacity:0"/>
  </linearGradient>
  <radialGradient id="radialGradient4025" cx="25" cy="12" r="7.5" fx="25" fy="12" gradientTransform="matrix(0,9.5217056,-4.906667,0,127.62111,-315.64264)" gradientUnits="userSpaceOnUse" xlink:href="#linearGradient3690"/>
  <linearGradient id="linearGradient3690">
   <stop id="stop3692" offset="0" style="stop-color:#ffeb9f"/>
   <stop id="stop3694" offset=".262" style="stop-color:#ffd57e"/>
   <stop id="stop3696" offset=".661" style="stop-color:#ffbc43"/>
   <stop id="stop3698" offset="1" style="stop-color:#ff921a"/>
  </linearGradient>
  <linearGradient id="linearGradient4033" x1="20" x2="20" y1="31.174" y2="8" gradientTransform="translate(0,-0.99999964)" gradientUnits="userSpaceOnUse" xlink:href="#linearGradient3603"/>
  <linearGradient id="linearGradient3603">
   <stop id="stop3605" offset="0" style="stop-color:#a7651c"/>
   <stop id="stop3607" offset="1" style="stop-color:#c8a700"/>
  </linearGradient>
  <linearGradient id="linearGradient4647" x1="21.381" x2="21.381" y1="5.052" y2="44.137" gradientTransform="matrix(0.54285711,0,0,0.36842106,10.97143,25.473684)" gradientUnits="userSpaceOnUse" xlink:href="#linearGradient4649"/>
  <linearGradient id="linearGradient4649">
   <stop id="stop4652" offset="0" style="stop-color:#ffffff"/>
   <stop id="stop4654" offset=".185" style="stop-color:#ffffff;stop-opacity:0.23529412"/>
   <stop id="stop4656" offset=".88" style="stop-color:#ffffff;stop-opacity:0.15686275"/>
   <stop id="stop4658" offset="1" style="stop-color:#ffffff;stop-opacity:0.39215687"/>
  </linearGradient>
  <linearGradient id="linearGradient4190-0" x1="77.444" x2="77.444" y1="41.185" y2="30.155" gradientTransform="matrix(3.2000001,0,0,3.2000001,-179.08112,-134.09731)" gradientUnits="userSpaceOnUse" xlink:href="#linearGradient3188-6"/>
  <linearGradient id="linearGradient3188-6">
   <stop id="stop3190-6" offset="0" style="stop-color:#4d4d4d"/>
   <stop id="stop3192-6" offset="1" style="stop-color:#4d4d4d"/>
  </linearGradient>
  <radialGradient id="radialGradient4267" cx="28.925" cy="22.569" r="11.491" fx="28.925" fy="22.569" gradientTransform="matrix(1.1454014e-7,1.0911469,-3.5984978,3.7774237e-7,146.75381,-38.761306)" gradientUnits="userSpaceOnUse" xlink:href="#linearGradient4660"/>
  <linearGradient id="linearGradient4660">
   <stop id="stop4662" offset="0" style="stop-color:#5e5c64"/>
   <stop id="stop4664" offset="1" style="stop-color:#241f31"/>
  </linearGradient>
  <linearGradient id="linearGradient3421" x1="32.085" x2="32.085" y1="-14.402" y2="-5.563" gradientTransform="matrix(0.6655121,0,0,0.4518781,-54.615029,45.875214)" gradientUnits="userSpaceOnUse" xlink:href="#linearGradient47870"/>
  <linearGradient id="linearGradient47870">
   <stop id="stop47872" offset="0" style="stop-color:#000000;stop-opacity:0"/>
   <stop id="stop47878" offset=".5" style="stop-color:#000000"/>
   <stop id="stop47874" offset="1" style="stop-color:#000000;stop-opacity:0"/>
  </linearGradient>
  <radialGradient id="radialGradient3418" cx="51.438" cy="-12.203" r="2.172" fx="51.438" fy="-12.203" gradientTransform="matrix(1.8417267,-5.1455073e-7,6.2669991e-7,0.9200109,-115.2312,52.586443)" gradientUnits="userSpaceOnUse" xlink:href="#linearGradient51765"/>
  <linearGradient id="linearGradient51765">
   <stop id="stop51767" offset="0" style="stop-color:#000000"/>
   <stop id="stop51769" offset="1" style="stop-color:#000000;stop-opacity:0"/>
  </linearGradient>
  <radialGradient id="radialGradient4142" cx="51.438" cy="-12.203" r="2.172" fx="51.438" fy="-12.203" gradientTransform="matrix(-1.8417267,-5.8450938e-8,-1.2125708e-7,0.9200109,52.236437,52.586419)" gradientUnits="userSpaceOnUse" xlink:href="#linearGradient51765"/>
  <radialGradient id="radialGradient5244" cx="25" cy="12" r="7.5" fx="25" fy="12" gradientTransform="matrix(0,2.9755329,-1.5333334,0,50.911001,-73.192276)" gradientUnits="userSpaceOnUse" xlink:href="#linearGradient3690-9"/>
  <linearGradient id="linearGradient3690-9">
   <stop id="stop3692-0" offset="0" style="stop-color:#ffeb9f"/>
   <stop id="stop3694-0" offset=".262" style="stop-color:#ffd57e"/>
   <stop id="stop3696-74" offset=".661" style="stop-color:#ffbc43"/>
   <stop id="stop3698-1" offset="1" style="stop-color:#ff921a"/>
  </linearGradient>
  <radialGradient id="radialGradient5263" cx="25" cy="12" r="7.5" fx="25" fy="12" gradientTransform="matrix(0,2.9755329,-1.5333334,0,49.838001,-70.656095)" gradientUnits="userSpaceOnUse" xlink:href="#linearGradient3690-9-0"/>
  <linearGradient id="linearGradient3690-9-0">
   <stop id="stop3692-0-0" offset="0" style="stop-color:#ffeb9f"/>
   <stop id="stop3694-0-9" offset=".262" style="stop-color:#ffd57e"/>
   <stop id="stop3696-74-4" offset=".661" style="stop-color:#ffbc43"/>
   <stop id="stop3698-1-2" offset="1" style="stop-color:#ff921a"/>
  </linearGradient>
  <radialGradient id="radialGradient5303" cx="25" cy="12" r="7.5" fx="25" fy="12" gradientTransform="matrix(0,2.9755329,-1.5333334,0,43.400001,-67.388322)" gradientUnits="userSpaceOnUse" xlink:href="#linearGradient3690-9-0-4"/>
  <linearGradient id="linearGradient3690-9-0-4">
   <stop id="stop3692-0-0-8" offset="0" style="stop-color:#ffeb9f"/>
   <stop id="stop3694-0-9-4" offset=".262" style="stop-color:#ffd57e"/>
   <stop id="stop3696-74-4-3" offset=".661" style="stop-color:#ffbc43"/>
   <stop id="stop3698-1-2-4" offset="1" style="stop-color:#ff921a"/>
  </linearGradient>
  <linearGradient id="linearGradient7652-827">
   <stop id="stop3225" offset="0" style="stop-color:#5e5c64"/>
   <stop id="stop3227" offset="1" style="stop-color:#5e5c64;stop-opacity:0"/>
  </linearGradient>
  <linearGradient id="linearGradient7576-259">
   <stop id="stop3231" offset="0" style="stop-color:#3f3f3f"/>
   <stop id="stop3233" offset="1" style="stop-color:#6c6c6c;stop-opacity:0"/>
  </linearGradient>
  <linearGradient id="linearGradient5448" x1="37.625" x2="38.875" y1="40.313" y2="45.063" gradientTransform="matrix(-2.3059252,-0.19289566,0.19289566,-2.3059252,105.59662,57.135264)" gradientUnits="userSpaceOnUse" xlink:href="#linearGradient7652-827"/>
  <linearGradient id="linearGradient5450" x1="38.75" x2="40.125" y1="40.625" y2="46.563" gradientTransform="matrix(-0.72060161,-0.06027989,0.06027989,-0.72060161,36.517347,49.104769)" gradientUnits="userSpaceOnUse" xlink:href="#linearGradient7576-259"/>
  <linearGradient id="linearGradient3089" x1="27" x2="27" y1="9" y2="27" gradientTransform="translate(17.265545,-4.9993632)" gradientUnits="userSpaceOnUse" xlink:href="#linearGradient3642"/>
  <linearGradient id="linearGradient4358" x1="88" x2="488" y1="88" y2="488" gradientUnits="userSpaceOnUse" xlink:href="#linearGradient4360"/>
  <linearGradient id="linearGradient4360">
   <stop id="stop4362" offset="0" style="stop-color:#000000;stop-opacity:0.58823532"/>
   <stop id="stop4366" offset="1" style="stop-color:#000000;stop-opacity:0.20555556"/>
  </linearGradient>
  <filter style="color-interpolation-filters:sRGB" id="filter4380" width="1.106" height="1.088" x="-.05" y="-.04">
   <feGaussianBlur id="feGaussianBlur4382" stdDeviation="8.48"/>
  </filter>
  <filter style="color-interpolation-filters:sRGB" id="filter4346" width="1.026" height="1.022" x="-.01" y="-.01">
   <feGaussianBlur id="feGaussianBlur4348" stdDeviation="2.12"/>
  </filter>
  <radialGradient id="radialGradient9547-3-5" cx="21.333" cy="-36.857" r="8" gradientTransform="matrix(4.3601744,6.1362719e-7,5.1450058e-7,-3.723302,-166.50511,29.306745)" gradientUnits="userSpaceOnUse">
   <stop style="stop-color:#f0f0f0" id="stop20-6-6" offset="0"/>
   <stop style="stop-color:#a9a9a9" id="stop22-7-2" offset="1"/>
  </radialGradient>
  <linearGradient id="linearGradient7475" x1="20.405" x2="20.405" y1="6.988" y2="9.119" gradientTransform="matrix(3.5557558,0,0,-3.5486452,-148.63027,204.34513)" gradientUnits="userSpaceOnUse" xlink:href="#linearGradient3494"/>
  <linearGradient id="linearGradient3494">
   <stop style="stop-color:#282828;stop-opacity:.82353" id="stop26" offset="0"/>
   <stop style="stop-color:#282828;stop-opacity:0" id="stop28" offset="1"/>
  </linearGradient>
  <linearGradient id="linearGradient7469" x1="20.405" x2="20.405" y1="6.988" y2="9.119" gradientTransform="matrix(3.5557558,0,0,-3.5486452,-132.53128,204.34513)" gradientUnits="userSpaceOnUse" xlink:href="#linearGradient3494"/>
  <radialGradient id="radialGradient9547-3-5-0" cx="21.333" cy="-36.857" r="8" gradientTransform="matrix(4.3601744,6.1362719e-7,5.1450058e-7,-3.723302,-166.50511,29.306745)" gradientUnits="userSpaceOnUse">
   <stop style="stop-color:#f0f0f0" id="stop20-6-6-9" offset="0"/>
   <stop style="stop-color:#a9a9a9" id="stop22-7-2-3" offset="1"/>
  </radialGradient>
 </defs>
 <g id="layer1" transform="translate(0,208)">
  <path style="opacity:0.1;filter:url(#filter4346)" d="M 141.84323,74 C 71.24979,74 63.65402,81.250835 64,151.98706 V 298 444.01294 C 63.65402,514.74917 71.24979,522 141.84323,522 H 434.15677 C 504.75021,522 513.9371,514.72348 512,444.01294 V 298 151.98706 C 512,81.249993 504.75021,74 434.15677,74 Z" transform="matrix(0.5,0,0,0.5,-14.116488,-228.82553)"/>
  <path d="M 141.84323,74 C 71.24979,74 63.65402,81.250835 64,151.98706 V 298 444.01294 C 63.65402,514.74917 71.24979,522 141.84323,522 H 434.15677 C 504.75021,522 513.9371,514.72348 512,444.01294 V 298 151.98706 C 512,81.249993 504.75021,74 434.15677,74 Z" transform="matrix(0.5,0,0,0.5,-14.116488,-228.82523)" style="opacity:0.3;fill:url(#linearGradient4358);filter:url(#filter4380)"/>
  <path style="opacity:0.1" d="m 55.695112,-194.82553 c -36.09881,0 -39.983002,3.69016 -39.80608,39.68984 v 74.310155 74.3101591 C 15.71211,29.484314 19.596302,33.174464 55.695112,33.174464 H 204.08243 c 36.09881,0 40.77464,-3.70276 39.80608,-39.6898399 V -80.825535 -155.13569 c 0,-36.00011 -3.70727,-39.68984 -39.80608,-39.68984 z"/>
  <path style="fill:#fdc92b" d="m 202.95648,-193.03594 c 35.29673,0 39.09461,3.62542 38.92162,38.99353 v 73.006462 73.0064796 C 242.05109,27.338651 238.25321,30.964061 202.95648,30.964061 H 56.79973 c -35.29671,0 -38.921609,-3.625 -38.921609,-38.9935294 V -81.035948 -154.04241 c 0,-35.36853 3.624899,-38.99353 38.921609,-38.99353 z"/>
  <path style="opacity:0.2" d="m 56.810792,31.174464 c -35.296731,0 -39.094874,-3.62603 -38.921884,-38.9941399 v -2 C 17.715918,25.548434 21.514061,29.174464 56.810792,29.174464 H 202.96703 c 35.29673,0 38.92188,-3.62561 38.92188,-38.9941399 v 2 c 0,35.3685299 -3.62515,38.9941399 -38.92188,38.9941399 z"/>
  <g transform="translate(-0.61317364,0.91976046)">
   <g transform="translate(494.41725,-148.57524)">
    <g style="enable-background:new" transform="matrix(1.5034754,0,0,1.3207748,-586.01463,-157.80078)">
     <g transform="translate(261.98143,14.645257)">
      <path style="fill:url(#radialGradient9547-3-5-0)" d="m -86.729402,186.84687 h 37.21731 c 0.83944,0 1.51523,-0.68198 1.51523,-1.52912 V 147.7582 c 0,-0.84714 -0.67579,-1.52916 -1.51523,-1.52916 h -37.21731 c -0.83944,0 -1.51522,0.68202 -1.51522,1.52916 v 37.55955 c 0,0.84714 0.67578,1.52912 1.51522,1.52912 z"/>
      <path style="fill:#f87f11" d="m -39.863812,88.271082 c -0.102137,-1.49582 -0.17697,-3.077504 -0.35984,-4.329845 -0.285864,-1.957638 -0.680929,-3.629841 -1.221131,-5.05888 -0.2701,-0.714518 -0.576903,-1.367744 -0.923639,-1.965288 -0.346737,-0.597543 -0.734492,-1.140401 -1.166571,-1.631086 -0.432072,-0.490684 -0.908063,-0.929559 -1.434177,-1.3235 -0.526108,-0.393942 -1.101515,-0.742613 -1.730364,-1.049928 -1.2577,-0.614631 -2.729769,-1.065659 -4.450628,-1.394483 -1.720853,-0.328823 -3.690935,-0.535586 -5.944561,-0.659532 -2.253618,-0.123946 -4.790354,-0.165623 -7.646343,-0.165623 h -27.457217 c -2.243109,0.16461 -4.012836,1.782047 -4.012836,3.827063 v 73.81587 c 0,2.1549 1.944142,3.89065 4.359686,3.89065 h 47.626632 c 2.415536,0 4.360989,-1.73575 4.360989,-3.89065 z"/>
      <path style="opacity:0.88172003;fill:url(#linearGradient7475)" d="m -80.302402,178.83166 h 8.2642 v -8.34021 h -8.2642 z"/>
      <path style="opacity:0.88172003;fill:url(#linearGradient7469)" d="m -64.203262,178.83166 h 8.2642 v -8.34021 h -8.2642 z"/>
      <path style="opacity:0.2" d="m -96.211122,146.82158 v 1.51427 c 0,2.1549 1.944148,3.89065 4.359692,3.89065 h 47.626632 c 2.415536,0 4.360989,-1.73575 4.360989,-3.89065 v -1.51427 c 0,2.15491 -1.945453,3.89066 -4.360989,3.89066 H -91.85143 c -2.415544,0 -4.359692,-1.73575 -4.359692,-3.89066 z"/>
     </g>
    </g>
   </g>
   <path style="fill:#ff001d;fill-opacity:0.95714285;fill-rule:evenodd" d="m 163.16589,-137.52829 a 29.145846,29.41703 0 0 1 -12.63567,39.599022 29.145846,29.41703 0 0 1 -39.23396,-12.753362 29.145846,29.41703 0 0 1 12.6357,-39.59897 29.145846,29.41703 0 0 1 39.23393,12.75331 z"/>
   <path style="fill:#199cb8;fill-rule:evenodd" d="m 122.40963,-117.0254 a 28.467882,29.281441 0 0 1 -12.34177,39.41641 28.467882,29.281441 0 0 1 -38.321296,-12.694528 28.467882,29.281441 0 0 1 12.341787,-39.416412 28.467882,29.281441 0 0 1 38.321279,12.69453 z"/>
   <path style="fill:#89267e;fill-rule:evenodd" d="m 79.510914,-95.521378 a 28.603477,28.603477 0 0 1 -12.40056,38.503778 28.603477,28.603477 0 0 1 -38.5038,-12.40054 28.603477,28.603477 0 0 1 12.40056,-38.50379 28.603477,28.603477 0 0 1 38.5038,12.400552 z"/>
   <path style="fill:#ffffff;fill-rule:evenodd;stroke:#89267e;stroke-width:1.20324051" d="m 233.0488,-175.0519 a 27.68419,28.798563 0 0 1 -12.00203,38.76639 27.68419,28.798563 0 0 1 -37.26634,-12.48514 27.68419,28.798563 0 0 1 12.00201,-38.76643 27.68419,28.798563 0 0 1 37.26636,12.48518 z"/>
   <path style="fill:#9be01f;fill-rule:evenodd" d="m 197.52829,-155.63134 a 28.46788,28.603472 0 0 1 -12.34178,38.50387 28.46788,28.603472 0 0 1 -38.32128,-12.40056 28.46788,28.603472 0 0 1 12.34176,-38.50391 28.46788,28.603472 0 0 1 38.3213,12.4006 z"/>
   <path d="m 28.533894,-92.434818 9.22435,-4.70427 20.32963,23.303708 -4.86175,-31.40229 7.59794,-3.61812 18.75951,36.35263 -4.61778,2.36796 -15.7583,-30.73053 6.53814,35.41048 -4.48724,3.25363 -24.85857,-26.968578 15.7583,30.730528 -4.59433,2.35593 z" style="fill:#ffffff"/>
   <path style="fill:#ffffff" d="m 79.764574,-111.52092 3.977217,-2.44003 9.72441,20.265762 q 2.57314,5.36249 5.41414,6.68519 2.830269,1.30036 6.650749,-1.04351 3.80089,-2.33185 4.37965,-5.72365 0.56805,-3.41416 -2.00511,-8.776652 l -9.724409,-20.26575 3.977209,-2.44003 9.99243,20.82434 q 3.13068,6.524362 1.88734,11.596482 -1.22377,5.06007 -6.74876,8.44966 -5.5446,3.401608 -9.982959,1.815268 -4.41879,-1.598388 -7.54946,-8.122748 z"/>
   <g style="fill:#ffffff;enable-background:new" transform="matrix(3.8078482,-2.150644,1.9526257,4.1940071,-33.011005,-1323.4807)">
    <path d="m -82.710245,239.58819 h 1.155062 v 7.56508 l 3.439539,0.14934 0.05639,1.00099 -4.650991,-0.17825 z"/>
   </g>
   <g style="fill:#ffffff;enable-background:new" transform="matrix(3.7628203,-2.0380476,2.0380476,3.7628203,-61.98497,-1202.2497)">
    <path d="m -72.246835,239.31317 5.316777,0.31855 -0.0517,1.32626 -1.968206,-0.0679 -0.271093,7.65396 -1.643447,0.0443 0.37532,-7.77584 -1.911982,-0.10118 z"/>
   </g>
   <g style="enable-background:new" transform="matrix(4.2272854,-1.9404338,2.0077389,4.0989458,-27.757835,-1277.4471)">
    <path d="m -60.296259,239.58819 h 1.155062 v 8.53716 h -1.155062 z"/>
   </g>
   <g id="text898-3" transform="matrix(1.024311,0,0,1.1751448,244.45537,-188.49044)" style="font-weight:bold;font-size:45.15805817px;line-height:1.25;letter-spacing:0px;word-spacing:0px;fill:#494949;enable-background:new">
    <path d="m -185.93941,145.38849 v 6.96775 q -2.71213,-1.21274 -5.29196,-1.83014 -2.57983,-0.61739 -4.87301,-0.61739 -3.04288,0 -4.49817,0.83789 -1.45529,0.8379 -1.45529,2.60188 0,1.32299 0.9702,2.07269 0.99224,0.72764 3.57207,1.25684 l 3.61617,0.72764 q 5.49041,1.10249 7.80564,3.35158 2.31524,2.24908 2.31524,6.39445 0,5.44631 -3.24133,8.11434 -3.21927,2.64598 -9.85627,2.64598 -3.13108,0 -6.28421,-0.59535 -3.15312,-0.59534 -6.30625,-1.76398 v -7.1662 q 3.15313,1.67579 6.08575,2.53573 2.95468,0.83789 5.68886,0.83789 2.77828,0 4.25562,-0.92609 1.47734,-0.92609 1.47734,-2.64598 0,-1.54349 -1.01429,-2.38138 -0.99225,-0.83789 -3.99102,-1.49939 l -3.28543,-0.72764 q -4.93916,-1.0584 -7.23234,-3.37363 -2.27114,-2.31523 -2.27114,-6.2401 0,-4.91711 3.17518,-7.56309 3.17517,-2.64598 9.12863,-2.64598 2.71213,0 5.57861,0.41894 2.86648,0.3969 5.9314,1.21274 z" style="fill:#494949"/>
    <path d="m -180.88999,144.35215 h 9.28298 l 7.49694,11.73051 7.49694,-11.73051 h 9.30503 l -12.54635,19.05106 v 13.86934 h -8.48919 v -13.86934 z" style="fill:#494949"/>
    <path d="m -120.67191,145.38849 v 6.96775 q -2.71213,-1.21274 -5.29196,-1.83014 -2.57983,-0.61739 -4.87301,-0.61739 -3.04288,0 -4.49816,0.83789 -1.45529,0.8379 -1.45529,2.60188 0,1.32299 0.97019,2.07269 0.99224,0.72764 3.57207,1.25684 l 3.61617,0.72764 q 5.49041,1.10249 7.80565,3.35158 2.31523,2.24908 2.31523,6.39445 0,5.44631 -3.24133,8.11434 -3.21927,2.64598 -9.85627,2.64598 -3.13108,0 -6.28421,-0.59535 -3.15312,-0.59534 -6.30625,-1.76398 v -7.1662 q 3.15313,1.67579 6.08576,2.53573 2.95467,0.83789 5.68885,0.83789 2.77828,0 4.25562,-0.92609 1.47734,-0.92609 1.47734,-2.64598 0,-1.54349 -1.01429,-2.38138 -0.99224,-0.83789 -3.99102,-1.49939 l -3.28543,-0.72764 q -4.93916,-1.0584 -7.23234,-3.37363 -2.27114,-2.31523 -2.27114,-6.2401 0,-4.91711 3.17518,-7.56309 3.17518,-2.64598 9.12863,-2.64598 2.71213,0 5.57861,0.41894 2.86648,0.3969 5.9314,1.21274 z" style="fill:#494949"/>
    <path d="m -114.96099,144.35215 h 30.340571 v 6.4165 h -10.914668 v 26.5039 h -8.489183 v -26.5039 h -10.93672 z" style="fill:#494949"/>
    <path d="m -80.254549,144.35215 h 22.909777 v 6.4165 h -14.420591 v 6.12986 h 13.560647 v 6.4165 h -13.560647 v 7.54104 h 14.905687 v 6.4165 h -23.394873 z" style="fill:#494949"/>
    <path d="m -49.384798,144.35215 h 10.804418 l 7.496943,17.61782 7.541043,-17.61782 h 10.782369 v 32.9204 h -8.026139 v -24.07842 l -7.585143,17.75012 h -5.380159 l -7.585143,-17.75012 v 24.07842 h -8.048189 z" style="fill:#494949"/>
   </g>
  </g>
  <path style="opacity:0.3;fill:#ffffff" d="m 56.805392,-192.82553 c -35.296728,0 -39.094869,3.62603 -38.921879,38.99414 v 2 c -0.17299,-35.36811 3.625151,-38.99414 38.921879,-38.99414 H 202.96163 c 35.29673,0 38.92188,3.62561 38.92188,38.99414 v -2 c 0,-35.36853 -3.62515,-38.99414 -38.92188,-38.99414 z"/>
 </g>
</svg>
