<svg xmlns="http://www.w3.org/2000/svg" xmlns:xlink="http://www.w3.org/1999/xlink" width="256" height="256" version="1.1" viewBox="0 0 67.73 67.73">
 <defs>
  <clipPath id="clipPath1025" clipPathUnits="userSpaceOnUse">
   <path d="M 111.94141,84 C 99.359506,84.145 90.1531,83.713998 82.625,87.867188 c -3.7641,2.0768 -6.751838,5.574737 -8.398438,9.960937 C 72.580062,102.21433 72,107.4241 72,114 v 42 h 160 v -26 c 0,-6.5759 -0.57996,-11.78566 -2.22656,-16.17188 -0.205,-0.5455 -0.47919,-1.03993 -0.74219,-1.54296 -0.1,-0.1848 -0.17844,-0.38051 -0.27344,-0.56641 -1.727,-3.38752 -4.25471,-6.14522 -7.38281,-7.87109 C 213.8463,99.694146 204.64049,100.1454 192.05859,100 H 192 151.66797 L 135.45312,84 h -23.49218 z" style="fill:#e3dfd5"/>
  </clipPath>
  <clipPath id="clipPath1082-3" clipPathUnits="userSpaceOnUse">
   <path d="M 361.9375,-212 C 507.2348,-212 528,-191.28677 528,-46.125 V 70.125 C 528,215.28618 507.2348,236 361.9375,236 H 214.0625 C 68.7652,236 48,215.28618 48,70.125 V -46.125 C 48,-191.28677 68.7652,-212 214.0625,-212 Z" style="fill:#8c59d9"/>
  </clipPath>
  <clipPath id="clipPath1082-3-5" clipPathUnits="userSpaceOnUse">
   <path d="M 361.9375,-212 C 507.2348,-212 528,-191.28677 528,-46.125 V 70.125 C 528,215.28618 507.2348,236 361.9375,236 H 214.0625 C 68.7652,236 48,215.28618 48,70.125 V -46.125 C 48,-191.28677 68.7652,-212 214.0625,-212 Z" style="fill:#8c59d9"/>
  </clipPath>
  <clipPath id="clipPath1082-3-9" clipPathUnits="userSpaceOnUse">
   <path d="M 361.9375,-212 C 507.2348,-212 528,-191.28677 528,-46.125 V 70.125 C 528,215.28618 507.2348,236 361.9375,236 H 214.0625 C 68.7652,236 48,215.28618 48,70.125 V -46.125 C 48,-191.28677 68.7652,-212 214.0625,-212 Z" style="fill:#8c59d9"/>
  </clipPath>
  <clipPath id="clipPath1082-3-3" clipPathUnits="userSpaceOnUse">
   <path d="M 361.9375,-212 C 507.2348,-212 528,-191.28677 528,-46.125 V 70.125 C 528,215.28618 507.2348,236 361.9375,236 H 214.0625 C 68.7652,236 48,215.28618 48,70.125 V -46.125 C 48,-191.28677 68.7652,-212 214.0625,-212 Z" style="fill:#8c59d9"/>
  </clipPath>
  <clipPath id="clipPath1082-3-53" clipPathUnits="userSpaceOnUse">
   <path d="M 361.9375,-212 C 507.2348,-212 528,-191.28677 528,-46.125 V 70.125 C 528,215.28618 507.2348,236 361.9375,236 H 214.0625 C 68.7652,236 48,215.28618 48,70.125 V -46.125 C 48,-191.28677 68.7652,-212 214.0625,-212 Z" style="fill:#8c59d9"/>
  </clipPath>
  <clipPath id="clipPath1082-3-6" clipPathUnits="userSpaceOnUse">
   <path d="M 361.9375,-212 C 507.2348,-212 528,-191.28677 528,-46.125 V 70.125 C 528,215.28618 507.2348,236 361.9375,236 H 214.0625 C 68.7652,236 48,215.28618 48,70.125 V -46.125 C 48,-191.28677 68.7652,-212 214.0625,-212 Z" style="fill:#8c59d9"/>
  </clipPath>
  <clipPath id="clipPath1082-3-91" clipPathUnits="userSpaceOnUse">
   <path d="M 361.9375,-212 C 507.2348,-212 528,-191.28677 528,-46.125 V 70.125 C 528,215.28618 507.2348,236 361.9375,236 H 214.0625 C 68.7652,236 48,215.28618 48,70.125 V -46.125 C 48,-191.28677 68.7652,-212 214.0625,-212 Z" style="fill:#8c59d9"/>
  </clipPath>
  <clipPath id="clipPath1025-0" clipPathUnits="userSpaceOnUse">
   <path style="fill:#8c59d9" d="M 329.9375,32 C 475.2348,32 496,52.71323 496,197.875 v 116.25 C 496,459.28618 475.2348,480 329.9375,480 H 182.0625 C 36.7652,480 16,459.28618 16,314.125 V 197.875 C 16,52.71323 36.7652,32 182.0625,32 Z"/>
  </clipPath>
  <clipPath id="clipPath4277-8" clipPathUnits="userSpaceOnUse">
   <rect style="opacity:0.81999972;fill:#88b637" width="512" height="512" x="0" y="0" ry="1"/>
  </clipPath>
  <linearGradient id="linearGradient3650-7-9">
   <stop style="stop-color:#5884f4" id="stop4366" offset="0"/>
   <stop id="stop4368" offset="1" style="stop-color:#80a3fa"/>
  </linearGradient>
  <clipPath id="clipPath1082-3-36" clipPathUnits="userSpaceOnUse">
   <path d="M 361.9375,-212 C 507.2348,-212 528,-191.28677 528,-46.125 V 70.125 C 528,215.28618 507.2348,236 361.9375,236 H 214.0625 C 68.7652,236 48,215.28618 48,70.125 V -46.125 C 48,-191.28677 68.7652,-212 214.0625,-212 Z" style="fill:#8c59d9"/>
  </clipPath>
  <clipPath id="clipPath983" clipPathUnits="userSpaceOnUse">
   <path d="M 115.03125,44 C 42.3826,44 32,54.356615 32,126.9375 v 58.125 C 32,257.64309 42.3826,268 115.03125,268 H 152 V 44 Z" style="fill:#4d4d4d"/>
  </clipPath>
  <clipPath id="clipPath1082-3-62" clipPathUnits="userSpaceOnUse">
   <path d="M 361.9375,-212 C 507.2348,-212 528,-191.28677 528,-46.125 V 70.125 C 528,215.28618 507.2348,236 361.9375,236 H 214.0625 C 68.7652,236 48,215.28618 48,70.125 V -46.125 C 48,-191.28677 68.7652,-212 214.0625,-212 Z" style="fill:#8c59d9"/>
  </clipPath>
  <clipPath id="clipPath949" clipPathUnits="userSpaceOnUse">
   <path d="M 329.9375,32 C 475.2348,32 496,52.71323 496,197.875 v 116.25 C 496,459.28618 475.2348,480 329.9375,480 H 182.0625 C 36.7652,480 16,459.28618 16,314.125 V 197.875 C 16,52.71323 36.7652,32 182.0625,32 Z" style="fill:#eab305"/>
  </clipPath>
  <clipPath id="clipPath954" clipPathUnits="userSpaceOnUse">
   <path d="M 329.9375,32 C 475.2348,32 496,52.71323 496,197.875 v 116.25 C 496,459.28618 475.2348,480 329.9375,480 H 182.0625 C 36.7652,480 16,459.28618 16,314.125 V 197.875 C 16,52.71323 36.7652,32 182.0625,32 Z" style="fill:#eab305"/>
  </clipPath>
  <clipPath id="clipPath1082-3-8" clipPathUnits="userSpaceOnUse">
   <path d="M 361.9375,-212 C 507.2348,-212 528,-191.28677 528,-46.125 V 70.125 C 528,215.28618 507.2348,236 361.9375,236 H 214.0625 C 68.7652,236 48,215.28618 48,70.125 V -46.125 C 48,-191.28677 68.7652,-212 214.0625,-212 Z" style="fill:#8c59d9"/>
  </clipPath>
  <clipPath id="clipPath1082-3-92" clipPathUnits="userSpaceOnUse">
   <path d="M 361.9375,-212 C 507.2348,-212 528,-191.28677 528,-46.125 V 70.125 C 528,215.28618 507.2348,236 361.9375,236 H 214.0625 C 68.7652,236 48,215.28618 48,70.125 V -46.125 C 48,-191.28677 68.7652,-212 214.0625,-212 Z" style="fill:#8c59d9"/>
  </clipPath>
  <clipPath id="clipPath1082" clipPathUnits="userSpaceOnUse">
   <path d="M 361.9375,-212 C 507.2348,-212 528,-191.28677 528,-46.125 V 70.125 C 528,215.28618 507.2348,236 361.9375,236 H 214.0625 C 68.7652,236 48,215.28618 48,70.125 V -46.125 C 48,-191.28677 68.7652,-212 214.0625,-212 Z" style="fill:#8c59d9"/>
  </clipPath>
  <clipPath id="clipPath1082-3-361" clipPathUnits="userSpaceOnUse">
   <path d="M 361.9375,-212 C 507.2348,-212 528,-191.28677 528,-46.125 V 70.125 C 528,215.28618 507.2348,236 361.9375,236 H 214.0625 C 68.7652,236 48,215.28618 48,70.125 V -46.125 C 48,-191.28677 68.7652,-212 214.0625,-212 Z" style="fill:#8c59d9"/>
  </clipPath>
  <clipPath id="clipPath1079" clipPathUnits="userSpaceOnUse">
   <circle style="fill:url(#linearGradient1083)" cx="213.843" cy="146" r="55" transform="scale(-1,1)"/>
  </clipPath>
  <clipPath id="clipPath984" clipPathUnits="userSpaceOnUse">
   <circle style="fill:url(#linearGradient1083)" cx="213.843" cy="146" r="55" transform="scale(-1,1)"/>
  </clipPath>
  <clipPath id="clipPath988" clipPathUnits="userSpaceOnUse">
   <circle style="fill:url(#linearGradient1083)" cx="213.843" cy="146" r="55" transform="scale(-1,1)"/>
  </clipPath>
  <clipPath id="clipPath992" clipPathUnits="userSpaceOnUse">
   <circle style="fill:url(#linearGradient1083)" cx="213.843" cy="146" r="55" transform="scale(-1,1)"/>
  </clipPath>
  <clipPath id="clipPath1082-3-31" clipPathUnits="userSpaceOnUse">
   <path d="M 361.9375,-212 C 507.2348,-212 528,-191.28677 528,-46.125 V 70.125 C 528,215.28618 507.2348,236 361.9375,236 H 214.0625 C 68.7652,236 48,215.28618 48,70.125 V -46.125 C 48,-191.28677 68.7652,-212 214.0625,-212 Z" style="fill:#8c59d9"/>
  </clipPath>
  <clipPath id="clipPath1205" clipPathUnits="userSpaceOnUse">
   <path d="M 115.03125,44 C 42.3826,44 32,54.356615 32,126.9375 v 58.125 c 0,13.772 0.379014,25.29352 1.482422,34.9375 H 270.51758 C 271.62099,210.35602 272,198.8345 272,185.0625 v -58.125 C 272,54.356615 261.6174,44 188.96875,44 Z" style="fill:#f1f0e9"/>
  </clipPath>
  <clipPath id="clipPath1082-3-4" clipPathUnits="userSpaceOnUse">
   <path d="M 361.9375,-212 C 507.2348,-212 528,-191.28677 528,-46.125 V 70.125 C 528,215.28618 507.2348,236 361.9375,236 H 214.0625 C 68.7652,236 48,215.28618 48,70.125 V -46.125 C 48,-191.28677 68.7652,-212 214.0625,-212 Z" style="fill:#8c59d9"/>
  </clipPath>
  <clipPath id="clipPath1082-3-45" clipPathUnits="userSpaceOnUse">
   <path d="M 361.9375,-212 C 507.2348,-212 528,-191.28677 528,-46.125 V 70.125 C 528,215.28618 507.2348,236 361.9375,236 H 214.0625 C 68.7652,236 48,215.28618 48,70.125 V -46.125 C 48,-191.28677 68.7652,-212 214.0625,-212 Z" style="fill:#8c59d9"/>
  </clipPath>
  <clipPath id="clipPath1082-3-61" clipPathUnits="userSpaceOnUse">
   <path d="M 361.9375,-212 C 507.2348,-212 528,-191.28677 528,-46.125 V 70.125 C 528,215.28618 507.2348,236 361.9375,236 H 214.0625 C 68.7652,236 48,215.28618 48,70.125 V -46.125 C 48,-191.28677 68.7652,-212 214.0625,-212 Z" style="fill:#8c59d9"/>
  </clipPath>
  <clipPath id="clipPath1064" clipPathUnits="userSpaceOnUse">
   <path style="fill:#a3dbf0" d="M 115.03125,44 C 42.3826,44 32,54.356615 32,126.9375 v 58.125 c 0,10.16582 0.217657,19.07051 0.767578,26.9375 3.376331,48.30069 19.790377,56 82.263672,56 h 73.9375 c 62.4733,0 78.88734,-7.69931 82.26367,-56 C 271.78234,204.13301 272,195.22832 272,185.0625 v -58.125 C 272,54.356615 261.6174,44 188.96875,44 Z"/>
  </clipPath>
  <clipPath id="clipPath1082-3-32" clipPathUnits="userSpaceOnUse">
   <path d="M 361.9375,-212 C 507.2348,-212 528,-191.28677 528,-46.125 V 70.125 C 528,215.28618 507.2348,236 361.9375,236 H 214.0625 C 68.7652,236 48,215.28618 48,70.125 V -46.125 C 48,-191.28677 68.7652,-212 214.0625,-212 Z" style="fill:#8c59d9"/>
  </clipPath>
  <clipPath id="clipPath947" clipPathUnits="userSpaceOnUse">
   <path d="m 191.43333,45.066672 c 77.49189,0 88.56666,11.047056 88.56666,88.466668 v 62 C 279.99999,272.95263 268.92522,284 191.43333,284 H 112.56666 C 35.074773,284 23.999999,272.95263 23.999999,195.53334 v -62 c 0,-77.419612 11.074774,-88.466668 88.566661,-88.466668 z" style="fill:#a4c1f9"/>
  </clipPath>
  <clipPath id="clipPath1082-3-55" clipPathUnits="userSpaceOnUse">
   <path d="M 361.9375,-212 C 507.2348,-212 528,-191.28677 528,-46.125 V 70.125 C 528,215.28618 507.2348,236 361.9375,236 H 214.0625 C 68.7652,236 48,215.28618 48,70.125 V -46.125 C 48,-191.28677 68.7652,-212 214.0625,-212 Z" style="fill:#8c59d9"/>
  </clipPath>
  <clipPath id="clipPath991" clipPathUnits="userSpaceOnUse">
   <path d="M 188.96875,44 C 261.6174,44 272,54.356615 272,126.9375 v 58.125 C 272,257.64309 261.6174,268 188.96875,268 h -73.9375 C 42.3826,268 32,257.64309 32,185.0625 v -58.125 C 32,54.356615 42.3826,44 115.03125,44 Z" style="fill:#6dc7f1"/>
  </clipPath>
  <clipPath id="clipPath978" clipPathUnits="userSpaceOnUse">
   <path d="M 188.96875,44 C 261.6174,44 272,54.356615 272,126.9375 v 58.125 C 272,257.64309 261.6174,268 188.96875,268 h -73.9375 C 42.3826,268 32,257.64309 32,185.0625 v -58.125 C 32,54.356615 42.3826,44 115.03125,44 Z" style="fill:#6dc7f1"/>
  </clipPath>
  <clipPath id="clipPath942" clipPathUnits="userSpaceOnUse">
   <path d="M 188.96875,44 C 261.6174,44 272,54.356615 272,126.9375 v 58.125 C 272,257.64309 261.6174,268 188.96875,268 h -73.9375 C 42.3826,268 32,257.64309 32,185.0625 v -58.125 C 32,54.356615 42.3826,44 115.03125,44 Z" style="fill:#46a926"/>
  </clipPath>
  <clipPath id="clipPath1082-3-7" clipPathUnits="userSpaceOnUse">
   <path d="M 361.9375,-212 C 507.2348,-212 528,-191.28677 528,-46.125 V 70.125 C 528,215.28618 507.2348,236 361.9375,236 H 214.0625 C 68.7652,236 48,215.28618 48,70.125 V -46.125 C 48,-191.28677 68.7652,-212 214.0625,-212 Z" style="fill:#8c59d9"/>
  </clipPath>
  <radialGradient id="radialGradient3322" cx="26.617" cy="-2.065" r="23" gradientTransform="matrix(-4.8906e-8,-2.8515,3.7557,0,674.00149,398.26285)" gradientUnits="userSpaceOnUse">
   <stop id="stop2749" offset="0" style="stop-color:#d280b9"/>
   <stop style="stop-color:#b549b5" id="stop4269" offset=".529"/>
   <stop id="stop2755" offset="1" style="stop-color:#8940a8"/>
  </radialGradient>
  <clipPath id="clipPath1082-3-69" clipPathUnits="userSpaceOnUse">
   <path d="M 361.9375,-212 C 507.2348,-212 528,-191.28677 528,-46.125 V 70.125 C 528,215.28618 507.2348,236 361.9375,236 H 214.0625 C 68.7652,236 48,215.28618 48,70.125 V -46.125 C 48,-191.28677 68.7652,-212 214.0625,-212 Z" style="fill:#8c59d9"/>
  </clipPath>
  <clipPath id="clipPath1082-3-452" clipPathUnits="userSpaceOnUse">
   <path d="M 361.9375,-212 C 507.2348,-212 528,-191.28677 528,-46.125 V 70.125 C 528,215.28618 507.2348,236 361.9375,236 H 214.0625 C 68.7652,236 48,215.28618 48,70.125 V -46.125 C 48,-191.28677 68.7652,-212 214.0625,-212 Z" style="fill:#8c59d9"/>
  </clipPath>
  <clipPath id="clipPath1082-3-74" clipPathUnits="userSpaceOnUse">
   <path d="M 361.9375,-212 C 507.2348,-212 528,-191.28677 528,-46.125 V 70.125 C 528,215.28618 507.2348,236 361.9375,236 H 214.0625 C 68.7652,236 48,215.28618 48,70.125 V -46.125 C 48,-191.28677 68.7652,-212 214.0625,-212 Z" style="fill:#8c59d9"/>
  </clipPath>
  <clipPath id="clipPath1032" clipPathUnits="userSpaceOnUse">
   <path d="M 188.96875,44 C 261.6174,44 272,54.356615 272,126.9375 v 58.125 C 272,257.64309 261.6174,268 188.96875,268 h -73.9375 C 42.3826,268 32,257.64309 32,185.0625 v -58.125 C 32,54.356615 42.3826,44 115.03125,44 Z" style="fill:#76c22b"/>
  </clipPath>
  <clipPath id="clipPath1082-3-0" clipPathUnits="userSpaceOnUse">
   <path d="M 361.9375,-212 C 507.2348,-212 528,-191.28677 528,-46.125 V 70.125 C 528,215.28618 507.2348,236 361.9375,236 H 214.0625 C 68.7652,236 48,215.28618 48,70.125 V -46.125 C 48,-191.28677 68.7652,-212 214.0625,-212 Z" style="fill:#8c59d9"/>
  </clipPath>
  <clipPath id="clipPath1082-3-89" clipPathUnits="userSpaceOnUse">
   <path d="M 361.9375,-212 C 507.2348,-212 528,-191.28677 528,-46.125 V 70.125 C 528,215.28618 507.2348,236 361.9375,236 H 214.0625 C 68.7652,236 48,215.28618 48,70.125 V -46.125 C 48,-191.28677 68.7652,-212 214.0625,-212 Z" style="fill:#8c59d9"/>
  </clipPath>
  <clipPath id="clipPath951" clipPathUnits="userSpaceOnUse">
   <path style="fill:#8c59d9" d="M 188.96875,44 C 261.6174,44 272,54.356615 272,126.9375 v 58.125 C 272,257.64309 261.6174,268 188.96875,268 h -73.9375 C 42.3826,268 32,257.64309 32,185.0625 v -58.125 C 32,54.356615 42.3826,44 115.03125,44 Z"/>
  </clipPath>
  <clipPath id="clipPath1082-3-64" clipPathUnits="userSpaceOnUse">
   <path d="M 361.9375,-212 C 507.2348,-212 528,-191.28677 528,-46.125 V 70.125 C 528,215.28618 507.2348,236 361.9375,236 H 214.0625 C 68.7652,236 48,215.28618 48,70.125 V -46.125 C 48,-191.28677 68.7652,-212 214.0625,-212 Z" style="fill:#8c59d9"/>
  </clipPath>
  <clipPath id="clipPath1082-3-04" clipPathUnits="userSpaceOnUse">
   <path d="M 361.9375,-212 C 507.2348,-212 528,-191.28677 528,-46.125 V 70.125 C 528,215.28618 507.2348,236 361.9375,236 H 214.0625 C 68.7652,236 48,215.28618 48,70.125 V -46.125 C 48,-191.28677 68.7652,-212 214.0625,-212 Z" style="fill:#8c59d9"/>
  </clipPath>
  <clipPath id="clipPath1082-3-1" clipPathUnits="userSpaceOnUse">
   <path d="M 361.9375,-212 C 507.2348,-212 528,-191.28677 528,-46.125 V 70.125 C 528,215.28618 507.2348,236 361.9375,236 H 214.0625 C 68.7652,236 48,215.28618 48,70.125 V -46.125 C 48,-191.28677 68.7652,-212 214.0625,-212 Z" style="fill:#8c59d9"/>
  </clipPath>
  <clipPath id="clipPath936" clipPathUnits="userSpaceOnUse">
   <path d="M 329.9375,16 C 475.2348,16 496,36.71323 496,181.875 v 116.25 C 496,443.28618 475.2348,464 329.9375,464 H 182.0625 C 36.7652,464 16,443.28618 16,298.125 V 181.875 C 16,36.71323 36.7652,16 182.0625,16 Z" style="fill:#438ae9"/>
  </clipPath>
  <clipPath id="clipPath989" clipPathUnits="userSpaceOnUse">
   <path d="M 115.03124,43.99999 C 42.382604,44 32.000014,54.35661 32.000004,126.9375 v 58.12499 c 0,72.5806 10.38261,82.9375 83.031236,82.9375 h 73.93752 C 261.6174,267.99999 272,257.64307 272,185.06249 V 126.9375 C 272,54.35661 261.6174,44 188.96875,44 Z" style="fill:url(#linearGradient993)"/>
  </clipPath>
  <clipPath id="clipPath1082-3-72" clipPathUnits="userSpaceOnUse">
   <path d="M 361.9375,-212 C 507.2348,-212 528,-191.28677 528,-46.125 V 70.125 C 528,215.28618 507.2348,236 361.9375,236 H 214.0625 C 68.7652,236 48,215.28618 48,70.125 V -46.125 C 48,-191.28677 68.7652,-212 214.0625,-212 Z" style="fill:#8c59d9"/>
  </clipPath>
  <clipPath id="clipPath1082-3-06" clipPathUnits="userSpaceOnUse">
   <path d="M 361.9375,-212 C 507.2348,-212 528,-191.28677 528,-46.125 V 70.125 C 528,215.28618 507.2348,236 361.9375,236 H 214.0625 C 68.7652,236 48,215.28618 48,70.125 V -46.125 C 48,-191.28677 68.7652,-212 214.0625,-212 Z" style="fill:#8c59d9"/>
  </clipPath>
  <clipPath id="clipPath1082-3-59" clipPathUnits="userSpaceOnUse">
   <path d="M 361.9375,-212 C 507.2348,-212 528,-191.28677 528,-46.125 V 70.125 C 528,215.28618 507.2348,236 361.9375,236 H 214.0625 C 68.7652,236 48,215.28618 48,70.125 V -46.125 C 48,-191.28677 68.7652,-212 214.0625,-212 Z" style="fill:#8c59d9"/>
  </clipPath>
  <clipPath id="clipPath1221" clipPathUnits="userSpaceOnUse">
   <path d="M 188.96875,44 C 261.6174,44 272,54.356615 272,126.9375 v 58.125 C 272,257.64309 261.6174,268 188.96875,268 h -73.9375 C 42.3826,268 32,257.64309 32,185.0625 v -58.125 C 32,54.356615 42.3826,44 115.03125,44 Z" style="opacity:0.1;fill:#da1636"/>
  </clipPath>
  <clipPath id="clipPath936-0" clipPathUnits="userSpaceOnUse">
   <path d="M 329.9375,16 C 475.2348,16 496,36.71323 496,181.875 v 116.25 C 496,443.28618 475.2348,464 329.9375,464 H 182.0625 C 36.7652,464 16,443.28618 16,298.125 V 181.875 C 16,36.71323 36.7652,16 182.0625,16 Z" style="fill:#438ae9"/>
  </clipPath>
  <clipPath id="clipPath1082-3-367" clipPathUnits="userSpaceOnUse">
   <path d="M 361.9375,-212 C 507.2348,-212 528,-191.28677 528,-46.125 V 70.125 C 528,215.28618 507.2348,236 361.9375,236 H 214.0625 C 68.7652,236 48,215.28618 48,70.125 V -46.125 C 48,-191.28677 68.7652,-212 214.0625,-212 Z" style="fill:#8c59d9"/>
  </clipPath>
  <clipPath id="clipPath1221-5" clipPathUnits="userSpaceOnUse">
   <path d="M 188.96875,44 C 261.6174,44 272,54.356615 272,126.9375 v 58.125 C 272,257.64309 261.6174,268 188.96875,268 h -73.9375 C 42.3826,268 32,257.64309 32,185.0625 v -58.125 C 32,54.356615 42.3826,44 115.03125,44 Z" style="opacity:0.1;fill:#da1636"/>
  </clipPath>
  <clipPath id="clipPath936-2" clipPathUnits="userSpaceOnUse">
   <path d="M 329.9375,16 C 475.2348,16 496,36.71323 496,181.875 v 116.25 C 496,443.28618 475.2348,464 329.9375,464 H 182.0625 C 36.7652,464 16,443.28618 16,298.125 V 181.875 C 16,36.71323 36.7652,16 182.0625,16 Z" style="fill:#438ae9"/>
  </clipPath>
  <filter style="color-interpolation-filters:sRGB" id="filter1140" width="2.62" height="2.62" x="-.81" y="-.81">
   <feGaussianBlur id="feGaussianBlur1142" stdDeviation="2.7"/>
  </filter>
  <filter style="color-interpolation-filters:sRGB" id="filter1136" width="2.62" height="2.62" x="-.81" y="-.81">
   <feGaussianBlur id="feGaussianBlur1138" stdDeviation="2.7"/>
  </filter>
  <filter style="color-interpolation-filters:sRGB" id="filter1132" width="2.62" height="2.62" x="-.81" y="-.81">
   <feGaussianBlur id="feGaussianBlur1134" stdDeviation="2.7"/>
  </filter>
  <filter style="color-interpolation-filters:sRGB" id="filter1128" width="2.62" height="2.62" x="-.81" y="-.81">
   <feGaussianBlur id="feGaussianBlur1130" stdDeviation="2.7"/>
  </filter>
  <linearGradient id="linearGradient11065" x1="104" x2="200" y1="44" y2="268" gradientTransform="matrix(0.26458333,0,0,0.26458333,-6.1510329,220.60103)" gradientUnits="userSpaceOnUse" xlink:href="#linearGradient4195"/>
  <linearGradient id="linearGradient4195">
   <stop style="stop-color:#8c59d9" id="stop4197" offset="0"/>
   <stop style="stop-color:#a7a7f1" id="stop4199" offset="1"/>
  </linearGradient>
  <filter style="color-interpolation-filters:sRGB" id="filter11191" width="1.024" height="1.024" x="-.01" y="-.01">
   <feGaussianBlur id="feGaussianBlur11193" stdDeviation="1.12"/>
  </filter>
  <filter style="color-interpolation-filters:sRGB" id="filter11210" width="1.096" height="1.096" x="-.05" y="-.05">
   <feGaussianBlur id="feGaussianBlur11212" stdDeviation="4.48"/>
  </filter>
 </defs>
 <g id="layer1" transform="translate(0,-229.26666)">
  <circle style="opacity:0.1;filter:url(#filter11210)" cx="122.752" cy="122.752" r="112" transform="matrix(0.26458333,0,0,0.26458333,1.5875003,230.45623)"/>
  <circle style="opacity:0.1;filter:url(#filter11191)" cx="122.752" cy="120.752" r="112" transform="matrix(0.26458333,0,0,0.26458333,1.5875003,230.45623)"/>
  <circle style="opacity:0.1" cx="34.066" cy="261.876" r="30.162"/>
  <circle style="fill:url(#linearGradient11065)" cx="34.066" cy="261.876" r="29.633"/>
  <path style="opacity:0.23999999;fill:#ffffff" d="m 34.065633,232.2427 a 29.633333,29.633333 0 0 0 -11.798763,2.48873 l 2.80293,2.80293 v 3.31815 l 3.704167,4.09019 h 2.116666 v -2.11667 l 3.175,-3.175 v -2.11667 L 36.1823,235.4177 v -3.06907 a 29.633333,29.633333 0 0 0 -2.116667,-0.10593 z m -17.203601,5.55056 A 29.633333,29.633333 0 0 0 4.4323003,261.87603 h 3.175 l 5.2916667,5.29167 v -6.35 l 3.175,-3.175 h 2.116666 l 3.175,-3.175 h 3.175 l -1.5875,-1.5875 3.175,-3.70417 -3.175,-3.175 h -4.7625 v 4.23333 H 16.073967 L 13.9573,248.1177 v -2.11667 l 3.175,-3.175 h 2.645833 v -2.11667 z m 30.961935,1.85777 -3.175,3.175 v 2.64583 h 3.175 v -1.5875 h 2.116666 v 2.11667 l -1.058333,1.05833 -4.233333,0.0718 -1.5875,1.51567 H 40.9448 v 2.11667 l -1.5875,1.5875 v 3.175 h 3.175 l 2.116667,-2.11667 h 2.116666 v 1.05834 l 2.116667,2.11666 h 1.058333 V 255.526 l -2.116666,-2.11667 h 2.116666 L 52.0573,255.526 h 2.645833 l -1.5875,-1.5875 1.5875,-1.5875 h 1.5875 l 1.5875,1.5875 h -1.5875 l -1.5875,1.5875 1.55856,1.55856 0.02894,1.61644 h -2.116666 l 6.35,6.35 H 61.5823 l 1.058333,-1.05833 1.002523,-1.00253 a 29.633333,29.633333 0 0 0 0.05581,-1.11414 29.633333,29.633333 0 0 0 -0.03876,-1.09709 l -1.019578,-1.01958 h 0.981335 A 29.633333,29.633333 0 0 0 53.628259,239.651 Z m 6.35,19.05 h -6.35 l -1.058334,-1.05833 h -6.35 l -3.704166,3.70416 v 5.29167 l 2.645833,2.64583 h 3.704167 l 1.5875,1.5875 v 1.5875 l 1.058333,1.05834 v 6.35 l 4.018875,4.2478 6.635772,-6.63629 -0.07131,-6.07818 5.291667,-5.29167 h -2.116667 l -5.291666,-5.29166 z m -20.6375,-14.81667 v 1.5875 h 3.175 l -1.5875,-1.5875 z m 9.525,0.52917 -1.5875,1.5875 v 1.5875 h 1.5875 z m -16.404167,5.82083 -1.5875,1.5875 h 1.5875 l 0.529167,0.52917 h 0.529166 l 0.529167,-0.52917 z m -8.995833,11.1125 -1.5875,1.5875 h 3.175 v -1.5875 z m -1.5875,4.7625 -2.116667,2.11667 v 5.29167 l 4.247803,3.72225 -0.01447,4.74441 -1.5875,1.5875 v 2.20659 a 29.633333,29.633333 0 0 0 3.237012,2.09186 L 25.0698,283.0427 v -2.11667 l 3.175,-3.175 v -1.5875 l 1.5875,-1.5875 v -4.23333 l -2.116667,-2.11667 H 23.4823 l -2.116667,-2.11667 z m 43.920833,7.40834 -2.116667,1.97352 v 3.31814 h 0.491961 a 29.633333,29.633333 0 0 0 1.624706,-2.6019 z"/>
  <circle style="fill:#ffffff" cx="19.778" cy="256.055" r="1.058"/>
  <circle cx="25.07" cy="277.222" r="1.058" style="fill:#ffffff"/>
  <circle style="fill:#ffffff" cx="40.945" cy="266.639" r="1.058"/>
  <circle cx="46.236" cy="250.764" r="1.058" style="fill:#ffffff"/>
  <path style="opacity:0.5;fill:#ffffff;fill-rule:evenodd" d="m 20.32022,235.64094 a 29.633333,29.633333 0 0 0 -0.55759,0.31988 c -0.537061,6.78386 -0.646025,13.4341 -0.151411,19.7683 -4.046487,-2.49092 -7.949202,-5.11125 -11.7088464,-7.73338 A 29.633333,29.633333 0 0 0 7.669312,248.4784 c 3.660876,2.55139 7.460389,5.10196 11.397754,7.53494 -5.088125,1.84176 -9.955016,4.20129 -14.5861898,7.2347 a 29.633333,29.633333 0 0 0 0.02222,0.6165 c 4.7916672,-3.17236 9.8420828,-5.61161 15.1365428,-7.49567 0.0088,0.005 0.0176,0.0107 0.02635,0.016 0.305024,3.58812 0.805688,7.07284 1.536859,10.419 0.790345,3.61699 1.850249,7.07313 3.218407,10.32547 -2.058559,0.70207 -4.117905,1.24695 -6.107638,1.65778 -2.813635,0.58096 -5.482244,0.89374 -7.812959,1.01648 a 29.633333,29.633333 0 0 0 0.365352,0.50798 c 2.276534,-0.13574 4.846622,-0.44701 7.554578,-1.00614 2.021162,-0.41733 4.115392,-0.97187 6.210474,-1.68776 2.267175,5.23582 5.354067,9.92726 9.425782,13.89115 a 29.633333,29.633333 0 0 0 0.0088,5.3e-4 29.633333,29.633333 0 0 0 0.728121,-0.0258 c -4.192821,-3.97606 -7.354158,-8.71734 -9.662459,-14.03894 5.76332,-2.04146 11.486528,-5.33448 15.666743,-10.44226 6.741462,2.55222 13.781961,4.33836 21.10104,4.93562 a 29.633333,29.633333 0 0 0 0.1881,-0.51521 c -15.168438,-1.20351 -29.163391,-7.57651 -41.804166,-15.28227 8.034882,-2.78059 16.628871,-4.30237 25.740547,-5.15575 -1.219573,5.11199 -2.992107,10.04535 -5.186246,14.74845 l 0.479557,0.22324 c 2.232094,-4.78446 4.032147,-9.80942 5.261695,-15.02027 4.74264,-0.42931 9.624412,-0.68248 14.638899,-0.84284 a 29.633333,29.633333 0 0 0 -0.234093,-0.52297 c -4.883063,0.15891 -9.643772,0.40795 -14.277166,0.82269 1.065178,-4.67741 1.666476,-9.50316 1.70274,-14.43891 a 29.633333,29.633333 0 0 0 -0.528651,-0.27285 c -0.01561,5.04758 -0.626563,9.98135 -1.727025,14.76034 -9.198449,0.85186 -17.887591,2.37894 -26.018052,5.18986 -0.495261,-6.39479 -0.373255,-13.12298 0.185003,-19.99051 z m -0.09353,21.0845 c 6.342763,3.8541 13.032514,7.37587 20.048389,10.07897 -4.098748,4.94149 -9.700607,8.15248 -15.353586,10.15184 -1.359898,-3.22814 -2.414236,-6.66331 -3.201355,-10.26553 -0.699471,-3.2011 -1.187612,-6.53311 -1.493448,-9.96528 z"/>
  <circle cx="68.752" cy="96.752" r="4" transform="matrix(0.26458333,0,0,0.26458333,1.5875003,230.45623)" style="fill:#ffffff;filter:url(#filter1128)"/>
  <circle style="fill:#ffffff;filter:url(#filter1132)" cx="88.752" cy="176.752" r="4" transform="matrix(0.26458333,0,0,0.26458333,1.5875003,230.45623)"/>
  <circle cx="148.752" cy="136.752" r="4" transform="matrix(0.26458333,0,0,0.26458333,1.5875003,230.45623)" style="fill:#ffffff;filter:url(#filter1136)"/>
  <circle style="fill:#ffffff;filter:url(#filter1140)" cx="168.752" cy="76.752" r="4" transform="matrix(0.26458333,0,0,0.26458333,1.5875003,230.45623)"/>
  <path style="opacity:0.3;fill:#ffffff" d="m 34.065633,232.2427 a 29.633333,29.633333 0 0 0 -29.6333327,29.63333 29.633333,29.633333 0 0 0 0.010853,0.30954 29.633333,29.633333 0 0 1 29.6224797,-29.41371 29.633333,29.633333 0 0 1 29.622481,29.32379 29.633333,29.633333 0 0 0 0.01085,-0.21962 A 29.633333,29.633333 0 0 0 34.06563,232.2427 Z"/>
  <path style="opacity:0.2" d="m 34.065633,291.50936 a 29.633333,29.633333 0 0 1 -29.6333327,-29.63333 29.633333,29.633333 0 0 1 0.010853,-0.30954 29.633333,29.633333 0 0 0 29.6224797,29.4137 29.633333,29.633333 0 0 0 29.622481,-29.32379 29.633333,29.633333 0 0 1 0.01085,0.21963 29.633333,29.633333 0 0 1 -29.633334,29.63333 z"/>
 </g>
</svg>
