<svg height="256" viewBox="0 0 256 256" width="256" xmlns="http://www.w3.org/2000/svg" xmlns:xlink="http://www.w3.org/1999/xlink">
  <filter id="filter855" color-interpolation-filters="sRGB" height="1.023" width="1.025" x="-.01" y="-.01">
    <feGaussianBlur stdDeviation="1.107"/>
  </filter>
  <filter id="filter869" color-interpolation-filters="sRGB" height="1.093" width="1.099" x="-.05" y="-.05">
    <feGaussianBlur stdDeviation="4.43"/>
  </filter>
  <g clip-rule="evenodd" fill-rule="evenodd">
    <path d="m127.68377 220.93284c37.69946 0 41.09601-57.10492 41.09601-95.52982 0-44.226338-6.61693-92.472695-41.09601-92.472695-34.473155 0-40.246885 51.295515-40.246885 92.472695-.005 38.07257 3.084798 95.53278 40.246885 95.53278zm-.0102-206.563767c61.7237 0 107.91354 44.637022 107.91354 112.941027 0 60.31243-43.75822 115.05897-107.90364 115.05897-63.523901 0-107.052522-54.7604-107.052522-115.05897-.000696-67.762657 44.760064-112.941027 107.042912-112.941027z" filter="url(#filter869)" opacity=".1"/>
    <path d="m127.68377 220.93284c37.69946 0 41.09601-57.10492 41.09601-95.52982 0-44.226338-6.61693-92.472695-41.09601-92.472695-34.473155 0-40.246885 51.295515-40.246885 92.472695-.005 38.07257 3.084798 95.53278 40.246885 95.53278zm-.0102-206.563767c61.7237 0 107.91354 44.637022 107.91354 112.941027 0 60.31243-43.75822 115.05897-107.90364 115.05897-63.523901 0-107.052522-54.7604-107.052522-115.05897-.000696-67.762657 44.760064-112.941027 107.042912-112.941027z" filter="url(#filter855)" opacity=".1"/>
    <path d="m127.68377 220.93284c37.69946 0 41.09601-57.10492 41.09601-95.52982 0-44.226338-6.61693-92.472695-41.09601-92.472695-34.473155 0-40.246885 51.295515-40.246885 92.472695-.005 38.07257 3.084798 95.53278 40.246885 95.53278zm-.0102-206.563767c61.7237 0 107.91354 44.637022 107.91354 112.941027 0 60.31243-43.75822 115.05897-107.90364 115.05897-63.523901 0-107.052522-54.7604-107.052522-115.05897-.000696-67.762657 44.760064-112.941027 107.042912-112.941027z" opacity=".1"/>
    <path d="m127.69123 219.30891c37.03807 0 40.37503-56.10308 40.37503-93.85386 0-43.450432-6.50084-90.850363-40.37503-90.850363-33.868361 0-39.540797 50.395595-39.540797 90.850363-.0049 37.40463 3.030679 93.85677 39.540797 93.85677zm-.01-202.939839c60.64083 0 106.02032 43.853917 106.02032 110.959609 0 59.25431-42.99053 113.04039-106.01059 113.04039-62.40945 0-105.174412-53.79969-105.174412-113.04039-.000703-66.573841 43.974781-110.959609 105.164952-110.959609z" fill="#e01b24"/>
    <path d="m127.68152 16.369071c-61.19018 0-105.16671 44.385136-105.16601 110.958979 0 .32528.0091.64966.01172.97461.4503-66.00166 44.28001-109.933589 105.15429-109.933589 60.32894 0 105.54421 43.407628 106.00781 109.929679.003-.32372.0117-.64665.0117-.9707 0-67.105694-45.3787-110.958979-106.01953-110.958979zm40.37695 110.302729c-.0723 37.72778-3.71627 92.63671-40.36718 92.63671v.004c-36.11622 0-39.46975-55.21238-39.53321-92.61133-.00043.2487-.0078.50595-.0078.75391-.005 37.40463 3.0309 93.85742 39.54102 93.85742v-.004c37.03807 0 40.375-56.10273 40.375-93.85351 0-.26002-.007-.52291-.008-.7832z" fill="#fff" opacity=".3"/>
    <path d="m127.69056 32.605529c-33.868361 0-39.541016 50.394838-39.541016 90.849611-.000052.39659.0071.82382.0078 1.2246.07196-40.321897 5.878349-90.074211 39.533196-90.074211 33.67405 0 40.2901 46.837845 40.36719 90.076171.00077-.40177.008-.82879.008-1.22656 0-43.450437-6.50081-90.849611-40.375-90.849611zm-105.164062 93.666011c-.0025.3529-.0098.70249-.0098 1.05664 0 59.2407 42.764378 113.04102 105.173822 113.04102 63.02006 0 106.01172-53.78671 106.01172-113.04102 0-.34493-.009-.6856-.0117-1.0293-.46696 58.86935-43.32458 112.07032-106 112.07032-62.07776 0-104.712561-53.23069-105.164056-112.09766z" opacity=".2"/>
  </g>
</svg>
