<svg height="273.067" viewBox="0 0 273.07 273.07" width="273.067" xmlns="http://www.w3.org/2000/svg" xmlns:xlink="http://www.w3.org/1999/xlink">
  <filter id="filter951" color-interpolation-filters="sRGB" height="1.072" width="1.072" x="-.04" y="-.04">
    <feGaussianBlur stdDeviation="1.035"/>
  </filter>
  <filter id="filter1210" color-interpolation-filters="sRGB" height="1.052" width="1.052" x="-.03" y="-.03">
    <feGaussianBlur stdDeviation="1.135"/>
  </filter>
  <filter id="filter1266" color-interpolation-filters="sRGB" height="1.208" width="1.208" x="-.1" y="-.1">
    <feGaussianBlur stdDeviation="4.54"/>
  </filter>
  <g transform="translate(-78.36892 110.56404)">
    <path d="m152.76493-88.393358c-28.99495-.000002-52.50001 23.505049-52.50001 52.5 0 28.9949497 23.50506 52.499999 52.50001 52.499997 28.99494-.000004 52.49999-23.5050513 52.49999-52.499997 0-28.994947-23.50505-52.499996-52.49999-52.5z" filter="url(#filter1266)" opacity=".1"/>
    <path d="m276.76493-88.393358c-28.99495-.000002-52.50001 23.505049-52.50001 52.5 0 28.9949497 23.50506 52.499999 52.50001 52.499997 28.99494-.000004 52.49999-23.5050513 52.49999-52.499997 0-28.994947-23.50505-52.499996-52.49999-52.5z" filter="url(#filter1266)" opacity=".1"/>
    <path d="m152.76493 31.606642c-28.99495-.000002-52.50001 23.505049-52.50001 52.5 0 28.994948 23.50506 52.499998 52.50001 52.499998 28.99494 0 52.49999-23.50505 52.49999-52.499998 0-28.994947-23.50505-52.499996-52.49999-52.5z" filter="url(#filter1266)" opacity=".1"/>
    <path d="m276.76493 31.606642c-28.99495-.000002-52.50001 23.505049-52.50001 52.5 0 28.994948 23.50506 52.499998 52.50001 52.499998 28.99494 0 52.49999-23.50505 52.49999-52.499998 0-28.994947-23.50505-52.499996-52.49999-52.5z" filter="url(#filter1266)" opacity=".1"/>
    <path d="m152.76493-88.393358c-28.99495-.000002-52.50001 23.505049-52.50001 52.5 0 28.9949497 23.50506 52.499999 52.50001 52.499997 28.99494-.000004 52.49999-23.5050513 52.49999-52.499997 0-28.994947-23.50505-52.499996-52.49999-52.5z" filter="url(#filter1210)" opacity=".1"/>
    <path d="m276.76493-88.393358c-28.99495-.000002-52.50001 23.505049-52.50001 52.5 0 28.9949497 23.50506 52.499999 52.50001 52.499997 28.99494-.000004 52.49999-23.5050513 52.49999-52.499997 0-28.994947-23.50505-52.499996-52.49999-52.5z" filter="url(#filter1210)" opacity=".1"/>
    <path d="m152.76493 31.606642c-28.99495-.000002-52.50001 23.505049-52.50001 52.5 0 28.994948 23.50506 52.499998 52.50001 52.499998 28.99494 0 52.49999-23.50505 52.49999-52.499998 0-28.994947-23.50505-52.499996-52.49999-52.5z" filter="url(#filter1210)" opacity=".1"/>
    <path d="m276.76493 31.606642c-28.99495-.000002-52.50001 23.505049-52.50001 52.5 0 28.994948 23.50506 52.499998 52.50001 52.499998 28.99494 0 52.49999-23.50505 52.49999-52.499998 0-28.994947-23.50505-52.499996-52.49999-52.5z" filter="url(#filter1210)" opacity=".1"/>
    <path d="m152.76493-88.393358c-28.99495-.000002-52.50001 23.505049-52.50001 52.5 0 28.9949497 23.50506 52.499999 52.50001 52.499997 28.99494-.000004 52.49999-23.5050513 52.49999-52.499997 0-28.994947-23.50505-52.499996-52.49999-52.5z" opacity=".1"/>
    <path d="m276.76493-88.393358c-28.99495-.000002-52.50001 23.505049-52.50001 52.5 0 28.9949497 23.50506 52.499999 52.50001 52.499997 28.99494-.000004 52.49999-23.5050513 52.49999-52.499997 0-28.994947-23.50505-52.499996-52.49999-52.5z" opacity=".1"/>
    <path d="m152.76493 31.606642c-28.99495-.000002-52.50001 23.505049-52.50001 52.5 0 28.994948 23.50506 52.499998 52.50001 52.499998 28.99494 0 52.49999-23.50505 52.49999-52.499998 0-28.994947-23.50505-52.499996-52.49999-52.5z" opacity=".1"/>
    <path d="m276.76493 31.606642c-28.99495-.000002-52.50001 23.505049-52.50001 52.5 0 28.994948 23.50506 52.499998 52.50001 52.499998 28.99494 0 52.49999-23.50505 52.49999-52.499998 0-28.994947-23.50505-52.499996-52.49999-52.5z" opacity=".1"/>
  </g>
  <g transform="translate(135.71577 114.86326)">
    <circle cx="-60.716" cy="79.607" fill="#484c4c" r="50"/>
    <path d="m83.188575 218.71919-16.241156-17.90327-23.955653 3.22943 12.008235-20.97867-10.474079-21.78523 23.662654 4.93774 17.482315-16.69345 2.616089 24.03037 21.27875 11.46811-22.045827 9.91384z" fill="#060603" opacity=".2" transform="matrix(.99980887 -.01955069 .01955069 .99980887 -137.262775 -101.930314)"/>
    <path d="m83.188575 218.71919-16.241156-17.90327-23.955653 3.22943 12.008235-20.97867-10.474079-21.78523 23.662654 4.93774 17.482315-16.69345 2.616089 24.03037 21.27875 11.46811-22.045827 9.91384z" fill="#ffde00" transform="matrix(.99980887 -.01955069 .01955069 .99980887 -136.663247 -103.730187)"/>
    <path d="m-60.714844 29.607422a50 50 0 0 0 -49.999996 50 50 50 0 0 0 .041 1.167969 50 50 0 0 1 49.958986-49.167969 50 50 0 0 1 49.958985 48.835937 50 50 0 0 0 .04101-.835937 50 50 0 0 0 -50-50z" fill="#f9f9f9" opacity=".3"/>
    <path d="m-10.755859 78.443359a50 50 0 0 1 -49.958985 49.164061 50 50 0 0 1 -49.958986-48.832029 50 50 0 0 0 -.041.832031 50 50 0 0 0 49.999996 49.999998 50 50 0 0 0 50-49.999998 50 50 0 0 0 -.04101-1.164063z" opacity=".2"/>
    <path d="m-48.085938 44.091797-17.152343 17.033203-23.753907-4.474609 1.117188 2.210937 22.636719 4.263672 17.152343-17.033203 3.085938 23.974609 19.472656 10.009766 2.025391-.958984-21.498047-11.050782zm-30.533203 35.095703-11.072265 20.248047 1.195312-.185547 10.402344-19.023438z" fill="#fff" opacity=".3"/>
    <path d="m-88.992188 56.650391 10.373047 20.537109.525391-.960938-9.78125-19.365234zm63.464844 21.425781-19.822265 9.382812-3.865235 23.861326-16.58789-17.582029-22.69336 3.511719-1.195312 2.185547 23.888672-3.697266 16.58789 17.582029 3.865235-23.861326 21.847656-10.341796z" opacity=".2"/>
  </g>
  <g transform="translate(260.71577 114.86326)">
    <circle cx="-60.716" cy="79.607" fill="#d8dbd4" r="50"/>
    <path d="m-60.714844 29.607422a50 50 0 0 0 -49.999996 50 50 50 0 0 0 .041 1.167969 50 50 0 0 1 49.958986-49.167969 50 50 0 0 1 49.958985 48.835937 50 50 0 0 0 .04101-.835937 50 50 0 0 0 -50-50z" fill="#f9f9f9" opacity=".3"/>
    <path d="m-10.755859 78.443359a50 50 0 0 1 -49.958985 49.164061 50 50 0 0 1 -49.958986-48.832029 50 50 0 0 0 -.041.832031 50 50 0 0 0 49.999996 49.999998 50 50 0 0 0 50-49.999998 50 50 0 0 0 -.04101-1.164063z" opacity=".2"/>
    <g filter="url(#filter951)" opacity=".4" transform="matrix(1.0144926 0 0 1.0144926 1.201768 -2.465301)">
      <path d="m-61.033021 46.40005-9.20526 12.27505-15.189638-2.16995 2.169947 15.18964-12.275048 9.20527 12.275048 9.20526-2.169947 15.18964 15.189638-2.16996 9.20526 12.27505 9.205272-12.27505 15.189636 2.16996-2.169948-15.18964 12.275051-9.20526-12.275051-9.20527 2.169948-15.18964-15.189636 2.16995z"/>
      <path d="m-41.894183 80.08326a19.167423 19.167423 0 0 1 -19.138838 18.59022 19.167423 19.167423 0 0 1 -19.138828-18.35063 19.167423 19.167423 0 0 0 -.02859.57721 19.167423 19.167423 0 0 0 19.167419 19.16742 19.167423 19.167423 0 0 0 19.167427-19.16742 19.167423 19.167423 0 0 0 -.02858-.8168z" opacity=".2"/>
      <path d="m-61.033021 61.73263a19.167423 19.167423 0 0 0 -19.167419 19.16743 19.167423 19.167423 0 0 0 .02859.81678 19.167423 19.167423 0 0 1 19.138829-18.59021 19.167423 19.167423 0 0 1 19.138839 18.35062 19.167423 19.167423 0 0 0 .02858-.57719 19.167423 19.167423 0 0 0 -19.167419-19.16743z" opacity=".3"/>
    </g>
    <g transform="translate(.31724 -1.292849)">
      <path d="m-61.033021 46.40005-9.20526 12.27505-15.189638-2.16995 2.169947 15.18964-12.275048 9.20527 12.275048 9.20526-2.169947 15.18964 15.189638-2.16996 9.20526 12.27505 9.205272-12.27505 15.189636 2.16996-2.169948-15.18964 12.275051-9.20526-12.275051-9.20527 2.169948-15.18964-15.189636 2.16995z" fill="#ffde00"/>
      <path d="m-41.894183 80.08326a19.167423 19.167423 0 0 1 -19.138838 18.59022 19.167423 19.167423 0 0 1 -19.138828-18.35063 19.167423 19.167423 0 0 0 -.02859.57721 19.167423 19.167423 0 0 0 19.167419 19.16742 19.167423 19.167423 0 0 0 19.167427-19.16742 19.167423 19.167423 0 0 0 -.02858-.8168z" fill="#0a0a0a" opacity=".2"/>
      <path d="m-61.033021 61.73263a19.167423 19.167423 0 0 0 -19.167419 19.16743 19.167423 19.167423 0 0 0 .02859.81678 19.167423 19.167423 0 0 1 19.138829-18.59021 19.167423 19.167423 0 0 1 19.138839 18.35062 19.167423 19.167423 0 0 0 .02858-.57719 19.167423 19.167423 0 0 0 -19.167419-19.16743z" fill="#fff" opacity=".3"/>
    </g>
  </g>
  <g transform="matrix(-1 0 0 1 139.28516 -5.13674)">
    <circle cx="-60.716" cy="79.607" fill="#484c4c" r="50"/>
    <path d="m83.188575 218.71919-16.241156-17.90327-23.955653 3.22943 12.008235-20.97867-10.474079-21.78523 23.662654 4.93774 17.482315-16.69345 2.616089 24.03037 21.27875 11.46811-22.045827 9.91384z" fill="#060603" opacity=".2" transform="matrix(.99980887 -.01955069 .01955069 .99980887 -137.262775 -101.930314)"/>
    <path d="m83.188575 218.71919-16.241156-17.90327-23.955653 3.22943 12.008235-20.97867-10.474079-21.78523 23.662654 4.93774 17.482315-16.69345 2.616089 24.03037 21.27875 11.46811-22.045827 9.91384z" fill="#ffde00" transform="matrix(.99980887 -.01955069 .01955069 .99980887 -136.663247 -103.730187)"/>
    <path d="m-60.714844 29.607422a50 50 0 0 0 -49.999996 50 50 50 0 0 0 .041 1.167969 50 50 0 0 1 49.958986-49.167969 50 50 0 0 1 49.958985 48.835937 50 50 0 0 0 .04101-.835937 50 50 0 0 0 -50-50z" fill="#f9f9f9" opacity=".3"/>
    <path d="m-10.755859 78.443359a50 50 0 0 1 -49.958985 49.164061 50 50 0 0 1 -49.958986-48.832029 50 50 0 0 0 -.041.832031 50 50 0 0 0 49.999996 49.999998 50 50 0 0 0 50-49.999998 50 50 0 0 0 -.04101-1.164063z" opacity=".2"/>
    <path d="m-48.085938 44.091797-17.152343 17.033203-23.753907-4.474609 1.117188 2.210937 22.636719 4.263672 17.152343-17.033203 3.085938 23.974609 19.472656 10.009766 2.025391-.958984-21.498047-11.050782zm-30.533203 35.095703-11.072265 20.248047 1.195312-.185547 10.402344-19.023438z" fill="#fff" opacity=".3"/>
    <path d="m-88.992188 56.650391 10.373047 20.537109.525391-.960938-9.78125-19.365234zm63.464844 21.425781-19.822265 9.382812-3.865235 23.861326-16.58789-17.582029-22.69336 3.511719-1.195312 2.185547 23.888672-3.697266 16.58789 17.582029 3.865235-23.861326 21.847656-10.341796z" opacity=".2"/>
  </g>
  <g transform="matrix(-1 0 0 1 14.28516 -5.13674)">
    <circle cx="-60.716" cy="79.607" fill="#d8dbd4" r="50"/>
    <path d="m-60.714844 29.607422a50 50 0 0 0 -49.999996 50 50 50 0 0 0 .041 1.167969 50 50 0 0 1 49.958986-49.167969 50 50 0 0 1 49.958985 48.835937 50 50 0 0 0 .04101-.835937 50 50 0 0 0 -50-50z" fill="#f9f9f9" opacity=".3"/>
    <path d="m-10.755859 78.443359a50 50 0 0 1 -49.958985 49.164061 50 50 0 0 1 -49.958986-48.832029 50 50 0 0 0 -.041.832031 50 50 0 0 0 49.999996 49.999998 50 50 0 0 0 50-49.999998 50 50 0 0 0 -.04101-1.164063z" opacity=".2"/>
    <g filter="url(#filter951)" opacity=".4" transform="matrix(1.0144926 0 0 1.0144926 1.201768 -2.465301)">
      <path d="m-61.033021 46.40005-9.20526 12.27505-15.189638-2.16995 2.169947 15.18964-12.275048 9.20527 12.275048 9.20526-2.169947 15.18964 15.189638-2.16996 9.20526 12.27505 9.205272-12.27505 15.189636 2.16996-2.169948-15.18964 12.275051-9.20526-12.275051-9.20527 2.169948-15.18964-15.189636 2.16995z"/>
      <path d="m-41.894183 80.08326a19.167423 19.167423 0 0 1 -19.138838 18.59022 19.167423 19.167423 0 0 1 -19.138828-18.35063 19.167423 19.167423 0 0 0 -.02859.57721 19.167423 19.167423 0 0 0 19.167419 19.16742 19.167423 19.167423 0 0 0 19.167427-19.16742 19.167423 19.167423 0 0 0 -.02858-.8168z" opacity=".2"/>
      <path d="m-61.033021 61.73263a19.167423 19.167423 0 0 0 -19.167419 19.16743 19.167423 19.167423 0 0 0 .02859.81678 19.167423 19.167423 0 0 1 19.138829-18.59021 19.167423 19.167423 0 0 1 19.138839 18.35062 19.167423 19.167423 0 0 0 .02858-.57719 19.167423 19.167423 0 0 0 -19.167419-19.16743z" opacity=".3"/>
    </g>
    <g transform="translate(.31724 -1.292849)">
      <path d="m-61.033021 46.40005-9.20526 12.27505-15.189638-2.16995 2.169947 15.18964-12.275048 9.20527 12.275048 9.20526-2.169947 15.18964 15.189638-2.16996 9.20526 12.27505 9.205272-12.27505 15.189636 2.16996-2.169948-15.18964 12.275051-9.20526-12.275051-9.20527 2.169948-15.18964-15.189636 2.16995z" fill="#ffde00"/>
      <path d="m-41.894183 80.08326a19.167423 19.167423 0 0 1 -19.138838 18.59022 19.167423 19.167423 0 0 1 -19.138828-18.35063 19.167423 19.167423 0 0 0 -.02859.57721 19.167423 19.167423 0 0 0 19.167419 19.16742 19.167423 19.167423 0 0 0 19.167427-19.16742 19.167423 19.167423 0 0 0 -.02858-.8168z" fill="#0a0a0a" opacity=".2"/>
      <path d="m-61.033021 61.73263a19.167423 19.167423 0 0 0 -19.167419 19.16743 19.167423 19.167423 0 0 0 .02859.81678 19.167423 19.167423 0 0 1 19.138829-18.59021 19.167423 19.167423 0 0 1 19.138839 18.35062 19.167423 19.167423 0 0 0 .02858-.57719 19.167423 19.167423 0 0 0 -19.167419-19.16743z" fill="#fff" opacity=".3"/>
    </g>
  </g>
</svg>
