<?xml version="1.0" encoding="UTF-8" standalone="no"?>
<svg
   xmlns:dc="http://purl.org/dc/elements/1.1/"
   xmlns:cc="http://creativecommons.org/ns#"
   xmlns:rdf="http://www.w3.org/1999/02/22-rdf-syntax-ns#"
   xmlns:svg="http://www.w3.org/2000/svg"
   xmlns="http://www.w3.org/2000/svg"
   xmlns:sodipodi="http://sodipodi.sourceforge.net/DTD/sodipodi-0.dtd"
   xmlns:inkscape="http://www.inkscape.org/namespaces/inkscape"
   enable-background="new"
   height="256"
   viewBox="0 0 256 256"
   width="256"
   version="1.1"
   id="svg36"
   sodipodi:docname="org.gnome.design.AppIconPreview.svg"
   inkscape:version="0.92.5 (2060ec1f9f, 2020-04-08)">
  <metadata
     id="metadata42">
    <rdf:RDF>
      <cc:Work
         rdf:about="">
        <dc:format>image/svg+xml</dc:format>
        <dc:type
           rdf:resource="http://purl.org/dc/dcmitype/StillImage" />
        <dc:title />
      </cc:Work>
    </rdf:RDF>
  </metadata>
  <defs
     id="defs40">
    <clipPath
       id="clip1">
      <path
         inkscape:connector-curvature="0"
         d="m 8,46 h 56 v 70 H 8 Z m 0,0"
         id="path2" />
    </clipPath>
    <linearGradient
       id="linear0"
       gradientUnits="userSpaceOnUse"
       x1="48"
       y1="44"
       x2="464"
       y2="44"
       gradientTransform="matrix(0.269231,0,0,0.18617,-4.923077,69.085114)">
      <stop
         offset="0"
         style="stop-color:rgb(38.431373%,62.7451%,91.764706%);stop-opacity:1;"
         id="stop5" />
      <stop
         offset="0.05"
         style="stop-color:rgb(60.000002%,75.686276%,94.509804%);stop-opacity:1;"
         id="stop7-3" />
      <stop
         offset="0.1"
         style="stop-color:rgb(38.431373%,62.7451%,91.764706%);stop-opacity:1;"
         id="stop9-6" />
      <stop
         offset="0.899999"
         style="stop-color:rgb(38.431373%,62.7451%,91.764706%);stop-opacity:1;"
         id="stop11-7" />
      <stop
         offset="0.95"
         style="stop-color:rgb(20.784314%,51.764709%,89.411765%);stop-opacity:1;"
         id="stop13" />
      <stop
         offset="1"
         style="stop-color:rgb(10.196079%,37.254903%,70.588237%);stop-opacity:1;"
         id="stop15" />
    </linearGradient>
    <clipPath
       id="clip2">
      <path
         inkscape:connector-curvature="0"
         d="m 8,56 h 56 v 56 H 8 Z m 0,0"
         id="path18" />
    </clipPath>
    <clipPath
       id="clip3">
      <path
         inkscape:connector-curvature="0"
         d="M 8,28 H 64 V 72 H 8 Z m 0,0"
         id="path21" />
    </clipPath>
    <linearGradient
       id="linear1"
       gradientUnits="userSpaceOnUse"
       x1="48"
       y1="44"
       x2="464"
       y2="44"
       gradientTransform="matrix(0.269231,0,0,0.18617,-134.51404,117.17549)">
      <stop
         offset="0"
         style="stop-color:rgb(10.196079%,37.254903%,70.588237%);stop-opacity:1;"
         id="stop24" />
      <stop
         offset="0.05"
         style="stop-color:rgb(20.784314%,51.764709%,89.411765%);stop-opacity:1;"
         id="stop26" />
      <stop
         offset="0.1"
         style="stop-color:rgb(7.843138%,27.843139%,52.156866%);stop-opacity:1;"
         id="stop28" />
      <stop
         offset="0.899999"
         style="stop-color:rgb(7.843138%,27.843139%,52.156866%);stop-opacity:1;"
         id="stop30" />
      <stop
         offset="0.95"
         style="stop-color:rgb(10.980392%,44.313726%,84.705883%);stop-opacity:1;"
         id="stop32" />
      <stop
         offset="1"
         style="stop-color:rgb(8.627451%,29.411766%,55.29412%);stop-opacity:1;"
         id="stop34" />
    </linearGradient>
    <clipPath
       id="clip4">
      <rect
         x="0"
         y="0"
         width="192"
         height="152"
         id="rect45" />
    </clipPath>
    <mask
       id="mask0">
      <g
         style="filter:url(#alpha)"
         id="g42">
        <rect
           x="0"
           y="0"
           width="128"
           height="128"
           style="fill:#000000;fill-opacity:0.1;stroke:none"
           id="rect40" />
      </g>
    </mask>
    <filter
       id="alpha"
       filterUnits="objectBoundingBox"
       x="0"
       y="0"
       width="1"
       height="1">
      <feColorMatrix
         type="matrix"
         in="SourceGraphic"
         values="0 0 0 0 1 0 0 0 0 1 0 0 0 0 1 0 0 0 1 0"
         id="feColorMatrix37" />
    </filter>
    <clipPath
       id="clipPath1154">
      <rect
         x="0"
         y="0"
         width="192"
         height="152"
         id="rect1152" />
    </clipPath>
    <clipPath
       id="clip5">
      <rect
         x="0"
         y="0"
         width="192"
         height="152"
         id="rect56" />
    </clipPath>
    <mask
       id="mask1">
      <g
         style="filter:url(#alpha)"
         id="g53">
        <rect
           x="0"
           y="0"
           width="128"
           height="128"
           style="fill:#000000;fill-opacity:0.2;stroke:none"
           id="rect51" />
      </g>
    </mask>
    <filter
       id="filter1163"
       filterUnits="objectBoundingBox"
       x="0"
       y="0"
       width="1"
       height="1">
      <feColorMatrix
         type="matrix"
         in="SourceGraphic"
         values="0 0 0 0 1 0 0 0 0 1 0 0 0 0 1 0 0 0 1 0"
         id="feColorMatrix1161" />
    </filter>
    <clipPath
       id="clipPath1167">
      <rect
         x="0"
         y="0"
         width="192"
         height="152"
         id="rect1165" />
    </clipPath>
    <clipPath
       id="clip6">
      <rect
         x="0"
         y="0"
         width="192"
         height="152"
         id="rect67" />
    </clipPath>
    <mask
       id="mask2">
      <g
         style="filter:url(#alpha)"
         id="g64">
        <rect
           x="0"
           y="0"
           width="128"
           height="128"
           style="fill:#000000;fill-opacity:0.2;stroke:none"
           id="rect62" />
      </g>
    </mask>
    <filter
       id="filter1176"
       filterUnits="objectBoundingBox"
       x="0"
       y="0"
       width="1"
       height="1">
      <feColorMatrix
         type="matrix"
         in="SourceGraphic"
         values="0 0 0 0 1 0 0 0 0 1 0 0 0 0 1 0 0 0 1 0"
         id="feColorMatrix1174" />
    </filter>
    <clipPath
       id="clipPath1180">
      <rect
         x="0"
         y="0"
         width="192"
         height="152"
         id="rect1178" />
    </clipPath>
    <clipPath
       id="clip7">
      <rect
         x="0"
         y="0"
         width="192"
         height="152"
         id="rect78" />
    </clipPath>
    <mask
       id="mask3">
      <g
         style="filter:url(#alpha)"
         id="g75">
        <rect
           x="0"
           y="0"
           width="128"
           height="128"
           style="fill:#000000;fill-opacity:0.1;stroke:none"
           id="rect73" />
      </g>
    </mask>
    <filter
       id="filter1189"
       filterUnits="objectBoundingBox"
       x="0"
       y="0"
       width="1"
       height="1">
      <feColorMatrix
         type="matrix"
         in="SourceGraphic"
         values="0 0 0 0 1 0 0 0 0 1 0 0 0 0 1 0 0 0 1 0"
         id="feColorMatrix1187" />
    </filter>
    <clipPath
       id="clipPath1193">
      <rect
         x="0"
         y="0"
         width="192"
         height="152"
         id="rect1191" />
    </clipPath>
    <clipPath
       id="clip8">
      <rect
         x="0"
         y="0"
         width="192"
         height="152"
         id="rect89" />
    </clipPath>
    <mask
       id="mask4">
      <g
         style="filter:url(#alpha)"
         id="g86">
        <rect
           x="0"
           y="0"
           width="128"
           height="128"
           style="fill:#000000;fill-opacity:0.33000004;stroke:none"
           id="rect84" />
      </g>
    </mask>
    <filter
       id="filter1202"
       filterUnits="objectBoundingBox"
       x="0"
       y="0"
       width="1"
       height="1">
      <feColorMatrix
         type="matrix"
         in="SourceGraphic"
         values="0 0 0 0 1 0 0 0 0 1 0 0 0 0 1 0 0 0 1 0"
         id="feColorMatrix1200" />
    </filter>
    <clipPath
       id="clipPath1206">
      <rect
         x="0"
         y="0"
         width="192"
         height="152"
         id="rect1204" />
    </clipPath>
    <clipPath
       id="clip9">
      <rect
         x="0"
         y="0"
         width="192"
         height="152"
         id="rect100" />
    </clipPath>
    <mask
       id="mask5">
      <g
         style="filter:url(#alpha)"
         id="g97">
        <rect
           x="0"
           y="0"
           width="128"
           height="128"
           style="fill:#000000;fill-opacity:0.25;stroke:none"
           id="rect95" />
      </g>
    </mask>
    <filter
       id="filter1215"
       filterUnits="objectBoundingBox"
       x="0"
       y="0"
       width="1"
       height="1">
      <feColorMatrix
         type="matrix"
         in="SourceGraphic"
         values="0 0 0 0 1 0 0 0 0 1 0 0 0 0 1 0 0 0 1 0"
         id="feColorMatrix1213" />
    </filter>
    <clipPath
       id="clipPath1219">
      <rect
         x="0"
         y="0"
         width="192"
         height="152"
         id="rect1217" />
    </clipPath>
    <linearGradient
       id="linear2"
       gradientUnits="userSpaceOnUse"
       x1="59.086758"
       y1="186"
       x2="67.925591"
       y2="186"
       gradientTransform="translate(0,-168)">
      <stop
         offset="0"
         style="stop-color:rgb(67.450982%,67.058825%,68.235296%);stop-opacity:1;"
         id="stop106" />
      <stop
         offset="0.38"
         style="stop-color:rgb(46.666667%,46.27451%,48.235294%);stop-opacity:1;"
         id="stop108" />
      <stop
         offset="1"
         style="stop-color:rgb(36.470589%,36.078432%,37.64706%);stop-opacity:1;"
         id="stop110" />
    </linearGradient>
    <clipPath
       id="clip10">
      <rect
         x="0"
         y="0"
         width="192"
         height="152"
         id="rect118" />
    </clipPath>
    <mask
       id="mask6">
      <g
         style="filter:url(#alpha)"
         id="g115">
        <rect
           x="0"
           y="0"
           width="128"
           height="128"
           style="fill:#000000;fill-opacity:0.8;stroke:none"
           id="rect113" />
      </g>
    </mask>
    <filter
       id="filter1232"
       filterUnits="objectBoundingBox"
       x="0"
       y="0"
       width="1"
       height="1">
      <feColorMatrix
         type="matrix"
         in="SourceGraphic"
         values="0 0 0 0 1 0 0 0 0 1 0 0 0 0 1 0 0 0 1 0"
         id="feColorMatrix1230" />
    </filter>
    <clipPath
       id="clipPath1236">
      <rect
         x="0"
         y="0"
         width="192"
         height="152"
         id="rect1234" />
    </clipPath>
    <clipPath
       id="clip11">
      <rect
         x="0"
         y="0"
         width="192"
         height="152"
         id="rect129" />
    </clipPath>
    <mask
       id="mask7">
      <g
         style="filter:url(#alpha)"
         id="g126">
        <rect
           x="0"
           y="0"
           width="128"
           height="128"
           style="fill:#000000;fill-opacity:0.05;stroke:none"
           id="rect124" />
      </g>
    </mask>
    <filter
       id="filter1245"
       filterUnits="objectBoundingBox"
       x="0"
       y="0"
       width="1"
       height="1">
      <feColorMatrix
         type="matrix"
         in="SourceGraphic"
         values="0 0 0 0 1 0 0 0 0 1 0 0 0 0 1 0 0 0 1 0"
         id="feColorMatrix1243" />
    </filter>
    <clipPath
       id="clipPath1249">
      <rect
         x="0"
         y="0"
         width="192"
         height="152"
         id="rect1247" />
    </clipPath>
    <clipPath
       id="clip12">
      <rect
         x="0"
         y="0"
         width="192"
         height="152"
         id="rect140" />
    </clipPath>
    <mask
       id="mask8">
      <g
         style="filter:url(#alpha)"
         id="g137">
        <rect
           x="0"
           y="0"
           width="128"
           height="128"
           style="fill:#000000;fill-opacity:0.05;stroke:none"
           id="rect135" />
      </g>
    </mask>
    <filter
       id="filter1258"
       filterUnits="objectBoundingBox"
       x="0"
       y="0"
       width="1"
       height="1">
      <feColorMatrix
         type="matrix"
         in="SourceGraphic"
         values="0 0 0 0 1 0 0 0 0 1 0 0 0 0 1 0 0 0 1 0"
         id="feColorMatrix1256" />
    </filter>
    <clipPath
       id="clipPath1262">
      <rect
         x="0"
         y="0"
         width="192"
         height="152"
         id="rect1260" />
    </clipPath>
    <clipPath
       id="clip13">
      <rect
         x="0"
         y="0"
         width="192"
         height="152"
         id="rect151" />
    </clipPath>
    <mask
       id="mask9">
      <g
         style="filter:url(#alpha)"
         id="g148">
        <rect
           x="0"
           y="0"
           width="128"
           height="128"
           style="fill:#000000;fill-opacity:0.05;stroke:none"
           id="rect146" />
      </g>
    </mask>
    <filter
       id="filter1271"
       filterUnits="objectBoundingBox"
       x="0"
       y="0"
       width="1"
       height="1">
      <feColorMatrix
         type="matrix"
         in="SourceGraphic"
         values="0 0 0 0 1 0 0 0 0 1 0 0 0 0 1 0 0 0 1 0"
         id="feColorMatrix1269" />
    </filter>
    <clipPath
       id="clipPath1275">
      <rect
         x="0"
         y="0"
         width="192"
         height="152"
         id="rect1273" />
    </clipPath>
    <clipPath
       id="clip14">
      <rect
         x="0"
         y="0"
         width="192"
         height="152"
         id="rect162" />
    </clipPath>
    <mask
       id="mask10">
      <g
         style="filter:url(#alpha)"
         id="g159">
        <rect
           x="0"
           y="0"
           width="128"
           height="128"
           style="fill:#000000;fill-opacity:0.05;stroke:none"
           id="rect157" />
      </g>
    </mask>
    <filter
       id="filter1284"
       filterUnits="objectBoundingBox"
       x="0"
       y="0"
       width="1"
       height="1">
      <feColorMatrix
         type="matrix"
         in="SourceGraphic"
         values="0 0 0 0 1 0 0 0 0 1 0 0 0 0 1 0 0 0 1 0"
         id="feColorMatrix1282" />
    </filter>
    <clipPath
       id="clipPath1288">
      <rect
         x="0"
         y="0"
         width="192"
         height="152"
         id="rect1286" />
    </clipPath>
    <linearGradient
       id="linear3"
       gradientUnits="userSpaceOnUse"
       x1="88"
       y1="200"
       x2="96"
       y2="200"
       gradientTransform="rotate(90,162,102)">
      <stop
         offset="0"
         style="stop-color:rgb(60.392159%,60.000002%,58.823532%);stop-opacity:1;"
         id="stop168" />
      <stop
         offset="1"
         style="stop-color:rgb(60.392159%,60.000002%,58.823532%);stop-opacity:0;"
         id="stop170" />
    </linearGradient>
    <clipPath
       id="clip15">
      <rect
         x="0"
         y="0"
         width="192"
         height="152"
         id="rect178" />
    </clipPath>
    <mask
       id="mask11">
      <g
         style="filter:url(#alpha)"
         id="g175">
        <rect
           x="0"
           y="0"
           width="128"
           height="128"
           style="fill:#000000;fill-opacity:0.2;stroke:none"
           id="rect173" />
      </g>
    </mask>
    <filter
       id="filter1300"
       filterUnits="objectBoundingBox"
       x="0"
       y="0"
       width="1"
       height="1">
      <feColorMatrix
         type="matrix"
         in="SourceGraphic"
         values="0 0 0 0 1 0 0 0 0 1 0 0 0 0 1 0 0 0 1 0"
         id="feColorMatrix1298" />
    </filter>
    <clipPath
       id="clipPath1304">
      <rect
         x="0"
         y="0"
         width="192"
         height="152"
         id="rect1302" />
    </clipPath>
    <clipPath
       id="clip16">
      <rect
         x="0"
         y="0"
         width="192"
         height="152"
         id="rect189" />
    </clipPath>
    <mask
       id="mask12">
      <g
         style="filter:url(#alpha)"
         id="g186">
        <rect
           x="0"
           y="0"
           width="128"
           height="128"
           style="fill:#000000;fill-opacity:0.1;stroke:none"
           id="rect184" />
      </g>
    </mask>
    <filter
       id="filter1313"
       filterUnits="objectBoundingBox"
       x="0"
       y="0"
       width="1"
       height="1">
      <feColorMatrix
         type="matrix"
         in="SourceGraphic"
         values="0 0 0 0 1 0 0 0 0 1 0 0 0 0 1 0 0 0 1 0"
         id="feColorMatrix1311" />
    </filter>
    <clipPath
       id="clipPath1317">
      <rect
         x="0"
         y="0"
         width="192"
         height="152"
         id="rect1315" />
    </clipPath>
    <clipPath
       id="clip2-5">
      <path
         inkscape:connector-curvature="0"
         d="m 8,56 h 56 v 56 H 8 Z m 0,0"
         id="path18-3" />
    </clipPath>
    <clipPath
       id="clip4-6">
      <rect
         x="0"
         y="0"
         width="192"
         height="152"
         id="rect45-2" />
    </clipPath>
    <clipPath
       id="clip5-9">
      <rect
         x="0"
         y="0"
         width="192"
         height="152"
         id="rect56-1" />
    </clipPath>
    <clipPath
       id="clip6-2">
      <rect
         x="0"
         y="0"
         width="192"
         height="152"
         id="rect67-7" />
    </clipPath>
    <clipPath
       id="clip7-0">
      <rect
         x="0"
         y="0"
         width="192"
         height="152"
         id="rect78-9" />
    </clipPath>
    <clipPath
       id="clip8-3">
      <rect
         x="0"
         y="0"
         width="192"
         height="152"
         id="rect89-6" />
    </clipPath>
    <clipPath
       id="clip9-0">
      <rect
         x="0"
         y="0"
         width="192"
         height="152"
         id="rect100-6" />
    </clipPath>
    <clipPath
       id="clip10-8">
      <rect
         x="0"
         y="0"
         width="192"
         height="152"
         id="rect118-7" />
    </clipPath>
    <clipPath
       id="clip11-9">
      <rect
         x="0"
         y="0"
         width="192"
         height="152"
         id="rect129-2" />
    </clipPath>
    <clipPath
       id="clip12-0">
      <rect
         x="0"
         y="0"
         width="192"
         height="152"
         id="rect140-2" />
    </clipPath>
    <clipPath
       id="clip13-3">
      <rect
         x="0"
         y="0"
         width="192"
         height="152"
         id="rect151-7" />
    </clipPath>
    <clipPath
       id="clip14-5">
      <rect
         x="0"
         y="0"
         width="192"
         height="152"
         id="rect162-9" />
    </clipPath>
    <clipPath
       id="clip15-8">
      <rect
         x="0"
         y="0"
         width="192"
         height="152"
         id="rect178-9" />
    </clipPath>
    <clipPath
       id="clip16-7">
      <rect
         x="0"
         y="0"
         width="192"
         height="152"
         id="rect189-3" />
    </clipPath>
    <clipPath
       id="clip4-6-6">
      <rect
         x="0"
         y="0"
         width="192"
         height="152"
         id="rect45-2-1" />
    </clipPath>
    <clipPath
       id="clip5-9-2">
      <rect
         x="0"
         y="0"
         width="192"
         height="152"
         id="rect56-1-9" />
    </clipPath>
    <clipPath
       id="clip6-2-3">
      <rect
         x="0"
         y="0"
         width="192"
         height="152"
         id="rect67-7-1" />
    </clipPath>
    <clipPath
       id="clip7-0-9">
      <rect
         x="0"
         y="0"
         width="192"
         height="152"
         id="rect78-9-4" />
    </clipPath>
    <clipPath
       id="clip8-3-7">
      <rect
         x="0"
         y="0"
         width="192"
         height="152"
         id="rect89-6-8" />
    </clipPath>
    <clipPath
       id="clip9-0-4">
      <rect
         x="0"
         y="0"
         width="192"
         height="152"
         id="rect100-6-5" />
    </clipPath>
    <clipPath
       id="clip10-8-1">
      <rect
         x="0"
         y="0"
         width="192"
         height="152"
         id="rect118-7-0" />
    </clipPath>
    <clipPath
       id="clip11-9-6">
      <rect
         x="0"
         y="0"
         width="192"
         height="152"
         id="rect129-2-3" />
    </clipPath>
    <clipPath
       id="clip12-0-2">
      <rect
         x="0"
         y="0"
         width="192"
         height="152"
         id="rect140-2-0" />
    </clipPath>
    <clipPath
       id="clip13-3-6">
      <rect
         x="0"
         y="0"
         width="192"
         height="152"
         id="rect151-7-1" />
    </clipPath>
    <clipPath
       id="clip14-5-5">
      <rect
         x="0"
         y="0"
         width="192"
         height="152"
         id="rect162-9-5" />
    </clipPath>
    <clipPath
       id="clip15-8-6">
      <rect
         x="0"
         y="0"
         width="192"
         height="152"
         id="rect178-9-5" />
    </clipPath>
    <clipPath
       id="clip16-7-6">
      <rect
         x="0"
         y="0"
         width="192"
         height="152"
         id="rect189-3-9" />
    </clipPath>
  </defs>
  <sodipodi:namedview
     pagecolor="#ffffff"
     bordercolor="#666666"
     borderopacity="1"
     objecttolerance="10"
     gridtolerance="10"
     guidetolerance="10"
     inkscape:pageopacity="0"
     inkscape:pageshadow="2"
     inkscape:window-width="1920"
     inkscape:window-height="1016"
     id="namedview38"
     showgrid="false"
     inkscape:zoom="2.6581702"
     inkscape:cx="129.78307"
     inkscape:cy="91.018728"
     inkscape:window-x="0"
     inkscape:window-y="27"
     inkscape:window-maximized="1"
     inkscape:current-layer="g1386" />
  <linearGradient
     id="a"
     gradientUnits="userSpaceOnUse"
     x1="127.829937"
     x2="127.824937"
     y1="217.671154"
     y2="40.672154">
    <stop
       offset="0"
       stop-color="#f7f7f7"
       id="stop2" />
    <stop
       offset="1"
       stop-color="#e6e6e6"
       id="stop4" />
  </linearGradient>
  <linearGradient
     id="b"
     gradientTransform="matrix(0 -1 1 0 -10.0054 585.9946)"
     gradientUnits="userSpaceOnUse"
     x1="88"
     x2="488"
     y1="88"
     y2="488">
    <stop
       offset="0"
       stop-opacity=".588235"
       id="stop7" />
    <stop
       offset=".88"
       stop-opacity="0"
       id="stop9" />
    <stop
       offset="1"
       id="stop11" />
  </linearGradient>
  <filter
     id="c"
     color-interpolation-filters="sRGB"
     height="1.088"
     width="1.106"
     x="-.05"
     y="-.04">
    <feGaussianBlur
       stdDeviation="8.48"
       id="feGaussianBlur14" />
  </filter>
  <filter
     id="d"
     color-interpolation-filters="sRGB"
     height="1.022"
     width="1.026"
     x="-.01"
     y="-.01">
    <feGaussianBlur
       stdDeviation="2.12"
       id="feGaussianBlur17" />
  </filter>
  <path
     d="m189.84323 74c-70.59344 0-78.18921 7.250835-77.84323 77.98706v146.01294 146.01294c-.34598 70.73623 7.24979 77.98706 77.84323 77.98706h196.31354c70.59344 0 76.00668-7.27384 77.84323-77.98706v-146.01294-146.01294c0-70.737067-7.24979-77.98706-77.84323-77.98706z"
     filter="url(#d)"
     opacity=".1"
     transform="matrix(0 .5 -.5 0 276.82523 -15.328148)"
     id="path20" />
  <path
     d="m189.84323 74c-70.59344 0-78.18921 7.250835-77.84323 77.98706v146.01294 146.01294c-.34598 70.73623 7.24979 77.98706 77.84323 77.98706h196.31354c70.59344 0 77.84323-7.24999 77.84323-77.98706v-146.01294-146.01294c0-70.737067-7.24979-77.98706-77.84323-77.98706z"
     fill="url(#b)"
     filter="url(#c)"
     opacity=".3"
     transform="matrix(0 .5 -.5 0 276.82523 -15.328148)"
     id="path22" />
  <path
     d="m241.83043 77.478254c0-36.098811-3.69016-39.983003-39.68984-39.806081h-74.31016-74.310153c-35.99969-.176922-39.68984 3.70727-39.68984 39.806081v100.387316c0 36.09881 3.68973 39.80608 39.68984 39.80608h74.310153 74.31016c36.00011 0 39.68984-3.70727 39.68984-39.80608z"
     opacity=".1"
     id="path24" />
  <path
     d="m239.82523 176.74483c0 35.29673-3.62542 39.09461-38.99353 38.92162h-73.00647-73.006463c-35.36812.17299-38.99353-3.62489-38.99353-38.92162v-98.156756c0-35.296716 3.625-38.921616 38.99353-38.921616h73.006463 73.00647c35.36853 0 38.99353 3.6249 38.99353 38.921616z"
     fill="url(#a)"
     id="path26"
     style="fill:#37a6e6;fill-opacity:1" />
  <g
     transform="matrix(2.1428571,0,0,2.1428571,-410.49879,4.8522954)"
     id="surface5891">
    <g
       style="clip-rule:nonzero"
       clip-path="url(#clip2)"
       id="g203"
       transform="matrix(0.94827278,0,0,0.98119007,190.65684,-12.087764)" />
    <g
       style="clip-rule:nonzero;fill:#faf8f6;fill-opacity:1"
       clip-path="url(#clip3)"
       id="g207"
       transform="matrix(0.94827278,0,0,0.98119007,190.65684,-12.087764)">
      <path
         style="fill:#faf8f6;fill-opacity:1;fill-rule:nonzero;stroke:none;stroke-width:2.0669806"
         d="M 192.10352 39.666016 L 127.82617 39.666016 L 54.818359 39.666016 C 50.397293 39.666016 46.472281 39.722568 42.988281 39.890625 C 39.504281 40.058682 36.461459 40.339483 33.804688 40.785156 C 31.147916 41.230829 28.876881 41.840982 26.9375 42.673828 C 25.967809 43.090251 25.082422 43.561944 24.271484 44.095703 C 23.460547 44.629462 22.724508 45.225836 22.058594 45.890625 C 21.392679 46.555414 20.79634 47.290095 20.261719 48.099609 C 19.727098 48.909124 19.254948 49.793784 18.837891 50.761719 C 18.003776 52.697588 17.389598 54.963517 16.943359 57.615234 C 16.497121 60.266952 16.218982 63.304126 16.050781 66.78125 C 15.882581 70.258374 15.826172 74.175801 15.826172 78.587891 L 15.826172 130.33398 L 201.25195 130.33398 L 201.25195 55.578125 C 201.25195 48.539723 197.5125 42.542922 192.10352 39.666016 z "
         id="path1410"
         transform="matrix(0.49212282,0,0,0.47561292,0.95886527,10.011678)" />
    </g>
    <path
       style="fill:#1463a5;fill-opacity:1;fill-rule:nonzero;stroke:none;stroke-width:2.17070723"
       d="M 128.10156 215.66602 L 200.83203 215.66602 C 205.25304 215.68764 209.17814 215.64842 212.66211 215.49219 C 216.14608 215.33596 219.18894 215.06271 221.8457 214.62109 C 224.50246 214.17948 226.77351 213.56891 228.71289 212.73438 C 229.68258 212.31711 230.56796 211.84425 231.37891 211.30859 C 232.18985 210.77293 232.92588 210.17335 233.5918 209.50586 C 234.25772 208.83837 234.85404 208.10183 235.38867 207.28906 C 235.9233 206.4763 236.39543 205.58867 236.8125 204.61719 C 237.64663 202.67422 238.26078 200.40066 238.70703 197.74219 C 239.15329 195.08371 239.4314 192.04011 239.59961 188.55859 C 239.76782 185.07708 239.82617 181.15623 239.82617 176.74414 L 239.82617 130.33398 L 128.10156 130.33398 L 128.10156 215.66602 z "
       id="path213"
       transform="matrix(0.46666668,0,0,0.46666668,191.56611,-2.2644046)" />
    <path
       style="fill:#808080;fill-opacity:1;fill-rule:nonzero;stroke:none;stroke-width:2.06698084"
       d="M 239.82617 130.33398 L 239.82617 78.587891 C 239.82617 74.175801 239.76781 70.258374 239.59961 66.78125 C 239.43141 63.304126 239.15327 60.266952 238.70703 57.615234 C 238.26079 54.963517 237.64661 52.697588 236.8125 50.761719 C 236.39544 49.793784 235.92329 48.909124 235.38867 48.099609 C 234.85405 47.290095 234.25771 46.555414 233.5918 45.890625 C 232.92588 45.225836 232.18984 44.629462 231.37891 44.095703 C 230.56797 43.561944 229.68258 43.090251 228.71289 42.673828 C 226.77351 41.840982 224.50247 41.230829 221.8457 40.785156 C 219.18893 40.339483 216.14611 40.058682 212.66211 39.890625 C 209.17811 39.722568 205.2531 39.666016 200.83203 39.666016 L 128.09961 39.666016 L 128.09961 130.33398 L 239.82617 130.33398 z "
       id="path1404"
       transform="matrix(0.46666668,0,0,0.46666668,191.56611,-2.2644046)" />
    <g
       id="g1393"
       clip-path="url(#clip3)"
       style="clip-rule:nonzero" />
  </g>
  <path
     d="m54.818171 39.667201c-35.36853 0-38.992187 3.623202-38.992187 38.919923v98.158196c0 .0882.0019.16224.002.25v-96.410146c-.000047-35.29672 3.625564-38.921879 38.994094-38.921879h73.005852 73.00586c35.28016 0 38.97394 3.621035 38.99219 38.671879v-1.74805c0-35.296721-3.62561-38.919923-38.99414-38.919923h-73.00586z"
     fill="#fff"
     opacity=".3"
     id="path32" />
  <path
     d="m15.825984 174.74532v2c0 35.29673 3.624067 39.09487 38.992187 38.92188h73.007809 73.00586c35.36811.17299 38.99414-3.62515 38.99414-38.92188v-2c0 35.29673-3.62603 39.09487-38.99414 38.92188h-73.00586-73.007809c-35.36812.17299-38.992187-3.62515-38.992187-38.92188z"
     opacity=".2"
     id="path34" />
  <g
     id="g1386"
     transform="matrix(2.1428571,0,0,2.1428571,-9.3176209,10.987722)">
    <path
       id="path217"
       d="m 64,64 h 28 v 4 H 64 Z m 0,0"
       style="fill:#f5f5f3;fill-opacity:1;fill-rule:nonzero;stroke:none"
       inkscape:connector-curvature="0" />
    <g
       transform="translate(-8,-16)"
       id="use219"
       clip-path="url(#clip4-6-6)"
       style="fill:#000000;fill-opacity:1;opacity:0.3">
      <path
         style="fill:#000000;fill-opacity:1;fill-rule:nonzero;stroke:none"
         d="m 44,84 h 28 v 2 H 44 Z m 0,0"
         id="path1285"
         inkscape:connector-curvature="0" />
    </g>
    <g
       transform="translate(-8,-16)"
       id="use221"
       clip-path="url(#clip5-9-2)"
       style="fill:#000000;fill-opacity:1;opacity:0.3">
      <path
         style="fill:#000000;fill-opacity:1;fill-rule:nonzero;stroke:none"
         d="m 72,84 h 28 v 2 H 72 Z m 0,0"
         id="path1281"
         inkscape:connector-curvature="0" />
    </g>
    <path
       id="path223"
       d="m 36,64 h 28 v 4 H 36 Z m 0,0"
       style="fill:#dedcd9;fill-opacity:1;fill-rule:nonzero;stroke:none"
       inkscape:connector-curvature="0" />
    <g
       transform="translate(-8,-16)"
       id="use225"
       clip-path="url(#clip6-2-3)"
       style="fill:#5c5c63;fill-opacity:1">
      <path
         style="fill:#5c5c63;fill-opacity:1;fill-rule:nonzero;stroke:none"
         d="m 72,82 h 28 v 2 H 72 Z m 0,0"
         id="path1277"
         inkscape:connector-curvature="0" />
    </g>
    <path
       id="path227"
       d="m 90,64 -2,4 h 2 l 2,-4 z m 0,0"
       style="fill:#97948f;fill-opacity:1;fill-rule:nonzero;stroke:none"
       inkscape:connector-curvature="0" />
    <path
       id="path229"
       d="m 86,64 -2,4 h 2 l 2,-4 z m 0,0"
       style="fill:#97948f;fill-opacity:1;fill-rule:nonzero;stroke:none"
       inkscape:connector-curvature="0" />
    <path
       id="path231"
       d="m 74,64 -2,4 h 2 l 2,-4 z m 0,0"
       style="fill:#6e6e68;fill-opacity:1;fill-rule:nonzero;stroke:none"
       inkscape:connector-curvature="0" />
    <path
       id="path233"
       d="m 78,64 -2,4 h 2 l 2,-4 z m 0,0"
       style="fill:#bfbdba;fill-opacity:1;fill-rule:nonzero;stroke:none"
       inkscape:connector-curvature="0" />
    <path
       id="path235"
       d="m 82,64 -2,4 h 2 l 2,-4 z m 0,0"
       style="fill:#97948f;fill-opacity:1;fill-rule:nonzero;stroke:none"
       inkscape:connector-curvature="0" />
    <path
       id="path237"
       d="m 46,64 -2,4 h 2 l 2,-4 z m 0,0"
       style="fill:#bfbdba;fill-opacity:1;fill-rule:nonzero;stroke:none"
       inkscape:connector-curvature="0" />
    <path
       id="path239"
       d="m 42,64 -2,4 h 2 l 2,-4 z m 0,0"
       style="fill:#bfbdba;fill-opacity:1;fill-rule:nonzero;stroke:none"
       inkscape:connector-curvature="0" />
    <path
       id="path241"
       d="m 38,64 -2,4 h 2 l 2,-4 z m 0,0"
       style="fill:#bfbdba;fill-opacity:1;fill-rule:nonzero;stroke:none"
       inkscape:connector-curvature="0" />
    <g
       transform="translate(-8,-16)"
       id="use243"
       clip-path="url(#clip7-0-9)"
       style="fill:#5c5c63;fill-opacity:1">
      <path
         style="fill:#5c5c63;fill-opacity:1;fill-rule:nonzero;stroke:none"
         d="m 44,82 h 28 v 2 H 44 Z m 0,0"
         id="path1289"
         inkscape:connector-curvature="0" />
    </g>
    <g
       transform="translate(-8,-16)"
       id="use245"
       clip-path="url(#clip8-3-7)"
       style="fill:#000000;fill-opacity:1;opacity:0.3">
      <path
         style="fill:#000000;fill-opacity:1;fill-rule:nonzero;stroke:none"
         d="M 63.359375,55.386719 62.175781,59.210938 44,114 v 8 L 52,118 69.820312,61.574219 71.003906,57.75 Z m 0,0"
         id="path1293"
         inkscape:connector-curvature="0" />
    </g>
    <g
       transform="translate(-8,-16)"
       id="use247"
       clip-path="url(#clip9-0-4)"
       style="fill:#000000;fill-opacity:1;opacity:0.3">
      <path
         style="fill:#000000;fill-opacity:1;fill-rule:nonzero;stroke:none"
         d="M 80.640625,55.386719 81.824219,59.210938 100,114 v 8 L 92,118 74.175781,61.574219 72.996094,57.75 Z m 0,0"
         id="path1297"
         inkscape:connector-curvature="0" />
    </g>
    <path
       id="path249"
       d="m 60,16 2,4 v 2 h 4 v -2 l 2,-4 z m 0,0"
       style="fill:url(#linear2);fill-rule:nonzero;stroke:none"
       inkscape:connector-curvature="0" />
    <path
       id="path251"
       d="m 58,44.652344 -17.003906,51"
       style="fill:#000000;fill-opacity:1;fill-rule:nonzero;stroke:none"
       inkscape:connector-curvature="0" />
    <path
       id="path253"
       d="m 58,41.390625 -17.003906,53"
       style="fill:#dedcd9;fill-opacity:1;fill-rule:nonzero;stroke:none"
       inkscape:connector-curvature="0" />
    <path
       id="path255"
       d="M 55.359375,36.386719 54.175781,40.210938 36,96 v 8 L 44,100 61.820312,42.574219 63.003906,38.75 Z m 0,0"
       style="fill:#b3b3b0;fill-opacity:1;fill-rule:nonzero;stroke:none"
       inkscape:connector-curvature="0" />
    <path
       id="path257"
       d="m 60,4 h 8 v 12 h -8 z m 0,0"
       style="fill:#75757a;fill-opacity:1;fill-rule:nonzero;stroke:none"
       inkscape:connector-curvature="0" />
    <path
       id="path259"
       d="m 60,4 h 2 v 12 h -2 z m 0,0"
       style="fill:#5c5c63;fill-opacity:1;fill-rule:nonzero;stroke:none"
       inkscape:connector-curvature="0" />
    <path
       id="path261"
       d="m 64,4 h 2 v 12 h -2 z m 0,0"
       style="fill:#5c5c63;fill-opacity:1;fill-rule:nonzero;stroke:none"
       inkscape:connector-curvature="0" />
    <path
       id="path263"
       d="m 70,41.390625 17.003906,53"
       style="fill:#dedcd9;fill-opacity:1;fill-rule:nonzero;stroke:none"
       inkscape:connector-curvature="0" />
    <path
       id="path265"
       d="M 72.640625,36.386719 73.824219,40.210938 92,96 v 8 L 84,100 66.175781,42.574219 64.996094,38.75 Z m 0,0"
       style="fill:#bfbdba;fill-opacity:1;fill-rule:nonzero;stroke:none"
       inkscape:connector-curvature="0" />
    <g
       transform="translate(-8,-16)"
       id="use267"
       clip-path="url(#clip10-8-1)">
      <path
         style="fill:#dedcd9;fill-opacity:1;fill-rule:nonzero;stroke:none"
         d="M 80.640625,52.386719 81.824219,56.210938 100,112 v 8 L 96,113 76.820312,53.570312 Z m 0,0"
         id="path1301"
         inkscape:connector-curvature="0" />
    </g>
    <path
       id="path269"
       d="m 70,41.390625 17.003906,51"
       style="fill:#dedcd9;fill-opacity:1;fill-rule:nonzero;stroke:none"
       inkscape:connector-curvature="0" />
    <path
       id="path271"
       d="M 55.359375,36.386719 54.175781,40.210938 36,96 v 8 l 4,-7 19.179688,-59.429688 z m 0,0"
       style="fill:#ccccca;fill-opacity:1;fill-rule:nonzero;stroke:none"
       inkscape:connector-curvature="0" />
    <path
       id="path273"
       d="m 76,32 c 0,6.628906 -5.371094,12 -12,12 -6.628906,0 -12,-5.371094 -12,-12 0,-6.628906 5.371094,-12 12,-12 6.628906,0 12,5.371094 12,12 z m 0,0"
       style="fill:#5c5c63;fill-opacity:1;fill-rule:nonzero;stroke:none"
       inkscape:connector-curvature="0" />
    <path
       id="path275"
       d="m 72,32 c 0,4.417969 -3.582031,8 -8,8 -4.417969,0 -8,-3.582031 -8,-8 0,-4.417969 3.582031,-8 8,-8 4.417969,0 8,3.582031 8,8 z m 0,0"
       style="fill:#bfbdba;fill-opacity:1;fill-rule:nonzero;stroke:none"
       inkscape:connector-curvature="0" />
    <g
       transform="translate(-8,-16)"
       id="use277"
       clip-path="url(#clip11-9-6)"
       style="fill:#5c5c63;fill-opacity:1">
      <path
         style="fill:#5c5c63;fill-opacity:1;fill-rule:evenodd;stroke:none"
         d="M 44,120.16016 48,113 l 4,3 z m 0,0"
         id="path1305"
         inkscape:connector-curvature="0" />
    </g>
    <g
       transform="translate(-8,-16)"
       id="use279"
       clip-path="url(#clip12-0-2)"
       style="fill:#5c5c63;fill-opacity:1">
      <path
         style="fill:#5c5c63;fill-opacity:1;fill-rule:evenodd;stroke:none"
         d="M 100,120.16016 96,113 l -4,3 z m 0,0"
         id="path1309"
         inkscape:connector-curvature="0" />
    </g>
    <g
       transform="translate(-8,-16)"
       id="use281"
       clip-path="url(#clip13-3-6)"
       style="fill:#5c5c63;fill-opacity:1">
      <path
         style="fill:#5c5c63;fill-opacity:1;fill-rule:evenodd;stroke:none"
         d="M 44,120.16016 48,113 44,112 Z m 0,0"
         id="path1313"
         inkscape:connector-curvature="0" />
    </g>
    <g
       transform="translate(-8,-16)"
       id="use283"
       clip-path="url(#clip14-5-5)"
       style="fill:#5c5c63;fill-opacity:1">
      <path
         style="fill:#5c5c63;fill-opacity:1;fill-rule:evenodd;stroke:none"
         d="m 100,120.07813 -4,-7.15625 4,-1 z m 0,0"
         id="path1317"
         inkscape:connector-curvature="0" />
    </g>
    <path
       id="path285"
       d="m 64,36 c -2.210938,0 -4,-1.789062 -4,-4 0,-2.210938 1.789062,-4 4,-4 2.210938,0 4,1.789062 4,4 0,2.210938 -1.789062,4 -4,4 z m 0,0"
       style="fill:url(#linear3);fill-rule:nonzero;stroke:none"
       inkscape:connector-curvature="0" />
    <path
       id="path287"
       d="m 70,64 -2,4 h 2 l 2,-4 z m -4,0 -2,4 h 2 l 2,-4 z m -4,0 -2,4 h 2 l 2,-4 z m 0,0"
       style="fill:#706e68;fill-opacity:1;fill-rule:nonzero;stroke:none"
       inkscape:connector-curvature="0" />
    <path
       id="path289"
       d="m 58,64 -2,4 h 2 l 2,-4 z m 0,0"
       style="fill:#827f7a;fill-opacity:1;fill-rule:nonzero;stroke:none"
       inkscape:connector-curvature="0" />
    <g
       transform="translate(-8,-16)"
       id="use291"
       clip-path="url(#clip15-8-6)"
       style="fill:#000000;fill-opacity:1;opacity:0.3">
      <path
         style="fill:#000000;fill-opacity:1;fill-rule:nonzero;stroke:none"
         d="m 68,84 v 6 c 0,1.109375 0.890625,2 2,2 h 4 c 1.109375,0 2,-0.890625 2,-2 v -6 z m 0,0"
         id="path1321"
         inkscape:connector-curvature="0" />
    </g>
    <path
       id="path293"
       d="m 62,58 h 4 c 1.105469,0 2,0.894531 2,2 v 12 c 0,1.105469 -0.894531,2 -2,2 h -4 c -1.105469,0 -2,-0.894531 -2,-2 V 60 c 0,-1.105469 0.894531,-2 2,-2 z m 0,0"
       style="fill:#999994;fill-opacity:1;fill-rule:nonzero;stroke:none"
       inkscape:connector-curvature="0" />
    <path
       id="path295"
       d="m 60,63 v 2 h 8 v -2 z m 0,0"
       style="fill:#5c5c63;fill-opacity:1;fill-rule:nonzero;stroke:none"
       inkscape:connector-curvature="0" />
    <path
       id="path297"
       d="m 68,60 v 1 h -8 v -1 z m 0,0"
       style="fill:#75757a;fill-opacity:1;fill-rule:nonzero;stroke:none"
       inkscape:connector-curvature="0" />
    <path
       id="path299"
       d="m 60,67 v 2 h 8 v -2 z m 0,0"
       style="fill:#5c5c63;fill-opacity:1;fill-rule:nonzero;stroke:none"
       inkscape:connector-curvature="0" />
    <path
       id="path301"
       d="m 68,71 v 1 h -8 v -1 z m 0,0"
       style="fill:#75757a;fill-opacity:1;fill-rule:nonzero;stroke:none"
       inkscape:connector-curvature="0" />
    <g
       transform="translate(-8,-16)"
       id="use303"
       clip-path="url(#clip16-7-6)">
      <path
         style="fill:#ffffff;fill-opacity:1;fill-rule:nonzero;stroke:none"
         d="m 68,82 v -6 c 0,-1.109375 0.890625,-2 2,-2 h 4 c 1.109375,0 2,0.890625 2,2 v 6 z m 0,0"
         id="path1325"
         inkscape:connector-curvature="0" />
    </g>
  </g>
</svg>
