<?xml version="1.0" encoding="UTF-8" standalone="no"?>
<svg
   xmlns:dc="http://purl.org/dc/elements/1.1/"
   xmlns:cc="http://creativecommons.org/ns#"
   xmlns:rdf="http://www.w3.org/1999/02/22-rdf-syntax-ns#"
   xmlns:svg="http://www.w3.org/2000/svg"
   xmlns="http://www.w3.org/2000/svg"
   xmlns:sodipodi="http://sodipodi.sourceforge.net/DTD/sodipodi-0.dtd"
   xmlns:inkscape="http://www.inkscape.org/namespaces/inkscape"
   height="256"
   width="256"
   version="1.1"
   id="svg30"
   sodipodi:docname="org.gnome.Chess.svg"
   inkscape:version="0.92.4 (5da689c313, 2019-01-14)">
  <metadata
     id="metadata36">
    <rdf:RDF>
      <cc:Work
         rdf:about="">
        <dc:format>image/svg+xml</dc:format>
        <dc:type
           rdf:resource="http://purl.org/dc/dcmitype/StillImage" />
        <dc:title></dc:title>
      </cc:Work>
    </rdf:RDF>
  </metadata>
  <defs
     id="defs34">
    <filter
       inkscape:collect="always"
       style="color-interpolation-filters:sRGB"
       id="filter2053"
       x="-0.01191028"
       width="1.0238206"
       y="-0.012091082"
       height="1.0241822">
      <feGaussianBlur
         inkscape:collect="always"
         stdDeviation="1.1486528"
         id="feGaussianBlur2055" />
    </filter>
    <filter
       inkscape:collect="always"
       style="color-interpolation-filters:sRGB"
       id="filter2179"
       x="-0.047641119"
       width="1.0952822"
       y="-0.048364329"
       height="1.0967287">
      <feGaussianBlur
         inkscape:collect="always"
         stdDeviation="4.594611"
         id="feGaussianBlur2181" />
    </filter>
  </defs>
  <sodipodi:namedview
     pagecolor="#ffffff"
     bordercolor="#666666"
     borderopacity="1"
     objecttolerance="10"
     gridtolerance="10"
     guidetolerance="10"
     inkscape:pageopacity="0"
     inkscape:pageshadow="2"
     inkscape:window-width="1920"
     inkscape:window-height="1016"
     id="namedview32"
     showgrid="false"
     inkscape:zoom="2.4204648"
     inkscape:cx="173.06663"
     inkscape:cy="127"
     inkscape:window-x="0"
     inkscape:window-y="27"
     inkscape:window-maximized="1"
     inkscape:current-layer="g28" />
  <radialGradient
     id="d"
     cx="86"
     cy="218"
     gradientUnits="userSpaceOnUse"
     r="20"
     gradientTransform="matrix(2.0192914,0,0,2.0192914,-39.614744,-269.50803)">
    <stop
       offset="0"
       stop-color="#fff"
       id="stop2" />
    <stop
       offset="1"
       stop-color="#fff"
       stop-opacity="0"
       id="stop4" />
  </radialGradient>
  <radialGradient
     id="c"
     cx="30.493"
     cy="197.655"
     gradientTransform="matrix(3.1909367,0,0,4.4453044,-78.00501,-760.774)"
     gradientUnits="userSpaceOnUse"
     r="31.25">
    <stop
       offset="0"
       stop-color="#8c839c"
       id="stop7" />
    <stop
       offset="1"
       stop-color="#3d3846"
       id="stop9" />
  </radialGradient>
  <g
     transform="translate(42.305084,-78.711865)"
     id="g28">
    <path
       style="opacity:0.1;fill:#000000;fill-opacity:1;stroke-width:2.15219331;filter:url(#filter2179)"
       d="m 21.442645,93.71187 -0.03578,19.90785 -50.711949,40.89122 10.222308,20.4466 24.9931633,-8.48082 a 20.983884,20.983884 0 0 0 16.4368027,7.94207 c 11.004164,-0.0129 19.766745,-8.52232 20.547991,-19.49634 v 20.03509 c -0.01506,9.97327 -5.811955,17.67789 -15.518345,19.96351 -8.660427,2.04029 -11.412471,-0.61784 -21.818325,3.62414 -15.814315,6.44796 -26.142066,19.9628 -26.144217,37.04046 l 21.9415806,22.37893 c -12.1534356,-0.002 -23.0270296,9.13503 -23.0270296,20.70306 H 102.76586 l -12.522436,25.82613 c -7.997548,0 -17.013319,9.05356 -17.013319,17.05111 l 128.925925,0.16698 c 0,-7.99755 -9.21855,-17.21809 -17.2161,-17.21809 l -32.21558,-66.41318 a 47.602208,47.602208 0 0 0 32.4621,-45.06602 c 0,-26.29119 -21.30972,-47.60271 -47.59875,-47.60272 -13.39544,0 -25.49169,5.5414 -34.14194,14.44681 -6.584157,-26.75005 -30.994143,-45.70019 -60.115211,-45.70019 -0.365871,0.0151 -0.731505,0.0321 -1.097377,0.0537 a 19.909939,19.909939 0 0 0 -0.481096,-5.0416 C 39.681666,100.1378 30.709989,93.729088 21.442645,93.71187 Z M 105.20712,227.8046 a 47.60436,47.60436 0 0 0 17.23201,10.29189 l -19.30152,39.80577 C 102.76177,265.43915 93.25962,257.9626 82.698955,257.9626 l 22.508165,-21.93562 z"
       id="path2169"
       inkscape:connector-curvature="0" />
    <path
       inkscape:connector-curvature="0"
       id="path2051"
       d="m 21.442645,93.71187 -0.03578,19.90785 -50.711949,40.89122 10.222308,20.4466 24.9931633,-8.48082 a 20.983884,20.983884 0 0 0 16.4368027,7.94207 c 11.004164,-0.0129 19.766745,-8.52232 20.547991,-19.49634 v 20.03509 c -0.01506,9.97327 -5.811955,17.67789 -15.518345,19.96351 -8.660427,2.04029 -11.412471,-0.61784 -21.818325,3.62414 -15.814315,6.44796 -26.142066,19.9628 -26.144217,37.04046 l 21.9415806,22.37893 c -12.1534356,-0.002 -23.0270296,9.13503 -23.0270296,20.70306 H 102.76586 l -12.522436,25.82613 c -7.997548,0 -17.013319,9.05356 -17.013319,17.05111 l 128.925925,0.16698 c 0,-7.99755 -9.21855,-17.21809 -17.2161,-17.21809 l -32.21558,-66.41318 a 47.602208,47.602208 0 0 0 32.4621,-45.06602 c 0,-26.29119 -21.30972,-47.60271 -47.59875,-47.60272 -13.39544,0 -25.49169,5.5414 -34.14194,14.44681 -6.584157,-26.75005 -30.994143,-45.70019 -60.115211,-45.70019 -0.365871,0.0151 -0.731505,0.0321 -1.097377,0.0537 a 19.909939,19.909939 0 0 0 -0.481096,-5.0416 C 39.681666,100.1378 30.709989,93.729088 21.442645,93.71187 Z M 105.20712,227.8046 a 47.60436,47.60436 0 0 0 17.23201,10.29189 l -19.30152,39.80577 C 102.76177,265.43915 93.25962,257.9626 82.698955,257.9626 l 22.508165,-21.93562 z"
       style="opacity:0.1;fill:#000000;fill-opacity:1;stroke-width:2.15219331;filter:url(#filter2053)" />
    <path
       style="opacity:0.1;fill:#000000;fill-opacity:1;stroke-width:2.15219331;"
       d="m 21.442645,93.71187 -0.03578,19.90785 -50.711949,40.89122 10.222308,20.4466 24.9931633,-8.48082 a 20.983884,20.983884 0 0 0 16.4368027,7.94207 c 11.004164,-0.0129 19.766745,-8.52232 20.547991,-19.49634 v 20.03509 c -0.01506,9.97327 -5.811955,17.67789 -15.518345,19.96351 -8.660427,2.04029 -11.412471,-0.61784 -21.818325,3.62414 -15.814315,6.44796 -26.142066,19.9628 -26.144217,37.04046 l 21.9415806,22.37893 c -12.1534356,-0.002 -23.0270296,9.13503 -23.0270296,20.70306 H 102.76586 l -12.522436,25.82613 c -7.997548,0 -17.013319,9.05356 -17.013319,17.05111 l 128.925925,0.16698 c 0,-7.99755 -9.21855,-17.21809 -17.2161,-17.21809 l -32.21558,-66.41318 a 47.602208,47.602208 0 0 0 32.4621,-45.06602 c 0,-26.29119 -21.30972,-47.60271 -47.59875,-47.60272 -13.39544,0 -25.49169,5.5414 -34.14194,14.44681 -6.584157,-26.75005 -30.994143,-45.70019 -60.115211,-45.70019 -0.365871,0.0151 -0.731505,0.0321 -1.097377,0.0537 a 19.909939,19.909939 0 0 0 -0.481096,-5.0416 C 39.681666,100.1378 30.709989,93.729088 21.442645,93.71187 Z M 105.20712,227.8046 a 47.60436,47.60436 0 0 0 17.23201,10.29189 l -19.30152,39.80577 C 102.76177,265.43915 93.25962,257.9626 82.698955,257.9626 l 22.508165,-21.93562 z"
       id="path2018"
       inkscape:connector-curvature="0" />
    <path
       d="m 22.553308,95.711875 -0.03595,19.558515 -49.822442,40.17427 10.043569,20.08714 24.5549383,-8.33088 a 20.615746,20.615746 0 0 0 16.1479427,7.80227 c 10.811108,-0.0127 19.418975,-8.37317 20.186515,-19.15466 v -0.008 19.69173 c -0.0148,9.7983 -5.708976,17.36798 -15.245079,19.61351 -8.508489,2.00449 -11.212852,-0.60685 -21.4361467,3.56071 -15.5368708,6.33484 -25.6840473,19.61138 -25.6861613,36.38943 l 21.5566692,21.98801 c -11.940217,-0.002 -22.6223442,8.97367 -22.6223442,20.33876 H 102.83208 c 0,-12.69719 -9.510735,-20.34087 -20.09771,-20.34087 l 22.11277,-21.55244 v -60.52571 c 0,-33.57512 -27.217018,-59.20419 -60.790024,-59.20419 -0.359453,0.0148 -0.718908,0.0317 -1.078361,0.0529 a 19.560642,19.560642 0 0 0 -0.473634,-4.95249 C 40.471034,102.02557 31.658067,95.728791 22.553308,95.711875 Z"
       id="path14"
       inkscape:connector-curvature="0"
       style="fill:#3b3b3b;stroke-width:2.11443543;fill-opacity:1" />
    <path
       style="opacity:0.3;fill:#ffffff;fill-opacity:1;stroke-width:2.11443543"
       d="m 22.554038,95.712577 -0.03681,19.557773 -49.821932,40.17495 0.746479,1.49296 49.075453,-39.57368 0.03681,-19.557768 c 9.104759,0.01692 17.916363,6.312978 19.950451,15.187288 a 19.560642,19.560642 0 0 1 0.474475,4.95131 c 0.359454,-0.0211 0.718342,-0.0364 1.077795,-0.0511 33.57301,0 60.790081,25.62792 60.790081,59.20304 v -2.09424 c 0,-33.57512 -27.217071,-59.20304 -60.790081,-59.20304 -0.359453,0.0148 -0.718341,0.03 -1.077795,0.0511 a 19.560642,19.560642 0 0 0 -0.474475,-4.95131 C 40.470401,102.02556 31.658797,95.729493 22.554038,95.712577 Z m 21.073239,79.820203 c -0.01479,9.7983 -5.708455,17.36747 -15.244558,19.613 -8.508488,2.00449 -11.211936,-0.60695 -21.4352317,3.56061 -15.5368704,6.33484 -25.6849873,19.61133 -25.6871013,36.38938 l 0.05726,0.0593 c 0.788926,-15.81339 10.7272354,-28.27822 25.6298363,-34.35444 10.2232957,-4.16756 12.9267437,-1.55613 21.4352317,-3.56061 9.536103,-2.24554 15.229763,-9.81471 15.244558,-19.61301 z M 0.8529372,257.17522 c -11.1220282,0.91624 -20.6580742,9.50982 -20.6580742,20.247 h 0.122708 c 1.214085,-10.35361 11.3025794,-18.24676 22.4987115,-18.24479 z m 83.9268748,0.006 -2.045146,1.99402 c 9.990862,0 19.018154,6.80936 20.003624,18.24684 h 0.0941 c 0,-11.87255 -8.317161,-19.3227 -18.052568,-20.24086 z"
       id="path843"
       inkscape:connector-curvature="0" />
    <path
       style="opacity:0.2;fill:#0d0d0d;fill-opacity:1;stroke-width:2.11443543"
       d="m 43.627277,153.75396 c -0.767539,10.7815 -9.374536,19.14222 -20.185644,19.15489 A 20.615746,20.615746 0 0 1 7.2931183,165.1066 l -24.5540883,8.33194 -9.297258,-18.59451 -0.746479,0.60127 10.043737,20.08748 24.5540883,-8.33195 a 20.615746,20.615746 0 0 0 16.1485147,7.80225 c 10.811108,-0.0127 19.418105,-8.37338 20.185644,-19.15488 z m -62.309626,79.30688 c -0.03358,0.67303 -0.05718,1.34999 -0.05726,2.03493 l 19.5925512,19.98522 c 0.6504076,-0.0536 1.3036676,-0.0921 1.9633453,-0.092 z m 123.529189,0.37426 -22.112174,21.55181 c 0.68759,0 1.368949,0.0364 2.045146,0.10021 l 20.067028,-19.55778 z m -124.529269,41.89289 c -0.08069,0.68809 -0.122708,1.38598 -0.122708,2.09423 H 102.83238 c 0,-0.71493 -0.0353,-1.41181 -0.0941,-2.09423 z"
       id="path852"
       inkscape:connector-curvature="0" />
    <path
       d="m 136.65882,146.50483 c -25.82783,0 -46.767088,20.93714 -46.767088,46.76497 a 46.769196,46.769196 0 0 0 31.885698,44.29319 l -31.631961,65.23245 c -7.857245,0 -16.714613,8.89543 -16.714613,16.75267 l 126.665254,0.16282 c 0,-7.85725 -9.05824,-16.91548 -16.91548,-16.91548 L 151.53176,237.5482 a 46.767082,46.767082 0 0 0 31.89203,-44.27628 c 0,-25.82994 -20.93715,-46.76708 -46.76497,-46.76709 z"
       id="path20"
       inkscape:connector-curvature="0"
       style="fill:#e3dfd5;stroke-width:2.11443543;fill-opacity:1" />
    <path
       d="m 200.09611,319.71093 c 0,-7.32653 -8.8764,-12.68662 -16.91548,-12.68662 H 90.145469 c -9.176655,0 -16.714613,4.48683 -16.714613,12.5238 0,-8.04542 8.108857,-16.75267 16.714613,-16.75267 h 93.035161 c 8.97366,0 16.91548,8.47255 16.91548,16.91549 z"
       id="path24"
       inkscape:connector-curvature="0"
       style="fill:#f6f5f4;stroke-width:2.11443543" />
    <path
       style="opacity:0.3;fill:#f8f8f8;fill-opacity:1;stroke-width:2.11443543"
       d="m 136.65917,146.5039 c -25.82783,0 -46.766482,20.93864 -46.766482,46.76647 a 46.769196,46.769196 0 0 0 0.03477,0.68309 c 0.747861,-25.17348 21.377032,-45.35532 46.731702,-45.35532 25.48769,0 46.19642,20.39425 46.73785,45.75413 a 46.767082,46.767082 0 0 0 0.0266,-1.07984 c 0,-25.82996 -20.93662,-46.76853 -46.76444,-46.76853 z m 15.72517,92.80284 a 46.767082,46.767082 0 0 1 -0.85282,0.3354 l 31.64871,65.24851 c 7.16654,0 15.31023,7.53439 16.69048,14.82121 h 0.22496 c 0,-7.85724 -9.05819,-16.91545 -16.91544,-16.91545 z m -31.47079,0.0368 -30.767261,63.45287 c -7.857245,0 -16.715021,8.8946 -16.715021,16.75184 h 0.220879 c 1.353399,-7.26153 9.329115,-14.6576 16.494142,-14.6576 l 31.630311,-65.2342 a 46.769196,46.769196 0 0 1 -0.86305,-0.31291 z"
       id="path872"
       inkscape:connector-curvature="0" />
    <path
       style="opacity:0.2;fill:#000000;fill-opacity:1;stroke-width:2.11443543"
       d="m 89.927463,191.85923 c -0.01396,0.46978 -0.03477,0.93798 -0.03477,1.41114 a 46.769196,46.769196 0 0 0 31.020867,43.97894 l 0.86305,-1.78133 A 46.769196,46.769196 0 0 1 89.927463,191.85923 Z m 93.469557,0.3988 a 46.767082,46.767082 0 0 1 -31.8655,43.19564 l 0.85282,1.75883 a 46.767082,46.767082 0 0 0 31.03927,-43.94007 c 0,-0.34017 -0.0194,-0.67597 -0.0266,-1.0144 z M 73.652147,317.45402 c -0.130754,0.70154 -0.220879,1.402 -0.220879,2.09423 l 126.664402,0.16361 c 0,-0.69071 -0.0919,-1.39194 -0.22496,-2.09423 z"
       id="path877"
       inkscape:connector-curvature="0" />
  </g>
</svg>
