<?xml version="1.0" encoding="UTF-8" standalone="no"?>
<svg
   xmlns:dc="http://purl.org/dc/elements/1.1/"
   xmlns:cc="http://creativecommons.org/ns#"
   xmlns:rdf="http://www.w3.org/1999/02/22-rdf-syntax-ns#"
   xmlns:svg="http://www.w3.org/2000/svg"
   xmlns="http://www.w3.org/2000/svg"
   xmlns:xlink="http://www.w3.org/1999/xlink"
   xmlns:sodipodi="http://sodipodi.sourceforge.net/DTD/sodipodi-0.dtd"
   xmlns:inkscape="http://www.inkscape.org/namespaces/inkscape"
   enable-background="new"
   height="256"
   viewBox="0 0 256 256"
   width="256"
   version="1.1"
   id="svg64"
   sodipodi:docname="org.gnome.SoundRecorder.svg"
   inkscape:version="0.92.5 (2060ec1f9f, 2020-04-08)">
  <metadata
     id="metadata70">
    <rdf:RDF>
      <cc:Work
         rdf:about="">
        <dc:format>image/svg+xml</dc:format>
        <dc:type
           rdf:resource="http://purl.org/dc/dcmitype/StillImage" />
      </cc:Work>
    </rdf:RDF>
  </metadata>
  <defs
     id="defs68">
    <linearGradient
       inkscape:collect="always"
       xlink:href="#radialGradient3322-7"
       id="linearGradient4886"
       x1="63.997299"
       y1="211.9973"
       x2="239.9973"
       y2="99.997299"
       gradientUnits="userSpaceOnUse"
       gradientTransform="rotate(90,152.10029,132.49985)" />
    <radialGradient
       id="radialGradient3322-7"
       gradientUnits="userSpaceOnUse"
       cy="-2.0645001"
       cx="26.617001"
       gradientTransform="matrix(-4.8906e-8,-2.8515,3.7557,0,674.00149,398.26285)"
       r="23">
      <stop
         id="stop2749-5"
         style="stop-color:#d280b9;stop-opacity:1"
         offset="0" />
      <stop
         offset="0.52913231"
         style="stop-color:#b549b5;stop-opacity:1"
         id="stop4269-3" />
      <stop
         id="stop2755-5"
         style="stop-color:#8940a8;stop-opacity:1"
         offset="1" />
    </radialGradient>
    <filter
       inkscape:collect="always"
       style="color-interpolation-filters:sRGB"
       id="filter53827"
       x="-0.042857721"
       width="1.0857154"
       y="-0.05454452"
       height="1.109089">
      <feGaussianBlur
         inkscape:collect="always"
         stdDeviation="4.0000539"
         id="feGaussianBlur53829" />
    </filter>
    <filter
       inkscape:collect="always"
       style="color-interpolation-filters:sRGB"
       id="filter53855"
       x="-0.01071443"
       width="1.0214289"
       y="-0.01363613"
       height="1.0272723">
      <feGaussianBlur
         inkscape:collect="always"
         stdDeviation="1.0000135"
         id="feGaussianBlur53857" />
    </filter>
  </defs>
  <sodipodi:namedview
     pagecolor="#ffffff"
     bordercolor="#666666"
     borderopacity="1"
     objecttolerance="10"
     gridtolerance="10"
     guidetolerance="10"
     inkscape:pageopacity="0"
     inkscape:pageshadow="2"
     inkscape:window-width="834"
     inkscape:window-height="480"
     id="namedview66"
     showgrid="false"
     inkscape:zoom="0.921875"
     inkscape:cx="131.11854"
     inkscape:cy="128"
     inkscape:window-x="620"
     inkscape:window-y="280"
     inkscape:window-maximized="0"
     inkscape:current-layer="svg64" />
  <linearGradient
     id="a"
     gradientTransform="matrix(0 -1 1 0 -10.0054 585.9946)"
     gradientUnits="userSpaceOnUse"
     x1="88"
     x2="488"
     y1="88"
     y2="488">
    <stop
       offset="0"
       stop-opacity=".588235"
       id="stop2" />
    <stop
       offset=".88"
       stop-opacity="0"
       id="stop4" />
    <stop
       offset="1"
       id="stop6" />
  </linearGradient>
  <filter
     id="b"
     color-interpolation-filters="sRGB"
     height="1.088"
     width="1.106"
     x="-.05"
     y="-.04">
    <feGaussianBlur
       stdDeviation="8.48"
       id="feGaussianBlur9" />
  </filter>
  <filter
     id="c"
     color-interpolation-filters="sRGB"
     height="1.022"
     width="1.026"
     x="-.01"
     y="-.01">
    <feGaussianBlur
       stdDeviation="2.12"
       id="feGaussianBlur12" />
  </filter>
  <linearGradient
     id="d"
     gradientUnits="userSpaceOnUse"
     x1="228.79273"
     x2="180.792732"
     y1="233.687442"
     y2="233.687442">
    <stop
       offset="0"
       stop-color="#46a926"
       id="stop15" />
    <stop
       offset="1"
       stop-color="#26a269"
       stop-opacity="0"
       id="stop17" />
  </linearGradient>
  <path
     style="color:#000000;display:inline;overflow:visible;visibility:visible;opacity:0.1;fill:#000000;fill-opacity:1;fill-rule:nonzero;stroke:none;stroke-width:1;marker:none;filter:url(#filter53855);enable-background:accumulate"
     d="m 240.60013,182.47286 c 0,35.29673 -3.62542,39.09461 -38.99353,38.92162 H 128.60013 55.593661 C 20.225541,221.56747 16.60013,217.76959 16.60013,182.47286 V 84.316088 c 0,-35.29671 3.625001,-38.92161 38.993531,-38.92161 h 73.006469 73.00647 c 35.36853,0 38.99353,3.6249 38.99353,38.92161 z"
     id="rect4158-8"
     inkscape:connector-curvature="0"
     sodipodi:nodetypes="scccssscsss" />
  <path
     style="color:#000000;display:inline;overflow:visible;visibility:visible;opacity:0.2;fill:#000000;fill-opacity:1;fill-rule:nonzero;stroke:none;stroke-width:1;marker:none;filter:url(#filter53827);enable-background:accumulate"
     d="m 240.60013,182.47286 c 0,35.29673 -3.62542,39.09461 -38.99353,38.92162 H 128.60013 55.593661 C 20.225541,221.56747 16.60013,217.76959 16.60013,182.47286 V 84.316088 c 0,-35.29671 3.625001,-38.92161 38.993531,-38.92161 h 73.006469 73.00647 c 35.36853,0 38.99353,3.6249 38.99353,38.92161 z"
     id="rect4158-9"
     inkscape:connector-curvature="0"
     sodipodi:nodetypes="scccssscsss" />
  <path
     style="color:#000000;display:inline;overflow:visible;visibility:visible;fill:url(#linearGradient4886);fill-opacity:1;fill-rule:nonzero;stroke:none;stroke-width:1;marker:none;enable-background:accumulate"
     d="m 240.60013,181.47256 c 0,35.29673 -3.62542,39.09461 -38.99353,38.92162 H 128.60013 55.593661 C 20.225541,220.56717 16.60013,216.76929 16.60013,181.47256 V 83.315788 c 0,-35.29671 3.625001,-38.92161 38.993531,-38.92161 h 73.006469 73.00647 c 35.36853,0 38.99353,3.6249 38.99353,38.92161 z"
     id="rect4158"
     inkscape:connector-curvature="0"
     sodipodi:nodetypes="scccssscsss" />
  <path
     inkscape:connector-curvature="0"
     id="rect1487"
     style="display:inline;fill:#f3e8f0;fill-opacity:1;stroke-width:4;enable-background:new"
     d="m 72.602831,80.396868 v 52.000002 h 8 V 80.396868 Z m -16,8 v 44.000002 h 8 V 88.396868 Z m 32,0 v 44.000002 h 8 V 88.396868 Z m 95.999999,8 v 36.000002 h 8 V 96.396868 Z M 40.602831,104.39687 v 28 h 8 v -28 z m 63.999999,0 v 28 h 8 v -28 z m 64,0 v 28 h 8 v -28 z m 32,0 v 28 h 8 v -28 z m -175.999999,16 v 12 h 8 v -12 z m 95.999999,0 v 12 h 8 v -12 z m 32,0 v 12 h 8 v -12 z m 64,0 v 12 h 8 v -12 z m -80,8 v 4 h 8 v -4 z" />
  <path
     inkscape:connector-curvature="0"
     id="rect1487-3"
     style="display:inline;opacity:0.7;fill:#faf8f6;fill-opacity:1;stroke-width:4;enable-background:new"
     d="m 72.602831,184.39688 v -52.00001 h 8 v 52.00001 z m -16,-8 v -44.00001 h 8 v 44.00001 z m 32,0 v -44.00001 h 8 v 44.00001 z m 95.999999,-8 v -36.00001 h 8 v 36.00001 z m -143.999999,-8 v -28.00001 h 8 v 28.00001 z m 63.999999,0 v -28.00001 h 8 v 28.00001 z m 64,0 v -28.00001 h 8 v 28.00001 z m 32,0 v -28.00001 h 8 v 28.00001 z m -175.999999,-16 v -12.00001 h 8 v 12.00001 z m 95.999999,0 v -12.00001 h 8 v 12.00001 z m 32,0 v -12.00001 h 8 v 12.00001 z m 64,0 v -12.00001 h 8 v 12.00001 z m -80,-8 v -4.00001 h 8 v 4.00001 z" />
  <path
     style="color:#000000;display:inline;overflow:visible;visibility:visible;opacity:0.3;fill:#ffffff;fill-opacity:1;fill-rule:nonzero;stroke:none;stroke-width:1;marker:none;enable-background:accumulate"
     d="m 55.593065,44.394918 c -35.36853,0 -38.992188,3.6232 -38.992188,38.91992 v 98.158212 c 0,0.0882 0.0019,0.16224 0.002,0.25 V 85.312888 c -4.7e-5,-35.29672 3.625565,-38.92188 38.994095,-38.92188 h 73.005858 73.00586 c 35.28016,0 38.97394,3.62104 38.99219,38.67188 v -1.74805 c 0,-35.29672 -3.62561,-38.91992 -38.99414,-38.91992 h -73.00586 z"
     id="rect4158-78"
     inkscape:connector-curvature="0" />
  <path
     style="color:#000000;display:inline;overflow:visible;visibility:visible;opacity:0.2;fill:#000000;fill-opacity:1;fill-rule:nonzero;stroke:none;stroke-width:1;marker:none;enable-background:accumulate"
     d="m 16.600877,179.47305 v 2 c 0,35.29673 3.624068,39.09487 38.992188,38.92188 h 73.007815 73.00586 c 35.36811,0.17299 38.99414,-3.62515 38.99414,-38.92188 v -2 c 0,35.29673 -3.62603,39.09487 -38.99414,38.92188 H 128.60088 55.593065 c -35.36812,0.17299 -38.992188,-3.62515 -38.992188,-38.92188 z"
     id="rect4158-6"
     inkscape:connector-curvature="0" />
</svg>
