<svg height="256" width="256" xmlns="http://www.w3.org/2000/svg" xmlns:xlink="http://www.w3.org/1999/xlink">
  <filter id="filter946" color-interpolation-filters="sRGB" height="1.067" width="1.555" x="-.28" y="-.03">
    <feGaussianBlur stdDeviation="1.85"/>
  </filter>
  <linearGradient id="linearGradient4358" gradientUnits="userSpaceOnUse" x1="88" x2="488" y1="88" y2="488">
    <stop offset="0" stop-opacity=".588235"/>
    <stop offset=".88" stop-opacity="0"/>
    <stop offset="1"/>
  </linearGradient>
  <filter id="filter4380" color-interpolation-filters="sRGB" height="1.088" width="1.106" x="-.05" y="-.04">
    <feGaussianBlur stdDeviation="8.48"/>
  </filter>
  <filter id="filter4346" color-interpolation-filters="sRGB" height="1.022" width="1.026" x="-.01" y="-.01">
    <feGaussianBlur stdDeviation="2.12"/>
  </filter>
  <g stroke="#000">
    <path d="m189.84323 74c-70.59344 0-78.18921 7.250835-77.84323 77.98706v146.01294 146.01294c-.34598 70.73623 7.24979 77.98706 77.84323 77.98706h196.31354c70.59344 0 76.00668-7.27384 77.84323-77.98706v-146.01294-146.01294c0-70.737067-7.24979-77.98706-77.84323-77.98706z" filter="url(#filter4346)" opacity=".1" transform="matrix(.5 0 0 .5 -17.194334 -20.752013)"/>
    <path d="m189.84323 74c-70.59344 0-78.18921 7.250835-77.84323 77.98706v146.01294 146.01294c-.34598 70.73623 7.24979 77.98706 77.84323 77.98706h196.31354c70.59344 0 77.84323-7.24999 77.84323-77.98706v-146.01294-146.01294c0-70.737067-7.24979-77.98706-77.84323-77.98706z" fill="url(#linearGradient4358)" filter="url(#filter4380)" opacity=".3" transform="matrix(.5 0 0 .5 -17.194334 -20.752013)"/>
    <path d="m76.617266 13.247988c-36.09881 0-39.983 3.690157-39.80608 39.689841v74.310161 74.31015c-.17692 35.99969 3.70727 39.68984 39.80608 39.68984h100.387324c36.09881 0 39.80608-3.68973 39.80608-39.68984v-74.31015-74.310161c0-36.000113-3.70727-39.689841-39.80608-39.689841z" opacity=".1"/>
    <path d="m175.87865 15.247988c35.29673 0 39.09461 3.625417 38.92162 38.99353v73.006472 73.00646c.17299 35.36812-3.62489 38.99353-38.92162 38.99353h-98.156764c-35.29672 0-38.92162-3.625-38.92162-38.99353v-73.00646-73.006472c0-35.368534 3.6249-38.99353 38.92162-38.99353z" fill="#303030"/>
    <path d="m77.727546 15.247988c-35.29673 0-39.09487 3.626028-38.92188 38.994141v2c-.17299-35.368113 3.62515-38.994142 38.92188-38.994142h98.156244c35.29673 0 38.92188 3.625608 38.92188 38.994142v-2c0-35.368534-3.62515-38.994141-38.92188-38.994141z" fill="#fff" opacity=".3"/>
    <path d="m126.80567 15.247988v223.999992h49.07227c35.29673 0 39.09486-3.62602 38.92187-38.99414v-73.00585-73.005861c.17299-35.368113-3.62514-38.994141-38.92187-38.994141z" fill="#fff" opacity=".1"/>
    <path d="m126.80567 15.247981v7.999999h8v-7.999999zm0 7.999999h-8v8h8zm0 8v8h8v-8zm0 8h-8v8.000001h8zm0 8.000001v8h8v-8zm0 8h-8v7.999999h8zm0 7.999999v7.999998h8v-7.999998zm0 7.999998h-8v7.999999h8zm0 7.999999v8h8v-8zm0 8h-8v8h8zm0 8v8.000003h8v-8.000003zm0 8.000003h-8v8h8zm0 8v8.00001h8v-8.00001z" opacity=".1"/>
    <path d="m118.80567 17.247978v8h8v-8zm8 8v8h8v-8zm0 8h-8v8h8zm0 8v8.000001h8v-8.000001zm0 8.000001h-8v8h8zm0 8v7.999999h8v-7.999999zm0 7.999999h-8v7.999999h8zm0 7.999999v8h8v-8zm0 8h-8v8h8zm0 8v8h8v-8zm0 8h-8v8.000003h8zm0 8.000003v8.00001h8v-8.00001zm0 8.00001h-8v8 30c0 1.10799.892 1.99999 2 1.99999h12c1.108 0 2-.892 2-1.99999v-30h-8zm-4 28h8v8h-8z" filter="url(#filter946)" opacity=".2"/>
    <path d="m118.80567 119.24799v30c0 1.108.892 2 2 2h12c1.108 0 2-.892 2-2v-30zm4 20h8v8h-8z" fill="#faf8f6"/>
    <path d="m126.80567 15.247981v7.999999h-8v-7.999999zm0 7.999999h8v8h-8zm0 8v8h-8v-8zm0 8h8v8.000001h-8zm0 8.000001v8h-8v-8zm0 8h8v7.999999h-8zm0 7.999999v7.999998h-8v-7.999998zm0 7.999998h8v7.999999h-8zm0 7.999999v8h-8v-8zm0 8h8v8h-8zm0 8v8.000003h-8v-8.000003zm0 8.000003h8v8h-8zm0 8v8.00001h-8v-8.00001z" fill="#f1f0e9"/>
    <path d="m77.732946 239.24798c-35.296735 0-39.094875-3.62603-38.921885-38.99414v-2c-.17299 35.36811 3.62515 38.99414 38.921885 38.99414h98.156244c35.29673 0 38.92188-3.62561 38.92188-38.99414v2c0 35.36853-3.62515 38.99414-38.92188 38.99414z" opacity=".2"/>
  </g>
  <path d="m791.79993 133.80741h168.59213v51.0213c-43.95033 52.89305-71.72632 113.87327-74.31363 187.44783h-57.67626c2.26985-63.39403 8.83583-125.71401 57.67626-177.4654h-94.2785z" fill="#fff" fill-rule="evenodd" transform="matrix(.18745030032 0 0 .1868426654 -72.31514463936 144.6148655621)"/>
  <path d="m871.22879 665.34896v175.25h36.59375v-175.25zm-130.875 1.09375v39.9375h56.5625l-58.78125 96.5v38.8125h107.59375v-38.8125h-68.78125l71-100.9375v-35.5zm200.71875.0625v176.21875h39.9375v-62.0625h26.59376c42.5893-.14551 43.7196-115.49542-2.25-114.15625zm37.71875 37.71875h15.59375c17.34766-.59446 17.71316 38.93681 0 36.5l-14.40625 1.21875z" fill="#fff" fill-rule="evenodd" transform="matrix(.18637023313 0 0 .18407463105 -16.26927273522 59.66635935342)"/>
</svg>
