<?xml version="1.0" encoding="UTF-8" standalone="no"?>
<svg
   xmlns:dc="http://purl.org/dc/elements/1.1/"
   xmlns:cc="http://creativecommons.org/ns#"
   xmlns:rdf="http://www.w3.org/1999/02/22-rdf-syntax-ns#"
   xmlns:svg="http://www.w3.org/2000/svg"
   xmlns="http://www.w3.org/2000/svg"
   xmlns:sodipodi="http://sodipodi.sourceforge.net/DTD/sodipodi-0.dtd"
   xmlns:inkscape="http://www.inkscape.org/namespaces/inkscape"
   width="256"
   height="256"
   version="1.1"
   viewBox="0 0 67.73 67.73"
   id="svg68"
   sodipodi:docname="pgmodeler.svg"
   inkscape:version="0.92.4 (5da689c313, 2019-01-14)">
  <metadata
     id="metadata72">
    <rdf:RDF>
      <cc:Work
         rdf:about="">
        <dc:format>image/svg+xml</dc:format>
        <dc:type
           rdf:resource="http://purl.org/dc/dcmitype/StillImage" />
      </cc:Work>
    </rdf:RDF>
  </metadata>
  <sodipodi:namedview
     pagecolor="#ffffff"
     bordercolor="#666666"
     borderopacity="1"
     objecttolerance="10"
     gridtolerance="10"
     guidetolerance="10"
     inkscape:pageopacity="0"
     inkscape:pageshadow="2"
     inkscape:window-width="1920"
     inkscape:window-height="1016"
     id="namedview70"
     showgrid="false"
     showguides="false"
     inkscape:zoom="3.3627651"
     inkscape:cx="129.67207"
     inkscape:cy="127.87696"
     inkscape:window-x="0"
     inkscape:window-y="27"
     inkscape:window-maximized="1"
     inkscape:current-layer="g62" />
  <defs
     id="defs26">
    <linearGradient
       id="linearGradient1108"
       x1="296"
       x2="296"
       y1="-212"
       y2="202.4"
       gradientUnits="userSpaceOnUse">
      <stop
         style="stop-color:#ffffff"
         offset="0"
         id="stop2" />
      <stop
         style="stop-color:#ffffff;stop-opacity:.09803922"
         offset=".135"
         id="stop4" />
      <stop
         style="stop-color:#ffffff;stop-opacity:0"
         offset="1"
         id="stop6" />
    </linearGradient>
    <clipPath
       id="clipPath1082-3-3675">
      <path
         d="M 361.9375,-212 C 507.2348,-212 528,-191.28677 528,-46.125 V 70.125 C 528,215.28618 507.2348,236 361.9375,236 H 214.0625 C 68.7652,236 48,215.28618 48,70.125 V -46.125 C 48,-191.28677 68.7652,-212 214.0625,-212 Z"
         style="fill:#8c59d9"
         id="path9" />
    </clipPath>
    <filter
       id="filter910"
       x="-.02"
       y="-.03"
       width="1.046"
       height="1.05"
       style="color-interpolation-filters:sRGB">
      <feGaussianBlur
         stdDeviation="2.32"
         id="feGaussianBlur12" />
    </filter>
    <filter
       id="filter4569"
       x="-.01"
       y="-.01"
       width="1.023"
       height="1.025"
       style="color-interpolation-filters:sRGB">
      <feGaussianBlur
         stdDeviation="1.16"
         id="feGaussianBlur15" />
    </filter>
    <filter
       id="filter2574"
       x="-.06"
       y="-.04"
       width="1.119"
       height="1.081"
       style="color-interpolation-filters:sRGB">
      <feGaussianBlur
         stdDeviation="5.92"
         id="feGaussianBlur18" />
    </filter>
    <linearGradient
       id="linearGradient2584"
       x1="118.322"
       x2="291.279"
       y1="112.504"
       y2="442.096"
       gradientUnits="userSpaceOnUse">
      <stop
         style="stop-color:#e2e9ee;stop-opacity:.99607843"
         offset="0"
         id="stop21" />
      <stop
         style="stop-color:#5380a3;stop-opacity:.99607843"
         offset="1"
         id="stop23" />
    </linearGradient>
    <filter
       inkscape:collect="always"
       style="color-interpolation-filters:sRGB"
       id="filter924"
       x="-0.012222258"
       width="1.0244445"
       y="-0.011785681"
       height="1.0235714">
      <feGaussianBlur
         inkscape:collect="always"
         stdDeviation="1.9745586"
         id="feGaussianBlur926" />
    </filter>
    <filter
       inkscape:collect="always"
       style="color-interpolation-filters:sRGB"
       id="filter942"
       x="-0.048889034"
       width="1.0977781"
       y="-0.047142722"
       height="1.0942854">
      <feGaussianBlur
         inkscape:collect="always"
         stdDeviation="7.8982344"
         id="feGaussianBlur944" />
    </filter>
  </defs>
  <g
     transform="translate(2.8699153,-232.42357)"
     id="g66">
    <g
       transform="matrix(0.12974173,0,0,0.12974173,3.8344818,227.85345)"
       style="enable-background:new"
       id="g64">
      <g
         transform="matrix(1.1562977,0,0,1.1562977,-49.864198,-7.0681092)"
         id="g62">
        <path
           style="fill:#000000;fill-opacity:1;stroke-width:1.01876318;opacity:0.1;filter:url(#filter942)"
           d="M 61.972539,61.483035 V 133.28261 H 133.77212 V 61.483035 Z m 215.405751,0 v 71.799575 71.80309 h 71.8031 71.80308 V 133.28261 H 349.18139 V 61.483035 Z M 33.254111,276.88878 v 71.8031 h 71.799579 v -71.8031 z m 71.799579,71.8031 v 71.79958 h 71.8031 v -71.79958 z m 244.1277,-28.71843 v 71.79957 h 71.80308 v -71.79957 z m 0,71.79957 h -71.8031 v 71.8031 h 71.8031 z"
           id="path928"
           inkscape:connector-curvature="0" />
        <path
           inkscape:connector-curvature="0"
           id="path922"
           d="M 61.972539,61.483035 V 133.28261 H 133.77212 V 61.483035 Z m 215.405751,0 v 71.799575 71.80309 h 71.8031 71.80308 V 133.28261 H 349.18139 V 61.483035 Z M 33.254111,276.88878 v 71.8031 h 71.799579 v -71.8031 z m 71.799579,71.8031 v 71.79958 h 71.8031 v -71.79958 z m 244.1277,-28.71843 v 71.79957 h 71.80308 v -71.79957 z m 0,71.79957 h -71.8031 v 71.8031 h 71.8031 z"
           style="fill:#000000;fill-opacity:1;stroke-width:1.01876318;opacity:0.1;filter:url(#filter924)" />
        <path
           style="fill:#181926;fill-opacity:1;stroke-width:1.01876318;opacity:0.1"
           d="M 61.972539,61.483035 V 133.28261 H 133.77212 V 61.483035 Z m 215.405751,0 v 71.799575 71.80309 h 71.8031 71.80308 V 133.28261 H 349.18139 V 61.483035 Z M 33.254111,276.88878 v 71.8031 h 71.799579 v -71.8031 z m 71.799579,71.8031 v 71.79958 h 71.8031 v -71.79958 z m 244.1277,-28.71843 v 71.79957 h 71.80308 v -71.79957 z m 0,71.79957 h -71.8031 v 71.8031 h 71.8031 z"
           id="rect899"
           inkscape:connector-curvature="0" />
        <rect
           x="64.970001"
           y="65.360001"
           width="70.478996"
           height="70.478996"
           style="fill:#3a48a8"
           id="rect38" />
        <rect
           x="276.41"
           y="65.360001"
           width="70.478996"
           height="70.478996"
           style="fill:#878186"
           id="rect40" />
        <rect
           x="276.41"
           y="135.84"
           width="70.478996"
           height="70.478996"
           style="fill:#85d33a"
           id="rect42" />
        <rect
           x="346.89001"
           y="319.09"
           width="70.478996"
           height="70.478996"
           style="fill:#ffba52"
           id="rect44" />
        <rect
           x="276.41"
           y="389.57001"
           width="70.478996"
           height="70.478996"
           style="fill:#878186"
           id="rect46" />
        <rect
           x="107.26"
           y="347.28"
           width="70.478996"
           height="70.478996"
           style="fill:#85d33a"
           id="rect48" />
        <rect
           x="36.779999"
           y="276.79999"
           width="70.478996"
           height="70.478996"
           style="fill:#cb383c"
           id="rect50" />
        <rect
           x="346.89001"
           y="135.84"
           width="70.478996"
           height="70.478996"
           style="fill:#3a48a8"
           id="rect52" />
        <path
           d="m 143.60151,96.827624 c 31.66806,-5.892663 71.53152,-3.868837 104.80713,6.374846 21.52239,5.47843 36.41578,16.8474 49.85482,32.15444 21.62925,26.71593 34.65976,61.15341 34.10216,92.30929 2.78264,41.32748 -8.10439,84.21128 -30.38311,110.09143 -10.13551,11.50715 -32.01422,29.37719 -51.78906,47.65816 0,0 -5.24407,6.28157 -4.96268,10.02067 0.42119,5.59807 3.68432,9.13021 6.97251,12.76328 1.86557,2.06126 4.83438,3.93167 7.59303,5.72463 7.58706,4.05097 6.93864,13.78994 4.29459,18.23752 -5.9415,6.1208 -12.75972,9.43124 -20.26823,12.13498 -8.94352,3.29503 -12.46575,1.67846 -17.86489,-4.96174 -5.19426,-5.97897 -8.94279,-12.14638 -12.00257,-18.65498 -6.60658,-12.07194 -7.74839,-23.16388 -6.13949,-35.76107 1.74896,-5.68955 5.17919,-10.60619 10.45181,-17.78664 8.05099,-10.09871 15.97364,-18.24274 23.51635,-30.96113 5.18884,-8.21157 -0.41472,-10.03166 -3.96647,-13.25857 -17.79058,-15.98149 -36.62127,-25.1904 -48.07347,-43.34982 14.1389,-15.59447 16.10166,-34.3268 20.21148,-52.50585 -17.15087,34.14688 -27.68583,57.30105 -61.56207,46.82854 -14.53198,-5.9358 -26.67743,-16.41609 -34.91934,-26.29236 -22.470248,-30.69519 -20.389052,-59.39596 -20.161955,-71.24079 0.299294,-15.20822 3.65273,-36.12999 13.163905,-51.5246 8.83694,-16.23057 21.70598,-22.90271 37.12555,-28.000236 z"
           style="opacity:0.5;filter:url(#filter2574)"
           id="path54"
           inkscape:connector-curvature="0" />
        <path
           style="fill:#f7f7f7;stroke-width:0.56703287;fill-opacity:1;opacity:0.3"
           d="M 37.728516 16.322266 L 37.728516 18.322266 L 77.691406 18.322266 L 77.691406 16.322266 L 37.728516 16.322266 z M 157.62109 16.322266 L 157.62109 18.322266 L 197.58594 18.322266 L 197.58594 16.322266 L 157.62109 16.322266 z M 197.58594 56.285156 L 197.58594 58.285156 L 237.55078 58.285156 L 237.55078 56.285156 L 197.58594 56.285156 z M 21.744141 136.21484 L 21.744141 138.21484 L 61.707031 138.21484 L 61.707031 136.21484 L 21.744141 136.21484 z M 197.58594 160.19531 L 197.58594 162.19531 L 237.55078 162.19531 L 237.55078 160.19531 L 197.58594 160.19531 z M 61.707031 176.17969 L 61.707031 178.17969 L 101.67188 178.17969 L 101.67188 176.17969 L 61.707031 176.17969 z M 157.62109 200.1582 L 157.62109 202.1582 L 197.58594 202.1582 L 197.58594 200.1582 L 157.62109 200.1582 z "
           transform="matrix(1.7635662,0,0,1.7635662,-1.5659891,36.576099)"
           id="rect879" />
        <path
           style="fill:#060606;stroke-width:0.56703287;fill-opacity:1;opacity:0.2"
           d="M 37.728516 54.285156 L 37.728516 56.285156 L 77.691406 56.285156 L 77.691406 54.285156 L 37.728516 54.285156 z M 157.62109 94.25 L 157.62109 96.25 L 197.58594 96.25 L 237.55078 96.25 L 237.55078 94.25 L 197.58594 94.25 L 157.62109 94.25 z M 21.744141 174.17969 L 21.744141 176.17969 L 61.707031 176.17969 L 61.707031 174.17969 L 21.744141 174.17969 z M 197.58594 198.1582 L 197.58594 200.1582 L 237.55078 200.1582 L 237.55078 198.1582 L 197.58594 198.1582 z M 61.707031 214.14258 L 61.707031 216.14258 L 101.67188 216.14258 L 101.67188 214.14258 L 61.707031 214.14258 z M 157.62109 238.12305 L 157.62109 240.12305 L 197.58594 240.12305 L 197.58594 238.12305 L 157.62109 238.12305 z "
           transform="matrix(1.7635662,0,0,1.7635662,-1.5659891,36.576099)"
           id="path917" />
        <path
           d="m 143.60151,96.827624 c 31.66806,-5.892663 71.53152,-3.868837 104.80713,6.374846 21.52239,5.47843 36.41578,16.8474 49.85482,32.15444 21.62925,26.71593 34.65976,61.15341 34.10216,92.30929 2.78264,41.32748 -8.10439,84.21128 -30.38311,110.09143 -10.13551,11.50715 -32.01422,29.37719 -51.78906,47.65816 0,0 -5.24407,6.28157 -4.96268,10.02067 0.42119,5.59807 3.68432,9.13021 6.97251,12.76328 1.86557,2.06126 4.83438,3.93167 7.59303,5.72463 7.58706,4.05097 6.93864,13.78994 4.29459,18.23752 -5.9415,6.1208 -12.75972,9.43124 -20.26823,12.13498 -8.94352,3.29503 -12.46575,1.67846 -17.86489,-4.96174 -5.19426,-5.97897 -8.94279,-12.14638 -12.00257,-18.65498 -6.60658,-12.07194 -7.74839,-23.16388 -6.13949,-35.76107 1.74896,-5.68955 5.17919,-10.60619 10.45181,-17.78664 8.05099,-10.09871 15.97364,-18.24274 23.51635,-30.96113 5.18884,-8.21157 -0.41472,-10.03166 -3.96647,-13.25857 -17.79058,-15.98149 -36.62127,-25.1904 -48.07347,-43.34982 14.1389,-15.59447 16.10166,-34.3268 20.21148,-52.50585 -17.15087,34.14688 -27.68583,57.30105 -61.56207,46.82854 -14.53198,-5.9358 -26.67743,-16.41609 -34.91934,-26.29236 -22.470248,-30.69519 -20.389052,-59.39596 -20.161955,-71.24079 0.299294,-15.20822 3.65273,-36.12999 13.163905,-51.5246 8.83694,-16.23057 21.70598,-22.90271 37.12555,-28.000236 z"
           style="fill:#92d2ff;fill-opacity:0.99607843"
           id="path56"
           inkscape:connector-curvature="0" />
        <circle
           cx="276.409"
           cy="220.416"
           r="14.096"
           style="fill:#3f3f3f"
           id="circle58" />
        <path
           d="m 270.86855,280.87957 44.44542,36.77479 c -6.0731,-0.17038 -14.03504,2.04439 -22.86455,1.26737 -19.19056,-1.68887 -42.11638,-7.04913 -43.98102,-13.98296 -1.0524,-9.62115 0.98362,-17.1375 10.39077,-24.7595 5.79562,-4.99443 6.408,-4.19391 12.00938,0.70044 z"
           style="fill:#ffffff"
           id="path60"
           inkscape:connector-curvature="0" />
        <path
           style="fill:#ffffff;fill-opacity:0.99607843;stroke-width:0.56703287;opacity:0.3"
           d="M 104.03516 32.308594 C 96.436409 32.290017 89.048265 32.911062 82.314453 34.164062 C 73.57105 37.054527 66.274507 40.837749 61.263672 50.041016 C 55.870523 58.770266 53.968538 70.634252 53.798828 79.257812 C 53.774851 80.508385 53.734596 82.184068 53.734375 84.042969 C 53.754247 82.998457 53.783637 82.050135 53.798828 81.257812 C 53.968538 72.634252 55.870523 60.770266 61.263672 52.041016 C 66.274507 42.837749 73.57105 39.054524 82.314453 36.164062 C 100.27128 32.822727 122.87578 33.970793 141.74414 39.779297 C 153.94804 42.885747 162.39329 49.332124 170.01367 58.011719 C 182.27817 73.160529 189.66579 92.687108 189.34961 110.35352 C 189.5089 112.71925 189.56964 115.0939 189.57227 117.4668 C 189.6247 114.42934 189.55367 111.38422 189.34961 108.35352 C 189.66579 90.687108 182.27817 71.160529 170.01367 56.011719 C 162.39329 47.332124 153.94804 40.885747 141.74414 37.779297 C 129.95141 34.148981 116.69973 32.339555 104.03516 32.308594 z M 119.93945 110.00977 C 119.68019 110.52596 119.44566 110.98315 119.19141 111.49023 C 117.27446 120.6801 115.59558 129.9315 108.47852 137.78125 C 108.71972 138.16372 108.97797 138.52561 109.23047 138.89453 C 116.55097 130.23242 117.68596 119.97768 119.93945 110.00977 z M 139.01758 167.69531 C 138.84214 168.32467 138.51823 169.04219 137.98828 169.88086 C 133.71132 177.0926 129.21752 181.70925 124.65234 187.43555 C 121.66259 191.5071 119.71828 194.29532 118.72656 197.52148 C 118.44851 199.69856 118.33923 201.79121 118.39453 203.84961 C 118.43618 202.43307 118.53791 200.99856 118.72656 199.52148 C 119.71828 196.29532 121.66259 193.5071 124.65234 189.43555 C 129.21752 183.70925 133.71132 179.0926 137.98828 171.88086 C 139.1891 169.98051 139.36034 168.68891 139.01758 167.69531 z M 140.07812 204.44336 C 139.98106 204.81063 139.9174 205.16729 139.94141 205.48633 C 140.18023 208.66062 142.03197 210.66259 143.89648 212.72266 C 144.95432 213.89146 146.63693 214.95208 148.20117 215.96875 C 150.40373 217.14476 151.37614 219.16592 151.60547 221.19727 C 151.8946 218.60423 151.13703 215.5363 148.20117 213.96875 C 146.63693 212.95208 144.95432 211.89146 143.89648 210.72266 C 142.2282 208.8794 140.57949 207.07512 140.07812 204.44336 z "
           transform="matrix(1.7635662,0,0,1.7635662,-1.5659891,36.576099)"
           id="path946" />
        <path
           style="fill:#000407;fill-opacity:0.99607843;stroke-width:0.56703287;opacity:0.2"
           d="M 53.734375 82.042969 C 53.585796 89.85264 53.994129 104.30237 65.232422 119.6543 C 69.905856 125.25447 76.79114 131.19671 85.03125 134.5625 C 103.72809 140.34245 109.9085 128.00408 119.19141 109.49023 C 119.43386 108.32791 119.6778 107.16714 119.93945 106.00977 C 110.21435 125.37217 104.24019 138.50076 85.03125 132.5625 C 76.79114 129.19671 69.905856 123.25447 65.232422 117.6543 C 54.863452 103.4899 53.733409 90.167606 53.734375 82.042969 z M 189.57227 115.4668 C 189.21926 135.91561 183.12008 156.00229 172.12109 168.7793 C 166.37393 175.30423 153.96884 185.43682 142.75586 195.80273 C 142.75586 195.80273 139.78185 199.36614 139.94141 201.48633 C 139.96654 201.8204 140.01915 202.1338 140.07812 202.44336 C 140.62614 200.36987 142.75586 197.80273 142.75586 197.80273 C 153.96884 187.43682 166.37393 177.30423 172.12109 170.7793 C 183.47854 157.58588 189.59565 136.59886 189.57227 115.4668 z M 109.23047 136.89453 C 108.98062 137.19016 108.74311 137.48942 108.47852 137.78125 C 114.97229 148.07824 125.65044 153.2993 135.73828 162.36133 C 136.93028 163.44431 138.5205 164.2544 139.01758 165.69531 C 139.81614 162.83054 137.38949 161.86152 135.73828 160.36133 C 126.02514 151.63589 115.77596 146.45788 109.23047 136.89453 z M 118.39453 201.84961 C 118.23475 207.28336 119.23553 212.36913 122.20703 217.79883 C 123.94203 221.48942 126.06836 224.98668 129.01367 228.37695 C 132.07516 232.14216 134.07131 233.0598 139.14258 231.19141 C 143.40015 229.6583 147.26769 227.78124 150.63672 224.31055 C 151.3684 223.07977 151.82407 221.13362 151.60547 219.19727 C 151.47092 220.40397 151.11285 221.50964 150.63672 222.31055 C 147.26769 225.78124 143.40015 227.6583 139.14258 229.19141 C 134.07131 231.0598 132.07516 230.14216 129.01367 226.37695 C 126.06836 222.98668 123.94203 219.48942 122.20703 215.79883 C 119.60265 211.03995 118.52066 206.54485 118.39453 201.84961 z "
           transform="matrix(1.7635662,0,0,1.7635662,-1.5659891,36.576099)"
           id="path951" />
      </g>
    </g>
  </g>
</svg>
