<?xml version="1.0" encoding="UTF-8" standalone="no"?>
<!-- Created with Inkscape (http://www.inkscape.org/) -->

<svg
   xmlns:dc="http://purl.org/dc/elements/1.1/"
   xmlns:cc="http://creativecommons.org/ns#"
   xmlns:rdf="http://www.w3.org/1999/02/22-rdf-syntax-ns#"
   xmlns:svg="http://www.w3.org/2000/svg"
   xmlns="http://www.w3.org/2000/svg"
   xmlns:xlink="http://www.w3.org/1999/xlink"
   xmlns:sodipodi="http://sodipodi.sourceforge.net/DTD/sodipodi-0.dtd"
   xmlns:inkscape="http://www.inkscape.org/namespaces/inkscape"
   width="256"
   height="256"
   viewBox="0 0 67.733332 67.733335"
   version="1.1"
   id="svg2386"
   inkscape:version="0.92.4 (5da689c313, 2019-01-14)"
   sodipodi:docname="disegno.svg">
  <defs
     id="defs2380">
    <linearGradient
       inkscape:collect="always"
       id="linearGradient5625">
      <stop
         style="stop-color:#ffffff;stop-opacity:1"
         offset="0"
         id="stop5621" />
      <stop
         style="stop-color:#ffffff;stop-opacity:0"
         offset="1"
         id="stop5623" />
    </linearGradient>
    <linearGradient
       id="linearGradient4358"
       x1="88"
       x2="488"
       y1="88"
       y2="488"
       gradientUnits="userSpaceOnUse"
       xlink:href="#linearGradient4360" />
    <linearGradient
       id="linearGradient4360">
      <stop
         id="stop4362"
         offset="0"
         style="stop-color:#000000;stop-opacity:0.58823532" />
      <stop
         id="stop4366"
         offset="1"
         style="stop-color:#000000;stop-opacity:0.20555556" />
    </linearGradient>
    <filter
       style="color-interpolation-filters:sRGB"
       id="filter4380"
       width="1.1059999"
       height="1.0880001"
       x="-0.050000001"
       y="-0.039999999">
      <feGaussianBlur
         id="feGaussianBlur4382"
         stdDeviation="8.48" />
    </filter>
    <filter
       style="color-interpolation-filters:sRGB"
       id="filter4346"
       width="1.026"
       height="1.022"
       x="-0.0099999998"
       y="-0.0099999998">
      <feGaussianBlur
         id="feGaussianBlur4348"
         stdDeviation="2.12" />
    </filter>
    <clipPath
       id="clipPath994-59"
       clipPathUnits="userSpaceOnUse">
      <path
         sodipodi:nodetypes="scccssscsss"
         inkscape:connector-curvature="0"
         id="path996-84"
         d="m 335.73108,62 c -8.82418,0 -9.77365,0.90635 -9.7304,9.74838 V 84 96.25162 c -0.0433,8.84203 0.90622,9.74838 9.7304,9.74838 h 16.53919 c 8.82418,0 9.7304,-0.90625 9.7304,-9.74838 V 84 71.74838 C 362.00067,62.90625 361.09445,62 352.27027,62 Z"
         style="color:#000000;display:inline;overflow:visible;visibility:visible;fill:#cdcdcd;fill-opacity:1;fill-rule:nonzero;stroke:none;stroke-width:2;stroke-miterlimit:4;stroke-dasharray:none;stroke-opacity:1;marker:none;enable-background:accumulate" />
    </clipPath>
    <linearGradient
       inkscape:collect="always"
       xlink:href="#linearGradient5625"
       id="linearGradient5627"
       x1="21.817806"
       y1="251.867"
       x2="29.886063"
       y2="258.39975"
       gradientUnits="userSpaceOnUse"
       gradientTransform="matrix(0.9160306,0,0,0.9160306,2.8483814,22.078425)" />
  </defs>
  <sodipodi:namedview
     id="base"
     pagecolor="#ffffff"
     bordercolor="#666666"
     borderopacity="1.0"
     inkscape:pageopacity="0.0"
     inkscape:pageshadow="2"
     inkscape:zoom="3.4425874"
     inkscape:cx="128.9375"
     inkscape:cy="126.856"
     inkscape:document-units="mm"
     inkscape:current-layer="layer1"
     showgrid="false"
     units="px"
     inkscape:window-width="1920"
     inkscape:window-height="1016"
     inkscape:window-x="0"
     inkscape:window-y="27"
     inkscape:window-maximized="1" />
  <metadata
     id="metadata2383">
    <rdf:RDF>
      <cc:Work
         rdf:about="">
        <dc:format>image/svg+xml</dc:format>
        <dc:type
           rdf:resource="http://purl.org/dc/dcmitype/StillImage" />
        <dc:title></dc:title>
      </cc:Work>
    </rdf:RDF>
  </metadata>
  <g
     inkscape:label="Livello 1"
     inkscape:groupmode="layer"
     id="layer1"
     transform="translate(0,-229.26666)">
    <path
       inkscape:connector-curvature="0"
       d="M 141.84323,74 C 71.24979,74 63.65402,81.250835 64,151.98706 V 298 444.01294 C 63.65402,514.74917 71.24979,522 141.84323,522 H 434.15677 C 504.75021,522 513.9371,514.72348 512,444.01294 V 298 151.98706 C 512,81.249993 504.75021,74 434.15677,74 Z"
       transform="matrix(0.13229142,0,0,0.13229168,-4.1774038,223.77594)"
       style="opacity:0.1;filter:url(#filter4346)"
       id="path48" />
    <path
       inkscape:connector-curvature="0"
       style="opacity:0.3;fill:url(#linearGradient4358);filter:url(#filter4380)"
       d="M 141.84323,74 C 71.24979,74 63.65402,81.250835 64,151.98706 V 298 444.01294 C 63.65402,514.74917 71.24979,522 141.84323,522 H 434.15677 C 504.75021,522 513.9371,514.72348 512,444.01294 V 298 151.98706 C 512,81.249993 504.75021,74 434.15677,74 Z"
       transform="matrix(0.13229142,0,0,0.13229168,-4.1774038,223.77602)"
       id="path50" />
    <path
       inkscape:connector-curvature="0"
       d="m 14.293547,232.77178 c -9.5511258,0 -10.5788159,0.97635 -10.532006,10.50127 v 19.66123 19.66123 c -0.04681,9.52491 0.9808802,10.50127 10.532006,10.50127 h 39.260738 c 9.551125,0 10.788273,-0.97969 10.532003,-10.50127 v -19.66123 -19.66123 c 0,-9.52503 -0.980878,-10.50127 -10.532003,-10.50127 z"
       style="opacity:0.2;stroke-width:0.26458332"
       id="path52" />
    <path
       inkscape:connector-curvature="0"
       d="m 53.25638,233.30094 c 9.338911,0 10.343759,0.95923 10.297989,10.31704 v 19.3163 19.31629 c 0.0458,9.35782 -0.959078,10.31704 -10.297989,10.31704 H 14.585811 c -9.3389058,0 -10.297992,-0.95911 -10.297992,-10.31704 v -19.31629 -19.3163 c 0,-9.35792 0.9590862,-10.31704 10.297992,-10.31704 z"
       style="fill:#404041;fill-opacity:1;stroke-width:0.26458332"
       id="path54" />
    <path
       inkscape:connector-curvature="0"
       d="m 14.587308,233.30094 c -9.3389088,0 -10.3438319,0.95939 -10.298061,10.3172 v 0.52917 c -0.04577,-9.35781 0.9591522,-10.3172 10.298061,-10.3172 H 53.25774 c 9.338911,0 10.298059,0.95928 10.298059,10.3172 v -0.52917 c 0,-9.35792 -0.959148,-10.3172 -10.298059,-10.3172 z"
       style="opacity:0.3;fill:#ffffff;stroke-width:0.26458332"
       id="path56" />
    <path
       inkscape:connector-curvature="0"
       d="m 14.588737,292.56761 c -9.3389098,0 -10.3438329,-0.95939 -10.298063,-10.3172 v -0.52917 c -0.04577,9.35782 0.9591532,10.3172 10.298063,10.3172 h 38.670431 c 9.338913,0 10.298061,-0.95927 10.298061,-10.3172 v 0.52917 c 0,9.35792 -0.959148,10.3172 -10.298061,10.3172 z"
       style="opacity:0.2;stroke-width:0.26458332"
       id="path58" />
    <g
       id="g3539"
       transform="translate(-3.1340497,-0.82231764)">
      <path
         id="path3012"
         transform="matrix(0.26458333,0,0,0.26458333,0,229.26666)"
         d="m 139.6875,51.351562 c -43.583116,0 -79.001953,35.41101 -79.001953,78.994138 0,43.5831 35.418837,79 79.001953,79 43.58312,0 79.00195,-35.4169 79.00195,-79 0,-0.12143 -0.003,-0.24197 -0.004,-0.36328 h -8.00977 c 6.1e-4,0.1217 0.01,0.24144 0.01,0.36328 0,39.25958 -31.73845,71.00586 -70.99805,71.00586 -39.25959,0 -70.998047,-31.74628 -70.998047,-71.00586 0,-39.259613 31.738457,-70.999997 70.998047,-70.999997 0.12249,0 0.24289,0.0091 0.36523,0.0098 v -8 c -0.12196,-5.55e-4 -0.24314,-0.0039 -0.36523,-0.0039 z"
         style="color:#000000;font-style:normal;font-variant:normal;font-weight:normal;font-stretch:normal;font-size:medium;line-height:normal;font-family:sans-serif;font-variant-ligatures:normal;font-variant-position:normal;font-variant-caps:normal;font-variant-numeric:normal;font-variant-alternates:normal;font-feature-settings:normal;text-indent:0;text-align:start;text-decoration:none;text-decoration-line:none;text-decoration-style:solid;text-decoration-color:#000000;letter-spacing:normal;word-spacing:normal;text-transform:none;writing-mode:lr-tb;direction:ltr;text-orientation:mixed;dominant-baseline:auto;baseline-shift:baseline;text-anchor:start;white-space:normal;shape-padding:0;clip-rule:nonzero;display:inline;overflow:visible;visibility:visible;opacity:1;isolation:auto;mix-blend-mode:normal;color-interpolation:sRGB;color-interpolation-filters:linearRGB;solid-color:#000000;solid-opacity:1;vector-effect:none;fill:#ffffff;fill-opacity:1;fill-rule:nonzero;stroke:none;stroke-width:7.99999952;stroke-linecap:butt;stroke-linejoin:bevel;stroke-miterlimit:4;stroke-dasharray:none;stroke-dashoffset:0;stroke-opacity:1;color-rendering:auto;image-rendering:auto;shape-rendering:auto;text-rendering:auto;enable-background:accumulate"
         inkscape:connector-curvature="0" />
      <g
         style="fill:#ffffff;fill-opacity:1;stroke:none"
         transform="matrix(0.19402778,0,0,0.19402778,45.665884,241.45565)"
         id="g3462">
        <path
           d="M 24,46.5 C 21.685714,46.5 18.117857,33.1575 16.47857,31.521429 14.8425,29.882143 1.5,26.314286 1.5,24 1.5,21.685714 14.8425,18.117857 16.47857,16.478571 18.117856,14.8425 21.685714,1.5000005 24,1.5000005 c 2.314285,0 5.882142,13.3424995 7.521429,14.9785705 C 33.157499,18.117857 46.5,21.685714 46.5,24 46.5,26.314286 33.157499,29.882143 31.521429,31.521429 29.882143,33.1575 26.314285,46.5 24,46.5 Z"
           overflow="visible"
           id="path2"
           style="overflow:visible;fill:#ffffff;fill-opacity:1;stroke:none;stroke-width:3.21428561"
           inkscape:connector-curvature="0" />
        <path
           inkscape:connector-curvature="0"
           style="overflow:visible;opacity:0.4;fill:#ffffff;fill-opacity:1;stroke:none;stroke-width:1;stroke-miterlimit:4;stroke-dasharray:none;stroke-opacity:1"
           id="path812"
           overflow="visible"
           d="M 24,46.5 C 21.685714,46.5 18.117857,33.1575 16.47857,31.521429 14.8425,29.882143 1.5,26.314286 1.5,24 1.5,21.685714 14.8425,18.117857 16.47857,16.478571 18.117856,14.8425 21.685714,1.5000005 24,1.5000005 c 2.314285,0 5.882142,13.3424995 7.521429,14.9785705 C 33.157499,18.117857 46.5,21.685714 46.5,24 46.5,26.314286 33.157499,29.882143 31.521429,31.521429 29.882143,33.1575 26.314285,46.5 24,46.5 Z" />
        <path
           inkscape:connector-curvature="0"
           style="overflow:visible;opacity:0.4;fill:#ffffff;fill-opacity:1;stroke:none;stroke-width:1;stroke-miterlimit:4;stroke-dasharray:none;stroke-opacity:1"
           id="path814"
           overflow="visible"
           d="m 24,45.445173 c -2.211429,0 -5.017615,-13.352599 -6.584045,-14.915956 C 15.852599,28.962788 0.39686366,24.683546 2.5,24 9.3041268,21.788571 15.359154,18.982385 16.92251,17.415956 18.488939,15.852599 21.898225,3.103099 24.109654,3.103099 c 2.211428,0 4.578997,13.023636 6.145427,14.586993 C 31.818437,19.256521 45.5,21.788571 45.5,24 45.5,26.211429 32.257054,28.907961 30.693698,30.47439 29.127269,32.037747 26.211428,45.445173 24,45.445173 Z"
           sodipodi:nodetypes="scscscscs" />
      </g>
      <g
         id="g3470"
         transform="matrix(0.13229167,0,0,0.13229167,51.571123,248.84732)"
         style="fill:#ffffff;fill-opacity:1;stroke:none">
        <path
           inkscape:connector-curvature="0"
           style="overflow:visible;fill:#ffffff;fill-opacity:1;stroke:none;stroke-width:3.21428561"
           id="path3464"
           overflow="visible"
           d="M 24,46.5 C 21.685714,46.5 18.117857,33.1575 16.47857,31.521429 14.8425,29.882143 1.5,26.314286 1.5,24 1.5,21.685714 14.8425,18.117857 16.47857,16.478571 18.117856,14.8425 21.685714,1.5000005 24,1.5000005 c 2.314285,0 5.882142,13.3424995 7.521429,14.9785705 C 33.157499,18.117857 46.5,21.685714 46.5,24 46.5,26.314286 33.157499,29.882143 31.521429,31.521429 29.882143,33.1575 26.314285,46.5 24,46.5 Z" />
        <path
           d="M 24,46.5 C 21.685714,46.5 18.117857,33.1575 16.47857,31.521429 14.8425,29.882143 1.5,26.314286 1.5,24 1.5,21.685714 14.8425,18.117857 16.47857,16.478571 18.117856,14.8425 21.685714,1.5000005 24,1.5000005 c 2.314285,0 5.882142,13.3424995 7.521429,14.9785705 C 33.157499,18.117857 46.5,21.685714 46.5,24 46.5,26.314286 33.157499,29.882143 31.521429,31.521429 29.882143,33.1575 26.314285,46.5 24,46.5 Z"
           overflow="visible"
           id="path3466"
           style="overflow:visible;opacity:0.4;fill:#ffffff;fill-opacity:1;stroke:none;stroke-width:1;stroke-miterlimit:4;stroke-dasharray:none;stroke-opacity:1"
           inkscape:connector-curvature="0" />
        <path
           sodipodi:nodetypes="scscscscs"
           d="m 24,45.445173 c -2.211429,0 -5.017615,-13.352599 -6.584045,-14.915956 C 15.852599,28.962788 0.39686366,24.683546 2.5,24 9.3041268,21.788571 15.359154,18.982385 16.92251,17.415956 18.488939,15.852599 21.898225,3.103099 24.109654,3.103099 c 2.211428,0 4.578997,13.023636 6.145427,14.586993 C 31.818437,19.256521 45.5,21.788571 45.5,24 45.5,26.211429 32.257054,28.907961 30.693698,30.47439 29.127269,32.037747 26.211428,45.445173 24,45.445173 Z"
           overflow="visible"
           id="path3468"
           style="overflow:visible;opacity:0.4;fill:#ffffff;fill-opacity:1;stroke:none;stroke-width:1;stroke-miterlimit:4;stroke-dasharray:none;stroke-opacity:1"
           inkscape:connector-curvature="0" />
      </g>
      <g
         style="fill:#ffffff;fill-opacity:1;stroke:none"
         transform="matrix(0.10583333,0,0,0.10583333,55.001514,256.45539)"
         id="g3480">
        <path
           d="M 24,46.5 C 21.685714,46.5 18.117857,33.1575 16.47857,31.521429 14.8425,29.882143 1.5,26.314286 1.5,24 1.5,21.685714 14.8425,18.117857 16.47857,16.478571 18.117856,14.8425 21.685714,1.5000005 24,1.5000005 c 2.314285,0 5.882142,13.3424995 7.521429,14.9785705 C 33.157499,18.117857 46.5,21.685714 46.5,24 46.5,26.314286 33.157499,29.882143 31.521429,31.521429 29.882143,33.1575 26.314285,46.5 24,46.5 Z"
           overflow="visible"
           id="path3474"
           style="overflow:visible;fill:#ffffff;fill-opacity:1;stroke:none;stroke-width:3.21428561"
           inkscape:connector-curvature="0" />
        <path
           inkscape:connector-curvature="0"
           style="overflow:visible;opacity:0.4;fill:#ffffff;fill-opacity:1;stroke:none;stroke-width:1;stroke-miterlimit:4;stroke-dasharray:none;stroke-opacity:1"
           id="path3476"
           overflow="visible"
           d="M 24,46.5 C 21.685714,46.5 18.117857,33.1575 16.47857,31.521429 14.8425,29.882143 1.5,26.314286 1.5,24 1.5,21.685714 14.8425,18.117857 16.47857,16.478571 18.117856,14.8425 21.685714,1.5000005 24,1.5000005 c 2.314285,0 5.882142,13.3424995 7.521429,14.9785705 C 33.157499,18.117857 46.5,21.685714 46.5,24 46.5,26.314286 33.157499,29.882143 31.521429,31.521429 29.882143,33.1575 26.314285,46.5 24,46.5 Z" />
        <path
           inkscape:connector-curvature="0"
           style="overflow:visible;opacity:0.4;fill:#ffffff;fill-opacity:1;stroke:none;stroke-width:1;stroke-miterlimit:4;stroke-dasharray:none;stroke-opacity:1"
           id="path3478"
           overflow="visible"
           d="m 24,45.445173 c -2.211429,0 -5.017615,-13.352599 -6.584045,-14.915956 C 15.852599,28.962788 0.39686366,24.683546 2.5,24 9.3041268,21.788571 15.359154,18.982385 16.92251,17.415956 18.488939,15.852599 21.898225,3.103099 24.109654,3.103099 c 2.211428,0 4.578997,13.023636 6.145427,14.586993 C 31.818437,19.256521 45.5,21.788571 45.5,24 45.5,26.211429 32.257054,28.907961 30.693698,30.47439 29.127269,32.037747 26.211428,45.445173 24,45.445173 Z"
           sodipodi:nodetypes="scscscscs" />
      </g>
      <g
         id="g3490"
         transform="matrix(0.08231481,0,0,0.08231481,40.343744,241.88717)"
         style="fill:#ffffff;fill-opacity:1;stroke:none">
        <path
           inkscape:connector-curvature="0"
           style="overflow:visible;fill:#ffffff;fill-opacity:1;stroke:none;stroke-width:3.21428561"
           id="path3484"
           overflow="visible"
           d="M 24,46.5 C 21.685714,46.5 18.117857,33.1575 16.47857,31.521429 14.8425,29.882143 1.5,26.314286 1.5,24 1.5,21.685714 14.8425,18.117857 16.47857,16.478571 18.117856,14.8425 21.685714,1.5000005 24,1.5000005 c 2.314285,0 5.882142,13.3424995 7.521429,14.9785705 C 33.157499,18.117857 46.5,21.685714 46.5,24 46.5,26.314286 33.157499,29.882143 31.521429,31.521429 29.882143,33.1575 26.314285,46.5 24,46.5 Z" />
        <path
           d="M 24,46.5 C 21.685714,46.5 18.117857,33.1575 16.47857,31.521429 14.8425,29.882143 1.5,26.314286 1.5,24 1.5,21.685714 14.8425,18.117857 16.47857,16.478571 18.117856,14.8425 21.685714,1.5000005 24,1.5000005 c 2.314285,0 5.882142,13.3424995 7.521429,14.9785705 C 33.157499,18.117857 46.5,21.685714 46.5,24 46.5,26.314286 33.157499,29.882143 31.521429,31.521429 29.882143,33.1575 26.314285,46.5 24,46.5 Z"
           overflow="visible"
           id="path3486"
           style="overflow:visible;opacity:0.4;fill:#ffffff;fill-opacity:1;stroke:none;stroke-width:1;stroke-miterlimit:4;stroke-dasharray:none;stroke-opacity:1"
           inkscape:connector-curvature="0" />
        <path
           sodipodi:nodetypes="scscscscs"
           d="m 24,45.445173 c -2.211429,0 -5.017615,-13.352599 -6.584045,-14.915956 C 15.852599,28.962788 0.39686366,24.683546 2.5,24 9.3041268,21.788571 15.359154,18.982385 16.92251,17.415956 18.488939,15.852599 21.898225,3.103099 24.109654,3.103099 c 2.211428,0 4.578997,13.023636 6.145427,14.586993 C 31.818437,19.256521 45.5,21.788571 45.5,24 45.5,26.211429 32.257054,28.907961 30.693698,30.47439 29.127269,32.037747 26.211428,45.445173 24,45.445173 Z"
           overflow="visible"
           id="path3488"
           style="overflow:visible;opacity:0.4;fill:#ffffff;fill-opacity:1;stroke:none;stroke-width:1;stroke-miterlimit:4;stroke-dasharray:none;stroke-opacity:1"
           inkscape:connector-curvature="0" />
      </g>
    </g>
    <g
       id="g3515"
       transform="translate(-0.95399581,0.0835)">
      <path
         style="opacity:1;fill:#ffffff;fill-opacity:1;stroke:none;stroke-width:0.25865534;stroke-linejoin:bevel;stroke-miterlimit:4;stroke-dasharray:none;stroke-opacity:0.99563317"
         d="m 12.71075,235.10642 c -0.897447,0 -1.620056,0.70803 -1.620056,1.5875 0,0.87948 0.722609,1.5875 1.620056,1.5875 h 2.845822 c 0.897446,0 1.619539,-0.70802 1.619539,-1.5875 0,-0.87947 -0.722093,-1.5875 -1.619539,-1.5875 z m 8.342127,0 c -0.897447,0 -1.620056,0.70803 -1.620056,1.5875 0,0.87948 0.722609,1.5875 1.620056,1.5875 h 2.845304 c 0.897447,0 1.620056,-0.70802 1.620056,-1.5875 0,-0.87947 -0.722609,-1.5875 -1.620056,-1.5875 z m 8.454781,0 c -0.897448,0 -1.620057,0.70803 -1.620057,1.5875 0,0.87948 0.722609,1.5875 1.620057,1.5875 h 2.845302 c 0.897449,0 1.620057,-0.70802 1.620057,-1.5875 0,-0.87947 -0.722608,-1.5875 -1.620057,-1.5875 z m 8.342124,0 c -0.897445,0 -1.620054,0.70803 -1.620054,1.5875 0,0.87948 0.722609,1.5875 1.620054,1.5875 h 2.845305 c 0.897446,0 1.620057,-0.70802 1.620057,-1.5875 0,-0.87947 -0.722611,-1.5875 -1.620057,-1.5875 z m 8.003646,0 c -0.897446,0 -1.620055,0.70803 -1.620055,1.5875 0,0.87948 0.722609,1.5875 1.620055,1.5875 h 2.845821 c 0.897448,0 1.619541,-0.70802 1.619541,-1.5875 0,-0.87947 -0.722093,-1.5875 -1.619541,-1.5875 z m 8.342127,0 c -0.897446,0 -1.620057,0.70803 -1.620057,1.5875 0,0.87948 0.722611,1.5875 1.620057,1.5875 h 2.845305 c 0.897446,0 1.620055,-0.70802 1.620055,-1.5875 0,-0.87947 -0.722609,-1.5875 -1.620055,-1.5875 z"
         id="rect3042"
         inkscape:connector-curvature="0" />
      <path
         inkscape:connector-curvature="0"
         id="path3511"
         d="m 12.71075,287.42013 c -0.897447,0 -1.620056,0.70803 -1.620056,1.5875 0,0.87948 0.722609,1.5875 1.620056,1.5875 h 2.845822 c 0.897446,0 1.619539,-0.70802 1.619539,-1.5875 0,-0.87947 -0.722093,-1.5875 -1.619539,-1.5875 z m 8.342127,0 c -0.897447,0 -1.620056,0.70803 -1.620056,1.5875 0,0.87948 0.722609,1.5875 1.620056,1.5875 h 2.845304 c 0.897447,0 1.620056,-0.70802 1.620056,-1.5875 0,-0.87947 -0.722609,-1.5875 -1.620056,-1.5875 z m 8.454781,0 c -0.897448,0 -1.620057,0.70803 -1.620057,1.5875 0,0.87948 0.722609,1.5875 1.620057,1.5875 h 2.845302 c 0.897449,0 1.620057,-0.70802 1.620057,-1.5875 0,-0.87947 -0.722608,-1.5875 -1.620057,-1.5875 z m 8.342124,0 c -0.897445,0 -1.620054,0.70803 -1.620054,1.5875 0,0.87948 0.722609,1.5875 1.620054,1.5875 h 2.845305 c 0.897446,0 1.620057,-0.70802 1.620057,-1.5875 0,-0.87947 -0.722611,-1.5875 -1.620057,-1.5875 z m 8.003646,0 c -0.897446,0 -1.620055,0.70803 -1.620055,1.5875 0,0.87948 0.722609,1.5875 1.620055,1.5875 h 2.845821 c 0.897448,0 1.619541,-0.70802 1.619541,-1.5875 0,-0.87947 -0.722093,-1.5875 -1.619541,-1.5875 z m 8.342127,0 c -0.897446,0 -1.620057,0.70803 -1.620057,1.5875 0,0.87948 0.722611,1.5875 1.620057,1.5875 h 2.845305 c 0.897446,0 1.620055,-0.70802 1.620055,-1.5875 0,-0.87947 -0.722609,-1.5875 -1.620055,-1.5875 z"
         style="opacity:1;fill:#ffffff;fill-opacity:1;stroke:none;stroke-width:0.25865534;stroke-linejoin:bevel;stroke-miterlimit:4;stroke-dasharray:none;stroke-opacity:0.99563317" />
    </g>
    <g
       id="g5617"
       transform="matrix(1.0015377,0,0,1.0007645,-82.322915,10.16505)">
      <path
         id="rect3927"
         transform="matrix(0.26458333,0,0,0.26458333,0,229.26666)"
         d="m 434.11914,23.375 a 65.499999,65.499999 0 0 0 -60.11523,60.701172 c 0.54132,0.100236 2.94047,0.543362 5.01171,1.083984 -0.68016,1.02775 -1.07812,2.259917 -1.07812,3.589844 v 10.296875 c 0,3.600995 2.899,6.500005 6.5,6.500005 h 22.44727 c 3.601,0 6.5,-2.89901 6.5,-6.500005 V 88.75 c 0,-1.637832 -0.603,-3.126902 -1.59571,-4.267578 1.30344,-0.177218 2.61357,-0.290943 3.92188,-0.341797 2.69752,-0.104693 5.40562,0.0096 8.08398,0.306641 3.95225,0.440882 7.80568,1.374972 11.64844,2.164062 1.28538,0.263811 2.44569,0.775198 3.55664,0.890625 -0.14891,-1.90662 -0.67641,-3.793745 -1.26367,-5.703125 -0.58726,-1.909417 -1.23415,-3.841078 -1.6211,-5.839844 -0.81048,-4.186998 -1.53766,-8.413494 -1.94921,-12.675781 -0.099,-1.025197 -0.24403,-2.077948 -0.32227,-3.144531 -0.0779,-1.066583 -0.0889,-2.147017 0.0801,-3.232422 0.0994,-0.640403 0.23056,-1.313404 0.44531,-1.964844 0.002,-0.0047 0.004,-0.009 0.006,-0.01367 v 0.59961 c 0,3.601 2.899,6.5 6.5,6.5 h 10.29883 c 3.601,0 6.5,-2.899 6.5,-6.5 V 33.080078 c 0,-3.601 -2.899,-6.5 -6.5,-6.5 H 440.875 c -2.50811,0 -4.67119,1.408143 -5.75586,3.478516 -0.0918,-0.163105 -0.19657,-0.321725 -0.27344,-0.488282 -0.27061,-0.586393 -0.44237,-1.305371 -0.55273,-2.058593 -0.11036,-0.753222 -0.15947,-1.5407 -0.18555,-2.267578 -0.0378,-1.025991 -0.003,-1.430149 0.0117,-1.869141 z"
         style="opacity:1;fill:#f76363;fill-opacity:1;stroke:none;stroke-width:7.99999952;stroke-linejoin:bevel;stroke-miterlimit:4;stroke-dasharray:none;stroke-opacity:1"
         inkscape:connector-curvature="0" />
      <path
         id="rect3925"
         transform="matrix(0.26458333,0,0,0.26458333,0,229.26666)"
         d="m 373.95312,83.998047 a 65.499999,65.499999 0 0 0 -0.17773,3.550781 65.499999,65.499999 0 0 0 61.82813,65.316402 c 0.11943,-0.64595 0.79722,-4.39111 1.53125,-6.59375 0.19766,-0.59308 0.38304,-1.23003 0.6289,-1.85546 0.002,-0.006 0.005,-0.0117 0.008,-0.0176 0.94378,2.42144 3.28943,4.13281 6.05274,4.13281 h 10.29687 c 3.601,0 6.5,-2.899 6.5,-6.5 v -22.44922 c 0,-3.601 -2.899,-6.5 -6.5,-6.5 h -10.29687 c -3.601,0 -6.5,2.899 -6.5,6.5 v 1.75781 c -0.13362,-0.37313 -0.25155,-0.75108 -0.34766,-1.13281 -0.24151,-0.95939 -0.39076,-1.93156 -0.58008,-2.84375 -0.42716,-2.05742 -0.64335,-4.15561 -0.7246,-6.24414 -0.1047,-2.69752 0.0112,-5.40558 0.31054,-8.08398 0.44088,-3.952256 1.37302,-7.805682 2.16211,-11.648441 0.29745,-1.448202 0.91028,-2.737823 0.91406,-3.976563 -1.39373,-0.09524 -2.63705,-0.676154 -3.81445,-0.917968 -3.86559,-0.793739 -7.69209,-1.715014 -11.56055,-2.146485 -2.633,-0.293669 -5.29278,-0.405462 -7.93554,-0.302734 -2.0442,0.07937 -4.08996,0.293664 -6.08203,0.707031 -0.94349,0.19578 -1.89536,0.351882 -2.79493,0.578125 -0.89952,0.226016 -1.74673,0.522078 -2.47656,0.994141 -0.81022,0.524031 -1.53915,1.283751 -1.85156,2.11914 -0.23962,0.640366 -0.23093,1.45862 0,2.126953 0.2211,0.638854 0.61238,1.210462 1.0957,1.757813 0.48333,0.547389 1.05852,1.07054 1.65039,1.607422 0.59184,0.536882 1.2011,1.088071 1.72071,1.710937 0.51964,0.622904 0.94969,1.317594 1.1875,2.134766 0.23206,0.797329 0.14212,1.68585 -0.24415,2.421873 -0.38793,0.73894 -0.95405,1.33224 -1.58984,1.83008 -0.63579,0.4978 -1.34128,0.90009 -2.0039,1.25586 -1.28697,0.6909 -2.71429,0.94085 -4.04688,1.18164 -1.34578,0.24302 -2.71431,0.44281 -4.0918,0.56055 -1.37745,0.11754 -2.76385,0.15333 -4.14648,0.0664 -1.53986,-0.0971 -3.12686,-0.22184 -4.6875,-0.49804 -1.56064,-0.27591 -3.09496,-0.70322 -4.53125,-1.40625 -0.72095,-0.35301 -1.51234,-0.76785 -2.20899,-1.30469 -0.69668,-0.53688 -1.29864,-1.19566 -1.63671,-2.039064 -0.21846,-0.544894 -0.0226,-1.03304 0.0957,-1.373047 0.27779,-0.79045 0.66297,-1.514758 1.10351,-2.197265 0.44055,-0.682507 0.93658,-1.323771 1.43555,-1.951172 0.99799,-1.254765 2.00814,-2.451553 2.61328,-3.802734 0.33373,-0.744832 0.68011,-1.437159 0.58203,-1.962891 -0.10809,-0.579855 -0.66228,-1.173881 -1.26172,-1.654297 -0.88214,-0.706998 -2.10827,-1.045944 -3.33593,-1.455078 -1.98078,-0.660095 -5.46234,-1.297598 -6.28907,-1.453125 z"
         style="opacity:1;fill:#37a6e6;fill-opacity:1;stroke:none;stroke-width:7.99999952;stroke-linejoin:bevel;stroke-miterlimit:4;stroke-dasharray:none;stroke-opacity:1"
         inkscape:connector-curvature="0" />
      <path
         id="rect3929"
         transform="matrix(0.26458333,0,0,0.26458333,0,229.26666)"
         d="m 438.07617,23.148438 a 65.499999,65.499999 0 0 0 -4.15234,0.146484 c -0.0151,0.390349 -0.0499,0.862938 -0.0117,1.914062 0.0507,1.402961 0.23771,3.072369 0.64258,3.949219 0.24793,0.537147 0.59691,1.057191 1.01172,1.5 0.41484,0.442772 0.89542,0.808258 1.41015,1.03125 0.85652,0.37115 1.83198,0.531476 2.82422,0.525391 0.9922,-0.0076 2.0012,-0.17876 2.92578,-0.472656 0.72242,-0.229796 1.34047,-1.023694 2.23633,-1.646485 0.72953,-0.507175 1.44526,-1.281014 2.24414,-1.964844 0.39942,-0.342047 0.82839,-0.665847 1.29883,-0.910156 0.47044,-0.244157 0.9823,-0.409027 1.55078,-0.433594 0.61289,-0.02646 1.16763,0.173091 1.65625,0.472657 0.48866,0.299716 0.91118,0.699163 1.25977,1.070312 0.91884,0.97852 1.62173,2.1306 2.16406,3.355469 0.54236,1.224869 0.92417,2.522493 1.20117,3.791015 0.43612,1.997178 0.62147,4.059336 0.5918,6.119141 -0.0302,2.059767 -0.27443,4.117173 -0.69531,6.105469 -0.23207,1.096516 -0.57253,2.185253 -1.01954,3.228516 -0.44696,1.0433 -1.00051,2.041138 -1.66015,2.957031 -0.46802,0.649927 -0.98306,1.481496 -1.62305,2.185547 -0.32013,0.351874 -0.68105,0.678636 -1.08984,0.919922 -0.4088,0.241133 -0.86537,0.397242 -1.375,0.408203 -0.781,0.01512 -1.4644,-0.274766 -2.03125,-0.701172 -0.56686,-0.426331 -1.03609,-0.981547 -1.49024,-1.550781 -0.45415,-0.569197 -0.89483,-1.14833 -1.34765,-1.642579 -0.45279,-0.494211 -0.91769,-0.903584 -1.42188,-1.132812 -0.792,-0.360189 -1.64402,-0.661221 -2.49805,-0.828125 -0.85406,-0.167055 -1.71011,-0.198493 -2.50585,-0.02539 -0.62045,0.134173 -1.2306,0.423221 -1.78907,0.810547 -0.55842,0.387288 -1.06517,0.872944 -1.47461,1.396484 -0.34431,0.440429 -0.59812,0.967787 -0.78906,1.539063 -0.19087,0.571313 -0.31938,1.186557 -0.41406,1.796875 -0.15194,0.976214 -0.13803,1.98104 -0.0606,3.005859 0.0775,1.024781 0.21864,2.069516 0.32031,3.121094 0.40683,4.213417 1.12584,8.407177 1.9336,12.580078 0.37115,1.91811 1.02311,3.824359 1.61914,5.763672 0.59603,1.939276 1.1363,3.911602 1.28125,5.960938 1.98176,-0.0926 3.93825,-0.620112 5.91797,-1.22461 1.97975,-0.604497 3.9827,-1.286001 6.05664,-1.6875 4.187,-0.810482 8.41158,-1.529853 12.67383,-1.941406 1.02519,-0.09902 2.07595,-0.246424 3.14257,-0.326172 1.06659,-0.08013 2.14897,-0.09277 3.23438,0.07617 0.28691,0.04453 0.58182,0.09761 0.87695,0.160156 -3.24444,0.370288 -5.74805,3.108329 -5.74805,6.455078 v 10.298829 c 0,3.601003 2.89901,6.500003 6.5,6.500003 h 22.44727 c 3.601,0 6.5,-2.899 6.5,-6.500003 V 89.005859 c 0,-2.434724 -1.32737,-4.544372 -3.29883,-5.658203 0.0172,-0.0081 0.0336,-0.0194 0.0508,-0.02734 0.5864,-0.270614 1.30732,-0.442372 2.0625,-0.552734 0.75515,-0.110362 1.54461,-0.159468 2.27149,-0.185547 0.96484,-0.03401 1.29258,-0.0072 1.7539,0.01172 v -0.0039 A 65.499999,65.499999 0 0 0 438.07617,23.148438 Z"
         style="opacity:1;fill:#ffda64;fill-opacity:1;stroke:none;stroke-width:7.99999952;stroke-linejoin:bevel;stroke-miterlimit:4;stroke-dasharray:none;stroke-opacity:1"
         inkscape:connector-curvature="0" />
      <path
         inkscape:connector-curvature="0"
         id="path3919"
         d="m 115.2032,269.72581 a 17.330208,17.330208 0 0 0 0.70435,0.0351 17.330208,17.330208 0 0 0 17.33021,-17.33021 17.330208,17.330208 0 0 0 -0.0574,-1.33894 c -0.10941,-0.004 -0.21879,-0.0127 -0.48576,-0.003 -0.37119,0.0134 -0.81289,0.065 -1.04489,0.17208 -0.14212,0.0656 -0.28063,0.1569 -0.39843,0.26614 -0.1178,0.10923 -0.21488,0.23639 -0.27388,0.37258 -0.0982,0.22663 -0.13972,0.48524 -0.13747,0.74828 0.002,0.26304 0.0483,0.53051 0.1261,0.77515 0.0608,0.19113 0.27085,0.3526 0.43563,0.58962 0.13419,0.19303 0.33842,0.38447 0.51935,0.59583 0.0905,0.10568 0.17617,0.21867 0.24081,0.34313 0.0646,0.12447 0.10822,0.26042 0.11472,0.41083 0.007,0.16216 -0.0458,0.30842 -0.12505,0.43719 -0.0793,0.12876 -0.18499,0.24005 -0.28319,0.33227 -0.2589,0.24312 -0.56372,0.4296 -0.88781,0.57361 -0.32408,0.14401 -0.6674,0.24555 -1.00303,0.31885 -0.52842,0.11538 -1.07404,0.16378 -1.61903,0.15554 -0.54498,-0.008 -1.08934,-0.0731 -1.6154,-0.18448 -0.29012,-0.0614 -0.57818,-0.15136 -0.85421,-0.26924 -0.27604,-0.11787 -0.54005,-0.26369 -0.78239,-0.43821 -0.17195,-0.12384 -0.39197,-0.26217 -0.57825,-0.4315 -0.0931,-0.0847 -0.17959,-0.18019 -0.2434,-0.28784 -0.0638,-0.10764 -0.105,-0.22741 -0.108,-0.36225 -0.004,-0.20665 0.0727,-0.38746 0.18551,-0.53744 0.1128,-0.14997 0.25972,-0.2762 0.41031,-0.39635 0.15062,-0.12016 0.30384,-0.23625 0.4346,-0.35554 0.13077,-0.11928 0.23907,-0.24177 0.29973,-0.37517 0.0953,-0.20955 0.17495,-0.43601 0.21911,-0.66249 0.0442,-0.22648 0.0528,-0.45298 0.007,-0.66353 -0.0355,-0.16415 -0.11199,-0.32573 -0.21446,-0.47335 -0.10248,-0.14763 -0.23096,-0.2813 -0.36949,-0.38964 -0.11653,-0.0911 -0.25657,-0.15812 -0.40772,-0.20826 -0.15116,-0.0501 -0.31344,-0.0834 -0.47491,-0.10852 -0.2583,-0.0402 -0.52416,-0.0365 -0.7953,-0.016 -0.27114,0.0205 -0.54757,0.0579 -0.82579,0.0847 -1.11481,0.10764 -2.22388,0.29581 -3.32796,0.50954 -0.52327,0.10129 -1.04331,0.28225 -1.57303,0.44442 -0.52973,0.16217 -1.06915,0.30556 -1.63091,0.33124 -2e-5,0.20492 -0.044,0.39726 -0.0966,0.58085 -0.0526,0.18359 -0.11398,0.35842 -0.14883,0.52813 -0.21002,1.02277 -0.45582,2.0352 -0.56999,3.05873 -0.0781,0.69665 -0.1073,1.40038 -0.0801,2.09961 0.021,0.54086 0.0777,1.08058 0.18707,1.60766 0.0518,0.24963 0.0937,0.50213 0.15348,0.74052 0.0598,0.23839 0.13762,0.46267 0.26251,0.65577 0.13866,0.21437 0.33967,0.40775 0.56069,0.49041 0.16944,0.0634 0.38593,0.0611 0.56276,0 0.16903,-0.0585 0.32129,-0.16203 0.46664,-0.2899 0.14534,-0.12788 0.28376,-0.28007 0.42581,-0.43667 0.14205,-0.1566 0.28787,-0.31765 0.45217,-0.45527 0.16429,-0.13762 0.34705,-0.25179 0.56327,-0.31471 0.21097,-0.0614 0.44812,-0.0397 0.64285,0.0625 0.19552,0.10264 0.35199,0.25333 0.48318,0.4222 0.1312,0.16886 0.23712,0.35591 0.33125,0.53123 0.18279,0.34051 0.24894,0.71764 0.31264,1.07022 0.0643,0.35608 0.11716,0.71817 0.14831,1.08262 0.0311,0.36445 0.0406,0.73127 0.0176,1.09709 -0.0257,0.40742 -0.0581,0.82718 -0.13074,1.24024 -0.0726,0.41305 -0.18555,0.81939 -0.37156,1.19941 -0.0934,0.19076 -0.20263,0.39962 -0.34468,0.58342 -0.14204,0.18381 -0.31687,0.34256 -0.54002,0.43202 -0.14418,0.0578 -0.27483,0.008 -0.36483,-0.0233 -0.20914,-0.0734 -0.40027,-0.17536 -0.58085,-0.29197 -0.18057,-0.11661 -0.35076,-0.24825 -0.51676,-0.38034 -0.332,-0.26417 -0.64864,-0.53131 -1.00614,-0.69143 -0.19707,-0.0883 -0.38024,-0.17995 -0.51935,-0.15399 -0.15342,0.0286 -0.30852,0.17523 -0.43563,0.33383 -0.18706,0.2334 -0.27881,0.55833 -0.38706,0.88315 -0.17593,0.52793 -0.34858,1.46661 -0.38757,1.6738 z"
         style="opacity:1;fill:#76c22b;fill-opacity:1;stroke:none;stroke-width:3.30252528;stroke-linejoin:bevel;stroke-miterlimit:4;stroke-dasharray:none;stroke-opacity:1" />
    </g>
    <circle
       style="opacity:0.6;fill:url(#linearGradient5627);fill-opacity:1;stroke:none;stroke-width:2.01987576;stroke-linejoin:bevel;stroke-miterlimit:4;stroke-dasharray:none;stroke-opacity:1"
       id="path5619"
       cx="33.92181"
       cy="262.93427"
       r="15.875" />
  </g>
</svg>
