<svg height="256" width="256" xmlns="http://www.w3.org/2000/svg" xmlns:xlink="http://www.w3.org/1999/xlink"><clipPath id="a"><path d="m188.96875 43.999998c72.64865 0 83.03125 10.356615 83.03125 82.937502v58.125c0 72.58059-10.3826 82.9375-83.03125 82.9375h-73.9375c-72.64865 0-83.03125-10.35691-83.03125-82.9375v-58.125c0-72.580887 10.3826-82.937502 83.03125-82.937502z"/></clipPath><filter id="b" color-interpolation-filters="sRGB" height="1.015" width="1.056" x="-.03" y="-.01"><feGaussianBlur stdDeviation=".411"/></filter><clipPath id="c"><path d="m188.96875 44c72.64865 0 83.03125 10.356615 83.03125 82.9375v58.125c0 72.58059-10.3826 82.9375-83.03125 82.9375h-73.9375c-72.64865 0-83.03125-10.35691-83.03125-82.9375v-58.125c0-72.580885 10.3826-82.9375 83.03125-82.9375z"/></clipPath><filter id="d" color-interpolation-filters="sRGB" height="1.122" width="1.451" x="-.23" y="-.06"><feGaussianBlur stdDeviation="3.288"/></filter><linearGradient id="e" gradientUnits="userSpaceOnUse" x1="80.751999" x2="176.751999" y1="11.248002" y2="235.248002"><stop offset="0" stop-color="#7839b7"/><stop offset="1" stop-color="#8c59d9"/></linearGradient><filter id="f" color-interpolation-filters="sRGB" height="1.024" width="1.024" x="-.01" y="-.01"><feGaussianBlur stdDeviation="1.12"/></filter><filter id="g" color-interpolation-filters="sRGB" height="1.096" width="1.096" x="-.05" y="-.05"><feGaussianBlur stdDeviation="4.48"/></filter><circle cx="128.752" cy="127.248" filter="url(#g)" opacity=".1" r="112"/><circle cx="128.752" cy="125.248" filter="url(#f)" opacity=".1" r="112"/><circle cx="128.752" cy="123.248" opacity=".1" r="114"/><circle cx="128.752" cy="123.248" fill="url(#e)" r="112"/><g fill="#fff"><path d="m16.751999 132.94391a112.5345 112.53445 0 0 0 111.977531 102.30409 112.5345 112.53445 0 0 0 112.02247-102.30409z" opacity=".1"/><circle cx="128.826" cy="123.174" opacity=".2" r="87.79"/><ellipse cx="128.826" cy="123.174" opacity=".2" rx="52.471" ry="52.471"/></g><path clip-path="url(#c)" d="m151.98953 138.57854c-9.65989 0-17.49136 7.83112-17.49136 17.49136.0105 7.40304 4.68069 13.99752 11.66091 16.4652v95.46492h11.66091v-95.46492c6.98021-2.46768 11.65041-9.06216 11.6609-16.4652 0-9.66024-7.83146-17.49136-17.49136-17.49136z" filter="url(#d)" opacity=".2" transform="translate(-23.248351 -32.752008)"/><path clip-path="url(#a)" d="m151.98953 138.57854c-9.6599 0-17.49136 7.83112-17.49136 17.49136.0105 7.40305 4.68069 13.99752 11.66091 16.4652v95.46492h11.6609v-95.46492c6.98022-2.46768 11.65041-9.06215 11.66091-16.4652 0-9.66024-7.83147-17.49136-17.49136-17.49136z" filter="url(#b)" opacity=".1" transform="translate(-23.248351 -32.752008)"/><path d="m128.74028 105.82613c-9.65989 0-17.49023 7.83194-17.49023 17.49219.0105 7.40304 4.67993 13.99717 11.66015 16.46485v95.23046a112.5345 112.53445 0 0 0 5.81836.23438 112.5345 112.53445 0 0 0 5.84375-.29492v-95.16992c6.98022-2.46768 11.64966-9.06181 11.66016-16.46485 0-9.66025-7.83229-17.49219-17.49219-17.49219z" fill="#fff"/><path d="m128.752 11.248006a112 112 0 0 0 -112.000001 111.999994 112 112 0 0 0 .04102 1.16992 112 112 0 0 1 111.958981-111.169914 112 112 0 0 1 111.95898 110.830074 112 112 0 0 0 .041-.83008 112 112 0 0 0 -112-111.999994z" fill="#fff" opacity=".3"/><path d="m128.752 235.248a112 112 0 0 1 -112.000001-112 112 112 0 0 1 .04102-1.16992 112 112 0 0 0 111.958981 111.16992 112 112 0 0 0 111.95898-110.83008 112 112 0 0 1 .041.83008 112 112 0 0 1 -112 112z" opacity=".2"/></svg>