<svg fill="none" height="256" viewBox="0 0 256 256" width="256" xmlns="http://www.w3.org/2000/svg" xmlns:xlink="http://www.w3.org/1999/xlink">
  <linearGradient id="paint0_linear" gradientUnits="userSpaceOnUse" x1="80.752" x2="176.752" y1="11.248" y2="235.248">
    <stop offset="0" stop-color="#7839b7"/>
    <stop offset="1" stop-color="#8c59d9"/>
  </linearGradient>
  <path d="m128.752 239.248c61.856 0 112-50.144 112-112 0-61.8559-50.144-112-112-112-61.8559 0-112 50.1441-112 112 0 61.856 50.1441 112 112 112z" fill="#000" opacity=".1"/>
  <path d="m128.752 237.248c61.856 0 112-50.144 112-112 0-61.8559-50.144-112-112-112-61.8559 0-112 50.1441-112 112 0 61.856 50.1441 112 112 112z" fill="#000" opacity=".1"/>
  <path d="m128.752 235.248c61.856 0 112-50.144 112-112 0-61.8559-50.144-112-112-112-61.8559 0-112 50.1441-112 112 0 61.856 50.1441 112 112 112z" fill="url(#paint0_linear)"/>
  <g fill="#fff">
    <path d="m16.752 132.944c2.5508 27.943 15.4486 53.925 36.1641 72.851s47.7539 29.43 75.8129 29.453c28.067-.011 55.117-10.511 75.842-29.438s33.629-44.915 36.181-72.866z" opacity=".1"/>
    <path d="m128.826 210.964c48.485 0 87.79-39.305 87.79-87.79 0-48.4851-39.305-87.79-87.79-87.79-48.4851 0-87.79 39.3049-87.79 87.79 0 48.485 39.3049 87.79 87.79 87.79z" opacity=".2"/>
    <path d="m128.826 175.645c28.979 0 52.471-23.492 52.471-52.471 0-28.9789-23.492-52.471-52.471-52.471s-52.471 23.4921-52.471 52.471c0 28.979 23.492 52.471 52.471 52.471z" opacity=".2"/>
  </g>
  <path d="m128.741 105.827c-9.66 0-17.491 7.831-17.491 17.491.01 7.403 4.68 13.997 11.661 16.465v95.465h11.661v-95.465c6.98-2.468 11.65-9.062 11.66-16.465 0-9.66-7.831-17.491-17.491-17.491z" fill="#000" opacity=".2"/>
  <path d="m128.741 105.827c-9.66 0-17.491 7.831-17.491 17.491.01 7.403 4.68 13.997 11.661 16.465v95.465h11.661v-95.465c6.98-2.468 11.65-9.062 11.66-16.465 0-9.66-7.831-17.491-17.491-17.491z" fill="#000" opacity=".1"/>
  <path d="m128.74 105.826c-9.66 0-17.49 7.832-17.49 17.492.01 7.403 4.68 13.997 11.66 16.465v95.231c1.937.128 3.877.206 5.819.234 1.95-.048 3.898-.146 5.843-.295v-95.17c6.98-2.468 11.65-9.062 11.66-16.465 0-9.66-7.832-17.492-17.492-17.492z" fill="#fff"/>
  <path d="m128.752 11.248c-29.7043 0-58.1919 11.8-79.196 32.804-21.0041 21.0041-32.804 49.4917-32.804 79.196.0116.39.0253.78.041 1.17.219-29.5532 12.11-57.8218 33.0815-78.6455 20.9715-20.8238 49.3236-32.5145 78.8775-32.5245 29.496.0092 57.797 11.6532 78.759 32.4037 20.962 20.7506 32.892 48.9324 33.2 78.4263.015-.277.028-.553.041-.83 0-29.7043-11.8-58.1919-32.804-79.196-21.004-21.004-49.492-32.804-79.196-32.804z" fill="#fff" opacity=".3"/>
  <path d="m128.752 235.248c-14.708 0-29.2721-2.897-42.8606-8.526-13.5885-5.628-25.9352-13.878-36.3354-24.278s-18.65-22.747-24.2786-36.335c-5.6285-13.589-8.5254-28.153-8.5254-42.861.0116-.39.0253-.78.041-1.17.219 29.553 12.11 57.822 33.0815 78.646 20.9715 20.823 49.3236 32.514 78.8775 32.524 29.496-.009 57.797-11.653 78.759-32.404 20.962-20.75 32.892-48.932 33.2-78.426.015.277.028.553.041.83 0 29.704-11.8 58.192-32.804 79.196s-49.492 32.804-79.196 32.804z" fill="#000" opacity=".2"/>
</svg>
