<svg height="256" viewBox="0 0 256 256" width="256" xmlns="http://www.w3.org/2000/svg" xmlns:xlink="http://www.w3.org/1999/xlink">
  <radialGradient id="radialGradient881" cx="380" cy="160.36127" gradientTransform="matrix(.97295578 0 0 1.205917 -197.96123 -29.461114)" gradientUnits="userSpaceOnUse" r="92.875366">
    <stop offset="0" stop-color="#d8d8d8"/>
    <stop offset="1" stop-color="#fcfcfc"/>
  </radialGradient>
  <filter id="filter832" color-interpolation-filters="sRGB" height="1.021682" width="1.026873" x="-.013437" y="-.010841">
    <feGaussianBlur stdDeviation="1.0298864"/>
  </filter>
  <filter id="filter878" color-interpolation-filters="sRGB" height="1.086727" width="1.107493" x="-.053746" y="-.043364">
    <feGaussianBlur stdDeviation="4.1195455"/>
  </filter>
  <path d="m218.84146 135.96252c0 62.51329-37.81506 103.15057-91.65341 103.15057-53.838355 0-92.301141-44.52363-92.301141-107.03693 0-19.93856 5.087623-41.587787 12.882065-57.857937 16.643458-34.741614 37.477695-59.556849 74.884986-63.105125 41.02276 2.914775 66.57737 28.306527 84.58526 66.712903 7.46689 15.925001 11.60224 38.743399 11.60224 58.136519z" filter="url(#filter878)" opacity=".1"/>
  <path d="m218.84146 135.96252c0 62.51329-37.81506 103.15057-91.65341 103.15057-53.838355 0-92.301141-44.52363-92.301141-107.03693 0-19.93856 5.087623-41.587787 12.882065-57.857937 16.643458-34.741614 37.477695-59.556849 74.884986-63.105125 41.02276 2.914775 66.57737 28.306527 84.58526 66.712903 7.46689 15.925001 11.60224 38.743399 11.60224 58.136519z" filter="url(#filter832)" opacity=".1"/>
  <path d="m218.84146 135.96252c0 62.51329-37.81506 103.15057-91.65341 103.15057-53.838355 0-92.301141-44.52363-92.301141-107.03693 0-19.93856 5.087623-41.587787 12.882065-57.857937 16.643458-34.741614 37.477695-59.556849 74.884986-63.105125 41.02276 2.914775 66.57737 28.306527 84.58526 66.712903 7.46689 15.925001 11.60224 38.743399 11.60224 58.136519z" opacity=".1"/>
  <path d="m217.61417 135.77219c0 61.41656-37.15163 101.3409-90.04545 101.3409-52.893814 0-90.681811-43.74251-90.681811-105.15908 0-19.58876 4.998366-40.858173 12.656063-56.84288 16.351466-34.132109 36.820188-58.511987 73.571208-61.998012 40.30306 2.863638 65.40934 27.809919 83.1013 65.542495 7.33589 15.645614 11.39869 38.063687 11.39869 57.116577z" fill="url(#radialGradient881)" opacity=".99"/>
  <path d="m217.79908 135.77219c0 61.41656-37.15163 101.3409-90.04545 101.3409-52.893814 0-90.681811-43.74251-90.681811-105.15908 0-19.58876 4.998366-40.858173 12.656063-56.84288 16.351466-34.132109 36.820188-58.511987 73.571208-61.998012 40.30306 2.863638 65.40934 27.809919 83.1013 65.542495 7.33589 15.645614 11.39869 38.063687 11.39869 57.116577z" fill="none" opacity=".99"/>
  <path d="m178.58084 37.748395c10.12601 10.473857 18.517 23.6673 25.68831 38.961939 7.33589 15.645614 11.39993 38.062656 11.39993 57.115546 0 61.41656-37.1521 101.34132-90.04592 101.34132-23.59937 0-44.188036-8.71293-59.758865-23.81271 15.782565 16.29555 37.109045 25.75862 61.704775 25.75862 52.89382 0 90.04592-39.92475 90.04592-101.34132 0-19.05289-4.06404-41.46993-11.39992-57.115545-7.62466-16.261501-16.63246-30.140138-27.63423-40.90785z" fill="#fff" fill-opacity=".403922"/>
  <g transform="matrix(.97295578 0 0 .97295578 1.679619 -2.519509)">
    <g fill="#434343">
      <path d="m111.0809 199.01786 13.77543-13.57578 13.57578 13.97507z"/>
      <path d="m38.87689 132.51705.0391 15.41406c1.61544 2.33643 3.56994 4.57147 5.8164 6.69922.0403-.21946-.041-14.97852-.041-14.97852zm8.76758 15.07031-.10742 9.51953c1.24342 1.0245 2.54947 2.02449 3.92969 2.99024v-9.48828zm25.83008 4.55078-.16992 18.91992c2.15479.77631 4.36939 1.50245 6.63281 2.18164l.0547-19.24609zm-17.26172.76367-.12109 10.09766c.0497.0588.11288.11701.16601.17578 1.3619.80485 2.78269 1.57878 4.23829 2.33203v-9.46679zm8.51953 4.69727-.12109 9.91797c1.38406.6348 2.80642 1.24402 4.25586 1.83398-.005-4.71413-.0352-17.18261-.0352-9.92383zm54.20703 4.37109-.0527 17.62305c2.05939.0846 4.1238.13991 6.19141.14844.77745.003 1.55826-.008 2.33789-.0137l-.0176-17.73047zm-33.38671 1.10352.15039 11.76758c1.54042.39154 3.10342.75463 4.67968 1.10156l-.19726-11.71289zm11.25586 3.5625-.0879 10.5664c1.55756.27581 3.12953.52561 4.71093.75782l.01-10.34961zm16.86718 1.58594-5.18945.0176-.0527 10.34766.0371.25195c1.75428.18144 3.51627.34383 5.2871.47071z"/>
      <path d="m-213.07812 120.79883c-1.10985 0-2.24312.12681-3.39844.38281-1.15532.24488-2.32325.60733-3.50586 1.08594v5.47656c1.10983-.84592 2.15161-1.48134 3.125-1.9043.97338-.43409 1.86877-.65039 2.6875-.65039 1.06435 0 1.91399.35601 2.55078 1.06836.64589.71236.96875 1.65161.96875 2.82031 0 .75687-.15817 1.48628-.47656 2.1875-.3184.70123-.81053 1.41969-1.47461 2.1543l-7.43555 8.03125v4.72461h14.80469v-4.72461h-8.96485l4.35352-4.67578c1.8376-1.9701 3.04212-3.53833 3.61523-4.70703.57312-1.17983.85938-2.44872.85938-3.80664 0-2.34854-.67775-4.18074-2.0332-5.49414-1.34636-1.3134-3.23779-1.96875-5.67578-1.96875zm13.22265.44922v14.02539c.98248-.50088 1.90074-.86782 2.75586-1.10156.85512-.24487 1.66097-.36719 2.41602-.36719 1.27358 0 2.27418.37789 3.00195 1.13476.73685.75688 1.10547 1.79207 1.10547 3.10547 0 1.30227-.36862 2.33747-1.10547 3.10547-.72777.75688-1.72837 1.13477-3.00195 1.13477-.88241 0-1.8255-.19442-2.82618-.58399-.99157-.38956-2.0425-.97477-3.15234-1.7539v5.05859c1.11894.55653 2.24306.9692 3.37109 1.23633 1.13713.27826 2.28414.41797 3.43946.41797 2.67452 0 4.76266-.76224 6.26367-2.28711 1.5101-1.52488 2.26367-3.63454 2.26367-6.32813 0-2.71584-.69147-4.83-2.07422-6.34375-1.38275-1.52488-3.31534-2.28906-5.79883-2.28906-.43666 0-.86016.0393-1.26953.11719-.40026.0668-.79894.16721-1.19922.30078v-3.85742h8.86914v-4.72461z" transform="matrix(1.00000001747 0 0 .99999999535 325.29877 10.999472)"/>
      <path d="m36.398438 145.71484c.02558.69605.04492 1.39471.08008 2.08594 5.883842 10.38509 17.847554 18.89865 33.08789 24.91992 16.051442 6.34173 35.676192 9.93972 55.507812 10.02149 21.7536.0897 44.43239-3.30794 62.52539-9.56446 17.002-5.87924 29.90105-14.29705 34.17773-24.87109.0208-.7542.0763-1.48724.0859-2.24805l-.2168-.0625c-3.17328 10.98341-16.42043 20.02768-34.375 26.23633-17.95456 6.20865-40.54688 9.59902-62.19336 9.50977-19.71326-.0813-39.232066-3.66436-55.144524-9.95117-15.91242-6.28682-28.194905-15.28121-33.521447-26.08204z" transform="translate(0 -1.999531)"/>
    </g>
    <path d="m36.439453 146.75391c.03081.70403.03943 1.41815.08008 2.11718 5.898339 10.35297 17.841094 18.84199 33.046875 24.84961 16.051442 6.34173 35.676192 9.93972 55.507812 10.02149 21.7536.0897 44.43239-3.30794 62.52539-9.56446 16.94669-5.86012 29.81733-14.24211 34.13672-24.76757.0275-.78877.0746-1.56524.0898-2.36133l-.17969-.0527c-3.17328 10.98341-16.42043 20.02768-34.375 26.23633-17.95456 6.20865-40.54688 9.59902-62.19336 9.50977-19.71326-.0813-39.232066-3.66436-55.144524-9.95117-15.889636-6.27786-28.155303-15.25696-33.494103-26.03715z" fill="#efefef" transform="translate(0 -1.999531)"/>
    <path d="m39.505859 126.41406.03711 14.9961c1.571751 2.27324 3.47445 4.44932 5.660156 6.51953.005327-.02901-.003372-1.52212-.001953-2.00196-2.184855-2.06964-4.086939-4.24503-5.658203-6.51757l-.03125-12.99024zm70.296871 1.57227c-.79657 0-1.66817.21046-2.61523.63281-.94708.41151-1.95925 1.03046-3.03906 1.85352v2c1.07981-.82305 2.09199-1.442 3.03906-1.85352.94706-.42235 1.81865-.63281 2.61523-.63281 1.03557 0 1.86286.34598 2.48243 1.03906.43169.47612.70311 1.0647.83789 1.75.06619-.33003.10351-.66439.10351-1.00586 0-1.13708-.31298-2.05104-.9414-2.74414-.61957-.69308-1.44685-1.03906-2.48243-1.03906zm18.00391.76172v2h8.62891v-2zm-9.49414 3.20507c-.10469.95739-.36555 1.86679-.7832 2.72657-.55761 1.13709-1.72968 2.66326-3.51758 4.58008l-4.23438 4.54882h1.86133l2.37305-2.54882c1.7879-1.91682 2.95997-3.44299 3.51758-4.58008.55762-1.14792.83593-2.38388.83593-3.70508 0-.35382-.0211-.69184-.05273-1.02149zm10.44922 4.41602c-.73463 0-1.51762.11917-2.34961.35742-.83198.22742-1.72573.58297-2.68164 1.07032v2c.95591-.48734 1.84965-.8429 2.68164-1.07032.83199-.23825 1.61498-.35742 2.34961-.35742 1.23914 0 2.21379.36712 2.92187 1.10352.51641.53043.84028 1.20619.98438 2.01757.05575-.31324.08984-.64234.08984-.99609 0-1.27788-.35728-2.28507-1.07422-3.02148-.70807-.7364-1.68272-1.10352-2.92187-1.10352zm9.07031 5.10352c-.16381 2.15841-.88477 3.88395-2.16601 5.17773-1.46042 1.48363-3.49156 2.22656-6.09375 2.22656-1.12408 0-2.24128-.13747-3.34766-.4082-1.09752-.25991-2.19062-.65969-3.2793-1.20117v2c1.08868.54148 2.18178.94126 3.2793 1.20117 1.10638.27073 2.22358.4082 3.34766.4082 2.60219 0 4.63333-.74293 6.09375-2.22656 1.46926-1.48364 2.20312-3.53551 2.20312-6.15625 0-.3516-.01324-.69062-.03711-1.02148zm-58.330077 5.83398-.046875 16.72852c-2.196155-.65902-4.344475-1.36422-6.435547-2.11719l-.017578 1.99414c2.096516.75531 4.250918 1.46222 6.453125 2.12305l.052734-18.72657zm-31.548828 1.04883-.021484 1.98242c1.209792.99679 2.479372 1.97052 3.822265 2.91016v-2c-1.335049-.93416-2.597361-1.90189-3.800781-2.89258zm56.140625.04883v2h14.4043v-2zm-47.816406 5.69336-.023438 1.97461c.048356.05721.110416.11274.16211.16992 1.325068.78308 2.706813 1.53665 4.123046 2.26953v-2c-1.416234-.73288-2.797979-1.48645-4.123046-2.26953-.044089-.04877-.094436-.0961-.138672-.14453zm28.640625 2.04687.146484 11.44922c1.498761.38095 3.019103.73472 4.552735 1.07227l-.033204-2.00782c-1.522254-.33532-3.0317-.68628-4.519531-1.06445l-.121094-9.44336zm-20.34961 2.33399-.02539 1.98828c1.346629.61763 2.730384 1.21115 4.140625 1.78515-.001009-.95091-.005248-.64068-.007813-2.00195-1.398871-.56948-2.771103-1.15909-4.107422-1.77148zm35.806641 2.08007-.00781 8.07032c-1.53342-.22517-3.056026-.46905-4.566409-.73633l-.015625 1.99804c1.515437.26836 3.043397.51236 4.582034.73829l.00976-10.07032zm6.81641 8.74805-.00977 1.93164.03516.24414c1.70683.17653 3.42159.33554 5.14453.45899l-.01563-2.00196c-1.71764-.12329-3.42727-.28104-5.1289-.45703zm10.16601.91016-.00586 2c2.0037.08231 4.01175.13623 6.02344.14453.75642.00292 1.51685-.00813 2.27539-.01367l-.00195-2c-.75789.00584-1.51766.01658-2.27344.01367-2.00973-.00829-4.01582-.06236-6.01758-.14453zm-5.60156 18.92773-2 1.9707 26.61133.38868-1.97071-2.0293z" opacity=".2" transform="matrix(1.0277959 0 0 1.0277959 -1.726305 2.589541)"/>
    <path d="m110.86523 125.71484c-1.07983 0-2.18256.12202-3.30664.3711-1.12407.23825-2.25953.59097-3.41015 1.05664v2c1.15062-.46568 2.28609-.81839 3.41015-1.05664 1.12409-.24908 2.22682-.3711 3.30664-.3711 2.37207 0 4.21154.63814 5.52149 1.91602 1.11378 1.07923 1.75257 2.52092 1.92578 4.31836.0348-.3196.05273-.64431.05273-.97461 0-2.28503-.65972-4.06587-1.97851-5.34375-1.30995-1.27788-3.14943-1.91602-5.52149-1.91602zm12.86524.4375v2h12.70508v-2zm-84.224611.26172.00586 2.00586 5.65039 6.93555s.048084 9.52051.039063 12.57226c.000676.00064.001277.00132.001953.00196.03921-.21353-.041016-14.57422-.041016-14.57422zm90.703121 7.68164c-.42485 0-.83802.0375-1.23632.11328-.38944.065-.77656.16302-1.16602.29297v2c.38946-.12995.77657-.22797 1.16602-.29297.3983-.07582.81147-.11328 1.23632-.11328 2.41633 0 4.29527.74292 5.64063 2.22657 1.16633 1.27684 1.82693 2.99469 1.98242 5.15039.02404-.31675.03711-.64315.03711-.97852 0-2.64239-.67418-4.69906-2.01953-6.17187-1.34536-1.48365-3.2243-2.22657-5.64063-2.22657zm-17.08593.67969c-.07656.38172-.19324.75715-.35938 1.12305-.30979.68226-.78942 1.38096-1.43555 2.0957l-7.23437 7.81445v2l7.23437-7.81445c.64614-.71473 1.12576-1.41344 1.43555-2.0957.30978-.68226.46289-1.39251.46289-2.12891 0-.35597-.04209-.68184-.10351-.99414zm-65.087894 6.30078-.103515 9.26172c.007066.00582.014413.01176.021484.01758l.082031-7.2793 3.71875 2.93945v-2zm84.632814 2.41406c-.14394.80871-.46761 1.48679-.98438 2.02539-.70808.73642-1.68273 1.10352-2.92187 1.10352-.85855 0-1.77638-.18932-2.75-.56836-.96476-.37902-1.98658-.94702-3.06641-1.70508v2c1.07984.75806 2.10165 1.32606 3.06641 1.70508.97363.37904 1.89145.56836 2.75.56836 1.23915 0 2.2138-.36709 2.92187-1.10352.71694-.74723 1.07422-1.75444 1.07422-3.02148 0-.35742-.03389-.68884-.08984-1.00391zm-59.500001 2.01368-.166016 18.4082c.005761.00207.011816.00378.017578.00586l.148438-16.41406 6.333984 1.80273.005859-1.99805zm38.470701.30468-1.86133 2h8.72071v-2zm-55.265623.43946-.119141 9.82422c.007114.00841.015807.01703.023438.02539l.095703-7.84961 4.166015 3.05273v-2zm8.289062 4.57031-.11914 9.64844c.008407.00385.01698.00786.02539.01172l.09375-7.66016 3.988282 1.77734c0-5.59826.015583 2.44961.02539 7.6543.002473.00101.00534.00095.007813.00195-.004865-4.58664-.033203-16.71872-.033203-9.65625zm52.740231 4.25195-.05078 17.14649c.00195.00008.00391-.00008.00586 0l.04492-15.14649 8.23047.02735.01563 15.25c.00065-.00001.0013 0 .00195 0l-.01758-17.25zm-32.484371 1.07422.02539 2.00586 4.482422 1.11914.158203 9.38867c.011183.00247.022019.00535.033204.00782l-.191407-11.39649zm10.951172 3.46485-.083985 10.28124c.005139.00091.010487.00105.015625.00196l.06836-8.2832 4.505859.94921.00195-2zm16.412109 1.54296-5.04883.01758-.05078 10.06836.00977.06836.04101-8.13672 5.04883-.01758.06445 8.78711c.00525.00038.01038.00158.01563.00196zm10.87891 16.75586-13.4043 13.20703 2 .0293 11.4043-11.23633 11.23632 11.56641 1.97071.0293z" fill="#f5f2f2" opacity=".3" transform="matrix(1.0277959 0 0 1.0277959 -1.726305 2.589541)"/>
  </g>
  <path d="m123.11328 13.113281c-36.751019 3.486025-57.218845 27.865938-73.570311 61.998047-7.657697 15.984707-12.65625 37.253032-12.65625 56.841792 0 .41837.008219.83329.011719 1.25.125022-19.38093 5.084125-40.310172 12.644531-56.091792 16.351466-34.132109 36.819292-58.512022 73.570311-61.998047 40.30306 2.863638 65.4096 27.810393 83.10156 65.542969 7.23293 15.426024 11.27638 37.42804 11.38868 56.30469.00312-.39683.00976-.79081.00976-1.18946 0-19.05289-4.06255-41.469616-11.39844-57.11523-17.69196-37.732576-42.7985-62.679331-83.10156-65.542969z" fill="#fff" opacity=".3"/>
  <path d="m36.898438 131.20312c-.001609.24941-.011719.50113-.011719.75 0 61.41658 37.787826 105.16016 90.681641 105.16016 52.89382 0 90.04492-39.92524 90.04492-101.3418 0-.26741-.00817-.54183-.00976-.81054-.47827 60.73995-37.48467 100.15234-90.03516 100.15234-52.533503 0-90.159653-43.15231-90.669922-103.91016z" fill="#1f0000" opacity=".2"/>
</svg>
