<svg xmlns="http://www.w3.org/2000/svg" xmlns:xlink="http://www.w3.org/1999/xlink" width="256" height="256" version="1.0" viewBox="0 0 256 256" style="enable-background:new">
 <title id="title4162">
  Adwaita Icon Template
 </title>
 <defs>
  <linearGradient id="linearGradient2250">
   <stop id="stop2244" offset="0" style="stop-opacity:0.30000001"/>
   <stop id="stop2248" offset="1" style="stop-opacity:0"/>
  </linearGradient>
  <linearGradient id="linearGradient1610" x1="70.586" x2="60" y1="53.255" y2="23" gradientTransform="translate(0,187)" gradientUnits="userSpaceOnUse" xlink:href="#linearGradient1656"/>
  <linearGradient id="linearGradient1656">
   <stop id="stop1652" offset="0" style="stop-color:#ffffff"/>
   <stop id="stop1654" offset="1" style="stop-color:#deddda"/>
  </linearGradient>
  <linearGradient id="linearGradient1612" x1="60" x2="68" y1="268" y2="268" gradientUnits="userSpaceOnUse" xlink:href="#linearGradient1270"/>
  <linearGradient id="linearGradient1270">
   <stop id="stop1258" offset="0" style="stop-color:#949390"/>
   <stop style="stop-color:#d5d3cf" id="stop1260" offset=".083"/>
   <stop id="stop1262" offset=".167" style="stop-color:#949390"/>
   <stop style="stop-color:#949390" id="stop1264" offset=".833"/>
   <stop id="stop1266" offset=".917" style="stop-color:#d5d3cf"/>
   <stop id="stop1268" offset="1" style="stop-color:#949390"/>
  </linearGradient>
  <linearGradient id="linearGradient1612-3" x1="60" x2="68" y1="268" y2="268" gradientTransform="translate(0,-66)" gradientUnits="userSpaceOnUse" xlink:href="#linearGradient1270"/>
  <clipPath id="clipPath2213" clipPathUnits="userSpaceOnUse">
   <rect width="16" height="56" x="160" y="-188" rx="8" ry="8" style="fill:none;stroke:#000000"/>
  </clipPath>
  <clipPath id="clipPath8318" clipPathUnits="userSpaceOnUse">
   <rect width="16" height="56" x="160" y="-188" rx="8" ry="8" style="fill:none;stroke:#000000"/>
  </clipPath>
  <clipPath id="clipPath8322" clipPathUnits="userSpaceOnUse">
   <rect width="16" height="56" x="160" y="-188" rx="8" ry="8" style="fill:none;stroke:#000000"/>
  </clipPath>
  <clipPath id="clipPath8326" clipPathUnits="userSpaceOnUse">
   <rect width="16" height="56" x="160" y="-188" rx="8" ry="8" style="fill:none;stroke:#000000"/>
  </clipPath>
  <clipPath id="clipPath8330" clipPathUnits="userSpaceOnUse">
   <rect width="16" height="56" x="160" y="-188" rx="8" ry="8" style="fill:none;stroke:#000000"/>
  </clipPath>
  <clipPath id="clipPath8334" clipPathUnits="userSpaceOnUse">
   <rect width="16" height="56" x="160" y="-188" rx="8" ry="8" style="fill:none;stroke:#000000"/>
  </clipPath>
  <linearGradient id="linearGradient1159" x1="32" x2="112" y1="-244" y2="-244" gradientTransform="translate(-135.99999)" gradientUnits="userSpaceOnUse" xlink:href="#linearGradient1723"/>
  <linearGradient id="linearGradient1723">
   <stop style="stop-color:#d5d3cf" id="stop1719" offset="0"/>
   <stop id="stop1731" offset=".045" style="stop-color:#f6f5f4"/>
   <stop id="stop1729" offset=".091" style="stop-color:#d5d3cf"/>
   <stop id="stop1727" offset=".909" style="stop-color:#d5d3cf"/>
   <stop style="stop-color:#eeeeec" id="stop1733" offset=".955"/>
   <stop style="stop-color:#d5d3cf" id="stop1721" offset="1"/>
  </linearGradient>
  <linearGradient id="linearGradient1130" x1="344" x2="340" y1="76" y2="72" gradientTransform="matrix(0.25,0,0,0.25,180,83)" gradientUnits="userSpaceOnUse" xlink:href="#linearGradient1351-3"/>
  <linearGradient id="linearGradient1351-3">
   <stop style="stop-color:#d5d3cf" id="stop1347" offset="0"/>
   <stop style="stop-color:#ffffff" id="stop1349-6" offset="1"/>
  </linearGradient>
  <clipPath id="clipPath1609-7" clipPathUnits="userSpaceOnUse">
   <path d="m 252,116 28,-28 v -8 h -36 v 36 z" style="fill:#e74747"/>
  </clipPath>
  <linearGradient id="linearGradient1103" x1="128.817" x2="158.518" y1="-97.698" y2="-127.399" gradientUnits="userSpaceOnUse" xlink:href="#linearGradient1005"/>
  <linearGradient id="linearGradient1005">
   <stop id="stop1001" offset="0" style="stop-color:#d0bb8e"/>
   <stop id="stop1003" offset="1" style="stop-color:#ffffff"/>
  </linearGradient>
  <linearGradient id="linearGradient8548" x1="8" x2="112" y1="-244.844" y2="-244" gradientTransform="translate(-123.99998,-4.0000004)" gradientUnits="userSpaceOnUse" xlink:href="#linearGradient1723"/>
  <linearGradient id="linearGradient8550" x1="344" x2="340" y1="76" y2="72" gradientTransform="matrix(0.25,0,0,0.25,180,83)" gradientUnits="userSpaceOnUse" xlink:href="#linearGradient1351-3"/>
  <linearGradient id="linearGradient8548-3" x1="8" x2="112" y1="-244.844" y2="-244" gradientTransform="translate(-123.99998,40.00001)" gradientUnits="userSpaceOnUse" xlink:href="#linearGradient1723"/>
  <linearGradient id="linearGradient979" x1="261.503" x2="261.23" y1="105.838" y2="105.559" gradientUnits="userSpaceOnUse" xlink:href="#linearGradient1351-3"/>
  <clipPath id="clipPath1609-7-1" clipPathUnits="userSpaceOnUse">
   <path d="m 252,116 28,-28 v -8 h -36 v 36 z" style="fill:#e74747"/>
  </clipPath>
  <clipPath id="clipPath1609-7-1-7" clipPathUnits="userSpaceOnUse">
   <path d="m 252,116 28,-28 v -8 h -36 v 36 z" style="fill:#e74747"/>
  </clipPath>
  <linearGradient id="linearGradient917" x1="103.436" x2="102.252" y1="264.437" y2="263.286" gradientTransform="translate(-8.7e-7,-41)" gradientUnits="userSpaceOnUse" xlink:href="#linearGradient1351-3"/>
  <clipPath id="clipPath983-7" clipPathUnits="userSpaceOnUse">
   <path d="M 115.03125,44 C 42.3826,44 32,54.356615 32,126.9375 v 58.125 C 32,257.64309 42.3826,268 115.03125,268 H 152 V 44 Z" style="fill:#4d4d4d"/>
  </clipPath>
  <filter id="filter973" width="1.275" height="1.147" x="-.14" y="-.07" style="color-interpolation-filters:sRGB">
   <feGaussianBlur id="feGaussianBlur975" stdDeviation="6.88"/>
  </filter>
  <linearGradient id="linearGradient4358" x1="88" x2="488" y1="88" y2="488" gradientTransform="rotate(-90,287.9946,298)" gradientUnits="userSpaceOnUse" xlink:href="#linearGradient4360"/>
  <linearGradient id="linearGradient4360">
   <stop style="stop-color:#000000;stop-opacity:0.58823532" id="stop4362" offset="0"/>
   <stop id="stop4364" offset=".88" style="stop-color:#000000;stop-opacity:0"/>
   <stop style="stop-color:#000000" id="stop4366" offset="1"/>
  </linearGradient>
  <filter id="filter4380" width="1.106" height="1.088" x="-.05" y="-.04" style="color-interpolation-filters:sRGB">
   <feGaussianBlur id="feGaussianBlur4382" stdDeviation="8.48"/>
  </filter>
  <filter id="filter4346" width="1.026" height="1.022" x="-.01" y="-.01" style="color-interpolation-filters:sRGB">
   <feGaussianBlur id="feGaussianBlur4348" stdDeviation="2.12"/>
  </filter>
  <linearGradient id="linearGradient2242" x1="127.828" x2="139.067" y1="127.702" y2="127.672" gradientUnits="userSpaceOnUse" xlink:href="#linearGradient2250"/>
 </defs>
 <path d="M 189.84323,74 C 119.24979,74 111.65402,81.250835 112,151.98706 V 298 444.01294 C 111.65402,514.74917 119.24979,522 189.84323,522 H 386.15677 C 456.75021,522 462.16345,514.72616 464,444.01294 V 298 151.98706 C 464,81.249993 456.75021,74 386.15677,74 Z" transform="matrix(0,0.5,-0.5,0,276.82523,-15.328148)" style="opacity:0.1;filter:url(#filter4346)"/>
 <path d="M 189.84323,74 C 119.24979,74 111.65402,81.250835 112,151.98706 V 298 444.01294 C 111.65402,514.74917 119.24979,522 189.84323,522 H 386.15677 C 456.75021,522 464,514.75001 464,444.01294 V 298 151.98706 C 464,81.249993 456.75021,74 386.15677,74 Z" transform="matrix(0,0.5,-0.5,0,276.82523,-15.328148)" style="opacity:0.3;fill:url(#linearGradient4358);filter:url(#filter4380)"/>
 <path d="m 241.83043,77.478254 c 0,-36.098812 -3.69016,-39.983002 -39.68984,-39.80608 H 127.83043 53.520275 c -35.99969,-0.176922 -39.68984,3.707268 -39.68984,39.80608 V 177.86557 c 0,36.09881 3.68973,39.80608 39.68984,39.80608 h 74.310155 74.31016 c 36.00011,0 39.68984,-3.70727 39.68984,-39.80608 z" style="opacity:0.1"/>
 <path d="m 239.82523,176.74483 c 0,35.29673 -3.62542,39.09461 -38.99353,38.92162 H 127.82523 54.818765 c -35.36812,0.17299 -38.99353,-3.62489 -38.99353,-38.92162 V 78.588074 c 0,-35.296717 3.625,-38.921616 38.99353,-38.921616 h 73.006465 73.00647 c 35.36853,0 38.99353,3.624899 38.99353,38.921616 z" style="fill:#f6f5f4"/>
 <path d="m 127.82793,39.66915 v 175.9946 h 73.00391 c 35.36811,0.17299 38.99414,-3.62504 38.99414,-38.92069 V 78.587874 c 0,-35.295634 -3.62561,-38.918724 -38.99414,-38.918724 z" style="fill:#3584e4"/>
 <path d="m 127.82793,127.66916 v 87.99804 h 73.00391 c 35.36811,0.17299 38.99414,-3.62515 38.99414,-38.92188 v -49.07616 z" style="opacity:0.1;fill:#ffffff"/>
 <path d="m 184.03785,87.686534 v 12.00001 h -32 v 7.999996 h 13.23633 c 4.76089,12.28941 10.60824,22.71139 17.49707,31.2168 -8.01487,8.3014 -17.2917,13.88082 -27.84766,16.94141 l 2.22852,7.68359 c 11.73051,-3.40113 22.0451,-9.67254 30.88574,-18.70117 8.84064,9.02863 19.15524,15.30004 30.88574,18.70117 l 2.22852,-7.68359 c -10.55596,-3.06059 -19.83278,-8.64001 -27.84766,-16.94141 6.88884,-8.50541 12.73619,-18.9274 17.49707,-31.2168 h 13.23633 v -7.999996 h -32 v -12.00001 z m -10.15527,20.000006 h 28.31055 c -4.06129,9.88779 -8.77908,18.2394 -14.15528,25.14161 -5.3762,-6.90221 -10.09398,-15.25382 -14.15527,-25.14161 z" style="fill:#ffffff"/>
 <path d="m 94.377705,164.00976 c -1.22655,-3.24676 -2.38095,-6.42136 -3.4632,-9.52381 -1.08225,-3.1746 -2.20058,-6.12516 -3.35497,-9.37191 h -33.98268 l -6.81819,18.89572 h -10.93073 c 2.886,-7.93651 5.59163,-15.25974 8.11688,-21.96969 2.52525,-6.78211 4.97836,-13.20346 7.35931,-19.26407 2.4531,-6.0606 4.87013,-11.83261 7.25108,-17.31602 2.38096,-5.555556 4.87013,-11.038956 7.46753,-16.450226 h 9.63204 c 2.59739,5.41127 5.08657,10.89467 7.46752,16.450226 2.38095,5.48341 4.76191,11.25542 7.14286,17.31602 2.4531,6.06061 4.94228,12.48196 7.46753,19.26407 2.525245,6.70995 5.230875,14.03318 8.116875,21.96969 z m -9.84847,-27.49999 c -2.30882,-6.27706 -4.61762,-12.65152 -6.92642,-18.49567 -2.23664,-5.91631 -4.58152,-11.5801 -7.03462,-16.99135 -2.52525,5.41125 -4.94228,11.07504 -7.25108,16.99135 -2.23666,5.84415 -4.47331,12.21861 -6.70996,18.49567 z" style="fill:#77767b"/>
 <path d="m 54.818169,39.667201 c -35.36853,0 -38.992187,3.623201 -38.992187,38.919923 v 98.158196 c 0,0.0882 0.0019,0.16224 0.002,0.25 V 80.585174 c -4.7e-5,-35.296721 3.625564,-38.92188 38.994094,-38.92188 h 73.005854 73.00586 c 35.28016,0 38.97394,3.621035 38.99219,38.67188 v -1.74805 c 0,-35.296722 -3.62561,-38.919923 -38.99414,-38.919923 h -73.00586 z" style="opacity:0.3;fill:#ffffff"/>
 <path d="m 15.825982,174.74532 v 2 c 0,35.29673 3.624067,39.09487 38.992187,38.92188 h 73.007811 73.00586 c 35.36811,0.17299 38.99414,-3.62515 38.99414,-38.92188 v -2 c 0,35.29673 -3.62603,39.09487 -38.99414,38.92188 H 127.82598 54.818169 c -35.36812,0.17299 -38.992187,-3.62515 -38.992187,-38.92188 z" style="opacity:0.2"/>
 <rect width="16.813" height="176.069" x="127.83" y="39.67" style="fill:url(#linearGradient2242)"/>
</svg>
