<?xml version="1.0" encoding="UTF-8" standalone="no"?>
<svg
   xmlns:osb="http://www.openswatchbook.org/uri/2009/osb"
   xmlns:dc="http://purl.org/dc/elements/1.1/"
   xmlns:cc="http://creativecommons.org/ns#"
   xmlns:rdf="http://www.w3.org/1999/02/22-rdf-syntax-ns#"
   xmlns:svg="http://www.w3.org/2000/svg"
   xmlns="http://www.w3.org/2000/svg"
   xmlns:xlink="http://www.w3.org/1999/xlink"
   xmlns:sodipodi="http://sodipodi.sourceforge.net/DTD/sodipodi-0.dtd"
   xmlns:inkscape="http://www.inkscape.org/namespaces/inkscape"
   width="256"
   height="256"
   version="1.1"
   viewBox="0 0 67.73 67.73"
   id="svg228"
   sodipodi:docname="preferences-system-sharing.svg"
   inkscape:version="0.92.3 (2405546, 2018-03-11)">
  <metadata
     id="metadata232">
    <rdf:RDF>
      <cc:Work
         rdf:about="">
        <dc:format>image/svg+xml</dc:format>
        <dc:type
           rdf:resource="http://purl.org/dc/dcmitype/StillImage" />
        <dc:title></dc:title>
      </cc:Work>
    </rdf:RDF>
  </metadata>
  <sodipodi:namedview
     pagecolor="#ffffff"
     bordercolor="#666666"
     borderopacity="1"
     objecttolerance="10"
     gridtolerance="10"
     guidetolerance="10"
     inkscape:pageopacity="0"
     inkscape:pageshadow="2"
     inkscape:window-width="1214"
     inkscape:window-height="996"
     id="namedview230"
     showgrid="false"
     inkscape:zoom="0.921875"
     inkscape:cx="126.91525"
     inkscape:cy="128"
     inkscape:window-x="447"
     inkscape:window-y="34"
     inkscape:window-maximized="0"
     inkscape:current-layer="layer1" />
  <defs
     id="defs193">
    <clipPath
       id="clipPath1025"
       clipPathUnits="userSpaceOnUse">
      <path
         d="M 111.94141,84 C 99.359506,84.145 90.1531,83.713998 82.625,87.867188 c -3.7641,2.0768 -6.751838,5.574737 -8.398438,9.960937 C 72.580062,102.21433 72,107.4241 72,114 v 42 h 160 v -26 c 0,-6.5759 -0.57996,-11.78566 -2.22656,-16.17188 -0.205,-0.5455 -0.47919,-1.03993 -0.74219,-1.54296 -0.1,-0.1848 -0.17844,-0.38051 -0.27344,-0.56641 -1.727,-3.38752 -4.25471,-6.14522 -7.38281,-7.87109 C 213.8463,99.694146 204.64049,100.1454 192.05859,100 H 192 151.66797 L 135.45312,84 h -23.49218 z"
         style="fill:#e3dfd5"
         id="path2" />
    </clipPath>
    <clipPath
       id="clipPath1082-3"
       clipPathUnits="userSpaceOnUse">
      <path
         d="M 361.9375,-212 C 507.2348,-212 528,-191.28677 528,-46.125 V 70.125 C 528,215.28618 507.2348,236 361.9375,236 H 214.0625 C 68.7652,236 48,215.28618 48,70.125 V -46.125 C 48,-191.28677 68.7652,-212 214.0625,-212 Z"
         style="fill:#8c59d9"
         id="path5" />
    </clipPath>
    <clipPath
       id="clipPath1082-3-5"
       clipPathUnits="userSpaceOnUse">
      <path
         d="M 361.9375,-212 C 507.2348,-212 528,-191.28677 528,-46.125 V 70.125 C 528,215.28618 507.2348,236 361.9375,236 H 214.0625 C 68.7652,236 48,215.28618 48,70.125 V -46.125 C 48,-191.28677 68.7652,-212 214.0625,-212 Z"
         style="fill:#8c59d9"
         id="path8" />
    </clipPath>
    <clipPath
       id="clipPath1082-3-9"
       clipPathUnits="userSpaceOnUse">
      <path
         d="M 361.9375,-212 C 507.2348,-212 528,-191.28677 528,-46.125 V 70.125 C 528,215.28618 507.2348,236 361.9375,236 H 214.0625 C 68.7652,236 48,215.28618 48,70.125 V -46.125 C 48,-191.28677 68.7652,-212 214.0625,-212 Z"
         style="fill:#8c59d9"
         id="path11" />
    </clipPath>
    <clipPath
       id="clipPath1082-3-3"
       clipPathUnits="userSpaceOnUse">
      <path
         d="M 361.9375,-212 C 507.2348,-212 528,-191.28677 528,-46.125 V 70.125 C 528,215.28618 507.2348,236 361.9375,236 H 214.0625 C 68.7652,236 48,215.28618 48,70.125 V -46.125 C 48,-191.28677 68.7652,-212 214.0625,-212 Z"
         style="fill:#8c59d9"
         id="path14" />
    </clipPath>
    <clipPath
       id="clipPath1082-3-53"
       clipPathUnits="userSpaceOnUse">
      <path
         d="M 361.9375,-212 C 507.2348,-212 528,-191.28677 528,-46.125 V 70.125 C 528,215.28618 507.2348,236 361.9375,236 H 214.0625 C 68.7652,236 48,215.28618 48,70.125 V -46.125 C 48,-191.28677 68.7652,-212 214.0625,-212 Z"
         style="fill:#8c59d9"
         id="path17" />
    </clipPath>
    <clipPath
       id="clipPath1082-3-6"
       clipPathUnits="userSpaceOnUse">
      <path
         d="M 361.9375,-212 C 507.2348,-212 528,-191.28677 528,-46.125 V 70.125 C 528,215.28618 507.2348,236 361.9375,236 H 214.0625 C 68.7652,236 48,215.28618 48,70.125 V -46.125 C 48,-191.28677 68.7652,-212 214.0625,-212 Z"
         style="fill:#8c59d9"
         id="path20" />
    </clipPath>
    <clipPath
       id="clipPath1082-3-91"
       clipPathUnits="userSpaceOnUse">
      <path
         d="M 361.9375,-212 C 507.2348,-212 528,-191.28677 528,-46.125 V 70.125 C 528,215.28618 507.2348,236 361.9375,236 H 214.0625 C 68.7652,236 48,215.28618 48,70.125 V -46.125 C 48,-191.28677 68.7652,-212 214.0625,-212 Z"
         style="fill:#8c59d9"
         id="path23" />
    </clipPath>
    <clipPath
       id="clipPath1025-0"
       clipPathUnits="userSpaceOnUse">
      <path
         style="fill:#8c59d9"
         d="M 329.9375,32 C 475.2348,32 496,52.71323 496,197.875 v 116.25 C 496,459.28618 475.2348,480 329.9375,480 H 182.0625 C 36.7652,480 16,459.28618 16,314.125 V 197.875 C 16,52.71323 36.7652,32 182.0625,32 Z"
         id="path26" />
    </clipPath>
    <clipPath
       id="clipPath4277-8"
       clipPathUnits="userSpaceOnUse">
      <rect
         style="opacity:0.81999972;fill:#88b637"
         width="512"
         height="512"
         x="0"
         y="0"
         ry="1"
         id="rect29" />
    </clipPath>
    <linearGradient
       id="linearGradient3650-7-9">
      <stop
         style="stop-color:#5884f4"
         id="stop4366"
         offset="0" />
      <stop
         id="stop4368"
         offset="1"
         style="stop-color:#80a3fa" />
    </linearGradient>
    <clipPath
       id="clipPath1082-3-36"
       clipPathUnits="userSpaceOnUse">
      <path
         d="M 361.9375,-212 C 507.2348,-212 528,-191.28677 528,-46.125 V 70.125 C 528,215.28618 507.2348,236 361.9375,236 H 214.0625 C 68.7652,236 48,215.28618 48,70.125 V -46.125 C 48,-191.28677 68.7652,-212 214.0625,-212 Z"
         style="fill:#8c59d9"
         id="path35" />
    </clipPath>
    <clipPath
       id="clipPath983"
       clipPathUnits="userSpaceOnUse">
      <path
         d="M 115.03125,44 C 42.3826,44 32,54.356615 32,126.9375 v 58.125 C 32,257.64309 42.3826,268 115.03125,268 H 152 V 44 Z"
         style="fill:#4d4d4d"
         id="path38" />
    </clipPath>
    <clipPath
       id="clipPath1082-3-62"
       clipPathUnits="userSpaceOnUse">
      <path
         d="M 361.9375,-212 C 507.2348,-212 528,-191.28677 528,-46.125 V 70.125 C 528,215.28618 507.2348,236 361.9375,236 H 214.0625 C 68.7652,236 48,215.28618 48,70.125 V -46.125 C 48,-191.28677 68.7652,-212 214.0625,-212 Z"
         style="fill:#8c59d9"
         id="path41" />
    </clipPath>
    <clipPath
       id="clipPath949"
       clipPathUnits="userSpaceOnUse">
      <path
         d="M 329.9375,32 C 475.2348,32 496,52.71323 496,197.875 v 116.25 C 496,459.28618 475.2348,480 329.9375,480 H 182.0625 C 36.7652,480 16,459.28618 16,314.125 V 197.875 C 16,52.71323 36.7652,32 182.0625,32 Z"
         style="fill:#eab305"
         id="path44" />
    </clipPath>
    <clipPath
       id="clipPath954"
       clipPathUnits="userSpaceOnUse">
      <path
         d="M 329.9375,32 C 475.2348,32 496,52.71323 496,197.875 v 116.25 C 496,459.28618 475.2348,480 329.9375,480 H 182.0625 C 36.7652,480 16,459.28618 16,314.125 V 197.875 C 16,52.71323 36.7652,32 182.0625,32 Z"
         style="fill:#eab305"
         id="path47" />
    </clipPath>
    <clipPath
       id="clipPath1082-3-8"
       clipPathUnits="userSpaceOnUse">
      <path
         d="M 361.9375,-212 C 507.2348,-212 528,-191.28677 528,-46.125 V 70.125 C 528,215.28618 507.2348,236 361.9375,236 H 214.0625 C 68.7652,236 48,215.28618 48,70.125 V -46.125 C 48,-191.28677 68.7652,-212 214.0625,-212 Z"
         style="fill:#8c59d9"
         id="path50" />
    </clipPath>
    <clipPath
       id="clipPath1082-3-92"
       clipPathUnits="userSpaceOnUse">
      <path
         d="M 361.9375,-212 C 507.2348,-212 528,-191.28677 528,-46.125 V 70.125 C 528,215.28618 507.2348,236 361.9375,236 H 214.0625 C 68.7652,236 48,215.28618 48,70.125 V -46.125 C 48,-191.28677 68.7652,-212 214.0625,-212 Z"
         style="fill:#8c59d9"
         id="path53" />
    </clipPath>
    <clipPath
       id="clipPath1082"
       clipPathUnits="userSpaceOnUse">
      <path
         d="M 361.9375,-212 C 507.2348,-212 528,-191.28677 528,-46.125 V 70.125 C 528,215.28618 507.2348,236 361.9375,236 H 214.0625 C 68.7652,236 48,215.28618 48,70.125 V -46.125 C 48,-191.28677 68.7652,-212 214.0625,-212 Z"
         style="fill:#8c59d9"
         id="path56" />
    </clipPath>
    <clipPath
       id="clipPath1082-3-361"
       clipPathUnits="userSpaceOnUse">
      <path
         d="M 361.9375,-212 C 507.2348,-212 528,-191.28677 528,-46.125 V 70.125 C 528,215.28618 507.2348,236 361.9375,236 H 214.0625 C 68.7652,236 48,215.28618 48,70.125 V -46.125 C 48,-191.28677 68.7652,-212 214.0625,-212 Z"
         style="fill:#8c59d9"
         id="path59" />
    </clipPath>
    <clipPath
       id="clipPath1079"
       clipPathUnits="userSpaceOnUse">
      <circle
         style="fill:url(#linearGradient1083)"
         cx="213.843"
         cy="146"
         r="55"
         transform="scale(-1,1)"
         id="circle62" />
    </clipPath>
    <clipPath
       id="clipPath984"
       clipPathUnits="userSpaceOnUse">
      <circle
         style="fill:url(#linearGradient1083)"
         cx="213.843"
         cy="146"
         r="55"
         transform="scale(-1,1)"
         id="circle65" />
    </clipPath>
    <clipPath
       id="clipPath988"
       clipPathUnits="userSpaceOnUse">
      <circle
         style="fill:url(#linearGradient1083)"
         cx="213.843"
         cy="146"
         r="55"
         transform="scale(-1,1)"
         id="circle68" />
    </clipPath>
    <clipPath
       id="clipPath992"
       clipPathUnits="userSpaceOnUse">
      <circle
         style="fill:url(#linearGradient1083)"
         cx="213.843"
         cy="146"
         r="55"
         transform="scale(-1,1)"
         id="circle71" />
    </clipPath>
    <clipPath
       id="clipPath1082-3-31"
       clipPathUnits="userSpaceOnUse">
      <path
         d="M 361.9375,-212 C 507.2348,-212 528,-191.28677 528,-46.125 V 70.125 C 528,215.28618 507.2348,236 361.9375,236 H 214.0625 C 68.7652,236 48,215.28618 48,70.125 V -46.125 C 48,-191.28677 68.7652,-212 214.0625,-212 Z"
         style="fill:#8c59d9"
         id="path74" />
    </clipPath>
    <clipPath
       id="clipPath1205"
       clipPathUnits="userSpaceOnUse">
      <path
         d="M 115.03125,44 C 42.3826,44 32,54.356615 32,126.9375 v 58.125 c 0,13.772 0.379014,25.29352 1.482422,34.9375 H 270.51758 C 271.62099,210.35602 272,198.8345 272,185.0625 v -58.125 C 272,54.356615 261.6174,44 188.96875,44 Z"
         style="fill:#f1f0e9"
         id="path77" />
    </clipPath>
    <clipPath
       id="clipPath1082-3-4"
       clipPathUnits="userSpaceOnUse">
      <path
         d="M 361.9375,-212 C 507.2348,-212 528,-191.28677 528,-46.125 V 70.125 C 528,215.28618 507.2348,236 361.9375,236 H 214.0625 C 68.7652,236 48,215.28618 48,70.125 V -46.125 C 48,-191.28677 68.7652,-212 214.0625,-212 Z"
         style="fill:#8c59d9"
         id="path80" />
    </clipPath>
    <clipPath
       id="clipPath1082-3-45"
       clipPathUnits="userSpaceOnUse">
      <path
         d="M 361.9375,-212 C 507.2348,-212 528,-191.28677 528,-46.125 V 70.125 C 528,215.28618 507.2348,236 361.9375,236 H 214.0625 C 68.7652,236 48,215.28618 48,70.125 V -46.125 C 48,-191.28677 68.7652,-212 214.0625,-212 Z"
         style="fill:#8c59d9"
         id="path83" />
    </clipPath>
    <clipPath
       id="clipPath1082-3-61"
       clipPathUnits="userSpaceOnUse">
      <path
         d="M 361.9375,-212 C 507.2348,-212 528,-191.28677 528,-46.125 V 70.125 C 528,215.28618 507.2348,236 361.9375,236 H 214.0625 C 68.7652,236 48,215.28618 48,70.125 V -46.125 C 48,-191.28677 68.7652,-212 214.0625,-212 Z"
         style="fill:#8c59d9"
         id="path86" />
    </clipPath>
    <clipPath
       id="clipPath1064"
       clipPathUnits="userSpaceOnUse">
      <path
         style="fill:#a3dbf0"
         d="M 115.03125,44 C 42.3826,44 32,54.356615 32,126.9375 v 58.125 c 0,10.16582 0.217657,19.07051 0.767578,26.9375 3.376331,48.30069 19.790377,56 82.263672,56 h 73.9375 c 62.4733,0 78.88734,-7.69931 82.26367,-56 C 271.78234,204.13301 272,195.22832 272,185.0625 v -58.125 C 272,54.356615 261.6174,44 188.96875,44 Z"
         id="path89" />
    </clipPath>
    <clipPath
       id="clipPath1082-3-32"
       clipPathUnits="userSpaceOnUse">
      <path
         d="M 361.9375,-212 C 507.2348,-212 528,-191.28677 528,-46.125 V 70.125 C 528,215.28618 507.2348,236 361.9375,236 H 214.0625 C 68.7652,236 48,215.28618 48,70.125 V -46.125 C 48,-191.28677 68.7652,-212 214.0625,-212 Z"
         style="fill:#8c59d9"
         id="path92" />
    </clipPath>
    <clipPath
       id="clipPath947"
       clipPathUnits="userSpaceOnUse">
      <path
         d="m 191.43333,45.066672 c 77.49189,0 88.56666,11.047056 88.56666,88.466668 v 62 C 279.99999,272.95263 268.92522,284 191.43333,284 H 112.56666 C 35.074773,284 23.999999,272.95263 23.999999,195.53334 v -62 c 0,-77.419612 11.074774,-88.466668 88.566661,-88.466668 z"
         style="fill:#a4c1f9"
         id="path95" />
    </clipPath>
    <clipPath
       id="clipPath1082-3-55"
       clipPathUnits="userSpaceOnUse">
      <path
         d="M 361.9375,-212 C 507.2348,-212 528,-191.28677 528,-46.125 V 70.125 C 528,215.28618 507.2348,236 361.9375,236 H 214.0625 C 68.7652,236 48,215.28618 48,70.125 V -46.125 C 48,-191.28677 68.7652,-212 214.0625,-212 Z"
         style="fill:#8c59d9"
         id="path98" />
    </clipPath>
    <clipPath
       id="clipPath991"
       clipPathUnits="userSpaceOnUse">
      <path
         d="M 188.96875,44 C 261.6174,44 272,54.356615 272,126.9375 v 58.125 C 272,257.64309 261.6174,268 188.96875,268 h -73.9375 C 42.3826,268 32,257.64309 32,185.0625 v -58.125 C 32,54.356615 42.3826,44 115.03125,44 Z"
         style="fill:#6dc7f1"
         id="path101" />
    </clipPath>
    <clipPath
       id="clipPath978"
       clipPathUnits="userSpaceOnUse">
      <path
         d="M 188.96875,44 C 261.6174,44 272,54.356615 272,126.9375 v 58.125 C 272,257.64309 261.6174,268 188.96875,268 h -73.9375 C 42.3826,268 32,257.64309 32,185.0625 v -58.125 C 32,54.356615 42.3826,44 115.03125,44 Z"
         style="fill:#6dc7f1"
         id="path104" />
    </clipPath>
    <clipPath
       id="clipPath942"
       clipPathUnits="userSpaceOnUse">
      <path
         d="M 188.96875,44 C 261.6174,44 272,54.356615 272,126.9375 v 58.125 C 272,257.64309 261.6174,268 188.96875,268 h -73.9375 C 42.3826,268 32,257.64309 32,185.0625 v -58.125 C 32,54.356615 42.3826,44 115.03125,44 Z"
         style="fill:#46a926"
         id="path107" />
    </clipPath>
    <clipPath
       id="clipPath1082-3-7"
       clipPathUnits="userSpaceOnUse">
      <path
         d="M 361.9375,-212 C 507.2348,-212 528,-191.28677 528,-46.125 V 70.125 C 528,215.28618 507.2348,236 361.9375,236 H 214.0625 C 68.7652,236 48,215.28618 48,70.125 V -46.125 C 48,-191.28677 68.7652,-212 214.0625,-212 Z"
         style="fill:#8c59d9"
         id="path110" />
    </clipPath>
    <radialGradient
       id="radialGradient3322"
       cx="26.617"
       cy="-2.065"
       r="23"
       gradientTransform="matrix(-4.8906e-8,-2.8515,3.7557,0,674.00149,398.26285)"
       gradientUnits="userSpaceOnUse">
      <stop
         id="stop2749"
         offset="0"
         style="stop-color:#d280b9" />
      <stop
         style="stop-color:#b549b5"
         id="stop4269"
         offset=".529" />
      <stop
         id="stop2755"
         offset="1"
         style="stop-color:#8940a8" />
    </radialGradient>
    <clipPath
       id="clipPath1082-3-69"
       clipPathUnits="userSpaceOnUse">
      <path
         d="M 361.9375,-212 C 507.2348,-212 528,-191.28677 528,-46.125 V 70.125 C 528,215.28618 507.2348,236 361.9375,236 H 214.0625 C 68.7652,236 48,215.28618 48,70.125 V -46.125 C 48,-191.28677 68.7652,-212 214.0625,-212 Z"
         style="fill:#8c59d9"
         id="path117" />
    </clipPath>
    <clipPath
       id="clipPath1082-3-452"
       clipPathUnits="userSpaceOnUse">
      <path
         d="M 361.9375,-212 C 507.2348,-212 528,-191.28677 528,-46.125 V 70.125 C 528,215.28618 507.2348,236 361.9375,236 H 214.0625 C 68.7652,236 48,215.28618 48,70.125 V -46.125 C 48,-191.28677 68.7652,-212 214.0625,-212 Z"
         style="fill:#8c59d9"
         id="path120" />
    </clipPath>
    <clipPath
       id="clipPath1082-3-74"
       clipPathUnits="userSpaceOnUse">
      <path
         d="M 361.9375,-212 C 507.2348,-212 528,-191.28677 528,-46.125 V 70.125 C 528,215.28618 507.2348,236 361.9375,236 H 214.0625 C 68.7652,236 48,215.28618 48,70.125 V -46.125 C 48,-191.28677 68.7652,-212 214.0625,-212 Z"
         style="fill:#8c59d9"
         id="path123" />
    </clipPath>
    <clipPath
       id="clipPath1032"
       clipPathUnits="userSpaceOnUse">
      <path
         d="M 188.96875,44 C 261.6174,44 272,54.356615 272,126.9375 v 58.125 C 272,257.64309 261.6174,268 188.96875,268 h -73.9375 C 42.3826,268 32,257.64309 32,185.0625 v -58.125 C 32,54.356615 42.3826,44 115.03125,44 Z"
         style="fill:#76c22b"
         id="path126" />
    </clipPath>
    <clipPath
       id="clipPath1082-3-0"
       clipPathUnits="userSpaceOnUse">
      <path
         d="M 361.9375,-212 C 507.2348,-212 528,-191.28677 528,-46.125 V 70.125 C 528,215.28618 507.2348,236 361.9375,236 H 214.0625 C 68.7652,236 48,215.28618 48,70.125 V -46.125 C 48,-191.28677 68.7652,-212 214.0625,-212 Z"
         style="fill:#8c59d9"
         id="path129" />
    </clipPath>
    <clipPath
       id="clipPath1082-3-89"
       clipPathUnits="userSpaceOnUse">
      <path
         d="M 361.9375,-212 C 507.2348,-212 528,-191.28677 528,-46.125 V 70.125 C 528,215.28618 507.2348,236 361.9375,236 H 214.0625 C 68.7652,236 48,215.28618 48,70.125 V -46.125 C 48,-191.28677 68.7652,-212 214.0625,-212 Z"
         style="fill:#8c59d9"
         id="path132" />
    </clipPath>
    <clipPath
       id="clipPath951"
       clipPathUnits="userSpaceOnUse">
      <path
         style="fill:#8c59d9"
         d="M 188.96875,44 C 261.6174,44 272,54.356615 272,126.9375 v 58.125 C 272,257.64309 261.6174,268 188.96875,268 h -73.9375 C 42.3826,268 32,257.64309 32,185.0625 v -58.125 C 32,54.356615 42.3826,44 115.03125,44 Z"
         id="path135" />
    </clipPath>
    <clipPath
       id="clipPath1082-3-64"
       clipPathUnits="userSpaceOnUse">
      <path
         d="M 361.9375,-212 C 507.2348,-212 528,-191.28677 528,-46.125 V 70.125 C 528,215.28618 507.2348,236 361.9375,236 H 214.0625 C 68.7652,236 48,215.28618 48,70.125 V -46.125 C 48,-191.28677 68.7652,-212 214.0625,-212 Z"
         style="fill:#8c59d9"
         id="path138" />
    </clipPath>
    <clipPath
       id="clipPath1082-3-04"
       clipPathUnits="userSpaceOnUse">
      <path
         d="M 361.9375,-212 C 507.2348,-212 528,-191.28677 528,-46.125 V 70.125 C 528,215.28618 507.2348,236 361.9375,236 H 214.0625 C 68.7652,236 48,215.28618 48,70.125 V -46.125 C 48,-191.28677 68.7652,-212 214.0625,-212 Z"
         style="fill:#8c59d9"
         id="path141" />
    </clipPath>
    <clipPath
       id="clipPath1082-3-1"
       clipPathUnits="userSpaceOnUse">
      <path
         d="M 361.9375,-212 C 507.2348,-212 528,-191.28677 528,-46.125 V 70.125 C 528,215.28618 507.2348,236 361.9375,236 H 214.0625 C 68.7652,236 48,215.28618 48,70.125 V -46.125 C 48,-191.28677 68.7652,-212 214.0625,-212 Z"
         style="fill:#8c59d9"
         id="path144" />
    </clipPath>
    <clipPath
       id="clipPath936"
       clipPathUnits="userSpaceOnUse">
      <path
         d="M 329.9375,16 C 475.2348,16 496,36.71323 496,181.875 v 116.25 C 496,443.28618 475.2348,464 329.9375,464 H 182.0625 C 36.7652,464 16,443.28618 16,298.125 V 181.875 C 16,36.71323 36.7652,16 182.0625,16 Z"
         style="fill:#438ae9"
         id="path147" />
    </clipPath>
    <clipPath
       id="clipPath989"
       clipPathUnits="userSpaceOnUse">
      <path
         d="M 115.03124,43.99999 C 42.382604,44 32.000014,54.35661 32.000004,126.9375 v 58.12499 c 0,72.5806 10.38261,82.9375 83.031236,82.9375 h 73.93752 C 261.6174,267.99999 272,257.64307 272,185.06249 V 126.9375 C 272,54.35661 261.6174,44 188.96875,44 Z"
         style="fill:url(#linearGradient993)"
         id="path150" />
    </clipPath>
    <clipPath
       id="clipPath1082-3-72"
       clipPathUnits="userSpaceOnUse">
      <path
         d="M 361.9375,-212 C 507.2348,-212 528,-191.28677 528,-46.125 V 70.125 C 528,215.28618 507.2348,236 361.9375,236 H 214.0625 C 68.7652,236 48,215.28618 48,70.125 V -46.125 C 48,-191.28677 68.7652,-212 214.0625,-212 Z"
         style="fill:#8c59d9"
         id="path153" />
    </clipPath>
    <clipPath
       id="clipPath1082-3-06"
       clipPathUnits="userSpaceOnUse">
      <path
         d="M 361.9375,-212 C 507.2348,-212 528,-191.28677 528,-46.125 V 70.125 C 528,215.28618 507.2348,236 361.9375,236 H 214.0625 C 68.7652,236 48,215.28618 48,70.125 V -46.125 C 48,-191.28677 68.7652,-212 214.0625,-212 Z"
         style="fill:#8c59d9"
         id="path156" />
    </clipPath>
    <clipPath
       id="clipPath1082-3-59"
       clipPathUnits="userSpaceOnUse">
      <path
         d="M 361.9375,-212 C 507.2348,-212 528,-191.28677 528,-46.125 V 70.125 C 528,215.28618 507.2348,236 361.9375,236 H 214.0625 C 68.7652,236 48,215.28618 48,70.125 V -46.125 C 48,-191.28677 68.7652,-212 214.0625,-212 Z"
         style="fill:#8c59d9"
         id="path159" />
    </clipPath>
    <clipPath
       id="clipPath1221"
       clipPathUnits="userSpaceOnUse">
      <path
         d="M 188.96875,44 C 261.6174,44 272,54.356615 272,126.9375 v 58.125 C 272,257.64309 261.6174,268 188.96875,268 h -73.9375 C 42.3826,268 32,257.64309 32,185.0625 v -58.125 C 32,54.356615 42.3826,44 115.03125,44 Z"
         style="opacity:0.1;fill:#da1636"
         id="path162" />
    </clipPath>
    <clipPath
       id="clipPath936-0"
       clipPathUnits="userSpaceOnUse">
      <path
         d="M 329.9375,16 C 475.2348,16 496,36.71323 496,181.875 v 116.25 C 496,443.28618 475.2348,464 329.9375,464 H 182.0625 C 36.7652,464 16,443.28618 16,298.125 V 181.875 C 16,36.71323 36.7652,16 182.0625,16 Z"
         style="fill:#438ae9"
         id="path165" />
    </clipPath>
    <clipPath
       id="clipPath1082-3-367"
       clipPathUnits="userSpaceOnUse">
      <path
         d="M 361.9375,-212 C 507.2348,-212 528,-191.28677 528,-46.125 V 70.125 C 528,215.28618 507.2348,236 361.9375,236 H 214.0625 C 68.7652,236 48,215.28618 48,70.125 V -46.125 C 48,-191.28677 68.7652,-212 214.0625,-212 Z"
         style="fill:#8c59d9"
         id="path168" />
    </clipPath>
    <clipPath
       id="clipPath1221-5"
       clipPathUnits="userSpaceOnUse">
      <path
         d="M 188.96875,44 C 261.6174,44 272,54.356615 272,126.9375 v 58.125 C 272,257.64309 261.6174,268 188.96875,268 h -73.9375 C 42.3826,268 32,257.64309 32,185.0625 v -58.125 C 32,54.356615 42.3826,44 115.03125,44 Z"
         style="opacity:0.1;fill:#da1636"
         id="path171" />
    </clipPath>
    <clipPath
       id="clipPath936-2"
       clipPathUnits="userSpaceOnUse">
      <path
         d="M 329.9375,16 C 475.2348,16 496,36.71323 496,181.875 v 116.25 C 496,443.28618 475.2348,464 329.9375,464 H 182.0625 C 36.7652,464 16,443.28618 16,298.125 V 181.875 C 16,36.71323 36.7652,16 182.0625,16 Z"
         style="fill:#438ae9"
         id="path174" />
    </clipPath>
    <filter
       style="color-interpolation-filters:sRGB"
       id="filter1140"
       width="2.62"
       height="2.62"
       x="-.81"
       y="-.81">
      <feGaussianBlur
         id="feGaussianBlur1142"
         stdDeviation="2.7" />
    </filter>
    <filter
       style="color-interpolation-filters:sRGB"
       id="filter1136"
       width="2.62"
       height="2.62"
       x="-.81"
       y="-.81">
      <feGaussianBlur
         id="feGaussianBlur1138"
         stdDeviation="2.7" />
    </filter>
    <filter
       style="color-interpolation-filters:sRGB"
       id="filter1132"
       width="2.62"
       height="2.62"
       x="-.81"
       y="-.81">
      <feGaussianBlur
         id="feGaussianBlur1134"
         stdDeviation="2.7" />
    </filter>
    <filter
       style="color-interpolation-filters:sRGB"
       id="filter1128"
       width="2.62"
       height="2.62"
       x="-.81"
       y="-.81">
      <feGaussianBlur
         id="feGaussianBlur1130"
         stdDeviation="2.7" />
    </filter>
    <linearGradient
       id="linearGradient11065"
       x1="104"
       x2="200"
       y1="44"
       y2="268"
       gradientTransform="matrix(0.26458333,0,0,0.26458333,-6.1510329,220.60103)"
       gradientUnits="userSpaceOnUse"
       xlink:href="#radialGradient3322" />
    <linearGradient
       id="linearGradient4195">
      <stop
         style="stop-color:#8c59d9"
         id="stop4197"
         offset="0" />
      <stop
         style="stop-color:#a7a7f1"
         id="stop4199"
         offset="1" />
    </linearGradient>
    <filter
       style="color-interpolation-filters:sRGB"
       id="filter11191"
       width="1.024"
       height="1.024"
       x="-.01"
       y="-.01">
      <feGaussianBlur
         id="feGaussianBlur11193"
         stdDeviation="1.12" />
    </filter>
    <filter
       style="color-interpolation-filters:sRGB"
       id="filter11210"
       width="1.096"
       height="1.096"
       x="-.05"
       y="-.05">
      <feGaussianBlur
         id="feGaussianBlur11212"
         stdDeviation="4.48" />
    </filter>
    <linearGradient
       osb:paint="solid"
       id="linearGradient5606">
      <stop
         style="stop-color:#000000;stop-opacity:1;"
         offset="0"
         id="stop5608" />
    </linearGradient>
    <linearGradient
       osb:paint="solid"
       id="linearGradient4526">
      <stop
         style="stop-color:#ffffff;stop-opacity:1;"
         offset="0"
         id="stop4528" />
    </linearGradient>
    <linearGradient
       osb:paint="gradient"
       id="linearGradient3600-4">
      <stop
         style="stop-color:#f4f4f4;stop-opacity:1"
         offset="0"
         id="stop3602-7" />
      <stop
         style="stop-color:#dbdbdb;stop-opacity:1"
         offset="1"
         id="stop3604-6" />
    </linearGradient>
  </defs>
  <g
     id="layer1"
     transform="translate(0,-229.26666)">
    <circle
       style="opacity:0.1;filter:url(#filter11210)"
       cx="122.752"
       cy="122.752"
       r="112"
       transform="matrix(0.26458333,0,0,0.26458333,1.5875003,230.45623)"
       id="circle195" />
    <circle
       style="opacity:0.1;filter:url(#filter11191)"
       cx="122.752"
       cy="120.752"
       r="112"
       transform="matrix(0.26458333,0,0,0.26458333,1.5875003,230.45623)"
       id="circle197" />
    <circle
       style="opacity:0.1"
       cx="34.066"
       cy="261.876"
       r="30.162"
       id="circle199" />
    <circle
       style="fill:#ab47b2;fill-opacity:1"
       cx="34.066"
       cy="261.876"
       r="29.633"
       id="circle201" />
    <path
       style="opacity:0.3;fill:#ffffff"
       d="m 34.065633,232.2427 a 29.633333,29.633333 0 0 0 -29.6333327,29.63333 29.633333,29.633333 0 0 0 0.010853,0.30954 29.633333,29.633333 0 0 1 29.6224797,-29.41371 29.633333,29.633333 0 0 1 29.622481,29.32379 29.633333,29.633333 0 0 0 0.01085,-0.21962 A 29.633333,29.633333 0 0 0 34.06563,232.2427 Z"
       id="path223" />
    <path
       style="opacity:0.2"
       d="m 34.065633,291.50936 a 29.633333,29.633333 0 0 1 -29.6333327,-29.63333 29.633333,29.633333 0 0 1 0.010853,-0.30954 29.633333,29.633333 0 0 0 29.6224797,29.4137 29.633333,29.633333 0 0 0 29.622481,-29.32379 29.633333,29.633333 0 0 1 0.01085,0.21963 29.633333,29.633333 0 0 1 -29.633334,29.63333 z"
       id="path225" />
  </g>
  <g
     id="g1076"
     transform="matrix(2.8220833,0,0,2.8220833,11.370432,12.383543)"
     style="fill:#ffffff;fill-opacity:1">
    <g
       transform="translate(-713.00024,187)"
       style="display:inline;fill:#ffffff;fill-opacity:1"
       label="status"
       id="layer9" />
    <g
       transform="translate(-472.00004,-180)"
       style="display:inline;fill:#ffffff;fill-opacity:1"
       id="layer2" />
    <g
       transform="translate(-472.00004,-180)"
       style="display:inline;fill:#ffffff;fill-opacity:1"
       id="layer4" />
    <g
       transform="translate(-472.00004,-180)"
       style="display:inline;fill:#ffffff;fill-opacity:1"
       id="g1812" />
    <g
       transform="translate(-472.00004,-180)"
       style="display:inline;fill:#ffffff;fill-opacity:1"
       id="g6217" />
    <g
       transform="translate(-472.00004,-180)"
       style="display:inline;fill:#ffffff;fill-opacity:1"
       id="layer3" />
    <g
       transform="translate(-472.00004,-180)"
       style="display:inline;fill:#ffffff;fill-opacity:1"
       id="g1833">
      <path
         style="color:#000000;font-style:normal;font-variant:normal;font-weight:normal;font-stretch:normal;font-size:medium;line-height:normal;font-family:sans-serif;font-variant-ligatures:normal;font-variant-position:normal;font-variant-caps:normal;font-variant-numeric:normal;font-variant-alternates:normal;font-feature-settings:normal;text-indent:0;text-align:start;text-decoration:none;text-decoration-line:none;text-decoration-style:solid;text-decoration-color:#000000;letter-spacing:normal;word-spacing:normal;text-transform:none;writing-mode:lr-tb;direction:ltr;text-orientation:mixed;dominant-baseline:auto;baseline-shift:baseline;text-anchor:start;white-space:normal;shape-padding:0;clip-rule:nonzero;display:inline;overflow:visible;visibility:visible;opacity:1;isolation:auto;mix-blend-mode:normal;color-interpolation:sRGB;color-interpolation-filters:linearRGB;solid-color:#000000;solid-opacity:1;vector-effect:none;fill:#ffffff;fill-opacity:1;fill-rule:nonzero;stroke:none;stroke-width:1;stroke-linecap:square;stroke-linejoin:miter;stroke-miterlimit:4;stroke-dasharray:none;stroke-dashoffset:0;stroke-opacity:1;color-rendering:auto;image-rendering:auto;shape-rendering:auto;text-rendering:auto;enable-background:accumulate"
         id="path2368"
         d="m 487.00004,182.5 c 0,-1.37479 -1.12521,-2.5 -2.5,-2.5 -1.37479,0 -2.5,1.12521 -2.5,2.5 0,1.37479 1.12521,2.5 2.5,2.5 1.37479,0 2.5,-1.12521 2.5,-2.5 z m 0,10 c 0,-1.37479 -1.12521,-2.5 -2.5,-2.5 -1.37479,0 -2.5,1.12521 -2.5,2.5 0,1.37479 1.12521,2.5 2.5,2.5 1.37479,0 2.5,-1.12521 2.5,-2.5 z m -1,-10 c 0,0.83435 -0.66565,1.5 -1.5,1.5 -0.83435,0 -1.5,-0.66565 -1.5,-1.5 0,-0.83435 0.66565,-1.5 1.5,-1.5 0.83435,0 1.5,0.66565 1.5,1.5 z m 0,10 c 0,0.83435 -0.66565,1.5 -1.5,1.5 -0.83435,0 -1.5,-0.66565 -1.5,-1.5 0,-0.83435 0.66565,-1.5 1.5,-1.5 0.83435,0 1.5,0.66565 1.5,1.5 z m -4.26562,-7.89062 c -0.2039,-0.26547 -0.37207,-0.55496 -0.49415,-0.8711 l -3.85351,2.14258 C 476.92732,185.34688 476.25528,185 475.50004,185 c -1.37479,0 -2.5,1.12521 -2.5,2.5 0,1.37479 1.12521,2.5 2.5,2.5 0.75524,0 1.42728,-0.34688 1.88672,-0.88086 l 3.85351,2.14258 c 0.12208,-0.31614 0.29025,-0.60561 0.49415,-0.8711 l -3.86133,-2.14453 c 0.0753,-0.23728 0.12695,-0.48475 0.12695,-0.74609 0,-0.26134 -0.0516,-0.50881 -0.12695,-0.74609 z M 477.00004,187.5 c 0,0.83435 -0.66565,1.5 -1.5,1.5 -0.83435,0 -1.5,-0.66565 -1.5,-1.5 0,-0.83435 0.66565,-1.5 1.5,-1.5 0.83435,0 1.5,0.66565 1.5,1.5 z"
         inkscape:connector-curvature="0" />
    </g>
    <g
       transform="translate(-472.00004,-180)"
       style="display:inline;fill:#ffffff;fill-opacity:1"
       id="layer1-3" />
  </g>
</svg>
