<svg enable-background="new" height="256" viewBox="0 0 256 256" width="256" xmlns="http://www.w3.org/2000/svg" xmlns:xlink="http://www.w3.org/1999/xlink">
  <linearGradient id="linearGradient4358" gradientTransform="matrix(0 -1 1 0 -10.0054 585.9946)" gradientUnits="userSpaceOnUse" x1="88" x2="488" y1="88" y2="488">
    <stop offset="0" stop-opacity=".588235"/>
    <stop offset=".88" stop-opacity="0"/>
    <stop offset="1"/>
  </linearGradient>
  <filter id="filter4380" color-interpolation-filters="sRGB" height="1.088" width="1.106" x="-.05" y="-.04">
    <feGaussianBlur stdDeviation="8.48"/>
  </filter>
  <filter id="filter4346" color-interpolation-filters="sRGB" height="1.022" width="1.026" x="-.01" y="-.01">
    <feGaussianBlur stdDeviation="2.12"/>
  </filter>
  <linearGradient id="linearGradient2242" gradientUnits="userSpaceOnUse" x1="127.828" x2="139.067" y1="127.702" y2="127.672">
    <stop offset="0" stop-opacity=".3"/>
    <stop offset="1" stop-opacity="0"/>
  </linearGradient>
  <path d="m189.84323 74c-70.59344 0-78.18921 7.250835-77.84323 77.98706v146.01294 146.01294c-.34598 70.73623 7.24979 77.98706 77.84323 77.98706h196.31354c70.59344 0 76.00668-7.27384 77.84323-77.98706v-146.01294-146.01294c0-70.737067-7.24979-77.98706-77.84323-77.98706z" filter="url(#filter4346)" opacity=".1" transform="matrix(0 .5 -.5 0 276.82523 -15.328148)"/>
  <path d="m189.84323 74c-70.59344 0-78.18921 7.250835-77.84323 77.98706v146.01294 146.01294c-.34598 70.73623 7.24979 77.98706 77.84323 77.98706h196.31354c70.59344 0 77.84323-7.24999 77.84323-77.98706v-146.01294-146.01294c0-70.737067-7.24979-77.98706-77.84323-77.98706z" fill="url(#linearGradient4358)" filter="url(#filter4380)" opacity=".3" transform="matrix(0 .5 -.5 0 276.82523 -15.328148)"/>
  <path d="m241.83043 77.478254c0-36.098812-3.69016-39.983002-39.68984-39.80608h-74.31016-74.310155c-35.99969-.176922-39.68984 3.707268-39.68984 39.80608v100.387316c0 36.09881 3.68973 39.80608 39.68984 39.80608h74.310155 74.31016c36.00011 0 39.68984-3.70727 39.68984-39.80608z" opacity=".1"/>
  <path d="m239.82523 176.74483c0 35.29673-3.62542 39.09461-38.99353 38.92162h-73.00647-73.006465c-35.36812.17299-38.99353-3.62489-38.99353-38.92162v-98.156756c0-35.296717 3.625-38.921616 38.99353-38.921616h73.006465 73.00647c35.36853 0 38.99353 3.624899 38.99353 38.921616z" fill="#f6f5f4"/>
  <path d="m127.82793 39.66915v175.9946h73.00391c35.36811.17299 38.99414-3.62504 38.99414-38.92069v-98.155186c0-35.295634-3.62561-38.918724-38.99414-38.918724z" fill="#3584e4"/>
  <path d="m127.82793 127.66916v87.99804h73.00391c35.36811.17299 38.99414-3.62515 38.99414-38.92188v-49.07616z" fill="#fff" opacity=".1"/>
  <path d="m184.03785 87.686534v12.00001h-32v7.999996h13.23633c4.76089 12.28941 10.60824 22.71139 17.49707 31.2168-8.01487 8.3014-17.2917 13.88082-27.84766 16.94141l2.22852 7.68359c11.73051-3.40113 22.0451-9.67254 30.88574-18.70117 8.84064 9.02863 19.15524 15.30004 30.88574 18.70117l2.22852-7.68359c-10.55596-3.06059-19.83278-8.64001-27.84766-16.94141 6.88884-8.50541 12.73619-18.9274 17.49707-31.2168h13.23633v-7.999996h-32v-12.00001zm-10.15527 20.000006h28.31055c-4.06129 9.88779-8.77908 18.2394-14.15528 25.14161-5.3762-6.90221-10.09398-15.25382-14.15527-25.14161z" fill="#fff"/>
  <path d="m94.377705 164.00976c-1.22655-3.24676-2.38095-6.42136-3.4632-9.52381-1.08225-3.1746-2.20058-6.12516-3.35497-9.37191h-33.98268l-6.81819 18.89572h-10.93073c2.886-7.93651 5.59163-15.25974 8.11688-21.96969 2.52525-6.78211 4.97836-13.20346 7.35931-19.26407 2.4531-6.0606 4.87013-11.83261 7.25108-17.31602 2.38096-5.555556 4.87013-11.038956 7.46753-16.450226h9.63204c2.59739 5.41127 5.08657 10.89467 7.46752 16.450226 2.38095 5.48341 4.76191 11.25542 7.14286 17.31602 2.4531 6.06061 4.94228 12.48196 7.46753 19.26407 2.525245 6.70995 5.230875 14.03318 8.116875 21.96969zm-9.84847-27.49999c-2.30882-6.27706-4.61762-12.65152-6.92642-18.49567-2.23664-5.91631-4.58152-11.5801-7.03462-16.99135-2.52525 5.41125-4.94228 11.07504-7.25108 16.99135-2.23666 5.84415-4.47331 12.21861-6.70996 18.49567z" fill="#77767b"/>
  <path d="m54.818169 39.667201c-35.36853 0-38.992187 3.623201-38.992187 38.919923v98.158196c0 .0882.0019.16224.002.25v-96.410146c-.000047-35.296721 3.625564-38.92188 38.994094-38.92188h73.005854 73.00586c35.28016 0 38.97394 3.621035 38.99219 38.67188v-1.74805c0-35.296722-3.62561-38.919923-38.99414-38.919923h-73.00586z" fill="#fff" opacity=".3"/>
  <path d="m15.825982 174.74532v2c0 35.29673 3.624067 39.09487 38.992187 38.92188h73.007811 73.00586c35.36811.17299 38.99414-3.62515 38.99414-38.92188v-2c0 35.29673-3.62603 39.09487-38.99414 38.92188h-73.00586-73.007811c-35.36812.17299-38.992187-3.62515-38.992187-38.92188z" opacity=".2"/>
  <path d="m127.83 39.67h16.813v176.069h-16.813z" fill="url(#linearGradient2242)"/>
</svg>
