<?xml version="1.0" encoding="UTF-8" standalone="no"?>
<svg
   xmlns:dc="http://purl.org/dc/elements/1.1/"
   xmlns:cc="http://creativecommons.org/ns#"
   xmlns:rdf="http://www.w3.org/1999/02/22-rdf-syntax-ns#"
   xmlns:svg="http://www.w3.org/2000/svg"
   xmlns="http://www.w3.org/2000/svg"
   xmlns:xlink="http://www.w3.org/1999/xlink"
   xmlns:sodipodi="http://sodipodi.sourceforge.net/DTD/sodipodi-0.dtd"
   xmlns:inkscape="http://www.inkscape.org/namespaces/inkscape"
   width="256"
   height="256"
   version="1.0"
   viewBox="0 0 256 256"
   style="enable-background:new"
   id="svg45"
   sodipodi:docname="krename.svg"
   inkscape:version="0.92.3 (2405546, 2018-03-11)">
  <metadata
     id="metadata49">
    <rdf:RDF>
      <cc:Work
         rdf:about="">
        <dc:format>image/svg+xml</dc:format>
        <dc:type
           rdf:resource="http://purl.org/dc/dcmitype/StillImage" />
        <dc:title>
  Adwaita Icon Template
 </dc:title>
      </cc:Work>
    </rdf:RDF>
  </metadata>
  <sodipodi:namedview
     pagecolor="#ffffff"
     bordercolor="#666666"
     borderopacity="1"
     objecttolerance="10"
     gridtolerance="10"
     guidetolerance="10"
     inkscape:pageopacity="0"
     inkscape:pageshadow="2"
     inkscape:window-width="1920"
     inkscape:window-height="1009"
     id="namedview47"
     showgrid="false"
     inkscape:zoom="3.2617188"
     inkscape:cx="128"
     inkscape:cy="128"
     inkscape:window-x="0"
     inkscape:window-y="34"
     inkscape:window-maximized="1"
     inkscape:current-layer="layer9" />
  <title
     id="title4162">
  Adwaita Icon Template
 </title>
  <defs
     id="defs15">
    <linearGradient
       id="linearGradient1007"
       x1="160.30499"
       x2="161.33"
       y1="240.13901"
       y2="135.57899"
       gradientTransform="matrix(0.54625232,0,0,0.54625232,-6.0941965,-68.413544)"
       gradientUnits="userSpaceOnUse"
       xlink:href="#linearGradient1018" />
    <linearGradient
       id="linearGradient1018">
      <stop
         id="stop2"
         offset="0"
         style="stop-color:#37a6e6" />
      <stop
         id="stop4"
         offset="1"
         style="stop-color:#1a7fd4" />
    </linearGradient>
    <linearGradient
       id="linearGradient1108"
       x1="296"
       x2="296"
       y1="-212"
       y2="236"
       gradientUnits="userSpaceOnUse">
      <stop
         id="stop2-3"
         offset="0"
         style="stop-color:#ffffff" />
      <stop
         id="stop4-6"
         offset=".125"
         style="stop-color:#ffffff;stop-opacity:.09803922" />
      <stop
         id="stop6"
         offset=".925"
         style="stop-color:#000000;stop-opacity:.09803922" />
      <stop
         id="stop8"
         offset="1"
         style="stop-color:#000000;stop-opacity:.49803922" />
    </linearGradient>
    <clipPath
       id="clipPath1082-3-36753">
      <path
         d="M 361.9375,-212 C 507.2348,-212 528,-191.28677 528,-46.125 V 70.125 C 528,215.28618 507.2348,236 361.9375,236 H 214.0625 C 68.7652,236 48,215.28618 48,70.125 V -46.125 C 48,-191.28677 68.7652,-212 214.0625,-212 Z"
         style="fill:#8c59d9"
         id="path12"
         inkscape:connector-curvature="0" />
    </clipPath>
    <filter
       inkscape:collect="always"
       style="color-interpolation-filters:sRGB"
       id="filter872"
       x="-0.047076926"
       width="1.0941539"
       y="-0.048959997"
       height="1.0979199">
      <feGaussianBlur
         inkscape:collect="always"
         stdDeviation="1.3993879"
         id="feGaussianBlur874" />
    </filter>
    <filter
       inkscape:collect="always"
       style="color-interpolation-filters:sRGB"
       id="filter890"
       x="-0.047076918"
       width="1.0941538"
       y="-0.048960004"
       height="1.0979199">
      <feGaussianBlur
         inkscape:collect="always"
         stdDeviation="1.3993877"
         id="feGaussianBlur892" />
    </filter>
    <filter
       inkscape:collect="always"
       style="color-interpolation-filters:sRGB"
       id="filter948"
       x="-0.014123078"
       width="1.0282462"
       y="-0.014687999"
       height="1.029376">
      <feGaussianBlur
         inkscape:collect="always"
         stdDeviation="0.41981637"
         id="feGaussianBlur950" />
    </filter>
    <filter
       inkscape:collect="always"
       style="color-interpolation-filters:sRGB"
       id="filter958"
       x="-0.017653845"
       width="1.0353076"
       y="-0.01836"
       height="1.03672">
      <feGaussianBlur
         inkscape:collect="always"
         stdDeviation="0.52477038"
         id="feGaussianBlur960" />
    </filter>
  </defs>
  <g
     id="layer1"
     transform="translate(0,-44)">
    <g
       id="layer9">
      <path
         id="path876"
         style="opacity:0.3;fill:#000000;fill-opacity:1;filter:url(#filter890)"
         d="M 18.487691,215.65867 C 15.44751,215.65867 13,218.10621 13,221.14646 v 57.62184 c 0,3.04024 2.44751,5.4878 5.487691,5.4878 h 27.438458 2.743847 30.183649 c 3.040187,0 5.487692,-2.44756 5.487692,-5.4878 v -57.62184 c 0,-3.04025 -2.447505,-5.48779 -5.487692,-5.48779 H 48.669996 45.926149 Z"
         inkscape:connector-curvature="0"
         transform="matrix(2.023175,0,0,2.023175,-4.5063805,-301.89472)" />
      <path
         style="fill:#f3af3f;stroke-width:2.023175"
         d="m 32.897455,134.42052 c -6.150818,0 -11.10256,4.9518 -11.10256,11.10276 v 116.57907 c 0,6.15094 4.951742,11.10278 11.10256,11.10278 h 55.512804 5.551282 61.066809 c 6.15083,0 11.10256,-4.95184 11.10256,-11.10278 V 145.52328 c 0,-6.15096 -4.95173,-11.10276 -11.10256,-11.10276 H 93.961541 88.410259 Z"
         id="path19"
         inkscape:connector-curvature="0" />
      <path
         id="path952"
         style="opacity:0.8;fill:#000000;fill-opacity:1;filter:url(#filter958)"
         d="M 18.487691,215.65867 C 15.44751,215.65867 13,218.10621 13,221.14646 v 57.62184 c 0,3.04024 2.44751,5.4878 5.487691,5.4878 h 27.438458 2.743847 30.183649 c 3.040187,0 5.487692,-2.44756 5.487692,-5.4878 v -57.62184 c 0,-3.04025 -2.447505,-5.48779 -5.487692,-5.48779 H 48.669996 45.926149 Z"
         inkscape:connector-curvature="0"
         transform="matrix(2.023175,0,0,2.023175,-4.5063805,-301.89472)" />
      <path
         d="m 32.897455,134.42052 c -6.150818,0 -11.10256,4.9518 -11.10256,11.10276 v 116.57907 c 0,6.15094 4.951742,11.10278 11.10256,11.10278 h 55.512804 5.551282 61.066809 c 6.15083,0 11.10256,-4.95184 11.10256,-11.10278 V 145.52328 c 0,-6.15096 -4.95173,-11.10276 -11.10256,-11.10276 H 93.961541 88.410259 Z"
         style="fill:#2297fd;stroke-width:2.023175"
         id="path23"
         inkscape:connector-curvature="0" />
      <path
         style="opacity:0.2;fill:#0a0a0a;stroke-width:2.023175"
         d="M 109.54758,234.72661 H 78.428783 l -4.910734,13.48978 H 53.513738 l 28.586049,-80.89831 h 23.726223 l 28.58606,80.89831 h -20.00434 l -4.85896,-13.48978 z M 83.391775,217.87342 H 104.53336 L 93.988464,186.27658 Z"
         id="path25"
         inkscape:connector-curvature="0" />
      <path
         d="M 109.54758,230.77219 H 78.428783 l -4.910734,13.4898 H 53.513738 l 28.586049,-80.89833 h 23.726223 l 28.58606,80.89833 h -20.00434 l -4.85896,-13.4898 z M 83.391775,213.91902 H 104.53336 L 93.988464,182.32218 Z"
         style="fill:#ffffff;stroke-width:2.023175"
         id="path27"
         inkscape:connector-curvature="0" />
      <path
         d="m 98.971645,67.437035 c -6.150818,0 -11.102562,4.951842 -11.102562,11.102759 V 195.11891 c 0,6.15094 4.951744,11.10278 11.102562,11.10278 h 55.512805 5.55128 61.06681 c 6.15082,0 11.10256,-4.95184 11.10256,-11.10278 V 78.539794 c 0,-6.150917 -4.95174,-11.102759 -11.10256,-11.102759 h -61.06681 -5.55128 z"
         style="fill:#f3af3f;stroke-width:2.023175"
         id="path31"
         inkscape:connector-curvature="0" />
      <path
         d="m 126.32944,96.380175 v 80.898355 h 35.05067 c 10.89742,0 19.01313,-1.82019 24.35247,-5.74377 5.33928,-3.82243 8.01218,-9.64713 8.01218,-17.45381 0,-5.09658 -1.24584,-9.3842 -3.73285,-12.88308 -2.48623,-3.49885 -5.99216,-6.43139 -10.52711,-7.72577 3.54718,-1.41572 6.25242,-2.85171 8.11754,-5.60224 1.86471,-2.79094 2.79808,-6.14822 2.79808,-10.07181 0,-7.48311 -2.56308,-12.92353 -7.68293,-16.30104 -5.08304,-3.397705 -13.30858,-5.096585 -24.68163,-5.096585 z m 20.22458,13.489845 h 10.82339 c 3.08283,0 5.41917,0.80901 7.01146,2.18424 1.59167,1.41572 2.38973,3.49884 2.38973,6.24943 0,2.77075 -0.79685,4.87409 -2.38973,6.28985 -1.59168,1.41567 -3.92883,2.12354 -7.01146,2.12354 h -10.82339 z m 0,33.7063 h 11.61983 c 4.00973,0 7.00539,0.80899 8.99306,2.52804 1.98808,1.61797 2.98232,4.14607 2.98232,7.50333 0,3.41795 -1.01325,5.96624 -3.0351,7.66514 -1.98808,1.61795 -4.96514,2.52806 -8.94048,2.52806 h -11.61963 z"
         style="fill:#ffffff;stroke-width:2.023175"
         id="path33"
         inkscape:connector-curvature="0" />
      <path
         id="path846"
         d="m 51.146353,182.55057 c -3.040181,0 -5.487692,2.44756 -5.487692,5.48779 v 57.62186 c 0,3.04024 2.447511,5.4878 5.487692,5.4878 h 27.438458 2.743847 30.183652 c 3.04018,0 5.48769,-2.44756 5.48769,-5.4878 v -57.62186 c 0,-3.04023 -2.44751,-5.48779 -5.48769,-5.48779 H 81.328658 78.584811 Z"
         style="opacity:0.3;fill:#000000;fill-opacity:1;filter:url(#filter872)"
         inkscape:connector-curvature="0"
         transform="matrix(2.023175,0,0,2.023175,-4.5063805,-301.89472)" />
      <path
         id="path894"
         d="m 51.146353,182.55057 c -3.040181,0 -5.487692,2.44756 -5.487692,5.48779 v 57.62186 c 0,3.04024 2.447511,5.4878 5.487692,5.4878 h 27.438458 2.743847 30.183652 c 3.04018,0 5.48769,-2.44756 5.48769,-5.4878 v -57.62186 c 0,-3.04023 -2.44751,-5.48779 -5.48769,-5.48779 H 81.328658 78.584811 Z"
         style="opacity:0.8;fill:#0e0e0e;fill-opacity:1;filter:url(#filter948)"
         inkscape:connector-curvature="0"
         transform="matrix(2.023175,0,0,2.023175,-4.5063805,-301.89472)" />
      <path
         style="fill:#f3af3f;stroke-width:2.023175"
         d="m 98.971645,67.437035 c -6.150818,0 -11.102562,4.951842 -11.102562,11.102759 V 195.11891 c 0,6.15094 4.951744,11.10278 11.102562,11.10278 h 55.512805 5.55128 61.06681 c 6.15082,0 11.10256,-4.95184 11.10256,-11.10278 V 78.539794 c 0,-6.150917 -4.95174,-11.102759 -11.10256,-11.102759 h -61.06681 -5.55128 z"
         id="path37"
         inkscape:connector-curvature="0" />
      <path
         style="opacity:0.2;fill:#c28c32;stroke-width:2.023175"
         d="m 126.32943,100.33461 v 80.89832 h 35.05068 c 10.8974,0 19.01313,-1.82021 24.35247,-5.7438 5.33928,-3.82246 8.01218,-9.64712 8.01218,-17.45381 0,-5.0966 -1.24584,-9.38421 -3.73285,-12.88307 -2.48623,-3.49884 -5.99216,-6.43141 -10.52713,-7.74599 3.5472,-1.41571 6.25243,-2.85166 8.11755,-5.60223 1.86472,-2.77076 2.79807,-6.14827 2.79807,-10.07185 0,-7.48308 -2.56306,-12.90324 -7.68291,-16.30101 -5.08304,-3.39774 -13.30859,-5.09656 -24.68164,-5.09656 z m 20.22458,13.48979 h 10.82339 c 3.08283,0 5.41918,0.80896 7.01146,2.18424 1.59168,1.41573 2.38974,3.49886 2.38974,6.2494 0,2.77074 -0.79685,4.87413 -2.38974,6.28983 -1.59167,1.41572 -3.92883,2.12359 -7.01146,2.12359 h -10.82339 z m 0,33.70832 h 11.61983 c 4.00973,0 7.0054,0.80895 8.99307,2.52806 1.98807,1.61797 2.98232,4.14603 2.98232,7.50329 0,3.41797 -1.01326,5.96628 -3.03511,7.66514 -1.98808,1.61795 -4.96513,2.52808 -8.94048,2.52808 h -11.61963 z"
         id="path39"
         inkscape:connector-curvature="0" />
      <path
         d="m 126.32943,96.380175 v 80.898335 h 35.05068 c 10.8974,0 19.01313,-1.82021 24.35247,-5.74377 5.33928,-3.82247 8.01218,-9.64715 8.01218,-17.45383 0,-5.09658 -1.24584,-9.3842 -3.73285,-12.88308 -2.48623,-3.49885 -5.99216,-6.43139 -10.52713,-7.74598 3.5472,-1.4157 6.25243,-2.85169 8.11755,-5.60224 1.86472,-2.77074 2.79807,-6.14824 2.79807,-10.07183 0,-7.4831 -2.56306,-12.90326 -7.68291,-16.30098 -5.08304,-3.397765 -13.30859,-5.096625 -24.68164,-5.096625 z m 20.22458,13.489805 h 10.82339 c 3.08283,0 5.41918,0.80899 7.01146,2.18424 1.59168,1.41576 2.38974,3.49886 2.38974,6.24943 0,2.77075 -0.79685,4.87409 -2.38974,6.2898 -1.59167,1.41574 -3.92883,2.12359 -7.01146,2.12359 h -10.82339 z m 0,33.70832 h 11.61983 c 4.00973,0 7.0054,0.80897 8.99307,2.52806 1.98807,1.61799 2.98232,4.14601 2.98232,7.50331 0,3.41795 -1.01326,5.96626 -3.03511,7.66514 -1.98808,1.61795 -4.96513,2.52806 -8.94048,2.52806 h -11.61963 z"
         style="fill:#ffffff;stroke-width:2.023175"
         id="path41"
         inkscape:connector-curvature="0" />
    </g>
  </g>
</svg>
