<svg height="256" width="256" xmlns="http://www.w3.org/2000/svg" xmlns:xlink="http://www.w3.org/1999/xlink">
  <linearGradient id="linearGradient4358" gradientUnits="userSpaceOnUse" x1="88" x2="488" y1="88" y2="488">
    <stop offset="0" stop-opacity=".588235"/>
    <stop offset="1" stop-opacity=".205556"/>
  </linearGradient>
  <filter id="filter4380" color-interpolation-filters="sRGB" height="1.088" width="1.106" x="-.05" y="-.04">
    <feGaussianBlur stdDeviation="8.48"/>
  </filter>
  <filter id="filter4346" color-interpolation-filters="sRGB" height="1.022" width="1.026" x="-.01" y="-.01">
    <feGaussianBlur stdDeviation="2.12"/>
  </filter>
  <filter id="filter1345-3" color-interpolation-filters="sRGB" height="1.048" width="1.048" x="-.024" y="-.024">
    <feGaussianBlur stdDeviation="1.28"/>
  </filter>
  <g transform="translate(0 208)">
    <path d="m141.84323 74c-70.59344 0-78.18921 7.250835-77.84323 77.98706v146.01294 146.01294c-.34598 70.73623 7.24979 77.98706 77.84323 77.98706h292.31354c70.59344 0 79.78033-7.27652 77.84323-77.98706v-146.01294-146.01294c0-70.737067-7.24979-77.98706-77.84323-77.98706z" filter="url(#filter4346)" opacity=".1" transform="matrix(.5 0 0 .5 -14.116488 -228.82553)"/>
    <path d="m141.84323 74c-70.59344 0-78.18921 7.250835-77.84323 77.98706v146.01294 146.01294c-.34598 70.73623 7.24979 77.98706 77.84323 77.98706h292.31354c70.59344 0 79.78033-7.27652 77.84323-77.98706v-146.01294-146.01294c0-70.737067-7.24979-77.98706-77.84323-77.98706z" fill="url(#linearGradient4358)" filter="url(#filter4380)" opacity=".3" transform="matrix(.5 0 0 .5 -14.116488 -228.82523)"/>
    <path d="m55.695112-194.82553c-36.09881 0-39.983002 3.69016-39.80608 39.68984v74.310155 74.3101591c-.176922 35.9996899 3.70727 39.6898399 39.80608 39.6898399h148.387318c36.09881 0 40.77464-3.70276 39.80608-39.6898399v-74.3101591-74.310155c0-36.00011-3.70727-39.68984-39.80608-39.68984z" opacity=".1"/>
    <path d="m202.95648-192.82554c35.29673 0 39.09461 3.62542 38.92162 38.99353v73.006465 73.0064791c.17299 35.3681199-3.62489 38.9935299-38.92162 38.9935299h-146.15675c-35.29671 0-38.921609-3.625-38.921609-38.9935299v-73.0064791-73.006465c0-35.36853 3.624899-38.99353 38.921609-38.99353z" fill="#33d17a"/>
    <path d="m17.877654-80.825235v8 65.0058591c0 35.3685299 3.625164 38.9941399 38.921874 38.9941399h146.156252c35.29673 0 39.09486-3.62602 38.92187-38.9941399v-65.0058591-8z" fill="#fff" opacity=".05"/>
    <path d="m56.805392-192.82553c-35.296728 0-39.094869 3.62603-38.921879 38.99414v2c-.17299-35.36811 3.625151-38.99414 38.921879-38.99414h146.156238c35.29673 0 38.92188 3.62561 38.92188 38.99414v-2c0-35.36853-3.62515-38.99414-38.92188-38.99414z" fill="#fff" opacity=".3"/>
    <path d="m56.810792 31.174464c-35.296731 0-39.094874-3.62603-38.921884-38.9941399v-2c-.17299 35.3681099 3.625153 38.9941399 38.921884 38.9941399h146.156238c35.29673 0 38.92188-3.62561 38.92188-38.9941399v2c0 35.3685299-3.62515 38.9941399-38.92188 38.9941399z" opacity=".2"/>
  </g>
  <g enable-background="new" transform="translate(-118.15971 21.367104)">
    <path d="m214.62333 29.852022c-14.6404 0-26.46952 5.326121-35.46164 15.9773-10.25924 12.137332-15.39208 28.586037-15.39208 49.39228 0 15.481208 2.9691 28.939328 8.96313 40.332518 9.10702 16.96736 23.10098 25.42794 41.89059 25.42794 4.06012 18.1303 15.25894 27.66684 41.59961 23.67227v-13.1521c-12.26187 1.13073-14.92494-5.60854-15.88063-17.53539v-.77959c3.68963-2.35382 7.03777-5.27352 10.03479-8.86542 9.79857-11.7658 14.71128-28.16942 14.71128-49.100228 0-15.604682-3.12803-29.035962-9.35294-40.429147-9.22193-16.595815-22.89804-24.940433-41.11211-24.940433zm98.68795 5.261694-18.50936.486438-6.13792 29.031673h-13.1521v21.724359h12.08042v41.599614c0 11.39318 1.62469 19.38344 4.77418 23.96434 3.96452 6.0692 12.38541 9.06192 25.32809 9.06192 4.31566 0 9.66111-.58738 16.07502-1.94897v-20.65376c-4.43057.24698-7.72181.3898-9.93602.3898-3.61552 0-6.18088-.61208-7.6971-1.85126-1.8663-1.48616-2.82521-5.32935-2.82521-11.39855v-39.163134h19.0946v-21.724359h-19.0946zm-98.68795 19.093512c14.29465.0011 21.4323 13.714767 21.4323 41.208733 0 27.495059-7.13765 41.307549-21.4323 41.307549-14.52441 0-21.82097-13.88336-21.82097-41.501908 0-1.114615 0-2.197022 0-3.312716.69044-25.140168 7.9881-37.700585 21.82097-37.701658z" fill="#f6f5f4" stroke-width="2.428571"/>
    <path d="m319.23189 194.63273a4 4 0 0 0 -4 3.99999 4 4 0 0 0 4 4.00001 4 4 0 0 0 4-4.00001 4 4 0 0 0 -4-3.99999z" opacity=".1"/>
    <circle cx="307.23172" cy="167.5609" filter="url(#filter1345-3)" opacity=".2" r="64"/>
    <circle cx="307.23172" cy="165.56093" fill="#4d4d4d" r="64"/>
    <g fill="#f6f5f4" transform="matrix(5.3125 0 0 5.3125 -2986.5183 -833.18907)">
      <path d="m617.13672 181.62305c-.26735.11903-.52697.25472-.77734.40625-.0854 1.24206-.11186 2.46684-.0625 3.66015.21136-.1141.44824-.18554.70312-.18554.10137 0 .20085.0118.29688.0312-.0491-1.25875-.0291-2.5564.082-3.89258zm6.16211.20703c-.0169.75686-.0849 1.5034-.20313 2.23828.12973-.037.26348-.0645.4043-.0645.21405 0 .41639.0486.60156.13086.0849-.54825.13966-1.1037.17578-1.66407-.30773-.24046-.63504-.45475-.97851-.64062zm-9.3125 2.60351c-.17399.29-.32673.59222-.45703.9043.60759.42109 1.22564.84164 1.86914 1.25391-.82208.3399-1.61365.76021-2.38867 1.23047-.004.0592-.007.11845-.01.17773.003.31507.027.62959.0723.94141.82021-.52963 1.6745-.97098 2.55859-1.3418-.0822-.18436-.13093-.38616-.13086-.59961-.00016-.4774.23271-.90117.58594-1.17578-.71749-.45476-1.41549-.9214-2.09961-1.39063zm12.18164.26758c-.4567.0202-.9247.0298-1.375.0566.12829.21999.20712.47136.20703.74219.00003.0847-.0116.16708-.0254.24805.52881-.0302 1.08034-.0433 1.62109-.0645-.11727-.33792-.26026-.66636-.42773-.98242zm-4.07031.28516c-1.46687.16701-2.88623.41422-4.25.7832.29865.20618.51671.51806.60546.87891 1.16603-.29432 2.38157-.50085 3.64063-.64844-.057-.15726-.0938-.32409-.0937-.5-.00006-.1809.0376-.35266.0977-.51367zm.40039 1.61719c-.15229.4736-.32269.93962-.51172 1.39843.005-.00004.009-.002.0137-.002.35106 0 .67262.12684.92969.33203.17948-.44115.34443-.88804.49219-1.34375-.35367-.0188-.67535-.15995-.92383-.38476zm-4.02149.62695c-.0553.34908-.23156.6569-.48633.88281.81971.44481 1.66091.8579 2.52539 1.22852.0372-.35232.19235-.6709.4336-.90821-.8428-.36186-1.66693-.76442-2.47266-1.20312zm-.89062 1.14258c-.1809.0778-.37807.12304-.58594.12304-.15664 0-.30473-.0327-.44727-.0781.13402.82273.32528 1.61557.56641 2.37891.24868-.1823.55204-.29297.88086-.29297.0267 0 .0518.006.0781.008-.21384-.67907-.36692-1.39948-.49218-2.13867zm5.90039.99218c.004.0437.0137.0862.0137.13086.00011.31252-.0987.60281-.26562.84375 1.00549.29283 2.03831.50474 3.0957.62891.14779-.31071.27248-.63189.37304-.96094-1.09568-.11262-2.1683-.33539-3.21679-.64258zm-2.95508.43165c-.48076.41864-1.00921.77559-1.57031 1.0664.25934.21882.44486.51872.50976.86328.55912-.29554 1.09783-.65159 1.59571-1.07226-.2666-.21473-.46351-.51205-.53516-.85742zm-4.00391 1.94726c-.14486.0365-.29311.0879-.43554.11719-.64334.13227-1.2284.19061-1.76563.22265.24026.33426.50953.64667.80469.9336.3743-.044.75587-.0923 1.16211-.17578.13332-.0274.27446-.077.41015-.10938-.12504-.21791-.20321-.4653-.20312-.73242-.00003-.0874.0127-.17244.0273-.25586zm2.61719 1.20703c-.22057.26289-.52394.45269-.87305.51758.23556.40242.9888 1.79207 1.27501 2.16189l.79101-.61328c-.25879-.3344-.9831-1.69395-1.19297-2.06619z" fill-rule="evenodd" opacity=".5"/>
      <path d="m620 180a8 8 0 0 0 -8 8 8 8 0 0 0 8 8 8 8 0 0 0 8-8 8 8 0 0 0 -8-8zm0 1a7 7 0 0 1 7 7 7 7 0 0 1 -7 7 7 7 0 0 1 -7-7 7 7 0 0 1 7-7zm3.5 3.50391a1 .9957518 0 0 0 -1 .99609 1 .9957518 0 0 0 1 .99609 1 .9957518 0 0 0 1-.99609 1 .9957518 0 0 0 -1-.99609zm-6.5 1.5a1 .9957518 0 0 0 -1 .99609 1 .9957518 0 0 0 1 .99609 1 .9957518 0 0 0 1-.99609 1 .9957518 0 0 0 -1-.99609zm5 2.49609a1 .9957518 0 0 0 -1 .99609 1 .9957518 0 0 0 1 .9961 1 .9957518 0 0 0 1-.9961 1 .9957518 0 0 0 -1-.99609zm-4 2.50391a1 .9957518 0 0 0 -1 .99609 1 .9957518 0 0 0 1 .99609 1 .9957518 0 0 0 1-.99609 1 .9957518 0 0 0 -1-.99609z"/>
    </g>
  </g>
</svg>
