<svg xmlns="http://www.w3.org/2000/svg" xmlns:xlink="http://www.w3.org/1999/xlink" width="256" height="256" version="1.0">
 <defs>
  <linearGradient id="a">
   <stop id="stop2" offset="0" stop-color="#68676b"/>
   <stop id="stop4" offset=".8" stop-color="#424048"/>
   <stop id="stop6" offset="1" stop-color="#241f31"/>
  </linearGradient>
  <radialGradient id="d" cx="279.422" cy="446.483" r="224" fx="279.422" fy="446.483" gradientTransform="matrix(1.34416,6e-4,-6.2e-4,1.38763,-121.22,-718.103)" gradientUnits="userSpaceOnUse" xlink:href="#a"/>
  <linearGradient id="e" x1="43.844" x2="-60" y1="234" y2="234" gradientTransform="matrix(1.0015,0,0,0.99993,72.09,56.015)" gradientUnits="userSpaceOnUse" xlink:href="#b"/>
  <linearGradient id="b">
   <stop id="stop11" offset="0" stop-color="#d5d3cf"/>
   <stop id="stop13" offset=".038" stop-color="#e3e2df"/>
   <stop id="stop15" offset=".077" stop-color="#c0bfbc"/>
   <stop id="stop17" offset=".923" stop-color="#c0bfbc"/>
   <stop id="stop19" offset=".962" stop-color="#e3e2df"/>
   <stop id="stop21" offset="1" stop-color="#d5d3cf"/>
  </linearGradient>
  <linearGradient id="linearGradient1007" x1="160.305" x2="161.33" y1="240.139" y2="135.579" gradientTransform="matrix(0.54625232,0,0,0.54625232,-6.0941965,-68.413544)" gradientUnits="userSpaceOnUse" xlink:href="#linearGradient1018"/>
  <linearGradient id="linearGradient1018">
   <stop id="stop2-3" offset="0" style="stop-color:#37a6e6"/>
   <stop id="stop4-6" offset="1" style="stop-color:#1a7fd4"/>
  </linearGradient>
  <clipPath id="clipPath1082-3" clipPathUnits="userSpaceOnUse">
   <path d="M 361.9375,-212 C 507.2348,-212 528,-191.28677 528,-46.125 V 70.125 C 528,215.28618 507.2348,236 361.9375,236 H 214.0625 C 68.7652,236 48,215.28618 48,70.125 V -46.125 C 48,-191.28677 68.7652,-212 214.0625,-212 Z" style="fill:#8c59d9"/>
  </clipPath>
  <linearGradient id="linearGradient1007-3" x1="-75" x2="7" y1="-96" y2="-96" gradientTransform="matrix(1.2903225,0,0,1.2903225,303.87111,277.87096)" gradientUnits="userSpaceOnUse" xlink:href="#linearGradient4780"/>
  <linearGradient id="linearGradient4780">
   <stop style="stop-color:#fdc92b" id="stop4776" offset="0"/>
   <stop style="stop-color:#ffda64" id="stop4778" offset="1"/>
  </linearGradient>
  <filter style="color-interpolation-filters:sRGB" id="filter4920" width="1.302" height="1.199" x="-.15" y="-.1">
   <feGaussianBlur id="feGaussianBlur4922" stdDeviation="6.3"/>
  </filter>
  <filter style="color-interpolation-filters:sRGB" id="filter4889" width="1.03" height="1.02" x="-.01" y="-.01">
   <feGaussianBlur id="feGaussianBlur4891" stdDeviation=".63"/>
  </filter>
  <linearGradient id="linearGradient4782" x1="-75" x2="7" y1="-96" y2="-96" gradientTransform="matrix(1.2903225,0,0,1.2903225,197.87097,277.87096)" gradientUnits="userSpaceOnUse" xlink:href="#linearGradient4780"/>
  <linearGradient id="linearGradient1694" x1="39.997" x2="263.997" y1="156" y2="156" gradientTransform="matrix(0,1,1,0,-28.118878,-24.822539)" gradientUnits="userSpaceOnUse" xlink:href="#linearGradient4338-7"/>
  <linearGradient id="linearGradient4338-7">
   <stop style="stop-color:#2b898f" id="stop4340-2" offset="0"/>
   <stop style="stop-color:#5bdbc1" id="stop4342-6" offset="1"/>
  </linearGradient>
  <linearGradient id="linearGradient4358" x1="88" x2="488" y1="88" y2="488" gradientUnits="userSpaceOnUse" xlink:href="#linearGradient4360"/>
  <linearGradient id="linearGradient4360">
   <stop id="stop4362" offset="0" style="stop-color:#000000;stop-opacity:0.58823532"/>
   <stop id="stop4366" offset="1" style="stop-color:#000000;stop-opacity:0.20555556"/>
  </linearGradient>
  <filter style="color-interpolation-filters:sRGB" id="filter4380" width="1.106" height="1.088" x="-.05" y="-.04">
   <feGaussianBlur id="feGaussianBlur4382" stdDeviation="8.48"/>
  </filter>
  <filter style="color-interpolation-filters:sRGB" id="filter4346" width="1.026" height="1.022" x="-.01" y="-.01">
   <feGaussianBlur id="feGaussianBlur4348" stdDeviation="2.12"/>
  </filter>
 </defs>
 <path style="opacity:0.1;filter:url(#filter4346)" d="M 141.84323,74 C 71.24979,74 63.65402,81.250835 64,151.98706 V 298 444.01294 C 63.65402,514.74917 71.24979,522 141.84323,522 H 434.15677 C 504.75021,522 513.9371,514.72348 512,444.01294 V 298 151.98706 C 512,81.249993 504.75021,74 434.15677,74 Z" transform="matrix(0.5,0,0,0.5,-16.116488,-20.825537)"/>
 <path d="M 141.84323,74 C 71.24979,74 63.65402,81.250835 64,151.98706 V 298 444.01294 C 63.65402,514.74917 71.24979,522 141.84323,522 H 434.15677 C 504.75021,522 513.9371,514.72348 512,444.01294 V 298 151.98706 C 512,81.249993 504.75021,74 434.15677,74 Z" transform="matrix(0.5,0,0,0.5,-16.116488,-20.825235)" style="opacity:0.3;fill:url(#linearGradient4358);filter:url(#filter4380)"/>
 <path style="opacity:0.1" d="m 53.695112,13.174463 c -36.098811,0 -39.983002,3.69016 -39.80608,39.68984 v 74.310167 74.31016 c -0.176922,35.99969 3.707269,39.68984 39.80608,39.68984 H 202.08243 c 36.09881,0 40.77464,-3.70276 39.80608,-39.68984 V 127.17447 52.864303 c 0,-36.00011 -3.70727,-39.68984 -39.80608,-39.68984 z"/>
 <path style="fill:url(#linearGradient1694)" d="m 54.805144,15.174761 c -35.29673,0 -39.094609,3.62542 -38.921619,38.99353 v 73.006479 73.00647 c -0.17299,35.36812 3.624889,38.99353 38.921619,38.99353 H 200.9619 c 35.29671,0 38.92161,-3.625 38.92161,-38.99353 V 127.17477 54.168291 c 0,-35.36853 -3.6249,-38.99353 -38.92161,-38.99353 z"/>
 <g style="enable-background:new" transform="translate(-22.116347,-28.825235)">
  <path d="m 198,84.000002 -39.74219,0.19336 C 155.39849,84.207292 154,85.140652 154,88.000002 V 128 c 0,2.85936 1.39849,3.79271 4.25781,3.80664 L 198,132 c 2.85933,0.0139 4,-1.14064 4,-4 V 88.000002 c 0,-2.85935 -1.14067,-4.01393 -4,-4 z M 146,136 106.25781,136.19336 C 103.39849,136.20726 102,137.14065 102,140 v 40 c 0,2.85936 1.39849,3.79271 4.25781,3.80664 L 146,184 c 2.85933,0.0139 4,-1.14064 4,-4 v -40 c 0,-2.85935 -1.14067,-4.01393 -4,-4 z m 52,0 -39.74219,0.19336 C 155.39849,136.20726 154,137.14065 154,140 v 40 c 0,2.85936 1.39849,3.79271 4.25781,3.80664 L 198,184 c 2.85933,0.0139 4,-1.14064 4,-4 v -40 c 0,-2.85935 -1.14067,-4.01393 -4,-4 z m -52,52 -39.74219,0.19336 C 103.39849,188.20726 102,189.14065 102,192 v 40 c 0,2.85936 1.39849,3.79271 4.25781,3.80664 L 146,236 c 2.85933,0.0139 4,-1.14064 4,-4 v -40 c 0,-2.85935 -1.14067,-4.01393 -4,-4 z" style="opacity:0.4;filter:url(#filter4920)"/>
  <path d="m 198,82.000003 -39.74219,0.19336 C 155.39849,82.207293 154,83.140653 154,86.000003 v 40.000007 c 0,2.85936 1.39849,3.79271 4.25781,3.80664 L 198,130.00001 c 2.85933,0.0139 4,-1.14064 4,-4 V 86.000003 c 0,-2.85935 -1.14067,-4.01393 -4,-4 z m -52,52.000007 -39.74219,0.19336 C 103.39849,134.20727 102,135.14066 102,138.00001 v 40 c 0,2.85936 1.39849,3.79271 4.25781,3.80664 L 146,182 c 2.85933,0.0139 4,-1.14063 4,-3.99999 v -40 c 0,-2.85935 -1.14067,-4.01393 -4,-4 z m 52,0 -39.74219,0.19336 C 155.39849,134.20727 154,135.14066 154,138.00001 v 40 c 0,2.85936 1.39849,3.79271 4.25781,3.80664 L 198,182 c 2.85933,0.0139 4,-1.14063 4,-3.99999 v -40 c 0,-2.85935 -1.14067,-4.01393 -4,-4 z M 146,186 106.25781,186.19336 C 103.39849,186.20726 102,187.14065 102,190 v 40 c 0,2.85936 1.39849,3.79271 4.25781,3.80664 L 146,234 c 2.85933,0.0139 4,-1.14064 4,-4 v -40 c 0,-2.85935 -1.14067,-4.01393 -4,-4 z" style="opacity:0.1;filter:url(#filter4889)"/>
  <path d="m 198,80 -39.74219,0.19336 C 155.39849,80.20729 154,81.14065 154,84 v 40 c 0,2.85936 1.39849,3.79271 4.25781,3.80664 L 198,128 c 2.85933,0.0139 4,-1.14064 4,-4 V 84 c 0,-2.85935 -1.14067,-4.01393 -4,-4 z m -52,52 -39.74219,0.19336 C 103.39849,132.20729 102,133.14065 102,136 v 40 c 0,2.85936 1.39849,3.79271 4.25781,3.80664 L 146,180 c 2.85933,0.0139 4,-1.14064 4,-4 v -40 c 0,-2.85935 -1.14067,-4.01393 -4,-4 z m 52,0 -39.74219,0.19336 C 155.39849,132.20729 154,133.14065 154,136 v 40 c 0,2.85936 1.39849,3.79271 4.25781,3.80664 L 198,180 c 2.85933,0.0139 4,-1.14064 4,-4 v -40 c 0,-2.85935 -1.14067,-4.01393 -4,-4 z m -52,52 -39.74219,0.19336 C 103.39849,184.20729 102,185.14065 102,188 v 40 c 0,2.85936 1.39849,3.79271 4.25781,3.80664 L 146,232 c 2.85933,0.0139 4,-1.14064 4,-4 v -40 c 0,-2.85935 -1.14067,-4.01393 -4,-4 z" style="fill:url(#linearGradient4782)"/>
  <path d="m 198,80 -39.74219,0.193359 C 155.39849,80.207289 154,81.14065 154,84 v 1 c 0,-2.85935 1.39849,-3.792741 4.25781,-3.806641 L 198,81 c 2.85933,-0.01393 4,1.14065 4,4 v -1 c 0,-2.85935 -1.14067,-4.01393 -4,-4 z m -52,52 -39.74219,0.19336 C 103.39849,132.20726 102,133.14065 102,136 v 1 c 0,-2.85935 1.39849,-3.79274 4.25781,-3.80664 L 146,133 c 2.85933,-0.0139 4,1.14065 4,4 v -1 c 0,-2.85935 -1.14067,-4.01393 -4,-4 z m 52,0 -39.74219,0.19336 C 155.39849,132.20726 154,133.14065 154,136 v 1 c 0,-2.85935 1.39849,-3.79274 4.25781,-3.80664 L 198,133 c 2.85933,-0.0139 4,1.14065 4,4 v -1 c 0,-2.85935 -1.14067,-4.01393 -4,-4 z m -52,52 -39.74219,0.19336 C 103.39849,184.20726 102,185.14065 102,188 v 1 c 0,-2.85935 1.39849,-3.79274 4.25781,-3.80664 L 146,185 c 2.85933,-0.0139 4,1.14065 4,4 v -1 c 0,-2.85935 -1.14067,-4.01393 -4,-4 z" style="fill:#ffffff"/>
 </g>
 <g transform="translate(-24.116347,-28.825235)" style="opacity:0.3;enable-background:new">
  <path style="fill:url(#linearGradient1007-3)" d="M 263.97852,80.207031 C 261.31661,80.283375 260,81.240079 260,84 v 40 c 0,2.76756 1.32321,3.72134 4,3.79297 V 82.994141 c 0,-0.982995 -0.0153,-1.852552 -0.0215,-2.78711 z M 252,132 212.25781,132.19336 C 209.39849,132.20729 208,133.14065 208,136 v 40 c 0,2.85936 1.39849,3.79271 4.25781,3.80664 L 252,180 c 2.85933,0.0139 4,-1.14064 4,-4 v -40 c 0,-2.85935 -1.14067,-4.01393 -4,-4 z m 12,0.20703 c -2.67679,0.0716 -4,1.02542 -4,3.79297 v 40 c 0,2.76756 1.32321,3.72134 4,3.79297 V 156 Z M 96,184 56.257812,184.19336 C 53.398494,184.20729 52,185.14065 52,188 v 40 c 0,2.85936 1.398494,3.79271 4.257812,3.80664 L 96,232 c 2.85933,0.0139 4,-1.14064 4,-4 v -40 c 0,-2.85935 -1.14067,-4.01393 -4,-4 z m 104,0 -39.74219,0.19336 C 157.39849,184.20729 156,185.14065 156,188 v 40 c 0,2.85936 1.39849,3.79271 4.25781,3.80664 L 200,232 c 2.85933,0.0139 4,-1.14064 4,-4 v -40 c 0,-2.85935 -1.14067,-4.01393 -4,-4 z m 52,0 -39.74219,0.19336 C 209.39849,184.20729 208,185.14065 208,188 v 40 c 0,2.85936 1.39849,3.79271 4.25781,3.80664 L 252,232 c 2.85933,0.0139 4,-1.14064 4,-4 v -40 c 0,-2.85935 -1.14067,-4.01393 -4,-4 z m -208,52 -3.957031,0.0195 c 2.08e-4,0.0122 -2.11e-4,0.0229 0,0.0352 0.256396,14.90725 1.888836,22.9625 7.957031,27.23436 V 240 c 0,-2.85935 -1.14067,-4.01393 -4,-4 z m 52,0 -39.742188,0.19336 C 53.398494,236.20729 52,237.14065 52,240 v 25.35352 C 57.823069,267.53255 66.375204,268 78.921875,268 H 100 v -28 c 0,-2.85935 -1.14067,-4.01393 -4,-4 z m 52,0 -39.74219,0.19336 C 105.39849,236.20729 104,237.14065 104,240 v 28 h 48 v -28 c 0,-2.85935 -1.14067,-4.01393 -4,-4 z m 52,0 -39.74219,0.19336 C 157.39849,236.20729 156,237.14065 156,240 v 28 h 32.96875 c 5.35487,0 10.33219,-0.0659 15.03125,-0.19922 V 240 c 0,-2.85935 -1.14067,-4.01393 -4,-4 z" transform="translate(-1.41e-4)"/>
  <path style="fill:#ffffff" d="M 263.97852,80.207031 C 261.31661,80.283375 260,81.240079 260,84 v 1 c 0,-2.762695 1.31902,-3.718365 3.98633,-3.792969 -0.001,-0.3415 -0.006,-0.664685 -0.008,-1 z M 252,132 212.25781,132.19336 C 209.39849,132.20726 208,133.14065 208,136 v 1 c 0,-2.85935 1.39849,-3.79274 4.25781,-3.80664 L 252,133 c 2.85933,-0.0139 4,1.14065 4,4 v -1 c 0,-2.85935 -1.14067,-4.01393 -4,-4 z m 12,0.20703 c -2.67679,0.0716 -4,1.02542 -4,3.79297 v 1 c 0,-2.76755 1.32321,-3.72137 4,-3.79297 z M 96,184 56.257812,184.19336 C 53.398494,184.20729 52,185.14065 52,188 v 1 c 0,-2.85935 1.398494,-3.79274 4.257812,-3.80664 L 96,185 c 2.85933,-0.0139 4,1.14065 4,4 v -1 c 0,-2.85935 -1.14067,-4.01393 -4,-4 z m 104,0 -39.74219,0.19336 C 157.39849,184.20729 156,185.14065 156,188 v 1 c 0,-2.85935 1.39849,-3.79274 4.25781,-3.80664 L 200,185 c 2.85933,-0.0139 4,1.14065 4,4 v -1 c 0,-2.85935 -1.14067,-4.01393 -4,-4 z m 52,0 -39.74219,0.19336 C 209.39849,184.20726 208,185.14065 208,188 v 1 c 0,-2.85935 1.39849,-3.79274 4.25781,-3.80664 L 252,185 c 2.85933,-0.0139 4,1.14065 4,4 v -1 c 0,-2.85935 -1.14067,-4.01393 -4,-4 z m -208,52 -3.957031,0.0195 c 0.0059,0.34842 0.01987,0.65906 0.02734,1 L 44,237 c 2.85933,-0.0139 4,1.14065 4,4 v -1 c 0,-2.85935 -1.14067,-4.01393 -4,-4 z m 52,0 -39.742188,0.19336 C 53.398494,236.20726 52,237.14065 52,240 v 1 c 0,-2.85935 1.398494,-3.79274 4.257812,-3.80664 L 96,237 c 2.85933,-0.0139 4,1.14065 4,4 v -1 c 0,-2.85935 -1.14067,-4.01393 -4,-4 z m 52,0 -39.74219,0.19336 C 105.39849,236.20726 104,237.14065 104,240 v 1 c 0,-2.85935 1.39849,-3.79274 4.25781,-3.80664 L 148,237 c 2.85933,-0.0139 4,1.14065 4,4 v -1 c 0,-2.85935 -1.14067,-4.01393 -4,-4 z m 52,0 -39.74219,0.19336 C 157.39849,236.20726 156,237.14065 156,240 v 1 c 0,-2.85935 1.39849,-3.79274 4.25781,-3.80664 L 200,237 c 2.85933,-0.0139 4,1.14065 4,4 v -1 c 0,-2.85935 -1.14067,-4.01393 -4,-4 z" transform="translate(-1.41e-4)"/>
 </g>
 <path style="opacity:0.3;fill:#ffffff" d="m 54.805392,15.174463 c -35.296728,0 -39.094869,3.62603 -38.921879,38.99414 v 2 c -0.17299,-35.36811 3.625151,-38.99414 38.921879,-38.99414 H 200.96163 c 35.29673,0 38.92188,3.62561 38.92188,38.99414 v -2 c 0,-35.36853 -3.62515,-38.99414 -38.92188,-38.99414 z"/>
 <path style="opacity:0.2" d="m 54.810792,239.17447 c -35.296731,0 -39.094874,-3.62603 -38.921884,-38.99414 v -2 c -0.17299,35.36811 3.625153,38.99414 38.921884,38.99414 H 200.96703 c 35.29673,0 38.92188,-3.62561 38.92188,-38.99414 v 2 c 0,35.36853 -3.62515,38.99414 -38.92188,38.99414 z"/>
</svg>
