<svg height="256" viewBox="0 0 256 256" width="256" xmlns="http://www.w3.org/2000/svg" xmlns:xlink="http://www.w3.org/1999/xlink">
  <filter id="filter872" color-interpolation-filters="sRGB" height="1.025645" width="1.022554" x="-.011277" y="-.012822">
    <feGaussianBlur stdDeviation="2.3530296"/>
  </filter>
  <filter id="filter886" color-interpolation-filters="sRGB" height="1.102578" width="1.090215" x="-.045107" y="-.051289">
    <feGaussianBlur stdDeviation="9.4121184"/>
  </filter>
  <radialGradient id="radialGradient896" cx="372.63785" cy="213.40512" gradientTransform="matrix(1 0 0 .8794702 0 26.076582)" gradientUnits="userSpaceOnUse" r="246">
    <stop offset="0" stop-color="#a20202"/>
    <stop offset="1" stop-color="#fa0000"/>
  </radialGradient>
  <g fill="none" fill-rule="evenodd" transform="matrix(.45528455 0 0 .45528455 15 23.998676)">
    <g fill-rule="nonzero">
      <path d="m434.60282 167.6128.006.0102c-.001-.002-.002-.003-.003-.005s-.002-.003-.003-.005zm-288.17462-152.334517c15.43102 8.571663 30.01725 19.416702 42.47404 31.470765 20.07981-3.637402 40.78447-5.471604 61.78905-5.471604 62.87877 0 122.49337 16.497481 167.85167 46.44405 23.48893 15.515796 42.15911 33.924976 55.48567 54.721216 14.84117 23.17293 22.36423 48.09224 22.36423 74.79409 0 25.98366-7.52306 50.91329-22.36423 74.08107-13.32656 20.80656-31.99673 39.21058-55.48567 54.72638-45.35829 29.94657-104.9679 46.43371-167.85167 46.43371-21.00458 0-41.70423-1.8342-61.78905-5.46644-12.46178 12.04891-27.04302 22.89911-42.47404 31.47077-82.448708 41.29796-150.8210572.97135-150.8210572.97135s63.5685892-53.97719 53.2312582-101.29442c-28.442657-29.15606-43.8536791-64.32106-43.8536791-101.63027 0-36.60653 15.4160211-71.77153 43.8536791-100.93275 10.33562-47.304241-53.2102081-101.271393-53.2312529-101.289265.020333-.012 68.3846059-40.325628 150.8210519.971348z" fill="#030303" filter="url(#filter886)" opacity=".1" stroke-width="1.017857"/>
      <path d="m434.60282 167.6128.006.0102c-.001-.002-.002-.003-.003-.005s-.002-.003-.003-.005zm-288.17462-152.334517c15.43102 8.571663 30.01725 19.416702 42.47404 31.470765 20.07981-3.637402 40.78447-5.471604 61.78905-5.471604 62.87877 0 122.49337 16.497481 167.85167 46.44405 23.48893 15.515796 42.15911 33.924976 55.48567 54.721216 14.84117 23.17293 22.36423 48.09224 22.36423 74.79409 0 25.98366-7.52306 50.91329-22.36423 74.08107-13.32656 20.80656-31.99673 39.21058-55.48567 54.72638-45.35829 29.94657-104.9679 46.43371-167.85167 46.43371-21.00458 0-41.70423-1.8342-61.78905-5.46644-12.46178 12.04891-27.04302 22.89911-42.47404 31.47077-82.448708 41.29796-150.8210572.97135-150.8210572.97135s63.5685892-53.97719 53.2312582-101.29442c-28.442657-29.15606-43.8536791-64.32106-43.8536791-101.63027 0-36.60653 15.4160211-71.77153 43.8536791-100.93275 10.33562-47.304241-53.2102081-101.271393-53.2312529-101.289265.020333-.012 68.3846059-40.325628 150.8210519.971348z" fill="#030303" filter="url(#filter872)" opacity=".1" stroke-width="1.017857"/>
      <path d="m434.60282 167.6128.006.0102c-.001-.002-.002-.003-.003-.005s-.002-.003-.003-.005zm-288.17462-152.334517c15.43102 8.571663 30.01725 19.416702 42.47404 31.470765 20.07981-3.637402 40.78447-5.471604 61.78905-5.471604 62.87877 0 122.49337 16.497481 167.85167 46.44405 23.48893 15.515796 42.15911 33.924976 55.48567 54.721216 14.84117 23.17293 22.36423 48.09224 22.36423 74.79409 0 25.98366-7.52306 50.91329-22.36423 74.08107-13.32656 20.80656-31.99673 39.21058-55.48567 54.72638-45.35829 29.94657-104.9679 46.43371-167.85167 46.43371-21.00458 0-41.70423-1.8342-61.78905-5.46644-12.46178 12.04891-27.04302 22.89911-42.47404 31.47077-82.448708 41.29796-150.8210572.97135-150.8210572.97135s63.5685892-53.97719 53.2312582-101.29442c-28.442657-29.15606-43.8536791-64.32106-43.8536791-101.63027 0-36.60653 15.4160211-71.77153 43.8536791-100.93275 10.33562-47.304241-53.2102081-101.271393-53.2312529-101.289265.020333-.012 68.3846059-40.325628 150.8210519.971348z" fill="#030303" opacity=".1" stroke-width="1.017857"/>
      <path d="m431.294 167.94765.006.01c-.001-.002-.002-.003-.003-.005s-.002-.003-.003-.005zm-283.11892-149.661977c15.1603 8.421283 29.49063 19.076058 41.72888 30.918646 19.72753-3.573588 40.06895-5.375611 60.70503-5.375611 61.77563 0 120.34436 16.208051 164.9069 45.629242 23.07684 15.24359 41.41948 33.3298 54.51224 53.76119 14.5808 22.76639 21.97187 47.24852 21.97187 73.48191 0 25.52781-7.39107 50.02008-21.97187 72.78141-13.09276 20.44153-31.43539 38.52267-54.51224 53.76626-44.56253 29.42119-103.12636 45.61909-164.9069 45.61909-20.63608 0-40.97258-1.80202-60.70503-5.37054-12.24316 11.83752-26.56858 22.49737-41.72888 30.91865-81.002246 40.57343-148.17508.95431-148.17508.95431s62.45335-53.03022 52.297376-99.51733c-27.943663-28.64455-43.0843159-63.19262-43.0843159-99.84728 0-35.96431 15.1455639-70.51238 43.0843159-99.162 10.154293-46.474336-52.27669521-99.494696-52.29737086-99.512254.01997589-.011789 67.18487586-39.618161 148.17507486.954307z" fill="url(#radialGradient896)"/>
    </g>
    <path d="m129.51758 64.621094c-49.345713 0-89.349611 25.920106-89.349611 57.894526 0 13.93421 7.597209 26.71849 20.253906 36.70899 3.564705 11.3887 1.477759 24.22447-6.263672 38.50781-.370367.68334-.717129 1.37437-1.091797 2.05664 6.641654-.55667 13.356129-2.38066 20.154297-5.72461 5.128794-2.89182 10.048093-6.56195 14.246094-10.61718l7.726562-7.46289c10.567681 2.85151 22.162511 4.42578 34.324221 4.42578 49.34571 0 89.34765-25.92012 89.34765-57.89454s-40.00194-57.894526-89.34765-57.894526zm-42.746096 44.576176c7.270917 0 13.166016 5.87627 13.166016 13.12304s-5.895099 13.1211-13.166016 13.1211-13.164062-5.87433-13.164062-13.1211 5.893145-13.12304 13.164062-13.12304zm42.386716 0c7.27092 0 13.16407 5.87627 13.16407 13.12304s-5.89315 13.1211-13.16407 13.1211c-7.27091 0-13.16601-5.87433-13.16601-13.1211s5.8951-13.12304 13.16601-13.12304zm42.38477 0c7.27092 0 13.16406 5.87627 13.16406 13.12304s-5.89314 13.1211-13.16406 13.1211-13.16602-5.87433-13.16602-13.1211 5.8951-13.12304 13.16602-13.12304z" fill="#f2f2f2" stroke-width=".455285" transform="matrix(2.1964286 0 0 2.1964286 -32.946429 -52.711378)"/>
    <path d="m86.771484 107.19727c-7.270917 0-13.164062 5.87627-13.164062 13.12304 0 .33755.025666.66887.050781 1 .514081-6.77817 6.181036-12.12304 13.113281-12.12304 6.932246 0 12.600988 5.34487 13.115235 12.12304.025123-.33113.050781-.66245.050781-1 0-7.24677-5.895099-13.12304-13.166016-13.12304zm42.386716 0c-7.27091 0-13.16601 5.87627-13.16601 13.12304 0 .33755.02566.66887.05078 1 .51425-6.77817 6.18299-12.12304 13.11523-12.12304 6.93225 0 12.5992 5.34487 13.11328 12.12304.02512-.33113.05079-.66245.05079-1 0-7.24677-5.89315-13.12304-13.16407-13.12304zm42.38477 0c-7.27092 0-13.16602 5.87627-13.16602 13.12304 0 .33755.02566.66887.05078 1 .51425-6.77817 6.18299-12.12304 13.11524-12.12304s12.5992 5.34487 13.11328 12.12304c.02512-.33113.05078-.66245.05078-1 0-7.24677-5.89314-13.12304-13.16406-13.12304zm-131.349611 14.05273c-.013944.42103-.02539.84243-.02539 1.26562 0 13.93422 7.597209 26.71849 20.253906 36.70899 1.025953 3.27777 1.56666 6.67975 1.65625 10.19727.103123-4.23366-.437069-8.30217-1.65625-12.19727-12.433226-9.8141-19.965752-22.32682-20.228516-35.97461zm178.652341.26562c-.82457 31.5126-40.49844 56.89454-89.32812 56.89454-12.16171 0-23.75654-1.57427-34.324221-4.42578l-7.726562 7.46289c-4.198001 4.05522-9.1173 7.72537-14.246094 10.61718-6.41489 3.15542-12.754315 4.94263-19.029297 5.60352-.011664.02156-.021513.04288-.033203.06445-.370367.68334-.717129 1.37437-1.091797 2.05664 6.641654-.55667 13.356129-2.38066 20.154297-5.72461 5.128794-2.89182 10.048093-6.56195 14.246094-10.61718l7.726562-7.46289c10.567681 2.85151 22.162511 4.42578 34.324221 4.42578 49.34571 0 89.34765-25.92011 89.34765-57.89454 0-.33437-.01081-.66697-.01953-1z" fill="#030303" opacity=".2" stroke-width=".455285" transform="matrix(2.1964286 0 0 2.1964286 -32.946429 -52.711378)"/>
    <path d="m129.51758 64.621094c-49.345715 0-89.349611 25.920111-89.349611 57.894526 0 .24603.020668.48908.02539.73438 1.039621-31.38965 40.631615-56.628906 89.324221-56.628906 48.82968 0 88.50355 25.381935 89.32812 56.894526.00872-.33302.01953-.66562.01953-1 0-31.974415-40.00194-57.894526-89.34765-57.894526zm-55.859377 58.699216c-.025115.33115-.050781.66246-.050781 1 0 7.24677 5.893145 13.1211 13.164062 13.1211s13.166016-5.87433 13.166016-13.1211c0-.33754-.025658-.66885-.050781-1-.514247 6.77802-6.182989 12.1211-13.115235 12.1211-6.932245 0-12.5992-5.34308-13.113281-12.1211zm42.384767 0c-.02512.33115-.05078.66246-.05078 1 0 7.24677 5.8951 13.1211 13.16601 13.1211 7.27092 0 13.16407-5.87433 13.16407-13.1211 0-.33754-.02567-.66885-.05079-1-.51408 6.77802-6.18103 12.1211-13.11328 12.1211-6.93224 0-12.60098-5.34308-13.11523-12.1211zm42.38476 0c-.02512.33115-.05078.66246-.05078 1 0 7.24677 5.8951 13.1211 13.16602 13.1211s13.16406-5.87433 13.16406-13.1211c0-.33754-.02566-.66885-.05078-1-.51408 6.77802-6.18103 12.1211-13.11328 12.1211s-12.60099-5.34308-13.11524-12.1211zm-96.349605 48.10157c-.198395 8.14493-2.826172 16.91231-7.919922 26.31054-.370367.68334-.717129 1.37437-1.091797 2.05664.374454-.03138.750082-.0816 1.125-.12109 5.489554-10.14779 8.107942-19.56036 7.886719-28.24609z" fill="#ffe8e8" opacity=".3" stroke-width=".455285" transform="matrix(2.1964286 0 0 2.1964286 -32.946429 -52.711378)"/>
  </g>
  <g stroke-width=".455285" transform="matrix(1.00000000676 0 0 1.00000000676 -.00000010137 -.00000001261)">
    <path d="m47.652344 24c-19.475959.118786-32.646376 7.88515-32.652344 7.888672.001255.001066.534193.458777 1.400391 1.253906 6.381234-3.20952 33.812368-14.973255 66.060547 1.181641 6.90225 3.83408 13.428113 8.684424 19.000002 14.076172 8.98164-1.627 18.24143-2.447266 27.63672-2.447266 28.12549 0 54.79144 7.378424 75.08007 20.773437 10.50653 6.940172 18.85743 15.17642 24.81836 24.478516 6.44986 10.070772 9.80067 20.880992 9.98633 32.441402.00542-.32911.01758-.65644.01758-.98632 0-11.94366-3.36549-23.089896-10.00391-33.455082-5.96093-9.302096-14.31183-17.538344-24.81836-24.478516-20.28863-13.395013-46.95458-20.773437-75.08007-20.773437-9.39529 0-18.65508.820266-27.63672 2.447266-5.571889-5.391748-12.097752-10.242092-19.000002-14.076172-12.675296-6.349756-24.606901-8.38644-34.808594-8.324219zm-8.361328 49.380859c-.053588 1.278039-.204606 2.551878-.480469 3.814453-12.720082 13.04373-19.615235 28.772488-19.615235 45.146488 0 .33765.019756.67291.025391 1.00976.272808-16.01652 7.126981-31.376282 19.589844-44.156248.419655-1.920686.559448-3.86493.480469-5.814453zm0 100.236331c-.790622 19.53274-24.291016 39.49219-24.291016 39.49219s.485039.28571 1.400391.74609c5.241223-4.81123 23.614854-22.953 22.890625-40.23828z" fill="#fffafa" opacity=".3"/>
    <path d="m16.400391 31.142578c-.915271.460347-1.39925.745421-1.400391.746094.008559.007268 23.499929 19.964992 24.291016 39.492187.724705-17.283783-17.649291-35.426979-22.890625-40.238281zm2.820312 90.208982c-.00563.33056-.025391.65913-.025391.99024.000001 16.6883 6.892917 32.41756 19.615235 45.45898.275909 1.26292.426907 2.53803.480469 3.81641.078906-1.94943-.060871-3.89578-.480469-5.81641-12.464908-12.77755-19.31697-28.13729-19.589844-44.44922zm219.761717.29492c-.18553 11.26629-3.53633 22.07969-9.98633 32.14844-5.96093 9.30671-14.31182 17.5403-24.81836 24.48047-20.28863 13.39501-46.95235 20.76953-75.08007 20.76953-9.39529 0-18.65284-.82062-27.63672-2.44531-5.574124 5.38944-12.097752 10.24209-19.000002 14.07617-32.250787 16.15418-59.682202 4.38767-66.060547 1.17969-.867252.7961-1.400391 1.25391-1.400391 1.25391 0-.00001 30.581866 18.03886 67.460938-.4336 6.90225-3.83408 13.425878-8.68673 19.000002-14.07617 8.98388 1.62469 18.24143 2.44531 27.63672 2.44531 28.12772 0 54.79144-7.37452 75.08007-20.76953 10.50654-6.94017 18.85743-15.17376 24.81836-24.48047 6.63842-10.36288 10.00391-21.51235 10.00391-33.13476 0-.33925-.01215-.67571-.01758-1.01368z" fill="#282828" opacity=".2"/>
  </g>
</svg>
