<svg enable-background="new" height="256" viewBox="0 0 256 256" width="256" xmlns="http://www.w3.org/2000/svg" xmlns:xlink="http://www.w3.org/1999/xlink">
  <linearGradient id="linearGradient918" gradientUnits="userSpaceOnUse" x1="252.122" x2="21.425" y1="210.694" y2="210.694">
    <stop offset="0"/>
    <stop offset="1" stop-opacity="0"/>
  </linearGradient>
  <filter id="filter920" color-interpolation-filters="sRGB" height="1.143" width="1.103" x="-.05" y="-.07">
    <feGaussianBlur stdDeviation="3.138"/>
  </filter>
  <linearGradient id="linearGradient4358" gradientTransform="matrix(0 -1 1 0 -10.0054 585.9946)" gradientUnits="userSpaceOnUse" x1="88" x2="488" y1="88" y2="488">
    <stop offset="0" stop-opacity=".588235"/>
    <stop offset=".88" stop-opacity="0"/>
    <stop offset="1"/>
  </linearGradient>
  <filter id="filter4380" color-interpolation-filters="sRGB" height="1.088" width="1.106" x="-.05" y="-.04">
    <feGaussianBlur stdDeviation="8.48"/>
  </filter>
  <filter id="filter4346" color-interpolation-filters="sRGB" height="1.022" width="1.026" x="-.01" y="-.01">
    <feGaussianBlur stdDeviation="2.12"/>
  </filter>
  <path d="m189.84323 74c-70.59344 0-78.18921 7.250835-77.84323 77.98706v146.01294 146.01294c-.34598 70.73623 7.24979 77.98706 77.84323 77.98706h196.31354c70.59344 0 76.00668-7.27384 77.84323-77.98706v-146.01294-146.01294c0-70.737067-7.24979-77.98706-77.84323-77.98706z" filter="url(#filter4346)" opacity=".1" transform="matrix(0 .5 -.5 0 276.82523 -15.328148)"/>
  <path d="m189.84323 74c-70.59344 0-78.18921 7.250835-77.84323 77.98706v146.01294 146.01294c-.34598 70.73623 7.24979 77.98706 77.84323 77.98706h196.31354c70.59344 0 77.84323-7.24999 77.84323-77.98706v-146.01294-146.01294c0-70.737067-7.24979-77.98706-77.84323-77.98706z" fill="url(#linearGradient4358)" filter="url(#filter4380)" opacity=".3" transform="matrix(0 .5 -.5 0 276.82523 -15.328148)"/>
  <path d="m241.83043 77.478254c0-36.098811-3.69016-39.983003-39.68984-39.806081h-74.31016-74.310149c-35.99969-.176922-39.68984 3.70727-39.68984 39.806081v100.387326c0 36.09881 3.68973 39.80608 39.68984 39.80608h74.310149 74.31016c36.00011 0 39.68984-3.70727 39.68984-39.80608z" opacity=".1"/>
  <path d="m239.82523 176.74484c0 35.29673-3.62542 39.09461-38.99353 38.92162h-73.00647-73.006459c-35.36812.17299-38.99353-3.62489-38.99353-38.92162v-98.156766c0-35.296716 3.625-38.921616 38.99353-38.921616h73.006459 73.00647c35.36853 0 38.99353 3.6249 38.99353 38.921616z" fill="#62237c"/>
  <path d="m54.818175 39.667201c-35.36853 0-38.992187 3.623202-38.992187 38.919923v98.158206c0 .0882.0019.16224.002.25v-96.410156c-.000047-35.29672 3.625564-38.921879 38.994094-38.921879h73.005848 73.00586c35.28016 0 38.97394 3.621035 38.99219 38.671879v-1.74805c0-35.296721-3.62561-38.919923-38.99414-38.919923h-73.00586z" fill="#fff" opacity=".3"/>
  <path d="m15.825988 174.74533v2c0 35.29673 3.624067 39.09487 38.992187 38.92188h73.007805 73.00586c35.36811.17299 38.99414-3.62515 38.99414-38.92188v-2c0 35.29673-3.62603 39.09487-38.99414 38.92188h-73.00586-73.007805c-35.36812.17299-38.992187-3.62515-38.992187-38.92188z" opacity=".2"/>
  <path d="m15.825988 119.66916v57.07617c0 35.29673 3.624067 39.09487 38.992187 38.92188h73.007805 73.00586c35.36811.17299 38.99414-3.62515 38.99414-38.92188v-57.07617z" fill="#fff" opacity=".05"/>
  <path d="m110.85775 138-4.93526 14.80579 50.10039 20.04015-50.10039 20.04016 4.93526 14.80578 64.45752-27.21872v-15.25444zm64.36555 90.03114v15.10489h76.69918v-15.10489z" fill="url(#linearGradient918)" filter="url(#filter920)" opacity=".5" transform="matrix(.52016215 0 0 .52160725 -3.316866 -6.230705)"/>
  <path d="m54.347144 64.707879-2.56714 7.722805 26.060317 10.45309-26.060317 10.45309 2.56714 7.722806 33.528357-14.197476v-7.95683zm33.480517 46.960901v8h39.999989v-8z" fill="#f2f2f2"/>
  <path d="m54.347284 64.707879-2.56728 7.723255.3058.12225 2.26148-6.80229 33.528107 14.1975v-1.04322zm22.192227 18.697375-24.759507 9.93194.3058.92096 25.754117-10.33129zm11.28782 28.263586v1.04321h40.000319v-1.04321z" fill="#fff"/>
</svg>
