<svg height="256" width="256" xmlns="http://www.w3.org/2000/svg" xmlns:xlink="http://www.w3.org/1999/xlink">
  <linearGradient id="linearGradient1188-6" gradientTransform="matrix(.78593751 0 0 1 7.891038 -311.17477)" gradientUnits="userSpaceOnUse" x1="40" x2="40" xlink:href="#linearGradient1186" y1="168" y2="136"/>
  <linearGradient id="linearGradient1186">
    <stop offset="0" stop-color="#f00"/>
    <stop offset="1" stop-color="#f00" stop-opacity="0"/>
  </linearGradient>
  <linearGradient id="linearGradient1188" gradientTransform="matrix(.78593751 0 0 1 7.891038 -28.825235)" gradientUnits="userSpaceOnUse" x1="40" x2="40" xlink:href="#linearGradient1186" y1="168" y2="136"/>
  <linearGradient id="linearGradient4226" gradientTransform="matrix(0 -.453125 -.45311204 0 253.29054 239.17477)" gradientUnits="userSpaceOnUse" x1="494.345" x2="4.414" y1="386.295" y2="169.657">
    <stop offset="0" stop-color="#e8e8e8"/>
    <stop offset="1" stop-color="#f5f5f5"/>
  </linearGradient>
  <linearGradient id="linearGradient4358" gradientUnits="userSpaceOnUse" x1="88" x2="488" y1="88" y2="488">
    <stop offset="0" stop-opacity=".588235"/>
    <stop offset=".88" stop-opacity="0"/>
    <stop offset="1"/>
  </linearGradient>
  <filter id="filter4380" color-interpolation-filters="sRGB" height="1.088" width="1.106" x="-.05" y="-.04">
    <feGaussianBlur stdDeviation="8.48"/>
  </filter>
  <filter id="filter4346" color-interpolation-filters="sRGB" height="1.022" width="1.026" x="-.01" y="-.01">
    <feGaussianBlur stdDeviation="2.12"/>
  </filter>
  <path d="m189.84323 74c-70.59344 0-78.18921 7.250835-77.84323 77.98706v146.01294 146.01294c-.34598 70.73623 7.24979 77.98706 77.84323 77.98706h196.31354c70.59344 0 76.00668-7.27384 77.84323-77.98706v-146.01294-146.01294c0-70.737067-7.24979-77.98706-77.84323-77.98706z" filter="url(#filter4346)" opacity=".1" transform="matrix(.5 0 0 .5 -16.666462 -20.825235)"/>
  <path d="m189.84323 74c-70.59344 0-78.18921 7.250835-77.84323 77.98706v146.01294 146.01294c-.34598 70.73623 7.24979 77.98706 77.84323 77.98706h196.31354c70.59344 0 77.84323-7.24999 77.84323-77.98706v-146.01294-146.01294c0-70.737067-7.24979-77.98706-77.84323-77.98706z" fill="url(#linearGradient4358)" filter="url(#filter4380)" opacity=".3" transform="matrix(.5 0 0 .5 -16.666462 -20.825235)"/>
  <path d="m77.145138 13.174765c-36.098811 0-39.983003 3.690158-39.806081 39.689842v74.310163 74.31016c-.176922 35.99969 3.70727 39.68984 39.806081 39.68984h100.387322c36.09881 0 39.80608-3.68973 39.80608-39.68984v-74.31016-74.310163c0-36.000113-3.70727-39.689842-39.80608-39.689842z" opacity=".1"/>
  <path d="m176.40652 15.174765c35.29673 0 39.09461 3.625418 38.92162 38.99353v73.006475 73.00647c.17299 35.36812-3.62489 38.99353-38.92162 38.99353h-98.156762c-35.296716 0-38.921616-3.625-38.921616-38.99353v-73.00647-73.006475c0-35.368533 3.6249-38.99353 38.921616-38.99353z" fill="url(#linearGradient4226)"/>
  <path d="m215.32768 187.18063-51.99414 51.99414h13.07227c35.29673 0 39.09486-3.62602 38.92187-38.99414z" fill="#fff"/>
  <path d="m78.255418 15.174765c-35.296728 0-39.09487 3.626029-38.92188 38.994141v2c-.17299-35.368112 3.625152-38.994141 38.92188-38.994141h98.156242c35.29673 0 38.92188 3.625608 38.92188 38.994141v-2c0-35.368533-3.62515-38.994141-38.92188-38.994141z" fill="#fff" opacity=".3"/>
  <path d="m78.260818 239.17477c-35.296731 0-39.094875-3.62603-38.921885-38.99414v-2c-.17299 35.36811 3.625154 38.99414 38.921885 38.99414h98.156242c35.29673 0 38.92188-3.62561 38.92188-38.99414v2c0 35.36853-3.62515 38.99414-38.92188 38.99414z" opacity=".2"/>
  <path d="m127.33354 15.174765v224.000005h49.07227c35.29673 0 39.09486-3.62602 38.92187-38.99414v-73.00586-73.005864c.17299-35.368112-3.62514-38.994141-38.92187-38.994141z" fill="#fff" opacity=".2"/>
  <path d="m71.914518 47.247895-19.73348 52.00026h-4.8475v3.999985h13.99986v-3.999985h-4.48214l4.67576-12.0084h23.20152l4.67022 12.0084h-6.05522v3.999985h20.082502v-3.999985h-5.540002l-19.73902-52.00026zm1.21326 9.0025 10.21576 27.00611h-20.25978z" fill="#5d5d5d"/>
  <g fill="#e3dfd5" fill-opacity=".996078">
    <path d="m111.33354 51.248994v4h96v-4z"/>
    <path d="m111.33354 67.248995v4h96v-4z"/>
    <path d="m111.33354 83.174775v3.99999h96v-3.99999z"/>
    <path d="m111.33354 99.174765v4.000005h96v-4.000005z"/>
    <path d="m47.333538 115.17477v4l160.000002.0742v-4z"/>
    <path d="m47.333538 131.17477v4h160.000002v-4z"/>
    <path d="m47.333538 147.17477v4h160.000002v-4z"/>
    <path d="m47.333538 163.17477v4l160.000002.0742v-4z"/>
    <path d="m47.333538 179.17477v4h160.000002v-4z"/>
    <path d="m47.333538 195.17477v4h132.000002v-4z"/>
  </g>
  <path d="m39.33 139.18h176.05v4h-176.05z" fill="#f00"/>
  <path d="m39.33 107.17h176.05v32h-176.05z" fill="url(#linearGradient1188)" opacity=".4"/>
  <path d="m39.33-175.18h176.05v32h-176.05z" fill="url(#linearGradient1188-6)" opacity=".4" transform="scale(1 -1)"/>
  <path d="m39.327679 143.17477v57.00586c0 35.36853 3.625159 38.99414 38.921879 38.99414h98.156252c35.29673 0 39.09486-3.62602 38.92187-38.99414v-57.00586z" opacity=".45"/>
</svg>
