<svg id="svg144" enable-background="new" height="256" viewBox="0 0 256 256" width="256" xmlns="http://www.w3.org/2000/svg" xmlns:xlink="http://www.w3.org/1999/xlink">
  <linearGradient id="linearGradient4358" gradientUnits="userSpaceOnUse" x1="88" x2="488" y1="88" y2="488">
    <stop id="stop4362" offset="0" stop-opacity=".588235"/>
    <stop id="stop4366" offset="1" stop-opacity=".205556"/>
  </linearGradient>
  <filter id="filter4380" color-interpolation-filters="sRGB" height="1.088" width="1.106" x="-.05" y="-.04">
    <feGaussianBlur id="feGaussianBlur4382" stdDeviation="8.48"/>
  </filter>
  <filter id="filter4346" color-interpolation-filters="sRGB" height="1.022" width="1.026" x="-.01" y="-.01">
    <feGaussianBlur id="feGaussianBlur4348" stdDeviation="2.12"/>
  </filter>
  <linearGradient id="linearGradient4906" gradientUnits="userSpaceOnUse" x1="103.57304" x2="100.86655" y1="24.123613" y2="225.88632">
    <stop id="stop4908" offset="0" stop-color="#48cac2"/>
    <stop id="stop4910" offset=".483" stop-color="#48cac2"/>
    <stop id="stop4912" offset="1" stop-color="#48cac2"/>
  </linearGradient>
  <filter id="filter4944" color-interpolation-filters="sRGB" height="1.022299" width="1.025982" x="-.012991" y="-.011149">
    <feGaussianBlur id="feGaussianBlur4946" stdDeviation=".064791688"/>
  </filter>
  <filter id="filter4970" color-interpolation-filters="sRGB" height="1.089195" width="1.103929" x="-.051965" y="-.044597">
    <feGaussianBlur id="feGaussianBlur4972" stdDeviation=".1555313"/>
  </filter>
  <path id="path72" d="m141.84323 74c-70.59344 0-78.18921 7.250835-77.84323 77.98706v146.01294 146.01294c-.34598 70.73623 7.24979 77.98706 77.84323 77.98706h292.31354c70.59344 0 79.78033-7.27652 77.84323-77.98706v-146.01294-146.01294c0-70.737067-7.24979-77.98706-77.84323-77.98706z" filter="url(#filter4346)" opacity=".1" transform="matrix(.5 0 0 .5 -14.116488 -20.825537)"/>
  <path id="path74" d="m141.84323 74c-70.59344 0-78.18921 7.250835-77.84323 77.98706v146.01294 146.01294c-.34598 70.73623 7.24979 77.98706 77.84323 77.98706h292.31354c70.59344 0 79.78033-7.27652 77.84323-77.98706v-146.01294-146.01294c0-70.737067-7.24979-77.98706-77.84323-77.98706z" fill="url(#linearGradient4358)" filter="url(#filter4380)" opacity=".3" transform="matrix(.5 0 0 .5 -14.116488 -20.825235)"/>
  <path id="path76" d="m55.695112 13.174463c-36.098811 0-39.983003 3.69016-39.806081 39.68984v74.310167 74.31016c-.176922 35.99969 3.70727 39.68984 39.806081 39.68984h148.387318c36.09881 0 40.77464-3.70276 39.80608-39.68984v-74.31016-74.310167c0-36.00011-3.70727-39.68984-39.80608-39.68984z" opacity=".1"/>
  <path id="path78" d="m202.95648 15.174459c35.29673 0 39.09461 3.62542 38.92162 38.99353v73.006471 73.00648c.17299 35.36812-3.62489 38.99353-38.92162 38.99353h-146.15675c-35.29671 0-38.92161-3.625-38.92161-38.99353v-73.00648-73.006471c0-35.36853 3.6249-38.99353 38.92161-38.99353z" fill="url(#linearGradient4906)"/>
  <path id="path80" d="m17.877653 127.17477v8 65.00586c0 35.36853 3.625165 38.99414 38.921875 38.99414h146.156252c35.29673 0 39.09486-3.62602 38.92187-38.99414v-65.00586-8z" fill="#fff" opacity=".1"/>
  <path id="path140" d="m56.805392 15.174463c-35.296728 0-39.09487 3.62603-38.92188 38.99414v2c-.17299-35.36811 3.625152-38.99414 38.92188-38.99414h146.156238c35.29673 0 38.92188 3.62561 38.92188 38.99414v-2c0-35.36853-3.62515-38.99414-38.92188-38.99414z" fill="#fff" opacity=".3"/>
  <path id="path142" d="m56.810792 239.17447c-35.296731 0-39.094875-3.62603-38.921885-38.99414v-2c-.17299 35.36811 3.625154 38.99414 38.921885 38.99414h146.156238c35.29673 0 38.92188-3.62561 38.92188-38.99414v2c0 35.36853-3.62515 38.99414-38.92188 38.99414z" opacity=".2"/>
  <path id="path4927" d="m837.5 445c-.5 0-.5.5-.5.5s0 .5.5.5h.5l.018 2.877a1 1 0 0 1 -.159.539c-.132.208-.235.367-.416.678-.267.46-.598 1.048-.959 1.693a514.53 514.53 0 0 0 -2.199 3.986c-.386.708-.383 1.677.203 2.407l.022.027c.422.563 1.12.74 1.818.74h7.348c.7 0 1.4-.176 1.822-.74l.022-.027c.584-.729.586-1.699.199-2.407l-.022-.039c-1.123-2.287-2.428-4.128-3.558-6.39a1 1 0 0 1 -.106-.448l-.033-2.896h.5c.5 0 .5-.5.5-.5s0-.5-.5-.5zm1.518 1.047h2.015v3.107a1 1 0 0 0 .102.44c1.201 2.457 2.573 4.343 3.685 6.617a.807.807 0 0 0 .02.04c.24.44.254.884-.1 1.315l-.035.045c-.144.199-.489.336-1.03.336h-7.347c-.54 0-.885-.137-1.03-.336a.912.912 0 0 0 -.032-.045c-.354-.431-.342-.875-.102-1.314a513.045 513.045 0 0 1 2.193-3.977c.359-.641.688-1.227.952-1.681.263-.454.49-.813.517-.85a1 1 0 0 0 .192-.59z" filter="url(#filter4944)" opacity=".2" transform="matrix(10.75500114163 0 0 10.75500114163 -8904.349350712 -4733.801043704)"/>
  <g id="g4952" filter="url(#filter4970)" transform="matrix(17.9214 0 0 17.9214 -296.60989 -18.853466)">
    <path id="path4948" d="m837.5 445c-.5 0-.5.5-.5.5s0 .5.5.5h.5l.018 2.877a1 1 0 0 1 -.159.539c-.132.208-.235.367-.416.678-.267.46-.598 1.048-.959 1.693a514.53 514.53 0 0 0 -2.199 3.986c-.386.708-.383 1.677.203 2.407l.022.027c.422.563 1.12.74 1.818.74h7.348c.7 0 1.4-.176 1.822-.74l.022-.027c.584-.729.586-1.699.199-2.407l-.022-.039c-1.123-2.287-2.428-4.128-3.558-6.39a1 1 0 0 1 -.106-.448l-.033-2.896h.5c.5 0 .5-.5.5-.5s0-.5-.5-.5zm1.518 1.047h2.015v3.107a1 1 0 0 0 .102.44c1.201 2.457 2.573 4.343 3.685 6.617a.807.807 0 0 0 .02.04c.24.44.254.884-.1 1.315l-.035.045c-.144.199-.489.336-1.03.336h-7.347c-.54 0-.885-.137-1.03-.336a.912.912 0 0 0 -.032-.045c-.354-.431-.342-.875-.102-1.314a513.045 513.045 0 0 1 2.193-3.977c.359-.641.688-1.227.952-1.681.263-.454.49-.813.517-.85a1 1 0 0 0 .192-.59z" filter="url(#filter4944)" opacity=".2" transform="matrix(.60012059 0 0 .60012059 -480.30508 -263.09036)"/>
  </g>
  <g id="g896" fill="#faf8f6" transform="matrix(10.75500114163 0 0 10.75500114163 -8904.349350712 -4733.801043704)">
    <path id="path892" d="m837.5 445c-.5 0-.5.5-.5.5s0 .5.5.5h.5l.018 2.877a1 1 0 0 1 -.159.539c-.132.208-.235.367-.416.678-.267.46-.598 1.048-.959 1.693a514.53 514.53 0 0 0 -2.199 3.986c-.386.708-.383 1.677.203 2.407l.022.027c.422.563 1.12.74 1.818.74h7.348c.7 0 1.4-.176 1.822-.74l.022-.027c.584-.729.586-1.699.199-2.407l-.022-.039c-1.123-2.287-2.428-4.128-3.558-6.39a1 1 0 0 1 -.106-.448l-.033-2.896h.5c.5 0 .5-.5.5-.5s0-.5-.5-.5zm1.518 1.047h2.015v3.107a1 1 0 0 0 .102.44c1.201 2.457 2.573 4.343 3.685 6.617a.807.807 0 0 0 .02.04c.24.44.254.884-.1 1.315l-.035.045c-.144.199-.489.336-1.03.336h-7.347c-.54 0-.885-.137-1.03-.336a.912.912 0 0 0 -.032-.045c-.354-.431-.342-.875-.102-1.314a513.045 513.045 0 0 1 2.193-3.977c.359-.641.688-1.227.952-1.681.263-.454.49-.813.517-.85a1 1 0 0 0 .192-.59z" fill="#faf8f6"/>
    <path id="path894" d="m838.219 453.001-2.219 3.999h8l-2.219-3.999z" fill="#000" opacity=".4"/>
  </g>
</svg>
