<svg enable-background="new" height="256" viewBox="0 0 256 256" width="256" xmlns="http://www.w3.org/2000/svg" xmlns:xlink="http://www.w3.org/1999/xlink"><filter id="a" color-interpolation-filters="sRGB" height="1.24" width="1.24" x="-.12" y="-.12"><feGaussianBlur stdDeviation=".6"/></filter><filter id="b" color-interpolation-filters="sRGB" height="1.21" width="1.28" x="-.14" y="-.1"><feGaussianBlur stdDeviation=".7"/></filter><filter id="c" color-interpolation-filters="sRGB" height="1.148" width="1.64" x="-.32" y="-.07"><feGaussianBlur stdDeviation="1.6"/></filter><linearGradient id="d" gradientTransform="matrix(5.6622862 0 0 7.295493 195.00389 -52.841442)" gradientUnits="userSpaceOnUse" x1="-11.986" x2="-11.986" y1="11.5" y2="28.977"><stop offset="0" stop-color="#1463a5"/><stop offset="1" stop-color="#37a6e6"/></linearGradient><linearGradient id="e" gradientUnits="userSpaceOnUse" x1="88" x2="488" y1="88" y2="488"><stop offset="0" stop-opacity=".588235"/><stop offset="1" stop-opacity=".205556"/></linearGradient><filter id="f" color-interpolation-filters="sRGB" height="1.088" width="1.106" x="-.05" y="-.04"><feGaussianBlur stdDeviation="8.48"/></filter><filter id="g" color-interpolation-filters="sRGB" height="1.022" width="1.026" x="-.01" y="-.01"><feGaussianBlur stdDeviation="2.12"/></filter><path d="m141.84323 74c-70.59344 0-78.18921 7.250835-77.84323 77.98706v146.01294 146.01294c-.34598 70.73623 7.24979 77.98706 77.84323 77.98706h292.31354c70.59344 0 79.78033-7.27652 77.84323-77.98706v-146.01294-146.01294c0-70.737067-7.24979-77.98706-77.84323-77.98706z" filter="url(#g)" opacity=".1" transform="matrix(.5 0 0 .5 -16.116488 -18.825537)"/><path d="m141.84323 74c-70.59344 0-78.18921 7.250835-77.84323 77.98706v146.01294 146.01294c-.34598 70.73623 7.24979 77.98706 77.84323 77.98706h292.31354c70.59344 0 79.78033-7.27652 77.84323-77.98706v-146.01294-146.01294c0-70.737067-7.24979-77.98706-77.84323-77.98706z" fill="url(#e)" filter="url(#f)" opacity=".3" transform="matrix(.5 0 0 .5 -16.116488 -18.825235)"/><path d="m53.695112 15.174464c-36.09881 0-39.983002 3.690159-39.80608 39.689839v74.310167 74.31016c-.176922 35.99969 3.70727 39.68984 39.80608 39.68984h148.387318c36.09881 0 40.77464-3.70276 39.80608-39.68984v-74.31016-74.310167c0-36.00011-3.70727-39.689839-39.80608-39.689839z" opacity=".2"/><path d="m27.97 31.06h198.333v175.092h-198.333z" fill="url(#d)" transform="matrix(.99999853 -.0017118 .0017118 .99999853 0 0)"/><path d="m104.80228 140.31414a43.770194 43.77299 0 0 0 -43.692898 43.85039 43.770194 43.77299 0 0 0 2.38235 13.99178h82.788158a43.770194 43.77299 0 0 0 2.36998-14.14648 43.770194 43.77299 0 0 0 -43.84759-43.69569z" fill="#aee3f8"/><path d="m90.915142 17.175016c-35.8251-.000002-56.50198 2.5245-68.265629 13.781249l210.468747 196.437505c12.09195-11.57041 14.76563-32.36665 14.76563-69.15625v-58.125c0-72.580884-10.38261-82.937507-83.03125-82.937504z" fill="#faf8f6" opacity=".07"/><path d="m27.88 185.18h200v20h-200z" fill="#020b12"/><path d="m104.80186 140.31369a43.770194 43.77299 0 0 0 -43.693358 43.85156 43.770194 43.77299 0 0 0 .0137.2461 43.770194 43.77299 0 0 1 43.679688-43.44727 43.770194 43.77299 0 0 1 43.83984 43.54883 43.770194 43.77299 0 0 0 .008-.50391 43.770194 43.77299 0 0 0 -43.84765-43.69531z" fill="#fff"/><path d="m119.88389 133.17502h24v52l-5.01189 2-10.60661-2h-4.3815z" fill="#020b12"/><path d="m127.88389 133.17502v52h5v-50zm7 4v48l5-4v-48z" filter="url(#c)" opacity=".4"/><path d="m111.88389 85.175015 24 48.000005h-20l-12-52.000005z" fill="#020b12"/><path d="m119.88389 133.17502v52l12 2-4-54zm16 0v54l8-2v-52z" fill="#051a2d"/><path d="m131.88389 187.17502-4-54h-1l4 53.8z" fill="#fff" opacity=".1"/><path d="m207.88389 101.17502-22-2.000005-6 10.000005z" fill="#041524"/><path d="m54.799528 17.174766c-35.296715 0-38.921874 3.62561-38.921874 38.99414v73.005864 73.00586c0 35.36853 3.625159 38.99414 38.921874 38.99414h146.156252c35.29673 0 39.09486-3.62602 38.92187-38.99414v-73.00586-73.005864c.17299-35.36811-3.62514-38.99414-38.92187-38.99414zm-6.916016 19.999999h19.970703 120.054685 19.97461c6.648 0 12 5.352 12 12v140.000005c0 6.648-5.352 12-12 12h-19.97461-120.054685-19.970703c-6.648 0-12-5.352-12-12v-16.54883-53.45117-53.451177-16.548828c0-6.648 5.352-12 12-12z" fill="#f7f7f7"/><path d="m79.883892 57.175015 31.999998 28-8 4z" fill="#041524"/><path d="m51.883892 105.17502 24-12.000005 4 12.000005z" fill="#041524"/><path d="m127.88389 133.17502h4l-8 16-4-4z" filter="url(#b)" opacity=".4"/><path d="m75.883892 93.175015 55.999998 40.000005-12 16-43.999998-48z" fill="#062036"/><path d="m136.88389 186.97502v-53.8h-1v54z" fill="#fff" opacity=".1"/><path d="m131.88389 137.17502 4-4 8 8-4 4z" filter="url(#a)" opacity=".4"/><path d="m185.88389 99.175015-54 34.000005 12 12 44-40z" fill="#062036"/><g fill="#fff"><path d="m79.883892 57.175015 2.17773 2.904297 29.822268 26.093753 22.62502 45.251945-2.62502 1.75001h1l53-33.00195 19.3496 1.75976 2.6504-.75781-22-2.000005-50.95704 32.083985-23.04296-46.083985zm-4 36-24 12.000005h1.99609l22.00391-11.001955 54.999998 39.001955h1zm-48 92.000005v.99805h91.999998v-.99805zm115.999998 0v.99805h84v-.99805z" opacity=".5"/><path d="m75.883892 94.175015 1 .8v5.200005l-1 1z" opacity=".1"/><path d="m130.88389 133.17502h1l-12 16-.6-.6z" opacity=".1"/><path d="m132.88389 133.17502h-1l12 12 .6-.5z" opacity=".1"/><path d="m185.18388 100.57502.70001-.4.35899.047 1.64101 4.953-.80001.85z" opacity=".1"/><path d="m110.48389 84.975015.7.5-7.3 3.7-.5-.7z" opacity=".1"/><path d="m54.805392 17.174464c-35.296727 0-39.094869 3.626029-38.921879 38.994139v2c-.17299-35.36811 3.625152-38.99414 38.921879-38.99414h146.156238c35.29673 0 38.92188 3.62561 38.92188 38.99414v-2c0-35.36853-3.62515-38.994139-38.92188-38.994139z" opacity=".3"/></g><path d="m54.810792 241.17447c-35.29673 0-39.094874-3.62603-38.921884-38.99414v-2c-.17299 35.36811 3.625154 38.99414 38.921884 38.99414h146.156238c35.29673 0 38.92188-3.62561 38.92188-38.99414v2c0 35.36853-3.62515 38.99414-38.92188 38.99414z" opacity=".2"/></svg>