<svg height="256" width="256" xmlns="http://www.w3.org/2000/svg" xmlns:xlink="http://www.w3.org/1999/xlink">
  <filter id="filter11191" color-interpolation-filters="sRGB" height="1.024" width="1.024" x="-.01" y="-.01">
    <feGaussianBlur stdDeviation="1.12"/>
  </filter>
  <filter id="filter11210" color-interpolation-filters="sRGB" height="1.096" width="1.096" x="-.05" y="-.05">
    <feGaussianBlur stdDeviation="4.48"/>
  </filter>
  <radialGradient id="radialGradient4404" cx="-256" cy="-256.2" gradientTransform="matrix(0 -.8333347 -.8333347 0 -267.58433 -58.538138)" gradientUnits="userSpaceOnUse" r="96">
    <stop offset="0" stop-opacity="0"/>
    <stop offset=".899" stop-opacity="0"/>
    <stop offset=".949" stop-opacity=".261658"/>
    <stop offset="1"/>
  </radialGradient>
  <circle cx="128.752" cy="127.248" filter="url(#filter11210)" opacity=".1" r="112"/>
  <circle cx="128.752" cy="125.248" filter="url(#filter11191)" opacity=".1" r="112"/>
  <circle cx="128.752" cy="123.248" opacity=".1" r="114"/>
  <g enable-background="new" transform="matrix(1.2727273 0 0 1.2727272 197.58597782765 -73.76452192532)">
    <g transform="matrix(0 -1 -1 0 0 0)">
      <circle cx="-154.796" cy="54.084" fill="#f2f2f2" r="88"/>
      <circle cx="-155.796" cy="54.084" fill="#fff" r="80"/>
      <circle cx="-154.796" cy="54.084" fill="#46444a" r="80"/>
    </g>
    <path d="m-54.08454 74.794849a80.000135 80.000135 0 0 0 -79.9993 80.000691 80.000135 80.000135 0 0 0 79.9993 80.00069 80.000135 80.000135 0 0 0 80.0007-80.00069 80.000135 80.000135 0 0 0 -80.0007-80.000691zm0 28.622581a51.37813 51.37813 0 0 1 51.3781106 51.37811 51.37813 51.37813 0 0 1 -51.3781106 51.37811 51.37813 51.37813 0 0 1 -51.37811-51.37811 51.37813 51.37813 0 0 1 51.37811-51.37811z" fill="url(#radialGradient4404)" opacity=".1"/>
    <circle cx="-154.796" cy="54.084" fill="#a7a7f1" r="64" transform="matrix(0 -1 -1 0 0 0)"/>
    <circle cx="-154.796" cy="54.084" fill="#8f76e4" r="60" transform="matrix(0 -1 -1 0 0 0)"/>
    <circle cx="-154.796" cy="54.084" fill="#8c59d9" r="40" transform="matrix(0 -1 -1 0 0 0)"/>
    <circle cx="-145.776" cy="75.002" fill="#7839b7" r="20" transform="matrix(-.1391731 -.99026807 -.99026807 .1391731 0 0)"/>
    <circle cx="-66.065" cy="138.953" fill="#fff" opacity=".3" r="6" transform="matrix(.99026807 -.1391731 .1391731 .99026807 0 0)"/>
    <circle cx="-84.136" cy="152.571" fill="#fff" opacity=".3" r="2" transform="matrix(.99026807 -.1391731 .1391731 .99026807 0 0)"/>
    <circle cx="-28.084" cy="128.796" fill="#fff" opacity=".2" r="24"/>
  </g>
  <path d="m128.752 11.248014a112 112 0 0 0 -111.999996 111.999996 112 112 0 0 0 .04102 1.16992 112 112 0 0 1 111.958976-111.169916 112 112 0 0 1 111.95898 110.830076 112 112 0 0 0 .041-.83008 112 112 0 0 0 -112-111.999996z" fill="#fff" opacity=".3"/>
  <path d="m128.752 235.24801a112 112 0 0 1 -111.999996-112 112 112 0 0 1 .04102-1.16992 112 112 0 0 0 111.958976 111.16992 112 112 0 0 0 111.95898-110.83008 112 112 0 0 1 .041.83008 112 112 0 0 1 -112 112z" opacity=".2"/>
</svg>
