<svg height="256" width="256" xmlns="http://www.w3.org/2000/svg" xmlns:xlink="http://www.w3.org/1999/xlink"><linearGradient id="a" gradientUnits="userSpaceOnUse" x1="88" x2="488" y1="88" y2="488"><stop offset="0" stop-opacity=".588235"/><stop offset="1" stop-opacity=".205556"/></linearGradient><filter id="b" color-interpolation-filters="sRGB" height="1.088" width="1.106" x="-.05" y="-.04"><feGaussianBlur stdDeviation="8.48"/></filter><filter id="c" color-interpolation-filters="sRGB" height="1.022" width="1.026" x="-.01" y="-.01"><feGaussianBlur stdDeviation="2.12"/></filter><path d="m141.84323 74c-70.59344 0-78.18921 7.250835-77.84323 77.98706v146.01294 146.01294c-.34598 70.73623 7.24979 77.98706 77.84323 77.98706h292.31354c70.59344 0 79.78033-7.27652 77.84323-77.98706v-146.01294-146.01294c0-70.737067-7.24979-77.98706-77.84323-77.98706z" filter="url(#c)" opacity=".1" transform="matrix(.5 0 0 .5 -16.116488 -20.825537)"/><path d="m141.84323 74c-70.59344 0-78.18921 7.250835-77.84323 77.98706v146.01294 146.01294c-.34598 70.73623 7.24979 77.98706 77.84323 77.98706h292.31354c70.59344 0 79.78033-7.27652 77.84323-77.98706v-146.01294-146.01294c0-70.737067-7.24979-77.98706-77.84323-77.98706z" fill="url(#a)" filter="url(#b)" opacity=".3" transform="matrix(.5 0 0 .5 -16.116488 -20.825235)"/><path d="m53.695112 13.174464c-36.098811 0-39.983002 3.690159-39.80608 39.689839v74.310167 74.31016c-.176922 35.99969 3.707269 39.68984 39.80608 39.68984h148.387318c36.09881 0 40.77464-3.70276 39.80608-39.68984v-74.31016-74.310167c0-36.00011-3.70727-39.689839-39.80608-39.689839z" opacity=".2"/><path d="m23.061443 81.219604h136.69936v141.32191h-136.69936z" fill="#f4f1ef" stroke="#f4f1ef" stroke-width="12.894337" transform="matrix(.95829574 -.28577835 .26579878 .96402853 0 0)"/><path d="m15.94797 70.326808v56.847652 76.40039c.02639 2.95297.04031 5.95302.160156 8.4375.168065 3.48402.448847 6.52679.894532 9.18359s1.057763 4.92582 1.890625 6.86524c.416431.96971.888108 1.85701 1.421875 2.66797.533767.81095 1.128172 1.54695 1.792968 2.21289.664798.66593 1.399462 1.26223 2.208985 1.79687.809522.53464 1.694167 1.00675 2.662109 1.42383 1.578988.68037 3.543297 1.12738 5.591797 1.54297 17.102355-4.73871 33.58439-13.02474 48.658203-29.36914l-22.378906-81.16211-15.1875-55.085933c-9.830972-1.155668-18.839146-1.52033-27.714844-1.761719z" fill="#48c39e"/><path d="m78.276338 239.54943h49.689452 73.01562c4.41209 0 8.33098-.0564 11.8125-.22461s6.52512-.44828 9.18359-.89453c2.65848-.44626 4.93204-1.05845 6.875-1.89258.97149-.41707 1.86107-.8892 2.67383-1.42383.81277-.53463 1.54931-1.13095 2.2168-1.79687s1.26512-1.40195 1.80078-2.21289c.53566-.81095 1.00851-1.69828 1.42578-2.66797.83454-1.93939 1.44706-4.20848 1.88867-6.86524.44162-2.65676.71291-5.69962.86914-9.18359.0335-.74661.0137-1.7475.0371-2.53516-4.45917-14.88387-12.41248-28.85703-27.5078-40.97656h-.004l-131.001853 39.07031c-2.573415 10.94776-3.212197 21.389-2.974609 31.60352z" fill="#d81768"/><path d="m239.88547 171.31704v-44.14258-73.005855c.0216-4.421014-.0195-8.346107-.17579-11.830078-.15623-3.483972-.42752-6.526832-.86914-9.183594-.44161-2.656762-1.05413-4.927802-1.88867-6.867188-.41727-.969692-.89012-1.857026-1.42578-2.667968-.53566-.810943-1.13329-1.545017-1.80078-2.210938s-1.40403-1.262246-2.2168-1.796875c-.81276-.534629-1.70234-1.006762-2.67383-1.423828-1.94296-.834132-4.21652-1.448276-6.875-1.894531-2.65847-.446255-5.70207-.726321-9.18359-.894531-3.48152-.168211-7.40041-.22461-11.8125-.22461h-8.76562c-6.77928 4.447615-12.79103 10.035101-17.5293 17.517578l37.57031 136.246088c9.66564 2.07524 18.76236 2.53521 27.64649 2.37891z" fill="#ecb524"/><path d="m54.805392 15.174464c-4.412089 0-8.327564.05641-11.804687.22461-3.477124.1682-6.514299.448292-9.166016.894531-2.651717.446238-4.9196 1.060416-6.855469 1.894531-.967934.417057-1.852595.889207-2.662109 1.423828s-1.542242 1.130961-2.207031 1.796875c-.66479.665915-1.261163 1.4-1.794922 2.210938-.411891.625784-.756569 1.339206-1.097656 2.058593 6.307051 15.775566 14.377212 31.232775 24.445312 46.335938l131.001946-39.072266c2.39764-6.286485 3.73452-12.111823 4.67774-17.767578z" fill="#81d2e0"/><path d="m18.504611 226.65102c.153045.42728.217415 1.01332.388672 1.41211.416423.96969.888116 1.85508 1.421875 2.66602.533759.81093 1.130132 1.54697 1.794922 2.21289.664789.66591 1.397517 1.26225 2.207031 1.79687s1.694175 1.00677 2.662109 1.42383c1.935869.83411 4.203752 1.44634 6.855469 1.89258s5.688892.72633 9.166016.89453c3.477123.1682 7.392598.22461 11.804687.22461h35.042969l-8.615235-31.22852z" fill="#390f39"/><path d="m28.692111 17.71548c-.525755.181607-1.229251.264268-1.712891.472656-.967934.417057-1.852595.889207-2.662109 1.423828s-1.542242 1.130961-2.207031 1.796875c-.66479.665915-1.261163 1.4-1.794922 2.210938-.533759.810937-1.005452 1.698278-1.421875 2.667968-.832847 1.939382-1.444953 4.210416-1.890625 6.867188-.445673 2.656772-.724521 5.699594-.892578 9.183594-.121306 2.514784-.136303 5.544018-.16211 8.539062v29.40625l27.714844-8.269531z" fill="#20a48e"/><path d="m226.41086 17.520167c-1.41334-.443399-2.72997-.937638-4.45118-1.226562-2.65847-.446255-5.70207-.726321-9.18359-.894531-3.48152-.168211-7.40041-.22461-11.8125-.22461h-31.19531l4.90039 17.767578z" fill="#77971f"/><path d="m230.53976 235.25454c.31471-.17768.67431-.32195.96875-.51563.81277-.53463 1.54931-1.13095 2.2168-1.79687s1.26512-1.40195 1.80078-2.21289c.53566-.81095 1.00851-1.69828 1.42578-2.66797.83454-1.93939 1.44706-4.20848 1.88867-6.86524.44162-2.65676.71291-5.69962.86914-9.18359.15624-3.48397.19741-7.40906.17579-11.83008v-39.56641l-27.65039 8.24415z" fill="#d5100d"/><path d="m54.805392 15.174464c-35.296728 0-39.09487 3.626029-38.92188 38.994139v2c-.17299-35.36811 3.625152-38.99414 38.92188-38.99414h146.156238c35.29673 0 38.92188 3.62561 38.92188 38.99414v-2c0-35.36853-3.62515-38.994139-38.92188-38.994139z" fill="#fff" opacity=".3"/><path d="m54.810792 239.17447c-35.296731 0-39.094875-3.62603-38.921885-38.99414v-2c-.17299 35.36811 3.625154 38.99414 38.921885 38.99414h146.156238c35.29673 0 38.92188-3.62561 38.92188-38.99414v2c0 35.36853-3.62515 38.99414-38.92188 38.99414z" opacity=".2"/><g transform="translate(-9.102371 3.926562)"><path d="m170.22839 141.0995c-.00008 8.50718-2.80155 15.03036-8.40441 19.5692-5.56209 4.53992-13.78225 6.80975-24.6612 6.80975-7.52515 0-14.06885-1.2471-19.63041-3.74179-5.52123-2.49469-10.01999-6.5232-13.49652-12.08564l13.31162-10.55193c5.72231 6.40556 12.74404 8.68061 20.18295 9.27203 4.70312 0 8.36339-.79574 10.98068-2.39292 2.65825-1.63492 4.17579-2.33899 4.17588-5.65185-.00009-1.88069-.65902-3.4553-1.59934-4.72379-.89988-1.26715-2.26983-2.35137-4.11019-3.25095-1.84042-.94114-5.03041-2.0037-9.56973-3.19-4.41685-1.18686-10.35862-2.37161-14.2848-3.55786-3.88522-1.22707-7.25928-2.80146-10.12172-4.72379-2.82191-1.92231-5.05069-4.33559-6.68671-7.23884-1.63576-2.90414-2.45379-6.5638-2.45379-10.98154 0-8.05614 2.71961-14.33421 8.15903-18.83247 5.43939-4.5399 15.00046-6.80975 25.14342-6.80975 14.68189 0 25.06989 5.03086 31.16396 15.09137l-13.18955 8.53744c-2.33113-3.59863-4.94862-6.17542-7.85234-7.72981-2.90371-1.55299-6.35945-2.33089-10.36765-2.33089-8.67197.11695-13.77639 2.25212-15.32793 10.34378 0 2.74059 1.30861 5.28913 3.92616 6.76103 2.61748 1.43104 8.9477 2.88389 15.45074 4.35585 3.59884.94115 7.15695 1.96312 10.67373 3.0671 3.5171 1.0632 6.6458 2.55638 9.38569 4.47866 2.78106 1.92231 5.00993 4.43727 6.68681 7.54501 1.6767 3.10831 2.51513 7.0962 2.51521 11.9626" fill="#5a3856"/><path d="m137.16297 79.017419c-10.14296 0-19.70319 2.270647-25.14258 6.810547-5.43941 4.49826-8.16016 10.775894-8.16016 18.832034 0 .32734.0144.64192.0234.96094.22671-7.55685 2.93435-13.49074 8.13672-17.792974 5.43939-4.5399 14.99962-6.810547 25.14258-6.810547 13.97603 0 24.05198 4.569087 30.24609 13.685547l.91797-.59375c-6.09403-10.06051-16.48213-15.091797-31.16402-15.091797zm-15.43945 25.324221c-.0439.19751-.0954.38279-.13477.58789 0 2.74059 1.31019 5.28982 3.92774 6.76172 2.61748 1.43104 8.94617 2.88351 15.44921 4.35547 3.59884.94115 7.15705 1.96242 10.67383 3.0664 3.5171 1.0632 6.64683 2.55624 9.38672 4.47852 2.78106 1.92231 5.00867 4.43718 6.68555 7.54492 1.5649 2.90106 2.38972 6.57914 2.49414 11.01172.01-.34779.0215-.69414.0215-1.04883-.00008-4.8664-.83892-8.85458-2.51562-11.96289-1.67688-3.10774-3.90449-5.62261-6.68555-7.54492-2.73989-1.92228-5.86962-3.41532-9.38672-4.47852-3.51678-1.10398-7.07499-2.12525-10.67383-3.0664-6.50304-1.47196-12.83173-2.92443-15.44921-4.35547-2.1598-1.2145-3.41531-3.16604-3.79297-5.34961zm-4.37696 36.75781-13.31055 10.55078c.2816.45055.58.87622.875 1.30664l12.43555-9.85742c5.72231 6.40556 12.74469 8.68006 20.1836 9.27149 4.70312 0 8.36318-.7954 10.98047-2.39258 2.65825-1.63492 4.17569-2.33949 4.17578-5.65235-.00002-.33007-.0259-.64776-.0645-.95898-.30559 2.43919-1.76001 3.16518-4.11132 4.61133-2.61729 1.59718-6.27735 2.39258-10.98047 2.39258-7.43891-.59143-14.46129-2.86593-20.1836-9.27149z" fill="#f8f8f8" opacity=".3"/><path d="m136.91688 90.585779c-8.67197.11695-13.77659 2.25209-15.32813 10.343751 0 .47927.0547.94932.13477 1.41211 1.68776-7.594724 6.74119-9.641876 15.19336-9.755861 4.0082 0 7.46543.777088 10.36914 2.330078 2.90372 1.554393 5.52043 4.131843 7.85156 7.730473l13.18945-8.537114c-.29298-.483678-.60513-.945822-.91797-1.40625l-12.27148 7.943364c-2.33113-3.59863-4.94784-6.176083-7.85156-7.730473-2.90371-1.55299-6.36094-2.330078-10.36914-2.330078zm-33.03321 13.035161c-.0103.34431-.0234.68799-.0234 1.03906 0 4.41774.81932 8.07633 2.45508 10.98047 1.63601 2.90325 3.86363 5.31792 6.68554 7.24023 2.86244 1.92233 6.23587 3.49559 10.12109 4.72266 3.92618 1.18625 9.86831 2.37173 14.28516 3.55859 4.53932 1.1863 7.72989 2.24831 9.57031 3.18945 1.84036.89958 3.2095 1.98481 4.10938 3.25196.77529 1.04585 1.35399 2.30163 1.53515 3.76367.0399-.31841.0644-.6585.0645-1.04102-.00009-1.88069-.65929-3.45417-1.59961-4.72265-.89988-1.26715-2.26902-2.35238-4.10938-3.25196-1.84042-.94114-5.03099-2.00315-9.57031-3.18945-4.41685-1.18686-10.35898-2.37234-14.28516-3.55859-3.88522-1.22707-7.25865-2.80033-10.12109-4.72266-2.82191-1.92231-5.04953-4.33698-6.68554-7.24023-1.51456-2.68896-2.3194-6.03314-2.43164-10.01953zm66.32227 36.52734c-.22394 7.99394-3.01355 14.16993-8.38281 18.51953-5.56209 4.53992-13.78121 6.81055-24.66016 6.81055-7.52515 0-14.0693-1.2475-19.63086-3.74219-5.07402-2.29263-9.27398-5.89577-12.6211-10.7793l-.875.69336c3.47653 5.56244 7.97487 9.59125 13.4961 12.08594 5.56156 2.49469 12.10571 3.74219 19.63086 3.74219 10.87895 0 19.09807-2.27063 24.66016-6.81055 5.60286-4.53884 8.40421-11.06118 8.40429-19.56836 0-.32448-.014-.63451-.0215-.95117z" opacity=".2"/></g></svg>