<svg enable-background="new" height="256" viewBox="0 0 256 256" width="256" xmlns="http://www.w3.org/2000/svg" xmlns:xlink="http://www.w3.org/1999/xlink">
  <linearGradient id="linearGradient982" gradientUnits="userSpaceOnUse" x1="152" x2="152" y1="124" y2="236">
    <stop offset="0"/>
    <stop offset="1" stop-opacity="0"/>
  </linearGradient>
  <filter id="filter1066" color-interpolation-filters="sRGB" height="1.08" width="1.014" x="-.01" y="-.04">
    <feGaussianBlur stdDeviation=".4"/>
  </filter>
  <filter id="filter1062-3" color-interpolation-filters="sRGB" height="1.024" width="1.024" x="-.01" y="-.01">
    <feGaussianBlur stdDeviation=".673"/>
  </filter>
  <clipPath id="clipPath999-7">
    <path d="m152 68c-48.60106 0-88 39.39894-88 88s39.39894 88 88 88 88-39.39894 88-88-39.39894-88-88-88z"/>
  </clipPath>
  <filter id="filter1003-5" color-interpolation-filters="sRGB" height="1.12" width="1.12" x="-.06" y="-.06">
    <feGaussianBlur stdDeviation="4.4"/>
  </filter>
  <filter id="filter11191" color-interpolation-filters="sRGB" height="1.024" width="1.024" x="-.01" y="-.01">
    <feGaussianBlur stdDeviation="1.12"/>
  </filter>
  <filter id="filter11210" color-interpolation-filters="sRGB" height="1.096" width="1.096" x="-.05" y="-.05">
    <feGaussianBlur stdDeviation="4.48"/>
  </filter>
  <g transform="translate(.000062 -45)">
    <circle cx="128.752" cy="172.248" filter="url(#filter11210)" opacity=".1" r="112"/>
    <circle cx="128.752" cy="170.248" filter="url(#filter11191)" opacity=".1" r="112"/>
    <circle cx="128.752" cy="168.248" opacity=".1" r="114"/>
    <circle cx="-128.752" cy="-168.248" fill="#4b4b4b" r="112" transform="scale(-1)"/>
    <circle cx="128.752" cy="-168.248" fill="#5d5d5d" r="88" transform="scale(1 -1)"/>
    <path d="m16.751936 177.9439c5.28651 57.91135 53.82538 102.25707 111.977534 102.30409 58.16938-.0238 106.73437-44.37559 112.02247-102.30409z" fill="#fff" opacity=".1"/>
    <path d="m40.751936 168.24798a88 88 0 0 1 88.000004-88 88 88 0 0 1 88 88z" opacity=".05"/>
    <path clip-path="url(#clipPath999-7)" d="m152 70c-48.60106 0-88 39.39894-88 88s39.39894 88 88 88 88-39.39894 88-88-39.39894-88-88-88z" fill="none" filter="url(#filter1003-5)" opacity=".2" stroke="url(#linearGradient982)" stroke-linejoin="round" stroke-width="10" transform="translate(-23.248064 12.24798)"/>
    <path d="m117.24803 96.248c-4.70996 9.81241-9.22355 19.756-13.54101 29.83008-4.317464 9.94324-8.702104 20.41049-13.150394 31.40039-1.66494 4.23801-3.36668 8.65932-5.07031 13.0918-1.04969 2.39777-2.22981 5.26835-4.07813 10.23242-3.0972 8.22972-6.631792 17.55233-10.087892 26.67969-1.25915 3.18508-2.64003 6.75373-4.82617 12.76562h14.718752 11.10156l12.363294-34.73633 24.33202-1.05859 24.334 1.05859 12.36327 34.73633h11.10156 14.71875c-2.18614-6.01189-3.56702-9.58054-4.82616-12.76562-3.45609-9.12736-6.9907-18.44997-10.08789-26.67969-1.84833-4.96407-3.02845-7.83465-4.07813-10.23242-1.70363-4.43248-3.40538-8.85379-5.07032-13.0918-4.44828-10.9899-8.83292-21.45715-13.15038-31.40039-4.31747-10.07409-8.83107-20.01767-13.54102-29.83008h-.39063-11.11328-.51758-11.11328zm11.76172 27.03711c.0856.19974.17424.39587.25977.5957v.15235c3.59305 7.98261 7.06728 16.24447 10.41015 24.81054 4.0558 10.59741 4.11217 9.58637 8.16797 20.96875l-18.83789.67969-18.83593-.67969c4.0558-11.38238 4.11216-10.37134 8.16796-20.96875 3.34287-8.56607 6.81711-16.82793 10.41016-24.81054v-.15235c.0854-.19959.17233-.3962.25781-.5957z" filter="url(#filter1062-3)" opacity=".1"/>
    <path d="m117.24803 94.248c-4.70996 9.81241-9.22355 19.756-13.54101 29.83008-4.317464 9.94324-8.702104 20.4105-13.150394 31.40039-1.66494 4.23801-3.36668 8.65932-5.07031 13.0918-1.04969 2.39777-2.22981 5.26836-4.07813 10.23242-3.0972 8.22972-6.631802 17.55233-10.087892 26.67969-1.25915 3.18508-2.64003 6.75373-4.82617 12.76562h14.718752 11.10156l12.363294-34.73633 24.33202-1.05859 24.334 1.05859 12.36327 34.73633h11.10156 14.71875c-2.18614-6.01189-3.56702-9.58054-4.82616-12.76562-3.45609-9.12736-6.9907-18.44997-10.08789-26.67969-1.84833-4.96406-3.02845-7.83465-4.07813-10.23242-1.70363-4.43248-3.40538-8.85379-5.07032-13.0918-4.44828-10.98989-8.83292-21.45715-13.15038-31.40039-4.31747-10.07409-8.83107-20.01767-13.54102-29.83008h-.39063-11.11328-.51758-11.11328zm11.76172 27.03711c.0856.19974.17424.39587.25977.5957v.15235c3.59305 7.98261 7.06728 16.24447 10.41015 24.81054 4.0558 10.59741 4.11217 9.58635 8.16797 20.96875l-18.83789.67969-18.83593-.67969c4.0558-11.3824 4.11216-10.37134 8.16796-20.96875 3.34287-8.56607 6.81711-16.82793 10.41016-24.81054v-.15235c.0854-.19959.17233-.3962.25781-.5957z" fill="#ebebeb"/>
    <rect filter="url(#filter1066)" height="24" opacity=".1" rx="12" width="136" x="60.75" y="168.25"/>
    <path d="m140.50975 94.59761-11.05077 27.86523c3.52501 7.85046 6.93725 15.96708 10.22069 24.38086 4.0558 10.59741 4.11217 9.58635 8.16797 20.96875l-6.35351.22852 4.40625 15.14648 7.44337.32422 12.36327 34.73633h11.10156 14.71875c-2.18614-6.01189-3.56702-9.58054-4.82616-12.76562-3.45609-9.12737-6.9907-18.44997-10.08789-26.67969-1.84833-4.96406-3.02845-7.83465-4.07813-10.23242-1.70363-4.43248-3.40538-8.85379-5.07032-13.0918-4.44828-10.98989-8.83292-21.45715-13.15038-31.40039-3.113-7.26369-6.33141-14.45625-9.64844-21.58399z" fill="#161616" opacity=".1"/>
    <rect fill="#ebebeb" height="24" rx="12" width="136" x="60.75" y="166.25"/>
    <path d="m72.751934 174.2477c-2.216 0-4 1.784-4 4s1.784 4 4 4h39.625006 32.375 40.375c2.00825 0 3.625-1.61675 3.625-3.625v-.75c0-2.00825-1.61675-3.625-3.625-3.625h-40.375-32.375z" fill="#161616" opacity=".2"/>
    <path d="m128.75194 56.24799c-24.59727.0505-48.493864 8.19703-68.000004 23.18164v16.81836h17.58789c14.76584-10.37646 32.364974-15.96214 50.412114-16 48.60106 0 88 39.39894 88 88-.0141 20.44257-7.14492 40.24249-20.16797 56h8.16797 8v8 9.86914c17.99555-20.40492 27.94847-46.66256 28-73.86914 0-61.85589-50.14411-112-112-112zm-84.000004 38.13086c-17.995551 20.40492-27.948472 46.66256-28 73.86914 0 61.85589 50.144108 112 112.000004 112 24.59727-.0505 48.49386-8.19703 68-23.18164v-16.81836h-17.58789c-14.76584 10.37646-32.36497 15.96214-50.41211 16-48.601064 0-88.000004-39.39894-88.000004-88 .01413-20.44257 7.144922-40.24249 20.167969-56h-8.167969-8v-8z" fill="#ebebeb"/>
    <rect fill="#19b6ee" height="8" rx="4" width="80" x="68.75" y="174.25"/>
    <path d="m128.75194 56.24798a112 112 0 0 0 -112.000004 112 112 112 0 0 0 .04102 1.16992 112 112 0 0 1 111.958984-111.16992 112 112 0 0 1 111.95898 110.83008 112 112 0 0 0 .041-.83008 112 112 0 0 0 -112-112z" fill="#fff" opacity=".3"/>
    <path d="m128.75194 280.24798a112 112 0 0 1 -112.000004-112 112 112 0 0 1 .04102-1.16992 112 112 0 0 0 111.958984 111.16992 112 112 0 0 0 111.95898-110.83008 112 112 0 0 1 .041.83008 112 112 0 0 1 -112 112z" opacity=".2"/>
  </g>
</svg>
