<svg enable-background="new" height="256" viewBox="0 0 256 256" width="256" xmlns="http://www.w3.org/2000/svg" xmlns:xlink="http://www.w3.org/1999/xlink"><filter id="a" color-interpolation-filters="sRGB" height="1.02397" width="1.02403" x="-.012015" y="-.011985"><feGaussianBlur stdDeviation=".08010335"/></filter><filter id="b" color-interpolation-filters="sRGB" height="1.09588" width="1.09612" x="-.04806" y="-.04794"><feGaussianBlur stdDeviation=".3204134"/></filter><filter id="c" color-interpolation-filters="sRGB" height="1.08" width="1.014118" x="-.007059" y="-.04"><feGaussianBlur stdDeviation=".4"/></filter><filter id="d" color-interpolation-filters="sRGB" height="1.023738" width="1.024268" x="-.012134" y="-.011869"><feGaussianBlur stdDeviation=".67258301"/></filter><linearGradient id="e" gradientUnits="userSpaceOnUse" x1="127.752" x2="127.752" y1="55.248" y2="207.248"><stop offset="0"/><stop offset="1" stop-opacity="0"/></linearGradient><filter id="f" color-interpolation-filters="sRGB" height="1.12" width="1.12" x="-.06" y="-.06"><feGaussianBlur stdDeviation="4.4"/></filter><filter id="g" color-interpolation-filters="sRGB" height="1.096" width="1.096" x="-.048" y="-.048"><feGaussianBlur stdDeviation="4.48"/></filter><filter id="h" color-interpolation-filters="sRGB" height="1.024" width="1.024" x="-.012" y="-.012"><feGaussianBlur stdDeviation="1.12"/></filter><circle cx="127.752" cy="128.24802" filter="url(#h)" opacity=".1" r="112"/><circle cx="127.752" cy="128.24802" filter="url(#g)" opacity=".2" r="112"/><circle cx="174.07603" cy="-47.012474" fill="#5e2750" r="88" transform="matrix(.5 .8660254 -.8660254 .5 0 0)"/><path d="m127.752 41.248004c-48.60106 0-88 39.398936-88 87.999996s39.39894 88 88 88 88-39.39894 88-88-39.39894-87.999996-88-87.999996z" style="opacity:.05;fill:none;stroke-width:10;stroke-linejoin:round;stroke:url(#e);filter:url(#f)"/><path d="m127.752 15.248014c-61.004324 0-110.612327 48.774016-111.966797 109.453116-.01891.84703-.0332 1.69531-.0332 2.54688.0016.85021.01231 1.69867.0332 2.54688 1.354473 60.6791 50.962476 109.45312 111.966797 109.45312 61.00432 0 110.61233-48.77402 111.9668-109.45312.0209-.84821.0316-1.69667.0332-2.54688-.002-.85021-.0123-1.69867-.0332-2.54688-1.35447-60.6791-50.96248-109.453116-111.9668-109.453116zm0 24c1.12795.0024 2.25504.02674 3.37891.07227 16.85795.682856 33.19022 6.199803 47.0332 15.927736h.18945c6.45218 4.54296 12.26817 9.92745 17.28321 16h-.0527c12.18989 14.74941 19.21533 33.04119 20.07617 52.08593.004.0825.006.16544.01.24804.0517 1.21946.0812 2.44122.082 3.66602-.00084 1.2248-.0304 2.44656-.082 3.66602-.003.0826-.006.1655-.01.24804-.86084 19.04475-7.88628 37.33653-20.07617 52.08594h.0527c-5.01504 6.07255-10.83103 11.45704-17.28321 16h-.18945c-13.84298 9.72793-30.17525 15.24488-47.0332 15.92773-1.12387.0455-2.25096.0699-3.37891.0723-1.12795-.002-2.25504-.0267-3.37891-.0723-16.85795-.68285-33.19022-6.1998-47.0332-15.92773h-.18945c-6.452178-4.54296-12.268169-9.92745-17.283206-16h.05273c-12.18989-14.74941-19.215325-33.04119-20.076172-52.08594-.0036-.0825-.0064-.16544-.0098-.24804-.05164-1.21946-.08115-2.44122-.08199-3.66602.000845-1.2248.03036-2.44656.08203-3.66602.0034-.0826.0062-.1655.0098-.24804.860812-19.04475 7.886247-37.33653 20.076137-52.08594h-.05273c5.015032-6.07254 10.831023-11.45703 17.283201-16h.18945c13.84298-9.727927 30.17525-15.244874 47.0332-15.92773 1.12387-.04552 2.25096-.0699 3.37891-.07227z" fill="#ebebeb"/><path d="m127.752 15.248014a112 112 0 0 0 -112 111.999996 112 112 0 0 0 .04102 1.16992 112 112 0 0 1 111.95898-111.169916 112 112 0 0 1 111.95898 110.830076 112 112 0 0 0 .041-.83008 112 112 0 0 0 -112-111.999996z" fill="#fff" opacity=".3"/><path d="m127.752 239.24801a112 112 0 0 1 -112-112 112 112 0 0 1 .04102-1.16992 112 112 0 0 0 111.95898 111.16992 112 112 0 0 0 111.95898-110.83008 112 112 0 0 1 .041.83008 112 112 0 0 1 -112 112z" opacity=".2"/><path d="m215.73636 127.97653c-.18121 20.18358-7.28435 39.70158-20.15235 55.27148h1.58008c12.0087-15.41844 18.57438-34.40846 18.58789-54 0-.42507-.01-.84784-.0156-1.27148z" fill="#fff" opacity=".3"/><path d="m15.752 136.94391c5.28651 57.91136 53.82538 102.25708 111.97754 102.3041 58.16937-.0238 106.73436-44.37559 112.02246-102.3041z" fill="#fff" opacity=".1"/><path d="m116.24807 55.24802c-4.70996 9.81241-9.22355 19.756-13.54101 29.83008-4.31746 9.94324-8.7021 20.41049-13.15039 31.40039-1.66494 4.23801-3.36668 8.65932-5.07031 13.0918-1.04969 2.39777-2.22981 5.26835-4.07813 10.23242-3.0972 8.22972-6.63179 17.55233-10.08789 26.67969-1.25915 3.18508-2.64003 6.75373-4.82617 12.76562h14.71875 11.10156l12.36329-34.73633 24.33202-1.05859 24.334 1.05859 12.36327 34.73633h11.10156 14.71875c-2.18614-6.01189-3.56702-9.58054-4.82616-12.76562-3.45609-9.12736-6.9907-18.44997-10.08789-26.67969-1.84833-4.96407-3.02845-7.83465-4.07813-10.23242-1.70363-4.43248-3.40538-8.85379-5.07032-13.0918-4.44828-10.9899-8.83292-21.45715-13.15038-31.40039-4.31747-10.07409-8.83107-20.01767-13.54102-29.83008h-.39063-11.11328-.51758-11.11328zm11.76172 27.03711c.0856.19974.17424.39587.25977.5957v.15235c3.59305 7.98261 7.06728 16.24447 10.41015 24.81054 4.0558 10.59741 4.11217 9.58637 8.16797 20.96875l-18.83789.67969-18.83593-.67969c4.0558-11.38238 4.11216-10.37134 8.16796-20.96875 3.34287-8.56607 6.81711-16.82793 10.41016-24.81054v-.15235c.0854-.19959.17233-.3962.25781-.5957z" filter="url(#d)" opacity=".1"/><path d="m116.24807 53.24802c-4.70996 9.81241-9.22355 19.756-13.54101 29.83008-4.31746 9.94324-8.7021 20.4105-13.15039 31.40039-1.66494 4.23801-3.36668 8.65932-5.07031 13.0918-1.04969 2.39777-2.22981 5.26836-4.07813 10.23242-3.0972 8.22972-6.6318 17.55233-10.08789 26.67969-1.25915 3.18508-2.64003 6.75373-4.82617 12.76562h14.71875 11.10156l12.36329-34.73633 24.33202-1.05859 24.334 1.05859 12.36327 34.73633h11.10156 14.71875c-2.18614-6.01189-3.56702-9.58054-4.82616-12.76562-3.45609-9.12736-6.9907-18.44997-10.08789-26.67969-1.84833-4.96406-3.02845-7.83465-4.07813-10.23242-1.70363-4.43248-3.40538-8.85379-5.07032-13.0918-4.44828-10.98989-8.83292-21.45715-13.15038-31.40039-4.31747-10.07409-8.83107-20.01767-13.54102-29.83008h-.39063-11.11328-.51758-11.11328zm11.76172 27.03711c.0856.19974.17424.39587.25977.5957v.15235c3.59305 7.98261 7.06728 16.24447 10.41015 24.81054 4.0558 10.59741 4.11217 9.58635 8.16797 20.96875l-18.83789.67969-18.83593-.67969c4.0558-11.3824 4.11216-10.37134 8.16796-20.96875 3.34287-8.56607 6.81711-16.82793 10.41016-24.81054v-.15235c.0854-.19959.17233-.3962.25781-.5957z" fill="#ebebeb"/><rect filter="url(#c)" height="24" opacity=".1" rx="12" width="136" x="59.751991" y="127.24801"/><path d="m139.50979 53.59763-11.05077 27.86523c3.52501 7.85046 6.93725 15.96708 10.22069 24.38086 4.0558 10.59741 4.11217 9.58635 8.16797 20.96875l-6.35351.22852 4.40625 15.14648 7.44337.32422 12.36327 34.73633h11.10156 14.71875c-2.18614-6.01189-3.56702-9.58054-4.82616-12.76562-3.45609-9.12737-6.9907-18.44997-10.08789-26.67969-1.84833-4.96406-3.02845-7.83465-4.07813-10.23242-1.70363-4.43248-3.40538-8.85379-5.07032-13.0918-4.44828-10.98989-8.83292-21.45715-13.15038-31.40039-3.113-7.26369-6.33141-14.45625-9.64844-21.58399z" fill="#c43ac4" opacity=".2"/><rect fill="#ebebeb" height="24" rx="12" width="136" x="59.751991" y="125.24801"/><path d="m71.75198 133.24772c-2.216 0-4 1.784-4 4s1.784 4 4 4h39.625 32.375 40.375c2.00825 0 3.625-1.61675 3.625-3.625v-.75c0-2.00825-1.61675-3.625-3.625-3.625h-40.375-32.375z" fill="#999"/><rect fill="#924d8b" height="8" rx="4" ry="3.823223" width="80" x="67.751999" y="133.23254"/><path d="m147.75177 130.20687c-4.35729 0-7.90059 3.49271-7.99733 7.83795-.001.0607-.003.12133-.003.18238.00011.0609.0009.1216.003.18238.0968 4.34524 3.64004 7.83797 7.99733 7.83797 4.3573 0 7.90059-3.49273 7.99733-7.83797.001-.0607.003-.12146.003-.18238-.00011-.0609-.00089-.12159-.003-.18238-.0968-4.34524-3.64003-7.83795-7.99733-7.83795z" filter="url(#b)" opacity=".2"/><path d="m147.75177 130.20687c-4.35729 0-7.90059 3.49271-7.99733 7.83795-.001.0607-.003.12133-.003.18238.00011.0609.0009.1216.003.18238.0968 4.34524 3.64004 7.83797 7.99733 7.83797 4.3573 0 7.90059-3.49273 7.99733-7.83797.001-.0607.003-.12146.003-.18238-.00011-.0609-.00089-.12159-.003-.18238-.0968-4.34524-3.64003-7.83795-7.99733-7.83795z" filter="url(#a)" opacity=".1"/><path d="m147.75177 129.20733c-4.35729 0-7.90059 3.49271-7.99733 7.83795-.001.0607-.003.12133-.003.18238.00011.0609.0009.1216.003.18238.0968 4.34524 3.64004 7.83797 7.99733 7.83797 4.3573 0 7.90059-3.49273 7.99733-7.83797.001-.0607.003-.12146.003-.18238-.00011-.0609-.00089-.12159-.003-.18238-.0968-4.34524-3.64003-7.83795-7.99733-7.83795z" fill="#ebebeb"/><path d="m147.752 129.20716c-4.35729 0-7.90131 3.49265-7.99805 7.83789-.001.0607-.002.12059-.002.18164.00011.0609-.00015.12281.002.18359.006.27632.0272.54962.0606.81836.49023-3.95832 3.85663-7.02148 7.9375-7.02148 4.08088 0 7.44723 3.06316 7.9375 7.02148.0334-.26874.0544-.54204.0606-.81836.001-.0607.002-.12267.002-.18359-.00011-.0609.00016-.12085-.002-.18164-.0968-4.34524-3.64075-7.83789-7.99805-7.83789z" fill="#fff" opacity=".3"/><path d="m147.75177 129.20733c-4.35729 0-7.90059 3.49271-7.99733 7.83795-.001.0607-.003.12133-.003.18238.00011.0609.0009.1216.003.18238.0968 4.34524 3.64004 7.83797 7.99733 7.83797 4.3573 0 7.90059-3.49273 7.99733-7.83797.001-.0607.003-.12146.003-.18238-.00011-.0609-.00089-.12159-.003-.18238-.0968-4.34524-3.64003-7.83795-7.99733-7.83795z" style="opacity:.4;fill:none;stroke:#000;stroke-width:4;stroke-linecap:round;stroke-linejoin:round"/><path d="m127.752 239.248a112 112 0 0 1 -112-112 112 112 0 0 1 .04102-1.16992 112 112 0 0 0 111.95898 111.16992 112 112 0 0 0 111.95898-110.83008 112 112 0 0 1 .041.83008 112 112 0 0 1 -112 112z" opacity=".2"/><path d="m127.752 15.248008a112 112 0 0 0 -112 111.999992 112 112 0 0 0 .04102 1.16992 112 112 0 0 1 111.95898-111.169912 112 112 0 0 1 111.95898 110.830072 112 112 0 0 0 .041-.83008 112 112 0 0 0 -112-111.999992z" fill="#fff" opacity=".3"/></svg>