<svg xmlns="http://www.w3.org/2000/svg" xmlns:xlink="http://www.w3.org/1999/xlink" width="256" height="256" version="1.1" viewBox="0 0 67.73 67.73">
 <defs>
  <clipPath id="clipPath1025" clipPathUnits="userSpaceOnUse">
   <path d="M 111.94141,84 C 99.359506,84.145 90.1531,83.713998 82.625,87.867188 c -3.7641,2.0768 -6.751838,5.574737 -8.398438,9.960937 C 72.580062,102.21433 72,107.4241 72,114 v 42 h 160 v -26 c 0,-6.5759 -0.57996,-11.78566 -2.22656,-16.17188 -0.205,-0.5455 -0.47919,-1.03993 -0.74219,-1.54296 -0.1,-0.1848 -0.17844,-0.38051 -0.27344,-0.56641 -1.727,-3.38752 -4.25471,-6.14522 -7.38281,-7.87109 C 213.8463,99.694146 204.64049,100.1454 192.05859,100 H 192 151.66797 L 135.45312,84 h -23.49218 z" style="fill:#e3dfd5"/>
  </clipPath>
  <clipPath id="clipPath1082-3" clipPathUnits="userSpaceOnUse">
   <path d="M 361.9375,-212 C 507.2348,-212 528,-191.28677 528,-46.125 V 70.125 C 528,215.28618 507.2348,236 361.9375,236 H 214.0625 C 68.7652,236 48,215.28618 48,70.125 V -46.125 C 48,-191.28677 68.7652,-212 214.0625,-212 Z" style="fill:#8c59d9"/>
  </clipPath>
  <clipPath id="clipPath1082-3-5" clipPathUnits="userSpaceOnUse">
   <path d="M 361.9375,-212 C 507.2348,-212 528,-191.28677 528,-46.125 V 70.125 C 528,215.28618 507.2348,236 361.9375,236 H 214.0625 C 68.7652,236 48,215.28618 48,70.125 V -46.125 C 48,-191.28677 68.7652,-212 214.0625,-212 Z" style="fill:#8c59d9"/>
  </clipPath>
  <clipPath id="clipPath1082-3-9" clipPathUnits="userSpaceOnUse">
   <path d="M 361.9375,-212 C 507.2348,-212 528,-191.28677 528,-46.125 V 70.125 C 528,215.28618 507.2348,236 361.9375,236 H 214.0625 C 68.7652,236 48,215.28618 48,70.125 V -46.125 C 48,-191.28677 68.7652,-212 214.0625,-212 Z" style="fill:#8c59d9"/>
  </clipPath>
  <clipPath id="clipPath1082-3-3" clipPathUnits="userSpaceOnUse">
   <path d="M 361.9375,-212 C 507.2348,-212 528,-191.28677 528,-46.125 V 70.125 C 528,215.28618 507.2348,236 361.9375,236 H 214.0625 C 68.7652,236 48,215.28618 48,70.125 V -46.125 C 48,-191.28677 68.7652,-212 214.0625,-212 Z" style="fill:#8c59d9"/>
  </clipPath>
  <clipPath id="clipPath1082-3-53" clipPathUnits="userSpaceOnUse">
   <path d="M 361.9375,-212 C 507.2348,-212 528,-191.28677 528,-46.125 V 70.125 C 528,215.28618 507.2348,236 361.9375,236 H 214.0625 C 68.7652,236 48,215.28618 48,70.125 V -46.125 C 48,-191.28677 68.7652,-212 214.0625,-212 Z" style="fill:#8c59d9"/>
  </clipPath>
  <clipPath id="clipPath1082-3-6" clipPathUnits="userSpaceOnUse">
   <path d="M 361.9375,-212 C 507.2348,-212 528,-191.28677 528,-46.125 V 70.125 C 528,215.28618 507.2348,236 361.9375,236 H 214.0625 C 68.7652,236 48,215.28618 48,70.125 V -46.125 C 48,-191.28677 68.7652,-212 214.0625,-212 Z" style="fill:#8c59d9"/>
  </clipPath>
  <clipPath id="clipPath1082-3-91" clipPathUnits="userSpaceOnUse">
   <path d="M 361.9375,-212 C 507.2348,-212 528,-191.28677 528,-46.125 V 70.125 C 528,215.28618 507.2348,236 361.9375,236 H 214.0625 C 68.7652,236 48,215.28618 48,70.125 V -46.125 C 48,-191.28677 68.7652,-212 214.0625,-212 Z" style="fill:#8c59d9"/>
  </clipPath>
  <clipPath id="clipPath1025-0" clipPathUnits="userSpaceOnUse">
   <path style="fill:#8c59d9" d="M 329.9375,32 C 475.2348,32 496,52.71323 496,197.875 v 116.25 C 496,459.28618 475.2348,480 329.9375,480 H 182.0625 C 36.7652,480 16,459.28618 16,314.125 V 197.875 C 16,52.71323 36.7652,32 182.0625,32 Z"/>
  </clipPath>
  <clipPath id="clipPath4277-8" clipPathUnits="userSpaceOnUse">
   <rect style="opacity:0.81999972;fill:#88b637" width="512" height="512" x="0" y="0" ry="1"/>
  </clipPath>
  <linearGradient id="linearGradient3650-7-9">
   <stop style="stop-color:#5884f4" id="stop4366" offset="0"/>
   <stop id="stop4368" offset="1" style="stop-color:#80a3fa"/>
  </linearGradient>
  <clipPath id="clipPath1082-3-36" clipPathUnits="userSpaceOnUse">
   <path d="M 361.9375,-212 C 507.2348,-212 528,-191.28677 528,-46.125 V 70.125 C 528,215.28618 507.2348,236 361.9375,236 H 214.0625 C 68.7652,236 48,215.28618 48,70.125 V -46.125 C 48,-191.28677 68.7652,-212 214.0625,-212 Z" style="fill:#8c59d9"/>
  </clipPath>
  <clipPath id="clipPath983" clipPathUnits="userSpaceOnUse">
   <path d="M 115.03125,44 C 42.3826,44 32,54.356615 32,126.9375 v 58.125 C 32,257.64309 42.3826,268 115.03125,268 H 152 V 44 Z" style="fill:#4d4d4d"/>
  </clipPath>
  <clipPath id="clipPath1082-3-62" clipPathUnits="userSpaceOnUse">
   <path d="M 361.9375,-212 C 507.2348,-212 528,-191.28677 528,-46.125 V 70.125 C 528,215.28618 507.2348,236 361.9375,236 H 214.0625 C 68.7652,236 48,215.28618 48,70.125 V -46.125 C 48,-191.28677 68.7652,-212 214.0625,-212 Z" style="fill:#8c59d9"/>
  </clipPath>
  <clipPath id="clipPath949" clipPathUnits="userSpaceOnUse">
   <path d="M 329.9375,32 C 475.2348,32 496,52.71323 496,197.875 v 116.25 C 496,459.28618 475.2348,480 329.9375,480 H 182.0625 C 36.7652,480 16,459.28618 16,314.125 V 197.875 C 16,52.71323 36.7652,32 182.0625,32 Z" style="fill:#eab305"/>
  </clipPath>
  <clipPath id="clipPath954" clipPathUnits="userSpaceOnUse">
   <path d="M 329.9375,32 C 475.2348,32 496,52.71323 496,197.875 v 116.25 C 496,459.28618 475.2348,480 329.9375,480 H 182.0625 C 36.7652,480 16,459.28618 16,314.125 V 197.875 C 16,52.71323 36.7652,32 182.0625,32 Z" style="fill:#eab305"/>
  </clipPath>
  <clipPath id="clipPath1082-3-8" clipPathUnits="userSpaceOnUse">
   <path d="M 361.9375,-212 C 507.2348,-212 528,-191.28677 528,-46.125 V 70.125 C 528,215.28618 507.2348,236 361.9375,236 H 214.0625 C 68.7652,236 48,215.28618 48,70.125 V -46.125 C 48,-191.28677 68.7652,-212 214.0625,-212 Z" style="fill:#8c59d9"/>
  </clipPath>
  <clipPath id="clipPath1082-3-92" clipPathUnits="userSpaceOnUse">
   <path d="M 361.9375,-212 C 507.2348,-212 528,-191.28677 528,-46.125 V 70.125 C 528,215.28618 507.2348,236 361.9375,236 H 214.0625 C 68.7652,236 48,215.28618 48,70.125 V -46.125 C 48,-191.28677 68.7652,-212 214.0625,-212 Z" style="fill:#8c59d9"/>
  </clipPath>
  <clipPath id="clipPath1082" clipPathUnits="userSpaceOnUse">
   <path d="M 361.9375,-212 C 507.2348,-212 528,-191.28677 528,-46.125 V 70.125 C 528,215.28618 507.2348,236 361.9375,236 H 214.0625 C 68.7652,236 48,215.28618 48,70.125 V -46.125 C 48,-191.28677 68.7652,-212 214.0625,-212 Z" style="fill:#8c59d9"/>
  </clipPath>
  <clipPath id="clipPath1082-3-361" clipPathUnits="userSpaceOnUse">
   <path d="M 361.9375,-212 C 507.2348,-212 528,-191.28677 528,-46.125 V 70.125 C 528,215.28618 507.2348,236 361.9375,236 H 214.0625 C 68.7652,236 48,215.28618 48,70.125 V -46.125 C 48,-191.28677 68.7652,-212 214.0625,-212 Z" style="fill:#8c59d9"/>
  </clipPath>
  <clipPath id="clipPath1079" clipPathUnits="userSpaceOnUse">
   <circle style="fill:url(#linearGradient1083)" cx="213.843" cy="146" r="55" transform="scale(-1,1)"/>
  </clipPath>
  <clipPath id="clipPath984" clipPathUnits="userSpaceOnUse">
   <circle style="fill:url(#linearGradient1083)" cx="213.843" cy="146" r="55" transform="scale(-1,1)"/>
  </clipPath>
  <clipPath id="clipPath988" clipPathUnits="userSpaceOnUse">
   <circle style="fill:url(#linearGradient1083)" cx="213.843" cy="146" r="55" transform="scale(-1,1)"/>
  </clipPath>
  <clipPath id="clipPath992" clipPathUnits="userSpaceOnUse">
   <circle style="fill:url(#linearGradient1083)" cx="213.843" cy="146" r="55" transform="scale(-1,1)"/>
  </clipPath>
  <clipPath id="clipPath1082-3-31" clipPathUnits="userSpaceOnUse">
   <path d="M 361.9375,-212 C 507.2348,-212 528,-191.28677 528,-46.125 V 70.125 C 528,215.28618 507.2348,236 361.9375,236 H 214.0625 C 68.7652,236 48,215.28618 48,70.125 V -46.125 C 48,-191.28677 68.7652,-212 214.0625,-212 Z" style="fill:#8c59d9"/>
  </clipPath>
  <clipPath id="clipPath1205" clipPathUnits="userSpaceOnUse">
   <path d="M 115.03125,44 C 42.3826,44 32,54.356615 32,126.9375 v 58.125 c 0,13.772 0.379014,25.29352 1.482422,34.9375 H 270.51758 C 271.62099,210.35602 272,198.8345 272,185.0625 v -58.125 C 272,54.356615 261.6174,44 188.96875,44 Z" style="fill:#f1f0e9"/>
  </clipPath>
  <clipPath id="clipPath1082-3-4" clipPathUnits="userSpaceOnUse">
   <path d="M 361.9375,-212 C 507.2348,-212 528,-191.28677 528,-46.125 V 70.125 C 528,215.28618 507.2348,236 361.9375,236 H 214.0625 C 68.7652,236 48,215.28618 48,70.125 V -46.125 C 48,-191.28677 68.7652,-212 214.0625,-212 Z" style="fill:#8c59d9"/>
  </clipPath>
  <clipPath id="clipPath1082-3-45" clipPathUnits="userSpaceOnUse">
   <path d="M 361.9375,-212 C 507.2348,-212 528,-191.28677 528,-46.125 V 70.125 C 528,215.28618 507.2348,236 361.9375,236 H 214.0625 C 68.7652,236 48,215.28618 48,70.125 V -46.125 C 48,-191.28677 68.7652,-212 214.0625,-212 Z" style="fill:#8c59d9"/>
  </clipPath>
  <clipPath id="clipPath1082-3-61" clipPathUnits="userSpaceOnUse">
   <path d="M 361.9375,-212 C 507.2348,-212 528,-191.28677 528,-46.125 V 70.125 C 528,215.28618 507.2348,236 361.9375,236 H 214.0625 C 68.7652,236 48,215.28618 48,70.125 V -46.125 C 48,-191.28677 68.7652,-212 214.0625,-212 Z" style="fill:#8c59d9"/>
  </clipPath>
  <clipPath id="clipPath1064" clipPathUnits="userSpaceOnUse">
   <path style="fill:#a3dbf0" d="M 115.03125,44 C 42.3826,44 32,54.356615 32,126.9375 v 58.125 c 0,10.16582 0.217657,19.07051 0.767578,26.9375 3.376331,48.30069 19.790377,56 82.263672,56 h 73.9375 c 62.4733,0 78.88734,-7.69931 82.26367,-56 C 271.78234,204.13301 272,195.22832 272,185.0625 v -58.125 C 272,54.356615 261.6174,44 188.96875,44 Z"/>
  </clipPath>
  <clipPath id="clipPath1082-3-32" clipPathUnits="userSpaceOnUse">
   <path d="M 361.9375,-212 C 507.2348,-212 528,-191.28677 528,-46.125 V 70.125 C 528,215.28618 507.2348,236 361.9375,236 H 214.0625 C 68.7652,236 48,215.28618 48,70.125 V -46.125 C 48,-191.28677 68.7652,-212 214.0625,-212 Z" style="fill:#8c59d9"/>
  </clipPath>
  <clipPath id="clipPath947" clipPathUnits="userSpaceOnUse">
   <path d="m 191.43333,45.066672 c 77.49189,0 88.56666,11.047056 88.56666,88.466668 v 62 C 279.99999,272.95263 268.92522,284 191.43333,284 H 112.56666 C 35.074773,284 23.999999,272.95263 23.999999,195.53334 v -62 c 0,-77.419612 11.074774,-88.466668 88.566661,-88.466668 z" style="fill:#a4c1f9"/>
  </clipPath>
  <clipPath id="clipPath1082-3-55" clipPathUnits="userSpaceOnUse">
   <path d="M 361.9375,-212 C 507.2348,-212 528,-191.28677 528,-46.125 V 70.125 C 528,215.28618 507.2348,236 361.9375,236 H 214.0625 C 68.7652,236 48,215.28618 48,70.125 V -46.125 C 48,-191.28677 68.7652,-212 214.0625,-212 Z" style="fill:#8c59d9"/>
  </clipPath>
  <clipPath id="clipPath991" clipPathUnits="userSpaceOnUse">
   <path d="M 188.96875,44 C 261.6174,44 272,54.356615 272,126.9375 v 58.125 C 272,257.64309 261.6174,268 188.96875,268 h -73.9375 C 42.3826,268 32,257.64309 32,185.0625 v -58.125 C 32,54.356615 42.3826,44 115.03125,44 Z" style="fill:#6dc7f1"/>
  </clipPath>
  <clipPath id="clipPath978" clipPathUnits="userSpaceOnUse">
   <path d="M 188.96875,44 C 261.6174,44 272,54.356615 272,126.9375 v 58.125 C 272,257.64309 261.6174,268 188.96875,268 h -73.9375 C 42.3826,268 32,257.64309 32,185.0625 v -58.125 C 32,54.356615 42.3826,44 115.03125,44 Z" style="fill:#6dc7f1"/>
  </clipPath>
  <clipPath id="clipPath942" clipPathUnits="userSpaceOnUse">
   <path d="M 188.96875,44 C 261.6174,44 272,54.356615 272,126.9375 v 58.125 C 272,257.64309 261.6174,268 188.96875,268 h -73.9375 C 42.3826,268 32,257.64309 32,185.0625 v -58.125 C 32,54.356615 42.3826,44 115.03125,44 Z" style="fill:#46a926"/>
  </clipPath>
  <clipPath id="clipPath1082-3-7" clipPathUnits="userSpaceOnUse">
   <path d="M 361.9375,-212 C 507.2348,-212 528,-191.28677 528,-46.125 V 70.125 C 528,215.28618 507.2348,236 361.9375,236 H 214.0625 C 68.7652,236 48,215.28618 48,70.125 V -46.125 C 48,-191.28677 68.7652,-212 214.0625,-212 Z" style="fill:#8c59d9"/>
  </clipPath>
  <radialGradient id="radialGradient3322" cx="26.617" cy="-2.065" r="23" gradientTransform="matrix(-4.8906e-8,-2.8515,3.7557,0,674.00149,398.26285)" gradientUnits="userSpaceOnUse">
   <stop id="stop2749" offset="0" style="stop-color:#d280b9"/>
   <stop style="stop-color:#b549b5" id="stop4269" offset=".529"/>
   <stop id="stop2755" offset="1" style="stop-color:#8940a8"/>
  </radialGradient>
  <clipPath id="clipPath1082-3-69" clipPathUnits="userSpaceOnUse">
   <path d="M 361.9375,-212 C 507.2348,-212 528,-191.28677 528,-46.125 V 70.125 C 528,215.28618 507.2348,236 361.9375,236 H 214.0625 C 68.7652,236 48,215.28618 48,70.125 V -46.125 C 48,-191.28677 68.7652,-212 214.0625,-212 Z" style="fill:#8c59d9"/>
  </clipPath>
  <clipPath id="clipPath1082-3-452" clipPathUnits="userSpaceOnUse">
   <path d="M 361.9375,-212 C 507.2348,-212 528,-191.28677 528,-46.125 V 70.125 C 528,215.28618 507.2348,236 361.9375,236 H 214.0625 C 68.7652,236 48,215.28618 48,70.125 V -46.125 C 48,-191.28677 68.7652,-212 214.0625,-212 Z" style="fill:#8c59d9"/>
  </clipPath>
  <clipPath id="clipPath1082-3-74" clipPathUnits="userSpaceOnUse">
   <path d="M 361.9375,-212 C 507.2348,-212 528,-191.28677 528,-46.125 V 70.125 C 528,215.28618 507.2348,236 361.9375,236 H 214.0625 C 68.7652,236 48,215.28618 48,70.125 V -46.125 C 48,-191.28677 68.7652,-212 214.0625,-212 Z" style="fill:#8c59d9"/>
  </clipPath>
  <clipPath id="clipPath1032" clipPathUnits="userSpaceOnUse">
   <path d="M 188.96875,44 C 261.6174,44 272,54.356615 272,126.9375 v 58.125 C 272,257.64309 261.6174,268 188.96875,268 h -73.9375 C 42.3826,268 32,257.64309 32,185.0625 v -58.125 C 32,54.356615 42.3826,44 115.03125,44 Z" style="fill:#76c22b"/>
  </clipPath>
  <clipPath id="clipPath1082-3-0" clipPathUnits="userSpaceOnUse">
   <path d="M 361.9375,-212 C 507.2348,-212 528,-191.28677 528,-46.125 V 70.125 C 528,215.28618 507.2348,236 361.9375,236 H 214.0625 C 68.7652,236 48,215.28618 48,70.125 V -46.125 C 48,-191.28677 68.7652,-212 214.0625,-212 Z" style="fill:#8c59d9"/>
  </clipPath>
  <clipPath id="clipPath1082-3-89" clipPathUnits="userSpaceOnUse">
   <path d="M 361.9375,-212 C 507.2348,-212 528,-191.28677 528,-46.125 V 70.125 C 528,215.28618 507.2348,236 361.9375,236 H 214.0625 C 68.7652,236 48,215.28618 48,70.125 V -46.125 C 48,-191.28677 68.7652,-212 214.0625,-212 Z" style="fill:#8c59d9"/>
  </clipPath>
  <clipPath id="clipPath951" clipPathUnits="userSpaceOnUse">
   <path style="fill:#8c59d9" d="M 188.96875,44 C 261.6174,44 272,54.356615 272,126.9375 v 58.125 C 272,257.64309 261.6174,268 188.96875,268 h -73.9375 C 42.3826,268 32,257.64309 32,185.0625 v -58.125 C 32,54.356615 42.3826,44 115.03125,44 Z"/>
  </clipPath>
  <clipPath id="clipPath1082-3-64" clipPathUnits="userSpaceOnUse">
   <path d="M 361.9375,-212 C 507.2348,-212 528,-191.28677 528,-46.125 V 70.125 C 528,215.28618 507.2348,236 361.9375,236 H 214.0625 C 68.7652,236 48,215.28618 48,70.125 V -46.125 C 48,-191.28677 68.7652,-212 214.0625,-212 Z" style="fill:#8c59d9"/>
  </clipPath>
  <clipPath id="clipPath1082-3-04" clipPathUnits="userSpaceOnUse">
   <path d="M 361.9375,-212 C 507.2348,-212 528,-191.28677 528,-46.125 V 70.125 C 528,215.28618 507.2348,236 361.9375,236 H 214.0625 C 68.7652,236 48,215.28618 48,70.125 V -46.125 C 48,-191.28677 68.7652,-212 214.0625,-212 Z" style="fill:#8c59d9"/>
  </clipPath>
  <clipPath id="clipPath1082-3-1" clipPathUnits="userSpaceOnUse">
   <path d="M 361.9375,-212 C 507.2348,-212 528,-191.28677 528,-46.125 V 70.125 C 528,215.28618 507.2348,236 361.9375,236 H 214.0625 C 68.7652,236 48,215.28618 48,70.125 V -46.125 C 48,-191.28677 68.7652,-212 214.0625,-212 Z" style="fill:#8c59d9"/>
  </clipPath>
  <clipPath id="clipPath936" clipPathUnits="userSpaceOnUse">
   <path d="M 329.9375,16 C 475.2348,16 496,36.71323 496,181.875 v 116.25 C 496,443.28618 475.2348,464 329.9375,464 H 182.0625 C 36.7652,464 16,443.28618 16,298.125 V 181.875 C 16,36.71323 36.7652,16 182.0625,16 Z" style="fill:#438ae9"/>
  </clipPath>
  <clipPath id="clipPath989" clipPathUnits="userSpaceOnUse">
   <path d="M 115.03124,43.99999 C 42.382604,44 32.000014,54.35661 32.000004,126.9375 v 58.12499 c 0,72.5806 10.38261,82.9375 83.031236,82.9375 h 73.93752 C 261.6174,267.99999 272,257.64307 272,185.06249 V 126.9375 C 272,54.35661 261.6174,44 188.96875,44 Z" style="fill:url(#linearGradient993)"/>
  </clipPath>
  <clipPath id="clipPath1082-3-72" clipPathUnits="userSpaceOnUse">
   <path d="M 361.9375,-212 C 507.2348,-212 528,-191.28677 528,-46.125 V 70.125 C 528,215.28618 507.2348,236 361.9375,236 H 214.0625 C 68.7652,236 48,215.28618 48,70.125 V -46.125 C 48,-191.28677 68.7652,-212 214.0625,-212 Z" style="fill:#8c59d9"/>
  </clipPath>
  <clipPath id="clipPath1082-3-06" clipPathUnits="userSpaceOnUse">
   <path d="M 361.9375,-212 C 507.2348,-212 528,-191.28677 528,-46.125 V 70.125 C 528,215.28618 507.2348,236 361.9375,236 H 214.0625 C 68.7652,236 48,215.28618 48,70.125 V -46.125 C 48,-191.28677 68.7652,-212 214.0625,-212 Z" style="fill:#8c59d9"/>
  </clipPath>
  <clipPath id="clipPath1082-3-59" clipPathUnits="userSpaceOnUse">
   <path d="M 361.9375,-212 C 507.2348,-212 528,-191.28677 528,-46.125 V 70.125 C 528,215.28618 507.2348,236 361.9375,236 H 214.0625 C 68.7652,236 48,215.28618 48,70.125 V -46.125 C 48,-191.28677 68.7652,-212 214.0625,-212 Z" style="fill:#8c59d9"/>
  </clipPath>
  <clipPath id="clipPath1221" clipPathUnits="userSpaceOnUse">
   <path d="M 188.96875,44 C 261.6174,44 272,54.356615 272,126.9375 v 58.125 C 272,257.64309 261.6174,268 188.96875,268 h -73.9375 C 42.3826,268 32,257.64309 32,185.0625 v -58.125 C 32,54.356615 42.3826,44 115.03125,44 Z" style="opacity:0.1;fill:#da1636"/>
  </clipPath>
  <clipPath id="clipPath936-0" clipPathUnits="userSpaceOnUse">
   <path d="M 329.9375,16 C 475.2348,16 496,36.71323 496,181.875 v 116.25 C 496,443.28618 475.2348,464 329.9375,464 H 182.0625 C 36.7652,464 16,443.28618 16,298.125 V 181.875 C 16,36.71323 36.7652,16 182.0625,16 Z" style="fill:#438ae9"/>
  </clipPath>
  <clipPath id="clipPath1082-3-367" clipPathUnits="userSpaceOnUse">
   <path d="M 361.9375,-212 C 507.2348,-212 528,-191.28677 528,-46.125 V 70.125 C 528,215.28618 507.2348,236 361.9375,236 H 214.0625 C 68.7652,236 48,215.28618 48,70.125 V -46.125 C 48,-191.28677 68.7652,-212 214.0625,-212 Z" style="fill:#8c59d9"/>
  </clipPath>
  <clipPath id="clipPath1221-5" clipPathUnits="userSpaceOnUse">
   <path d="M 188.96875,44 C 261.6174,44 272,54.356615 272,126.9375 v 58.125 C 272,257.64309 261.6174,268 188.96875,268 h -73.9375 C 42.3826,268 32,257.64309 32,185.0625 v -58.125 C 32,54.356615 42.3826,44 115.03125,44 Z" style="opacity:0.1;fill:#da1636"/>
  </clipPath>
  <clipPath id="clipPath936-2" clipPathUnits="userSpaceOnUse">
   <path d="M 329.9375,16 C 475.2348,16 496,36.71323 496,181.875 v 116.25 C 496,443.28618 475.2348,464 329.9375,464 H 182.0625 C 36.7652,464 16,443.28618 16,298.125 V 181.875 C 16,36.71323 36.7652,16 182.0625,16 Z" style="fill:#438ae9"/>
  </clipPath>
  <linearGradient id="linearGradient920">
   <stop id="stop916" offset="0" style="stop-color:#234db8"/>
   <stop id="stop918" offset="1" style="stop-color:#5884f4"/>
  </linearGradient>
  <linearGradient id="linearGradient906">
   <stop style="stop-color:#28851e" id="stop902" offset="0"/>
   <stop style="stop-color:#cbe667" id="stop904" offset="1"/>
  </linearGradient>
  <filter style="color-interpolation-filters:sRGB" id="filter1007" width="1.151" height="1.263" x="-.08" y="-.13">
   <feGaussianBlur id="feGaussianBlur1009" stdDeviation="2.342"/>
  </filter>
  <linearGradient id="linearGradient936">
   <stop style="stop-color:#1a7fd4" id="stop932" offset="0"/>
   <stop style="stop-color:#37a6e6" id="stop934" offset="1"/>
  </linearGradient>
  <filter style="color-interpolation-filters:sRGB" id="filter1099" width="1.022" height="1.026" x="-.01" y="-.01">
   <feGaussianBlur id="feGaussianBlur1101" stdDeviation="1.026"/>
  </filter>
  <linearGradient id="linearGradient1117" x1="15.031" x2="32.369" y1="34.847" y2="34.847" gradientUnits="userSpaceOnUse" xlink:href="#linearGradient920"/>
  <linearGradient id="linearGradient1121" x1="9.212" x2="32.398" y1="39.018" y2="6.127" gradientUnits="userSpaceOnUse" xlink:href="#linearGradient906"/>
  <linearGradient id="linearGradient1147" x1="15.031" x2="32.369" y1="34.847" y2="34.847" gradientUnits="userSpaceOnUse" xlink:href="#linearGradient920"/>
 </defs>
 <g id="layer1" transform="translate(0,-229.26666)">
  <g style="opacity:0.1;filter:url(#filter1099);enable-background:new" transform="matrix(0.27109741,0,0,0.27511743,-85.84852,209.09248)">
   <g style="enable-background:new" transform="matrix(5.4581973,0,0,5.4581973,325.30514,53.550478)">
    <path d="m 19.222656,26.644531 v 6.392578 l -4.191406,0.07617 9.125,9.935547 8.212891,-9.935547 -3.777344,-0.07617 v -6.392578 h -0.5 z"/>
   </g>
   <g style="enable-background:new" transform="matrix(5.4581973,0,0,5.4581973,301.94789,67.97418)">
    <path d="m 32.398438,6.1269531 c -0.01763,4.199e-4 -0.03523,0.00172 -0.05273,0.00391 L 19.888672,7.6757812 C 19.625684,7.707917 19.42748,7.9303733 19.425781,8.1953125 L 19.310547,30.470703 c -1.748268,-0.450952 -3.834141,-0.535686 -6.246094,-0.03906 -2.361316,0.486197 -4.3934597,1.374452 -5.8105468,2.458984 -1.417087,1.084532 -2.2906901,2.437752 -1.9707031,3.806641 0.320199,1.369795 1.7001737,2.232203 3.4667969,2.65625 1.766623,0.424046 4.010044,0.431456 6.371094,-0.05469 2.22676,-0.458491 4.299504,-1.274807 5.841797,-2.267578 1.542292,-0.992771 2.644375,-2.17701 2.58789,-3.537109 l 0.160157,-19.580079 8.753906,-1.412109 c 0.253734,-0.04168 0.440306,-0.260446 0.441406,-0.517578 L 32.9375,6.65625 C 32.939,6.35947 32.695141,6.1200404 32.398438,6.1269531 Z" style="display:block"/>
   </g>
   <ellipse id="ellipse1083" cx="6.374" cy="196.861" rx="38.264" ry="19.329" transform="rotate(-16.110074,409.42735,-1067.0441)" style="opacity:0.2;filter:url(#filter1007)"/>
   <g style="enable-background:new" transform="matrix(5.4581973,0,0,5.4581973,331.3239,53.943763)">
    <path d="m 32.439453,16.835938 -9.193359,9.917968 h 4.18164 v 6.541016 h 0.5 9.06836 v -6.541016 h 3.800781 z"/>
   </g>
  </g>
  <g style="enable-background:new" transform="matrix(0.26508407,0,0,0.26508407,-82.001205,211.23477)">
   <g transform="matrix(5.7568192,0,0,5.7568192,313.07746,42.816287)" style="opacity:0.1;enable-background:new">
    <path d="m 19.222656,26.644531 v 6.392578 l -4.191406,0.07617 9.125,9.935547 8.212891,-9.935547 -3.777344,-0.07617 v -6.392578 h -0.5 z"/>
   </g>
   <g style="fill:#2f5fdd;enable-background:new" transform="matrix(5.4581973,0,0,5.4581973,320.16099,53.076995)">
    <path d="m 19.222656,26.644531 v 6.392578 l -4.191406,0.07617 9.125,9.935547 8.212891,-9.935547 -3.777344,-0.07617 v -6.392578 h -0.5 z" style="fill:#2f5fdd"/>
   </g>
   <g transform="matrix(5.5945061,0,0,5.5945061,293.69716,64.090025)" style="opacity:0.1;enable-background:new">
    <path style="display:block" d="m 32.398438,6.1269531 c -0.01763,4.199e-4 -0.03523,0.00172 -0.05273,0.00391 L 19.888672,7.6757812 C 19.625684,7.707917 19.42748,7.9303733 19.425781,8.1953125 L 19.310547,30.470703 c -1.748268,-0.450952 -3.834141,-0.535686 -6.246094,-0.03906 -2.361316,0.486197 -4.3934597,1.374452 -5.8105468,2.458984 -1.417087,1.084532 -2.2906901,2.437752 -1.9707031,3.806641 0.320199,1.369795 1.7001737,2.232203 3.4667969,2.65625 1.766623,0.424046 4.010044,0.431456 6.371094,-0.05469 2.22676,-0.458491 4.299504,-1.274807 5.841797,-2.267578 1.542292,-0.992771 2.644375,-2.17701 2.58789,-3.537109 l 0.160157,-19.580079 8.753906,-1.412109 c 0.253734,-0.04168 0.440306,-0.260446 0.441406,-0.517578 L 32.9375,6.65625 C 32.939,6.35947 32.695141,6.1200404 32.398438,6.1269531 Z"/>
   </g>
   <g style="fill:#46a926;enable-background:new" id="layer3" transform="matrix(5.4581973,0,0,5.4581973,301.94789,67.97418)">
    <path d="m 31.455974,6.0402059 c -0.01763,4.199e-4 -0.03523,0.00172 -0.05273,0.00391 L 18.946208,7.589034 C 18.68322,7.6211698 18.485016,7.8436261 18.483317,8.1085653 L 18.368083,30.383956 c -1.748268,-0.450952 -3.834141,-0.535686 -6.246094,-0.03906 -2.3613156,0.486197 -4.3934597,1.374452 -5.8105468,2.458984 -1.417087,1.084532 -2.2906901,2.437752 -1.9707031,3.806641 0.320199,1.369795 1.7001737,2.232203 3.4667969,2.65625 1.766623,0.424046 4.010044,0.431456 6.371094,-0.05469 2.22676,-0.458491 4.299504,-1.274807 5.841797,-2.267578 1.542292,-0.992771 2.644375,-2.17701 2.58789,-3.537109 l 0.160157,-19.580079 8.753906,-1.412109 c 0.253734,-0.04168 0.440306,-0.260446 0.441406,-0.517578 l 0.03125,-5.3281252 c 0.0015,-0.29678 -0.242359,-0.5362096 -0.539062,-0.5292969 z" style="display:block;fill:#46a926"/>
   </g>
   <g style="fill:#3584e4;enable-background:new" transform="matrix(5.4581973,0,0,5.4581973,326.17975,53.47028)">
    <path style="opacity:0.1" d="m 32.396904,16.453364 -9.578718,10.3337 h 4.356922 v 6.815197 h 0.520959 9.44848 v -6.815197 h 3.960098 z"/>
    <path d="m 32.439453,16.835938 -9.193359,9.917968 h 4.18164 v 6.541016 h 0.5 9.06836 v -6.541016 h 3.800781 z" style="fill:#37a6e6"/>
   </g>
   <g transform="matrix(5.4581973,0,0,5.4581973,571.39331,40.53068)" style="fill:url(#linearGradient1117);enable-background:new">
    <g transform="translate(-46.028582,2.6645015)" style="fill:url(#linearGradient1147)">
     <path d="m 421.47266,18.886719 c -0.0964,0.0023 -0.19141,0.0095 -0.28711,0.02148 l -68.12305,8.447266 c -1.43816,0.175758 -2.52196,1.392965 -2.53125,2.841797 l -0.62891,121.812508 c -9.56045,-2.46605 -20.96837,-2.92871 -34.1582,-0.21289 -12.91292,2.65878 -24.02601,7.51647 -31.77539,13.44726 -7.36089,5.63347 -12.02569,12.59237 -10.97656,19.69141 0.81633,-5.68038 5.00653,-11.1224 10.97656,-15.69141 7.74938,-5.93079 18.86247,-10.78849 31.77539,-13.44726 13.18983,-2.71583 24.59775,-2.25317 34.1582,0.21289 l 0.62891,-121.812508 c 0.009,-1.448826 1.09309,-2.666039 2.53125,-2.841797 l 68.12305,-8.447266 c 0.0957,-0.01198 0.1907,-0.01919 0.28711,-0.02148 1.54557,-0.03601 2.81645,1.15449 2.92773,2.669922 l 0.0215,-3.775391 c 0.008,-1.622949 -1.3267,-2.932334 -2.94922,-2.894531 z m 29.65625,44.503906 -49.35352,53.246095 h -28.22851 l -0.0332,4 h 28.26172 l 49.35352,-53.246095 42.33203,50.238285 h 3.37109 z" transform="matrix(0.18286459,0,0,0.18286459,-48.953358,4.950192)" style="opacity:0.3;fill:#ffffff"/>
     <path d="m 424.41016,21.667969 -0.16016,27.25 c -0.006,1.406133 -1.02651,2.60215 -2.41406,2.830078 l -47.8711,7.722656 -0.45117,55.166017 h 0.0156 l 0.43554,-53.166017 47.8711,-7.722656 c 1.38755,-0.227928 2.40804,-1.423945 2.41406,-2.830078 l 0.17188,-29.136719 c 1.9e-4,-0.03885 -0.0104,-0.07481 -0.0117,-0.113281 z m 51.63672,93.960941 v 2 h 20.78515 l -1.68555,-2 z m -32.48047,35.76953 -43.76368,52.94531 -28.31054,-30.82617 c -2.29641,4.58 -6.87458,8.71286 -12.55469,12.36914 -8.43407,5.42899 -19.76821,9.89312 -31.94531,12.40039 -12.91147,2.65852 -25.18097,2.61773 -34.8418,0.29883 -9.66083,-2.31892 -17.20601,-7.03464 -18.95703,-14.52539 -0.17459,-0.74688 -0.26626,-1.49254 -0.31445,-2.23633 -0.11276,1.40257 -0.0171,2.81818 0.31445,4.23633 1.75102,7.49075 9.2962,12.20647 18.95703,14.52539 9.66083,2.3189 21.93033,2.35969 34.8418,-0.29883 12.1771,-2.50727 23.51124,-6.9714 31.94531,-12.40039 5.68011,-3.65628 10.25828,-7.78914 12.55469,-12.36914 l 28.31054,30.82617 43.76368,-52.94531 h 32.48047 v -2 z" transform="matrix(0.18286459,0,0,0.18286459,-48.953358,4.950192)" style="opacity:0.2"/>
    </g>
   </g>
  </g>
 </g>
</svg>
