<svg enable-background="new" height="256" viewBox="0 0 256 256" width="256" xmlns="http://www.w3.org/2000/svg" xmlns:xlink="http://www.w3.org/1999/xlink">
  <filter id="filter910" color-interpolation-filters="sRGB" height="1.024099" width="1.023902" x="-.011951" y="-.012049">
    <feGaussianBlur stdDeviation="1.135353"/>
  </filter>
  <filter id="filter936" color-interpolation-filters="sRGB" height="1.096395" width="1.095609" x="-.047804" y="-.048197">
    <feGaussianBlur stdDeviation="4.5414121"/>
  </filter>
  <g transform="translate(0 -44)">
    <path d="m129.79414 58.375492-35.569335 72.601838-78.738805 11.44891 57.813093 55.63821-14.413016 86.45226 70.319623-45.28669 69.99755 37.37444-13.43493-78.96344 57.71767-55.14719-78.64338-11.93994z" filter="url(#filter936)" opacity=".1"/>
    <path d="m129.79414 58.375492-35.569335 72.601838-78.738805 11.44891 57.813093 55.63821-14.413016 86.45226 70.319623-45.28669 69.99755 37.37444-13.43493-78.96344 57.71767-55.14719-78.64338-11.93994z" filter="url(#filter910)" opacity=".1"/>
    <path d="m129.79414 58.375492-35.569335 72.601838-78.738805 11.44891 57.813093 55.63821-14.413016 86.45226 70.319623-45.28669 69.99755 37.37444-13.43493-78.96344 57.71767-55.14719-78.64338-11.93994z" opacity=".1"/>
    <path d="m128.68296 180.42318 55.65957 17.51839-.0482-.29357 56.70565-54.17893z" fill="#9a9996"/>
    <path d="m129.302 60.825358s-.68556 119.871042-.61904 119.597822l35.05392-48.68507z" fill="#a51d2d"/>
    <path d="m128.68296 180.42318.0415 58.08474 68.76871 36.71851c-22.18175-32.10971-68.81023-94.80325-68.81023-94.80325z" fill="#613583"/>
    <path d="m128.68296 180.42318 68.81023 94.80325-13.19883-77.5785z" fill="#c0bfbc"/>
    <path d="m129.302 60.825358-34.945037 71.329042 34.325997 48.26878c0-.4163.61904-119.597822.61904-119.597822z" fill="#e5a50a"/>
    <path d="m163.73688 131.73811c-12.43739 15.45-35.05392 48.68507-35.05392 48.68507l112.31704-36.95411z" fill="#ed333b"/>
    <path d="m128.68296 180.42318-54.931634 17.93468.04818-.29358-56.799506-54.66266z" fill="#f5c211"/>
    <path d="m128.68296 180.42318-69.043759 102.57682 14.160286-84.93578z" fill="#f8e45c"/>
    <path d="m94.356963 132.1544 34.325997 48.26878-111.68296-37.02156z" fill="#f8e45c"/>
    <path d="m128.68296 180.42318.0415 58.08474-69.085274 44.49208z" fill="#c061cb"/>
    <g transform="translate(0 44)">
      <path d="m129.30273 16.826172-34.945308 71.328125-77.357422 11.248047 1.804688 1.738276 75.552734-10.986323 34.945308-71.328125 34.4336 70.912109 75.45703 11.457029 1.80664-1.72656-77.26367-11.730469zm55.28516 138.542968-.29297.2793 12.82422 75.3789.375.19922zm-111.076171.41797-13.873047 83.21289.373047-.24023 13.787109-82.69532z" fill="#fffefc" opacity=".3"/>
      <path d="m18.804688 99.140625-1.804688.261719 56.511719 54.384766.287109-1.72266zm220.388672.054687-54.89844 52.453128.29297 1.7207 56.41211-53.90039zm-110.46875 93.312498-68.712891 44.25196-.373047 2.24023 69.085938-44.49219 68.76953 36.71875-.375-2.19922z" fill="#020202" opacity=".2"/>
    </g>
  </g>
</svg>
