<?xml version="1.0" encoding="UTF-8" standalone="no"?>
<svg
   xmlns:osb="http://www.openswatchbook.org/uri/2009/osb"
   xmlns:dc="http://purl.org/dc/elements/1.1/"
   xmlns:cc="http://creativecommons.org/ns#"
   xmlns:rdf="http://www.w3.org/1999/02/22-rdf-syntax-ns#"
   xmlns:svg="http://www.w3.org/2000/svg"
   xmlns="http://www.w3.org/2000/svg"
   xmlns:xlink="http://www.w3.org/1999/xlink"
   xmlns:sodipodi="http://sodipodi.sourceforge.net/DTD/sodipodi-0.dtd"
   xmlns:inkscape="http://www.inkscape.org/namespaces/inkscape"
   width="256"
   height="256"
   version="1.1"
   id="svg55"
   sodipodi:docname="sudoku-app.svg"
   inkscape:version="0.92.3 (2405546, 2018-03-11)">
  <metadata
     id="metadata59">
    <rdf:RDF>
      <cc:Work
         rdf:about="">
        <dc:format>image/svg+xml</dc:format>
        <dc:type
           rdf:resource="http://purl.org/dc/dcmitype/StillImage" />
      </cc:Work>
    </rdf:RDF>
  </metadata>
  <sodipodi:namedview
     pagecolor="#ffffff"
     bordercolor="#666666"
     borderopacity="1"
     objecttolerance="10"
     gridtolerance="10"
     guidetolerance="10"
     inkscape:pageopacity="0"
     inkscape:pageshadow="2"
     inkscape:window-width="1920"
     inkscape:window-height="1009"
     id="namedview57"
     showgrid="false"
     inkscape:zoom="0.921875"
     inkscape:cx="-86.237288"
     inkscape:cy="128"
     inkscape:window-x="0"
     inkscape:window-y="34"
     inkscape:window-maximized="1"
     inkscape:current-layer="svg55" />
  <defs
     id="defs21">
    <linearGradient
       id="linearGradient5606"
       osb:paint="solid">
      <stop
         id="stop5608"
         offset="0"
         style="stop-color:#000000" />
    </linearGradient>
    <linearGradient
       id="linearGradient4526"
       osb:paint="solid">
      <stop
         id="stop4528"
         offset="0"
         style="stop-color:#ffffff" />
    </linearGradient>
    <linearGradient
       id="linearGradient3600-4"
       osb:paint="gradient">
      <stop
         id="stop3602-7"
         offset="0"
         style="stop-color:#f4f4f4" />
      <stop
         id="stop3604-6"
         offset="1"
         style="stop-color:#dbdbdb" />
    </linearGradient>
    <filter
       style="color-interpolation-filters:sRGB"
       id="filter12934"
       width="1.024"
       height="1.024"
       x="-.01"
       y="-.01">
      <feGaussianBlur
         id="feGaussianBlur12936"
         stdDeviation=".64" />
    </filter>
    <filter
       style="color-interpolation-filters:sRGB"
       id="filter12940"
       width="1.12"
       height="1.12"
       x="-.06"
       y="-.06">
      <feGaussianBlur
         id="feGaussianBlur12942"
         stdDeviation="3.2" />
    </filter>
    <linearGradient
       id="linearGradient4358"
       x1="88"
       x2="488"
       y1="88"
       y2="488"
       gradientUnits="userSpaceOnUse"
       xlink:href="#linearGradient4360" />
    <linearGradient
       id="linearGradient4360">
      <stop
         id="stop4362"
         offset="0"
         style="stop-color:#000000;stop-opacity:0.58823532" />
      <stop
         id="stop4366"
         offset="1"
         style="stop-color:#000000;stop-opacity:0.20555556" />
    </linearGradient>
    <filter
       style="color-interpolation-filters:sRGB"
       id="filter4380"
       width="1.106"
       height="1.088"
       x="-.05"
       y="-.04">
      <feGaussianBlur
         id="feGaussianBlur4382"
         stdDeviation="8.48" />
    </filter>
    <filter
       style="color-interpolation-filters:sRGB"
       id="filter4346"
       width="1.026"
       height="1.022"
       x="-.01"
       y="-.01">
      <feGaussianBlur
         id="feGaussianBlur4348"
         stdDeviation="2.12" />
    </filter>
    <filter
       inkscape:collect="always"
       style="color-interpolation-filters:sRGB"
       id="filter12934-3"
       x="-0.012"
       width="1.024"
       y="-0.012"
       height="1.024">
      <feGaussianBlur
         inkscape:collect="always"
         stdDeviation="0.64"
         id="feGaussianBlur12936-6" />
    </filter>
    <filter
       inkscape:collect="always"
       style="color-interpolation-filters:sRGB"
       id="filter12940-7"
       x="-0.059999999"
       width="1.12"
       y="-0.059999999"
       height="1.12">
      <feGaussianBlur
         inkscape:collect="always"
         stdDeviation="3.2"
         id="feGaussianBlur12942-5" />
    </filter>
    <filter
       inkscape:collect="always"
       style="color-interpolation-filters:sRGB"
       id="filter4380-6"
       x="-0.052999184"
       width="1.1059984"
       y="-0.043862626"
       height="1.0877253">
      <feGaussianBlur
         inkscape:collect="always"
         stdDeviation="8.4801079"
         id="feGaussianBlur4382-2" />
    </filter>
    <filter
       inkscape:collect="always"
       style="color-interpolation-filters:sRGB"
       id="filter4346-9"
       x="-0.013249796"
       width="1.0264996"
       y="-0.010965657"
       height="1.0219313">
      <feGaussianBlur
         inkscape:collect="always"
         stdDeviation="2.120027"
         id="feGaussianBlur4348-1" />
    </filter>
  </defs>
  <path
     style="color:#000000;display:inline;overflow:visible;visibility:visible;opacity:0.1;fill:#000000;fill-opacity:1;fill-rule:nonzero;stroke:none;stroke-width:2;marker:none;filter:url(#filter4346-9);enable-background:accumulate"
     d="M 141.84323,74 C 71.24979,74 63.65402,81.250835 64,151.98706 V 298 444.01294 C 63.65402,514.74917 71.24979,522 141.84323,522 H 434.15677 C 504.75021,522 513.9371,514.72348 512,444.01294 V 298 151.98706 C 512,81.249993 504.75021,74 434.15677,74 Z"
     id="rect4158-9"
     inkscape:connector-curvature="0"
     sodipodi:nodetypes="scccssscsss"
     transform="matrix(0.5,0,0,0.5,-16.116488,-18.825537)" />
  <path
     sodipodi:nodetypes="scccssscsss"
     inkscape:connector-curvature="0"
     id="path4350"
     d="M 141.84323,74 C 71.24979,74 63.65402,81.250835 64,151.98706 V 298 444.01294 C 63.65402,514.74917 71.24979,522 141.84323,522 H 434.15677 C 504.75021,522 513.9371,514.72348 512,444.01294 V 298 151.98706 C 512,81.249993 504.75021,74 434.15677,74 Z"
     style="color:#000000;display:inline;overflow:visible;visibility:visible;opacity:0.3;fill:url(#linearGradient4358);fill-opacity:1;fill-rule:nonzero;stroke:none;stroke-width:2;marker:none;filter:url(#filter4380-6);enable-background:accumulate"
     transform="matrix(0.5,0,0,0.5,-16.116488,-18.825235)" />
  <path
     style="color:#000000;display:inline;overflow:visible;visibility:visible;opacity:0.2;fill:#000000;fill-opacity:1;fill-rule:nonzero;stroke:none;stroke-width:1.02028775;marker:none;enable-background:accumulate"
     d="m 53.695112,15.174463 c -36.098811,0 -39.983003,3.69016 -39.806081,39.68984 v 74.310167 74.31016 c -0.176922,35.99969 3.70727,39.68984 39.806081,39.68984 H 202.08243 c 36.09881,0 40.77464,-3.70276 39.80608,-39.68984 V 129.17447 54.864303 c 0,-36.00011 -3.70727,-39.68984 -39.80608,-39.68984 z"
     id="rect4158-7"
     inkscape:connector-curvature="0"
     sodipodi:nodetypes="scccssscsss" />
  <path
     style="color:#000000;display:inline;overflow:visible;visibility:visible;fill:#e7e7df;fill-opacity:1;fill-rule:nonzero;stroke:none;stroke-width:1;marker:none;enable-background:accumulate"
     d="m 200.95649,17.174463 c 35.29673,0 39.09461,3.62542 38.92162,38.99353 v 73.006477 73.00647 c 0.17299,35.36812 -3.62489,38.99353 -38.92162,38.99353 H 54.799732 c -35.296716,0 -38.921616,-3.625 -38.921616,-38.99353 V 129.17447 56.167993 c 0,-35.36853 3.6249,-38.99353 38.921616,-38.99353 z"
     id="rect4158"
     inkscape:connector-curvature="0"
     sodipodi:nodetypes="scccssscsss" />
  <path
     style="color:#000000;display:inline;overflow:visible;visibility:visible;opacity:0.2;fill:#ffffff;fill-opacity:1;fill-rule:nonzero;stroke:none;stroke-width:1;marker:none;enable-background:accumulate"
     d="m 15.877653,161.17477 v 41.00586 c 0,35.36853 3.625159,38.99414 38.921875,38.99414 H 200.95578 c 35.29673,0 39.09486,-3.62602 38.92187,-38.99414 v -41.00586 z"
     id="rect4158-6"
     inkscape:connector-curvature="0" />
  <path
     style="color:#000000;display:inline;overflow:visible;visibility:visible;opacity:0.05;fill:#000000;fill-opacity:1;fill-rule:nonzero;stroke:none;stroke-width:1;marker:none;enable-background:accumulate"
     d="m 54.799528,17.174765 c -35.296716,0 -38.921875,3.625611 -38.921875,38.994141 V 97.174765 H 239.87765 V 56.168906 c 0.17299,-35.36811 -3.62514,-38.994141 -38.92187,-38.994141 z"
     id="rect4158-2"
     inkscape:connector-curvature="0" />
  <path
     style="color:#000000;display:inline;overflow:visible;visibility:visible;opacity:1;fill:#847d6c;fill-opacity:1;fill-rule:nonzero;stroke:none;stroke-width:3.00000024;marker:none;enable-background:accumulate"
     d="m 93.883512,37.174765 v 58 h -58 v 4 h 58 v 60.000005 h -58 v 4 h 58 v 58 h 4 v -58 h 59.999998 v 58 h 4 v -58 h 58 v -4 h -58 V 99.174765 h 58 v -4 h -58 v -58 h -4 v 58 H 97.883512 v -58 z m 4,62 H 157.88351 V 159.17477 H 97.883512 Z"
     id="path4635"
     inkscape:connector-curvature="0"
     sodipodi:nodetypes="cccccccccccccccccccccccccccccccccc" />
  <path
     style="display:inline;opacity:0.2;fill:#000000;fill-opacity:1;stroke:none;stroke-width:16;stroke-miterlimit:4;stroke-dasharray:none;stroke-opacity:1;filter:url(#filter12940-7);enable-background:new"
     d="m 88,-15 h 96 c 12,0 16,0 16,16 v 96 c 0,16 -4,16 -16,16 H 88 C 76,113 72,113 72,97 V 1 c 0,-16 4,-16 16,-16 z"
     id="path12938"
     inkscape:connector-curvature="0"
     sodipodi:nodetypes="sssssssss"
     transform="matrix(0.5,0,0,0.5,-2.1164873,107.17477)" />
  <path
     sodipodi:nodetypes="sssssssss"
     inkscape:connector-curvature="0"
     id="path12932"
     d="m 88,-19 h 96 c 12,0 16,0 16,16 v 96 c 0,16 -4,16 -16,16 H 88 C 76,109 72,109 72,93 V -3 c 0,-16 4,-16 16,-16 z"
     style="display:inline;opacity:0.1;fill:#000000;fill-opacity:1;stroke:none;stroke-width:16;stroke-miterlimit:4;stroke-dasharray:none;stroke-opacity:1;filter:url(#filter12934-3);enable-background:new"
     transform="matrix(0.5,0,0,0.5,-2.1164873,107.17477)" />
  <path
     style="display:inline;opacity:1;fill:#f2f2f2;fill-opacity:1;stroke:none;stroke-width:8;stroke-miterlimit:4;stroke-dasharray:none;stroke-opacity:1;enable-background:new"
     d="m 41.883512,97.174765 h 48 c 6,0 8,0 8,8.000005 v 48 c 0,8 -2,8 -8,8 h -48 c -6,0 -8,0 -8,-8 v -48 c 0,-8.000005 2,-8.000005 8,-8.000005 z"
     id="rect12893"
     inkscape:connector-curvature="0"
     sodipodi:nodetypes="sssssssss" />
  <path
     style="display:inline;opacity:1;fill:#ffffff;fill-opacity:1;stroke:none;stroke-width:8;stroke-miterlimit:4;stroke-dasharray:none;stroke-opacity:1;enable-background:new"
     d="m 41.883512,97.174765 c -6,0 -8,0 -8,8.000005 v 0.5 c 0,-8.000005 2,-8.000005 8,-8.000005 h 48 c 6,0 8,0 8,8.000005 v -0.5 c 0,-8.000005 -2,-8.000005 -8,-8.000005 z"
     id="path12927"
     inkscape:connector-curvature="0" />
  <path
     sodipodi:nodetypes="cccccccccccccccccccccccccccccccccc"
     inkscape:connector-curvature="0"
     id="path953"
     d="m 93.883512,37.174765 v 58 h -58 v 4 h 58 v 60.000005 h -58 v 4 h 58 v 58 h 4 v -58 h 59.999998 v 58 h 4 v -58 h 58 v -4 h -58 V 99.174765 h 58 v -4 h -58 v -58 h -4 v 58 H 97.883512 v -58 z m 4,62 H 157.88351 V 159.17477 H 97.883512 Z"
     style="color:#000000;display:inline;overflow:visible;visibility:visible;opacity:1;fill:#847d6c;fill-opacity:1;fill-rule:nonzero;stroke:none;stroke-width:3.00000024;marker:none;enable-background:accumulate" />
  <g
     transform="translate(-24.116488,-26.825235)"
     aria-label="7"
     style="font-style:normal;font-weight:normal;font-size:40px;line-height:1.25;font-family:sans-serif;letter-spacing:0px;word-spacing:0px;display:inline;fill:#847d6c;fill-opacity:1;stroke:none;enable-background:new"
     id="text1448">
    <path
       inkscape:connector-curvature="0"
       d="m 81.888002,112 q 0.32,-4.544 1.6,-9.6 1.344,-5.12 3.2,-9.856 1.856,-4.8 4.096,-8.832 2.24,-4.096 4.416,-6.72 h -19.2 V 72.384 H 101.088 V 76.8 q -1.919998,2.24 -4.159998,6.016 -2.24,3.776 -4.288,8.512 -1.984,4.672 -3.456,10.048 -1.472,5.312 -1.856,10.624 z"
       style="font-style:normal;font-variant:normal;font-weight:normal;font-stretch:normal;font-size:64px;font-family:'Ubuntu Mono';-inkscape-font-specification:'Ubuntu Mono';fill:#847d6c;fill-opacity:1"
       id="path1587" />
  </g>
  <g
     aria-label="1"
     style="font-style:normal;font-weight:normal;font-size:40px;line-height:1.25;font-family:sans-serif;letter-spacing:0px;word-spacing:0px;display:inline;fill:#847d6c;fill-opacity:1;stroke:none;enable-background:new"
     id="text1448-3"
     transform="translate(-22.116488,-26.825235)">
    <path
       inkscape:connector-curvature="0"
       d="m 140.768,80.576 q 3.264,-1.28 6.336,-3.2 3.072,-1.984 5.696,-4.992 h 3.712 V 107.52 H 164 V 112 h -21.312 v -4.48 h 8.576 V 79.744 q -0.704,0.64 -1.728,1.344 -0.96,0.64 -2.176,1.28 -1.152,0.64 -2.432,1.216 -1.28,0.576 -2.496,0.96 z"
       style="font-style:normal;font-variant:normal;font-weight:normal;font-stretch:normal;font-size:64px;font-family:'Ubuntu Mono';-inkscape-font-specification:'Ubuntu Mono';fill:#847d6c;fill-opacity:1"
       id="path1584" />
  </g>
  <g
     transform="translate(-24.116488,-26.825235)"
     aria-label="2"
     style="font-style:normal;font-weight:normal;font-size:40px;line-height:1.25;font-family:sans-serif;letter-spacing:0px;word-spacing:0px;display:inline;fill:#1a1a1a;fill-opacity:1;stroke:none;enable-background:new"
     id="text1448-35">
    <path
       inkscape:connector-curvature="0"
       d="m 98.848002,146.496 q 0,2.048 -0.832,3.968 -0.768,1.92 -2.112,3.776 -1.28,1.856 -2.944,3.648 -1.664,1.792 -3.392,3.52 -0.96,0.96 -2.24,2.304 -1.28,1.344 -2.432,2.752 -1.152,1.408 -1.92,2.752 -0.768,1.344 -0.768,2.304 H 100.448 V 176 H 76.448002 q -0.064,-0.32 -0.064,-0.64 0,-0.384 0,-0.704 0,-2.688 0.896,-4.992 0.896,-2.304 2.304,-4.352 1.408,-2.048 3.136,-3.84 1.792,-1.856 3.52,-3.584 1.408,-1.408 2.688,-2.752 1.344,-1.344 2.304,-2.688 1.024,-1.344 1.6,-2.752 0.64,-1.472 0.64,-3.008 0,-1.728 -0.576,-2.944 -0.512,-1.216 -1.472,-1.984 -0.896,-0.832 -2.112,-1.216 -1.216,-0.384 -2.624,-0.384 -1.664,0 -3.072,0.448 -1.344,0.448 -2.432,1.088 -1.024,0.64 -1.792,1.28 -0.768,0.576 -1.152,0.96 l -2.624,-3.712 q 0.512,-0.576 1.536,-1.408 1.024,-0.832 2.432,-1.536 1.472,-0.768 3.264,-1.28 1.792,-0.512 3.84,-0.512 6.208,0 9.152,2.88 3.008,2.816 3.008,8.128 z"
       style="font-style:normal;font-variant:normal;font-weight:normal;font-stretch:normal;font-size:64px;font-family:'Ubuntu Mono';-inkscape-font-specification:'Ubuntu Mono';fill:#1a1a1a;fill-opacity:1"
       id="path1581" />
  </g>
  <g
     transform="translate(-24.116488,-26.825235)"
     aria-label="6"
     style="font-style:normal;font-weight:normal;font-size:40px;line-height:1.25;font-family:sans-serif;letter-spacing:0px;word-spacing:0px;display:inline;fill:#847d6c;fill-opacity:1;stroke:none;enable-background:new"
     id="text1448-3-7-2">
    <path
       inkscape:connector-curvature="0"
       d="m 203.424,160.128 q 0,-5.76 1.536,-10.176 1.6,-4.48 4.48,-7.488 2.944,-3.008 7.104,-4.608 4.16,-1.6 9.408,-1.664 l 0.448,4.48 q -3.392,0.064 -6.208,0.768 -2.752,0.64 -4.928,2.176 -2.176,1.472 -3.648,3.84 -1.472,2.368 -2.24,5.824 1.536,-0.704 3.328,-1.152 1.856,-0.448 3.904,-0.448 3.328,0 5.632,1.024 2.368,1.024 3.776,2.752 1.408,1.664 2.048,3.904 0.64,2.24 0.64,4.608 0,2.176 -0.704,4.48 -0.704,2.24 -2.176,4.16 -1.472,1.856 -3.776,3.072 -2.304,1.152 -5.504,1.152 -6.592,0 -9.856,-4.416 -3.264,-4.416 -3.264,-12.288 z m 12.608,-4.096 q -2.048,0 -3.776,0.384 -1.664,0.384 -3.392,1.152 -0.064,0.64 -0.064,1.28 0,0.576 0,1.28 0,2.496 0.32,4.736 0.384,2.176 1.216,3.904 0.896,1.664 2.368,2.688 1.472,0.96 3.776,0.96 1.92,0 3.2,-0.768 1.28,-0.832 2.112,-2.048 0.832,-1.216 1.152,-2.688 0.384,-1.536 0.384,-2.88 0,-3.904 -1.792,-5.952 -1.728,-2.048 -5.504,-2.048 z"
       style="font-style:normal;font-variant:normal;font-weight:normal;font-stretch:normal;font-size:64px;font-family:'Ubuntu Mono';-inkscape-font-specification:'Ubuntu Mono';fill:#847d6c;fill-opacity:1"
       id="path1578" />
  </g>
  <g
     transform="translate(-24.116488,-26.825235)"
     aria-label="9"
     style="font-style:normal;font-weight:normal;font-size:40px;line-height:1.25;font-family:sans-serif;letter-spacing:0px;word-spacing:0px;display:inline;fill:#847d6c;fill-opacity:1;stroke:none;enable-background:new"
     id="text1448-35-0">
    <path
       inkscape:connector-curvature="0"
       d="m 100.576,216.256 q 0,11.84 -5.759998,17.856 -5.76,5.952 -17.344,6.016 l -0.192,-4.48 q 7.168,0 11.52,-2.816 4.416,-2.88 5.824,-9.856 -1.536,0.704 -3.392,1.152 -1.856,0.384 -3.904,0.384 -3.392,0 -5.696,-0.96 -2.304,-1.024 -3.712,-2.688 -1.408,-1.728 -2.048,-3.904 -0.64,-2.176 -0.64,-4.608 0,-2.176 0.704,-4.416 0.704,-2.304 2.176,-4.16 1.472,-1.856 3.776,-3.072 2.304,-1.216 5.504,-1.216 6.528,0 9.856,4.48 3.327998,4.48 3.327998,12.288 z m -12.671998,3.904 q 2.048,0 3.776,-0.384 1.792,-0.384 3.456,-1.088 0.064,-0.64 0.064,-1.216 0,-0.576 0,-1.216 0,-2.496 -0.384,-4.736 -0.32,-2.24 -1.216,-3.904 -0.832,-1.664 -2.368,-2.624 -1.472,-1.024 -3.776,-1.024 -1.92,0 -3.2,0.832 -1.28,0.768 -2.112,1.984 -0.832,1.152 -1.216,2.624 -0.32,1.472 -0.32,2.816 0,3.904 1.728,5.952 1.792,1.984 5.568,1.984 z"
       style="font-style:normal;font-variant:normal;font-weight:normal;font-stretch:normal;font-size:64px;font-family:'Ubuntu Mono';-inkscape-font-specification:'Ubuntu Mono';fill:#847d6c;fill-opacity:1"
       id="path1575" />
  </g>
  <g
     transform="translate(-24.116488,-26.825235)"
     aria-label="4"
     style="font-style:normal;font-weight:normal;font-size:40px;line-height:1.25;font-family:sans-serif;letter-spacing:0px;word-spacing:0px;display:inline;fill:#847d6c;fill-opacity:1;stroke:none;enable-background:new"
     id="text1448-3-7-2-0">
    <path
       inkscape:connector-curvature="0"
       d="m 202.272,226.304 q 1.088,-2.56 2.944,-5.888 1.92,-3.328 4.288,-6.848 2.368,-3.584 5.056,-6.976 2.688,-3.456 5.44,-6.208 h 5.12 v 25.152 h 4.672 v 4.352 H 225.12 V 240 H 220 V 229.888 H 202.272 Z M 220,206.656 q -1.728,1.856 -3.52,4.096 -1.728,2.24 -3.392,4.736 -1.664,2.432 -3.136,4.992 -1.408,2.56 -2.56,5.056 H 220 Z"
       style="font-style:normal;font-variant:normal;font-weight:normal;font-stretch:normal;font-size:64px;font-family:'Ubuntu Mono';-inkscape-font-specification:'Ubuntu Mono';fill:#847d6c;fill-opacity:1"
       id="path1572" />
  </g>
  <path
     style="color:#000000;display:inline;overflow:visible;visibility:visible;opacity:0.3;fill:#ffffff;fill-opacity:1;fill-rule:nonzero;stroke:none;stroke-width:1;marker:none;enable-background:accumulate"
     d="m 54.805392,17.174463 c -35.296728,0 -39.09487,3.62603 -38.92188,38.99414 v 2 c -0.17299,-35.36811 3.625152,-38.99414 38.92188,-38.99414 H 200.96163 c 35.29673,0 38.92188,3.62561 38.92188,38.99414 v -2 c 0,-35.36853 -3.62515,-38.99414 -38.92188,-38.99414 z"
     id="path931"
     inkscape:connector-curvature="0"
     sodipodi:nodetypes="sccsscsss" />
  <path
     style="color:#000000;display:inline;overflow:visible;visibility:visible;opacity:0.2;fill:#000000;fill-opacity:1;fill-rule:nonzero;stroke:none;stroke-width:1;marker:none;enable-background:accumulate"
     d="m 54.810792,241.17447 c -35.296731,0 -39.094875,-3.62603 -38.921885,-38.99414 v -2 c -0.17299,35.36811 3.625154,38.99414 38.921885,38.99414 H 200.96703 c 35.29673,0 38.92188,-3.62561 38.92188,-38.99414 v 2 c 0,35.36853 -3.62515,38.99414 -38.92188,38.99414 z"
     id="path931-8"
     inkscape:connector-curvature="0"
     sodipodi:nodetypes="sccsscsss" />
</svg>
