<svg enable-background="new" height="256" viewBox="0 0 256 256" width="256" xmlns="http://www.w3.org/2000/svg" xmlns:xlink="http://www.w3.org/1999/xlink">
  <linearGradient id="linearGradient1694" gradientTransform="matrix(0 1 -1 0 285.88052 -24.82284)" gradientUnits="userSpaceOnUse" x1="39.997002" x2="263.99701" y1="156" y2="156">
    <stop offset="0" stop-color="#7199c4"/>
    <stop offset="1" stop-color="#2c5289"/>
  </linearGradient>
  <linearGradient id="linearGradient4358" gradientUnits="userSpaceOnUse" x1="88" x2="488" y1="88" y2="488">
    <stop offset="0" stop-opacity=".588235"/>
    <stop offset="1" stop-opacity=".205556"/>
  </linearGradient>
  <filter id="filter4380" color-interpolation-filters="sRGB" height="1.088" width="1.106" x="-.05" y="-.04">
    <feGaussianBlur stdDeviation="8.48"/>
  </filter>
  <filter id="filter4346" color-interpolation-filters="sRGB" height="1.022" width="1.026" x="-.01" y="-.01">
    <feGaussianBlur stdDeviation="2.12"/>
  </filter>
  <path d="m141.84323 74c-70.59344 0-78.18921 7.250835-77.84323 77.98706v146.01294 146.01294c-.34598 70.73623 7.24979 77.98706 77.84323 77.98706h292.31354c70.59344 0 79.78033-7.27652 77.84323-77.98706v-146.01294-146.01294c0-70.737067-7.24979-77.98706-77.84323-77.98706z" filter="url(#filter4346)" opacity=".1" transform="matrix(.5 0 0 .5 -14.116488 -20.825537)"/>
  <path d="m141.84323 74c-70.59344 0-78.18921 7.250835-77.84323 77.98706v146.01294 146.01294c-.34598 70.73623 7.24979 77.98706 77.84323 77.98706h292.31354c70.59344 0 79.78033-7.27652 77.84323-77.98706v-146.01294-146.01294c0-70.737067-7.24979-77.98706-77.84323-77.98706z" fill="url(#linearGradient4358)" filter="url(#filter4380)" opacity=".3" transform="matrix(.5 0 0 .5 -14.116488 -20.825235)"/>
  <path d="m55.695112 13.174464c-36.098811 0-39.983002 3.69016-39.80608 39.689839v74.310167 74.31016c-.176922 35.99969 3.707269 39.68984 39.80608 39.68984h148.387318c36.09881 0 40.77464-3.70276 39.80608-39.68984v-74.31016-74.310167c0-36.000109-3.70727-39.689839-39.80608-39.689839z" opacity=".1"/>
  <path d="m202.95648 15.17446c35.29673 0 39.09461 3.62542 38.92162 38.993529v73.006471 73.00648c.17299 35.36812-3.62489 38.99353-38.92162 38.99353h-146.15675c-35.29671 0-38.921609-3.625-38.921609-38.99353v-73.00648-73.006471c0-35.368529 3.624899-38.993529 38.921609-38.993529z" fill="url(#linearGradient1694)"/>
  <path d="m17.877654 127.17477v8 65.00586c0 35.36853 3.625164 38.99414 38.921874 38.99414h146.156252c35.29673 0 39.09486-3.62602 38.92187-38.99414v-65.00586-8z" fill="#fff" opacity=".05"/>
  <g enable-background="new" transform="translate(-236.475549 -196.949152)">
    <path d="m284.59299 212.54296 53.89269 196.36301 125.83115-42.17234-29.42976-154.19067h-17.19831l27.76978 133.96071s-30.54114-123.70373-33.07736-133.96071h-36.69439-8.94644-7.61407c1.10198 6.7192 4.39022 26.60526 4.39022 28.3595 0 1.84977-7.32128-22.90134-8.94208-28.3595h-42.20727c1.18558 5.88063 24.06103 119.30468 24.06103 122.6466 0 3.42595-29.75989-122.45385-29.80545-122.6466zm179.37875 157.61985-125.14095 42.16797 1.37166 5.4867 62.05719-16.11496-23.65913 11.31409s11.15239-2.05555 16.11493 0c2.98646 1.23703 5.18496 4.09273 6.85837 6.85837 1.98354 3.27818 2.68746 7.21427 3.42917 10.97337.34694 1.75826.26282 2.97491.46743 5.35563h10.85979c-1.59958-5.85341-3.64462-14.2675-3.10155-20.44401.20264-2.30527 1.25404-4.50428 2.40261-6.51327 1.61235-2.82024 6.16815-7.54418 6.16815-7.54418l10.62826-6.854-2.05314-3.42917 35.65471-15.42912z" fill="#f9f3e3"/>
    <g fill="#315488" stroke-width=".758612" transform="matrix(2.2366102 0 0 2.2366102 238.75456 -179.93836)">
      <path d="m44.037037 208.46941c-2.420052 0-4.321521.56304-5.704408 1.6891-1.373009 1.12607-2.059513 2.667-2.059513 4.62279 0 1.68911.498827 3.00779 1.496481 3.95605.997654.94827 2.612668 1.64465 4.845043 2.08914l1.822446.3556c1.521176.30622 2.612669.76553 3.274479 1.37795.671688.61242 1.007532 1.46192 1.007532 2.54847 0 1.2446-.464255 2.20274-1.392765 2.87443-.928509.67168-2.247191 1.00753-3.956044 1.00753-1.126064 0-2.271885-.17286-3.437462-.51858-1.165575-.34573-2.355846-.85937-3.570811-1.54093v3.08186c1.264354.46425 2.484258.81491 3.659712 1.05198 1.185331.23707 2.301518.3556 3.348561.3556 2.775652 0 4.879615-.55316 6.311891-1.65946 1.442153-1.10632 2.163229-2.73121 2.163229-4.87468 0-1.79775-.533399-3.23003-1.600197-4.29683-1.05692-1.07667-2.701568-1.82739-4.933943-2.25213l-1.80763-.37042c-1.639709-.3062-2.755896-.70626-3.348562-1.20014-.582788-.50377-.874182-1.2446-.874182-2.2225 0-1.16558.43956-2.06445 1.318682-2.69663.888998-.63218 2.148413-.94826 3.778244-.94826.938388 0 1.911347.13334 2.918879.40004 1.007531.2667 2.079269.6717 3.215212 1.21497v-2.91888c-1.126065-.37535-2.227436-.65686-3.304112-.84454s-2.133597-.28153-3.170762-.28153zm42.983086 0c-3.457218 0-6.163724 1.01247-8.119522 3.03742-1.945919 2.01506-2.918878 4.83022-2.918878 8.44549 0 3.60538.972959 6.42054 2.918878 8.44548 1.955798 2.01507 4.662304 3.0226 8.119522 3.0226 1.580441 0 3.067045-.20743 4.459809-.6223 1.392767-.42474 2.667-1.04705 3.822693-1.8669v-9.49746h-7.85282v2.45955h4.889491v5.94148c-.661808.38523-1.407579.67169-2.237311.85937-.829732.17779-1.773059.26669-2.82998.26669-2.706506 0-4.741326-.75564-6.104457-2.26694-1.353254-1.5113-2.02988-3.75849-2.02988-6.74157 0-2.99297.676626-5.2451 2.02988-6.75639 1.363131-1.5113 3.397951-2.26695 6.104457-2.26695 1.37301 0 2.681814.23707 3.926411.7112s2.420052 1.18039 3.526359 2.11878v-3.18558c-1.09643-.69144-2.296577-1.21496-3.600442-1.57056-1.293987-.3556-2.662058-.53341-4.10421-.53341zm-33.24855.40006 8.445487 22.12124h3.393012l8.43067-22.12124h-3.111496l-7.023089 18.62452-7.008272-18.62452z"/>
      <path d="m42.868694 234.13629c-1.451044 0-2.593901.44466-3.428572 1.33498-.834671.88603-1.252006 2.09952-1.252006 3.64045 0 1.53665.417335 2.75013 1.252006 3.64045.834671.88603 1.977528 1.32905 3.428572 1.32905.565008 0 1.09956-.077 1.604642-.23114.509364-.15409.990904-.38522 1.444623-.69342v-1.35424c-.436597.40664-.902169.71004-1.398691.91123-.492242.20117-1.01708.30225-1.573528.30225-1.095773 0-1.935219-.33386-2.517347-1.0016-.58213-.67202-.872701-1.63987-.872701-2.90258 0-1.26699.290571-2.23485.872701-2.90258.582128-.67202 1.421574-1.00754 2.517347-1.00754.556448 0 1.081286.10109 1.573528.30227.496522.20117.962094.50459 1.398691.91122v-1.36758c-.445157-.3039-.921924-.53027-1.431288-.68008-.505082-.15409-1.044408-.23114-1.617977-.23114zm5.06581.17335v9.58489h5.965181v-1.0905h-4.668724v-8.49439zm7.319423 0v9.58489h6.177059v-1.0905h-4.880603v-3.47451h4.565008v-1.0905h-4.565008v-2.83887h4.765033v-1.09051zm10.792444 0-3.659712 9.58489h1.367577l.874181-2.45808h4.320534l.872701 2.45808h1.348314l-3.652303-9.58489zm6.517842 0v9.58489h1.257933v-8.01877l4.250895 8.01877h1.745401v-9.58489h-1.257933v8.01877l-4.250896-8.01877zm9.835288 0v9.58489h6.177059v-1.0905h-4.879121v-3.47451h4.565008v-1.0905h-4.565008v-2.83887h4.763551v-1.09051zm8.321028 0v9.58489h1.297937v-4.05087h1.412027c.513643 0 .918137.10438 1.213485.31412.299622.20973.607808.63662.924559 1.27867l1.226813 2.45808h1.392764l-1.315712-2.61958c-.265386-.53932-.531757-.96308-.797135-1.27127-.261106-.30818-.53077-.50887-.808991-.60304.535041-.15409.942666-.43018 1.220887-.82825.282508-.39807.423761-.89887.423761-1.50241 0-.92455-.269664-1.61633-.808992-2.07432-.539327-.45801-1.357862-.68602-2.453634-.68602zm1.297937 1.06532h1.629832c.624932 0 1.096758.14289 1.413509.42968.321022.28251.481537.70462.481537 1.26534 0 .56074-.160515.98614-.481537 1.2772-.316751.28679-.788577.43117-1.413509.43117h-1.629832zm-25.240153.21188 1.766144 4.77096h-3.52488z"/>
    </g>
  </g>
  <path d="m56.805392 15.174464c-35.296728 0-39.094869 3.62603-38.921879 38.994139v2c-.17299-35.368109 3.625151-38.994139 38.921879-38.994139h146.156238c35.29673 0 38.92188 3.62561 38.92188 38.994139v-2c0-35.368529-3.62515-38.994139-38.92188-38.994139z" fill="#fff" opacity=".3"/>
  <path d="m56.810792 239.17447c-35.296731 0-39.094874-3.62603-38.921884-38.99414v-2c-.17299 35.36811 3.625153 38.99414 38.921884 38.99414h146.156238c35.29673 0 38.92188-3.62561 38.92188-38.99414v2c0 35.36853-3.62515 38.99414-38.92188 38.99414z" opacity=".2"/>
</svg>
