<svg height="256" width="256" xmlns="http://www.w3.org/2000/svg" xmlns:xlink="http://www.w3.org/1999/xlink">
  <filter id="filter11191" color-interpolation-filters="sRGB" height="1.024" width="1.024" x="-.01" y="-.01">
    <feGaussianBlur stdDeviation="1.12"/>
  </filter>
  <filter id="filter11210" color-interpolation-filters="sRGB" height="1.096" width="1.096" x="-.05" y="-.05">
    <feGaussianBlur stdDeviation="4.48"/>
  </filter>
  <circle cx="128.752" cy="127.248" filter="url(#filter11210)" opacity=".1" r="112"/>
  <circle cx="128.752" cy="125.248" filter="url(#filter11191)" opacity=".1" r="112"/>
  <circle cx="128.752" cy="123.248" opacity=".1" r="114"/>
  <circle cx="128.752" cy="123.106" fill="#2daaaa" r="112"/>
  <g fill="#fff">
    <path d="m128.75195 71.646484a51.459421 51.459421 0 0 0 -51.458981 51.458986 51.459421 51.459421 0 0 0 .851562 9.08203h82.603519a33.297268 33.297268 0 0 1 -31.9961 24.21484 33.297268 33.297268 0 0 1 -25.64648-12.10742h-21.189454a51.459421 51.459421 0 0 0 46.835934 30.26953 51.459421 51.459421 0 0 0 51.45899-51.45898 51.459421 51.459421 0 0 0 -.85156-9.08008h-82.603521a33.297268 33.297268 0 0 1 31.996091-24.216796 33.297268 33.297268 0 0 1 25.64649 12.107426h21.18945a51.459421 51.459421 0 0 0 -46.83594-30.269536z"/>
    <path d="m137.83398 234.68555v-24.28125a87.783715 87.783715 0 0 0 77.37696-72.16407h-18.55274a69.621566 69.621566 0 0 1 -67.90625 54.48633 69.621566 69.621566 0 0 1 -67.859372-54.48633h-18.517578a87.783715 87.783715 0 0 0 77.29688 72.14063v24.27148a112 112 0 0 0 9.08007.45313 112 112 0 0 0 7.92188-.2793 112 112 0 0 0 1.16015-.14062z"/>
    <path d="m128.75195 11.105469a112 112 0 0 0 -7.92187.28125 112 112 0 0 0 -1.1582.140625v24.279297a87.783715 87.783715 0 0 0 -77.378911 72.164059h18.552734a69.621566 69.621566 0 0 1 67.906247-54.486325 69.621566 69.621566 0 0 1 67.85938 54.486325h18.51758a87.783715 87.783715 0 0 0 -77.29493-72.140622v-24.269531a112 112 0 0 0 -9.08203-.455078z"/>
  </g>
  <path d="m128.752 235.248a112 112 0 0 1 -112.000001-112 112 112 0 0 1 .04102-1.16992 112 112 0 0 0 111.958981 111.16992 112 112 0 0 0 111.95898-110.83008 112 112 0 0 1 .041.83008 112 112 0 0 1 -112 112z" opacity=".2"/>
  <path d="m128.752 11.248006a112 112 0 0 0 -112.000001 111.999994 112 112 0 0 0 .04102 1.16992 112 112 0 0 1 111.958981-111.169914 112 112 0 0 1 111.95898 110.830074 112 112 0 0 0 .041-.83008 112 112 0 0 0 -112-111.999994z" fill="#fff" opacity=".3"/>
  <path d="m128.75195 51.484379a69.621566 69.621566 0 0 0 -67.90625 54.486331h-18.10547a87.783715 87.783715 0 0 0 -.44726 2h18.55273a69.621566 69.621566 0 0 1 67.90625-54.486331 69.621566 69.621566 0 0 1 67.85938 54.486331h18.51758a87.783715 87.783715 0 0 0 -.45508-2h-18.0625a69.621566 69.621566 0 0 0 -67.85938-54.486331zm0 36.324219a33.297268 33.297268 0 0 0 -31.99609 24.216792h.67578a33.297268 33.297268 0 0 1 31.32031-22.216792 33.297268 33.297268 0 0 1 25.64649 12.107422h21.18945a51.459421 51.459421 0 0 0 -1.02734-2.000001h-20.16211a33.297268 33.297268 0 0 0 -25.64649-12.107421zm-51.41601 34.082032a51.459421 51.459421 0 0 0 -.04297 1.21484 51.459421 51.459421 0 0 0 .85156 9.08203h81.92773a33.297268 33.297268 0 0 0 .67579-2h-82.60352a51.459421 51.459421 0 0 1 -.80859-8.29687zm102.83203.42969a51.459421 51.459421 0 0 1 -51.41602 50.24414 51.459421 51.459421 0 0 1 -45.80859-28.26953h-1.02734a51.459421 51.459421 0 0 0 46.83593 30.26953 51.459421 51.459421 0 0 0 51.45899-51.45899 51.459421 51.459421 0 0 0 -.043-.78515zm-137.79297 15.91992a87.783715 87.783715 0 0 0 77.29687 72.14062v-2a87.783715 87.783715 0 0 1 -76.84179-70.14062zm172.38867 0a87.783715 87.783715 0 0 1 -76.92969 70.16406v2a87.783715 87.783715 0 0 0 77.37696-72.16406zm-95.0918 94.41211v2a112 112 0 0 0 9.08008.45312 112 112 0 0 0 7.92188-.27929 112 112 0 0 0 1.16015-.14063v-2a112 112 0 0 1 -1.16015.14063 112 112 0 0 1 -7.92188.27929 112 112 0 0 1 -9.08008-.45312z" opacity=".2"/>
</svg>
