<?xml version="1.0" encoding="UTF-8" standalone="no"?>
<svg
   xmlns:osb="http://www.openswatchbook.org/uri/2009/osb"
   xmlns:dc="http://purl.org/dc/elements/1.1/"
   xmlns:cc="http://creativecommons.org/ns#"
   xmlns:rdf="http://www.w3.org/1999/02/22-rdf-syntax-ns#"
   xmlns:svg="http://www.w3.org/2000/svg"
   xmlns="http://www.w3.org/2000/svg"
   xmlns:xlink="http://www.w3.org/1999/xlink"
   xmlns:sodipodi="http://sodipodi.sourceforge.net/DTD/sodipodi-0.dtd"
   xmlns:inkscape="http://www.inkscape.org/namespaces/inkscape"
   width="256"
   height="256"
   version="1.1"
   id="svg66"
   sodipodi:docname="system-settings.svg"
   inkscape:version="0.92.3 (2405546, 2018-03-11)">
  <metadata
     id="metadata70">
    <rdf:RDF>
      <cc:Work
         rdf:about="">
        <dc:format>image/svg+xml</dc:format>
        <dc:type
           rdf:resource="http://purl.org/dc/dcmitype/StillImage" />
      </cc:Work>
    </rdf:RDF>
  </metadata>
  <sodipodi:namedview
     pagecolor="#ffffff"
     bordercolor="#666666"
     borderopacity="1"
     objecttolerance="10"
     gridtolerance="10"
     guidetolerance="10"
     inkscape:pageopacity="0"
     inkscape:pageshadow="2"
     inkscape:window-width="640"
     inkscape:window-height="480"
     id="namedview68"
     showgrid="false"
     inkscape:zoom="0.921875"
     inkscape:cx="128"
     inkscape:cy="128"
     inkscape:window-x="0"
     inkscape:window-y="34"
     inkscape:window-maximized="0"
     inkscape:current-layer="svg66" />
  <defs
     id="defs34">
    <linearGradient
       id="linearGradient5606"
       osb:paint="solid">
      <stop
         id="stop5608"
         offset="0"
         style="stop-color:#000000" />
    </linearGradient>
    <linearGradient
       id="linearGradient4526"
       osb:paint="solid">
      <stop
         id="stop4528"
         offset="0"
         style="stop-color:#ffffff" />
    </linearGradient>
    <linearGradient
       id="linearGradient3600-4"
       osb:paint="gradient">
      <stop
         id="stop3602-7"
         offset="0"
         style="stop-color:#f4f4f4" />
      <stop
         id="stop3604-6"
         offset="1"
         style="stop-color:#dbdbdb" />
    </linearGradient>
    <linearGradient
       id="linearGradient955"
       x1="200"
       x2="200"
       y1="268"
       y2="44"
       gradientTransform="translate(-23.799997,-31.303983)"
       gradientUnits="userSpaceOnUse"
       xlink:href="#linearGradient945" />
    <linearGradient
       id="linearGradient945">
      <stop
         id="stop943"
         offset="0"
         style="stop-color:#e6e6e6" />
      <stop
         id="stop941"
         offset="1"
         style="stop-color:#d3d3d3" />
    </linearGradient>
    <linearGradient
       id="linearGradient1035"
       x1="152"
       x2="152"
       y1="100"
       y2="212"
       gradientTransform="translate(-23.799997,-31.303983)"
       gradientUnits="userSpaceOnUse"
       xlink:href="#linearGradient1033" />
    <linearGradient
       id="linearGradient1033">
      <stop
         style="stop-color:#000000;stop-opacity:0"
         id="stop1029"
         offset="0" />
      <stop
         id="stop1037"
         offset=".5"
         style="stop-color:#000000" />
      <stop
         style="stop-color:#000000;stop-opacity:0"
         id="stop1031"
         offset="1" />
    </linearGradient>
    <filter
       style="color-interpolation-filters:sRGB"
       id="filter1025"
       width="1.048"
       height="1.048"
       x="-.02"
       y="-.02">
      <feGaussianBlur
         id="feGaussianBlur1027"
         stdDeviation="1.5" />
    </filter>
    <linearGradient
       id="linearGradient982"
       x1="152"
       x2="152"
       y1="124"
       y2="236"
       gradientUnits="userSpaceOnUse"
       xlink:href="#linearGradient980" />
    <linearGradient
       id="linearGradient980">
      <stop
         style="stop-color:#000000"
         id="stop976"
         offset="0" />
      <stop
         style="stop-color:#000000;stop-opacity:0"
         id="stop978"
         offset="1" />
    </linearGradient>
    <clipPath
       id="clipPath999"
       clipPathUnits="userSpaceOnUse">
      <path
         style="fill:#5d5d5d"
         d="m 152,68 c -48.60106,0 -88,39.39894 -88,88 0,48.60106 39.39894,88 88,88 48.60106,0 88,-39.39894 88,-88 0,-48.60106 -39.39894,-88 -88,-88 z"
         id="path24" />
    </clipPath>
    <filter
       style="color-interpolation-filters:sRGB"
       id="filter1003"
       width="1.12"
       height="1.12"
       x="-.06"
       y="-.06">
      <feGaussianBlur
         id="feGaussianBlur1005"
         stdDeviation="4.4" />
    </filter>
    <linearGradient
       id="linearGradient11065"
       x1="104"
       x2="200"
       y1="44"
       y2="268"
       gradientTransform="translate(-280.2,-280.69602)"
       gradientUnits="userSpaceOnUse"
       xlink:href="#linearGradient945" />
    <filter
       style="color-interpolation-filters:sRGB"
       id="filter11191"
       width="1.024"
       height="1.024"
       x="-.01"
       y="-.01">
      <feGaussianBlur
         id="feGaussianBlur11193"
         stdDeviation="1.12" />
    </filter>
    <filter
       style="color-interpolation-filters:sRGB"
       id="filter11210"
       width="1.096"
       height="1.096"
       x="-.05"
       y="-.05">
      <feGaussianBlur
         id="feGaussianBlur11212"
         stdDeviation="4.48" />
    </filter>
  </defs>
  <circle
     style="opacity:0.1;filter:url(#filter11210)"
     cx="128.2"
     cy="128.69601"
     r="112"
     id="circle36" />
  <circle
     style="opacity:0.1;filter:url(#filter11191)"
     cx="128.2"
     cy="126.69601"
     r="112"
     id="circle38" />
  <circle
     style="opacity:0.1"
     cx="128.2"
     cy="124.69601"
     r="114"
     id="circle40" />
  <circle
     style="fill:url(#linearGradient11065)"
     cx="-128.2"
     cy="-124.69601"
     r="112"
     transform="scale(-1)"
     id="circle42" />
  <path
     style="opacity:0.25;fill:#ffffff"
     d="M 16.200002,134.39193 A 112.5345,112.53445 0 0 0 128.17753,236.69602 112.5345,112.53445 0 0 0 240.2,134.39193 Z"
     id="path44"
     inkscape:connector-curvature="0" />
  <circle
     style="fill:#5d5d5d"
     cx="128.2"
     cy="-124.69601"
     r="88"
     transform="scale(1,-1)"
     id="circle46" />
  <path
     style="opacity:0.05"
     d="M 40.200002,124.69602 A 88,88 0 0 1 128.2,36.696014 a 88,88 0 0 1 88,88.000006 z"
     id="path48"
     inkscape:connector-curvature="0" />
  <path
     style="opacity:0.2;fill:none;stroke:url(#linearGradient982);stroke-width:10;stroke-linejoin:round;filter:url(#filter1003)"
     d="m 152,70 c -48.60106,0 -88,39.39894 -88,88 0,48.60106 39.39894,88 88,88 48.60106,0 88,-39.39894 88,-88 0,-48.60106 -39.39894,-88 -88,-88 z"
     clip-path="url(#clipPath999)"
     transform="translate(-23.799997,-31.303983)"
     id="path50"
     inkscape:connector-curvature="0" />
  <path
     style="opacity:0.2;fill-opacity:0.71428576;filter:url(#filter1025)"
     d="m 128.2,51.701874 c -5.39372,-0.06 -7.28039,0.14029 -8.03906,6.66211 l -0.28906,2.30469 c -0.66573,4.22983 -0.793,6.14517 -4.79493,7.18164 -0.26817,0.0599 -0.53589,0.12007 -0.80273,0.18359 -0.0631,0.013 -0.11886,0.0282 -0.1836,0.041 l 0.008,0.002 c -1.01036,0.24375 -2.00991,0.51443 -3,0.80859 l 0.01,-0.0117 c -0.16537,0.0565 -0.31605,0.10151 -0.47265,0.15039 -0.14986,0.0458 -0.29985,0.0898 -0.44922,0.13672 -4.02147,1.12811 -5.08541,-0.46762 -7.78711,-3.81055 l -1.4043,-1.85156 c -1.958978,-2.63437 -3.369838,-3.75873 -4.873038,-3.88086 -0.18789,-0.0153 -0.37832,-0.0151 -0.57032,0 -1.3439,0.10545 -2.81717,0.93022 -4.84765,2.13281 -4.70108,2.64491 -6.23474,3.7597 -3.63086,9.78711 l 0.90039,2.14062 c 1.65637,4.30254 2.51833,5.96731 -1.30274,9.30469 l 0.10157,-0.0234 c -0.78976,0.74858 -1.55804,1.51883 -2.30665,2.3086 l 0.0215,-0.10157 c -3.33739,3.82107 -5.00215,2.95911 -9.30469,1.30274 l -2.14062,-0.90235 c -1.88356,-0.81371 -3.28745,-1.22275 -4.40821,-1.25781 -2.46566,-0.0772 -3.56052,1.65668 -5.3789,4.88867 -2.7488,4.6411 -3.52069,6.37502 1.74804,10.29297 l 1.85157,1.404296 c 3.34293,2.70171 4.93866,3.76565 3.81054,7.78712 -0.047,0.14937 -0.0909,0.29936 -0.13671,0.44922 -0.0489,0.1566 -0.0919,0.30729 -0.14844,0.47265 l 0.01,-0.01 c -0.29416,0.99009 -0.56485,1.98964 -0.8086,3 l -0.002,-0.008 c -0.0127,0.0647 -0.028,0.12053 -0.041,0.1836 -0.0635,0.26684 -0.12365,0.53456 -0.18359,0.80273 -1.03646,4.00194 -2.95181,4.1292 -7.18164,4.79493 l -2.30469,0.28906 c -6.52182,0.75868 -6.72208,2.64535 -6.66211,8.03906 -0.06,5.39372 0.14029,7.2804 6.66211,8.03906 l 2.30469,0.28906 c 4.22983,0.66573 6.14518,0.793 7.18164,4.79493 0.0599,0.26818 0.12007,0.5359 0.18359,0.80273 0.013,0.0631 0.0282,0.11886 0.041,0.1836 l 0.002,-0.008 c 0.24375,1.01037 0.51444,2.00991 0.8086,3 l -0.0117,-0.01 c 0.0565,0.16537 0.10147,0.31605 0.15039,0.47265 0.0458,0.14985 0.0897,0.29986 0.13672,0.44922 1.12811,4.02147 -0.46762,5.08542 -3.81055,7.78711 l -1.85156,1.4043 c -5.26873,3.91794 -4.49684,5.6499 -1.74805,10.29101 2.64492,4.70108 3.75971,6.23474 9.78711,3.63086 l 2.14063,-0.90039 c 4.30252,-1.65637 5.96729,-2.51832 9.30468,1.30274 l -0.0234,-0.10157 c 0.74858,0.78976 1.51884,1.55807 2.3086,2.30665 l -0.10157,-0.0215 c 3.82107,3.3374 2.95911,5.00215 1.30274,9.30469 l -0.90235,2.14062 c -2.60388,6.0274 -1.07022,7.14414 3.63086,9.78907 4.6411,2.74879 6.37502,3.51873 10.292968,-1.75 l 1.4043,-1.85157 c 2.70169,-3.34294 3.76565,-4.93865 7.78711,-3.81054 0.14937,0.047 0.29936,0.0909 0.44922,0.13672 0.1566,0.0489 0.30728,0.0938 0.47265,0.15039 l -0.01,-0.0117 c 0.99009,0.29416 1.98964,0.56484 3,0.80859 l -0.008,0.002 c 0.0647,0.0128 0.12053,0.028 0.1836,0.041 0.26684,0.0635 0.53456,0.12365 0.80273,0.18359 4.00193,1.03647 4.12919,2.95182 4.79493,7.18164 l 0.28906,2.30469 c 0.75867,6.52182 2.64534,6.72209 8.03906,6.66211 5.39371,0.06 7.28039,-0.14029 8.03906,-6.66211 l 0.28906,-2.30469 c 0.66576,-4.22983 0.79299,-6.14518 4.79493,-7.18164 0.26817,-0.06 0.5359,-0.12007 0.80273,-0.18359 0.0631,-0.0131 0.11886,-0.0281 0.1836,-0.041 l -0.008,-0.002 c 1.01037,-0.24375 2.0099,-0.51443 3,-0.80859 l -0.01,0.0117 c 0.16536,-0.0565 0.31604,-0.10151 0.47265,-0.15039 0.14985,-0.0458 0.29986,-0.0897 0.44922,-0.13672 4.02147,-1.1281 5.08542,0.46761 7.78711,3.81054 l 1.4043,1.85157 c 3.91794,5.26872 5.6499,4.49685 10.29101,1.74804 4.70108,-2.64491 6.23475,-3.7597 3.63086,-9.78711 l -0.90039,-2.14062 c -1.65641,-4.30248 -2.51833,-5.96729 1.30274,-9.30469 l -0.10157,0.0234 c 0.78977,-0.74858 1.55807,-1.51884 2.30665,-2.3086 l -0.0215,0.10157 c 3.3374,-3.82106 5.00215,-2.95912 9.30469,-1.30274 l 2.14062,0.90235 c 6.0274,2.60387 7.14218,1.07022 9.78711,-3.63086 2.74879,-4.64111 3.5207,-6.37503 -1.74804,-10.29297 l -1.85157,-1.4043 c -3.34293,-2.70168 -4.93866,-3.76564 -3.81054,-7.78711 0.047,-0.14936 0.0908,-0.29937 0.13672,-0.44922 0.0489,-0.1566 0.092,-0.30728 0.14843,-0.47265 l -0.01,0.01 c 0.29416,-0.99009 0.56484,-1.98963 0.80859,-3 l 0.002,0.008 c 0.0128,-0.0647 0.028,-0.12052 0.041,-0.1836 0.0635,-0.26683 0.12365,-0.53455 0.18359,-0.80273 1.03647,-4.00193 2.9518,-4.12919 7.18164,-4.79493 l 2.30469,-0.28906 c 6.52182,-0.75867 6.72209,-2.64534 6.66211,-8.03906 0.06,-5.3937 -0.14028,-7.28038 -6.66211,-8.03906 l -2.30469,-0.28906 c -4.22984,-0.66574 -6.14517,-0.79299 -7.18164,-4.79493 -0.06,-0.26816 -0.12007,-0.53589 -0.18359,-0.80273 -0.0131,-0.0631 -0.0281,-0.11887 -0.041,-0.1836 l -0.002,0.008 c -0.24375,-1.01036 -0.51442,-2.0099 -0.80859,-3 l 0.0117,0.01 c -0.0565,-0.16536 -0.10151,-0.31604 -0.15039,-0.47265 -0.0458,-0.14986 -0.0897,-0.29985 -0.13672,-0.44922 -1.12811,-4.02147 0.46762,-5.08541 3.81054,-7.78712 l 1.85157,-1.404296 c 5.26873,-3.91794 4.49684,-5.6499 1.74804,-10.29101 -1.81838,-3.23199 -2.91322,-4.96776 -5.3789,-4.89063 -1.12074,0.0351 -2.52465,0.44605 -4.40821,1.25977 l -2.14062,0.90039 c -4.30247,1.6564 -5.9673,2.51834 -9.30469,-1.30274 l 0.0234,0.10157 c -0.74858,-0.78977 -1.51883,-1.55806 -2.3086,-2.30665 l 0.10157,0.0215 c -3.82106,-3.33739 -2.95912,-5.00215 -1.30274,-9.30469 l 0.90235,-2.14062 c 2.60387,-6.0274 1.07022,-7.14219 -3.63086,-9.78711 -2.32056,-1.3744 -3.91477,-2.25494 -5.41797,-2.13281 -1.5032,0.12213 -2.91603,1.24649 -4.875,3.88086 l -1.4043,1.85156 c -2.70169,3.34293 -3.76564,4.93865 -7.78711,3.81055 -0.14936,-0.047 -0.29937,-0.0909 -0.44922,-0.13672 -0.15661,-0.0489 -0.30729,-0.0919 -0.47265,-0.14844 l 0.01,0.01 c -0.9901,-0.29416 -1.98963,-0.56485 -3,-0.80859 l 0.008,-0.002 c -0.0647,-0.0127 -0.12052,-0.028 -0.1836,-0.041 -0.26683,-0.0635 -0.53456,-0.12366 -0.80273,-0.1836 -4.00194,-1.03647 -4.12918,-2.95181 -4.79493,-7.18164 l -0.28906,-2.30468 c -0.75866,-6.52207 -2.64534,-6.72234 -8.03905,-6.66236 z m -0.0117,30.99414 c 0.004,-1e-5 0.008,-1e-5 0.0117,0 5.06531,3e-4 9.96082,0.87493 14.53516,2.48047 a 12,12 0 0 0 5.46484,6.87891 12,12 0 0 0 8.66992,1.29101 c 7.20335,6.1907 12.42982,14.703726 14.43946,24.548836 0.50642,2.48002 -1.38873,4.80104 -3.91993,4.80078 h -12.3789 c -1.76926,1.5e-4 -3.32848,-1.16191 -3.83399,-2.85742 -3.03409,-10.17667 -12.3486,-17.12613 -22.96679,-17.14063 -1.86552,0.0101 -3.72427,0.23539 -5.53711,0.67578 -1.72527,0.41898 -3.52028,-0.34928 -4.40821,-1.88671 l -6.17968,-10.701186 c -1.26291,-2.1886 -0.20551,-4.98537 2.18945,-5.79101 4.48467,-1.50955 9.18217,-2.28583 13.91406,-2.29883 z m -26.30664,10.0957 c 1.3611,0.0638 2.59614,0.816 3.27734,1.9961 l 6.17969,10.701176 c 0.88545,1.53347 0.65743,3.4666 -0.56055,4.75195 -4.21283,4.44663 -6.56562,10.3318 -6.57812,16.45703 0.007,6.12872 2.3554,12.01941 6.56836,16.47071 1.21703,1.28501 1.44502,3.21699 0.56055,4.75 l -6.16211,10.67578 c -1.26486,2.19101 -4.22044,2.67243 -6.115238,0.99609 -7.35823,-6.50704 -12.25407,-15.23839 -14.0625,-24.74023 a 12,12 0 0 0 3.21094,-8.1543 12,12 0 0 0 -3.21289,-8.15039 c 1.80449,-9.50615 6.6973,-18.24247 14.05664,-24.753916 0.779779,-0.68994 1.797838,-1.0487 2.837888,-1 z m 53.13867,37.904306 h 12.32813 c 2.53119,-2.4e-4 4.42635,2.32077 3.91992,4.80078 -2.00843,9.83928 -7.23024,18.34896 -14.42774,24.53906 a 12,12 0 0 0 -2.92382,-0.30273 12,12 0 0 0 -5.7168,1.60351 12,12 0 0 0 -5.45312,6.86133 c -4.57562,1.61246 -9.47418,2.49256 -14.54297,2.49805 -0.006,2e-5 -0.0125,2e-5 -0.0195,0 -4.72985,-0.0188 -9.42516,-0.80071 -13.90626,-2.31445 -2.39212,-0.80764 -3.44709,-3.60206 -2.18554,-5.78907 l 6.16992,-10.6875 c 0.88793,-1.53742 2.68293,-2.30568 4.4082,-1.88671 1.81402,0.44068 3.67428,0.66578 5.54102,0.67578 10.62131,-0.0108 19.93962,-6.96097 22.97461,-17.14063 0.50551,-1.6955 2.06472,-2.85757 3.83398,-2.85742 z"
     id="path52"
     inkscape:connector-curvature="0" />
  <path
     d="m 128.2,53.701874 c -5.39372,-0.06 -7.28039,0.14029 -8.03906,6.66211 l -0.28906,2.30469 c -0.66573,4.22983 -0.793,6.14517 -4.79493,7.18164 -0.26817,0.0599 -0.53589,0.12007 -0.80273,0.18359 -0.0631,0.013 -0.11886,0.0282 -0.1836,0.041 l 0.008,0.002 c -1.01036,0.24375 -2.00991,0.51443 -3,0.80859 l 0.01,-0.0117 c -0.16537,0.0565 -0.31605,0.10151 -0.47265,0.15039 -0.14986,0.0458 -0.29985,0.0898 -0.44922,0.13672 -4.02147,1.12811 -5.08541,-0.46762 -7.78711,-3.81055 l -1.4043,-1.85156 c -1.958978,-2.63437 -3.369838,-3.75873 -4.873038,-3.88086 -0.18789,-0.0153 -0.37832,-0.0151 -0.57032,0 -1.3439,0.10545 -2.81717,0.93022 -4.84765,2.13281 -4.70108,2.64491 -6.23474,3.7597 -3.63086,9.78711 l 0.90039,2.14062 c 1.65637,4.30254 2.51833,5.96731 -1.30274,9.30469 l 0.10157,-0.0234 c -0.78976,0.74858 -1.55804,1.51883 -2.30665,2.3086 l 0.0215,-0.10157 c -3.33739,3.82107 -5.00215,2.95911 -9.30469,1.30274 l -2.14062,-0.90235 c -1.88356,-0.81371 -3.28745,-1.22275 -4.40821,-1.25781 -2.46566,-0.0772 -3.56052,1.65668 -5.3789,4.88867 -2.7488,4.6411 -3.52069,6.37502 1.74804,10.292976 l 1.85157,1.4043 c 3.34293,2.7017 4.93866,3.76564 3.81054,7.78711 -0.047,0.14937 -0.0909,0.29936 -0.13671,0.44922 -0.0489,0.1566 -0.0919,0.30729 -0.14844,0.47265 l 0.01,-0.01 c -0.29416,0.99009 -0.56485,1.98964 -0.8086,3 l -0.002,-0.008 c -0.0127,0.0647 -0.028,0.12053 -0.041,0.1836 -0.0635,0.26684 -0.12365,0.53456 -0.18359,0.80273 -1.03646,4.00194 -2.95181,4.1292 -7.18164,4.79493 l -2.30469,0.28906 c -6.52182,0.75868 -6.72208,2.64535 -6.66211,8.03906 -0.06,5.39372 0.14029,7.2804 6.66211,8.03906 l 2.30469,0.28906 c 4.22983,0.66573 6.14518,0.793 7.18164,4.79493 0.0599,0.26818 0.12007,0.5359 0.18359,0.80273 0.013,0.0631 0.0282,0.11886 0.041,0.1836 l 0.002,-0.008 c 0.24375,1.01037 0.51444,2.00991 0.8086,3 l -0.0117,-0.01 c 0.0565,0.16537 0.10147,0.31605 0.15039,0.47265 0.0458,0.14985 0.0897,0.29986 0.13672,0.44922 1.12811,4.02147 -0.46762,5.08542 -3.81055,7.78711 l -1.85156,1.4043 c -5.26873,3.91794 -4.49684,5.6499 -1.74805,10.29101 2.64492,4.70108 3.75971,6.23474 9.78711,3.63086 l 2.14063,-0.90039 c 4.30252,-1.65637 5.96729,-2.51832 9.30468,1.30274 l -0.0234,-0.10157 c 0.74858,0.78976 1.51884,1.55807 2.3086,2.30665 l -0.10157,-0.0215 c 3.82107,3.3374 2.95911,5.00215 1.30274,9.30469 l -0.90235,2.14062 c -2.60388,6.0274 -1.07022,7.14414 3.63086,9.78907 4.6411,2.74879 6.37502,3.51873 10.292968,-1.75 l 1.4043,-1.85157 c 2.70169,-3.34294 3.76565,-4.93865 7.78711,-3.81054 0.14937,0.047 0.29936,0.0909 0.44922,0.13672 0.1566,0.0489 0.30728,0.0938 0.47265,0.15039 l -0.01,-0.0117 c 0.99009,0.29416 1.98964,0.56484 3,0.80859 l -0.008,0.002 c 0.0647,0.0128 0.12053,0.028 0.1836,0.041 0.26684,0.0635 0.53456,0.12365 0.80273,0.18359 4.00193,1.03647 4.12919,2.95182 4.79493,7.18164 l 0.28906,2.30469 c 0.75867,6.52182 2.64534,6.72209 8.03906,6.66211 5.39371,0.06 7.28039,-0.14029 8.03906,-6.66211 l 0.28906,-2.30469 c 0.66576,-4.22983 0.79299,-6.14518 4.79493,-7.18164 0.26817,-0.06 0.5359,-0.12007 0.80273,-0.18359 0.0631,-0.0131 0.11886,-0.0281 0.1836,-0.041 l -0.008,-0.002 c 1.01037,-0.24375 2.0099,-0.51443 3,-0.80859 l -0.01,0.0117 c 0.16536,-0.0565 0.31604,-0.10151 0.47265,-0.15039 0.14985,-0.0458 0.29986,-0.0897 0.44922,-0.13672 4.02147,-1.1281 5.08542,0.46761 7.78711,3.81054 l 1.4043,1.85157 c 3.91794,5.26872 5.6499,4.49685 10.29101,1.74804 4.70108,-2.64491 6.23475,-3.7597 3.63086,-9.78711 l -0.90039,-2.14062 c -1.65641,-4.30248 -2.51833,-5.96729 1.30274,-9.30469 l -0.10157,0.0234 c 0.78977,-0.74858 1.55807,-1.51884 2.30665,-2.3086 l -0.0215,0.10157 c 3.3374,-3.82106 5.00215,-2.95912 9.30469,-1.30274 l 2.14062,0.90235 c 6.0274,2.60387 7.14218,1.07022 9.78711,-3.63086 2.74879,-4.64111 3.5207,-6.37503 -1.74804,-10.29297 l -1.85157,-1.4043 c -3.34293,-2.70168 -4.93866,-3.76564 -3.81054,-7.78711 0.047,-0.14936 0.0908,-0.29937 0.13672,-0.44922 0.0489,-0.1566 0.092,-0.30728 0.14843,-0.47265 l -0.01,0.01 c 0.29416,-0.99009 0.56484,-1.98963 0.80859,-3 l 0.002,0.008 c 0.0128,-0.0647 0.028,-0.12052 0.041,-0.1836 0.0635,-0.26683 0.12365,-0.53455 0.18359,-0.80273 1.03647,-4.00193 2.9518,-4.12919 7.18164,-4.79493 l 2.30469,-0.28906 c 6.52182,-0.75867 6.72209,-2.64534 6.66211,-8.03906 0.06,-5.3937 -0.14028,-7.28038 -6.66211,-8.03906 l -2.30469,-0.28906 c -4.22984,-0.66574 -6.14517,-0.79299 -7.18164,-4.79493 -0.06,-0.26816 -0.12007,-0.53589 -0.18359,-0.80273 -0.0131,-0.0631 -0.0281,-0.11887 -0.041,-0.1836 l -0.002,0.008 c -0.24375,-1.01036 -0.51442,-2.0099 -0.80859,-3 l 0.0117,0.01 c -0.0565,-0.16536 -0.10151,-0.31604 -0.15039,-0.47265 -0.0458,-0.14986 -0.0897,-0.29985 -0.13672,-0.44922 -1.12811,-4.02147 0.46762,-5.08541 3.81054,-7.78711 l 1.85157,-1.4043 c 5.26873,-3.917946 4.49684,-5.649906 1.74804,-10.291016 -1.81838,-3.23199 -2.91322,-4.96776 -5.3789,-4.89063 -1.12074,0.0351 -2.52465,0.44605 -4.40821,1.25977 l -2.14062,0.90039 c -4.30247,1.6564 -5.9673,2.51834 -9.30469,-1.30274 l 0.0234,0.10157 c -0.74858,-0.78977 -1.51883,-1.55806 -2.3086,-2.30665 l 0.10157,0.0215 c -3.82106,-3.33739 -2.95912,-5.00215 -1.30274,-9.30469 l 0.90235,-2.14062 c 2.60387,-6.0274 1.07022,-7.14219 -3.63086,-9.78711 -2.32056,-1.3744 -3.91477,-2.25494 -5.41797,-2.13281 -1.5032,0.12213 -2.91603,1.24649 -4.875,3.88086 l -1.4043,1.85156 c -2.70169,3.34293 -3.76564,4.93865 -7.78711,3.81055 -0.14936,-0.047 -0.29937,-0.0909 -0.44922,-0.13672 -0.15661,-0.0489 -0.30729,-0.0919 -0.47265,-0.14844 l 0.01,0.01 c -0.9901,-0.29416 -1.98963,-0.56485 -3,-0.80859 l 0.008,-0.002 c -0.0647,-0.0127 -0.12052,-0.028 -0.1836,-0.041 -0.26683,-0.0635 -0.53456,-0.12366 -0.80273,-0.1836 -4.00194,-1.03647 -4.12918,-2.95181 -4.79493,-7.18164 l -0.28906,-2.30468 c -0.75866,-6.52207 -2.64534,-6.72234 -8.03905,-6.66236 z m -0.0117,30.99414 c 0.004,-1e-5 0.008,-1e-5 0.0117,0 5.06531,3e-4 9.96082,0.87493 14.53516,2.48047 a 12,12 0 0 0 5.46484,6.87891 12,12 0 0 0 8.66992,1.29101 c 7.20335,6.190706 12.42982,14.703726 14.43946,24.548836 0.50642,2.48002 -1.38873,4.80104 -3.91993,4.80078 h -12.3789 c -1.76926,1.5e-4 -3.32848,-1.16191 -3.83399,-2.85742 -3.03409,-10.17667 -12.3486,-17.12613 -22.96679,-17.14063 -1.86552,0.0101 -3.72427,0.23539 -5.53711,0.67578 -1.72527,0.41898 -3.52028,-0.34928 -4.40821,-1.88671 l -6.17968,-10.701186 c -1.26291,-2.1886 -0.20551,-4.98537 2.18945,-5.79101 4.48467,-1.50955 9.18217,-2.28583 13.91406,-2.29883 z m -26.30664,10.0957 c 1.3611,0.0638 2.59614,0.816 3.27734,1.9961 l 6.17969,10.701176 c 0.88545,1.53347 0.65743,3.4666 -0.56055,4.75195 -4.21283,4.44663 -6.56562,10.3318 -6.57812,16.45703 0.007,6.12872 2.3554,12.01941 6.56836,16.47071 1.21703,1.28501 1.44502,3.21699 0.56055,4.75 l -6.16211,10.67578 c -1.26486,2.19101 -4.22044,2.67243 -6.115238,0.99609 -7.35823,-6.50704 -12.25407,-15.23839 -14.0625,-24.74023 a 12,12 0 0 0 3.21094,-8.1543 12,12 0 0 0 -3.21289,-8.15039 c 1.80449,-9.50615 6.6973,-18.24246 14.05664,-24.753916 0.779779,-0.68994 1.797838,-1.0487 2.837888,-1 z m 53.13867,37.904306 h 12.32813 c 2.53119,-2.4e-4 4.42635,2.32077 3.91992,4.80078 -2.00843,9.83928 -7.23024,18.34896 -14.42774,24.53906 a 12,12 0 0 0 -2.92382,-0.30273 12,12 0 0 0 -5.7168,1.60351 12,12 0 0 0 -5.45312,6.86133 c -4.57562,1.61246 -9.47418,2.49256 -14.54297,2.49805 -0.006,2e-5 -0.0125,2e-5 -0.0195,0 -4.72985,-0.0188 -9.42516,-0.80071 -13.90626,-2.31445 -2.39212,-0.80764 -3.44709,-3.60206 -2.18554,-5.78907 l 6.16992,-10.6875 c 0.88793,-1.53742 2.68293,-2.30568 4.4082,-1.88671 1.81402,0.44068 3.67428,0.66578 5.54102,0.67578 10.62131,-0.0108 19.93962,-6.96097 22.97461,-17.14063 0.50551,-1.6955 2.06472,-2.85757 3.83398,-2.85742 z"
     style="opacity:0.2;fill:url(#linearGradient1035);filter:url(#filter1025)"
     id="path54"
     inkscape:connector-curvature="0" />
  <path
     style="fill:url(#linearGradient955)"
     d="m 128.2,49.701874 c -5.39372,-0.06 -7.28039,0.14029 -8.03906,6.66211 l -0.28906,2.30469 c -0.66573,4.22983 -0.793,6.14517 -4.79493,7.18164 -0.26817,0.0599 -0.53589,0.12007 -0.80273,0.18359 -0.0631,0.013 -0.11886,0.0282 -0.1836,0.041 l 0.008,0.002 c -1.01036,0.24375 -2.00991,0.51443 -3,0.8086 l 0.01,-0.0117 c -0.16537,0.0565 -0.31605,0.10151 -0.47265,0.15039 -0.14986,0.0458 -0.29985,0.0898 -0.44922,0.13672 -4.02147,1.12811 -5.08541,-0.46762 -7.78711,-3.81055 l -1.4043,-1.85156 c -1.958978,-2.63437 -3.369838,-3.75873 -4.873038,-3.88086 -0.18789,-0.0153 -0.37832,-0.0151 -0.57032,0 -1.3439,0.10545 -2.81717,0.93022 -4.84765,2.13281 -4.70108,2.64491 -6.23474,3.7597 -3.63086,9.78711 l 0.90039,2.14062 c 1.65637,4.30254 2.51833,5.96731 -1.30274,9.30469 l 0.10157,-0.0234 c -0.78976,0.74858 -1.55804,1.51883 -2.30665,2.3086 l 0.0215,-0.10157 c -3.33739,3.82107 -5.00215,2.95911 -9.30469,1.30274 l -2.14062,-0.90235 c -1.88356,-0.81371 -3.28745,-1.22275 -4.40821,-1.25781 -2.46566,-0.0772 -3.56052,1.65668 -5.3789,4.88867 -2.7488,4.6411 -3.52069,6.37502 1.74804,10.29297 l 1.85157,1.4043 c 3.34293,2.701706 4.93866,3.765646 3.81054,7.787116 -0.047,0.14937 -0.0909,0.29936 -0.13671,0.44922 -0.0489,0.1566 -0.0919,0.30729 -0.14844,0.47265 l 0.01,-0.01 c -0.29416,0.99009 -0.56485,1.98964 -0.8086,3 l -0.002,-0.008 c -0.0127,0.0647 -0.028,0.12053 -0.041,0.1836 -0.0635,0.26684 -0.12365,0.53456 -0.18359,0.80273 -1.03646,4.00194 -2.95181,4.1292 -7.18164,4.79493 l -2.30469,0.28906 c -6.52182,0.75868 -6.72208,2.64535 -6.66211,8.03906 -0.06,5.39372 0.14029,7.2804 6.66211,8.03906 l 2.30469,0.28906 c 4.22983,0.66573 6.14518,0.793 7.18164,4.79493 0.0599,0.26818 0.12007,0.5359 0.18359,0.80273 0.013,0.0631 0.0282,0.11886 0.041,0.1836 l 0.002,-0.008 c 0.24375,1.01037 0.51444,2.00991 0.8086,3 l -0.0117,-0.01 c 0.0565,0.16537 0.10147,0.31605 0.15039,0.47265 0.0458,0.14985 0.0897,0.29986 0.13672,0.44922 1.12811,4.02147 -0.46762,5.08542 -3.81055,7.78711 l -1.85156,1.4043 c -5.26873,3.91794 -4.49684,5.6499 -1.74805,10.29101 2.64492,4.70108 3.75971,6.23474 9.78711,3.63086 l 2.14063,-0.90039 c 4.30252,-1.65637 5.96729,-2.51832 9.30468,1.30274 l -0.0234,-0.10157 c 0.74858,0.78976 1.51884,1.55807 2.3086,2.30665 l -0.10157,-0.0215 c 3.82107,3.3374 2.95911,5.00215 1.30274,9.30469 l -0.90235,2.14062 c -2.60388,6.0274 -1.07022,7.14414 3.63086,9.78907 4.6411,2.74879 6.37502,3.51873 10.292968,-1.75 l 1.4043,-1.85157 c 2.70169,-3.34294 3.76565,-4.93865 7.78711,-3.81054 0.14937,0.047 0.29936,0.0909 0.44922,0.13672 0.1566,0.0489 0.30728,0.0938 0.47265,0.15039 l -0.01,-0.0117 c 0.99009,0.29416 1.98964,0.56484 3,0.80859 l -0.008,0.002 c 0.0647,0.0128 0.12053,0.028 0.1836,0.041 0.26684,0.0635 0.53456,0.12365 0.80273,0.18359 4.00193,1.03647 4.12919,2.95182 4.79493,7.18164 l 0.28906,2.30469 c 0.75867,6.52182 2.64534,6.72209 8.03906,6.66211 5.39371,0.06 7.28039,-0.14029 8.03906,-6.66211 l 0.28906,-2.30469 c 0.66576,-4.22983 0.79299,-6.14518 4.79493,-7.18164 0.26817,-0.06 0.5359,-0.12007 0.80273,-0.18359 0.0631,-0.0131 0.11886,-0.0281 0.1836,-0.041 l -0.008,-0.002 c 1.01037,-0.24375 2.0099,-0.51443 3,-0.80859 l -0.01,0.0117 c 0.16536,-0.0565 0.31604,-0.10151 0.47265,-0.15039 0.14985,-0.0458 0.29986,-0.0897 0.44922,-0.13672 4.02147,-1.1281 5.08542,0.46761 7.78711,3.81054 l 1.4043,1.85157 c 3.91794,5.26872 5.6499,4.49685 10.29101,1.74804 4.70108,-2.64491 6.23475,-3.7597 3.63086,-9.78711 l -0.90039,-2.14062 c -1.65641,-4.30248 -2.51833,-5.96729 1.30274,-9.30469 l -0.10157,0.0234 c 0.78977,-0.74858 1.55807,-1.51884 2.30665,-2.3086 l -0.0215,0.10157 c 3.3374,-3.82106 5.00215,-2.95912 9.30469,-1.30274 l 2.14062,0.90235 c 6.0274,2.60387 7.14218,1.07022 9.78711,-3.63086 2.74879,-4.64111 3.5207,-6.37503 -1.74804,-10.29297 l -1.85157,-1.4043 c -3.34293,-2.70168 -4.93866,-3.76564 -3.81054,-7.78711 0.047,-0.14936 0.0908,-0.29937 0.13672,-0.44922 0.0489,-0.1566 0.092,-0.30728 0.14843,-0.47265 l -0.01,0.01 c 0.29416,-0.99009 0.56484,-1.98963 0.80859,-3 l 0.002,0.008 c 0.0128,-0.0647 0.028,-0.12052 0.041,-0.1836 0.0635,-0.26683 0.12365,-0.53455 0.18359,-0.80273 1.03647,-4.00193 2.9518,-4.12919 7.18164,-4.79493 l 2.30469,-0.28906 c 6.52182,-0.75867 6.72209,-2.64534 6.66211,-8.03906 0.06,-5.3937 -0.14028,-7.28038 -6.66211,-8.03906 l -2.30469,-0.28906 c -4.22984,-0.66574 -6.14517,-0.79299 -7.18164,-4.79493 -0.06,-0.26816 -0.12007,-0.53589 -0.18359,-0.80273 -0.0131,-0.0631 -0.0281,-0.11887 -0.041,-0.1836 l -0.002,0.008 c -0.24375,-1.01036 -0.51442,-2.0099 -0.80859,-3 l 0.0117,0.01 c -0.0565,-0.16536 -0.10151,-0.31604 -0.15039,-0.47265 -0.0458,-0.14986 -0.0897,-0.29985 -0.13672,-0.44922 -1.12811,-4.02147 0.46762,-5.08541 3.81054,-7.787116 l 1.85157,-1.4043 c 5.26873,-3.91794 4.49684,-5.6499 1.74804,-10.29101 -1.81838,-3.23199 -2.91322,-4.96776 -5.3789,-4.89063 -1.12074,0.0351 -2.52465,0.44605 -4.40821,1.25977 l -2.14062,0.90039 c -4.30247,1.6564 -5.9673,2.51834 -9.30469,-1.30274 l 0.0234,0.10157 c -0.74858,-0.78977 -1.51883,-1.55806 -2.3086,-2.30665 l 0.10157,0.0215 c -3.82106,-3.33739 -2.95912,-5.00215 -1.30274,-9.30469 l 0.90235,-2.14062 c 2.60387,-6.0274 1.07022,-7.14219 -3.63086,-9.78711 -2.32056,-1.3744 -3.91477,-2.25494 -5.41797,-2.13281 -1.5032,0.12213 -2.91603,1.24649 -4.875,3.88086 l -1.4043,1.85156 c -2.70169,3.34293 -3.76564,4.93865 -7.78711,3.81055 -0.14936,-0.047 -0.29937,-0.0909 -0.44922,-0.13672 -0.15661,-0.0489 -0.30729,-0.0919 -0.47265,-0.14844 l 0.01,0.01 c -0.9901,-0.29416 -1.98963,-0.56485 -3,-0.80859 l 0.008,-0.002 c -0.0647,-0.0127 -0.12052,-0.028 -0.1836,-0.041 -0.26683,-0.0635 -0.53456,-0.12365 -0.80273,-0.1836 -4.00194,-1.03647 -4.12918,-2.95181 -4.79493,-7.18164 l -0.28906,-2.30468 c -0.75866,-6.52186 -2.64534,-6.72213 -8.03905,-6.66215 z m -0.0117,30.99414 c 0.004,-1e-5 0.008,-1e-5 0.0117,0 5.06531,3e-4 9.96082,0.87493 14.53516,2.48047 a 12,12 0 0 0 5.46484,6.87891 12,12 0 0 0 8.66992,1.29101 c 7.20335,6.1907 12.42982,14.703726 14.43946,24.548836 0.50642,2.48002 -1.38873,4.80104 -3.91993,4.80078 h -12.3789 c -1.76926,1.5e-4 -3.32848,-1.16191 -3.83399,-2.85742 -3.03409,-10.17667 -12.3486,-17.12614 -22.96679,-17.14064 -1.86552,0.0101 -3.72427,0.23539 -5.53711,0.67578 -1.72527,0.41899 -3.52028,-0.34928 -4.40821,-1.886706 l -6.17968,-10.70118 c -1.26291,-2.1886 -0.20551,-4.98537 2.18945,-5.79101 4.48467,-1.50955 9.18217,-2.28583 13.91406,-2.29883 z m -26.30664,10.0957 c 1.3611,0.0638 2.59614,0.816 3.27734,1.9961 l 6.17969,10.701176 c 0.88545,1.53347 0.65743,3.4666 -0.56055,4.75195 -4.21283,4.44663 -6.56562,10.3318 -6.57812,16.45703 0.007,6.12872 2.3554,12.01941 6.56836,16.47071 1.21703,1.28501 1.44502,3.21699 0.56055,4.75 l -6.16211,10.67578 c -1.26486,2.19101 -4.22044,2.67243 -6.115238,0.99609 -7.35823,-6.50704 -12.25407,-15.23839 -14.0625,-24.74023 a 12,12 0 0 0 3.21094,-8.1543 12,12 0 0 0 -3.21289,-8.15039 c 1.80449,-9.50615 6.6973,-18.242466 14.05664,-24.753916 0.779779,-0.68994 1.797838,-1.0487 2.837888,-1 z m 53.13867,37.904306 h 12.32813 c 2.53119,-2.4e-4 4.42635,2.32077 3.91992,4.80078 -2.00843,9.83928 -7.23024,18.34896 -14.42774,24.53906 a 12,12 0 0 0 -2.92382,-0.30273 12,12 0 0 0 -5.7168,1.60351 12,12 0 0 0 -5.45312,6.86133 c -4.57562,1.61246 -9.47418,2.49256 -14.54297,2.49805 -0.006,2e-5 -0.0125,2e-5 -0.0195,0 -4.72985,-0.0188 -9.42516,-0.80071 -13.90626,-2.31445 -2.39212,-0.80764 -3.44709,-3.60206 -2.18554,-5.78907 l 6.16992,-10.6875 c 0.88793,-1.53742 2.68293,-2.30568 4.4082,-1.88671 1.81402,0.44068 3.67428,0.66578 5.54102,0.67578 10.62131,-0.0108 19.93962,-6.96097 22.97461,-17.14063 0.50551,-1.6955 2.06472,-2.85757 3.83398,-2.85742 z"
     id="path56"
     inkscape:connector-curvature="0" />
  <path
     style="opacity:0.1"
     d="m 128.2,72.696014 c -24.60905,0 -45.224568,17.12228 -50.613278,40.093756 a 12,12 0 0 1 7.40039,3.75586 c 1.80449,-9.50615 6.6973,-18.242466 14.05664,-24.753916 0.779779,-0.68994 1.797838,-1.0487 2.837888,-1 1.3611,0.0638 2.59614,0.816 3.27734,1.9961 l 6.17969,10.701176 c 0.88545,1.53347 0.65743,3.4666 -0.56055,4.75195 -4.21283,4.44663 -6.56562,10.3318 -6.57812,16.45703 0.007,6.12872 2.3554,12.01941 6.56836,16.47071 1.21703,1.28501 1.44502,3.21699 0.56055,4.75 l -6.16211,10.67578 c -1.26486,2.19101 -4.22044,2.67243 -6.115238,0.99609 -7.35823,-6.50704 -12.25407,-15.23839 -14.0625,-24.74023 a 12,12 0 0 1 -7.40039,3.75586 c 5.39022,22.96939 26.003758,40.08984 50.611328,40.08984 5.21561,0 10.24905,-0.77652 15,-2.20703 a 12,12 0 0 1 -0.45312,-8.29102 c -4.57562,1.61246 -9.47418,2.49256 -14.54297,2.49805 -0.006,2e-5 -0.0125,2e-5 -0.0195,0 -4.72985,-0.0188 -9.42516,-0.80071 -13.90626,-2.31445 -2.39212,-0.80764 -3.44709,-3.60206 -2.18554,-5.78907 l 6.16992,-10.6875 c 0.88793,-1.53742 2.68293,-2.30568 4.4082,-1.88671 1.81402,0.44068 3.67428,0.66578 5.54102,0.67578 10.62131,-0.0108 19.93962,-6.96097 22.97461,-17.14063 0.50551,-1.6955 2.06472,-2.85757 3.83398,-2.85742 h 12.32813 c 2.53119,-2.4e-4 4.42635,2.32077 3.91992,4.80078 -2.00843,9.83928 -7.23023,18.34896 -14.42774,24.53906 a 12,12 0 0 1 6.97266,4.52344 C 173.89392,153.07371 180.2,139.62187 180.2,124.69602 c 0,-14.92884 -6.30842,-28.383256 -16.39258,-37.869146 a 12,12 0 0 1 -6.9375,4.51953 c 7.20335,6.1907 12.42981,14.703726 14.43946,24.548836 0.50642,2.48002 -1.38873,4.80104 -3.91993,4.80078 h -12.3789 c -1.76926,1.5e-4 -3.32848,-1.16191 -3.83399,-2.85742 -3.03409,-10.17667 -12.3486,-17.12614 -22.96679,-17.14064 -1.86552,0.0101 -3.72427,0.23539 -5.53711,0.67578 -1.72527,0.41899 -3.52028,-0.34928 -4.40821,-1.886706 l -6.17968,-10.70118 c -1.26291,-2.1886 -0.20551,-4.98537 2.18945,-5.79101 4.48467,-1.50955 9.18217,-2.28583 13.91406,-2.29883 0.004,-1e-5 0.008,-1e-5 0.0117,0 5.06531,3e-4 9.96082,0.87493 14.53516,2.48047 a 12,12 0 0 1 0.45898,-8.27539 c -4.7492,-1.42937 -9.78066,-2.20508 -14.99412,-2.20508 z m 0,36.000006 a 16,16 0 0 1 16,16 16,16 0 0 1 -16,16 16,16 0 0 1 -16,-16 16,16 0 0 1 16,-16 z"
     id="path58"
     inkscape:connector-curvature="0" />
  <path
     style="fill:#b3b3b3"
     d="m 153.9168,73.668674 a 6,6 0 0 0 -4.91211,2.99414 6,6 0 0 0 2.19531,8.19531 6,6 0 0 0 8.19531,-2.19531 6,6 0 0 0 -2.19531,-8.19727 6,6 0 0 0 -3.2832,-0.79687 z M 76.200002,118.69602 a 6,6 0 0 0 -6,6 6,6 0 0 0 6,6 6,6 0 0 0 6,-6 6,6 0 0 0 -6,-6 z m 77.859378,45.03516 a 6,6 0 0 0 -2.85938,0.80273 6,6 0 0 0 -2.19531,8.19531 6,6 0 0 0 8.19531,2.19532 6,6 0 0 0 2.19531,-8.19532 6,6 0 0 0 -5.33593,-2.99804 z"
     id="path60"
     inkscape:connector-curvature="0" />
  <path
     style="opacity:0.3;fill:#ffffff"
     d="M 128.2,12.696014 A 112,112 0 0 0 16.200002,124.69602 112,112 0 0 0 16.241022,125.86594 112,112 0 0 1 128.2,14.696014 112,112 0 0 1 240.15898,125.5261 a 112,112 0 0 0 0.041,-0.83008 112,112 0 0 0 -112,-112.000006 z"
     id="path62"
     inkscape:connector-curvature="0" />
  <path
     style="opacity:0.2"
     d="m 128.2,236.69602 a 112,112 0 0 1 -111.999998,-112 112,112 0 0 1 0.04102,-1.16992 A 112,112 0 0 0 128.2,234.69602 112,112 0 0 0 240.15898,123.86594 a 112,112 0 0 1 0.041,0.83008 112,112 0 0 1 -112,112 z"
     id="path64"
     inkscape:connector-curvature="0" />
</svg>
