<svg height="256" width="256" xmlns="http://www.w3.org/2000/svg" xmlns:xlink="http://www.w3.org/1999/xlink">
  <filter id="filter11191" color-interpolation-filters="sRGB" height="1.024" width="1.024" x="-.01" y="-.01">
    <feGaussianBlur stdDeviation="1.12"/>
  </filter>
  <filter id="filter11210" color-interpolation-filters="sRGB" height="1.096" width="1.096" x="-.05" y="-.05">
    <feGaussianBlur stdDeviation="4.48"/>
  </filter>
  <circle cx="128.752" cy="127.248" filter="url(#filter11210)" opacity=".1" r="112"/>
  <circle cx="128.752" cy="125.248" filter="url(#filter11191)" opacity=".1" r="112"/>
  <circle cx="128.752" cy="123.248" opacity=".1" r="114"/>
  <circle cx="128.752" cy="123.248" fill="#da1636" r="112"/>
  <path d="m128.752 11.248006a112 112 0 0 0 -112.000001 111.999994 112 112 0 0 0 .04102 1.16992 112 112 0 0 1 111.958981-111.169914 112 112 0 0 1 111.95898 110.830074 112 112 0 0 0 .041-.83008 112 112 0 0 0 -112-111.999994z" fill="#fff" opacity=".3"/>
  <path d="m128.752 235.248a112 112 0 0 1 -112.000001-112 112 112 0 0 1 .04102-1.16992 112 112 0 0 0 111.958981 111.16992 112 112 0 0 0 111.95898-110.83008 112 112 0 0 1 .041.83008 112 112 0 0 1 -112 112z" opacity=".2"/>
  <path d="m341.67811 123.81656a115.38461 115.38461 0 0 1 115.3846 115.38459 115.38461 115.38461 0 0 1 -34.61535 82.37311v-135.26539c0-9.05772-8.22697-16.33846-18.46155-16.33846h-9.2308c-10.2346 0-18.4615 7.28074-18.4615 16.33846v36.05769l-42.06926-23.59615-49.47691-27.73845a8.20673 7.969615 0 0 0 -3.91153-1.06155 8.20673 7.969615 0 0 0 -8.38847 7.95v111a8.20673 7.969615 0 0 0 12.3 6.91155l49.47691-27.76155 42.06926-23.57311v104.63081a115.38461 115.38461 0 0 1 -34.6154 5.45765 115.38461 115.38461 0 0 1 -115.38461-115.38461 115.38461 115.38461 0 0 1 115.38461-115.38459z" fill="#fff" transform="matrix(.86666673 0 0 .86666673 -167.369048 -84.059694)"/>
  <path d="m198.75202 200.62372v-123.215423c0-7.850024-7.13003-14.160156-16-14.160156h-8c-8.86999 0-16 6.310132-16 14.160156v31.250003l-36.46094-20.449219-42.880862-24.041018c-1.03239-.577409-2.1976-.893729-3.38867-.919922-3.9827-.08542-7.26106 3.022065-7.26953 6.890625v96.199214c-.002 5.31296 5.91547 8.63884 10.6582 5.99024l42.880862-24.06055 36.46094-20.42969v90.67969z" fill="#da1636"/>
  <path d="m76.021484 63.248047c-3.9827-.08542-7.261061 3.022065-7.269531 6.890625v2c.00847-3.86856 3.286831-6.976045 7.269531-6.890625 1.19107.026193 2.356282.342513 3.388672.919922l42.880864 24.041015 36.46093 20.449216v-2l-36.46093-20.449216-42.880864-24.041015c-1.03239-.577409-2.197602-.893729-3.388672-.919922zm98.730466 0c-8.86999 0-16 6.310132-16 14.160156v2c0-7.850024 7.13001-14.160156 16-14.160156h8c8.86997 0 16 6.310132 16 14.160156v-2c0-7.850024-7.13003-14.160156-16-14.160156z" fill="#fff" opacity=".3"/>
  <path d="m158.75195 125.83789-36.46093 20.42969-42.880864 24.06054c-4.74273 2.6486-10.660203-.67727-10.658203-5.99023v2c-.002 5.31296 5.915473 8.63883 10.658203 5.99023l42.880864-24.06054 36.46093-20.42969z" opacity=".2"/>
</svg>
