<?xml version="1.0" encoding="UTF-8" standalone="no"?>
<svg
   xmlns:osb="http://www.openswatchbook.org/uri/2009/osb"
   xmlns:dc="http://purl.org/dc/elements/1.1/"
   xmlns:cc="http://creativecommons.org/ns#"
   xmlns:rdf="http://www.w3.org/1999/02/22-rdf-syntax-ns#"
   xmlns:svg="http://www.w3.org/2000/svg"
   xmlns="http://www.w3.org/2000/svg"
   xmlns:xlink="http://www.w3.org/1999/xlink"
   xmlns:sodipodi="http://sodipodi.sourceforge.net/DTD/sodipodi-0.dtd"
   xmlns:inkscape="http://www.inkscape.org/namespaces/inkscape"
   width="256"
   height="256"
   version="1.1"
   id="svg87"
   sodipodi:docname="transmission.svg"
   inkscape:version="0.92.3 (2405546, 2018-03-11)">
  <metadata
     id="metadata91">
    <rdf:RDF>
      <cc:Work
         rdf:about="">
        <dc:format>image/svg+xml</dc:format>
        <dc:type
           rdf:resource="http://purl.org/dc/dcmitype/StillImage" />
      </cc:Work>
    </rdf:RDF>
  </metadata>
  <sodipodi:namedview
     pagecolor="#ffffff"
     bordercolor="#666666"
     borderopacity="1"
     objecttolerance="10"
     gridtolerance="10"
     guidetolerance="10"
     inkscape:pageopacity="0"
     inkscape:pageshadow="2"
     inkscape:window-width="1920"
     inkscape:window-height="1009"
     id="namedview89"
     showgrid="false"
     inkscape:zoom="0.921875"
     inkscape:cx="128"
     inkscape:cy="128"
     inkscape:window-x="0"
     inkscape:window-y="34"
     inkscape:window-maximized="1"
     inkscape:current-layer="svg87" />
  <defs
     id="defs43">
    <linearGradient
       id="linearGradient5606"
       osb:paint="solid">
      <stop
         id="stop5608"
         offset="0"
         style="stop-color:#000000" />
    </linearGradient>
    <linearGradient
       id="linearGradient4526"
       osb:paint="solid">
      <stop
         id="stop4528"
         offset="0"
         style="stop-color:#ffffff" />
    </linearGradient>
    <linearGradient
       id="linearGradient3600-4"
       osb:paint="gradient">
      <stop
         id="stop3602-7"
         offset="0"
         style="stop-color:#f4f4f4" />
      <stop
         id="stop3604-6"
         offset="1"
         style="stop-color:#dbdbdb" />
    </linearGradient>
    <linearGradient
       id="linearGradient4358"
       x1="88"
       x2="488"
       y1="88"
       y2="488"
       gradientUnits="userSpaceOnUse"
       xlink:href="#linearGradient4360" />
    <linearGradient
       id="linearGradient4360">
      <stop
         id="stop4362"
         offset="0"
         style="stop-color:#000000;stop-opacity:0.58823532" />
      <stop
         style="stop-color:#000000;stop-opacity:0"
         id="stop4364"
         offset=".88" />
      <stop
         id="stop4366"
         offset="1"
         style="stop-color:#000000" />
    </linearGradient>
    <filter
       style="color-interpolation-filters:sRGB"
       id="filter4380"
       width="1.106"
       height="1.088"
       x="-.05"
       y="-.04">
      <feGaussianBlur
         id="feGaussianBlur4382"
         stdDeviation="8.48" />
    </filter>
    <filter
       style="color-interpolation-filters:sRGB"
       id="filter4346"
       width="1.026"
       height="1.022"
       x="-.01"
       y="-.01">
      <feGaussianBlur
         id="feGaussianBlur4348"
         stdDeviation="2.12" />
    </filter>
    <linearGradient
       id="linearGradient915-3"
       x1="56"
       x2="56"
       y1="-76"
       y2="-156"
       gradientTransform="matrix(0.51851854,0,0,0.35132968,-217.68121,81.713607)"
       gradientUnits="userSpaceOnUse"
       xlink:href="#linearGradient913" />
    <linearGradient
       id="linearGradient913">
      <stop
         style="stop-color:#68676b"
         id="stop909"
         offset="0" />
      <stop
         id="stop917"
         offset=".762"
         style="stop-color:#edece9" />
      <stop
         style="stop-color:#c8c6c0"
         id="stop911"
         offset="1" />
    </linearGradient>
    <linearGradient
       id="linearGradient1060-3"
       x1="255.75"
       x2="255.75"
       y1="400"
       y2="208"
       gradientTransform="matrix(0.51851854,0,0,0.51851854,-225.97751,-20.99163)"
       gradientUnits="userSpaceOnUse"
       xlink:href="#linearGradient1058" />
    <linearGradient
       id="linearGradient1058">
      <stop
         style="stop-color:#191622"
         id="stop1054"
         offset="0" />
      <stop
         style="stop-color:#949390"
         id="stop1056"
         offset="1" />
    </linearGradient>
    <linearGradient
       id="linearGradient1152-2"
       x1="197.5"
       x2="197.5"
       y1="-124.344"
       y2="-212"
       gradientTransform="matrix(0.97171711,0,0,0.96216102,5.93132,39.978137)"
       gradientUnits="userSpaceOnUse"
       xlink:href="#linearGradient2148" />
    <linearGradient
       id="linearGradient2148">
      <stop
         id="stop2140"
         offset="0"
         style="stop-color:#e01b24" />
      <stop
         style="stop-color:#ac1d2e"
         id="stop2150"
         offset=".225" />
      <stop
         style="stop-color:#e01b24"
         id="stop2142"
         offset=".45" />
      <stop
         style="stop-color:#f66151"
         id="stop2144"
         offset=".725" />
      <stop
         id="stop2146"
         offset="1"
         style="stop-color:#f66151" />
    </linearGradient>
    <linearGradient
       id="linearGradient1132-7"
       x1="256"
       x2="256"
       y1="-212"
       y2="-93.481"
       gradientTransform="matrix(0.63543477,0,0,0.56000011,-255.77167,116.13909)"
       gradientUnits="userSpaceOnUse"
       xlink:href="#linearGradient1143" />
    <linearGradient
       id="linearGradient1143">
      <stop
         id="stop1135"
         offset="0"
         style="stop-color:#c8c6c0" />
      <stop
         style="stop-color:#ffffff"
         id="stop1137"
         offset=".16" />
      <stop
         id="stop1139"
         offset=".36"
         style="stop-color:#ffffff" />
      <stop
         id="stop1141"
         offset="1"
         style="stop-color:#68676b" />
    </linearGradient>
    <linearGradient
       id="linearGradient1132-7-6"
       x1="256"
       x2="256"
       y1="-212"
       y2="-93.481"
       gradientTransform="matrix(0.63543477,0,0,0.56000011,-36.552279,120.49926)"
       gradientUnits="userSpaceOnUse"
       xlink:href="#linearGradient1143" />
    <linearGradient
       id="linearGradient1060-3-0"
       x1="255.75"
       x2="255.75"
       y1="400"
       y2="208"
       gradientTransform="matrix(0.51851854,0,0,0.51851854,-6.7581191,-16.631457)"
       gradientUnits="userSpaceOnUse"
       xlink:href="#linearGradient1058" />
    <linearGradient
       id="linearGradient915-3-7"
       x1="56"
       x2="56"
       y1="-76"
       y2="-156"
       gradientTransform="matrix(0.51851854,0,0,0.35132968,1.5381807,86.073781)"
       gradientUnits="userSpaceOnUse"
       xlink:href="#linearGradient913" />
    <linearGradient
       inkscape:collect="always"
       xlink:href="#linearGradient980"
       id="linearGradient6589"
       x1="176.44444"
       y1="138.44441"
       x2="181.33333"
       y2="138.44441"
       gradientUnits="userSpaceOnUse"
       gradientTransform="translate(-29.048432,-33.751824)" />
    <linearGradient
       inkscape:collect="always"
       id="linearGradient980">
      <stop
         style="stop-color:#000000;stop-opacity:1;"
         offset="0"
         id="stop976" />
      <stop
         style="stop-color:#000000;stop-opacity:0;"
         offset="1"
         id="stop978" />
    </linearGradient>
    <linearGradient
       inkscape:collect="always"
       xlink:href="#linearGradient980"
       id="linearGradient6581"
       x1="122.66666"
       y1="138.44441"
       x2="127.55555"
       y2="138.44441"
       gradientUnits="userSpaceOnUse"
       gradientTransform="translate(-230.67456,-33.751741)" />
    <filter
       inkscape:collect="always"
       style="color-interpolation-filters:sRGB"
       id="filter6571"
       x="-0.016000001"
       width="1.0319999"
       y="-0.047999997"
       height="1.096">
      <feGaussianBlur
         inkscape:collect="always"
         stdDeviation="0.78222218"
         id="feGaussianBlur6573" />
    </filter>
    <linearGradient
       gradientTransform="translate(-24.247995,-31.751987)"
       inkscape:collect="always"
       xlink:href="#linearGradient1760"
       id="linearGradient1762"
       x1="136.16212"
       y1="87.55471"
       x2="173.49474"
       y2="224.44531"
       gradientUnits="userSpaceOnUse" />
    <linearGradient
       inkscape:collect="always"
       id="linearGradient1760">
      <stop
         style="stop-color:#000000;stop-opacity:1;"
         offset="0"
         id="stop1756" />
      <stop
         style="stop-color:#000000;stop-opacity:0.80000001"
         offset="1"
         id="stop1758" />
    </linearGradient>
    <linearGradient
       inkscape:collect="always"
       xlink:href="#linearGradient980"
       id="linearGradient6523"
       gradientUnits="userSpaceOnUse"
       x1="152"
       y1="124"
       x2="152"
       y2="236" />
    <clipPath
       clipPathUnits="userSpaceOnUse"
       id="clipPath999-9-6">
      <path
         inkscape:connector-curvature="0"
         style="color:#000000;display:inline;overflow:visible;visibility:visible;opacity:1;fill:#5d5d5d;fill-opacity:1;fill-rule:nonzero;stroke:none;stroke-width:3.82599998;stroke-linecap:butt;stroke-linejoin:round;stroke-miterlimit:4;stroke-dasharray:none;stroke-dashoffset:0;stroke-opacity:1;marker:none;enable-background:accumulate"
         d="m 152,68 c -48.60106,0 -88,39.39894 -88,88 0,48.60106 39.39894,88 88,88 48.60106,0 88,-39.39894 88,-88 0,-48.60106 -39.39894,-88 -88,-88 z"
         id="path1001-4-3"
         sodipodi:nodetypes="sssss" />
    </clipPath>
    <filter
       inkscape:collect="always"
       style="color-interpolation-filters:sRGB"
       id="filter1003-7-2"
       x="-0.059999999"
       width="1.12"
       y="-0.059999999"
       height="1.12">
      <feGaussianBlur
         inkscape:collect="always"
         stdDeviation="4.4"
         id="feGaussianBlur1005-8-0" />
    </filter>
    <clipPath
       clipPathUnits="userSpaceOnUse"
       id="clipPath999">
      <path
         inkscape:connector-curvature="0"
         style="color:#000000;display:inline;overflow:visible;visibility:visible;opacity:1;fill:#5d5d5d;fill-opacity:1;fill-rule:nonzero;stroke:none;stroke-width:3.82599998;stroke-linecap:butt;stroke-linejoin:round;stroke-miterlimit:4;stroke-dasharray:none;stroke-dashoffset:0;stroke-opacity:1;marker:none;enable-background:accumulate"
         d="m 152,68 c -48.60106,0 -88,39.39894 -88,88 0,48.60106 39.39894,88 88,88 48.60106,0 88,-39.39894 88,-88 0,-48.60106 -39.39894,-88 -88,-88 z"
         id="path1001"
         sodipodi:nodetypes="sssss" />
    </clipPath>
    <filter
       inkscape:collect="always"
       style="color-interpolation-filters:sRGB"
       id="filter1003"
       x="-0.059999999"
       width="1.12"
       y="-0.059999999"
       height="1.12">
      <feGaussianBlur
         inkscape:collect="always"
         stdDeviation="4.4"
         id="feGaussianBlur1005" />
    </filter>
    <linearGradient
       inkscape:collect="always"
       xlink:href="#linearGradient945"
       id="linearGradient11065"
       x1="104"
       y1="44"
       x2="200"
       y2="268"
       gradientUnits="userSpaceOnUse"
       gradientTransform="translate(-279.752,-280.24801)" />
    <linearGradient
       inkscape:collect="always"
       id="linearGradient945">
      <stop
         id="stop943"
         offset="0"
         style="stop-color:#e6e6e6;stop-opacity:1" />
      <stop
         id="stop941"
         offset="1"
         style="stop-color:#d3d3d3;stop-opacity:1;" />
    </linearGradient>
    <filter
       inkscape:collect="always"
       style="color-interpolation-filters:sRGB"
       id="filter11191"
       x="-0.012"
       width="1.024"
       y="-0.012"
       height="1.024">
      <feGaussianBlur
         inkscape:collect="always"
         stdDeviation="1.12"
         id="feGaussianBlur11193" />
    </filter>
    <filter
       inkscape:collect="always"
       style="color-interpolation-filters:sRGB"
       id="filter11210"
       x="-0.048"
       width="1.096"
       y="-0.048"
       height="1.096">
      <feGaussianBlur
         inkscape:collect="always"
         stdDeviation="4.48"
         id="feGaussianBlur11212" />
    </filter>
    <linearGradient
       inkscape:collect="always"
       xlink:href="#linearGradient980"
       id="linearGradient1025"
       gradientUnits="userSpaceOnUse"
       x1="152"
       y1="124"
       x2="152"
       y2="236" />
  </defs>
  <circle
     style="display:inline;opacity:0.1;fill:#000000;fill-opacity:1;stroke:none;stroke-width:1;stroke-linecap:round;stroke-linejoin:round;stroke-miterlimit:4;stroke-dasharray:none;stroke-opacity:1;filter:url(#filter11210);enable-background:new"
     id="path11042-0"
     r="112"
     cy="128.24802"
     cx="127.752" />
  <circle
     style="display:inline;opacity:0.1;fill:#000000;fill-opacity:1;stroke:none;stroke-width:1;stroke-linecap:round;stroke-linejoin:round;stroke-miterlimit:4;stroke-dasharray:none;stroke-opacity:1;filter:url(#filter11191);enable-background:new"
     id="path11042-6"
     r="112"
     cy="126.24799"
     cx="127.752" />
  <circle
     style="display:inline;opacity:0.1;fill:#000000;fill-opacity:1;stroke:none;stroke-width:0.99999988;stroke-linecap:round;stroke-linejoin:round;stroke-miterlimit:4;stroke-dasharray:none;stroke-opacity:1;enable-background:new"
     id="path11042-7"
     cy="124.24799"
     cx="127.752"
     r="113.99999" />
  <circle
     style="display:inline;opacity:1;fill:url(#linearGradient11065);fill-opacity:1;stroke:none;stroke-width:1;stroke-linecap:round;stroke-linejoin:round;stroke-miterlimit:4;stroke-dasharray:none;stroke-opacity:1;enable-background:new"
     id="path11042"
     r="112"
     cy="-124.24799"
     cx="-127.752"
     transform="scale(-1)" />
  <path
     style="display:inline;opacity:0.25;fill:#ffffff;fill-opacity:1;stroke:none;stroke-width:10.66666603;stroke-linecap:round;stroke-linejoin:round;stroke-miterlimit:4;stroke-dasharray:none;stroke-opacity:1;enable-background:new"
     d="M 15.752005,133.94392 A 112.5345,112.53445 0 0 0 127.72953,236.24801 112.5345,112.53445 0 0 0 239.752,133.94392 Z"
     id="rect12119"
     inkscape:connector-curvature="0" />
  <circle
     style="color:#000000;display:inline;overflow:visible;visibility:visible;opacity:1;fill:#5d5d5d;fill-opacity:1;fill-rule:nonzero;stroke:none;stroke-width:3.82608676;stroke-linecap:butt;stroke-linejoin:miter;stroke-miterlimit:4;stroke-dasharray:11.47826029, 11.47826029;stroke-dashoffset:0;stroke-opacity:1;marker:none;enable-background:accumulate"
     id="path4238"
     cx="127.752"
     cy="-124.24799"
     r="88"
     transform="scale(1,-1)" />
  <path
     style="color:#000000;display:inline;overflow:visible;visibility:visible;opacity:0.05;fill:#000000;fill-opacity:1;fill-rule:nonzero;stroke:none;stroke-width:3.82608676;stroke-linecap:butt;stroke-linejoin:miter;stroke-miterlimit:4;stroke-dasharray:11.47826029, 11.47826029;stroke-dashoffset:0;stroke-opacity:1;marker:none;enable-background:accumulate"
     d="M 39.752005,124.24801 A 88,88 0 0 1 127.752,36.248011 a 88,88 0 0 1 88,87.999999 z"
     id="circle1007"
     inkscape:connector-curvature="0" />
  <path
     transform="translate(-24.247995,-31.751993)"
     style="color:#000000;display:inline;overflow:visible;visibility:visible;opacity:0.2;fill:none;fill-opacity:1;fill-rule:nonzero;stroke:url(#linearGradient1025);stroke-width:10;stroke-linecap:butt;stroke-linejoin:round;stroke-miterlimit:4;stroke-dasharray:none;stroke-dashoffset:0;stroke-opacity:1;marker:none;filter:url(#filter1003);enable-background:accumulate"
     d="m 152,70 c -48.60106,0 -88,39.39894 -88,88 0,48.60106 39.39894,88 88,88 48.60106,0 88,-39.39894 88,-88 0,-48.60106 -39.39894,-88 -88,-88 z"
     id="path962"
     clip-path="url(#clipPath999)"
     inkscape:connector-curvature="0"
     sodipodi:nodetypes="sssss" />
  <circle
     r="88"
     cy="124.24799"
     cx="127.752"
     id="circle1507-6"
     style="color:#000000;display:inline;overflow:visible;visibility:visible;opacity:1;fill:#aea795;fill-opacity:1;fill-rule:nonzero;stroke:none;stroke-width:3.82608652;stroke-linecap:butt;stroke-linejoin:miter;stroke-miterlimit:4;stroke-dasharray:11.47825961, 11.47825961;stroke-dashoffset:0;stroke-opacity:1;marker:none;enable-background:accumulate" />
  <path
     inkscape:connector-curvature="0"
     style="color:#000000;display:inline;overflow:visible;visibility:visible;opacity:0.05;fill:#000000;fill-opacity:1;fill-rule:nonzero;stroke:none;stroke-width:3.82608652;stroke-linecap:butt;stroke-linejoin:miter;stroke-miterlimit:4;stroke-dasharray:11.47825961, 11.47825961;stroke-dashoffset:0;stroke-opacity:1;marker:none;enable-background:accumulate"
     d="M 127.752,36.248006 A 87.999997,87.999997 0 0 0 39.752008,124.24801 H 215.752 a 87.999997,87.999997 0 0 0 -88,-88.000004 z"
     id="circle1507-9-5" />
  <path
     transform="translate(-24.247994,-31.751987)"
     style="color:#000000;display:inline;overflow:visible;visibility:visible;opacity:0.05;fill:none;fill-opacity:1;fill-rule:nonzero;stroke:url(#linearGradient6523);stroke-width:10;stroke-linecap:butt;stroke-linejoin:round;stroke-miterlimit:4;stroke-dasharray:none;stroke-dashoffset:0;stroke-opacity:1;marker:none;filter:url(#filter1003-7-2);enable-background:accumulate"
     d="m 152,70 c -48.60106,0 -88,39.39894 -88,88 0,48.60106 39.39894,88 88,88 48.60106,0 88,-39.39894 88,-88 0,-48.60106 -39.39894,-88 -88,-88 z"
     id="path962-4-1"
     clip-path="url(#clipPath999-9-6)"
     inkscape:connector-curvature="0"
     sodipodi:nodetypes="sssss" />
  <path
     inkscape:connector-curvature="0"
     style="display:inline;opacity:0.5;fill:url(#linearGradient1762);fill-opacity:1;stroke:none;stroke-width:9.77777767;stroke-linecap:round;stroke-linejoin:round;stroke-miterlimit:4;stroke-dasharray:none;stroke-dashoffset:0;stroke-opacity:1;enable-background:new"
     d="M 127.752,55.802701 93.529343,94.914032 H 108.19731 V 114.47068 134.02536 153.582 H 93.529343 L 127.752,192.69333 161.97466,153.582 H 147.30669 V 134.02536 114.47068 94.914032 h 14.66797 z"
     id="rect5956-3-5" />
  <path
     style="display:inline;opacity:0.2;fill:#000000;fill-opacity:1;stroke:none;stroke-width:9.77777767;stroke-linecap:round;stroke-linejoin:round;stroke-miterlimit:4;stroke-dasharray:none;stroke-dashoffset:0;stroke-opacity:1;enable-background:new"
     d="m 127.752,55.802722 -34.222657,39.11133 h 0.875 l 33.347657,-38.11133 33.34766,38.11133 h 0.875 z"
     id="rect5956-3-5-4"
     inkscape:connector-curvature="0" />
  <path
     style="display:inline;opacity:0.3;fill:#ffffff;fill-opacity:1;stroke:none;stroke-width:9.77777767;stroke-linecap:round;stroke-linejoin:round;stroke-miterlimit:4;stroke-dasharray:none;stroke-dashoffset:0;stroke-opacity:1;enable-background:new"
     d="M 92.656733,153.58134 127.752,193.6914 162.84727,153.58134 h -0.87305 L 127.752,192.69335 93.529783,153.58134 Z"
     id="rect5956-7-2"
     inkscape:connector-curvature="0"
     sodipodi:nodetypes="ccccccc" />
  <path
     inkscape:connector-curvature="0"
     style="display:inline;opacity:0.3;fill:#000000;fill-opacity:1;stroke:none;stroke-width:9.77777767;stroke-linecap:round;stroke-linejoin:round;stroke-miterlimit:4;stroke-dasharray:none;stroke-dashoffset:0;stroke-opacity:1;filter:url(#filter6571);enable-background:new"
     d="m 122.77454,86.026002 c -8.12533,-1.2e-4 -14.66666,2.18044 -14.66666,4.88889 H 88.640893 c -8.12533,0 -14.66667,2.18044 -14.66667,4.88888 -2.70844,0 -4.88889,2.18045 -4.88889,4.888898 v 9.77778 c 0,2.70845 2.18045,4.88889 4.88889,4.88889 0,2.70844 6.54134,4.88889 14.66667,4.88889 h 19.466987 c 0,2.70844 6.54133,4.88877 14.66666,4.88889 l 9.85513,1.6e-4 c 8.12533,1.1e-4 14.66666,-2.18045 14.66666,-4.88889 l 19.56678,-1.6e-4 c 8.12533,-6e-5 14.66667,-2.18045 14.66667,-4.88889 2.70844,0 4.88888,-2.18044 4.88888,-4.88889 v -9.77778 c 0,-2.708448 -2.18044,-4.888898 -4.88888,-4.888898 0,-2.70844 -6.54134,-4.88894 -14.66667,-4.88887 l -19.56678,1.4e-4 c 0,-2.70845 -6.54133,-4.88878 -14.66666,-4.88889 z"
     id="rect6037-3-7"
     sodipodi:nodetypes="scscsscscsscscsscscss" />
  <rect
     style="display:inline;opacity:1;fill:#faf8f6;fill-opacity:1;stroke:none;stroke-width:9.77777767;stroke-linecap:round;stroke-linejoin:round;stroke-miterlimit:4;stroke-dasharray:none;stroke-dashoffset:0;stroke-opacity:1;enable-background:new"
     id="rect6037-6"
     width="117.33333"
     height="19.555555"
     x="69.085358"
     y="94.914909"
     rx="4.8888888"
     ry="4.8888888" />
  <path
     inkscape:connector-curvature="0"
     style="display:inline;opacity:1;fill:#ffffff;fill-opacity:1;stroke:none;stroke-width:9.77777767;stroke-linecap:round;stroke-linejoin:round;stroke-miterlimit:4;stroke-dasharray:none;stroke-dashoffset:0;stroke-opacity:1;enable-background:new"
     d="m 73.974653,94.914272 c -2.70844,0 -4.88867,2.18022 -4.88867,4.888673 v 1.000005 c 0,-2.708455 2.18023,-4.888678 4.88867,-4.888678 H 181.52934 c 2.70845,0 4.88868,2.180223 4.88868,4.888678 v -1.000005 c 0,-2.708453 -2.18023,-4.888673 -4.88868,-4.888673 z"
     id="rect6037-6-3" />
  <circle
     style="display:inline;opacity:0.3;fill:#000000;fill-opacity:1;stroke:none;stroke-width:2;stroke-linecap:round;stroke-linejoin:round;stroke-miterlimit:4;stroke-dasharray:none;stroke-dashoffset:0;stroke-opacity:1;enable-background:new"
     id="path1764"
     cx="127.752"
     cy="118.248"
     r="16" />
  <rect
     style="display:inline;opacity:1;fill:#f22c42;fill-opacity:1;stroke:none;stroke-width:9.77777767;stroke-linecap:round;stroke-linejoin:round;stroke-miterlimit:4;stroke-dasharray:none;stroke-dashoffset:0;stroke-opacity:1;enable-background:new"
     id="rect5991-69"
     width="107.55555"
     height="29.333332"
     x="73.974236"
     y="90.026009"
     rx="14.666666"
     ry="4.8888888" />
  <path
     inkscape:connector-curvature="0"
     style="display:inline;opacity:0.5;fill:#ffffff;fill-opacity:1;stroke:none;stroke-width:9.77777767;stroke-linecap:round;stroke-linejoin:round;stroke-miterlimit:4;stroke-dasharray:none;stroke-dashoffset:0;stroke-opacity:1;enable-background:new"
     d="m 88.640673,90.025592 c -8.12533,0 -14.66602,2.18023 -14.66602,4.88868 v 1 c 0,-2.70845 6.54069,-4.88868 14.66602,-4.88868 h 78.222657 c 8.12533,0 14.66601,2.18023 14.66601,4.88868 v -1 c 0,-2.70845 -6.54068,-4.88868 -14.66601,-4.88868 z"
     id="rect5991-69-8" />
  <rect
     style="display:inline;opacity:0.15;fill:url(#linearGradient6581);fill-opacity:1;stroke:none;stroke-width:9.77777767;stroke-linecap:round;stroke-linejoin:round;stroke-miterlimit:4;stroke-dasharray:none;stroke-dashoffset:0;stroke-opacity:1;enable-background:new"
     id="rect6191-2"
     width="4.8888888"
     height="29.333332"
     x="-108.00789"
     y="90.026009"
     transform="scale(-1,1)" />
  <rect
     style="display:inline;opacity:0.15;fill:url(#linearGradient6589);fill-opacity:1;stroke:none;stroke-width:9.77777767;stroke-linecap:round;stroke-linejoin:round;stroke-miterlimit:4;stroke-dasharray:none;stroke-dashoffset:0;stroke-opacity:1;enable-background:new"
     id="rect6191-8-5"
     width="4.8888888"
     height="29.333332"
     x="147.39598"
     y="90.025932" />
  <path
     style="display:inline;opacity:1;fill:#faf8f6;fill-opacity:1;stroke:none;stroke-width:9.77777767;stroke-linecap:round;stroke-linejoin:round;stroke-miterlimit:4;stroke-dasharray:none;stroke-dashoffset:0;stroke-opacity:1;enable-background:new"
     d="m 122.77454,85.137102 9.85513,1.4e-4 c 8.12533,1.2e-4 14.66666,2.18045 14.66666,4.88889 v 29.333348 c 0,2.70843 -6.54133,4.889 -14.66666,4.88889 l -9.85513,-1.5e-4 c -8.12533,-1.2e-4 -14.66666,-2.18045 -14.66666,-4.88889 V 90.025992 c 0,-2.70845 6.54133,-4.88901 14.66666,-4.88889 z"
     id="rect6039-4"
     inkscape:connector-curvature="0"
     sodipodi:nodetypes="sssssssss" />
  <path
     style="display:inline;opacity:1;fill:#ffffff;fill-opacity:1;stroke:none;stroke-width:9.77777767;stroke-linecap:round;stroke-linejoin:round;stroke-miterlimit:4;stroke-dasharray:none;stroke-dashoffset:0;stroke-opacity:1;enable-background:new"
     d="m 122.77498,85.136922 c -8.12534,0 -14.66797,2.18023 -14.66797,4.88867 v 1 c 0,-2.70844 6.54263,-4.88867 14.66797,-4.88867 h 9.95404 c 8.12534,0 14.66797,2.18023 14.66797,4.88867 v -1 c 0,-2.70844 -6.54263,-4.88867 -14.66797,-4.88867 z"
     id="rect6039-4-3"
     inkscape:connector-curvature="0"
     sodipodi:nodetypes="sscsscsss" />
  <path
     inkscape:connector-curvature="0"
     style="display:inline;opacity:0.2;fill:#000000;fill-opacity:1;stroke:none;stroke-width:9.77777767;stroke-linecap:round;stroke-linejoin:round;stroke-miterlimit:4;stroke-dasharray:none;stroke-dashoffset:0;stroke-opacity:1;enable-background:new"
     d="M 186.41997,99.148405 V 108.582 c 0,2.70845 -2.18022,4.88868 -4.88867,4.88868 0,2.70844 -6.54263,4.88867 -14.66797,4.88867 h -19.56641 c 0,2.70843 -6.54068,4.88878 -14.66601,4.88867 h -9.85547 c -8.12533,-1.2e-4 -14.66602,-2.18023 -14.66602,-4.88867 H 88.642623 c -8.12532,0 -14.66796,-2.18023 -14.66796,-4.88867 -2.48138,0 -4.51557,-1.8311 -4.83985,-4.22071 v 0.33203 c 0,2.70845 2.18023,4.88868 4.88868,4.88868 0,2.70844 6.54263,4.88867 14.66796,4.88867 h 19.466797 c 0,2.70844 6.54069,4.88855 14.66602,4.88867 h 9.85546 c 8.12533,1.1e-4 14.66602,-2.18024 14.66602,-4.88867 h 19.56641 c 8.12533,0 14.66796,-2.18023 14.66796,-4.88867 2.70845,0 4.88868,-2.18023 4.88868,-4.88868 v -9.777345 c 0,-0.22298 -0.0202,-0.44133 -0.0488,-0.65625 z"
     id="rect6037-6-31" />
  <path
     style="display:inline;opacity:0.3;fill:#ffffff;fill-opacity:1;stroke:none;stroke-width:1;stroke-linecap:round;stroke-linejoin:round;stroke-miterlimit:4;stroke-dasharray:none;stroke-opacity:1;enable-background:new"
     d="M 127.752,12.248007 A 112,112 0 0 0 15.752005,124.24801 112,112 0 0 0 15.793025,125.41793 112,112 0 0 1 127.752,14.248007 112,112 0 0 1 239.71098,125.07809 a 112,112 0 0 0 0.041,-0.83008 112,112 0 0 0 -112,-112.000003 z"
     id="path11042-1"
     inkscape:connector-curvature="0" />
  <path
     inkscape:connector-curvature="0"
     style="display:inline;opacity:0.2;fill:#000000;fill-opacity:1;stroke:none;stroke-width:1;stroke-linecap:round;stroke-linejoin:round;stroke-miterlimit:4;stroke-dasharray:none;stroke-opacity:1;enable-background:new"
     d="m 127.752,236.24801 a 112,112 0 0 1 -111.999995,-112 112,112 0 0 1 0.04102,-1.16992 112,112 0 0 0 111.958975,111.16992 112,112 0 0 0 111.95898,-110.83008 112,112 0 0 1 0.041,0.83008 112,112 0 0 1 -112,112 z"
     id="path11042-1-7" />
</svg>
