<svg xmlns="http://www.w3.org/2000/svg" xmlns:osb="http://www.openswatchbook.org/uri/2009/osb" xmlns:xlink="http://www.w3.org/1999/xlink" width="256" height="256" version="1.1">
 <defs>
  <linearGradient id="linearGradient5606" osb:paint="solid">
   <stop id="stop5608" offset="0" style="stop-color:#000000"/>
  </linearGradient>
  <linearGradient id="linearGradient4526" osb:paint="solid">
   <stop id="stop4528" offset="0" style="stop-color:#ffffff"/>
  </linearGradient>
  <linearGradient id="linearGradient3600-4" osb:paint="gradient">
   <stop id="stop3602-7" offset="0" style="stop-color:#f4f4f4"/>
   <stop id="stop3604-6" offset="1" style="stop-color:#dbdbdb"/>
  </linearGradient>
  <clipPath id="clipPath1094" clipPathUnits="userSpaceOnUse">
   <path style="fill:url(#linearGradient1098)" d="M 188.96875,43.999998 C 261.6174,43.999998 272,54.356613 272,126.9375 v 58.125 C 272,257.64309 261.6174,268 188.96875,268 h -73.9375 C 42.3826,268 32,257.64309 32,185.0625 v -58.125 C 32,54.356613 42.3826,43.999998 115.03125,43.999998 Z"/>
  </clipPath>
  <clipPath id="clipPath1100" clipPathUnits="userSpaceOnUse">
   <path style="fill:url(#linearGradient1104)" d="M 188.96875,44 C 261.6174,44 272,54.356615 272,126.9375 v 58.125 C 272,257.64309 261.6174,268 188.96875,268 h -73.9375 C 42.3826,268 32,257.64309 32,185.0625 v -58.125 C 32,54.356615 42.3826,44 115.03125,44 Z"/>
  </clipPath>
  <filter style="color-interpolation-filters:sRGB" id="filter11191" width="1.024" height="1.024" x="-.01" y="-.01">
   <feGaussianBlur id="feGaussianBlur11193" stdDeviation="1.12"/>
  </filter>
  <filter style="color-interpolation-filters:sRGB" id="filter11210" width="1.096" height="1.096" x="-.05" y="-.05">
   <feGaussianBlur id="feGaussianBlur11212" stdDeviation="4.48"/>
  </filter>
  <linearGradient id="linearGradient1490" x1="33.076" x2="91.624" y1="210.425" y2="262.805" gradientTransform="matrix(2.1947377,0,0,2.1923444,-10.836741,-394.1216)" gradientUnits="userSpaceOnUse" xlink:href="#linearGradient1488"/>
  <linearGradient id="linearGradient1488">
   <stop style="stop-color:#ff8b00" id="stop1484" offset="0"/>
   <stop style="stop-color:#ffda2c" id="stop1486" offset="1"/>
  </linearGradient>
  <filter id="filter4460" width="1.026" height="1.023" x="-.01" y="-.01" style="color-interpolation-filters:sRGB">
   <feGaussianBlur id="feGaussianBlur7" stdDeviation="1.133"/>
  </filter>
  <linearGradient id="linearGradient4413" x1="256" x2="256" y1="138" y2="375" gradientTransform="matrix(0.43877818,0,0,0.43877818,-24.464695,-1.3582757)" gradientUnits="userSpaceOnUse">
   <stop style="stop-color:#000000;stop-opacity:0" id="stop10" offset="0"/>
   <stop style="stop-color:#000000" id="stop12" offset=".505"/>
   <stop style="stop-color:#000000;stop-opacity:0" id="stop14" offset="1"/>
  </linearGradient>
 </defs>
 <circle style="opacity:0.1;filter:url(#filter11210)" cx="128.752" cy="127.248" r="112"/>
 <circle style="opacity:0.1;filter:url(#filter11191)" cx="128.752" cy="125.248" r="112"/>
 <circle style="opacity:0.1" cx="128.752" cy="123.248" r="114"/>
 <circle style="fill:#2daae1" cx="128.752" cy="123.248" r="112"/>
 <path style="opacity:0.1;fill:#ffffff" d="M 16.751953 123.24805 C 16.971496 125.88804 17.018381 129.23376 17.154297 132.16602 A 112 112 0 0 0 18.380859 142.28516 A 112 112 0 0 0 20.833984 153.20703 A 112 112 0 0 0 24.363281 163.83203 A 112 112 0 0 0 28.9375 174.05078 A 112 112 0 0 0 34.507812 183.76172 A 112 112 0 0 0 41.019531 192.86914 A 112 112 0 0 0 48.408203 201.2793 A 112 112 0 0 0 56.599609 208.91016 A 112 112 0 0 0 65.511719 215.68555 A 112 112 0 0 0 75.056641 221.53711 A 112 112 0 0 0 85.136719 226.40625 A 112 112 0 0 0 95.654297 230.24609 A 112 112 0 0 0 106.50195 233.01562 A 112 112 0 0 0 117.57031 234.6875 A 112 112 0 0 0 128.62695 235.24219 C 129.62969 235.24097 130.6865 235.15597 131.69922 235.14258 A 112 112 0 0 0 136.67383 234.9668 A 112 112 0 0 0 147.78906 233.61914 A 112 112 0 0 0 158.71094 231.16602 A 112 112 0 0 0 169.33594 227.63672 A 112 112 0 0 0 179.55469 223.0625 A 112 112 0 0 0 189.26562 217.49219 A 112 112 0 0 0 198.37305 210.98047 A 112 112 0 0 0 206.7832 203.5918 A 112 112 0 0 0 214.41406 195.40039 A 112 112 0 0 0 221.18945 186.48828 A 112 112 0 0 0 227.04102 176.94336 A 112 112 0 0 0 231.91016 166.86328 A 112 112 0 0 0 235.75 156.3457 A 112 112 0 0 0 238.51953 145.49805 A 112 112 0 0 0 240.1582 134.66797 C 239.9606 130.58527 239.86829 126.66381 240.15234 123.24805 L 16.751953 123.24805 z"/>
 <path style="opacity:0.3;fill:#ffffff" d="M 128.752,11.248006 A 112,112 0 0 0 16.751999,123.248 112,112 0 0 0 16.793019,124.41792 112,112 0 0 1 128.752,13.248006 112,112 0 0 1 240.71098,124.07808 a 112,112 0 0 0 0.041,-0.83008 112,112 0 0 0 -112,-111.999994 z"/>
 <path style="opacity:0.2" d="m 128.752,235.248 a 112,112 0 0 1 -112.000001,-112 112,112 0 0 1 0.04102,-1.16992 A 112,112 0 0 0 128.752,233.248 112,112 0 0 0 240.71098,122.41792 a 112,112 0 0 1 0.041,0.83008 112,112 0 0 1 -112,112 z"/>
 <g style="enable-background:new" transform="translate(-186.67626,1.9437252)">
  <g transform="translate(415.05673,-21.740664)" style="enable-background:new">
   <g transform="translate(-2.4492995,9.4611196)">
    <g style="enable-background:new" id="layer1-3" transform="matrix(0.86666673,0,0,0.86666673,-459.19665,-54.181277)">
     <g id="layer9-6">
      <path style="fill:#ffffff" d="m 504.2509,162.96418 c -6.36617,2.82488 -13.20381,4.7346 -20.39303,5.59301 7.33728,-4.39365 12.95815,-11.35597 15.61217,-19.6423 a 70.933956,70.933956 0 0 1 -22.55202,8.61626 c -6.47334,-6.89999 -15.70423,-11.20791 -25.91669,-11.20791 -19.60244,0 -35.5,15.89113 -35.5,35.50504 0,2.77902 0.3129,5.49031 0.91436,8.09344 -29.50872,-1.48306 -55.67006,-15.61808 -73.1813,-37.09629 -3.0578,5.24564 -4.80798,11.34451 -4.80798,17.85178 0,12.3165 6.26897,23.18347 15.79453,29.54905 a 35.344157,35.344157 0 0 1 -16.08461,-4.43902 v 0.44839 c 0,17.20413 12.23677,31.54954 28.48037,34.81212 -2.98386,0.81742 -6.11541,1.24463 -9.35504,1.24463 -2.29049,0 -4.51273,-0.21707 -6.68365,-0.62464 4.51823,14.1011 17.63079,24.36544 33.16315,24.6555 -12.1516,9.52559 -27.46297,15.20374 -44.0929,15.20374 -2.86433,0 -5.69513,-0.17081 -8.47427,-0.50567 15.71521,10.07686 34.3744,15.95948 54.426,15.95948 65.30428,0 101.01963,-54.10188 101.01963,-101.01964 0,-1.54035 -0.0332,-3.06922 -0.11009,-4.5926 a 72.343195,72.343195 0 0 0 17.73899,-18.40394 z"/>
     </g>
    </g>
   </g>
  </g>
 </g>
</svg>
