<?xml version="1.0" encoding="UTF-8" standalone="no"?>
<svg
   xmlns:osb="http://www.openswatchbook.org/uri/2009/osb"
   xmlns:dc="http://purl.org/dc/elements/1.1/"
   xmlns:cc="http://creativecommons.org/ns#"
   xmlns:rdf="http://www.w3.org/1999/02/22-rdf-syntax-ns#"
   xmlns:svg="http://www.w3.org/2000/svg"
   xmlns="http://www.w3.org/2000/svg"
   xmlns:xlink="http://www.w3.org/1999/xlink"
   xmlns:sodipodi="http://sodipodi.sourceforge.net/DTD/sodipodi-0.dtd"
   xmlns:inkscape="http://www.inkscape.org/namespaces/inkscape"
   width="256"
   height="256"
   version="1.1"
   id="svg123"
   sodipodi:docname="ubiquity.svg"
   inkscape:version="0.92.4 (5da689c313, 2019-01-14)">
  <metadata
     id="metadata127">
    <rdf:RDF>
      <cc:Work
         rdf:about="">
        <dc:format>image/svg+xml</dc:format>
        <dc:type
           rdf:resource="http://purl.org/dc/dcmitype/StillImage" />
      </cc:Work>
    </rdf:RDF>
  </metadata>
  <sodipodi:namedview
     pagecolor="#ffffff"
     bordercolor="#666666"
     borderopacity="1"
     objecttolerance="10"
     gridtolerance="10"
     guidetolerance="10"
     inkscape:pageopacity="0"
     inkscape:pageshadow="2"
     inkscape:window-width="1920"
     inkscape:window-height="1016"
     id="namedview125"
     showgrid="false"
     inkscape:zoom="3.3331595"
     inkscape:cx="72.01196"
     inkscape:cy="192.25966"
     inkscape:window-x="0"
     inkscape:window-y="27"
     inkscape:window-maximized="1"
     inkscape:current-layer="svg123" />
  <defs
     id="defs41">
    <linearGradient
       id="linearGradient5606"
       osb:paint="solid">
      <stop
         id="stop5608"
         offset="0"
         style="stop-color:#000000" />
    </linearGradient>
    <linearGradient
       id="linearGradient4526"
       osb:paint="solid">
      <stop
         id="stop4528"
         offset="0"
         style="stop-color:#ffffff" />
    </linearGradient>
    <linearGradient
       id="linearGradient3600-4"
       osb:paint="gradient">
      <stop
         id="stop3602-7"
         offset="0"
         style="stop-color:#f4f4f4" />
      <stop
         id="stop3604-6"
         offset="1"
         style="stop-color:#dbdbdb" />
    </linearGradient>
    <filter
       style="color-interpolation-filters:sRGB"
       id="filter1345"
       width="1.048"
       height="1.048"
       x="-.02"
       y="-.02">
      <feGaussianBlur
         id="feGaussianBlur1347"
         stdDeviation="1.28" />
    </filter>
    <filter
       style="color-interpolation-filters:sRGB"
       id="filter1469"
       width="1.08"
       height="1.241"
       x="-.04"
       y="-.12">
      <feGaussianBlur
         id="feGaussianBlur1471"
         stdDeviation="2.321" />
    </filter>
    <linearGradient
       id="linearGradient2529"
       x1="77"
       x2="227"
       y1="156"
       y2="156"
       gradientTransform="matrix(0,0.94666648,-0.94666648,0,275.01366,-37.893473)"
       gradientUnits="userSpaceOnUse"
       xlink:href="#linearGradient1392" />
    <linearGradient
       id="linearGradient1392">
      <stop
         style="stop-color:#e6e6e6"
         id="stop1388"
         offset="0" />
      <stop
         style="stop-color:#f2f2f2"
         id="stop1390"
         offset="1" />
    </linearGradient>
    <filter
       style="color-interpolation-filters:sRGB"
       id="filter1422"
       width="1.12"
       height="1.12"
       x="-.06"
       y="-.06">
      <feGaussianBlur
         id="feGaussianBlur1424"
         stdDeviation="3.75" />
    </filter>
    <linearGradient
       id="linearGradient982"
       x1="152"
       x2="152"
       y1="124"
       y2="236"
       gradientUnits="userSpaceOnUse"
       xlink:href="#linearGradient980" />
    <linearGradient
       id="linearGradient980">
      <stop
         style="stop-color:#000000"
         id="stop976"
         offset="0" />
      <stop
         style="stop-color:#000000;stop-opacity:0"
         id="stop978"
         offset="1" />
    </linearGradient>
    <clipPath
       id="clipPath999"
       clipPathUnits="userSpaceOnUse">
      <path
         style="fill:#5d5d5d"
         d="m 152,68 c -48.60106,0 -88,39.39894 -88,88 0,48.60106 39.39894,88 88,88 48.60106,0 88,-39.39894 88,-88 0,-48.60106 -39.39894,-88 -88,-88 z"
         id="path23" />
    </clipPath>
    <filter
       style="color-interpolation-filters:sRGB"
       id="filter1003"
       width="1.12"
       height="1.12"
       x="-.06"
       y="-.06">
      <feGaussianBlur
         id="feGaussianBlur1005"
         stdDeviation="4.4" />
    </filter>
    <linearGradient
       id="linearGradient4226"
       x1="494.345"
       x2="4.414"
       y1="386.295"
       y2="169.657"
       gradientTransform="matrix(0,-0.453125,-0.45311204,0,253.29054,234)"
       gradientUnits="userSpaceOnUse"
       xlink:href="#linearGradient876" />
    <linearGradient
       id="linearGradient876">
      <stop
         style="stop-color:#b3b3b3"
         id="stop872"
         offset="0" />
      <stop
         style="stop-color:#d9d9d9"
         id="stop874"
         offset="1" />
    </linearGradient>
    <linearGradient
       id="linearGradient4358"
       x1="88"
       x2="488"
       y1="88"
       y2="488"
       gradientUnits="userSpaceOnUse"
       xlink:href="#linearGradient4360" />
    <linearGradient
       id="linearGradient4360">
      <stop
         id="stop4362"
         offset="0"
         style="stop-color:#000000;stop-opacity:0.58823532" />
      <stop
         style="stop-color:#000000;stop-opacity:0"
         id="stop4364"
         offset=".88" />
      <stop
         id="stop4366"
         offset="1"
         style="stop-color:#000000" />
    </linearGradient>
    <filter
       style="color-interpolation-filters:sRGB"
       id="filter4380"
       width="1.106"
       height="1.088"
       x="-.05"
       y="-.04">
      <feGaussianBlur
         id="feGaussianBlur4382"
         stdDeviation="8.48" />
    </filter>
    <filter
       style="color-interpolation-filters:sRGB"
       id="filter4346"
       width="1.026"
       height="1.022"
       x="-.01"
       y="-.01">
      <feGaussianBlur
         id="feGaussianBlur4348"
         stdDeviation="2.12" />
    </filter>
    <clipPath
       clipPathUnits="userSpaceOnUse"
       id="clipPath999-7">
      <path
         inkscape:connector-curvature="0"
         style="color:#000000;display:inline;overflow:visible;visibility:visible;opacity:1;fill:#5d5d5d;fill-opacity:1;fill-rule:nonzero;stroke:none;stroke-width:3.82599998;stroke-linecap:butt;stroke-linejoin:round;stroke-miterlimit:4;stroke-dasharray:none;stroke-dashoffset:0;stroke-opacity:1;marker:none;enable-background:accumulate"
         d="m 152,68 c -48.60106,0 -88,39.39894 -88,88 0,48.60106 39.39894,88 88,88 48.60106,0 88,-39.39894 88,-88 0,-48.60106 -39.39894,-88 -88,-88 z"
         id="path1001"
         sodipodi:nodetypes="sssss" />
    </clipPath>
    <filter
       inkscape:collect="always"
       style="color-interpolation-filters:sRGB"
       id="filter5497"
       x="-0.011894731"
       width="1.0237895"
       y="-0.012107148"
       height="1.0242143">
      <feGaussianBlur
         inkscape:collect="always"
         stdDeviation="1.1300024"
         id="feGaussianBlur5499" />
    </filter>
    <filter
       inkscape:collect="always"
       style="color-interpolation-filters:sRGB"
       id="filter5548"
       x="-0.047999982"
       width="1.096"
       y="-0.048000019"
       height="1.096">
      <feGaussianBlur
         inkscape:collect="always"
         stdDeviation="4.4800095"
         id="feGaussianBlur5550" />
    </filter>
  </defs>
  <path
     style="display:inline;opacity:0.1;fill:#000000;stroke-width:0.79022378;filter:url(#filter5548);enable-background:new"
     d="m 128.75203,16.247616 v 36 h -16 -20.000006 v 20 16 h -20 -20 v 20.000004 h -20 v 20 h -16 c 9.6e-4,54.23759 38.55373,99.46499 89.750006,109.78516 0.89986,0.1814 1.8034,0.35203 2.71094,0.51173 0.90131,0.15855 1.80623,0.30645 2.71484,0.44335 0.0889,0.0134 0.17856,0.0258 0.26758,0.0391 0.81863,0.12132 1.63859,0.23635 2.46289,0.33984 0.19084,0.024 0.38308,0.0434 0.57422,0.0664 0.74347,0.0895 1.48845,0.17711 2.23633,0.25194 0.003,2.6e-4 0.005,-2.6e-4 0.008,0 0.035,0.004 0.0704,0.006 0.10547,0.01 0.89424,0.0886 1.79111,0.16697 2.6914,0.23437 0.9326,0.0698 1.86784,0.12894 2.80664,0.17579 0.003,1.3e-4 0.005,-1.4e-4 0.008,0 0.38091,0.019 0.76458,0.0277 1.14648,0.043 0.5427,0.0215 1.08425,0.0487 1.62891,0.0625 0.003,7e-5 0.006,-9e-5 0.01,0 0.80028,0.0204 1.60383,0.0279 2.40821,0.0312 0.16437,7e-4 0.32764,0.006 0.49218,0.006 0.95997,-1.5e-4 1.91693,-0.0129 2.8711,-0.0371 0.006,-1.6e-4 0.013,1.8e-4 0.0195,0 0.9541,-0.0243 1.9055,-0.0613 2.85351,-0.10937 57.27448,-2.89417 103.19568,-48.81683 106.0879,-106.0918 0.048,-0.94673 0.085,-1.89682 0.10937,-2.84961 2e-4,-0.008 -2e-4,-0.0157 0,-0.0234 0.0241,-0.95287 0.0369,-1.90854 0.0371,-2.86719 v -0.0234 c 0,-0.19004 -0.007,-0.37855 -0.008,-0.56836 -0.004,-0.77025 -0.01,-1.54015 -0.0293,-2.30664 -1.3e-4,-0.005 1.3e-4,-0.0104 0,-0.0156 -0.0235,-0.92666 -0.0596,-1.85055 -0.10547,-2.77148 v -0.002 c -0.0938,-1.88258 -0.23431,-3.75239 -0.41992,-5.60937 -0.0798,-0.79871 -0.17301,-1.59305 -0.26953,-2.38672 -0.0157,-0.12926 -0.0268,-0.25955 -0.043,-0.38867 -10e-4,-0.0111 -0.003,-0.0221 -0.004,-0.0332 -0.11417,-0.91013 -0.24107,-1.81751 -0.37695,-2.72071 -0.13768,-0.91512 -0.2876,-1.82664 -0.44726,-2.73437 C 229.8058,56.167327 183.94702,16.247616 128.75398,16.247616 Z"
     id="path5538"
     inkscape:connector-curvature="0" />
  <path
     style="display:inline;opacity:0.1;fill:#000000;stroke:none;stroke-width:4;stroke-miterlimit:4;stroke-dasharray:none;filter:url(#filter5497);enable-background:new"
     d="m 12.751735,12.247804 v 16.000001 h 16 V 12.247804 Z m 16,16.000001 v 16.000001 h 16 v -16 z m 0,16.000001 -16,0.0918 v 15.908199 h 16 z m 20.0918,-32.000001 -0.0918,16.000001 h 4.000005 4 8 V 12.247805 Z m 79.908215,0 v 36 h -16 -20.000006 v 20.000001 3.25781 c -5.19426,3.55341 -9.83437,7.85022 -13.76953,12.74219 h -6.230474 -20 V 104.2478 H 32.751735 v 20 h -16 c 9.7e-4,54.23759 38.553735,99.46499 89.750015,109.78516 0.89986,0.18139 1.8034,0.35203 2.71094,0.51172 0.90131,0.15855 1.80623,0.30646 2.71484,0.44335 0.0889,0.0134 0.17856,0.0258 0.26758,0.0391 0.81863,0.12132 1.63859,0.23634 2.46289,0.33984 0.19084,0.024 0.38308,0.0434 0.57422,0.0664 0.74347,0.0895 1.48845,0.17712 2.23633,0.25195 0.003,2.6e-4 0.005,-2.6e-4 0.008,0 0.035,0.004 0.0704,0.006 0.10547,0.01 0.89424,0.0886 1.79111,0.16697 2.6914,0.23437 0.9326,0.0698 1.86785,0.12894 2.80664,0.17578 0.003,1.3e-4 0.005,-1.3e-4 0.008,0 0.38091,0.019 0.76458,0.0277 1.14648,0.043 0.5427,0.0215 1.08425,0.0487 1.62891,0.0625 0.003,8e-5 0.006,-8e-5 0.01,0 0.80028,0.0204 1.60383,0.0279 2.40821,0.0312 0.16437,7.1e-4 0.32764,0.006 0.49218,0.006 0.95997,-1.6e-4 1.91693,-0.0129 2.8711,-0.0371 0.006,-1.6e-4 0.013,1.7e-4 0.0195,0 0.9541,-0.0243 1.9055,-0.0613 2.85351,-0.10937 57.27448,-2.89417 103.19568,-48.81683 106.0879,-106.0918 0.048,-0.94673 0.085,-1.89682 0.10937,-2.84961 2e-4,-0.008 -2e-4,-0.0157 0,-0.0234 0.0241,-0.95287 0.0369,-1.90854 0.0371,-2.86719 v -0.0234 c 0,-0.19004 -0.007,-0.37855 -0.008,-0.56836 -0.004,-0.77025 -0.01,-1.54015 -0.0293,-2.30664 -1.3e-4,-0.005 1.3e-4,-0.0104 0,-0.0156 -0.0235,-0.92666 -0.0596,-1.85055 -0.10547,-2.77148 v -0.002 c -0.0938,-1.88258 -0.23431,-3.75239 -0.41992,-5.60937 -0.0798,-0.79871 -0.17301,-1.59305 -0.26953,-2.38672 -0.0157,-0.12926 -0.0268,-0.25955 -0.043,-0.38867 -0.001,-0.0111 -0.003,-0.0221 -0.004,-0.0332 -0.11417,-0.91013 -0.24107,-1.81751 -0.37695,-2.72071 -0.13768,-0.91512 -0.28761,-1.82664 -0.44727,-2.73437 C 229.80525,52.167072 183.94674,12.247804 128.7537,12.247804 Z m -32.000006,4 V 32.247806 H 112.75175 V 16.247805 Z M 72.75174,32.247806 V 48.247805 H 88.751744 V 32.247806 Z m -20,3.999999 v 16 h 16 v -16 z m -16.000005,20 V 72.247806 H 52.75174 V 56.247804 Z m 0,16.000001 h -16 v 16 h 16 z M 64.75174,60.247804 V 76.247806 H 80.751744 V 60.247804 Z m 28.000004,16.375002 v 0.55078 c -0.0838,-0.12651 -0.19296,-0.2287 -0.33203,-0.30078 0.10984,-0.0843 0.2216,-0.16645 0.33203,-0.25 z m -8.16602,7.40625 c 0.14064,0.0843 0.28526,0.16093 0.43946,0.21875 h -0.63282 c 0.0655,-0.072 0.12757,-0.14708 0.19336,-0.21875 z m 8.16602,0.0254 v 0.19336 h -0.1543 c 0.0566,-0.059 0.10829,-0.12327 0.1543,-0.19336 z"
     id="path4771-1-2-7"
     inkscape:connector-curvature="0" />
  <path
     style="display:inline;opacity:0.1;fill:#000000;stroke:#000000;stroke-width:4;stroke-miterlimit:4;stroke-dasharray:none;enable-background:new"
     d="m 12.752024,10.247615 v 16.000002 h 16 V 10.247615 Z m 16,16.000002 v 16 h 16 v -16 z m 0,16 -16,0.0918 v 15.908199 h 16 z m 20.0918,-32.000002 -0.0918,16.000002 h 4 4 8 V 10.247615 Z m 79.908206,0 v 36.000001 h -16 -20.000006 v 20 3.25781 c -5.19426,3.55341 -9.83437,7.85022 -13.76953,12.74219 h -6.23047 -20 v 20.000004 h -20 v 20 h -16 c 9.7e-4,54.23759 38.55373,99.46499 89.750006,109.78516 0.89986,0.18139 1.8034,0.35203 2.71094,0.51172 0.90131,0.15855 1.80623,0.30646 2.71484,0.44335 0.0889,0.0134 0.17856,0.0258 0.26758,0.0391 0.81863,0.12132 1.63859,0.23634 2.46289,0.33984 0.19084,0.024 0.38308,0.0434 0.57422,0.0664 0.74347,0.0895 1.48845,0.17712 2.23633,0.25195 0.003,2.6e-4 0.005,-2.6e-4 0.008,0 0.035,0.004 0.0704,0.006 0.10547,0.01 0.89424,0.0886 1.79111,0.16697 2.6914,0.23437 0.9326,0.0698 1.86785,0.12894 2.80664,0.17578 0.003,1.3e-4 0.005,-1.3e-4 0.008,0 0.38091,0.019 0.76458,0.0277 1.14648,0.043 0.5427,0.0215 1.08425,0.0487 1.62891,0.0625 0.003,8e-5 0.006,-8e-5 0.01,0 0.80028,0.0204 1.60383,0.0279 2.40821,0.0312 0.16437,7.1e-4 0.32764,0.006 0.49218,0.006 0.95997,-1.6e-4 1.91693,-0.0129 2.8711,-0.0371 0.006,-1.6e-4 0.013,1.7e-4 0.0195,0 0.9541,-0.0243 1.9055,-0.0613 2.85351,-0.10937 57.27448,-2.89417 103.19568,-48.81683 106.0879,-106.0918 0.048,-0.94673 0.085,-1.89682 0.10937,-2.84961 2e-4,-0.008 -2e-4,-0.0157 0,-0.0234 0.0241,-0.95287 0.0369,-1.90854 0.0371,-2.86719 v -0.0234 c 0,-0.19004 -0.007,-0.37855 -0.008,-0.56836 -0.004,-0.77025 -0.01,-1.54015 -0.0293,-2.30664 -1.3e-4,-0.005 1.3e-4,-0.0104 0,-0.0156 -0.0235,-0.92666 -0.0596,-1.85055 -0.10547,-2.77148 v -0.002 c -0.0938,-1.88258 -0.23431,-3.75239 -0.41992,-5.60937 -0.0798,-0.79871 -0.17301,-1.59305 -0.26953,-2.38672 -0.0157,-0.12926 -0.0268,-0.25955 -0.043,-0.38867 -10e-4,-0.0111 -0.003,-0.0221 -0.004,-0.0332 -0.11417,-0.91013 -0.24107,-1.81751 -0.37695,-2.72071 -0.13768,-0.91512 -0.28761,-1.82664 -0.44727,-2.73437 C 229.80553,50.166884 183.94702,10.247615 128.75398,10.247615 Z M 96.752024,14.247616 V 30.247617 H 112.75203 V 14.247616 Z m -24,16.000001 v 15.999999 h 16 V 30.247617 Z m -20,4 v 15.999999 h 16 V 34.247617 Z m -16,19.999999 v 16 h 16 v -16 z m 0,16 h -16 v 16 h 16 z m 28,-12 v 16 h 16 v -16 z m 28,16.375 v 0.55078 c -0.0838,-0.12651 -0.19296,-0.2287 -0.33203,-0.30078 0.10984,-0.0843 0.2216,-0.16645 0.33203,-0.25 z m -8.16602,7.40625 c 0.14064,0.0843 0.28526,0.16093 0.43946,0.21875 h -0.63282 c 0.0655,-0.072 0.12757,-0.14708 0.19336,-0.21875 z m 8.16602,0.02539 v 0.19336 h -0.1543 c 0.0566,-0.059 0.10829,-0.12327 0.1543,-0.19336 z"
     id="path4771-1-2"
     inkscape:connector-curvature="0" />
  <path
     style="display:inline;opacity:0.1;fill:#000000;fill-opacity:1;stroke:none;stroke-width:0.99999988;stroke-linecap:round;stroke-linejoin:round;stroke-miterlimit:4;stroke-dasharray:none;stroke-opacity:1;enable-background:new"
     d="m 128.75203,8.2479854 a 113.99999,113.99999 0 0 0 -2,0.07031 V 120.24799 H 14.851633 a 113.99999,113.99999 0 0 0 -0.09961,2 113.99999,113.99999 0 0 0 114.000007,114 113.99999,113.99999 0 0 0 114,-114 113.99999,113.99999 0 0 0 -114,-114.0000046 z"
     id="path11042-7"
     inkscape:connector-curvature="0" />
  <path
     inkscape:connector-curvature="0"
     style="display:inline;fill:#e95420;stroke-width:0.79022378;enable-background:new"
     d="m 12.752024,10.247985 v 16.000002 h 16 V 10.247985 Z m 16,16.000002 v 16 h 16 v -16 z m 0,16 -16,0.0918 v 15.908199 h 16 z m 20.091797,-32.000002 -0.0918,16.000002 h 4 4 8 V 10.247985 Z m 79.908209,0 v 36.000001 h -16 -20.000006 v 20 16 h -20 -20 v 20.000004 h -20 v 20 h -16 c 9.65e-4,54.23759 38.553733,99.46499 89.750006,109.78516 0.89986,0.18139 1.8034,0.35203 2.71094,0.51172 0.90131,0.15856 1.80623,0.30646 2.71484,0.44335 0.0889,0.0134 0.17856,0.0258 0.26758,0.0391 0.81863,0.12132 1.63859,0.23634 2.46289,0.33984 0.19084,0.024 0.38308,0.0434 0.57422,0.0664 0.74347,0.0895 1.48845,0.17712 2.23633,0.25195 0.003,2.6e-4 0.005,-2.6e-4 0.008,0 0.035,0.004 0.0704,0.006 0.10547,0.01 0.89424,0.0886 1.79111,0.16697 2.6914,0.23437 0.9326,0.0698 1.86784,0.12894 2.80664,0.17578 0.003,1.3e-4 0.005,-1.3e-4 0.008,0 0.38091,0.019 0.76458,0.0277 1.14648,0.043 0.5427,0.0215 1.08425,0.0487 1.62891,0.0625 0.003,8e-5 0.006,-8e-5 0.01,0 0.80028,0.0204 1.60383,0.0279 2.40821,0.0312 0.16437,7.1e-4 0.32764,0.006 0.49218,0.006 0.95997,-1.6e-4 1.91693,-0.0129 2.8711,-0.0371 0.006,-1.6e-4 0.013,1.7e-4 0.0195,0 0.9541,-0.0243 1.9055,-0.0613 2.85351,-0.10937 57.27448,-2.89417 103.19568,-48.81683 106.0879,-106.0918 0.048,-0.94673 0.085,-1.89682 0.10937,-2.84961 2e-4,-0.008 -2e-4,-0.0157 0,-0.0234 0.0241,-0.95287 0.0369,-1.90854 0.0371,-2.86719 v -0.0234 c 0,-0.19004 -0.007,-0.37855 -0.008,-0.56836 -0.004,-0.77025 -0.01,-1.54015 -0.0293,-2.30664 -1.3e-4,-0.005 1.3e-4,-0.0104 0,-0.0156 -0.0235,-0.92666 -0.0596,-1.85055 -0.10547,-2.77148 v -0.002 c -0.0938,-1.88258 -0.23431,-3.75239 -0.41992,-5.60937 -0.0798,-0.79871 -0.17301,-1.59305 -0.26953,-2.38672 -0.0157,-0.12926 -0.0268,-0.25955 -0.043,-0.38867 -10e-4,-0.0111 -0.003,-0.0221 -0.004,-0.0332 -0.11417,-0.91013 -0.24107,-1.81751 -0.37695,-2.72071 -0.13768,-0.91512 -0.2876,-1.82664 -0.44726,-2.73437 C 229.8058,50.167697 183.94702,10.247985 128.75398,10.247985 Z M 96.752024,14.247986 V 30.247987 H 112.75203 V 14.247986 Z m -24,16.000001 v 15.999999 h 16 V 30.247987 Z m -20,4 v 15.999999 h 16 V 34.247987 Z m -16,19.999999 v 16 h 16 v -16 z m 0,16 h -16 v 16 h 16 z m 28,-12 v 16 h 16 v -16 z"
     id="path4771" />
  <path
     style="display:inline;opacity:0.3;vector-effect:none;fill:#ffffff;fill-opacity:1;stroke:none;stroke-width:1;stroke-linecap:round;stroke-linejoin:round;stroke-miterlimit:4;stroke-dasharray:none;stroke-dashoffset:6.5999999;stroke-opacity:0.49803922;enable-background:new"
     d="m 96.752024,14.247986 h 16.000006 v 2 H 96.752024 Z"
     id="rect2212"
     inkscape:connector-curvature="0"
     sodipodi:nodetypes="ccccc" />
  <path
     style="display:inline;opacity:0.3;vector-effect:none;fill:#ffffff;fill-opacity:1;stroke:none;stroke-width:1;stroke-linecap:round;stroke-linejoin:round;stroke-miterlimit:4;stroke-dasharray:none;stroke-dashoffset:6.5999999;stroke-opacity:0.49803922;enable-background:new"
     d="m 12.752024,10.247985 h 16 v 2.000001 h -16 z"
     id="rect2212-0"
     inkscape:connector-curvature="0"
     sodipodi:nodetypes="ccccc" />
  <path
     style="display:inline;opacity:0.3;vector-effect:none;fill:#ffffff;fill-opacity:1;stroke:none;stroke-width:1;stroke-linecap:round;stroke-linejoin:round;stroke-miterlimit:4;stroke-dasharray:none;stroke-dashoffset:6.5999999;stroke-opacity:0.49803922;enable-background:new"
     d="m 48.752024,10.247985 h 16 v 2.000001 h -16 z"
     id="rect2212-6"
     inkscape:connector-curvature="0"
     sodipodi:nodetypes="ccccc" />
  <path
     style="display:inline;opacity:0.3;vector-effect:none;fill:#ffffff;fill-opacity:1;stroke:none;stroke-width:1;stroke-linecap:round;stroke-linejoin:round;stroke-miterlimit:4;stroke-dasharray:none;stroke-dashoffset:6.5999999;stroke-opacity:0.49803922;enable-background:new"
     d="m 28.752024,26.247987 h 16 v 2 h -16 z"
     id="rect2212-3"
     inkscape:connector-curvature="0"
     sodipodi:nodetypes="ccccc" />
  <path
     style="display:inline;opacity:0.3;vector-effect:none;fill:#ffffff;fill-opacity:1;stroke:none;stroke-width:1;stroke-linecap:round;stroke-linejoin:round;stroke-miterlimit:4;stroke-dasharray:none;stroke-dashoffset:6.5999999;stroke-opacity:0.49803922;enable-background:new"
     d="m 72.752024,30.247987 h 16 v 2 h -16 z"
     id="rect2212-2"
     inkscape:connector-curvature="0"
     sodipodi:nodetypes="ccccc" />
  <path
     style="display:inline;opacity:0.3;vector-effect:none;fill:#ffffff;fill-opacity:1;stroke:none;stroke-width:1;stroke-linecap:round;stroke-linejoin:round;stroke-miterlimit:4;stroke-dasharray:none;stroke-dashoffset:6.5999999;stroke-opacity:0.49803922;enable-background:new"
     d="m 64.752024,58.247986 h 16 v 2 h -16 z"
     id="rect2212-06"
     inkscape:connector-curvature="0"
     sodipodi:nodetypes="ccccc" />
  <path
     style="display:inline;opacity:0.3;vector-effect:none;fill:#ffffff;fill-opacity:1;stroke:none;stroke-width:1;stroke-linecap:round;stroke-linejoin:round;stroke-miterlimit:4;stroke-dasharray:none;stroke-dashoffset:6.5999999;stroke-opacity:0.49803922;enable-background:new"
     d="m 36.752024,54.247986 h 16 v 2 h -16 z"
     id="rect2212-1"
     inkscape:connector-curvature="0"
     sodipodi:nodetypes="ccccc" />
  <rect
     style="display:inline;opacity:0.3;vector-effect:none;fill:#ffffff;fill-opacity:1;stroke:none;stroke-width:1;stroke-linecap:round;stroke-linejoin:round;stroke-miterlimit:4;stroke-dasharray:none;stroke-dashoffset:6.5999999;stroke-opacity:0.49803922;enable-background:new"
     id="rect2212-5"
     width="20"
     height="2"
     x="92.752029"
     y="46.247986" />
  <rect
     style="display:inline;opacity:0.3;vector-effect:none;fill:#ffffff;fill-opacity:1;stroke:none;stroke-width:1;stroke-linecap:round;stroke-linejoin:round;stroke-miterlimit:4;stroke-dasharray:none;stroke-dashoffset:6.5999999;stroke-opacity:0.49803922;enable-background:new"
     id="rect2212-7"
     width="16"
     height="2"
     x="112.75204"
     y="46.247986" />
  <path
     style="display:inline;opacity:0.3;vector-effect:none;fill:#ffffff;fill-opacity:1;stroke:none;stroke-width:1;stroke-linecap:round;stroke-linejoin:round;stroke-miterlimit:4;stroke-dasharray:none;stroke-dashoffset:6.5999999;stroke-opacity:0.49803922;enable-background:new"
     d="m 20.752024,70.247986 h 16 v 2 h -16 z"
     id="rect2212-06-6"
     inkscape:connector-curvature="0"
     sodipodi:nodetypes="ccccc" />
  <path
     style="display:inline;opacity:0.3;vector-effect:none;fill:#ffffff;fill-opacity:1;stroke:none;stroke-width:1;stroke-linecap:round;stroke-linejoin:round;stroke-miterlimit:4;stroke-dasharray:none;stroke-dashoffset:6.5999999;stroke-opacity:0.49803922;enable-background:new"
     d="m 12.752024,42.247987 h 16 v 2 h -16 z"
     id="rect2212-06-5"
     inkscape:connector-curvature="0"
     sodipodi:nodetypes="ccccc" />
  <rect
     style="display:inline;opacity:0.3;vector-effect:none;fill:#ffffff;fill-opacity:1;stroke:none;stroke-width:1;stroke-linecap:round;stroke-linejoin:round;stroke-miterlimit:4;stroke-dasharray:none;stroke-dashoffset:6.5999999;stroke-opacity:0.49803922;enable-background:new"
     id="rect2212-06-69"
     width="20"
     height="2"
     x="32.752018"
     y="102.24799" />
  <rect
     style="display:inline;opacity:0.3;vector-effect:none;fill:#ffffff;fill-opacity:1;stroke:none;stroke-width:0.89442718;stroke-linecap:round;stroke-linejoin:round;stroke-miterlimit:4;stroke-dasharray:none;stroke-dashoffset:6.5999999;stroke-opacity:0.49803922;enable-background:new"
     id="rect2212-06-3"
     width="16"
     height="2"
     x="16.752026"
     y="122.24799" />
  <rect
     style="display:inline;opacity:0.3;vector-effect:none;fill:#ffffff;fill-opacity:1;stroke:none;stroke-width:1;stroke-linecap:round;stroke-linejoin:round;stroke-miterlimit:4;stroke-dasharray:none;stroke-dashoffset:6.5999999;stroke-opacity:0.49803922;enable-background:new"
     id="rect2212-06-7"
     width="40"
     height="2"
     x="52.752018"
     y="82.247986" />
  <path
     style="display:inline;fill:#e95420;fill-opacity:1;stroke:#e95420;stroke-width:4;stroke-miterlimit:4;stroke-dasharray:none;stroke-opacity:1;enable-background:new"
     inkscape:connector-curvature="0"
     d="m 70.626324,122.24562 c 0,7.95282 -6.447433,14.40183 -14.405777,14.40183 -7.948861,0 -14.396297,-6.44822 -14.396297,-14.40183 0,-7.94965 6.447436,-14.39708 14.396297,-14.39708 7.958344,0 14.405777,6.44743 14.405777,14.39708 z M 152.552,192.2642 c 3.9772,6.88205 12.78029,9.24245 19.66788,5.27079 6.8868,-3.9772 9.24641,-12.78503 5.27,-19.67262 -3.9764,-6.8868 -12.78029,-9.24167 -19.66709,-5.26526 -6.88759,3.97719 -9.2472,12.78028 -5.27079,19.66709 z M 177.48909,66.632826 c 3.97641,-6.888379 1.62154,-15.693842 -5.27,-19.666297 -6.88285,-3.976405 -15.68989,-1.616797 -19.66788,5.268422 -3.97641,6.8868 -1.6168,15.691475 5.27079,19.667885 6.88759,3.9764 15.69543,1.61679 19.66709,-5.27001 z m -48.73468,14.55039 c 21.45695,0 39.06392,16.447724 40.90277,37.428164 l 20.83979,-0.32873 c -0.98936,-15.58874 -7.75131,-29.608904 -18.1712,-39.946604 -5.51576,2.12807 -11.91579,1.83885 -17.43708,-1.35129 -5.52524,-3.19013 -8.97615,-8.59052 -9.88886,-14.441336 -5.17913,-1.406598 -10.62693,-2.159682 -16.24542,-2.159682 -9.85489,0 -19.17004,2.304293 -27.44211,6.403188 l 10.14015,18.20912 c 5.25499,-2.44179 11.12399,-3.81283 17.30196,-3.81283 z M 87.687254,122.24562 c 0,-13.88976 6.90182,-26.173002 17.461586,-33.600314 L 94.449204,70.759376 c -12.39387,8.27681 -21.62606,20.90221 -25.52107,35.704684 4.60938,3.71168 7.56244,9.4013 7.56244,15.78235 0,6.38501 -2.95385,12.07462 -7.56244,15.78709 3.89501,14.80169 13.1272,27.42709 25.52107,35.70864 L 105.14884,155.85621 C 94.589074,148.42337 87.687254,136.14487 87.687254,122.24562 Z m 41.067156,41.07031 c -6.17718,0 -12.04618,-1.37025 -17.30196,-3.81678 l -10.14015,18.20912 c 8.27207,4.10205 17.58643,6.40398 27.44211,6.40398 5.6177,0 11.06629,-0.74756 16.24542,-2.15652 0.91192,-5.85477 4.36283,-11.25516 9.88886,-14.43976 5.52129,-3.19014 11.92132,-3.48015 17.43708,-1.35208 10.42068,-10.34245 17.18184,-24.3626 18.1712,-39.95134 l -20.83979,-0.32321 c -1.83964,20.97492 -19.44582,37.42659 -40.90277,37.42659 z"
     id="path4-4" />
  <path
     style="display:inline;opacity:0.3;vector-effect:none;fill:#ffffff;fill-opacity:1;stroke:none;stroke-width:1;stroke-linecap:round;stroke-linejoin:round;stroke-miterlimit:4;stroke-dasharray:none;stroke-dashoffset:6.5999999;stroke-opacity:0.49803922;enable-background:new"
     d="m 52.752024,34.247987 h 16 v 1.999999 h -16 z"
     id="rect2212-2-7"
     inkscape:connector-curvature="0"
     sodipodi:nodetypes="ccccc" />
  <path
     style="display:inline;fill:#ffffff;fill-opacity:1;stroke-width:0.79022378;enable-background:new"
     inkscape:connector-curvature="0"
     d="m 70.626322,122.24562 c 0,7.95281 -6.447436,14.40183 -14.40578,14.40183 -7.948861,0 -14.396297,-6.44823 -14.396297,-14.40183 0,-7.94965 6.447436,-14.39709 14.396297,-14.39709 7.958344,0 14.40578,6.44744 14.40578,14.39709 z m 81.925668,70.01857 c 3.9772,6.88206 12.78029,9.24246 19.66788,5.2708 6.8868,-3.9772 9.24641,-12.78504 5.27001,-19.67263 -3.97641,-6.8868 -12.78029,-9.24166 -19.66709,-5.26526 -6.88759,3.9772 -9.2472,12.78029 -5.2708,19.66709 z m 24.9371,-125.631365 c 3.9764,-6.888381 1.62154,-15.693845 -5.27001,-19.6663 -6.88285,-3.976405 -15.68989,-1.616796 -19.66788,5.268422 -3.9764,6.886801 -1.61679,15.691474 5.2708,19.667881 6.88759,3.976406 15.69542,1.616798 19.66709,-5.270003 z M 128.7544,81.183216 c 21.45695,0 39.06393,16.447724 40.90278,37.428164 l 20.83978,-0.32873 c -0.98936,-15.58875 -7.75131,-29.608903 -18.1712,-39.94661 -5.51576,2.128072 -11.91578,1.83885 -17.43707,-1.351283 -5.52525,-3.190134 -8.97616,-8.590523 -9.88887,-14.44134 -5.17912,-1.406598 -10.62693,-2.159682 -16.24542,-2.159682 -9.85488,0 -19.17004,2.304293 -27.4421,6.403184 l 10.14015,18.209127 c 5.25499,-2.441792 11.12398,-3.81283 17.30195,-3.81283 z M 87.687254,122.24562 c 0,-13.88976 6.90181,-26.173002 17.461586,-33.600321 L 94.449194,70.759374 c -12.393865,8.276804 -21.62605,20.90221 -25.521063,35.704686 4.609376,3.71168 7.562442,9.4013 7.562442,15.78235 0,6.38501 -2.953857,12.07462 -7.562442,15.78709 3.895013,14.80169 13.127198,27.42709 25.521063,35.70864 L 105.14884,155.85621 C 94.589064,148.42337 87.687254,136.14487 87.687254,122.24562 Z m 41.067146,41.0703 c -6.17718,0 -12.04617,-1.37024 -17.30195,-3.81678 l -10.14015,18.20913 c 8.27206,4.10205 17.58643,6.40397 27.4421,6.40397 5.6177,0 11.0663,-0.74755 16.24542,-2.15652 0.91192,-5.85477 4.36283,-11.25515 9.88887,-14.43976 5.52129,-3.19013 11.92131,-3.48014 17.43707,-1.35207 10.42068,-10.34245 17.18184,-24.3626 18.1712,-39.95134 l -20.83978,-0.32321 c -1.83964,20.97491 -19.44583,37.42658 -40.90278,37.42658 z"
     id="path4" />
  <path
     style="display:inline;opacity:0.3;fill:#ffffff;fill-opacity:1;stroke:none;stroke-width:1;stroke-linecap:round;stroke-linejoin:round;stroke-miterlimit:4;stroke-dasharray:none;stroke-opacity:1;enable-background:new"
     d="m 128.75203,10.247985 v 2.000001 a 112,112 0 0 1 111.95898,110.830084 112,112 0 0 0 0.041,-0.83008 112,112 0 0 0 -112,-112.000005 z M 16.752024,122.24799 a 112,112 0 0 0 0.04102,1.16992 112,112 0 0 1 0.0664,-1.16992 z"
     id="path11042-1"
     inkscape:connector-curvature="0" />
  <path
     inkscape:connector-curvature="0"
     style="display:inline;opacity:0.2;fill:#000000;fill-opacity:1;stroke:none;stroke-width:1;stroke-linecap:round;stroke-linejoin:round;stroke-miterlimit:4;stroke-dasharray:none;stroke-opacity:1;enable-background:new"
     d="m 128.75203,234.24798 a 112,112 0 0 1 -112.000006,-112 112,112 0 0 1 0.04102,-1.16992 112,112 0 0 0 111.958986,111.16992 112,112 0 0 0 111.95898,-110.83008 112,112 0 0 1 0.041,0.83008 112,112 0 0 1 -112,112 z"
     id="path11042-1-7" />
</svg>
