<svg height="256" width="256" xmlns="http://www.w3.org/2000/svg" xmlns:xlink="http://www.w3.org/1999/xlink">
  <filter id="filter1345-3" color-interpolation-filters="sRGB" height="1.048" width="1.048" x="-.024" y="-.024">
    <feGaussianBlur stdDeviation="1.28"/>
  </filter>
  <filter id="filter1469-7" color-interpolation-filters="sRGB" height="1.241305" width="1.079856" x="-.039928" y="-.120652">
    <feGaussianBlur stdDeviation="2.3209033"/>
  </filter>
  <linearGradient id="linearGradient2529-3" gradientTransform="matrix(0 .94666641 -.94666648 0 275.68014 -31.918705)" gradientUnits="userSpaceOnUse" x1="77" x2="227" y1="156" y2="156">
    <stop offset="0" stop-color="#e6e6e6"/>
    <stop offset="1" stop-color="#f2f2f2"/>
  </linearGradient>
  <filter id="filter1422-2" color-interpolation-filters="sRGB" height="1.12" width="1.12" x="-.06" y="-.06">
    <feGaussianBlur stdDeviation="3.75"/>
  </filter>
  <clipPath id="clipPath999-7">
    <path d="m152 68c-48.60106 0-88 39.39894-88 88s39.39894 88 88 88 88-39.39894 88-88-39.39894-88-88-88z"/>
  </clipPath>
  <filter id="filter1003-0" color-interpolation-filters="sRGB" height="1.12" width="1.12" x="-.06" y="-.06">
    <feGaussianBlur stdDeviation="4.4"/>
  </filter>
  <linearGradient id="linearGradient4226-3" gradientTransform="matrix(0 -.453125 -.45311204 0 253.95702 239.97476)" gradientUnits="userSpaceOnUse" x1="494.34482" x2="4.413793" y1="386.29544" y2="169.65668">
    <stop offset="0" stop-color="#b3b3b3"/>
    <stop offset="1" stop-color="#d9d9d9"/>
  </linearGradient>
  <filter id="filter4380-1" color-interpolation-filters="sRGB" height="1.087725" width="1.105998" x="-.052999" y="-.043863">
    <feGaussianBlur stdDeviation="8.4801079"/>
  </filter>
  <filter id="filter4346-7" color-interpolation-filters="sRGB" height="1.021931" width="1.0265" x="-.01325" y="-.010966">
    <feGaussianBlur stdDeviation="2.120027"/>
  </filter>
  <linearGradient id="linearGradient1067" gradientUnits="userSpaceOnUse" x1="88" x2="488" y1="88" y2="488">
    <stop offset="0" stop-opacity=".588235"/>
    <stop offset=".88" stop-opacity="0"/>
    <stop offset="1"/>
  </linearGradient>
  <linearGradient id="linearGradient1069" gradientUnits="userSpaceOnUse" x1="152" x2="152" y1="124" y2="236">
    <stop offset="0"/>
    <stop offset="1" stop-opacity="0"/>
  </linearGradient>
  <path d="m189.84323 74c-70.59344 0-78.18921 7.250835-77.84323 77.98706v146.01294 146.01294c-.34598 70.73623 7.24979 77.98706 77.84323 77.98706h196.31354c70.59344 0 76.00668-7.27384 77.84323-77.98706v-146.01294-146.01294c0-70.737067-7.24979-77.98706-77.84323-77.98706z" filter="url(#filter4346-7)" opacity=".1" transform="matrix(.5 0 0 .5 -15.999979 -20.025235)"/>
  <path d="m189.84323 74c-70.59344 0-78.18921 7.250835-77.84323 77.98706v146.01294 146.01294c-.34598 70.73623 7.24979 77.98706 77.84323 77.98706h196.31354c70.59344 0 77.84323-7.24999 77.84323-77.98706v-146.01294-146.01294c0-70.737067-7.24979-77.98706-77.84323-77.98706z" fill="url(#linearGradient1067)" filter="url(#filter4380-1)" opacity=".3" transform="matrix(.5 0 0 .5 -15.999979 -20.025235)"/>
  <path d="m77.811621 13.974764c-36.09881 0-39.983 3.690156-39.80608 39.689838v74.310158 74.31016c-.17692 35.99969 3.70727 39.68984 39.80608 39.68984h100.387319c36.09881 0 39.80608-3.68973 39.80608-39.68984v-74.31016-74.310158c0-36.000111-3.70727-39.689838-39.80608-39.689838z" opacity=".1"/>
  <path d="m177.073 15.974762c35.29673 0 39.09461 3.625418 38.92162 38.993528v73.00647 73.00647c.17299 35.36812-3.62489 38.99353-38.92162 38.99353h-98.156759c-35.29672 0-38.92162-3.625-38.92162-38.99353v-73.00647-73.00647c0-35.368531 3.6249-38.993528 38.92162-38.993528z" fill="url(#linearGradient4226-3)"/>
  <g fill="#fff">
    <path d="m78.921901 15.974762c-35.29673 0-39.09487 3.626029-38.92188 38.994139v2c-.17299-35.36811 3.62515-38.994139 38.92188-38.994139h98.156239c35.29673 0 38.92188 3.625608 38.92188 38.994139v-2c0-35.368531-3.62515-38.994139-38.92188-38.994139z" opacity=".3"/>
    <path d="m39.994161 127.97476v73.00586c0 35.36853 3.62516 38.99414 38.92188 38.99414h98.156249c35.29673 0 39.09486-3.62602 38.92187-38.99414v-73.00586z" opacity=".2"/>
    <path d="m128.00002 15.974762v223.999998h49.07227c35.29673 0 39.09486-3.62602 38.92187-38.99414v-73.00586-73.005859c.17299-35.36811-3.62514-38.994139-38.92187-38.994139z" opacity=".2"/>
  </g>
  <path d="m78.927301 239.97476c-35.29673 0-39.09488-3.62603-38.92189-38.99414v-2c-.17299 35.36811 3.62516 38.99414 38.92189 38.99414h98.156239c35.29673 0 38.92188-3.62561 38.92188-38.99414v2c0 35.36853-3.62515 38.99414-38.92188 38.99414z" opacity=".2"/>
  <circle cx="128.0002" cy="-111.9746" fill="#5d5d5d" r="80" transform="scale(1 -1)"/>
  <path d="m48.000191 111.9746a80 80 0 0 1 79.999999-80.000016 80 80 0 0 1 80 80.000016z" opacity=".05"/>
  <path clip-path="url(#clipPath999-7)" d="m152 70c-48.60106 0-88 39.39894-88 88s39.39894 88 88 88 88-39.39894 88-88-39.39894-88-88-88z" fill="none" filter="url(#filter1003-0)" opacity=".2" stroke="url(#linearGradient1069)" stroke-linejoin="round" stroke-width="11" transform="matrix(.90909091 0 0 .90909084 -10.181639 -29.843416)"/>
  <path d="m128.00019 188.9746c-41.421349 0-74.999999-33.57864-74.999999-75 0-41.421359 33.57865-75.000019 74.999999-75.000019 41.42135 0 75 33.57866 75 75.000019 0 41.42136-33.57865 75-75 75z" filter="url(#filter1422-2)" opacity=".2"/>
  <path d="m128.00017 182.97459c-39.212209 0-70.999989-31.78777-70.999989-70.99999 0-39.212209 31.78778-70.999986 70.999989-70.999986 39.2122 0 70.99998 31.787777 70.99998 70.999986 0 39.21222-31.78778 70.99999-70.99998 70.99999z" fill="url(#linearGradient2529-3)"/>
  <ellipse cx="128.00011" cy="111.97424" opacity=".05" rx="32" ry="32.000008"/>
  <ellipse cx="128.00011" cy="111.97424" fill="#fff" rx="20" ry="20.000004"/>
  <g enable-background="new" opacity=".1" transform="translate(-23.999819 -44.025408)">
    <circle cx="53.63586" cy="185.09996" opacity="1" r="2" transform="matrix(.8660254 -.5 .5 .8660254 0 0)"/>
    <circle cx="53.63586" cy="237.09996" opacity="1" r="2" transform="matrix(.8660254 -.5 .5 .8660254 0 0)"/>
    <circle cx="-59.099964" cy="183.63586" opacity="1" r="2" transform="matrix(.5 -.8660254 .8660254 .5 0 0)"/>
    <circle cx="-59.099964" cy="235.63586" opacity="1" r="2" transform="matrix(.5 -.8660254 .8660254 .5 0 0)"/>
    <circle cx="-156" cy="126" opacity="1" r="2" transform="rotate(-90)"/>
    <circle cx="-156" cy="178" opacity="1" r="2" transform="rotate(-90)"/>
    <circle cx="-211.09996" cy="27.63586" opacity="1" r="2" transform="matrix(-.5 -.8660254 .8660254 -.5 0 0)"/>
    <circle cx="-211.09996" cy="79.635864" opacity="1" r="2" transform="matrix(-.5 -.8660254 .8660254 -.5 0 0)"/>
    <circle cx="152" cy="130" opacity="1" r="2" transform="matrix(-.8660254 -.5 .5 -.8660254 205.635861 367.099963)"/>
    <circle cx="152" cy="182" opacity="1" r="2" transform="matrix(-.8660254 -.5 .5 -.8660254 205.635861 367.099963)"/>
    <g transform="scale(-1)">
      <circle cx="-152" cy="-182" opacity="1" r="2"/>
      <circle cx="-152" cy="-130" opacity="1" r="2"/>
    </g>
  </g>
  <ellipse cx="128.00011" cy="111.97424" opacity=".1" rx="16" ry="16.000004"/>
  <ellipse cx="128.00053" cy="111.97475" fill="#888" rx="4" ry="4.000001"/>
  <path d="m128.00018 40.97461c-39.212209 0-70.999989 31.787791-70.999989 71 0 .31752.0199.63015.0241.94667.50903-38.773859 32.08126-70.053338 70.975959-70.053338 38.89468 0 70.4669 31.279479 70.97595 70.053338.004-.31652.024-.62915.024-.94667 0-39.212209-31.78778-71-70.99999-71z" fill="#fff" opacity=".5"/>
  <path d="m68.000191 31.974582a4 3.9999999 0 0 0 -4 4 4 3.9999999 0 0 0 4 3.999999 4 3.9999999 0 0 0 4-3.999999 4 3.9999999 0 0 0 -4-4z" opacity=".1"/>
  <path d="m188.00019 31.974582a4 3.9999999 0 0 0 -4 4 4 3.9999999 0 0 0 4 3.999999 4 3.9999999 0 0 0 4-3.999999 4 3.9999999 0 0 0 -4-4z" opacity=".1"/>
  <path d="m211.50536 215.83276s-117.99478 44.0399-124.39638 45.7552c-6.4016 1.71532-12.98164-2.08367-14.69694-8.48526-1.71531-6.40159 2.08368-12.98164 8.48528-14.69695 6.4016-1.71529 130.60804-22.57299 130.60804-22.57299z" filter="url(#filter1469-7)" opacity=".2" transform="matrix(.96592583 -.25881905 .25881905 .96592583 -77.005954 2.803948)"/>
  <path d="m182.63652 154.60892s-102.575839 73.07858-108.315359 76.39228c-5.73951 3.31373-13.07859 1.34723-16.3923-4.39228s-1.34721-13.0786 4.3923-16.39232c5.73952-3.31369 120.315359-55.60768 120.315359-55.60768z" fill="#fff"/>
  <circle cx="8.8924" cy="230.7774" fill="#808080" r="4" transform="matrix(.96592583 -.25881903 .25881903 .96592583 0 0)"/>
  <path d="m79.072191 94.430778a4 3.9999999 0 0 0 -4 4 4 3.9999999 0 0 0 4 4.000002 4 3.9999999 0 0 0 4-4.000002 4 3.9999999 0 0 0 -4-4z" opacity=".1"/>
  <circle cx="67.071999" cy="67.35891" filter="url(#filter1345-3)" opacity=".2" r="64"/>
  <circle cx="67.071999" cy="65.358948" fill="#5884f4" r="64"/>
  <path d="m55.072021 25.358854 24-.0107v28.010699l9.09767.005c-3.72009 7.4253-10.42498 20.458998-21.09767 36.352415-10.67489-15.895947-17.3773-28.936825-21.09767-36.362785l9.09767.005zm-16 71.999994v6.000002h56v-6.000002z" fill="#fff"/>
  <path d="m188.00019 215.97458a4 3.9999999 0 0 0 -4 4 4 3.9999999 0 0 0 4 4 4 3.9999999 0 0 0 4-4 4 3.9999999 0 0 0 -4-4z" opacity=".1"/>
</svg>
