<svg height="256" width="256" xmlns="http://www.w3.org/2000/svg" xmlns:xlink="http://www.w3.org/1999/xlink">
  <filter id="filter1025" color-interpolation-filters="sRGB" height="1.026" width="1.022" x="-.01" y="-.01">
    <feGaussianBlur stdDeviation="1.061"/>
  </filter>
  <filter id="filter1039" color-interpolation-filters="sRGB" height="1.104" width="1.089" x="-.04" y="-.05">
    <feGaussianBlur stdDeviation="4.245"/>
  </filter>
  <path d="m108.85547 20.714844c-26.325533 0-47.580079 21.256502-47.580079 47.582031v81.849605h-12.273438l-.001953-71.14648a2.0002 2.0002 0 0 0 -2-2h-33a2.0002 2.0002 0 0 0 -2 1.996094l-.142578 81.300786c-.02649 15.10656 12.2199 27.32617 27.322266 27.32617h25.726562c7.101446 17.32672 24.037063 29.51172 43.94922 29.51172h73.04297c20.61534.44367 35.12338-3.14873 44.5625-11.12696 9.43911-7.97823 13.39648-20.15725 13.39648-35.78515v-73.578129a2.0002 2.0002 0 0 0 -2-2h-60.77539a2.0002 2.0002 0 0 0 -2 2v28.203129a2.0002 2.0002 0 0 0 2 2h25.82031l-56.14257 60.82226-51.464848-60.82226h23.603518a2.0002 2.0002 0 0 0 2-2v-84.09766h54.18359v38.515625a2.0002 2.0002 0 0 0 2 2h60.77539a2.0002 2.0002 0 0 0 2-2v-56.550781a2.0002 2.0002 0 0 0 -2-2zm0 4h127.00195v52.550781h-56.77539v-38.515625a2.0002 2.0002 0 0 0 -2-2h-58.18359a2.0002 2.0002 0 0 0 -2 2v84.09766h-25.914065a2.0002 2.0002 0 0 0 -1.527344 3.29296l55.710939 65.83985a2.0002 2.0002 0 0 0 2.99609.0644l60.77539-65.83984a2.0002 2.0002 0 0 0 -1.46875-3.35742h-28.38867v-24.203079h56.77539v71.578129c0 14.96574-3.64014 25.68262-11.97851 32.73046-8.33838 7.04785-21.78701 10.61439-41.89453 10.18165a2.0002 2.0002 0 0 0 -.043 0h-73.08594c-18.760922 0-34.627438-11.7075-40.810548-28.22657a2.0002 2.0002 0 0 0 -1.914063-1.29882c-.22605.005-.381392.0137-.470703.0137h-26.480438c-12.955551 0-23.344976-10.369-23.322266-23.32032l.138672-79.30276h29.003906l.002 71.14648a2.0002 2.0002 0 0 0 2 2h16.273438a2.0002 2.0002 0 0 0 2-2v-83.849605c0-24.178717 19.401357-43.582031 43.580079-43.582031z" filter="url(#filter1039)" opacity=".1"/>
  <path d="m108.85547 20.714844c-26.325533 0-47.580079 21.256502-47.580079 47.582031v81.849605h-12.273438l-.001953-71.14648a2.0002 2.0002 0 0 0 -2-2h-33a2.0002 2.0002 0 0 0 -2 1.996094l-.142578 81.300786c-.02649 15.10656 12.2199 27.32617 27.322266 27.32617h25.726562c7.101446 17.32672 24.037063 29.51172 43.94922 29.51172h73.04297c20.61534.44367 35.12338-3.14873 44.5625-11.12696 9.43911-7.97823 13.39648-20.15725 13.39648-35.78515v-73.578129a2.0002 2.0002 0 0 0 -2-2h-60.77539a2.0002 2.0002 0 0 0 -2 2v28.203129a2.0002 2.0002 0 0 0 2 2h25.82031l-56.14257 60.82226-51.464848-60.82226h23.603518a2.0002 2.0002 0 0 0 2-2v-84.09766h54.18359v38.515625a2.0002 2.0002 0 0 0 2 2h60.77539a2.0002 2.0002 0 0 0 2-2v-56.550781a2.0002 2.0002 0 0 0 -2-2zm0 4h127.00195v52.550781h-56.77539v-38.515625a2.0002 2.0002 0 0 0 -2-2h-58.18359a2.0002 2.0002 0 0 0 -2 2v84.09766h-25.914065a2.0002 2.0002 0 0 0 -1.527344 3.29296l55.710939 65.83985a2.0002 2.0002 0 0 0 2.99609.0644l60.77539-65.83984a2.0002 2.0002 0 0 0 -1.46875-3.35742h-28.38867v-24.203079h56.77539v71.578129c0 14.96574-3.64014 25.68262-11.97851 32.73046-8.33838 7.04785-21.78701 10.61439-41.89453 10.18165a2.0002 2.0002 0 0 0 -.043 0h-73.08594c-18.760922 0-34.627438-11.7075-40.810548-28.22657a2.0002 2.0002 0 0 0 -1.914063-1.29882c-.22605.005-.381392.0137-.470703.0137h-26.480438c-12.955551 0-23.344976-10.369-23.322266-23.32032l.138672-79.30276h29.003906l.002 71.14648a2.0002 2.0002 0 0 0 2 2h16.273438a2.0002 2.0002 0 0 0 2-2v-83.849605c0-24.178717 19.401357-43.582031 43.580079-43.582031z" filter="url(#filter1025)" opacity=".1"/>
  <path d="m108.85547 20.714844c-26.325533 0-47.580079 21.256502-47.580079 47.582031v81.849605h-12.273438l-.001953-71.14648a2.0002 2.0002 0 0 0 -2-2h-33a2.0002 2.0002 0 0 0 -2 1.996094l-.142578 81.300786c-.02649 15.10656 12.2199 27.32617 27.322266 27.32617h25.726562c7.101446 17.32672 24.037063 29.51172 43.94922 29.51172h73.04297c20.61534.44367 35.12338-3.14873 44.5625-11.12696 9.43911-7.97823 13.39648-20.15725 13.39648-35.78515v-73.578129a2.0002 2.0002 0 0 0 -2-2h-60.77539a2.0002 2.0002 0 0 0 -2 2v28.203129a2.0002 2.0002 0 0 0 2 2h25.82031l-56.14257 60.82226-51.464848-60.82226h23.603518a2.0002 2.0002 0 0 0 2-2v-84.09766h54.18359v38.515625a2.0002 2.0002 0 0 0 2 2h60.77539a2.0002 2.0002 0 0 0 2-2v-56.550781a2.0002 2.0002 0 0 0 -2-2zm0 4h127.00195v52.550781h-56.77539v-38.515625a2.0002 2.0002 0 0 0 -2-2h-58.18359a2.0002 2.0002 0 0 0 -2 2v84.09766h-25.914065a2.0002 2.0002 0 0 0 -1.527344 3.29296l55.710939 65.83985a2.0002 2.0002 0 0 0 2.99609.0644l60.77539-65.83984a2.0002 2.0002 0 0 0 -1.46875-3.35742h-28.38867v-24.203079h56.77539v71.578129c0 14.96574-3.64014 25.68262-11.97851 32.73046-8.33838 7.04785-21.78701 10.61439-41.89453 10.18165a2.0002 2.0002 0 0 0 -.043 0h-73.08594c-18.760922 0-34.627438-11.7075-40.810548-28.22657a2.0002 2.0002 0 0 0 -1.914063-1.29882c-.22605.005-.381392.0137-.470703.0137h-26.480438c-12.955551 0-23.344976-10.369-23.322266-23.32032l.138672-79.30276h29.003906l.002 71.14648a2.0002 2.0002 0 0 0 2 2h16.273438a2.0002 2.0002 0 0 0 2-2v-83.849605c0-24.178717 19.401357-43.582031 43.580079-43.582031z" opacity=".1"/>
  <path d="m108.85637 22.714898c-25.252126 0-45.581454 20.329327-45.581454 45.58145v83.850882h-16.272021l-.002895-73.14723h-33l-.14258 81.30006c-.0246 14.02894 11.294071 25.32303 25.323029 25.32303h26.480373c.171123 0 .340129-.0105.510421-.0139 6.468717 17.28211 23.091098 29.52507 42.685127 29.52507h73.08464c40.72287.87641 55.91641-14.31713 55.91641-44.91078v-73.579216h-60.77527v28.203556h30.38764l-60.77527 65.83987-55.710669-65.83987h27.914679v-86.098301h58.18362v40.516846h60.77527v-56.551467z" fill="#28851e"/>
  <path d="m108.85547 22.714844c-25.252127 0-45.580079 20.329908-45.580079 45.582031v2c0-25.252123 20.327952-45.582031 45.580079-45.582031h129.00195v-2zm-94.85547 56.285156-.142578 81.30078c-.000081.04588.003744.0909.003906.13672l.138672-79.4375h33v-2zm163.08203 17.644531v2h60.77539v-2zm-86.097655 30.203129 55.710935 65.83984 60.77539-65.83984h-1.8457l-58.92969 63.83984-54.019529-63.83984zm-43.982422 25.29882v2h16.273438v-2z" fill="#fefefe" opacity=".3"/>
  <path d="m118.89844 36.75v2h58.18359v-2zm58.18359 40.515625v2h60.77539v-2zm-86.097655 45.582035 1.691406 2h26.222659v-2zm86.097655 0v2h28.54297l1.8457-2zm-163.220702 35.58984-.003906 1.86328c-.0246 14.02894 11.293307 25.32227 25.322266 25.32227h26.480468c.171123 0 .341427-.01027.511719-.01367 6.468717 17.2821 23.089565 29.52539 42.683595 29.52539h73.08594c40.72287.87641 55.91601-14.31846 55.91601-44.91211v-2c0 30.59365-15.19314 45.78852-55.91601 44.91211h-73.08594c-19.59403 0-36.214878-12.24329-42.683595-29.52539-.170292.0034-.340596.01367-.511719.01367h-26.480468c-13.983081 0-25.269025-11.22041-25.31836-25.18555z" fill="#0f0f0f" opacity=".2"/>
</svg>
