<svg height="256" width="256" xmlns="http://www.w3.org/2000/svg" xmlns:xlink="http://www.w3.org/1999/xlink">
  <filter id="filter921" color-interpolation-filters="sRGB" height="1.023" width="1.025" x="-.01" y="-.01">
    <feGaussianBlur stdDeviation="1.099"/>
  </filter>
  <filter id="filter939" color-interpolation-filters="sRGB" height="1.093" width="1.1" x="-.05" y="-.05">
    <feGaussianBlur stdDeviation="4.397"/>
  </filter>
  <g transform="translate(26.033898 -63.525424)">
    <path d="m151.32467 76.979402c-.69321-.02544-1.39913.01634-2.11126.133198l-143.9674741 23.62547c-5.69705443.93483-9.5262907 6.23887-8.5842139 11.89226l30.609342 183.68388c.942077 5.65336 6.286669 9.45149 11.983705 8.51662l143.967471-23.62349c5.69709-.93483 9.52632-6.23881 8.58422-11.89225l-1.67986-10.08119 18.10874-10.60601-23.17618-145.02112-21.67922-4.872608-2.18283-13.104942c-.8243-4.946712-5.01994-8.471725-9.87244-8.649818z" filter="url(#filter939)" opacity=".1"/>
    <path d="m151.32467 76.979402c-.69321-.02544-1.39913.01634-2.11126.133198l-143.9674741 23.62547c-5.69705443.93483-9.5262907 6.23887-8.5842139 11.89226l30.609342 183.68388c.942077 5.65336 6.286669 9.45149 11.983705 8.51662l143.967471-23.62349c5.69709-.93483 9.52632-6.23881 8.58422-11.89225l-1.67986-10.08119 18.10874-10.60601-23.17618-145.02112-21.67922-4.872608-2.18283-13.104942c-.8243-4.946712-5.01994-8.471725-9.87244-8.649818z" fill="#0a0010" filter="url(#filter921)" opacity=".1"/>
    <path d="m151.32467 76.979402c-.69321-.02544-1.39913.01634-2.11126.133198l-143.9674741 23.62547c-5.69705443.93483-9.5262907 6.23887-8.5842139 11.89226l30.609342 183.68388c.942077 5.65336 6.286669 9.45149 11.983705 8.51662l143.967471-23.62349c5.69709-.93483 9.52632-6.23881 8.58422-11.89225l-1.67986-10.08119 18.10874-10.60601-23.17618-145.02112-21.67922-4.872608-2.18283-13.104942c-.8243-4.946712-5.01994-8.471725-9.87244-8.649818z" opacity=".1"/>
    <path d="m190.37968 267.93992-30.07157-180.461173c-.92553-5.554191-6.17657-9.286189-11.77367-8.367729l-141.4424262 23.209762c-5.597093.91842-9.3579333 6.12928-8.432386 11.68347l30.0715712 180.46122c.925547 5.55417 6.176593 9.28621 11.773668 8.36775l141.442433-23.2098c5.59713-.91843 9.35795-6.12925 8.43238-11.6835z" fill="#373538"/>
    <path d="m32.119658 238.9721h129.920002l4.60567 32.00001z" fill="#28851e"/>
    <path d="m102.77009 126.97211 27.08337 6.74169 12.66619 82.33334-23.75016 14.92495z" fill="#28851e"/>
    <path d="m30.519668 165.24702 88.249822 65.72507 23.75016-14.92495-99.624926-55.01261z" fill="#76c22b"/>
    <path d="m38.519368 217.24699 64.250722-90.27488 27.08337 6.74171-78.292384 83.65407z" fill="#76c22b"/>
    <path d="m-1.4972643 110.6411c-.0873.87395-.07347 1.77192.07812 2.68164l30.0722703 180.46093c.92554 5.55417 6.17637 9.28565 11.77344 8.36719l141.441394-23.20898c5.36722-.88071 9.0346-5.7093 8.51172-11.00196-.44609 4.46188-3.83134 8.23396-8.51172 9.00196l-141.441394 23.20898c-5.59707.91846-10.8479-2.81302-11.77344-8.36719l-30.0722703-180.46093c-.03809-.22858-.05571-.45451-.07812-.68164zm207.6445243 134.46484-17.49609 10.24805.30273 1.82226 17.48633-10.24219z" fill="#373538" opacity=".2"/>
    <path d="m102.77009 126.97211-34.294916 48.1875-25.58008-14.125-12.375 4.21289 2.47071 1.83984 11.90429-4.05273 25.58008 14.125 34.294916-48.1875 25.32422 6.30469-.24024-1.5625zm6.71484 32.64453-1.45312 1.55274 6.02344 39.16015-28.134766-15.53515-.55273.58984 30.687496 16.94531zm-49.787096 27.87305-21.17774 29.75781 3.40039.0312 20.01563-28.12305z" fill="#fff" opacity=".3"/>
    <path d="m107.48433 155.61662-24.117178 25.76757 1.234375.68165 22.882803-24.44922 6.23438 40.52734.33594.18555zm-75.121084 9.0039-1.84375.62696 28.486328 21.21484.929688-1.30664zm39.300781 29.26953-20.103515 21.47852-11.626956-.10742-1.41406 1.98633 13.041016.12109 20.103515-21.47852 47.105463 35.08204 23.75-14.92383-.28125-1.82422-23.46875 14.74805z" opacity=".2"/>
    <path d="m32.12016 238.97199 134.52539 32-.29883-2.07031-125.818356-29.92969z" opacity=".2"/>
    <path d="m32.12016 238.97199 8.408204 2h121.511716l4.30664 29.92969.29883.0703-4.60547-32z" fill="#fff" opacity=".3"/>
    <path d="m138.51966 94.972097 45.23159 10.167313 22.76841 142.4762-39.87433 23.3565z" fill="#76c22b"/>
    <path d="m150.60867 78.979257c-.68105-.025-1.37458.018-2.07422.132813l-141.4433502 23.20898c-5.36718.88071-9.0327701 5.70934-8.5097701 11.00195.44567004-4.46186 3.8294201-8.23395 8.5097701-9.00195l141.4433502-23.20898c.69964-.114803 1.39317-.157813 2.07422-.132813 4.76735.174968 8.88938 3.64009 9.69922 8.5l2.14453 12.873043 21.29883 4.78711 22.47461 140.64843.29297-.17187-22.76758-142.47656-21.29883-4.78711-2.14453-12.873043c-.80984-4.859916-4.93187-8.325032-9.69922-8.5zm38.42383 180.878903-.30274.17773 1.6504 9.9043c.038.22815.0557.45492.0781.68164.0874-.87396.0735-1.77191-.0781-2.68164z" fill="#fff" opacity=".3"/>
  </g>
</svg>
