<svg xmlns="http://www.w3.org/2000/svg" xmlns:xlink="http://www.w3.org/1999/xlink" width="256" height="256" version="1.1">
 <defs>
  <linearGradient id="linearGradient906">
   <stop style="stop-color:#6d2a00" id="stop894" offset="0"/>
   <stop style="stop-color:#f6965b" id="stop896" offset=".036"/>
   <stop style="stop-color:#ea792e" id="stop898" offset=".071"/>
   <stop style="stop-color:#ef8034" id="stop900" offset=".892"/>
   <stop style="stop-color:#f6965b" id="stop902" offset=".964"/>
   <stop style="stop-color:#6d2a00" id="stop904" offset="1"/>
  </linearGradient>
  <linearGradient id="linearGradient4801">
   <stop id="stop4803" offset="0" style="stop-color:#c0c0c0"/>
   <stop style="stop-color:#ffffff" id="stop4805" offset=".25"/>
   <stop style="stop-color:#d2d2d2" id="stop4807" offset=".499"/>
   <stop id="stop4809" offset="1" style="stop-color:#c8c8c8"/>
  </linearGradient>
  <linearGradient id="linearGradient4426">
   <stop style="stop-color:#cc4f00" id="stop4428" offset="0"/>
   <stop id="stop4436" offset=".25" style="stop-color:#ff8636"/>
   <stop id="stop4434" offset=".499" style="stop-color:#ef6000"/>
   <stop style="stop-color:#da5700" id="stop4430" offset="1"/>
  </linearGradient>
  <linearGradient id="linearGradient4019">
   <stop style="stop-color:#cc5506" id="stop4021" offset="0"/>
   <stop style="stop-color:#f98b41" id="stop4023" offset="1"/>
  </linearGradient>
  <linearGradient id="linearGradient4005">
   <stop style="stop-color:#ffffff" id="stop4007" offset="0"/>
   <stop style="stop-color:#ffffff;stop-opacity:0" id="stop4009" offset="1"/>
  </linearGradient>
  <linearGradient id="linearGradient5048">
   <stop id="stop5050" offset="0" style="stop-color:#000000;stop-opacity:0"/>
   <stop id="stop5056" offset=".5" style="stop-color:#000000"/>
   <stop id="stop5052" offset="1" style="stop-color:#000000;stop-opacity:0"/>
  </linearGradient>
  <linearGradient id="linearGradient5060">
   <stop id="stop5062" offset="0" style="stop-color:#000000"/>
   <stop id="stop5064" offset="1" style="stop-color:#000000;stop-opacity:0"/>
  </linearGradient>
  <linearGradient id="linearGradient4853" x1="24.286" x2="24.286" y1="27.643" y2="44.643" gradientTransform="matrix(5.3484986,0,0,4.2890382,0.74419799,30.298337)" gradientUnits="userSpaceOnUse" xlink:href="#linearGradient4019"/>
  <linearGradient id="linearGradient4855" x1="24.286" x2="24.286" y1="47.332" y2="36.143" gradientTransform="matrix(1.8751518,0,0,1.7838833,-9.5293703,-69.127919)" gradientUnits="userSpaceOnUse" xlink:href="#linearGradient4005"/>
  <linearGradient id="linearGradient4857" x1="13.915" x2="33.148" y1="20.563" y2="23.063" gradientTransform="matrix(1,0,0,0.98581946,0,0.00738065)" gradientUnits="userSpaceOnUse" xlink:href="#linearGradient4426"/>
  <linearGradient id="linearGradient4861" x1="13.915" x2="33.148" y1="20.563" y2="23.063" gradientTransform="matrix(1.0127073,0,0,1,-0.22801313,0)" gradientUnits="userSpaceOnUse" xlink:href="#linearGradient4801"/>
  <linearGradient id="linearGradient4863" x1="13.915" x2="33.148" y1="20.563" y2="23.063" gradientTransform="matrix(1.0570931,0,0,1,-1.2986241,0)" gradientUnits="userSpaceOnUse" xlink:href="#linearGradient4801"/>
  <linearGradient id="linearGradient1081" x1="-108" x2="-20" y1="-100" y2="-100" gradientTransform="matrix(0.46001369,0,0,0.46001369,9.6118473,-15.162282)" gradientUnits="userSpaceOnUse" xlink:href="#linearGradient1175"/>
  <linearGradient id="linearGradient1175">
   <stop id="stop1163" offset="0" style="stop-color:#6d2a00"/>
   <stop id="stop1165" offset=".045" style="stop-color:#f6965b"/>
   <stop id="stop1167" offset=".091" style="stop-color:#b24909"/>
   <stop id="stop1169" offset=".909" style="stop-color:#c05310"/>
   <stop id="stop1171" offset=".955" style="stop-color:#f6965b"/>
   <stop id="stop1173" offset="1" style="stop-color:#6d2a00"/>
  </linearGradient>
  <linearGradient id="linearGradient892" x1="4.32" x2="44.429" y1="36.975" y2="36.975" gradientUnits="userSpaceOnUse" xlink:href="#linearGradient906"/>
  <linearGradient id="linearGradient899" x1="13.915" x2="33.148" y1="20.563" y2="23.063" gradientTransform="matrix(1,0,0,0.98581946,0,0.00738065)" gradientUnits="userSpaceOnUse" xlink:href="#linearGradient4426"/>
  <linearGradient id="linearGradient903" x1="13.915" x2="33.148" y1="20.563" y2="23.063" gradientTransform="matrix(1.0570931,0,0,1,-1.2986241,0)" gradientUnits="userSpaceOnUse" xlink:href="#linearGradient4801"/>
  <filter style="color-interpolation-filters:sRGB" id="filter918" width="1.025" height="1.023" x="-.01" y="-.01">
   <feGaussianBlur id="feGaussianBlur920" stdDeviation=".212"/>
  </filter>
 </defs>
 <g id="layer1" transform="translate(0,208)">
  <g style="fill:#222222;opacity:0.1;filter:url(#filter918)" transform="matrix(5.1108894,0,0,5.1108894,4.8565351,-205.25967)">
   <path style="fill:#222222" d="m -69.589844,-4.65625 c -1.655645,0.037516 -3.278343,0.4679508 -5.005859,1.2558594 -0.893401,0.4074736 -1.585066,1.3380343 -1.839844,2.2753906 -5.818656,21.407583 -17.591728,56.925142 -23.033203,73.111328 h -9.75781 c -1.69569,0 -3.06055,1.427265 -3.06055,3.201172 l -11.41992,32.61523 c 0,0 -0.93315,6.98219 1.14258,6.90625 l 104.910153,0.0898 c 1.999714,0 1.728516,-5.43703 1.728516,-7.21094 L -26.597656,75.1875 c 0,-1.773907 -1.364863,-3.201172 -3.060547,-3.201172 h -10.275391 c -5.295303,-16.622209 -16.762931,-52.991994 -22.359375,-73.5820311 -0.249141,-0.9165856 -1.20823,-1.5908675 -2.09375,-1.9628907 -1.858963,-0.780985 -3.54748,-1.1351726 -5.203125,-1.0976562 z" transform="matrix(0.37344284,0,0,0.37344284,50.361414,2.2601851)"/>
  </g>
  <g transform="matrix(5.1108894,0,0,5.1108894,4.8565351,-205.25967)" style="fill:#222222;opacity:0.1">
   <path d="m -69.589844,-4.65625 c -1.655645,0.037516 -3.278343,0.4679508 -5.005859,1.2558594 -0.893401,0.4074736 -1.585066,1.3380343 -1.839844,2.2753906 -5.818656,21.407583 -17.591728,56.925142 -23.033203,73.111328 h -9.75781 c -1.69569,0 -3.06055,1.427265 -3.06055,3.201172 l -11.41992,32.61523 c 0,0 -0.93315,6.98219 1.14258,6.90625 l 104.910153,0.0898 c 1.999714,0 1.728516,-5.43703 1.728516,-7.21094 L -26.597656,75.1875 c 0,-1.773907 -1.364863,-3.201172 -3.060547,-3.201172 h -10.275391 c -5.295303,-16.622209 -16.762931,-52.991994 -22.359375,-73.5820311 -0.249141,-0.9165856 -1.20823,-1.5908675 -2.09375,-1.9628907 -1.858963,-0.780985 -3.54748,-1.1351726 -5.203125,-1.0976562 z" transform="matrix(0.37344284,0,0,0.37344284,50.361414,2.2601851)" style="fill:#222222"/>
  </g>
  <g transform="matrix(2.677786,0,0,2.677786,0.63789422,-82.734839)">
   <path style="fill:#e65c00" d="m 20.326078,9.6555686 h 55.71813 c 1.187423,0 2.143364,1.0000404 2.143364,2.2422404 l 7.473993,22.687832 c 0,1.242199 0.189859,5.049548 -1.210465,5.049548 l -73.46518,-0.06216 c -1.4535558,0.05317 -0.799856,-4.836786 -0.799856,-4.836786 L 18.182716,11.89781 c 0,-1.2422 0.955939,-2.2422404 2.143362,-2.2422414 z"/>
   <path style="fill:url(#linearGradient4853)" d="M 229.97461 219.62891 C 229.96869 219.12368 230.02148 218.24237 230.02148 217.87891 L 210.00781 157.125 C 210.00781 156.29341 209.84826 155.50202 209.55859 154.7832 C 209.26893 154.06438 208.84878 153.41763 208.33008 152.875 C 207.81137 152.33237 207.19298 151.89482 206.50586 151.5918 C 205.81874 151.28877 205.06249 151.12109 204.26758 151.12109 L 55.066406 151.12109 C 54.27149 151.12109 53.515247 151.28877 52.828125 151.5918 C 52.141003 151.89482 51.52261 152.33237 51.003906 152.875 C 50.485202 153.41763 50.067007 154.06438 49.777344 154.7832 C 49.48768 155.50202 49.328125 156.29341 49.328125 157.125 L 27.914062 218.28125 C 27.914062 218.28125 27.867619 219.24233 27.845703 219.42578 C 28.237414 219.4934 28.600239 219.62891 29.015625 219.62891 L 229.97461 219.62891 z" transform="matrix(0.37344284,0,0,0.37344284,-0.23821703,-46.779377)"/>
   <g transform="matrix(1.8751518,0,0,1.8751518,2.1518415,-44.99198)">
    <path style="fill:url(#linearGradient4857)" d="M 26.4375,0.93158641 C 25.049067,0.34827984 23.915257,0.40173516 22.625,0.9902128 22.291366,1.1423809 22.032645,1.4902464 21.9375,1.8402954 19.059874,12.427451 12.25,32.355328 12.25,32.355328 c -0.419963,0.549582 -0.65625,1.118843 -0.65625,1.729479 0,3.067933 5.734247,5.540193 12.8125,5.540193 7.078253,0 12.8125,-2.47226 12.8125,-5.540193 0,-0.554986 -0.212985,-1.077228 -0.5625,-1.582912 -0.01275,-0.01845 -0.01807,-0.04026 -0.03125,-0.05863 0,0 -6.640927,-20.604873 -9.40625,-30.7788518 C 27.12571,1.3221209 26.768191,1.0705158 26.4375,0.93158641 Z"/>
    <path style="fill:url(#linearGradient4861)" d="m 15.691323,23.09375 c -1.3076,4.216103 -2.456033,7.155705 -2.755896,8.09375 1.710775,2.154974 6.389143,3.6875 11.657142,3.6875 5.05728,0 9.531068,-1.417835 11.383528,-3.4375 -0.138698,-0.458813 -1.403968,-4.240466 -2.601361,-8.28125 -2.220764,1.057009 -5.327564,1.71875 -8.782167,1.71875 -3.520396,0 -6.67588,-0.68375 -8.901246,-1.78125 z"/>
    <path style="fill:url(#linearGradient4863)" d="m 20.801552,6.5625 c -0.817495,2.9660386 -1.903366,6.150587 -2.849643,9.34375 1.8136,0.611275 4.293397,0.96875 6.653716,0.96875 2.387853,0 4.705851,-0.374202 6.534028,-1 -0.91423,-3.207851 -1.91971,-6.3784253 -2.713457,-9.3125 -1.187885,0.210286 -2.484554,0.3125 -3.820571,0.3125 -1.292269,0 -2.650121,-0.1155042 -3.804073,-0.3125 z"/>
   </g>
  </g>
  <g transform="matrix(5.0212247,0,0,5.0212247,-264.04003,-211.78658)" style="fill:#efefef;opacity:0.3">
   <path style="fill:#efefef" d="m 78.360816,2.2288249 c -0.618288,0.01401 -1.224279,0.1744747 -1.869409,0.4687135 -0.333634,0.1521681 -0.59217,0.4998588 -0.687316,0.8499078 -2.172934,7.9945088 -6.569298,21.2582348 -8.601378,27.3028518 h -3.643908 c -0.633242,0 -1.143193,0.532862 -1.143193,1.195316 l -4.264709,12.179937 c 0,0 -0.0974,0.738953 -0.07274,1.425979 0.01214,-0.545037 0.07274,-1.02767 0.07274,-1.02767 l 4.264709,-12.179937 c 0,-0.662454 0.509951,-1.195316 1.143193,-1.195316 h 3.643908 c 2.03208,-6.044617 6.428444,-19.308343 8.601378,-27.3028516 0.09515,-0.350049 0.353682,-0.6977397 0.687316,-0.8499078 0.64513,-0.2942388 1.251121,-0.4547034 1.869409,-0.4687135 0.618289,-0.01401 1.248709,0.1179362 1.942924,0.4095895 0.330692,0.1389294 0.688798,0.3909233 0.781837,0.7332156 2.089952,7.6892018 6.372609,21.2712228 8.350102,27.4786678 h 3.837227 c 0.633241,0 1.142805,0.532862 1.142805,1.195316 l 3.985426,12.099809 c 0,0.08916 9.79e-4,0.24649 0.0023,0.376916 0.004,-0.313071 -0.0023,-0.595581 -0.0023,-0.775225 L 94.415711,32.045614 c 0,-0.662454 -0.509564,-1.195316 -1.142805,-1.195316 H 89.435679 C 87.458186,24.642852 83.175529,11.060832 81.085577,3.37163 80.992538,3.0293377 80.634432,2.7773438 80.30374,2.6384144 79.609525,2.3467611 78.979105,2.2148147 78.360816,2.2288249 Z"/>
  </g>
  <g transform="matrix(5.0212247,0,0,5.0212247,-379.92985,-226.35664)">
   <path style="opacity:0.2" d="m 121.48113,47.445426 c -0.0106,0.84195 -0.10256,1.921531 -0.64764,1.921531 l -39.177838,-0.03345 c -0.362384,0.01326 -0.478182,-0.550161 -0.49983,-1.153307 -0.01621,0.726891 0.0568,1.567825 0.49983,1.551616 l 39.177838,0.03345 c 0.64731,0 0.65643,-1.482007 0.64764,-2.31984 z"/>
  </g>
 </g>
</svg>
