<?xml version="1.0" encoding="UTF-8" standalone="no"?>
<svg
   xmlns:dc="http://purl.org/dc/elements/1.1/"
   xmlns:cc="http://creativecommons.org/ns#"
   xmlns:rdf="http://www.w3.org/1999/02/22-rdf-syntax-ns#"
   xmlns:svg="http://www.w3.org/2000/svg"
   xmlns="http://www.w3.org/2000/svg"
   xmlns:xlink="http://www.w3.org/1999/xlink"
   xmlns:sodipodi="http://sodipodi.sourceforge.net/DTD/sodipodi-0.dtd"
   xmlns:inkscape="http://www.inkscape.org/namespaces/inkscape"
   height="256"
   width="256"
   version="1.1"
   id="svg27"
   sodipodi:docname="windows.svg"
   inkscape:version="0.92.5 (2060ec1f9f, 2020-04-08)">
  <metadata
     id="metadata33">
    <rdf:RDF>
      <cc:Work
         rdf:about="">
        <dc:format>image/svg+xml</dc:format>
        <dc:type
           rdf:resource="http://purl.org/dc/dcmitype/StillImage" />
      </cc:Work>
    </rdf:RDF>
  </metadata>
  <defs
     id="defs31">
    <linearGradient
       gradientTransform="translate(-24.242478,-28.752128)"
       inkscape:collect="always"
       xlink:href="#linearGradient962"
       id="linearGradient964"
       x1="160"
       y1="136"
       x2="160"
       y2="268"
       gradientUnits="userSpaceOnUse" />
    <linearGradient
       inkscape:collect="always"
       id="linearGradient962">
      <stop
         style="stop-color:#7b0619;stop-opacity:1;"
         offset="0"
         id="stop958" />
      <stop
         style="stop-color:#bb0212;stop-opacity:1"
         offset="1"
         id="stop960" />
    </linearGradient>
    <linearGradient
       inkscape:collect="always"
       xlink:href="#linearGradient956"
       id="linearGradient943"
       gradientUnits="userSpaceOnUse"
       gradientTransform="rotate(90,154.25213,129.5024)"
       x1="39.997601"
       y1="155.99699"
       x2="263.99759"
       y2="155.99699" />
    <linearGradient
       inkscape:collect="always"
       id="linearGradient956">
      <stop
         id="stop952"
         offset="0"
         style="stop-color:#e6e6e6;stop-opacity:1" />
      <stop
         id="stop954"
         offset="1"
         style="stop-color:#f7f7f7;stop-opacity:1" />
    </linearGradient>
    <filter
       inkscape:collect="always"
       style="color-interpolation-filters:sRGB"
       id="filter58449"
       x="-0.047999427"
       width="1.0959988"
       y="-0.048000574"
       height="1.0960011">
      <feGaussianBlur
         inkscape:collect="always"
         stdDeviation="4.4800539"
         id="feGaussianBlur58451" />
    </filter>
    <filter
       inkscape:collect="always"
       style="color-interpolation-filters:sRGB"
       id="filter58492"
       x="-0.011999856"
       width="1.0239997"
       y="-0.012000144"
       height="1.0240003">
      <feGaussianBlur
         inkscape:collect="always"
         stdDeviation="1.1200135"
         id="feGaussianBlur58494" />
    </filter>
  </defs>
  <sodipodi:namedview
     pagecolor="#ffffff"
     bordercolor="#666666"
     borderopacity="1"
     objecttolerance="10"
     gridtolerance="10"
     guidetolerance="10"
     inkscape:pageopacity="0"
     inkscape:pageshadow="2"
     inkscape:window-width="1920"
     inkscape:window-height="1024"
     id="namedview29"
     showgrid="false"
     inkscape:zoom="0.921875"
     inkscape:cx="128"
     inkscape:cy="128"
     inkscape:window-x="0"
     inkscape:window-y="28"
     inkscape:window-maximized="1"
     inkscape:current-layer="svg27" />
  <linearGradient
     id="a"
     gradientUnits="userSpaceOnUse"
     x1="88"
     x2="488"
     y1="88"
     y2="488">
    <stop
       offset="0"
       stop-opacity=".588235"
       id="stop2" />
    <stop
       offset="1"
       stop-opacity=".205556"
       id="stop4" />
  </linearGradient>
  <filter
     id="b"
     color-interpolation-filters="sRGB"
     height="1.088"
     width="1.106"
     x="-.05"
     y="-.04">
    <feGaussianBlur
       stdDeviation="8.48"
       id="feGaussianBlur7" />
  </filter>
  <filter
     id="c"
     color-interpolation-filters="sRGB"
     height="1.022"
     width="1.026"
     x="-.01"
     y="-.01">
    <feGaussianBlur
       stdDeviation="2.12"
       id="feGaussianBlur10" />
  </filter>
  <path
     style="color:#000000;display:inline;overflow:visible;visibility:visible;opacity:0.2;fill:#000000;fill-opacity:1;fill-rule:nonzero;stroke:#000000;stroke-width:4;stroke-miterlimit:4;stroke-dasharray:none;marker:none;enable-background:accumulate"
     d="m 200.83049,15.247562 c 35.29673,0 39.09461,3.62542 38.92162,38.99353 v 73.006468 73.00648 c 0.17299,35.36812 -3.62489,38.99353 -38.92162,38.99353 H 54.67374 c -35.29671,0 -38.92161,-3.625 -38.92161,-38.99353 V 127.24756 54.241092 c 0,-35.36853 3.6249,-38.99353 38.92161,-38.99353 z"
     id="rect4158-9"
     inkscape:connector-curvature="0"
     sodipodi:nodetypes="scccssscsss" />
  <path
     style="color:#000000;display:inline;overflow:visible;visibility:visible;opacity:0.1;fill:#000000;fill-opacity:1;fill-rule:nonzero;stroke:none;stroke-width:1;marker:none;filter:url(#filter58492);enable-background:accumulate"
     d="m 200.83049,16.247862 c 35.29673,0 39.09461,3.62542 38.92162,38.99353 v 73.006468 73.00648 c 0.17299,35.36812 -3.62489,38.99353 -38.92162,38.99353 H 54.67374 c -35.29671,0 -38.92161,-3.625 -38.92161,-38.99353 V 128.24786 55.241392 c 0,-35.36853 3.6249,-38.99353 38.92161,-38.99353 z"
     id="rect4158-7"
     inkscape:connector-curvature="0"
     sodipodi:nodetypes="scccssscsss" />
  <path
     style="color:#000000;display:inline;overflow:visible;visibility:visible;opacity:0.2;fill:#000000;fill-opacity:1;fill-rule:nonzero;stroke:none;stroke-width:1;marker:none;filter:url(#filter58449);enable-background:accumulate"
     d="m 200.83049,16.247862 c 35.29673,0 39.09461,3.62542 38.92162,38.99353 v 73.006468 73.00648 c 0.17299,35.36812 -3.62489,38.99353 -38.92162,38.99353 H 54.67374 c -35.29671,0 -38.92161,-3.625 -38.92161,-38.99353 V 128.24786 55.241392 c 0,-35.36853 3.6249,-38.99353 38.92161,-38.99353 z"
     id="rect4158-1"
     inkscape:connector-curvature="0"
     sodipodi:nodetypes="scccssscsss" />
  <path
     inkscape:connector-curvature="0"
     id="path938"
     style="color:#000000;display:inline;overflow:visible;visibility:visible;fill:url(#linearGradient943);fill-opacity:1;fill-rule:nonzero;stroke:none;stroke-width:1;marker:none;enable-background:accumulate"
     d="m 54.667678,15.247872 c -35.29671,0 -38.922359,3.625611 -38.921875,38.994141 l 0.02344,133.005857 H 239.75752 L 239.7458,54.242013 c 0.17299,-35.36811 -3.62319,-38.994141 -38.91992,-38.994141 z"
     sodipodi:nodetypes="sscccss" />
  <path
     inkscape:connector-curvature="0"
     id="path948"
     style="color:#000000;display:inline;overflow:visible;visibility:visible;fill:url(#linearGradient964);fill-opacity:1;fill-rule:nonzero;stroke:none;stroke-width:1;marker:none;enable-background:accumulate"
     d="m 54.667678,239.24787 c -35.29671,0 -38.922359,-3.62561 -38.921875,-38.99414 l 0.01172,-73.00586 c 0,0 24,28 80,28 55.999997,0 87.999997,-48 115.999997,-48 28,0 27.98828,20 27.98828,20 v 73.00586 c 0.17299,35.36811 -3.62319,38.99414 -38.91992,38.99414 z"
     sodipodi:nodetypes="ssczzccss" />
  <path
     style="color:#000000;display:inline;overflow:visible;visibility:visible;opacity:0.15;fill:#ffffff;fill-opacity:1;fill-rule:nonzero;stroke:none;stroke-width:0.99999797;marker:none;enable-background:accumulate"
     d="m 127.7521,239.24756 h 8.00001 65.00586 c 35.36853,0 38.99414,-3.62508 38.99414,-38.92094 V 54.17391 c 0,-35.295889 -3.62602,-39.093927 -38.99414,-38.920941 h -65.00586 -8.00001 z"
     id="rect4158-5"
     inkscape:connector-curvature="0"
     sodipodi:nodetypes="ccssscccc" />
  <path
     style="color:#000000;display:inline;overflow:visible;visibility:visible;opacity:0.3;fill:#ffffff;fill-opacity:1;fill-rule:nonzero;stroke:none;stroke-width:1;marker:none;enable-background:accumulate"
     d="m 54.679402,15.24757 c -35.296728,0 -39.09487,3.62603 -38.92188,38.99414 v 2 C 15.584532,20.8736 19.382674,17.24757 54.679402,17.24757 H 200.83564 c 35.29673,0 38.92188,3.62561 38.92188,38.99414 v -2 c 0,-35.36853 -3.62515,-38.99414 -38.92188,-38.99414 z"
     id="path931"
     inkscape:connector-curvature="0"
     sodipodi:nodetypes="sccsscsss" />
  <path
     style="color:#000000;display:inline;overflow:visible;visibility:visible;opacity:0.2;fill:#000000;fill-opacity:1;fill-rule:nonzero;stroke:none;stroke-width:1;marker:none;enable-background:accumulate"
     d="m 54.684802,239.24757 c -35.296731,0 -39.094875,-3.62603 -38.921885,-38.99414 v -2 c -0.17299,35.36811 3.625154,38.99414 38.921885,38.99414 H 200.84104 c 35.29673,0 38.92188,-3.62561 38.92188,-38.99414 v 2 c 0,35.36853 -3.62515,38.99414 -38.92188,38.99414 z"
     id="path931-8"
     inkscape:connector-curvature="0"
     sodipodi:nodetypes="sccsscsss" />
</svg>
