<?xml version="1.0" encoding="UTF-8" standalone="no"?>
<svg
   xmlns:dc="http://purl.org/dc/elements/1.1/"
   xmlns:cc="http://creativecommons.org/ns#"
   xmlns:rdf="http://www.w3.org/1999/02/22-rdf-syntax-ns#"
   xmlns:svg="http://www.w3.org/2000/svg"
   xmlns="http://www.w3.org/2000/svg"
   xmlns:xlink="http://www.w3.org/1999/xlink"
   xmlns:sodipodi="http://sodipodi.sourceforge.net/DTD/sodipodi-0.dtd"
   xmlns:inkscape="http://www.inkscape.org/namespaces/inkscape"
   height="256"
   viewBox="-54 0 191.99999 191.99999"
   width="256"
   version="1.1"
   id="svg34"
   sodipodi:docname="wine.svg"
   inkscape:version="0.92.3 (2405546, 2018-03-11)">
  <metadata
     id="metadata40">
    <rdf:RDF>
      <cc:Work
         rdf:about="">
        <dc:format>image/svg+xml</dc:format>
        <dc:type
           rdf:resource="http://purl.org/dc/dcmitype/StillImage" />
        <dc:title />
      </cc:Work>
    </rdf:RDF>
  </metadata>
  <defs
     id="defs38">
    <linearGradient
       id="linearGradient1007"
       inkscape:collect="always">
      <stop
         id="stop1003"
         offset="0"
         style="stop-color:#da1636;stop-opacity:1" />
      <stop
         id="stop1005"
         offset="1"
         style="stop-color:#bc1938;stop-opacity:1" />
    </linearGradient>
    <linearGradient
       inkscape:collect="always"
       id="linearGradient2448">
      <stop
         style="stop-color:#cbd3ce;stop-opacity:0.99607843"
         offset="0"
         id="stop2444" />
      <stop
         id="stop2452"
         offset="0.24585883"
         style="stop-color:#e5dedb;stop-opacity:0.99607843" />
      <stop
         style="stop-color:#e7e0dd;stop-opacity:0.99607843"
         offset="0.72962648"
         id="stop2454" />
      <stop
         style="stop-color:#ccd4cf;stop-opacity:0.99607843"
         offset="1"
         id="stop2446" />
    </linearGradient>
    <linearGradient
       inkscape:collect="always"
       id="linearGradient2440">
      <stop
         style="stop-color:#bc0111;stop-opacity:1"
         offset="0"
         id="stop2436" />
      <stop
         style="stop-color:#7b0619;stop-opacity:1"
         offset="1"
         id="stop2438" />
    </linearGradient>
    <filter
       style="color-interpolation-filters:sRGB"
       id="filter5415"
       width="1.1289999"
       height="1.076"
       x="-0.07"
       y="-0.039999999">
      <feGaussianBlur
         id="feGaussianBlur41"
         stdDeviation="2.813" />
    </filter>
    <linearGradient
       id="linearGradient1674"
       x1="285"
       x2="301"
       y1="102"
       y2="102"
       gradientUnits="userSpaceOnUse"
       xlink:href="#linearGradient1672" />
    <linearGradient
       id="linearGradient1672">
      <stop
         style="stop-color:#e7e7e7"
         id="stop7"
         offset="0" />
      <stop
         style="stop-color:#ffffff"
         id="stop9"
         offset="1" />
    </linearGradient>
    <linearGradient
       id="linearGradient1665"
       x1="-223.246"
       x2="-207.24699"
       y1="206.87399"
       y2="206.87399"
       gradientUnits="userSpaceOnUse"
       xlink:href="#linearGradient1663" />
    <linearGradient
       id="linearGradient1663">
      <stop
         style="stop-color:#3b3b3b"
         id="stop12"
         offset="0" />
      <stop
         style="stop-color:#4f4f4f"
         id="stop14"
         offset="1" />
    </linearGradient>
    <radialGradient
       inkscape:collect="always"
       xlink:href="#linearGradient2440"
       id="radialGradient2442"
       cx="114.31657"
       cy="92.883664"
       fx="114.31657"
       fy="92.883664"
       r="30.582442"
       gradientTransform="matrix(1,0,0,1.4740746,0,-44.03379)"
       gradientUnits="userSpaceOnUse" />
    <linearGradient
       inkscape:collect="always"
       xlink:href="#linearGradient2448"
       id="linearGradient2450"
       x1="105.54765"
       y1="153.11931"
       x2="146.99686"
       y2="25.106585"
       gradientUnits="userSpaceOnUse" />
    <radialGradient
       inkscape:collect="always"
       xlink:href="#linearGradient2448"
       id="radialGradient2464"
       cx="126.60915"
       cy="178.43213"
       fx="126.60915"
       fy="178.43213"
       r="38.285027"
       gradientTransform="matrix(-0.54376533,-0.015042,0.00789049,-0.2852395,175.66049,236.17759)"
       gradientUnits="userSpaceOnUse" />
    <filter
       inkscape:collect="always"
       style="color-interpolation-filters:sRGB"
       id="filter3301"
       x="-0.011294029"
       width="1.0225881"
       y="-0.012800114"
       height="1.0256002">
      <feGaussianBlur
         inkscape:collect="always"
         stdDeviation="0.69528864"
         id="feGaussianBlur3303" />
    </filter>
    <filter
       inkscape:collect="always"
       style="color-interpolation-filters:sRGB"
       id="filter3319"
       x="-0.033882088"
       width="1.0677642"
       y="-0.038400341"
       height="1.0768007">
      <feGaussianBlur
         inkscape:collect="always"
         stdDeviation="2.0858659"
         id="feGaussianBlur3321" />
    </filter>
    <filter
       style="color-interpolation-filters:sRGB"
       id="filter5415-3"
       width="1.1289999"
       height="1.076"
       x="-0.07"
       y="-0.039999999">
      <feGaussianBlur
         id="feGaussianBlur41-6"
         stdDeviation="2.813" />
    </filter>
    <linearGradient
       id="linearGradient1665-3"
       x1="-223.246"
       x2="-207.24699"
       y1="206.87399"
       y2="206.87399"
       gradientUnits="userSpaceOnUse"
       xlink:href="#linearGradient1663" />
    <linearGradient
       x1="-28.128548"
       y1="34.637081"
       x2="15.779508"
       y2="34.637081"
       id="linearGradient23960-3"
       xlink:href="#linearGradient16837"
       gradientUnits="userSpaceOnUse"
       gradientTransform="matrix(1.9985292,0,0,1.9559694,-63.520018,3.7454272)" />
    <linearGradient
       id="linearGradient16837">
      <stop
         style="stop-color:#830000;stop-opacity:1"
         offset="0"
         id="stop16839" />
      <stop
         style="stop-color:#830000;stop-opacity:0"
         offset="1"
         id="stop16841" />
    </linearGradient>
    <radialGradient
       inkscape:collect="always"
       xlink:href="#linearGradient1007"
       id="radialGradient1630"
       cx="-89.053513"
       cy="70.980476"
       fx="-89.053513"
       fy="70.980476"
       r="31.019505"
       gradientTransform="matrix(0.9814681,0,0,1.0807851,-1.0754802,-6.3671845)"
       gradientUnits="userSpaceOnUse" />
    <filter
       inkscape:collect="always"
       style="color-interpolation-filters:sRGB"
       id="filter2488"
       x="-0.015600039"
       width="1.0312001"
       y="-0.0097499846"
       height="1.0195">
      <feGaussianBlur
         inkscape:collect="always"
         stdDeviation="0.69468638"
         id="feGaussianBlur2490" />
    </filter>
    <filter
       inkscape:collect="always"
       style="color-interpolation-filters:sRGB"
       id="filter2518"
       x="-0.062400158"
       width="1.1248003"
       y="-0.038999938"
       height="1.0779999">
      <feGaussianBlur
         inkscape:collect="always"
         stdDeviation="2.7787455"
         id="feGaussianBlur2520" />
    </filter>
    <radialGradient
       inkscape:collect="always"
       xlink:href="#linearGradient1007"
       id="radialGradient2522"
       gradientUnits="userSpaceOnUse"
       gradientTransform="matrix(0.9814681,0,0,1.0807851,170.45984,1.2208389)"
       cx="-89.053513"
       cy="70.980476"
       fx="-89.053513"
       fy="70.980476"
       r="31.019505" />
  </defs>
  <sodipodi:namedview
     pagecolor="#ffffff"
     bordercolor="#666666"
     borderopacity="1"
     objecttolerance="10"
     gridtolerance="10"
     guidetolerance="10"
     inkscape:pageopacity="0"
     inkscape:pageshadow="2"
     inkscape:window-width="1920"
     inkscape:window-height="1009"
     id="namedview36"
     showgrid="false"
     units="px"
     inkscape:zoom="3.2617188"
     inkscape:cx="73.274252"
     inkscape:cy="128"
     inkscape:window-x="0"
     inkscape:window-y="34"
     inkscape:window-maximized="1"
     inkscape:current-layer="g2533">
    <inkscape:grid
       type="xygrid"
       id="grid2404" />
  </sodipodi:namedview>
  <path
     style="fill:#1c0b0b;fill-opacity:1;stroke-width:0.86783028;opacity:0.1;filter:url(#filter3319)"
     d="m 8.5243242,29.981944 c -7.2796426,0.11377 -15.9408759,1.949471 -26.6995002,6.39786 l -14.130217,48.965178 c 11.402429,-4.714927 20.384055,-6.859086 27.9298419,-6.800939 11.4362738,0.0868 19.4881181,4.793217 26.9757631,9.835312 L 36.710818,39.646666 C 28.95078,34.38707 20.65707,29.792351 8.5243242,29.981944 Z M 44.172971,44.779441 30.04576,93.779341 c 12.396953,8.398829 27.363279,15.303089 54.836166,3.004182 L 98.984992,47.946661 C 70.350055,59.785604 56.582073,53.130564 44.172971,44.779441 Z M -7.9926385,87.568682 c -7.2848935,0.113963 -15.9518475,1.952561 -26.7176105,6.403887 L -48.765,143.06305 c 28.702614,-11.86842 42.2226656,-4.9841 54.6595415,3.38612 L 20.21348,97.240937 C 12.448021,91.977542 4.1488361,87.378722 -7.9926385,87.568682 Z M 27.663545,101.96459 13.57105,150.67014 c 12.408254,8.41448 26.177725,15.12943 54.848254,3.27138 l 14.128719,-48.80063 c -28.665307,11.84851 -42.463213,5.18703 -54.884478,-3.1763 z"
     id="path3305"
     inkscape:connector-curvature="0" />
  <path
     inkscape:connector-curvature="0"
     id="path3295"
     d="m 8.5243242,29.981944 c -7.2796426,0.11377 -15.9408759,1.949471 -26.6995002,6.39786 l -14.130217,48.965178 c 11.402429,-4.714927 20.384055,-6.859086 27.9298419,-6.800939 11.4362738,0.0868 19.4881181,4.793217 26.9757631,9.835312 L 36.710818,39.646666 C 28.95078,34.38707 20.65707,29.792351 8.5243242,29.981944 Z M 44.172971,44.779441 30.04576,93.779341 c 12.396953,8.398829 27.363279,15.303089 54.836166,3.004182 L 98.984992,47.946661 C 70.350055,59.785604 56.582073,53.130564 44.172971,44.779441 Z M -7.9926385,87.568682 c -7.2848935,0.113963 -15.9518475,1.952561 -26.7176105,6.403887 L -48.765,143.06305 c 28.702614,-11.86842 42.2226656,-4.9841 54.6595415,3.38612 L 20.21348,97.240937 C 12.448021,91.977542 4.1488361,87.378722 -7.9926385,87.568682 Z M 27.663545,101.96459 13.57105,150.67014 c 12.408254,8.41448 26.177725,15.12943 54.848254,3.27138 l 14.128719,-48.80063 c -28.665307,11.84851 -42.463213,5.18703 -54.884478,-3.1763 z"
     style="fill:#1e0e0e;fill-opacity:1;stroke-width:0.86783028;opacity:0.1;filter:url(#filter3301)" />
  <path
     style="fill:#202020;fill-opacity:1;stroke-width:0.86783028;opacity:0.1"
     d="m 8.5243242,29.981944 c -7.2796426,0.11377 -15.9408759,1.949471 -26.6995002,6.39786 l -14.130217,48.965178 c 11.402429,-4.714927 20.384055,-6.859086 27.9298419,-6.800939 11.4362738,0.0868 19.4881181,4.793217 26.9757631,9.835312 L 36.710818,39.646666 C 28.95078,34.38707 20.65707,29.792351 8.5243242,29.981944 Z M 44.172971,44.779441 30.04576,93.779341 c 12.396953,8.398829 27.363279,15.303089 54.836166,3.004182 L 98.984992,47.946661 C 70.350055,59.785604 56.582073,53.130564 44.172971,44.779441 Z M -7.9926385,87.568682 c -7.2848935,0.113963 -15.9518475,1.952561 -26.7176105,6.403887 L -48.765,143.06305 c 28.702614,-11.86842 42.2226656,-4.9841 54.6595415,3.38612 L 20.21348,97.240937 C 12.448021,91.977542 4.1488361,87.378722 -7.9926385,87.568682 Z M 27.663545,101.96459 13.57105,150.67014 c 12.408254,8.41448 26.177725,15.12943 54.848254,3.27138 l 14.128719,-48.80063 c -28.665307,11.84851 -42.463213,5.18703 -54.884478,-3.1763 z"
     id="path3292"
     inkscape:connector-curvature="0" />
  <path
     inkscape:connector-curvature="0"
     d="M 96.551224,48.802952 C 68.765994,60.29059 55.406414,53.832689 43.365529,45.729365 L 29.65817,93.274817 c 12.029096,8.149633 26.551587,14.850063 53.209275,2.916119 z"
     style="fill:#46a926;stroke-width:0.84207875;fill-opacity:1"
     id="path2693" />
  <path
     inkscape:connector-curvature="0"
     style="fill:#1a7fd4;stroke-width:0.84207875;fill-opacity:1"
     d="M 6.2231193,144.38311 C -5.8447127,136.26126 -18.963457,129.58105 -46.81437,141.09732 L -33.176906,93.4626 C -5.3200967,81.944646 8.0622193,88.462336 20.11826,96.633869 L 6.2231193,144.38227 Z"
     id="path2695" />
  <path
     inkscape:connector-curvature="0"
     d="M 22.433977,88.035402 C 15.168521,83.142924 7.3548733,78.576332 -3.7420417,78.492124 -11.063917,78.435704 -19.779432,80.515638 -30.843505,85.090653 l 13.711569,-47.511769 c 27.838283,-11.510375 41.209651,-4.996053 53.257272,3.169585 z"
     style="fill:#f34f17;stroke-width:0.84207875;fill-opacity:1"
     id="path2697" />
  <path
     inkscape:connector-curvature="0"
     d="m 27.346665,101.2173 c 12.052673,8.11512 25.440883,14.57892 53.255588,3.08201 l -13.709884,47.35346 c -27.819758,11.50617 -41.180179,4.99016 -53.220221,-3.17463 z"
     style="fill:#fdc92b;stroke-width:0.84207875;fill-opacity:1"
     id="path2699" />
  <path
     style="fill:#ffffff;fill-opacity:1;stroke-width:0.84207875;opacity:0.3"
     d="m 8.7752375,31.370539 c -7.0636347,0.110385 -15.4678642,1.891617 -25.9072265,6.208008 l -13.710936,47.512206 c 0.167392,-0.06922 0.322942,-0.125287 0.489262,-0.193357 L -17.131989,39.078547 C -6.6926267,34.762156 1.7116103,32.980924 8.7752375,32.870539 20.359767,32.689506 28.334089,37.007594 35.760589,42.008234 l 0.364747,-1.259765 C 28.595569,35.644945 20.547957,31.186565 8.7752375,31.370539 Z M 43.366053,45.728937 29.658049,93.274835 c 0.119557,0.081 0.243225,0.159533 0.363285,0.240233 L 43.366053,47.228937 c 11.969039,8.054974 25.247496,14.476331 52.696287,3.269531 l 0.489263,-1.696289 C 68.766369,60.289817 55.406935,53.832261 43.366053,45.728937 Z M -7.2516167,87.248466 c -7.0687193,0.110595 -15.4784993,1.894635 -25.9248063,6.213869 l -13.637692,47.633785 c 0.164273,-0.0679 0.321608,-0.12669 0.48486,-0.19336 l 13.152832,-45.940425 c 10.446315,-4.319234 18.856087,-6.103274 25.9248063,-6.213869 11.5924719,-0.181365 19.5714737,4.140959 27.0029307,9.145019 l 0.36621,-1.259767 C 12.5825,91.526511 4.5295777,87.064146 -7.2516167,87.248466 Z M 27.346526,101.21722 13.672212,148.47747 c 0.1206,0.0818 0.243863,0.16026 0.364748,0.2417 l 13.309566,-46.00196 c 11.98065,8.06663 25.287599,14.4937 52.76513,3.27832 l 0.490725,-1.69628 c -27.814701,11.4969 -41.203175,5.03308 -53.255855,-3.08203 z"
     id="path3276"
     inkscape:connector-curvature="0" />
  <path
     style="fill:#000000;fill-opacity:1;stroke-width:0.84207875;opacity:0.2"
     d="M 35.76071,40.508219 22.433563,86.53507 C 15.168103,81.642595 7.3551812,77.075815 -3.7417282,76.991613 -10.952798,76.936053 -19.526715,78.965875 -30.353542,83.397378 l -0.489255,1.693357 c 11.064075,-4.575022 19.779187,-6.655537 27.1010688,-6.599122 11.0969094,0.0842 18.9098312,4.650982 26.1752912,9.543457 L 36.125457,40.748454 C 36.005135,40.6669 35.88131,40.589427 35.76071,40.508219 Z m 60.791014,8.293945 c -0.165818,0.06856 -0.324465,0.129007 -0.489255,0.196289 L 82.867157,94.689857 C 56.474029,106.50537 41.981104,100.05217 30.021455,92.013587 l -0.363285,1.26123 c 12.029092,8.149633 26.551311,14.848983 53.208987,2.91504 z M 19.751436,96.393467 6.2236037,142.88175 c -11.9966468,-8.07395 -25.0383887,-14.71454 -52.5527297,-3.479 l -0.484867,1.69335 c 27.850911,-11.51627 40.9697674,-4.8362 53.0375967,3.28565 L 20.117646,96.633707 c -0.120675,-0.08179 -0.245258,-0.15879 -0.36621,-0.24024 z m 60.851066,7.905763 c -0.166222,0.0687 -0.325522,0.12886 -0.490717,0.19629 l -13.218749,45.65625 c -27.540974,11.39087 -40.909048,5.116 -52.855955,-2.93262 l -0.364748,1.2583 c 12.04005,8.16479 25.400939,14.6805 53.220703,3.17432 z"
     id="path3287"
     inkscape:connector-curvature="0" />
  <path
     style="fill:none;stroke:#000000;stroke-width:0.74999994px;stroke-linecap:butt;stroke-linejoin:miter;stroke-opacity:1"
     d="M 33.629645,10.130785 Z"
     id="path2408"
     inkscape:connector-curvature="0" />
  <g
     id="g2533"
     transform="matrix(-1,0,0,1,136.68097,-2.0694609)">
    <path
       d="m 72.42638,9.2852082 c -2.589352,0.1666324 -4.444032,0.7599578 -5.212682,1.8664678 -10.95318,28.395188 -24.65239,66.61549 -15.82875,88.781582 8.70057,21.856922 6.47161,29.867572 1.01711,42.742072 -8.9614,21.15199 -19.37562,7.32249 -34.83597,12.0076 -15.7633102,4.77692 74.279072,36.2534 62.806458,21.77544 C 68.521548,161.50292 53.314138,164.36441 58.758988,143.733 64.577428,121.68598 66.842668,125.20072 87.746585,109.14115 109.13609,92.708523 112.98344,56.260007 122.58255,29.06975 121.769,19.839641 86.408877,8.3854052 72.42638,9.2852082 Z"
       style="opacity:0.1;fill:#020202;fill-opacity:1;fill-rule:evenodd;stroke:none;stroke-width:2.01244092px;stroke-linecap:butt;stroke-linejoin:miter;stroke-opacity:1;filter:url(#filter2518)"
       id="path2492"
       inkscape:connector-curvature="0"
       sodipodi:nodetypes="scsssssscs" />
    <path
       sodipodi:nodetypes="scsssssscs"
       inkscape:connector-curvature="0"
       id="path2482"
       style="opacity:0.1;fill:#020202;fill-opacity:1;fill-rule:evenodd;stroke:none;stroke-width:2.01244092px;stroke-linecap:butt;stroke-linejoin:miter;stroke-opacity:1;filter:url(#filter2488)"
       d="m 72.42638,9.2852082 c -2.589352,0.1666324 -4.444032,0.7599578 -5.212682,1.8664678 -10.95318,28.395188 -24.65239,66.61549 -15.82875,88.781582 8.70057,21.856922 6.47161,29.867572 1.01711,42.742072 -8.9614,21.15199 -19.37562,7.32249 -34.83597,12.0076 -15.7633102,4.77692 74.279072,36.2534 62.806458,21.77544 C 68.521548,161.50292 53.314138,164.36441 58.758988,143.733 64.577428,121.68598 66.842668,125.20072 87.746585,109.14115 109.13609,92.708523 112.98344,56.260007 122.58255,29.06975 121.769,19.839641 86.408877,8.3854052 72.42638,9.2852082 Z" />
    <path
       d="m 72.42638,9.2852082 c -2.589352,0.1666324 -4.444032,0.7599578 -5.212682,1.8664678 -10.95318,28.395188 -24.65239,66.61549 -15.82875,88.781582 8.70057,21.856922 6.47161,29.867572 1.01711,42.742072 -8.9614,21.15199 -19.37562,7.32249 -34.83597,12.0076 -15.7633102,4.77692 74.279072,36.2534 62.806458,21.77544 C 68.521548,161.50292 53.314138,164.36441 58.758988,143.733 64.577428,121.68598 66.842668,125.20072 87.746585,109.14115 109.13609,92.708523 112.98344,56.260007 122.58255,29.06975 121.769,19.839641 86.408877,8.3854052 72.42638,9.2852082 Z"
       style="opacity:0.1;fill:#020202;fill-opacity:1;fill-rule:evenodd;stroke:none;stroke-width:2.01244092px;stroke-linecap:butt;stroke-linejoin:miter;stroke-opacity:1"
       id="path2480"
       inkscape:connector-curvature="0"
       sodipodi:nodetypes="scsssssscs" />
    <path
       sodipodi:nodetypes="scsssssscs"
       inkscape:connector-curvature="0"
       id="path20995-3"
       style="opacity:1;fill:#ebf3f8;fill-opacity:1;fill-rule:evenodd;stroke:none;stroke-width:1.97713482px;stroke-linecap:butt;stroke-linejoin:miter;stroke-opacity:1"
       d="m 72.93132,10.784334 c -2.543922,0.163709 -4.366062,0.746624 -5.121232,1.833722 -10.76102,27.897027 -24.21989,65.446797 -15.55105,87.22401 8.54793,21.473464 6.35807,29.343584 0.99926,41.992214 -8.80418,20.7809 -19.03569,7.19402 -34.22481,11.79694 C 3.5467278,158.32433 92.00942,189.24859 80.73808,175.02463 69.094998,160.33156 54.154378,163.14285 59.503708,142.87339 65.220068,121.21316 67.445568,124.66624 87.98275,108.88842 108.997,92.744081 112.77685,56.935013 122.20756,30.221778 121.40828,21.153601 86.66851,9.9003167 72.93132,10.784334 Z" />
    <path
       sodipodi:nodetypes="cscscc"
       inkscape:connector-curvature="0"
       id="path14897-5"
       style="fill:url(#radialGradient2522);fill-opacity:1;fill-rule:evenodd;stroke:none;stroke-width:1.94049478px;stroke-linecap:butt;stroke-linejoin:miter;stroke-opacity:1"
       d="m 56.091028,100.28701 c 4.30525,8.80353 17.393933,14.77194 27.225034,8.7083 15.678021,-9.669886 23.198018,-34.276891 30.185248,-58.506477 -3.62606,-4.615935 -11.52073,-8.805278 -27.781367,0.437559 -16.973705,9.64815 -20.441725,-2.935419 -26.198325,-6.516331 -8.24,24.417627 -8.75343,43.709801 -3.43059,55.876949 z" />
    <path
       inkscape:connector-curvature="0"
       id="path2451"
       d="m 74.278484,10.735972 c -0.468631,0.0044 -0.918369,0.02071 -1.347656,0.04834 -2.543922,0.163709 -4.365924,0.746887 -5.121093,1.833985 C 59.340508,34.574044 49.208227,62.50447 49.499188,84.023564 49.678275,62.717886 59.535649,35.568159 67.809735,14.118296 c 0.755169,-1.087097 2.577171,-1.670275 5.121093,-1.833984 13.273754,-0.854194 46.154922,9.623731 49.079592,18.512694 0.0665,-0.190785 0.13072,-0.385807 0.19775,-0.575683 C 121.43387,21.436527 88.806049,10.600907 74.278484,10.735972 Z M 57.971844,124.17347 c -0.153557,6.22078 -2.038279,11.34485 -4.713867,17.66015 -8.804179,20.7809 -19.03549,7.19493 -34.224609,11.79785 -1.720005,0.52123 -2.15181,1.36694 -1.586422,2.4375 0.27186,-0.37572 0.781342,-0.69352 1.586422,-0.9375 15.189119,-4.60292 25.42043,8.98305 34.224609,-11.79785 2.887166,-6.8147 4.850117,-12.24485 4.713867,-19.16015 z m 0.430664,26.81396 c -0.553323,13.22458 12.152525,12.68559 22.335937,25.53662 0.366514,0.46253 0.622551,0.87561 0.785156,1.24511 0.410656,-0.60109 0.204747,-1.49589 -0.785156,-2.74511 -9.781413,-12.34372 -21.88552,-12.33724 -22.335937,-24.03662 z"
       style="opacity:0.3;fill:#ffffff;fill-opacity:1;fill-rule:evenodd;stroke:none;stroke-width:1.97713482px;stroke-linecap:butt;stroke-linejoin:miter;stroke-opacity:1" />
    <path
       inkscape:connector-curvature="0"
       id="path2457"
       d="m 122.01042,29.297006 c -9.28507,26.650303 -13.16344,62.061228 -34.028323,78.090824 -20.537183,15.77781 -22.761666,12.3256 -28.478026,33.98583 -0.855331,3.24098 -1.187289,5.88706 -1.101563,8.11377 0.07931,-1.89559 0.430928,-4.07263 1.101563,-6.61377 5.71636,-21.66023 7.940843,-18.20802 28.478026,-33.98583 21.014253,-16.144346 24.795363,-51.953272 34.226073,-78.666507 -0.027,-0.305923 -0.0956,-0.61397 -0.19775,-0.924317 z m -72.511232,53.22656 c -0.05383,6.403828 0.756347,12.286003 2.759766,17.318848 3.942563,9.904206 5.59625,16.910996 5.71289,22.831056 0.153996,-6.23853 -1.432835,-13.57903 -5.71289,-24.331056 -1.846218,-4.637933 -2.681031,-9.99573 -2.759766,-15.818848 z M 17.446946,154.56897 c -4.787625,6.61674 68.654629,32.1032 64.076655,21.70019 -3.745882,5.48303 -59.998471,-13.97806 -64.076655,-21.70019 z"
       style="opacity:0.2;fill:#000000;fill-opacity:1;fill-rule:evenodd;stroke:none;stroke-width:1.97713482px;stroke-linecap:butt;stroke-linejoin:miter;stroke-opacity:1" />
    <path
       inkscape:connector-curvature="0"
       id="path2462"
       d="m 59.521649,44.409799 c -4.829987,14.31272 -7.00116,26.861584 -6.902344,37.24951 0.113258,-10.088217 2.302679,-22.119301 6.902344,-35.74951 5.7566,3.580912 9.225024,16.165239 26.198729,6.517089 15.805892,-8.984352 23.694252,-5.275543 27.454102,-0.821777 0.10771,-0.372666 0.21923,-0.743668 0.32666,-1.116211 -3.62606,-4.615935 -11.52012,-8.804849 -27.780762,0.437988 -16.973705,9.64815 -20.442129,-2.936177 -26.198729,-6.517089 z"
       style="opacity:0.3;fill:#ffffff;fill-opacity:1;fill-rule:evenodd;stroke:none;stroke-width:1.94049478px;stroke-linecap:butt;stroke-linejoin:miter;stroke-opacity:1" />
    <path
       inkscape:connector-curvature="0"
       id="path2471"
       d="m 113.17448,50.105111 c -6.8977,23.864906 -14.420948,47.868438 -29.85791,57.389639 -9.831101,6.06365 -22.920335,0.0965 -27.225585,-8.707024 -2.202786,-5.035207 -3.401914,-11.294452 -3.47168,-18.628417 -0.08963,7.984163 1.120112,14.753115 3.47168,20.128421 4.30525,8.80353 17.394484,14.77067 27.225585,8.70702 15.678021,-9.669881 23.19734,-34.276264 30.18457,-58.50585 -0.10141,-0.129089 -0.21849,-0.255652 -0.32666,-0.383789 z"
       style="opacity:0.2;fill:#020202;fill-opacity:1;fill-rule:evenodd;stroke:none;stroke-width:1.94049478px;stroke-linecap:butt;stroke-linejoin:miter;stroke-opacity:1" />
  </g>
</svg>
