<svg xmlns="http://www.w3.org/2000/svg" xmlns:xlink="http://www.w3.org/1999/xlink" width="256" height="256" version="1.0">
 <defs>
  <linearGradient id="a">
   <stop id="stop2" offset="0" stop-color="#68676b"/>
   <stop id="stop4" offset=".8" stop-color="#424048"/>
   <stop id="stop6" offset="1" stop-color="#241f31"/>
  </linearGradient>
  <radialGradient id="d" cx="279.422" cy="446.483" r="224" fx="279.422" fy="446.483" gradientTransform="matrix(1.34416,6e-4,-6.2e-4,1.38763,-121.22,-718.103)" gradientUnits="userSpaceOnUse" xlink:href="#a"/>
  <linearGradient id="e" x1="43.844" x2="-60" y1="234" y2="234" gradientTransform="matrix(1.0015,0,0,0.99993,72.09,56.015)" gradientUnits="userSpaceOnUse" xlink:href="#b"/>
  <linearGradient id="b">
   <stop id="stop11" offset="0" stop-color="#d5d3cf"/>
   <stop id="stop13" offset=".038" stop-color="#e3e2df"/>
   <stop id="stop15" offset=".077" stop-color="#c0bfbc"/>
   <stop id="stop17" offset=".923" stop-color="#c0bfbc"/>
   <stop id="stop19" offset=".962" stop-color="#e3e2df"/>
   <stop id="stop21" offset="1" stop-color="#d5d3cf"/>
  </linearGradient>
  <linearGradient id="linearGradient1007" x1="160.305" x2="161.33" y1="240.139" y2="135.579" gradientTransform="matrix(0.54625232,0,0,0.54625232,-6.0941965,-68.413544)" gradientUnits="userSpaceOnUse" xlink:href="#linearGradient1018"/>
  <linearGradient id="linearGradient1018">
   <stop id="stop2-3" offset="0" style="stop-color:#37a6e6"/>
   <stop id="stop4-6" offset="1" style="stop-color:#1a7fd4"/>
  </linearGradient>
  <clipPath id="clipPath1082-3" clipPathUnits="userSpaceOnUse">
   <path style="fill:#8c59d9" d="M 361.9375,-212 C 507.2348,-212 528,-191.28677 528,-46.125 V 70.125 C 528,215.28618 507.2348,236 361.9375,236 H 214.0625 C 68.7652,236 48,215.28618 48,70.125 V -46.125 C 48,-191.28677 68.7652,-212 214.0625,-212 Z"/>
  </clipPath>
  <linearGradient id="linearGradient4358" x1="88" x2="488" y1="88" y2="488" gradientUnits="userSpaceOnUse" xlink:href="#linearGradient4360"/>
  <linearGradient id="linearGradient4360">
   <stop id="stop4362" offset="0" style="stop-color:#000000;stop-opacity:0.58823532"/>
   <stop id="stop4366" offset="1" style="stop-color:#000000;stop-opacity:0.20555556"/>
  </linearGradient>
  <filter style="color-interpolation-filters:sRGB" id="filter4380" width="1.106" height="1.088" x="-.05" y="-.04">
   <feGaussianBlur id="feGaussianBlur4382" stdDeviation="8.48"/>
  </filter>
  <filter style="color-interpolation-filters:sRGB" id="filter4346" width="1.026" height="1.022" x="-.01" y="-.01">
   <feGaussianBlur id="feGaussianBlur4348" stdDeviation="2.12"/>
  </filter>
  <linearGradient id="linearGradient3992" x1="321" x2="321" y1="189" y2="155" gradientTransform="matrix(1.8327625,0,0,2.0026265,-524.70604,-347.58757)" gradientUnits="userSpaceOnUse" xlink:href="#linearGradient3968"/>
  <linearGradient id="linearGradient3968">
   <stop id="stop3970" offset="0" style="stop-color:#ed6308"/>
   <stop id="stop3972" offset="1" style="stop-color:#f09e17"/>
  </linearGradient>
 </defs>
 <path style="opacity:0.1;filter:url(#filter4346)" d="M 141.84323,74 C 71.24979,74 63.65402,81.250835 64,151.98706 V 298 444.01294 C 63.65402,514.74917 71.24979,522 141.84323,522 H 434.15677 C 504.75021,522 513.9371,514.72348 512,444.01294 V 298 151.98706 C 512,81.249993 504.75021,74 434.15677,74 Z" transform="matrix(0.5,0,0,0.5,-16.116488,-20.825537)"/>
 <path style="opacity:0.3;fill:url(#linearGradient4358);filter:url(#filter4380)" d="M 141.84323,74 C 71.24979,74 63.65402,81.250835 64,151.98706 V 298 444.01294 C 63.65402,514.74917 71.24979,522 141.84323,522 H 434.15677 C 504.75021,522 513.9371,514.72348 512,444.01294 V 298 151.98706 C 512,81.249993 504.75021,74 434.15677,74 Z" transform="matrix(0.5,0,0,0.5,-16.116488,-20.825235)"/>
 <path style="opacity:0.2" d="m 53.695112,13.174464 c -36.098811,0 -39.983002,3.690159 -39.80608,39.689839 v 74.310167 74.31016 c -0.176922,35.99969 3.707269,39.68984 39.80608,39.68984 H 202.08243 c 36.09881,0 40.77464,-3.70276 39.80608,-39.68984 V 127.17447 52.864303 c 0,-36.00011 -3.70727,-39.689839 -39.80608,-39.689839 z"/>
 <path style="fill:#f2f2f2" d="m 200.95649,15.174464 c 35.29673,0 39.09461,3.625419 38.92162,38.993529 v 73.006477 73.00647 c 0.17299,35.36812 -3.62489,38.99353 -38.92162,38.99353 H 54.799732 c -35.296716,0 -38.921616,-3.625 -38.921616,-38.99353 V 127.17447 54.167993 c 0,-35.36853 3.6249,-38.993529 38.921616,-38.993529 z"/>
 <path style="opacity:0.3;fill:#ffffff" d="m 54.805392,15.174464 c -35.296728,0 -39.09487,3.626029 -38.92188,38.994139 v 2 c -0.17299,-35.36811 3.625152,-38.99414 38.92188,-38.99414 H 200.96163 c 35.29673,0 38.92188,3.62561 38.92188,38.99414 v -2 c 0,-35.36853 -3.62515,-38.994139 -38.92188,-38.994139 z"/>
 <path style="opacity:0.2" d="m 54.810792,239.17447 c -35.296731,0 -39.094875,-3.62603 -38.921885,-38.99414 v -2 c -0.17299,35.36811 3.625154,38.99414 38.921885,38.99414 H 200.96703 c 35.29673,0 38.92188,-3.62561 38.92188,-38.99414 v 2 c 0,35.36853 -3.62515,38.99414 -38.92188,38.99414 z"/>
 <g style="enable-background:new" transform="matrix(2.063515,0,0,2.2547655,-14.130222,78.735111)">
  <g transform="matrix(2,0,0,2,24.834232,-1978.9059)">
   <g transform="matrix(0.5288301,0,0,0.48397442,-10.949758,1001.7122)">
    <g>
     <path style="fill:#fb7c38" d="M 64.126164,-37.180378 V -19.15694 L 80.621027,-3.1358889 64.126164,12.885124 V 30.908562 L 98.948652,-3.1358889 Z"/>
     <path style="fill:#1a7fd4" d="M 25.638149,-15.151687 V 8.8798705 H 42.133013 V 30.908762 L 76.955502,-3.1358889 42.133013,-37.180578 v 22.028891 z"/>
     <path style="fill:#f2dfdf;opacity:0.3" d="M 83.880859 52.871094 L 83.880859 54.871094 L 158.85742 128.17383 L 159.88086 127.17383 L 83.880859 52.871094 z M 131.88086 52.873047 L 131.88086 54.873047 L 206.85742 128.17383 L 207.88086 127.17383 L 131.88086 52.873047 z M 47.880859 100.94922 L 47.880859 102.94922 L 83.880859 102.94922 L 83.880859 100.94922 L 47.880859 100.94922 z M 166.85156 128.17383 L 131.88086 162.14062 L 131.88086 164.14062 L 167.88086 129.17383 L 166.85156 128.17383 z" transform="matrix(0.45819063,0,0,0.45819064,3.6996106,-61.406059)"/>
     <path style="opacity:0.2" d="M 131.88086 90.208984 L 131.88086 92.208984 L 166.85156 126.17383 L 167.88086 125.17383 L 131.88086 90.208984 z M 158.85742 126.17383 L 83.880859 199.47656 L 83.880859 201.47656 L 159.88086 127.17383 L 158.85742 126.17383 z M 206.85742 126.17383 L 131.88086 199.47656 L 131.88086 201.47656 L 207.88086 127.17383 L 206.85742 126.17383 z M 47.880859 151.39844 L 47.880859 153.39844 L 83.880859 153.39844 L 83.880859 151.39844 L 47.880859 151.39844 z" transform="matrix(0.45819063,0,0,0.45819064,3.6996106,-61.406059)"/>
    </g>
   </g>
  </g>
 </g>
</svg>
