<svg fill="none" height="256" viewBox="0 0 256 256" width="256" xmlns="http://www.w3.org/2000/svg" xmlns:xlink="http://www.w3.org/1999/xlink">
  <linearGradient id="paint0_linear" gradientUnits="userSpaceOnUse" x1="176.2" x2="80.2" y1="236.696" y2="12.696">
    <stop offset="0" stop-color="#e6e6e6"/>
    <stop offset="1" stop-color="#d3d3d3"/>
  </linearGradient>
  <g fill="#000">
    <path d="m128.2 240.696c61.856 0 112-50.144 112-112 0-61.8559-50.144-112-112-112-61.8559 0-112 50.1441-112 112 0 61.856 50.1441 112 112 112z" opacity=".1"/>
    <path d="m128.2 238.696c61.856 0 112-50.144 112-112 0-61.8559-50.144-112-112-112-61.8559 0-112 50.1441-112 112 0 61.856 50.1441 112 112 112z" opacity=".1"/>
    <path d="m128.2 238.696c62.96 0 114-51.04 114-114 0-62.9605-51.04-114-114-114-62.9605 0-114 51.0395-114 114 0 62.96 51.0395 114 114 114z" opacity=".1"/>
  </g>
  <path d="m128.2 12.696c-61.8559 0-112 50.1441-112 112 0 61.856 50.1441 112 112 112 61.856 0 112-50.144 112-112 0-61.8559-50.144-112-112-112z" fill="url(#paint0_linear)"/>
  <path d="m16.2 134.392c2.5508 27.943 15.4486 53.925 36.1641 72.851s47.7539 29.43 75.8129 29.453c28.068-.011 55.117-10.511 75.842-29.438s33.629-44.915 36.181-72.866z" fill="#fff" opacity=".25"/>
  <path d="m127.796 212.693c48.601 0 88-39.399 88-88 0-48.6011-39.399-88-88-88-48.6014 0-88.0003 39.3989-88.0003 88 0 48.601 39.3989 88 88.0003 88z" fill="#37a6e6"/>
  <path d="m127.796 212.693c48.601 0 88-39.399 88-88 0-48.6011-39.399-88-88-88-56.7959 2.807-59.3516 86.109 0 88 57.704 1.839 62.704 85.807 0 88z" fill="#000" opacity=".4"/>
  <circle cx="128" cy="81" fill="#37a6e6" r="20"/>
  <circle cx="128" cy="170" fill="#000" opacity=".4" r="20"/>
</svg>
