<?xml version="1.0" encoding="UTF-8" standalone="no"?>
<svg
   xmlns:dc="http://purl.org/dc/elements/1.1/"
   xmlns:cc="http://creativecommons.org/ns#"
   xmlns:rdf="http://www.w3.org/1999/02/22-rdf-syntax-ns#"
   xmlns:svg="http://www.w3.org/2000/svg"
   xmlns="http://www.w3.org/2000/svg"
   xmlns:sodipodi="http://sodipodi.sourceforge.net/DTD/sodipodi-0.dtd"
   xmlns:inkscape="http://www.inkscape.org/namespaces/inkscape"
   height="16"
   width="16"
   version="1.1"
   id="svg8"
   sodipodi:docname="insert-image-symbolic.svg"
   inkscape:version="0.92.5 (2060ec1f9f, 2020-04-08)">
  <metadata
     id="metadata14">
    <rdf:RDF>
      <cc:Work
         rdf:about="">
        <dc:format>image/svg+xml</dc:format>
        <dc:type
           rdf:resource="http://purl.org/dc/dcmitype/StillImage" />
      </cc:Work>
    </rdf:RDF>
  </metadata>
  <defs
     id="defs12" />
  <sodipodi:namedview
     pagecolor="#ffffff"
     bordercolor="#666666"
     borderopacity="1"
     objecttolerance="10"
     gridtolerance="10"
     guidetolerance="10"
     inkscape:pageopacity="0"
     inkscape:pageshadow="2"
     inkscape:window-width="1920"
     inkscape:window-height="1016"
     id="namedview10"
     showgrid="false"
     inkscape:zoom="14.75"
     inkscape:cx="8"
     inkscape:cy="8"
     inkscape:window-x="0"
     inkscape:window-y="27"
     inkscape:window-maximized="1"
     inkscape:current-layer="g6" />
  <g
     color="#000"
     fill="gray"
     id="g6">
    <path
       d="m 10.182,12 -4.3639999,10e-4 c 0.304,0.664 0.643,1.34 1.018,2.027 0.376,0.682 0.764,1.34 1.164,1.972 0.392,-0.633 0.776,-1.29 1.152,-1.972 0.375,-0.688 0.718,-1.364 1.0299999,-2.028 z"
       style="overflow:visible;marker:none"
       overflow="visible"
       id="path2"
       inkscape:connector-curvature="0"
       sodipodi:nodetypes="cccccc" />
    <g
       id="layer4"
       style="display:inline"
       transform="matrix(0.74164043,0,0,0.74164043,-229.39144,-118.82051)">
      <path
         d="m 323.5,163 c -0.82843,0 -1.5,0.67157 -1.5,1.5 0,0.82843 0.67157,1.5 1.5,1.5 0.82843,0 1.5,-0.67157 1.5,-1.5 0,-0.82843 -0.67157,-1.5 -1.5,-1.5 z"
         id="path4527-0"
         style="color:#000000;display:inline;overflow:visible;visibility:visible;fill:#808080;fill-opacity:1;fill-rule:nonzero;stroke:none;stroke-width:5.99881363;marker:none;enable-background:accumulate"
         inkscape:connector-curvature="0" />
      <path
         d="m 315.99364,161 c -1.2582,0.0145 -2.17889,-0.0306 -2.93164,0.38477 -0.37637,0.20766 -0.67323,0.55938 -0.83789,0.99804 -0.16467,0.43867 -0.22461,0.95958 -0.22461,1.61719 v 4 4 c 0,0.65761 0.0599,1.17853 0.22461,1.61719 0.16467,0.43865 0.46152,0.79039 0.83789,0.99804 0.75275,0.41532 1.67345,0.3702 2.93164,0.38477 h 0.004 2.00195 4.125 2.00195 0.004 c 1.25819,-0.0146 2.17889,0.0306 2.93164,-0.38477 0.37637,-0.20765 0.67322,-0.55939 0.83789,-0.99804 0.16453,-0.43866 0.38385,-0.9792 0.22443,-1.61719 v -4 -4 c 0,-0.65761 -0.0599,-1.17852 -0.22461,-1.61719 -0.16466,-0.43866 -0.46152,-0.79038 -0.83789,-0.99804 -0.75275,-0.41537 -1.67344,-0.37027 -2.93164,-0.38477 h -0.004 -2.00186 -4.125 -2.00195 z m 2.00586,1 h 4.125 c 2,0 3.48446,-0.0156 4.22656,0.22461 0.98348,0.44721 0.77344,1.77539 0.77344,2.77539 -8.5e-4,2.12317 -0.0362,4.67696 -0.125,7 h -4.875 -4.125 -4.875 c -0.0888,-2.32304 -0.12415,-4.87683 -0.125,-7 0,-1 -0.21004,-2.32818 0.77344,-2.77539 C 314.51513,161.98438 315.9995,162 317.9995,162 Z"
         id="rect4520-6"
         style="color:#000000;display:inline;overflow:visible;visibility:visible;fill:#808080;fill-opacity:1;fill-rule:nonzero;stroke:none;stroke-width:3.99920893;marker:none;enable-background:accumulate"
         inkscape:connector-curvature="0" />
      <path
         d="m 318,165.5 -3,5.5 H 317.71817 323 l -2.5,-4.5 -1,1.5 z"
         id="path4156-2"
         style="color:#000000;display:inline;overflow:visible;visibility:visible;fill:#808080;fill-opacity:1;fill-rule:nonzero;stroke:none;stroke-width:5.99881363;marker:none;enable-background:accumulate"
         inkscape:connector-curvature="0" />
    </g>
  </g>
</svg>
