<svg height="48" viewBox="0 0 12.699375 12.699375" width="48" xmlns="http://www.w3.org/2000/svg" xmlns:xlink="http://www.w3.org/1999/xlink"><linearGradient id="a" gradientUnits="userSpaceOnUse" x1="344" x2="344" y1="62" y2="106"><stop offset="0" stop-color="#fff"/><stop offset=".125" stop-color="#fff" stop-opacity=".098039"/><stop offset=".92500001" stop-color="#fff" stop-opacity=".098039"/><stop offset="1" stop-color="#fff" stop-opacity=".498039"/></linearGradient><clipPath id="b"><path d="m335.73108 62c-8.82418 0-9.77365.90635-9.7304 9.74838v12.25162 12.25162c-.0433 8.84203.90622 9.74838 9.7304 9.74838h16.53919c8.82418 0 9.7304-.90625 9.7304-9.74838v-12.25162-12.25162c0-8.84213-.90622-9.74838-9.7304-9.74838z"/></clipPath><linearGradient id="c" gradientTransform="matrix(0 -.02997086 .02997 0 -3.039509 13.625372)" gradientUnits="userSpaceOnUse" x1="459.03448" x2="35.310345" y1="419.23337" y2="207.36522"><stop offset="0" stop-color="#f2f2f2"/><stop offset="1" stop-color="#f9f9f9"/></linearGradient><path d="m4.1621982.39685643c-.5881821 0-1.0513178.0135407-1.4323995.0775109-.3810845.06396887-.6929229.18395548-.9213477.41184073-.228422.22788554-.3489841.53958344-.4123566.92082874-.0633725.3812456-.0757438.8453924-.07286 1.4349839v3.2399529 3.241503c-.00286.5886854.00955 1.0525974.07286 1.4334334.063373.381246.1839345.692944.4123566.920829.2284247.227885.5402631.347873.9213476.411841.3810844.06397.8442174.07751 1.4323995.07751h4.3757443c.5881821 0 1.0510744-.01352 1.4313677-.07751.3802939-.064.6911799-.18439.9187599-.412357.227584-.227967.347434-.539443.411325-.920313.06389-.380868.07751-.844073.07751-1.4334334v-3.241503-3.241503c0-.5893606-.01363-1.0525644-.07751-1.4334338-.063891-.3808691-.183741-.6923442-.411325-.92031203-.22758-.22796754-.538466-.34836079-.9187598-.41235744-.3802933-.06399691-.8431856-.0775109-1.4313677-.0775109z" opacity=".1"/><path d="m4.1623596.39685643c-2.3346161 0-2.5858177.23979331-2.574375 2.57913197v3.2414149 3.2414149c-.011456 2.3393388.2397589 2.5791318 2.574375 2.5791318h4.3757787c2.3346157 0 2.5743747-.239767 2.5743747-2.5791318v-3.2414149-3.2414149c0-2.33936512-.239759-2.57913197-2.5743747-2.57913197z" fill="none" opacity=".2" stroke="#000" stroke-width=".529141"/><path d="m4.1623596.39685643c-2.3346161 0-2.5858177.23979331-2.574375 2.57913197v3.2414149 3.2414149c-.011456 2.3393388.2397589 2.5791318 2.574375 2.5791318h4.3757787c2.3346157 0 2.5743747-.239767 2.5743747-2.5791318v-3.2414149-3.2414149c0-2.33936512-.239759-2.57913197-2.5743747-2.57913197z" fill="url(#c)"/><path d="m6.879211 8.5985361s-.3491111.00757-.5291406 0c-.5291407 0-.5291407-.7937109-.5291407-1.3228516-.00873-.4648987 0-1.0582812 0-1.0582812.1277902.01906.156623 0 .2645704 0 .7937109 0 .7930944.7238654.7937109 1.3228516h.2645703.2645703v-1.403168-1.5071055h-.2600038-.2598292l-.0002037.3278627c-.0005292.5947435-.1198716.6714112-.7589544.7112108l-.3084308.0192078v-1.8519922h.5291407c.8245386 0 1.3829487.1031337 1.5593695.2062156.5048742.4504056.557193 1.0221457.557193 1.6457766h.5291406v-2.3811328h-5.2914063v.5291406h.4157617c.5919787 0 .6425196.054058.6425196 2.3811328 0 1.0582812.030227 2.3424849-.5291406 2.3811328-.1888768.00931-.5291407 0-.5291407 0v.5291406h3.1748438z" fill="#aea795" stroke-width=".06245"/><path d="m1.5878047 6.2174033v3.241503c-.011456 2.3393377.2397774 2.5790437 2.5743935 2.5790437h4.3757443c2.3346165 0 2.5743935-.239679 2.5743935-2.5790437v-3.241503z" fill="#fff" opacity=".2"/><path d="m6.3500704.39685643v11.64109357h2.1878721c2.3346165 0 2.5743935-.239679 2.5743935-2.5790437v-3.241503-3.241503c0-2.33936512-.239777-2.57904387-2.5743935-2.57904387z" fill="#fff" opacity=".1"/><path clip-path="url(#b)" d="m335.73108 62c-8.82418 0-9.77365.90635-9.7304 9.74838v12.25162 12.25162c-.0433 8.84203.90622 9.74838 9.7304 9.74838h16.53919c8.82418 0 9.7304-.90625 9.7304-9.74838v-12.25162-12.25162c0-8.84213-.90622-9.74838-9.7304-9.74838z" fill="none" opacity=".4" stroke="url(#a)" stroke-width="2" transform="matrix(.26457031 0 0 .26457031 -84.662116 -16.006503)"/></svg>