<svg id="svg20" height="16" width="16" xmlns="http://www.w3.org/2000/svg">
  <g id="g14" stroke-width=".9375" transform="matrix(-1 0 0 1 15.7 -.2)">
    <path id="path2" d="m5.814292 5.7973421-2.0205987.7324633 3.4299398 3.3451941h1.7138672v1.8750005h1.8749997v.9375.9375h.9375.9375v1.713867l.161133.161133h2.651367z" fill="#e8973e"/>
    <path id="path4" d="m6.3256838 3.674316-.5113918 2.1230261 9.685708 9.7026579v-2.651367z" fill="#fdc92b"/>
    <path id="circle6" d="m10.511719.30078125a4.6875 4.6875 0 0 0 -4.6875002 4.68749995 4.6875 4.6875 0 0 0 4.6875002 4.6875 4.6875 4.6875 0 0 0 4.6875-4.6875 4.6875 4.6875 0 0 0 -4.6875-4.68749995zm.9375 1.87499995a1.875 1.875 0 0 1 1.875 1.875 1.875 1.875 0 0 1 -1.875 1.875 1.875 1.875 0 0 1 -1.8750002-1.875 1.875 1.875 0 0 1 1.8750002-1.875z" fill="#fdc92b" transform="matrix(-1 0 0 1 15.7 .2)"/>
    <path id="path10" d="m5.1875003.49999951a4.6875 4.6875 0 0 0 -4.68749999 4.68749999 4.6875 4.6875 0 0 0 .00915469.1849365 4.6875 4.6875 0 0 1 4.6783453-4.40368649 4.6875 4.6875 0 0 1 4.6765134 4.48974609 4.6875 4.6875 0 0 0 .0109866-.2709961 4.6875 4.6875 0 0 0 -4.6875-4.68749999zm4.4787591 6.51672369a4.6875 4.6875 0 0 1 -.1190185.3497314l5.9527591 5.9509284v-.46875z" fill="#fff" opacity=".3"/>
    <path id="path12" d="m.509155 4.903686a4.6875 4.6875 0 0 0 -.009155.2838135 4.6875 4.6875 0 0 0 4.6875 4.6875 4.6875 4.6875 0 0 0 1.7120362-.324097l.3240966.324097h1.7138672v-.46875h-1.7138669l-.3240966-.3240967a4.6875 4.6875 0 0 1 -1.7120362.3240967 4.6875 4.6875 0 0 1 -4.6783453-4.5025635zm9.3566897.08606a4.6875 4.6875 0 0 1 -.3186038 1.4392086l.1190185.1190186a4.6875 4.6875 0 0 0 .2087409-1.3604737 4.6875 4.6875 0 0 0 -.0091556-.1977535zm-.9283444 6.291504v.46875h1.8749997v-.46875zm1.8749997 1.875v.46875h.9375.9375v-.46875h-.9375zm1.875 1.713867v.46875l.161133.161133h2.651367v-.46875h-2.651367z" opacity=".2"/>
  </g>
  <circle id="circle16" cx="11.5" cy="11.5" fill="#40b1f8" r="4.5" transform="matrix(0 1 1 0 0 0)"/>
  <path id="path18" d="m11.5 8.9999998a2.4999935 2.4999935 0 0 0 -2.4999996 2.5000002 2.4999935 2.4999935 0 0 0 .499442 1.495536l.5119976-.511998a1.7857142 1.7857142 0 0 1 -.2971536-.983538 1.7857142 1.7857142 0 0 1 1.7857136-1.7857142 1.7857142 1.7857142 0 0 1 .983538.2971542l.511998-.5119982a2.4999935 2.4999935 0 0 0 -1.495536-.499442zm2.000558 1.0044642-.511998.511998a1.7857142 1.7857142 0 0 1 .297154.983538 1.7857142 1.7857142 0 0 1 -1.785714 1.785714 1.7857142 1.7857142 0 0 1 -.983538-.297154l-.511998.511998a2.4999935 2.4999935 0 0 0 1.495536.499442 2.4999935 2.4999935 0 0 0 2.5-2.5 2.4999935 2.4999935 0 0 0 -.499442-1.495536z" fill="#fff"/>
  <g stroke-width="1.03493">
    <path id="circle833" d="m11.500002 6.9980465a4.5 4.5006102 0 0 0 -4.5000008 4.5019535 4.5 4.5006102 0 0 0 .01172.292969 4.5 4.5006102 0 0 1 4.4882808-4.2949225 4.5 4.5006102 0 0 1 4.488281 4.2089845 4.5 4.5006102 0 0 0 .01172-.207031 4.5 4.5006102 0 0 0 -4.500001-4.5019535z" fill="#fff" opacity=".3"/>
    <path id="path854" d="m11.500002 16a4.5 4.5006102 0 0 0 4.5-4.501953 4.5 4.5006102 0 0 0 -.01172-.292969 4.5 4.5006102 0 0 1 -4.48828 4.294922 4.5 4.5006102 0 0 1 -4.4882818-4.208984 4.5 4.5006102 0 0 0 -.01172.207031 4.5 4.5006102 0 0 0 4.5000018 4.501953z" opacity=".2"/>
  </g>
</svg>
