<svg height="16" width="16" xmlns="http://www.w3.org/2000/svg"><path d="m2.4818585 5.5734292c-.2205597.4302002-.3496032.9014284-.3789978 1.3839786-.1164694 1.9294846 1.3532695 3.5880582 3.2827544 3.7045272 1.6186954.095906 3.0912981-.932639 3.5585188-2.4854031-.7450393.4099496-1.5909885.6004022-2.4398291.5492903-1.865311-.1136375-3.4662678-1.3683064-4.0224463-3.152393zm5.9715028-4.241654c-.6562459.4329698-1.0705885 1.149425-1.1185719 1.9341665-.0831924 1.3782032.9666211 2.5628984 2.3448243 2.646091.7841673.0461024 1.5444073-.2790335 2.0527273-.8779116-1.9270756-.1184778-3.394239-1.7750759-3.2789797-3.7023459z" fill="#e95420"/><path d="m14.892404 1.3691292a.89422201.89422201 0 0 0 -.149273.017313c-6.2834049 1.1672002-11.9685097 5.3808162-12.9094667 12.9527328a.89422201.89422201 0 1 0 1.774047.220674c.844212-6.7933767 5.7241293-10.3511834 11.4599307-11.4166633a.89422201.89422201 0 0 0 -.175238-1.7740509z" fill="#45a925"/><g fill="#1a7fd4" fill-rule="evenodd"><path d="m13.492226.01070758c-1.358789 0-2.492226 1.13343702-2.492226 2.49222652v.00484c0 1.3587889 1.133437 2.4922259 2.492226 2.4922259 1.358788 0 2.492225-1.133437 2.492225-2.4922259v-.00484c0-1.3587895-1.133437-2.49222652-2.492225-2.49222652z"/><path d="m2.492226 11.010648c-1.358789 0-2.492226 1.133437-2.492226 2.492226v.0049c0 1.358788 1.133437 2.492226 2.492226 2.492226s2.492226-1.133438 2.492226-2.492226v-.0049c0-1.358789-1.133437-2.492226-2.492226-2.492226z"/></g></svg>