<svg id="svg8" height="16" viewBox="0 0 4.233125 4.233125" width="16" xmlns="http://www.w3.org/2000/svg">
  <g id="g6" enable-background="new" fill="#c43ac4" stroke-width=".642857" transform="matrix(.30866537 0 0 -.30866537 -113.089284 22.931797)">
    <path id="path2" d="m372.3815 63.150534 5.57144 4.285715-5.57144 4.285713v-2.857142h-5.57142v-2.857143h5.57142z"/>
    <path id="path4" d="m378.3815-71.721962h.857143v8.571428h-.857143z" stroke-width=".55102" transform="scale(1 -1)"/>
  </g>
  <g id="g831" stroke-width=".198428" transform="matrix(-1 0 0 -1 3.682688 4.017881)">
    <path id="path826" d="m-.2858706.57846746v.13228516h.26457031v-.13228516zm2.1165625 0-1.71970703 1.32285164.0857787.066143 1.63392833-1.25670898zm0 .88207324v.1322853h1.719707v-.1322853z" opacity=".2"/>
    <path id="path831" d="m-.28587006 3.2241703v-.132285h.26456943v.132285zm2.11656166 0-1.71970443-1.3228515.0857781-.066142 1.63392633 1.2567089zm0-.882073v-.1322854h1.7197076v.1322854z" fill="#fff" opacity=".3"/>
  </g>
</svg>
