<svg height="16" width="16" xmlns="http://www.w3.org/2000/svg" xmlns:xlink="http://www.w3.org/1999/xlink"><linearGradient id="a" gradientUnits="userSpaceOnUse" x1="624.00006" x2="688" y1="369.23853" y2="369.23853"><stop offset="0" stop-color="#5884f4"/><stop offset=".27800092" stop-color="#5884f4"/><stop offset=".27800092" stop-color="#2f5fdd"/><stop offset=".70735365" stop-color="#2f5fdd"/><stop offset=".70936078" stop-color="#234db8"/><stop offset="1" stop-color="#234db8"/></linearGradient><g enable-background="new" stroke-width="9.714287" transform="matrix(.04974776 .04974776 -.05395526 .05395526 -11.025803 -38.24326)"><path d="m688.00003 319.35584-32 81.13762-31.99999-81.13762v-11.06422h63.99999z" fill="#fee1c2"/><path d="m645.81253 374.67694 10.1875 25.81651 10.1875-25.81651s.77644-2.76606-1.20553-2.76606-3.94669 3.68807-3.94669 3.68807-1.03528-4.61009-5.01377-4.61009c-3.9785 0-5.01378 4.61009-5.01378 4.61009s-2.00773-3.68807-4.00773-3.68807-1.1875 2.76606-1.1875 2.76606z" fill="#5d5d5d"/><path d="m624.00004 319.35583c0-7.37615 17.99999-3.68808 17.99999 7.37614 0-18.44036 28-18.44036 28 0 0-11.06422 18-14.75229 18-7.37614v-185.89981h-63.99999z" fill="url(#a)"/></g></svg>