<svg viewBox="0 0 16 16" xmlns="http://www.w3.org/2000/svg"><path d="m2.9023438 0c-1.95250918.00460459-2.91300257 2.2520502-2.9023438 5.0625.0173382 4.688 2.742472 10.9375 8.0292969 10.9375 5.2001341 0 7.9200221-6.2495 7.9707031-10.9375.03068-2.8120001-.905156-5.0625-2.845703-5.0625-1.451368 0-3.127294.98566423-4.6210939 2.40625a3.3559322 5.4576273 0 0 1 2.7207029 5.3574219 3.3559322 5.4576273 0 0 1 -3.3554685 5.4570311 3.3559322 5.4576273 0 0 1 -3.3554687-5.4570311 3.3559322 5.4576273 0 0 1 2.8808593-5.3984375c-1.4667949-1.39182144-3.0902603-2.36265245-4.515625-2.3652344h-.0039062z" fill="#1a7fd4"/><path d="m2.9023438 0c-1.95250923.00460459-2.91300257 2.2520502-2.9023438 5.0625.00030521.0825244.00778304.1685035.00976563.2519531.04674209-2.6907334.99922007-4.80998801 2.89257817-4.8144531h.0019531.0039062c1.2921906.00234071 2.7422202.8216797 4.0957031 2.0078125a3.3559322 5.4576273 0 0 1 .4199219-.1425781c-1.4667949-1.39182146-3.0902603-2.36265245-4.515625-2.3652344h-.0039062zm10.2519532 0c-1.451368 0-3.127294.98566423-4.6210939 2.40625a3.3559322 5.4576273 0 0 1 .390625.1679688c1.3923539-1.2283405 2.9025989-2.0742188 4.2304689-2.0742188 1.871239 0 2.798901 2.0987162 2.835937 4.7695312.00185-.0684462.009033-.1392149.009766-.2070312.03068-2.8120001-.905156-5.0625-2.845703-5.0625zm-1.908203 7.9902344a3.3559322 5.4576273 0 0 1 -3.3476565 5.2304686 3.3559322 5.4576273 0 0 1 -3.3496094-5.1503905 3.3559322 5.4576273 0 0 0 -.0058593.1933594 3.3559322 5.4576273 0 0 0 3.3554687 5.4570311 3.3559322 5.4576273 0 0 0 3.3554685-5.4570311 3.3559322 5.4576273 0 0 0 -.007812-.2734375z" fill="#fff" opacity=".3"/><path d="m7.0039062 2.0078125a3.3559322 5.4576273 0 0 0 -2.4609374 5.2558594 3.3559322 5.4576273 0 0 0 .0058593.3066406 3.3559322 5.4576273 0 0 1 2.875-5.2050781c-.137045-.1300401-.2804309-.2351782-.4199219-.3574219zm1.9199219.0664063c-.1294958.1142417-.2635159.211152-.390625.3320312a3.3559322 5.4576273 0 0 1 2.7128909 5.0839844 3.3559322 5.4576273 0 0 0 .007812-.2265625 3.3559322 5.4576273 0 0 0 -2.3300779-5.1894531zm7.0664059 2.6953124c-.126017 4.6630964-2.836028 10.7304688-7.9609371 10.7304688-5.1937592 0-7.90888845-6.0284417-8.01953127-10.6855469-.00146029.0840623-.01008854.1629045-.00976563.2480469.0173382 4.688 2.742472 10.9375 8.0292969 10.9375 5.2001341 0 7.9200221-6.2495 7.9707031-10.9375.001096-.1004317-.008394-.1940465-.009766-.2929688z" opacity=".2"/></svg>