<svg height="16" width="16" xmlns="http://www.w3.org/2000/svg"><g fill-rule="evenodd" transform="matrix(0 1 -1 0 18.147653 -206.273827)"><path d="m217.27383 13.147653h4v4h-4z" fill="#b8b8b8"/><path d="m212.27383 13.147653h4v4h-4z" fill="#fda463"/><path d="m207.27383 13.147653h4v4h-4z" fill="#37a6e6"/><path d="m217.27383 8.147653h4v4h-4z" fill="#a7a7f1"/><path d="m212.27383 8.147653h4v4h-4z" fill="#d85eca"/><path d="m207.27383 8.147653h4v4h-4z" fill="#ebebeb"/><path d="m217.27383 3.147653h4v4h-4z" fill="#a6d74f"/><path d="m212.27383 3.147653h4v4h-4z" fill="#fee581"/><path d="m207.27383 3.147653h4v4h-4z" fill="#f76363"/><g transform="matrix(0 -1 1 0 206.273827 18.147653)"><path d="m1 4.5v.5h4v-.5zm5 0v.5h4v-.5zm5 0v.5h4v-.5zm-10 5v.5h4v-.5zm5 0v.5h4v-.5zm5 0v.5h4v-.5zm-10 5v.5h4v-.5zm5 0v.5h4v-.5zm5 0v.5h4v-.5z" opacity=".2"/><path d="m1 1v.5h4v-.5zm5 0v.5h4v-.5zm5 0v.5h4v-.5zm-10 5v.5h4v-.5zm5 0v.5h4v-.5zm5 0v.5h4v-.5zm-10 5v.5h4v-.5zm5 0v.5h4v-.5zm5 0v.5h4v-.5z" fill="#fff" opacity=".3"/></g></g></svg>