<svg id="svg4" height="16" width="16" xmlns="http://www.w3.org/2000/svg">
  <g stroke-width="1.014207">
    <path id="path2" d="m7.4698006 1.0004752c-.6128361.0154393-1.0863408.406774-1.3818422.8451936-.281451.4175733-.4543653.8990439-.6000362 1.4173557-.2927932 1.0417876-.4694674 2.3152931-.6508535 3.6216851-.181467 1.3069742-.3636463 2.6448026-.6117633 3.7180494-.2460715 1.064398-.656899 1.875115-.8208962 2.023646-.2766892.250595-.525875.327186-.5629003.329245-.059358.0033-.036971.000563-.023455.008.013517.0075-.011797-.0024-.072318-.09436-.0807437-.122727-.2426174-.572014-.3009937-1.292852-.0581826-.718447-.0354826-1.7191897.1426797-3.0093715v-.002c.0895274-.5757174-.3094079-1.094195-.773988-1.1784605-.2325751-.0421844-.4897758.0038655-.701671.1606069-.21189504.1567414-.35544282.4229927-.39090293.712693-.38926621 2.8126761-.28444014 4.6245041.48471973 5.7938931.4059866.617238 1.0584266.981002 1.7317003.943566.6373274-.035442 1.1966969-.366282 1.6789285-.803035.8148006-.73796 1.1585298-1.874107 1.4404776-3.09369.2839045-1.2280482.4664751-2.6129961.6469445-3.912785.1804206-1.2994371.3627869-2.5261472.588309-3.3285774.0650329-.2313935.1214306-.3220626.1856789-.4697752.023424.077252.037675.078661.056682.1726524.1300182.6430081.1793643 1.6794008.2149966 2.7022107.035595 1.0216974.052758 2.0387223.2325873 2.8889161.087105.4118118.2164873.8836244.5941726 1.2587564.4502963.447253 1.1072615.47538 1.622246.200759.719579-.383722 1.192803-1.0181452 1.47566-1.6683043.279055-.6414228.399752-1.2995797.488628-1.881108.01086-.071121.01914-.1053796.02932-.17466.01086.025586.01638.042681.02736.068258.235861.549448.489564 1.1132408.877577 1.5739473.190454.226136.473427.4985751.889303.5902304.47765.1052687.920556-.091185 1.231345-.421593l.002-.002c.393545-.4171001.339689-1.0479304.046865-1.4073255-.146657-.1799984-.356051-.3206843-.617627-.34932-.077737-.0085101-.143215.0727101-.222814.0883339-.111666-.1640293-.310993-.5080672-.494493-.9355351-.210744-.4909325-.413582-1.0332078-.607854-1.4815985-.095077-.2194436-.1895-.4282881-.324449-.634397-.05898-.0900799-.168461-.2436098-.338131-.3693959-.133557-.0990127-.272966-.1537354-.44563-.1806827-.172665-.0269474-.383391-.0179359-.590263.0923489-.652903.3480657-.916582 1.0239528-1.055439 1.5799701-.137559.5508142-.190639 1.1127159-.269723 1.6301598-.079106.5175957-.184831.9996946-.3342217 1.3430751-.0447048.1027559-.1265996.1261534-.173952.2047737-.0716439-.5352874-.126558-1.2364188-.1563612-2.0919046-.0357854-1.0272004-.067132-2.1156382-.2579959-3.0595609-.0947661-.4686681-.2296025-.9339095-.5062194-1.3470902-.300317-.4485815-.8027099-.79402614-1.4013872-.7789433z" fill="#1d99f3"/>
    <path id="path817" d="m7.4698006 1.0004752c-.6128362.0154393-1.0863408.406774-1.3818422.8451936-.281451.4175733-.4543653.8990439-.6000362 1.4173557-.2927932 1.0417877-.4694674 2.3152931-.6508535 3.6216851-.181467 1.3069742-.3636462 2.6448029-.6117633 3.7180494-.2460715 1.064398-.656899 1.875115-.8208962 2.023646-.2766892.250595-.525875.327186-.5629003.329245-.059358.0033-.03697.000575-.023454.008.013517.0075-.011797-.0024-.072317-.09436-.080745-.122744-.2426191-.572047-.3009954-1.292884-.019002-.234642-.012577-.548074-.011727-.843187-.023848.526301-.018485.984063.011727 1.357129.058377.720837.2202508 1.17014.3009954 1.292884.06052.092.085834.101864.072317.09436-.013516-.0075-.035904-.0047.023454-.008.037025-.0021.2862111-.07865.5629003-.329245.1639972-.148531.5748247-.959248.8208962-2.023646.248117-1.073245.4302963-2.4110752.6117633-3.7180494.1813861-1.306392.3580603-2.5798975.6508535-3.6216851.1456709-.5183118.3185852-.9997824.6000362-1.4173557.2955014-.4384196.7690061-.8297543 1.3818422-.8451936.5986773-.0150829 1.1010702.3303618 1.4013872.7789433.2766169.4131807.4114532.878422.5062194 1.3470902.1908638.9439226.2222106 2.0323605.2579959 3.0595609.029803.8554858.084717 1.5566172.1563612 2.0919046.047352-.0786208.1292472-.1020175.173952-.2047737.1493907-.3433806.2551157-.8254794.3342217-1.3430751.07908-.5174439.132164-1.0793456.269723-1.6301598.138857-.5560173.402535-1.2319043 1.055439-1.5799701.206872-.1102847.417598-.1192963.590263-.092349.172664.026947.312073.081669.44563.1806828.16967.1257861.279151.279316.338131.3693958.134949.206109.229372.4149535.324449.6343971.194272.4483907.39711.990666.607854 1.4815985.1835.4274679.382827.7715057.494493.9355351.0796-.015624.145077-.096844.222814-.088334.261576.028637.47097.1693223.617627.3493207.09467.1161852.151914.2650644.189588.421593.07901-.3371518.0056-.6959107-.189588-.935535-.146657-.1799984-.356051-.3206842-.617627-.34932-.07774-.00851-.143215.07271-.222814.088334-.111666-.16403-.310993-.5080679-.494493-.9355358-.210744-.4909325-.413582-1.0332077-.607854-1.4815985-.095077-.2194436-.1895-.4282881-.324449-.634397-.05898-.09008-.168461-.2436098-.338131-.3693959-.133557-.0990127-.272966-.1537354-.44563-.1806827-.172665-.0269474-.383392-.0179358-.590263.0923489-.652903.3480658-.916582 1.0239528-1.055439 1.5799701-.137559.5508142-.190639 1.1127159-.269723 1.6301598-.079106.5175957-.184831.9996946-.3342217 1.3430751-.0447048.1027558-.1265995.1261534-.173952.2047737-.0716439-.5352874-.1265579-1.2364187-.1563612-2.0919046-.0357854-1.0272004-.0671321-2.1156383-.2579959-3.0595609-.0947662-.4686682-.2296025-.9339095-.5062194-1.3470902-.300317-.4485815-.80271-.79402614-1.4013872-.7789433zm-5.6563667 6.3861308c-.2325751-.0421844-.4897758.0038655-.701671.1606069-.21189501.1567414-.35544282.4229927-.39090293.712693-.1598572 1.1550616-.23162659 2.1329331-.21304214 2.9752431.01468733-.723277.08453635-1.5327722.21304214-2.4613011.03546012-.2897003.17900792-.5559516.39090293-.712693.2118952-.1567414.4690959-.2027913.701671-.1606069.3663804.066454.6810053.4054671.7583519.8271254.00765-.059049.00731-.1002937.015636-.1606069v-.002c.0895275-.5757206-.3094078-1.094195-.7739879-1.1784605z" fill="#fff" opacity=".3"/>
    <path id="path822" d="m7.4776185 2.8755604c-.0642483.1477126-.120646.2383817-.1856789.4697752-.2255221.8024302-.4078884 2.0291403-.588309 3.3285774-.1804694 1.2997889-.36304 2.6847385-.6469445 3.912785-.2819478 1.219583-.6256769 2.35573-1.4404776 3.09369-.4822316.436753-1.0416011.767593-1.6789285.803035-.6732737.037436-1.3257137-.326328-1.7317003-.943566-.4532944-.689164-.67109155-1.609864-.69776187-2.81865-.0298032 1.467653.18251951 2.549246.69776187 3.332592.4059866.617238 1.0584266.981002 1.7317003.943566.6373274-.03544 1.1966969-.366282 1.6789285-.803035.8148007-.73796 1.1585298-1.874107 1.4404776-3.09369.2839045-1.2280482.4664751-2.6129961.6469445-3.912785.1804205-1.2994371.3627869-2.5261472.588309-3.3285774.0650329-.2313935.1214307-.3220626.1856789-.4697752.023424.077252.037675.078661.056681.1726524.1300182.6430081.1793643 1.6794008.2149966 2.7022107.035595 1.0216974.052758 2.0387223.2325873 2.8889161.087105.4118118.2164873.8836244.5941726 1.2587564.4502962.447253 1.107262.47538 1.622247.200759.719579-.383722 1.192803-1.0181452 1.47566-1.6683043.279055-.6414228.399752-1.2995797.488628-1.881108.01086-.071121.01913-.1053796.02932-.17466.01086.025586.01638.042681.02737.068258.235861.549448.489564 1.1132409.877577 1.5739473.190454.226136.473427.4985751.889303.5902304.477651.1052687.920556-.091185 1.231345-.421593l.002-.002c.266319-.2822569.315358-.6580641.236497-.9857247-.03949.1685176-.105345.332783-.236497.4717827l-.002.002c-.310797.3304081-.753702.5268616-1.231353.4215929-.415876-.0916553-.698849-.3640944-.889303-.5902304-.388013-.4607064-.641716-1.0244993-.877577-1.5739473-.01098-.025577-.0165-.042672-.02737-.068258-.01019.06928-.01845.1035387-.02932.17466-.08887.5815286-.209573 1.2396855-.488628 1.8811083-.282851.6501591-.756075 1.2845831-1.475654 1.6683041-.514983.274621-1.1719488.246494-1.622245-.2007594-.3776853-.3751297-.5070676-.8469442-.5941726-1.258756-.1798298-.8501938-.196993-1.8672187-.2325873-2.8889161-.0356323-1.0228099-.0849784-2.0592026-.2149966-2.7022107-.0190056-.0939915-.0332574-.0954008-.056681-.1726524zm-4.9058327 5.338171c-.1026403.791553-.1371387 1.4393304-.1387707 2.0055776.0220783-.4872448.0687583-1.0320091.1544068-1.6522425v-.002c.018924-.1216936.0051-.238315-.015636-.3513308z" opacity=".2"/>
  </g>
</svg>
