<svg height="16" width="16" xmlns="http://www.w3.org/2000/svg"><g fill="#1a7fd4" stroke="#fff"><circle cx="2.17007" cy="1.84668" r="1.34059" stroke-width=".334413"/><circle cx="11.03179" cy="1.8468" r="1.321924" stroke-width=".329757"/><circle cx="13.98532" cy="4.87407" r="1.312608" stroke-width=".327433"/><circle cx="13.98522" cy="7.90139" r="1.209917" stroke-width=".301816"/><circle cx="5.1058" cy="1.84666" r="1.321917" stroke-width=".329755"/><circle cx="13.98526" cy="1.84668" r="1.34059" stroke-width=".334413"/><circle cx="2.17007" cy="7.90141" r="1.21573" stroke-width=".303266"/><circle cx="2.16995" cy="10.92875" r="1.317535" stroke-width=".328662"/><circle cx="8.07766" cy="1.84666" r="1.236088" stroke-width=".308345"/><circle cx="2.17019" cy="4.87408" r="1.314038" stroke-width=".32779"/><circle cx="11.03137" cy="13.95608" r="1.325056" stroke-width=".330538"/><circle cx="13.98538" cy="10.92881" r="1.314198" stroke-width=".32783"/><circle cx="2.17007" cy="13.95614" r="1.34059" stroke-width=".334413"/><circle cx="5.12374" cy="13.95605" r="1.326888" stroke-width=".330995"/><circle cx="8.07788" cy="13.9562" r="1.247043" stroke-width=".311078"/><circle cx="13.98526" cy="13.95614" r="1.34059" stroke-width=".334413"/><g opacity=".6"><circle cx="11.03137" cy="10.92747" r="1.325056" stroke-width=".330538"/><circle cx="5.12374" cy="10.92744" r="1.326888" stroke-width=".330995"/><circle cx="8.07788" cy="10.92759" r="1.247043" stroke-width=".311078"/><circle cx="11.03137" cy="4.81616" r="1.325056" stroke-width=".330538"/><circle cx="5.12374" cy="4.81613" r="1.326888" stroke-width=".330995"/><circle cx="8.07788" cy="4.81628" r="1.247043" stroke-width=".311078"/><circle cx="11.03137" cy="7.82675" r="1.325056" stroke-width=".330538"/><circle cx="5.12374" cy="7.82672" r="1.326888" stroke-width=".330995"/><circle cx="8.07788" cy="7.82687" r="1.247043" stroke-width=".311078"/></g></g></svg>