<svg height="16" width="16" xmlns="http://www.w3.org/2000/svg"><g fill="#1a7fd4" stroke-width=".613872"><path d="m-21.614642 186.59306c3.11679.0255 2.6059-2.218 7.25315-2.1897 4.6472498.0282 3.22096 2.254 7.1609298 2.1897v2.6007c-3.5454698 0-4.2971698-3.4257-7.1667398-3.4281-3.18827-.003-3.78523 3.4281-7.24734 3.4281z" transform="translate(22.319652 -175.500696)"/><path d="m-21.614642 186.59306c3.11679.0255 2.6059-2.218 7.25315-2.1897 4.6472498.0282 3.22096 2.254 7.1609298 2.1897v2.6007c-3.5454698 0-4.2971698-3.4257-7.1667398-3.4281-3.18827-.003-3.78523 3.4281-7.24734 3.4281z" transform="matrix(-1 0 0 -1 -6.495554 192.06226)"/></g></svg>