<svg id="svg16" height="16" width="16" xmlns="http://www.w3.org/2000/svg">
  <g id="g14" stroke-width="1.499998">
    <path id="path2" d="m7.9999933.00002023c-4.40939 0-7.99998999 3.59058997-7.99998999 7.99998977 0 4.40939 3.59059999 7.99999 7.99998999 7.99999 4.4093997 0 7.9999897-3.5906 7.9999897-7.99999 0-4.4093998-3.59059-7.99998977-7.9999897-7.99998977z" fill="#c7162b" stroke-dashoffset=".8"/>
    <g id="g12" fill="none">
      <path id="path4" d="m.000014.00001h15.999983v15.999983h-15.999983z" stroke-dasharray="1.499998 1.499998" stroke-dashoffset=".6"/>
      <g id="g10" enable-background="new" stroke="#fff" stroke-dashoffset=".8" transform="translate(-320.00001 -235.99999)">
        <path id="path6" d="m325.00002 241 5.99999 5.99999"/>
        <path id="path8" d="m331.00001 241-5.99999 5.99999"/>
      </g>
    </g>
    <path id="path843" d="m8 0c-4.40939 0-8 3.5906002-8 8 0 .084376.00910864.166243.01171875.25.13379101-4.293291 3.66326725-7.75 7.98828125-7.75 4.325024 0 7.854491 3.456709 7.988281 7.75.00261-.083757.011719-.165624.011719-.25 0-4.4093998-3.5906-8-8-8z" fill="#fff" opacity=".3"/>
    <path id="path848" d="m8 16c4.40939 0 8-3.5906 8-8 0-.08438-.0091-.166243-.01172-.25-.13379 4.293291-3.663266 7.75-7.98828 7.75-4.325024 0-7.854491-3.456709-7.988281-7.75-.00261.08376-.011719.165624-.011719.25 0 4.4094 3.5906 8 8 8z" opacity=".2"/>
  </g>
</svg>
