<?xml version="1.0" encoding="UTF-8" standalone="no"?>
<svg
   xmlns:dc="http://purl.org/dc/elements/1.1/"
   xmlns:cc="http://creativecommons.org/ns#"
   xmlns:rdf="http://www.w3.org/1999/02/22-rdf-syntax-ns#"
   xmlns:svg="http://www.w3.org/2000/svg"
   xmlns="http://www.w3.org/2000/svg"
   xmlns:xlink="http://www.w3.org/1999/xlink"
   xmlns:sodipodi="http://sodipodi.sourceforge.net/DTD/sodipodi-0.dtd"
   xmlns:inkscape="http://www.inkscape.org/namespaces/inkscape"
   width="256"
   height="256"
   version="1.1"
   viewBox="0 0 67.73 67.73"
   id="svg194"
   sodipodi:docname="palette yaru.svg"
   inkscape:version="0.92.4 (5da689c313, 2019-01-14)">
  <metadata
     id="metadata198">
    <rdf:RDF>
      <cc:Work
         rdf:about="">
        <dc:format>image/svg+xml</dc:format>
        <dc:type
           rdf:resource="http://purl.org/dc/dcmitype/StillImage" />
        <dc:title></dc:title>
      </cc:Work>
    </rdf:RDF>
  </metadata>
  <sodipodi:namedview
     pagecolor="#ffffff"
     bordercolor="#666666"
     borderopacity="1"
     objecttolerance="10"
     gridtolerance="10"
     guidetolerance="10"
     inkscape:pageopacity="0"
     inkscape:pageshadow="2"
     inkscape:window-width="1920"
     inkscape:window-height="1016"
     id="namedview196"
     showgrid="true"
     inkscape:zoom="3.2617188"
     inkscape:cx="69.748504"
     inkscape:cy="140.26347"
     inkscape:window-x="0"
     inkscape:window-y="27"
     inkscape:window-maximized="1"
     inkscape:current-layer="g191">
    <inkscape:grid
       type="xygrid"
       id="grid1549" />
  </sodipodi:namedview>
  <defs
     id="defs177">
    <clipPath
       id="clipPath1025"
       clipPathUnits="userSpaceOnUse">
      <path
         d="M 111.94141,84 C 99.359506,84.145 90.1531,83.713998 82.625,87.867188 c -3.7641,2.0768 -6.751838,5.574737 -8.398438,9.960937 C 72.580062,102.21433 72,107.4241 72,114 v 42 h 160 v -26 c 0,-6.5759 -0.57996,-11.78566 -2.22656,-16.17188 -0.205,-0.5455 -0.47919,-1.03993 -0.74219,-1.54296 -0.1,-0.1848 -0.17844,-0.38051 -0.27344,-0.56641 -1.727,-3.38752 -4.25471,-6.14522 -7.38281,-7.87109 C 213.8463,99.694146 204.64049,100.1454 192.05859,100 H 192 151.66797 L 135.45312,84 h -23.49218 z"
         style="fill:#e3dfd5"
         id="path2" />
    </clipPath>
    <clipPath
       id="clipPath1082-3"
       clipPathUnits="userSpaceOnUse">
      <path
         d="M 361.9375,-212 C 507.2348,-212 528,-191.28677 528,-46.125 V 70.125 C 528,215.28618 507.2348,236 361.9375,236 H 214.0625 C 68.7652,236 48,215.28618 48,70.125 V -46.125 C 48,-191.28677 68.7652,-212 214.0625,-212 Z"
         style="fill:#8c59d9"
         id="path5" />
    </clipPath>
    <clipPath
       id="clipPath1082-3-5"
       clipPathUnits="userSpaceOnUse">
      <path
         d="M 361.9375,-212 C 507.2348,-212 528,-191.28677 528,-46.125 V 70.125 C 528,215.28618 507.2348,236 361.9375,236 H 214.0625 C 68.7652,236 48,215.28618 48,70.125 V -46.125 C 48,-191.28677 68.7652,-212 214.0625,-212 Z"
         style="fill:#8c59d9"
         id="path8" />
    </clipPath>
    <clipPath
       id="clipPath1082-3-9"
       clipPathUnits="userSpaceOnUse">
      <path
         d="M 361.9375,-212 C 507.2348,-212 528,-191.28677 528,-46.125 V 70.125 C 528,215.28618 507.2348,236 361.9375,236 H 214.0625 C 68.7652,236 48,215.28618 48,70.125 V -46.125 C 48,-191.28677 68.7652,-212 214.0625,-212 Z"
         style="fill:#8c59d9"
         id="path11" />
    </clipPath>
    <clipPath
       id="clipPath1082-3-3"
       clipPathUnits="userSpaceOnUse">
      <path
         d="M 361.9375,-212 C 507.2348,-212 528,-191.28677 528,-46.125 V 70.125 C 528,215.28618 507.2348,236 361.9375,236 H 214.0625 C 68.7652,236 48,215.28618 48,70.125 V -46.125 C 48,-191.28677 68.7652,-212 214.0625,-212 Z"
         style="fill:#8c59d9"
         id="path14" />
    </clipPath>
    <clipPath
       id="clipPath1082-3-53"
       clipPathUnits="userSpaceOnUse">
      <path
         d="M 361.9375,-212 C 507.2348,-212 528,-191.28677 528,-46.125 V 70.125 C 528,215.28618 507.2348,236 361.9375,236 H 214.0625 C 68.7652,236 48,215.28618 48,70.125 V -46.125 C 48,-191.28677 68.7652,-212 214.0625,-212 Z"
         style="fill:#8c59d9"
         id="path17" />
    </clipPath>
    <clipPath
       id="clipPath1082-3-6"
       clipPathUnits="userSpaceOnUse">
      <path
         d="M 361.9375,-212 C 507.2348,-212 528,-191.28677 528,-46.125 V 70.125 C 528,215.28618 507.2348,236 361.9375,236 H 214.0625 C 68.7652,236 48,215.28618 48,70.125 V -46.125 C 48,-191.28677 68.7652,-212 214.0625,-212 Z"
         style="fill:#8c59d9"
         id="path20" />
    </clipPath>
    <clipPath
       id="clipPath1082-3-91"
       clipPathUnits="userSpaceOnUse">
      <path
         d="M 361.9375,-212 C 507.2348,-212 528,-191.28677 528,-46.125 V 70.125 C 528,215.28618 507.2348,236 361.9375,236 H 214.0625 C 68.7652,236 48,215.28618 48,70.125 V -46.125 C 48,-191.28677 68.7652,-212 214.0625,-212 Z"
         style="fill:#8c59d9"
         id="path23" />
    </clipPath>
    <clipPath
       id="clipPath1025-0"
       clipPathUnits="userSpaceOnUse">
      <path
         style="fill:#8c59d9"
         d="M 329.9375,32 C 475.2348,32 496,52.71323 496,197.875 v 116.25 C 496,459.28618 475.2348,480 329.9375,480 H 182.0625 C 36.7652,480 16,459.28618 16,314.125 V 197.875 C 16,52.71323 36.7652,32 182.0625,32 Z"
         id="path26" />
    </clipPath>
    <clipPath
       id="clipPath4277-8"
       clipPathUnits="userSpaceOnUse">
      <rect
         style="opacity:0.81999972;fill:#88b637"
         width="512"
         height="512"
         x="0"
         y="0"
         ry="1"
         id="rect29" />
    </clipPath>
    <linearGradient
       id="linearGradient3650-7-9">
      <stop
         style="stop-color:#5884f4"
         id="stop4366"
         offset="0" />
      <stop
         id="stop4368"
         offset="1"
         style="stop-color:#80a3fa" />
    </linearGradient>
    <clipPath
       id="clipPath1082-3-36"
       clipPathUnits="userSpaceOnUse">
      <path
         d="M 361.9375,-212 C 507.2348,-212 528,-191.28677 528,-46.125 V 70.125 C 528,215.28618 507.2348,236 361.9375,236 H 214.0625 C 68.7652,236 48,215.28618 48,70.125 V -46.125 C 48,-191.28677 68.7652,-212 214.0625,-212 Z"
         style="fill:#8c59d9"
         id="path35" />
    </clipPath>
    <clipPath
       id="clipPath983"
       clipPathUnits="userSpaceOnUse">
      <path
         d="M 115.03125,44 C 42.3826,44 32,54.356615 32,126.9375 v 58.125 C 32,257.64309 42.3826,268 115.03125,268 H 152 V 44 Z"
         style="fill:#4d4d4d"
         id="path38" />
    </clipPath>
    <clipPath
       id="clipPath1082-3-62"
       clipPathUnits="userSpaceOnUse">
      <path
         d="M 361.9375,-212 C 507.2348,-212 528,-191.28677 528,-46.125 V 70.125 C 528,215.28618 507.2348,236 361.9375,236 H 214.0625 C 68.7652,236 48,215.28618 48,70.125 V -46.125 C 48,-191.28677 68.7652,-212 214.0625,-212 Z"
         style="fill:#8c59d9"
         id="path41" />
    </clipPath>
    <clipPath
       id="clipPath949"
       clipPathUnits="userSpaceOnUse">
      <path
         d="M 329.9375,32 C 475.2348,32 496,52.71323 496,197.875 v 116.25 C 496,459.28618 475.2348,480 329.9375,480 H 182.0625 C 36.7652,480 16,459.28618 16,314.125 V 197.875 C 16,52.71323 36.7652,32 182.0625,32 Z"
         style="fill:#eab305"
         id="path44" />
    </clipPath>
    <clipPath
       id="clipPath954"
       clipPathUnits="userSpaceOnUse">
      <path
         d="M 329.9375,32 C 475.2348,32 496,52.71323 496,197.875 v 116.25 C 496,459.28618 475.2348,480 329.9375,480 H 182.0625 C 36.7652,480 16,459.28618 16,314.125 V 197.875 C 16,52.71323 36.7652,32 182.0625,32 Z"
         style="fill:#eab305"
         id="path47" />
    </clipPath>
    <clipPath
       id="clipPath1082-3-8"
       clipPathUnits="userSpaceOnUse">
      <path
         d="M 361.9375,-212 C 507.2348,-212 528,-191.28677 528,-46.125 V 70.125 C 528,215.28618 507.2348,236 361.9375,236 H 214.0625 C 68.7652,236 48,215.28618 48,70.125 V -46.125 C 48,-191.28677 68.7652,-212 214.0625,-212 Z"
         style="fill:#8c59d9"
         id="path50" />
    </clipPath>
    <clipPath
       id="clipPath1082-3-92"
       clipPathUnits="userSpaceOnUse">
      <path
         d="M 361.9375,-212 C 507.2348,-212 528,-191.28677 528,-46.125 V 70.125 C 528,215.28618 507.2348,236 361.9375,236 H 214.0625 C 68.7652,236 48,215.28618 48,70.125 V -46.125 C 48,-191.28677 68.7652,-212 214.0625,-212 Z"
         style="fill:#8c59d9"
         id="path53" />
    </clipPath>
    <clipPath
       id="clipPath1082"
       clipPathUnits="userSpaceOnUse">
      <path
         d="M 361.9375,-212 C 507.2348,-212 528,-191.28677 528,-46.125 V 70.125 C 528,215.28618 507.2348,236 361.9375,236 H 214.0625 C 68.7652,236 48,215.28618 48,70.125 V -46.125 C 48,-191.28677 68.7652,-212 214.0625,-212 Z"
         style="fill:#8c59d9"
         id="path56" />
    </clipPath>
    <clipPath
       id="clipPath1082-3-361"
       clipPathUnits="userSpaceOnUse">
      <path
         d="M 361.9375,-212 C 507.2348,-212 528,-191.28677 528,-46.125 V 70.125 C 528,215.28618 507.2348,236 361.9375,236 H 214.0625 C 68.7652,236 48,215.28618 48,70.125 V -46.125 C 48,-191.28677 68.7652,-212 214.0625,-212 Z"
         style="fill:#8c59d9"
         id="path59" />
    </clipPath>
    <clipPath
       id="clipPath1079"
       clipPathUnits="userSpaceOnUse">
      <circle
         style="fill:url(#linearGradient1083)"
         cx="213.843"
         cy="146"
         r="55"
         transform="scale(-1,1)"
         id="circle62" />
    </clipPath>
    <clipPath
       id="clipPath984"
       clipPathUnits="userSpaceOnUse">
      <circle
         style="fill:url(#linearGradient1083)"
         cx="213.843"
         cy="146"
         r="55"
         transform="scale(-1,1)"
         id="circle65" />
    </clipPath>
    <clipPath
       id="clipPath988"
       clipPathUnits="userSpaceOnUse">
      <circle
         style="fill:url(#linearGradient1083)"
         cx="213.843"
         cy="146"
         r="55"
         transform="scale(-1,1)"
         id="circle68" />
    </clipPath>
    <clipPath
       id="clipPath992"
       clipPathUnits="userSpaceOnUse">
      <circle
         style="fill:url(#linearGradient1083)"
         cx="213.843"
         cy="146"
         r="55"
         transform="scale(-1,1)"
         id="circle71" />
    </clipPath>
    <clipPath
       id="clipPath1082-3-31"
       clipPathUnits="userSpaceOnUse">
      <path
         d="M 361.9375,-212 C 507.2348,-212 528,-191.28677 528,-46.125 V 70.125 C 528,215.28618 507.2348,236 361.9375,236 H 214.0625 C 68.7652,236 48,215.28618 48,70.125 V -46.125 C 48,-191.28677 68.7652,-212 214.0625,-212 Z"
         style="fill:#8c59d9"
         id="path74" />
    </clipPath>
    <clipPath
       id="clipPath1205"
       clipPathUnits="userSpaceOnUse">
      <path
         d="M 115.03125,44 C 42.3826,44 32,54.356615 32,126.9375 v 58.125 c 0,13.772 0.379014,25.29352 1.482422,34.9375 H 270.51758 C 271.62099,210.35602 272,198.8345 272,185.0625 v -58.125 C 272,54.356615 261.6174,44 188.96875,44 Z"
         style="fill:#f1f0e9"
         id="path77" />
    </clipPath>
    <clipPath
       id="clipPath1082-3-4"
       clipPathUnits="userSpaceOnUse">
      <path
         d="M 361.9375,-212 C 507.2348,-212 528,-191.28677 528,-46.125 V 70.125 C 528,215.28618 507.2348,236 361.9375,236 H 214.0625 C 68.7652,236 48,215.28618 48,70.125 V -46.125 C 48,-191.28677 68.7652,-212 214.0625,-212 Z"
         style="fill:#8c59d9"
         id="path80" />
    </clipPath>
    <clipPath
       id="clipPath1082-3-45"
       clipPathUnits="userSpaceOnUse">
      <path
         d="M 361.9375,-212 C 507.2348,-212 528,-191.28677 528,-46.125 V 70.125 C 528,215.28618 507.2348,236 361.9375,236 H 214.0625 C 68.7652,236 48,215.28618 48,70.125 V -46.125 C 48,-191.28677 68.7652,-212 214.0625,-212 Z"
         style="fill:#8c59d9"
         id="path83" />
    </clipPath>
    <clipPath
       id="clipPath1082-3-61"
       clipPathUnits="userSpaceOnUse">
      <path
         d="M 361.9375,-212 C 507.2348,-212 528,-191.28677 528,-46.125 V 70.125 C 528,215.28618 507.2348,236 361.9375,236 H 214.0625 C 68.7652,236 48,215.28618 48,70.125 V -46.125 C 48,-191.28677 68.7652,-212 214.0625,-212 Z"
         style="fill:#8c59d9"
         id="path86" />
    </clipPath>
    <clipPath
       id="clipPath1064"
       clipPathUnits="userSpaceOnUse">
      <path
         style="fill:#a3dbf0"
         d="M 115.03125,44 C 42.3826,44 32,54.356615 32,126.9375 v 58.125 c 0,10.16582 0.217657,19.07051 0.767578,26.9375 3.376331,48.30069 19.790377,56 82.263672,56 h 73.9375 c 62.4733,0 78.88734,-7.69931 82.26367,-56 C 271.78234,204.13301 272,195.22832 272,185.0625 v -58.125 C 272,54.356615 261.6174,44 188.96875,44 Z"
         id="path89" />
    </clipPath>
    <clipPath
       id="clipPath1082-3-32"
       clipPathUnits="userSpaceOnUse">
      <path
         d="M 361.9375,-212 C 507.2348,-212 528,-191.28677 528,-46.125 V 70.125 C 528,215.28618 507.2348,236 361.9375,236 H 214.0625 C 68.7652,236 48,215.28618 48,70.125 V -46.125 C 48,-191.28677 68.7652,-212 214.0625,-212 Z"
         style="fill:#8c59d9"
         id="path92" />
    </clipPath>
    <clipPath
       id="clipPath947"
       clipPathUnits="userSpaceOnUse">
      <path
         d="m 191.43333,45.066672 c 77.49189,0 88.56666,11.047056 88.56666,88.466668 v 62 C 279.99999,272.95263 268.92522,284 191.43333,284 H 112.56666 C 35.074773,284 23.999999,272.95263 23.999999,195.53334 v -62 c 0,-77.419612 11.074774,-88.466668 88.566661,-88.466668 z"
         style="fill:#a4c1f9"
         id="path95" />
    </clipPath>
    <clipPath
       id="clipPath1082-3-55"
       clipPathUnits="userSpaceOnUse">
      <path
         d="M 361.9375,-212 C 507.2348,-212 528,-191.28677 528,-46.125 V 70.125 C 528,215.28618 507.2348,236 361.9375,236 H 214.0625 C 68.7652,236 48,215.28618 48,70.125 V -46.125 C 48,-191.28677 68.7652,-212 214.0625,-212 Z"
         style="fill:#8c59d9"
         id="path98" />
    </clipPath>
    <clipPath
       id="clipPath991"
       clipPathUnits="userSpaceOnUse">
      <path
         d="M 188.96875,44 C 261.6174,44 272,54.356615 272,126.9375 v 58.125 C 272,257.64309 261.6174,268 188.96875,268 h -73.9375 C 42.3826,268 32,257.64309 32,185.0625 v -58.125 C 32,54.356615 42.3826,44 115.03125,44 Z"
         style="fill:#6dc7f1"
         id="path101" />
    </clipPath>
    <clipPath
       id="clipPath978"
       clipPathUnits="userSpaceOnUse">
      <path
         d="M 188.96875,44 C 261.6174,44 272,54.356615 272,126.9375 v 58.125 C 272,257.64309 261.6174,268 188.96875,268 h -73.9375 C 42.3826,268 32,257.64309 32,185.0625 v -58.125 C 32,54.356615 42.3826,44 115.03125,44 Z"
         style="fill:#6dc7f1"
         id="path104" />
    </clipPath>
    <clipPath
       id="clipPath942"
       clipPathUnits="userSpaceOnUse">
      <path
         d="M 188.96875,44 C 261.6174,44 272,54.356615 272,126.9375 v 58.125 C 272,257.64309 261.6174,268 188.96875,268 h -73.9375 C 42.3826,268 32,257.64309 32,185.0625 v -58.125 C 32,54.356615 42.3826,44 115.03125,44 Z"
         style="fill:#46a926"
         id="path107" />
    </clipPath>
    <clipPath
       id="clipPath1082-3-7"
       clipPathUnits="userSpaceOnUse">
      <path
         d="M 361.9375,-212 C 507.2348,-212 528,-191.28677 528,-46.125 V 70.125 C 528,215.28618 507.2348,236 361.9375,236 H 214.0625 C 68.7652,236 48,215.28618 48,70.125 V -46.125 C 48,-191.28677 68.7652,-212 214.0625,-212 Z"
         style="fill:#8c59d9"
         id="path110" />
    </clipPath>
    <radialGradient
       id="radialGradient3322"
       cx="26.617"
       cy="-2.065"
       r="23"
       gradientTransform="matrix(-4.8906e-8,-2.8515,3.7557,0,674.00149,398.26285)"
       gradientUnits="userSpaceOnUse">
      <stop
         id="stop2749"
         offset="0"
         style="stop-color:#d280b9" />
      <stop
         style="stop-color:#b549b5"
         id="stop4269"
         offset=".529" />
      <stop
         id="stop2755"
         offset="1"
         style="stop-color:#8940a8" />
    </radialGradient>
    <clipPath
       id="clipPath1082-3-69"
       clipPathUnits="userSpaceOnUse">
      <path
         d="M 361.9375,-212 C 507.2348,-212 528,-191.28677 528,-46.125 V 70.125 C 528,215.28618 507.2348,236 361.9375,236 H 214.0625 C 68.7652,236 48,215.28618 48,70.125 V -46.125 C 48,-191.28677 68.7652,-212 214.0625,-212 Z"
         style="fill:#8c59d9"
         id="path117" />
    </clipPath>
    <clipPath
       id="clipPath1082-3-452"
       clipPathUnits="userSpaceOnUse">
      <path
         d="M 361.9375,-212 C 507.2348,-212 528,-191.28677 528,-46.125 V 70.125 C 528,215.28618 507.2348,236 361.9375,236 H 214.0625 C 68.7652,236 48,215.28618 48,70.125 V -46.125 C 48,-191.28677 68.7652,-212 214.0625,-212 Z"
         style="fill:#8c59d9"
         id="path120" />
    </clipPath>
    <clipPath
       id="clipPath1082-3-74"
       clipPathUnits="userSpaceOnUse">
      <path
         d="M 361.9375,-212 C 507.2348,-212 528,-191.28677 528,-46.125 V 70.125 C 528,215.28618 507.2348,236 361.9375,236 H 214.0625 C 68.7652,236 48,215.28618 48,70.125 V -46.125 C 48,-191.28677 68.7652,-212 214.0625,-212 Z"
         style="fill:#8c59d9"
         id="path123" />
    </clipPath>
    <clipPath
       id="clipPath1032"
       clipPathUnits="userSpaceOnUse">
      <path
         d="M 188.96875,44 C 261.6174,44 272,54.356615 272,126.9375 v 58.125 C 272,257.64309 261.6174,268 188.96875,268 h -73.9375 C 42.3826,268 32,257.64309 32,185.0625 v -58.125 C 32,54.356615 42.3826,44 115.03125,44 Z"
         style="fill:#76c22b"
         id="path126" />
    </clipPath>
    <clipPath
       id="clipPath1082-3-0"
       clipPathUnits="userSpaceOnUse">
      <path
         d="M 361.9375,-212 C 507.2348,-212 528,-191.28677 528,-46.125 V 70.125 C 528,215.28618 507.2348,236 361.9375,236 H 214.0625 C 68.7652,236 48,215.28618 48,70.125 V -46.125 C 48,-191.28677 68.7652,-212 214.0625,-212 Z"
         style="fill:#8c59d9"
         id="path129" />
    </clipPath>
    <clipPath
       id="clipPath1082-3-89"
       clipPathUnits="userSpaceOnUse">
      <path
         d="M 361.9375,-212 C 507.2348,-212 528,-191.28677 528,-46.125 V 70.125 C 528,215.28618 507.2348,236 361.9375,236 H 214.0625 C 68.7652,236 48,215.28618 48,70.125 V -46.125 C 48,-191.28677 68.7652,-212 214.0625,-212 Z"
         style="fill:#8c59d9"
         id="path132" />
    </clipPath>
    <clipPath
       id="clipPath951"
       clipPathUnits="userSpaceOnUse">
      <path
         style="fill:#8c59d9"
         d="M 188.96875,44 C 261.6174,44 272,54.356615 272,126.9375 v 58.125 C 272,257.64309 261.6174,268 188.96875,268 h -73.9375 C 42.3826,268 32,257.64309 32,185.0625 v -58.125 C 32,54.356615 42.3826,44 115.03125,44 Z"
         id="path135" />
    </clipPath>
    <clipPath
       id="clipPath1082-3-64"
       clipPathUnits="userSpaceOnUse">
      <path
         d="M 361.9375,-212 C 507.2348,-212 528,-191.28677 528,-46.125 V 70.125 C 528,215.28618 507.2348,236 361.9375,236 H 214.0625 C 68.7652,236 48,215.28618 48,70.125 V -46.125 C 48,-191.28677 68.7652,-212 214.0625,-212 Z"
         style="fill:#8c59d9"
         id="path138" />
    </clipPath>
    <clipPath
       id="clipPath1082-3-04"
       clipPathUnits="userSpaceOnUse">
      <path
         d="M 361.9375,-212 C 507.2348,-212 528,-191.28677 528,-46.125 V 70.125 C 528,215.28618 507.2348,236 361.9375,236 H 214.0625 C 68.7652,236 48,215.28618 48,70.125 V -46.125 C 48,-191.28677 68.7652,-212 214.0625,-212 Z"
         style="fill:#8c59d9"
         id="path141" />
    </clipPath>
    <clipPath
       id="clipPath1082-3-367"
       clipPathUnits="userSpaceOnUse">
      <path
         d="M 361.9375,-212 C 507.2348,-212 528,-191.28677 528,-46.125 V 70.125 C 528,215.28618 507.2348,236 361.9375,236 H 214.0625 C 68.7652,236 48,215.28618 48,70.125 V -46.125 C 48,-191.28677 68.7652,-212 214.0625,-212 Z"
         style="fill:#8c59d9"
         id="path144" />
    </clipPath>
    <linearGradient
       id="linearGradient4336-3">
      <stop
         style="stop-color:#5884f4"
         id="stop4338-8"
         offset="0" />
      <stop
         id="stop4344-3"
         offset=".278"
         style="stop-color:#5884f4" />
      <stop
         style="stop-color:#2f5fdd"
         id="stop4346-3"
         offset=".278" />
      <stop
         id="stop4350-1"
         offset=".707"
         style="stop-color:#2f5fdd" />
      <stop
         id="stop4348-6"
         offset=".709"
         style="stop-color:#234db8" />
      <stop
         style="stop-color:#234db8"
         id="stop4340-0"
         offset="1" />
    </linearGradient>
    <clipPath
       id="clipPath1082-3-56"
       clipPathUnits="userSpaceOnUse">
      <path
         d="M 361.9375,-212 C 507.2348,-212 528,-191.28677 528,-46.125 V 70.125 C 528,215.28618 507.2348,236 361.9375,236 H 214.0625 C 68.7652,236 48,215.28618 48,70.125 V -46.125 C 48,-191.28677 68.7652,-212 214.0625,-212 Z"
         style="fill:#8c59d9"
         id="path154" />
    </clipPath>
    <linearGradient
       id="linearGradient3797-5">
      <stop
         id="stop3801"
         offset="0"
         style="stop-color:#f7f7f7" />
      <stop
         id="stop3799"
         offset="1"
         style="stop-color:#e6e6e6" />
    </linearGradient>
    <clipPath
       id="clipPath1082-3-3675"
       clipPathUnits="userSpaceOnUse">
      <path
         d="M 361.9375,-212 C 507.2348,-212 528,-191.28677 528,-46.125 V 70.125 C 528,215.28618 507.2348,236 361.9375,236 H 214.0625 C 68.7652,236 48,215.28618 48,70.125 V -46.125 C 48,-191.28677 68.7652,-212 214.0625,-212 Z"
         style="fill:#8c59d9"
         id="path160" />
    </clipPath>
    <clipPath
       id="clipPath977"
       clipPathUnits="userSpaceOnUse">
      <path
         d="M 78.994141,52 C 43.625611,52 40,53.999146 40,89.296875 V 140 H 264 V 108.92188 C 264,73.624145 260.37439,68 225.00586,68 H 138 L 122,52 Z"
         style="fill:#f6531e"
         id="path163" />
    </clipPath>
    <clipPath
       id="clipPath942-3"
       clipPathUnits="userSpaceOnUse">
      <path
         d="m 39.998047,108 v 113.08203 c 0,35.29672 3.623657,38.91992 38.992187,38.91992 h 73.007816 73.00586 c 35.36853,0 38.99414,-3.6232 38.99414,-38.91992 V 108 Z"
         style="fill:url(#linearGradient946)"
         id="path166" />
    </clipPath>
    <linearGradient
       id="linearGradient4226"
       x1="529.655"
       x2="-35.31"
       y1="401.584"
       y2="119.093"
       gradientTransform="matrix(0.11988932,0,0,0.11988589,3.6614303,228.72469)"
       gradientUnits="userSpaceOnUse"
       xlink:href="#linearGradient1674" />
    <linearGradient
       id="linearGradient1674">
      <stop
         id="stop1670"
         offset="0"
         style="stop-color:#fb7c38" />
      <stop
         id="stop1672"
         offset="1"
         style="stop-color:#9b33ae" />
    </linearGradient>
    <filter
       style="color-interpolation-filters:sRGB"
       id="filter965"
       width="1.045"
       height="1.052"
       x="-.02"
       y="-.03">
      <feGaussianBlur
         id="feGaussianBlur967"
         stdDeviation="4.16" />
    </filter>
    <filter
       style="color-interpolation-filters:sRGB"
       id="filter4346"
       width="1.026"
       height="1.022"
       x="-.01"
       y="-.01">
      <feGaussianBlur
         id="feGaussianBlur4348"
         stdDeviation="2.12" />
    </filter>
  </defs>
  <g
     id="layer1"
     transform="translate(0,-229.26666)">
    <g
       transform="translate(0,1.5441334)"
       id="g191">
      <rect
         style="opacity:1;fill:#e97cc8;fill-opacity:1;stroke:none;stroke-width:1.98427224;stroke-linecap:round;stroke-linejoin:round;stroke-miterlimit:4;stroke-dasharray:none;stroke-opacity:1"
         id="rect1551"
         width="6.6142406"
         height="6.6142406"
         x="1.3228675"
         y="235.92424" />
      <rect
         y="235.92424"
         x="7.9371428"
         height="6.6142406"
         width="6.6142406"
         id="rect1553"
         style="opacity:1;fill:#c5c9f5;fill-opacity:1;stroke:none;stroke-width:1.98427224;stroke-linecap:round;stroke-linejoin:round;stroke-miterlimit:4;stroke-dasharray:none;stroke-opacity:1"
         inkscape:transform-center-x="9.7336525"
         inkscape:transform-center-y="-0.081113771" />
      <rect
         inkscape:transform-center-y="-0.081113771"
         inkscape:transform-center-x="9.7336525"
         style="opacity:1;fill:#a2bcfe;fill-opacity:1;stroke:none;stroke-width:1.98427224;stroke-linecap:round;stroke-linejoin:round;stroke-miterlimit:4;stroke-dasharray:none;stroke-opacity:1"
         id="rect1555"
         width="6.6142406"
         height="6.6142406"
         x="14.5514"
         y="235.92424" />
      <rect
         y="235.92424"
         x="21.165657"
         height="6.6142406"
         width="6.6142406"
         id="rect1557"
         style="opacity:1;fill:#aee3f8;fill-opacity:1;stroke:none;stroke-width:1.98427224;stroke-linecap:round;stroke-linejoin:round;stroke-miterlimit:4;stroke-dasharray:none;stroke-opacity:1"
         inkscape:transform-center-x="9.7336525"
         inkscape:transform-center-y="-0.081113771" />
      <rect
         y="235.92424"
         x="27.779898"
         height="6.6142406"
         width="6.6142406"
         id="rect1559"
         style="opacity:1;fill:#81e9c0;fill-opacity:1;stroke:none;stroke-width:1.98427224;stroke-linecap:round;stroke-linejoin:round;stroke-miterlimit:4;stroke-dasharray:none;stroke-opacity:1" />
      <rect
         inkscape:transform-center-y="-0.081113771"
         inkscape:transform-center-x="9.7336525"
         style="opacity:1;fill:#cbe667;fill-opacity:1;stroke:none;stroke-width:1.98427224;stroke-linecap:round;stroke-linejoin:round;stroke-miterlimit:4;stroke-dasharray:none;stroke-opacity:1"
         id="rect1561"
         width="6.6142406"
         height="6.6142406"
         x="34.394176"
         y="235.92424" />
      <rect
         y="235.92424"
         x="41.008434"
         height="6.6142406"
         width="6.6142406"
         id="rect1563"
         style="opacity:1;fill:#fff4c9;fill-opacity:1;stroke:none;stroke-width:1.98427224;stroke-linecap:round;stroke-linejoin:round;stroke-miterlimit:4;stroke-dasharray:none;stroke-opacity:1"
         inkscape:transform-center-x="9.7336525"
         inkscape:transform-center-y="-0.081113771" />
      <rect
         inkscape:transform-center-y="-0.081113771"
         inkscape:transform-center-x="9.7336525"
         style="opacity:1;fill:#fec589;fill-opacity:1;stroke:none;stroke-width:1.98427224;stroke-linecap:round;stroke-linejoin:round;stroke-miterlimit:4;stroke-dasharray:none;stroke-opacity:1"
         id="rect1565"
         width="6.6142406"
         height="6.6142406"
         x="47.622692"
         y="235.92424" />
      <rect
         inkscape:transform-center-y="-0.081113771"
         inkscape:transform-center-x="9.7336525"
         style="opacity:1;fill:#fa9381;fill-opacity:1;stroke:none;stroke-width:1.98427224;stroke-linecap:round;stroke-linejoin:round;stroke-miterlimit:4;stroke-dasharray:none;stroke-opacity:1"
         id="rect1567"
         width="6.6142406"
         height="6.6142406"
         x="54.23695"
         y="235.92424" />
      <rect
         y="235.92424"
         x="60.851208"
         height="6.6142406"
         width="6.6142406"
         id="rect1569"
         style="opacity:1;fill:#faf8f6;fill-opacity:1;stroke:none;stroke-width:1.98427224;stroke-linecap:round;stroke-linejoin:round;stroke-miterlimit:4;stroke-dasharray:none;stroke-opacity:1"
         inkscape:transform-center-x="9.7336525"
         inkscape:transform-center-y="-0.081113771" />
      <rect
         y="242.5385"
         x="1.3228316"
         height="6.6142406"
         width="6.6142406"
         id="rect1571"
         style="opacity:1;fill:#d85eca;fill-opacity:1;stroke:none;stroke-width:1.98427224;stroke-linecap:round;stroke-linejoin:round;stroke-miterlimit:4;stroke-dasharray:none;stroke-opacity:1" />
      <rect
         inkscape:transform-center-y="-0.081113771"
         inkscape:transform-center-x="9.7336525"
         style="opacity:1;fill:#a7a7f1;fill-opacity:1;stroke:none;stroke-width:1.98427224;stroke-linecap:round;stroke-linejoin:round;stroke-miterlimit:4;stroke-dasharray:none;stroke-opacity:1"
         id="rect1573"
         width="6.6142406"
         height="6.6142406"
         x="7.9371071"
         y="242.5385" />
      <rect
         y="242.5385"
         x="14.551364"
         height="6.6142406"
         width="6.6142406"
         id="rect1575"
         style="opacity:1;fill:#80a3fa;fill-opacity:1;stroke:none;stroke-width:1.98427224;stroke-linecap:round;stroke-linejoin:round;stroke-miterlimit:4;stroke-dasharray:none;stroke-opacity:1"
         inkscape:transform-center-x="9.7336525"
         inkscape:transform-center-y="-0.081113771" />
      <rect
         inkscape:transform-center-y="-0.081113771"
         inkscape:transform-center-x="9.7336525"
         style="opacity:1;fill:#6dc7f1;fill-opacity:1;stroke:none;stroke-width:1.98427224;stroke-linecap:round;stroke-linejoin:round;stroke-miterlimit:4;stroke-dasharray:none;stroke-opacity:1"
         id="rect1577"
         width="6.6142406"
         height="6.6142406"
         x="21.165621"
         y="242.5385" />
      <rect
         style="opacity:1;fill:#5bdbc1;fill-opacity:1;stroke:none;stroke-width:1.98427224;stroke-linecap:round;stroke-linejoin:round;stroke-miterlimit:4;stroke-dasharray:none;stroke-opacity:1"
         id="rect1579"
         width="6.6142406"
         height="6.6142406"
         x="27.779861"
         y="242.5385" />
      <rect
         y="242.5385"
         x="34.394142"
         height="6.6142406"
         width="6.6142406"
         id="rect1581"
         style="opacity:1;fill:#a6d74f;fill-opacity:1;stroke:none;stroke-width:1.98427224;stroke-linecap:round;stroke-linejoin:round;stroke-miterlimit:4;stroke-dasharray:none;stroke-opacity:1"
         inkscape:transform-center-x="9.7336525"
         inkscape:transform-center-y="-0.081113771" />
      <rect
         inkscape:transform-center-y="-0.081113771"
         inkscape:transform-center-x="9.7336525"
         style="opacity:1;fill:#fee581;fill-opacity:1;stroke:none;stroke-width:1.98427224;stroke-linecap:round;stroke-linejoin:round;stroke-miterlimit:4;stroke-dasharray:none;stroke-opacity:1"
         id="rect1583"
         width="6.6142406"
         height="6.6142406"
         x="41.0084"
         y="242.5385" />
      <rect
         y="242.5385"
         x="47.622658"
         height="6.6142406"
         width="6.6142406"
         id="rect1585"
         style="opacity:1;fill:#fda463;fill-opacity:1;stroke:none;stroke-width:1.98427224;stroke-linecap:round;stroke-linejoin:round;stroke-miterlimit:4;stroke-dasharray:none;stroke-opacity:1"
         inkscape:transform-center-x="9.7336525"
         inkscape:transform-center-y="-0.081113771" />
      <rect
         y="242.5385"
         x="54.236916"
         height="6.6142406"
         width="6.6142406"
         id="rect1587"
         style="opacity:1;fill:#f76363;fill-opacity:1;stroke:none;stroke-width:1.98427224;stroke-linecap:round;stroke-linejoin:round;stroke-miterlimit:4;stroke-dasharray:none;stroke-opacity:1"
         inkscape:transform-center-x="9.7336525"
         inkscape:transform-center-y="-0.081113771" />
      <rect
         inkscape:transform-center-y="-0.081113771"
         inkscape:transform-center-x="9.7336525"
         style="opacity:1;fill:#f1f0e9;fill-opacity:1;stroke:none;stroke-width:1.98427224;stroke-linecap:round;stroke-linejoin:round;stroke-miterlimit:4;stroke-dasharray:none;stroke-opacity:1"
         id="rect1589"
         width="6.6142406"
         height="6.6142406"
         x="60.851173"
         y="242.5385" />
      <rect
         y="249.15274"
         x="1.32285"
         height="6.6142406"
         width="6.6142406"
         id="rect1591"
         style="opacity:1;fill:#c43ac4;fill-opacity:1;stroke:none;stroke-width:1.98427224;stroke-linecap:round;stroke-linejoin:round;stroke-miterlimit:4;stroke-dasharray:none;stroke-opacity:1" />
      <rect
         inkscape:transform-center-y="-0.081113771"
         inkscape:transform-center-x="9.7336525"
         style="opacity:1;fill:#8f76e4;fill-opacity:1;stroke:none;stroke-width:1.98427224;stroke-linecap:round;stroke-linejoin:round;stroke-miterlimit:4;stroke-dasharray:none;stroke-opacity:1"
         id="rect1593"
         width="6.6142406"
         height="6.6142406"
         x="7.9371252"
         y="249.15274" />
      <rect
         y="249.15274"
         x="14.551383"
         height="6.6142406"
         width="6.6142406"
         id="rect1595"
         style="opacity:1;fill:#5884f4;fill-opacity:1;stroke:none;stroke-width:1.98427224;stroke-linecap:round;stroke-linejoin:round;stroke-miterlimit:4;stroke-dasharray:none;stroke-opacity:1"
         inkscape:transform-center-x="9.7336525"
         inkscape:transform-center-y="-0.081113771" />
      <rect
         inkscape:transform-center-y="-0.081113771"
         inkscape:transform-center-x="9.7336525"
         style="opacity:1;fill:#37a6e6;fill-opacity:1;stroke:none;stroke-width:1.98427224;stroke-linecap:round;stroke-linejoin:round;stroke-miterlimit:4;stroke-dasharray:none;stroke-opacity:1"
         id="rect1597"
         width="6.6142406"
         height="6.6142406"
         x="21.16564"
         y="249.15274" />
      <rect
         style="opacity:1;fill:#31c6b7;fill-opacity:1;stroke:none;stroke-width:1.98427224;stroke-linecap:round;stroke-linejoin:round;stroke-miterlimit:4;stroke-dasharray:none;stroke-opacity:1"
         id="rect1599"
         width="6.6142406"
         height="6.6142406"
         x="27.779881"
         y="249.15274" />
      <rect
         y="249.15274"
         x="34.394157"
         height="6.6142406"
         width="6.6142406"
         id="rect1601"
         style="opacity:1;fill:#76c22b;fill-opacity:1;stroke:none;stroke-width:1.98427224;stroke-linecap:round;stroke-linejoin:round;stroke-miterlimit:4;stroke-dasharray:none;stroke-opacity:1"
         inkscape:transform-center-x="9.7336525"
         inkscape:transform-center-y="-0.081113771" />
      <rect
         inkscape:transform-center-y="-0.081113771"
         inkscape:transform-center-x="9.7336525"
         style="opacity:1;fill:#ffda64;fill-opacity:1;stroke:none;stroke-width:1.98427224;stroke-linecap:round;stroke-linejoin:round;stroke-miterlimit:4;stroke-dasharray:none;stroke-opacity:1"
         id="rect1603"
         width="6.6142406"
         height="6.6142406"
         x="41.008415"
         y="249.15274" />
      <rect
         y="249.15274"
         x="47.622673"
         height="6.6142406"
         width="6.6142406"
         id="rect1605"
         style="opacity:1;fill:#fb7c38;fill-opacity:1;stroke:none;stroke-width:1.98427224;stroke-linecap:round;stroke-linejoin:round;stroke-miterlimit:4;stroke-dasharray:none;stroke-opacity:1"
         inkscape:transform-center-x="9.7336525"
         inkscape:transform-center-y="-0.081113771" />
      <rect
         y="249.15274"
         x="54.236931"
         height="6.6142406"
         width="6.6142406"
         id="rect1607"
         style="opacity:1;fill:#f22c42;fill-opacity:1;stroke:none;stroke-width:1.98427224;stroke-linecap:round;stroke-linejoin:round;stroke-miterlimit:4;stroke-dasharray:none;stroke-opacity:1"
         inkscape:transform-center-x="9.7336525"
         inkscape:transform-center-y="-0.081113771" />
      <rect
         style="opacity:1;fill:#9b33ae;fill-opacity:1;stroke:none;stroke-width:1.98427224;stroke-linecap:round;stroke-linejoin:round;stroke-miterlimit:4;stroke-dasharray:none;stroke-opacity:1"
         id="rect1609"
         width="6.6142406"
         height="6.6142406"
         x="1.3228141"
         y="255.767" />
      <rect
         y="255.767"
         x="7.9370894"
         height="6.6142406"
         width="6.6142406"
         id="rect1611"
         style="opacity:1;fill:#8c59d9;fill-opacity:1;stroke:none;stroke-width:1.98427224;stroke-linecap:round;stroke-linejoin:round;stroke-miterlimit:4;stroke-dasharray:none;stroke-opacity:1"
         inkscape:transform-center-x="9.7336525"
         inkscape:transform-center-y="-0.081113771" />
      <rect
         inkscape:transform-center-y="-0.081113771"
         inkscape:transform-center-x="9.7336525"
         style="opacity:1;fill:#2f5fdd;fill-opacity:1;stroke:none;stroke-width:1.98427224;stroke-linecap:round;stroke-linejoin:round;stroke-miterlimit:4;stroke-dasharray:none;stroke-opacity:1"
         id="rect1613"
         width="6.6142406"
         height="6.6142406"
         x="14.551347"
         y="255.767" />
      <rect
         y="255.767"
         x="21.165604"
         height="6.6142406"
         width="6.6142406"
         id="rect1615"
         style="opacity:1;fill:#1a7fd4;fill-opacity:1;stroke:none;stroke-width:1.98427224;stroke-linecap:round;stroke-linejoin:round;stroke-miterlimit:4;stroke-dasharray:none;stroke-opacity:1"
         inkscape:transform-center-x="9.7336525"
         inkscape:transform-center-y="-0.081113771" />
      <rect
         y="255.767"
         x="27.779844"
         height="6.6142406"
         width="6.6142406"
         id="rect1617"
         style="opacity:1;fill:#2daaaa;fill-opacity:1;stroke:none;stroke-width:1.98427224;stroke-linecap:round;stroke-linejoin:round;stroke-miterlimit:4;stroke-dasharray:none;stroke-opacity:1" />
      <rect
         inkscape:transform-center-y="-0.081113771"
         inkscape:transform-center-x="9.7336525"
         style="opacity:1;fill:#46a926;fill-opacity:1;stroke:none;stroke-width:1.98427224;stroke-linecap:round;stroke-linejoin:round;stroke-miterlimit:4;stroke-dasharray:none;stroke-opacity:1"
         id="rect1619"
         width="6.6142406"
         height="6.6142406"
         x="34.394123"
         y="255.767" />
      <rect
         y="255.767"
         x="41.008381"
         height="6.6142406"
         width="6.6142406"
         id="rect1621"
         style="opacity:1;fill:#fdc92b;fill-opacity:1;stroke:none;stroke-width:1.98427224;stroke-linecap:round;stroke-linejoin:round;stroke-miterlimit:4;stroke-dasharray:none;stroke-opacity:1"
         inkscape:transform-center-x="9.7336525"
         inkscape:transform-center-y="-0.081113771" />
      <rect
         inkscape:transform-center-y="-0.081113771"
         inkscape:transform-center-x="9.7336525"
         style="opacity:1;fill:#f34f17;fill-opacity:1;stroke:none;stroke-width:1.98427224;stroke-linecap:round;stroke-linejoin:round;stroke-miterlimit:4;stroke-dasharray:none;stroke-opacity:1"
         id="rect1623"
         width="6.6142406"
         height="6.6142406"
         x="47.622639"
         y="255.767" />
      <rect
         inkscape:transform-center-y="-0.081113771"
         inkscape:transform-center-x="9.7336525"
         style="opacity:1;fill:#da1636;fill-opacity:1;stroke:none;stroke-width:1.98427224;stroke-linecap:round;stroke-linejoin:round;stroke-miterlimit:4;stroke-dasharray:none;stroke-opacity:1"
         id="rect1625"
         width="6.6142406"
         height="6.6142406"
         x="54.236897"
         y="255.767" />
      <rect
         y="262.38126"
         x="1.3228326"
         height="6.6142406"
         width="6.6142406"
         id="rect1627"
         style="opacity:1;fill:#62237c;fill-opacity:1;stroke:none;stroke-width:1.98427224;stroke-linecap:round;stroke-linejoin:round;stroke-miterlimit:4;stroke-dasharray:none;stroke-opacity:1" />
      <rect
         inkscape:transform-center-y="-0.081113771"
         inkscape:transform-center-x="9.7336525"
         style="opacity:1;fill:#7839b7;fill-opacity:1;stroke:none;stroke-width:1.98427224;stroke-linecap:round;stroke-linejoin:round;stroke-miterlimit:4;stroke-dasharray:none;stroke-opacity:1"
         id="rect1629"
         width="6.6142406"
         height="6.6142406"
         x="7.937108"
         y="262.38126" />
      <rect
         y="262.38126"
         x="14.551365"
         height="6.6142406"
         width="6.6142406"
         id="rect1631"
         style="opacity:1;fill:#234db8;fill-opacity:1;stroke:none;stroke-width:1.98427224;stroke-linecap:round;stroke-linejoin:round;stroke-miterlimit:4;stroke-dasharray:none;stroke-opacity:1"
         inkscape:transform-center-x="9.7336525"
         inkscape:transform-center-y="-0.081113771" />
      <rect
         inkscape:transform-center-y="-0.081113771"
         inkscape:transform-center-x="9.7336525"
         style="opacity:1;fill:#1463a5;fill-opacity:1;stroke:none;stroke-width:1.98427224;stroke-linecap:round;stroke-linejoin:round;stroke-miterlimit:4;stroke-dasharray:none;stroke-opacity:1"
         id="rect1633"
         width="6.6142406"
         height="6.6142406"
         x="21.165623"
         y="262.38126" />
      <rect
         style="opacity:1;fill:#2b898f;fill-opacity:1;stroke:none;stroke-width:1.98427224;stroke-linecap:round;stroke-linejoin:round;stroke-miterlimit:4;stroke-dasharray:none;stroke-opacity:1"
         id="rect1635"
         width="6.6142406"
         height="6.6142406"
         x="27.779863"
         y="262.38126" />
      <rect
         y="262.38126"
         x="34.394142"
         height="6.6142406"
         width="6.6142406"
         id="rect1637"
         style="opacity:1;fill:#28851e;fill-opacity:1;stroke:none;stroke-width:1.98427224;stroke-linecap:round;stroke-linejoin:round;stroke-miterlimit:4;stroke-dasharray:none;stroke-opacity:1"
         inkscape:transform-center-x="9.7336525"
         inkscape:transform-center-y="-0.081113771" />
      <rect
         inkscape:transform-center-y="-0.081113771"
         inkscape:transform-center-x="9.7336525"
         style="opacity:1;fill:#eab305;fill-opacity:1;stroke:none;stroke-width:1.98427224;stroke-linecap:round;stroke-linejoin:round;stroke-miterlimit:4;stroke-dasharray:none;stroke-opacity:1"
         id="rect1639"
         width="6.6142406"
         height="6.6142406"
         x="41.0084"
         y="262.38126" />
      <rect
         y="262.38126"
         x="47.622658"
         height="6.6142406"
         width="6.6142406"
         id="rect1641"
         style="opacity:1;fill:#d64310;fill-opacity:1;stroke:none;stroke-width:1.98427224;stroke-linecap:round;stroke-linejoin:round;stroke-miterlimit:4;stroke-dasharray:none;stroke-opacity:1"
         inkscape:transform-center-x="9.7336525"
         inkscape:transform-center-y="-0.081113771" />
      <rect
         y="262.38126"
         x="54.236916"
         height="6.6142406"
         width="6.6142406"
         id="rect1643"
         style="opacity:1;fill:#bc1938;fill-opacity:1;stroke:none;stroke-width:1.98427224;stroke-linecap:round;stroke-linejoin:round;stroke-miterlimit:4;stroke-dasharray:none;stroke-opacity:1"
         inkscape:transform-center-x="9.7336525"
         inkscape:transform-center-y="-0.081113771" />
      <rect
         inkscape:transform-center-y="-0.081113771"
         inkscape:transform-center-x="9.7336525"
         style="opacity:1;fill:#e3dfd5;fill-opacity:1;stroke:none;stroke-width:1.98427224;stroke-linecap:round;stroke-linejoin:round;stroke-miterlimit:4;stroke-dasharray:none;stroke-opacity:1"
         id="rect1645"
         width="6.6142406"
         height="6.6142406"
         x="60.85117"
         y="249.15274" />
      <rect
         y="255.76698"
         x="60.85117"
         height="6.6142406"
         width="6.6142406"
         id="rect1647"
         style="opacity:1;fill:#c8c4b7;fill-opacity:1;stroke:none;stroke-width:1.98427224;stroke-linecap:round;stroke-linejoin:round;stroke-miterlimit:4;stroke-dasharray:none;stroke-opacity:1"
         inkscape:transform-center-x="9.7336525"
         inkscape:transform-center-y="-0.081113771" />
      <rect
         inkscape:transform-center-y="-0.081113771"
         inkscape:transform-center-x="9.7336525"
         style="opacity:1;fill:#aea795;fill-opacity:1;stroke:none;stroke-width:1.98427224;stroke-linecap:round;stroke-linejoin:round;stroke-miterlimit:4;stroke-dasharray:none;stroke-opacity:1"
         id="rect1649"
         width="6.6142406"
         height="6.6142406"
         x="60.851173"
         y="262.38126" />
      <rect
         style="opacity:1;fill:#3b3b3b;fill-opacity:1;stroke:none;stroke-width:1.98427224;stroke-linecap:round;stroke-linejoin:round;stroke-miterlimit:4;stroke-dasharray:none;stroke-opacity:1"
         id="rect1651"
         width="6.6142406"
         height="6.6142406"
         x="1.3228515"
         y="268.99548" />
      <rect
         y="268.99551"
         x="21.165625"
         height="6.6142406"
         width="6.6142406"
         id="rect1672"
         style="opacity:1;fill:#808080;fill-opacity:1;stroke:none;stroke-width:1.98427224;stroke-linecap:round;stroke-linejoin:round;stroke-miterlimit:4;stroke-dasharray:none;stroke-opacity:1" />
      <rect
         y="268.99551"
         x="14.551385"
         height="6.6142406"
         width="6.6142406"
         id="rect1672-3"
         style="opacity:1;fill:#666666;fill-opacity:1;stroke:none;stroke-width:1.98427224;stroke-linecap:round;stroke-linejoin:round;stroke-miterlimit:4;stroke-dasharray:none;stroke-opacity:1" />
      <rect
         y="268.99548"
         x="7.9371262"
         height="6.6142406"
         width="6.6142406"
         id="rect1672-6"
         style="opacity:1;fill:#5d5d5d;fill-opacity:1;stroke:none;stroke-width:1.98427224;stroke-linecap:round;stroke-linejoin:round;stroke-miterlimit:4;stroke-dasharray:none;stroke-opacity:1" />
    </g>
  </g>
</svg>
