<?xml version="1.0" encoding="UTF-8" standalone="no"?>
<svg
   xmlns:dc="http://purl.org/dc/elements/1.1/"
   xmlns:cc="http://creativecommons.org/ns#"
   xmlns:rdf="http://www.w3.org/1999/02/22-rdf-syntax-ns#"
   xmlns:svg="http://www.w3.org/2000/svg"
   xmlns="http://www.w3.org/2000/svg"
   xmlns:xlink="http://www.w3.org/1999/xlink"
   xmlns:sodipodi="http://sodipodi.sourceforge.net/DTD/sodipodi-0.dtd"
   xmlns:inkscape="http://www.inkscape.org/namespaces/inkscape"
   width="32"
   height="32"
   version="1.1"
   id="svg8"
   sodipodi:docname="4.svg"
   inkscape:version="0.92.4 (5da689c313, 2019-01-14)">
  <metadata
     id="metadata14">
    <rdf:RDF>
      <cc:Work
         rdf:about="">
        <dc:format>image/svg+xml</dc:format>
        <dc:type
           rdf:resource="http://purl.org/dc/dcmitype/StillImage" />
        <dc:title></dc:title>
      </cc:Work>
    </rdf:RDF>
  </metadata>
  <defs
     id="defs12">
    <clipPath
       clipPathUnits="userSpaceOnUse"
       id="clipPath959">
      <path
         style="color:#000000;display:inline;overflow:visible;visibility:visible;opacity:1;fill:#46a926;fill-opacity:1;fill-rule:nonzero;stroke:none;stroke-width:2;stroke-miterlimit:4;stroke-dasharray:none;stroke-opacity:1;marker:none;enable-background:accumulate"
         d="m 330.1929,133.99999 c -5.61538,0 -6.21958,0.57678 -6.19206,6.20352 v 7.79648 7.79648 c -0.0276,5.62673 0.57668,6.20351 6.19206,6.20351 h 11.615 c 5.6154,0 6.19208,-0.5767 6.19208,-6.20351 v -7.79648 -7.79648 c 0,-5.6268 -0.5767,-6.20352 -6.19208,-6.20352 z"
         id="path961"
         inkscape:connector-curvature="0"
         sodipodi:nodetypes="scccssscsss" />
    </clipPath>
    <clipPath
       clipPathUnits="userSpaceOnUse"
       id="clipPath959-3">
      <path
         style="color:#000000;display:inline;overflow:visible;visibility:visible;opacity:1;fill:#46a926;fill-opacity:1;fill-rule:nonzero;stroke:none;stroke-width:2;stroke-miterlimit:4;stroke-dasharray:none;stroke-opacity:1;marker:none;enable-background:accumulate"
         d="m 330.1929,133.99999 c -5.61538,0 -6.21958,0.57678 -6.19206,6.20352 v 7.79648 7.79648 c -0.0276,5.62673 0.57668,6.20351 6.19206,6.20351 h 11.615 c 5.6154,0 6.19208,-0.5767 6.19208,-6.20351 v -7.79648 -7.79648 c 0,-5.6268 -0.5767,-6.20352 -6.19208,-6.20352 z"
         id="path961-6"
         inkscape:connector-curvature="0"
         sodipodi:nodetypes="scccssscsss" />
    </clipPath>
    <clipPath
       clipPathUnits="userSpaceOnUse"
       id="clipPath959-7">
      <path
         style="color:#000000;display:inline;overflow:visible;visibility:visible;opacity:1;fill:#46a926;fill-opacity:1;fill-rule:nonzero;stroke:none;stroke-width:2;stroke-miterlimit:4;stroke-dasharray:none;stroke-opacity:1;marker:none;enable-background:accumulate"
         d="m 330.1929,133.99999 c -5.61538,0 -6.21958,0.57678 -6.19206,6.20352 v 7.79648 7.79648 c -0.0276,5.62673 0.57668,6.20351 6.19206,6.20351 h 11.615 c 5.6154,0 6.19208,-0.5767 6.19208,-6.20351 v -7.79648 -7.79648 c 0,-5.6268 -0.5767,-6.20352 -6.19208,-6.20352 z"
         id="path961-5"
         inkscape:connector-curvature="0"
         sodipodi:nodetypes="scccssscsss" />
    </clipPath>
    <linearGradient
       inkscape:collect="always"
       xlink:href="#linearGradient927"
       id="linearGradient969"
       x1="336"
       y1="134"
       x2="336"
       y2="162"
       gradientUnits="userSpaceOnUse" />
    <linearGradient
       inkscape:collect="always"
       id="linearGradient927">
      <stop
         style="stop-color:#ffffff;stop-opacity:1;"
         offset="0"
         id="stop923" />
      <stop
         id="stop933"
         offset="0.125"
         style="stop-color:#ffffff;stop-opacity:0.09803922" />
      <stop
         id="stop931"
         offset="0.92500001"
         style="stop-color:#ffffff;stop-opacity:0.09803922" />
      <stop
         style="stop-color:#ffffff;stop-opacity:0.49803922"
         offset="1"
         id="stop925" />
    </linearGradient>
    <clipPath
       clipPathUnits="userSpaceOnUse"
       id="clipPath959-35">
      <path
         style="color:#000000;display:inline;overflow:visible;visibility:visible;opacity:1;fill:#46a926;fill-opacity:1;fill-rule:nonzero;stroke:none;stroke-width:2;stroke-miterlimit:4;stroke-dasharray:none;stroke-opacity:1;marker:none;enable-background:accumulate"
         d="m 330.1929,133.99999 c -5.61538,0 -6.21958,0.57678 -6.19206,6.20352 v 7.79648 7.79648 c -0.0276,5.62673 0.57668,6.20351 6.19206,6.20351 h 11.615 c 5.6154,0 6.19208,-0.5767 6.19208,-6.20351 v -7.79648 -7.79648 c 0,-5.6268 -0.5767,-6.20352 -6.19208,-6.20352 z"
         id="path961-62"
         inkscape:connector-curvature="0"
         sodipodi:nodetypes="scccssscsss" />
    </clipPath>
    <linearGradient
       inkscape:collect="always"
       xlink:href="#linearGradient928"
       id="linearGradient1099"
       gradientUnits="userSpaceOnUse"
       x1="352"
       y1="68"
       x2="352"
       y2="96"
       gradientTransform="matrix(0.91130147,0,0,0.91130147,-297.48942,-56.928425)" />
    <linearGradient
       inkscape:collect="always"
       id="linearGradient928">
      <stop
         style="stop-color:#808080;stop-opacity:1"
         offset="0"
         id="stop924" />
      <stop
         style="stop-color:#999999;stop-opacity:1"
         offset="1"
         id="stop926" />
    </linearGradient>
    <linearGradient
       inkscape:collect="always"
       xlink:href="#linearGradient4338-3"
       id="linearGradient924"
       gradientUnits="userSpaceOnUse"
       gradientTransform="matrix(0,-0.07208805,-0.07208601,0,39.129597,33.81816)"
       x1="524.61066"
       y1="320.84784"
       x2="-30.266319"
       y2="320.84784" />
    <linearGradient
       inkscape:collect="always"
       id="linearGradient4338-3">
      <stop
         id="stop4342-7"
         offset="0"
         style="stop-color:#999999;stop-opacity:1" />
      <stop
         style="stop-color:#b7b7b7;stop-opacity:1"
         offset="0.61328125"
         id="stop932" />
      <stop
         id="stop4340-0"
         offset="1"
         style="stop-color:#dbdbdb;stop-opacity:1" />
    </linearGradient>
  </defs>
  <sodipodi:namedview
     pagecolor="#ffffff"
     bordercolor="#666666"
     borderopacity="1"
     objecttolerance="10"
     gridtolerance="10"
     guidetolerance="10"
     inkscape:pageopacity="0"
     inkscape:pageshadow="2"
     inkscape:window-width="1920"
     inkscape:window-height="1016"
     id="namedview10"
     showgrid="false"
     inkscape:zoom="14.75"
     inkscape:cx="8"
     inkscape:cy="8"
     inkscape:window-x="0"
     inkscape:window-y="27"
     inkscape:window-maximized="1"
     inkscape:current-layer="svg8" />
  <path
     style="color:#000000;display:inline;overflow:visible;visibility:visible;fill:url(#linearGradient924);fill-opacity:1;fill-rule:nonzero;stroke:none;stroke-width:0.99999994;marker:none;enable-background:accumulate"
     d="m 21.806687,1.5000003 c 1.41241,0 2.52238,0.0342 3.42383,0.18555 0.90145,0.15132 1.61987,0.43164 2.14258,0.95312 0.5227,0.52148 0.80325,1.23898 0.95312,2.14063 0.14988,0.90164 0.18075,2.0101 0.17383,3.42578 V 16 23.79688 c 0.007,1.41452 -0.024,2.52269 -0.17383,3.42382 -0.14987,0.90165 -0.43041,1.61915 -0.95312,2.14063 -0.52272,0.52148 -1.24112,0.8018 -2.14258,0.95312 -0.90146,0.15132 -2.01142,0.18555 -3.42383,0.18555 h -11.61523 c -1.41241,0 -2.51847,-0.0342 -3.41797,-0.18555 -0.8995,-0.15137 -1.61597,-0.43149 -2.13672,-0.95312 -0.52075,-0.52163 -0.80004,-1.23774 -0.95117,-2.13867 -0.15113,-0.90094 -0.18555,-2.01055 -0.18555,-3.42578 V 16 8.2031203 c 0,-1.41524 0.0344,-2.52484 0.18555,-3.42578 0.15113,-0.90093 0.43042,-1.61703 0.95117,-2.13867 0.52075,-0.52163 1.23722,-0.80175 2.13672,-0.95312 0.8995,-0.15137 2.00556,-0.18555 3.41797,-0.18555 z"
     id="path922"
     inkscape:connector-curvature="0" />
  <path
     id="path1101"
     d="m 13.300517,12.61207 h 1.79849 v 8.06863 c -0.46001,-0.29218 -0.93452,-0.54983 -1.39454,-0.77983 -0.67442,-0.33722 -1.29753,-0.66268 -1.68257,-0.98354 -0.38502,-0.32085 -0.51987,-0.5351 -0.51987,-0.90978 0.99328,0 1.79849,-0.8052 1.79849,-1.79849 0,-0.99328 -0.80521,-1.79849 -1.79849,-1.79849 -0.99328,0 -1.79848,0.80521 -1.79848,1.79849 v 1.79849 c 0,0.97419 0.53957,1.77159 1.16621,2.29377 0.62661,0.52219 1.35587,0.87115 2.03031,1.20839 0.67442,0.3372 1.29403,0.66267 1.67907,0.98352 0.38502,0.32086 0.51987,0.5351 0.51987,0.90979 -0.49818,0 -0.89924,0.40107 -0.89924,0.89924 v 1.79849 c 0,0.49819 0.40106,0.89925 0.89924,0.89925 h 1.79849 c 0.49819,0 0.89925,-0.40106 0.89925,-0.89925 v -1.79849 c 0,-0.49817 -0.40106,-0.89924 -0.89925,-0.89924 v -1.79851 c 0,-0.37467 0.13489,-0.58892 0.51988,-0.90977 0.38504,-0.32085 1.00814,-0.64632 1.68258,-0.98354 0.67442,-0.33722 1.40019,-0.68618 2.0268,-1.20836 0.62664,-0.52219 1.16621,-1.31959 1.16621,-2.29378 v -0.89925 -1.7985 c 0,-0.49818 -0.40106,-0.89924 -0.89924,-0.89924 h -1.79849 c -0.49817,0 -0.89924,0.40106 -0.89924,0.89924 v 1.7985 c 0,0.49819 0.40107,0.89925 0.89924,0.89925 h 0.89925 c 0,0.37468 -0.1349,0.58893 -0.51988,0.90978 -0.38503,0.32085 -1.00464,0.64633 -1.67907,0.98353 -0.46052,0.23029 -0.93651,0.4872 -1.39804,0.77983 v -6.27013 h 1.7985 l -2.69774,-5.3954597 z"
     style="display:inline;opacity:0.2;fill:#ffffff;fill-opacity:1;stroke:none;stroke-width:2.51788688;stroke-linecap:round;stroke-linejoin:miter;stroke-miterlimit:4;stroke-dasharray:none;stroke-dashoffset:0;stroke-opacity:1;enable-background:new"
     inkscape:connector-curvature="0"
     sodipodi:nodetypes="cccsccsssscsccsssssscscscscsssssscccccccc" />
  <path
     sodipodi:nodetypes="cccsccsssscsccsssssscscscscsssssscccccccc"
     inkscape:connector-curvature="0"
     style="display:inline;opacity:1;fill:url(#linearGradient1099);fill-opacity:1;stroke:none;stroke-width:2.55164409;stroke-linecap:round;stroke-linejoin:miter;stroke-miterlimit:4;stroke-dasharray:none;stroke-dashoffset:0;stroke-opacity:1;enable-background:new"
     d="m 13.264347,11.41919 h 1.8226 v 8.17678 c -0.46617,-0.29609 -0.94705,-0.55719 -1.41323,-0.79028 -0.68346,-0.34174 -1.31493,-0.67157 -1.70513,-0.99674 -0.39018,-0.32514 -0.52684,-0.54226 -0.52684,-0.92199 1.0066,0 1.8226,-0.81597 1.8226,-1.82259 0,-1.00659 -0.816,-1.82259 -1.8226,-1.82259 -1.0066,0 -1.82259,0.816 -1.82259,1.82259 v 1.82259 c 0,0.98727 0.5468,1.79534 1.18184,2.32455 0.63501,0.52919 1.37405,0.88285 2.05753,1.22457 0.68346,0.34174 1.31138,0.67157 1.70158,0.99672 0.39019,0.32516 0.52684,0.54228 0.52684,0.92199 -0.50486,0 -0.91129,0.40644 -0.91129,0.9113 v 1.8226 c 0,0.50486 0.40643,0.91131 0.91129,0.91131 h 1.82261 c 0.50487,0 0.9113,-0.40645 0.9113,-0.91131 v -1.8226 c 0,-0.50486 -0.40643,-0.9113 -0.9113,-0.9113 v -1.82261 c 0,-0.3797 0.13669,-0.59683 0.52685,-0.92198 0.3902,-0.32515 1.02165,-0.65498 1.70513,-0.99672 0.68347,-0.34173 1.41897,-0.69539 2.05398,-1.22457 0.63504,-0.52919 1.18184,-1.33728 1.18184,-2.32454 V 14.1531 12.33046 c 0,-0.50485 -0.40643,-0.91127 -0.91129,-0.91127 h -1.82261 c -0.50484,0 -0.91129,0.40642 -0.91129,0.91127 v 1.82264 c 0,0.50483 0.40645,0.91127 0.91129,0.91127 h 0.91131 c 0,0.37971 -0.13671,0.59685 -0.52685,0.92199 -0.39019,0.32516 -1.01811,0.65498 -1.70158,0.99672 -0.46669,0.23338 -0.94907,0.49374 -1.41678,0.79029 v -6.35418 h 1.82261 l -2.73391,-5.4678397 z"
     id="path1097" />
  <path
     id="path1089"
     d="m 10.194317,1.5000003 c -1.41241,0 -2.52238,0.0342 -3.42383,0.18555 -0.90145,0.15132 -1.61987,0.43164 -2.14258,0.95312 -0.5227,0.52148 -0.80325,1.23898 -0.95312,2.14063 -0.14988,0.90164 -0.18075,2.0101 -0.17383,3.42578 V 16 23.79688 c -0.007,1.41452 0.024,2.52269 0.17383,3.42382 0.14987,0.90165 0.43041,1.61915 0.95312,2.14063 0.52272,0.52148 1.24112,0.8018 2.14258,0.95312 0.90146,0.15132 2.01142,0.18555 3.42383,0.18555 h 11.61523 c 1.41241,0 2.51847,-0.0342 3.41797,-0.18555 0.8995,-0.15137 1.61597,-0.43149 2.13672,-0.95312 0.52075,-0.52163 0.80004,-1.23774 0.95117,-2.13867 0.15113,-0.90094 0.18555,-2.01055 0.18555,-3.42578 V 16 8.2031203 c 0,-1.41524 -0.0344,-2.52484 -0.18555,-3.42578 -0.15113,-0.90093 -0.43042,-1.61703 -0.95117,-2.13867 -0.52075,-0.52163 -1.23722,-0.80175 -2.13672,-0.95312 -0.8995,-0.15137 -2.00556,-0.18555 -3.41797,-0.18555 z"
     style="color:#000000;display:inline;overflow:visible;visibility:visible;opacity:0.4;fill:none;fill-opacity:1;fill-rule:nonzero;stroke:#000000;stroke-width:0.99999994;stroke-opacity:1;marker:none;enable-background:accumulate"
     inkscape:connector-curvature="0" />
  <path
     transform="translate(-319.99904,-132)"
     sodipodi:nodetypes="scccssscsss"
     inkscape:connector-curvature="0"
     id="path939"
     d="m 330.1929,133.99999 c -5.61538,0 -6.21958,0.57678 -6.19206,6.20352 v 7.79648 7.79648 c -0.0276,5.62673 0.57668,6.20351 6.19206,6.20351 h 11.615 c 5.6154,0 6.19208,-0.5767 6.19208,-6.20351 v -7.79648 -7.79648 c 0,-5.6268 -0.5767,-6.20352 -6.19208,-6.20352 z"
     style="color:#000000;display:inline;overflow:visible;visibility:visible;opacity:0.4;fill:none;fill-opacity:1;fill-rule:nonzero;stroke:url(#linearGradient969);stroke-width:2;stroke-miterlimit:4;stroke-dasharray:none;stroke-opacity:1;marker:none;enable-background:accumulate"
     clip-path="url(#clipPath959-35)" />
</svg>
