<?xml version="1.0" encoding="UTF-8" standalone="no"?>
<svg
   xmlns:dc="http://purl.org/dc/elements/1.1/"
   xmlns:cc="http://creativecommons.org/ns#"
   xmlns:rdf="http://www.w3.org/1999/02/22-rdf-syntax-ns#"
   xmlns:svg="http://www.w3.org/2000/svg"
   xmlns="http://www.w3.org/2000/svg"
   xmlns:xlink="http://www.w3.org/1999/xlink"
   xmlns:sodipodi="http://sodipodi.sourceforge.net/DTD/sodipodi-0.dtd"
   xmlns:inkscape="http://www.inkscape.org/namespaces/inkscape"
   width="32"
   height="32"
   version="1.1"
   id="svg8"
   sodipodi:docname="7.svg"
   inkscape:version="0.92.4 (5da689c313, 2019-01-14)">
  <metadata
     id="metadata14">
    <rdf:RDF>
      <cc:Work
         rdf:about="">
        <dc:format>image/svg+xml</dc:format>
        <dc:type
           rdf:resource="http://purl.org/dc/dcmitype/StillImage" />
        <dc:title></dc:title>
      </cc:Work>
    </rdf:RDF>
  </metadata>
  <defs
     id="defs12">
    <clipPath
       clipPathUnits="userSpaceOnUse"
       id="clipPath959">
      <path
         style="color:#000000;display:inline;overflow:visible;visibility:visible;opacity:1;fill:#46a926;fill-opacity:1;fill-rule:nonzero;stroke:none;stroke-width:2;stroke-miterlimit:4;stroke-dasharray:none;stroke-opacity:1;marker:none;enable-background:accumulate"
         d="m 330.1929,133.99999 c -5.61538,0 -6.21958,0.57678 -6.19206,6.20352 v 7.79648 7.79648 c -0.0276,5.62673 0.57668,6.20351 6.19206,6.20351 h 11.615 c 5.6154,0 6.19208,-0.5767 6.19208,-6.20351 v -7.79648 -7.79648 c 0,-5.6268 -0.5767,-6.20352 -6.19208,-6.20352 z"
         id="path961"
         inkscape:connector-curvature="0"
         sodipodi:nodetypes="scccssscsss" />
    </clipPath>
    <clipPath
       clipPathUnits="userSpaceOnUse"
       id="clipPath959-3">
      <path
         style="color:#000000;display:inline;overflow:visible;visibility:visible;opacity:1;fill:#46a926;fill-opacity:1;fill-rule:nonzero;stroke:none;stroke-width:2;stroke-miterlimit:4;stroke-dasharray:none;stroke-opacity:1;marker:none;enable-background:accumulate"
         d="m 330.1929,133.99999 c -5.61538,0 -6.21958,0.57678 -6.19206,6.20352 v 7.79648 7.79648 c -0.0276,5.62673 0.57668,6.20351 6.19206,6.20351 h 11.615 c 5.6154,0 6.19208,-0.5767 6.19208,-6.20351 v -7.79648 -7.79648 c 0,-5.6268 -0.5767,-6.20352 -6.19208,-6.20352 z"
         id="path961-6"
         inkscape:connector-curvature="0"
         sodipodi:nodetypes="scccssscsss" />
    </clipPath>
    <clipPath
       clipPathUnits="userSpaceOnUse"
       id="clipPath959-7">
      <path
         style="color:#000000;display:inline;overflow:visible;visibility:visible;opacity:1;fill:#46a926;fill-opacity:1;fill-rule:nonzero;stroke:none;stroke-width:2;stroke-miterlimit:4;stroke-dasharray:none;stroke-opacity:1;marker:none;enable-background:accumulate"
         d="m 330.1929,133.99999 c -5.61538,0 -6.21958,0.57678 -6.19206,6.20352 v 7.79648 7.79648 c -0.0276,5.62673 0.57668,6.20351 6.19206,6.20351 h 11.615 c 5.6154,0 6.19208,-0.5767 6.19208,-6.20351 v -7.79648 -7.79648 c 0,-5.6268 -0.5767,-6.20352 -6.19208,-6.20352 z"
         id="path961-5"
         inkscape:connector-curvature="0"
         sodipodi:nodetypes="scccssscsss" />
    </clipPath>
    <clipPath
       clipPathUnits="userSpaceOnUse"
       id="clipPath959-35">
      <path
         style="color:#000000;display:inline;overflow:visible;visibility:visible;opacity:1;fill:#46a926;fill-opacity:1;fill-rule:nonzero;stroke:none;stroke-width:2;stroke-miterlimit:4;stroke-dasharray:none;stroke-opacity:1;marker:none;enable-background:accumulate"
         d="m 330.1929,133.99999 c -5.61538,0 -6.21958,0.57678 -6.19206,6.20352 v 7.79648 7.79648 c -0.0276,5.62673 0.57668,6.20351 6.19206,6.20351 h 11.615 c 5.6154,0 6.19208,-0.5767 6.19208,-6.20351 v -7.79648 -7.79648 c 0,-5.6268 -0.5767,-6.20352 -6.19208,-6.20352 z"
         id="path961-62"
         inkscape:connector-curvature="0"
         sodipodi:nodetypes="scccssscsss" />
    </clipPath>
    <clipPath
       clipPathUnits="userSpaceOnUse"
       id="clipPath959-9">
      <path
         style="color:#000000;display:inline;overflow:visible;visibility:visible;opacity:1;fill:#46a926;fill-opacity:1;fill-rule:nonzero;stroke:none;stroke-width:2;stroke-miterlimit:4;stroke-dasharray:none;stroke-opacity:1;marker:none;enable-background:accumulate"
         d="m 330.1929,133.99999 c -5.61538,0 -6.21958,0.57678 -6.19206,6.20352 v 7.79648 7.79648 c -0.0276,5.62673 0.57668,6.20351 6.19206,6.20351 h 11.615 c 5.6154,0 6.19208,-0.5767 6.19208,-6.20351 v -7.79648 -7.79648 c 0,-5.6268 -0.5767,-6.20352 -6.19208,-6.20352 z"
         id="path961-1"
         inkscape:connector-curvature="0"
         sodipodi:nodetypes="scccssscsss" />
    </clipPath>
    <clipPath
       clipPathUnits="userSpaceOnUse"
       id="clipPath959-2">
      <path
         style="color:#000000;display:inline;overflow:visible;visibility:visible;opacity:1;fill:#46a926;fill-opacity:1;fill-rule:nonzero;stroke:none;stroke-width:2;stroke-miterlimit:4;stroke-dasharray:none;stroke-opacity:1;marker:none;enable-background:accumulate"
         d="m 330.1929,133.99999 c -5.61538,0 -6.21958,0.57678 -6.19206,6.20352 v 7.79648 7.79648 c -0.0276,5.62673 0.57668,6.20351 6.19206,6.20351 h 11.615 c 5.6154,0 6.19208,-0.5767 6.19208,-6.20351 v -7.79648 -7.79648 c 0,-5.6268 -0.5767,-6.20352 -6.19208,-6.20352 z"
         id="path961-7"
         inkscape:connector-curvature="0"
         sodipodi:nodetypes="scccssscsss" />
    </clipPath>
    <linearGradient
       inkscape:collect="always"
       xlink:href="#linearGradient927"
       id="linearGradient969"
       x1="336"
       y1="134"
       x2="336"
       y2="162"
       gradientUnits="userSpaceOnUse"
       gradientTransform="translate(-2.9999985,-2)" />
    <linearGradient
       inkscape:collect="always"
       id="linearGradient927">
      <stop
         style="stop-color:#ffffff;stop-opacity:1;"
         offset="0"
         id="stop923" />
      <stop
         id="stop933"
         offset="0.125"
         style="stop-color:#ffffff;stop-opacity:0.09803922" />
      <stop
         id="stop931"
         offset="0.92500001"
         style="stop-color:#ffffff;stop-opacity:0.09803922" />
      <stop
         style="stop-color:#ffffff;stop-opacity:0.49803922"
         offset="1"
         id="stop925" />
    </linearGradient>
    <clipPath
       clipPathUnits="userSpaceOnUse"
       id="clipPath1052">
      <path
         sodipodi:nodetypes="scccssscsss"
         inkscape:connector-curvature="0"
         id="path1054"
         d="m 333.1929,133.99999 c -5.61538,0 -6.21958,0.57678 -6.19206,6.20352 v 5.79648 5.79648 c -0.0276,5.62673 0.57668,6.20351 6.19206,6.20351 h 5.615 c 5.6154,0 6.19208,-0.5767 6.19208,-6.20351 v -5.79648 -5.79648 c 0,-5.6268 -0.5767,-6.20352 -6.19208,-6.20352 z"
         style="color:#000000;display:inline;overflow:visible;visibility:visible;opacity:1;fill:#46a926;fill-opacity:1;fill-rule:nonzero;stroke:none;stroke-width:2;stroke-miterlimit:4;stroke-dasharray:none;stroke-opacity:1;marker:none;enable-background:accumulate" />
    </clipPath>
    <linearGradient
       inkscape:collect="always"
       xlink:href="#linearGradient928"
       id="linearGradient1099"
       gradientUnits="userSpaceOnUse"
       x1="352"
       y1="68"
       x2="352"
       y2="96"
       gradientTransform="matrix(0.71428571,0,0,0.71428571,-229.71333,-42.999997)" />
    <linearGradient
       inkscape:collect="always"
       id="linearGradient928">
      <stop
         style="stop-color:#808080;stop-opacity:1"
         offset="0"
         id="stop924" />
      <stop
         style="stop-color:#999999;stop-opacity:1"
         offset="1"
         id="stop926" />
    </linearGradient>
    <linearGradient
       inkscape:collect="always"
       xlink:href="#linearGradient4338-3"
       id="linearGradient924"
       gradientUnits="userSpaceOnUse"
       gradientTransform="matrix(0,-0.07208805,-0.07208601,0,36.129597,31.818163)"
       x1="524.61066"
       y1="320.84784"
       x2="-30.266319"
       y2="320.84784" />
    <linearGradient
       inkscape:collect="always"
       id="linearGradient4338-3">
      <stop
         id="stop4342-7"
         offset="0"
         style="stop-color:#999999;stop-opacity:1" />
      <stop
         style="stop-color:#b7b7b7;stop-opacity:1"
         offset="0.61328125"
         id="stop932" />
      <stop
         id="stop4340-0"
         offset="1"
         style="stop-color:#dbdbdb;stop-opacity:1" />
    </linearGradient>
  </defs>
  <sodipodi:namedview
     pagecolor="#ffffff"
     bordercolor="#666666"
     borderopacity="1"
     objecttolerance="10"
     gridtolerance="10"
     guidetolerance="10"
     inkscape:pageopacity="0"
     inkscape:pageshadow="2"
     inkscape:window-width="1920"
     inkscape:window-height="1016"
     id="namedview10"
     showgrid="false"
     inkscape:zoom="14.75"
     inkscape:cx="8"
     inkscape:cy="8"
     inkscape:window-x="0"
     inkscape:window-y="27"
     inkscape:window-maximized="1"
     inkscape:current-layer="svg8" />
  <rect
     style="display:inline;opacity:1;fill:#c0bfbc;fill-opacity:1;stroke:#000000;stroke-width:1;stroke-linecap:round;stroke-linejoin:round;stroke-miterlimit:4;stroke-dasharray:none;stroke-dashoffset:1;stroke-opacity:0.4;enable-background:new"
     id="rect1037-7"
     width="11"
     height="5.0977445"
     x="10.500957"
     y="25.402256" />
  <rect
     style="display:inline;opacity:1;fill:#f6f5f4;fill-opacity:1;stroke:none;stroke-width:1;stroke-linecap:round;stroke-linejoin:round;stroke-miterlimit:4;stroke-dasharray:none;stroke-dashoffset:1;stroke-opacity:0.4;enable-background:new"
     id="rect951-6"
     width="10"
     height="7"
     x="11.000957"
     y="22.000004" />
  <path
     style="color:#000000;display:inline;overflow:visible;visibility:visible;fill:url(#linearGradient924);fill-opacity:1;fill-rule:nonzero;stroke:none;stroke-width:0.99999994;marker:none;enable-background:accumulate"
     d="m 18.806687,1.5000032 c 1.41241,0 2.52238,0.0342 3.42383,0.18555 0.90145,0.15132 1.61987,0.43164 2.14258,0.95312 0.5227,0.5214801 0.80325,1.2389801 0.95312,2.1406301 0.14988,0.90164 0.18075,2.0101 0.17383,3.42578 v 5.7949197 5.79688 c 0.007,1.41452 -0.024,2.52269 -0.17383,3.42382 -0.14987,0.90165 -0.43041,1.61915 -0.95312,2.14063 -0.52272,0.52148 -1.24112,0.8018 -2.14258,0.95312 -0.90146,0.15132 -2.01142,0.18555 -3.42383,0.18555 h -5.61523 c -1.41241,0 -2.51847,-0.0342 -3.4179701,-0.18555 -0.8995,-0.15137 -1.61597,-0.43149 -2.13672,-0.95312 -0.52075,-0.52163 -0.8000399,-1.23774 -0.9511699,-2.13867 -0.15113,-0.90094 -0.18555,-2.01055 -0.18555,-3.42578 v -5.79688 -5.7968797 c 0,-1.41524 0.0344,-2.52484 0.18555,-3.42578 0.15113,-0.90093 0.4304199,-1.61703 0.9511699,-2.1386701 0.52075,-0.52163 1.23722,-0.80175 2.13672,-0.95312 0.8995001,-0.15137 2.0055601,-0.18555 3.4179701,-0.18555 z"
     id="path922"
     inkscape:connector-curvature="0"
     sodipodi:nodetypes="sccccccccssscscscsccsss" />
  <path
     id="path1101"
     d="m 13.858097,11.571433 h 1.42857 v 6.40904 c -0.3654,-0.23208 -0.7423,-0.43673 -1.1077,-0.61943 -0.53571,-0.26786 -1.03065,-0.52638 -1.3365,-0.78124 -0.30583,-0.25486 -0.41294,-0.42504 -0.41294,-0.72266 0.78898,0 1.42857,-0.63959 1.42857,-1.42857 0,-0.78898 -0.63959,-1.42857 -1.42857,-1.42857 -0.78898,0 -1.42857,0.63959 -1.42857,1.42857 v 1.42857 c 0,0.77382 0.4286,1.4072 0.92634,1.82199 0.49773,0.41478 1.077,0.69197 1.61272,0.95983 0.53571,0.26785 1.02787,0.52638 1.33371,0.78124 0.30583,0.25486 0.41294,0.42504 0.41294,0.72266 -0.39571,0 -0.71428,0.31857 -0.71428,0.71428 v 1.42857 c 0,0.39572 0.31857,0.71429 0.71428,0.71429 h 1.42857 c 0.39572,0 0.71429,-0.31857 0.71429,-0.71429 v -1.42857 c 0,-0.39571 -0.31857,-0.71428 -0.71429,-0.71428 v -1.42858 c 0,-0.29761 0.10715,-0.4678 0.41295,-0.72265 0.30584,-0.25486 0.80078,-0.51339 1.3365,-0.78125 0.53571,-0.26785 1.1122,-0.54504 1.60993,-0.95982 0.49774,-0.41479 0.92634,-1.04817 0.92634,-1.82199 v -0.71428 -1.42858 c 0,-0.39571 -0.31857,-0.71428 -0.71429,-0.71428 h -1.42857 c -0.39571,0 -0.71428,0.31857 -0.71428,0.71428 v 1.42858 c 0,0.39571 0.31857,0.71428 0.71428,0.71428 h 0.71429 c 0,0.29762 -0.10715,0.4678 -0.41295,0.72266 -0.30584,0.25486 -0.798,0.51338 -1.33371,0.78124 -0.3658,0.18292 -0.74389,0.38699 -1.11049,0.61943 v -4.98047 h 1.42858 l -2.14286,-4.2857197 z"
     style="display:inline;opacity:0.2;fill:#ffffff;fill-opacity:1;stroke:none;stroke-width:2;stroke-linecap:round;stroke-linejoin:miter;stroke-miterlimit:4;stroke-dasharray:none;stroke-dashoffset:0;stroke-opacity:1;enable-background:new"
     inkscape:connector-curvature="0"
     sodipodi:nodetypes="cccsccsssscsccsssssscscscscsssssscccccccc" />
  <path
     sodipodi:nodetypes="cccsccsssscsccsssssscscscscsssssscccccccc"
     inkscape:connector-curvature="0"
     style="display:inline;opacity:1;fill:url(#linearGradient1099);fill-opacity:1;stroke:none;stroke-width:2;stroke-linecap:round;stroke-linejoin:miter;stroke-miterlimit:4;stroke-dasharray:none;stroke-dashoffset:0;stroke-opacity:1;enable-background:new"
     d="m 13.858097,10.571433 h 1.42857 v 6.40904 c -0.3654,-0.23208 -0.7423,-0.43673 -1.1077,-0.61943 -0.53571,-0.26786 -1.03065,-0.52638 -1.3365,-0.78124 -0.30583,-0.25486 -0.41294,-0.42504 -0.41294,-0.72266 0.78898,0 1.42857,-0.63959 1.42857,-1.42857 0,-0.78898 -0.63959,-1.42857 -1.42857,-1.42857 -0.78898,0 -1.42857,0.63959 -1.42857,1.42857 v 1.42857 c 0,0.77382 0.4286,1.4072 0.92634,1.82199 0.49773,0.41478 1.077,0.69197 1.61272,0.95983 0.53571,0.26785 1.02787,0.52638 1.33371,0.78124 0.30583,0.25486 0.41294,0.42504 0.41294,0.72266 -0.39571,0 -0.71428,0.31857 -0.71428,0.71428 v 1.42857 c 0,0.39572 0.31857,0.71429 0.71428,0.71429 h 1.42857 c 0.39572,0 0.71429,-0.31857 0.71429,-0.71429 v -1.42857 c 0,-0.39571 -0.31857,-0.71428 -0.71429,-0.71428 v -1.42858 c 0,-0.29761 0.10715,-0.4678 0.41295,-0.72265 0.30584,-0.25486 0.80078,-0.51339 1.3365,-0.78125 0.53571,-0.26785 1.1122,-0.54504 1.60993,-0.95982 0.49774,-0.41479 0.92634,-1.04817 0.92634,-1.82199 v -0.71428 -1.42858 c 0,-0.39571 -0.31857,-0.71428 -0.71429,-0.71428 h -1.42857 c -0.39571,0 -0.71428,0.31857 -0.71428,0.71428 v 1.42858 c 0,0.39571 0.31857,0.71428 0.71428,0.71428 h 0.71429 c 0,0.29762 -0.10715,0.4678 -0.41295,0.72266 -0.30584,0.25486 -0.798,0.51338 -1.33371,0.78124 -0.3658,0.18292 -0.74389,0.38699 -1.11049,0.61943 v -4.98047 h 1.42858 l -2.14286,-4.2857197 z"
     id="path1097" />
  <path
     id="path1089"
     d="m 13.194317,1.5000032 c -1.41241,0 -2.52238,0.0342 -3.4238301,0.18555 -0.90145,0.15132 -1.61987,0.43164 -2.14258,0.95312 -0.5227,0.5214801 -0.8032499,1.2389801 -0.9531199,2.1406301 -0.14988,0.90164 -0.18075,2.0101 -0.17383,3.42578 v 5.7949197 5.79688 c -0.007,1.41452 0.024,2.52269 0.17383,3.42382 0.14987,0.90165 0.4304099,1.61915 0.9531199,2.14063 0.52272,0.52148 1.24112,0.8018 2.14258,0.95312 0.9014601,0.15132 2.0114201,0.18555 3.4238301,0.18555 h 5.61523 c 1.41241,0 2.51847,-0.0342 3.41797,-0.18555 0.8995,-0.15137 1.61597,-0.43149 2.13672,-0.95312 0.52075,-0.52163 0.80004,-1.23774 0.95117,-2.13867 0.15113,-0.90094 0.18555,-2.01055 0.18555,-3.42578 v -5.79688 -5.7968797 c 0,-1.41524 -0.0344,-2.52484 -0.18555,-3.42578 -0.15113,-0.90093 -0.43042,-1.61703 -0.95117,-2.1386701 -0.52075,-0.52163 -1.23722,-0.80175 -2.13672,-0.95312 -0.8995,-0.15137 -2.00556,-0.18555 -3.41797,-0.18555 z"
     style="color:#000000;display:inline;overflow:visible;visibility:visible;opacity:0.4;fill:none;fill-opacity:1;fill-rule:nonzero;stroke:#000000;stroke-width:0.99999994;stroke-opacity:1;marker:none;enable-background:accumulate"
     inkscape:connector-curvature="0"
     sodipodi:nodetypes="sccccccccssscscscsccsss" />
  <path
     transform="translate(-319.99904,-132)"
     sodipodi:nodetypes="scccssscsss"
     inkscape:connector-curvature="0"
     id="path939"
     d="m 333.1929,133.99999 c -5.61538,0 -6.21958,0.57678 -6.19206,6.20352 v 5.79648 5.79648 c -0.0276,5.62673 0.57668,6.20351 6.19206,6.20351 h 5.615 c 5.6154,0 6.19208,-0.5767 6.19208,-6.20351 v -5.79648 -5.79648 c 0,-5.6268 -0.5767,-6.20352 -6.19208,-6.20352 z"
     style="color:#000000;display:inline;overflow:visible;visibility:visible;opacity:0.4;fill:none;fill-opacity:1;fill-rule:nonzero;stroke:url(#linearGradient969);stroke-width:2;stroke-miterlimit:4;stroke-dasharray:none;stroke-opacity:1;marker:none;enable-background:accumulate"
     clip-path="url(#clipPath1052)" />
</svg>
