<svg height="32" width="32" xmlns="http://www.w3.org/2000/svg" xmlns:xlink="http://www.w3.org/1999/xlink"><linearGradient id="a" gradientUnits="userSpaceOnUse" x1="338" x2="338" y1="137" y2="158"><stop offset="0" stop-color="#fff"/><stop offset=".125" stop-color="#fff" stop-opacity=".098039"/><stop offset=".92500001" stop-color="#fff" stop-opacity=".098039"/><stop offset="1" stop-color="#fff" stop-opacity=".498039"/></linearGradient><clipPath id="b"><path d="m350.9998 152.99999c0 5.00001-1.95653 4.9417-7 5.00001h-15.9998c-5.04347-.0583-7 0-7-5.00001v-11.0002c0-5.00001 1.95653-4.9417 7-5.00001h15.9998c5.04347.0583 7 0 7 5.00001z"/></clipPath><linearGradient id="c" gradientUnits="userSpaceOnUse" x1="17" x2="17" y1="6" y2="27"><stop offset="0" stop-color="#cdcdcd"/><stop offset="1" stop-color="#d9d9d9"/></linearGradient><path d="m30.9998 22.99999c0 5.00001-1.95653 4.9417-7 5.00001h-15.9998c-5.04347-.0583-7 0-7-5.00001v-11.0002c0-5.0000099 1.95653-4.9416999 7-5.0000099h15.9998c5.04347.0583 7 0 7 5.0000099z" fill="none" opacity=".2" stroke="#000" stroke-width="2"/><path d="m7.99414 5.5000001c-2.51906.0291-4.31442-.0152-5.62695.70898-.65627.36209-1.15539.94448-1.45117 1.73243s-.41602 1.7759799-.41602 3.0585899v11c0 1.28261.12024 2.27064.41602 3.05859s.7949 1.37034 1.45117 1.73243c1.31253.72418 3.10789.67986 5.62695.70898h.004 16.0039.004c2.51906-.0291 4.31442.0152 5.62695-.70898.65627-.36209 1.15539-.94448 1.45117-1.73243.29542-.78795.41584-1.77598.41584-3.05859v-11c0-1.28261-.12024-2.2706399-.41602-3.0585899s-.7949-1.37034-1.45117-1.73243c-1.31253-.72418-3.10789-.67986-5.62695-.70898h-.004-16.0039z" fill="url(#c)"/><path d="m7.99414 5.5000001c-2.51906.0291-4.31442-.0152-5.62695.70898-.65627.36209-1.15539.94448-1.45117 1.73243s-.41602 1.7759799-.41602 3.0585899v11c0 1.28261.12024 2.27064.41602 3.05859s.7949 1.37034 1.45117 1.73243c1.31253.72418 3.10789.67986 5.62695.70898h.004 16.0039.004c2.51906-.0291 4.31442.0152 5.62695-.70898.65627-.36209 1.15539-.94448 1.45117-1.73243.29542-.78795.41584-1.77598.41584-3.05859v-11c0-1.28261-.12024-2.2706399-.41602-3.0585899s-.7949-1.37034-1.45117-1.73243c-1.31253-.72418-3.10789-.67986-5.62695-.70898h-.004-16.0039z" fill="none" opacity=".3" stroke="#000"/><path clip-path="url(#b)" d="m350.9998 152.99999c0 5.00001-1.95653 4.9417-7 5.00001h-15.9998c-5.04347-.0583-7 0-7-5.00001v-11.0002c0-5.00001 1.95653-4.9417 7-5.00001h15.9998c5.04347.0583 7 0 7 5.00001z" fill="none" opacity=".2" stroke="url(#a)" stroke-width="2" transform="translate(-320 -131)"/><g fill-rule="evenodd"><path d="m4 10v3h3v-3zm5 0v3h3v-3zm5 0v3h3v-3zm5 0v3h3v-3zm4.9649 0v3h3v-3zm-17.00598 5 .012 3h2.99387v-3zm5.00587 0v3h3v-3zm5 0v3h3v-3zm5 0v3h3v-3zm-17 5v3h3v-3zm5 0v3h13v-3zm14.9649 0 .0351 3h2.98242l-.0351-3z" opacity=".05" stroke="#000" stroke-linejoin="round" stroke-width="2"/><path d="m4 11v3h3v-3zm5 0v3h3v-3zm5 0v3h3v-3zm5 0v3h3v-3zm4.9649 0v3h3v-3zm-17.00598 5 .012 3h2.99387v-3zm5.00587 0v3h3v-3zm5 0v3h3v-3zm5 0v3h3v-3zm-17 5v3h3v-3zm5 0v3h13v-3zm14.9649 0 .0351 3h2.98242l-.0351-3z" opacity=".25"/><path d="m4 10v3h3v-3zm5 0v3h3v-3zm5 0v3h3v-3zm5 0v3h3v-3zm4.9649 0v3h3v-3zm-17.00598 5 .012 3h2.99387v-3zm5.00587 0v3h3v-3zm5 0v3h3v-3zm5 0v3h3v-3zm-17 5v3h3v-3zm5 0v3h13v-3zm14.9649 0 .0351 3h2.98242l-.0351-3z" fill="#f7f7f7"/></g></svg>