<svg height="32" width="32" xmlns="http://www.w3.org/2000/svg" xmlns:xlink="http://www.w3.org/1999/xlink"><linearGradient id="a" gradientUnits="userSpaceOnUse" x1="338" x2="338" y1="137" y2="158"><stop offset="0" stop-color="#fff"/><stop offset=".125" stop-color="#fff" stop-opacity=".098039"/><stop offset=".92500001" stop-color="#fff" stop-opacity=".098039"/><stop offset="1" stop-color="#fff" stop-opacity=".498039"/></linearGradient><clipPath id="b"><path d="m350.9998 152.99999c0 5.00001-1.95653 4.9417-7 5.00001h-15.9998c-5.04347-.0583-7 0-7-5.00001v-11.0002c0-5.00001 1.95653-4.9417 7-5.00001h15.9998c5.04347.0583 7 0 7 5.00001z"/></clipPath><linearGradient id="c" gradientTransform="matrix(1.3333333 0 0 1.1515151 -103.99999 -86.181812)" gradientUnits="userSpaceOnUse" x1="337" x2="337" y1="137" y2="158"><stop offset="0" stop-color="#cdcdcd"/><stop offset="1" stop-color="#d9d9d9"/></linearGradient><g enable-background="new" transform="matrix(.75 0 0 .75 -242 -47)"><path d="m363.99973 91.285757c0 5.71424-2.6087 5.6476-9.33333 5.71424h-21.33307c-6.72462-.06667-9.33333 0-9.33333-5.71424v-12.57152c0-5.71424 2.60871-5.6476 9.33333-5.71424h21.33307c6.72463.06667 9.33333 0 9.33333 5.71424z" fill="none" opacity=".2" stroke="#000" stroke-width="2.666667"/><path d="m333.32552 70.999997c-3.35875.0336-5.75256-.01747-7.5026.8164-.87503.416947-1.54052 1.087587-1.93489 1.99492-.39438.907333-.5547 2.045067-.5547 3.522013v12.666667c0 1.476947.16032 2.61468.5547 3.522013.39437.907334 1.05986 1.57796 1.93489 1.99492 1.75004.833907 4.14385.782867 7.5026.8164h.005 21.33854.005c3.35875-.0336 5.75256.01747 7.5026-.8164.87503-.41696 1.54052-1.087586 1.93489-1.99492.3939-.907333.55446-2.045066.55446-3.522013v-12.666667c0-1.476946-.16032-2.61468-.5547-3.522013-.39437-.907333-1.05986-1.577973-1.93489-1.99492-1.75004-.833907-4.14385-.782867-7.5026-.8164h-.005-21.33854z" fill="url(#c)"/><path d="m333.32552 70.999997c-3.35875.0336-5.75256-.01747-7.5026.8164-.87503.416947-1.54052 1.087587-1.93489 1.99492-.39438.907333-.5547 2.045067-.5547 3.522013v12.666667c0 1.476947.16032 2.61468.5547 3.522013.39437.907334 1.05986 1.57796 1.93489 1.99492 1.75004.833907 4.14385.782867 7.5026.8164h.005 21.33854.005c3.35875-.0336 5.75256.01747 7.5026-.8164.87503-.41696 1.54052-1.087586 1.93489-1.99492.3939-.907333.55446-2.045066.55446-3.522013v-12.666667c0-1.476946-.16032-2.61468-.5547-3.522013-.39437-.907333-1.05986-1.577973-1.93489-1.99492-1.75004-.833907-4.14385-.782867-7.5026-.8164h-.005-21.33854z" fill="none" opacity=".3" stroke="#000" stroke-width="1.333333"/><path clip-path="url(#b)" d="m350.9998 152.99999c0 5.00001-1.95653 4.9417-7 5.00001h-15.9998c-5.04347-.0583-7 0-7-5.00001v-11.0002c0-5.00001 1.95653-4.9417 7-5.00001h15.9998c5.04347.0583 7 0 7 5.00001z" fill="none" opacity=".2" stroke="url(#a)" stroke-width="2.160258" transform="matrix(1.3333333 0 0 1.1428452 -104 -84.90287)"/><path d="m323.33333 84.999997v4c0 1.710147.16032 3.02752.5547 4.07812.39437 1.0506 1.05986 1.82712 1.93489 2.309907 1.75004.965573 4.14385.90648 7.5026.945306h.005 21.33854.005c3.35875-.0388 5.75256.02027 7.5026-.945306.87503-.482787 1.54052-1.259307 1.93489-2.309907.39366-1.0506.55446-2.367973.55446-4.07812v-4z" opacity=".15"/><path d="m323.33334 83.666656h41.333332v1.333333h-41.333332z" fill="#fff" opacity=".2"/><path d="m330.33333 72.999997h27.33334c.554 0 1 .297333 1 .666667v.666666h-29.33334v-.666666c0-.369334.446-.666667 1-.666667z" opacity=".3"/><path d="m328 90.33333h32v.666667 1.333333c0 1.108-.892 2-2 2h-28c-1.108 0-2-.892-2-2v-1.333333z" opacity=".3"/><path d="m333.99961 103.66667c-1.108 0-2.10504-.89699-2-2v-11.33334h24.00039v11.33334c0 1.108-.892 2-2 2zm-2-29.33334v-8.666666c0-1.108.892-2 2-2h20.00039c1.108 0 2 .736573 2 2v8.666666z" fill="#939393"/><path d="m334.66628 102.33333c-.831 0-1.41603-.50645-1.33333-1.33333v-10.66667h21.33372v10.66667c0 .831-.50235 1.33333-1.33334 1.33333zm-1.33333-28v-8c0-.831.50233-1.333333 1.33333-1.333333h18.66705c.831 0 1.33334 0 1.33334 1.333333v8z" fill="#faf8f6"/><rect fill="#939393" height="1.333336" opacity=".5" rx=".583333" ry=".5" width="16" x="335.99963" y="98.333328"/><rect fill="#939393" height="1.333336" opacity=".5" rx=".583333" ry=".5" width="16" x="335.99963" y="94.333328"/><rect fill="#46a926" height="1.333333" rx=".666667" width="1.333333" x="358.66666" y="80.999992"/><rect fill="#f34f17" height="1.333333" rx=".666667" width="1.333333" x="354.66666" y="80.999992"/><rect fill="#f22c42" height="1.333333" rx=".666667" width="1.333333" x="350.66666" y="80.999992"/><path d="m328 90.333328h32v1.333333h-32z" opacity=".4"/></g></svg>