<?xml version="1.0" encoding="UTF-8" standalone="no"?>
<svg
   xmlns:dc="http://purl.org/dc/elements/1.1/"
   xmlns:cc="http://creativecommons.org/ns#"
   xmlns:rdf="http://www.w3.org/1999/02/22-rdf-syntax-ns#"
   xmlns:svg="http://www.w3.org/2000/svg"
   xmlns="http://www.w3.org/2000/svg"
   xmlns:sodipodi="http://sodipodi.sourceforge.net/DTD/sodipodi-0.dtd"
   xmlns:inkscape="http://www.inkscape.org/namespaces/inkscape"
   width="24"
   height="24"
   version="1"
   id="svg10"
   sodipodi:docname="simplescreenrecorder-error.svg"
   inkscape:version="0.92.3 (2405546, 2018-03-11)">
  <metadata
     id="metadata14">
    <rdf:RDF>
      <cc:Work
         rdf:about="">
        <dc:format>image/svg+xml</dc:format>
        <dc:type
           rdf:resource="http://purl.org/dc/dcmitype/StillImage" />
        <dc:title></dc:title>
      </cc:Work>
    </rdf:RDF>
  </metadata>
  <sodipodi:namedview
     pagecolor="#ffffff"
     bordercolor="#666666"
     borderopacity="1"
     objecttolerance="10"
     gridtolerance="10"
     guidetolerance="10"
     inkscape:pageopacity="0"
     inkscape:pageshadow="2"
     inkscape:window-width="1348"
     inkscape:window-height="769"
     id="namedview12"
     showgrid="false"
     inkscape:zoom="9.8333333"
     inkscape:cx="29.8565"
     inkscape:cy="12"
     inkscape:window-x="498"
     inkscape:window-y="126"
     inkscape:window-maximized="0"
     inkscape:current-layer="g836" />
  <defs
     id="defs4">
    <style
       type="text/css"
       id="style2">.ColorScheme-Text { color:#5c616c; } .ColorScheme-Highlight { color:#5294e2; } .ColorScheme-ButtonBackground { color:#d3dae3; }</style>
  </defs>
  <g
     id="g836"
     style="fill:#ffffff;fill-opacity:1">
    <path
       inkscape:connector-curvature="0"
       id="path831"
       d="M 11.9375,3.125 C 7.0073774,3.125 3,7.1323774 3,12.0625 3,16.992623 7.0073774,21 11.9375,21 c 4.930123,0 8.9375,-4.007377 8.9375,-8.9375 0,-4.9301226 -4.007377,-8.9375 -8.9375,-8.9375 z m 0,1 c 4.389683,0 7.9375,3.5478175 7.9375,7.9375 C 19.875,16.452183 16.327183,20 11.9375,20 7.5478175,20 4,16.452183 4,12.0625 4,7.6728175 7.5478175,4.125 11.9375,4.125 Z"
       style="color:#000000;font-style:normal;font-variant:normal;font-weight:normal;font-stretch:normal;font-size:medium;line-height:normal;font-family:sans-serif;font-variant-ligatures:normal;font-variant-position:normal;font-variant-caps:normal;font-variant-numeric:normal;font-variant-alternates:normal;font-feature-settings:normal;text-indent:0;text-align:start;text-decoration:none;text-decoration-line:none;text-decoration-style:solid;text-decoration-color:#000000;letter-spacing:normal;word-spacing:normal;text-transform:none;writing-mode:lr-tb;direction:ltr;text-orientation:mixed;dominant-baseline:auto;baseline-shift:baseline;text-anchor:start;white-space:normal;shape-padding:0;clip-rule:nonzero;display:inline;overflow:visible;visibility:visible;opacity:1;isolation:auto;mix-blend-mode:normal;color-interpolation:sRGB;color-interpolation-filters:linearRGB;solid-color:#000000;solid-opacity:1;vector-effect:none;fill:#ffffff;fill-opacity:1;fill-rule:nonzero;stroke:none;stroke-width:1;stroke-linecap:round;stroke-linejoin:round;stroke-miterlimit:4;stroke-dasharray:none;stroke-dashoffset:0;stroke-opacity:1;color-rendering:auto;image-rendering:auto;shape-rendering:auto;text-rendering:auto;enable-background:accumulate" />
    <path
       inkscape:connector-curvature="0"
       id="path833"
       d="m 11.9375,5.4335938 c -3.6548616,0 -6.6289063,2.9740449 -6.6289062,6.6289062 0,3.654861 2.9740446,6.628906 6.6289062,6.628906 3.654862,0 6.628906,-2.974045 6.628906,-6.628906 0,-3.6548613 -2.974044,-6.6289063 -6.628906,-6.6289062 z m 0,1 c 3.114421,0 5.628906,2.514485 5.628906,5.6289062 0,3.114421 -2.514485,5.628906 -5.628906,5.628906 -3.1144215,0 -5.6289062,-2.514485 -5.6289062,-5.628906 -10e-8,-3.1144212 2.5144847,-5.6289062 5.6289062,-5.6289062 z"
       style="color:#000000;font-style:normal;font-variant:normal;font-weight:normal;font-stretch:normal;font-size:medium;line-height:normal;font-family:sans-serif;font-variant-ligatures:normal;font-variant-position:normal;font-variant-caps:normal;font-variant-numeric:normal;font-variant-alternates:normal;font-feature-settings:normal;text-indent:0;text-align:start;text-decoration:none;text-decoration-line:none;text-decoration-style:solid;text-decoration-color:#000000;letter-spacing:normal;word-spacing:normal;text-transform:none;writing-mode:lr-tb;direction:ltr;text-orientation:mixed;dominant-baseline:auto;baseline-shift:baseline;text-anchor:start;white-space:normal;shape-padding:0;clip-rule:nonzero;display:inline;overflow:visible;visibility:visible;opacity:1;isolation:auto;mix-blend-mode:normal;color-interpolation:sRGB;color-interpolation-filters:linearRGB;solid-color:#000000;solid-opacity:1;vector-effect:none;fill:#ffffff;fill-opacity:1;fill-rule:nonzero;stroke:none;stroke-width:1;stroke-linecap:round;stroke-linejoin:round;stroke-miterlimit:4;stroke-dasharray:none;stroke-dashoffset:0;stroke-opacity:1;color-rendering:auto;image-rendering:auto;shape-rendering:auto;text-rendering:auto;enable-background:accumulate" />
    <g
       transform="matrix(0.85616438,0,0,0.85616438,16.247288,-3.6487697)"
       id="g887"
       style="fill:#ff3f3f;fill-opacity:1"
       inkscape:transform-center-x="-22.474576"
       inkscape:transform-center-y="2.8474576">
      <path
         inkscape:connector-curvature="0"
         d="m -8.937833,22.438763 h 1.808 l 1.664,-2.352 c 0.16,-0.208 0.32,-0.448 0.432,-0.656 0.112,0.208 0.272,0.448 0.416,0.656 l 1.68,2.352 h 1.808 l -2.992,-4.224 2.8,-3.952 h -1.824 l -1.472,2.064 c -0.144,0.208 -0.304,0.448 -0.416,0.656 -0.112,-0.208 -0.272,-0.448 -0.432,-0.656 l -1.456,-2.064 h -1.824 l 2.8,3.952 z"
         style="fill:#ff3f3f;fill-opacity:1"
         id="path885" />
    </g>
  </g>
</svg>
