<svg id="svg18" height="16" viewBox="0 0 16 16" width="16" xmlns="http://www.w3.org/2000/svg">
  <g id="g8" fill="#e95420" stroke-width=".734577" transform="matrix(.47153608 -.47153608 .47153608 .47153608 19.130864 6.81629)">
    <path id="path2" d="m-2.2562701-10.912818h-3.1895894l.0000002-1.468996a31.447228 31.447228 0 0 0 -1.7063897.866383 37.871102 37.871102 0 0 0 -1.6607373.968848 32.909036 32.909036 0 0 0 1.6587082.9810219 27.160973 27.160973 0 0 0 1.7063898.8562385l-.0000003-1.4689974 3.3377064.000001a3.0124447 2.9515875 45 0 1 -.1460879-.734499z"/>
    <path id="path4" d="m-13.374687-21.224707v3.189589h-1.468996a31.447228 31.447228 0 0 0 .866383 1.70639 37.871102 37.871102 0 0 0 .968848 1.660737 32.909036 32.909036 0 0 0 .981021-1.658708 27.160973 27.160973 0 0 0 .856239-1.70639h-1.468997l.000001-3.337706a2.9515875 3.0124447 45 0 1 -.734499.146088z"/>
    <path id="path6" d="m-12.991478-11.261382-2.222855 2.287442-1.053504-1.0237577a31.447228 31.447228 0 0 0 -.567865 1.8275433 37.871102 37.871102 0 0 0 -.462566 1.8662122 32.909036 32.909036 0 0 0 1.859518-.5058738 27.160973 27.160973 0 0 0 1.803259-.6270317l-1.053505-1.0237583 2.326081-2.393665a2.9515875 3.0124447 89.179591 0 1 -.628563-.407111z"/>
  </g>
  <g id="g16" fill="#1d99f3" fill-rule="evenodd" transform="matrix(.66685272 0 0 .66685272 -987.63316 51.378508)">
    <path id="path10" d="m3.9960938 1c-1.364 0-2.4960938 1.1320718-2.4960938 2.4960938v.00781c0 1.3640254 1.1320938 2.4960962 2.4960938 2.4960962 1.3639999 0 2.4980468-1.1320708 2.4980468-2.4960938v-.00781c0-1.3640244-1.1340469-2.4960962-2.4980468-2.4960962zm16.0000002 0c-1.364 0-2.496094 1.1320718-2.496094 2.4960938v.00781c0 1.3640254 1.132094 2.4960962 2.496094 2.4960962s2.498047-1.1320708 2.498047-2.4960938v-.00781c0-1.3640244-1.134047-2.4960962-2.498047-2.4960962z" transform="translate(1481.036 -77.302739)"/>
    <path id="path12" d="m1493.0363-68.309247c-1.3658 0-2.5 1.134207-2.5 2.500004v.0065c0 1.365798 1.1342 2.500004 2.5 2.500004 1.3657 0 2.5-1.134206 2.5-2.500004v-.0065c0-1.365797-1.1343-2.500004-2.5-2.500004z"/>
    <path id="path14" d="m1493.0363-58.809255c-1.3658 0-2.5 1.134207-2.5 2.500004v.0065c0 1.365798 1.1342 2.500004 2.5 2.500004 1.3657 0 2.5-1.134206 2.5-2.500004v-.0065c0-1.365797-1.1343-2.500004-2.5-2.500004z"/>
  </g>
</svg>
