<svg id="svg12" height="16" viewBox="0 0 4.233125 4.233125" width="16" xmlns="http://www.w3.org/2000/svg">
  <g id="g10" transform="matrix(.14048679 0 0 .14048679 2.176011 2.703254)">
    <path id="path2" d="m-.42316097-19.242051c-8.32067663 0-15.06591803 6.745242-15.06591803 15.0659186 0 8.3206773 6.7452414 15.0659174 15.06591803 15.0659174 8.32067807 0 15.06591797-6.7452401 15.06591797-15.0659174 0-8.3206766-6.7452399-15.0659186-15.06591797-15.0659186z" fill="#45a925"/>
    <path id="path4" d="m-2.1296879-12.785228c-.3974568 0-.7230315.361956-.7230315.807104v5.6497169h-5.6497192c-.4451477 0-.7986946.3171677-.7986946.7146205v2.8753044c0 .397457.3535469.7146248.7986946.7146248h5.6497192v5.649717c0 .4451477.3255745.8071032.7230315.8071032h2.86689373c.39745477 0 .72302937-.3619555.72302937-.8071032v-5.649717h5.6497209c.445145 0 .798696-.3171678.798696-.7146248v-2.8753044c0-.3974528-.353551-.7146205-.798696-.7146205h-5.6497209v-5.6497169c0-.445148-.3255746-.807104-.72302937-.807104z" fill="#fff"/>
    <path id="path6" d="m8 .5c-4.1421356 0-7.5 3.3578644-7.5 7.5 0 .084335.0109097.1663374.0136719.25.13290424-4.0254706 3.428527-7.25 7.4863281-7.25 4.057802 0 7.353424 3.2245294 7.486328 7.25.002762-.0836626.013672-.1656655.013672-.25 0-4.1421356-3.357864-7.5-7.5-7.5z" fill="#fff" opacity=".3" transform="matrix(2.008789 0 0 2.008789 -16.493474 -20.246445)"/>
    <path id="path8" d="m-.42316954 10.889785c8.32067634 0 15.06591654-6.7452415 15.06591654-15.0659175 0-.16941-.02192-.334137-.02746-.502197-.266977 8.086321-6.8871865 14.5637201-15.03845254 14.5637201-8.15126796 0-14.77147746-6.4773991-15.03845346-14.5637201-.0055.16806-.02746.332787-.02746.502197 0 8.320677 6.7452415 15.0659175 15.06591846 15.0659175z" opacity=".2"/>
  </g>
</svg>
