<svg id="svg8" height="16" viewBox="0 0 4.233125 4.233125" width="16" xmlns="http://www.w3.org/2000/svg">
  <g id="g6" enable-background="new" fill="#45a925" stroke-width=".642857" transform="matrix(.30866537 0 0 -.30866537 -113.089284 22.931797)">
    <path id="path2" d="m.5 3v10h1v-10zm8 0-6.5 5 6.5 5v-3.3339844h6.5v-3.3320312h-6.5z" stroke-width=".75" transform="matrix(.85714284 0 0 -.85714284 366.38151 74.293392)"/>
    <path id="path826" d="m.5 3v.5h1v-.5zm8 0-6.5 5 .3242188.25 6.1757812-4.75zm0 3.3339844v.5h6.5v-.5z" fill="#fff" opacity=".3" stroke-width=".75" transform="matrix(.85714284 0 0 -.85714284 366.38151 74.293392)"/>
    <path id="path831" d="m366.81008 63.150535v.428571h.85714v-.428571zm6.85714 0-5.57142 4.285714.2779.214285 5.29352-4.071428zm0 2.8577v.428572h5.57143v-.428572z" fill="#000" opacity=".2" stroke-width=".642857"/>
  </g>
</svg>
