<svg id="svg35" height="16" width="16" xmlns="http://www.w3.org/2000/svg" xmlns:xlink="http://www.w3.org/1999/xlink">
  <linearGradient id="a" gradientUnits="userSpaceOnUse" x1="624.00006" x2="688" y1="369.23853" y2="369.23853">
    <stop id="stop2" offset="0" stop-color="#5884f4"/>
    <stop id="stop4" offset=".27800092" stop-color="#5884f4"/>
    <stop id="stop6" offset=".27800092" stop-color="#2f5fdd"/>
    <stop id="stop8" offset=".70735365" stop-color="#2f5fdd"/>
    <stop id="stop10" offset=".70936078" stop-color="#234db8"/>
    <stop id="stop12" offset="1" stop-color="#234db8"/>
  </linearGradient>
  <g id="g835" enable-background="new" transform="matrix(.10298176 0 0 .10298176 -27.106093 -1.401239)">
    <path id="path827" d="m380.06781 130.4619-12.00001-12" fill="none" stroke="#888" stroke-width="11.999999"/>
    <path id="path829" d="m383.72461 122.80469-11.31445 11.31445 30 30 11.31445-11.31445z" fill="#666"/>
    <circle id="circle831" cx="328.06778" cy="78.461899" fill="#aee3f8" r="55" stroke="#808080" stroke-width="10"/>
    <circle id="circle833" cx="319.26477" cy="53.547764" fill="#fff" opacity=".7" r="19.420916"/>
  </g>
  <g id="g33" enable-background="new" stroke-width="9.714287" transform="matrix(.04974776 .04974776 -.05395526 .05395526 -11.025803 -38.24326)">
    <path id="path27" d="m688.00003 319.35584-32 81.13762-31.99999-81.13762v-11.06422h63.99999z" fill="#fee1c2"/>
    <path id="path29" d="m645.81253 374.67694 10.1875 25.81651 10.1875-25.81651s.77644-2.76606-1.20553-2.76606-3.94669 3.68807-3.94669 3.68807-1.03528-4.61009-5.01377-4.61009c-3.9785 0-5.01378 4.61009-5.01378 4.61009s-2.00773-3.68807-4.00773-3.68807-1.1875 2.76606-1.1875 2.76606z" fill="#5d5d5d"/>
    <path id="path31" d="m624.00004 319.35583c0-7.37615 17.99999-3.68808 17.99999 7.37614 0-18.44036 28-18.44036 28 0 0-11.06422 18-14.75229 18-7.37614v-185.89981h-63.99999z" fill="url(#a)"/>
  </g>
</svg>
