<svg id="svg19" height="16" width="16" xmlns="http://www.w3.org/2000/svg" xmlns:xlink="http://www.w3.org/1999/xlink">
  <linearGradient id="a" gradientTransform="matrix(0 -.03089488 .02703226 0 2.577424 17.386363)" gradientUnits="userSpaceOnUse" x1="459.03448" x2="35.310345" y1="419.23337" y2="207.36522">
    <stop id="stop2" offset="0" stop-color="#f2f2f2"/>
    <stop id="stop4" offset="1" stop-color="#f9f9f9"/>
  </linearGradient>
  <rect id="rect850" fill="#6c6c6c" height="13" rx=".53292" ry=".531462" width="10" y="2"/>
  <path id="rect864" d="m.5332031 2c-.29523742 0-.5332031.2368201-.5332031.53125v.5c0-.2944299.23796568-.53125.5332031-.53125h8.9335939c.295237 0 .533203.2368201.533203.53125v-.5c0-.2944299-.237966-.53125-.533203-.53125z" fill="#fff" opacity=".3"/>
  <path id="path11" d="m3.3872353.0603857c.5375883 1.6127648-.1091627 2.0299333-1.0751765 2.1366982v1.1029161l5.3758824-.0140545v-1.0751768c-1.3339715.0066802-1.6127647-.5375881-1.0751766-2.1503529h-3.2255293z" fill="#7e2c50"/>
  <path id="path869" d="m9.466797 15c.295237 0 .533203-.23682.533203-.53125v-.5c0 .29443-.237966.53125-.533203.53125h-8.933594c-.29523702 0-.533203-.23682-.533203-.53125v.5c0 .29443.23796598.53125.533203.53125z" opacity=".2"/>
  <path id="path15" d="m9.0733461 3.749998c-2.1057675 0-2.3323433.2471914-2.3220225 2.6586513v3.3413482 3.3413495c-.01035 2.411459.216255 2.658651 2.3220225 2.658651h4.3556249c2.105775 0 2.32203-.247156 2.32203-2.658651v-3.3413495-3.3413482c0-2.4114855-.216263-2.6586513-2.32203-2.6586513z" fill="url(#a)" stroke-width=".945682"/>
  <path id="path852" d="m9.0732656 3.499998c-.531333 0-.950263.013208-1.2988281.080078s-.6392406.1965115-.84375.4296875c-.4090187.4663522-.4348816 1.1867946-.4296875 2.4003907v3.3398438 3.341797c-.00516 1.211862.020987 1.932453.4296875 2.398437.2045116.233176.4951829.362818.84375.429688s.7674951.08008 1.2988281.08008h4.3554684c.531335 0 .95096-.01318 1.298828-.08008.347869-.0669.636125-.196472.839844-.429688.407438-.466431.433594-1.185217.433594-2.398437v-3.341797-3.3417969c0-1.2132161-.026155-1.9320051-.433594-2.3984375-.203719-.2332162-.491975-.3627837-.839844-.4296875-.347868-.0669037-.767495-.0800781-1.298828-.0800781zm0 .5h4.3554684c.521551 0 .92015.017467 1.205078.072266.284929.054799.443074.1375672.556641.2675782.227135.2600215.310547.8700895.310547 2.0683589v3.3417969 3.341797c0 1.198274-.08341 1.808339-.310547 2.068359-.113566.13001-.271712.21278-.556641.267578-.284928.0548-.683524.07227-1.205078.07227h-4.3554684c-.5215507 0-.9192331-.01743-1.2050781-.07227s-.44648-.137523-.5605469-.267578c-.2281337-.260109-.3117818-.870497-.3066406-2.068359v-3.341797-3.3417969c-.0051267-1.1978638.0785098-1.8082508.3066406-2.0683593.1140654-.1300543.2747044-.2127414.5605469-.2675782s.6835274-.0722656 1.2050781-.0722656z" fill="#6c6c6c"/>
  <path id="path854" d="m3.3867188.06054687c.0610033.18301005.1029992.34648741.1347656.50000001h2.9433594c.0395077-.15536812.087846-.31822564.1484374-.50000001zm.1660156 1.22656253c-.0996416.6180016-.5923005.8385459-1.2402344.9101562v.5c.7980326-.0881994 1.3656827-.3992267 1.2402344-1.4101562zm2.828125.2167968c-.1151525.8846218.2793941 1.2121755 1.3066406 1.2070313v-.5c-.8034544.0040235-1.2165805-.1982392-1.3066406-.7070313z" fill="#fff" opacity=".3"/>
  <path id="path859" d="m3.3867188.06054687c.0934818.28044544.1396094.51376776.1660156.72656251.0320578-.19883038.0291594-.43463122-.03125-.72656251zm3.078125 0c-.0998957.39284973-.1265976.70261739-.0839844.94335933.0343833-.26413874.1088122-.57253032.2324218-.94335933zm1.2226562 2.72460933-5.375.015625v.5l5.375-.015625z" opacity=".2"/>
</svg>
