<svg id="svg4" viewBox="0 0 16 16" xmlns="http://www.w3.org/2000/svg">
  <g stroke-width="1.166667">
    <path id="path2" d="m2.1666667 1v1.1666667h-1.1666667v1.1666666h1.1666667v2.3333334h-1.1666667v1.1666666h1.1666667v2.3333334h-1.1666667v1.1666663h1.1666667v2.333334h-1.1666667v1.166666h1.1666667v1.166667h1.1666666v-1.166667h2.3333334v1.166667h1.1666666v-1.166667h2.3333337v1.166667h1.166666v-1.166667h2.333334v1.166667h1.166666v-1.166667h1.166667v-1.166666h-1.166667v-2.333334h1.166667v-1.1666663h-1.166667v-2.3333334h1.166667v-1.1666666h-1.166667v-2.3333334h1.166667v-1.1666666h-1.166667v-1.1666667h-1.166666v1.1666667h-2.333334v-1.1666667h-1.166666v1.1666667h-2.3333337v-1.1666667h-1.1666666v1.1666667h-2.3333334v-1.1666667zm1.1666666 2.3333333h2.3333334v2.3333334h-2.3333334zm3.5 0h2.3333337v2.3333334h-2.3333337zm3.4999997 0h2.333334v2.3333334h-2.333334zm-6.9999997 3.5h2.3333334v2.3333334h-2.3333334zm3.5 0h2.3333337v2.3333334h-2.3333337zm3.4999997 0h2.333334v2.3333334h-2.333334zm-6.9999997 3.4999997h2.3333334v2.333334h-2.3333334zm3.5 0h2.3333337v2.333334h-2.3333337zm3.4999997 0h2.333334v2.333334h-2.333334z" fill="#1a7fd4"/>
    <path id="path817" d="m2.1660156 1v.5h1.1679688v-.5zm3.5 0v.5h1.1679688v-.5zm3.5 0v.5h1.1679684v-.5zm3.5000004 0v.5h1.167968v-.5zm-11.666016 1.1660156v.5h1.1660156v-.5zm2.3339844 0v.5h2.3320312v-.5zm3.5 0v.5h2.3320312v-.5zm3.4999996 0v.5h2.332032v-.5zm3.5 0v.5h1.166016v-.5zm-12.833984 3.5v.5h1.1660156v-.5zm2.3339844 0v.5h2.3320312v-.5zm3.5 0v.5h2.3320312v-.5zm3.4999996 0v.5h2.332032v-.5zm3.5 0v.5h1.166016v-.5zm-12.833984 3.5v.5h1.1660156v-.5zm2.3339844 0v.5h2.3320312v-.5zm3.5 0v.5h2.3320312v-.5zm3.4999996 0v.5h2.332032v-.5zm3.5 0v.5h1.166016v-.5zm-12.833984 3.5000004v.5h1.1660156v-.5zm2.3339844 0v.5h2.3320312v-.5zm3.5 0v.5h2.3320312v-.5zm3.4999996 0v.5h2.332032v-.5zm3.5 0v.5h1.166016v-.5z" fill="#fff" opacity=".3"/>
    <path id="path822" d="m13.833984 15v-.5h-1.167968v.5zm-3.5 0v-.5h-1.1679684v.5zm-3.4999996 0v-.5h-1.1679684v.5zm-3.5000004 0v-.5h-1.167968v.5zm11.666016-1.166016v-.5h-1.166016v.5zm-2.333984 0v-.5h-2.332032v.5zm-3.5000004 0v-.5h-2.3320312v.5zm-3.4999996 0v-.5h-2.332032v.5zm-3.5 0v-.5h-1.166016v.5zm12.833984-3.5v-.4999996h-1.166016v.4999996zm-2.333984 0v-.4999996h-2.332032v.4999996zm-3.5000004 0v-.4999996h-2.3320312v.4999996zm-3.4999996 0v-.4999996h-2.332032v.4999996zm-3.5 0v-.4999996h-1.166016v.4999996zm12.833984-3.5v-.5h-1.166016v.5zm-2.333984 0v-.5h-2.332032v.5zm-3.5000004 0v-.5h-2.3320312v.5zm-3.4999996 0v-.5h-2.332032v.5zm-3.5 0v-.5h-1.166016v.5zm12.833984-3.5v-.5h-1.166016v.5zm-2.333984 0v-.5h-2.332032v.5zm-3.5000004 0v-.5h-2.3320312v.5zm-3.4999996 0v-.5h-2.332032v.5zm-3.5 0v-.5h-1.166016v.5z" opacity=".2"/>
  </g>
</svg>
