<svg height="16" width="16" xmlns="http://www.w3.org/2000/svg"><g transform="matrix(.53346136 0 0 .53346136 6.733269 7.231349)"><path d="m7.9982.5036c-4.1372 0-7.4982 3.3609-7.4982 7.4982 0 4.1372 3.3609 7.4982 7.4982 7.4982 4.1372 0 7.4982-3.3609 7.4982-7.4982 0-4.1372-3.3609-7.4982-7.4982-7.4982z" fill="#da1636"/><path d="m7.9980469.50390625c-4.1372 0-7.4980469 3.36074685-7.4980469 7.49804685 0 .084448.0108932.1662204.0136719.25.13335357-4.0207459 3.4316234-7.2480469 7.484375-7.2480469 4.0528491 0 7.3510251 3.227391 7.4843751 7.2480469.0028-.083781.01367-.1655495.01367-.25 0-4.1372-3.360747-7.49804685-7.4980471-7.49804685z" fill="#fff" opacity=".3"/><path d="m.51367188 7.7519531c-.00277873.0837815-.01367188.1655496-.01367188.25 0 4.1371999 3.3607469 7.4980469 7.4980469 7.4980469 4.1372001 0 7.4980471-3.360747 7.4980471-7.4980469 0-.084448-.01089-.1662204-.01367-.25-.133356 4.0207459-3.431626 7.2480469-7.4843771 7.2480469-4.0528496 0-7.35102531-3.227391-7.48437502-7.2480469z" opacity=".2"/></g><path d="m4.5.5-4 8h8z" fill="#1a7fd4"/><path d="m4.5.5-4 8h.25l3.75-7.5 3.75 7.5h.25z" fill="#fff" opacity=".3"/><path d="m.75 8-.25.5h8l-.25-.5z" fill="#030303" opacity=".2"/><g fill="#fbc02d" stroke-width="1.748505" transform="matrix(.57142841 0 0 .57142841 -13.914617 -123.317)"><path d="m37.381596 222.36731c-.981166-.003-2.105158.007-3.406006.007v1.74829c2.625393 0 4.52658-.0254 5.846436.0547 1.319855.0801 1.93888.29824 2.240478.60156.301598.30333.522235.91309.601563 2.24048.05856.97973.05942 2.41794.0564 4.09815h-3.488037l4.386962 5.24487 4.356202-5.24487h-3.505127c.005-1.67471.0066-3.12562-.05811-4.20752-.08765-1.46662-.301523-2.59214-1.09375-3.38892-.792226-.79677-1.926537-1.00339-3.387206-1.09204-.730335-.0443-1.56864-.059-2.549805-.0615z" fill="#fbc02d"/><path d="m37.381596 222.36731c-.981166-.003-2.105158.007-3.406006.007v.4375c1.300848 0 2.42484-.009 3.406006-.007.981165.003 1.81947.0172 2.549805.0615 1.460669.0887 2.59498.29527 3.387206 1.09204.792227.79678 1.0061 1.9223 1.09375 3.38892.03234.54095.04762 1.17429.05469 1.88159-.0048-.8727-.01628-1.67639-.05469-2.31909-.08765-1.46662-.301523-2.59214-1.09375-3.38892-.792226-.79677-1.926537-1.00339-3.387206-1.09204-.730335-.0443-1.56864-.059-2.549805-.0615zm1.85083 8.75.365723.4375h3.122314c.000287-.15896-.0019-.28306-.0017-.4375zm5.238037 0c-.000357.15342.000469.27999 0 .4375h3.141113l.364014-.4375z" fill="#fff5dc" opacity=".3"/><path d="m37.388432 223.77038c-.968453-.004-2.100146.002-3.412842.002v.35034c2.625393 0 4.52658-.0254 5.846436.0547 1.319855.0801 1.93888.29824 2.240478.60156.301598.30333.522235.91309.601563 2.24048.02928.48987.04411 1.09385.05127 1.78589-.0057-.82674-.01756-1.57215-.05127-2.13623-.07933-1.32739-.299965-1.93715-.601563-2.24048s-.920623-.52141-2.240478-.60156c-.659928-.04-1.465141-.0527-2.433594-.0564zm1.843994 7.34693 4.386962 5.24487 4.356202-5.24487h-.290527l-4.065675 4.89453-4.094726-4.89453z" fill="#000" opacity=".2"/></g></svg>