<svg id="svg8" height="16" width="16" xmlns="http://www.w3.org/2000/svg">
  <g id="g6" fill="#fb7c38" transform="translate(-52.000046 -480)">
    <path id="path2" d="m66.066406 484.17969v.5 4.20508c0 .53143-.08551.85349-.197265 1.05859-.111755.20509-.253097.32376-.492188.44922-.432948.22719-1.281888.32617-2.201172.32617h-5.451172v-2.1543l-.71289.33399c-.720225.33787-1.452136.70895-2.197266 1.11523h-.002v.002c-.736321.40625-1.448068.82192-2.132812 1.2461l-.679641.41987.675781.42774c.686016.43363 1.399115.85279 2.136719 1.25976v.002h.002c.74575.40662 1.479365.77547 2.201172 1.10547l.707031.32422v-2.14648h5.453125c.996978 0 2.109909-.0284 3.101563-.54883 1.022667-.53673 1.722609-1.67702 1.722609-3.22075v-4.70508z" fill="#1a7fd4"/>
    <g transform="translate(52.000046 480)">
      <path id="path824" d="m14.066406 4.1796875v.5h1.933594v-.5zm-8.3417966 4.3847656-.7128906.3339844c-.720225.33787-1.4521357.7089544-2.1972657 1.1152345h-.0019531v.001953c-.736321.40625-1.4480685.821914-2.1328125 1.246094l-.6796875.419922.40039062.253906.27929688-.173828c.684744-.42418 1.3964915-.839844 2.1328125-1.246094v-.001953h.0019531c.74513-.40628 1.4770407-.7773645 2.1972657-1.1152345l.7128906-.3339844zm8.3417966.3203125c0 .53143-.08551.8534938-.197265 1.0585938-.111755.2050896-.253097.3237586-.492188.4492186-.432948.22719-1.281888.326172-2.201172.326172h-5.4511716v.5h5.4511716c.919284 0 1.768224-.098982 2.201172-.326172.239091-.12546.380433-.244129.492188-.449219.111755-.2051.197265-.5271634.197265-1.0585934z" fill="#f1f1f1" opacity=".3"/>
      <path id="path829" d="m16 8.3847656c0 1.54373-.699989 2.6839734-1.722656 3.2207034-.991654.52043-2.104585.548828-3.101563.548828h-5.4531248v.5h5.4531248c.996978 0 2.109909-.028398 3.101563-.548828 1.022667-.53673 1.722656-1.676973 1.722656-3.2207034zm-15.59960938 3.0507814-.40039062.246094.67578125.427734c.68601605.43363 1.39911475.852796 2.13671875 1.259766v.001953h.0019531c.74575.40662 1.4793649.775468 2.2011719 1.105468l.7070312.324219v-.5l-.7070312-.324219c-.721807-.33-1.4554219-.698848-2.2011719-1.105468h-.0019531v-.001953c-.737604-.40697-1.4507027-.826136-2.13671875-1.259766z" fill="#44382f" opacity=".2"/>
    </g>
  </g>
</svg>
