<svg id="svg22" height="16" width="16" xmlns="http://www.w3.org/2000/svg" xmlns:xlink="http://www.w3.org/1999/xlink">
  <linearGradient id="linearGradient873" gradientTransform="matrix(.34782603 0 0 .44142237 -.460223 -2.141522)" gradientUnits="userSpaceOnUse" x1="23.612318" x2="27.27836" y1="23.79875" y2="6.926995">
    <stop id="stop11-2" offset="0" stop-color="#f6f5f4"/>
    <stop id="stop13-3" offset="1" stop-color="#e9e7e4"/>
  </linearGradient>
  <g id="g8" fill="#aea795" transform="matrix(1.2499506 0 0 1.2082865 -1518.19 379.69425)">
    <path id="path6" d="m2.375 1.5c-1.037459 0-1.875.8084139-1.875 1.8125v10.875c0 1.004086.837541 1.8125 1.875 1.8125h11.25c1.038709 0 1.875-.808414 1.875-1.8125v-10.875c0-1.0040861-.836291-1.8125-1.875-1.8125h-.380859v1.2558594c.570132.1126506 1.005859.5767165 1.005859 1.1621094v7.2480472h-1.005859-2.744141c0 .66939-.278612 1.274142-.7304688 1.710937-.3388928.327597-.776533.561946-1.265625.658203-.1624727.03192-.3314503.048828-.5039062.048828-.6924726 0-1.3176741-.270235-1.7695312-.707031-.4518572-.436795-.7304688-1.041547-.7304688-1.710937h-3-.75v-7.2480472c0-.4970708.3081904-.9214898.75-1.1074219v-1.3105469z" fill="#666" stroke-width="1.228942" transform="matrix(.80003162 0 0 .82761828 1214.6 -314.2419)"/>
    <path id="path6-3" d="m1225.1957-312.37491v.41381c.4561.0932.8047.4773.8047.96178v-.41381c0-.48448-.3486-.86858-.8047-.96178zm-8.5957.0453c-.3535.15388-.6.50514-.6.91652v.41381c0-.41138.2465-.76264.6-.91652zm-1.6001 9.41577v.41381c0 .831.6701 1.50006 1.5001 1.50006h9.0004c.831 0 1.5-.66906 1.5-1.50006v-.41381c0 .831-.669 1.50006-1.5 1.50006h-9.0004c-.83 0-1.5001-.66906-1.5001-1.50006z" fill="#000" opacity=".2"/>
  </g>
  <path id="path18" d="m2.375 1.5c-1.037459 0-1.875.8103669-1.875 1.8144531v.4902344c0-1.0040861.837541-1.8144531 1.875-1.8144531h.125v-.4902344zm10.869141 0v.4902344h.378906c1.038709 0 1.876953.810367 1.876953 1.8144531v-.4902344c0-1.0040862-.838244-1.8144531-1.876953-1.8144531zm-11.494141 9.666016v.490234h3.75c0 1.338782 1.1150547 2.417969 2.5 2.417969 1.3849452 0 2.5-1.079187 2.5-2.417969h3.75v-.490234h-1.005859-2.744141c0 .167347-.017601.330627-.050781.488281-.066361.315307-.195676.608076-.375.865234-.3585652.51441-.9162985.887132-1.5683596 1.015625-.1630519.03216-.3327412.048828-.5058594.048828-.6924726 0-1.3176741-.270235-1.7695312-.707031-.1129643-.109199-.2150253-.228843-.3046876-.357422-.1793245-.257158-.3086397-.549927-.375-.865234-.0331801-.157654-.0507812-.320934-.0507812-.488281h-3z" fill="#fff" opacity=".3" stroke-width="1.228942"/>
  <path id="path869" d="m2.5 0v1.5 1.4082031 8.2578129h3c0 .66939.2786116 1.274142.7304688 1.710937.4518571.436796 1.0770586.707031 1.7695312.707031s1.3176741-.270235 1.7695312-.707031c.4518568-.436795.7304688-1.041547.7304688-1.710937h2.744141v-8.3593754-1.3066406-1.5z" fill="url(#linearGradient873)" stroke-width=".151306"/>
  <path id="path847" d="m2.5 0v.52098521h10.744141v-.52098521z" fill="#f6f5f4" stroke-width=".151306"/>
  <g id="g16" transform="matrix(1 0 0 .9999468 -2.999404 -4.999734)">
    <path id="path10" d="m12.999999 16v-5h3.000001l-5.000001-6.0000001-4.999999 6.0000001h2.999999v5z" fill="#fb7c38"/>
    <path id="path12" d="m11 5-5 6h.4160156l4.5839844-5.5 4.583984 5.5h.416016z" fill="#fff" opacity=".3"/>
    <path id="path14" d="m6.4160156 10.5-.4160156.5h3v-.5zm6.5839844 0v.5h3l-.416016-.5zm-4 5v.5h4v-.5z" opacity=".2"/>
  </g>
</svg>
