<svg height="16" width="16" xmlns="http://www.w3.org/2000/svg"><path d="m7.9982.5036c-4.1372 0-7.4982 3.3609-7.4982 7.4982 0 4.1372 3.3609 7.4982 7.4982 7.4982 4.1372 0 7.4982-3.3609 7.4982-7.4982 0-4.1372-3.3609-7.4982-7.4982-7.4982z" fill="#da1636"/><path d="m7.9980469.50390625c-4.1372 0-7.4980469 3.36074685-7.4980469 7.49804685 0 .0844484.01089323.1662204.01367188.25.13335359-4.0207459 3.43162342-7.2480469 7.48437502-7.2480469 4.0528491 0 7.3510251 3.227391 7.4843751 7.2480469.002779-.0837815.013672-.1655495.013672-.25 0-4.1372-3.360747-7.49804685-7.4980471-7.49804685z" fill="#fff" opacity=".3"/><path d="m.51367188 7.7519531c-.00277873.0837815-.01367188.1655496-.01367188.25 0 4.1371999 3.3607469 7.4980469 7.4980469 7.4980469 4.1372001 0 7.4980471-3.360747 7.4980471-7.4980469 0-.0844484-.010893-.1662204-.013672-.25-.133354 4.0207459-3.431624 7.2480469-7.4843751 7.2480469-4.0528496 0-7.35102531-3.227391-7.48437502-7.2480469z" opacity=".2"/></svg>