<svg id="svg4" height="16" width="16" xmlns="http://www.w3.org/2000/svg">
  <g id="g1536">
    <path id="path1532" d="m7.9824219 3.5c-1.6493997 0-2.9808381 1.3044079-2.9785157 2.9101562l.0039063 2.5566407h-1.0078125v5.0332031h8v-5.0332031h-1.042969v-.0136719h-1.488281v.0136719h-2.9726562l-.0039063-2.5996094c-.00113-.79395.6655347-1.4335938 1.4902344-1.4335937.8247006 0 1.4882812.63964 1.4882812 1.4335937v.5859375h1.4882809v-.5429688c.001113-1.6050976-1.3271628-2.9101562-2.9765621-2.9101562z" fill="#45a925"/>
    <path id="path837" d="m7.9824219 3.5c-1.6493997 0-2.980838 1.3044079-2.9785157 2.9101562v.4921876c.0020704-1.6021054 1.3318359-2.9023438 2.9785157-2.9023438 1.6493993 0 2.9776751 1.3050586 2.9765621 2.9101562v-.5c.001113-1.6050976-1.3271628-2.9101562-2.9765621-2.9101562zm1.4863281 5.453125v.0136719h-2.9726562v.5h2.9726562v-.0136719h1.488281v.0136719h1.042969v-.5h-1.042969v-.0136719zm-5.46875.0136719v.5h1.0078125v-.5z" fill="#fff" opacity=".3"/>
    <path id="path842" d="m7.9824219 4.4335938c-.8246997-.0000002-1.4913644.6396437-1.4902344 1.4335937v.4921875c.0033194-.790261.6682925-1.4257813 1.4902344-1.4257812.8247006 0 1.4882812.63964 1.4882812 1.4335937v-.5c0-.7939537-.6635806-1.4335937-1.4882812-1.4335937zm1.4882812 2.0195312v.5h1.4882809v-.5zm-5.4707031 7.046875v.5h8v-.5z" opacity=".2"/>
  </g>
</svg>
