<svg id="svg12" height="16" width="16" xmlns="http://www.w3.org/2000/svg">
  <g id="g10" fill="#c43ac4" transform="translate(-652 -300)">
    <ellipse id="ellipse2" cx="659.62878" cy="308.18054" fill="#fff" rx="6.312277" ry="7.151371"/>
    <path id="path4" d="m660 300a8 8 0 0 0 -8 8 8 8 0 0 0 8 8 8 8 0 0 0 8-8 8 8 0 0 0 -8-8zm2.85156 2.22852c.13767.017.27461.0611.40235.13476.51097.2951.68573.94802.39062 1.45899-.29475.51096-.94802.68573-1.45898.39062-.51062-.29475-.68538-.94642-.39063-1.45703.22133-.38323.64363-.5785 1.05664-.52734zm-2.85156 1.13086c.42942 0 .84558.061 1.24023.16992.0697.42925.32435.8242.73047 1.05859.40542.23368.87317.2569 1.2793.10352.78983.77677 1.30411 1.83321 1.37891 3.00976l-1.52149.0215c-.14014-1.59361-1.47762-2.84375-3.10742-2.84375-.46948 0-.91521.10534-1.31445.29101l-.74219-1.33009c.61969-.30693 1.31816-.48046 2.05664-.48046zm-2.57422.77929.78125 1.3086c-.80219.56462-1.32617 1.49727-1.32617 2.55273 0 1.05564.52398 1.98847 1.32617 2.55273l-.78125 1.3086c-.93492-.62463-1.6294-1.57897-1.91797-2.69727.33711-.27516.55274-.69493.55274-1.16406 0-.46949-.21563-.8889-.55274-1.16406.28893-1.11795.98341-2.07264 1.91797-2.69727zm-2.86523 2.79297c.58968 0 1.06818.47815 1.06836 1.06836 0 .58986-.4785 1.06836-1.06836 1.06836-.59021 0-1.06836-.4785-1.06836-1.06836 0-.59021.47815-1.06836 1.06836-1.06836zm8.54687 1.3457 1.52149.0215c-.0748 1.17655-.58907 2.23316-1.37891 3.00976-.40612-.15338-.87353-.13052-1.2793.10352-.40613.23475-.66077.62934-.73047 1.05859-.39466.10921-.81063.16992-1.24023.16992-.73829 0-1.43678-.17335-2.05664-.48046l.74219-1.33008c.39906.18585.84497.28906 1.31445.28906 1.6298 0 2.96728-1.24766 3.10742-2.8418zm-.51953 3.37305c.41288-.0511.83544.14451 1.05664.52734.2951.51096.12035 1.16228-.39062 1.45704-.51096.2951-1.16423.12034-1.45899-.39063-.2951-.51061-.12034-1.16387.39063-1.45898.1276-.0737.26471-.11773.40234-.13477z" fill="#dd4814"/>
    <path id="path6" d="m8 .5c-4.1421356 0-7.5 3.3578644-7.5 7.5.002247.071006.005502.1419769.009766.2128906.15422538-4.0258182 3.4614634-7.2105979 7.490234-7.2128906 4.056609.00365 7.375087 3.2321331 7.490234 7.2871094.005088-.095632.008344-.1913527.009766-.2871094 0-4.1421356-3.357864-7.5-7.5-7.5z" fill="#fff" opacity=".3" stroke-width=".9375" transform="matrix(1.0666667 0 0 1.0666667 651.46667 299.46667)"/>
    <path id="path8" d="m659.99998 316c4.41829 0 8-3.58172 8-8-.002-.0757-.006-.15144-.0104-.22708-.16452 4.2942-3.69224 7.6913-7.98959 7.69375-4.32705-.004-7.86676-3.44761-7.98958-7.77292-.005.10201-.009.20411-.0104.30625 0 4.41828 3.58171 8 8 8z" fill="#161616" opacity=".2"/>
  </g>
</svg>
