<svg id="svg4" height="16" width="16" xmlns="http://www.w3.org/2000/svg">
  <g id="g831" transform="translate(.000008)">
    <g id="g6" transform="translate(-212.00006 -280)">
      <path id="path2-3" d="m217.87959 282.54831h3.81538v10.80763h-3.81538z" fill="#fff"/>
      <path id="path4" d="m5.3261719 0c-1.67759.0195-2.9064963-.04015813-3.9101563.51367188-.50182998.27685999-.89762747.74519812-1.11718748 1.33007812-.21956.58488-.29882812 1.27944-.29882812 2.15625v8c0 .87681.07924813 1.57137.29882812 2.15625.21956001.58488.61535751 1.053218 1.11718748 1.330078 1.00366.55376 2.2325663.494242 3.9101563.513672h.00391 5.3398441.0039c1.67759-.0195 2.904543.04016 3.908203-.513672.50183-.27686.897628-.745198 1.117188-1.330078.219982-.58488.300783-1.27944.300783-2.15625v-8c0-.87681-.079248-1.57136-.298828-2.15625-.21955-.58488-.615358-1.05319812-1.117188-1.33007812-1.00366-.55379-2.232556-.49431188-3.910156-.51367188h-.0039-2.0039064-3.3359375zm1.5703125 2.9550781h2v6.9902344l-2 .00977v-6.9960981zm0 8.0019529h2v1.998047h-2z" fill="#f22c42" transform="translate(212.00006 280)"/>
    </g>
    <path id="path852" d="m5.3261719 0c-1.67759.0195-2.9064963-.04015813-3.9101562.51367188-.50182997.27685999-.8976275.74519812-1.11718753 1.33007812-.21956.58488-.29882817 1.27944-.29882817 2.15625v.5c0-.87681.0792682-1.57137.29882817-2.15625.21956003-.58488.61535756-1.0532181 1.11718743-1.3300781 1.00366-.55383005 2.2325663-.4941719 3.9101563-.5136719h.00391 3.3359375 2.0039066.0039c1.6776.01936 2.906496-.0401182 3.910156.5136719.50183.27688.897638.7451981 1.117188 1.3300781.219582.58489.29883 1.27944.29883 2.15625v-.5c0-.87681-.07925-1.57136-.298828-2.15625-.21955-.58488-.615358-1.05319814-1.117188-1.33007812-1.00366-.55379001-2.232556-.49431188-3.910156-.51367188h-.0039-2.0039064-3.3359375z" fill="#fff" opacity=".3"/>
    <path id="path857" d="m10.673828 16c1.67759-.0195 2.906496.04016 3.910156-.513672.50183-.27686.897628-.745198 1.117188-1.330078s.298828-1.27944.298828-2.15625v-.5c0 .87681-.07927 1.57137-.298828 2.15625-.21956.58488-.615358 1.053218-1.117188 1.330078-1.00366.55383-2.232566.494172-3.910156.513672h-.00391-3.3359376-2.0039064-.00391c-1.6776-.01936-2.906496.04012-3.9101559-.513672-.50183005-.27688-.89763805-.745198-1.11718805-1.330078-.21958-.58489-.29882805-1.27944-.29882805-2.15625v.5c0 .87681.0792481 1.57136.29882805 2.15625.21955.58488.615358 1.053198 1.11718805 1.330078 1.0036599.55379 2.2325559.494312 3.9101559.513672h.00391 2.0039064 3.3359376z" opacity=".2"/>
  </g>
</svg>
