<svg id="svg8" height="16" width="16" xmlns="http://www.w3.org/2000/svg">
  <path id="path2-3" d="m5.32561-.00000034c-1.67759.0195-2.90519-.0408-3.90885.51303-.50183.27686-.89763.74584004-1.11719 1.33072004s-.29948 1.27944-.29948 2.15625v8.0000003c0 .87681.0799 1.57137.29948 2.15625.21956.58488.61536 1.05386 1.11719 1.33072 1.00366.55376 2.23126.4936 3.90885.51303h.005 5.33854.005c1.67759-.0195 2.90519.0408 3.90885-.51303.50183-.27686.89763-.74584 1.11719-1.33072.21998-.58488.2999-1.27944.2999-2.15625v-8.0000003c0-.87681-.0799-1.57136-.29948-2.15625-.21955-.58488-.61536-1.05384004-1.11719-1.33072004-1.00366-.55379-2.23125-.49367-3.90885-.51303h-.005-2.0026-3.33594z" fill="#1d99f3"/>
  <path id="path4-6" d="m8.00008 2.9999997a2.8571428 2.8571428 0 0 0 -2.85714 2.85715v1.42857h-.71428v5.7142803h7.14285v-5.7142803h-.71428v-1.42857a2.8571428 2.8571428 0 0 0 -2.85715-2.85715zm0 .71429c1.19286 0 2.14286.95 2.14286 2.14286v1.42857h-4.28571v-1.42857c0-1.19286.95-2.14286 2.14285-2.14286z" fill="#fff" stroke-width=".714286"/>
  <path id="path821" d="m5.326262-.00000034c-1.67759.0195-2.906497-.040158-3.910157.5136719-.50183.27686-.897627.74519814-1.117187 1.33007814s-.298828 1.27944-.298828 2.15625v.5c0-.87681.07927-1.57137.298828-2.15625.21956-.58488.615357-1.0532181 1.117187-1.3300781 1.00366-.55383004 2.232567-.49417194 3.910157-.51367194h.0039 3.335937 2.003907.0039c1.6776.01936 2.906496-.040118 3.910156.51367194.50183.27688.897638.7451981 1.117188 1.3300781.219582.58489.29883 1.27944.29883 2.15625v-.5c0-.87681-.07925-1.57136-.298828-2.15625-.21955-.58488-.615358-1.05319814-1.117188-1.33007814-1.00366-.55379-2.232556-.4943119-3.910156-.5136719h-.0039-2.003906-3.335938z" fill="#fff" opacity=".3"/>
  <path id="path826" d="m10.67401 16c1.67759-.0195 2.90649.0402 3.91015-.51367.50183-.27686.89763-.7452 1.11719-1.33008s.29883-1.27944.29883-2.15625v-.5c0 .87681-.0793 1.57137-.29883 2.15625-.21956.58488-.61536 1.05322-1.11719 1.33008-1.00366.55383-2.23256.49417-3.91015.51367h-.004-3.33594-2.0039-.004c-1.6776-.0194-2.90649.0401-3.91015-.51367-.50183-.27688-.89764-.7452-1.11719-1.33008-.21958-.58489-.29883-1.27944-.29883-2.15625v.5c0 .87681.0793 1.57136.29883 2.15625.21955.58488.61536 1.0532 1.11719 1.33008 1.00366.55379 2.23255.49431 3.91015.51367h.004 2.0039 3.33594z" opacity=".2"/>
</svg>
