<svg id="svg22" height="16.000032" width="16.000061" xmlns="http://www.w3.org/2000/svg">
  <circle id="circle2" cx="-8" cy="-8.000053" fill="#c8c4b7" r="7.99998" stroke-width="1.066664" transform="scale(-1)"/>
  <g id="g14" transform="matrix(0 -1.066664 -1.066664 0 -.533312 -.533294)">
    <circle id="circle4" cx="-8.00005" cy="-8" opacity=".1" r="5.769231"/>
    <circle id="circle6" cx="-8.00005" cy="-8" fill="#f7f7f7" r="5.769231"/>
    <circle id="circle8" cx="-8.00005" cy="-8" fill="#aea795" r="4.615385"/>
    <circle id="circle12" cx="-8.00005" cy="-8" fill="#f7f7f7" r="3.461539"/>
  </g>
  <g stroke-width="1.066664">
    <path id="path16" d="m6.7692341 5.5385203h2.4615318v4.9230647h-2.4615318z" fill="#3b3b3b"/>
    <path id="path18" d="m8 .00003837a7.9999797 7.9999797 0 0 0 -7.99997973 7.99997973 7.9999797 7.9999797 0 0 0 .01041663.3062493 7.9999797 7.9999797 0 0 1 7.9895631-7.77289705 7.9999797 7.9999797 0 0 1 7.989563 7.69373045 7.9999797 7.9999797 0 0 0 .010417-.2270827 7.9999797 7.9999797 0 0 0 -7.99998-7.99997973z" fill="#fff" opacity=".3"/>
    <path id="path20" d="m8.0000203 16.000032a7.9999797 7.9999797 0 0 0 7.9999797-7.999979 7.9999797 7.9999797 0 0 0 -.010453-.3062499 7.9999797 7.9999797 0 0 1 -7.989563 7.7728969 7.9999797 7.9999797 0 0 1 -7.98956269-7.6937302 7.9999797 7.9999797 0 0 0 -.01042131.2270832 7.9999797 7.9999797 0 0 0 7.9999797 7.999979z" opacity=".2"/>
  </g>
</svg>
