<svg height="16" width="16" xmlns="http://www.w3.org/2000/svg"><ellipse cx="4.505364" cy="11.502979" fill="#fff" rx="1.718713" ry="1.693683"/><ellipse cx="11.497021" cy="4.361144" fill="#fff" rx="1.718713" ry="1.693683"/><path d="m2.5 1c-.831 0-1.5.669-1.5 1.5v11c0 .831.669 1.5 1.5 1.5h11c.831 0 1.5-.669 1.5-1.5v-11c0-.831-.669-1.5-1.5-1.5zm9 2c.828 0 1.5.6716 1.5 1.5s-.672 1.5-1.5 1.5-1.5-.6716-1.5-1.5.672-1.5 1.5-1.5zm-7 7c.8284 0 1.5.672 1.5 1.5s-.6716 1.5-1.5 1.5-1.5-.672-1.5-1.5.6716-1.5 1.5-1.5z" fill="#444"/><path d="m2.5 1c-.831 0-1.5.669-1.5 1.5v.5c0-.831.669-1.5 1.5-1.5h11c.831 0 1.5.669 1.5 1.5v-.5c0-.831-.669-1.5-1.5-1.5zm7.525391 3.75c-.013749.0815913-.025391.1645023-.025391.25 0 .8284.672 1.5 1.5 1.5s1.5-.6716 1.5-1.5c0-.0854977-.011642-.1684087-.025391-.25-.119466.7089589-.732065 1.25-1.474609 1.25s-1.355143-.5410411-1.474609-1.25zm-7.0000004 7c-.0137417.081566-.0253906.164544-.0253906.25 0 .828.6716 1.5 1.5 1.5s1.5-.672 1.5-1.5c0-.085456-.0116489-.168434-.0253906-.25-.119404.708737-.7317071 1.25-1.4746094 1.25s-1.3552054-.541263-1.4746094-1.25z" fill="#fffafa" opacity=".3"/><path d="m11.5 2.5c-.828 0-1.5.6716-1.5 1.5 0 .0854977.011642.1684087.025391.25.119466-.7089589.732065-1.25 1.474609-1.25s1.355143.5410411 1.474609 1.25c.013749-.0815913.025391-.1645023.025391-.25 0-.8284-.672-1.5-1.5-1.5zm-7 7c-.8284 0-1.5.672-1.5 1.5 0 .085456.0116489.168434.0253906.25.119404-.708737.7317071-1.25 1.4746094-1.25s1.3552054.541263 1.4746094 1.25c.0137417-.081566.0253906-.164544.0253906-.25 0-.828-.6716-1.5-1.5-1.5zm-3.5 3.5v.5c0 .831.669 1.5 1.5 1.5h11c.831 0 1.5-.669 1.5-1.5v-.5c0 .831-.669 1.5-1.5 1.5h-11c-.831 0-1.5-.669-1.5-1.5z" fill="#0d0d0d" opacity=".2"/></svg>