<svg height="16" width="16" xmlns="http://www.w3.org/2000/svg"><path d="m13.339253.50251313c-.11535-.00705-.251138.00153-.411136.01585l-7.2265179 1.12772237c-.81528.083125-.9039353.4635999-.8967148.9378368v9.5426687c-.4143762-.272219-.8578466-.465977-1.4488114-.465977-.760949 0-1.2152327.291694-1.4899514.675462-.2746837.383786-.3661215.867357-.3661215 1.241281 0 .450936.1555082.931338.4894884 1.298093.333981.36672.847562.624532 1.5858629.62455.8337191 0 1.4188194-.232541 1.7503345-.687211.2610172-.357987.4066452-.837382.4581404-1.427292.00705-.0715.012325-.145649.01585-.221231.00528-.05988.00528-.101979.00528-.172239h.00351v-7.7218348c.02219-.6208864.5854004-.7126591.5854004-.7126591l5.8677584-.9162809c.563281-.1722385.563879.5247113.563879.5247113v6.9582625c-.414394-.272218-.857865-.465961-1.448811-.465961-.760986 0-1.215252.291679-1.4899535.675447-.2747008.383803-.3661563.867339-.3661563 1.241296 0 .450938.1555083.931339.4895058 1.298059.333999.366755.847545.624568 1.585865.624585.833717 0 1.418819-.232573 1.750351-.687229.261001-.357967.40661-.837383.458106-1.427273.007-.07167.01225-.145646.01584-.221249.0054-.05988.0054-.101978.0054-.172239h.0035v-10.5940622c.01231-.68729857-.140786-.86827247-.48757-.89278717z" fill="#ec3c50" fill-rule="evenodd"/><circle cx="12" cy="-12" fill="#45a925" r="4" transform="rotate(90)"/><rect fill="#f4f4f4" height=".888889" rx=".237037" ry=".296296" width="4.444444" x="9.777778" y="11.555554"/><rect fill="#f4f4f4" height="4.444444" rx=".296296" ry=".237037" width=".888889" x="11.555555" y="9.777777"/><g fill-rule="evenodd"><path d="m13.339844.50195312c-.11535-.00705-.252112.001305-.41211.015625l-7.2265621 1.12890628c-.81528.083125-.9037049.4632631-.8964844.9375v.5c-.00722-.4742369.081204-.854375.8964844-.9375l7.2265621-1.1289063c.159998-.01432.29676-.022675.41211-.015625h.002c.346784.024515.500591.2072327.488281.8945313v-.5c.012263-.68729859-.141544-.87001657-.488328-.89453128zm-9.9843752 11.15820288c-.7609491 0-1.2155157.292013-1.4902344.675782-.2746837.383785-.3652344.868263-.3652344 1.242187 0 .09976.00992.199686.025391.300781.02675-.338694.109479-.721105.3398438-1.042968.2747187-.383769.7292853-.675782 1.4902344-.675782.5909648 0 1.0348425.194578 1.4492187.466797v-.5c-.4143766-.272219-.8582543-.466797-1.4492191-.466797z" fill="#fff" opacity=".3"/><path d="m12.447266 3.1152344c-.05392-.00257-.115137.00386-.185547.025391l-5.8671878.9160152s-.5637475.092004-.5859374.7128906v.5c.0221899-.6208864.5859374-.7128906.5859374-.7128906l5.8671878-.9160156c.563281-.1722385.564453.5253906.564453.5253906v-.5s-.0014-.532767-.378906-.5507812zm-6.6425785 9.3769536c0 .07026-.0005794.111995-.00586.171874-.00352.07558-.00857.149204-.015625.220704-.051495.58991-.196014 1.069747-.4570312 1.427734-.3315145.45467-.9162803.6875-1.7499994.6875-.7383009-.000018-1.2519565-.25828-1.5859375-.625-.2600936-.285618-.4103843-.64022-.4648438-.996094-.0051462.06516-.0253906.138888-.0253906.199219 0 .450936.1562542.93012.4902344 1.296875.333981.36672.8476366.624982 1.5859375.625.8337191 0 1.4184849-.23283 1.75-.6875.2610172-.357987.405536-.837824.4570312-1.427734.00705-.0715.0121-.145122.015625-.220704.00528-.05988.00586-.101614.00586-.171874h.00391v-.5z" opacity=".2"/></g></svg>