<svg viewBox="0 0 24 24" xmlns="http://www.w3.org/2000/svg"><g stroke-width=".739043"><path d="m8.8908713 16.744599q-.2193483-.551468-.4884199-1.130486-.2533584-.580311-.5067166-1.160621l-4.2425753.34877q-.1551861.613895-.3260852 1.229083-.155186.613896-.2815291 1.193782l-2.5455452.209262q.46814155-1.810262.8953895-3.34823.4272481-1.537969.837279-2.900509.425744-1.3638314.8316872-2.5836603.4203647-1.2368339.8773228-2.4133982l2.341273-.1924694q.6272556 1.0874342 1.2439649 2.2390133.6154175 1.1358657 1.2424606 2.4131506.6427567 1.275993 1.315435 2.72354.672679 1.447547 1.430171 3.157052zm-3.6307493-8.1807421q-.05919.2421573-.1827374.6636191-.1235471.4214616-.2839.972504-.160353.551044-.3588035 1.215954-.1827373.663619-.3760208 1.391383l3.0955086-.254473q-.3095402-.686428-.5982002-1.311295-.2886599-.624866-.5525646-1.141033-.2481912-.5174571-.438909-.913084-.1907176-.3956269-.3043731-.6235751z" fill="#c43ac4"/><path d="m20.714308 17.701439q.06843-.589531.106157-1.226899.05217-.631055.10434-1.262109l-3.900492-1.705063q-.427774.466862-.869993.92741-.427773.466862-.814024.917462l-2.340296-1.023038q1.27069-1.371695 2.376239-2.523064 1.10555-1.151369 2.112741-2.1564589 1.021637-.9987747 1.957547-1.8801632.95667-.88952 1.916974-1.7086244l2.152494.9409426q.03649 1.2548429.03327 2.5611565.0031 1.2918664-.05064 2.7137494-.03929 1.428199-.133602 3.021622-.09431 1.593422-.238192 3.457691zm.683415-8.9241144q-.166956.1851192-.475611.4975712-.308654.3124526-.711168.7215296-.402513.4090786-.89257.9003346-.475612.497571-.990929 1.046612l2.845915 1.244065q.05304-.751123.09526-1.438145.04222-.687023.05469-1.266608.02691-.5732682.04664-1.0120215.01973-.4387538.02778-.6933379z" fill="#1a7fd4"/></g><path d="m-10.604371 26.29608h1.4999997v-15h-1.4999997z" fill="#e95420" stroke-width="1.185854" transform="matrix(-1 0 0 1 2.395629 -8.29608)"/></svg>