<svg height="16.000032" width="16.000044" xmlns="http://www.w3.org/2000/svg">
  <g fill="#808080" transform="translate(-592.00004 -180)">
    <path d="m600.00004 180a8 8 0 0 0 -8 8 8 8 0 0 0 8 8 8 8 0 0 0 8-8 8 8 0 0 0 -8-8zm0 1a7 7 0 0 1 7 7 7 7 0 0 1 -7 7 7 7 0 0 1 -7-7 7 7 0 0 1 7-7z"/>
    <path d="m600.22598 183.00119c-.44423.00004-.8644.051-1.26059.15241-.35967.0942-.67826.22275-.97261.37143l.30059.8317c.5733-.29101 1.16139-.45031 1.76335-.45031.5061 0 .90759.13371 1.18399.40972.27274.26298.41087.614.41087 1.03006 0 .25941-.0607.50227-.18112.72333-.10768.21489-.2489.41946-.42313.61306-.17065.18961-.35049.37921-.53991.56864l-.00074.00074-.002.00073c-.1846.17537-.35985.36947-.52652.58243l-.00074.00074-.00037.00074c-.16393.20035-.30026.41867-.40972.65556-.0974.23103-.14743.48957-.14743.77886 0 .17351.0201.33626.0471.49511h.90599c-.00074-.0194-.005-.0368-.005-.057v-.15547c0-.32294.0641-.6165.19338-.87574.1256-.26086.28058-.4982.46448-.71146l.00074-.00074c.00038-.00037.00038-.00075.00074-.002.18149-.21952.38205-.42907.60118-.62914.21328-.19473.40775-.39869.58358-.61153.17393-.21054.31995-.43457.43882-.67202v-.00037c.1153-.23959.17385-.51087.17385-.81829 0-.24328-.0403-.49724-.12254-.76202l-.00074-.002-.00037-.002c-.0712-.26708-.20357-.50652-.40091-.72181-.19548-.21325-.45993-.38884-.79763-.52575l-.002-.00074-.002-.00074c-.32127-.14279-.74601-.21747-1.27322-.2175h-.00036zm-.22594 8.30248c-.27072 0-.46806.0826-.61879.25004-.15477.17198-.22898.36574-.22898.59813 0 .23238.0743.42653.22898.5985.15073.16747.34807.24966.61879.24966.27075 0 .46846-.0822.61919-.24966.15476-.17197.22899-.36612.22899-.5985 0-.23239-.0742-.42615-.22899-.59813-.15073-.16747-.34844-.25004-.61919-.25004z"/>
  </g>
</svg>
