<svg xmlns="http://www.w3.org/2000/svg" xmlns:osb="http://www.openswatchbook.org/uri/2009/osb" width="16" height="16" version="1.1">
 <defs>
  <linearGradient id="linearGradient5606" osb:paint="solid">
   <stop id="stop5608" offset="0" style="stop-color:#000000"/>
  </linearGradient>
  <linearGradient id="linearGradient4526" osb:paint="solid">
   <stop id="stop4528" offset="0" style="stop-color:#ffffff"/>
  </linearGradient>
  <linearGradient id="linearGradient3600-4" osb:paint="gradient">
   <stop id="stop3602-7" offset="0" style="stop-color:#f4f4f4"/>
   <stop id="stop3604-6" offset="1" style="stop-color:#dbdbdb"/>
  </linearGradient>
 </defs>
 <g transform="translate(-652.00004,-300)">
  <path d="m 660.00004,300 a 8,8 0 0 0 -8,8 8,8 0 0 0 8,8 8,8 0 0 0 8,-8 8,8 0 0 0 -8,-8 z m 0,1 a 7,7 0 0 1 7,7 7,7 0 0 1 -7,7 7,7 0 0 1 -7,-7 7,7 0 0 1 7,-7 z m 4.24219,2.75781 c -1.74967,0.63708 -3.79443,1.67483 -4.91407,2.26563 -0.22984,0.11183 -0.44226,0.26324 -0.625,0.44531 -0.84611,0.84612 -0.89827,2.16422 -0.11718,2.94531 0.7811,0.7811 2.09924,0.72899 2.94531,-0.11718 0.15626,-0.1564 0.2909,-0.33284 0.39648,-0.5254 0.58272,-1.10071 1.66325,-3.22517 2.31446,-5.01367 z M 659.98637,307 a 1,1 0 0 1 0.7207,0.29297 1,1 0 0 1 0,1.41406 1,1 0 0 1 -1.41406,0 1,1 0 0 1 0,-1.41406 A 1,1 0 0 1 659.98637,307 Z" style="fill:#808080"/>
  <path d="m 661.41426,306.58579 c -0.78109,-0.78109 -2.0997,-0.72872 -2.94582,0.11739 -0.18207,0.18274 -0.33288,0.3944 -0.44471,0.62424 -0.5908,1.11964 -1.62925,3.16556 -2.26632,4.91522 1.7885,-0.6512 3.91256,-1.73196 5.01327,-2.31467 0.19256,-0.10558 0.36979,-0.2401 0.52619,-0.39636 0.84617,-0.84607 0.89849,-2.16472 0.11739,-2.94582 z m -0.70711,0.70711 a 1,1 0 0 1 0,1.41421 1,1 0 0 1 -1.41421,0 1,1 0 0 1 0,-1.41421 1,1 0 0 1 1.41421,0 z" style="opacity:0.5;fill:#808080"/>
 </g>
</svg>
