<svg xmlns="http://www.w3.org/2000/svg" xmlns:osb="http://www.openswatchbook.org/uri/2009/osb" width="16" height="16" version="1.1">
 <defs>
  <linearGradient id="linearGradient5606" osb:paint="solid">
   <stop id="stop5608" offset="0" style="stop-color:#000000"/>
  </linearGradient>
  <linearGradient id="linearGradient4526" osb:paint="solid">
   <stop id="stop4528" offset="0" style="stop-color:#ffffff"/>
  </linearGradient>
  <linearGradient id="linearGradient3600-4" osb:paint="gradient">
   <stop id="stop3602-7" offset="0" style="stop-color:#f4f4f4"/>
   <stop id="stop3604-6" offset="1" style="stop-color:#dbdbdb"/>
  </linearGradient>
 </defs>
 <g transform="translate(-572.00004,-240)">
  <path d="m 580.00004,240 a 8,8 0 0 0 -8,8 8,8 0 0 0 8,8 8,8 0 0 0 8,-8 8,8 0 0 0 -8,-8 z m 0,1 a 7,7 0 0 1 7,7 7,7 0 0 1 -7,7 7,7 0 0 1 -7,-7 7,7 0 0 1 7,-7 z" style="fill:#808080"/>
  <path d="m 580.7083,245.66291 q 0,1.1898 -0.085,2.16714 -0.085,0.96317 -0.21247,1.92635 h -0.82153 q -0.12747,-0.96318 -0.21246,-1.92635 -0.085,-0.97734 -0.085,-2.16714 v -2.66289 h 1.41643 z m 0.24079,6.3881 q 0,0.38244 -0.25496,0.66573 -0.25495,0.28328 -0.69405,0.28328 -0.43909,0 -0.69405,-0.28328 -0.25496,-0.28329 -0.25496,-0.66573 0,-0.38243 0.25496,-0.66572 0.25496,-0.28328 0.69405,-0.28328 0.4391,0 0.69405,0.28328 0.25496,0.28329 0.25496,0.66572 z" style="fill:#808080"/>
 </g>
</svg>
