<?xml version="1.0" encoding="UTF-8" standalone="no"?>
<svg
   xmlns:dc="http://purl.org/dc/elements/1.1/"
   xmlns:cc="http://creativecommons.org/ns#"
   xmlns:rdf="http://www.w3.org/1999/02/22-rdf-syntax-ns#"
   xmlns:svg="http://www.w3.org/2000/svg"
   xmlns="http://www.w3.org/2000/svg"
   xmlns:sodipodi="http://sodipodi.sourceforge.net/DTD/sodipodi-0.dtd"
   xmlns:inkscape="http://www.inkscape.org/namespaces/inkscape"
   width="16"
   height="16"
   version="1.1"
   id="svg4"
   sodipodi:docname="gufw-symbolic.svg"
   inkscape:version="0.92.3 (2405546, 2018-03-11)">
  <metadata
     id="metadata10">
    <rdf:RDF>
      <cc:Work
         rdf:about="">
        <dc:format>image/svg+xml</dc:format>
        <dc:type
           rdf:resource="http://purl.org/dc/dcmitype/StillImage" />
        <dc:title></dc:title>
      </cc:Work>
    </rdf:RDF>
  </metadata>
  <defs
     id="defs8" />
  <sodipodi:namedview
     pagecolor="#ffffff"
     bordercolor="#666666"
     borderopacity="1"
     objecttolerance="10"
     gridtolerance="10"
     guidetolerance="10"
     inkscape:pageopacity="0"
     inkscape:pageshadow="2"
     inkscape:window-width="1920"
     inkscape:window-height="1009"
     id="namedview6"
     showgrid="false"
     inkscape:zoom="14.75"
     inkscape:cx="-4.1016949"
     inkscape:cy="8"
     inkscape:window-x="0"
     inkscape:window-y="34"
     inkscape:window-maximized="1"
     inkscape:current-layer="svg4" />
  <path
     style="fill:#808080;fill-opacity:1;stroke:none;stroke-width:0.01753702;stroke-linecap:butt;stroke-linejoin:miter;stroke-miterlimit:4;stroke-dasharray:none;stroke-opacity:1"
     d="M 2.3286303,0.49999973 C 0.56263731,11.4826 6.4098973,14.7362 8.100307,15.5 10.13658,14.731087 14.97491,10.639125 13.748108,0.49999973 Z m 0.8061168,0.43121247 6.6851736,0.021875 c 0.2476223,0.038875 0.1312512,0.1955625 0,0.3501624 L 3.2863848,7.8192367 C 3.2134474,7.8816114 3.155492,7.909862 3.1109149,7.9078614 2.9678711,7.9166083 2.9274986,7.8624864 2.8600174,7.7951114 2.7860018,7.7176111 2.7606049,7.6224115 2.7268437,7.5291614 2.6126815,7.1513118 2.5580496,6.7567118 2.5217787,6.3144743 2.4704131,5.5849493 2.4232662,4.8471619 2.4450443,4.162737 2.4844568,3.3520745 2.4927724,2.5887371 2.5935387,1.6610996 2.5829168,1.1677372 2.9339936,0.9300872 3.1347489,0.9311997 Z M 13.268837,4.3754119 c 0.141788,0.035625 0.150316,0.4121251 0.142864,0.587825 -0.0089,0.2135374 0.05755,0.3814125 -0.08066,1.3618624 C 12.839185,8.8332492 11.995665,12.721075 8.4208715,14.880088 8.2385527,14.951458 8.05,15.004087 7.8067244,14.892588 7.056401,14.369612 6.3806295,13.9833 5.2973596,12.849925 5.0353218,12.576913 5.1495843,12.515512 5.2026843,12.419763 Z"
     id="path3793"
     inkscape:connector-curvature="0" />
</svg>
