<?xml version="1.0" encoding="UTF-8" standalone="no"?>
<svg
   xmlns:dc="http://purl.org/dc/elements/1.1/"
   xmlns:cc="http://creativecommons.org/ns#"
   xmlns:rdf="http://www.w3.org/1999/02/22-rdf-syntax-ns#"
   xmlns:svg="http://www.w3.org/2000/svg"
   xmlns="http://www.w3.org/2000/svg"
   xmlns:sodipodi="http://sodipodi.sourceforge.net/DTD/sodipodi-0.dtd"
   xmlns:inkscape="http://www.inkscape.org/namespaces/inkscape"
   width="16"
   height="16"
   version="1.1"
   viewBox="0 0 16 16"
   id="svg6"
   sodipodi:docname="hardinfo-symbolic.svg"
   inkscape:version="0.92.3 (2405546, 2018-03-11)">
  <metadata
     id="metadata12">
    <rdf:RDF>
      <cc:Work
         rdf:about="">
        <dc:format>image/svg+xml</dc:format>
        <dc:type
           rdf:resource="http://purl.org/dc/dcmitype/StillImage" />
        <dc:title></dc:title>
      </cc:Work>
    </rdf:RDF>
  </metadata>
  <defs
     id="defs10" />
  <sodipodi:namedview
     pagecolor="#ffffff"
     bordercolor="#666666"
     borderopacity="1"
     objecttolerance="10"
     gridtolerance="10"
     guidetolerance="10"
     inkscape:pageopacity="0"
     inkscape:pageshadow="2"
     inkscape:window-width="770"
     inkscape:window-height="480"
     id="namedview8"
     showgrid="false"
     inkscape:zoom="14.75"
     inkscape:cx="8"
     inkscape:cy="8"
     inkscape:window-x="0"
     inkscape:window-y="27"
     inkscape:window-maximized="0"
     inkscape:current-layer="svg6" />
  <g
     transform="translate(-516,-507.99841)"
     id="g4">
    <path
       d="m 520.88889,507.99841 c -0.24622,0 -0.44445,0.19822 -0.44445,0.44444 v 1.47223 c 0.28394,-0.0738 0.58283,-0.13889 0.88889,-0.13889 h 0.88889 v -1.33334 c 0,-0.24622 -0.19822,-0.44444 -0.44444,-0.44444 z m 2.66667,0 c -0.24623,0 -0.44445,0.19822 -0.44445,0.44444 v 1.33334 h 1.77778 v -1.33334 c 0,-0.24622 -0.19822,-0.44444 -0.44445,-0.44444 z m 2.66666,0 c -0.24622,0 -0.44444,0.19822 -0.44444,0.44444 v 1.33334 h 0.88889 c 0.30604,0 0.60497,0.0652 0.88889,0.13889 v -1.47223 c 0,-0.24622 -0.19823,-0.44444 -0.44445,-0.44444 z m -4.88889,2.66667 c -1.47733,0 -2.66666,1.18933 -2.66666,2.66666 v 5.33334 c 0,1.47733 1.18933,2.66666 2.66666,2.66666 h 5.33334 c 1.47733,0 2.66666,-1.18933 2.66666,-2.66666 v -5.33334 c 0,-1.47733 -1.18933,-2.66666 -2.66666,-2.66666 z m -4.88889,1.77777 c -0.24622,0 -0.44444,0.19823 -0.44444,0.44445 v 0.88889 c 0,0.24622 0.19822,0.44444 0.44444,0.44444 h 1.33334 v -0.88889 c 0,-0.30606 0.0652,-0.60495 0.13889,-0.88889 z m 4.88889,0 h 5.33334 c 0.49244,0 0.88889,0.39645 0.88889,0.88889 v 5.33334 c 0,0.49244 -0.39645,0.88889 -0.88889,0.88889 h -5.33334 c -0.49244,0 -0.88889,-0.39645 -0.88889,-0.88889 v -5.33334 c 0,-0.49244 0.39645,-0.88889 0.88889,-0.88889 z m 8.75005,0 c 0.0738,0.28394 0.13884,0.58283 0.13884,0.88889 v 0.88889 h 1.33334 c 0.24622,0 0.44444,-0.19822 0.44444,-0.44444 v -0.88889 c 0,-0.24622 -0.19822,-0.44445 -0.44444,-0.44445 z m -8.75005,0.88889 v 5.33334 h 5.33334 v -5.33334 z m -4.88889,1.77778 c -0.24622,0 -0.44444,0.19822 -0.44444,0.44445 v 0.88888 c 0,0.24623 0.19822,0.44445 0.44444,0.44445 h 1.33334 v -1.77778 z m 13.77778,0 v 1.77778 h 1.33334 c 0.24622,0 0.44444,-0.19822 0.44444,-0.44445 v -0.88888 c 0,-0.24623 -0.19822,-0.44445 -0.44444,-0.44445 z m -13.77778,2.66667 c -0.24622,0 -0.44444,0.19822 -0.44444,0.44444 v 0.88889 c 0,0.24622 0.19822,0.44445 0.44444,0.44445 h 1.47223 c -0.0738,-0.28394 -0.13889,-0.58283 -0.13889,-0.88889 v -0.88889 z m 13.77778,0 v 0.88889 c 0,0.30606 -0.0649,0.60495 -0.13884,0.88889 h 1.47218 c 0.24622,0 0.44444,-0.19823 0.44444,-0.44445 v -0.88889 c 0,-0.24622 -0.19822,-0.44444 -0.44444,-0.44444 z m -9.77778,4.30555 v 1.47223 c 0,0.24621 0.19823,0.44444 0.44445,0.44444 h 0.88889 c 0.24622,0 0.44444,-0.19823 0.44444,-0.44444 v -1.33334 h -0.88889 c -0.30606,0 -0.60495,-0.0652 -0.88889,-0.13889 z m 7.11112,0 c -0.28392,0.0738 -0.58285,0.13889 -0.88889,0.13889 h -0.88889 v 1.33334 c 0,0.24621 0.19822,0.44444 0.44444,0.44444 h 0.88889 c 0.24622,0 0.44445,-0.19823 0.44445,-0.44444 z m -4.44445,0.13889 v 1.33334 c 0,0.24621 0.19822,0.44444 0.44445,0.44444 h 0.88888 c 0.24623,0 0.44445,-0.19823 0.44445,-0.44444 v -1.33334 z"
       style="fill:#808080"
       id="path2" />
  </g>
</svg>
