<?xml version="1.0" encoding="UTF-8" standalone="no"?>
<svg
   xmlns:dc="http://purl.org/dc/elements/1.1/"
   xmlns:cc="http://creativecommons.org/ns#"
   xmlns:rdf="http://www.w3.org/1999/02/22-rdf-syntax-ns#"
   xmlns:svg="http://www.w3.org/2000/svg"
   xmlns="http://www.w3.org/2000/svg"
   xmlns:sodipodi="http://sodipodi.sourceforge.net/DTD/sodipodi-0.dtd"
   xmlns:inkscape="http://www.inkscape.org/namespaces/inkscape"
   width="16"
   height="16"
   version="1.1"
   viewBox="0 0 4.23 4.23"
   id="svg9"
   sodipodi:docname="hp_logo-symbolic.svg"
   inkscape:version="0.92.4 (5da689c313, 2019-01-14)">
  <metadata
     id="metadata13">
    <rdf:RDF>
      <cc:Work
         rdf:about="">
        <dc:format>image/svg+xml</dc:format>
        <dc:type
           rdf:resource="http://purl.org/dc/dcmitype/StillImage" />
        <dc:title />
      </cc:Work>
    </rdf:RDF>
  </metadata>
  <sodipodi:namedview
     pagecolor="#ffffff"
     bordercolor="#666666"
     borderopacity="1"
     objecttolerance="10"
     gridtolerance="10"
     guidetolerance="10"
     inkscape:pageopacity="0"
     inkscape:pageshadow="2"
     inkscape:window-width="793"
     inkscape:window-height="480"
     id="namedview11"
     showgrid="false"
     inkscape:zoom="14.75"
     inkscape:cx="-4.8813559"
     inkscape:cy="8"
     inkscape:window-x="0"
     inkscape:window-y="27"
     inkscape:window-maximized="0"
     inkscape:current-layer="g7" />
  <defs
     id="defs3">
    <style
       id="current-color-scheme"
       type="text/css">
   .ColorScheme-Text { color:#444; } .ColorScheme-Highlight { color:#5294e2; }
  </style>
  </defs>
  <g
     transform="translate(0,-292.76665)"
     id="g7">
    <path
       fill="currentColor"
       class="ColorScheme-Text"
       d="m 1.545707,292.95514 -0.3765225,1.03491 h -1.113e-4 l -0.63990653,1.75801 h 0.4259857 l 0.54420813,-1.49392 h 0.3202318 l -0.5442082,1.49396 0.4258372,1.1e-4 0.5071013,-1.39373 c 0.072989,-0.20038 -0.041819,-0.36439 -0.2549234,-0.36439 H 1.5953185 l 0.3957814,-1.0876 c -0.1321744,-0.0141 -0.3472085,0.0156 -0.4453929,0.0527 z m 1.1158752,1.03491 -0.6580517,1.80829 h -2.964e-4 l -0.3691384,1.01435 a 2.0101486,2.0101486 0 0 0 0.4064678,0.055 l 0.4073956,-1.11962 h 0.5653587 c 0.099223,0 0.208169,-0.0763 0.2420846,-0.16947 l 0.445652,-1.22415 c 0.072915,-0.20045 -0.041856,-0.36439 -0.2551091,-0.36439 z m 0.3314008,0.26309 h 0.32012 l -0.4482499,1.22987 H 2.5447329 Z"
       display="block"
       overflow="visible"
       id="path5"
       style="fill:#808080;fill-opacity:1" />
  </g>
</svg>
