<svg xmlns="http://www.w3.org/2000/svg" xmlns:osb="http://www.openswatchbook.org/uri/2009/osb" width="16" height="16" version="1.1">
 <title id="title9167">
  Gnome Symbolic Icon Theme
 </title>
 <defs>
  <linearGradient id="linearGradient7212" osb:paint="solid">
   <stop id="stop7214" offset="0" style="stop-color:#000000"/>
  </linearGradient>
 </defs>
 <g id="layer9" transform="translate(-403.0002,145)">
  <path d="m 405.0002,-145 c -1.1032,0 -2,0.8968 -2,2 l 0,12 c 0,1.1032 0.8968,2 2,2 l 12,0 c 1.1032,0 2,-0.8968 2,-2 l 0,-12 c 0,-1.1032 -0.8968,-2 -2,-2 l -12,0 z m 2,2 c 1.10457,0 2,0.89543 2,2 0,1.10457 -0.89543,2 -2,2 -1.10457,0 -2,-0.89543 -2,-2 0,-1.10457 0.89543,-2 2,-2 z m 8,0 c 1.10457,0 2,0.89543 2,2 0,1.10457 -0.89543,2 -2,2 -1.10457,0 -2,-0.89543 -2,-2 0,-1.10457 0.89543,-2 2,-2 z m -4,4 c 1.10457,0 2,0.89543 2,2 0,1.10457 -0.89543,2 -2,2 -1.10457,0 -2,-0.89543 -2,-2 0,-1.10457 0.89543,-2 2,-2 z m -4,4 c 1.10457,0 2,0.89543 2,2 0,1.10457 -0.89543,2 -2,2 -1.10457,0 -2,-0.89543 -2,-2 0,-1.10457 0.89543,-2 2,-2 z m 8,0 c 1.10457,0 2,0.89543 2,2 0,1.10457 -0.89543,2 -2,2 -1.10457,0 -2,-0.89543 -2,-2 0,-1.10457 0.89543,-2 2,-2 z" style="fill:#808080"/>
 </g>
</svg>
