<svg height="16" width="16" xmlns="http://www.w3.org/2000/svg"><g fill="#808080"><path d="m6.1896519.40882002v12.31681198c-.603615-.27072-1.4231953-.420261-2.3275866-.420261-1.8521934 0-3.3620653.690782-3.3620653 1.551728 0 .860939 1.5098719 1.551721 3.3620653 1.551721 1.8521981 0 3.3620709-.690775 3.3620709-1.551721v-10.3448287c2.4823519 0 1.8811444 2.6933203 5.6896568 2.5862063-2.9749002.00769-2.0147-5.66234628-5.6896568-5.68965658z" stroke-width=".9375"/><path d="m14 13v-4 1h1.497139l-2.089968-3.135797-2.089968 3.135797h1.682797v-1 4z"/><path d="m9.497139 8.000001v3.999999-1h-1.497139l2.089968 3.135797 2.089968-3.135797h-1.682797v1-3.999999z"/></g></svg>