<?xml version="1.0" encoding="UTF-8" standalone="no"?>
<svg
   xmlns:dc="http://purl.org/dc/elements/1.1/"
   xmlns:cc="http://creativecommons.org/ns#"
   xmlns:rdf="http://www.w3.org/1999/02/22-rdf-syntax-ns#"
   xmlns:svg="http://www.w3.org/2000/svg"
   xmlns="http://www.w3.org/2000/svg"
   xmlns:xlink="http://www.w3.org/1999/xlink"
   xmlns:sodipodi="http://sodipodi.sourceforge.net/DTD/sodipodi-0.dtd"
   xmlns:inkscape="http://www.inkscape.org/namespaces/inkscape"
   width="16"
   height="16"
   version="1.1"
   viewBox="0 0 4.233125 4.233125"
   id="svg45"
   sodipodi:docname="gnome-mime-application-x-audacity-project.svg"
   inkscape:version="0.92.4 (5da689c313, 2019-01-14)">
  <metadata
     id="metadata49">
    <rdf:RDF>
      <cc:Work
         rdf:about="">
        <dc:format>image/svg+xml</dc:format>
        <dc:type
           rdf:resource="http://purl.org/dc/dcmitype/StillImage" />
        <dc:title></dc:title>
      </cc:Work>
    </rdf:RDF>
  </metadata>
  <sodipodi:namedview
     pagecolor="#ffffff"
     bordercolor="#666666"
     borderopacity="1"
     objecttolerance="10"
     gridtolerance="10"
     guidetolerance="10"
     inkscape:pageopacity="0"
     inkscape:pageshadow="2"
     inkscape:window-width="960"
     inkscape:window-height="1016"
     id="namedview47"
     showgrid="false"
     inkscape:zoom="0.921875"
     inkscape:cx="128"
     inkscape:cy="128"
     inkscape:window-x="0"
     inkscape:window-y="27"
     inkscape:window-maximized="0"
     inkscape:current-layer="svg45" />
  <defs
     id="defs17">
    <linearGradient
       id="linearGradient4226"
       x1="529.65503"
       x2="-35.310001"
       y1="401.58401"
       y2="119.093"
       gradientTransform="matrix(0,-0.11988932,0.11988589,0,0.36277985,292.5483)"
       gradientUnits="userSpaceOnUse">
      <stop
         style="stop-color:#f2f2f2"
         offset="0"
         id="stop2" />
      <stop
         style="stop-color:#f9f9f9"
         offset="1"
         id="stop4" />
    </linearGradient>
    <linearGradient
       id="linearGradient4358"
       x1="88"
       x2="488"
       y1="88"
       y2="488"
       gradientUnits="userSpaceOnUse">
      <stop
         style="stop-color:#000000;stop-opacity:.58823532"
         offset="0"
         id="stop7" />
      <stop
         style="stop-color:#000000;stop-opacity:0"
         offset=".88"
         id="stop9" />
      <stop
         style="stop-color:#000000"
         offset="1"
         id="stop11" />
    </linearGradient>
    <filter
       id="filter4346"
       width="1.026"
       height="1.022"
       x="-0.0099999998"
       y="-0.0099999998"
       style="color-interpolation-filters:sRGB">
      <feGaussianBlur
         stdDeviation="2.12"
         id="feGaussianBlur14" />
    </filter>
    <linearGradient
       inkscape:collect="always"
       xlink:href="#linearGradient927"
       id="linearGradient993"
       x1="328"
       y1="237"
       x2="328"
       y2="251"
       gradientUnits="userSpaceOnUse" />
    <linearGradient
       inkscape:collect="always"
       id="linearGradient927">
      <stop
         style="stop-color:#ffffff;stop-opacity:1;"
         offset="0"
         id="stop923" />
      <stop
         id="stop933"
         offset="0.125"
         style="stop-color:#ffffff;stop-opacity:0.09803922" />
      <stop
         id="stop931"
         offset="0.92500001"
         style="stop-color:#ffffff;stop-opacity:0.09803922" />
      <stop
         style="stop-color:#ffffff;stop-opacity:0.49803922"
         offset="1"
         id="stop925" />
    </linearGradient>
    <clipPath
       clipPathUnits="userSpaceOnUse"
       id="clipPath983">
      <path
         sodipodi:nodetypes="scccssscsss"
         inkscape:connector-curvature="0"
         id="path985"
         d="m 325.09646,237 c -2.80769,0 -3.10979,0.28839 -3.09603,3.10176 V 244 v 3.89824 c -0.0138,2.81337 0.28834,3.10176 3.09603,3.10176 h 5.8075 C 333.71166,251 334,250.71165 334,247.89824 V 244 240.10176 C 334,237.28836 333.71165,237 330.90396,237 Z"
         style="color:#000000;display:inline;overflow:visible;visibility:visible;opacity:1;fill:#46a926;fill-opacity:1;fill-rule:nonzero;stroke:none;stroke-width:2;stroke-miterlimit:4;stroke-dasharray:none;stroke-opacity:1;marker:none;enable-background:accumulate" />
    </clipPath>
    <linearGradient
       inkscape:collect="always"
       xlink:href="#linearGradient4338"
       id="linearGradient920"
       gradientUnits="userSpaceOnUse"
       gradientTransform="matrix(0,-0.00953618,0.00953591,0,-0.94298444,4.47364)"
       x1="459.03448"
       y1="419.23337"
       x2="35.310345"
       y2="207.36522" />
    <linearGradient
       inkscape:collect="always"
       id="linearGradient4338">
      <stop
         style="stop-color:#f2f2f2;stop-opacity:1"
         offset="0"
         id="stop4340" />
      <stop
         style="stop-color:#f9f9f9;stop-opacity:1"
         offset="1"
         id="stop4342" />
    </linearGradient>
  </defs>
  <path
     style="color:#000000;font-style:normal;font-variant:normal;font-weight:normal;font-stretch:normal;font-size:medium;line-height:normal;font-family:sans-serif;font-variant-ligatures:normal;font-variant-position:normal;font-variant-caps:normal;font-variant-numeric:normal;font-variant-alternates:normal;font-feature-settings:normal;text-indent:0;text-align:start;text-decoration:none;text-decoration-line:none;text-decoration-style:solid;text-decoration-color:#000000;letter-spacing:normal;word-spacing:normal;text-transform:none;writing-mode:lr-tb;direction:ltr;text-orientation:mixed;dominant-baseline:auto;baseline-shift:baseline;text-anchor:start;white-space:normal;shape-padding:0;clip-rule:nonzero;display:inline;overflow:visible;visibility:visible;opacity:0.1;isolation:auto;mix-blend-mode:normal;color-interpolation:sRGB;color-interpolation-filters:linearRGB;solid-color:#000000;solid-opacity:1;vector-effect:none;fill:#000000;fill-opacity:1;fill-rule:nonzero;stroke:none;stroke-width:0.52914065;stroke-linecap:butt;stroke-linejoin:miter;stroke-miterlimit:4;stroke-dasharray:none;stroke-dashoffset:0;stroke-opacity:1;marker:none;color-rendering:auto;image-rendering:auto;shape-rendering:auto;text-rendering:auto;enable-background:accumulate"
     d="m 1.3483186,0.264567 c -0.190236,0 -0.344431,0.0037 -0.48573204,0.02739 -0.141305,0.02373 -0.282641,0.0731 -0.390657,0.180858 -0.108013,0.107759 -0.157835,0.249551 -0.181373,0.39117 -0.02355,0.141622 -0.02677,0.296445 -0.02585,0.487285 v 0.765291 1.031412 c -7.94e-4,0.190003 0.0024,0.344563 0.02585,0.485735 0.02355,0.141619 0.07336,0.28341 0.181373,0.39117 0.108016,0.107762 0.249352,0.157139 0.390657,0.180857 0.14130104,0.02373 0.29549604,0.02739 0.48573204,0.02739 h 1.536783 c 0.190237,0 0.344095,-0.0036 0.485217,-0.02739 0.141125,-0.02376 0.282477,-0.07353 0.390138,-0.181374 0.107662,-0.107844 0.157165,-0.249413 0.180858,-0.390654 0.0237,-0.141244 0.02739,-0.295131 0.02739,-0.485735 V 2.11656 1.349719 c 0,-0.190604 -0.0037,-0.344492 -0.02739,-0.485735 -0.02368,-0.141241 -0.0732,-0.28281 -0.180858,-0.390654 -0.107661,-0.107844 -0.249013,-0.157626 -0.390138,-0.181374 -0.141122,-0.02375 -0.29498,-0.02739 -0.485217,-0.02739 z"
     id="path997"
     inkscape:connector-curvature="0"
     sodipodi:nodetypes="scscccccccsscscscscscss" />
  <path
     sodipodi:nodetypes="scccssscsss"
     inkscape:connector-curvature="0"
     id="path928"
     d="m 1.3485196,0.264567 c -0.74283104,0 -0.82275804,0.0763 -0.81911704,0.820634 v 1.031358 1.031359 c -0.0037,0.744334 0.07629,0.820633 0.81911704,0.820633 h 1.536492 c 0.742835,0 0.819121,-0.07629 0.819121,-0.820633 V 2.116559 1.085201 c 0,-0.744342 -0.07629,-0.820634 -0.819121,-0.820634 z"
     style="color:#000000;display:inline;overflow:visible;visibility:visible;opacity:0.2;fill:none;fill-opacity:1;fill-rule:nonzero;stroke:#000000;stroke-width:0.52914065;stroke-miterlimit:4;stroke-dasharray:none;stroke-opacity:1;marker:none;enable-background:accumulate" />
  <path
     style="color:#000000;display:inline;overflow:visible;visibility:visible;fill:url(#linearGradient920);fill-opacity:1;fill-rule:nonzero;stroke:none;stroke-width:0.26457033;marker:none;enable-background:accumulate"
     d="m 1.3485196,0.264567 c -0.74283104,0 -0.82275804,0.0763 -0.81911704,0.820634 v 1.031358 1.031359 c -0.0037,0.744334 0.07629,0.820633 0.81911704,0.820633 h 1.536492 c 0.742835,0 0.819121,-0.07629 0.819121,-0.820633 V 2.116559 1.085201 c 0,-0.744342 -0.07629,-0.820634 -0.819121,-0.820634 z"
     id="path918"
     inkscape:connector-curvature="0"
     sodipodi:nodetypes="scccssscsss" />
  <g
     style="display:inline;enable-background:new"
     id="g1118-3-1-3"
     transform="matrix(0.11340608,0,0,0.11340608,-36.908579,-7.380449)">
    <path
       sodipodi:nodetypes="ccccccccc"
       inkscape:connector-curvature="0"
       id="path1012-3-5-2-6"
       d="m 338.62647,91.484691 1.53392,-5.229131 1.3104,8.252774 1.94918,-9.583827 1.05457,9.127215 1.9174,-9.79274 0.95871,9.50751 1.53392,-6.750334 0.86282,3.898083"
       style="display:inline;fill:none;stroke:#eab305;stroke-width:0.81385314;stroke-linecap:butt;stroke-linejoin:miter;stroke-miterlimit:4;stroke-dasharray:none;stroke-opacity:1;enable-background:new" />
    <path
       sodipodi:nodetypes="cccccccc"
       inkscape:connector-curvature="0"
       id="path1057-6-6-7-0"
       d="m 349.18524,92.843284 -1.46585,-7.572342 -1.66575,9.207283 -1.19933,-8.26074 -2.32944,6.49772 -1.3352,-7.644442 -2.4653,8.288822 -2.42889,-6.710392"
       style="display:inline;fill:none;stroke:#f60000;stroke-width:0.78311688;stroke-linecap:round;stroke-linejoin:bevel;stroke-miterlimit:4;stroke-dasharray:none;stroke-opacity:1;paint-order:fill markers stroke;enable-background:new" />
    <g
       style="display:inline;fill:#234db8;fill-opacity:1;enable-background:new"
       transform="matrix(1.6883939,0,0,1.6883939,-432.54085,-165.30985)"
       id="g6217-7-2-0-6">
      <path
         style="color:#000000;font-style:normal;font-variant:normal;font-weight:normal;font-stretch:normal;font-size:medium;line-height:normal;font-family:sans-serif;text-indent:0;text-align:start;text-decoration:none;text-decoration-line:none;text-decoration-style:solid;text-decoration-color:#000000;letter-spacing:normal;word-spacing:normal;text-transform:none;writing-mode:lr-tb;direction:ltr;baseline-shift:baseline;text-anchor:start;clip-rule:nonzero;display:inline;overflow:visible;visibility:visible;opacity:1;isolation:auto;color-interpolation:sRGB;color-interpolation-filters:linearRGB;fill:#234db8;fill-opacity:1;fill-rule:nonzero;stroke:none;stroke-width:5.79366732;stroke-linecap:butt;stroke-linejoin:miter;stroke-miterlimit:4;stroke-dasharray:none;stroke-dashoffset:0;stroke-opacity:1;marker:none;color-rendering:auto;image-rendering:auto;shape-rendering:auto;text-rendering:auto;enable-background:accumulate"
         id="path4171-9-5-9-9-2"
         d="m 460,140 c -1.43719,-8.2e-4 -2.59548,0.26776 -3.53711,0.69922 -0.19253,0.0849 -0.3801,0.17695 -0.56055,0.2793 -0.0489,0.0286 -0.0932,0.0602 -0.14062,0.0898 -0.11916,0.0722 -0.23898,0.14417 -0.35156,0.22461 -0.0931,0.0665 -0.17671,0.14019 -0.26368,0.21094 -0.61254,0.49828 -1.06089,1.10259 -1.39453,1.75976 -0.0166,0.033 -0.0388,0.0645 -0.0547,0.0977 -0.0164,0.0341 -0.0273,0.0692 -0.043,0.10351 -0.20436,0.44371 -0.37317,0.902 -0.47266,1.37891 -0.0186,0.0893 -0.0217,0.18147 -0.0371,0.27148 -0.0451,0.24538 -0.0797,0.48765 -0.10156,0.72657 -0.002,0.0216 -0.004,0.0428 -0.006,0.0645 -0.0241,0.28728 -0.017,0.54917 -0.0137,0.81836 0.002,0.0999 -7.9e-4,0.19901 0.004,0.29883 0.0132,0.28766 0.0348,0.54468 0.0703,0.79492 0.0213,0.17484 0.0492,0.34669 0.0781,0.51953 0.005,0.023 0.007,0.0557 0.0117,0.0781 v 0.002 l 0.0215,0.0976 c 0.031,0.16986 0.0542,0.3429 0.0918,0.50977 l 0.10938,0.48828 0.008,-0.002 1.05469,5.00781 1.17382,-0.20703 c 0.66034,-0.11709 1.13106,-0.21985 1.34961,-0.39453 0.10972,-0.0877 0.17262,-0.18253 0.20508,-0.35156 0.0325,-0.16904 0.0242,-0.41548 -0.0469,-0.75196 l -0.79102,-3.74023 c -0.0711,-0.33649 -0.16295,-0.56845 -0.26367,-0.7168 -0.10072,-0.14835 -0.20256,-0.21859 -0.34375,-0.26367 -0.28239,-0.0902 -0.75932,-0.024 -1.42383,0.0937 l -0.16211,0.0293 c -0.18209,-1.06859 -0.21795,-2.17204 -0.01,-3.16992 0.24666,-1.18237 0.80309,-2.20573 1.83007,-2.93946 1.01145,-0.72263 2.51511,-1.08713 4.00977,-1.08398 1.49466,-0.003 2.99832,0.36135 4.00977,1.08398 1.02698,0.73373 1.58341,1.75709 1.83007,2.93946 0.20795,0.99788 0.17233,2.10133 -0.01,3.16992 l -0.16211,-0.0293 c -0.66451,-0.1177 -1.14144,-0.18395 -1.42383,-0.0937 -0.14119,0.0451 -0.24303,0.11532 -0.34375,0.26367 -0.10072,0.14835 -0.19257,0.38031 -0.26367,0.7168 l -0.79102,3.74023 c -0.0711,0.33648 -0.0794,0.58292 -0.0469,0.75196 0.0325,0.16903 0.0954,0.26386 0.20508,0.35156 0.21855,0.17468 0.68927,0.27744 1.34961,0.39453 l 1.17382,0.20703 1.05469,-5.00781 0.008,0.002 0.10938,-0.48828 c 0.0376,-0.16687 0.0608,-0.3399 0.0918,-0.50977 l 0.0215,-0.0976 v -0.002 c 0.005,-0.0224 0.007,-0.0551 0.0117,-0.0781 0.0289,-0.17284 0.0568,-0.34469 0.0781,-0.51953 0.0355,-0.25024 0.0571,-0.50726 0.0703,-0.79492 0.005,-0.0998 0.002,-0.19893 0.004,-0.29883 0.003,-0.26919 0.0104,-0.53108 -0.0137,-0.81836 -0.002,-0.0217 -0.004,-0.0428 -0.006,-0.0645 -0.0219,-0.23892 -0.0565,-0.48119 -0.10156,-0.72657 -0.0154,-0.09 -0.0185,-0.18218 -0.0371,-0.27148 -0.0995,-0.47691 -0.2683,-0.9352 -0.47266,-1.37891 -0.0157,-0.0343 -0.0266,-0.0694 -0.043,-0.10351 -0.0159,-0.0332 -0.0381,-0.0647 -0.0547,-0.0977 -0.33364,-0.65717 -0.78199,-1.26148 -1.39453,-1.75976 -0.087,-0.0708 -0.17058,-0.14444 -0.26368,-0.21094 -0.11258,-0.0804 -0.2324,-0.15241 -0.35156,-0.22461 -0.0474,-0.0296 -0.0917,-0.0612 -0.14062,-0.0898 -0.18045,-0.10235 -0.36802,-0.1944 -0.56055,-0.2793 C 462.59548,140.26776 461.43719,139.99918 460,140 Z"
         inkscape:connector-curvature="0" />
    </g>
  </g>
  <path
     style="color:#000000;display:inline;overflow:visible;visibility:visible;opacity:0.2;fill:#ffffff;fill-opacity:1;fill-rule:nonzero;stroke:none;stroke-width:0.26457033;marker:none;enable-background:accumulate"
     d="m 2.1167106,0.264567 v 3.703984 h 0.768391 c 0.742834,0 0.819031,-0.07624 0.819031,-0.82058 V 2.116559 1.085148 c 0,-0.744342 -0.0762,-0.820581 -0.819031,-0.820581 z"
     id="path1009"
     inkscape:connector-curvature="0" />
  <path
     style="color:#000000;display:inline;overflow:visible;visibility:visible;opacity:0.2;fill:#ffffff;fill-opacity:1;fill-rule:nonzero;stroke:none;stroke-width:0.26457033;marker:none;enable-background:accumulate"
     d="m 0.52928856,2.116559 v 1.031412 c -0.0037,0.744334 0.0762,0.82058 0.81903004,0.82058 h 1.536783 c 0.742834,0 0.819031,-0.07624 0.819031,-0.82058 V 2.116559 Z"
     id="path1016"
     inkscape:connector-curvature="0" />
  <path
     transform="matrix(0.26457031,0,0,0.26457031,-84.662351,-62.438597)"
     style="color:#000000;display:inline;overflow:visible;visibility:visible;opacity:0.4;fill:none;fill-opacity:1;fill-rule:nonzero;stroke:url(#linearGradient993);stroke-width:2;stroke-miterlimit:4;stroke-dasharray:none;stroke-opacity:1;marker:none;enable-background:accumulate"
     d="m 325.09646,237 c -2.80769,0 -3.10979,0.28839 -3.09603,3.10176 V 244 v 3.89824 c -0.0138,2.81337 0.28834,3.10176 3.09603,3.10176 h 5.8075 C 333.71166,251 334,250.71165 334,247.89824 V 244 240.10176 C 334,237.28836 333.71165,237 330.90396,237 Z"
     id="path937"
     inkscape:connector-curvature="0"
     sodipodi:nodetypes="scccssscsss"
     clip-path="url(#clipPath983)" />
</svg>
