<?xml version="1.0" encoding="UTF-8" standalone="no"?>
<svg
   xmlns:dc="http://purl.org/dc/elements/1.1/"
   xmlns:cc="http://creativecommons.org/ns#"
   xmlns:rdf="http://www.w3.org/1999/02/22-rdf-syntax-ns#"
   xmlns:svg="http://www.w3.org/2000/svg"
   xmlns="http://www.w3.org/2000/svg"
   xmlns:xlink="http://www.w3.org/1999/xlink"
   xmlns:sodipodi="http://sodipodi.sourceforge.net/DTD/sodipodi-0.dtd"
   xmlns:inkscape="http://www.inkscape.org/namespaces/inkscape"
   width="16"
   height="16"
   version="1.1"
   viewBox="0 0 4.233125 4.233125"
   id="svg39"
   sodipodi:docname="text-x-tex.svg"
   inkscape:version="0.92.4 (5da689c313, 2019-01-14)">
  <metadata
     id="metadata43">
    <rdf:RDF>
      <cc:Work
         rdf:about="">
        <dc:format>image/svg+xml</dc:format>
        <dc:type
           rdf:resource="http://purl.org/dc/dcmitype/StillImage" />
        <dc:title></dc:title>
      </cc:Work>
    </rdf:RDF>
  </metadata>
  <sodipodi:namedview
     pagecolor="#ffffff"
     bordercolor="#666666"
     borderopacity="1"
     objecttolerance="10"
     gridtolerance="10"
     guidetolerance="10"
     inkscape:pageopacity="0"
     inkscape:pageshadow="2"
     inkscape:window-width="793"
     inkscape:window-height="480"
     id="namedview41"
     showgrid="false"
     inkscape:zoom="0.921875"
     inkscape:cx="4.8813559"
     inkscape:cy="128"
     inkscape:window-x="0"
     inkscape:window-y="27"
     inkscape:window-maximized="0"
     inkscape:current-layer="svg39" />
  <defs
     id="defs17">
    <linearGradient
       id="linearGradient4226"
       x1="529.65503"
       x2="-35.310001"
       y1="401.58401"
       y2="119.093"
       gradientTransform="matrix(0,-0.11988932,0.11988589,0,0.36275465,292.5483)"
       gradientUnits="userSpaceOnUse">
      <stop
         style="stop-color:#f2f2f2"
         offset="0"
         id="stop2" />
      <stop
         style="stop-color:#f9f9f9"
         offset="1"
         id="stop4" />
    </linearGradient>
    <linearGradient
       id="linearGradient4358"
       x1="88"
       x2="488"
       y1="88"
       y2="488"
       gradientUnits="userSpaceOnUse">
      <stop
         style="stop-color:#000000;stop-opacity:.58823532"
         offset="0"
         id="stop7" />
      <stop
         style="stop-color:#000000;stop-opacity:0"
         offset=".88"
         id="stop9" />
      <stop
         style="stop-color:#000000"
         offset="1"
         id="stop11" />
    </linearGradient>
    <filter
       id="filter4346"
       width="1.026"
       height="1.022"
       x="-0.0099999998"
       y="-0.0099999998"
       style="color-interpolation-filters:sRGB">
      <feGaussianBlur
         stdDeviation="2.12"
         id="feGaussianBlur14" />
    </filter>
    <linearGradient
       inkscape:collect="always"
       xlink:href="#linearGradient927"
       id="linearGradient993"
       x1="328"
       y1="237"
       x2="328"
       y2="251"
       gradientUnits="userSpaceOnUse" />
    <linearGradient
       inkscape:collect="always"
       id="linearGradient927">
      <stop
         style="stop-color:#ffffff;stop-opacity:1;"
         offset="0"
         id="stop923" />
      <stop
         id="stop933"
         offset="0.125"
         style="stop-color:#ffffff;stop-opacity:0.09803922" />
      <stop
         id="stop931"
         offset="0.92500001"
         style="stop-color:#ffffff;stop-opacity:0.09803922" />
      <stop
         style="stop-color:#ffffff;stop-opacity:0.49803922"
         offset="1"
         id="stop925" />
    </linearGradient>
    <clipPath
       clipPathUnits="userSpaceOnUse"
       id="clipPath983">
      <path
         sodipodi:nodetypes="scccssscsss"
         inkscape:connector-curvature="0"
         id="path985"
         d="m 325.09646,237 c -2.80769,0 -3.10979,0.28839 -3.09603,3.10176 V 244 v 3.89824 c -0.0138,2.81337 0.28834,3.10176 3.09603,3.10176 h 5.8075 C 333.71166,251 334,250.71165 334,247.89824 V 244 240.10176 C 334,237.28836 333.71165,237 330.90396,237 Z"
         style="color:#000000;display:inline;overflow:visible;visibility:visible;opacity:1;fill:#46a926;fill-opacity:1;fill-rule:nonzero;stroke:none;stroke-width:2;stroke-miterlimit:4;stroke-dasharray:none;stroke-opacity:1;marker:none;enable-background:accumulate" />
    </clipPath>
    <linearGradient
       inkscape:collect="always"
       xlink:href="#linearGradient4338"
       id="linearGradient920"
       gradientUnits="userSpaceOnUse"
       gradientTransform="matrix(0,-0.00953618,0.00953591,0,-0.94298344,4.47364)"
       x1="459.03448"
       y1="419.23337"
       x2="35.310345"
       y2="207.36522" />
    <linearGradient
       inkscape:collect="always"
       id="linearGradient4338">
      <stop
         style="stop-color:#f2f2f2;stop-opacity:1"
         offset="0"
         id="stop4340" />
      <stop
         style="stop-color:#f9f9f9;stop-opacity:1"
         offset="1"
         id="stop4342" />
    </linearGradient>
  </defs>
  <path
     style="color:#000000;font-style:normal;font-variant:normal;font-weight:normal;font-stretch:normal;font-size:medium;line-height:normal;font-family:sans-serif;font-variant-ligatures:normal;font-variant-position:normal;font-variant-caps:normal;font-variant-numeric:normal;font-variant-alternates:normal;font-feature-settings:normal;text-indent:0;text-align:start;text-decoration:none;text-decoration-line:none;text-decoration-style:solid;text-decoration-color:#000000;letter-spacing:normal;word-spacing:normal;text-transform:none;writing-mode:lr-tb;direction:ltr;text-orientation:mixed;dominant-baseline:auto;baseline-shift:baseline;text-anchor:start;white-space:normal;shape-padding:0;clip-rule:nonzero;display:inline;overflow:visible;visibility:visible;opacity:0.1;isolation:auto;mix-blend-mode:normal;color-interpolation:sRGB;color-interpolation-filters:linearRGB;solid-color:#000000;solid-opacity:1;vector-effect:none;fill:#000000;fill-opacity:1;fill-rule:nonzero;stroke:none;stroke-width:0.52914065;stroke-linecap:butt;stroke-linejoin:miter;stroke-miterlimit:4;stroke-dasharray:none;stroke-dashoffset:0;stroke-opacity:1;marker:none;color-rendering:auto;image-rendering:auto;shape-rendering:auto;text-rendering:auto;enable-background:accumulate"
     d="m 1.3483196,0.264567 c -0.190236,0 -0.344431,0.0037 -0.48573204,0.02739 -0.141305,0.02373 -0.282641,0.0731 -0.390657,0.180858 -0.108013,0.107759 -0.157835,0.24955 -0.181374,0.391169 -0.02355,0.141622 -0.02677,0.296446 -0.02585,0.487286 v 0.765291 1.031411 c -7.94e-4,0.190004 0.0024,0.344563 0.02585,0.485736 0.02355,0.141619 0.07336,0.28341 0.181374,0.391169 0.108016,0.107763 0.249352,0.157139 0.390657,0.180858 0.14130104,0.02373 0.29549604,0.02739 0.48573204,0.02739 h 1.536783 c 0.190237,0 0.344095,-0.0036 0.485217,-0.02739 0.141124,-0.02376 0.282476,-0.07353 0.390138,-0.181374 0.107662,-0.107844 0.157165,-0.249413 0.180858,-0.390653 0.0237,-0.141244 0.02739,-0.295131 0.02739,-0.485736 V 2.116561 1.34972 c 0,-0.190605 -0.0037,-0.344492 -0.02739,-0.485736 -0.02368,-0.14124 -0.0732,-0.282809 -0.180858,-0.390653 -0.107662,-0.107845 -0.249014,-0.157626 -0.390138,-0.181374 -0.141122,-0.02375 -0.29498,-0.02739 -0.485217,-0.02739 z"
     id="path997"
     inkscape:connector-curvature="0"
     sodipodi:nodetypes="scscccccccsscscscscscss" />
  <path
     sodipodi:nodetypes="scccssscsss"
     inkscape:connector-curvature="0"
     id="path928"
     d="m 1.3485206,0.264567 c -0.74283104,0 -0.82275804,0.0763 -0.81911704,0.820633 v 1.031359 1.031358 c -0.0037,0.744335 0.07629,0.820634 0.81911704,0.820634 h 1.536492 c 0.742834,0 0.819121,-0.07629 0.819121,-0.820634 V 2.116559 1.0852 c 0,-0.744342 -0.07629,-0.820633 -0.819121,-0.820633 z"
     style="color:#000000;display:inline;overflow:visible;visibility:visible;opacity:0.2;fill:none;fill-opacity:1;fill-rule:nonzero;stroke:#000000;stroke-width:0.52914065;stroke-miterlimit:4;stroke-dasharray:none;stroke-opacity:1;marker:none;enable-background:accumulate" />
  <path
     style="color:#000000;display:inline;overflow:visible;visibility:visible;fill:url(#linearGradient920);fill-opacity:1;fill-rule:nonzero;stroke:none;stroke-width:0.26457033;marker:none;enable-background:accumulate"
     d="m 1.3485206,0.264567 c -0.74283104,0 -0.82275804,0.0763 -0.81911704,0.820633 v 1.031359 1.031358 c -0.0037,0.744335 0.07629,0.820634 0.81911704,0.820634 h 1.536492 c 0.742834,0 0.819121,-0.07629 0.819121,-0.820634 V 2.116559 1.0852 c 0,-0.744342 -0.07629,-0.820633 -0.819121,-0.820633 z"
     id="path918"
     inkscape:connector-curvature="0"
     sodipodi:nodetypes="scccssscsss" />
  <path
     inkscape:connector-curvature="0"
     style="font-style:normal;font-variant:normal;font-weight:normal;font-stretch:normal;font-size:15.12844849px;line-height:125%;font-family:'Latin Modern Roman';-inkscape-font-specification:'Latin Modern Roman';text-align:start;letter-spacing:0px;word-spacing:0px;writing-mode:lr-tb;text-anchor:start;display:inline;opacity:1;fill:#111111;fill-opacity:1;stroke:none;stroke-width:0.07757492;enable-background:new"
     d="m 2.4518846,1.322848 v 0.05118 h 0.03412 c 0.09084,0 0.12215,0.01177 0.153533,0.058 l 0.303655,0.460601 -0.272947,0.399187 c -0.02312,0.03303 -0.07201,0.10918 -0.238833,0.10918 v 0.05118 l 0.184242,-0.0068 c 0.06112,0 0.152075,0.0018 0.211537,0.0068 v -0.05118 c -0.07598,-0.0016 -0.105767,-0.04874 -0.105767,-0.07847 0,-0.01487 0.0055,-0.01937 0.01707,-0.03753 l 0.235417,-0.348014 0.259303,0.395776 c 0.0033,0.0066 0.01024,0.01209 0.01024,0.01707 0,0.01982 -0.03816,0.04953 -0.10918,0.05118 v 0.05118 c 0.05781,-0.005 0.179476,-0.0068 0.24224,-0.0068 l 0.214953,0.0068 v -0.05118 h -0.03071 c -0.08589,0 -0.122258,-0.01021 -0.156943,-0.06141 L 3.0558036,1.814175 3.2809876,1.483224 c 0.03634,-0.05285 0.09524,-0.107527 0.242241,-0.10918 v -0.05118 l -0.184242,0.0068 c -0.06607,0 -0.145466,-0.0018 -0.211534,-0.0068 v 0.05118 c 0.06607,0.0016 0.102357,0.03707 0.102357,0.07506 0,0.01651 -0.0021,0.02278 -0.01365,0.04094 L 3.0250916,1.766406 2.8135606,1.449102 c -0.0033,-0.005 -0.01024,-0.01728 -0.01024,-0.02389 0,-0.01982 0.03474,-0.04952 0.105764,-0.05118 v -0.05117 c -0.05781,0.005 -0.179476,0.0068 -0.24224,0.0068 z m -1.77922204,0 -0.03071,0.371893 h 0.04094 c 0.02312,-0.265925 0.04742,-0.320712 0.296832,-0.320712 0.02973,0 0.07219,1.06e-4 0.08871,0.0034 0.03469,0.0066 0.03753,0.02341 0.03753,0.06141 v 0.889059 c 0,0.05616 -5.29e-4,0.08534 -0.17400524,0.08188 h -0.06824 v 0.05118 c 0.06772,-0.005 0.23791224,-0.0068 0.31388824,-0.0068 0.07598,0 0.246172,0.0018 0.313892,0.0068 v -0.05117 h -0.06824 c -0.173429,0 -0.170592,-0.02574 -0.170592,-0.08188 V 1.438849 c 0,-0.03303 -0.0024,-0.05481 0.02729,-0.06141 0.01818,-0.0033 0.06415,-0.0034 0.09553,-0.0034 0.249411,0 0.273709,0.05479 0.296832,0.320715 h 0.04095 L 1.6825596,1.322858 Z M 1.5738206,1.779613 v 0.05118 h 0.04094 c 0.127182,0 0.129653,0.01561 0.129653,0.07506 v 0.874772 c 0,0.05946 -0.0024,0.07847 -0.129653,0.07847 h -0.04094 v 0.05118 h 0.951908 l 0.07165,-0.426482 h -0.04435 c -0.04129,0.254363 -0.07756,0.375306 -0.361654,0.375306 h -0.218363 c -0.07763,0 -0.08188,-0.01373 -0.08188,-0.06824 V 2.346651 h 0.146712 c 0.160213,0 0.180826,0.05408 0.180826,0.194475 h 0.04095 V 2.100997 h -0.04095 c 0,0.142048 -0.02061,0.194475 -0.180826,0.194475 H 1.8911316 V 1.895617 c 0,-0.0545 0.0043,-0.06482 0.08188,-0.06482 h 0.211537 c 0.252713,0 0.2977,0.08772 0.324128,0.317304 h 0.04094 l -0.04777,-0.36848 z"
     id="path962"
     sodipodi:nodetypes="ccsccccccccscccscccccsccccccccscccscccccccscsssccsccssscsccccccsssscccccssscsccccscssscccc" />
  <path
     style="color:#000000;display:inline;overflow:visible;visibility:visible;opacity:0.2;fill:#ffffff;fill-opacity:1;fill-rule:nonzero;stroke:none;stroke-width:0.26457033;marker:none;enable-background:accumulate"
     d="m 2.1167116,0.264567 v 3.703984 h 0.768391 c 0.742834,0 0.819031,-0.07624 0.819031,-0.820581 V 2.116559 1.085147 c 0,-0.744342 -0.0762,-0.82058 -0.819031,-0.82058 z"
     id="path1009"
     inkscape:connector-curvature="0" />
  <path
     style="color:#000000;display:inline;overflow:visible;visibility:visible;opacity:0.2;fill:#ffffff;fill-opacity:1;fill-rule:nonzero;stroke:none;stroke-width:0.26457033;marker:none;enable-background:accumulate"
     d="M 0.52928956,2.116559 V 3.14797 c -0.0037,0.744335 0.0762,0.820581 0.81903004,0.820581 h 1.536783 c 0.742834,0 0.819031,-0.07624 0.819031,-0.820581 V 2.116559 Z"
     id="path1016"
     inkscape:connector-curvature="0" />
  <path
     transform="matrix(0.26457031,0,0,0.26457031,-84.66235,-62.438598)"
     style="color:#000000;display:inline;overflow:visible;visibility:visible;opacity:0.4;fill:none;fill-opacity:1;fill-rule:nonzero;stroke:url(#linearGradient993);stroke-width:2;stroke-miterlimit:4;stroke-dasharray:none;stroke-opacity:1;marker:none;enable-background:accumulate"
     d="m 325.09646,237 c -2.80769,0 -3.10979,0.28839 -3.09603,3.10176 V 244 v 3.89824 c -0.0138,2.81337 0.28834,3.10176 3.09603,3.10176 h 5.8075 C 333.71166,251 334,250.71165 334,247.89824 V 244 240.10176 C 334,237.28836 333.71165,237 330.90396,237 Z"
     id="path937"
     inkscape:connector-curvature="0"
     sodipodi:nodetypes="scccssscsss"
     clip-path="url(#clipPath983)" />
</svg>
