<svg height="16" width="16" xmlns="http://www.w3.org/2000/svg" xmlns:xlink="http://www.w3.org/1999/xlink"><linearGradient id="a" gradientTransform="matrix(.31496059 0 0 .31496072 .166665 -77.709954)" gradientUnits="userSpaceOnUse" x1="13.735326" x2="38.099998" y1="249.69423" y2="292.76666"><stop offset="0" stop-color="#cdcdcd"/><stop offset="1" stop-color="#d9d9d9"/></linearGradient><circle cx="7.999999" cy="7.999981" fill="url(#a)" r="7.499999"/><path d="m7.9999989.50000288a7.4999983 7.4999983 0 0 0 -7.4999989 7.49999882h7.4999989zm0 7.49999882v7.4999983a7.4999983 7.4999983 0 0 0 7.4999981-7.4999983z" fill="#fff" opacity=".2"/><path d="m13.303305 2.6966949a7.4999983 7.4999983 0 0 0 -10.6066015 0l5.3032954 5.3033068zm-5.3033061 5.3033068-5.3032954 5.3032943a7.4999983 7.4999983 0 0 0 10.6066015 0z" opacity=".02"/><path d="m5.9541492.78454129a7.4999983 7.4999983 0 0 0 -.1361884.0461538 7.4999983 7.4999983 0 0 1 .3626884-.0983077 7.4999983 7.4999983 0 0 0 -.2265.0521539zm.5905961-.13604998a7.4999983 7.4999983 0 0 1 .3694615-.0613846 7.4999983 7.4999983 0 0 0 -.3694615.0613846zm-1.0807268.3019038a7.4999983 7.4999983 0 0 0 -.3506999.13391539 7.4999983 7.4999983 0 0 1 .3506999-.13391539zm1.822742-.41053839a7.4999983 7.4999983 0 0 1 .3722423-.0242308 7.4999983 7.4999983 0 0 0 -.3722423.0242308zm-2.5132611.69874608a7.4999983 7.4999983 0 0 0 -.3370961.1689922 7.4999983 7.4999983 0 0 1 .3370961-.1689922zm3.2615649-.73285377a7.4999983 7.4999983 0 0 1 .3740538.0133846 7.4999983 7.4999983 0 0 0 -.3740538-.0133846zm-3.9197879 1.08849217a7.4999983 7.4999983 0 0 0 -.3189346.2019115 7.4999983 7.4999983 0 0 1 .3189346-.2019115zm4.6666378-1.04771525a7.4999983 7.4999983 0 0 1 .3718498.05065379 7.4999983 7.4999983 0 0 0 -.3718498-.05065379zm-5.2867839 1.46763445a7.4999983 7.4999983 0 0 0 -.2972307.2329153 7.4999983 7.4999983 0 0 1 .2972307-.2329153zm6.0283027-1.35219217a7.4999983 7.4999983 0 0 1 .3623428.0868846 7.4999983 7.4999983 0 0 0 -.3623428-.0868846zm-6.7114718 1.92805357a7.4999983 7.4999983 0 0 0 -.085038.079269 7.4999983 7.4999983 0 0 1 .085038-.079269zm-.1122692.1086923a7.4999983 7.4999983 0 0 0 -1.1940345 1.5511613l6.4951376 3.7499647zm5.3011031 5.301126 5.3010899 5.3011369a7.4999983 7.4999983 0 0 0 1.194046-1.551161zm2.2473229-7.1493219a7.4999983 7.4999983 0 0 1 .352592.12283844 7.4999983 7.4999983 0 0 0 -.352592-.12283844zm.702102.2599153a7.4999983 7.4999983 0 0 1 .340327.1583654 7.4999983 7.4999983 0 0 0 -.340327-.1583654zm.673073.3289038a7.4999983 7.4999983 0 0 1 .123023.073039l.0046-.00808a7.4999983 7.4999983 0 0 0 -.12745-.065308zm-7.368032 13.0479547-.00462.0081a7.4999983 7.4999983 0 0 0 .1274654.06531 7.4999983 7.4999983 0 0 1 -.1230231-.07304zm.4557807.2436a7.4999983 7.4999983 0 0 0 .3403153.158354 7.4999983 7.4999983 0 0 1 -.3403153-.158354zm.6898268.295431a7.4999983 7.4999983 0 0 0 .3526038.12285 7.4999983 7.4999983 0 0 1 -.3526038-.12285zm7.8738435-1.695865a7.4999983 7.4999983 0 0 1 -.08504.07927 7.4999983 7.4999983 0 0 0 .08504-.07927zm-7.1588744 1.920392a7.4999983 7.4999983 0 0 0 .3623423.08689 7.4999983 7.4999983 0 0 1 -.3623423-.08689zm6.6878744-1.498188a7.4999983 7.4999983 0 0 1 -.297219.232915 7.4999983 7.4999983 0 0 0 .297219-.232915zm-5.9558514 1.649884a7.4999983 7.4999983 0 0 0 .37185.05065 7.4999983 7.4999983 0 0 1 -.37185-.05065zm5.3574214-1.198961a7.4999983 7.4999983 0 0 1 -.318946.201911 7.4999983 7.4999983 0 0 0 .318946-.201911zm-4.6127753 1.277019a7.4999983 7.4999983 0 0 0 .3740422.01338 7.4999983 7.4999983 0 0 1 -.3740422-.01338zm3.9727023-.888462a7.4999983 7.4999983 0 0 1 -.337096.168993 7.4999983 7.4999983 0 0 0 .337096-.168993zm-3.2225871.891923a7.4999983 7.4999983 0 0 0 .3722423-.02423 7.4999983 7.4999983 0 0 1 -.3722423.02423zm2.5456711-.568638a7.4999983 7.4999983 0 0 1 -.350687.133904 7.4999983 7.4999983 0 0 0 .350687-.133904zm-1.800875.497169a7.4999983 7.4999983 0 0 0 .36945-.06138 7.4999983 7.4999983 0 0 1 -.36945.06138zm1.096234-.243507a7.4999983 7.4999983 0 0 1 -.3626762.09831 7.4999983 7.4999983 0 0 0 .3626762-.09831z" fill="#faf8f6"/><circle cx="7.999999" cy="-7.999999" fill="#aea795" r="3.461538" transform="scale(1 -1)"/><circle cx="7.999999" cy="7.999999" fill="#faf8f6" r="2.307692"/><circle cx="7.999999" cy="7.999999" fill="#4d4d4d" r="1.153846"/><path d="m15.490234 7.7128906a7.499999 7.499999 0 0 1 -7.490234 7.2871094 7.499999 7.499999 0 0 1 -7.49023438-7.2128906 7.499999 7.499999 0 0 0 -.00976562.2128906 7.499999 7.499999 0 0 0 7.5 7.5 7.499999 7.499999 0 0 0 7.5-7.5 7.499999 7.499999 0 0 0 -.009766-.2871094z" fill="#030303" opacity=".2"/><path d="m8 .5a7.499999 7.499999 0 0 0 -7.5 7.5 7.499999 7.499999 0 0 0 .00976562.2871094 7.499999 7.499999 0 0 1 7.49023438-7.2871094 7.499999 7.499999 0 0 1 7.490234 7.2128906 7.499999 7.499999 0 0 0 .009766-.2128906 7.499999 7.499999 0 0 0 -7.5-7.5z" fill="#fff" opacity=".3"/></svg>