<svg height="16" viewBox="0 0 16 16" width="16" xmlns="http://www.w3.org/2000/svg"><g stroke-width="1.142857"><path d="m12.71784 0c-3.1252574 0-3.7115253 4.7477679-1.953125 4.7477679 1.7576 0 5.078725-4.7477679 1.953125-4.7477679zm-4.8125002.72991074c-.0492343-.00022857-.1030765-.00026788-.1584822.01116069-1.7709714.22365714-1.1482029 3.22089997-.2053571 3.27678567.9129142.0548572 1.9108072-3.2804571.3616072-3.28571424zm-3.0714286 1.10714286c-.1083543-.0114286-.2280757.0143392-.3616072.0691965-1.4235429.5844571-.2165571 2.9969928.5803573 2.8348213.7233256-.1469714.8273413-2.8360178-.2187501-2.9040178zm-2.3236607 1.9732143c-.1237257 0-.2567764.038461-.3995536.1450892-1.13943999.8504.3831143 2.9055679 1.0535714 2.5870536.5864572-.2789714.2123136-2.7008285-.6540178-2.7321428zm6.7299106 1.9598214c-2.4689141-.0422858-5.7255928 1.2107643-6.2812499 3.7276786-.6012343 2.7230861 2.4764143 6.5022321 5.6875 6.5022321 1.5796578 0 3.4021618-1.444093 3.7433038-3.272321.260309-1.394057-3.0657431-.835118-2.9464288.087054.1433828 1.105714-.7999721 1.652417-1.7254464.939731-2.9459429-2.269143 4.8777212-3.402232 4.3616072-6.5022319-.160617-.9650286-1.357914-1.4567714-2.8392859-1.4821428z" fill="#454545"/><path d="m12.71875 0c-2.095272 0-3.0446298 2.1304984-2.9160156 3.5371094.1038223-1.3609799 1.0577486-3.0371094 2.9160156-3.0371094.785626 0 1.161518.30088074 1.259766.75.100689-.71083273-.210533-1.25-1.259766-1.25zm-4.8125.73046875c-.0492343-.00022857-.1047506-.00166295-.1601562.00976563-.9275865.1171455-1.189397.99278632-1.1015626 1.81054682.0576969-.6412745.3651335-1.2175427 1.1015626-1.3105468.0554056-.0114285.1109219-.0099941.1601562-.0097656l-.0039062.0019531c.5071785.001721.7237968.3737751.7773437.8535156.074635-.7111587-.1020564-1.35122407-.7773437-1.35351562zm-3.0722656 1.10742185c-.1083543-.0114286-.2277966.0135021-.3613282.0683594-.5720539.2348654-.7091211.7651175-.6289062 1.3046875.0578558-.3435739.2392907-.6447249.6289062-.8046875.1335316-.0548573.2529739-.079788.3613282-.0683594.4768017.030994.7047076.6091039.7539062 1.2402344.0604429-.7928191-.1501216-1.700986-.7539062-1.7402344zm-2.3242188 1.9726563c-.1237257 0-.2556603.037903-.3984375.1445312-.3601921.2688228-.4377698.6600764-.3769531 1.0566407.0530348-.2104643.1716936-.403449.3769531-.5566407.1427772-.1066282.2747118-.1445312.3984375-.1445312.5216298.0188547.8593715.9034279.921875 1.6660156.0915275-.8032652-.2784067-2.1427569-.921875-2.1660156zm6.7304688 1.9589843c-2.4689141-.0422858-5.7255929 1.2116014-6.28125 3.7285157-.0683466.3095526-.0840259.6331471-.0625.9628911.0113147-.15675.0291441-.311817.0625-.4628911.5556571-2.5169143 3.8123359-3.7708015 6.28125-3.7285157 1.4813716.0253715 2.6792266.5173933 2.8398436 1.4824219.00406.0243869-.003037.0461675 0 .0703125.030171-.1828943.032991-.372155 0-.5703125-.160617-.9650286-1.358472-1.4570504-2.8398436-1.4824219zm2.3007816 6.1308598c-.900391-.095544-2.1722281.337705-2.0976566.914062.1433828 1.105714-.7991351 1.652139-1.7246094.939453-.3460416-.266542-.5334609-.515638-.6132812-.755859-.1241068.390119.0200938.798951.6132812 1.255859.9254743.712686 1.8679922.166261 1.7246094-.939453-.1067891-.825365 2.5385676-1.355382 2.9101566-.458984.009815-.043215.028961-.083286.037109-.126953.097616-.522772-.309375-.770799-.849609-.828125z" fill="#fffafa" opacity=".3"/><path d="m13.978516.75c-.199258 1.4066934-2.0453 3.4980469-3.212891 3.4980469-.579513 0-.899667-.5194812-.9628906-1.2109375-.0707874.9279331.2500296 1.7109375.9628906 1.7109375 1.315824 0 3.505519-2.6603518 3.212891-3.9980469zm-5.2988285.8359375c-.0965877.920335-.6236917 1.9625859-1.1386719 1.9316406-.4490089-.0266143-.8166231-.7232684-.8964844-1.4667969-.081053.9008686.3457054 1.9341504.8964844 1.9667969.6140435.036898 1.2486865-1.445992 1.1386719-2.4316406zm-4.8359375 1.125c-.1535327.9117461.6301809 2.147083 1.2089844 2.0292969.3936384-.0799828.5938982-.9085548.5351562-1.6621094-.0442778.5807854-.2293208 1.0999671-.5351562 1.1621094-.4766726.0970025-1.0895864-.7261596-1.2089844-1.5292969zm-2.109375 1.8007813c-.2413728.9578681.880007 2.2923869 1.4296875 2.03125.2333435-.110999.3088815-.5624756.2675781-1.0664063-.0317002.2782082-.1167124.4946411-.2675781.5664063-.4585167.2178276-1.2981153-.673314-1.4296875-1.53125zm10.345703 2.8105468c-.386379 2.3422375-5.5308835 3.5016604-4.9746092 5.1757814.4873953-1.532086 5.2799142-2.7486961 4.9746092-5.1757814zm-9.1835936 2.6386719c-.1926313 2.6686325 2.7170618 6.0390625 5.75 6.0390625 1.5796576 0 3.4029986-1.443256 3.7441406-3.271484.027326-.146344.006474-.267909-.037109-.373047-.401109 1.766058-2.165105 3.144531-3.7070316 3.144531-2.8460587 0-5.5821663-2.968103-5.75-5.5390625z" fill="#130b0b" opacity=".2"/></g></svg>