<svg height="16" width="16" xmlns="http://www.w3.org/2000/svg"><path d="m15.500015 4.8542206c0-3.04166-.30899-3.36894-3.32331-3.35403h-4.1766909-4.1766898c-3.01431986-.0149-3.32330986.31237-3.32330986 3.35403v6.2914594c0 3.04167.30895 3.35404 3.32330986 3.35404h4.1766898 4.1766909c3.01435 0 3.32331-.31238 3.32331-3.35404z" fill="#4d4d4d"/><path d="m3.8242188 1.5c-3.01431991-.0149-3.3242188.3118556-3.3242188 3.3535156v.5019532c0-3.04166.30989889-3.3703688 3.3242188-3.3554688h4.1757812 4.175781c3.01432-.01491 3.324219.3138088 3.324219 3.3554688v-.5019532c0-3.04166-.309899-3.3684256-3.324219-3.3535156h-4.175781z" fill="#fff" opacity=".3"/><path d="m12.175781 14.499534c3.01432.0149 3.324219-.311855 3.324219-3.353515v-.501954c0 3.04166-.309899 3.370369-3.324219 3.355469h-4.1757812-4.175781c-3.01432003.01491-3.32421903-.313809-3.32421903-3.355469v.501954c0 3.04166.309899 3.368425 3.32421903 3.353515h4.175781z" opacity=".2"/><g enable-background="new" stroke-width="1.278659" transform="matrix(.06696428 0 0 .06696428 -.704929 .0223)"><rect fill="#2e3436" height="162.30408" rx="9.547751" width="95.473671" x="139.41425" y="50.50494"/><path d="m148.96585 60.05653h76.378174v133.66211h-76.378174z" fill="#729fcf"/><path d="m225.34526 193.71757v-133.662538h-8.16745l-60.13697 133.662538z" fill="#f8f8f8" opacity=".3"/></g><g stroke-width=".085625"><path d="m9.270013 3.4049584c-.3541886 0-.6393406.2851574-.6393406.6393423v.155703c0-.348789.285152-.6294749.6393406-.6294749h5.114728c.3531 0 .637427.2789865.639174.6263v-.1525281c0-.3541849-.284986-.6393423-.639174-.6393423z" fill="#fff" opacity=".3"/><path d="m8.6303803 13.43704v.171249c0 .354185.2851525.639343.6393412.639343h5.1145595c.354187 0 .639339-.285158.639339-.639343v-.171249c0 .354185-.285152.639342-.639339.639342h-5.1145595c-.3541887 0-.6393412-.285157-.6393412-.639342z" opacity=".2"/></g></svg>