<svg height="16" width="16" xmlns="http://www.w3.org/2000/svg"><path d="m15.500014 4.85422c0-3.04166-.30899-3.36894-3.32331-3.35403h-4.1766895-4.1766901c-3.01431996-.0149-3.32330996.31237-3.32330996 3.35403v6.29146c0 3.04167.30895 3.35404 3.32330996 3.35404h4.1766901 4.1766895c3.01435 0 3.32331-.31238 3.32331-3.35404z" fill="#216c4d"/><g enable-background="new" fill="#5ca487" transform="translate(-320 -236.00027)"><path d="m321 242h14v1h-14z"/><path d="m321 245h14v1h-14z"/><g transform="rotate(-90)"><path d="m-250 326h12v1h-12z"/><path d="m-250 329h12v1h-12z"/></g></g><path d="m6.000004 5.99972h4v4h-4z" fill="#3c3c3c"/><g fill="#eab305" fill-opacity=".8"><path d="m10.000005 5.99972h2v1h-2z"/><path d="m10.000005 8.99972h2v1h-2z"/><path d="m9.000005 9.999721h1v2h-1z"/><path d="m6.000004 9.999721h1v2h-1z"/><path d="m4.000004 8.99972h2v1h-2z"/><path d="m4.000004 5.99972h2v1h-2z"/><path d="m6.000004 3.99972h1v2h-1z"/><path d="m9.000005 3.99972h1v2h-1z"/></g><path d="m3.8242188 1.5c-3.01432001-.0149-3.3242188.3118556-3.3242188 3.3535156v.5019532c0-3.04166.30989879-3.3703688 3.3242188-3.3554688h4.1757812 4.175781c3.01432-.01491 3.324219.3138088 3.324219 3.3554688v-.5019532c0-3.04166-.309899-3.3684256-3.324219-3.3535156h-4.175781z" fill="#fff" opacity=".3"/><path d="m12.175781 14.499534c3.01432.0149 3.324219-.311855 3.324219-3.353515v-.501954c0 3.04166-.309899 3.370369-3.324219 3.355469h-4.1757812-4.175781c-3.01432003.01491-3.32421903-.313809-3.32421903-3.355469v.501954c0 3.04166.309899 3.368425 3.32421903 3.353515h4.175781z" opacity=".2"/></svg>