<svg enable-background="new" height="16" width="16" xmlns="http://www.w3.org/2000/svg" xmlns:xlink="http://www.w3.org/1999/xlink"><linearGradient id="a" gradientUnits="userSpaceOnUse" x1="155.75" x2="155.75" xlink:href="#b" y1="1016.3622" y2="1032.3945"/><linearGradient id="b"><stop offset="0" stop-color="#a33e03"/><stop offset="1" stop-color="#622502"/></linearGradient><linearGradient id="c" gradientTransform="matrix(.666667 0 0 1 52.6667 0)" gradientUnits="userSpaceOnUse" x1="155.75" x2="155.75" xlink:href="#b" y1="1016.3622" y2="1032.3945"/><linearGradient id="d" gradientUnits="userSpaceOnUse" x1="12.00106" x2="4.00106" y1="0" y2="16"><stop offset="0" stop-color="#f2f2f2"/><stop offset="1" stop-color="#fff"/></linearGradient><linearGradient id="e" gradientTransform="matrix(0 -.03604403 -.03604301 0 19.565378 16.90909)" gradientUnits="userSpaceOnUse" x1="455.25125" x2="39.093575" y1="401.44119" y2="240.26906"><stop offset="0" stop-color="#9f3d06"/><stop offset="1" stop-color="#e76428"/></linearGradient><path d="m10.904907.49999973c.710481 0 1.273441.0154 1.751951.0957s.89671.23728 1.20703.54687997c.31032.30959.46726.7261.54688 1.20508.0796.47897.0933 1.04352.0898 1.75586v3.89648 3.8984403c.003.71121-.0103 1.27546-.0898 1.7539-.0796.47898-.23655.89549-.54688 1.20508-.31033.3096-.72851.46655-1.20703.54688-.47852.0803-1.04147.0957-1.751951.0957h-5.8085992c-.71048 0-1.27236-.0153-1.75-.0957-.47763-.0804-.89584-.23713-1.20508-.54688-.30921-.30975-.46469-.72681-.54492-1.20508-.0802-.47826-.0957-1.04201-.0957-1.7539v-3.8984403-3.89844c0-.71189.0155-1.27564.0957-1.7539.0802-.47827.2357-.89533.54492-1.20508.30924-.30974997.72745-.46649997 1.20508-.54687997.47764-.0804 1.03952-.0957 1.75-.0957z" fill="url(#e)"/><path d="m5.0967578 1.9999997c-.6888 0-1.1839.0205-1.5039.0742-.30449.0511-.38369.11806-.39649.13086-.0131.0131-.0746.0855-.125.38867-.0529.31839-.0733.81274-.0703 1.50195v.004 3.90039 3.9023403.002c-.003.68916.0176 1.18495.0703 1.50195.0504.30317.1119.37557.125.38867.0128.0128.0918.0798.39649.13086.32002.0537.8151.0742 1.5039.0742h5.8085992c.688941 0 1.183481-.0206 1.501951-.0742.30433-.0512.38043-.1186.39063-.1289.0112-.0112.0774-.0858.1289-.39258.0536-.31974.0742-.81575.0742-1.50586v-3.8985503-3l-3.000001-3z" fill="url(#d)"/><path d="m4.000557 6.000259h7.999944v6.999949h-7.999944z" fill="#f9cfb5"/><g enable-background="new" fill="url(#a)" transform="matrix(.99999295 0 0 .99999272 -149.99813 -1016.3545)"><path d="m154.03125 1022.375v.4688c-.0119 1.9999-.0196 3.9999-.0312 6v.5312h.5 7 .5v-.5c-.00006-1.9921 0-4.0081 0-6v-.5h-.5c-2.32275-.012-4.64771.01-6.96875 0h-.5zm1 1c1.98885.01 3.98117-.01 5.96875 0 0 1.6599-.00004 3.3399 0 5h-6c.01-1.6668.0214-3.3334.0312-5z"/><g><path d="m158 1024.3622h2v1h-2z" fill="url(#c)"/><path d="m158 1026.3622h2v1h-2z" fill="url(#c)"/><path d="m156 1024.3622h1v1h-1z" fill="url(#a)"/><path d="m156 1026.3622h1v1h-1z" fill="url(#a)"/><g fill="#f09e6f"><path d="m160 1024.3622h1v1h-1z"/><path d="m160 1026.3622h1v1h-1z"/></g></g></g><path d="m5.0957031.5c-.71048 0-1.27236.01530312-1.75.09570312-.47763.08038001-.8958381.23712504-1.2050781.54687498-.30922.30975-.4647219.7268082-.5449219 1.2050781-.0802.47826-.0957031 1.0420163-.0957031 1.7539063v.5c0-.71189.0155031-1.2756462.0957031-1.7539063.0802-.47827.2357019-.8953281.5449219-1.2050781.30924-.30975.7274481-.466495 1.2050781-.546875.47764-.0804 1.03952-.0957031 1.75-.0957031h5.8085939c.710481 0 1.273443.0154031 1.751953.0957031s.896711.237275 1.207031.546875c.31032.30959.467255.7260982.546875 1.2050781.0796.47897.093344 1.0435194.089844 1.7558594v-.5c.0035-.71234-.010244-1.2768894-.089844-1.7558594-.07962-.47898-.236555-.8954881-.546875-1.2050781-.31032-.30959995-.728521-.46657497-1.207031-.54687498-.47851-.08029999-1.041472-.09570312-1.751953-.09570312z" fill="#fff" opacity=".3"/><path d="m10.904787 15.5c.71048 0 1.27236-.0153 1.75-.0957.47763-.08038.895839-.237125 1.205079-.546875.30922-.30975.464721-.726808.544921-1.205078.0802-.47826.0957-1.042016.0957-1.753906v-.5c.000001.71189-.0155 1.275646-.0957 1.753906-.0802.47827-.235701.895328-.544921 1.205078-.30924.30975-.727449.466495-1.205079.546875-.47764.0804-1.03952.0957-1.75.0957h-5.8085935c-.710481 0-1.273443-.0154-1.751953-.0957s-.896711-.237275-1.207031-.546875c-.31032-.30959-.467255-.726098-.546875-1.205078-.0796-.47897-.093344-1.04352-.089844-1.75586v.5c-.0035.71234.010244 1.27689.089844 1.75586.07962.47898.236555.895488.546875 1.205078.31032.3096.728521.466575 1.207031.546875s1.041472.0957 1.751953.0957z" opacity=".2"/></svg>