<svg height="16" width="16" xmlns="http://www.w3.org/2000/svg"><path d="m15.500015 4.8542206c0-3.04166-.30899-3.36894-3.32331-3.35403h-4.1766909-4.1766898c-3.01431986-.0149-3.32330986.31237-3.32330986 3.35403v6.2914594c0 3.04167.30895 3.35404 3.32330986 3.35404h4.1766898 4.1766909c3.01435 0 3.32331-.31238 3.32331-3.35404z" fill="#46a926"/><g fill="#262626" stroke-width=".073019"><path d="m7.3342023 9.3590301c-1.1208794-.4043205-1.5110678-1.8093008-1.5110678-1.8093008s.6759991-.8346363 1.5080943-.7274278c.0009067 0 .00165.0002868.00259.0002868v-.7233999c-1.5854656.1841426-2.5660104 1.3195124-2.5660104 1.3195124s.577791 2.2189398 2.5660112 2.5995122v-.6591829z"/><path d="m7.538339 5.2500664c-.077913.0024-.1284145.00836-.2041367.012669v.8364768c.1393995-.015896.2555312-.027012.4038855-.027012 1.364798 0 2.1744417 1.1399233 2.1744417 1.1399233l-1.109022 1.0041387c-.4986855-.8925431-.6398161-1.2858917-1.4693052-1.3935065v2.5362983.0001434c.1879913.067887.3710871.1080451.6040583.1080451 1.6187689 0 3.1285914-2.2513892 3.1285914-2.2513892.000001 0-1.3978965-2.0376178-3.528513-1.965763z"/><path d="m7.3337772 4.5854338c-2.6061664.2247195-4.888814 2.5946236-4.888814 2.5946236s1.3041142 3.9672506 4.888814 4.3305046v-.719815c-2.6304387-.355807-3.5569464-3.4679004-3.5571101-3.4684502.0003262-.0005019 1.2045154-1.8666221 3.5571101-2.0597287z"/><path d="m7.266534 14.439371h.094564 5.291567c.320441.0012.604938-.0012.857461-.01279.252523-.01196.473075-.03155.66564-.06406s.357174-.07745.497743-.138784c.07028-.03071.134458-.0655.193237-.104938.05878-.03944.112123-.08355.160394-.132606.04827-.04912.09149-.103265.130239-.163072.03876-.05976.07297-.125089.103196-.196549.06046-.142933.104975-.310175.137319-.505732.03235-.195568.0525-.419462.0647-.675568.01219-.256104.01642-.544527.01642-.869081v-7.2205322c0-.3245655-.0042-.6127374-.01642-.8685198-.01219-.2557824-.03235-.4791991-.0647-.6742658-.032338-.1950548-.076865-.3617479-.137319-.5041546-.03023-.0712333-.064452-.1362754-.103196-.195821-.038745-.0595203-.081976-.1136624-.130239-.1624978-.048271-.0488833-.101618-.0927467-.160394-.1320445-.058776-.0392022-.122952-.0739822-.193237-.1045791-.140569-.0613132-.305177-.1061327-.497743-.1389287-.192567-.0327482-.413115-.0534249-.66564-.0658549-.252526-.0123105-.537015-.0164936-.857461-.0164936h-5.2915666-.0118942l-.015003 1.8436397v1.2492593c.0765-.00598.1272145-.011951.2041367-.014343 2.9629081-.1072084 4.8934871 2.6089898 4.8934871 2.6089898s-2.217226 2.8947592-4.5272578 2.8947592c-.2117124 0-.3842012-.02103-.570366-.05641v.772391c.1591921.02164.2984715.03454.4707048.03454 2.1496465 0 3.704153-1.178648 5.209459-2.5736486.249578.2146081 1.271296.7366905 1.481338.9652106-1.431205 1.286531-4.7668265 2.323513-6.6578126 2.323513-.1822821 0-.3314725-.01196-.503548-.02965z"/></g><path d="m3.8242188 1.5c-3.01431991-.0149-3.3242188.3118556-3.3242188 3.3535156v.5019532c0-3.04166.30989889-3.3703688 3.3242188-3.3554688h4.1757812 4.175781c3.01432-.01491 3.324219.3138088 3.324219 3.3554688v-.5019532c0-3.04166-.309899-3.3684256-3.324219-3.3535156h-4.175781z" fill="#fff" opacity=".3"/><path d="m12.175781 14.499534c3.01432.0149 3.324219-.311855 3.324219-3.353515v-.501954c0 3.04166-.309899 3.370369-3.324219 3.355469h-4.1757812-4.175781c-3.01432003.01491-3.32421903-.313809-3.32421903-3.355469v.501954c0 3.04166.309899 3.368425 3.32421903 3.353515h4.175781z" opacity=".2"/></svg>