<svg height="16" width="16" xmlns="http://www.w3.org/2000/svg"><path d="m11.595042.50000636c3.47604 0 3.85006.30899 3.83302 3.32331004v4.1766902 4.1766794c.017 3.01433-.35698 3.32332-3.83302 3.32332h-7.1899599c-3.47604997 0-3.83302997-.30895-3.83302997-3.32332v-4.1766794-4.1766902c0-3.01436004.35699-3.32331004 3.83302997-3.32331004z" fill="#f0f0f0"/><path d="m10.310542.50000636c4.54055 0 5.18946.64729004 5.18946 5.18359004v3.6328202c0 4.5362894-.64891 5.1835894-5.18946 5.1835894h-4.6210899c-4.54053 0-5.18944997-.6473-5.18944997-5.1835894v-3.6328202c0-4.5363.64891997-5.18359004 5.18945997-5.18359004z" fill="none"/><path d="m8.3230046 1.8644421v3.1764334l2.9070394 2.8235345-2.9070394 2.823528v3.176434l6.1370824-5.999962z" fill="#fb7c38" stroke-width=".176239"/><path d="m1.5399135 5.7467575v4.2352985h2.9070389v3.882351l6.1370826-5.999997-6.1370826-6.0000032v3.8823507z" fill="#1a7fd4" stroke-width=".176239"/><path d="m4.4042969.5c-3.47604 0-3.83203128.30985871-3.83203128 3.3242188v.5c0-3.01436.35599129-3.3242188 3.83203128-3.3242188h7.1914061c3.47604 0 3.849071.3098987 3.832031 3.3242188v-.5c.01704-3.01432009-.355991-3.3242188-3.832031-3.3242188z" opacity=".2"/><path d="m11.596236 15.5c3.47604 0 3.832031-.309859 3.832031-3.324219v-.5c0 3.01436-.355991 3.324219-3.832031 3.324219h-7.1914066c-3.47603999 0-3.84907099-.309899-3.83203099-3.324219v.5c-.01704 3.01432.355991 3.324219 3.83203099 3.324219z" opacity=".2"/></svg>