<svg height="16" width="16" xmlns="http://www.w3.org/2000/svg"><path d="m.50001444 11.14522c0 3.04166.30899005 3.36894 3.32330996 3.35403h4.17669 4.1766886c3.01432.0149 3.32331-.31237 3.32331-3.35403v-6.2914596c0-3.04167-.30895-3.35404-3.32331-3.35404h-4.1766886-4.17669c-3.01434991 0-3.32330996.31238-3.32330996 3.35404z" fill="#0d5d6f"/><g enable-background="new" fill-rule="evenodd" opacity=".3" transform="matrix(.33333334 0 0 .33333334 2.547104 3.83308)"><path d="m325.00002 194.39995 5.6 5.6-2.8 7 8.4-8.4z" transform="matrix(2.1428571 0 0 2.1428571 -695.06989 -413.07139)"/><path d="m22.3587 7.4999199 14.999999 6.0000001-3-6.0000001z" transform="translate(-6 -1)"/></g><g enable-background="new" fill-rule="evenodd" transform="matrix(.33333334 0 0 .33333334 2.547104 2.83308)"><path d="m325.00002 194.39995 5.6 5.6-2.8 7 8.4-8.4z" fill="#82bfa1" transform="matrix(2.1428571 0 0 2.1428571 -695.06989 -413.07139)"/><path d="m22.3587 7.4999199 14.999999 6.0000001-3-6.0000001z" fill="#fa6340" transform="translate(-6 -1)"/></g><path d="m3.8242188 1.5c-3.01434996 0-3.3242188.3118556-3.3242188 3.3535156v.5c0-3.04166.30986884-3.3535156 3.3242188-3.3535156h4.1757812 4.175781c3.01436 0 3.324219.3118456 3.324219 3.3535156v-.5c0-3.04167-.309859-3.3535156-3.324219-3.3535156h-4.175781z" fill="#f9f9f9" opacity=".3"/><path d="m5.0000044 2.9997204s0-2.5 3-2.5c2.9999986 0 2.9999986 2.5 2.9999986 2.5" fill="none" stroke="#d3d4d5" stroke-linecap="round"/><path d="m12.175781 14.5c3.01435 0 3.324219-.311856 3.324219-3.353516v-.5c0 3.04166-.309869 3.353516-3.324219 3.353516h-4.1757811-4.175781c-3.01436 0-3.324219-.311846-3.324219-3.353516v.5c0 3.04167.309859 3.353516 3.324219 3.353516h4.175781z" opacity=".2"/></svg>