<svg height="16.000099" width="16" xmlns="http://www.w3.org/2000/svg"><path d="m4.4056502.50005484c-3.47603997 0-3.85005997.30899-3.83301997 3.32330986v4.1766904 4.1766789c-.017 3.01433.35698 3.32332 3.83301997 3.32332h7.1899598c3.476051 0 3.833031-.30895 3.833031-3.32332v-4.1766789-4.1766904c0-3.01435986-.35699-3.32330986-3.833031-3.32330986z" fill="#5884f4"/><g fill="#fff" transform="matrix(.66666222 0 0 .66666222 -418.66351 -117.66581)"><path d="m640.00004 181c-.5287 0-1.03154.0977-1.49414.29492-.45986.18776-.8678.46333-1.20703.82031l-.002.004-.002.002c-.33049.35865-.58621.79003-.76562 1.2793-.18275.48966-.26953 1.0259-.26953 1.59961 0 .58157.0864 1.12267.26953 1.61328.17983.48185.43594.90784.76562 1.26563l.002.002.002.002c.33844.35616.74339.63577 1.20117.83203l.004.002.004.002c.46162.18779.9641.28092 1.492.28092.5278 0 1.02823-.0932 1.49023-.28125v-.002c.4574-.1961.85906-.47653 1.18946-.83399.3395-.35783.60075-.78575.78125-1.26953.1838-.49061.27148-1.03171.27148-1.61328h.008c0-.57304-.0871-1.10848-.26953-1.59766-.1798-.49134-.44105-.9243-.78125-1.2832-.3312-.3586-.73581-.63642-1.19531-.82422-.46259-.19756-.96523-.29487-1.49433-.29487zm0 1c.4062 0 .77086.0735 1.10156.21484l.01.004.01.002c.3299.13484.60699.3262.83789.57618v.006.004c.2398.25296.43086.56352.56836.93945v.002.004c.1307.3506.19402.75253.19922 1.20117v.04636c0 .48184-.072.9-.20703 1.26172v.002c-.1372.3676-.32781.67603-.57031.93164l-.01.004v.004c-.2332.25229-.51385.45039-.84765.59376-.32634.13143-.68744.20288-1.09204.20288-.4099 0-.7766-.072-1.10938-.20703-.00099-.00044-.003.00044-.004 0-.32499-.14054-.59973-.33671-.83789-.58203l-.0508-.0703-.008-.006c-.21279-.24477-.39416-.52471-.52343-.8711-.13561-.36337-.20703-.78282-.20703-1.26367 0-.47122.071-.88558.20703-1.25l.002-.002v-.004c.13798-.37629.32457-.68362.55469-.93555l.0117-.01c.23979-.25006.52018-.44362.84961-.57813l.006-.004.008-.002c.33144-.14051.6957-.21419 1.1015-.21419z"/><path d="m646.99994 195.9995-1 .0005c-.0005-.86468-.069-1.29913-.2348-1.83263-.1654-.53351-.41-.90462-.8144-1.20997-.8089-.6107-2.1094-.93361-4.9218-.93361-2.81251 0-4.16498.32183-4.97477.93274-.4049.30545-.64974.67683-.81592 1.21046-.16618.53362-.23582.9684-.23779 1.83311l-1.00049-.002c.002-.91456.069-1.44005.2832-2.12793.21421-.68788.59372-1.27765 1.16846-1.71123 1.14948-.86718 2.69586-1.13432 5.57721-1.13432 2.8813 0 4.3759.26781 5.5248 1.13519.5745.43369.9532 1.02372 1.1665 1.71172.2134.68801.2792 1.21381.2799 2.12841z"/></g><path d="m4.40625.5c-3.47603997 0-3.85102437.30989889-3.83398438 3.3242188v.5c-.01703999-3.01432.35794441-3.3242188 3.83398438-3.3242188h7.189453c3.476041 0 3.832031.3098588 3.832031 3.3242188v-.5c0-3.01435991-.35599-3.3242188-3.832031-3.3242188z" fill="#fff" opacity=".3"/><path d="m11.593219 15.500099c3.47604 0 3.851025-.309899 3.833985-3.324219v-.5c.01704 3.01432-.357945 3.324219-3.833985 3.324219h-7.1894528c-3.47604101 0-3.83203101-.309859-3.83203101-3.324219v.5c0 3.01436.35599 3.324219 3.83203101 3.324219z" opacity=".2"/></svg>