<svg height="16" width="16" xmlns="http://www.w3.org/2000/svg">
  <g fill="#808080" transform="translate(-512 -240)">
    <path d="m520 242.2v1 8a4.5000005 4.5000005 0 0 1 4.5-4.5 4.5000005 4.5000005 0 0 1 3.5 1.67773v-5.17773c0-.554-.446-1-1-1z"/>
    <path d="m513 242.2c-.554 0-1 .446-1 1v8c0 .554.446 1 1 1h4 2 1v-1-8-1h-1-2z" opacity=".35"/>
    <path d="m524.5 247.7c-1.92115 0-3.5 1.57885-3.5 3.5s1.57885 3.5 3.5 3.5 3.5-1.57885 3.5-3.5-1.57885-3.5-3.5-3.5zm0 2c.84027 0 1.5.65973 1.5 1.5s-.65973 1.5-1.5 1.5-1.5-.65973-1.5-1.5.65973-1.5 1.5-1.5z"/>
  </g>
</svg>
