<svg id="svg16" height="16" width="16" xmlns="http://www.w3.org/2000/svg">
  <g fill="#808080">
    <path id="path923" d="m4.9941406.18554688c-1.25819.01449999-2.1788906-.03060438-2.9316406.38476562-.37637.20766-.6732206.5593869-.8378906.9980469-.16439.43867-.2246094.9595775-.2246094 1.6171875v4 1.8144531 4c0 .65761.0598994 1.178577.2246094 1.617188.16468.438609.4615306.788523.8378906.996093.75272.41513 1.6735406.371649 2.9316406.386719h.0019532 5.0058592.003906c1.25819-.0145 2.178891.030604 2.931641-.384766.37637-.20766.673221-.559388.837891-.998046.16439-.438672.224609-.959578.224609-1.617188v-4-1.8144531-4c0-.65761-.059899-1.1785775-.224609-1.6171875-.16468-.43861-.461531-.78852377-.837891-.99609378-.75272-.41513-1.673541-.37164874-2.931641-.38671874h-.001953-5.0058591zm.0058594 1.00000002h4.9941406.0058594c1.25863.0152 2.089098.0598987 2.455078.2617187.18342.10116.287226.2128563.384766.4726563.0975.25979.160166.673235.160156 1.265625v4 1.8144531 4c0 .59239-.062596 1.005735-.160156 1.265625-.0976.25991-.201356.371466-.384766.472656-.36596.20192-1.196558.247009-2.455078.261719h-4.9941406-.0058594c-1.25863-.0152-2.0890981-.059899-2.4550781-.261719-.18342-.10116-.2872257-.212856-.3847657-.472656-.0974998-.25979-.1601662-.673235-.1601562-1.265625v-4-1.8144531-4c0-.59239.0626062-1.005735.1601562-1.265625.0976001-.25991.2013557-.3714663.3847657-.4726563.36596-.20192 1.1965581-.2470087 2.4550781-.2617187z"/>
    <g id="g877" enable-background="new" transform="matrix(.10163377 0 0 .10163377 12.280869 1.317237)">
      <path id="path871" d="m-85.143073 47.732862q8.266666 0 12.693333 2.933333 4.426667 2.88 4.426667 9.493333 0 6.666667-4.48 9.653334-4.48 2.933333-12.8 2.933333h-2.613333v12.373334h-8.32v-36.426667q2.72-.533333 5.76-.746667 3.04-.213333 5.333333-.213333zm.533333 7.093333q-.906666 0-1.813333.05333-.853333.05333-1.493333.106666v10.666667h2.613333q4.32 0 6.506666-1.173334 2.186667-1.173333 2.186667-4.373333 0-1.546667-.586667-2.56-.533333-1.013333-1.6-1.6-1.013333-.64-2.506666-.853333-1.493333-.266667-3.306667-.266667z"/>
      <path id="path873" d="m-53.541406 78.346195q.586666.05333 1.333333.106666.8 0 1.866667 0 6.239999 0 9.226666-3.146666 3.04-3.146667 3.04-8.693333 0-5.813334-2.88-8.8-2.88-2.986667-9.12-2.986667-.853333 0-1.76.05333-.906666 0-1.706666.106666zm24.053333-11.733333q0 4.8-1.493334 8.373333-1.493333 3.573333-4.266666 5.92-2.72 2.346664-6.666667 3.520004-3.946666 1.17333-8.853333 1.17333-2.24 0-5.226667-.21333-2.986666-.16-5.866666-.74667v-36q2.88-.533334 5.973333-.693334 3.146667-.213333 5.386667-.213333 4.746666 0 8.586666 1.066667 3.893333 1.066666 6.666667 3.36 2.773333 2.293333 4.266666 5.866666 1.493334 3.573333 1.493334 8.586667z"/>
      <path id="path875" d="m-22.590578 85.119529v-36.96h24.7466656v6.986666h-16.4266656v7.733333h14.61333258v6.986667h-14.61333258v15.253334z"/>
    </g>
  </g>
</svg>
