<?xml version="1.0" encoding="UTF-8" standalone="no"?>
<svg
   xmlns:dc="http://purl.org/dc/elements/1.1/"
   xmlns:cc="http://creativecommons.org/ns#"
   xmlns:rdf="http://www.w3.org/1999/02/22-rdf-syntax-ns#"
   xmlns:svg="http://www.w3.org/2000/svg"
   xmlns="http://www.w3.org/2000/svg"
   xmlns:sodipodi="http://sodipodi.sourceforge.net/DTD/sodipodi-0.dtd"
   xmlns:inkscape="http://www.inkscape.org/namespaces/inkscape"
   height="16"
   width="16"
   version="1.1"
   id="svg4"
   sodipodi:docname="dropboxstatus-x.svg"
   inkscape:version="0.92.5 (2060ec1f9f, 2020-04-08)">
  <metadata
     id="metadata10">
    <rdf:RDF>
      <cc:Work
         rdf:about="">
        <dc:format>image/svg+xml</dc:format>
        <dc:type
           rdf:resource="http://purl.org/dc/dcmitype/StillImage" />
        <dc:title></dc:title>
      </cc:Work>
    </rdf:RDF>
  </metadata>
  <defs
     id="defs8" />
  <sodipodi:namedview
     pagecolor="#ffffff"
     bordercolor="#666666"
     borderopacity="1"
     objecttolerance="10"
     gridtolerance="10"
     guidetolerance="10"
     inkscape:pageopacity="0"
     inkscape:pageshadow="2"
     inkscape:window-width="1920"
     inkscape:window-height="1016"
     id="namedview6"
     showgrid="false"
     inkscape:zoom="9.8333333"
     inkscape:cx="-5.0394234"
     inkscape:cy="12"
     inkscape:window-x="0"
     inkscape:window-y="27"
     inkscape:window-maximized="1"
     inkscape:current-layer="svg4" />
  <path
     d="M 4.2166041,1.1915905 0.00824835,3.716604 3.3749331,6.2284875 0,8.7598973 4.2166041,11.291643 7.5832887,8.7666313 3.3749331,6.241618 7.5832887,3.716604 11.791645,6.254747 7.5832887,8.7666307 9.0791907,9.8894193 C 9.8486887,8.6684913 11.190103,7.927064 12.633315,7.92496 c 0.904376,0.00253 1.784006,0.2955273 2.508602,0.8367387 L 15.166583,8.746892 11.791473,6.2471235 15.158159,3.7221092 10.949804,1.1970957 7.5831187,3.7089791 4.2164343,1.1970957 Z m 8.4167109,7.5750408 c -1.859336,0 -3.3666837,1.5073477 -3.3666837,3.3666837 0,1.859336 1.5073477,3.366685 3.3666837,3.366685 C 14.492651,15.5 16,13.992651 16,12.133315 16,10.273979 14.492651,8.7666313 12.633315,8.7666313 Z M 7.5832887,9.6083013 4.2166039,12.133315 3.3749327,11.628641 v 0.504674 l 4.208356,2.525014 1.2428106,-0.744684 C 8.5634987,13.358141 8.4263067,12.743721 8.4246233,12.129299 8.4244187,11.564497 8.537912,11.005417 8.7583287,10.485433 L 7.5833553,9.6016773 Z m 3.6642153,0.5441237 1.385811,1.385812 1.385812,-1.385812 0.595094,0.595096 -1.38581,1.38581 1.38581,1.385813 -0.595094,0.595095 -1.382866,-1.397174 -1.385812,1.385812 -0.595086,-0.595096 1.385812,-1.385812 -1.385812,-1.38581 0.595086,-0.595096 z"
     id="path2"
     inkscape:connector-curvature="0"
     style="fill:#ffffff;stroke-width:0.72727281" />
</svg>
