<svg height="16" viewBox="0 0 16 16" width="16" xmlns="http://www.w3.org/2000/svg" xmlns:xlink="http://www.w3.org/1999/xlink">
  <linearGradient id="lg1">
    <stop offset="0" stop-color="#dbdee0"/>
    <stop offset="1" stop-color="#dbdee0" stop-opacity="0"/>
  </linearGradient>
  <linearGradient id="linearGradient3816" gradientTransform="matrix(0 -1 -1 0 544.125 391.875)" gradientUnits="userSpaceOnUse" x1="5.875" x2="3.875" xlink:href="#lg1" y1="31.125" y2="4.125"/>
  <linearGradient id="linearGradient3819" gradientTransform="matrix(0 1 -1 0 544 368)" gradientUnits="userSpaceOnUse" x1="12" x2="23" xlink:href="#lg1" y1="6" y2="10"/>
  <g transform="translate(-524 -372)">
    <path d="m540 380c0-4.40643-3.59357-8-8-8s-8 3.59357-8 8h2c0-3.32555 2.67445-6 6-6s6 2.67445 6 6c0 .55228.44772 1 1 1s1-.44772 1-1z" fill="url(#linearGradient3819)"/>
    <path d="m540 380c0 4.40643-3.59357 8-8 8s-8-3.59357-8-8h2c0 3.32555 2.67445 6 6 6s6-2.67445 6-6z" fill="url(#linearGradient3816)"/>
    <path d="m521 369.00003h22v22h-22z" fill="none"/>
  </g>
</svg>
