<svg height="16" width="16.262" xmlns="http://www.w3.org/2000/svg">
  <g enable-background="new" fill="#f2f2f7" transform="matrix(.204869 0 0 .204869 -2.462986 -2.277102)">
    <path d="m90.120937 55.223446c-10.769328 13.49115-.336437.589537-10.6294 13.560686-3.583113 2.143898-10.152704 3.763432-13.122829 3.146862-4.163503-.627999-8.726025-5.29165-12.072369-9.909655-4.233369-5.844005-7.334608-14.008012-11.625012-19.024014-3.980994-4.654004-9.64022-7.516009-15.017127-3.738004-2.657798 1.87-5.252858 5.234005-7.264742 8.834006-3.213882 5.746006-1.35537 13.216378 7.060039 14.846379 6.62253.570456 9.975141-.319535 18.760046-4.235284 11.324843-5.30799 19.394028-12.24775 40.954815-28.614778-12.043687 12.50711-.628547.32154-12.437647 12.754045-5.997078 6.313662-18.004788 13.530839-30.602436 20.875652-5.970206 3.424204-11.217218 5.604004-18.891181 7.474206-4.592685 1.12-11.355525 2.157801-12.836991-2.716002-1.542777-5.080003 2.138786-12.912211 2.905897-14.610012 5.78898-12.80201 14.433952-26.094021 29.549462-24.120022 14.415415 1.884004 15.095402 24.373896 25.85492 30.283902 5.298343 2.909802 9.250264.510269 19.414555-4.807967z"/>
    <path d="m90.120937 55.223446c-10.76932 13.49115-.33643.589537-10.6294 13.560686-3.58311 2.143898-10.1527 3.763432-13.12282 3.146862-4.16351-.627999-8.72603-5.29165-12.07237-9.909655-4.23337-5.844005-7.33461-14.008012-11.62502-19.024014-3.98099-4.654004-9.64022-7.516009-15.01712-3.738004-2.6578 1.87-5.25286 5.234005-7.26474 8.834006-3.21389 5.746006-1.35537 13.216378 7.06003 14.846379 6.62253.570456 9.97515-.319535 18.76005-4.235284 11.32484-5.30799 19.39403-12.24775 40.95481-28.614778-12.04368 12.50711-.62854.32154-12.43764 12.754045-5.99708 6.313662-18.00479 13.530839-30.60244 20.875652-5.9702 3.424204-11.21722 5.604004-18.89118 7.474206-4.59268 1.12-11.35552 2.157801-12.83699-2.716002-1.54278-5.080003 2.13879-12.912211 2.9059-14.610012 5.78898-12.80201 14.43395-26.094021 29.54946-24.120022 14.41541 1.884004 15.0954 24.373896 25.85492 30.283902 5.29834 2.909802 9.25026.510269 19.41455-4.807967z"/>
    <path d="m90.120937 55.223446c-10.76932 13.49115-.33643.58954-10.6294 13.56069-3.58311 2.1439-10.1527 3.76343-13.12282 3.14686-4.16351-.628-8.72603-5.29165-12.07237-9.90965-4.23337-5.84401-7.33461-14.00801-11.62502-19.02402-3.98099-4.654-9.64022-7.516-15.01712-3.738-2.6578 1.87-5.25286 5.234-7.26474 8.83401-3.21389 5.746-1.35537 13.21637 7.06003 14.84637 6.62253.57046 9.97515-.31953 18.76005-4.23528 11.32484-5.30799 19.39403-12.24775 40.95481-28.61478-12.04368 12.50711-.62854.32154-12.43764 12.75405-5.99708 6.31366-18.00479 13.53084-30.60244 20.87565-5.9702 3.4242-11.21722 5.604-18.89118 7.47421-4.59268 1.12-11.35552 2.1578-12.83699-2.71601-1.54278-5.08 2.13879-12.91221 2.9059-14.61001 5.78898-12.80201 14.43395-26.09402 29.54946-24.12002 14.41541 1.884 15.0954 24.3739 25.85492 30.2839 5.29834 2.9098 9.25026.51027 19.41455-4.80797z"/>
    <path d="m90.120937 55.223446c-10.76932 13.49115-.33643.58954-10.6294 13.56069-3.58311 2.14389-10.1527 3.76343-13.12282 3.14686-4.16351-.628-8.72603-5.29165-12.07237-9.90966-4.23337-5.844-7.33461-14.008009-11.62502-19.024011-3.98099-4.654003-9.64022-7.516008-15.01712-3.738003-2.6578 1.869999-5.25286 5.234004-7.26474 8.834005-3.21389 5.746006-1.35537 13.216379 7.06003 14.846379 6.62253.57046 9.97515-.31953 18.76005-4.23528 11.32484-5.307994 19.39403-12.247754 40.95481-28.614781-12.04368 12.507109-.62854.32154-12.43764 12.754044-5.99708 6.313662-18.00479 13.530837-30.60244 20.875657-5.9702 3.4242-11.21722 5.604-18.89118 7.4742-4.59268 1.12-11.35552 2.1578-12.83699-2.716-1.54278-5.08 2.13879-12.91221 2.9059-14.610013 5.78898-12.80201 14.43395-26.09402 29.54946-24.120021 14.41541 1.884004 15.0954 24.373895 25.85492 30.283904 5.29834 2.9098 9.25026.51027 19.41455-4.80797z"/>
    <path d="m90.120937 55.223444c-10.76932 13.49115-.33643.58954-10.6294 13.56069-3.58311 2.14389-10.152699 3.76343-13.12282 3.14686-4.163506-.628-8.726025-5.29165-12.072366-9.90966-4.23337-5.844-7.33461-14.00801-11.62502-19.02401-3.98099-4.65401-9.64022-7.51601-15.01712-3.73801-2.6578 1.87-5.25286 5.23401-7.26474 8.83401-3.21389 5.746-1.35537 13.21638 7.06003 14.84638 6.62253.57046 9.97515-.31953 18.76005-4.23528 11.324841-5.308 19.394027-12.24776 40.954806-28.61478-12.04368 12.50711-.62854.32154-12.43764 12.75404-5.99708 6.31366-18.004785 13.53084-30.602436 20.87566-5.9702 3.4242-11.21722 5.604-18.89118 7.4742-4.59268 1.12-11.35552 2.1578-12.83699-2.716-1.54278-5.08 2.13879-12.91221 2.9059-14.61002 5.78898-12.80201 14.43395-26.09402 29.54946-24.12002 14.41541 1.88401 15.0954 24.3739 25.854916 30.28391 5.29834 2.9098 9.25026.51027 19.41455-4.80797z"/>
  </g>
</svg>
