<svg height="16.000032" width="16.000031" xmlns="http://www.w3.org/2000/svg">
  <g fill="#f2f2f7" transform="translate(-492.00004 -240)">
    <path d="m500.00004 245a3 3 0 0 0 -3 3 3 3 0 0 0 3 3 3 3 0 0 0 3-3 3 3 0 0 0 -3-3zm0 1.5a1.5 1.5 0 0 1 1.5 1.5 1.5 1.5 0 0 1 -1.5 1.5 1.5 1.5 0 0 1 -1.5-1.5 1.5 1.5 0 0 1 1.5-1.5z"/>
    <path d="m500.00004 240a8 8 0 0 0 -8 8 8 8 0 0 0 8 8 8 8 0 0 0 8-8 8 8 0 0 0 -8-8zm0 1a7 7 0 0 1 7 7 7 7 0 0 1 -7 7 7 7 0 0 1 -7-7 7 7 0 0 1 7-7z"/>
    <path d="m504.50326 251.0014c-.0115.00053-.0141.0182-.0212.0273l-9.85001 2.99913c-.98635.49987-.64044 1.49667-.15797 1.814.59552.36832 1.26294-.004 1.86673-.13864l8.35893-3.76456c.33346-.0932.43128-.71144.077-.85136-.0887-.0545-.18023-.0804-.27356-.0859z"/>
  </g>
</svg>
