<svg fill="none" height="16" viewBox="0 0 16 16" width="16" xmlns="http://www.w3.org/2000/svg" xmlns:xlink="http://www.w3.org/1999/xlink">
  <clipPath id="clip0">
    <path d="m0 0h16v16h-16z"/>
  </clipPath>
  <g clip-path="url(#clip0)">
    <path clip-rule="evenodd" d="m7.463 1.00002c-1.98271.00978-3.88087.80428-5.2794 2.20974-1.398529 1.40546-2.18362413 3.30753-2.1836 5.29026 0 1.98908.790176 3.89678 2.1967 5.30328 1.40652 1.4065 3.31418 2.1967 5.3033 2.1967s3.8968-.7902 5.3033-2.1967 2.1967-3.3142 2.1967-5.30328c0-1.98912-.7902-3.89678-2.1967-5.3033s-3.31418-2.1967-5.3033-2.1967c-.01233-.000028-.02467-.000028-.037 0zm-.463 1.02v5.98h-2.021c-.10624-1.61189-.7302-3.14638-1.779-4.375 1.0588-.9334 2.39267-1.49678 3.8-1.605zm1 0c1.40698.10844 2.7405.6718 3.799 1.605.2489.22027.4806.4593.693.715-.2124-.2557-.4441-.49473-.693-.715-1.0488 1.22862-1.6728 2.76311-1.779 4.375h-2.02zm-4.805 1.61c-.24975.22115-.4821.46119-.695.718.85207 1.03712 1.36116 2.31318 1.457 3.652h-2.937c.10357-1.34114.62067-2.61713 1.48-3.652.21294-.25646.44529-.49617.695-.717zm9.305.718c.8593 1.03487 1.3764 2.31086 1.48 3.652h-2.937c.0958-1.33882.6049-2.61488 1.457-3.652zm-11.48 4.652h2.937c-.09584 1.33878-.60493 2.61488-1.457 3.65198-.85933-1.0348-1.37643-2.3108-1.48-3.65198zm3.959 0h2.021v5.97998c-1.40698-.1084-2.74046-.6718-3.799-1.605-.24894-.2202-.48062-.4593-.693-.715.21238.2557.44406.4948.693.715 1.0488-1.2286 1.67276-2.7631 1.779-4.37498zm3.021 0h2.021c.106 1.61178.7296 3.14628 1.778 4.37498-1.0585.9332-2.39202 1.4966-3.799 1.605zm3.043 0h2.937c-.1036 1.34118-.6207 2.61718-1.48 3.65198-.2129.2565-.4453.4962-.695.717.2497-.2208.4821-.4605.695-.717-.8521-1.0371-1.3612-2.3132-1.457-3.65198z" fill="#f2f2f7" fill-rule="evenodd"/>
  </g>
</svg>
