<svg height="16" viewBox="0 0 4.2333333 4.2333333" width="16" xmlns="http://www.w3.org/2000/svg"><path d="m5.6914062.00390625c-1.7420337 0-3.1894531 1.32624955-3.1894531 3.00390625 0 1.0480165.5636325 1.9598397 1.4121094 2.4960937-.8479112.5363393-1.4121094 1.4465435-1.4121094 2.4941407 0 1.1767057.7198768 2.1730231 1.7460938 2.6699221-.8353115.339156-1.5426075.895524-1.7011719 1.818359-.00979.05405-.022554.113229-.029297.169922-.00283.02268-.00556.04222-.00781.06641-.008.08542-.00781.179705-.00781.273438 0 .06916.0028.137866.00781.207031v.0078.0059c.00147.01512.00615.03094.00781.04492l-.00781-.01563c.00551.06274.011608.122051.021484.185547.2161149 1.471407 1.4893925 2.566998 2.9765625 2.568359 1.727085-.257028 2.5435977-.770562 2.9609981-2.307514l.042908-.659283v-.03906-1.984375-.771485c.3872296.345624.8551583.602329 1.3808593.710938.1952649.04034.3966809.06055.6035159.06055 1.654679 0 3.013672-1.357042 3.013672-3.0117191 0-1.0562197-.55636-1.9835501-1.386719-2.5195313.831636-.5389454 1.386719-1.4367809 1.386719-2.4707031 0-1.6776567-1.455231-3.00390625-3.197266-3.00390625h-1.800783-1.0195313zm0 1.01757815h1.8007813v3.9726562h-1.8007813c-1.2327031 0-2.1699218-.8975596-2.1699218-1.9863281 0-.1360913.014924-.2697154.042969-.3984375.1963103-.901055 1.0483376-1.5878906 2.1269528-1.5878906zm2.8203126 0h1.8007812c1.232704 0 2.177734.8975974 2.177734 1.9863281 0 1.0887685-.94503 1.9863281-2.177734 1.9863281h-1.8007812zm-2.8203126 4.9902344h1.8007813v1.9863281 1.984375h-1.8007813c-.021385 0-.038481.00175-.056641.00391-1.2038124-.028035-2.1132808-.916807-2.1132808-1.988285 0-.1361008.014925-.2697102.042969-.3984375.1963073-.9010912 1.0483224-1.5878906 2.1269528-1.5878906zm4.8046878 0c1.103202 0 1.99414.8831218 1.99414 1.9863281s-.890938 1.9941406-1.99414 1.9941406c-1.1032024 0-1.9843753-.8909343-1.9843752-1.9941406 0-.1379008.012776-.2726321.039062-.4023438.1840044-.9079818.9800111-1.5839843 1.9453132-1.5839843zm-4.9882815 4.9980472c.010432.000378.018865-.000567.029297 0h.1542968.3183594 1.4824219v1.986328.02148c-.0132662 1.093081-.8911997 1.964281-1.9843751 1.964848-.9886998-.000907-1.8211663-.721002-1.9648437-1.699219v-.0059c-.00616-.03968-.00993-.07681-.013672-.119141v-.01563-.0059c-.0003286-.0027.0003175-.004 0-.0078-.00316-.04346-.00781-.08746-.00781-.132812 0-.05594.00216-.117262.00781-.177735.00149-.01512.00399-.03094.00586-.04492.00431-.0378.0089-.07271.015625-.109376v-.0078c.020532-.119494.051707-.23537.091797-.345703.2806321-.772332 1.0165136-1.299855 1.8652344-1.300781z" fill="#f2f2f7" transform="scale(.26458333)"/></svg>