<svg height="16" width="16" xmlns="http://www.w3.org/2000/svg">
  <g fill="#f2f2f7" transform="translate(-612.00004 -160)">
    <path d="m620.5 160c-4.13621 0-7.5 3.36379-7.5 7.5s3.36379 7.5 7.5 7.5 7.5-3.36379 7.5-7.5-3.36379-7.5-7.5-7.5zm0 1c3.59577 0 6.5 2.90423 6.5 6.5s-2.90423 6.5-6.5 6.5-6.5-2.90423-6.5-6.5 2.90423-6.5 6.5-6.5z"/>
    <g fill-rule="evenodd">
      <path d="m613.5 167v1h14v-1z"/>
      <path d="m620.85352 160.14648-.70704.70704c2.07402 2.07401 3.10919 4.52027 3.08399 6.68164-.0256 2.19636-1.00756 4.53488-3.08399 6.61132l.70704.70704c2.23125-2.23128 3.34796-4.81979 3.37695-7.30664.029-2.48649-1.14329-5.16673-3.37695-7.4004z"/>
      <path d="m620.14648 160.14648c-2.23365 2.23367-3.40596 4.9139-3.37695 7.4004.029 2.48685 1.14571 5.07536 3.37695 7.30664l.70704-.70704c-2.07642-2.07644-3.05838-4.41496-3.08399-6.61132-.0252-2.16137 1.00998-4.60763 3.08399-6.68164z"/>
    </g>
  </g>
</svg>
