<svg height="16" width="16" xmlns="http://www.w3.org/2000/svg">
  <path d="m3.9941406 2c-1.2582.0145-2.1788906-.0306044-2.9316406.3847656-.37637.20766-.67323062.5593869-.83789062.9980469-.16467.43867-.22460938.9595775-.22460938 1.6171875v7c0 .65761.05989938 1.178528.22460938 1.617188.16467.438659.46152062.790396.83789062.998046.75275.41532 1.6734506.370196 2.9316406.384766h.0039063 8.0039061.003906c1.25819-.0145 2.178891.030604 2.931641-.384766.37637-.20766.673221-.559387.837891-.998046.16413-.438671.224609-.959578.224609-1.617188v-7c0-.65761-.059899-1.1785175-.224609-1.6171875-.16466-.43866-.461521-.7903869-.837891-.9980469-.75275-.41534-1.673441-.3702456-2.931641-.3847656h-.003906-8.0039061zm2.9023438 1.0917969c1.2300027-.0028131 2.4596864.0071657 3.6894536.015625v10.7480471c-2.3348614.031648-4.6725113-.009507-7.0058599.007812-.78646-.11198-1.9999069.290294-2.4042969-.691406-.1705-2.4656-.0888437-4.9496369-.0898437-7.4355469.12175-.84105-.29598-2.0645087.6875-2.5117187 1.6892-.21162 3.4083969-.0775025 5.1230469-.1328125zm4.6894536.0195312c.18555.0019633.37108-.0004342.55664.0019531.98572.0689001 2.254448-.1702812 2.673828.6679688.129115 1.4762267.146396 2.9608638.138672 4.4472656h-3.36914zm-8.1035161 1.8671875c-.47384.0193-.6572075.6256969-.2734375.9042969l1.4667968 1.0996094-1.4667968 1.0996093c-.53385.40104.0676925 1.2018213.6015625.8007813l2-1.5c.26732-.2.26732-.6007812 0-.8007813l-2-1.5c-.0937-.0722-.209945-.1085156-.328125-.1035156zm2.5273437 4.0039063v1h3v-1zm5.5761724.2460937h3.367187c-.01067 1.1244874-.030533 2.2498084-.007813 3.3710934-.0871.38019-.184818 1.143607-.730468 1.128907-.874991.058238-1.752094.093546-2.628906.115234z" fill="#f2f2f7"/>
</svg>
