<svg height="16" width="16" xmlns="http://www.w3.org/2000/svg">
  <path d="m17.297402 237.37991a3.6686617 3.6686617 0 0 0 -3.613035 3.72035v29.2936a3.6686617 3.6686617 0 0 0 6.170775 2.68175l12.144205-11.33455 12.144203 11.33455a3.6686617 3.6686617 0 0 0 6.170775-2.68175v-29.2936a3.6686617 3.6686617 0 1 0 -7.336368 0v20.85185l-8.475721-7.91051a3.6686617 3.6686617 0 0 0 -5.005779 0l-8.475725 7.91051v-20.85185a3.6686617 3.6686617 0 0 0 -3.72333-3.72035z" fill="#f2f2f7" transform="matrix(.43609935 0 0 .43609935 -5.967582 -103.51794)"/>
</svg>
