<svg fill="none" height="256" viewBox="0 0 256 256" width="256" xmlns="http://www.w3.org/2000/svg" xmlns:xlink="http://www.w3.org/1999/xlink">
  <filter id="filter0_f" color-interpolation-filters="sRGB" filterUnits="userSpaceOnUse" height="193.958" width="146.938" x="53.8017" y="30.7042">
    <feFlood flood-opacity="0" result="BackgroundImageFix"/>
    <feBlend in="SourceGraphic" in2="BackgroundImageFix" mode="normal" result="shape"/>
    <feGaussianBlur result="effect1_foregroundBlur" stdDeviation="3.95815"/>
  </filter>
  <filter id="filter1_f" color-interpolation-filters="sRGB" filterUnits="userSpaceOnUse" height="182.083" width="135.064" x="59.7389" y="36.6414">
    <feFlood flood-opacity="0" result="BackgroundImageFix"/>
    <feBlend in="SourceGraphic" in2="BackgroundImageFix" mode="normal" result="shape"/>
    <feGaussianBlur result="effect1_foregroundBlur" stdDeviation=".989537"/>
  </filter>
  <filter id="filter2_f" color-interpolation-filters="sRGB" filterUnits="userSpaceOnUse" height="87.6515" width="130.396" x="62.5556" y="127.79">
    <feFlood flood-opacity="0" result="BackgroundImageFix"/>
    <feBlend in="SourceGraphic" in2="BackgroundImageFix" mode="normal" result="shape"/>
    <feGaussianBlur result="effect1_foregroundBlur" stdDeviation=".689072"/>
  </filter>
  <filter id="filter3_f" color-interpolation-filters="sRGB" filterUnits="userSpaceOnUse" height="49.5295" width="22.5027" x="120.555" y="159.927">
    <feFlood flood-opacity="0" result="BackgroundImageFix"/>
    <feBlend in="SourceGraphic" in2="BackgroundImageFix" mode="normal" result="shape"/>
    <feGaussianBlur result="effect1_foregroundBlur" stdDeviation="3"/>
  </filter>
  <linearGradient id="paint0_linear" gradientUnits="userSpaceOnUse" x1="27.8835" x2="227.884" y1="25.1748" y2="225.175">
    <stop offset="0" stop-opacity=".588235"/>
    <stop offset="1" stop-opacity=".205556"/>
  </linearGradient>
  <mask id="mask0" height="225" maskUnits="userSpaceOnUse" width="225" x="15" y="17">
    <path d="m54.8051 241.174c-35.2967 0-39.0946-3.625-38.9216-38.993v-73.007-73.006c-.173-35.3681 3.6249-38.9935 38.9216-38.9935h146.1569c35.297 0 38.922 3.625 38.922 38.9935v73.006 73.007c0 35.368-3.625 38.993-38.922 38.993z" fill="#414141"/>
  </mask>
  <path d="m54.8051 18.1745c-35.2967 0-39.0946 3.6254-38.9216 38.9935v73.006 73.007c-.173 35.368 3.6249 38.993 38.9216 38.993h146.1569c35.297 0 39.89-3.638 38.922-38.993v-73.007-73.006c0-35.3685-3.625-38.9935-38.922-38.9935z" fill="#000" opacity=".1"/>
  <path d="m54.8051 18.1748c-35.2967 0-39.0946 3.6254-38.9216 38.9935v73.0067 73.006c-.173 35.368 3.6249 38.994 38.9216 38.994h146.1569c35.297 0 39.89-3.638 38.922-38.994v-73.006-73.0067c0-35.3685-3.625-38.9935-38.922-38.9935z" fill="url(#paint0_linear)" opacity=".3"/>
  <path d="m53.6951 15.1745c-36.0988 0-39.983 3.6901-39.8061 39.6898v74.3097 74.311c-.1769 35.999 3.7073 39.689 39.8061 39.689h148.3869c36.099 0 40.775-3.702 39.807-39.689v-74.311-74.3097c0-36.0001-3.708-39.6898-39.807-39.6898z" fill="#000" opacity=".1"/>
  <path d="m54.8051 241.174c-35.2967 0-39.0946-3.625-38.9216-38.993v-73.007-73.006c-.173-35.3681 3.6249-38.9935 38.9216-38.9935h146.1569c35.297 0 38.922 3.625 38.922 38.9935v73.006 73.007c0 35.368-3.625 38.993-38.922 38.993z" fill="#414141"/>
  <path d="m15.8835 202.181c-.173 35.368 3.6249 38.993 38.9216 38.993h146.1569c35.297 0 38.922-3.625 38.922-38.993v-73.007h-224.0005z" fill="#fff" opacity=".1"/>
  <g mask="url(#mask0)">
    <path d="m58.959 46.6564c-.5732.1482-.9191.7412-.7708 1.3243.1284.4843.5732.8104 1.0475.8104.0989 0 .1878-.0198.2768-.0395l2.3817-.6325-.5139-2.1051z" fill="#fff"/>
    <path d="m257.092 85.4333c-3.015 1.3539-3.608 5.2972-4.191 9.1218-.257 1.6603-.721 4.7438-1.176 5.228-.84.0989-3.459-1.601-4.872-2.5102-3.242-2.0952-6.592-4.2694-9.596-2.9154-3.015 1.3539-3.617 5.307-4.2 9.1215-.248 1.661-.722 4.744-1.167 5.228-.84.099-3.469-1.601-4.872-2.51-3.241-2.095-6.592-4.269-9.606-2.915-1.265.573-1.878 2.055-1.334 3.33.01.01.01.02.02.03.573 1.275 2.026 1.858 3.3 1.285.841-.089 3.459 1.601 4.873 2.52 3.241 2.095 6.592 4.259 9.596 2.905 3.014-1.354 3.617-5.297 4.2-9.112.247-1.66.722-4.7534 1.166-5.2376.84-.089 3.469 1.6006 4.873 2.5206 3.241 2.095 6.591 4.259 9.606 2.905 3.004-1.354 3.607-5.2971 4.19-9.1119.247-1.6603.721-4.7536 1.166-5.2379.84-.0889 3.469 1.601 4.872 2.5201.85.5436 1.7 1.097 2.56 1.5912v-5.9693c-3.182-2.0556-6.463-4.1112-9.408-2.7869z" fill="#d6d3c9" fill-opacity=".45"/>
    <path d="m136.885 169.332c0 1.522-1.235 2.757-2.757 2.757s-2.758-1.235-2.758-2.757 1.236-2.758 2.758-2.758 2.757 1.236 2.757 2.758zm-7.412 0c0 2.569 2.085 4.655 4.655 4.655 2.569 0 4.654-2.086 4.654-4.655 0-2.57-2.085-4.655-4.654-4.655-2.57 0-4.655 2.085-4.655 4.655z" fill="#fb7c38"/>
    <path d="m22.4519 218.647c-1.5219 0-2.7573-1.245-2.7573-2.757 0-1.522 1.2354-2.758 2.7573-2.758 1.5121 0 2.7474 1.236 2.7474 2.758 0 1.512-1.2353 2.757-2.7474 2.757zm0-7.412c-2.5695 0-4.6548 2.085-4.6548 4.655 0 2.559 2.0853 4.655 4.6548 4.655 2.5597 0 4.6449-2.096 4.6449-4.655 0-2.57-2.0852-4.655-4.6449-4.655z" fill="#d6d3c9" fill-opacity=".45"/>
    <path d="m72.6862 11.098c1.522 0 2.7573 1.2453 2.7573 2.7574 0 1.5219-1.2353 2.7573-2.7573 2.7573-1.5219 0-2.7573-1.2354-2.7573-2.7573 0-1.5121 1.2354-2.7574 2.7573-2.7574zm0 7.4122c2.5696 0 4.6548-2.0853 4.6548-4.6548 0-2.5597-2.0852-4.65485-4.6548-4.65485-2.5695 0-4.6548 2.09515-4.6548 4.65485 0 2.5695 2.0853 4.6548 4.6548 4.6548z" fill="#d6d3c9" fill-opacity=".45"/>
    <path d="m159.813 27.8593c1.512 0 2.748 1.2353 2.748 2.7573 0 1.5121-1.236 2.7474-2.748 2.7474-1.522 0-2.757-1.2353-2.757-2.7474 0-1.522 1.235-2.7573 2.757-2.7573zm0 7.4022c2.56 0 4.645-2.0853 4.645-4.6449 0-2.5695-2.085-4.6548-4.645-4.6548-2.569 0-4.655 2.0853-4.655 4.6548 0 2.5596 2.086 4.6449 4.655 4.6449z" fill="#00bcd4"/>
    <path d="m106.456 85.0907c0-1.522 1.235-2.7573 2.757-2.7573 1.512 0 2.748 1.2353 2.748 2.7573 0 1.512-1.236 2.7474-2.748 2.7474-1.522 0-2.757-1.2354-2.757-2.7474zm7.402 0c0-2.5696-2.085-4.6548-4.645-4.6548-2.569 0-4.655 2.0852-4.655 4.6548 0 2.5596 2.086 4.6449 4.655 4.6449 2.56 0 4.645-2.0853 4.645-4.6449z" fill="#76c22b"/>
    <path d="m237.028 55.966c1.522 0 2.757 1.2354 2.757 2.7573 0 1.522-1.235 2.7573-2.757 2.7573s-2.758-1.2353-2.758-2.7573c0-1.5219 1.236-2.7573 2.758-2.7573zm0 7.4121c2.569 0 4.654-2.0853 4.654-4.6548s-2.085-4.6548-4.654-4.6548c-2.57 0-4.655 2.0853-4.655 4.6548s2.085 4.6548 4.655 4.6548z" fill="#d6d3c9" fill-opacity=".45"/>
    <path d="m241.425 22.315c.149.0593.297.089.445.089.415 0 .811-.2273.988-.6325.247-.5436.01-1.186-.533-1.433-5.416-2.4411-6.859-6.6413-6.918-6.8192-.188-.5633-.791-.8697-1.374-.6819-.563.1779-.87.7906-.692 1.3539.069.2175 1.759 5.2577 8.084 8.1237z" fill="#fff"/>
    <path d="m167.097 248.127c-2.995-1.373-6.365.781-9.616 2.857-1.423.899-4.052 2.579-4.714 2.559-.623-.563-1.078-3.656-1.315-5.317-.563-3.824-1.136-7.768-4.141-9.141-2.994-1.374-6.364.771-9.616 2.846-1.413.909-4.052 2.589-4.704 2.569-.632-.563-1.077-3.666-1.324-5.326-.554-3.815-1.137-7.768-4.131-9.142-1.265-.573-2.787-.059-3.38 1.186-.01.02-.01.03-.02.039-.583 1.275-.059 2.748 1.206 3.331.622.563 1.077 3.657 1.324 5.317.554 3.825 1.127 7.778 4.131 9.142 2.995 1.373 6.365-.771 9.616-2.847 1.413-.899 4.052-2.589 4.714-2.569.623.573 1.077 3.666 1.315 5.327.346 2.342.701 4.724 1.611 6.542h11.75c.129-.089.267-.168.396-.257 1.413-.899 4.052-2.579 4.714-2.56.365.336.672 1.542.909 2.817h5.139c-.524-3.212-1.324-6.206-3.864-7.373z" fill="#d6d3c9" fill-opacity=".45"/>
    <path d="m1.54422 163.353c.01976.01.03953.019.0593.029 2.92531 1.611 3.50839 6.108 3.50839 6.108.09883 1.186 1.25512 11.602 10.32759 16.593.079.04.1482.089.2273.129 9.0131 4.793 18.55.652 19.6075.168.0494-.02 4.5658-1.908 7.8173-.178 3.2316 1.729 7.2539.494 8.9834-2.738 1.7196-3.241.5436-7.313-2.7474-8.983-9.0131-4.793-18.55-.653-19.5482-.198-.0494.02-4.6153 1.927-7.8766.198-.0099-.01-.0296-.02-.0494-.03-2.9253-1.611-3.5084-6.108-3.5084-6.108-.1087-1.195-1.2354-11.79-10.56473-16.721-7.649295-4.072-15.67414-1.7-18.53027-.613v13.974c2.40152-.543 4.0816-1.275 4.4868-1.462.03953-.02 4.55597-1.898 7.80742-.168z" fill="#fb7c38"/>
    <path d="m18.5043 240.412c-.2402.121-.5066.157-.7601.115-.3901-.064-.7399-.312-.9275-.693-.3702-.732-.7842-1.442-1.1916-2.07-.3732-.592-.2041-1.375.3784-1.75.5923-.373 1.3758-.204 1.7506.378.4546.706.916 1.493 1.3302 2.323.3083.621.053 1.381-.58 1.697zm-4.0514-6.416c-.2934.322-.714.443-1.1138.377-.2438-.04-.4747-.158-.6652-.34-4.46-4.3-10.22644-5.29-10.47022-5.33-.69235-.114-1.15664-.761-1.04262-1.454.11403-.692.7614-1.156 1.45376-1.042.27304.045 6.78872 1.168 11.81028 6.011.5014.483.5208 1.278.0278 1.778zm-11.43819-10.217c-13.65201-2.249-26.59791 7.027-28.84631 20.679-.5974 3.628 1.8559 7.037 5.4737 7.632 3.6178.596 7.0348-1.846 7.6322-5.473 1.0584-6.427 7.15574-10.791 13.581942-9.733 6.426208 1.059 10.801958 7.148 9.743558 13.574-.5974 3.628 1.856 7.037 5.4737 7.632 3.6178.596 7.0348-1.846 7.6322-5.473 2.2485-13.652-7.0292-26.588-20.69099-28.838z" fill="#d6d3c9"/>
    <path d="m16.0035 236.014c-.5825.375-.7516 1.158-.3784 1.75.4074.628.8214 1.338 1.1916 2.07.1876.381.5374.629.9274.693.2536.042.52.006.7602-.115.633-.316.8883-1.076.58-1.697-.4143-.83-.8756-1.617-1.3302-2.323-.3748-.582-1.1583-.751-1.7506-.378z" fill="#fff"/>
    <path d="m266.019 238.538c-.228.142-.49.202-.747.183-.394-.029-.764-.244-.985-.608-.435-.695-.911-1.365-1.373-1.954-.425-.556-.326-1.352.22-1.777.557-.425 1.352-.327 1.778.22.516.662 1.046 1.405 1.533 2.194.362.591.176 1.37-.426 1.742zm-4.61-6.027c-.264.347-.672.505-1.076.476-.246-.018-.487-.115-.693-.279-4.827-3.883-10.659-4.352-10.906-4.37-.699-.052-1.22-.655-1.168-1.355.051-.699.654-1.22 1.354-1.168.276.02 6.866.554 12.302 4.928.542.436.633 1.226.187 1.768zm-12.308-9.151c-13.799-1.015-25.861 9.384-26.876 23.183-.27 3.666 2.479 6.842 6.135 7.111 3.657.269 6.841-2.47 7.111-6.136.478-6.495 6.16-11.389 12.655-10.911s11.399 6.15 10.921 12.646c-.27 3.666 2.479 6.841 6.136 7.11 3.657.27 6.841-2.469 7.111-6.136 1.015-13.798-9.385-25.85-23.193-26.867z" fill="#d50000"/>
    <path d="m-20.4676 30.9031c.1984-.1814.4449-.2887.7002-.3174.3929-.0442.7969.0994 1.081.4155.5552.6039 1.1464 1.1739 1.7091 1.6676.5201.4686.5702 1.2685.1114 1.7875-.4686.5201-1.2685.5703-1.7875.1115-.6293-.5558-1.2872-1.188-1.9112-1.8736-.4656-.5146-.4263-1.3146.097-1.7911zm5.6424 5.0742c.1948-.3899.5667-.6207.9693-.6659.2456-.0276.4999.0233.7326.1464 5.4606 2.9265 11.27902 2.3122 11.52454 2.2846.697291-.0784 1.320015.4185 1.398402 1.1158s-.418477 1.32-1.115762 1.3984c-.27499.0309-6.85072.7204-12.99938-2.5764-.6138-.3288-.8483-1.0881-.5097-1.7029zm13.78398 6.7247c13.74932-1.5457 23.68772-13.9903 22.14202-27.7397-.4107-3.6534-3.698-6.26733-7.3416-5.85773-3.6435.4096-6.26843 3.68823-5.85772 7.34163.72756 6.472-3.95452 12.3289-10.42653 13.0564-6.47201.7276-12.33765-3.9436-13.06515-10.4156-.4107-3.6534-3.6981-6.2673-7.3416-5.8577-3.6436.4096-6.2685 3.6882-5.8578 7.3416 1.5457 13.7493 13.9892 23.6779 27.74838 22.1311z" fill="#ffc107"/>
    <path d="m256.974 25.6533c-.014-.2684-.114-.5179-.276-.7176-.249-.3072-.637-.4885-1.062-.4629-.819.0404-1.64.0314-2.388-.012-.699-.0313-1.296.5032-1.334 1.1949-.031.6994.503 1.2966 1.195 1.3342.839.0459 1.751.0574 2.677.0072.692-.0397 1.226-.6371 1.188-1.3438zm-7.581-.3468c.135-.4145.032-.8399-.223-1.1548-.155-.192-.372-.3342-.624-.4099-5.944-1.7488-9.656-6.2707-9.812-6.4627-.441-.5453-1.234-.6285-1.779-.1869s-.629 1.2339-.187 1.7792c.174.215 4.373 5.322 11.067 7.2902.668.1966 1.368-.1795 1.558-.8551zm-14.537-4.8865c-8.708-10.75232-7.05-26.59195 3.702-35.2994 2.857-2.3137 7.033-1.8678 9.341.9815 2.307 2.8494 1.875 7.02706-.982 9.34076-5.061 4.098724-5.838 11.55674-1.739 16.61804s11.555 5.8519 16.616 1.7531c2.857-2.3137 7.034-1.8678 9.341.9816 2.308 2.8494 1.876 7.027-.981 9.3407-10.753 8.7075-26.585 7.0438-35.298-3.7163z" fill="#e56b52"/>
    <path d="m236.768 18.8714c-.442-.5453-.358-1.3376.187-1.7792s1.338-.3584 1.779.1869c.156.192 3.868 4.7139 9.812 6.4627.252.0757.469.2179.624.4099.255.3149.358.7403.223 1.1548-.19.6756-.89 1.0517-1.558.8551-6.694-1.9682-10.893-7.0752-11.067-7.2902z" fill="#fff"/>
    <path d="m90.673 223.213c-.2175.158-.4744.237-.7314.237-.3953 0-.7807-.188-1.0278-.534-.4842-.662-1.008-1.294-1.512-1.848-.4645-.524-.425-1.324.0889-1.789.5238-.464 1.3243-.424 1.7888.089.5633.623 1.1464 1.325 1.6899 2.076.4052.563.2768 1.354-.2964 1.769zm-5.0403-5.673c-.2372.366-.6325.554-1.0377.554-.247 0-.4941-.08-.7115-.228-5.0996-3.518-10.9502-3.558-11.1973-3.558-.7016 0-1.265-.563-1.265-1.265 0-.701.5634-1.265 1.265-1.265.2768 0 6.8884.05 12.6303 4.013.5732.395.7214 1.176.3162 1.749zm-12.9465-8.222c-13.8359 0-25.1023 11.256-25.1023 25.092 0 3.676 2.9747 6.641 6.6413 6.641 3.6665 0 6.6412-2.965 6.6412-6.641 0-6.513 5.3071-11.81 11.8198-11.81 6.5128 0 11.8199 5.297 11.8199 11.81 0 3.676 2.9747 6.641 6.6412 6.641 3.6666 0 6.6413-2.965 6.6413-6.641 0-13.836-11.2565-25.092-25.1024-25.092z" fill="#648ef7"/>
    <path d="m72.6862 211.778c-.7016 0-1.265.564-1.265 1.265 0 .702.5634 1.265 1.265 1.265.2471 0 6.0977.04 11.1973 3.558.2174.148.4645.228.7115.228.4052 0 .8005-.188 1.0377-.554.4052-.573.257-1.354-.3162-1.749-5.7419-3.963-12.3535-4.013-12.6303-4.013z" fill="#fff"/>
    <path d="m87.4907 219.28c-.5139.464-.5535 1.265-.089 1.788.5041.554 1.0278 1.186 1.5121 1.848.2471.346.6325.534 1.0278.534.257 0 .5139-.079.7313-.237.5733-.415.7017-1.206.2965-1.769-.5435-.751-1.1266-1.453-1.6899-2.076-.4645-.513-1.265-.553-1.7888-.088z" fill="#fff"/>
    <path d="m244.491 136.587c-.257.296-.613.444-.969.444-.286 0-.573-.098-.81-.296-2.481-2.095-6.048-2.54-8.618-2.54-1.423 0-2.401.148-2.411.148-.692.099-1.334-.375-1.443-1.057-.099-.692.375-1.334 1.067-1.443.04-.01 1.166-.178 2.787-.178 2.985 0 7.195.553 10.249 3.133.533.454.603 1.255.148 1.789zm13.124 17.295c-.019-.01-.039-.02-.059-.03-2.925-1.611-3.508-6.118-3.508-6.118-.099-1.186-1.285-11.79-10.555-16.711-9.013-4.803-18.56-.653-19.618-.168-3.32 1.531-4.783 5.485-3.241 8.815 1.532 3.321 5.475 4.783 8.805 3.242.05-.02 4.556-1.898 7.818-.168.01.009.029.019.049.029 2.925 1.611 3.509 6.118 3.509 6.118.108 1.176 1.255 11.602 10.327 16.583.079.049.158.089.237.129 5.535 2.955 11.277 2.52 15.121 1.63v-13.974c-.504.198-.87.356-1.018.425-.049.02-4.615 1.927-7.867.198z" fill="#ffc107"/>
    <path d="m233.594 131.415c-1.62 0-2.747.168-2.787.178-.691.109-1.166.751-1.067 1.443.109.682.751 1.156 1.443 1.057.01 0 .988-.148 2.411-.148 2.57 0 6.138.445 8.618 2.54.237.198.524.296.81.296.356 0 .712-.148.969-.444.455-.534.385-1.334-.148-1.789-3.054-2.579-7.264-3.133-10.249-3.133z" fill="#fff"/>
    <path d="m147.143 203.546c-.029 0-.049 0-.079 0l-8.657-.563c-.593-.04-1.048-.554-1.008-1.147.039-.603.553-1.037 1.146-1.018l8.658.564c.602.039 1.057.553 1.018 1.156-.04.573-.514 1.008-1.078 1.008zm3.044-3.864-22.622-1.196c-.553-.03-1.077.247-1.383.712-.306.464-.336 1.057-.089 1.551l10.278 20.191c.257.494.751.82 1.305.85.553.029 1.087-.247 1.393-.712l12.344-18.985c.603-.939-.119-2.352-1.226-2.411z" fill="#eba46b"/>
    <path d="m147.203 201.382-8.658-.564c-.593-.019-1.107.416-1.146 1.018-.04.593.415 1.107 1.008 1.147l8.657.563h.079c.564 0 1.038-.435 1.078-1.008.039-.603-.416-1.117-1.018-1.156z" fill="#fff"/>
    <path d="m109.134 126.124c-.217.168-.474.247-.731.247-.396 0-.781-.188-1.028-.534-.484-.672-1.008-1.294-1.512-1.848-.465-.523-.425-1.324.089-1.788.524-.465 1.324-.425 1.789.089.563.622 1.146 1.324 1.68 2.075.415.563.286 1.354-.287 1.759zm-5.04-5.663c-.237.356-.643.554-1.038.554-.247 0-.494-.079-.721-.228-5.0999-3.518-10.9406-3.557-11.1877-3.557-.7016 0-1.265-.574-1.265-1.265 0-.702.5634-1.265 1.265-1.265.2768 0 6.8884.039 12.6307 4.002.573.405.721 1.186.316 1.759zm-12.9467 28.403c-6.5127 0-11.8198-5.307-11.8198-11.819 0-6.523 5.3071-11.82 11.8198-11.82 6.5128 0 11.8197 5.297 11.8197 11.82 0 6.512-5.3069 11.819-11.8197 11.819zm-.7115 4.823c-.0396 0-.0791 0-.1186-.01-.7906-.079-1.5319-.197-2.2434-.346-.5831-.118-.9587-.691-.8401-1.274s.6918-.959 1.2749-.85c.6424.128 1.3243.237 2.0458.316.5929.069 1.0179.603.9586 1.196-.0692.553-.5337.968-1.0772.968zm-5.2775-2.283c-.1778.406-.5732.643-.9882.643-.1483 0-.2965-.03-.4448-.099-6.325-2.856-8.0149-7.906-8.0841-8.114-.1779-.573.1285-1.176.6918-1.364.5732-.188 1.1859.119 1.3737.692.0593.168 1.5022 4.368 6.9081 6.809.5534.247.7906.89.5435 1.433zm5.989-39.462c-13.8458 0-25.1023 11.257-25.1023 25.103 0 13.836 11.2565 25.102 25.1023 25.102 13.8357 0 25.1027-11.266 25.1027-25.102 0-13.846-11.267-25.103-25.1027-25.103z" fill="#d6d3c9"/>
    <path d="m91.1473 114.7c-.7016 0-1.265.563-1.265 1.265 0 .691.5634 1.265 1.265 1.265.2471 0 6.0878.039 11.1877 3.557.227.149.474.228.721.228.395 0 .801-.198 1.038-.554.405-.573.257-1.354-.316-1.759-5.7423-3.963-12.3539-4.002-12.6307-4.002z" fill="#fff"/>
    <path d="m105.952 122.201c-.514.464-.554 1.265-.089 1.788.504.554 1.028 1.177 1.512 1.849.247.345.632.533 1.028.533.257 0 .514-.079.731-.247.573-.405.702-1.196.287-1.759-.534-.751-1.117-1.453-1.68-2.075-.465-.514-1.265-.554-1.789-.089z" fill="#fff"/>
    <path d="m90.5543 151.523c-.7214-.079-1.4033-.188-2.0457-.316-.5831-.109-1.1563.267-1.2749.85s.257 1.156.8401 1.275c.7115.148 1.4527.266 2.2434.345.0395.01.079.01.1185.01.5436 0 1.0081-.415 1.0773-.968.0593-.593-.3657-1.127-.9587-1.196z" fill="#fff"/>
    <path d="m84.6148 149.971c-5.4059-2.441-6.8488-6.641-6.9081-6.809-.1878-.573-.8005-.88-1.3737-.692-.5633.188-.8697.791-.6918 1.364.0692.208 1.7591 5.258 8.0841 8.114.1483.069.2965.099.4448.099.415 0 .8104-.237.9882-.643.2471-.543.0099-1.186-.5435-1.433z" fill="#fff"/>
    <path d="m35.0821 98.808-4.7536 7.254c-.2075.316-.5633.494-.9092.494-.2076 0-.4151-.059-.593-.188-.504-.326-.6424-.998-.3162-1.492l4.7635-7.2539c.3261-.5041.9981-.6424 1.4923-.3163.504.3261.6424.9982.3162 1.5022zm.8697-4.4967c-.5139-.9883-2.0951-1.0574-2.698-.1285l-12.1855 19.0932c-.3064.465-.3261 1.058-.0692 1.552.257.494.7511.82 1.3144.84l22.6218 1.018c.5534.03 1.0871-.247 1.3836-.712.2965-.474.3261-1.067.0692-1.561z" fill="#f22c42"/>
    <path d="m34.7659 97.3058c-.4942-.3261-1.1662-.1877-1.4923.3163l-4.7635 7.2539c-.3262.494-.1878 1.166.3162 1.492.1779.129.3854.188.593.188.3459 0 .7017-.178.9092-.494l4.7536-7.254c.3262-.504.1878-1.176-.3162-1.5022z" fill="#fff"/>
    <g fill="#00bcd4">
      <path d="m58.5341 34.2733c-.8599-3.5677-4.4473-5.7617-8.015-4.892-3.5677.8598-5.7518 4.4571-4.892 8.015l2.3818 9.8037 12.9069-3.123z"/>
      <path d="m66.4205 66.7877-2.3718-9.8038-12.9169 3.123 2.3818 9.8136c.8598 3.5579 4.4473 5.7518 8.0149 4.8822 3.5677-.8599 5.7518-4.4473 4.892-8.015z"/>
      <path d="m38.2051 49.5817c-3.5677.8598-5.7518 4.4473-4.892 8.015s4.4572 5.7518 8.015 4.892l9.8037-2.3818-3.1229-12.9069z"/>
      <path d="m73.0025 44.2747c.2668-.5436.9191-.7511 1.4528-.4843.504.257.8894.6226 1.1365 1.0871.2767.5238.0791 1.186-.4546 1.4627-.1581.0889-.336.1285-.504.1285-.3954 0-.761-.2076-.9587-.5732-.0197-.0494-.0692-.1087-.1976-.168-.5337-.2768-.7511-.9191-.4744-1.4528zm-3.5578-.3854c.5732-.1483 1.1662.1877 1.3243.7708.1482.5732-.1977 1.1662-.7709 1.3243l-8.1039 2.1347 2.1545 8.8649 9.8037-2.3719c3.5578-.8697 5.7518-4.4571 4.8821-8.0248-.8598-3.5578-4.4472-5.7518-8.0149-4.892l-9.8038 2.3817.4645 1.9371z"/>
      <path d="m61.8942 48.1191-2.3817.6325c-.089.0197-.1779.0395-.2768.0395-.4743 0-.9191-.3261-1.0475-.8104-.1483-.5831.1976-1.1761.7708-1.3243l2.4213-.6424-.4645-1.937-12.9069 3.123 3.1229 12.9069 12.9169-3.123z"/>
    </g>
    <path d="m70.769 44.6601c-.1582-.5831-.7511-.9191-1.3243-.7708l-8.0644 2.1248.5139 2.105 8.1039-2.1347c.5732-.1581.9191-.7511.7709-1.3243z" fill="#fff"/>
    <path d="m73.4769 45.7275c.1284.0593.1779.1186.1976.168.1977.3656.5633.5732.9587.5732.168 0 .3459-.0396.504-.1285.5337-.2767.7313-.9389.4546-1.4627-.2471-.4645-.6325-.8301-1.1365-1.0871-.5337-.2668-1.186-.0593-1.4528.4843-.2767.5337-.0593 1.176.4744 1.4528z" fill="#fff"/>
    <path d="m116.2 26.4263c-.108.0395-.227.0494-.336.0494-.553 0-1.067-.3558-1.215-.9191-1.433-5.0501-7.778-8.1039-7.837-8.1336-.633-.2964-.9-1.0574-.603-1.6899.296-.6226 1.057-.8994 1.68-.6029.306.1483 7.442 3.5776 9.191 9.7346.188.672-.198 1.3737-.88 1.5615zm11.197 69.8221c.04.0691.08.1482.129.2273 4.813 9.0033 15.042 10.8813 16.188 11.0593.049.009 4.843.968 6.582 4.21 1.729 3.241 5.752 4.457 8.993 2.727 3.232-1.729 4.517-5.761 2.718-8.993-4.813-8.9935-15.042-10.8712-16.129-11.0392-.049-.0099-4.902-.9784-6.641-4.2298-.01-.0198-.02-.0297-.03-.0495-1.531-2.9747.495-7.0266.495-7.0266.573-1.0575 5.534-10.4857.543-19.7755-4.813-9.0033-15.051-10.8711-16.139-11.049-.039-.0099-4.901-.9685-6.641-4.22-.01-.0197-.02-.0395-.029-.0593-1.532-2.9648.494-7.0267.494-7.0267.573-1.0475 5.495-10.5054.543-19.7656-4.813-9.0032-15.041-10.881-16.198-11.0589-3.6167-.58304-7.0263 1.8877-7.6094 5.5048-.5732 3.627 1.8876 7.0266 5.5144 7.6097.05.0099 4.843.9587 6.582 4.2101.01.0198.02.0395.03.0593 1.532 2.9649-.494 7.0267-.494 7.0267-.574 1.0377-5.416 10.3374-.672 19.5284.039.0791.089.1582.128.2372 4.813 9.0033 15.042 10.881 16.198 11.0589.04.0099 4.843.9586 6.572 4.2101.01.0197.02.0395.04.0593 1.531 2.9648-.494 7.0266-.494 7.0266-.574 1.0377-5.426 10.3375-.673 19.5384z" fill="#eba46b"/>
    <path d="m117.08 24.8648c-1.749-6.157-8.885-9.5863-9.191-9.7346-.623-.2965-1.384-.0197-1.68.6029-.297.6325-.03 1.3935.603 1.6899.059.0297 6.404 3.0835 7.837 8.1336.148.5633.662.9191 1.215.9191.109 0 .228-.0099.336-.0494.682-.1878 1.068-.8895.88-1.5615z" fill="#fff"/>
    <path d="m196.3 36.2498 7.383-4.5659c.514-.3162 1.176-.1581 1.492.3558.316.504.158 1.1761-.356 1.4923l-7.372 4.556c-.178.1087-.376.168-.573.168-.366 0-.712-.1878-.919-.5139-.317-.5139-.159-1.176.345-1.4923zm-10.179 7.1552 20.072 10.4955c.494.257 1.077.2273 1.552-.0692.464-.2965.741-.8202.721-1.3737l-.949-22.6316c-.049-1.1168-1.452-1.8481-2.391-1.2551l-19.123 12.136c-.465.3064-.742.8302-.722 1.3836.02.5535.346 1.0575.84 1.3145z" fill="#648ef7"/>
    <path d="m196.874 38.256c.197 0 .395-.0593.573-.168l7.372-4.556c.514-.3162.672-.9883.356-1.4923-.316-.5139-.978-.672-1.492-.3558l-7.383 4.5659c-.504.3162-.662.9784-.345 1.4923.207.3261.553.5139.919.5139z" fill="#fff"/>
    <path d="m185.419 170.142c-.049.01-.108.01-.168.01-.622 0-1.166-.464-1.245-1.097-.82-6.177-4.832-10.634-4.872-10.683-.474-.514-.435-1.315.079-1.779.514-.474 1.314-.445 1.789.069.188.208 4.586 5.08 5.505 12.057.098.692-.386 1.334-1.088 1.423zm.692 6.562c-.128.593-.652.999-1.235.999-.089 0-.178-.01-.267-.03-.682-.148-1.117-.82-.968-1.502.168-.801.286-1.611.355-2.362.07-.692.682-1.196 1.394-1.127.692.069 1.196.682 1.126 1.384-.079.83-.207 1.729-.405 2.638zm-38.74-23.432c-2.718 2.461-2.926 6.661-.455 9.379 2.461 2.718 6.661 2.925 9.379.465 4.823-4.379 12.314-4.013 16.692.82 4.368 4.833 4.002 12.324-.83 16.692-2.718 2.461-2.926 6.661-.455 9.379 1.305 1.452 3.113 2.184 4.922 2.184 1.591 0 3.182-.564 4.457-1.72 10.258-9.29 11.039-25.191 1.749-35.449-9.29-10.259-25.201-11.04-35.459-1.75z" fill="#00bcd4"/>
    <path d="m185.39 172.682c-.712-.069-1.324.435-1.394 1.127-.069.751-.187 1.561-.355 2.362-.149.682.286 1.354.968 1.502.089.02.178.03.267.03.583 0 1.107-.406 1.235-.999.198-.909.326-1.808.405-2.638.07-.702-.434-1.315-1.126-1.384z" fill="#fff"/>
    <path d="m179.213 156.593c-.514.464-.553 1.265-.079 1.779.04.049 4.052 4.506 4.872 10.683.079.633.623 1.097 1.245 1.097.06 0 .119 0 .168-.01.702-.089 1.186-.731 1.088-1.423-.92-6.977-5.317-11.849-5.505-12.057-.475-.514-1.275-.544-1.789-.069z" fill="#fff"/>
    <path d="m230.169 196.668-8.667.454c-.02.01-.04.01-.06.01-.573 0-1.047-.455-1.077-1.028-.03-.603.425-1.107 1.028-1.146l8.657-.455c.554-.049 1.107.425 1.147 1.028.029.593-.435 1.107-1.028 1.137zm2.639-4.201-22.602 1.463c-.554.04-1.048.366-1.295.87-.247.494-.208 1.087.109 1.551l12.561 18.837c.316.464.84.731 1.393.692.563-.03 1.058-.366 1.305-.86l10.031-20.309c.494-.998-.386-2.313-1.502-2.244z" fill="#76c22b"/>
    <path d="m230.05 194.503-8.657.455c-.603.039-1.058.543-1.028 1.146.03.573.504 1.028 1.077 1.028.02 0 .04 0 .06-.01l8.667-.454c.593-.03 1.057-.544 1.028-1.137-.04-.603-.593-1.077-1.147-1.028z" fill="#fff"/>
  </g>
  <g filter="url(#filter0_f)" opacity=".1">
    <path d="m151.089 38.6206c3.952 8.4479 6.791 17.9363 8.372 27.8701-3.658-5.1769-7.468-8.7424-11.816-11.0315-1.054-.5549-3.896-1.5549-4.994-1.7574-3.509-.647-6.902-.3575-10.486.8945-1.147.4005-3.934 1.7335-5.176 2.4765-8.675 5.188-18.03 14.9738-23.833 24.8527-3.6099-1.2677-7.577-1.9302-11.5992-1.9372-14.6069.0001-26.4481 8.4633-26.4483 18.9032.0118 3.9145 1.7237 7.7295 4.8992 10.9195-5.2856 3.567-8.2837 8.532-8.2897 13.728.01 2.739.8525 5.443 2.4691 7.926-1.6645 1.35-1.4684 3.673-1.1222 6.426l15.7749 74.911c1.3086.235 2.6278.462 3.9568.679 3.0188.437 6.0805.829 9.1782 1.175.0307-.408.1496-.78.1094-1.214l.2726 1.26c.7582.1 1.5188.198 2.2819.292 4.01.429 8.0733.781 12.1743 1.053s8.235.465 12.386.577c.594.01 1.188.019 1.782.026 0-.01.007-.019.007-.029v-.003c2.208.065 4.42.108 6.633.127 2.344-.007 4.686-.038 7.025-.095.001-.006.003-.01.003-.015 0 0 1.305-2.71.014-.014 0 .01.007.019.008.029.594-.007 1.188-.016 1.781-.026 4.151-.113 8.285-.305 12.386-.577s8.165-.624 12.175-1.053c.763-.095 1.523-.192 2.282-.292 3.097-.346 6.541-.784 9.56-1.221 1.329-.218 2.648-.444 3.957-.679l15.774-74.912c.301-2.386.49-4.45-.548-5.838.221-.976.335-1.963.34-2.952-.002-6.877-5.23-13.211-13.652-16.539 1.667-2.277 2.97-4.705 3.879-7.229.611 1.144 1.201 2.292 1.756 3.445 1.153-7.805.652-14.6414-1.383-19.9252-1.092-3.4338-2.906-6.7039-5.368-9.6786.614-.1638 1.214-.3537 1.668-.5379 3.962-1.6081 7.202-5.1215 9.492-10.2959.4-.9032 1.496-4.1161 1.635-4.7958l.059-.2817-.475-.2277c-.754-.36-4.501-1.6524-5.337-1.8413-6.655-1.5024-11.854-.4979-15.777 3.0474-.464.4195-.513.448-.467.2697l-.527.1648c.431-1.9038.499-3.8716.178-5.8761-1.198-7.193-7.238-14.3762-16.969-20.1782z" fill="#020000"/>
  </g>
  <g filter="url(#filter1_f)" opacity=".1">
    <path d="m151.089 38.6206c3.952 8.4479 6.791 17.9363 8.372 27.8701-3.658-5.1769-7.468-8.7424-11.816-11.0315-1.054-.5549-3.896-1.5549-4.994-1.7574-3.509-.647-6.902-.3575-10.486.8945-1.147.4005-3.934 1.7335-5.176 2.4765-8.675 5.188-18.03 14.9738-23.833 24.8527-3.6099-1.2677-7.577-1.9302-11.5992-1.9372-14.6069.0001-26.4481 8.4633-26.4483 18.9032.0118 3.9145 1.7237 7.7295 4.8992 10.9195-5.2856 3.567-8.2837 8.532-8.2897 13.728.01 2.739.8525 5.443 2.4691 7.926-1.6645 1.35-1.4684 3.673-1.1222 6.426l15.7749 74.911c1.3086.235 2.6278.462 3.9568.679 3.0188.437 6.0805.829 9.1782 1.175.0307-.408.1496-.78.1094-1.214l.2726 1.26c.7582.1 1.5188.198 2.2819.292 4.01.429 8.0733.781 12.1743 1.053s8.235.465 12.386.577c.594.01 1.188.019 1.782.026 0-.01.007-.019.007-.029v-.003c2.208.065 4.42.108 6.633.127 2.344-.007 4.686-.038 7.025-.095.001-.006.003-.01.003-.015 0 0 1.305-2.71.014-.014 0 .01.007.019.008.029.594-.007 1.188-.016 1.781-.026 4.151-.113 8.285-.305 12.386-.577s8.165-.624 12.175-1.053c.763-.095 1.523-.192 2.282-.292 3.097-.346 6.541-.784 9.56-1.221 1.329-.218 2.648-.444 3.957-.679l15.774-74.912c.301-2.386.49-4.45-.548-5.838.221-.976.335-1.963.34-2.952-.002-6.877-5.23-13.211-13.652-16.539 1.667-2.277 2.97-4.705 3.879-7.229.611 1.144 1.201 2.292 1.756 3.445 1.153-7.805.652-14.6414-1.383-19.9252-1.092-3.4338-2.906-6.7039-5.368-9.6786.614-.1638 1.214-.3537 1.668-.5379 3.962-1.6081 7.202-5.1215 9.492-10.2959.4-.9032 1.496-4.1161 1.635-4.7958l.059-.2817-.475-.2277c-.754-.36-4.501-1.6524-5.337-1.8413-6.655-1.5024-11.854-.4979-15.777 3.0474-.464.4195-.513.448-.467.2697l-.527.1648c.431-1.9038.499-3.8716.178-5.8761-1.198-7.193-7.238-14.3762-16.969-20.1782z" fill="#020000"/>
  </g>
  <path d="m151.089 38.6206c3.952 8.4479 6.791 17.9363 8.372 27.8701-3.658-5.1769-7.468-8.7424-11.816-11.0315-1.054-.5549-3.896-1.5549-4.994-1.7574-3.509-.647-6.902-.3575-10.486.8945-1.147.4005-3.934 1.7335-5.176 2.4765-8.675 5.188-18.03 14.9738-23.833 24.8527-3.6099-1.2677-7.577-1.9302-11.5992-1.9372-14.6069.0001-26.4481 8.4633-26.4483 18.9032.0118 3.9145 1.7237 7.7295 4.8992 10.9195-5.2856 3.567-8.2837 8.532-8.2897 13.728.01 2.739.8525 5.443 2.4691 7.926-1.6645 1.35-1.4684 3.673-1.1222 6.426l15.7749 74.911c1.3086.235 2.6278.462 3.9568.679 3.0188.437 6.0805.829 9.1782 1.175.0307-.408.1496-.78.1094-1.214l.2726 1.26c.7582.1 1.5188.198 2.2819.292 4.01.429 8.0733.781 12.1743 1.053s8.235.465 12.386.577c.594.01 1.188.019 1.782.026 0-.01.007-.019.007-.029v-.003c2.208.065 4.42.108 6.633.127 2.344-.007 4.686-.038 7.025-.095.001-.006.003-.01.003-.015 0 0 1.305-2.71.014-.014 0 .01.007.019.008.029.594-.007 1.188-.016 1.781-.026 4.151-.113 8.285-.305 12.386-.577s8.165-.624 12.175-1.053c.763-.095 1.523-.192 2.282-.292 3.097-.346 6.541-.784 9.56-1.221 1.329-.218 2.648-.444 3.957-.679l15.774-74.912c.301-2.386.49-4.45-.548-5.838.221-.976.335-1.963.34-2.952-.002-6.877-5.23-13.211-13.652-16.539 1.667-2.277 2.97-4.705 3.879-7.229.611 1.144 1.201 2.292 1.756 3.445 1.153-7.805.652-14.6414-1.383-19.9252-1.092-3.4338-2.906-6.7039-5.368-9.6786.614-.1638 1.214-.3537 1.668-.5379 3.962-1.6081 7.202-5.1215 9.492-10.2959.4-.9032 1.496-4.1161 1.635-4.7958l.059-.2817-.475-.2277c-.754-.36-4.501-1.6524-5.337-1.8413-6.655-1.5024-11.854-.4979-15.777 3.0474-.464.4195-.513.448-.467.2697l-.527.1648c.431-1.9038.499-3.8716.178-5.8761-1.198-7.193-7.238-14.3762-16.969-20.1782z" fill="#020000" opacity=".1"/>
  <path d="m142.58 66.1973c-7.695.0079-15.228 1.7141-21.724 4.9199-6.495 3.2059-11.686 7.7797-14.968 13.189-4.111-1.8353-8.8572-2.8123-13.7036-2.8203-6.889.0001-13.4957 1.956-18.3669 5.4377-4.8712 3.4816-7.6078 8.2036-7.6078 13.1274.0115 3.844 1.6927 7.592 4.8115 10.724-2.5686 1.733-4.6153 3.823-6.0152 6.142-1.3998 2.318-2.1233 4.816-2.1261 7.341 0 4.923 2.7366 9.645 7.6078 13.127s11.4779 5.438 18.3669 5.438c5.7563-.003 11.3484-1.373 15.8974-3.894 2.204 2.986 5.507 5.486 9.551 7.23 4.045 1.744 8.679 2.667 13.403 2.67 3.595-.004 7.151-.542 10.44-1.579 3.29-1.037 6.243-2.551 8.672-4.447 2.412 1.735 5.279 3.113 8.438 4.053 3.159.941 6.547 1.426 9.969 1.428 6.889 0 13.496-1.956 18.367-5.438s7.608-8.204 7.608-13.127c-.001-3.317-1.246-6.573-3.603-9.429-2.358-2.857-5.744-5.21-9.805-6.814 3.537-4.777 5.405-10.189 5.416-15.7002 0-4.147-1.05-8.2534-3.092-12.0847-2.042-3.8314-5.035-7.3126-8.807-10.2449-3.773-2.9324-8.252-5.2584-13.181-6.8454-4.929-1.5869-10.213-2.4036-15.548-2.4035z" fill="#fff"/>
  <path d="m183.182 97.3644c-.184 5.2296-2.036 10.3406-5.39 14.8756.214.088.425.178.635.271 3.113-4.536 4.754-9.594 4.782-14.7353-.008-.1371-.017-.2743-.027-.4113zm-116.9354 1.9494c-.0191.2454-.0313.4912-.0368.7372.0206 3.543 1.4594 7.008 4.1465 9.986.2173-.169.4391-.335.665-.497-2.9716-2.996-4.6333-6.555-4.7747-10.2262zm-3.3268 24.2842c-.0187.22-.032.44-.0397.66-.0001 4.923 2.7365 9.645 7.6077 13.127s11.478 5.438 18.367 5.438c5.7563-.004 11.3482-1.373 15.8972-3.894 2.205 2.986 5.507 5.485 9.552 7.23 4.044 1.744 8.678 2.667 13.402 2.67 3.595-.004 7.151-.542 10.441-1.579 3.289-1.037 6.242-2.552 8.671-4.447 2.412 1.735 5.279 3.113 8.438 4.053 3.159.941 6.547 1.426 9.969 1.428 6.889-.001 13.496-1.956 18.367-5.438s7.608-8.204 7.608-13.127c-.009-.17-.02-.339-.035-.508-.263 4.792-3.111 9.325-7.946 12.651-4.836 3.325-11.284 5.183-17.994 5.186-3.422-.002-6.81-.487-9.969-1.427-3.159-.941-6.026-2.318-8.438-4.053-2.429 1.895-5.382 3.409-8.671 4.446-3.29 1.038-6.846 1.575-10.441 1.58-4.724-.003-9.358-.926-13.402-2.67-4.045-1.745-7.347-4.245-9.552-7.231-4.549 2.522-10.1409 3.891-15.8972 3.894-6.7449-.005-13.2224-1.885-18.0626-5.242s-7.6634-7.929-7.8724-12.747z" fill="#000" opacity=".2"/>
  <path d="m92.8676 213.803-10.125-61.563 1.375-.062c3.2292 19.25 9.7125 57.825 9.8125 58.125s-.6666 2.458-1.0625 3.5z" fill="#ab1c2c"/>
  <path d="m70.1857 132.949v.001c-6.1531.05-6.5399 2.247-6.1594 5.26.3762-1.675 1.8603-2.754 6.1594-2.789v-.001c.4516-.004.934.004 1.4496.024 5.121.002 9.4808 2.948 9.8406 4.946l.5624 3.125c-.1787-3.514.9734-6.501 8.8119-5.957 5.1153.16 9.1299 2.01 9.4848 5.242l.027.253c.544-3.073 3.903-4.182 8.204-4.321l1.004-.034c4.733-.152 8.843 2.189 9.082 5.277.287-2.923 4.044-5.206 8.54-5.206h.987c4.119 0 7.615 1.92 8.389 4.489.033-.164.083-.327.143-.49l.029-.775c.119-3.153-3.818-5.694-8.561-5.694h-.987c-4.496 0-8.253 2.283-8.54 5.205-.239-3.087-4.349-5.429-9.082-5.276l-1.004.034c-4.301.139-7.66 1.248-8.204 4.321l-.027-.254c-.3549-3.231-4.3695-5.081-9.4848-5.241-7.8385-.545-8.9906 2.443-8.8119 5.957l-.5624-3.126c-.3598-1.997-4.7196-4.943-9.8406-4.946-.5156-.02-.998-.028-1.4496-.024zm115.1373.001c-.452-.003-.934.005-1.45.024-5.121.003-9.481 2.949-9.841 4.946-.175.713-.353 1.507-.531 2.267-.072-3.127-1.647-5.598-8.843-5.098-5.115.16-9.13 2.01-9.485 5.241l-.027.254c-.543-3.073-3.902-4.182-8.204-4.321l-1.003-.034c-4.805-.155-8.976 2.675-9.099 5.415l-.034.9c1.035-2.318 4.68-4.38 8.799-4.247l1.003.033c3.442.111 6.285.84 7.562 2.701.494.553.834 1.219.976 2.023l.027-.253c.355-3.232 4.37-5.082 9.485-5.241 7.196-.501 8.771 1.97 8.843 5.097.178-.76.356-1.554.531-2.266.36-1.997 4.72-4.944 9.841-4.946.516-.02.998-.028 1.45-.024 4.299.035 5.783 1.114 6.159 2.789.381-3.013-.007-5.21-6.159-5.26z" fill="#000" opacity=".1"/>
  <path clip-rule="evenodd" d="m83.5818 212.589c2.9647.429 5.9573.802 8.9995 1.141.0075-.1.0262-.223.0464-.356.0606-.398.1351-.888-.0342-1.139l-7.0419-47.949 7.4186 49.502c.7445.098 1.4915.194 2.2409.287 3.9384.421 7.9289.766 11.9569 1.034 4.028.267 8.088.456 12.165.567.583.009 1.166.018 1.749.024 0-.01.006-.017.007-.027 2.168.063 4.34.103 6.513.122 2.302-.007 4.603-.038 6.9-.095 0-.001.009-.002.023-.003l.001.003c.583-.007 1.166-.015 1.749-.024 4.077-.111 8.137-.3 12.164-.567 4.028-.268 8.019-.613 11.958-1.034.749-.093 1.496-.189 2.24-.287 3.043-.34 6.424-.77 9.389-1.199 1.305-.214 2.601-.436 3.886-.667l15.493-73.571c.57-4.535.767-7.904-7.482-7.516-5.121.002-9.48 3.596-9.84 6.032-.177.877-.355 1.786-.534 2.722-.083-3.794-1.673-6.782-8.841-6.175-5.116.195-9.131 2.452-9.486 6.394l-.024.271c-.557-3.724-3.917-5.064-8.207-5.233l-1.003-.04c-4.578-.18-8.58 2.946-9.054 6.132-.489-3.419-4.338-6.046-8.706-6.046h-.987c-4.456 0-8.195 2.735-8.539 6.255-.3-3.72-4.388-6.526-9.082-6.341l-1.004.04c-4.29.169-7.649 1.509-8.206 5.233l-.025-.271c-.355-3.942-4.3698-6.199-9.4852-6.394-7.7722-.659-8.9864 2.911-8.8322 7.149l-.5428-3.696c-.3597-2.436-4.7189-6.03-9.8399-6.032-8.2495-.388-8.0525 2.981-7.482 7.516l15.4924 73.571c1.2854.231 2.581.453 3.8865.667zm50.9372 3.084c0 .004.002.008.003.012l-.016.001.265-7.896z" fill="#ab1c2c" fill-rule="evenodd"/>
  <path d="m191.604 134.702c-.037.679-.104 1.387-.199 2.142l-15.492 73.571c-1.286.231-2.581.454-3.886.668-2.965.429-6.347.858-9.389 1.197-.745.099-1.492.195-2.241.289-3.939.421-7.929.765-11.958 1.033-4.027.267-8.087.457-12.164.568-.57.009-1.139.017-1.709.023l-.048 1.48c.001.01.007.017.008.027.583-.007 1.166-.014 1.749-.024 4.076-.11 8.137-.301 12.164-.567 4.028-.268 8.019-.613 11.958-1.033.749-.094 1.496-.19 2.241-.289 3.042-.339 6.424-.769 9.389-1.198 1.305-.213 2.6-.436 3.886-.668l15.492-73.57c.168-1.34.304-2.579.199-3.649zm-127.5988.006c-.1041 1.068.0294 2.305.1978 3.643l15.492 73.57c1.2852.231 2.5808.454 3.8862.668 2.9652.429 5.9724.813 9.015 1.152.0302-.4.1466-.764.1071-1.19l.2667 1.236c.7444.099 1.4913.195 2.2406.288 3.9387.421 7.9294.766 11.9574 1.033s8.088.457 12.165.568c.583.01 1.166.017 1.749.024 0-.01.007-.018.007-.028v-.003c2.168.064 4.34.107 6.513.126 2.302-.007 4.603-.038 6.9-.095.001-.006.005-.01.006-.015l.047-1.492c-.01 0-.02 0-.029 0-.001-.01-.007-.017-.007-.027l2.345-73.464-2.356 73.476c-.001.006-.005.01-.006.015-2.297.057-4.598.089-6.9.096-2.173-.02-4.345-.062-6.513-.127v.003c0 .01-.007.018-.007.028-.583-.006-1.166-.014-1.749-.024-4.077-.111-8.137-.3-12.165-.568-4.028-.267-8.0186-.612-11.9573-1.033-.7493-.093-1.4962-.189-2.2407-.288l-.2666-1.236c.0395.426-.077.79-.1071 1.19-3.0426-.339-6.0499-.723-9.0151-1.152-1.3053-.214-2.6009-.436-3.8861-.668l-15.492-73.57c-.0949-.754-.1607-1.459-.1978-2.136z" fill="#030000" opacity=".2"/>
  <path d="m70.1857 130.966c-5.5701.055-6.4031 2.263-6.232 5.404.2285-2.323 1.5943-3.851 6.232-3.897.4516-.004.934.005 1.4496.029 5.121.003 9.4809 3.597 9.8406 6.033l.5624 3.812c-.1787-4.286.9734-7.93 8.8119-7.265 5.1154.194 9.1299 2.451 9.4848 6.393l.027.309c.544-3.748 3.903-5.101 8.205-5.271l1.003-.041c4.733-.186 8.843 2.67 9.082 6.436.287-3.565 4.044-6.349 8.54-6.349h.987c4.456 0 8.285 2.358 8.634 5.832l.027-.821c.119-3.845-3.918-6.518-8.661-6.518h-.987c-4.496 0-8.253 2.785-8.54 6.349-.239-3.766-4.349-6.622-9.082-6.436l-1.003.041c-4.302.17-7.661 1.523-8.205 5.271l-.027-.309c-.3549-3.942-4.3694-6.198-9.4848-6.393-7.8385-.665-8.9906 2.979-8.8119 7.266l-.5624-3.813c-.3597-2.436-4.7196-6.03-9.8406-6.033-.5156-.024-.998-.033-1.4496-.029zm66.6543 10.604-.025.823c.022.223.032.452.025.684.123-3.341 4.294-6.794 9.099-6.605l1.003.041c4.302.17 7.661 1.523 8.204 5.271l.027-.309c.355-3.942 4.37-6.199 9.485-6.393 7.196-.61 8.771 2.403 8.843 6.218.178-.928.356-1.896.531-2.765.36-2.436 4.72-6.03 9.841-6.033.516-.024.998-.033 1.45-.029 4.641.046 6.003 1.577 6.23 3.903.172-3.144-.657-5.354-6.23-5.41-.452-.004-.934.006-1.45.029-5.121.003-9.481 3.597-9.841 6.033-.175.869-.353 1.838-.531 2.765-.072-3.814-1.647-6.828-8.843-6.218-5.115.195-9.13 2.451-9.485 6.393l-.027.309c-.543-3.748-3.902-5.101-8.204-5.27l-1.003-.042c-4.805-.189-8.976 3.264-9.099 6.605zm0 1.507-2.337 72.783h.013z" fill="#fff" opacity=".3"/>
  <g filter="url(#filter2_f)" opacity=".3">
    <path d="m70.1857 129.169c-5.5701.055-6.4031 2.263-6.232 5.405.2285-2.323 1.5943-3.852 6.232-3.898.4516-.004.934.005 1.4496.029 5.121.003 9.4809 3.597 9.8406 6.033l.5624 3.812c-.1787-4.286.9734-7.93 8.8119-7.265 5.1154.194 9.1299 2.451 9.4848 6.393l.027.309c.544-3.748 3.903-5.101 8.205-5.271l1.003-.041c4.733-.186 8.843 2.67 9.082 6.436.287-3.565 4.044-6.349 8.54-6.349h.987c4.456 0 8.285 2.358 8.634 5.832l.027-.821c.119-3.845-3.918-6.518-8.661-6.518h-.987c-4.496 0-8.253 2.785-8.54 6.349-.239-3.766-4.349-6.622-9.082-6.436l-1.003.042c-4.302.169-7.661 1.522-8.205 5.27l-.027-.309c-.3549-3.942-4.3694-6.198-9.4848-6.393-7.8385-.665-8.9906 2.979-8.8119 7.266l-.5624-3.813c-.3597-2.436-4.7196-6.03-9.8406-6.032-.5156-.025-.998-.034-1.4496-.03zm66.6543 10.604-.025.823c.022.223.032.452.025.684.123-3.341 4.294-6.794 9.099-6.605l1.003.041c4.302.17 7.661 1.523 8.204 5.271l.027-.309c.355-3.942 4.37-6.199 9.485-6.393 7.196-.61 8.771 2.403 8.843 6.218.178-.928.356-1.896.531-2.765.36-2.436 4.72-6.03 9.841-6.033.516-.024.998-.033 1.45-.029 4.641.046 6.003 1.577 6.23 3.903.172-3.144-.657-5.354-6.23-5.41-.452-.004-.934.006-1.45.03-5.121.002-9.481 3.596-9.841 6.032-.175.87-.353 1.838-.531 2.765-.072-3.814-1.647-6.828-8.843-6.218-5.115.195-9.13 2.451-9.485 6.393l-.027.309c-.543-3.748-3.902-5.101-8.204-5.27l-1.003-.042c-4.805-.189-8.976 3.264-9.099 6.606zm0 1.507-2.337 72.783h.013z" fill="#100000"/>
  </g>
  <path d="m142.58 66.1972c-7.694.0079-15.228 1.7141-21.724 4.92-6.495 3.2058-11.686 7.7796-14.968 13.189-4.11-1.8354-8.857-2.8124-13.7034-2.8204-6.889.0001-13.4958 1.9561-18.367 5.4377s-7.6078 8.2036-7.6078 13.1275c.0092.166.0215.332.0368.498.2663-4.7903 3.115-9.3212 7.9498-12.6443 4.8347-3.3231 11.2806-5.1806 17.9882-5.1836 4.8464.008 9.5934.9849 13.7034 2.8203 3.282-5.4094 8.473-9.9831 14.968-13.189 6.496-3.2059 14.03-4.912 21.724-4.92 10.68.0046 20.928 3.2774 28.526 9.1103 7.599 5.8329 11.937 13.7567 12.076 22.0569.014-.2745.022-.5492.027-.8239 0-4.147-1.051-8.2534-3.093-12.0847-2.042-3.8314-5.035-7.3126-8.807-10.2449-3.773-2.9324-8.252-5.2584-13.181-6.8453-4.929-1.587-10.212-2.4037-15.548-2.4036zm-72.2237 45.0748c-4.7748 3.462-7.4591 8.124-7.4762 12.986.009.192.0223.383.0397.575.242-4.868 3.1517-9.474 8.1015-12.823-.2298-.242-.4515-.488-.665-.738zm108.0707 2.474c-.205.324-.416.646-.635.965 3.951 1.565 7.263 3.84 9.608 6.599 2.345 2.76 3.642 5.909 3.765 9.136.018-.242.03-.485.035-.727-.004-3.227-1.184-6.396-3.424-9.197s-5.462-5.136-9.349-6.776z" fill="#fefefe" opacity=".3"/>
  <path d="m159.343 68.8894s8.627 17.3341 8.834 17.5598c.003-.0054.002-.0069.004-.0076 0 0 5.997-5.2794 6.706-5.3748 1.008-.1355 2.529-.5369 3.447-.9093 3.892-1.5793 7.073-5.0298 9.323-10.1115.393-.887 1.468-4.0426 1.605-4.7102l.057-.2768-.466-.2225c-.74-.3536-4.419-1.6234-5.241-1.8089-6.535-1.4754-11.642-.489-15.494 2.9928-.456.412-.504.4395-.459.2644z" fill="#46a926"/>
  <path d="m150.651 40.8602c5.034 10.7602 8.235 23.2349 9.279 36.1602 5.771-4.5683 8.357-10.2883 7.387-16.344-1.177-7.0642-7.109-14.1181-16.666-19.8162z" fill="#76c22b"/>
  <path d="m183.326 109.76c-5.155-10.703-12.797-21.0692-22.153-30.0485 7.188-1.5842 13.254.0285 17.334 4.608 4.73 5.3773 6.445 14.4331 4.819 25.4405z" fill="#76c22b"/>
  <path d="m180.637 79.2273c-.429.2316-.868.4419-1.316.624-.918.3724-2.439.7734-3.446.9089-.054.0072-.15.0539-.261.1176.105.0599.209.123.314.1854.896-.1873 1.925-.4827 2.615-.7625.723-.2935 1.421-.6521 2.094-1.0734zm-9.524-15.0243c-.932.4985-1.809 1.1058-2.628 1.8257l.161-.0505c-.045.1751.003.1473.458-.2647.635-.5733 1.306-1.0723 2.009-1.5104zm-18.888-22.3546c-.449-.284-.898-.5675-1.364-.8452 5.034 10.7601 8.235 23.2344 9.279 36.1596.261-.2072.514-.4174.761-.6297-1.016-12.3477-4.005-24.2738-8.676-34.6847zm28.931 61.6276c-4.869-8.468-11.252-16.5898-18.743-23.824-.341.0603-.684.1257-1.03.2022 9.355 8.9793 16.998 19.3458 22.153 30.0488.079-.538.144-1.067.208-1.596-.809-1.62-1.668-3.232-2.588-4.831zm-17.844-28.9194c-.218.2221-.443.442-.673.6601.72 1.4426 1.136 2.2736 1.894 3.7849.319-.039.637-.0737.952-.1004-.963-1.921-1.297-2.5887-2.173-4.3446z" fill="#000" opacity=".2"/>
  <path d="m189.319 65.0594-.466-.2222c-.74-.3536-4.419-1.6237-5.24-1.8092-5.459-1.2326-9.919-.7405-13.486 1.4823 3.431-1.8339 7.638-2.1774 12.708-1.0329.822.1856 4.5 1.4557 5.24 1.8092l.466.2223-.057.277c-.137.6676-1.212 3.8228-1.605 4.7099-1.831 4.1373-4.281 7.1934-7.229 9.0389 3.296-1.7763 6.017-4.9926 8.007-9.4884.393-.887 1.468-4.0423 1.605-4.7099zm-24.464-10.9602c-2.776-4.7619-7.633-9.3208-14.203-13.2382.2.4273.392.8621.586 1.2947 8.752 5.5431 14.182 12.2513 15.301 18.9712.316 1.9688.249 3.9004-.174 5.7702l.517-.1622c-.045.1752.002.1474.458-.2647.052-.0468.106-.0882.158-.1341l-.356.1115c.424-1.8698.49-3.8014.175-5.7702-.368-2.2075-1.2-4.4136-2.462-6.5782zm15.648 33.0043c-.591-1.0129-1.256-1.9432-1.995-2.7834-1.058-1.1878-2.256-2.1661-3.567-2.9496-.297.0621-.58.1128-.831.1465-.054.0072-.149.0539-.261.1176 1.435.812 2.738 1.8526 3.881 3.1349 4.499 5.1145 6.264 13.5613 5.027 23.8455.191.382.386.763.57 1.146 1.372-9.288.365-17.186-2.824-22.6575zm-18.956-11.7901c-.509.5204-1.053 1.0301-1.632 1.527.005.0602.011.1201.016.1803.613-.4855 1.184-.9854 1.722-1.4966-.041-.0801-.063-.1256-.106-.2104zm1.999 3.9955c-.776.0947-1.565.2253-2.372.4031.085.0817.167.1654.252.2473.779-.1378 1.544-.2377 2.294-.3013-.077-.1543-.105-.2093-.174-.3492z" fill="#fff" opacity=".3"/>
  <path d="m110.591 120.05c-5.623-2.436-9.56-5.929-11.5451-10.246-3.0438-6.618-1.6517-15.5003 3.9981-25.5102 5.647-10.0051 15.155-20.0583 23.938-25.3118 1.22-.7297 3.957-2.0397 5.083-2.4331 3.52-1.2296 6.852-1.5138 10.299-.8784 1.079.1989 3.868 1.1805 4.904 1.7255 4.402 2.3174 8.244 5.9527 11.937 11.2952.279.4031.511.7215.516.7074l8.46 17.043c-.022.0103.047.2672.153.571.65 1.8677 1.354 4.4476 1.752 6.4124.956 4.7207.996 8.86.124 12.686-.191.836-.931 2.94-1.314 3.733-2.104 4.361-5.815 7.695-10.996 9.882-10.77 4.544-27.745 5.648-40.295 2.62-2.245-.542-5.188-1.505-7.014-2.296z" fill="#f22c42"/>
  <path d="m131.866 72.095c1.476 2.9899 5.095 4.2177 8.085 2.7424s4.218-5.0952 2.743-8.0851c-1.476-2.9899-5.095-4.2178-8.085-2.7424-2.99 1.4753-4.218 5.0951-2.743 8.0851z" fill="#d50000"/>
  <path d="m137.87 71.5129c-.988.4877-2.515.7699-3.528.8833-1.169.1308-2.135.3887-2.503-.3559-.382-.7745.39-1.189 1.133-1.9986.59-.6428 1.848-1.7844 2.79-2.2494 2.13-1.0508 2.994-.8928 3.68.4967.685 1.3895.558 2.1731-1.572 3.2239z" fill="#ffc107"/>
  <path d="m141.98 89.5966c1.475 2.9899 5.095 4.2177 8.085 2.7424 2.99-1.4754 4.217-5.0952 2.742-8.0851-1.475-2.99-5.095-4.2178-8.085-2.7424-2.99 1.4753-4.218 5.0951-2.742 8.0851z" fill="#d50000"/>
  <path d="m147.983 89.0145c-.988.4877-2.515.7699-3.528.8833-1.168.1308-2.135.3887-2.502-.3559-.383-.7745.39-1.189 1.133-1.9986.59-.6428 1.847-1.7844 2.789-2.2494 2.13-1.0508 2.994-.8928 3.68.4967s.558 2.1731-1.572 3.2239z" fill="#ffc107"/>
  <path d="m152.093 107.098c1.475 2.99 5.095 4.218 8.085 2.743 2.99-1.476 4.218-5.096 2.742-8.086-1.475-2.9895-5.095-4.2173-8.085-2.7419-2.99 1.4749-4.218 5.0949-2.742 8.0849z" fill="#d50000"/>
  <path d="m158.097 106.516c-.989.488-2.516.77-3.528.883-1.169.131-2.136.389-2.503-.356-.382-.774.39-1.189 1.133-1.998.59-.643 1.847-1.784 2.79-2.25 2.129-1.05 2.994-.892 3.679.497.686 1.39.558 2.173-1.571 3.224z" fill="#ffc107"/>
  <path d="m118.859 89.9867c1.476 2.99 5.096 4.2178 8.086 2.7425 2.99-1.4754 4.217-5.0952 2.742-8.0852-1.475-2.9899-5.095-4.2177-8.085-2.7424-2.99 1.4754-4.218 5.0952-2.743 8.0851z" fill="#d50000"/>
  <path d="m124.863 89.4046c-.988.4878-2.515.77-3.528.8833-1.168.1309-2.135.3887-2.503-.3559-.382-.7745.39-1.1889 1.134-1.9985.59-.6429 1.847-1.7844 2.789-2.2495 2.13-1.0508 2.994-.8928 3.68.4967s.558 2.1731-1.572 3.2239z" fill="#ffc107"/>
  <path d="m130.096 109.433c1.476 2.99 5.096 4.218 8.086 2.742 2.989-1.475 4.217-5.095 2.742-8.085s-5.095-4.2175-8.085-2.742c-2.99 1.475-4.218 5.095-2.743 8.085z" fill="#d50000"/>
  <path d="m136.1 108.851c-.988.488-2.515.77-3.528.883-1.169.131-2.135.389-2.503-.356-.382-.774.39-1.189 1.133-1.998.59-.643 1.848-1.785 2.79-2.25 2.13-1.051 2.994-.893 3.68.497.686 1.389.558 2.173-1.572 3.224z" fill="#ffc107"/>
  <path d="m110.866 107.576c1.475 2.99 5.095 4.217 8.085 2.742s4.217-5.095 2.742-8.085c-1.475-2.9899-5.095-4.2177-8.085-2.7424-2.99 1.4754-4.218 5.0954-2.742 8.0854z" fill="#d50000"/>
  <path d="m116.869 106.994c-.988.487-2.515.77-3.527.883-1.169.131-2.136.389-2.503-.356-.383-.775.39-1.189 1.133-1.999.59-.642 1.847-1.784 2.789-2.249 2.13-1.051 2.994-.893 3.68.497.686 1.389.558 2.173-1.572 3.224z" fill="#ffc107"/>
  <path d="m142.58 66.1972c-.771-1.3184-2.013-2.2957-3.475-2.7348-1.463-.4391-3.038-.3076-4.408.3682-.245.1234-.481.2634-.707.4189 1.366-.6524 2.927-.7681 4.373-.3242 1.447.444 2.675 1.4152 3.439 2.7214.072.1229.14.2483.203.376.644 1.3092.793 2.8073.417 4.2172-.375 1.4099-1.248 2.6362-2.458 3.4522.026-.0111.051-.0223.076-.0337.711-.3508 1.346-.8381 1.869-1.4343.523-.5961.923-1.2894 1.177-2.0401.255-.7508.359-1.5444.307-2.3355s-.259-1.5643-.61-2.2752c-.063-.1278-.131-.2532-.203-.3761zm10.113 17.5016c-.77-1.3184-2.012-2.2957-3.475-2.7348s-3.038-.3076-4.407.3682c-.245.1234-.482.2634-.708.4189 1.366-.6524 2.927-.7681 4.374-.3242 1.447.444 2.674 1.4152 3.439 2.7213.072.123.139.2484.203.3761.644 1.3092.792 2.8073.417 4.2172-.376 1.4099-1.249 2.6362-2.458 3.4521.025-.011.05-.0222.076-.0336.711-.3508 1.345-.8381 1.868-1.4343.523-.5961.923-1.2894 1.178-2.0402.254-.7507.359-1.5443.307-2.3354s-.26-1.5643-.61-2.2753c-.064-.1277-.131-.2531-.204-.376zm10.114 17.5012c-.771-1.318-2.013-2.2953-3.476-2.7344-1.463-.4392-3.037-.3076-4.407.3682-.245.1234-.481.2634-.707.4189 1.365-.6524 2.926-.7681 4.373-.3242 1.447.444 2.674 1.4155 3.439 2.7215.072.123.14.248.203.376.644 1.309.792 2.807.417 4.217s-1.248 2.636-2.458 3.452c.025-.011.051-.022.076-.033.711-.351 1.346-.839 1.868-1.435.523-.596.923-1.289 1.178-2.04s.359-1.544.307-2.335-.259-1.565-.61-2.276c-.063-.127-.131-.253-.203-.376zm-33.234-17.1111c-.771-1.3184-2.012-2.2956-3.475-2.7348-1.463-.4391-3.038-.3075-4.407.3683-.245.1234-.482.2633-.708.4189 1.366-.6525 2.927-.7682 4.374-.3242 1.447.4439 2.674 1.4152 3.439 2.7213.072.1229.139.2484.203.3761.644 1.3092.792 2.8072.416 4.2172-.375 1.4099-1.248 2.6362-2.457 3.4521.025-.011.05-.0223.075-.0337.711-.3507 1.346-.8381 1.869-1.4342.523-.5962.923-1.2894 1.178-2.0402.254-.7508.359-1.5444.307-2.3355s-.26-1.5642-.61-2.2752c-.064-.1277-.131-.2531-.204-.3761zm11.237 19.4461c-.771-1.318-2.012-2.295-3.475-2.735-1.463-.439-3.038-.307-4.407.369-.245.123-.482.263-.708.418 1.366-.652 2.927-.768 4.374-.324 1.446.444 2.674 1.416 3.438 2.722.073.123.14.248.204.376.644 1.309.792 2.807.416 4.217-.375 1.41-1.248 2.636-2.457 3.452.025-.011.05-.022.075-.034.711-.35 1.346-.838 1.869-1.434s.923-1.289 1.177-2.04c.255-.751.36-1.544.308-2.336-.052-.791-.26-1.564-.611-2.275-.063-.127-.131-.253-.203-.376zm-19.23-1.857c-.771-1.318-2.013-2.2957-3.476-2.7349-1.463-.4391-3.038-.3075-4.407.3683-.245.1234-.482.2633-.708.4189 1.366-.6525 2.927-.7682 4.374-.3242 1.447.4439 2.674 1.4149 3.439 2.7209.072.123.14.249.203.376.644 1.31.792 2.808.417 4.218-.376 1.41-1.249 2.636-2.458 3.452.025-.011.05-.022.076-.034.711-.351 1.346-.838 1.868-1.434.523-.596.923-1.29 1.178-2.04.254-.751.359-1.545.307-2.336s-.26-1.564-.61-2.275c-.064-.128-.131-.253-.203-.376z" fill="#fff" opacity=".3"/>
  <path d="m133.99 64.2495c-.024.0101-.047.0203-.07.0306-.711.3509-1.346.8383-1.869 1.4345-.522.5963-.922 1.2896-1.177 2.0404s-.359 1.5444-.307 2.3355.26 1.5642.611 2.2751c.708 1.4357 1.958 2.5311 3.474 3.0454s3.175.4052 4.61-.3031c.244-.1226.478-.2616.702-.4158-1.431.6822-3.074.7734-4.573.254-1.499-.5195-2.733-1.6079-3.435-3.03-.644-1.3081-.793-2.8051-.419-4.2143s1.245-2.6355 2.453-3.4523zm10.113 17.5016c-.023.01-.047.0202-.07.0306-.711.3509-1.346.8383-1.869 1.4345-.522.5962-.922 1.2895-1.177 2.0404-.254.7508-.359 1.5444-.306 2.3355.052.791.259 1.5641.61 2.2751.708 1.4356 1.958 2.5311 3.474 3.0454 1.517.5143 3.175.4052 4.611-.3031.243-.1227.477-.2616.702-.4159-1.432.6822-3.075.7735-4.574.254-1.499-.5194-2.733-1.6079-3.435-3.0299-.644-1.3082-.793-2.8051-.419-4.2143s1.246-2.6355 2.453-3.4523zm10.114 17.5016c-.024.01-.047.0202-.071.0306-.711.3508-1.346.8387-1.868 1.4347-.523.596-.923 1.289-1.177 2.04-.255.751-.359 1.545-.307 2.336s.259 1.564.61 2.275c.709 1.435 1.959 2.531 3.475 3.045s3.174.405 4.61-.303c.243-.123.478-.261.702-.416-1.432.682-3.075.774-4.574.254-1.498-.519-2.732-1.608-3.435-3.03-.644-1.308-.792-2.805-.418-4.214s1.245-2.636 2.453-3.4523zm-33.234-17.1114c-.023.01-.047.0202-.07.0306-.711.3508-1.346.8383-1.869 1.4345-.522.5962-.922 1.2895-1.177 2.0403-.254.7508-.359 1.5444-.306 2.3355.052.7911.259 1.5642.61 2.2751.708 1.4357 1.958 2.5312 3.474 3.0455 1.516.5142 3.175.4052 4.611-.3032.243-.1226.477-.2615.702-.4158-1.432.6822-3.075.7735-4.574.254s-2.733-1.6079-3.435-3.0299c-.644-1.3082-.793-2.8051-.419-4.2143.374-1.4093 1.246-2.6355 2.453-3.4523zm11.237 19.4457c-.023.011-.047.021-.07.031-.711.351-1.346.838-1.869 1.435-.522.596-.922 1.289-1.177 2.04-.254.751-.359 1.544-.307 2.335.053.792.26 1.565.611 2.276.708 1.435 1.958 2.531 3.474 3.045s3.175.405 4.611-.303c.243-.123.477-.262.702-.416-1.432.682-3.075.773-4.574.254s-2.733-1.608-3.435-3.03c-.644-1.308-.793-2.805-.419-4.214s1.245-2.636 2.453-3.453zm-19.231-1.8568c-.023.0101-.047.0203-.07.0306-.711.3512-1.346.8382-1.868 1.4342-.523.597-.923 1.29-1.178 2.041-.254.751-.358 1.544-.306 2.335s.259 1.564.61 2.275c.709 1.436 1.958 2.531 3.474 3.046 1.517.514 3.175.405 4.611-.303.243-.123.477-.262.702-.416-1.432.682-3.075.773-4.574.254-1.498-.52-2.733-1.608-3.435-3.03-.644-1.308-.793-2.805-.419-4.214.374-1.41 1.246-2.636 2.453-3.4528z" fill="#000" opacity=".2"/>
  <path d="m127.039 59.0029c-.16.0867-.346.1822-.485.2613-8.664 5.3198-17.954 15.186-23.51 25.0297-5.6497 10.0099-7.042 18.8921-3.9982 25.5101 1.9852 4.317 5.9222 7.81 11.5452 10.246 1.826.791 4.769 1.754 7.014 2.296 12.551 3.028 29.526 1.925 40.295-2.62 1.093-.461 2.083-1.002 3.044-1.564.014-.01.028-.019.042-.028-.732.409-1.492.798-2.308 1.142-10.77 4.545-27.744 5.649-40.295 2.62-2.245-.541-5.188-1.505-7.014-2.296-5.623-2.435-9.56-5.929-11.5455-10.246-3.0438-6.617-1.6514-15.4997 3.9985-25.5096 5.493-9.7333 14.637-19.481 23.217-24.8415z" fill="#000" opacity=".2"/>
  <path d="m159.721 69.3987c-.005.0143-.237-.3039-.516-.707-3.693-5.3425-7.536-8.9784-11.938-11.2957-1.035-.545-3.824-1.5265-4.903-1.7254-3.446-.6354-6.779-.3516-10.299.8779-1.126.3934-3.863 1.7037-5.083 2.4335-.141.0849-.286.1949-.428.2822 1.316-.7473 3.684-1.8998 4.733-2.2662.88-.3074 1.748-.5552 2.61-.7448.861-.1896 1.715-.3206 2.567-.3933.852-.0726 1.701-.0872 2.553-.0437.852.0434 1.708.145 2.569.3039.54.0994 1.507.3946 2.469.7329.961.3385 1.917.72 2.434.9925 1.101.5793 2.167 1.241 3.204 1.9911 1.037.7502 2.045 1.5893 3.031 2.5224.986.9332 1.95 1.961 2.899 3.0894.948 1.1283 1.881 2.3572 2.804 3.6928.279.4031.511.721.516.707l8.46 17.0425c-.021.0103.047.2676.153.5713.65 1.8678 1.354 4.448 1.752 6.4128.239 1.1801.421 2.3234.545 3.4351.125 1.1116.192 2.1916.202 3.2431.011 1.052-.036 2.075-.14 3.075s-.265 1.976-.483 2.932c-.191.836-.931 2.941-1.313 3.733-.526 1.09-1.153 2.117-1.878 3.077s-1.548 1.854-2.467 2.68c-.854.768-1.811 1.463-2.83 2.112 3.594-2.104 6.292-4.877 7.953-8.318.382-.793 1.122-2.897 1.313-3.733.872-3.826.832-7.965-.124-12.6857-.398-1.9648-1.103-4.545-1.752-6.4128-.106-.3037-.174-.561-.153-.5713z" fill="#fff" opacity=".3"/>
  <path d="m102.398 102.289c-2.9136 0-5.7982.588-8.4896 1.73-2.6915 1.142-5.137 2.816-7.1969 4.927s-3.6939 4.616-4.8087 7.374-1.6885 5.713-1.6885 8.698c.0082.25.0204.5.0367.75h94.296c.547-1.646.827-3.359.833-5.082 0-4.593-1.949-8.997-5.419-12.245-3.471-3.247-8.177-5.072-13.085-5.072-4.412.005-8.677 1.486-12.025 4.175-3.349 2.688-5.561 6.408-6.237 10.489-3.173-2.03-6.894-3.114-10.701-3.118-1.805.001-3.602.246-5.337.728-1.757-3.976-4.594-7.35-8.173-9.718-3.578-2.368-7.746-3.63-12.005-3.636z" fill="#fff"/>
  <circle cx="132.297" cy="178.391" fill="#f22c42" r="22.2656"/>
  <path d="m141.679 156.545c-3.583 7.669-5.79 11.692-9.802 18.765l4.761 10.082c6.782-11.05 10.469-17.302 16.244-28.847z" fill="#fff"/>
  <path d="m110.031 156.405c5.788 11.266 9.43 17.581 16.524 28.847l5.602-9.662c-4.854-7.421-6.989-11.627-10.083-19.185z" fill="#fff"/>
  <g filter="url(#filter3_f)">
    <path d="m137.058 165.927-10.503 19.045v18.485h10.503z" fill="#000" fill-opacity=".2"/>
  </g>
  <path d="m137.058 165.927-10.503 19.045v18.485h10.503z" fill="#fff"/>
  <path d="m54.8054 17.1745c-35.2967 0-39.0949 3.626-38.9219 38.9941v2c-.173-35.3681 3.6252-38.9941 38.9219-38.9941h146.1566c35.296 0 38.922 3.6256 38.922 38.9941v-2c0-35.3685-3.626-38.9941-38.922-38.9941z" fill="#fff" opacity=".3"/>
  <path d="m54.8108 241.174c-35.2967 0-39.0949-3.626-38.9219-38.994v-2c-.173 35.368 3.6252 38.994 38.9219 38.994h146.1562c35.297 0 38.922-3.625 38.922-38.994v2c0 35.369-3.625 38.994-38.922 38.994z" fill="#000" opacity=".2"/>
</svg>
