<svg fill="none" height="16" viewBox="0 0 16 16" width="16" xmlns="http://www.w3.org/2000/svg">
  <path clip-rule="evenodd" d="m4.14002.23c.376-.166.818-.23 1.36-.23h4.99998c.542 0 .984.064 1.359.231.3628.160728.6589.441948.838.796.3091.6172.3066 1.32943.3036 2.20502-.0003.08767-.0006.17697-.0006.26798v9c0 .091.0003.1803.0006.268.003.8757.0055 1.5889-.3036 2.207-.169.339-.462.628-.837.795-.376.166-.818.23-1.36.23h-4.99998c-.542 0-.984-.064-1.359-.23-.376-.167-.668-.455-.838-.795-.30906-.6172-.30661-1.3311-.3036-2.207.0003-.0877.0006-.177.0006-.268v-9c0-.09102-.0003-.18032-.0006-.26798-.00301-.87544-.00545-1.58691.3036-2.20502.17872-.354257.47442-.635829.837-.797zm7.78998 1.77h-7.85998c-.05.373-.07.87-.07 1.5v4 1.45775h7.99998c.0318-.23803.0232-.50836.0126-.83587-.006-.18709-.0126-.39284-.0126-.62188v-4c0-.63-.02-1.127-.07-1.5zm-2.93233 10.5117c0 .551-.44666.9977-.99764.9977-.55099 0-.99765-.4467-.99765-.9977 0-.5509.44666-.9976.99765-.9976.55098 0 .99764.4467.99764.9976zm1.50003 0c0 1.3795-1.11826 2.4977-2.49767 2.4977-1.37942 0-2.49765-1.1182-2.49765-2.4977 0-1.3794 1.11823-2.4976 2.49765-2.4976 1.37941 0 2.49767 1.1182 2.49767 2.4976z" fill="#888" fill-rule="evenodd"/>
</svg>
