<svg fill="none" height="16" viewBox="0 0 16 16" width="16" xmlns="http://www.w3.org/2000/svg" xmlns:xlink="http://www.w3.org/1999/xlink">
  <clipPath id="clip0">
    <path d="m0 0h16v16h-16z"/>
  </clipPath>
  <g clip-path="url(#clip0)" fill="#808080">
    <path clip-rule="evenodd" d="m10.6392 3.3125h-5.27842c-.24162 0-.4375.19588-.4375.4375v3.72633c1.4146.98954 2.33321 1.33226 3.11732 1.33226.77689 0 1.67057-.33708 3.0361-1.32038v-3.73821c0-.24162-.1959-.4375-.4375-.4375zm1.75 4.83384v-4.39634c0-.9665-.7835-1.75-1.75-1.75h-5.27842c-.9665 0-1.75.7835-1.75 1.75v4.39634c3.52734 2.63296 5.35937 2.63296 8.77842 0z" fill-rule="evenodd"/>
    <path clip-rule="evenodd" d="m3.61078 9.1875v5.0625c0 .9665.7835 1.75 1.75 1.75h5.27842c.9665 0 1.75-.7835 1.75-1.75v-3.9219-.40622-.73438c-3.41053 2.6185-5.26827 2.6054-8.77842 0z" fill-rule="evenodd"/>
    <path d="m10.6875.6c0-.331371.2686-.6.6-.6h.5017c.3313 0 .6.268629.6.6v3.61875l-.6946-1.23437h-1.0071z"/>
  </g>
</svg>
