<svg fill="none" height="32" viewBox="0 0 32 32" width="32" xmlns="http://www.w3.org/2000/svg" xmlns:xlink="http://www.w3.org/1999/xlink">
  <linearGradient id="lg1">
    <stop offset="0" stop-color="#0fe4f5"/>
    <stop offset="1" stop-color="#eb36ae"/>
  </linearGradient>
  <linearGradient id="paint0_linear" gradientUnits="userSpaceOnUse" x1="16.0166" x2="16.0166" xlink:href="#lg1" y1="2.24438" y2="31.2441"/>
  <linearGradient id="paint1_linear" gradientUnits="userSpaceOnUse" x1="31.5333" x2="9.24974" y1="4.69584" y2="20.1956">
    <stop offset="0" stop-color="#f0ea4d"/>
    <stop offset="1" stop-color="#fc429d"/>
  </linearGradient>
  <linearGradient id="paint2_linear" gradientUnits="userSpaceOnUse" x1="-.000009" x2="32" y1="10.2445" y2="30.2445">
    <stop offset="0" stop-color="#2a2139"/>
    <stop offset="1" stop-color="#413260"/>
  </linearGradient>
  <linearGradient id="paint3_linear" gradientUnits="userSpaceOnUse" x1="19.0168" x2="19.0168" xlink:href="#lg1" y1="17.5571" y2="19.5571"/>
  <linearGradient id="paint4_linear" gradientUnits="userSpaceOnUse" x1="16.0168" x2="16.0168" xlink:href="#lg1" y1="15.5571" y2="27.5571"/>
  <linearGradient id="paint5_linear" gradientUnits="userSpaceOnUse" x1="15.5168" x2="15.5168" xlink:href="#lg1" y1="19.7446" y2="24.5571"/>
  <clipPath id="clip0">
    <path d="m0 0h32v32h-32z"/>
  </clipPath>
  <g clip-path="url(#clip0)">
    <path d="m7.0332 2.24442c-1.52703 0-2.70159.05707-3.66797.25398-.9705.19767-1.78127.56609-2.34375 1.21871-.56001.64977-.79018 1.46716-.90039 2.35943-.1100798.8911-.11277013 1.91074-.12109 3.16003v.00207.00369 15.00397.0038.0019c.0165997 2.4911-.0831001 4.163.8418 5.4492.47631.6625 1.20712 1.0724 2.0625 1.2814.84594.2067 1.84685.2615 3.1289.2615h19c1.527 0 2.7019-.0571 3.668-.254.9699-.1977 1.779-.5645 2.3398-1.2187.5583-.6513.7856-1.4702.8906-2.3633.1049-.8916.1016-1.9146.1016-3.1642v-12.9999c0-1.24949.004-2.27219-.1016-3.16408-.105-.89303-.3324-1.712-.8906-2.36325-.5608-.65423-1.3699-1.02122-2.3398-1.21881-.9661-.19692-2.141-.25433-3.668-.25433h-10.6055l-2.1425-1.99911h-.3946c-2.06388-.00008-3.91196 0-4.3574 0z" fill="url(#paint0_linear)" opacity=".1"/>
    <path d="m7.0332 1.74441c-1.51389 0-2.66222.05974-3.56836.24418-.90613.18444-1.59572.51085-2.06445 1.05469-.46873.54383-.67885 1.24885-.7832 2.09369-.10436.84483-.10887 1.85361-.11719 3.1035v.00208 15.00385.002c.016702 2.4998-.038 4.0689.74805 5.1622.39303.5466.99944.8963 1.77539 1.0858.77595.1897 1.7431.248 3.00976.248h19c1.5139 0 2.6627-.0598 3.5684-.2442s1.5936-.51 2.0605-1.0547.674-1.2506.7734-2.0956c.0995-.8451.0978-1.8555.0978-3.1055v-13.0001c0-1.24999.0019-2.26028-.0978-3.10534-.0994-.8451-.3065-1.5511-.7734-2.09577-.4669-.5447-1.1548-.87017-2.0605-1.05468-.9057-.18444-2.0545-.24418-3.5684-.24418h-10.8027l-2.1426-2.00003h-.1973c-2.30068-.00008-4.8574 0-4.8574 0z" fill="url(#paint1_linear)"/>
    <path d="m16.1426 10.2445-2.1426 2h-7.50001c-5.534598 0-5.958888.8928-5.992188 4.9492-.006999 3.0683.0131 6.1362.0879 9.2031.0398 1.3992.901558 2.8501 2.374998 3.1036 1.91455.3789 3.8939.1375 5.834.2304 6.3176-.0151 12.6404.0893 18.9551-.1208 1.4827.0378 3.1341-.7345 3.4961-2.2775.4009-1.6883.1498-3.461.2441-5.1815-.0156-2.6055.0009-5.212-.004-7.8184-.1288-3.3351-.8672-4.0879-5.996-4.0879 0 0-7.0567-.0001-9.3574 0z" fill="url(#paint2_linear)"/>
    <path d="m16.1426 10.2446-2.1426 2h-7.5c-6 0-6 1-6 6v1c0-5 0-6.0001 6-6.0001h7.5l2.1426-1.9999c2.3007-.0001 9.3577 0 9.3577 0 6 0 5.9999 1 6.0332 5.9999v-1c-.0332-5-.0331-5.9999-6.0332-5.9999 0 0-7.057-.0002-9.3577 0z" fill="#fff" opacity=".3"/>
    <path d="m7.0332 1.74441c-1.51389 0-2.66222.05974-3.56836.24418-.90613.18444-1.59572.51085-2.06445 1.05469-.46873.54383-.67885 1.24885-.7832 2.09369-.10436.84483-.10887 1.85361-.11719 3.1035v.00208 15.00385.002c.016702 2.4998-.038 4.0689.74805 5.1622.39303.5466.99944.8963 1.77539 1.0858.77595.1897 1.7431.248 3.00976.248h19c1.5139 0 2.6627-.0598 3.5684-.2442s1.5936-.51 2.0605-1.0547.674-1.2506.7734-2.0956c.0995-.8451.0978-1.8555.0978-3.1055v-13.0001c0-1.24999.0019-2.26028-.0978-3.10534-.0994-.8451-.3065-1.5511-.7734-2.09577-.4669-.5447-1.1548-.87017-2.0605-1.05468-.9057-.18444-2.0545-.24418-3.5684-.24418h-10.8027l-2.1426-2.00003h-.1973c-2.30068-.00008-4.8574 0-4.8574 0z" opacity=".4" stroke="#000" stroke-width=".999999"/>
    <path d="m16.1426 9.24444-2.1426 2.00006h-7.5c-6 0-6 1-6 5.9999v1.0001c0-5.0001 0-6 6-6h7.5l2.1426-2c2.3007-.0002 9.3577 0 9.3577 0 6 0 5.9999.9999 6.0332 5.9999v-1c-.0332-5-.0331-5.99996-6.0332-5.99996 0 0-7.057-.00012-9.3577 0z" fill="#472806" opacity=".2"/>
    <path d="m7.0332 2.24442c-6 0-5.9999 1-6.0332 5.99998v1.00001c.0333-5.00001.0332-5.99998 6.0332-5.99998 0 0 2.55674-.00011 4.8574 0l2.1426 1.99992h11c6 0 6 1.00012 6 6.00005v-1c0-4.99999 0-5.99995-6-5.99995h-11l-2.1426-2.00003c-2.30066-.00008-4.8574 0-4.8574 0z" fill="#e3d5c8" opacity=".4"/>
    <path d="m31 20.2444-9 9h4c5 0 4.9999-1 5.0332-6z" fill="#fff" opacity=".05"/>
    <path d="m19.0168 17.5571c-.5523 0-1 .4477-1 1s.4477 1 1 1 1-.4477 1-1-.4477-1-1-1z" fill="url(#paint3_linear)"/>
    <path d="m10.0168 15.5571v12h12v-12zm1 1h10v9h-10z" fill="url(#paint4_linear)"/>
    <path d="m14.6418 19.7446-2.625 4.8125h2.3785 4.6215l-2.1875-3.9375-.875 1.3125z" fill="url(#paint5_linear)"/>
  </g>
</svg>
