<svg width="32" height="33" viewBox="0 0 32 33" fill="none" xmlns="http://www.w3.org/2000/svg">
    <g id="folder-yaru-javascript" clip-path="url(#clip0)">
        <path id="ombra secondaria" opacity="0.1" d="M7.0332 2.56955C5.5062 2.56955 4.3316 2.62662 3.3652 2.82354C2.3947 3.02121 1.584 3.38963 1.0215 4.04224C0.4615 4.69202 0.2313 5.50929 0.1211 6.40156C0.0110004 7.29266 0.00830032 8.31242 4.76837e-07 9.5617V9.56378V9.56747V24.5714V24.5752V24.5772C0.0170008 27.0682 -0.0829995 28.7401 0.8418 30.0264C1.3181 30.6888 2.0489 31.0987 2.9043 31.3076C3.7502 31.5143 4.7512 31.5692 6.0332 31.5692H25.0332C26.5602 31.5692 27.7351 31.5121 28.7012 31.3152C29.6711 31.1175 30.4802 30.7507 31.041 30.0965C31.5993 29.4452 31.8266 28.6262 31.9316 27.7331C32.0365 26.8415 32.0332 25.8186 32.0332 24.5691V11.5691C32.0332 10.3196 32.0332 9.29695 31.9316 8.40505C31.8266 7.51203 31.5993 6.69306 31.041 6.04181C30.4802 5.38757 29.6711 5.02058 28.7012 4.82299C27.7351 4.62608 26.5602 4.56866 25.0332 4.56866H14.4277L12.2852 2.56955H11.8906C9.8267 2.56948 7.9786 2.56955 7.5332 2.56955H7.0332Z" fill="#A6DBD1"/>
        <path id="secondario" d="M7.0332 2.06955C5.5193 2.06955 4.371 2.12928 3.4648 2.31372C2.5587 2.49817 1.8691 2.82458 1.4004 3.36841C0.9317 3.91225 0.7215 4.61726 0.6172 5.4621C0.5128 6.30694 0.5083 7.31572 0.5 8.56561V8.56769V23.5715V23.5736C0.517 26.0733 0.462 27.6424 1.2481 28.7356C1.6411 29.2822 2.2475 29.632 3.0234 29.8215C3.7994 30.0113 4.7665 30.0695 6.0332 30.0695H25.0332C26.5471 30.0695 27.6959 30.0098 28.6016 29.8253C29.5073 29.6409 30.1952 29.3153 30.6621 28.7706C31.129 28.2259 31.3361 27.5201 31.4356 26.675C31.5346 25.8299 31.5336 24.8195 31.5336 23.5695V10.5694C31.5336 9.31944 31.5336 8.30916 31.4356 7.46409C31.3356 6.61899 31.129 5.913 30.6621 5.36833C30.1952 4.82362 29.5073 4.49816 28.6016 4.31364C27.6959 4.1292 26.5471 4.06946 25.0332 4.06946H14.2305L12.0879 2.06943H11.8906C9.5899 2.06935 7.0332 2.06943 7.0332 2.06943L7.0332 2.06955Z" fill="url(#paint0_linear)"/>
        <path id="primario" d="M16.1426 6.5694L14 8.56943H6.5C0.5329 8.56943 0.5002 9.56613 0.5 14.4952V14.5693C0.5 17.027 0.519 19.4828 0.510001 21.9287C0.509801 21.94 0.509801 21.9476 0.510001 21.9589C0.564001 23.7231 0.409401 25.596 0.724801 27.5292C0.724801 27.5406 0.734801 27.5481 0.734801 27.5595C1.0019 28.8962 2.1638 29.753 3.3949 29.9091C5.207 30.1786 6.9517 30.0142 8.5766 30.0713C8.58662 30.0714 8.59561 30.0714 8.60559 30.0713C15.0998 30.0637 21.6141 30.0977 28.1212 29.9443C28.1572 29.9439 28.1932 29.9412 28.2286 29.9367C28.8018 29.8478 29.4349 29.6751 30.0118 29.3175C30.5887 28.96 31.1203 28.3657 31.2872 27.5675C31.2872 27.5486 31.2972 27.5275 31.2972 27.5071C31.5989 25.2261 31.4491 22.9885 31.4983 20.843C31.4984 20.8354 31.4984 20.8278 31.4983 20.8203C31.4873 17.3199 31.5183 13.8053 31.4713 10.2851C31.294 7.28306 30.4226 6.57032 25.5006 6.57032C25.5006 6.57032 18.4439 6.57024 16.1432 6.57032L16.1426 6.5694Z" fill="url(#paint1_linear)"/>
        <path id="contorno superiore del primario" opacity="0.3" d="M16.1426 6.56945L14 8.56948H6.5C0.5 8.56948 0.5 9.56948 0.5 14.5695V15.5695C0.5 10.5695 0.5 9.56949 6.5 9.56949H14L16.1426 7.56946C18.4433 7.56935 25.5004 7.56946 25.5004 7.56946C31.5004 7.56946 31.5003 8.56943 31.5336 13.5694V12.5695C31.5006 7.56953 31.5006 6.56945 25.5004 6.56945C25.5004 6.56945 18.4433 6.56933 16.1426 6.56945V6.56945Z" fill="white"/>
        <path id="contorno" opacity="0.4" d="M7.0332 2.06955C5.5193 2.06955 4.371 2.12928 3.4648 2.31372C2.5587 2.49817 1.8691 2.82458 1.4004 3.36841C0.9317 3.91225 0.7215 4.61726 0.6172 5.4621C0.5128 6.30694 0.5083 7.31572 0.5 8.56561V8.56769V23.5715V23.5736C0.517 26.0733 0.462 27.6424 1.2481 28.7356C1.6411 29.2822 2.2475 29.632 3.0234 29.8215C3.7994 30.0113 4.7665 30.0695 6.0332 30.0695H25.0332C26.5471 30.0695 27.6959 30.0098 28.6016 29.8253C29.5073 29.6409 30.1952 29.3153 30.6621 28.7706C31.129 28.2259 31.3361 27.5201 31.4356 26.675C31.5346 25.8299 31.5336 24.8195 31.5336 23.5695V10.5694C31.5336 9.31944 31.5336 8.30916 31.4356 7.46409C31.3356 6.61899 31.129 5.913 30.6621 5.36833C30.1952 4.82362 29.5073 4.49816 28.6016 4.31364C27.6959 4.1292 26.5471 4.06946 25.0332 4.06946H14.2305L12.0879 2.06943H11.8906C9.5899 2.06935 7.0332 2.06943 7.0332 2.06943L7.0332 2.06955Z" stroke="black" stroke-width="0.999999"/>
        <path id="ombra" opacity="0.2" d="M16.1426 5.56943L14 7.56946H6.5C0.5 7.56946 0.5 8.56943 0.5 13.5694V14.5695C0.5 9.56948 0.5 8.56948 6.5 8.56948H14L16.1426 6.56945C18.4433 6.56933 25.5004 6.56945 25.5004 6.56945C31.5004 6.56945 31.5003 7.56953 31.5336 12.5695V11.5694C31.5006 6.56943 31.5006 5.56943 25.5004 5.56943C25.5004 5.56943 18.4433 5.56935 16.1426 5.56943V5.56943Z" fill="#083A31"/>
        <path id="contorno superiore del secondario" opacity="0.4" d="M7.0332 2.56955C1.0332 2.56955 1.0333 3.56956 1 8.56953V9.56954C1.033 4.56953 1.033 3.56957 7.0332 3.56957C7.0332 3.56957 9.5899 3.56945 11.8906 3.56957L14.0332 5.56948H25.0332C31.0332 5.56948 31.0332 6.56949 31.0332 11.5695V10.5696C31.0332 5.56955 31.0332 4.56958 25.0332 4.56958H14.0332L11.8906 2.56955C9.5899 2.56948 7.0332 2.56955 7.0332 2.56955V2.56955Z" fill="#83FCE4"/>
        <path id="effetto piega" opacity="0.05" d="M31 20.5694L22 29.5694H26C31 29.5694 30.9999 28.5695 31.0332 23.5694L31 20.5694Z" fill="white"/>
        <path id="javascript" d="M9.49919 12.514H22.4992V25.514H9.49919V12.514ZM21.4339 22.4135C21.3393 21.8205 20.9529 21.3222 19.8075 20.8571C19.4088 20.67 18.9661 20.5408 18.8332 20.2403C18.7841 20.0612 18.7769 19.9644 18.8086 19.8583C18.8902 19.5087 19.3048 19.404 19.6298 19.5008C19.8414 19.5658 20.0364 19.7283 20.1585 19.989C20.7182 19.6228 20.7182 19.6228 21.1089 19.3794C20.9623 19.1526 20.8894 19.0537 20.7919 18.9562C20.4502 18.5749 19.9952 18.3799 19.2564 18.3965L18.8751 18.4449C18.5089 18.5344 18.1594 18.7301 17.9485 18.9894C17.331 19.6885 17.5094 20.9069 18.2569 21.4118C18.9957 21.9643 20.0776 22.0856 20.2155 22.6056C20.3455 23.2397 19.7446 23.4426 19.1502 23.3697C18.7119 23.2715 18.4677 23.0526 18.1998 22.646L17.2089 23.2151C17.3223 23.4744 17.4523 23.5885 17.6473 23.816C18.5898 24.7665 20.9464 24.7181 21.3689 23.2715C21.3841 23.2231 21.4989 22.8901 21.4094 22.3781L21.4339 22.4135V22.4135ZM16.5683 18.4889H15.3506C15.3506 19.5383 15.3456 20.5819 15.3456 21.6335C15.3456 22.3008 15.3795 22.9133 15.2705 23.1018C15.0921 23.4751 14.6306 23.4275 14.4219 23.361C14.2074 23.2556 14.0983 23.109 13.9719 22.8981C13.938 22.8418 13.9127 22.7926 13.9033 22.7926L12.9153 23.4022C13.0807 23.7438 13.3219 24.037 13.6332 24.2234C14.0961 24.5 14.718 24.5895 15.3694 24.4436C15.7941 24.3209 16.1602 24.0688 16.3502 23.6788C16.6275 23.1754 16.5683 22.5572 16.5661 21.8668C16.5719 20.7538 16.5661 19.6401 16.5661 18.5193L16.5683 18.4889Z" fill="#A6DBD1"/>
    </g>
    <defs>
        <linearGradient id="paint0_linear" x1="31.5336" y1="5.02098" x2="9.25" y2="20.521" gradientUnits="userSpaceOnUse">
            <stop stop-color="#0C5A4A"/>
            <stop offset="1" stop-color="#2F3F49"/>
        </linearGradient>
        <linearGradient id="paint1_linear" x1="0.999998" y1="6.56937" x2="32.0001" y2="30.5694" gradientUnits="userSpaceOnUse">
            <stop stop-color="#12816B"/>
            <stop offset="1" stop-color="		#16A085"/>
        </linearGradient>
        <clipPath id="clip0">
            <rect width="32" height="32" fill="white" transform="translate(0 0.513977)"/>
        </clipPath>
    </defs>
</svg>
