<svg width="32" height="32" viewBox="0 0 32 32" fill="none" xmlns="http://www.w3.org/2000/svg">
    <g id="folder-yaru-templates" clip-path="url(#clip0)">
        <path id="ombra secondaria" opacity="0.1" d="M7.0332 2.05558C5.5062 2.05558 4.3316 2.11265 3.3652 2.30956C2.3947 2.50723 1.584 2.87565 1.0215 3.52826C0.4615 4.17804 0.2313 4.99531 0.1211 5.88758C0.0109999 6.77868 0.00829984 7.79844 0 9.04773V9.0498V9.05349V24.0574V24.0612V24.0632C0.0170003 26.5543 -0.083 28.2262 0.8418 29.5124C1.3181 30.1748 2.0489 30.5847 2.9043 30.7936C3.7502 31.0004 4.7512 31.0552 6.0332 31.0552H25.0332C26.5602 31.0552 27.7351 30.9981 28.7012 30.8012C29.6711 30.6036 30.4802 30.2368 31.041 29.5825C31.5993 28.9312 31.8266 28.1122 31.9316 27.2192C32.0365 26.3275 32.0332 25.3047 32.0332 24.0551V11.0551C32.0332 9.80566 32.0332 8.78297 31.9316 7.89108C31.8266 6.99805 31.5993 6.17908 31.041 5.52783C30.4802 4.8736 29.6711 4.50661 28.7012 4.30901C27.7351 4.1121 26.5602 4.05468 25.0332 4.05468H14.4277L12.2852 2.05558H11.8906C9.8267 2.0555 7.9786 2.05558 7.5332 2.05558H7.0332Z" fill="#EDD3D0"/>
        <path id="secondario" d="M7.0332 1.55557C5.5193 1.55557 4.371 1.61531 3.4648 1.79975C2.5587 1.98419 1.8691 2.3106 1.4004 2.85444C0.9317 3.39827 0.7215 4.10329 0.6172 4.94812C0.5128 5.79296 0.5083 6.80174 0.5 8.05163V8.05371V23.0575V23.0596C0.517 25.5594 0.462 27.1284 1.2481 28.2216C1.6411 28.7682 2.2475 29.118 3.0234 29.3076C3.7994 29.4973 4.7665 29.5555 6.0332 29.5555H25.0332C26.5471 29.5555 27.6959 29.4958 28.6016 29.3114C29.5073 29.1269 30.1952 28.8013 30.6621 28.2567C31.129 27.712 31.3361 27.0061 31.4356 26.161C31.5346 25.316 31.5336 24.3056 31.5336 23.0556V10.0555C31.5336 8.80547 31.5336 7.79518 31.4356 6.95012C31.3356 6.10501 31.129 5.39902 30.6621 4.85435C30.1952 4.30965 29.5073 3.98418 28.6016 3.79966C27.6959 3.61522 26.5471 3.55548 25.0332 3.55548H14.2305L12.0879 1.55545H11.8906C9.5899 1.55538 7.0332 1.55545 7.0332 1.55545L7.0332 1.55557Z" fill="url(#paint0_linear)"/>
        <path id="primario" d="M16.1426 6.05542L14 8.05545H6.5C0.5329 8.05545 0.5002 9.05215 0.5 13.9813V14.0553C0.5 16.513 0.519 18.9688 0.510001 21.4147C0.509801 21.4261 0.509801 21.4336 0.510001 21.4449C0.564001 23.2091 0.409401 25.0821 0.724801 27.0153C0.724801 27.0266 0.734801 27.0341 0.734801 27.0455C1.0019 28.3822 2.1638 29.2391 3.3949 29.3951C5.207 29.6646 6.9517 29.5002 8.5766 29.5573C8.58662 29.5575 8.59561 29.5575 8.60559 29.5573C15.0998 29.5497 21.6141 29.5837 28.1212 29.4303C28.1572 29.43 28.1932 29.4273 28.2286 29.4227C28.8018 29.3339 29.4349 29.1611 30.0118 28.8035C30.5887 28.446 31.1203 27.8517 31.2872 27.0536C31.2872 27.0347 31.2972 27.0135 31.2972 26.9931C31.5989 24.7121 31.4491 22.4745 31.4983 20.329C31.4984 20.3214 31.4984 20.3138 31.4983 20.3063C31.4873 16.8059 31.5183 13.2913 31.4713 9.77116C31.294 6.76908 30.4226 6.05634 25.5006 6.05634C25.5006 6.05634 18.4439 6.05627 16.1432 6.05634L16.1426 6.05542Z" fill="url(#paint1_linear)"/>
        <path id="contorno superiore del primario" opacity="0.3" d="M16.1426 6.05547L14 8.0555H6.5C0.5 8.0555 0.5 9.0555 0.5 14.0555V15.0555C0.5 10.0555 0.5 9.05552 6.5 9.05552H14L16.1426 7.05549C18.4433 7.05537 25.5004 7.05549 25.5004 7.05549C31.5004 7.05549 31.5003 8.05545 31.5336 13.0555V12.0556C31.5006 7.05555 31.5006 6.05547 25.5004 6.05547C25.5004 6.05547 18.4433 6.05536 16.1426 6.05547V6.05547Z" fill="white"/>
        <path id="contorno" opacity="0.4" d="M7.0332 1.55557C5.5193 1.55557 4.371 1.61531 3.4648 1.79975C2.5587 1.98419 1.8691 2.3106 1.4004 2.85444C0.9317 3.39827 0.7215 4.10329 0.6172 4.94812C0.5128 5.79296 0.5083 6.80174 0.5 8.05163V8.05371V23.0575V23.0596C0.517 25.5594 0.462 27.1284 1.2481 28.2216C1.6411 28.7682 2.2475 29.118 3.0234 29.3076C3.7994 29.4973 4.7665 29.5555 6.0332 29.5555H25.0332C26.5471 29.5555 27.6959 29.4958 28.6016 29.3114C29.5073 29.1269 30.1952 28.8013 30.6621 28.2567C31.129 27.712 31.3361 27.0061 31.4356 26.161C31.5346 25.316 31.5336 24.3056 31.5336 23.0556V10.0555C31.5336 8.80547 31.5336 7.79518 31.4356 6.95012C31.3356 6.10501 31.129 5.39902 30.6621 4.85435C30.1952 4.30965 29.5073 3.98418 28.6016 3.79966C27.6959 3.61522 26.5471 3.55548 25.0332 3.55548H14.2305L12.0879 1.55545H11.8906C9.5899 1.55538 7.0332 1.55545 7.0332 1.55545L7.0332 1.55557Z" stroke="black" stroke-width="0.999999"/>
        <path id="ombra" opacity="0.2" d="M16.1426 5.05545L14 7.05548H6.5C0.5 7.05548 0.5 8.05545 0.5 13.0555V14.0555C0.5 9.0555 0.5 8.0555 6.5 8.0555H14L16.1426 6.05547C18.4433 6.05536 25.5004 6.05547 25.5004 6.05547C31.5004 6.05547 31.5003 7.05555 31.5336 12.0556V11.0554C31.5006 6.05546 31.5006 5.05545 25.5004 5.05545C25.5004 5.05545 18.4433 5.05538 16.1426 5.05545V5.05545Z" fill="#470d06"/>
        <path id="contorno superiore del secondario" opacity="0.4" d="M7.0332 2.05558C1.0332 2.05558 1.0333 3.05558 1 8.05555V9.05557C1.033 4.05556 1.033 3.05559 7.0332 3.05559C7.0332 3.05559 9.5899 3.05548 11.8906 3.05559L14.0332 5.05551H25.0332C31.0332 5.05551 31.0332 6.05551 31.0332 11.0555V10.0556C31.0332 5.05557 31.0332 4.05561 25.0332 4.05561H14.0332L11.8906 2.05558C9.5899 2.0555 7.0332 2.05558 7.0332 2.05558V2.05558Z" fill="#EBBAB5"/>
        <path id="effetto piega" opacity="0.05" d="M31 20.0554L22 29.0554H26C31 29.0554 30.9999 28.0555 31.0332 23.0555L31 20.0554Z" fill="white"/>
        <path id="modello" fill-rule="evenodd" clip-rule="evenodd" d="M18.3283 23.9207L18.7172 24.9195L19.1033 23.9207C19.518 22.8541 19.8186 21.817 20.019 21.0326C20.2193 20.2482 20.3072 19.7873 20.33 19.6551L20.3408 19.5937V13.0027C20.3408 11.9194 19.5283 11.9195 19.5283 11.9195H17.9033C17.0908 11.9195 17.0908 13.0027 17.0908 13.0027V19.5937L17.1017 19.6551C17.1249 19.7904 17.2124 20.2483 17.4127 21.0326C17.613 21.8169 17.9131 22.8534 18.3283 23.9207ZM18.8854 21.6229H18.5474H18.5472C18.5271 21.5624 18.5067 21.5013 18.4862 21.4402C18.3912 21.1564 18.2962 20.8726 18.2409 20.656C18.0578 19.9398 18.1575 19.4946 18.1575 19.5028H19.2408C19.2408 19.5028 19.3745 19.9396 19.1917 20.656C19.1362 20.873 19.0411 21.1571 18.9461 21.4411C18.9257 21.5019 18.9054 21.5627 18.8854 21.6229ZM19.2408 15.1695H18.1575L18.1575 13.0028H19.2408V15.1695ZM11.6575 12.4612V11.9195H16.0088V14.0862V15.1695V23.8362H11.6575V12.4612ZM14.9255 13.0028H12.7409V22.7528H14.9255V21.6695H13.8422V20.5861H14.9255V19.5028H13.8422V18.4194H14.9255V17.3361H13.8422V16.2529H14.9255V15.1695H13.8422V14.0862H14.9255V13.0028Z" fill="#EDD3D0"/>
    </g>
    <defs>
        <linearGradient id="paint0_linear" x1="31.5336" y1="4.507" x2="9.25" y2="20.007" gradientUnits="userSpaceOnUse">
            <stop stop-color="#AD4B41"/>
            <stop offset="1" stop-color="#A13037"/>
        </linearGradient>
        <linearGradient id="paint1_linear" x1="0.999998" y1="6.05539" x2="32.0001" y2="30.0554" gradientUnits="userSpaceOnUse">
            <stop stop-color="#D3918A"/>
            <stop offset="1" stop-color="	#C2655B"/>
        </linearGradient>
        <clipPath id="clip0">
            <rect width="32" height="32" fill="white"/>
        </clipPath>
    </defs>
</svg>
