<svg fill="none" height="33" viewBox="0 0 32 33" width="32" xmlns="http://www.w3.org/2000/svg" xmlns:xlink="http://www.w3.org/1999/xlink">
  <linearGradient id="paint0_linear" gradientUnits="userSpaceOnUse" x1="0" x2="0" y1="30.1638" y2="31.5529">
    <stop offset="0" stop-color="#8a826a"/>
    <stop offset="1" stop-color="#a69f8a"/>
  </linearGradient>
  <linearGradient id="lg1">
    <stop offset="0" stop-color="#746c58"/>
    <stop offset="1" stop-color="#8a836a"/>
  </linearGradient>
  <linearGradient id="paint1_linear" gradientUnits="userSpaceOnUse" x1="15.2808" x2="15.2808" xlink:href="#lg1" y1="26.6909" y2="30.8583"/>
  <linearGradient id="paint2_linear" gradientUnits="userSpaceOnUse" x1="13.197" x2="13.197" xlink:href="#lg1" y1="29.4692" y2="32.2475"/>
  <linearGradient id="paint3_linear" gradientUnits="userSpaceOnUse" x1="31.5336" x2="10.3603" y1="5.06599" y2="20.9338">
    <stop offset="0" stop-color="#f0ea4d"/>
    <stop offset="1" stop-color="#fc429d"/>
  </linearGradient>
  <linearGradient id="paint4_linear" gradientUnits="userSpaceOnUse" x1=".999999" x2="30.2377" y1="6.50317" y2="30.8913">
    <stop offset="0" stop-color="#2a2139"/>
    <stop offset="1" stop-color="#413260"/>
  </linearGradient>
  <clipPath id="clip0">
    <path d="m0 0h32v33h-32z"/>
  </clipPath>
  <g clip-path="url(#clip0)">
    <path d="m13.8915 30.1638c-.3848 0-.6945.3097-.6945.6945h-13.197v1.3892h13.197c0 .3848.3097.6946.6945.6946h4.1675c.3848 0 .6946-.3098.6946-.6946h13.1969v-1.3892h-13.1969c0-.3848-.3098-.6945-.6946-.6945z" fill="#000" opacity=".1"/>
    <path d="m0 30.1638h31.9505v1.3891h-31.9505z" fill="url(#paint0_linear)"/>
    <path d="m0 30.1638h31.9505v.6945h-31.9505z" fill="#fff" opacity=".3"/>
    <path d="m16.6699 27.3854c0-.3836-.311-.6945-.6946-.6945s-.6945.3109-.6945.6945v2.7783c0 .3836.3109.6946.6945.6946s.6946-.311.6946-.6946z" fill="url(#paint1_linear)"/>
    <path d="m18.0591 29.4692h-4.1675c-.3836 0-.6946.3058-.6946.6831v1.4121c0 .3772.311.6831.6946.6831h4.1675c.3836 0 .6945-.3059.6945-.6831v-1.4121c0-.3773-.3109-.6831-.6945-.6831z" fill="url(#paint2_linear)"/>
    <path d="m13.8916 29.4692c-.3848 0-.6946.3052-.6946.6837v.6946c0-.3785.3098-.6837.6946-.6837h4.1675c.3848 0 .6945.3052.6945.6837v-.6946c0-.3785-.3097-.6837-.6945-.6837z" fill="#fff" opacity=".7"/>
    <path d="m7.0332 2.32663c-1.5139 0-2.6622.05555-3.5684.22676-.9061.17121-1.5957.47403-2.0644.97879s-.6789 1.15926-.7832 1.9434c-.1044.7841-.1089 1.72035-.1172 2.88044v.00184 13.92584.0018c.017 2.3202-.038 3.7765.7481 4.7912.393.5073.9994.8319 1.7753 1.0079.776.1761 1.7431.2302 3.0098.2302h19c1.5139 0 2.6627-.0557 3.5684-.2269s1.5936-.4733 2.0605-.9788.674-1.1607.7735-1.9451c.099-.7843.098-1.7222.098-2.8824v-12.0658c0-1.16017 0-2.09793-.098-2.88229-.1-.78437-.3066-1.43962-.7735-1.94513-.4669-.50555-1.1548-.80766-2.0605-.97891-.9057-.17121-2.0545-.22676-3.5684-.22676h-10.8027l-2.1426-1.8562h-.1973c-2.3007-.00007-4.8574 0-4.8574 0z" fill="url(#paint3_linear)"/>
    <path d="m16.1426 6.50323-2.1426 1.8562h-7.5c-5.9671 0-5.9998.92507-6 5.49997v.0689c0 2.2811.019 4.5604.010001 6.8305-.0002.0113-.0002.0189 0 .0264.054 1.6374-.1006 3.3757.2148 5.17 0 .0113.01.019.01.0265.267099 1.2407 1.428999 2.036 2.660099 2.1808 1.8121.2502 3.5568.0975 5.1817.1504.01002.0002.01901.0002.02899 0 6.49421-.0076 13.00851.0264 19.51561-.118.036-.0003.072-.0027.1074-.0075.5732-.0824 1.2063-.2426 1.7832-.5746.5769-.3319 1.1085-.8834 1.2754-1.6243 0-.0189.01-.0378.01-.0559.3017-2.1171.1519-4.1939.2011-6.1852.0001-.0076.0001-.0152 0-.0227-.011-3.2489.02-6.511-.027-9.77817-.1773-2.78638-1.0487-3.44792-5.9707-3.44792 0 0-7.0567-.00003-9.3574 0z" fill="url(#paint4_linear)"/>
    <path d="m16.1426 6.50329-2.1426 1.85619h-7.5c-6 0-6 .92814-6 5.56882v.9283c0-4.6407 0-5.56896 6-5.56896h7.5l2.1426-1.8562c2.3007-.00011 9.3578 0 9.3578 0 6 0 5.9999.92814 6.0332 5.56886v-.9282c-.033-4.64072-.033-5.56881-6.0332-5.56881 0 0-7.0571-.00012-9.3578 0z" fill="#fff" opacity=".3"/>
    <path d="m7.0332 2.32663c-1.5139 0-2.6622.05555-3.5684.22676-.9061.17121-1.5957.47403-2.0644.97879s-.6789 1.15926-.7832 1.9434c-.1044.7841-.1089 1.72035-.1172 2.88044v.00184 13.92584.0018c.017 2.3202-.038 3.7765.7481 4.7912.393.5073.9994.8319 1.7753 1.0079.776.1761 1.7431.2302 3.0098.2302h19c1.5139 0 2.6627-.0557 3.5684-.2269s1.5936-.4733 2.0605-.9788.674-1.1607.7735-1.9451c.099-.7843.098-1.7222.098-2.8824v-12.0658c0-1.16017 0-2.09793-.098-2.88229-.1-.78437-.3066-1.43962-.7735-1.94513-.4669-.50555-1.1548-.80766-2.0605-.97891-.9057-.17121-2.0545-.22676-3.5684-.22676h-10.8027l-2.1426-1.8562h-.1973c-2.3007-.00007-4.8574 0-4.8574 0z" opacity=".4" stroke="#000" stroke-width=".9634"/>
    <path d="m16.1426 5.57503-2.1426 1.85631h-7.5c-6 0-6 .92814-6 5.56886v.928c0-4.64068 0-5.56881 6-5.56881h7.5l2.1426-1.8562c2.3007-.00012 9.3578 0 9.3578 0 6 0 5.9999.92809 6.0332 5.56881v-.9281c-.033-4.64074-.033-5.56887-6.0332-5.56887 0 0-7.0571-.00004-9.3578 0z" fill="#472806" opacity=".2"/>
    <path d="m7.0332 2.79062c-6 0-5.9999.92814-6.0332 5.56883v.92816c.033-4.64069.033-5.56883 6.0332-5.56883 0 0 2.5567-.00011 4.8574 0l2.1426 1.85631h11c6 0 6 .92814 6 5.56881v-.9281c0-4.64077 0-5.56886-6-5.56886h-11l-2.1426-1.85632c-2.3007-.00007-4.8574 0-4.8574 0z" fill="#e3d5c8" opacity=".4"/>
    <path d="m31 19.4971-9 8.3532h4c5 0 4.9999-.9281 5.0332-5.5688z" fill="#fff" opacity=".05"/>
  </g>
</svg>
