<svg fill="none" height="33" viewBox="0 0 32 33" width="32" xmlns="http://www.w3.org/2000/svg" xmlns:xlink="http://www.w3.org/1999/xlink">
  <linearGradient id="lg1">
    <stop offset="0" stop-color="#0fe4f5"/>
    <stop offset="1" stop-color="#eb36ae"/>
  </linearGradient>
  <linearGradient id="paint0_linear" gradientUnits="userSpaceOnUse" x1="16.0166" x2="16.0166" xlink:href="#lg1" y1="2.82651" y2="31.8262"/>
  <linearGradient id="paint1_linear" gradientUnits="userSpaceOnUse" x1="31.5336" x2="9.25" y1="5.27797" y2="20.778">
    <stop offset="0" stop-color="#f0ea4d"/>
    <stop offset="1" stop-color="#fc429d"/>
  </linearGradient>
  <linearGradient id="paint2_linear" gradientUnits="userSpaceOnUse" x1=".999998" x2="32.0001" y1="6.82636" y2="30.8263">
    <stop offset="0" stop-color="#2a2139"/>
    <stop offset="1" stop-color="#413260"/>
  </linearGradient>
  <linearGradient id="paint3_linear" gradientUnits="userSpaceOnUse" x1="15.9992" x2="15.9992" xlink:href="#lg1" y1="12.6905" y2="25.6905"/>
  <clipPath id="clip0">
    <path d="m0 0h32v33h-32z"/>
  </clipPath>
  <g clip-path="url(#clip0)">
    <path d="m7.0332 2.82654c-1.527 0-2.7016.05707-3.668.25398-.9705.19767-1.7812.5661-2.3437 1.21871-.56.64977-.7902 1.46705-.9004 2.35932-.1101001.8911-.11280016 1.91086-.1211 3.16014v.00208.00369 15.00394.0038.0019c.0170003 2.4911-.083 4.163.841799 5.4493.476301.6624 1.207101 1.0723 2.062501 1.2812.8459.2067 1.8469.2616 3.1289.2616h19c1.527 0 2.7019-.0571 3.668-.254.9699-.1977 1.779-.5645 2.3398-1.2187.5583-.6513.7856-1.4703.8906-2.3634.1049-.8916.1016-1.9145.1016-3.164v-13c0-1.2495 0-2.27217-.1016-3.16406-.105-.89303-.3323-1.71199-.8906-2.36324-.5608-.65424-1.3699-1.02123-2.3398-1.21882-.9661-.19691-2.141-.25433-3.668-.25433h-10.6055l-2.1425-1.99911h-.3946c-2.0639-.00007-3.912 0-4.3574 0z" fill="url(#paint0_linear)" opacity=".1"/>
    <path d="m7.0332 2.32653c-1.5139 0-2.6622.05974-3.5684.24418-.9061.18444-1.5957.51085-2.0644 1.05469s-.6789 1.24885-.7832 2.09369c-.1044.84484-.1089 1.85362-.1172 3.10351v.00207 15.00383.0021c.017 2.4997-.038 4.0687.7481 5.162.393.5466.9994.8964 1.7753 1.0859.776.1898 1.7431.248 3.0098.248h19c1.5139 0 2.6627-.0597 3.5684-.2442.9057-.1844 1.5936-.51 2.0605-1.0547s.674-1.2505.7735-2.0956c.099-.8451.098-1.8555.098-3.1055v-13.0001c0-1.24997 0-2.26025-.098-3.10532-.1-.8451-.3066-1.5511-.7735-2.09576-.4669-.54471-1.1548-.87017-2.0605-1.05469-.9057-.18444-2.0545-.24418-3.5684-.24418h-10.8027l-2.1426-2.00003h-.1973c-2.3007-.00008-4.8574 0-4.8574 0z" fill="url(#paint1_linear)"/>
    <path d="m16.1426 6.82639-2.1426 2.00003h-7.5c-5.9671 0-5.9998.9967-6 5.92578v.0741c0 2.4577.019 4.9135.010001 7.3594-.0002.0113-.0002.0189 0 .0302.054 1.7642-.1006 3.6371.2148 5.5703 0 .0114.01.0189.01.0302.267099 1.3368 1.428999 2.1936 2.660099 2.3497 1.8121.2695 3.5568.1051 5.1817.1621.01002.0002.01901.0002.02899 0 6.49421-.0075 13.00851.0265 19.51561-.1269.036-.0004.072-.0031.1074-.0077.5732-.0888 1.2063-.2615 1.7832-.6191s1.1085-.9518 1.2754-1.75c0-.0189.01-.04.01-.0604.3017-2.281.1519-4.5187.2011-6.6641.0001-.0076.0001-.0152 0-.0228-.011-3.5003.02-7.0149-.027-10.5351-.1773-3.00205-1.0487-3.71479-5.9707-3.71479 0 0-7.0567-.00008-9.3574 0z" fill="url(#paint2_linear)"/>
    <path d="m16.1426 6.82644-2.1426 2.00003h-7.5c-6 0-6 1-6 5.99993v1.0001c0-5.0001 0-6.00002 6-6.00002h7.5l2.1426-2.00003c2.3007-.00011 9.3578 0 9.3578 0 6 0 5.9999.99997 6.0332 5.99995v-.9999c-.033-4.99998-.033-6.00006-6.0332-6.00006 0 0-7.0571-.00012-9.3578 0z" fill="#fff" opacity=".3"/>
    <path d="m7.0332 2.32653c-1.5139 0-2.6622.05974-3.5684.24418-.9061.18444-1.5957.51085-2.0644 1.05469s-.6789 1.24885-.7832 2.09369c-.1044.84484-.1089 1.85362-.1172 3.10351v.00207 15.00383.0021c.017 2.4997-.038 4.0687.7481 5.162.393.5466.9994.8964 1.7753 1.0859.776.1898 1.7431.248 3.0098.248h19c1.5139 0 2.6627-.0597 3.5684-.2442.9057-.1844 1.5936-.51 2.0605-1.0547s.674-1.2505.7735-2.0956c.099-.8451.098-1.8555.098-3.1055v-13.0001c0-1.24997 0-2.26025-.098-3.10532-.1-.8451-.3066-1.5511-.7735-2.09576-.4669-.54471-1.1548-.87017-2.0605-1.05469-.9057-.18444-2.0545-.24418-3.5684-.24418h-10.8027l-2.1426-2.00003h-.1973c-2.3007-.00008-4.8574 0-4.8574 0z" opacity=".4" stroke="#000" stroke-width=".999999"/>
    <path d="m16.1426 5.82642-2.1426 2.00003h-7.5c-6 0-6 .99996-6 5.99995v1c0-4.99993 0-5.99993 6-5.99993h7.5l2.1426-2.00004c2.3007-.00011 9.3578 0 9.3578 0 6 0 5.9999 1.00008 6.0332 6.00007v-1.0001c-.033-4.99998-.033-5.99998-6.0332-5.99998 0 0-7.0571-.00008-9.3578 0z" fill="#472806" opacity=".2"/>
    <path d="m7.0332 2.82654c-6 0-5.9999 1-6.0332 5.99998v1.00001c.033-5.00001.033-5.99997 6.0332-5.99997 0 0 2.5567-.00012 4.8574 0l2.1426 1.99991h11c6 0 6 1 6 5.99993v-.9999c0-4.99996 0-5.99993-6-5.99993h-11l-2.1426-2.00003c-2.3007-.00007-4.8574 0-4.8574 0z" fill="#e3d5c8" opacity=".4"/>
    <path d="m31 20.8264-9 9h4c5 0 4.9999-1 5.0332-6z" fill="#fff" opacity=".05"/>
    <path d="m21.5848 22.2286c-.3055.6764-.4516.9789-.8439 1.5766-.5482.8348-1.3222 1.8765-2.2791 1.8836-.8511.0072-1.0708-.5553-2.2259-.5461-1.1551.0056-1.3957.5563-2.2479.5477-.9568-.0087-1.6895-.9472-2.2381-1.7805-1.5342-2.3372-1.6962-5.0766-.748-6.5341.6708-1.0336 1.7324-1.6405 2.7292-1.6405 1.0151 0 1.6532.5579 2.4926.5579.8143 0 1.3104-.5594 2.4844-.5594.8879 0 1.8269.4838 2.4977 1.3186-2.1948 1.2026-1.8382 4.3374.379 5.1762zm-3.7677-7.4277c.4271-.5482.751-1.3216.6335-2.1104-.6969.0475-1.5117.4925-1.9879 1.0687-.4311.5247-.7888 1.3043-.6493 2.0584.7602.0245 1.547-.4287 2.0037-1.0167z" fill="url(#paint3_linear)"/>
  </g>
</svg>
