<svg width="32" height="32" viewBox="0 0 32 32" fill="none" xmlns="http://www.w3.org/2000/svg">
    <g id="folder-yaru-download-open" clip-path="url(#clip0)">
        <g id="Group">
            <path id="ombra secondaria" opacity="0.1" d="M7.0332 2.24442C5.50617 2.24442 4.33161 2.30149 3.36523 2.4984C2.39473 2.69607 1.58396 3.06449 1.02148 3.71711C0.46147 4.36688 0.2313 5.18427 0.12109 6.07654C0.0110102 6.96764 0.00831987 7.98728 0 9.23657V9.23864V9.24233V24.2463V24.2501V24.252C0.0165997 26.7431 -0.0831001 28.415 0.8418 29.7012C1.31811 30.3637 2.04892 30.7736 2.9043 30.9826C3.75024 31.1893 4.75115 31.2441 6.0332 31.2441H25.0332C26.5602 31.2441 27.7351 31.187 28.7012 30.9901C29.6711 30.7924 30.4802 30.4256 31.041 29.7714C31.5993 29.1201 31.8266 28.3012 31.9316 27.4081C32.0365 26.5165 32.0332 25.4935 32.0332 24.2439V11.244C32.0332 9.99451 32.0372 8.97181 31.9316 8.07992C31.8266 7.18689 31.5992 6.36792 31.041 5.71667C30.4802 5.06244 29.6711 4.69545 28.7012 4.49786C27.7351 4.30094 26.5602 4.24353 25.0332 4.24353H14.4277L12.2852 2.24442H11.8906C9.82672 2.24434 7.97864 2.24442 7.5332 2.24442H7.0332Z" fill="#D0E3C9"/>
            <path id="secondario" d="M7.0332 1.74441C5.51931 1.74441 4.37098 1.80415 3.46484 1.98859C2.55871 2.17303 1.86912 2.49944 1.40039 3.04328C0.93166 3.58711 0.72154 4.29213 0.61719 5.13697C0.51283 5.9818 0.50832 6.99058 0.5 8.24047V8.24255V23.2464V23.2484C0.516702 25.7482 0.462 27.3173 1.24805 28.4106C1.64108 28.9572 2.24749 29.3069 3.02344 29.4964C3.79939 29.6861 4.76654 29.7444 6.0332 29.7444H25.0332C26.5471 29.7444 27.6959 29.6846 28.6016 29.5002C29.5073 29.3158 30.1952 28.9902 30.6621 28.4455C31.129 27.9008 31.3361 27.1949 31.4355 26.3499C31.535 25.5048 31.5333 24.4944 31.5333 23.2444V10.2443C31.5333 8.99431 31.5352 7.98402 31.4355 7.13896C31.3361 6.29386 31.129 5.58786 30.6621 5.04319C30.1952 4.49849 29.5073 4.17302 28.6016 3.98851C27.6959 3.80407 26.5471 3.74433 25.0332 3.74433H14.2305L12.0879 1.7443H11.8906C9.58992 1.74422 7.0332 1.7443 7.0332 1.7443L7.0332 1.74441Z" fill="url(#paint0_linear)"/>
            <path id="primario" d="M16.1426 10.2445L14 12.2445H6.5C0.965399 12.2445 0.54111 13.1373 0.50781 17.1937C0.50081 20.262 0.520909 23.3299 0.59571 26.3968C0.63551 27.796 1.49727 29.2469 2.97071 29.5004C4.88526 29.8793 6.86461 29.6379 8.8047 29.7308C15.1223 29.7157 21.4451 29.8201 27.7598 29.61C29.2425 29.6478 30.8939 28.8755 31.2559 27.3325C31.6568 25.6442 31.4057 23.8715 31.5 22.151C31.4844 19.5455 31.5009 16.939 31.496 14.3326C31.3672 10.9975 30.6288 10.2447 25.5 10.2447C25.5 10.2447 18.4433 10.2446 16.1426 10.2447L16.1426 10.2445Z" fill="url(#paint1_linear)"/>
            <path id="contorno superiore del primario" opacity="0.3" d="M16.1426 10.2446L14 12.2446H6.5C0.5 12.2446 0.5 13.2446 0.5 18.2446V19.2446C0.5 14.2446 0.5 13.2445 6.5 13.2445H14L16.1426 11.2446C18.4433 11.2445 25.5003 11.2446 25.5003 11.2446C31.5003 11.2446 31.5002 12.2446 31.5335 17.2445V16.2445C31.5003 11.2445 31.5004 10.2446 25.5003 10.2446C25.5003 10.2446 18.4433 10.2444 16.1426 10.2446Z" fill="white"/>
            <path id="contorno" opacity="0.4" d="M7.0332 1.74441C5.51931 1.74441 4.37098 1.80415 3.46484 1.98859C2.55871 2.17303 1.86912 2.49944 1.40039 3.04328C0.93166 3.58711 0.72154 4.29213 0.61719 5.13697C0.51283 5.9818 0.50832 6.99058 0.5 8.24047V8.24255V23.2464V23.2484C0.516702 25.7482 0.462 27.3173 1.24805 28.4106C1.64108 28.9572 2.24749 29.3069 3.02344 29.4964C3.79939 29.6861 4.76654 29.7444 6.0332 29.7444H25.0332C26.5471 29.7444 27.6959 29.6846 28.6016 29.5002C29.5073 29.3158 30.1952 28.9902 30.6621 28.4455C31.129 27.9008 31.3361 27.1949 31.4355 26.3499C31.535 25.5048 31.5333 24.4944 31.5333 23.2444V10.2443C31.5333 8.99431 31.5352 7.98402 31.4355 7.13896C31.3361 6.29386 31.129 5.58786 30.6621 5.04319C30.1952 4.49849 29.5073 4.17302 28.6016 3.98851C27.6959 3.80407 26.5471 3.74433 25.0332 3.74433H14.2305L12.0879 1.7443H11.8906C9.58992 1.74422 7.0332 1.7443 7.0332 1.7443L7.0332 1.74441Z" stroke="black" stroke-width="0.999999"/>
            <path id="ombra" opacity="0.2" d="M16.1426 9.24444L14 11.2445H6.5C0.5 11.2445 0.5 12.2445 0.5 17.2444V18.2445C0.5 13.2444 0.5 12.2445 6.5 12.2445H14L16.1426 10.2445C18.4433 10.2443 25.5003 10.2445 25.5003 10.2445C31.5003 10.2445 31.5002 11.2444 31.5335 16.2444V15.2444C31.5003 10.2444 31.5004 9.24444 25.5003 9.24444C25.5003 9.24444 18.4433 9.24432 16.1426 9.24444V9.24444Z" fill="#3D5E31"/>
            <path id="contorno superiore del secondario" opacity="0.4" d="M7.0332 2.24442C1.0332 2.24442 1.0333 3.24442 1 8.2444V9.24441C1.0333 4.2444 1.0332 3.24443 7.0332 3.24443C7.0332 3.24443 9.58994 3.24432 11.8906 3.24443L14.0332 5.24435H25.0332C31.0332 5.24435 31.0332 6.24447 31.0332 11.2444V10.2444C31.0332 5.24441 31.0332 4.24445 25.0332 4.24445H14.0332L11.8906 2.24442C9.58994 2.24434 7.0332 2.24442 7.0332 2.24442V2.24442Z" fill="#CCE3C3"/>
            <path id="effetto piega" opacity="0.05" d="M31 20.2444L22 29.2444H26C31 29.2444 30.9999 28.2444 31.0332 23.2444L31 20.2444Z" fill="white"/>
            <path id="caricamento" d="M14 14.9991V19.9991H12C12 19.9991 13.3803 23.9756 15.9992 26.8859C18.6177 23.9759 20 19.9991 20 19.9991H18V14.9991H14ZM15 15.9991H17V20.9991H18.3C18 21.9991 17 23.7991 15.9992 25.2991C15 23.7991 14 21.9991 13.7 20.9991H15V15.9991ZM11 26.9991L10.9992 27.9991H20.9992L21 26.9991H11Z" fill="#D0E3C9"/>
        </g>
    </g>
    <defs>
        <linearGradient id="paint0_linear" x1="31.5333" y1="4.69584" x2="9.24974" y2="20.1956" gradientUnits="userSpaceOnUse">
            <stop stop-color="#579140"/>
            <stop offset="1" stop-color="#76C22B"/>
        </linearGradient>
        <linearGradient id="paint1_linear" x1="-1.63465e-06" y1="10.2445" x2="32" y2="30.2445" gradientUnits="userSpaceOnUse">
            <stop stop-color="#517D40"/>
            <stop offset="1" stop-color="		#7AAF65"/>
        </linearGradient>
        <clipPath id="clip0">
            <rect width="32" height="32" fill="white"/>
        </clipPath>
    </defs>
</svg>
