<svg width="32" height="32" viewBox="0 0 32 32" fill="none" xmlns="http://www.w3.org/2000/svg">
    <g id="folder-yaru-publicshare" clip-path="url(#clip0)">
        <path id="ombra secondaria" opacity="0.1" d="M7.0332 2.05558C5.5062 2.05558 4.3316 2.11265 3.3652 2.30956C2.3947 2.50723 1.584 2.87565 1.0215 3.52826C0.4615 4.17804 0.2313 4.99531 0.1211 5.88758C0.0109999 6.77868 0.00829984 7.79844 0 9.04773V9.0498V9.05349V24.0574V24.0612V24.0632C0.0170003 26.5543 -0.083 28.2262 0.8418 29.5124C1.3181 30.1748 2.0489 30.5847 2.9043 30.7936C3.7502 31.0004 4.7512 31.0552 6.0332 31.0552H25.0332C26.5602 31.0552 27.7351 30.9981 28.7012 30.8012C29.6711 30.6036 30.4802 30.2368 31.041 29.5825C31.5993 28.9312 31.8266 28.1122 31.9316 27.2192C32.0365 26.3275 32.0332 25.3047 32.0332 24.0551V11.0551C32.0332 9.80566 32.0332 8.78297 31.9316 7.89108C31.8266 6.99805 31.5993 6.17908 31.041 5.52783C30.4802 4.8736 29.6711 4.50661 28.7012 4.30901C27.7351 4.1121 26.5602 4.05468 25.0332 4.05468H14.4277L12.2852 2.05558H11.8906C9.8267 2.0555 7.9786 2.05558 7.5332 2.05558H7.0332Z" fill="#FAD9B9"/>
        <path id="secondario" d="M7.0332 1.55557C5.5193 1.55557 4.371 1.61531 3.4648 1.79975C2.5587 1.98419 1.8691 2.3106 1.4004 2.85444C0.9317 3.39827 0.7215 4.10329 0.6172 4.94812C0.5128 5.79296 0.5083 6.80174 0.5 8.05163V8.05371V23.0575V23.0596C0.517 25.5594 0.462 27.1284 1.2481 28.2216C1.6411 28.7682 2.2475 29.118 3.0234 29.3076C3.7994 29.4973 4.7665 29.5555 6.0332 29.5555H25.0332C26.5471 29.5555 27.6959 29.4958 28.6016 29.3114C29.5073 29.1269 30.1952 28.8013 30.6621 28.2567C31.129 27.712 31.3361 27.0061 31.4356 26.161C31.5346 25.316 31.5336 24.3056 31.5336 23.0556V10.0555C31.5336 8.80547 31.5336 7.79518 31.4356 6.95012C31.3356 6.10501 31.129 5.39902 30.6621 4.85435C30.1952 4.30965 29.5073 3.98418 28.6016 3.79966C27.6959 3.61522 26.5471 3.55548 25.0332 3.55548H14.2305L12.0879 1.55545H11.8906C9.5899 1.55538 7.0332 1.55545 7.0332 1.55545L7.0332 1.55557Z" fill="url(#paint0_linear)"/>
        <path id="primario" d="M16.1426 6.05542L14 8.05545H6.5C0.5329 8.05545 0.5002 9.05215 0.5 13.9813V14.0553C0.5 16.513 0.519 18.9688 0.510001 21.4147C0.509801 21.4261 0.509801 21.4336 0.510001 21.4449C0.564001 23.2091 0.409401 25.0821 0.724801 27.0153C0.724801 27.0266 0.734801 27.0341 0.734801 27.0455C1.0019 28.3822 2.1638 29.2391 3.3949 29.3951C5.207 29.6646 6.9517 29.5002 8.5766 29.5573C8.58662 29.5575 8.59561 29.5575 8.60559 29.5573C15.0998 29.5497 21.6141 29.5837 28.1212 29.4303C28.1572 29.43 28.1932 29.4273 28.2286 29.4227C28.8018 29.3339 29.4349 29.1611 30.0118 28.8035C30.5887 28.446 31.1203 27.8517 31.2872 27.0536C31.2872 27.0347 31.2972 27.0135 31.2972 26.9931C31.5989 24.7121 31.4491 22.4745 31.4983 20.329C31.4984 20.3214 31.4984 20.3138 31.4983 20.3063C31.4873 16.8059 31.5183 13.2913 31.4713 9.77116C31.294 6.76908 30.4226 6.05634 25.5006 6.05634C25.5006 6.05634 18.4439 6.05627 16.1432 6.05634L16.1426 6.05542Z" fill="url(#paint1_linear)"/>
        <path id="contorno superiore del primario" opacity="0.3" d="M16.1426 6.05547L14 8.0555H6.5C0.5 8.0555 0.5 9.0555 0.5 14.0555V15.0555C0.5 10.0555 0.5 9.05552 6.5 9.05552H14L16.1426 7.05549C18.4433 7.05537 25.5004 7.05549 25.5004 7.05549C31.5004 7.05549 31.5003 8.05545 31.5336 13.0555V12.0556C31.5006 7.05555 31.5006 6.05547 25.5004 6.05547C25.5004 6.05547 18.4433 6.05536 16.1426 6.05547V6.05547Z" fill="white"/>
        <path id="contorno" opacity="0.4" d="M7.0332 1.55557C5.5193 1.55557 4.371 1.61531 3.4648 1.79975C2.5587 1.98419 1.8691 2.3106 1.4004 2.85444C0.9317 3.39827 0.7215 4.10329 0.6172 4.94812C0.5128 5.79296 0.5083 6.80174 0.5 8.05163V8.05371V23.0575V23.0596C0.517 25.5594 0.462 27.1284 1.2481 28.2216C1.6411 28.7682 2.2475 29.118 3.0234 29.3076C3.7994 29.4973 4.7665 29.5555 6.0332 29.5555H25.0332C26.5471 29.5555 27.6959 29.4958 28.6016 29.3114C29.5073 29.1269 30.1952 28.8013 30.6621 28.2567C31.129 27.712 31.3361 27.0061 31.4356 26.161C31.5346 25.316 31.5336 24.3056 31.5336 23.0556V10.0555C31.5336 8.80547 31.5336 7.79518 31.4356 6.95012C31.3356 6.10501 31.129 5.39902 30.6621 4.85435C30.1952 4.30965 29.5073 3.98418 28.6016 3.79966C27.6959 3.61522 26.5471 3.55548 25.0332 3.55548H14.2305L12.0879 1.55545H11.8906C9.5899 1.55538 7.0332 1.55545 7.0332 1.55545L7.0332 1.55557Z" stroke="black" stroke-width="0.999999"/>
        <path id="ombra" opacity="0.2" d="M16.1426 5.05545L14 7.05548H6.5C0.5 7.05548 0.5 8.05545 0.5 13.0555V14.0555C0.5 9.0555 0.5 8.0555 6.5 8.0555H14L16.1426 6.05547C18.4433 6.05536 25.5004 6.05547 25.5004 6.05547C31.5004 6.05547 31.5003 7.05555 31.5336 12.0556V11.0554C31.5006 6.05546 31.5006 5.05545 25.5004 5.05545C25.5004 5.05545 18.4433 5.05538 16.1426 5.05545V5.05545Z" fill="#903906"/>
        <path id="contorno superiore del secondario" opacity="0.4" d="M7.0332 2.05558C1.0332 2.05558 1.0333 3.05558 1 8.05555V9.05557C1.033 4.05556 1.033 3.05559 7.0332 3.05559C7.0332 3.05559 9.5899 3.05548 11.8906 3.05559L14.0332 5.05551H25.0332C31.0332 5.05551 31.0332 6.05551 31.0332 11.0555V10.0556C31.0332 5.05557 31.0332 4.05561 25.0332 4.05561H14.0332L11.8906 2.05558C9.5899 2.0555 7.0332 2.05558 7.0332 2.05558V2.05558Z" fill="#F3994A"/>
        <path id="effetto piega" opacity="0.05" d="M31 20.0554L22 29.0554H26C31 29.0554 30.9999 28.0555 31.0332 23.0555L31 20.0554Z" fill="white"/>
        <path id="condividere" d="M19.8347 11.92C19.7827 11.9189 19.7318 11.9197 19.6802 11.9222C18.4848 11.9828 17.5649 13.0011 17.626 14.1965C17.6867 15.392 18.7049 16.312 19.9003 16.2508C21.0958 16.1902 22.0157 15.1719 21.9546 13.9765C21.8971 12.841 20.9714 11.9431 19.8347 11.9201V11.92ZM19.8119 13.0032C20.3803 13.0155 20.8432 13.4637 20.8719 14.0315C20.9022 14.6284 20.4427 15.1367 19.8458 15.1676C19.2489 15.1962 18.7405 14.7383 18.7097 14.1414C18.6794 13.5445 19.1389 13.0362 19.7358 13.0053C19.7607 13.0043 19.7867 13.0032 19.8116 13.0032H19.8119ZM16.2999 14.6852L13.4569 16.6485C13.1038 16.3996 12.6844 16.2616 12.2525 16.2531C12.2005 16.2519 12.1496 16.2526 12.0981 16.2552C10.9026 16.3158 9.98274 17.3342 10.0438 18.5296C10.1045 19.7251 11.1227 20.645 12.3182 20.5839C12.7267 20.5634 13.1205 20.4246 13.4543 20.1883L16.2993 22.1539L16.7818 21.1849L14.1693 19.3379C14.3201 19.0169 14.3898 18.6639 14.3724 18.3097C14.3572 18.0297 14.289 17.7552 14.1693 17.5015L16.7818 15.6546L16.2999 14.6852ZM12.2292 17.3362C12.7976 17.3485 13.2605 17.7965 13.2892 18.3643C13.3195 18.9612 12.86 19.4696 12.2631 19.5004C11.6662 19.5291 11.1578 19.0713 11.1271 18.4744C11.0967 17.8775 11.5562 17.3691 12.1531 17.3383C12.178 17.3372 12.204 17.336 12.2289 17.336L12.2292 17.3362ZM19.8347 20.5858C19.7827 20.5847 19.7318 20.5854 19.6802 20.588C18.4848 20.6486 17.5649 21.6669 17.626 22.8623C17.6866 24.0578 18.7049 24.9777 19.9003 24.9166C21.0958 24.856 22.0156 23.8377 21.9545 22.6423C21.8971 21.5067 20.9714 20.6089 19.8347 20.5859L19.8347 20.5858ZM19.8119 21.669C20.3803 21.6813 20.8431 22.1295 20.8718 22.6973C20.9022 23.2942 20.4427 23.8026 19.8458 23.8334C19.2488 23.862 18.7405 23.4041 18.7097 22.8072C18.6794 22.2103 19.1389 21.7019 19.7358 21.6711C19.7607 21.67 19.7867 21.669 19.8116 21.669H19.8119Z" fill="#FAD9B9"/>
    </g>
    <defs>
        <linearGradient id="paint0_linear" x1="31.5336" y1="4.507" x2="9.25" y2="20.007" gradientUnits="userSpaceOnUse">
            <stop stop-color="#EC7223"/>
            <stop offset="1" stop-color="#ECB622"/>
        </linearGradient>
        <linearGradient id="paint1_linear" x1="0.999998" y1="6.05539" x2="32.0001" y2="30.0554" gradientUnits="userSpaceOnUse">
            <stop stop-color="#F3994A"/>
            <stop offset="1" stop-color="#F6B069"/>
        </linearGradient>
        <clipPath id="clip0">
            <rect width="32" height="32" fill="white"/>
        </clipPath>
    </defs>
</svg>
