<svg fill="none" height="33" viewBox="0 0 32 33" width="32" xmlns="http://www.w3.org/2000/svg" xmlns:xlink="http://www.w3.org/1999/xlink">
  <linearGradient id="lg1">
    <stop offset="0" stop-color="#0fe4f5"/>
    <stop offset="1" stop-color="#eb36ae"/>
  </linearGradient>
  <linearGradient id="paint0_linear" gradientUnits="userSpaceOnUse" x1="16.0166" x2="16.0166" xlink:href="#lg1" y1="2.56949" y2="31.5692"/>
  <linearGradient id="paint1_linear" gradientUnits="userSpaceOnUse" x1="31.5336" x2="9.25" y1="5.02095" y2="20.5209">
    <stop offset="0" stop-color="#f0ea4d"/>
    <stop offset="1" stop-color="#fc429d"/>
  </linearGradient>
  <linearGradient id="paint2_linear" gradientUnits="userSpaceOnUse" x1=".999998" x2="32.0001" y1="6.56934" y2="30.5693">
    <stop offset="0" stop-color="#2a2139"/>
    <stop offset="1" stop-color="#413260"/>
  </linearGradient>
  <linearGradient id="paint3_linear" gradientUnits="userSpaceOnUse" x1="15.9992" x2="15.9992" xlink:href="#lg1" y1="13.9334" y2="23.9334"/>
  <clipPath id="clip0">
    <path d="m0 0h32v33h-32z"/>
  </clipPath>
  <g clip-path="url(#clip0)">
    <path d="m7.0332 2.56952c-1.527 0-2.7016.05707-3.668.25399-.9705.19766-1.7812.56609-2.3437 1.2187-.56.64978-.7902 1.46705-.9004 2.35932-.1101001.8911-.11280016 1.91086-.1211 3.16014v.00208.00369 15.00396.0038.0019c.0170003 2.4911-.083 4.163.841799 5.4492.476301.6625 1.207101 1.0723 2.062501 1.2813.8459.2067 1.8469.2616 3.1289.2616h19c1.527 0 2.7019-.0571 3.668-.254.9699-.1977 1.779-.5645 2.3398-1.2187.5583-.6513.7856-1.4704.8906-2.3634.1049-.8916.1016-1.9145.1016-3.164v-13c0-1.2495 0-2.27219-.1016-3.16408-.105-.89303-.3323-1.71199-.8906-2.36324-.5608-.65424-1.3699-1.02123-2.3398-1.21882-.9661-.19691-2.141-.25433-3.668-.25433h-10.6055l-2.1425-1.99911h-.3946c-2.0639-.00007-3.912 0-4.3574 0z" fill="url(#paint0_linear)" opacity=".1"/>
    <path d="m7.0332 2.06952c-1.5139 0-2.6622.05973-3.5684.24417-.9061.18445-1.5957.51086-2.0644 1.05469-.4687.54384-.6789 1.24885-.7832 2.09369-.1044.84484-.1089 1.85362-.1172 3.10351v.00207 15.00385.002c.017 2.4998-.038 4.0688.7481 5.1621.393.5466.9994.8964 1.7753 1.0859.776.1897 1.7431.248 3.0098.248h19c1.5139 0 2.6627-.0598 3.5684-.2442s1.5936-.51 2.0605-1.0547.674-1.2506.7735-2.0956c.099-.8451.098-1.8555.098-3.1055v-13.0001c0-1.24999 0-2.26027-.098-3.10534-.1-.8451-.3066-1.55109-.7735-2.09576-.4669-.54471-1.1548-.87017-2.0605-1.05469-.9057-.18444-2.0545-.24418-3.5684-.24418h-10.8027l-2.1426-2.00003h-.1973c-2.3007-.00008-4.8574 0-4.8574 0z" fill="url(#paint1_linear)"/>
    <path d="m16.1426 6.56937-2.1426 2.00003h-7.5c-5.9671 0-5.9998.9967-6 5.9258v.0741c0 2.4576.019 4.9135.010001 7.3594-.0002.0113-.0002.0188 0 .0302.054 1.7641-.1006 3.6371.2148 5.5703 0 .0113.01.0189.01.0302.267099 1.3368 1.428999 2.1936 2.660099 2.3497 1.8121.2694 3.5568.1051 5.1817.1621.01002.0002.01901.0002.02899 0 6.49421-.0075 13.00851.0265 19.51561-.127.036-.0003.072-.003.1074-.0076.5732-.0888 1.2063-.2615 1.7832-.6191s1.1085-.9518 1.2754-1.75c0-.0189.01-.04.01-.0604.3017-2.2811.1519-4.5187.2011-6.6642.0001-.0075.0001-.0151 0-.0227-.011-3.5003.02-7.015-.027-10.5351-.1773-3.00207-1.0487-3.71481-5.9707-3.71481 0 0-7.0567-.00008-9.3574 0z" fill="url(#paint2_linear)"/>
    <path d="m16.1426 6.56942-2.1426 2.00003h-7.5c-6 0-6 1-6 5.99995v1c0-5 0-5.99994 6-5.99994h7.5l2.1426-2.00003c2.3007-.00011 9.3578 0 9.3578 0 6 0 5.9999.99997 6.0332 5.99997v-.9999c-.033-5-.033-6.00008-6.0332-6.00008 0 0-7.0571-.00012-9.3578 0z" fill="#fff" opacity=".3"/>
    <path d="m7.0332 2.06952c-1.5139 0-2.6622.05973-3.5684.24417-.9061.18445-1.5957.51086-2.0644 1.05469-.4687.54384-.6789 1.24885-.7832 2.09369-.1044.84484-.1089 1.85362-.1172 3.10351v.00207 15.00385.002c.017 2.4998-.038 4.0688.7481 5.1621.393.5466.9994.8964 1.7753 1.0859.776.1897 1.7431.248 3.0098.248h19c1.5139 0 2.6627-.0598 3.5684-.2442s1.5936-.51 2.0605-1.0547.674-1.2506.7735-2.0956c.099-.8451.098-1.8555.098-3.1055v-13.0001c0-1.24999 0-2.26027-.098-3.10534-.1-.8451-.3066-1.55109-.7735-2.09576-.4669-.54471-1.1548-.87017-2.0605-1.05469-.9057-.18444-2.0545-.24418-3.5684-.24418h-10.8027l-2.1426-2.00003h-.1973c-2.3007-.00008-4.8574 0-4.8574 0z" opacity=".4" stroke="#000" stroke-width=".999999"/>
    <path d="m16.1426 5.5694-2.1426 2.00003h-7.5c-6 0-6 .99996-6 5.99997v1c0-4.99995 0-5.99995 6-5.99995h7.5l2.1426-2.00003c2.3007-.00012 9.3578 0 9.3578 0 6 0 5.9999 1.00008 6.0332 6.00008v-1.0001c-.033-5-.033-6-6.0332-6 0 0-7.0571-.00008-9.3578 0z" fill="#472806" opacity=".2"/>
    <path d="m7.0332 2.56952c-6 0-5.9999 1-6.0332 5.99998v1.00001c.033-5.00001.033-5.99997 6.0332-5.99997 0 0 2.5567-.00012 4.8574 0l2.1426 1.99991h11c6 0 6 1 6 5.99995v-.9999c0-4.99998 0-5.99995-6-5.99995h-11l-2.1426-2.00003c-2.3007-.00007-4.8574 0-4.8574 0z" fill="#e3d5c8" opacity=".4"/>
    <path d="m31 20.5694-9 9h4c5 0 4.9999-1 5.0332-6z" fill="#fff" opacity=".05"/>
    <path d="m14.5802 13.9334-1.5936 7.908h1.5273l.9078-4.5267 1.2286.0109c.391 0 .6453.077.7634.2312.118.1542.1401.415.0663.7821l-.7081 3.5025h1.5496l.7415-3.6677c.1549-.8224.0442-1.3804-.3321-1.6741-.3689-.2937-.9296-.448-1.6822-.4627h-1.3726l.4317-2.1035zm-6.99887 2.1031-1.58298 7.8969h1.53862l.42037-2.0928h1.32823c.45009 0 .88563-.0515 1.30623-.1542.4206-.1029.8153-.345 1.1842-.7268.3025-.3011.5388-.6388.7085-1.0133.1771-.3745.2914-.7564.343-1.1455.1328-.8517.0037-1.5236-.3874-2.0156-.3911-.4919-1.0219-.7414-1.8926-.7487zm13.12197 0-1.5825 7.8969h1.5382l.4207-2.0928h1.3283c.4501 0 .8852-.0515 1.3058-.1542.4206-.1029.8153-.345 1.1842-.7268.3025-.3011.5388-.6388.7085-1.0133.1771-.3745.2914-.7564.343-1.1455.1328-.8517.0037-1.5236-.3874-2.0156-.3911-.4919-1.0219-.7414-1.8926-.7487zm-11.3514 1.2554c.59028-.0074 1.0812.0477 1.4723.1652.3984.1175.5312.5617.3984 1.3327-.1624.9178-.4796 1.4536-.9518 1.6078-.47229.1468-1.06267.2169-1.77102.2096h-.15504c-.04428 0-.08839-.0037-.13266-.011l.66208-3.2933h.22341c.08116 0 .16578-.0037.25433-.011zm13.1224 0c.5903-.0074 1.0808.0477 1.4719.1652.3984.1175.5312.5617.3984 1.3327-.1624.9178-.4796 1.4536-.9518 1.6078-.4723.1468-1.0627.2169-1.771.2096h-.1547c-.0442 0-.0888-.0037-.133-.011l.6621-3.2933h.2234c.0811 0 .1662-.0037.2547-.011z" fill="url(#paint3_linear)"/>
  </g>
</svg>
