<svg fill="none" height="33" viewBox="0 0 32 33" width="32" xmlns="http://www.w3.org/2000/svg" xmlns:xlink="http://www.w3.org/1999/xlink">
  <linearGradient id="lg1">
    <stop offset="0" stop-color="#0fe4f5"/>
    <stop offset="1" stop-color="#eb36ae"/>
  </linearGradient>
  <linearGradient id="paint0_linear" gradientUnits="userSpaceOnUse" x1="16.0166" x2="16.0166" xlink:href="#lg1" y1="2.34052" y2="31.3402"/>
  <linearGradient id="paint1_linear" gradientUnits="userSpaceOnUse" x1="31.5336" x2="9.25" y1="4.79197" y2="20.292">
    <stop offset="0" stop-color="#f0ea4d"/>
    <stop offset="1" stop-color="#fc429d"/>
  </linearGradient>
  <linearGradient id="paint2_linear" gradientUnits="userSpaceOnUse" x1=".999998" x2="32.0001" y1="6.34037" y2="30.3403">
    <stop offset="0" stop-color="#2a2139"/>
    <stop offset="1" stop-color="#413260"/>
  </linearGradient>
  <linearGradient id="paint3_linear" gradientUnits="userSpaceOnUse" x1="16.0168" x2="16.0168" xlink:href="#lg1" y1="12.2045" y2="25.2044"/>
  <clipPath id="clip0">
    <path d="m0 0h32v33h-32z"/>
  </clipPath>
  <g clip-path="url(#clip0)">
    <path d="m7.0332 2.34055c-1.527 0-2.7016.05707-3.668.25398-.9705.19767-1.7812.56609-2.3437 1.21871-.56.64977-.7902 1.46705-.9004 2.35932-.1101001.8911-.11280016 1.91085-.1211 3.16014v.00207.0037 15.00393.0038.002c.0170003 2.491-.083 4.1629.8418 5.4492.4763.6624 1.2071 1.0723 2.0625 1.2812.8459.2067 1.8469.2616 3.1289.2616h19c1.527 0 2.7019-.0571 3.668-.254.9699-.1977 1.779-.5645 2.3398-1.2187.5583-.6513.7856-1.4703.8906-2.3634.1049-.8916.1016-1.9145.1016-3.164v-13c0-1.2495 0-2.27216-.1016-3.16405-.105-.89303-.3323-1.71199-.8906-2.36324-.5608-.65424-1.3699-1.02123-2.3398-1.21882-.9661-.19692-2.141-.25433-3.668-.25433h-10.6055l-2.1425-1.99911h-.3946c-2.0639-.00008-3.912 0-4.3574 0z" fill="url(#paint0_linear)" opacity=".1"/>
    <path d="m7.0332 1.84054c-1.5139 0-2.6622.05974-3.5684.24418-.9061.18444-1.5957.51085-2.0644 1.05469-.4687.54383-.6789 1.24885-.7832 2.09369-.1044.84483-.1089 1.85362-.1172 3.10351v.00207 15.00382.0021c.017 2.4997-.038 4.0688.7481 5.162.393.5466.9994.8964 1.7753 1.0859.776.1898 1.7431.248 3.0098.248h19c1.5139 0 2.6627-.0597 3.5684-.2442.9057-.1844 1.5936-.51 2.0605-1.0547s.674-1.2505.7735-2.0956c.099-.8451.098-1.8555.098-3.1055v-13.0001c0-1.24996 0-2.26025-.098-3.10531-.1-.8451-.3066-1.5511-.7735-2.09577-.4669-.5447-1.1548-.87017-2.0605-1.05468-.9057-.18444-2.0545-.24418-3.5684-.24418h-10.8027l-2.1426-2.00003h-.1973c-2.3007-.00008-4.8574 0-4.8574 0z" fill="url(#paint1_linear)"/>
    <path d="m16.1426 6.34039-2.1426 2.00003h-7.5c-5.9671 0-5.9998.99671-6 5.92578v.0741c0 2.4577.019 4.9135.010001 7.3594-.0002.0113-.0002.0189 0 .0302.054 1.7642-.1006 3.6371.2148 5.5703 0 .0114.01.0189.01.0303.267099 1.3367 1.428999 2.1935 2.660099 2.3496 1.8121.2695 3.5568.1051 5.1817.1622.01002.0001.01901.0001.02899 0 6.49421-.0076 13.00851.0264 19.51561-.127.036-.0004.072-.0031.1074-.0076.5732-.0889 1.2063-.2616 1.7832-.6192.5769-.3575 1.1085-.9518 1.2754-1.75 0-.0189.01-.04.01-.0604.3017-2.281.1519-4.5186.2011-6.6641.0001-.0076.0001-.0152 0-.0228-.011-3.5003.02-7.0149-.027-10.5351-.1773-3.00204-1.0487-3.71478-5.9707-3.71478 0 0-7.0567-.00008-9.3574 0z" fill="url(#paint2_linear)"/>
    <path d="m16.1426 6.34044-2.1426 2.00003h-7.5c-6 0-6 1.00001-6 6.00003v1c0-5 0-6.00001 6-6.00001h7.5l2.1426-2.00003c2.3007-.00011 9.3578 0 9.3578 0 6 0 5.9999.99996 6.0332 5.99994v-.9999c-.033-4.99998-.033-6.00006-6.0332-6.00006 0 0-7.0571-.00011-9.3578 0z" fill="#fff" opacity=".3"/>
    <path d="m7.0332 1.84054c-1.5139 0-2.6622.05974-3.5684.24418-.9061.18444-1.5957.51085-2.0644 1.05469-.4687.54383-.6789 1.24885-.7832 2.09369-.1044.84483-.1089 1.85362-.1172 3.10351v.00207 15.00382.0021c.017 2.4997-.038 4.0688.7481 5.162.393.5466.9994.8964 1.7753 1.0859.776.1898 1.7431.248 3.0098.248h19c1.5139 0 2.6627-.0597 3.5684-.2442.9057-.1844 1.5936-.51 2.0605-1.0547s.674-1.2505.7735-2.0956c.099-.8451.098-1.8555.098-3.1055v-13.0001c0-1.24996 0-2.26025-.098-3.10531-.1-.8451-.3066-1.5511-.7735-2.09577-.4669-.5447-1.1548-.87017-2.0605-1.05468-.9057-.18444-2.0545-.24418-3.5684-.24418h-10.8027l-2.1426-2.00003h-.1973c-2.3007-.00008-4.8574 0-4.8574 0z" opacity=".4" stroke="#000" stroke-width=".999999"/>
    <path d="m16.1426 5.34043-2.1426 2.00003h-7.5c-6 0-6 .99996-6 5.99994v1c0-4.99993 0-5.99993 6-5.99993h7.5l2.1426-2.00003c2.3007-.00011 9.3578 0 9.3578 0 6 0 5.9999 1.00008 6.0332 6.00006v-1.0001c-.033-4.99997-.033-5.99997-6.0332-5.99997 0 0-7.0571-.00008-9.3578 0z" fill="#472806" opacity=".2"/>
    <path d="m7.0332 2.34055c-6 0-5.9999 1-6.0332 5.99998v1.00001c.033-5.00001.033-5.99998 6.0332-5.99998 0 0 2.5567-.00011 4.8574 0l2.1426 1.99992h11c6 0 6 1 6 6.00002v-.9999c0-5.00006 0-6.00002-6-6.00002h-11l-2.1426-2.00003c-2.3007-.00008-4.8574 0-4.8574 0z" fill="#e3d5c8" opacity=".4"/>
    <path d="m31 20.3404-9 9h4c5 0 4.9999-.9999 5.0332-6z" fill="#fff" opacity=".05"/>
    <path d="m15.0339 12.2045c-3.0586 0-3.1264 2.0416-4.0104 3.416 1.0833-.5106 2.2908-.9468 3.5937-1.2834 1.1851-.3055 2.3796-.5077 3.5395-.5994-.7359-.598-1.2494-1.5332-3.1228-1.5332zm4.1974 2.9242c-1.3483.026-2.8108.234-4.253.6066-4.7514 1.2271-8.13871 3.8972-7.56455 5.9627.33077 1.1801 1.92612 2.249 4.30235 2.3905-.0015-.0087-.0036-.0166-.0043-.0253v-.0026c-.0029-.021-.0102-.0397-.013-.0607-.1387-1.2595.5821-2.2374 1.4111-2.9271.8284-.6897 1.8915-1.1887 3.0947-1.4567.5843-.1307 1.1729-.1964 1.7521-.1892h.0014c.8681.0108 1.6698.1726 2.3755.5727.5821.3301 1.1144.9035 1.3411 1.612 2.1688-1.3253 3.2897-3.1107 2.9481-4.3572-.3792-1.3679-2.4469-2.1832-5.3914-2.1255zm-1.292 5.7424c-.4557-.0053-.9381.0476-1.4206.1553-1.9904.4434-3.5063 1.7044-3.3835 2.8151.1228 1.1115 1.8359 1.6517 3.827 1.2075 1.9904-.4441 3.5035-1.7044 3.3808-2.8151-.0889-.8082-1.0358-1.3455-2.4037-1.3628z" fill="url(#paint3_linear)"/>
  </g>
</svg>
