<svg width="32" height="33" viewBox="0 0 32 33" fill="none" xmlns="http://www.w3.org/2000/svg">
    <g id="folder-yaru-development" clip-path="url(#clip0)">
        <path id="ombra secondaria" opacity="0.1" d="M7.0332 2.79906C5.5062 2.79906 4.3316 2.85613 3.3652 3.05304C2.3947 3.25071 1.584 3.61914 1.0215 4.27175C0.4615 4.92152 0.2313 5.7388 0.1211 6.63107C0.0110004 7.52217 0.00830032 8.54192 4.76837e-07 9.79121V9.79329V9.79698V24.8009V24.8047V24.8067C0.0170008 27.2978 -0.0829995 28.9696 0.8418 30.2559C1.3181 30.9183 2.0489 31.3282 2.9043 31.5371C3.7502 31.7438 4.7512 31.7987 6.0332 31.7987H25.0332C26.5602 31.7987 27.7351 31.7416 28.7012 31.5447C29.6711 31.347 30.4802 30.9802 31.041 30.326C31.5993 29.6747 31.8266 28.8557 31.9316 27.9627C32.0365 27.071 32.0332 26.0481 32.0332 24.7986V11.7986C32.0332 10.5491 32.0332 9.52645 31.9316 8.63456C31.8266 7.74153 31.5993 6.92257 31.041 6.27132C30.4802 5.61708 29.6711 5.25009 28.7012 5.0525C27.7351 4.85558 26.5602 4.79817 25.0332 4.79817H14.4277L12.2852 2.79906H11.8906C9.8267 2.79898 7.9786 2.79906 7.5332 2.79906H7.0332Z" fill="#D0E3C9"/>
        <path id="secondario" d="M7.0332 2.29905C5.5193 2.29905 4.371 2.35879 3.4648 2.54323C2.5587 2.72767 1.8691 3.05408 1.4004 3.59792C0.9317 4.14176 0.7215 4.84677 0.6172 5.69161C0.5128 6.53645 0.5083 7.54523 0.5 8.79512V8.79719V23.801V23.8031C0.517 26.3029 0.462 27.8719 1.2481 28.9651C1.6411 29.5117 2.2475 29.8615 3.0234 30.051C3.7994 30.2408 4.7665 30.299 6.0332 30.299H25.0332C26.5471 30.299 27.6959 30.2393 28.6016 30.0548C29.5073 29.8704 30.1952 29.5448 30.6621 29.0002C31.129 28.4555 31.3361 27.7496 31.4356 26.9045C31.5346 26.0594 31.5336 25.049 31.5336 23.799V10.799C31.5336 9.54895 31.5336 8.53866 31.4356 7.6936C31.3356 6.8485 31.129 6.1425 30.6621 5.59784C30.1952 5.05313 29.5073 4.72766 28.6016 4.54315C27.6959 4.35871 26.5471 4.29897 25.0332 4.29897H14.2305L12.0879 2.29894H11.8906C9.5899 2.29886 7.0332 2.29894 7.0332 2.29894L7.0332 2.29905Z" fill="url(#paint0_linear)"/>
        <path id="primario" d="M16.1426 6.7989L14 8.79894H6.5C0.5329 8.79894 0.5002 9.79564 0.5 14.7247V14.7988C0.5 17.2565 0.519 19.7123 0.510001 22.1582C0.509801 22.1695 0.509801 22.1771 0.510001 22.1884C0.564001 23.9526 0.409401 25.8256 0.724801 27.7587C0.724801 27.7701 0.734801 27.7776 0.734801 27.789C1.0019 29.1257 2.1638 29.9825 3.3949 30.1386C5.207 30.4081 6.9517 30.2437 8.5766 30.3008C8.58662 30.301 8.59561 30.301 8.60559 30.3008C15.0998 30.2932 21.6141 30.3272 28.1212 30.1738C28.1572 30.1734 28.1932 30.1707 28.2286 30.1662C28.8018 30.0773 29.4349 29.9046 30.0118 29.547C30.5887 29.1895 31.1203 28.5952 31.2872 27.797C31.2872 27.7781 31.2972 27.757 31.2972 27.7366C31.5989 25.4556 31.4491 23.218 31.4983 21.0725C31.4984 21.0649 31.4984 21.0573 31.4983 21.0498C31.4873 17.5494 31.5183 14.0348 31.4713 10.5146C31.294 7.51257 30.4226 6.79983 25.5006 6.79983C25.5006 6.79983 18.4439 6.79975 16.1432 6.79983L16.1426 6.7989Z" fill="url(#paint1_linear)"/>
        <path id="contorno superiore del primario" opacity="0.3" d="M16.1426 6.79895L14 8.79899H6.5C0.5 8.79899 0.5 9.79899 0.5 14.799V15.799C0.5 10.799 0.5 9.799 6.5 9.799H14L16.1426 7.79897C18.4433 7.79886 25.5004 7.79897 25.5004 7.79897C31.5004 7.79897 31.5003 8.79893 31.5336 13.7989V12.799C31.5006 7.79903 31.5006 6.79895 25.5004 6.79895C25.5004 6.79895 18.4433 6.79884 16.1426 6.79895Z" fill="white"/>
        <path id="contorno" opacity="0.4" d="M7.0332 2.29905C5.5193 2.29905 4.371 2.35879 3.4648 2.54323C2.5587 2.72767 1.8691 3.05408 1.4004 3.59792C0.9317 4.14176 0.7215 4.84677 0.6172 5.69161C0.5128 6.53645 0.5083 7.54523 0.5 8.79512V8.79719V23.801V23.8031C0.517 26.3029 0.462 27.8719 1.2481 28.9651C1.6411 29.5117 2.2475 29.8615 3.0234 30.051C3.7994 30.2408 4.7665 30.299 6.0332 30.299H25.0332C26.5471 30.299 27.6959 30.2393 28.6016 30.0548C29.5073 29.8704 30.1952 29.5448 30.6621 29.0002C31.129 28.4555 31.3361 27.7496 31.4356 26.9045C31.5346 26.0594 31.5336 25.049 31.5336 23.799V10.799C31.5336 9.54895 31.5336 8.53866 31.4356 7.6936C31.3356 6.8485 31.129 6.1425 30.6621 5.59784C30.1952 5.05313 29.5073 4.72766 28.6016 4.54315C27.6959 4.35871 26.5471 4.29897 25.0332 4.29897H14.2305L12.0879 2.29894H11.8906C9.5899 2.29886 7.0332 2.29894 7.0332 2.29894L7.0332 2.29905Z" stroke="black" stroke-width="0.999999"/>
        <path id="ombra" opacity="0.2" d="M16.1426 5.79894L14 7.79897H6.5C0.5 7.79897 0.5 8.79893 0.5 13.7989V14.799C0.5 9.79899 0.5 8.79898 6.5 8.79898H14L16.1426 6.79895C18.4433 6.79884 25.5004 6.79895 25.5004 6.79895C31.5004 6.79895 31.5003 7.79903 31.5336 12.799V11.7989C31.5006 6.79894 31.5006 5.79894 25.5004 5.79894C25.5004 5.79894 18.4433 5.79886 16.1426 5.79894Z" fill="#3D5E31"/>
        <path id="contorno superiore del secondario" opacity="0.4" d="M7.0332 2.79906C1.0332 2.79906 1.0333 3.79906 1 8.79904V9.79905C1.033 4.79904 1.033 3.79908 7.0332 3.79908C7.0332 3.79908 9.5899 3.79896 11.8906 3.79908L14.0332 5.79899H25.0332C31.0332 5.79899 31.0332 6.79899 31.0332 11.799V10.7991C31.0332 5.79905 31.0332 4.79909 25.0332 4.79909H14.0332L11.8906 2.79906C9.5899 2.79898 7.0332 2.79906 7.0332 2.79906Z" fill="#CCE3C3"/>
        <path id="effetto piega" opacity="0.05" d="M31 20.7989L22 29.7989H26C31 29.7989 30.9999 28.799 31.0332 23.799L31 20.7989Z" fill="white"/>
        <path id="sviluppamento" d="M11.5429 15.6155C11.5429 15.6155 15.5941 13.5437 15.5941 16.8608V20.0718H15.189C15.189 20.0718 14.7838 20.0718 14.7838 20.4769V25.3383C14.7838 25.7435 15.189 25.7435 15.189 25.7435H17.6197C17.6197 25.7435 18.0248 25.7435 18.0248 25.3383V20.4769C18.0248 20.0718 17.6197 20.0718 17.6197 20.0718H17.2146V16.6801C17.2228 16.3017 17.4495 15.2865 18.4178 15.2865L19.2402 16.0206H20.4555V12.7796H19.2402L18.4178 13.3355C18.4178 13.3355 16.6028 12.6954 15.4685 12.7464C14.3341 12.8038 12.9041 13.7155 11.5429 15.6155Z" fill="#D0E3C9"/>
    </g>
    <defs>
        <linearGradient id="paint0_linear" x1="31.5336" y1="5.25049" x2="9.25" y2="20.7505" gradientUnits="userSpaceOnUse">
            <stop stop-color="#579140"/>
            <stop offset="1" stop-color="#76C22B"/>
        </linearGradient>
        <linearGradient id="paint1_linear" x1="0.999998" y1="6.79888" x2="32.0001" y2="30.7989" gradientUnits="userSpaceOnUse">
            <stop stop-color="#517D40"/>
            <stop offset="1" stop-color="		#7AAF65"/>
        </linearGradient>
        <clipPath id="clip0">
            <rect width="32" height="32" fill="white" transform="translate(0 0.743484)"/>
        </clipPath>
    </defs>
</svg>
