<svg fill="none" height="33" viewBox="0 0 32 33" width="32" xmlns="http://www.w3.org/2000/svg" xmlns:xlink="http://www.w3.org/1999/xlink">
  <linearGradient id="lg1">
    <stop offset="0" stop-color="#0fe4f5"/>
    <stop offset="1" stop-color="#eb36ae"/>
  </linearGradient>
  <linearGradient id="paint0_linear" gradientUnits="userSpaceOnUse" x1="16.0166" x2="16.0166" xlink:href="#lg1" y1="2.56952" y2="31.5692"/>
  <linearGradient id="paint1_linear" gradientUnits="userSpaceOnUse" x1="31.5336" x2="9.25" y1="5.02098" y2="20.521">
    <stop offset="0" stop-color="#f0ea4d"/>
    <stop offset="1" stop-color="#fc429d"/>
  </linearGradient>
  <linearGradient id="paint2_linear" gradientUnits="userSpaceOnUse" x1=".999998" x2="32.0001" y1="6.56937" y2="30.5694">
    <stop offset="0" stop-color="#2a2139"/>
    <stop offset="1" stop-color="#413260"/>
  </linearGradient>
  <linearGradient id="paint3_linear" gradientUnits="userSpaceOnUse" x1="15.9992" x2="15.9992" xlink:href="#lg1" y1="12.514" y2="25.514"/>
  <clipPath id="clip0">
    <path d="m0 0h32v33h-32z"/>
  </clipPath>
  <g clip-path="url(#clip0)">
    <path d="m7.0332 2.56955c-1.527 0-2.7016.05707-3.668.25399-.9705.19767-1.7812.56609-2.3437 1.2187-.56.64978-.7902 1.46705-.9004 2.35932-.1101001.8911-.11280016 1.91086-.1211 3.16014v.00208.00369 15.00393.0038.002c.0170003 2.491-.083 4.1629.8418 5.4492.4763.6624 1.2071 1.0723 2.0625 1.2812.8459.2067 1.8469.2616 3.1289.2616h19c1.527 0 2.7019-.0571 3.668-.254.9699-.1977 1.779-.5645 2.3398-1.2187.5583-.6513.7856-1.4703.8906-2.3634.1049-.8916.1016-1.9145.1016-3.164v-13c0-1.2495 0-2.27215-.1016-3.16405-.105-.89302-.3323-1.71199-.8906-2.36324-.5608-.65424-1.3699-1.02123-2.3398-1.21882-.9661-.19691-2.141-.25433-3.668-.25433h-10.6055l-2.1425-1.99911h-.3946c-2.0639-.00007-3.912 0-4.3574 0z" fill="url(#paint0_linear)" opacity=".1"/>
    <path d="m7.0332 2.06955c-1.5139 0-2.6622.05973-3.5684.24417-.9061.18445-1.5957.51086-2.0644 1.05469-.4687.54384-.6789 1.24885-.7832 2.09369-.1044.84484-.1089 1.85362-.1172 3.10351v.00208 15.00381.0021c.017 2.4997-.038 4.0688.7481 5.162.393.5466.9994.8964 1.7753 1.0859.776.1898 1.7431.248 3.0098.248h19c1.5139 0 2.6627-.0597 3.5684-.2442.9057-.1844 1.5936-.51 2.0605-1.0547s.674-1.2505.7735-2.0956c.099-.8451.098-1.8555.098-3.1055v-13.0001c0-1.24996 0-2.26024-.098-3.10531-.1-.8451-.3066-1.55109-.7735-2.09576-.4669-.54471-1.1548-.87017-2.0605-1.05469-.9057-.18444-2.0545-.24418-3.5684-.24418h-10.8027l-2.1426-2.00003h-.1973c-2.3007-.00008-4.8574 0-4.8574 0z" fill="url(#paint1_linear)"/>
    <path d="m16.1426 6.5694-2.1426 2.00004h-7.5c-5.9671 0-5.9998.99669-6 5.92576v.0741c0 2.4577.019 4.9135.010001 7.3594-.0002.0113-.0002.0189 0 .0302.054 1.7642-.1006 3.6371.2148 5.5703 0 .0114.01.0189.01.0303.267099 1.3367 1.428999 2.1935 2.660099 2.3496 1.8121.2695 3.5568.1051 5.1817.1622.01002.0001.01901.0001.02899 0 6.49421-.0076 13.00851.0264 19.51561-.127.036-.0004.072-.0031.1074-.0076.5732-.0889 1.2063-.2616 1.7832-.6192.5769-.3575 1.1085-.9518 1.2754-1.75 0-.0189.01-.04.01-.0604.3017-2.281.1519-4.5186.2011-6.6641.0001-.0076.0001-.0152 0-.0227-.011-3.5004.02-7.015-.027-10.5352-.1773-3.00204-1.0487-3.71478-5.9707-3.71478 0 0-7.0567-.00008-9.3574 0z" fill="url(#paint2_linear)"/>
    <path d="m16.1426 6.56945-2.1426 2.00003h-7.5c-6 0-6 1-6 6.00002v1c0-5 0-6.00001 6-6.00001h7.5l2.1426-2.00003c2.3007-.00011 9.3578 0 9.3578 0 6 0 5.9999.99997 6.0332 5.99994v-.9999c-.033-4.99997-.033-6.00005-6.0332-6.00005 0 0-7.0571-.00012-9.3578 0z" fill="#fff" opacity=".3"/>
    <path d="m7.0332 2.06955c-1.5139 0-2.6622.05973-3.5684.24417-.9061.18445-1.5957.51086-2.0644 1.05469-.4687.54384-.6789 1.24885-.7832 2.09369-.1044.84484-.1089 1.85362-.1172 3.10351v.00208 15.00381.0021c.017 2.4997-.038 4.0688.7481 5.162.393.5466.9994.8964 1.7753 1.0859.776.1898 1.7431.248 3.0098.248h19c1.5139 0 2.6627-.0597 3.5684-.2442.9057-.1844 1.5936-.51 2.0605-1.0547s.674-1.2505.7735-2.0956c.099-.8451.098-1.8555.098-3.1055v-13.0001c0-1.24996 0-2.26024-.098-3.10531-.1-.8451-.3066-1.55109-.7735-2.09576-.4669-.54471-1.1548-.87017-2.0605-1.05469-.9057-.18444-2.0545-.24418-3.5684-.24418h-10.8027l-2.1426-2.00003h-.1973c-2.3007-.00008-4.8574 0-4.8574 0z" opacity=".4" stroke="#000" stroke-width=".999999"/>
    <path d="m16.1426 5.56943-2.1426 2.00003h-7.5c-6 0-6 .99997-6 5.99994v1.0001c0-5.00002 0-6.00002 6-6.00002h7.5l2.1426-2.00003c2.3007-.00012 9.3578 0 9.3578 0 6 0 5.9999 1.00008 6.0332 6.00005v-1.0001c-.033-4.99997-.033-5.99997-6.0332-5.99997 0 0-7.0571-.00008-9.3578 0z" fill="#472806" opacity=".2"/>
    <path d="m7.0332 2.56955c-6 0-5.9999 1.00001-6.0332 5.99998v1.00001c.033-5.00001.033-5.99997 6.0332-5.99997 0 0 2.5567-.00012 4.8574 0l2.1426 1.99991h11c6 0 6 1.00001 6 6.00002v-.9999c0-5.00005 0-6.00002-6-6.00002h-11l-2.1426-2.00003c-2.3007-.00007-4.8574 0-4.8574 0z" fill="#e3d5c8" opacity=".4"/>
    <path d="m31 20.5694-9 9h4c5 0 4.9999-.9999 5.0332-6z" fill="#fff" opacity=".05"/>
    <path d="m15.9992 12.514c-2.0429 0-3.7143 1.6714-3.7143 3.7143v1.8571h-1.8571v7.4286h11.1428v-7.4286h-1.8571v-1.8571c0-2.0429-1.6714-3.7143-3.7143-3.7143zm0 1.8571c1.04 0 1.8571.8172 1.8571 1.8572v1.8571h-3.7142v-1.8571c0-1.04.8171-1.8572 1.8571-1.8572z" fill="url(#paint3_linear)"/>
  </g>
</svg>
