<svg height="32" viewBox="0 0 8.4666664 8.4666659" width="32" xmlns="http://www.w3.org/2000/svg" xmlns:xlink="http://www.w3.org/1999/xlink"><linearGradient id="a" gradientUnits="userSpaceOnUse" x1=".26458372" x2="8.46666664" y1="290.12095148" y2="296.47095116"><stop offset="0" stop-color="#666"/><stop offset="1" stop-color="#7a7a7a"/></linearGradient><linearGradient id="b" gradientUnits="userSpaceOnUse" x1=".0000004" x2="8.46666664" y1="296.73553448" y2="288.79803488"><stop offset="0" stop-color="#2c001e"/><stop offset=".10864977" stop-color="#2c001e"/><stop offset=".18689813" stop-color="#370626"/><stop offset=".2980746" stop-color="#55163b"/><stop offset=".37246177" stop-color="#772953"/><stop offset=".44700962" stop-color="#7c2b51"/><stop offset=".52428877" stop-color="#8b314b"/><stop offset=".59614229" stop-color="#8b314b"/><stop offset=".66876179" stop-color="#a33a41"/><stop offset=".79755175" stop-color="#c44732"/><stop offset=".91251218" stop-color="#e65524"/><stop offset="1" stop-color="#e65524"/></linearGradient><g transform="translate(0 -288.53336)"><path d="m1.8608674 289.06261c-.4040187 0-.7147983.0151-.97049158.0672-.25677811.0523-.47127581.14979-.62010392.32246-.14816666.17192-.20907374.38817-.23823082.62425-.0291306.23577-.029845.50557-.032041.83611v.00053.001 3.96978.001.00053c.004498.65909-.0219604 1.10145.22272624 1.44177.12602103.17527.31937852.28372.54570309.339.22381103.0547.48865899.0692.82785469.0692h5.027083c.4040187 0 .7148777-.0151.9704916-.0672.2566194-.0523.4706937-.14936.619072-.32246.1477169-.17232.2078567-.389.235638-.62528.027755-.23592.026882-.50655.026882-.83716v-3.43958c0-.33059 0-.60118-.026882-.83716-.027781-.23628-.087921-.45297-.235638-.62528-.1483783-.1731-.3624526-.27019-.619072-.32247-.2556139-.0521-.5664729-.0673-.9704916-.0673h-2.8060384l-.5668697-.52894h-.1044046c-.5460735-.00002-1.0350499 0-1.1528954 0z" opacity=".1"/><path d="m1.8608674 288.93032c-.4005527 0-.7043737.0158-.94413908.0646-.23973895.0488-.4221956.13516-.5462058.27905s-.17962562.33044-.20722166.55397c-.0276225.22353-.0288131.49044-.0310092.82114v.00053 3.96978.00053c.004498.6614-.0100542 1.07656.19793478 1.36581.10398124.14462.26442457.23717.46971476.28732.2053167.0501.4611952.0656.7963429.0656h5.027083c.4005527 0 .704506-.0158.9441391-.0646s.42164-.13494.5451739-.27905c.123534-.14412.1783292-.3309.2046552-.55449.026194-.22359.025929-.49093.025929-.82166v-3.43958c0-.33073 0-.59806-.025929-.82165-.026458-.2236-.081121-.41038-.2046552-.55449-.1235339-.14412-.3055408-.23024-.5451739-.27906-.2396331-.0488-.5435864-.0646-.9441391-.0646h-2.8582142l-.5668962-.52917h-.052202c-.6087268-.00002-1.285187 0-1.285187 0z" fill="url(#b)"/><path d="m4.2710627 290.12095-.5668963.52916h-1.9843748c-1.57879511 0-1.58744698.26371-1.5874999 1.56787v.0196c0 .65026.005027 1.30003.002646 1.94717-.00005291.003-.00005291.005 0 .008.0142875.46677-.0266171.96232.0568325 1.47381 0 .003.002646.005.002646.008.0706702.35368.37808956.58038.70381808.62167.47945132.0713.94106982.0278 1.37099132.0429.00265.00005.00503.00005.00767 0 1.718257-.002 3.4418321.007 5.1635022-.0336.00953-.00009.01905-.00079.028416-.002.1516592-.0235.3191669-.0692.471805-.16382.1526381-.0946.2932906-.25184.3374496-.46302 0-.005.00265-.0106.00265-.016.079825-.60352.04019-1.19554.053208-1.7632.0000265-.002.0000265-.004 0-.006-.00291-.92613.00529-1.85605-.00714-2.78742-.046911-.7943-.2774686-.98289-1.5797477-.98289 0 0-1.8670851-.00002-2.4758119 0z" fill="url(#a)"/><path d="m4.2710627 290.12095-.5668963.52916h-1.9843748c-1.5874999 0-1.5874999.26459-1.5874999 1.5875v.26459c0-1.32292 0-1.5875 1.5874999-1.5875h1.9843748l.5668963-.52917c.6087268-.00003 2.4759177 0 2.4759177 0 1.5874999 0 1.5874735.26458 1.5962841 1.5875v-.26458c-.00873-1.32292-.00873-1.5875-1.5962841-1.5875 0 0-1.8671909-.00003-2.4759177 0z" fill="#fff" opacity=".3"/><path d="m1.8608674 288.93032c-.4005527 0-.7043737.0158-.94413908.0646-.23973895.0488-.4221956.13516-.5462058.27905s-.17962562.33044-.20722166.55397c-.0276225.22353-.0288131.49044-.0310092.82114v.00053 3.96978.00053c.004498.6614-.0100542 1.07656.19793478 1.36581.10398124.14462.26442457.23717.46971476.28732.2053167.0501.4611952.0656.7963429.0656h5.027083c.4005527 0 .704506-.0158.9441391-.0646s.42164-.13494.5451739-.27905c.123534-.14412.1783292-.3309.2046552-.55449.026194-.22359.025929-.49093.025929-.82166v-3.43958c0-.33073 0-.59806-.025929-.82165-.026458-.2236-.081121-.41038-.2046552-.55449-.1235339-.14412-.3055408-.23024-.5451739-.27906-.2396331-.0488-.5435864-.0646-.9441391-.0646h-2.8582142l-.5668962-.52917h-.052202c-.6087268-.00002-1.285187 0-1.285187 0z" fill="none" opacity=".4" stroke="#000" stroke-width=".264583"/><path d="m4.2710627 289.85636-.5668963.52917h-1.9843748c-1.5874999 0-1.5874999.26458-1.5874999 1.5875v.26458c0-1.32291 0-1.5875 1.5874999-1.5875h1.9843748l.5668963-.52916c.6087268-.00003 2.4759177 0 2.4759177 0 1.5874999 0 1.5874735.26458 1.5962841 1.5875v-.26459c-.00873-1.32291-.00873-1.5875-1.5962841-1.5875 0 0-1.8671909-.00002-2.4759177 0z" fill="#491706" opacity=".2"/><path d="m1.8608674 289.06261c-1.58749988 0-1.58747342.26459-1.59628404 1.5875v.26459c.008731-1.32292.008731-1.5875 1.59628404-1.5875 0 0 .6764602-.00003 1.285187 0l.5668962.52916h2.9104165c1.5874999 0 1.5874999.26459 1.5874999 1.5875v-.26458c0-1.32292 0-1.5875-1.5874999-1.5875h-2.9104165l-.5668962-.52917c-.6087268-.00002-1.285187 0-1.285187 0z" fill="#fec589" opacity=".4"/><g fill="#fff"><path d="m8.2020828 293.82511-2.3812498 2.38125h1.0583332c1.3229166 0 1.3228902-.26458 1.3317008-1.5875z" opacity=".05"/><path d="m2.3796624 291.97303v2.91042h.2645833v-.26459h.2645833v.26459h.2645833 2.1166665.2645834v-.26459h.2645833v.26459h.2645833v-2.91042h-.2645833v.26458h-.2645833v-.13229-.13229h-.2645834-2.1166665-.2645833v.13229.13229h-.2645833v-.26458zm.7937499.26458h2.1166665v1.05834h-2.1166665zm-.5291666.26459h.2645833v.26458h-.2645833zm2.9104165 0h.2645833v.26458h-.2645833zm-2.9104165.52916h.2645833v.0439.17621.0444h-.2645833zm2.9104165 0h.2645833v.26459h-.2645833zm-2.3812499.52917h2.1166665v1.05833h-2.1166665zm-.5291666 0h.2645833v.26458h-.2645833zm2.9104165 0h.2645833v.26458h-.2645833zm-2.9104165.52917h.2645833v.26458h-.2645833zm2.9104165 0h.2645833v.26458h-.2645833z" opacity=".75"/></g></g></svg>