<svg height="16" width="16" xmlns="http://www.w3.org/2000/svg">
  <path d="m3.994 2c-1.258.015-2.179-.03-2.931.385-.377.207-.676.56-.84.998-.165.437-.223.96-.223 1.617v7c0 .658.058 1.179.223 1.617.164.439.463.79.84.998.752.416 1.673.37 2.931.385h8.012c1.258-.015 2.179.03 2.932-.385a1.88 1.88 0 0 0 .838-.998c.164-.438.224-.96.224-1.617v-7c0-.658-.06-1.179-.225-1.617a1.88 1.88 0 0 0 -.838-.998c-.752-.416-1.673-.37-2.931-.385h-8.01zm.006 1h8c1.26.015 2.087.058 2.453.26.184.1.29.214.387.474s.16.674.16 1.266v7c0 .592-.063 1.006-.16 1.266-.098.26-.203.373-.387.474-.366.202-1.193.245-2.453.26h-8zm-2.166 0h.332c.667 0 .834.2.834 1s-.167 1-.834 1h-.332c-.667 0-.834-.2-.834-1s.167-1 .834-1zm0 3h.332c.667 0 .834.2.834 1s-.167 1-.834 1h-.332c-.667 0-.834-.2-.834-1s.167-1 .834-1zm0 3h.332c.667 0 .834.2.834 1s-.167 1-.834 1h-.332c-.667 0-.834-.2-.834-1s.167-1 .834-1zm0 3h.332c.667 0 .834.2.834 1s-.167 1-.834 1h-.332c-.667 0-.834-.2-.834-1s.167-1 .834-1z" fill="#808080"/>
</svg>
