<svg height="256" viewBox="0 0 67.73 67.73" width="256" xmlns="http://www.w3.org/2000/svg" xmlns:xlink="http://www.w3.org/1999/xlink"><linearGradient id="a" gradientUnits="userSpaceOnUse" x1="88" x2="488" y1="88" y2="488"><stop offset="0" stop-opacity=".588235"/><stop offset=".88" stop-opacity="0"/><stop offset="1"/></linearGradient><filter id="b" color-interpolation-filters="sRGB" height="1.087725" width="1.105998" x="-.052999" y="-.043863"><feGaussianBlur stdDeviation="8.4801079"/></filter><filter id="c" color-interpolation-filters="sRGB" height="1.021931" width="1.0265" x="-.01325" y="-.010966"><feGaussianBlur stdDeviation="2.120027"/></filter><filter id="d" color-interpolation-filters="sRGB" height="1.018398" width="1.034509" x="-.017254" y="-.009199"><feGaussianBlur stdDeviation="1.1654682"/></filter><g transform="translate(0 -229.26665)"><path d="m20.703991 233.54601c-9.338465 0-10.343273.95918-10.297505 10.31653v19.31535 19.31534c-.04577 9.35736.95904 10.31653 10.297505 10.31653h25.969365c9.338465 0 10.297506-.95906 10.297506-10.31653v-19.31534-19.31535c0-9.35746-.959041-10.31653-10.297506-10.31653z" fill="none" opacity=".2" stroke="#000" stroke-width="1.058281"/><path d="m189.84323 74c-70.59344 0-78.18921 7.250835-77.84323 77.98706v146.01294 146.01294c-.34598 70.73623 7.24979 77.98706 77.84323 77.98706h196.31354c70.59344 0 76.00668-7.27384 77.84323-77.98706v-146.01294-146.01294c0-70.737067-7.24979-77.98706-77.84323-77.98706z" filter="url(#c)" opacity=".1" transform="matrix(.13228516 0 0 .13228516 -4.409451 224.02148)"/><path d="m189.84323 74c-70.59344 0-78.18921 7.250835-77.84323 77.98706v146.01294 146.01294c-.34598 70.73623 7.24979 77.98706 77.84323 77.98706h196.31354c70.59344 0 77.84323-7.24999 77.84323-77.98706v-146.01294-146.01294c0-70.737067-7.24979-77.98706-77.84323-77.98706z" fill="url(#a)" filter="url(#b)" opacity=".3" transform="matrix(.13228516 0 0 .13228516 -4.409451 224.02148)"/><path d="m20.703991 233.54601c-9.338465 0-10.343273.95918-10.297505 10.31653v19.31535 19.31534c-.04577 9.35736.95904 10.31653 10.297505 10.31653h25.969365c9.338465 0 10.297506-.95906 10.297506-10.31653v-19.31534-19.31535c0-9.35746-.959041-10.31653-10.297506-10.31653z" fill="#e3dfd5"/><path d="m152.55273 240.17383h23.85938c4.41209 0 8.32951-.05641 11.80664-.22461s6.5143-.44634 9.16602-.89258c2.65171-.44624 4.91764-1.06042 6.85351-1.89453.96794-.41706 1.8526-.88921 2.66211-1.42383.80952-.53462 1.5442-1.13096 2.20899-1.79687.66478-.66592 1.26116-1.40196 1.79492-2.21289.53376-.81094 1.00545-1.69633 1.42187-2.66602.83285-1.93938 1.443-4.21042 1.88867-6.86719.44568-2.65677.72648-5.69959.89454-9.18359.16805-3.484.2246-7.40901.2246-11.83008v-73.00781-73.005861c0-4.421065-.05655-8.346079-.2246-11.830078-.16806-3.483999-.44886-6.526823-.89454-9.183594-.44567-2.656771-1.05582-4.927806-1.88867-6.867188-.41642-.96969-.88811-1.855077-1.42187-2.666015-.27885-.423656-.62378-.77307-.9375-1.15625l-139.218753 136.724606s57.519443 57.71755 81.804683 79.98438z" fill="#a6d74f" transform="matrix(.26457031 0 0 .26457031 0 229.26665)"/><path d="m39.333984 132.56836v68.61328c-.021624 4.42102.017597 8.34611.173828 11.83008.156232 3.48397.429476 6.52683.871094 9.18359s1.052183 4.9278 1.886719 6.86719c.417268.96969.890122 1.85507 1.425781 2.66602.53566.81094 1.135242 1.54697 1.802735 2.21289.667492.66592 1.40403 1.26224 2.216797 1.79687.812766.53463 1.700392 1.00676 2.671874 1.42383 1.942965.83413 4.216525 1.44632 6.875 1.89258 2.658476.44625 5.702077.72632 9.183594.89453 3.481518.16821 7.402363.22461 11.814453.22461h71.271481c-29.09533-28.83018-94.012378-91.89802-110.193356-107.60547z" fill="#6dc7f1" transform="matrix(.26457031 0 0 .26457031 0 229.26665)"/><g fill="#fff" transform="translate(.091029 .02382)"><path d="m40.98669 292.78594 15.874219-15.87421v5.94856c-.01384 8.99428-1.006077 9.92565-10.099734 9.92565z" opacity=".4"/><path d="m33.578721 233.52219v59.26375h12.984614c9.338464 0 10.054627-.96212 10.297574-10.31643v-19.31544-19.31544c0-9.35747-.95911-10.31644-10.297574-10.31644z" opacity=".1"/><path d="m10.296533 263.15407v19.31544c-.04577 9.35735.959108 10.31643 10.297574 10.31643h25.969228c9.338464 0 10.054627-.96212 10.297574-10.31643v-19.31544z" opacity=".2"/></g><path d="m56.951224 273.76069h-46.564375v-10.58229-10.58333h46.564375v10.58333z" fill="#fff" opacity=".15"/><g transform="translate(.038493 .145752)"><path d="m44.423428 292.71768h-7.681323l-26.374869-25.78837v-3.8435-3.66627z" fill="#f9f9f9" fill-opacity=".996078"/><path d="m56.260367 236.71714-45.891581 46.13548c.000135-.15433-.0024-.29196-.0016-.45111v-7.1434l41.355697-41.57578c2.542703.34164 3.863899 1.16178 4.537484 3.03481z" fill="#fdc92b"/></g><g transform="translate(-.166552 1.215913)"><path d="m344.62023 104c-44.76554 0-81.05518 36.28966-81.05518 81.05519 0 8.88851 1.49956 17.4171 4.14327 25.41957.26885.81383.48141 1.64776.77513 2.44993 2.06461 6.83163 32.32582 106.11802 76.22181 195.15231.0123 0 .0303-.007.0445-.0201.0175-.009.0336-.027.0496-.0448.0175-.0175.0338-.0345.0504-.0462.0175-.0123.0338-.0236.0473-.0236 46.90025-97.24086 76.71206-197.46607 76.71206-197.46607h-.0236c2.64047-7.99809 4.08981-16.53778 4.08981-25.42064.00021-44.76582-36.28945-81.05548-81.05497-81.05548z" filter="url(#d)" opacity=".1" transform="matrix(.13251702 0 0 .1189802 -11.813529 231.49846)"/><path d="m33.854538 243.63444c-5.932203 0-10.741192 4.31775-10.741192 9.64396 0 1.05756.198721 2.07229.549044 3.02443.03562.0968.06379.19605.102728.29149.273594.81283 4.283718 12.62595 10.100683 23.21926.0026 0 .004-.001.0058-.002.0026-.001.0045-.003.0066-.005.0026-.002.0045-.004.0066-.006.0026-.001.0045-.003.0064-.003 6.215075-11.56973 10.165647-23.49455 10.165647-23.49455h-.0032c.349923-.95162.541967-1.96767.541967-3.02455.000026-5.32625-4.808962-9.644-10.741167-9.644z" fill="#f22c42"/><path d="m33.854498 243.63444c-5.932203 0-10.741112 4.31769-10.741112 9.64391 0 .0889.0029.17709.0056.26538.125149-5.22867 4.881848-9.43337 10.735416-9.43337 5.853569 0 10.610294 4.20467 10.735441 9.43337.0026-.0883.0058-.17653.0058-.26538.000026-5.32625-4.808936-9.64391-10.74114-9.64391z" fill="#fff" opacity=".4"/><circle cx="34.09367" cy="253.73898" fill="#bc1938" r="5.291406"/></g><path d="m20.70406 233.54601c-9.338466 0-10.343342.95934-10.297574 10.3167v.52914c-.04577-9.35736.959108-10.3167 10.297574-10.3167h25.969228c9.338467 0 10.297574.95923 10.297574 10.3167v-.52914c0-9.35747-.959107-10.3167-10.297574-10.3167z" fill="#fff" opacity=".6"/><path d="m46.585042 292.82279c9.33847 0 10.34334-.95934 10.29757-10.3167v-.52914c.0458 9.35736-.9591 10.3167-10.29757 10.3167h-25.96923c-9.33846 0-10.29757-.95923-10.29757-10.3167v.52914c0 9.35747.95911 10.3167 10.29757 10.3167z" opacity=".2"/></g></svg>