<?xml version="1.0" encoding="UTF-8" standalone="no"?>
<svg
   xmlns:dc="http://purl.org/dc/elements/1.1/"
   xmlns:cc="http://creativecommons.org/ns#"
   xmlns:rdf="http://www.w3.org/1999/02/22-rdf-syntax-ns#"
   xmlns:svg="http://www.w3.org/2000/svg"
   xmlns="http://www.w3.org/2000/svg"
   xmlns:xlink="http://www.w3.org/1999/xlink"
   xmlns:sodipodi="http://sodipodi.sourceforge.net/DTD/sodipodi-0.dtd"
   xmlns:inkscape="http://www.inkscape.org/namespaces/inkscape"
   height="48"
   viewBox="0 0 12.7 12.7"
   width="48"
   version="1.1"
   id="svg37"
   sodipodi:docname="application-x-gzip.svg"
   inkscape:version="0.92.5 (2060ec1f9f, 2020-04-08)">
  <metadata
     id="metadata43">
    <rdf:RDF>
      <cc:Work
         rdf:about="">
        <dc:format>image/svg+xml</dc:format>
        <dc:type
           rdf:resource="http://purl.org/dc/dcmitype/StillImage" />
      </cc:Work>
    </rdf:RDF>
  </metadata>
  <defs
     id="defs41">
    <linearGradient
       gradientTransform="matrix(0.26458333,0,0,0.26458333,-84.66591,-16.007297)"
       inkscape:collect="always"
       xlink:href="#linearGradient927-3-6"
       id="linearGradient925"
       x1="344"
       y1="61"
       x2="344"
       y2="107"
       gradientUnits="userSpaceOnUse" />
    <linearGradient
       inkscape:collect="always"
       id="linearGradient927-3-6">
      <stop
         style="stop-color:#ffffff;stop-opacity:1;"
         offset="0"
         id="stop923-3" />
      <stop
         id="stop933-6"
         offset="0.125"
         style="stop-color:#ffffff;stop-opacity:0.09803922" />
      <stop
         id="stop931-7"
         offset="0.92500001"
         style="stop-color:#ffffff;stop-opacity:0.09803922" />
      <stop
         style="stop-color:#000000;stop-opacity:0.49803922"
         offset="1"
         id="stop925-5" />
    </linearGradient>
  </defs>
  <sodipodi:namedview
     pagecolor="#ffffff"
     bordercolor="#666666"
     borderopacity="1"
     objecttolerance="10"
     gridtolerance="10"
     guidetolerance="10"
     inkscape:pageopacity="0"
     inkscape:pageshadow="2"
     inkscape:window-width="1920"
     inkscape:window-height="1016"
     id="namedview39"
     showgrid="false"
     inkscape:zoom="4.9166667"
     inkscape:cx="-12.610169"
     inkscape:cy="24"
     inkscape:window-x="0"
     inkscape:window-y="27"
     inkscape:window-maximized="1"
     inkscape:current-layer="svg37" />
  <linearGradient
     id="a"
     gradientUnits="userSpaceOnUse"
     x1="6.35075752"
     x2="6.35075752"
     y1="284.43232313"
     y2="296.60315631">
    <stop
       offset="0"
       stop-color="#fff"
       id="stop2" />
    <stop
       offset=".125"
       stop-color="#fff"
       stop-opacity=".098039"
       id="stop4" />
    <stop
       offset=".92500001"
       stop-color="#fff"
       stop-opacity=".098039"
       id="stop6" />
    <stop
       offset="1"
       stop-opacity=".498039"
       id="stop8" />
  </linearGradient>
  <path
     style="color:#000000;font-style:normal;font-variant:normal;font-weight:normal;font-stretch:normal;font-size:medium;line-height:normal;font-family:sans-serif;font-variant-ligatures:normal;font-variant-position:normal;font-variant-caps:normal;font-variant-numeric:normal;font-variant-alternates:normal;font-feature-settings:normal;text-indent:0;text-align:start;text-decoration:none;text-decoration-line:none;text-decoration-style:solid;text-decoration-color:#000000;letter-spacing:normal;word-spacing:normal;text-transform:none;writing-mode:lr-tb;direction:ltr;text-orientation:mixed;dominant-baseline:auto;baseline-shift:baseline;text-anchor:start;white-space:normal;shape-padding:0;clip-rule:nonzero;display:inline;overflow:visible;visibility:visible;opacity:0.1;isolation:auto;mix-blend-mode:normal;color-interpolation:sRGB;color-interpolation-filters:linearRGB;solid-color:#000000;solid-opacity:1;vector-effect:none;fill:#000000;fill-opacity:1;fill-rule:nonzero;stroke:none;stroke-width:0.52916664;stroke-linecap:butt;stroke-linejoin:miter;stroke-miterlimit:4;stroke-dasharray:none;stroke-dashoffset:0;stroke-opacity:1;marker:none;color-rendering:auto;image-rendering:auto;shape-rendering:auto;text-rendering:auto;enable-background:accumulate"
     d="m 4.162403,0.39686916 c -0.5882111,0 -1.0513696,0.013541 -1.4324701,0.077515 C 2.3488297,0.53835616 2.036976,0.65834866 1.80854,0.88624517 1.5801067,1.1141419 1.4595387,1.4258552 1.3961631,1.8071192 1.3327875,2.1883836 1.3204155,2.6525532 1.3232995,3.2421737 v 3.2401121 3.2416626 c -0.00286,0.5887146 0.00955,1.0526496 0.072864,1.4335036 0.063376,0.381265 0.1839436,0.692978 0.4123769,0.920875 0.228436,0.227896 0.5402897,0.34789 0.9213929,0.411861 0.3811032,0.06397 0.844259,0.07752 1.4324701,0.07752 H 8.538363 c 0.5882111,0 1.0511261,-0.01352 1.4314387,-0.07752 0.3803123,-0.064 0.6912133,-0.184399 0.9188053,-0.412377 0.227594,-0.227978 0.347451,-0.53947 0.411345,-0.920359 0.06389,-0.380886 0.07752,-0.844114 0.07752,-1.4335036 V 6.4822858 3.2406232 c 0,-0.5893895 -0.01363,-1.0526162 -0.07752,-1.4335043 C 11.236062,1.4262311 11.116201,1.1147406 10.888607,0.88676157 10.661015,0.65878286 10.350114,0.53838366 9.9698017,0.47438386 c -0.3803126,-0.064 -0.8432276,-0.077515 -1.4314387,-0.077515 z"
     id="path1020"
     inkscape:connector-curvature="0"
     sodipodi:nodetypes="sccsccccccsscccscsccsss" />
  <path
     style="color:#000000;display:inline;overflow:visible;visibility:visible;fill:#4747bf;fill-opacity:1;fill-rule:nonzero;stroke:none;stroke-width:0.26458332;marker:none;enable-background:accumulate"
     d="m 4.162403,0.13228576 c -0.5881265,0 -1.0516447,0.014105 -1.4324701,0.078031 -0.3812937,0.064004 -0.692859,0.1838648 -0.9213929,0.411861 C 1.5799665,0.85021546 1.4595652,1.1611052 1.3961631,1.5425351 1.3328457,1.9234504 1.3204155,2.3874984 1.3232995,2.9770729 V 6.2177025 9.459365 c -0.00286,0.588964 0.00958,1.052853 0.072864,1.433504 0.063402,0.381431 0.1838007,0.692319 0.4123769,0.920358 0.2285365,0.227995 0.5400966,0.347856 0.9213929,0.411861 0.3808254,0.06393 0.8443436,0.07803 1.4324701,0.07803 H 8.538363 c 0.5881211,0 1.0508853,-0.01408 1.4309197,-0.07803 0.3804603,-0.06402 0.6915123,-0.18366 0.9193243,-0.411861 0.227735,-0.228118 0.347422,-0.539284 0.411345,-0.920358 0.06387,-0.380709 0.07752,-0.844268 0.07752,-1.433504 V 6.2177025 2.9760399 c 0,-0.5892361 -0.01365,-1.0527969 -0.07752,-1.4335043 C 11.236028,1.1614626 11.116341,0.85029806 10.888606,0.62217826 10.660794,0.39398016 10.349742,0.27434216 9.9692823,0.21031726 9.5892479,0.14636396 9.1264837,0.13228576 8.5383626,0.13228576 Z"
     id="path949"
     inkscape:connector-curvature="0" />
  <g
     style="display:inline;stroke-width:12.00000191;enable-background:new"
     transform="matrix(0.02204861,0,0,0.02204861,14.067275,4.4317647)"
     id="g972">
    <path
       inkscape:connector-curvature="0"
       style="color:#000000;display:inline;overflow:visible;visibility:visible;opacity:0.6;fill:#ffffff;fill-opacity:1;fill-rule:nonzero;stroke:none;stroke-width:180.00003052;stroke-linecap:butt;stroke-linejoin:miter;stroke-miterlimit:4;stroke-dasharray:none;stroke-dashoffset:0;stroke-opacity:1;marker:none;enable-background:accumulate"
       d="M -373.99458,69.000001 V 147 c 0,3.324 2.676,6 6,6 h 36 c 3.324,0 6,-2.676 6,-6 V 69.000001 Z m 12,47.999999 h 24 v 24 h -24 z"
       id="path968"
       sodipodi:nodetypes="cssssccccccc" />
    <path
       id="path970"
       transform="matrix(3,0,0,3,-805.99459,-387)"
       d="m 152,68 h -8 v 8 h 8 z m 0,8 v 8 h 8 v -8 z m 0,8 h -8 v 8 h 8 z m 0,8 v 8 h 8 v -8 z m 0,8 h -8 v 8 h 8 z m 0,8 v 8 h 8 v -8 z m 0,8 h -8 v 8 h 8 z m 0,8 v 8 h 8 v -8 z m 0,8 h -8 v 8 h 8 z m 0,8 v 8 h 8 v -8 z"
       style="color:#000000;display:inline;overflow:visible;visibility:visible;opacity:0.6;fill:#ffffff;fill-opacity:1;fill-rule:nonzero;stroke:none;stroke-width:60.00001144;stroke-linecap:butt;stroke-linejoin:miter;stroke-miterlimit:4;stroke-dasharray:none;stroke-dashoffset:0;stroke-opacity:1;marker:none;enable-background:accumulate"
       inkscape:connector-curvature="0"
       sodipodi:nodetypes="cccccccccccccccccccccccccccccccccccccccccccccccccc" />
  </g>
  <path
     style="color:#000000;display:inline;overflow:visible;visibility:visible;opacity:0.07999998;fill:#ffffff;fill-opacity:1;fill-rule:nonzero;stroke:none;stroke-width:0.26458332;marker:none;enable-background:accumulate"
     d="M 1.5878828,6.2177025 V 9.459365 c -0.011456,2.339453 0.2397892,2.579171 2.5745202,2.579171 h 4.3759596 c 2.3347304,0 2.5745204,-0.239691 2.5745204,-2.579171 V 6.2177025 Z"
     id="path1006"
     inkscape:connector-curvature="0" />
  <path
     style="color:#000000;display:inline;overflow:visible;visibility:visible;opacity:0.07999998;fill:#ffffff;fill-opacity:1;fill-rule:nonzero;stroke:none;stroke-width:0.26458332;marker:none;enable-background:accumulate"
     d="M 6.3503828,0.39686916 V 12.038536 h 2.1879798 c 2.3347304,0 2.5745204,-0.239691 2.5745204,-2.579171 V 6.2177025 2.9760399 c 0,-2.33948024 -0.23979,-2.57917074 -2.5745204,-2.57917074 z"
     id="path1013"
     inkscape:connector-curvature="0" />
  <g
     aria-label="gzip"
     style="font-style:normal;font-variant:normal;font-weight:normal;font-stretch:normal;font-size:2.46944427px;line-height:1.25;font-family:Ubuntu;-inkscape-font-specification:'Ubuntu, Normal';font-variant-ligatures:normal;font-variant-caps:normal;font-variant-numeric:normal;font-feature-settings:normal;text-align:start;letter-spacing:0px;word-spacing:0px;writing-mode:lr-tb;text-anchor:start;display:inline;fill:#ffffff;fill-opacity:1;stroke:none;stroke-width:0.26458332;enable-background:new"
     id="text930">
    <path
       d="m 5.0181231,10.602376 q -0.029633,0.01976 -0.1160639,0.05186 -0.083961,0.02963 -0.1975556,0.02963 -0.1160638,0 -0.2197805,-0.03704 -0.1012472,-0.03704 -0.1778,-0.113594 -0.076553,-0.07902 -0.1210028,-0.195086 -0.04445,-0.116064 -0.04445,-0.276578 0,-0.1407584 0.041981,-0.2568223 0.04198,-0.1185334 0.1210028,-0.2024945 0.081492,-0.08643 0.1975555,-0.1333499 0.1160639,-0.049389 0.2617611,-0.049389 0.1605139,0 0.2790472,0.024694 0.1210028,0.022225 0.2024944,0.041981 V 10.63201 q 0,0.296333 -0.1531055,0.429683 -0.1531056,0.13335 -0.4642555,0.13335 -0.1210028,0 -0.2296584,-0.01976 -0.1061861,-0.01976 -0.1852083,-0.04692 l 0.041981,-0.200025 q 0.069144,0.02716 0.1679222,0.04692 0.1012472,0.02222 0.2099027,0.02222 0.2049639,0 0.2938639,-0.08149 0.09137,-0.08149 0.09137,-0.259292 z m -0.00247,-0.9532053 q -0.034572,-0.00988 -0.093839,-0.017286 -0.056797,-0.00988 -0.155575,-0.00988 -0.1852083,0 -0.2864555,0.1210028 -0.098778,0.1210027 -0.098778,0.3210274 0,0.111125 0.027164,0.190148 0.029633,0.07902 0.076553,0.13088 0.049389,0.05186 0.111125,0.07655 0.064205,0.02469 0.1308805,0.02469 0.091369,0 0.1679222,-0.02469 0.076553,-0.02716 0.1210028,-0.06174 z"
       style="stroke-width:0.26458332"
       id="path832" />
    <path
       d="M 6.4923791,9.6195374 Q 6.4405207,9.6763346 6.3540902,9.7800512 6.2701291,9.8837679 6.1713513,10.00971 6.075043,10.135651 5.9762652,10.27394 5.8799569,10.412229 5.8058736,10.538171 h 0.706261 v 0.192616 H 5.5317652 V 10.577682 Q 5.5910319,10.469026 5.6774625,10.338146 5.763893,10.207265 5.8577319,10.078854 5.9540402,9.9479734 6.0429402,9.834379 6.1343096,9.7183151 6.2009846,9.6392929 H 5.5663375 V 9.4466763 h 0.9260416 z"
       style="stroke-width:0.26458332"
       id="path834" />
    <path
       d="M 7.0331842,10.730787 H 6.8035259 V 9.4466763 H 7.0331842 Z M 6.9171204,9.2145485 q -0.061736,0 -0.1061861,-0.039511 -0.041981,-0.041981 -0.041981,-0.111125 0,-0.069144 0.041981,-0.1086556 0.04445,-0.041981 0.1061861,-0.041981 0.061736,0 0.1037166,0.041981 0.04445,0.039511 0.04445,0.1086556 0,0.069144 -0.04445,0.111125 -0.041981,0.039511 -0.1037166,0.039511 z"
       style="stroke-width:0.26458332"
       id="path836" />
    <path
       d="m 8.3197607,10.091201 q 0,-0.2247192 -0.111125,-0.345722 -0.111125,-0.1210028 -0.2963333,-0.1210028 -0.1037167,0 -0.1629833,0.00741 -0.056797,0.00741 -0.091369,0.017286 v 0.8099773 q 0.041981,0.03457 0.1210028,0.06668 0.079022,0.0321 0.1728611,0.0321 0.098778,0 0.1679222,-0.03457 0.071614,-0.03704 0.1160639,-0.09878 0.04445,-0.0642 0.064205,-0.148166 0.019756,-0.08643 0.019756,-0.185209 z m 0.2395361,0 q 0,0.145697 -0.039511,0.26917 -0.037042,0.123472 -0.111125,0.212372 -0.074083,0.0889 -0.1827389,0.138289 -0.1061861,0.04939 -0.244475,0.04939 -0.111125,0 -0.1975555,-0.02963 -0.083961,-0.02963 -0.1259417,-0.0568 v 0.513644 H 7.4282913 V 9.4861874 q 0.081492,-0.019756 0.2024945,-0.041981 0.1234722,-0.024694 0.283986,-0.024694 0.1481667,0 0.2667,0.046919 0.1185333,0.046919 0.2024945,0.13335 0.083961,0.08643 0.1284111,0.2123722 0.046919,0.1234722 0.046919,0.279047 z"
       style="stroke-width:0.26458332"
       id="path838" />
  </g>
  <path
     id="path901"
     d="m 4.1627787,0.26457746 c -0.5859489,0 -1.0443687,0.01446 -1.4107663,0.075964 -0.3663977,0.061504 -0.6470412,0.1731269 -0.8495612,0.3751709 C 1.6999312,0.9177565 1.5881791,1.1978737 1.52728,1.5642393 1.4663808,1.9306052 1.4530935,2.3893144 1.4559668,2.9765563 V 6.2177025 9.459365 c -0.00286,0.586934 0.010425,1.045569 0.071313,1.4118 0.060899,0.366366 0.1726486,0.646483 0.3751712,0.848527 0.2025227,0.202044 0.483161,0.313666 0.8495612,0.375171 0.3663976,0.06151 0.8248175,0.07597 1.4107663,0.07597 h 4.3759596 c 0.5859463,0 1.0436595,-0.01445 1.4092161,-0.07597 0.3655558,-0.06151 0.6457518,-0.173085 0.8474948,-0.375171 0.201742,-0.202084 0.313227,-0.482349 0.374652,-0.848527 0.06143,-0.366178 0.07545,-0.82467 0.07545,-1.4118 V 6.2177025 2.9760399 c 0,-0.5871297 -0.01402,-1.045622 -0.07545,-1.4118003 C 11.108676,1.1980613 10.997191,0.917797 10.795449,0.71571266 10.593707,0.51362846 10.31351,0.40205866 9.9479543,0.34054176 9.5823978,0.27902506 9.1246846,0.26457746 8.5387383,0.26457746 Z"
     style="color:#000000;display:inline;overflow:visible;visibility:visible;opacity:0.3;fill:none;fill-opacity:1;fill-rule:nonzero;stroke:url(#linearGradient925);stroke-width:0.26458332;stroke-opacity:1;marker:none;enable-background:accumulate"
     inkscape:connector-curvature="0" />
</svg>
