<?xml version="1.0" encoding="UTF-8" standalone="no"?>
<svg
   xmlns:dc="http://purl.org/dc/elements/1.1/"
   xmlns:cc="http://creativecommons.org/ns#"
   xmlns:rdf="http://www.w3.org/1999/02/22-rdf-syntax-ns#"
   xmlns:svg="http://www.w3.org/2000/svg"
   xmlns="http://www.w3.org/2000/svg"
   xmlns:xlink="http://www.w3.org/1999/xlink"
   xmlns:sodipodi="http://sodipodi.sourceforge.net/DTD/sodipodi-0.dtd"
   xmlns:inkscape="http://www.inkscape.org/namespaces/inkscape"
   height="48"
   viewBox="0 0 12.699375 12.699375"
   width="48"
   version="1.1"
   id="svg47"
   sodipodi:docname="application-vnd.iccprofile.svg"
   inkscape:version="0.92.5 (2060ec1f9f, 2020-04-08)">
  <metadata
     id="metadata53">
    <rdf:RDF>
      <cc:Work
         rdf:about="">
        <dc:format>image/svg+xml</dc:format>
        <dc:type
           rdf:resource="http://purl.org/dc/dcmitype/StillImage" />
        <dc:title></dc:title>
      </cc:Work>
    </rdf:RDF>
  </metadata>
  <defs
     id="defs51">
    <clipPath
       clipPathUnits="userSpaceOnUse"
       id="clipPath994">
      <path
         style="color:#000000;display:inline;overflow:visible;visibility:visible;fill:#cdcdcd;fill-opacity:1;fill-rule:nonzero;stroke:none;stroke-width:2;stroke-miterlimit:4;stroke-dasharray:none;stroke-opacity:1;marker:none;enable-background:accumulate"
         d="m 335.73108,62 c -8.82418,0 -9.77365,0.90635 -9.7304,9.74838 V 84 96.25162 c -0.0433,8.84203 0.90622,9.74838 9.7304,9.74838 h 16.53919 c 8.82418,0 9.7304,-0.90625 9.7304,-9.74838 V 84 71.74838 C 362.00067,62.90625 361.09445,62 352.27027,62 Z"
         id="path996"
         inkscape:connector-curvature="0"
         sodipodi:nodetypes="scccssscsss" />
    </clipPath>
    <linearGradient
       inkscape:collect="always"
       xlink:href="#linearGradient4246"
       id="linearGradient951"
       gradientUnits="userSpaceOnUse"
       gradientTransform="matrix(0,-0.02997086,-0.02997,0,15.739287,13.625372)"
       x1="512"
       y1="397.99393"
       x2="-1.0000001e-06"
       y2="125.99394" />
    <linearGradient
       inkscape:collect="always"
       id="linearGradient4246">
      <stop
         style="stop-color:#76c22b;stop-opacity:1"
         offset="0"
         id="stop4248" />
      <stop
         style="stop-color:#a6d74f;stop-opacity:1"
         offset="1"
         id="stop4250" />
    </linearGradient>
    <linearGradient
       id="linearGradient7723">
      <stop
         id="stop7721"
         style="stop-color:#ff7c00;stop-opacity:1"
         offset="0" />
      <stop
         id="stop7715"
         style="stop-color:#ffb977;stop-opacity:1"
         offset="1" />
    </linearGradient>
    <linearGradient
       id="linearGradient7723-6">
      <stop
         id="stop7721-2"
         style="stop-color:#00c8ff;stop-opacity:1"
         offset="0" />
      <stop
         id="stop7715-9"
         style="stop-color:#6bdfff;stop-opacity:1"
         offset="1" />
    </linearGradient>
    <clipPath
       clipPathUnits="userSpaceOnUse"
       id="clipPath994-1">
      <path
         style="color:#000000;display:inline;overflow:visible;visibility:visible;fill:#cdcdcd;fill-opacity:1;fill-rule:nonzero;stroke:none;stroke-width:2;stroke-miterlimit:4;stroke-dasharray:none;stroke-opacity:1;marker:none;enable-background:accumulate"
         d="m 335.73108,62 c -8.82418,0 -9.77365,0.90635 -9.7304,9.74838 V 84 96.25162 c -0.0433,8.84203 0.90622,9.74838 9.7304,9.74838 h 16.53919 c 8.82418,0 9.7304,-0.90625 9.7304,-9.74838 V 84 71.74838 C 362.00067,62.90625 361.09445,62 352.27027,62 Z"
         id="path996-2"
         inkscape:connector-curvature="0"
         sodipodi:nodetypes="scccssscsss" />
    </clipPath>
    <clipPath
       clipPathUnits="userSpaceOnUse"
       id="clipPath994-6">
      <path
         style="color:#000000;display:inline;overflow:visible;visibility:visible;fill:#cdcdcd;fill-opacity:1;fill-rule:nonzero;stroke:none;stroke-width:2;stroke-miterlimit:4;stroke-dasharray:none;stroke-opacity:1;marker:none;enable-background:accumulate"
         d="m 335.73108,62 c -8.82418,0 -9.77365,0.90635 -9.7304,9.74838 V 84 96.25162 c -0.0433,8.84203 0.90622,9.74838 9.7304,9.74838 h 16.53919 c 8.82418,0 9.7304,-0.90625 9.7304,-9.74838 V 84 71.74838 C 362.00067,62.90625 361.09445,62 352.27027,62 Z"
         id="path996-0"
         inkscape:connector-curvature="0"
         sodipodi:nodetypes="scccssscsss" />
    </clipPath>
    <clipPath
       clipPathUnits="userSpaceOnUse"
       id="clipPath994-62">
      <path
         style="color:#000000;display:inline;overflow:visible;visibility:visible;fill:#cdcdcd;fill-opacity:1;fill-rule:nonzero;stroke:none;stroke-width:2;stroke-miterlimit:4;stroke-dasharray:none;stroke-opacity:1;marker:none;enable-background:accumulate"
         d="m 335.73108,62 c -8.82418,0 -9.77365,0.90635 -9.7304,9.74838 V 84 96.25162 c -0.0433,8.84203 0.90622,9.74838 9.7304,9.74838 h 16.53919 c 8.82418,0 9.7304,-0.90625 9.7304,-9.74838 V 84 71.74838 C 362.00067,62.90625 361.09445,62 352.27027,62 Z"
         id="path996-6"
         inkscape:connector-curvature="0"
         sodipodi:nodetypes="scccssscsss" />
    </clipPath>
    <linearGradient
       inkscape:collect="always"
       xlink:href="#linearGradient927"
       id="linearGradient1004"
       x1="344"
       y1="62"
       x2="344"
       y2="106"
       gradientUnits="userSpaceOnUse" />
    <linearGradient
       inkscape:collect="always"
       id="linearGradient927">
      <stop
         style="stop-color:#ffffff;stop-opacity:1;"
         offset="0"
         id="stop923" />
      <stop
         id="stop933"
         offset="0.125"
         style="stop-color:#ffffff;stop-opacity:0.09803922" />
      <stop
         id="stop931"
         offset="0.92500001"
         style="stop-color:#ffffff;stop-opacity:0.09803922" />
      <stop
         style="stop-color:#ffffff;stop-opacity:0.49803922"
         offset="1"
         id="stop925" />
    </linearGradient>
    <clipPath
       clipPathUnits="userSpaceOnUse"
       id="clipPath994-0">
      <path
         style="color:#000000;display:inline;overflow:visible;visibility:visible;fill:#cdcdcd;fill-opacity:1;fill-rule:nonzero;stroke:none;stroke-width:2;stroke-miterlimit:4;stroke-dasharray:none;stroke-opacity:1;marker:none;enable-background:accumulate"
         d="m 335.73108,62 c -8.82418,0 -9.77365,0.90635 -9.7304,9.74838 V 84 96.25162 c -0.0433,8.84203 0.90622,9.74838 9.7304,9.74838 h 16.53919 c 8.82418,0 9.7304,-0.90625 9.7304,-9.74838 V 84 71.74838 C 362.00067,62.90625 361.09445,62 352.27027,62 Z"
         id="path996-23"
         inkscape:connector-curvature="0"
         sodipodi:nodetypes="scccssscsss" />
    </clipPath>
    <clipPath
       clipPathUnits="userSpaceOnUse"
       id="clipPath1248-2-7">
      <path
         inkscape:connector-curvature="0"
         d="M 152.41481,67.378572 C 136.74605,125.83626 93.957107,160.36032 93.957107,192.64686 c 0,32.28655 26.171153,58.45769 58.457703,58.45769 32.28655,0 58.4577,-26.17114 58.4577,-58.45769 0,-32.28654 -42.78894,-66.8106 -58.4577,-125.268288"
         style="clip-rule:evenodd;fill:#ffffff;fill-rule:evenodd;stroke-width:6.28509808;stroke-linejoin:round;stroke-miterlimit:2"
         id="path1250-6-7" />
    </clipPath>
    <filter
       inkscape:collect="always"
       style="color-interpolation-filters:sRGB"
       id="filter2119">
      <feBlend
         inkscape:collect="always"
         mode="multiply"
         in2="BackgroundImage"
         id="feBlend2121" />
    </filter>
    <linearGradient
       inkscape:collect="always"
       xlink:href="#linearGradient4338"
       id="linearGradient1024"
       gradientUnits="userSpaceOnUse"
       gradientTransform="matrix(0,-0.02997086,0.02997,0,-3.0395089,13.625372)"
       x1="459.03448"
       y1="419.23337"
       x2="35.310345"
       y2="207.36522" />
    <linearGradient
       inkscape:collect="always"
       id="linearGradient4338">
      <stop
         style="stop-color:#f2f2f2;stop-opacity:1"
         offset="0"
         id="stop4340" />
      <stop
         style="stop-color:#f9f9f9;stop-opacity:1"
         offset="1"
         id="stop4342" />
    </linearGradient>
  </defs>
  <sodipodi:namedview
     pagecolor="#ffffff"
     bordercolor="#666666"
     borderopacity="1"
     objecttolerance="10"
     gridtolerance="10"
     guidetolerance="10"
     inkscape:pageopacity="0"
     inkscape:pageshadow="2"
     inkscape:window-width="792"
     inkscape:window-height="668"
     id="namedview49"
     showgrid="false"
     inkscape:zoom="10.270833"
     inkscape:cx="24"
     inkscape:cy="24"
     inkscape:window-x="43"
     inkscape:window-y="375"
     inkscape:window-maximized="0"
     inkscape:current-layer="svg47" />
  <linearGradient
     id="a"
     gradientTransform="matrix(0,-0.11988932,-0.11988589,0,67.016455,292.54831)"
     gradientUnits="userSpaceOnUse"
     x1="529.65503"
     x2="-35.310001"
     y1="401.58401"
     y2="119.093">
    <stop
       offset="0"
       stop-color="#76c22b"
       id="stop2" />
    <stop
       offset="1"
       stop-color="#a6d74f"
       id="stop4" />
  </linearGradient>
  <linearGradient
     id="b"
     gradientUnits="userSpaceOnUse"
     x1="88"
     x2="488"
     y1="88"
     y2="488">
    <stop
       offset="0"
       stop-opacity=".588235"
       id="stop7" />
    <stop
       offset=".88"
       stop-opacity="0"
       id="stop9" />
    <stop
       offset="1"
       id="stop11" />
  </linearGradient>
  <filter
     id="c"
     height="1.022"
     width="1.026"
     x="-0.0099999998"
     y="-0.0099999998"
     style="color-interpolation-filters:sRGB">
    <feGaussianBlur
       stdDeviation="2.12"
       id="feGaussianBlur14" />
  </filter>
  <path
     style="color:#000000;font-style:normal;font-variant:normal;font-weight:normal;font-stretch:normal;font-size:medium;line-height:normal;font-family:sans-serif;font-variant-ligatures:normal;font-variant-position:normal;font-variant-caps:normal;font-variant-numeric:normal;font-variant-alternates:normal;font-feature-settings:normal;text-indent:0;text-align:start;text-decoration:none;text-decoration-line:none;text-decoration-style:solid;text-decoration-color:#000000;letter-spacing:normal;word-spacing:normal;text-transform:none;writing-mode:lr-tb;direction:ltr;text-orientation:mixed;dominant-baseline:auto;baseline-shift:baseline;text-anchor:start;white-space:normal;shape-padding:0;clip-rule:nonzero;display:inline;overflow:visible;visibility:visible;opacity:0.1;isolation:auto;mix-blend-mode:normal;color-interpolation:sRGB;color-interpolation-filters:linearRGB;solid-color:#000000;solid-opacity:1;vector-effect:none;fill:#000000;fill-opacity:1;fill-rule:nonzero;stroke:none;stroke-width:0.52914065;stroke-linecap:butt;stroke-linejoin:miter;stroke-miterlimit:4;stroke-dasharray:none;stroke-dashoffset:0;stroke-opacity:1;marker:none;color-rendering:auto;image-rendering:auto;shape-rendering:auto;text-rendering:auto;enable-background:accumulate"
     d="m 4.1621981,0.39685584 c -0.5881821,0 -1.0513178,0.013541 -1.4323995,0.077511 C 2.3487141,0.53833584 2.0368757,0.65832224 1.808451,0.88620753 1.5800289,1.1140931 1.4594669,1.425791 1.3960944,1.8070363 1.3327214,2.1882819 1.3203504,2.6524287 1.3232344,3.2420201 V 6.481973 9.723476 c -0.00286,0.588686 0.00955,1.052598 0.07286,1.433434 0.063372,0.381246 0.1839345,0.692944 0.4123566,0.920829 0.2284247,0.227885 0.5402631,0.347873 0.9213476,0.411841 0.3810844,0.06397 0.8442174,0.07751 1.4323995,0.07751 h 4.3757443 c 0.5881821,0 1.0510744,-0.01352 1.4313677,-0.07751 0.3802929,-0.064 0.6911789,-0.18439 0.9187599,-0.412357 0.227583,-0.227967 0.347434,-0.539443 0.411325,-0.920313 0.06389,-0.380868 0.07751,-0.844073 0.07751,-1.433434 V 6.481973 3.24047 c 0,-0.5893605 -0.01363,-1.0525643 -0.07751,-1.4334337 C 11.235504,1.4261671 11.115653,1.1146919 10.88807,0.88672414 10.660489,0.65875664 10.349603,0.53836334 9.9693101,0.47436674 9.5890168,0.41036974 9.1261245,0.39685584 8.5379424,0.39685584 Z"
     id="path1020"
     inkscape:connector-curvature="0"
     sodipodi:nodetypes="sccsccccccsscccscsccsss" />
  <path
     style="color:#000000;display:inline;overflow:visible;visibility:visible;opacity:0.2;fill:none;fill-opacity:1;fill-rule:nonzero;stroke:#000000;stroke-width:0.52914065;stroke-miterlimit:4;stroke-dasharray:none;stroke-opacity:1;marker:none;enable-background:accumulate"
     d="m 4.1623595,0.39685584 c -2.334616,0 -2.5858176,0.2397933 -2.5743749,2.57913186 V 6.2174026 9.4588175 C 1.5765286,11.798157 1.8277435,12.03795 4.1623595,12.03795 h 4.3757787 c 2.3346158,0 2.5743748,-0.239767 2.5743748,-2.5791325 V 6.2174026 2.9759877 c 0,-2.33936506 -0.239759,-2.57913186 -2.5743748,-2.57913186 z"
     id="path958"
     inkscape:connector-curvature="0"
     sodipodi:nodetypes="scccssscsss" />
  <path
     style="color:#000000;display:inline;overflow:visible;visibility:visible;fill:url(#linearGradient1024);fill-opacity:1;fill-rule:nonzero;stroke:none;stroke-width:0.26457033;marker:none;enable-background:accumulate"
     d="m 4.1623595,0.39685584 c -2.334616,0 -2.5858176,0.2397933 -2.5743749,2.57913186 V 6.2174026 9.4588175 C 1.5765286,11.798157 1.8277435,12.03795 4.1623595,12.03795 h 4.3757787 c 2.3346158,0 2.5743748,-0.239767 2.5743748,-2.5791325 V 6.2174026 2.9759877 c 0,-2.33936506 -0.239759,-2.57913186 -2.5743748,-2.57913186 z"
     id="path964"
     inkscape:connector-curvature="0"
     sodipodi:nodetypes="scccssscsss" />
  <g
     transform="matrix(0.03636549,0,0,0.03636549,0.80743072,0.26096564)"
     clip-path="url(#clipPath1248-2-7)"
     style="display:inline;opacity:1;filter:url(#filter2119);enable-background:new"
     id="g50-3-6">
    <g
       transform="matrix(0.5,0,0,0.5,-80.050872,141.94904)"
       style="enable-background:new"
       id="g48-5-7">
      <path
         inkscape:connector-curvature="0"
         d="m 622.248,-130.2479 c -1.59052,1.59052 65.75205,158.248 65.75205,158.248 L 622.248,186.2481 c 0,0 -158.248,-83.64916 -158.248,-158.248 0,-74.598837 158.248,-158.248 158.248,-158.248 z"
         style="fill:#46a926"
         id="path24-6-3" />
      <path
         inkscape:connector-curvature="0"
         d="m 305.75211,186.2481 c 1.59041,-1.59052 -65.75205,-158.248 -65.75205,-158.248 l 65.75205,-158.248 c 0,0 158.24789,83.649163 158.24789,158.248 0,74.59884 -158.24789,158.248 -158.24789,158.248 z"
         style="fill:#f22c42"
         id="path26-2-6" />
      <path
         inkscape:connector-curvature="0"
         d="M 622.24789,-130.2479 C 620.65748,-128.65738 464,-195.99995 464,-195.99995 L 305.752,-130.2479 464,28.0001 Z"
         style="fill:#fdc92b;fill-opacity:1"
         id="path28-9-5" />
      <path
         inkscape:connector-curvature="0"
         d="M 305.75211,186.2481 464,251.7965 c 0,0 156.65748,-67.13892 158.248,-65.5484 L 464,28.0001 Z"
         style="fill:#2f5fdd"
         id="path30-1-6" />
      <path
         inkscape:connector-curvature="0"
         transform="matrix(2,0,0,2,212.96576,-228.76206)"
         d="m 226.91602,27.083984 c -0.15724,-0.110142 -0.27772,-0.253333 -0.4375,-0.361328 -1.75605,-1.186864 -3.66632,-2.244212 -5.74414,-3.185547 -2.07783,-0.941334 -4.32311,-1.767151 -6.74805,-2.488281 -2.42495,-0.72113 -5.03073,-1.338982 -7.82813,-1.865234 -2.79739,-0.526253 -5.78724,-0.961659 -8.98242,-1.31836 -3.19518,-0.3567 -6.59459,-0.633229 -10.21289,-0.845703 -7.2366,-0.424948 -15.3447,-0.58789 -24.42578,-0.58789 h -37.01758 c -0.013,28.620251 10.94271,57.24544 32.87305,79.175781 z"
         style="fill:#a6d74f"
         id="path32-2-3" />
      <path
         inkscape:connector-curvature="0"
         transform="matrix(2,0,0,2,212.96576,-228.76206)"
         d="M 245.56836,128.0957 V 99.369141 c 0,-9.072611 -0.1621,-17.172938 -0.58789,-24.402344 -0.2129,-3.614703 -0.49227,-7.011234 -0.84961,-10.203125 -0.35734,-3.191891 -0.79319,-6.178251 -1.32031,-8.972656 -0.52713,-2.794405 -1.14495,-5.396115 -1.86719,-7.81836 -0.72224,-2.422245 -1.5495,-4.664823 -2.49219,-6.740234 -0.94269,-2.075411 -2.00098,-3.984379 -3.18945,-5.738281 -1.18848,-1.753903 -2.50721,-3.352827 -3.9668,-4.810547 -1.32678,-1.32508 -2.80812,-2.499289 -4.3789,-3.59961 l -68.52344,68.523438 c 23.97621,23.976238 55.95005,34.740568 87.17578,32.488278 z"
         style="fill:#76c22b"
         id="path34-7-9" />
      <path
         inkscape:connector-curvature="0"
         transform="matrix(2,0,0,2,212.96576,-228.76206)"
         d="m 125.41797,240.43164 h 37.11914 c 9.08108,0 17.18918,-0.16098 24.42578,-0.58594 3.6183,-0.21247 7.01771,-0.49095 10.21289,-0.84765 3.19518,-0.35671 6.18503,-0.7921 8.98242,-1.31836 2.7974,-0.52626 5.40318,-1.1441 7.82813,-1.86524 2.42494,-0.72113 4.67022,-1.54498 6.74805,-2.48633 2.07782,-0.94134 3.98809,-2.00062 5.74414,-3.1875 0.1391,-0.094 0.24368,-0.2188 0.38086,-0.31445 l -68.56836,-68.56836 c -21.93032,21.93031 -32.88604,50.55357 -32.87305,79.17383 z"
         style="fill:#1463a5"
         id="path36-0-4" />
      <path
         inkscape:connector-curvature="0"
         transform="matrix(2,0,0,2,212.96576,-228.76206)"
         d="m 226.85938,229.82617 c 1.59445,-1.11175 3.09158,-2.30228 4.43554,-3.64453 1.45959,-1.45772 2.77832,-3.05859 3.9668,-4.8125 1.18847,-1.75391 2.24676,-3.66092 3.18945,-5.73633 0.94269,-2.07541 1.76995,-4.31799 2.49219,-6.74023 0.72224,-2.42225 1.34006,-5.02396 1.86719,-7.81836 0.52712,-2.7944 0.96297,-5.78273 1.32031,-8.97461 0.35734,-3.19189 0.63671,-6.58843 0.84961,-10.20313 0.42579,-7.22938 0.58789,-15.32977 0.58789,-24.40234 v -28.72266 c -31.2579,-2.28316 -63.27517,8.48413 -87.27734,32.48633 z"
         style="fill:#2b898f"
         id="path38-9-8" />
      <path
         inkscape:connector-curvature="0"
         transform="matrix(2,0,0,2,212.96576,-228.76206)"
         d="m 5.5683594,128.66602 v 28.82812 c 0,9.07257 0.1620995,17.17296 0.5878906,24.40234 0.2128956,3.6147 0.4922655,7.01124 0.8496094,10.20313 0.3573439,3.19188 0.7931865,6.18021 1.3203125,8.97461 0.527126,2.7944 1.1449457,5.39611 1.8671871,7.81836 0.722242,2.42224 1.547543,4.66482 2.490235,6.74023 0.942691,2.07541 2.002932,3.98242 3.191406,5.73633 1.188474,1.75391 2.505252,3.35478 3.964844,4.8125 1.309869,1.30819 2.776645,2.46372 4.324218,3.55274 L 92.742188,161.15625 C 68.765976,137.18004 36.794081,126.41373 5.5683594,128.66602 Z"
         style="fill:#9b33ae"
         id="path40-3-1" />
      <path
         inkscape:connector-curvature="0"
         transform="matrix(2,0,0,2,212.96576,-228.76206)"
         d="m 24.164062,229.73438 c 0.176893,0.12447 0.314009,0.2845 0.494141,0.40624 1.756042,1.18688 3.666314,2.24616 5.744141,3.1875 2.077826,0.94135 4.323102,1.7652 6.748047,2.48633 2.424944,0.72114 5.028775,1.33898 7.826171,1.86524 2.797397,0.52626 5.787241,0.96165 8.982422,1.31836 3.195182,0.3567 6.596543,0.63518 10.214844,0.84765 7.236602,0.42496 15.344701,0.58594 24.425781,0.58594 h 37.011721 c 0.039,-28.65414 -10.91284,-57.31909 -32.869142,-79.27539 z"
         style="fill:#7839b7"
         id="path42-6-2" />
      <path
         inkscape:connector-curvature="0"
         transform="matrix(2,0,0,2,212.96576,-228.76206)"
         d="M 125.71875,16.431641 H 88.599609 c -9.08108,0 -17.189179,0.162942 -24.425781,0.58789 -3.618301,0.212474 -7.019662,0.489003 -10.214844,0.845703 -3.195181,0.356701 -6.185025,0.792107 -8.982422,1.31836 -2.797396,0.526252 -5.401227,1.144104 -7.826171,1.865234 -2.424945,0.72113 -4.670221,1.546947 -6.748047,2.488281 -2.077827,0.941335 -3.988099,1.998683 -5.744141,3.185547 -0.139473,0.09427 -0.245283,0.218552 -0.382812,0.314453 L 92.84375,95.607422 c 21.93031,-21.930341 32.88799,-50.55553 32.875,-79.175781 z"
         style="fill:#fdc92b"
         id="path44-0-9" />
      <path
         inkscape:connector-curvature="0"
         transform="matrix(2,0,0,2,212.96576,-228.76206)"
         d="m 24.275391,27.037109 c -1.594042,1.11155 -3.091883,2.304543 -4.435547,3.646485 -1.459592,1.45772 -2.77637,3.056644 -3.964844,4.810547 -1.188474,1.753902 -2.248715,3.66287 -3.191406,5.738281 -0.942692,2.075411 -1.767993,4.317989 -2.490235,6.740234 -0.7222414,2.422245 -1.3400611,5.023955 -1.8671871,7.81836 -0.527126,2.794405 -0.9629686,5.780765 -1.3203125,8.972656 C 6.6485155,67.955563 6.3691456,71.352094 6.15625,74.966797 5.7304589,82.196203 5.5683594,90.29653 5.5683594,99.369141 V 128.0918 C 36.826258,130.37496 68.841577,119.60963 92.84375,95.607422 Z"
         style="fill:#f34f17"
         id="path46-6-3" />
    </g>
  </g>
  <path
     style="color:#000000;display:inline;overflow:visible;visibility:visible;opacity:0.2;fill:#ffffff;fill-opacity:1;fill-rule:nonzero;stroke:none;stroke-width:0.26457033;marker:none;enable-background:accumulate"
     d="m 1.5878046,6.2174026 v 3.241503 C 1.5763486,11.798244 1.8275821,12.03795 4.1621981,12.03795 h 4.3757443 c 2.3346156,0 2.5743936,-0.239679 2.5743936,-2.5790444 v -3.241503 z"
     id="path1006"
     inkscape:connector-curvature="0" />
  <path
     style="color:#000000;display:inline;overflow:visible;visibility:visible;opacity:0.1;fill:#ffffff;fill-opacity:1;fill-rule:nonzero;stroke:none;stroke-width:0.26457033;marker:none;enable-background:accumulate"
     d="M 6.3500703,0.39685584 V 12.03795 h 2.1878721 c 2.3346156,0 2.5743936,-0.239679 2.5743936,-2.5790444 v -3.241503 -3.241503 c 0,-2.33936506 -0.239778,-2.57904376 -2.5743936,-2.57904376 z"
     id="path1013"
     inkscape:connector-curvature="0" />
  <path
     transform="matrix(0.26457031,0,0,0.26457031,-84.662117,-16.006503)"
     sodipodi:nodetypes="scccssscsss"
     inkscape:connector-curvature="0"
     id="path990"
     d="m 335.73108,62 c -8.82418,0 -9.77365,0.90635 -9.7304,9.74838 V 84 96.25162 c -0.0433,8.84203 0.90622,9.74838 9.7304,9.74838 h 16.53919 c 8.82418,0 9.7304,-0.90625 9.7304,-9.74838 V 84 71.74838 C 362.00067,62.90625 361.09445,62 352.27027,62 Z"
     style="color:#000000;display:inline;overflow:visible;visibility:visible;opacity:0.4;fill:none;fill-opacity:1;fill-rule:nonzero;stroke:url(#linearGradient1004);stroke-width:2;stroke-miterlimit:4;stroke-dasharray:none;stroke-opacity:1;marker:none;enable-background:accumulate"
     clip-path="url(#clipPath994-0)" />
</svg>
