<?xml version="1.0" encoding="UTF-8" standalone="no"?>
<svg
   xmlns:dc="http://purl.org/dc/elements/1.1/"
   xmlns:cc="http://creativecommons.org/ns#"
   xmlns:rdf="http://www.w3.org/1999/02/22-rdf-syntax-ns#"
   xmlns:svg="http://www.w3.org/2000/svg"
   xmlns="http://www.w3.org/2000/svg"
   xmlns:xlink="http://www.w3.org/1999/xlink"
   xmlns:sodipodi="http://sodipodi.sourceforge.net/DTD/sodipodi-0.dtd"
   xmlns:inkscape="http://www.inkscape.org/namespaces/inkscape"
   height="48"
   viewBox="0 0 12.699375 12.699375"
   width="48"
   version="1.1"
   id="svg47"
   sodipodi:docname="application-x-mobipocket-ebook.svg"
   inkscape:version="0.92.5 (2060ec1f9f, 2020-04-08)">
  <metadata
     id="metadata53">
    <rdf:RDF>
      <cc:Work
         rdf:about="">
        <dc:format>image/svg+xml</dc:format>
        <dc:type
           rdf:resource="http://purl.org/dc/dcmitype/StillImage" />
        <dc:title></dc:title>
      </cc:Work>
    </rdf:RDF>
  </metadata>
  <defs
     id="defs51">
    <linearGradient
       id="linearGradient1664-5-6-3-3"
       gradientUnits="userSpaceOnUse"
       x1="178.16689"
       x2="-13.92912"
       y1="137.53882"
       y2="128.91682">
      <stop
         offset="0"
         stop-color="#5995e8"
         id="stop23-0-1-7-0" />
      <stop
         offset="1"
         stop-color="#63a0e6"
         stop-opacity=".01"
         id="stop25-3-5-4-7" />
    </linearGradient>
    <linearGradient
       gradientTransform="matrix(2.0740741,0,0,2.0740741,26.028193,-329.45087)"
       id="linearGradient900"
       gradientUnits="userSpaceOnUse"
       x1="62.612"
       x2="64.120003"
       y1="164.32201"
       y2="248.312">
      <stop
         offset="0"
         stop-color="#ff10ff"
         stop-opacity=".988235"
         id="stop8" />
      <stop
         offset="1"
         stop-color="#ff0bff"
         stop-opacity=".009524"
         id="stop10" />
    </linearGradient>
    <linearGradient
       gradientTransform="matrix(2.0740741,0,0,2.0740741,-5.4471398,-305.84438)"
       id="linearGradient2440"
       gradientUnits="userSpaceOnUse"
       x1="61.344002"
       x2="26.404003"
       y1="242.29001"
       y2="278.42102">
      <stop
         offset="0"
         stop-color="#2ffffe"
         stop-opacity="0"
         id="stop18" />
      <stop
         offset="1"
         stop-color="#14ffff"
         stop-opacity=".886275"
         id="stop20" />
    </linearGradient>
    <linearGradient
       gradientTransform="matrix(2.0740741,0,0,2.0740741,295.45752,134.61809)"
       id="linearGradient2430"
       gradientUnits="userSpaceOnUse"
       x1="-246.84694"
       x2="-278.93494"
       y1="71.92395"
       y2="115.02795">
      <stop
         offset="0"
         stop-color="#fff755"
         stop-opacity="0"
         id="stop13" />
      <stop
         offset="1"
         stop-color="#fffa3b"
         stop-opacity=".992157"
         id="stop15" />
    </linearGradient>
    <filter
       style="color-interpolation-filters:sRGB"
       id="d"
       height="1.0219311"
       width="1.0265"
       x="-0.01325"
       y="-0.010966">
      <feGaussianBlur
         stdDeviation="2.120027"
         id="feGaussianBlur17" />
    </filter>
    <linearGradient
       id="linearGradient5699"
       gradientUnits="userSpaceOnUse"
       x1="88"
       x2="488"
       y1="88"
       y2="488">
      <stop
         offset="0"
         stop-opacity=".588235"
         id="stop7-3" />
      <stop
         offset=".88"
         stop-opacity="0"
         id="stop9-6" />
      <stop
         offset="1"
         id="stop11-7" />
    </linearGradient>
    <filter
       style="color-interpolation-filters:sRGB"
       id="c-5"
       height="1.087725"
       width="1.105998"
       x="-0.052999001"
       y="-0.043862998">
      <feGaussianBlur
         stdDeviation="8.4801079"
         id="feGaussianBlur14-3" />
    </filter>
    <linearGradient
       id="a-5"
       gradientTransform="matrix(0,-0.02361746,-0.02361678,0,1.5678614,12.173795)"
       gradientUnits="userSpaceOnUse"
       x1="529.65515"
       x2="-35.310345"
       y1="401.58368"
       y2="119.09284">
      <stop
         offset="0"
         stop-color="#da1636"
         id="stop2-6" />
      <stop
         offset="1"
         stop-color="#f22c42"
         id="stop4-2" />
    </linearGradient>
    <linearGradient
       inkscape:collect="always"
       xlink:href="#linearGradient927"
       id="linearGradient1004"
       x1="344"
       y1="62"
       x2="344"
       y2="106"
       gradientUnits="userSpaceOnUse" />
    <linearGradient
       inkscape:collect="always"
       id="linearGradient927">
      <stop
         style="stop-color:#ffffff;stop-opacity:1;"
         offset="0"
         id="stop923" />
      <stop
         id="stop933"
         offset="0.125"
         style="stop-color:#ffffff;stop-opacity:0.09803922" />
      <stop
         id="stop931"
         offset="0.92500001"
         style="stop-color:#ffffff;stop-opacity:0.09803922" />
      <stop
         style="stop-color:#ffffff;stop-opacity:0.49803922"
         offset="1"
         id="stop925" />
    </linearGradient>
    <clipPath
       clipPathUnits="userSpaceOnUse"
       id="clipPath994">
      <path
         style="color:#000000;display:inline;overflow:visible;visibility:visible;fill:#cdcdcd;fill-opacity:1;fill-rule:nonzero;stroke:none;stroke-width:2;stroke-miterlimit:4;stroke-dasharray:none;stroke-opacity:1;marker:none;enable-background:accumulate"
         d="m 335.73108,62 c -8.82418,0 -9.77365,0.90635 -9.7304,9.74838 V 84 96.25162 c -0.0433,8.84203 0.90622,9.74838 9.7304,9.74838 h 16.53919 c 8.82418,0 9.7304,-0.90625 9.7304,-9.74838 V 84 71.74838 C 362.00067,62.90625 361.09445,62 352.27027,62 Z"
         id="path996"
         inkscape:connector-curvature="0"
         sodipodi:nodetypes="scccssscsss" />
    </clipPath>
    <linearGradient
       inkscape:collect="always"
       xlink:href="#linearGradient4338"
       id="linearGradient1024"
       gradientUnits="userSpaceOnUse"
       gradientTransform="matrix(0,-0.02997086,0.02997,0,-3.0395089,13.625372)"
       x1="459.03448"
       y1="419.23337"
       x2="35.310345"
       y2="207.36522" />
    <linearGradient
       inkscape:collect="always"
       id="linearGradient4338">
      <stop
         style="stop-color:#f2f2f2;stop-opacity:1"
         offset="0"
         id="stop4340" />
      <stop
         style="stop-color:#f9f9f9;stop-opacity:1"
         offset="1"
         id="stop4342" />
    </linearGradient>
  </defs>
  <sodipodi:namedview
     pagecolor="#ffffff"
     bordercolor="#666666"
     borderopacity="1"
     objecttolerance="10"
     gridtolerance="10"
     guidetolerance="10"
     inkscape:pageopacity="0"
     inkscape:pageshadow="2"
     inkscape:window-width="792"
     inkscape:window-height="668"
     id="namedview49"
     showgrid="false"
     inkscape:zoom="10.270833"
     inkscape:cx="24"
     inkscape:cy="24"
     inkscape:window-x="60"
     inkscape:window-y="186"
     inkscape:window-maximized="0"
     inkscape:current-layer="svg47" />
  <linearGradient
     id="a"
     gradientTransform="matrix(0,-0.11988932,-0.11988589,0,67.016455,292.54831)"
     gradientUnits="userSpaceOnUse"
     x1="529.65503"
     x2="-35.310001"
     y1="401.58401"
     y2="119.093">
    <stop
       offset="0"
       stop-color="#76c22b"
       id="stop2" />
    <stop
       offset="1"
       stop-color="#a6d74f"
       id="stop4" />
  </linearGradient>
  <linearGradient
     id="b"
     gradientUnits="userSpaceOnUse"
     x1="88"
     x2="488"
     y1="88"
     y2="488">
    <stop
       offset="0"
       stop-opacity=".588235"
       id="stop7" />
    <stop
       offset=".88"
       stop-opacity="0"
       id="stop9" />
    <stop
       offset="1"
       id="stop11" />
  </linearGradient>
  <filter
     id="c"
     height="1.022"
     width="1.026"
     x="-0.0099999998"
     y="-0.0099999998"
     style="color-interpolation-filters:sRGB">
    <feGaussianBlur
       stdDeviation="2.12"
       id="feGaussianBlur14" />
  </filter>
  <path
     style="color:#000000;font-style:normal;font-variant:normal;font-weight:normal;font-stretch:normal;font-size:medium;line-height:normal;font-family:sans-serif;font-variant-ligatures:normal;font-variant-position:normal;font-variant-caps:normal;font-variant-numeric:normal;font-variant-alternates:normal;font-feature-settings:normal;text-indent:0;text-align:start;text-decoration:none;text-decoration-line:none;text-decoration-style:solid;text-decoration-color:#000000;letter-spacing:normal;word-spacing:normal;text-transform:none;writing-mode:lr-tb;direction:ltr;text-orientation:mixed;dominant-baseline:auto;baseline-shift:baseline;text-anchor:start;white-space:normal;shape-padding:0;clip-rule:nonzero;display:inline;overflow:visible;visibility:visible;opacity:0.1;isolation:auto;mix-blend-mode:normal;color-interpolation:sRGB;color-interpolation-filters:linearRGB;solid-color:#000000;solid-opacity:1;vector-effect:none;fill:#000000;fill-opacity:1;fill-rule:nonzero;stroke:none;stroke-width:0.52914065;stroke-linecap:butt;stroke-linejoin:miter;stroke-miterlimit:4;stroke-dasharray:none;stroke-dashoffset:0;stroke-opacity:1;marker:none;color-rendering:auto;image-rendering:auto;shape-rendering:auto;text-rendering:auto;enable-background:accumulate"
     d="m 4.1621981,0.39685574 c -0.5881821,0 -1.0513178,0.013541 -1.4323995,0.077511 C 2.3487141,0.53833574 2.0368757,0.65832224 1.808451,0.88620744 1.5800289,1.114093 1.4594669,1.4257909 1.3960944,1.8070362 1.3327214,2.1882818 1.3203504,2.6524286 1.3232344,3.2420201 V 6.481973 9.723476 c -0.00286,0.588686 0.00955,1.052598 0.07286,1.433434 0.063373,0.381246 0.1839345,0.692944 0.4123566,0.920829 0.2284247,0.227885 0.5402631,0.347873 0.9213476,0.411841 0.3810844,0.06397 0.8442174,0.07751 1.4323995,0.07751 h 4.3757443 c 0.5881821,0 1.0510744,-0.01352 1.4313677,-0.07751 0.3802939,-0.064 0.6911789,-0.18439 0.9187599,-0.412357 0.227583,-0.227967 0.347434,-0.539443 0.411325,-0.920313 0.06389,-0.380868 0.07751,-0.844073 0.07751,-1.433434 V 6.481973 3.24047 c 0,-0.5893606 -0.01363,-1.0525644 -0.07751,-1.4334338 C 11.235505,1.4261671 11.115653,1.114692 10.88807,0.88672414 10.660489,0.65875654 10.349604,0.53836324 9.9693101,0.47436664 9.5890168,0.41036964 9.1261245,0.39685564 8.5379424,0.39685564 Z"
     id="path1020"
     inkscape:connector-curvature="0"
     sodipodi:nodetypes="sccsccccccsscccscsccsss" />
  <path
     style="color:#000000;display:inline;overflow:visible;visibility:visible;opacity:0.2;fill:none;fill-opacity:1;fill-rule:nonzero;stroke:#000000;stroke-width:0.52914065;stroke-miterlimit:4;stroke-dasharray:none;stroke-opacity:1;marker:none;enable-background:accumulate"
     d="m 4.1623595,0.39685574 c -2.334616,0 -2.5858176,0.2397933 -2.5743749,2.57913196 V 6.2174026 9.4588175 C 1.5765286,11.798156 1.8277435,12.03795 4.1623595,12.03795 h 4.3757787 c 2.3346158,0 2.5743748,-0.239768 2.5743748,-2.5791325 V 6.2174026 2.9759877 c 0,-2.33936516 -0.239759,-2.57913196 -2.5743748,-2.57913196 z"
     id="path958"
     inkscape:connector-curvature="0"
     sodipodi:nodetypes="scccssscsss" />
  <path
     style="color:#000000;display:inline;overflow:visible;visibility:visible;fill:url(#linearGradient1024);fill-opacity:1;fill-rule:nonzero;stroke:none;stroke-width:0.26457033;marker:none;enable-background:accumulate"
     d="m 4.1623595,0.39685574 c -2.334616,0 -2.5858176,0.2397933 -2.5743749,2.57913196 V 6.2174026 9.4588175 C 1.5765286,11.798156 1.8277435,12.03795 4.1623595,12.03795 h 4.3757787 c 2.3346158,0 2.5743748,-0.239768 2.5743748,-2.5791325 V 6.2174026 2.9759877 c 0,-2.33936516 -0.239759,-2.57913196 -2.5743748,-2.57913196 z"
     id="path964"
     inkscape:connector-curvature="0"
     sodipodi:nodetypes="scccssscsss" />
  <path
     inkscape:connector-curvature="0"
     id="path927"
     d="M 3.1752265,3.5716995 V 8.3339651 H 5.291789 c 0.5160285,4.23e-5 0.8474531,0.4237257 0.8474505,0.4237257 L 6.3459377,9.0315627 6.5578003,8.761825 c 0,0 0.3446055,-0.4197217 0.8526175,-0.4278599 H 9.524914 V 3.5716995 H 7.4083515 c -0.5483378,0 -0.8650179,0.2462739 -1.0582812,0.4340606 C 6.1567487,3.8179628 5.8399628,3.5716995 5.291789,3.5716995 Z M 3.4397968,3.8362698 H 5.291789 c 0.468935,0 0.7017013,0.191955 0.8743229,0.3596502 L 6.3500703,4.3747116 6.5340287,4.19592 C 6.7066079,4.0282301 6.9392313,3.8362698 7.4083515,3.8362698 h 1.8519922 v 4.233125 H 7.4083515 7.406235 C 6.7544713,8.0798188 6.3531208,8.5944015 6.3531208,8.5944015 l -0.00212,0.00206 -0.00106,0.00103 -0.00106,-0.00103 -0.00106,-0.00206 c 0,0 -0.3953819,-0.5249538 -1.056215,-0.5250067 H 3.4396222 Z"
     style="color:#000000;font-style:normal;font-variant:normal;font-weight:normal;font-stretch:normal;font-size:medium;line-height:normal;font-family:sans-serif;font-variant-ligatures:none;font-variant-position:normal;font-variant-caps:normal;font-variant-numeric:normal;font-variant-alternates:normal;font-feature-settings:normal;text-indent:0;text-align:start;text-decoration:none;text-decoration-line:none;text-decoration-style:solid;text-decoration-color:#000000;letter-spacing:normal;word-spacing:normal;text-transform:none;writing-mode:lr-tb;direction:ltr;baseline-shift:baseline;text-anchor:start;white-space:normal;shape-padding:0;clip-rule:nonzero;display:inline;overflow:visible;visibility:visible;opacity:1;isolation:auto;mix-blend-mode:normal;color-interpolation:sRGB;color-interpolation-filters:linearRGB;solid-color:#000000;solid-opacity:1;fill:#999999;fill-opacity:1;fill-rule:nonzero;stroke:none;stroke-width:0.52914065;stroke-linecap:butt;stroke-linejoin:miter;stroke-miterlimit:4;stroke-dasharray:none;stroke-dashoffset:0;stroke-opacity:1;marker:none;color-rendering:auto;image-rendering:auto;shape-rendering:auto;text-rendering:auto;enable-background:accumulate" />
  <path
     style="color:#000000;font-style:normal;font-variant:normal;font-weight:normal;font-stretch:normal;font-size:medium;line-height:normal;font-family:sans-serif;font-variant-ligatures:none;font-variant-position:normal;font-variant-caps:normal;font-variant-numeric:normal;font-variant-alternates:normal;font-feature-settings:normal;text-indent:0;text-align:start;text-decoration:none;text-decoration-line:none;text-decoration-style:solid;text-decoration-color:#000000;letter-spacing:normal;word-spacing:normal;text-transform:none;writing-mode:lr-tb;direction:ltr;baseline-shift:baseline;text-anchor:start;white-space:normal;shape-padding:0;clip-rule:nonzero;display:inline;overflow:visible;visibility:visible;opacity:1;isolation:auto;mix-blend-mode:normal;color-interpolation:sRGB;color-interpolation-filters:linearRGB;solid-color:#000000;solid-opacity:1;fill:#999999;fill-opacity:1;fill-rule:nonzero;stroke:none;stroke-width:0.26457033;stroke-linecap:butt;stroke-linejoin:miter;stroke-miterlimit:4;stroke-dasharray:none;stroke-dashoffset:0;stroke-opacity:1;marker:none;color-rendering:auto;image-rendering:auto;shape-rendering:auto;text-rendering:auto;enable-background:accumulate"
     d="M 5.291789,4.6299807 V 4.7622659 H 5.8209296 V 4.6299807 Z m 1.5874219,0 V 4.7622659 H 8.7312031 V 4.6299807 Z M 5.291789,5.1591213 V 5.2914065 H 5.8209296 V 5.1591213 Z m 1.5874219,0 V 5.2914065 H 8.7312031 V 5.1591213 Z M 5.291789,5.688262 V 5.8205471 H 5.8209296 V 5.688262 Z m 1.5874219,0 V 5.8205471 H 8.7312031 V 5.688262 Z M 3.9689375,6.2174026 V 6.3496877 H 5.8209296 V 6.2174026 Z m 2.9102734,0 V 6.3496877 H 8.7312031 V 6.2174026 Z M 3.9689375,6.7465432 V 6.8788284 H 5.8209296 V 6.7465432 Z m 2.9102734,0 V 6.8788284 H 8.7312031 V 6.7465432 Z M 3.9689375,7.2756838 V 7.407969 H 5.8209296 V 7.2756838 Z m 2.9102734,0 V 7.407969 H 7.9374921 V 7.2756838 Z"
     id="path1001"
     inkscape:connector-curvature="0"
     sodipodi:nodetypes="cccccccccccccccccccccccccccccccccccccccccccccccccccccccccccc" />
  <path
     id="path3751"
     word-spacing="0"
     style="color:#bebebe;font-weight:400;font-size:17.83300018px;line-height:125%;font-family:'DejaVu Serif';-inkscape-font-specification:'DejaVu Serif';letter-spacing:0;word-spacing:0;display:inline;overflow:visible;fill:#808080;stroke-width:0.23811325;marker:none;enable-background:new"
     overflow="visible"
     letter-spacing="0"
     font-weight="400"
     font-size="17.833"
     d="M 4.4735709,4.6325248 4.0500018,5.7315089 H 3.944134 v 0.091582 H 4.273188 V 5.7315089 H 4.1501919 l 0.1001029,-0.274746 h 0.500858 l 0.097354,0.274746 H 4.7310984 v 0.091582 H 5.151826 V 5.7315089 H 5.0345076 L 4.6081049,4.6325248 Z m 0.025743,0.1917725 0.2203474,0.5408836 H 4.2818051 Z"
     inkscape:connector-curvature="0" />
  <path
     style="color:#000000;display:inline;overflow:visible;visibility:visible;opacity:0.2;fill:#ffffff;fill-opacity:1;fill-rule:nonzero;stroke:none;stroke-width:0.26457033;marker:none;enable-background:accumulate"
     d="m 1.5878046,6.2174026 v 3.241503 C 1.5763486,11.798243 1.8275821,12.03795 4.1621981,12.03795 h 4.3757443 c 2.3346156,0 2.5743936,-0.23968 2.5743936,-2.5790444 v -3.241503 z"
     id="path1006"
     inkscape:connector-curvature="0" />
  <path
     style="color:#000000;display:inline;overflow:visible;visibility:visible;opacity:0.1;fill:#ffffff;fill-opacity:1;fill-rule:nonzero;stroke:none;stroke-width:0.26457033;marker:none;enable-background:accumulate"
     d="M 6.3500703,0.39685574 V 12.03795 h 2.1878721 c 2.3346156,0 2.5743936,-0.23968 2.5743936,-2.5790444 v -3.241503 -3.241503 c 0,-2.33936516 -0.239778,-2.57904386 -2.5743936,-2.57904386 z"
     id="path1013"
     inkscape:connector-curvature="0" />
  <path
     transform="matrix(0.26457031,0,0,0.26457031,-84.662117,-16.006503)"
     sodipodi:nodetypes="scccssscsss"
     inkscape:connector-curvature="0"
     id="path990"
     d="m 335.73108,62 c -8.82418,0 -9.77365,0.90635 -9.7304,9.74838 V 84 96.25162 c -0.0433,8.84203 0.90622,9.74838 9.7304,9.74838 h 16.53919 c 8.82418,0 9.7304,-0.90625 9.7304,-9.74838 V 84 71.74838 C 362.00067,62.90625 361.09445,62 352.27027,62 Z"
     style="color:#000000;display:inline;overflow:visible;visibility:visible;opacity:0.4;fill:none;fill-opacity:1;fill-rule:nonzero;stroke:url(#linearGradient1004);stroke-width:2;stroke-miterlimit:4;stroke-dasharray:none;stroke-opacity:1;marker:none;enable-background:accumulate"
     clip-path="url(#clipPath994)" />
</svg>
