<svg height="48" viewBox="0 0 12.699375 12.699376" width="48" xmlns="http://www.w3.org/2000/svg" xmlns:xlink="http://www.w3.org/1999/xlink"><linearGradient id="a" gradientTransform="matrix(0 .26457032 -.26457032 0 28.573638 -84.794762)" gradientUnits="userSpaceOnUse" x1="321.99991" x2="365.99991" y1="84.000153" y2="84.000153"><stop offset="0" stop-color="#fff"/><stop offset=".125" stop-color="#fff" stop-opacity=".098039"/><stop offset=".92500001" stop-color="#fff" stop-opacity=".098039"/><stop offset="1" stop-color="#fff" stop-opacity=".498039"/></linearGradient><linearGradient id="b" gradientTransform="matrix(0 .26457032 -.26457032 0 28.573638 -84.794762)" gradientUnits="userSpaceOnUse" x1="320.99991" x2="366.99991" y1="92.000153" y2="76.000153"><stop offset="0" stop-color="#f2f2f2"/><stop offset="1" stop-color="#f9f9f9"/></linearGradient><path d="m3.6134393.39686012c-.6937299 0-1.2399749.0132523-1.6894429.0758616-.4494706.0626076-.8172682.18004087-1.08668293.40307679-.2694119.22303629-.4116105.52810139-.4863543.90123409-.0747464.373133-.0893375.8274028-.0859377 1.4044481v3.3004661 3.3020451c-.00336.5761571.011271 1.0301951.085938 1.4029271.074744.373134.2169424.6782.4863543.901235.26941473.223036.63721233.340471 1.08668293.403076.4494733.06261.995713.07586 1.6894429.07586h5.4729493c.693738 0 1.2396921-.01323 1.6882341-.07586.448537-.06264.81521-.180464 1.08363-.403581.268425-.223115.40978-.527963.485135-.90073.07536-.372761.09142-.826109.09142-1.4029271v-3.3020451-3.3019834c0-.5768191-.01609-1.0301661-.09142-1.4029308-.07535-.3727644-.216713-.6776116-.485138-.90072819-.26842-.22311666-.635093-.34094781-1.083632-.40358272-.448537-.0626352-.9944964-.0758616-1.6882294-.0758616z" opacity=".1"/><path d="m3.5280915.26458792c-2.64865573 0-3.14486003.23979331-3.13094363 2.57913198v3.373687 3.3737505c-.013943 2.3393366.4822879 2.5791306 3.13094363 2.5791306h5.6434971c2.6479944 0 3.1309384-.239767 3.1309384-2.5791306v-3.3737505-3.373687c0-2.33936512-.482944-2.57913198-3.1309414-2.57913198z" fill="url(#b)"/><path d="m3.5277751.264576c-2.64799353 0-3.13091963.23967853-3.13091963 2.5790439v3.3737876.4175255c.00405.0001066.00773-.000137.011878 0 .011057.0008202.021986.00124.033072.00206.01159.0008201.022806.00185.035138.00311l-.0011-.00108c.07307.00431.1464767.00673.220131.00724l-.0005475.0005492c.00465-.0002645.00889.0001053.013438 0 .019447.0000519.038403-.0002645.057875-.0005556.29288213.00691.33274923.136917.44697803.4180413l.057359.1545045c.1576516.4377803.2907275.4209002.6619452.3296803.3731555-.0829417.5004402-.1268054.4474981-.5890825l-.0175675-.1638063c-.022357-.3026214-.0444512-.4369345.2149625-.5730633.017542-.00847.03532-.017147.052708-.025838.004-.00185.00731-.00382.011372-.00568h.0005476c.065642-.033072.1298218-.068172.193261-.1043817l-.0005476.00108c.010509-.00657.020478-.011673.030487-.01757.00961-.00558.018865-.0114.02842-.017052.2592835-.1427685.3585037-.049604.5988994.1374522l.1271189.1049051c.3554156.3003061.4625451.2191351.7384208-.045473.2816899-.2584075.3694851-.3598948.0924956-.7337686l-.0966311-.1333194c-.1837629-.2701448-.2702433-.3709916-.0604572-.6629759l-.00672.00311c.042411-.064404.083047-.1297749.1219521-.1963609v.00724c.1686023-.3175543.2974854-.2851214.6211184-.2402889l.1622557.027903c.4579524.0823673.5098601-.0416398.6164697-.4087396.114746-.3646324.1400289-.4968064-.2867886-.6820948l-.1503712-.0666561c-.2742923-.1324545-.4015032-.1802073-.3885869-.4759167.0008202-.011057.00138-.021989.00212-.033072.0008201-.011591.00159-.022814.00265-.035137l-.0005556.0011c.00431-.072899.00725-.1461338.00774-.219614v-.0005521c-.0001367-.00445.0001014-.00853 0-.012919.0000535-.019438-.0002645-.038918-.0005556-.058391.00691-.2928819.1369115-.3327495.4180391-.4469788l.1545027-.0568407c.4377824-.157647.4214163-.2912415.330197-.6624604-.082943-.3731539-.1273216-.49992245-.5895998-.44697894l-.163806.0170526c-.302624.02235-.4369355.044449-.5730657-.21496395-.00847-.0175384-.016642-.034803-.025317-.0521908-.00185-.003996-.00434-.007294-.00619-.011372v-.00054765c-.032413-.06422379-.066457-.12746918-.1018402-.18961019z" fill="#aea795"/><path d="m8.6886126 3.8311474c-.4892616-.0054422-.6604386.0126809-.7292587.6042731l-.026166.2090714c-.060388.3836865-.071841.5574878-.4348557.651506-.024314.00543-.048774.010951-.072979.016713-.00571.00119-.010741.00238-.016615.00353l.0007937.0003175c-.09165.02211-.1822757.046709-.2720841.073393l.00106-.00114c-.015001.00513-.028666.00927-.042871.013702-.013599.00416-.027248.0081-.040799.012353-.3647891.1023329-.4612488-.042342-.7063176-.3455788l-.1274779-.168067c-.1776987-.2389631-.3056661-.3409382-.4420203-.3520169-.017038-.0014-.034384-.00138-.0518 0-.1219063.0095643-.2555514.0844133-.4397373.1935004-.4264318.2399195-.5654794.3410314-.3292816.8877755l.081699.1942272c.1502472.390283.2283695.5412355-.1182388.8439679l.00923-.00209c-.0716368.0679035-.1413696.1377437-.2092769.2093827l.00185-.00924c-.3027326.3466095-.4536832.2684888-.8439667.1182398l-.1942264-.0819056c-.1708595-.073812-.2981046-.110905-.3997711-.1140859-.2236598-.0069979-.3229583.1502992-.4879019.4434725-.2493443.4209938-.3194105.5782623.1585172.9336588l.1679625.1273743c.3032372.2450712.4479122.3416341.3455817.7064207-.00426.013551-.0082.0271-.012355.040694-.00444.014205-.00836.027874-.013493.042873l.00106-.0008202c-.026685.089809-.051284.1804346-.073395.2720838l-.0001058-.0007407c-.00106.00587-.00265.010887-.00373.01661-.00577.024205-.011271.048443-.016721.07277-.094015.363014-.2676102.374676-.6512979.435064l-.2090714.02616c-.5915925.06882-.6097129.2399961-.6042734.7292551-.00545.489265.012673.660339.6042734.729156l.2090714.02627c.3836877.06039.5572828.07195.6512979.434962.00542.02431.010953.04856.016721.07277.00106.0057.00265.01085.00373.01672l.0001058-.000794c.020901.08659.044146.172293.069138.257239h1.5684474a3.9912338 3.9912328 0 0 1 -.3115315-1.536375 3.9912338 3.9912328 0 0 1 3.991255-3.9912514 3.9912338 3.9912328 0 0 1 3.6139094 2.3078848v-2.4397225c-.144614-.1887006-.09876-.3383929 0-.5952417v-1.0461256c-.05997-.0398639-.130846-.0807083-.212497-.1266472-.210498-.1246719-.355181-.2045785-.491538-.1935004-.136354.01108-.264425.1130538-.442123.3520169l-.127478.167963c-.245069.303237-.341529.4480147-.706316.3456844-.01355-.00426-.0272-.0082-.0408-.012353-.01421-.00443-.02787-.00837-.04287-.013496l.0011.000926c-.08985-.026682-.180577-.051283-.2722294-.073393l.000794-.0001064c-.0059-.00116-.0109-.00257-.01661-.00374-.02421-.00576-.04855-.011276-.07288-.016713-.363016-.094013-.374569-.2677105-.43496-.6513978l-.026166-.2089677c-.06881-.5916253-.239997-.6099195-.729259-.6044792z" fill="#c8c4b7" opacity=".9"/><path d="m3.5280915.26458739c-2.64865573 0-3.14486003.23979331-3.13094363 2.57913201v3.3736878 3.3737505c-.013943 2.3393363.4822879 2.5791303 3.13094363 2.5791303h5.6434971c2.6479944 0 3.1309384-.239767 3.1309384-2.5791303v-3.3737505-3.3736878c0-2.33936515-.482944-2.57913201-3.1309414-2.57913201z" fill="none" opacity=".4" stroke="#000" stroke-width=".26457"/><path d="m3.5282953.39686012c-1.3203355 0-2.0823034.073096-2.4829316.38445379-.20031413.15567873-.32743493.37132909-.40874003.70379829-.081302.3324692-.1104052.7778449-.1069658 1.35799v3.374305 3.374305c-.00347.5801438.025663 1.0255188.1069658 1.3579878.081305.332467.2084259.548116.40874003.7038.4006309.311354 1.1625961.384452 2.4829316.384452h5.6433063c1.3200024 0 2.0782054-.0732 2.4772464-.384452.199518-.155631.326197-.371618.408224-.704316.08202-.332697.113165-.7777.113165-1.3579885v-3.3737883-3.3737883c0-.5802898-.03114-1.0252927-.113165-1.35799-.08203-.3326969-.208703-.54868546-.408224-.70431499-.399041-.31125882-1.157241-.38445379-2.4772464-.38445379zm.6355878.2904072c1.8380679.00021959 3.6803399.00089954 5.5161885.0144693.5669634.0219408 1.1811244-.0390773 1.6995554.24648432.342907.18393666.409719.59536906.468165.94304886.04644.5828187.02421 1.1752816.03669 1.764663.006 2.2434325.02037 4.489492-.02119 6.7325902-.04273.392418-.100894.874614-.475915 1.096001-.424767.219252-.919517.239814-1.3884784.25217-2.5133496.01794-5.0332655.0223-7.546456-.0047-.4175383-.030152-.8652892-.063491-1.225708-.296564-.32529453-.263348-.36003263-.721586-.39789003-1.109438-.0336533-2.380757-.022118-4.7634506-.0139428-7.1454643.0263777-.6300147-.0649203-1.2963949.18654323-1.8943647.1776987-.39942709.652359-.49208869 1.0422616-.54412589.7042015-.0837582 1.4132922-.0388977 2.1201792-.0547745z" fill="url(#a)" opacity=".7"/></svg>