<svg height="256" viewBox="0 0 67.73 67.73" width="256" xmlns="http://www.w3.org/2000/svg" xmlns:xlink="http://www.w3.org/1999/xlink"><linearGradient id="a" gradientTransform="matrix(0 -.11988932 .11988589 0 -.46882 292.91969)" gradientUnits="userSpaceOnUse" x1="529.655" x2="-35.31" y1="401.584" y2="119.093"><stop offset="0" stop-color="#f2f2f2"/><stop offset="1" stop-color="#f9f9f9"/></linearGradient><linearGradient id="b" gradientUnits="userSpaceOnUse" x1="88" x2="488" y1="88" y2="488"><stop offset="0" stop-opacity=".588235"/><stop offset=".88" stop-opacity="0"/><stop offset="1"/></linearGradient><filter id="c" color-interpolation-filters="sRGB" height="1.022" width="1.026" x="-.01" y="-.01"><feGaussianBlur stdDeviation="2.12"/></filter><g transform="translate(0 -229.26666)"><path d="m17.756744 237.88636c-9.338925 0-10.343783.95922-10.298012 10.31704v30.16592c-.04577 9.35781.9590873 10.31704 10.298012 10.31704h30.203975c9.338924 0 10.626122-.96487 10.298012-10.31704v-30.16592c0-9.35793-.959088-10.31704-10.298012-10.31704z" fill="none" opacity=".2" stroke="#000" stroke-width="1.058333"/><path d="m173.84323 106c-70.59344 0-78.18921 7.25083-77.84323 77.98706v228.02588c-.34598 70.73623 7.24979 77.98706 77.84323 77.98706h228.31354c70.59344 0 80.32342-7.29349 77.84323-77.98706v-228.02588c0-70.73707-7.24979-77.98706-77.84323-77.98706z" filter="url(#c)" opacity=".1" transform="matrix(.13229167 0 0 .13229167 -5.241268 224.12802)"/><path d="m173.84323 106c-70.59344 0-78.18921 7.25083-77.84323 77.98706v228.02588c-.34598 70.73623 7.24979 77.98706 77.84323 77.98706h228.31354c70.59344 0 80.32342-7.29348 77.84323-77.98706v-228.02588c0-70.73707-7.24979-77.98706-77.84323-77.98706z" fill="url(#b)" opacity=".3" transform="matrix(.13229167 0 0 .13229167 -5.241268 224.12802)" visibility="hidden"/><path d="m17.756744 237.88636c-9.338925 0-10.343783.95922-10.298012 10.31704v30.16592c-.04577 9.35781.9590873 10.31704 10.298012 10.31704h30.203975c9.338924 0 10.298012-.95912 10.298012-10.31704v-30.16592c0-9.35793-.959088-10.31704-10.298012-10.31704z" fill="url(#a)"/><path d="m17.756813 237.88636c-9.3389265 0-10.343852.95938-10.298081 10.3172v.52916c-.04577-9.35781.9591548-10.3172 10.298081-10.3172h30.203838c9.338926 0 10.29808.95928 10.29808 10.3172v-.52916c0-9.35793-.959154-10.3172-10.29808-10.3172z" fill="#fff" opacity=".6"/><g enable-background="new" opacity=".75" transform="matrix(1.9825597 0 0 1.9825597 -633.28137 -30.132501)"><path d="m140.04-343.99h16v16h-16z" fill="none" transform="rotate(90)"/><path d="m337.31472 139.96026-2.63222.39327v1.35335a6.4893367 6.4774947 43.145679 0 1 2.63222.005v-1.75146zm-5.38585 1.19061-2.00544 1.70491.98801 1.17757a6.4893367 6.4774947 43.145679 0 1 2.01736-1.69076zm8.12867.0127-.99285 1.18353a6.4893367 6.4774947 43.145679 0 1 .17056.0905 6.4893367 6.4774947 43.145679 0 1 1.84457 1.60287l1.00514-1.19769zm-11.60999 4.21684-.44056 2.59535 1.51535.26739a6.4893367 6.4774947 43.145679 0 1 .45509-2.59274zm15.08573.003-1.5228.26851a6.4893367 6.4774947 43.145679 0 1 .46365 2.59088l1.53286-.27zm-13.68247 4.69464-1.35149.78058h-.00034l1.33101 2.27098 1.33808-.77238a6.4893367 6.4774947 43.145679 0 1 -1.31723-2.27918zm12.30081.003a6.4893367 6.4774947 43.145679 0 1 -.53478 1.21481 6.4893367 6.4774947 43.145679 0 1 -.77388 1.0692l1.33883.77313 1.30158-2.28811zm-9.55687 3.47164-.53479 1.4688 2.47953.88448.52585-1.44534a6.4893367 6.4774947 43.145679 0 1 -2.30338-.79995 6.4893367 6.4774947 43.145679 0 1 -.16721-.10799zm6.8133.0153a6.4893367 6.4774947 43.145679 0 1 -2.47468.89752l.53031 1.45651 2.46761-.91651z" fill="#808080"/><g fill="none" stroke="#808080" stroke-linecap="square" stroke-linejoin="round" stroke-width=".533822"><circle cx="336" cy="148" r="6.44"/><circle cx="336" cy="148" r="4.44"/></g></g><g fill="#fff"><path d="m32.858731 237.88636v50.8h15.10192c9.338923 0 10.29808-.95902 10.29808-10.31695v-30.16611c0-9.35793-.959157-10.31694-10.29808-10.31694z" opacity=".1"/><path d="m7.4587317 263.28636v15.08305c-.04577 9.35782.9591556 10.31695 10.298081 10.31695h30.203838c9.338923 0 10.29808-.95902 10.29808-10.31695v-15.08305z" opacity=".2"/><path d="m42.383731 288.68636 15.875-15.875v5.94886c-.01386 8.99472-1.006125 9.92614-10.10023 9.92614z" opacity=".4"/></g></g></svg>