<?xml version="1.0" encoding="UTF-8" standalone="no"?>
<svg
   xmlns:dc="http://purl.org/dc/elements/1.1/"
   xmlns:cc="http://creativecommons.org/ns#"
   xmlns:rdf="http://www.w3.org/1999/02/22-rdf-syntax-ns#"
   xmlns:svg="http://www.w3.org/2000/svg"
   xmlns="http://www.w3.org/2000/svg"
   xmlns:xlink="http://www.w3.org/1999/xlink"
   xmlns:sodipodi="http://sodipodi.sourceforge.net/DTD/sodipodi-0.dtd"
   xmlns:inkscape="http://www.inkscape.org/namespaces/inkscape"
   height="48"
   viewBox="0 0 12.699375 12.699375"
   width="48"
   version="1.1"
   id="svg47"
   sodipodi:docname="application-x-virtualbox-vbox-extpack.svg"
   inkscape:version="0.92.5 (2060ec1f9f, 2020-04-08)">
  <metadata
     id="metadata53">
    <rdf:RDF>
      <cc:Work
         rdf:about="">
        <dc:format>image/svg+xml</dc:format>
        <dc:type
           rdf:resource="http://purl.org/dc/dcmitype/StillImage" />
        <dc:title></dc:title>
      </cc:Work>
    </rdf:RDF>
  </metadata>
  <defs
     id="defs51">
    <linearGradient
       id="linearGradient1664-5-6-3-3"
       gradientUnits="userSpaceOnUse"
       x1="178.16689"
       x2="-13.92912"
       y1="137.53882"
       y2="128.91682">
      <stop
         offset="0"
         stop-color="#5995e8"
         id="stop23-0-1-7-0" />
      <stop
         offset="1"
         stop-color="#63a0e6"
         stop-opacity=".01"
         id="stop25-3-5-4-7" />
    </linearGradient>
    <linearGradient
       gradientTransform="matrix(2.0740741,0,0,2.0740741,26.028193,-329.45087)"
       id="linearGradient900"
       gradientUnits="userSpaceOnUse"
       x1="62.612"
       x2="64.120003"
       y1="164.32201"
       y2="248.312">
      <stop
         offset="0"
         stop-color="#ff10ff"
         stop-opacity=".988235"
         id="stop8" />
      <stop
         offset="1"
         stop-color="#ff0bff"
         stop-opacity=".009524"
         id="stop10" />
    </linearGradient>
    <linearGradient
       gradientTransform="matrix(2.0740741,0,0,2.0740741,-5.4471398,-305.84438)"
       id="linearGradient2440"
       gradientUnits="userSpaceOnUse"
       x1="61.344002"
       x2="26.404003"
       y1="242.29001"
       y2="278.42102">
      <stop
         offset="0"
         stop-color="#2ffffe"
         stop-opacity="0"
         id="stop18" />
      <stop
         offset="1"
         stop-color="#14ffff"
         stop-opacity=".886275"
         id="stop20" />
    </linearGradient>
    <linearGradient
       gradientTransform="matrix(2.0740741,0,0,2.0740741,295.45752,134.61809)"
       id="linearGradient2430"
       gradientUnits="userSpaceOnUse"
       x1="-246.84694"
       x2="-278.93494"
       y1="71.92395"
       y2="115.02795">
      <stop
         offset="0"
         stop-color="#fff755"
         stop-opacity="0"
         id="stop13" />
      <stop
         offset="1"
         stop-color="#fffa3b"
         stop-opacity=".992157"
         id="stop15" />
    </linearGradient>
    <filter
       style="color-interpolation-filters:sRGB"
       id="d"
       height="1.0219311"
       width="1.0265"
       x="-0.01325"
       y="-0.010966">
      <feGaussianBlur
         stdDeviation="2.120027"
         id="feGaussianBlur17" />
    </filter>
    <linearGradient
       id="linearGradient5699"
       gradientUnits="userSpaceOnUse"
       x1="88"
       x2="488"
       y1="88"
       y2="488">
      <stop
         offset="0"
         stop-opacity=".588235"
         id="stop7-3" />
      <stop
         offset=".88"
         stop-opacity="0"
         id="stop9-6" />
      <stop
         offset="1"
         id="stop11-7" />
    </linearGradient>
    <filter
       style="color-interpolation-filters:sRGB"
       id="c-5"
       height="1.087725"
       width="1.105998"
       x="-0.052999001"
       y="-0.043862998">
      <feGaussianBlur
         stdDeviation="8.4801079"
         id="feGaussianBlur14-3" />
    </filter>
    <linearGradient
       id="a-5"
       gradientTransform="matrix(0,-0.02361746,-0.02361678,0,1.5678614,12.173795)"
       gradientUnits="userSpaceOnUse"
       x1="529.65515"
       x2="-35.310345"
       y1="401.58368"
       y2="119.09284">
      <stop
         offset="0"
         stop-color="#da1636"
         id="stop2-6" />
      <stop
         offset="1"
         stop-color="#f22c42"
         id="stop4-2" />
    </linearGradient>
    <clipPath
       clipPathUnits="userSpaceOnUse"
       id="clipPath994">
      <path
         style="color:#000000;display:inline;overflow:visible;visibility:visible;fill:#cdcdcd;fill-opacity:1;fill-rule:nonzero;stroke:none;stroke-width:2;stroke-miterlimit:4;stroke-dasharray:none;stroke-opacity:1;marker:none;enable-background:accumulate"
         d="m 335.73108,62 c -8.82418,0 -9.77365,0.90635 -9.7304,9.74838 V 84 96.25162 c -0.0433,8.84203 0.90622,9.74838 9.7304,9.74838 h 16.53919 c 8.82418,0 9.7304,-0.90625 9.7304,-9.74838 V 84 71.74838 C 362.00067,62.90625 361.09445,62 352.27027,62 Z"
         id="path996"
         inkscape:connector-curvature="0"
         sodipodi:nodetypes="scccssscsss" />
    </clipPath>
    <clipPath
       clipPathUnits="userSpaceOnUse"
       id="clipPath994-9">
      <path
         style="color:#000000;display:inline;overflow:visible;visibility:visible;fill:#cdcdcd;fill-opacity:1;fill-rule:nonzero;stroke:none;stroke-width:2;stroke-miterlimit:4;stroke-dasharray:none;stroke-opacity:1;marker:none;enable-background:accumulate"
         d="m 335.73108,62 c -8.82418,0 -9.77365,0.90635 -9.7304,9.74838 V 84 96.25162 c -0.0433,8.84203 0.90622,9.74838 9.7304,9.74838 h 16.53919 c 8.82418,0 9.7304,-0.90625 9.7304,-9.74838 V 84 71.74838 C 362.00067,62.90625 361.09445,62 352.27027,62 Z"
         id="path996-1"
         inkscape:connector-curvature="0"
         sodipodi:nodetypes="scccssscsss" />
    </clipPath>
    <clipPath
       clipPathUnits="userSpaceOnUse"
       id="clipPath994-2">
      <path
         style="color:#000000;display:inline;overflow:visible;visibility:visible;fill:#cdcdcd;fill-opacity:1;fill-rule:nonzero;stroke:none;stroke-width:2;stroke-miterlimit:4;stroke-dasharray:none;stroke-opacity:1;marker:none;enable-background:accumulate"
         d="m 335.73108,62 c -8.82418,0 -9.77365,0.90635 -9.7304,9.74838 V 84 96.25162 c -0.0433,8.84203 0.90622,9.74838 9.7304,9.74838 h 16.53919 c 8.82418,0 9.7304,-0.90625 9.7304,-9.74838 V 84 71.74838 C 362.00067,62.90625 361.09445,62 352.27027,62 Z"
         id="path996-7"
         inkscape:connector-curvature="0"
         sodipodi:nodetypes="scccssscsss" />
    </clipPath>
    <clipPath
       clipPathUnits="userSpaceOnUse"
       id="clipPath994-0">
      <path
         style="color:#000000;display:inline;overflow:visible;visibility:visible;fill:#cdcdcd;fill-opacity:1;fill-rule:nonzero;stroke:none;stroke-width:2;stroke-miterlimit:4;stroke-dasharray:none;stroke-opacity:1;marker:none;enable-background:accumulate"
         d="m 335.73108,62 c -8.82418,0 -9.77365,0.90635 -9.7304,9.74838 V 84 96.25162 c -0.0433,8.84203 0.90622,9.74838 9.7304,9.74838 h 16.53919 c 8.82418,0 9.7304,-0.90625 9.7304,-9.74838 V 84 71.74838 C 362.00067,62.90625 361.09445,62 352.27027,62 Z"
         id="path996-9"
         inkscape:connector-curvature="0"
         sodipodi:nodetypes="scccssscsss" />
    </clipPath>
    <clipPath
       clipPathUnits="userSpaceOnUse"
       id="clipPath994-3">
      <path
         style="color:#000000;display:inline;overflow:visible;visibility:visible;fill:#cdcdcd;fill-opacity:1;fill-rule:nonzero;stroke:none;stroke-width:2;stroke-miterlimit:4;stroke-dasharray:none;stroke-opacity:1;marker:none;enable-background:accumulate"
         d="m 335.73108,62 c -8.82418,0 -9.77365,0.90635 -9.7304,9.74838 V 84 96.25162 c -0.0433,8.84203 0.90622,9.74838 9.7304,9.74838 h 16.53919 c 8.82418,0 9.7304,-0.90625 9.7304,-9.74838 V 84 71.74838 C 362.00067,62.90625 361.09445,62 352.27027,62 Z"
         id="path996-6"
         inkscape:connector-curvature="0"
         sodipodi:nodetypes="scccssscsss" />
    </clipPath>
    <clipPath
       clipPathUnits="userSpaceOnUse"
       id="clipPath994-06">
      <path
         style="color:#000000;display:inline;overflow:visible;visibility:visible;fill:#cdcdcd;fill-opacity:1;fill-rule:nonzero;stroke:none;stroke-width:2;stroke-miterlimit:4;stroke-dasharray:none;stroke-opacity:1;marker:none;enable-background:accumulate"
         d="m 335.73108,62 c -8.82418,0 -9.77365,0.90635 -9.7304,9.74838 V 84 96.25162 c -0.0433,8.84203 0.90622,9.74838 9.7304,9.74838 h 16.53919 c 8.82418,0 9.7304,-0.90625 9.7304,-9.74838 V 84 71.74838 C 362.00067,62.90625 361.09445,62 352.27027,62 Z"
         id="path996-2"
         inkscape:connector-curvature="0"
         sodipodi:nodetypes="scccssscsss" />
    </clipPath>
    <clipPath
       clipPathUnits="userSpaceOnUse"
       id="clipPath994-6">
      <path
         style="color:#000000;display:inline;overflow:visible;visibility:visible;fill:#cdcdcd;fill-opacity:1;fill-rule:nonzero;stroke:none;stroke-width:2;stroke-miterlimit:4;stroke-dasharray:none;stroke-opacity:1;marker:none;enable-background:accumulate"
         d="m 335.73108,62 c -8.82418,0 -9.77365,0.90635 -9.7304,9.74838 V 84 96.25162 c -0.0433,8.84203 0.90622,9.74838 9.7304,9.74838 h 16.53919 c 8.82418,0 9.7304,-0.90625 9.7304,-9.74838 V 84 71.74838 C 362.00067,62.90625 361.09445,62 352.27027,62 Z"
         id="path996-18"
         inkscape:connector-curvature="0"
         sodipodi:nodetypes="scccssscsss" />
    </clipPath>
    <clipPath
       clipPathUnits="userSpaceOnUse"
       id="clipPath994-7">
      <path
         style="color:#000000;display:inline;overflow:visible;visibility:visible;fill:#cdcdcd;fill-opacity:1;fill-rule:nonzero;stroke:none;stroke-width:2;stroke-miterlimit:4;stroke-dasharray:none;stroke-opacity:1;marker:none;enable-background:accumulate"
         d="m 335.73108,62 c -8.82418,0 -9.77365,0.90635 -9.7304,9.74838 V 84 96.25162 c -0.0433,8.84203 0.90622,9.74838 9.7304,9.74838 h 16.53919 c 8.82418,0 9.7304,-0.90625 9.7304,-9.74838 V 84 71.74838 C 362.00067,62.90625 361.09445,62 352.27027,62 Z"
         id="path996-92"
         inkscape:connector-curvature="0"
         sodipodi:nodetypes="scccssscsss" />
    </clipPath>
    <clipPath
       clipPathUnits="userSpaceOnUse"
       id="clipPath994-02">
      <path
         style="color:#000000;display:inline;overflow:visible;visibility:visible;fill:#cdcdcd;fill-opacity:1;fill-rule:nonzero;stroke:none;stroke-width:2;stroke-miterlimit:4;stroke-dasharray:none;stroke-opacity:1;marker:none;enable-background:accumulate"
         d="m 335.73108,62 c -8.82418,0 -9.77365,0.90635 -9.7304,9.74838 V 84 96.25162 c -0.0433,8.84203 0.90622,9.74838 9.7304,9.74838 h 16.53919 c 8.82418,0 9.7304,-0.90625 9.7304,-9.74838 V 84 71.74838 C 362.00067,62.90625 361.09445,62 352.27027,62 Z"
         id="path996-3"
         inkscape:connector-curvature="0"
         sodipodi:nodetypes="scccssscsss" />
    </clipPath>
    <linearGradient
       gradientUnits="userSpaceOnUse"
       y2="107"
       x2="344"
       y1="61"
       x1="344"
       id="linearGradient925"
       xlink:href="#linearGradient927-3-6"
       inkscape:collect="always"
       gradientTransform="matrix(0.26457031,0,0,0.26457031,-84.661743,-16.006503)" />
    <linearGradient
       id="linearGradient927-3-6"
       inkscape:collect="always">
      <stop
         id="stop923-3"
         offset="0"
         style="stop-color:#ffffff;stop-opacity:1;" />
      <stop
         style="stop-color:#ffffff;stop-opacity:0.09803922"
         offset="0.125"
         id="stop933-5" />
      <stop
         style="stop-color:#ffffff;stop-opacity:0.09803922"
         offset="0.92500001"
         id="stop931-6" />
      <stop
         id="stop925-2"
         offset="1"
         style="stop-color:#000000;stop-opacity:0.49803922" />
    </linearGradient>
    <linearGradient
       y2="125.99394"
       x2="-1.0000001e-06"
       y1="397.99393"
       x1="512"
       gradientTransform="matrix(0,-0.02997086,-0.02997,0,15.739286,13.625372)"
       gradientUnits="userSpaceOnUse"
       id="linearGradient951"
       xlink:href="#linearGradient926"
       inkscape:collect="always" />
    <linearGradient
       inkscape:collect="always"
       id="linearGradient926">
      <stop
         style="stop-color:#497f00;stop-opacity:1"
         offset="0"
         id="stop922" />
      <stop
         style="stop-color:#75cb00;stop-opacity:1"
         offset="1"
         id="stop924" />
    </linearGradient>
  </defs>
  <sodipodi:namedview
     pagecolor="#ffffff"
     bordercolor="#666666"
     borderopacity="1"
     objecttolerance="10"
     gridtolerance="10"
     guidetolerance="10"
     inkscape:pageopacity="0"
     inkscape:pageshadow="2"
     inkscape:window-width="792"
     inkscape:window-height="668"
     id="namedview49"
     showgrid="false"
     inkscape:zoom="10.489362"
     inkscape:cx="24.00106"
     inkscape:cy="23.999999"
     inkscape:window-x="38"
     inkscape:window-y="375"
     inkscape:window-maximized="0"
     inkscape:current-layer="svg47" />
  <linearGradient
     id="a"
     gradientTransform="matrix(0,-0.11988932,-0.11988589,0,67.016455,292.54831)"
     gradientUnits="userSpaceOnUse"
     x1="529.65503"
     x2="-35.310001"
     y1="401.58401"
     y2="119.093">
    <stop
       offset="0"
       stop-color="#76c22b"
       id="stop2" />
    <stop
       offset="1"
       stop-color="#a6d74f"
       id="stop4" />
  </linearGradient>
  <linearGradient
     id="b"
     gradientUnits="userSpaceOnUse"
     x1="88"
     x2="488"
     y1="88"
     y2="488">
    <stop
       offset="0"
       stop-opacity=".588235"
       id="stop7" />
    <stop
       offset=".88"
       stop-opacity="0"
       id="stop9" />
    <stop
       offset="1"
       id="stop11" />
  </linearGradient>
  <filter
     id="c"
     height="1.022"
     width="1.026"
     x="-0.0099999998"
     y="-0.0099999998"
     style="color-interpolation-filters:sRGB">
    <feGaussianBlur
       stdDeviation="2.12"
       id="feGaussianBlur14" />
  </filter>
  <path
     sodipodi:nodetypes="sccsccccccsscccscsccsss"
     inkscape:connector-curvature="0"
     id="path1020"
     d="m 4.1621981,0.39685643 c -0.5881821,0 -1.0513178,0.0135407 -1.4323995,0.0775109 C 2.3487141,0.53833623 2.0368757,0.65832281 1.808451,0.88620806 1.5800289,1.1140936 1.4594669,1.4257915 1.3960944,1.8070368 1.3327219,2.1882824 1.3203506,2.6524292 1.3232344,3.2420207 v 3.2399529 3.241503 c -0.00286,0.5886854 0.00955,1.0525974 0.07286,1.4334334 0.063373,0.381246 0.1839345,0.692944 0.4123566,0.920829 0.2284247,0.227885 0.5402631,0.347873 0.9213476,0.411841 0.3810844,0.06397 0.8442174,0.07751 1.4323995,0.07751 h 4.3757443 c 0.5881821,0 1.0510744,-0.01352 1.4313677,-0.07751 0.3802939,-0.064 0.6911799,-0.18439 0.9187599,-0.412357 0.227584,-0.227967 0.347434,-0.539443 0.411325,-0.920313 0.06389,-0.380868 0.07751,-0.844073 0.07751,-1.4334334 v -3.241503 -3.241503 c 0,-0.5893606 -0.01363,-1.0525644 -0.07751,-1.4334338 C 11.235505,1.4261677 11.115654,1.1146926 10.88807,0.88672477 10.66049,0.65875723 10.349604,0.53836398 9.9693101,0.47436733 9.5890168,0.41037043 9.1261245,0.39685643 8.5379424,0.39685643 Z"
     style="color:#000000;font-style:normal;font-variant:normal;font-weight:normal;font-stretch:normal;font-size:medium;line-height:normal;font-family:sans-serif;font-variant-ligatures:normal;font-variant-position:normal;font-variant-caps:normal;font-variant-numeric:normal;font-variant-alternates:normal;font-feature-settings:normal;text-indent:0;text-align:start;text-decoration:none;text-decoration-line:none;text-decoration-style:solid;text-decoration-color:#000000;letter-spacing:normal;word-spacing:normal;text-transform:none;writing-mode:lr-tb;direction:ltr;text-orientation:mixed;dominant-baseline:auto;baseline-shift:baseline;text-anchor:start;white-space:normal;shape-padding:0;clip-rule:nonzero;display:inline;overflow:visible;visibility:visible;opacity:0.1;isolation:auto;mix-blend-mode:normal;color-interpolation:sRGB;color-interpolation-filters:linearRGB;solid-color:#000000;solid-opacity:1;vector-effect:none;fill:#000000;fill-opacity:1;fill-rule:nonzero;stroke:none;stroke-width:0.52914065;stroke-linecap:butt;stroke-linejoin:miter;stroke-miterlimit:4;stroke-dasharray:none;stroke-dashoffset:0;stroke-opacity:1;marker:none;color-rendering:auto;image-rendering:auto;shape-rendering:auto;text-rendering:auto;enable-background:accumulate" />
  <path
     inkscape:connector-curvature="0"
     id="path949"
     d="m 4.1621981,0.13228612 c -0.5880975,0 -1.0515929,0.0141042 -1.4323995,0.0780276 C 2.3485236,0.27431482 2.0369736,0.39416945 1.808451,0.62215445 1.5798887,0.85018099 1.4594933,1.1610553 1.3960944,1.5424665 1.3327804,1.9233631 1.3203504,2.3873882 1.3232344,2.9769337 v 3.2404696 3.241503 c -0.00286,0.5889347 0.00958,1.0528007 0.07286,1.4334327 0.063399,0.381413 0.1837917,0.692286 0.4123566,0.920314 0.2285253,0.227982 0.54007,0.347838 0.9213476,0.41184 0.3808066,0.06392 0.844302,0.07803 1.4323995,0.07803 h 4.3757443 c 0.5880922,0 1.0508336,-0.01408 1.4308492,-0.07803 0.3804414,-0.06402 0.6914784,-0.183651 0.9192784,-0.41184 0.227724,-0.228108 0.347405,-0.539258 0.411325,-0.920314 0.06386,-0.38069 0.07751,-0.844226 0.07751,-1.4334327 v -3.241503 -3.241503 c 0,-0.5892071 -0.01365,-1.0527452 -0.07751,-1.4334338 C 11.235475,1.1614122 11.115794,0.85026301 10.88807,0.62215446 10.66027,0.39396759 10.349233,0.27433551 9.9687916,0.21031373 9.588776,0.14636363 9.1260346,0.13228613 8.5379424,0.13228613 Z"
     style="color:#000000;display:inline;overflow:visible;visibility:visible;fill:url(#linearGradient951);fill-opacity:1;fill-rule:nonzero;stroke:none;stroke-width:0.26457033;marker:none;enable-background:accumulate" />
  <path
     inkscape:connector-curvature="0"
     style="color:#000000;display:inline;overflow:visible;visibility:visible;opacity:0.3;fill:none;fill-opacity:1;fill-rule:nonzero;stroke:url(#linearGradient925);stroke-width:0.26457033;stroke-opacity:1;marker:none;enable-background:accumulate"
     d="m 4.1625738,0.26457128 c -0.5859201,0 -1.0443172,0.0144588 -1.4106968,0.0759605 C 2.3854973,0.40203278 2.1048676,0.5136502 1.9023576,0.7156843 1.6998475,0.91771839 1.588101,1.1978219 1.5272048,1.5641695 1.4663086,1.9305173 1.4530219,2.3892039 1.4558952,2.976417 v 3.2409863 3.241503 c -0.00286,0.5869057 0.010424,1.0455177 0.07131,1.4117307 0.060896,0.366348 0.1726401,0.646451 0.3751528,0.848485 0.2025127,0.202033 0.4831372,0.31365 0.8495195,0.375152 0.3663796,0.0615 0.8247767,0.07596 1.4106968,0.07596 h 4.3757442 c 0.5859174,0 1.0436082,-0.01444 1.4091465,-0.07596 0.365538,-0.06151 0.64572,-0.173076 0.847453,-0.375152 0.201732,-0.202074 0.313211,-0.482325 0.374634,-0.848485 0.06142,-0.36616 0.07545,-0.82463 0.07545,-1.4117307 v -3.241503 -3.241503 c 0,-0.5871009 -0.01402,-1.0455705 -0.07545,-1.4117308 C 11.108132,1.1980092 10.99665,0.9177586 10.794918,0.7156843 10.593185,0.51360999 10.313003,0.40204571 9.947465,0.34053179 9.5819267,0.27901809 9.1242359,0.26457129 8.5383185,0.26457129 Z"
     id="path901" />
  <path
     style="display:inline;fill:none;stroke:#ffffff;stroke-width:0.52914065;stroke-linecap:butt;stroke-linejoin:miter;stroke-miterlimit:4;stroke-dasharray:none;stroke-opacity:1;enable-background:new"
     d="M 1.3232343,4.3654111 H 3.9379298 L 4.8063554,7.4531477 5.9546117,3.4004941 6.7784943,5.6221201 7.6046177,3.4004941 8.5778714,6.2174033 H 11.376907"
     id="path981"
     inkscape:connector-curvature="0"
     sodipodi:nodetypes="cccccccc" />
  <path
     inkscape:connector-curvature="0"
     id="path1006"
     d="m 1.5878047,6.2174033 v 3.241503 C 1.5763487,11.798244 1.8275821,12.03795 4.1621981,12.03795 h 4.3757443 c 2.3346166,0 2.5743936,-0.239679 2.5743936,-2.5790437 v -3.241503 z"
     style="color:#000000;display:inline;overflow:visible;visibility:visible;opacity:0.07999998;fill:#ffffff;fill-opacity:1;fill-rule:nonzero;stroke:none;stroke-width:0.26457033;marker:none;enable-background:accumulate" />
  <path
     inkscape:connector-curvature="0"
     id="path1013"
     d="M 6.3500703,0.39685643 V 12.03795 h 2.1878721 c 2.3346166,0 2.5743936,-0.239679 2.5743936,-2.5790437 v -3.241503 -3.241503 c 0,-2.33936512 -0.239777,-2.57904387 -2.5743936,-2.57904387 z"
     style="color:#000000;display:inline;overflow:visible;visibility:visible;opacity:0.07999998;fill:#ffffff;fill-opacity:1;fill-rule:nonzero;stroke:none;stroke-width:0.26457033;marker:none;enable-background:accumulate" />
  <g
     aria-label="ext"
     style="font-style:normal;font-variant:normal;font-weight:normal;font-stretch:normal;font-size:2.46932197px;line-height:1.25;font-family:ubuntu;-inkscape-font-specification:'ubuntu, Normal';font-variant-ligatures:normal;font-variant-caps:normal;font-variant-numeric:normal;font-feature-settings:normal;text-align:start;letter-spacing:0px;word-spacing:0px;writing-mode:lr-tb;text-anchor:start;display:inline;fill:#ffffff;fill-opacity:1;stroke:none;stroke-width:0.26457033;enable-background:new"
     id="text930">
    <path
       d="m 4.6176513,10.090711 q 0,-0.170383 0.049386,-0.2963184 0.049386,-0.1284048 0.130874,-0.2123617 0.081488,-0.083957 0.1876685,-0.1259354 0.1061808,-0.041979 0.2173003,-0.041979 0.2592788,0 0.3975609,0.1629753 0.138282,0.1605059 0.138282,0.4913947 0,0.01482 0,0.03951 0,0.02222 -0.00247,0.04198 H 4.8571756 q 0.014816,0.200015 0.1160581,0.303727 0.1012422,0.103711 0.3160732,0.103711 0.1209968,0 0.2024844,-0.01975 0.083957,-0.02222 0.1259354,-0.04198 l 0.032101,0.192607 q -0.041978,0.02222 -0.1481593,0.04692 -0.1037115,0.02469 -0.2370549,0.02469 -0.1679139,0 -0.29138,-0.04939 -0.1209968,-0.05186 -0.2000151,-0.140751 -0.079018,-0.0889 -0.1185274,-0.209893 -0.03704,-0.123466 -0.03704,-0.269156 z M 5.4991993,9.9647758 Q 5.5016686,9.8092085 5.420181,9.7104356 5.3411627,9.6091934 5.2004113,9.6091934 q -0.079018,0 -0.1407513,0.032101 -0.059264,0.029632 -0.1012422,0.079018 -0.041978,0.049387 -0.066672,0.1135888 -0.022224,0.064202 -0.029632,0.1308741 z"
       style="stroke-width:0.26457033"
       id="path8677" />
    <path
       d="m 6.8375671,10.730266 q -0.027163,-0.05433 -0.066672,-0.120997 -0.039509,-0.06667 -0.086426,-0.135813 -0.046917,-0.07161 -0.096304,-0.140751 -0.049386,-0.06914 -0.096304,-0.130874 -0.046917,0.06173 -0.096304,0.133343 -0.049386,0.06914 -0.096304,0.140751 -0.044448,0.06914 -0.083957,0.135813 -0.039509,0.06667 -0.066672,0.118528 H 5.9115714 q 0.086426,-0.167914 0.2049537,-0.340767 0.1209968,-0.175322 0.2395242,-0.333358 L 5.9313259,9.4462182 H 6.1906047 L 6.4968007,9.8956348 6.8054659,9.4462182 H 7.0499288 L 6.6350827,10.041325 q 0.1185274,0.160506 0.2419935,0.340766 0.1259355,0.177791 0.2123617,0.348175 z"
       style="stroke-width:0.26457033"
       id="path8679" />
    <path
       d="M 7.5462617,9.4462182 H 8.0327181 V 9.6388253 H 7.5462617 v 0.5926377 q 0,0.0963 0.014816,0.160506 0.014816,0.06173 0.044448,0.09877 0.029632,0.03457 0.07408,0.04939 0.044448,0.01482 0.1037115,0.01482 0.1037115,0 0.1654446,-0.02222 0.064202,-0.02469 0.088895,-0.03457 l 0.044448,0.190138 q -0.03457,0.01728 -0.1209967,0.04198 -0.086426,0.02716 -0.1975458,0.02716 -0.1308741,0 -0.2173003,-0.0321 -0.083957,-0.03457 -0.1358127,-0.101242 -0.051856,-0.06667 -0.07408,-0.162975 -0.019755,-0.09877 -0.019755,-0.227178 V 9.0881665 l 0.229647,-0.039509 z"
       style="stroke-width:0.26457033"
       id="path8681" />
  </g>
</svg>
