<?xml version="1.0" encoding="UTF-8" standalone="no"?>
<svg
   xmlns:dc="http://purl.org/dc/elements/1.1/"
   xmlns:cc="http://creativecommons.org/ns#"
   xmlns:rdf="http://www.w3.org/1999/02/22-rdf-syntax-ns#"
   xmlns:svg="http://www.w3.org/2000/svg"
   xmlns="http://www.w3.org/2000/svg"
   xmlns:xlink="http://www.w3.org/1999/xlink"
   xmlns:sodipodi="http://sodipodi.sourceforge.net/DTD/sodipodi-0.dtd"
   xmlns:inkscape="http://www.inkscape.org/namespaces/inkscape"
   height="48"
   viewBox="0 0 12.699375 12.699376"
   width="48"
   version="1.1"
   id="svg33"
   sodipodi:docname="application-x-virtualbox-vbox.svg"
   inkscape:version="0.92.5 (2060ec1f9f, 2020-04-08)">
  <metadata
     id="metadata39">
    <rdf:RDF>
      <cc:Work
         rdf:about="">
        <dc:format>image/svg+xml</dc:format>
        <dc:type
           rdf:resource="http://purl.org/dc/dcmitype/StillImage" />
        <dc:title></dc:title>
      </cc:Work>
    </rdf:RDF>
  </metadata>
  <defs
     id="defs37">
    <linearGradient
       gradientTransform="matrix(0.26457032,0,0,0.26457032,-84.661745,-16.006504)"
       inkscape:collect="always"
       xlink:href="#linearGradient927-3-6"
       id="linearGradient925"
       x1="344"
       y1="61"
       x2="344"
       y2="107"
       gradientUnits="userSpaceOnUse" />
    <linearGradient
       inkscape:collect="always"
       id="linearGradient927-3-6">
      <stop
         style="stop-color:#ffffff;stop-opacity:1;"
         offset="0"
         id="stop923-3" />
      <stop
         id="stop933-5"
         offset="0.125"
         style="stop-color:#ffffff;stop-opacity:0.09803922" />
      <stop
         id="stop931-6"
         offset="0.92500001"
         style="stop-color:#ffffff;stop-opacity:0.09803922" />
      <stop
         style="stop-color:#000000;stop-opacity:0.49803922"
         offset="1"
         id="stop925-2" />
    </linearGradient>
    <linearGradient
       inkscape:collect="always"
       xlink:href="#linearGradient926"
       id="linearGradient951"
       gradientUnits="userSpaceOnUse"
       gradientTransform="matrix(0,-0.02997086,-0.02997,0,15.739288,13.625372)"
       x1="512"
       y1="397.99393"
       x2="-1.0000001e-06"
       y2="125.99394" />
    <linearGradient
       id="linearGradient926"
       inkscape:collect="always">
      <stop
         id="stop922"
         offset="0"
         style="stop-color:#007fd5;stop-opacity:1" />
      <stop
         id="stop924"
         offset="1"
         style="stop-color:#2fabff;stop-opacity:1" />
    </linearGradient>
  </defs>
  <sodipodi:namedview
     pagecolor="#ffffff"
     bordercolor="#666666"
     borderopacity="1"
     objecttolerance="10"
     gridtolerance="10"
     guidetolerance="10"
     inkscape:pageopacity="0"
     inkscape:pageshadow="2"
     inkscape:window-width="939"
     inkscape:window-height="670"
     id="namedview35"
     showgrid="false"
     inkscape:zoom="4.9166667"
     inkscape:cx="24"
     inkscape:cy="24"
     inkscape:window-x="0"
     inkscape:window-y="27"
     inkscape:window-maximized="0"
     inkscape:current-layer="svg33" />
  <linearGradient
     id="a"
     gradientUnits="userSpaceOnUse"
     x1="344"
     x2="344"
     y1="62"
     y2="106">
    <stop
       offset="0"
       stop-color="#fff"
       id="stop2" />
    <stop
       offset=".125"
       stop-color="#fff"
       stop-opacity=".098039"
       id="stop4" />
    <stop
       offset=".92500001"
       stop-color="#fff"
       stop-opacity=".098039"
       id="stop6" />
    <stop
       offset="1"
       stop-color="#fff"
       stop-opacity=".498039"
       id="stop8" />
  </linearGradient>
  <clipPath
     id="b">
    <path
       d="m335.73108 62c-8.82418 0-9.77365.90635-9.7304 9.74838v12.25162 12.25162c-.0433 8.84203.90622 9.74838 9.7304 9.74838h16.53919c8.82418 0 9.7304-.90625 9.7304-9.74838v-12.25162-12.25162c0-8.84213-.90622-9.74838-9.7304-9.74838z"
       id="path11" />
  </clipPath>
  <linearGradient
     id="c"
     gradientTransform="matrix(0 -.02997086 .02997 0 -3.039509 13.625372)"
     gradientUnits="userSpaceOnUse"
     x1="459.03448"
     x2="35.310345"
     y1="419.23337"
     y2="207.36522">
    <stop
       offset="0"
       stop-color="#f2f2f2"
       id="stop14" />
    <stop
       offset="1"
       stop-color="#f9f9f9"
       id="stop16" />
  </linearGradient>
  <flowRoot
     xml:space="preserve"
     id="flowRoot958"
     style="fill:black;fill-opacity:1;stroke:none;font-family:sans-serif;font-style:normal;font-weight:normal;font-size:40px;line-height:1.25;letter-spacing:0px;word-spacing:0px"><flowRegion
       id="flowRegion960"><rect
         id="rect962"
         width="61.423729"
         height="69.559319"
         x="-5.2881355"
         y="-15.050847" /></flowRegion><flowPara
       id="flowPara964"></flowPara></flowRoot>  <path
     style="color:#000000;font-style:normal;font-variant:normal;font-weight:normal;font-stretch:normal;font-size:medium;line-height:normal;font-family:sans-serif;font-variant-ligatures:normal;font-variant-position:normal;font-variant-caps:normal;font-variant-numeric:normal;font-variant-alternates:normal;font-feature-settings:normal;text-indent:0;text-align:start;text-decoration:none;text-decoration-line:none;text-decoration-style:solid;text-decoration-color:#000000;letter-spacing:normal;word-spacing:normal;text-transform:none;writing-mode:lr-tb;direction:ltr;text-orientation:mixed;dominant-baseline:auto;baseline-shift:baseline;text-anchor:start;white-space:normal;shape-padding:0;clip-rule:nonzero;display:inline;overflow:visible;visibility:visible;opacity:0.1;isolation:auto;mix-blend-mode:normal;color-interpolation:sRGB;color-interpolation-filters:linearRGB;solid-color:#000000;solid-opacity:1;vector-effect:none;fill:#000000;fill-opacity:1;fill-rule:nonzero;stroke:none;stroke-width:0.52914065;stroke-linecap:butt;stroke-linejoin:miter;stroke-miterlimit:4;stroke-dasharray:none;stroke-dashoffset:0;stroke-opacity:1;marker:none;color-rendering:auto;image-rendering:auto;shape-rendering:auto;text-rendering:auto;enable-background:accumulate"
     d="m 4.1621983,0.39685732 c -0.5881821,0 -1.0513178,0.0135407 -1.4323996,0.0775109 C 2.3487143,0.5383371 2.0368758,0.65832371 1.8084511,0.88620901 1.580029,1.1140945 1.459467,1.4257925 1.3960945,1.8070378 1.3327219,2.1882834 1.3203506,2.6524302 1.3232344,3.2420217 v 3.239953 3.2415032 c -0.00286,0.5886851 0.00955,1.0525961 0.07286,1.4334321 0.063372,0.381246 0.1839345,0.692944 0.4123566,0.920829 0.2284247,0.227885 0.5402632,0.347873 0.9213476,0.411841 0.3810845,0.06397 0.8442175,0.07751 1.4323996,0.07751 h 4.3757445 c 0.588182,0 1.051074,-0.01352 1.4313682,-0.07751 0.3802931,-0.064 0.6911791,-0.18439 0.9187601,-0.412357 0.227583,-0.227967 0.347434,-0.539443 0.411325,-0.920313 0.06389,-0.380867 0.07751,-0.844073 0.07751,-1.4334321 V 6.4819747 3.2404716 c 0,-0.5893606 -0.01362,-1.0525645 -0.07751,-1.4334338 C 11.235505,1.4261687 11.115654,1.1146935 10.888071,0.88672571 10.66049,0.65875813 10.349604,0.53836488 9.9693109,0.47436823 9.5890168,0.41037131 9.1261248,0.39685732 8.5379428,0.39685732 Z"
     id="path1020"
     inkscape:connector-curvature="0"
     sodipodi:nodetypes="sccsccccccsscccscsccsss" />
  <path
     style="color:#000000;display:inline;overflow:visible;visibility:visible;fill:url(#linearGradient951);fill-opacity:1;fill-rule:nonzero;stroke:none;stroke-width:0.26457033;marker:none;enable-background:accumulate"
     d="m 4.1621983,0.132287 c -0.5880975,0 -1.0515929,0.0141042 -1.4323996,0.0780276 C 2.3485238,0.27431576 2.0369737,0.39417035 1.8084511,0.62215536 1.5798888,0.85018191 1.4594935,1.1610563 1.3960945,1.5424675 1.3327801,1.9233641 1.3203506,2.3873892 1.3232344,2.9769347 v 3.2404697 3.2415032 c -0.00286,0.5889344 0.00958,1.0528004 0.07286,1.4334324 0.063399,0.381412 0.1837917,0.692285 0.4123566,0.920313 0.2285253,0.227983 0.54007,0.347839 0.9213476,0.411841 0.3808067,0.06392 0.8443021,0.07803 1.4323996,0.07803 h 4.3757445 c 0.588092,0 1.050834,-0.01408 1.4308492,-0.07803 0.3804421,-0.06402 0.6914791,-0.183652 0.9192791,-0.411841 0.227724,-0.228107 0.347405,-0.539258 0.411325,-0.920313 0.06386,-0.38069 0.07751,-0.844226 0.07751,-1.4334324 V 6.2174044 2.9759013 c 0,-0.5892071 -0.01365,-1.0527452 -0.07751,-1.4334338 C 11.235476,1.1614132 11.115795,0.85026391 10.888071,0.62215536 10.660271,0.39396848 10.349234,0.27433639 9.9687919,0.21031461 9.5887768,0.14636452 9.1260348,0.132287 8.5379428,0.132287 Z"
     id="path949"
     inkscape:connector-curvature="0" />
  <path
     id="path901"
     d="m 4.162574,0.26457216 c -0.5859201,0 -1.0443173,0.0144588 -1.4106969,0.0759605 C 2.3854975,0.40203364 2.1048678,0.5136511 1.9023577,0.7156852 1.6998477,0.91771931 1.5881011,1.1978228 1.5272049,1.5641704 1.4663088,1.9305183 1.4530221,2.3892049 1.4558953,2.976418 v 3.2409864 3.2415032 c -0.00286,0.5869044 0.010424,1.0455164 0.07131,1.4117294 0.060896,0.366348 0.1726401,0.646451 0.3751528,0.848485 0.2025127,0.202034 0.4831371,0.313651 0.8495194,0.375153 0.3663796,0.0615 0.8247768,0.07596 1.4106969,0.07596 h 4.3757448 c 0.585917,0 1.043608,-0.01445 1.4091457,-0.07596 0.3655391,-0.06151 0.6457211,-0.173077 0.8474531,-0.375153 0.201733,-0.202073 0.313212,-0.482325 0.374635,-0.848485 0.06142,-0.36616 0.07545,-0.824629 0.07545,-1.4117294 V 6.2174044 2.9759013 c 0,-0.5871009 -0.01402,-1.0455706 -0.07545,-1.4117309 C 11.10813,1.1980101 10.996651,0.91775951 10.794918,0.7156852 10.593186,0.51361088 10.313004,0.40204661 9.9474649,0.34053268 9.5819268,0.27901902 9.1242358,0.26457216 8.5383188,0.26457216 Z"
     style="color:#000000;display:inline;overflow:visible;visibility:visible;opacity:0.3;fill:none;fill-opacity:1;fill-rule:nonzero;stroke:url(#linearGradient925);stroke-width:0.26457033;stroke-opacity:1;marker:none;enable-background:accumulate"
     inkscape:connector-curvature="0" />
  <path
     sodipodi:nodetypes="cccccccc"
     inkscape:connector-curvature="0"
     id="path981"
     d="M 1.3232344,4.3654122 H 3.93793 L 4.8063556,7.4531489 5.954612,3.4004951 6.7784946,5.6221212 7.6046181,3.4004951 8.5778718,6.2174044 h 2.7990352"
     style="display:inline;fill:none;stroke:#ffffff;stroke-width:0.52914065;stroke-linecap:butt;stroke-linejoin:miter;stroke-miterlimit:4;stroke-dasharray:none;stroke-opacity:1;enable-background:new" />
  <path
     style="color:#000000;display:inline;overflow:visible;visibility:visible;opacity:0.07999998;fill:#ffffff;fill-opacity:1;fill-rule:nonzero;stroke:none;stroke-width:0.26457033;marker:none;enable-background:accumulate"
     d="m 1.5878048,6.2174044 v 3.2415032 c -0.011456,2.3393374 0.2397774,2.5790434 2.5743935,2.5790434 h 4.3757445 c 2.3346162,0 2.5743942,-0.23968 2.5743942,-2.5790434 V 6.2174044 Z"
     id="path1006"
     inkscape:connector-curvature="0" />
  <path
     style="color:#000000;display:inline;overflow:visible;visibility:visible;opacity:0.07999998;fill:#ffffff;fill-opacity:1;fill-rule:nonzero;stroke:none;stroke-width:0.26457033;marker:none;enable-background:accumulate"
     d="M 6.3500706,0.39685732 V 12.037951 h 2.1878722 c 2.3346162,0 2.5743942,-0.23968 2.5743942,-2.5790434 V 6.2174044 2.9759013 c 0,-2.33936522 -0.239778,-2.57904398 -2.5743942,-2.57904398 z"
     id="path1013"
     inkscape:connector-curvature="0" />
  <g
     aria-label="vbox"
     style="font-style:normal;font-variant:normal;font-weight:normal;font-stretch:normal;font-size:2.46932292px;line-height:1.25;font-family:ubuntu;-inkscape-font-specification:'ubuntu, Normal';font-variant-ligatures:normal;font-variant-caps:normal;font-variant-numeric:normal;font-feature-settings:normal;text-align:start;letter-spacing:0px;word-spacing:0px;writing-mode:lr-tb;text-anchor:start;display:inline;fill:#ffffff;fill-opacity:1;stroke:none;stroke-width:0.26457033;enable-background:new"
     id="text930">
    <path
       d="M 4.8670593,9.4462177 Q 4.7707557,9.8067388 4.6398816,10.137628 4.5114768,10.468517 4.39048,10.730266 H 4.1830568 Q 4.06206,10.468517 3.9311859,10.137628 3.8027811,9.8067388 3.7064775,9.4462177 h 0.2469323 q 0.029632,0.1209968 0.069141,0.2592789 0.041978,0.1358128 0.086426,0.2716255 0.046917,0.1333439 0.093834,0.2592789 0.046917,0.125936 0.088896,0.224708 0.041978,-0.09877 0.088896,-0.224708 0.046917,-0.125935 0.091365,-0.2592789 0.046917,-0.1358127 0.086426,-0.2716255 0.041978,-0.1382821 0.07161,-0.2592789 z"
       style="stroke-width:0.26457033"
       id="path1299" />
    <path
       d="m 5.3337587,9.5030121 q 0.041978,-0.027162 0.1259354,-0.056794 0.086426,-0.029632 0.1975459,-0.029632 0.138282,0 0.2444629,0.049387 0.1086502,0.049386 0.1827299,0.1382821 0.07408,0.088896 0.1111195,0.2123617 0.039509,0.1234662 0.039509,0.2716259 0,0.155567 -0.046917,0.281502 -0.044448,0.123467 -0.1284048,0.209893 -0.083957,0.08643 -0.2024845,0.133343 -0.1185275,0.04692 -0.2666869,0.04692 -0.160506,0 -0.2839721,-0.02222 Q 5.18313,10.71545 5.1041116,10.693226 V 8.8535802 L 5.3337587,8.814071 Z m 0,1.0272379 q 0.034571,0.0099 0.096304,0.01975 0.064202,0.0074 0.1580367,0.0074 0.1851992,0 0.2963188,-0.120997 0.1111195,-0.123466 0.1111195,-0.348174 0,-0.098773 -0.019755,-0.1851996 -0.019755,-0.086426 -0.064202,-0.1481593 -0.044448,-0.064202 -0.1160582,-0.098773 -0.069141,-0.03704 -0.1679139,-0.03704 -0.093834,0 -0.1728526,0.032101 -0.079018,0.032101 -0.1209968,0.066672 z"
       style="stroke-width:0.26457033"
       id="path1301" />
    <path
       d="m 7.6919589,10.088242 q 0,0.153098 -0.044448,0.276564 -0.044448,0.123466 -0.1259355,0.212362 -0.079018,0.08889 -0.1901378,0.138282 -0.1111196,0.04692 -0.2419937,0.04692 -0.1308741,0 -0.2419936,-0.04692 -0.1111196,-0.04939 -0.1926072,-0.138282 -0.079018,-0.0889 -0.1234662,-0.212362 -0.044448,-0.123466 -0.044448,-0.276564 0,-0.150629 0.044448,-0.2740952 Q 6.575825,9.6882113 6.6548433,9.5993157 6.7363309,9.5104201 6.8474505,9.463503 6.95857,9.4141165 7.0894441,9.4141165 q 0.1308741,0 0.2419937,0.049386 0.1111195,0.046917 0.1901378,0.1358127 0.081488,0.088896 0.1259355,0.2148311 0.044448,0.1234662 0.044448,0.2740952 z m -0.2395243,0 q 0,-0.2173008 -0.098773,-0.3432362 Q 7.2573581,9.616601 7.0894441,9.616601 q -0.1679139,0 -0.2666869,0.1284048 -0.096303,0.1259354 -0.096303,0.3432362 0,0.2173 0.096303,0.345705 0.098773,0.125935 0.2666869,0.125935 0.167914,0 0.2642176,-0.125935 0.098773,-0.128405 0.098773,-0.345705 z"
       style="stroke-width:0.26457033"
       id="path1303" />
    <path
       d="m 8.7414166,10.730266 q -0.027163,-0.05433 -0.066672,-0.120997 -0.039509,-0.06667 -0.086426,-0.135813 -0.046917,-0.07161 -0.096304,-0.140751 -0.049387,-0.06914 -0.096304,-0.130874 -0.046917,0.06173 -0.096304,0.133343 -0.049386,0.06914 -0.096304,0.140751 -0.044448,0.06914 -0.083957,0.135813 -0.039509,0.06667 -0.066672,0.118528 H 7.8154205 Q 7.9018468,10.562352 8.0203743,10.389499 8.1413711,10.214177 8.2598986,10.05614 L 7.8351751,9.4462177 H 8.094454 L 8.40065,9.8956345 8.7093154,9.4462177 h 0.244463 L 8.5389321,10.041325 q 0.1185275,0.160506 0.2419937,0.340766 0.1259354,0.177791 0.2123617,0.348175 z"
       style="stroke-width:0.26457033"
       id="path1305" />
  </g>
</svg>
