<?xml version="1.0" encoding="UTF-8" standalone="no"?>
<svg
   xmlns:dc="http://purl.org/dc/elements/1.1/"
   xmlns:cc="http://creativecommons.org/ns#"
   xmlns:rdf="http://www.w3.org/1999/02/22-rdf-syntax-ns#"
   xmlns:svg="http://www.w3.org/2000/svg"
   xmlns="http://www.w3.org/2000/svg"
   xmlns:xlink="http://www.w3.org/1999/xlink"
   xmlns:sodipodi="http://sodipodi.sourceforge.net/DTD/sodipodi-0.dtd"
   xmlns:inkscape="http://www.inkscape.org/namespaces/inkscape"
   height="48"
   viewBox="0 0 12.699375 12.699375"
   width="48"
   version="1.1"
   id="svg47"
   sodipodi:docname="application-eps.svg"
   inkscape:version="0.92.5 (2060ec1f9f, 2020-04-08)">
  <metadata
     id="metadata53">
    <rdf:RDF>
      <cc:Work
         rdf:about="">
        <dc:format>image/svg+xml</dc:format>
        <dc:type
           rdf:resource="http://purl.org/dc/dcmitype/StillImage" />
        <dc:title></dc:title>
      </cc:Work>
    </rdf:RDF>
  </metadata>
  <defs
     id="defs51">
    <clipPath
       clipPathUnits="userSpaceOnUse"
       id="clipPath994">
      <path
         style="color:#000000;display:inline;overflow:visible;visibility:visible;fill:#cdcdcd;fill-opacity:1;fill-rule:nonzero;stroke:none;stroke-width:2;stroke-miterlimit:4;stroke-dasharray:none;stroke-opacity:1;marker:none;enable-background:accumulate"
         d="m 335.73108,62 c -8.82418,0 -9.77365,0.90635 -9.7304,9.74838 V 84 96.25162 c -0.0433,8.84203 0.90622,9.74838 9.7304,9.74838 h 16.53919 c 8.82418,0 9.7304,-0.90625 9.7304,-9.74838 V 84 71.74838 C 362.00067,62.90625 361.09445,62 352.27027,62 Z"
         id="path996"
         inkscape:connector-curvature="0"
         sodipodi:nodetypes="scccssscsss" />
    </clipPath>
    <linearGradient
       gradientTransform="matrix(0.26457031,0,0,0.26457031,-84.662115,-16.006503)"
       inkscape:collect="always"
       xlink:href="#linearGradient927"
       id="linearGradient923"
       x1="344"
       y1="61"
       x2="344"
       y2="107"
       gradientUnits="userSpaceOnUse" />
    <linearGradient
       inkscape:collect="always"
       id="linearGradient927">
      <stop
         style="stop-color:#ffffff;stop-opacity:1;"
         offset="0"
         id="stop923" />
      <stop
         id="stop933"
         offset="0.125"
         style="stop-color:#ffffff;stop-opacity:0.09803922" />
      <stop
         id="stop931"
         offset="0.92500001"
         style="stop-color:#ffffff;stop-opacity:0.09803922" />
      <stop
         style="stop-color:#ffffff;stop-opacity:0.49803922"
         offset="1"
         id="stop925" />
    </linearGradient>
    <linearGradient
       inkscape:collect="always"
       xlink:href="#linearGradient4246"
       id="linearGradient951"
       gradientUnits="userSpaceOnUse"
       gradientTransform="matrix(0,-0.02997086,-0.02997,0,15.739287,13.625372)"
       x1="512"
       y1="397.99393"
       x2="-1.0000001e-06"
       y2="125.99394" />
    <linearGradient
       inkscape:collect="always"
       id="linearGradient4246">
      <stop
         style="stop-color:#da1636;stop-opacity:1"
         offset="0"
         id="stop4248" />
      <stop
         style="stop-color:#f22c42;stop-opacity:1"
         offset="1"
         id="stop4250" />
    </linearGradient>
  </defs>
  <sodipodi:namedview
     pagecolor="#ffffff"
     bordercolor="#666666"
     borderopacity="1"
     objecttolerance="10"
     gridtolerance="10"
     guidetolerance="10"
     inkscape:pageopacity="0"
     inkscape:pageshadow="2"
     inkscape:window-width="792"
     inkscape:window-height="668"
     id="namedview49"
     showgrid="false"
     inkscape:zoom="10.270833"
     inkscape:cx="24"
     inkscape:cy="24"
     inkscape:window-x="40"
     inkscape:window-y="320"
     inkscape:window-maximized="0"
     inkscape:current-layer="svg47" />
  <linearGradient
     id="a"
     gradientTransform="matrix(0,-0.11988932,-0.11988589,0,67.016455,292.54831)"
     gradientUnits="userSpaceOnUse"
     x1="529.65503"
     x2="-35.310001"
     y1="401.58401"
     y2="119.093">
    <stop
       offset="0"
       stop-color="#76c22b"
       id="stop2" />
    <stop
       offset="1"
       stop-color="#a6d74f"
       id="stop4" />
  </linearGradient>
  <linearGradient
     id="b"
     gradientUnits="userSpaceOnUse"
     x1="88"
     x2="488"
     y1="88"
     y2="488">
    <stop
       offset="0"
       stop-opacity=".588235"
       id="stop7" />
    <stop
       offset=".88"
       stop-opacity="0"
       id="stop9" />
    <stop
       offset="1"
       id="stop11" />
  </linearGradient>
  <filter
     id="c"
     height="1.022"
     width="1.026"
     x="-0.0099999998"
     y="-0.0099999998"
     style="color-interpolation-filters:sRGB">
    <feGaussianBlur
       stdDeviation="2.12"
       id="feGaussianBlur14" />
  </filter>
  <path
     style="color:#000000;font-style:normal;font-variant:normal;font-weight:normal;font-stretch:normal;font-size:medium;line-height:normal;font-family:sans-serif;font-variant-ligatures:normal;font-variant-position:normal;font-variant-caps:normal;font-variant-numeric:normal;font-variant-alternates:normal;font-feature-settings:normal;text-indent:0;text-align:start;text-decoration:none;text-decoration-line:none;text-decoration-style:solid;text-decoration-color:#000000;letter-spacing:normal;word-spacing:normal;text-transform:none;writing-mode:lr-tb;direction:ltr;text-orientation:mixed;dominant-baseline:auto;baseline-shift:baseline;text-anchor:start;white-space:normal;shape-padding:0;clip-rule:nonzero;display:inline;overflow:visible;visibility:visible;opacity:0.1;isolation:auto;mix-blend-mode:normal;color-interpolation:sRGB;color-interpolation-filters:linearRGB;solid-color:#000000;solid-opacity:1;vector-effect:none;fill:#000000;fill-opacity:1;fill-rule:nonzero;stroke:none;stroke-width:0.52914065;stroke-linecap:butt;stroke-linejoin:miter;stroke-miterlimit:4;stroke-dasharray:none;stroke-dashoffset:0;stroke-opacity:1;marker:none;color-rendering:auto;image-rendering:auto;shape-rendering:auto;text-rendering:auto;enable-background:accumulate"
     d="m 4.1621982,0.39685614 c -0.5881821,0 -1.0513178,0.013541 -1.4323995,0.077511 -0.3810845,0.063969 -0.692923,0.1839554 -0.9213477,0.4118407 C 1.580029,1.1140934 1.4594669,1.4257913 1.3960944,1.8070366 1.3327214,2.1882822 1.3203504,2.652429 1.3232344,3.2420204 v 3.2399529 3.241503 c -0.00286,0.5886857 0.00955,1.0525977 0.07286,1.4334337 0.063373,0.381246 0.1839346,0.692944 0.4123566,0.920829 0.2284247,0.227885 0.5402632,0.347873 0.9213477,0.411841 0.3810844,0.06397 0.8442174,0.07751 1.4323995,0.07751 h 4.3757443 c 0.5881821,0 1.0510744,-0.01352 1.4313677,-0.07751 0.3802938,-0.064 0.6911798,-0.18439 0.9187598,-0.412357 0.227584,-0.227967 0.347434,-0.539443 0.411325,-0.920313 0.06389,-0.380868 0.07751,-0.844073 0.07751,-1.4334337 v -3.241503 -3.241503 c 0,-0.5893605 -0.01363,-1.0525643 -0.07751,-1.4334337 C 11.235505,1.4261674 11.115654,1.1146922 10.88807,0.88672444 10.66049,0.65875694 10.349604,0.53836364 9.9693102,0.47436704 9.5890169,0.41037004 9.1261246,0.39685604 8.5379425,0.39685604 Z"
     id="path1020"
     inkscape:connector-curvature="0"
     sodipodi:nodetypes="sccsccccccsscccscsccsss" />
  <path
     inkscape:connector-curvature="0"
     style="color:#000000;display:inline;overflow:visible;visibility:visible;fill:url(#linearGradient951);fill-opacity:1;fill-rule:nonzero;stroke:none;stroke-width:0.26457033;marker:none;enable-background:accumulate"
     d="m 4.1621982,0.13228574 c -0.5880975,0 -1.0515929,0.014104 -1.4323995,0.078028 -0.381275,0.064001 -0.6928251,0.1838557 -0.9213477,0.4118407 C 1.5798887,0.85018094 1.4594934,1.1610553 1.3960944,1.5424665 1.3327804,1.9233631 1.3203504,2.3873882 1.3232344,2.9769336 v 3.2404696 3.241503 c -0.00286,0.5889348 0.00958,1.0528008 0.07286,1.4334328 0.063399,0.381413 0.1837917,0.692286 0.4123566,0.920314 0.2285253,0.227982 0.5400701,0.347838 0.9213477,0.41184 0.3808066,0.06392 0.844302,0.07803 1.4323995,0.07803 h 4.3757443 c 0.5880922,0 1.0508336,-0.01408 1.4308492,-0.07803 0.3804413,-0.06402 0.6914783,-0.183651 0.9192783,-0.41184 0.227724,-0.228108 0.347405,-0.539258 0.411325,-0.920314 0.06386,-0.38069 0.07751,-0.844226 0.07751,-1.4334328 v -3.241503 -3.241503 c 0,-0.589207 -0.01365,-1.0527451 -0.07751,-1.4334337 -0.06392,-0.3810546 -0.183601,-0.69220386 -0.411325,-0.92031236 -0.2278,-0.2281869 -0.538837,-0.347819 -0.9192783,-0.4118407 -0.3800156,-0.06395 -0.842757,-0.078028 -1.4308492,-0.078028 z"
     id="path949" />
  <path
     sodipodi:nodetypes="cccccccccccsccsccccccsccsccc"
     inkscape:transform-center-y="-10.28797"
     inkscape:transform-center-x="-5.1890763"
     inkscape:connector-curvature="0"
     id="path929"
     d="M 6.8909024,2.4868587 4.2216234,5.6481058 C 4.9168321,5.7596021 6.0908417,6.6385568 5.9137595,7.8058942 6.2744826,6.9401608 5.6120356,5.884188 4.9758551,5.4578803 L 7.3041585,2.6770852 C 7.179456,2.5852648 7.0810993,2.539328 6.8909024,2.4868587 Z M 5.9929613,2.7072592 C 5.8891386,2.7076296 5.8112438,2.7229879 5.8153447,2.7229879 L 4.9627536,3.7001897 c -0.4787744,0.026235 -0.9444631,0.059056 -1.397008,0.1049669 -0.3213683,0.032793 -0.5771575,0.2885706 -0.6230657,0.6296176 -0.065587,0.5968312 -0.098357,1.2264551 -0.098357,1.8757551 0,0.6492994 0.03277,1.2789135 0.098357,1.8823029 0.045908,0.3804886 0.3016974,0.5706824 0.6230657,0.6296178 0.8919697,0.1442898 2.1840465,0.00658 2.1840465,-1.2198805 0,-1.1477513 -1.8823384,-1.6396592 -2.5250803,-1.324847 L 6.1957333,2.7295363 c -0.068865,-0.017216 -0.1404789,-0.02247 -0.202772,-0.022277 z m 1.9604025,1.0060291 c 0,0 -1.6723145,3.7122082 -1.8362793,4.0926059 -0.2492253,0.5640382 -0.5902749,0.9772343 -1.0821667,1.1215236 0.4328661,0.019679 0.8657032,0.026198 1.3116867,0.026198 0.9771375,0 1.9085653,-0.045901 2.7808562,-0.1311626 0.3212783,-0.032793 0.5837189,-0.2951295 0.6230684,-0.629618 0.072238,-0.60339 0.1049074,-1.2330041 0.1049074,-1.8823038 0,-0.6493 -0.032669,-1.2789236 -0.1049074,-1.8757551 C 9.7111796,4.093729 9.4488316,3.8379514 9.1274607,3.8051587 8.7470615,3.7658071 8.3535291,3.7329646 7.9533638,3.7132896 Z"
     style="clip-rule:evenodd;display:inline;fill:#ffffff;fill-opacity:1;fill-rule:evenodd;stroke-width:0.2645703;enable-background:new" />
  <path
     style="color:#000000;display:inline;overflow:visible;visibility:visible;opacity:0.07999998;fill:#ffffff;fill-opacity:1;fill-rule:nonzero;stroke:none;stroke-width:0.26457033;marker:none;enable-background:accumulate"
     d="m 1.5878047,6.2174029 v 3.241503 C 1.5763487,11.798244 1.8275821,12.03795 4.1621982,12.03795 h 4.3757443 c 2.3346165,0 2.5743935,-0.239679 2.5743935,-2.5790441 v -3.241503 z"
     id="path1006"
     inkscape:connector-curvature="0" />
  <path
     style="color:#000000;display:inline;overflow:visible;visibility:visible;opacity:0.07999998;fill:#ffffff;fill-opacity:1;fill-rule:nonzero;stroke:none;stroke-width:0.26457033;marker:none;enable-background:accumulate"
     d="M 6.3500704,0.39685614 V 12.03795 h 2.1878721 c 2.3346165,0 2.5743935,-0.239679 2.5743935,-2.5790441 v -3.241503 -3.241503 c 0,-2.33936506 -0.239777,-2.57904376 -2.5743935,-2.57904376 z"
     id="path1013"
     inkscape:connector-curvature="0" />
  <path
     id="path901"
     d="m 4.1621982,0.26457094 c -0.5859201,0 -1.0443172,0.014459 -1.4106968,0.075961 -0.3663796,0.061501 -0.6470094,0.1731184 -0.8495195,0.3751525 -0.20251,0.2020341 -0.3142566,0.48213766 -0.3751527,0.84848526 -0.060896,0.3663478 -0.074183,0.8250344 -0.07131,1.4122474 v 3.2409863 3.241503 c -0.00286,0.5869056 0.010424,1.0455176 0.07131,1.4117306 0.060896,0.366348 0.17264,0.646451 0.3751527,0.848485 0.2025127,0.202033 0.4831372,0.313651 0.8495195,0.375153 0.3663796,0.0615 0.8247767,0.07596 1.4106968,0.07596 h 4.3757443 c 0.5859174,0 1.0436082,-0.01444 1.4091465,-0.07596 0.365538,-0.06151 0.645721,-0.173077 0.847453,-0.375153 0.201732,-0.202074 0.313212,-0.482325 0.374634,-0.848485 0.06142,-0.36616 0.07545,-0.82463 0.07545,-1.4117306 v -3.241503 -3.241503 c 0,-0.5871008 -0.01402,-1.0455704 -0.07545,-1.4117307 C 11.107754,1.1980089 10.996274,0.91775824 10.794542,0.71568394 10.59281,0.51360964 10.312627,0.40204534 9.947089,0.34053144 9.5815507,0.27901784 9.1238599,0.26457094 8.5379425,0.26457094 Z"
     style="color:#000000;display:inline;overflow:visible;visibility:visible;opacity:0.4;fill:none;fill-opacity:1;fill-rule:nonzero;stroke:url(#linearGradient923);stroke-width:0.26457033;stroke-opacity:1;marker:none;enable-background:accumulate"
     inkscape:connector-curvature="0" />
</svg>
