<svg height="48" viewBox="0 0 12.7 12.7" width="48" xmlns="http://www.w3.org/2000/svg" xmlns:xlink="http://www.w3.org/1999/xlink"><linearGradient id="a" gradientUnits="userSpaceOnUse" x1="344" x2="344" y1="62" y2="106"><stop offset="0" stop-color="#fff"/><stop offset=".125" stop-color="#fff" stop-opacity=".098039"/><stop offset=".92500001" stop-color="#fff" stop-opacity=".098039"/><stop offset="1" stop-color="#fff" stop-opacity=".498039"/></linearGradient><clipPath id="b"><path d="m335.73108 62c-8.82418 0-9.77365.90635-9.7304 9.74838v12.25162 12.25162c-.0433 8.84203.90622 9.74838 9.7304 9.74838h16.53919c8.82418 0 9.7304-.90625 9.7304-9.74838v-12.25162-12.25162c0-8.84213-.90622-9.74838-9.7304-9.74838z"/></clipPath><linearGradient id="c" gradientTransform="matrix(0 -.60416661 .60414933 0 246.51532 325.86442)" gradientUnits="userSpaceOnUse" x1="459.03448" x2="35.310345" y1="419.23337" y2="207.36522"><stop offset="0" stop-color="#f2f2f2"/><stop offset="1" stop-color="#f9f9f9"/></linearGradient><g enable-background="new" stroke-width="5.333333" transform="matrix(.04960938 0 0 .04960938 -15.26913 -2.53989)"><path d="m391.69071 59.197775c-11.85685 0-21.19296.27296-28.87498 1.5625-7.68208 1.28951-13.96827 3.70826-18.57296 8.30208-4.60464 4.59382-7.03499 10.87717-8.31248 18.5625-1.27749 7.68532-1.52688 17.041825-1.46875 28.927085v65.31249 65.34375c-.0576 11.867.19254 21.21875 1.46875 28.89582 1.27749 7.68533 3.70784 13.96869 8.31248 18.5625 4.60469 4.59382 10.89088 7.01259 18.57296 8.30208 7.68208 1.28955 17.01813 1.56251 28.87498 1.56251h88.20831c11.85685 0 21.18805-.27253 28.85419-1.56251 7.66613-1.29008 13.93311-3.71701 18.52079-8.31248 4.58774-4.59546 7.00374-10.87434 8.29168-18.5521 1.28795-7.67771 1.56251-17.01522 1.56251-28.89582v-65.34375-65.34374c0-11.8806-.27467-21.218095-1.56251-28.895835-1.28794-7.67774-3.70394-13.95661-8.29168-18.55209-4.58768-4.59547-10.85466-7.02242-18.52079-8.31249-7.66614-1.29008-16.99734-1.5625-28.85419-1.5625z" opacity=".1"/><path d="m391.69396 59.197775c-47.06228 0-52.12612 4.83386-51.89546 51.991365v65.34196 65.34197c-.23093 47.15749 4.83318 51.99135 51.89546 51.99135h88.20901c47.06229 0 51.89546-4.83333 51.89546-51.99135v-65.34197-65.34196c0-47.158035-4.83317-51.991365-51.89546-51.991365z" fill="none" opacity=".2" stroke="#000" stroke-width="10.666666"/><path d="m391.69396 59.197775c-47.06228 0-52.12612 4.83386-51.89546 51.991365v65.34196 65.34197c-.23093 47.15749 4.83318 51.99135 51.89546 51.99135h88.20901c47.06229 0 51.89546-4.83333 51.89546-51.99135v-65.34197-65.34196c0-47.158035-4.83317-51.991365-51.89546-51.991365z" fill="url(#c)"/><path d="m339.79488 176.5311v65.34374c-.23094 47.15748 4.83354 51.98958 51.89583 51.98958h88.20831c47.06229 0 51.89584-4.83157 51.89584-51.98958v-65.34374z" fill="#fff" opacity=".2"/><path d="m435.79487 59.197775v234.666645h44.10415c47.06229 0 51.89584-4.83157 51.89584-51.98958v-65.34374-65.34374c0-47.158035-4.83355-51.989585-51.89584-51.989585z" fill="#fff" opacity=".1"/><text font-family="sans-serif" font-size="52.662109" letter-spacing="0" stroke-width="1.316553" word-spacing="0" x="435.0535" y="258.67981"><tspan fill="#888" font-family="ubuntu" stroke-width="1.316553" text-anchor="middle" x="435.0535" y="258.67981">pgp</tspan></text><path clip-path="url(#b)" d="m335.73108 62c-8.82418 0-9.77365.90635-9.7304 9.74838v12.25162 12.25162c-.0433 8.84203.90622 9.74838 9.7304 9.74838h16.53919c8.82418 0 9.7304-.90625 9.7304-9.74838v-12.25162-12.25162c0-8.84213-.90622-9.74838-9.7304-9.74838z" fill="none" opacity=".4" stroke="url(#a)" stroke-width="2" transform="matrix(5.3333328 0 0 5.3333328 -1398.8717 -271.46885)"/><g enable-background="new" transform="matrix(7.1310249 0 0 7.1310249 -1560.7528 -1759.6097)"><path d="m260-288h16v16h-16z" fill="none" transform="rotate(90)"/><g fill="#808080"><path d="m273.99996 267.0001-.00003 9.0001h12v-9zm.99997 1.0001h10v7h-10z"/><path d="m280 260c-2.76214 0-5 2.23787-5 5v2h1v-2c0-2.222 1.77799-4 4-4s4 1.778 4 4v2h1v-2c0-2.76213-2.23786-5-5-5z"/><path d="m274 259v9h12v-9zm1 1h10v7h-10zm4 2v3h2v-3.25z" transform="translate(0 8)"/></g></g></g></svg>