<?xml version="1.0" encoding="UTF-8" standalone="no"?>
<svg
   xmlns:dc="http://purl.org/dc/elements/1.1/"
   xmlns:cc="http://creativecommons.org/ns#"
   xmlns:rdf="http://www.w3.org/1999/02/22-rdf-syntax-ns#"
   xmlns:svg="http://www.w3.org/2000/svg"
   xmlns="http://www.w3.org/2000/svg"
   xmlns:xlink="http://www.w3.org/1999/xlink"
   xmlns:sodipodi="http://sodipodi.sourceforge.net/DTD/sodipodi-0.dtd"
   xmlns:inkscape="http://www.inkscape.org/namespaces/inkscape"
   height="48"
   viewBox="0 0 12.7 12.7"
   width="48"
   version="1.1"
   id="svg46"
   sodipodi:docname="application-rar.svg"
   inkscape:version="0.92.5 (2060ec1f9f, 2020-04-08)">
  <metadata
     id="metadata52">
    <rdf:RDF>
      <cc:Work
         rdf:about="">
        <dc:format>image/svg+xml</dc:format>
        <dc:type
           rdf:resource="http://purl.org/dc/dcmitype/StillImage" />
      </cc:Work>
    </rdf:RDF>
  </metadata>
  <defs
     id="defs50">
    <linearGradient
       gradientTransform="matrix(0.26458333,0,0,0.26458333,-84.665906,-16.007297)"
       inkscape:collect="always"
       xlink:href="#linearGradient927-3-6"
       id="linearGradient925"
       x1="344"
       y1="61"
       x2="344"
       y2="107"
       gradientUnits="userSpaceOnUse" />
    <linearGradient
       inkscape:collect="always"
       id="linearGradient927-3-6">
      <stop
         style="stop-color:#ffffff;stop-opacity:1;"
         offset="0"
         id="stop923-3" />
      <stop
         id="stop933-6"
         offset="0.125"
         style="stop-color:#ffffff;stop-opacity:0.09803922" />
      <stop
         id="stop931-7"
         offset="0.92500001"
         style="stop-color:#ffffff;stop-opacity:0.09803922" />
      <stop
         style="stop-color:#000000;stop-opacity:0.49803922"
         offset="1"
         id="stop925-5" />
    </linearGradient>
    <linearGradient
       inkscape:collect="always"
       xlink:href="#linearGradient43841"
       id="linearGradient951"
       gradientUnits="userSpaceOnUse"
       gradientTransform="matrix(0,-0.02997233,-0.02997147,0,15.740062,13.626036)"
       x1="512"
       y1="397.99393"
       x2="-1.0000001e-06"
       y2="125.99394" />
    <linearGradient
       id="linearGradient43841"
       inkscape:collect="always">
      <stop
         id="stop43837"
         offset="0"
         style="stop-color:#8c59d9;stop-opacity:1" />
      <stop
         id="stop43839"
         offset="1"
         style="stop-color:#a7a7f1;stop-opacity:1" />
    </linearGradient>
  </defs>
  <sodipodi:namedview
     pagecolor="#ffffff"
     bordercolor="#666666"
     borderopacity="1"
     objecttolerance="10"
     gridtolerance="10"
     guidetolerance="10"
     inkscape:pageopacity="0"
     inkscape:pageshadow="2"
     inkscape:window-width="773"
     inkscape:window-height="480"
     id="namedview48"
     showgrid="false"
     inkscape:zoom="4.9166667"
     inkscape:cx="24"
     inkscape:cy="24"
     inkscape:window-x="0"
     inkscape:window-y="27"
     inkscape:window-maximized="0"
     inkscape:current-layer="svg46" />
  <linearGradient
     id="a"
     gradientUnits="userSpaceOnUse"
     x1="6.35075652"
     x2="6.35075652"
     y1="284.43232313"
     y2="296.60315631">
    <stop
       offset="0"
       stop-color="#fff"
       id="stop2" />
    <stop
       offset=".125"
       stop-color="#fff"
       stop-opacity=".098039"
       id="stop4" />
    <stop
       offset=".92500001"
       stop-color="#fff"
       stop-opacity=".098039"
       id="stop6" />
    <stop
       offset="1"
       stop-opacity=".498039"
       id="stop8" />
  </linearGradient>
  <linearGradient
     id="b"
     gradientTransform="matrix(0 -.02997233 -.02997147 0 15.740062 297.92607)"
     gradientUnits="userSpaceOnUse"
     x1="512"
     x2="-.000001"
     y1="397.99393"
     y2="125.99394">
    <stop
       offset="0"
       stop-color="#c43ac4"
       id="stop11" />
    <stop
       offset="1"
       stop-color="#d85eca"
       id="stop13" />
  </linearGradient>
  <path
     style="color:#000000;font-style:normal;font-variant:normal;font-weight:normal;font-stretch:normal;font-size:medium;line-height:normal;font-family:sans-serif;font-variant-ligatures:normal;font-variant-position:normal;font-variant-caps:normal;font-variant-numeric:normal;font-variant-alternates:normal;font-feature-settings:normal;text-indent:0;text-align:start;text-decoration:none;text-decoration-line:none;text-decoration-style:solid;text-decoration-color:#000000;letter-spacing:normal;word-spacing:normal;text-transform:none;writing-mode:lr-tb;direction:ltr;text-orientation:mixed;dominant-baseline:auto;baseline-shift:baseline;text-anchor:start;white-space:normal;shape-padding:0;clip-rule:nonzero;display:inline;overflow:visible;visibility:visible;opacity:0.1;isolation:auto;mix-blend-mode:normal;color-interpolation:sRGB;color-interpolation-filters:linearRGB;solid-color:#000000;solid-opacity:1;vector-effect:none;fill:#000000;fill-opacity:1;fill-rule:nonzero;stroke:none;stroke-width:0.52916664;stroke-linecap:butt;stroke-linejoin:miter;stroke-miterlimit:4;stroke-dasharray:none;stroke-dashoffset:0;stroke-opacity:1;marker:none;color-rendering:auto;image-rendering:auto;shape-rendering:auto;text-rendering:auto;enable-background:accumulate"
     d="m 4.1624035,0.39686963 c -0.5882111,0 -1.0513696,0.013541 -1.4324701,0.077515 -0.3811032,0.063972 -0.692957,0.1839645 -0.9213929,0.411861 C 1.5801072,1.1141424 1.4595392,1.4258557 1.3961635,1.8071197 1.3327875,2.1883841 1.3204155,2.6525537 1.3232995,3.2421742 v 3.2401124 3.2416627 c -0.00286,0.5887137 0.00955,1.0526487 0.072864,1.4335027 0.063376,0.381265 0.1839437,0.692978 0.412377,0.920875 0.2284359,0.227896 0.5402897,0.34789 0.9213929,0.411861 0.3811032,0.06397 0.844259,0.07752 1.4324701,0.07752 h 4.3759596 c 0.5882111,0 1.0511263,-0.01352 1.4314383,-0.07752 0.3803116,-0.064 0.6912126,-0.184399 0.9188046,-0.412377 0.227595,-0.227978 0.347451,-0.53947 0.411345,-0.920359 0.06389,-0.380886 0.07752,-0.844114 0.07752,-1.4335027 V 6.4822863 3.2406237 c 0,-0.5893895 -0.01363,-1.0526162 -0.07752,-1.4335043 -0.06389,-0.3808878 -0.18375,-0.6923783 -0.411345,-0.92035727 -0.227592,-0.2279788 -0.538493,-0.348378 -0.9188046,-0.4123778 -0.380312,-0.064 -0.8432272,-0.0775147 -1.4314383,-0.0775147 z"
     id="path1020"
     inkscape:connector-curvature="0"
     sodipodi:nodetypes="sccsccccccsscccscsccsss" />
  <path
     style="color:#000000;display:inline;overflow:visible;visibility:visible;fill:url(#linearGradient951);fill-opacity:1;fill-rule:nonzero;stroke:none;stroke-width:0.26458332;marker:none;enable-background:accumulate"
     d="m 4.1624035,0.13228627 c -0.5881265,0 -1.0516447,0.0141049 -1.4324701,0.0780315 C 2.3486397,0.27432201 2.0370743,0.39418253 1.8085405,0.62217873 1.5799669,0.85021653 1.4595656,1.1611062 1.3961635,1.5425361 1.3328461,1.9234514 1.320416,2.3874994 1.3232999,2.9770739 V 6.217703 9.4593653 c -0.00286,0.5889637 0.00958,1.0528527 0.072864,1.4335037 0.063402,0.381431 0.1838008,0.692319 0.412377,0.920358 0.2285365,0.227995 0.5400966,0.347856 0.9213929,0.411861 0.3808254,0.06393 0.8443436,0.07803 1.4324701,0.07803 h 4.3759596 c 0.5881211,0 1.0508853,-0.01408 1.4309193,-0.07803 0.3804592,-0.06402 0.6915122,-0.18366 0.9193232,-0.411861 0.227735,-0.228118 0.347422,-0.539284 0.411345,-0.920358 0.06387,-0.380709 0.07752,-0.844268 0.07752,-1.4335037 V 6.217703 2.9760404 c 0,-0.5892361 -0.01365,-1.0527969 -0.07752,-1.4335043 C 11.236028,1.1614631 11.116341,0.85029853 10.888606,0.62217873 10.660795,0.39398063 10.349742,0.27434265 9.9692824,0.21031772 9.5892484,0.14636448 9.1264842,0.13228627 8.5383631,0.13228627 Z"
     id="path949"
     inkscape:connector-curvature="0" />
  <path
     id="path901"
     d="m 4.1627792,0.26457794 c -0.5859489,0 -1.0443687,0.0144595 -1.4107663,0.0759643 -0.3663977,0.061504 -0.6470412,0.1731269 -0.8495612,0.375171 C 1.6999316,0.91775724 1.5881796,1.1978745 1.5272804,1.5642401 1.4663814,1.930606 1.4530944,2.3893152 1.4559674,2.9765571 V 6.217703 9.4593653 c -0.00286,0.5869347 0.010425,1.0455687 0.071313,1.4117997 0.060899,0.366366 0.1726486,0.646483 0.3751712,0.848527 0.2025227,0.202044 0.483161,0.313666 0.8495612,0.375171 0.3663976,0.06151 0.8248175,0.07597 1.4107663,0.07597 h 4.3759596 c 0.5859463,0 1.0436597,-0.01445 1.4092157,-0.07597 0.3655556,-0.06151 0.6457526,-0.173085 0.8474946,-0.375171 0.201742,-0.202084 0.313227,-0.482349 0.374653,-0.848527 0.06143,-0.366178 0.07545,-0.82467 0.07545,-1.4117997 V 6.217703 2.9760404 c 0,-0.5871297 -0.01402,-1.045622 -0.07545,-1.4118003 C 11.108676,1.1980618 10.997191,0.91779743 10.795449,0.71571323 10.593707,0.51362893 10.31351,0.40205913 9.9479544,0.34054223 9.5823984,0.27902551 9.1246851,0.26457794 8.5387388,0.26457794 Z"
     style="color:#000000;display:inline;overflow:visible;visibility:visible;opacity:0.3;fill:none;fill-opacity:1;fill-rule:nonzero;stroke:url(#linearGradient925);stroke-width:0.26458332;stroke-opacity:1;marker:none;enable-background:accumulate"
     inkscape:connector-curvature="0" />
  <path
     inkscape:connector-curvature="0"
     style="color:#000000;display:inline;overflow:visible;visibility:visible;opacity:0.2;fill:#000000;fill-opacity:1;fill-rule:nonzero;stroke:none;stroke-width:3.96875;stroke-linecap:butt;stroke-linejoin:miter;stroke-miterlimit:4;stroke-dasharray:none;stroke-dashoffset:0;stroke-opacity:1;marker:none;enable-background:accumulate"
     d="m 5.8212166,3.8364524 v 1.7197914 c 0,0.07329 0.059002,0.1322917 0.1322917,0.1322917 h 0.79375 c 0.07329,0 0.1322917,-0.059002 0.1322917,-0.1322917 V 3.8364524 Z M 6.0858,4.8947855 H 6.6149666 V 5.4239522 H 6.0858 Z"
     id="path923"
     sodipodi:nodetypes="cssssccccccc" />
  <path
     id="path925"
     d="M 6.3503806,0.39686963 H 5.821214 v 0.5291667 h 0.5291666 z m 0,0.5291667 V 1.4552027 H 6.8795473 V 0.92603633 Z m 0,0.52916637 H 5.821214 v 0.5291667 h 0.5291666 z m 0,0.5291667 V 2.513536 H 6.8795473 V 1.9843694 Z m 0,0.5291666 H 5.821214 v 0.5291664 h 0.5291666 z m 0,0.5291664 V 3.5718691 H 6.8795473 V 3.0427024 Z"
     style="color:#000000;display:inline;overflow:visible;visibility:visible;opacity:0.2;fill:#000000;fill-opacity:1;fill-rule:nonzero;stroke:none;stroke-width:3.96875;stroke-linecap:butt;stroke-linejoin:miter;stroke-miterlimit:4;stroke-dasharray:none;stroke-dashoffset:0;stroke-opacity:1;marker:none;enable-background:accumulate"
     inkscape:connector-curvature="0"
     sodipodi:nodetypes="cccccccccccccccccccccccccccccc" />
  <path
     sodipodi:nodetypes="cssssccccccc"
     id="path968"
     d="m 5.8212166,3.5718691 v 1.7197914 c 0,0.07329 0.059002,0.1322917 0.1322917,0.1322917 h 0.79375 c 0.07329,0 0.1322917,-0.059002 0.1322917,-0.1322917 V 3.5718691 Z M 6.0858,4.6302022 H 6.6149666 V 5.1593688 H 6.0858 Z"
     style="color:#000000;display:inline;overflow:visible;visibility:visible;opacity:1;fill:#ffffff;fill-opacity:1;fill-rule:nonzero;stroke:none;stroke-width:3.96875;stroke-linecap:butt;stroke-linejoin:miter;stroke-miterlimit:4;stroke-dasharray:none;stroke-dashoffset:0;stroke-opacity:1;marker:none;enable-background:accumulate"
     inkscape:connector-curvature="0" />
  <path
     sodipodi:nodetypes="cccccccccccccccccccccccccccccc"
     inkscape:connector-curvature="0"
     style="color:#000000;display:inline;overflow:visible;visibility:visible;opacity:1;fill:#ffffff;fill-opacity:1;fill-rule:nonzero;stroke:none;stroke-width:3.96875;stroke-linecap:butt;stroke-linejoin:miter;stroke-miterlimit:4;stroke-dasharray:none;stroke-dashoffset:0;stroke-opacity:1;marker:none;enable-background:accumulate"
     d="M 6.3503806,0.13228627 H 5.821214 v 0.52916666 h 0.5291666 z m 0,0.52916666 V 1.1906194 H 6.8795473 V 0.66145293 Z m 0,0.52916647 H 5.821214 V 1.719786 h 0.5291666 z m 0,0.5291666 V 2.2489527 H 6.8795473 V 1.719786 Z m 0,0.5291667 H 5.821214 v 0.5291664 h 0.5291666 z m 0,0.5291664 V 3.3072858 H 6.8795473 V 2.7781191 Z"
     id="path970" />
  <path
     style="display:inline;opacity:0.5;fill:#ffffff;stroke-width:0.02374432;enable-background:new"
     d="m 2.6462166,10.421332 c 0,-0.03117 0.4918022,-2.3963418 0.5139002,-2.4710082 0.012118,-0.040842 0.058039,-0.042746 0.8595254,-0.035616 l 0.8467514,0.00753 0.1391576,0.068327 C 5.1496274,8.0613108 5.2644962,8.1902 5.3216674,8.3452654 5.3652844,8.463567 5.3581854,8.6549608 5.3049194,8.7973886 5.1885291,9.1084698 4.994362,9.2607045 4.6361188,9.3217553 l -0.087839,0.01497 0.1333024,0.195042 c 0.073316,0.107273 0.1753128,0.284298 0.2266605,0.393388 0.051348,0.1090907 0.1022668,0.1892267 0.1131517,0.1780797 0.010874,-0.01114 0.285967,-0.5064287 0.6112907,-1.1006311 L 6.2241797,7.9222406 H 6.648148 7.0721137 l 0.077676,0.5698628 c 0.2192575,1.6086006 0.2306267,1.6826776 0.2493301,1.6250076 0.010319,-0.03184 0.1156599,-0.5226777 0.2340716,-1.0907602 0.1184142,-0.5680847 0.221107,-1.0522952 0.2282004,-1.0760294 0.012224,-0.040845 0.058158,-0.042743 0.8596498,-0.03552 0.9189958,0.00827 0.9255338,0.00917 1.1105828,0.150305 0.11302,0.086208 0.2229296,0.3215672 0.2229296,0.4773859 0,0.1528365 -0.07228,0.3553211 -0.1751086,0.4905597 -0.09497,0.1248983 -0.295499,0.2474655 -0.4395781,0.2686843 -0.2052928,0.03022 -0.2049939,0.02957 -0.086228,0.18814 0.1280874,0.171009 0.3227998,0.5526417 0.4025528,0.7889857 l 0.05809,0.172147 H 9.4239156 c -0.3298031,0 -0.3903636,-0.0055 -0.3903636,-0.03534 0,-0.06004 -0.2325159,-0.6321197 -0.3282368,-0.8075827 -0.049874,-0.09142 -0.1166257,-0.179408 -0.1483413,-0.19554 -0.062672,-0.03187 -0.2594954,-0.04113 -0.2594954,-0.01219 0,0.0098 -0.036333,0.188776 -0.08074,0.397715 -0.044408,0.2089417 -0.093244,0.4413317 -0.108532,0.5164237 l -0.027781,0.13653 H 7.4053961 6.7303646 v -0.103534 c 0,-0.05695 -0.00677,-0.153108 -0.015108,-0.213699 L 6.7001492,10.023625 H 6.2452458 5.790345 L 5.6855991,10.237324 5.5808506,10.451023 H 4.9565107 c -0.5369719,0 -0.6243373,-0.0049 -0.6243373,-0.03534 0,-0.06004 -0.2325159,-0.6321167 -0.3282342,-0.8075827 -0.049874,-0.09142 -0.1166283,-0.179408 -0.1483439,-0.19554 -0.062672,-0.03187 -0.2595007,-0.04113 -0.2595007,-0.01219 0,0.0098 -0.036325,0.188777 -0.080732,0.397719 -0.044408,0.2089387 -0.093247,0.4413307 -0.1085348,0.5164197 l -0.027774,0.136529 H 3.0127016 c -0.2772119,0 -0.3663765,-0.0072 -0.3664427,-0.02966 z M 6.6744238,9.4715593 C 6.6668567,9.4160553 6.6480448,9.1569465 6.6326487,8.8957602 6.6173029,8.6345709 6.5977978,8.4075182 6.5893893,8.3911987 6.5763454,8.3658569 6.0166908,9.5046963 6.0176512,9.5546653 c 2.355e-4,0.0098 0.1511459,0.01781 0.3354599,0.01781 H 6.6882297 Z M 4.4674548,8.9290945 C 4.6743299,8.8289465 4.7510511,8.5749989 4.6190875,8.4271847 l -0.069228,-0.077544 -0.3649371,-0.00753 -0.3649346,-0.00753 -0.054533,0.268718 c -0.030004,0.1477989 -0.060164,0.2927644 -0.067043,0.3221474 l -0.012515,0.053423 H 4.025262 c 0.2960291,0 0.352507,-0.00636 0.4421849,-0.049768 z m 4.7013733,0 C 9.3757058,8.8289465 9.4524244,8.5749989 9.3204608,8.4271847 l -0.069223,-0.077544 -0.3649371,-0.00753 -0.3649345,-0.00753 -0.054536,0.268718 c -0.030004,0.1477989 -0.060164,0.2927644 -0.067043,0.3221474 l -0.012515,0.053423 h 0.3393704 c 0.2960238,0 0.3524991,-0.00636 0.442177,-0.049768 z"
     id="path33929-6"
     inkscape:connector-curvature="0"
     sodipodi:nodetypes="ccsccccscsscscccscscscscccccssccssccccsccccccssccssccsccsccsccccccccccscccccccccsc" />
  <path
     style="color:#000000;display:inline;overflow:visible;visibility:visible;opacity:0.07999998;fill:#ffffff;fill-opacity:1;fill-rule:nonzero;stroke:none;stroke-width:0.26458332;marker:none;enable-background:accumulate"
     d="m 1.5878833,6.217703 v 3.2416623 c -0.011456,2.3394527 0.2397892,2.5791707 2.5745202,2.5791707 h 4.3759596 c 2.3347309,0 2.5745199,-0.239691 2.5745199,-2.5791707 V 6.217703 Z"
     id="path1006"
     inkscape:connector-curvature="0" />
  <path
     style="color:#000000;display:inline;overflow:visible;visibility:visible;opacity:0.07999998;fill:#ffffff;fill-opacity:1;fill-rule:nonzero;stroke:none;stroke-width:0.26458332;marker:none;enable-background:accumulate"
     d="M 6.3503833,0.39686963 V 12.038536 h 2.1879798 c 2.3347309,0 2.5745199,-0.239691 2.5745199,-2.5791707 V 6.217703 2.9760404 c 0,-2.33948027 -0.239789,-2.57917077 -2.5745199,-2.57917077 z"
     id="path1013"
     inkscape:connector-curvature="0" />
</svg>
