<svg height="48" viewBox="0 0 12.699375 12.699376" width="48" xmlns="http://www.w3.org/2000/svg" xmlns:xlink="http://www.w3.org/1999/xlink"><linearGradient id="a" gradientUnits="userSpaceOnUse" x1="344" x2="344" y1="62" y2="106"><stop offset="0" stop-color="#fff"/><stop offset=".125" stop-color="#fff" stop-opacity=".098039"/><stop offset=".92500001" stop-color="#fff" stop-opacity=".098039"/><stop offset="1" stop-color="#fff" stop-opacity=".498039"/></linearGradient><clipPath id="b"><path d="m335.73108 62c-8.82418 0-9.77365.90635-9.7304 9.74838v12.25162 12.25162c-.0433 8.84203.90622 9.74838 9.7304 9.74838h16.53919c8.82418 0 9.7304-.90625 9.7304-9.74838v-12.25162-12.25162c0-8.84213-.90622-9.74838-9.7304-9.74838z"/></clipPath><linearGradient id="c" gradientTransform="matrix(0 -.02997086 .02997 0 -3.039509 13.625372)" gradientUnits="userSpaceOnUse" x1="459.03448" x2="35.310345" y1="419.23337" y2="207.36522"><stop offset="0" stop-color="#f2f2f2"/><stop offset="1" stop-color="#f9f9f9"/></linearGradient><path d="m4.1621983.39685704c-.5881821 0-1.0513178.013541-1.4323996.077511-.3810844.063969-.6929229.1839555-.9213476.4118407-.2284221.22788546-.3489842.53958346-.4123567.92082876-.0633725.3812456-.0757438.8453924-.07286 1.4349839v3.239953 3.2415029c-.00286.5886857.00955 1.0525967.07286 1.4334327.063373.381246.1839346.692944.4123567.920829.2284247.227885.5402632.347873.9213476.411841.3810845.06397.8442175.07751 1.4323996.07751h4.3757445c.5881822 0 1.0510744-.01352 1.4313678-.07751.3802934-.064.6911794-.18439.9187604-.412357.227583-.227967.347433-.539443.411324-.920313.06389-.380867.07751-.844073.07751-1.4334327v-3.241503-3.2415031c0-.5893606-.01362-1.0525645-.07751-1.4334338-.063891-.3808691-.183741-.6923443-.411324-.92031206-.227581-.2279675-.538467-.3483608-.9187604-.4123574-.3802934-.0639969-.8431856-.0775109-1.4313678-.0775109z" opacity=".1"/><path d="m4.1623597.39685704c-2.3346162 0-2.5858177.2397933-2.5743751 2.57913196v3.241415 3.2414153c-.011456 2.3393377.2397589 2.5791317 2.5743751 2.5791317h4.3757789c2.3346164 0 2.5743754-.239767 2.5743754-2.5791317v-3.2414153-3.241415c0-2.33936516-.239759-2.57913196-2.5743754-2.57913196z" fill="none" opacity=".2" stroke="#000" stroke-width=".529141"/><path d="m4.1623597.39685704c-2.3346162 0-2.5858177.2397933-2.5743751 2.57913196v3.241415 3.2414153c-.011456 2.3393377.2397589 2.5791317 2.5743751 2.5791317h4.3757789c2.3346164 0 2.5743754-.239767 2.5743754-2.5791317v-3.2414153-3.241415c0-2.33936516-.239759-2.57913196-2.5743754-2.57913196z" fill="url(#c)"/><path d="m3.1416395 3.408617 3.4991489 3.4991515v-2.2375849zm4.0288054 1.2772767 2.4271232 1.0910431-.5343077-1.0910431zm-.3146931.07999v2.0334719l1.4593725-1.3700828zm-1.0428833 1.640958-1.6169798 3.0515486 2.3455826-2.3456856z" fill="#c8c4b7" stroke-width=".105828"/><path d="m1.5878047 6.217404v3.2415033c-.011456 2.3393377.2397775 2.5790437 2.5743936 2.5790437h4.3757445c2.3346162 0 2.5743932-.23968 2.5743932-2.5790437v-3.2415033z" fill="#fff" opacity=".2"/><path d="m6.3500706.39685704v11.64109396h2.1878722c2.3346162 0 2.5743932-.23968 2.5743932-2.5790437v-3.2415033-3.2415031c0-2.33936516-.239777-2.57904386-2.5743932-2.57904386z" fill="#fff" opacity=".1"/><path clip-path="url(#b)" d="m335.73108 62c-8.82418 0-9.77365.90635-9.7304 9.74838v12.25162 12.25162c-.0433 8.84203.90622 9.74838 9.7304 9.74838h16.53919c8.82418 0 9.7304-.90625 9.7304-9.74838v-12.25162-12.25162c0-8.84213-.90622-9.74838-9.7304-9.74838z" fill="none" opacity=".4" stroke="url(#a)" stroke-width="2" transform="matrix(.26457032 0 0 .26457032 -84.662119 -16.006504)"/></svg>