<svg id="svg969" height="48" viewBox="0 0 12.7 12.7" width="48" xmlns="http://www.w3.org/2000/svg" xmlns:xlink="http://www.w3.org/1999/xlink">
  <linearGradient id="linearGradient1004" gradientUnits="userSpaceOnUse" x1="344" x2="344" y1="62" y2="106">
    <stop id="stop923" offset="0" stop-color="#fff"/>
    <stop id="stop933" offset=".125" stop-color="#fff" stop-opacity=".098039"/>
    <stop id="stop931" offset=".92500001" stop-color="#fff" stop-opacity=".098039"/>
    <stop id="stop925" offset="1" stop-color="#fff" stop-opacity=".498039"/>
  </linearGradient>
  <clipPath id="clipPath994">
    <path id="path996" d="m335.73108 62c-8.82418 0-9.77365.90635-9.7304 9.74838v12.25162 12.25162c-.0433 8.84203.90622 9.74838 9.7304 9.74838h16.53919c8.82418 0 9.7304-.90625 9.7304-9.74838v-12.25162-12.25162c0-8.84213-.90622-9.74838-9.7304-9.74838z"/>
  </clipPath>
  <linearGradient id="linearGradient1024" gradientTransform="matrix(0 -.02997233 .02997147 0 -3.039658 297.92607)" gradientUnits="userSpaceOnUse" x1="459.03448" x2="35.310345" y1="419.23337" y2="207.36522">
    <stop id="stop4340-6" offset="0" stop-color="#f2f2f2"/>
    <stop id="stop4342-0" offset="1" stop-color="#f9f9f9"/>
  </linearGradient>
  <g id="layer1" transform="translate(0 -284.29999)">
    <path id="path1020" d="m4.1624035 284.6969c-.5882111 0-1.0513696.0135-1.4324701.0775-.3811032.064-.692957.18396-.921393.41186-.2284333.2279-.3490013.53961-.4123769.92087-.063376.38127-.075748.84544-.072864 1.43506v3.24011 3.24166c-.00286.58872.00955 1.05265.072864 1.43351.063376.38126.1839436.69297.4123769.92087.228436.2279.5402898.34789.921393.41186.3811032.064.844259.0775 1.4324701.0775h4.3759596c.5882111 0 1.0511261-.0135 1.4314382-.0775.3803117-.064.6912137-.1844.9188057-.41238.227594-.22797.34745-.53946.411345-.92035.06389-.38089.07752-.84412.07752-1.43351v-3.24166-3.24166c0-.58939-.01363-1.05262-.07752-1.43351-.06389-.38088-.183751-.69238-.411345-.92035-.227592-.22798-.538494-.34838-.9188057-.41238-.3803121-.064-.8432271-.0775-1.4314382-.0775z" opacity=".1"/>
    <path id="path958" d="m4.1625649 284.6969c-2.3347311 0-2.585945.23981-2.5745018 2.57926v3.24158 3.24157c-.011456 2.33945.2397707 2.57926 2.5745018 2.57926h4.375994c2.3347311 0 2.5745021-.23978 2.5745021-2.57926v-3.24157-3.24158c0-2.33948-.239771-2.57926-2.5745021-2.57926z" fill="none" opacity=".2" stroke="#000" stroke-width=".529167"/>
    <path id="path964" d="m4.1625649 284.6969c-2.3347311 0-2.585945.23981-2.5745018 2.57926v3.24158 3.24157c-.011456 2.33945.2397707 2.57926 2.5745018 2.57926h4.375994c2.3347311 0 2.5745021-.23978 2.5745021-2.57926v-3.24157-3.24158c0-2.33948-.239771-2.57926-2.5745021-2.57926z" fill="url(#linearGradient1024)"/>
    <path id="path990" clip-path="url(#clipPath994)" d="m335.73108 62c-8.82418 0-9.77365.90635-9.7304 9.74838v12.25162 12.25162c-.0433 8.84203.90622 9.74838 9.7304 9.74838h16.53919c8.82418 0 9.7304-.90625 9.7304-9.74838v-12.25162-12.25162c0-8.84213-.90622-9.74838-9.7304-9.74838z" fill="none" opacity=".4" stroke="url(#linearGradient1004)" stroke-width="2" transform="matrix(.26458333 0 0 .26458333 -84.666283 268.29274)"/>
    <g id="g1184" fill="#808080" transform="translate(-.019666)">
      <path id="rect1193" d="m1.607166 289.53494h1.360714v1.360711h-1.360714z" opacity=".2"/>
      <path id="rect1193-9" d="m2.967878 290.89569h1.360714v1.360711h-1.360714z" opacity=".2"/>
      <path id="rect1193-7" d="m4.328593 289.53494h1.360714v1.360711h-1.360714z" opacity=".2"/>
      <path id="rect1193-3" d="m5.689309 290.89569h1.360714v1.360711h-1.360714z" opacity=".2"/>
      <path id="rect1193-6" d="m7.050022 289.53494h1.360714v1.360711h-1.360714z" opacity=".2"/>
      <path id="rect1193-1" d="m8.410733 290.89569h1.360714v1.360711h-1.360714z" opacity=".2"/>
      <path id="rect1193-2" d="m9.771451 289.53494h1.360714v1.360711h-1.360714z" opacity=".2"/>
      <path id="rect1193-93" d="m1.607166 292.25638h1.360714v1.360711h-1.360714z"/>
      <path id="rect1193-9-1" d="m2.967878 293.61707h1.360714v1.360711h-1.360714z"/>
      <path id="rect1193-7-9" d="m4.328593 292.25638h1.360714v1.360711h-1.360714z"/>
      <path id="rect1193-3-4" d="m5.689309 293.61707h1.360714v1.360711h-1.360714z"/>
      <path id="rect1193-6-7" d="m7.050022 292.25638h1.360714v1.360711h-1.360714z"/>
      <path id="rect1193-1-8" d="m8.410733 293.61707h1.360714v1.360711h-1.360714z"/>
      <path id="rect1193-2-4" d="m9.771451 292.25638h1.360714v1.360711h-1.360714z"/>
      <path id="rect1193-93-5" d="m1.6264877 294.97778c.00888.13937.018097.27613.036782.38856.023905.14377.056942.26667.1021133.37164.022585.0524.04817.10057.077164.14438.028994.044.061431.0838.097565.11977.036122.0361.075987.0683.1199699.0972.043982.0288.092129.0545.1447056.077.1051609.0452.2281888.0783.3720699.10245.1131902.0189.2506154.0288.390991.038v-1.33924z"/>
      <path id="rect1193-7-9-0" d="m4.328593 294.97784h1.360714v1.360711h-1.360714z"/>
      <path id="rect1193-6-7-3" d="m7.050022 294.97784h1.360714v1.360711h-1.360714z"/>
      <path id="rect1193-2-4-6" d="m9.7714432 296.3169c.1397517-.009.2766698-.0189.3893008-.0379.143516-.024.266133-.0573.370906-.10245.05238-.0225.10036-.0481.144178-.077.04382-.0288.08346-.0612.119442-.0972.03597-.0361.06825-.0757.09714-.11976.02888-.044.0544-.0919.07694-.14437.04508-.10501.07819-.22786.102312-.37166.01885-.11238.02845-.24917.03774-.38855h-1.3379538z"/>
      <path id="rect1348" d="m1.607166 293.61707h1.360714v1.360715h-1.360714z" opacity=".4"/>
      <path id="rect1352" d="m2.967878 294.97784h1.360714v1.360715h-1.360714z" opacity=".4"/>
      <path id="rect1354" d="m5.689309 294.97784h1.360713v1.360716h-1.360713z" opacity=".4"/>
      <path id="rect1356" d="m7.050022 293.61707h1.360715v1.360713h-1.360715z" opacity=".4"/>
      <path id="rect1358" d="m8.410733 294.97784h1.360714v1.360715h-1.360714z" opacity=".4"/>
      <path id="rect1372" d="m4.328593 293.61707h1.360714v1.360715h-1.360714z" opacity=".4"/>
      <path id="rect1374" d="m9.771451 293.61707h1.360714v1.360715h-1.360714z" opacity=".4"/>
    </g>
    <g fill="#fff">
      <path id="path1006" d="m1.5878832 290.51774v3.24166c-.011456 2.33945.2397893 2.57917 2.5745203 2.57917h4.3759596c2.3347309 0 2.5745199-.23969 2.5745199-2.57917v-3.24166z" opacity=".2"/>
      <path id="path1013" d="m6.3503833 284.6969v11.64167h2.1879798c2.3347309 0 2.5745199-.23969 2.5745199-2.57917v-3.24166-3.24167c0-2.33948-.239789-2.57917-2.5745199-2.57917z" opacity=".1"/>
    </g>
  </g>
</svg>
