<?xml version="1.0" encoding="UTF-8" standalone="no"?>
<svg
   xmlns:dc="http://purl.org/dc/elements/1.1/"
   xmlns:cc="http://creativecommons.org/ns#"
   xmlns:rdf="http://www.w3.org/1999/02/22-rdf-syntax-ns#"
   xmlns:svg="http://www.w3.org/2000/svg"
   xmlns="http://www.w3.org/2000/svg"
   xmlns:xlink="http://www.w3.org/1999/xlink"
   xmlns:sodipodi="http://sodipodi.sourceforge.net/DTD/sodipodi-0.dtd"
   xmlns:inkscape="http://www.inkscape.org/namespaces/inkscape"
   height="48"
   viewBox="0 0 12.699375 12.699375"
   width="48"
   version="1.1"
   id="svg47"
   sodipodi:docname="application-x-virtualbox-ovf.svg"
   inkscape:version="0.92.5 (2060ec1f9f, 2020-04-08)">
  <metadata
     id="metadata53">
    <rdf:RDF>
      <cc:Work
         rdf:about="">
        <dc:format>image/svg+xml</dc:format>
        <dc:type
           rdf:resource="http://purl.org/dc/dcmitype/StillImage" />
        <dc:title></dc:title>
      </cc:Work>
    </rdf:RDF>
  </metadata>
  <defs
     id="defs51">
    <linearGradient
       id="linearGradient1664-5-6-3-3"
       gradientUnits="userSpaceOnUse"
       x1="178.16689"
       x2="-13.92912"
       y1="137.53882"
       y2="128.91682">
      <stop
         offset="0"
         stop-color="#5995e8"
         id="stop23-0-1-7-0" />
      <stop
         offset="1"
         stop-color="#63a0e6"
         stop-opacity=".01"
         id="stop25-3-5-4-7" />
    </linearGradient>
    <linearGradient
       gradientTransform="matrix(2.0740741,0,0,2.0740741,26.028193,-329.45087)"
       id="linearGradient900"
       gradientUnits="userSpaceOnUse"
       x1="62.612"
       x2="64.120003"
       y1="164.32201"
       y2="248.312">
      <stop
         offset="0"
         stop-color="#ff10ff"
         stop-opacity=".988235"
         id="stop8" />
      <stop
         offset="1"
         stop-color="#ff0bff"
         stop-opacity=".009524"
         id="stop10" />
    </linearGradient>
    <linearGradient
       gradientTransform="matrix(2.0740741,0,0,2.0740741,-5.4471398,-305.84438)"
       id="linearGradient2440"
       gradientUnits="userSpaceOnUse"
       x1="61.344002"
       x2="26.404003"
       y1="242.29001"
       y2="278.42102">
      <stop
         offset="0"
         stop-color="#2ffffe"
         stop-opacity="0"
         id="stop18" />
      <stop
         offset="1"
         stop-color="#14ffff"
         stop-opacity=".886275"
         id="stop20" />
    </linearGradient>
    <linearGradient
       gradientTransform="matrix(2.0740741,0,0,2.0740741,295.45752,134.61809)"
       id="linearGradient2430"
       gradientUnits="userSpaceOnUse"
       x1="-246.84694"
       x2="-278.93494"
       y1="71.92395"
       y2="115.02795">
      <stop
         offset="0"
         stop-color="#fff755"
         stop-opacity="0"
         id="stop13" />
      <stop
         offset="1"
         stop-color="#fffa3b"
         stop-opacity=".992157"
         id="stop15" />
    </linearGradient>
    <filter
       style="color-interpolation-filters:sRGB"
       id="d"
       height="1.0219311"
       width="1.0265"
       x="-0.01325"
       y="-0.010966">
      <feGaussianBlur
         stdDeviation="2.120027"
         id="feGaussianBlur17" />
    </filter>
    <linearGradient
       id="linearGradient5699"
       gradientUnits="userSpaceOnUse"
       x1="88"
       x2="488"
       y1="88"
       y2="488">
      <stop
         offset="0"
         stop-opacity=".588235"
         id="stop7-3" />
      <stop
         offset=".88"
         stop-opacity="0"
         id="stop9-6" />
      <stop
         offset="1"
         id="stop11-7" />
    </linearGradient>
    <filter
       style="color-interpolation-filters:sRGB"
       id="c-5"
       height="1.087725"
       width="1.105998"
       x="-0.052999001"
       y="-0.043862998">
      <feGaussianBlur
         stdDeviation="8.4801079"
         id="feGaussianBlur14-3" />
    </filter>
    <linearGradient
       id="a-5"
       gradientTransform="matrix(0,-0.02361746,-0.02361678,0,1.5678614,12.173795)"
       gradientUnits="userSpaceOnUse"
       x1="529.65515"
       x2="-35.310345"
       y1="401.58368"
       y2="119.09284">
      <stop
         offset="0"
         stop-color="#da1636"
         id="stop2-6" />
      <stop
         offset="1"
         stop-color="#f22c42"
         id="stop4-2" />
    </linearGradient>
    <clipPath
       clipPathUnits="userSpaceOnUse"
       id="clipPath994">
      <path
         style="color:#000000;display:inline;overflow:visible;visibility:visible;fill:#cdcdcd;fill-opacity:1;fill-rule:nonzero;stroke:none;stroke-width:2;stroke-miterlimit:4;stroke-dasharray:none;stroke-opacity:1;marker:none;enable-background:accumulate"
         d="m 335.73108,62 c -8.82418,0 -9.77365,0.90635 -9.7304,9.74838 V 84 96.25162 c -0.0433,8.84203 0.90622,9.74838 9.7304,9.74838 h 16.53919 c 8.82418,0 9.7304,-0.90625 9.7304,-9.74838 V 84 71.74838 C 362.00067,62.90625 361.09445,62 352.27027,62 Z"
         id="path996"
         inkscape:connector-curvature="0"
         sodipodi:nodetypes="scccssscsss" />
    </clipPath>
    <clipPath
       clipPathUnits="userSpaceOnUse"
       id="clipPath994-9">
      <path
         style="color:#000000;display:inline;overflow:visible;visibility:visible;fill:#cdcdcd;fill-opacity:1;fill-rule:nonzero;stroke:none;stroke-width:2;stroke-miterlimit:4;stroke-dasharray:none;stroke-opacity:1;marker:none;enable-background:accumulate"
         d="m 335.73108,62 c -8.82418,0 -9.77365,0.90635 -9.7304,9.74838 V 84 96.25162 c -0.0433,8.84203 0.90622,9.74838 9.7304,9.74838 h 16.53919 c 8.82418,0 9.7304,-0.90625 9.7304,-9.74838 V 84 71.74838 C 362.00067,62.90625 361.09445,62 352.27027,62 Z"
         id="path996-1"
         inkscape:connector-curvature="0"
         sodipodi:nodetypes="scccssscsss" />
    </clipPath>
    <clipPath
       clipPathUnits="userSpaceOnUse"
       id="clipPath994-2">
      <path
         style="color:#000000;display:inline;overflow:visible;visibility:visible;fill:#cdcdcd;fill-opacity:1;fill-rule:nonzero;stroke:none;stroke-width:2;stroke-miterlimit:4;stroke-dasharray:none;stroke-opacity:1;marker:none;enable-background:accumulate"
         d="m 335.73108,62 c -8.82418,0 -9.77365,0.90635 -9.7304,9.74838 V 84 96.25162 c -0.0433,8.84203 0.90622,9.74838 9.7304,9.74838 h 16.53919 c 8.82418,0 9.7304,-0.90625 9.7304,-9.74838 V 84 71.74838 C 362.00067,62.90625 361.09445,62 352.27027,62 Z"
         id="path996-7"
         inkscape:connector-curvature="0"
         sodipodi:nodetypes="scccssscsss" />
    </clipPath>
    <clipPath
       clipPathUnits="userSpaceOnUse"
       id="clipPath994-0">
      <path
         style="color:#000000;display:inline;overflow:visible;visibility:visible;fill:#cdcdcd;fill-opacity:1;fill-rule:nonzero;stroke:none;stroke-width:2;stroke-miterlimit:4;stroke-dasharray:none;stroke-opacity:1;marker:none;enable-background:accumulate"
         d="m 335.73108,62 c -8.82418,0 -9.77365,0.90635 -9.7304,9.74838 V 84 96.25162 c -0.0433,8.84203 0.90622,9.74838 9.7304,9.74838 h 16.53919 c 8.82418,0 9.7304,-0.90625 9.7304,-9.74838 V 84 71.74838 C 362.00067,62.90625 361.09445,62 352.27027,62 Z"
         id="path996-9"
         inkscape:connector-curvature="0"
         sodipodi:nodetypes="scccssscsss" />
    </clipPath>
    <clipPath
       clipPathUnits="userSpaceOnUse"
       id="clipPath994-3">
      <path
         style="color:#000000;display:inline;overflow:visible;visibility:visible;fill:#cdcdcd;fill-opacity:1;fill-rule:nonzero;stroke:none;stroke-width:2;stroke-miterlimit:4;stroke-dasharray:none;stroke-opacity:1;marker:none;enable-background:accumulate"
         d="m 335.73108,62 c -8.82418,0 -9.77365,0.90635 -9.7304,9.74838 V 84 96.25162 c -0.0433,8.84203 0.90622,9.74838 9.7304,9.74838 h 16.53919 c 8.82418,0 9.7304,-0.90625 9.7304,-9.74838 V 84 71.74838 C 362.00067,62.90625 361.09445,62 352.27027,62 Z"
         id="path996-6"
         inkscape:connector-curvature="0"
         sodipodi:nodetypes="scccssscsss" />
    </clipPath>
    <clipPath
       clipPathUnits="userSpaceOnUse"
       id="clipPath994-06">
      <path
         style="color:#000000;display:inline;overflow:visible;visibility:visible;fill:#cdcdcd;fill-opacity:1;fill-rule:nonzero;stroke:none;stroke-width:2;stroke-miterlimit:4;stroke-dasharray:none;stroke-opacity:1;marker:none;enable-background:accumulate"
         d="m 335.73108,62 c -8.82418,0 -9.77365,0.90635 -9.7304,9.74838 V 84 96.25162 c -0.0433,8.84203 0.90622,9.74838 9.7304,9.74838 h 16.53919 c 8.82418,0 9.7304,-0.90625 9.7304,-9.74838 V 84 71.74838 C 362.00067,62.90625 361.09445,62 352.27027,62 Z"
         id="path996-2"
         inkscape:connector-curvature="0"
         sodipodi:nodetypes="scccssscsss" />
    </clipPath>
    <clipPath
       clipPathUnits="userSpaceOnUse"
       id="clipPath994-6">
      <path
         style="color:#000000;display:inline;overflow:visible;visibility:visible;fill:#cdcdcd;fill-opacity:1;fill-rule:nonzero;stroke:none;stroke-width:2;stroke-miterlimit:4;stroke-dasharray:none;stroke-opacity:1;marker:none;enable-background:accumulate"
         d="m 335.73108,62 c -8.82418,0 -9.77365,0.90635 -9.7304,9.74838 V 84 96.25162 c -0.0433,8.84203 0.90622,9.74838 9.7304,9.74838 h 16.53919 c 8.82418,0 9.7304,-0.90625 9.7304,-9.74838 V 84 71.74838 C 362.00067,62.90625 361.09445,62 352.27027,62 Z"
         id="path996-18"
         inkscape:connector-curvature="0"
         sodipodi:nodetypes="scccssscsss" />
    </clipPath>
    <clipPath
       clipPathUnits="userSpaceOnUse"
       id="clipPath994-7">
      <path
         style="color:#000000;display:inline;overflow:visible;visibility:visible;fill:#cdcdcd;fill-opacity:1;fill-rule:nonzero;stroke:none;stroke-width:2;stroke-miterlimit:4;stroke-dasharray:none;stroke-opacity:1;marker:none;enable-background:accumulate"
         d="m 335.73108,62 c -8.82418,0 -9.77365,0.90635 -9.7304,9.74838 V 84 96.25162 c -0.0433,8.84203 0.90622,9.74838 9.7304,9.74838 h 16.53919 c 8.82418,0 9.7304,-0.90625 9.7304,-9.74838 V 84 71.74838 C 362.00067,62.90625 361.09445,62 352.27027,62 Z"
         id="path996-92"
         inkscape:connector-curvature="0"
         sodipodi:nodetypes="scccssscsss" />
    </clipPath>
    <clipPath
       clipPathUnits="userSpaceOnUse"
       id="clipPath994-02">
      <path
         style="color:#000000;display:inline;overflow:visible;visibility:visible;fill:#cdcdcd;fill-opacity:1;fill-rule:nonzero;stroke:none;stroke-width:2;stroke-miterlimit:4;stroke-dasharray:none;stroke-opacity:1;marker:none;enable-background:accumulate"
         d="m 335.73108,62 c -8.82418,0 -9.77365,0.90635 -9.7304,9.74838 V 84 96.25162 c -0.0433,8.84203 0.90622,9.74838 9.7304,9.74838 h 16.53919 c 8.82418,0 9.7304,-0.90625 9.7304,-9.74838 V 84 71.74838 C 362.00067,62.90625 361.09445,62 352.27027,62 Z"
         id="path996-3"
         inkscape:connector-curvature="0"
         sodipodi:nodetypes="scccssscsss" />
    </clipPath>
    <linearGradient
       gradientUnits="userSpaceOnUse"
       y2="107"
       x2="344"
       y1="61"
       x1="344"
       id="linearGradient925"
       xlink:href="#linearGradient927-3-6"
       inkscape:collect="always"
       gradientTransform="matrix(0.26457031,0,0,0.26457031,-84.661742,-16.006503)" />
    <linearGradient
       id="linearGradient927-3-6"
       inkscape:collect="always">
      <stop
         id="stop923-3"
         offset="0"
         style="stop-color:#ffffff;stop-opacity:1;" />
      <stop
         style="stop-color:#ffffff;stop-opacity:0.09803922"
         offset="0.125"
         id="stop933-5" />
      <stop
         style="stop-color:#ffffff;stop-opacity:0.09803922"
         offset="0.92500001"
         id="stop931-6" />
      <stop
         id="stop925-2"
         offset="1"
         style="stop-color:#000000;stop-opacity:0.49803922" />
    </linearGradient>
    <linearGradient
       y2="125.99394"
       x2="-1.0000001e-06"
       y1="397.99393"
       x1="512"
       gradientTransform="matrix(0,-0.02997086,-0.02997,0,15.739287,13.625372)"
       gradientUnits="userSpaceOnUse"
       id="linearGradient951"
       xlink:href="#linearGradient926"
       inkscape:collect="always" />
    <linearGradient
       inkscape:collect="always"
       id="linearGradient926">
      <stop
         style="stop-color:#d37e00;stop-opacity:1"
         offset="0"
         id="stop922" />
      <stop
         style="stop-color:#ffaa2d;stop-opacity:1"
         offset="1"
         id="stop924" />
    </linearGradient>
  </defs>
  <sodipodi:namedview
     pagecolor="#ffffff"
     bordercolor="#666666"
     borderopacity="1"
     objecttolerance="10"
     gridtolerance="10"
     guidetolerance="10"
     inkscape:pageopacity="0"
     inkscape:pageshadow="2"
     inkscape:window-width="792"
     inkscape:window-height="668"
     id="namedview49"
     showgrid="false"
     inkscape:zoom="10.489362"
     inkscape:cx="24.00106"
     inkscape:cy="23.999999"
     inkscape:window-x="38"
     inkscape:window-y="375"
     inkscape:window-maximized="0"
     inkscape:current-layer="svg47" />
  <linearGradient
     id="a"
     gradientTransform="matrix(0,-0.11988932,-0.11988589,0,67.016455,292.54831)"
     gradientUnits="userSpaceOnUse"
     x1="529.65503"
     x2="-35.310001"
     y1="401.58401"
     y2="119.093">
    <stop
       offset="0"
       stop-color="#76c22b"
       id="stop2" />
    <stop
       offset="1"
       stop-color="#a6d74f"
       id="stop4" />
  </linearGradient>
  <linearGradient
     id="b"
     gradientUnits="userSpaceOnUse"
     x1="88"
     x2="488"
     y1="88"
     y2="488">
    <stop
       offset="0"
       stop-opacity=".588235"
       id="stop7" />
    <stop
       offset=".88"
       stop-opacity="0"
       id="stop9" />
    <stop
       offset="1"
       id="stop11" />
  </linearGradient>
  <filter
     id="c"
     height="1.022"
     width="1.026"
     x="-0.0099999998"
     y="-0.0099999998"
     style="color-interpolation-filters:sRGB">
    <feGaussianBlur
       stdDeviation="2.12"
       id="feGaussianBlur14" />
  </filter>
  <path
     sodipodi:nodetypes="sccsccccccsscccscsccsss"
     inkscape:connector-curvature="0"
     id="path1020"
     d="m 4.1621982,0.39685647 c -0.5881821,0 -1.0513178,0.013541 -1.4323995,0.077511 C 2.3487142,0.53833647 2.0368758,0.65832293 1.8084511,0.88620818 1.580029,1.1140937 1.4594669,1.4257916 1.3960944,1.8070369 1.3327219,2.1882825 1.3203506,2.6524293 1.3232344,3.2420208 v 3.2399529 3.241503 c -0.00286,0.5886853 0.00955,1.0525973 0.07286,1.4334333 0.063373,0.381246 0.1839346,0.692944 0.4123567,0.920829 0.2284247,0.227885 0.5402631,0.347873 0.9213476,0.411841 0.3810844,0.06397 0.8442174,0.07751 1.4323995,0.07751 h 4.3757443 c 0.5881821,0 1.0510744,-0.01352 1.4313673,-0.07751 0.3802942,-0.064 0.6911802,-0.18439 0.9187602,-0.412357 0.227584,-0.227967 0.347434,-0.539443 0.411325,-0.920313 0.06389,-0.380868 0.07751,-0.844073 0.07751,-1.4334333 v -3.241503 -3.241503 c 0,-0.5893606 -0.01363,-1.0525644 -0.07751,-1.4334338 C 11.235504,1.4261677 11.115654,1.1146926 10.88807,0.88672479 10.66049,0.65875725 10.349604,0.53836397 9.9693098,0.47436737 9.5890169,0.41037047 9.1261246,0.39685647 8.5379425,0.39685647 Z"
     style="color:#000000;font-style:normal;font-variant:normal;font-weight:normal;font-stretch:normal;font-size:medium;line-height:normal;font-family:sans-serif;font-variant-ligatures:normal;font-variant-position:normal;font-variant-caps:normal;font-variant-numeric:normal;font-variant-alternates:normal;font-feature-settings:normal;text-indent:0;text-align:start;text-decoration:none;text-decoration-line:none;text-decoration-style:solid;text-decoration-color:#000000;letter-spacing:normal;word-spacing:normal;text-transform:none;writing-mode:lr-tb;direction:ltr;text-orientation:mixed;dominant-baseline:auto;baseline-shift:baseline;text-anchor:start;white-space:normal;shape-padding:0;clip-rule:nonzero;display:inline;overflow:visible;visibility:visible;opacity:0.1;isolation:auto;mix-blend-mode:normal;color-interpolation:sRGB;color-interpolation-filters:linearRGB;solid-color:#000000;solid-opacity:1;vector-effect:none;fill:#000000;fill-opacity:1;fill-rule:nonzero;stroke:none;stroke-width:0.52914065;stroke-linecap:butt;stroke-linejoin:miter;stroke-miterlimit:4;stroke-dasharray:none;stroke-dashoffset:0;stroke-opacity:1;marker:none;color-rendering:auto;image-rendering:auto;shape-rendering:auto;text-rendering:auto;enable-background:accumulate" />
  <path
     id="path949"
     d="m 4.1621982,0.13228617 c -0.5880975,0 -1.0515929,0.014104 -1.4323995,0.078028 -0.381275,0.064001 -0.692825,0.1838557 -0.9213476,0.4118407 C 1.5798888,0.85018142 1.4594934,1.1610557 1.3960944,1.5424669 1.3327801,1.9233635 1.3203506,2.3873886 1.3232344,2.9769341 v 3.2404696 3.241503 c -0.00286,0.5889353 0.00958,1.0528013 0.07286,1.4334333 0.063399,0.381413 0.1837917,0.692286 0.4123567,0.920313 0.2285252,0.227982 0.54007,0.347838 0.9213476,0.41184 0.3808066,0.06392 0.844302,0.07803 1.4323995,0.07803 h 4.3757443 c 0.5880922,0 1.0508336,-0.01408 1.4308493,-0.07803 0.3804412,-0.06402 0.6914782,-0.183651 0.9192782,-0.41184 0.227724,-0.228107 0.347405,-0.539257 0.411325,-0.920313 0.06386,-0.38069 0.07751,-0.844226 0.07751,-1.4334333 v -3.241503 -3.241503 c 0,-0.5892071 -0.01365,-1.0527452 -0.07751,-1.4334338 -0.06392,-0.3810543 -0.183601,-0.69220347 -0.411325,-0.92031203 -0.2278,-0.2281869 -0.538837,-0.3478189 -0.9192782,-0.4118407 -0.3800157,-0.06395 -0.8427571,-0.078028 -1.4308493,-0.078028 z"
     style="color:#000000;display:inline;overflow:visible;visibility:visible;fill:url(#linearGradient951);fill-opacity:1;fill-rule:nonzero;stroke:none;stroke-width:0.26457033;marker:none;enable-background:accumulate"
     inkscape:connector-curvature="0" />
  <path
     inkscape:connector-curvature="0"
     style="color:#000000;display:inline;overflow:visible;visibility:visible;opacity:0.3;fill:none;fill-opacity:1;fill-rule:nonzero;stroke:url(#linearGradient925);stroke-width:0.26457033;stroke-opacity:1;marker:none;enable-background:accumulate"
     d="m 4.1625739,0.26457127 c -0.5859201,0 -1.0443172,0.014459 -1.4106968,0.075961 C 2.3854974,0.40203327 2.1048677,0.51365067 1.9023577,0.71568482 1.6998476,0.91771891 1.5881011,1.1978224 1.5272049,1.56417 1.4663087,1.9305178 1.453022,2.3892044 1.4558953,2.9764175 v 3.2409863 3.241503 c -0.00286,0.5869052 0.010424,1.0455182 0.07131,1.4117312 0.060896,0.366348 0.17264,0.646451 0.3751527,0.848484 0.2025127,0.202033 0.4831372,0.31365 0.8495195,0.375152 0.3663796,0.0615 0.8247767,0.07596 1.4106968,0.07596 h 4.3757443 c 0.5859174,0 1.0436082,-0.01444 1.4091466,-0.07596 0.3655378,-0.06151 0.6457198,-0.173076 0.8474528,-0.375152 0.201732,-0.202073 0.313211,-0.482324 0.374634,-0.848484 0.06142,-0.36616 0.07545,-0.82463 0.07545,-1.4117312 v -3.241503 -3.241503 c 0,-0.5871009 -0.01402,-1.0455705 -0.07545,-1.4117308 C 11.108132,1.1980097 10.99665,0.91775912 10.794918,0.71568482 10.593185,0.51360997 10.313003,0.40204577 9.9474648,0.34053177 9.5819264,0.27901817 9.1242356,0.26457127 8.5383182,0.26457127 Z"
     id="path901" />
  <path
     style="display:inline;fill:none;stroke:#ffffff;stroke-width:0.52914065;stroke-linecap:butt;stroke-linejoin:miter;stroke-miterlimit:4;stroke-dasharray:none;stroke-opacity:1;enable-background:new"
     d="M 1.3232344,4.3654111 H 3.9379299 L 4.8063555,7.4531477 5.9546118,3.4004941 6.7784944,5.6221201 7.6046178,3.4004941 8.5778715,6.2174033 H 11.376907"
     id="path981"
     inkscape:connector-curvature="0"
     sodipodi:nodetypes="cccccccc" />
  <path
     inkscape:connector-curvature="0"
     id="path1006"
     d="m 1.5878047,6.2174033 v 3.241503 C 1.5763487,11.798244 1.8275822,12.03795 4.1621982,12.03795 h 4.3757443 c 2.3346165,0 2.5743935,-0.239679 2.5743935,-2.5790437 v -3.241503 z"
     style="color:#000000;display:inline;overflow:visible;visibility:visible;opacity:0.07999998;fill:#ffffff;fill-opacity:1;fill-rule:nonzero;stroke:none;stroke-width:0.26457033;marker:none;enable-background:accumulate" />
  <path
     inkscape:connector-curvature="0"
     id="path1013"
     d="M 6.3500704,0.39685647 V 12.03795 h 2.1878721 c 2.3346165,0 2.5743935,-0.239679 2.5743935,-2.5790437 v -3.241503 -3.241503 c 0,-2.33936513 -0.239777,-2.57904383 -2.5743935,-2.57904383 z"
     style="color:#000000;display:inline;overflow:visible;visibility:visible;opacity:0.07999998;fill:#ffffff;fill-opacity:1;fill-rule:nonzero;stroke:none;stroke-width:0.26457033;marker:none;enable-background:accumulate" />
  <g
     aria-label="ovf"
     style="font-style:normal;font-variant:normal;font-weight:normal;font-stretch:normal;font-size:2.46932197px;line-height:1.25;font-family:Ubuntu;-inkscape-font-specification:'Ubuntu, Normal';font-variant-ligatures:normal;font-variant-caps:normal;font-variant-numeric:normal;font-feature-settings:normal;text-align:start;letter-spacing:0px;word-spacing:0px;writing-mode:lr-tb;text-anchor:start;display:inline;fill:#ffffff;fill-opacity:1;stroke:none;stroke-width:0.26457033;enable-background:new"
     id="text930">
    <path
       d="m 5.7992248,10.088242 q 0,0.153098 -0.044448,0.276564 -0.044448,0.123466 -0.1259354,0.212362 -0.079018,0.08889 -0.1901378,0.138282 -0.1111195,0.04692 -0.2419935,0.04692 -0.1308741,0 -0.2419936,-0.04692 -0.1111195,-0.04939 -0.1926071,-0.138282 -0.079018,-0.0889 -0.1234661,-0.212362 -0.044448,-0.123466 -0.044448,-0.276564 0,-0.1506287 0.044448,-0.2740948 0.044448,-0.1259355 0.1234661,-0.214831 0.081488,-0.088896 0.1926071,-0.1358128 0.1111195,-0.049386 0.2419936,-0.049386 0.130874,0 0.2419935,0.049386 0.1111195,0.046917 0.1901378,0.1358128 0.081488,0.088895 0.1259354,0.214831 0.044448,0.1234661 0.044448,0.2740948 z m -0.2395242,0 q 0,-0.2173004 -0.098773,-0.3432358 -0.096304,-0.1284048 -0.2642174,-0.1284048 -0.1679139,0 -0.2666868,0.1284048 -0.096304,0.1259354 -0.096304,0.3432358 0,0.2173 0.096304,0.345705 0.098773,0.125935 0.2666868,0.125935 0.1679139,0 0.2642174,-0.125935 0.098773,-0.128405 0.098773,-0.345705 z"
       style="stroke-width:0.26457033"
       id="path8433" />
    <path
       d="M 7.0906714,9.4462182 Q 6.9943678,9.8067392 6.8634937,10.137628 6.735089,10.468517 6.6140922,10.730266 H 6.4066692 Q 6.2856724,10.468517 6.1547983,10.137628 6.0263936,9.8067392 5.93009,9.4462182 h 0.2469322 q 0.029632,0.1209968 0.069141,0.2592788 0.041978,0.1358127 0.086426,0.2716254 0.046917,0.1333436 0.093834,0.2592786 0.046917,0.125936 0.088896,0.224709 0.041978,-0.09877 0.088895,-0.224709 0.046917,-0.125935 0.091365,-0.2592786 0.046917,-0.1358127 0.086426,-0.2716254 0.041978,-0.138282 0.07161,-0.2592788 z"
       style="stroke-width:0.26457033"
       id="path8435" />
    <path
       d="m 7.8289961,8.8140718 q 0.1012422,0 0.1728525,0.014816 0.07408,0.014816 0.1037116,0.027163 L 8.0635817,9.053596 q -0.029632,-0.014816 -0.083957,-0.027163 -0.054325,-0.014816 -0.1333434,-0.014816 -0.1605059,0 -0.2247083,0.088896 -0.064202,0.086426 -0.064202,0.2345856 V 9.4462182 H 8.0512351 V 9.6388253 H 7.5573707 V 10.730266 H 7.3277237 V 9.3301601 q 0,-0.2469322 0.1209968,-0.3802756 0.1209968,-0.1358127 0.3802756,-0.1358127 z"
       style="stroke-width:0.26457033"
       id="path8437" />
  </g>
</svg>
