<svg height="48" viewBox="0 0 12.699375 12.699375" width="48" xmlns="http://www.w3.org/2000/svg" xmlns:xlink="http://www.w3.org/1999/xlink"><linearGradient id="a" gradientUnits="userSpaceOnUse" x1="6.35007164" x2="6.35007164" y1=".39685722" y2="12.03795086"><stop offset="0" stop-color="#fff"/><stop offset=".125" stop-color="#fff" stop-opacity=".098039"/><stop offset=".92500001" stop-color="#fff" stop-opacity=".098039"/><stop offset="1" stop-color="#fff" stop-opacity=".498039"/></linearGradient><linearGradient id="b" gradientTransform="matrix(0 -.02997086 .02997 0 -3.039508 13.625373)" gradientUnits="userSpaceOnUse" x1="459.03448" x2="35.310345" y1="419.23337" y2="207.36522"><stop offset="0" stop-color="#f2f2f2"/><stop offset="1" stop-color="#f9f9f9"/></linearGradient><path d="m4.1621986.39685759c-.588113-.009-1.051317.01354-1.432399.07751-.381085.06397-.692923.183955-.921348.41184-.228422.22788601-.348984.53958401-.412356.92082901-.06337.381246-.07574.845392-.07286 1.434984v3.239953 3.2415033c-.0029.5886851.0096 1.0525971.07286 1.4334331.06337.381246.183934.692944.412356.920829.228425.227885.540263.347873.921348.411841.381084.06397.844217.07751 1.432399.07751h4.375745c.588182 0 1.0510743-.01352 1.4313668-.07751.3802936-.064.6911796-.18439.9187606-.412357.227583-.227967.347433-.539443.411324-.920313.06389-.380868.07751-.844073.07751-1.4334331v-3.2415033-3.174844l-2.8389624-2.84361401z" opacity=".1"/><path d="m4.1623606.39685759c-2.334616 0-2.585818.239793-2.574375 2.57913201v3.241415 3.2414143c-.01146 2.3393391.239759 2.5791321 2.574375 2.5791321h4.375779c2.3346154 0 2.5743744-.239767 2.5743744-2.5791321v-3.2414143l-.000178-3.174844-2.6457024-2.64570301z" fill="none" opacity=".2" stroke="#000" stroke-width=".529141"/><path d="m4.1623606.39685759c-2.334616 0-2.585818.239793-2.574375 2.57913201v3.241415 3.2414143c-.01146 2.3393391.239759 2.5791321 2.574375 2.5791321h4.375779c2.3346154 0 2.5743744-.239767 2.5743744-2.5791321v-3.2414143l-.000178-3.174844-2.6457024-2.64570301z" fill="url(#b)"/><path d="m3.6832496 9.5414789c0-.178807.06143-.329086.185382-.4497563a.6142988.6142988 0 0 1 .450857-.184287c.174416 0 .321408.06143.442071.184287.122858.1206703.184291.2709493.184291.4497563a.607717.607717 0 0 1 -.184291.445367.60113529.60113529 0 0 1 -.442071.1810001.6197836.6197836 0 0 1 -.450857-.1810001.60113529.60113529 0 0 1 -.185382-.445367m-.0362-2.8630713v1.055278c1.347071 0 2.440743 1.095866 2.440743 2.4451294h1.057467c0-1.9328494-1.568653-3.4993074-3.499308-3.4993074zm.0011-2.305815v1.16607a4.6390531 4.6390531 0 0 1 4.633561 4.6401524h1.169367a5.8073173 5.8073173 0 0 0 -5.802919-5.8062224z" fill="#e95420" stroke-width="1.096962"/><path d="m1.5878056 6.2174046v3.2415033c-.01146 2.3393371.239777 2.5790431 2.574393 2.5790431h4.375745c2.3346154 0 2.5743924-.239679 2.5743924-2.5790431v-3.2415033z" fill="#fff" opacity=".2"/><path d="m6.3500716.39685759v11.64109341h2.187872c2.3346154 0 2.5743924-.239679 2.5743924-2.5790431v-3.2415033-3.174844l-2.6457024-2.64570301z" fill="#fff" opacity=".1"/><path d="m4.1621986.39685759c-2.334616 0-2.585836.239705-2.574393 2.57904401v3.241503 3.2415033c-.01146 2.3393371.239777 2.5790431 2.574393 2.5790431h4.375745c2.3346154 0 2.5743924-.239679 2.5743924-2.5790431v-3.2415033-3.174844h-.26457v3.174844 3.2415033c0 .5803221-.01624 1.0240711-.07027 1.3461031-.05402.322035-.13987.509123-.264054.633524-.124184.124388-.310701.2105-.6319716.264571-.3212725.05406-.7643958.07028-1.3435218.07028h-4.375745c-.579125 0-1.022799-.01619-1.345072-.07028-.322271-.0541-.510296-.14009-.635072-.264571-.124774-.124488-.210588-.311351-.264052-.633005-.05347-.321654-.06847-.765511-.06563-1.3455891v-.000529-3.2420073-3.24202-.000529c-.0028-.580078.01217-1.023934.06563-1.345589.05347-.321654.139278-.508524.264052-.63300501.124774-.12448.31332-.210473.63559-.26457.322271-.05407.765429-.07026 1.344554-.07026h4.304435v-.26457z" fill="url(#a)" opacity=".4"/><path d="m11.112336 3.3071306v-.26457l-2.6457024-2.64570301h-.26457v1.11359001.04267.02292c0 1.505929.201592 1.73814 1.7109758 1.730759z" opacity=".2"/><path d="m11.112336 3.0422216-2.6457024-2.64536501v.98127601.04267.02292c0 1.505929.0694 1.605885 1.5787854 1.598504z" fill="#faf8f6"/></svg>