<svg height="48" viewBox="0 0 12.699375 12.699376" width="48" xmlns="http://www.w3.org/2000/svg" xmlns:xlink="http://www.w3.org/1999/xlink"><linearGradient id="a" gradientUnits="userSpaceOnUse" x1="6.350072" x2="6.350072" y1=".396856" y2="12.03795"><stop offset="0" stop-color="#fff"/><stop offset=".125" stop-color="#fff" stop-opacity=".098039"/><stop offset=".92500001" stop-color="#fff" stop-opacity=".098039"/><stop offset="1" stop-color="#fff" stop-opacity=".498039"/></linearGradient><linearGradient id="b" gradientTransform="matrix(0 -.03065201 .03080135 0 -3.299968 13.793737)" gradientUnits="userSpaceOnUse" x1="441.37933" x2="52.965569" y1="240.30261" y2="386.30783"><stop offset="0" stop-color="#d24625"/><stop offset="1" stop-color="#ec532f"/></linearGradient><path d="m4.1621984.39685674c-.5881134-.0089584-1.0513178.0135407-1.4323996.0775109-.3810844.0639689-.6929229.1839555-.9213477.4118407-.2284221.22788556-.3489841.53958356-.4123567.92082886-.0633725.3812456-.0757438.8453924-.07286 1.4349839v3.239953 3.2415032c-.00286.5886857.00955 1.0525967.07286 1.4334327.063373.381246.1839346.692944.4123567.920829.2284248.227885.5402633.347873.9213477.411841.3810845.06397.8442175.07751 1.4323996.07751h4.3757445c.5881822 0 1.0510744-.01352 1.4313678-.07751.3802933-.064.6911793-.18439.9187603-.412357.227583-.227967.347434-.539443.411325-.920313.06389-.380867.07751-.844073.07751-1.4334327v-3.2415032-3.1748438l-2.8389631-2.84361426z" opacity=".1"/><path d="m4.101678.26457204c-2.3993778 0-2.6575482.2452432-2.645788 2.63774866v3.3150837 3.3150839c-.011773 2.3925037.2464102 2.6377477 2.645788 2.6377477h4.4971584c2.3993776 0 2.6457876-.245215 2.6457876-2.6377477v-3.3150839l-.000182-3.2469994-2.7190927-2.70583296z" fill="url(#b)"/><g fill="#fff"><path d="m6.5174961 4.1008381-3.3422667.4955526-.0005291 5.0956536 3.3195294.4940027.3849816-.000089s-.00238-6.0851199.0000027-6.0851199zm-1.5745744 1.8861887c.2181752-.00463.4272704.026513.5973495.180342.3257998.3953445.2396478 1.1229383-.2433836 1.3595401-.1715923.087686-.3677501.07529-.55446.069243-.0007937.2955632-.00185.5911612-.00106.8867234-.1496683-.01285-.2998887-.02563-.4495614-.03772-.0068-.8073179-.00855-1.5779499.0005291-2.3852672.2128574-.026521.4323979-.068228.6505731-.07286zm-.025319.4381946c-.059536-.00159-.1203663.00365-.1762091.0062-.00238.2539875-.00347.5074077.012408.7606396.150427-.01814.3453016-.00344.4314775-.1591541.0718119-.1526946.0763546-.3473927-.009816-.4955526-.0628355-.0874027-.1586258-.1094734-.2578529-.1121323z" stroke-width=".35276"/><path d="m7.1437816 4.8945522v.7538c.083454-.017919.1728597-.047371.2645704-.063042v.6319717.2645703h1.0960037c-.024949.3265554-.1641844.7311499-.4536984.9027428-.2675944.1799078-.6075355.182373-.9068757.0893959.0007937.1481591-.0007937.4472458 0 .5954052h1.8519923v.2645702h-1.8519923v.529141h1.8519923v.26457h-1.8519923v.529141h2.3811329v-4.7622661h-1.8519922-.2645703zm.5291407.5409037c.4466873.028996.828158.3586902.9420158.781826h-.9420158z" stroke-width=".35276"/><path d="m1.5878047 6.2174038v3.2415035c-.011456 2.3393377.2397775 2.5790437 2.5743937 2.5790437h4.3757445c2.3346161 0 2.5743941-.23968 2.5743941-2.5790437v-3.2415035z" opacity=".1"/><path d="m6.3500707.39685674v11.64109426h2.1878722c2.3346161 0 2.5743941-.23968 2.5743941-2.5790437v-3.2415035-3.1748438l-2.6457037-2.64570326z" opacity=".1"/></g><path d="m4.1621984.13228644c-.5881821 0-1.0513178.013541-1.4323996.077511-.3810844.0639687-.6929229.1839553-.9213477.4118406-.2284221.2278855-.3489841.53958356-.4123567.92082886-.0633725.3812455-.0757438.8453924-.07286 1.4349839v3.239953 3.2415035c-.00286.5886847.00955 1.0525967.07286 1.4334327.063373.381246.1839346.692944.4123567.920829.2284247.227885.5402632.347873.9213476.411841.3810845.06397.8442175.07751 1.4323996.07751h4.3757445c.5881822 0 1.0510744-.01352 1.4313678-.07751.3802934-.064.6911794-.18439.9187604-.412357.227583-.227967.347434-.539443.411325-.920313.06389-.380868.07751-.844073.07751-1.4334327v-3.2415035-3.2843924l-2.8007248-2.80072496zm0 .2645703h4.3044349l2.6457037 2.64570326v3.1748438 3.2415035c0 2.3393637-.239778 2.5790437-2.5743941 2.5790437h-4.3757445c-2.3346162 0-2.5858495-.239706-2.5743937-2.5790437v-3.2415035-3.2415031c-.0114426-2.33933876.2397775-2.57904396 2.5743937-2.57904396z" opacity=".4"/><path d="m4.1621984.39685674c-2.3346162 0-2.5858363.2397052-2.5743937 2.57904396v3.2415031 3.2415035c-.011456 2.3393377.2397775 2.5790437 2.5743937 2.5790437h4.3757445c2.3346161 0 2.5743941-.23968 2.5743941-2.5790437v-3.2415035-3.1748438h-.264571v3.1748438 3.2415035c0 .5803217-.01624 1.0240707-.07028 1.3461027-.05402.322035-.13987.509124-.264054.633525-.124184.124387-.310701.2105-.6319714.26457-.321273.05406-.7643966.07028-1.3435225.07028h-4.3757397c-.5791259 0-1.0227997-.01619-1.3450729-.07028-.3222704-.0541-.5102953-.14009-.6350719-.26457-.1247741-.124489-.2105874-.311352-.2640519-.633006-.053467-.321654-.0684681-.765511-.0656266-1.3455887v-.000529-3.2420075-3.2420198-.0005292c-.00283-.5800778.01217-1.0239334.065627-1.3455882.053467-.3216548.1392778-.5085249.2640519-.63300516.124774-.1244804.31332-.2104736.6355905-.2645703.3222705-.0540719.7654284-.0702641 1.3445543-.0702641h4.3044349v-.2645703z" fill="url(#a)" opacity=".4"/><path d="m11.112337 3.3071303v-.2645703l-2.6457037-2.64570326h-.2645704v1.11359076.042668.022917c0 1.505929.201592 1.7381397 1.7109763 1.730759z" fill="#7f2a16" opacity=".6"/><path d="m11.112337 3.0422213-2.6457037-2.64536516v.98127606.042668.022917c0 1.505929.069402 1.6058848 1.5787867 1.598504z" fill="#f18369"/></svg>