<?xml version="1.0" encoding="UTF-8" standalone="no"?>
<!-- Created with Inkscape (http://www.inkscape.org/) -->

<svg
   xmlns:dc="http://purl.org/dc/elements/1.1/"
   xmlns:cc="http://creativecommons.org/ns#"
   xmlns:rdf="http://www.w3.org/1999/02/22-rdf-syntax-ns#"
   xmlns:svg="http://www.w3.org/2000/svg"
   xmlns="http://www.w3.org/2000/svg"
   xmlns:xlink="http://www.w3.org/1999/xlink"
   xmlns:sodipodi="http://sodipodi.sourceforge.net/DTD/sodipodi-0.dtd"
   xmlns:inkscape="http://www.inkscape.org/namespaces/inkscape"
   width="48"
   height="48"
   viewBox="0 0 12.7 12.7"
   version="1.1"
   id="svg969"
   inkscape:version="0.92.4 (5da689c313, 2019-01-14)"
   sodipodi:docname="application-vnd.iccprofile.svg">
  <defs
     id="defs963">
    <linearGradient
       x1="640"
       y1="632.99835"
       x2="640"
       y2="688.52026"
       id="linearGradient21626"
       xlink:href="#linearGradient13214"
       gradientUnits="userSpaceOnUse"
       gradientTransform="matrix(2,0,0,2,-711,-2873.64)" />
    <linearGradient
       id="linearGradient13214">
      <stop
         id="stop13216"
         style="stop-color:#18a303;stop-opacity:1"
         offset="0" />
      <stop
         id="stop13218"
         style="stop-color:#106802;stop-opacity:1"
         offset="1" />
    </linearGradient>
    <linearGradient
       id="linearGradient8074-2">
      <stop
         id="stop8076-1"
         style="stop-color:#000000;stop-opacity:0"
         offset="0" />
      <stop
         id="stop8078-94"
         style="stop-color:#000000;stop-opacity:1"
         offset="0.49305555" />
      <stop
         id="stop8080-0"
         style="stop-color:#000000;stop-opacity:0"
         offset="1" />
    </linearGradient>
    <linearGradient
       id="linearGradient8903">
      <stop
         id="stop8905"
         style="stop-color:#008000;stop-opacity:1"
         offset="0" />
      <stop
         id="stop8907"
         style="stop-color:#00ff00;stop-opacity:0"
         offset="1" />
    </linearGradient>
    <linearGradient
       x1="152"
       y1="-1192.6378"
       x2="113.88176"
       y2="-1230.7561"
       id="linearGradient21634"
       xlink:href="#linearGradient8586-6"
       gradientUnits="userSpaceOnUse"
       gradientTransform="matrix(0.731707,0,0,0.731707,-637.22,-625.976)" />
    <linearGradient
       id="linearGradient8586-6">
      <stop
         id="stop8588-3"
         style="stop-color:#125a00;stop-opacity:1"
         offset="0" />
      <stop
         id="stop8592-6"
         style="stop-color:#69ce00;stop-opacity:0"
         offset="1" />
    </linearGradient>
    <linearGradient
       x1="-17"
       y1="-1194.6378"
       x2="144"
       y2="-1194.6378"
       id="linearGradient21636"
       xlink:href="#linearGradient8074-2"
       gradientUnits="userSpaceOnUse"
       gradientTransform="matrix(0.73913,0,0,1,538.565,-303)" />
    <radialGradient
       cx="-1535.3044"
       cy="-853"
       r="10"
       fx="-1535.3044"
       fy="-853"
       id="radialGradient21638"
       xlink:href="#linearGradient7770"
       gradientUnits="userSpaceOnUse"
       gradientTransform="matrix(-3.31574,0,0,-4.65,-3490.73,-4550.95)" />
    <linearGradient
       id="linearGradient7770">
      <stop
         id="stop7772"
         style="stop-color:#ffffff;stop-opacity:1"
         offset="0" />
      <stop
         id="stop7774"
         style="stop-color:#f5ffaa;stop-opacity:0"
         offset="1" />
    </linearGradient>
    <linearGradient
       x1="-17"
       y1="-1194.6378"
       x2="144"
       y2="-1194.6378"
       id="linearGradient21640"
       xlink:href="#linearGradient8074-2"
       gradientUnits="userSpaceOnUse"
       gradientTransform="matrix(0.484472,0,0,1,583.236,-297)" />
    <linearGradient
       x1="652.25"
       y1="-1491.6378"
       x2="652.25"
       y2="-1548.1383"
       id="linearGradient21642"
       xlink:href="#linearGradient14610"
       gradientUnits="userSpaceOnUse" />
    <linearGradient
       id="linearGradient14610">
      <stop
         id="stop14612"
         style="stop-color:#808080;stop-opacity:1"
         offset="0" />
      <stop
         id="stop14614"
         style="stop-color:#b3b3b3;stop-opacity:1"
         offset="1" />
    </linearGradient>
    <linearGradient
       x1="714"
       y1="-1063.6378"
       x2="714"
       y2="-1083.6378"
       id="linearGradient21644"
       xlink:href="#linearGradient4338"
       gradientUnits="userSpaceOnUse"
       gradientTransform="matrix(1.89744,0,0,2.6,-777.769,1271.82)" />
    <linearGradient
       inkscape:collect="always"
       id="linearGradient4338">
      <stop
         style="stop-color:#f2f2f2;stop-opacity:1"
         offset="0"
         id="stop4340" />
      <stop
         style="stop-color:#ffffff;stop-opacity:1"
         offset="1"
         id="stop4342" />
    </linearGradient>
    <radialGradient
       inkscape:collect="always"
       xlink:href="#linearGradient16134-3-1"
       id="radialGradient1976"
       gradientUnits="userSpaceOnUse"
       gradientTransform="matrix(0,0.377844,-0.665,-9.14811e-5,85.1409,-1556.34)"
       cx="152.3331"
       cy="-754.6377"
       fx="152.3331"
       fy="-754.6377"
       r="15" />
    <linearGradient
       id="linearGradient16134-3-1">
      <stop
         id="stop16136-6-3"
         style="stop-color:#000000;stop-opacity:0.50196099"
         offset="0" />
      <stop
         id="stop16138-4-6"
         style="stop-color:#000000;stop-opacity:0"
         offset="1" />
    </linearGradient>
    <radialGradient
       inkscape:collect="always"
       xlink:href="#linearGradient16134-3-1"
       id="radialGradient1821"
       gradientUnits="userSpaceOnUse"
       gradientTransform="matrix(0,0.377844,-0.665,-9.14811e-5,85.1409,-1556.34)"
       cx="152.3331"
       cy="-754.6377"
       fx="152.3331"
       fy="-754.6377"
       r="15" />
    <radialGradient
       inkscape:collect="always"
       xlink:href="#linearGradient16134-3-1"
       id="radialGradient1829"
       gradientUnits="userSpaceOnUse"
       gradientTransform="matrix(0,0.377844,-0.665,-9.14811e-5,85.1409,-1556.34)"
       cx="152.3331"
       cy="-754.6377"
       fx="152.3331"
       fy="-754.6377"
       r="15" />
    <radialGradient
       inkscape:collect="always"
       xlink:href="#linearGradient16134-3-1"
       id="radialGradient1837"
       gradientUnits="userSpaceOnUse"
       gradientTransform="matrix(0,0.377844,-0.665,-9.14811e-5,85.1409,-1556.34)"
       cx="152.3331"
       cy="-754.6377"
       fx="152.3331"
       fy="-754.6377"
       r="15" />
    <linearGradient
       x1="152"
       y1="-1192.6378"
       x2="113.88176"
       y2="-1230.7561"
       id="linearGradient21646"
       xlink:href="#linearGradient7931-2"
       gradientUnits="userSpaceOnUse"
       gradientTransform="matrix(0.609756,0,0,0.609756,557.317,-767.42)" />
    <linearGradient
       id="linearGradient7931-2">
      <stop
         id="stop7933-1"
         style="stop-color:#000000;stop-opacity:1"
         offset="0" />
      <stop
         id="stop7968-3"
         style="stop-color:#000000;stop-opacity:0.36078399"
         offset="0.45461464" />
      <stop
         id="stop7935-7"
         style="stop-color:#000000;stop-opacity:0"
         offset="1" />
    </linearGradient>
    <radialGradient
       inkscape:collect="always"
       xlink:href="#linearGradient16134-3-1"
       id="radialGradient1899"
       gradientUnits="userSpaceOnUse"
       gradientTransform="matrix(0,0.377844,-0.665,-9.14811e-5,85.1409,-1556.34)"
       cx="152.3331"
       cy="-754.6377"
       fx="152.3331"
       fy="-754.6377"
       r="15" />
    <linearGradient
       x1="525.63947"
       y1="-1078.6444"
       x2="525.63947"
       y2="-1068.7872"
       id="linearGradient21652"
       xlink:href="#linearGradient9364"
       gradientUnits="userSpaceOnUse"
       gradientTransform="matrix(1.71429,0,0,3.33333,-316.429,5092.43)" />
    <linearGradient
       id="linearGradient9364">
      <stop
         id="stop9366"
         style="stop-color:#63bbee;stop-opacity:1"
         offset="0" />
      <stop
         id="stop9368"
         style="stop-color:#aadcf7;stop-opacity:1"
         offset="1" />
    </linearGradient>
    <linearGradient
       x1="525.63947"
       y1="-1078.6444"
       x2="525.63947"
       y2="-1068.7872"
       id="linearGradient21654"
       xlink:href="#linearGradient6989-5"
       gradientUnits="userSpaceOnUse"
       gradientTransform="matrix(1.71429,0,0,4.44444,-298.429,6290.36)" />
    <linearGradient
       id="linearGradient6989-5">
      <stop
         id="stop6991-5"
         offset="0"
         style="stop-color: rgb(240, 158, 111); stop-opacity: 1;" />
      <stop
         id="stop6993-1"
         offset="1"
         style="stop-color: rgb(249, 207, 181); stop-opacity: 1;" />
    </linearGradient>
    <linearGradient
       x1="525.63947"
       y1="-1078.6444"
       x2="525.63947"
       y2="-1068.7872"
       id="linearGradient21656"
       xlink:href="#linearGradient6975-88"
       gradientUnits="userSpaceOnUse"
       gradientTransform="matrix(1.71429,0,0,2,-280.429,3654.91)" />
    <linearGradient
       id="linearGradient6975-88">
      <stop
         id="stop6977-8"
         offset="0"
         style="stop-color: rgb(245, 206, 83); stop-opacity: 1;" />
      <stop
         id="stop6979-6"
         offset="1"
         style="stop-color: rgb(253, 233, 169); stop-opacity: 1;" />
    </linearGradient>
    <linearGradient
       x1="525.63947"
       y1="-1078.6444"
       x2="525.63947"
       y2="-1068.7872"
       id="linearGradient21658"
       xlink:href="#linearGradient13220"
       gradientUnits="userSpaceOnUse"
       gradientTransform="matrix(1.71429,0,0,2.88889,-262.429,4613.26)" />
    <linearGradient
       id="linearGradient13220">
      <stop
         id="stop13222"
         style="stop-color:#8ee780;stop-opacity:1"
         offset="0" />
      <stop
         id="stop13224"
         style="stop-color:#ccf4c6;stop-opacity:1"
         offset="1" />
    </linearGradient>
    <linearGradient
       x1="529.25"
       y1="-1568.6378"
       x2="535"
       y2="-1574.6379"
       id="linearGradient21660"
       xlink:href="#linearGradient8989"
       gradientUnits="userSpaceOnUse"
       gradientTransform="matrix(0.833333,0,0,2.33333,141.167,2160.52)" />
    <linearGradient
       id="linearGradient8989">
      <stop
         id="stop8991"
         style="stop-color:#4a00ff;stop-opacity:1"
         offset="0" />
      <stop
         id="stop8993"
         style="stop-color:#00a0c1;stop-opacity:0"
         offset="1" />
    </linearGradient>
    <linearGradient
       x1="529.25"
       y1="-1568.6378"
       x2="535"
       y2="-1574.6378"
       id="linearGradient21662"
       xlink:href="#linearGradient9109"
       gradientUnits="userSpaceOnUse"
       gradientTransform="matrix(0.833333,0,0,3.16667,159.167,3467.72)" />
    <linearGradient
       id="linearGradient9109">
      <stop
         id="stop9111"
         style="stop-color:#800000;stop-opacity:1"
         offset="0" />
      <stop
         id="stop9113"
         style="stop-color:#ffc600;stop-opacity:0"
         offset="1" />
    </linearGradient>
    <linearGradient
       id="linearGradient9014">
      <stop
         id="stop9016"
         style="stop-color:#ffffff;stop-opacity:0"
         offset="0" />
      <stop
         id="stop9018"
         style="stop-color:#ffffff;stop-opacity:1"
         offset="0.49305555" />
      <stop
         id="stop9020"
         style="stop-color:#ffffff;stop-opacity:0"
         offset="1" />
    </linearGradient>
    <linearGradient
       x1="-17"
       y1="-1194.6378"
       x2="144"
       y2="-1194.6378"
       id="linearGradient21666"
       xlink:href="#linearGradient8074-2"
       gradientUnits="userSpaceOnUse"
       gradientTransform="matrix(0.459627,0,0,1,584.814,-303)" />
    <linearGradient
       x1="-17"
       y1="-1194.6378"
       x2="144"
       y2="-1194.6378"
       id="linearGradient21668"
       xlink:href="#linearGradient9014"
       gradientUnits="userSpaceOnUse"
       gradientTransform="matrix(0.459627,0,0,1,584.814,-300)" />
    <linearGradient
       x1="529.25"
       y1="-1568.6378"
       x2="535"
       y2="-1574.6379"
       id="linearGradient21670"
       xlink:href="#linearGradient9103"
       gradientUnits="userSpaceOnUse"
       gradientTransform="matrix(0.833333,0,0,2,195.167,1637.64)" />
    <linearGradient
       id="linearGradient9103">
      <stop
         id="stop9105"
         style="stop-color:#003362;stop-opacity:1"
         offset="0" />
      <stop
         id="stop9107"
         style="stop-color:#00ff8c;stop-opacity:0"
         offset="1" />
    </linearGradient>
    <linearGradient
       x1="529.25"
       y1="-1568.6378"
       x2="535"
       y2="-1574.6379"
       id="linearGradient21672"
       xlink:href="#linearGradient9119"
       gradientUnits="userSpaceOnUse"
       gradientTransform="matrix(0.833333,0,0,1.33333,177.167,591.879)" />
    <linearGradient
       id="linearGradient9119">
      <stop
         id="stop9121"
         style="stop-color:#ff0000;stop-opacity:1"
         offset="0" />
      <stop
         id="stop9123"
         style="stop-color:#d3d300;stop-opacity:0"
         offset="1" />
    </linearGradient>
    <linearGradient
       id="linearGradient7723">
      <stop
         id="stop7721"
         style="stop-color:#2e851b;stop-opacity:1"
         offset="0" />
      <stop
         id="stop7715"
         style="stop-color:#18a003;stop-opacity:1"
         offset="1" />
    </linearGradient>
    <linearGradient
       id="linearGradient15606-6">
      <stop
         style="stop-color: rgb(255, 255, 255); stop-opacity: 0.588235;"
         offset="0"
         id="stop15608-8" />
      <stop
         style="stop-color: rgb(255, 255, 255); stop-opacity: 0.862745;"
         offset="1"
         id="stop15610-7" />
    </linearGradient>
    <linearGradient
       id="linearGradient10292">
      <stop
         id="stop10294"
         style="stop-color:#666666;stop-opacity:1"
         offset="0" />
      <stop
         id="stop10296"
         style="stop-color:#333333;stop-opacity:1"
         offset="1" />
    </linearGradient>
    <linearGradient
       id="linearGradient9153">
      <stop
         id="stop9155"
         style="stop-color:#0369a3;stop-opacity:1"
         offset="0" />
      <stop
         id="stop9157"
         style="stop-color:#047fc6;stop-opacity:1"
         offset="1" />
    </linearGradient>
    <linearGradient
       id="linearGradient13791">
      <stop
         id="stop13793"
         style="stop-color:#d36118;stop-opacity:1"
         offset="0" />
      <stop
         id="stop13795"
         style="stop-color:#f09e6f;stop-opacity:1"
         offset="1" />
    </linearGradient>
    <linearGradient
       id="linearGradient10286-8">
      <stop
         id="stop10288-2-1"
         offset="0"
         style="stop-color: rgb(179, 179, 179); stop-opacity: 1;" />
      <stop
         id="stop10290-6"
         offset="1"
         style="stop-color: rgb(230, 230, 230); stop-opacity: 1;" />
    </linearGradient>
    <linearGradient
       id="linearGradient7713">
      <stop
         id="stop7711"
         style="stop-color:#993a03;stop-opacity:1"
         offset="0" />
      <stop
         id="stop7709"
         style="stop-color:#f0692c;stop-opacity:1"
         offset="1" />
    </linearGradient>
    <linearGradient
       id="linearGradient14494">
      <stop
         id="stop14496"
         style="stop-color:#dc85e9;stop-opacity:1"
         offset="0" />
      <stop
         id="stop14498"
         style="stop-color:#f2cbf8;stop-opacity:1"
         offset="1" />
    </linearGradient>
    <linearGradient
       id="linearGradient7701">
      <stop
         id="stop7699"
         style="stop-color:#950ba8;stop-opacity:1"
         offset="0" />
      <stop
         id="stop7693"
         style="stop-color:#c557bc;stop-opacity:1"
         offset="1" />
    </linearGradient>
    <clipPath
       clipPathUnits="userSpaceOnUse"
       id="clipPath10326">
      <circle
         r="6.5"
         cy="891.5"
         cx="3231.5"
         transform="translate(-123,-1753.64)"
         id="path10328"
         style="color:#000000;display:inline;overflow:visible;visibility:visible;fill:#00a0fc;fill-opacity:1;fill-rule:nonzero;stroke:none;stroke-width:1;marker:none" />
    </clipPath>
    <linearGradient
       id="linearGradient10501-8-6">
      <stop
         style="stop-color: rgb(3, 105, 163); stop-opacity: 1;"
         offset="0"
         id="stop10503-6-6" />
      <stop
         style="stop-color: rgb(2, 63, 98); stop-opacity: 1;"
         offset="1"
         id="stop10505-6-1" />
    </linearGradient>
    <linearGradient
       id="linearGradient10125-8">
      <stop
         style="stop-color: rgb(201, 156, 0); stop-opacity: 1;"
         offset="0"
         id="stop10127-5" />
      <stop
         style="stop-color: rgb(135, 105, 0); stop-opacity: 1;"
         offset="1"
         id="stop10129-5" />
    </linearGradient>
    <linearGradient
       id="linearGradient7707">
      <stop
         offset="0"
         style="stop-color:#d98027;stop-opacity:1"
         id="stop7703" />
      <stop
         offset="1"
         style="stop-color:#be5e0f;stop-opacity:1"
         id="stop7705" />
    </linearGradient>
    <clipPath
       clipPathUnits="userSpaceOnUse"
       id="clipPath994">
      <path
         style="color:#000000;display:inline;overflow:visible;visibility:visible;fill:#cdcdcd;fill-opacity:1;fill-rule:nonzero;stroke:none;stroke-width:2;stroke-miterlimit:4;stroke-dasharray:none;stroke-opacity:1;marker:none;enable-background:accumulate"
         d="m 335.73108,62 c -8.82418,0 -9.77365,0.90635 -9.7304,9.74838 V 84 96.25162 c -0.0433,8.84203 0.90622,9.74838 9.7304,9.74838 h 16.53919 c 8.82418,0 9.7304,-0.90625 9.7304,-9.74838 V 84 71.74838 C 362.00067,62.90625 361.09445,62 352.27027,62 Z"
         id="path996"
         inkscape:connector-curvature="0"
         sodipodi:nodetypes="scccssscsss" />
    </clipPath>
    <clipPath
       clipPathUnits="userSpaceOnUse"
       id="clipPath994-6">
      <path
         style="color:#000000;display:inline;overflow:visible;visibility:visible;fill:#cdcdcd;fill-opacity:1;fill-rule:nonzero;stroke:none;stroke-width:2;stroke-miterlimit:4;stroke-dasharray:none;stroke-opacity:1;marker:none;enable-background:accumulate"
         d="m 335.73108,62 c -8.82418,0 -9.77365,0.90635 -9.7304,9.74838 V 84 96.25162 c -0.0433,8.84203 0.90622,9.74838 9.7304,9.74838 h 16.53919 c 8.82418,0 9.7304,-0.90625 9.7304,-9.74838 V 84 71.74838 C 362.00067,62.90625 361.09445,62 352.27027,62 Z"
         id="path996-2"
         inkscape:connector-curvature="0"
         sodipodi:nodetypes="scccssscsss" />
    </clipPath>
    <filter
       style="color-interpolation-filters:sRGB"
       id="b-3"
       x="-0.059999999"
       y="-0.059999999"
       width="1.12"
       height="1.12">
      <feGaussianBlur
         stdDeviation="0.5"
         id="feGaussianBlur8-6" />
    </filter>
    <filter
       style="color-interpolation-filters:sRGB"
       id="c-7"
       x="-0.035999998"
       y="-0.035999998"
       width="1.072"
       height="1.072">
      <feGaussianBlur
         stdDeviation="0.3"
         id="feGaussianBlur5-5" />
    </filter>
    <clipPath
       clipPathUnits="userSpaceOnUse"
       id="clipPath994-9">
      <path
         style="color:#000000;display:inline;overflow:visible;visibility:visible;fill:#cdcdcd;fill-opacity:1;fill-rule:nonzero;stroke:none;stroke-width:2;stroke-miterlimit:4;stroke-dasharray:none;stroke-opacity:1;marker:none;enable-background:accumulate"
         d="m 335.73108,62 c -8.82418,0 -9.77365,0.90635 -9.7304,9.74838 V 84 96.25162 c -0.0433,8.84203 0.90622,9.74838 9.7304,9.74838 h 16.53919 c 8.82418,0 9.7304,-0.90625 9.7304,-9.74838 V 84 71.74838 C 362.00067,62.90625 361.09445,62 352.27027,62 Z"
         id="path996-7"
         inkscape:connector-curvature="0"
         sodipodi:nodetypes="scccssscsss" />
    </clipPath>
    <clipPath
       clipPathUnits="userSpaceOnUse"
       id="clipPath994-2">
      <path
         style="color:#000000;display:inline;overflow:visible;visibility:visible;fill:#cdcdcd;fill-opacity:1;fill-rule:nonzero;stroke:none;stroke-width:2;stroke-miterlimit:4;stroke-dasharray:none;stroke-opacity:1;marker:none;enable-background:accumulate"
         d="m 335.73108,62 c -8.82418,0 -9.77365,0.90635 -9.7304,9.74838 V 84 96.25162 c -0.0433,8.84203 0.90622,9.74838 9.7304,9.74838 h 16.53919 c 8.82418,0 9.7304,-0.90625 9.7304,-9.74838 V 84 71.74838 C 362.00067,62.90625 361.09445,62 352.27027,62 Z"
         id="path996-9"
         inkscape:connector-curvature="0"
         sodipodi:nodetypes="scccssscsss" />
    </clipPath>
    <clipPath
       clipPathUnits="userSpaceOnUse"
       id="clipPath994-1">
      <path
         style="color:#000000;display:inline;overflow:visible;visibility:visible;fill:#cdcdcd;fill-opacity:1;fill-rule:nonzero;stroke:none;stroke-width:2;stroke-miterlimit:4;stroke-dasharray:none;stroke-opacity:1;marker:none;enable-background:accumulate"
         d="m 335.73108,62 c -8.82418,0 -9.77365,0.90635 -9.7304,9.74838 V 84 96.25162 c -0.0433,8.84203 0.90622,9.74838 9.7304,9.74838 h 16.53919 c 8.82418,0 9.7304,-0.90625 9.7304,-9.74838 V 84 71.74838 C 362.00067,62.90625 361.09445,62 352.27027,62 Z"
         id="path996-5"
         inkscape:connector-curvature="0"
         sodipodi:nodetypes="scccssscsss" />
    </clipPath>
    <clipPath
       clipPathUnits="userSpaceOnUse"
       id="clipPath994-93">
      <path
         style="color:#000000;display:inline;overflow:visible;visibility:visible;fill:#cdcdcd;fill-opacity:1;fill-rule:nonzero;stroke:none;stroke-width:2;stroke-miterlimit:4;stroke-dasharray:none;stroke-opacity:1;marker:none;enable-background:accumulate"
         d="m 335.73108,62 c -8.82418,0 -9.77365,0.90635 -9.7304,9.74838 V 84 96.25162 c -0.0433,8.84203 0.90622,9.74838 9.7304,9.74838 h 16.53919 c 8.82418,0 9.7304,-0.90625 9.7304,-9.74838 V 84 71.74838 C 362.00067,62.90625 361.09445,62 352.27027,62 Z"
         id="path996-74"
         inkscape:connector-curvature="0"
         sodipodi:nodetypes="scccssscsss" />
    </clipPath>
    <clipPath
       clipPathUnits="userSpaceOnUse"
       id="clipPath994-4">
      <path
         style="color:#000000;display:inline;overflow:visible;visibility:visible;fill:#cdcdcd;fill-opacity:1;fill-rule:nonzero;stroke:none;stroke-width:2;stroke-miterlimit:4;stroke-dasharray:none;stroke-opacity:1;marker:none;enable-background:accumulate"
         d="m 335.73108,62 c -8.82418,0 -9.77365,0.90635 -9.7304,9.74838 V 84 96.25162 c -0.0433,8.84203 0.90622,9.74838 9.7304,9.74838 h 16.53919 c 8.82418,0 9.7304,-0.90625 9.7304,-9.74838 V 84 71.74838 C 362.00067,62.90625 361.09445,62 352.27027,62 Z"
         id="path996-744"
         inkscape:connector-curvature="0"
         sodipodi:nodetypes="scccssscsss" />
    </clipPath>
    <clipPath
       clipPathUnits="userSpaceOnUse"
       id="clipPath994-8">
      <path
         style="color:#000000;display:inline;overflow:visible;visibility:visible;fill:#cdcdcd;fill-opacity:1;fill-rule:nonzero;stroke:none;stroke-width:2;stroke-miterlimit:4;stroke-dasharray:none;stroke-opacity:1;marker:none;enable-background:accumulate"
         d="m 335.73108,62 c -8.82418,0 -9.77365,0.90635 -9.7304,9.74838 V 84 96.25162 c -0.0433,8.84203 0.90622,9.74838 9.7304,9.74838 h 16.53919 c 8.82418,0 9.7304,-0.90625 9.7304,-9.74838 V 84 71.74838 C 362.00067,62.90625 361.09445,62 352.27027,62 Z"
         id="path996-6"
         inkscape:connector-curvature="0"
         sodipodi:nodetypes="scccssscsss" />
    </clipPath>
    <linearGradient
       id="linearGradient7723-9">
      <stop
         id="stop7721-2"
         style="stop-color:#ff7c00;stop-opacity:1"
         offset="0" />
      <stop
         id="stop7715-0"
         style="stop-color:#ffb977;stop-opacity:1"
         offset="1" />
    </linearGradient>
    <linearGradient
       id="linearGradient7723-2">
      <stop
         id="stop7721-6"
         style="stop-color:#00c8ff;stop-opacity:1"
         offset="0" />
      <stop
         id="stop7715-6"
         style="stop-color:#6bdfff;stop-opacity:1"
         offset="1" />
    </linearGradient>
    <clipPath
       clipPathUnits="userSpaceOnUse"
       id="clipPath994-49">
      <path
         style="color:#000000;display:inline;overflow:visible;visibility:visible;fill:#cdcdcd;fill-opacity:1;fill-rule:nonzero;stroke:none;stroke-width:2;stroke-miterlimit:4;stroke-dasharray:none;stroke-opacity:1;marker:none;enable-background:accumulate"
         d="m 335.73108,62 c -8.82418,0 -9.77365,0.90635 -9.7304,9.74838 V 84 96.25162 c -0.0433,8.84203 0.90622,9.74838 9.7304,9.74838 h 16.53919 c 8.82418,0 9.7304,-0.90625 9.7304,-9.74838 V 84 71.74838 C 362.00067,62.90625 361.09445,62 352.27027,62 Z"
         id="path996-50"
         inkscape:connector-curvature="0"
         sodipodi:nodetypes="scccssscsss" />
    </clipPath>
    <linearGradient
       id="linearGradient8385">
      <stop
         id="stop8387"
         style="stop-color:#3b3b3b;stop-opacity:1"
         offset="0" />
      <stop
         id="stop8389"
         style="stop-color:#ffffff;stop-opacity:1"
         offset="1" />
    </linearGradient>
    <clipPath
       clipPathUnits="userSpaceOnUse"
       id="clipPath994-17">
      <path
         style="color:#000000;display:inline;overflow:visible;visibility:visible;fill:#cdcdcd;fill-opacity:1;fill-rule:nonzero;stroke:none;stroke-width:2;stroke-miterlimit:4;stroke-dasharray:none;stroke-opacity:1;marker:none;enable-background:accumulate"
         d="m 335.73108,62 c -8.82418,0 -9.77365,0.90635 -9.7304,9.74838 V 84 96.25162 c -0.0433,8.84203 0.90622,9.74838 9.7304,9.74838 h 16.53919 c 8.82418,0 9.7304,-0.90625 9.7304,-9.74838 V 84 71.74838 C 362.00067,62.90625 361.09445,62 352.27027,62 Z"
         id="path996-27"
         inkscape:connector-curvature="0"
         sodipodi:nodetypes="scccssscsss" />
    </clipPath>
    <linearGradient
       inkscape:collect="always"
       xlink:href="#linearGradient927"
       id="linearGradient1004"
       x1="344"
       y1="62"
       x2="344"
       y2="106"
       gradientUnits="userSpaceOnUse" />
    <linearGradient
       inkscape:collect="always"
       id="linearGradient927">
      <stop
         style="stop-color:#ffffff;stop-opacity:1;"
         offset="0"
         id="stop923" />
      <stop
         id="stop933"
         offset="0.125"
         style="stop-color:#ffffff;stop-opacity:0.09803922" />
      <stop
         id="stop931"
         offset="0.92500001"
         style="stop-color:#ffffff;stop-opacity:0.09803922" />
      <stop
         style="stop-color:#ffffff;stop-opacity:0.49803922"
         offset="1"
         id="stop925" />
    </linearGradient>
    <clipPath
       clipPathUnits="userSpaceOnUse"
       id="clipPath994-10">
      <path
         style="color:#000000;display:inline;overflow:visible;visibility:visible;fill:#cdcdcd;fill-opacity:1;fill-rule:nonzero;stroke:none;stroke-width:2;stroke-miterlimit:4;stroke-dasharray:none;stroke-opacity:1;marker:none;enable-background:accumulate"
         d="m 335.73108,62 c -8.82418,0 -9.77365,0.90635 -9.7304,9.74838 V 84 96.25162 c -0.0433,8.84203 0.90622,9.74838 9.7304,9.74838 h 16.53919 c 8.82418,0 9.7304,-0.90625 9.7304,-9.74838 V 84 71.74838 C 362.00067,62.90625 361.09445,62 352.27027,62 Z"
         id="path996-61"
         inkscape:connector-curvature="0"
         sodipodi:nodetypes="scccssscsss" />
    </clipPath>
  </defs>
  <sodipodi:namedview
     id="base"
     pagecolor="#ffffff"
     bordercolor="#666666"
     borderopacity="1.0"
     inkscape:pageopacity="0.0"
     inkscape:pageshadow="2"
     inkscape:zoom="17.851088"
     inkscape:cx="11.536503"
     inkscape:cy="26.240722"
     inkscape:document-units="px"
     inkscape:current-layer="g1005"
     showgrid="false"
     units="px"
     inkscape:window-width="1920"
     inkscape:window-height="1016"
     inkscape:window-x="0"
     inkscape:window-y="27"
     inkscape:window-maximized="1" />
  <metadata
     id="metadata966">
    <rdf:RDF>
      <cc:Work
         rdf:about="">
        <dc:format>image/svg+xml</dc:format>
        <dc:type
           rdf:resource="http://purl.org/dc/dcmitype/StillImage" />
        <dc:title></dc:title>
      </cc:Work>
    </rdf:RDF>
  </metadata>
  <g
     inkscape:label="Livello 1"
     inkscape:groupmode="layer"
     id="layer1"
     transform="translate(0,-284.29999)">
    <g
       id="g1005"
       transform="matrix(0.04960938,0,0,0.04960938,-15.26913,281.7601)"
       style="display:inline;stroke-width:5.33333349;enable-background:new">
      <path
         style="color:#000000;font-style:normal;font-variant:normal;font-weight:normal;font-stretch:normal;font-size:medium;line-height:normal;font-family:sans-serif;font-variant-ligatures:normal;font-variant-position:normal;font-variant-caps:normal;font-variant-numeric:normal;font-variant-alternates:normal;font-feature-settings:normal;text-indent:0;text-align:start;text-decoration:none;text-decoration-line:none;text-decoration-style:solid;text-decoration-color:#000000;letter-spacing:normal;word-spacing:normal;text-transform:none;writing-mode:lr-tb;direction:ltr;text-orientation:mixed;dominant-baseline:auto;baseline-shift:baseline;text-anchor:start;white-space:normal;shape-padding:0;clip-rule:nonzero;display:inline;overflow:visible;visibility:visible;opacity:0.1;isolation:auto;mix-blend-mode:normal;color-interpolation:sRGB;color-interpolation-filters:linearRGB;solid-color:#000000;solid-opacity:1;vector-effect:none;fill:#000000;fill-opacity:1;fill-rule:nonzero;stroke:none;stroke-width:10.66666603;stroke-linecap:butt;stroke-linejoin:miter;stroke-miterlimit:4;stroke-dasharray:none;stroke-dashoffset:0;stroke-opacity:1;marker:none;color-rendering:auto;image-rendering:auto;shape-rendering:auto;text-rendering:auto;enable-background:accumulate"
         d="m 391.69071,59.197775 c -11.85685,0 -21.19296,0.27296 -28.87498,1.5625 -7.68208,1.28951 -13.96827,3.70826 -18.57296,8.30208 -4.60464,4.59382 -7.03499,10.87717 -8.31248,18.5625 -1.27749,7.68532 -1.52688,17.041825 -1.46875,28.927085 v 65.31249 65.34375 c -0.0576,11.867 0.19254,21.21875 1.46875,28.89582 1.27749,7.68533 3.70784,13.96869 8.31248,18.5625 4.60469,4.59382 10.89088,7.01259 18.57296,8.30208 7.68208,1.28955 17.01813,1.56251 28.87498,1.56251 h 88.20831 c 11.85685,0 21.18805,-0.27253 28.85419,-1.56251 7.66613,-1.29008 13.93311,-3.71701 18.52079,-8.31248 4.58774,-4.59546 7.00374,-10.87434 8.29168,-18.5521 1.28795,-7.67771 1.56251,-17.01522 1.56251,-28.89582 v -65.34375 -65.34374 c 0,-11.8806 -0.27467,-21.218095 -1.56251,-28.895835 -1.28794,-7.67774 -3.70394,-13.95661 -8.29168,-18.55209 -4.58768,-4.59547 -10.85466,-7.02242 -18.52079,-8.31249 -7.66614,-1.29008 -16.99734,-1.5625 -28.85419,-1.5625 z"
         id="path1020"
         inkscape:connector-curvature="0"
         sodipodi:nodetypes="sccsccccccsscccscsccsss" />
      <path
         style="color:#000000;display:inline;overflow:visible;visibility:visible;opacity:0.2;fill:none;fill-opacity:1;fill-rule:nonzero;stroke:#000000;stroke-width:10.66666603;stroke-miterlimit:4;stroke-dasharray:none;stroke-opacity:1;marker:none;enable-background:accumulate"
         d="m 391.69396,59.197775 c -47.06228,0 -52.12612,4.83386 -51.89546,51.991365 v 65.34196 65.34197 c -0.23093,47.15749 4.83318,51.99135 51.89546,51.99135 h 88.20901 c 47.06229,0 51.89546,-4.83333 51.89546,-51.99135 V 176.5311 111.18914 c 0,-47.158035 -4.83317,-51.991365 -51.89546,-51.991365 z"
         id="path958"
         inkscape:connector-curvature="0"
         sodipodi:nodetypes="scccssscsss" />
      <g
         transform="matrix(0.54545312,0,0,0.52771872,182.64385,161.72873)"
         style="display:inline;opacity:0.994;enable-background:new"
         id="g48">
        <path
           inkscape:connector-curvature="0"
           style="fill:#46a926;stroke-width:0.50186235"
           d="m 513.7168,517.69922 v -58.03711 -56.98242 c -5.04319,-12.21407 -9.20089,-22.48459 -8.92969,-22.75781 0,0 -79.125,42.13704 -79.125,79.71484 0,37.5778 79.125,79.71484 79.125,79.71484 z"
           id="path24"
           transform="matrix(1.9999999,0,0,1.985184,-387.32607,-884.46409)" />
        <path
           inkscape:connector-curvature="0"
           style="fill:#f22c42;stroke-width:0.50186235"
           d="m 337.7168,401.3125 v 58.34961 57.19141 c 4.99014,12.08984 9.09157,22.22671 8.82226,22.49804 0,0 79.12305,-42.13704 79.12305,-79.71484 0,-37.5778 -79.12305,-79.71484 -79.12305,-79.71484 z"
           id="path26"
           transform="matrix(1.9999999,0,0,1.985184,-387.32607,-884.46409)" />
        <path
           inkscape:connector-curvature="0"
           style="fill:#ffda64;stroke-width:0.50186235"
           d="m 427.66797,347.66211 h -4.06445 l -77.06446,32.25977 79.12305,79.71484 79.125,-79.71484 c -0.77489,0.78073 -73.31907,-30.61477 -77.11914,-32.25977 z"
           id="path1997"
           transform="matrix(1.9999999,0,0,1.985184,-387.32607,-884.46409)" />
        <path
           inkscape:connector-curvature="0"
           style="fill:#2f5fdd;stroke-width:0.50186235"
           d="m 423.96289,571.66211 h 3.35547 c 3.16635,-1.36664 76.69026,-33.09485 77.46875,-32.31055 l -79.125,-79.71484 -79.12305,79.71484 z"
           id="path30"
           transform="matrix(1.9999999,0,0,1.985184,-387.32607,-884.46409)" />
        <path
           inkscape:connector-curvature="0"
           style="fill:#a6d74f;stroke-width:1.00372469"
           d="m 513.17578,371.57422 c -0.16395,-2.05297 -0.28831,-4.21566 -0.57617,-5.93164 -0.44567,-2.65677 -1.05778,-4.92781 -1.89063,-6.86719 -0.41642,-0.96969 -0.88811,-1.85703 -1.42187,-2.66797 -0.53376,-0.81094 -1.13013,-1.54502 -1.79492,-2.21094 -0.66479,-0.66591 -1.39752,-1.26225 -2.20703,-1.79687 -0.80952,-0.53462 -1.69613,-1.00872 -2.66407,-1.42578 -1.93586,-0.83412 -4.2018,-1.44634 -6.85351,-1.89258 -2.65172,-0.44624 -5.68889,-0.72633 -9.16602,-0.89453 -3.47712,-0.1682 -7.39455,-0.22461 -11.80664,-0.22461 h -49.08984 c 0.19099,28.56286 11.10937,57.07028 32.83398,78.95703 z"
           id="path1940"
           transform="matrix(1.9999999,0,0,1.985184,-387.32607,-884.46409)" />
        <path
           inkscape:connector-curvature="0"
           style="fill:#76c22b;stroke-width:1.00372469"
           d="m 513.7168,456.93555 v -70.2793 c 0,-4.42106 -0.0566,-8.34608 -0.22461,-11.83008 -0.0595,-1.23371 -0.22652,-2.12641 -0.31641,-3.25195 l -54.63672,55.04492 c 15.75933,15.87696 34.9915,25.88467 55.17774,30.31641 z"
           id="path34"
           transform="matrix(1.9999999,0,0,1.985184,-387.32607,-884.46409)" />
        <path
           inkscape:connector-curvature="0"
           style="fill:#1463a5;stroke-width:1.00372469"
           d="m 425.60547,571.66211 h 49.18945 c 4.41209,0 8.32952,-0.0564 11.80664,-0.22461 3.47713,-0.1682 6.5143,-0.44829 9.16602,-0.89453 2.65171,-0.44624 4.91765,-1.05847 6.85351,-1.89258 0.96794,-0.41706 1.85455,-0.88921 2.66407,-1.42383 0.80951,-0.53462 1.54224,-1.13096 2.20703,-1.79687 0.66479,-0.66592 1.26116,-1.40196 1.79492,-2.21289 0.53376,-0.81094 1.00545,-1.69828 1.42187,-2.66797 0.83285,-1.93938 1.44496,-4.20846 1.89063,-6.86524 0.28103,-1.6753 0.3999,-3.79484 0.5625,-5.79101 L 458.4375,492.75977 c -21.71167,21.87369 -32.62835,50.35657 -32.83203,78.90234 z"
           id="path36"
           transform="matrix(1.9999999,0,0,1.985184,-387.32607,-884.46409)" />
        <path
           inkscape:connector-curvature="0"
           style="fill:#2b898f;stroke-width:1.00372469"
           d="m 513.16211,547.89258 c 0.0953,-1.16945 0.26799,-2.10552 0.33008,-3.39258 0.16805,-3.484 0.22461,-7.40901 0.22461,-11.83008 v -70.25195 c -20.22318,4.42173 -39.4937,14.43836 -55.2793,30.3418 z"
           id="path38"
           transform="matrix(1.9999999,0,0,1.985184,-387.32607,-884.46409)" />
        <path
           inkscape:connector-curvature="0"
           style="fill:#9b33ae;stroke-width:1.00372469"
           d="m 337.7168,462.33984 v 70.33008 c -0.0216,4.42102 0.0196,8.34611 0.17578,11.83008 0.0553,1.23372 0.22184,2.12641 0.30859,3.25195 l 54.6875,-55.0957 C 377.1309,476.78088 357.90027,466.77286 337.7168,462.33984 Z"
           id="path40"
           transform="matrix(1.9999999,0,0,1.985184,-387.32607,-884.46409)" />
        <path
           inkscape:connector-curvature="0"
           style="fill:#7839b7;stroke-width:1.00372469"
           d="m 338.20117,547.75195 c 0.15824,2.05295 0.27531,4.21568 0.56055,5.93164 0.44162,2.65677 1.05218,4.92585 1.88672,6.86524 0.41727,0.96969 0.89207,1.85702 1.42773,2.66797 0.53566,0.81094 1.13329,1.54697 1.80078,2.21289 0.66749,0.66592 1.40403,1.26224 2.2168,1.79687 0.81277,0.53463 1.70235,1.00677 2.67383,1.42383 1.94296,0.83413 4.21652,1.44633 6.875,1.89258 2.65847,0.44625 5.70012,0.72632 9.18164,0.89453 3.48151,0.16821 7.40237,0.22461 11.81445,0.22461 h 49.08008 c -0.17808,-28.58011 -11.0924,-57.10595 -32.83008,-79.00586 z"
           id="path42"
           transform="matrix(1.9999999,0,0,1.985184,-387.32607,-884.46409)" />
        <path
           inkscape:connector-curvature="0"
           style="fill:#fdc92b;stroke-width:1.00372469"
           d="m 425.82617,347.66211 h -49.1875 c -4.41208,0 -8.33294,0.0564 -11.81445,0.22461 -3.48152,0.16821 -6.52317,0.44827 -9.18164,0.89453 -2.65847,0.44626 -4.93204,1.05845 -6.875,1.89258 -0.97148,0.41706 -1.86106,0.89115 -2.67383,1.42578 -0.81277,0.53463 -1.54931,1.13095 -2.2168,1.79687 -0.66749,0.66593 -1.26512,1.4 -1.80078,2.21094 -0.53566,0.81094 -1.01046,1.69828 -1.42773,2.66797 -0.83454,1.93939 -1.4451,4.21043 -1.88672,6.86719 -0.27839,1.67477 -0.39175,3.79364 -0.54883,5.78906 l 54.77734,55.1875 c 21.72458,-21.88675 32.64491,-50.39417 32.83594,-78.95703 z"
           id="path1937"
           transform="matrix(1.9999999,0,0,1.985184,-387.32607,-884.46409)" />
        <path
           inkscape:connector-curvature="0"
           style="fill:#f34f17;stroke-width:1.00372469"
           d="m 338.21289,371.43164 c -0.0921,1.17 -0.26257,2.10679 -0.32031,3.39453 -0.15623,3.48397 -0.19741,7.40907 -0.17578,11.83008 v 70.30078 c 20.22041,-4.42183 39.48939,-14.43602 55.27343,-30.33789 z"
           id="path46"
           transform="matrix(1.9999999,0,0,1.985184,-387.32607,-884.46409)" />
      </g>
      <path
         style="color:#000000;display:inline;overflow:visible;visibility:visible;opacity:0.2;fill:#ffffff;fill-opacity:1;fill-rule:nonzero;stroke:none;stroke-width:5.33333302;marker:none;enable-background:accumulate"
         d="m 339.79488,176.5311 v 65.34374 c -0.23094,47.15748 4.83354,51.98958 51.89583,51.98958 h 88.20831 c 47.06229,0 51.89584,-4.83157 51.89584,-51.98958 V 176.5311 Z"
         id="path1006"
         inkscape:connector-curvature="0" />
      <path
         style="color:#000000;display:inline;overflow:visible;visibility:visible;opacity:0.1;fill:#ffffff;fill-opacity:1;fill-rule:nonzero;stroke:none;stroke-width:5.33333302;marker:none;enable-background:accumulate"
         d="M 435.79487,59.197775 V 293.86442 h 44.10415 c 47.06229,0 51.89584,-4.83157 51.89584,-51.98958 V 176.5311 111.18736 c 0,-47.158035 -4.83355,-51.989585 -51.89584,-51.989585 z"
         id="path1013"
         inkscape:connector-curvature="0" />
      <path
         transform="matrix(5.3333328,0,0,5.3333328,-1398.8717,-271.46885)"
         sodipodi:nodetypes="scccssscsss"
         inkscape:connector-curvature="0"
         id="path990"
         d="m 335.73108,62 c -8.82418,0 -9.77365,0.90635 -9.7304,9.74838 V 84 96.25162 c -0.0433,8.84203 0.90622,9.74838 9.7304,9.74838 h 16.53919 c 8.82418,0 9.7304,-0.90625 9.7304,-9.74838 V 84 71.74838 C 362.00067,62.90625 361.09445,62 352.27027,62 Z"
         style="color:#000000;display:inline;overflow:visible;visibility:visible;opacity:0.4;fill:none;fill-opacity:1;fill-rule:nonzero;stroke:url(#linearGradient1004);stroke-width:2;stroke-miterlimit:4;stroke-dasharray:none;stroke-opacity:1;marker:none;enable-background:accumulate"
         clip-path="url(#clipPath994-10)" />
    </g>
  </g>
</svg>
