<svg id="svg49" height="48" viewBox="0 0 12.699375 12.699375" width="48" xmlns="http://www.w3.org/2000/svg" xmlns:xlink="http://www.w3.org/1999/xlink">
  <linearGradient id="linearGradient1004" gradientUnits="userSpaceOnUse" x1="344" x2="344" y1="62" y2="106">
    <stop id="stop923" offset="0" stop-color="#fff"/>
    <stop id="stop933" offset=".125" stop-color="#fff" stop-opacity=".098039"/>
    <stop id="stop931" offset=".92500001" stop-color="#fff" stop-opacity=".098039"/>
    <stop id="stop925" offset="1" stop-color="#fff" stop-opacity=".498039"/>
  </linearGradient>
  <clipPath id="clipPath994-25">
    <path id="path996-474" d="m335.73108 62c-8.82418 0-9.77365.90635-9.7304 9.74838v12.25162 12.25162c-.0433 8.84203.90622 9.74838 9.7304 9.74838h16.53919c8.82418 0 9.7304-.90625 9.7304-9.74838v-12.25162-12.25162c0-8.84213-.90622-9.74838-9.7304-9.74838z"/>
  </clipPath>
  <linearGradient id="linearGradient1024" gradientTransform="matrix(0 -.02997086 .02997 0 -3.039509 13.625372)" gradientUnits="userSpaceOnUse" x1="459.03448" x2="35.310345" y1="419.23337" y2="207.36522">
    <stop id="stop12" offset="0" stop-color="#077467"/>
    <stop id="stop14" offset="1" stop-color="#169283"/>
  </linearGradient>
  <path id="path1020" d="m4.1621982.39685613c-.5881821 0-1.0513178.0135407-1.4323996.0775109-.3810845.0639689-.6929229.18395548-.9213476.41184073-.2284221.22788554-.3489841.53958344-.4123566.92082874-.0633725.3812456-.0757438.8453924-.07286 1.4349839v3.2399529 3.241503c-.00286.5886857.00955 1.0525977.07286 1.4334337.063373.381246.1839345.692944.4123566.920829.2284247.227885.5402631.347873.9213476.411841.3810845.06397.8442175.07751 1.4323996.07751h4.3757443c.5881821 0 1.0510744-.01352 1.4313677-.07751.3802938-.064.6911798-.18439.9187598-.412357.227584-.227967.347434-.539443.411325-.920313.06389-.380868.07751-.844073.07751-1.4334337v-3.241503-3.241503c0-.5893606-.01363-1.0525644-.07751-1.4334338-.063891-.3808691-.183741-.6923442-.411325-.92031203-.22758-.22796754-.538466-.34836079-.9187598-.41235744-.3802933-.06399691-.8431856-.0775109-1.4313677-.0775109z" opacity=".1"/>
  <path id="path958" d="m4.1623596.39685613c-2.3346161 0-2.5858177.23979331-2.574375 2.57913197v3.2414149 3.2414149c-.0114559 2.3393391.2397589 2.5791321 2.574375 2.5791321h4.3757787c2.3346157 0 2.5743747-.239767 2.5743747-2.5791321v-3.2414149-3.2414149c0-2.33936512-.239759-2.57913197-2.5743747-2.57913197z" fill="none" stroke="#00584e" stroke-width=".529141"/>
  <path id="path964" d="m4.1623596.39685613c-2.3346161 0-2.5858177.23979331-2.574375 2.57913197v3.2414149 3.2414149c-.0114559 2.3393391.2397589 2.5791321 2.574375 2.5791321h4.3757787c2.3346157 0 2.5743747-.239767 2.5743747-2.5791321v-3.2414149-3.2414149c0-2.33936512-.239759-2.57913197-2.5743747-2.57913197z" fill="url(#linearGradient1024)"/>
  <path id="path990" clip-path="url(#clipPath994-25)" d="m335.73108 62c-8.82418 0-9.77365.90635-9.7304 9.74838v12.25162 12.25162c-.0433 8.84203.90622 9.74838 9.7304 9.74838h16.53919c8.82418 0 9.7304-.90625 9.7304-9.74838v-12.25162-12.25162c0-8.84213-.90622-9.74838-9.7304-9.74838z" fill="none" opacity=".4" stroke="url(#linearGradient1004)" stroke-width="2" transform="matrix(.26457031 0 0 .26457031 -84.662117 -16.006503)"/>
  <g fill="#fff">
    <path id="path1006" d="m1.5878047 6.217403v3.241503c-.011456 2.339338.2397774 2.579044 2.5743935 2.579044h4.3757443c2.3346165 0 2.5743935-.239679 2.5743935-2.579044v-3.241503z" opacity=".2"/>
    <path id="path1013" d="m6.3500704.39685613v11.64109387h2.1878721c2.3346165 0 2.5743935-.239679 2.5743935-2.579044v-3.241503-3.241503c0-2.33936512-.239777-2.57904387-2.5743935-2.57904387z" opacity=".1"/>
    <path id="path31" d="m93.868569 248.59793v.00051c-5.073385.89628-10.153076 1.76589-15.22646 2.64894-.0033 7.71591-.0033 15.43202 0 23.14794 5.046926.88635 10.100158 1.72971 15.143778 2.64583h2.04742v-3.30729c2.318411-.007 4.633613.01 6.952033.003.67138-.0198 1.5906.0169 1.87172-.75706.23482-1.49489.0563-3.02648.10594-4.5346 1.03187-.0298 2.10984.1326 3.11195-.19482.20176-.57547.19193-1.19745.20516-1.79938-.0198-4.51776-.013-9.03851-.003-13.55627-.0232-.4994.0001-1.01895-.17518-1.4919-.61516-.69784-1.66047-.4264-2.47737-.4992-2.07036.0859-4.15747-.13239-6.214614.10904-1.488281.48287-.955398 2.35809-1.047998 3.5388h-2.32854v-5.95312zm8.634101 3.29437c1.52471-.008 3.05201.046 4.57543.0129v15.21354h-2.3151c-.007-3.97536.01-7.94743-.007-11.92279-1.55443-1.23032-3.64133-1.74294-4.994015-3.19153.911575-.0806 1.825575-.10751 2.740405-.11214zm-6.669363 3.65094h7.606773v17.19792h-7.606773c-.0033-.66146-.0033-1.32292 0-1.98438h5.622403c-.003-.43987-.003-.88305 0-1.32292h-5.622403c-.0033-.55232-.0033-1.10132 0-1.65364h5.622403c-.003-.43987-.003-.88306 0-1.32292h-5.622403c-.0033-.55232-.0033-1.10132 0-1.65364h5.622403c-.003-.43987-.003-.88305 0-1.32292h-5.622403c-.0033-.55232-.0033-1.10134 0-1.65365h5.622403v-4.6302h-5.622403c-.0033-.55232-.0033-1.10133 0-1.65365zm-9.04751 1.63556c.959528-.0198 1.880816.12206 2.628264.7984 1.418829 1.73633 1.038489 4.90502-1.07487 5.94021-.750755.38364-1.611064.33382-2.424658.30075-.0033 1.29646-.0064 2.59303-.0031 3.89279-.668073-.0661-1.336146-.1324-2.000911-.20516.03307-3.51896.0033-7.0344.01654-10.55336.901237.0281 1.899213-.15379 2.85874-.17363zm-.09663 1.91771c-.263124-.007-.532164.0184-.777731.032-.0066 1.10794-.01654 2.21557.04961 3.32021.661458-.0761 1.508229-.01 1.891874-.68781.307574-.66476.333829-1.50823-.02997-2.15646-.272851-.39481-.695241-.49622-1.13378-.50798z" transform="matrix(.20529462 0 0 .20529462 -12.816209 -47.738034)"/>
  </g>
</svg>
