<?xml version="1.0" encoding="UTF-8" standalone="no"?>
<svg
   xmlns:dc="http://purl.org/dc/elements/1.1/"
   xmlns:cc="http://creativecommons.org/ns#"
   xmlns:rdf="http://www.w3.org/1999/02/22-rdf-syntax-ns#"
   xmlns:svg="http://www.w3.org/2000/svg"
   xmlns="http://www.w3.org/2000/svg"
   xmlns:xlink="http://www.w3.org/1999/xlink"
   xmlns:sodipodi="http://sodipodi.sourceforge.net/DTD/sodipodi-0.dtd"
   xmlns:inkscape="http://www.inkscape.org/namespaces/inkscape"
   height="48"
   viewBox="0 0 12.699375 12.699376"
   width="48"
   version="1.1"
   id="svg33"
   sodipodi:docname="application-x-rss_xml.svg"
   inkscape:version="0.92.5 (2060ec1f9f, 2020-04-08)">
  <metadata
     id="metadata39">
    <rdf:RDF>
      <cc:Work
         rdf:about="">
        <dc:format>image/svg+xml</dc:format>
        <dc:type
           rdf:resource="http://purl.org/dc/dcmitype/StillImage" />
      </cc:Work>
    </rdf:RDF>
  </metadata>
  <defs
     id="defs37">
    <linearGradient
       gradientTransform="matrix(0.26457032,0,0,0.26457032,-84.662118,-15.874219)"
       inkscape:collect="always"
       xlink:href="#linearGradient927"
       id="linearGradient1004"
       x1="344"
       y1="62"
       x2="344"
       y2="106"
       gradientUnits="userSpaceOnUse" />
    <linearGradient
       inkscape:collect="always"
       id="linearGradient927">
      <stop
         style="stop-color:#ffffff;stop-opacity:1;"
         offset="0"
         id="stop923" />
      <stop
         id="stop933"
         offset="0.125"
         style="stop-color:#ffffff;stop-opacity:0.09803922" />
      <stop
         id="stop931"
         offset="0.92500001"
         style="stop-color:#ffffff;stop-opacity:0.09803922" />
      <stop
         style="stop-color:#ffffff;stop-opacity:0.49803922"
         offset="1"
         id="stop925" />
    </linearGradient>
    <linearGradient
       inkscape:collect="always"
       xlink:href="#linearGradient4338"
       id="linearGradient1024"
       gradientUnits="userSpaceOnUse"
       gradientTransform="matrix(0,-0.02997086,0.02997,0,-3.0395091,13.757657)"
       x1="459.03448"
       y1="419.23337"
       x2="35.310345"
       y2="207.36522" />
    <linearGradient
       inkscape:collect="always"
       id="linearGradient4338">
      <stop
         style="stop-color:#f2f2f2;stop-opacity:1"
         offset="0"
         id="stop4340" />
      <stop
         style="stop-color:#f9f9f9;stop-opacity:1"
         offset="1"
         id="stop4342" />
    </linearGradient>
  </defs>
  <sodipodi:namedview
     pagecolor="#ffffff"
     bordercolor="#666666"
     borderopacity="1"
     objecttolerance="10"
     gridtolerance="10"
     guidetolerance="10"
     inkscape:pageopacity="0"
     inkscape:pageshadow="2"
     inkscape:window-width="834"
     inkscape:window-height="480"
     id="namedview35"
     showgrid="false"
     inkscape:zoom="4.9166667"
     inkscape:cx="24"
     inkscape:cy="24"
     inkscape:window-x="0"
     inkscape:window-y="28"
     inkscape:window-maximized="0"
     inkscape:current-layer="svg33" />
  <linearGradient
     id="a"
     gradientUnits="userSpaceOnUse"
     x1="344"
     x2="344"
     y1="62"
     y2="106">
    <stop
       offset="0"
       stop-color="#fff"
       id="stop2" />
    <stop
       offset=".125"
       stop-color="#fff"
       stop-opacity=".098039"
       id="stop4" />
    <stop
       offset=".92500001"
       stop-color="#fff"
       stop-opacity=".098039"
       id="stop6" />
    <stop
       offset="1"
       stop-color="#fff"
       stop-opacity=".498039"
       id="stop8" />
  </linearGradient>
  <clipPath
     id="b">
    <path
       d="m335.73108 62c-8.82418 0-9.77365.90635-9.7304 9.74838v12.25162 12.25162c-.0433 8.84203.90622 9.74838 9.7304 9.74838h16.53919c8.82418 0 9.7304-.90625 9.7304-9.74838v-12.25162-12.25162c0-8.84213-.90622-9.74838-9.7304-9.74838z"
       id="path11" />
  </clipPath>
  <linearGradient
     id="c"
     gradientTransform="matrix(0 -.02997086 .02997 0 -3.039509 13.625372)"
     gradientUnits="userSpaceOnUse"
     x1="459.03448"
     x2="35.310345"
     y1="419.23337"
     y2="207.36522">
    <stop
       offset="0"
       stop-color="#f2f2f2"
       id="stop14" />
    <stop
       offset="1"
       stop-color="#f9f9f9"
       id="stop16" />
  </linearGradient>
  <path
     style="color:#000000;font-style:normal;font-variant:normal;font-weight:normal;font-stretch:normal;font-size:medium;line-height:normal;font-family:sans-serif;font-variant-ligatures:normal;font-variant-position:normal;font-variant-caps:normal;font-variant-numeric:normal;font-variant-alternates:normal;font-feature-settings:normal;text-indent:0;text-align:start;text-decoration:none;text-decoration-line:none;text-decoration-style:solid;text-decoration-color:#000000;letter-spacing:normal;word-spacing:normal;text-transform:none;writing-mode:lr-tb;direction:ltr;text-orientation:mixed;dominant-baseline:auto;baseline-shift:baseline;text-anchor:start;white-space:normal;shape-padding:0;clip-rule:nonzero;display:inline;overflow:visible;visibility:visible;opacity:0.1;isolation:auto;mix-blend-mode:normal;color-interpolation:sRGB;color-interpolation-filters:linearRGB;solid-color:#000000;solid-opacity:1;vector-effect:none;fill:#000000;fill-opacity:1;fill-rule:nonzero;stroke:none;stroke-width:0.52914065;stroke-linecap:butt;stroke-linejoin:miter;stroke-miterlimit:4;stroke-dasharray:none;stroke-dashoffset:0;stroke-opacity:1;marker:none;color-rendering:auto;image-rendering:auto;shape-rendering:auto;text-rendering:auto;enable-background:accumulate"
     d="M 4.1621982,0.5291423 C 3.5740848,0.5201839 3.1108804,0.542683 2.7297986,0.6066532 2.3487142,0.6706221 2.0368758,0.7906087 1.808451,1.0184939 1.580029,1.2463795 1.4594669,1.5580775 1.3960944,1.9393228 1.3327218,2.3205684 1.3203505,2.7847152 1.3232344,3.3743067 v 3.239953 3.2415028 c -0.00286,0.5886855 0.00955,1.0525965 0.07286,1.4334325 0.063372,0.381246 0.1839346,0.692944 0.4123566,0.920829 0.2284248,0.227885 0.5402632,0.347873 0.9213476,0.411841 0.3810845,0.06397 0.8442175,0.07751 1.4323996,0.07751 h 4.3757445 c 0.588182,0 1.051074,-0.01352 1.431368,-0.07751 0.3802933,-0.064 0.6911793,-0.18439 0.9187603,-0.412357 0.227583,-0.227967 0.347434,-0.539443 0.411325,-0.920313 0.06389,-0.380867 0.07751,-0.844073 0.07751,-1.4334325 V 6.6142597 3.4394159 L 8.5379427,0.5958016 Z"
     id="path1020"
     inkscape:connector-curvature="0"
     sodipodi:nodetypes="sccsccccccsscccscccs" />
  <path
     style="color:#000000;display:inline;overflow:visible;visibility:visible;opacity:0.2;fill:none;fill-opacity:1;fill-rule:nonzero;stroke:#000000;stroke-width:0.52914065;stroke-miterlimit:4;stroke-dasharray:none;stroke-opacity:1;marker:none;enable-background:accumulate"
     d="m 4.1623596,0.5291423 c -2.3346161,0 -2.5858177,0.2397933 -2.574375,2.5791321 v 3.241415 3.2414151 c -0.011456,2.3393375 0.2397589,2.5791315 2.574375,2.5791315 h 4.3757789 c 2.3346165,0 2.5743755,-0.239767 2.5743755,-2.5791315 V 6.3496894 L 11.112337,3.1748456 8.4666331,0.5291423 Z"
     id="path958"
     inkscape:connector-curvature="0"
     sodipodi:nodetypes="scccssscccs" />
  <path
     style="color:#000000;display:inline;overflow:visible;visibility:visible;fill:url(#linearGradient1024);fill-opacity:1;fill-rule:nonzero;stroke:none;stroke-width:0.26457033;marker:none;enable-background:accumulate"
     d="m 4.1623596,0.5291423 c -2.3346161,0 -2.5858177,0.2397933 -2.574375,2.5791321 v 3.241415 3.2414151 c -0.011456,2.3393375 0.2397589,2.5791315 2.574375,2.5791315 h 4.3757789 c 2.3346165,0 2.5743755,-0.239767 2.5743755,-2.5791315 V 6.3496894 L 11.112337,3.1748456 8.4666331,0.5291423 Z"
     id="path964"
     inkscape:connector-curvature="0"
     sodipodi:nodetypes="scccssscccs" />
  <path
     id="path113-3"
     font-weight="700"
     font-size="13.59"
     d="m 3.6832492,9.6737645 c 0,-0.178808 0.061428,-0.329086 0.1853818,-0.449757 a 0.61429882,0.61429882 0 0 1 0.4508569,-0.184286 c 0.1744154,0 0.321408,0.06143 0.4420706,0.184286 0.1228585,0.120671 0.1842918,0.270949 0.1842918,0.449757 a 0.60771703,0.60771703 0 0 1 -0.1842918,0.4453665 0.60113531,0.60113531 0 0 1 -0.4420706,0.181 0.61978363,0.61978363 0 0 1 -0.4508569,-0.181 A 0.60113531,0.60113531 0 0 1 3.6832492,9.6737645 M 3.6470481,6.8106926 v 1.0552785 c 1.3470704,0 2.4407432,1.0958664 2.4407432,2.4451289 h 1.0574664 c 0,-1.9328495 -1.5686533,-3.4993068 -3.4993076,-3.4993068 z m 0.00106,-2.305815 V 5.6709483 A 4.6390533,4.6390533 0 0 1 8.2816711,10.3111 H 9.4510357 A 5.8073175,5.8073175 0 0 0 3.6481169,4.5048776 Z"
     style="font-weight:700;font-size:13.59000015px;display:inline;fill:#e95420;fill-opacity:1;stroke-width:1.09696233;enable-background:new"
     inkscape:connector-curvature="0" />
  <path
     style="color:#000000;display:inline;overflow:visible;visibility:visible;opacity:0.2;fill:#ffffff;fill-opacity:1;fill-rule:nonzero;stroke:none;stroke-width:0.26457033;marker:none;enable-background:accumulate"
     d="M 1.5878047,6.3496894 V 9.5911925 C 1.5763487,11.93053 1.8275821,12.170236 4.1621982,12.170236 h 4.3757445 c 2.3346163,0 2.5743943,-0.23968 2.5743943,-2.5790435 V 6.3496894 Z"
     id="path1006"
     inkscape:connector-curvature="0" />
  <path
     style="color:#000000;display:inline;overflow:visible;visibility:visible;opacity:0.1;fill:#ffffff;fill-opacity:1;fill-rule:nonzero;stroke:none;stroke-width:0.26457033;marker:none;enable-background:accumulate"
     d="M 6.3500705,0.5291423 V 12.170236 h 2.1878722 c 2.3346163,0 2.5743943,-0.23968 2.5743943,-2.5790435 V 6.3496894 3.1748456 L 8.4666331,0.5291423 Z"
     id="path1013"
     inkscape:connector-curvature="0"
     sodipodi:nodetypes="ccsscccc" />
  <path
     style="color:#000000;font-style:normal;font-variant:normal;font-weight:normal;font-stretch:normal;font-size:medium;line-height:normal;font-family:sans-serif;font-variant-ligatures:normal;font-variant-position:normal;font-variant-caps:normal;font-variant-numeric:normal;font-variant-alternates:normal;font-feature-settings:normal;text-indent:0;text-align:start;text-decoration:none;text-decoration-line:none;text-decoration-style:solid;text-decoration-color:#000000;letter-spacing:normal;word-spacing:normal;text-transform:none;writing-mode:lr-tb;direction:ltr;text-orientation:mixed;dominant-baseline:auto;baseline-shift:baseline;text-anchor:start;white-space:normal;shape-padding:0;clip-rule:nonzero;display:inline;overflow:visible;visibility:visible;opacity:0.4;isolation:auto;mix-blend-mode:normal;color-interpolation:sRGB;color-interpolation-filters:linearRGB;solid-color:#000000;solid-opacity:1;vector-effect:none;fill:url(#linearGradient1004);fill-opacity:1;fill-rule:nonzero;stroke:none;stroke-width:0.52914065;stroke-linecap:butt;stroke-linejoin:miter;stroke-miterlimit:4;stroke-dasharray:none;stroke-dashoffset:0;stroke-opacity:1;marker:none;color-rendering:auto;image-rendering:auto;shape-rendering:auto;text-rendering:auto;enable-background:accumulate"
     clip-path="none"
     d="m 4.1621982,0.5291423 c -2.3346161,0 -2.5858362,0.2397052 -2.5743935,2.579044 V 6.3496894 9.5911925 C 1.5763487,11.93053 1.8275821,12.170236 4.1621982,12.170236 h 4.3757445 c 2.3346163,0 2.5743943,-0.23968 2.5743943,-2.5790435 V 6.3496894 3.1748456 h -0.264571 v 3.1748438 3.2415031 c 0,0.5803215 -0.01625,1.0240705 -0.07028,1.3461025 -0.05402,0.322035 -0.13987,0.509124 -0.264054,0.633525 -0.124184,0.124387 -0.310701,0.2105 -0.6319713,0.26457 -0.321273,0.05406 -0.764397,0.07028 -1.3435228,0.07028 H 4.1621982 c -0.5791259,0 -1.0227997,-0.01619 -1.3450729,-0.07028 C 2.4948549,11.78129 2.3068301,11.6953 2.1820534,11.57082 2.0572794,11.446331 1.971466,11.259468 1.9180017,10.937814 1.8645346,10.61616 1.8495335,10.172303 1.852375,9.5922255 V 9.5916965 6.3496894 3.1076696 3.1071404 C 1.8495441,2.5270626 1.8645452,2.083207 1.9180017,1.7615522 1.9714687,1.4398974 2.0572794,1.2530273 2.1820534,1.128547 2.3068274,1.0040666 2.4953734,0.9180734 2.8176439,0.8639767 3.1399144,0.8099048 3.5830723,0.7937126 4.1621982,0.7937126 H 8.4666331 V 0.5291423 Z"
     id="path990"
     inkscape:connector-curvature="0" />
  <path
     inkscape:connector-curvature="0"
     style="color:#000000;display:inline;overflow:visible;visibility:visible;opacity:0.2;fill:#000000;fill-opacity:1;fill-rule:nonzero;stroke:none;stroke-width:0.06614864;marker:none;enable-background:accumulate"
     d="M 11.112337,3.4394159 V 3.1748456 L 8.4666331,0.5291423 H 8.2020627 v 1.1135908 0.042668 0.022917 c 0,1.505929 0.201592,1.7381397 1.710976,1.730759 z"
     id="rect4158-0-3-62-2"
     sodipodi:nodetypes="ccccccscc" />
  <path
     inkscape:connector-curvature="0"
     style="color:#000000;display:inline;overflow:visible;visibility:visible;fill:#faf8f6;fill-opacity:1;fill-rule:nonzero;stroke:none;stroke-width:0.06614864;marker:none;enable-background:accumulate"
     d="M 11.112337,3.1745069 8.4666331,0.5291417 v 0.9812761 0.042668 0.022917 c 0,1.505929 0.069402,1.6058848 1.5787869,1.598504 z"
     id="rect4158-0-3-62"
     sodipodi:nodetypes="ccccscc" />
</svg>
