<svg height="48" viewBox="0 0 12.699375 12.699375" width="48" xmlns="http://www.w3.org/2000/svg" xmlns:xlink="http://www.w3.org/1999/xlink"><linearGradient id="a" gradientUnits="userSpaceOnUse" x1="344" x2="344" y1="62" y2="106"><stop offset="0" stop-color="#fff"/><stop offset=".125" stop-color="#fff" stop-opacity=".098039"/><stop offset=".92500001" stop-color="#fff" stop-opacity=".098039"/><stop offset="1" stop-color="#fff" stop-opacity=".498039"/></linearGradient><clipPath id="b"><path d="m335.73108 62c-8.82418 0-9.77365.90635-9.7304 9.74838v12.25162 12.25162c-.0433 8.84203.90622 9.74838 9.7304 9.74838h16.53919c8.82418 0 9.7304-.90625 9.7304-9.74838v-12.25162-12.25162c0-8.84213-.90622-9.74838-9.7304-9.74838z"/></clipPath><linearGradient id="c" gradientTransform="matrix(0 -.02997086 .02997 0 -3.039509 13.625372)" gradientUnits="userSpaceOnUse" x1="459.03448" x2="35.310345" y1="419.23337" y2="207.36522"><stop offset="0" stop-color="#f2f2f2"/><stop offset="1" stop-color="#f9f9f9"/></linearGradient><path d="m4.1621981.39685644c-.5881821 0-1.0513178.0135407-1.4323995.0775109-.3810845.06396887-.6929228.18395548-.9213475.41184073-.2284221.22788553-.3489842.53958343-.4123567.92082873-.0633725.3812456-.0757438.8453924-.07286 1.4349839v3.2399529 3.241503c-.00286.5886854.00955 1.0525974.07286 1.4334334.063373.381246.1839346.692944.4123567.920829.2284247.227885.540263.347873.9213475.411841.3810844.06397.8442174.07751 1.4323995.07751h4.3757443c.5881822 0 1.0510742-.01352 1.4313672-.07751.3802944-.064.6911804-.18439.9187614-.412357.227582-.227967.347432-.539443.411323-.920313.06389-.380868.07751-.844073.07751-1.4334334v-3.241503-3.241503c0-.5893606-.01363-1.0525644-.07751-1.4334338-.063891-.3808691-.183741-.6923443-.411323-.92031202-.227581-.22796754-.538467-.34836079-.9187614-.41235744-.380293-.06399691-.843185-.0775109-1.4313672-.0775109z" opacity=".1"/><path d="m4.1623595.39685644c-2.334616 0-2.5858176.23979331-2.5743749 2.57913196v3.2414149 3.2414149c-.0114559 2.3393388.2397589 2.5791318 2.5743749 2.5791318h4.3757787c2.3346168 0 2.5743748-.239767 2.5743748-2.5791318v-3.2414149-3.2414149c0-2.33936511-.239758-2.57913196-2.5743748-2.57913196z" fill="none" opacity=".2" stroke="#000" stroke-width=".529141"/><path d="m4.1623595.39685644c-2.334616 0-2.5858176.23979331-2.5743749 2.57913196v3.2414149 3.2414149c-.0114559 2.3393388.2397589 2.5791318 2.5743749 2.5791318h4.3757787c2.3346168 0 2.5743748-.239767 2.5743748-2.5791318v-3.2414149-3.2414149c0-2.33936511-.239758-2.57913196-2.5743748-2.57913196z" fill="url(#c)"/><g fill="none"><path d="m3.572082 4.2331254v3.9685544" stroke="#999" stroke-width=".26457"/><path d="m9.1280586 4.2331254v3.9685544" stroke="#999" stroke-width=".26457"/><ellipse cx="6.350079" cy="4.233126" rx="2.777886" ry="1.058281" stroke="#999" stroke-dashoffset="1" stroke-linejoin="round" stroke-width=".26457"/><path d="m9.1279645 5.5559773a2.7778859 1.0582813 0 0 1 -1.388943.9164985 2.7778859 1.0582813 0 0 1 -2.7778859 0 2.7778859 1.0582813 0 0 1 -1.3889429-.9164985" stroke="#999" stroke-dashoffset="1" stroke-linejoin="round" stroke-width=".26457"/><path d="m9.1279645 6.878829a2.7778859 1.0582813 0 0 1 -1.388943.9164985 2.7778859 1.0582813 0 0 1 -2.7778859 0 2.7778859 1.0582813 0 0 1 -1.3889429-.9164985" stroke="#999" stroke-dashoffset="1" stroke-linejoin="round" stroke-width=".26457"/><path d="m9.1279645 8.2016802a2.7778859 1.0582813 0 0 1 -1.388943.9164985 2.7778859 1.0582813 0 0 1 -2.7778859 0 2.7778859 1.0582813 0 0 1 -1.3889429-.9164986" stroke="#999" stroke-dashoffset="1" stroke-linejoin="round" stroke-width=".26457"/></g><path d="m1.5878047 6.2174033v3.241503c-.011456 2.3393377.2397774 2.5790437 2.5743934 2.5790437h4.3757443c2.3346166 0 2.5743926-.239679 2.5743926-2.5790437v-3.241503z" fill="#fff" opacity=".2"/><path d="m6.3500703.39685644v11.64109356h2.1878721c2.3346166 0 2.5743926-.239679 2.5743926-2.5790437v-3.241503-3.241503c0-2.33936511-.239776-2.57904386-2.5743926-2.57904386z" fill="#fff" opacity=".1"/><path clip-path="url(#b)" d="m335.73108 62c-8.82418 0-9.77365.90635-9.7304 9.74838v12.25162 12.25162c-.0433 8.84203.90622 9.74838 9.7304 9.74838h16.53919c8.82418 0 9.7304-.90625 9.7304-9.74838v-12.25162-12.25162c0-8.84213-.90622-9.74838-9.7304-9.74838z" fill="none" opacity=".4" stroke="url(#a)" stroke-width="2" transform="matrix(.26457031 0 0 .26457031 -84.662117 -16.006503)"/></svg>