<?xml version="1.0" encoding="UTF-8" standalone="no"?>
<svg
   xmlns:dc="http://purl.org/dc/elements/1.1/"
   xmlns:cc="http://creativecommons.org/ns#"
   xmlns:rdf="http://www.w3.org/1999/02/22-rdf-syntax-ns#"
   xmlns:svg="http://www.w3.org/2000/svg"
   xmlns="http://www.w3.org/2000/svg"
   xmlns:xlink="http://www.w3.org/1999/xlink"
   xmlns:sodipodi="http://sodipodi.sourceforge.net/DTD/sodipodi-0.dtd"
   xmlns:inkscape="http://www.inkscape.org/namespaces/inkscape"
   height="48"
   viewBox="0 0 12.699375 12.699375"
   width="48"
   version="1.1"
   id="svg47"
   sodipodi:docname="audio-x-ms-wma.svg"
   inkscape:version="0.92.5 (2060ec1f9f, 2020-04-08)">
  <metadata
     id="metadata53">
    <rdf:RDF>
      <cc:Work
         rdf:about="">
        <dc:format>image/svg+xml</dc:format>
        <dc:type
           rdf:resource="http://purl.org/dc/dcmitype/StillImage" />
        <dc:title></dc:title>
      </cc:Work>
    </rdf:RDF>
  </metadata>
  <defs
     id="defs51">
    <clipPath
       clipPathUnits="userSpaceOnUse"
       id="clipPath994">
      <path
         style="color:#000000;display:inline;overflow:visible;visibility:visible;fill:#cdcdcd;fill-opacity:1;fill-rule:nonzero;stroke:none;stroke-width:2;stroke-miterlimit:4;stroke-dasharray:none;stroke-opacity:1;marker:none;enable-background:accumulate"
         d="m 335.73108,62 c -8.82418,0 -9.77365,0.90635 -9.7304,9.74838 V 84 96.25162 c -0.0433,8.84203 0.90622,9.74838 9.7304,9.74838 h 16.53919 c 8.82418,0 9.7304,-0.90625 9.7304,-9.74838 V 84 71.74838 C 362.00067,62.90625 361.09445,62 352.27027,62 Z"
         id="path996"
         inkscape:connector-curvature="0"
         sodipodi:nodetypes="scccssscsss" />
    </clipPath>
    <clipPath
       clipPathUnits="userSpaceOnUse"
       id="clipPath994-3">
      <path
         style="color:#000000;display:inline;overflow:visible;visibility:visible;fill:#cdcdcd;fill-opacity:1;fill-rule:nonzero;stroke:none;stroke-width:2;stroke-miterlimit:4;stroke-dasharray:none;stroke-opacity:1;marker:none;enable-background:accumulate"
         d="m 335.73108,62 c -8.82418,0 -9.77365,0.90635 -9.7304,9.74838 V 84 96.25162 c -0.0433,8.84203 0.90622,9.74838 9.7304,9.74838 h 16.53919 c 8.82418,0 9.7304,-0.90625 9.7304,-9.74838 V 84 71.74838 C 362.00067,62.90625 361.09445,62 352.27027,62 Z"
         id="path996-6"
         inkscape:connector-curvature="0"
         sodipodi:nodetypes="scccssscsss" />
    </clipPath>
    <clipPath
       clipPathUnits="userSpaceOnUse"
       id="clipPath994-7">
      <path
         style="color:#000000;display:inline;overflow:visible;visibility:visible;fill:#cdcdcd;fill-opacity:1;fill-rule:nonzero;stroke:none;stroke-width:2;stroke-miterlimit:4;stroke-dasharray:none;stroke-opacity:1;marker:none;enable-background:accumulate"
         d="m 335.73108,62 c -8.82418,0 -9.77365,0.90635 -9.7304,9.74838 V 84 96.25162 c -0.0433,8.84203 0.90622,9.74838 9.7304,9.74838 h 16.53919 c 8.82418,0 9.7304,-0.90625 9.7304,-9.74838 V 84 71.74838 C 362.00067,62.90625 361.09445,62 352.27027,62 Z"
         id="path996-5"
         inkscape:connector-curvature="0"
         sodipodi:nodetypes="scccssscsss" />
    </clipPath>
    <clipPath
       clipPathUnits="userSpaceOnUse"
       id="clipPath994-35">
      <path
         style="color:#000000;display:inline;overflow:visible;visibility:visible;fill:#cdcdcd;fill-opacity:1;fill-rule:nonzero;stroke:none;stroke-width:2;stroke-miterlimit:4;stroke-dasharray:none;stroke-opacity:1;marker:none;enable-background:accumulate"
         d="m 335.73108,62 c -8.82418,0 -9.77365,0.90635 -9.7304,9.74838 V 84 96.25162 c -0.0433,8.84203 0.90622,9.74838 9.7304,9.74838 h 16.53919 c 8.82418,0 9.7304,-0.90625 9.7304,-9.74838 V 84 71.74838 C 362.00067,62.90625 361.09445,62 352.27027,62 Z"
         id="path996-62"
         inkscape:connector-curvature="0"
         sodipodi:nodetypes="scccssscsss" />
    </clipPath>
    <linearGradient
       inkscape:collect="always"
       xlink:href="#linearGradient927"
       id="linearGradient1004"
       x1="344"
       y1="62"
       x2="344"
       y2="106"
       gradientUnits="userSpaceOnUse" />
    <linearGradient
       inkscape:collect="always"
       id="linearGradient927">
      <stop
         style="stop-color:#ffffff;stop-opacity:1;"
         offset="0"
         id="stop923" />
      <stop
         id="stop933"
         offset="0.125"
         style="stop-color:#ffffff;stop-opacity:0.09803922" />
      <stop
         id="stop931"
         offset="0.92500001"
         style="stop-color:#ffffff;stop-opacity:0.09803922" />
      <stop
         style="stop-color:#ffffff;stop-opacity:0.49803922"
         offset="1"
         id="stop925" />
    </linearGradient>
    <clipPath
       clipPathUnits="userSpaceOnUse"
       id="clipPath994-9">
      <path
         style="color:#000000;display:inline;overflow:visible;visibility:visible;fill:#cdcdcd;fill-opacity:1;fill-rule:nonzero;stroke:none;stroke-width:2;stroke-miterlimit:4;stroke-dasharray:none;stroke-opacity:1;marker:none;enable-background:accumulate"
         d="m 335.73108,62 c -8.82418,0 -9.77365,0.90635 -9.7304,9.74838 V 84 96.25162 c -0.0433,8.84203 0.90622,9.74838 9.7304,9.74838 h 16.53919 c 8.82418,0 9.7304,-0.90625 9.7304,-9.74838 V 84 71.74838 C 362.00067,62.90625 361.09445,62 352.27027,62 Z"
         id="path996-1"
         inkscape:connector-curvature="0"
         sodipodi:nodetypes="scccssscsss" />
    </clipPath>
    <linearGradient
       inkscape:collect="always"
       xlink:href="#linearGradient4338"
       id="linearGradient1024"
       gradientUnits="userSpaceOnUse"
       gradientTransform="matrix(0,-0.02997086,0.02997,0,-3.0395089,13.625372)"
       x1="459.03448"
       y1="419.23337"
       x2="35.310345"
       y2="207.36522" />
    <linearGradient
       inkscape:collect="always"
       id="linearGradient4338">
      <stop
         style="stop-color:#f2f2f2;stop-opacity:1"
         offset="0"
         id="stop4340" />
      <stop
         style="stop-color:#f9f9f9;stop-opacity:1"
         offset="1"
         id="stop4342" />
    </linearGradient>
  </defs>
  <sodipodi:namedview
     pagecolor="#ffffff"
     bordercolor="#666666"
     borderopacity="1"
     objecttolerance="10"
     gridtolerance="10"
     guidetolerance="10"
     inkscape:pageopacity="0"
     inkscape:pageshadow="2"
     inkscape:window-width="795"
     inkscape:window-height="668"
     id="namedview49"
     showgrid="false"
     inkscape:zoom="7.2708333"
     inkscape:cx="24"
     inkscape:cy="24"
     inkscape:window-x="0"
     inkscape:window-y="27"
     inkscape:window-maximized="0"
     inkscape:current-layer="svg47" />
  <linearGradient
     id="a"
     gradientTransform="matrix(0,-0.11988932,-0.11988589,0,67.016455,292.54831)"
     gradientUnits="userSpaceOnUse"
     x1="529.65503"
     x2="-35.310001"
     y1="401.58401"
     y2="119.093">
    <stop
       offset="0"
       stop-color="#76c22b"
       id="stop2" />
    <stop
       offset="1"
       stop-color="#a6d74f"
       id="stop4" />
  </linearGradient>
  <linearGradient
     id="b"
     gradientUnits="userSpaceOnUse"
     x1="88"
     x2="488"
     y1="88"
     y2="488">
    <stop
       offset="0"
       stop-opacity=".588235"
       id="stop7" />
    <stop
       offset=".88"
       stop-opacity="0"
       id="stop9" />
    <stop
       offset="1"
       id="stop11" />
  </linearGradient>
  <filter
     id="c"
     height="1.022"
     width="1.026"
     x="-0.0099999998"
     y="-0.0099999998"
     style="color-interpolation-filters:sRGB">
    <feGaussianBlur
       stdDeviation="2.12"
       id="feGaussianBlur14" />
  </filter>
  <path
     style="color:#000000;font-style:normal;font-variant:normal;font-weight:normal;font-stretch:normal;font-size:medium;line-height:normal;font-family:sans-serif;font-variant-ligatures:normal;font-variant-position:normal;font-variant-caps:normal;font-variant-numeric:normal;font-variant-alternates:normal;font-feature-settings:normal;text-indent:0;text-align:start;text-decoration:none;text-decoration-line:none;text-decoration-style:solid;text-decoration-color:#000000;letter-spacing:normal;word-spacing:normal;text-transform:none;writing-mode:lr-tb;direction:ltr;text-orientation:mixed;dominant-baseline:auto;baseline-shift:baseline;text-anchor:start;white-space:normal;shape-padding:0;clip-rule:nonzero;display:inline;overflow:visible;visibility:visible;opacity:0.1;isolation:auto;mix-blend-mode:normal;color-interpolation:sRGB;color-interpolation-filters:linearRGB;solid-color:#000000;solid-opacity:1;vector-effect:none;fill:#000000;fill-opacity:1;fill-rule:nonzero;stroke:none;stroke-width:0.52914065;stroke-linecap:butt;stroke-linejoin:miter;stroke-miterlimit:4;stroke-dasharray:none;stroke-dashoffset:0;stroke-opacity:1;marker:none;color-rendering:auto;image-rendering:auto;shape-rendering:auto;text-rendering:auto;enable-background:accumulate"
     d="m 4.1621981,0.39685604 c -0.5881821,0 -1.0513178,0.0135407 -1.4323995,0.0775109 C 2.3487141,0.53833581 2.0368757,0.65832242 1.808451,0.88620767 1.580029,1.1140932 1.4594669,1.4257911 1.3960944,1.8070364 1.3327219,2.188282 1.3203506,2.6524288 1.3232344,3.2420203 v 3.2399529 3.241503 c -0.00286,0.5886858 0.00955,1.0525978 0.07286,1.4334338 0.063373,0.381246 0.1839346,0.692944 0.4123566,0.920829 0.2284247,0.227885 0.5402631,0.347873 0.9213476,0.411841 0.3810844,0.06397 0.8442174,0.07751 1.4323995,0.07751 h 4.3757443 c 0.5881821,0 1.0510744,-0.01352 1.4313677,-0.07751 0.3802939,-0.064 0.6911799,-0.18439 0.9187599,-0.412357 0.227584,-0.227967 0.347434,-0.539443 0.411325,-0.920313 0.06389,-0.380868 0.07751,-0.844073 0.07751,-1.4334338 v -3.241503 -3.241503 c 0,-0.5893606 -0.01363,-1.0525644 -0.07751,-1.4334338 C 11.235504,1.4261673 11.115654,1.1146922 10.88807,0.88672438 10.66049,0.65875684 10.349604,0.53836359 9.9693101,0.47436694 9.5890168,0.41037003 9.1261245,0.39685604 8.5379424,0.39685604 Z"
     id="path1020"
     inkscape:connector-curvature="0"
     sodipodi:nodetypes="sccsccccccsscccscsccsss" />
  <path
     style="color:#000000;display:inline;overflow:visible;visibility:visible;opacity:0.2;fill:none;fill-opacity:1;fill-rule:nonzero;stroke:#000000;stroke-width:0.52914065;stroke-miterlimit:4;stroke-dasharray:none;stroke-opacity:1;marker:none;enable-background:accumulate"
     d="m 4.1623595,0.39685604 c -2.334616,0 -2.5858176,0.23979331 -2.5743749,2.57913196 V 6.2174029 9.4588178 C 1.5765286,11.798157 1.8277435,12.03795 4.1623595,12.03795 h 4.3757787 c 2.3346158,0 2.5743748,-0.239767 2.5743748,-2.5791322 V 6.2174029 2.975988 c 0,-2.33936511 -0.239759,-2.57913196 -2.5743748,-2.57913196 z"
     id="path958"
     inkscape:connector-curvature="0"
     sodipodi:nodetypes="scccssscsss" />
  <path
     style="color:#000000;display:inline;overflow:visible;visibility:visible;fill:url(#linearGradient1024);fill-opacity:1;fill-rule:nonzero;stroke:none;stroke-width:0.26457033;marker:none;enable-background:accumulate"
     d="m 4.1623595,0.39685604 c -2.334616,0 -2.5858176,0.23979331 -2.5743749,2.57913196 V 6.2174029 9.4588178 C 1.5765286,11.798157 1.8277435,12.03795 4.1623595,12.03795 h 4.3757787 c 2.3346158,0 2.5743748,-0.239767 2.5743748,-2.5791322 V 6.2174029 2.975988 c 0,-2.33936511 -0.239759,-2.57913196 -2.5743748,-2.57913196 z"
     id="path964"
     inkscape:connector-curvature="0"
     sodipodi:nodetypes="scccssscsss" />
  <path
     style="font-style:normal;font-variant:normal;font-weight:normal;font-stretch:normal;font-size:15px;line-height:125%;font-family:Ubuntu;-inkscape-font-specification:Ubuntu;text-align:center;letter-spacing:0px;word-spacing:0px;writing-mode:lr-tb;text-anchor:middle;display:inline;opacity:0.8;fill:#ec3c50;fill-opacity:1;stroke:none;stroke-width:0.08273017;enable-background:new"
     d="m 8.4518697,1.9843345 c -0.080538,-0.00101 -0.1876412,0.011694 -0.330107,0.033078 l -2.284144,0.362528 C 5.2652288,2.5018287 5.267184,2.5397422 5.2652526,3.0233445 V 3.970321 4.4469052 6.9472479 c -0.023758,-0.01675 -0.047451,-0.03354 -0.072127,-0.050081 v 1.72e-4 C 5.0112836,6.7754666 4.8174674,6.688733 4.5571249,6.688733 c -0.3261305,0 -0.5205686,0.1248661 -0.6383288,0.2893352 -0.1177074,0.1644672 -0.1567527,0.3717737 -0.1567527,0.5320247 0,0.1932406 0.065968,0.3994805 0.2091323,0.5566451 0.1430823,0.1571648 0.3631836,0.2672226 0.6795489,0.2672274 0.3573154,0 0.6086255,-0.099767 0.750668,-0.2946112 C 5.5132767,7.885946 5.5751359,7.6809966 5.5972222,7.4281915 v -4.234e-4 -4.233e-4 c 0.00328,-0.030671 0.00513,-0.062173 0.00749,-0.094631 0.00328,-0.04997 0.00275,-0.1434516 0.00275,-0.1434516 V 4.1849404 c 0,-0.4292079 -1.85e-5,-0.4548284 0.5725566,-0.5527109 L 7.779287,3.3677676 c 0.5735938,-0.07505 0.5737155,-0.022449 0.5737155,0.299482 v 0.2651307 2.4921351 c -0.023018,-0.016245 -0.046176,-0.032654 -0.070161,-0.048739 v 1.72e-4 C 8.1009675,6.2540739 7.90722,6.1673412 7.6468696,6.1673412 c -0.3260935,0 -0.5206532,0.1248676 -0.6383632,0.2893354 C 6.8907673,6.6211427 6.8517326,6.82845 6.8517326,6.9887008 c 0,0.1932405 0.066055,0.3994805 0.2091825,0.5566466 0.1431432,0.1571638 0.3631889,0.2673044 0.6795912,0.2673089 0.3572811,0 0.6085964,-0.099849 0.7506786,-0.2946935 0.111855,-0.1534084 0.1736322,-0.358274 0.1956974,-0.6110794 v -4.233e-4 -4.233e-4 c 0.00328,-0.03067 0.00511,-0.062091 0.00749,-0.094547 0.0032,-0.049972 0.00275,-0.1435352 0.00275,-0.1435352 V 3.3454212 2.4882198 c 0,-0.3764428 -0.00275,-0.5011121 -0.2441111,-0.503802 z"
     id="path4393-3"
     inkscape:connector-curvature="0"
     sodipodi:nodetypes="cccccccccccsccccccccsccsccccccssccccccccsc" />
  <path
     style="color:#000000;display:inline;overflow:visible;visibility:visible;opacity:0.2;fill:#ffffff;fill-opacity:1;fill-rule:nonzero;stroke:none;stroke-width:0.26457033;marker:none;enable-background:accumulate"
     d="m 1.5878047,6.2174029 v 3.241503 C 1.5763487,11.798244 1.8275821,12.03795 4.1621981,12.03795 h 4.3757443 c 2.3346166,0 2.5743936,-0.239679 2.5743936,-2.5790441 v -3.241503 z"
     id="path1006"
     inkscape:connector-curvature="0" />
  <path
     style="color:#000000;display:inline;overflow:visible;visibility:visible;opacity:0.1;fill:#ffffff;fill-opacity:1;fill-rule:nonzero;stroke:none;stroke-width:0.26457033;marker:none;enable-background:accumulate"
     d="M 6.3500703,0.39685604 V 12.03795 h 2.1878721 c 2.3346166,0 2.5743936,-0.239679 2.5743936,-2.5790441 v -3.241503 -3.241503 c 0,-2.33936511 -0.239777,-2.57904386 -2.5743936,-2.57904386 z"
     id="path1013"
     inkscape:connector-curvature="0" />
  <g
     aria-label="wma"
     style="font-style:normal;font-weight:normal;font-size:9.81140614px;line-height:1.25;font-family:sans-serif;letter-spacing:0px;word-spacing:0px;display:inline;fill:#000000;fill-opacity:1;stroke:none;stroke-width:1.22642577;enable-background:new"
     id="text951"
     transform="matrix(0.26457031,0,0,0.26457031,-84.662117,-16.813898)">
    <path
       d="m 338.62987,103.09856 q -0.27472,-0.70642 -0.58868,-1.60907 -0.30416,-0.91246 -0.55925,-1.893605 -0.2551,0.981145 -0.55925,1.893605 -0.30416,0.90265 -0.57888,1.60907 h -0.79472 q -0.45133,-1.01058 -0.88303,-2.30568 -0.4317,-1.29511 -0.81434,-2.796255 h 0.98114 q 0.0981,0.461136 0.23547,1.000764 0.13736,0.539627 0.28453,1.079251 0.15698,0.53963 0.32378,1.04001 0.16679,0.50038 0.31396,0.87322 0.1668,-0.46114 0.32378,-0.97133 0.16679,-0.52001 0.31396,-1.040011 0.14717,-0.529816 0.27472,-1.030197 0.13736,-0.510193 0.23548,-0.951707 h 0.75547 q 0.0883,0.441514 0.21586,0.951707 0.12754,0.500381 0.27471,1.030197 0.14718,0.520001 0.30416,1.040011 0.16679,0.51019 0.33359,0.97133 0.14717,-0.37284 0.30415,-0.87322 0.16679,-0.50038 0.32378,-1.04001 0.15698,-0.539624 0.29434,-1.079251 0.13736,-0.539628 0.23547,-1.000764 h 0.9419 q -0.38265,1.501145 -0.81435,2.796255 -0.4317,1.2951 -0.88303,2.30568 z"
       style="font-style:normal;font-variant:normal;font-weight:normal;font-stretch:normal;font-family:ubuntu;-inkscape-font-specification:ubuntu;fill:#888888;fill-opacity:1;stroke-width:1.22642577"
       id="path125"
       inkscape:connector-curvature="0" />
    <path
       d="m 342.08686,98.143796 q 0.31396,-0.07849 0.82416,-0.166793 0.52,-0.0883 1.19699,-0.0883 0.49057,0 0.82416,0.13736 0.33358,0.127548 0.55925,0.382644 0.0687,-0.04906 0.21585,-0.137359 0.14717,-0.0883 0.36302,-0.166794 0.21585,-0.0883 0.48076,-0.147171 0.26491,-0.06868 0.56906,-0.06868 0.58868,0 0.96152,0.176605 0.37283,0.166794 0.57887,0.480759 0.21585,0.313965 0.28453,0.745667 0.0785,0.431702 0.0785,0.941896 v 2.86493 h -0.91246 v -2.66871 q 0,-0.451318 -0.0491,-0.775094 -0.0392,-0.323776 -0.16679,-0.539627 -0.11774,-0.215851 -0.33359,-0.313965 -0.20604,-0.107926 -0.53963,-0.107926 -0.46113,0 -0.76528,0.127548 -0.29435,0.117737 -0.40227,0.215851 0.0785,0.255097 0.11773,0.559251 0.0392,0.304153 0.0392,0.637742 v 2.86493 h -0.91246 v -2.66871 q 0,-0.451318 -0.0491,-0.775094 -0.049,-0.323776 -0.1766,-0.539627 -0.11774,-0.215851 -0.33359,-0.313965 -0.20604,-0.107926 -0.52982,-0.107926 -0.13736,0 -0.29434,0.0098 -0.15698,0.0098 -0.30415,0.02943 -0.13736,0.0098 -0.2551,0.02943 -0.11774,0.01962 -0.15698,0.02943 v 4.307212 h -0.91246 z"
       style="font-style:normal;font-variant:normal;font-weight:normal;font-stretch:normal;font-family:ubuntu;-inkscape-font-specification:ubuntu;fill:#888888;fill-opacity:1;stroke-width:1.22642577"
       id="path127"
       inkscape:connector-curvature="0" />
    <path
       d="m 352.2645,102.44119 q 0.32378,0 0.56907,-0.01 0.25509,-0.0196 0.42189,-0.0589 v -1.52077 q -0.0981,-0.0491 -0.32378,-0.0785 -0.21585,-0.0392 -0.52982,-0.0392 -0.20604,0 -0.44151,0.0294 -0.22566,0.0294 -0.42189,0.12755 -0.18642,0.0883 -0.31396,0.2551 -0.12755,0.15698 -0.12755,0.42189 0,0.49057 0.31396,0.6868 0.31397,0.18641 0.85359,0.18641 z m -0.0785,-4.572113 q 0.54944,0 0.92228,0.147171 0.38264,0.13736 0.6083,0.402268 0.23548,0.255096 0.33359,0.618118 0.0981,0.353211 0.0981,0.784913 v 3.188703 q -0.11773,0.0196 -0.33358,0.0589 -0.20604,0.0294 -0.47095,0.0589 -0.26491,0.0294 -0.57887,0.0491 -0.30416,0.0294 -0.60831,0.0294 -0.4317,0 -0.79472,-0.0883 -0.36303,-0.0883 -0.62793,-0.27472 -0.26491,-0.19623 -0.41208,-0.51019 -0.14717,-0.31397 -0.14717,-0.75548 0,-0.42189 0.16679,-0.72605 0.1766,-0.30415 0.47095,-0.49057 0.29434,-0.18641 0.6868,-0.27472 0.39245,-0.0883 0.82415,-0.0883 0.13736,0 0.28453,0.01962 0.14718,0.01 0.27472,0.0392 0.13736,0.0196 0.23548,0.0393 0.0981,0.0196 0.13736,0.0294 v -0.255096 q 0,-0.225662 -0.0491,-0.441513 -0.0491,-0.225663 -0.17661,-0.392457 -0.12754,-0.176605 -0.35321,-0.274719 -0.21585,-0.107925 -0.56906,-0.107925 -0.45132,0 -0.79472,0.06868 -0.33359,0.05887 -0.50038,0.127549 l -0.10793,-0.755479 q 0.17661,-0.07849 0.58869,-0.147171 0.41207,-0.07849 0.89283,-0.07849 z"
       style="font-style:normal;font-variant:normal;font-weight:normal;font-stretch:normal;font-family:ubuntu;-inkscape-font-specification:ubuntu;fill:#888888;fill-opacity:1;stroke-width:1.22642577"
       id="path129"
       inkscape:connector-curvature="0" />
  </g>
  <path
     transform="matrix(0.26457031,0,0,0.26457031,-84.662117,-16.006503)"
     sodipodi:nodetypes="scccssscsss"
     inkscape:connector-curvature="0"
     id="path990"
     d="m 335.73108,62 c -8.82418,0 -9.77365,0.90635 -9.7304,9.74838 V 84 96.25162 c -0.0433,8.84203 0.90622,9.74838 9.7304,9.74838 h 16.53919 c 8.82418,0 9.7304,-0.90625 9.7304,-9.74838 V 84 71.74838 C 362.00067,62.90625 361.09445,62 352.27027,62 Z"
     style="color:#000000;display:inline;overflow:visible;visibility:visible;opacity:0.4;fill:none;fill-opacity:1;fill-rule:nonzero;stroke:url(#linearGradient1004);stroke-width:2;stroke-miterlimit:4;stroke-dasharray:none;stroke-opacity:1;marker:none;enable-background:accumulate"
     clip-path="url(#clipPath994-9)" />
</svg>
