<?xml version="1.0" encoding="UTF-8" standalone="no"?>
<svg
   xmlns:dc="http://purl.org/dc/elements/1.1/"
   xmlns:cc="http://creativecommons.org/ns#"
   xmlns:rdf="http://www.w3.org/1999/02/22-rdf-syntax-ns#"
   xmlns:svg="http://www.w3.org/2000/svg"
   xmlns="http://www.w3.org/2000/svg"
   xmlns:xlink="http://www.w3.org/1999/xlink"
   xmlns:sodipodi="http://sodipodi.sourceforge.net/DTD/sodipodi-0.dtd"
   xmlns:inkscape="http://www.inkscape.org/namespaces/inkscape"
   height="48"
   viewBox="0 0 12.699375 12.699375"
   width="48"
   version="1.1"
   id="svg47"
   sodipodi:docname="audio-x-wav.svg"
   inkscape:version="0.92.5 (2060ec1f9f, 2020-04-08)">
  <metadata
     id="metadata53">
    <rdf:RDF>
      <cc:Work
         rdf:about="">
        <dc:format>image/svg+xml</dc:format>
        <dc:type
           rdf:resource="http://purl.org/dc/dcmitype/StillImage" />
        <dc:title></dc:title>
      </cc:Work>
    </rdf:RDF>
  </metadata>
  <defs
     id="defs51">
    <clipPath
       clipPathUnits="userSpaceOnUse"
       id="clipPath994">
      <path
         style="color:#000000;display:inline;overflow:visible;visibility:visible;fill:#cdcdcd;fill-opacity:1;fill-rule:nonzero;stroke:none;stroke-width:2;stroke-miterlimit:4;stroke-dasharray:none;stroke-opacity:1;marker:none;enable-background:accumulate"
         d="m 335.73108,62 c -8.82418,0 -9.77365,0.90635 -9.7304,9.74838 V 84 96.25162 c -0.0433,8.84203 0.90622,9.74838 9.7304,9.74838 h 16.53919 c 8.82418,0 9.7304,-0.90625 9.7304,-9.74838 V 84 71.74838 C 362.00067,62.90625 361.09445,62 352.27027,62 Z"
         id="path996"
         inkscape:connector-curvature="0"
         sodipodi:nodetypes="scccssscsss" />
    </clipPath>
    <clipPath
       clipPathUnits="userSpaceOnUse"
       id="clipPath994-3">
      <path
         style="color:#000000;display:inline;overflow:visible;visibility:visible;fill:#cdcdcd;fill-opacity:1;fill-rule:nonzero;stroke:none;stroke-width:2;stroke-miterlimit:4;stroke-dasharray:none;stroke-opacity:1;marker:none;enable-background:accumulate"
         d="m 335.73108,62 c -8.82418,0 -9.77365,0.90635 -9.7304,9.74838 V 84 96.25162 c -0.0433,8.84203 0.90622,9.74838 9.7304,9.74838 h 16.53919 c 8.82418,0 9.7304,-0.90625 9.7304,-9.74838 V 84 71.74838 C 362.00067,62.90625 361.09445,62 352.27027,62 Z"
         id="path996-6"
         inkscape:connector-curvature="0"
         sodipodi:nodetypes="scccssscsss" />
    </clipPath>
    <clipPath
       clipPathUnits="userSpaceOnUse"
       id="clipPath994-7">
      <path
         style="color:#000000;display:inline;overflow:visible;visibility:visible;fill:#cdcdcd;fill-opacity:1;fill-rule:nonzero;stroke:none;stroke-width:2;stroke-miterlimit:4;stroke-dasharray:none;stroke-opacity:1;marker:none;enable-background:accumulate"
         d="m 335.73108,62 c -8.82418,0 -9.77365,0.90635 -9.7304,9.74838 V 84 96.25162 c -0.0433,8.84203 0.90622,9.74838 9.7304,9.74838 h 16.53919 c 8.82418,0 9.7304,-0.90625 9.7304,-9.74838 V 84 71.74838 C 362.00067,62.90625 361.09445,62 352.27027,62 Z"
         id="path996-5"
         inkscape:connector-curvature="0"
         sodipodi:nodetypes="scccssscsss" />
    </clipPath>
    <clipPath
       clipPathUnits="userSpaceOnUse"
       id="clipPath994-35">
      <path
         style="color:#000000;display:inline;overflow:visible;visibility:visible;fill:#cdcdcd;fill-opacity:1;fill-rule:nonzero;stroke:none;stroke-width:2;stroke-miterlimit:4;stroke-dasharray:none;stroke-opacity:1;marker:none;enable-background:accumulate"
         d="m 335.73108,62 c -8.82418,0 -9.77365,0.90635 -9.7304,9.74838 V 84 96.25162 c -0.0433,8.84203 0.90622,9.74838 9.7304,9.74838 h 16.53919 c 8.82418,0 9.7304,-0.90625 9.7304,-9.74838 V 84 71.74838 C 362.00067,62.90625 361.09445,62 352.27027,62 Z"
         id="path996-62"
         inkscape:connector-curvature="0"
         sodipodi:nodetypes="scccssscsss" />
    </clipPath>
    <clipPath
       clipPathUnits="userSpaceOnUse"
       id="clipPath994-9">
      <path
         style="color:#000000;display:inline;overflow:visible;visibility:visible;fill:#cdcdcd;fill-opacity:1;fill-rule:nonzero;stroke:none;stroke-width:2;stroke-miterlimit:4;stroke-dasharray:none;stroke-opacity:1;marker:none;enable-background:accumulate"
         d="m 335.73108,62 c -8.82418,0 -9.77365,0.90635 -9.7304,9.74838 V 84 96.25162 c -0.0433,8.84203 0.90622,9.74838 9.7304,9.74838 h 16.53919 c 8.82418,0 9.7304,-0.90625 9.7304,-9.74838 V 84 71.74838 C 362.00067,62.90625 361.09445,62 352.27027,62 Z"
         id="path996-1"
         inkscape:connector-curvature="0"
         sodipodi:nodetypes="scccssscsss" />
    </clipPath>
    <clipPath
       clipPathUnits="userSpaceOnUse"
       id="clipPath994-2">
      <path
         style="color:#000000;display:inline;overflow:visible;visibility:visible;fill:#cdcdcd;fill-opacity:1;fill-rule:nonzero;stroke:none;stroke-width:2;stroke-miterlimit:4;stroke-dasharray:none;stroke-opacity:1;marker:none;enable-background:accumulate"
         d="m 335.73108,62 c -8.82418,0 -9.77365,0.90635 -9.7304,9.74838 V 84 96.25162 c -0.0433,8.84203 0.90622,9.74838 9.7304,9.74838 h 16.53919 c 8.82418,0 9.7304,-0.90625 9.7304,-9.74838 V 84 71.74838 C 362.00067,62.90625 361.09445,62 352.27027,62 Z"
         id="path996-7"
         inkscape:connector-curvature="0"
         sodipodi:nodetypes="scccssscsss" />
    </clipPath>
    <linearGradient
       inkscape:collect="always"
       xlink:href="#linearGradient927"
       id="linearGradient1004"
       x1="344"
       y1="62"
       x2="344"
       y2="106"
       gradientUnits="userSpaceOnUse" />
    <linearGradient
       inkscape:collect="always"
       id="linearGradient927">
      <stop
         style="stop-color:#ffffff;stop-opacity:1;"
         offset="0"
         id="stop923" />
      <stop
         id="stop933"
         offset="0.125"
         style="stop-color:#ffffff;stop-opacity:0.09803922" />
      <stop
         id="stop931"
         offset="0.92500001"
         style="stop-color:#ffffff;stop-opacity:0.09803922" />
      <stop
         style="stop-color:#ffffff;stop-opacity:0.49803922"
         offset="1"
         id="stop925" />
    </linearGradient>
    <clipPath
       clipPathUnits="userSpaceOnUse"
       id="clipPath994-0">
      <path
         style="color:#000000;display:inline;overflow:visible;visibility:visible;fill:#cdcdcd;fill-opacity:1;fill-rule:nonzero;stroke:none;stroke-width:2;stroke-miterlimit:4;stroke-dasharray:none;stroke-opacity:1;marker:none;enable-background:accumulate"
         d="m 335.73108,62 c -8.82418,0 -9.77365,0.90635 -9.7304,9.74838 V 84 96.25162 c -0.0433,8.84203 0.90622,9.74838 9.7304,9.74838 h 16.53919 c 8.82418,0 9.7304,-0.90625 9.7304,-9.74838 V 84 71.74838 C 362.00067,62.90625 361.09445,62 352.27027,62 Z"
         id="path996-9"
         inkscape:connector-curvature="0"
         sodipodi:nodetypes="scccssscsss" />
    </clipPath>
    <linearGradient
       inkscape:collect="always"
       xlink:href="#linearGradient4338"
       id="linearGradient1024"
       gradientUnits="userSpaceOnUse"
       gradientTransform="matrix(0,-0.02997086,0.02997,0,-3.0395088,13.625372)"
       x1="459.03448"
       y1="419.23337"
       x2="35.310345"
       y2="207.36522" />
    <linearGradient
       inkscape:collect="always"
       id="linearGradient4338">
      <stop
         style="stop-color:#f2f2f2;stop-opacity:1"
         offset="0"
         id="stop4340" />
      <stop
         style="stop-color:#f9f9f9;stop-opacity:1"
         offset="1"
         id="stop4342" />
    </linearGradient>
  </defs>
  <sodipodi:namedview
     pagecolor="#ffffff"
     bordercolor="#666666"
     borderopacity="1"
     objecttolerance="10"
     gridtolerance="10"
     guidetolerance="10"
     inkscape:pageopacity="0"
     inkscape:pageshadow="2"
     inkscape:window-width="795"
     inkscape:window-height="668"
     id="namedview49"
     showgrid="false"
     inkscape:zoom="7.2708333"
     inkscape:cx="24"
     inkscape:cy="24"
     inkscape:window-x="0"
     inkscape:window-y="27"
     inkscape:window-maximized="0"
     inkscape:current-layer="svg47" />
  <linearGradient
     id="a"
     gradientTransform="matrix(0,-0.11988932,-0.11988589,0,67.016455,292.54831)"
     gradientUnits="userSpaceOnUse"
     x1="529.65503"
     x2="-35.310001"
     y1="401.58401"
     y2="119.093">
    <stop
       offset="0"
       stop-color="#76c22b"
       id="stop2" />
    <stop
       offset="1"
       stop-color="#a6d74f"
       id="stop4" />
  </linearGradient>
  <linearGradient
     id="b"
     gradientUnits="userSpaceOnUse"
     x1="88"
     x2="488"
     y1="88"
     y2="488">
    <stop
       offset="0"
       stop-opacity=".588235"
       id="stop7" />
    <stop
       offset=".88"
       stop-opacity="0"
       id="stop9" />
    <stop
       offset="1"
       id="stop11" />
  </linearGradient>
  <filter
     id="c"
     height="1.022"
     width="1.026"
     x="-0.0099999998"
     y="-0.0099999998"
     style="color-interpolation-filters:sRGB">
    <feGaussianBlur
       stdDeviation="2.12"
       id="feGaussianBlur14" />
  </filter>
  <path
     style="color:#000000;font-style:normal;font-variant:normal;font-weight:normal;font-stretch:normal;font-size:medium;line-height:normal;font-family:sans-serif;font-variant-ligatures:normal;font-variant-position:normal;font-variant-caps:normal;font-variant-numeric:normal;font-variant-alternates:normal;font-feature-settings:normal;text-indent:0;text-align:start;text-decoration:none;text-decoration-line:none;text-decoration-style:solid;text-decoration-color:#000000;letter-spacing:normal;word-spacing:normal;text-transform:none;writing-mode:lr-tb;direction:ltr;text-orientation:mixed;dominant-baseline:auto;baseline-shift:baseline;text-anchor:start;white-space:normal;shape-padding:0;clip-rule:nonzero;display:inline;overflow:visible;visibility:visible;opacity:0.1;isolation:auto;mix-blend-mode:normal;color-interpolation:sRGB;color-interpolation-filters:linearRGB;solid-color:#000000;solid-opacity:1;vector-effect:none;fill:#000000;fill-opacity:1;fill-rule:nonzero;stroke:none;stroke-width:0.52914065;stroke-linecap:butt;stroke-linejoin:miter;stroke-miterlimit:4;stroke-dasharray:none;stroke-dashoffset:0;stroke-opacity:1;marker:none;color-rendering:auto;image-rendering:auto;shape-rendering:auto;text-rendering:auto;enable-background:accumulate"
     d="m 4.1621982,0.39685603 c -0.5881821,0 -1.0513178,0.0135407 -1.4323995,0.0775109 C 2.3487142,0.5383358 2.0368758,0.65832241 1.808451,0.88620766 1.580029,1.1140932 1.4594669,1.4257911 1.3960944,1.8070364 1.3327219,2.188282 1.3203506,2.6524288 1.3232344,3.2420203 v 3.2399529 3.241503 c -0.00286,0.5886858 0.00955,1.0525978 0.07286,1.4334338 0.063373,0.381246 0.1839345,0.692944 0.4123566,0.920829 0.2284247,0.227885 0.5402631,0.347873 0.9213476,0.411841 0.3810844,0.06397 0.8442174,0.07751 1.4323995,0.07751 h 4.3757443 c 0.5881821,0 1.0510744,-0.01352 1.4313677,-0.07751 0.3802939,-0.064 0.6911799,-0.18439 0.9187599,-0.412357 0.227584,-0.227967 0.347434,-0.539443 0.411325,-0.920313 0.06389,-0.380868 0.07751,-0.844073 0.07751,-1.4334338 v -3.241503 -3.241503 c 0,-0.5893606 -0.01363,-1.0525644 -0.07751,-1.4334338 C 11.235504,1.4261673 11.115654,1.1146922 10.88807,0.88672437 10.66049,0.65875683 10.349604,0.53836358 9.9693102,0.47436693 9.5890169,0.41037002 9.1261246,0.39685603 8.5379425,0.39685603 Z"
     id="path1020"
     inkscape:connector-curvature="0"
     sodipodi:nodetypes="sccsccccccsscccscsccsss" />
  <path
     style="color:#000000;display:inline;overflow:visible;visibility:visible;opacity:0.2;fill:none;fill-opacity:1;fill-rule:nonzero;stroke:#000000;stroke-width:0.52914065;stroke-miterlimit:4;stroke-dasharray:none;stroke-opacity:1;marker:none;enable-background:accumulate"
     d="m 4.1623596,0.39685603 c -2.3346161,0 -2.5858177,0.23979331 -2.574375,2.57913197 V 6.2174029 9.4588178 C 1.5765286,11.798157 1.8277435,12.03795 4.1623596,12.03795 h 4.3757787 c 2.3346157,0 2.5743747,-0.239767 2.5743747,-2.5791322 V 6.2174029 2.975988 c 0,-2.33936512 -0.239759,-2.57913197 -2.5743747,-2.57913197 z"
     id="path958"
     inkscape:connector-curvature="0"
     sodipodi:nodetypes="scccssscsss" />
  <path
     style="color:#000000;display:inline;overflow:visible;visibility:visible;fill:url(#linearGradient1024);fill-opacity:1;fill-rule:nonzero;stroke:none;stroke-width:0.26457033;marker:none;enable-background:accumulate"
     d="m 4.1623596,0.39685603 c -2.3346161,0 -2.5858177,0.23979331 -2.574375,2.57913197 V 6.2174029 9.4588178 C 1.5765286,11.798157 1.8277435,12.03795 4.1623596,12.03795 h 4.3757787 c 2.3346157,0 2.5743747,-0.239767 2.5743747,-2.5791322 V 6.2174029 2.975988 c 0,-2.33936512 -0.239759,-2.57913197 -2.5743747,-2.57913197 z"
     id="path964"
     inkscape:connector-curvature="0"
     sodipodi:nodetypes="scccssscsss" />
  <path
     style="font-style:normal;font-variant:normal;font-weight:normal;font-stretch:normal;font-size:15px;line-height:125%;font-family:Ubuntu;-inkscape-font-specification:Ubuntu;text-align:center;letter-spacing:0px;word-spacing:0px;writing-mode:lr-tb;text-anchor:middle;display:inline;opacity:0.8;fill:#ec3c50;fill-opacity:1;stroke:none;stroke-width:0.08273017;enable-background:new"
     d="m 8.4518698,1.9843345 c -0.080538,-0.00101 -0.1876412,0.011694 -0.330107,0.033078 l -2.284144,0.362528 C 5.2652289,2.5018287 5.2671841,2.5397422 5.2652527,3.0233445 V 3.970321 4.4469052 6.9472479 c -0.023758,-0.01675 -0.047451,-0.03354 -0.072127,-0.050081 v 1.72e-4 C 5.0112837,6.7754666 4.8174675,6.688733 4.557125,6.688733 c -0.3261305,0 -0.5205686,0.1248661 -0.6383288,0.2893352 -0.1177074,0.1644672 -0.1567527,0.3717737 -0.1567527,0.5320247 0,0.1932406 0.065968,0.3994805 0.2091323,0.5566451 0.1430823,0.1571648 0.3631836,0.2672226 0.6795489,0.2672274 0.3573154,0 0.6086255,-0.099767 0.750668,-0.2946112 C 5.5132768,7.885946 5.575136,7.6809966 5.5972223,7.4281915 v -4.234e-4 -4.233e-4 c 0.00328,-0.030671 0.00513,-0.062173 0.00749,-0.094631 0.00328,-0.04997 0.00275,-0.1434516 0.00275,-0.1434516 V 4.1849404 c 0,-0.4292079 -1.85e-5,-0.4548284 0.5725566,-0.5527109 L 7.7792871,3.3677676 c 0.5735938,-0.07505 0.5737155,-0.022449 0.5737155,0.299482 v 0.2651307 2.4921351 c -0.023018,-0.016245 -0.046176,-0.032654 -0.070161,-0.048739 v 1.72e-4 C 8.1009676,6.2540739 7.9072201,6.1673412 7.6468697,6.1673412 c -0.3260935,0 -0.5206532,0.1248676 -0.6383632,0.2893354 C 6.8907674,6.6211427 6.8517327,6.82845 6.8517327,6.9887008 c 0,0.1932405 0.066055,0.3994805 0.2091825,0.5566466 0.1431432,0.1571638 0.3631889,0.2673044 0.6795912,0.2673089 0.3572811,0 0.6085964,-0.099849 0.7506786,-0.2946935 C 8.60304,7.3645544 8.6648172,7.1596888 8.6868824,6.9068834 v -4.233e-4 -4.233e-4 c 0.00328,-0.03067 0.00511,-0.062091 0.00749,-0.094547 0.0032,-0.049972 0.00275,-0.1435352 0.00275,-0.1435352 V 3.3454212 2.4882198 c 0,-0.3764428 -0.00275,-0.5011121 -0.2441111,-0.503802 z"
     id="path4393-3"
     inkscape:connector-curvature="0"
     sodipodi:nodetypes="cccccccccccsccccccccsccsccccccssccccccccsc" />
  <path
     style="color:#000000;display:inline;overflow:visible;visibility:visible;opacity:0.2;fill:#ffffff;fill-opacity:1;fill-rule:nonzero;stroke:none;stroke-width:0.26457033;marker:none;enable-background:accumulate"
     d="m 1.5878047,6.2174029 v 3.241503 C 1.5763487,11.798244 1.8275821,12.03795 4.1621982,12.03795 h 4.3757443 c 2.3346165,0 2.5743935,-0.239679 2.5743935,-2.5790441 v -3.241503 z"
     id="path1006"
     inkscape:connector-curvature="0" />
  <path
     style="color:#000000;display:inline;overflow:visible;visibility:visible;opacity:0.1;fill:#ffffff;fill-opacity:1;fill-rule:nonzero;stroke:none;stroke-width:0.26457033;marker:none;enable-background:accumulate"
     d="M 6.3500704,0.39685603 V 12.03795 h 2.1878721 c 2.3346165,0 2.5743935,-0.239679 2.5743935,-2.5790441 v -3.241503 -3.241503 c 0,-2.33936512 -0.239777,-2.57904387 -2.5743935,-2.57904387 z"
     id="path1013"
     inkscape:connector-curvature="0" />
  <g
     aria-label="wav"
     style="font-style:normal;font-weight:normal;font-size:9.40573502px;line-height:1.25;font-family:sans-serif;letter-spacing:0px;word-spacing:0px;display:inline;fill:#000000;fill-opacity:1;stroke:none;stroke-width:1.17571688;enable-background:new"
     id="text951"
     transform="matrix(0.26457031,0,0,0.26457031,-84.662117,-16.873972)">
    <path
       d="m 340.34493,103.42776 q -0.26336,-0.67722 -0.56435,-1.54254 -0.29157,-0.87474 -0.53612,-1.81531 -0.24455,0.94057 -0.53613,1.81531 -0.29158,0.86532 -0.55494,1.54254 h -0.76186 q -0.43267,-0.96879 -0.84652,-2.21035 -0.41385,-1.241557 -0.78068,-2.680635 h 0.94058 q 0.0941,0.44207 0.22574,0.959385 0.13168,0.51732 0.27276,1.03463 0.15049,0.51732 0.31039,0.99701 0.1599,0.47969 0.30099,0.83711 0.15989,-0.44207 0.31038,-0.93117 0.1599,-0.4985 0.30099,-0.99701 0.14108,-0.507906 0.26336,-0.987599 0.13168,-0.489098 0.22574,-0.912356 h 0.72424 q 0.0847,0.423258 0.20692,0.912356 0.12228,0.479693 0.26336,0.987599 0.14109,0.49851 0.29158,0.99701 0.1599,0.4891 0.3198,0.93117 0.14108,-0.35742 0.29158,-0.83711 0.15989,-0.47969 0.31038,-0.99701 0.1505,-0.51731 0.28218,-1.03463 0.13168,-0.517315 0.22573,-0.959385 h 0.90295 q -0.36682,1.439078 -0.78067,2.680635 -0.41385,1.24156 -0.84652,2.21035 z"
       style="font-style:normal;font-variant:normal;font-weight:normal;font-stretch:normal;font-family:ubuntu;-inkscape-font-specification:ubuntu;fill:#888888;fill-opacity:1;stroke-width:1.17571688"
       id="path119"
       inkscape:connector-curvature="0" />
    <path
       d="m 345.31439,102.79757 q 0.31039,0 0.54553,-0.009 0.24455,-0.0188 0.40445,-0.0564 v -1.45789 q -0.0941,-0.047 -0.31039,-0.0752 -0.20693,-0.0376 -0.50791,-0.0376 -0.19752,0 -0.42326,0.0282 -0.21633,0.0282 -0.40445,0.12228 -0.1787,0.0846 -0.30098,0.24455 -0.12227,0.15049 -0.12227,0.40444 0,0.47029 0.30098,0.6584 0.30098,0.17871 0.8183,0.17871 z m -0.0752,-4.38307 q 0.52672,0 0.88414,0.141087 0.36683,0.13168 0.58316,0.385635 0.22574,0.244549 0.31979,0.592561 0.0941,0.338606 0.0941,0.752457 v 3.05687 q -0.11287,0.0188 -0.31979,0.0564 -0.19753,0.0282 -0.45148,0.0564 -0.25395,0.0282 -0.55494,0.047 -0.29158,0.0282 -0.58315,0.0282 -0.41386,0 -0.76187,-0.0847 -0.34801,-0.0846 -0.60197,-0.26336 -0.25395,-0.18812 -0.39504,-0.4891 -0.14108,-0.30098 -0.14108,-0.72424 0,-0.40445 0.15989,-0.69603 0.16931,-0.29157 0.45148,-0.47028 0.28217,-0.17871 0.6584,-0.26336 0.37623,-0.0847 0.79008,-0.0847 0.13168,0 0.27277,0.0188 0.14109,0.009 0.26336,0.0376 0.13168,0.0188 0.22574,0.0376 0.0941,0.0188 0.13168,0.0282 v -0.24455 q 0,-0.21633 -0.047,-0.423258 -0.047,-0.216332 -0.1693,-0.376229 -0.12228,-0.169303 -0.33861,-0.263361 -0.20693,-0.103463 -0.54553,-0.103463 -0.43267,0 -0.76187,0.06584 -0.31979,0.05643 -0.47969,0.122275 L 343.819,98.630552 q 0.1693,-0.07524 0.56434,-0.141086 0.39504,-0.07525 0.85592,-0.07525 z"
       style="font-style:normal;font-variant:normal;font-weight:normal;font-stretch:normal;font-family:ubuntu;-inkscape-font-specification:ubuntu;fill:#888888;fill-opacity:1;stroke-width:1.17571688"
       id="path121"
       inkscape:connector-curvature="0" />
    <path
       d="m 352.23569,98.536775 q -0.36683,1.373237 -0.86533,2.633605 -0.4891,1.26037 -0.94998,2.25738 h -0.79008 q -0.46088,-0.99701 -0.95939,-2.25738 -0.48909,-1.260368 -0.85592,-2.633605 h 0.94058 q 0.11286,0.460881 0.26336,0.987602 0.15989,0.517313 0.3292,1.034633 0.17871,0.50791 0.35741,0.9876 0.17871,0.47969 0.33861,0.85592 0.1599,-0.37623 0.33861,-0.85592 0.17871,-0.47969 0.34801,-0.9876 0.17871,-0.51732 0.3292,-1.034633 0.1599,-0.526721 0.27277,-0.987602 z"
       style="font-style:normal;font-variant:normal;font-weight:normal;font-stretch:normal;font-family:ubuntu;-inkscape-font-specification:ubuntu;fill:#888888;fill-opacity:1;stroke-width:1.17571688"
       id="path123"
       inkscape:connector-curvature="0" />
  </g>
  <path
     transform="matrix(0.26457031,0,0,0.26457031,-84.662117,-16.006503)"
     sodipodi:nodetypes="scccssscsss"
     inkscape:connector-curvature="0"
     id="path990"
     d="m 335.73108,62 c -8.82418,0 -9.77365,0.90635 -9.7304,9.74838 V 84 96.25162 c -0.0433,8.84203 0.90622,9.74838 9.7304,9.74838 h 16.53919 c 8.82418,0 9.7304,-0.90625 9.7304,-9.74838 V 84 71.74838 C 362.00067,62.90625 361.09445,62 352.27027,62 Z"
     style="color:#000000;display:inline;overflow:visible;visibility:visible;opacity:0.4;fill:none;fill-opacity:1;fill-rule:nonzero;stroke:url(#linearGradient1004);stroke-width:2;stroke-miterlimit:4;stroke-dasharray:none;stroke-opacity:1;marker:none;enable-background:accumulate"
     clip-path="url(#clipPath994-0)" />
</svg>
