<svg id="svg55" height="256" viewBox="0 0 67.73 67.73" width="256" xmlns="http://www.w3.org/2000/svg" xmlns:xlink="http://www.w3.org/1999/xlink">
  <linearGradient id="linearGradient4226" gradientTransform="matrix(-.11988342 0 0 -.11987999 63.186066 64.761748)" gradientUnits="userSpaceOnUse" x1="529.65515" x2="-35.310345" y1="401.58368" y2="119.09284">
    <stop id="stop4340" offset="0" stop-color="#f2f2f2"/>
    <stop id="stop4342" offset="1" stop-color="#f9f9f9"/>
  </linearGradient>
  <linearGradient id="linearGradient4358" gradientUnits="userSpaceOnUse" x1="88" x2="488" y1="88" y2="488">
    <stop id="stop4362" offset="0" stop-opacity=".588235"/>
    <stop id="stop4364" offset=".88" stop-opacity="0"/>
    <stop id="stop4366" offset="1"/>
  </linearGradient>
  <filter id="filter4380" color-interpolation-filters="sRGB" height="1.087725" width="1.105998" x="-.052999" y="-.043863">
    <feGaussianBlur id="feGaussianBlur4382" stdDeviation="8.4801079"/>
  </filter>
  <filter id="filter4346" color-interpolation-filters="sRGB" height="1.021931" width="1.0265" x="-.01325" y="-.010966">
    <feGaussianBlur id="feGaussianBlur4348" stdDeviation="2.120027"/>
  </filter>
  <path id="rect4158-9" d="m189.84323 74c-70.59344 0-78.18921 7.250835-77.84323 77.98706v146.01294 146.01294c-.34598 70.73623 7.24979 77.98706 77.84323 77.98706h228.31354c70.59344 0 75.90613-7.27652 77.84323-77.98706v-146.01294-146.01294c0-70.737067-7.24979-77.98706-77.84323-77.98706z" filter="url(#filter4346)" opacity=".1" transform="matrix(0 -.13228516 .13228516 0 -5.866787 74.031657)"/>
  <path id="path4350" d="m189.84323 74c-70.59344 0-78.18921 7.250835-77.84323 77.98706v146.01294 146.01294c-.34598 70.73623 7.24979 77.98706 77.84323 77.98706h228.31354c70.59344 0 77.84323-7.24999 77.84323-77.98706v-146.01294-146.01294c0-70.737067-7.24979-77.98706-77.84323-77.98706z" fill="url(#linearGradient4358)" filter="url(#filter4380)" opacity=".3" transform="matrix(0 .13228516 .13228516 0 -5.866787 -6.39629)"/>
  <path id="path1163" d="m3.9223154 48.653644c0 9.338467.9591779 10.343274 10.3165306 10.297506h19.315345 19.315345c9.357354.04577 10.31653-.959039 10.31653-10.297506v-30.202488c0-9.3384628-.962575-10.5537538-10.31653-10.2975038h-19.315345-19.315345c-9.3574641 0-10.3165306.959041-10.3165306 10.2975038z" fill="none" opacity=".2" stroke="#000" stroke-width="1.058281"/>
  <path id="rect4158" d="m3.9223148 48.653644c0 9.338467.9591785 10.343274 10.3165312 10.297506h19.315345 19.315345c9.357354.04577 10.31653-.959039 10.31653-10.297506v-30.202488c0-9.3384628-.959067-10.2975038-10.31653-10.2975038h-19.315345-19.315345c-9.3574638 0-10.3165312.959041-10.3165312 10.2975038z" fill="url(#linearGradient4226)"/>
  <path id="path1056" d="m3.9225125 48.126184v.52914c0 9.338465.9587112 10.297056 10.3161755 10.297056h19.315702 19.315183c9.357463 0 10.316692-.958591 10.316692-10.297056v-.52914c0 9.338464-.959229 10.297055-10.316692 10.297055h-19.315183-19.315702c-9.3574643 0-10.3161755-.958591-10.3161755-10.297055z" opacity=".2"/>
  <path id="path923" d="m14.238688 8.1548822c-9.357355-.045768-10.3161755.959106-10.3161755 10.2975728v.529141c0-9.3384668.9588205-10.3433408 10.3161755-10.2975728h19.315702 19.315183c9.357352-.04577 10.316692.959106 10.316692 10.2975728v-.529141c0-9.3384668-.95934-10.3433408-10.316692-10.2975728h-19.315183z" fill="#fff" opacity=".2"/>
  <g id="g1100" enable-background="new" stroke-width="4" transform="matrix(.26457031 0 0 .26457031 -6.659784 -7.719724)">
    <path id="path1063" d="m113.55083 134.64325 76.85614 42.40822" fill="none" stroke="#f34f17"/>
    <path id="path1057" d="m120 212c52 24 76-32 32-56s-20-80 32-56" fill="#8f76e4" fill-opacity=".25098" fill-rule="evenodd" stroke="#8c59d9"/>
    <g stroke-dashoffset="1">
      <circle id="path1059" cx="108" cy="132" fill="none" r="6" stroke="#f34f17" stroke-linejoin="round"/>
      <circle id="circle1061" cx="196" cy="180" fill="none" r="6" stroke="#f34f17" stroke-linejoin="round"/>
      <path id="rect1051" d="m178 94h12v12h-12z" fill="#fff" stroke="#8f76e4"/>
      <path id="rect1053" d="m146 150h12v12h-12z" fill="#fff" stroke="#8f76e4"/>
      <path id="rect1055" d="m114 206h12v12h-12z" fill="#fff" stroke="#8f76e4"/>
    </g>
  </g>
  <g fill="#fff">
    <path id="path4231" d="m3.9223148 33.553828h59.2637512v15.101176c0 9.338465-.962123 10.054627-10.316435 10.297574h-19.31544-19.315442c-9.3574644 0-10.3164342-.959109-10.3164342-10.297574z" opacity=".1"/>
    <path id="path4255" d="m33.554191 8.1550802h19.31544c9.357355-.04577 10.316435.959108 10.316435 10.2975738v30.20235c0 9.338465-.962123 10.054627-10.316435 10.297574h-19.31544z" opacity=".1"/>
    <path id="path4254" d="m47.311847 58.580656 15.874219-15.874219v5.948567c-.01384 8.994282-1.006076 9.925652-10.099733 9.925652z" opacity=".1"/>
  </g>
</svg>
