<svg height="48" viewBox="0 0 12.7 12.7" width="48" xmlns="http://www.w3.org/2000/svg" xmlns:xlink="http://www.w3.org/1999/xlink"><linearGradient id="a" gradientUnits="userSpaceOnUse" x1="6.48304752" x2="6.48304752" y1="284.69680313" y2="296.86763631"><stop offset="0" stop-color="#fff"/><stop offset=".125" stop-color="#fff" stop-opacity=".098039"/><stop offset=".92500001" stop-color="#fff" stop-opacity=".098039"/><stop offset="1" stop-opacity=".498039"/></linearGradient><linearGradient id="b" gradientTransform="matrix(.39686177 0 0 .40569885 -130.69955 -186.87859)" gradientUnits="userSpaceOnUse" x1="345" x2="345" y1="1173" y2="1178"><stop offset="0" stop-color="#666"/><stop offset="1" stop-color="#333"/></linearGradient><linearGradient id="c" gradientTransform="matrix(.396875 0 0 .35277954 -81.88816 494.11961)" gradientUnits="userSpaceOnUse" x1="230" x2="230" y1="-581.63782" y2="-578.63782"><stop offset="0" stop-color="#63bbee"/><stop offset="1" stop-color="#aadcf7"/></linearGradient><linearGradient id="d" gradientTransform="matrix(.41156202 0 0 .44097574 -82.944112 632.90825)" gradientUnits="userSpaceOnUse" x1="217.28629" x2="217.28629" xlink:href="#e" y1="-787.83856" y2="-763.83875"/><linearGradient id="e"><stop offset="0" stop-color="#0369a3"/><stop offset="1" stop-color="#047fc6"/></linearGradient><linearGradient id="f" gradientUnits="userSpaceOnUse" x1="8.59933916" x2="3.30767256" y1="284.4322198" y2="297.13221964"><stop offset="0" stop-color="#f2f2f2"/><stop offset="1" stop-color="#fff"/></linearGradient><linearGradient id="g" gradientTransform="matrix(0 -.02997233 -.02997147 0 15.872352 298.19055)" gradientUnits="userSpaceOnUse" x1="512" x2="-.000001" xlink:href="#e" y1="397.99393" y2="125.99394"/><g transform="translate(0 -284.29999)"><path d="m4.2946938 284.6968c-.5881263 0-1.0516446.0141-1.43247.078-.3812936.064-.692859.18387-.9213929.41186-.2285735.22804-.3489748.53893-.4123769.92036-.063317.38092-.075748.84496-.072864 1.43454v3.24063 3.24166c-.00286.58896.00958 1.05285.072864 1.4335.063402.38143.1838007.69232.4123769.92036.2285365.228.5400966.34786.9213929.41186.3808254.0639.8443437.078 1.43247.078h4.3759596c.5881211 0 1.0508849-.0141 1.4309196-.078.38046-.064.691512-.18366.919324-.41186.227734-.22812.347421-.53928.411345-.92036.06386-.38071.07752-.84426.07752-1.4335v-3.24166-3.24167c0-.58923-.01365-1.05279-.07752-1.4335-.06392-.38107-.183611-.69224-.411345-.92036-.227812-.2282-.538864-.34783-.919324-.41186-.3800347-.0639-.8427985-.078-1.4309196-.078z" fill="url(#g)"/><path d="m4.2946938 285.49055c-.5750665 0-1.0069565.0173-1.3012128.0667-.2919227.049-.4195048.11892-.491961.19121-.072242.0721-.1412716.19781-.1896506.48885-.048797.29362-.065334.72512-.062529 1.3007v.002 3.24269 3.24321.002c-.0028.57528.013732 1.00673.062529 1.30018.048379.29105.1174115.41679.1896506.48886.072461.0723.2000356.1422.491961.1912.2942563.0494.7261463.0667 1.3012128.0667h4.3759596c.5750745 0 1.0065019-.0173 1.2996629-.0667.2910357-.049.4174667-.11866.4888597-.19017.07178-.0719.141753-.19922.190685-.49092.04924-.29353.06615-.72565.06615-1.30225v-3.24167-2.64584l-2.6458332-2.64583z" fill="url(#f)"/><path d="m3.3076737 288.66555v.52917h2.1166665v-.52917zm2.6458332 0v2.64583h3.7041664v-2.64583zm-2.6458332 1.05833v.52917h2.1166665v-.52917zm0 1.05834v.52916h2.1166665v-.52916zm0 1.05833v.52917h6.3499996v-.52917zm0 1.05833v.52917h6.3499996v-.52917zm0 1.05834v.52916h4.7624999v-.52916z" fill="url(#d)"/><path d="m6.218091 288.93015h3.174999v2.116673h-3.174999z" fill="url(#c)"/><path d="m8.0701736 290.51763-.9260417-1.19062-.9260417 1.45521v.26458h3.1749021v-.26458l-.6613604-.79375z" fill="url(#b)"/><path d="m289.7239-9.3930893a.79375052.79374999 0 0 1 -.79375.79375v-.79375z" fill="#e9b913" transform="rotate(90)"/><path d="m1.7201737 290.78222v3.24166c-.011456 2.33945.2397892 2.57917 2.5745201 2.57917h4.3759596c2.3347306 0 2.5745196-.23969 2.5745196-2.57917v-3.24166z" fill="#fff" opacity=".1"/><path d="m6.4826736 284.96138v11.64167h2.1879798c2.3347306 0 2.5745196-.23969 2.5745196-2.57917v-3.24166-3.24167c0-2.33948-.239789-2.57917-2.5745196-2.57917z" fill="#fff" opacity=".1"/><path d="m4.2950695 284.82909c-.5859488 0-1.0443685.0145-1.4107662.076-.3663976.0615-.6470412.17312-.8495612.37517-.20252.20204-.3142721.48216-.3751712.84852-.060899.36637-.074186.82508-.071313 1.41232v3.24115 3.24166c-.00286.58693.010425 1.04557.071313 1.4118.060899.36637.1726486.64648.3751712.84853.2025227.20204.4831609.31366.8495612.37517.3663977.0615.8248174.076 1.4107662.076h4.3759596c.5859462 0 1.0436592-.0144 1.4092159-.076.365556-.0615.645752-.17309.847494-.37517.201743-.20209.313227-.48235.374653-.84853.06143-.36618.07545-.82467.07545-1.4118v-3.24166-3.24167c0-.58713-.01402-1.04562-.07545-1.4118-.06143-.36617-.17291-.64644-.374653-.84852-.201742-.20209-.481938-.31366-.847494-.37517-.3655567-.0615-.8232697-.076-1.4092159-.076z" fill="none" opacity=".3" stroke="url(#a)" stroke-width=".264583"/></g></svg>