<?xml version="1.0" encoding="UTF-8" standalone="no"?>
<svg
   xmlns:dc="http://purl.org/dc/elements/1.1/"
   xmlns:cc="http://creativecommons.org/ns#"
   xmlns:rdf="http://www.w3.org/1999/02/22-rdf-syntax-ns#"
   xmlns:svg="http://www.w3.org/2000/svg"
   xmlns="http://www.w3.org/2000/svg"
   xmlns:xlink="http://www.w3.org/1999/xlink"
   xmlns:sodipodi="http://sodipodi.sourceforge.net/DTD/sodipodi-0.dtd"
   xmlns:inkscape="http://www.inkscape.org/namespaces/inkscape"
   height="48"
   viewBox="0 0 12.7 12.7"
   width="48"
   version="1.1"
   id="svg75"
   sodipodi:docname="libreoffice-oasis-spreadsheet-template.svg"
   inkscape:version="0.92.5 (2060ec1f9f, 2020-04-08)">
  <metadata
     id="metadata81">
    <rdf:RDF>
      <cc:Work
         rdf:about="">
        <dc:format>image/svg+xml</dc:format>
        <dc:type
           rdf:resource="http://purl.org/dc/dcmitype/StillImage" />
      </cc:Work>
    </rdf:RDF>
  </metadata>
  <defs
     id="defs79">
    <linearGradient
       gradientTransform="matrix(0.26458333,0,0,0.26458333,-84.666282,-16.007297)"
       inkscape:collect="always"
       xlink:href="#linearGradient927"
       id="linearGradient1004"
       x1="344"
       y1="62"
       x2="344"
       y2="106"
       gradientUnits="userSpaceOnUse" />
    <linearGradient
       inkscape:collect="always"
       id="linearGradient927">
      <stop
         style="stop-color:#ffffff;stop-opacity:1;"
         offset="0"
         id="stop923" />
      <stop
         id="stop933"
         offset="0.125"
         style="stop-color:#ffffff;stop-opacity:0.09803922" />
      <stop
         id="stop931"
         offset="0.92500001"
         style="stop-color:#ffffff;stop-opacity:0.09803922" />
      <stop
         style="stop-color:#ffffff;stop-opacity:0.49803922"
         offset="1"
         id="stop925" />
    </linearGradient>
    <linearGradient
       id="_Linear9"
       x1="0"
       y1="0"
       x2="1"
       y2="0"
       gradientUnits="userSpaceOnUse"
       gradientTransform="matrix(0,46.9998,-46.9998,0,346,54.0002)">
      <stop
         offset="0"
         style="stop-color:rgb(24,163,3);stop-opacity:1"
         id="stop371" />
      <stop
         offset="1"
         style="stop-color:rgb(16,104,2);stop-opacity:1"
         id="stop373" />
    </linearGradient>
    <linearGradient
       inkscape:collect="always"
       xlink:href="#linearGradient4338"
       id="linearGradient1024-1"
       gradientUnits="userSpaceOnUse"
       gradientTransform="matrix(0,-0.02724757,0.02664032,0,-1.9960094,12.95255)"
       x1="459.03448"
       y1="419.23337"
       x2="35.310345"
       y2="207.36522" />
    <linearGradient
       inkscape:collect="always"
       id="linearGradient4338">
      <stop
         style="stop-color:#f2f2f2;stop-opacity:1"
         offset="0"
         id="stop4340" />
      <stop
         style="stop-color:#f9f9f9;stop-opacity:1"
         offset="1"
         id="stop4342" />
    </linearGradient>
    <linearGradient
       inkscape:collect="always"
       xlink:href="#linearGradient16945"
       id="linearGradient1024"
       gradientUnits="userSpaceOnUse"
       gradientTransform="matrix(0,-0.03065352,0.03080287,0,-3.3001301,13.794409)"
       x1="441.37933"
       y1="240.30261"
       x2="52.965569"
       y2="386.30783" />
    <linearGradient
       id="linearGradient16945">
      <stop
         offset="0"
         style="stop-color:#2e851b;stop-opacity:1"
         id="stop16941" />
      <stop
         offset="1"
         style="stop-color:#18a003;stop-opacity:1"
         id="stop16943" />
    </linearGradient>
  </defs>
  <sodipodi:namedview
     pagecolor="#ffffff"
     bordercolor="#666666"
     borderopacity="1"
     objecttolerance="10"
     gridtolerance="10"
     guidetolerance="10"
     inkscape:pageopacity="0"
     inkscape:pageshadow="2"
     inkscape:window-width="834"
     inkscape:window-height="480"
     id="namedview77"
     showgrid="false"
     inkscape:zoom="4.9166667"
     inkscape:cx="24"
     inkscape:cy="24"
     inkscape:window-x="0"
     inkscape:window-y="28"
     inkscape:window-maximized="0"
     inkscape:current-layer="svg75" />
  <linearGradient
     id="a"
     gradientUnits="userSpaceOnUse"
     x1="6.350384"
     x2="6.350384"
     y1=".396869"
     y2="12.038536">
    <stop
       offset="0"
       stop-color="#fff"
       id="stop2" />
    <stop
       offset=".125"
       stop-color="#fff"
       stop-opacity=".098039"
       id="stop4" />
    <stop
       offset=".92500001"
       stop-color="#fff"
       stop-opacity=".098039"
       id="stop6" />
    <stop
       offset="1"
       stop-color="#fff"
       stop-opacity=".498039"
       id="stop8" />
  </linearGradient>
  <linearGradient
     id="b"
     gradientUnits="userSpaceOnUse"
     x1="598"
     x2="598"
     y1="858.00212"
     y2="905.00212">
    <stop
       offset="0"
       stop-color="#18a303"
       id="stop11" />
    <stop
       offset="1"
       stop-color="#106802"
       id="stop13" />
  </linearGradient>
  <linearGradient
     id="c"
     gradientTransform="matrix(1.5 0 0 1.80001 -231.5 510.715)"
     gradientUnits="userSpaceOnUse"
     x1="481"
     x2="481"
     y1="-759.63782"
     y2="-764.63782">
    <stop
       offset="0"
       stop-color="#fff"
       stop-opacity=".588235"
       id="stop16" />
    <stop
       offset="1"
       stop-color="#fff"
       stop-opacity=".862745"
       id="stop18" />
  </linearGradient>
  <linearGradient
     id="d"
     gradientTransform="matrix(0 -.02724757 .02664032 0 -1.996009 12.95255)"
     gradientUnits="userSpaceOnUse"
     x1="459.03448"
     x2="35.310345"
     y1="419.23337"
     y2="207.36522">
    <stop
       offset="0"
       stop-color="#f2f2f2"
       id="stop21" />
    <stop
       offset="1"
       stop-color="#f9f9f9"
       id="stop23" />
  </linearGradient>
  <linearGradient
     id="e"
     gradientTransform="matrix(0 -.03065352 .03080287 0 -3.30013 13.794409)"
     gradientUnits="userSpaceOnUse"
     x1="441.37933"
     x2="52.965569"
     y1="240.30261"
     y2="386.30783">
    <stop
       offset="0"
       stop-color="#2e851b"
       id="stop26" />
    <stop
       offset="1"
       stop-color="#18a003"
       id="stop28" />
  </linearGradient>
  <path
     style="color:#000000;font-style:normal;font-variant:normal;font-weight:normal;font-stretch:normal;font-size:medium;line-height:normal;font-family:sans-serif;font-variant-ligatures:normal;font-variant-position:normal;font-variant-caps:normal;font-variant-numeric:normal;font-variant-alternates:normal;font-feature-settings:normal;text-indent:0;text-align:start;text-decoration:none;text-decoration-line:none;text-decoration-style:solid;text-decoration-color:#000000;letter-spacing:normal;word-spacing:normal;text-transform:none;writing-mode:lr-tb;direction:ltr;text-orientation:mixed;dominant-baseline:auto;baseline-shift:baseline;text-anchor:start;white-space:normal;shape-padding:0;clip-rule:nonzero;display:inline;overflow:visible;visibility:visible;opacity:0.1;isolation:auto;mix-blend-mode:normal;color-interpolation:sRGB;color-interpolation-filters:linearRGB;solid-color:#000000;solid-opacity:1;vector-effect:none;fill:#000000;fill-opacity:1;fill-rule:nonzero;stroke:none;stroke-width:0.52916664;stroke-linecap:butt;stroke-linejoin:miter;stroke-miterlimit:4;stroke-dasharray:none;stroke-dashoffset:0;stroke-opacity:1;marker:none;color-rendering:auto;image-rendering:auto;shape-rendering:auto;text-rendering:auto;enable-background:accumulate"
     d="M 4.1624031,0.39686923 C 3.5742608,0.38791043 3.1110335,0.41041063 2.729933,0.47438393 2.3488298,0.53835593 2.0369761,0.65834843 1.80854,0.88624493 1.5801067,1.1141416 1.4595388,1.4258549 1.3961631,1.8071189 1.3327875,2.1883833 1.3204155,2.6525529 1.3232995,3.2421734 v 3.2401124 3.2416625 c -0.00286,0.5887147 0.00955,1.0526497 0.072864,1.4335037 0.063376,0.381265 0.1839436,0.692978 0.4123769,0.920875 0.2284361,0.227896 0.5402898,0.34789 0.921393,0.411861 0.3811032,0.06397 0.844259,0.07752 1.4324701,0.07752 h 4.3759596 c 0.5882111,0 1.0511261,-0.01352 1.4314382,-0.07752 0.3803117,-0.064 0.6912127,-0.184399 0.9188047,-0.412377 0.227595,-0.227978 0.347451,-0.53947 0.411346,-0.920359 0.06389,-0.380886 0.07752,-0.844114 0.07752,-1.4335037 v -3.2416625 -3.175 L 8.5383627,0.46353173 Z"
     id="path1020"
     inkscape:connector-curvature="0"
     sodipodi:nodetypes="sccsccccccsscccscccs" />
  <path
     style="color:#000000;display:inline;overflow:visible;visibility:visible;fill:url(#linearGradient1024);fill-opacity:1;fill-rule:nonzero;stroke:none;stroke-width:0.26458332;marker:none;enable-background:accumulate"
     d="m 4.1018796,0.26457803 c -2.3994957,0 -2.6576787,0.2452553 -2.645918,2.63787837 V 6.217703 9.5329503 c -0.011774,2.3926217 0.2464223,2.6378777 2.645918,2.6378777 h 4.4973796 c 2.3994958,0 2.6459188,-0.245227 2.6459188,-2.6378777 V 6.217703 L 11.244995,2.970544 8.5257685,0.26457803 Z"
     id="path964"
     inkscape:connector-curvature="0"
     sodipodi:nodetypes="scccssscccs" />
  <path
     style="color:#000000;display:inline;overflow:visible;visibility:visible;fill:url(#linearGradient1024-1);fill-opacity:1;fill-rule:nonzero;stroke:none;stroke-width:0.26458332;marker:none;enable-background:accumulate"
     d="m 4.4057298,0.92603583 c -2.2886802,0 -2.2886802,0 -2.2883601,2.34478087 v 2.9468858 2.9468858 c -2.646e-4,2.3447807 -2.646e-4,2.3447807 2.2883601,2.3447807 h 3.8896263 c 2.2883599,0 2.2883599,0 2.2883599,-2.3447807 v -2.9468858 -3.175 L 8.4670496,0.92603583 Z"
     id="path964-4"
     inkscape:connector-curvature="0"
     sodipodi:nodetypes="scccssscccs" />
  <g
     transform="matrix(0.26458333,0,0,0.26458333,-88.371772,-14.419268)"
     id="g108"
     style="clip-rule:evenodd;display:inline;fill-rule:evenodd;enable-background:new">
    <path
       inkscape:connector-curvature="0"
       d="m 367,72 h -18 c -1.105,0 -2,0.896 -2,2 v 17 c 0,1.105 0.895,2 2,2 h 18 c 1.105,0 2,-0.895 2,-2 V 74 c 0,-1.104 -0.895,-2 -2,-2 z"
       style="fill:#ccf4c6;fill-rule:nonzero"
       id="path106" />
  </g>
  <g
     transform="matrix(0.26458333,0,0,0.26458333,-88.371772,-14.419268)"
     id="g112"
     style="clip-rule:evenodd;display:inline;fill-rule:evenodd;enable-background:new">
    <path
       inkscape:connector-curvature="0"
       d="m 367,72 h -18 c -1.105,0 -2,0.896 -2,2 v 1 c 0,1.105 0.895,2 2,2 h 18 c 1.105,0 2,-0.895 2,-2 v -1 c 0,-1.104 -0.895,-2 -2,-2 z"
       style="fill:#92e285;fill-rule:nonzero"
       id="path110" />
  </g>
  <g
     transform="matrix(0.26458333,0,0,0.26458333,-88.371772,-14.419268)"
     id="g116"
     style="clip-rule:evenodd;display:inline;fill-rule:evenodd;enable-background:new">
    <path
       inkscape:connector-curvature="0"
       d="m 349,72 c -1.105,0 -2,0.895 -2,2 v 16.998 c 0,1.105 0.895,2 2,2 L 369,93 V 73.998 c 0,-1.104 -0.896,-2 -2,-2 z m -1,1.998 c 0,-0.552 0.448,-1 1,-1 h 5 v 3 h -6 z m 7,-1 h 6 v 3 h -6 z m 7,0 h 5 c 0.552,0 1,0.448 1,1 v 2 h -6 z m -14,4 h 6 v 3 h -6 z m 7,0 h 6 v 3 h -6 z m 7,0 h 6 v 3 h -6 z m -14,4 h 6 v 3 h -6 z m 7,0 h 6 v 3 h -6 z m 7,0 h 6 v 3 h -6 z m -14,4 h 6 v 3 h -6 z m 7,0 h 6 v 3 h -6 z m 7,0 h 6 v 3 h -6 z m -14,4 h 6 v 3 h -5 c -0.552,0 -1,-0.448 -1,-1 z m 7,0 h 6 v 3 h -6 z m 7,0 h 6 v 2 c 0,0.552 -0.448,1 -1,1 h -5 z"
       style="fill:url(#_Linear9);fill-rule:nonzero"
       id="path114" />
  </g>
  <g
     transform="matrix(0.26458333,0,0,0.26458333,-88.371772,-14.419268)"
     id="g120"
     style="clip-rule:evenodd;display:inline;fill-rule:evenodd;enable-background:new">
    <path
       inkscape:connector-curvature="0"
       d="m 369,83 h -7 c -1.105,0 -2,0.895 -2,2 v 7 c 0,1.105 0.895,2 2,2 h 7 c 1.105,0 2,-0.895 2,-2 v -7 c 0,-1.105 -0.895,-2 -2,-2 z"
       style="fill:#148103;fill-rule:nonzero"
       id="path118" />
  </g>
  <g
     transform="matrix(0.26458333,0,0,0.26458333,-88.371772,-14.419268)"
     id="g124"
     style="clip-rule:evenodd;display:inline;fill-rule:evenodd;enable-background:new">
    <path
       inkscape:connector-curvature="0"
       d="m 369,84 h -7 c -0.552,0 -1,0.448 -1,1 v 7 c 0,0.552 0.448,1 1,1 h 7 c 0.552,0 1,-0.448 1,-1 v -7 c 0,-0.552 -0.448,-1 -1,-1 z"
       style="fill:#cccccc;fill-rule:nonzero"
       id="path122" />
  </g>
  <g
     transform="matrix(0.26458333,0,0,0.26458333,-88.371772,-14.419268)"
     id="g128"
     style="clip-rule:evenodd;display:inline;fill-rule:evenodd;enable-background:new">
    <path
       inkscape:connector-curvature="0"
       d="m 369,84 h -7 c -0.552,0 -1,0.448 -1,1 v 7 c 0,0.553 0.448,1 1,1 h 7 c 0.552,0 1,-0.447 1,-1 v -7 c 0,-0.552 -0.448,-1 -1,-1 z"
       style="fill:#ccf4c6;fill-rule:nonzero"
       id="path126" />
  </g>
  <g
     transform="matrix(0.26458333,0,0,0.26458333,-88.371772,-14.419268)"
     id="g132"
     style="clip-rule:evenodd;display:inline;fill-rule:evenodd;enable-background:new">
    <path
       inkscape:connector-curvature="0"
       d="m 364,93 v -3.5 c 0,-0.828 -0.672,-1.5 -1.5,-1.5 -0.828,0 -1.5,0.672 -1.5,1.5 V 92 c 0,0.553 0.448,1 1,1 z"
       style="fill:#41b02f;fill-rule:nonzero"
       id="path130" />
  </g>
  <g
     transform="matrix(0.26458333,0,0,0.26458333,-88.371772,-14.419268)"
     id="g136"
     style="clip-rule:evenodd;display:inline;fill-rule:evenodd;enable-background:new">
    <path
       inkscape:connector-curvature="0"
       d="m 367,93 v -6.5 c 0,-0.828 -0.672,-1.5 -1.5,-1.5 -0.828,0 -1.5,0.672 -1.5,1.5 V 93 Z"
       style="fill:#239310;fill-rule:nonzero"
       id="path134" />
  </g>
  <g
     transform="matrix(0.26458333,0,0,0.26458333,-88.371772,-14.419268)"
     id="g140"
     style="clip-rule:evenodd;display:inline;fill-rule:evenodd;enable-background:new">
    <path
       inkscape:connector-curvature="0"
       d="m 370,92 v -0.5 c 0,-0.828 -0.672,-1.5 -1.5,-1.5 -0.828,0 -1.5,0.672 -1.5,1.5 V 93 h 2 c 0.552,0 1,-0.447 1,-1 z"
       style="fill:#41b02f;fill-rule:nonzero"
       id="path138" />
  </g>
  <g
     transform="matrix(0.26458333,0,0,0.26458333,-88.371772,-14.419268)"
     id="g144"
     style="clip-rule:evenodd;display:inline;fill-rule:evenodd;enable-background:new">
    <rect
       x="362"
       y="89"
       width="1"
       height="4"
       style="fill:#92e285;fill-rule:nonzero"
       id="rect142" />
  </g>
  <g
     transform="matrix(0.26458333,0,0,0.26458333,-88.371772,-14.419268)"
     id="g148"
     style="clip-rule:evenodd;display:inline;fill-rule:evenodd;enable-background:new">
    <rect
       x="365"
       y="86"
       width="1"
       height="7"
       style="fill:#41b02f;fill-rule:nonzero"
       id="rect146" />
  </g>
  <g
     transform="matrix(0.26458333,0,0,0.26458333,-88.371772,-14.419268)"
     id="g152"
     style="clip-rule:evenodd;display:inline;fill-rule:evenodd;enable-background:new">
    <rect
       x="368"
       y="91"
       width="1"
       height="2"
       style="fill:#92e285;fill-rule:nonzero"
       id="rect150" />
  </g>
  <path
     style="color:#000000;display:inline;overflow:visible;visibility:visible;opacity:0.2;fill:#ffffff;fill-opacity:1;fill-rule:nonzero;stroke:none;stroke-width:0.26458332;marker:none;enable-background:accumulate"
     d="m 1.5878828,6.2177025 v 3.2416628 c -0.011456,2.3394527 0.2397893,2.5791707 2.5745203,2.5791707 h 4.3759596 c 2.3347313,0 2.5745203,-0.239691 2.5745203,-2.5791707 V 6.2177025 Z"
     id="path1006"
     inkscape:connector-curvature="0" />
  <path
     style="color:#000000;display:inline;overflow:visible;visibility:visible;opacity:0.1;fill:#ffffff;fill-opacity:1;fill-rule:nonzero;stroke:none;stroke-width:0.26458332;marker:none;enable-background:accumulate"
     d="M 6.3503829,0.39686923 V 12.038536 h 2.1879798 c 2.3347313,0 2.5745203,-0.239691 2.5745203,-2.5791707 v -3.2416628 -3.175 L 8.4670496,0.39686923 Z"
     id="path1013"
     inkscape:connector-curvature="0"
     sodipodi:nodetypes="ccsscccc" />
  <path
     style="color:#000000;font-style:normal;font-variant:normal;font-weight:normal;font-stretch:normal;font-size:medium;line-height:normal;font-family:sans-serif;font-variant-ligatures:normal;font-variant-position:normal;font-variant-caps:normal;font-variant-numeric:normal;font-variant-alternates:normal;font-feature-settings:normal;text-indent:0;text-align:start;text-decoration:none;text-decoration-line:none;text-decoration-style:solid;text-decoration-color:#000000;letter-spacing:normal;word-spacing:normal;text-transform:none;writing-mode:lr-tb;direction:ltr;text-orientation:mixed;dominant-baseline:auto;baseline-shift:baseline;text-anchor:start;white-space:normal;shape-padding:0;clip-rule:nonzero;display:inline;overflow:visible;visibility:visible;opacity:0.4;isolation:auto;mix-blend-mode:normal;color-interpolation:sRGB;color-interpolation-filters:linearRGB;solid-color:#000000;solid-opacity:1;vector-effect:none;fill:#000000;fill-opacity:1;fill-rule:nonzero;stroke:none;stroke-width:0.52916664;stroke-linecap:butt;stroke-linejoin:miter;stroke-miterlimit:4;stroke-dasharray:none;stroke-dashoffset:0;stroke-opacity:1;marker:none;color-rendering:auto;image-rendering:auto;shape-rendering:auto;text-rendering:auto;enable-background:accumulate"
     d="m 4.1624031,0.13228583 c -0.5882111,0 -1.0513696,0.013541 -1.4324701,0.077515 -0.3811032,0.063972 -0.6929569,0.1839645 -0.921393,0.411861 C 1.5801067,0.84955853 1.4595388,1.1612718 1.3961631,1.5425358 1.3327875,1.9238001 1.3204155,2.3879698 1.3232995,2.9775903 v 3.2401124 3.2416626 c -0.00286,0.5887137 0.00955,1.0526497 0.072864,1.4335037 0.063376,0.381265 0.1839436,0.692978 0.4123769,0.920874 0.2284361,0.227897 0.5402898,0.34789 0.921393,0.411861 0.3811032,0.06397 0.844259,0.07752 1.4324701,0.07752 h 4.3759596 c 0.5882111,0 1.0511261,-0.01352 1.4314382,-0.07752 0.3803117,-0.064 0.6912127,-0.184398 0.9188047,-0.412377 0.227595,-0.227978 0.347451,-0.539469 0.411346,-0.920358 0.06389,-0.380886 0.07752,-0.844115 0.07752,-1.4335037 V 6.2177025 2.9331486 L 8.5766029,0.13228583 Z m 0,0.2645834 H 8.4670496 L 11.112883,3.0427025 v 3.175 3.2416628 c 0,2.3394797 -0.239789,2.5791707 -2.5745203,2.5791707 H 4.1624031 c -2.334731,0 -2.5859767,-0.239718 -2.5745203,-2.5791707 V 6.2177025 2.9760399 C 1.5764264,0.63658623 1.8276721,0.39686923 4.1624031,0.39686923 Z"
     id="path958"
     inkscape:connector-curvature="0"
     sodipodi:nodetypes="sccsccccccsscccscccsscccssscccs" />
  <path
     style="color:#000000;font-style:normal;font-variant:normal;font-weight:normal;font-stretch:normal;font-size:medium;line-height:normal;font-family:sans-serif;font-variant-ligatures:normal;font-variant-position:normal;font-variant-caps:normal;font-variant-numeric:normal;font-variant-alternates:normal;font-feature-settings:normal;text-indent:0;text-align:start;text-decoration:none;text-decoration-line:none;text-decoration-style:solid;text-decoration-color:#000000;letter-spacing:normal;word-spacing:normal;text-transform:none;writing-mode:lr-tb;direction:ltr;text-orientation:mixed;dominant-baseline:auto;baseline-shift:baseline;text-anchor:start;white-space:normal;shape-padding:0;clip-rule:nonzero;display:inline;overflow:visible;visibility:visible;opacity:0.4;isolation:auto;mix-blend-mode:normal;color-interpolation:sRGB;color-interpolation-filters:linearRGB;solid-color:#000000;solid-opacity:1;vector-effect:none;fill:url(#linearGradient1004);fill-opacity:1;fill-rule:nonzero;stroke:none;stroke-width:0.52916664;stroke-linecap:butt;stroke-linejoin:miter;stroke-miterlimit:4;stroke-dasharray:none;stroke-dashoffset:0;stroke-opacity:1;marker:none;color-rendering:auto;image-rendering:auto;shape-rendering:auto;text-rendering:auto;enable-background:accumulate"
     clip-path="none"
     d="m 4.1624031,0.39686923 c -2.334731,0 -2.5859635,0.239717 -2.5745203,2.57917067 v 3.2416626 3.2416628 c -0.011456,2.3394527 0.2397893,2.5791707 2.5745203,2.5791707 h 4.3759596 c 2.3347313,0 2.5745203,-0.239691 2.5745203,-2.5791707 v -3.2416628 -3.175 H 10.8483 v 3.175 3.2416628 c 0,0.5803497 -0.01625,1.0241217 -0.07028,1.3461697 -0.05403,0.322051 -0.139878,0.509149 -0.264068,0.633556 -0.12419,0.124394 -0.310716,0.21051 -0.632002,0.264583 -0.3212889,0.05406 -0.7644342,0.07028 -1.3435886,0.07028 H 4.1624031 c -0.5791544,0 -1.0228501,-0.01619 -1.3451391,-0.07028 -0.3222863,-0.0541 -0.5103203,-0.140097 -0.6351031,-0.264583 -0.1247802,-0.124495 -0.2105978,-0.311367 -0.2640648,-0.633037 -0.05347,-0.32167 -0.068472,-0.76555 -0.06563,-1.3456557 V 9.4598693 6.2177025 2.9755232 2.974994 C 1.8496351,2.3948876 1.864637,1.9510102 1.9180961,1.6293396 1.9715657,1.3076689 2.0573807,1.1207898 2.1821609,0.99630343 2.306941,0.87181693 2.4954963,0.78581943 2.8177826,0.73172003 3.1400689,0.67764553 3.5832487,0.66145253 4.1624031,0.66145253 h 4.3046465 v -0.2645833 z"
     id="path990"
     inkscape:connector-curvature="0" />
  <path
     inkscape:connector-curvature="0"
     style="color:#000000;display:inline;overflow:visible;visibility:visible;opacity:0.6;fill:#1a510f;fill-opacity:1;fill-rule:nonzero;stroke:none;stroke-width:0.06615192;marker:none;enable-background:accumulate"
     d="M 11.112883,3.3072858 V 3.0427025 L 8.4670496,0.39686923 H 8.2024662 v 1.11364547 0.04267 0.022918 c 0,1.506003 0.2016019,1.7382252 1.7110604,1.7308441 z"
     id="rect4158-0-3-62-2"
     sodipodi:nodetypes="ccccccscc" />
  <path
     inkscape:connector-curvature="0"
     style="color:#000000;display:inline;overflow:visible;visibility:visible;fill:#54ad45;fill-opacity:1;fill-rule:nonzero;stroke:none;stroke-width:0.06615192;marker:none;enable-background:accumulate"
     d="M 11.112883,3.0423638 8.4670496,0.39686863 v 0.98132417 0.04267 0.022918 c 0,1.5060031 0.069406,1.6059637 1.5788644,1.5985826 z"
     id="rect4158-0-3-62"
     sodipodi:nodetypes="ccccscc" />
</svg>
