<svg height="48" viewBox="0 0 12.699375 12.699375" width="48" xmlns="http://www.w3.org/2000/svg" xmlns:xlink="http://www.w3.org/1999/xlink"><linearGradient id="a" gradientUnits="userSpaceOnUse" x1="6.350074" x2="6.350074" y1=".396856" y2="12.03795"><stop offset="0" stop-color="#fff"/><stop offset=".125" stop-color="#fff" stop-opacity=".098039"/><stop offset=".92500001" stop-color="#fff" stop-opacity=".098039"/><stop offset="1" stop-color="#fff" stop-opacity=".498039"/></linearGradient><clipPath id="b"><circle cx="3108.5" cy="-862.14" r="6.5"/></clipPath><radialGradient id="c" cx="7.439757" cy="8.099915" gradientUnits="userSpaceOnUse" r="1.587422" xlink:href="#d"/><linearGradient id="d"><stop offset="0" stop-color="#0369a3"/><stop offset="1" stop-color="#023f62"/></linearGradient><linearGradient id="e" gradientTransform="matrix(.79371358 0 0 .26457031 -167.47288 222.53983)" gradientUnits="userSpaceOnUse" x1="215" x2="215" xlink:href="#d" y1="-824.63782" y2="-802.63782"/><linearGradient id="f" gradientTransform="matrix(0 -.02724623 .02663901 0 -1.995909 12.951919)" gradientUnits="userSpaceOnUse" x1="459.03448" x2="35.310345" y1="419.23337" y2="207.36522"><stop offset="0" stop-color="#f2f2f2"/><stop offset="1" stop-color="#f9f9f9"/></linearGradient><linearGradient id="g" gradientTransform="matrix(0 -.03065201 .03080135 0 -3.299966 13.793736)" gradientUnits="userSpaceOnUse" x1="57.281277" x2="437.06363" y1="384.33087" y2="242.26747"><stop offset="0" stop-color="#666"/><stop offset="1" stop-color="#333"/></linearGradient><path d="m4.1621996.39685604c-.588113-.00896-1.051318.013541-1.432399.077511-.381085.063969-.692923.1839554-.921348.4118407-.228422.22788546-.348984.53958336-.412357.92082866-.06337.3812456-.07574.8453924-.07286 1.4349839v3.2399525 3.241503c-.0029.5886862.0096 1.0525982.07286 1.4334342.06337.381246.183935.692944.412357.920829.228425.227885.540263.347873.921348.411841.381084.06397.844217.07751 1.432399.07751h4.375745c.588182 0 1.051074-.01352 1.431367-.07751.3802944-.064.6911804-.18439.9187604-.412357.227584-.227967.347434-.539443.411325-.920313.06389-.380868.07751-.844073.07751-1.4334342v-3.241503-3.1748434l-2.8389624-2.84361416z" opacity=".1"/><path d="m4.1016796.26457134c-2.399378 0-2.657548.2452432-2.645788 2.63774846v3.315084 3.315083c-.01177 2.3925052.24641 2.6377482 2.645788 2.6377482h4.497158c2.3993784 0 2.6457884-.245214 2.6457884-2.6377482v-3.315083l-.000183-3.2469997-2.7190924-2.70583276z" fill="url(#g)"/><path d="m4.4055146.92599664c-2.288568 0-2.288568 0-2.288247 2.34466536v2.9467408 2.946741c-.000321 2.3446652-.000321 2.3446652 2.288247 2.3446652h3.889435c2.2882474 0 2.2882474 0 2.2882474-2.3446652v-2.946741-3.1748438l-2.1165624-2.11656236z" fill="url(#f)"/><path d="m3.1752226 4.3651598v.5291406h6.349688v-.5291406zm0 1.058281v.529141h6.349688v-.529141zm0 1.058282v.52914h2.918528c.18303-.2149.402068-.395345.653172-.52914zm5.688262 0c.251104.133795.470142.31424.653171.52914 0 .0013.0071-.0013.0082 0v-.52914h-.661424zm-5.688262 1.058281v.52914h2.422459c.03294-.185167.0818-.36262.157102-.52914zm0 1.058281v.529141h2.480347c-.051803-.168664-.080323-.346159-.090959-.529141zm0 1.058281v.5291412h3.183099c-.179511-.151289-.338015-.3292182-.462998-.5291412z" fill="url(#e)"/><circle cx="7.806087" cy="8.466251" fill="url(#c)" r="1.587422" stroke="#023f62" stroke-width=".26457"/><g clip-path="url(#b)" enable-background="new" fill="none" stroke="#aadcf7" stroke-linecap="round" transform="matrix(.26457031 0 0 .26457031 -814.61161 236.56206)"><path clip-path="none" d="m3068.184-1099.5366c-15.8287 5.5755-16.1955 20.8148-12.4084 27.5262" stroke-width="2.20381" transform="matrix(.45376 0 0 .45376 1718.49 -369.973)"/><path clip-path="none" d="m3116-861.6378c-3.5797-6.72117-10.4412-5.8475-13.1941-3.69131"/><path clip-path="none" d="m3104.6248-857.04228c1.6682-7.43001 8.5163-8.40743 11.7423-7.05871"/><path clip-path="none" d="m3108-854.37352c.6679-5.78028 5.5626-7.04501 8-6.26428"/><path clip-path="none" d="m3111-855.6378c1.9186-7.36934-3.7212-11.37387-7.2069-11.65209"/><path clip-path="none" d="m3101.3791-861.1138c4.6342 6.0426 11.2593 4.05476 13.6209 1.476"/></g><path d="m1.5878066 6.2174028v3.241503c-.01146 2.3393382.239777 2.5790442 2.574393 2.5790442h4.375745c2.3346164 0 2.5743934-.239679 2.5743934-2.5790442v-3.241503z" fill="#fff" opacity=".2"/><path d="m6.3500716.39685604v11.64109396h2.187873c2.3346164 0 2.5743934-.239679 2.5743934-2.5790442v-3.241503-3.1748438l-2.6457034-2.64570296z" fill="#fff" opacity=".1"/><path d="m4.1621996.13228564c-.588182 0-1.051318.013541-1.432399.077511-.381085.063969-.692923.1839555-.921348.4118408-.228422.2278855-.348984.53958336-.412357.92082866-.06337.3812456-.07574.8453924-.07286 1.4349839v3.2399528 3.241503c-.0029.5886862.0096 1.0525982.07286 1.4334332.06337.381246.183935.692944.412357.920829.228425.227885.540263.347873.921348.411841.381084.06397.844217.07751 1.432399.07751h4.375745c.588182 0 1.051074-.01352 1.431367-.07751.3802944-.064.6911804-.184389.9187604-.412356.227584-.227967.347434-.539443.411325-.920314.06389-.380867.07751-.844072.07751-1.4334332v-3.241503-3.2843923l-2.8007244-2.80072486zm0 .2645704h4.304435l2.6457034 2.64570296v3.1748438 3.241503c0 2.3393652-.239777 2.5790442-2.5743934 2.5790442h-4.375745c-2.334616 0-2.585849-.239706-2.574393-2.5790442v-3.241503-3.241503c-.01144-2.33933856.239777-2.57904376 2.574393-2.57904376z" opacity=".4"/><path d="m4.1621996.39685604c-2.334616 0-2.585836.2397052-2.574393 2.57904376v3.241503 3.241503c-.01146 2.3393382.239777 2.5790442 2.574393 2.5790442h4.375745c2.3346164 0 2.5743934-.239679 2.5743934-2.5790442v-3.241503-3.1748438h-.26457v3.1748438 3.241503c0 .5803222-.01624 1.0240722-.07027 1.3461042-.05402.322035-.139871.509123-.264055.633524-.124184.124388-.3107.2105-.6319714.264571-.321273.05406-.764396.07028-1.343522.07028h-4.375745c-.579126 0-1.022799-.01619-1.345073-.07028-.32227-.0541-.510295-.14009-.635072-.264571-.124774-.124488-.210587-.311351-.264051-.633005-.05347-.321654-.06847-.765512-.06563-1.3455902v-.000529-3.242007-3.2420198-.0005291c-.0028-.5800778.01217-1.0239334.06563-1.3455882.05347-.3216548.139277-.5085247.264051-.63300506.124775-.1244803.313321-.2104736.635591-.2645703.32227-.054072.765428-.070264 1.344554-.070264h4.304435v-.2645703z" fill="url(#a)" opacity=".4"/><path d="m11.112338 3.3071294v-.2645704l-2.6457034-2.64570296h-.26457v1.11359056.042668.022917c0 1.5059289.201592 1.7381397 1.710976 1.7307589z" opacity=".6"/><path d="m11.112338 3.0422204-2.6457034-2.64536496v.98127586.042668.022917c0 1.5059289.0694 1.6058846 1.5787864 1.5985039z" fill="#888"/></svg>