<svg height="48" viewBox="0 0 12.7 12.7" width="48" xmlns="http://www.w3.org/2000/svg" xmlns:xlink="http://www.w3.org/1999/xlink"><linearGradient id="a" gradientUnits="userSpaceOnUse" x1="6.350384" x2="6.350384" y1=".396872" y2="12.038539"><stop offset="0" stop-color="#fff"/><stop offset=".125" stop-color="#fff" stop-opacity=".098039"/><stop offset=".92500001" stop-color="#fff" stop-opacity=".098039"/><stop offset="1" stop-color="#fff" stop-opacity=".498039"/></linearGradient><linearGradient id="b" gradientTransform="matrix(.379315 0 0 .346155 -948.56455 465.22176)" gradientUnits="userSpaceOnUse" x1="3404.9995" x2="3404.9995" xlink:href="#c" y1="-1092.6378" y2="-1117.6578"/><linearGradient id="c"><stop offset="0" stop-color="#63bbee"/><stop offset="1" stop-color="#aadcf7"/></linearGradient><linearGradient id="d" gradientTransform="matrix(.379315 0 0 .346155 -935.56455 465.22176)" gradientUnits="userSpaceOnUse" x1="3404.9995" x2="3404.9995" xlink:href="#c" y1="-1092.6378" y2="-1117.6578"/><linearGradient id="e" gradientTransform="matrix(.379315 0 0 .346155 -935.56455 476.22176)" gradientUnits="userSpaceOnUse" x1="3404.9995" x2="3404.9995" xlink:href="#c" y1="-1092.6378" y2="-1117.6578"/><linearGradient id="f" gradientTransform="matrix(.379315 0 0 .346155 -948.56455 476.22176)" gradientUnits="userSpaceOnUse" x1="3404.9995" x2="3404.9995" xlink:href="#c" y1="-1092.6378" y2="-1117.6578"/><linearGradient id="g" gradientUnits="userSpaceOnUse" x1="116.48132" x2="116.48132" xlink:href="#h" y1="982.36108" y2="986.86115"/><linearGradient id="h"><stop offset="0" stop-color="#0369a3"/><stop offset="1" stop-color="#023f62"/></linearGradient><linearGradient id="i" gradientTransform="matrix(.21429 0 0 .500016 90.8575 491.165)" gradientUnits="userSpaceOnUse" x1="117.71875" x2="117.71875" xlink:href="#h" y1="976.30396" y2="992.23761"/><linearGradient id="j" gradientTransform="matrix(.250003 0 0 .500016 86.7504 491.165)" gradientUnits="userSpaceOnUse" x1="117.71875" x2="117.71875" xlink:href="#h" y1="982.36218" y2="989.40918"/><linearGradient id="k" gradientTransform="matrix(.21429 0 0 .500016 90.8575 492.165)" gradientUnits="userSpaceOnUse" x1="117.71875" x2="117.71875" xlink:href="#h" y1="976.30396" y2="992.23761"/><linearGradient id="l" gradientTransform="matrix(.785729 0 0 .500016 25.1414 493.165)" gradientUnits="userSpaceOnUse" x1="117.71875" x2="117.71875" xlink:href="#h" y1="976.30396" y2="992.23761"/><linearGradient id="m" gradientTransform="matrix(.571439 0 0 .500016 49.785 494.165)" gradientUnits="userSpaceOnUse" x1="117.71875" x2="117.71875" xlink:href="#h" y1="976.30396" y2="992.23761"/><linearGradient id="n" gradientTransform="matrix(.777787 0 0 .833343 49.998 -130.099)" gradientUnits="userSpaceOnUse" x1="208.96875" x2="208.96875" xlink:href="#h" y1="-780.60657" y2="-769.82318"/><linearGradient id="o" gradientTransform="matrix(.625008 0 0 .499999 80.2482 -488.819)" gradientUnits="userSpaceOnUse" x1="230" x2="230" xlink:href="#c" y1="-581.63782" y2="-578.63782"/><linearGradient id="p" gradientTransform="matrix(.875 0 0 .8 -84.8751 -1719.04)" gradientUnits="userSpaceOnUse" x1="345" x2="345" xlink:href="#q" y1="1173" y2="1178"/><linearGradient id="q"><stop offset="0" stop-color="#666"/><stop offset="1" stop-color="#333"/></linearGradient><linearGradient id="r" gradientTransform="matrix(0 -.02724757 .02664032 0 -1.99601 12.952553)" gradientUnits="userSpaceOnUse" x1="459.03448" x2="35.310345" y1="419.23337" y2="207.36522"><stop offset="0" stop-color="#f2f2f2"/><stop offset="1" stop-color="#f9f9f9"/></linearGradient><linearGradient id="s" gradientTransform="matrix(0 -.03065352 .03080287 0 -3.30013 13.794412)" gradientUnits="userSpaceOnUse" x1="57.281277" x2="437.06363" xlink:href="#q" y1="384.33087" y2="242.26747"/><path d="m4.162403.39687233c-.5881423-.00895879-1.0513696.01354138-1.4324701.07751472-.3811032.06397201-.6929569.18396453-.9213929.411861-.2284333.22789675-.3490013.53961005-.4123769.92087405-.0633757.3812644-.0757476.845434-.0728636 1.4350545v3.2401124 3.2416626c-.00286.5887144.00955 1.0526494.072864 1.4335034.063376.381265.1839436.692978.4123769.920875.228436.227896.5402897.34789.9213929.411861.3811032.06397.844259.07752 1.4324701.07752h4.3759596c.5882111 0 1.0511261-.01352 1.4314382-.07752.3803118-.064.6912128-.184399.9188048-.412377.227595-.227978.347451-.53947.411345-.920359.06389-.380886.07752-.844114.07752-1.4335034v-3.2416626-3.175l-2.8391084-2.8437541z" opacity=".1"/><path d="m4.1018795.2645812c-2.3994956 0-2.6576787.24525525-2.6459179 2.6378784v3.3152466 3.3152469c-.011774 2.3926219.2464223 2.6378779 2.6459179 2.6378779h4.4973796c2.3994959 0 2.6459179-.245227 2.6459179-2.6378779v-3.3152469l-.000182-3.247159-2.7192266-2.705966z" fill="url(#s)"/><path d="m4.4057297.926039c-2.2886802 0-2.2886802 0-2.2883601 2.3447809v2.9468858 2.9468857c-.0003201 2.3447806-.0003201 2.3447806 2.2883601 2.3447806h3.8896263c2.28836 0 2.28836 0 2.28836-2.3447806v-2.9468857-3.175l-2.1166665-2.1166667z" fill="url(#r)"/><g enable-background="new" transform="matrix(.26458333 0 0 .26458333 -84.666201 -16.007281)"><path d="m332.00424 77.999939h11v9.000017h-11z" fill="url(#b)" opacity=".5"/><path d="m345.00424 77.999939h11v9.000017h-11z" fill="url(#d)" opacity=".5"/><path d="m345.00424 88.999939h11v9.000017h-11z" fill="url(#e)" opacity=".5"/><path d="m332.00424 88.999939h11v9.000017h-11z" fill="url(#f)" opacity=".5"/><g fill="url(#g)" transform="matrix(1.99996 0 0 2 101.0043 -1886.72224)"><path d="m115.50111 983.36108h1.50003v.500016h-1.50003z" fill="url(#i)"/><path d="m115.50111 982.36108h1.50002v.500016h-1.50002z" fill="url(#j)"/><path d="m115.50111 984.36108h1.50003v.500016h-1.50003z" fill="url(#k)"/><path d="m115.50111 985.36108h5.500103v.500016h-5.500103z" fill="url(#l)"/><path d="m115.50111 986.36108h4.000074v.500016h-4.000074z" fill="url(#m)"/></g><g transform="matrix(.999981 0 0 1 118.0043 858.63776)"><path d="m217.99992-780.63782h7.000081v5.000057h-7.000081z" fill="url(#n)"/><path d="m218.99994-779.63776h5.000062v2.999996h-5.000062z" fill="url(#o)"/><path d="m220.99994-779.13776-2 2v.5h4.99996v-.5z" fill="url(#p)"/></g><g fill="url(#g)" transform="matrix(1.99996 0 0 2 114.0043 -1886.72224)"><path d="m115.50111 983.36108h1.50003v.500016h-1.50003z" fill="url(#i)"/><path d="m115.50111 982.36108h1.50002v.500016h-1.50002z" fill="url(#j)"/><path d="m115.50111 984.36108h1.50003v.500016h-1.50003z" fill="url(#k)"/><path d="m115.50111 985.36108h5.500103v.500016h-5.500103z" fill="url(#l)"/><path d="m115.50111 986.36108h4.000074v.500016h-4.000074z" fill="url(#m)"/></g><g transform="matrix(.999981 0 0 1 131.0043 858.63776)"><path d="m217.99992-780.63782h7.000081v5.000057h-7.000081z" fill="url(#n)"/><path d="m218.99994-779.63776h5.000062v2.999996h-5.000062z" fill="url(#o)"/><path d="m220.99994-779.13776-2 2v.5h4.99996v-.5z" fill="url(#p)"/></g><g fill="url(#g)" transform="matrix(1.99996 0 0 2 114.0043 -1875.72224)"><path d="m115.50111 983.36108h1.50003v.500016h-1.50003z" fill="url(#i)"/><path d="m115.50111 982.36108h1.50002v.500016h-1.50002z" fill="url(#j)"/><path d="m115.50111 984.36108h1.50003v.500016h-1.50003z" fill="url(#k)"/><path d="m115.50111 985.36108h5.500103v.500016h-5.500103z" fill="url(#l)"/><path d="m115.50111 986.36108h4.000074v.500016h-4.000074z" fill="url(#m)"/></g><g transform="matrix(.999981 0 0 1 131.0043 869.63776)"><path d="m217.99992-780.63782h7.000081v5.000057h-7.000081z" fill="url(#n)"/><path d="m218.99994-779.63776h5.000062v2.999996h-5.000062z" fill="url(#o)"/><path d="m220.99994-779.13776-2 2v.5h4.99996v-.5z" fill="url(#p)"/></g><g fill="url(#g)" transform="matrix(1.99996 0 0 2 101.0043 -1875.72224)"><path d="m115.50111 983.36108h1.50003v.500016h-1.50003z" fill="url(#i)"/><path d="m115.50111 982.36108h1.50002v.500016h-1.50002z" fill="url(#j)"/><path d="m115.50111 984.36108h1.50003v.500016h-1.50003z" fill="url(#k)"/><path d="m115.50111 985.36108h5.500103v.500016h-5.500103z" fill="url(#l)"/><path d="m115.50111 986.36108h4.000074v.500016h-4.000074z" fill="url(#m)"/></g><g transform="matrix(.999981 0 0 1 118.0043 869.63776)"><path d="m217.99992-780.63782h7.000081v5.000057h-7.000081z" fill="url(#n)"/><path d="m218.99994-779.63776h5.000062v2.999996h-5.000062z" fill="url(#o)"/><path d="m220.99994-779.13776-2 2v.5h4.99996v-.5z" fill="url(#p)"/></g><path d="m332.00424 77.999939h11v9.000017h-11z" fill="url(#b)" opacity=".5"/><path d="m345.00424 77.999939h11v9.000017h-11z" fill="url(#d)" opacity=".5"/><path d="m345.00424 88.999939h11v9.000017h-11z" fill="url(#e)" opacity=".5"/><path d="m332.00424 88.999939h11v9.000017h-11z" fill="url(#f)" opacity=".5"/><g fill="url(#g)" transform="matrix(1.99996 0 0 2 101.0043 -1886.72224)"><path d="m115.50111 983.36108h1.50003v.500016h-1.50003z" fill="url(#i)"/><path d="m115.50111 982.36108h1.50002v.500016h-1.50002z" fill="url(#j)"/><path d="m115.50111 984.36108h1.50003v.500016h-1.50003z" fill="url(#k)"/><path d="m115.50111 985.36108h5.500103v.500016h-5.500103z" fill="url(#l)"/><path d="m115.50111 986.36108h4.000074v.500016h-4.000074z" fill="url(#m)"/></g><g transform="matrix(.999981 0 0 1 118.0043 858.63776)"><path d="m217.99992-780.63782h7.000081v5.000057h-7.000081z" fill="url(#n)"/><path d="m218.99994-779.63776h5.000062v2.999996h-5.000062z" fill="url(#o)"/><path d="m220.99994-779.13776-2 2v.5h4.99996v-.5z" fill="url(#p)"/></g><g fill="url(#g)" transform="matrix(1.99996 0 0 2 114.0043 -1886.72224)"><path d="m115.50111 983.36108h1.50003v.500016h-1.50003z" fill="url(#i)"/><path d="m115.50111 982.36108h1.50002v.500016h-1.50002z" fill="url(#j)"/><path d="m115.50111 984.36108h1.50003v.500016h-1.50003z" fill="url(#k)"/><path d="m115.50111 985.36108h5.500103v.500016h-5.500103z" fill="url(#l)"/><path d="m115.50111 986.36108h4.000074v.500016h-4.000074z" fill="url(#m)"/></g><g transform="matrix(.999981 0 0 1 131.0043 858.63776)"><path d="m217.99992-780.63782h7.000081v5.000057h-7.000081z" fill="url(#n)"/><path d="m218.99994-779.63776h5.000062v2.999996h-5.000062z" fill="url(#o)"/><path d="m220.99994-779.13776-2 2v.5h4.99996v-.5z" fill="url(#p)"/></g><g fill="url(#g)" transform="matrix(1.99996 0 0 2 114.0043 -1875.72224)"><path d="m115.50111 983.36108h1.50003v.500016h-1.50003z" fill="url(#i)"/><path d="m115.50111 982.36108h1.50002v.500016h-1.50002z" fill="url(#j)"/><path d="m115.50111 984.36108h1.50003v.500016h-1.50003z" fill="url(#k)"/><path d="m115.50111 985.36108h5.500103v.500016h-5.500103z" fill="url(#l)"/><path d="m115.50111 986.36108h4.000074v.500016h-4.000074z" fill="url(#m)"/></g><g transform="matrix(.999981 0 0 1 131.0043 869.63776)"><path d="m217.99992-780.63782h7.000081v5.000057h-7.000081z" fill="url(#n)"/><path d="m218.99994-779.63776h5.000062v2.999996h-5.000062z" fill="url(#o)"/><path d="m220.99994-779.13776-2 2v.5h4.99996v-.5z" fill="url(#p)"/></g><g fill="url(#g)" transform="matrix(1.99996 0 0 2 101.0043 -1875.72224)"><path d="m115.50111 983.36108h1.50003v.500016h-1.50003z" fill="url(#i)"/><path d="m115.50111 982.36108h1.50002v.500016h-1.50002z" fill="url(#j)"/><path d="m115.50111 984.36108h1.50003v.500016h-1.50003z" fill="url(#k)"/><path d="m115.50111 985.36108h5.500103v.500016h-5.500103z" fill="url(#l)"/><path d="m115.50111 986.36108h4.000074v.500016h-4.000074z" fill="url(#m)"/></g><g transform="matrix(.999981 0 0 1 118.0043 869.63776)"><path d="m217.99992-780.63782h7.000081v5.000057h-7.000081z" fill="url(#n)"/><path d="m218.99994-779.63776h5.000062v2.999996h-5.000062z" fill="url(#o)"/><path d="m220.99994-779.13776-2 2v.5h4.99996v-.5z" fill="url(#p)"/></g></g><path d="m1.5878828 6.2177057v3.2416625c-.011456 2.3394528.2397892 2.5791708 2.5745202 2.5791708h4.3759596c2.3347314 0 2.5745204-.239691 2.5745204-2.5791708v-3.2416625z" fill="#fff" opacity=".2"/><path d="m6.3503828.39687233v11.64166667h2.1879798c2.3347314 0 2.5745204-.239691 2.5745204-2.5791708v-3.2416625-3.175l-2.6458335-2.64583337z" fill="#fff" opacity=".1"/><path d="m4.162403.132289c-.5882111 0-1.0513696.0135414-1.4324701.0775147-.3811032.06397203-.6929569.18396454-.9213929.41186101-.2284333.22789674-.3490013.53961009-.4123769.92087409-.0633757.3812643-.0757476.845434-.0728636 1.4350545v3.2401124 3.2416625c-.00286.5887148.00955 1.0526498.072864 1.4335038.063376.381265.1839436.692978.4123769.920874.228436.227897.5402897.34789.9213929.411861.3811032.06397.844259.07752 1.4324701.07752h4.3759596c.5882111 0 1.0511261-.01352 1.4314382-.07752.3803118-.064.6912128-.184398.9188048-.412377.227595-.227978.347451-.539469.411345-.920358.06389-.380886.07752-.844114.07752-1.4335038v-3.2416625-3.2845539l-2.8008682-2.8008628zm0 .26458333h4.3046465l2.6458335 2.64583337v3.175 3.2416625c0 2.3394798-.239789 2.5791708-2.5745204 2.5791708h-4.3759596c-2.334731 0-2.5859767-.239718-2.5745202-2.5791708v-3.2416625-3.2416626c-.0114432-2.33945377.2397892-2.57917077 2.5745202-2.57917077z" opacity=".4"/><path d="m4.162403.39687233c-2.334731 0-2.5859634.239717-2.5745202 2.57917077v3.2416626 3.2416625c-.011456 2.3394528.2397892 2.5791708 2.5745202 2.5791708h4.3759596c2.3347314 0 2.5745204-.239691 2.5745204-2.5791708v-3.2416625-3.175h-.264583v3.175 3.2416625c0 .5803508-.01625 1.0241218-.07028 1.3461698-.05403.322051-.139878.509149-.264068.633556-.12419.124394-.310716.21051-.6320021.264583-.3212889.05406-.7644342.07028-1.3435886.07028h-4.3759583c-.5791544 0-1.0228501-.01619-1.3451391-.07028-.3222863-.054105-.5103203-.140097-.6351031-.264583-.1247802-.124495-.2105978-.311367-.2640648-.633037-.0534696-.32167-.0684715-.765549-.0656299-1.3456553v-.0005292-3.2421668-3.2421793-.0005292c-.002831-.5801064.0121709-1.0239838.0656299-1.3456544.0534697-.3216707.1392846-.5085498.2640648-.63303629.1247801-.12448646.3133354-.21048398.6356217-.26458333.3222863-.05407448.7654661-.07026751 1.3446205-.07026751h4.3046465v-.26458334z" fill="url(#a)" opacity=".4"/><path d="m11.112883 3.307289v-.2645833l-2.6458335-2.64583337h-.2645834v1.11364557.04267.022918c0 1.506003.2016019 1.7382252 1.7110604 1.7308441z" opacity=".6"/><path d="m11.112883 3.042367-2.6458335-2.6454952v.9813242.04267.022918c0 1.5060031.069406 1.6059637 1.5788645 1.5985826z" fill="#888"/></svg>