<svg height="48" viewBox="0 0 12.7 12.7" width="48" xmlns="http://www.w3.org/2000/svg" xmlns:xlink="http://www.w3.org/1999/xlink"><linearGradient id="a" gradientUnits="userSpaceOnUse" x1="6.350383" x2="6.350383" y1=".396869" y2="12.038536"><stop offset="0" stop-color="#fff"/><stop offset=".125" stop-color="#fff" stop-opacity=".098039"/><stop offset=".92500001" stop-color="#fff" stop-opacity=".098039"/><stop offset="1" stop-color="#fff" stop-opacity=".498039"/></linearGradient><linearGradient id="b" gradientUnits="userSpaceOnUse" x1="1180.158" x2="1180.158" y1="688.52631" y2="658.13159"><stop offset="0" stop-color="#f09e6f"/><stop offset="1" stop-color="#f9cfb5"/></linearGradient><linearGradient id="c" gradientUnits="userSpaceOnUse" x1="1013.59375" x2="1013.59375" y1="873.137006" y2="856.62635"><stop offset="0" stop-color="#c99c00"/><stop offset="1" stop-color="#876900"/></linearGradient><linearGradient id="d" gradientTransform="matrix(.990412 0 0 .93163 -143.859 -1696.68)" gradientUnits="userSpaceOnUse" x1="1162.5912" x2="1162.5912" y1="901.15546" y2="887.43439"><stop offset="0" stop-color="#f5ce53"/><stop offset="1" stop-color="#fde9a9"/></linearGradient><linearGradient id="e" gradientTransform="matrix(0 -.02724757 .02664032 0 -1.99601 12.95255)" gradientUnits="userSpaceOnUse" x1="459.03448" x2="35.310345" y1="419.23337" y2="207.36522"><stop offset="0" stop-color="#f2f2f2"/><stop offset="1" stop-color="#f9f9f9"/></linearGradient><linearGradient id="f" gradientTransform="matrix(0 -.03065352 .03080287 0 -3.30013 13.794409)" gradientUnits="userSpaceOnUse" x1="52.965569" x2="437.06363" y1="386.30783" y2="242.26747"><stop offset="0" stop-color="#d98027"/><stop offset="1" stop-color="#be5e0f"/></linearGradient><path d="m4.162403.39687003c-.5881423-.0089588-1.0513696.0135413-1.4324701.0775147-.3811032.063972-.6929569.1839645-.9213929.411861-.2284333.22789667-.3490013.53960997-.4123769.92087397-.0633756.3812644-.0757476.845434-.0728636 1.4350545v3.2401124 3.2416627c-.00286.5887137.00955 1.0526487.072864 1.4335027.063376.381265.1839436.692978.4123769.920875.228436.227896.5402897.34789.9213929.411861.3811032.06397.844259.07752 1.4324701.07752h4.3759596c.5882111 0 1.0511261-.01352 1.4314382-.07752.3803118-.064.6912128-.184399.9188048-.412377.227594-.227978.347451-.53947.411345-.920359.06389-.380886.07752-.844114.07752-1.4335027v-3.2416627-3.175l-2.8391084-2.84375407z" opacity=".1"/><path d="m4.1018795.26457883c-2.3994956 0-2.6576787.2452553-2.6459179 2.63787837v3.3152466 3.3152465c-.011774 2.3926217.2464223 2.6378777 2.6459179 2.6378777h4.4973796c2.3994949 0 2.6459179-.245227 2.6459179-2.6378777v-3.3152465l-.000183-3.247159-2.7192256-2.70596597z" fill="url(#f)"/><path d="m4.4057297.92603663c-2.2886802 0-2.2886802 0-2.2883601 2.34478087v2.9468858 2.946886c-.0003201 2.3447797-.0003201 2.3447797 2.2883601 2.3447797h3.8896263c2.28836 0 2.28836 0 2.28836-2.3447797v-2.946886-3.175l-2.1166665-2.11666667z" fill="url(#e)"/><g enable-background="new" transform="matrix(.26458333 0 0 .26458333 -260.87874 236.57343)"><circle cx="1184.5" cy="675.5" fill="url(#b)" r="16.5" stroke="#a33e03" stroke-width="2.35714" transform="matrix(.424242 0 0 .424242 502.985 -1156.71)"/><circle cx="1005.499939" cy="-870.133559" fill="#f09e6f" opacity=".6" r="5.499995"/><path d="m1010.5 862.13782h11.000001v11.000001h-11.000001z" fill="url(#c)" stroke="#876900" stroke-linecap="round" stroke-linejoin="round" stroke-width=".999999" transform="scale(1 -1)"/><path d="m1012-871.63782h8.000001v8.000002h-8.000001z" fill="#c99c00" opacity=".6"/><path d="m1015.5-857.1378h-15.99999l7.99999-13z" fill="url(#d)" stroke="#c99c00" stroke-linecap="round" stroke-linejoin="round"/><path d="m998.5-858.13782h2v2h-2z" fill="#92e285" opacity=".75" stroke="#18a303"/><path d="m1013.3309-858.1378h-11.6618l5.8309-9.5z" fill="#f5ce53" opacity=".6"/><path d="m1014.5-858.13782h2v2h-2z" fill="#92e285" opacity=".75" stroke="#18a303"/><path d="m1006.5-871.13782h2v2h-2z" fill="#92e285" opacity=".75" stroke="#18a303"/><path d="m1012.43 862.1378 9.07.00002v11h-11l.07-8z" fill="none" stroke="#876900" stroke-linecap="round" stroke-linejoin="round" stroke-width=".999999" transform="scale(1 -1)"/></g><path d="m1.5878828 6.2177033v3.241663c-.011456 2.3394517.2397893 2.5791697 2.5745202 2.5791697h4.3759596c2.3347314 0 2.5745194-.239691 2.5745194-2.5791697v-3.241663z" fill="#fff" opacity=".2"/><path d="m6.3503828.39687003v11.64166597h2.1879798c2.3347314 0 2.5745194-.239691 2.5745194-2.5791697v-3.241663-3.175l-2.6458325-2.64583327z" fill="#fff" opacity=".1"/><path d="m4.162403.13228663c-.5882111 0-1.0513696.013541-1.4324701.077515-.3811032.0639718-.6929569.1839643-.9213929.4118607-.2284333.2278968-.3490013.53961007-.4123769.92087407-.0633756.3812643-.0757476.845434-.0728636 1.4350545v3.2401124 3.241663c-.00286.5887137.00955 1.0526487.072864 1.4335027.063376.381265.1839436.692978.4123769.920874.228436.227897.5402897.34789.9213929.411861.3811032.06397.844259.07752 1.4324701.07752h4.3759596c.5882111 0 1.0511261-.01352 1.4314382-.07752.3803118-.064.6912128-.184398.9188048-.412377.227594-.227978.347451-.539469.411345-.920358.06389-.380886.07752-.844114.07752-1.4335027v-3.241663-3.2845539l-2.8008682-2.80086277zm0 .2645834h4.3046465l2.6458325 2.64583327v3.175 3.241663c0 2.3394787-.239788 2.5791697-2.5745194 2.5791697h-4.3759596c-2.3347309 0-2.5859766-.239718-2.5745202-2.5791697v-3.241663-3.2416626c-.0114432-2.33945367.2397893-2.57917067 2.5745202-2.57917067z" opacity=".4"/><path d="m4.162403.39687003c-2.3347309 0-2.5859634.239717-2.5745202 2.57917067v3.2416626 3.241663c-.011456 2.3394517.2397893 2.5791697 2.5745202 2.5791697h4.3759596c2.3347314 0 2.5745194-.239691 2.5745194-2.5791697v-3.241663-3.175h-.264582v3.175 3.241663c0 .5803497-.01625 1.0241207-.07028 1.3461687-.05403.322051-.139878.509149-.264068.633556-.12419.124394-.310716.21051-.6320021.264583-.3212889.05406-.7644342.07028-1.3435886.07028h-4.3759583c-.5791544 0-1.0228501-.01619-1.3451391-.07028-.3222863-.054105-.5103203-.140097-.6351031-.264583-.1247802-.124495-.2105978-.311367-.2640648-.633037-.05347-.32167-.068472-.765549-.06563-1.3456547v-.000529-3.242167-3.2421793-.0005292c-.0028309-.5801064.012171-1.0239838.06563-1.3456544.0534697-.3216707.1392846-.5085498.2640648-.63303627.1247801-.1244864.3133354-.2104839.6356217-.2645833.3222863-.0540745.7654661-.0702675 1.3446205-.0702675h4.3046465v-.2645833z" fill="url(#a)" opacity=".4"/><path d="m11.112882 3.3072866v-.2645833l-2.6458325-2.64583327h-.2645834v1.11364547.04267.022918c0 1.506003.2016019 1.7382252 1.7110604 1.7308441z" fill="#7c3216" opacity=".6"/><path d="m11.112882 3.0423646-2.6458325-2.64549517v.98132417.04267.022918c0 1.5060031.069406 1.6059637 1.5788645 1.5985826z" fill="#d98027"/></svg>