<svg height="48" viewBox="0 0 12.699375 12.699376" width="48" xmlns="http://www.w3.org/2000/svg" xmlns:xlink="http://www.w3.org/1999/xlink"><linearGradient id="a" gradientUnits="userSpaceOnUse" x1="6.350072" x2="6.350072" y1=".396856" y2="12.03795"><stop offset="0" stop-color="#fff"/><stop offset=".125" stop-color="#fff" stop-opacity=".098039"/><stop offset=".92500001" stop-color="#fff" stop-opacity=".098039"/><stop offset="1" stop-color="#fff" stop-opacity=".498039"/></linearGradient><linearGradient id="b" gradientTransform="matrix(0 -.02997086 .02997 0 -3.039509 13.625372)" gradientUnits="userSpaceOnUse" x1="459.03448" x2="35.310345" y1="419.23337" y2="207.36522"><stop offset="0" stop-color="#f2f2f2"/><stop offset="1" stop-color="#f9f9f9"/></linearGradient><path d="m4.1621982.39685664c-.5881134-.0089584-1.0513178.0135407-1.4323996.0775109-.3810844.0639688-.6929228.1839554-.9213476.4118407-.228422.22788546-.3489841.53958346-.4123566.92082876-.0633725.3812456-.0757438.8453924-.07286 1.4349839v3.239953 3.2415034c-.00286.5886857.00955 1.0525967.07286 1.4334327.063373.381246.1839346.692944.4123566.920829.2284248.227885.5402632.347873.9213476.411841.3810845.06397.8442175.07751 1.4323996.07751h4.3757445c.5881822 0 1.0510744-.01352 1.4313678-.07751.3802935-.064.6911795-.18439.9187605-.412357.227583-.227967.347433-.539443.411324-.920313.06389-.380867.07751-.844073.07751-1.4334327v-3.2415034-3.1748438l-2.8389623-2.84361426z" opacity=".1"/><path d="m4.1623596.39685664c-2.3346161 0-2.5858176.2397933-2.574375 2.57913196v3.241415 3.2414147c-.011456 2.3393387.2397589 2.5791327 2.574375 2.5791327h4.3757789c2.3346165 0 2.5743755-.239767 2.5743755-2.5791327v-3.2414147l-.000178-3.1748438-2.6457029-2.64570316z" fill="none" opacity=".2" stroke="#000" stroke-width=".529141"/><path d="m4.1623596.39685664c-2.3346161 0-2.5858176.2397933-2.574375 2.57913196v3.241415 3.2414147c-.011456 2.3393387.2397589 2.5791327 2.574375 2.5791327h4.3757789c2.3346165 0 2.5743755-.239767 2.5743755-2.5791327v-3.2414147l-.000178-3.1748438-2.6457029-2.64570316z" fill="url(#b)"/><path d="m7.4083518 4.6299817v.2645703h1.8519922v-.2645703zm0 .793711v.2645703h1.8519922v-.2645703zm0 .7937109v.2645703h1.8519922v-.2645703zm0 .793711v.2645703h1.8519922v-.2645703zm0 .7937107v.264571h1.8519922v-.264571zm-3.7039846.793711v.264571h5.5559768v-.264571zm-.2645703.793711v.264571h5.8205471v-.264571zm0 .7937107v.264571h3.7039845v-.264571z" fill="#cdcdcd"/><path d="m5.0272189 8.0693963a1.5874219 1.5874219 0 0 1 -1.587422-1.5874226 1.5874219 1.5874219 0 0 1 1.587422-1.5874217v.8819026.5467954.1587237h.1587236.5467981.8819002a1.5874219 1.5874219 0 0 1 -1.5874219 1.5874226z" fill="#fda463"/><path d="m6.8792111 6.2174036a1.5874219 1.5874219 0 0 0 -1.5874219-1.5874219v1.5874219h.1587025.5468404z" fill="#37a6e6"/><path d="m4.1621982.39685664c-2.3346161 0-2.5858361.2397052-2.5743935 2.57904386v3.2415031 3.2415037c-.011456 2.3393377.2397774 2.5790437 2.5743935 2.5790437h4.3757445c2.3346163 0 2.5743933-.23968 2.5743933-2.5790437v-3.2415037-3.1748438h-.26457v3.1748438 3.2415037c0 .5803217-.01624 1.0240707-.07028 1.3461027-.05402.322035-.13987.509124-.264054.633525-.124184.124387-.310701.2105-.6319716.26457-.321273.05406-.7643966.07028-1.3435225.07028h-4.3757397c-.5791259 0-1.0227997-.01619-1.3450729-.07028-.3222704-.0541-.5102952-.14009-.6350719-.26457-.124774-.124489-.2105874-.311352-.2640517-.633006-.0534671-.321654-.0684682-.765511-.0656267-1.3455887v-.000529-3.2420077-3.2420198-.0005292c-.00283-.5800778.01217-1.0239334.065627-1.3455882.053467-.3216548.1392777-.5085248.2640517-.63300506.124774-.1244804.31332-.2104737.6355905-.2645704.3222705-.0540718.7654284-.070264 1.3445543-.070264h4.3044349v-.2645703z" fill="url(#a)" opacity=".4"/><path d="m11.112336 3.3071301v-.2645703l-2.6457029-2.64570316h-.2645704v1.11359066.042668.022917c0 1.505929.201592 1.7381397 1.7109763 1.730759z" opacity=".2"/><path d="m11.112336 3.0422211-2.6457029-2.64536506v.98127596.042668.022917c0 1.505929.069402 1.6058848 1.5787859 1.598504z" fill="#faf8f6"/></svg>