<svg height="48" viewBox="0 0 12.699375 12.699376" width="48" xmlns="http://www.w3.org/2000/svg" xmlns:xlink="http://www.w3.org/1999/xlink"><linearGradient id="a" gradientUnits="userSpaceOnUse" x1="344" x2="344" y1="62" y2="106"><stop offset="0" stop-color="#fff"/><stop offset=".125" stop-color="#fff" stop-opacity=".098039"/><stop offset=".92500001" stop-color="#fff" stop-opacity=".098039"/><stop offset="1" stop-color="#fff" stop-opacity=".498039"/></linearGradient><clipPath id="b"><path d="m335.73108 62c-8.82418 0-9.77365.90635-9.7304 9.74838v12.25162 12.25162c-.0433 8.84203.90622 9.74838 9.7304 9.74838h16.53919c8.82418 0 9.7304-.90625 9.7304-9.74838v-12.25162-12.25162c0-8.84213-.90622-9.74838-9.7304-9.74838z"/></clipPath><linearGradient id="c" gradientTransform="matrix(0 -.02997086 .02997 0 -3.039332 13.567585)" gradientUnits="userSpaceOnUse" x1="459.03448" x2="35.310345" y1="419.23337" y2="207.36522"><stop offset="0" stop-color="#f2f2f2"/><stop offset="1" stop-color="#f9f9f9"/></linearGradient><path d="m4.1621984.39685644c-.5881821 0-1.0513178.013541-1.4323996.077511-.3810844.063969-.6929229.1839555-.9213476.4118408-.2284221.22788546-.3489841.53958346-.4123567.92082876-.063373.3812456-.075744.8453924-.07286 1.4349839v3.2399529 3.2415032c-.00286.588686.00955 1.052597.07286 1.433433.063373.381246.1839346.692944.4123567.920829.2284247.227885.5402632.347873.9213476.411841.3810845.06397.8442175.07751 1.4323996.07751h4.3757445c.5881822 0 1.0510744-.01352 1.4313674-.07751.3802937-.064.6911797-.18439.9187607-.412357.227583-.227967.347433-.539443.411324-.920313.06389-.380867.07751-.844073.07751-1.433433v-3.2415032-3.2415031c0-.5893606-.01362-1.0525645-.07751-1.4334338-.06389-.3808691-.183741-.6923443-.411324-.92031206-.227581-.2279676-.538467-.3483608-.9187607-.4123575-.380293-.063997-.8431852-.077511-1.4313674-.077511z" opacity=".1"/><path d="m4.1623598.39685644c-2.3346161 0-2.5858177.2397933-2.574375 2.57913206v3.241415 3.2414151c-.011456 2.3393384.2397589 2.5791324 2.574375 2.5791324h4.3757789c2.3346163 0 2.5743743-.239767 2.5743743-2.5791324v-3.2414151-3.241415c0-2.33936516-.239758-2.57913206-2.5743743-2.57913206z" fill="none" opacity=".2" stroke="#000" stroke-width=".529141"/><path d="m4.1625371.33907004c-2.3346162 0-2.5858177.2397933-2.5743751 2.57913206v3.241415 3.2414151c-.011456 2.3393378.2397589 2.5791308 2.5743751 2.5791308h4.3757788c2.3346161 0 2.5743751-.239767 2.5743751-2.5791308v-3.2414151-3.241415c0-2.33936516-.239759-2.57913206-2.5743751-2.57913206z" fill="url(#c)"/><path d="m7.408352 3.30713v.2645703h1.8519922v-.2645703zm0 .7937109v.2645704h1.8519922v-.2645704zm0 .793711v.2645703h1.8519922v-.2645703zm0 .793711v.2645703h1.8519922v-.2645703zm0 .7937109v.2645704h1.8519922v-.2645704zm-3.7039846.793711v.2645703h5.5559768v-.2645703zm-.2645703.793711v.2645703h5.8205471v-.2645703zm0 .793711v.2645703h3.7039845v-.2645703z" fill="#cdcdcd"/><path d="m5.0272191 6.7465439a1.5874219 1.5874219 0 0 1 -1.587422-1.5874219 1.5874219 1.5874219 0 0 1 1.587422-1.5874217v.8819026.5467954.1587237h.1587236.5467981.8819002a1.5874219 1.5874219 0 0 1 -1.5874219 1.5874219z" fill="#fda463"/><path d="m6.8792113 4.8945519a1.5874219 1.5874219 0 0 0 -1.5874219-1.5874219v1.5874219h.1587025.5468404z" fill="#37a6e6"/><path d="m1.5878048 6.2174035v3.2415032c-.0114558 2.3393383.2397775 2.5790443 2.5743936 2.5790443h4.3757445c2.3346161 0 2.5743931-.23968 2.5743931-2.5790443v-3.2415032z" fill="#fff" opacity=".2"/><path d="m6.3500707.39685644v11.64109456h2.1878722c2.3346161 0 2.5743931-.23968 2.5743931-2.5790443v-3.2415032-3.2415031c0-2.33936516-.239777-2.57904396-2.5743931-2.57904396z" fill="#fff" opacity=".1"/><path clip-path="url(#b)" d="m335.73108 62c-8.82418 0-9.77365.90635-9.7304 9.74838v12.25162 12.25162c-.0433 8.84203.90622 9.74838 9.7304 9.74838h16.53919c8.82418 0 9.7304-.90625 9.7304-9.74838v-12.25162-12.25162c0-8.84213-.90622-9.74838-9.7304-9.74838z" fill="none" opacity=".4" stroke="url(#a)" stroke-width="2" transform="matrix(.26457032 0 0 .26457032 -84.66212 -16.006504)"/></svg>