<svg height="48" viewBox="0 0 12.699375 12.699375" width="48" xmlns="http://www.w3.org/2000/svg" xmlns:xlink="http://www.w3.org/1999/xlink"><linearGradient id="a" gradientUnits="userSpaceOnUse" x1="6.350071" x2="6.350071" y1=".396856" y2="12.03795"><stop offset="0" stop-color="#fff"/><stop offset=".125" stop-color="#fff" stop-opacity=".098039"/><stop offset=".92500001" stop-color="#fff" stop-opacity=".098039"/><stop offset="1" stop-color="#fff" stop-opacity=".498039"/></linearGradient><linearGradient id="b" gradientTransform="matrix(0 -.02997086 .02997 0 -3.039509 13.625372)" gradientUnits="userSpaceOnUse" x1="459.03448" x2="35.310345" y1="419.23337" y2="207.36522"><stop offset="0" stop-color="#f2f2f2"/><stop offset="1" stop-color="#f9f9f9"/></linearGradient><path d="m4.1621982.39685574c-.5881133-.0089584-1.0513178.0135407-1.4323995.0775109-.3810845.0639688-.6929229.1839554-.9213476.4118407-.2284221.22788546-.3489841.53958336-.4123566.92082866-.0633726.3812456-.0757439.8453924-.0728601 1.4349839v3.2399529 3.241503c-.00286.5886862.00955 1.0525982.07286 1.4334342.063372.381246.1839345.692944.4123566.920829.2284247.227885.5402631.347873.9213476.411841.3810844.06397.8442174.07751 1.4323995.07751h4.3757443c.5881817 0 1.0510747-.01352 1.4313677-.07751.3802929-.064.6911789-.18439.9187599-.412357.227584-.227967.347434-.539443.411325-.920313.06389-.380868.07751-.844073.07751-1.4334342v-3.241503-3.1748437l-2.8389625-2.84361416z" opacity=".1"/><path d="m4.1623596.39685574c-2.334616 0-2.5858176.2397933-2.5743749 2.57913186v3.2414149 3.2414153c-.011456 2.3393392.2397589 2.5791322 2.5743749 2.5791322h4.3757787c2.3346157 0 2.5743747-.239767 2.5743747-2.5791322v-3.2414153l-.000177-3.1748438-2.6457031-2.64570296z" fill="none" opacity=".2" stroke="#000" stroke-width=".529141"/><path d="m4.1623596.39685574c-2.334616 0-2.5858176.2397933-2.5743749 2.57913186v3.2414149 3.2414153c-.011456 2.3393392.2397589 2.5791322 2.5743749 2.5791322h4.3757787c2.3346157 0 2.5743747-.239767 2.5743747-2.5791322v-3.2414153l-.000177-3.1748438-2.6457031-2.64570296z" fill="url(#b)"/><path d="m4.7627226 4.1008334v.2645703 1.8519922h-1.2985641l.1839584.3798029c.2371635.489426 1.1351813 2.285295 2.4849979 4.2284742l.2170323.312627.2170297-.312627c1.349544-1.9429132 2.2473184-3.7378972 2.4844794-4.2274402l.183961-.3798035h-1.2980482v-2.1175959zm.5291406.5291406h2.1165625v2.1175958h.9668193c-.3149683.629793-.9994355 1.901515-2.0251005 3.4285632-1.0259376-1.5273972-1.7105768-2.7996592-2.0256165-3.4295962h.9673352z" fill="#999"/><path d="m1.5878048 6.2174025v3.2415033c-.011456 2.3393382.2397774 2.5790442 2.5743934 2.5790442h4.3757443c2.3346155 0 2.5743935-.239679 2.5743935-2.5790442v-3.2415033z" fill="#fff" opacity=".2"/><path d="m6.3500704.39685574v11.64109426h2.1878721c2.3346155 0 2.5743935-.239679 2.5743935-2.5790442v-3.2415033-3.1748438l-2.6457031-2.64570296z" fill="#fff" opacity=".1"/><path d="m4.1621982.39685574c-2.334616 0-2.5858361.2397052-2.5743934 2.57904376v3.241503 3.2415033c-.011456 2.3393382.2397774 2.5790442 2.5743934 2.5790442h4.3757443c2.3346155 0 2.5743935-.239679 2.5743935-2.5790442v-3.2415033-3.1748438h-.26457v3.1748438 3.2415033c0 .5803222-.01624 1.0240722-.07027 1.3461042-.05402.322035-.139871.509123-.264055.633524-.124184.124388-.310701.2105-.6319708.264571-.321273.05406-.764397.07028-1.3435225.07028h-4.3757495c-.5791259 0-1.0227997-.01619-1.3450728-.07028-.3222705-.054102-.5102953-.14009-.6350719-.264571-.124774-.124488-.2105874-.311351-.2640518-.633005-.053467-.321654-.0684681-.765512-.0656266-1.3455902v-.000529-3.2420073-3.2420198-.0005291c-.00283-.5800778.01217-1.0239334.065627-1.3455882.053467-.3216548.1392778-.5085247.2640518-.63300506.124774-.1244803.31332-.2104736.6355904-.2645703.3222705-.0540718.7654284-.070264 1.3445543-.070264h4.3044347v-.2645703z" fill="url(#a)" opacity=".4"/><path d="m11.112336 3.3071291v-.2645704l-2.6457031-2.64570296h-.2645703v1.11359056.042668.022917c0 1.5059289.201592 1.7381397 1.7109766 1.7307589z" opacity=".2"/><path d="m11.112336 3.0422201-2.6457031-2.64536496v.98127586.042668.022917c0 1.5059289.069402 1.6058846 1.5787861 1.5985039z" fill="#faf8f6"/></svg>