<?xml version="1.0" encoding="UTF-8" standalone="no"?>
<svg
   xmlns:dc="http://purl.org/dc/elements/1.1/"
   xmlns:cc="http://creativecommons.org/ns#"
   xmlns:rdf="http://www.w3.org/1999/02/22-rdf-syntax-ns#"
   xmlns:svg="http://www.w3.org/2000/svg"
   xmlns="http://www.w3.org/2000/svg"
   xmlns:xlink="http://www.w3.org/1999/xlink"
   xmlns:sodipodi="http://sodipodi.sourceforge.net/DTD/sodipodi-0.dtd"
   xmlns:inkscape="http://www.inkscape.org/namespaces/inkscape"
   width="48"
   height="48"
   version="1.1"
   viewBox="0 0 12.699375 12.699375"
   id="svg43"
   sodipodi:docname="text-x-scss.svg"
   inkscape:version="0.92.4 (5da689c313, 2019-01-14)">
  <metadata
     id="metadata47">
    <rdf:RDF>
      <cc:Work
         rdf:about="">
        <dc:format>image/svg+xml</dc:format>
        <dc:type
           rdf:resource="http://purl.org/dc/dcmitype/StillImage" />
        <dc:title></dc:title>
      </cc:Work>
    </rdf:RDF>
  </metadata>
  <sodipodi:namedview
     pagecolor="#ffffff"
     bordercolor="#666666"
     borderopacity="1"
     objecttolerance="10"
     gridtolerance="10"
     guidetolerance="10"
     inkscape:pageopacity="0"
     inkscape:pageshadow="2"
     inkscape:window-width="1222"
     inkscape:window-height="948"
     id="namedview45"
     showgrid="false"
     inkscape:zoom="13.854167"
     inkscape:cx="24"
     inkscape:cy="24"
     inkscape:window-x="83"
     inkscape:window-y="176"
     inkscape:window-maximized="0"
     inkscape:current-layer="svg43" />
  <defs
     id="defs17">
    <linearGradient
       id="linearGradient4226"
       x1="529.65503"
       x2="-35.310001"
       y1="401.58401"
       y2="119.093"
       gradientTransform="matrix(0,-0.11988932,0.11988589,0,0.36277975,292.5483)"
       gradientUnits="userSpaceOnUse">
      <stop
         style="stop-color:#f2f2f2"
         offset="0"
         id="stop2" />
      <stop
         style="stop-color:#f9f9f9"
         offset="1"
         id="stop4" />
    </linearGradient>
    <linearGradient
       id="linearGradient4358"
       x1="88"
       x2="488"
       y1="88"
       y2="488"
       gradientUnits="userSpaceOnUse">
      <stop
         style="stop-color:#000000;stop-opacity:.58823532"
         offset="0"
         id="stop7" />
      <stop
         style="stop-color:#000000;stop-opacity:0"
         offset=".88"
         id="stop9" />
      <stop
         style="stop-color:#000000"
         offset="1"
         id="stop11" />
    </linearGradient>
    <filter
       id="filter4346"
       width="1.026"
       height="1.022"
       x="-0.0099999998"
       y="-0.0099999998"
       style="color-interpolation-filters:sRGB">
      <feGaussianBlur
         stdDeviation="2.12"
         id="feGaussianBlur14" />
    </filter>
    <clipPath
       clipPathUnits="userSpaceOnUse"
       id="clipPath994">
      <path
         style="color:#000000;display:inline;overflow:visible;visibility:visible;fill:#cdcdcd;fill-opacity:1;fill-rule:nonzero;stroke:none;stroke-width:2;stroke-miterlimit:4;stroke-dasharray:none;stroke-opacity:1;marker:none;enable-background:accumulate"
         d="m 335.73108,62 c -8.82418,0 -9.77365,0.90635 -9.7304,9.74838 V 84 96.25162 c -0.0433,8.84203 0.90622,9.74838 9.7304,9.74838 h 16.53919 c 8.82418,0 9.7304,-0.90625 9.7304,-9.74838 V 84 71.74838 C 362.00067,62.90625 361.09445,62 352.27027,62 Z"
         id="path996"
         inkscape:connector-curvature="0"
         sodipodi:nodetypes="scccssscsss" />
    </clipPath>
    <clipPath
       clipPathUnits="userSpaceOnUse"
       id="clipPath994-3">
      <path
         style="color:#000000;display:inline;overflow:visible;visibility:visible;fill:#cdcdcd;fill-opacity:1;fill-rule:nonzero;stroke:none;stroke-width:2;stroke-miterlimit:4;stroke-dasharray:none;stroke-opacity:1;marker:none;enable-background:accumulate"
         d="m 335.73108,62 c -8.82418,0 -9.77365,0.90635 -9.7304,9.74838 V 84 96.25162 c -0.0433,8.84203 0.90622,9.74838 9.7304,9.74838 h 16.53919 c 8.82418,0 9.7304,-0.90625 9.7304,-9.74838 V 84 71.74838 C 362.00067,62.90625 361.09445,62 352.27027,62 Z"
         id="path996-6"
         inkscape:connector-curvature="0"
         sodipodi:nodetypes="scccssscsss" />
    </clipPath>
    <clipPath
       clipPathUnits="userSpaceOnUse"
       id="clipPath994-7">
      <path
         style="color:#000000;display:inline;overflow:visible;visibility:visible;fill:#cdcdcd;fill-opacity:1;fill-rule:nonzero;stroke:none;stroke-width:2;stroke-miterlimit:4;stroke-dasharray:none;stroke-opacity:1;marker:none;enable-background:accumulate"
         d="m 335.73108,62 c -8.82418,0 -9.77365,0.90635 -9.7304,9.74838 V 84 96.25162 c -0.0433,8.84203 0.90622,9.74838 9.7304,9.74838 h 16.53919 c 8.82418,0 9.7304,-0.90625 9.7304,-9.74838 V 84 71.74838 C 362.00067,62.90625 361.09445,62 352.27027,62 Z"
         id="path996-5"
         inkscape:connector-curvature="0"
         sodipodi:nodetypes="scccssscsss" />
    </clipPath>
    <clipPath
       clipPathUnits="userSpaceOnUse"
       id="clipPath994-35">
      <path
         style="color:#000000;display:inline;overflow:visible;visibility:visible;fill:#cdcdcd;fill-opacity:1;fill-rule:nonzero;stroke:none;stroke-width:2;stroke-miterlimit:4;stroke-dasharray:none;stroke-opacity:1;marker:none;enable-background:accumulate"
         d="m 335.73108,62 c -8.82418,0 -9.77365,0.90635 -9.7304,9.74838 V 84 96.25162 c -0.0433,8.84203 0.90622,9.74838 9.7304,9.74838 h 16.53919 c 8.82418,0 9.7304,-0.90625 9.7304,-9.74838 V 84 71.74838 C 362.00067,62.90625 361.09445,62 352.27027,62 Z"
         id="path996-62"
         inkscape:connector-curvature="0"
         sodipodi:nodetypes="scccssscsss" />
    </clipPath>
    <linearGradient
       inkscape:collect="always"
       xlink:href="#linearGradient927"
       id="linearGradient1004"
       x1="344"
       y1="62"
       x2="344"
       y2="106"
       gradientUnits="userSpaceOnUse" />
    <linearGradient
       inkscape:collect="always"
       id="linearGradient927">
      <stop
         style="stop-color:#ffffff;stop-opacity:1;"
         offset="0"
         id="stop923" />
      <stop
         id="stop933"
         offset="0.125"
         style="stop-color:#ffffff;stop-opacity:0.09803922" />
      <stop
         id="stop931"
         offset="0.92500001"
         style="stop-color:#ffffff;stop-opacity:0.09803922" />
      <stop
         style="stop-color:#ffffff;stop-opacity:0.49803922"
         offset="1"
         id="stop925" />
    </linearGradient>
    <clipPath
       clipPathUnits="userSpaceOnUse"
       id="clipPath994-9">
      <path
         style="color:#000000;display:inline;overflow:visible;visibility:visible;fill:#cdcdcd;fill-opacity:1;fill-rule:nonzero;stroke:none;stroke-width:2;stroke-miterlimit:4;stroke-dasharray:none;stroke-opacity:1;marker:none;enable-background:accumulate"
         d="m 335.73108,62 c -8.82418,0 -9.77365,0.90635 -9.7304,9.74838 V 84 96.25162 c -0.0433,8.84203 0.90622,9.74838 9.7304,9.74838 h 16.53919 c 8.82418,0 9.7304,-0.90625 9.7304,-9.74838 V 84 71.74838 C 362.00067,62.90625 361.09445,62 352.27027,62 Z"
         id="path996-1"
         inkscape:connector-curvature="0"
         sodipodi:nodetypes="scccssscsss" />
    </clipPath>
    <linearGradient
       inkscape:collect="always"
       xlink:href="#linearGradient4338"
       id="linearGradient1024"
       gradientUnits="userSpaceOnUse"
       gradientTransform="matrix(0,-0.02997086,0.02997,0,-3.0395089,13.625371)"
       x1="459.03448"
       y1="419.23337"
       x2="35.310345"
       y2="207.36522" />
    <linearGradient
       inkscape:collect="always"
       id="linearGradient4338">
      <stop
         style="stop-color:#f2f2f2;stop-opacity:1"
         offset="0"
         id="stop4340" />
      <stop
         style="stop-color:#f9f9f9;stop-opacity:1"
         offset="1"
         id="stop4342" />
    </linearGradient>
  </defs>
  <path
     style="color:#000000;font-style:normal;font-variant:normal;font-weight:normal;font-stretch:normal;font-size:medium;line-height:normal;font-family:sans-serif;font-variant-ligatures:normal;font-variant-position:normal;font-variant-caps:normal;font-variant-numeric:normal;font-variant-alternates:normal;font-feature-settings:normal;text-indent:0;text-align:start;text-decoration:none;text-decoration-line:none;text-decoration-style:solid;text-decoration-color:#000000;letter-spacing:normal;word-spacing:normal;text-transform:none;writing-mode:lr-tb;direction:ltr;text-orientation:mixed;dominant-baseline:auto;baseline-shift:baseline;text-anchor:start;white-space:normal;shape-padding:0;clip-rule:nonzero;display:inline;overflow:visible;visibility:visible;opacity:0.1;isolation:auto;mix-blend-mode:normal;color-interpolation:sRGB;color-interpolation-filters:linearRGB;solid-color:#000000;solid-opacity:1;vector-effect:none;fill:#000000;fill-opacity:1;fill-rule:nonzero;stroke:none;stroke-width:0.52914065;stroke-linecap:butt;stroke-linejoin:miter;stroke-miterlimit:4;stroke-dasharray:none;stroke-dashoffset:0;stroke-opacity:1;marker:none;color-rendering:auto;image-rendering:auto;shape-rendering:auto;text-rendering:auto;enable-background:accumulate"
     d="m 4.1621981,0.39685604 c -0.5881821,0 -1.0513178,0.013541 -1.4323995,0.077511 C 2.3487141,0.53833604 2.0368757,0.65832254 1.808451,0.88620784 1.5800289,1.1140933 1.4594669,1.4257912 1.3960944,1.8070365 1.3327214,2.1882822 1.3203504,2.652429 1.3232344,3.2420205 v 3.2399528 3.241503 c -0.00286,0.5886857 0.00955,1.0525977 0.07286,1.4334337 0.063373,0.381246 0.1839345,0.692944 0.4123566,0.920829 0.2284247,0.227885 0.5402631,0.347873 0.9213476,0.411841 0.3810844,0.06397 0.8442174,0.07751 1.4323995,0.07751 h 4.3757443 c 0.5881821,0 1.0510744,-0.01352 1.4313678,-0.07751 0.3802928,-0.064 0.6911788,-0.18439 0.9187598,-0.412357 0.227583,-0.227967 0.347434,-0.539443 0.411325,-0.920313 0.06389,-0.380868 0.07751,-0.844073 0.07751,-1.4334337 V 6.4819732 3.2404703 c 0,-0.5893606 -0.01363,-1.0525644 -0.07751,-1.4334339 C 11.235505,1.4261673 11.115653,1.1146922 10.88807,0.88672444 10.660489,0.65875684 10.349603,0.53836364 9.9693102,0.47436694 9.5890168,0.41036994 9.1261245,0.39685594 8.5379424,0.39685594 Z"
     id="path1020"
     inkscape:connector-curvature="0"
     sodipodi:nodetypes="sccsccccccsscccscsccsss" />
  <path
     style="color:#000000;display:inline;overflow:visible;visibility:visible;opacity:0.2;fill:none;fill-opacity:1;fill-rule:nonzero;stroke:#000000;stroke-width:0.52914065;stroke-miterlimit:4;stroke-dasharray:none;stroke-opacity:1;marker:none;enable-background:accumulate"
     d="m 4.1623595,0.39685604 c -2.334616,0 -2.5858176,0.2397933 -2.5743749,2.57913206 V 6.2174029 9.4588178 C 1.5765286,11.798157 1.8277435,12.03795 4.1623595,12.03795 h 4.3757787 c 2.3346158,0 2.5743748,-0.239767 2.5743748,-2.5791322 V 6.2174029 2.9759881 c 0,-2.33936516 -0.239759,-2.57913206 -2.5743748,-2.57913206 z"
     id="path958"
     inkscape:connector-curvature="0"
     sodipodi:nodetypes="scccssscsss" />
  <path
     style="color:#000000;display:inline;overflow:visible;visibility:visible;fill:url(#linearGradient1024);fill-opacity:1;fill-rule:nonzero;stroke:none;stroke-width:0.26457033;marker:none;enable-background:accumulate"
     d="m 4.1623595,0.39685604 c -2.334616,0 -2.5858176,0.2397933 -2.5743749,2.57913206 V 6.2174029 9.4588178 C 1.5765286,11.798157 1.8277435,12.03795 4.1623595,12.03795 h 4.3757787 c 2.3346158,0 2.5743748,-0.239767 2.5743748,-2.5791322 V 6.2174029 2.9759881 c 0,-2.33936516 -0.239759,-2.57913206 -2.5743748,-2.57913206 z"
     id="path964"
     inkscape:connector-curvature="0"
     sodipodi:nodetypes="scccssscsss" />
  <path
     id="path912"
     d="M 9.5043781,6.5415065 C 9.2459405,6.5428294 9.0213335,6.6051005 8.8332531,6.6971091 8.7642479,6.5604495 8.6952374,6.438672 8.6830619,6.3493703 8.6695688,6.2451812 8.6532951,6.1815869 8.6695688,6.0571029 8.6858138,5.9326215 8.7588748,5.7553671 8.7575228,5.7418372 8.7562028,5.7283172 8.7412778,5.6647112 8.5924442,5.6633592 8.4436075,5.6620392 8.315066,5.6917732 8.3001813,5.7310112 8.2852863,5.7702522 8.2568813,5.8595537 8.2379383,5.951565 8.2122483,6.0868723 7.9402623,6.5699184 7.7846606,6.822945 7.7345956,6.724172 7.6912966,6.6375738 7.6818274,6.5685667 7.6683074,6.46438 7.6520524,6.4007863 7.6683074,6.2763023 c 0.016245,-0.1244814 0.089303,-0.3017359 0.087951,-0.315266 -0.00132,-0.013546 -0.016245,-0.077126 -0.165076,-0.078478 -0.1488366,-0.00132 -0.2773808,0.028414 -0.2922655,0.067652 -0.014895,0.03924 -0.031121,0.1312488 -0.06224,0.2205537 -0.031119,0.089302 -0.3923948,0.8957361 -0.4871057,1.1041091 -0.048713,0.1068927 -0.09066,0.1921362 -0.1204244,0.25032 0,0 0,0 0,0 0,0 -0.00132,0.00407 -0.00542,0.010821 -0.025716,0.050064 -0.040593,0.077127 -0.040593,0.077127 0,0 0,0 0,0.00132 -0.020293,0.036531 -0.041945,0.070359 -0.052769,0.070359 -0.00812,0 -0.022991,-0.097421 0.00265,-0.2300225 0.054126,-0.2800863 0.1826673,-0.7157778 0.1813127,-0.7306625 0,-0.00812 0.024367,-0.083889 -0.083887,-0.1231294 -0.1055424,-0.039238 -0.1434289,0.025716 -0.1529005,0.025716 -0.00947,0 -0.016245,0.023018 -0.016245,0.023018 0,0 0.1177179,-0.4898138 -0.2246123,-0.4898138 -0.2137807,0 -0.5087554,0.2340807 -0.6548856,0.4451628 -0.09201,0.050061 -0.2882093,0.156957 -0.4979342,0.2719667 -0.079829,0.044651 -0.1623695,0.089302 -0.2394917,0.1312489 -0.00542,-0.0054 -0.010821,-0.012168 -0.016245,-0.017594 C 4.4140797,6.548256 3.6482359,6.2356966 3.6807145,5.6416966 3.6928848,5.4252034 3.7673084,4.8569114 5.1515059,4.1668417 6.2907986,3.6053167 7.1973567,3.760919 7.3543157,4.105954 7.5789253,4.5984744 6.8685593,5.5131538 5.6913854,5.6457548 5.2421636,5.6958187 5.0067277,5.5226254 4.9471915,5.4576768 c -0.062243,-0.067653 -0.071712,-0.071714 -0.094714,-0.058181 -0.037886,0.020293 -0.013493,0.081185 0,0.1163644 0.035177,0.092009 0.179958,0.2543785 0.4248628,0.3342089 0.2164926,0.070362 0.742842,0.1095996 1.380139,-0.1366595 C 7.3705497,5.4373819 7.9280205,4.670188 7.7642938,4.0274756 7.6005724,3.3752919 6.5181148,3.1601539 5.4938334,3.5241317 4.8849487,3.7406243 4.2246473,4.0815982 3.7497198,4.5254064 3.1854865,5.0531062 3.0961835,5.5118021 3.1327153,5.7039381 3.263966,6.3858887 4.2043495,6.8296969 4.580505,7.1584954 4.5615617,7.1693163 4.5439757,7.1787879 4.529091,7.1869094 4.3410133,7.2802726 3.6238822,7.6550737 3.4452787,8.0515247 3.2423136,8.5007463 3.4777494,8.8227797 3.6333538,8.8660761 4.116401,9.0000315 4.6129836,8.7591831 4.8795356,8.3613802 5.1460928,7.9635746 5.1136221,7.4466984 4.9904911,7.2099109 c -0.00132,-0.00271 -0.00265,-0.00542 -0.00542,-0.00812 0.048707,-0.028414 0.098775,-0.058181 0.1474873,-0.086595 0.096065,-0.056829 0.1907817,-0.1095998 0.2719651,-0.1528984 -0.046001,0.1258355 -0.079829,0.2760276 -0.096068,0.4925199 -0.020293,0.2543788 0.08389,0.5845292 0.2205511,0.7144264 0.060888,0.056829 0.1326,0.058181 0.1786087,0.058181 0.1596629,0 0.2313747,-0.1326008 0.3112088,-0.2895582 0.09742,-0.1921362 0.1853685,-0.4153936 0.1853685,-0.4153936 0,0 -0.1095982,0.6034717 0.1880804,0.6034717 0.1082437,0 0.2178446,-0.1407205 0.2665573,-0.2124341 0,0.00132 0,0.00132 0,0.00132 0,0 0.00265,-0.00407 0.00812,-0.01352 0.010821,-0.017594 0.01762,-0.028414 0.01762,-0.028414 0,0 0,-0.00132 0,-0.00271 0.043298,-0.075768 0.1407185,-0.2476092 0.285502,-0.5331092 0.1867205,-0.3680361 0.3666812,-0.828081 0.3666812,-0.828081 0,0 0.016245,0.1123061 0.071712,0.2990295 0.032479,0.1095996 0.1001266,0.2300222 0.1542524,0.3463869 -0.0433,0.060887 -0.07036,0.094715 -0.07036,0.094715 0,0 0,0 0.00132,0.00132 -0.035177,0.046006 -0.073064,0.096069 -0.1150113,0.1447787 -0.1474821,0.1759001 -0.3233843,0.3775083 -0.347738,0.4356918 -0.028407,0.069007 -0.021642,0.1190709 0.032471,0.1596634 0.039244,0.029766 0.1095983,0.033825 0.1813127,0.029766 0.1326,-0.00947 0.2259668,-0.041944 0.2719677,-0.062239 C 7.5884,7.9323957 7.6722895,7.8931627 7.7507664,7.8349797 7.8955445,7.7280867 7.9834956,7.575191 7.975376,7.3735802 7.9713016,7.2626287 7.9347882,7.1516774 7.8901314,7.0474909 7.9036774,7.0285477 7.9158476,7.0096023 7.9293751,6.9906617 8.1580432,6.6564504 8.3352948,6.289766 8.3352948,6.289766 c 0,0 0.016245,0.1123059 0.071714,0.2990293 0.027066,0.094717 0.082535,0.1975496 0.1312507,0.2976776 -0.2151433,0.1745481 -0.3477433,0.3775106 -0.395104,0.5101114 -0.085239,0.2462589 -0.018943,0.3572107 0.106897,0.3829211 0.056827,0.012168 0.1380157,-0.014895 0.1975467,-0.040593 0.075776,-0.024367 0.165076,-0.0663 0.2503232,-0.1285423 C 8.8426983,7.5034771 8.9820687,7.3546372 8.9739516,7.1530293 8.9699037,7.061021 8.9455474,6.9703642 8.9117062,6.8824147 9.0943735,6.8066422 9.3298093,6.7646981 9.6301865,6.7998774 c 0.6440695,0.075772 0.7712595,0.477636 0.7469005,0.6467684 -0.02437,0.169135 -0.159663,0.2611459 -0.204315,0.2895605 -0.04465,0.028414 -0.05953,0.037886 -0.05548,0.058181 0.0054,0.029769 0.02707,0.028414 0.06495,0.023018 0.05277,-0.00947 0.338272,-0.1366627 0.350448,-0.4478701 C 10.552986,6.9717325 10.174127,6.537393 9.5043543,6.5414513 Z M 4.5358825,8.216615 C 4.3220938,8.449344 4.0244205,8.5372938 3.8958763,8.4628765 3.7578606,8.3830432 3.8119864,8.0393605 4.0744825,7.7931014 4.2341427,7.6429093 4.4398144,7.5035432 4.5764729,7.4182997 c 0.031121,-0.018943 0.077125,-0.046005 0.1326,-0.07983 0.0095,-0.00542 0.014895,-0.00812 0.014895,-0.00812 v 0 c 0.010821,-0.00677 0.021668,-0.01352 0.032476,-0.020293 0.096068,0.3517999 0.00407,0.6616554 -0.2205537,0.9065626 z M 6.0919184,7.1585083 C 6.0174975,7.3398215 5.8618957,7.8039247 5.7671822,7.7782169 5.6859988,7.7565751 5.6359315,7.4047701 5.7509376,7.0570287 5.8091192,6.8824805 5.9322503,6.6741076 6.003962,6.5929226 6.1203253,6.4630281 6.2488668,6.4197291 6.2799909,6.4724995 6.3192293,6.5415065 6.1379166,7.0448505 6.0919105,7.1585083 Z m 1.2840735,0.6142955 c -0.031121,0.016242 -0.060894,0.02706 -0.074421,0.018943 -0.0095,-0.00542 0.01352,-0.027061 0.01352,-0.027061 0,0 0.1610201,-0.1731936 0.2246122,-0.251672 0.036532,-0.046006 0.079832,-0.100128 0.125835,-0.1610154 0,0.0054 0,0.012168 0,0.017594 0,0.2070213 -0.2002559,0.3463895 -0.2895564,0.403216 z M 8.36644,7.5468425 C 8.343449,7.5306005 8.347497,7.4764805 8.424624,7.3073458 8.454391,7.2410458 8.5247533,7.130094 8.6451777,7.023201 8.6587237,7.0665 8.6681687,7.108445 8.6668197,7.1476848 8.6654997,7.4088284 8.478742,7.50625 8.3664371,7.5468425 Z"
     style="display:inline;fill:#e97cc8;stroke-width:0.01353077;enable-background:new"
     inkscape:connector-curvature="0" />
  <path
     style="color:#000000;display:inline;overflow:visible;visibility:visible;opacity:0.2;fill:#ffffff;fill-opacity:1;fill-rule:nonzero;stroke:none;stroke-width:0.26457033;marker:none;enable-background:accumulate"
     d="m 1.5878046,6.2174029 v 3.241503 C 1.5763486,11.798244 1.8275821,12.03795 4.1621981,12.03795 h 4.3757443 c 2.3346156,0 2.5743936,-0.239679 2.5743936,-2.5790441 v -3.241503 z"
     id="path1006"
     inkscape:connector-curvature="0" />
  <path
     style="color:#000000;display:inline;overflow:visible;visibility:visible;opacity:0.1;fill:#ffffff;fill-opacity:1;fill-rule:nonzero;stroke:none;stroke-width:0.26457033;marker:none;enable-background:accumulate"
     d="M 6.3500703,0.39685604 V 12.03795 h 2.1878721 c 2.3346156,0 2.5743936,-0.239679 2.5743936,-2.5790441 V 6.2174029 2.9759 c 0,-2.33936516 -0.239778,-2.57904396 -2.5743936,-2.57904396 z"
     id="path1013"
     inkscape:connector-curvature="0" />
  <path
     transform="matrix(0.26457031,0,0,0.26457031,-84.662117,-16.006504)"
     sodipodi:nodetypes="scccssscsss"
     inkscape:connector-curvature="0"
     id="path990"
     d="m 335.73108,62 c -8.82418,0 -9.77365,0.90635 -9.7304,9.74838 V 84 96.25162 c -0.0433,8.84203 0.90622,9.74838 9.7304,9.74838 h 16.53919 c 8.82418,0 9.7304,-0.90625 9.7304,-9.74838 V 84 71.74838 C 362.00067,62.90625 361.09445,62 352.27027,62 Z"
     style="color:#000000;display:inline;overflow:visible;visibility:visible;opacity:0.4;fill:none;fill-opacity:1;fill-rule:nonzero;stroke:url(#linearGradient1004);stroke-width:2;stroke-miterlimit:4;stroke-dasharray:none;stroke-opacity:1;marker:none;enable-background:accumulate"
     clip-path="url(#clipPath994-9)" />
</svg>
