<svg height="48" viewBox="0 0 12.699375 12.699375" width="48" xmlns="http://www.w3.org/2000/svg" xmlns:xlink="http://www.w3.org/1999/xlink"><linearGradient id="a" gradientUnits="userSpaceOnUse" x1="344" x2="344" y1="62" y2="106"><stop offset="0" stop-color="#fff"/><stop offset=".125" stop-color="#fff" stop-opacity=".098039"/><stop offset=".92500001" stop-color="#fff" stop-opacity=".098039"/><stop offset="1" stop-color="#fff" stop-opacity=".498039"/></linearGradient><clipPath id="b"><path d="m335.73108 62c-8.82418 0-9.77365.90635-9.7304 9.74838v12.25162 12.25162c-.0433 8.84203.90622 9.74838 9.7304 9.74838h16.53919c8.82418 0 9.7304-.90625 9.7304-9.74838v-12.25162-12.25162c0-8.84213-.90622-9.74838-9.7304-9.74838z"/></clipPath><linearGradient id="c" gradientTransform="matrix(0 -.02997086 .02997 0 -2.774939 13.625372)" gradientUnits="userSpaceOnUse" x1="459.03448" x2="35.310345" y1="419.23337" y2="207.36522"><stop offset="0" stop-color="#f2f2f2"/><stop offset="1" stop-color="#f9f9f9"/></linearGradient><path d="m4.4267684.39685614c-.5881821 0-1.0513178.0135407-1.4323995.0775109-.3810845.0639689-.6929229.18395548-.9213476.4118407-.2284221.22788556-.3489841.53958346-.4123566.92082876-.0633725.3812456-.0757438.8453924-.07286 1.4349839v3.2399529 3.241503c-.00286.5886857.00955 1.0525977.07286 1.4334337.063372.381246.1839345.692944.4123566.920829.2284247.227885.5402631.347873.9213476.411841.3810844.06397.8442174.07751 1.4323995.07751h4.3757443c.5881821 0 1.0510744-.01352 1.4313673-.07751.380294-.064.69118-.18439.918761-.412357.227583-.227967.347433-.539443.411324-.920313.06389-.380868.07751-.844073.07751-1.4334337v-3.241503-3.241503c0-.5893606-.01363-1.0525644-.07751-1.4334338-.063891-.3808691-.183741-.6923443-.411324-.92031206-.227581-.2279675-.538467-.34836075-.918761-.4123574-.3802929-.06399691-.8431852-.0775109-1.4313673-.0775109z" opacity=".1"/><path d="m4.4269298.39685614c-2.334616 0-2.5858176.23979331-2.5743749 2.57913196v3.2414149 3.2414149c-.0114559 2.3393391.2397589 2.5791321 2.5743749 2.5791321h4.3757787c2.3346165 0 2.5743755-.239767 2.5743755-2.5791321v-3.2414149-3.2414149c0-2.33936511-.239759-2.57913196-2.5743755-2.57913196z" fill="none" opacity=".2" stroke="#000" stroke-width=".529141"/><path d="m4.4269298.39685614c-2.334616 0-2.5858176.23979331-2.5743749 2.57913196v3.2414149 3.2414149c-.0114559 2.3393391.2397589 2.5791321 2.5743749 2.5791321h4.3757787c2.3346165 0 2.5743755-.239767 2.5743755-2.5791321v-3.2414149-3.2414149c0-2.33936511-.239759-2.57913196-2.5743755-2.57913196z" fill="url(#c)"/><path d="m7.2518396 7.2195242c.1779024.2904757.4093565.5039839.8187102.5039839.3438859 0 .5635639-.1718701.5635639-.4093551 0-.284585-.2257049-.385381-.6042177-.5509465l-.2074814-.08902c-.5988919-.2551465-.9967527-.574779-.9967527-1.2504944 0-.622444.4742634-1.0962866 1.2154492-1.0962866.5276749 0 .907029.1836489 1.180399.6644999l-.6462765.4149626c-.1422912-.2551463-.2958002-.3556618-.5341225-.3556618-.2430899 0-.3971597.1542101-.3971597.3556618 0 .2489792.1542101.3497752.5102926.5039853l.2074813.08888c.705154.3023879 1.1032953.6106653 1.1032953 1.3037654 0 .747214-.5869757 1.1565678-1.3752656 1.1565678-.7707621 0-1.2687178-.3672977-1.5123686-.8487098zm-2.9317909.071918c.1303776.2313152.2489765.4268773.5341225.4268773.2726688 0 .4446818-.1066853.4446818-.5215038v-2.8220259h.8299254v2.8332385c0 .8593654-.5038425 1.2504982-1.2392791 1.2504982-.6645001 0-1.0493203-.3438909-1.2450256-.7580812z" fill="#eab305" stroke-width=".26457"/><path d="m1.852375 6.217403v3.241503c-.011456 2.339338.2397774 2.579044 2.5743934 2.579044h4.3757443c2.3346163 0 2.5743933-.239679 2.5743933-2.579044v-3.241503z" fill="#fff" opacity=".2"/><path d="m6.6146406.39685614v11.64109386h2.1878721c2.3346163 0 2.5743933-.239679 2.5743933-2.579044v-3.241503-3.241503c0-2.33936511-.239777-2.57904386-2.5743933-2.57904386z" fill="#fff" opacity=".1"/><path clip-path="url(#b)" d="m335.73108 62c-8.82418 0-9.77365.90635-9.7304 9.74838v12.25162 12.25162c-.0433 8.84203.90622 9.74838 9.7304 9.74838h16.53919c8.82418 0 9.7304-.90625 9.7304-9.74838v-12.25162-12.25162c0-8.84213-.90622-9.74838-9.7304-9.74838z" fill="none" opacity=".4" stroke="url(#a)" stroke-width="2" transform="matrix(.26457031 0 0 .26457031 -84.397546 -16.006503)"/></svg>