<svg id="svg49" height="48" viewBox="0 0 12.699375 12.699375" width="48" xmlns="http://www.w3.org/2000/svg" xmlns:xlink="http://www.w3.org/1999/xlink">
  <linearGradient id="linearGradient1004" gradientUnits="userSpaceOnUse" x1="344" x2="344" y1="62" y2="106">
    <stop id="stop923" offset="0" stop-color="#fff"/>
    <stop id="stop933" offset=".125" stop-color="#fff" stop-opacity=".098039"/>
    <stop id="stop931" offset=".92500001" stop-color="#fff" stop-opacity=".098039"/>
    <stop id="stop925" offset="1" stop-color="#fff" stop-opacity=".498039"/>
  </linearGradient>
  <clipPath id="clipPath994-79">
    <path id="path996-20" d="m335.73108 62c-8.82418 0-9.77365.90635-9.7304 9.74838v12.25162 12.25162c-.0433 8.84203.90622 9.74838 9.7304 9.74838h16.53919c8.82418 0 9.7304-.90625 9.7304-9.74838v-12.25162-12.25162c0-8.84213-.90622-9.74838-9.7304-9.74838z"/>
  </clipPath>
  <linearGradient id="linearGradient1024" gradientTransform="matrix(0 -.02997086 .02997 0 -3.039509 13.625372)" gradientUnits="userSpaceOnUse" x1="459.03448" x2="35.310345" y1="419.23337" y2="207.36522">
    <stop id="stop4340" offset="0" stop-color="#f2f2f2"/>
    <stop id="stop4342" offset="1" stop-color="#f9f9f9"/>
  </linearGradient>
  <path id="path1020" d="m4.1621981.39685617c-.5881821 0-1.0513178.0135407-1.4323995.0775109-.3810845.06396887-.6929229.18395548-.9213476.41184073-.2284221.2278855-.3489841.5395835-.4123566.9208288-.0633725.3812455-.0757438.8453923-.07286 1.4349838v3.2399529 3.241503c-.00286.5886857.00955 1.0525977.07286 1.4334337.063373.381246.1839345.692944.4123566.920829.2284247.227885.5402631.347873.9213476.411841.3810844.06397.8442174.07751 1.4323995.07751h4.3757443c.5881821 0 1.0510744-.01352 1.4313677-.07751.3802939-.064.6911799-.18439.9187609-.412357.227583-.227967.347433-.539443.411324-.920313.06389-.380868.07751-.844073.07751-1.4334337v-3.241503-3.241503c0-.5893606-.01363-1.0525644-.07751-1.4334337-.06389-.3808691-.183741-.6923443-.411324-.92031209-.227581-.22796754-.538467-.34836079-.9187609-.41235744-.3802933-.0639969-.8431856-.0775109-1.4313677-.0775109z" opacity=".1"/>
  <path id="path958" d="m4.1623595.39685617c-2.334616 0-2.5858176.23979331-2.5743749 2.57913193v3.2414149 3.2414149c-.011456 2.3393391.2397589 2.5791321 2.5743749 2.5791321h4.3757787c2.3346168 0 2.5743758-.239767 2.5743758-2.5791321v-3.2414149-3.2414149c0-2.33936508-.239759-2.57913193-2.5743758-2.57913193z" fill="none" opacity=".2" stroke="#000" stroke-width=".529141"/>
  <path id="path964" d="m4.1623595.39685617c-2.334616 0-2.5858176.23979331-2.5743749 2.57913193v3.2414149 3.2414149c-.011456 2.3393391.2397589 2.5791321 2.5743749 2.5791321h4.3757787c2.3346168 0 2.5743758-.239767 2.5743758-2.5791321v-3.2414149-3.2414149c0-2.33936508-.239759-2.57913193-2.5743758-2.57913193z" fill="url(#linearGradient1024)"/>
  <path id="path3354" d="m4.7626484 3.3071296v6.0851171h1.0624138v-2.1103615c0-.2320353.012779-.4376061.038241-.6175031.025452-.1798911.069116-.3311574.1302162-.4536968.061092-.1225336.1420717-.2154304.2439021-.2780055.1018252-.062569.2280543-.093526.3782536-.09353.19856.0000037.3109283.079183.4051232.2382167.096732.156433.1451962.3924689.1452015.7079322v2.6069478h1.045365v-2.9040722c-.0000053-.2815705-.0330317-.5226793-.0992139-.7234347-.0661929-.2033548-.1604672-.3703577-.2826564-.50072-.122197-.1303535-.2356395-.225271-.4087399-.2852398-.1705685-.0625675-.276513-.0940418-.4878042-.0940463-.2443889.0000045-.4291992.0507628-.6226689.1524377-.1934749.0990768-.3527304.2620159-.4774674.4888352l-.00775-2.2188768z" fill="#da1636"/>
  <path id="path1006" d="m1.5878046 6.217403v3.241503c-.011456 2.339338.2397775 2.579044 2.5743935 2.579044h4.3757443c2.3346166 0 2.5743936-.239679 2.5743936-2.579044v-3.241503z" fill="#fff" opacity=".2"/>
  <path id="path1013" d="m6.3500703.39685617v11.64109383h2.1878721c2.3346166 0 2.5743936-.239679 2.5743936-2.579044v-3.241503-3.241503c0-2.33936508-.239777-2.57904383-2.5743936-2.57904383z" fill="#fff" opacity=".1"/>
  <path id="path990" clip-path="url(#clipPath994-79)" d="m335.73108 62c-8.82418 0-9.77365.90635-9.7304 9.74838v12.25162 12.25162c-.0433 8.84203.90622 9.74838 9.7304 9.74838h16.53919c8.82418 0 9.7304-.90625 9.7304-9.74838v-12.25162-12.25162c0-8.84213-.90622-9.74838-9.7304-9.74838z" fill="none" opacity=".4" stroke="url(#linearGradient1004)" stroke-width="2" transform="matrix(.26457031 0 0 .26457031 -84.662116 -16.006503)"/>
</svg>
