<?xml version="1.0" encoding="UTF-8" standalone="no"?>
<svg
   xmlns:dc="http://purl.org/dc/elements/1.1/"
   xmlns:cc="http://creativecommons.org/ns#"
   xmlns:rdf="http://www.w3.org/1999/02/22-rdf-syntax-ns#"
   xmlns:svg="http://www.w3.org/2000/svg"
   xmlns="http://www.w3.org/2000/svg"
   xmlns:xlink="http://www.w3.org/1999/xlink"
   xmlns:sodipodi="http://sodipodi.sourceforge.net/DTD/sodipodi-0.dtd"
   xmlns:inkscape="http://www.inkscape.org/namespaces/inkscape"
   height="48"
   viewBox="0 0 12.699375 12.699375"
   width="48"
   version="1.1"
   id="svg33"
   sodipodi:docname="text-x-scss.svg"
   inkscape:version="0.92.5 (2060ec1f9f, 2020-04-08)">
  <metadata
     id="metadata39">
    <rdf:RDF>
      <cc:Work
         rdf:about="">
        <dc:format>image/svg+xml</dc:format>
        <dc:type
           rdf:resource="http://purl.org/dc/dcmitype/StillImage" />
      </cc:Work>
    </rdf:RDF>
  </metadata>
  <defs
     id="defs37">
    <linearGradient
       gradientTransform="matrix(0.26457031,0,0,0.26457031,-84.662115,-16.006503)"
       inkscape:collect="always"
       xlink:href="#linearGradient927"
       id="linearGradient1004"
       x1="344"
       y1="62"
       x2="344"
       y2="106"
       gradientUnits="userSpaceOnUse" />
    <linearGradient
       inkscape:collect="always"
       id="linearGradient927">
      <stop
         style="stop-color:#ffffff;stop-opacity:1;"
         offset="0"
         id="stop923" />
      <stop
         id="stop933"
         offset="0.125"
         style="stop-color:#ffffff;stop-opacity:0.09803922" />
      <stop
         id="stop931"
         offset="0.92500001"
         style="stop-color:#ffffff;stop-opacity:0.09803922" />
      <stop
         style="stop-color:#ffffff;stop-opacity:0.49803922"
         offset="1"
         id="stop925" />
    </linearGradient>
    <linearGradient
       inkscape:collect="always"
       xlink:href="#linearGradient4338"
       id="linearGradient1024"
       gradientUnits="userSpaceOnUse"
       gradientTransform="matrix(0,-0.02997086,0.02997,0,-3.0395088,13.625372)"
       x1="459.03448"
       y1="419.23337"
       x2="35.310345"
       y2="207.36522" />
    <linearGradient
       inkscape:collect="always"
       id="linearGradient4338">
      <stop
         style="stop-color:#f2f2f2;stop-opacity:1"
         offset="0"
         id="stop4340" />
      <stop
         style="stop-color:#f9f9f9;stop-opacity:1"
         offset="1"
         id="stop4342" />
    </linearGradient>
  </defs>
  <sodipodi:namedview
     pagecolor="#ffffff"
     bordercolor="#666666"
     borderopacity="1"
     objecttolerance="10"
     gridtolerance="10"
     guidetolerance="10"
     inkscape:pageopacity="0"
     inkscape:pageshadow="2"
     inkscape:window-width="834"
     inkscape:window-height="480"
     id="namedview35"
     showgrid="false"
     inkscape:zoom="4.9166667"
     inkscape:cx="24"
     inkscape:cy="24"
     inkscape:window-x="0"
     inkscape:window-y="28"
     inkscape:window-maximized="0"
     inkscape:current-layer="svg33" />
  <linearGradient
     id="a"
     gradientUnits="userSpaceOnUse"
     x1="344"
     x2="344"
     y1="62"
     y2="106">
    <stop
       offset="0"
       stop-color="#fff"
       id="stop2" />
    <stop
       offset=".125"
       stop-color="#fff"
       stop-opacity=".098039"
       id="stop4" />
    <stop
       offset=".92500001"
       stop-color="#fff"
       stop-opacity=".098039"
       id="stop6" />
    <stop
       offset="1"
       stop-color="#fff"
       stop-opacity=".498039"
       id="stop8" />
  </linearGradient>
  <clipPath
     id="b">
    <path
       d="m335.73108 62c-8.82418 0-9.77365.90635-9.7304 9.74838v12.25162 12.25162c-.0433 8.84203.90622 9.74838 9.7304 9.74838h16.53919c8.82418 0 9.7304-.90625 9.7304-9.74838v-12.25162-12.25162c0-8.84213-.90622-9.74838-9.7304-9.74838z"
       id="path11" />
  </clipPath>
  <linearGradient
     id="c"
     gradientTransform="matrix(0 -.02997086 .02997 0 -3.039509 13.625371)"
     gradientUnits="userSpaceOnUse"
     x1="459.03448"
     x2="35.310345"
     y1="419.23337"
     y2="207.36522">
    <stop
       offset="0"
       stop-color="#f2f2f2"
       id="stop14" />
    <stop
       offset="1"
       stop-color="#f9f9f9"
       id="stop16" />
  </linearGradient>
  <path
     style="color:#000000;font-style:normal;font-variant:normal;font-weight:normal;font-stretch:normal;font-size:medium;line-height:normal;font-family:sans-serif;font-variant-ligatures:normal;font-variant-position:normal;font-variant-caps:normal;font-variant-numeric:normal;font-variant-alternates:normal;font-feature-settings:normal;text-indent:0;text-align:start;text-decoration:none;text-decoration-line:none;text-decoration-style:solid;text-decoration-color:#000000;letter-spacing:normal;word-spacing:normal;text-transform:none;writing-mode:lr-tb;direction:ltr;text-orientation:mixed;dominant-baseline:auto;baseline-shift:baseline;text-anchor:start;white-space:normal;shape-padding:0;clip-rule:nonzero;display:inline;overflow:visible;visibility:visible;opacity:0.1;isolation:auto;mix-blend-mode:normal;color-interpolation:sRGB;color-interpolation-filters:linearRGB;solid-color:#000000;solid-opacity:1;vector-effect:none;fill:#000000;fill-opacity:1;fill-rule:nonzero;stroke:none;stroke-width:0.52914065;stroke-linecap:butt;stroke-linejoin:miter;stroke-miterlimit:4;stroke-dasharray:none;stroke-dashoffset:0;stroke-opacity:1;marker:none;color-rendering:auto;image-rendering:auto;shape-rendering:auto;text-rendering:auto;enable-background:accumulate"
     d="M 4.1621982,0.39685664 C 3.5740849,0.38789824 3.1108804,0.41039734 2.7297987,0.47436754 2.3487142,0.53833634 2.0368758,0.65832304 1.8084511,0.88620824 1.580029,1.1140937 1.459467,1.4257917 1.3960945,1.807037 1.3327219,2.1882826 1.3203506,2.6524294 1.3232344,3.2420209 v 3.2399529 3.241503 c -0.00286,0.5886852 0.00955,1.0525972 0.07286,1.4334332 0.063373,0.381246 0.1839345,0.692944 0.4123566,0.920829 0.2284247,0.227885 0.5402631,0.347873 0.9213476,0.411841 0.3810844,0.06397 0.8442174,0.07751 1.4323995,0.07751 h 4.3757443 c 0.5881826,0 1.0510746,-0.01352 1.4313676,-0.07751 0.380294,-0.064 0.69118,-0.18439 0.91876,-0.412357 0.227584,-0.227967 0.347434,-0.539443 0.411325,-0.920313 0.06389,-0.380868 0.07751,-0.844073 0.07751,-1.4334332 V 6.4819738 3.3071301 L 8.5379425,0.46351594 Z"
     id="path1020"
     inkscape:connector-curvature="0"
     sodipodi:nodetypes="sccsccccccsscccscccs" />
  <path
     style="color:#000000;display:inline;overflow:visible;visibility:visible;opacity:0.2;fill:none;fill-opacity:1;fill-rule:nonzero;stroke:#000000;stroke-width:0.52914065;stroke-miterlimit:4;stroke-dasharray:none;stroke-opacity:1;marker:none;enable-background:accumulate"
     d="m 4.1623596,0.39685664 c -2.334616,0 -2.5858176,0.2397933 -2.5743749,2.57913196 V 6.2174035 9.4588188 C 1.5765288,11.798157 1.8277436,12.03795 4.1623596,12.03795 h 4.3757787 c 2.3346157,0 2.5743747,-0.239767 2.5743747,-2.5791312 V 6.2174035 L 11.112336,3.0425597 8.4666329,0.39685664 Z"
     id="path958"
     inkscape:connector-curvature="0"
     sodipodi:nodetypes="scccssscccs" />
  <path
     style="color:#000000;display:inline;overflow:visible;visibility:visible;fill:url(#linearGradient1024);fill-opacity:1;fill-rule:nonzero;stroke:none;stroke-width:0.26457033;marker:none;enable-background:accumulate"
     d="m 4.1623596,0.39685664 c -2.334616,0 -2.5858176,0.2397933 -2.5743749,2.57913196 V 6.2174035 9.4588188 C 1.5765288,11.798157 1.8277436,12.03795 4.1623596,12.03795 h 4.3757787 c 2.3346157,0 2.5743747,-0.239767 2.5743747,-2.5791312 V 6.2174035 L 11.112336,3.0425597 8.4666329,0.39685664 Z"
     id="path964"
     inkscape:connector-curvature="0"
     sodipodi:nodetypes="scccssscccs" />
  <path
     id="path912"
     d="m 9.5043091,7.864345 c -0.258437,0.00132 -0.483044,0.063594 -0.671125,0.1556025 C 8.7641792,7.8832879 8.6951687,7.7615104 8.6829932,7.6722087 8.6695001,7.5680196 8.6532264,7.5044254 8.6695001,7.3799413 c 0.016245,-0.1244814 0.089306,-0.3017358 0.087954,-0.3152657 -0.00132,-0.01352 -0.016245,-0.077127 -0.1650786,-0.078478 -0.1488367,-0.00132 -0.2773782,0.028414 -0.2922629,0.067652 -0.014895,0.039241 -0.0433,0.1285426 -0.062243,0.2205538 -0.02569,0.1353073 -0.297676,0.6183534 -0.4532777,0.87138 -0.050064,-0.098773 -0.093364,-0.1853712 -0.102833,-0.2543783 -0.01352,-0.1041867 -0.029775,-0.1677804 -0.01352,-0.2922644 0.016245,-0.1244814 0.089303,-0.3017359 0.087951,-0.315266 -0.00132,-0.013546 -0.016245,-0.077127 -0.165076,-0.078478 -0.1488366,-0.00132 -0.2773808,0.028414 -0.2922655,0.067652 -0.014895,0.03924 -0.031121,0.1312488 -0.06224,0.2205537 -0.031119,0.089302 -0.3923948,0.8957361 -0.4871056,1.1041091 -0.048713,0.1068927 -0.09066,0.1921363 -0.1204245,0.2503193 0,0 0,0 0,0 0,0 -0.00132,0.0041 -0.00542,0.01082 -0.025716,0.05006 -0.040593,0.07713 -0.040593,0.07713 0,0 0,0 0,0.0013 -0.020293,0.03653 -0.041945,0.07036 -0.052769,0.07036 -0.00812,0 -0.022991,-0.09742 0.00265,-0.230022 0.054126,-0.2800861 0.1826673,-0.7157776 0.1813127,-0.7306623 0,-0.00812 0.024367,-0.083889 -0.083887,-0.1231294 -0.1055424,-0.039238 -0.1434289,0.025716 -0.1529005,0.025716 -0.00947,0 -0.016245,0.023018 -0.016245,0.023018 0,0 0.1177179,-0.4898138 -0.2246123,-0.4898138 -0.2137807,0 -0.5087554,0.2340807 -0.6548856,0.4451628 -0.092017,0.05008 -0.2882171,0.1569762 -0.497942,0.2719859 -0.079829,0.044651 -0.1623695,0.089302 -0.2394917,0.1312489 -0.00542,-0.0054 -0.010821,-0.012168 -0.016245,-0.017594 C 4.414011,7.8710944 3.6481672,7.558535 3.6806458,6.964535 3.6928161,6.7480418 3.7672397,6.1797498 5.1514372,5.4896801 6.2907299,4.928155 7.197288,5.0837573 7.354247,5.4287924 7.5788566,5.9213128 6.8684906,6.8359922 5.6913167,6.9685932 5.2420949,7.0186571 5.006659,6.8454638 4.9471228,6.7805152 c -0.062243,-0.067653 -0.071712,-0.071714 -0.094714,-0.058181 -0.037886,0.020293 -0.013493,0.081185 0,0.1163644 0.035177,0.092009 0.179958,0.2543785 0.4248628,0.3342089 C 5.4937647,7.2432693 6.0201142,7.2825072 6.6574111,7.0362481 7.370481,6.7602203 7.9279518,5.9930264 7.7642251,5.350314 7.6005037,4.6981302 6.5180461,4.4829922 5.4937647,4.84697 4.88488,5.0634626 4.2245786,5.4044366 3.7496511,5.8482448 3.1854178,6.3759446 3.0961148,6.8346405 3.1326466,7.0267765 3.2638973,7.7087271 4.2042808,8.1525353 4.5804363,8.4813338 4.5614933,8.4921548 4.5439073,8.5016268 4.5290223,8.5097478 4.3409446,8.6031108 3.6238135,8.9779118 3.44521,9.3743628 3.2422449,9.8235848 3.477681,10.145618 3.6332851,10.188914 4.1163323,10.32287 4.6129149,10.082022 4.8794669,9.6842188 5.1460241,9.2864128 5.1135534,8.7695368 4.9904224,8.5327493 c -0.00132,-0.00271 -0.00265,-0.00542 -0.00542,-0.00812 0.048707,-0.028414 0.098775,-0.058181 0.1474873,-0.086595 0.096065,-0.056829 0.1907817,-0.1095998 0.2719651,-0.1528983 -0.046001,0.1258354 -0.079829,0.2760275 -0.096068,0.4925198 -0.020293,0.254379 0.08389,0.584529 0.2205511,0.714426 0.060888,0.05683 0.1326,0.05818 0.1786087,0.05818 0.1596629,0 0.2313747,-0.1326 0.3112088,-0.289558 0.09742,-0.192136 0.1853686,-0.415393 0.1853686,-0.415393 0,0 -0.1095983,0.603471 0.1880803,0.603471 0.1082437,0 0.2178446,-0.14072 0.2665573,-0.212434 0,0.0013 0,0.0013 0,0.0013 0,0 0.00265,-0.0041 0.00812,-0.01352 0.010821,-0.01759 0.01762,-0.02841 0.01762,-0.02841 0,0 0,-0.0013 0,-0.0027 0.0433,-0.07577 0.1407196,-0.247613 0.2855031,-0.533113 0.1867205,-0.3680361 0.3666812,-0.828081 0.3666812,-0.828081 0,0 0.016245,0.1123061 0.071712,0.2990296 0.032479,0.1095995 0.1001266,0.2300221 0.1542524,0.3463868 -0.0433,0.060887 -0.07036,0.094715 -0.07036,0.094715 0,0 0,0 0.00132,0.00132 -0.035177,0.046006 -0.073064,0.09607 -0.1150113,0.1447787 -0.1474821,0.1758999 -0.3233843,0.3775079 -0.347738,0.4356919 -0.028407,0.06901 -0.021642,0.119071 0.032471,0.159663 0.039244,0.02977 0.1095983,0.03383 0.1813127,0.02977 0.1326,-0.0095 0.2259669,-0.04194 0.2719677,-0.06224 0.071717,-0.02572 0.155607,-0.06495 0.2340839,-0.123132 0.1447795,-0.106882 0.2327306,-0.259777 0.224611,-0.4613882 -0.00407,-0.1109515 -0.040588,-0.2219028 -0.085245,-0.3260893 0.013546,-0.018943 0.025716,-0.037889 0.039244,-0.056829 0.2286682,-0.3342114 0.4059197,-0.7008958 0.4059197,-0.7008958 0,0 0.016245,0.1123059 0.071714,0.2990293 0.027066,0.094717 0.082535,0.1975496 0.1312507,0.2976776 -0.2151433,0.1745482 -0.3477433,0.3775106 -0.395104,0.5101114 -0.085239,0.2462591 -0.018943,0.3572111 0.106897,0.3829211 0.056827,0.01217 0.1380157,-0.0149 0.1975467,-0.04059 0.075776,-0.02437 0.165076,-0.0663 0.2503232,-0.128542 0.1447764,-0.106893 0.2841464,-0.2557332 0.2760294,-0.4573411 -0.004,-0.092008 -0.0284,-0.1826651 -0.06225,-0.2706146 0.182668,-0.075772 0.418104,-0.1177166 0.718481,-0.082537 0.6440699,0.075772 0.7712589,0.4776359 0.7468999,0.6467677 -0.02437,0.169135 -0.159663,0.261146 -0.204314,0.289561 -0.04465,0.02841 -0.05953,0.03789 -0.05548,0.05818 0.0054,0.02977 0.02707,0.02841 0.06495,0.02302 0.05277,-0.0095 0.338272,-0.136663 0.350447,-0.44787 C 10.552907,8.2945751 10.17405,7.8602356 9.5042781,7.8642939 Z M 4.5358138,9.5394538 c -0.2137886,0.232729 -0.511462,0.320678 -0.6400061,0.246261 -0.1380158,-0.07983 -0.08389,-0.423516 0.1786061,-0.669775 0.1596603,-0.150192 0.3653319,-0.289558 0.5019904,-0.3748017 0.031121,-0.018943 0.077125,-0.046005 0.1326,-0.07983 0.0095,-0.00542 0.014895,-0.00812 0.014895,-0.00812 v 0 c 0.010821,-0.00677 0.021668,-0.013519 0.032476,-0.020293 0.096068,0.3517997 0.00407,0.6616557 -0.2205537,0.9065627 z M 6.0918497,8.4813467 C 6.0174288,8.6626599 5.861827,9.1267628 5.7671135,9.1010548 5.6859301,9.0794138 5.6358628,8.7276085 5.7508689,8.3798671 5.8090505,8.2053189 5.9321816,7.996946 6.0038933,7.915761 6.1202567,7.7858665 6.2487981,7.7425675 6.2799222,7.7953379 6.3191606,7.864345 6.1378479,8.3676889 6.0918418,8.4813467 Z m 1.2840735,0.6142951 c -0.031121,0.01624 -0.060893,0.02706 -0.074421,0.01894 -0.0095,-0.0054 0.01352,-0.02706 0.01352,-0.02706 0,0 0.1610201,-0.173193 0.2246123,-0.251672 0.036532,-0.04601 0.079831,-0.1001276 0.1258349,-0.161015 0,0.0054 0,0.012168 0,0.017594 0,0.207021 -0.2002559,0.346389 -0.2895563,0.403216 z m 0.9904481,-0.225961 c -0.022991,-0.01624 -0.018943,-0.07036 0.058184,-0.2394966 0.029767,-0.066301 0.1001293,-0.1772518 0.2205538,-0.2841448 0.013546,0.043299 0.022991,0.085244 0.021642,0.1244838 -0.00132,0.2611436 -0.1880777,0.3585656 -0.3003825,0.3991576 z"
     style="display:inline;fill:#e97cc8;stroke-width:0.01353077;enable-background:new"
     inkscape:connector-curvature="0" />
  <path
     style="color:#000000;display:inline;overflow:visible;visibility:visible;opacity:0.2;fill:#ffffff;fill-opacity:1;fill-rule:nonzero;stroke:none;stroke-width:0.26457033;marker:none;enable-background:accumulate"
     d="M 1.5878047,6.2174035 V 9.4589068 C 1.5763489,11.798244 1.8275822,12.03795 4.1621982,12.03795 h 4.3757443 c 2.3346165,0 2.5743935,-0.239679 2.5743935,-2.5790432 V 6.2174035 Z"
     id="path1006"
     inkscape:connector-curvature="0" />
  <path
     style="color:#000000;display:inline;overflow:visible;visibility:visible;opacity:0.1;fill:#ffffff;fill-opacity:1;fill-rule:nonzero;stroke:none;stroke-width:0.26457033;marker:none;enable-background:accumulate"
     d="M 6.3500704,0.39685664 V 12.03795 h 2.1878721 c 2.3346165,0 2.5743935,-0.239679 2.5743935,-2.5790432 V 6.2174035 3.0425597 L 8.4666329,0.39685664 Z"
     id="path1013"
     inkscape:connector-curvature="0"
     sodipodi:nodetypes="ccsscccc" />
  <path
     style="color:#000000;font-style:normal;font-variant:normal;font-weight:normal;font-stretch:normal;font-size:medium;line-height:normal;font-family:sans-serif;font-variant-ligatures:normal;font-variant-position:normal;font-variant-caps:normal;font-variant-numeric:normal;font-variant-alternates:normal;font-feature-settings:normal;text-indent:0;text-align:start;text-decoration:none;text-decoration-line:none;text-decoration-style:solid;text-decoration-color:#000000;letter-spacing:normal;word-spacing:normal;text-transform:none;writing-mode:lr-tb;direction:ltr;text-orientation:mixed;dominant-baseline:auto;baseline-shift:baseline;text-anchor:start;white-space:normal;shape-padding:0;clip-rule:nonzero;display:inline;overflow:visible;visibility:visible;opacity:0.4;isolation:auto;mix-blend-mode:normal;color-interpolation:sRGB;color-interpolation-filters:linearRGB;solid-color:#000000;solid-opacity:1;vector-effect:none;fill:url(#linearGradient1004);fill-opacity:1;fill-rule:nonzero;stroke:none;stroke-width:0.52914065;stroke-linecap:butt;stroke-linejoin:miter;stroke-miterlimit:4;stroke-dasharray:none;stroke-dashoffset:0;stroke-opacity:1;marker:none;color-rendering:auto;image-rendering:auto;shape-rendering:auto;text-rendering:auto;enable-background:accumulate"
     clip-path="none"
     d="m 4.1621982,0.39685664 c -2.334616,0 -2.5858361,0.2397052 -2.5743935,2.57904386 v 3.241503 3.2415033 C 1.5763489,11.798244 1.8275822,12.03795 4.1621982,12.03795 h 4.3757443 c 2.3346165,0 2.5743935,-0.239679 2.5743935,-2.5790432 V 6.2174035 3.0425597 h -0.26457 v 3.1748438 3.2415033 c 0,0.5803222 -0.01624,1.0240712 -0.07028,1.3461032 -0.05402,0.322035 -0.139871,0.509123 -0.264055,0.633524 -0.124184,0.124388 -0.310701,0.2105 -0.6319709,0.264571 -0.321273,0.05406 -0.764396,0.07028 -1.3435224,0.07028 H 4.1621982 c -0.5791259,0 -1.0227997,-0.01619 -1.3450728,-0.07028 C 2.4948549,11.649003 2.3068301,11.563015 2.1820535,11.438534 2.0572795,11.314046 1.9714661,11.127183 1.9180017,10.805529 1.8645347,10.483875 1.8495336,10.040018 1.8523751,9.4599398 V 9.4594108 6.2174035 2.9753837 2.9748546 c -0.00283,-0.5800778 0.01217,-1.0239334 0.065627,-1.3455882 0.053467,-0.3216548 0.1392778,-0.5085248 0.2640518,-0.63300506 0.124774,-0.1244804 0.31332,-0.2104737 0.6355904,-0.2645704 0.3222705,-0.0540718 0.7654284,-0.070264 1.3445543,-0.070264 h 4.3044347 v -0.2645703 z"
     id="path990"
     inkscape:connector-curvature="0" />
  <path
     inkscape:connector-curvature="0"
     style="color:#000000;display:inline;overflow:visible;visibility:visible;opacity:0.2;fill:#000000;fill-opacity:1;fill-rule:nonzero;stroke:none;stroke-width:0.06614863;marker:none;enable-background:accumulate"
     d="M 11.112336,3.3071301 V 3.0425597 L 8.4666329,0.39685664 H 8.2020626 v 1.11359066 0.042668 0.022917 c 0,1.5059289 0.201592,1.7381397 1.7109765,1.7307589 z"
     id="rect4158-0-3-62-2"
     sodipodi:nodetypes="ccccccscc" />
  <path
     inkscape:connector-curvature="0"
     style="color:#000000;display:inline;overflow:visible;visibility:visible;fill:#faf8f6;fill-opacity:1;fill-rule:nonzero;stroke:none;stroke-width:0.06614863;marker:none;enable-background:accumulate"
     d="M 11.112336,3.0422211 8.4666329,0.39685604 V 1.378132 1.4208 1.443717 c 0,1.5059289 0.069402,1.6058846 1.5787861,1.5985039 z"
     id="rect4158-0-3-62"
     sodipodi:nodetypes="ccccscc" />
</svg>
