<?xml version="1.0" encoding="UTF-8" standalone="no"?>
<svg
   xmlns:dc="http://purl.org/dc/elements/1.1/"
   xmlns:cc="http://creativecommons.org/ns#"
   xmlns:rdf="http://www.w3.org/1999/02/22-rdf-syntax-ns#"
   xmlns:svg="http://www.w3.org/2000/svg"
   xmlns="http://www.w3.org/2000/svg"
   xmlns:xlink="http://www.w3.org/1999/xlink"
   xmlns:sodipodi="http://sodipodi.sourceforge.net/DTD/sodipodi-0.dtd"
   xmlns:inkscape="http://www.inkscape.org/namespaces/inkscape"
   height="48"
   viewBox="0 0 12.699375 12.699375"
   width="48"
   version="1.1"
   id="svg54"
   sodipodi:docname="text-x-sql.svg"
   inkscape:version="0.92.5 (2060ec1f9f, 2020-04-08)">
  <metadata
     id="metadata60">
    <rdf:RDF>
      <cc:Work
         rdf:about="">
        <dc:format>image/svg+xml</dc:format>
        <dc:type
           rdf:resource="http://purl.org/dc/dcmitype/StillImage" />
        <dc:title></dc:title>
      </cc:Work>
    </rdf:RDF>
  </metadata>
  <defs
     id="defs58">
    <linearGradient
       gradientTransform="matrix(0.26457031,0,0,0.26457031,-84.662109,-16.006503)"
       inkscape:collect="always"
       xlink:href="#linearGradient927"
       id="linearGradient1004"
       x1="344"
       y1="62"
       x2="344"
       y2="106"
       gradientUnits="userSpaceOnUse" />
    <linearGradient
       inkscape:collect="always"
       id="linearGradient927">
      <stop
         style="stop-color:#ffffff;stop-opacity:1;"
         offset="0"
         id="stop923" />
      <stop
         id="stop933"
         offset="0.125"
         style="stop-color:#ffffff;stop-opacity:0.09803922" />
      <stop
         id="stop931"
         offset="0.92500001"
         style="stop-color:#ffffff;stop-opacity:0.09803922" />
      <stop
         style="stop-color:#ffffff;stop-opacity:0.49803922"
         offset="1"
         id="stop925" />
    </linearGradient>
    <linearGradient
       inkscape:collect="always"
       xlink:href="#linearGradient4338"
       id="linearGradient1024"
       gradientUnits="userSpaceOnUse"
       gradientTransform="matrix(0,-0.02997086,0.02997,0,-3.0395074,13.625372)"
       x1="459.03448"
       y1="419.23337"
       x2="35.310345"
       y2="207.36522" />
    <linearGradient
       inkscape:collect="always"
       id="linearGradient4338">
      <stop
         style="stop-color:#f2f2f2;stop-opacity:1"
         offset="0"
         id="stop4340" />
      <stop
         style="stop-color:#f9f9f9;stop-opacity:1"
         offset="1"
         id="stop4342" />
    </linearGradient>
  </defs>
  <sodipodi:namedview
     pagecolor="#ffffff"
     bordercolor="#666666"
     borderopacity="1"
     objecttolerance="10"
     gridtolerance="10"
     guidetolerance="10"
     inkscape:pageopacity="0"
     inkscape:pageshadow="2"
     inkscape:window-width="834"
     inkscape:window-height="480"
     id="namedview56"
     showgrid="false"
     inkscape:zoom="0.921875"
     inkscape:cx="-305.89831"
     inkscape:cy="128"
     inkscape:window-x="0"
     inkscape:window-y="28"
     inkscape:window-maximized="0"
     inkscape:current-layer="svg54" />
  <linearGradient
     id="a"
     gradientTransform="matrix(0,-0.11988342,0.11987999,0,0.362762,62.749399)"
     gradientUnits="userSpaceOnUse"
     x1="529.65515"
     x2="-35.310345"
     y1="401.58368"
     y2="119.09284">
    <stop
       offset="0"
       stop-color="#f2f2f2"
       id="stop2" />
    <stop
       offset="1"
       stop-color="#f9f9f9"
       id="stop4" />
  </linearGradient>
  <linearGradient
     id="b"
     gradientUnits="userSpaceOnUse"
     x1="88"
     x2="488"
     y1="88"
     y2="488">
    <stop
       offset="0"
       stop-opacity=".588235"
       id="stop7" />
    <stop
       offset=".88"
       stop-opacity="0"
       id="stop9" />
    <stop
       offset="1"
       id="stop11" />
  </linearGradient>
  <filter
     id="c"
     height="1.087725"
     width="1.105998"
     x="-0.052999001"
     y="-0.043862998"
     style="color-interpolation-filters:sRGB">
    <feGaussianBlur
       stdDeviation="8.4801079"
       id="feGaussianBlur14" />
  </filter>
  <filter
     id="d"
     height="1.0219311"
     width="1.0265"
     x="-0.01325"
     y="-0.010966"
     style="color-interpolation-filters:sRGB">
    <feGaussianBlur
       stdDeviation="2.120027"
       id="feGaussianBlur17" />
  </filter>
  <path
     style="color:#000000;font-style:normal;font-variant:normal;font-weight:normal;font-stretch:normal;font-size:medium;line-height:normal;font-family:sans-serif;font-variant-ligatures:normal;font-variant-position:normal;font-variant-caps:normal;font-variant-numeric:normal;font-variant-alternates:normal;font-feature-settings:normal;text-indent:0;text-align:start;text-decoration:none;text-decoration-line:none;text-decoration-style:solid;text-decoration-color:#000000;letter-spacing:normal;word-spacing:normal;text-transform:none;writing-mode:lr-tb;direction:ltr;text-orientation:mixed;dominant-baseline:auto;baseline-shift:baseline;text-anchor:start;white-space:normal;shape-padding:0;clip-rule:nonzero;display:inline;overflow:visible;visibility:visible;opacity:0.1;isolation:auto;mix-blend-mode:normal;color-interpolation:sRGB;color-interpolation-filters:linearRGB;solid-color:#000000;solid-opacity:1;vector-effect:none;fill:#000000;fill-opacity:1;fill-rule:nonzero;stroke:none;stroke-width:0.52914065;stroke-linecap:butt;stroke-linejoin:miter;stroke-miterlimit:4;stroke-dasharray:none;stroke-dashoffset:0;stroke-opacity:1;marker:none;color-rendering:auto;image-rendering:auto;shape-rendering:auto;text-rendering:auto;enable-background:accumulate"
     d="m 4.1621996,0.39685584 c -0.588113,-0.00896 -1.051318,0.013541 -1.432399,0.077511 -0.381085,0.063969 -0.692923,0.1839555 -0.921348,0.4118408 -0.228422,0.22788516 -0.348984,0.53958316 -0.412357,0.92082816 -0.06337,0.381246 -0.07574,0.845393 -0.07286,1.434984 v 3.239953 3.241503 c -0.0029,0.5886862 0.0096,1.0525982 0.07286,1.4334342 0.06337,0.381246 0.183935,0.692944 0.412357,0.920829 0.228425,0.227885 0.540263,0.347873 0.921348,0.411841 0.381084,0.06397 0.844217,0.07751 1.432399,0.07751 h 4.375744 c 0.588182,0 1.051075,-0.01352 1.431368,-0.07751 0.3802934,-0.064 0.6911794,-0.18439 0.9187604,-0.412357 0.227584,-0.227967 0.347434,-0.539443 0.411325,-0.920313 0.06389,-0.380868 0.07751,-0.844073 0.07751,-1.4334342 V 6.4819728 3.3071298 L 8.5379426,0.46351524 Z"
     id="path1020"
     inkscape:connector-curvature="0"
     sodipodi:nodetypes="sccsccccccsscccscccs" />
  <path
     style="color:#000000;display:inline;overflow:visible;visibility:visible;opacity:0.2;fill:none;fill-opacity:1;fill-rule:nonzero;stroke:#000000;stroke-width:0.52914065;stroke-miterlimit:4;stroke-dasharray:none;stroke-opacity:1;marker:none;enable-background:accumulate"
     d="m 4.1623606,0.39685584 c -2.334616,0 -2.585817,0.2397934 -2.574375,2.57913196 v 3.241415 3.241415 c -0.01145,2.3393392 0.239759,2.5791322 2.574375,2.5791322 h 4.375779 c 2.3346164,0 2.5743754,-0.239767 2.5743754,-2.5791322 V 6.2174028 L 11.112338,3.0425588 8.4666346,0.39685584 Z"
     id="path958"
     inkscape:connector-curvature="0"
     sodipodi:nodetypes="scccssscccs" />
  <path
     style="color:#000000;display:inline;overflow:visible;visibility:visible;fill:url(#linearGradient1024);fill-opacity:1;fill-rule:nonzero;stroke:none;stroke-width:0.26457033;marker:none;enable-background:accumulate"
     d="m 4.1623606,0.39685584 c -2.334616,0 -2.585817,0.2397934 -2.574375,2.57913196 v 3.241415 3.241415 c -0.01145,2.3393392 0.239759,2.5791322 2.574375,2.5791322 h 4.375779 c 2.3346164,0 2.5743754,-0.239767 2.5743754,-2.5791322 V 6.2174028 L 11.112338,3.0425588 8.4666346,0.39685584 Z"
     id="path964"
     inkscape:connector-curvature="0"
     sodipodi:nodetypes="scccssscccs" />
  <g
     transform="matrix(0.26457031,0,0,0.26457031,-84.662119,-14.683442)"
     style="display:inline;enable-background:new"
     id="g40073">
    <path
       sodipodi:nodetypes="cc"
       inkscape:connector-curvature="0"
       id="path994"
       d="M 333.5,76.499998 V 91.499997"
       style="fill:none;fill-rule:evenodd;stroke:#999999;stroke-width:0.99999994;stroke-linecap:butt;stroke-linejoin:miter;stroke-miterlimit:4;stroke-dasharray:none;stroke-opacity:1" />
    <path
       sodipodi:nodetypes="cc"
       style="fill:none;fill-rule:evenodd;stroke:#999999;stroke-width:0.99999994;stroke-linecap:butt;stroke-linejoin:miter;stroke-miterlimit:4;stroke-dasharray:none;stroke-opacity:1"
       d="M 354.5,76.499998 V 91.499997"
       id="path998"
       inkscape:connector-curvature="0" />
    <ellipse
       style="opacity:1;fill:none;fill-opacity:1;stroke:#999999;stroke-width:0.99999994;stroke-linecap:butt;stroke-linejoin:round;stroke-miterlimit:4;stroke-dasharray:none;stroke-dashoffset:1;stroke-opacity:1"
       id="ellipse1000"
       cx="344.00003"
       cy="76.5"
       rx="10.499613"
       ry="4" />
    <path
       sodipodi:open="true"
       d="m 354.49964,81.5 a 10.499613,4 0 0 1 -5.2498,3.464102 10.499613,4 0 0 1 -10.49962,0 A 10.499613,4 0 0 1 333.50042,81.5"
       sodipodi:end="3.1415927"
       sodipodi:start="0"
       sodipodi:ry="4"
       sodipodi:rx="10.499613"
       sodipodi:cy="81.5"
       sodipodi:cx="344.00003"
       sodipodi:type="arc"
       id="ellipse1086"
       style="opacity:1;fill:none;fill-opacity:1;stroke:#999999;stroke-width:0.99999994;stroke-linecap:butt;stroke-linejoin:round;stroke-miterlimit:4;stroke-dasharray:none;stroke-dashoffset:1;stroke-opacity:1" />
    <path
       style="opacity:1;fill:none;fill-opacity:1;stroke:#999999;stroke-width:0.99999994;stroke-linecap:butt;stroke-linejoin:round;stroke-miterlimit:4;stroke-dasharray:none;stroke-dashoffset:1;stroke-opacity:1"
       id="path1088"
       sodipodi:type="arc"
       sodipodi:cx="344.00003"
       sodipodi:cy="86.5"
       sodipodi:rx="10.499613"
       sodipodi:ry="4"
       sodipodi:start="0"
       sodipodi:end="3.1415927"
       d="m 354.49964,86.5 a 10.499613,4 0 0 1 -5.2498,3.464102 10.499613,4 0 0 1 -10.49962,0 A 10.499613,4 0 0 1 333.50042,86.5"
       sodipodi:open="true" />
    <path
       sodipodi:open="true"
       d="m 354.49964,91.5 a 10.499613,4 0 0 1 -5.2498,3.464102 10.499613,4 0 0 1 -10.49962,0 A 10.499613,4 0 0 1 333.50042,91.5"
       sodipodi:end="3.1415927"
       sodipodi:start="0"
       sodipodi:ry="4"
       sodipodi:rx="10.499613"
       sodipodi:cy="91.5"
       sodipodi:cx="344.00003"
       sodipodi:type="arc"
       id="path1090"
       style="opacity:1;fill:none;fill-opacity:1;stroke:#999999;stroke-width:0.99999994;stroke-linecap:butt;stroke-linejoin:round;stroke-miterlimit:4;stroke-dasharray:none;stroke-dashoffset:1;stroke-opacity:1" />
  </g>
  <path
     style="color:#000000;display:inline;overflow:visible;visibility:visible;opacity:0.2;fill:#ffffff;fill-opacity:1;fill-rule:nonzero;stroke:none;stroke-width:0.26457033;marker:none;enable-background:accumulate"
     d="m 1.5878066,6.2174028 v 3.241503 c -0.01146,2.3393382 0.239777,2.5790442 2.574393,2.5790442 h 4.375744 c 2.3346164,0 2.5743944,-0.239679 2.5743944,-2.5790442 v -3.241503 z"
     id="path1006"
     inkscape:connector-curvature="0" />
  <path
     style="color:#000000;display:inline;overflow:visible;visibility:visible;opacity:0.1;fill:#ffffff;fill-opacity:1;fill-rule:nonzero;stroke:none;stroke-width:0.26457033;marker:none;enable-background:accumulate"
     d="M 6.3500716,0.39685584 V 12.03795 h 2.187872 c 2.3346164,0 2.5743944,-0.239679 2.5743944,-2.5790442 V 6.2174028 3.0425588 L 8.4666346,0.39685584 Z"
     id="path1013"
     inkscape:connector-curvature="0"
     sodipodi:nodetypes="ccsscccc" />
  <path
     style="color:#000000;font-style:normal;font-variant:normal;font-weight:normal;font-stretch:normal;font-size:medium;line-height:normal;font-family:sans-serif;font-variant-ligatures:normal;font-variant-position:normal;font-variant-caps:normal;font-variant-numeric:normal;font-variant-alternates:normal;font-feature-settings:normal;text-indent:0;text-align:start;text-decoration:none;text-decoration-line:none;text-decoration-style:solid;text-decoration-color:#000000;letter-spacing:normal;word-spacing:normal;text-transform:none;writing-mode:lr-tb;direction:ltr;text-orientation:mixed;dominant-baseline:auto;baseline-shift:baseline;text-anchor:start;white-space:normal;shape-padding:0;clip-rule:nonzero;display:inline;overflow:visible;visibility:visible;opacity:0.4;isolation:auto;mix-blend-mode:normal;color-interpolation:sRGB;color-interpolation-filters:linearRGB;solid-color:#000000;solid-opacity:1;vector-effect:none;fill:url(#linearGradient1004);fill-opacity:1;fill-rule:nonzero;stroke:none;stroke-width:0.52914065;stroke-linecap:butt;stroke-linejoin:miter;stroke-miterlimit:4;stroke-dasharray:none;stroke-dashoffset:0;stroke-opacity:1;marker:none;color-rendering:auto;image-rendering:auto;shape-rendering:auto;text-rendering:auto;enable-background:accumulate"
     clip-path="none"
     d="m 4.1621996,0.39685584 c -2.334616,0 -2.585836,0.2397052 -2.574393,2.57904396 v 3.241503 3.241503 c -0.01146,2.3393382 0.239777,2.5790442 2.574393,2.5790442 h 4.375744 c 2.3346164,0 2.5743944,-0.239679 2.5743944,-2.5790442 v -3.241503 -3.174844 h -0.26457 v 3.174844 3.241503 c 0,0.5803222 -0.01624,1.0240722 -0.07027,1.3461042 -0.05402,0.322035 -0.139871,0.509123 -0.264055,0.633524 -0.124184,0.124388 -0.310701,0.2105 -0.6319714,0.264571 -0.321273,0.05406 -0.764397,0.07028 -1.343522,0.07028 h -4.375745 c -0.579126,0 -1.0228,-0.01619 -1.345073,-0.07028 -0.32227,-0.0541 -0.510295,-0.14009 -0.635072,-0.264571 -0.124774,-0.124488 -0.210587,-0.311351 -0.264051,-0.633005 -0.05347,-0.321654 -0.06847,-0.765512 -0.06563,-1.3455902 v -5.29e-4 -3.242007 -3.24202 -5.29e-4 c -0.0028,-0.580078 0.01217,-1.023933 0.06563,-1.345588 0.05347,-0.321655 0.139277,-0.508525 0.264051,-0.63300526 0.124774,-0.1244803 0.31332,-0.2104736 0.635591,-0.2645703 0.32227,-0.054072 0.765428,-0.070264 1.344554,-0.070264 h 4.304435 v -0.2645704 z"
     id="path990"
     inkscape:connector-curvature="0" />
  <path
     inkscape:connector-curvature="0"
     style="color:#000000;display:inline;overflow:visible;visibility:visible;opacity:0.2;fill:#000000;fill-opacity:1;fill-rule:nonzero;stroke:none;stroke-width:0.06614863;marker:none;enable-background:accumulate"
     d="M 11.112338,3.3071298 V 3.0425588 L 8.4666346,0.39685584 h -0.264571 v 1.11359096 0.04267 0.02292 c 0,1.505929 0.201592,1.738139 1.710977,1.730759 z"
     id="rect4158-0-3-62-2"
     sodipodi:nodetypes="ccccccscc" />
  <path
     inkscape:connector-curvature="0"
     style="color:#000000;display:inline;overflow:visible;visibility:visible;fill:#faf8f6;fill-opacity:1;fill-rule:nonzero;stroke:none;stroke-width:0.06614863;marker:none;enable-background:accumulate"
     d="M 11.112338,3.0422208 8.4666346,0.39685534 v 0.98127546 0.04267 0.02292 c 0,1.505929 0.0694,1.605885 1.5787864,1.598504 z"
     id="rect4158-0-3-62"
     sodipodi:nodetypes="ccccscc" />
</svg>
