<svg height="48" viewBox="0 0 12.699375 12.699376" width="48" xmlns="http://www.w3.org/2000/svg" xmlns:xlink="http://www.w3.org/1999/xlink"><linearGradient id="a" gradientUnits="userSpaceOnUse" x1="6.350071" x2="6.350071" y1=".396856" y2="12.03795"><stop offset="0" stop-color="#fff"/><stop offset=".125" stop-color="#fff" stop-opacity=".098039"/><stop offset=".92500001" stop-color="#fff" stop-opacity=".098039"/><stop offset="1" stop-color="#fff" stop-opacity=".498039"/></linearGradient><linearGradient id="b" gradientTransform="matrix(0 -.02997086 .02997 0 -3.039509 13.625372)" gradientUnits="userSpaceOnUse" x1="459.03448" x2="35.310345" y1="419.23337" y2="207.36522"><stop offset="0" stop-color="#f2f2f2"/><stop offset="1" stop-color="#f9f9f9"/></linearGradient><path d="m4.1621983.39685664c-.5881134-.0089584-1.0513178.0135407-1.4323996.0775109-.3810844.0639689-.6929229.1839555-.9213476.4118407-.2284221.22788556-.3489842.53958356-.4123567.92082886-.0633725.3812456-.0757438.8453924-.07286 1.4349839v3.239953 3.2415033c-.00286.5886857.00955 1.0525967.07286 1.4334327.063373.381246.1839346.692944.4123567.920829.2284247.227885.5402632.347873.9213476.411841.3810845.06397.8442175.07751 1.4323996.07751h4.3757445c.5881822 0 1.0510744-.01352 1.4313678-.07751.3802934-.064.6911794-.18439.9187594-.412357.227584-.227967.347434-.539443.411325-.920313.06389-.380867.07751-.844073.07751-1.4334327v-3.2415033-3.1748438l-2.8389622-2.84361426z" opacity=".1"/><path d="m4.1623597.39685664c-2.3346162 0-2.5858177.2397933-2.5743751 2.57913206v3.241415 3.2414146c-.011456 2.3393387.2397589 2.5791327 2.5743751 2.5791327h4.3757789c2.3346154 0 2.5743744-.239767 2.5743744-2.5791327v-3.2414146l-.000177-3.1748438-2.6457028-2.64570326z" fill="none" opacity=".2" stroke="#000" stroke-width=".529141"/><path d="m4.1623597.39685664c-2.3346162 0-2.5858177.2397933-2.5743751 2.57913206v3.241415 3.2414146c-.011456 2.3393387.2397589 2.5791327 2.5743751 2.5791327h4.3757789c2.3346154 0 2.5743744-.239767 2.5743744-2.5791327v-3.2414146l-.000177-3.1748438-2.6457028-2.64570326z" fill="url(#b)"/><path d="m7.4083519 4.3695427v.439228c.179958.010329.3143148.049728.3968554.1219506.1002166.080173.1503712.2361808.1503712.4686821v.9259961c0 .2645703.034167.469058.1023147.613369.072156.1443117.1724654.2567411.3007423.3369139-.1282769.080173-.2285861.1926029-.3007423.3369139-.0681481.1443109-.1023147.3487986-.1023147.613369v.925996c0 .232501-.050155.388509-.1503712.468682-.082541.07222-.2168974.111622-.3968554.121951v.4397437c.1852653-.0044.3466056-.02333.4748825-.06253.1483208-.04409.2668113-.110238.3550005-.1984277.088189-.08819.1504638-.196236.1865432-.324512.036077-.128276.05374-.274874.05374-.439228v-1.082046c0-.072156.00992-.1426819.02997-.2108297.02405-.072156.058221-.1339133.1023147-.1860257.0481042-.056121.1065107-.1002164.1746588-.1322852.0589356-.0312032.1303934-.0463956.2103122-.0506406v-.4397447c-.0799214-.0037384-.1513739-.0172209-.2103122-.0449563-.0681481-.0360777-.1265546-.0801728-.1746588-.1322852-.0440933-.0561209-.0782625-.1183958-.1023146-.1865427-.0200545-.0721555-.0299705-.1443573-.0299705-.2165138v-1.0820511c0-.1643542-.017673-.3109516-.05374-.4392283-.036079-.1282761-.0983536-.2341301-.1865428-.3183109-.0881892-.0881902-.2066797-.1543328-.3550005-.1984277-.1282743-.0427585-.2896225-.0634252-.4748825-.0682097zm-2.1165626.00103c-.1784474.00577-.336724.025721-.4645485.067178-.1443099.044095-.2606097.1102375-.3487989.1984278-.088189.084181-.1504664.1900347-.1865432.3183109-.036077.1282766-.05374.274874-.05374.4392282v1.0820511c0 .072156-.012117.1443583-.036172.2165138-.020054.068147-.05421.1304218-.1023147.1865427-.044096.052112-.1003092.096208-.1684572.1322852-.06315.029719-.1396032.044334-.2268479.046506v.4366446c.087234.00246.1637055.018761.2268479.052191.068148.032069.1243613.076164.1684572.1322852.048104.052112.082271.113871.1023147.1860257.024049.068147.036172.1386743.036172.2108298v1.0820506c0 .164355.017673.310951.05374.439229.036077.128276.098354.236322.1865432.324512.088189.08819.204489.1543317.3487989.1984267.1278272.038.2860984.05624.4645485.06149v-.4392257c-.1722697-.011844-.3031421-.051396-.3865214-.121433-.0962083-.080173-.1441697-.236181-.1441697-.468683v-.9259956c0-.2645703-.035844-.4690581-.1079976-.613369-.068148-.1443102-.1667824-.2567393-.2950594-.3369123.128277-.0801728.2269114-.1926022.2950594-.3369139.0721537-.144311.1079976-.3487987.1079976-.613369v-.9259961c0-.2325013.047961-.3885094.1441697-.4686821.083379-.070038.2142517-.1095898.3865214-.1214339z" fill="#5884f4"/><path d="m1.5878047 6.2174037v3.2415036c-.011456 2.3393377.2397775 2.5790437 2.5743936 2.5790437h4.3757445c2.3346162 0 2.5743932-.23968 2.5743932-2.5790437v-3.2415036z" fill="#fff" opacity=".2"/><path d="m6.3500706.39685664v11.64109436h2.1878722c2.3346162 0 2.5743932-.23968 2.5743932-2.5790437v-3.2415036-3.1748438l-2.6457028-2.64570326z" fill="#fff" opacity=".1"/><path d="m4.1621983.39685664c-2.3346161 0-2.5858362.2397052-2.5743936 2.57904396v3.2415031 3.2415036c-.011456 2.3393377.2397775 2.5790437 2.5743936 2.5790437h4.3757445c2.3346162 0 2.5743932-.23968 2.5743932-2.5790437v-3.2415036-3.1748438h-.26457v3.1748438 3.2415036c0 .5803217-.01625 1.0240707-.07028 1.3461027-.05402.322035-.139871.509124-.264055.633525-.124183.124387-.3107.2105-.6319705.26457-.321273.05406-.7643966.07028-1.3435225.07028h-4.3757397c-.5791259 0-1.0227997-.01619-1.3450729-.07028-.3222704-.0541-.5102953-.14009-.6350719-.26457-.124774-.124489-.2105874-.311352-.2640518-.633006-.053467-.321654-.0684681-.765511-.0656267-1.3455887v-.000529-3.2420076-3.2420198-.0005292c-.00283-.5800778.01217-1.0239334.065627-1.3455882.053467-.3216548.1392778-.5085249.2640518-.63300516.124774-.1244803.31332-.2104736.6355905-.2645703.3222705-.0540718.7654284-.0702641 1.3445543-.0702641h4.3044349v-.2645703z" fill="url(#a)" opacity=".4"/><path d="m11.112336 3.3071302v-.2645703l-2.6457028-2.64570326h-.2645704v1.11359076.042668.022917c0 1.505929.201592 1.7381397 1.7109763 1.730759z" opacity=".2"/><path d="m11.112336 3.0422212-2.6457028-2.64536506v.98127596.042668.022917c0 1.505929.069402 1.6058848 1.5787868 1.598504z" fill="#faf8f6"/></svg>