<svg id="svg49" height="48" viewBox="0 0 12.699375 12.699375" width="48" xmlns="http://www.w3.org/2000/svg" xmlns:xlink="http://www.w3.org/1999/xlink">
  <linearGradient id="linearGradient1004" gradientUnits="userSpaceOnUse" x1="344" x2="344" y1="62" y2="106">
    <stop id="stop923" offset="0" stop-color="#fff"/>
    <stop id="stop933" offset=".125" stop-color="#fff" stop-opacity=".098039"/>
    <stop id="stop931" offset=".92500001" stop-color="#fff" stop-opacity=".098039"/>
    <stop id="stop925" offset="1" stop-color="#fff" stop-opacity=".498039"/>
  </linearGradient>
  <clipPath id="clipPath994-9">
    <path id="path996-1" d="m335.73108 62c-8.82418 0-9.77365.90635-9.7304 9.74838v12.25162 12.25162c-.0433 8.84203.90622 9.74838 9.7304 9.74838h16.53919c8.82418 0 9.7304-.90625 9.7304-9.74838v-12.25162-12.25162c0-8.84213-.90622-9.74838-9.7304-9.74838z"/>
  </clipPath>
  <linearGradient id="linearGradient1024" gradientTransform="matrix(0 -.02997086 .02997 0 -3.039509 13.625372)" gradientUnits="userSpaceOnUse" x1="459.03448" x2="35.310345" y1="419.23337" y2="207.36522">
    <stop id="stop4340" offset="0" stop-color="#f2f2f2"/>
    <stop id="stop4342" offset="1" stop-color="#f9f9f9"/>
  </linearGradient>
  <path id="path1020" d="m4.1621981.39685584c-.5881821 0-1.0513178.013541-1.4323995.077511-.3810844.0639687-.6929229.1839553-.9213476.4118406-.228422.22788546-.3489841.53958346-.4123566.92082876-.0633725.3812456-.0757438.8453924-.07286 1.4349839v3.2399529 3.2415028c-.00286.5886862.00955 1.0525982.07286 1.4334342.063373.381246.1839346.692944.4123566.920829.2284247.227885.5402632.347873.9213476.411841.3810844.06397.8442174.07751 1.4323995.07751h4.3757443c.5881821 0 1.0510744-.01352 1.4313677-.07751.3802939-.064.6911799-.18439.9187599-.412357.227584-.227967.347434-.539443.411325-.920313.06389-.380868.07751-.844073.07751-1.4334342v-3.2415028-3.241503c0-.5893606-.01363-1.0525644-.07751-1.4334338-.063891-.3808691-.183741-.6923443-.411325-.92031206-.22758-.2279675-.538466-.3483608-.9187599-.4123574-.3802933-.0639969-.8431856-.0775109-1.4313677-.0775109z" opacity=".1"/>
  <path id="path958" d="m4.1623595.39685584c-2.334616 0-2.5858176.2397933-2.5743749 2.57913196v3.2414149 3.2414151c-.011456 2.3393392.2397589 2.5791322 2.5743749 2.5791322h4.3757787c2.3346158 0 2.5743748-.239767 2.5743748-2.5791322v-3.2414151-3.2414149c0-2.33936516-.239759-2.57913196-2.5743748-2.57913196z" fill="none" opacity=".2" stroke="#000" stroke-width=".529141"/>
  <path id="path964" d="m4.1623595.39685584c-2.334616 0-2.5858176.2397933-2.5743749 2.57913196v3.2414149 3.2414151c-.011456 2.3393392.2397589 2.5791322 2.5743749 2.5791322h4.3757787c2.3346158 0 2.5743748-.239767 2.5743748-2.5791322v-3.2414151-3.2414149c0-2.33936516-.239759-2.57913196-2.5743748-2.57913196z" fill="url(#linearGradient1024)"/>
  <path id="path1078" d="m3.4175147 7.7766706c-.1821276-.0395901-.2838019-.1103417-.3419016-.2379183-.0272666-.0598821-.0307298-.1021046-.0380531-.4637674-.0076461-.3778691-.0097362-.401304-.0414767-.4657475-.0414952-.08424-.121951-.1275967-.2568793-.1384266l-.093118-.00746v-.1768831-.1768795l.097666-.00986c.134116-.013531.2135929-.054219.253035-.1294892.027611-.052699.031947-.087149.03572-.2842295.010371-.542121.013784-.5990311.039612-.6583263.033666-.077348.087694-.1328135.1705605-.1750958.1356187-.069199.2130082-.080927.5856555-.088753l.3503017-.00735.00418.9964914c.00405.9634518.00516.9983775.033119 1.053433.051605.1015402.087226.1166813.2745287.1166813h.1638326l.00868.063512c.00479.034931.00868.1009963.00868.146809v.083299l-.1261203.0178929c-.0708731.010059-.1833631.0144456-.2568184.0100008-.2312847-.0139905-.3729648-.0924372-.4495209-.2489107-.0717091-.1465693-.0780191-.2353196-.0785668-1.1048615l-.0005291-.800753-.075963.010085c-.1087173.014416-.1636024.044357-.1941444.1058881-.0227.045736-.027383.1035322-.033677.4148577-.0068.338265-.00939.3660163-.039977.4280414-.042397.086038-.078855.1189886-.2052616.1855037l-.1039364.054691.084131.030786c.108069.03955.1813815.1008339.2238953.1871679.032103.065188.03423.087836.04109.4376943.0078.3987598.012726.4251092.089829.4821619.023864.017665.070532.031598.1193662.035647l.080194.00664v.1645947.1645992l-.1193692-.00114c-.06565-.0005821-.1596206-.00989-.2088227-.0206zm5.5369222-.1446435v-.1663886l.068725-.0000285c.09455-.0000286.1635997-.037724.1987638-.1084926.025743-.051767.02955-.096819.036246-.4268274.00704-.3464278.00947-.3726549.039831-.429605.038839-.072815.098015-.1201686.2185536-.1748852l.089994-.040852-.08284-.034336c-.0986081-.0408692-.1834399-.1137777-.2265358-.1946899-.0291106-.0546536-.0318913-.0852316-.0389183-.4278215-.0069052-.3366496-.010133-.3733958-.0369657-.4195932-.034619-.0596228-.1027724-.0971071-.1981288-.1089625l-.068725-.00855v-.1675689-.1675712l.1440109.00992c.3184924.021938.477433.1054781.5459779.2869763.018493.048955.025108.1455295.031994.4668473.00794.3706862.011165.409427.037863.4557639.037648.065338.1389893.1160315.2525429.1263286l.087229.00792v.1768682.1768679l-.092811.00744c-.1200488.00963-.2054547.05615-.2459922.1339647-.027666.053141-.03086.09044-.03886.4557639-.00934.4272915-.016827.4735029-.092732.5730091-.072646.095241-.2860957.1641662-.5098587.1646392l-.1193636.0002564zm-3.5882348-.3773448c-.0198957-.003532-.0752385-.0133052-.1229855-.0217397-.1189509-.0209989-.3041157-.1129885-.3861854-.1918833-.148588-.1428399-.2300703-.3200558-.258673-.562567-.0323173-.2740178.0256368-.549825.1554297-.739791.1092305-.1598639.2757114-.2713994.464821-.3114082.098055-.020742.3119892-.020856.4109332-.0002051.1988193.041462.3667686.1698904.4622388.3534654.074868.1439596.099134.2582847.099134.4670354v.1763182h-.5923063-.5923068l.00717.054258c.023547.1775833.067796.2707213.1724232.3628166.090417.07959.1696477.103797.3397029.103797.158983 0 .3175585-.034609.4565452-.099646l.087859-.041112.02896.1489915.028957.1489914-.096081.044285c-.052845.024362-.1468789.057278-.208963.073157-.1081219.027666-.3808304.048702-.4566959.035251zm.4304638-1.185349c-.015054-.1872592-.1147997-.3168616-.2731741-.3548531-.2467092-.0591841-.4547488.1024464-.4987468.3874852l-.0095.061492h.3944849.3944849zm.9189929 1.179719c-.2144527-.0243907-.4441818-.1005404-.432128-.1432246.00368-.012993.014551-.083836.024182-.157445.00963-.07361.020107-.1338364.023282-.1338364.00317 0 .031071.012908.062007.028697.1679916.085701.5003263.1389592.6362202.1019535.1291899-.0351816.2003144-.1566069.1551046-.2648029-.0296927-.0710681-.0958909-.1111709-.3596225-.2178684-.2504475-.101327-.3437721-.1552226-.4291542-.2478537-.1448919-.1571886-.1379655-.4796062.0135725-.6311304.1310655-.1310641.3021207-.1785093.6065168-.1682265.2082142.00704.3193046.028236.4752979.090636l.056785.022708-.050025.1399593c-.027523.076977-.051329.141267-.05293.1428656-.00159.00172-.054896-.015499-.1184376-.037974-.3601093-.1274343-.6434694-.077955-.6434694.1123587 0 .089691.083554.1480996.3569795.2495547.2999407.1112904.4369378.2021833.508102.3370996.035754.067788.039215.088374.039215.2334962 0 .1446234-.00368.1666111-.040088.2407818-.067508.1374665-.195314.2352774-.3652713.2795458-.1032353.026896-.3315648.038005-.4661279.022708zm1.3889942 0c-.1357299-.015443-.2361925-.0394474-.3447061-.0823711l-.087631-.034661.021113-.1551202c.011615-.085314.022727-.1571998.024737-.1597442.00212-.00257.02983.00875.061857.025073.1688409.086135.5015724.140173.6366171.1033866.089985-.024501.1614351-.09479.1713247-.1685161.0173823-.1296024-.0565254-.1913166-.3811215-.3182463-.4175025-.1632574-.5394244-.2994044-.5225925-.5835455.0142075-.2398701.145818-.3814708.4127853-.4441334.074969-.017581.1467518-.021311.3075894-.015898.209844.00707.2891913.021541.4517988.082365l.082419.03084-.050467.1394238c-.027751.076681-.051922.14074-.053697.1423499-.00159.00172-.068823-.019062-.1489928-.045927-.2545219-.085305-.4590004-.082394-.5601483.00798-.039199.035023-.046458.051631-.046458.1062845 0 .10843.051422.1445438.3851324.2704848.4131953.1559407.5302597.2883354.5161687.5837564-.00788.1656025-.045406.2579-.1411959.3474994-.080697.075479-.1570018.116989-.2684071.1460052-.1032327.026897-.3315595.038006-.4661252.022708z" fill="#234db8" stroke-width=".014469"/>
  <path id="path1006" d="m1.5878047 6.2174027v3.2415031c-.011456 2.3393382.2397774 2.5790442 2.5743934 2.5790442h4.3757443c2.3346166 0 2.5743936-.239679 2.5743936-2.5790442v-3.2415031z" fill="#fff" opacity=".2"/>
  <path id="path1013" d="m6.3500703.39685584v11.64109416h2.1878721c2.3346166 0 2.5743936-.239679 2.5743936-2.5790442v-3.2415031-3.241503c0-2.33936516-.239777-2.57904386-2.5743936-2.57904386z" fill="#fff" opacity=".1"/>
  <path id="path990" clip-path="url(#clipPath994-9)" d="m335.73108 62c-8.82418 0-9.77365.90635-9.7304 9.74838v12.25162 12.25162c-.0433 8.84203.90622 9.74838 9.7304 9.74838h16.53919c8.82418 0 9.7304-.90625 9.7304-9.74838v-12.25162-12.25162c0-8.84213-.90622-9.74838-9.7304-9.74838z" fill="none" opacity=".4" stroke="url(#linearGradient1004)" stroke-width="2" transform="matrix(.26457031 0 0 .26457031 -84.662117 -16.006503)"/>
</svg>
