<svg height="48" viewBox="0 0 12.699375 12.699375" width="48" xmlns="http://www.w3.org/2000/svg" xmlns:xlink="http://www.w3.org/1999/xlink"><linearGradient id="a" gradientUnits="userSpaceOnUse" x1="344" x2="344" y1="62" y2="106"><stop offset="0" stop-color="#fff"/><stop offset=".125" stop-color="#fff" stop-opacity=".098039"/><stop offset=".92500001" stop-color="#fff" stop-opacity=".098039"/><stop offset="1" stop-color="#fff" stop-opacity=".498039"/></linearGradient><clipPath id="b"><path d="m335.73108 62c-8.82418 0-9.77365.90635-9.7304 9.74838v12.25162 12.25162c-.0433 8.84203.90622 9.74838 9.7304 9.74838h16.53919c8.82418 0 9.7304-.90625 9.7304-9.74838v-12.25162-12.25162c0-8.84213-.90622-9.74838-9.7304-9.74838z"/></clipPath><linearGradient id="c" gradientTransform="matrix(0 -.02997086 .02997 0 -3.039509 13.625372)" gradientUnits="userSpaceOnUse" x1="459.03448" x2="35.310345" y1="419.23337" y2="207.36522"><stop offset="0" stop-color="#f2f2f2"/><stop offset="1" stop-color="#f9f9f9"/></linearGradient><path d="m4.1621981.39685574c-.5881821 0-1.0513178.013541-1.4323995.077511-.3810845.0639688-.6929229.1839554-.9213476.4118407-.2284221.22788546-.3489841.53958336-.4123566.92082866-.0633726.3812456-.0757439.8453924-.07286 1.4349839v3.2399529 3.2415029c-.00286.5886862.00955 1.0525982.07286 1.4334342.063373.381246.1839345.692944.4123566.920829.2284247.227885.5402631.347873.9213476.411841.3810844.06397.8442174.07751 1.4323995.07751h4.3757443c.5881821 0 1.0510748-.01352 1.4313678-.07751.3802928-.064.6911788-.18439.9187598-.412357.227583-.227967.347434-.539443.411325-.920313.06389-.380868.07751-.844073.07751-1.4334342v-3.2415029-3.241503c0-.5893606-.01363-1.0525644-.07751-1.4334338-.063891-.3808691-.183742-.6923442-.411325-.92031196-.227581-.2279676-.538467-.3483608-.9187598-.4123575-.380293-.0639969-.8431857-.0775109-1.4313678-.0775109z" opacity=".1"/><path d="m4.1623595.39685574c-2.334616 0-2.5858176.2397933-2.5743749 2.57913196v3.2414149 3.2414152c-.011456 2.3393392.2397589 2.5791322 2.5743749 2.5791322h4.3757787c2.3346158 0 2.5743748-.239767 2.5743748-2.5791322v-3.2414152-3.2414149c0-2.33936506-.239759-2.57913196-2.5743748-2.57913196z" fill="none" opacity=".2" stroke="#000" stroke-width=".529141"/><path d="m4.1623595.39685574c-2.334616 0-2.5858176.2397933-2.5743749 2.57913196v3.2414149 3.2414152c-.011456 2.3393392.2397589 2.5791322 2.5743749 2.5791322h4.3757787c2.3346158 0 2.5743748-.239767 2.5743748-2.5791322v-3.2414152-3.2414149c0-2.33936506-.239759-2.57913196-2.5743748-2.57913196z" fill="url(#c)"/><path d="m6.4994255 2.9110489c-.2938238.0000264-.5717364.0337327-.8337828.1008066-.2378989.0623063-.4486239.1473339-.6433133.2456747l.1988193.5501078c.3791928-.1924802.7681694-.297848 1.1663239-.297848.3347476 0 .6003047.088441.7831228.2709994.1803973.1739417.2717587.4061154.2717587.6813109 0 .1715791-.040148.332213-.1197974.4784278-.0712224.1421324-.1646289.2774416-.2798678.4054936-.1128736.1254143-.2318245.250818-.3571117.3761132l-.0005292.0005291-.00132.0005292c-.122102.1159929-.2380156.2443756-.3482567.3852329l-.0005292.0005291-.0002434.0005292c-.1084262.1325179-.1986023.2769204-.271002.4336042-.064449.1528106-.09751.3238156-.09751.5151581 0 .1147653.013281.2224111.03114.3274799h.5992438c-.0005291-.012832-.00331-.024341-.00331-.037701v-.1028335c0-.2136008.042397-.407769.1279065-.579237.083075-.1725395.1855829-.3295223.3072191-.470578l.0005291-.0005291c.0002513-.0002434.0002513-.0005292.0005291-.00132.1200437-.1451991.2526992-.2837995.3976388-.4161297.1410689-.1288007.269695-.2637051.3859949-.404483.1150404-.1392566.2116218-.2874371.2902468-.4444913v-.0002434c.076262-.1584724.1149876-.337904.1149876-.5412395 0-.1609116-.026655-.3288873-.081051-.5040196l-.0005292-.00132-.0002434-.00132c-.0470936-.1766593-.1346479-.3350311-.2651736-.4774282-.1292955-.1410503-.3042083-.2571914-.5275717-.3477459l-.00132-.0005291-.00132-.0005292c-.2125033-.0944436-.4934373-.1438389-.8421463-.1438601h-.0002381z" fill="#999"/><path d="m6.349983 8.4025232c-.1790639 0-.3095896.054634-.4092824.1653829-.1023702.113752-.1514559.2419099-.1514559.3956173 0 .1537021.04911.2821192.1514559.3958634.099693.11077.2302185.165132.4092824.165132.1790823 0 .3098515-.05437.4095495-.165132.1023623-.1137442.1514586-.2421613.1514586-.3958634 0-.1537074-.049078-.2818653-.1514586-.3956173-.099698-.1107677-.2304672-.1653829-.4095495-.1653829z" fill="#999"/><path d="m1.5878047 6.2174026v3.2415032c-.011456 2.3393382.2397774 2.5790442 2.5743934 2.5790442h4.3757443c2.3346156 0 2.5743936-.239679 2.5743936-2.5790442v-3.2415032z" fill="#fff" opacity=".2"/><path d="m6.3500703.39685574v11.64109426h2.1878721c2.3346156 0 2.5743936-.239679 2.5743936-2.5790442v-3.2415032-3.241503c0-2.33936506-.239778-2.57904386-2.5743936-2.57904386z" fill="#fff" opacity=".1"/><path clip-path="url(#b)" d="m335.73108 62c-8.82418 0-9.77365.90635-9.7304 9.74838v12.25162 12.25162c-.0433 8.84203.90622 9.74838 9.7304 9.74838h16.53919c8.82418 0 9.7304-.90625 9.7304-9.74838v-12.25162-12.25162c0-8.84213-.90622-9.74838-9.7304-9.74838z" fill="none" opacity=".4" stroke="url(#a)" stroke-width="2" transform="matrix(.26457031 0 0 .26457031 -84.662117 -16.006503)"/></svg>