<?xml version="1.0" encoding="UTF-8" standalone="no"?>
<svg
   xmlns:dc="http://purl.org/dc/elements/1.1/"
   xmlns:cc="http://creativecommons.org/ns#"
   xmlns:rdf="http://www.w3.org/1999/02/22-rdf-syntax-ns#"
   xmlns:svg="http://www.w3.org/2000/svg"
   xmlns="http://www.w3.org/2000/svg"
   xmlns:xlink="http://www.w3.org/1999/xlink"
   xmlns:sodipodi="http://sodipodi.sourceforge.net/DTD/sodipodi-0.dtd"
   xmlns:inkscape="http://www.inkscape.org/namespaces/inkscape"
   width="256"
   height="256"
   version="1.1"
   viewBox="0 0 67.73 67.73"
   id="svg216"
   sodipodi:docname="aqualung.svg"
   inkscape:version="0.92.3 (2405546, 2018-03-11)">
  <metadata
     id="metadata220">
    <rdf:RDF>
      <cc:Work
         rdf:about="">
        <dc:format>image/svg+xml</dc:format>
        <dc:type
           rdf:resource="http://purl.org/dc/dcmitype/StillImage" />
        <dc:title />
      </cc:Work>
    </rdf:RDF>
  </metadata>
  <sodipodi:namedview
     pagecolor="#ffffff"
     bordercolor="#666666"
     borderopacity="1"
     objecttolerance="10"
     gridtolerance="10"
     guidetolerance="10"
     inkscape:pageopacity="0"
     inkscape:pageshadow="2"
     inkscape:window-width="1920"
     inkscape:window-height="1009"
     id="namedview218"
     showgrid="false"
     inkscape:zoom="3.2617188"
     inkscape:cx="128"
     inkscape:cy="128"
     inkscape:window-x="0"
     inkscape:window-y="34"
     inkscape:window-maximized="1"
     inkscape:current-layer="g208" />
  <defs
     id="defs54">
    <linearGradient
       id="linearGradient3165">
      <stop
         style="stop-color:#000000"
         offset="0"
         id="stop2" />
      <stop
         style="stop-color:#707070"
         offset="1"
         id="stop4" />
    </linearGradient>
    <linearGradient
       id="linearGradient1108"
       x1="296"
       x2="296"
       y1="-212"
       y2="236"
       gradientUnits="userSpaceOnUse">
      <stop
         style="stop-color:#ffffff"
         offset="0"
         id="stop7" />
      <stop
         style="stop-color:#ffffff;stop-opacity:.09803922"
         offset=".125"
         id="stop9" />
      <stop
         style="stop-color:#000000;stop-opacity:.09803922"
         offset=".925"
         id="stop11" />
      <stop
         style="stop-color:#000000;stop-opacity:.49803922"
         offset="1"
         id="stop13" />
    </linearGradient>
    <clipPath
       id="clipPath1082-3-36753">
      <path
         d="M 361.9375,-212 C 507.2348,-212 528,-191.28677 528,-46.125 V 70.125 C 528,215.28618 507.2348,236 361.9375,236 H 214.0625 C 68.7652,236 48,215.28618 48,70.125 V -46.125 C 48,-191.28677 68.7652,-212 214.0625,-212 Z"
         style="fill:#8c59d9"
         id="path16" />
    </clipPath>
    <linearGradient
       id="linearGradient933"
       x1="160"
       x2="160"
       y1="28"
       y2="284"
       gradientTransform="matrix(.26458333 0 0 .26458333 -6.7437806 221.97263)"
       gradientUnits="userSpaceOnUse">
      <stop
         style="stop-color:#d280b9"
         offset="0"
         id="stop19" />
      <stop
         style="stop-color:#b549b5"
         offset=".529"
         id="stop21" />
      <stop
         style="stop-color:#8940a8"
         offset="1"
         id="stop23" />
    </linearGradient>
    <filter
       id="filter930"
       x="-.02"
       y="-.03"
       width="1.046"
       height="1.05"
       style="color-interpolation-filters:sRGB">
      <feGaussianBlur
         stdDeviation="2.32"
         id="feGaussianBlur26" />
    </filter>
    <filter
       id="filter4569"
       x="-.01"
       y="-.01"
       width="1.023"
       height="1.025"
       style="color-interpolation-filters:sRGB">
      <feGaussianBlur
         stdDeviation="1.16"
         id="feGaussianBlur29" />
    </filter>
    <radialGradient
       id="radialGradient2308"
       cx="41.095"
       cy="272.137"
       r="13.175"
       gradientTransform="matrix(-0.30644097,-0.76787983,0.61418468,-0.24543012,-110.96335,371.59106)"
       gradientUnits="userSpaceOnUse">
      <stop
         style="stop-color:#75b4e3"
         offset="0"
         id="stop32" />
      <stop
         style="stop-color:#2967b0;stop-opacity:0"
         offset="1"
         id="stop34" />
    </radialGradient>
    <linearGradient
       id="linearGradient3169"
       x1="-8.991"
       x2="-9.049"
       y1="290.85"
       y2="288.248"
       gradientTransform="translate(29.048518,-24.263068)"
       gradientUnits="userSpaceOnUse"
       xlink:href="#linearGradient3165" />
    <linearGradient
       id="linearGradient3185"
       x1="-11.105"
       x2="-11.105"
       y1="302.464"
       y2="287.999"
       gradientTransform="translate(29.048518,-24.263068)"
       gradientUnits="userSpaceOnUse"
       xlink:href="#linearGradient3165" />
    <linearGradient
       id="linearGradient3203"
       x1="-8.908"
       x2="-8.965"
       y1="299.582"
       y2="301.513"
       gradientTransform="translate(29.048518,-24.263068)"
       gradientUnits="userSpaceOnUse"
       xlink:href="#linearGradient3165" />
    <linearGradient
       id="linearGradient3205"
       x1="-11.542"
       x2="-11.542"
       y1="288.038"
       y2="302.425"
       gradientTransform="translate(29.048518,-24.263068)"
       gradientUnits="userSpaceOnUse"
       xlink:href="#linearGradient3165" />
    <radialGradient
       id="radialGradient3296"
       cx="27.638"
       cy="264.034"
       r="13.175"
       gradientTransform="matrix(1.2547561,-0.01400287,0.0146844,1.3175716,-9.7511821,-85.304254)"
       gradientUnits="userSpaceOnUse">
      <stop
         style="stop-color:#75b4e3"
         offset="0"
         id="stop41" />
      <stop
         style="stop-color:#2967b0"
         offset="1"
         id="stop43" />
    </radialGradient>
    <filter
       id="filter1196"
       x="-.06"
       y="-.06"
       width="1.122"
       height="1.118"
       style="color-interpolation-filters:sRGB">
      <feGaussianBlur
         stdDeviation="1.096"
         id="feGaussianBlur46" />
    </filter>
    <linearGradient
       id="linearGradient1109"
       x1="127.64"
       x2="127.299"
       y1="159.873"
       y2="140.365"
       gradientUnits="userSpaceOnUse">
      <stop
         style="stop-color:#8fb8df"
         offset="0"
         id="stop49" />
      <stop
         style="stop-color:#f2f7fc"
         offset="1"
         id="stop51" />
    </linearGradient>
    <filter
       inkscape:collect="always"
       style="color-interpolation-filters:sRGB"
       id="filter2182"
       x="-0.012205278"
       width="1.0244106"
       y="-0.011801512"
       height="1.023603">
      <feGaussianBlur
         inkscape:collect="always"
         stdDeviation="0.2940437"
         id="feGaussianBlur2184" />
    </filter>
    <filter
       inkscape:collect="always"
       style="color-interpolation-filters:sRGB"
       id="filter2272"
       x="-0.048821114"
       width="1.0976422"
       y="-0.04720605"
       height="1.0944121">
      <feGaussianBlur
         inkscape:collect="always"
         stdDeviation="1.1761748"
         id="feGaussianBlur2274" />
    </filter>
  </defs>
  <g
     transform="translate(0,-229.26666)"
     id="g214">
    <g
       style="fill:#000000;fill-opacity:1;opacity:0.1;filter:url(#filter2272)"
       transform="matrix(1.0087662,0,0,1.0087662,-1.0856617,-5.3336257)"
       id="g2262">
      <g
         style="fill:#000000;fill-opacity:1"
         transform="matrix(1.3175821,0,0,1.3175821,-11.593213,-80.15716)"
         id="g2260">
        <g
           id="g2222"
           style="fill:#000000;fill-opacity:1;opacity:0.1"
           transform="matrix(1.0178572,0,0,1.0178572,-0.63792963,-4.6587905)">
          <path
             d="m 34.955374,242.10138 c -9.335945,0 -16.923707,9.67245 -17.379882,21.76978 h 0.691993 c 0.453674,-11.70389 7.769275,-20.96233 16.687889,-20.96233 8.918615,0 16.235465,9.25844 16.689239,20.96233 h 0.692443 C 51.880783,251.77383 44.291321,242.10138 34.955374,242.10138 Z"
             id="path2186"
             inkscape:connector-curvature="0"
             style="fill:#000000;fill-opacity:1" />
          <path
             d="m 49.337945,268.81599 c 0,7.93644 -6.429503,14.37021 -14.360694,14.37021 -7.931194,0 -14.360696,-6.43377 -14.360696,-14.37021 0,-5.64491 7.882133,-13.59088 10.478797,-20.95748 1.050148,-2.97923 1.587729,-5.67901 2.014017,-9.26061 0.410305,0.71114 2.541465,5.3879 4.10899,7.91276 4.538433,7.31019 12.119586,14.92609 12.119586,22.30533 z"
             style="fill:#000000;fill-opacity:1"
             id="path2188"
             inkscape:connector-curvature="0" />
          <rect
             transform="matrix(-0.99777897,0.06661174,0.06652395,0.99778483,0,0)"
             x="-35.040001"
             y="263.53"
             width="1.51"
             height="1.877"
             rx="0.57700002"
             ry="0.57700002"
             id="rect2190"
             style="fill:#000000;fill-opacity:1" />
          <g
             transform="matrix(-1.0899999,0,0,-1.0907222,71.18175,565.41163)"
             id="g2200"
             style="fill:#000000;fill-opacity:1">
            <path
               d="m 21.762554,276.72245 c 0,0.53533 -0.554861,0.96932 -1.239287,0.96932 h -0.989998 c -0.684427,0 -1.239286,-0.43399 -1.239286,-0.96932 v -11.53871 c 0,-0.53533 0.554859,-0.96932 1.239286,-0.96932 h 0.989998 c 0.684426,0 1.239287,0.43399 1.239287,0.96932 z"
               style="fill:#000000;fill-opacity:1"
               id="path2192"
               inkscape:connector-curvature="0" />
            <path
               d="m 15.230947,265.67295 v 10.59127 c 0,2.19664 3.365926,1.93821 3.365926,1.93821 0.276023,-0.021 0.484746,-0.21284 0.484746,-0.42603 v -13.61563 c 0,-0.21319 -0.208723,-0.40493 -0.484746,-0.42602 0,0 -3.365926,-0.25853 -3.365926,1.9382 z"
               style="fill:#000000;fill-opacity:1"
               id="path2194"
               inkscape:connector-curvature="0" />
            <path
               d="m 15.111171,265.68615 c 0,0 -0.317868,-0.0492 -0.636719,0.10937 -1.001601,1.19353 -1.016287,3.25008 -1.044553,4.96698 0.02428,1.44484 0.01272,4.75566 1.044553,5.36115 0.318851,0.15859 0.636719,0.10937 0.636719,0.10937 0.0677,-0.0104 0.121417,-0.0615 0.158203,-0.125 0.03679,-0.0634 0.05859,-0.14197 0.05859,-0.22656 l -0.05859,-10.07226 c -0.03679,-0.0635 -0.0905,-0.11265 -0.158203,-0.12305 z"
               style="fill:#000000;fill-opacity:1"
               id="path2196"
               inkscape:connector-curvature="0" />
            <path
               d="m 17.506345,278.16234 c 0.175031,0.0192 0.262546,0.0313 0.437576,0.0388 v -14.46517 c -0.17503,0.007 -0.262545,0.0197 -0.437576,0.0387 z"
               id="path2198"
               inkscape:connector-curvature="0"
               style="fill:#000000;fill-opacity:1" />
          </g>
          <rect
             transform="matrix(0.99777897,0.06661174,-0.06652395,0.99778483,0,0)"
             x="34.77"
             y="258.79999"
             width="1.51"
             height="1.877"
             rx="0.57700002"
             ry="0.57700002"
             id="rect2202"
             style="fill:#000000;fill-opacity:1" />
          <g
             transform="matrix(1.0899999,0,0,1.0907222,-1.2086899,-25.691266)"
             id="g2212"
             style="fill:#000000;fill-opacity:1">
            <path
               d="m 21.762554,276.72245 c 0,0.53533 -0.554861,0.96932 -1.239287,0.96932 h -0.989998 c -0.684427,0 -1.239286,-0.43399 -1.239286,-0.96932 v -11.53871 c 0,-0.53533 0.554859,-0.96932 1.239286,-0.96932 h 0.989998 c 0.684426,0 1.239287,0.43399 1.239287,0.96932 z"
               style="fill:#000000;fill-opacity:1"
               id="path2204"
               inkscape:connector-curvature="0" />
            <path
               d="m 15.230947,265.67295 v 10.59127 c 0,2.19664 3.365926,1.93821 3.365926,1.93821 0.276023,-0.021 0.484746,-0.21284 0.484746,-0.42603 v -13.61563 c 0,-0.21319 -0.208723,-0.40493 -0.484746,-0.42602 0,0 -3.365926,-0.25853 -3.365926,1.9382 z"
               style="fill:#000000;fill-opacity:1"
               id="path2206"
               inkscape:connector-curvature="0" />
            <path
               d="m 15.111171,265.68615 c 0,0 -0.317868,-0.0492 -0.636719,0.10937 -1.001601,1.19353 -1.016287,3.25008 -1.044553,4.96698 0.02428,1.44484 0.01272,4.75566 1.044553,5.36115 0.318851,0.15859 0.636719,0.10937 0.636719,0.10937 0.0677,-0.0104 0.121417,-0.0615 0.158203,-0.125 0.03679,-0.0634 0.05859,-0.14197 0.05859,-0.22656 l -0.05859,-10.07226 c -0.03679,-0.0635 -0.0905,-0.11265 -0.158203,-0.12305 z"
               style="fill:#000000;fill-opacity:1"
               id="path2208"
               inkscape:connector-curvature="0" />
            <path
               d="m 17.506345,278.16234 c 0.175031,0.0192 0.262546,0.0313 0.437576,0.0388 v -14.46517 c -0.17503,0.007 -0.262545,0.0197 -0.437576,0.0387 z"
               id="path2210"
               inkscape:connector-curvature="0"
               style="fill:#000000;fill-opacity:1" />
          </g>
          <g
             transform="matrix(1.0899999,0,0,1.0907222,-1.6018589,-25.691266)"
             id="g2220"
             style="fill:#000000;fill-opacity:1">
            <path
               d="m 32.321425,266.26907 -9.903269,0.69659 c 0,0 -0.0574,1.864 0.182932,2.75126 0.13606,0.5023 0.38589,0.97987 0.696601,1.39733 0.412705,0.5545 0.913598,1.07314 1.512051,1.41903 0.631743,0.36514 1.287113,0.58836 2.094963,0.63511 1.355251,0.0784 2.018951,-0.0407 3.322278,-0.26459 1.053541,-0.18097 1.952506,-0.83708 2.161624,-1.72496 0.361876,-1.53645 -0.06718,-4.90977 -0.06718,-4.90977 z m 2.474269,0 c 0,0 -0.428537,3.37332 -0.06666,4.90977 0.209121,0.88788 1.107569,1.54399 2.16111,1.72496 1.303326,0.22391 1.967541,0.34298 3.322794,0.26459 0.80785,-0.0468 1.463219,-0.26997 2.094963,-0.63511 0.598454,-0.34589 1.09883,-0.86453 1.511535,-1.41903 0.31071,-0.41746 0.561056,-0.89503 0.697115,-1.39733 0.240337,-0.88726 0.182935,-2.75126 0.182935,-2.75126 z"
               style="fill:#000000;fill-opacity:1"
               id="path2214"
               inkscape:connector-curvature="0" />
            <path
               transform="matrix(0.24062764,0,0,0.24046829,3.3522033,231.86256)"
               d="m 122.31641,143.1582 c -14.36661,0.23205 -28.714483,1.16933 -43.082035,2.82032 -0.09288,0.83038 -0.169922,1.6253 -0.169922,2.48046 0,12.42152 10.078513,22.5 22.499997,22.5 12.4215,0 22.5,-10.07848 22.5,-22.5 0,-1.84032 -0.2589,-3.58887 -0.67578,-5.30078 -0.35681,0.004 -0.7155,-0.008 -1.07226,0 z m 5.42578,0 c -0.41688,1.71191 -0.67774,3.46046 -0.67774,5.30078 0,12.42152 10.0785,22.5 22.5,22.5 12.42149,0 22.5,-10.07848 22.5,-22.5 0,-0.85516 -0.0751,-1.65008 -0.16797,-2.48046 -14.36755,-1.65099 -28.71737,-2.58827 -43.08398,-2.82032 -0.35676,-0.008 -0.7135,0.004 -1.07031,0 z"
               style="opacity:0.5;fill:#000000;fill-opacity:1"
               id="path2216"
               inkscape:connector-curvature="0" />
            <path
               d="m 33.983857,265.61588 c -4.410805,0 -8.642379,0.39228 -12.583728,1.10794 v 0.97668 c 3.930568,-0.72568 8.165962,-1.12551 12.583728,-1.12551 4.101572,0 8.044124,0.34647 11.73365,0.97617 v -0.97617 c -3.698082,-0.62056 -7.63861,-0.95911 -11.73365,-0.95911 z"
               id="path2218"
               inkscape:connector-curvature="0"
               style="fill:#000000;fill-opacity:1" />
          </g>
        </g>
        <path
           style="fill:#000000;fill-opacity:1"
           d="m 34.955374,242.10138 c -9.335945,0 -16.923707,9.67245 -17.379882,21.76978 h 0.691993 c 0.453674,-11.70389 7.769275,-20.96233 16.687889,-20.96233 8.918615,0 16.235465,9.25844 16.689239,20.96233 h 0.692443 C 51.880783,251.77383 44.291321,242.10138 34.955374,242.10138 Z"
           id="path2224"
           inkscape:connector-curvature="0" />
        <path
           d="m 49.337945,268.81599 c 0,7.93644 -6.429503,14.37021 -14.360694,14.37021 -7.931194,0 -14.360696,-6.43377 -14.360696,-14.37021 0,-5.64491 7.882133,-13.59088 10.478797,-20.95748 1.050148,-2.97923 1.587729,-5.67901 2.014017,-9.26061 0.410305,0.71114 2.541465,5.3879 4.10899,7.91276 4.538433,7.31019 12.119586,14.92609 12.119586,22.30533 z"
           style="fill:#000000;fill-opacity:1"
           id="path2226"
           inkscape:connector-curvature="0" />
        <rect
           style="fill:#000000;fill-opacity:1"
           transform="matrix(-0.99777897,0.06661174,0.06652395,0.99778483,0,0)"
           x="-35.040001"
           y="263.53"
           width="1.51"
           height="1.877"
           rx="0.57700002"
           ry="0.57700002"
           id="rect2228" />
        <g
           style="fill:#000000;fill-opacity:1"
           transform="matrix(-1.0899999,0,0,-1.0907222,71.18175,565.41163)"
           id="g2238">
          <path
             d="m 21.762554,276.72245 c 0,0.53533 -0.554861,0.96932 -1.239287,0.96932 h -0.989998 c -0.684427,0 -1.239286,-0.43399 -1.239286,-0.96932 v -11.53871 c 0,-0.53533 0.554859,-0.96932 1.239286,-0.96932 h 0.989998 c 0.684426,0 1.239287,0.43399 1.239287,0.96932 z"
             style="fill:#000000;fill-opacity:1"
             id="path2230"
             inkscape:connector-curvature="0" />
          <path
             d="m 15.230947,265.67295 v 10.59127 c 0,2.19664 3.365926,1.93821 3.365926,1.93821 0.276023,-0.021 0.484746,-0.21284 0.484746,-0.42603 v -13.61563 c 0,-0.21319 -0.208723,-0.40493 -0.484746,-0.42602 0,0 -3.365926,-0.25853 -3.365926,1.9382 z"
             style="fill:#000000;fill-opacity:1"
             id="path2232"
             inkscape:connector-curvature="0" />
          <path
             d="m 15.111171,265.68615 c 0,0 -0.317868,-0.0492 -0.636719,0.10937 -1.001601,1.19353 -1.016287,3.25008 -1.044553,4.96698 0.02428,1.44484 0.01272,4.75566 1.044553,5.36115 0.318851,0.15859 0.636719,0.10937 0.636719,0.10937 0.0677,-0.0104 0.121417,-0.0615 0.158203,-0.125 0.03679,-0.0634 0.05859,-0.14197 0.05859,-0.22656 l -0.05859,-10.07226 c -0.03679,-0.0635 -0.0905,-0.11265 -0.158203,-0.12305 z"
             style="fill:#000000;fill-opacity:1"
             id="path2234"
             inkscape:connector-curvature="0" />
          <path
             style="fill:#000000;fill-opacity:1"
             d="m 17.506345,278.16234 c 0.175031,0.0192 0.262546,0.0313 0.437576,0.0388 v -14.46517 c -0.17503,0.007 -0.262545,0.0197 -0.437576,0.0387 z"
             id="path2236"
             inkscape:connector-curvature="0" />
        </g>
        <rect
           style="fill:#000000;fill-opacity:1"
           transform="matrix(0.99777897,0.06661174,-0.06652395,0.99778483,0,0)"
           x="34.77"
           y="258.79999"
           width="1.51"
           height="1.877"
           rx="0.57700002"
           ry="0.57700002"
           id="rect2240" />
        <g
           style="fill:#000000;fill-opacity:1"
           transform="matrix(1.0899999,0,0,1.0907222,-1.2086899,-25.691266)"
           id="g2250">
          <path
             d="m 21.762554,276.72245 c 0,0.53533 -0.554861,0.96932 -1.239287,0.96932 h -0.989998 c -0.684427,0 -1.239286,-0.43399 -1.239286,-0.96932 v -11.53871 c 0,-0.53533 0.554859,-0.96932 1.239286,-0.96932 h 0.989998 c 0.684426,0 1.239287,0.43399 1.239287,0.96932 z"
             style="fill:#000000;fill-opacity:1"
             id="path2242"
             inkscape:connector-curvature="0" />
          <path
             d="m 15.230947,265.67295 v 10.59127 c 0,2.19664 3.365926,1.93821 3.365926,1.93821 0.276023,-0.021 0.484746,-0.21284 0.484746,-0.42603 v -13.61563 c 0,-0.21319 -0.208723,-0.40493 -0.484746,-0.42602 0,0 -3.365926,-0.25853 -3.365926,1.9382 z"
             style="fill:#000000;fill-opacity:1"
             id="path2244"
             inkscape:connector-curvature="0" />
          <path
             d="m 15.111171,265.68615 c 0,0 -0.317868,-0.0492 -0.636719,0.10937 -1.001601,1.19353 -1.016287,3.25008 -1.044553,4.96698 0.02428,1.44484 0.01272,4.75566 1.044553,5.36115 0.318851,0.15859 0.636719,0.10937 0.636719,0.10937 0.0677,-0.0104 0.121417,-0.0615 0.158203,-0.125 0.03679,-0.0634 0.05859,-0.14197 0.05859,-0.22656 l -0.05859,-10.07226 c -0.03679,-0.0635 -0.0905,-0.11265 -0.158203,-0.12305 z"
             style="fill:#000000;fill-opacity:1"
             id="path2246"
             inkscape:connector-curvature="0" />
          <path
             style="fill:#000000;fill-opacity:1"
             d="m 17.506345,278.16234 c 0.175031,0.0192 0.262546,0.0313 0.437576,0.0388 v -14.46517 c -0.17503,0.007 -0.262545,0.0197 -0.437576,0.0387 z"
             id="path2248"
             inkscape:connector-curvature="0" />
        </g>
        <g
           style="fill:#000000;fill-opacity:1"
           transform="matrix(1.0899999,0,0,1.0907222,-1.6018589,-25.691266)"
           id="g2258">
          <path
             d="m 32.321425,266.26907 -9.903269,0.69659 c 0,0 -0.0574,1.864 0.182932,2.75126 0.13606,0.5023 0.38589,0.97987 0.696601,1.39733 0.412705,0.5545 0.913598,1.07314 1.512051,1.41903 0.631743,0.36514 1.287113,0.58836 2.094963,0.63511 1.355251,0.0784 2.018951,-0.0407 3.322278,-0.26459 1.053541,-0.18097 1.952506,-0.83708 2.161624,-1.72496 0.361876,-1.53645 -0.06718,-4.90977 -0.06718,-4.90977 z m 2.474269,0 c 0,0 -0.428537,3.37332 -0.06666,4.90977 0.209121,0.88788 1.107569,1.54399 2.16111,1.72496 1.303326,0.22391 1.967541,0.34298 3.322794,0.26459 0.80785,-0.0468 1.463219,-0.26997 2.094963,-0.63511 0.598454,-0.34589 1.09883,-0.86453 1.511535,-1.41903 0.31071,-0.41746 0.561056,-0.89503 0.697115,-1.39733 0.240337,-0.88726 0.182935,-2.75126 0.182935,-2.75126 z"
             style="fill:#000000;fill-opacity:1"
             id="path2252"
             inkscape:connector-curvature="0" />
          <path
             transform="matrix(0.24062764,0,0,0.24046829,3.3522033,231.86256)"
             d="m 122.31641,143.1582 c -14.36661,0.23205 -28.714483,1.16933 -43.082035,2.82032 -0.09288,0.83038 -0.169922,1.6253 -0.169922,2.48046 0,12.42152 10.078513,22.5 22.499997,22.5 12.4215,0 22.5,-10.07848 22.5,-22.5 0,-1.84032 -0.2589,-3.58887 -0.67578,-5.30078 -0.35681,0.004 -0.7155,-0.008 -1.07226,0 z m 5.42578,0 c -0.41688,1.71191 -0.67774,3.46046 -0.67774,5.30078 0,12.42152 10.0785,22.5 22.5,22.5 12.42149,0 22.5,-10.07848 22.5,-22.5 0,-0.85516 -0.0751,-1.65008 -0.16797,-2.48046 -14.36755,-1.65099 -28.71737,-2.58827 -43.08398,-2.82032 -0.35676,-0.008 -0.7135,0.004 -1.07031,0 z"
             style="fill:#000000;fill-opacity:1;opacity:0.5"
             id="path2254"
             inkscape:connector-curvature="0" />
          <path
             style="fill:#000000;fill-opacity:1"
             d="m 33.983857,265.61588 c -4.410805,0 -8.642379,0.39228 -12.583728,1.10794 v 0.97668 c 3.930568,-0.72568 8.165962,-1.12551 12.583728,-1.12551 4.101572,0 8.044124,0.34647 11.73365,0.97617 v -0.97617 c -3.698082,-0.62056 -7.63861,-0.95911 -11.73365,-0.95911 z"
             id="path2256"
             inkscape:connector-curvature="0" />
        </g>
      </g>
    </g>
    <g
       id="g2180"
       transform="matrix(1.0087662,0,0,1.0087662,-1.0856617,-5.3336257)"
       style="fill:#000000;fill-opacity:1;filter:url(#filter2182);opacity:0.1">
      <g
         id="g2178"
         transform="matrix(1.3175821,0,0,1.3175821,-11.593213,-80.15716)"
         style="fill:#000000;fill-opacity:1">
        <g
           transform="matrix(1.0178572,0,0,1.0178572,-0.63792963,-4.6587905)"
           style="fill:#000000;fill-opacity:1;opacity:0.1"
           id="g2140">
          <path
             style="fill:#000000;fill-opacity:1"
             inkscape:connector-curvature="0"
             id="path2104"
             d="m 34.955374,242.10138 c -9.335945,0 -16.923707,9.67245 -17.379882,21.76978 h 0.691993 c 0.453674,-11.70389 7.769275,-20.96233 16.687889,-20.96233 8.918615,0 16.235465,9.25844 16.689239,20.96233 h 0.692443 C 51.880783,251.77383 44.291321,242.10138 34.955374,242.10138 Z" />
          <path
             inkscape:connector-curvature="0"
             id="path2106"
             style="fill:#000000;fill-opacity:1"
             d="m 49.337945,268.81599 c 0,7.93644 -6.429503,14.37021 -14.360694,14.37021 -7.931194,0 -14.360696,-6.43377 -14.360696,-14.37021 0,-5.64491 7.882133,-13.59088 10.478797,-20.95748 1.050148,-2.97923 1.587729,-5.67901 2.014017,-9.26061 0.410305,0.71114 2.541465,5.3879 4.10899,7.91276 4.538433,7.31019 12.119586,14.92609 12.119586,22.30533 z" />
          <rect
             style="fill:#000000;fill-opacity:1"
             id="rect2108"
             ry="0.57700002"
             rx="0.57700002"
             height="1.877"
             width="1.51"
             y="263.53"
             x="-35.040001"
             transform="matrix(-0.99777897,0.06661174,0.06652395,0.99778483,0,0)" />
          <g
             style="fill:#000000;fill-opacity:1"
             id="g2118"
             transform="matrix(-1.0899999,0,0,-1.0907222,71.18175,565.41163)">
            <path
               inkscape:connector-curvature="0"
               id="path2110"
               style="fill:#000000;fill-opacity:1"
               d="m 21.762554,276.72245 c 0,0.53533 -0.554861,0.96932 -1.239287,0.96932 h -0.989998 c -0.684427,0 -1.239286,-0.43399 -1.239286,-0.96932 v -11.53871 c 0,-0.53533 0.554859,-0.96932 1.239286,-0.96932 h 0.989998 c 0.684426,0 1.239287,0.43399 1.239287,0.96932 z" />
            <path
               inkscape:connector-curvature="0"
               id="path2112"
               style="fill:#000000;fill-opacity:1"
               d="m 15.230947,265.67295 v 10.59127 c 0,2.19664 3.365926,1.93821 3.365926,1.93821 0.276023,-0.021 0.484746,-0.21284 0.484746,-0.42603 v -13.61563 c 0,-0.21319 -0.208723,-0.40493 -0.484746,-0.42602 0,0 -3.365926,-0.25853 -3.365926,1.9382 z" />
            <path
               inkscape:connector-curvature="0"
               id="path2114"
               style="fill:#000000;fill-opacity:1"
               d="m 15.111171,265.68615 c 0,0 -0.317868,-0.0492 -0.636719,0.10937 -1.001601,1.19353 -1.016287,3.25008 -1.044553,4.96698 0.02428,1.44484 0.01272,4.75566 1.044553,5.36115 0.318851,0.15859 0.636719,0.10937 0.636719,0.10937 0.0677,-0.0104 0.121417,-0.0615 0.158203,-0.125 0.03679,-0.0634 0.05859,-0.14197 0.05859,-0.22656 l -0.05859,-10.07226 c -0.03679,-0.0635 -0.0905,-0.11265 -0.158203,-0.12305 z" />
            <path
               style="fill:#000000;fill-opacity:1"
               inkscape:connector-curvature="0"
               id="path2116"
               d="m 17.506345,278.16234 c 0.175031,0.0192 0.262546,0.0313 0.437576,0.0388 v -14.46517 c -0.17503,0.007 -0.262545,0.0197 -0.437576,0.0387 z" />
          </g>
          <rect
             style="fill:#000000;fill-opacity:1"
             id="rect2120"
             ry="0.57700002"
             rx="0.57700002"
             height="1.877"
             width="1.51"
             y="258.79999"
             x="34.77"
             transform="matrix(0.99777897,0.06661174,-0.06652395,0.99778483,0,0)" />
          <g
             style="fill:#000000;fill-opacity:1"
             id="g2130"
             transform="matrix(1.0899999,0,0,1.0907222,-1.2086899,-25.691266)">
            <path
               inkscape:connector-curvature="0"
               id="path2122"
               style="fill:#000000;fill-opacity:1"
               d="m 21.762554,276.72245 c 0,0.53533 -0.554861,0.96932 -1.239287,0.96932 h -0.989998 c -0.684427,0 -1.239286,-0.43399 -1.239286,-0.96932 v -11.53871 c 0,-0.53533 0.554859,-0.96932 1.239286,-0.96932 h 0.989998 c 0.684426,0 1.239287,0.43399 1.239287,0.96932 z" />
            <path
               inkscape:connector-curvature="0"
               id="path2124"
               style="fill:#000000;fill-opacity:1"
               d="m 15.230947,265.67295 v 10.59127 c 0,2.19664 3.365926,1.93821 3.365926,1.93821 0.276023,-0.021 0.484746,-0.21284 0.484746,-0.42603 v -13.61563 c 0,-0.21319 -0.208723,-0.40493 -0.484746,-0.42602 0,0 -3.365926,-0.25853 -3.365926,1.9382 z" />
            <path
               inkscape:connector-curvature="0"
               id="path2126"
               style="fill:#000000;fill-opacity:1"
               d="m 15.111171,265.68615 c 0,0 -0.317868,-0.0492 -0.636719,0.10937 -1.001601,1.19353 -1.016287,3.25008 -1.044553,4.96698 0.02428,1.44484 0.01272,4.75566 1.044553,5.36115 0.318851,0.15859 0.636719,0.10937 0.636719,0.10937 0.0677,-0.0104 0.121417,-0.0615 0.158203,-0.125 0.03679,-0.0634 0.05859,-0.14197 0.05859,-0.22656 l -0.05859,-10.07226 c -0.03679,-0.0635 -0.0905,-0.11265 -0.158203,-0.12305 z" />
            <path
               style="fill:#000000;fill-opacity:1"
               inkscape:connector-curvature="0"
               id="path2128"
               d="m 17.506345,278.16234 c 0.175031,0.0192 0.262546,0.0313 0.437576,0.0388 v -14.46517 c -0.17503,0.007 -0.262545,0.0197 -0.437576,0.0387 z" />
          </g>
          <g
             style="fill:#000000;fill-opacity:1"
             id="g2138"
             transform="matrix(1.0899999,0,0,1.0907222,-1.6018589,-25.691266)">
            <path
               inkscape:connector-curvature="0"
               id="path2132"
               style="fill:#000000;fill-opacity:1"
               d="m 32.321425,266.26907 -9.903269,0.69659 c 0,0 -0.0574,1.864 0.182932,2.75126 0.13606,0.5023 0.38589,0.97987 0.696601,1.39733 0.412705,0.5545 0.913598,1.07314 1.512051,1.41903 0.631743,0.36514 1.287113,0.58836 2.094963,0.63511 1.355251,0.0784 2.018951,-0.0407 3.322278,-0.26459 1.053541,-0.18097 1.952506,-0.83708 2.161624,-1.72496 0.361876,-1.53645 -0.06718,-4.90977 -0.06718,-4.90977 z m 2.474269,0 c 0,0 -0.428537,3.37332 -0.06666,4.90977 0.209121,0.88788 1.107569,1.54399 2.16111,1.72496 1.303326,0.22391 1.967541,0.34298 3.322794,0.26459 0.80785,-0.0468 1.463219,-0.26997 2.094963,-0.63511 0.598454,-0.34589 1.09883,-0.86453 1.511535,-1.41903 0.31071,-0.41746 0.561056,-0.89503 0.697115,-1.39733 0.240337,-0.88726 0.182935,-2.75126 0.182935,-2.75126 z" />
            <path
               inkscape:connector-curvature="0"
               id="path2134"
               style="opacity:0.5;fill:#000000;fill-opacity:1"
               d="m 122.31641,143.1582 c -14.36661,0.23205 -28.714483,1.16933 -43.082035,2.82032 -0.09288,0.83038 -0.169922,1.6253 -0.169922,2.48046 0,12.42152 10.078513,22.5 22.499997,22.5 12.4215,0 22.5,-10.07848 22.5,-22.5 0,-1.84032 -0.2589,-3.58887 -0.67578,-5.30078 -0.35681,0.004 -0.7155,-0.008 -1.07226,0 z m 5.42578,0 c -0.41688,1.71191 -0.67774,3.46046 -0.67774,5.30078 0,12.42152 10.0785,22.5 22.5,22.5 12.42149,0 22.5,-10.07848 22.5,-22.5 0,-0.85516 -0.0751,-1.65008 -0.16797,-2.48046 -14.36755,-1.65099 -28.71737,-2.58827 -43.08398,-2.82032 -0.35676,-0.008 -0.7135,0.004 -1.07031,0 z"
               transform="matrix(0.24062764,0,0,0.24046829,3.3522033,231.86256)" />
            <path
               style="fill:#000000;fill-opacity:1"
               inkscape:connector-curvature="0"
               id="path2136"
               d="m 33.983857,265.61588 c -4.410805,0 -8.642379,0.39228 -12.583728,1.10794 v 0.97668 c 3.930568,-0.72568 8.165962,-1.12551 12.583728,-1.12551 4.101572,0 8.044124,0.34647 11.73365,0.97617 v -0.97617 c -3.698082,-0.62056 -7.63861,-0.95911 -11.73365,-0.95911 z" />
          </g>
        </g>
        <path
           inkscape:connector-curvature="0"
           id="path2142"
           d="m 34.955374,242.10138 c -9.335945,0 -16.923707,9.67245 -17.379882,21.76978 h 0.691993 c 0.453674,-11.70389 7.769275,-20.96233 16.687889,-20.96233 8.918615,0 16.235465,9.25844 16.689239,20.96233 h 0.692443 C 51.880783,251.77383 44.291321,242.10138 34.955374,242.10138 Z"
           style="fill:#000000;fill-opacity:1" />
        <path
           inkscape:connector-curvature="0"
           id="path2144"
           style="fill:#000000;fill-opacity:1"
           d="m 49.337945,268.81599 c 0,7.93644 -6.429503,14.37021 -14.360694,14.37021 -7.931194,0 -14.360696,-6.43377 -14.360696,-14.37021 0,-5.64491 7.882133,-13.59088 10.478797,-20.95748 1.050148,-2.97923 1.587729,-5.67901 2.014017,-9.26061 0.410305,0.71114 2.541465,5.3879 4.10899,7.91276 4.538433,7.31019 12.119586,14.92609 12.119586,22.30533 z" />
        <rect
           id="rect2146"
           ry="0.57700002"
           rx="0.57700002"
           height="1.877"
           width="1.51"
           y="263.53"
           x="-35.040001"
           transform="matrix(-0.99777897,0.06661174,0.06652395,0.99778483,0,0)"
           style="fill:#000000;fill-opacity:1" />
        <g
           id="g2156"
           transform="matrix(-1.0899999,0,0,-1.0907222,71.18175,565.41163)"
           style="fill:#000000;fill-opacity:1">
          <path
             inkscape:connector-curvature="0"
             id="path2148"
             style="fill:#000000;fill-opacity:1"
             d="m 21.762554,276.72245 c 0,0.53533 -0.554861,0.96932 -1.239287,0.96932 h -0.989998 c -0.684427,0 -1.239286,-0.43399 -1.239286,-0.96932 v -11.53871 c 0,-0.53533 0.554859,-0.96932 1.239286,-0.96932 h 0.989998 c 0.684426,0 1.239287,0.43399 1.239287,0.96932 z" />
          <path
             inkscape:connector-curvature="0"
             id="path2150"
             style="fill:#000000;fill-opacity:1"
             d="m 15.230947,265.67295 v 10.59127 c 0,2.19664 3.365926,1.93821 3.365926,1.93821 0.276023,-0.021 0.484746,-0.21284 0.484746,-0.42603 v -13.61563 c 0,-0.21319 -0.208723,-0.40493 -0.484746,-0.42602 0,0 -3.365926,-0.25853 -3.365926,1.9382 z" />
          <path
             inkscape:connector-curvature="0"
             id="path2152"
             style="fill:#000000;fill-opacity:1"
             d="m 15.111171,265.68615 c 0,0 -0.317868,-0.0492 -0.636719,0.10937 -1.001601,1.19353 -1.016287,3.25008 -1.044553,4.96698 0.02428,1.44484 0.01272,4.75566 1.044553,5.36115 0.318851,0.15859 0.636719,0.10937 0.636719,0.10937 0.0677,-0.0104 0.121417,-0.0615 0.158203,-0.125 0.03679,-0.0634 0.05859,-0.14197 0.05859,-0.22656 l -0.05859,-10.07226 c -0.03679,-0.0635 -0.0905,-0.11265 -0.158203,-0.12305 z" />
          <path
             inkscape:connector-curvature="0"
             id="path2154"
             d="m 17.506345,278.16234 c 0.175031,0.0192 0.262546,0.0313 0.437576,0.0388 v -14.46517 c -0.17503,0.007 -0.262545,0.0197 -0.437576,0.0387 z"
             style="fill:#000000;fill-opacity:1" />
        </g>
        <rect
           id="rect2158"
           ry="0.57700002"
           rx="0.57700002"
           height="1.877"
           width="1.51"
           y="258.79999"
           x="34.77"
           transform="matrix(0.99777897,0.06661174,-0.06652395,0.99778483,0,0)"
           style="fill:#000000;fill-opacity:1" />
        <g
           id="g2168"
           transform="matrix(1.0899999,0,0,1.0907222,-1.2086899,-25.691266)"
           style="fill:#000000;fill-opacity:1">
          <path
             inkscape:connector-curvature="0"
             id="path2160"
             style="fill:#000000;fill-opacity:1"
             d="m 21.762554,276.72245 c 0,0.53533 -0.554861,0.96932 -1.239287,0.96932 h -0.989998 c -0.684427,0 -1.239286,-0.43399 -1.239286,-0.96932 v -11.53871 c 0,-0.53533 0.554859,-0.96932 1.239286,-0.96932 h 0.989998 c 0.684426,0 1.239287,0.43399 1.239287,0.96932 z" />
          <path
             inkscape:connector-curvature="0"
             id="path2162"
             style="fill:#000000;fill-opacity:1"
             d="m 15.230947,265.67295 v 10.59127 c 0,2.19664 3.365926,1.93821 3.365926,1.93821 0.276023,-0.021 0.484746,-0.21284 0.484746,-0.42603 v -13.61563 c 0,-0.21319 -0.208723,-0.40493 -0.484746,-0.42602 0,0 -3.365926,-0.25853 -3.365926,1.9382 z" />
          <path
             inkscape:connector-curvature="0"
             id="path2164"
             style="fill:#000000;fill-opacity:1"
             d="m 15.111171,265.68615 c 0,0 -0.317868,-0.0492 -0.636719,0.10937 -1.001601,1.19353 -1.016287,3.25008 -1.044553,4.96698 0.02428,1.44484 0.01272,4.75566 1.044553,5.36115 0.318851,0.15859 0.636719,0.10937 0.636719,0.10937 0.0677,-0.0104 0.121417,-0.0615 0.158203,-0.125 0.03679,-0.0634 0.05859,-0.14197 0.05859,-0.22656 l -0.05859,-10.07226 c -0.03679,-0.0635 -0.0905,-0.11265 -0.158203,-0.12305 z" />
          <path
             inkscape:connector-curvature="0"
             id="path2166"
             d="m 17.506345,278.16234 c 0.175031,0.0192 0.262546,0.0313 0.437576,0.0388 v -14.46517 c -0.17503,0.007 -0.262545,0.0197 -0.437576,0.0387 z"
             style="fill:#000000;fill-opacity:1" />
        </g>
        <g
           id="g2176"
           transform="matrix(1.0899999,0,0,1.0907222,-1.6018589,-25.691266)"
           style="fill:#000000;fill-opacity:1">
          <path
             inkscape:connector-curvature="0"
             id="path2170"
             style="fill:#000000;fill-opacity:1"
             d="m 32.321425,266.26907 -9.903269,0.69659 c 0,0 -0.0574,1.864 0.182932,2.75126 0.13606,0.5023 0.38589,0.97987 0.696601,1.39733 0.412705,0.5545 0.913598,1.07314 1.512051,1.41903 0.631743,0.36514 1.287113,0.58836 2.094963,0.63511 1.355251,0.0784 2.018951,-0.0407 3.322278,-0.26459 1.053541,-0.18097 1.952506,-0.83708 2.161624,-1.72496 0.361876,-1.53645 -0.06718,-4.90977 -0.06718,-4.90977 z m 2.474269,0 c 0,0 -0.428537,3.37332 -0.06666,4.90977 0.209121,0.88788 1.107569,1.54399 2.16111,1.72496 1.303326,0.22391 1.967541,0.34298 3.322794,0.26459 0.80785,-0.0468 1.463219,-0.26997 2.094963,-0.63511 0.598454,-0.34589 1.09883,-0.86453 1.511535,-1.41903 0.31071,-0.41746 0.561056,-0.89503 0.697115,-1.39733 0.240337,-0.88726 0.182935,-2.75126 0.182935,-2.75126 z" />
          <path
             inkscape:connector-curvature="0"
             id="path2172"
             style="fill:#000000;fill-opacity:1;opacity:0.5"
             d="m 122.31641,143.1582 c -14.36661,0.23205 -28.714483,1.16933 -43.082035,2.82032 -0.09288,0.83038 -0.169922,1.6253 -0.169922,2.48046 0,12.42152 10.078513,22.5 22.499997,22.5 12.4215,0 22.5,-10.07848 22.5,-22.5 0,-1.84032 -0.2589,-3.58887 -0.67578,-5.30078 -0.35681,0.004 -0.7155,-0.008 -1.07226,0 z m 5.42578,0 c -0.41688,1.71191 -0.67774,3.46046 -0.67774,5.30078 0,12.42152 10.0785,22.5 22.5,22.5 12.42149,0 22.5,-10.07848 22.5,-22.5 0,-0.85516 -0.0751,-1.65008 -0.16797,-2.48046 -14.36755,-1.65099 -28.71737,-2.58827 -43.08398,-2.82032 -0.35676,-0.008 -0.7135,0.004 -1.07031,0 z"
             transform="matrix(0.24062764,0,0,0.24046829,3.3522033,231.86256)" />
          <path
             inkscape:connector-curvature="0"
             id="path2174"
             d="m 33.983857,265.61588 c -4.410805,0 -8.642379,0.39228 -12.583728,1.10794 v 0.97668 c 3.930568,-0.72568 8.165962,-1.12551 12.583728,-1.12551 4.101572,0 8.044124,0.34647 11.73365,0.97617 v -0.97617 c -3.698082,-0.62056 -7.63861,-0.95911 -11.73365,-0.95911 z"
             style="fill:#000000;fill-opacity:1" />
        </g>
      </g>
    </g>
    <g
       transform="matrix(1.0087662,0,0,1.0087662,-1.0856617,-5.3336257)"
       id="g212">
      <g
         transform="matrix(1.3175821,0,0,1.3175821,-11.593213,-80.15716)"
         id="g210">
        <g
           id="g1901"
           style="fill:#010101;fill-opacity:1;opacity:0.1"
           transform="matrix(1.0178572,0,0,1.0178572,-0.63792963,-4.6587905)">
          <path
             d="m 34.955374,242.10138 c -9.335945,0 -16.923707,9.67245 -17.379882,21.76978 h 0.691993 c 0.453674,-11.70389 7.769275,-20.96233 16.687889,-20.96233 8.918615,0 16.235465,9.25844 16.689239,20.96233 h 0.692443 C 51.880783,251.77383 44.291321,242.10138 34.955374,242.10138 Z"
             id="path1847"
             inkscape:connector-curvature="0"
             style="fill:#010101;fill-opacity:1" />
          <path
             d="m 49.337945,268.81599 c 0,7.93644 -6.429503,14.37021 -14.360694,14.37021 -7.931194,0 -14.360696,-6.43377 -14.360696,-14.37021 0,-5.64491 7.882133,-13.59088 10.478797,-20.95748 1.050148,-2.97923 1.587729,-5.67901 2.014017,-9.26061 0.410305,0.71114 2.541465,5.3879 4.10899,7.91276 4.538433,7.31019 12.119586,14.92609 12.119586,22.30533 z"
             style="fill:#010101;fill-opacity:1"
             id="path1849"
             inkscape:connector-curvature="0" />
          <rect
             transform="matrix(-0.99777897,0.06661174,0.06652395,0.99778483,0,0)"
             x="-35.040001"
             y="263.53"
             width="1.51"
             height="1.877"
             rx="0.57700002"
             ry="0.57700002"
             id="rect1851"
             style="fill:#010101;fill-opacity:1" />
          <g
             transform="matrix(-1.0899999,0,0,-1.0907222,71.18175,565.41163)"
             id="g1861"
             style="fill:#010101;fill-opacity:1">
            <path
               d="m 21.762554,276.72245 c 0,0.53533 -0.554861,0.96932 -1.239287,0.96932 h -0.989998 c -0.684427,0 -1.239286,-0.43399 -1.239286,-0.96932 v -11.53871 c 0,-0.53533 0.554859,-0.96932 1.239286,-0.96932 h 0.989998 c 0.684426,0 1.239287,0.43399 1.239287,0.96932 z"
               style="fill:#010101;fill-opacity:1"
               id="path1853"
               inkscape:connector-curvature="0" />
            <path
               d="m 15.230947,265.67295 v 10.59127 c 0,2.19664 3.365926,1.93821 3.365926,1.93821 0.276023,-0.021 0.484746,-0.21284 0.484746,-0.42603 v -13.61563 c 0,-0.21319 -0.208723,-0.40493 -0.484746,-0.42602 0,0 -3.365926,-0.25853 -3.365926,1.9382 z"
               style="fill:#010101;fill-opacity:1"
               id="path1855"
               inkscape:connector-curvature="0" />
            <path
               d="m 15.111171,265.68615 c 0,0 -0.317868,-0.0492 -0.636719,0.10937 -1.001601,1.19353 -1.016287,3.25008 -1.044553,4.96698 0.02428,1.44484 0.01272,4.75566 1.044553,5.36115 0.318851,0.15859 0.636719,0.10937 0.636719,0.10937 0.0677,-0.0104 0.121417,-0.0615 0.158203,-0.125 0.03679,-0.0634 0.05859,-0.14197 0.05859,-0.22656 l -0.05859,-10.07226 c -0.03679,-0.0635 -0.0905,-0.11265 -0.158203,-0.12305 z"
               style="fill:#010101;fill-opacity:1"
               id="path1857"
               inkscape:connector-curvature="0" />
            <path
               d="m 17.506345,278.16234 c 0.175031,0.0192 0.262546,0.0313 0.437576,0.0388 v -14.46517 c -0.17503,0.007 -0.262545,0.0197 -0.437576,0.0387 z"
               id="path1859"
               inkscape:connector-curvature="0"
               style="fill:#010101;fill-opacity:1" />
          </g>
          <rect
             transform="matrix(0.99777897,0.06661174,-0.06652395,0.99778483,0,0)"
             x="34.77"
             y="258.79999"
             width="1.51"
             height="1.877"
             rx="0.57700002"
             ry="0.57700002"
             id="rect1863"
             style="fill:#010101;fill-opacity:1" />
          <g
             transform="matrix(1.0899999,0,0,1.0907222,-1.2086899,-25.691266)"
             id="g1873"
             style="fill:#010101;fill-opacity:1">
            <path
               d="m 21.762554,276.72245 c 0,0.53533 -0.554861,0.96932 -1.239287,0.96932 h -0.989998 c -0.684427,0 -1.239286,-0.43399 -1.239286,-0.96932 v -11.53871 c 0,-0.53533 0.554859,-0.96932 1.239286,-0.96932 h 0.989998 c 0.684426,0 1.239287,0.43399 1.239287,0.96932 z"
               style="fill:#010101;fill-opacity:1"
               id="path1865"
               inkscape:connector-curvature="0" />
            <path
               d="m 15.230947,265.67295 v 10.59127 c 0,2.19664 3.365926,1.93821 3.365926,1.93821 0.276023,-0.021 0.484746,-0.21284 0.484746,-0.42603 v -13.61563 c 0,-0.21319 -0.208723,-0.40493 -0.484746,-0.42602 0,0 -3.365926,-0.25853 -3.365926,1.9382 z"
               style="fill:#010101;fill-opacity:1"
               id="path1867"
               inkscape:connector-curvature="0" />
            <path
               d="m 15.111171,265.68615 c 0,0 -0.317868,-0.0492 -0.636719,0.10937 -1.001601,1.19353 -1.016287,3.25008 -1.044553,4.96698 0.02428,1.44484 0.01272,4.75566 1.044553,5.36115 0.318851,0.15859 0.636719,0.10937 0.636719,0.10937 0.0677,-0.0104 0.121417,-0.0615 0.158203,-0.125 0.03679,-0.0634 0.05859,-0.14197 0.05859,-0.22656 l -0.05859,-10.07226 c -0.03679,-0.0635 -0.0905,-0.11265 -0.158203,-0.12305 z"
               style="fill:#010101;fill-opacity:1"
               id="path1869"
               inkscape:connector-curvature="0" />
            <path
               d="m 17.506345,278.16234 c 0.175031,0.0192 0.262546,0.0313 0.437576,0.0388 v -14.46517 c -0.17503,0.007 -0.262545,0.0197 -0.437576,0.0387 z"
               id="path1871"
               inkscape:connector-curvature="0"
               style="fill:#010101;fill-opacity:1" />
          </g>
          <g
             transform="matrix(1.0899999,0,0,1.0907222,-1.6018589,-25.691266)"
             id="g1881"
             style="fill:#010101;fill-opacity:1">
            <path
               d="m 32.321425,266.26907 -9.903269,0.69659 c 0,0 -0.0574,1.864 0.182932,2.75126 0.13606,0.5023 0.38589,0.97987 0.696601,1.39733 0.412705,0.5545 0.913598,1.07314 1.512051,1.41903 0.631743,0.36514 1.287113,0.58836 2.094963,0.63511 1.355251,0.0784 2.018951,-0.0407 3.322278,-0.26459 1.053541,-0.18097 1.952506,-0.83708 2.161624,-1.72496 0.361876,-1.53645 -0.06718,-4.90977 -0.06718,-4.90977 z m 2.474269,0 c 0,0 -0.428537,3.37332 -0.06666,4.90977 0.209121,0.88788 1.107569,1.54399 2.16111,1.72496 1.303326,0.22391 1.967541,0.34298 3.322794,0.26459 0.80785,-0.0468 1.463219,-0.26997 2.094963,-0.63511 0.598454,-0.34589 1.09883,-0.86453 1.511535,-1.41903 0.31071,-0.41746 0.561056,-0.89503 0.697115,-1.39733 0.240337,-0.88726 0.182935,-2.75126 0.182935,-2.75126 z"
               style="fill:#010101;fill-opacity:1"
               id="path1875"
               inkscape:connector-curvature="0" />
            <path
               transform="matrix(0.24062764,0,0,0.24046829,3.3522033,231.86256)"
               d="m 122.31641,143.1582 c -14.36661,0.23205 -28.714483,1.16933 -43.082035,2.82032 -0.09288,0.83038 -0.169922,1.6253 -0.169922,2.48046 0,12.42152 10.078513,22.5 22.499997,22.5 12.4215,0 22.5,-10.07848 22.5,-22.5 0,-1.84032 -0.2589,-3.58887 -0.67578,-5.30078 -0.35681,0.004 -0.7155,-0.008 -1.07226,0 z m 5.42578,0 c -0.41688,1.71191 -0.67774,3.46046 -0.67774,5.30078 0,12.42152 10.0785,22.5 22.5,22.5 12.42149,0 22.5,-10.07848 22.5,-22.5 0,-0.85516 -0.0751,-1.65008 -0.16797,-2.48046 -14.36755,-1.65099 -28.71737,-2.58827 -43.08398,-2.82032 -0.35676,-0.008 -0.7135,0.004 -1.07031,0 z"
               style="opacity:0.5;fill:#010101;fill-opacity:1"
               id="path1877"
               inkscape:connector-curvature="0" />
            <path
               d="m 33.983857,265.61588 c -4.410805,0 -8.642379,0.39228 -12.583728,1.10794 v 0.97668 c 3.930568,-0.72568 8.165962,-1.12551 12.583728,-1.12551 4.101572,0 8.044124,0.34647 11.73365,0.97617 v -0.97617 c -3.698082,-0.62056 -7.63861,-0.95911 -11.73365,-0.95911 z"
               id="path1879"
               inkscape:connector-curvature="0"
               style="fill:#010101;fill-opacity:1" />
          </g>
        </g>
        <path
           d="m 34.955374,242.10138 c -9.335945,0 -16.923707,9.67245 -17.379882,21.76978 h 0.691993 c 0.453674,-11.70389 7.769275,-20.96233 16.687889,-20.96233 8.918615,0 16.235465,9.25844 16.689239,20.96233 h 0.692443 C 51.880783,251.77383 44.291321,242.10138 34.955374,242.10138 Z"
           id="path172"
           inkscape:connector-curvature="0" />
        <path
           d="m 49.337945,268.81599 c 0,7.93644 -6.429503,14.37021 -14.360694,14.37021 -7.931194,0 -14.360696,-6.43377 -14.360696,-14.37021 0,-5.64491 7.882133,-13.59088 10.478797,-20.95748 1.050148,-2.97923 1.587729,-5.67901 2.014017,-9.26061 0.410305,0.71114 2.541465,5.3879 4.10899,7.91276 4.538433,7.31019 12.119586,14.92609 12.119586,22.30533 z"
           style="fill:#1a7fd4;fill-opacity:1"
           id="path174"
           inkscape:connector-curvature="0" />
        <rect
           transform="matrix(-0.99777897,0.06661174,0.06652395,0.99778483,0,0)"
           x="-35.040001"
           y="263.53"
           width="1.51"
           height="1.877"
           rx="0.57700002"
           ry="0.57700002"
           id="rect178" />
        <g
           transform="matrix(-1.0899999,0,0,-1.0907222,71.18175,565.41163)"
           id="g188">
          <path
             d="m 21.762554,276.72245 c 0,0.53533 -0.554861,0.96932 -1.239287,0.96932 h -0.989998 c -0.684427,0 -1.239286,-0.43399 -1.239286,-0.96932 v -11.53871 c 0,-0.53533 0.554859,-0.96932 1.239286,-0.96932 h 0.989998 c 0.684426,0 1.239287,0.43399 1.239287,0.96932 z"
             style="fill:url(#linearGradient3203)"
             id="path180"
             inkscape:connector-curvature="0" />
          <path
             d="m 15.230947,265.67295 v 10.59127 c 0,2.19664 3.365926,1.93821 3.365926,1.93821 0.276023,-0.021 0.484746,-0.21284 0.484746,-0.42603 v -13.61563 c 0,-0.21319 -0.208723,-0.40493 -0.484746,-0.42602 0,0 -3.365926,-0.25853 -3.365926,1.9382 z"
             style="fill:url(#linearGradient3205)"
             id="path182"
             inkscape:connector-curvature="0" />
          <path
             d="m 15.111171,265.68615 c 0,0 -0.317868,-0.0492 -0.636719,0.10937 -1.001601,1.19353 -1.016287,3.25008 -1.044553,4.96698 0.02428,1.44484 0.01272,4.75566 1.044553,5.36115 0.318851,0.15859 0.636719,0.10937 0.636719,0.10937 0.0677,-0.0104 0.121417,-0.0615 0.158203,-0.125 0.03679,-0.0634 0.05859,-0.14197 0.05859,-0.22656 l -0.05859,-10.07226 c -0.03679,-0.0635 -0.0905,-0.11265 -0.158203,-0.12305 z"
             style="fill:#201e1e"
             id="path184"
             inkscape:connector-curvature="0" />
          <path
             d="m 17.506345,278.16234 c 0.175031,0.0192 0.262546,0.0313 0.437576,0.0388 v -14.46517 c -0.17503,0.007 -0.262545,0.0197 -0.437576,0.0387 z"
             id="path186"
             inkscape:connector-curvature="0" />
        </g>
        <rect
           transform="matrix(0.99777897,0.06661174,-0.06652395,0.99778483,0,0)"
           x="34.77"
           y="258.79999"
           width="1.51"
           height="1.877"
           rx="0.57700002"
           ry="0.57700002"
           id="rect190" />
        <g
           transform="matrix(1.0899999,0,0,1.0907222,-1.2086899,-25.691266)"
           id="g200">
          <path
             d="m 21.762554,276.72245 c 0,0.53533 -0.554861,0.96932 -1.239287,0.96932 h -0.989998 c -0.684427,0 -1.239286,-0.43399 -1.239286,-0.96932 v -11.53871 c 0,-0.53533 0.554859,-0.96932 1.239286,-0.96932 h 0.989998 c 0.684426,0 1.239287,0.43399 1.239287,0.96932 z"
             style="fill:url(#linearGradient3169)"
             id="path192"
             inkscape:connector-curvature="0" />
          <path
             d="m 15.230947,265.67295 v 10.59127 c 0,2.19664 3.365926,1.93821 3.365926,1.93821 0.276023,-0.021 0.484746,-0.21284 0.484746,-0.42603 v -13.61563 c 0,-0.21319 -0.208723,-0.40493 -0.484746,-0.42602 0,0 -3.365926,-0.25853 -3.365926,1.9382 z"
             style="fill:url(#linearGradient3185)"
             id="path194"
             inkscape:connector-curvature="0" />
          <path
             d="m 15.111171,265.68615 c 0,0 -0.317868,-0.0492 -0.636719,0.10937 -1.001601,1.19353 -1.016287,3.25008 -1.044553,4.96698 0.02428,1.44484 0.01272,4.75566 1.044553,5.36115 0.318851,0.15859 0.636719,0.10937 0.636719,0.10937 0.0677,-0.0104 0.121417,-0.0615 0.158203,-0.125 0.03679,-0.0634 0.05859,-0.14197 0.05859,-0.22656 l -0.05859,-10.07226 c -0.03679,-0.0635 -0.0905,-0.11265 -0.158203,-0.12305 z"
             style="fill:#201e1e"
             id="path196"
             inkscape:connector-curvature="0" />
          <path
             d="m 17.506345,278.16234 c 0.175031,0.0192 0.262546,0.0313 0.437576,0.0388 v -14.46517 c -0.17503,0.007 -0.262545,0.0197 -0.437576,0.0387 z"
             id="path198"
             inkscape:connector-curvature="0" />
        </g>
        <g
           transform="matrix(1.0899999,0,0,1.0907222,-1.6018589,-25.691266)"
           id="g208">
          <path
             d="m 32.321425,266.26907 -9.903269,0.69659 c 0,0 -0.0574,1.864 0.182932,2.75126 0.13606,0.5023 0.38589,0.97987 0.696601,1.39733 0.412705,0.5545 0.913598,1.07314 1.512051,1.41903 0.631743,0.36514 1.287113,0.58836 2.094963,0.63511 1.355251,0.0784 2.018951,-0.0407 3.322278,-0.26459 1.053541,-0.18097 1.952506,-0.83708 2.161624,-1.72496 0.361876,-1.53645 -0.06718,-4.90977 -0.06718,-4.90977 z m 2.474269,0 c 0,0 -0.428537,3.37332 -0.06666,4.90977 0.209121,0.88788 1.107569,1.54399 2.16111,1.72496 1.303326,0.22391 1.967541,0.34298 3.322794,0.26459 0.80785,-0.0468 1.463219,-0.26997 2.094963,-0.63511 0.598454,-0.34589 1.09883,-0.86453 1.511535,-1.41903 0.31071,-0.41746 0.561056,-0.89503 0.697115,-1.39733 0.240337,-0.88726 0.182935,-2.75126 0.182935,-2.75126 z"
             style="fill:none"
             id="path202"
             inkscape:connector-curvature="0" />
          <path
             d="m 122.31641,143.1582 c -14.36661,0.23205 -28.714483,1.16933 -43.082035,2.82032 -0.09288,0.83038 -0.169922,1.6253 -0.169922,2.48046 0,12.42152 10.078513,22.5 22.499997,22.5 12.4215,0 22.5,-10.07848 22.5,-22.5 0,-1.84032 -0.2589,-3.58887 -0.67578,-5.30078 -0.35681,0.004 -0.7155,-0.008 -1.07226,0 z m 5.42578,0 c -0.41688,1.71191 -0.67774,3.46046 -0.67774,5.30078 0,12.42152 10.0785,22.5 22.5,22.5 12.42149,0 22.5,-10.07848 22.5,-22.5 0,-0.85516 -0.0751,-1.65008 -0.16797,-2.48046 -14.36755,-1.65099 -28.71737,-2.58827 -43.08398,-2.82032 -0.35676,-0.008 -0.7135,0.004 -1.07031,0 z"
             style="fill:#ffffff;fill-opacity:1;opacity:0.5"
             id="path204"
             inkscape:connector-curvature="0"
             transform="matrix(0.24062764,0,0,0.24046829,3.3522033,231.86256)" />
          <path
             d="m 33.983857,265.61588 c -4.410805,0 -8.642379,0.39228 -12.583728,1.10794 v 0.97668 c 3.930568,-0.72568 8.165962,-1.12551 12.583728,-1.12551 4.101572,0 8.044124,0.34647 11.73365,0.97617 v -0.97617 c -3.698082,-0.62056 -7.63861,-0.95911 -11.73365,-0.95911 z"
             id="path206"
             inkscape:connector-curvature="0" />
          <path
             style="opacity:0.2;fill:#000000;fill-opacity:1;stroke-width:1.31764698"
             d="M 129.45703 143.8457 C 129.4477 144.12844 129.42773 144.40738 129.42773 144.69336 C 129.42773 161.06054 142.70902 174.33984 159.07617 174.33984 C 175.44331 174.33984 188.72266 161.06054 188.72266 144.69336 C 188.72266 144.42268 188.70178 144.16561 188.69141 143.90234 C 188.05596 159.70889 175.03793 172.33984 159.07617 172.33984 C 143.09541 172.33984 130.06369 159.67862 129.45703 143.8457 z M 125.44727 143.85547 C 124.83565 159.68384 111.80562 172.33984 95.828125 172.33984 C 79.87096 172.33984 66.855263 159.7162 66.212891 143.91602 C 66.202638 144.17482 66.181641 144.42737 66.181641 144.69336 C 66.181641 161.06054 79.460994 174.33984 95.828125 174.33984 C 112.19528 174.33984 125.47461 161.06054 125.47461 144.69336 C 125.47461 144.41069 125.45633 144.13497 125.44727 143.85547 z "
             transform="matrix(0.1826192,0,0,0.18249827,10.291316,241.15597)"
             id="path1006" />
        </g>
        <g
           id="g977"
           transform="matrix(1.0899999,0,0,1.0907222,-1.6018589,-25.691266)">
          <path
             inkscape:connector-curvature="0"
             id="path971"
             style="fill:none"
             d="m 32.321425,266.26907 -9.903269,0.69659 c 0,0 -0.0574,1.864 0.182932,2.75126 0.13606,0.5023 0.38589,0.97987 0.696601,1.39733 0.412705,0.5545 0.913598,1.07314 1.512051,1.41903 0.631743,0.36514 1.287113,0.58836 2.094963,0.63511 1.355251,0.0784 2.018951,-0.0407 3.322278,-0.26459 1.053541,-0.18097 1.952506,-0.83708 2.161624,-1.72496 0.361876,-1.53645 -0.06718,-4.90977 -0.06718,-4.90977 z m 2.474269,0 c 0,0 -0.428537,3.37332 -0.06666,4.90977 0.209121,0.88788 1.107569,1.54399 2.16111,1.72496 1.303326,0.22391 1.967541,0.34298 3.322794,0.26459 0.80785,-0.0468 1.463219,-0.26997 2.094963,-0.63511 0.598454,-0.34589 1.09883,-0.86453 1.511535,-1.41903 0.31071,-0.41746 0.561056,-0.89503 0.697115,-1.39733 0.240337,-0.88726 0.182935,-2.75126 0.182935,-2.75126 z" />
          <path
             style="stroke-width:5.47768927;fill:#ffffff;fill-opacity:1;opacity:0.3"
             d="M 129.73828 134.02734 C 105.58526 134.02734 82.412414 136.17815 60.830078 140.09961 L 60.830078 142.09961 C 82.412414 138.17815 105.58526 136.02734 129.73828 136.02734 C 152.16221 136.02734 173.74 137.88284 193.99023 141.2832 L 193.99023 139.2832 C 173.74 135.88284 152.16221 134.02734 129.73828 134.02734 z "
             transform="matrix(0.1826192,0,0,0.18249827,10.291316,241.15597)"
             id="path975" />
        </g>
        <g
           transform="matrix(1.0899999,0,0,1.0907222,-1.6018589,-25.293156)"
           id="g985">
          <path
             d="m 32.321425,266.26907 -9.903269,0.69659 c 0,0 -0.0574,1.864 0.182932,2.75126 0.13606,0.5023 0.38589,0.97987 0.696601,1.39733 0.412705,0.5545 0.913598,1.07314 1.512051,1.41903 0.631743,0.36514 1.287113,0.58836 2.094963,0.63511 1.355251,0.0784 2.018951,-0.0407 3.322278,-0.26459 1.053541,-0.18097 1.952506,-0.83708 2.161624,-1.72496 0.361876,-1.53645 -0.06718,-4.90977 -0.06718,-4.90977 z m 2.474269,0 c 0,0 -0.428537,3.37332 -0.06666,4.90977 0.209121,0.88788 1.107569,1.54399 2.16111,1.72496 1.303326,0.22391 1.967541,0.34298 3.322794,0.26459 0.80785,-0.0468 1.463219,-0.26997 2.094963,-0.63511 0.598454,-0.34589 1.09883,-0.86453 1.511535,-1.41903 0.31071,-0.41746 0.561056,-0.89503 0.697115,-1.39733 0.240337,-0.88726 0.182935,-2.75126 0.182935,-2.75126 z"
             style="fill:none"
             id="path979"
             inkscape:connector-curvature="0" />
        </g>
      </g>
      <g
         id="g2350"
         transform="matrix(1.3175821,0,0,1.3175821,-98.923698,-84.434997)">
        <path
           style="opacity:0.3;fill:#e4e4e4;fill-opacity:1;stroke-width:1"
           d="m 99.414526,241.88988 c -0.159931,1.34372 -0.335728,2.56343 -0.548178,3.72023 -7.380717,1.33717 -13.267471,8.76597 -14.682242,18.28 -0.239131,0.0573 -0.423613,0.2613 -0.440873,0.52019 l -0.04821,0.72157 c -0.0038,0.0564 0.004,0.10997 0.01594,0.16212 l 0.03227,-0.48558 c 0.01726,-0.25889 0.201742,-0.46289 0.440873,-0.52019 1.414771,-9.51403 7.301525,-16.94283 14.682242,-18.28 0.21245,-1.1568 0.388247,-2.37651 0.548178,-3.72023 0.214975,0.37268 0.905094,1.83633 1.735524,3.50484 0.0369,0 0.0735,-0.002 0.11042,-0.002 8.3837,0 15.35548,7.80168 17.02153,18.15326 0.29253,0.0104 0.53487,0.23666 0.55478,0.53535 l 0.0331,0.49608 c 0.0133,-0.0551 0.0191,-0.11318 0.0152,-0.173 l -0.0482,-0.72119 c -0.0199,-0.29869 -0.26225,-0.52493 -0.55478,-0.53535 -1.66605,-10.35158 -8.63783,-18.15326 -17.02153,-18.15326 -0.0369,0 -0.0735,0.002 -0.11042,0.002 -0.83043,-1.66851 -1.520549,-3.13216 -1.735524,-3.50484 z m 2.142584,4.71395 v 3.9e-4 c 0.65094,1.28449 1.351,2.60528 1.96644,3.59659 3.31586,5.34095 8.25263,10.84492 10.67354,16.30073 0.24125,-0.17589 0.56377,-0.28458 0.91947,-0.28458 h 1.07886 c 0.17392,0 0.33989,0.0266 0.49258,0.0735 v -0.16562 c 0,-0.23253 0.22749,-0.4417 0.52835,-0.4646 0,0 0.13485,-0.006 0.3153,-0.007 -0.0863,-0.0934 -0.14437,-0.21411 -0.15357,-0.35146 l -0.003,-0.0432 c -0.0571,0.002 -0.15901,0.004 -0.15901,0.004 -0.30086,0.0229 -0.52835,0.23206 -0.52835,0.46459 v 0.16562 c -0.15269,-0.0469 -0.31866,-0.0735 -0.49258,-0.0735 h -1.07886 c -0.3557,0 -0.67822,0.10869 -0.91947,0.28458 -2.42091,-5.45581 -7.35768,-10.95978 -10.67354,-16.30073 -0.55072,-0.88707 -1.16764,-2.03846 -1.75806,-3.1911 -0.0694,-0.003 -0.13873,-0.006 -0.20838,-0.008 z m -2.859104,0.25543 c -0.03117,0.006 -0.0618,0.0148 -0.09292,0.0214 -0.313392,1.44408 -0.696256,2.82717 -1.204828,4.26996 -1.812598,5.14225 -6.197905,10.56589 -8.682602,15.29301 -0.201159,-0.38618 -0.68538,-0.6582 -1.251092,-0.6582 h -1.078861 c -0.173821,0 -0.339572,0.0263 -0.492194,0.0731 v -0.13179 c 0,-0.23253 -0.227487,-0.44159 -0.528351,-0.46459 0,0 -0.06534,-0.003 -0.140738,-0.006 l -0.02488,0.37479 c -4.99e-4,0.008 -0.0031,0.0142 -0.0039,0.0222 0.105608,0.003 0.169507,0.007 0.169507,0.007 0.300864,0.023 0.528351,0.23207 0.528351,0.4646 v 0.13179 c 0.152622,-0.0468 0.318373,-0.0731 0.492194,-0.0731 h 1.078861 c 0.565712,0 1.049933,0.27202 1.251092,0.6582 2.484697,-4.72712 6.870004,-10.15076 8.682602,-15.29301 0.557963,-1.58291 0.968988,-3.09012 1.297745,-4.68945 z m 18.836364,16.85202 c -0.13335,0.11378 -0.2171,0.28208 -0.20449,0.4712 l 0.0152,0.22704 c 0.0351,-0.14659 0.12613,-0.27196 0.25115,-0.35184 -0.0188,-0.11635 -0.0416,-0.23075 -0.0618,-0.3464 z m -32.594478,0.25309 c -0.02036,0.12321 -0.04301,0.24536 -0.06181,0.36934 0.178483,0.0675 0.312232,0.2186 0.356509,0.40355 l 0.01516,-0.22588 c 0.01574,-0.23611 -0.113119,-0.44482 -0.309859,-0.54701 z m -1.235148,1.4206 c -0.971091,0.20482 -2.006489,0.71749 -2.006489,1.99094 v 0.0921 c -0.0356,-0.0402 -0.07903,-0.07 -0.13063,-0.0781 0,0 -0.346423,-0.0536 -0.693971,0.11936 -1.091749,1.30181 -1.107926,3.54498 -1.138736,5.41764 0.0011,0.0629 0.0025,0.14708 0.0035,0.21616 0.02999,-1.83474 0.07812,-3.97518 1.135236,-5.23569 0.347548,-0.17295 0.693971,-0.11936 0.693971,-0.11936 0.0516,0.008 0.09503,0.0379 0.13063,0.0781 v -0.0921 c 0,-1.28599 1.055994,-1.7972 2.035258,-1.99794 -0.02939,-0.0761 -0.04429,-0.159 -0.03849,-0.2461 z m 35.161586,7.8e-4 c -0.0389,0.14621 -0.13364,0.27044 -0.26204,0.34718 1.03938,0.16327 2.28097,0.64506 2.28097,2.0407 v 0.11274 c 0.0355,-0.0405 0.0789,-0.0705 0.13024,-0.0785 0,0 0.34681,-0.0536 0.69436,0.11936 1.07961,0.63394 1.11104,3.969 1.13524,5.63068 9.7e-4,-0.0598 0.002,-0.12204 0.003,-0.18117 -0.0265,-1.57591 -0.0136,-5.1872 -1.13835,-5.84762 -0.34755,-0.17298 -0.69436,-0.11936 -0.69436,-0.11936 -0.0514,0.008 -0.0947,0.038 -0.13024,0.0785 v -0.11274 c 0,-1.28038 -1.04379,-1.788 -2.01893,-1.98977 z"
           id="rect2318"
           inkscape:connector-curvature="0" />
        <g
           id="g2328"
           transform="matrix(-1.0899999,0,0,-1.0907222,71.18175,565.41163)" />
        <g
           id="g2340"
           transform="matrix(1.0899999,0,0,1.0907222,-1.2086899,-25.691266)" />
        <path
           style="opacity:0.3;fill:#000000;fill-opacity:1;stroke-width:1"
           d="m 101.53287,245.71084 v 3.9e-4 c 0.0684,0.13502 0.13903,0.2701 0.20839,0.40549 7.68988,0.3028 14.08937,7.49063 15.76849,17.09968 0.0205,-0.0175 0.0393,-0.0371 0.0622,-0.0517 -1.59782,-9.87043 -8.16371,-17.272 -16.03908,-17.45385 z m -2.859078,0.25543 c -6.915936,1.40959 -12.448548,8.43322 -13.819933,17.47445 0.02146,0.008 0.04131,0.0187 0.06143,0.0292 1.457805,-8.82155 6.887635,-15.65041 13.6652,-17.08412 0.03043,-0.14023 0.06421,-0.27794 0.09331,-0.41949 z m 18.647008,17.9476 c -0.0132,0.0548 -0.0191,0.1123 -0.0152,0.17184 l 0.0455,0.67803 c 0.0562,-0.002 0.0668,-0.003 0.15629,-0.004 -0.0863,-0.0934 -0.14437,-0.21411 -0.15356,-0.35146 z m -32.11043,0.33007 -0.03305,0.49414 c -4.99e-4,0.008 -0.0031,0.0142 -0.0039,0.0222 0.01793,5.1e-4 0.01336,6.2e-4 0.02877,10e-4 l 0.02333,-0.34679 c 0.0039,-0.0591 -0.0022,-0.11613 -0.01516,-0.17067 z m 33.63523,0.2356 c -0.0364,0.15207 -0.13322,0.2817 -0.26554,0.36079 0.0858,0.0135 0.17391,0.0328 0.26165,0.0509 0.0157,-0.0588 0.0233,-0.12069 0.019,-0.18506 z m -35.159244,0.32035 -0.0058,0.0902 c 0.0096,-0.002 0.01923,-0.005 0.02877,-0.007 -0.01028,-0.0266 -0.01647,-0.055 -0.02294,-0.0832 z m -3.972545,7.84945 c -9.79e-4,0.0599 -0.0021,0.12202 -0.0031,0.18117 0.02647,1.57592 0.01404,5.18721 1.138734,5.84763 0.347548,0.17298 0.693971,0.11936 0.693971,0.11936 0.05162,-0.008 0.09503,-0.0385 0.13063,-0.0793 v 0.11313 c 0,2.39594 3.668908,2.11418 3.668908,2.11418 0.300864,-0.0229 0.528351,-0.23206 0.528351,-0.46459 v -0.16562 c 0.152624,0.0468 0.318373,0.0731 0.492196,0.0731 h 1.078861 c 0.746024,0 1.351008,-0.47319 1.351008,-1.05709 v -0.18739 c 2.475821,4.3229 7.128506,7.23751 12.46465,7.23751 5.34926,0 10.01216,-2.92891 12.48331,-7.26939 v 0.25309 c 0,0.58389 0.60498,1.05709 1.351,1.05709 h 1.07886 c 0.17393,0 0.33989,-0.0266 0.49259,-0.0735 v 0.13219 c 0,0.23253 0.22748,0.44158 0.52835,0.46459 0,0 3.66891,0.28185 3.66891,-2.11418 v -0.0914 c 0.0355,0.0399 0.0788,0.0691 0.13024,0.077 0,0 0.34681,0.0536 0.69436,-0.11936 1.09174,-1.30182 1.10753,-3.54458 1.13834,-5.41725 -0.001,-0.0629 -0.002,-0.14704 -0.004,-0.21616 -0.03,1.83472 -0.0777,3.97478 -1.13485,5.2353 -0.34754,0.17295 -0.69436,0.11936 -0.69436,0.11936 -0.0514,-0.008 -0.0947,-0.0371 -0.13024,-0.077 v 0.0914 c 0,2.39603 -3.6689,2.11418 -3.6689,2.11418 -0.30087,-0.023 -0.52836,-0.23206 -0.52836,-0.46459 v -0.13218 c -0.1527,0.0469 -0.31865,0.0735 -0.49258,0.0735 h -1.07886 c -0.74602,0 -1.35101,-0.4732 -1.35101,-1.05708 v -0.2531 c -2.47115,4.34048 -7.13404,7.26939 -12.48331,7.26939 -5.336137,0 -9.988822,-2.91461 -12.464643,-7.23751 v 0.18739 c 0,0.5839 -0.604984,1.05709 -1.351008,1.05709 h -1.078861 c -0.173823,0 -0.339572,-0.0263 -0.492196,-0.0731 v 0.16562 c 0,0.23253 -0.227487,0.44169 -0.528351,0.46459 0,0 -3.668908,0.28176 -3.668908,-2.11418 v -0.11313 c -0.0356,0.0408 -0.07901,0.0713 -0.13063,0.0793 0,0 -0.346423,0.0536 -0.693971,-0.11936 -1.079611,-0.63395 -1.111394,-3.96899 -1.135623,-5.63069 z"
           id="path2367"
           inkscape:connector-curvature="0" />
      </g>
    </g>
  </g>
</svg>
