<?xml version="1.0" encoding="UTF-8" standalone="no"?>
<svg
   xmlns:dc="http://purl.org/dc/elements/1.1/"
   xmlns:cc="http://creativecommons.org/ns#"
   xmlns:rdf="http://www.w3.org/1999/02/22-rdf-syntax-ns#"
   xmlns:svg="http://www.w3.org/2000/svg"
   xmlns="http://www.w3.org/2000/svg"
   xmlns:xlink="http://www.w3.org/1999/xlink"
   xmlns:sodipodi="http://sodipodi.sourceforge.net/DTD/sodipodi-0.dtd"
   xmlns:inkscape="http://www.inkscape.org/namespaces/inkscape"
   width="256"
   height="256"
   version="1.1"
   id="svg108"
   sodipodi:docname="brackets.svg"
   inkscape:version="0.92.3 (2405546, 2018-03-11)">
  <metadata
     id="metadata112">
    <rdf:RDF>
      <cc:Work
         rdf:about="">
        <dc:format>image/svg+xml</dc:format>
        <dc:type
           rdf:resource="http://purl.org/dc/dcmitype/StillImage" />
        <dc:title></dc:title>
      </cc:Work>
    </rdf:RDF>
  </metadata>
  <sodipodi:namedview
     pagecolor="#ffffff"
     bordercolor="#666666"
     borderopacity="1"
     objecttolerance="10"
     gridtolerance="10"
     guidetolerance="10"
     inkscape:pageopacity="0"
     inkscape:pageshadow="2"
     inkscape:window-width="1920"
     inkscape:window-height="1009"
     id="namedview110"
     showgrid="true"
     inkscape:zoom="3.2617188"
     inkscape:cx="128"
     inkscape:cy="128"
     inkscape:window-x="0"
     inkscape:window-y="34"
     inkscape:window-maximized="1"
     inkscape:current-layer="g953">
    <inkscape:grid
       type="xygrid"
       id="grid975" />
  </sodipodi:namedview>
  <defs
     id="defs91">
    <linearGradient
       id="linearGradient4773"
       x1="11.566"
       x2="15.215"
       y1="22.292"
       y2="33.955002"
       gradientTransform="translate(12.128253,-14.362661)"
       gradientUnits="userSpaceOnUse"
       xlink:href="#linearGradient8265-821-176-38-919-66-249" />
    <linearGradient
       id="linearGradient8265-821-176-38-919-66-249">
      <stop
         id="stop2687"
         offset="0"
         style="stop-color:#ffffff;stop-opacity:0.27450982" />
      <stop
         id="stop2689"
         offset="1"
         style="stop-color:#ffffff;stop-opacity:0" />
    </linearGradient>
    <linearGradient
       id="linearGradient4708"
       x1="24"
       x2="33"
       y1="33.402"
       y2="33.402"
       gradientTransform="translate(0,-1.9999996)"
       gradientUnits="userSpaceOnUse"
       spreadMethod="reflect"
       xlink:href="#linearGradient4702" />
    <linearGradient
       id="linearGradient4702">
      <stop
         id="stop4704"
         offset="0"
         style="stop-color:#ffffff" />
      <stop
         id="stop4706"
         offset="1"
         style="stop-color:#ffffff;stop-opacity:0" />
    </linearGradient>
    <linearGradient
       id="linearGradient4777"
       x1="102.308"
       x2="102.308"
       y1="-2.3929999"
       y2="-24.582001"
       gradientTransform="matrix(0.12747837,0,0,0.81926866,69.892246,33.811851)"
       gradientUnits="userSpaceOnUse"
       spreadMethod="reflect"
       xlink:href="#linearGradient3844-4-1-98" />
    <linearGradient
       id="linearGradient3844-4-1-98">
      <stop
         id="stop3846-6-6-1"
         offset="0"
         style="stop-color:#a5a6a8" />
      <stop
         id="stop3848-9-0-6"
         offset="1"
         style="stop-color:#e8e8e8" />
    </linearGradient>
    <linearGradient
       id="linearGradient4779"
       x1="109.956"
       x2="109.956"
       y1="-24.910999"
       y2="-2.3759999"
       gradientTransform="matrix(0.12747837,0,0,0.81926866,69.892246,33.811851)"
       gradientUnits="userSpaceOnUse"
       xlink:href="#linearGradient2509-9-1-4" />
    <linearGradient
       id="linearGradient2509-9-1-4">
      <stop
         id="stop2511-0-9-7"
         offset="0"
         style="stop-color:#b3b3b3" />
      <stop
         id="stop2513-3-1-74"
         offset="1"
         style="stop-color:#dadada" />
    </linearGradient>
    <linearGradient
       id="linearGradient4781"
       x1="89.017998"
       x2="89.017998"
       y1="22.537001"
       y2="27.546"
       gradientTransform="matrix(0.27703571,0,0,1.7410302,57.055001,-5.2547316)"
       gradientUnits="userSpaceOnUse"
       xlink:href="#linearGradient3858-4-6-8-7" />
    <linearGradient
       id="linearGradient3858-4-6-8-7">
      <stop
         id="stop3860-9-8-5-3"
         offset="0"
         style="stop-color:#a0a0a0" />
      <stop
         id="stop3862-9-2-3-8"
         offset="1"
         style="stop-color:#4a4a4a" />
    </linearGradient>
    <linearGradient
       id="linearGradient4681"
       x1="77.444"
       x2="77.444"
       y1="41.185001"
       y2="30.155001"
       gradientTransform="matrix(2.9195982,0,0,2.7200462,-157.64596,-76.984368)"
       gradientUnits="userSpaceOnUse"
       xlink:href="#linearGradient3188-6-5" />
    <linearGradient
       id="linearGradient3188-6-5">
      <stop
         id="stop3190-6-58"
         offset="0"
         style="stop-color:#4d4d4d" />
      <stop
         id="stop3192-6-88"
         offset="1"
         style="stop-color:#282828" />
    </linearGradient>
    <linearGradient
       id="linearGradient4166"
       x1="27"
       x2="27"
       y1="9"
       y2="27"
       gradientUnits="userSpaceOnUse"
       xlink:href="#linearGradient3642" />
    <linearGradient
       id="linearGradient3642">
      <stop
         id="stop3644"
         offset="0"
         style="stop-color:#ffffff" />
      <stop
         id="stop3646"
         offset="1"
         style="stop-color:#ffffff;stop-opacity:0" />
    </linearGradient>
    <radialGradient
       id="radialGradient4025"
       cx="25"
       cy="12"
       r="7.5"
       fx="25"
       fy="12"
       gradientTransform="matrix(0,9.5217056,-4.906667,0,127.62111,-315.64264)"
       gradientUnits="userSpaceOnUse"
       xlink:href="#linearGradient3690" />
    <linearGradient
       id="linearGradient3690">
      <stop
         id="stop3692"
         offset="0"
         style="stop-color:#ffeb9f" />
      <stop
         id="stop3694"
         offset=".262"
         style="stop-color:#ffd57e" />
      <stop
         id="stop3696"
         offset=".661"
         style="stop-color:#ffbc43" />
      <stop
         id="stop3698"
         offset="1"
         style="stop-color:#ff921a" />
    </linearGradient>
    <linearGradient
       id="linearGradient4033"
       x1="20"
       x2="20"
       y1="31.174"
       y2="8"
       gradientTransform="translate(0,-0.99999964)"
       gradientUnits="userSpaceOnUse"
       xlink:href="#linearGradient3603" />
    <linearGradient
       id="linearGradient3603">
      <stop
         id="stop3605"
         offset="0"
         style="stop-color:#a7651c" />
      <stop
         id="stop3607"
         offset="1"
         style="stop-color:#c8a700" />
    </linearGradient>
    <linearGradient
       id="linearGradient4647"
       x1="21.381001"
       x2="21.381001"
       y1="5.052"
       y2="44.137001"
       gradientTransform="matrix(0.54285711,0,0,0.36842106,10.97143,25.473684)"
       gradientUnits="userSpaceOnUse"
       xlink:href="#linearGradient4649" />
    <linearGradient
       id="linearGradient4649">
      <stop
         id="stop4652"
         offset="0"
         style="stop-color:#ffffff" />
      <stop
         id="stop4654"
         offset=".185"
         style="stop-color:#ffffff;stop-opacity:0.23529412" />
      <stop
         id="stop4656"
         offset=".88"
         style="stop-color:#ffffff;stop-opacity:0.15686275" />
      <stop
         id="stop4658"
         offset="1"
         style="stop-color:#ffffff;stop-opacity:0.39215687" />
    </linearGradient>
    <linearGradient
       id="linearGradient4190-0"
       x1="77.444"
       x2="77.444"
       y1="41.185001"
       y2="30.155001"
       gradientTransform="matrix(3.2000001,0,0,3.2000001,-179.08112,-134.09731)"
       gradientUnits="userSpaceOnUse"
       xlink:href="#linearGradient3188-6" />
    <linearGradient
       id="linearGradient3188-6">
      <stop
         id="stop3190-6"
         offset="0"
         style="stop-color:#4d4d4d" />
      <stop
         id="stop3192-6"
         offset="1"
         style="stop-color:#4d4d4d" />
    </linearGradient>
    <radialGradient
       id="radialGradient4267"
       cx="28.924999"
       cy="22.569"
       r="11.491"
       fx="28.924999"
       fy="22.569"
       gradientTransform="matrix(1.1454014e-7,1.0911469,-3.5984978,3.7774237e-7,146.75381,-38.761306)"
       gradientUnits="userSpaceOnUse"
       xlink:href="#linearGradient4660" />
    <linearGradient
       id="linearGradient4660">
      <stop
         id="stop4662"
         offset="0"
         style="stop-color:#5e5c64;stop-opacity:1" />
      <stop
         id="stop4664"
         offset="1"
         style="stop-color:#241f31;stop-opacity:1" />
    </linearGradient>
    <linearGradient
       id="linearGradient3421"
       x1="32.084999"
       x2="32.084999"
       y1="-14.402"
       y2="-5.5630002"
       gradientTransform="matrix(0.6655121,0,0,0.4518781,-54.615029,45.875214)"
       gradientUnits="userSpaceOnUse"
       xlink:href="#linearGradient47870" />
    <linearGradient
       id="linearGradient47870">
      <stop
         id="stop47872"
         offset="0"
         style="stop-color:#000000;stop-opacity:0" />
      <stop
         id="stop47878"
         offset=".5"
         style="stop-color:#000000" />
      <stop
         id="stop47874"
         offset="1"
         style="stop-color:#000000;stop-opacity:0" />
    </linearGradient>
    <radialGradient
       id="radialGradient3418"
       cx="51.438"
       cy="-12.203"
       r="2.1719999"
       fx="51.438"
       fy="-12.203"
       gradientTransform="matrix(1.8417267,-5.1455073e-7,6.2669991e-7,0.9200109,-115.2312,52.586443)"
       gradientUnits="userSpaceOnUse"
       xlink:href="#linearGradient51765" />
    <linearGradient
       id="linearGradient51765">
      <stop
         id="stop51767"
         offset="0"
         style="stop-color:#000000" />
      <stop
         id="stop51769"
         offset="1"
         style="stop-color:#000000;stop-opacity:0" />
    </linearGradient>
    <radialGradient
       id="radialGradient4142"
       cx="51.438"
       cy="-12.203"
       r="2.1719999"
       fx="51.438"
       fy="-12.203"
       gradientTransform="matrix(-1.8417267,-5.8450938e-8,-1.2125708e-7,0.9200109,52.236437,52.586419)"
       gradientUnits="userSpaceOnUse"
       xlink:href="#linearGradient51765" />
    <radialGradient
       id="radialGradient5244"
       cx="25"
       cy="12"
       r="7.5"
       fx="25"
       fy="12"
       gradientTransform="matrix(0,2.9755329,-1.5333334,0,50.911001,-73.192276)"
       gradientUnits="userSpaceOnUse"
       xlink:href="#linearGradient3690-9" />
    <linearGradient
       id="linearGradient3690-9">
      <stop
         id="stop3692-0"
         offset="0"
         style="stop-color:#ffeb9f" />
      <stop
         id="stop3694-0"
         offset=".262"
         style="stop-color:#ffd57e" />
      <stop
         id="stop3696-74"
         offset=".661"
         style="stop-color:#ffbc43" />
      <stop
         id="stop3698-1"
         offset="1"
         style="stop-color:#ff921a" />
    </linearGradient>
    <radialGradient
       id="radialGradient5263"
       cx="25"
       cy="12"
       r="7.5"
       fx="25"
       fy="12"
       gradientTransform="matrix(0,2.9755329,-1.5333334,0,49.838001,-70.656095)"
       gradientUnits="userSpaceOnUse"
       xlink:href="#linearGradient3690-9-0" />
    <linearGradient
       id="linearGradient3690-9-0">
      <stop
         id="stop3692-0-0"
         offset="0"
         style="stop-color:#ffeb9f" />
      <stop
         id="stop3694-0-9"
         offset=".262"
         style="stop-color:#ffd57e" />
      <stop
         id="stop3696-74-4"
         offset=".661"
         style="stop-color:#ffbc43" />
      <stop
         id="stop3698-1-2"
         offset="1"
         style="stop-color:#ff921a" />
    </linearGradient>
    <radialGradient
       id="radialGradient5303"
       cx="25"
       cy="12"
       r="7.5"
       fx="25"
       fy="12"
       gradientTransform="matrix(0,2.9755329,-1.5333334,0,43.400001,-67.388322)"
       gradientUnits="userSpaceOnUse"
       xlink:href="#linearGradient3690-9-0-4" />
    <linearGradient
       id="linearGradient3690-9-0-4">
      <stop
         id="stop3692-0-0-8"
         offset="0"
         style="stop-color:#ffeb9f" />
      <stop
         id="stop3694-0-9-4"
         offset=".262"
         style="stop-color:#ffd57e" />
      <stop
         id="stop3696-74-4-3"
         offset=".661"
         style="stop-color:#ffbc43" />
      <stop
         id="stop3698-1-2-4"
         offset="1"
         style="stop-color:#ff921a" />
    </linearGradient>
    <linearGradient
       id="linearGradient7652-827">
      <stop
         id="stop3225"
         offset="0"
         style="stop-color:#5e5c64;stop-opacity:1" />
      <stop
         id="stop3227"
         offset="1"
         style="stop-color:#5e5c64;stop-opacity:0" />
    </linearGradient>
    <linearGradient
       id="linearGradient7576-259">
      <stop
         id="stop3231"
         offset="0"
         style="stop-color:#3f3f3f" />
      <stop
         id="stop3233"
         offset="1"
         style="stop-color:#6c6c6c;stop-opacity:0" />
    </linearGradient>
    <linearGradient
       id="linearGradient5448"
       x1="37.625"
       x2="38.875"
       y1="40.313"
       y2="45.063"
       gradientTransform="matrix(-2.3059252,-0.19289566,0.19289566,-2.3059252,105.59662,57.135264)"
       gradientUnits="userSpaceOnUse"
       xlink:href="#linearGradient7652-827" />
    <linearGradient
       id="linearGradient5450"
       x1="38.75"
       x2="40.125"
       y1="40.625"
       y2="46.563"
       gradientTransform="matrix(-0.72060161,-0.06027989,0.06027989,-0.72060161,36.517347,49.104769)"
       gradientUnits="userSpaceOnUse"
       xlink:href="#linearGradient7576-259" />
    <linearGradient
       id="linearGradient3089"
       x1="27"
       x2="27"
       y1="9"
       y2="27"
       gradientTransform="translate(17.265545,-4.9993632)"
       gradientUnits="userSpaceOnUse"
       xlink:href="#linearGradient3642" />
    <linearGradient
       inkscape:collect="always"
       xlink:href="#linearGradient4360"
       id="linearGradient4358"
       x1="88"
       y1="88"
       x2="488"
       y2="488"
       gradientUnits="userSpaceOnUse" />
    <linearGradient
       id="linearGradient4360"
       inkscape:collect="always">
      <stop
         id="stop4362"
         offset="0"
         style="stop-color:#000000;stop-opacity:0.58823532" />
      <stop
         id="stop4366"
         offset="1"
         style="stop-color:#000000;stop-opacity:0.20555556" />
    </linearGradient>
    <filter
       inkscape:collect="always"
       style="color-interpolation-filters:sRGB"
       id="filter4380"
       x="-0.052999184"
       width="1.1059984"
       y="-0.043862626"
       height="1.0877253">
      <feGaussianBlur
         inkscape:collect="always"
         stdDeviation="8.4801079"
         id="feGaussianBlur4382" />
    </filter>
    <filter
       inkscape:collect="always"
       style="color-interpolation-filters:sRGB"
       id="filter4346"
       x="-0.013249796"
       width="1.0264996"
       y="-0.010965657"
       height="1.0219313">
      <feGaussianBlur
         inkscape:collect="always"
         stdDeviation="2.120027"
         id="feGaussianBlur4348" />
    </filter>
    <linearGradient
       id="e"
       x1="43.844002"
       x2="-60"
       y1="234"
       y2="234"
       gradientTransform="matrix(1.0015,0,0,0.99993,72.09,56.015)"
       gradientUnits="userSpaceOnUse"
       xlink:href="#b" />
    <linearGradient
       id="b">
      <stop
         id="stop11"
         offset="0"
         stop-color="#d5d3cf" />
      <stop
         id="stop13"
         offset=".038"
         stop-color="#e3e2df" />
      <stop
         id="stop15"
         offset=".077"
         stop-color="#c0bfbc" />
      <stop
         id="stop17"
         offset=".923"
         stop-color="#c0bfbc" />
      <stop
         id="stop19"
         offset=".962"
         stop-color="#e3e2df" />
      <stop
         id="stop21"
         offset="1"
         stop-color="#d5d3cf" />
    </linearGradient>
  </defs>
  <g
     id="layer1"
     transform="translate(0,208)">
    <path
       style="color:#000000;display:inline;overflow:visible;visibility:visible;opacity:0.1;fill:#000000;fill-opacity:1;fill-rule:nonzero;stroke:none;stroke-width:2;marker:none;filter:url(#filter4346);enable-background:accumulate"
       d="M 141.84323,74 C 71.24979,74 63.65402,81.250835 64,151.98706 V 298 444.01294 C 63.65402,514.74917 71.24979,522 141.84323,522 H 434.15677 C 504.75021,522 513.9371,514.72348 512,444.01294 V 298 151.98706 C 512,81.249993 504.75021,74 434.15677,74 Z"
       id="rect4158-9"
       inkscape:connector-curvature="0"
       sodipodi:nodetypes="scccssscsss"
       transform="matrix(0.5,0,0,0.5,-14.116488,-228.82553)" />
    <path
       sodipodi:nodetypes="scccssscsss"
       inkscape:connector-curvature="0"
       id="path4350"
       d="M 141.84323,74 C 71.24979,74 63.65402,81.250835 64,151.98706 V 298 444.01294 C 63.65402,514.74917 71.24979,522 141.84323,522 H 434.15677 C 504.75021,522 513.9371,514.72348 512,444.01294 V 298 151.98706 C 512,81.249993 504.75021,74 434.15677,74 Z"
       style="color:#000000;display:inline;overflow:visible;visibility:visible;opacity:0.3;fill:url(#linearGradient4358);fill-opacity:1;fill-rule:nonzero;stroke:none;stroke-width:2;marker:none;filter:url(#filter4380);enable-background:accumulate"
       transform="matrix(0.5,0,0,0.5,-14.116488,-228.82523)" />
    <path
       style="color:#000000;display:inline;overflow:visible;visibility:visible;opacity:0.1;fill:#000000;fill-opacity:1;fill-rule:nonzero;stroke:none;stroke-width:1.02028775;marker:none;enable-background:accumulate"
       d="m 55.695112,-194.82553 c -36.09881,0 -39.983002,3.69016 -39.80608,39.68984 v 74.310155 74.3101591 C 15.71211,29.484314 19.596302,33.174464 55.695112,33.174464 H 204.08243 c 36.09881,0 40.77464,-3.70276 39.80608,-39.6898399 V -80.825535 -155.13569 c 0,-36.00011 -3.70727,-39.68984 -39.80608,-39.68984 z"
       id="rect4158-7"
       inkscape:connector-curvature="0"
       sodipodi:nodetypes="scccssscsss" />
    <path
       style="color:#000000;display:inline;overflow:visible;visibility:visible;opacity:0.05;fill:#ffffff;fill-opacity:1;fill-rule:nonzero;stroke:none;stroke-width:1;marker:none;enable-background:accumulate"
       d="m 17.877654,-80.825235 v 8 65.0058591 c 0,35.3685299 3.625164,38.9941399 38.921874,38.9941399 H 202.95578 c 35.29673,0 39.09486,-3.62602 38.92187,-38.9941399 v -65.0058591 -8 z"
       id="rect4158-5"
       inkscape:connector-curvature="0"
       sodipodi:nodetypes="ccssscccc" />
    <g
       id="g953"
       transform="translate(-0.25806097)">
      <path
         style="fill:#2f5fdd;stroke-width:4;fill-opacity:1"
         d="M 55.361328 15.201172 C 51.59165 15.214002 48.047842 15.25072 44.994141 15.398438 C 41.517017 15.566638 38.479842 15.84673 35.828125 16.292969 C 33.176408 16.739207 30.908525 17.353385 28.972656 18.1875 C 28.004722 18.604557 27.120061 19.076707 26.310547 19.611328 C 25.510141 20.139934 24.78775 20.731786 24.128906 21.388672 L 129.93945 127.19922 L 235.72461 21.416016 C 235.72233 21.413735 235.72103 21.410482 235.71875 21.408203 C 235.05126 20.742282 234.31472 20.145957 233.50195 19.611328 C 232.68919 19.076699 231.79961 18.604566 230.82812 18.1875 C 228.88516 17.353368 226.6116 16.739224 223.95312 16.292969 C 221.29465 15.846714 218.25105 15.566648 214.76953 15.398438 C 211.71169 15.250697 208.16519 15.213996 204.39453 15.201172 L 55.361328 15.201172 z "
         id="path4"
         transform="translate(0.25806097,-208)" />
      <path
         style="fill:#9b33ae;stroke-width:4;fill-opacity:1"
         d="M 24.158203 232.98438 C 24.81004 233.63073 25.520812 234.21672 26.310547 234.73828 C 27.120061 235.2729 28.004722 235.74505 28.972656 236.16211 C 30.908525 236.99622 33.176408 237.60845 35.828125 238.05469 C 38.479842 238.50093 41.517017 238.78102 44.994141 238.94922 C 48.471264 239.11742 52.386739 239.17383 56.798828 239.17383 L 202.95703 239.17383 C 207.36912 239.17383 211.28801 239.11743 214.76953 238.94922 C 218.25105 238.78101 221.29465 238.50094 223.95312 238.05469 C 226.6116 237.60843 228.88516 236.99624 230.82812 236.16211 C 231.79961 235.74504 232.68919 235.27291 233.50195 234.73828 C 234.30681 234.20885 235.03493 233.6171 235.69727 232.95898 L 129.93945 127.20117 L 24.158203 232.98438 z "
         id="path6"
         transform="translate(0.25806097,-208)" />
      <path
         style="fill:#46a926;stroke-width:4;fill-opacity:1"
         d="M 235.70117 232.95703 C 235.70668 232.95156 235.71325 232.94689 235.71875 232.94141 C 236.38624 232.27549 236.98387 231.53946 237.51953 230.72852 C 238.05519 229.91757 238.52804 229.03024 238.94531 228.06055 C 239.77985 226.12116 240.39237 223.85207 240.83398 221.19531 C 241.2756 218.53855 241.54689 215.49569 241.70312 212.01172 C 241.85936 208.52775 241.90053 204.60266 241.87891 200.18164 L 241.87891 127.17383 L 241.87891 54.167969 C 241.90053 49.746955 241.85936 45.821862 241.70312 42.337891 C 241.54689 38.853919 241.2756 35.811059 240.83398 33.154297 C 240.39237 30.497535 239.77985 28.226495 238.94531 26.287109 C 238.52804 25.317417 238.05519 24.430083 237.51953 23.619141 C 236.98622 22.811755 236.39052 22.081573 235.72656 21.417969 L 129.94336 127.19922 L 235.70117 232.95703 z "
         id="path8"
         transform="translate(0.25806097,-208)" />
      <path
         style="fill:#da1636;stroke-width:4;fill-opacity:1"
         d="M 24.128906 21.388672 C 24.121409 21.396147 24.110995 21.400711 24.103516 21.408203 C 23.438726 22.074118 22.842353 22.808203 22.308594 23.619141 C 21.774835 24.430078 21.303142 25.317419 20.886719 26.287109 C 20.053872 28.226491 19.441766 30.497525 18.996094 33.154297 C 18.550421 35.811069 18.271573 38.853891 18.103516 42.337891 C 17.98221 44.852675 17.967213 47.881909 17.941406 50.876953 L 17.941406 203.47266 C 17.967213 206.4677 17.98221 209.49693 18.103516 212.01172 C 18.271573 215.49572 18.550421 218.53854 18.996094 221.19531 C 19.441766 223.85208 20.053872 226.12312 20.886719 228.0625 C 21.303142 229.03219 21.774835 229.91758 22.308594 230.72852 C 22.842353 231.53945 23.438726 232.27549 24.103516 232.94141 C 24.119405 232.95732 24.140282 232.96854 24.15625 232.98438 L 129.93945 127.19922 L 24.128906 21.388672 z "
         id="path10"
         transform="translate(0.25806097,-208)" />
      <path
         id="path14"
         d="m 140.37969,-176.79232 c -4.72004,0 -8.85033,0.57168 -12.39844,1.71096 -3.51579,1.10676 -6.54688,2.655 -9.08594,4.6406 -2.50647,1.95312 -4.58987,4.26048 -6.25,6.92972 -1.62755,2.66908 -2.92967,4.3672 -3.90625,7.49216 -0.94398,3.09244 -1.6094,6.33344 -2,9.71876 -0.35808,3.38516 -0.53906,6.7852 -0.53906,10.20312 h 0.008 c 0,5.37272 0.63694,10.025 1.90625,13.96096 1.30132,3.90924 3.0672,7.14812 5.3125,9.71872 2.28263,2.57064 4.95186,4.48852 8.00781,5.75784 3.0611,1.23728 6.35239,1.85936 9.867,1.85936 3.58395,0 6.80544,-0.55228 9.66406,-1.65624 2.86455,-1.13928 5.30992,-2.76696 7.32813,-4.88284 2.01816,-2.14836 3.55859,-4.75264 4.63281,-7.81248 1.10676,-3.0596 1.66406,-6.5248 1.66406,-10.39844 0,-3.61328 -0.45573,-6.81776 -1.36718,-9.6172 -0.9114,-2.7994 -2.22787,-5.5638 -3.95313,-7.48436 -1.69267,-1.92056 -3.77606,-3.38152 -6.25,-4.39064 -2.47393,-1.00908 -5.25918,-1.5156 -8.35156,-1.5156 -1.92056,0 -3.66408,0.2096 -5.22656,0.6328 -1.52995,0.4232 -2.9115,1.00912 -4.14844,1.7578 -1.237,0.71616 -2.32945,1.99744 -3.27344,3.03908 -0.91145,1.00912 -1.69271,2.10156 -2.34375,3.27344 h -0.58594 c 0.16276,-3.32048 0.58988,-6.3516 1.27344,-9.08596 0.71615,-2.73436 1.90237,-3.875 3.5625,-5.82812 1.66014,-1.95308 3.90236,-3.47264 6.73438,-4.54688 2.83206,-1.10676 6.44925,-1.65624 10.84375,-1.65624 1.39971,0 2.78125,0.0936 4.14843,0.2892 1.39972,0.1628 2.71619,0.3944 3.95313,0.68752 v -12.06252 c -0.61849,-0.1304 -1.31253,-0.246 -2.09375,-0.3436 -0.78127,-0.0976 -1.59898,-0.1628 -2.44531,-0.1952 -0.8138,-0.0652 -1.6237,-0.108 -2.4375,-0.1408 -0.8138,-0.032 -1.56644,-0.0548 -2.25,-0.0548 z M 131.2,-140.5892 c 2.9622,0 5.16151,1.01304 6.59375,3.03128 1.46483,1.98568 2.19531,4.72008 2.19531,8.20312 0,2.1484 -0.23176,4 -0.6875,5.56248 -0.42314,1.56248 -1.03776,2.86464 -1.85156,3.90628 -0.78122,1.00904 -1.72137,1.776 -2.82812,2.29684 -1.07423,0.48828 -2.2826,0.7344 -3.61719,0.7344 -1.62761,0 -3.05994,-0.41276 -4.29688,-1.22656 -1.20441,-0.8138 -2.23179,-1.86984 -3.07812,-3.17188 -0.81375,-1.3346 -1.42837,-2.81772 -1.85157,-4.44532 -0.3906,-1.66012 -0.58593,-3.31644 -0.58593,-4.97656 0,-1.2044 0.22396,-2.39064 0.67969,-3.56248 0.48826,-1.17188 1.17576,-2.23572 2.05468,-3.17972 0.87892,-0.94404 1.93494,-1.70312 3.17188,-2.28904 1.23699,-0.58592 2.6042,-0.88284 4.10156,-0.88284 z m 51,27.78908 v 36.01564 l 3.42188,3.22656 c 0.6185,-0.1952 1.35679,-0.3764 2.20312,-0.53908 0.84633,-0.1952 1.72136,-0.3764 2.63281,-0.53904 0.94399,-0.1628 1.88414,-0.2932 2.82813,-0.3908 0.97657,-0.0976 1.88804,-0.1408 2.73437,-0.1408 4.65465,0 8.09117,0.9258 10.30469,2.78124 2.24604,1.823 3.36719,4.49224 3.36719,8.0078 0,3.9386 -1.13543,6.81772 -3.41407,8.64064 -2.27852,1.79032 -5.59902,2.68748 -9.96093,2.68748 -1.46478,0 -3.01302,-0.116 -4.64063,-0.3436 -1.62754,-0.2604 -3.25521,-0.58596 -4.88281,-0.97656 -1.59501,-0.42308 -3.14326,-0.90752 -4.64063,-1.46088 -1.49736,-0.58576 -2.81383,-1.2082 -3.95312,-1.85924 v 13.03908 c 1.17332,0.65064 2.47694,1.2178 3.90625,1.70312 1.46664,0.49068 2.99911,0.87856 4.59375,1.17188 1.62664,0.3252 3.31815,0.57436 5.07812,0.73436 1.75464,0.1652 3.52834,0.2424 5.32032,0.2424 4.4906,0 8.46345,-0.5696 11.91406,-1.71092 3.48288,-1.13928 6.39068,-2.76696 8.73438,-4.8828 2.3437,-2.1484 4.12371,-4.75268 5.32812,-7.81252 1.20441,-3.09264 1.80469,-6.57168 1.80469,-10.44532 0,-3.51572 -0.55731,-6.62636 -1.66407,-9.32812 -1.10675,-2.73428 -2.63284,-5.01304 -4.58593,-6.83592 -1.95315,-1.82292 -4.24616,-3.20448 -6.88281,-4.14844 -2.6366,-0.944 -5.48703,-1.42188 -8.54688,-1.42188 v 0.008 c -2.18098,0 -3.96747,0.116 -5.36719,0.3436 -1.36718,0.228 -2.57555,0.4518 -3.61719,0.67968 l 1.17188,-14.44556 H 218.2 v -12 z m -124.023436,0.3748 c -2.864544,0 -5.454464,0.2968 -7.765628,0.8828 -2.311164,0.5534 -4.423192,1.2982 -6.343748,2.2422 -1.92056,0.94404 -3.678424,2.03648 -5.273436,3.27344 -1.595016,1.2044 -3.12892,1.6732 -4.593752,3.0078 l 8.203124,9.72656 c 2.604124,-2.34368 5.092468,-4.14452 7.468752,-5.41404 2.376232,-1.26952 4.850288,-1.90624 7.421876,-1.90624 2.441404,0 4.380256,0.6654 5.812496,2 1.464828,1.33456 2.195316,3.20836 2.195316,5.61716 0,2.181 -0.33988,4.2136 -1.02344,6.10156 -0.683616,1.888 -1.645872,3.7474 -2.882812,5.57032 -1.23694,1.82284 -2.712248,3.68884 -4.4375,5.60936 -1.725204,1.92052 -3.649764,4.02608 -5.765624,6.30472 l -16.796876,18.91404 v 9.69552 h 47.89844 v -0.008 -11.89844 H 53.2 v -0.67968 l 8.585936,-9.44532 c 2.539,-2.50648 4.9193,-4.96616 7.132816,-7.375 2.2461,-2.4414 4.21358,-4.87896 5.906248,-7.32032 1.692668,-2.47392 3.03124,-4.98444 4.007812,-7.52344 0.976516,-2.57168 1.46094,-5.25524 1.46094,-8.05468 0,-3.09236 -0.520868,-5.8776 -1.562504,-8.35156 -1.009104,-2.47388 -2.470064,-3.77476 -4.390624,-5.5 -1.920504,-1.7576 -4.250016,-3.10268 -6.984376,-4.04668 -2.701984,-0.944 -5.76176,-1.42188 -9.179684,-1.42188 z M 106.2,-48.0892 v 11.28908 h 32.8125 l -25.39062,60 h 0.008 15.76562 L 154.2,-38.6126 v -9.4766 z"
         style="fill:#ededed;stroke-width:4;fill-opacity:1"
         inkscape:connector-curvature="0" />
      <path
         style="fill:#ffffff;stroke-width:4;fill-opacity:1;opacity:0.3"
         d="M 140.12109 31.207031 C 135.40105 31.207031 131.27077 31.778689 127.72266 32.917969 C 124.20687 34.024729 121.17578 35.572994 118.63672 37.558594 C 116.13025 39.511714 114.04685 41.819041 112.38672 44.488281 C 110.75917 47.157361 109.45705 48.855509 108.48047 51.980469 C 107.53649 55.072909 106.87107 58.313899 106.48047 61.699219 C 106.12239 65.084379 105.94141 68.484424 105.94141 71.902344 L 105.94922 71.902344 C 105.94922 72.127968 105.95674 72.345276 105.95898 72.568359 C 105.99996 69.599949 106.16906 66.643149 106.48047 63.699219 C 106.87107 60.313899 107.53649 57.072909 108.48047 53.980469 C 109.45705 50.855509 110.75917 49.157361 112.38672 46.488281 C 114.04685 43.819041 116.13025 41.511714 118.63672 39.558594 C 121.17578 37.572994 124.20687 36.024729 127.72266 34.917969 C 131.27077 33.778689 135.40105 33.207031 140.12109 33.207031 C 140.80465 33.207031 141.55729 33.229719 142.37109 33.261719 C 143.18489 33.294519 143.99479 33.339097 144.80859 33.404297 C 145.65492 33.436697 146.47264 33.500056 147.25391 33.597656 C 148.03513 33.695256 148.72917 33.811006 149.34766 33.941406 L 149.34766 31.941406 C 148.72917 31.811006 148.03513 31.695256 147.25391 31.597656 C 146.47264 31.500056 145.65492 31.436697 144.80859 31.404297 C 143.99479 31.339097 143.18489 31.294519 142.37109 31.261719 C 141.55729 31.229719 140.80465 31.207031 140.12109 31.207031 z M 134.41016 55.441406 C 132.4896 55.441406 130.74607 55.651019 129.18359 56.074219 C 127.65364 56.497419 126.2721 57.083351 125.03516 57.832031 C 123.79816 58.548191 122.70571 59.829454 121.76172 60.871094 C 120.85027 61.880214 120.06901 62.972651 119.41797 64.144531 L 118.97266 64.144531 C 118.91703 64.801736 118.86544 65.462873 118.83203 66.144531 L 119.41797 66.144531 C 120.06901 64.972651 120.85027 63.880214 121.76172 62.871094 C 122.70571 61.829454 123.79816 60.548191 125.03516 59.832031 C 126.2721 59.083351 127.65364 58.497419 129.18359 58.074219 C 130.74607 57.651019 132.4896 57.441406 134.41016 57.441406 C 137.50254 57.441406 140.28779 57.947951 142.76172 58.957031 C 145.23566 59.966151 147.31905 61.427096 149.01172 63.347656 C 150.73698 65.268216 152.05344 68.032631 152.96484 70.832031 C 153.81442 73.441445 154.25092 76.418081 154.30859 79.734375 C 154.32258 79.310555 154.33203 78.883292 154.33203 78.449219 C 154.33203 74.835939 153.87629 71.631471 152.96484 68.832031 C 152.05344 66.032631 150.73698 63.268216 149.01172 61.347656 C 147.31905 59.427096 145.23566 57.966151 142.76172 56.957031 C 140.28779 55.947951 137.50254 55.441406 134.41016 55.441406 z M 120.9707 78.556641 C 120.95019 78.812271 120.93359 79.066968 120.93359 79.324219 C 120.93359 80.984339 121.12893 82.640661 121.51953 84.300781 C 121.94273 85.928381 122.55734 87.411494 123.37109 88.746094 C 124.21742 90.048134 125.24481 91.104169 126.44922 91.917969 C 127.68616 92.731769 129.11848 93.144531 130.74609 93.144531 C 132.08068 93.144531 133.28905 92.898436 134.36328 92.410156 C 135.47003 91.889316 136.41019 91.122321 137.19141 90.113281 C 138.00521 89.071641 138.61983 87.769511 139.04297 86.207031 C 139.49871 84.644551 139.73047 82.792931 139.73047 80.644531 C 139.73047 80.292204 139.71808 79.954194 139.70312 79.617188 C 139.64219 81.351895 139.42752 82.888631 139.04297 84.207031 C 138.61983 85.769511 138.00521 87.071641 137.19141 88.113281 C 136.41019 89.122321 135.47003 89.889316 134.36328 90.410156 C 133.28905 90.898436 132.08068 91.144531 130.74609 91.144531 C 129.11848 91.144531 127.68616 90.731769 126.44922 89.917969 C 125.24481 89.104169 124.21742 88.048134 123.37109 86.746094 C 122.55734 85.411494 121.94273 83.928381 121.51953 82.300781 C 121.22551 81.051142 121.04341 79.805215 120.9707 78.556641 z M 181.94141 95.199219 L 181.94141 97.199219 L 217.94141 97.199219 L 217.94141 95.199219 L 181.94141 95.199219 z M 57.917969 95.574219 C 55.053425 95.574219 52.463508 95.871031 50.152344 96.457031 C 47.84118 97.010431 45.72915 97.755219 43.808594 98.699219 C 41.888034 99.643259 40.130168 100.7357 38.535156 101.97266 C 36.94014 103.17706 35.406238 103.64587 33.941406 104.98047 L 34.957031 106.18555 C 36.11103 105.39685 37.304776 104.90172 38.535156 103.97266 C 40.130168 102.7357 41.888034 101.64326 43.808594 100.69922 C 45.72915 99.755219 47.84118 99.010431 50.152344 98.457031 C 52.463508 97.871031 55.053425 97.574219 57.917969 97.574219 C 61.335893 97.574219 64.395672 98.052094 67.097656 98.996094 C 69.832016 99.940094 72.161527 101.28537 74.082031 103.04297 C 76.002591 104.76821 77.463552 106.06909 78.472656 108.54297 C 79.36975 110.67363 79.879411 113.03718 80.003906 115.62695 C 80.011433 115.38209 80.035156 115.14119 80.035156 114.89453 C 80.035156 111.80217 79.514292 109.01693 78.472656 106.54297 C 77.463552 104.06909 76.002591 102.76821 74.082031 101.04297 C 72.161527 99.285369 69.832016 97.940094 67.097656 96.996094 C 64.395672 96.052094 61.335893 95.574219 57.917969 95.574219 z M 65.001953 116.0625 C 64.908468 117.84416 64.590686 119.52797 64.019531 121.10547 C 63.335915 122.99347 62.373659 124.85286 61.136719 126.67578 C 59.899779 128.49862 58.424471 130.36464 56.699219 132.28516 C 54.974015 134.20568 53.049454 136.3112 50.933594 138.58984 L 34.136719 157.50391 L 34.136719 159.50391 L 50.933594 140.58984 C 53.049454 138.3112 54.974015 136.20568 56.699219 134.28516 C 58.424471 132.36464 59.899779 130.49862 61.136719 128.67578 C 62.373659 126.85286 63.335915 124.99347 64.019531 123.10547 C 64.703091 121.21751 65.042969 119.18491 65.042969 117.00391 C 65.042969 116.67938 65.02848 116.36759 65.001953 116.0625 z M 202.94141 120.61328 L 202.94141 120.62305 C 200.76043 120.62305 198.97394 120.73724 197.57422 120.96484 C 196.26908 121.1825 195.1299 121.39608 194.12109 121.61328 L 193.95703 123.64453 C 194.99867 123.41665 196.20704 123.19284 197.57422 122.96484 C 198.97394 122.73724 200.76043 122.62305 202.94141 122.62305 L 202.94141 122.61328 C 206.00126 122.61328 208.85168 123.09116 211.48828 124.03516 C 214.12493 124.97912 216.41794 126.36067 218.37109 128.18359 C 220.32418 130.00647 221.85028 132.28525 222.95703 135.01953 C 223.95873 137.46483 224.50586 140.24897 224.60156 143.36133 C 224.61092 143.02556 224.62109 142.68957 224.62109 142.34766 C 224.62109 138.83194 224.06379 135.72129 222.95703 133.01953 C 221.85028 130.28525 220.32418 128.00647 218.37109 126.18359 C 216.41794 124.36067 214.12493 122.97912 211.48828 122.03516 C 208.85168 121.09116 206.00126 120.61328 202.94141 120.61328 z M 209.39453 144.67578 C 209.20414 148.07312 208.08776 150.60713 206.01953 152.26172 C 203.74101 154.05204 200.4205 154.94922 196.05859 154.94922 C 194.59381 154.94922 193.04558 154.83307 191.41797 154.60547 C 189.79043 154.34507 188.16276 154.01951 186.53516 153.62891 C 184.94015 153.20583 183.3919 152.72133 181.89453 152.16797 C 180.39717 151.58221 179.0807 150.95963 177.94141 150.30859 L 177.94141 152.30859 C 179.0807 152.95963 180.39717 153.58221 181.89453 154.16797 C 183.3919 154.72133 184.94015 155.20583 186.53516 155.62891 C 188.16276 156.01951 189.79043 156.34507 191.41797 156.60547 C 193.04558 156.83307 194.59381 156.94922 196.05859 156.94922 C 200.4205 156.94922 203.74101 156.05204 206.01953 154.26172 C 208.29817 152.4388 209.43359 149.55969 209.43359 145.62109 C 209.43359 145.29637 209.41366 144.98606 209.39453 144.67578 z M 54.140625 155.29297 L 52.941406 156.61328 L 52.941406 157.29297 L 82.035156 157.29297 L 82.035156 155.29297 L 54.140625 155.29297 z M 105.94141 159.91016 L 105.94141 161.91016 L 153.94141 161.91016 L 153.94141 159.91016 L 105.94141 159.91016 z M 137.9082 173.19922 L 113.36328 231.19922 L 113.37109 231.19922 L 114.20898 231.19922 L 138.75391 173.19922 L 137.9082 173.19922 z "
         transform="translate(0.25806097,-208)"
         id="path1123" />
      <path
         style="fill:#030000;stroke-width:4;fill-opacity:1;opacity:0.2"
         d="M 141.24609 41.027344 C 136.85159 41.027344 133.2344 41.576834 130.40234 42.683594 C 127.57032 43.757834 125.32811 45.277389 123.66797 47.230469 C 122.00784 49.183589 120.82162 50.324234 120.10547 53.058594 C 119.42191 55.792954 118.99479 58.824051 118.83203 62.144531 L 118.97266 62.144531 C 119.188 59.600373 119.56224 57.23162 120.10547 55.058594 C 120.82162 52.324234 122.00784 51.183589 123.66797 49.230469 C 125.32811 47.277389 127.57032 45.757834 130.40234 44.683594 C 133.2344 43.576834 136.85159 43.027344 141.24609 43.027344 C 142.6458 43.027344 144.02735 43.120806 145.39453 43.316406 C 146.79425 43.479206 148.11072 43.710786 149.34766 44.003906 L 149.34766 42.003906 C 148.11072 41.710786 146.79425 41.479206 145.39453 41.316406 C 144.02735 41.120806 142.6458 41.027344 141.24609 41.027344 z M 130.94141 65.410156 C 129.44405 65.410156 128.07683 65.707049 126.83984 66.292969 C 125.6029 66.878889 124.54689 67.637991 123.66797 68.582031 C 122.78905 69.526031 122.10154 70.589839 121.61328 71.761719 C 121.15755 72.933559 120.93359 74.119819 120.93359 75.324219 C 120.93359 75.734699 120.94682 76.14651 120.9707 76.556641 C 121.04622 75.615457 121.25489 74.683263 121.61328 73.761719 C 122.10154 72.589839 122.78905 71.526031 123.66797 70.582031 C 124.54689 69.637991 125.6029 68.878889 126.83984 68.292969 C 128.07683 67.707049 129.44405 67.410156 130.94141 67.410156 C 133.90361 67.410156 136.10292 68.423166 137.53516 70.441406 C 138.85181 72.226225 139.57025 74.622612 139.70312 77.617188 C 139.71441 77.296036 139.73047 76.980139 139.73047 76.644531 C 139.73047 73.161491 138.99999 70.427086 137.53516 68.441406 C 136.10292 66.423166 133.90361 65.410156 130.94141 65.410156 z M 105.95898 70.568359 C 105.95284 71.013259 105.94141 71.456844 105.94141 71.902344 L 105.94922 71.902344 C 105.94922 77.275064 106.58616 81.927321 107.85547 85.863281 C 109.15679 89.772521 110.92267 93.011431 113.16797 95.582031 C 115.4506 98.152671 118.11983 100.07052 121.17578 101.33984 C 124.23688 102.57712 127.52836 103.19922 131.04297 103.19922 C 134.62692 103.19922 137.84841 102.64693 140.70703 101.54297 C 143.57158 100.40369 146.01695 98.776036 148.03516 96.660156 C 150.05332 94.511796 151.59375 91.907496 152.66797 88.847656 C 153.77473 85.788056 154.33203 82.322859 154.33203 78.449219 C 154.33203 78.203948 154.31279 77.975879 154.30859 77.734375 C 154.19778 81.092693 153.65071 84.13091 152.66797 86.847656 C 151.59375 89.907496 150.05332 92.511796 148.03516 94.660156 C 146.01695 96.776036 143.57158 98.403689 140.70703 99.542969 C 137.84841 100.64693 134.62692 101.19922 131.04297 101.19922 C 127.52836 101.19922 124.23688 100.57712 121.17578 99.339844 C 118.11983 98.070524 115.4506 96.152671 113.16797 93.582031 C 110.92267 91.011431 109.15679 87.772521 107.85547 83.863281 C 106.63946 80.092609 106.01023 75.657495 105.95898 70.568359 z M 34.957031 104.18555 C 34.615033 104.41928 34.27628 104.67537 33.941406 104.98047 L 42.144531 114.70703 C 44.748655 112.36335 47.236997 110.56249 49.613281 109.29297 C 51.989513 108.02345 54.463568 107.38672 57.035156 107.38672 C 59.47656 107.38672 61.415416 108.05212 62.847656 109.38672 C 64.115136 110.54148 64.831581 112.10302 65.001953 114.0625 C 65.020351 113.71186 65.042969 113.36255 65.042969 113.00391 C 65.042969 110.59511 64.312484 108.72128 62.847656 107.38672 C 61.415416 106.05212 59.47656 105.38672 57.035156 105.38672 C 54.463568 105.38672 51.989513 106.02345 49.613281 107.29297 C 47.236997 108.56249 44.748655 110.36335 42.144531 112.70703 L 34.957031 104.18555 z M 195.12891 105.19922 L 193.95703 119.64453 C 194.0043 119.63419 194.07314 119.62361 194.12109 119.61328 L 195.12891 107.19922 L 217.94141 107.19922 L 217.94141 105.19922 L 195.12891 105.19922 z M 80.003906 113.62695 C 79.926009 116.16115 79.464695 118.60413 78.574219 120.94922 C 77.597647 123.48822 76.259074 125.99874 74.566406 128.47266 C 72.873738 130.91402 70.906256 133.35157 68.660156 135.79297 C 66.44664 138.20181 64.066344 140.66149 61.527344 143.16797 L 52.941406 152.61328 L 52.941406 153.29297 L 54.140625 153.29297 L 61.527344 145.16797 C 64.066344 142.66149 66.44664 140.20181 68.660156 137.79297 C 70.906256 135.35157 72.873738 132.91402 74.566406 130.47266 C 76.259074 127.99874 77.597647 125.48822 78.574219 122.94922 C 79.550735 120.37754 80.035156 117.69397 80.035156 114.89453 C 80.035156 114.46542 80.023965 114.04423 80.003906 113.62695 z M 181.94141 129.21484 L 181.94141 131.21484 L 185.36328 134.44141 C 185.98178 134.24621 186.72008 134.06502 187.56641 133.90234 C 188.41274 133.70714 189.28777 133.52592 190.19922 133.36328 C 191.14321 133.20048 192.08335 133.07026 193.02734 132.97266 C 194.00391 132.87506 194.91539 132.83203 195.76172 132.83203 C 200.41637 132.83203 203.85289 133.75784 206.06641 135.61328 C 208.10499 137.2679 209.20652 139.62684 209.39453 142.67578 C 209.4139 142.33016 209.43359 141.98478 209.43359 141.62109 C 209.43359 138.10553 208.31245 135.43628 206.06641 133.61328 C 203.85289 131.75784 200.41637 130.83203 195.76172 130.83203 C 194.91539 130.83203 194.00391 130.87506 193.02734 130.97266 C 192.08335 131.07026 191.14321 131.20048 190.19922 131.36328 C 189.28777 131.52592 188.41274 131.70714 187.56641 131.90234 C 186.72008 132.06502 185.98178 132.24621 185.36328 132.44141 L 181.94141 129.21484 z M 224.60156 141.36133 C 224.50492 144.82961 223.91451 147.9733 222.81641 150.79297 C 221.612 153.85281 219.83198 156.45707 217.48828 158.60547 C 215.14458 160.72131 212.23679 162.349 208.75391 163.48828 C 205.3033 164.6296 201.33044 165.19922 196.83984 165.19922 C 195.04786 165.19922 193.27417 165.12223 191.51953 164.95703 C 189.75956 164.79703 188.06805 164.54786 186.44141 164.22266 C 184.84677 163.92934 183.3143 163.54146 181.84766 163.05078 C 180.41835 162.56546 179.11473 161.9983 177.94141 161.34766 L 177.94141 163.34766 C 179.11473 163.9983 180.41835 164.56546 181.84766 165.05078 C 183.3143 165.54146 184.84677 165.92934 186.44141 166.22266 C 188.06805 166.54786 189.75956 166.79703 191.51953 166.95703 C 193.27417 167.12223 195.04786 167.19922 196.83984 167.19922 C 201.33044 167.19922 205.3033 166.6296 208.75391 165.48828 C 212.23679 164.349 215.14458 162.72131 217.48828 160.60547 C 219.83198 158.45707 221.612 155.85281 222.81641 152.79297 C 224.02082 149.70033 224.62109 146.2213 224.62109 142.34766 C 224.62109 142.01393 224.6116 141.68776 224.60156 141.36133 z M 34.136719 165.19922 L 34.136719 167.19922 L 82.035156 167.19922 L 82.035156 167.19141 L 82.035156 165.19922 L 34.136719 165.19922 z M 153.94141 167.38672 L 129.13672 229.19922 L 114.20898 229.19922 L 113.36328 231.19922 L 113.37109 231.19922 L 129.13672 231.19922 L 153.94141 169.38672 L 153.94141 167.38672 z M 105.94141 169.19922 L 105.94141 171.19922 L 137.9082 171.19922 L 138.75391 169.19922 L 105.94141 169.19922 z "
         transform="translate(0.25806097,-208)"
         id="path1128" />
    </g>
    <path
       style="color:#000000;display:inline;overflow:visible;visibility:visible;opacity:0.2;fill:#000000;fill-opacity:1;fill-rule:nonzero;stroke:none;stroke-width:1;marker:none;enable-background:accumulate"
       d="m 56.810792,31.174464 c -35.296731,0 -39.094874,-3.62603 -38.921884,-38.9941399 v -2 C 17.715918,25.548434 21.514061,29.174464 56.810792,29.174464 H 202.96703 c 35.29673,0 38.92188,-3.62561 38.92188,-38.9941399 v 2 c 0,35.3685299 -3.62515,38.9941399 -38.92188,38.9941399 z"
       id="path931-8"
       inkscape:connector-curvature="0"
       sodipodi:nodetypes="sccsscsss" />
    <path
       style="color:#000000;display:inline;overflow:visible;visibility:visible;opacity:0.3;fill:#ffffff;fill-opacity:1;fill-rule:nonzero;stroke:none;stroke-width:1;marker:none;enable-background:accumulate"
       d="m 56.805392,-192.82553 c -35.296728,0 -39.094869,3.62603 -38.921879,38.99414 v 2 c -0.17299,-35.36811 3.625151,-38.99414 38.921879,-38.99414 H 202.96163 c 35.29673,0 38.92188,3.62561 38.92188,38.99414 v -2 c 0,-35.36853 -3.62515,-38.99414 -38.92188,-38.99414 z"
       id="path931"
       inkscape:connector-curvature="0"
       sodipodi:nodetypes="sccsscsss" />
  </g>
</svg>
