<?xml version="1.0" encoding="UTF-8" standalone="no"?>
<svg
   xmlns:osb="http://www.openswatchbook.org/uri/2009/osb"
   xmlns:dc="http://purl.org/dc/elements/1.1/"
   xmlns:cc="http://creativecommons.org/ns#"
   xmlns:rdf="http://www.w3.org/1999/02/22-rdf-syntax-ns#"
   xmlns:svg="http://www.w3.org/2000/svg"
   xmlns="http://www.w3.org/2000/svg"
   xmlns:xlink="http://www.w3.org/1999/xlink"
   xmlns:sodipodi="http://sodipodi.sourceforge.net/DTD/sodipodi-0.dtd"
   xmlns:inkscape="http://www.inkscape.org/namespaces/inkscape"
   height="256"
   id="svg7384"
   version="1.1"
   width="256"
   sodipodi:docname="cairo-dock.svg"
   inkscape:version="0.92.3 (2405546, 2018-03-11)">
  <sodipodi:namedview
     pagecolor="#ffffff"
     bordercolor="#666666"
     borderopacity="1"
     objecttolerance="10"
     gridtolerance="10"
     guidetolerance="10"
     inkscape:pageopacity="0"
     inkscape:pageshadow="2"
     inkscape:window-width="1920"
     inkscape:window-height="1009"
     id="namedview23"
     showgrid="true"
     inkscape:zoom="3.2617188"
     inkscape:cx="128.14298"
     inkscape:cy="134.95301"
     inkscape:window-x="0"
     inkscape:window-y="34"
     inkscape:window-maximized="1"
     inkscape:current-layer="svg7384">
    <inkscape:grid
       type="xygrid"
       id="grid923" />
  </sodipodi:namedview>
  <metadata
     id="metadata20854">
    <rdf:RDF>
      <cc:Work
         rdf:about="">
        <dc:title></dc:title>
        <dc:format>image/svg+xml</dc:format>
        <dc:type
           rdf:resource="http://purl.org/dc/dcmitype/StillImage" />
      </cc:Work>
    </rdf:RDF>
  </metadata>
  <defs
     id="defs7386">
    <linearGradient
       id="linearGradient1871">
      <stop
         offset="0"
         id="stop1865"
         style="stop-color:#1463a5;stop-opacity:1" />
      <stop
         style="stop-color:#aee3f8;stop-opacity:0"
         id="stop1867"
         offset="0.75" />
      <stop
         style="stop-color:#aee3f8;stop-opacity:0.16"
         id="stop1869"
         offset="1" />
    </linearGradient>
    <linearGradient
       id="linearGradient5606"
       osb:paint="solid">
      <stop
         id="stop5608"
         offset="0"
         style="stop-color:#000000;stop-opacity:1;" />
    </linearGradient>
    <linearGradient
       id="linearGradient4526"
       osb:paint="solid">
      <stop
         id="stop4528"
         offset="0"
         style="stop-color:#ffffff;stop-opacity:1;" />
    </linearGradient>
    <linearGradient
       id="linearGradient3600-4"
       osb:paint="gradient">
      <stop
         id="stop3602-7"
         offset="0"
         style="stop-color:#f4f4f4;stop-opacity:1" />
      <stop
         id="stop3604-6"
         offset="1"
         style="stop-color:#dbdbdb;stop-opacity:1" />
    </linearGradient>
    <clipPath
       clipPathUnits="userSpaceOnUse"
       id="clipPath1094">
      <path
         style="display:inline;opacity:1;fill:url(#linearGradient1098);fill-opacity:1;stroke:none;stroke-width:2;stroke-linecap:round;stroke-linejoin:round;stroke-miterlimit:4;stroke-dasharray:none;stroke-dashoffset:0;stroke-opacity:1;enable-background:new"
         d="M 188.96875,43.999998 C 261.6174,43.999998 272,54.356613 272,126.9375 v 58.125 C 272,257.64309 261.6174,268 188.96875,268 h -73.9375 C 42.3826,268 32,257.64309 32,185.0625 v -58.125 C 32,54.356613 42.3826,43.999998 115.03125,43.999998 Z"
         id="path1096"
         inkscape:connector-curvature="0"
         sodipodi:nodetypes="sssssssss" />
    </clipPath>
    <clipPath
       clipPathUnits="userSpaceOnUse"
       id="clipPath1100">
      <path
         style="display:inline;opacity:1;fill:url(#linearGradient1104);fill-opacity:1;stroke:none;stroke-width:2;stroke-linecap:round;stroke-linejoin:round;stroke-miterlimit:4;stroke-dasharray:none;stroke-dashoffset:0;stroke-opacity:1;enable-background:new"
         d="M 188.96875,44 C 261.6174,44 272,54.356615 272,126.9375 v 58.125 C 272,257.64309 261.6174,268 188.96875,268 h -73.9375 C 42.3826,268 32,257.64309 32,185.0625 v -58.125 C 32,54.356615 42.3826,44 115.03125,44 Z"
         id="path1102"
         inkscape:connector-curvature="0"
         sodipodi:nodetypes="sssssssss" />
    </clipPath>
    <filter
       inkscape:collect="always"
       style="color-interpolation-filters:sRGB"
       id="filter11191"
       x="-0.012"
       width="1.024"
       y="-0.012"
       height="1.024">
      <feGaussianBlur
         inkscape:collect="always"
         stdDeviation="1.12"
         id="feGaussianBlur11193" />
    </filter>
    <filter
       inkscape:collect="always"
       style="color-interpolation-filters:sRGB"
       id="filter11210"
       x="-0.048"
       width="1.096"
       y="-0.048"
       height="1.096">
      <feGaussianBlur
         inkscape:collect="always"
         stdDeviation="4.48"
         id="feGaussianBlur11212" />
    </filter>
    <linearGradient
       id="linearGradient1490"
       x1="33.076"
       x2="91.624001"
       y1="210.425"
       y2="262.80499"
       gradientUnits="userSpaceOnUse"
       xlink:href="#linearGradient1488"
       gradientTransform="matrix(2.1947377,0,0,2.1923444,-10.836741,-394.1216)" />
    <linearGradient
       id="linearGradient1488">
      <stop
         style="stop-color:#ff8b00"
         id="stop1484"
         offset="0" />
      <stop
         style="stop-color:#ffda2c"
         id="stop1486"
         offset="1" />
    </linearGradient>
    <filter
       id="filter4460"
       width="1.026"
       height="1.023"
       x="-0.0099999998"
       y="-0.0099999998"
       style="color-interpolation-filters:sRGB">
      <feGaussianBlur
         id="feGaussianBlur7"
         stdDeviation="1.133" />
    </filter>
    <linearGradient
       id="linearGradient4413"
       x1="256"
       x2="256"
       y1="138"
       y2="375"
       gradientTransform="matrix(0.43877818,0,0,0.43877818,20.296981,11.211784)"
       gradientUnits="userSpaceOnUse">
      <stop
         style="stop-color:#000000;stop-opacity:0"
         id="stop10"
         offset="0" />
      <stop
         style="stop-color:#000000"
         id="stop12"
         offset=".505" />
      <stop
         style="stop-color:#000000;stop-opacity:0"
         id="stop14"
         offset="1" />
    </linearGradient>
    <linearGradient
       id="linearGradient950">
      <stop
         id="stop946"
         offset="0"
         style="stop-color:#9a9996;stop-opacity:1" />
      <stop
         id="stop948"
         offset="1"
         style="stop-color:#77767b;stop-opacity:1" />
    </linearGradient>
    <linearGradient
       xlink:href="#linearGradient950"
       id="linearGradient1001"
       gradientUnits="userSpaceOnUse"
       gradientTransform="matrix(1.8293937,-0.81599442,0.81599442,1.8293937,-3645.9624,100.02949)"
       x1="1660.8571"
       y1="806.29718"
       x2="1662.9901"
       y2="812.88245" />
    <clipPath
       id="clipPath5154"
       clipPathUnits="userSpaceOnUse">
      <circle
         style="fill:url(#radialGradient5158);fill-opacity:1;stroke:none"
         id="circle5156"
         cx="128"
         cy="924.36218"
         r="109.64706" />
    </clipPath>
    <clipPath
       id="clipPath977"
       clipPathUnits="userSpaceOnUse">
      <circle
         style="fill:url(#radialGradient5158);fill-opacity:1;stroke:none"
         id="circle975"
         cx="128"
         cy="924.36218"
         r="109.64706" />
    </clipPath>
    <clipPath
       id="clipPath4688"
       clipPathUnits="userSpaceOnUse">
      <path
         style="color:#000000;font-style:normal;font-variant:normal;font-weight:normal;font-stretch:normal;font-size:medium;line-height:normal;font-family:sans-serif;text-indent:0;text-align:start;text-decoration:none;text-decoration-line:none;letter-spacing:normal;word-spacing:normal;text-transform:none;writing-mode:lr-tb;direction:ltr;baseline-shift:baseline;text-anchor:start;display:inline;overflow:visible;visibility:visible;fill:url(#radialGradient4692);fill-opacity:1;fill-rule:nonzero;stroke:#a7003f;stroke-width:1;stroke-linecap:round;stroke-linejoin:round;stroke-miterlimit:4;stroke-dasharray:none;stroke-dashoffset:0;stroke-opacity:1;enable-background:accumulate"
         d="m 106.42383,889.60156 c -2.2448,-0.0524 -4.09304,1.75264 -4.09375,3.99805 v 32.64453 32.64453 c -4e-5,3.07923 3.33305,5.004 6,3.46485 l 28.26953,-16.32227 28.27148,-16.32227 c 2.66559,-1.54001 2.66559,-5.38772 0,-6.92773 l -28.27148,-16.32227 -28.26953,-16.32226 c -0.58054,-0.3353 -1.23603,-0.51932 -1.90625,-0.53516 z"
         id="path4690"
         inkscape:connector-curvature="0"
         sodipodi:nodetypes="ccccccccccc" />
    </clipPath>
    <clipPath
       id="clipPath4564"
       clipPathUnits="userSpaceOnUse">
      <circle
         r="109.64706"
         cy="924.36218"
         cx="128"
         id="circle4566"
         style="fill:url(#radialGradient4568);fill-opacity:1;stroke:none" />
    </clipPath>
    <clipPath
       id="clipPath6215"
       clipPathUnits="userSpaceOnUse">
      <path
         inkscape:connector-curvature="0"
         style="fill:url(#radialGradient6219);fill-opacity:1;stroke:none"
         d="m 105.17325,806.18572 c -3.06859,0.56361 -6.11393,1.24721 -9.129005,2.04923 -3.838255,1.06506 -7.62084,2.32142 -11.333578,3.76438 -3.712189,1.44307 -7.34989,3.07087 -10.899472,4.87732 -3.549153,1.80656 -7.005749,3.78947 -10.35684,5.94129 -3.351877,2.15253 -6.593991,4.47137 -9.714191,6.94783 -3.119992,2.47544 -6.114241,5.10535 -8.971529,7.87988 -0.367219,0.38909 -0.731819,0.78065 -1.093777,1.17464 2.60205,17.85956 16.832359,40.03752 30.863064,55.74236 -4.76734,8.84435 -7.265993,18.73329 -7.272057,28.78068 0.02104,2.87431 0.246096,5.7435 0.673482,8.58593 -20.257302,-9.18513 -43.077023,-26.53494 -52.798465,-47.36396 -0.440667,1.15171 -0.863474,2.31018 -1.268271,3.47498 -1.176789,3.80495 -2.162562,7.66637 -2.953625,11.56979 -0.79154,3.90311 -1.3874065,7.84335 -1.7853678,11.80598 -0.39733,3.96334 -0.5961891,7.94407 -0.5958321,11.92728 -4.394e-4,2.81936 0.098928,5.63785 0.2979155,8.45018 0.282275,3.97319 0.763088,7.92978 1.4406374,11.85493 0.625626,3.51826 1.408798,7.00668 2.347153,10.45473 16.778133,6.68355 43.114514,5.45001 63.748015,1.14301 6.818545,11.02763 16.987182,19.58379 29.018153,24.41667 -18.071844,12.93645 -44.490188,24.02095 -67.37308,22.03245 1.384097,1.665 2.813203,3.2921 4.285735,4.8794 2.774977,2.8571 5.691103,5.5737 8.737453,8.1395 3.046107,2.5658 6.218619,4.9777 9.505651,7.2266 3.287242,2.2488 6.684891,4.3319 10.180217,6.2413 3.495379,1.9096 7.084075,3.6433 10.752641,5.1944 3.66896,1.5509 7.413193,2.9174 11.218668,4.0942 1.438565,0.3959 2.884421,0.7648 4.336807,1.1066 14.138748,-11.1844 26.206378,-34.5828 32.780368,-54.56406 12.95816,-0.38251 25.45395,-4.90132 35.65955,-12.89544 2.15922,22.12638 -1.46693,50.5581 -14.64692,69.3832 3.06859,-0.5636 6.11393,-1.2473 9.129,-2.0493 3.83826,-1.0651 7.62084,-2.3214 11.33358,-3.7644 3.71219,-1.4431 7.34989,-3.0709 10.89947,-4.8773 3.54915,-1.8066 7.00575,-3.7895 10.35684,-5.9413 3.35188,-2.1525 6.59399,-4.4714 9.71419,-6.9478 3.11999,-2.4754 6.11424,-5.1054 8.97153,-7.8799 0.36722,-0.3891 0.73182,-0.7806 1.09378,-1.1746 -2.60204,-17.85957 -16.83236,-40.03755 -30.86307,-55.74238 4.76735,-8.84435 7.266,-18.7333 7.27207,-28.78069 -0.021,-2.8743 -0.24611,-5.74349 -0.6735,-8.58592 20.25731,9.18513 43.07704,26.53494 52.79848,47.36396 0.44067,-1.15171 0.86347,-2.31018 1.26827,-3.47499 1.17679,-3.80495 2.16256,-7.66636 2.95362,-11.56978 0.79154,-3.90311 1.38741,-7.84335 1.78537,-11.80598 0.39733,-3.96334 0.59619,-7.94408 0.59583,-11.92729 4.4e-4,-2.81936 -0.0989,-5.63784 -0.29791,-8.45017 -0.28228,-3.97319 -0.76309,-7.92978 -1.44064,-11.85493 -0.62776,-3.53416 -1.41449,-7.03823 -2.35779,-10.50154 -20.56165,-7.32804 -45.89823,-4.79548 -63.74906,-1.11372 -6.81835,-11.01918 -16.98234,-19.56874 -29.00647,-24.39915 18.07184,-12.93645 44.49019,-24.02091 67.37307,-22.03241 -1.38409,-1.66502 -2.8132,-3.2921 -4.28573,-4.87944 -2.77498,-2.85712 -5.6911,-5.57368 -8.73745,-8.13949 -3.04611,-2.56581 -6.21862,-4.97769 -9.50565,-7.22659 -3.28724,-2.24885 -6.68489,-4.3319 -10.18022,-6.24135 -3.49538,-1.90963 -7.08407,-3.64325 -10.75264,-5.19438 -3.66896,-1.55092 -7.41319,-2.91736 -11.21867,-4.09421 -1.42662,-0.39262 -2.86041,-0.75869 -4.30063,-1.09804 -14.14688,11.18369 -26.2293,34.57475 -32.8107,54.55552 -12.96018,0.38127 -25.4582,4.90015 -35.665394,12.89544 -2.15922,-22.12637 1.466931,-50.55807 14.646924,-69.38315 z"
         id="path6217"
         sodipodi:nodetypes="ccccccccccccccccccccccccccccccccccccccccccccccccccccccccccccccc" />
    </clipPath>
    <linearGradient
       id="linearGradient6338">
      <stop
         style="stop-color:#3b5e76;stop-opacity:1;"
         id="stop6340"
         offset="0" />
      <stop
         offset="0.75"
         id="stop16465"
         style="stop-color:#afc2d0;stop-opacity:0;" />
      <stop
         offset="1"
         id="stop16463"
         style="stop-color:#afc2d0;stop-opacity:0;" />
    </linearGradient>
    <linearGradient
       id="linearGradient2180">
      <stop
         style="stop-color:#fbffff;stop-opacity:1.0000000;"
         id="stop2182"
         offset="0.0000000" />
      <stop
         style="stop-color:#ffffff;stop-opacity:0.0000000;"
         id="stop2184"
         offset="1.0000000" />
    </linearGradient>
    <linearGradient
       id="linearGradient2130">
      <stop
         style="stop-color:#ffff00;stop-opacity:1.0000000;"
         id="stop2132"
         offset="0.0000000" />
      <stop
         style="stop-color:#ff2d00;stop-opacity:0.36862746;"
         id="stop2134"
         offset="1.0000000" />
    </linearGradient>
    <linearGradient
       id="linearGradient2112">
      <stop
         style="stop-color:#ff3500;stop-opacity:1.0000000;"
         id="stop2114"
         offset="0.0000000" />
      <stop
         style="stop-color:#ffff00;stop-opacity:0.36904761;"
         id="stop2116"
         offset="1.0000000" />
    </linearGradient>
    <linearGradient
       id="linearGradient2088">
      <stop
         style="stop-color:#fb0000;stop-opacity:1.0000000;"
         id="stop2090"
         offset="0.0000000" />
      <stop
         style="stop-color:#ff8f00;stop-opacity:0.015686275;"
         id="stop2092"
         offset="1.0000000" />
    </linearGradient>
    <linearGradient
       y2="66.000511"
       x2="364.63037"
       y1="66.000511"
       x1="105.91275"
       gradientTransform="matrix(0.68682789,0,0,0.88260629,-84.236178,216.17178)"
       gradientUnits="userSpaceOnUse"
       id="linearGradient2963"
       xlink:href="#linearGradient6338"
       inkscape:collect="always" />
    <radialGradient
       id="_rgradient_2"
       fx="0"
       fy="0"
       cx="0.5"
       cy="0.5"
       r="1"
       gradientTransform="matrix(219.306,0,0,219.106,889.484,2688.77)"
       gradientUnits="userSpaceOnUse">
      <stop
         offset="0%"
         stop-opacity="1"
         style="stop-color:rgb(255,241,1)"
         id="stop7" />
      <stop
         offset="100%"
         stop-opacity="1"
         style="stop-color:rgb(230,218,26)"
         id="stop9" />
    </radialGradient>
    <linearGradient
       id="_lgradient_6"
       x1="0.0068410817"
       y1="0.74320972"
       x2="0.99449134"
       y2="-0.033491742"
       gradientTransform="matrix(102.996,0,0,145.931,32.109,38.603)"
       gradientUnits="userSpaceOnUse">
      <stop
         offset="0%"
         stop-opacity="1"
         style="stop-color:rgb(207,220,94)"
         id="stop16" />
      <stop
         offset="100%"
         stop-opacity="1"
         style="stop-color:rgb(191,202,101)"
         id="stop18" />
    </linearGradient>
    <linearGradient
       id="_lgradient_7"
       x1="0.0068411035"
       y1="0.74320912"
       x2="0.99449098"
       y2="-0.033492789"
       gradientTransform="matrix(95.677,0,0,94.589,32.947,32.8)"
       gradientUnits="userSpaceOnUse">
      <stop
         offset="0%"
         stop-opacity="1"
         style="stop-color:rgb(207,220,94)"
         id="stop25" />
      <stop
         offset="100%"
         stop-opacity="1"
         style="stop-color:rgb(191,202,101)"
         id="stop27" />
    </linearGradient>
    <linearGradient
       id="_lgradient_8"
       x1="0.32033959"
       y1="0.90896815"
       x2="0.81914914"
       y2="0.011343141"
       gradientTransform="matrix(156.952,0,0,218.856,32.701,32.018)"
       gradientUnits="userSpaceOnUse">
      <stop
         offset="0%"
         stop-opacity="1"
         style="stop-color:rgb(217,25,99)"
         id="stop32" />
      <stop
         offset="100%"
         stop-opacity="1"
         style="stop-color:rgb(152,18,69)"
         id="stop34" />
    </linearGradient>
  </defs>
  <g
     id="layer9"
     label="status"
     style="display:inline"
     transform="translate(-773.00022,327)" />
  <g
     id="layer2"
     style="display:inline"
     transform="translate(-532.00002,-40.000001)" />
  <g
     id="layer4"
     style="display:inline"
     transform="translate(-532.00002,-40.000001)" />
  <g
     id="g1812"
     style="display:inline"
     transform="translate(-532.00002,-40.000001)" />
  <g
     id="g6217"
     style="display:inline"
     transform="translate(-532.00002,-40.000001)" />
  <g
     id="layer3"
     style="display:inline"
     transform="translate(-532.00002,-40.000001)" />
  <g
     id="layer1"
     style="display:inline"
     transform="translate(-532.00002,-40.000001)" />
  <circle
     style="display:inline;opacity:0.1;fill:#000000;fill-opacity:1;stroke:none;stroke-width:1;stroke-linecap:round;stroke-linejoin:round;stroke-miterlimit:4;stroke-dasharray:none;stroke-opacity:1;filter:url(#filter11210);enable-background:new"
     id="path11042-0"
     r="112"
     cy="127.24801"
     cx="128.752" />
  <circle
     style="display:inline;opacity:0.1;fill:#000000;fill-opacity:1;stroke:none;stroke-width:1;stroke-linecap:round;stroke-linejoin:round;stroke-miterlimit:4;stroke-dasharray:none;stroke-opacity:1;filter:url(#filter11191);enable-background:new"
     id="path11042-6"
     r="112"
     cy="125.24799"
     cx="128.752" />
  <circle
     style="display:inline;opacity:0.1;fill:#000000;fill-opacity:1;stroke:none;stroke-width:0.99999988;stroke-linecap:round;stroke-linejoin:round;stroke-miterlimit:4;stroke-dasharray:none;stroke-opacity:1;enable-background:new"
     id="path11042-7"
     cy="123.24799"
     cx="128.752"
     r="113.99999" />
  <g
     transform="matrix(1.0213154,0,0,1.022145,-15.930094,-21.460652)"
     style="isolation:isolate"
     id="g39">
    <radialGradient
       id="radialGradient884"
       fx="0"
       fy="0"
       cx="0.5"
       cy="0.5"
       r="1"
       gradientTransform="matrix(219.306,0,0,219.106,889.484,2688.77)"
       gradientUnits="userSpaceOnUse">
      <stop
         offset="0%"
         stop-opacity="1"
         style="stop-color:rgb(255,241,1)"
         id="stop880" />
      <stop
         offset="100%"
         stop-opacity="1"
         style="stop-color:rgb(230,218,26)"
         id="stop882" />
    </radialGradient>
    <path
       style="fill:url(#_rgradient_2);fill-rule:evenodd"
       inkscape:connector-curvature="0"
       d="m 141.669,32 c 60.565,0 109.656,49.059 109.656,109.596 0,60.515 -49.113,109.551 -109.656,109.551 -60.57,0 -109.651,-49.045 -109.651,-109.551 C 32.018,81.086 81.118,32 141.669,32 Z"
       id="path12" />
    <path
       style="fill:#88a03e;fill-rule:evenodd"
       inkscape:connector-curvature="0"
       d="m 249.413,161.938 c -12.108,8.895 -24.534,18.79 -35.367,28.945 -24.598,23.092 -38.749,41.165 -54.484,58.786 45.403,-7.435 81.385,-42.724 89.851,-87.731 z"
       id="path14" />
    <linearGradient
       id="linearGradient892"
       x1="0.0068410817"
       y1="0.74320972"
       x2="0.99449134"
       y2="-0.033491742"
       gradientTransform="matrix(102.996,0,0,145.931,32.109,38.603)"
       gradientUnits="userSpaceOnUse">
      <stop
         offset="0%"
         stop-opacity="1"
         style="stop-color:rgb(207,220,94)"
         id="stop888" />
      <stop
         offset="100%"
         stop-opacity="1"
         style="stop-color:rgb(191,202,101)"
         id="stop890" />
    </linearGradient>
    <path
       style="fill:url(#_lgradient_6);fill-rule:evenodd"
       inkscape:connector-curvature="0"
       d="m 103.89,66.13 -71.781,80.341 c 0.592,13.461 3.605,26.285 8.63,38.064 31.453,-48.65 62.905,-97.296 94.367,-145.932 -10.406,9.186 -20.815,18.372 -31.216,27.513"
       id="path21" />
    <path
       style="fill:#88a03e;fill-rule:evenodd"
       inkscape:connector-curvature="0"
       d="M 32.746,128.89 C 32.273,133.056 32,137.281 32,141.578 c 0,1.637 0.046,3.265 0.123,4.893 L 103.903,66.13 C 80.189,87.048 56.475,107.976 32.751,128.886"
       id="path23" />
    <linearGradient
       id="linearGradient900"
       x1="0.0068411035"
       y1="0.74320912"
       x2="0.99449098"
       y2="-0.033492789"
       gradientTransform="matrix(95.677,0,0,94.589,32.947,32.8)"
       gradientUnits="userSpaceOnUse">
      <stop
         offset="0%"
         stop-opacity="1"
         style="stop-color:rgb(207,220,94)"
         id="stop896" />
      <stop
         offset="100%"
         stop-opacity="1"
         style="stop-color:rgb(191,202,101)"
         id="stop898" />
    </linearGradient>
    <path
       style="fill:url(#_lgradient_7);fill-rule:evenodd"
       inkscape:connector-curvature="0"
       d="M 32.947,127.39 C 64.854,95.857 96.716,64.329 128.624,32.8 78.874,38.699 39.365,77.844 32.947,127.39 Z"
       id="path30" />
    <linearGradient
       id="linearGradient907"
       x1="0.32033959"
       y1="0.90896815"
       x2="0.81914914"
       y2="0.011343141"
       gradientTransform="matrix(156.952,0,0,218.856,32.701,32.018)"
       gradientUnits="userSpaceOnUse">
      <stop
         offset="0%"
         stop-opacity="1"
         style="stop-color:rgb(217,25,99)"
         id="stop903" />
      <stop
         offset="100%"
         stop-opacity="1"
         style="stop-color:rgb(152,18,69)"
         id="stop905" />
    </linearGradient>
    <path
       style="fill:url(#_lgradient_8);fill-rule:evenodd"
       inkscape:connector-curvature="0"
       d="m 128.405,32.8 c -31.907,31.533 -63.678,63.057 -95.567,94.59 -0.064,0.5 -0.078,1 -0.137,1.5 23.714,-20.918 47.461,-41.837 71.175,-62.756 10.401,-9.186 20.829,-18.372 31.225,-27.513 -31.452,48.632 -62.905,97.273 -94.357,145.932 l 0.023,0.027 c 0.887,2.092 1.866,4.138 2.885,6.157 0.214,0.428 0.433,0.846 0.651,1.265 0.993,1.919 2.03,3.811 3.141,5.657 l 0.173,0.318 c 1.206,1.992 2.476,3.943 3.796,5.853 l 0.651,0.909 c 1.17,1.656 2.39,3.275 3.641,4.866 0.214,0.259 0.41,0.519 0.619,0.773 1.484,1.833 3.014,3.625 4.598,5.344 l 0.113,0.113 c 1.53,1.66 3.123,3.275 4.748,4.821 l 0.746,0.705 c 3.428,3.229 7.055,6.23 10.879,9.004 l 0.546,0.386 c 1.903,1.365 3.842,2.661 5.826,3.889 l 0.06,0.045 c 4.173,2.592 8.534,4.911 13.063,6.935 l 0.296,0.137 c 4.524,2.001 9.194,3.706 14.028,5.093 l 0.2,0.068 c 7.311,2.069 14.93,3.433 22.805,3.956 0.3,-62.988 22.012,-141.652 55.421,-207.837 -14.492,-7.053 -30.983,-11.019 -48.189,-11.019 -2.617,0 -10.76,0.409 -13.045,0.801"
       id="path37" />
  </g>
  <path
     style="display:inline;opacity:0.3;fill:#ffffff;fill-opacity:1;stroke:none;stroke-width:1;stroke-linecap:round;stroke-linejoin:round;stroke-miterlimit:4;stroke-dasharray:none;stroke-opacity:1;enable-background:new"
     d="M 128.752,11.248006 A 112,112 0 0 0 16.751999,123.248 112,112 0 0 0 16.793019,124.41792 112,112 0 0 1 128.752,13.248006 112,112 0 0 1 240.71098,124.07808 a 112,112 0 0 0 0.041,-0.83008 112,112 0 0 0 -112,-111.999994 z"
     id="path11042-1"
     inkscape:connector-curvature="0" />
  <path
     inkscape:connector-curvature="0"
     style="display:inline;opacity:0.2;fill:#000000;fill-opacity:1;stroke:none;stroke-width:1;stroke-linecap:round;stroke-linejoin:round;stroke-miterlimit:4;stroke-dasharray:none;stroke-opacity:1;enable-background:new"
     d="m 128.752,235.248 a 112,112 0 0 1 -112.000001,-112 112,112 0 0 1 0.04102,-1.16992 A 112,112 0 0 0 128.752,233.248 112,112 0 0 0 240.71098,122.41792 a 112,112 0 0 1 0.041,0.83008 112,112 0 0 1 -112,112 z"
     id="path11042-1-7" />
</svg>
