<?xml version="1.0" encoding="UTF-8" standalone="no"?>
<svg
   xmlns:osb="http://www.openswatchbook.org/uri/2009/osb"
   xmlns:dc="http://purl.org/dc/elements/1.1/"
   xmlns:cc="http://creativecommons.org/ns#"
   xmlns:rdf="http://www.w3.org/1999/02/22-rdf-syntax-ns#"
   xmlns:svg="http://www.w3.org/2000/svg"
   xmlns="http://www.w3.org/2000/svg"
   xmlns:xlink="http://www.w3.org/1999/xlink"
   xmlns:sodipodi="http://sodipodi.sourceforge.net/DTD/sodipodi-0.dtd"
   xmlns:inkscape="http://www.inkscape.org/namespaces/inkscape"
   height="256"
   id="svg7384"
   version="1.1"
   width="256"
   sodipodi:docname="krita.svg"
   inkscape:version="0.92.3 (2405546, 2018-03-11)">
  <sodipodi:namedview
     pagecolor="#ffffff"
     bordercolor="#666666"
     borderopacity="1"
     objecttolerance="10"
     gridtolerance="10"
     guidetolerance="10"
     inkscape:pageopacity="0"
     inkscape:pageshadow="2"
     inkscape:window-width="1920"
     inkscape:window-height="1009"
     id="namedview23"
     showgrid="false"
     inkscape:zoom="2.0875"
     inkscape:cx="-50.624854"
     inkscape:cy="160.95808"
     inkscape:window-x="0"
     inkscape:window-y="34"
     inkscape:window-maximized="1"
     inkscape:current-layer="g1662" />
  <metadata
     id="metadata20854">
    <rdf:RDF>
      <cc:Work
         rdf:about="">
        <dc:title />
        <dc:format>image/svg+xml</dc:format>
        <dc:type
           rdf:resource="http://purl.org/dc/dcmitype/StillImage" />
      </cc:Work>
    </rdf:RDF>
  </metadata>
  <defs
     id="defs7386">
    <linearGradient
       inkscape:collect="always"
       id="linearGradient1648">
      <stop
         style="stop-color:#5995e8;stop-opacity:1"
         offset="0"
         id="stop1644" />
      <stop
         style="stop-color:#63a0e6;stop-opacity:0.01"
         offset="1"
         id="stop1646" />
    </linearGradient>
    <linearGradient
       id="linearGradient5606"
       osb:paint="solid">
      <stop
         id="stop5608"
         offset="0"
         style="stop-color:#000000;stop-opacity:1;" />
    </linearGradient>
    <linearGradient
       id="linearGradient4526"
       osb:paint="solid">
      <stop
         id="stop4528"
         offset="0"
         style="stop-color:#ffffff;stop-opacity:1;" />
    </linearGradient>
    <linearGradient
       id="linearGradient3600-4"
       osb:paint="gradient">
      <stop
         id="stop3602-7"
         offset="0"
         style="stop-color:#f4f4f4;stop-opacity:1" />
      <stop
         id="stop3604-6"
         offset="1"
         style="stop-color:#dbdbdb;stop-opacity:1" />
    </linearGradient>
    <clipPath
       clipPathUnits="userSpaceOnUse"
       id="clipPath1094">
      <path
         style="display:inline;opacity:1;fill:url(#linearGradient1098);fill-opacity:1;stroke:none;stroke-width:2;stroke-linecap:round;stroke-linejoin:round;stroke-miterlimit:4;stroke-dasharray:none;stroke-dashoffset:0;stroke-opacity:1;enable-background:new"
         d="M 188.96875,43.999998 C 261.6174,43.999998 272,54.356613 272,126.9375 v 58.125 C 272,257.64309 261.6174,268 188.96875,268 h -73.9375 C 42.3826,268 32,257.64309 32,185.0625 v -58.125 C 32,54.356613 42.3826,43.999998 115.03125,43.999998 Z"
         id="path1096"
         inkscape:connector-curvature="0"
         sodipodi:nodetypes="sssssssss" />
    </clipPath>
    <clipPath
       clipPathUnits="userSpaceOnUse"
       id="clipPath1100">
      <path
         style="display:inline;opacity:1;fill:url(#linearGradient1104);fill-opacity:1;stroke:none;stroke-width:2;stroke-linecap:round;stroke-linejoin:round;stroke-miterlimit:4;stroke-dasharray:none;stroke-dashoffset:0;stroke-opacity:1;enable-background:new"
         d="M 188.96875,44 C 261.6174,44 272,54.356615 272,126.9375 v 58.125 C 272,257.64309 261.6174,268 188.96875,268 h -73.9375 C 42.3826,268 32,257.64309 32,185.0625 v -58.125 C 32,54.356615 42.3826,44 115.03125,44 Z"
         id="path1102"
         inkscape:connector-curvature="0"
         sodipodi:nodetypes="sssssssss" />
    </clipPath>
    <filter
       inkscape:collect="always"
       style="color-interpolation-filters:sRGB"
       id="filter11191"
       x="-0.012"
       width="1.024"
       y="-0.012"
       height="1.024">
      <feGaussianBlur
         inkscape:collect="always"
         stdDeviation="1.12"
         id="feGaussianBlur11193" />
    </filter>
    <filter
       inkscape:collect="always"
       style="color-interpolation-filters:sRGB"
       id="filter11210"
       x="-0.048"
       width="1.096"
       y="-0.048"
       height="1.096">
      <feGaussianBlur
         inkscape:collect="always"
         stdDeviation="4.48"
         id="feGaussianBlur11212" />
    </filter>
    <linearGradient
       inkscape:collect="always"
       xlink:href="#linearGradient2422"
       id="linearGradient900"
       gradientUnits="userSpaceOnUse"
       x1="62.612"
       y1="164.32201"
       x2="64.120003"
       y2="248.312" />
    <linearGradient
       id="linearGradient2422">
      <stop
         id="stop2418"
         offset="0"
         style="stop-color:#ff10ff;stop-opacity:0.98823529" />
      <stop
         id="stop2420"
         offset="1"
         style="stop-color:#ff0bff;stop-opacity:0.00952381" />
    </linearGradient>
    <linearGradient
       id="linearGradient2430"
       x1="52.153"
       x2="20.065001"
       y1="242.924"
       y2="286.02802"
       gradientTransform="translate(-298.99994,-171.00005)"
       gradientUnits="userSpaceOnUse"
       xlink:href="#linearGradient2436" />
    <linearGradient
       id="linearGradient2436">
      <stop
         style="stop-color:#fff755;stop-opacity:0"
         id="stop2432"
         offset="0" />
      <stop
         style="stop-color:#fffa3b;stop-opacity:0.99215686"
         id="stop2434"
         offset="1" />
    </linearGradient>
    <linearGradient
       id="linearGradient2440"
       x1="61.344002"
       x2="26.403999"
       y1="242.28999"
       y2="278.42099"
       gradientTransform="translate(2.779541e-6,1.2779541e-5)"
       gradientUnits="userSpaceOnUse"
       xlink:href="#linearGradient2446" />
    <linearGradient
       id="linearGradient2446">
      <stop
         id="stop2442"
         offset="0"
         style="stop-color:#2ffffe;stop-opacity:0" />
      <stop
         id="stop2444"
         offset="1"
         style="stop-color:#14ffff;stop-opacity:0.88627452" />
    </linearGradient>
    <linearGradient
       inkscape:collect="always"
       xlink:href="#linearGradient2422"
       id="linearGradient906"
       gradientUnits="userSpaceOnUse"
       x1="62.612"
       y1="164.32201"
       x2="64.120003"
       y2="248.312" />
    <linearGradient
       inkscape:collect="always"
       xlink:href="#linearGradient1648"
       id="linearGradient1650"
       x1="-141.7964"
       y1="43.305389"
       x2="-333.89221"
       y2="34.682636"
       gradientUnits="userSpaceOnUse"
       gradientTransform="translate(319.04192,96.76646)" />
    <linearGradient
       inkscape:collect="always"
       xlink:href="#linearGradient1648"
       id="linearGradient1664"
       gradientUnits="userSpaceOnUse"
       gradientTransform="translate(319.96288,94.233825)"
       x1="-141.7964"
       y1="43.305389"
       x2="-333.89221"
       y2="34.682636" />
  </defs>
  <g
     id="layer9"
     label="status"
     style="display:inline"
     transform="translate(-773.00022,327)" />
  <g
     id="layer2"
     style="display:inline"
     transform="translate(-532.00002,-40.000001)" />
  <g
     id="layer4"
     style="display:inline"
     transform="translate(-532.00002,-40.000001)" />
  <g
     id="g1812"
     style="display:inline"
     transform="translate(-532.00002,-40.000001)" />
  <g
     id="g6217"
     style="display:inline"
     transform="translate(-532.00002,-40.000001)" />
  <g
     id="layer3"
     style="display:inline"
     transform="translate(-532.00002,-40.000001)" />
  <g
     id="layer1"
     style="display:inline"
     transform="translate(-532.00002,-40.000001)" />
  <circle
     style="display:inline;opacity:0.1;fill:#000000;fill-opacity:1;stroke:none;stroke-width:1;stroke-linecap:round;stroke-linejoin:round;stroke-miterlimit:4;stroke-dasharray:none;stroke-opacity:1;filter:url(#filter11210);enable-background:new"
     id="path11042-0"
     r="112"
     cy="127.24801"
     cx="128.752" />
  <circle
     style="display:inline;opacity:0.1;fill:#000000;fill-opacity:1;stroke:none;stroke-width:1;stroke-linecap:round;stroke-linejoin:round;stroke-miterlimit:4;stroke-dasharray:none;stroke-opacity:1;filter:url(#filter11191);enable-background:new"
     id="path11042-6"
     r="112"
     cy="125.24799"
     cx="128.752" />
  <circle
     style="display:inline;opacity:0.1;fill:#000000;fill-opacity:1;stroke:none;stroke-width:0.99999988;stroke-linecap:round;stroke-linejoin:round;stroke-miterlimit:4;stroke-dasharray:none;stroke-opacity:1;enable-background:new"
     id="path11042-7"
     cy="123.24799"
     cx="128.752"
     r="113.99999" />
  <circle
     style="display:inline;opacity:1;fill:#ffffff;fill-opacity:1;stroke:none;stroke-width:1;stroke-linecap:round;stroke-linejoin:round;stroke-miterlimit:4;stroke-dasharray:none;stroke-opacity:1;enable-background:new"
     id="path11042"
     r="112"
     cy="123.24799"
     cx="128.752" />
  <g
     style="enable-background:new"
     id="layer9-3"
     transform="matrix(2.0740741,0,0,2.0740741,-3.9887435,-364.15942)">
    <circle
       id="ellipse2424"
       cx="64"
       cy="235"
       r="0"
       style="fill:url(#linearGradient906)" />
    <circle
       cx="-235"
       cy="64"
       r="54"
       transform="rotate(-90)"
       style="fill:url(#linearGradient2430)"
       id="circle69" />
    <circle
       style="fill:url(#linearGradient2440)"
       cx="64"
       cy="235"
       r="54"
       id="circle71" />
    <circle
       style="fill:url(#linearGradient900)"
       cx="64"
       cy="235"
       r="54"
       id="circle73" />
  </g>
  <path
     style="display:inline;opacity:0.3;fill:#ffffff;fill-opacity:1;stroke:none;stroke-width:1;stroke-linecap:round;stroke-linejoin:round;stroke-miterlimit:4;stroke-dasharray:none;stroke-opacity:1;enable-background:new"
     d="M 128.752,11.248006 A 112,112 0 0 0 16.751999,123.248 112,112 0 0 0 16.793019,124.41792 112,112 0 0 1 128.752,13.248006 112,112 0 0 1 240.71098,124.07808 a 112,112 0 0 0 0.041,-0.83008 112,112 0 0 0 -112,-111.999994 z"
     id="path11042-1"
     inkscape:connector-curvature="0" />
  <path
     inkscape:connector-curvature="0"
     style="display:inline;opacity:0.2;fill:#000000;fill-opacity:1;stroke:none;stroke-width:1;stroke-linecap:round;stroke-linejoin:round;stroke-miterlimit:4;stroke-dasharray:none;stroke-opacity:1;enable-background:new"
     d="m 128.752,235.248 a 112,112 0 0 1 -112.000001,-112 112,112 0 0 1 0.04102,-1.16992 A 112,112 0 0 0 128.752,233.248 112,112 0 0 0 240.71098,122.41792 a 112,112 0 0 1 0.041,0.83008 112,112 0 0 1 -112,112 z"
     id="path11042-1-7" />
  <g
     id="g1662"
     transform="matrix(0.70592923,0,0,0.70592923,62.827384,73.813018)">
    <path
       sodipodi:nodetypes="cczzzzzcczzc"
       inkscape:connector-curvature="0"
       id="path1642"
       d="m -22.552093,87.239825 c 17.2643603,36.266055 66.11848,56.467135 96.28742,57.485025 14.86081,-0.0446 30.776773,-3.86851 44.071863,-9.58084 13.29509,-5.71233 26.71582,-22.49711 40.71855,-20.11977 14.00273,2.37734 16.72673,20.39173 19.64073,31.61677 2.914,11.22504 -0.77395,19.70712 -3.3533,25.86827 -2.57935,6.16115 -2.42232,6.37966 -8.62275,11.01796 -6.20043,4.6383 -20.84612,9.27065 -30.17964,11.97604 -59.897943,15.03655 -121.936043,-17.04076 -150.419163,-68.98203 -6.42452,-11.95737 -11.46919,-26.35415 -12.45509,-34.011965 -0.9859,-7.65782 -1.6128,-9.38178 0.95808,-10.05988 2.57088,-0.6781 3.59282,2.87425 3.3533,4.79042 z"
       style="fill:url(#linearGradient1664);fill-opacity:1;stroke:none;stroke-width:1px;stroke-linecap:butt;stroke-linejoin:miter;stroke-opacity:1" />
    <path
       style="opacity:0.2;fill:#000000;fill-opacity:1;stroke:none;stroke-width:1px;stroke-linecap:butt;stroke-linejoin:miter;stroke-opacity:1"
       d="m 120.67249,64.465205 c 1.91616,0.95809 37.36527,36.407195 37.36527,36.407195 l 3.35329,4.31138 c 0,0 -14.37126,21.07784 -16.76647,19.16168 C 142.22937,122.42929 97.199444,90.333479 97.199444,90.333479 90.678124,77.307845 108.4137,58.528875 120.67249,64.465205 Z"
       id="path1666"
       inkscape:connector-curvature="0"
       sodipodi:nodetypes="cccccc" />
    <path
       style="opacity:0.2;fill:#180000;fill-opacity:1;stroke:none;stroke-width:1px;stroke-linecap:butt;stroke-linejoin:miter;stroke-opacity:1"
       d="m -76.153067,-80.488449 c 21.47842,12.763076 60.5395,37.12516 60.5395,37.12516 0,0 40.16866,24.294753 52.83643,32.266595 12.66776,7.971842 14.42328,8.668474 25.03647,15.086769 10.61318,6.418296 23.46674,16.593385 23.46674,16.593385 0,0 13.020791,11.468863 17.009687,16.204355 3.9889,4.735491 7.42464,9.215321 9.93967,14.081191 2.51503,4.86587 5.71621,14.517157 5.71621,14.517157 l -16.38369,28.307804 c 0,0 -5.884137,1.65296 -13.275857,0.63811 -7.39172,-1.01486 -18.16929,-6.23556 -25.70474,-10.28277 -7.53545,-4.047204 -11.12653,-6.33595 -19.4379,-13.32394 -8.31137,-6.987991 -16.41871,-15.754522 -29.68549,-29.296469 -6.1262999,-6.25336 -16.8535298,-18.538782 -27.2566,-29.636638 -12.12527,-12.935074 -23.60019,-24.361826 -23.60019,-24.361826 0,0 -33.4884,-34.461938 -50.01415,-53.304392 -6.02555,-9.157819 2.47067,-17.640083 10.81391,-14.614491 z"
       id="path1668"
       inkscape:connector-curvature="0"
       sodipodi:nodetypes="cczzczzcczzzssccc" />
    <path
       sodipodi:nodetypes="cczzczzcczzzssccc"
       inkscape:connector-curvature="0"
       id="path1656"
       d="m -73.434241,-83.207275 c 21.47842,12.763076 60.5395,37.12516 60.5395,37.12516 0,0 40.16866,24.294753 52.83643,32.266595 12.66776,7.9718421 14.42328,8.6684741 25.03647,15.0867691 10.61318,6.418296 23.46674,16.5933849 23.46674,16.5933849 0,0 13.020791,11.468863 17.009691,16.204355 3.9889,4.735491 7.42464,9.215321 9.93967,14.081191 2.51503,4.86587 5.71621,14.517157 5.71621,14.517157 l -16.38369,28.307804 c 0,0 -5.884141,1.65296 -13.275861,0.63811 -7.39172,-1.01486 -18.16929,-6.23556 -25.70474,-10.28277 -7.53545,-4.047204 -11.12653,-6.33595 -19.4379,-13.32394 -8.31137,-6.987991 -16.41871,-15.754522 -29.68549,-29.296469 -6.1263,-6.25336 -16.8535299,-18.538782 -27.2566,-29.6366379 -12.12527,-12.935074 -23.60019,-24.3618261 -23.60019,-24.3618261 0,0 -33.4884,-34.461938 -50.01415,-53.304392 -6.02555,-9.157819 2.47067,-17.640083 10.81391,-14.614491 z"
       style="fill:#494949;fill-opacity:1;stroke:none;stroke-width:1px;stroke-linecap:butt;stroke-linejoin:miter;stroke-opacity:1" />
    <path
       sodipodi:nodetypes="cccccc"
       inkscape:connector-curvature="0"
       id="path1652"
       d="m 121.11047,62.667337 c 1.91616,0.95809 37.36527,36.407194 37.36527,36.407194 l 3.35329,4.311379 c 0,0 -14.37126,21.07784 -16.76647,19.16168 C 142.66735,120.63142 97.637409,88.535611 97.637409,88.535611 91.116089,75.509977 108.85168,56.731007 121.11047,62.667337 Z"
       style="fill:#bfbebf;fill-opacity:1;stroke:none;stroke-width:1px;stroke-linecap:butt;stroke-linejoin:miter;stroke-opacity:1" />
    <path
       sodipodi:nodetypes="csssssc"
       inkscape:connector-curvature="0"
       id="path1654"
       d="m 163.35248,181.96031 c 3.92757,-7.69867 2.41927,-16.17171 -4.71877,-26.50828 -13.30017,-19.25991 -15.98059,-24.6234 -16.45096,-32.9182 -0.46366,-8.17644 5.96708,-18.33446 14.29743,-22.584289 16.5865,-8.4618 37.83479,11.463759 37.83479,35.479529 0,17.82282 -9.53306,34.08475 -28.09439,47.92467 -4.84784,3.6147 -5.30881,3.39074 -2.8681,-1.39343 z"
       style="fill:#000000" />
  </g>
</svg>
