<svg height="256" viewBox="0 0 67.73 67.73" width="256" xmlns="http://www.w3.org/2000/svg" xmlns:xlink="http://www.w3.org/1999/xlink"><linearGradient id="a" gradientUnits="userSpaceOnUse" x1="48.50461" x2="41.783234" y1="11.951899" y2="18.809672"><stop offset="0" stop-color="#616161"/><stop offset="1" stop-color="#898989"/></linearGradient><linearGradient id="b" gradientUnits="userSpaceOnUse" x1="48.50461" x2="41.783234" y1="11.9519" y2="18.809673"><stop offset="0" stop-color="#259dd1"/><stop offset="1" stop-color="#75b4d1"/></linearGradient><filter id="c" color-interpolation-filters="sRGB" height="1.072" width="1.072" x="-.036" y="-.036"><feGaussianBlur stdDeviation=".99"/></filter><radialGradient id="d" cx="179.99261" cy="103.2822" gradientTransform="matrix(1.3687341 -.00000021 .0000002 1.3528551 -121.02851 -70.900578)" gradientUnits="userSpaceOnUse" r="35.068905"><stop offset="0"/><stop offset="1" stop-opacity="0"/></radialGradient><filter id="e" color-interpolation-filters="sRGB" height="1.144" width="1.144" x="-.072" y="-.072"><feGaussianBlur stdDeviation="1.98"/></filter><linearGradient id="f" gradientTransform="matrix(0 -.10703877 .10352955 0 4.907275 59.574556)" gradientUnits="userSpaceOnUse" x1="-2.206897" x2="494.34482" y1="386.30795" y2="169.68051"><stop offset="0" stop-color="#f2f2f2"/><stop offset="1" stop-color="#f9f9f9"/></linearGradient><linearGradient id="g" gradientTransform="matrix(0 -.11988342 .11987999 0 .362762 62.749399)" gradientUnits="userSpaceOnUse" x1="494.34482" x2="0" y1="172.05988" y2="383.92801"><stop offset="0" stop-color="#333"/><stop offset="1" stop-color="#666"/></linearGradient><linearGradient id="h" gradientUnits="userSpaceOnUse" x1="88" x2="488" y1="88" y2="488"><stop offset="0" stop-opacity=".588235"/><stop offset=".88" stop-opacity="0"/><stop offset="1"/></linearGradient><filter id="i" color-interpolation-filters="sRGB" height="1.087725" width="1.105998" x="-.052999" y="-.043863"><feGaussianBlur stdDeviation="8.4801079"/></filter><filter id="j" color-interpolation-filters="sRGB" height="1.021931" width="1.0265" x="-.01325" y="-.010966"><feGaussianBlur stdDeviation="2.120027"/></filter><path d="m189.84323 74c-70.59344 0-78.18921 7.250835-77.84323 77.98706v146.01294 146.01294c-.34598 70.73623 7.24979 77.98706 77.84323 77.98706h196.31354c70.59344 0 76.00668-7.27384 77.84323-77.98706v-146.01294-98l-128-126z" filter="url(#j)" opacity=".1" transform="matrix(.13228516 0 0 .13228516 -4.409451 -6.038882)"/><path d="m189.84323 74c-70.59344 0-78.18921 7.250835-77.84323 77.98706v146.01294 146.01294c-.34598 70.73623 7.24979 77.98706 77.84323 77.98706h196.31354c70.59344 0 77.84323-7.24999 77.84323-77.98706v-146.01294-96l-128-128z" fill="url(#h)" filter="url(#i)" opacity=".3" transform="matrix(.13228516 0 0 .13228516 -4.409451 -6.038882)"/><path d="m20.703991 3.4856494c-9.338465 0-10.343273.959178-10.297505 10.3165306v19.315345 19.315344c-.04577 9.357355.95904 10.316531 10.297505 10.316531h25.969365c9.338465 0 10.297506-.959068 10.297506-10.316531v-19.315344-12.699376l-16.9325-16.9324996z" fill="url(#g)"/><path d="m20.70406 3.4856494c-9.338466 0-10.343342.95934-10.297574 10.3166916v.529141c-.04577-9.3573516.959108-10.3166916 10.297574-10.3166916h19.334302v-.529141z" fill="#fff" opacity=".4"/><path d="m22.474162 6.6604934c-8.892832 0-8.892832 0-8.893027 9.2111876v17.245844 17.245844c.000195 9.211187.000195 9.211187 8.893027 9.211187h22.427401c8.894455 0 8.893026 0 8.893026-9.211187v-17.245844-13.45529l-12.506511-13.0017416z" fill="url(#f)"/><g fill="#46a926" fill-rule="evenodd" stroke-linejoin="round" stroke-width=".198428"><path d="m47.97546 41.03889c-.0077-1.820289-1.416184-3.291406-3.018054-3.291385-1.509029 0-2.802482 2.066956-2.802482-.413391v3.927216.206695 3.307129c0-2.480346 1.293453-.413391 2.802482-.413391 1.607297 0 3.018054-1.480652 3.018054-3.307129.000014-.0053.000014-.01048 0-.01574z" stroke-linecap="round"/><path d="m22.04758 31.000962v6.333152c0 2.480347 1.293246.413391 2.802276.413391 1.60187-.000021 3.010598 1.471339 3.018271 3.291628.000013.0053.000013.01024 0 .0155 0 1.826477-1.410975 3.307129-3.018271 3.307129-1.50903-.000003-2.802276-2.066958-2.802276.413388v6.333152h6.333152c2.480346 0 .413391-1.293246.413391-2.802276-.000021-1.60187 1.471339-3.010598 3.291628-3.018271.0053-.000013.01024-.000013.0155 0 1.826477 0 3.30713 1.410975 3.30713 3.018271 0 1.50903-2.066956 2.802276.413391 2.802276h6.333149v-20.10734z" stroke-linecap="square"/><path d="m32.085507 25.180426c-1.820289.0077-3.291405 1.416184-3.291384 3.018054 0 1.50903 2.066955 2.802482-.413391 2.802482h3.927215.206696 3.307129c-2.480347 0-.413391-1.293452-.413391-2.802482 0-1.607297-1.480652-3.018054-3.307129-3.018054-.0053-.000014-.01048-.000014-.01574 0z" stroke-linecap="round"/></g><path d="m185.33354 74.825228-64-65.9999998.003 24.9985698v1 .53711c0 35.29429 1.62603 39.63197 36.99414 39.45899z" fill="url(#d)" filter="url(#e)" opacity=".1" transform="matrix(.26457031 0 0 .26457031 7.937109 1.150756)"/><path d="m185.33354 74.825228v-2l-64-63.9999998v24.9990938 1 .53711c0 34.463796 4 39.463796 36.99414 39.458996z" filter="url(#c)" opacity=".1" transform="matrix(.26457031 0 0 .26457031 7.937109 1.150756)"/><path d="m56.970086 20.416739-16.930949-16.9309506v6.084601.264571.142103c0 9.3378196.95934 10.4854416 10.316692 10.4396756z" fill="url(#b)"/><path d="m56.970086 20.416739-16.930949-16.9309516v6.084601.26457.142104c0 9.3378206.95934 10.4854426 10.316692 10.4396766z" fill="#fff"/><path d="m56.970086 20.416739-16.930949-16.9309516v6.084601.26457.142104c0 9.3378206.95934 10.4854426 10.316692 10.4396766z" fill="url(#a)"/><path d="m53.796021 20.41815h3.174844v.26457h-3.174844z" opacity=".2"/></svg>