<svg height="256" viewBox="0 0 67.73 67.73" width="256" xmlns="http://www.w3.org/2000/svg" xmlns:xlink="http://www.w3.org/1999/xlink"><linearGradient id="a" gradientUnits="userSpaceOnUse" x1="88" x2="488" y1="88" y2="488"><stop offset="0" stop-opacity=".588235"/><stop offset=".88" stop-opacity="0"/><stop offset="1"/></linearGradient><filter id="b" color-interpolation-filters="sRGB" height="1.087725" width="1.105998" x="-.052999" y="-.043863"><feGaussianBlur stdDeviation="8.4801079"/></filter><filter id="c" color-interpolation-filters="sRGB" height="1.021931" width="1.0265" x="-.01325" y="-.010966"><feGaussianBlur stdDeviation="2.120027"/></filter><path d="m189.84323 74c-70.59344 0-78.18921 7.250835-77.84323 77.98706v146.01294 146.01294c-.34598 70.73623 7.24979 77.98706 77.84323 77.98706h196.31354c70.59344 0 76.00668-7.27384 77.84323-77.98706v-146.01294-146.01294c0-70.737067-7.24979-77.98706-77.84323-77.98706z" filter="url(#c)" opacity=".1" transform="matrix(.13228516 0 0 .13228516 -4.409451 -6.038882)"/><path d="m189.84323 74c-70.59344 0-78.18921 7.250835-77.84323 77.98706v146.01294 146.01294c-.34598 70.73623 7.24979 77.98706 77.84323 77.98706h196.31354c70.59344 0 77.84323-7.24999 77.84323-77.98706v-146.01294-146.01294c0-70.737067-7.24979-77.98706-77.84323-77.98706z" fill="url(#a)" filter="url(#b)" opacity=".3" transform="matrix(.13228516 0 0 .13228516 -4.409451 -6.038882)"/><path d="m46.671928 3.4856496c9.338467 0 10.343273.959178 10.297505 10.3165314v19.315345 19.315344c.04577 9.357355-.959038 10.316531-10.297505 10.316531h-25.969365c-9.338464 0-10.297505-.959068-10.297505-10.316531v-19.315344-19.315345c0-9.3574644.959041-10.3165314 10.297505-10.3165314z" fill="#4a4a4d"/><g fill="#fff"><path d="m29.882023 13.596769c-1.926435.04403-3.541578.692646-4.787069 1.744511-1.42342 1.202128-2.370302 2.881488-2.998638 4.718856-1.256666 3.674742-1.278716 8.035766-.878971 11.12074a.88380213.88380213 0 0 0 .315728.567895l-.0016.000529c1.652435 1.362482 3.909992 4.259635 5.887206 6.790467.988606 1.265416 1.915007 2.442442 2.721148 3.329866.40307.443711.772489.815213 1.137858 1.103753.365369.288541.708477.570996 1.325437.545161a.88380213.88380213 0 0 0 .406155-.117816c.291768-.168949.436096-.432477.505887-.633006.06979-.200528.08736-.37252.09456-.54516.01442-.34528-.02635-.700244-.09353-1.10892-.134344-.817356-.389106-1.830292-.690881-2.938696-.600926-2.207173-1.390126-4.780019-1.774481-6.512975-.111291-.996171-.277314-1.909468-.255786-2.679809.02093-.749067.19443-1.336551.722401-1.943455.853176-.47683 3.035612-1.145375 5.284689-2.72528 3.295494.156318 6.237338.89639 9.660433 1.280478a.88380213.88380213 0 0 0 .839702-1.358508c-.643901-.993745-1.868777-2.002723-3.371711-2.97436-1.406479-.909284-3.031727-1.717707-4.604661-2.155836-1.226955-1.474462-2.195029-4.642398-8.541693-5.484148a.88380213.88380213 0 0 0 -.05787-.0057c-.28775-.01898-.569147-.02489-.844353-.0186zm2.682909 3.60012a1.378864 1.3788642 0 0 1 1.379176 1.378659 1.378864 1.3788642 0 0 1 -1.379176 1.379176 1.378864 1.3788642 0 0 1 -1.37866-1.379176 1.378864 1.3788642 0 0 1 1.37866-1.378659z"/><path d="m33.688674 3.4856496v59.2637514h12.984614c9.338464 0 10.054627-.962123 10.297574-10.316435v-19.31544-19.315442c0-9.3574644-.95911-10.3164344-10.297574-10.3164344z" opacity=".08"/><path d="m10.406486 33.117526v19.31544c-.04577 9.357354.959108 10.316435 10.297574 10.316435h25.969228c9.338464 0 10.054627-.962123 10.297574-10.316435v-19.31544z" opacity=".08"/><path d="m41.096643 62.749401 15.874219-15.874219v5.948567c-.01384 8.994282-1.006077 9.925652-10.099734 9.925652z" opacity=".08"/><text style="font-size:12.699375;font-family:ubuntu;letter-spacing:0;word-spacing:0;text-anchor:middle;stroke-width:.26457" x="33.675251" y="56.422466"><tspan stroke-width=".26457" x="33.675251" y="56.422466">qemu</tspan></text></g><path d="m10.406486 51.903568v.529141c-.04577 9.357355.959107 10.316692 10.297574 10.316692h25.969228c9.338464 0 10.054627-.96238 10.297574-10.316692v-.529141c-.242947 9.354312-.95911 10.316692-10.297574 10.316692h-25.969228c-9.338467 0-10.343342-.959337-10.297574-10.316692z" opacity=".2"/><path d="m20.70406 3.4856496c-9.338467 0-10.343342.95934-10.297574 10.3166924v.529141c-.045768-9.3573534.959107-10.3166924 10.297574-10.3166924h25.969228c9.338467 0 10.297574.959228 10.297574 10.3166924v-.529141c0-9.3574644-.959107-10.3166924-10.297574-10.3166924z" fill="#fff" opacity=".4"/></svg>