<svg height="256" viewBox="0 0 67.73 67.73" width="256" xmlns="http://www.w3.org/2000/svg" xmlns:xlink="http://www.w3.org/1999/xlink"><linearGradient id="a" gradientUnits="userSpaceOnUse" x1="18.872736" x2="52.737735" y1="-.747476" y2="66.982523"><stop offset="0" stop-color="#4600d9"/><stop offset="1" stop-color="#7431fe"/></linearGradient><linearGradient id="b" gradientUnits="userSpaceOnUse" x1="88" x2="488" y1="88" y2="488"><stop offset="0" stop-opacity=".588235"/><stop offset=".88" stop-opacity="0"/><stop offset="1"/></linearGradient><filter id="c" color-interpolation-filters="sRGB" height="1.087725" width="1.105998" x="-.052999" y="-.043863"><feGaussianBlur stdDeviation="8.4801079"/></filter><filter id="d" color-interpolation-filters="sRGB" height="1.021931" width="1.0265" x="-.01325" y="-.010966"><feGaussianBlur stdDeviation="2.120027"/></filter><path d="m189.84323 74c-70.59344 0-78.18921 7.250835-77.84323 77.98706v146.01294 146.01294c-.34598 70.73623 7.24979 77.98706 77.84323 77.98706h196.31354c70.59344 0 76.00668-7.27384 77.84323-77.98706v-146.01294-146.01294c0-70.737067-7.24979-77.98706-77.84323-77.98706z" filter="url(#d)" opacity=".1" transform="matrix(.13228516 0 0 .13228516 -4.409451 -6.038882)"/><path d="m189.84323 74c-70.59344 0-78.18921 7.250835-77.84323 77.98706v146.01294 146.01294c-.34598 70.73623 7.24979 77.98706 77.84323 77.98706h196.31354c70.59344 0 77.84323-7.24999 77.84323-77.98706v-146.01294-146.01294c0-70.737067-7.24979-77.98706-77.84323-77.98706z" fill="url(#b)" filter="url(#c)" opacity=".3" transform="matrix(.13228516 0 0 .13228516 -4.409451 -6.038882)"/><path d="m46.671928 3.4856495c9.338467 0 10.343273.9591779 10.297505 10.3165305v19.315345 19.315344c.04577 9.357355-.959038 10.316531-10.297505 10.316531h-25.969365c-9.338464 0-10.297505-.959068-10.297505-10.316531v-19.315344-19.315345c0-9.357464.959041-10.3165305 10.297505-10.3165305z" fill="url(#a)"/><path d="m10.406486 24.915845h12.110169l4.022186 14.301094 5.318236-18.77019 3.815874 10.289643 3.826261-10.289643 4.507704 12.935346h12.963946" fill="none" stroke="#fff" stroke-width="2.116563"/><g fill="#fff"><path d="m33.688674 3.4856495v59.2637505h12.984614c9.338464 0 10.054627-.962123 10.297574-10.316435v-19.31544-19.315442c0-9.3574638-.95911-10.3164335-10.297574-10.3164335z" opacity=".08"/><path d="m10.406486 33.117525v19.31544c-.04577 9.357354.959108 10.316435 10.297574 10.316435h25.969228c9.338464 0 10.054627-.962123 10.297574-10.316435v-19.31544z" opacity=".08"/><path d="m41.096643 62.7494 15.874219-15.874219v5.948567c-.01384 8.994282-1.006077 9.925652-10.099734 9.925652z" opacity=".08"/><g enable-background="new" stroke-width=".26457"><path d="m23.92204 56.422462v-9.651525l1.181042-.20319v3.378034q.330184-.126994.698466-.19049.380981-.0762.749263-.0762.787361 0 1.308035.228589.520675.215889.82546.622269.317484.393681.444478.952454.126994.558772.126994 1.231839v3.708217h-1.181042v-3.45423q0-.60957-.0889-1.041348-.0762-.431779-.266687-.698466-.19049-.266687-.507975-.380981-.317484-.126994-.787361-.126994-.190491 0-.393681.0254-.20319.0254-.39368.0635-.177791.0254-.330184.0635-.139693.0381-.20319.0635v5.48613z"/><path d="m35.440362 51.215719q-.215889-.177792-.622269-.342883-.40638-.165092-.888956-.165092-.507975 0-.876257.19049-.355583.177792-.584171.507975-.228589.317485-.330184.761963-.101595.444478-.101595.952453 0 1.155643.571472 1.790612.571472.622269 1.523925.622269.482576 0 .80006-.0381.330184-.0508.507975-.101595zm0-4.444782 1.181042-.20319v9.664225q-.40638.114294-1.041348.228589-.634969.114294-1.460429.114294-.761962 0-1.371532-.241288-.60957-.241288-1.041349-.685766-.431779-.444479-.673067-1.079447-.228588-.647668-.228588-1.447729 0-.761963.19049-1.396931.20319-.634969.584171-1.092147.380982-.457177.927055-.711165.558772-.253987 1.269937-.253987.571472 0 1.003251.152392.444478.152393.660367.292086z"/><path d="m42.920279 51.215719q-.215889-.177792-.622269-.342883-.40638-.165092-.888957-.165092-.507975 0-.876256.19049-.355583.177792-.584172.507975-.228588.317485-.330183.761963-.101595.444478-.101595.952453 0 1.155643.571471 1.790612.571472.622269 1.523925.622269.482577 0 .800061-.0381.330184-.0508.507975-.101595zm0-4.444782 1.181042-.20319v9.664225q-.40638.114294-1.041349.228589-.634969.114294-1.460428.114294-.761962 0-1.371532-.241288-.60957-.241288-1.041349-.685766-.431779-.444479-.673067-1.079447-.228589-.647668-.228589-1.447729 0-.761963.190491-1.396931.20319-.634969.584171-1.092147.380981-.457177.927054-.711165.558773-.253987 1.269938-.253987.571472 0 1.003251.152392.444478.152393.660367.292086z"/></g></g><path d="m10.406486 51.903567v.529141c-.04577 9.357355.959107 10.316692 10.297574 10.316692h25.969228c9.338464 0 10.054627-.96238 10.297574-10.316692v-.529141c-.242947 9.354312-.95911 10.316692-10.297574 10.316692h-25.969228c-9.338467 0-10.343343-.959337-10.297574-10.316692z" opacity=".2"/><path d="m20.70406 3.4856495c-9.338467 0-10.343343.9593396-10.297574 10.3166915v.529141c-.04577-9.3573523.959107-10.3166919 10.297574-10.3166919h25.969228c9.338467 0 10.297574.9592282 10.297574 10.3166919v-.529141c0-9.3574633-.959107-10.3166915-10.297574-10.3166915z" fill="#fff" opacity=".4"/></svg>