<?xml version="1.0" encoding="UTF-8" standalone="no"?>
<svg
   xmlns:dc="http://purl.org/dc/elements/1.1/"
   xmlns:cc="http://creativecommons.org/ns#"
   xmlns:rdf="http://www.w3.org/1999/02/22-rdf-syntax-ns#"
   xmlns:svg="http://www.w3.org/2000/svg"
   xmlns="http://www.w3.org/2000/svg"
   xmlns:xlink="http://www.w3.org/1999/xlink"
   xmlns:sodipodi="http://sodipodi.sourceforge.net/DTD/sodipodi-0.dtd"
   xmlns:inkscape="http://www.inkscape.org/namespaces/inkscape"
   height="256"
   viewBox="0 0 67.73 67.73"
   width="256"
   version="1.1"
   id="svg61"
   sodipodi:docname="application-x-raw-disk-image.svg"
   inkscape:version="0.92.5 (2060ec1f9f, 2020-04-08)">
  <metadata
     id="metadata67">
    <rdf:RDF>
      <cc:Work
         rdf:about="">
        <dc:format>image/svg+xml</dc:format>
        <dc:type
           rdf:resource="http://purl.org/dc/dcmitype/StillImage" />
        <dc:title></dc:title>
      </cc:Work>
    </rdf:RDF>
  </metadata>
  <defs
     id="defs65">
    <linearGradient
       inkscape:collect="always"
       xlink:href="#linearGradient1048"
       id="linearGradient11065"
       x1="104"
       y1="44"
       x2="200"
       y2="268"
       gradientUnits="userSpaceOnUse"
       gradientTransform="matrix(0.14009605,0,0,0.14009605,12.39328,5.0087516)" />
    <linearGradient
       inkscape:collect="always"
       id="linearGradient1048">
      <stop
         style="stop-color:#cdcdcd;stop-opacity:1;"
         offset="0"
         id="stop1044" />
      <stop
         style="stop-color:#d9d9d9;stop-opacity:1"
         offset="1"
         id="stop1046" />
    </linearGradient>
    <linearGradient
       gradientUnits="userSpaceOnUse"
       y2="119.09284"
       x2="-35.310345"
       y1="401.58368"
       x1="529.65515"
       id="linearGradient4226"
       xlink:href="#linearGradient4338"
       inkscape:collect="always"
       gradientTransform="matrix(0,-0.11988342,0.11987999,0,0.3627617,62.7494)" />
    <linearGradient
       inkscape:collect="always"
       id="linearGradient4338">
      <stop
         style="stop-color:#f2f2f2;stop-opacity:1"
         offset="0"
         id="stop4340" />
      <stop
         style="stop-color:#f9f9f9;stop-opacity:1"
         offset="1"
         id="stop4342" />
    </linearGradient>
    <linearGradient
       inkscape:collect="always"
       xlink:href="#linearGradient4360"
       id="linearGradient4358"
       x1="88"
       y1="88"
       x2="488"
       y2="488"
       gradientUnits="userSpaceOnUse" />
    <linearGradient
       id="linearGradient4360"
       inkscape:collect="always">
      <stop
         id="stop4362"
         offset="0"
         style="stop-color:#000000;stop-opacity:0.58823532" />
      <stop
         style="stop-color:#000000;stop-opacity:0"
         offset="0.88"
         id="stop4364" />
      <stop
         id="stop4366"
         offset="1"
         style="stop-color:#000000;stop-opacity:1" />
    </linearGradient>
    <filter
       inkscape:collect="always"
       style="color-interpolation-filters:sRGB"
       id="filter4380"
       x="-0.052999184"
       width="1.1059984"
       y="-0.043862626"
       height="1.0877253">
      <feGaussianBlur
         inkscape:collect="always"
         stdDeviation="8.4801079"
         id="feGaussianBlur4382" />
    </filter>
    <filter
       inkscape:collect="always"
       style="color-interpolation-filters:sRGB"
       id="filter4346"
       x="-0.013249796"
       width="1.0264996"
       y="-0.010965657"
       height="1.0219313">
      <feGaussianBlur
         inkscape:collect="always"
         stdDeviation="2.120027"
         id="feGaussianBlur4348" />
    </filter>
  </defs>
  <sodipodi:namedview
     pagecolor="#ffffff"
     bordercolor="#666666"
     borderopacity="1"
     objecttolerance="10"
     gridtolerance="10"
     guidetolerance="10"
     inkscape:pageopacity="0"
     inkscape:pageshadow="2"
     inkscape:window-width="1920"
     inkscape:window-height="1016"
     id="namedview63"
     showgrid="false"
     inkscape:zoom="0.921875"
     inkscape:cx="265.54699"
     inkscape:cy="128"
     inkscape:window-x="0"
     inkscape:window-y="27"
     inkscape:window-maximized="1"
     inkscape:current-layer="svg61" />
  <linearGradient
     id="a"
     gradientUnits="userSpaceOnUse"
     x1="26.96327"
     x2="40.412491"
     y1="11.172977"
     y2="42.554492">
    <stop
       offset="0"
       stop-color="#cdcdcd"
       id="stop2" />
    <stop
       offset="1"
       stop-color="#d9d9d9"
       id="stop4" />
  </linearGradient>
  <linearGradient
     id="b"
     gradientTransform="matrix(0 -.11988342 .11987999 0 .362762 62.749398)"
     gradientUnits="userSpaceOnUse"
     x1="529.65515"
     x2="-35.310345"
     y1="401.58368"
     y2="119.09284">
    <stop
       offset="0"
       stop-color="#f2f2f2"
       id="stop7" />
    <stop
       offset="1"
       stop-color="#f9f9f9"
       id="stop9" />
  </linearGradient>
  <linearGradient
     id="c"
     gradientUnits="userSpaceOnUse"
     x1="88"
     x2="488"
     y1="88"
     y2="488">
    <stop
       offset="0"
       stop-opacity=".588235"
       id="stop12" />
    <stop
       offset=".88"
       stop-opacity="0"
       id="stop14" />
    <stop
       offset="1"
       id="stop16" />
  </linearGradient>
  <filter
     id="d"
     color-interpolation-filters="sRGB"
     height="1.087725"
     width="1.105998"
     x="-.052999"
     y="-.043863">
    <feGaussianBlur
       stdDeviation="8.4801079"
       id="feGaussianBlur19" />
  </filter>
  <filter
     id="e"
     color-interpolation-filters="sRGB"
     height="1.021931"
     width="1.0265"
     x="-.01325"
     y="-.010966">
    <feGaussianBlur
       stdDeviation="2.120027"
       id="feGaussianBlur22" />
  </filter>
  <path
     sodipodi:nodetypes="scccssscsss"
     inkscape:connector-curvature="0"
     id="path1163"
     d="m 20.703991,3.4856497 c -9.338465,0 -10.343273,0.9591779 -10.297505,10.3165313 V 33.117526 52.43287 c -0.04577,9.357355 0.95904,10.316531 10.297505,10.316531 h 25.969365 c 9.338465,0 10.297506,-0.959068 10.297506,-10.316531 V 33.117526 13.802181 c 0,-9.3574648 -0.959041,-10.3165313 -10.297506,-10.3165313 z"
     style="color:#000000;display:inline;overflow:visible;visibility:visible;opacity:0.2;fill:none;fill-opacity:1;fill-rule:nonzero;stroke:#000000;stroke-width:1.0582813;stroke-miterlimit:4;stroke-dasharray:none;stroke-opacity:1;marker:none;enable-background:accumulate" />
  <path
     style="color:#000000;display:inline;overflow:visible;visibility:visible;opacity:0.1;fill:#000000;fill-opacity:1;fill-rule:nonzero;stroke:none;stroke-width:2;marker:none;filter:url(#filter4346);enable-background:accumulate"
     d="M 189.84323,74 C 119.24979,74 111.65402,81.250835 112,151.98706 V 298 444.01294 C 111.65402,514.74917 119.24979,522 189.84323,522 H 386.15677 C 456.75021,522 462.16345,514.72616 464,444.01294 V 298 151.98706 C 464,81.249993 456.75021,74 386.15677,74 Z"
     id="rect4158-9"
     inkscape:connector-curvature="0"
     sodipodi:nodetypes="scccssscsss"
     transform="matrix(0.13228516,0,0,0.13228516,-4.4094514,-6.0388816)" />
  <path
     sodipodi:nodetypes="scccssscsss"
     inkscape:connector-curvature="0"
     id="path4350"
     d="M 189.84323,74 C 119.24979,74 111.65402,81.250835 112,151.98706 V 298 444.01294 C 111.65402,514.74917 119.24979,522 189.84323,522 H 386.15677 C 456.75021,522 464,514.75001 464,444.01294 V 298 151.98706 C 464,81.249993 456.75021,74 386.15677,74 Z"
     style="color:#000000;display:inline;overflow:visible;visibility:visible;opacity:0.3;fill:url(#linearGradient4358);fill-opacity:1;fill-rule:nonzero;stroke:none;stroke-width:2;marker:none;filter:url(#filter4380);enable-background:accumulate"
     transform="matrix(0.13228516,0,0,0.13228516,-4.4094514,-6.0388816)" />
  <path
     style="color:#000000;display:inline;overflow:visible;visibility:visible;fill:url(#linearGradient4226);fill-opacity:1;fill-rule:nonzero;stroke:none;stroke-width:0.26457033;marker:none;enable-background:accumulate"
     d="m 20.703991,3.4856497 c -9.338465,0 -10.343273,0.9591779 -10.297505,10.3165313 V 33.117526 52.43287 c -0.04577,9.357355 0.95904,10.316531 10.297505,10.316531 h 25.969365 c 9.338465,0 10.297506,-0.959068 10.297506,-10.316531 V 33.117526 13.802181 c 0,-9.3574648 -0.959041,-10.3165313 -10.297506,-10.3165313 z"
     id="rect4158"
     inkscape:connector-curvature="0"
     sodipodi:nodetypes="scccssscsss" />
  <path
     style="color:#000000;display:inline;overflow:visible;visibility:visible;opacity:0.6;fill:#ffffff;fill-opacity:1;fill-rule:nonzero;stroke:none;stroke-width:0.26457033;marker:none;enable-background:accumulate"
     d="m 20.70406,3.4856497 c -9.338467,0 -10.343342,0.9593396 -10.297574,10.3166923 v 0.529141 C 10.360718,4.9741296 11.365593,4.0147903 20.70406,4.0147903 h 25.969228 c 9.338467,0 10.297574,0.9592283 10.297574,10.3166927 v -0.529141 c 0,-9.3574641 -0.959107,-10.3166923 -10.297574,-10.3166923 z"
     id="path931"
     inkscape:connector-curvature="0" />
  <circle
     style="display:inline;opacity:0.1;fill:#000000;fill-opacity:1;stroke:none;stroke-width:0.14009605;stroke-linecap:round;stroke-linejoin:round;stroke-miterlimit:4;stroke-dasharray:none;stroke-opacity:1;enable-background:new"
     id="path11042-4"
     r="15.690759"
     cy="27.003834"
     cx="33.687881" />
  <circle
     style="display:inline;opacity:1;fill:url(#linearGradient11065);fill-opacity:1;stroke:none;stroke-width:0.14009605;stroke-linecap:round;stroke-linejoin:round;stroke-miterlimit:4;stroke-dasharray:none;stroke-opacity:1;enable-background:new"
     id="path11042"
     r="15.690759"
     cy="26.863731"
     cx="33.687881" />
  <path
     inkscape:connector-curvature="0"
     style="display:inline;opacity:0.2;fill:#ffffff;fill-opacity:1;stroke:none;stroke-width:0.14009605;stroke-linecap:round;stroke-linejoin:round;stroke-miterlimit:4;stroke-dasharray:none;stroke-opacity:1;enable-background:new"
     d="M 33.68788,11.172981 A 15.690758,15.690758 0 0 0 17.997123,26.863739 H 33.68788 Z m 0,15.690758 V 42.554498 A 15.690758,15.690758 0 0 0 49.378638,26.863739 Z"
     id="path11042-53-3" />
  <path
     inkscape:connector-curvature="0"
     style="display:inline;opacity:0.02000002;fill:#000000;fill-opacity:1;stroke:none;stroke-width:0.14009605;stroke-linecap:round;stroke-linejoin:round;stroke-miterlimit:4;stroke-dasharray:none;stroke-opacity:1;enable-background:new"
     d="m 44.782922,15.768697 a 15.690758,15.690758 0 0 0 -22.190084,0 L 33.68788,26.863739 Z M 33.68788,26.863739 22.592838,37.958782 a 15.690758,15.690758 0 0 0 22.190084,0 z"
     id="path11042-53-6" />
  <path
     style="display:inline;opacity:1;fill:#faf8f6;fill-opacity:1;stroke:none;stroke-width:0.14009605;stroke-linecap:round;stroke-linejoin:round;stroke-miterlimit:4;stroke-dasharray:none;stroke-opacity:1;enable-background:new"
     d="m 29.407743,11.768264 a 15.690758,15.690758 0 0 0 -0.284907,0.09646 15.690758,15.690758 0 0 1 0.758771,-0.205579 15.690758,15.690758 0 0 0 -0.473864,0.109124 z m 1.235597,-0.284619 a 15.690758,15.690758 0 0 1 0.772947,-0.128359 15.690758,15.690758 0 0 0 -0.772947,0.128359 z m -2.261,0.631611 a 15.690758,15.690758 0 0 0 -0.733688,0.280159 15.690758,15.690758 0 0 1 0.733688,-0.280159 z m 3.813363,-0.858903 a 15.690758,15.690758 0 0 1 0.778768,-0.0506 15.690758,15.690758 0 0 0 -0.778768,0.0506 z m -5.257988,1.461846 a 15.690758,15.690758 0 0 0 -0.705241,0.353556 15.690758,15.690758 0 0 1 0.705241,-0.353556 z m 6.823528,-1.533182 a 15.690758,15.690758 0 0 1 0.782546,0.02799 15.690758,15.690758 0 0 0 -0.782546,-0.02799 z m -8.200598,2.277228 a 15.690758,15.690758 0 0 0 -0.667249,0.422407 15.690758,15.690758 0 0 1 0.667249,-0.422407 z m 9.763066,-2.191939 a 15.690758,15.690758 0 0 1 0.77795,0.105987 15.690758,15.690758 0 0 0 -0.77795,-0.105987 z M 24.263224,14.34075 a 15.690758,15.690758 0 0 0 -0.621817,0.487286 15.690758,15.690758 0 0 1 0.621817,-0.487286 z m 12.611842,-2.828926 a 15.690758,15.690758 0 0 1 0.758055,0.181855 15.690758,15.690758 0 0 0 -0.758055,-0.181855 z m -14.041101,4.033682 a 15.690758,15.690758 0 0 0 -0.177945,0.165806 15.690758,15.690758 0 0 1 0.177945,-0.165806 z m -0.234785,0.227496 a 15.690758,15.690758 0 0 0 -2.498055,3.245196 l 13.588482,7.845314 z m 11.090427,11.09051 11.090429,11.09051 a 15.690758,15.690758 0 0 0 2.498057,-3.245193 z m 4.701624,-14.957115 a 15.690758,15.690758 0 0 1 0.737681,0.256998 15.690758,15.690758 0 0 0 -0.737681,-0.256998 z m 1.468895,0.543776 a 15.690758,15.690758 0 0 1 0.711982,0.331303 15.690758,15.690758 0 0 0 -0.711982,-0.331303 z m 1.408133,0.688097 a 15.690758,15.690758 0 0 1 0.257377,0.152843 l 0.0093,-0.01609 A 15.690758,15.690758 0 0 0 41.26827,13.138266 Z m -15.414679,27.297641 -0.0093,0.01609 a 15.690758,15.690758 0 0 0 0.266666,0.136756 15.690758,15.690758 0 0 1 -0.257379,-0.152842 z m 0.95353,0.509634 a 15.690758,15.690758 0 0 0 0.711982,0.331305 15.690758,15.690758 0 0 1 -0.711982,-0.331305 z m 1.443196,0.618084 a 15.690758,15.690758 0 0 0 0.737678,0.256998 15.690758,15.690758 0 0 1 -0.737678,-0.256998 z m 16.472892,-3.54792 a 15.690758,15.690758 0 0 1 -0.177947,0.165806 15.690758,15.690758 0 0 0 0.177947,-0.165806 z m -14.977104,4.017635 a 15.690758,15.690758 0 0 0 0.758055,0.181855 15.690758,15.690758 0 0 1 -0.758055,-0.181855 z m 13.991717,-3.134356 a 15.690758,15.690758 0 0 1 -0.621817,0.487285 15.690758,15.690758 0 0 0 0.621817,-0.487285 z m -12.460257,3.451743 a 15.690758,15.690758 0 0 0 0.777951,0.105987 15.690758,15.690758 0 0 1 -0.777951,-0.105987 z m 11.208266,-2.50836 a 15.690758,15.690758 0 0 1 -0.667247,0.422408 15.690758,15.690758 0 0 0 0.667247,-0.422408 z m -9.650394,2.671647 a 15.690758,15.690758 0 0 0 0.782546,0.02799 15.690758,15.690758 0 0 1 -0.782546,-0.02799 z m 8.311316,-1.858746 a 15.690758,15.690758 0 0 1 -0.705241,0.353553 15.690758,15.690758 0 0 0 0.705241,-0.353553 z m -6.741998,1.866001 a 15.690758,15.690758 0 0 0 0.778768,-0.0506 15.690758,15.690758 0 0 1 -0.778768,0.0506 z m 5.325819,-1.189664 a 15.690758,15.690758 0 0 1 -0.733688,0.280158 15.690758,15.690758 0 0 0 0.733688,-0.280158 z m -3.767635,1.040129 a 15.690758,15.690758 0 0 0 0.772948,-0.128359 15.690758,15.690758 0 0 1 -0.772948,0.128359 z m 2.293452,-0.509433 a 15.690758,15.690758 0 0 1 -0.758769,0.205579 15.690758,15.690758 0 0 0 0.758769,-0.205579 z"
     id="path11042-53-6-2"
     inkscape:connector-curvature="0" />
  <circle
     style="display:inline;opacity:1;fill:#aea795;fill-opacity:1;stroke:none;stroke-width:0.38670185;stroke-linecap:round;stroke-linejoin:round;stroke-miterlimit:4;stroke-dasharray:none;stroke-dashoffset:0;stroke-opacity:1;enable-background:new"
     id="path7147"
     cx="33.687881"
     cy="-26.863735"
     transform="scale(1,-1)"
     r="5.6038423" />
  <circle
     style="display:inline;opacity:1;fill:#faf8f6;fill-opacity:1;stroke:none;stroke-width:0.36024699;stroke-linecap:round;stroke-linejoin:round;stroke-miterlimit:4;stroke-dasharray:none;stroke-dashoffset:0;stroke-opacity:1;enable-background:new"
     id="path7164"
     cx="33.687881"
     cy="26.863735"
     r="5.043458" />
  <circle
     style="display:inline;opacity:1;fill:#4d4d4d;fill-opacity:1;stroke:none;stroke-width:0.49033621;stroke-linecap:round;stroke-linejoin:round;stroke-miterlimit:4;stroke-dasharray:none;stroke-dashoffset:0;stroke-opacity:1;enable-background:new"
     id="path7166"
     cx="33.687881"
     cy="26.863735"
     r="1.9613448" />
  <path
     style="color:#000000;display:inline;overflow:visible;visibility:visible;opacity:0.4;fill:#ffffff;fill-opacity:1;fill-rule:nonzero;stroke:none;stroke-width:2.11656237;stroke-linecap:butt;stroke-linejoin:miter;stroke-miterlimit:4;stroke-dasharray:none;stroke-dashoffset:0;stroke-opacity:1;marker:none;enable-background:accumulate"
     d="M 41.096643,62.749401 56.970862,46.875182 v 5.948567 c -0.01384,8.994282 -1.006077,9.925652 -10.099734,9.925652 z"
     id="path4254"
     inkscape:connector-curvature="0"
     sodipodi:nodetypes="cccsc" />
  <text
     xml:space="preserve"
     style="font-style:normal;font-weight:normal;font-size:10.58281231px;line-height:1.25;font-family:sans-serif;letter-spacing:0px;word-spacing:0px;display:inline;opacity:1;fill:#888888;fill-opacity:1;stroke:none;stroke-width:0.26457033;enable-background:new"
     x="33.776848"
     y="56.422455"
     id="text130"><tspan
       sodipodi:role="line"
       id="tspan128"
       x="33.776848"
       y="56.422455"
       style="font-style:normal;font-variant:normal;font-weight:normal;font-stretch:normal;font-size:12.69937515px;font-family:ubuntu;-inkscape-font-specification:ubuntu;text-align:center;text-anchor:middle;fill:#888888;fill-opacity:1;stroke-width:0.26457033">dmg</tspan></text>
</svg>
