<svg height="256" viewBox="0 0 67.73 67.73" width="256" xmlns="http://www.w3.org/2000/svg" xmlns:xlink="http://www.w3.org/1999/xlink"><linearGradient id="a" gradientTransform="matrix(0 -.11988932 .11988589 0 .36278 292.5483)" gradientUnits="userSpaceOnUse" x1="529.655" x2="-35.31" y1="401.584" y2="119.093"><stop offset="0" stop-color="#f2f2f2"/><stop offset="1" stop-color="#f9f9f9"/></linearGradient><linearGradient id="b" gradientUnits="userSpaceOnUse" x1="88" x2="488" y1="88" y2="488"><stop offset="0" stop-opacity=".588235"/><stop offset=".88" stop-opacity="0"/><stop offset="1"/></linearGradient><filter id="c" color-interpolation-filters="sRGB" height="1.022" width="1.026" x="-.01" y="-.01"><feGaussianBlur stdDeviation="2.12"/></filter><g transform="translate(0 -229.26665)"><path d="m20.705011 233.28164c-9.338925 0-10.343783.95922-10.298012 10.31704v38.63259c-.04577 9.35781.959087 10.31704 10.298012 10.31704h25.970643c9.338924 0 10.298012-.95912 10.298012-10.31704v-38.63259c0-9.35793-.959088-10.31704-10.298012-10.31704z" fill="none" opacity=".2" stroke="#000" stroke-width="1.058333"/><path d="m189.84323 74c-70.59344 0-78.18921 7.250835-77.84323 77.98706v292.02588c-.34598 70.73623 7.24979 77.98706 77.84323 77.98706h196.31354c70.59344 0 76.00668-7.27384 77.84323-77.98706v-292.02588c0-70.737067-7.24979-77.98706-77.84323-77.98706z" filter="url(#c)" opacity=".1" transform="matrix(.13229167 0 0 .13229167 -4.409668 223.75664)"/><path d="m189.84323 74c-70.59344 0-78.18921 7.250835-77.84323 77.98706v292.02588c-.34598 70.73623 7.24979 77.98706 77.84323 77.98706h196.31354c70.59344 0 77.84323-7.24999 77.84323-77.98706v-292.02588c0-70.737067-7.24979-77.98706-77.84323-77.98706z" fill="url(#b)" opacity=".3" transform="matrix(.13229167 0 0 .13229167 -4.409668 223.75664)" visibility="hidden"/><path d="m20.705011 233.28164c-9.338924 0-10.343782.95922-10.298012 10.31704v38.63259c-.04577 9.35781.959088 10.31704 10.298012 10.31704h25.970643c9.338924 0 10.298012-.95912 10.298012-10.31704v-38.63259c0-9.35793-.959088-10.31704-10.298012-10.31704z" fill="url(#a)"/><path d="m41.098666 292.54831 15.875-15.875v5.94886c-.01384 8.99472-1.006126 9.92614-10.100231 9.92614z" fill="#fff" opacity=".4"/><path d="m20.705079 233.28164c-9.338926 0-10.343851.95939-10.29808 10.3172v.52916c-.04577-9.35781.959154-10.3172 10.29808-10.3172h25.970506c9.338927 0 10.298081.95928 10.298081 10.3172v-.52916c0-9.35793-.959154-10.3172-10.298081-10.3172z" fill="#fff" opacity=".6"/><path d="m33.689591 251.00872c-4.290207 0-7.744054 3.45387-7.744054 7.74403v3.87205h-.968008v5.50553l.393251-.51414c.562732-.75573 2.062641-1.83514 3.236776-2.29899.618586-.24469 2.103862-.51244 3.781276-.69576 2.527319-.28407 7.302285-.0607 9.044817-1.99651v-3.87205c0-4.29017-3.453849-7.74404-7.744058-7.74404zm.635256.93777c.367039.0225.726778.0641 1.089007.15131 1.301361.31275 1.448289.61398.181512.36282-1.993118-.39489-4.640398.4922-6.261795 2.11752-.484828.48601-1.096486 1.2908-1.361259 1.78479-.545535 1.01787-.459706.36225.121002-.87729 1.061713-2.26625 3.662289-3.68918 6.231544-3.53926zm-.635256 2.93428c2.145106 0 3.87203 1.7269 3.87203 3.87198v3.87205h-7.744056v-3.87205c0-2.14508 1.726924-3.87198 3.872026-3.87198zm8.712066 9.44411-1.028506.84697c-.559024.47589-1.433864 1.12671-1.966266 1.45201-1.08962.6659-3.672954 1.60327-4.446783 1.60327-.291066 0-.461699.0703-.393252.18169.12899.20926 1.675654.11476 3.297274-.21151.532406-.10743 1.767819-.59028 2.752768-1.089l1.784764-.90751v-.93775zm0 2.08725-.544505.75624c-1.806025 2.48945-4.746881 3.86884-8.833062 4.11404-2.729284.16369-1.730022.4742 1.542762.48376 2.217002.003 2.716721-.0641 4.053527-.51413.83633-.28126 1.530807-.49614 1.573011-.45395.152289.15244-1.483914 1.50646-2.389769 1.96626-1.735635.88094-2.917513 1.12823-6.050041 1.27048-2.225258.10126-3.138832.21601-3.569525.45395-.54842.30207-.186039.32288 6.806299.33244h7.411304z" fill="#0093dd"/><g fill="#fff"><path d="m33.690332 233.28164v59.26667h12.985253c9.338924 0 10.055122-.96217 10.298081-10.31695v-38.63278c0-9.35792-.959157-10.31694-10.298081-10.31694z" opacity=".1"/><path d="m10.406999 262.91497v19.31639c-.04577 9.35782.959155 10.31695 10.29808 10.31695h25.970506c9.338924 0 10.055122-.96217 10.298081-10.31695v-19.31639z" opacity=".2"/></g></g></svg>