<svg id="svg41" height="256" viewBox="0 0 67.73 67.73" width="256" xmlns="http://www.w3.org/2000/svg" xmlns:xlink="http://www.w3.org/1999/xlink">
  <linearGradient id="linearGradient4226-3" gradientTransform="matrix(0 -.11988342 -.11987999 0 67.013156 63.54311)" gradientUnits="userSpaceOnUse" x1="529.65515" x2="-35.310345" y1="401.58368" y2="119.09284">
    <stop id="stop4340" offset="0" stop-color="#fdc92b"/>
    <stop id="stop4342" offset="1" stop-color="#fee581"/>
  </linearGradient>
  <linearGradient id="linearGradient4358-6" gradientUnits="userSpaceOnUse" x1="88" x2="488" y1="88" y2="488">
    <stop id="stop4362" offset="0" stop-opacity=".588235"/>
    <stop id="stop4364" offset=".88" stop-opacity="0"/>
    <stop id="stop4366" offset="1"/>
  </linearGradient>
  <filter id="filter4380" color-interpolation-filters="sRGB" height="1.087725" width="1.105998" x="-.052999" y="-.043863">
    <feGaussianBlur id="feGaussianBlur4382" stdDeviation="8.4801079"/>
  </filter>
  <filter id="filter4346-7" color-interpolation-filters="sRGB" height="1.021931" width="1.0265" x="-.01325" y="-.010966">
    <feGaussianBlur id="feGaussianBlur4348" stdDeviation="2.120027"/>
  </filter>
  <path id="rect4158-9" d="m189.84323 74c-70.59344 0-78.18921 7.250835-77.84323 77.98706v146.01294 146.01294c-.34598 70.73623 7.24979 77.98706 77.84323 77.98706h196.31354c70.59344 0 76.00668-7.27384 77.84323-77.98706v-146.01294-146.01294c0-70.737067-7.24979-77.98706-77.84323-77.98706z" filter="url(#filter4346-7)" opacity=".1" transform="matrix(.13228516 0 0 .13228516 -4.409451 -5.245171)"/>
  <path id="path4350" d="m189.84323 74c-70.59344 0-78.18921 7.250835-77.84323 77.98706v146.01294 146.01294c-.34598 70.73623 7.24979 77.98706 77.84323 77.98706h196.31354c70.59344 0 77.84323-7.24999 77.84323-77.98706v-146.01294-146.01294c0-70.737067-7.24979-77.98706-77.84323-77.98706z" fill="url(#linearGradient4358-6)" filter="url(#filter4380)" opacity=".3" transform="matrix(.13228516 0 0 .13228516 -4.409451 -5.245171)"/>
  <path id="rect4158" d="m46.671928 4.2793607c9.338467 0 10.343273.9591779 10.297505 10.3165303v19.315345 19.315344c.04577 9.357355-.959038 10.316531-10.297505 10.316531h-25.969365c-9.338464 0-10.297505-.959068-10.297505-10.316531v-19.315344-19.315345c0-9.3574638.959041-10.3165303 10.297505-10.3165303z" fill="url(#linearGradient4226-3)"/>
  <path id="path4783" d="m31.572111 27.032407v6.878829c0 .293144.235997.52914.529141.52914h3.174844c.293144 0 .529141-.235996.529141-.52914v-6.878829zm1.058281 4.233126h2.116563v2.116562h-2.116563z" fill="#111" opacity=".5"/>
  <g fill="#fff">
    <path id="path4231" d="m33.688674 4.2793607v59.2637503h12.984614c9.338464 0 10.054627-.962123 10.297574-10.316435v-19.31544-19.315442c0-9.3574636-.95911-10.3164333-10.297574-10.3164333z" opacity=".08"/>
    <path id="path4255" d="m10.406485 33.911236v19.31544c-.04577 9.357354.959109 10.316435 10.297575 10.316435h25.969228c9.338464 0 10.054627-.962123 10.297574-10.316435v-19.31544z" opacity=".08"/>
    <path id="path4254" d="m41.096643 63.543111 15.874219-15.874219v5.948567c-.01384 8.994282-1.006077 9.925652-10.099734 9.925652z" opacity=".08"/>
  </g>
  <path id="path945" d="m10.406485 52.697278v.529141c-.04577 9.357355.959107 10.316692 10.297575 10.316692h25.969228c9.338464 0 10.054627-.96238 10.297574-10.316692v-.529141c-.242947 9.354312-.95911 10.316692-10.297574 10.316692h-25.969228c-9.338468 0-10.343343-.959337-10.297575-10.316692z" opacity=".2"/>
  <path id="path931" d="m20.70406 4.2793607c-9.338467 0-10.343343.9593396-10.297575 10.3166913v.529141c-.045768-9.3573521.959108-10.3166917 10.297575-10.3166917h25.969228c9.338467 0 10.297574.9592282 10.297574 10.3166917v-.529141c0-9.3574631-.959107-10.3166913-10.297574-10.3166913z" fill="#fff" opacity=".4"/>
  <path id="rect4185-3" d="m33.688674 4.8085018h-2.116563v2.1165625h2.116563zm0 2.1165625v2.1165628h2.116563v-2.1165628zm0 2.1165628h-2.116563v2.1165619h2.116563zm0 2.1165619v2.116562h2.116563v-2.116562zm0 2.116562h-2.116563v2.116562h2.116563zm0 2.116562v2.116563h2.116563v-2.116563zm0 2.116563h-2.116563v2.116562h2.116563zm0 2.116562v2.116563h2.116563v-2.116563zm0 2.116563h-2.116563v2.116562h2.116563zm0 2.116562v2.116563h2.116563v-2.116563z" fill="#111" opacity=".5"/>
  <g id="text124" enable-background="new" fill="#877330" stroke-width=".318273">
    <path id="path845" d="m30.83943 46.511134q-.266687.292086-.711165.82546-.431778.533373-.939753 1.181041-.495276.647669-1.003251 1.358834-.495276.711165-.876257 1.358833h3.632021v.990551h-5.041652v-.787361q.304785-.558773.749264-1.23184.444478-.673067.927054-1.333434.495276-.673067.952453-1.257238.469877-.596871.81276-1.003251h-3.263739v-.990551h4.762265z"/>
    <path id="path847" d="m33.616823 52.225853h-1.181042v-6.603675h1.181042zm-.59687-7.797416q-.317485 0-.546074-.20319-.215889-.21589-.215889-.571472 0-.355583.215889-.558773.228589-.215889.546074-.215889.317484 0 .533373.215889.228589.20319.228589.558773 0 .355582-.228589.571472-.215889.20319-.533373.20319z"/>
    <path id="path849" d="m40.244707 48.936715q0-1.155643-.571472-1.777913-.571472-.622269-1.523925-.622269-.533374 0-.838159.0381-.292086.0381-.469877.0889v4.165395q.21589.177791.62227.342883.40638.165092.888956.165092.507975 0 .863557-.177792.368282-.19049.596871-.507975.228589-.330183.330184-.761962.101595-.444478.101595-.952453zm1.231839 0q0 .749263-.20319 1.384232-.19049.634968-.571472 1.092146-.380981.457177-.939753.711165-.546074.253987-1.257239.253987-.571471 0-1.01595-.152392-.431778-.152393-.647668-.292086v2.64147h-1.181042v-8.749869q.41908-.101595 1.041349-.215889.634969-.126994 1.460428-.126994.761963 0 1.371533.241288.60957.241288 1.041349.685766.431778.444478.660367 1.092146.241288.634969.241288 1.43503z"/>
  </g>
</svg>
