<svg id="svg54" height="256" viewBox="0 0 67.73 67.73" width="256" xmlns="http://www.w3.org/2000/svg" xmlns:xlink="http://www.w3.org/1999/xlink">
  <linearGradient id="linearGradient4226" gradientTransform="matrix(0 -.11988342 -.11987999 0 67.013156 62.7494)" gradientUnits="userSpaceOnUse" x1="529.65515" x2="-35.310345" y1="401.58368" y2="119.09284">
    <stop id="stop43837" offset="0" stop-color="#8c59d9"/>
    <stop id="stop43839" offset="1" stop-color="#a7a7f1"/>
  </linearGradient>
  <linearGradient id="linearGradient4358" gradientUnits="userSpaceOnUse" x1="88" x2="488" y1="88" y2="488">
    <stop id="stop4362" offset="0" stop-opacity=".588235"/>
    <stop id="stop4364" offset=".88" stop-opacity="0"/>
    <stop id="stop4366" offset="1"/>
  </linearGradient>
  <filter id="filter4380" color-interpolation-filters="sRGB" height="1.087725" width="1.105998" x="-.052999" y="-.043863">
    <feGaussianBlur id="feGaussianBlur4382" stdDeviation="8.4801079"/>
  </filter>
  <filter id="filter4346" color-interpolation-filters="sRGB" height="1.021931" width="1.0265" x="-.01325" y="-.010966">
    <feGaussianBlur id="feGaussianBlur4348" stdDeviation="2.120027"/>
  </filter>
  <path id="rect4158-9" d="m189.84323 74c-70.59344 0-78.18921 7.250835-77.84323 77.98706v146.01294 146.01294c-.34598 70.73623 7.24979 77.98706 77.84323 77.98706h196.31354c70.59344 0 76.00668-7.27384 77.84323-77.98706v-146.01294-146.01294c0-70.737067-7.24979-77.98706-77.84323-77.98706z" filter="url(#filter4346)" opacity=".1" transform="matrix(.13228516 0 0 .13228516 -4.409451 -6.038882)"/>
  <path id="path4350" d="m189.84323 74c-70.59344 0-78.18921 7.250835-77.84323 77.98706v146.01294 146.01294c-.34598 70.73623 7.24979 77.98706 77.84323 77.98706h196.31354c70.59344 0 77.84323-7.24999 77.84323-77.98706v-146.01294-146.01294c0-70.737067-7.24979-77.98706-77.84323-77.98706z" fill="url(#linearGradient4358)" filter="url(#filter4380)" opacity=".3" transform="matrix(.13228516 0 0 .13228516 -4.409451 -6.038882)"/>
  <path id="rect4158" d="m46.671928 3.4856498c9.338467 0 10.343273.959178 10.297505 10.3165312v19.315345 19.315344c.04577 9.357355-.959038 10.316531-10.297505 10.316531h-25.969365c-9.338464 0-10.297505-.959068-10.297505-10.316531v-19.315344-19.315345c0-9.3574652.959041-10.3165312 10.297505-10.3165312z" fill="url(#linearGradient4226)"/>
  <path id="path919" d="m31.572111 25.974127v6.878829c0 .293143.235997.52914.529141.52914h3.174844c.293144 0 .529141-.235997.529141-.52914v-6.878829zm1.058281 4.233125h2.116563v2.116563h-2.116563z" opacity=".2"/>
  <path id="path921" d="m33.688674 3.7502208h-2.116563v2.116562h2.116563zm0 2.116562v2.116562h2.116563v-2.116562zm0 2.116562h-2.116563v2.1165632h2.116563zm0 2.1165632v2.116563h2.116563v-2.116563zm0 2.116563h-2.116563v2.116562h2.116563zm0 2.116562v2.116563h2.116563v-2.116563zm0 2.116563h-2.116563v2.116562h2.116563zm0 2.116562v2.116563h2.116563v-2.116563zm0 2.116563h-2.116563v2.116562h2.116563zm0 2.116562v2.116563h2.116563v-2.116563z" opacity=".2"/>
  <g fill="#fff">
    <path id="path4783" d="m31.572111 25.709557v6.878828c0 .293144.235997.529141.529141.529141h3.174844c.293144 0 .529141-.235997.529141-.529141v-6.878828zm1.058281 4.233125h2.116563v2.116563h-2.116563z"/>
    <path id="rect4185" d="m33.688674 3.4856498h-2.116563v2.116563h2.116563zm0 2.116563v2.116562h2.116563v-2.116562zm0 2.116562h-2.116563v2.116563h2.116563zm0 2.116563v2.1165622h2.116563v-2.1165622zm0 2.1165622h-2.116563v2.116563h2.116563zm0 2.116563v2.116562h2.116563v-2.116562zm0 2.116562h-2.116563v2.116563h2.116563zm0 2.116563v2.116562h2.116563v-2.116562zm0 2.116562h-2.116563v2.116563h2.116563zm0 2.116563v2.116562h2.116563v-2.116562z"/>
    <path id="path33929-6-9" d="m17.813741 53.24775c0-.133582 2.107617-10.269525 2.20232-10.589504.05193-.175024.248725-.183188 3.683496-.15263l3.628754.03231.59636.292813c.617438.303185 1.109708.855539 1.354713 1.520068.186919.506988.156499 1.327198-.07177 1.937573-.498792 1.333138-1.330895 1.985544-2.866146 2.247175l-.376433.06418.571268.835857c.314196.459717.751303 1.218357.971354 1.685863.220048.467507.438263.810935.48491.763164.0466-.04774 1.225513-2.17031 2.619688-4.71676l2.53485-4.629895h1.816916 1.816905l.332883 2.442145c.939629 6.893657.98835 7.21112 1.068504 6.963969.04422-.136438.495662-2.239942 1.003113-4.674454.507464-2.434526.947556-4.509615.977955-4.611321.05239-.175037.249236-.183178 3.684028-.152223 3.938356.03549 3.966374.03923 4.759405.644131.484344.369449.955367 1.378083.955367 2.045843 0 .654983-.309751 1.522724-.75043 2.102291-.406981.535255-1.266366 1.060509-1.883815 1.151447-.879784.12951-.878503.126732-.369531.806273.54892.732855 1.383359 2.368352 1.725142 3.381196l.248966.737741h-1.672939c-1.413372 0-1.672902-.02357-1.672902-.151451 0-.25731-.996449-2.708957-1.40666-3.460905-.213736-.391755-.4998-.768847-.635717-.837979-.268579-.136595-1.112069-.17627-1.112069-.05227 0 .04207-.155702.808995-.34601 1.704404-.190311.895431-.399599 1.891331-.465115 2.213136l-.119056.5851h-2.892836-2.892849v-.443695c0-.244042-.02903-.65615-.06474-.915805l-.06475-.472112h-1.94949-1.949476l-.448888.915807-.448902.915805h-2.675607c-2.301193 0-2.675597-.02119-2.675597-.151451 0-.25731-.996449-2.708932-1.406649-3.460894-.213736-.391765-.499811-.768857-.635728-.83799-.268579-.136597-1.11209-.176269-1.11209-.05227 0 .04207-.15567.809006-.345978 1.704426-.190309.895406-.39961 1.89132-.465126 2.213125l-.119022.585089h-1.570005c-1.187992 0-1.570106-.03095-1.570389-.127128zm17.262882-4.070251c-.03243-.237862-.113045-1.348274-.179027-2.467589-.06576-1.119323-.149352-2.092354-.185387-2.162293-.0559-.108625-2.4543 4.771891-2.450183 4.986031.0011.04196.647734.07631 1.437611.07631h1.436152zm-9.457966-2.324731c.886565-.429181 1.215352-1.517472.649822-2.150933l-.296676-.332314-1.563939-.03232-1.563928-.03232-.233702 1.151596c-.128582.633392-.257832 1.25464-.287311 1.380557l-.05363.228951h1.454351c1.26863 0 1.510667-.02721 1.894982-.213281zm20.147737 0c.886575-.429181 1.215354-1.517472.649824-2.150933l-.296655-.332314-1.563938-.03232-1.563929-.03232-.233713 1.151596c-.128581.633392-.257832 1.25464-.287313 1.380557l-.05363.228951h1.454372c1.26861 0 1.510636-.02721 1.894951-.213281z" opacity=".5" stroke-width=".101756"/>
    <path id="path4231" d="m33.688674 3.4856498v59.2637512h12.984614c9.338464 0 10.054627-.962123 10.297574-10.316435v-19.31544-19.315442c0-9.3574642-.95911-10.3164342-10.297574-10.3164342z" opacity=".08"/>
    <path id="path4255" d="m10.406486 33.117526v19.31544c-.04577 9.357354.959108 10.316435 10.297574 10.316435h25.969228c9.338464 0 10.054627-.962123 10.297574-10.316435v-19.31544z" opacity=".08"/>
    <path id="path4254" d="m41.096643 62.749401 15.874219-15.874219v5.948567c-.01384 8.994282-1.006077 9.925652-10.099734 9.925652z" opacity=".08"/>
  </g>
  <path id="path945" d="m10.406486 51.903568v.529141c-.04577 9.357355.959107 10.316692 10.297574 10.316692h25.969228c9.338464 0 10.054627-.96238 10.297574-10.316692v-.529141c-.242947 9.354312-.95911 10.316692-10.297574 10.316692h-25.969228c-9.338467 0-10.343342-.959337-10.297574-10.316692z" opacity=".2"/>
  <path id="path931" d="m20.70406 3.4856498c-9.338467 0-10.343342.95934-10.297574 10.3166922v.529141c-.04577-9.3573532.959107-10.3166922 10.297574-10.3166922h25.969228c9.338467 0 10.297574.959228 10.297574 10.3166922v-.529141c0-9.3574642-.959107-10.3166922-10.297574-10.3166922z" fill="#fff" opacity=".4"/>
</svg>
