<?xml version="1.0" encoding="UTF-8" standalone="no"?>
<svg
   xmlns:dc="http://purl.org/dc/elements/1.1/"
   xmlns:cc="http://creativecommons.org/ns#"
   xmlns:rdf="http://www.w3.org/1999/02/22-rdf-syntax-ns#"
   xmlns:svg="http://www.w3.org/2000/svg"
   xmlns="http://www.w3.org/2000/svg"
   xmlns:xlink="http://www.w3.org/1999/xlink"
   xmlns:sodipodi="http://sodipodi.sourceforge.net/DTD/sodipodi-0.dtd"
   xmlns:inkscape="http://www.inkscape.org/namespaces/inkscape"
   width="256"
   height="256"
   version="1.1"
   viewBox="0 0 67.73 67.73"
   id="svg39"
   sodipodi:docname="application-x-theme.svg"
   inkscape:version="0.92.4 (5da689c313, 2019-01-14)">
  <metadata
     id="metadata43">
    <rdf:RDF>
      <cc:Work
         rdf:about="">
        <dc:format>image/svg+xml</dc:format>
        <dc:type
           rdf:resource="http://purl.org/dc/dcmitype/StillImage" />
      </cc:Work>
    </rdf:RDF>
  </metadata>
  <sodipodi:namedview
     pagecolor="#ffffff"
     bordercolor="#666666"
     borderopacity="1"
     objecttolerance="10"
     gridtolerance="10"
     guidetolerance="10"
     inkscape:pageopacity="0"
     inkscape:pageshadow="2"
     inkscape:window-width="1920"
     inkscape:window-height="1016"
     id="namedview41"
     showgrid="false"
     inkscape:zoom="0.921875"
     inkscape:cx="128"
     inkscape:cy="128"
     inkscape:window-x="0"
     inkscape:window-y="27"
     inkscape:window-maximized="1"
     inkscape:current-layer="svg39" />
  <defs
     id="defs11">
    <linearGradient
       id="linearGradient4226"
       x1="529.655"
       x2="-35.31"
       y1="401.584"
       y2="119.093"
       gradientTransform="matrix(0 -.11988932 .11988589 0 .36278005 292.5483)"
       gradientUnits="userSpaceOnUse">
      <stop
         style="stop-color:#f2f2f2"
         id="stop2"
         offset="0" />
      <stop
         style="stop-color:#f9f9f9"
         id="stop4"
         offset="1" />
    </linearGradient>
    <linearGradient
       id="linearGradient4358"
       x1="88"
       x2="488"
       y1="88"
       y2="488"
       gradientUnits="userSpaceOnUse">
      <stop
         style="stop-color:#000000;stop-opacity:.58823532"
         id="stop7"
         offset="0" />
      <stop
         style="stop-color:#000000;stop-opacity:0"
         id="stop9"
         offset=".88" />
      <stop
         style="stop-color:#000000"
         id="stop11"
         offset="1" />
    </linearGradient>
    <filter
       id="filter4346"
       width="1.026"
       height="1.022"
       x="-.01"
       y="-.01"
       style="color-interpolation-filters:sRGB">
      <feGaussianBlur
         id="feGaussianBlur14"
         stdDeviation="2.12" />
    </filter>
    <linearGradient
       gradientUnits="userSpaceOnUse"
       y2="119.09284"
       x2="-35.310345"
       y1="401.58368"
       x1="529.65515"
       id="linearGradient4226-3"
       xlink:href="#linearGradient4338"
       inkscape:collect="always"
       gradientTransform="matrix(0,-0.11988342,0.11987999,0,0.3627566,63.54311)" />
    <linearGradient
       inkscape:collect="always"
       id="linearGradient4338">
      <stop
         style="stop-color:#f2f2f2;stop-opacity:1"
         offset="0"
         id="stop4340" />
      <stop
         style="stop-color:#f9f9f9;stop-opacity:1"
         offset="1"
         id="stop4342" />
    </linearGradient>
    <linearGradient
       inkscape:collect="always"
       xlink:href="#linearGradient4360"
       id="linearGradient4358-6"
       x1="88"
       y1="88"
       x2="488"
       y2="488"
       gradientUnits="userSpaceOnUse" />
    <linearGradient
       id="linearGradient4360"
       inkscape:collect="always">
      <stop
         id="stop4362"
         offset="0"
         style="stop-color:#000000;stop-opacity:0.58823532" />
      <stop
         style="stop-color:#000000;stop-opacity:0"
         offset="0.88"
         id="stop4364" />
      <stop
         id="stop4366"
         offset="1"
         style="stop-color:#000000;stop-opacity:1" />
    </linearGradient>
    <filter
       inkscape:collect="always"
       style="color-interpolation-filters:sRGB"
       id="filter4380"
       x="-0.052999184"
       width="1.1059984"
       y="-0.043862626"
       height="1.0877253">
      <feGaussianBlur
         inkscape:collect="always"
         stdDeviation="8.4801079"
         id="feGaussianBlur4382" />
    </filter>
    <filter
       inkscape:collect="always"
       style="color-interpolation-filters:sRGB"
       id="filter4346-7"
       x="-0.013249796"
       width="1.0264996"
       y="-0.010965657"
       height="1.0219313">
      <feGaussianBlur
         inkscape:collect="always"
         stdDeviation="2.120027"
         id="feGaussianBlur4348" />
    </filter>
  </defs>
  <path
     sodipodi:nodetypes="scccssscsss"
     inkscape:connector-curvature="0"
     id="path1163"
     d="m 20.703986,4.2793604 c -9.338464,0 -10.343273,0.959178 -10.297505,10.3165306 V 33.911236 53.22658 c -0.04577,9.357355 0.959041,10.316531 10.297505,10.316531 h 25.969365 c 9.338465,0 10.297506,-0.959068 10.297506,-10.316531 V 33.911236 14.595891 c 0,-9.3574636 -0.959041,-10.3165306 -10.297506,-10.3165306 z"
     style="color:#000000;display:inline;overflow:visible;visibility:visible;opacity:0.2;fill:none;fill-opacity:1;fill-rule:nonzero;stroke:#000000;stroke-width:1.0582813;stroke-miterlimit:4;stroke-dasharray:none;stroke-opacity:1;marker:none;enable-background:accumulate" />
  <path
     style="color:#000000;display:inline;overflow:visible;visibility:visible;opacity:0.1;fill:#000000;fill-opacity:1;fill-rule:nonzero;stroke:none;stroke-width:2;marker:none;filter:url(#filter4346-7);enable-background:accumulate"
     d="M 189.84323,74 C 119.24979,74 111.65402,81.250835 112,151.98706 V 298 444.01294 C 111.65402,514.74917 119.24979,522 189.84323,522 H 386.15677 C 456.75021,522 462.16345,514.72616 464,444.01294 V 298 151.98706 C 464,81.249993 456.75021,74 386.15677,74 Z"
     id="rect4158-9"
     inkscape:connector-curvature="0"
     sodipodi:nodetypes="scccssscsss"
     transform="matrix(0.13228516,0,0,0.13228516,-4.4094514,-5.2451706)" />
  <path
     sodipodi:nodetypes="scccssscsss"
     inkscape:connector-curvature="0"
     id="path4350"
     d="M 189.84323,74 C 119.24979,74 111.65402,81.250835 112,151.98706 V 298 444.01294 C 111.65402,514.74917 119.24979,522 189.84323,522 H 386.15677 C 456.75021,522 464,514.75001 464,444.01294 V 298 151.98706 C 464,81.249993 456.75021,74 386.15677,74 Z"
     style="color:#000000;display:inline;overflow:visible;visibility:visible;opacity:0.3;fill:url(#linearGradient4358-6);fill-opacity:1;fill-rule:nonzero;stroke:none;stroke-width:2;marker:none;filter:url(#filter4380);enable-background:accumulate"
     transform="matrix(0.13228516,0,0,0.13228516,-4.4094514,-5.2451706)" />
  <path
     inkscape:export-ydpi="192"
     inkscape:export-xdpi="192"
     inkscape:export-filename="/home/gusbemacbe/GitHub/yaru/icons/Suru/256x256@2x/mimetypes/application-x-theme.png"
     style="color:#000000;display:inline;overflow:visible;visibility:visible;fill:url(#linearGradient4226-3);fill-opacity:1;fill-rule:nonzero;stroke:none;stroke-width:0.26457033;marker:none;enable-background:accumulate"
     d="m 20.703986,4.2793604 c -9.338464,0 -10.343273,0.959178 -10.297505,10.3165306 V 33.911236 53.22658 c -0.04577,9.357355 0.959041,10.316531 10.297505,10.316531 h 25.969365 c 9.338465,0 10.297506,-0.959068 10.297506,-10.316531 V 33.911236 14.595891 c 0,-9.3574636 -0.959041,-10.3165306 -10.297506,-10.3165306 z"
     id="rect4158"
     inkscape:connector-curvature="0"
     sodipodi:nodetypes="scccssscsss" />
  <path
     inkscape:export-ydpi="192"
     inkscape:export-xdpi="192"
     inkscape:export-filename="/home/gusbemacbe/GitHub/yaru/icons/Suru/256x256@2x/mimetypes/application-x-theme.png"
     style="color:#000000;display:inline;overflow:visible;visibility:visible;opacity:0.6;fill:#ffffff;fill-opacity:1;fill-rule:nonzero;stroke:none;stroke-width:0.26457033;marker:none;enable-background:accumulate"
     d="m 20.704055,4.2793604 c -9.338466,0 -10.343342,0.95934 -10.297574,10.3166916 v 0.529141 C 10.360711,5.7678404 11.365589,4.8085014 20.704055,4.8085014 h 25.969228 c 9.338467,0 10.297574,0.959228 10.297574,10.3166916 v -0.529141 c 0,-9.3574636 -0.959107,-10.3166916 -10.297574,-10.3166916 z"
     id="path931"
     inkscape:connector-curvature="0" />
  <g
     transform="matrix(0.26457031,0,0,0.26457031,-6.5260214,-7.3617336)"
     inkscape:export-ydpi="192"
     inkscape:export-xdpi="192"
     inkscape:export-filename="/home/gusbemacbe/GitHub/yaru/icons/Suru/256x256@2x/mimetypes/application-x-theme.png"
     id="g947"
     inkscape:label="brush scalable"
     style="display:inline;fill:#cccccc;enable-background:new">
    <path
       inkscape:label="scalable"
       d="m 207.27,108.16025 h -6.82003 v 6.40533 H 207.27 c 0.37232,0 0.61492,0.0296 0.76105,0.0615 0.0133,0.0954 0.0251,0.23211 0.0251,0.41798 v 26.57723 c 0,1.19655 -0.47601,2.16777 -0.78625,2.16777 h -49.68806 c -5.00536,0 -8.77968,3.08175 -8.77968,7.16875 v 4.04053 h 6.4017 l -0.005,-4.02613 c 0.11294,-0.21439 1.01726,-0.77783 2.38238,-0.77783 h 49.68817 c 4.16705,0 7.19156,-3.60543 7.19156,-8.5731 v -26.57722 c 7.9e-4,-4.31079 -2.68783,-6.88449 -7.19076,-6.88449 z"
       style="display:inline;fill:#cccccc;stroke-width:4.91745996"
       id="path1220"
       inkscape:connector-curvature="0"
       sodipodi:nodetypes="cccscssssscccsssccc"
       inkscape:export-filename="/home/gusbemacbe/Pictures/application-x-theme-half.png"
       inkscape:export-xdpi="90"
       inkscape:export-ydpi="90" />
    <path
       id="rect923"
       style="opacity:1;vector-effect:none;fill:#cccccc;stroke-width:0.49779701"
       d="m 110.2207,90.746094 c -4.03119,0 -7.27539,3.244201 -7.27539,7.27539 v 24.896486 c 0,4.03119 3.2442,7.27539 7.27539,7.27539 h 29.15235 5.19922 19.14648 29.54883 c 4.01895,0 7.25586,-3.2442 7.25586,-7.27539 V 98.021484 c 0,-4.031189 -3.23691,-7.27539 -7.25586,-7.27539 h -29.54883 -19.14648 -5.19922 z"
       inkscape:connector-curvature="0"
       inkscape:export-filename="/home/gusbemacbe/Pictures/application-x-theme-half.png"
       inkscape:export-xdpi="90"
       inkscape:export-ydpi="90" />
    <path
       id="rect933"
       style="display:inline;opacity:1;vector-effect:none;fill:#cccccc;stroke-width:0.50017703"
       inkscape:label="line"
       d="m 145.66914,154.91992 a 2.7206819,2.7206819 0 0 0 -2.58594,1.875 l -5.32617,16.30469 A 9.2458554,9.2458554 0 0 0 137.3,175.9707 v 42.67969 a 2.3987081,2.3987081 0 0 0 2.39844,2.39844 h 10.14844 2.07812 0.0195 2.69141 9.60937 a 2.3251062,2.3251062 0 0 0 2.32422,-2.32422 v -42.63086 a 10.024166,10.024166 0 0 0 -0.49609,-3.11328 l -5.25391,-16.08399 a 2.8672809,2.8672809 0 0 0 -2.72656,-1.97656 h -3.45703 -2.69141 -0.0195 -2.07812 z"
       inkscape:connector-curvature="0"
       inkscape:export-filename="/home/gusbemacbe/Pictures/application-x-theme-half.png"
       inkscape:export-xdpi="90"
       inkscape:export-ydpi="90" />
  </g>
</svg>
