<svg id="svg39" height="256" viewBox="0 0 67.73 67.73" width="256" xmlns="http://www.w3.org/2000/svg" xmlns:xlink="http://www.w3.org/1999/xlink">
  <linearGradient id="linearGradient4226" gradientTransform="matrix(0 -.11988932 .11988589 0 .36278 292.5483)" gradientUnits="userSpaceOnUse" x1="529.655" x2="-35.31" y1="401.584" y2="119.093">
    <stop id="stop2" offset="0" stop-color="#f2f2f2"/>
    <stop id="stop4" offset="1" stop-color="#f9f9f9"/>
  </linearGradient>
  <linearGradient id="linearGradient4358" gradientUnits="userSpaceOnUse" x1="88" x2="488" y1="88" y2="488">
    <stop id="stop7" offset="0" stop-opacity=".588235"/>
    <stop id="stop9" offset=".88" stop-opacity="0"/>
    <stop id="stop11" offset="1"/>
  </linearGradient>
  <filter id="filter4346" color-interpolation-filters="sRGB" height="1.022" width="1.026" x="-.01" y="-.01">
    <feGaussianBlur id="feGaussianBlur14" stdDeviation="2.12"/>
  </filter>
  <g id="g37" transform="translate(0 -229.26665)">
    <path id="path19" d="m20.70501 233.28164c-9.338925 0-10.343782.95922-10.298012 10.31704v38.63259c-.04577 9.35781.959087 10.31704 10.298012 10.31704h25.970644c9.338924 0 10.298012-.95912 10.298012-10.31704v-38.63259c0-9.35793-.959088-10.31704-10.298012-10.31704z" fill="none" opacity=".2" stroke="#000" stroke-width="1.058333"/>
    <path id="path21" d="m189.84323 74c-70.59344 0-78.18921 7.250835-77.84323 77.98706v292.02588c-.34598 70.73623 7.24979 77.98706 77.84323 77.98706h196.31354c70.59344 0 76.00668-7.27384 77.84323-77.98706v-292.02588c0-70.737067-7.24979-77.98706-77.84323-77.98706z" filter="url(#filter4346)" opacity=".1" transform="matrix(.13229167 0 0 .13229167 -4.409668 223.75664)"/>
    <path id="path23" d="m189.84323 74c-70.59344 0-78.18921 7.250835-77.84323 77.98706v292.02588c-.34598 70.73623 7.24979 77.98706 77.84323 77.98706h196.31354c70.59344 0 77.84323-7.24999 77.84323-77.98706v-292.02588c0-70.737067-7.24979-77.98706-77.84323-77.98706z" fill="url(#linearGradient4358)" opacity=".3" transform="matrix(.13229167 0 0 .13229167 -4.409668 223.75664)" visibility="hidden"/>
    <path id="path25" d="m20.70501 233.28164c-9.338925 0-10.343782.95922-10.298012 10.31704v38.63259c-.04577 9.35781.959087 10.31704 10.298012 10.31704h25.970644c9.338924 0 10.298012-.95912 10.298012-10.31704v-38.63259c0-9.35793-.959088-10.31704-10.298012-10.31704z" fill="url(#linearGradient4226)"/>
    <g fill="#fff">
      <path id="path27" d="m20.705078 233.28164c-9.338925 0-10.34385.95939-10.29808 10.3172v.52916c-.04577-9.35781.959155-10.3172 10.29808-10.3172h25.970507c9.338927 0 10.298081.95928 10.298081 10.3172v-.52916c0-9.35793-.959154-10.3172-10.298081-10.3172z" opacity=".6"/>
      <path id="path31" d="m33.690332 233.28164v59.26667h12.985253c9.338924 0 10.055122-.96217 10.298081-10.31695v-38.63278c0-9.35792-.959157-10.31694-10.298081-10.31694z" opacity=".1"/>
      <path id="path35" d="m41.098666 292.54831 15.875-15.875v5.94886c-.01384 8.99472-1.006126 9.92614-10.100231 9.92614z" opacity=".4"/>
      <path id="path33" d="m10.406998 262.91497v19.31639c-.04577 9.35782.959155 10.31695 10.29808 10.31695h25.970507c9.338924 0 10.055122-.96217 10.298081-10.31695v-19.31639z" opacity=".2"/>
    </g>
  </g>
  <g fill="#808080">
    <path id="rect1193" d="m10.409295 30.016747h6.652051v6.652038h-6.652051z" opacity=".2"/>
    <path id="rect1193-9" d="m17.06134 36.668797h6.652051v6.652038h-6.652051z" opacity=".2"/>
    <path id="rect1193-7" d="m23.7134 30.016747h6.652051v6.652038h-6.652051z" opacity=".2"/>
    <path id="rect1193-3" d="m30.365459 36.668797h6.652051v6.652038h-6.652051z" opacity=".2"/>
    <path id="rect1193-6" d="m37.017506 30.016747h6.652051v6.652038h-6.652051z" opacity=".2"/>
    <path id="rect1193-1" d="m43.669548 36.668762h6.652051v6.652038h-6.652051z" opacity=".2"/>
    <path id="rect1193-2" d="m50.321613 30.016714h6.652051v6.652038h-6.652051z" opacity=".2"/>
    <path id="rect1193-93" d="m10.409295 43.320858h6.652051v6.652038h-6.652051z"/>
    <path id="rect1193-9-1" d="m17.06134 49.972919h6.652051v6.652038h-6.652051z"/>
    <path id="rect1193-7-9" d="m23.7134 43.320858h6.652051v6.652038h-6.652051z"/>
    <path id="rect1193-3-4" d="m30.365459 49.972919h6.652051v6.652038h-6.652051z"/>
    <path id="rect1193-6-7" d="m37.017506 43.320858h6.652051v6.652038h-6.652051z"/>
    <path id="rect1193-1-8" d="m43.669548 49.972889h6.652051v6.652038h-6.652051z"/>
    <path id="rect1193-2-4" d="m50.321613 43.320827h6.652051v6.652038h-6.652051z"/>
    <path id="rect1193-93-5" d="m39.701172 214.02539c.163663 2.57545.334415 5.10254.679687 7.17969.44164 2.65689 1.052142 4.9277 1.886719 6.86719.417289.96974.890096 1.85698 1.425781 2.66796.535686.81099 1.13521 1.54694 1.802735 2.21289.667525.66596 1.40399 1.26222 2.216797 1.79688.812806.53466 1.702298 1.00674 2.673828 1.42383 1.94306.83417 4.216394 1.44825 6.875 1.89453 2.091516.35108 4.630793.53138 7.224609.70312v-24.74609z" transform="scale(.26457031)"/>
    <path id="rect1193-7-9-0" d="m23.7134 56.624977h6.652051v6.652038h-6.652051z"/>
    <path id="rect1193-6-7-3" d="m37.017506 56.624977h6.652051v6.652038h-6.652051z"/>
    <path id="rect1193-2-4-6" d="m190.20117 238.76953c2.58229-.17169 5.11221-.35095 7.19336-.70117 2.65185-.44626 4.91755-1.06038 6.85352-1.89453.96798-.41708 1.85451-.88918 2.66406-1.42383s1.54221-1.13093 2.20703-1.79688c.66482-.66594 1.26114-1.40191 1.79492-2.21289.53379-.81097 1.00543-1.69823 1.42188-2.66796.83288-1.93948 1.44493-4.21029 1.89062-6.86719.34844-2.07714.52582-4.60425.69727-7.17969h-24.72266z" transform="scale(.26457031)"/>
    <path id="rect1348" d="m10.409295 49.972889h6.652055v6.652056h-6.652055z" opacity=".4"/>
    <path id="rect1352" d="m17.06134 56.624954h6.652055v6.652056h-6.652055z" opacity=".4"/>
    <path id="rect1354" d="m30.365459 56.624954h6.652048v6.652062h-6.652048z" opacity=".4"/>
    <path id="rect1356" d="m37.017506 49.972889h6.652057v6.652049h-6.652057z" opacity=".4"/>
    <path id="rect1358" d="m43.669548 56.624954h6.652055v6.652056h-6.652055z" opacity=".4"/>
    <path id="rect1372" d="m23.7134 49.972889h6.652055v6.652056h-6.652055z" opacity=".4"/>
    <path id="rect1374" d="m50.321613 49.972889h6.652055v6.652056h-6.652055z" opacity=".4"/>
  </g>
</svg>
