<svg height="256" viewBox="0 0 67.73 67.73" width="256" xmlns="http://www.w3.org/2000/svg" xmlns:xlink="http://www.w3.org/1999/xlink"><linearGradient id="a" gradientTransform="matrix(0 -.11988342 -.11987999 0 67.013156 62.749399)" gradientUnits="userSpaceOnUse" x1="529.65515" x2="-35.310345" y1="401.58368" y2="119.09284"><stop offset="0" stop-color="#2f5fdd"/><stop offset="1" stop-color="#80a3fa"/></linearGradient><linearGradient id="b" gradientUnits="userSpaceOnUse" x1="88" x2="488" y1="88" y2="488"><stop offset="0" stop-opacity=".588235"/><stop offset=".88" stop-opacity="0"/><stop offset="1"/></linearGradient><filter id="c" color-interpolation-filters="sRGB" height="1.087725" width="1.105998" x="-.052999" y="-.043863"><feGaussianBlur stdDeviation="8.4801079"/></filter><filter id="d" color-interpolation-filters="sRGB" height="1.021931" width="1.0265" x="-.01325" y="-.010966"><feGaussianBlur stdDeviation="2.120027"/></filter><path d="m189.84323 74c-70.59344 0-78.18921 7.250835-77.84323 77.98706v146.01294 146.01294c-.34598 70.73623 7.24979 77.98706 77.84323 77.98706h196.31354c70.59344 0 76.00668-7.27384 77.84323-77.98706v-146.01294-146.01294c0-70.737067-7.24979-77.98706-77.84323-77.98706z" filter="url(#d)" opacity=".1" transform="matrix(.13228516 0 0 .13228516 -4.409451 -6.038882)"/><path d="m189.84323 74c-70.59344 0-78.18921 7.250835-77.84323 77.98706v146.01294 146.01294c-.34598 70.73623 7.24979 77.98706 77.84323 77.98706h196.31354c70.59344 0 77.84323-7.24999 77.84323-77.98706v-146.01294-146.01294c0-70.737067-7.24979-77.98706-77.84323-77.98706z" fill="url(#b)" filter="url(#c)" opacity=".3" transform="matrix(.13228516 0 0 .13228516 -4.409451 -6.038882)"/><path d="m46.671928 3.4856493c9.338467 0 10.343273.959178 10.297505 10.3165307v19.315345 19.315344c.04577 9.357355-.959038 10.316531-10.297505 10.316531h-25.969365c-9.338464 0-10.297505-.959068-10.297505-10.316531v-19.315344-19.315345c0-9.3574637.959041-10.3165307 10.297505-10.3165307z" fill="url(#a)"/><path d="m31.572111 25.974126v6.878829c0 .293143.235997.52914.529141.52914h3.174844c.293144 0 .529141-.235997.529141-.52914v-6.878829zm1.058281 4.233125h2.116563v2.116563h-2.116563z" opacity=".2"/><path d="m33.688674 3.7502203h-2.116563v2.116562h2.116563zm0 2.116562v2.116563h2.116563v-2.116563zm0 2.116563h-2.116563v2.1165617h2.116563zm0 2.1165617v2.116563h2.116563v-2.116563zm0 2.116563h-2.116563v2.116562h2.116563zm0 2.116562v2.116563h2.116563v-2.116563zm0 2.116563h-2.116563v2.116562h2.116563zm0 2.116562v2.116563h2.116563v-2.116563zm0 2.116563h-2.116563v2.116562h2.116563zm0 2.116562v2.116563h2.116563v-2.116563z" opacity=".2"/><g fill="#fff"><path d="m31.572111 25.709556v6.878828c0 .293144.235997.529141.529141.529141h3.174844c.293144 0 .529141-.235997.529141-.529141v-6.878828zm1.058281 4.233125h2.116563v2.116563h-2.116563z"/><path d="m33.688674 3.4856503h-2.116563v2.116562h2.116563zm0 2.116562v2.116563h2.116563v-2.116563zm0 2.116563h-2.116563v2.116562h2.116563zm0 2.116562v2.1165617h2.116563v-2.1165617zm0 2.1165617h-2.116563v2.116563h2.116563zm0 2.116563v2.116562h2.116563v-2.116562zm0 2.116562h-2.116563v2.116563h2.116563zm0 2.116563v2.116562h2.116563v-2.116562zm0 2.116562h-2.116563v2.116563h2.116563zm0 2.116563v2.116562h2.116563v-2.116562z"/><path d="m40.305363 38.966407c-.939158.0541-1.516662 1.116236-1.40037 1.979105.06627.716377.885715 1.189799 1.539891.89397.851374-.345238 1.511292-1.430161 1.079976-2.317583-.250667-.400665-.767425-.566392-1.219497-.555492zm5.164796.03611c-.480949.206815-.797163.692037-1.105811 1.098073-.759872 1.374032-.808487 2.991126-1.216931 4.480128-.400308 1.300257-1.12535 2.481471-1.867998 3.599082-.346085.426725-.672353 1.127255-1.328024 1.030898-.488582-.206047-.564699-.858412-.542581-1.328024-.0066-.543057.37778-.958088.408232-1.490787.270325-1.032539.930507-1.931814 1.118735-2.986748.05225-.514748-.0093-1.251007-.581327-1.44171-.66636-.180635-1.396124.175119-1.67682.803527-.474573 1.013066-.623976 2.138191-.932716 3.206367-.308542 1.357696-.313966 2.830162.204116 4.136491.534736.947373 1.873859 1.17153 2.800715.705357.294916-.107151.482722-.481742.806119-.483158.236261.285392.09974.716351.05688 1.054141-.233272.694748-.419225 1.406389-.519325 2.134156-.276357 1.5709-.62682 3.149922-.612335 4.751419.119189.563323.826822.962427 1.340935.617493.724896-.337525 1.107293-1.371559.576168-2.030775.0066-.952414.290247-1.89058.441806-2.829156.201483-1.030832.378494-2.074377.483158-3.115938.278103-.459704.879458-.252294 1.27892-.108473.624518.204235 1.396481.565889 1.98687.07752.905558-.694656 1.728649-1.548874 2.147041-2.6302.697923-1.702483 1.168038-3.637339.633011-5.451603-.238431-.648925-.579568-1.376308-1.232422-1.692311-.706482-.259067-1.303762.348386-1.865432.671757-.20102.08532-.436541.351323-.661426.260946.202026-.779702.756566-1.543966.565837-2.379572-.102389-.2919-.385995-.622256-.705358-.658846zm-21.077775 2.62762c-.124744.0066-.239436.09022-.359127.126597-1.527709.636556-2.417948 2.158232-3.128862 3.570667-.6242 1.269792-1.278191 2.623135-1.152321 4.079648.0013.87459.591313 1.896427 1.550209 1.927434.975536.10014 1.686397-.69701 2.335666-1.297016.260337-.230652.516415-.534062.803526-.700172.129772.558799-.132787 1.130033-.268697 1.666475-.503226 1.396786-.636622 2.927577-1.356452 4.242438-.513319.884538-1.663195 1.137534-2.596612 1.064472-.632283-.03267-1.205699-.336044-1.72849-.653673-.512287.07342-.953207.744196-.570996 1.201427.565189.734473 1.565688 1.120944 2.477766.922371 1.311806-.109929 2.681341-.471041 3.635263-1.431365.512208-.469083.763285-1.129358.906867-1.793099.97977-3.651229 1.720316-7.403722 3.438899-10.797247-.117999-.672484-.717237-1.158725-1.359019-1.333183-.870264-.280457-1.791921-.430786-2.62762-.795774zm11.662803.0053c-1.804344.0459-3.545706.592902-5.25782 1.116156-.192263.213085.06614.545491.2222.738932.539114.612573 1.435082.449955 2.139289.304877.462521-.07236.927649-.222755 1.390026-.248034.282799.13202.311532.515634.04908.679509-.723561.554037-1.518912 1.02607-2.144462 1.700076-.884988.813342-1.644847 1.762118-2.49843 2.609536-.523492.582888-1.158818 1.088191-1.570886 1.759485-.22593.625656-.01389 1.369125.542567 1.749167.51627.454188 1.264183.514788 1.906772.359141 1.081748-.576168 2.340865-.685131 3.441477-1.237607.322208-.137457.705385-.507234.439227-.870701-.248087-.501069-.843001-.614927-1.348687-.54516-.659442-.004-1.318513.336891-1.971353.173108-.248564-.114029.118395-.324932.198944-.477972 1.923995-2.092341 4.030583-4.011786 5.916665-6.138865.434584-.517923-.0332-1.273483-.573588-1.498539-.272177-.133873-.579303-.184313-.881032-.173109zm11.30624 1.506292c.03849.04458.07778.08718.116279.131756.622706.769317.370028 1.836263.09564 2.689621-.37229 1.104396-.571882 2.407868-1.560555 3.162449-.506401.417029-1.439514.407915-1.705235-.281622-.247214-.688094.227187-1.33989.516732-1.932607.512076-.907066.683161-1.992598 1.395199-2.787803.316664-.395361.712051-.717105 1.141991-.981808zm-22.237863.289373c.496466.334708.595971 1.013993.356562 1.53472-.454321 1.097014-1.257728 1.999305-1.842177 3.025507-.453275.644202-.79928 1.422251-1.508884 1.829252-.210955.120777-.555479.17205-.648502-.116278-.447295-.812231.08479-1.702405.470234-2.420925.690767-1.254777 1.320643-2.631985 2.532018-3.480237.199327-.129772.408523-.336652.640749-.372052z" opacity=".5"/><path d="m33.688674 3.4856493v59.2637507h12.984614c9.338464 0 10.054627-.962123 10.297574-10.316435v-19.31544-19.315442c0-9.3574637-.95911-10.3164337-10.297574-10.3164337z" opacity=".08"/><path d="m10.406486 33.117525v19.31544c-.04577 9.357354.959108 10.316435 10.297574 10.316435h25.969228c9.338464 0 10.054627-.962123 10.297574-10.316435v-19.31544z" opacity=".08"/><path d="m41.096643 62.7494 15.874219-15.874219v5.948567c-.01384 8.994282-1.006077 9.925652-10.099734 9.925652z" opacity=".08"/></g><path d="m10.406486 51.903567v.529141c-.04577 9.357355.959107 10.316692 10.297574 10.316692h25.969228c9.338464 0 10.054627-.96238 10.297574-10.316692v-.529141c-.242947 9.354312-.95911 10.316692-10.297574 10.316692h-25.969228c-9.338467 0-10.343342-.959337-10.297574-10.316692z" opacity=".2"/><path d="m20.70406 3.4856493c-9.338466 0-10.343342.95934-10.297574 10.3166917v.529141c-.045768-9.3573517.959108-10.3166917 10.297574-10.3166917h25.969228c9.338467 0 10.297574.959228 10.297574 10.3166917v-.529141c0-9.3574627-.959107-10.3166917-10.297574-10.3166917z" fill="#fff" opacity=".4"/></svg>