<svg height="256" viewBox="0 0 67.73 67.73" width="256" xmlns="http://www.w3.org/2000/svg" xmlns:xlink="http://www.w3.org/1999/xlink"><linearGradient id="a" gradientTransform="matrix(0 -.11988342 -.11987999 0 67.013155 62.749399)" gradientUnits="userSpaceOnUse" x1="529.65515" x2="-35.310345" y1="401.58368" y2="119.09284"><stop offset="0" stop-color="#aea795"/><stop offset="1" stop-color="#c8c4b7"/></linearGradient><linearGradient id="b" gradientUnits="userSpaceOnUse" x1="88" x2="488" y1="88" y2="488"><stop offset="0" stop-opacity=".588235"/><stop offset=".88" stop-opacity="0"/><stop offset="1"/></linearGradient><filter id="c" color-interpolation-filters="sRGB" height="1.087725" width="1.105998" x="-.052999" y="-.043863"><feGaussianBlur stdDeviation="8.4801079"/></filter><filter id="d" color-interpolation-filters="sRGB" height="1.021931" width="1.0265" x="-.01325" y="-.010966"><feGaussianBlur stdDeviation="2.120027"/></filter><path d="m189.84323 74c-70.59344 0-78.18921 7.250835-77.84323 77.98706v146.01294 146.01294c-.34598 70.73623 7.24979 77.98706 77.84323 77.98706h196.31354c70.59344 0 76.00668-7.27384 77.84323-77.98706v-146.01294-146.01294c0-70.737067-7.24979-77.98706-77.84323-77.98706z" filter="url(#d)" opacity=".1" transform="matrix(.13228516 0 0 .13228516 -4.409451 -6.038882)"/><path d="m189.84323 74c-70.59344 0-78.18921 7.250835-77.84323 77.98706v146.01294 146.01294c-.34598 70.73623 7.24979 77.98706 77.84323 77.98706h196.31354c70.59344 0 77.84323-7.24999 77.84323-77.98706v-146.01294-146.01294c0-70.737067-7.24979-77.98706-77.84323-77.98706z" fill="url(#b)" filter="url(#c)" opacity=".3" transform="matrix(.13228516 0 0 .13228516 -4.409451 -6.038882)"/><path d="m46.671927 3.4856497c9.338467 0 10.343273.9591779 10.297505 10.3165303v19.315345 19.315344c.04577 9.357355-.959038 10.316531-10.297505 10.316531h-25.969365c-9.338463 0-10.297504-.959068-10.297504-10.316531v-19.315344-19.315345c0-9.3574638.959041-10.3165303 10.297504-10.3165303z" fill="url(#a)"/><path d="m31.57211 25.974126v6.878829c0 .293143.235997.52914.529141.52914h3.174844c.293144 0 .529141-.235997.529141-.52914v-6.878829zm1.058281 4.233125h2.116563v2.116563h-2.116563z" opacity=".2"/><path d="m33.688673 3.7502203h-2.116563v2.1165624h2.116563zm0 2.1165624v2.1165625h2.116563v-2.1165625zm0 2.1165625h-2.116563v2.1165618h2.116563zm0 2.1165618v2.116563h2.116563v-2.116563zm0 2.116563h-2.116563v2.116562h2.116563zm0 2.116562v2.116563h2.116563v-2.116563zm0 2.116563h-2.116563v2.116562h2.116563zm0 2.116562v2.116563h2.116563v-2.116563zm0 2.116563h-2.116563v2.116562h2.116563zm0 2.116562v2.116563h2.116563v-2.116563z" opacity=".2"/><path d="m31.57211 25.709556v6.878828c0 .293144.235997.529141.529141.529141h3.174844c.293144 0 .529141-.235997.529141-.529141v-6.878828zm1.058281 4.233125h2.116563v2.116563h-2.116563z" fill="#fff"/><path d="m33.688673 3.4856499h-2.116563v2.1165625h2.116563zm0 2.1165625v2.1165628h2.116563v-2.1165628zm0 2.1165628h-2.116563v2.116562h2.116563zm0 2.116562v2.1165618h2.116563v-2.1165618zm0 2.1165618h-2.116563v2.116563h2.116563zm0 2.116563v2.116562h2.116563v-2.116562zm0 2.116562h-2.116563v2.116563h2.116563zm0 2.116563v2.116562h2.116563v-2.116562zm0 2.116562h-2.116563v2.116563h2.116563zm0 2.116563v2.116562h2.116563v-2.116562z" fill="#fff"/><path d="m102 176.05273v63.94727h47.84375 2.06055 62.0957v-49.74219h-62.0957v-14.20508zm9.26562 9.77149h31.29297v9.43945c-8.15817 9.78632-13.3127 21.07077-13.79297 34.6836h-10.70703c.42134-11.72922 1.64116-23.26086 10.70703-32.83594h-17.5zm40.73438 6.17578h60v46h-60zm26.69629 6.83399v31.94531h6.75391v-31.94531zm-24.15235.19922v7.27929h10.4375l-10.84765 17.58985v7.07617h19.85742v-7.07617h-12.69336l13.10156-18.39844v-6.4707zm37.04297.0117v32.1211h7.3711v-11.3125h4.9082c7.85998-.0265 8.0678-21.0527-.41601-20.8086zm6.96094 6.875h2.87695c3.20156-.10835 3.26902 7.09848 0 6.6543l-2.6582.2207z" opacity=".4" transform="matrix(.26457031 0 0 .26457031 -7.055154 -8.155444)"/><g fill="#fff"><path d="m33.688673 3.4856497v59.2637503h12.984614c9.338464 0 10.054627-.962123 10.297574-10.316435v-19.31544-19.315442c0-9.3574636-.95911-10.3164333-10.297574-10.3164333z" opacity=".08"/><path d="m10.406485 33.117525v19.31544c-.04577 9.357354.959109 10.316435 10.297574 10.316435h25.969228c9.338464 0 10.054627-.962123 10.297574-10.316435v-19.31544z" opacity=".08"/><path d="m41.096642 62.7494 15.874219-15.874219v5.948567c-.01384 8.994282-1.006077 9.925652-10.099734 9.925652z" opacity=".08"/></g><path d="m10.406485 51.903567v.529141c-.04577 9.357355.959107 10.316692 10.297574 10.316692h25.969228c9.338464 0 10.054627-.96238 10.297574-10.316692v-.529141c-.242947 9.354312-.95911 10.316692-10.297574 10.316692h-25.969228c-9.338467 0-10.343342-.959337-10.297574-10.316692z" opacity=".2"/><path d="m20.704059 3.4856497c-9.338466 0-10.343342.9593396-10.297574 10.3166913v.529141c-.045768-9.3573521.959108-10.3166917 10.297574-10.3166917h25.969228c9.338467 0 10.297574.9592282 10.297574 10.3166917v-.529141c0-9.3574631-.959107-10.3166913-10.297574-10.3166913z" fill="#fff" opacity=".4"/></svg>