<svg id="svg281" height="256" viewBox="0 0 67.73 67.73" width="256" xmlns="http://www.w3.org/2000/svg" xmlns:xlink="http://www.w3.org/1999/xlink">
  <linearGradient id="linearGradient4226-3" gradientTransform="matrix(0 -.11988342 .11987999 0 .362762 292.80976)" gradientUnits="userSpaceOnUse" x1="529.65515" x2="-35.310345" y1="401.58368" y2="119.09284">
    <stop id="stop4340" offset="0" stop-color="#f2f2f2"/>
    <stop id="stop4342" offset="1" stop-color="#f9f9f9"/>
  </linearGradient>
  <linearGradient id="linearGradient4358-6" gradientUnits="userSpaceOnUse" x1="88" x2="488" y1="88" y2="488">
    <stop id="stop4362" offset="0" stop-opacity=".588235"/>
    <stop id="stop4364" offset=".88" stop-opacity="0"/>
    <stop id="stop4366" offset="1"/>
  </linearGradient>
  <filter id="filter4380" color-interpolation-filters="sRGB" height="1.087725" width="1.105998" x="-.052999" y="-.043863">
    <feGaussianBlur id="feGaussianBlur4382" stdDeviation="8.4801079"/>
  </filter>
  <filter id="filter4346-7" color-interpolation-filters="sRGB" height="1.021931" width="1.0265" x="-.01325" y="-.010966">
    <feGaussianBlur id="feGaussianBlur4348" stdDeviation="2.120027"/>
  </filter>
  <g id="g279" transform="translate(0 -229.26665)">
    <path id="path1163" d="m20.703991 233.54601c-9.338465 0-10.343273.95918-10.297505 10.31653v19.31535 19.31534c-.04577 9.35736.95904 10.31653 10.297505 10.31653h25.969365c9.338465 0 10.297506-.95906 10.297506-10.31653v-19.31534-19.31535c0-9.35746-.959041-10.31653-10.297506-10.31653z" fill="none" opacity=".2" stroke="#000" stroke-width="1.058281"/>
    <path id="rect4158-9" d="m189.84323 74c-70.59344 0-78.18921 7.250835-77.84323 77.98706v146.01294 146.01294c-.34598 70.73623 7.24979 77.98706 77.84323 77.98706h196.31354c70.59344 0 76.00668-7.27384 77.84323-77.98706v-146.01294-146.01294c0-70.737067-7.24979-77.98706-77.84323-77.98706z" filter="url(#filter4346-7)" opacity=".1" transform="matrix(.13228516 0 0 .13228516 -4.409451 224.02148)"/>
    <path id="path4350" d="m189.84323 74c-70.59344 0-78.18921 7.250835-77.84323 77.98706v146.01294 146.01294c-.34598 70.73623 7.24979 77.98706 77.84323 77.98706h196.31354c70.59344 0 77.84323-7.24999 77.84323-77.98706v-146.01294-146.01294c0-70.737067-7.24979-77.98706-77.84323-77.98706z" fill="url(#linearGradient4358-6)" filter="url(#filter4380)" opacity=".3" transform="matrix(.13228516 0 0 .13228516 -4.409451 224.02148)"/>
    <path id="rect4158" d="m20.703991 233.54601c-9.338465 0-10.343273.95918-10.297505 10.31653v19.31535 19.31534c-.04577 9.35736.95904 10.31653 10.297505 10.31653h25.969365c9.338465 0 10.297506-.95906 10.297506-10.31653v-19.31534-19.31535c0-9.35746-.959041-10.31653-10.297506-10.31653z" fill="url(#linearGradient4226-3)"/>
    <path id="path931" d="m20.70406 233.54601c-9.338466 0-10.343342.95934-10.297574 10.3167v.52914c-.04577-9.35736.959108-10.3167 10.297574-10.3167h25.969228c9.338467 0 10.297574.95923 10.297574 10.3167v-.52914c0-9.35747-.959107-10.3167-10.297574-10.3167z" fill="#fff" opacity=".6"/>
    <path id="path4204" d="m32.637726 250.57692v1.05021h2.100427v-1.05021zm0 2.10043v1.05021h2.100427v-1.05021zm0 2.10042v6.30128h-7.351493c-.07015-.002-.140307.004-.209201.0168-3.233587.0931-6.050534 2.29115-6.892026 5.43158-.859875 3.20905.548335 6.60931 3.425501 8.27043 2.853325 1.64737 6.46104 1.18315 8.811943-1.11585h6.531024c2.350903 2.299 5.958616 2.76322 8.811941 1.11585 2.877165-1.66114 4.285375-5.06138 3.4255-8.27043-.842564-3.14442-3.665537-5.34373-6.90433-5.43157-.06493-.013-.130984-.0168-.196938-.0168h-7.351494v-6.30129zm-7.351493 8.40171h16.803414c2.381736 0 4.458218 1.59261 5.074673 3.89318.616433 2.30058-.386501 4.71657-2.449141 5.90745-1.949468 1.12552-4.361071.86551-6.04282-.58665-.274357-.27227-.54397-.81927-1.037904-.81227h-7.893028c-.491185-.006-.827755.56226-1.033787.80818-1.68194 1.45549-4.095792 1.71722-6.04694.59074-2.062661-1.19088-3.061479-3.60687-2.445024-5.90745.616433-2.30059 2.688821-3.89318 5.070557-3.89318zm-1.050212 2.10043v2.10042h-2.100427v2.10043h2.100427v2.10043h2.100426v-2.10043h2.100426v-2.10043h-2.100426v-2.10042zm17.853626 0c-.58001 0-1.050212.4702-1.050212 1.05021s.470202 1.05021 1.050212 1.05021c.580012 0 1.050214-.4702 1.050214-1.05021s-.470202-1.05021-1.050214-1.05021zm-2.100427 2.10042c-.580012 0-1.050212.4702-1.050212 1.05022 0 .58001.4702 1.05021 1.050212 1.05021.580013 0 1.050215-.4702 1.050215-1.05021 0-.58002-.470202-1.05022-1.050215-1.05022zm4.200856 0c-.580013 0-1.050215.4702-1.050215 1.05022 0 .58001.470202 1.05021 1.050215 1.05021.580009 0 1.050212-.4702 1.050212-1.05021 0-.58002-.470203-1.05022-1.050212-1.05022zm-2.100429 2.10043c-.58001 0-1.050212.4702-1.050212 1.05021s.470202 1.05022 1.050212 1.05022c.580012 0 1.050214-.47021 1.050214-1.05022s-.470202-1.05021-1.050214-1.05021z" fill="#888"/>
    <path id="rect7917" d="m199.99994-367.99997h16v15.999999h-16z" fill="none" transform="matrix(0 2.1004267 -2.1004267 0 -722.46562 -173.71075)"/>
  </g>
</svg>
