<svg height="256" viewBox="0 0 67.73 67.73" width="256" xmlns="http://www.w3.org/2000/svg" xmlns:xlink="http://www.w3.org/1999/xlink">
  <linearGradient id="linearGradient4226" gradientTransform="matrix(0 -.11988932 -.11988589 0 67.016455 292.5483)" gradientUnits="userSpaceOnUse" x1="529.655" x2="-35.31" y1="401.584" y2="119.093">
    <stop offset="0" stop-color="#da1636"/>
    <stop offset="1" stop-color="#f22c42"/>
  </linearGradient>
  <linearGradient id="linearGradient4358" gradientUnits="userSpaceOnUse" x1="88" x2="488" y1="88" y2="488">
    <stop offset="0" stop-opacity=".588235"/>
    <stop offset=".88" stop-opacity="0"/>
    <stop offset="1"/>
  </linearGradient>
  <filter id="filter4346" color-interpolation-filters="sRGB" height="1.022" width="1.026" x="-.01" y="-.01">
    <feGaussianBlur stdDeviation="2.12"/>
  </filter>
  <g transform="translate(0 -229.26665)">
    <path d="m189.84323 74c-70.59344 0-78.18921 7.250835-77.84323 77.98706v292.02588c-.34598 70.73623 7.24979 77.98706 77.84323 77.98706h196.31354c70.59344 0 76.00668-7.27384 77.84323-77.98706v-292.02588c0-70.737067-7.24979-77.98706-77.84323-77.98706z" filter="url(#filter4346)" opacity=".1" transform="matrix(.13229167 0 0 .13229167 -4.409668 223.75664)"/>
    <path d="m189.84323 74c-70.59344 0-78.18921 7.250835-77.84323 77.98706v292.02588c-.34598 70.73623 7.24979 77.98706 77.84323 77.98706h196.31354c70.59344 0 77.84323-7.24999 77.84323-77.98706v-292.02588c0-70.737067-7.24979-77.98706-77.84323-77.98706z" fill="url(#linearGradient4358)" opacity=".3" transform="matrix(.13229167 0 0 .13229167 -4.409668 223.75664)" visibility="hidden"/>
    <path d="m46.674225 233.28164c9.338927 0 10.343782.95922 10.298012 10.31704v38.63259c.04577 9.35781-.959085 10.31704-10.298012 10.31704h-25.970643c-9.338924 0-10.298012-.95912-10.298012-10.31704v-38.63259c0-9.35793.959088-10.31704 10.298012-10.31704z" fill="url(#linearGradient4226)"/>
    <g fill="#fff">
      <path d="m27.59135 265.74721c1.054672-2.0672 2.25329-4.39629 3.212658-6.73461l.379333-.92307c-1.253106-4.76846-2.004517-8.59612-1.333232-11.07113.18071-.64527.928068-1.03676 1.727086-1.03676l.486894.007h.08937c1.093888-.0168 1.608968 1.37472 1.667414 1.91572.09653.90101-.320323 2.42589-.320323 2.42589 0-.61575.02413-1.61075-.364535-2.46935-.452392-.99349-.884518-1.587-1.271958-1.68108-.195606.13065-.385746.4012-.450884.92166-.134898.72973-.175339 1.65082-.175339 2.12565 0 1.6776.330313 3.89186.979445 6.17447.122454-.35341.230203-.69297.315891-1.01112.133107-.50142.979353-3.82521.979353-3.82521s-.213236 4.42447-.511122 5.76317c-.06382.2829-.134237.56269-.207579.84908 1.070414 2.99084 2.795239 5.66023 4.852829 7.58141.811271.7582 1.835872 1.36953 2.805607 1.92675 2.117736-.3026 4.067578-.44551 5.694268-.42751 2.158174.0285 3.742348.34766 4.383844.97954.3141.30713.441552.67807.481145 1.09389.0094.16177-.06938.54185-.09248.63725.0231-.11548.0231-.68335-1.709365-1.23632-1.364438-.43618-3.918066-.42261-6.982251-.0964 3.5442 1.73397 6.997052 2.59549 8.091316 2.07899.267533-.13037.592005-.57494.592005-.57494s-.192873.87632-.331354 1.09539c-.176752.23803-.52347.49585-.852183.58277-1.728123.46107-6.226503-.60586-10.148057-2.84662-4.381394.64527-9.193123 1.83729-13.050102 3.10237-3.790239 6.64241-6.639776 9.69312-8.957924 8.53258l-.852279-.42842c-.346435-.19815-.39932-.68052-.319192-1.07334.270267-1.32229 1.92835-3.3139 5.258936-5.30267.358502-.21691 1.955406-1.06127 1.955406-1.06127s-1.182217 1.14422-1.459178 1.36877c-2.658361 2.17844-4.620364 4.9191-4.571439 5.9816l.0096.0927c2.258194-.32183 5.644682-4.91815 9.998361-13.43679m1.379707.70645c-.727184 1.36953-1.437965 2.63932-2.094167 3.80522 3.629891-1.52082 7.536739-2.49405 11.255709-3.18541-.499808-.34511-.985006-.71059-1.441548-1.0969-2.047975-1.73388-3.609337-3.89705-4.741122-6.17334-.717756 1.93372-1.57126 3.98858-2.978872 6.65043"/>
      <path d="m33.690332 233.28164v59.26667h12.985253c9.338924 0 10.055122-.96217 10.298081-10.31695v-38.63278c0-9.35792-.959157-10.31694-10.298081-10.31694z" opacity=".08"/>
      <path d="m10.406998 262.91497v19.31639c-.04577 9.35782.959155 10.31695 10.298081 10.31695h25.970506c9.338924 0 10.055122-.96217 10.298081-10.31695v-19.31639z" opacity=".08"/>
      <path d="m41.098666 292.54831 15.875-15.875v5.94886c-.01384 8.99472-1.006126 9.92614-10.100231 9.92614z" opacity=".08"/>
    </g>
    <path d="m10.406998 281.70194v.52917c-.04577 9.35781.959154 10.3172 10.298081 10.3172h25.970506c9.338924 0 10.055122-.96243 10.298081-10.3172v-.52917c-.242959 9.35477-.959157 10.3172-10.298081 10.3172h-25.970506c-9.338927 0-10.343852-.95939-10.298081-10.3172z" opacity=".2"/>
    <path d="m20.705079 233.28164c-9.338927 0-10.343852.95939-10.298081 10.3172v.52916c-.04577-9.35781.959154-10.3172 10.298081-10.3172h25.970506c9.338927 0 10.298081.95928 10.298081 10.3172v-.52916c0-9.35793-.959154-10.3172-10.298081-10.3172z" fill="#fff" opacity=".4"/>
  </g>
</svg>
