<?xml version="1.0" encoding="UTF-8" standalone="no"?>
<svg
   xmlns:dc="http://purl.org/dc/elements/1.1/"
   xmlns:cc="http://creativecommons.org/ns#"
   xmlns:rdf="http://www.w3.org/1999/02/22-rdf-syntax-ns#"
   xmlns:svg="http://www.w3.org/2000/svg"
   xmlns="http://www.w3.org/2000/svg"
   xmlns:xlink="http://www.w3.org/1999/xlink"
   xmlns:sodipodi="http://sodipodi.sourceforge.net/DTD/sodipodi-0.dtd"
   xmlns:inkscape="http://www.inkscape.org/namespaces/inkscape"
   height="256"
   viewBox="0 0 67.73 67.73"
   width="256"
   version="1.1"
   id="svg42"
   sodipodi:docname="application-vnd.squashfs.svg"
   inkscape:version="0.92.5 (2060ec1f9f, 2020-04-08)">
  <metadata
     id="metadata48">
    <rdf:RDF>
      <cc:Work
         rdf:about="">
        <dc:format>image/svg+xml</dc:format>
        <dc:type
           rdf:resource="http://purl.org/dc/dcmitype/StillImage" />
        <dc:title />
      </cc:Work>
    </rdf:RDF>
  </metadata>
  <defs
     id="defs46">
    <linearGradient
       inkscape:collect="always"
       xlink:href="#linearGradient1048"
       id="linearGradient11065"
       x1="104"
       y1="44"
       x2="200"
       y2="268"
       gradientUnits="userSpaceOnUse"
       gradientTransform="matrix(0.14009605,0,0,0.14009605,12.393281,5.0087514)" />
    <linearGradient
       inkscape:collect="always"
       id="linearGradient1048">
      <stop
         style="stop-color:#cdcdcd;stop-opacity:1;"
         offset="0"
         id="stop1044" />
      <stop
         style="stop-color:#d9d9d9;stop-opacity:1"
         offset="1"
         id="stop1046" />
    </linearGradient>
    <linearGradient
       gradientUnits="userSpaceOnUse"
       y2="119.09284"
       x2="-35.310345"
       y1="401.58368"
       x1="529.65515"
       id="linearGradient4226"
       xlink:href="#linearGradient4338"
       inkscape:collect="always"
       gradientTransform="matrix(0,-0.11988342,0.11987999,0,0.3627619,62.749398)" />
    <linearGradient
       inkscape:collect="always"
       id="linearGradient4338">
      <stop
         style="stop-color:#f2f2f2;stop-opacity:1"
         offset="0"
         id="stop4340" />
      <stop
         style="stop-color:#f9f9f9;stop-opacity:1"
         offset="1"
         id="stop4342" />
    </linearGradient>
    <linearGradient
       inkscape:collect="always"
       xlink:href="#linearGradient4360"
       id="linearGradient4358"
       x1="88"
       y1="88"
       x2="488"
       y2="488"
       gradientUnits="userSpaceOnUse" />
    <linearGradient
       id="linearGradient4360"
       inkscape:collect="always">
      <stop
         id="stop4362"
         offset="0"
         style="stop-color:#000000;stop-opacity:0.58823532" />
      <stop
         style="stop-color:#000000;stop-opacity:0"
         offset="0.88"
         id="stop4364" />
      <stop
         id="stop4366"
         offset="1"
         style="stop-color:#000000;stop-opacity:1" />
    </linearGradient>
    <filter
       inkscape:collect="always"
       style="color-interpolation-filters:sRGB"
       id="filter4380"
       x="-0.052999184"
       width="1.1059984"
       y="-0.043862626"
       height="1.0877253">
      <feGaussianBlur
         inkscape:collect="always"
         stdDeviation="8.4801079"
         id="feGaussianBlur4382" />
    </filter>
    <filter
       inkscape:collect="always"
       style="color-interpolation-filters:sRGB"
       id="filter4346"
       x="-0.013249796"
       width="1.0264996"
       y="-0.010965657"
       height="1.0219313">
      <feGaussianBlur
         inkscape:collect="always"
         stdDeviation="2.120027"
         id="feGaussianBlur4348" />
    </filter>
  </defs>
  <sodipodi:namedview
     pagecolor="#ffffff"
     bordercolor="#666666"
     borderopacity="1"
     objecttolerance="10"
     gridtolerance="10"
     guidetolerance="10"
     inkscape:pageopacity="0"
     inkscape:pageshadow="2"
     inkscape:window-width="1920"
     inkscape:window-height="1016"
     id="namedview44"
     showgrid="false"
     inkscape:zoom="0.921875"
     inkscape:cx="-263.59322"
     inkscape:cy="128"
     inkscape:window-x="0"
     inkscape:window-y="27"
     inkscape:window-maximized="1"
     inkscape:current-layer="svg42" />
  <linearGradient
     id="a"
     gradientTransform="matrix(0 -.11988342 .11987999 0 .362762 292.01605)"
     gradientUnits="userSpaceOnUse"
     x1="529.65515"
     x2="-35.310345"
     y1="401.58368"
     y2="119.09284">
    <stop
       offset="0"
       stop-color="#f2f2f2"
       id="stop2" />
    <stop
       offset="1"
       stop-color="#f9f9f9"
       id="stop4" />
  </linearGradient>
  <linearGradient
     id="b"
     gradientUnits="userSpaceOnUse"
     x1="88"
     x2="488"
     y1="88"
     y2="488">
    <stop
       offset="0"
       stop-opacity=".588235"
       id="stop7" />
    <stop
       offset=".88"
       stop-opacity="0"
       id="stop9" />
    <stop
       offset="1"
       id="stop11" />
  </linearGradient>
  <filter
     id="c"
     color-interpolation-filters="sRGB"
     height="1.087725"
     width="1.105998"
     x="-.052999"
     y="-.043863">
    <feGaussianBlur
       stdDeviation="8.4801079"
       id="feGaussianBlur14" />
  </filter>
  <filter
     id="d"
     color-interpolation-filters="sRGB"
     height="1.021931"
     width="1.0265"
     x="-.01325"
     y="-.010966">
    <feGaussianBlur
       stdDeviation="2.120027"
       id="feGaussianBlur17" />
  </filter>
  <path
     sodipodi:nodetypes="scccssscsss"
     inkscape:connector-curvature="0"
     id="path1163"
     d="m 20.703991,3.4856494 c -9.338465,0 -10.343273,0.959178 -10.297505,10.3165296 v 19.315345 19.315344 c -0.04577,9.357355 0.95904,10.316531 10.297505,10.316531 h 25.969365 c 9.338465,0 10.297506,-0.959068 10.297506,-10.316531 V 33.117524 13.802179 c 0,-9.3574636 -0.959041,-10.3165296 -10.297506,-10.3165296 z"
     style="color:#000000;display:inline;overflow:visible;visibility:visible;opacity:0.2;fill:none;fill-opacity:1;fill-rule:nonzero;stroke:#000000;stroke-width:1.0582813;stroke-miterlimit:4;stroke-dasharray:none;stroke-opacity:1;marker:none;enable-background:accumulate" />
  <path
     style="color:#000000;display:inline;overflow:visible;visibility:visible;opacity:0.1;fill:#000000;fill-opacity:1;fill-rule:nonzero;stroke:none;stroke-width:2;marker:none;filter:url(#filter4346);enable-background:accumulate"
     d="M 189.84323,74 C 119.24979,74 111.65402,81.250835 112,151.98706 V 298 444.01294 C 111.65402,514.74917 119.24979,522 189.84323,522 H 386.15677 C 456.75021,522 462.16345,514.72616 464,444.01294 V 298 151.98706 C 464,81.249993 456.75021,74 386.15677,74 Z"
     id="rect4158-9"
     inkscape:connector-curvature="0"
     sodipodi:nodetypes="scccssscsss"
     transform="matrix(0.13228516,0,0,0.13228516,-4.4094514,-6.0388816)" />
  <path
     sodipodi:nodetypes="scccssscsss"
     inkscape:connector-curvature="0"
     id="path4350"
     d="M 189.84323,74 C 119.24979,74 111.65402,81.250835 112,151.98706 V 298 444.01294 C 111.65402,514.74917 119.24979,522 189.84323,522 H 386.15677 C 456.75021,522 464,514.75001 464,444.01294 V 298 151.98706 C 464,81.249993 456.75021,74 386.15677,74 Z"
     style="color:#000000;display:inline;overflow:visible;visibility:visible;opacity:0.3;fill:url(#linearGradient4358);fill-opacity:1;fill-rule:nonzero;stroke:none;stroke-width:2;marker:none;filter:url(#filter4380);enable-background:accumulate"
     transform="matrix(0.13228516,0,0,0.13228516,-4.4094514,-6.0388816)" />
  <path
     style="color:#000000;display:inline;overflow:visible;visibility:visible;fill:url(#linearGradient4226);fill-opacity:1;fill-rule:nonzero;stroke:none;stroke-width:0.26457033;marker:none;enable-background:accumulate"
     d="m 20.703991,3.4856494 c -9.338465,0 -10.343273,0.959178 -10.297505,10.3165296 v 19.315345 19.315344 c -0.04577,9.357355 0.95904,10.316531 10.297505,10.316531 h 25.969365 c 9.338465,0 10.297506,-0.959068 10.297506,-10.316531 V 33.117524 13.802179 c 0,-9.3574636 -0.959041,-10.3165296 -10.297506,-10.3165296 z"
     id="rect4158"
     inkscape:connector-curvature="0"
     sodipodi:nodetypes="scccssscsss" />
  <path
     style="color:#000000;display:inline;overflow:visible;visibility:visible;opacity:0.6;fill:#ffffff;fill-opacity:1;fill-rule:nonzero;stroke:none;stroke-width:0.26457033;marker:none;enable-background:accumulate"
     d="m 20.70406,3.4856494 c -9.338467,0 -10.343342,0.959339 -10.297574,10.3166906 v 0.529141 C 10.360718,4.9741294 11.365593,4.0147894 20.70406,4.0147894 h 25.969228 c 9.338467,0 10.297574,0.959229 10.297574,10.3166916 V 13.80234 c 0,-9.3574626 -0.959107,-10.3166906 -10.297574,-10.3166906 z"
     id="path931"
     inkscape:connector-curvature="0" />
  <path
     style="color:#000000;display:inline;overflow:visible;visibility:visible;opacity:0.4;fill:#ffffff;fill-opacity:1;fill-rule:nonzero;stroke:none;stroke-width:2.11656237;stroke-linecap:butt;stroke-linejoin:miter;stroke-miterlimit:4;stroke-dasharray:none;stroke-dashoffset:0;stroke-opacity:1;marker:none;enable-background:accumulate"
     d="M 41.096643,62.749399 56.970862,46.87518 v 5.948567 c -0.01384,8.994282 -1.006077,9.925652 -10.099734,9.925652 z"
     id="path4254"
     inkscape:connector-curvature="0"
     sodipodi:nodetypes="cccsc" />
  <circle
     style="display:inline;opacity:0.1;fill:#000000;fill-opacity:1;stroke:none;stroke-width:0.14009605;stroke-linecap:round;stroke-linejoin:round;stroke-miterlimit:4;stroke-dasharray:none;stroke-opacity:1;enable-background:new"
     id="path11042-4"
     r="15.690759"
     cy="27.003834"
     cx="33.687878" />
  <circle
     style="display:inline;opacity:1;fill:url(#linearGradient11065);fill-opacity:1;stroke:none;stroke-width:0.14009605;stroke-linecap:round;stroke-linejoin:round;stroke-miterlimit:4;stroke-dasharray:none;stroke-opacity:1;enable-background:new"
     id="path11042"
     r="15.690759"
     cy="26.863731"
     cx="33.687878" />
  <path
     inkscape:connector-curvature="0"
     style="display:inline;opacity:0.2;fill:#ffffff;fill-opacity:1;stroke:none;stroke-width:0.14009605;stroke-linecap:round;stroke-linejoin:round;stroke-miterlimit:4;stroke-dasharray:none;stroke-opacity:1;enable-background:new"
     d="M 33.68788,11.172979 A 15.690758,15.690758 0 0 0 17.997123,26.863737 H 33.68788 Z m 0,15.690758 V 42.554496 A 15.690758,15.690758 0 0 0 49.378638,26.863737 Z"
     id="path11042-53-3" />
  <path
     inkscape:connector-curvature="0"
     style="display:inline;opacity:0.02000002;fill:#000000;fill-opacity:1;stroke:none;stroke-width:0.14009605;stroke-linecap:round;stroke-linejoin:round;stroke-miterlimit:4;stroke-dasharray:none;stroke-opacity:1;enable-background:new"
     d="m 44.782922,15.768695 a 15.690758,15.690758 0 0 0 -22.190084,0 L 33.68788,26.863737 Z M 33.68788,26.863737 22.592838,37.95878 a 15.690758,15.690758 0 0 0 22.190084,0 z"
     id="path11042-53-6" />
  <path
     style="display:inline;opacity:1;fill:#faf8f6;fill-opacity:1;stroke:none;stroke-width:0.14009605;stroke-linecap:round;stroke-linejoin:round;stroke-miterlimit:4;stroke-dasharray:none;stroke-opacity:1;enable-background:new"
     d="m 29.407743,11.768262 a 15.690758,15.690758 0 0 0 -0.284907,0.09646 15.690758,15.690758 0 0 1 0.758771,-0.205579 15.690758,15.690758 0 0 0 -0.473864,0.109124 z m 1.235597,-0.284619 a 15.690758,15.690758 0 0 1 0.772947,-0.128359 15.690758,15.690758 0 0 0 -0.772947,0.128359 z m -2.261,0.631611 a 15.690758,15.690758 0 0 0 -0.733688,0.280159 15.690758,15.690758 0 0 1 0.733688,-0.280159 z m 3.813363,-0.858903 a 15.690758,15.690758 0 0 1 0.778768,-0.0506 15.690758,15.690758 0 0 0 -0.778768,0.0506 z m -5.257988,1.461846 a 15.690758,15.690758 0 0 0 -0.705241,0.353556 15.690758,15.690758 0 0 1 0.705241,-0.353556 z m 6.823528,-1.533182 a 15.690758,15.690758 0 0 1 0.782546,0.02799 15.690758,15.690758 0 0 0 -0.782546,-0.02799 z m -8.200598,2.277228 a 15.690758,15.690758 0 0 0 -0.667249,0.422407 15.690758,15.690758 0 0 1 0.667249,-0.422407 z m 9.763066,-2.191939 a 15.690758,15.690758 0 0 1 0.77795,0.105987 15.690758,15.690758 0 0 0 -0.77795,-0.105987 z m -11.060487,3.070444 a 15.690758,15.690758 0 0 0 -0.621817,0.487286 15.690758,15.690758 0 0 1 0.621817,-0.487286 z m 12.611842,-2.828926 a 15.690758,15.690758 0 0 1 0.758055,0.181855 15.690758,15.690758 0 0 0 -0.758055,-0.181855 z M 22.833965,15.545504 A 15.690758,15.690758 0 0 0 22.65602,15.71131 15.690758,15.690758 0 0 1 22.833965,15.545504 Z M 22.59918,15.773 a 15.690758,15.690758 0 0 0 -2.498055,3.245196 l 13.588482,7.845314 z m 11.090427,11.09051 11.090429,11.09051 a 15.690758,15.690758 0 0 0 2.498057,-3.245193 z m 4.701624,-14.957115 a 15.690758,15.690758 0 0 1 0.737681,0.256998 15.690758,15.690758 0 0 0 -0.737681,-0.256998 z m 1.468895,0.543776 a 15.690758,15.690758 0 0 1 0.711982,0.331303 15.690758,15.690758 0 0 0 -0.711982,-0.331303 z m 1.408133,0.688097 a 15.690758,15.690758 0 0 1 0.257377,0.152843 l 0.0093,-0.01609 A 15.690758,15.690758 0 0 0 41.26827,13.138264 Z m -15.414679,27.297641 -0.0093,0.01609 a 15.690758,15.690758 0 0 0 0.266666,0.136756 15.690758,15.690758 0 0 1 -0.257379,-0.152842 z m 0.95353,0.509634 a 15.690758,15.690758 0 0 0 0.711982,0.331305 15.690758,15.690758 0 0 1 -0.711982,-0.331305 z m 1.443196,0.618084 a 15.690758,15.690758 0 0 0 0.737678,0.256998 15.690758,15.690758 0 0 1 -0.737678,-0.256998 z m 16.472892,-3.54792 a 15.690758,15.690758 0 0 1 -0.177947,0.165806 15.690758,15.690758 0 0 0 0.177947,-0.165806 z m -14.977104,4.017635 a 15.690758,15.690758 0 0 0 0.758055,0.181855 15.690758,15.690758 0 0 1 -0.758055,-0.181855 z m 13.991717,-3.134356 a 15.690758,15.690758 0 0 1 -0.621817,0.487285 15.690758,15.690758 0 0 0 0.621817,-0.487285 z m -12.460257,3.451743 a 15.690758,15.690758 0 0 0 0.777951,0.105987 15.690758,15.690758 0 0 1 -0.777951,-0.105987 z m 11.208266,-2.50836 a 15.690758,15.690758 0 0 1 -0.667247,0.422408 15.690758,15.690758 0 0 0 0.667247,-0.422408 z m -9.650394,2.671647 a 15.690758,15.690758 0 0 0 0.782546,0.02799 15.690758,15.690758 0 0 1 -0.782546,-0.02799 z m 8.311316,-1.858746 a 15.690758,15.690758 0 0 1 -0.705241,0.353553 15.690758,15.690758 0 0 0 0.705241,-0.353553 z m -6.741998,1.866001 a 15.690758,15.690758 0 0 0 0.778768,-0.0506 15.690758,15.690758 0 0 1 -0.778768,0.0506 z m 5.325819,-1.189664 a 15.690758,15.690758 0 0 1 -0.733688,0.280158 15.690758,15.690758 0 0 0 0.733688,-0.280158 z m -3.767635,1.040129 a 15.690758,15.690758 0 0 0 0.772948,-0.128359 15.690758,15.690758 0 0 1 -0.772948,0.128359 z m 2.293452,-0.509433 a 15.690758,15.690758 0 0 1 -0.758769,0.205579 15.690758,15.690758 0 0 0 0.758769,-0.205579 z"
     id="path11042-53-6-2"
     inkscape:connector-curvature="0" />
  <circle
     style="display:inline;opacity:1;fill:#aea795;fill-opacity:1;stroke:none;stroke-width:0.38670185;stroke-linecap:round;stroke-linejoin:round;stroke-miterlimit:4;stroke-dasharray:none;stroke-dashoffset:0;stroke-opacity:1;enable-background:new"
     id="path7147"
     cx="33.687878"
     cy="-26.863735"
     transform="scale(1,-1)"
     r="5.6038423" />
  <circle
     style="display:inline;opacity:1;fill:#faf8f6;fill-opacity:1;stroke:none;stroke-width:0.36024699;stroke-linecap:round;stroke-linejoin:round;stroke-miterlimit:4;stroke-dasharray:none;stroke-dashoffset:0;stroke-opacity:1;enable-background:new"
     id="path7164"
     cx="33.687878"
     cy="26.863735"
     r="5.043458" />
  <circle
     style="display:inline;opacity:1;fill:#4d4d4d;fill-opacity:1;stroke:none;stroke-width:0.49033621;stroke-linecap:round;stroke-linejoin:round;stroke-miterlimit:4;stroke-dasharray:none;stroke-dashoffset:0;stroke-opacity:1;enable-background:new"
     id="path7166"
     cx="33.687878"
     cy="26.863735"
     r="1.9613448" />
  <g
     aria-label="img"
     style="font-style:normal;font-weight:normal;font-size:10.58281231px;line-height:1.25;font-family:sans-serif;letter-spacing:0px;word-spacing:0px;display:inline;opacity:1;fill:#888888;fill-opacity:1;stroke:none;stroke-width:0.26457033;enable-background:new"
     id="text130">
    <path
       d="M 25.230196,56.422455 H 24.049154 V 49.81878 h 1.181042 z m -0.59687,-7.797417 q -0.317485,0 -0.546074,-0.20319 -0.215889,-0.215889 -0.215889,-0.571471 0,-0.355583 0.215889,-0.558773 0.228589,-0.215889 0.546074,-0.215889 0.317484,0 0.533373,0.215889 0.228589,0.20319 0.228589,0.558773 0,0.355582 -0.228589,0.571471 -0.215889,0.20319 -0.533373,0.20319 z"
       style="font-style:normal;font-variant:normal;font-weight:normal;font-stretch:normal;font-size:12.69937515px;font-family:ubuntu;-inkscape-font-specification:ubuntu;text-align:center;text-anchor:middle;fill:#888888;fill-opacity:1;stroke-width:0.26457033"
       id="path858" />
    <path
       d="m 27.262075,50.00927 q 0.40638,-0.101595 1.066748,-0.215889 0.673067,-0.114294 1.549323,-0.114294 0.634969,0 1.066748,0.177791 0.431779,0.165092 0.723864,0.495276 0.0889,-0.0635 0.279387,-0.177792 0.19049,-0.114294 0.469876,-0.215889 0.279387,-0.114294 0.62227,-0.190491 0.342883,-0.0889 0.736564,-0.0889 0.761962,0 1.244538,0.228588 0.482577,0.21589 0.749264,0.62227 0.279386,0.40638 0.368281,0.965152 0.101595,0.558773 0.101595,1.21914 v 3.708218 h -1.181041 v -3.45423 q 0,-0.584171 -0.0635,-1.003251 -0.0508,-0.419079 -0.21589,-0.698465 -0.152392,-0.279387 -0.431778,-0.40638 -0.266687,-0.139694 -0.698466,-0.139694 -0.596871,0 -0.990551,0.165092 -0.380982,0.152393 -0.520675,0.279387 0.101595,0.330183 0.152393,0.723864 0.0508,0.393681 0.0508,0.825459 v 3.708218 h -1.181042 v -3.45423 q 0,-0.584171 -0.0635,-1.003251 -0.0635,-0.419079 -0.228588,-0.698465 -0.152393,-0.279387 -0.431779,-0.40638 -0.266687,-0.139694 -0.685766,-0.139694 -0.177792,0 -0.380982,0.0127 -0.20319,0.0127 -0.39368,0.0381 -0.177791,0.0127 -0.330184,0.0381 -0.152392,0.0254 -0.20319,0.0381 v 5.575026 h -1.181042 z"
       style="font-style:normal;font-variant:normal;font-weight:normal;font-stretch:normal;font-size:12.69937515px;font-family:ubuntu;-inkscape-font-specification:ubuntu;text-align:center;text-anchor:middle;fill:#888888;fill-opacity:1;stroke-width:0.26457033"
       id="path860" />
    <path
       d="m 42.33621,55.762087 q -0.152392,0.101595 -0.596871,0.266687 -0.431778,0.152393 -1.01595,0.152393 -0.59687,0 -1.130244,-0.190491 -0.520674,-0.190491 -0.914355,-0.584171 -0.393681,-0.40638 -0.622269,-1.003251 -0.228589,-0.59687 -0.228589,-1.42233 0,-0.723864 0.215889,-1.320735 0.21589,-0.60957 0.62227,-1.041349 0.419079,-0.444478 1.01595,-0.685766 0.59687,-0.253987 1.346133,-0.253987 0.82546,0 1.43503,0.126993 0.622269,0.114295 1.041349,0.21589 v 5.89251 q 0,1.523925 -0.787362,2.209691 -0.787361,0.685766 -2.387482,0.685766 -0.62227,0 -1.181042,-0.101595 -0.546073,-0.101595 -0.952453,-0.241288 l 0.215889,-1.028649 q 0.355583,0.139693 0.863558,0.241288 0.520674,0.114294 1.079446,0.114294 1.054049,0 1.511226,-0.419079 0.469877,-0.419079 0.469877,-1.333434 z m -0.0127,-4.901958 q -0.177792,-0.0508 -0.482577,-0.0889 -0.292085,-0.0508 -0.80006,-0.0508 -0.952453,0 -1.473128,0.62227 -0.507975,0.622269 -0.507975,1.650919 0,0.571471 0.139693,0.977851 0.152393,0.40638 0.393681,0.673067 0.253987,0.266687 0.571472,0.393681 0.330184,0.126994 0.673067,0.126994 0.469877,0 0.863557,-0.126994 0.393681,-0.139693 0.62227,-0.317484 z"
       style="font-style:normal;font-variant:normal;font-weight:normal;font-stretch:normal;font-size:12.69937515px;font-family:ubuntu;-inkscape-font-specification:ubuntu;text-align:center;text-anchor:middle;fill:#888888;fill-opacity:1;stroke-width:0.26457033"
       id="path862" />
  </g>
</svg>
