<?xml version="1.0" encoding="UTF-8" standalone="no"?>
<svg
   xmlns:dc="http://purl.org/dc/elements/1.1/"
   xmlns:cc="http://creativecommons.org/ns#"
   xmlns:rdf="http://www.w3.org/1999/02/22-rdf-syntax-ns#"
   xmlns:svg="http://www.w3.org/2000/svg"
   xmlns="http://www.w3.org/2000/svg"
   xmlns:sodipodi="http://sodipodi.sourceforge.net/DTD/sodipodi-0.dtd"
   xmlns:inkscape="http://www.inkscape.org/namespaces/inkscape"
   width="256"
   height="256"
   version="1.1"
   viewBox="0 0 67.73 67.73"
   id="svg39"
   sodipodi:docname="application-certificate.svg"
   inkscape:version="0.92.4 (5da689c313, 2019-01-14)">
  <metadata
     id="metadata43">
    <rdf:RDF>
      <cc:Work
         rdf:about="">
        <dc:format>image/svg+xml</dc:format>
        <dc:type
           rdf:resource="http://purl.org/dc/dcmitype/StillImage" />
        <dc:title></dc:title>
      </cc:Work>
    </rdf:RDF>
  </metadata>
  <sodipodi:namedview
     pagecolor="#ffffff"
     bordercolor="#666666"
     borderopacity="1"
     objecttolerance="10"
     gridtolerance="10"
     guidetolerance="10"
     inkscape:pageopacity="0"
     inkscape:pageshadow="2"
     inkscape:window-width="1343"
     inkscape:window-height="876"
     id="namedview41"
     showgrid="false"
     inkscape:zoom="2.43797"
     inkscape:cx="49.811389"
     inkscape:cy="62.346569"
     inkscape:window-x="0"
     inkscape:window-y="27"
     inkscape:window-maximized="0"
     inkscape:current-layer="g37" />
  <defs
     id="defs17">
    <linearGradient
       id="linearGradient4226"
       x1="529.655"
       x2="-35.31"
       y1="401.584"
       y2="119.093"
       gradientTransform="matrix(0 -.11988932 .11988589 0 .36278065 292.5483)"
       gradientUnits="userSpaceOnUse">
      <stop
         style="stop-color:#f2f2f2"
         offset="0"
         id="stop2" />
      <stop
         style="stop-color:#f9f9f9"
         offset="1"
         id="stop4" />
    </linearGradient>
    <linearGradient
       id="linearGradient4358"
       x1="88"
       x2="488"
       y1="88"
       y2="488"
       gradientUnits="userSpaceOnUse">
      <stop
         style="stop-color:#000000;stop-opacity:.58823532"
         offset="0"
         id="stop7" />
      <stop
         style="stop-color:#000000;stop-opacity:0"
         offset=".88"
         id="stop9" />
      <stop
         style="stop-color:#000000"
         offset="1"
         id="stop11" />
    </linearGradient>
    <filter
       id="filter4346"
       width="1.026"
       height="1.022"
       x="-.01"
       y="-.01"
       style="color-interpolation-filters:sRGB">
      <feGaussianBlur
         stdDeviation="2.12"
         id="feGaussianBlur14" />
    </filter>
    <filter
       style="color-interpolation-filters:sRGB"
       y="-.01"
       x="-.01"
       height="1.022"
       width="1.026"
       id="filter4346-3">
      <feGaussianBlur
         id="feGaussianBlur63"
         stdDeviation="2.12" />
    </filter>
  </defs>
  <g
     transform="translate(0,-229.26665)"
     id="g37">
    <path
       d="m20.705011 233.28164c-9.338925 0-10.343783 0.95922-10.298012 10.31704v38.63259c-0.04577 9.35781 0.959087 10.31704 10.298012 10.31704h25.970643c9.338924 0 10.298012-0.95912 10.298012-10.31704v-38.63259c0-9.35793-0.959088-10.31704-10.298012-10.31704z"
       style="fill:none;opacity:.2;stroke-width:1.0583333;stroke:#000000"
       id="path19" />
    <path
       d="m189.84323 74c-70.59344 0-78.18921 7.250835-77.84323 77.98706v292.02588c-0.34598 70.73623 7.24979 77.98706 77.84323 77.98706h196.31354c70.59344 0 76.00668-7.27384 77.84323-77.98706v-292.02588c0-70.737067-7.24979-77.98706-77.84323-77.98706z"
       transform="matrix(.13229167 0 0 .13229167 -4.4096684 223.75664)"
       style="filter:url(#filter4346);opacity:.1"
       id="path21" />
    <path
       d="m189.84323 74c-70.59344 0-78.18921 7.250835-77.84323 77.98706v292.02588c-0.34598 70.73623 7.24979 77.98706 77.84323 77.98706h196.31354c70.59344 0 77.84323-7.24999 77.84323-77.98706v-292.02588c0-70.737067-7.24979-77.98706-77.84323-77.98706z"
       transform="matrix(.13229167 0 0 .13229167 -4.4096684 223.75664)"
       style="fill:url(#linearGradient4358);filter:url(#filter4380);opacity:.3"
       id="path23" />
    <path
       d="m20.705011 233.28164c-9.338925 0-10.343783 0.95922-10.298012 10.31704v38.63259c-0.04577 9.35781 0.959087 10.31704 10.298012 10.31704h25.970643c9.338924 0 10.298012-0.95912 10.298012-10.31704v-38.63259c0-9.35793-0.959088-10.31704-10.298012-10.31704z"
       style="fill:url(#linearGradient4226)"
       id="path25" />
    <path
       d="m20.705079 233.28164c-9.338926 0-10.343851 0.95939-10.29808 10.3172v0.52916c-0.04577-9.35781 0.959154-10.3172 10.29808-10.3172h25.970506c9.338927 0 10.298081 0.95928 10.298081 10.3172v-0.52916c0-9.35793-0.959154-10.3172-10.298081-10.3172z"
       style="fill:#ffffff;opacity:.6"
       id="path27" />
    <path
       d="m41.098666 292.54831 15.875-15.875v5.94886c-0.01384 8.99472-1.006126 9.92614-10.100231 9.92614z"
       style="fill:#ffffff;opacity:.1"
       id="path35" />
    <path
       d="m33.690332 233.28164v59.26667h12.985253c9.338924 0 10.055122-0.96217 10.298081-10.31695v-38.63278c0-9.35792-0.959157-10.31694-10.298081-10.31694z"
       style="fill:#ffffff;opacity:.1"
       id="path31" />
    <path
       d="m10.406999 262.91497v19.31639c-0.04577 9.35782 0.959155 10.31695 10.29808 10.31695h25.970506c9.338924 0 10.055122-0.96217 10.298081-10.31695v-19.31639z"
       style="fill:#ffffff;opacity:.1"
       id="path33" />
    <path
       id="path27-3"
       d="m 17.815384,247.04075 v 2.64572 c 0,1.45559 1.199751,2.64569 2.645712,2.64569 13.150632,0 23.811342,10.66071 23.811342,23.81132 0,1.4556 1.199751,2.6457 2.645713,2.6457 h 2.645702 v -2.6457 c 0,-16.07292 -13.029752,-29.10273 -29.102757,-29.10273 z m 0,10.58281 v 2.6457 c 0,1.4556 1.199751,2.64571 2.645712,2.64571 7.305927,0 13.228522,5.9226 13.228522,13.22851 0,1.4556 1.199752,2.6457 2.645702,2.6457 h 2.645714 v -2.6457 c 0,-10.22821 -8.291648,-18.51992 -18.519938,-18.51992 z m 5.291415,10.58281 c -2.922373,0 -5.291415,2.36911 -5.291415,5.2914 0,2.92232 2.369042,5.29142 5.291415,5.29142 2.922362,0 5.291404,-2.3691 5.291404,-5.29141 0,-2.9223 -2.369042,-5.2914 -5.291404,-5.29141 z"
       inkscape:connector-curvature="0"
       style="fill:#f87e16;stroke-width:2.6457057;fill-opacity:1" />
  </g>
</svg>
