<svg height="256" viewBox="0 0 67.73 67.73" width="256" xmlns="http://www.w3.org/2000/svg" xmlns:xlink="http://www.w3.org/1999/xlink"><linearGradient id="a" gradientUnits="userSpaceOnUse" x1="32.607484" x2="32.607484" y1="283.403271" y2="241.782011"><stop offset="0" stop-color="#e72662"/><stop offset=".483" stop-color="#ec3c50"/><stop offset="1" stop-color="#ff7b66"/></linearGradient><linearGradient id="b" gradientTransform="matrix(0 -.11988932 .11988589 0 .362781 292.5483)" gradientUnits="userSpaceOnUse" x1="529.655" x2="-35.31" y1="401.584" y2="119.093"><stop offset="0" stop-color="#f2f2f2"/><stop offset="1" stop-color="#f9f9f9"/></linearGradient><linearGradient id="c" gradientUnits="userSpaceOnUse" x1="88" x2="488" y1="88" y2="488"><stop offset="0" stop-opacity=".588235"/><stop offset=".88" stop-opacity="0"/><stop offset="1"/></linearGradient><filter id="d" color-interpolation-filters="sRGB" height="1.022" width="1.026" x="-.01" y="-.01"><feGaussianBlur stdDeviation="2.12"/></filter><g transform="translate(0 -229.26665)"><path d="m20.705011 233.28164c-9.338925 0-10.343782.95922-10.298012 10.31704v38.63259c-.04577 9.35781.959087 10.31704 10.298012 10.31704h25.970643c9.338924 0 10.298012-.95912 10.298012-10.31704v-38.63259c0-9.35793-.959088-10.31704-10.298012-10.31704z" fill="none" opacity=".2" stroke="#000" stroke-width="1.058333"/><path d="m189.84323 74c-70.59344 0-78.18921 7.250835-77.84323 77.98706v292.02588c-.34598 70.73623 7.24979 77.98706 77.84323 77.98706h196.31354c70.59344 0 76.00668-7.27384 77.84323-77.98706v-292.02588c0-70.737067-7.24979-77.98706-77.84323-77.98706z" filter="url(#d)" opacity=".1" transform="matrix(.13229167 0 0 .13229167 -4.409668 223.75664)"/><path d="m189.84323 74c-70.59344 0-78.18921 7.250835-77.84323 77.98706v292.02588c-.34598 70.73623 7.24979 77.98706 77.84323 77.98706h196.31354c70.59344 0 77.84323-7.24999 77.84323-77.98706v-292.02588c0-70.737067-7.24979-77.98706-77.84323-77.98706z" fill="url(#c)" opacity=".3" transform="matrix(.13229167 0 0 .13229167 -4.409668 223.75664)" visibility="hidden"/><path d="m20.705011 233.28164c-9.338925 0-10.343782.95922-10.298012 10.31704v38.63259c-.04577 9.35781.959087 10.31704 10.298012 10.31704h25.970643c9.338924 0 10.298012-.95912 10.298012-10.31704v-38.63259c0-9.35793-.959088-10.31704-10.298012-10.31704z" fill="url(#b)"/><path d="m20.705079 233.28164c-9.338925 0-10.34385.95939-10.29808 10.3172v.52916c-.04577-9.35781.959155-10.3172 10.29808-10.3172h25.970506c9.338927 0 10.298081.95928 10.298081 10.3172v-.52916c0-9.35793-.959154-10.3172-10.298081-10.3172z" fill="#fff" opacity=".6"/><path d="m42.881484 248.09852c-.375907-.004-.875678.0545-1.540632.15437l-11.06464 1.69188c-2.671424.56885-2.662253.74579-2.671286 3.00271v18.31248c-.111416-.078-.221311-.15652-.3365-.23371v.00079c-.84873-.56877-1.753306-.97354-2.968313-.97354-1.52188 0-2.429462.58274-2.978867 1.3503-.549402.76755-.731623 1.73503-.731623 2.4829 0 .90184.307917 1.86434.975889 2.59781.667975.73348 1.694948 1.24711 3.171542 1.24713 1.667412 0 2.84031-.4656 3.503351-1.37492.522047-.71595.810728-1.67242.913749-2.85224v-.003c.01442-.14314.0249-.29016.034-.44163.014-.23321.01095-.66949.01095-.66949v-14.02137c0-2.00307-.000098-2.12264 2.672067-2.57944l7.868479-1.23423c2.676977-.35025 2.677538-.10668 2.677538 1.39765v12.8679c-.108423-.076-.215484-.15239-.327512-.22746v.00079c-.84873-.56876-1.752912-.97354-2.967921-.97354-1.521889 0-2.429849.58275-2.979256 1.3503-.549402.76755-.731623 1.73503-.731623 2.48291 0 .90184.308306 1.86434.976278 2.59781.667975.73348 1.694937 1.24749 3.171542 1.24751 1.667412 0 2.84031-.46599 3.503353-1.37531.522047-.71594.810337-1.67203.913358-2.85185v-.004c.01442-.14314.0249-.28977.034-.44124.014-.23321.01132-.66987.01132-.66987v-19.50706c0-1.75682-.01153-2.33864-1.139253-2.3512z" fill="url(#a)" opacity=".8"/><g fill="#fff"><path d="m33.690332 233.28164v59.26667h12.985253c9.338924 0 10.055122-.96217 10.298081-10.31695v-38.63278c0-9.35792-.959157-10.31694-10.298081-10.31694z" opacity=".1"/><path d="m10.406999 262.91497v19.31639c-.04577 9.35782.959155 10.31695 10.29808 10.31695h25.970506c9.338924 0 10.055122-.96217 10.298081-10.31695v-19.31639z" opacity=".2"/><path d="m41.098666 292.54831 15.875-15.875v5.94886c-.01384 8.99472-1.006126 9.92614-10.100231 9.92614z" opacity=".4"/></g></g></svg>