<svg height="256" viewBox="0 0 67.73 67.73" width="256" xmlns="http://www.w3.org/2000/svg" xmlns:xlink="http://www.w3.org/1999/xlink"><linearGradient id="a" gradientUnits="userSpaceOnUse" x1="48.50461" x2="41.783234" y1="11.951899" y2="18.809672"><stop offset="0" stop-color="#b70ece"/><stop offset="1" stop-color="#cf75c8"/></linearGradient><linearGradient id="b" gradientUnits="userSpaceOnUse" x1="48.50461" x2="41.783234" y1="11.9519" y2="18.809673"><stop offset="0" stop-color="#259dd1"/><stop offset="1" stop-color="#75b4d1"/></linearGradient><filter id="c" color-interpolation-filters="sRGB" height="1.072" width="1.072" x="-.036" y="-.036"><feGaussianBlur stdDeviation=".99"/></filter><radialGradient id="d" cx="179.99261" cy="103.2822" gradientTransform="matrix(1.3687341 -.00000021 .0000002 1.3528551 -121.02851 -70.900578)" gradientUnits="userSpaceOnUse" r="35.068905"><stop offset="0"/><stop offset="1" stop-opacity="0"/></radialGradient><filter id="e" color-interpolation-filters="sRGB" height="1.144" width="1.144" x="-.072" y="-.072"><feGaussianBlur stdDeviation="1.98"/></filter><linearGradient id="f" gradientTransform="matrix(.97892669 0 0 1.0007266 -171.40557 -739.99963)" gradientUnits="userSpaceOnUse" x1="525.4375" x2="516.65625" xlink:href="#g" y1="836.1875" y2="828.5"/><linearGradient id="g"><stop offset="0" stop-color="#dc85e9"/><stop offset="1" stop-color="#f2cbf8"/></linearGradient><linearGradient id="h" gradientTransform="matrix(.97892669 0 0 1.0007266 755.5951 -1698.6771)" gradientUnits="userSpaceOnUse" x1="525.4375" x2="516.65625" xlink:href="#g" y1="836.1875" y2="828.5"/><linearGradient id="i" gradientUnits="userSpaceOnUse" x1="399.9375" x2="391.15625" xlink:href="#g" y1="-866.2715" y2="-873.959"/><linearGradient id="j" gradientUnits="userSpaceOnUse" x1="520.58502" x2="516.15179" xlink:href="#g" y1="735.05206" y2="720.86298"/><linearGradient id="k" gradientTransform="matrix(0 -.10703877 .10352955 0 4.907275 59.574556)" gradientUnits="userSpaceOnUse" x1="-2.206897" x2="494.34482" y1="386.30795" y2="169.68051"><stop offset="0" stop-color="#f2f2f2"/><stop offset="1" stop-color="#f9f9f9"/></linearGradient><linearGradient id="l" gradientTransform="matrix(0 -.11988342 .11987999 0 .362762 62.749399)" gradientUnits="userSpaceOnUse" x1="494.34482" x2="0" y1="172.05988" y2="383.92801"><stop offset="0" stop-color="#950ba8"/><stop offset="1" stop-color="#c557bc"/></linearGradient><linearGradient id="m" gradientUnits="userSpaceOnUse" x1="88" x2="488" y1="88" y2="488"><stop offset="0" stop-opacity=".588235"/><stop offset=".88" stop-opacity="0"/><stop offset="1"/></linearGradient><filter id="n" color-interpolation-filters="sRGB" height="1.087725" width="1.105998" x="-.052999" y="-.043863"><feGaussianBlur stdDeviation="8.4801079"/></filter><filter id="o" color-interpolation-filters="sRGB" height="1.021931" width="1.0265" x="-.01325" y="-.010966"><feGaussianBlur stdDeviation="2.120027"/></filter><path d="m189.84323 74c-70.59344 0-78.18921 7.250835-77.84323 77.98706v146.01294 146.01294c-.34598 70.73623 7.24979 77.98706 77.84323 77.98706h196.31354c70.59344 0 76.00668-7.27384 77.84323-77.98706v-146.01294-98l-128-126z" filter="url(#o)" opacity=".1" transform="matrix(.13228516 0 0 .13228516 -4.409451 -6.038882)"/><path d="m189.84323 74c-70.59344 0-78.18921 7.250835-77.84323 77.98706v146.01294 146.01294c-.34598 70.73623 7.24979 77.98706 77.84323 77.98706h196.31354c70.59344 0 77.84323-7.24999 77.84323-77.98706v-146.01294-96l-128-128z" fill="url(#m)" filter="url(#n)" opacity=".3" transform="matrix(.13228516 0 0 .13228516 -4.409451 -6.038882)"/><path d="m20.70399 3.4856494c-9.338464 0-10.343272.959178-10.297504 10.3165306v19.315345 19.315344c-.04577 9.357355.95904 10.316531 10.297504 10.316531h25.969365c9.338465 0 10.297506-.959068 10.297506-10.316531v-19.315344-12.699376l-16.9325-16.9324996z" fill="url(#l)"/><path d="m20.704059 3.4856494c-9.338466 0-10.343341.95934-10.297573 10.3166916v.529141c-.04577-9.3573516.959107-10.3166916 10.297573-10.3166916h19.334302v-.529141z" fill="#fff" opacity=".4"/><path d="m22.474161 6.6604934c-8.892832 0-8.892832 0-8.893027 9.2111876v17.245844 17.245844c.000195 9.211187.000195 9.211187 8.893027 9.211187h22.427401c8.894455 0 8.893026 0 8.893026-9.211187v-17.245844-13.45529l-12.506511-13.0017416z" fill="url(#k)"/><g enable-background="new" stroke="#8e03a3" stroke-width=".987216" transform="matrix(1.3496189 0 0 1.2416836 -430.61964 -68.614456)"><path d="m332.74163 90.1053v3.50254.50036c0 1.93441 5.0402 3.50255 11.2577 3.50255 6.2174 0 11.2576-1.56814 11.2576-3.50255v-.50036-3.50254z" fill="url(#f)"/><g transform="translate(-927.00067 953.99307)"><path d="m1259.7423-868.57233v3.50255.50036c0 1.93441 5.0402 3.50254 11.2577 3.50254 6.2174 0 11.2576-1.56813 11.2576-3.50254v-.50036-3.50255z" fill="url(#h)" stroke-width=".987216"/><g stroke-width=".997423" transform="matrix(.97892669 0 0 1.0007266 878.4504 .377535)"><path d="m389.5-872.95665v3.5.5c0 1.933 5.14873 3.5 11.5 3.5s11.5-1.567 11.5-3.5v-.5-3.5z" fill="url(#i)" stroke-width=".997423"/><ellipse cx="519.6875" cy="730.3125" fill="url(#j)" rx="22.4375" ry="5.6875" stroke-width="1.776005" transform="matrix(.512535 0 0 .615385 134.642 -1323.1872)"/></g></g></g><g fill="#fff"><path d="m33.688673 3.4856494v59.2637506h12.984614c9.338464 0 10.054627-.962123 10.297574-10.316435v-19.31544-12.699376l-16.9325-16.9324996z" opacity=".1"/><path d="m10.406486 33.117525v19.31544c-.04577 9.357354.959108 10.316435 10.297573 10.316435h25.969228c9.338464 0 10.054627-.962123 10.297574-10.316435v-19.31544z" opacity=".1"/><path d="m41.096642 62.7494 15.874219-15.874219v5.948567c-.01384 8.994282-1.006077 9.925652-10.099734 9.925652z" opacity=".1"/></g><path d="m185.33354 74.825228-64-65.9999998.003 24.9985698v1 .53711c0 35.29429 1.62603 39.63197 36.99414 39.45899z" fill="url(#d)" filter="url(#e)" opacity=".1" transform="matrix(.26457031 0 0 .26457031 7.937109 1.150756)"/><path d="m185.33354 74.825228v-2l-64-63.9999998v24.9990938 1 .53711c0 34.463796 4 39.463796 36.99414 39.458996z" filter="url(#c)" opacity=".1" transform="matrix(.26457031 0 0 .26457031 7.937109 1.150756)"/><path d="m56.970085 20.416739-16.930949-16.9309506v6.084601.264571.142103c0 9.3378196.95934 10.4854416 10.316692 10.4396756z" fill="url(#b)"/><path d="m56.970085 20.416739-16.930949-16.9309516v6.084601.26457.142104c0 9.3378206.95934 10.4854426 10.316692 10.4396766z" fill="#fff"/><path d="m56.970085 20.416739-16.930949-16.9309516v6.084601.26457.142104c0 9.3378206.95934 10.4854426 10.316692 10.4396766z" fill="url(#a)"/><path d="m53.796021 20.41815h3.174844v.26457h-3.174844z" opacity=".2"/></svg>