<svg height="256" viewBox="0 0 67.73 67.73" width="256" xmlns="http://www.w3.org/2000/svg" xmlns:xlink="http://www.w3.org/1999/xlink">
  <clipPath id="clipPath9665">
    <circle cx="1184.49676" cy="675.49814" r="17.06892"/>
  </clipPath>
  <linearGradient id="linearGradient4715" gradientUnits="userSpaceOnUse" x1="1565.5" x2="1565.5" y1="-1103.415" y2="-1066.604">
    <stop offset="0" stop-color="#219bd6"/>
    <stop offset="1" stop-color="#065d8d"/>
  </linearGradient>
  <radialGradient id="radialGradient4717" cx="1181.018" cy="672.731" gradientTransform="matrix(.978638 .697642 -.77137 1.08205 542.961 -883.643)" gradientUnits="userSpaceOnUse" r="16.5">
    <stop offset="0" stop-color="#1c99e0"/>
    <stop offset="1" stop-color="#035482"/>
  </radialGradient>
  <linearGradient id="linearGradient4719" gradientUnits="userSpaceOnUse" x1="3065.442" x2="3051.413" xlink:href="#linearGradient9364" y1="-1071.263" y2="-1082.95"/>
  <linearGradient id="linearGradient9364">
    <stop offset="0" stop-color="#63bbee"/>
    <stop offset="1" stop-color="#aadcf7"/>
  </linearGradient>
  <clipPath id="clipPath9653">
    <circle cx="3063.9982895" cy="-1084.6390295" r="15.0000015"/>
  </clipPath>
  <linearGradient id="linearGradient4721" gradientUnits="userSpaceOnUse" x1="3054.224" x2="3059.684" xlink:href="#linearGradient9364" y1="-1072.649" y2="-1099.399"/>
  <clipPath id="clipPath9661">
    <circle cx="3063.9982895" cy="-1084.6390295" r="15.0000015"/>
  </clipPath>
  <linearGradient id="linearGradient4723" gradientTransform="matrix(1.14289 .0903025 -.123907 .996556 -574.642 -278.417)" gradientUnits="userSpaceOnUse" x1="3075.297" x2="3049.657" xlink:href="#linearGradient9364" y1="-1093.031" y2="-1085.656"/>
  <clipPath id="clipPath9657">
    <circle cx="3063.9982895" cy="-1084.6390295" r="15.0000015"/>
  </clipPath>
  <linearGradient id="linearGradient4725" gradientUnits="userSpaceOnUse" x1="3075.072" x2="3066.395" xlink:href="#linearGradient9364" y1="-1074.963" y2="-1098.338"/>
  <clipPath id="clipPath9649">
    <circle cx="3063.9982895" cy="-1084.6390295" r="15.0000015"/>
  </clipPath>
  <linearGradient id="linearGradient4727" gradientUnits="userSpaceOnUse" x1="3067.784" x2="3057.163" xlink:href="#linearGradient9364" y1="-1071.481" y2="-1096.168"/>
  <clipPath id="clipPath9645">
    <circle cx="3063.9982895" cy="-1084.6390295" r="15.0000015"/>
  </clipPath>
  <linearGradient id="linearGradient4729" gradientUnits="userSpaceOnUse" x1="3069.716" x2="3059.889" xlink:href="#linearGradient9364" y1="-1071.376" y2="-1092.938"/>
  <clipPath id="clipPath9641">
    <circle cx="3063.9982895" cy="-1084.6390295" r="15.0000015"/>
  </clipPath>
  <linearGradient id="linearGradient4731" gradientTransform="matrix(.97008265 .24277491 -.24277491 .97008265 -167.006814 -775.513107)" gradientUnits="userSpaceOnUse" x1="3070.922" x2="3058.134" xlink:href="#linearGradient9364" y1="-1072.243" y2="-1095.993"/>
  <clipPath id="clipPath9637">
    <circle cx="3063.9982895" cy="-1084.6390295" r="15.0000015"/>
  </clipPath>
  <linearGradient id="linearGradient4733" gradientTransform="matrix(.95918392 -.28278298 .28278298 .95918392 429.140236 820.106837)" gradientUnits="userSpaceOnUse" x1="3070.922" x2="3058.134" xlink:href="#linearGradient9364" y1="-1072.243" y2="-1095.993"/>
  <clipPath id="clipPath9629">
    <circle cx="3063.9982895" cy="-1084.6390295" r="15.0000015"/>
  </clipPath>
  <radialGradient id="radialGradient4735" cx="3180.938" cy="660.766" gradientTransform="matrix(-.00000396 .962583 -1.02418 -.00000435 3857.69 -2401.15)" gradientUnits="userSpaceOnUse" r="1.5">
    <stop offset="0" stop-color="#fff"/>
    <stop offset="1" stop-color="#00a0fc" stop-opacity="0"/>
  </radialGradient>
  <clipPath id="clipPath9617">
    <circle cx="3180.4906015" cy="662.1992185" r="5.0817855"/>
  </clipPath>
  <linearGradient id="linearGradient4737" gradientUnits="userSpaceOnUse" x1="1539.375" x2="1553.5" xlink:href="#linearGradient8642-6" y1="-1100.392" y2="-1100.392"/>
  <linearGradient id="linearGradient8642-6">
    <stop offset="0" stop-color="#000061"/>
    <stop offset="1" stop-color="#006f86" stop-opacity="0"/>
  </linearGradient>
  <linearGradient id="linearGradient4739" gradientTransform="matrix(-.5 0 0 .5 1984 -2948.28)" gradientUnits="userSpaceOnUse" x1="762.75" x2="791" xlink:href="#linearGradient8642-6" y1="3695.776" y2="3695.776"/>
  <linearGradient id="linearGradient4741" gradientTransform="matrix(.397516 0 0 1 1422.76 -1687.64)" gradientUnits="userSpaceOnUse" x1="292.559" x2="453.422" y1="571.225" y2="571.225">
    <stop offset="0" stop-opacity="0"/>
    <stop offset=".493"/>
    <stop offset="1" stop-opacity="0"/>
  </linearGradient>
  <linearGradient id="linearGradient4743" gradientUnits="userSpaceOnUse" x1="1184.683" x2="1184.683" y1="685.548" y2="662.021">
    <stop offset="0" stop-color="#aadcf7"/>
    <stop offset="1" stop-color="#aadcf7" stop-opacity="0"/>
  </linearGradient>
  <linearGradient id="linearGradient1144" gradientUnits="userSpaceOnUse" x1="48.50699764" x2="18.87366468" y1="229.04830324" y2="296.78163572">
    <stop offset="0" stop-color="#f2f2f2"/>
    <stop offset="1" stop-color="#f9f9f9"/>
  </linearGradient>
  <linearGradient id="linearGradient4226" gradientTransform="matrix(0 -.11988932 -.11988589 0 67.016455 292.5483)" gradientUnits="userSpaceOnUse" x1="529.655" x2="-35.31" y1="401.584" y2="119.093">
    <stop offset="0" stop-color="#666"/>
    <stop offset="1" stop-color="#333"/>
  </linearGradient>
  <linearGradient id="linearGradient4358-1" gradientUnits="userSpaceOnUse" x1="88" x2="488" y1="88" y2="488">
    <stop offset="0" stop-opacity=".588235"/>
    <stop offset=".88" stop-opacity="0"/>
    <stop offset="1"/>
  </linearGradient>
  <filter id="filter4346" color-interpolation-filters="sRGB" height="1.022" width="1.026" x="-.01" y="-.01">
    <feGaussianBlur stdDeviation="2.12"/>
  </filter>
  <g transform="translate(0 -229.26665)">
    <path d="m189.84323 74c-70.59344 0-78.18921 7.250835-77.84323 77.98706v292.02588c-.34598 70.73623 7.24979 77.98706 77.84323 77.98706h196.31354c70.59344 0 76.00668-7.27384 77.84323-77.98706v-292.02588c0-70.737067-7.24979-77.98706-77.84323-77.98706z" filter="url(#filter4346)" opacity=".1" transform="matrix(.13229167 0 0 .13229167 -4.409668 223.75664)"/>
    <path d="m189.84323 74c-70.59344 0-78.18921 7.250835-77.84323 77.98706v292.02588c-.34598 70.73623 7.24979 77.98706 77.84323 77.98706h196.31354c70.59344 0 77.84323-7.24999 77.84323-77.98706v-292.02588c0-70.737067-7.24979-77.98706-77.84323-77.98706z" fill="url(#linearGradient4358-1)" opacity=".3" transform="matrix(.13229167 0 0 .13229167 -4.409668 223.75664)" visibility="hidden"/>
    <path d="m46.674225 233.28164c9.338927 0 10.343782.95922 10.298012 10.31704v38.63259c.04577 9.35781-.959085 10.31704-10.298012 10.31704h-25.970643c-9.338923 0-10.298011-.95912-10.298011-10.31704v-38.63259c0-9.35793.959088-10.31704 10.298011-10.31704z" fill="url(#linearGradient4226)"/>
    <path d="m20.705079 290.43164c-2.298499 0-4.033338-.07-5.204851-.26665s-1.676543-.47317-1.968355-.76429c-.291813-.29113-.566095-.78898-.760161-1.95648-.194066-1.16749-.259302-2.90138-.248047-5.20278v-38.6526c-.01126-2.30139.05398-4.03529.248047-5.20278.194066-1.1675.468348-1.66535.760161-1.95647.291812-.29113.796842-.56765 1.968355-.7643s2.906352-.26665 5.204851-.26665h22.510254l11.641666 11.64134v35.19113c0 2.30333-.0703 4.0395-.266649 5.21002-.196356 1.17052-.471755 1.67223-.761712 1.96267-.289957.29045-.788329.56479-1.955435.7612-1.167106.1964-2.899114.26665-5.197618.26665z" fill="url(#linearGradient1144)"/>
    <g enable-background="new" transform="matrix(.52916667 0 0 .52916667 -797.63051 842.1608)">
      <circle clip-path="url(#clipPath9665)" cx="1184.5" cy="675.5" fill="#0369a3" opacity=".15" r="16.5" transform="matrix(.967424 0 0 .242423 439.086 -1230.53)"/>
      <circle clip-path="url(#clipPath9665)" cx="1184.5" cy="675.5" fill="#0369a3" opacity=".25" r="16.5" transform="matrix(.805008 0 0 .222724 631.468 -1216.9)"/>
      <path d="m1539-1118.6378v4h64v-4zm0 8v4h64v-4zm0 8v4h37.3125c2.631-1.2734 5.5685-2 8.6875-2s6.0565.7266 8.6875 2h9.3125v-4zm0 8v4h28.6875c.8437-1.4566 1.8605-2.8059 3.0313-4zm60.2812 0c1.1708 1.1941 2.1876 2.5434 3.0313 4h.6875v-4zm-60.2812 8v4h26.0938c.1379-1.3796.4398-2.7175.8437-4zm0 8v4h26.9375c-.4039-1.2825-.7058-2.6204-.8437-4zm0 8v4h31.7188c-1.1708-1.1941-2.1876-2.5434-3.0313-4z" fill="url(#linearGradient4715)"/>
      <circle clip-path="url(#clipPath9665)" cx="1184.5" cy="675.5" fill="#0369a3" opacity=".75" r="16.5" transform="matrix(.642129 0 0 .154946 824.398 -1169.99)"/>
      <circle clip-path="url(#clipPath9665)" cx="1184.5" cy="675.5" fill="url(#radialGradient4717)" r="16.5" stroke="#035d8f" stroke-width=".948276" transform="matrix(1.05455 0 0 1.05455 335.891 -1792.98)"/>
      <g fill="none" stroke-linecap="round">
        <path clip-path="url(#clipPath9653)" d="m3066.2254-1069.3064c-2.0507-12.7551-13.5915-15.1323-19.2204-13.1889" stroke="url(#linearGradient4719)" stroke-width=".877032" transform="matrix(1.14061 0 0 1.13981 -1909.83 155.42)"/>
        <path clip-path="url(#clipPath9661)" d="m3068.184-1099.5366c-15.8287 5.5755-16.1955 20.8148-12.4084 27.5262" stroke="url(#linearGradient4721)" stroke-width=".866611" transform="matrix(1.15392 0 0 1.15392 -1950.6 170.948)"/>
        <path clip-path="url(#clipPath9657)" d="m3078.4656-1088.3913c-15.558-9.6896-30.2603-1.1652-34.1742 5.8114" stroke="url(#linearGradient4723)" stroke-width=".866611" transform="matrix(1.15392 0 0 1.15392 -1950.3 169.987)"/>
        <path clip-path="url(#clipPath9649)" d="m3062.7593-1100.0911c15.4435 6.5674 14.8438 21.7994 10.639 28.2572" stroke="url(#linearGradient4725)" stroke-width=".866611" transform="matrix(1.15392 0 0 1.15392 -1950.6 170.948)"/>
        <path clip-path="url(#clipPath9645)" d="m3072.4132-1068.2406c1.6468-20.2395-13.394-26.7448-21.8167-25.1165" stroke="url(#linearGradient4727)" stroke-width=".866611" transform="matrix(1.15392 0 0 1.15392 -1950.6 170.948)"/>
        <path clip-path="url(#clipPath9641)" d="m3085.0144-1076.9486c-15.8776-5.4349-25.6105 6.297-26.7982 13.9111" stroke="url(#linearGradient4729)" stroke-width=".866611" transform="matrix(1.15392 0 0 1.15392 -1950.6 170.948)"/>
        <path clip-path="url(#clipPath9637)" d="m3086.2173-1079.8642c-14.1391-9.0401-26.3732.053-29.3302 7.1696" stroke="url(#linearGradient4731)" stroke-width=".866611" transform="matrix(1.15392 0 0 1.15392 -1950.6 170.948)"/>
        <path clip-path="url(#clipPath9629)" d="m3078.5198-1092.1932c-16.7706-.6199-22.7025 13.4218-21.6414 21.0549" stroke="url(#linearGradient4733)" stroke-width=".866611" transform="matrix(1.15392 0 0 1.15392 -1950.6 170.948)"/>
      </g>
      <circle clip-path="url(#clipPath9617)" cx="3181" cy="660.75" fill="url(#radialGradient4735)" opacity=".75" r="1.5" transform="matrix(3.65312 0 0 3.65312 -10042.5 -3504.26)"/>
      <path d="m1539-1118.6378v4h14.5v-4zm0 8v4h14.5v-4zm0 8v4h14.5v-4zm0 8v4h14.5v-4zm0 8v4h14.5v-4zm0 8v4h14.5v-4zm0 8v4h14.5v-4z" fill="url(#linearGradient4737)" opacity=".5"/>
      <path d="m1603-1118.6378v4h-14.5v-4zm0 8v4h-14.5v-4zm0 8v4h-9.3735c-1.4599-.7466-3.2059-1.3143-5.1367-1.7665l.01-2.2335zm0 8v4h-.6993c-.7474-1.2945-1.7335-2.6531-3.0052-4z" fill="url(#linearGradient4739)" opacity=".5"/>
      <path d="m1539-1118.6378v1h64v-1zm0 8v1h64v-1zm0 8v1h64v-1zm0 8v1h30.8125c.2909-.3409.5929-.6804.9063-1zm60.2812 0c.3134.3196.6154.6591.9063 1h2.8125v-1zm-60.2812 8v1h26.6562c.089-.3336.1784-.6734.2813-1zm0 8v1h26.0938c.1027 1.0282.3031 2.0238.5624 3h.2813c-.4039-1.2825-.7059-2.6204-.8437-4zm0 8v1h28.6875c.6179 1.0667 1.3289 2.0672 2.125 3h.9063c-1.1709-1.1941-2.1876-2.5434-3.0313-4z" fill="url(#linearGradient4741)" opacity=".35"/>
      <path d="m1662 639v1h64v-1zm0 8v1h64v-1zm46 6c-3.119 0-6.0565.7266-8.6875 2h-37.3125v1h37.3125c2.631-1.2734 5.5685-2 8.6875-2s6.0565.7266 8.6875 2h9.3125v-1h-9.3125c-2.631-1.2734-5.5685-2-8.6875-2zm14.875 7c1.1708 1.1941 1.8125 2.54039 1.8125 4h1.3125v-1h-.6875c-.6179-1.06673-1.3289-2.06718-2.125-3zm-30.7812.9375c-.5002.66268-.9886 1.34142-1.4063 2.0625h-28.6875v1h29.3125c0-1.09248.4281-2.11097.7813-3.0625zm-3.9688 9.84375c-.01.0731-.024.1454-.031.21875h-26.0938v1h26.0938c.041-.40951.041-.81695.031-1.21875zm-26.125 8.21875v1h26.9375c-.1029-.32665-.1926-.66639-.2813-1zm0 8v1h31.7188c-.5566-.56766-.6946-.78651-.7813-1z" fill="#fff" opacity=".75" transform="translate(-123 -1753.64)"/>
      <path clip-path="url(#clipPath9665)" d="m1184.5 658.53125c-9.3689 0-16.9688 7.59981-16.9688 16.96875s7.5999 16.96875 16.9688 16.96875 16.9688-7.59981 16.9688-16.96875-7.5999-16.96875-16.9688-16.96875zm0 .9375c8.8565 0 16.0312 7.17479 16.0312 16.03125s-7.1747 16.03125-16.0312 16.03125-16.0312-7.17479-16.0312-16.03125 7.1747-16.03125 16.0312-16.03125z" fill="url(#linearGradient4743)" opacity=".75" transform="matrix(1.00184 0 0 1.00184 398.322 -1757.38)"/>
      <circle clip-path="url(#clipPath9617)" cx="3181" cy="660.75" fill="url(#radialGradient4735)" r="1.5" transform="matrix(2.66667 0 0 2.66667 -6895.61 -2858.6)"/>
      <circle clip-path="url(#clipPath9617)" cx="3181" cy="660.75" fill="url(#radialGradient4735)" r="1.5" transform="matrix(2.66667 0 0 2.66667 -6887.0475 -2851.475)"/>
      <circle clip-path="url(#clipPath9617)" cx="3181" cy="660.75" fill="url(#radialGradient4735)" r="1.5" transform="matrix(2.66667 0 0 2.66667 -6895.735 -2847.6625)"/>
      <circle clip-path="url(#clipPath9617)" cx="3181" cy="660.75" fill="url(#radialGradient4735)" r="1.5" transform="matrix(2.66667 0 0 2.66667 -6884.11 -2841.48)"/>
      <circle clip-path="url(#clipPath9617)" cx="3181" cy="660.75" fill="url(#radialGradient4735)" r="1.5" transform="matrix(2.66667 0 0 2.66667 -6909.1725 -2840.605)"/>
      <circle clip-path="url(#clipPath9617)" cx="3181" cy="660.75" fill="url(#radialGradient4735)" r="1.5" transform="matrix(2.66667 0 0 2.66667 -6900.67 -2836.1)"/>
      <circle clip-path="url(#clipPath9617)" cx="3181" cy="660.75" fill="url(#radialGradient4735)" r="1.5" transform="matrix(2.66667 0 0 2.66667 -6888.55 -2834.54)"/>
    </g>
    <path d="m10.406999 262.91497v19.31639c-.04577 9.35782.959155 10.31695 10.29808 10.31695h25.970506c9.338924 0 10.055122-.96217 10.298081-10.31695v-19.31639z" fill="#fff" opacity=".1"/>
    <path d="m33.688972 233.28164v59.26667h12.985253c9.338924 0 10.055122-.96217 10.298081-10.31695v-38.63278c0-9.35792-.959157-10.31694-10.298081-10.31694z" fill="#fff" opacity=".1"/>
    <path d="m10.406999 281.70194v.52917c-.04577 9.35781.959154 10.3172 10.29808 10.3172h25.970506c9.338924 0 10.055122-.96243 10.298081-10.3172v-.52917c-.242959 9.35477-.959157 10.3172-10.298081 10.3172h-25.970506c-9.338926 0-10.343851-.95939-10.29808-10.3172z" opacity=".2"/>
    <g fill="#fff">
      <path d="m20.705079 233.28164c-9.338926 0-10.343851.95939-10.29808 10.3172v.52916c-.04577-9.35781.959154-10.3172 10.29808-10.3172h25.970506c9.338927 0 10.298081.95928 10.298081 10.3172v-.52916c0-9.35793-.959154-10.3172-10.298081-10.3172z" opacity=".2"/>
      <path d="m41.098666 292.54831 15.875-15.875v5.94886c-.01384 8.99472-1.006126 9.92614-10.100231 9.92614z" opacity=".08"/>
    </g>
  </g>
</svg>
