<svg height="256" viewBox="0 0 67.73 67.73" width="256" xmlns="http://www.w3.org/2000/svg" xmlns:xlink="http://www.w3.org/1999/xlink"><linearGradient id="a" gradientTransform="matrix(1.74992 0 0 1.49998 3002.52 -245.193)" gradientUnits="userSpaceOnUse" x1="230" x2="230" y1="-581.638" y2="-578.638"><stop offset="0" stop-color="#63bbee"/><stop offset="1" stop-color="#aadcf7"/></linearGradient><linearGradient id="b" gradientUnits="userSpaceOnUse" x1="445.695" x2="441.388" y1="1103.578" y2="1099.82"><stop offset="0" stop-color="#e9b913"/><stop offset="1" stop-color="#ff0"/></linearGradient><linearGradient id="c" gradientTransform="matrix(1.74999 0 0 1.6513 2787.25 -3053.92)" gradientUnits="userSpaceOnUse" x1="345" x2="345" y1="1173" y2="1178"><stop offset="0" stop-color="#92e285"/><stop offset="1" stop-color="#18a303"/></linearGradient><linearGradient id="d" gradientTransform="matrix(-.8819462 0 0 .52916666 3028.0694 856.97746)" gradientUnits="userSpaceOnUse" x1="3375.788" x2="3381.881" xlink:href="#e" y1="-1109.013" y2="-1109.013"/><linearGradient id="e"><stop offset="0" stop-color="#0369a3"/><stop offset="1" stop-color="#023f62" stop-opacity="0"/></linearGradient><linearGradient id="f" gradientTransform="matrix(.8819462 0 0 .52916666 -2960.6896 856.97746)" gradientUnits="userSpaceOnUse" x1="3375.764" x2="3381.881" xlink:href="#e" y1="-1109.013" y2="-1109.013"/><linearGradient id="g" gradientUnits="userSpaceOnUse" x1="48.506998" x2="18.873665" y1="229.048303" y2="296.781636"><stop offset="0" stop-color="#f2f2f2"/><stop offset="1" stop-color="#f9f9f9"/></linearGradient><linearGradient id="h" gradientTransform="matrix(0 -.11988932 -.11988589 0 67.016455 292.5483)" gradientUnits="userSpaceOnUse" x1="529.655" x2="-35.31" y1="401.584" y2="119.093"><stop offset="0" stop-color="#666"/><stop offset="1" stop-color="#333"/></linearGradient><linearGradient id="i" gradientUnits="userSpaceOnUse" x1="88" x2="488" y1="88" y2="488"><stop offset="0" stop-opacity=".588235"/><stop offset=".88" stop-opacity="0"/><stop offset="1"/></linearGradient><filter id="j" color-interpolation-filters="sRGB" height="1.022" width="1.026" x="-.01" y="-.01"><feGaussianBlur stdDeviation="2.12"/></filter><g transform="translate(0 -229.26665)"><path d="m189.84323 74c-70.59344 0-78.18921 7.250835-77.84323 77.98706v292.02588c-.34598 70.73623 7.24979 77.98706 77.84323 77.98706h196.31354c70.59344 0 76.00668-7.27384 77.84323-77.98706v-292.02588c0-70.737067-7.24979-77.98706-77.84323-77.98706z" filter="url(#j)" opacity=".1" transform="matrix(.13229167 0 0 .13229167 -4.409668 223.75664)"/><path d="m189.84323 74c-70.59344 0-78.18921 7.250835-77.84323 77.98706v292.02588c-.34598 70.73623 7.24979 77.98706 77.84323 77.98706h196.31354c70.59344 0 77.84323-7.24999 77.84323-77.98706v-292.02588c0-70.737067-7.24979-77.98706-77.84323-77.98706z" fill="url(#i)" opacity=".3" transform="matrix(.13229167 0 0 .13229167 -4.409668 223.75664)" visibility="hidden"/><path d="m46.674225 233.28164c9.338927 0 10.343782.95922 10.298012 10.31704v38.63259c.04577 9.35781-.959085 10.31704-10.298012 10.31704h-25.970643c-9.338923 0-10.298011-.95912-10.298011-10.31704v-38.63259c0-9.35793.959088-10.31704 10.298011-10.31704z" fill="url(#h)"/><path d="m20.705079 290.43164c-2.298499 0-4.033338-.07-5.204851-.26665s-1.676543-.47317-1.968356-.76429c-.291813-.29113-.566094-.78898-.76016-1.95648-.194066-1.16749-.259302-2.90138-.248047-5.20278v-38.6526c-.01126-2.30139.05398-4.03529.248047-5.20278.194066-1.1675.468347-1.66535.76016-1.95647.291813-.29113.796843-.56765 1.968356-.7643s2.906352-.26665 5.204851-.26665h22.510254l11.641666 11.64134v35.19113c0 2.30333-.0703 4.0395-.266649 5.21002-.196356 1.17052-.471755 1.67223-.761712 1.96267-.289957.29045-.788329.56479-1.955435.7612-1.167106.1964-2.899114.26665-5.197618.26665z" fill="url(#g)"/><g enable-background="new" transform="matrix(.52916667 0 0 .52916667 -1751.7186 842.1608)"><g fill="#fff"><path d="m3376-1096.64h24v2h-24z" opacity=".6"/><path d="m3390-1117.64h16v11h-16z" opacity=".6"/><path d="m3376-1116.64h12v2h-12z" opacity=".6"/><path d="m3376-1112.64h12v2h-12z" opacity=".6"/><path d="m3376-1108.64h12v2h-12z" opacity=".6"/><path d="m3376-1104.64h30v2h-30z" opacity=".6"/><path d="m3376-1100.64h30v2h-30z" opacity=".6"/></g><path d="m3390-1118.64h16v11h-16z" fill="#1c99e0"/><path d="m3391-1117.64h13.999v9h-13.999z" fill="url(#a)"/><path d="m3399.1669-1112.2916-4.0835-4.8462-4.0834 5.923v1.077h14v-1.077l-2.9164-3.2307z" fill="#fff" opacity=".5"/><path d="m448.77203 1099.6875a7.5845342 4.6875 0 0 1 -7.58453 4.6875v-4.6875z" fill="#fff" opacity=".5" transform="matrix(0 .659236 -1.06667 0 4578 -1408.48)"/><path d="m448.77203 1099.6875a7.5845342 4.6875 0 0 1 -7.58453 4.6875v-4.6875z" fill="url(#b)" opacity=".74" transform="matrix(0 .539377 -.888908 0 4382.52 -1355.6)"/><path d="m3399.1669-1110.7916-4.0835-4.8462-4.0834 5.923v1.077h14v-1.077l-2.9164-3.2307z" fill="url(#c)"/><path d="m3391.5-1117.14h13v8h-13z" fill="none" opacity=".35" stroke="#fff"/><g fill="#1c99e0"><path d="m3376-1117.64h12v2h-12z"/><path d="m3376-1113.64h12v2h-12z"/><path d="m3376-1109.64h12v2h-12z"/><path d="m3376-1105.64h30v2h-30z"/><path d="m3376-1101.64h30v2h-30z"/><path d="m3376-1097.64h24v2h-24z"/></g></g><g enable-background="new" transform="matrix(.52916667 0 0 .52916667 -1751.7186 856.97747)"><g fill="#fff"><path d="m3376-1096.64h24v2h-24z" opacity=".6"/><path d="m3390-1117.64h16v11h-16z" opacity=".6"/><path d="m3376-1116.64h12v2h-12z" opacity=".6"/><path d="m3376-1112.64h12v2h-12z" opacity=".6"/><path d="m3376-1108.64h12v2h-12z" opacity=".6"/><path d="m3376-1104.64h30v2h-30z" opacity=".6"/><path d="m3376-1100.64h30v2h-30z" opacity=".6"/></g><path d="m3390-1118.64h16v11h-16z" fill="#1c99e0"/><path d="m3391-1117.64h13.999v9h-13.999z" fill="url(#a)"/><path d="m3399.1669-1112.2916-4.0835-4.8462-4.0834 5.923v1.077h14v-1.077l-2.9164-3.2307z" fill="#fff" opacity=".5"/><path d="m448.77203 1099.6875a7.5845342 4.6875 0 0 1 -7.58453 4.6875v-4.6875z" fill="#fff" opacity=".5" transform="matrix(0 .659236 -1.06667 0 4578 -1408.48)"/><path d="m448.77203 1099.6875a7.5845342 4.6875 0 0 1 -7.58453 4.6875v-4.6875z" fill="url(#b)" opacity=".74" transform="matrix(0 .539377 -.888908 0 4382.52 -1355.6)"/><path d="m3399.1669-1110.7916-4.0835-4.8462-4.0834 5.923v1.077h14v-1.077l-2.9164-3.2307z" fill="url(#c)"/><path d="m3391.5-1117.14h13v8h-13z" fill="none" opacity=".35" stroke="#fff"/><g fill="#1c99e0"><path d="m3376-1117.64h12v2h-12z"/><path d="m3376-1113.64h12v2h-12z"/><path d="m3376-1109.64h12v2h-12z"/><path d="m3376-1105.64h30v2h-30z"/><path d="m3376-1101.64h30v2h-30z"/><path d="m3376-1097.64h24v2h-24z"/></g></g><g enable-background="new" transform="matrix(.52916667 0 0 .52916667 -1769.7103 856.97747)"><g fill="#fff"><path d="m3376-1096.64h24v2h-24z" opacity=".6"/><path d="m3390-1117.64h16v11h-16z" opacity=".6"/><path d="m3376-1116.64h12v2h-12z" opacity=".6"/><path d="m3376-1112.64h12v2h-12z" opacity=".6"/><path d="m3376-1108.64h12v2h-12z" opacity=".6"/><path d="m3376-1104.64h30v2h-30z" opacity=".6"/><path d="m3376-1100.64h30v2h-30z" opacity=".6"/></g><path d="m3390-1118.64h16v11h-16z" fill="#1c99e0"/><path d="m3391-1117.64h13.999v9h-13.999z" fill="url(#a)"/><path d="m3399.1669-1112.2916-4.0835-4.8462-4.0834 5.923v1.077h14v-1.077l-2.9164-3.2307z" fill="#fff" opacity=".5"/><path d="m448.77203 1099.6875a7.5845342 4.6875 0 0 1 -7.58453 4.6875v-4.6875z" fill="#fff" opacity=".5" transform="matrix(0 .659236 -1.06667 0 4578 -1408.48)"/><path d="m448.77203 1099.6875a7.5845342 4.6875 0 0 1 -7.58453 4.6875v-4.6875z" fill="url(#b)" opacity=".74" transform="matrix(0 .539377 -.888908 0 4382.52 -1355.6)"/><path d="m3399.1669-1110.7916-4.0835-4.8462-4.0834 5.923v1.077h14v-1.077l-2.9164-3.2307z" fill="url(#c)"/><path d="m3391.5-1117.14h13v8h-13z" fill="none" opacity=".35" stroke="#fff"/><g fill="#1c99e0"><path d="m3376-1117.64h12v2h-12z"/><path d="m3376-1113.64h12v2h-12z"/><path d="m3376-1109.64h12v2h-12z"/><path d="m3376-1105.64h30v2h-30z"/><path d="m3376-1101.64h30v2h-30z"/><path d="m3376-1097.64h24v2h-24z"/></g></g><path d="m16.756387 265.56081v1.05833h5.291667v-1.05833zm0 2.11666v1.05834h5.291667v-1.05834zm0 2.11667v1.05833h5.291667v-1.05833zm0 2.11667v1.05833h5.291667v-1.05833zm0 2.11666v1.05834h5.291667v-1.05834zm0 2.11667v1.05833h5.291667v-1.05833z" fill="url(#f)"/><path d="m50.623055 265.03164v.52917h-5.291667v-.52917zm0 .52917v4.7625h-.587957v-4.7625zm0 4.7625v.52916h-5.291667v-.52916zm0 1.5875v1.05833h-5.291667v-1.05833zm0 2.11666v1.05834h-5.291667v-1.05834zm-3.175 2.11667v1.05833h-2.116667v-1.05833z" fill="url(#d)"/><g enable-background="new" transform="matrix(.52916667 0 0 .52916667 -1769.7103 842.1608)"><g fill="#fff"><path d="m3376-1096.64h24v2h-24z" opacity=".6"/><path d="m3390-1117.64h16v11h-16z" opacity=".6"/><path d="m3376-1116.64h12v2h-12z" opacity=".6"/><path d="m3376-1112.64h12v2h-12z" opacity=".6"/><path d="m3376-1108.64h12v2h-12z" opacity=".6"/><path d="m3376-1104.64h30v2h-30z" opacity=".6"/><path d="m3376-1100.64h30v2h-30z" opacity=".6"/></g><path d="m3390-1118.64h16v11h-16z" fill="#1c99e0"/><path d="m3391-1117.64h13.999v9h-13.999z" fill="url(#a)"/><path d="m3399.1669-1112.2916-4.0835-4.8462-4.0834 5.923v1.077h14v-1.077l-2.9164-3.2307z" fill="#fff" opacity=".5"/><path d="m448.77203 1099.6875a7.5845342 4.6875 0 0 1 -7.58453 4.6875v-4.6875z" fill="#fff" opacity=".5" transform="matrix(0 .659236 -1.06667 0 4578 -1408.48)"/><path d="m448.77203 1099.6875a7.5845342 4.6875 0 0 1 -7.58453 4.6875v-4.6875z" fill="url(#b)" opacity=".74" transform="matrix(0 .539377 -.888908 0 4382.52 -1355.6)"/><path d="m3399.1669-1110.7916-4.0835-4.8462-4.0834 5.923v1.077h14v-1.077l-2.9164-3.2307z" fill="url(#c)"/><path d="m3391.5-1117.14h13v8h-13z" fill="none" opacity=".35" stroke="#fff"/><g fill="#1c99e0"><path d="m3376-1117.64h12v2h-12z"/><path d="m3376-1113.64h12v2h-12z"/><path d="m3376-1109.64h12v2h-12z"/><path d="m3376-1105.64h30v2h-30z"/><path d="m3376-1101.64h30v2h-30z"/><path d="m3376-1097.64h24v2h-24z"/></g></g><path d="m10.406998 262.91497v19.31639c-.04577 9.35782.959156 10.31695 10.298081 10.31695h25.970506c9.338924 0 10.055122-.96217 10.298081-10.31695v-19.31639z" fill="#fff" opacity=".1"/><path d="m33.688972 233.28164v59.26667h12.985253c9.338924 0 10.055122-.96217 10.298081-10.31695v-38.63278c0-9.35792-.959157-10.31694-10.298081-10.31694z" fill="#fff" opacity=".1"/><path d="m10.406998 281.70194v.52917c-.04577 9.35781.959155 10.3172 10.298081 10.3172h25.970506c9.338924 0 10.055122-.96243 10.298081-10.3172v-.52917c-.242959 9.35477-.959157 10.3172-10.298081 10.3172h-25.970506c-9.338926 0-10.343851-.95939-10.298081-10.3172z" opacity=".2"/><g fill="#fff"><path d="m20.705079 233.28164c-9.338926 0-10.343851.95939-10.298081 10.3172v.52916c-.04577-9.35781.959155-10.3172 10.298081-10.3172h25.970506c9.338927 0 10.298081.95928 10.298081 10.3172v-.52916c0-9.35793-.959154-10.3172-10.298081-10.3172z" opacity=".2"/><path d="m41.098666 292.54831 15.875-15.875v5.94886c-.01384 8.99472-1.006126 9.92614-10.100231 9.92614z" opacity=".08"/></g></g></svg>