<svg height="256" viewBox="0 0 67.73 67.73" width="256" xmlns="http://www.w3.org/2000/svg" xmlns:xlink="http://www.w3.org/1999/xlink"><linearGradient id="a" gradientTransform="matrix(0 -.11988342 .11987999 0 .362762 292.80976)" gradientUnits="userSpaceOnUse" x1="529.65515" x2="-35.310345" y1="401.58368" y2="119.09284"><stop offset="0" stop-color="#f2f2f2"/><stop offset="1" stop-color="#f9f9f9"/></linearGradient><linearGradient id="b" gradientUnits="userSpaceOnUse" x1="88" x2="488" y1="88" y2="488"><stop offset="0" stop-opacity=".588235"/><stop offset=".88" stop-opacity="0"/><stop offset="1"/></linearGradient><filter id="c" color-interpolation-filters="sRGB" height="1.087725" width="1.105998" x="-.052999" y="-.043863"><feGaussianBlur stdDeviation="8.4801079"/></filter><filter id="d" color-interpolation-filters="sRGB" height="1.021931" width="1.0265" x="-.01325" y="-.010966"><feGaussianBlur stdDeviation="2.120027"/></filter><g transform="translate(0 -229.26665)"><path d="m20.703991 233.54601c-9.338465 0-10.343273.95918-10.297505 10.31653v19.31535 19.31534c-.04577 9.35736.95904 10.31653 10.297505 10.31653h25.969365c9.338465 0 10.297506-.95906 10.297506-10.31653v-19.31534-19.31535c0-9.35746-.959041-10.31653-10.297506-10.31653z" fill="none" opacity=".2" stroke="#000" stroke-width="1.058281"/><path d="m189.84323 74c-70.59344 0-78.18921 7.250835-77.84323 77.98706v146.01294 146.01294c-.34598 70.73623 7.24979 77.98706 77.84323 77.98706h196.31354c70.59344 0 76.00668-7.27384 77.84323-77.98706v-146.01294-146.01294c0-70.737067-7.24979-77.98706-77.84323-77.98706z" filter="url(#d)" opacity=".1" transform="matrix(.13228516 0 0 .13228516 -4.409451 224.02148)"/><path d="m189.84323 74c-70.59344 0-78.18921 7.250835-77.84323 77.98706v146.01294 146.01294c-.34598 70.73623 7.24979 77.98706 77.84323 77.98706h196.31354c70.59344 0 77.84323-7.24999 77.84323-77.98706v-146.01294-146.01294c0-70.737067-7.24979-77.98706-77.84323-77.98706z" fill="url(#b)" filter="url(#c)" opacity=".3" transform="matrix(.13228516 0 0 .13228516 -4.409451 224.02148)"/><path d="m20.703991 233.54601c-9.338465 0-10.343273.95918-10.297505 10.31653v19.31535 19.31534c-.04577 9.35736.95904 10.31653 10.297505 10.31653h25.969365c9.338465 0 10.297506-.95906 10.297506-10.31653v-19.31534-19.31535c0-9.35746-.959041-10.31653-10.297506-10.31653z" fill="url(#a)"/><path d="m20.70406 233.54601c-9.338466 0-10.343342.95934-10.297574 10.3167v.52914c-.04577-9.35736.959108-10.3167 10.297574-10.3167h25.969228c9.338467 0 10.297574.95923 10.297574 10.3167v-.52914c0-9.35747-.959107-10.3167-10.297574-10.3167z" fill="#fff" opacity=".6"/><path d="m199.99994-367.99997h16v15.999999h-16z" fill="none" transform="matrix(0 2.1004267 -2.1004267 0 -722.46562 -173.71075)"/><path d="m115.28164 129.10508q-1.28 0-2.12-.36-.84-.36-1.4-.96-.88.48-2.12.84-1.24.32-2.48.32-1.92 0-3.52-.6-1.56-.6-2.72-1.76-1.159999-1.2-1.799999-2.92-.64-1.72-.64-4 0-1.92.6-3.6.6-1.72 1.759999-2.96 1.2-1.28 2.88-2 1.72-.72 3.88-.72 2.04 0 3.72.32 1.72.32 2.64.64v12.24q0 1.28.44 1.8.44.52 1.16.52 1.04 0 1.8-.72.8-.72 1.28-1.88.52-1.16.76-2.6.24-1.48.24-3 0-2.52-.88-4.72-.88-2.24-2.52-3.92-1.64-1.68-4-2.64-2.32-.96-5.24-.96-2.92 0-5.36 1-2.439999.96-4.199999 2.8-1.76 1.8-2.76 4.44-.96 2.64-.96 6 0 3.52 1.04 6.2 1.04 2.64 2.88 4.44 1.88 1.76 4.399999 2.64 2.56.92 5.6.92 2.36 0 3.88-.28 1.56-.28 2-.44l.4 2.96q-.68.24-2.48.52-1.76.28-3.8.28-3.56 0-6.72-1.04-3.159999-1-5.519999-3.12-2.36-2.08-3.76-5.32-1.36-3.28-1.36-7.76 0-4.32 1.36-7.56 1.36-3.24 3.64-5.36 2.32-2.16 5.319999-3.24 3.04-1.08 6.4-1.08 3.28 0 6.2 1.08 2.92 1.04 5.12 3.08 2.2 2 3.48 4.88 1.28 2.84 1.28 6.44 0 2.72-.64 4.8-.6 2.08-1.64 3.52-1.04 1.4-2.48 2.12-1.44.72-3.04.72zm-8-3.24q.84 0 1.68-.16.88-.2 1.56-.56-.12-.52-.16-1.04-.04-.52-.04-1v-9.4q-.24-.08-.92-.16-.68-.08-1.52-.08-2.84 0-4.24 1.76-1.4 1.76-1.4 4.44 0 2.84 1.36 4.52 1.36 1.68 3.68 1.68z" fill="#007aa6" fill-opacity=".941176" transform="matrix(.65963633 0 0 .65963633 -36.683126 184.21607)"/><g fill="#fff" transform="translate(.109927 .02382)"><path d="m40.98669 292.78594 15.874219-15.87421v5.94856c-.01384 8.99428-1.006077 9.92565-10.099734 9.92565z" opacity=".4"/><path d="m33.578721 233.52219v59.26375h12.984614c9.338464 0 10.054627-.96212 10.297574-10.31643v-19.31544-19.31544c0-9.35747-.95911-10.31644-10.297574-10.31644z" opacity=".1"/><path d="m10.296533 263.15407v19.31544c-.04577 9.35735.959108 10.31643 10.297574 10.31643h25.969228c9.338464 0 10.054627-.96212 10.297574-10.31643v-19.31544z" opacity=".2"/></g></g></svg>