<?xml version="1.0" encoding="UTF-8" standalone="no"?>
<svg
   xmlns:dc="http://purl.org/dc/elements/1.1/"
   xmlns:cc="http://creativecommons.org/ns#"
   xmlns:rdf="http://www.w3.org/1999/02/22-rdf-syntax-ns#"
   xmlns:svg="http://www.w3.org/2000/svg"
   xmlns="http://www.w3.org/2000/svg"
   xmlns:xlink="http://www.w3.org/1999/xlink"
   xmlns:sodipodi="http://sodipodi.sourceforge.net/DTD/sodipodi-0.dtd"
   xmlns:inkscape="http://www.inkscape.org/namespaces/inkscape"
   width="256"
   height="256"
   version="1.1"
   viewBox="0 0 67.73 67.73"
   id="svg281"
   sodipodi:docname="message-rfc822 1.svg"
   inkscape:version="0.92.4 (5da689c313, 2019-01-14)">
  <metadata
     id="metadata285">
    <rdf:RDF>
      <cc:Work
         rdf:about="">
        <dc:format>image/svg+xml</dc:format>
        <dc:type
           rdf:resource="http://purl.org/dc/dcmitype/StillImage" />
        <dc:title></dc:title>
      </cc:Work>
    </rdf:RDF>
  </metadata>
  <sodipodi:namedview
     pagecolor="#ffffff"
     bordercolor="#666666"
     borderopacity="1"
     objecttolerance="10"
     gridtolerance="10"
     guidetolerance="10"
     inkscape:pageopacity="0"
     inkscape:pageshadow="2"
     inkscape:window-width="1707"
     inkscape:window-height="945"
     id="namedview283"
     showgrid="false"
     inkscape:zoom="3.1520563"
     inkscape:cx="127.33085"
     inkscape:cy="126.82523"
     inkscape:window-x="55"
     inkscape:window-y="116"
     inkscape:window-maximized="0"
     inkscape:current-layer="g279" />
  <defs
     id="defs139">
    <radialGradient
       id="radialGradient21562"
       cx="152.333"
       cy="-754.638"
       r="15"
       gradientTransform="matrix(3.84067e-6 .270741 -4.04344 0 -2201.98 -1535.94)"
       gradientUnits="userSpaceOnUse">
      <stop
         style="stop-color:#808080;stop-opacity:.50199997"
         offset="0"
         id="stop2" />
      <stop
         style="stop-color:#000000;stop-opacity:0"
         offset="1"
         id="stop4" />
    </radialGradient>
    <linearGradient
       id="linearGradient4425"
       x1="850.25"
       x2="850.25"
       y1="-1506.575"
       y2="-1510.583"
       gradientUnits="userSpaceOnUse"
       xlink:href="#linearGradient10423" />
    <linearGradient
       id="linearGradient10423">
      <stop
         style="stop-color:#808080"
         offset="0"
         id="stop8" />
      <stop
         style="stop-color:#333333"
         offset="1"
         id="stop10" />
    </linearGradient>
    <linearGradient
       id="linearGradient21568"
       x1="809.625"
       x2="809.625"
       y1="-1074.763"
       y2="-1116.764"
       gradientTransform="matrix(2.03333,0,0,2.04762,-752.267,686.81)"
       gradientUnits="userSpaceOnUse">
      <stop
         style="stop-color:#d36118"
         offset="0"
         id="stop13" />
      <stop
         style="stop-color:#f09e6f"
         offset="1"
         id="stop15" />
    </linearGradient>
    <linearGradient
       id="linearGradient21570"
       x1="812"
       x2="812"
       y1="-1075.638"
       y2="-1115.638"
       gradientTransform="matrix(2.03333,0,0,2.15,-752.267,798.982)"
       gradientUnits="userSpaceOnUse">
      <stop
         style="stop-color:#edbfa1"
         offset="0"
         id="stop18" />
      <stop
         style="stop-color:#fdf1ea"
         offset="1"
         id="stop20" />
    </linearGradient>
    <radialGradient
       id="radialGradient21574"
       cx="-1535.455"
       cy="-853"
       r="10"
       gradientTransform="matrix(-3.31574,0,0,-3.2,-6604.01,-3579.6)"
       gradientUnits="userSpaceOnUse">
      <stop
         style="stop-color:#ffffff"
         offset="0"
         id="stop23" />
      <stop
         style="stop-color:#ffd5d5;stop-opacity:0"
         offset="1"
         id="stop25" />
    </radialGradient>
    <linearGradient
       id="linearGradient4110"
       x1="825.25"
       x2="825.25"
       y1="-1559.638"
       y2="-1525.638"
       gradientUnits="userSpaceOnUse"
       xlink:href="#linearGradient10658" />
    <linearGradient
       id="linearGradient10658">
      <stop
         style="stop-color:#b84603"
         offset="0"
         id="stop29" />
      <stop
         style="stop-color:#622502"
         offset="1"
         id="stop31" />
    </linearGradient>
    <linearGradient
       id="linearGradient21578"
       x1="895.5"
       x2="895.5"
       y1="647.812"
       y2="735.75"
       gradientUnits="userSpaceOnUse"
       xlink:href="#linearGradient10391" />
    <linearGradient
       id="linearGradient10391">
      <stop
         style="stop-color:#e67325"
         offset="0"
         id="stop35" />
      <stop
         style="stop-color:#c8400c"
         offset="1"
         id="stop37" />
    </linearGradient>
    <linearGradient
       id="linearGradient21580"
       x1="798.245"
       x2="902"
       y1="-1589.138"
       y2="-1589.138"
       gradientUnits="userSpaceOnUse">
      <stop
         style="stop-color:#8e2103"
         offset="0"
         id="stop40" />
      <stop
         style="stop-color:#e46f1f"
         offset=".169"
         id="stop42" />
      <stop
         style="stop-color:#e66d20"
         offset=".838"
         id="stop44" />
      <stop
         style="stop-color:#922504"
         offset="1"
         id="stop46" />
    </linearGradient>
    <linearGradient
       id="linearGradient21582"
       x1="902.25"
       x2="902.25"
       y1="-1534.416"
       y2="-1524.357"
       gradientUnits="userSpaceOnUse">
      <stop
         style="stop-color:#808080"
         offset="0"
         id="stop49" />
      <stop
         style="stop-color:#606060"
         offset="1"
         id="stop51" />
    </linearGradient>
    <linearGradient
       id="linearGradient21584"
       x1="714"
       x2="714"
       y1="-1063.638"
       y2="-1079.16"
       gradientTransform="matrix(1.17949,0,0,1.5,10.8462,67.8194)"
       gradientUnits="userSpaceOnUse">
      <stop
         style="stop-color:#ffffff"
         offset="0"
         id="stop54" />
      <stop
         style="stop-color:#ffffff;stop-opacity:0"
         offset="1"
         id="stop56" />
    </linearGradient>
    <linearGradient
       id="linearGradient21586"
       x1="889"
       x2="879"
       y1="-1054.638"
       y2="-1042.638"
       gradientTransform="matrix(2,0,0,2,-898,556.638)"
       gradientUnits="userSpaceOnUse">
      <stop
         style="stop-color:#18a303"
         offset="0"
         id="stop59" />
      <stop
         style="stop-color:#106802"
         offset="1"
         id="stop61" />
    </linearGradient>
    <linearGradient
       id="linearGradient21588"
       x1="818.035"
       x2="882.237"
       y1="-1575.703"
       y2="-1575.703"
       gradientUnits="userSpaceOnUse">
      <stop
         style="stop-color:#8e2103"
         offset="0"
         id="stop64" />
      <stop
         style="stop-color:#e45c1f"
         offset=".169"
         id="stop66" />
      <stop
         style="stop-color:#e45c1f"
         offset=".838"
         id="stop68" />
      <stop
         style="stop-color:#922504"
         offset="1"
         id="stop70" />
    </linearGradient>
    <linearGradient
       id="linearGradient21590"
       x1="-17"
       x2="144"
       y1="-1194.638"
       y2="-1194.638"
       gradientTransform="matrix(.726708 0 0 1 802.354 -405)"
       gradientUnits="userSpaceOnUse"
       xlink:href="#linearGradient9014" />
    <linearGradient
       id="linearGradient9014">
      <stop
         style="stop-color:#ffffff;stop-opacity:0"
         offset="0"
         id="stop74" />
      <stop
         style="stop-color:#ffffff"
         offset=".493"
         id="stop76" />
      <stop
         style="stop-color:#ffffff;stop-opacity:0"
         offset="1"
         id="stop78" />
    </linearGradient>
    <linearGradient
       id="linearGradient21594"
       x1="895.5"
       x2="895.5"
       y1="621.562"
       y2="709.5"
       gradientUnits="userSpaceOnUse"
       xlink:href="#linearGradient10391" />
    <linearGradient
       id="linearGradient21598"
       x1="895.5"
       x2="895.5"
       y1="595.312"
       y2="683.25"
       gradientUnits="userSpaceOnUse"
       xlink:href="#linearGradient10391" />
    <linearGradient
       id="linearGradient21602"
       x1="895.5"
       x2="895.5"
       y1="569.062"
       y2="657"
       gradientUnits="userSpaceOnUse"
       xlink:href="#linearGradient10391" />
    <linearGradient
       id="linearGradient21604"
       x1="-17"
       x2="144"
       y1="-1194.638"
       y2="-1194.638"
       gradientTransform="matrix(.645963 0 0 1 808.981 -396)"
       gradientUnits="userSpaceOnUse"
       xlink:href="#linearGradient8074-2" />
    <linearGradient
       id="linearGradient8074-2">
      <stop
         style="stop-color:#000000;stop-opacity:0"
         offset="0"
         id="stop85" />
      <stop
         style="stop-color:#000000"
         offset=".493"
         id="stop87" />
      <stop
         style="stop-color:#000000;stop-opacity:0"
         offset="1"
         id="stop89" />
    </linearGradient>
    <linearGradient
       id="linearGradient21606"
       x1="-17"
       x2="144"
       y1="-1194.638"
       y2="-1194.638"
       gradientTransform="matrix(.397516 0 0 1 824.758 -386)"
       gradientUnits="userSpaceOnUse"
       xlink:href="#linearGradient8074-2" />
    <linearGradient
       id="linearGradient21608"
       x1="-17"
       x2="144"
       y1="-1194.638"
       y2="-1194.638"
       gradientTransform="matrix(.720497 0 0 1 804.248 -319)"
       gradientUnits="userSpaceOnUse"
       xlink:href="#linearGradient8074-2" />
    <linearGradient
       id="linearGradient21612"
       x1="-17"
       x2="144"
       y1="-1194.638"
       y2="-1194.638"
       gradientTransform="matrix(.286106 0 0 1 858.013 -333.937)"
       gradientUnits="userSpaceOnUse"
       xlink:href="#linearGradient9014" />
    <linearGradient
       id="linearGradient21618"
       x1="881"
       x2="887"
       y1="-1042.638"
       y2="-1048.638"
       gradientTransform="matrix(2,0,0,2,-898,556.638)"
       gradientUnits="userSpaceOnUse">
      <stop
         style="stop-color:#78db67"
         offset="0"
         id="stop95" />
      <stop
         style="stop-color:#ccf4c6"
         offset="1"
         id="stop97" />
    </linearGradient>
    <linearGradient
       id="linearGradient1144"
       x1="208"
       x2="96"
       y1="28"
       y2="284"
       gradientTransform="matrix(.26458333 0 0 .26458333 -6.5263354 221.63997)"
       gradientUnits="userSpaceOnUse">
      <stop
         style="stop-color:#f2f2f2"
         offset="0"
         id="stop100" />
      <stop
         style="stop-color:#ffffff"
         offset="1"
         id="stop102" />
    </linearGradient>
    <linearGradient
       id="linearGradient4226"
       x1="529.655"
       x2="-35.31"
       y1="401.584"
       y2="119.093"
       gradientTransform="matrix(0 -.11988932 -.11988589 0 67.016455 292.5483)"
       gradientUnits="userSpaceOnUse">
      <stop
         style="stop-color:#993a03"
         offset="0"
         id="stop105" />
      <stop
         style="stop-color:#f0692c"
         offset="1"
         id="stop107" />
    </linearGradient>
    <linearGradient
       id="linearGradient4358"
       x1="88"
       x2="488"
       y1="88"
       y2="488"
       gradientUnits="userSpaceOnUse">
      <stop
         style="stop-color:#000000;stop-opacity:.58823532"
         offset="0"
         id="stop110" />
      <stop
         style="stop-color:#000000;stop-opacity:0"
         offset=".88"
         id="stop112" />
      <stop
         style="stop-color:#000000"
         offset="1"
         id="stop114" />
    </linearGradient>
    <filter
       id="filter4346"
       width="1.026"
       height="1.022"
       x="-.01"
       y="-.01"
       style="color-interpolation-filters:sRGB">
      <feGaussianBlur
         stdDeviation="2.12"
         id="feGaussianBlur117" />
    </filter>
    <radialGradient
       id="radialGradient2428"
       cx="152.333"
       cy="-754.638"
       r="15"
       gradientTransform="matrix(7.93527e-7 .169213 -.835421 0 197.029 -1517.95)"
       gradientUnits="userSpaceOnUse">
      <stop
         style="stop-color:#000000;stop-opacity:.50196099"
         offset="0"
         id="stop120" />
      <stop
         style="stop-color:#000000;stop-opacity:0"
         offset="1"
         id="stop122" />
    </radialGradient>
    <linearGradient
       id="linearGradient2432"
       x1="529.25"
       x2="535"
       y1="-1568.638"
       y2="-1574.638"
       gradientTransform="matrix(1.66667,0,0,7,-91.6668,9465.83)"
       gradientUnits="userSpaceOnUse">
      <stop
         style="stop-color:#ff0000"
         offset="0"
         id="stop125" />
      <stop
         style="stop-color:#ffc600;stop-opacity:0"
         offset="1"
         id="stop127" />
    </linearGradient>
    <linearGradient
       id="linearGradient2434"
       x1="-17"
       x2="144"
       y1="-1194.638"
       y2="-1194.638"
       gradientTransform="matrix(.286106 0 0 1 857.864 -364)"
       gradientUnits="userSpaceOnUse"
       xlink:href="#linearGradient8074-2" />
    <linearGradient
       id="linearGradient2436"
       x1="-17"
       x2="144"
       y1="-1194.638"
       y2="-1194.638"
       gradientTransform="matrix(.186336 0 0 1 813.168 -365)"
       gradientUnits="userSpaceOnUse"
       xlink:href="#linearGradient8074-2" />
    <linearGradient
       id="linearGradient2438"
       x1="-17"
       x2="144"
       y1="-1194.638"
       y2="-1194.638"
       gradientTransform="matrix(.509317 0 0 1 -1588.98 403.638)"
       gradientUnits="userSpaceOnUse">
      <stop
         style="stop-color:#d40000;stop-opacity:0"
         offset="0"
         id="stop132" />
      <stop
         style="stop-color:#d40000"
         offset=".493"
         id="stop134" />
      <stop
         style="stop-color:#d40000;stop-opacity:0"
         offset="1"
         id="stop136" />
    </linearGradient>
    <linearGradient
       gradientUnits="userSpaceOnUse"
       y2="119.09284"
       x2="-35.310345"
       y1="401.58368"
       x1="529.65515"
       id="linearGradient4226-3"
       xlink:href="#linearGradient4338"
       inkscape:collect="always"
       gradientTransform="matrix(0,-0.11988342,0.11987999,0,0.362762,292.80976)" />
    <linearGradient
       inkscape:collect="always"
       id="linearGradient4338">
      <stop
         style="stop-color:#f2f2f2;stop-opacity:1"
         offset="0"
         id="stop4340" />
      <stop
         style="stop-color:#f9f9f9;stop-opacity:1"
         offset="1"
         id="stop4342" />
    </linearGradient>
    <linearGradient
       inkscape:collect="always"
       xlink:href="#linearGradient4360"
       id="linearGradient4358-6"
       x1="88"
       y1="88"
       x2="488"
       y2="488"
       gradientUnits="userSpaceOnUse" />
    <linearGradient
       id="linearGradient4360"
       inkscape:collect="always">
      <stop
         id="stop4362"
         offset="0"
         style="stop-color:#000000;stop-opacity:0.58823532" />
      <stop
         style="stop-color:#000000;stop-opacity:0"
         offset="0.88"
         id="stop4364" />
      <stop
         id="stop4366"
         offset="1"
         style="stop-color:#000000;stop-opacity:1" />
    </linearGradient>
    <filter
       inkscape:collect="always"
       style="color-interpolation-filters:sRGB"
       id="filter4380"
       x="-0.052999184"
       width="1.1059984"
       y="-0.043862626"
       height="1.0877253">
      <feGaussianBlur
         inkscape:collect="always"
         stdDeviation="8.4801079"
         id="feGaussianBlur4382" />
    </filter>
    <filter
       inkscape:collect="always"
       style="color-interpolation-filters:sRGB"
       id="filter4346-7"
       x="-0.013249796"
       width="1.0264996"
       y="-0.010965657"
       height="1.0219313">
      <feGaussianBlur
         inkscape:collect="always"
         stdDeviation="2.120027"
         id="feGaussianBlur4348" />
    </filter>
  </defs>
  <g
     transform="translate(0,-229.26665)"
     id="g279">
    <path
       sodipodi:nodetypes="scccssscsss"
       inkscape:connector-curvature="0"
       id="path1163"
       d="m 20.703991,233.54601 c -9.338465,0 -10.343273,0.95918 -10.297505,10.31653 v 19.31535 19.31534 c -0.04577,9.35736 0.95904,10.31653 10.297505,10.31653 h 25.969365 c 9.338465,0 10.297506,-0.95906 10.297506,-10.31653 v -19.31534 -19.31535 c 0,-9.35746 -0.959041,-10.31653 -10.297506,-10.31653 z"
       style="color:#000000;display:inline;overflow:visible;visibility:visible;opacity:0.2;fill:none;fill-opacity:1;fill-rule:nonzero;stroke:#000000;stroke-width:1.0582813;stroke-miterlimit:4;stroke-dasharray:none;stroke-opacity:1;marker:none;enable-background:accumulate" />
    <path
       style="color:#000000;display:inline;overflow:visible;visibility:visible;opacity:0.1;fill:#000000;fill-opacity:1;fill-rule:nonzero;stroke:none;stroke-width:2;marker:none;filter:url(#filter4346-7);enable-background:accumulate"
       d="M 189.84323,74 C 119.24979,74 111.65402,81.250835 112,151.98706 V 298 444.01294 C 111.65402,514.74917 119.24979,522 189.84323,522 H 386.15677 C 456.75021,522 462.16345,514.72616 464,444.01294 V 298 151.98706 C 464,81.249993 456.75021,74 386.15677,74 Z"
       id="rect4158-9"
       inkscape:connector-curvature="0"
       sodipodi:nodetypes="scccssscsss"
       transform="matrix(0.13228516,0,0,0.13228516,-4.4094514,224.02148)" />
    <path
       sodipodi:nodetypes="scccssscsss"
       inkscape:connector-curvature="0"
       id="path4350"
       d="M 189.84323,74 C 119.24979,74 111.65402,81.250835 112,151.98706 V 298 444.01294 C 111.65402,514.74917 119.24979,522 189.84323,522 H 386.15677 C 456.75021,522 464,514.75001 464,444.01294 V 298 151.98706 C 464,81.249993 456.75021,74 386.15677,74 Z"
       style="color:#000000;display:inline;overflow:visible;visibility:visible;opacity:0.3;fill:url(#linearGradient4358-6);fill-opacity:1;fill-rule:nonzero;stroke:none;stroke-width:2;marker:none;filter:url(#filter4380);enable-background:accumulate"
       transform="matrix(0.13228516,0,0,0.13228516,-4.4094514,224.02148)" />
    <path
       inkscape:export-ydpi="192"
       inkscape:export-xdpi="192"
       inkscape:export-filename="/home/gusbemacbe/GitHub/yaru/icons/Suru/256x256@2x/mimetypes/application-x-theme.png"
       style="color:#000000;display:inline;overflow:visible;visibility:visible;fill:url(#linearGradient4226-3);fill-opacity:1;fill-rule:nonzero;stroke:none;stroke-width:0.26457033;marker:none;enable-background:accumulate"
       d="m 20.703991,233.54601 c -9.338465,0 -10.343273,0.95918 -10.297505,10.31653 v 19.31535 19.31534 c -0.04577,9.35736 0.95904,10.31653 10.297505,10.31653 h 25.969365 c 9.338465,0 10.297506,-0.95906 10.297506,-10.31653 v -19.31534 -19.31535 c 0,-9.35746 -0.959041,-10.31653 -10.297506,-10.31653 z"
       id="rect4158"
       inkscape:connector-curvature="0"
       sodipodi:nodetypes="scccssscsss" />
    <path
       inkscape:export-ydpi="192"
       inkscape:export-xdpi="192"
       inkscape:export-filename="/home/gusbemacbe/GitHub/yaru/icons/Suru/256x256@2x/mimetypes/application-x-theme.png"
       style="color:#000000;display:inline;overflow:visible;visibility:visible;opacity:0.6;fill:#ffffff;fill-opacity:1;fill-rule:nonzero;stroke:none;stroke-width:0.26457033;marker:none;enable-background:accumulate"
       d="m 20.70406,233.54601 c -9.338466,0 -10.343342,0.95934 -10.297574,10.3167 v 0.52914 c -0.04577,-9.35736 0.959108,-10.3167 10.297574,-10.3167 h 25.969228 c 9.338467,0 10.297574,0.95923 10.297574,10.3167 v -0.52914 c 0,-9.35747 -0.959107,-10.3167 -10.297574,-10.3167 z"
       id="path931"
       inkscape:connector-curvature="0" />
    <g
       style="display:inline;enable-background:new"
       id="g7965"
       inkscape:label="input-gaming"
       transform="matrix(2.1004267,0,0,2.1004267,-722.46562,-173.71075)">
      <rect
         transform="rotate(90)"
         y="-367.99997"
         x="199.99994"
         height="15.999999"
         width="16"
         id="rect7917"
         style="color:#000000;display:inline;overflow:visible;visibility:visible;fill:none;stroke:none;stroke-width:0.66653478;marker:none;enable-background:accumulate" />
    </g>
    <g
       aria-label="@"
       transform="matrix(0.65963633,0,0,0.65963633,-36.683126,184.21607)"
       style="font-style:normal;font-weight:normal;font-size:40px;line-height:1.25;font-family:sans-serif;letter-spacing:0px;word-spacing:0px;display:inline;opacity:1;fill:#007aa6;fill-opacity:0.94117647;stroke:none;enable-background:new"
       id="flowRoot945">
      <path
         d="m 115.28164,129.10508 q -1.28,0 -2.12,-0.36 -0.84,-0.36 -1.4,-0.96 -0.88,0.48 -2.12,0.84 -1.24,0.32 -2.48,0.32 -1.92,0 -3.52,-0.6 -1.56,-0.6 -2.72,-1.76 -1.159999,-1.2 -1.799999,-2.92 -0.64,-1.72 -0.64,-4 0,-1.92 0.6,-3.6 0.6,-1.72 1.759999,-2.96 1.2,-1.28 2.88,-2 1.72,-0.72 3.88,-0.72 2.04,0 3.72,0.32 1.72,0.32 2.64,0.64 v 12.24 q 0,1.28 0.44,1.8 0.44,0.52 1.16,0.52 1.04,0 1.8,-0.72 0.8,-0.72 1.28,-1.88 0.52,-1.16 0.76,-2.6 0.24,-1.48 0.24,-3 0,-2.52 -0.88,-4.72 -0.88,-2.24 -2.52,-3.92 -1.64,-1.68 -4,-2.64 -2.32,-0.96 -5.24,-0.96 -2.92,0 -5.36,1 -2.439999,0.96 -4.199999,2.8 -1.76,1.8 -2.76,4.44 -0.96,2.64 -0.96,6 0,3.52 1.04,6.2 1.04,2.64 2.88,4.44 1.88,1.76 4.399999,2.64 2.56,0.92 5.6,0.92 2.36,0 3.88,-0.28 1.56,-0.28 2,-0.44 l 0.4,2.96 q -0.68,0.24 -2.48,0.52 -1.76,0.28 -3.8,0.28 -3.56,0 -6.72,-1.04 -3.159999,-1 -5.519999,-3.12 -2.36,-2.08 -3.76,-5.32 -1.36,-3.28 -1.36,-7.76 0,-4.32 1.36,-7.56 1.36,-3.24 3.64,-5.36 2.32,-2.16 5.319999,-3.24 3.04,-1.08 6.4,-1.08 3.28,0 6.2,1.08 2.92,1.04 5.12,3.08 2.2,2 3.48,4.88 1.28,2.84 1.28,6.44 0,2.72 -0.64,4.8 -0.6,2.08 -1.64,3.52 -1.04,1.4 -2.48,2.12 -1.44,0.72 -3.04,0.72 z m -8,-3.24 q 0.84,0 1.68,-0.16 0.88,-0.2 1.56,-0.56 -0.12,-0.52 -0.16,-1.04 -0.04,-0.52 -0.04,-1 v -9.4 q -0.24,-0.08 -0.92,-0.16 -0.68,-0.08 -1.52,-0.08 -2.84,0 -4.24,1.76 -1.4,1.76 -1.4,4.44 0,2.84 1.36,4.52 1.36,1.68 3.68,1.68 z"
         style="font-style:normal;font-variant:normal;font-weight:normal;font-stretch:normal;font-family:ubuntu;-inkscape-font-specification:ubuntu;fill:#007aa6;fill-opacity:0.94117647"
         id="path172"
         inkscape:connector-curvature="0" />
    </g>
    <g
       id="g1139"
       transform="translate(0.10992744,0.02382)">
      <path
         sodipodi:nodetypes="cccsc"
         inkscape:connector-curvature="0"
         id="path4254"
         d="m 40.98669,292.78594 15.874219,-15.87421 v 5.94856 c -0.01384,8.99428 -1.006077,9.92565 -10.099734,9.92565 z"
         style="color:#000000;display:inline;overflow:visible;visibility:visible;opacity:0.4;fill:#ffffff;fill-opacity:1;fill-rule:nonzero;stroke:none;stroke-width:2.11656237;stroke-linecap:butt;stroke-linejoin:miter;stroke-miterlimit:4;stroke-dasharray:none;stroke-dashoffset:0;stroke-opacity:1;marker:none;enable-background:accumulate" />
      <path
         sodipodi:nodetypes="ccsscssc"
         inkscape:connector-curvature="0"
         id="path4231"
         d="m 33.578721,233.52219 v 59.26375 h 12.984614 c 9.338464,0 10.054627,-0.96212 10.297574,-10.31643 v -19.31544 -19.31544 c 0,-9.35747 -0.95911,-10.31644 -10.297574,-10.31644 z"
         style="color:#000000;display:inline;overflow:visible;visibility:visible;opacity:0.1;fill:#ffffff;fill-opacity:1;fill-rule:nonzero;stroke:none;stroke-width:0.26457033;marker:none;enable-background:accumulate" />
      <path
         sodipodi:nodetypes="ccssscc"
         id="path4255"
         d="m 10.296533,263.15407 v 19.31544 c -0.04577,9.35735 0.959108,10.31643 10.297574,10.31643 h 25.969228 c 9.338464,0 10.054627,-0.96212 10.297574,-10.31643 v -19.31544 z"
         style="color:#000000;display:inline;overflow:visible;visibility:visible;opacity:0.2;fill:#ffffff;fill-opacity:1;fill-rule:nonzero;stroke:none;stroke-width:0.26457033;marker:none;enable-background:accumulate"
         inkscape:connector-curvature="0" />
    </g>
  </g>
</svg>
