<svg height="256" viewBox="0 0 67.73 67.73" width="256" xmlns="http://www.w3.org/2000/svg" xmlns:xlink="http://www.w3.org/1999/xlink">
  <linearGradient id="linearGradient4226" gradientTransform="matrix(0 .11988932 .11988589 0 .36278 233.28165)" gradientUnits="userSpaceOnUse" x1="529.655" x2="-35.31" y1="401.584" y2="119.093">
    <stop id="stop2" offset="0" stop-color="#f2f2f2"/>
    <stop id="stop4" offset="1" stop-color="#f9f9f9"/>
  </linearGradient>
  <linearGradient id="linearGradient4358" gradientUnits="userSpaceOnUse" x1="88" x2="488" y1="88" y2="488">
    <stop id="stop7" offset="0" stop-opacity=".588235"/>
    <stop id="stop9" offset=".88" stop-opacity="0"/>
    <stop id="stop11" offset="1"/>
  </linearGradient>
  <filter id="filter4346" color-interpolation-filters="sRGB" height="1.022" width="1.026" x="-.01" y="-.01">
    <feGaussianBlur id="feGaussianBlur14" stdDeviation="2.12"/>
  </filter>
  <g transform="translate(0 -229.26666)">
    <path d="m20.70501 233.28165c-9.338925 0-10.343782.95922-10.298012 10.31704v38.63259c-.04577 9.35781.959087 10.31704 10.298012 10.31704h25.970643c9.338924 0 10.298012-.95912 10.298012-10.31704v-38.63259c0-9.35793-.959088-10.31704-10.298012-10.31704z" fill="none" opacity=".2" stroke="#000" stroke-width="1.05833"/>
    <path d="m189.84323 74c-70.59344 0-78.18921 7.250835-77.84323 77.98706v292.02588c-.34598 70.73623 7.24979 77.98706 77.84323 77.98706h196.31354c70.59344 0 76.00668-7.27384 77.84323-77.98706v-292.02588c0-70.737067-7.24979-77.98706-77.84323-77.98706z" filter="url(#filter4346)" opacity=".1" transform="matrix(.13229167 0 0 .13229167 -4.409668 223.75665)"/>
    <path d="m189.84323 74c-70.59344 0-78.18921 7.250835-77.84323 77.98706v292.02588c-.34598 70.73623 7.24979 77.98706 77.84323 77.98706h196.31354c70.59344 0 77.84323-7.24999 77.84323-77.98706v-292.02588c0-70.737067-7.24979-77.98706-77.84323-77.98706z" fill="url(#linearGradient4358)" opacity=".3" transform="matrix(.13229167 0 0 .13229167 -4.409668 223.75665)" visibility="hidden"/>
    <path d="m20.70501 292.54832c-9.338925 0-10.343782-.95923-10.298012-10.31704v-38.63259c-.04577-9.35782.959087-10.31704 10.298012-10.31704h25.970643c9.338924 0 10.298012.95911 10.298012 10.31704v38.63259c0 9.35792-.959088 10.31704-10.298012 10.31704z" fill="url(#linearGradient4226)"/>
    <path d="m20.705078 233.28165c-9.338925 0-10.34385.95939-10.29808 10.3172v.52916c-.04577-9.35781.959155-10.3172 10.29808-10.3172h25.970506c9.338927 0 10.298081.95928 10.298081 10.3172v-.52916c0-9.35793-.959154-10.3172-10.298081-10.3172z" fill="#fff" opacity=".6"/>
    <path d="m41.098665 292.54832 15.875-15.875v5.94886c-.01384 8.99472-1.006126 9.92614-10.100231 9.92614z" fill="#fff" opacity=".4"/>
    <path d="m221.69829 9.58217c.17002.767135.26708 1.561547.26708 2.380544 0 6.06317-4.91176 10.971753-10.97175 10.968582-6.06.0035-10.96859-4.902239-10.96859-10.96541 0-.821692.0993-1.619278.27041-2.39006 3.52879-.666425 7.10992-1.007092 10.70214-1.018035 3.59064.01316 7.17335.356209 10.70214 1.024696zm-41.40972 13.349126c0 12.243701 7.18128 22.790414 17.54084 27.722786v55.651748l13.16198 13.16198 13.16516-13.16515-.75445-11.656892 6.20591-6.205908-6.20591-6.205907 9.30966-9.306483-9.30966-9.309655.75428-12.971663c10.36909-4.933958 17.55671-15.475912 17.55671-27.722786 0-2.041146-.21077-4.031541-.59077-5.961669 17.65186 10.57526 28.4682 29.625953 28.49991 50.211868-.00062 32.369684-26.24783 58.617515-58.61751 58.617515-32.36969-.00083-58.61752-26.247831-58.61752-58.617515.0246-20.585915 10.84171-39.649295 28.49991-50.227727-.38143 1.933299-.58792 3.926866-.58744 5.971184zm21.93399 35.097555h4.38996v43.883839h-4.38679l-.003-43.86798v-.0032z" fill="#559f2f" transform="matrix(.33851773 0 0 .33851773 -37.739219 240.17525)"/>
    <g fill="#fff">
      <path d="m33.690331 233.28165v59.26667h12.985253c9.338924 0 10.055122-.96217 10.298081-10.31695v-38.63278c0-9.35792-.959157-10.31694-10.298081-10.31694z" opacity=".1"/>
      <path d="m10.406998 262.91498v19.31639c-.04577 9.35782.959156 10.31695 10.29808 10.31695h25.970506c9.338924 0 10.055122-.96217 10.298081-10.31695v-19.31639z" opacity=".2"/>
    </g>
  </g>
</svg>
