<svg id="svg42" height="256" viewBox="0 0 67.73 67.73" width="256" xmlns="http://www.w3.org/2000/svg" xmlns:xlink="http://www.w3.org/1999/xlink">
  <radialGradient id="radialGradient1752" cx="179.99261" cy="103.2822" gradientTransform="matrix(1.3687341 -.00000021 .0000002 1.3528551 -121.02851 -70.900578)" gradientUnits="userSpaceOnUse" r="35.068905">
    <stop id="stop1746" offset="0"/>
    <stop id="stop1748" offset="1" stop-opacity="0"/>
  </radialGradient>
  <filter id="filter2553" color-interpolation-filters="sRGB" height="1.144" width="1.144" x="-.072" y="-.072">
    <feGaussianBlur id="feGaussianBlur2555" stdDeviation="1.98"/>
  </filter>
  <linearGradient id="linearGradient4226" gradientTransform="matrix(0 -.11988342 .11987999 0 .362762 62.749399)" gradientUnits="userSpaceOnUse" x1="529.65515" x2="-35.310345" y1="401.58368" y2="119.09284">
    <stop id="stop4340" offset="0" stop-color="#f2f2f2"/>
    <stop id="stop4342" offset="1" stop-color="#f9f9f9"/>
  </linearGradient>
  <linearGradient id="linearGradient4358" gradientUnits="userSpaceOnUse" x1="88" x2="488" y1="88" y2="488">
    <stop id="stop4362" offset="0" stop-opacity=".588235"/>
    <stop id="stop4364" offset=".88" stop-opacity="0"/>
    <stop id="stop4366" offset="1"/>
  </linearGradient>
  <filter id="filter4380" color-interpolation-filters="sRGB" height="1.087725" width="1.105998" x="-.052999" y="-.043863">
    <feGaussianBlur id="feGaussianBlur4382" stdDeviation="8.4801079"/>
  </filter>
  <filter id="filter4346" color-interpolation-filters="sRGB" height="1.021931" width="1.0265" x="-.01325" y="-.010966">
    <feGaussianBlur id="feGaussianBlur4348" stdDeviation="2.120027"/>
  </filter>
  <path id="path1163" d="m20.70399 3.4856494c-9.338464 0-10.343273.959178-10.297504 10.3165306v19.315345 19.315344c-.04577 9.357355.95904 10.316531 10.297504 10.316531h25.969365c9.338465 0 10.297506-.959068 10.297506-10.316531v-19.315344-12.699376l-16.9325-16.9324996z" fill="none" opacity=".2" stroke="#000" stroke-width="1.058281"/>
  <path id="rect4158-9" d="m189.84323 74c-70.59344 0-78.18921 7.250835-77.84323 77.98706v146.01294 146.01294c-.34598 70.73623 7.24979 77.98706 77.84323 77.98706h196.31354c70.59344 0 76.00668-7.27384 77.84323-77.98706v-146.01294-98l-128-126z" filter="url(#filter4346)" opacity=".1" transform="matrix(.13228516 0 0 .13228516 -4.409451 -6.038882)"/>
  <path id="path4350" d="m189.84323 74c-70.59344 0-78.18921 7.250835-77.84323 77.98706v146.01294 146.01294c-.34598 70.73623 7.24979 77.98706 77.84323 77.98706h196.31354c70.59344 0 77.84323-7.24999 77.84323-77.98706v-146.01294-96l-128-128z" fill="url(#linearGradient4358)" filter="url(#filter4380)" opacity=".3" transform="matrix(.13228516 0 0 .13228516 -4.409451 -6.038882)"/>
  <path id="rect4158" d="m20.70399 3.4856494c-9.338464 0-10.343273.959178-10.297504 10.3165306v19.315345 19.315344c-.04577 9.357355.95904 10.316531 10.297504 10.316531h25.969365c9.338465 0 10.297506-.959068 10.297506-10.316531v-19.315344-12.699376l-16.9325-16.9324996z" fill="url(#linearGradient4226)"/>
  <path id="path931" d="m20.704059 3.4856494c-9.338466 0-10.343342.95934-10.297573 10.3166916v.529141c-.04577-9.3573526.959107-10.3166916 10.297573-10.3166916h19.334302v-.529141z" fill="#fff" opacity=".6"/>
  <g id="g1095" enable-background="new" fill="#0091e2" transform="matrix(.26457031 0 0 .26457031 -4.673635 .840016)">
    <path id="path20" d="m205.4567 140.22737c-.31728-.26441-3.17284-2.43251-9.30699-2.43251-1.58641 0-3.22572.15864-4.81214.42304-1.16337-8.09073-7.8792-12.0039-8.1436-12.21542l-1.6393-.95186-1.05761 1.53354c-1.32202 2.06235-2.32676 4.3891-2.90844 6.76872-1.11049 4.60062-.42304 8.93683 1.9037 12.63847-2.80267 1.58642-7.3504 1.95658-8.30226 2.00946h-75.09062c-1.956583 0-3.543001 1.58642-3.543001 3.54301-.105761 6.55719 1.004732 13.11439 3.278598 19.30142 2.591159 6.76872 6.451583 11.79238 11.422363 14.85946 5.60535 3.43724 14.75369 5.39382 25.06541 5.39382 4.6535 0 9.30699-.42304 13.90761-1.26914 6.39855-1.16337 12.5327-3.38436 18.19092-6.61007 4.6535-2.69691 8.83107-6.13416 12.37407-10.15308 5.97551-6.71584 9.51852-14.22489 12.10966-20.88785h1.05761c6.50431 0 10.52324-2.59115 12.74423-4.81214 1.48065-1.37489 2.59115-3.06707 3.38436-4.97077l.47592-1.3749z" stroke-width=".528806"/>
    <path id="path22" d="m102.93544 146.00065h10.17985c.4822 0 .91083-.37701.91083-.91557v-9.15572c0-.48472-.37505-.91557-.91083-.91557h-10.17985c-.48221 0-.91083.37699-.91083.91557v9.15572c.0536.53856.42862.91557.91083.91557z" stroke-width=".537175"/>
    <path id="path24" d="m116.91037 146.00065h10.1699c.48173 0 .90994-.37741.90994-.91655v-9.16548c0-.48524-.37467-.91655-.90994-.91655h-10.1699c-.48174 0-.90995.37739-.90995.91655v9.16548c.0536.53914.42821.91655.90995.91655" stroke-width=".537199"/>
    <path id="path26" d="m130.90928 146.00065h10.17986c.4822 0 .91083-.37701.91083-.91557v-9.15572c0-.48472-.37505-.91557-.91083-.91557h-10.17986c-.4822 0-.91083.37699-.91083.91557v9.15572c0 .53856.37505.91557.91083.91557z" stroke-width=".537175"/>
    <path id="path28" d="m144.8962 146.00065h10.19311c.48282 0 .91201-.37701.91201-.91557v-9.15572c0-.48472-.37555-.91557-.91201-.91557h-10.19311c-.48283 0-.91201.37699-.91201.91557v9.15572c0 .53856.42918.91557.91201.91557z" stroke-width=".537524"/>
    <path id="path30" d="m116.91097 133.02956h10.17653c.48203 0 .91053-.43254.91053-.91915v-9.19152c0-.48662-.37492-.91915-.91053-.91915h-10.17653c-.48206 0-.91055.37846-.91055.91915v9.19152c.0535.48661.42849.91915.91055.91915" stroke-width=".538137"/>
    <path id="path32" d="m130.90928 133.01394h10.17986c.4822 0 .91083-.43192.91083-.91786v-9.17849c0-.48593-.37505-.91785-.91083-.91785h-10.17986c-.4822 0-.91083.37791-.91083.91785v9.17849c0 .48594.37505.91786.91083.91786" stroke-width=".537843"/>
    <path id="path34" d="m144.92507 132.99831h10.16661c.48157 0 .90964-.43116.90964-.91622v-9.16223c0-.48506-.42807-.91621-.90964-.91621h-10.16661c-.48157 0-.90963.37725-.90963.91621v9.16223c0 .48506.42806.91622.90963.91622" stroke-width=".537016"/>
    <path id="path36" d="m144.91425 119.99779h10.17653c.48206 0 .91054-.37754.91054-.91688v-9.16874c0-.48541-.42848-.91688-.91054-.91688h-10.17653c-.48205 0-.91053.37755-.91053.91688v9.16874c0 .48541.42848.91688.91053.91688" stroke-width=".537469"/>
    <path id="path38" d="m158.91559 146.00455h10.17324c.48188 0 .91022-.37714.91022-.91589v-9.15897c0-.48489-.3748-.9159-.91022-.9159h-10.17324c-.48188 0-.91023.37712-.91023.9159v9.15897c.0536.53875.42835.91589.91023.91589" stroke-width=".537095"/>
  </g>
  <g fill="#fff">
    <path id="path4231" d="m33.688673 3.4856494v59.2637506h12.984614c9.338464 0 10.054627-.962123 10.297574-10.316435v-19.31544-12.699376l-16.9325-16.9324996z" opacity=".1"/>
    <path id="path4255" d="m10.406486 33.117525v19.31544c-.04577 9.357354.959108 10.316435 10.297573 10.316435h25.969228c9.338464 0 10.054627-.962123 10.297574-10.316435v-19.31544z" opacity=".2"/>
    <path id="path4254" d="m41.096642 62.7494 15.874219-15.874219v5.948567c-.01384 8.994282-1.006077 9.925652-10.099734 9.925652z" opacity=".4"/>
  </g>
  <path id="rect4158-0-3-6" d="m185.33354 74.825228-66-65.9999998.003 24.9985698v1 .53711c0 35.29429 3.62603 39.63197 38.99414 39.45899z" fill="url(#radialGradient1752)" filter="url(#filter2553)" opacity=".2" transform="matrix(.26457031 0 0 .26457031 7.937109 1.150756)"/>
  <path id="rect4158-0-3-2" d="m56.970861 20.94729v-.529141l-16.9325-16.9324996h-.529141v6.6140176.264571.142103c0 9.118097 1.587422 10.440949 10.316692 10.439679z" opacity=".15"/>
  <path id="rect4158-0-3" d="m56.970085 20.416739-16.930949-16.9309506v6.084601.26457.142104c0 9.3378196.95934 10.4854416 10.316692 10.4396756z" fill="#faf8f6"/>
</svg>
