<?xml version="1.0" encoding="UTF-8" standalone="no"?>
<svg
   xmlns:dc="http://purl.org/dc/elements/1.1/"
   xmlns:cc="http://creativecommons.org/ns#"
   xmlns:rdf="http://www.w3.org/1999/02/22-rdf-syntax-ns#"
   xmlns:svg="http://www.w3.org/2000/svg"
   xmlns="http://www.w3.org/2000/svg"
   xmlns:xlink="http://www.w3.org/1999/xlink"
   xmlns:sodipodi="http://sodipodi.sourceforge.net/DTD/sodipodi-0.dtd"
   xmlns:inkscape="http://www.inkscape.org/namespaces/inkscape"
   height="256"
   viewBox="0 0 67.73 67.73"
   width="256"
   version="1.1"
   id="svg56"
   sodipodi:docname="text-x-gettext-translation-template.svg"
   inkscape:version="0.92.5 (2060ec1f9f, 2020-04-08)">
  <metadata
     id="metadata62">
    <rdf:RDF>
      <cc:Work
         rdf:about="">
        <dc:format>image/svg+xml</dc:format>
        <dc:type
           rdf:resource="http://purl.org/dc/dcmitype/StillImage" />
        <dc:title></dc:title>
      </cc:Work>
    </rdf:RDF>
  </metadata>
  <defs
     id="defs60">
    <filter
       style="color-interpolation-filters:sRGB"
       id="b-3"
       x="-0.059999999"
       y="-0.059999999"
       width="1.12"
       height="1.12">
      <feGaussianBlur
         stdDeviation="0.5"
         id="feGaussianBlur8" />
    </filter>
    <filter
       style="color-interpolation-filters:sRGB"
       id="c-6"
       x="-0.035999998"
       y="-0.035999998"
       width="1.072"
       height="1.072">
      <feGaussianBlur
         stdDeviation="0.3"
         id="feGaussianBlur5-7" />
    </filter>
    <radialGradient
       inkscape:collect="always"
       xlink:href="#linearGradient1750"
       id="radialGradient1752"
       cx="179.99261"
       cy="103.2822"
       fx="179.99261"
       fy="103.2822"
       r="35.068905"
       gradientTransform="matrix(1.3687341,-2.0954866e-7,2.0316901e-7,1.3528551,-121.02851,-70.900578)"
       gradientUnits="userSpaceOnUse" />
    <linearGradient
       inkscape:collect="always"
       id="linearGradient1750">
      <stop
         style="stop-color:#000000;stop-opacity:1;"
         offset="0"
         id="stop1746" />
      <stop
         style="stop-color:#000000;stop-opacity:0;"
         offset="1"
         id="stop1748" />
    </linearGradient>
    <filter
       inkscape:collect="always"
       style="color-interpolation-filters:sRGB"
       id="filter2553"
       x="-0.071999997"
       width="1.1440001"
       y="-0.071999997"
       height="1.1440001">
      <feGaussianBlur
         inkscape:collect="always"
         stdDeviation="1.98"
         id="feGaussianBlur2555" />
    </filter>
    <filter
       style="color-interpolation-filters:sRGB"
       id="b-36"
       x="-0.059999999"
       y="-0.059999999"
       width="1.12"
       height="1.12">
      <feGaussianBlur
         stdDeviation="0.5"
         id="feGaussianBlur8-7" />
    </filter>
    <filter
       style="color-interpolation-filters:sRGB"
       id="c-5"
       x="-0.035999998"
       y="-0.035999998"
       width="1.072"
       height="1.072">
      <feGaussianBlur
         stdDeviation="0.3"
         id="feGaussianBlur5-3" />
    </filter>
    <linearGradient
       gradientUnits="userSpaceOnUse"
       y2="119.09284"
       x2="-35.310345"
       y1="401.58368"
       x1="529.65515"
       id="linearGradient4226"
       xlink:href="#linearGradient4338"
       inkscape:collect="always"
       gradientTransform="matrix(0,-0.11988342,0.11987999,0,0.3627617,62.7494)" />
    <linearGradient
       inkscape:collect="always"
       id="linearGradient4338">
      <stop
         style="stop-color:#f2f2f2;stop-opacity:1"
         offset="0"
         id="stop4340" />
      <stop
         style="stop-color:#f9f9f9;stop-opacity:1"
         offset="1"
         id="stop4342" />
    </linearGradient>
    <linearGradient
       inkscape:collect="always"
       xlink:href="#linearGradient4360"
       id="linearGradient4358"
       x1="88"
       y1="88"
       x2="488"
       y2="488"
       gradientUnits="userSpaceOnUse" />
    <linearGradient
       id="linearGradient4360"
       inkscape:collect="always">
      <stop
         id="stop4362"
         offset="0"
         style="stop-color:#000000;stop-opacity:0.58823532" />
      <stop
         style="stop-color:#000000;stop-opacity:0"
         offset="0.88"
         id="stop4364" />
      <stop
         id="stop4366"
         offset="1"
         style="stop-color:#000000;stop-opacity:1" />
    </linearGradient>
    <filter
       inkscape:collect="always"
       style="color-interpolation-filters:sRGB"
       id="filter4380"
       x="-0.052999184"
       width="1.1059984"
       y="-0.043862626"
       height="1.0877253">
      <feGaussianBlur
         inkscape:collect="always"
         stdDeviation="8.4801079"
         id="feGaussianBlur4382" />
    </filter>
    <filter
       inkscape:collect="always"
       style="color-interpolation-filters:sRGB"
       id="filter4346"
       x="-0.013249796"
       width="1.0264996"
       y="-0.010965657"
       height="1.0219313">
      <feGaussianBlur
         inkscape:collect="always"
         stdDeviation="2.120027"
         id="feGaussianBlur4348" />
    </filter>
  </defs>
  <sodipodi:namedview
     pagecolor="#ffffff"
     bordercolor="#666666"
     borderopacity="1"
     objecttolerance="10"
     gridtolerance="10"
     guidetolerance="10"
     inkscape:pageopacity="0"
     inkscape:pageshadow="2"
     inkscape:window-width="1303"
     inkscape:window-height="769"
     id="namedview58"
     showgrid="false"
     inkscape:zoom="0.921875"
     inkscape:cx="-88.949153"
     inkscape:cy="128"
     inkscape:window-x="0"
     inkscape:window-y="28"
     inkscape:window-maximized="0"
     inkscape:current-layer="svg56" />
  <filter
     id="a"
     color-interpolation-filters="sRGB"
     height="1.12"
     width="1.12"
     x="-.06"
     y="-.06">
    <feGaussianBlur
       stdDeviation=".5"
       id="feGaussianBlur2" />
  </filter>
  <filter
     id="b"
     color-interpolation-filters="sRGB"
     height="1.072"
     width="1.072"
     x="-.036"
     y="-.036">
    <feGaussianBlur
       stdDeviation=".3"
       id="feGaussianBlur5" />
  </filter>
  <linearGradient
     id="c"
     gradientTransform="matrix(0 -.11988342 .11987999 0 .362762 63.54311)"
     gradientUnits="userSpaceOnUse"
     x1="529.65515"
     x2="-35.310345"
     y1="401.58368"
     y2="119.09284">
    <stop
       offset="0"
       stop-color="#f2f2f2"
       id="stop8" />
    <stop
       offset="1"
       stop-color="#f9f9f9"
       id="stop10" />
  </linearGradient>
  <linearGradient
     id="d"
     gradientUnits="userSpaceOnUse"
     x1="88"
     x2="488"
     y1="88"
     y2="488">
    <stop
       offset="0"
       stop-opacity=".588235"
       id="stop13" />
    <stop
       offset=".88"
       stop-opacity="0"
       id="stop15" />
    <stop
       offset="1"
       id="stop17" />
  </linearGradient>
  <filter
     id="e"
     color-interpolation-filters="sRGB"
     height="1.087725"
     width="1.105998"
     x="-.052999"
     y="-.043863">
    <feGaussianBlur
       stdDeviation="8.4801079"
       id="feGaussianBlur20" />
  </filter>
  <filter
     id="f"
     color-interpolation-filters="sRGB"
     height="1.021931"
     width="1.0265"
     x="-.01325"
     y="-.010966">
    <feGaussianBlur
       stdDeviation="2.120027"
       id="feGaussianBlur23" />
  </filter>
  <path
     sodipodi:nodetypes="scccssscccs"
     inkscape:connector-curvature="0"
     id="path1163"
     d="m 20.703991,3.4856495 c -9.338465,0 -10.343273,0.959178 -10.297505,10.3165315 V 33.117526 52.43287 c -0.04577,9.357355 0.95904,10.316531 10.297505,10.316531 h 25.969365 c 9.338465,0 10.297506,-0.959068 10.297506,-10.316531 V 33.117526 20.41815 L 40.038362,3.4856495 Z"
     style="color:#000000;display:inline;overflow:visible;visibility:visible;opacity:0.2;fill:none;fill-opacity:1;fill-rule:nonzero;stroke:#000000;stroke-width:1.0582813;stroke-miterlimit:4;stroke-dasharray:none;stroke-opacity:1;marker:none;enable-background:accumulate" />
  <path
     style="color:#000000;display:inline;overflow:visible;visibility:visible;opacity:0.1;fill:#000000;fill-opacity:1;fill-rule:nonzero;stroke:none;stroke-width:2;marker:none;filter:url(#filter4346);enable-background:accumulate"
     d="M 189.84323,74 C 119.24979,74 111.65402,81.250835 112,151.98706 V 298 444.01294 C 111.65402,514.74917 119.24979,522 189.84323,522 H 386.15677 C 456.75021,522 462.16345,514.72616 464,444.01294 V 298 200 L 336,74 Z"
     id="rect4158-9"
     inkscape:connector-curvature="0"
     sodipodi:nodetypes="scccssscccs"
     transform="matrix(0.13228516,0,0,0.13228516,-4.4094514,-6.0388816)" />
  <path
     sodipodi:nodetypes="scccssscccs"
     inkscape:connector-curvature="0"
     id="path4350"
     d="M 189.84323,74 C 119.24979,74 111.65402,81.250835 112,151.98706 V 298 444.01294 C 111.65402,514.74917 119.24979,522 189.84323,522 H 386.15677 C 456.75021,522 464,514.75001 464,444.01294 V 298 202 L 336,74 Z"
     style="color:#000000;display:inline;overflow:visible;visibility:visible;opacity:0.3;fill:url(#linearGradient4358);fill-opacity:1;fill-rule:nonzero;stroke:none;stroke-width:2;marker:none;filter:url(#filter4380);enable-background:accumulate"
     transform="matrix(0.13228516,0,0,0.13228516,-4.4094514,-6.0388816)" />
  <path
     style="color:#000000;display:inline;overflow:visible;visibility:visible;fill:url(#linearGradient4226);fill-opacity:1;fill-rule:nonzero;stroke:none;stroke-width:0.26457033;marker:none;enable-background:accumulate"
     d="m 20.703991,3.4856495 c -9.338465,0 -10.343273,0.959178 -10.297505,10.3165315 V 33.117526 52.43287 c -0.04577,9.357355 0.95904,10.316531 10.297505,10.316531 h 25.969365 c 9.338465,0 10.297506,-0.959068 10.297506,-10.316531 V 33.117526 20.41815 L 40.038362,3.4856495 Z"
     id="rect4158"
     inkscape:connector-curvature="0"
     sodipodi:nodetypes="scccssscccs" />
  <path
     style="color:#000000;display:inline;overflow:visible;visibility:visible;opacity:0.6;fill:#ffffff;fill-opacity:1;fill-rule:nonzero;stroke:none;stroke-width:0.26457033;marker:none;enable-background:accumulate"
     d="m 20.70406,3.4856495 c -9.338466,0 -10.343342,0.95934 -10.297574,10.3166925 v 0.529141 C 10.360718,4.9741295 11.365594,4.0147905 20.70406,4.0147905 h 19.334302 v -0.529141 z"
     id="path931"
     inkscape:connector-curvature="0"
     sodipodi:nodetypes="sccsccs" />
  <path
     id="path970"
     d="m 10.503829,56.399713 c 0.02727,0.372589 0.05979,0.727611 0.101798,1.058282 h 46.148919 c 0.04267,-0.330679 0.07656,-0.685682 0.104897,-1.058282 z"
     style="color:#000000;display:inline;overflow:visible;visibility:visible;opacity:0.2;fill:#44a5f3;fill-opacity:1;fill-rule:nonzero;stroke:none;stroke-width:0.26457033;marker:none;enable-background:accumulate"
     inkscape:connector-curvature="0" />
  <path
     id="path991"
     d="m 10.605627,8.7770555 c -0.042,0.330671 -0.07452,0.685693 -0.101798,1.058282 h 32.597958 c -0.02834,-0.3726 -0.06222,-0.727603 -0.104897,-1.058282 z"
     style="color:#000000;display:inline;overflow:visible;visibility:visible;opacity:0.2;fill:#44a5f3;fill-opacity:1;fill-rule:nonzero;stroke:none;stroke-width:0.26457033;marker:none;enable-background:accumulate"
     inkscape:connector-curvature="0"
     sodipodi:nodetypes="ccccc" />
  <path
     id="rect4158-6"
     d="m 15.696539,3.7011285 c -0.377953,0.04853 -0.729764,0.107165 -1.056732,0.17776 V 62.356162 c 0.327395,0.07069 0.679766,0.129195 1.058282,0.17776 V 3.7011285 c -5.03e-4,6.4e-5 -0.0011,-6.3e-5 -0.0016,0 z"
     style="color:#000000;display:inline;overflow:visible;visibility:visible;opacity:0.2;fill:#44a5f3;fill-opacity:1;fill-rule:nonzero;stroke:none;stroke-width:0.26457033;marker:none;enable-background:accumulate"
     inkscape:connector-curvature="0" />
  <rect
     y="3.4856498"
     x="19.931013"
     height="59.263748"
     width="1.0582813"
     id="rect951"
     style="display:inline;opacity:0.2;fill:#44a5f3;fill-opacity:1;fill-rule:evenodd;stroke:none;stroke-width:0.52914065;stroke-linecap:round;stroke-linejoin:round;stroke-miterlimit:4;stroke-dasharray:none;stroke-opacity:1;enable-background:new" />
  <rect
     style="display:inline;opacity:0.2;fill:#44a5f3;fill-opacity:1;fill-rule:evenodd;stroke:none;stroke-width:0.52914065;stroke-linecap:round;stroke-linejoin:round;stroke-miterlimit:4;stroke-dasharray:none;stroke-opacity:1;enable-background:new"
     id="rect969"
     width="1.0582813"
     height="59.263748"
     x="25.222414"
     y="3.4856498" />
  <rect
     style="display:inline;opacity:0.2;fill:#44a5f3;fill-opacity:1;fill-rule:evenodd;stroke:none;stroke-width:0.52914065;stroke-linecap:round;stroke-linejoin:round;stroke-miterlimit:4;stroke-dasharray:none;stroke-opacity:1;enable-background:new"
     id="rect971"
     width="1.0582813"
     height="59.263748"
     x="30.513826"
     y="3.4856498" />
  <rect
     y="3.4856498"
     x="35.805233"
     height="59.263748"
     width="1.0582813"
     id="rect973"
     style="display:inline;opacity:0.2;fill:#44a5f3;fill-opacity:1;fill-rule:evenodd;stroke:none;stroke-width:0.52914065;stroke-linecap:round;stroke-linejoin:round;stroke-miterlimit:4;stroke-dasharray:none;stroke-opacity:1;enable-background:new" />
  <path
     style="display:inline;opacity:0.2;fill:#44a5f3;fill-opacity:1;fill-rule:evenodd;stroke:none;stroke-width:0.52914065;stroke-linecap:round;stroke-linejoin:round;stroke-miterlimit:4;stroke-dasharray:none;stroke-opacity:1;enable-background:new"
     d="m 41.096643,16.714166 h 1.058281 v 46.035235 h -1.058281 z"
     id="rect975"
     inkscape:connector-curvature="0"
     sodipodi:nodetypes="ccccc" />
  <path
     style="display:inline;opacity:0.2;fill:#44a5f3;fill-opacity:1;fill-rule:evenodd;stroke:none;stroke-width:0.52914065;stroke-linecap:round;stroke-linejoin:round;stroke-miterlimit:4;stroke-dasharray:none;stroke-opacity:1;enable-background:new"
     d="M 46.388049,16.714166 H 47.44633 V 62.749401 H 46.388049 Z"
     id="rect977"
     inkscape:connector-curvature="0"
     sodipodi:nodetypes="ccccc" />
  <path
     sodipodi:nodetypes="ccccccccccccc"
     inkscape:connector-curvature="0"
     id="rect937"
     d="m 14.63961,6.6604935 v 2.116562 h -2.116563 v 1.058282 H 14.63961 V 22.534713 h 1.058281 V 9.8353375 h 7.40797 v -1.058282 h -7.40797 v -2.116562 z"
     style="display:inline;opacity:0.75;fill:#44a5f3;fill-opacity:1;fill-rule:evenodd;stroke:none;stroke-width:0.52914065;stroke-linecap:round;stroke-linejoin:round;stroke-miterlimit:4;stroke-dasharray:none;stroke-opacity:1;enable-background:new" />
  <rect
     y="51.108307"
     x="10.406486"
     height="1.0582813"
     width="46.564377"
     id="rect981"
     style="display:inline;opacity:0.2;fill:#44a5f3;fill-opacity:1;fill-rule:evenodd;stroke:none;stroke-width:0.52914065;stroke-linecap:round;stroke-linejoin:round;stroke-miterlimit:4;stroke-dasharray:none;stroke-opacity:1;enable-background:new" />
  <rect
     style="display:inline;opacity:0.2;fill:#44a5f3;fill-opacity:1;fill-rule:evenodd;stroke:none;stroke-width:0.52914065;stroke-linecap:round;stroke-linejoin:round;stroke-miterlimit:4;stroke-dasharray:none;stroke-opacity:1;enable-background:new"
     id="rect983"
     width="46.564377"
     height="1.0582813"
     x="10.406486"
     y="45.816898" />
  <rect
     y="40.525494"
     x="10.406486"
     height="1.0582813"
     width="46.564377"
     id="rect985"
     style="display:inline;opacity:0.2;fill:#44a5f3;fill-opacity:1;fill-rule:evenodd;stroke:none;stroke-width:0.52914065;stroke-linecap:round;stroke-linejoin:round;stroke-miterlimit:4;stroke-dasharray:none;stroke-opacity:1;enable-background:new" />
  <rect
     style="display:inline;opacity:0.2;fill:#44a5f3;fill-opacity:1;fill-rule:evenodd;stroke:none;stroke-width:0.52914065;stroke-linecap:round;stroke-linejoin:round;stroke-miterlimit:4;stroke-dasharray:none;stroke-opacity:1;enable-background:new"
     id="rect987"
     width="46.564377"
     height="1.0582813"
     x="10.406486"
     y="35.234089" />
  <rect
     style="display:inline;opacity:0.2;fill:#44a5f3;fill-opacity:1;fill-rule:evenodd;stroke:none;stroke-width:0.52914065;stroke-linecap:round;stroke-linejoin:round;stroke-miterlimit:4;stroke-dasharray:none;stroke-opacity:1;enable-background:new"
     id="rect991"
     width="46.564377"
     height="1.0582813"
     x="10.406486"
     y="24.651272" />
  <rect
     y="19.359869"
     x="10.406486"
     height="1.0582813"
     width="46.564377"
     id="rect993"
     style="display:inline;opacity:0.2;fill:#44a5f3;fill-opacity:1;fill-rule:evenodd;stroke:none;stroke-width:0.52914065;stroke-linecap:round;stroke-linejoin:round;stroke-miterlimit:4;stroke-dasharray:none;stroke-opacity:1;enable-background:new" />
  <path
     style="display:inline;opacity:0.2;fill:#44a5f3;fill-opacity:1;fill-rule:evenodd;stroke:none;stroke-width:0.52914065;stroke-linecap:round;stroke-linejoin:round;stroke-miterlimit:4;stroke-dasharray:none;stroke-opacity:1;enable-background:new"
     d="m 10.406486,14.068463 h 32.806719 v 1.058281 H 10.406486 Z"
     id="rect995"
     inkscape:connector-curvature="0"
     sodipodi:nodetypes="ccccc" />
  <rect
     y="29.94268"
     x="10.406486"
     height="1.0582813"
     width="46.564377"
     id="rect989"
     style="display:inline;opacity:0.2;fill:#44a5f3;fill-opacity:1;fill-rule:evenodd;stroke:none;stroke-width:0.52914065;stroke-linecap:round;stroke-linejoin:round;stroke-miterlimit:4;stroke-dasharray:none;stroke-opacity:1;enable-background:new" />
  <path
     id="path1000"
     d="m 51.679654,16.930164 v 45.603239 c 0.378817,-0.04881 0.731018,-0.108196 1.058281,-0.179307 V 17.109471 c -0.327263,-0.07111 -0.679464,-0.130499 -1.058281,-0.179307 z"
     style="color:#000000;display:inline;overflow:visible;visibility:visible;opacity:0.2;fill:#44a5f3;fill-opacity:1;fill-rule:nonzero;stroke:none;stroke-width:0.26457033;marker:none;enable-background:accumulate"
     inkscape:connector-curvature="0"
     sodipodi:nodetypes="ccccc" />
  <path
     sodipodi:nodetypes="ccccccccccccc"
     style="display:inline;opacity:0.75;fill:#44a5f3;fill-opacity:1;fill-rule:evenodd;stroke:none;stroke-width:0.52914065;stroke-linecap:round;stroke-linejoin:round;stroke-miterlimit:4;stroke-dasharray:none;stroke-opacity:1;enable-background:new"
     d="m 52.737737,59.574557 v -2.116562 h 2.116562 V 56.399713 H 52.737737 V 43.700338 h -1.058282 v 12.699375 h -7.407968 v 1.058282 h 7.407968 v 2.116562 z"
     id="path942"
     inkscape:connector-curvature="0" />
  <path
     id="path25"
     d="m 18,26 h 16 c 1.108,0 2,0.892 2,2 v 16 c 0,1.108 -0.892,2 -2,2 H 18 c -1.108,0 -2,-0.892 -2,-2 V 28 c 0,-1.108 0.892,-2 2,-2 z"
     inkscape:connector-curvature="0"
     style="display:inline;opacity:0.22000002;stroke:#000000;stroke-linejoin:round;stroke-opacity:0.294;filter:url(#c-5);enable-background:new"
     transform="matrix(0.90007802,0,0,0.90007802,4.4657903,13.523068)" />
  <path
     id="path27"
     d="m 20.667195,36.925097 h 14.401248 c 0.997287,0 1.800157,0.802871 1.800157,1.800155 v 14.40125 c 0,0.997285 -0.80287,1.800155 -1.800157,1.800155 H 20.667195 c -0.997286,0 -1.800156,-0.80287 -1.800156,-1.800155 v -14.40125 c 0,-0.997284 0.80287,-1.800155 1.800156,-1.800155 z"
     inkscape:connector-curvature="0"
     style="display:inline;fill:#dedede;fill-opacity:1;stroke-width:0.90007806;enable-background:new" />
  <path
     id="path31"
     d="m 30,14 c -1.108,0 -2,0.892 -2,2 v 16 c 0,1.108 0.892,2 2,2 h 16 c 1.108,0 2,-0.892 2,-2 V 16 c 0,-1.108 -0.892,-2 -2,-2 z"
     inkscape:connector-curvature="0"
     style="color:#000000;display:inline;opacity:0.15;fill:#074271;stroke:#0b5fa1;stroke-linejoin:round;filter:url(#b-36);enable-background:new"
     transform="matrix(0.90007802,0,0,0.90007802,4.4657903,13.523068)" />
  <path
     d="M 31.738155,52.149092 C 31.53519,51.600159 31.344163,51.063428 31.165078,50.538896 30.98599,50.002168 30.800934,49.503312 30.609909,48.954385 H 24.98658 l -1.128247,3.194707 h -1.808777 c 0.477563,-1.341829 0.925282,-2.57997 1.34315,-3.714424 0.41787,-1.146656 0.823803,-2.232315 1.21779,-3.256985 0.40593,-1.024667 0.805892,-2.000543 1.199885,-2.927621 0.393993,-0.93928 0.805889,-1.866364 1.235697,-2.781248 h 1.593874 c 0.429808,0.914884 0.841707,1.841968 1.2357,2.781248 0.39399,0.927078 0.787983,1.902954 1.181973,2.927621 0.40593,1.02467 0.817829,2.110329 1.235699,3.256985 0.417871,1.134454 0.865585,2.372595 1.343152,3.714424 z m -1.629689,-4.649434 c -0.382056,-1.061266 -0.764106,-2.138998 -1.146159,-3.12707 -0.37011,-1.000272 -0.758131,-1.95785 -1.164061,-2.872731 -0.417871,0.914881 -0.817832,1.872459 -1.199885,2.872731 -0.370113,0.988072 -0.740225,2.065804 -1.110338,3.12707 z"
     style="font-style:normal;font-variant:normal;font-weight:normal;font-stretch:normal;font-size:medium;line-height:125%;font-family:Ubuntu;-inkscape-font-specification:Ubuntu;text-align:center;letter-spacing:0px;word-spacing:0px;text-anchor:middle;display:inline;fill:#77767b;fill-opacity:1;stroke:none;stroke-width:0.01931896px;stroke-linecap:butt;stroke-linejoin:miter;stroke-opacity:1;enable-background:new"
     id="path36316"
     inkscape:connector-curvature="0"
     sodipodi:nodetypes="cccccccccccccccccccccc" />
  <path
     id="path33"
     d="m 31.293098,25.73063 c -0.996372,0 -1.798504,0.800656 -1.798504,1.795194 v 14.361565 c 0,0.994538 0.802132,1.795194 1.798504,1.795194 h 14.388019 c 0.996369,0 1.798502,-0.800656 1.798502,-1.795194 V 27.525824 c 0,-0.994538 -0.802133,-1.795194 -1.798502,-1.795194 z"
     inkscape:connector-curvature="0"
     style="color:#000000;display:inline;fill:#44a5f3;stroke-width:0.89842403;enable-background:new" />
  <path
     sodipodi:nodetypes="cccccccccccccccccccccc"
     inkscape:connector-curvature="0"
     id="rect36292"
     d="m 37.873153,28.585227 v 1.96588 h -5.242345 v 1.310586 h 2.168419 c 0.779945,2.01329 1.737877,3.720652 2.866428,5.114035 -1.313022,1.359963 -2.832783,2.274003 -4.562095,2.775398 l 0.365084,1.258752 c 1.92173,-0.557185 3.611501,-1.584588 5.059802,-3.063687 1.448302,1.479099 3.138073,2.506502 5.059804,3.063687 l 0.365083,-1.258752 c -1.729314,-0.501395 -3.249072,-1.415435 -4.562095,-2.775398 1.128552,-1.393383 2.086484,-3.100748 2.866427,-5.114035 h 2.168418 v -1.310586 h -5.242344 v -1.96588 z m -1.663669,3.276466 h 4.637926 c -0.665334,1.61985 -1.438218,2.988036 -2.318964,4.11878 -0.880747,-1.130744 -1.653628,-2.49893 -2.318962,-4.11878 z"
     style="display:inline;opacity:1;fill:#ffffff;fill-opacity:1;stroke:none;stroke-width:0.65529293;stroke-linecap:round;stroke-linejoin:miter;stroke-miterlimit:4;stroke-dasharray:none;stroke-dashoffset:0;stroke-opacity:1;marker:none;enable-background:new" />
  <path
     style="color:#000000;display:inline;overflow:visible;visibility:visible;opacity:0.1;fill:#ffffff;fill-opacity:1;fill-rule:nonzero;stroke:none;stroke-width:0.26457033;marker:none;enable-background:accumulate"
     d="M 33.688674,3.4856495 V 62.749401 h 12.984614 c 9.338464,0 10.054627,-0.962123 10.297574,-10.316435 V 33.117526 20.41815 L 40.038362,3.4856495 Z"
     id="path4231"
     inkscape:connector-curvature="0"
     sodipodi:nodetypes="ccsscccc" />
  <path
     inkscape:connector-curvature="0"
     style="color:#000000;display:inline;overflow:visible;visibility:visible;opacity:0.2;fill:#ffffff;fill-opacity:1;fill-rule:nonzero;stroke:none;stroke-width:0.26457033;marker:none;enable-background:accumulate"
     d="m 10.406486,33.117526 v 19.31544 c -0.04577,9.357354 0.959109,10.316435 10.297574,10.316435 h 25.969228 c 9.338464,0 10.054627,-0.962123 10.297574,-10.316435 v -19.31544 z"
     id="path4255"
     sodipodi:nodetypes="ccssscc" />
  <path
     style="color:#000000;display:inline;overflow:visible;visibility:visible;opacity:0.4;fill:#ffffff;fill-opacity:1;fill-rule:nonzero;stroke:none;stroke-width:2.11656237;stroke-linecap:butt;stroke-linejoin:miter;stroke-miterlimit:4;stroke-dasharray:none;stroke-dashoffset:0;stroke-opacity:1;marker:none;enable-background:accumulate"
     d="M 41.096643,62.749401 56.970862,46.875182 v 5.948567 c -0.01384,8.994282 -1.006077,9.925652 -10.099734,9.925652 z"
     id="path4254"
     inkscape:connector-curvature="0"
     sodipodi:nodetypes="cccsc" />
  <path
     inkscape:connector-curvature="0"
     style="color:#000000;display:inline;overflow:visible;visibility:visible;opacity:0.2;fill:url(#radialGradient1752);fill-opacity:1;fill-rule:nonzero;stroke:none;stroke-width:1;marker:none;filter:url(#filter2553);enable-background:accumulate"
     d="m 185.33354,74.825228 -66,-65.9999998 0.003,24.9985698 v 1 0.53711 c 0,35.29429 3.62603,39.63197 38.99414,39.45899 z"
     id="rect4158-0-3-6"
     sodipodi:nodetypes="ccccscc"
     transform="matrix(0.26457031,0,0,0.26457031,7.9371086,1.1507565)" />
  <path
     inkscape:connector-curvature="0"
     style="color:#000000;display:inline;overflow:visible;visibility:visible;opacity:0.15;fill:#000000;fill-opacity:1;fill-rule:nonzero;stroke:none;stroke-width:0.26457033;marker:none;enable-background:accumulate"
     d="M 56.970862,20.947291 V 20.41815 L 40.038362,3.4856495 h -0.529141 v 6.6140185 0.264571 0.142103 c 0,9.118097 1.587422,10.440949 10.316692,10.439679 z"
     id="rect4158-0-3-2"
     sodipodi:nodetypes="ccccccscc" />
  <path
     inkscape:connector-curvature="0"
     style="color:#000000;display:inline;overflow:visible;visibility:visible;fill:#faf8f6;fill-opacity:1;fill-rule:nonzero;stroke:none;stroke-width:0.26457033;marker:none;enable-background:accumulate"
     d="M 56.970086,20.41674 40.039137,3.4857885 v 6.084601 0.26457 0.142104 c 0,9.3378205 0.95934,10.4854425 10.316692,10.4396765 z"
     id="rect4158-0-3" />
</svg>
