<?xml version="1.0" encoding="UTF-8" standalone="no"?>
<svg
   xmlns:dc="http://purl.org/dc/elements/1.1/"
   xmlns:cc="http://creativecommons.org/ns#"
   xmlns:rdf="http://www.w3.org/1999/02/22-rdf-syntax-ns#"
   xmlns:svg="http://www.w3.org/2000/svg"
   xmlns="http://www.w3.org/2000/svg"
   xmlns:xlink="http://www.w3.org/1999/xlink"
   xmlns:sodipodi="http://sodipodi.sourceforge.net/DTD/sodipodi-0.dtd"
   xmlns:inkscape="http://www.inkscape.org/namespaces/inkscape"
   height="256"
   viewBox="0 0 67.73 67.73"
   width="256"
   version="1.1"
   id="svg56"
   sodipodi:docname="text-x-gettext-translation.svg"
   inkscape:version="0.92.5 (2060ec1f9f, 2020-04-08)">
  <metadata
     id="metadata62">
    <rdf:RDF>
      <cc:Work
         rdf:about="">
        <dc:format>image/svg+xml</dc:format>
        <dc:type
           rdf:resource="http://purl.org/dc/dcmitype/StillImage" />
      </cc:Work>
    </rdf:RDF>
  </metadata>
  <defs
     id="defs60">
    <radialGradient
       inkscape:collect="always"
       xlink:href="#linearGradient1750"
       id="radialGradient1752"
       cx="179.99261"
       cy="103.2822"
       fx="179.99261"
       fy="103.2822"
       r="35.068905"
       gradientTransform="matrix(1.3687341,-2.0954866e-7,2.0316901e-7,1.3528551,-121.02851,-70.900578)"
       gradientUnits="userSpaceOnUse" />
    <linearGradient
       inkscape:collect="always"
       id="linearGradient1750">
      <stop
         style="stop-color:#000000;stop-opacity:1;"
         offset="0"
         id="stop1746" />
      <stop
         style="stop-color:#000000;stop-opacity:0;"
         offset="1"
         id="stop1748" />
    </linearGradient>
    <filter
       inkscape:collect="always"
       style="color-interpolation-filters:sRGB"
       id="filter2553"
       x="-0.071999997"
       width="1.1440001"
       y="-0.071999997"
       height="1.1440001">
      <feGaussianBlur
         inkscape:collect="always"
         stdDeviation="1.98"
         id="feGaussianBlur2555" />
    </filter>
    <filter
       style="color-interpolation-filters:sRGB"
       id="b-3"
       x="-0.059999999"
       y="-0.059999999"
       width="1.12"
       height="1.12">
      <feGaussianBlur
         stdDeviation="0.5"
         id="feGaussianBlur8" />
    </filter>
    <filter
       style="color-interpolation-filters:sRGB"
       id="c-6"
       x="-0.035999998"
       y="-0.035999998"
       width="1.072"
       height="1.072">
      <feGaussianBlur
         stdDeviation="0.3"
         id="feGaussianBlur5-7" />
    </filter>
    <linearGradient
       gradientUnits="userSpaceOnUse"
       y2="119.09284"
       x2="-35.310345"
       y1="401.58368"
       x1="529.65515"
       id="linearGradient4226"
       xlink:href="#linearGradient4338"
       inkscape:collect="always"
       gradientTransform="matrix(0,-0.11988342,0.11987999,0,0.36276166,62.749399)" />
    <linearGradient
       inkscape:collect="always"
       id="linearGradient4338">
      <stop
         style="stop-color:#f2f2f2;stop-opacity:1"
         offset="0"
         id="stop4340" />
      <stop
         style="stop-color:#f9f9f9;stop-opacity:1"
         offset="1"
         id="stop4342" />
    </linearGradient>
    <linearGradient
       inkscape:collect="always"
       xlink:href="#linearGradient4360"
       id="linearGradient4358"
       x1="88"
       y1="88"
       x2="488"
       y2="488"
       gradientUnits="userSpaceOnUse" />
    <linearGradient
       id="linearGradient4360"
       inkscape:collect="always">
      <stop
         id="stop4362"
         offset="0"
         style="stop-color:#000000;stop-opacity:0.58823532" />
      <stop
         style="stop-color:#000000;stop-opacity:0"
         offset="0.88"
         id="stop4364" />
      <stop
         id="stop4366"
         offset="1"
         style="stop-color:#000000;stop-opacity:1" />
    </linearGradient>
    <filter
       inkscape:collect="always"
       style="color-interpolation-filters:sRGB"
       id="filter4380"
       x="-0.052999184"
       width="1.1059984"
       y="-0.043862626"
       height="1.0877253">
      <feGaussianBlur
         inkscape:collect="always"
         stdDeviation="8.4801079"
         id="feGaussianBlur4382" />
    </filter>
    <filter
       inkscape:collect="always"
       style="color-interpolation-filters:sRGB"
       id="filter4346"
       x="-0.013249796"
       width="1.0264996"
       y="-0.010965657"
       height="1.0219313">
      <feGaussianBlur
         inkscape:collect="always"
         stdDeviation="2.120027"
         id="feGaussianBlur4348" />
    </filter>
  </defs>
  <sodipodi:namedview
     pagecolor="#ffffff"
     bordercolor="#666666"
     borderopacity="1"
     objecttolerance="10"
     gridtolerance="10"
     guidetolerance="10"
     inkscape:pageopacity="0"
     inkscape:pageshadow="2"
     inkscape:window-width="834"
     inkscape:window-height="480"
     id="namedview58"
     showgrid="false"
     inkscape:zoom="0.921875"
     inkscape:cx="128"
     inkscape:cy="128"
     inkscape:window-x="0"
     inkscape:window-y="28"
     inkscape:window-maximized="0"
     inkscape:current-layer="svg56" />
  <filter
     id="a"
     color-interpolation-filters="sRGB"
     height="1.12"
     width="1.12"
     x="-.06"
     y="-.06">
    <feGaussianBlur
       stdDeviation=".5"
       id="feGaussianBlur2" />
  </filter>
  <filter
     id="b"
     color-interpolation-filters="sRGB"
     height="1.072"
     width="1.072"
     x="-.036"
     y="-.036">
    <feGaussianBlur
       stdDeviation=".3"
       id="feGaussianBlur5" />
  </filter>
  <linearGradient
     id="c"
     gradientTransform="matrix(0 -.11988342 .11987999 0 .362762 63.54311)"
     gradientUnits="userSpaceOnUse"
     x1="529.65515"
     x2="-35.310345"
     y1="401.58368"
     y2="119.09284">
    <stop
       offset="0"
       stop-color="#f2f2f2"
       id="stop8" />
    <stop
       offset="1"
       stop-color="#f9f9f9"
       id="stop10" />
  </linearGradient>
  <linearGradient
     id="d"
     gradientUnits="userSpaceOnUse"
     x1="88"
     x2="488"
     y1="88"
     y2="488">
    <stop
       offset="0"
       stop-opacity=".588235"
       id="stop13" />
    <stop
       offset=".88"
       stop-opacity="0"
       id="stop15" />
    <stop
       offset="1"
       id="stop17" />
  </linearGradient>
  <filter
     id="e"
     color-interpolation-filters="sRGB"
     height="1.087725"
     width="1.105998"
     x="-.052999"
     y="-.043863">
    <feGaussianBlur
       stdDeviation="8.4801079"
       id="feGaussianBlur20" />
  </filter>
  <filter
     id="f"
     color-interpolation-filters="sRGB"
     height="1.021931"
     width="1.0265"
     x="-.01325"
     y="-.010966">
    <feGaussianBlur
       stdDeviation="2.120027"
       id="feGaussianBlur23" />
  </filter>
  <path
     style="color:#000000;display:inline;overflow:visible;visibility:visible;opacity:0.2;fill:none;fill-opacity:1;fill-rule:nonzero;stroke:#000000;stroke-width:1.0582813;stroke-miterlimit:4;stroke-dasharray:none;stroke-opacity:1;marker:none;enable-background:accumulate"
     d="m 20.703991,3.4856498 c -9.338465,0 -10.343273,0.959178 -10.297505,10.3165302 v 19.315345 19.315344 c -0.04577,9.357355 0.95904,10.316531 10.297505,10.316531 h 25.969365 c 9.338465,0 10.297506,-0.959068 10.297506,-10.316531 V 33.117525 20.418149 L 40.038362,3.4856498 Z"
     id="path1163"
     inkscape:connector-curvature="0"
     sodipodi:nodetypes="scccssscccs" />
  <path
     transform="matrix(0.13228516,0,0,0.13228516,-4.4094514,-6.0388816)"
     sodipodi:nodetypes="scccssscccs"
     inkscape:connector-curvature="0"
     id="rect4158-9"
     d="M 189.84323,74 C 119.24979,74 111.65402,81.250835 112,151.98706 V 298 444.01294 C 111.65402,514.74917 119.24979,522 189.84323,522 H 386.15677 C 456.75021,522 462.16345,514.72616 464,444.01294 V 298 200 L 336,74 Z"
     style="color:#000000;display:inline;overflow:visible;visibility:visible;opacity:0.1;fill:#000000;fill-opacity:1;fill-rule:nonzero;stroke:none;stroke-width:2;marker:none;filter:url(#filter4346);enable-background:accumulate" />
  <path
     transform="matrix(0.13228516,0,0,0.13228516,-4.4094514,-6.0388816)"
     style="color:#000000;display:inline;overflow:visible;visibility:visible;opacity:0.3;fill:url(#linearGradient4358);fill-opacity:1;fill-rule:nonzero;stroke:none;stroke-width:2;marker:none;filter:url(#filter4380);enable-background:accumulate"
     d="M 189.84323,74 C 119.24979,74 111.65402,81.250835 112,151.98706 V 298 444.01294 C 111.65402,514.74917 119.24979,522 189.84323,522 H 386.15677 C 456.75021,522 464,514.75001 464,444.01294 V 298 202 L 336,74 Z"
     id="path4350"
     inkscape:connector-curvature="0"
     sodipodi:nodetypes="scccssscccs" />
  <path
     sodipodi:nodetypes="scccssscccs"
     inkscape:connector-curvature="0"
     id="rect4158"
     d="m 20.703991,3.4856498 c -9.338465,0 -10.343273,0.959178 -10.297505,10.3165302 v 19.315345 19.315344 c -0.04577,9.357355 0.95904,10.316531 10.297505,10.316531 h 25.969365 c 9.338465,0 10.297506,-0.959068 10.297506,-10.316531 V 33.117525 20.418149 L 40.038362,3.4856498 Z"
     style="color:#000000;display:inline;overflow:visible;visibility:visible;fill:url(#linearGradient4226);fill-opacity:1;fill-rule:nonzero;stroke:none;stroke-width:0.26457033;marker:none;enable-background:accumulate" />
  <path
     sodipodi:nodetypes="sccsccs"
     inkscape:connector-curvature="0"
     id="path931"
     d="m 20.70406,3.4856498 c -9.338466,0 -10.343342,0.959339 -10.297574,10.3166912 v 0.529141 C 10.360718,4.9741298 11.365594,4.0147898 20.70406,4.0147898 h 19.334302 v -0.52914 z"
     style="color:#000000;display:inline;overflow:visible;visibility:visible;opacity:0.6;fill:#ffffff;fill-opacity:1;fill-rule:nonzero;stroke:none;stroke-width:0.26457033;marker:none;enable-background:accumulate" />
  <path
     transform="matrix(0.90007802,0,0,0.90007802,4.4657903,13.523067)"
     style="display:inline;opacity:0.22000002;stroke:#000000;stroke-linejoin:round;stroke-opacity:0.294;filter:url(#c-6);enable-background:new"
     inkscape:connector-curvature="0"
     d="m 18,26 h 16 c 1.108,0 2,0.892 2,2 v 16 c 0,1.108 -0.892,2 -2,2 H 18 c -1.108,0 -2,-0.892 -2,-2 V 28 c 0,-1.108 0.892,-2 2,-2 z"
     id="path25" />
  <path
     style="display:inline;fill:#dedede;fill-opacity:1;stroke-width:0.90007806;enable-background:new"
     inkscape:connector-curvature="0"
     d="m 20.667195,36.925096 h 14.401248 c 0.997287,0 1.800157,0.802871 1.800157,1.800155 v 14.40125 c 0,0.997285 -0.80287,1.800155 -1.800157,1.800155 H 20.667195 c -0.997286,0 -1.800156,-0.80287 -1.800156,-1.800155 v -14.40125 c 0,-0.997284 0.80287,-1.800155 1.800156,-1.800155 z"
     id="path27" />
  <path
     transform="matrix(0.90007802,0,0,0.90007802,4.4657903,13.523067)"
     style="color:#000000;display:inline;opacity:0.15;fill:#074271;stroke:#0b5fa1;stroke-linejoin:round;filter:url(#b-3);enable-background:new"
     inkscape:connector-curvature="0"
     d="m 30,14 c -1.108,0 -2,0.892 -2,2 v 16 c 0,1.108 0.892,2 2,2 h 16 c 1.108,0 2,-0.892 2,-2 V 16 c 0,-1.108 -0.892,-2 -2,-2 z"
     id="path31" />
  <path
     sodipodi:nodetypes="cccccccccccccccccccccc"
     inkscape:connector-curvature="0"
     id="path36316"
     style="font-style:normal;font-variant:normal;font-weight:normal;font-stretch:normal;font-size:medium;line-height:125%;font-family:Ubuntu;-inkscape-font-specification:Ubuntu;text-align:center;letter-spacing:0px;word-spacing:0px;text-anchor:middle;display:inline;fill:#77767b;fill-opacity:1;stroke:none;stroke-width:0.01931896px;stroke-linecap:butt;stroke-linejoin:miter;stroke-opacity:1;enable-background:new"
     d="M 31.738155,52.149091 C 31.53519,51.600158 31.344163,51.063427 31.165078,50.538895 30.98599,50.002167 30.800934,49.503311 30.609909,48.954384 H 24.98658 l -1.128247,3.194707 h -1.808777 c 0.477563,-1.341829 0.925282,-2.57997 1.34315,-3.714424 0.41787,-1.146656 0.823803,-2.232315 1.21779,-3.256985 0.40593,-1.024667 0.805892,-2.000543 1.199885,-2.927621 0.393993,-0.93928 0.805889,-1.866364 1.235697,-2.781248 h 1.593874 c 0.429808,0.914884 0.841707,1.841968 1.2357,2.781248 0.39399,0.927078 0.787983,1.902954 1.181973,2.927621 0.40593,1.02467 0.817829,2.110329 1.235699,3.256985 0.417871,1.134454 0.865585,2.372595 1.343152,3.714424 z m -1.629689,-4.649434 c -0.382056,-1.061266 -0.764106,-2.138998 -1.146159,-3.12707 -0.37011,-1.000272 -0.758131,-1.95785 -1.164061,-2.872731 -0.417871,0.914881 -0.817832,1.872459 -1.199885,2.872731 -0.370113,0.988072 -0.740225,2.065804 -1.110338,3.12707 z" />
  <path
     style="color:#000000;display:inline;fill:#44a5f3;stroke-width:0.89842403;enable-background:new"
     inkscape:connector-curvature="0"
     d="m 31.293098,25.730629 c -0.996372,0 -1.798504,0.800656 -1.798504,1.795194 v 14.361565 c 0,0.994538 0.802132,1.795194 1.798504,1.795194 h 14.388019 c 0.996369,0 1.798502,-0.800656 1.798502,-1.795194 V 27.525823 c 0,-0.994538 -0.802133,-1.795194 -1.798502,-1.795194 z"
     id="path33" />
  <path
     style="display:inline;opacity:1;fill:#ffffff;fill-opacity:1;stroke:none;stroke-width:0.65529293;stroke-linecap:round;stroke-linejoin:miter;stroke-miterlimit:4;stroke-dasharray:none;stroke-dashoffset:0;stroke-opacity:1;marker:none;enable-background:new"
     d="m 37.873153,28.585226 v 1.96588 h -5.242345 v 1.310586 h 2.168419 c 0.779945,2.01329 1.737877,3.720652 2.866428,5.114035 -1.313022,1.359963 -2.832783,2.274003 -4.562095,2.775398 l 0.365084,1.258752 c 1.92173,-0.557185 3.611501,-1.584588 5.059802,-3.063687 1.448302,1.479099 3.138073,2.506502 5.059804,3.063687 l 0.365083,-1.258752 c -1.729314,-0.501395 -3.249072,-1.415435 -4.562095,-2.775398 1.128552,-1.393383 2.086484,-3.100748 2.866427,-5.114035 h 2.168418 v -1.310586 h -5.242344 v -1.96588 z m -1.663669,3.276466 h 4.637926 c -0.665334,1.61985 -1.438218,2.988036 -2.318964,4.11878 -0.880747,-1.130744 -1.653628,-2.49893 -2.318962,-4.11878 z"
     id="rect36292"
     inkscape:connector-curvature="0"
     sodipodi:nodetypes="cccccccccccccccccccccc" />
  <path
     sodipodi:nodetypes="ccsscccc"
     inkscape:connector-curvature="0"
     id="path4231"
     d="M 33.688674,3.4856498 V 62.7494 h 12.984614 c 9.338464,0 10.054627,-0.962123 10.297574,-10.316435 V 33.117525 20.418149 L 40.038362,3.4856498 Z"
     style="color:#000000;display:inline;overflow:visible;visibility:visible;opacity:0.1;fill:#ffffff;fill-opacity:1;fill-rule:nonzero;stroke:none;stroke-width:0.26457033;marker:none;enable-background:accumulate" />
  <path
     sodipodi:nodetypes="ccssscc"
     id="path4255"
     d="m 10.406486,33.117525 v 19.31544 C 10.360716,61.790319 11.365594,62.7494 20.70406,62.7494 h 25.969228 c 9.338464,0 10.054627,-0.962123 10.297574,-10.316435 v -19.31544 z"
     style="color:#000000;display:inline;overflow:visible;visibility:visible;opacity:0.2;fill:#ffffff;fill-opacity:1;fill-rule:nonzero;stroke:none;stroke-width:0.26457033;marker:none;enable-background:accumulate"
     inkscape:connector-curvature="0" />
  <path
     sodipodi:nodetypes="cccsc"
     inkscape:connector-curvature="0"
     id="path4254"
     d="M 41.096643,62.7494 56.970862,46.875181 v 5.948567 C 56.957022,61.81803 55.964785,62.7494 46.871128,62.7494 Z"
     style="color:#000000;display:inline;overflow:visible;visibility:visible;opacity:0.4;fill:#ffffff;fill-opacity:1;fill-rule:nonzero;stroke:none;stroke-width:2.11656237;stroke-linecap:butt;stroke-linejoin:miter;stroke-miterlimit:4;stroke-dasharray:none;stroke-dashoffset:0;stroke-opacity:1;marker:none;enable-background:accumulate" />
  <path
     sodipodi:nodetypes="ccccscc"
     id="rect4158-0-3-6"
     d="m 185.33354,74.825228 -66,-65.9999998 0.003,24.9985698 v 1 0.53711 c 0,35.29429 3.62603,39.63197 38.99414,39.45899 z"
     style="color:#000000;display:inline;overflow:visible;visibility:visible;opacity:0.2;fill:url(#radialGradient1752);fill-opacity:1;fill-rule:nonzero;stroke:none;stroke-width:1;marker:none;filter:url(#filter2553);enable-background:accumulate"
     inkscape:connector-curvature="0"
     transform="matrix(0.26457031,0,0,0.26457031,7.9371088,1.1507563)" />
  <path
     sodipodi:nodetypes="ccccccscc"
     id="rect4158-0-3-2"
     d="M 56.970862,20.94729 V 20.418149 L 40.038362,3.4856498 h -0.529141 v 6.6140182 0.26457 0.142104 c 0,9.118096 1.587422,10.440948 10.316692,10.439678 z"
     style="color:#000000;display:inline;overflow:visible;visibility:visible;opacity:0.15;fill:#000000;fill-opacity:1;fill-rule:nonzero;stroke:none;stroke-width:0.26457033;marker:none;enable-background:accumulate"
     inkscape:connector-curvature="0" />
  <path
     id="rect4158-0-3"
     d="M 56.970086,20.416739 40.039137,3.4857878 v 6.084602 0.26457 0.142103 c 0,9.3378202 0.95934,10.4854422 10.316692,10.4396762 z"
     style="color:#000000;display:inline;overflow:visible;visibility:visible;fill:#faf8f6;fill-opacity:1;fill-rule:nonzero;stroke:none;stroke-width:0.26457033;marker:none;enable-background:accumulate"
     inkscape:connector-curvature="0" />
</svg>
