<svg height="256" viewBox="0 0 67.73 67.73" width="256" xmlns="http://www.w3.org/2000/svg" xmlns:xlink="http://www.w3.org/1999/xlink"><radialGradient id="a" cx="179.99261" cy="103.2822" gradientTransform="matrix(1.3687341 -.00000021 .0000002 1.3528551 -121.02851 -70.900578)" gradientUnits="userSpaceOnUse" r="35.068905"><stop offset="0"/><stop offset="1" stop-opacity="0"/></radialGradient><filter id="b" color-interpolation-filters="sRGB" height="1.144" width="1.144" x="-.072" y="-.072"><feGaussianBlur stdDeviation="1.98"/></filter><linearGradient id="c" gradientUnits="userSpaceOnUse" x1="44.271486" x2="44.271486" xlink:href="#d" y1="35.234087" y2="43.700337"/><linearGradient id="d"><stop offset="0" stop-color="#f69923"/><stop offset=".33127922" stop-color="#cc2235"/><stop offset=".66221952" stop-color="#b02050"/><stop offset="1" stop-color="#7c28d7"/></linearGradient><linearGradient id="e" gradientUnits="userSpaceOnUse" x1="33.688673" x2="33.688673" xlink:href="#d" y1="28.884399" y2="50.050024"/><linearGradient id="f" gradientUnits="userSpaceOnUse" x1="23.105861" x2="23.105861" xlink:href="#d" y1="35.234087" y2="43.700337"/><linearGradient id="g" gradientTransform="matrix(0 -.11988342 .11987999 0 .362762 62.749399)" gradientUnits="userSpaceOnUse" x1="529.65515" x2="-35.310345" y1="401.58368" y2="119.09284"><stop offset="0" stop-color="#f2f2f2"/><stop offset="1" stop-color="#f9f9f9"/></linearGradient><linearGradient id="h" gradientUnits="userSpaceOnUse" x1="88" x2="488" y1="88" y2="488"><stop offset="0" stop-opacity=".588235"/><stop offset=".88" stop-opacity="0"/><stop offset="1"/></linearGradient><filter id="i" color-interpolation-filters="sRGB" height="1.087725" width="1.105998" x="-.052999" y="-.043863"><feGaussianBlur stdDeviation="8.4801079"/></filter><filter id="j" color-interpolation-filters="sRGB" height="1.021931" width="1.0265" x="-.01325" y="-.010966"><feGaussianBlur stdDeviation="2.120027"/></filter><path d="m20.703991 3.4856494c-9.338465 0-10.343273.959178-10.297505 10.3165306v19.315345 19.315344c-.04577 9.357355.95904 10.316531 10.297505 10.316531h25.969365c9.338465 0 10.297506-.959068 10.297506-10.316531v-19.315344-12.699376l-16.9325-16.9324996z" fill="none" opacity=".2" stroke="#000" stroke-width="1.058281"/><path d="m189.84323 74c-70.59344 0-78.18921 7.250835-77.84323 77.98706v146.01294 146.01294c-.34598 70.73623 7.24979 77.98706 77.84323 77.98706h196.31354c70.59344 0 76.00668-7.27384 77.84323-77.98706v-146.01294-98l-128-126z" filter="url(#j)" opacity=".1" transform="matrix(.13228516 0 0 .13228516 -4.409451 -6.038882)"/><path d="m189.84323 74c-70.59344 0-78.18921 7.250835-77.84323 77.98706v146.01294 146.01294c-.34598 70.73623 7.24979 77.98706 77.84323 77.98706h196.31354c70.59344 0 77.84323-7.24999 77.84323-77.98706v-146.01294-96l-128-128z" fill="url(#h)" filter="url(#i)" opacity=".3" transform="matrix(.13228516 0 0 .13228516 -4.409451 -6.038882)"/><path d="m20.703991 3.4856494c-9.338465 0-10.343273.959178-10.297505 10.3165306v19.315345 19.315344c-.04577 9.357355.95904 10.316531 10.297505 10.316531h25.969365c9.338465 0 10.297506-.959068 10.297506-10.316531v-19.315344-12.699376l-16.9325-16.9324996z" fill="url(#g)"/><path d="m20.70406 3.4856494c-9.338466 0-10.343342.95934-10.297574 10.3166916v.529141c-.04577-9.3573516.959108-10.3166916 10.297574-10.3166916h19.334302v-.529141z" fill="#fff" opacity=".6"/><path d="m19.234094 39.467286 8.543147 3.513521-.625695 1.853021-10.396166-4.403932v-1.925217l10.396166-4.403931.625695 1.853021z" fill="url(#f)"/><path d="m30.77223 51.114844h-2.286194l8.158103-23.295112h2.238064z" fill="url(#e)"/><path d="m39.598519 35.953769.625695-1.853021 10.396166 4.403931v1.925217l-10.396166 4.403932-.625695-1.853021 8.543144-3.513521z" fill="url(#c)"/><g fill="#fff"><path d="m33.688674 3.4856494v59.2637506h12.984614c9.338464 0 10.054627-.962123 10.297574-10.316435v-19.31544-12.699376l-16.9325-16.9324996z" opacity=".1"/><path d="m10.406486 33.117525v19.31544c-.04577 9.357354.959108 10.316435 10.297574 10.316435h25.969228c9.338464 0 10.054627-.962123 10.297574-10.316435v-19.31544z" opacity=".2"/><path d="m41.096643 62.7494 15.874219-15.874219v5.948567c-.01384 8.994282-1.006077 9.925652-10.099734 9.925652z" opacity=".4"/></g><path d="m185.33354 74.825228-66-65.9999998.003 24.9985698v1 .53711c0 35.29429 3.62603 39.63197 38.99414 39.45899z" fill="url(#a)" filter="url(#b)" opacity=".2" transform="matrix(.26457031 0 0 .26457031 7.937109 1.150756)"/><path d="m56.970862 20.94729v-.529141l-16.9325-16.9324996h-.529141v6.6140176.264571.142103c0 9.118097 1.587422 10.440949 10.316692 10.439679z" opacity=".15"/><path d="m56.970086 20.416739-16.930949-16.9309506v6.084601.264571.142103c0 9.3378196.95934 10.4854416 10.316692 10.4396756z" fill="#faf8f6"/></svg>