<svg height="256" viewBox="0 0 67.73 67.73" width="256" xmlns="http://www.w3.org/2000/svg" xmlns:xlink="http://www.w3.org/1999/xlink"><linearGradient id="a" gradientTransform="matrix(0 -.11988932 .11988589 0 .36278 292.54831)" gradientUnits="userSpaceOnUse" x1="529.655" x2="-35.31" y1="401.584" y2="119.093"><stop offset="0" stop-color="#f2f2f2"/><stop offset="1" stop-color="#f9f9f9"/></linearGradient><linearGradient id="b" gradientUnits="userSpaceOnUse" x1="88" x2="488" y1="88" y2="488"><stop offset="0" stop-opacity=".588235"/><stop offset=".88" stop-opacity="0"/><stop offset="1"/></linearGradient><filter id="c" color-interpolation-filters="sRGB" height="1.022" width="1.026" x="-.01" y="-.01"><feGaussianBlur stdDeviation="2.12"/></filter><g transform="translate(0 -229.26666)"><path d="m20.705011 233.28165c-9.338926 0-10.343783.95922-10.298013 10.31704v38.63259c-.04577 9.35781.959087 10.31704 10.298013 10.31704h25.970643c9.338924 0 10.298012-.95912 10.298012-10.31704v-38.63259c0-9.35793-.959088-10.31704-10.298012-10.31704z" fill="none" opacity=".2" stroke="#000" stroke-width="1.058333"/><path d="m189.84323 74c-70.59344 0-78.18921 7.250835-77.84323 77.98706v292.02588c-.34598 70.73623 7.24979 77.98706 77.84323 77.98706h196.31354c70.59344 0 76.00668-7.27384 77.84323-77.98706v-292.02588c0-70.737067-7.24979-77.98706-77.84323-77.98706z" filter="url(#c)" opacity=".1" transform="matrix(.13229167 0 0 .13229167 -4.409668 223.75665)"/><path d="m189.84323 74c-70.59344 0-78.18921 7.250835-77.84323 77.98706v292.02588c-.34598 70.73623 7.24979 77.98706 77.84323 77.98706h196.31354c70.59344 0 77.84323-7.24999 77.84323-77.98706v-292.02588c0-70.737067-7.24979-77.98706-77.84323-77.98706z" fill="url(#b)" opacity=".3" transform="matrix(.13229167 0 0 .13229167 -4.409668 223.75665)" visibility="hidden"/><path d="m20.705011 233.28165c-9.338926 0-10.343783.95922-10.298013 10.31704v38.63259c-.04577 9.35781.959087 10.31704 10.298013 10.31704h25.970643c9.338924 0 10.298012-.95912 10.298012-10.31704v-38.63259c0-9.35793-.959088-10.31704-10.298012-10.31704z" fill="url(#a)"/><path d="m20.705079 233.28165c-9.338926 0-10.343851.95939-10.298081 10.3172v.52916c-.04577-9.35781.959155-10.3172 10.298081-10.3172h25.970506c9.338927 0 10.298081.95928 10.298081 10.3172v-.52916c0-9.35793-.959154-10.3172-10.298081-10.3172z" fill="#fff" opacity=".6"/><path d="m33.690581 247.04012c-.153485 0-.307129.0678-.390324.20287l-.825781 1.33427-.38895.0379-1.069687-1.14722c-.216792-.23196-.654711-.14614-.765836.15264l-.548106 1.46586-.377923.11439-1.270196-.91398c-.258088-.1864-.670729-.0148-.721738.29866l-.252182 1.54579-.346914.18607-1.425218-.64975c-.289663-.13239-.661538.11648-.649393.43408l.05477 1.56856-.301099.24768-1.527537-.36035c-.310309-.0723-.625803.2426-.552932.55289l.360008 1.52793-.247353.3004-1.568535-.0548c-.316387-.009-.565508.35946-.433738.64974l.649744 1.42557-.186034.34691-1.545455.25149c-.313952.051-.484241.46363-.299027.72174l.914317 1.26949-.114723.37861-1.465871.54778c-.297555.11113-.384852.54875-.15227.76619l1.146858 1.06933-.0379.3886-1.334267.82613c-.270234.16701-.270234.61425 0 .78066l1.334267.82578.0379.38859-1.146858 1.06969c-.232582.21681-.145285.65411.15227.76581l1.465871.54812.114723.3783-.914317 1.26984c-.185822.2587-.01458.67135.299376.72175l1.545106.25113.186034.34759-.649744 1.42525c-.132379.28964.117351.66215.433738.64938l1.568188-.0551.2477.30143-.360008 1.52787c-.07287.30973.242623.62445.552932.55159l1.527537-.35967.301099.24697-.05477 1.56892c-.01217.3176.35973.56612.649393.43373l1.425218-.64976.346914.18641.252182 1.54475c.05101.31455.46365.48458.721738.29936l1.269503-.91497.378267.11503.548111 1.46554c.11113.29753.549042.38511.765831.15191l1.069694-1.14651.388948.0386.825778 1.33426c.166391.26899.613656.26962.780653 0l.826123-1.33426.388601-.0386 1.069345 1.14651c.216795.2332.654707.14562.765839-.15191l.547759-1.46554.378617-.11503 1.269849.91497c.258082.18522.670382.0147.721391-.29936l.252175-1.54475.346919-.18641 1.425223.64976c.289663.13239.660929-.11553.649393-.43373l-.05478-1.56892.300755-.24697 1.527881.35967c.310311.0729.625112-.24186.552246-.55159l-.36001-1.52787.247353-.30143 1.568535.0551c.316383.0127.566378-.35974.433387-.64938l-.64939-1.42525.186034-.34759 1.545449-.25113c.314561-.0504.485117-.46305.298686-.72175l-.914313-1.26984.114716-.3783 1.465873-.54812c.298162-.1117.385115-.549.151927-.76581l-1.146514-1.06969.03789-.38859 1.334273-.82578c.270232-.16641.270528-.61365.000264-.78066l-1.33427-.82613-.03789-.3886 1.146513-1.06933c.233191-.21744.145891-.65506-.15227-.76619l-1.465527-.54778-.114724-.37861.914321-1.26949c.186431-.25811.01527-.6701-.298688-.72174l-1.545796-.25149-.185685-.34691.649391-1.42557c.132992-.29028-.113967-.66189-.433388-.64974l-1.568537.0548-.248042-.3004.360699-1.52793c.07287-.31029-.242277-.62576-.552585-.55289l-1.527543.36035-.301098-.24768.05512-1.56856c.01217-.3176-.359725-.56588-.649396-.43408l-1.425218.64975-.346913-.18607-.252177-1.54579c-.05101-.31334-.463312-.48452-.721395-.29866l-1.270539.91398-.377923-.11439-.547765-1.46586c-.11113-.29878-.549039-.3846-.765833-.15264l-1.069343 1.14722-.388951-.0379-.825781-1.33427c-.0835-.13507-.236839-.20287-.390326-.20287zm-.05064 2.79669c.471967 0 .944185.31457.943944.94391-.000529 1.25779-1.887059 1.25779-1.887548 0-.000265-.62934.471635-.94391.943604-.94391zm2.190367 1.55474c3.35465.62837 6.263384 2.69982 7.953947 5.66472l-1.1131 2.51382c-.192196.43514.0037.94409.437521 1.1369l2.143172.95186c.06666.67035.07475 1.3453.02445 2.01709h-1.19199c-.119325 0-.167085.0784-.167085.19532v.54741c0 1.28861-.726839 1.56886-1.363551 1.64019-.606356.0683-1.278596-.25389-1.36149-.62492-.357675-2.01186-.953527-2.44155-1.894777-3.18392 1.168064-.74175 2.383287-1.836 2.383287-3.30069 0-1.58162-1.084088-2.57793-1.823124-3.06646-1.036897-.68347-2.184861-.74776-2.494566-.74776h-12.328482c1.704266-1.90442 3.988927-3.26653 6.50013-3.74115l1.453126 1.52479c.328525.34399.872741.35674 1.216451.0279zm-13.447778 6.98933c.471964 0 .94384.31458.943597.94392-.00053 1.25777-1.887062 1.25777-1.887546 0-.000264-.62934.471977-.94392.943949-.94392zm22.514817.0441c.471974 0 .944189.31457.943946.94393-.000529 1.25775-1.887059 1.25775-1.887545 0-.000265-.62936.471633-.94393.943599-.94393zm-20.534567.37357h1.389406l-.0042 7.3544h-3.234174c-.410057-1.44033-.537803-3.09899-.3762-4.58783l2.032926-.90326c.434194-.19281.63033-.70176.437525-1.13687zm6.273983 0h4.292248c.202525 0 1.430044.0815 1.430044.99941 0 .76207-.94138 1.13724-1.715638 1.13724h-4.006654v-2.137zm0 4.88422h3.42443c.274177 0 1.465835.38359 1.846893 1.90689.11933.46849.38137 1.99251.560514 2.48047.178536.54713.905592 1.71871 1.680155 1.71871h4.902311c-.328792.44008-.688552.77764-1.076235 1.16683l-1.995723-.42891c-.46486-.0996-.921864.19604-1.021458.6618l-.473692 2.21036c-3.082377 1.39623-6.620378 1.37959-9.689225-.0462l-.473347-2.21068c-.0996-.46515-.556906-.76134-1.021461-.66143l-1.951281.41891c-.362577-.37341-.699752-.69211-1.009057-1.11069h9.350033v-3.66343h-3.052857zm-3.988298 7.99602c.471969 0 .944187.3146.943943.94396-.000529 1.25773-1.887056 1.25773-1.887545 0-.000265-.62936.471633-.94396.943602-.94396zm13.982799.0438c.471966 0 .94384.31492.943599.94428-.000529 1.25777-1.887064 1.25777-1.887545 0-.000265-.62936.471974-.94428.943946-.94428z" fill="#6c6c6c"/><g fill="#fff"><path d="m33.690332 233.28165v59.26667h12.985253c9.338924 0 10.055122-.96217 10.298081-10.31695v-38.63278c0-9.35792-.959157-10.31694-10.298081-10.31694z" opacity=".1"/><path d="m10.406998 262.91498v19.31639c-.04577 9.35782.959156 10.31695 10.298081 10.31695h25.970506c9.338924 0 10.055122-.96217 10.298081-10.31695v-19.31639z" opacity=".2"/><path d="m41.098666 292.54832 15.875-15.875v5.94886c-.01384 8.99472-1.006126 9.92614-10.100231 9.92614z" opacity=".4"/></g></g></svg>