<svg fill="none" height="256" viewBox="0 0 256 256" width="256" xmlns="http://www.w3.org/2000/svg" xmlns:xlink="http://www.w3.org/1999/xlink">
  <linearGradient id="paint0_linear" gradientUnits="userSpaceOnUse" x1="183.343" x2="55.3305" y1="-.825222" y2="255.184">
    <stop offset="0" stop-color="#f2f2f2"/>
    <stop offset="1" stop-color="#f9f9f9"/>
  </linearGradient>
  <path d="m78.259 15.1755c-35.2985 0-39.0965 3.6256-38.9235 38.9955v146.02c-.173 35.37 3.625 38.996 38.9235 38.996h98.162c35.298 0 38.923-3.626 38.923-38.996v-146.02c0-35.3703-3.625-38.9955-38.923-38.9955z" opacity=".2" stroke="#000" stroke-width="4.00018"/>
  <path d="m78.259 16.1756c-35.2985 0-39.0965 3.6256-38.9235 38.9954v146.02c-.173 35.37 3.625 38.996 38.9235 38.996h98.162c35.298 0 38.005-3.638 38.923-38.996v-146.02c0-35.3703-3.625-38.9954-38.923-38.9954z" fill="#000" opacity=".1"/>
  <path d="m78.259 15.1755c-35.2985 0-39.0965 3.6256-38.9235 38.9955v146.02c-.173 35.37 3.625 38.996 38.9235 38.996h98.162c35.298 0 38.923-3.626 38.923-38.996v-146.02c0-35.3703-3.625-38.9955-38.923-38.9955z" fill="url(#paint0_linear)"/>
  <path d="m71.337 15.1755h2.0001v224.0115h-2.0001z" fill="#f34f17" opacity=".1"/>
  <path d="m37.3354 11.1753v2.0001h180.0086v-2.0001zm0 12.0006v2.0001h180.0086v-2.0001zm0 12.0006v2.0001h180.0086v-2.0001zm0 12.0006v2.0001h180.0086v-2.0001zm0 12.0006v2h180.0086v-2zm0 12.0005v2.0001h180.0086v-2.0001zm0 12.0006v2.0001h180.0086v-2.0001zm0 12.0006v2.0001h180.0086v-2.0001zm0 12.0006v2h180.0086v-2zm0 12.001v2h180.0086v-2zm0 12.121v2h180.0086v-2zm0 12.001v2h180.0086v-2zm0 11.879v2h180.0086v-2zm0 12.001v2h180.0086v-2zm0 12.001v2h180.0086v-2zm0 12v2h180.0086v-2zm0 12.001v2h180.0086v-2zm0 12v2h180.0086v-2zm0 12.001v2h180.0086v-2zm0 12v2.001h180.0086v-2.001z" fill="#1463a5" opacity=".05"/>
  <path d="m135.34 71.1782v4.0003h48.003v-4.0003zm0 12.0006v4.0002h48.003v-4.0002zm0 12.0006v4.0002h48.003v-4.0002zm0 12.0006v4h48.003v-4zm0 12.001v4h48.003v-4zm-64.003 12v4h112.006v-4zm0 12.001v4h112.006v-4zm0 12v4.001h112.006v-4.001zm0 12.001v4h112.006v-4zm0 12.001v4h64.003v-4z" fill="#999"/>
  <path d="m95.9194 67.1778-19.7345 52.0032h-4.8477v4h14.0005v-4h-4.4823l4.6759-12.009h23.2027l4.67 12.009h-6.055v4h20.083v-4h-5.54l-19.74-52.0032zm1.2133 9.0029 10.2163 27.0073h-20.2608z" fill="#999"/>
  <g fill="#fff">
    <path d="m127.34 15.1755v224.0115h49.08c35.299 0 38.006-3.637 38.924-38.996v-146.0204c0-35.3702-3.625-38.9951-38.924-38.9951z" opacity=".1"/>
    <path d="m39.3355 127.181v73.01c-.173 35.37 3.6253 38.996 38.9238 38.996h98.1607c35.299 0 38.006-3.637 38.924-38.996v-73.01z" opacity=".2"/>
    <path d="m155.341 239.187 60.003-60.003v22.485c-.052 33.997-3.803 37.518-38.176 37.518z" opacity=".4"/>
    <path d="m78.2593 15.1755c-35.2985 0-39.0968 3.6263-38.9238 38.9961v2.0001c-.173-35.3699 3.6253-38.9961 38.9238-38.9961h98.1607c35.299 0 38.924 3.6258 38.924 38.9961v-2.0001c0-35.3703-3.625-38.9961-38.924-38.9961z" opacity=".6"/>
  </g>
</svg>
