<?xml version="1.0" encoding="UTF-8" standalone="no"?>
<svg
   xmlns:dc="http://purl.org/dc/elements/1.1/"
   xmlns:cc="http://creativecommons.org/ns#"
   xmlns:rdf="http://www.w3.org/1999/02/22-rdf-syntax-ns#"
   xmlns:svg="http://www.w3.org/2000/svg"
   xmlns="http://www.w3.org/2000/svg"
   xmlns:xlink="http://www.w3.org/1999/xlink"
   xmlns:sodipodi="http://sodipodi.sourceforge.net/DTD/sodipodi-0.dtd"
   xmlns:inkscape="http://www.inkscape.org/namespaces/inkscape"
   height="256"
   viewBox="0 0 67.73 67.73"
   width="256"
   version="1.1"
   id="svg39"
   sodipodi:docname="1.svg"
   inkscape:version="0.92.5 (2060ec1f9f, 2020-04-08)">
  <metadata
     id="metadata45">
    <rdf:RDF>
      <cc:Work
         rdf:about="">
        <dc:format>image/svg+xml</dc:format>
        <dc:type
           rdf:resource="http://purl.org/dc/dcmitype/StillImage" />
        <dc:title></dc:title>
      </cc:Work>
    </rdf:RDF>
  </metadata>
  <defs
     id="defs43">
    <filter
       style="color-interpolation-filters:sRGB"
       id="b-3"
       x="-0.059999999"
       y="-0.059999999"
       width="1.12"
       height="1.12">
      <feGaussianBlur
         stdDeviation="0.5"
         id="feGaussianBlur8" />
    </filter>
    <filter
       inkscape:collect="always"
       style="color-interpolation-filters:sRGB"
       id="filter1136"
       x="-0.059999999"
       width="1.12"
       y="-0.059999999"
       height="1.12">
      <feGaussianBlur
         inkscape:collect="always"
         stdDeviation="0.5"
         id="feGaussianBlur1138" />
    </filter>
    <linearGradient
       gradientUnits="userSpaceOnUse"
       y2="119.09284"
       x2="-35.310345"
       y1="401.58368"
       x1="529.65515"
       id="linearGradient4226"
       xlink:href="#linearGradient4338"
       inkscape:collect="always"
       gradientTransform="matrix(0,-0.11988342,0.11987999,0,0.3627618,62.749399)" />
    <linearGradient
       inkscape:collect="always"
       id="linearGradient4338">
      <stop
         style="stop-color:#f2f2f2;stop-opacity:1"
         offset="0"
         id="stop4340" />
      <stop
         style="stop-color:#f9f9f9;stop-opacity:1"
         offset="1"
         id="stop4342" />
    </linearGradient>
    <linearGradient
       inkscape:collect="always"
       xlink:href="#linearGradient4360"
       id="linearGradient4358"
       x1="88"
       y1="88"
       x2="488"
       y2="488"
       gradientUnits="userSpaceOnUse" />
    <linearGradient
       id="linearGradient4360"
       inkscape:collect="always">
      <stop
         id="stop4362"
         offset="0"
         style="stop-color:#000000;stop-opacity:0.58823532" />
      <stop
         style="stop-color:#000000;stop-opacity:0"
         offset="0.88"
         id="stop4364" />
      <stop
         id="stop4366"
         offset="1"
         style="stop-color:#000000;stop-opacity:1" />
    </linearGradient>
    <filter
       inkscape:collect="always"
       style="color-interpolation-filters:sRGB"
       id="filter4380"
       x="-0.052999184"
       width="1.1059984"
       y="-0.043862626"
       height="1.0877253">
      <feGaussianBlur
         inkscape:collect="always"
         stdDeviation="8.4801079"
         id="feGaussianBlur4382" />
    </filter>
    <filter
       inkscape:collect="always"
       style="color-interpolation-filters:sRGB"
       id="filter4346"
       x="-0.013249796"
       width="1.0264996"
       y="-0.010965657"
       height="1.0219313">
      <feGaussianBlur
         inkscape:collect="always"
         stdDeviation="2.120027"
         id="feGaussianBlur4348" />
    </filter>
  </defs>
  <sodipodi:namedview
     pagecolor="#ffffff"
     bordercolor="#666666"
     borderopacity="1"
     objecttolerance="10"
     gridtolerance="10"
     guidetolerance="10"
     inkscape:pageopacity="0"
     inkscape:pageshadow="2"
     inkscape:window-width="773"
     inkscape:window-height="480"
     id="namedview41"
     showgrid="false"
     inkscape:zoom="0.921875"
     inkscape:cx="128"
     inkscape:cy="128"
     inkscape:window-x="0"
     inkscape:window-y="27"
     inkscape:window-maximized="0"
     inkscape:current-layer="svg39" />
  <linearGradient
     id="a"
     gradientTransform="matrix(0 -.11988932 .11988589 0 .36278 292.5483)"
     gradientUnits="userSpaceOnUse"
     x1="529.655"
     x2="-35.31"
     y1="401.584"
     y2="119.093">
    <stop
       offset="0"
       stop-color="#f2f2f2"
       id="stop2" />
    <stop
       offset="1"
       stop-color="#f9f9f9"
       id="stop4" />
  </linearGradient>
  <linearGradient
     id="b"
     gradientUnits="userSpaceOnUse"
     x1="88"
     x2="488"
     y1="88"
     y2="488">
    <stop
       offset="0"
       stop-opacity=".588235"
       id="stop7" />
    <stop
       offset=".88"
       stop-opacity="0"
       id="stop9" />
    <stop
       offset="1"
       id="stop11" />
  </linearGradient>
  <filter
     id="c"
     color-interpolation-filters="sRGB"
     height="1.022"
     width="1.026"
     x="-.01"
     y="-.01">
    <feGaussianBlur
       stdDeviation="2.12"
       id="feGaussianBlur14" />
  </filter>
  <path
     sodipodi:nodetypes="scccssscsss"
     inkscape:connector-curvature="0"
     id="path1163"
     d="m 20.703991,3.4856497 c -9.338465,0 -10.343273,0.9591779 -10.297505,10.3165303 v 19.315345 19.315344 c -0.04577,9.357355 0.95904,10.316531 10.297505,10.316531 h 25.969365 c 9.338465,0 10.297506,-0.959068 10.297506,-10.316531 V 33.117525 13.80218 c 0,-9.3574638 -0.959041,-10.3165303 -10.297506,-10.3165303 z"
     style="color:#000000;display:inline;overflow:visible;visibility:visible;opacity:0.2;fill:none;fill-opacity:1;fill-rule:nonzero;stroke:#000000;stroke-width:1.0582813;stroke-miterlimit:4;stroke-dasharray:none;stroke-opacity:1;marker:none;enable-background:accumulate" />
  <path
     style="color:#000000;display:inline;overflow:visible;visibility:visible;opacity:0.1;fill:#000000;fill-opacity:1;fill-rule:nonzero;stroke:none;stroke-width:2;marker:none;filter:url(#filter4346);enable-background:accumulate"
     d="M 189.84323,74 C 119.24979,74 111.65402,81.250835 112,151.98706 V 298 444.01294 C 111.65402,514.74917 119.24979,522 189.84323,522 H 386.15677 C 456.75021,522 462.16345,514.72616 464,444.01294 V 298 151.98706 C 464,81.249993 456.75021,74 386.15677,74 Z"
     id="rect4158-9"
     inkscape:connector-curvature="0"
     sodipodi:nodetypes="scccssscsss"
     transform="matrix(0.13228516,0,0,0.13228516,-4.4094514,-6.0388816)" />
  <path
     sodipodi:nodetypes="scccssscsss"
     inkscape:connector-curvature="0"
     id="path4350"
     d="M 189.84323,74 C 119.24979,74 111.65402,81.250835 112,151.98706 V 298 444.01294 C 111.65402,514.74917 119.24979,522 189.84323,522 H 386.15677 C 456.75021,522 464,514.75001 464,444.01294 V 298 151.98706 C 464,81.249993 456.75021,74 386.15677,74 Z"
     style="color:#000000;display:inline;overflow:visible;visibility:visible;opacity:0.3;fill:url(#linearGradient4358);fill-opacity:1;fill-rule:nonzero;stroke:none;stroke-width:2;marker:none;filter:url(#filter4380);enable-background:accumulate"
     transform="matrix(0.13228516,0,0,0.13228516,-4.4094514,-6.0388816)" />
  <path
     style="color:#000000;display:inline;overflow:visible;visibility:visible;fill:url(#linearGradient4226);fill-opacity:1;fill-rule:nonzero;stroke:none;stroke-width:0.26457033;marker:none;enable-background:accumulate"
     d="m 20.703991,3.4856497 c -9.338465,0 -10.343273,0.9591779 -10.297505,10.3165303 v 19.315345 19.315344 c -0.04577,9.357355 0.95904,10.316531 10.297505,10.316531 h 25.969365 c 9.338465,0 10.297506,-0.959068 10.297506,-10.316531 V 33.117525 13.80218 c 0,-9.3574638 -0.959041,-10.3165303 -10.297506,-10.3165303 z"
     id="rect4158"
     inkscape:connector-curvature="0"
     sodipodi:nodetypes="scccssscsss" />
  <path
     style="color:#000000;display:inline;overflow:visible;visibility:visible;opacity:0.6;fill:#ffffff;fill-opacity:1;fill-rule:nonzero;stroke:none;stroke-width:0.26457033;marker:none;enable-background:accumulate"
     d="m 20.70406,3.4856497 c -9.338467,0 -10.343342,0.9593396 -10.297574,10.3166913 v 0.529141 C 10.360718,4.9741299 11.365593,4.0147903 20.70406,4.0147903 h 25.969228 c 9.338467,0 10.297574,0.9592282 10.297574,10.3166917 v -0.529141 c 0,-9.3574631 -0.959107,-10.3166913 -10.297574,-10.3166913 z"
     id="path931"
     inkscape:connector-curvature="0" />
  <path
     inkscape:connector-curvature="0"
     style="color:#000000;display:inline;overflow:visible;visibility:visible;opacity:0.2;fill:#44a5f3;fill-opacity:1;fill-rule:nonzero;stroke:none;stroke-width:0.26457033;marker:none;enable-background:accumulate"
     d="m 10.503829,56.399712 c 0.02727,0.372589 0.05979,0.727611 0.101797,1.058282 h 46.14892 c 0.04267,-0.330679 0.07656,-0.685682 0.104897,-1.058282 z"
     id="path970" />
  <path
     inkscape:connector-curvature="0"
     style="color:#000000;display:inline;overflow:visible;visibility:visible;opacity:0.2;fill:#44a5f3;fill-opacity:1;fill-rule:nonzero;stroke:none;stroke-width:0.26457033;marker:none;enable-background:accumulate"
     d="m 10.605626,8.7770561 c -0.042,0.33067 -0.07452,0.685692 -0.101797,1.058281 h 46.355614 c -0.02833,-0.3726 -0.06222,-0.727603 -0.104897,-1.058281 z"
     id="path991" />
  <path
     inkscape:connector-curvature="0"
     style="color:#000000;display:inline;overflow:visible;visibility:visible;opacity:0.2;fill:#44a5f3;fill-opacity:1;fill-rule:nonzero;stroke:none;stroke-width:0.26457033;marker:none;enable-background:accumulate"
     d="m 15.696538,3.701129 c -0.377953,0.048528 -0.729764,0.1071641 -1.056731,0.1777594 V 62.356161 c 0.327394,0.07069 0.679766,0.129195 1.058281,0.17776 V 3.701129 c -5.02e-4,6.35e-5 -0.0011,-6.35e-5 -0.0016,0 z"
     id="rect4158-6" />
  <rect
     style="display:inline;opacity:0.2;fill:#44a5f3;fill-opacity:1;fill-rule:evenodd;stroke:none;stroke-width:0.52914065;stroke-linecap:round;stroke-linejoin:round;stroke-miterlimit:4;stroke-dasharray:none;stroke-opacity:1;enable-background:new"
     id="rect951"
     width="1.0582813"
     height="59.263748"
     x="19.931015"
     y="3.4856493" />
  <rect
     y="3.4856493"
     x="25.222416"
     height="59.263748"
     width="1.0582813"
     id="rect969"
     style="display:inline;opacity:0.2;fill:#44a5f3;fill-opacity:1;fill-rule:evenodd;stroke:none;stroke-width:0.52914065;stroke-linecap:round;stroke-linejoin:round;stroke-miterlimit:4;stroke-dasharray:none;stroke-opacity:1;enable-background:new" />
  <rect
     y="3.4856493"
     x="30.513828"
     height="59.263748"
     width="1.0582813"
     id="rect971"
     style="display:inline;opacity:0.2;fill:#44a5f3;fill-opacity:1;fill-rule:evenodd;stroke:none;stroke-width:0.52914065;stroke-linecap:round;stroke-linejoin:round;stroke-miterlimit:4;stroke-dasharray:none;stroke-opacity:1;enable-background:new" />
  <rect
     style="display:inline;opacity:0.2;fill:#44a5f3;fill-opacity:1;fill-rule:evenodd;stroke:none;stroke-width:0.52914065;stroke-linecap:round;stroke-linejoin:round;stroke-miterlimit:4;stroke-dasharray:none;stroke-opacity:1;enable-background:new"
     id="rect973"
     width="1.0582813"
     height="59.263748"
     x="35.805233"
     y="3.4856493" />
  <rect
     style="display:inline;opacity:0.2;fill:#44a5f3;fill-opacity:1;fill-rule:evenodd;stroke:none;stroke-width:0.52914065;stroke-linecap:round;stroke-linejoin:round;stroke-miterlimit:4;stroke-dasharray:none;stroke-opacity:1;enable-background:new"
     id="rect975"
     width="1.0582813"
     height="59.263748"
     x="41.096638"
     y="3.4856493" />
  <rect
     y="3.4856493"
     x="46.388046"
     height="59.263748"
     width="1.0582813"
     id="rect977"
     style="display:inline;opacity:0.2;fill:#44a5f3;fill-opacity:1;fill-rule:evenodd;stroke:none;stroke-width:0.52914065;stroke-linecap:round;stroke-linejoin:round;stroke-miterlimit:4;stroke-dasharray:none;stroke-opacity:1;enable-background:new" />
  <path
     style="display:inline;opacity:0.75;fill:#44a5f3;fill-opacity:1;fill-rule:evenodd;stroke:none;stroke-width:0.52914065;stroke-linecap:round;stroke-linejoin:round;stroke-miterlimit:4;stroke-dasharray:none;stroke-opacity:1;enable-background:new"
     d="m 14.639609,6.6604931 v 2.116563 h -2.116562 v 1.058281 h 2.116562 V 22.534712 H 15.69789 V 9.8353371 h 7.407971 V 8.7770561 H 15.69789 v -2.116563 z"
     id="rect937"
     inkscape:connector-curvature="0"
     sodipodi:nodetypes="ccccccccccccc" />
  <rect
     style="display:inline;opacity:0.2;fill:#44a5f3;fill-opacity:1;fill-rule:evenodd;stroke:none;stroke-width:0.52914065;stroke-linecap:round;stroke-linejoin:round;stroke-miterlimit:4;stroke-dasharray:none;stroke-opacity:1;enable-background:new"
     id="rect981"
     width="46.564377"
     height="1.0582813"
     x="10.406486"
     y="51.108307" />
  <rect
     y="45.816898"
     x="10.406486"
     height="1.0582813"
     width="46.564377"
     id="rect983"
     style="display:inline;opacity:0.2;fill:#44a5f3;fill-opacity:1;fill-rule:evenodd;stroke:none;stroke-width:0.52914065;stroke-linecap:round;stroke-linejoin:round;stroke-miterlimit:4;stroke-dasharray:none;stroke-opacity:1;enable-background:new" />
  <rect
     style="display:inline;opacity:0.2;fill:#44a5f3;fill-opacity:1;fill-rule:evenodd;stroke:none;stroke-width:0.52914065;stroke-linecap:round;stroke-linejoin:round;stroke-miterlimit:4;stroke-dasharray:none;stroke-opacity:1;enable-background:new"
     id="rect985"
     width="46.564377"
     height="1.0582813"
     x="10.406486"
     y="40.525494" />
  <rect
     y="35.234089"
     x="10.406486"
     height="1.0582813"
     width="46.564377"
     id="rect987"
     style="display:inline;opacity:0.2;fill:#44a5f3;fill-opacity:1;fill-rule:evenodd;stroke:none;stroke-width:0.52914065;stroke-linecap:round;stroke-linejoin:round;stroke-miterlimit:4;stroke-dasharray:none;stroke-opacity:1;enable-background:new" />
  <rect
     y="24.651274"
     x="10.406486"
     height="1.0582813"
     width="46.564377"
     id="rect991"
     style="display:inline;opacity:0.2;fill:#44a5f3;fill-opacity:1;fill-rule:evenodd;stroke:none;stroke-width:0.52914065;stroke-linecap:round;stroke-linejoin:round;stroke-miterlimit:4;stroke-dasharray:none;stroke-opacity:1;enable-background:new" />
  <rect
     style="display:inline;opacity:0.2;fill:#44a5f3;fill-opacity:1;fill-rule:evenodd;stroke:none;stroke-width:0.52914065;stroke-linecap:round;stroke-linejoin:round;stroke-miterlimit:4;stroke-dasharray:none;stroke-opacity:1;enable-background:new"
     id="rect993"
     width="46.564377"
     height="1.0582813"
     x="10.406486"
     y="19.359869" />
  <rect
     y="14.068461"
     x="10.406486"
     height="1.0582813"
     width="46.564377"
     id="rect995"
     style="display:inline;opacity:0.2;fill:#44a5f3;fill-opacity:1;fill-rule:evenodd;stroke:none;stroke-width:0.52914065;stroke-linecap:round;stroke-linejoin:round;stroke-miterlimit:4;stroke-dasharray:none;stroke-opacity:1;enable-background:new" />
  <rect
     style="display:inline;opacity:0.2;fill:#44a5f3;fill-opacity:1;fill-rule:evenodd;stroke:none;stroke-width:0.52914065;stroke-linecap:round;stroke-linejoin:round;stroke-miterlimit:4;stroke-dasharray:none;stroke-opacity:1;enable-background:new"
     id="rect989"
     width="46.564377"
     height="1.0582813"
     x="10.406486"
     y="29.942682" />
  <path
     inkscape:connector-curvature="0"
     style="color:#000000;display:inline;overflow:visible;visibility:visible;opacity:0.2;fill:#44a5f3;fill-opacity:1;fill-rule:nonzero;stroke:none;stroke-width:0.26457033;marker:none;enable-background:accumulate"
     d="M 51.679654,3.7016475 V 62.533402 c 0.378817,-0.04881 0.731018,-0.108196 1.058281,-0.179307 V 3.8809547 C 52.410672,3.8098435 52.058471,3.7504555 51.679654,3.7016475 Z"
     id="path1000" />
  <path
     inkscape:connector-curvature="0"
     id="path942"
     d="m 52.737737,59.574556 v -2.116562 h 2.116562 V 56.399712 H 52.737737 V 43.700337 h -1.058282 v 12.699375 h -7.407968 v 1.058282 h 7.407968 v 2.116562 z"
     style="display:inline;opacity:0.75;fill:#44a5f3;fill-opacity:1;fill-rule:evenodd;stroke:none;stroke-width:0.52914065;stroke-linecap:round;stroke-linejoin:round;stroke-miterlimit:4;stroke-dasharray:none;stroke-opacity:1;enable-background:new"
     sodipodi:nodetypes="ccccccccccccc" />
  <path
     id="path25"
     d="m 18,26 h 16 c 1.108,0 2,0.892 2,2 v 16 c 0,1.108 -0.892,2 -2,2 H 18 c -1.108,0 -2,-0.892 -2,-2 V 28 c 0,-1.108 0.892,-2 2,-2 z"
     inkscape:connector-curvature="0"
     style="display:inline;opacity:0.5;fill:#000000;stroke:#000000;stroke-linejoin:round;stroke-opacity:0.294;filter:url(#filter1136);enable-background:new"
     transform="matrix(0.90007802,0,0,0.90007802,4.4658401,6.1151841)" />
  <path
     id="path27"
     d="m 20.667245,29.517212 h 14.401248 c 0.997287,0 1.800158,0.802871 1.800158,1.800158 v 14.401247 c 0,0.997287 -0.802871,1.800155 -1.800158,1.800155 H 20.667245 c -0.997287,0 -1.800156,-0.802868 -1.800156,-1.800155 V 31.31737 c 0,-0.997287 0.802869,-1.800158 1.800156,-1.800158 z"
     inkscape:connector-curvature="0"
     style="display:inline;fill:#dedede;fill-opacity:1;stroke-width:0.90007806;enable-background:new" />
  <path
     id="path31"
     d="m 30,14 c -1.108,0 -2,0.892 -2,2 v 16 c 0,1.108 0.892,2 2,2 h 16 c 1.108,0 2,-0.892 2,-2 V 16 c 0,-1.108 -0.892,-2 -2,-2 z"
     inkscape:connector-curvature="0"
     style="color:#000000;display:inline;opacity:0.15;fill:#074271;stroke:#0b5fa1;stroke-linejoin:round;filter:url(#b-3);enable-background:new"
     transform="matrix(0.90007802,0,0,0.90007802,4.4658401,6.1151841)" />
  <path
     id="path33"
     d="m 31.293148,18.322745 c -0.996372,0 -1.798504,0.800655 -1.798504,1.795194 v 14.361565 c 0,0.994538 0.802132,1.795194 1.798504,1.795194 h 14.388019 c 0.99637,0 1.798502,-0.800656 1.798502,-1.795194 V 20.117939 c 0,-0.994539 -0.802132,-1.795194 -1.798502,-1.795194 z"
     inkscape:connector-curvature="0"
     style="color:#000000;display:inline;fill:#44a5f3;stroke-width:0.89842403;enable-background:new" />
  <path
     sodipodi:nodetypes="cccccccccccccccccccccc"
     inkscape:connector-curvature="0"
     id="rect36292"
     d="m 37.873203,21.177342 v 1.965879 h -5.242345 v 1.310586 h 2.168419 c 0.779945,2.01329 1.737877,3.720653 2.866429,5.114036 -1.313023,1.359963 -2.832784,2.274003 -4.562095,2.775401 l 0.365083,1.258749 c 1.921731,-0.557185 3.611499,-1.584586 5.059802,-3.063687 1.448303,1.479101 3.138074,2.506502 5.059801,3.063687 l 0.365083,-1.258749 c -1.72931,-0.501398 -3.249068,-1.415438 -4.562091,-2.775401 1.128551,-1.393383 2.086483,-3.100749 2.866426,-5.114036 h 2.168418 v -1.310586 h -5.242344 v -1.965879 z m -1.663669,3.276465 h 4.637926 c -0.665334,1.61985 -1.438218,2.988039 -2.318964,4.118781 -0.880747,-1.130742 -1.653628,-2.498931 -2.318962,-4.118781 z"
     style="display:inline;opacity:1;fill:#ffffff;fill-opacity:1;stroke:none;stroke-width:0.65529293;stroke-linecap:round;stroke-linejoin:miter;stroke-miterlimit:4;stroke-dasharray:none;stroke-dashoffset:0;stroke-opacity:1;marker:none;enable-background:new" />
  <path
     d="M 31.738206,44.741207 C 31.535241,44.192277 31.344213,43.655546 31.165128,43.131014 30.98604,42.594283 30.800984,42.095427 30.609959,41.5465 h -5.623328 l -1.12825,3.194707 h -1.808775 c 0.477563,-1.341829 0.925282,-2.57997 1.34315,-3.714424 0.41787,-1.146653 0.8238,-2.232315 1.217791,-3.256985 0.40593,-1.024668 0.805891,-2.00054 1.199884,-2.927621 0.39399,-0.93928 0.805889,-1.866361 1.235697,-2.781248 h 1.593875 c 0.429807,0.914887 0.841706,1.841968 1.235699,2.781248 0.39399,0.927081 0.787983,1.902953 1.181973,2.927621 0.405928,1.02467 0.817829,2.110332 1.2357,3.256985 0.417867,1.134454 0.865584,2.372595 1.343152,3.714424 z m -1.62969,-4.649434 c -0.382055,-1.061266 -0.764108,-2.138998 -1.146158,-3.127068 -0.370113,-1.000274 -0.758132,-1.957852 -1.164065,-2.872733 -0.417867,0.914881 -0.817829,1.872459 -1.199882,2.872733 -0.370112,0.98807 -0.740225,2.065802 -1.110338,3.127068 z"
     style="font-style:normal;font-variant:normal;font-weight:normal;font-stretch:normal;font-size:medium;line-height:125%;font-family:Ubuntu;-inkscape-font-specification:Ubuntu;text-align:center;letter-spacing:0px;word-spacing:0px;text-anchor:middle;display:inline;fill:#77767b;fill-opacity:1;stroke:none;stroke-width:0.01931896px;stroke-linecap:butt;stroke-linejoin:miter;stroke-opacity:1;enable-background:new"
     id="path36316"
     inkscape:connector-curvature="0"
     sodipodi:nodetypes="cccccccccccccccccccccc" />
  <path
     style="color:#000000;display:inline;overflow:visible;visibility:visible;opacity:0.1;fill:#ffffff;fill-opacity:1;fill-rule:nonzero;stroke:none;stroke-width:0.26457033;marker:none;enable-background:accumulate"
     d="M 33.688674,3.4856497 V 62.7494 h 12.984614 c 9.338464,0 10.054627,-0.962123 10.297574,-10.316435 V 33.117525 13.802083 c 0,-9.3574636 -0.95911,-10.3164333 -10.297574,-10.3164333 z"
     id="path4231"
     inkscape:connector-curvature="0"
     sodipodi:nodetypes="ccsscssc" />
  <path
     inkscape:connector-curvature="0"
     style="color:#000000;display:inline;overflow:visible;visibility:visible;opacity:0.2;fill:#ffffff;fill-opacity:1;fill-rule:nonzero;stroke:none;stroke-width:0.26457033;marker:none;enable-background:accumulate"
     d="m 10.406486,33.117525 v 19.31544 C 10.360716,61.790319 11.365594,62.7494 20.70406,62.7494 h 25.969228 c 9.338464,0 10.054627,-0.962123 10.297574,-10.316435 v -19.31544 z"
     id="path4255"
     sodipodi:nodetypes="ccssscc" />
  <path
     style="color:#000000;display:inline;overflow:visible;visibility:visible;opacity:0.4;fill:#ffffff;fill-opacity:1;fill-rule:nonzero;stroke:none;stroke-width:2.11656237;stroke-linecap:butt;stroke-linejoin:miter;stroke-miterlimit:4;stroke-dasharray:none;stroke-dashoffset:0;stroke-opacity:1;marker:none;enable-background:accumulate"
     d="M 41.096643,62.7494 56.970862,46.875181 v 5.948567 C 56.957022,61.81803 55.964785,62.7494 46.871128,62.7494 Z"
     id="path4254"
     inkscape:connector-curvature="0"
     sodipodi:nodetypes="cccsc" />
</svg>
