<?xml version="1.0" encoding="UTF-8" standalone="no"?>
<svg
   xmlns:dc="http://purl.org/dc/elements/1.1/"
   xmlns:cc="http://creativecommons.org/ns#"
   xmlns:rdf="http://www.w3.org/1999/02/22-rdf-syntax-ns#"
   xmlns:svg="http://www.w3.org/2000/svg"
   xmlns="http://www.w3.org/2000/svg"
   xmlns:xlink="http://www.w3.org/1999/xlink"
   xmlns:sodipodi="http://sodipodi.sourceforge.net/DTD/sodipodi-0.dtd"
   xmlns:inkscape="http://www.inkscape.org/namespaces/inkscape"
   height="256"
   viewBox="0 0 67.73 67.73"
   width="256"
   version="1.1"
   id="svg42"
   sodipodi:docname="text-dockerfile.svg"
   inkscape:version="0.92.5 (2060ec1f9f, 2020-04-08)">
  <metadata
     id="metadata48">
    <rdf:RDF>
      <cc:Work
         rdf:about="">
        <dc:format>image/svg+xml</dc:format>
        <dc:type
           rdf:resource="http://purl.org/dc/dcmitype/StillImage" />
        <dc:title />
      </cc:Work>
    </rdf:RDF>
  </metadata>
  <defs
     id="defs46">
    <radialGradient
       inkscape:collect="always"
       xlink:href="#linearGradient1750"
       id="radialGradient1752"
       cx="179.99261"
       cy="103.2822"
       fx="179.99261"
       fy="103.2822"
       r="35.068905"
       gradientTransform="matrix(1.3687341,-2.0954866e-7,2.0316901e-7,1.3528551,-121.02851,-70.900578)"
       gradientUnits="userSpaceOnUse" />
    <linearGradient
       inkscape:collect="always"
       id="linearGradient1750">
      <stop
         style="stop-color:#000000;stop-opacity:1;"
         offset="0"
         id="stop1746" />
      <stop
         style="stop-color:#000000;stop-opacity:0;"
         offset="1"
         id="stop1748" />
    </linearGradient>
    <filter
       inkscape:collect="always"
       style="color-interpolation-filters:sRGB"
       id="filter2553"
       x="-0.071999997"
       width="1.1440001"
       y="-0.071999997"
       height="1.1440001">
      <feGaussianBlur
         inkscape:collect="always"
         stdDeviation="1.98"
         id="feGaussianBlur2555" />
    </filter>
    <linearGradient
       gradientUnits="userSpaceOnUse"
       y2="119.09284"
       x2="-35.310345"
       y1="401.58368"
       x1="529.65515"
       id="linearGradient4226"
       xlink:href="#linearGradient4338"
       inkscape:collect="always"
       gradientTransform="matrix(0,-0.11988342,0.11987999,0,0.36276168,62.749399)" />
    <linearGradient
       inkscape:collect="always"
       id="linearGradient4338">
      <stop
         style="stop-color:#f2f2f2;stop-opacity:1"
         offset="0"
         id="stop4340" />
      <stop
         style="stop-color:#f9f9f9;stop-opacity:1"
         offset="1"
         id="stop4342" />
    </linearGradient>
    <linearGradient
       inkscape:collect="always"
       xlink:href="#linearGradient4360"
       id="linearGradient4358"
       x1="88"
       y1="88"
       x2="488"
       y2="488"
       gradientUnits="userSpaceOnUse" />
    <linearGradient
       id="linearGradient4360"
       inkscape:collect="always">
      <stop
         id="stop4362"
         offset="0"
         style="stop-color:#000000;stop-opacity:0.58823532" />
      <stop
         style="stop-color:#000000;stop-opacity:0"
         offset="0.88"
         id="stop4364" />
      <stop
         id="stop4366"
         offset="1"
         style="stop-color:#000000;stop-opacity:1" />
    </linearGradient>
    <filter
       inkscape:collect="always"
       style="color-interpolation-filters:sRGB"
       id="filter4380"
       x="-0.052999184"
       width="1.1059984"
       y="-0.043862626"
       height="1.0877253">
      <feGaussianBlur
         inkscape:collect="always"
         stdDeviation="8.4801079"
         id="feGaussianBlur4382" />
    </filter>
    <filter
       inkscape:collect="always"
       style="color-interpolation-filters:sRGB"
       id="filter4346"
       x="-0.013249796"
       width="1.0264996"
       y="-0.010965657"
       height="1.0219313">
      <feGaussianBlur
         inkscape:collect="always"
         stdDeviation="2.120027"
         id="feGaussianBlur4348" />
    </filter>
  </defs>
  <sodipodi:namedview
     pagecolor="#ffffff"
     bordercolor="#666666"
     borderopacity="1"
     objecttolerance="10"
     gridtolerance="10"
     guidetolerance="10"
     inkscape:pageopacity="0"
     inkscape:pageshadow="2"
     inkscape:window-width="1920"
     inkscape:window-height="1024"
     id="namedview44"
     showgrid="false"
     inkscape:zoom="0.921875"
     inkscape:cx="287.89314"
     inkscape:cy="128"
     inkscape:window-x="0"
     inkscape:window-y="28"
     inkscape:window-maximized="1"
     inkscape:current-layer="svg42" />
  <linearGradient
     id="a"
     gradientTransform="matrix(0 -.11988342 .11987999 0 .362762 292.01605)"
     gradientUnits="userSpaceOnUse"
     x1="529.65515"
     x2="-35.310345"
     y1="401.58368"
     y2="119.09284">
    <stop
       offset="0"
       stop-color="#f2f2f2"
       id="stop2" />
    <stop
       offset="1"
       stop-color="#f9f9f9"
       id="stop4" />
  </linearGradient>
  <linearGradient
     id="b"
     gradientUnits="userSpaceOnUse"
     x1="88"
     x2="488"
     y1="88"
     y2="488">
    <stop
       offset="0"
       stop-opacity=".588235"
       id="stop7" />
    <stop
       offset=".88"
       stop-opacity="0"
       id="stop9" />
    <stop
       offset="1"
       id="stop11" />
  </linearGradient>
  <filter
     id="c"
     color-interpolation-filters="sRGB"
     height="1.087725"
     width="1.105998"
     x="-.052999"
     y="-.043863">
    <feGaussianBlur
       stdDeviation="8.4801079"
       id="feGaussianBlur14" />
  </filter>
  <filter
     id="d"
     color-interpolation-filters="sRGB"
     height="1.021931"
     width="1.0265"
     x="-.01325"
     y="-.010966">
    <feGaussianBlur
       stdDeviation="2.120027"
       id="feGaussianBlur17" />
  </filter>
  <path
     sodipodi:nodetypes="scccssscccs"
     inkscape:connector-curvature="0"
     id="path1163"
     d="m 20.70399,3.4856494 c -9.338464,0 -10.343273,0.959178 -10.297504,10.3165306 V 33.117525 52.432869 C 10.360716,61.790224 11.365526,62.7494 20.70399,62.7494 h 25.969365 c 9.338465,0 10.297506,-0.959068 10.297506,-10.316531 V 33.117525 20.418149 L 40.038361,3.4856494 Z"
     style="color:#000000;display:inline;overflow:visible;visibility:visible;opacity:0.2;fill:none;fill-opacity:1;fill-rule:nonzero;stroke:#000000;stroke-width:1.0582813;stroke-miterlimit:4;stroke-dasharray:none;stroke-opacity:1;marker:none;enable-background:accumulate" />
  <path
     style="color:#000000;display:inline;overflow:visible;visibility:visible;opacity:0.1;fill:#000000;fill-opacity:1;fill-rule:nonzero;stroke:none;stroke-width:2;marker:none;filter:url(#filter4346);enable-background:accumulate"
     d="M 189.84323,74 C 119.24979,74 111.65402,81.250835 112,151.98706 V 298 444.01294 C 111.65402,514.74917 119.24979,522 189.84323,522 H 386.15677 C 456.75021,522 462.16345,514.72616 464,444.01294 V 298 200 L 336,74 Z"
     id="rect4158-9"
     inkscape:connector-curvature="0"
     sodipodi:nodetypes="scccssscccs"
     transform="matrix(0.13228516,0,0,0.13228516,-4.4094514,-6.0388816)" />
  <path
     sodipodi:nodetypes="scccssscccs"
     inkscape:connector-curvature="0"
     id="path4350"
     d="M 189.84323,74 C 119.24979,74 111.65402,81.250835 112,151.98706 V 298 444.01294 C 111.65402,514.74917 119.24979,522 189.84323,522 H 386.15677 C 456.75021,522 464,514.75001 464,444.01294 V 298 202 L 336,74 Z"
     style="color:#000000;display:inline;overflow:visible;visibility:visible;opacity:0.3;fill:url(#linearGradient4358);fill-opacity:1;fill-rule:nonzero;stroke:none;stroke-width:2;marker:none;filter:url(#filter4380);enable-background:accumulate"
     transform="matrix(0.13228516,0,0,0.13228516,-4.4094514,-6.0388816)" />
  <path
     style="color:#000000;display:inline;overflow:visible;visibility:visible;fill:url(#linearGradient4226);fill-opacity:1;fill-rule:nonzero;stroke:none;stroke-width:0.26457033;marker:none;enable-background:accumulate"
     d="m 20.70399,3.4856494 c -9.338464,0 -10.343273,0.959178 -10.297504,10.3165306 V 33.117525 52.432869 C 10.360716,61.790224 11.365526,62.7494 20.70399,62.7494 h 25.969365 c 9.338465,0 10.297506,-0.959068 10.297506,-10.316531 V 33.117525 20.418149 L 40.038361,3.4856494 Z"
     id="rect4158"
     inkscape:connector-curvature="0"
     sodipodi:nodetypes="scccssscccs" />
  <path
     style="color:#000000;display:inline;overflow:visible;visibility:visible;opacity:0.6;fill:#ffffff;fill-opacity:1;fill-rule:nonzero;stroke:none;stroke-width:0.26457033;marker:none;enable-background:accumulate"
     d="m 20.704059,3.4856494 c -9.338466,0 -10.343342,0.95934 -10.297573,10.3166916 v 0.529141 C 10.360716,4.9741294 11.365593,4.0147904 20.704059,4.0147904 h 19.334302 v -0.529141 z"
     id="path931"
     inkscape:connector-curvature="0"
     sodipodi:nodetypes="sccsccs" />
  <g
     style="display:inline;enable-background:new"
     transform="matrix(0.26457031,0,0,0.26457031,-4.6736354,0.84001644)"
     id="g1095">
    <path
       inkscape:connector-curvature="0"
       class="st0"
       d="m 205.4567,140.22737 c -0.31728,-0.26441 -3.17284,-2.43251 -9.30699,-2.43251 -1.58641,0 -3.22572,0.15864 -4.81214,0.42304 -1.16337,-8.09073 -7.8792,-12.0039 -8.1436,-12.21542 l -1.6393,-0.95186 -1.05761,1.53354 c -1.32202,2.06235 -2.32676,4.3891 -2.90844,6.76872 -1.11049,4.60062 -0.42304,8.93683 1.9037,12.63847 -2.80267,1.58642 -7.3504,1.95658 -8.30226,2.00946 H 96.09944 c -1.956583,0 -3.543001,1.58642 -3.543001,3.54301 -0.105761,6.55719 1.004732,13.11439 3.278598,19.30142 2.591159,6.76872 6.451583,11.79238 11.422363,14.85946 5.60535,3.43724 14.75369,5.39382 25.06541,5.39382 4.6535,0 9.30699,-0.42304 13.90761,-1.26914 6.39855,-1.16337 12.5327,-3.38436 18.19092,-6.61007 4.6535,-2.69691 8.83107,-6.13416 12.37407,-10.15308 5.97551,-6.71584 9.51852,-14.22489 12.10966,-20.88785 0.37017,0 0.68745,0 1.05761,0 6.50431,0 10.52324,-2.59115 12.74423,-4.81214 1.48065,-1.37489 2.59115,-3.06707 3.38436,-4.97077 l 0.47592,-1.3749 z"
       id="path20"
       style="fill:#0091e2;fill-opacity:1;stroke-width:0.52880597" />
    <path
       inkscape:connector-curvature="0"
       class="st0"
       d="m 102.93544,146.00065 h 10.17985 c 0.4822,0 0.91083,-0.37701 0.91083,-0.91557 v 0 -9.15572 c 0,-0.48472 -0.37505,-0.91557 -0.91083,-0.91557 0,0 0,0 0,0 h -10.17985 c -0.48221,0 -0.91083,0.37699 -0.91083,0.91557 0,0 0,0 0,0 v 9.15572 c 0.0536,0.53856 0.42862,0.91557 0.91083,0.91557 v 0"
       id="path22"
       style="fill:#0091e2;fill-opacity:1;stroke-width:0.537175" />
    <path
       inkscape:connector-curvature="0"
       class="st0"
       d="m 116.91037,146.00065 h 10.1699 c 0.48173,0 0.90994,-0.37741 0.90994,-0.91655 v 0 -9.16548 c 0,-0.48524 -0.37467,-0.91655 -0.90994,-0.91655 0,0 0,0 0,0 h -10.1699 c -0.48174,0 -0.90995,0.37739 -0.90995,0.91655 v 9.16548 c 0.0536,0.53914 0.42821,0.91655 0.90995,0.91655"
       id="path24"
       style="fill:#0091e2;fill-opacity:1;stroke-width:0.53719902" />
    <path
       inkscape:connector-curvature="0"
       class="st0"
       d="m 130.90928,146.00065 h 10.17986 c 0.4822,0 0.91083,-0.37701 0.91083,-0.91557 v 0 -9.15572 c 0,-0.48472 -0.37505,-0.91557 -0.91083,-0.91557 0,0 0,0 0,0 h -10.17986 c -0.4822,0 -0.91083,0.37699 -0.91083,0.91557 0,0 0,0 0,0 v 9.15572 c 0,0.53856 0.37505,0.91557 0.91083,0.91557 v 0"
       id="path26"
       style="fill:#0091e2;fill-opacity:1;stroke-width:0.537175" />
    <path
       inkscape:connector-curvature="0"
       class="st0"
       d="m 144.8962,146.00065 h 10.19311 c 0.48282,0 0.91201,-0.37701 0.91201,-0.91557 v -9.15572 c 0,-0.48472 -0.37555,-0.91557 -0.91201,-0.91557 v 0 H 144.8962 c -0.48283,0 -0.91201,0.37699 -0.91201,0.91557 0,0 0,0 0,0 v 9.15572 c 0,0.53856 0.42918,0.91557 0.91201,0.91557 v 0"
       id="path28"
       style="fill:#0091e2;fill-opacity:1;stroke-width:0.53752398" />
    <path
       inkscape:connector-curvature="0"
       class="st0"
       d="m 116.91097,133.02956 h 10.17653 c 0.48203,0 0.91053,-0.43254 0.91053,-0.91915 v -9.19152 c 0,-0.48662 -0.37492,-0.91915 -0.91053,-0.91915 v 0 h -10.17653 c -0.48206,0 -0.91055,0.37846 -0.91055,0.91915 v 9.19152 c 0.0535,0.48661 0.42849,0.91915 0.91055,0.91915"
       id="path30"
       style="fill:#0091e2;fill-opacity:1;stroke-width:0.53813702" />
    <path
       inkscape:connector-curvature="0"
       class="st0"
       d="m 130.90928,133.01394 h 10.17986 c 0.4822,0 0.91083,-0.43192 0.91083,-0.91786 v -9.17849 c 0,-0.48593 -0.37505,-0.91785 -0.91083,-0.91785 v 0 h -10.17986 c -0.4822,0 -0.91083,0.37791 -0.91083,0.91785 v 0 9.17849 c 0,0.48594 0.37505,0.91786 0.91083,0.91786"
       id="path32"
       style="fill:#0091e2;fill-opacity:1;stroke-width:0.53784299" />
    <path
       inkscape:connector-curvature="0"
       class="st0"
       d="m 144.92507,132.99831 h 10.16661 c 0.48157,0 0.90964,-0.43116 0.90964,-0.91622 v -9.16223 c 0,-0.48506 -0.42807,-0.91621 -0.90964,-0.91621 h -10.16661 c -0.48157,0 -0.90963,0.37725 -0.90963,0.91621 v 0 9.16223 c 0,0.48506 0.42806,0.91622 0.90963,0.91622"
       id="path34"
       style="fill:#0091e2;fill-opacity:1;stroke-width:0.53701597" />
    <path
       inkscape:connector-curvature="0"
       class="st0"
       d="m 144.91425,119.99779 h 10.17653 c 0.48206,0 0.91054,-0.37754 0.91054,-0.91688 v -9.16874 c 0,-0.48541 -0.42848,-0.91688 -0.91054,-0.91688 h -10.17653 c -0.48205,0 -0.91053,0.37755 -0.91053,0.91688 v 0 9.16874 c 0,0.48541 0.42848,0.91688 0.91053,0.91688"
       id="path36"
       style="fill:#0091e2;fill-opacity:1;stroke-width:0.53746903" />
    <path
       inkscape:connector-curvature="0"
       class="st0"
       d="m 158.91559,146.00455 h 10.17324 c 0.48188,0 0.91022,-0.37714 0.91022,-0.91589 v -9.15897 c 0,-0.48489 -0.3748,-0.9159 -0.91022,-0.9159 v 0 h -10.17324 c -0.48188,0 -0.91023,0.37712 -0.91023,0.9159 0,0 0,0 0,0 v 9.15897 c 0.0536,0.53875 0.42835,0.91589 0.91023,0.91589"
       id="path38"
       style="fill:#0091e2;fill-opacity:1;stroke-width:0.53709501" />
  </g>
  <path
     style="color:#000000;display:inline;overflow:visible;visibility:visible;opacity:0.1;fill:#ffffff;fill-opacity:1;fill-rule:nonzero;stroke:none;stroke-width:0.26457033;marker:none;enable-background:accumulate"
     d="M 33.688673,3.4856494 V 62.7494 h 12.984614 c 9.338464,0 10.054627,-0.962123 10.297574,-10.316435 V 33.117525 20.418149 L 40.038361,3.4856494 Z"
     id="path4231"
     inkscape:connector-curvature="0"
     sodipodi:nodetypes="ccsscccc" />
  <path
     inkscape:connector-curvature="0"
     style="color:#000000;display:inline;overflow:visible;visibility:visible;opacity:0.2;fill:#ffffff;fill-opacity:1;fill-rule:nonzero;stroke:none;stroke-width:0.26457033;marker:none;enable-background:accumulate"
     d="m 10.406486,33.117525 v 19.31544 C 10.360716,61.790319 11.365594,62.7494 20.704059,62.7494 h 25.969228 c 9.338464,0 10.054627,-0.962123 10.297574,-10.316435 v -19.31544 z"
     id="path4255"
     sodipodi:nodetypes="ccssscc" />
  <path
     style="color:#000000;display:inline;overflow:visible;visibility:visible;opacity:0.4;fill:#ffffff;fill-opacity:1;fill-rule:nonzero;stroke:none;stroke-width:2.11656237;stroke-linecap:butt;stroke-linejoin:miter;stroke-miterlimit:4;stroke-dasharray:none;stroke-dashoffset:0;stroke-opacity:1;marker:none;enable-background:accumulate"
     d="M 41.096642,62.7494 56.970861,46.875181 v 5.948567 C 56.957021,61.81803 55.964784,62.7494 46.871127,62.7494 Z"
     id="path4254"
     inkscape:connector-curvature="0"
     sodipodi:nodetypes="cccsc" />
  <path
     inkscape:connector-curvature="0"
     style="color:#000000;display:inline;overflow:visible;visibility:visible;opacity:0.2;fill:url(#radialGradient1752);fill-opacity:1;fill-rule:nonzero;stroke:none;stroke-width:1;marker:none;filter:url(#filter2553);enable-background:accumulate"
     d="m 185.33354,74.825228 -66,-65.9999998 0.003,24.9985698 v 1 0.53711 c 0,35.29429 3.62603,39.63197 38.99414,39.45899 z"
     id="rect4158-0-3-6"
     sodipodi:nodetypes="ccccscc"
     transform="matrix(0.26457031,0,0,0.26457031,7.9371086,1.1507564)" />
  <path
     inkscape:connector-curvature="0"
     style="color:#000000;display:inline;overflow:visible;visibility:visible;opacity:0.15;fill:#000000;fill-opacity:1;fill-rule:nonzero;stroke:none;stroke-width:0.26457033;marker:none;enable-background:accumulate"
     d="M 56.970861,20.94729 V 20.418149 L 40.038361,3.4856494 H 39.50922 v 6.6140176 0.264571 0.142103 c 0,9.118097 1.587422,10.440949 10.316692,10.439679 z"
     id="rect4158-0-3-2"
     sodipodi:nodetypes="ccccccscc" />
  <path
     inkscape:connector-curvature="0"
     style="color:#000000;display:inline;overflow:visible;visibility:visible;fill:#faf8f6;fill-opacity:1;fill-rule:nonzero;stroke:none;stroke-width:0.26457033;marker:none;enable-background:accumulate"
     d="M 56.970085,20.416739 40.039136,3.4857884 v 6.084601 0.26457 0.142104 c 0,9.3378196 0.95934,10.4854416 10.316692,10.4396756 z"
     id="rect4158-0-3" />
</svg>
