<?xml version="1.0" encoding="UTF-8" standalone="no"?>
<svg
   xmlns:dc="http://purl.org/dc/elements/1.1/"
   xmlns:cc="http://creativecommons.org/ns#"
   xmlns:rdf="http://www.w3.org/1999/02/22-rdf-syntax-ns#"
   xmlns:svg="http://www.w3.org/2000/svg"
   xmlns="http://www.w3.org/2000/svg"
   xmlns:xlink="http://www.w3.org/1999/xlink"
   xmlns:sodipodi="http://sodipodi.sourceforge.net/DTD/sodipodi-0.dtd"
   xmlns:inkscape="http://www.inkscape.org/namespaces/inkscape"
   height="256"
   viewBox="0 0 67.73 67.73"
   width="256"
   version="1.1"
   id="svg39"
   sodipodi:docname="text-less.svg"
   inkscape:version="0.92.5 (2060ec1f9f, 2020-04-08)">
  <metadata
     id="metadata45">
    <rdf:RDF>
      <cc:Work
         rdf:about="">
        <dc:format>image/svg+xml</dc:format>
        <dc:type
           rdf:resource="http://purl.org/dc/dcmitype/StillImage" />
      </cc:Work>
    </rdf:RDF>
  </metadata>
  <defs
     id="defs43">
    <radialGradient
       inkscape:collect="always"
       xlink:href="#linearGradient1750"
       id="radialGradient1752"
       cx="179.99261"
       cy="103.2822"
       fx="179.99261"
       fy="103.2822"
       r="35.068905"
       gradientTransform="matrix(1.3687341,-2.0954866e-7,2.0316901e-7,1.3528551,-121.02851,-70.900578)"
       gradientUnits="userSpaceOnUse" />
    <linearGradient
       inkscape:collect="always"
       id="linearGradient1750">
      <stop
         style="stop-color:#000000;stop-opacity:1;"
         offset="0"
         id="stop1746" />
      <stop
         style="stop-color:#000000;stop-opacity:0;"
         offset="1"
         id="stop1748" />
    </linearGradient>
    <filter
       inkscape:collect="always"
       style="color-interpolation-filters:sRGB"
       id="filter2553"
       x="-0.071999997"
       width="1.1440001"
       y="-0.071999997"
       height="1.1440001">
      <feGaussianBlur
         inkscape:collect="always"
         stdDeviation="1.98"
         id="feGaussianBlur2555" />
    </filter>
    <linearGradient
       gradientUnits="userSpaceOnUse"
       y2="119.09284"
       x2="-35.310345"
       y1="401.58368"
       x1="529.65515"
       id="linearGradient4226"
       xlink:href="#linearGradient4338"
       inkscape:collect="always"
       gradientTransform="matrix(0,-0.11988342,0.11987999,0,0.36276168,62.749399)" />
    <linearGradient
       inkscape:collect="always"
       id="linearGradient4338">
      <stop
         style="stop-color:#f2f2f2;stop-opacity:1"
         offset="0"
         id="stop4340" />
      <stop
         style="stop-color:#f9f9f9;stop-opacity:1"
         offset="1"
         id="stop4342" />
    </linearGradient>
    <linearGradient
       inkscape:collect="always"
       xlink:href="#linearGradient4360"
       id="linearGradient4358"
       x1="88"
       y1="88"
       x2="488"
       y2="488"
       gradientUnits="userSpaceOnUse" />
    <linearGradient
       id="linearGradient4360"
       inkscape:collect="always">
      <stop
         id="stop4362"
         offset="0"
         style="stop-color:#000000;stop-opacity:0.58823532" />
      <stop
         style="stop-color:#000000;stop-opacity:0"
         offset="0.88"
         id="stop4364" />
      <stop
         id="stop4366"
         offset="1"
         style="stop-color:#000000;stop-opacity:1" />
    </linearGradient>
    <filter
       inkscape:collect="always"
       style="color-interpolation-filters:sRGB"
       id="filter4380"
       x="-0.052999184"
       width="1.1059984"
       y="-0.043862626"
       height="1.0877253">
      <feGaussianBlur
         inkscape:collect="always"
         stdDeviation="8.4801079"
         id="feGaussianBlur4382" />
    </filter>
    <filter
       inkscape:collect="always"
       style="color-interpolation-filters:sRGB"
       id="filter4346"
       x="-0.013249796"
       width="1.0264996"
       y="-0.010965657"
       height="1.0219313">
      <feGaussianBlur
         inkscape:collect="always"
         stdDeviation="2.120027"
         id="feGaussianBlur4348" />
    </filter>
  </defs>
  <sodipodi:namedview
     pagecolor="#ffffff"
     bordercolor="#666666"
     borderopacity="1"
     objecttolerance="10"
     gridtolerance="10"
     guidetolerance="10"
     inkscape:pageopacity="0"
     inkscape:pageshadow="2"
     inkscape:window-width="834"
     inkscape:window-height="480"
     id="namedview41"
     showgrid="false"
     inkscape:zoom="0.921875"
     inkscape:cx="128"
     inkscape:cy="128"
     inkscape:window-x="0"
     inkscape:window-y="28"
     inkscape:window-maximized="0"
     inkscape:current-layer="svg39" />
  <linearGradient
     id="a"
     gradientTransform="matrix(0 -.11988932 .11988589 0 .36278 292.54831)"
     gradientUnits="userSpaceOnUse"
     x1="529.655"
     x2="-35.31"
     y1="401.584"
     y2="119.093">
    <stop
       offset="0"
       stop-color="#f2f2f2"
       id="stop2" />
    <stop
       offset="1"
       stop-color="#f9f9f9"
       id="stop4" />
  </linearGradient>
  <linearGradient
     id="b"
     gradientUnits="userSpaceOnUse"
     x1="88"
     x2="488"
     y1="88"
     y2="488">
    <stop
       offset="0"
       stop-opacity=".588235"
       id="stop7" />
    <stop
       offset=".88"
       stop-opacity="0"
       id="stop9" />
    <stop
       offset="1"
       id="stop11" />
  </linearGradient>
  <filter
     id="c"
     color-interpolation-filters="sRGB"
     height="1.022"
     width="1.026"
     x="-.01"
     y="-.01">
    <feGaussianBlur
       stdDeviation="2.12"
       id="feGaussianBlur14" />
  </filter>
  <path
     sodipodi:nodetypes="scccssscccs"
     inkscape:connector-curvature="0"
     id="path1163"
     d="m 20.70399,3.4856498 c -9.338464,0 -10.343272,0.9591779 -10.297504,10.3165302 V 33.117525 52.432869 C 10.360716,61.790224 11.365526,62.7494 20.70399,62.7494 h 25.969365 c 9.338465,0 10.297506,-0.959068 10.297506,-10.316531 V 33.117525 20.418149 L 40.038361,3.4856498 Z"
     style="color:#000000;display:inline;overflow:visible;visibility:visible;opacity:0.2;fill:none;fill-opacity:1;fill-rule:nonzero;stroke:#000000;stroke-width:1.0582813;stroke-miterlimit:4;stroke-dasharray:none;stroke-opacity:1;marker:none;enable-background:accumulate" />
  <path
     style="color:#000000;display:inline;overflow:visible;visibility:visible;opacity:0.1;fill:#000000;fill-opacity:1;fill-rule:nonzero;stroke:none;stroke-width:2;marker:none;filter:url(#filter4346);enable-background:accumulate"
     d="M 189.84323,74 C 119.24979,74 111.65402,81.250835 112,151.98706 V 298 444.01294 C 111.65402,514.74917 119.24979,522 189.84323,522 H 386.15677 C 456.75021,522 462.16345,514.72616 464,444.01294 V 298 200 L 336,74 Z"
     id="rect4158-9"
     inkscape:connector-curvature="0"
     sodipodi:nodetypes="scccssscccs"
     transform="matrix(0.13228516,0,0,0.13228516,-4.4094514,-6.0388816)" />
  <path
     sodipodi:nodetypes="scccssscccs"
     inkscape:connector-curvature="0"
     id="path4350"
     d="M 189.84323,74 C 119.24979,74 111.65402,81.250835 112,151.98706 V 298 444.01294 C 111.65402,514.74917 119.24979,522 189.84323,522 H 386.15677 C 456.75021,522 464,514.75001 464,444.01294 V 298 202 L 336,74 Z"
     style="color:#000000;display:inline;overflow:visible;visibility:visible;opacity:0.3;fill:url(#linearGradient4358);fill-opacity:1;fill-rule:nonzero;stroke:none;stroke-width:2;marker:none;filter:url(#filter4380);enable-background:accumulate"
     transform="matrix(0.13228516,0,0,0.13228516,-4.4094514,-6.0388816)" />
  <path
     style="color:#000000;display:inline;overflow:visible;visibility:visible;fill:url(#linearGradient4226);fill-opacity:1;fill-rule:nonzero;stroke:none;stroke-width:0.26457033;marker:none;enable-background:accumulate"
     d="m 20.70399,3.4856498 c -9.338464,0 -10.343272,0.9591779 -10.297504,10.3165302 V 33.117525 52.432869 C 10.360716,61.790224 11.365526,62.7494 20.70399,62.7494 h 25.969365 c 9.338465,0 10.297506,-0.959068 10.297506,-10.316531 V 33.117525 20.418149 L 40.038361,3.4856498 Z"
     id="rect4158"
     inkscape:connector-curvature="0"
     sodipodi:nodetypes="scccssscccs" />
  <path
     style="color:#000000;display:inline;overflow:visible;visibility:visible;opacity:0.6;fill:#ffffff;fill-opacity:1;fill-rule:nonzero;stroke:none;stroke-width:0.26457033;marker:none;enable-background:accumulate"
     d="m 20.704059,3.4856498 c -9.338466,0 -10.343341,0.9593396 -10.297573,10.3166912 v 0.529141 C 10.360718,4.9741301 11.365593,4.0147904 20.704059,4.0147904 H 40.038361 V 3.4856498 Z"
     id="path931"
     inkscape:connector-curvature="0"
     sodipodi:nodetypes="sccsccs" />
  <path
     style="display:inline;fill:#234db8;stroke-width:0.07494755;enable-background:new"
     d="m 18.606167,48.349044 c -0.936671,-0.206561 -1.459565,-0.5757 -1.758347,-1.241321 -0.140238,-0.312418 -0.158057,-0.532718 -0.195706,-2.419647 -0.03934,-1.971475 -0.05007,-2.093751 -0.213318,-2.429967 -0.213397,-0.439512 -0.627178,-0.66572 -1.321093,-0.722227 l -0.478886,-0.039 v -0.922851 -0.922845 l 0.50227,-0.05147 c 0.68974,-0.07068 1.098493,-0.282889 1.30134,-0.675607 0.142016,-0.274947 0.16428,-0.454691 0.183685,-1.48294 0.05338,-2.828448 0.07099,-3.125364 0.203718,-3.434732 0.173142,-0.403551 0.451003,-0.692933 0.877166,-0.913532 0.697478,-0.361038 1.095471,-0.422228 3.01195,-0.463069 l 1.801539,-0.03839 0.02151,5.199066 c 0.02079,5.026693 0.02646,5.208915 0.170338,5.496149 0.26539,0.529783 0.448589,0.608779 1.411853,0.608779 h 0.842574 l 0.04475,0.331363 c 0.0246,0.18225 0.04475,0.526929 0.04475,0.765961 v 0.434596 l -0.648594,0.0934 C 24.043165,45.57325 23.464645,45.5961 23.086883,45.57293 21.897428,45.49996 21.16878,45.090639 20.775068,44.27426 20.406278,43.509556 20.37382,43.046505 20.371,38.509791 l -0.0027,-4.17783 -0.390657,0.05257 c -0.559117,0.07524 -0.841389,0.231425 -0.998473,0.552465 -0.11676,0.238622 -0.140883,0.540166 -0.173174,2.164463 -0.03509,1.764859 -0.04842,1.90965 -0.2056,2.233254 -0.218035,0.448883 -0.405547,0.620801 -1.055626,0.967835 l -0.534535,0.285347 0.432659,0.160626 c 0.5558,0.206341 0.93282,0.526077 1.15148,0.976524 0.165097,0.340103 0.176029,0.458265 0.21131,2.28362 0.04021,2.080465 0.06546,2.217946 0.461976,2.515609 0.122756,0.09215 0.362745,0.164856 0.613887,0.185987 l 0.578498,0.03471 v 0.858772 0.858771 l -0.779959,-0.006 c -0.33764,-0.0033 -0.820917,-0.05165 -1.073955,-0.107455 z m 28.310937,-0.754671 v -0.868116 l 0.518092,-1.4e-4 c 0.486243,-1.54e-4 0.841366,-0.196809 1.022223,-0.566048 0.132291,-0.270084 0.151964,-0.505139 0.186393,-2.226912 0.03614,-1.807444 0.04865,-1.94428 0.204862,-2.241414 0.199729,-0.379904 0.50407,-0.626968 1.123974,-0.912437 l 0.462831,-0.213143 -0.42604,-0.179143 c -0.507123,-0.213233 -0.943394,-0.593616 -1.165028,-1.015775 -0.149709,-0.285151 -0.164017,-0.444687 -0.200158,-2.232109 -0.03551,-1.756416 -0.05216,-1.948144 -0.190101,-2.189168 -0.17804,-0.311074 -0.528551,-0.506642 -1.018956,-0.568496 l -0.518089,-0.04459 v -0.874286 -0.874285 l 0.905272,0.05176 c 1.639291,0.09373 2.455379,0.550322 2.807895,1.497272 0.09508,0.255416 0.129116,0.75928 0.164539,2.435711 0.04087,1.934004 0.05741,2.136141 0.194729,2.377892 0.193626,0.340894 0.714811,0.605377 1.298794,0.6591 l 0.448606,0.04126 v 0.92279 0.922787 l -0.477319,0.03887 c -0.617391,0.05028 -1.056617,0.29294 -1.265096,0.698939 -0.14236,0.277243 -0.158716,0.471861 -0.199859,2.377892 -0.04812,2.22937 -0.08658,2.470475 -0.476907,2.989631 -0.373605,0.496911 -1.471339,0.856517 -2.622124,0.858978 l -0.778528,0.0013 z M 28.627969,45.625637 c -0.102315,-0.01839 -0.386934,-0.06942 -0.632484,-0.113366 -0.611751,-0.10949 -1.564029,-0.589505 -1.986103,-1.001137 -0.764161,-0.745244 -1.183228,-1.669841 -1.330315,-2.935116 -0.166201,-1.429651 0.131806,-2.868641 0.799343,-3.859769 0.56176,-0.834074 1.417952,-1.415988 2.390515,-1.624729 0.504287,-0.108233 1.604513,-0.108863 2.113374,-0.0011 1.022498,0.21632 1.886244,0.886376 2.377231,1.844163 0.385031,0.751092 0.509832,1.347563 0.509832,2.436701 v 0.919913 h -3.046144 -3.046149 l 0.03698,0.283083 c 0.121033,0.926525 0.348664,1.412448 0.88675,1.89295 0.465003,0.415248 0.872473,0.541557 1.747042,0.541557 0.817633,0 1.633148,-0.180577 2.347945,-0.519902 l 0.451839,-0.214492 0.148934,0.777344 0.148927,0.777342 -0.494133,0.231063 c -0.271772,0.127083 -0.755369,0.29884 -1.074663,0.381687 -0.556058,0.144273 -1.958546,0.254096 -2.348718,0.183916 z m 2.213832,-6.184421 c -0.07731,-0.977003 -0.590405,-1.653176 -1.404906,-1.851403 -1.268781,-0.308782 -2.338706,0.534504 -2.564982,2.021656 l -0.04881,0.320826 h 2.028778 2.028778 z m 4.726245,6.155048 c -1.102901,-0.127306 -2.284364,-0.524566 -2.222384,-0.747266 0.01884,-0.06775 0.07484,-0.437398 0.124407,-0.821448 0.04956,-0.384048 0.103441,-0.69827 0.119723,-0.69827 0.01627,0 0.159785,0.06738 0.318895,0.149726 0.863952,0.447139 2.573097,0.724997 3.271984,0.531918 0.664402,-0.183545 1.030183,-0.817072 0.797687,-1.381578 -0.152713,-0.370785 -0.493149,-0.580015 -1.849487,-1.136702 -1.288021,-0.528646 -1.767976,-0.80985 -2.207088,-1.29313 -0.745157,-0.820118 -0.709535,-2.502288 0.06974,-3.29285 0.674055,-0.683819 1.553764,-0.931354 3.119237,-0.877696 1.070819,0.0367 1.64214,0.14723 2.444381,0.472872 l 0.292036,0.118546 -0.257263,0.730211 c -0.141495,0.40162 -0.263991,0.737045 -0.272217,0.745387 -0.0082,0.0083 -0.28232,-0.08081 -0.609101,-0.198131 -1.852006,-0.664865 -3.309275,-0.406716 -3.309275,0.586227 0,0.46794 0.429715,0.772688 1.835893,1.302011 1.542548,0.580647 2.247109,1.054863 2.613095,1.758776 0.183887,0.35368 0.201666,0.461083 0.201666,1.218249 0,0.754543 -0.01884,0.869264 -0.206156,1.256246 -0.347182,0.717207 -1.004468,1.227521 -1.878539,1.458488 -0.530916,0.140291 -1.705182,0.198293 -2.397229,0.118414 z m 7.143395,0 c -0.69805,-0.08057 -1.214703,-0.205825 -1.772771,-0.429763 l -0.450685,-0.180847 0.108569,-0.809312 c 0.05971,-0.445127 0.116961,-0.820176 0.127226,-0.833455 0.01027,-0.01328 0.153425,0.04561 0.31813,0.130851 0.868317,0.449402 2.579516,0.731328 3.274029,0.539409 0.462797,-0.127888 0.83025,-0.494556 0.881109,-0.879218 0.0894,-0.676175 -0.290707,-0.998168 -1.960056,-1.660406 -2.147152,-0.851784 -2.774192,-1.562105 -2.687622,-3.044582 0.07308,-1.251489 0.749917,-1.990278 2.122897,-2.317202 0.38556,-0.09181 0.754729,-0.111154 1.581884,-0.08292 1.079203,0.03685 1.487274,0.112324 2.323544,0.429742 l 0.423878,0.160893 -0.259554,0.727425 c -0.142756,0.400081 -0.267028,0.734297 -0.276158,0.742702 -0.0091,0.0084 -0.353948,-0.09942 -0.766257,-0.239613 -1.308961,-0.445084 -2.360575,-0.429882 -2.880766,0.04165 -0.201586,0.182728 -0.23892,0.269375 -0.23892,0.554531 0,0.565712 0.264459,0.754137 1.980687,1.411224 2.124997,0.813588 2.727056,1.504349 2.654569,3.045664 -0.04064,0.86401 -0.233504,1.345557 -0.726145,1.813045 -0.415005,0.39381 -0.807437,0.61038 -1.380361,0.761769 -0.530916,0.140291 -1.705182,0.198293 -2.397227,0.118413 z"
     id="path1076"
     inkscape:connector-curvature="0"
     sodipodi:nodetypes="ccscccccscsccccscsccsccccccccscccccsccccccccccccscccccccccccsccccccccccccccccccccccscccccsccccscccccccccccccsscccccscccccsccscscssccccscscccccccccsccccs" />
  <path
     style="color:#000000;display:inline;overflow:visible;visibility:visible;opacity:0.1;fill:#ffffff;fill-opacity:1;fill-rule:nonzero;stroke:none;stroke-width:0.26457033;marker:none;enable-background:accumulate"
     d="M 33.688673,3.4856498 V 62.7494 h 12.984614 c 9.338464,0 10.054627,-0.962123 10.297574,-10.316435 V 33.117525 20.418149 L 40.038361,3.4856498 Z"
     id="path4231"
     inkscape:connector-curvature="0"
     sodipodi:nodetypes="ccsscccc" />
  <path
     inkscape:connector-curvature="0"
     style="color:#000000;display:inline;overflow:visible;visibility:visible;opacity:0.2;fill:#ffffff;fill-opacity:1;fill-rule:nonzero;stroke:none;stroke-width:0.26457033;marker:none;enable-background:accumulate"
     d="m 10.406486,33.117525 v 19.31544 C 10.360716,61.790319 11.365594,62.7494 20.704059,62.7494 h 25.969228 c 9.338464,0 10.054627,-0.962123 10.297574,-10.316435 v -19.31544 z"
     id="path4255"
     sodipodi:nodetypes="ccssscc" />
  <path
     style="color:#000000;display:inline;overflow:visible;visibility:visible;opacity:0.4;fill:#ffffff;fill-opacity:1;fill-rule:nonzero;stroke:none;stroke-width:2.11656237;stroke-linecap:butt;stroke-linejoin:miter;stroke-miterlimit:4;stroke-dasharray:none;stroke-dashoffset:0;stroke-opacity:1;marker:none;enable-background:accumulate"
     d="M 41.096642,62.7494 56.970861,46.875181 v 5.948567 C 56.957021,61.81803 55.964784,62.7494 46.871127,62.7494 Z"
     id="path4254"
     inkscape:connector-curvature="0"
     sodipodi:nodetypes="cccsc" />
  <path
     inkscape:connector-curvature="0"
     style="color:#000000;display:inline;overflow:visible;visibility:visible;opacity:0.2;fill:url(#radialGradient1752);fill-opacity:1;fill-rule:nonzero;stroke:none;stroke-width:1;marker:none;filter:url(#filter2553);enable-background:accumulate"
     d="m 185.33354,74.825228 -66,-65.9999998 0.003,24.9985698 v 1 0.53711 c 0,35.29429 3.62603,39.63197 38.99414,39.45899 z"
     id="rect4158-0-3-6"
     sodipodi:nodetypes="ccccscc"
     transform="matrix(0.26457031,0,0,0.26457031,7.9371086,1.1507564)" />
  <path
     inkscape:connector-curvature="0"
     style="color:#000000;display:inline;overflow:visible;visibility:visible;opacity:0.15;fill:#000000;fill-opacity:1;fill-rule:nonzero;stroke:none;stroke-width:0.26457033;marker:none;enable-background:accumulate"
     d="M 56.970861,20.94729 V 20.418149 L 40.038361,3.4856498 H 39.50922 v 6.6140182 0.26457 0.142103 c 0,9.118097 1.587422,10.440949 10.316692,10.439679 z"
     id="rect4158-0-3-2"
     sodipodi:nodetypes="ccccccscc" />
  <path
     inkscape:connector-curvature="0"
     style="color:#000000;display:inline;overflow:visible;visibility:visible;fill:#faf8f6;fill-opacity:1;fill-rule:nonzero;stroke:none;stroke-width:0.26457033;marker:none;enable-background:accumulate"
     d="M 56.970085,20.416739 40.039136,3.4857884 v 6.0846007 0.264571 0.142103 c 0,9.3378199 0.95934,10.4854419 10.316692,10.4396759 z"
     id="rect4158-0-3" />
</svg>
