<svg height="256" viewBox="0 0 67.73 67.73" width="256" xmlns="http://www.w3.org/2000/svg" xmlns:xlink="http://www.w3.org/1999/xlink">
  <linearGradient id="linearGradient4226" gradientTransform="matrix(0 -.11988932 .11988589 0 .36278 292.5483)" gradientUnits="userSpaceOnUse" x1="529.655" x2="-35.31" y1="401.584" y2="119.093">
    <stop offset="0" stop-color="#f2f2f2"/>
    <stop offset="1" stop-color="#f9f9f9"/>
  </linearGradient>
  <linearGradient id="linearGradient4358" gradientUnits="userSpaceOnUse" x1="88" x2="488" y1="88" y2="488">
    <stop offset="0" stop-opacity=".588235"/>
    <stop offset=".88" stop-opacity="0"/>
    <stop offset="1"/>
  </linearGradient>
  <filter id="filter4346" color-interpolation-filters="sRGB" height="1.022" width="1.026" x="-.01" y="-.01">
    <feGaussianBlur stdDeviation="2.12"/>
  </filter>
  <g transform="translate(0 -229.26665)">
    <path d="m20.705011 233.28164c-9.338925 0-10.343783.95922-10.298012 10.31704v38.63259c-.04577 9.35781.959087 10.31704 10.298012 10.31704h25.970643c9.338924 0 10.298012-.95912 10.298012-10.31704v-38.63259c0-9.35793-.959088-10.31704-10.298012-10.31704z" fill="none" opacity=".2" stroke="#000" stroke-width="1.058333"/>
    <path d="m189.84323 74c-70.59344 0-78.18921 7.250835-77.84323 77.98706v292.02588c-.34598 70.73623 7.24979 77.98706 77.84323 77.98706h196.31354c70.59344 0 76.00668-7.27384 77.84323-77.98706v-292.02588c0-70.737067-7.24979-77.98706-77.84323-77.98706z" filter="url(#filter4346)" opacity=".1" transform="matrix(.13229167 0 0 .13229167 -4.409668 223.75664)"/>
    <path d="m189.84323 74c-70.59344 0-78.18921 7.250835-77.84323 77.98706v292.02588c-.34598 70.73623 7.24979 77.98706 77.84323 77.98706h196.31354c70.59344 0 77.84323-7.24999 77.84323-77.98706v-292.02588c0-70.737067-7.24979-77.98706-77.84323-77.98706z" fill="url(#linearGradient4358)" opacity=".3" transform="matrix(.13229167 0 0 .13229167 -4.409668 223.75664)" visibility="hidden"/>
    <path d="m20.705011 233.28164c-9.338925 0-10.343783.95922-10.298012 10.31704v38.368c-.04577 9.35782.959572 10.2219 10.298012 10.31704l25.970643.26459c9.33844.0951 10.298012-.95912 10.298012-10.31704v-38.63259c0-9.35793-.959088-10.31704-10.298012-10.31704z" fill="url(#linearGradient4226)"/>
    <path d="m20.705079 233.28164c-9.338925 0-10.343851.95939-10.29808 10.3172v.52916c-.04577-9.35781.959155-10.3172 10.29808-10.3172h25.970506c9.338927 0 10.298081.95928 10.298081 10.3172v-.52916c0-9.35793-.959154-10.3172-10.298081-10.3172z" fill="#fff" opacity=".6"/>
    <path d="m26.591024 245.98164c-.836634.008-1.549035.10352-2.130102.29197-.590553.18044-1.065901.45095-1.426787.81184-.360894.34448-.61563.77938-.763262 1.30431-.147643.52493-.221173 1.1237-.221173 1.79627v9.45627c0 .29528-.04937.59046-.147796.88574-.08202.27887-.221221.53308-.418063.76274-.180449.21325-.410496.39342-.689362.54105-.243064.11439-.532167.176-.86248.19069v1.78542c.330311.0165.619418.0853.86248.21394.278866.13123.508911.31191.689362.54157.196839.21325.336044.46747.418063.76274.09843.27887.147796.56618.147796.86145v9.45575c0 .67257.07353 1.27187.221173 1.79679.147632.52494.402368.96719.763262 1.32809.360886.36089.836242.63191 1.426787.81235.581067.17276 1.293466.26031 2.130102.26769h.749308v-1.79886h-.749308c-.826333-.0243-1.431507-.19348-1.810226-.5116-.393692-.32808-.590661-.96731-.590661-1.91874v-8.81652c0-1.08267-.147601-1.91938-.442868-2.50992-.278873-.59055-.680678-1.04961-1.205611-1.3777.524933-.32808.926738-.78766 1.205611-1.37821.295267-.59054.442868-1.42725.442868-2.50992v-8.81652c0-.95143.196969-1.59066.590661-1.91874.378719-.31812.983893-.48772 1.810226-.51212h.749308v-1.79782z" fill="#5884f4"/>
    <path d="m40.040333 245.98164v1.79782h.749307c.826334.0244 1.431507.194 1.810227.51212.393692.32808.590661.96731.590661 1.91874v8.81652c0 1.08267.1476 1.91938.442867 2.50992.278874.59055.680678 1.05013 1.205611 1.37821-.524933.32809-.926737.78715-1.205611 1.3777-.295267.59054-.442867 1.42725-.442867 2.50992v8.81652c0 .95143-.196969 1.59066-.590661 1.91874-.37872.31812-.983893.48726-1.810227.5116h-.749307v1.79886h.749307c.836637-.007 1.549035-.0949 2.130103-.26769.590544-.18044 1.0659-.45146 1.426786-.81235.360895-.3609.61563-.80315.763263-1.32809.147642-.52492.221173-1.12422.221173-1.79679v-9.45575c0-.29527.04937-.58258.147796-.86145.08202-.29527.221223-.54949.418063-.76274.180451-.22966.410496-.41034.689361-.54157.243062-.12868.53217-.19743.862481-.21394v-1.78542c-.330314-.0147-.619416-.0763-.862481-.19069-.278865-.14763-.508913-.3278-.689361-.54105-.196842-.22966-.336045-.48387-.418063-.76274-.09842-.29528-.147796-.59046-.147796-.88574v-9.45627c0-.67257-.07353-1.27134-.221173-1.79627-.147633-.52493-.402368-.95983-.763263-1.30431-.360886-.36089-.836234-.6314-1.426786-.81184-.581068-.18845-1.293469-.2839-2.130103-.29197z" fill="#5884f4"/>
    <g fill="#fff">
      <path d="m33.690332 233.28164v59.26667h12.985253c9.338924 0 10.055122-.96217 10.298081-10.31695v-38.63278c0-9.35792-.959157-10.31694-10.298081-10.31694z" opacity=".1"/>
      <path d="m10.406999 262.91497v19.31639c-.04577 9.35782.959155 10.31695 10.29808 10.31695h25.970506c9.338924 0 10.055122-.96217 10.298081-10.31695v-19.31639z" opacity=".2"/>
      <path d="m41.098666 292.54831 15.875-15.875v5.94886c-.01384 8.99472-1.006126 9.92614-10.100231 9.92614z" opacity=".4"/>
    </g>
  </g>
</svg>
