<?xml version="1.0" encoding="UTF-8" standalone="no"?>
<svg
   xmlns:dc="http://purl.org/dc/elements/1.1/"
   xmlns:cc="http://creativecommons.org/ns#"
   xmlns:rdf="http://www.w3.org/1999/02/22-rdf-syntax-ns#"
   xmlns:svg="http://www.w3.org/2000/svg"
   xmlns="http://www.w3.org/2000/svg"
   xmlns:xlink="http://www.w3.org/1999/xlink"
   xmlns:sodipodi="http://sodipodi.sourceforge.net/DTD/sodipodi-0.dtd"
   xmlns:inkscape="http://www.inkscape.org/namespaces/inkscape"
   width="256"
   height="256"
   version="1.1"
   viewBox="0 0 67.73 67.73"
   id="svg41"
   sodipodi:docname="2.svg"
   inkscape:version="0.92.4 (5da689c313, 2019-01-14)">
  <metadata
     id="metadata45">
    <rdf:RDF>
      <cc:Work
         rdf:about="">
        <dc:format>image/svg+xml</dc:format>
        <dc:type
           rdf:resource="http://purl.org/dc/dcmitype/StillImage" />
        <dc:title></dc:title>
      </cc:Work>
    </rdf:RDF>
  </metadata>
  <sodipodi:namedview
     pagecolor="#ffffff"
     bordercolor="#666666"
     borderopacity="1"
     objecttolerance="10"
     gridtolerance="10"
     guidetolerance="10"
     inkscape:pageopacity="0"
     inkscape:pageshadow="2"
     inkscape:window-width="1920"
     inkscape:window-height="1016"
     id="namedview43"
     showgrid="false"
     inkscape:zoom="0.921875"
     inkscape:cx="128"
     inkscape:cy="128"
     inkscape:window-x="0"
     inkscape:window-y="27"
     inkscape:window-maximized="1"
     inkscape:current-layer="svg41" />
  <defs
     id="defs17">
    <linearGradient
       id="linearGradient4226"
       x1="529.655"
       x2="-35.31"
       y1="401.584"
       y2="119.093"
       gradientTransform="matrix(0 -.11988932 -.11988589 0 67.016455 292.81288)"
       gradientUnits="userSpaceOnUse">
      <stop
         style="stop-color:#d24625"
         offset="0"
         id="stop2" />
      <stop
         style="stop-color:#ec532f"
         offset="1"
         id="stop4" />
    </linearGradient>
    <linearGradient
       id="linearGradient4358"
       x1="88"
       x2="488"
       y1="88"
       y2="488"
       gradientUnits="userSpaceOnUse">
      <stop
         style="stop-color:#000000;stop-opacity:.58823532"
         offset="0"
         id="stop7" />
      <stop
         style="stop-color:#000000;stop-opacity:0"
         offset=".88"
         id="stop9" />
      <stop
         style="stop-color:#000000"
         offset="1"
         id="stop11" />
    </linearGradient>
    <filter
       id="filter4346"
       width="1.026"
       height="1.022"
       x="-.01"
       y="-.01"
       style="color-interpolation-filters:sRGB">
      <feGaussianBlur
         stdDeviation="2.12"
         id="feGaussianBlur14" />
    </filter>
    <filter
       style="color-interpolation-filters:sRGB"
       id="b"
       x="-0.059999999"
       y="-0.059999999"
       width="1.12"
       height="1.12">
      <feGaussianBlur
         stdDeviation="0.5"
         id="feGaussianBlur8" />
    </filter>
    <filter
       style="color-interpolation-filters:sRGB"
       id="c"
       x="-0.035999998"
       y="-0.035999998"
       width="1.072"
       height="1.072">
      <feGaussianBlur
         stdDeviation="0.3"
         id="feGaussianBlur5" />
    </filter>
    <linearGradient
       gradientUnits="userSpaceOnUse"
       y2="119.09284"
       x2="-35.310345"
       y1="401.58368"
       x1="529.65515"
       id="linearGradient4226-6"
       xlink:href="#linearGradient4338"
       inkscape:collect="always"
       gradientTransform="matrix(0,-0.11988342,0.11987999,0,0.3627617,63.54311)" />
    <linearGradient
       inkscape:collect="always"
       id="linearGradient4338">
      <stop
         style="stop-color:#f2f2f2;stop-opacity:1"
         offset="0"
         id="stop4340" />
      <stop
         style="stop-color:#f9f9f9;stop-opacity:1"
         offset="1"
         id="stop4342" />
    </linearGradient>
    <linearGradient
       inkscape:collect="always"
       xlink:href="#linearGradient4360"
       id="linearGradient4358-2"
       x1="88"
       y1="88"
       x2="488"
       y2="488"
       gradientUnits="userSpaceOnUse" />
    <linearGradient
       id="linearGradient4360"
       inkscape:collect="always">
      <stop
         id="stop4362"
         offset="0"
         style="stop-color:#000000;stop-opacity:0.58823532" />
      <stop
         style="stop-color:#000000;stop-opacity:0"
         offset="0.88"
         id="stop4364" />
      <stop
         id="stop4366"
         offset="1"
         style="stop-color:#000000;stop-opacity:1" />
    </linearGradient>
    <filter
       inkscape:collect="always"
       style="color-interpolation-filters:sRGB"
       id="filter4380"
       x="-0.052999184"
       width="1.1059984"
       y="-0.043862626"
       height="1.0877253">
      <feGaussianBlur
         inkscape:collect="always"
         stdDeviation="8.4801079"
         id="feGaussianBlur4382" />
    </filter>
    <filter
       inkscape:collect="always"
       style="color-interpolation-filters:sRGB"
       id="filter4346-9"
       x="-0.013249796"
       width="1.0264996"
       y="-0.010965657"
       height="1.0219313">
      <feGaussianBlur
         inkscape:collect="always"
         stdDeviation="2.120027"
         id="feGaussianBlur4348" />
    </filter>
  </defs>
  <path
     sodipodi:nodetypes="scccssscsss"
     inkscape:connector-curvature="0"
     id="path1163"
     d="m 20.703991,4.2793607 c -9.338465,0 -10.343273,0.9591779 -10.297505,10.3165303 V 33.911236 53.22658 c -0.04577,9.357355 0.95904,10.316531 10.297505,10.316531 h 25.969365 c 9.338465,0 10.297506,-0.959068 10.297506,-10.316531 V 33.911236 14.595891 c 0,-9.3574638 -0.959041,-10.3165303 -10.297506,-10.3165303 z"
     style="color:#000000;display:inline;overflow:visible;visibility:visible;opacity:0.2;fill:none;fill-opacity:1;fill-rule:nonzero;stroke:#000000;stroke-width:1.0582813;stroke-miterlimit:4;stroke-dasharray:none;stroke-opacity:1;marker:none;enable-background:accumulate" />
  <path
     style="color:#000000;display:inline;overflow:visible;visibility:visible;opacity:0.1;fill:#000000;fill-opacity:1;fill-rule:nonzero;stroke:none;stroke-width:2;marker:none;filter:url(#filter4346-9);enable-background:accumulate"
     d="M 189.84323,74 C 119.24979,74 111.65402,81.250835 112,151.98706 V 298 444.01294 C 111.65402,514.74917 119.24979,522 189.84323,522 H 386.15677 C 456.75021,522 462.16345,514.72616 464,444.01294 V 298 151.98706 C 464,81.249993 456.75021,74 386.15677,74 Z"
     id="rect4158-9"
     inkscape:connector-curvature="0"
     sodipodi:nodetypes="scccssscsss"
     transform="matrix(0.13228516,0,0,0.13228516,-4.4094514,-5.2451706)" />
  <path
     sodipodi:nodetypes="scccssscsss"
     inkscape:connector-curvature="0"
     id="path4350"
     d="M 189.84323,74 C 119.24979,74 111.65402,81.250835 112,151.98706 V 298 444.01294 C 111.65402,514.74917 119.24979,522 189.84323,522 H 386.15677 C 456.75021,522 464,514.75001 464,444.01294 V 298 151.98706 C 464,81.249993 456.75021,74 386.15677,74 Z"
     style="color:#000000;display:inline;overflow:visible;visibility:visible;opacity:0.3;fill:url(#linearGradient4358-2);fill-opacity:1;fill-rule:nonzero;stroke:none;stroke-width:2;marker:none;filter:url(#filter4380);enable-background:accumulate"
     transform="matrix(0.13228516,0,0,0.13228516,-4.4094514,-5.2451706)" />
  <path
     style="color:#000000;display:inline;overflow:visible;visibility:visible;fill:url(#linearGradient4226-6);fill-opacity:1;fill-rule:nonzero;stroke:none;stroke-width:0.26457033;marker:none;enable-background:accumulate"
     d="m 20.703991,4.2793607 c -9.338465,0 -10.343273,0.9591779 -10.297505,10.3165303 V 33.911236 53.22658 c -0.04577,9.357355 0.95904,10.316531 10.297505,10.316531 h 25.969365 c 9.338465,0 10.297506,-0.959068 10.297506,-10.316531 V 33.911236 14.595891 c 0,-9.3574638 -0.959041,-10.3165303 -10.297506,-10.3165303 z"
     id="rect4158"
     inkscape:connector-curvature="0"
     sodipodi:nodetypes="scccssscsss" />
  <path
     style="color:#000000;display:inline;overflow:visible;visibility:visible;opacity:0.6;fill:#ffffff;fill-opacity:1;fill-rule:nonzero;stroke:none;stroke-width:0.26457033;marker:none;enable-background:accumulate"
     d="m 20.70406,4.2793607 c -9.338467,0 -10.343342,0.9593396 -10.297574,10.3166913 v 0.529141 C 10.360718,5.7678409 11.365593,4.8085013 20.70406,4.8085013 h 25.969228 c 9.338467,0 10.297574,0.9592282 10.297574,10.3166917 v -0.529141 c 0,-9.3574631 -0.959107,-10.3166913 -10.297574,-10.3166913 z"
     id="path931"
     inkscape:connector-curvature="0" />
  <path
     transform="matrix(0.90007802,0,0,0.90007802,4.4658401,6.9088951)"
     style="display:inline;opacity:0.15;stroke:#000000;stroke-linejoin:round;stroke-opacity:0.294;filter:url(#c);enable-background:new"
     inkscape:connector-curvature="0"
     d="m 18,26 h 16 c 1.108,0 2,0.892 2,2 v 16 c 0,1.108 -0.892,2 -2,2 H 18 c -1.108,0 -2,-0.892 -2,-2 V 28 c 0,-1.108 0.892,-2 2,-2 z"
     id="path25" />
  <path
     style="display:inline;fill:#e6e6e6;stroke-width:0.90007806;enable-background:new"
     inkscape:connector-curvature="0"
     d="m 20.667245,30.310923 h 14.401248 c 0.997287,0 1.800155,0.802871 1.800155,1.800155 v 14.40125 c 0,0.997285 -0.802868,1.800155 -1.800155,1.800155 H 20.667245 c -0.997287,0 -1.800156,-0.80287 -1.800156,-1.800155 v -14.40125 c 0,-0.997284 0.802869,-1.800155 1.800156,-1.800155 z"
     id="path27" />
  <path
     transform="matrix(0.90007802,0,0,0.90007802,4.4658401,6.9088951)"
     style="color:#000000;display:inline;opacity:0.15;fill:#074271;stroke:#0b5fa1;stroke-linejoin:round;filter:url(#b);enable-background:new"
     inkscape:connector-curvature="0"
     d="m 30,14 c -1.108,0 -2,0.892 -2,2 v 16 c 0,1.108 0.892,2 2,2 h 16 c 1.108,0 2,-0.892 2,-2 V 16 c 0,-1.108 -0.892,-2 -2,-2 z"
     id="path31" />
  <path
     style="color:#000000;display:inline;fill:#44a5f3;stroke-width:0.90007806;enable-background:new"
     inkscape:connector-curvature="0"
     d="m 31.468181,19.509987 c -0.997286,0 -1.800156,0.80287 -1.800156,1.800156 v 14.401248 c 0,0.997287 0.80287,1.800157 1.800156,1.800157 H 45.86943 c 0.997285,0 1.800155,-0.80287 1.800155,-1.800157 V 21.310143 c 0,-0.997286 -0.80287,-1.800156 -1.800155,-1.800156 z"
     id="path33" />
  <path
     style="display:inline;opacity:1;fill:#ffffff;fill-opacity:1;stroke:none;stroke-width:0.65529293;stroke-linecap:round;stroke-linejoin:miter;stroke-miterlimit:4;stroke-dasharray:none;stroke-dashoffset:0;stroke-opacity:1;marker:none;enable-background:new"
     d="m 38.013512,22.298442 v 1.96588 h -5.242344 v 1.310586 h 2.168418 c 0.779946,2.013289 1.737878,3.720653 2.866427,5.114036 -1.313021,1.35996 -2.832781,2.274003 -4.562093,2.775398 l 0.365083,1.258749 c 1.921731,-0.557182 3.6115,-1.584586 5.059802,-3.063687 1.448303,1.479101 3.138074,2.506505 5.059802,3.063687 l 0.365083,-1.258749 c -1.729311,-0.501395 -3.249069,-1.415438 -4.562094,-2.775398 1.128553,-1.393383 2.086486,-3.100749 2.866426,-5.114036 h 2.168421 v -1.310586 h -5.242345 v -1.96588 z m -1.663668,3.276466 h 4.637926 c -0.665334,1.619849 -1.438218,2.988036 -2.318965,4.118778 -0.880746,-1.130742 -1.653628,-2.498929 -2.318961,-4.118778 z"
     id="rect36292"
     inkscape:connector-curvature="0"
     sodipodi:nodetypes="cccccccccccccccccccccc" />
  <path
     sodipodi:nodetypes="cccccccccccccccccccccc"
     inkscape:connector-curvature="0"
     id="path36316"
     style="font-style:normal;font-variant:normal;font-weight:normal;font-stretch:normal;font-size:medium;line-height:125%;font-family:Ubuntu;-inkscape-font-specification:Ubuntu;text-align:center;letter-spacing:0px;word-spacing:0px;text-anchor:middle;display:inline;fill:#77767b;fill-opacity:1;stroke:none;stroke-width:0.01892158px;stroke-linecap:butt;stroke-linejoin:miter;stroke-opacity:1;enable-background:new"
     d="m 31.724097,45.455076 c -0.200938,-0.531895 -0.390056,-1.051968 -0.567353,-1.560221 -0.177298,-0.520074 -0.360506,-1.003447 -0.549623,-1.535339 h -5.567152 l -1.116978,3.09556 h -1.790707 c 0.472793,-1.300186 0.916038,-2.499901 1.329733,-3.599148 0.413694,-1.111066 0.815571,-2.163034 1.205625,-3.155903 0.401875,-0.992867 0.797841,-1.938454 1.187896,-2.836763 0.390057,-0.91013 0.79784,-1.808439 1.223355,-2.694932 h 1.577953 c 0.425513,0.886493 0.833298,1.784802 1.223352,2.694932 0.390056,0.898309 0.780112,1.843896 1.170167,2.836763 0.401875,0.992869 0.80966,2.044837 1.223355,3.155903 0.413695,1.099247 0.856939,2.298962 1.329734,3.599148 z m -1.613409,-4.505137 c -0.378238,-1.02833 -0.756474,-2.072615 -1.134708,-3.030024 -0.366414,-0.969227 -0.75056,-1.897088 -1.152434,-2.783576 -0.413695,0.886488 -0.809661,1.814349 -1.187897,2.783576 -0.366416,0.957409 -0.732831,2.001694 -1.099247,3.030024 z" />
  <path
     style="color:#000000;display:inline;overflow:visible;visibility:visible;opacity:0.1;fill:#ffffff;fill-opacity:1;fill-rule:nonzero;stroke:none;stroke-width:0.26457033;marker:none;enable-background:accumulate"
     d="M 33.688674,4.2793607 V 63.543111 h 12.984614 c 9.338464,0 10.054627,-0.962123 10.297574,-10.316435 V 33.911236 14.595794 c 0,-9.3574636 -0.95911,-10.3164333 -10.297574,-10.3164333 z"
     id="path4231"
     inkscape:connector-curvature="0"
     sodipodi:nodetypes="ccsscssc" />
  <path
     inkscape:connector-curvature="0"
     style="color:#000000;display:inline;overflow:visible;visibility:visible;opacity:0.2;fill:#ffffff;fill-opacity:1;fill-rule:nonzero;stroke:none;stroke-width:0.26457033;marker:none;enable-background:accumulate"
     d="m 10.406486,33.911236 v 19.31544 c -0.04577,9.357354 0.959108,10.316435 10.297574,10.316435 h 25.969228 c 9.338464,0 10.054627,-0.962123 10.297574,-10.316435 v -19.31544 z"
     id="path4255"
     sodipodi:nodetypes="ccssscc" />
  <path
     style="color:#000000;display:inline;overflow:visible;visibility:visible;opacity:0.4;fill:#ffffff;fill-opacity:1;fill-rule:nonzero;stroke:none;stroke-width:2.11656237;stroke-linecap:butt;stroke-linejoin:miter;stroke-miterlimit:4;stroke-dasharray:none;stroke-dashoffset:0;stroke-opacity:1;marker:none;enable-background:accumulate"
     d="M 41.096643,63.543111 56.970862,47.668892 v 5.948567 c -0.01384,8.994282 -1.006077,9.925652 -10.099734,9.925652 z"
     id="path4254"
     inkscape:connector-curvature="0"
     sodipodi:nodetypes="cccsc" />
</svg>
