<svg height="256" viewBox="0 0 67.73 67.73" width="256" xmlns="http://www.w3.org/2000/svg" xmlns:xlink="http://www.w3.org/1999/xlink"><linearGradient id="a" gradientTransform="matrix(0 -.11988342 .11987999 0 .362762 62.7494)" gradientUnits="userSpaceOnUse" x1="529.65515" x2="-35.310345" y1="401.58368" y2="119.09284"><stop offset="0" stop-color="#f2f2f2"/><stop offset="1" stop-color="#f9f9f9"/></linearGradient><linearGradient id="b" gradientUnits="userSpaceOnUse" x1="88" x2="488" y1="88" y2="488"><stop offset="0" stop-opacity=".588235"/><stop offset=".88" stop-opacity="0"/><stop offset="1"/></linearGradient><filter id="c" color-interpolation-filters="sRGB" height="1.087725" width="1.105998" x="-.052999" y="-.043863"><feGaussianBlur stdDeviation="8.4801079"/></filter><filter id="d" color-interpolation-filters="sRGB" height="1.021931" width="1.0265" x="-.01325" y="-.010966"><feGaussianBlur stdDeviation="2.120027"/></filter><path d="m20.703991 3.4856498c-9.338465 0-10.343273.9591778-10.297505 10.3165312v19.315345 19.315344c-.04577 9.357355.95904 10.316531 10.297505 10.316531h25.969365c9.338465 0 10.297506-.959068 10.297506-10.316531v-19.315344-19.315345c0-9.3574644-.959041-10.3165312-10.297506-10.3165312z" fill="none" opacity=".2" stroke="#000" stroke-width="1.058281"/><path d="m189.84323 74c-70.59344 0-78.18921 7.250835-77.84323 77.98706v146.01294 146.01294c-.34598 70.73623 7.24979 77.98706 77.84323 77.98706h196.31354c70.59344 0 76.00668-7.27384 77.84323-77.98706v-146.01294-146.01294c0-70.737067-7.24979-77.98706-77.84323-77.98706z" filter="url(#d)" opacity=".1" transform="matrix(.13228516 0 0 .13228516 -4.409451 -6.038882)"/><path d="m189.84323 74c-70.59344 0-78.18921 7.250835-77.84323 77.98706v146.01294 146.01294c-.34598 70.73623 7.24979 77.98706 77.84323 77.98706h196.31354c70.59344 0 77.84323-7.24999 77.84323-77.98706v-146.01294-146.01294c0-70.737067-7.24979-77.98706-77.84323-77.98706z" fill="url(#b)" filter="url(#c)" opacity=".3" transform="matrix(.13228516 0 0 .13228516 -4.409451 -6.038882)"/><path d="m20.703991 3.4856498c-9.338465 0-10.343273.9591778-10.297505 10.3165312v19.315345 19.315344c-.04577 9.357355.95904 10.316531 10.297505 10.316531h25.969365c9.338465 0 10.297506-.959068 10.297506-10.316531v-19.315344-19.315345c0-9.3574644-.959041-10.3165312-10.297506-10.3165312z" fill="url(#a)"/><path d="m20.70406 3.4856498c-9.338466 0-10.343342.9593398-10.297574 10.3166922v.529141c-.045768-9.3573534.959108-10.3166926 10.297574-10.3166926h25.969228c9.338467 0 10.297574.9592282 10.297574 10.3166926v-.529141c0-9.3574644-.959107-10.3166922-10.297574-10.3166922z" fill="#fff" opacity=".6"/><path d="m34.322928 14.068463c-1.693247 0-3.245653.193759-4.656694.581796-1.375768.388037-2.433737.793763-3.174534 1.217075l1.005004 2.85736c1.940182-1.058281 4.092075-1.587268 6.455569-1.587268.846625 0 1.658078.0705 2.43415.211606.776073.141103 1.446525.405829 2.010941.793867.599691.388034 1.075918.917021 1.42868 1.587265.352759.634969.528778 1.446419.528778 2.43415 0 1.093557-.2115 2.081026-.634813 2.962929-.423309.846625-.952297 1.658078-1.587268 2.43415-.634966.7408-1.323158 1.48175-2.063958 2.222547-.740797.705519-1.428524 1.463748-2.063493 2.275098-.634969.811347-1.163956 1.693301-1.587268 2.645754-.42331.917178-.635279 1.975612-.635279 3.174999 0 .423313.01773.846313.05302 1.269628.03528.388035.08804.758746.158588 1.111505h2.751791c-.03528-.176381-.05302-.352865-.05302-.529244v-.899435c0-1.16411.229244-2.222547.687832-3.175s1.040799-1.834406 1.74632-2.645754c.705519-.846625 1.446472-1.658078 2.222544-2.43415.81135-.776074 1.56958-1.587062 2.275099-2.433684.705521-.846628 1.28773-1.76406 1.746317-2.751791.458588-.987728.687833-2.116668.687833-3.386603 0-.917178-.158742-1.851889-.476227-2.804342-.317484-.952454-.846937-1.798925-1.587731-2.539722-.7408-.776072-1.746011-1.393299-3.015948-1.851888-1.234663-.493864-2.786598-.740848-4.656233-.740848zm-.68783 32.277372c-.917178 0-1.640386.282466-2.169529.846884-.493863.564416-.740848 1.252143-.740848 2.063493 0 .811347.246985 1.499076.740848 2.063492.529143.564419 1.252351.846884 2.169529.846884.917176 0 1.622647-.282465 2.11651-.846884.529143-.564416.793402-1.252145.793402-2.063492 0-.81135-.264259-1.499077-.793402-2.063493-.493863-.564418-1.199334-.846884-2.11651-.846884z" fill="#999"/><g fill="#fff"><path d="m33.688674 3.4856498v59.2637512h12.984614c9.338464 0 10.054627-.962123 10.297574-10.316435v-19.31544-19.315442c0-9.3574644-.95911-10.3164342-10.297574-10.3164342z" opacity=".1"/><path d="m10.406486 33.117526v19.31544c-.04577 9.357354.959108 10.316435 10.297574 10.316435h25.969228c9.338464 0 10.054627-.962123 10.297574-10.316435v-19.31544z" opacity=".2"/><path d="m41.096643 62.749401 15.874219-15.874219v5.948567c-.01384 8.994282-1.006077 9.925652-10.099734 9.925652z" opacity=".4"/></g></svg>