<svg xmlns="http://www.w3.org/2000/svg" width="256" height="256" version="1.1" viewBox="0 0 67.73 67.73">
 <defs>
  <clipPath id="clipPath1101">
   <path d="m39.9973 106.92432c0-35.29673 3.625418-39.09461 38.99353-38.92162h146.01294c35.36812-0.17299 38.99353 3.62489 38.99353 38.92162v98.15676c0 35.29672-3.625 38.92162-38.99353 38.92162h-146.01294c-35.368533 0-38.99353-3.6249-38.99353-38.92162z" style="fill:url(#linearGradient1105)"/>
  </clipPath>
  <linearGradient id="linearGradient4226" x1="529.655" x2="-35.31" y1="401.584" y2="119.093" gradientTransform="matrix(0.11988932,0,0,0.11988589,4.1870906,3.09813)" gradientUnits="userSpaceOnUse">
   <stop id="stop5" offset="0" style="stop-color:#331d3b"/>
   <stop id="stop7" offset="1" style="stop-color:#281d2c"/>
  </linearGradient>
  <linearGradient id="linearGradient4358" x1="88" x2="488" y1="88" y2="488" gradientTransform="matrix(0,-0.13229167,0.13229167,0,-5.6024919,74.78884)" gradientUnits="userSpaceOnUse">
   <stop id="stop10" offset="0" style="stop-color:#000000;stop-opacity:.58823532"/>
   <stop id="stop12" offset=".88" style="stop-color:#000000;stop-opacity:0"/>
   <stop id="stop14" offset="1" style="stop-color:#000000"/>
  </linearGradient>
  <filter style="color-interpolation-filters:sRGB" id="filter4346" width="1.026" height="1.022" x="-.01" y="-.01">
   <feGaussianBlur id="feGaussianBlur17" stdDeviation="2.12"/>
  </filter>
  <clipPath id="clipPath1101-7">
   <path style="fill:url(#linearGradient1105)" d="m 39.9973,106.92432 c 0,-35.29673 3.625418,-39.09461 38.99353,-38.92162 h 146.01294 c 35.36812,-0.17299 38.99353,3.62489 38.99353,38.92162 v 98.15676 c 0,35.29672 -3.625,38.92162 -38.99353,38.92162 H 78.99083 c -35.368533,0 -38.99353,-3.6249 -38.99353,-38.92162 z"/>
  </clipPath>
 </defs>
 <path style="opacity:0.1;filter:url(#filter4346)" d="M 189.84323,74 C 119.24979,74 111.65402,81.250835 112,151.98706 V 444.01294 C 111.65402,514.74917 119.24979,522 189.84323,522 H 386.15677 C 456.75021,522 462.16345,514.72616 464,444.01294 V 151.98706 C 464,81.249993 456.75021,74 386.15677,74 Z" transform="matrix(0,-0.13229167,0.13229167,0,-5.6024919,74.78884)"/>
 <path style="opacity:0.3;fill:url(#linearGradient4358);filter:url(#filter4380)" d="m 4.1870917,49.674162 c 0,9.338924 0.9592251,10.343781 10.3170383,10.298011 H 53.136721 C 62.494535,60.017943 63.45376,59.013086 63.45376,49.674162 V 23.703516 c 0,-9.338924 -0.959113,-10.298011 -10.317039,-10.298011 H 14.50413 c -9.3579246,0 -10.3170383,0.959087 -10.3170383,10.298011 z"/>
 <path style="fill:url(#linearGradient4226)" d="m 63.453758,23.44036 c 0,-9.33893 -0.959226,-10.34378 -10.317038,-10.29801 H 14.504129 C 5.1463137,13.09655 4.187091,14.10143 4.187091,23.44036 V 49.411 c 0,9.33893 0.9591145,10.29802 10.317038,10.29802 H 53.13672 c 9.357923,0 10.317038,-0.95909 10.317038,-10.29802 z"/>
 <path style="opacity:0.04;fill:white" d="M 4.1870907,36.42568 H 63.453758 v 12.98525 c 0,9.33893 -0.962171,10.05513 -10.316943,10.29809 H 14.504033 c -9.3579257,0 -10.3169423,-0.95916 -10.3169423,-10.29809 z"/>
 <path style="opacity:0.04;fill:white" d="m 33.820425,13.14235 h 19.31639 c 9.357815,-0.0458 10.316943,0.95915 10.316943,10.29808 v 25.9705 c 0,9.33893 -0.962171,10.05513 -10.316943,10.29809 h -19.31639 z"/>
 <path style="opacity:0.2;fill:white" d="M 14.503972,13.14215 C 5.1461581,13.09635 4.187288,14.1013 4.187288,23.44023 v 0.52917 c 0,-9.33893 0.9588698,-10.34385 10.316684,-10.29808 h 38.632785 c 9.357815,-0.0458 10.317199,0.95915 10.317199,10.29808 v -0.52917 c 0,-9.33893 -0.959384,-10.34385 -10.317199,-10.29808 H 33.820623 Z"/>
 <path style="opacity:0.2" d="m 4.1872883,48.88209 v 0.52916 c 0,9.33893 0.9587585,10.29757 10.3166837,10.29757 h 38.632785 c 9.357923,0 10.317199,-0.95864 10.317199,-10.29757 v -0.52916 c 0,9.33892 -0.959276,10.29756 -10.317199,10.29756 H 14.503972 c -9.3579249,0 -10.3166837,-0.95864 -10.3166837,-10.29756 z"/>
 <path style="opacity:0.1;fill:white;font-variation-settings:normal" d="M 31.476562 51.443359 L 30.164062 51.720703 C 24.30471 52.952721 19.027691 58.32487 17.929688 64.177734 L 17.65625 65.644531 L 24.566406 65.644531 L 31.476562 65.644531 L 31.476562 58.542969 L 31.476562 51.443359 z M 224.11914 51.443359 L 224.11914 58.542969 L 224.11914 65.644531 L 231.16602 65.644531 L 238.21094 65.644531 L 237.58203 63.523438 C 236.66309 60.423723 235.58445 58.507205 233.50781 56.287109 C 231.66241 54.314223 228.04776 52.270781 225.43164 51.720703 L 224.11914 51.443359 z M 16.634766 73.720703 L 16.382812 74.982422 C 16.243985 75.676561 16.130859 79.220132 16.130859 82.857422 L 16.130859 89.470703 L 23.802734 89.470703 L 31.476562 89.470703 L 31.476562 81.595703 L 31.476562 73.720703 L 24.056641 73.720703 L 16.634766 73.720703 z M 224.11914 73.720703 L 224.11914 81.595703 L 224.11914 89.470703 L 231.79297 89.470703 L 239.4668 89.470703 L 239.4668 82.234375 C 239.4668 78.2543 239.35553 74.710728 239.2207 74.359375 C 239.00946 73.808889 237.94791 73.720703 231.54688 73.720703 L 224.11914 73.720703 z M 16.130859 97.953125 L 16.130859 105.62695 L 16.130859 113.29883 L 23.802734 113.29883 L 31.476562 113.29883 L 31.476562 105.62695 L 31.476562 97.953125 L 23.802734 97.953125 L 16.130859 97.953125 z M 224.11914 97.953125 L 224.11914 105.62695 L 224.11914 113.29883 L 231.79297 113.29883 L 239.4668 113.29883 L 239.4668 105.62695 L 239.4668 97.953125 L 231.79297 97.953125 L 224.11914 97.953125 z M 16.130859 121.78125 L 16.130859 129.65625 L 16.130859 137.53125 L 23.802734 137.53125 L 31.476562 137.53125 L 31.476562 129.65625 L 31.476562 121.78125 L 23.802734 121.78125 L 16.130859 121.78125 z M 224.11914 121.78125 L 224.11914 129.65625 L 224.11914 137.53125 L 231.79297 137.53125 L 239.4668 137.53125 L 239.4668 129.65625 L 239.4668 121.78125 L 231.79297 121.78125 L 224.11914 121.78125 z M 16.130859 146.01172 L 16.130859 153.68555 L 16.130859 161.35938 L 23.802734 161.35938 L 31.476562 161.35938 L 31.476562 153.68555 L 31.476562 146.01172 L 23.802734 146.01172 L 16.130859 146.01172 z M 224.11914 146.01172 L 224.11914 153.68555 L 224.11914 161.35938 L 231.79297 161.35938 L 239.4668 161.35938 L 239.4668 153.68555 L 239.4668 146.01172 L 231.79297 146.01172 L 224.11914 146.01172 z M 16.130859 169.83984 L 16.130859 177.71484 L 16.130859 185.5918 L 23.802734 185.5918 L 31.476562 185.5918 L 31.476562 177.71484 L 31.476562 169.83984 L 23.802734 169.83984 L 16.130859 169.83984 z M 224.11914 169.83984 L 224.11914 177.71484 L 224.11914 185.5918 L 231.79297 185.5918 L 239.4668 185.5918 L 239.4668 177.71484 L 239.4668 169.83984 L 231.79297 169.83984 L 224.11914 169.83984 z M 16.130859 194.07227 L 16.144531 196.19141 C 16.160614 198.69875 16.793815 206.02317 17.167969 208.01758 L 17.431641 209.41797 L 24.455078 209.41797 L 31.476562 209.41797 L 31.476562 201.74609 L 31.476562 194.07227 L 23.802734 194.07227 L 16.130859 194.07227 z M 224.11914 194.07227 L 224.11914 201.74609 L 224.11914 209.41797 L 231.1543 209.41797 L 238.18945 209.41797 L 238.42578 208.30859 C 238.84801 206.31518 239.45198 199.58748 239.45898 196.79883 L 239.4668 194.07227 L 231.79297 194.07227 L 224.11914 194.07227 z M 20.835938 217.90039 L 21.791016 218.91797 C 23.276077 220.49874 26.409469 222.35944 28.957031 223.17383 C 30.231593 223.58127 31.31947 223.92355 31.375 223.93555 C 31.430536 223.94749 31.476562 222.59563 31.476562 220.92969 L 31.476562 217.90039 L 26.15625 217.90039 L 20.835938 217.90039 z M 224.11914 217.90039 L 224.11914 220.90625 L 224.11914 223.91406 L 226.24023 223.29102 C 229.10999 222.44861 231.85066 220.92084 233.45117 219.26953 L 234.77734 217.90039 L 229.44922 217.90039 L 224.11914 217.90039 z" transform="scale(0.26457031)"/>
 <path style="opacity:0.6;fill:white" d="m 23.237886,23.72497 v 25.4 c 0,0 12.037194,-5.20675 22.56388,-12.70802 0,-0.002 -0.0013,-0.004 -0.0027,-0.007 -0.0013,-0.003 -0.0027,-0.006 -0.0047,-0.008 -0.0021,-0.003 -0.004,-0.006 -0.0054,-0.008 -0.0019,-0.003 -0.0027,-0.006 -0.0027,-0.008 C 34.682656,28.64544 23.237835,23.72546 23.237835,23.72546 Z"/>
</svg>
