<svg height="16" width="16" xmlns="http://www.w3.org/2000/svg">
  <path d="m5.16211 0c-.83879.01-1.45125-.0191-1.95313.25781-.25093.13845-.45077.37165-.56054.66406-.10977.29242-.14844.63974-.14844 1.07813v12c0 .43839.0387.78571.14844 1.07812.10977.29242.30961.52757.56054.66602.50188.2769 1.11434.24616 1.95313.25586h.002 5.67188.002c.83879-.01 1.45125.021 1.95312-.25586.25094-.13845.45078-.3736.56055-.66602.10967-.29241.14834-.63973.14834-1.07812v-12c0-.43839-.0387-.78571-.14844-1.07813-.10976-.29241-.30961-.52561-.56054-.66406-.50188-.2769-1.11434-.24811-1.95313-.25781h-.002-5.67187zm2.33789 1.30273 4.24023 4.23829-2.93945 2.46875 2.93945 2.46875-4.24023 4.23828v-5.61328l-2.42773 2.03906-.64454-.76563 2.81836-2.36718-2.81836-2.36719.64454-.76563 2.42773 2.03907zm1 2.41407v3.24023l1.75977-1.48047zm0 5.3457v3.24023l1.75977-1.75976z" fill="#444444"/>
</svg>
