<?xml version="1.0" encoding="UTF-8" standalone="no"?>
<svg
   xmlns:dc="http://purl.org/dc/elements/1.1/"
   xmlns:cc="http://creativecommons.org/ns#"
   xmlns:rdf="http://www.w3.org/1999/02/22-rdf-syntax-ns#"
   xmlns:svg="http://www.w3.org/2000/svg"
   xmlns="http://www.w3.org/2000/svg"
   xmlns:sodipodi="http://sodipodi.sourceforge.net/DTD/sodipodi-0.dtd"
   xmlns:inkscape="http://www.inkscape.org/namespaces/inkscape"
   height="16"
   width="16"
   version="1.1"
   id="svg14"
   sodipodi:docname="emblem-unreadable.svg"
   inkscape:version="0.92.5 (2060ec1f9f, 2020-04-08)">
  <metadata
     id="metadata20">
    <rdf:RDF>
      <cc:Work
         rdf:about="">
        <dc:format>image/svg+xml</dc:format>
        <dc:type
           rdf:resource="http://purl.org/dc/dcmitype/StillImage" />
      </cc:Work>
    </rdf:RDF>
  </metadata>
  <defs
     id="defs18" />
  <sodipodi:namedview
     pagecolor="#ffffff"
     bordercolor="#666666"
     borderopacity="1"
     objecttolerance="10"
     gridtolerance="10"
     guidetolerance="10"
     inkscape:pageopacity="0"
     inkscape:pageshadow="2"
     inkscape:window-width="834"
     inkscape:window-height="480"
     id="namedview16"
     showgrid="false"
     inkscape:zoom="14.75"
     inkscape:cx="8"
     inkscape:cy="8"
     inkscape:window-x="0"
     inkscape:window-y="28"
     inkscape:window-maximized="0"
     inkscape:current-layer="svg14" />
  <rect
     fill="#f22c42"
     height="15"
     rx="7.5"
     transform="matrix(0 -1 -1 0 0 0)"
     width="15"
     x="-15.5"
     y="-15.5"
     id="rect2"
     style="fill:#c7162b;fill-opacity:1" />
  <g
     enable-background="new"
     fill="none"
     transform="matrix(.6875 0 0 .6875 -234 -129.5)"
     id="g12">
    <path
       d="m192-360h16v16h-16z"
       transform="rotate(90)"
       id="path4" />
    <g
       stroke="#fff"
       stroke-linecap="square"
       stroke-width="1.454546"
       id="g10">
      <path
         d="m356.5 195.5-9 9"
         id="path6" />
      <path
         d="m347.5 195.5 9 9"
         id="path8" />
    </g>
  </g>
  <g
     id="g838">
    <path
       inkscape:connector-curvature="0"
       d="M 8,0.5 C 3.845,0.5 0.5,3.845 0.5,8 0.5,8.084349 0.508983,8.16634 0.5117188,8.25 0.64374905,4.2125917 3.9293489,1 8,1 12.070651,1 15.356251,4.2125917 15.488281,8.25 15.491017,8.16634 15.5,8.0843489 15.5,8 15.5,3.845 12.155,0.5 8,0.5 Z"
       id="rect822"
       style="opacity:0.3;fill:#ffffff;fill-opacity:1" />
    <path
       style="opacity:0.2;fill:#000000;fill-opacity:1"
       id="path827"
       d="m 8,15.5 c 4.155,0 7.5,-3.345 7.5,-7.5 C 15.5,7.91565 15.491,7.83366 15.48828,7.75 15.356251,11.787408 12.070651,15 8,15 3.929349,15 0.643749,11.787408 0.511719,7.75 0.508979,7.83366 0.5,7.915651 0.5,8 c 0,4.155 3.345,7.5 7.5,7.5 z"
       inkscape:connector-curvature="0" />
  </g>
</svg>
