<?xml version="1.0" encoding="UTF-8" standalone="no"?>
<svg
   xmlns:dc="http://purl.org/dc/elements/1.1/"
   xmlns:cc="http://creativecommons.org/ns#"
   xmlns:rdf="http://www.w3.org/1999/02/22-rdf-syntax-ns#"
   xmlns:svg="http://www.w3.org/2000/svg"
   xmlns="http://www.w3.org/2000/svg"
   xmlns:sodipodi="http://sodipodi.sourceforge.net/DTD/sodipodi-0.dtd"
   xmlns:inkscape="http://www.inkscape.org/namespaces/inkscape"
   width="16"
   height="16"
   version="1.1"
   id="svg8"
   sodipodi:docname="emblem-important.svg"
   inkscape:version="0.92.4 (5da689c313, 2019-01-14)">
  <metadata
     id="metadata14">
    <rdf:RDF>
      <cc:Work
         rdf:about="">
        <dc:format>image/svg+xml</dc:format>
        <dc:type
           rdf:resource="http://purl.org/dc/dcmitype/StillImage" />
      </cc:Work>
    </rdf:RDF>
  </metadata>
  <defs
     id="defs12" />
  <sodipodi:namedview
     pagecolor="#ffffff"
     bordercolor="#666666"
     borderopacity="1"
     objecttolerance="10"
     gridtolerance="10"
     guidetolerance="10"
     inkscape:pageopacity="0"
     inkscape:pageshadow="2"
     inkscape:window-width="1920"
     inkscape:window-height="1016"
     id="namedview10"
     showgrid="false"
     inkscape:zoom="14.75"
     inkscape:cx="8"
     inkscape:cy="8"
     inkscape:window-x="0"
     inkscape:window-y="27"
     inkscape:window-maximized="1"
     inkscape:current-layer="svg8" />
  <g
     id="g835">
    <rect
       id="rect821"
       style="fill:#f76363"
       transform="matrix(0,-1,-1,0,0,0)"
       ry="7.5"
       rx="7.5"
       y="-15.5"
       x="-15.5"
       height="15"
       width="15" />
    <rect
       width="12"
       height="12"
       x="-14"
       y="-14"
       rx="6"
       ry="6"
       transform="matrix(0,-1,-1,0,0,0)"
       style="fill:#ffffff;fill-opacity:1;stroke-width:0.80000001"
       id="rect846" />
  </g>
  <path
     d="m 8.708,5.6629997 q 0,1.19 -0.085,2.167 -0.085,0.963 -0.212,1.926 H 7.589 q -0.127,-0.963 -0.212,-1.926 -0.085,-0.977 -0.085,-2.167 V 3.0000002 H 8.708 Z M 8.949,12.051 q 0,0.382 -0.255,0.666 Q 8.44,13 8,13 7.56,13 7.306,12.717 7.051,12.433 7.051,12.051 q 0,-0.382 0.255,-0.666 0.255,-0.283 0.694,-0.283 0.44,0 0.694,0.283 0.255,0.284 0.255,0.666 z"
     font-weight="400"
     letter-spacing="0"
     word-spacing="0"
     style="font-weight:400;font-family:Ubuntu;letter-spacing:0;word-spacing:0;fill:#f76363;fill-opacity:1"
     id="path4"
     inkscape:connector-curvature="0" />
</svg>
