<svg id="svg10" height="16" width="16" xmlns="http://www.w3.org/2000/svg">
  <rect id="rect2" fill="#3d3d3d" height="15" rx="7.5" transform="matrix(0 -1 -1 0 0 0)" width="15" x="-15.5" y="-15.5"/>
  <path id="rect822" d="m8 .5c-4.155 0-7.5 3.345-7.5 7.5 0 .084349.008983.16634.0117188.25.13203025-4.0374083 3.4176301-7.25 7.4882812-7.25 4.070651 0 7.356251 3.2125917 7.488281 7.25.002736-.08366.011719-.1656511.011719-.25 0-4.155-3.345-7.5-7.5-7.5z" fill="#fff" opacity=".3"/>
  <path id="path827" d="m8 15.5c4.155 0 7.5-3.345 7.5-7.5 0-.08435-.009-.16634-.01172-.25-.132029 4.037408-3.417629 7.25-7.48828 7.25s-7.356251-3.212592-7.488281-7.25c-.00274.08366-.011719.165651-.011719.25 0 4.155 3.345 7.5 7.5 7.5z" opacity=".2"/>
  <g id="g962" enable-background="new" stroke-width="2.068938" transform="matrix(.39219006 0 0 .39404789 -126.38126 -24.831267)">
    <path id="path956" d="m334.52482 78.927318 8.13828 4.698642 14.33225-8.274728" fill="none" stroke="#f1f0e9" stroke-width="3.310302"/>
    <circle id="circle958" cx="342.66309" cy="83.625961" fill="#f22c42" r="2"/>
    <path id="path960" d="m342.6631 79.62596v18.05" fill="none" stroke="#f22c42" stroke-width="2.482726"/>
  </g>
</svg>
