<?xml version="1.0" encoding="UTF-8" standalone="no"?>
<svg
   xmlns:dc="http://purl.org/dc/elements/1.1/"
   xmlns:cc="http://creativecommons.org/ns#"
   xmlns:rdf="http://www.w3.org/1999/02/22-rdf-syntax-ns#"
   xmlns:svg="http://www.w3.org/2000/svg"
   xmlns="http://www.w3.org/2000/svg"
   xmlns:sodipodi="http://sodipodi.sourceforge.net/DTD/sodipodi-0.dtd"
   xmlns:inkscape="http://www.inkscape.org/namespaces/inkscape"
   height="16"
   width="16"
   version="1.1"
   id="svg16"
   sodipodi:docname="emblem-system.svg"
   inkscape:version="0.92.4 (5da689c313, 2019-01-14)">
  <metadata
     id="metadata22">
    <rdf:RDF>
      <cc:Work
         rdf:about="">
        <dc:format>image/svg+xml</dc:format>
        <dc:type
           rdf:resource="http://purl.org/dc/dcmitype/StillImage" />
      </cc:Work>
    </rdf:RDF>
  </metadata>
  <defs
     id="defs20" />
  <sodipodi:namedview
     pagecolor="#ffffff"
     bordercolor="#666666"
     borderopacity="1"
     objecttolerance="10"
     gridtolerance="10"
     guidetolerance="10"
     inkscape:pageopacity="0"
     inkscape:pageshadow="2"
     inkscape:window-width="796"
     inkscape:window-height="480"
     id="namedview18"
     showgrid="false"
     inkscape:zoom="14.75"
     inkscape:cx="8"
     inkscape:cy="8"
     inkscape:window-x="0"
     inkscape:window-y="27"
     inkscape:window-maximized="0"
     inkscape:current-layer="svg16" />
  <rect
     fill="#5d5d5d"
     height="15"
     rx="7.5"
     transform="matrix(0 -1 -1 0 0 0)"
     width="15"
     x="-15.5"
     y="-15.5"
     id="rect2" />
  <g
     enable-background="new"
     stroke-width=".133455"
     transform="matrix(.73095201 0 0 .73095201 -237.59963 -100.18089)"
     id="g14">
    <path
       d="m140.03975-343.99234h16v16h-16z"
       fill="none"
       transform="rotate(90)"
       id="path4" />
    <path
       d="m337.31472 139.96026-2.63222.39327v1.35335a6.4893367 6.4774947 43.145679 0 1 2.63222.005v-1.75146zm-5.38585 1.19061-2.00544 1.70491.98801 1.17757a6.4893367 6.4774947 43.145679 0 1 2.01736-1.69076zm8.12867.0127-.99285 1.18353a6.4893367 6.4774947 43.145679 0 1 .17056.0905 6.4893367 6.4774947 43.145679 0 1 1.84457 1.60287l1.00514-1.19769zm-11.60999 4.21684-.44056 2.59535 1.51535.26739a6.4893367 6.4774947 43.145679 0 1 .45509-2.59274zm15.08573.003-1.5228.26851a6.4893367 6.4774947 43.145679 0 1 .46365 2.59088l1.53286-.27zm-13.68247 4.69464-1.35149.78058h-.00034l1.33101 2.27098 1.33808-.77238a6.4893367 6.4774947 43.145679 0 1 -1.31723-2.27918zm12.30081.003a6.4893367 6.4774947 43.145679 0 1 -.53478 1.21481 6.4893367 6.4774947 43.145679 0 1 -.77388 1.0692l1.33883.77313 1.30158-2.28811zm-9.55687 3.47164-.53479 1.4688 2.47953.88448.52585-1.44534a6.4893367 6.4774947 43.145679 0 1 -2.30338-.79995 6.4893367 6.4774947 43.145679 0 1 -.16721-.10799zm6.8133.0153a6.4893367 6.4774947 43.145679 0 1 -2.47468.89752l.53031 1.45651 2.46761-.91651z"
       fill="#e6e6e6"
       id="path6" />
    <g
       fill="none"
       stroke="#e6e6e6"
       stroke-linecap="square"
       stroke-linejoin="round"
       stroke-width=".533822"
       id="g12">
      <circle
         cx="336"
         cy="148"
         r="6.44"
         id="circle8" />
      <circle
         cx="336"
         cy="148"
         r="4.44"
         id="circle10" />
    </g>
  </g>
  <g
     id="g838">
    <path
       inkscape:connector-curvature="0"
       d="M 8,0.5 C 3.845,0.5 0.5,3.845 0.5,8 0.5,8.084349 0.508983,8.16634 0.5117188,8.25 0.64374905,4.2125917 3.9293489,1 8,1 12.070651,1 15.356251,4.2125917 15.488281,8.25 15.491017,8.16634 15.5,8.0843489 15.5,8 15.5,3.845 12.155,0.5 8,0.5 Z"
       id="rect822"
       style="opacity:0.3;fill:#ffffff;fill-opacity:1" />
    <path
       style="opacity:0.2;fill:#000000;fill-opacity:1"
       id="path827"
       d="m 8,15.5 c 4.155,0 7.5,-3.345 7.5,-7.5 C 15.5,7.91565 15.491,7.83366 15.48828,7.75 15.356251,11.787408 12.070651,15 8,15 3.929349,15 0.643749,11.787408 0.511719,7.75 0.508979,7.83366 0.5,7.915651 0.5,8 c 0,4.155 3.345,7.5 7.5,7.5 z"
       inkscape:connector-curvature="0" />
  </g>
</svg>
