<?xml version="1.0" encoding="UTF-8" standalone="no"?>
<svg
   xmlns:dc="http://purl.org/dc/elements/1.1/"
   xmlns:cc="http://creativecommons.org/ns#"
   xmlns:rdf="http://www.w3.org/1999/02/22-rdf-syntax-ns#"
   xmlns:svg="http://www.w3.org/2000/svg"
   xmlns="http://www.w3.org/2000/svg"
   xmlns:sodipodi="http://sodipodi.sourceforge.net/DTD/sodipodi-0.dtd"
   xmlns:inkscape="http://www.inkscape.org/namespaces/inkscape"
   height="16"
   width="16"
   version="1.1"
   id="svg6"
   sodipodi:docname="emblem-people.svg"
   inkscape:version="0.92.4 (5da689c313, 2019-01-14)">
  <metadata
     id="metadata12">
    <rdf:RDF>
      <cc:Work
         rdf:about="">
        <dc:format>image/svg+xml</dc:format>
        <dc:type
           rdf:resource="http://purl.org/dc/dcmitype/StillImage" />
      </cc:Work>
    </rdf:RDF>
  </metadata>
  <defs
     id="defs10" />
  <sodipodi:namedview
     pagecolor="#ffffff"
     bordercolor="#666666"
     borderopacity="1"
     objecttolerance="10"
     gridtolerance="10"
     guidetolerance="10"
     inkscape:pageopacity="0"
     inkscape:pageshadow="2"
     inkscape:window-width="1920"
     inkscape:window-height="1016"
     id="namedview8"
     showgrid="false"
     inkscape:zoom="14.75"
     inkscape:cx="8"
     inkscape:cy="8"
     inkscape:window-x="0"
     inkscape:window-y="27"
     inkscape:window-maximized="1"
     inkscape:current-layer="g834" />
  <rect
     fill="#618bf5"
     height="15"
     rx="7.5"
     transform="matrix(0 -1 -1 0 0 0)"
     width="15"
     x="-15.5"
     y="-15.5"
     id="rect2" />
  <path
     d="m9.6395999 3.3087802c-.30484 0-.59223.0566-.85615.17064l-.00053.00018-.00034.00018c-.26246.10835-.49342.26689-.68656.47213l-.00033.00033-.001.002-.00053.00052c-.18807.20633-.33391.45483-.4372.73955v.0002l-.0002.00035c-.10453.28327-.15586.59502-.15586.93139 0 .34139.0512.65534.15586.93904.10347.28026.24948.5260997.43737.7322597l.00053.00052.001.001.00035.00035.00019.0002c.19307.20525.42352.36639.68552.47995l.00052.0002.00053.00052.00053.00035.00052.00019c.26384.10864.55086.1623.85545.1623.3046004 0 .5917901-.0537.8556401-.1623l.001-.00052.001-.00053c.26237-.11372.49079-.27581.67908-.48221l.00035-.00035.00019-.00019c.19303-.20593.34223-.4519197.44572-.7322597.10472-.28368.15551-.59763.15551-.93904 0-.33587-.051-.6471-.15517-.93l-.00053-.002c-.10332-.28477-.25217-.53329-.44537-.73939l-.00019-.00019-.00034-.00034c-.1884-.20652-.41754-.366-.68047-.47455l-.00052-.00018-.00034-.00019c-.26342-.11378-.5504097-.17043-.8545901-.17061zm-.001.36353h.001c.26105 0 .4973101.0476.7140001.14144l.00053.00019.00052.00036.00053.00033.00053.00021c.21716.0894.39958.21667.55274.38471l.00053.00053.001.002c.15809.16835.28145.37215.37013.61721l.001.004.00053.003v.00035c.0866.2368.13136.50224.13136.79968 0 .30532-.0455.57521-.13328.81306-.0885.23987-.21175.44179-.37047.6107897l-.00053.00052-.001.001-.00052.00053c-.15313.16799-.33593.29781-.5531.39236l-.00053.00036-.00052.0002c-.21697.0891-.4539201.13449-.7155801.13449-.26165 0-.4986-.0454-.71557-.13449l-.00052-.0002-.00053-.00036c-.21713-.0945-.40292-.22477-.56161-.39323l-.00035-.00035-.00034-.00035c-.15363-.1689597-.27492-.3713497-.36369-.6118297-.0878-.23785-.13328-.50773-.13328-.81306 0-.29803.0449-.5641.13189-.80124l.00053-.003.00034-.00052.00034-.001c.0889-.24569.21029-.44993.36334-.61826l.00035-.00034.00034-.00034c.15876-.16852.34401-.29621.56109-.3856l.001-.00034.0002-.0002.001-.00035c.21644-.0938.45246-.14136.71314-.14145zm-4.41709.70484c-.23088 0-.45014.0432-.65128.12997l-.00034.00021-.00033.0002c-.20001.0826-.37702.20396-.52426.36056l-.00052.00053-.00033.00035-.00033.00035-.00052.00052c-.14371.15762-.25474.3473-.33295.56318l-.00033.00052c-.00006.00007-.00006.00034-.0002.00035-.079.21477-.11747.45018-.11747.70289 0 .25701.0386.4949.11816.71054.0784.2121897.18952.3996097.33277.5567497l.00053.00053.001.001c.14711.15646.32341.27952.52287.36595l.00034.0002.003.001.00019.00019c.20075.0825.41927.12304.64954.12304.23035 0 .44858-.0405.64938-.12304.00006-.00005.00034-.00005.00034-.00019l.002-.001.001-.00053c.19958-.0865.37438-.21016.518-.36752l.00034-.00035.0002-.00035c.147-.15691.26065-.34432.33902-.5565797.0796-.21564.11798-.45353.11798-.71053 0-.25291-.0385-.48851-.11763-.70341l-.00021-.00053c-.0783-.21619-.19181-.406-.33954-.56353l-.00034-.00034-.0002-.00036c-.14366-.15725-.31908-.27901-.51904-.3616l-.00034-.0002-.00034-.0002c-.20115-.0868-.42021-.13002-.65109-.13002zm-.0106.36369h.0106c.18707 0 .35491.0339.50879.10062l.00052.00019.001.00035.001.00052c.15412.0634.28246.15327.39081.27195l.00053.00053.00052.00035.001.001c.11234.11948.20012.26464.26378.4405l.00052.003c.0625.16981.095.3613.095.57743 0 .22091-.0327.41475-.0954.58455-.0635.17203-.15158.3155697-.26447.4356397l-.00053.00052-.00052.00035-.00034.00035-.00053.00053c-.10866.11919-.23823.21088-.39288.2782l-.00053.00034-.00052.0002c-.15382.063-.32198.0956-.50932.0956-.18738 0-.35575-.0325-.50965-.0956l-.00053-.0002-.00052-.00034c-.15453-.0673-.28606-.15942-.3988-.2789l-.00033-.00035-.00034-.00035c-.10905-.11993-.19587-.2635297-.2596-.4361497-.0627-.16993-.0954-.36382-.0954-.58473 0-.21641.0325-.40816.0952-.57812.00007-.00034.00007-.00053.0002-.001l.00021-.00021.00019-.00053c.0639-.17646.15076-.32168.25926-.44102l.00034-.00034.00032-.00036c.11256-.11924.24324-.20969.39742-.27316l.001-.00035.001-.00052c.14988-.065.31399-.0975.49524-.0992zm4.47931 3.9877097c-1.6032 0-2.5805.14619-3.19123.5988-.30437.22556-.50446.53144-.61949.8975101-.11069.3523-.14724.79405-.15118 1.27363l.3637.001c.004-.45945.0411-.86828.13449-1.16538.0971-.30917.24723-.5352401.48916-.7145301.48653-.36056 1.39536-.52738 2.97455-.52738 1.5791901 0 2.4879301.16689 2.9740301.52738.24168.17924.39155.4052301.48828.7143601.0929.29706.12936.70581.13276 1.1652l.3637-.00034c-.003-.47961-.0391-.92113-.14927-1.27346-.11456-.3660901-.31476-.6722601-.61897-.8978501-.61041-.4527-1.58734-.59881-3.1905301-.59881zm-4.57682-.0762c-1.13654.003-1.8079.11416-2.26334.45391-.23044.17189-.38355.40906-.46951.68777-.0863.2797201-.11331.6024201-.11416.9837001v.00034.54334h.36352v-.54265-.00053c.00053-.36336.0291-.65362.098-.8770001.0685-.22217.17217-.37867.33937-.50341.33238-.24794.93531-.37734 2.04614-.38162z"
     fill="#fff"
     stroke="#fff"
     stroke-width=".1"
     id="path4" />
  <g
     id="g834">
    <path
       style="opacity:0.3;fill:#ffffff;fill-opacity:1"
       id="rect822"
       d="M 8,0.5 C 3.845,0.5 0.5,3.845 0.5,8 0.5,8.084349 0.508983,8.16634 0.5117188,8.25 0.64374905,4.2125917 3.9293489,1 8,1 12.070651,1 15.356251,4.2125917 15.488281,8.25 15.491017,8.16634 15.5,8.0843489 15.5,8 15.5,3.845 12.155,0.5 8,0.5 Z"
       inkscape:connector-curvature="0" />
    <path
       inkscape:connector-curvature="0"
       d="m 8,15.5 c 4.155,0 7.5,-3.345 7.5,-7.5 C 15.5,7.91565 15.491,7.83366 15.48828,7.75 15.356251,11.787408 12.070651,15 8,15 3.929349,15 0.643749,11.787408 0.511719,7.75 0.508979,7.83366 0.5,7.915651 0.5,8 c 0,4.155 3.345,7.5 7.5,7.5 z"
       id="path827"
       style="opacity:0.2;fill:#000000;fill-opacity:1" />
  </g>
</svg>
