<?xml version="1.0" encoding="UTF-8" standalone="no"?>
<svg
   xmlns:osb="http://www.openswatchbook.org/uri/2009/osb"
   xmlns:dc="http://purl.org/dc/elements/1.1/"
   xmlns:cc="http://creativecommons.org/ns#"
   xmlns:rdf="http://www.w3.org/1999/02/22-rdf-syntax-ns#"
   xmlns:svg="http://www.w3.org/2000/svg"
   xmlns="http://www.w3.org/2000/svg"
   xmlns:sodipodi="http://sodipodi.sourceforge.net/DTD/sodipodi-0.dtd"
   xmlns:inkscape="http://www.inkscape.org/namespaces/inkscape"
   height="16"
   id="svg7384"
   version="1.1"
   width="16"
   sodipodi:docname="emblem-system.svg"
   inkscape:version="0.92.4 (5da689c313, 2019-01-14)">
  <sodipodi:namedview
     pagecolor="#ffffff"
     bordercolor="#666666"
     borderopacity="1"
     objecttolerance="10"
     gridtolerance="10"
     guidetolerance="10"
     inkscape:pageopacity="0"
     inkscape:pageshadow="2"
     inkscape:window-width="1920"
     inkscape:window-height="1016"
     id="namedview23"
     showgrid="false"
     inkscape:zoom="14.677089"
     inkscape:cx="-6.9479575"
     inkscape:cy="8.0397415"
     inkscape:window-x="0"
     inkscape:window-y="27"
     inkscape:window-maximized="1"
     inkscape:current-layer="svg7384" />
  <metadata
     id="metadata20854">
    <rdf:RDF>
      <cc:Work
         rdf:about="">
        <dc:title />
        <dc:format>image/svg+xml</dc:format>
        <dc:type
           rdf:resource="http://purl.org/dc/dcmitype/StillImage" />
      </cc:Work>
    </rdf:RDF>
  </metadata>
  <defs
     id="defs7386">
    <linearGradient
       id="linearGradient5606"
       osb:paint="solid">
      <stop
         id="stop5608"
         offset="0"
         style="stop-color:#000000;stop-opacity:1;" />
    </linearGradient>
    <linearGradient
       id="linearGradient4526"
       osb:paint="solid">
      <stop
         id="stop4528"
         offset="0"
         style="stop-color:#ffffff;stop-opacity:1;" />
    </linearGradient>
    <linearGradient
       id="linearGradient3600-4"
       osb:paint="gradient">
      <stop
         id="stop3602-7"
         offset="0"
         style="stop-color:#f4f4f4;stop-opacity:1" />
      <stop
         id="stop3604-6"
         offset="1"
         style="stop-color:#dbdbdb;stop-opacity:1" />
    </linearGradient>
  </defs>
  <g
     id="layer9"
     label="status"
     style="display:inline"
     transform="translate(-533.0002,107.00001)" />
  <g
     id="layer2"
     style="display:inline"
     transform="translate(-292,-259.99999)" />
  <g
     id="layer4"
     style="display:inline"
     transform="translate(-292,-259.99999)" />
  <g
     id="g6217"
     style="display:inline"
     transform="translate(-292,-259.99999)" />
  <g
     id="layer3"
     style="display:inline"
     transform="translate(-292,-259.99999)" />
  <g
     id="g1833"
     style="display:inline"
     transform="translate(-292,-259.99999)" />
  <g
     id="layer1"
     style="display:inline"
     transform="translate(-292,-259.99999)" />
  <rect
     transform="matrix(0,-1,-1,0,0,0)"
     style="display:inline;fill:#5d5d5d;fill-opacity:1;stroke:none;stroke-width:0.03348215;enable-background:new"
     id="rect4418"
     width="15"
     height="15"
     x="-15.5"
     y="-15.5"
     rx="7.5"
     ry="7.5" />
  <g
     style="display:inline;opacity:1;stroke-width:0.13345543;enable-background:new"
     transform="matrix(0.73095201,0,0,0.73095201,-237.59963,-100.18089)"
     id="g989">
    <rect
       style="color:#000000;display:inline;overflow:visible;visibility:visible;fill:none;stroke:none;stroke-width:0.08895268;marker:none;enable-background:accumulate"
       id="rect981"
       width="16"
       height="16"
       x="140.03975"
       y="-343.99234"
       transform="rotate(90)" />
    <path
       style="color:#000000;display:inline;overflow:visible;visibility:visible;fill:#e6e6e6;fill-opacity:1;fill-rule:nonzero;stroke:none;stroke-width:0.04448514;marker:none;enable-background:accumulate"
       d="m 337.31472,139.96026 -2.63222,0.39327 v 1.35335 a 6.4893367,6.4774947 43.145679 0 1 2.63222,0.005 v -1.75146 z m -5.38585,1.19061 -2.00544,1.70491 0.98801,1.17757 a 6.4893367,6.4774947 43.145679 0 1 2.01736,-1.69076 z m 8.12867,0.0127 -0.99285,1.18353 a 6.4893367,6.4774947 43.145679 0 1 0.17056,0.0905 6.4893367,6.4774947 43.145679 0 1 1.84457,1.60287 l 1.00514,-1.19769 z m -11.60999,4.21684 -0.44056,2.59535 1.51535,0.26739 a 6.4893367,6.4774947 43.145679 0 1 0.45509,-2.59274 z m 15.08573,0.003 -1.5228,0.26851 a 6.4893367,6.4774947 43.145679 0 1 0.46365,2.59088 l 1.53286,-0.27 z m -13.68247,4.69464 -1.35149,0.78058 h -3.4e-4 l 1.33101,2.27098 1.33808,-0.77238 a 6.4893367,6.4774947 43.145679 0 1 -1.31723,-2.27918 z m 12.30081,0.003 a 6.4893367,6.4774947 43.145679 0 1 -0.53478,1.21481 6.4893367,6.4774947 43.145679 0 1 -0.77388,1.0692 l 1.33883,0.77313 1.30158,-2.28811 z m -9.55687,3.47164 -0.53479,1.4688 2.47953,0.88448 0.52585,-1.44534 a 6.4893367,6.4774947 43.145679 0 1 -2.30338,-0.79995 6.4893367,6.4774947 43.145679 0 1 -0.16721,-0.10799 z m 6.8133,0.0153 a 6.4893367,6.4774947 43.145679 0 1 -2.47468,0.89752 l 0.53031,1.45651 2.46761,-0.91651 z"
       id="path983"
       inkscape:connector-curvature="0" />
    <circle
       r="6.4400001"
       cy="148"
       cx="336"
       id="circle985"
       style="opacity:1;fill:none;fill-opacity:1;stroke:#e6e6e6;stroke-width:0.5338217;stroke-linecap:square;stroke-linejoin:round;stroke-miterlimit:4;stroke-dasharray:none;stroke-dashoffset:0;stroke-opacity:1" />
    <circle
       style="opacity:1;fill:none;fill-opacity:1;stroke:#e6e6e6;stroke-width:0.5338217;stroke-linecap:square;stroke-linejoin:round;stroke-miterlimit:4;stroke-dasharray:none;stroke-dashoffset:0;stroke-opacity:1"
       id="circle987"
       cx="336"
       cy="148"
       r="4.4400001" />
  </g>
</svg>
