<svg height="16" width="16" xmlns="http://www.w3.org/2000/svg">
  <path d="m518.7559 201c-.48485 1.0101-.95009 2.03328-1.39453 3.07031-.44445 1.02357-.89561 2.1011-1.35352 3.23242-.2098.53405-.4328 1.13327-.64843 1.69727h-.85938c-.831 0-1.5.669-1.5 1.5 0 .74119.53361 1.34896 1.23828 1.47266-.36109.96894-.72149 1.93381-1.11914 3.02734h2.6582l1.06836-3h6.1543c.36116 1.01205.86169 2.08327 1.19988 3h2.61457c-.41034-1.08092-.77559-2.04944-1.14062-3.01758.74736-.0867 1.32617-.71105 1.32617-1.48242 0-.831-.669-1.5-1.5-1.5h-.9707c-.21556-.55206-.43194-1.11772-.64453-1.63672-.44445-1.13131-1.33399-3.25195-1.33399-3.25195s-.91574-2.07429-1.41406-3.11133h-1.19727zm1.24414 2.5 2 5.5h-4.08594l2.08599-5.5zm-5.5 6.5h3.93359 3.06641 4.06641c.24027 0 .43359.19332.43359.43359v.13282c0 .24027-.19332.43359-.43359.43359h-4.06641-3.06641-3.93359c-.277 0-.5-.223-.5-.5s.223-.5.5-.5z" fill="#f2f2f7" transform="translate(-512.00004 -199.99994)"/>
</svg>
