<svg xmlns="http://www.w3.org/2000/svg" width="16" height="16" version="1.1" viewBox="0 0 16 16">
 <defs>
  <style id="style2" type="text/css">
   .ColorScheme-Text { color:#4d4d4d; }
  </style>
 </defs>
 <path style="fill:#f2f2f7" class="ColorScheme-Text" d="M 8,0.5 C 3.845,0.5 0.5,3.845 0.5,8 c 0,4.155 3.345,7.5 7.5,7.5 4.155,0 7.5,-3.345 7.5,-7.5 C 15.5,3.845 12.155,0.5 8,0.5 Z m 0,0.9375 c 3.635625,0 6.5625,2.926875 6.5625,6.5625 0,3.635625 -2.926875,6.5625 -6.5625,6.5625 C 4.364375,14.5625 1.4375,11.635625 1.4375,8 1.4375,4.364375 4.364375,1.4375 8,1.4375 Z m -2.8125,3.75 v 5.625 h 1.875 v -5.625 z m 3.75,0 v 5.625 h 1.875 v -5.625 z"/>
</svg>
