<svg height="16" viewBox="0 0 16 16" width="16" xmlns="http://www.w3.org/2000/svg">
  <path d="m.364 0c-.201 0-.364.163-.364.364v15.272c0 .201.163.364.364.364h4c.2 0 .363-.163.363-.364v-15.272c0-.201-.163-.364-.363-.364zm7.302.891c-.144-.018-.285.051-.359.176l-1.852 3.145v4.592l1.416.815-.371.625-1.045-.602v3.888l5.926-10.064c.101-.174.043-.398-.131-.5l-3.446-2.029c-.042-.024-.089-.04-.138-.046zm-1.608 3.676 2.845 1.637-.371.625-2.847-1.638zm6.665.164c-.047.008-.092.024-.134.049l-1.777 1.083-.896 1.519 1.649 2.706-.62.378-1.446-2.373-1.884 3.2.534.877-.621.377-.331-.543-1.465 2.49 9.318-5.678c.082-.05.141-.13.164-.224.022-.093.007-.192-.043-.274l-2.082-3.417c-.05-.082-.13-.141-.224-.164-.046-.011-.095-.013-.142-.006zm-.306 6.542-1.144.7-3.273 2.003v1.297h-.727v-.853l-1.818 1.114v.466h10.181c.201 0 .364-.163.364-.364v-4c0-.2-.163-.363-.364-.363zm-1.144.727h.727v3.273h-.727zm-8.909 1.091c.301 0 .545.244.545.545 0 .302-.244.546-.545.546-.302 0-.546-.244-.546-.546 0-.301.244-.545.546-.545z" fill="#f2f2f7"/>
</svg>
