<?xml version="1.0" encoding="UTF-8" standalone="no"?>
<svg
   xmlns:dc="http://purl.org/dc/elements/1.1/"
   xmlns:cc="http://creativecommons.org/ns#"
   xmlns:rdf="http://www.w3.org/1999/02/22-rdf-syntax-ns#"
   xmlns:svg="http://www.w3.org/2000/svg"
   xmlns="http://www.w3.org/2000/svg"
   xmlns:sodipodi="http://sodipodi.sourceforge.net/DTD/sodipodi-0.dtd"
   xmlns:inkscape="http://www.inkscape.org/namespaces/inkscape"
   width="16px"
   height="16px"
   viewBox="0 0 16 16"
   version="1.1"
   id="svg197"
   sodipodi:docname="org.gnome.design.AppIconPreview-symbolic.svg"
   inkscape:version="0.92.5 (2060ec1f9f, 2020-04-08)">
  <metadata
     id="metadata201">
    <rdf:RDF>
      <cc:Work
         rdf:about="">
        <dc:format>image/svg+xml</dc:format>
        <dc:type
           rdf:resource="http://purl.org/dc/dcmitype/StillImage" />
      </cc:Work>
    </rdf:RDF>
  </metadata>
  <sodipodi:namedview
     pagecolor="#ffffff"
     bordercolor="#666666"
     borderopacity="1"
     objecttolerance="10"
     gridtolerance="10"
     guidetolerance="10"
     inkscape:pageopacity="0"
     inkscape:pageshadow="2"
     inkscape:window-width="1920"
     inkscape:window-height="1016"
     id="namedview199"
     showgrid="true"
     inkscape:zoom="52.750001"
     inkscape:cx="8.0379148"
     inkscape:cy="6.5118486"
     inkscape:window-x="0"
     inkscape:window-y="27"
     inkscape:window-maximized="1"
     inkscape:current-layer="surface6236">
    <inkscape:grid
       type="xygrid"
       id="grid1074" />
  </sodipodi:namedview>
  <defs
     id="defs148">
    <filter
       id="alpha"
       filterUnits="objectBoundingBox"
       x="0%"
       y="0%"
       width="100%"
       height="100%">
      <feColorMatrix
         type="matrix"
         in="SourceGraphic"
         values="0 0 0 0 1 0 0 0 0 1 0 0 0 0 1 0 0 0 1 0"
         id="feColorMatrix2" />
    </filter>
    <mask
       id="mask0">
      <g
         filter="url(#alpha)"
         id="g7">
        <rect
           x="0"
           y="0"
           width="16"
           height="16"
           style="fill:rgb(0%,0%,0%);fill-opacity:0.1;stroke:none;"
           id="rect5" />
      </g>
    </mask>
    <clipPath
       id="clip1">
      <rect
         x="0"
         y="0"
         width="192"
         height="152"
         id="rect10" />
    </clipPath>
    <g
       id="surface6291"
       clip-path="url(#clip1)">
      <path
         style=" stroke:none;fill-rule:nonzero;fill:rgb(0%,0%,0%);fill-opacity:1;"
         d="M 44 84 L 72 84 L 72 86 L 44 86 Z M 44 84 "
         id="path13" />
    </g>
    <mask
       id="mask1">
      <g
         filter="url(#alpha)"
         id="g18">
        <rect
           x="0"
           y="0"
           width="16"
           height="16"
           style="fill:rgb(0%,0%,0%);fill-opacity:0.2;stroke:none;"
           id="rect16" />
      </g>
    </mask>
    <clipPath
       id="clip2">
      <rect
         x="0"
         y="0"
         width="192"
         height="152"
         id="rect21" />
    </clipPath>
    <g
       id="surface6294"
       clip-path="url(#clip2)">
      <path
         style=" stroke:none;fill-rule:nonzero;fill:rgb(0%,0%,0%);fill-opacity:1;"
         d="M 72 84 L 100 84 L 100 86 L 72 86 Z M 72 84 "
         id="path24" />
    </g>
    <mask
       id="mask2">
      <g
         filter="url(#alpha)"
         id="g29">
        <rect
           x="0"
           y="0"
           width="16"
           height="16"
           style="fill:rgb(0%,0%,0%);fill-opacity:0.2;stroke:none;"
           id="rect27" />
      </g>
    </mask>
    <clipPath
       id="clip3">
      <rect
         x="0"
         y="0"
         width="192"
         height="152"
         id="rect32" />
    </clipPath>
    <g
       id="surface6297"
       clip-path="url(#clip3)">
      <path
         style=" stroke:none;fill-rule:nonzero;fill:rgb(0%,0%,0%);fill-opacity:1;"
         d="M 72 82 L 100 82 L 100 84 L 72 84 Z M 72 82 "
         id="path35" />
    </g>
    <mask
       id="mask3">
      <g
         filter="url(#alpha)"
         id="g40">
        <rect
           x="0"
           y="0"
           width="16"
           height="16"
           style="fill:rgb(0%,0%,0%);fill-opacity:0.1;stroke:none;"
           id="rect38" />
      </g>
    </mask>
    <clipPath
       id="clip4">
      <rect
         x="0"
         y="0"
         width="192"
         height="152"
         id="rect43" />
    </clipPath>
    <g
       id="surface6300"
       clip-path="url(#clip4)">
      <path
         style=" stroke:none;fill-rule:nonzero;fill:rgb(0%,0%,0%);fill-opacity:1;"
         d="M 44 82 L 72 82 L 72 84 L 44 84 Z M 44 82 "
         id="path46" />
    </g>
    <mask
       id="mask4">
      <g
         filter="url(#alpha)"
         id="g51">
        <rect
           x="0"
           y="0"
           width="16"
           height="16"
           style="fill:rgb(0%,0%,0%);fill-opacity:0.33;stroke:none;"
           id="rect49" />
      </g>
    </mask>
    <clipPath
       id="clip5">
      <rect
         x="0"
         y="0"
         width="192"
         height="152"
         id="rect54" />
    </clipPath>
    <g
       id="surface6303"
       clip-path="url(#clip5)">
      <path
         style=" stroke:none;fill-rule:nonzero;fill:rgb(0%,0%,0%);fill-opacity:1;"
         d="M 63.359375 55.386719 L 62.175781 59.210938 L 44 114 L 44 122 L 52 118 L 69.820312 61.574219 L 71.003906 57.75 Z M 63.359375 55.386719 "
         id="path57" />
    </g>
    <mask
       id="mask5">
      <g
         filter="url(#alpha)"
         id="g62">
        <rect
           x="0"
           y="0"
           width="16"
           height="16"
           style="fill:rgb(0%,0%,0%);fill-opacity:0.25;stroke:none;"
           id="rect60" />
      </g>
    </mask>
    <clipPath
       id="clip6">
      <rect
         x="0"
         y="0"
         width="192"
         height="152"
         id="rect65" />
    </clipPath>
    <g
       id="surface6306"
       clip-path="url(#clip6)">
      <path
         style=" stroke:none;fill-rule:nonzero;fill:rgb(0%,0%,0%);fill-opacity:1;"
         d="M 80.640625 55.386719 L 81.824219 59.210938 L 100 114 L 100 122 L 92 118 L 74.175781 61.574219 L 72.996094 57.75 Z M 80.640625 55.386719 "
         id="path68" />
    </g>
    <mask
       id="mask6">
      <g
         filter="url(#alpha)"
         id="g73">
        <rect
           x="0"
           y="0"
           width="16"
           height="16"
           style="fill:rgb(0%,0%,0%);fill-opacity:0.8;stroke:none;"
           id="rect71" />
      </g>
    </mask>
    <clipPath
       id="clip7">
      <rect
         x="0"
         y="0"
         width="192"
         height="152"
         id="rect76" />
    </clipPath>
    <g
       id="surface6309"
       clip-path="url(#clip7)">
      <path
         style=" stroke:none;fill-rule:nonzero;fill:rgb(87.058824%,86.666667%,85.490197%);fill-opacity:1;"
         d="M 80.640625 52.386719 L 81.824219 56.210938 L 100 112 L 100 120 L 96 113 L 76.820312 53.570312 Z M 80.640625 52.386719 "
         id="path79" />
    </g>
    <mask
       id="mask7">
      <g
         filter="url(#alpha)"
         id="g84">
        <rect
           x="0"
           y="0"
           width="16"
           height="16"
           style="fill:rgb(0%,0%,0%);fill-opacity:0.05;stroke:none;"
           id="rect82" />
      </g>
    </mask>
    <clipPath
       id="clip8">
      <rect
         x="0"
         y="0"
         width="192"
         height="152"
         id="rect87" />
    </clipPath>
    <g
       id="surface6312"
       clip-path="url(#clip8)">
      <path
         style=" stroke:none;fill-rule:evenodd;fill:rgb(0%,0%,0%);fill-opacity:1;"
         d="M 44 120.160156 L 48 113 L 52 116 Z M 44 120.160156 "
         id="path90" />
    </g>
    <mask
       id="mask8">
      <g
         filter="url(#alpha)"
         id="g95">
        <rect
           x="0"
           y="0"
           width="16"
           height="16"
           style="fill:rgb(0%,0%,0%);fill-opacity:0.05;stroke:none;"
           id="rect93" />
      </g>
    </mask>
    <clipPath
       id="clip9">
      <rect
         x="0"
         y="0"
         width="192"
         height="152"
         id="rect98" />
    </clipPath>
    <g
       id="surface6315"
       clip-path="url(#clip9)">
      <path
         style=" stroke:none;fill-rule:evenodd;fill:rgb(0%,0%,0%);fill-opacity:1;"
         d="M 100 120.160156 L 96 113 L 92 116 Z M 100 120.160156 "
         id="path101" />
    </g>
    <mask
       id="mask9">
      <g
         filter="url(#alpha)"
         id="g106">
        <rect
           x="0"
           y="0"
           width="16"
           height="16"
           style="fill:rgb(0%,0%,0%);fill-opacity:0.05;stroke:none;"
           id="rect104" />
      </g>
    </mask>
    <clipPath
       id="clip10">
      <rect
         x="0"
         y="0"
         width="192"
         height="152"
         id="rect109" />
    </clipPath>
    <g
       id="surface6318"
       clip-path="url(#clip10)">
      <path
         style=" stroke:none;fill-rule:evenodd;fill:rgb(0%,0%,0%);fill-opacity:1;"
         d="M 44 120.160156 L 48 113 L 44 112 Z M 44 120.160156 "
         id="path112" />
    </g>
    <mask
       id="mask10">
      <g
         filter="url(#alpha)"
         id="g117">
        <rect
           x="0"
           y="0"
           width="16"
           height="16"
           style="fill:rgb(0%,0%,0%);fill-opacity:0.05;stroke:none;"
           id="rect115" />
      </g>
    </mask>
    <clipPath
       id="clip11">
      <rect
         x="0"
         y="0"
         width="192"
         height="152"
         id="rect120" />
    </clipPath>
    <g
       id="surface6321"
       clip-path="url(#clip11)">
      <path
         style=" stroke:none;fill-rule:evenodd;fill:rgb(0%,0%,0%);fill-opacity:1;"
         d="M 100 120.078125 L 96 112.921875 L 100 111.921875 Z M 100 120.078125 "
         id="path123" />
    </g>
    <mask
       id="mask11">
      <g
         filter="url(#alpha)"
         id="g128">
        <rect
           x="0"
           y="0"
           width="16"
           height="16"
           style="fill:rgb(0%,0%,0%);fill-opacity:0.2;stroke:none;"
           id="rect126" />
      </g>
    </mask>
    <clipPath
       id="clip12">
      <rect
         x="0"
         y="0"
         width="192"
         height="152"
         id="rect131" />
    </clipPath>
    <g
       id="surface6324"
       clip-path="url(#clip12)">
      <path
         style=" stroke:none;fill-rule:nonzero;fill:rgb(0%,0%,0%);fill-opacity:1;"
         d="M 68 84 L 68 90 C 68 91.109375 68.890625 92 70 92 L 74 92 C 75.109375 92 76 91.109375 76 90 L 76 84 Z M 68 84 "
         id="path134" />
    </g>
    <mask
       id="mask12">
      <g
         filter="url(#alpha)"
         id="g139">
        <rect
           x="0"
           y="0"
           width="16"
           height="16"
           style="fill:rgb(0%,0%,0%);fill-opacity:0.1;stroke:none;"
           id="rect137" />
      </g>
    </mask>
    <clipPath
       id="clip13">
      <rect
         x="0"
         y="0"
         width="192"
         height="152"
         id="rect142" />
    </clipPath>
    <g
       id="surface6327"
       clip-path="url(#clip13)">
      <path
         style=" stroke:none;fill-rule:nonzero;fill:rgb(100%,100%,100%);fill-opacity:1;"
         d="M 68 82 L 68 76 C 68 74.890625 68.890625 74 70 74 L 74 74 C 75.109375 74 76 74.890625 76 76 L 76 82 Z M 68 82 "
         id="path145" />
    </g>
  </defs>
  <g
     id="surface6236">
    <path
       inkscape:connector-curvature="0"
       style="fill:#f2f2f7;fill-opacity:1;fill-rule:nonzero;stroke:none;opacity:1"
       d="m 7.0000005,6e-7 h 2 v 2.0000001 l -1,1 -1,-1 z m 0,0"
       id="path176" />
    <path
       inkscape:connector-curvature="0"
       style="fill:#f2f2f7;fill-opacity:1;fill-rule:nonzero;stroke:none;opacity:1"
       d="m 8.0000005,2.0000007 c -1.105469,0 -2.0000005,0.894531 -2.0000005,2 0,1.105469 0.8945315,2 2.0000005,2 1.105469,0 1.9999995,-0.894531 1.9999995,-2 0,-1.105469 -0.8945305,-2 -1.9999995,-2 z m 0,1 c 0.550781,0 1,0.449219 1,1 0,0.550781 -0.449219,1 -1,1 -0.550781,0 -1,-0.449219 -1,-1 0,-0.550781 0.449219,-1 1,-1 z m 0,0"
       id="path178" />
    <path
       inkscape:connector-curvature="0"
       style="fill:#f2f2f7;fill-opacity:1;fill-rule:nonzero;stroke:none;opacity:1"
       d="m 4,12 h 1 v 1 H 4 Z m 0,0"
       id="path180" />
    <path
       inkscape:connector-curvature="0"
       style="fill:#f2f2f7;fill-opacity:1;fill-rule:nonzero;stroke:none;opacity:1"
       d="m 11,12 h 1 v 1 h -1 z m 0,0"
       id="path182" />
    <path
       inkscape:connector-curvature="0"
       style="fill:#f2f2f7;fill-opacity:1;fill-rule:nonzero;stroke:none;opacity:1"
       d="M 3,9.0000007 H 13 V 10.000001 H 3 Z m 0,0"
       id="path184" />
    <path
       inkscape:connector-curvature="0"
       style="fill:#f2f2f7;fill-opacity:1;fill-rule:evenodd;stroke:none;opacity:1"
       d="m 6.367188,4.7343757 -0.316407,0.949219 -1.027343,3.074218 -0.3125,0.949219 1.894531,0.6328133 0.3203125,-0.9492193 1.023438,-3.074219 0.316406,-0.949218 z m 0,0"
       id="path186" />
    <path
       inkscape:connector-curvature="0"
       style="fill:#f2f2f7;fill-opacity:1;fill-rule:evenodd;stroke:none;opacity:1"
       d="m 9.6328125,4.7343757 -1.898437,0.632813 1.632813,4.8984373 1.8984365,-0.6328133 z m 0,0"
       id="path188" />
    <path
       inkscape:connector-curvature="0"
       style="fill:#f2f2f7;fill-opacity:1;fill-rule:evenodd;stroke:none;opacity:1"
       d="M 5.988281,8.0625007 C 5.546875,8.0586007 5.15625,8.3398447 5.023438,8.7578127 L 4.050781,11.683594 C 3.875,12.207031 4.160156,12.773438 4.683594,12.949219 5.207031,13.125 5.773438,12.839844 5.949219,12.316406 L 6.9257815,9.3906257 c 0.105469,-0.304687 0.05859,-0.640625 -0.128906,-0.90625 C 6.609375,8.2187507 6.308594,8.0625007 5.988281,8.0625007 Z m 0,0"
       id="path190" />
    <path
       inkscape:connector-curvature="0"
       style="fill:#f2f2f7;fill-opacity:1;fill-rule:evenodd;stroke:none;opacity:1"
       d="m 9.9570313,7.9882817 c -0.3164058,0.0078 -0.6093748,0.171875 -0.7890618,0.433594 -0.179688,0.261719 -0.222657,0.59375 -0.117188,0.894531 l 0.9999995,2.9999993 c 0.175781,0.523438 0.742188,0.808594 1.265625,0.632813 0.523438,-0.175781 0.808594,-0.742188 0.632813,-1.265625 l -1,-2.9999993 C 10.8125,8.2539067 10.410156,7.9687507 9.9570313,7.9882817 Z m 0,0"
       id="path192" />
    <path
       inkscape:connector-curvature="0"
       style="fill:#f2f2f7;fill-opacity:1;fill-rule:nonzero;stroke:none;opacity:1"
       d="m 2,4.0000007 c -1.089844,0 -2,0.910156 -2,2 V 14 c 0,1.089844 0.910156,2 2,2 h 12 c 1.089844,0 2,-0.910156 2,-2 V 6.0000007 c 0,-1.089844 -0.910156,-2 -2,-2 H 11 V 5 h 2.990521 c 0,0 0.573033,0.025712 0.763034,0.2085308 C 14.950494,5.3980266 15,5.9905215 15,5.9905215 v 7.9620855 c 0,0 -0.08789,0.538735 -0.265403,0.725118 C 14.544183,14.877659 13.971564,15 13.971564,15 H 2.0473933 c 0,0 -0.5690498,-0.0945 -0.7630331,-0.28436 C 1.1009139,14.536095 1,14 1,14 V 6.0094789 c 0,0 0.04064,-0.5745424 0.2274881,-0.7630334 C 1.4241416,5.0480632 2.028436,5 2.028436,5 H 5 V 4.0000007 Z"
       id="path194"
       sodipodi:nodetypes="sssssssscccaccaccaccacccs" />
  </g>
</svg>
