<svg height="16.00024" width="16.000219" xmlns="http://www.w3.org/2000/svg">
  <path d="m640.00004 220c-.23347.002-.46677.0132-.69922.0352-.12011.0123-.23993.0272-.35937.0449-.1392.0172-.27792.038-.41602.0625-.12433.0244-.24806.0517-.37109.082-.14092.032-.28094.0678-.41992.10742-.10884.0335-.21692.0693-.32422.10742-.14605.0492-.29064.10261-.4336.16016-.10714.0452-.21329.0927-.31836.14258-.13256.0596-.26347.12275-.39258.18945-2.62166 1.38381-4.26319 4.10389-4.26562 7.06836.00038 2.91072 1.58165 5.59154 4.12891 7h.0176c1.12698.62142 2.38724.96178 3.67383.99219.0599.003.11977.006.17969.008.23347-.002.46677-.0132.69922-.0352.12011-.0123.23993-.0272.35937-.0449.1392-.0172.27792-.038.41602-.0625.11776-.0234.23497-.0494.35156-.0781.15479-.0351.30851-.0749.46094-.11914.0864-.0272.17237-.0558.25781-.0859.16265-.0534.32354-.11204.48242-.17578.0978-.041.19488-.084.29102-.12891.15066-.0683.29917-.14125.44531-.21875 1.36302-.72538 2.487-1.82969 3.23633-3.17969v-.0176c.62142-1.12698.96178-2.38724.99219-3.67383.003-.0599.006-.11977.008-.17969-.002-.23347-.0132-.46677-.0352-.69922-.0123-.12011-.0272-.23993-.0449-.35937-.0172-.1392-.038-.27792-.0625-.41602-.0244-.12433-.0518-.24806-.082-.37109-.032-.14092-.0678-.28096-.10742-.41992-.0335-.10884-.0693-.21692-.10742-.32422-.0492-.14605-.10261-.29064-.16016-.4336-.0452-.10714-.0928-.21329-.14258-.31836-.0596-.13256-.12275-.26347-.18945-.39258-.71899-1.36149-1.81559-2.48657-3.1582-3.24023-.006-.00011-.01-.002-.0156-.002-.69887-.39233-1.45273-.67742-2.23633-.84571-.2287-.0478-.45939-.0856-.6914-.11328-.0325-.005-.0651-.0106-.0977-.0156h-.0117c-.16825-.0158-.33695-.0264-.50586-.0312-.11776-.009-.2345-.0145-.3518-.0178zm0 1a7 7 0 0 1 7 7 7 7 0 0 1 -7 7 7 7 0 0 1 -7-7 7 7 0 0 1 7-7zm3.57812 3.98828c-.10897-.0129-.23096.01-.33398.0859l-3.35937 2.00195c-.12197-.0505-.25274-.0763-.38477-.0761-.13711.0003-.27284.029-.39844.084l-2.3457-.99218c-.20603-.15201-.4867-.0939-.5918.0469l-.0859.11328c-.12662.16964-.10641.49636.0996.64844l2.33008.98242c-.005.0389-.007.078-.008.11719.00098.35628.19145.68514.5.86328v2.63664c0 .277.20866.5.46875.5h.0625c.26001 0 .46891-.223.46891-.5v-2.63477c.30916-.17849.49972-.50825.5-.86523 0-.0451-.004-.0902-.01-.13477l3.33204-1.98242c.20601-.15208.22622-.47882.0996-.64843l-.0859-.11329c-.0525-.0704-.14879-.11991-.25782-.13281z" fill="#f2f2f7" transform="translate(-632.00004 -219.99994)"/>
</svg>
