<svg height="16" width="16" xmlns="http://www.w3.org/2000/svg">
  <g fill="#f2f2f7" transform="translate(-552 -300)">
    <path d="m560 305c-1.65685 0-3 1.34315-3 3 .002 1.40576.97903 2.62193 2.35156 2.92578.39666.10442.40949.0515.57418.0723.0247.00096.0495.002.0743.002 1.65685 0 3-1.34315 3-3s-1.34315-3-3-3zm0 1.5c.82843 0 1.5.67157 1.5 1.5s-.67157 1.5-1.5 1.5-1.5-.67157-1.5-1.5.67157-1.5 1.5-1.5z" opacity=".5"/>
    <path d="m560 300a8 8 0 0 0 -8 8 8 8 0 0 0 8 8 8 8 0 0 0 8-8 8 8 0 0 0 -8-8zm0 1a7 7 0 0 1 7 7 7 7 0 0 1 -7 7 7 7 0 0 1 -7-7 7 7 0 0 1 7-7z"/>
    <path d="m560 302c-3.31371 0-6 2.68629-6 6 0 2.61164 1.67072 4.82807 4 5.65234l.3-.97234c-1.8213-.79488-3.29901-2.6928-3.3-4.68 0-2.76142 2.23858-5 5-5z" opacity=".5"/>
  </g>
</svg>
