<svg height="16" width="16" xmlns="http://www.w3.org/2000/svg"><path d="m8 1a7 7 0 1 0 0 14 7 7 0 0 0 0-14zm-2 4c.558 0 1.031.41 1.031.875v.781c0 .466-.473.844-1.031.844s-1-.378-1-.844v-.781c0-.465.442-.875 1-.875zm4 0c.558 0 1 .378 1 .844v.812c0 .466-.442.844-1 .844s-1-.378-1-.844v-.812c0-.466.442-.844 1-.844zm1.75 2.281c1.208.449 2.046.937 2.219 1.563a.993.993 0 0 1 -.938 1.25c-.519.007-.768-.216-.937-.875-.167-.66.083-1.293-.344-1.938zm-3.781 2.689c2.588 0 3.969.98 3.969 1.562v.531c-.793-.696-3.187-1-3.97-1-.781 0-3.018-.058-3.968 1v-.53c0-.745 1.38-1.563 3.969-1.563z" fill="#474747"/></svg>