<svg height="24" width="24" xmlns="http://www.w3.org/2000/svg">
  <path d="m12 1c-6.0719999 0-11 4.9280001-11 11 0 4.900294 3.2181727 9.020228 7.648438 10.441406l2.191406-6.53125c-1.698801-.510313-2.964844-2.045862-2.964844-3.910156.0000001-2.277 1.848-4.125 4.125-4.125zm-2.878906 21.613281c.352558.09531.708603.197643 1.074218.257813-.367153-.0597-.719683-.161817-1.074218-.257813zm1.246093.257813c.532988.07945 1.077822.128906 1.632813.128906-.556516 0-1.10021-.05077-1.632813-.128906z" fill="#fffafa" fill-rule="evenodd" opacity=".5"/>
  <path d="m12 1v6.875c2.277 0 4.125 1.848 4.125 4.125s-1.848 4.125-4.125 4.125c-.406677 0-.789729-.104376-1.160156-.214844l-2.191406 6.574219c1.059224.339637 2.180294.515625 3.351562.515625 6.072 0 11-4.928 11-11 0-6.0719999-4.928-11-11-11z" fill="#fff"/>
</svg>
