<svg height="16" width="16" xmlns="http://www.w3.org/2000/svg" xmlns:xlink="http://www.w3.org/1999/xlink"><linearGradient id="a" gradientUnits="userSpaceOnUse" x1="328" x2="328" y1="237" y2="251"><stop offset="0" stop-color="#fff"/><stop offset=".125" stop-color="#fff" stop-opacity=".098039"/><stop offset=".92500001" stop-color="#fff" stop-opacity=".098039"/><stop offset="1" stop-color="#fff" stop-opacity=".498039"/></linearGradient><clipPath id="b"><path d="m325.09646 237c-2.80769 0-3.10979.28839-3.09603 3.10176v3.89824 3.89824c-.0138 2.81337.28834 3.10176 3.09603 3.10176h5.8075c2.8077 0 3.09604-.28835 3.09604-3.10176v-3.89824-3.89824c0-2.8134-.28835-3.10176-3.09604-3.10176z"/></clipPath><linearGradient id="c" gradientTransform="matrix(0 -.03604403 .03604301 0 -3.564212 16.90909)" gradientUnits="userSpaceOnUse" x1="459.03448" x2="35.310345" y1="419.23337" y2="207.36522"><stop offset="0" stop-color="#f2f2f2"/><stop offset="1" stop-color="#f9f9f9"/></linearGradient><path d="m5.0962578.9999997c-.71904 0-1.30185.0139-1.83593.10352-.53409.0897-1.0683.27628-1.47657.68359-.40826.4073-.59657.94323-.68554 1.47851-.089.53529-.10119004 1.12048-.0977 1.8418v2.8925803 3.89844c-.003.71816.009 1.30235.0977 1.83594.089.53528.27727 1.07121.68554 1.47851.40827.40731.94248.59394 1.47657.68359.53408.0897 1.11689.10352 1.83593.10352h5.8086002c.71904 0 1.30058-.0137 1.83398-.10352.53341-.0898 1.06768-.27792 1.47461-.68554s.59404-.94271.68359-1.47656c.08956-.53386.10352-1.11551.10352-1.83594v-3.89844-2.8984403c0-.72043-.014-1.30208-.10352-1.83594-.0895-.53385-.27666-1.06894-.68359-1.47656s-.9412-.59578-1.47461-.68554c-.5334-.08977-1.11494-.10352-1.83398-.10352z" opacity=".1"/><path d="m5.0970178.9999997c-2.80769 0-3.10979.28839-3.09603 3.10176v3.8982403 3.89824c-.0138 2.81337.28834 3.10176 3.09603 3.10176h5.8075002c2.8077 0 3.09604-.28835 3.09604-3.10176v-3.89824-3.8982403c0-2.8134-.28835-3.10176-3.09604-3.10176z" fill="none" opacity=".2" stroke="#000" stroke-width="2"/><path d="m5.0970178.9999997c-2.80769 0-3.10979.28839-3.09603 3.10176v3.8982403 3.89824c-.0138 2.81337.28834 3.10176 3.09603 3.10176h5.8075002c2.8077 0 3.09604-.28835 3.09604-3.10176v-3.89824-3.8982403c0-2.8134-.28835-3.10176-3.09604-3.10176z" fill="url(#c)"/><path d="m5.0005578 5.9999997s-2 0-2 2.0000003v1c0 2 2 2 2 2h1v-1h-1s-1 0-1-1v-1c0-1 1-1 1-1h1v-1.0000003zm3 0v1.0000003h-1v1h1v1h-1v1h1v1h1v-1h1.0000002v1h1v-1h1v-1h-1v-1h1v-1h-1v-1.0000003h-1v1.0000003h-1.0000002v-1.0000003zm1 2.0000003h1.0000002v1h-1.0000002z" fill="#8c59d9"/><path d="m8.0005578.9999997v14.0000003h2.9043002c2.8077 0 3.0957-.28815 3.0957-3.10156v-3.89844-3.8984403c0-2.8134-.28801-3.10156-3.0957-3.10156z" fill="#fff" opacity=".2"/><path d="m2.0005578 8v3.89844c-.0138 2.81337.28801 3.10156 3.0957 3.10156h5.8086002c2.8077 0 3.0957-.28815 3.0957-3.10156v-3.89844z" fill="#fff" opacity=".2"/><path clip-path="url(#b)" d="m325.09646 237c-2.80769 0-3.10979.28839-3.09603 3.10176v3.89824 3.89824c-.0138 2.81337.28834 3.10176 3.09603 3.10176h5.8075c2.8077 0 3.09604-.28835 3.09604-3.10176v-3.89824-3.89824c0-2.8134-.28835-3.10176-3.09604-3.10176z" fill="none" opacity=".4" stroke="url(#a)" stroke-width="2" transform="translate(-319.99944 -236)"/></svg>