<svg height="16" width="16" xmlns="http://www.w3.org/2000/svg">
  <g fill="#808080" transform="translate(-612 -179.99994)">
    <path d="m617.13672 181.62305c-.26735.11903-.52697.25472-.77734.40625-.0854 1.24206-.11186 2.46684-.0625 3.66015.21136-.1141.44824-.18554.70312-.18554.10137 0 .20085.0118.29688.0312-.0491-1.25875-.0291-2.5564.082-3.89258zm6.16211.20703c-.0169.75686-.0849 1.5034-.20313 2.23828.12973-.037.26348-.0645.4043-.0645.21405 0 .41639.0486.60156.13086.0849-.54825.13966-1.1037.17578-1.66407-.30773-.24046-.63504-.45475-.97851-.64062zm-9.3125 2.60351c-.17399.29-.32673.59222-.45703.9043.60759.42109 1.22564.84164 1.86914 1.25391-.82208.3399-1.61365.76021-2.38867 1.23047-.004.0592-.007.11845-.01.17773.003.31507.027.62959.0723.94141.82021-.52963 1.6745-.97098 2.55859-1.3418-.0822-.18436-.13093-.38616-.13086-.59961-.00016-.4774.23271-.90117.58594-1.17578-.71749-.45476-1.41549-.9214-2.09961-1.39063zm12.18164.26758c-.4567.0202-.9247.0298-1.375.0566.12829.21999.20712.47136.20703.74219.00003.0847-.0116.16708-.0254.24805.52881-.0302 1.08034-.0433 1.62109-.0645-.11727-.33792-.26026-.66636-.42773-.98242zm-4.07031.28516c-1.46687.16701-2.88623.41422-4.25.7832.29865.20618.51671.51806.60546.87891 1.16603-.29432 2.38157-.50085 3.64063-.64844-.057-.15726-.0938-.32409-.0937-.5-.00006-.1809.0376-.35266.0977-.51367zm.40039 1.61719c-.15229.4736-.32269.93962-.51172 1.39843.005-.00004.009-.002.0137-.002.35106 0 .67262.12684.92969.33203.17948-.44115.34443-.88804.49219-1.34375-.35367-.0188-.67535-.15995-.92383-.38476zm-4.02149.62695c-.0553.34908-.23156.6569-.48633.88281.81971.44481 1.66091.8579 2.52539 1.22852.0372-.35232.19235-.6709.4336-.90821-.8428-.36186-1.66693-.76442-2.47266-1.20312zm-.89062 1.14258c-.1809.0778-.37807.12304-.58594.12304-.15664 0-.30473-.0327-.44727-.0781.13402.82273.32528 1.61557.56641 2.37891.24868-.1823.55204-.29297.88086-.29297.0267 0 .0518.006.0781.008-.21384-.67907-.36692-1.39948-.49218-2.13867zm5.90039.99218c.004.0437.0137.0862.0137.13086.00011.31252-.0987.60281-.26562.84375 1.00549.29283 2.03831.50474 3.0957.62891.14779-.31071.27248-.63189.37304-.96094-1.09568-.11262-2.1683-.33539-3.21679-.64258zm-2.95508.43165c-.48076.41864-1.00921.77559-1.57031 1.0664.25934.21882.44486.51872.50976.86328.55912-.29554 1.09783-.65159 1.59571-1.07226-.2666-.21473-.46351-.51205-.53516-.85742zm-4.00391 1.94726c-.14486.0365-.29311.0879-.43554.11719-.64334.13227-1.2284.19061-1.76563.22265.24026.33426.50953.64667.80469.9336.3743-.044.75587-.0923 1.16211-.17578.13332-.0274.27446-.077.41015-.10938-.12504-.21791-.20321-.4653-.20312-.73242-.00003-.0874.0127-.17244.0273-.25586zm2.61719 1.20703c-.22057.26289-.52394.45269-.87305.51758.23556.40242.9888 1.79207 1.27501 2.16189l.79101-.61328c-.25879-.3344-.9831-1.69395-1.19297-2.06619z" fill-rule="evenodd" opacity=".5"/>
    <path d="m620 180a8 8 0 0 0 -8 8 8 8 0 0 0 8 8 8 8 0 0 0 8-8 8 8 0 0 0 -8-8zm0 1a7 7 0 0 1 7 7 7 7 0 0 1 -7 7 7 7 0 0 1 -7-7 7 7 0 0 1 7-7zm3.5 3.50391a1 .9957518 0 0 0 -1 .99609 1 .9957518 0 0 0 1 .99609 1 .9957518 0 0 0 1-.99609 1 .9957518 0 0 0 -1-.99609zm-6.5 1.5a1 .9957518 0 0 0 -1 .99609 1 .9957518 0 0 0 1 .99609 1 .9957518 0 0 0 1-.99609 1 .9957518 0 0 0 -1-.99609zm5 2.49609a1 .9957518 0 0 0 -1 .99609 1 .9957518 0 0 0 1 .9961 1 .9957518 0 0 0 1-.9961 1 .9957518 0 0 0 -1-.99609zm-4 2.50391a1 .9957518 0 0 0 -1 .99609 1 .9957518 0 0 0 1 .99609 1 .9957518 0 0 0 1-.99609 1 .9957518 0 0 0 -1-.99609z"/>
  </g>
</svg>
