<?xml version="1.0" encoding="UTF-8" standalone="no"?>
<svg
   xmlns:dc="http://purl.org/dc/elements/1.1/"
   xmlns:cc="http://creativecommons.org/ns#"
   xmlns:rdf="http://www.w3.org/1999/02/22-rdf-syntax-ns#"
   xmlns:svg="http://www.w3.org/2000/svg"
   xmlns="http://www.w3.org/2000/svg"
   xmlns:xlink="http://www.w3.org/1999/xlink"
   xmlns:sodipodi="http://sodipodi.sourceforge.net/DTD/sodipodi-0.dtd"
   xmlns:inkscape="http://www.inkscape.org/namespaces/inkscape"
   viewBox="0 0 256 256"
   height="256"
   width="256"
   id="svg2"
   version="1.1"
   sodipodi:docname="affinity-designer.svg"
   inkscape:version="0.92.3 (2405546, 2018-03-11)">
  <sodipodi:namedview
     pagecolor="#ffffff"
     bordercolor="#666666"
     borderopacity="1"
     objecttolerance="10"
     gridtolerance="10"
     guidetolerance="10"
     inkscape:pageopacity="0"
     inkscape:pageshadow="2"
     inkscape:window-width="1920"
     inkscape:window-height="1009"
     id="namedview47"
     showgrid="false"
     inkscape:zoom="3.2617188"
     inkscape:cx="128"
     inkscape:cy="128"
     inkscape:window-x="0"
     inkscape:window-y="34"
     inkscape:window-maximized="1"
     inkscape:current-layer="svg2" />
  <metadata
     id="metadata8">
    <rdf:RDF>
      <cc:Work
         rdf:about="">
        <dc:format>image/svg+xml</dc:format>
        <dc:type
           rdf:resource="http://purl.org/dc/dcmitype/StillImage" />
        <dc:title></dc:title>
      </cc:Work>
    </rdf:RDF>
  </metadata>
  <defs
     id="defs6">
    <linearGradient
       id="linearGradient1022">
      <stop
         id="stop1018"
         offset="0"
         style="stop-color:#0ad8e2;stop-opacity:1" />
      <stop
         id="stop1020"
         offset="1"
         style="stop-color:#3b63ff;stop-opacity:1" />
    </linearGradient>
    <linearGradient
       id="linearGradient1014">
      <stop
         id="stop1010"
         offset="0"
         style="stop-color:#1affb9;stop-opacity:1" />
      <stop
         id="stop1012"
         offset="1"
         style="stop-color:#00d1fa;stop-opacity:1" />
    </linearGradient>
    <linearGradient
       id="linearGradient1007">
      <stop
         id="stop999"
         offset="0"
         style="stop-color:#3470ff;stop-opacity:1" />
      <stop
         style="stop-color:#0bd4e5;stop-opacity:1"
         offset="0.42488337"
         id="stop1001" />
      <stop
         id="stop1005"
         offset="1"
         style="stop-color:#3275ff;stop-opacity:1" />
    </linearGradient>
    <linearGradient
       id="linearGradient918">
      <stop
         style="stop-color:#006a6f;stop-opacity:1"
         offset="0"
         id="stop910" />
      <stop
         id="stop912"
         offset="0.29411766"
         style="stop-color:#005b69;stop-opacity:1" />
      <stop
         style="stop-color:#005e8f;stop-opacity:1"
         offset="0.29411766"
         id="stop914" />
      <stop
         style="stop-color:#00418e;stop-opacity:1"
         offset="1"
         id="stop916" />
    </linearGradient>
    <linearGradient
       id="linearGradient892">
      <stop
         id="stop888"
         offset="0"
         style="stop-color:#004d53;stop-opacity:1;" />
      <stop
         style="stop-color:#00384c;stop-opacity:1"
         offset="0.32911393"
         id="stop896" />
      <stop
         id="stop898"
         offset="0.32911393"
         style="stop-color:#00437d;stop-opacity:1" />
      <stop
         id="stop890"
         offset="1"
         style="stop-color:#00357f;stop-opacity:1" />
    </linearGradient>
    <linearGradient
       y2="522"
       x2="275"
       y1="72"
       x1="325"
       gradientTransform="translate(-156.28743,-5.3808383)"
       gradientUnits="userSpaceOnUse"
       id="linearGradient900"
       xlink:href="#linearGradient892" />
    <linearGradient
       gradientTransform="translate(-30.287425,57.619162)"
       gradientUnits="userSpaceOnUse"
       y2="459"
       x2="232"
       y1="34"
       x1="232"
       id="linearGradient908"
       xlink:href="#linearGradient918" />
    <linearGradient
       gradientUnits="userSpaceOnUse"
       y2="480.91318"
       x2="66.252388"
       y1="117.84252"
       x1="272.29431"
       id="linearGradient997"
       xlink:href="#linearGradient1007" />
    <linearGradient
       gradientUnits="userSpaceOnUse"
       y2="238.28412"
       x2="334.96826"
       y1="348.38751"
       x1="185.27713"
       id="linearGradient1016"
       xlink:href="#linearGradient1014" />
    <linearGradient
       gradientUnits="userSpaceOnUse"
       y2="441.73892"
       x2="443.90421"
       y1="363.57843"
       x1="173.90421"
       id="linearGradient1024"
       xlink:href="#linearGradient1022" />
    <filter
       height="1.0502239"
       y="-0.025112011"
       width="1.0459646"
       x="-0.022982297"
       id="filter1043"
       style="color-interpolation-filters:sRGB">
      <feGaussianBlur
         id="feGaussianBlur1045"
         stdDeviation="3.8521872" />
    </filter>
    <linearGradient
       y2="522"
       x2="275"
       y1="72"
       x1="325"
       gradientTransform="matrix(0.4438284,0,0,0.4438284,-42.253863,-17.217963)"
       gradientUnits="userSpaceOnUse"
       id="linearGradient1047"
       xlink:href="#linearGradient892" />
    <linearGradient
       y2="459"
       x2="232"
       y1="34"
       x1="232"
       gradientTransform="matrix(0.4438284,0,0,0.4438284,13.535178,10.743229)"
       gradientUnits="userSpaceOnUse"
       id="linearGradient1049"
       xlink:href="#linearGradient918" />
    <filter
       inkscape:collect="always"
       style="color-interpolation-filters:sRGB"
       id="filter858"
       x="-0.011351279"
       width="1.0227026"
       y="-0.012727364"
       height="1.0254547">
      <feGaussianBlur
         inkscape:collect="always"
         stdDeviation="1.0972223"
         id="feGaussianBlur860" />
    </filter>
    <filter
       inkscape:collect="always"
       style="color-interpolation-filters:sRGB"
       id="filter872"
       x="-0.045405117"
       width="1.0908102"
       y="-0.050909454"
       height="1.1018189">
      <feGaussianBlur
         inkscape:collect="always"
         stdDeviation="4.3888893"
         id="feGaussianBlur874" />
    </filter>
  </defs>
  <path
     inkscape:connector-curvature="0"
     style="opacity:0.1;fill:#000000;fill-opacity:1;stroke:none;stroke-width:1.89131618px;stroke-linecap:butt;stroke-linejoin:miter;stroke-opacity:1;filter:url(#filter872)"
     d="m 101.14349,21.050775 -17.096848,29.364653 7.442109,12.197849 -35.390649,60.532813 -21.605188,11.7451 -23.900848,39.75528 16.934493,26.99328 -0.0641,0.11194 2.178641,4.28613 0.117132,0.2339 h 5.516476 l 5.055811,8.5835 H 138.6977 l 8.27279,13.09886 7.63128,-0.0612 -2.07491,-3.68888 -7.85584,-9.34948 h 78.1403 l 5.21439,-8.81735 14.55198,-24.61453 -1.14466,-3.13697 -90.32426,-151.81322 h -10.11541 l -2.75633,-5.421675 h -4.91987 z"
     id="path862" />
  <path
     id="path856"
     d="m 101.14349,21.050775 -17.096848,29.364653 7.442109,12.197849 -35.390649,60.532813 -21.605188,11.7451 -23.900848,39.75528 16.934493,26.99328 -0.0641,0.11194 2.178641,4.28613 0.117132,0.2339 h 5.516476 l 5.055811,8.5835 H 138.6977 l 8.27279,13.09886 7.63128,-0.0612 -2.07491,-3.68888 -7.85584,-9.34948 h 78.1403 l 5.21439,-8.81735 14.55198,-24.61453 -1.14466,-3.13697 -90.32426,-151.81322 h -10.11541 l -2.75633,-5.421675 h -4.91987 z"
     style="opacity:0.1;fill:#000000;fill-opacity:1;stroke:none;stroke-width:1.89131618px;stroke-linecap:butt;stroke-linejoin:miter;stroke-opacity:1;filter:url(#filter858)"
     inkscape:connector-curvature="0" />
  <path
     inkscape:connector-curvature="0"
     style="opacity:0.1;fill:#000000;fill-opacity:1;stroke:none;stroke-width:1.89131618px;stroke-linecap:butt;stroke-linejoin:miter;stroke-opacity:1"
     d="m 101.14349,21.050775 -17.096848,29.364653 7.442109,12.197849 -35.390649,60.532813 -21.605188,11.7451 -23.900848,39.75528 16.934493,26.99328 -0.0641,0.11194 2.178641,4.28613 0.117132,0.2339 h 5.516476 l 5.055811,8.5835 H 138.6977 l 8.27279,13.09886 7.63128,-0.0612 -2.07491,-3.68888 -7.85584,-9.34948 h 78.1403 l 5.21439,-8.81735 14.55198,-24.61453 -1.14466,-3.13697 -90.32426,-151.81322 h -10.11541 l -2.75633,-5.421675 h -4.91987 z"
     id="path854" />
  <path
     id="path819"
     d="M 31.288313,200.25796 133.36884,22.72659 h 4.88211 l 2.66297,5.325955 h 9.76423 L 239,180.28567 219.91537,213.12898 H 144.46455 L 152.00963,226 h -5.32594 l -7.98891,-12.87102 H 43.715508 l -4.882111,-8.43274 h -5.325942 z"
     style="fill:url(#linearGradient1049);fill-opacity:1;stroke:none;stroke-width:1.86666656px;stroke-linecap:butt;stroke-linejoin:miter;stroke-opacity:1"
     inkscape:connector-curvature="0" />
  <path
     style="fill:url(#linearGradient1047);fill-opacity:1;stroke:none;stroke-width:1.86666656px;stroke-linecap:butt;stroke-linejoin:miter;stroke-opacity:1"
     d="M 133.50218,22.72659 H 102.43419 L 85.927776,51.575438 93.113793,63.558804 58.939011,123.03181 38.079077,134.57136 15,173.62824 31.421651,200.25796"
     id="path872"
     inkscape:connector-curvature="0" />
  <path
     id="path920"
     d="m 138.54655,213.12898 h 0.14823 L 146.6837,226 h 5.32594 l -7.54509,-12.87102 h 75.45082 L 238.4767,181.14238 239,180.28567 198.46339,110.41565 Z"
     style="fill:#001064;fill-opacity:1;stroke:none;stroke-width:1.86666656px;stroke-linecap:butt;stroke-linejoin:miter;stroke-opacity:1"
     inkscape:connector-curvature="0" />
  <path
     id="rect936"
     d="m 33.393032,204.46826 0.114427,0.22798 H 38.8334 l 4.882112,8.43274 H 138.69479 L 146.6837,226 h 5.32594 l -7.54508,-12.87102 h 75.45083 l 5.03294,-8.66072 z"
     style="opacity:0.4;fill:#000000;fill-opacity:1;stroke:none;stroke-width:7.46666622;stroke-linecap:butt;stroke-linejoin:round;stroke-miterlimit:4;stroke-dasharray:none;stroke-opacity:1"
     inkscape:connector-curvature="0" />
  <g
     transform="matrix(0.44382839,0,0,0.44382839,26.977597,-14.829791)"
     style="fill:#000000;fill-opacity:1;stroke-width:4.20582962;filter:url(#filter1043)"
     id="g1037">
    <path
       id="path1031"
       d="M 255.2476,114.74312 41.627231,482.90359 H 233.56137 L 160.70748,360.04971 278.56137,155.35629 Z"
       style="fill:#000000;fill-opacity:1;stroke:none;stroke-width:4.20582962px;stroke-linecap:butt;stroke-linejoin:miter;stroke-opacity:1"
       inkscape:connector-curvature="0" />
    <path
       id="path1033"
       d="m 283.08203,164.20508 -70,120 40,70 h 140 z m -74.05664,128.35937 -26.84766,45.75 c -1.57843,3.26518 -0.5665,7.53225 1.14258,9.99414 2.3668,3.31433 6.08914,5.7187 10.91016,5.89649 h 49.85937 z"
       style="fill:#000000;fill-opacity:1;stroke:none;stroke-width:4.20582962px;stroke-linecap:butt;stroke-linejoin:miter;stroke-opacity:1"
       inkscape:connector-curvature="0" />
    <path
       id="path1035"
       d="m 173.9042,363.57843 46.78084,78.16048 H 443.9042 l -45,-77.5473 z"
       style="fill:#000000;fill-opacity:1;stroke:none;stroke-width:4.20582962px;stroke-linecap:butt;stroke-linejoin:miter;stroke-opacity:1"
       inkscape:connector-curvature="0" />
  </g>
  <g
     style="stroke-width:4.20582962"
     transform="matrix(0.44382839,0,0,0.44382839,26.977597,-14.829791)"
     id="g1029">
    <path
       style="fill:url(#linearGradient997);fill-opacity:1;stroke:none;stroke-width:4.20582962px;stroke-linecap:butt;stroke-linejoin:miter;stroke-opacity:1"
       d="M 255.2476,114.74312 41.627231,482.90359 H 233.56137 L 160.70748,360.04971 278.56137,155.35629 Z"
       id="path823"
       inkscape:connector-curvature="0" />
    <path
       style="fill:url(#linearGradient1016);fill-opacity:1;stroke:none;stroke-width:4.20582962px;stroke-linecap:butt;stroke-linejoin:miter;stroke-opacity:1"
       d="m 283.08203,164.20508 -70,120 40,70 h 140 z m -74.05664,128.35937 -26.84766,45.75 c -1.57843,3.26518 -0.5665,7.53225 1.14258,9.99414 2.3668,3.31433 6.08914,5.7187 10.91016,5.89649 h 49.85937 z"
       id="path860"
       inkscape:connector-curvature="0" />
    <path
       style="fill:url(#linearGradient1024);fill-opacity:1;stroke:none;stroke-width:4.20582962px;stroke-linecap:butt;stroke-linejoin:miter;stroke-opacity:1"
       d="m 173.9042,363.57843 46.78084,78.16048 H 443.9042 l -45,-77.5473 z"
       id="path847"
       inkscape:connector-curvature="0" />
  </g>
  <path
     style="opacity:0.2;fill:#000000;fill-opacity:1;stroke:none;stroke-width:1.84210408px;stroke-linecap:butt;stroke-linejoin:miter;stroke-opacity:1"
     d="m 86.513049,50.552808 -0.58594,1.023437 6.59961,11.003906 0.58789,-1.021484 z m -70.90821,122.052732 -0.60351,1.02149 16.35156,26.51953 -0.06055,0.10937 2.10352,4.21094 0.11328,0.23047 h 5.32617 l 4.88086,8.43359 h 94.982421 l 7.98829,12.86914 7.36718,-0.0605 -1.10156,-1.99024 -6.26562,0.0508 -7.98829,-12.86914 H 43.716169 l -4.88086,-8.43359 h -5.32617 l -0.11328,-0.23047 -2.10352,-4.21094 0.06055,-0.10937 z m 222.953131,6.44336 -13.60742,23.41797 -5.03516,8.66211 h -75.44922 l 1.65039,2 h 73.79883 l 5.03516,-8.66211 14.05078,-24.18164 z"
     id="path876"
     inkscape:connector-curvature="0" />
  <path
     style="opacity:0.3;fill:#ffffff;fill-opacity:1;stroke:none;stroke-width:1.84210408px;stroke-linecap:butt;stroke-linejoin:miter;stroke-opacity:1"
     d="m 102.43735,22.72442 -16.50976,28.849609 0.58594,0.976563 15.92382,-27.826172 h 31.06446 4.75195 l 2.66016,5.328125 h 9.76758 l 87.21484,149.148435 0.66211,1.8457 0.44336,-0.76367 -1.10547,-3.08203 L 150.6815,28.052545 h -9.76758 l -2.66016,-5.328125 h -4.75195 z m -9.91015,41.855469 -33.585939,58.449221 -20.86133,11.53906 -23.07812,39.05859 0.60351,0.97852 22.47461,-38.03711 20.86133,-11.53906 34.171879,-59.470706 z m 51.9375,150.548831 7.58594,9.18554 0.90234,1.63281 1.10156,-0.008 -2.0039,-3.625 -5.9336,-7.18554 z"
     id="path1052"
     inkscape:connector-curvature="0" />
</svg>
