<?xml version="1.0" encoding="UTF-8" standalone="no"?>
<svg
   xmlns:dc="http://purl.org/dc/elements/1.1/"
   xmlns:cc="http://creativecommons.org/ns#"
   xmlns:rdf="http://www.w3.org/1999/02/22-rdf-syntax-ns#"
   xmlns:svg="http://www.w3.org/2000/svg"
   xmlns="http://www.w3.org/2000/svg"
   xmlns:xlink="http://www.w3.org/1999/xlink"
   xmlns:sodipodi="http://sodipodi.sourceforge.net/DTD/sodipodi-0.dtd"
   xmlns:inkscape="http://www.inkscape.org/namespaces/inkscape"
   width="256"
   height="256"
   version="1.1"
   id="svg46"
   sodipodi:docname="ardour.svg"
   inkscape:version="0.92.3 (2405546, 2018-03-11)">
  <metadata
     id="metadata50">
    <rdf:RDF>
      <cc:Work
         rdf:about="">
        <dc:format>image/svg+xml</dc:format>
        <dc:type
           rdf:resource="http://purl.org/dc/dcmitype/StillImage" />
        <dc:title></dc:title>
      </cc:Work>
    </rdf:RDF>
  </metadata>
  <sodipodi:namedview
     pagecolor="#ffffff"
     bordercolor="#666666"
     borderopacity="1"
     objecttolerance="10"
     gridtolerance="10"
     guidetolerance="10"
     inkscape:pageopacity="0"
     inkscape:pageshadow="2"
     inkscape:window-width="1920"
     inkscape:window-height="1009"
     id="namedview48"
     showgrid="false"
     inkscape:zoom="3.2617188"
     inkscape:cx="128"
     inkscape:cy="128"
     inkscape:window-x="0"
     inkscape:window-y="34"
     inkscape:window-maximized="1"
     inkscape:current-layer="layer1" />
  <defs
     id="defs39">
    <linearGradient
       id="linearGradient4786">
      <stop
         style="stop-color:#f8bac0;stop-opacity:0.730612"
         id="stop4788" />
      <stop
         style="stop-color:#f8bac0;stop-opacity:0"
         id="stop4790"
         offset="1" />
    </linearGradient>
    <linearGradient
       id="linearGradient4778">
      <stop
         style="stop-color:#dd1627"
         id="stop4780" />
      <stop
         style="stop-color:#df3e52"
         id="stop4782"
         offset="1" />
    </linearGradient>
    <linearGradient
       id="linearGradient4417"
       x1="400.76801"
       x2="412.57101"
       y1="521.79797"
       y2="533.60199"
       gradientUnits="userSpaceOnUse"
       xlink:href="#linearGradient4400" />
    <linearGradient
       id="linearGradient4388"
       x1="403.57101"
       x2="413.26199"
       y1="522.79797"
       y2="534.79797"
       gradientUnits="userSpaceOnUse"
       xlink:href="#linearGradient4400" />
    <linearGradient
       id="linearGradient4301"
       x2="0"
       y1="532.79797"
       y2="506.798"
       gradientUnits="userSpaceOnUse"
       xlink:href="#linearGradient4303" />
    <linearGradient
       id="linearGradient4277"
       x2="0"
       y1="543.79797"
       y2="503.798"
       gradientUnits="userSpaceOnUse"
       xlink:href="#linearGradient4271" />
    <linearGradient
       id="linearGradient4271">
      <stop
         style="stop-color:#2a2c2f"
         id="stop4273" />
      <stop
         style="stop-color:#424649"
         id="stop4275"
         offset="1" />
    </linearGradient>
    <linearGradient
       id="linearGradient4303">
      <stop
         style="stop-color:#989a9b"
         id="stop4305" />
      <stop
         style="stop-color:#f6f6f7"
         id="stop4307"
         offset="1" />
    </linearGradient>
    <linearGradient
       id="linearGradient4400">
      <stop
         style="stop-color:#020303"
         id="stop4402" />
      <stop
         style="stop-color:#424649;stop-opacity:0"
         id="stop4404"
         offset="1" />
    </linearGradient>
    <linearGradient
       id="linearGradient4227">
      <stop
         style="stop-color:#292c2f"
         id="stop4229" />
      <stop
         style="stop-opacity:0"
         id="stop4231"
         offset="1" />
    </linearGradient>
    <linearGradient
       id="linearGradient4435">
      <stop
         style="stop-color:#c61423"
         id="stop4437" />
      <stop
         style="stop-color:#dc2b41"
         id="stop4439"
         offset="1" />
    </linearGradient>
    <linearGradient
       id="linearGradient4390">
      <stop
         style="stop-color:#f7abb2"
         id="stop4392" />
      <stop
         style="stop-color:#f9dce0"
         id="stop4394"
         offset="1" />
    </linearGradient>
    <linearGradient
       id="linearGradient4719"
       x2="0"
       y1="538.79797"
       y2="524.79797"
       gradientTransform="translate(-424.99788,-498.65983)"
       gradientUnits="userSpaceOnUse"
       xlink:href="#linearGradient4390" />
    <linearGradient
       id="linearGradient4723"
       x1="16"
       x2="35"
       y1="16"
       y2="35"
       gradientTransform="translate(-48.92645,9.13817)"
       gradientUnits="userSpaceOnUse"
       xlink:href="#linearGradient4227" />
    <linearGradient
       id="linearGradient4726"
       x2="0"
       y1="545.79797"
       y2="517.79797"
       gradientTransform="matrix(1.4285711,0,0,1.4285711,-597.17116,-726.57292)"
       gradientUnits="userSpaceOnUse"
       xlink:href="#linearGradient4435" />
    <linearGradient
       id="linearGradient4726-5"
       x1="442.17099"
       x2="426.271"
       y1="531.698"
       y2="516.99799"
       gradientTransform="matrix(8.4839871,0,0,8.4839871,-3562.2487,-4530.1003)"
       gradientUnits="userSpaceOnUse"
       xlink:href="#linearGradient4778" />
    <linearGradient
       id="linearGradient4760"
       x2="0"
       y1="545.79797"
       y2="517.79797"
       gradientTransform="matrix(1.4285711,0,0,1.4285711,-552.24472,-739.71109)"
       gradientUnits="userSpaceOnUse"
       xlink:href="#linearGradient4435" />
    <linearGradient
       id="linearGradient4792"
       x1="-3.6689999"
       x2="34.439999"
       y1="-2.348"
       y2="34.652"
       gradientTransform="translate(-42)"
       gradientUnits="userSpaceOnUse"
       xlink:href="#linearGradient4786" />
    <linearGradient
       id="linearGradient4792-7"
       x1="7.947"
       x2="20.802"
       y1="3.1070001"
       y2="21.419001"
       gradientUnits="userSpaceOnUse"
       xlink:href="#linearGradient4786" />
    <linearGradient
       id="linearGradient4811"
       x1="-3.6689999"
       x2="34.439999"
       y1="-2.348"
       y2="34.652"
       gradientTransform="translate(-1.616244,-1.937044)"
       gradientUnits="userSpaceOnUse"
       xlink:href="#linearGradient4786" />
    <linearGradient
       id="linearGradient4913"
       x1="46.231998"
       x2="73.027"
       y1="10.38"
       y2="35.662998"
       gradientTransform="translate(-42.1285,-0.003396)"
       gradientUnits="userSpaceOnUse"
       xlink:href="#linearGradient4786" />
    <filter
       inkscape:collect="always"
       style="color-interpolation-filters:sRGB"
       id="filter1786"
       x="-0.01170121"
       width="1.0234024"
       y="-0.012314449"
       height="1.0246289">
      <feGaussianBlur
         inkscape:collect="always"
         stdDeviation="1.111615"
         id="feGaussianBlur1788" />
    </filter>
    <filter
       inkscape:collect="always"
       style="color-interpolation-filters:sRGB"
       id="filter1812"
       x="-0.046804842"
       width="1.0936097"
       y="-0.049257794"
       height="1.0985156">
      <feGaussianBlur
         inkscape:collect="always"
         stdDeviation="4.44646"
         id="feGaussianBlur1814" />
    </filter>
  </defs>
  <g
     id="layer1"
     transform="translate(0,208)">
    <path
       inkscape:connector-curvature="0"
       id="path1790"
       d="M 18.107069,10.458741 126.59617,-188.646 242.93641,26.699763 c 0,0 0.67266,1.664478 -2.35737,0.802484 -2.84823,-0.810298 -5.28454,-3.199782 -8.23488,-2.945584 -2.48292,0.213987 -3.96576,3.807839 -6.42644,3.413073 -3.51745,-0.564345 -5.31857,-7.267538 -8.87946,-7.162884 -3.13654,0.09214 -2.36509,6.08636 -7.04525,6.48171 -4.15332,0.350903 -3.4774,-11.040971 -7.66185,-11.391692 -2.83722,-0.237804 -3.46704,11.737782 -6.98592,11.735269 -3.72521,-0.0021 0.15409,-17.225691 -5.21406,-17.513436 -4.20171,-0.2252327 -1.89116,15.117139 -5.66474,15.133443 -5.20693,0.02236 -0.78659,-25.1262273 -7.20485,-25.0201696 -4.56293,0.075454 0.34546,23.2778226 -5.59642,23.2048786 -5.47154,-0.06717 -0.19815,-35.910152 -6.34131,-35.479342 -5.0684,0.355437 0.62498,32.060108 -4.95178,32.19238 -6.75189,0.160132 -0.0284,-44.161354 -6.73515,-44.219862 -5.93078,-0.05198 -0.61573,39.204016 -6.07381,39.205793 -6.61512,0.0021 0.0206,-50.65377 -6.26827,-50.989138 -6.84235,-0.364867 1.67396,50.883681 -5.78649,50.829505 -7.19786,-0.05198 2.05267,-64.312289 -6.28501,-64.926076 -6.83102,-0.502871 1.86677,60.15475 -5.14347,60.420475 -7.36461,0.279152 2.22651,-70.649854 -6.48416,-70.672818 -6.37957,-0.01693 0.44992,67.958522 -6.15895,68.9115996 -6.10725,-1.3454615 1.21971,-75.0361716 -5.91476,-75.0605446 -7.36278,-0.02538 1.24657,73.2545566 -6.37642,73.4327162 -6.39078,0.083179 2.71142,-73.5424242 -5.67443,-73.2934122 -7.713539,0.22904 0.295109,72.9356853 -6.044842,72.8619375 C 80.580807,6.5704615 89.178373,-60.628655 81.505516,-60.183446 75.65967,-57.160856 81.279741,-8.204858 75.670038,7.3426206 69.519501,1.2563651 76.11403,-40.786032 69.27524,-48.184036 63.664504,-40.110557 68.051584,8.364543 63.489789,8.5485838 57.885048,8.8190305 63.218438,-29.480934 57.210305,-29.844107 53.610693,-30.061661 51.704046,13.541514 47.298782,13.709024 42.1768,14.220356 42.742508,-10.817403 39.20046,-10.73891 35.094465,-10.215608 36.170184,16.658664 30.783089,16.721961 27.685203,17.458264 26.938538,6.1303517 24.170791,6.3956409 21.689032,6.6335059 21.220723,18.308422 17.113724,20.415944 c -3.753843,0.5096 -1.929254,-3.575655 0.993345,-9.957203 z"
       style="fill:#140000;fill-opacity:1;stroke-width:1.89999998;opacity:0.1;filter:url(#filter1812)" />
    <path
       style="fill:#140000;fill-opacity:1;stroke-width:1.89999998;opacity:0.1;filter:url(#filter1786)"
       d="M 18.107069,10.458741 126.59617,-188.646 242.93641,26.699763 c 0,0 0.67266,1.664478 -2.35737,0.802484 -2.84823,-0.810298 -5.28454,-3.199782 -8.23488,-2.945584 -2.48292,0.213987 -3.96576,3.807839 -6.42644,3.413073 -3.51745,-0.564345 -5.31857,-7.267538 -8.87946,-7.162884 -3.13654,0.09214 -2.36509,6.08636 -7.04525,6.48171 -4.15332,0.350903 -3.4774,-11.040971 -7.66185,-11.391692 -2.83722,-0.237804 -3.46704,11.737782 -6.98592,11.735269 -3.72521,-0.0021 0.15409,-17.225691 -5.21406,-17.513436 -4.20171,-0.2252327 -1.89116,15.117139 -5.66474,15.133443 -5.20693,0.02236 -0.78659,-25.1262273 -7.20485,-25.0201696 -4.56293,0.075454 0.34546,23.2778226 -5.59642,23.2048786 -5.47154,-0.06717 -0.19815,-35.910152 -6.34131,-35.479342 -5.0684,0.355437 0.62498,32.060108 -4.95178,32.19238 -6.75189,0.160132 -0.0284,-44.161354 -6.73515,-44.219862 -5.93078,-0.05198 -0.61573,39.204016 -6.07381,39.205793 -6.61512,0.0021 0.0206,-50.65377 -6.26827,-50.989138 -6.84235,-0.364867 1.67396,50.883681 -5.78649,50.829505 -7.19786,-0.05198 2.05267,-64.312289 -6.28501,-64.926076 -6.83102,-0.502871 1.86677,60.15475 -5.14347,60.420475 -7.36461,0.279152 2.22651,-70.649854 -6.48416,-70.672818 -6.37957,-0.01693 0.44992,67.958522 -6.15895,68.9115996 -6.10725,-1.3454615 1.21971,-75.0361716 -5.91476,-75.0605446 -7.36278,-0.02538 1.24657,73.2545566 -6.37642,73.4327162 -6.39078,0.083179 2.71142,-73.5424242 -5.67443,-73.2934122 -7.713539,0.22904 0.295109,72.9356853 -6.044842,72.8619375 C 80.580807,6.5704615 89.178373,-60.628655 81.505516,-60.183446 75.65967,-57.160856 81.279741,-8.204858 75.670038,7.3426206 69.519501,1.2563651 76.11403,-40.786032 69.27524,-48.184036 63.664504,-40.110557 68.051584,8.364543 63.489789,8.5485838 57.885048,8.8190305 63.218438,-29.480934 57.210305,-29.844107 53.610693,-30.061661 51.704046,13.541514 47.298782,13.709024 42.1768,14.220356 42.742508,-10.817403 39.20046,-10.73891 35.094465,-10.215608 36.170184,16.658664 30.783089,16.721961 27.685203,17.458264 26.938538,6.1303517 24.170791,6.3956409 21.689032,6.6335059 21.220723,18.308422 17.113724,20.415944 c -3.753843,0.5096 -1.929254,-3.575655 0.993345,-9.957203 z"
       id="path1780"
       inkscape:connector-curvature="0" />
    <path
       inkscape:connector-curvature="0"
       id="path1778"
       d="M 18.107069,10.458741 126.59617,-188.646 242.93641,26.699763 c 0,0 0.67266,1.664478 -2.35737,0.802484 -2.84823,-0.810298 -5.28454,-3.199782 -8.23488,-2.945584 -2.48292,0.213987 -3.96576,3.807839 -6.42644,3.413073 -3.51745,-0.564345 -5.31857,-7.267538 -8.87946,-7.162884 -3.13654,0.09214 -2.36509,6.08636 -7.04525,6.48171 -4.15332,0.350903 -3.4774,-11.040971 -7.66185,-11.391692 -2.83722,-0.237804 -3.46704,11.737782 -6.98592,11.735269 -3.72521,-0.0021 0.15409,-17.225691 -5.21406,-17.513436 -4.20171,-0.2252327 -1.89116,15.117139 -5.66474,15.133443 -5.20693,0.02236 -0.78659,-25.1262273 -7.20485,-25.0201696 -4.56293,0.075454 0.34546,23.2778226 -5.59642,23.2048786 -5.47154,-0.06717 -0.19815,-35.910152 -6.34131,-35.479342 -5.0684,0.355437 0.62498,32.060108 -4.95178,32.19238 -6.75189,0.160132 -0.0284,-44.161354 -6.73515,-44.219862 -5.93078,-0.05198 -0.61573,39.204016 -6.07381,39.205793 -6.61512,0.0021 0.0206,-50.65377 -6.26827,-50.989138 -6.84235,-0.364867 1.67396,50.883681 -5.78649,50.829505 -7.19786,-0.05198 2.05267,-64.312289 -6.28501,-64.926076 -6.83102,-0.502871 1.86677,60.15475 -5.14347,60.420475 -7.36461,0.279152 2.22651,-70.649854 -6.48416,-70.672818 -6.37957,-0.01693 0.44992,67.958522 -6.15895,68.9115996 -6.10725,-1.3454615 1.21971,-75.0361716 -5.91476,-75.0605446 -7.36278,-0.02538 1.24657,73.2545566 -6.37642,73.4327162 -6.39078,0.083179 2.71142,-73.5424242 -5.67443,-73.2934122 -7.713539,0.22904 0.295109,72.9356853 -6.044842,72.8619375 C 80.580807,6.5704615 89.178373,-60.628655 81.505516,-60.183446 75.65967,-57.160856 81.279741,-8.204858 75.670038,7.3426206 69.519501,1.2563651 76.11403,-40.786032 69.27524,-48.184036 63.664504,-40.110557 68.051584,8.364543 63.489789,8.5485838 57.885048,8.8190305 63.218438,-29.480934 57.210305,-29.844107 53.610693,-30.061661 51.704046,13.541514 47.298782,13.709024 42.1768,14.220356 42.742508,-10.817403 39.20046,-10.73891 35.094465,-10.215608 36.170184,16.658664 30.783089,16.721961 27.685203,17.458264 26.938538,6.1303517 24.170791,6.3956409 21.689032,6.6335059 21.220723,18.308422 17.113724,20.415944 c -3.753843,0.5096 -1.929254,-3.575655 0.993345,-9.957203 z"
       style="fill:#020000;fill-opacity:1;stroke-width:1.89999998;opacity:0.1" />
    <path
       style="fill:#f22c42;stroke-width:1.86666667;fill-opacity:1"
       d="M 20.052559,8.7664828 126.63834,-186.84519 240.93752,24.722574 c 0,0 0.66086,1.635277 -2.31601,0.788406 -2.79826,-0.796083 -5.19183,-3.143646 -8.09041,-2.893908 -2.43936,0.210233 -3.89618,3.741035 -6.31369,3.353195 -3.45574,-0.554444 -5.22526,-7.140037 -8.72368,-7.037219 -3.08151,0.09052 -2.3236,5.979581 -6.92165,6.367995 -4.08046,0.344747 -3.41639,-10.847269 -7.52743,-11.191837 -2.78745,-0.233632 -3.40622,11.531856 -6.86336,11.529387 -3.65986,-0.0021 0.15138,-16.9234862 -5.12259,-17.2061832 -4.12799,-0.221281 -1.85798,14.8519262 -5.56536,14.8679442 -5.11558,0.02197 -0.77279,-24.6854162 -7.07845,-24.5812192 -4.48287,0.07413 0.3394,22.8694392 -5.49823,22.7977752 -5.37555,-0.06599 -0.19468,-35.280149 -6.23006,-34.856897 -4.97948,0.349201 0.61401,31.49765 -4.86491,31.627601 -6.63343,0.157323 -0.0279,-43.386593 -6.61699,-43.444075 -5.82673,-0.05107 -0.60493,38.516227 -5.96725,38.517972 -6.49906,0.0021 0.0202,-49.765107 -6.1583,-50.094591 -6.72231,-0.358466 1.64459,49.990984 -5.68497,49.937759 -7.07158,-0.05107 2.01666,-63.184003 -6.17475,-63.787022 -6.71118,-0.494049 1.83402,59.0994038 -5.05323,59.3604668 -7.23541,0.274254 2.18745,-69.4103828 -6.37041,-69.4329438 -6.26764,-0.01663 0.44203,66.7662668 -6.05089,67.7026238 -6.00011,-1.321857 1.19831,-73.7197468 -5.811,-73.7436928 -7.233602,-0.02494 1.2247,71.9693888 -6.264546,72.1444228 -6.278664,0.08172 2.663846,-72.2522058 -5.574881,-72.0075628 -7.578214,0.225022 0.289931,71.6561118 -5.938792,71.5836578 -6.725415,-0.07821 1.721317,-66.0983948 -5.816929,-65.6609968 -5.743287,2.969562 -0.221814,51.0666835 -5.733101,66.3413988 C 70.563018,-0.27444818 77.041854,-41.579259 70.323043,-48.847474 64.810741,-40.915635 69.120854,6.7090248 64.639091,6.8898368 59.132679,7.1555388 64.3725,-30.472496 58.469773,-30.829298 54.933312,-31.043035 53.060115,11.795172 48.732137,11.959743 43.700014,12.462104 44.255797,-12.136396 40.77589,-12.05928 36.74193,-11.545159 37.798777,14.857635 32.506193,14.919821 29.462656,15.643207 28.72909,4.5140298 26.0099,4.7746648 23.571681,5.0083568 23.111587,16.47845 19.076641,18.548998 15.388655,19.049657 17.181234,15.036073 20.052559,8.7664828 Z"
       id="path43"
       inkscape:connector-curvature="0" />
    <path
       style="fill:#ffffff;stroke-width:1.86666667;fill-opacity:1;opacity:0.3"
       d="M 126.63867 21.154297 L 20.052734 216.76562 C 17.990176 221.26926 16.49547 224.59908 17.177734 225.9375 C 17.577414 224.21836 18.681393 221.75997 20.052734 218.76562 L 126.63867 23.154297 L 240.38672 233.70508 C 241.24157 233.52415 240.9375 232.72266 240.9375 232.72266 L 126.63867 21.154297 z M 102.75391 164.90625 C 102.7513 173.28335 103.00111 182.85094 103.02734 191.44531 C 103.04155 183.03481 102.79039 173.46114 102.75391 164.90625 z M 97.814453 165.02539 C 97.759563 175.79198 97.246627 188.17521 97.263672 197.76172 C 97.316621 187.85801 97.823435 175.50046 97.814453 165.02539 z M 90.53125 165.91797 C 90.487357 174.33333 90.721649 183.87766 90.771484 192.31445 C 90.755557 184.04225 90.528294 174.53394 90.53125 165.91797 z M 85.710938 168.84375 C 85.671726 177.01553 85.373962 186.18555 85.347656 194.09961 C 85.419034 185.99342 85.721575 176.80344 85.710938 168.84375 z M 114.8418 170.35352 C 114.80087 176.00159 114.8609 182.19858 114.875 188.19336 C 114.87382 182.26253 114.82249 176.11281 114.8418 170.35352 z M 121.6543 170.39648 C 121.60771 180.47391 121.1384 192.00094 121.21289 201.06445 C 121.21207 191.69988 121.67056 180.22099 121.6543 170.39648 z M 109.26953 170.88086 C 109.23432 178.03345 109.11751 185.53143 109.12305 192.3125 C 109.14056 185.41157 109.25311 177.93353 109.26953 170.88086 z M 126.46875 172.56055 C 126.38651 181.57194 127.03229 193.50582 127.0332 203.02539 C 127.13204 193.89213 126.48568 181.9601 126.46875 172.56055 z M 132.89844 178.79688 C 132.84974 187.97866 132.40166 198.44142 132.48242 206.69531 C 132.4793 198.146 132.91519 187.73344 132.89844 178.79688 z M 138.25977 186.92383 C 138.26746 193.01918 138.57871 200.19888 138.63086 206.60742 C 138.6452 200.41848 138.33109 193.22798 138.25977 186.92383 z M 144.03711 197.11328 C 144.03203 198.60059 144.03005 200.07836 144.0332 201.53711 C 144.03514 200.05876 144.03188 198.60112 144.03711 197.11328 z M 162.41406 206.2832 C 162.37977 209.51104 162.45465 213.08581 162.45117 216.46094 C 162.50404 213.22362 162.42353 209.63957 162.41406 206.2832 z "
       transform="translate(0,-208)"
       id="path860" />
    <path
       style="fill:#090909;stroke-width:1.86666667;fill-opacity:1;opacity:0.2"
       d="M 105.93359 139.30469 C 103.16319 139.29514 102.69831 149.8685 102.75391 162.90625 C 102.75767 150.81552 103.30778 141.29563 105.93359 141.30469 C 108.5593 141.31366 109.19258 151.47945 109.27148 164.25977 C 109.24367 150.57204 108.6926 139.31411 105.93359 139.30469 z M 94.09375 139.44141 C 91.126713 139.52951 90.535832 150.56448 90.53125 163.91797 C 90.596158 151.4735 91.274699 141.52511 94.09375 141.44141 C 97.08911 141.35246 97.804052 150.89508 97.814453 163.02539 C 97.881122 149.94835 97.253349 139.34758 94.09375 139.44141 z M 117.79492 145.3457 C 115.32751 145.33916 114.88405 155.74786 114.8418 168.35352 C 114.92665 156.64469 115.45551 147.3395 117.79492 147.3457 C 120.9132 147.35392 121.63484 156.64483 121.6543 168.39648 C 121.71295 155.70684 121.08919 145.35439 117.79492 145.3457 z M 82.337891 145.36328 C 76.594604 148.33284 82.116756 196.43036 76.605469 211.70508 C 73.584152 208.71534 73.694222 196.89427 73.71875 184.91211 C 73.713352 197.55278 73.415717 210.54866 76.605469 213.70508 C 82.116756 198.43036 76.594604 150.33284 82.337891 147.36328 C 85.072763 147.20459 85.696219 155.83014 85.710938 166.84375 C 85.76834 154.88091 85.237573 145.19503 82.337891 145.36328 z M 129.21875 155.41797 C 126.98338 155.25341 126.45298 161.80546 126.46875 170.56055 C 126.5394 162.8193 127.1547 157.26602 129.21875 157.41797 C 132.19022 157.63672 132.87841 166.11752 132.89844 176.79688 C 132.96003 165.18424 132.37478 155.6503 129.21875 155.41797 z M 70.322266 157.15234 C 64.809964 165.08418 69.120435 212.70981 64.638672 212.89062 C 59.13226 213.15633 64.37343 175.52672 58.470703 175.16992 C 54.934242 174.95618 53.0604 217.79441 48.732422 217.95898 C 43.700299 218.46135 44.255298 193.86429 40.775391 193.94141 C 36.741431 194.45553 37.798443 220.85774 32.505859 220.91992 C 29.462322 221.64331 28.728956 210.51476 26.009766 210.77539 C 23.571547 211.00908 23.111118 222.47828 19.076172 224.54883 C 18.037376 224.68985 17.445263 224.46232 17.177734 223.9375 C 16.740562 225.81791 17.149564 226.81037 19.076172 226.54883 C 23.111118 224.47828 23.571547 213.00908 26.009766 212.77539 C 28.728956 212.51476 29.462322 223.64331 32.505859 222.91992 C 37.798443 222.85774 36.741431 196.45553 40.775391 195.94141 C 44.255298 195.86429 43.700299 220.46135 48.732422 219.95898 C 53.0604 219.79441 54.934242 176.95618 58.470703 177.16992 C 64.37343 177.52672 59.13226 215.15633 64.638672 214.89062 C 69.120435 214.70981 64.809964 167.08418 70.322266 159.15234 C 73.261745 162.33219 73.675817 172.02664 73.716797 182.42773 C 73.714381 171.29328 73.449029 160.53479 70.322266 157.15234 z M 141.08008 169.26758 C 138.78308 169.14509 138.25948 174.98916 138.25781 182.67383 C 138.35234 175.98271 138.9824 171.15572 141.08008 171.26758 C 144.05773 171.42637 144.07935 183.0942 144.03711 195.11328 C 144.0805 182.41032 144.22523 169.4353 141.08008 169.26758 z M 153.20508 180.84375 C 147.37835 180.79268 152.6006 219.35958 147.23828 219.36133 C 144.43491 219.36223 144.05605 210.09447 144.0332 199.53711 C 144.01835 210.89634 144.25909 221.36229 147.23828 221.36133 C 152.6006 221.35958 147.37835 182.79268 153.20508 182.84375 C 159.79417 182.90123 153.18884 226.44443 159.82227 226.28711 C 162.09733 226.23315 162.44465 220.78557 162.45117 214.46094 C 162.36231 219.90254 161.85794 224.23883 159.82227 224.28711 C 153.18884 224.44443 159.79417 180.90123 153.20508 180.84375 z M 114.875 186.19336 C 114.87779 200.25559 114.51313 212.64755 111.74414 213.04688 C 109.56472 212.56674 109.13314 202.67304 109.12305 190.3125 C 109.08932 203.59729 109.44792 214.54101 111.74414 215.04688 C 114.64452 214.62861 114.90998 201.06631 114.875 186.19336 z M 103.02734 189.44531 C 103.00668 201.68451 102.40878 211.38521 99.669922 211.44922 C 97.781636 211.4738 97.279907 204.89276 97.263672 195.76172 C 97.209288 205.93386 97.645244 213.47557 99.669922 213.44922 C 102.55696 213.38174 103.06755 202.61816 103.02734 189.44531 z M 90.771484 190.31445 C 90.793921 201.96736 90.3728 211.05117 88.15625 211.02539 C 86.056857 211.00098 85.435989 204.54945 85.345703 195.70117 C 85.365883 205.53368 85.905805 212.99922 88.15625 213.02539 C 90.50106 213.05267 90.846063 202.94008 90.771484 190.31445 z M 164.6875 192.66016 C 162.65879 192.80243 162.39661 198.09687 162.41406 204.2832 C 162.47027 198.99305 162.87911 194.78698 164.6875 194.66016 C 170.72288 194.2369 165.54047 229.45159 170.91602 229.51758 C 176.75365 229.58924 171.93119 206.79288 176.41406 206.71875 C 182.71972 206.61455 178.37856 231.32275 183.49414 231.30078 C 187.20152 231.28476 184.9306 216.21036 189.05859 216.43164 C 194.33256 216.71434 190.52178 233.63657 194.18164 233.63867 C 197.63878 233.64114 198.25747 221.87574 201.04492 222.10938 C 205.15596 222.45394 204.49181 233.64553 208.57227 233.30078 C 213.17032 232.91237 212.41263 227.02411 215.49414 226.93359 C 218.99256 226.83078 220.76106 233.41626 224.2168 233.9707 C 226.63431 234.35854 228.09189 230.82742 230.53125 230.61719 C 233.42983 230.36745 235.82283 232.71564 238.62109 233.51172 C 241.59796 234.35859 240.9375 232.72266 240.9375 232.72266 L 240.38672 231.70508 C 240.0311 231.78034 239.49565 231.76052 238.62109 231.51172 C 235.82283 230.71564 233.42983 228.36745 230.53125 228.61719 C 228.09189 228.82742 226.63431 232.35854 224.2168 231.9707 C 220.76106 231.41626 218.99256 224.83078 215.49414 224.93359 C 212.41263 225.02411 213.17032 230.91237 208.57227 231.30078 C 204.49181 231.64553 205.15596 220.45394 201.04492 220.10938 C 198.25747 219.87574 197.63878 231.64114 194.18164 231.63867 C 190.52178 231.63657 194.33256 214.71434 189.05859 214.43164 C 184.9306 214.21036 187.20152 229.28476 183.49414 229.30078 C 178.37856 229.32275 182.71972 204.61455 176.41406 204.71875 C 171.93119 204.79288 176.75365 227.58924 170.91602 227.51758 C 165.54047 227.45159 170.72288 192.2369 164.6875 192.66016 z M 121.21289 199.06445 C 121.21378 209.24 121.77108 216.86812 124.16602 216.77734 C 126.46932 216.69004 127.03406 209.91784 127.0332 201.02539 C 126.94771 208.92557 126.29638 214.69659 124.16602 214.77734 C 121.92767 214.86219 121.28828 208.2365 121.21289 199.06445 z M 138.63086 204.60742 C 138.61186 212.80921 138.00539 219.22404 135.39453 219.20508 C 133.20178 219.18924 132.56462 213.09673 132.48242 204.69531 C 132.48585 214.09335 133.03481 221.18804 135.39453 221.20508 C 138.21634 221.22557 138.70533 213.75845 138.63086 204.60742 z "
       transform="translate(0,-208)"
       id="path869" />
  </g>
</svg>
