<?xml version="1.0" encoding="UTF-8" standalone="no"?>
<svg
   xmlns:dc="http://purl.org/dc/elements/1.1/"
   xmlns:cc="http://creativecommons.org/ns#"
   xmlns:rdf="http://www.w3.org/1999/02/22-rdf-syntax-ns#"
   xmlns:svg="http://www.w3.org/2000/svg"
   xmlns="http://www.w3.org/2000/svg"
   xmlns:xlink="http://www.w3.org/1999/xlink"
   xmlns:sodipodi="http://sodipodi.sourceforge.net/DTD/sodipodi-0.dtd"
   xmlns:inkscape="http://www.inkscape.org/namespaces/inkscape"
   width="256"
   height="256"
   version="1.0"
   viewBox="0 0 256 256"
   style="enable-background:new"
   id="svg36"
   sodipodi:docname="avidemux.svg"
   inkscape:version="0.92.3 (2405546, 2018-03-11)">
  <metadata
     id="metadata40">
    <rdf:RDF>
      <cc:Work
         rdf:about="">
        <dc:format>image/svg+xml</dc:format>
        <dc:type
           rdf:resource="http://purl.org/dc/dcmitype/StillImage" />
        <dc:title>
  Adwaita Icon Template
 </dc:title>
      </cc:Work>
    </rdf:RDF>
  </metadata>
  <sodipodi:namedview
     pagecolor="#ffffff"
     bordercolor="#666666"
     borderopacity="1"
     objecttolerance="10"
     gridtolerance="10"
     guidetolerance="10"
     inkscape:pageopacity="0"
     inkscape:pageshadow="2"
     inkscape:window-width="1920"
     inkscape:window-height="1009"
     id="namedview38"
     showgrid="true"
     inkscape:zoom="7.6399735"
     inkscape:cx="95.92803"
     inkscape:cy="207.74085"
     inkscape:window-x="0"
     inkscape:window-y="34"
     inkscape:window-maximized="1"
     inkscape:current-layer="g895">
    <inkscape:grid
       type="xygrid"
       id="grid864" />
  </sodipodi:namedview>
  <title
     id="title4162">
  Adwaita Icon Template
 </title>
  <defs
     id="defs16">
    <linearGradient
       id="linearGradient965"
       x1="48"
       x2="464"
       y1="44"
       y2="44"
       gradientUnits="userSpaceOnUse">
      <stop
         id="stop989"
         offset="0"
         style="stop-color:#77767b" />
      <stop
         id="stop991"
         offset=".05"
         style="stop-color:#c0bfbc" />
      <stop
         id="stop993"
         offset=".1"
         style="stop-color:#9a9996" />
      <stop
         id="stop995"
         offset=".9"
         style="stop-color:#9a9996" />
      <stop
         id="stop997"
         offset=".95"
         style="stop-color:#c0bfbc" />
      <stop
         id="stop999"
         offset="1"
         style="stop-color:#77767b" />
    </linearGradient>
    <radialGradient
       id="radialGradient1030"
       cx="64"
       cy="194.19"
       r="44"
       gradientTransform="matrix(-4.7273,7.9359e-7,-3.0301e-7,-1.6364,238.55,49.766)"
       gradientUnits="userSpaceOnUse">
      <stop
         id="stop1016"
         offset="0"
         style="stop-color:#fff" />
      <stop
         id="stop1018"
         offset="1"
         style="stop-color:#fff;stop-opacity:.094118" />
    </radialGradient>
    <linearGradient
       id="linearGradient1950"
       x1="70.347"
       x2="70.347"
       y1="245.39999"
       y2="269.14001"
       gradientUnits="userSpaceOnUse">
      <stop
         id="stop1944"
         offset="0"
         style="stop-color:#2d2839" />
      <stop
         id="stop1946"
         offset="1"
         style="stop-color:#282433" />
    </linearGradient>
    <linearGradient
       inkscape:collect="always"
       xlink:href="#linearGradient4360"
       id="linearGradient4358"
       x1="88"
       y1="88"
       x2="488"
       y2="488"
       gradientUnits="userSpaceOnUse"
       gradientTransform="rotate(-90,287.9946,298)" />
    <linearGradient
       id="linearGradient4360"
       inkscape:collect="always">
      <stop
         id="stop4362"
         offset="0"
         style="stop-color:#000000;stop-opacity:0.58823532" />
      <stop
         style="stop-color:#000000;stop-opacity:0"
         offset="0.88"
         id="stop4364" />
      <stop
         id="stop4366"
         offset="1"
         style="stop-color:#000000;stop-opacity:1" />
    </linearGradient>
    <filter
       inkscape:collect="always"
       style="color-interpolation-filters:sRGB"
       id="filter4380"
       x="-0.052999184"
       width="1.1059984"
       y="-0.043862626"
       height="1.0877253">
      <feGaussianBlur
         inkscape:collect="always"
         stdDeviation="8.4801079"
         id="feGaussianBlur4382" />
    </filter>
    <filter
       inkscape:collect="always"
       style="color-interpolation-filters:sRGB"
       id="filter4346"
       x="-0.013249796"
       width="1.0264996"
       y="-0.010965657"
       height="1.0219313">
      <feGaussianBlur
         inkscape:collect="always"
         stdDeviation="2.120027"
         id="feGaussianBlur4348" />
    </filter>
    <clipPath
       id="d"
       clipPathUnits="userSpaceOnUse">
      <path
         style="fill:#e4e6e8;stroke-width:24"
         inkscape:connector-curvature="0"
         d="M 64,-40.445 H 512 V -8.222 H 96 c -15.592,0 -32,-17.02 -32,-32.223 z"
         id="path14" />
    </clipPath>
    <clipPath
       id="e"
       clipPathUnits="userSpaceOnUse">
      <rect
         style="fill:#e4e6e8;stroke-width:24"
         width="448"
         height="32.222"
         x="64"
         y="-40.450001"
         rx="0"
         ry="0"
         id="rect11" />
    </clipPath>
    <clipPath
       id="e-3"
       clipPathUnits="userSpaceOnUse">
      <rect
         style="fill:#e4e6e8;stroke-width:24"
         width="448"
         height="32.222"
         x="64"
         y="-40.450001"
         rx="0"
         ry="0"
         id="rect11-6" />
    </clipPath>
    <clipPath
       id="d-7"
       clipPathUnits="userSpaceOnUse">
      <path
         style="fill:#e4e6e8;stroke-width:24"
         inkscape:connector-curvature="0"
         d="M 64,-40.445 H 512 V -8.222 H 96 c -15.592,0 -32,-17.02 -32,-32.223 z"
         id="path14-5" />
    </clipPath>
  </defs>
  <path
     style="color:#000000;display:inline;overflow:visible;visibility:visible;opacity:0.1;fill:#000000;fill-opacity:1;fill-rule:nonzero;stroke:none;stroke-width:2;marker:none;filter:url(#filter4346);enable-background:accumulate"
     d="M 189.84323,74 C 119.24979,74 111.65402,81.250835 112,151.98706 V 298 444.01294 C 111.65402,514.74917 119.24979,522 189.84323,522 H 386.15677 C 456.75021,522 462.16345,514.72616 464,444.01294 V 298 151.98706 C 464,81.249993 456.75021,74 386.15677,74 Z"
     id="rect4158-9"
     inkscape:connector-curvature="0"
     sodipodi:nodetypes="scccssscsss"
     transform="matrix(0,0.5,-0.5,0,276.82523,-15.328148)" />
  <path
     sodipodi:nodetypes="scccssscsss"
     inkscape:connector-curvature="0"
     id="path4350"
     d="M 189.84323,74 C 119.24979,74 111.65402,81.250835 112,151.98706 V 298 444.01294 C 111.65402,514.74917 119.24979,522 189.84323,522 H 386.15677 C 456.75021,522 464,514.75001 464,444.01294 V 298 151.98706 C 464,81.249993 456.75021,74 386.15677,74 Z"
     style="color:#000000;display:inline;overflow:visible;visibility:visible;opacity:0.3;fill:url(#linearGradient4358);fill-opacity:1;fill-rule:nonzero;stroke:none;stroke-width:2;marker:none;filter:url(#filter4380);enable-background:accumulate"
     transform="matrix(0,0.5,-0.5,0,276.82523,-15.328148)" />
  <path
     style="color:#000000;display:inline;overflow:visible;visibility:visible;fill:#4d4d4d;fill-opacity:1;fill-rule:nonzero;stroke:none;stroke-width:1;marker:none;enable-background:accumulate"
     d="m 239.82523,176.74484 c 0,35.29673 -3.62542,39.09461 -38.99353,38.92162 H 127.82523 54.818766 c -35.36812,0.17299 -38.99353,-3.62489 -38.99353,-38.92162 V 78.588074 c 0,-35.296716 3.625,-38.921616 38.99353,-38.921616 h 73.006464 73.00647 c 35.36853,0 38.99353,3.6249 38.99353,38.921616 z"
     id="rect4158"
     inkscape:connector-curvature="0"
     sodipodi:nodetypes="scccssscsss" />
  <path
     inkscape:connector-curvature="0"
     style="color:#000000;display:inline;overflow:visible;visibility:visible;opacity:0.2;fill:#000000;fill-opacity:1;fill-rule:nonzero;stroke:none;stroke-width:1;marker:none;enable-background:accumulate"
     d="m 15.825983,174.74533 v 2 c 0,35.29673 3.624067,39.09487 38.992187,38.92188 h 73.00781 73.00586 c 35.36811,0.17299 38.99414,-3.62515 38.99414,-38.92188 v -2 c 0,35.29673 -3.62603,39.09487 -38.99414,38.92188 H 127.82598 54.81817 C 19.45005,213.8402 15.825983,210.04206 15.825983,174.74533 Z"
     id="rect4158-6" />
  <g
     transform="matrix(1.9999821,0,0,1.9999821,-242.03702,-350.80197)"
     id="g77">
    <g
       transform="translate(-2.2568482,4.8460341)"
       id="g69">
      <g
         style="enable-background:new"
         clip-path="url(#d-7)"
         transform="matrix(0.25,0,0,-0.25,115.19002,188.2427)"
         id="g35" />
      <g
         style="enable-background:new"
         clip-path="url(#e-3)"
         transform="matrix(0.25,0,0,0.25,115.19002,208.4087)"
         id="g49" />
      <path
         style="fill:#d2d2d2;fill-opacity:1;stroke-width:1;enable-background:new"
         d="m 137.82431,191.59734 c -0.33833,0.1099 -0.77435,0.166 -1.07911,0.29688 -0.48485,0.20821 -0.92755,0.44406 -1.33302,0.71094 -0.40547,0.26688 -0.77349,0.56507 -1.10645,0.89747 -0.33297,0.3324 -0.63114,0.69974 -0.89845,1.1045 -0.26731,0.40476 -0.50339,0.8471 -0.71192,1.33107 -0.41706,0.96794 -0.72415,2.10092 -0.94728,3.42679 -0.22312,1.32587 -0.36219,2.84447 -0.44629,4.58305 -0.0335,0.69198 -0.0274,1.5862 -0.0449,2.34963 h 15.93276 v -5.33306 c 0,-0.0676 -7.3607,-7.37593 -9.36532,-9.36727 z"
         id="path935"
         inkscape:connector-curvature="0" />
      <circle
         style="fill:#241f31;stroke-width:1;enable-background:new"
         cx="137.20602"
         cy="203.57471"
         r="1.25"
         id="circle53" />
      <circle
         style="fill:#241f31;stroke-width:1;enable-background:new"
         cx="137.20602"
         cy="195.59172"
         r="1.25"
         id="circle55" />
      <circle
         style="fill:#f6f5f4;stroke-width:1;enable-background:new"
         cx="137.20602"
         cy="203.26871"
         r="1.25"
         id="circle61" />
      <circle
         style="fill:#f6f5f4;stroke-width:1;enable-background:new"
         cx="137.20602"
         cy="195.28671"
         r="1.25"
         id="circle63" />
      <circle
         style="fill:#241f31;stroke-width:1;enable-background:new"
         cx="144.097"
         cy="203.54771"
         r="1.25"
         id="circle65" />
      <circle
         style="fill:#f6f5f4;stroke-width:1;enable-background:new"
         cx="144.097"
         cy="203.24272"
         r="1.25"
         id="circle67" />
    </g>
    <g
       style="fill:#f6f5f4"
       id="g75"
       transform="translate(120.93316,3.2376704)">
      <path
         inkscape:connector-curvature="0"
         d="m 26,244 h 76 c 1.062,0 2,0.936 2,2 H 24 c 0,-1.108 0.983,-2 2,-2 z"
         id="path71" />
      <path
         inkscape:connector-curvature="0"
         d="m 48,232 v 14 h -2 v -14 z m 34,0 v 14 h -2 v -14 z m -58,30 h 80 c 0,1.054 -0.913,2 -2,2 H 26 c -0.985,0 -2,-1.03 -2,-2 z"
         id="path73" />
    </g>
  </g>
  <path
     style="font-size:40px;line-height:1.25;letter-spacing:0px;word-spacing:0px;fill:#ffffff;stroke-width:1.82959008"
     d="m 70.356162,152.21742 -6.317803,16.01248 c -0.139757,0.34942 -0.259665,0.63767 -0.36449,0.86477 -0.08735,0.20966 -0.177087,0.38197 -0.264432,0.52173 -0.06988,0.1398 -0.13738,0.26328 -0.207258,0.36806 -0.06988,0.10487 -0.15961,0.20969 -0.264432,0.31445 -0.209642,0.24458 -0.486781,0.45423 -0.836181,0.62892 -0.349401,0.15724 -0.708729,0.23585 -1.075598,0.23585 h -0.10363 v 1.25785 h 7.257612 v -1.25785 h -0.550306 c -1.484953,0 -2.226239,-0.5241 -2.226239,-1.57229 0,-0.33194 0.07861,-0.72503 0.235845,-1.17924 l 0.943382,-2.46208 h 7.257613 l 1.468674,3.74495 c 0.08736,0.20967 0.139764,0.3669 0.157231,0.47168 0.03495,0.1048 0.05003,0.19455 0.05003,0.26444 0,0.24458 -0.157231,0.42801 -0.471692,0.5503 -0.296992,0.12231 -0.697611,0.18224 -1.204241,0.18224 h -1.179228 v 1.25785 h 8.515456 v -1.25785 h -0.393077 c -0.331931,0 -0.609069,-0.0186 -0.836179,-0.0536 -0.227111,-0.035 -0.429207,-0.11355 -0.603908,-0.23584 -0.157231,-0.12229 -0.306917,-0.29462 -0.446678,-0.52172 -0.122291,-0.24458 -0.260859,-0.55905 -0.41809,-0.94338 l -6.971739,-17.19172 z m 46.983298,0 -5.39586,0.28944 v 1.17925 h 1.62233 c 0.24458,0 0.43914,0.0151 0.5789,0.05 0.15723,0.035 0.27714,0.10606 0.36449,0.21082 0.0874,0.0873 0.13976,0.22592 0.15723,0.4181 0.0349,0.17469 0.0536,0.41054 0.0536,0.70754 v 6.18558 c -0.50664,-0.69879 -1.06449,-1.2078 -1.67594,-1.52227 -0.59398,-0.33192 -1.29397,-0.49671 -2.09759,-0.49671 -0.76869,0 -1.48377,0.17589 -2.14763,0.52529 -0.66386,0.3494 -1.24037,0.83618 -1.72953,1.4651 -0.48916,0.61145 -0.8747,1.33765 -1.15422,2.17622 -0.27952,0.83856 -0.41809,1.75573 -0.41809,2.75152 0,0.97832 0.13103,1.87683 0.39308,2.69793 0.27952,0.82111 0.65393,1.52865 1.12563,2.12262 0.48916,0.57651 1.06567,1.0331 1.72953,1.36504 0.68133,0.33192 1.41507,0.49672 2.20123,0.49672 0.89097,0 1.63225,-0.19099 2.22624,-0.57534 0.59398,-0.38434 1.11053,-0.98706 1.54729,-1.80814 v 2.12261 l 4.79552,-0.15723 v -1.17923 h -0.4967 c -0.36687,0 -0.66625,-0.0187 -0.89336,-0.0536 -0.20964,-0.0524 -0.37441,-0.14612 -0.4967,-0.28588 -0.12229,-0.15723 -0.2009,-0.36687 -0.23585,-0.62892 -0.0349,-0.26205 -0.0536,-0.61383 -0.0536,-1.05059 z m -17.29534,0.57531 c -0.454221,0 -0.828636,0.15724 -1.125628,0.47171 -0.29699,0.31447 -0.446676,0.69244 -0.446676,1.12919 0,0.43676 0.142141,0.81118 0.421662,1.12563 0.296992,0.31447 0.671407,0.47169 1.125632,0.47169 0.45421,0 0.82863,-0.14968 1.12562,-0.44668 0.31446,-0.31447 0.47169,-0.69643 0.47169,-1.15064 0,-0.43675 -0.15723,-0.81472 -0.47169,-1.12919 -0.29699,-0.31447 -0.66386,-0.47171 -1.10061,-0.47171 z m -29.873775,3.95937 3.09458,7.78289 h -6.160574 z m 57.024605,2.48709 c -0.8735,0 -1.68586,0.18343 -2.43707,0.5503 -0.75122,0.34941 -1.40634,0.8473 -1.96538,1.4937 -0.54157,0.62892 -0.97197,1.38132 -1.28643,2.25482 -0.29699,0.8735 -0.44311,1.81689 -0.44311,2.83015 0,0.97832 0.14612,1.86928 0.44311,2.67291 0.29699,0.78615 0.71627,1.45996 1.25784,2.01899 0.54157,0.55905 1.18916,0.99341 1.94037,1.30786 0.76868,0.31447 1.61478,0.47171 2.5407,0.47171 2.6205,0 4.49218,-1.2916 5.61026,-3.87718 l -0.97197,-0.5503 c -0.55904,1.06568 -1.15064,1.82563 -1.77956,2.27985 -0.62892,0.43676 -1.40753,0.65393 -2.33344,0.65393 -1.36266,0 -2.40332,-0.5916 -3.11959,-1.77957 -0.22712,-0.38434 -0.39943,-0.80363 -0.52172,-1.25784 -0.10483,-0.45422 -0.15723,-1.00452 -0.15723,-1.65091 v -0.39307 h 8.88351 c 0,-1.03074 -0.14214,-1.97411 -0.42166,-2.83016 -0.27952,-0.8735 -0.6726,-1.61836 -1.17923,-2.22981 -0.48916,-0.62892 -1.08076,-1.10817 -1.77956,-1.44009 -0.68133,-0.3494 -1.44128,-0.52529 -2.27984,-0.52529 z m 16.08753,0 c -0.83856,0 -1.57231,0.20209 -2.20123,0.60391 -0.62892,0.40179 -1.20543,1.03071 -1.72953,1.88676 v -2.06901 l -4.89916,0.28587 v 1.15422 h 1.12563 c 0.26205,0 0.46414,0.0187 0.60391,0.0536 0.15723,0.035 0.26959,0.10247 0.33947,0.20725 0.0874,0.0874 0.13976,0.22949 0.15723,0.42167 0.0349,0.17469 0.0536,0.41054 0.0536,0.70754 v 7.62566 c 0,0.27952 -0.0262,0.50427 -0.0786,0.67896 -0.0524,0.17472 -0.14969,0.30574 -0.28945,0.39307 -0.12229,0.0873 -0.31327,0.15081 -0.57532,0.18581 -0.24458,0.0349 -0.55904,0.05 -0.94338,0.05 h -0.23585 v 0.99698 h 6.89313 v -0.99698 h -0.10721 c -0.45422,0 -0.80997,-0.0152 -1.07202,-0.05 -0.26205,-0.035 -0.47169,-0.0985 -0.62892,-0.18581 -0.13976,-0.0874 -0.23704,-0.21838 -0.28945,-0.39307 -0.0349,-0.17469 -0.0536,-0.39944 -0.0536,-0.67896 v -4.95276 c 0,-0.61145 0.0786,-1.18041 0.23584,-1.70452 0.15723,-0.5241 0.36688,-0.96959 0.62893,-1.33646 0.27952,-0.38434 0.61264,-0.68013 0.99698,-0.88977 0.38434,-0.22712 0.80362,-0.34304 1.25784,-0.34304 0.3494,0 0.69007,0.0897 1.022,0.26443 0.3494,0.17469 0.60391,0.38434 0.76114,0.62892 0.38434,0.54156 0.57532,1.36901 0.57532,2.48709 v 5.87113 c 0,0.27953 -0.0262,0.50783 -0.0786,0.68251 -0.0524,0.15728 -0.15723,0.28831 -0.31446,0.39309 -0.13976,0.0874 -0.3494,0.14736 -0.62892,0.18225 -0.26205,0.0174 -0.62138,0.025 -1.0756,0.025 h -0.12864 v 0.99698 h 6.96816 v -0.99698 h -0.10363 c -0.45422,0 -0.81354,-0.008 -1.07559,-0.025 -0.26205,-0.035 -0.4717,-0.0949 -0.62893,-0.18225 -0.13975,-0.10483 -0.23346,-0.23585 -0.28587,-0.39309 -0.0349,-0.17468 -0.0536,-0.40298 -0.0536,-0.68251 v -4.74193 c 0,-1.36266 0.28071,-2.45573 0.83975,-3.27683 0.57652,-0.82108 1.33646,-1.23281 2.27984,-1.23281 0.4717,0 0.87232,0.12348 1.20425,0.36805 0.3494,0.24458 0.61899,0.58524 0.81116,1.022 0.12229,0.29699 0.2009,0.61146 0.23585,0.94339 0.0524,0.33192 0.0786,0.77741 0.0786,1.33646 v 5.58167 c 0,0.27953 -0.0262,0.50783 -0.0786,0.68251 -0.0524,0.15728 -0.14612,0.28831 -0.28588,0.39309 -0.13976,0.0874 -0.34185,0.14736 -0.6039,0.18225 -0.24458,0.0174 -0.56659,0.025 -0.9684,0.025 h -0.21083 v 0.99698 h 6.91813 v -0.99698 h -0.13221 c -0.43675,0 -0.79251,-0.0152 -1.07203,-0.05 -0.26205,-0.035 -0.47169,-0.0985 -0.62892,-0.18581 -0.13976,-0.0874 -0.23703,-0.21838 -0.28945,-0.39307 -0.0524,-0.17469 -0.0786,-0.39944 -0.0786,-0.67896 v -6.10697 c 0,-0.41927 -0.008,-0.77861 -0.025,-1.0756 -0.0175,-0.31445 -0.0623,-0.58404 -0.13222,-0.81117 -0.0699,-0.24458 -0.16716,-0.47288 -0.28945,-0.68251 -0.10482,-0.20963 -0.24339,-0.42682 -0.41809,-0.65393 -0.40181,-0.50663 -0.8735,-0.89216 -1.41507,-1.15422 -0.54157,-0.26205 -1.14429,-0.39308 -1.80815,-0.39308 -0.89097,0 -1.68467,0.22075 -2.38347,0.65751 -0.68133,0.41927 -1.32137,1.11571 -1.91535,2.09402 -0.24458,-0.83857 -0.69761,-1.50123 -1.36148,-1.99039 -0.66386,-0.50663 -1.46867,-0.76114 -2.41205,-0.76114 z m -62.131022,0.42166 v 0.9684 h 0.235846 c 0.524102,0 0.898515,0.0862 1.125626,0.26087 0.244581,0.15723 0.465339,0.45659 0.657509,0.89335 l 4.741926,11.05616 h 0.968396 l 3.880733,-9.6411 c 0.366871,-0.90843 0.748829,-1.56355 1.15064,-1.96537 0.419281,-0.40181 0.883428,-0.60391 1.39006,-0.60391 h 0.103628 v -0.9684 h -5.449461 v 0.9684 h 0.393074 c 0.960853,0 1.440089,0.32199 1.440089,0.96839 0,0.13976 -0.0262,0.31566 -0.07862,0.52529 -0.03495,0.20963 -0.07623,0.41173 -0.128642,0.60391 l -2.544274,6.36783 -3.11602,-7.26118 c -0.05241,-0.0874 -0.09727,-0.18109 -0.132217,-0.28587 -0.01747,-0.10484 -0.02501,-0.20212 -0.02501,-0.28945 0,-0.24459 0.10482,-0.40937 0.31446,-0.49671 0.227111,-0.0873 0.620187,-0.13221 1.179228,-0.13221 h 0.393076 v -0.9684 z m 20.179092,0 -5.163589,0.28587 v 1.15422 h 1.39006 c 0.26205,0 0.460574,0.0187 0.600334,0.0536 0.157235,0.035 0.280716,0.10247 0.368061,0.20725 0.08736,0.0874 0.139764,0.22949 0.157231,0.42167 0.03494,0.17469 0.0536,0.41054 0.0536,0.70754 v 7.65068 c 0,0.27953 -0.0262,0.50783 -0.07862,0.68251 -0.03494,0.15728 -0.132217,0.28831 -0.289447,0.39309 -0.13976,0.0874 -0.349402,0.14736 -0.628921,0.18225 -0.262051,0.0174 -0.61026,0.025 -1.047012,0.025 h -0.210831 v 0.99698 h 7.128964 v -0.99698 h -0.18581 c -0.45422,0 -0.8211,-0.008 -1.10062,-0.025 -0.26205,-0.035 -0.47169,-0.0949 -0.62892,-0.18225 -0.13976,-0.10483 -0.23346,-0.23585 -0.28587,-0.39309 -0.0524,-0.17468 -0.0786,-0.40298 -0.0786,-0.68251 z m 62.23465,0 -4.79553,0.28587 v 1.15422 h 1.05059 c 0.26205,0 0.46057,0.0152 0.60033,0.05 0.15724,0.035 0.28072,0.10606 0.36806,0.21084 0.0874,0.0874 0.13977,0.22592 0.15723,0.41808 0.0349,0.17471 0.0536,0.41413 0.0536,0.71113 v 5.92114 c 0,0.69881 0.0337,1.24157 0.10363,1.62592 0.0699,0.38432 0.20844,0.73253 0.41808,1.047 0.36688,0.55903 0.86477,0.99341 1.49369,1.30786 0.62892,0.297 1.36267,0.4467 2.20123,0.4467 0.90844,0 1.69459,-0.19099 2.35845,-0.57534 0.68134,-0.40181 1.32892,-1.04938 1.94037,-1.94035 v 2.27983 l 4.97777,-0.18224 v -1.17923 h -0.67894 c -0.38434,0 -0.69126,-0.0187 -0.91837,-0.0536 -0.22711,-0.0524 -0.403,-0.14612 -0.52529,-0.28588 -0.12229,-0.13976 -0.20845,-0.34186 -0.26086,-0.60391 -0.0349,-0.26203 -0.0536,-0.62136 -0.0536,-1.0756 v -9.56246 l -5.135,0.28587 v 1.15422 h 1.39006 c 0.50663,0 0.82863,0.0862 0.9684,0.26086 0.15723,0.15724 0.23584,0.53521 0.23584,1.12921 v 3.38044 c 0,0.78616 -0.0524,1.43017 -0.15723,1.9368 -0.10482,0.48916 -0.26205,0.96085 -0.47169,1.41506 -0.27952,0.61145 -0.68014,1.09426 -1.20424,1.44368 -0.50663,0.33192 -1.10181,0.49669 -1.78314,0.49669 -0.43675,0 -0.82228,-0.0711 -1.15421,-0.21082 -0.33193,-0.13976 -0.59398,-0.35695 -0.78616,-0.65395 -0.0873,-0.12229 -0.15484,-0.24577 -0.20725,-0.36806 -0.0524,-0.12229 -0.0973,-0.26084 -0.13222,-0.41808 -0.0175,-0.15723 -0.0361,-0.3482 -0.0536,-0.57533 v -0.94337 z m 11.82087,0 v 0.9684 c 0.24458,0.0174 0.45422,0.0512 0.62892,0.10363 0.19217,0.0525 0.36449,0.13107 0.52172,0.23584 0.1747,0.10483 0.35059,0.25451 0.52529,0.44667 0.1747,0.17471 0.3768,0.40301 0.60391,0.68253 l 3.35186,4.21664 -3.19463,3.69491 c -0.38434,0.45421 -0.78854,0.80601 -1.20782,1.05059 -0.41928,0.24458 -0.82744,0.36449 -1.22925,0.36449 h -0.18582 v 0.99698 h 5.81752 v -0.99698 h -0.41809 c -0.33193,0 -0.56023,-0.008 -0.68252,-0.025 -0.10481,-0.0175 -0.19852,-0.0436 -0.28587,-0.0786 -0.10483,-0.0524 -0.20211,-0.13857 -0.28945,-0.26086 -0.0699,-0.12229 -0.10363,-0.24577 -0.10363,-0.36806 0,-0.19218 0.0786,-0.38315 0.23585,-0.57533 l 2.27984,-2.78012 2.12261,2.78012 c 0.0874,0.13976 0.16597,0.28587 0.23584,0.4431 0.0699,0.15726 0.10363,0.28074 0.10363,0.36806 0,0.17473 -0.11236,0.30575 -0.33947,0.39309 -0.22711,0.0699 -0.6051,0.10363 -1.1292,0.10363 h -0.18225 v 0.99698 h 6.89313 v -0.99698 h -0.15723 c -0.48916,0 -0.92711,-0.0937 -1.31145,-0.28588 -0.36687,-0.20963 -0.7262,-0.56142 -1.0756,-1.05058 l -3.45907,-4.66332 3.09459,-3.6413 c 0.33193,-0.40182 0.67259,-0.69007 1.02199,-0.86478 0.3494,-0.19216 0.69761,-0.28944 1.04701,-0.28944 h 0.26086 v -0.9684 h -5.68531 v 0.9684 h 0.5253 c 0.82109,0 1.22925,0.2021 1.22925,0.60391 0,0.33193 -0.18343,0.70634 -0.5503,1.12562 l -1.72954,2.044 -2.09402,-2.69793 c -0.0873,-0.0874 -0.15842,-0.18468 -0.21083,-0.28946 -0.0524,-0.10485 -0.0786,-0.20967 -0.0786,-0.31445 0,-0.31447 0.40062,-0.47169 1.20425,-0.47169 h 0.39307 v -0.9684 z m -48.24472,0.73255 c 0.83856,0 1.50123,0.33313 1.99039,0.99698 0.50663,0.66387 0.76114,1.54374 0.76114,2.64434 0,0.40182 -0.0711,0.67498 -0.21083,0.81474 -0.13976,0.13976 -0.43556,0.20725 -0.88978,0.20725 h -4.82054 c 0,-0.41928 0.0262,-0.79369 0.0786,-1.12563 0.0699,-0.33193 0.1747,-0.6988 0.31446,-1.10061 0.55904,-1.62471 1.48376,-2.43707 2.77655,-2.43707 z m -15.64443,0.31447 c 0.57651,0 1.10816,0.19097 1.59732,0.57532 0.48916,0.36686 0.85604,0.86477 1.10062,1.49369 0.3494,0.89097 0.52529,1.99158 0.52529,3.30183 0,1.60725 -0.2958,2.8913 -0.88978,3.85214 -0.57652,0.94339 -1.36267,1.41508 -2.35846,1.41508 -0.96085,0 -1.7208,-0.41929 -2.27984,-1.25784 -0.54157,-0.85605 -0.81474,-2.05035 -0.81474,-3.58772 0,-1.58977 0.16835,-2.85873 0.50028,-3.80211 0.24458,-0.59399 0.60033,-1.07322 1.07202,-1.44009 0.4717,-0.36686 0.98825,-0.5503 1.54729,-0.5503 z"
     id="path81"
     inkscape:connector-curvature="0" />
  <g
     id="g895"
     transform="matrix(1,0,0,1.0258241,0,-1.8459626)">
    <path
       sodipodi:nodetypes="cccccccccccccccccccc"
       id="rect37"
       transform="translate(246.41584,-19.348428)"
       d="m -189.12666,75.348428 -8.70342,15.48165 h 23.7832 l 7.63104,-15.48165 z m 50.13568,0 -8.83519,15.481697 h 23.77734 l 9.41638,-15.481697 z m 50.133707,0 -8.970852,15.48165 h 23.777344 l 7.634944,-15.48165 z m 49.46319,0 -8.435995,15.48165 h 23.779297 l 7.634944,-15.48165 z"
       style="fill:#fafafa;fill-opacity:1;stroke-width:0.49999553;enable-background:new"
       inkscape:connector-curvature="0" />
    <path
       style="fill:#d4d4d4;fill-opacity:1;stroke-width:0.50641036;enable-background:new"
       d="M 148.58789 39.71875 L 157.55859 55.599609 L 180 55.599609 L 172.36523 39.71875 L 148.58789 39.71875 z "
       id="path906"
       transform="matrix(1,0,0,0.974826,0,1.7994923)" />
    <path
       style="fill:#d4d4d4;fill-opacity:1;stroke-width:0.50641036;enable-background:new"
       d="M 223.03516 41.111328 C 222.59795 41.023897 222.30578 40.862334 221.8457 40.785156 C 219.18893 40.339483 216.14611 40.058682 212.66211 39.890625 C 209.99605 39.762022 206.81661 39.741411 203.60938 39.71875 L 198.58594 39.71875 L 207.02148 55.599609 L 230 55.599609 L 223.03516 41.111328 z "
       id="path902"
       transform="matrix(1,0,0,0.974826,0,1.7994923)" />
    <path
       style="fill:#d4d4d4;fill-opacity:1;stroke-width:0.50641036;enable-background:new"
       d="M 52.041016 39.71875 C 50.829396 39.727311 49.753294 39.761703 48.621094 39.783203 L 57.289062 55.599609 L 80 55.599609 L 72.369141 39.71875 L 52.041016 39.71875 z M 98.589844 39.71875 L 107.42578 55.599609 L 131.7832 55.599609 L 122.36719 39.71875 L 98.589844 39.71875 z "
       id="path875"
       transform="matrix(1,0,0,0.974826,0,1.7994923)" />
  </g>
  <path
     inkscape:connector-curvature="0"
     style="color:#000000;display:inline;overflow:visible;visibility:visible;opacity:0.3;fill:#ffffff;fill-opacity:1;fill-rule:nonzero;stroke:none;stroke-width:1;marker:none;enable-background:accumulate"
     d="m 54.81817,39.667201 c -35.36853,0 -38.992187,3.623202 -38.992187,38.919923 v 98.158206 c 0,0.0882 0.0019,0.16224 0.002,0.25 V 80.585174 c -4.7e-5,-35.29672 3.625564,-38.921879 38.994094,-38.921879 h 73.005853 73.00586 c 35.28016,0 38.97394,3.621035 38.99219,38.671879 v -1.74805 c 0,-35.296721 -3.62561,-38.919923 -38.99414,-38.919923 h -73.00586 z"
     id="rect4158-78" />
</svg>
