<?xml version="1.0" encoding="UTF-8" standalone="no"?>
<svg
   xmlns:dc="http://purl.org/dc/elements/1.1/"
   xmlns:cc="http://creativecommons.org/ns#"
   xmlns:rdf="http://www.w3.org/1999/02/22-rdf-syntax-ns#"
   xmlns:svg="http://www.w3.org/2000/svg"
   xmlns="http://www.w3.org/2000/svg"
   xmlns:xlink="http://www.w3.org/1999/xlink"
   xmlns:sodipodi="http://sodipodi.sourceforge.net/DTD/sodipodi-0.dtd"
   xmlns:inkscape="http://www.inkscape.org/namespaces/inkscape"
   width="256"
   height="256"
   version="1.0"
   viewBox="0 0 256 256"
   style="enable-background:new"
   id="svg56"
   sodipodi:docname="bombono-dvd.svg"
   inkscape:version="0.92.3 (2405546, 2018-03-11)">
  <metadata
     id="metadata60">
    <rdf:RDF>
      <cc:Work
         rdf:about="">
        <dc:format>image/svg+xml</dc:format>
        <dc:type
           rdf:resource="http://purl.org/dc/dcmitype/StillImage" />
        <dc:title>
  Adwaita Icon Template
 </dc:title>
      </cc:Work>
    </rdf:RDF>
  </metadata>
  <sodipodi:namedview
     pagecolor="#ffffff"
     bordercolor="#666666"
     borderopacity="1"
     objecttolerance="10"
     gridtolerance="10"
     guidetolerance="10"
     inkscape:pageopacity="0"
     inkscape:pageshadow="2"
     inkscape:window-width="1920"
     inkscape:window-height="1009"
     id="namedview58"
     showgrid="false"
     inkscape:zoom="1.2366272"
     inkscape:cx="-191.86891"
     inkscape:cy="73.768839"
     inkscape:window-x="0"
     inkscape:window-y="34"
     inkscape:window-maximized="1"
     inkscape:current-layer="g1686" />
  <title
     id="title4162">
  Adwaita Icon Template
 </title>
  <defs
     id="defs19">
    <linearGradient
       id="linearGradient1115">
      <stop
         id="stop1103"
         offset="0"
         style="stop-color:#d5d3cf" />
      <stop
         style="stop-color:#e3e2df"
         id="stop1105"
         offset=".038" />
      <stop
         style="stop-color:#c0bfbc"
         id="stop1107"
         offset=".077" />
      <stop
         style="stop-color:#c0bfbc"
         id="stop1109"
         offset=".923" />
      <stop
         style="stop-color:#e3e2df"
         id="stop1111"
         offset=".962" />
      <stop
         id="stop1113"
         offset="1"
         style="stop-color:#d5d3cf" />
    </linearGradient>
    <linearGradient
       id="linearGradient6058">
      <stop
         style="stop-color:#ffffff"
         id="stop6054"
         offset="0" />
      <stop
         style="stop-color:#f6f5f4"
         id="stop6056"
         offset="1" />
    </linearGradient>
    <linearGradient
       id="paint3_linear-2-6-5"
       x2="1"
       gradientTransform="matrix(0,6,-12,0,-64,209.99687)"
       gradientUnits="userSpaceOnUse">
      <stop
         id="stop91-0-7-4"
         stop-color="#C01C27" />
      <stop
         id="stop93-2-5-7"
         offset="1"
         stop-color="#E01B24" />
    </linearGradient>
    <linearGradient
       id="linearGradient1097"
       x1="43.844002"
       x2="-60"
       y1="234"
       y2="234"
       gradientTransform="matrix(1.0015061,0,0,0.99993452,72.09037,56.015192)"
       gradientUnits="userSpaceOnUse"
       xlink:href="#linearGradient1115" />
    <radialGradient
       id="radialGradient1099"
       cx="-24.239"
       cy="225.59599"
       r="24"
       fx="-24.239"
       fy="225.59599"
       gradientTransform="matrix(1.757743,-9.5621778e-8,3.7652438e-8,1.9495846,106.60563,-336.54495)"
       gradientUnits="userSpaceOnUse"
       xlink:href="#linearGradient6058" />
    <linearGradient
       id="linearGradient1383"
       x2="1"
       gradientTransform="matrix(0,6,-12,0,-264,209.99687)"
       gradientUnits="userSpaceOnUse"
       xlink:href="#paint3_linear-2-6-5" />
    <radialGradient
       id="radialGradient1622"
       cx="20.830999"
       cy="307.117"
       r="22.761"
       gradientTransform="matrix(1.2381722,1.3568844,-1.1847184,1.0810688,348.47993,-115.76591)"
       gradientUnits="userSpaceOnUse">
      <stop
         style="stop-color:#ffffff"
         id="stop25"
         offset="0" />
      <stop
         style="stop-color:#dddddd"
         id="stop27"
         offset=".936" />
      <stop
         style="stop-color:#c8c8c8"
         id="stop29"
         offset="1" />
    </radialGradient>
    <filter
       id="filter2459"
       width="1.069"
       height="1.075"
       x="-0.039999999"
       y="-0.039999999"
       style="color-interpolation-filters:sRGB">
      <feGaussianBlur
         id="feGaussianBlur56"
         stdDeviation=".612" />
    </filter>
    <filter
       id="filter2132"
       width="1.558"
       height="1.683"
       x="-0.28"
       y="-0.34"
       style="color-interpolation-filters:sRGB">
      <feGaussianBlur
         id="feGaussianBlur41"
         stdDeviation=".512" />
    </filter>
    <filter
       id="filter2088"
       width="1.41"
       height="1.284"
       x="-0.2"
       y="-0.14"
       style="color-interpolation-filters:sRGB">
      <feGaussianBlur
         id="feGaussianBlur38"
         stdDeviation=".752" />
    </filter>
    <filter
       id="filter2064"
       width="1.223"
       height="1.6799999"
       x="-0.11"
       y="-0.34"
       style="color-interpolation-filters:sRGB">
      <feGaussianBlur
         id="feGaussianBlur35"
         stdDeviation=".518" />
    </filter>
    <filter
       id="filter2231"
       width="1.098"
       height="1.154"
       x="-0.050000001"
       y="-0.079999998"
       style="color-interpolation-filters:sRGB">
      <feGaussianBlur
         id="feGaussianBlur44"
         stdDeviation=".629" />
    </filter>
    <filter
       id="filter2044"
       width="1.734"
       height="1.272"
       x="-0.37"
       y="-0.14"
       style="color-interpolation-filters:sRGB">
      <feGaussianBlur
         id="feGaussianBlur32"
         stdDeviation=".824" />
    </filter>
    <filter
       id="filter2317"
       width="1.393"
       height="1.293"
       x="-0.2"
       y="-0.15000001"
       style="color-interpolation-filters:sRGB">
      <feGaussianBlur
         id="feGaussianBlur47"
         stdDeviation=".372" />
    </filter>
    <filter
       id="filter2419"
       width="1.2130001"
       height="1.275"
       x="-0.11"
       y="-0.14"
       style="color-interpolation-filters:sRGB">
      <feGaussianBlur
         id="feGaussianBlur50"
         stdDeviation=".434" />
    </filter>
    <radialGradient
       inkscape:collect="always"
       xlink:href="#radialGradient1622"
       id="radialGradient1612"
       gradientUnits="userSpaceOnUse"
       gradientTransform="matrix(1.2381722,1.3568844,-1.1847184,1.0810688,348.47993,-115.76591)"
       cx="20.830999"
       cy="307.117"
       r="22.761" />
    <radialGradient
       inkscape:collect="always"
       xlink:href="#radialGradient1622"
       id="radialGradient1614"
       gradientUnits="userSpaceOnUse"
       gradientTransform="matrix(1.2381722,1.3568844,-1.1847184,1.0810688,348.47993,-115.76591)"
       cx="20.830999"
       cy="307.117"
       r="22.761" />
    <radialGradient
       id="radialGradient1622-7"
       cx="20.830999"
       cy="307.117"
       r="22.761"
       gradientTransform="matrix(1.2381722,1.3568844,-1.1847184,1.0810688,348.47993,-115.76591)"
       gradientUnits="userSpaceOnUse">
      <stop
         style="stop-color:#ffffff"
         id="stop25-5"
         offset="0" />
      <stop
         style="stop-color:#dddddd"
         id="stop27-3"
         offset=".936" />
      <stop
         style="stop-color:#c8c8c8"
         id="stop29-5"
         offset="1" />
    </radialGradient>
    <filter
       inkscape:collect="always"
       style="color-interpolation-filters:sRGB"
       id="filter1733"
       x="-0.011548178"
       width="1.0230964"
       y="-0.012489077"
       height="1.0249782">
      <feGaussianBlur
         inkscape:collect="always"
         stdDeviation="0.22471698"
         id="feGaussianBlur1735" />
    </filter>
    <filter
       inkscape:collect="always"
       style="color-interpolation-filters:sRGB"
       id="filter1747"
       x="-0.046192712"
       width="1.0923854"
       y="-0.049956309"
       height="1.0999126">
      <feGaussianBlur
         inkscape:collect="always"
         stdDeviation="0.89886793"
         id="feGaussianBlur1749" />
    </filter>
  </defs>
  <g
     transform="matrix(4.882038,0,0,4.8776448,-692.92041,-1192.6586)"
     id="g88"
     style="stroke-width:0.87276632">
    <g
       transform="translate(77.245275,11.224556)"
       id="g86"
       style="stroke-width:0.87276632">
      <g
         transform="translate(5.0721183,2.0217561)"
         id="g84"
         style="stroke-width:0.87276632">
        <g
           transform="translate(-5.934293,3.7036714)"
           id="g82"
           style="stroke-width:0.87276632">
          <g
             transform="translate(-1.0608828,-1.5505271)"
             id="g80"
             style="stroke-width:0.87276632">
            <g
               transform="translate(19.287623,42.309275)"
               id="g64"
               style="stroke-width:0.87276632">
              <g
                 id="g1686">
                <path
                   sodipodi:nodetypes="cccsccccccccccccccccccccscccccccccccccccccccccccccccccccccccccccccccccccccccccccccccsccccccccccccccccccccccccccccccccccccccccsccc"
                   style="opacity:0.1;fill:#000000;fill-opacity:1;stroke-width:0.96175903;filter:url(#filter1747);enable-background:new"
                   d="m 93.042188,191.09242 c -0.596853,-0.0428 -1.200149,0.0308 -1.790573,0.1278 -0.499943,0.0825 -0.986637,0.23439 -1.470826,0.38368 -0.605644,0.18679 -1.090243,0.31864 -1.790566,0.6395 -0.700324,0.32086 -1.616334,0.81898 -2.366112,1.34294 -0.749778,0.52394 -1.463387,1.13288 -2.110315,1.79057 -0.7541,0.76664 -2.046366,2.494 -2.046366,2.494 0,0 -4.229722,-0.13285 -6.33095,0.064 -0.603651,0.0565 -1.790567,0.31977 -1.790567,0.31977 l -1.918468,0.41562 c 0,0 -0.778811,0.19718 -1.576743,0.52461 0,0 -0.87967,0.38632 -1.524781,0.62648 -0.920891,0.34284 -1.311235,0.7227 -2.14229,1.24703 -0.754815,0.47622 -1.42015,1.09069 -2.046366,1.7266 -0.476757,0.48414 -0.892322,0.95839 -1.28997,1.57775 -0.01856,0.0291 -0.03663,0.0576 -0.05297,0.0849 -0.425352,0.71429 -0.783867,1.48953 -0.959234,2.30217 -0.148459,0.68793 -0.150994,1.41196 -0.06394,2.11032 0.07678,0.61596 0.511592,1.79057 0.511592,1.79057 0,0 0.64902,0.88138 1.023182,1.27898 0.413709,0.43959 0.80779,0.93566 1.342927,1.21502 0.50422,0.26322 1.098485,0.31148 1.662675,0.38371 0.03054,0.004 0.06203,0.008 0.09492,0.0116 0.78734,0.0838 1.475859,0.1342 2.207237,0.0529 0.78618,-0.0872 1.575415,-0.26327 2.302161,-0.57556 0.766059,-0.3292 1.46969,-0.80927 2.110315,-1.34293 0.625797,-0.52134 1.294395,-1.06409 1.662672,-1.79057 0.255191,-0.50339 0.431321,-1.10943 0.319746,-1.66268 -0.06078,-0.30134 -0.268666,-0.57897 -0.511591,-0.76738 -0.19094,-0.14811 -0.486376,-0.0814 -0.684455,-0.23981 -0.0067,-0.005 -0.01294,-0.009 -0.01896,-0.0154 -0.224643,-0.20663 -0.325686,-0.5317 -0.383694,-0.83136 -0.08112,-0.41907 -0.128429,-0.89793 0.06394,-1.27897 0.136531,-0.27046 0.54258,-0.84076 0.772765,-1.03775 0.412915,-0.35334 0.691364,-0.32671 1.145704,-0.62494 0.04757,-0.0311 0.06236,-0.032 0.138889,-0.0649 0.0116,-0.005 0.02526,-0.009 0.03997,-0.0173 0.403771,-0.18234 1.398295,-0.61084 1.995407,-0.68545 0.233629,-0.0292 0.53857,-0.10413 0.703438,0.064 0.0027,0.002 0.0064,0.004 0.0078,0.008 0.11735,0.272 0.05596,0.88727 0.05596,0.88727 l -0.01702,0.039 -4.011804,9.04177 c 0,0 -1.559091,3.5092 -2.749803,4.98803 -0.426332,0.52947 -0.964043,0.97364 -1.534776,1.34292 -0.472485,0.30571 -0.99076,0.55937 -1.534773,0.70343 -0.703327,0.1862 -1.465229,0.35502 -2.174265,0.19181 -0.605639,-0.1394 -1.22345,-0.46386 -1.598721,-0.95925 -0.293523,-0.38745 -0.431596,-0.92313 -0.383697,-1.40686 0.01876,-0.1897 0.160099,-0.34668 0.255797,-0.51159 0.154299,-0.2659 0.368468,-0.49532 0.51159,-0.7674 0.160333,-0.30476 0.378937,-0.61489 0.383696,-0.95922 0.006,-0.43159 -0.153295,-0.89935 -0.447644,-1.21502 -0.318827,-0.34193 -0.821884,-0.47747 -1.278978,-0.57555 -0.604407,-0.12974 -1.238109,-0.0467 -1.854521,0 -0.989011,0.0747 -1.957871,0.23021 -2.941651,0.44766 -0.901752,0.19927 -1.774912,0.52717 -2.621906,0.89526 -0.642853,0.27936 -1.285616,0.58178 -1.854518,0.99121 -0.642534,0.46247 -1.176309,1.06532 -1.726623,1.6307 -0.594715,0.611 -1.128884,1.29652 -1.534774,2.04637 -0.475082,0.87768 -0.816677,1.83733 -1.023182,2.81376 -0.194507,0.91974 -0.226539,1.8743 -0.191849,2.81375 0.02227,0.6025 0.122337,1.20262 0.255796,1.79056 0.173112,0.76264 0.340377,1.54556 0.703437,2.23821 0.451322,0.86108 1.049356,1.6171 1.79057,2.3022 0.741213,0.68505 1.68311,1.26429 2.621908,1.72659 0.819463,0.40356 1.716891,0.75456 2.589932,0.89528 0.821821,0.13245 1.661697,0.11387 2.494007,0.12781 1.215044,0.0206 2.421081,-0.0195 3.613115,-0.25578 1.145463,-0.22703 2.218657,-0.75335 3.261397,-1.27901 3.734328,-1.76291 6.618341,-4.95452 8.505208,-8.31335 1.898176,-3.28725 2.733059,-12.49165 6.778589,-11.63879 0.565875,0.13534 1.076084,0.4734 1.534775,0.83133 0.27357,0.21349 0.535116,0.46396 0.703438,0.76738 0.19317,0.34824 0.257762,0.75773 0.319748,1.15111 0.0797,0.50578 0.167135,1.03323 0.06395,1.53476 -0.119147,0.579 -0.3572,1.17308 -0.767388,1.59872 -0.317593,0.32957 -0.765318,0.55445 -1.215027,0.63951 -0.189669,0.036 -0.394174,0.002 -0.575543,-0.064 -0.216643,-0.0789 -0.435586,-0.2005 -0.57554,-0.38373 -0.163659,-0.21429 -0.170522,-0.5116 -0.255796,-0.76739 -0.08527,-0.25579 -0.07912,-0.56369 -0.255795,-0.76739 -0.06246,-0.0722 -0.160469,-0.12684 -0.255795,-0.12781 -0.40047,-0.004 -0.769048,0.26827 -1.087132,0.51161 -0.444391,0.34 -0.767751,0.81954 -1.087133,1.27897 -0.348638,0.50152 -0.650675,1.03908 -0.895286,1.59875 -0.332065,0.75973 -0.637901,1.54711 -0.767388,2.36608 -0.116515,0.73693 -0.143412,1.50608 0,2.23822 0.119475,0.60989 0.343687,1.21988 0.703438,1.72665 0.279758,0.39405 0.702311,0.66685 1.087132,0.95922 0.404887,0.30758 0.814046,0.62546 1.278982,0.83135 0.382934,0.16958 0.805098,0.23401 1.215026,0.31972 0.675777,0.14134 1.355984,0.31513 2.046367,0.31975 0.753631,0.005 1.521363,-0.0872 2.238215,-0.31975 4.64439,-2.35428 8.72712,-8.5816 7.852025,-13.84571 -0.60554,-1.80586 -0.961271,-2.3771 -2.41637,-3.42052 -0.606669,-0.43004 -1.982418,-1.02316 -1.982418,-1.02316 l 1.598726,-0.63951 c 1.220016,-0.54656 2.548299,-1.25547 3.06955,-2.43005 0.413468,-0.96766 0.481524,-2.08575 0.383697,-3.13349 -0.09151,-0.97999 -0.383584,-1.97297 -0.895289,-2.81376 -1.230316,-1.53727 -3.252073,-2.94177 -4.988016,-3.32535 -0.732152,-0.14502 -2.238216,-0.064 -2.238216,-0.064 0,0 0.355588,-0.69535 0.63949,-0.99119 0.410088,-0.42734 0.917913,-0.93326 1.438851,-1.21503 0.419239,-0.22678 0.839271,-0.34705 1.310953,-0.41569 0.364143,-0.0529 0.783955,-0.0173 1.087135,0.19181 0.307218,0.21132 0.376141,0.64416 0.575537,0.95922 0.164393,0.25981 0.252718,0.60159 0.511593,0.76742 0.345267,0.22115 0.809821,0.25456 1.215028,0.19181 0.565248,-0.0874 1.070762,-0.43295 1.534776,-0.7674 0.317921,-0.22914 0.578029,-0.53231 0.831337,-0.83132 0.237049,-0.27983 0.461919,-0.57441 0.63949,-0.8953 0.189741,-0.34289 0.41183,-0.69686 0.447642,-1.08715 0.03785,-0.41213 -0.08495,-0.83802 -0.255797,-1.21499 -0.175973,-0.38835 -0.440074,-0.75002 -0.767388,-1.02322 -0.32935,-0.27485 -1.15108,-0.5755 -1.15108,-0.5755 0,0 -0.970375,-0.28399 -1.470824,-0.31977 z m -9.956053,11.25201 c 0,0 1.146952,-0.11099 1.603722,0 0.456769,0.11098 0.807368,0.27266 1.081136,0.55755 0.27377,0.28491 0.365517,0.60761 0.488613,1.04616 0.123091,0.43856 0.273388,0.99718 0.173866,1.56877 -0.09952,0.57158 -0.464739,1.22545 -0.836331,1.70864 -0.371588,0.48318 -0.833776,0.85689 -1.324947,1.15007 -0.491169,0.29317 -1.01253,0.54779 -1.569745,0.59351 -0.413449,0.0338 -1.220024,-0.24477 -1.220024,-0.24477 z"
                   id="path1737"
                   inkscape:connector-curvature="0" />
                <path
                   inkscape:connector-curvature="0"
                   id="path1731"
                   d="m 93.042188,191.09242 c -0.596853,-0.0428 -1.200149,0.0308 -1.790573,0.1278 -0.499943,0.0825 -0.986637,0.23439 -1.470826,0.38368 -0.605644,0.18679 -1.090243,0.31864 -1.790566,0.6395 -0.700324,0.32086 -1.616334,0.81898 -2.366112,1.34294 -0.749778,0.52394 -1.463387,1.13288 -2.110315,1.79057 -0.7541,0.76664 -2.046366,2.494 -2.046366,2.494 0,0 -4.229722,-0.13285 -6.33095,0.064 -0.603651,0.0565 -1.790567,0.31977 -1.790567,0.31977 l -1.918468,0.41562 c 0,0 -0.778811,0.19718 -1.576743,0.52461 0,0 -0.87967,0.38632 -1.524781,0.62648 -0.920891,0.34284 -1.311235,0.7227 -2.14229,1.24703 -0.754815,0.47622 -1.42015,1.09069 -2.046366,1.7266 -0.476757,0.48414 -0.892322,0.95839 -1.28997,1.57775 -0.01856,0.0291 -0.03663,0.0576 -0.05297,0.0849 -0.425352,0.71429 -0.783867,1.48953 -0.959234,2.30217 -0.148459,0.68793 -0.150994,1.41196 -0.06394,2.11032 0.07678,0.61596 0.511592,1.79057 0.511592,1.79057 0,0 0.64902,0.88138 1.023182,1.27898 0.413709,0.43959 0.80779,0.93566 1.342927,1.21502 0.50422,0.26322 1.098485,0.31148 1.662675,0.38371 0.03054,0.004 0.06203,0.008 0.09492,0.0116 0.78734,0.0838 1.475859,0.1342 2.207237,0.0529 0.78618,-0.0872 1.575415,-0.26327 2.302161,-0.57556 0.766059,-0.3292 1.46969,-0.80927 2.110315,-1.34293 0.625797,-0.52134 1.294395,-1.06409 1.662672,-1.79057 0.255191,-0.50339 0.431321,-1.10943 0.319746,-1.66268 -0.06078,-0.30134 -0.268666,-0.57897 -0.511591,-0.76738 -0.19094,-0.14811 -0.486376,-0.0814 -0.684455,-0.23981 -0.0067,-0.005 -0.01294,-0.009 -0.01896,-0.0154 -0.224643,-0.20663 -0.325686,-0.5317 -0.383694,-0.83136 -0.08112,-0.41907 -0.128429,-0.89793 0.06394,-1.27897 0.136531,-0.27046 0.54258,-0.84076 0.772765,-1.03775 0.412915,-0.35334 0.691364,-0.32671 1.145704,-0.62494 0.04757,-0.0311 0.06236,-0.032 0.138889,-0.0649 0.0116,-0.005 0.02526,-0.009 0.03997,-0.0173 0.403771,-0.18234 1.398295,-0.61084 1.995407,-0.68545 0.233629,-0.0292 0.53857,-0.10413 0.703438,0.064 0.0027,0.002 0.0064,0.004 0.0078,0.008 0.11735,0.272 0.05596,0.88727 0.05596,0.88727 l -0.01702,0.039 -4.011804,9.04177 c 0,0 -1.559091,3.5092 -2.749803,4.98803 -0.426332,0.52947 -0.964043,0.97364 -1.534776,1.34292 -0.472485,0.30571 -0.99076,0.55937 -1.534773,0.70343 -0.703327,0.1862 -1.465229,0.35502 -2.174265,0.19181 -0.605639,-0.1394 -1.22345,-0.46386 -1.598721,-0.95925 -0.293523,-0.38745 -0.431596,-0.92313 -0.383697,-1.40686 0.01876,-0.1897 0.160099,-0.34668 0.255797,-0.51159 0.154299,-0.2659 0.368468,-0.49532 0.51159,-0.7674 0.160333,-0.30476 0.378937,-0.61489 0.383696,-0.95922 0.006,-0.43159 -0.153295,-0.89935 -0.447644,-1.21502 -0.318827,-0.34193 -0.821884,-0.47747 -1.278978,-0.57555 -0.604407,-0.12974 -1.238109,-0.0467 -1.854521,0 -0.989011,0.0747 -1.957871,0.23021 -2.941651,0.44766 -0.901752,0.19927 -1.774912,0.52717 -2.621906,0.89526 -0.642853,0.27936 -1.285616,0.58178 -1.854518,0.99121 -0.642534,0.46247 -1.176309,1.06532 -1.726623,1.6307 -0.594715,0.611 -1.128884,1.29652 -1.534774,2.04637 -0.475082,0.87768 -0.816677,1.83733 -1.023182,2.81376 -0.194507,0.91974 -0.226539,1.8743 -0.191849,2.81375 0.02227,0.6025 0.122337,1.20262 0.255796,1.79056 0.173112,0.76264 0.340377,1.54556 0.703437,2.23821 0.451322,0.86108 1.049356,1.6171 1.79057,2.3022 0.741213,0.68505 1.68311,1.26429 2.621908,1.72659 0.819463,0.40356 1.716891,0.75456 2.589932,0.89528 0.821821,0.13245 1.661697,0.11387 2.494007,0.12781 1.215044,0.0206 2.421081,-0.0195 3.613115,-0.25578 1.145463,-0.22703 2.218657,-0.75335 3.261397,-1.27901 3.734328,-1.76291 6.618341,-4.95452 8.505208,-8.31335 1.898176,-3.28725 2.733059,-12.49165 6.778589,-11.63879 0.565875,0.13534 1.076084,0.4734 1.534775,0.83133 0.27357,0.21349 0.535116,0.46396 0.703438,0.76738 0.19317,0.34824 0.257762,0.75773 0.319748,1.15111 0.0797,0.50578 0.167135,1.03323 0.06395,1.53476 -0.119147,0.579 -0.3572,1.17308 -0.767388,1.59872 -0.317593,0.32957 -0.765318,0.55445 -1.215027,0.63951 -0.189669,0.036 -0.394174,0.002 -0.575543,-0.064 -0.216643,-0.0789 -0.435586,-0.2005 -0.57554,-0.38373 -0.163659,-0.21429 -0.170522,-0.5116 -0.255796,-0.76739 -0.08527,-0.25579 -0.07912,-0.56369 -0.255795,-0.76739 -0.06246,-0.0722 -0.160469,-0.12684 -0.255795,-0.12781 -0.40047,-0.004 -0.769048,0.26827 -1.087132,0.51161 -0.444391,0.34 -0.767751,0.81954 -1.087133,1.27897 -0.348638,0.50152 -0.650675,1.03908 -0.895286,1.59875 -0.332065,0.75973 -0.637901,1.54711 -0.767388,2.36608 -0.116515,0.73693 -0.143412,1.50608 0,2.23822 0.119475,0.60989 0.343687,1.21988 0.703438,1.72665 0.279758,0.39405 0.702311,0.66685 1.087132,0.95922 0.404887,0.30758 0.814046,0.62546 1.278982,0.83135 0.382934,0.16958 0.805098,0.23401 1.215026,0.31972 0.675777,0.14134 1.355984,0.31513 2.046367,0.31975 0.753631,0.005 1.521363,-0.0872 2.238215,-0.31975 4.64439,-2.35428 8.72712,-8.5816 7.852025,-13.84571 -0.60554,-1.80586 -0.961271,-2.3771 -2.41637,-3.42052 -0.606669,-0.43004 -1.982418,-1.02316 -1.982418,-1.02316 l 1.598726,-0.63951 c 1.220016,-0.54656 2.548299,-1.25547 3.06955,-2.43005 0.413468,-0.96766 0.481524,-2.08575 0.383697,-3.13349 -0.09151,-0.97999 -0.383584,-1.97297 -0.895289,-2.81376 -1.230316,-1.53727 -3.252073,-2.94177 -4.988016,-3.32535 -0.732152,-0.14502 -2.238216,-0.064 -2.238216,-0.064 0,0 0.355588,-0.69535 0.63949,-0.99119 0.410088,-0.42734 0.917913,-0.93326 1.438851,-1.21503 0.419239,-0.22678 0.839271,-0.34705 1.310953,-0.41569 0.364143,-0.0529 0.783955,-0.0173 1.087135,0.19181 0.307218,0.21132 0.376141,0.64416 0.575537,0.95922 0.164393,0.25981 0.252718,0.60159 0.511593,0.76742 0.345267,0.22115 0.809821,0.25456 1.215028,0.19181 0.565248,-0.0874 1.070762,-0.43295 1.534776,-0.7674 0.317921,-0.22914 0.578029,-0.53231 0.831337,-0.83132 0.237049,-0.27983 0.461919,-0.57441 0.63949,-0.8953 0.189741,-0.34289 0.41183,-0.69686 0.447642,-1.08715 0.03785,-0.41213 -0.08495,-0.83802 -0.255797,-1.21499 -0.175973,-0.38835 -0.440074,-0.75002 -0.767388,-1.02322 -0.32935,-0.27485 -1.15108,-0.5755 -1.15108,-0.5755 0,0 -0.970375,-0.28399 -1.470824,-0.31977 z m -9.956053,11.25201 c 0,0 1.146952,-0.11099 1.603722,0 0.456769,0.11098 0.807368,0.27266 1.081136,0.55755 0.27377,0.28491 0.365517,0.60761 0.488613,1.04616 0.123091,0.43856 0.273388,0.99718 0.173866,1.56877 -0.09952,0.57158 -0.464739,1.22545 -0.836331,1.70864 -0.371588,0.48318 -0.833776,0.85689 -1.324947,1.15007 -0.491169,0.29317 -1.01253,0.54779 -1.569745,0.59351 -0.413449,0.0338 -1.220024,-0.24477 -1.220024,-0.24477 z"
                   style="opacity:0.1;fill:#000000;fill-opacity:1;stroke-width:0.96175903;filter:url(#filter1733);enable-background:new"
                   sodipodi:nodetypes="cccsccccccccccccccccccccscccccccccccccccccccccccccccccccccccccccccccccccccccccccccccsccccccccccccccccccccccccccccccccccccccccsccc" />
                <path
                   sodipodi:nodetypes="cccsccccccccccccccccccccscccccccccccccccccccccccccccccccccccccccccccccccccccccccccccsccccccccccccccccccccccccccccccccccccccccsccc"
                   style="opacity:0.1;fill:#000000;fill-opacity:1;stroke-width:0.96175903;enable-background:new"
                   d="m 93.042188,191.09242 c -0.596853,-0.0428 -1.200149,0.0308 -1.790573,0.1278 -0.499943,0.0825 -0.986637,0.23439 -1.470826,0.38368 -0.605644,0.18679 -1.090243,0.31864 -1.790566,0.6395 -0.700324,0.32086 -1.616334,0.81898 -2.366112,1.34294 -0.749778,0.52394 -1.463387,1.13288 -2.110315,1.79057 -0.7541,0.76664 -2.046366,2.494 -2.046366,2.494 0,0 -4.229722,-0.13285 -6.33095,0.064 -0.603651,0.0565 -1.790567,0.31977 -1.790567,0.31977 l -1.918468,0.41562 c 0,0 -0.778811,0.19718 -1.576743,0.52461 0,0 -0.87967,0.38632 -1.524781,0.62648 -0.920891,0.34284 -1.311235,0.7227 -2.14229,1.24703 -0.754815,0.47622 -1.42015,1.09069 -2.046366,1.7266 -0.476757,0.48414 -0.892322,0.95839 -1.28997,1.57775 -0.01856,0.0291 -0.03663,0.0576 -0.05297,0.0849 -0.425352,0.71429 -0.783867,1.48953 -0.959234,2.30217 -0.148459,0.68793 -0.150994,1.41196 -0.06394,2.11032 0.07678,0.61596 0.511592,1.79057 0.511592,1.79057 0,0 0.64902,0.88138 1.023182,1.27898 0.413709,0.43959 0.80779,0.93566 1.342927,1.21502 0.50422,0.26322 1.098485,0.31148 1.662675,0.38371 0.03054,0.004 0.06203,0.008 0.09492,0.0116 0.78734,0.0838 1.475859,0.1342 2.207237,0.0529 0.78618,-0.0872 1.575415,-0.26327 2.302161,-0.57556 0.766059,-0.3292 1.46969,-0.80927 2.110315,-1.34293 0.625797,-0.52134 1.294395,-1.06409 1.662672,-1.79057 0.255191,-0.50339 0.431321,-1.10943 0.319746,-1.66268 -0.06078,-0.30134 -0.268666,-0.57897 -0.511591,-0.76738 -0.19094,-0.14811 -0.486376,-0.0814 -0.684455,-0.23981 -0.0067,-0.005 -0.01294,-0.009 -0.01896,-0.0154 -0.224643,-0.20663 -0.325686,-0.5317 -0.383694,-0.83136 -0.08112,-0.41907 -0.128429,-0.89793 0.06394,-1.27897 0.136531,-0.27046 0.54258,-0.84076 0.772765,-1.03775 0.412915,-0.35334 0.691364,-0.32671 1.145704,-0.62494 0.04757,-0.0311 0.06236,-0.032 0.138889,-0.0649 0.0116,-0.005 0.02526,-0.009 0.03997,-0.0173 0.403771,-0.18234 1.398295,-0.61084 1.995407,-0.68545 0.233629,-0.0292 0.53857,-0.10413 0.703438,0.064 0.0027,0.002 0.0064,0.004 0.0078,0.008 0.11735,0.272 0.05596,0.88727 0.05596,0.88727 l -0.01702,0.039 -4.011804,9.04177 c 0,0 -1.559091,3.5092 -2.749803,4.98803 -0.426332,0.52947 -0.964043,0.97364 -1.534776,1.34292 -0.472485,0.30571 -0.99076,0.55937 -1.534773,0.70343 -0.703327,0.1862 -1.465229,0.35502 -2.174265,0.19181 -0.605639,-0.1394 -1.22345,-0.46386 -1.598721,-0.95925 -0.293523,-0.38745 -0.431596,-0.92313 -0.383697,-1.40686 0.01876,-0.1897 0.160099,-0.34668 0.255797,-0.51159 0.154299,-0.2659 0.368468,-0.49532 0.51159,-0.7674 0.160333,-0.30476 0.378937,-0.61489 0.383696,-0.95922 0.006,-0.43159 -0.153295,-0.89935 -0.447644,-1.21502 -0.318827,-0.34193 -0.821884,-0.47747 -1.278978,-0.57555 -0.604407,-0.12974 -1.238109,-0.0467 -1.854521,0 -0.989011,0.0747 -1.957871,0.23021 -2.941651,0.44766 -0.901752,0.19927 -1.774912,0.52717 -2.621906,0.89526 -0.642853,0.27936 -1.285616,0.58178 -1.854518,0.99121 -0.642534,0.46247 -1.176309,1.06532 -1.726623,1.6307 -0.594715,0.611 -1.128884,1.29652 -1.534774,2.04637 -0.475082,0.87768 -0.816677,1.83733 -1.023182,2.81376 -0.194507,0.91974 -0.226539,1.8743 -0.191849,2.81375 0.02227,0.6025 0.122337,1.20262 0.255796,1.79056 0.173112,0.76264 0.340377,1.54556 0.703437,2.23821 0.451322,0.86108 1.049356,1.6171 1.79057,2.3022 0.741213,0.68505 1.68311,1.26429 2.621908,1.72659 0.819463,0.40356 1.716891,0.75456 2.589932,0.89528 0.821821,0.13245 1.661697,0.11387 2.494007,0.12781 1.215044,0.0206 2.421081,-0.0195 3.613115,-0.25578 1.145463,-0.22703 2.218657,-0.75335 3.261397,-1.27901 3.734328,-1.76291 6.618341,-4.95452 8.505208,-8.31335 1.898176,-3.28725 2.733059,-12.49165 6.778589,-11.63879 0.565875,0.13534 1.076084,0.4734 1.534775,0.83133 0.27357,0.21349 0.535116,0.46396 0.703438,0.76738 0.19317,0.34824 0.257762,0.75773 0.319748,1.15111 0.0797,0.50578 0.167135,1.03323 0.06395,1.53476 -0.119147,0.579 -0.3572,1.17308 -0.767388,1.59872 -0.317593,0.32957 -0.765318,0.55445 -1.215027,0.63951 -0.189669,0.036 -0.394174,0.002 -0.575543,-0.064 -0.216643,-0.0789 -0.435586,-0.2005 -0.57554,-0.38373 -0.163659,-0.21429 -0.170522,-0.5116 -0.255796,-0.76739 -0.08527,-0.25579 -0.07912,-0.56369 -0.255795,-0.76739 -0.06246,-0.0722 -0.160469,-0.12684 -0.255795,-0.12781 -0.40047,-0.004 -0.769048,0.26827 -1.087132,0.51161 -0.444391,0.34 -0.767751,0.81954 -1.087133,1.27897 -0.348638,0.50152 -0.650675,1.03908 -0.895286,1.59875 -0.332065,0.75973 -0.637901,1.54711 -0.767388,2.36608 -0.116515,0.73693 -0.143412,1.50608 0,2.23822 0.119475,0.60989 0.343687,1.21988 0.703438,1.72665 0.279758,0.39405 0.702311,0.66685 1.087132,0.95922 0.404887,0.30758 0.814046,0.62546 1.278982,0.83135 0.382934,0.16958 0.805098,0.23401 1.215026,0.31972 0.675777,0.14134 1.355984,0.31513 2.046367,0.31975 0.753631,0.005 1.521363,-0.0872 2.238215,-0.31975 4.64439,-2.35428 8.72712,-8.5816 7.852025,-13.84571 -0.60554,-1.80586 -0.961271,-2.3771 -2.41637,-3.42052 -0.606669,-0.43004 -1.982418,-1.02316 -1.982418,-1.02316 l 1.598726,-0.63951 c 1.220016,-0.54656 2.548299,-1.25547 3.06955,-2.43005 0.413468,-0.96766 0.481524,-2.08575 0.383697,-3.13349 -0.09151,-0.97999 -0.383584,-1.97297 -0.895289,-2.81376 -1.230316,-1.53727 -3.252073,-2.94177 -4.988016,-3.32535 -0.732152,-0.14502 -2.238216,-0.064 -2.238216,-0.064 0,0 0.355588,-0.69535 0.63949,-0.99119 0.410088,-0.42734 0.917913,-0.93326 1.438851,-1.21503 0.419239,-0.22678 0.839271,-0.34705 1.310953,-0.41569 0.364143,-0.0529 0.783955,-0.0173 1.087135,0.19181 0.307218,0.21132 0.376141,0.64416 0.575537,0.95922 0.164393,0.25981 0.252718,0.60159 0.511593,0.76742 0.345267,0.22115 0.809821,0.25456 1.215028,0.19181 0.565248,-0.0874 1.070762,-0.43295 1.534776,-0.7674 0.317921,-0.22914 0.578029,-0.53231 0.831337,-0.83132 0.237049,-0.27983 0.461919,-0.57441 0.63949,-0.8953 0.189741,-0.34289 0.41183,-0.69686 0.447642,-1.08715 0.03785,-0.41213 -0.08495,-0.83802 -0.255797,-1.21499 -0.175973,-0.38835 -0.440074,-0.75002 -0.767388,-1.02322 -0.32935,-0.27485 -1.15108,-0.5755 -1.15108,-0.5755 0,0 -0.970375,-0.28399 -1.470824,-0.31977 z m -9.956053,11.25201 c 0,0 1.146952,-0.11099 1.603722,0 0.456769,0.11098 0.807368,0.27266 1.081136,0.55755 0.27377,0.28491 0.365517,0.60761 0.488613,1.04616 0.123091,0.43856 0.273388,0.99718 0.173866,1.56877 -0.09952,0.57158 -0.464739,1.22545 -0.836331,1.70864 -0.371588,0.48318 -0.833776,0.85689 -1.324947,1.15007 -0.491169,0.29317 -1.01253,0.54779 -1.569745,0.59351 -0.413449,0.0338 -1.220024,-0.24477 -1.220024,-0.24477 z"
                   id="path1729"
                   inkscape:connector-curvature="0" />
                <path
                   inkscape:connector-curvature="0"
                   id="path58"
                   d="m 92.696594,191.43977 c -0.586382,-0.042 -1.179094,0.0303 -1.759159,0.12556 -0.491172,0.081 -0.969328,0.23028 -1.445022,0.37695 -0.595019,0.18351 -1.071117,0.31305 -1.759153,0.62828 -0.688038,0.31523 -1.587978,0.80461 -2.324602,1.31938 -0.736624,0.51475 -1.437713,1.11301 -2.073292,1.75916 -0.74087,0.75319 -2.010465,2.45024 -2.010465,2.45024 0,0 -4.155517,-0.13052 -6.219881,0.0629 -0.593061,0.0555 -1.759154,0.31416 -1.759154,0.31416 l -1.884811,0.40833 c 0,0 -0.765148,0.19372 -1.549081,0.5154 0,0 -0.864237,0.37955 -1.498031,0.61549 -0.904735,0.33683 -1.288231,0.71002 -2.104706,1.22516 -0.741573,0.46786 -1.395235,1.07155 -2.010465,1.69631 -0.468393,0.47564 -0.876667,0.94157 -1.267339,1.55007 -0.01823,0.0286 -0.03599,0.0566 -0.05204,0.0834 -0.417889,0.70175 -0.770115,1.46339 -0.942405,2.26178 -0.145855,0.67586 -0.148345,1.38719 -0.06282,2.07329 0.07543,0.60516 0.502616,1.75916 0.502616,1.75916 0,0 0.637634,0.86592 1.005232,1.25654 0.406451,0.43188 0.793618,0.91925 1.319367,1.19371 0.495374,0.2586 1.079213,0.30601 1.633505,0.37698 0.03,0.004 0.06094,0.008 0.09325,0.0114 0.773527,0.0823 1.449967,0.13185 2.168514,0.052 0.772387,-0.0857 1.547776,-0.25865 2.261772,-0.56546 0.75262,-0.32342 1.443907,-0.79507 2.073293,-1.31937 0.614818,-0.51219 1.271686,-1.04542 1.633502,-1.75916 0.250714,-0.49455 0.423754,-1.08996 0.314137,-1.63351 -0.05971,-0.29605 -0.263953,-0.56881 -0.502616,-0.75391 -0.18759,-0.14552 -0.477843,-0.08 -0.672447,-0.23561 -0.0066,-0.005 -0.01271,-0.009 -0.01863,-0.0151 -0.220702,-0.203 -0.319972,-0.52237 -0.376962,-0.81677 -0.0797,-0.41172 -0.126176,-0.88218 0.06282,-1.25653 0.134136,-0.26572 0.533061,-0.82601 0.759208,-1.01955 0.405671,-0.34714 0.679235,-0.32098 1.125604,-0.61397 0.04673,-0.0306 0.06127,-0.0314 0.136452,-0.0638 0.0114,-0.005 0.02482,-0.009 0.03927,-0.017 0.396687,-0.17914 1.373764,-0.60012 1.9604,-0.67343 0.22953,-0.0287 0.529122,-0.1023 0.691097,0.0629 0.0027,0.002 0.0063,0.004 0.0077,0.008 0.115291,0.26723 0.05498,0.8717 0.05498,0.8717 l -0.01672,0.0383 -3.941421,8.88314 c 0,0 -1.531739,3.44764 -2.701562,4.90052 -0.418852,0.52018 -0.94713,0.95656 -1.50785,1.31936 -0.464196,0.30035 -0.973378,0.54956 -1.507847,0.69109 -0.690988,0.18294 -1.439524,0.34879 -2.13612,0.18845 -0.595014,-0.13696 -1.201987,-0.45572 -1.570674,-0.94242 -0.288373,-0.38066 -0.424024,-0.90694 -0.376965,-1.38218 0.01843,-0.18637 0.15729,-0.3406 0.251309,-0.50262 0.151592,-0.26123 0.362004,-0.48663 0.502615,-0.75393 0.15752,-0.29942 0.372289,-0.60411 0.376964,-0.9424 0.0059,-0.42401 -0.150605,-0.88357 -0.43979,-1.1937 -0.313234,-0.33593 -0.807465,-0.46909 -1.25654,-0.56545 -0.593804,-0.12747 -1.216388,-0.0459 -1.821986,0 -0.97166,0.0734 -1.923523,0.22617 -2.890043,0.4398 -0.885932,0.19578 -1.743774,0.51793 -2.575908,0.87956 -0.631575,0.27446 -1.263062,0.57157 -1.821983,0.97382 -0.631262,0.45435 -1.155672,1.04663 -1.696332,1.60209 -0.584281,0.60028 -1.109079,1.27377 -1.507848,2.01047 -0.466747,0.86228 -0.80235,1.8051 -1.005232,2.76439 -0.191094,0.90361 -0.222564,1.84142 -0.188483,2.76439 0.02188,0.59193 0.120191,1.18152 0.251308,1.75915 0.170075,0.74926 0.334406,1.51844 0.691097,2.19894 0.443404,0.84597 1.030946,1.58873 1.759156,2.26181 0.72821,0.67303 1.653582,1.24211 2.57591,1.6963 0.805087,0.39648 1.68677,0.74132 2.544495,0.87957 0.807403,0.13013 1.632545,0.11188 2.450253,0.12557 1.193727,0.0202 2.378606,-0.0192 3.549727,-0.25129 1.125368,-0.22305 2.179734,-0.74013 3.20418,-1.25657 3.668814,-1.73198 6.502231,-4.8676 8.355995,-8.1675 1.864875,-3.22958 2.685111,-12.2725 6.659667,-11.43461 0.555947,0.13297 1.057205,0.4651 1.507849,0.81675 0.268771,0.20974 0.525728,0.45582 0.691097,0.75392 0.189781,0.34213 0.25324,0.74443 0.314139,1.13091 0.0783,0.49691 0.164203,1.0151 0.06283,1.50784 -0.117057,0.56884 -0.350934,1.1525 -0.753925,1.57067 -0.312022,0.32379 -0.751892,0.54472 -1.193711,0.62829 -0.186342,0.0354 -0.387259,0.002 -0.565446,-0.0629 -0.212842,-0.0775 -0.427944,-0.19698 -0.565443,-0.377 -0.160788,-0.21053 -0.16753,-0.50262 -0.251308,-0.75392 -0.08377,-0.25131 -0.07773,-0.5538 -0.251308,-0.75393 -0.06136,-0.0709 -0.157653,-0.12461 -0.251307,-0.12557 -0.393444,-0.004 -0.755556,0.26357 -1.06806,0.50264 -0.436594,0.33403 -0.754281,0.80516 -1.06806,1.25653 -0.342522,0.49272 -0.63926,1.02085 -0.87958,1.5707 -0.326239,0.7464 -0.626709,1.51997 -0.753925,2.32457 -0.114471,0.724 -0.140896,1.47966 0,2.19895 0.117379,0.59919 0.337658,1.19848 0.691097,1.69636 0.27485,0.38714 0.68999,0.65515 1.06806,0.94239 0.397784,0.30219 0.799765,0.61449 1.256544,0.81677 0.376216,0.1666 0.790973,0.2299 1.19371,0.31411 0.663921,0.13886 1.332195,0.3096 2.010466,0.31414 0.740409,0.005 1.494672,-0.0857 2.198948,-0.31414 4.56291,-2.31298 8.574014,-8.43105 7.714271,-13.6028 -0.594916,-1.77418 -0.944407,-2.3354 -2.373978,-3.36052 -0.596025,-0.42249 -1.947639,-1.00521 -1.947639,-1.00521 l 1.570679,-0.62829 c 1.198612,-0.53697 2.503592,-1.23344 3.015698,-2.38741 0.406215,-0.95069 0.473077,-2.04916 0.376966,-3.07852 -0.0899,-0.9628 -0.376855,-1.93836 -0.879582,-2.7644 -1.208732,-1.5103 -3.19502,-2.89016 -4.900508,-3.26701 -0.719307,-0.14247 -2.198949,-0.0629 -2.198949,-0.0629 0,0 0.349349,-0.68316 0.628271,-0.97381 0.402893,-0.41984 0.901809,-0.91688 1.413608,-1.19371 0.411884,-0.2228 0.824547,-0.34096 1.287954,-0.4084 0.357754,-0.052 0.770201,-0.017 1.068062,0.18845 0.301829,0.20761 0.369542,0.63286 0.56544,0.94239 0.161509,0.25525 0.248285,0.59104 0.502618,0.75396 0.33921,0.21727 0.795614,0.25009 1.193712,0.18844 0.555331,-0.0859 1.051977,-0.42535 1.50785,-0.75394 0.312344,-0.22512 0.567888,-0.52297 0.816752,-0.81673 0.232891,-0.27492 0.453816,-0.56433 0.628271,-0.87959 0.186413,-0.33688 0.404605,-0.68464 0.439789,-1.06808 0.03719,-0.4049 -0.08346,-0.82332 -0.251309,-1.19368 -0.172886,-0.38153 -0.432354,-0.73686 -0.753925,-1.00526 -0.323572,-0.27003 -1.130886,-0.56541 -1.130886,-0.56541 0,0 -0.953351,-0.27901 -1.44502,-0.31416 z m -9.781386,11.05461 c 0,0 1.12683,-0.10904 1.575587,0 0.448755,0.10903 0.793203,0.26788 1.062168,0.54777 0.268967,0.27991 0.359105,0.59695 0.480041,1.02781 0.120932,0.43086 0.268592,0.97968 0.170816,1.54124 -0.09777,0.56156 -0.456586,1.20395 -0.821659,1.67867 -0.365069,0.4747 -0.819148,0.84185 -1.301702,1.12989 -0.482552,0.28803 -0.994766,0.53818 -1.542206,0.5831 -0.406195,0.0332 -1.19862,-0.24048 -1.19862,-0.24048 z"
                   style="fill:#faf8f6;fill-opacity:1;stroke-width:0.94488615;enable-background:new"
                   sodipodi:nodetypes="cccsccccccccccccccccccccscccccccccccccccccccccccccccccccccccccccccccccccccccccccccccsccccccccccccccccccccccccccccccccccccccccsccc" />
                <path
                   inkscape:connector-curvature="0"
                   id="path60"
                   d="m 92.256102,191.42835 c -0.441217,0.008 -0.883614,0.0656 -1.31866,0.13708 -0.491175,0.081 -0.969409,0.23041 -1.445105,0.37708 -0.595016,0.1835 -1.071482,0.31304 -1.759519,0.62827 -0.688039,0.31523 -1.587957,0.80445 -2.324583,1.31922 -0.736622,0.51475 -1.437244,1.11282 -2.072825,1.75897 -0.740867,0.75319 -2.010722,2.45046 -2.010722,2.45046 0,0 -1.038847,-0.0329 -2.335771,-0.0413 -0.586997,-0.004 -1.137526,0.0356 -1.757842,0.047 l -10.89617,15.37294 c 0.0331,0.004 0.06668,0.01 0.09958,0.014 0.03,0.004 0.06113,0.008 0.09343,0.0111 0.386764,0.0411 0.749326,0.074 1.104946,0.0867 0.355619,0.0127 0.70427,0.005 1.063547,-0.0346 0.386193,-0.0429 0.773412,-0.1074 1.153061,-0.19972 0.379641,-0.0922 0.751863,-0.21249 1.108861,-0.3659 0.37631,-0.1617 0.736996,-0.3602 1.082569,-0.58408 0.345572,-0.22387 0.676122,-0.47298 0.990813,-0.73514 0.307413,-0.25609 0.625075,-0.5174 0.91137,-0.80395 0.286299,-0.28655 0.540804,-0.59814 0.721712,-0.95501 0.125358,-0.24728 0.231703,-0.51976 0.292603,-0.79836 0.0609,-0.27862 0.07663,-0.56351 0.02182,-0.83529 -0.02985,-0.14803 -0.0957,-0.29014 -0.184063,-0.41848 -0.08835,-0.12833 -0.199005,-0.24313 -0.318339,-0.33567 -0.187588,-0.14552 -0.477872,-0.0799 -0.672476,-0.23554 -0.0066,-0.005 -0.01313,-0.009 -0.01903,-0.0151 -0.379172,-0.62149 -0.624046,-1.44063 -0.313858,-2.07283 0.98826,-1.41132 2.560307,-2.30277 4.711823,-2.32508 0.0026,0.002 0.0064,0.004 0.0078,0.008 0.05764,0.1336 0.07116,0.35144 0.07049,0.53596 -6.66e-4,0.18452 -0.01568,0.33569 -0.01568,0.33569 l -0.01679,0.038 -3.941438,8.88321 c 0,0 -0.38277,0.86203 -0.911934,1.90554 -0.264578,0.52176 -0.565777,1.08878 -0.873886,1.6163 -0.308104,0.52752 -0.623391,1.0153 -0.915844,1.37852 -0.209428,0.2601 -0.445938,0.49945 -0.700454,0.71892 -0.254511,0.21947 -0.52695,0.41944 -0.80731,0.60086 -0.464199,0.30035 -0.973292,0.54941 -1.507761,0.69095 -0.345492,0.0915 -0.705202,0.17837 -1.065783,0.22266 -0.360583,0.0443 -0.72196,0.046 -1.07026,-0.0341 -0.297506,-0.0685 -0.597763,-0.18252 -0.86997,-0.34016 -0.272205,-0.15766 -0.516109,-0.3592 -0.700452,-0.60254 -0.144187,-0.19033 -0.250342,-0.41714 -0.314421,-0.6557 -0.06407,-0.23856 -0.08619,-0.48856 -0.06266,-0.72619 0.01843,-0.18636 0.15718,-0.34095 0.2512,-0.50296 0.151591,-0.26123 0.361791,-0.48629 0.502402,-0.7536 0.07876,-0.1497 0.172198,-0.30063 0.246165,-0.45652 0.07397,-0.15589 0.128578,-0.31703 0.130915,-0.48618 0.0028,-0.20346 -0.03593,-0.41433 -0.104615,-0.61373 l -11.946847,16.85448 c 2.216409,2.45638 5.07732,2.31013 7.11977,2.35591 l 21.678764,-29.16368 0.550516,-2.18976 c 0,0 0.281524,-0.0272 0.619329,-0.0408 0.194892,-0.008 0.362724,0.0144 0.551633,0.0235 l 3.08322,-3.95263 c -0.03962,-1e-4 -0.07616,-0.008 -0.114692,-0.008 -0.459825,0.002 -0.829689,0.0224 -0.829689,0.0224 0,0 0.349358,-0.68338 0.628279,-0.97402 0.201448,-0.20992 0.426702,-0.43932 0.665767,-0.65066 0.239066,-0.21135 0.492108,-0.40483 0.748007,-0.54325 0.24726,-0.13375 0.51455,-0.17505 0.773183,-0.24504 l 3.65613,-4.68665 v -5.7e-4 c -0.146596,-0.0108 -0.293227,-0.0135 -0.440299,-0.0112 z m 1.548605,11.51662 -8.967131,12.02405 c 0.03521,0.16102 0.105536,0.31005 0.13092,0.47107 0.03915,0.24846 0.08043,0.50203 0.09903,0.75528 0.01859,0.25326 0.01432,0.50612 -0.03637,0.75249 -0.05853,0.28441 -0.14619,0.5727 -0.269666,0.84199 -0.123475,0.2693 -0.282443,0.51989 -0.483937,0.72898 -0.156011,0.16189 -0.344078,0.29779 -0.54828,0.40394 -0.204195,0.10621 -0.424712,0.18257 -0.645621,0.22435 -0.186344,0.0354 -0.387435,0.002 -0.565622,-0.0632 -0.188339,-0.0686 -0.363622,-0.18628 -0.500165,-0.33344 l -4.590421,6.15525 c 0.0013,0.006 2.22e-4,0.0143 0.0017,0.0212 0.923322,3.6716 4.703063,4.51823 6.866892,4.04329 l 9.266442,-13.87645 c -0.551619,-1.26814 -1.115119,-2.57166 -2.373816,-3.36071 -0.298013,-0.21125 -0.785412,-0.46223 -1.197818,-0.66073 -0.412405,-0.19849 -0.750243,-0.34407 -0.750243,-0.34407 5.487136,-1.76429 5.53612,-4.76555 4.678256,-7.52818 -0.02795,-0.0896 -0.08235,-0.16685 -0.11413,-0.25512 z"
                   style="fill:#f76363;stroke-width:0.25000113;enable-background:new;fill-opacity:1"
                   sodipodi:nodetypes="cccsccccccccscccccccccccccccccccccccccccccccccccccccccccccccccccccccccccsccccccccccccccc" />
                <path
                   style="opacity:0.2;fill:#000000;fill-opacity:1;stroke-width:0.94488615;enable-background:new"
                   d="m 96.267917,194.1378 c -0.05178,0.35851 -0.254014,0.68668 -0.43009,1.00487 -0.174455,0.31527 -0.395571,0.60469 -0.628462,0.8796 -0.248864,0.29377 -0.504522,0.59162 -0.816867,0.81674 -0.455873,0.32859 -0.952368,0.66803 -1.507699,0.75388 -0.398098,0.0616 -0.854472,0.0291 -1.193683,-0.18814 -0.254334,-0.16293 -0.341347,-0.49864 -0.502855,-0.75388 -0.195897,-0.30954 -0.263394,-0.73485 -0.565226,-0.94246 -0.297858,-0.20545 -0.710323,-0.24055 -1.068078,-0.18858 -0.463408,0.0675 -0.876223,0.18556 -1.288106,0.40837 -0.511799,0.27683 -1.010383,0.77405 -1.413275,1.1939 -0.278923,0.29064 -0.628463,0.97366 -0.628463,0.97366 0,0 0.101097,-0.005 0.258141,-0.0108 0.114277,-0.18833 0.247525,-0.39096 0.370322,-0.51892 0.402892,-0.41985 0.901476,-0.91706 1.413275,-1.19389 0.411883,-0.2228 0.824698,-0.34093 1.288106,-0.40837 0.357755,-0.052 0.77022,-0.0169 1.068078,0.18858 0.301832,0.2076 0.369329,0.63292 0.565226,0.94245 0.161508,0.25524 0.248521,0.59096 0.502855,0.75388 0.339211,0.21728 0.795585,0.24979 1.193683,0.18814 0.555331,-0.0858 1.051826,-0.42528 1.507699,-0.75387 0.312345,-0.22512 0.568003,-0.52297 0.816867,-0.81674 0.232891,-0.27492 0.454007,-0.56434 0.628462,-0.87959 0.186413,-0.33689 0.404435,-0.68431 0.439618,-1.06774 0.01159,-0.12626 0.0062,-0.25405 -0.0095,-0.38106 z m -12.212744,7.86694 c -0.506241,-0.0154 -1.139978,0.046 -1.139978,0.046 l -1.575699,6.26772 c 0,0 0.05019,0.0169 0.103078,0.0338 l 1.472617,-5.85762 c 0,0 1.126941,-0.10904 1.575698,0 0.448755,0.10902 0.793051,0.26764 1.062015,0.54753 0.268966,0.27991 0.358962,0.59699 0.479899,1.02786 0.07594,0.27055 0.162677,0.58759 0.192306,0.92512 0.04503,-0.50049 -0.08381,-0.98248 -0.192306,-1.36904 -0.120937,-0.43086 -0.210933,-0.74796 -0.479899,-1.02786 -0.268964,-0.27989 -0.61326,-0.4385 -1.062015,-0.54752 -0.11219,-0.0273 -0.266975,-0.0408 -0.43572,-0.046 z m -6.191916,0.32254 c -0.123835,0.001 -0.255986,0.0268 -0.370753,0.0411 -0.586636,0.0733 -1.564056,0.4941 -1.960742,0.67325 -0.01444,0.009 -0.02759,0.0119 -0.03898,0.0173 -0.07519,0.0324 -0.08971,0.0331 -0.136435,0.0638 -0.446368,0.29299 -0.720013,0.2667 -1.125684,0.61385 -0.226147,0.19354 -0.625129,0.75389 -0.759264,1.01961 -0.129764,0.25703 -0.144591,0.55911 -0.117809,0.85662 0.01761,-0.14455 0.05307,-0.28447 0.117809,-0.41269 0.134135,-0.26573 0.533117,-0.82609 0.759264,-1.01963 0.405671,-0.34715 0.679316,-0.32086 1.125684,-0.61385 0.04673,-0.0306 0.06124,-0.0314 0.136435,-0.0638 0.0114,-0.005 0.02453,-0.009 0.03898,-0.0173 0.396686,-0.17915 1.374106,-0.59994 1.960742,-0.67325 0.229532,-0.0287 0.528857,-0.10231 0.690831,0.0629 0.0027,0.002 0.0064,0.004 0.0078,0.008 0.03836,0.0889 0.05333,0.21489 0.0615,0.34378 0.0118,-0.16884 0.02928,-0.57726 -0.0615,-0.78769 -0.0014,-0.003 -0.0051,-0.005 -0.0078,-0.008 -0.08099,-0.0826 -0.19624,-0.10534 -0.320078,-0.10404 z m 16.374183,2.89153 c -0.02012,0.7061 -0.137346,1.41114 -0.410167,2.04964 -0.512107,1.15397 -1.817215,1.85037 -3.015829,2.38735 l -1.570501,0.6286 c 0,0 0.23156,0.10274 0.518447,0.23626 l 1.052054,-0.42094 c 1.198614,-0.53697 2.503722,-1.23339 3.015829,-2.38736 0.330108,-0.77256 0.433611,-1.6422 0.410167,-2.49355 z m -32.31351,2.5265 c -0.01662,0.38768 0.0026,0.77801 0.05024,1.16052 0.07543,0.60516 0.502421,1.75919 0.502421,1.75919 0,0 0.637679,0.86571 1.005277,1.25632 0.406451,0.43188 0.79354,0.91943 1.31929,1.19389 0.495373,0.25859 1.079445,0.30575 1.633737,0.37672 0.03,0.004 0.06082,0.008 0.09312,0.0117 0.773526,0.0823 1.450095,0.13192 2.168642,0.0521 0.772387,-0.0858 1.547768,-0.25893 2.261764,-0.56574 0.752619,-0.32342 1.443971,-0.79489 2.073355,-1.31918 0.614819,-0.5122 1.271488,-1.04546 1.633303,-1.7592 0.229995,-0.45367 0.392055,-0.99182 0.333072,-1.49734 -0.04065,0.36575 -0.169652,0.73107 -0.333072,1.05343 -0.361815,0.71374 -1.018484,1.247 -1.633303,1.75919 -0.629384,0.5243 -1.320736,0.99577 -2.073355,1.31918 -0.713996,0.30682 -1.489377,0.47999 -2.261764,0.56573 -0.718547,0.0799 -1.395116,0.0302 -2.168642,-0.0521 -0.03231,-0.004 -0.06312,-0.008 -0.09312,-0.0117 -0.554292,-0.071 -1.138364,-0.11813 -1.633737,-0.37673 -0.52575,-0.27446 -0.912839,-0.76201 -1.31929,-1.19389 -0.367598,-0.39062 -1.005277,-1.25631 -1.005277,-1.25631 0,0 -0.426994,-1.15405 -0.502421,-1.7592 -0.0295,-0.23663 -0.04396,-0.47645 -0.05024,-0.7166 z m 19.992919,4.49509 c -3.515188,0.0514 -4.343426,8.41075 -6.120884,11.48894 -1.853764,3.2999 -4.68741,6.43539 -8.356225,8.16737 -1.024445,0.51644 -2.078869,1.03371 -3.204237,1.25675 -1.171122,0.23213 -2.355709,0.27169 -3.549436,0.25144 -0.817708,-0.0136 -1.643202,0.004 -2.450605,-0.12571 -0.857725,-0.13825 -1.739072,-0.48312 -2.54416,-0.8796 -0.922328,-0.45418 -1.847999,-1.0233 -2.57621,-1.69633 -0.728209,-0.67308 -1.315504,-1.41567 -1.758908,-2.26164 -0.356691,-0.6805 -0.521188,-1.44994 -0.691263,-2.1992 -0.131117,-0.57764 -0.229331,-1.16727 -0.251211,-1.7592 -0.005,-0.13504 -0.0051,-0.27068 -0.0069,-0.4062 -0.0045,0.28391 -0.0035,0.56758 0.0069,0.85012 0.02188,0.59193 0.120094,1.18155 0.251211,1.75919 0.170075,0.74926 0.334572,1.51871 0.691263,2.19921 0.443404,0.84597 1.030699,1.58856 1.758908,2.26163 0.728211,0.67303 1.653882,1.24215 2.57621,1.69633 0.805088,0.39649 1.686435,0.74135 2.54416,0.8796 0.807403,0.13012 1.632897,0.11203 2.450605,0.12572 1.193727,0.0202 2.378314,-0.0193 3.549436,-0.25143 1.125368,-0.22305 2.179792,-0.74032 3.204237,-1.25676 3.668815,-1.73197 6.502461,-4.86748 8.356225,-8.16737 1.864876,-3.22959 2.685132,-12.27264 6.659686,-11.43475 0.555946,0.13297 1.057054,0.46508 1.507699,0.81673 0.268771,0.20974 0.525893,0.45578 0.691263,0.75388 0.189781,0.34212 0.253115,0.74456 0.314014,1.13104 0.04031,0.25583 0.0823,0.51741 0.100057,0.77815 0.0297,-0.40478 -0.03677,-0.82042 -0.100057,-1.22207 -0.0609,-0.38648 -0.124233,-0.78891 -0.314014,-1.13103 -0.16537,-0.2981 -0.422492,-0.54414 -0.691263,-0.75388 -0.450645,-0.35165 -0.951753,-0.68377 -1.507699,-0.81674 -0.186307,-0.0393 -0.365926,-0.0567 -0.538802,-0.0541 z m -16.319177,2.73243 c -0.0558,0.27372 -0.225422,0.52782 -0.356893,0.77772 -0.140611,0.2673 -0.35083,0.49265 -0.502421,0.75388 -0.09402,0.16202 -0.232785,0.31608 -0.251211,0.50244 -0.01362,0.13754 -0.0102,0.27918 0.0061,0.42051 0.02737,-0.17563 0.15523,-0.32409 0.245147,-0.47904 0.151592,-0.26123 0.36181,-0.48658 0.502422,-0.75387 0.15752,-0.29941 0.372573,-0.60417 0.377249,-0.94246 0.0013,-0.0919 -0.0067,-0.18578 -0.02036,-0.27918 z m 28.075842,1.35299 c -0.113442,4.75384 -3.747313,9.85966 -7.825217,11.92679 -0.704277,0.22839 -1.458552,0.31971 -2.19896,0.3143 -0.678271,-0.004 -1.346633,-0.17544 -2.010554,-0.3143 -0.402738,-0.0842 -0.817469,-0.14725 -1.193684,-0.31386 -0.456778,-0.20228 -0.858704,-0.51454 -1.256488,-0.81674 -0.37807,-0.28723 -0.793228,-0.55531 -1.068078,-0.94245 -0.353438,-0.49789 -0.573884,-1.09714 -0.691263,-1.69634 -0.05178,-0.26436 -0.08087,-0.53379 -0.09139,-0.8046 -0.01342,0.41961 0.01135,0.83991 0.09139,1.24852 0.117379,0.59919 0.337825,1.19845 0.691263,1.69633 0.27485,0.38714 0.690008,0.65522 1.068078,0.94246 0.397784,0.30219 0.79971,0.61446 1.256488,0.81673 0.376215,0.16661 0.790946,0.22965 1.193684,0.31387 0.663921,0.13886 1.332283,0.30975 2.010554,0.31429 0.740408,0.005 1.494683,-0.0858 2.19896,-0.31429 4.205185,-2.13165 7.938166,-7.49458 7.825217,-12.37071 z"
                   id="path1717"
                   inkscape:connector-curvature="0" />
                <path
                   style="opacity:0.3;fill:#ffffff;fill-opacity:1;stroke-width:0.94488615;enable-background:new"
                   d="m 92.255824,191.42855 c -0.441265,0.008 -0.883375,0.0656 -1.318423,0.13698 -0.49118,0.081 -0.969641,0.23006 -1.445328,0.37673 -0.595028,0.1835 -1.070874,0.31337 -1.75891,0.6286 -0.688034,0.31523 -1.587942,0.8044 -2.324566,1.31917 -0.736623,0.51475 -1.437785,1.11305 -2.073355,1.7592 -0.74088,0.75319 -2.010554,2.4502 -2.010554,2.4502 0,0 -4.155268,-0.13055 -6.219633,0.0629 -0.593055,0.0555 -1.759343,0.3143 -1.759343,0.3143 l -1.884948,0.40837 c 0,0 -0.76491,0.19376 -1.548844,0.51544 0,0 -0.864375,0.37923 -1.49817,0.61516 -0.904734,0.33683 -1.288062,0.70997 -2.104539,1.22511 -0.741572,0.46786 -1.395325,1.07156 -2.010554,1.69633 -0.4684,0.47563 -0.876647,0.94175 -1.267314,1.55024 -0.01819,0.0286 -0.03584,0.0565 -0.05198,0.0833 -0.417886,0.70175 -0.770194,1.46368 -0.942474,2.26206 -0.09557,0.44281 -0.12501,0.9007 -0.113043,1.35689 0.01318,-0.30776 0.04848,-0.61384 0.113043,-0.91297 0.17228,-0.79839 0.524588,-1.56032 0.942474,-2.26207 0.01613,-0.0267 0.03379,-0.0547 0.05198,-0.0832 0.390667,-0.6085 0.798914,-1.0746 1.267314,-1.55025 0.615229,-0.62475 1.268982,-1.22846 2.010554,-1.69632 0.816477,-0.51514 1.199805,-0.88828 2.104539,-1.22511 0.633795,-0.23594 1.49817,-0.61515 1.49817,-0.61515 0.783934,-0.32169 1.548844,-0.51546 1.548844,-0.51546 l 1.884948,-0.4084 c 0,0 1.166288,-0.25876 1.759343,-0.3143 2.064365,-0.19341 6.219633,-0.0629 6.219633,-0.0629 0,0 1.269674,-1.69703 2.010554,-2.45021 0.63557,-0.64615 1.336732,-1.24445 2.073355,-1.7592 0.736624,-0.51477 1.636532,-1.00394 2.324566,-1.31917 0.688036,-0.31524 1.163882,-0.44509 1.75891,-0.62859 0.475687,-0.14667 0.954148,-0.29575 1.445328,-0.37673 0.580065,-0.0953 1.172533,-0.16772 1.758909,-0.12571 v 4.2e-4 c 0.491668,0.0352 1.444897,0.31387 1.444897,0.31387 0,0 0.807303,0.29571 1.13088,0.56574 0.321576,0.26839 0.58118,0.62335 0.754067,1.00488 0.115418,0.25469 0.206876,0.53228 0.241682,0.81239 0.003,-0.0208 0.0076,-0.0413 0.0095,-0.0625 0.03724,-0.40491 -0.08337,-0.82354 -0.251211,-1.1939 -0.172887,-0.38153 -0.432491,-0.73648 -0.754068,-1.00488 -0.323576,-0.27003 -1.13088,-0.56573 -1.13088,-0.56573 0,0 -0.953228,-0.27871 -1.444896,-0.31387 v -4.3e-4 c -0.146593,-0.0108 -0.293395,-0.0136 -0.440486,-0.0113 z m -5.201364,7.08922 c -0.223636,10e-4 -0.422399,0.007 -0.571287,0.0113 -0.145295,0.23945 -0.258141,0.45433 -0.258141,0.45433 0,0 1.479648,-0.0796 2.198962,0.0629 1.705484,0.37684 3.691615,1.75707 4.900343,3.26738 0.502722,0.82604 0.789812,1.80127 0.879672,2.76407 0.01786,0.1913 0.02788,0.38536 0.03335,0.58004 0.0095,-0.34366 -0.0019,-0.68749 -0.03335,-1.02395 -0.08986,-0.9628 -0.37695,-1.93804 -0.879672,-2.76407 -1.208728,-1.51031 -3.194859,-2.89055 -4.900343,-3.26739 -0.359656,-0.0712 -0.909711,-0.0866 -1.369534,-0.0846 z m -8.801906,5.15013 c -0.0034,0.0482 -0.0065,0.0867 -0.0065,0.0867 l -0.01689,0.0381 -3.941412,8.8831 c 0,0 -1.531553,3.44797 -2.701383,4.90085 -0.418848,0.52019 -0.947412,0.95638 -1.508131,1.31918 -0.464189,0.30034 -0.973223,0.54949 -1.507698,0.69102 -0.69098,0.18295 -1.43957,0.34891 -2.136158,0.18858 -0.595016,-0.13697 -1.20182,-0.45576 -1.570501,-0.94246 -0.205097,-0.27072 -0.331376,-0.6151 -0.371186,-0.96239 -0.0013,0.009 -0.0052,0.0158 -0.0061,0.0242 -0.04705,0.47524 0.08887,1.00137 0.377249,1.38203 0.36868,0.4867 0.975485,0.8055 1.570501,0.94247 0.696588,0.16034 1.445178,-0.005 2.136157,-0.18859 0.534476,-0.14153 1.04351,-0.39066 1.507699,-0.69101 0.560719,-0.3628 1.089282,-0.79943 1.508131,-1.31961 1.16983,-1.45288 2.701383,-4.90043 2.701383,-4.90043 l 3.941412,-8.8831 0.01689,-0.0381 c 0,0 0.02327,-0.27126 0.0065,-0.53061 z m 7.972478,1.7709 c -0.0052,0.0574 -0.01117,0.1148 -0.02122,0.17254 -0.09776,0.56155 -0.45657,1.20385 -0.821633,1.67856 -0.365074,0.4747 -0.819413,0.84213 -1.301964,1.13016 -0.482553,0.28803 -0.994904,0.53816 -1.542348,0.58307 -0.32587,0.0266 -0.880919,-0.13858 -1.095368,-0.20721 l -0.103077,0.41053 c 0,0 0.792256,0.27383 1.198449,0.24061 0.547445,-0.0449 1.059796,-0.29505 1.542348,-0.58309 0.482552,-0.28802 0.936891,-0.65546 1.301964,-1.13016 0.365063,-0.47471 0.723872,-1.117 0.821634,-1.67856 0.0364,-0.20909 0.03882,-0.41632 0.02122,-0.61645 z m -12.871523,0.61775 c -0.03379,0.27747 0.0026,0.57336 0.05501,0.84406 0.05699,0.2944 0.156109,0.61373 0.376817,0.81672 0.006,0.006 0.01213,0.01 0.01862,0.0152 0.194604,0.15561 0.48505,0.0899 0.672637,0.2354 0.238657,0.18509 0.442771,0.45782 0.502424,0.75388 0.0091,0.0449 0.01374,0.0906 0.01905,0.13612 0.02167,-0.19528 0.01909,-0.3909 -0.01905,-0.58005 -0.05965,-0.29605 -0.263767,-0.56877 -0.502424,-0.75387 -0.187587,-0.14552 -0.478033,-0.0798 -0.672637,-0.23539 -0.0065,-0.005 -0.01267,-0.009 -0.01862,-0.0152 -0.220708,-0.20299 -0.319827,-0.52234 -0.376817,-0.81674 -0.025,-0.12913 -0.04279,-0.2642 -0.05501,-0.40013 z m 16.4058,4.9078 -0.518879,0.20765 c 0,0 1.351726,0.58281 1.947749,1.00531 1.429575,1.02511 1.779025,1.58641 2.373943,3.36059 0.06742,0.40552 0.101714,0.81717 0.111312,1.23204 0.0135,-0.56545 -0.01992,-1.12618 -0.111312,-1.67596 -0.594918,-1.77417 -0.944368,-2.33547 -2.373943,-3.36059 -0.363198,-0.25746 -0.981336,-0.56071 -1.42887,-0.76904 z m -26.515737,2.46017 c -0.380597,-0.003 -0.765814,0.0394 -1.144309,0.0681 -0.971664,0.0734 -1.92327,0.22639 -2.889791,0.44002 -0.88593,0.19578 -1.744076,0.51796 -2.576211,0.87959 -0.631575,0.27446 -1.262791,0.57142 -1.821711,0.97367 -0.631262,0.45435 -1.155879,1.04681 -1.696539,1.60226 -0.58428,0.60028 -1.10893,1.27349 -1.507699,2.01019 -0.466746,0.86228 -0.802395,1.80523 -1.005275,2.76452 -0.163004,0.77077 -0.206236,1.56602 -0.195338,2.35614 0.01039,-0.64295 0.06287,-1.28582 0.195338,-1.91223 0.20288,-0.95929 0.538529,-1.90223 1.005275,-2.7645 0.398769,-0.7367 0.923419,-1.40993 1.507699,-2.0102 0.54066,-0.55546 1.065277,-1.14792 1.696539,-1.60226 0.55892,-0.40226 1.190136,-0.69922 1.821711,-0.97368 0.832135,-0.36163 1.690281,-0.68381 2.576211,-0.87959 0.966521,-0.21363 1.918127,-0.36661 2.889791,-0.44002 0.605593,-0.0459 1.228342,-0.12747 1.822145,0 0.449077,0.0964 0.943259,0.22981 1.256486,0.56574 0.226713,0.24313 0.37029,0.5779 0.419696,0.91558 0.01119,-0.0546 0.01914,-0.10972 0.01993,-0.16604 0.0054,-0.424 -0.150428,-0.88333 -0.439621,-1.19346 -0.313227,-0.33593 -0.807409,-0.46936 -1.256486,-0.56573 -0.222676,-0.0478 -0.449478,-0.0661 -0.677836,-0.0681 z m 21.825026,3.23791 c -0.007,0.0958 -0.01784,0.19137 -0.03725,0.28569 -0.117055,0.56883 -0.351077,1.15243 -0.754065,1.5706 -0.312028,0.32379 -0.751864,0.5446 -1.193687,0.62817 -0.186341,0.0354 -0.387465,0.002 -0.565656,-0.0629 -0.212835,-0.0775 -0.427731,-0.19714 -0.565226,-0.37716 -0.160793,-0.21053 -0.167425,-0.50258 -0.25121,-0.75388 -0.0838,-0.25131 -0.07765,-0.55375 -0.25121,-0.75388 -0.06139,-0.0709 -0.157986,-0.12432 -0.251645,-0.12528 -0.39344,-0.004 -0.755576,0.26336 -1.068078,0.50244 -0.436593,0.33402 -0.754301,0.80538 -1.06808,1.25675 -0.342524,0.49272 -0.638927,1.02077 -0.879237,1.57062 -0.326243,0.74639 -0.626856,1.51989 -0.754066,2.32449 -0.07243,0.45804 -0.109527,0.92888 -0.09139,1.39504 0.01018,-0.31933 0.0419,-0.63813 0.09139,-0.95113 0.12721,-0.8046 0.427823,-1.57809 0.754066,-2.32449 0.24031,-0.54984 0.536713,-1.07833 0.879237,-1.57105 0.313779,-0.45137 0.631487,-0.92228 1.06808,-1.25631 0.312502,-0.23908 0.674638,-0.50677 1.068078,-0.50244 0.09366,9.6e-4 0.19026,0.0543 0.251645,0.12528 0.173568,0.20013 0.167414,0.50256 0.25121,0.75387 0.08378,0.2513 0.09042,0.54336 0.25121,0.75388 0.137495,0.18003 0.352391,0.29965 0.565226,0.37716 0.178191,0.0651 0.379315,0.0983 0.565656,0.0629 0.441823,-0.0836 0.881659,-0.30437 1.193687,-0.62815 0.402988,-0.41818 0.63701,-1.00178 0.754065,-1.57062 0.04917,-0.23892 0.05394,-0.48405 0.03725,-0.7296 z"
                   id="path1723"
                   inkscape:connector-curvature="0" />
              </g>
            </g>
            <g
               transform="translate(95.600951,91.912583)"
               id="g1704"
               style="stroke-width:0.87276632" />
          </g>
        </g>
      </g>
    </g>
  </g>
</svg>
