<?xml version="1.0" encoding="UTF-8" standalone="no"?>
<svg
   xmlns:dc="http://purl.org/dc/elements/1.1/"
   xmlns:cc="http://creativecommons.org/ns#"
   xmlns:rdf="http://www.w3.org/1999/02/22-rdf-syntax-ns#"
   xmlns:svg="http://www.w3.org/2000/svg"
   xmlns="http://www.w3.org/2000/svg"
   xmlns:xlink="http://www.w3.org/1999/xlink"
   xmlns:sodipodi="http://sodipodi.sourceforge.net/DTD/sodipodi-0.dtd"
   xmlns:inkscape="http://www.inkscape.org/namespaces/inkscape"
   style="enable-background:new"
   width="256"
   height="256"
   version="1.0"
   viewBox="0 0 256 256"
   id="svg40"
   sodipodi:docname="brasero.svg"
   inkscape:version="0.92.3 (2405546, 2018-03-11)">
  <metadata
     id="metadata44">
    <rdf:RDF>
      <cc:Work
         rdf:about="">
        <dc:format>image/svg+xml</dc:format>
        <dc:type
           rdf:resource="http://purl.org/dc/dcmitype/StillImage" />
        <dc:title>
  Adwaita Icon Template
 </dc:title>
      </cc:Work>
    </rdf:RDF>
  </metadata>
  <sodipodi:namedview
     pagecolor="#ffffff"
     bordercolor="#666666"
     borderopacity="1"
     objecttolerance="10"
     gridtolerance="10"
     guidetolerance="10"
     inkscape:pageopacity="0"
     inkscape:pageshadow="2"
     inkscape:window-width="1920"
     inkscape:window-height="1009"
     id="namedview42"
     showgrid="false"
     inkscape:zoom="3.271609"
     inkscape:cx="59.110315"
     inkscape:cy="138.66966"
     inkscape:window-x="0"
     inkscape:window-y="34"
     inkscape:window-maximized="1"
     inkscape:current-layer="g2399" />
  <title
     id="title4162">
  Adwaita Icon Template
 </title>
  <defs
     id="defs22">
    <linearGradient
       inkscape:collect="always"
       id="linearGradient965">
      <stop
         style="stop-color:#250808;stop-opacity:1;"
         offset="0"
         id="stop961" />
      <stop
         style="stop-color:#250808;stop-opacity:0;"
         offset="1"
         id="stop963" />
    </linearGradient>
    <linearGradient
       id="linearGradient950">
      <stop
         style="stop-color:#9a9996"
         id="stop946"
         offset="0" />
      <stop
         style="stop-color:#77767b"
         id="stop948"
         offset="1" />
    </linearGradient>
    <linearGradient
       id="linearGradient1001"
       x1="1660.8571"
       x2="1662.99"
       y1="806.297"
       y2="812.88202"
       gradientTransform="matrix(1.8293937,-0.81599442,0.81599442,1.8293937,-3645.9624,100.02949)"
       gradientUnits="userSpaceOnUse"
       xlink:href="#linearGradient950" />
    <clipPath
       id="clipPath5154"
       clipPathUnits="userSpaceOnUse">
      <circle
         cx="128"
         cy="924.362"
         r="109.647"
         style="fill:url(#radialGradient5158)"
         id="circle7" />
    </clipPath>
    <clipPath
       id="clipPath977"
       clipPathUnits="userSpaceOnUse">
      <circle
         cx="128"
         cy="924.362"
         r="109.647"
         style="fill:url(#radialGradient5158)"
         id="circle10" />
    </clipPath>
    <clipPath
       id="clipPath4688"
       clipPathUnits="userSpaceOnUse">
      <path
         d="m 106.42383,889.60156 c -2.2448,-0.0524 -4.09304,1.75264 -4.09375,3.99805 v 32.64453 32.64453 c -4e-5,3.07923 3.33305,5.004 6,3.46485 l 28.26953,-16.32227 28.27148,-16.32227 c 2.66559,-1.54001 2.66559,-5.38772 0,-6.92773 l -28.27148,-16.32227 -28.26953,-16.32226 c -0.58054,-0.3353 -1.23603,-0.51932 -1.90625,-0.53516 z"
         style="fill:url(#radialGradient4692);stroke:#a7003f;stroke-linecap:round;stroke-linejoin:round"
         id="path13"
         inkscape:connector-curvature="0" />
    </clipPath>
    <clipPath
       id="clipPath4564"
       clipPathUnits="userSpaceOnUse">
      <circle
         style="fill:url(#radialGradient4568)"
         cx="128"
         cy="924.362"
         r="109.647"
         id="circle16" />
    </clipPath>
    <clipPath
       id="clipPath6215"
       clipPathUnits="userSpaceOnUse">
      <path
         d="m 105.17325,806.18572 c -3.06859,0.56361 -6.11393,1.24721 -9.129005,2.04923 -3.838255,1.06506 -7.62084,2.32142 -11.333578,3.76438 -3.712189,1.44307 -7.34989,3.07087 -10.899472,4.87732 -3.549153,1.80656 -7.005749,3.78947 -10.35684,5.94129 -3.351877,2.15253 -6.593991,4.47137 -9.714191,6.94783 -3.119992,2.47544 -6.114241,5.10535 -8.971529,7.87988 -0.367219,0.38909 -0.731819,0.78065 -1.093777,1.17464 2.60205,17.85956 16.832359,40.03752 30.863064,55.74236 -4.76734,8.84435 -7.265993,18.73329 -7.272057,28.78068 0.02104,2.87431 0.246096,5.7435 0.673482,8.58593 -20.257302,-9.18513 -43.077023,-26.53494 -52.798465,-47.36396 -0.440667,1.15171 -0.863474,2.31018 -1.268271,3.47498 -1.176789,3.80495 -2.162562,7.66637 -2.953625,11.56979 -0.79154,3.90311 -1.3874065,7.84335 -1.7853678,11.80598 -0.39733,3.96334 -0.5961891,7.94407 -0.5958321,11.92728 -4.394e-4,2.81936 0.098928,5.63785 0.2979155,8.45018 0.282275,3.97319 0.763088,7.92978 1.4406374,11.85493 0.625626,3.51826 1.408798,7.00668 2.347153,10.45473 16.778133,6.68355 43.114514,5.45001 63.748015,1.14301 6.818545,11.02763 16.987182,19.58379 29.018153,24.41667 -18.071844,12.93645 -44.490188,24.02095 -67.37308,22.03245 1.384097,1.665 2.813203,3.2921 4.285735,4.8794 2.774977,2.8571 5.691103,5.5737 8.737453,8.1395 3.046107,2.5658 6.218619,4.9777 9.505651,7.2266 3.287242,2.2488 6.684891,4.3319 10.180217,6.2413 3.495379,1.9096 7.084075,3.6433 10.752641,5.1944 3.66896,1.5509 7.413193,2.9174 11.218668,4.0942 1.438565,0.3959 2.884421,0.7648 4.336807,1.1066 14.138748,-11.1844 26.206378,-34.5828 32.780368,-54.56406 12.95816,-0.38251 25.45395,-4.90132 35.65955,-12.89544 2.15922,22.12638 -1.46693,50.5581 -14.64692,69.3832 3.06859,-0.5636 6.11393,-1.2473 9.129,-2.0493 3.83826,-1.0651 7.62084,-2.3214 11.33358,-3.7644 3.71219,-1.4431 7.34989,-3.0709 10.89947,-4.8773 3.54915,-1.8066 7.00575,-3.7895 10.35684,-5.9413 3.35188,-2.1525 6.59399,-4.4714 9.71419,-6.9478 3.11999,-2.4754 6.11424,-5.1054 8.97153,-7.8799 0.36722,-0.3891 0.73182,-0.7806 1.09378,-1.1746 -2.60204,-17.85957 -16.83236,-40.03755 -30.86307,-55.74238 4.76735,-8.84435 7.266,-18.7333 7.27207,-28.78069 -0.021,-2.8743 -0.24611,-5.74349 -0.6735,-8.58592 20.25731,9.18513 43.07704,26.53494 52.79848,47.36396 0.44067,-1.15171 0.86347,-2.31018 1.26827,-3.47499 1.17679,-3.80495 2.16256,-7.66636 2.95362,-11.56978 0.79154,-3.90311 1.38741,-7.84335 1.78537,-11.80598 0.39733,-3.96334 0.59619,-7.94408 0.59583,-11.92729 4.4e-4,-2.81936 -0.0989,-5.63784 -0.29791,-8.45017 -0.28228,-3.97319 -0.76309,-7.92978 -1.44064,-11.85493 -0.62776,-3.53416 -1.41449,-7.03823 -2.35779,-10.50154 -20.56165,-7.32804 -45.89823,-4.79548 -63.74906,-1.11372 -6.81835,-11.01918 -16.98234,-19.56874 -29.00647,-24.39915 18.07184,-12.93645 44.49019,-24.02091 67.37307,-22.03241 -1.38409,-1.66502 -2.8132,-3.2921 -4.28573,-4.87944 -2.77498,-2.85712 -5.6911,-5.57368 -8.73745,-8.13949 -3.04611,-2.56581 -6.21862,-4.97769 -9.50565,-7.22659 -3.28724,-2.24885 -6.68489,-4.3319 -10.18022,-6.24135 -3.49538,-1.90963 -7.08407,-3.64325 -10.75264,-5.19438 -3.66896,-1.55092 -7.41319,-2.91736 -11.21867,-4.09421 -1.42662,-0.39262 -2.86041,-0.75869 -4.30063,-1.09804 -14.14688,11.18369 -26.2293,34.57475 -32.8107,54.55552 -12.96018,0.38127 -25.4582,4.90015 -35.665394,12.89544 -2.15922,-22.12637 1.466931,-50.55807 14.646924,-69.38315 z"
         style="fill:url(#radialGradient6219)"
         id="path19"
         inkscape:connector-curvature="0" />
    </clipPath>
    <linearGradient
       id="linearGradient954">
      <stop
         id="stop950"
         offset="0"
         style="stop-color:#faf8f6;stop-opacity:1" />
      <stop
         id="stop952"
         offset="1"
         style="stop-color:#f1f0e9;stop-opacity:1" />
    </linearGradient>
    <radialGradient
       id="radialGradient1062"
       cx="131.91499"
       cy="55.926998"
       r="160"
       fx="131.91499"
       fy="55.926998"
       gradientTransform="matrix(1.0125135,2.1002674,-1.6092836,0.11574215,-4.6063107,-300.00018)"
       gradientUnits="userSpaceOnUse"
       xlink:href="#linearGradient1722" />
    <linearGradient
       id="linearGradient1722">
      <stop
         style="stop-color:#e01b24"
         id="stop1718"
         offset="0" />
      <stop
         style="stop-color:#f8e45c"
         id="stop1720"
         offset="1" />
    </linearGradient>
    <radialGradient
       id="radialGradient1064"
       cx="525.58801"
       cy="638.59198"
       r="192"
       fx="525.58801"
       fy="638.59198"
       gradientTransform="matrix(-0.56672219,1.0065537,-1.1024699,-0.69087589,1449.8905,-224.44988)"
       gradientUnits="userSpaceOnUse"
       xlink:href="#linearGradient1594" />
    <linearGradient
       id="linearGradient1594">
      <stop
         id="stop1590"
         offset="0"
         style="stop-color:#2ec27e" />
      <stop
         id="stop1592"
         offset="1"
         style="stop-color:#57e389;stop-opacity:0" />
    </linearGradient>
    <linearGradient
       id="linearGradient1474"
       x1="264.67499"
       x2="264.048"
       y1="81.459"
       y2="-171.243"
       gradientUnits="userSpaceOnUse"
       xlink:href="#linearGradient2782-839-396" />
    <linearGradient
       id="linearGradient2782-839-396">
      <stop
         id="stop7582"
         offset="0"
         style="stop-color:#8dc5ff" />
      <stop
         id="stop7584"
         offset="1"
         style="stop-color:#f2c600" />
    </linearGradient>
    <linearGradient
       id="linearGradient81638-4"
       x1="-11.986"
       x2="-11.986"
       y1="11.5"
       y2="28.976999"
       gradientTransform="matrix(4.0215518,0,0,4.4016601,-113.49853,1.8026083)"
       gradientUnits="userSpaceOnUse"
       xlink:href="#linearGradient6969-5" />
    <linearGradient
       id="linearGradient6969-5">
      <stop
         style="stop-color:#204a87"
         id="stop6971-9"
         offset="0" />
      <stop
         style="stop-color:#729fcf"
         id="stop6973-3"
         offset="1" />
    </linearGradient>
    <linearGradient
       id="linearGradient3206"
       x1="38.883999"
       x2="41.334999"
       y1="12.519"
       y2="31.996"
       gradientTransform="matrix(4.8385052,0,0,4.8385052,12.135712,-100.17166)"
       gradientUnits="userSpaceOnUse"
       xlink:href="#linearGradient3297-2" />
    <linearGradient
       id="linearGradient3297-2">
      <stop
         style="stop-color:#fce94f;stop-opacity:0.90494299"
         id="stop3310"
         offset="0" />
      <stop
         style="stop-color:#ffaf45"
         id="stop3301-9"
         offset="1" />
    </linearGradient>
    <linearGradient
       id="linearGradient3323"
       x1="8.0010004"
       x2="11.766"
       y1="19.355"
       y2="40.504002"
       gradientTransform="matrix(4.7884468,0,0,4.7611564,-2.9438985,-108.06444)"
       gradientUnits="userSpaceOnUse"
       xlink:href="#linearGradient3297-2" />
    <linearGradient
       id="linearGradient3199"
       x1="7.7350001"
       x2="15.29"
       y1="31.256001"
       y2="45.574001"
       gradientTransform="matrix(4.8506163,0,0,4.8397254,-3.9020289,-108.5292)"
       gradientUnits="userSpaceOnUse"
       xlink:href="#linearGradient3193-1" />
    <linearGradient
       id="linearGradient3193-1">
      <stop
         style="stop-color:#ff4d19"
         id="stop3195-2"
         offset="0" />
      <stop
         style="stop-color:#ff4d19;stop-opacity:0.17490494"
         id="stop3197-2"
         offset="1" />
    </linearGradient>
    <linearGradient
       id="linearGradient3341"
       x1="23.413"
       x2="23.358999"
       y1="17.025999"
       y2="23.209"
       gradientTransform="matrix(4.718001,0,0,4.718001,10.362758,-114.62179)"
       gradientUnits="userSpaceOnUse"
       xlink:href="#linearGradient3343" />
    <linearGradient
       id="linearGradient3343">
      <stop
         id="stop3345"
         offset="0"
         style="stop-color:#fce94f;stop-opacity:0.8326996" />
      <stop
         id="stop3347"
         offset="1"
         style="stop-color:#fec446" />
    </linearGradient>
    <linearGradient
       id="linearGradient3203"
       x1="24.533001"
       x2="22.547001"
       y1="9.3389997"
       y2="32.044998"
       gradientTransform="matrix(1.9221253,0,0,2.4396542,78.798138,-70.773152)"
       gradientUnits="userSpaceOnUse"
       xlink:href="#linearGradient3193-1" />
    <linearGradient
       id="linearGradient3203-5"
       x1="24.533001"
       x2="22.547001"
       y1="9.3389997"
       y2="32.044998"
       gradientTransform="matrix(1.9221253,0,0,2.4396542,78.798184,-70.77319)"
       gradientUnits="userSpaceOnUse"
       xlink:href="#linearGradient3193-1" />
    <linearGradient
       id="linearGradient3341-6"
       x1="23.413"
       x2="23.358999"
       y1="17.025999"
       y2="23.209"
       gradientTransform="matrix(4.718001,0,0,4.718001,10.362801,-114.62183)"
       gradientUnits="userSpaceOnUse"
       xlink:href="#linearGradient3343" />
    <linearGradient
       id="linearGradient3199-1"
       x1="7.7350001"
       x2="15.29"
       y1="31.256001"
       y2="45.574001"
       gradientTransform="matrix(4.8506163,0,0,4.8397254,-3.9019857,-108.52924)"
       gradientUnits="userSpaceOnUse"
       xlink:href="#linearGradient3193-1" />
    <linearGradient
       id="linearGradient3323-2"
       x1="8.0010004"
       x2="11.766"
       y1="19.355"
       y2="40.504002"
       gradientTransform="matrix(4.7884468,0,0,4.7611564,-2.9438557,-108.06448)"
       gradientUnits="userSpaceOnUse"
       xlink:href="#linearGradient3297-2" />
    <filter
       inkscape:collect="always"
       style="color-interpolation-filters:sRGB"
       id="filter11191"
       x="-0.012"
       width="1.024"
       y="-0.012"
       height="1.024">
      <feGaussianBlur
         inkscape:collect="always"
         stdDeviation="1.12"
         id="feGaussianBlur11193" />
    </filter>
    <filter
       inkscape:collect="always"
       style="color-interpolation-filters:sRGB"
       id="filter11210-9"
       x="-0.048"
       width="1.096"
       y="-0.048"
       height="1.096">
      <feGaussianBlur
         inkscape:collect="always"
         stdDeviation="4.48"
         id="feGaussianBlur11212-3" />
    </filter>
    <linearGradient
       gradientTransform="matrix(13.192426,0,0,13.196652,-441.68513,-312.67345)"
       inkscape:collect="always"
       xlink:href="#linearGradient4445"
       id="linearGradient4368"
       gradientUnits="userSpaceOnUse"
       x1="27.75396"
       y1="21.958349"
       x2="18.557213"
       y2="24.938889" />
    <linearGradient
       id="linearGradient4445">
      <stop
         id="stop4447"
         offset="0"
         style="stop-color:#ffffff;stop-opacity:1;" />
      <stop
         style="stop-color:#fce94f;stop-opacity:1"
         offset="0.29971462"
         id="stop4449" />
      <stop
         id="stop4451"
         offset="1"
         style="stop-color:#fce94f;stop-opacity:0" />
    </linearGradient>
    <linearGradient
       id="linearGradient5571-41">
      <stop
         style="stop-color:#ffffff;stop-opacity:1"
         offset="0"
         id="stop5573-9" />
      <stop
         id="stop5581-8"
         offset="0.20833339"
         style="stop-color:#ffffff;stop-opacity:1" />
      <stop
         id="stop5579-04"
         offset="0.42261928"
         style="stop-color:#fce94f;stop-opacity:1" />
      <stop
         style="stop-color:#fff86f;stop-opacity:0"
         offset="1"
         id="stop5575-90" />
    </linearGradient>
    <linearGradient
       inkscape:collect="always"
       xlink:href="#linearGradient4445"
       id="linearGradient941"
       gradientUnits="userSpaceOnUse"
       gradientTransform="matrix(-13.192426,0,0,13.196652,441.68513,-312.67345)"
       x1="27.75396"
       y1="21.958349"
       x2="18.557213"
       y2="24.938889" />
    <filter
       inkscape:collect="always"
       style="color-interpolation-filters:sRGB"
       id="filter957"
       x="-0.034569708"
       width="1.0691394"
       y="-0.037553754"
       height="1.0751075">
      <feGaussianBlur
         inkscape:collect="always"
         stdDeviation="2.3976295"
         id="feGaussianBlur959" />
    </filter>
    <linearGradient
       inkscape:collect="always"
       xlink:href="#linearGradient965"
       id="linearGradient967"
       x1="32.035528"
       y1="22.96978"
       x2="209.99943"
       y2="22.96978"
       gradientUnits="userSpaceOnUse" />
    <radialGradient
       inkscape:collect="always"
       xlink:href="#linearGradient5571-41"
       id="radialGradient909"
       cx="-105.04742"
       cy="-43.475574"
       fx="-105.04742"
       fy="-43.475574"
       r="13.83657"
       gradientUnits="userSpaceOnUse"
       gradientTransform="matrix(1.1666667,0,0,1.1666667,202.51915,-1.8270228)" />
  </defs>
  <g
     id="g1271"
     transform="translate(0.06275272,-0.08110046)">
    <g
       transform="matrix(1.0840837,0,0,1.0840837,-1.83901,110.34456)"
       style="enable-background:new"
       id="g2399">
      <path
         inkscape:connector-curvature="0"
         style="display:inline;opacity:0.1;fill:#000000;fill-opacity:1;stroke:none;stroke-width:1;stroke-linecap:round;stroke-linejoin:round;stroke-miterlimit:4;stroke-dasharray:none;stroke-opacity:1;filter:url(#filter11210-9);enable-background:new"
         d="m 122.752,14.048643 a 112,112 0 0 0 -112,112.000007 112,112 0 0 0 112,112 112,112 0 0 0 112,-112 112,112 0 0 0 -112,-112.000007 z m 0,83.5 a 24.5,24.5 0 0 1 24.5,24.500007 24.5,24.5 0 0 1 -24.5,24.5 24.5,24.5 0 0 1 -24.500003,-24.5 A 24.5,24.5 0 0 1 122.752,97.548643 Z"
         id="path11042-0"
         transform="matrix(0.922438,0,0,0.922438,7.1731153,-100.60487)" />
      <path
         inkscape:connector-curvature="0"
         style="display:inline;opacity:0.1;fill:#000000;fill-opacity:1;stroke:none;stroke-width:1;stroke-linecap:round;stroke-linejoin:round;stroke-miterlimit:4;stroke-dasharray:none;stroke-opacity:1;filter:url(#filter11191);enable-background:new"
         d="m 122.752,12.048643 a 112,112 0 0 0 -112,112.000007 112,112 0 0 0 112,112 112,112 0 0 0 112,-112 112,112 0 0 0 -112,-112.000007 z m 0,85.5 a 24.5,24.5 0 0 1 24.5,24.500007 24.5,24.5 0 0 1 -24.5,24.5 24.5,24.5 0 0 1 -24.500003,-24.5 A 24.5,24.5 0 0 1 122.752,97.548643 Z"
         id="path11042-6"
         transform="matrix(0.922438,0,0,0.922438,7.1731153,-100.60487)" />
      <path
         inkscape:connector-curvature="0"
         style="display:inline;opacity:0.1;fill:#000000;fill-opacity:1;stroke:none;stroke-width:0.92243791;stroke-linecap:round;stroke-linejoin:round;stroke-miterlimit:4;stroke-dasharray:none;stroke-opacity:1;enable-background:new"
         d="M 120.40422,-93.18049 A 105.15792,105.15792 0 0 0 15.246292,11.977445 105.15792,105.15792 0 0 0 120.40422,117.13538 105.15792,105.15792 0 0 0 225.56215,11.977445 105.15792,105.15792 0 0 0 120.40422,-93.18049 Z m 0,82.558197 a 22.599731,22.599731 0 0 1 14.55903,5.3148358 22.599731,22.599731 0 0 1 1.65389,1.540397 22.599731,22.599731 0 0 1 1.48996,1.69534 22.599731,22.599731 0 0 1 0,0.0018 22.599731,22.599731 0 0 1 2.43762,3.796054 22.599731,22.599731 0 0 1 1.63589,4.205016 22.599731,22.599731 0 0 1 0.76749,4.4482362 22.599731,22.599731 0 0 1 0.0558,1.59806 22.599731,22.599731 0 0 1 -6.85342,16.211128 22.599731,22.599731 0 0 1 -0.002,0.0018 22.599731,22.599731 0 0 1 -15.74451,6.386804 22.599731,22.599731 0 0 1 -16.21112,-6.855227 22.599731,22.599731 0 0 1 -1.49175,-1.697148 22.599731,22.599731 0 0 1 -4.073506,-8.00107 22.599731,22.599731 0 0 1 0,-0.0018 22.599731,22.599731 0 0 1 -0.82335,-6.044487 22.599731,22.599731 0 0 1 0.11351,-2.2556572 22.599731,22.599731 0 0 1 12.234906,-17.884846 22.599731,22.599731 0 0 1 3.67174,-1.457525 22.599731,22.599731 0 0 1 0.93865,-0.268444 22.599731,22.599731 0 0 1 4.04287,-0.6774148 22.599731,22.599731 0 0 1 1.59805,-0.05585 z"
         id="path11042-7" />
      <g
         style="enable-background:new"
         id="g893"
         transform="matrix(1.7240733,0,0,1.7240733,262.53802,-236.69841)">
        <path
           id="path11"
           d="m -82.440666,112.13533 a 32.102043,32.102041 0 0 0 -32.102044,32.10204 32.102043,32.102041 0 0 0 32.102044,32.10204 32.102043,32.102041 0 0 0 32.102039,-32.10204 32.102043,32.102041 0 0 0 -32.102039,-32.10204 z m 0,19.26122 c 7.091984,0 12.840813,5.74884 12.840813,12.84082 0,7.09198 -5.748829,12.84082 -12.840813,12.84082 -7.091985,0 -12.840819,-5.74884 -12.840819,-12.84082 0,-7.09198 5.748834,-12.84082 12.840819,-12.84082 z"
           style="fill:#848484;enable-background:new"
           inkscape:connector-curvature="0" />
        <path
           id="path13-3"
           d="m -82.440666,84.313559 c -33.197794,0 -59.923814,26.726021 -59.923814,59.923811 0,33.19779 26.72602,59.92381 59.923814,59.92381 33.197789,0 59.923818,-26.72602 59.923818,-59.92381 0,-33.19779 -26.726029,-59.923811 -59.923818,-59.923811 z m 0,34.242181 a 25.681636,25.681633 0 0 1 25.681632,25.68163 25.681636,25.681633 0 0 1 -25.681632,25.68164 25.681636,25.681633 0 0 1 -25.681634,-25.68164 25.681636,25.681633 0 0 1 25.681634,-25.68163 z"
           style="fill:#e4e4e4;enable-background:new"
           inkscape:connector-curvature="0" />
      </g>
      <path
         style="display:inline;opacity:0.3;fill:#ffffff;fill-opacity:1;stroke:none;stroke-width:0.92243803;stroke-linecap:round;stroke-linejoin:round;stroke-miterlimit:4;stroke-dasharray:none;stroke-opacity:1;enable-background:new"
         d="M 120.40426,-91.33566 A 103.31306,103.31306 0 0 0 17.091212,11.977398 103.31306,103.31306 0 0 0 17.129052,13.056577 103.31306,103.31306 0 0 1 120.40427,-89.49078 103.31306,103.31306 0 0 1 223.67949,12.743096 103.31306,103.31306 0 0 0 223.71729,11.977398 103.31306,103.31306 0 0 0 120.40423,-91.33566 Z"
         id="path11042-1"
         inkscape:connector-curvature="0" />
      <g
         id="g933"
         transform="translate(-1.844876,-3.689752)">
        <path
           inkscape:connector-curvature="0"
           id="path943"
           d="m 76.753906,-53.644531 a 2.7675907,2.7675907 0 0 1 1.484375,5.099609 C 47.237514,-28.087596 35.049269,11.408207 49.126953,45.787109 63.204637,80.166012 99.586479,99.75613 136.02539,92.580078 c 36.43891,-7.176051 62.68555,-39.1005 62.68555,-76.251953 a 2.7675907,2.7675907 0 1 1 5.5332,0 c 0,39.760884 -28.14769,74.001077 -67.14844,81.681641 C 98.094956,105.69033 59.070515,84.676753 44.003906,47.882812 28.937298,11.088872 42.009755,-31.268866 75.189453,-53.164062 a 2.7675907,2.7675907 0 0 1 1.564453,-0.480469 z"
           style="color:#000000;font-style:normal;font-variant:normal;font-weight:normal;font-stretch:normal;font-size:medium;line-height:normal;font-family:sans-serif;font-variant-ligatures:normal;font-variant-position:normal;font-variant-caps:normal;font-variant-numeric:normal;font-variant-alternates:normal;font-feature-settings:normal;text-indent:0;text-align:start;text-decoration:none;text-decoration-line:none;text-decoration-style:solid;text-decoration-color:#000000;letter-spacing:normal;word-spacing:normal;text-transform:none;writing-mode:lr-tb;direction:ltr;text-orientation:mixed;dominant-baseline:auto;baseline-shift:baseline;text-anchor:start;white-space:normal;shape-padding:0;clip-rule:nonzero;display:inline;overflow:visible;visibility:visible;opacity:0.1;isolation:auto;mix-blend-mode:normal;color-interpolation:sRGB;color-interpolation-filters:linearRGB;solid-color:#000000;solid-opacity:1;vector-effect:none;fill:url(#linearGradient967);fill-opacity:1;fill-rule:nonzero;stroke:none;stroke-width:5.53462791;stroke-linecap:round;stroke-linejoin:miter;stroke-miterlimit:4;stroke-dasharray:none;stroke-dashoffset:0;stroke-opacity:1;marker:none;color-rendering:auto;image-rendering:auto;shape-rendering:auto;text-rendering:auto;enable-background:new;filter:url(#filter957)" />
        <circle
           style="opacity:1;fill:url(#radialGradient909);fill-opacity:1;stroke:none;stroke-width:0.84217489;stroke-linecap:round;stroke-linejoin:round;stroke-miterlimit:4;stroke-dasharray:none;stroke-dashoffset:0;stroke-opacity:1"
           id="path901"
           cx="79.963837"
           cy="-52.548527"
           r="16.142666" />
        <path
           style="color:#000000;font-style:normal;font-variant:normal;font-weight:normal;font-stretch:normal;font-size:medium;line-height:normal;font-family:sans-serif;font-variant-ligatures:normal;font-variant-position:normal;font-variant-caps:normal;font-variant-numeric:normal;font-variant-alternates:normal;font-feature-settings:normal;text-indent:0;text-align:start;text-decoration:none;text-decoration-line:none;text-decoration-style:solid;text-decoration-color:#000000;letter-spacing:normal;word-spacing:normal;text-transform:none;writing-mode:lr-tb;direction:ltr;text-orientation:mixed;dominant-baseline:auto;baseline-shift:baseline;text-anchor:start;white-space:normal;shape-padding:0;clip-rule:nonzero;display:inline;overflow:visible;visibility:visible;opacity:1;isolation:auto;mix-blend-mode:normal;color-interpolation:sRGB;color-interpolation-filters:linearRGB;solid-color:#000000;solid-opacity:1;vector-effect:none;fill:url(#linearGradient941);fill-opacity:1;fill-rule:nonzero;stroke:none;stroke-width:5.53462791;stroke-linecap:round;stroke-linejoin:miter;stroke-miterlimit:4;stroke-dasharray:none;stroke-dashoffset:0;stroke-opacity:1;marker:none;color-rendering:auto;image-rendering:auto;shape-rendering:auto;text-rendering:auto;enable-background:new"
           d="m 76.753906,-53.644531 a 2.7675907,2.7675907 0 0 1 1.484375,5.099609 C 47.237514,-28.087596 35.049269,11.408207 49.126953,45.787109 63.204637,80.166012 99.586479,99.75613 136.02539,92.580078 c 36.43891,-7.176051 62.68555,-39.1005 62.68555,-76.251953 a 2.7675907,2.7675907 0 1 1 5.5332,0 c 0,39.760884 -28.14769,74.001077 -67.14844,81.681641 C 98.094956,105.69033 59.070515,84.676753 44.003906,47.882812 28.937298,11.088872 42.009755,-31.268866 75.189453,-53.164062 a 2.7675907,2.7675907 0 0 1 1.564453,-0.480469 z"
           id="path937"
           inkscape:connector-curvature="0" />
      </g>
      <path
         inkscape:connector-curvature="0"
         id="path902"
         d="M 120.40424,115.4473 A 103.31306,103.31306 0 0 0 223.71729,12.134219 103.31306,103.31306 0 0 0 223.67949,11.055039 103.31306,103.31306 0 0 1 120.40423,113.60241 103.31306,103.31306 0 0 1 17.129012,11.368519 a 103.31306,103.31306 0 0 0 -0.0378,0.7657 A 103.31306,103.31306 0 0 0 120.40427,115.4473 Z"
         style="display:inline;opacity:0.2;fill:#000000;fill-opacity:1;stroke:none;stroke-width:0.92243803;stroke-linecap:round;stroke-linejoin:round;stroke-miterlimit:4;stroke-dasharray:none;stroke-opacity:1;enable-background:new" />
    </g>
  </g>
</svg>
