<?xml version="1.0" encoding="UTF-8" standalone="no"?>
<svg
   xmlns:dc="http://purl.org/dc/elements/1.1/"
   xmlns:cc="http://creativecommons.org/ns#"
   xmlns:rdf="http://www.w3.org/1999/02/22-rdf-syntax-ns#"
   xmlns:svg="http://www.w3.org/2000/svg"
   xmlns="http://www.w3.org/2000/svg"
   xmlns:xlink="http://www.w3.org/1999/xlink"
   xmlns:sodipodi="http://sodipodi.sourceforge.net/DTD/sodipodi-0.dtd"
   xmlns:inkscape="http://www.inkscape.org/namespaces/inkscape"
   style="enable-background:new"
   width="256"
   height="256"
   version="1.0"
   id="svg80"
   sodipodi:docname="builder.svg"
   inkscape:version="0.92.3 (2405546, 2018-03-11)">
  <metadata
     id="metadata84">
    <rdf:RDF>
      <cc:Work
         rdf:about="">
        <dc:format>image/svg+xml</dc:format>
        <dc:type
           rdf:resource="http://purl.org/dc/dcmitype/StillImage" />
        <dc:title></dc:title>
      </cc:Work>
    </rdf:RDF>
  </metadata>
  <sodipodi:namedview
     pagecolor="#ffffff"
     bordercolor="#666666"
     borderopacity="1"
     objecttolerance="10"
     gridtolerance="10"
     guidetolerance="10"
     inkscape:pageopacity="0"
     inkscape:pageshadow="2"
     inkscape:window-width="1920"
     inkscape:window-height="1009"
     id="namedview82"
     showgrid="false"
     showguides="false"
     inkscape:zoom="3.2617188"
     inkscape:cx="69.771842"
     inkscape:cy="128"
     inkscape:window-x="0"
     inkscape:window-y="34"
     inkscape:window-maximized="1"
     inkscape:current-layer="g1049" />
  <defs
     id="defs28">
    <filter
       id="filter925"
       width="1.046"
       height="1.05"
       x="-.02"
       y="-.03"
       style="color-interpolation-filters:sRGB">
      <feGaussianBlur
         stdDeviation="2.32"
         id="feGaussianBlur2" />
    </filter>
    <filter
       id="filter931"
       width="1.023"
       height="1.025"
       x="-.01"
       y="-.01"
       style="color-interpolation-filters:sRGB">
      <feGaussianBlur
         stdDeviation="1.16"
         id="feGaussianBlur5" />
    </filter>
    <linearGradient
       id="linearGradient1108"
       x1="296"
       x2="296"
       y1="-212"
       y2="236"
       gradientUnits="userSpaceOnUse"
       xlink:href="#linearGradient1013" />
    <linearGradient
       id="linearGradient1013">
      <stop
         style="stop-color:#ffffff"
         offset="0"
         id="stop9" />
      <stop
         offset=".125"
         style="stop-color:#ffffff;stop-opacity:0.09803922"
         id="stop11" />
      <stop
         offset=".925"
         style="stop-color:#000000;stop-opacity:0.09803922"
         id="stop13" />
      <stop
         style="stop-color:#000000;stop-opacity:0.49803922"
         offset="1"
         id="stop15" />
    </linearGradient>
    <clipPath
       id="clipPath1082-3"
       clipPathUnits="userSpaceOnUse">
      <path
         style="fill:#8c59d9"
         d="M 361.9375,-212 C 507.2348,-212 528,-191.28677 528,-46.125 V 70.125 C 528,215.28618 507.2348,236 361.9375,236 H 214.0625 C 68.7652,236 48,215.28618 48,70.125 V -46.125 C 48,-191.28677 68.7652,-212 214.0625,-212 Z"
         id="path18" />
    </clipPath>
    <linearGradient
       id="c">
      <stop
         offset="0"
         stop-color="#555753"
         id="stop21" />
      <stop
         offset="1"
         stop-color="#2e3436"
         id="stop23" />
    </linearGradient>
    <radialGradient
       id="w-6"
       cx="343.875"
       cy="308.125"
       r="8"
       fx="343.875"
       fy="308.125"
       gradientTransform="matrix(0.11855746,0,0,0.11855746,18.159236,232.69873)"
       gradientUnits="userSpaceOnUse"
       xlink:href="#c" />
    <radialGradient
       id="x-1"
       cx="343.875"
       cy="308.125"
       r="8"
       fx="343.875"
       fy="308.125"
       gradientTransform="matrix(0.11855746,0,0,0.11855746,-86.448331,232.69873)"
       gradientUnits="userSpaceOnUse"
       xlink:href="#c" />
    <filter
       inkscape:collect="always"
       style="color-interpolation-filters:sRGB"
       id="filter1119"
       x="-0.011207467"
       width="1.0224149"
       y="-0.012913149"
       height="1.0258263">
      <feGaussianBlur
         inkscape:collect="always"
         stdDeviation="0.23893389"
         id="feGaussianBlur1121" />
    </filter>
    <filter
       inkscape:collect="always"
       style="color-interpolation-filters:sRGB"
       id="filter1137"
       x="-0.044829869"
       width="1.0896597"
       y="-0.051652598"
       height="1.1033052">
      <feGaussianBlur
         inkscape:collect="always"
         stdDeviation="0.95573555"
         id="feGaussianBlur1139" />
    </filter>
  </defs>
  <g
     transform="translate(48.813559,-90.644068)"
     id="g78">
    <g
       id="g76"
       transform="translate(2.1694915,20.610169)">
      <g
         id="g70"
         transform="translate(-198.50847,114.98305)">
        <g
           id="g1049"
           style="enable-background:new"
           transform="matrix(4.4560834,0,0,4.4560834,15.139573,-1103.562)">
          <path
             id="path1123"
             d="m 60.672152,243.82575 a 8.6884295,8.6884295 0 0 0 -8.688422,8.68842 8.6884295,8.6884295 0 0 0 0.02364,0.47201 l -5.559698,5.5597 a 10.619304,10.619304 0 0 0 -2.186495,-0.24002 10.619304,10.619304 0 0 0 -10.619283,10.61929 10.619304,10.619304 0 0 0 4.826704,8.89676 v 2.6884 c 0,2.13268 -1.729039,3.86127 -3.86172,3.86127 h -1.930861 v 3.86172 h 23.169428 v -3.86172 h -1.930414 c -2.132684,0 -3.86172,-1.72859 -3.86172,-3.86127 v -2.69598 a 10.619304,10.619304 0 0 0 4.827152,-8.88918 10.619304,10.619304 0 0 0 -0.232883,-2.19408 l 5.545422,-5.54543 a 8.6884295,8.6884295 0 0 0 0.47915,0.017 8.6884295,8.6884295 0 0 0 4.26948,-1.12738 l 3.85414,3.85414 a 5.7926251,5.7926251 0 0 0 -0.40018,2.09994 5.7926251,5.7926251 0 0 0 1.19653,3.51374 l -1.41737,1.41736 c -0.23805,-0.0633 -0.48662,-0.10038 -0.74459,-0.10038 -1.59954,0 -2.89585,1.29675 -2.89585,2.89629 v 5.79258 l 2.89585,2.89629 h 2.89629 v -8.68887 c 0,-0.25965 -0.0376,-0.51006 -0.10172,-0.7495 l 1.6672,-1.66675 a 5.7926251,5.7926251 0 0 0 2.29624,0.48182 5.7926251,5.7926251 0 0 0 2.30026,-0.4787 l 1.66318,1.66274 c -0.0642,0.23969 -0.10172,0.49044 -0.10172,0.75039 v 8.68887 h 2.89584 l 2.89629,-2.89629 v -5.79258 c 0,-1.59954 -1.29675,-2.89629 -2.89629,-2.89629 -0.25782,0 -0.50624,0.0372 -0.74415,0.10038 l -1.41468,-1.41513 a 5.7926251,5.7926251 0 0 0 1.19429,-3.51597 5.7926251,5.7926251 0 0 0 -5.79302,-5.79258 5.7926251,5.7926251 0 0 0 -1.92328,0.33505 l -3.94693,-3.94694 a 8.6884295,8.6884295 0 0 0 1.04261,-4.11066 8.6884295,8.6884295 0 0 0 -8.68842,-8.68842 z"
             style="font-weight:400;overflow:visible;opacity:0.1;fill:#000000;fill-opacity:1;stroke-width:1.01785707;filter:url(#filter1137)"
             inkscape:connector-curvature="0" />
          <path
             inkscape:connector-curvature="0"
             style="font-weight:400;overflow:visible;opacity:0.1;fill:#000000;fill-opacity:1;stroke-width:1.01785707;filter:url(#filter1119)"
             d="m 60.672152,243.82575 a 8.6884295,8.6884295 0 0 0 -8.688422,8.68842 8.6884295,8.6884295 0 0 0 0.02364,0.47201 l -5.559698,5.5597 a 10.619304,10.619304 0 0 0 -2.186495,-0.24002 10.619304,10.619304 0 0 0 -10.619283,10.61929 10.619304,10.619304 0 0 0 4.826704,8.89676 v 2.6884 c 0,2.13268 -1.729039,3.86127 -3.86172,3.86127 h -1.930861 v 3.86172 h 23.169428 v -3.86172 h -1.930414 c -2.132684,0 -3.86172,-1.72859 -3.86172,-3.86127 v -2.69598 a 10.619304,10.619304 0 0 0 4.827152,-8.88918 10.619304,10.619304 0 0 0 -0.232883,-2.19408 l 5.545422,-5.54543 a 8.6884295,8.6884295 0 0 0 0.47915,0.017 8.6884295,8.6884295 0 0 0 4.26948,-1.12738 l 3.85414,3.85414 a 5.7926251,5.7926251 0 0 0 -0.40018,2.09994 5.7926251,5.7926251 0 0 0 1.19653,3.51374 l -1.41737,1.41736 c -0.23805,-0.0633 -0.48662,-0.10038 -0.74459,-0.10038 -1.59954,0 -2.89585,1.29675 -2.89585,2.89629 v 5.79258 l 2.89585,2.89629 h 2.89629 v -8.68887 c 0,-0.25965 -0.0376,-0.51006 -0.10172,-0.7495 l 1.6672,-1.66675 a 5.7926251,5.7926251 0 0 0 2.29624,0.48182 5.7926251,5.7926251 0 0 0 2.30026,-0.4787 l 1.66318,1.66274 c -0.0642,0.23969 -0.10172,0.49044 -0.10172,0.75039 v 8.68887 h 2.89584 l 2.89629,-2.89629 v -5.79258 c 0,-1.59954 -1.29675,-2.89629 -2.89629,-2.89629 -0.25782,0 -0.50624,0.0372 -0.74415,0.10038 l -1.41468,-1.41513 a 5.7926251,5.7926251 0 0 0 1.19429,-3.51597 5.7926251,5.7926251 0 0 0 -5.79302,-5.79258 5.7926251,5.7926251 0 0 0 -1.92328,0.33505 l -3.94693,-3.94694 a 8.6884295,8.6884295 0 0 0 1.04261,-4.11066 8.6884295,8.6884295 0 0 0 -8.68842,-8.68842 z"
             id="path1117" />
          <path
             id="path1055"
             d="m 60.672152,243.82575 a 8.6884295,8.6884295 0 0 0 -8.688422,8.68842 8.6884295,8.6884295 0 0 0 0.02364,0.47201 l -5.559698,5.5597 a 10.619304,10.619304 0 0 0 -2.186495,-0.24002 10.619304,10.619304 0 0 0 -10.619283,10.61929 10.619304,10.619304 0 0 0 4.826704,8.89676 v 2.6884 c 0,2.13268 -1.729039,3.86127 -3.86172,3.86127 h -1.930861 v 3.86172 h 23.169428 v -3.86172 h -1.930414 c -2.132684,0 -3.86172,-1.72859 -3.86172,-3.86127 v -2.69598 a 10.619304,10.619304 0 0 0 4.827152,-8.88918 10.619304,10.619304 0 0 0 -0.232883,-2.19408 l 5.545422,-5.54543 a 8.6884295,8.6884295 0 0 0 0.47915,0.017 8.6884295,8.6884295 0 0 0 4.26948,-1.12738 l 3.85414,3.85414 a 5.7926251,5.7926251 0 0 0 -0.40018,2.09994 5.7926251,5.7926251 0 0 0 1.19653,3.51374 l -1.41737,1.41736 c -0.23805,-0.0633 -0.48662,-0.10038 -0.74459,-0.10038 -1.59954,0 -2.89585,1.29675 -2.89585,2.89629 v 5.79258 l 2.89585,2.89629 h 2.89629 v -8.68887 c 0,-0.25965 -0.0376,-0.51006 -0.10172,-0.7495 l 1.6672,-1.66675 a 5.7926251,5.7926251 0 0 0 2.29624,0.48182 5.7926251,5.7926251 0 0 0 2.30026,-0.4787 l 1.66318,1.66274 c -0.0642,0.23969 -0.10172,0.49044 -0.10172,0.75039 v 8.68887 h 2.89584 l 2.89629,-2.89629 v -5.79258 c 0,-1.59954 -1.29675,-2.89629 -2.89629,-2.89629 -0.25782,0 -0.50624,0.0372 -0.74415,0.10038 l -1.41468,-1.41513 a 5.7926251,5.7926251 0 0 0 1.19429,-3.51597 5.7926251,5.7926251 0 0 0 -5.79302,-5.79258 5.7926251,5.7926251 0 0 0 -1.92328,0.33505 l -3.94693,-3.94694 a 8.6884295,8.6884295 0 0 0 1.04261,-4.11066 8.6884295,8.6884295 0 0 0 -8.68842,-8.68842 z"
             style="font-weight:400;overflow:visible;opacity:0.1;fill:#000000;fill-opacity:1;stroke-width:1.01785707"
             inkscape:connector-curvature="0" />
          <g
             transform="translate(21.562395,3.8049625)"
             style="enable-background:new"
             id="g68">
            <path
               style="font-weight:400;overflow:visible;fill:#aea795;fill-opacity:1"
               d="m 17.210778,261.14859 v 15.17537 c 0,2.09527 -1.698574,3.79384 -3.79384,3.79384 h -1.896919 v 3.79384 H 34.28305 v -3.79384 h -1.896918 c -2.095268,0 -3.79384,-1.69857 -3.79384,-3.79384 v -15.17537 z"
               font-weight="400"
               overflow="visible"
               id="path38"
               inkscape:connector-curvature="0" />
            <path
               style="fill:#6f6f6f;fill-opacity:1"
               d="M 11.520019,280.1178 H 34.28305 v 3.79384 H 11.520019 Z"
               id="path40"
               inkscape:connector-curvature="0" />
            <path
               d="m 52.304688,261.0332 -8.59375,8.59375 2.011718,2.01172 6.582032,-6.58008 6.580078,6.58008 2.011718,-2.01172 z"
               style="fill:#aea795;fill-opacity:1"
               id="path42"
               inkscape:connector-curvature="0" />
            <path
               style="fill:#6dc7f1;fill-opacity:1"
               d="m 58.943,266.84327 c 1.571479,0 2.845378,1.2739 2.845378,2.84538 v 5.69078 L 58.943,278.22479 h -2.845379 v -8.53614 c 0,-1.57148 1.273899,-2.84538 2.845379,-2.84538 z"
               id="path44"
               inkscape:connector-curvature="0" />
            <path
               style="color:#000000;font-style:normal;font-variant:normal;font-weight:400;font-stretch:normal;font-size:medium;line-height:normal;font-family:sans-serif;font-variant-ligatures:normal;font-variant-position:normal;font-variant-caps:normal;font-variant-numeric:normal;font-variant-alternates:normal;font-feature-settings:normal;text-indent:0;text-align:start;text-decoration:none;text-decoration-line:none;text-decoration-style:solid;text-decoration-color:#000000;letter-spacing:normal;word-spacing:normal;text-transform:none;writing-mode:lr-tb;direction:ltr;text-orientation:mixed;dominant-baseline:auto;baseline-shift:baseline;text-anchor:start;white-space:normal;shape-padding:0;clip-rule:nonzero;display:inline;overflow:visible;visibility:visible;opacity:1;isolation:auto;mix-blend-mode:normal;color-interpolation:sRGB;color-interpolation-filters:linearRGB;solid-color:#000000;solid-opacity:1;vector-effect:none;fill:#eab305;fill-opacity:1;fill-rule:nonzero;stroke:none;stroke-width:3.79383874;stroke-linecap:butt;stroke-linejoin:miter;stroke-miterlimit:4;stroke-dasharray:none;stroke-dashoffset:0;stroke-opacity:1;color-rendering:auto;image-rendering:auto;shape-rendering:auto;text-rendering:auto;enable-background:accumulate"
               d="m 37.291016,242.50586 -1.341797,1.33984 -20.310547,20.31055 8.048828,8.04883 21.652344,-21.65235 z m 2.68164,8.04687 v 0 L 23.6875,266.83789 v 0 z"
               id="path46"
               inkscape:connector-curvature="0"
               sodipodi:nodetypes="ccccccccccc" />
            <circle
               style="fill:#fdc92b;fill-opacity:1"
               cx="22.902"
               cy="264.94199"
               r="10.433"
               id="circle48" />
            <path
               style="fill:#aea795;fill-opacity:1"
               d="m 40.820617,247.14191 -3.353422,3.35341 15.175354,15.17535 3.353422,-3.35341 z"
               id="path50"
               inkscape:connector-curvature="0" />
            <circle
               style="fill:#fdc92b;fill-opacity:1"
               cx="39.025002"
               cy="248.819"
               r="8.5360003"
               id="circle52" />
            <circle
               cx="52.304001"
               cy="262.09698"
               r="5.691"
               style="fill:#fdc92b;fill-opacity:1"
               id="circle54" />
            <circle
               style="fill:#525252;fill-opacity:1"
               cx="39.025002"
               cy="248.819"
               r="5.691"
               id="circle56" />
            <circle
               style="fill:#525252;fill-opacity:1"
               cx="22.902"
               cy="264.94199"
               r="6.6389999"
               id="circle58" />
            <circle
               style="fill:#525252;fill-opacity:1"
               cx="52.304001"
               cy="262.09698"
               r="3.7939999"
               id="circle60" />
            <circle
               style="fill:#525252;fill-opacity:1"
               cx="58.943001"
               cy="269.689"
               r="0.94800001"
               id="circle62" />
            <path
               style="fill:#6dc7f1;fill-opacity:1"
               d="m 45.664565,266.84327 c -1.571478,0 -2.845378,1.2739 -2.845378,2.84538 v 5.69078 l 2.845378,2.84536 h 2.845378 v -8.53614 c 0,-1.57148 -1.273899,-2.84538 -2.845378,-2.84538 z"
               id="path64"
               inkscape:connector-curvature="0" />
            <circle
               style="fill:#525252;fill-opacity:1"
               cx="-45.665001"
               cy="269.689"
               r="0.94800001"
               transform="scale(-1,1)"
               id="circle66" />
          </g>
          <path
             style="font-weight:400;overflow:visible;opacity:0.2;fill:#000000;fill-opacity:1;stroke-width:1"
             d="m 52.060695,252.35911 a 8.536001,8.536001 0 0 0 -0.0092,0.26474 8.536001,8.536001 0 0 0 0.0018,0.0364 l 0.02148,-0.0215 a 8.536001,8.536001 0 0 1 -0.01403,-0.27964 z m 17.051829,0.0443 a 8.536001,8.536001 0 0 1 -1.013361,3.81019 l 0.145078,0.14508 a 8.536001,8.536001 0 0 0 0.879241,-3.7348 8.536001,8.536001 0 0 0 -0.01096,-0.22047 z m -4.330455,7.20004 a 8.536001,8.536001 0 0 1 -4.194583,1.1076 8.536001,8.536001 0 0 1 -0.470738,-0.0167 l -5.448137,5.44814 a 10.433,10.433 0 0 1 0.06356,0.38527 l 5.384581,-5.38458 a 8.536001,8.536001 0 0 0 0.470738,0.0167 8.536001,8.536001 0 0 0 4.194583,-1.1076 l 3.673874,3.67388 a 5.6910004,5.6910004 0 0 1 0.112646,-0.33618 z m 3.403002,6.03941 a 5.6910004,5.6910004 0 0 0 -0.0096,0.25904 5.6910004,5.6910004 0 0 0 0.987941,3.19086 l 0.187593,-0.1876 a 5.6910004,5.6910004 0 0 1 -1.165891,-3.2623 z m 11.364818,0.0986 a 5.6910004,5.6910004 0 0 1 -1.165453,3.16588 l 0.183211,0.18321 a 5.6910004,5.6910004 0 0 0 0.990132,-3.18867 5.6910004,5.6910004 0 0 0 -0.0079,-0.16042 z m -45.50924,2.7416 a 10.433,10.433 0 0 0 -0.0092,0.26386 10.433,10.433 0 0 0 4.742023,8.74068 v -0.44882 a 10.433,10.433 0 0 1 -4.73282,-8.55572 z m 20.845801,0.0487 a 10.433,10.433 0 0 1 -4.731507,8.49962 v 0.44882 a 10.433,10.433 0 0 0 4.742463,-8.73323 10.433,10.433 0 0 0 -0.01096,-0.21521 z m 16.723977,2.13893 -1.637947,1.63751 c 0.03259,0.12177 0.05781,0.24656 0.07495,0.37387 l 1.562997,-1.56256 a 5.6910004,5.6910004 0 0 0 2.255958,0.47337 5.6910004,5.6910004 0 0 0 2.259902,-0.4703 l 1.559052,1.55861 c 0.01712,-0.12731 0.04233,-0.25211 0.07495,-0.37387 l -1.634002,-1.63356 a 5.6910004,5.6910004 0 0 1 -2.259902,0.4703 5.6910004,5.6910004 0 0 1 -2.255958,-0.47337 z m -7.22853,8.06482 v 0.44882 l 2.845039,2.84548 h 2.845478 v -0.44882 h -2.845478 z m 18.968976,0 -2.845478,2.84548 h -2.84504 v 0.44882 h 2.84504 l 2.845478,-2.84548 z m -50.268359,8.53205 v 0.44882 h 22.762947 v -0.44882 z"
             id="path1143"
             inkscape:connector-curvature="0" />
          <path
             style="font-weight:400;overflow:visible;opacity:0.3;fill:#ffffff;fill-opacity:1;stroke-width:1;enable-background:new"
             d="m 60.60213,244.084 a 8.5360009,8.5360009 0 0 0 -8.535996,8.53599 8.5360009,8.5360009 0 0 0 0.0092,0.18628 8.5360009,8.5360009 0 0 1 8.526793,-8.27345 8.5360009,8.5360009 0 0 1 8.525038,8.31465 8.5360009,8.5360009 0 0 0 0.01095,-0.22748 8.5360009,8.5360009 0 0 0 -8.535987,-8.53599 z m -8.534243,9.0212 -5.440684,5.44068 a 10.433,10.433 0 0 0 -2.148135,-0.23581 10.433,10.433 0 0 0 -10.432981,10.43299 10.433,10.433 0 0 0 0.0092,0.18584 10.433,10.433 0 0 1 10.423775,-10.17 10.433,10.433 0 0 1 2.148135,0.23581 l 5.46216,-5.46216 a 8.5360009,8.5360009 0 0 1 -0.02148,-0.42735 z m 16.190998,3.69842 a 8.5360009,8.5360009 0 0 1 -0.14508,0.30374 l 3.877688,3.87769 a 5.6910003,5.6910003 0 0 1 1.889533,-0.32917 5.6910003,5.6910003 0 0 1 5.683505,5.53054 5.6910003,5.6910003 0 0 0 0.0079,-0.28841 5.6910003,5.6910003 0 0 0 -5.691395,-5.69095 5.6910003,5.6910003 0 0 0 -1.889533,0.32917 z m 0.211702,7.36747 a 5.6910003,5.6910003 0 0 0 -0.280516,1.72692 5.6910003,5.6910003 0 0 0 0.0096,0.18979 5.6910003,5.6910003 0 0 1 0.383516,-1.80406 z m -13.723778,2.80165 -0.06355,0.0635 a 10.433,10.433 0 0 1 0.217837,1.94038 10.433,10.433 0 0 0 0.01096,-0.23361 10.433,10.433 0 0 0 -0.165242,-1.77032 z m 23.83548,2.56277 a 5.6910003,5.6910003 0 0 1 -0.18321,0.26561 l 1.389866,1.39031 c 0.23373,-0.0621 0.477797,-0.0986 0.731093,-0.0986 1.571479,0 2.845479,1.274 2.845479,2.84548 v -0.44883 c 0,-1.57148 -1.274,-2.84547 -2.845479,-2.84547 -0.253296,0 -0.497363,0.0365 -0.731093,0.0986 z m -9.404278,0.002 -1.204901,1.2049 c -0.233874,-0.0622 -0.478086,-0.0986 -0.731533,-0.0986 -1.571476,0 -2.845039,1.27399 -2.845039,2.84547 v 0.44883 c 0,-1.57148 1.273563,-2.84548 2.845039,-2.84548 0.253447,0 0.497659,0.0364 0.731533,0.0986 l 1.392496,-1.3925 a 5.6910003,5.6910003 0 0 1 -0.187595,-0.26123 z m 8.52197,3.58841 c -0.01598,0.11892 -0.02498,0.24001 -0.02498,0.36335 v 0.44883 c 0,-0.25539 0.03684,-0.50174 0.09993,-0.73723 z m -7.637909,9e-4 -0.07495,0.075 c 0.06296,0.23524 0.09993,0.48125 0.09993,0.73635 v -0.44883 c 0,-0.12304 -0.009,-0.24385 -0.02498,-0.36248 z m -31.273959,6.99794 c 0,2.09527 -1.698705,3.79353 -3.793971,3.79353 h -1.896986 v 0.44882 h 1.896986 c 2.095266,0 3.793971,-1.69826 3.793971,-3.79353 z m 11.381475,0 v 0.44882 c 0,2.09527 1.698702,3.79353 3.79397,3.79353 h 1.896547 v -0.44882 h -1.896547 c -2.095268,0 -3.79397,-1.69826 -3.79397,-3.79353 z"
             id="path1019"
             inkscape:connector-curvature="0" />
        </g>
      </g>
    </g>
  </g>
</svg>
