<?xml version="1.0" encoding="UTF-8" standalone="no"?>
<svg
   xmlns:dc="http://purl.org/dc/elements/1.1/"
   xmlns:cc="http://creativecommons.org/ns#"
   xmlns:rdf="http://www.w3.org/1999/02/22-rdf-syntax-ns#"
   xmlns:svg="http://www.w3.org/2000/svg"
   xmlns="http://www.w3.org/2000/svg"
   xmlns:xlink="http://www.w3.org/1999/xlink"
   xmlns:sodipodi="http://sodipodi.sourceforge.net/DTD/sodipodi-0.dtd"
   xmlns:inkscape="http://www.inkscape.org/namespaces/inkscape"
   width="256"
   height="256"
   version="1.0"
   id="svg41"
   sodipodi:docname="caffeine.svg"
   inkscape:version="0.92.3 (2405546, 2018-03-11)">
  <metadata
     id="metadata45">
    <rdf:RDF>
      <cc:Work
         rdf:about="">
        <dc:format>image/svg+xml</dc:format>
        <dc:type
           rdf:resource="http://purl.org/dc/dcmitype/StillImage" />
        <dc:title></dc:title>
      </cc:Work>
    </rdf:RDF>
  </metadata>
  <sodipodi:namedview
     pagecolor="#ffffff"
     bordercolor="#666666"
     borderopacity="1"
     objecttolerance="10"
     gridtolerance="10"
     guidetolerance="10"
     inkscape:pageopacity="0"
     inkscape:pageshadow="2"
     inkscape:window-width="1920"
     inkscape:window-height="1009"
     id="namedview43"
     showgrid="false"
     inkscape:zoom="3.4270405"
     inkscape:cx="93.134262"
     inkscape:cy="127.82523"
     inkscape:window-x="0"
     inkscape:window-y="34"
     inkscape:window-maximized="1"
     inkscape:current-layer="g887" />
  <defs
     id="defs19">
    <linearGradient
       id="a">
      <stop
         id="stop2"
         offset="0"
         stop-color="#68676b" />
      <stop
         id="stop4"
         offset=".8"
         stop-color="#424048" />
      <stop
         id="stop6"
         offset="1"
         stop-color="#241f31" />
    </linearGradient>
    <radialGradient
       id="d"
       cx="279.422"
       cy="446.483"
       r="224"
       fx="279.422"
       fy="446.483"
       gradientTransform="matrix(1.34416,6e-4,-6.2e-4,1.38763,-121.22,-718.103)"
       gradientUnits="userSpaceOnUse"
       xlink:href="#a" />
    <linearGradient
       id="e"
       x1="43.844002"
       x2="-60"
       y1="234"
       y2="234"
       gradientTransform="matrix(1.0015,0,0,0.99993,72.09,56.015)"
       gradientUnits="userSpaceOnUse"
       xlink:href="#b" />
    <linearGradient
       id="b">
      <stop
         id="stop11"
         offset="0"
         stop-color="#d5d3cf" />
      <stop
         id="stop13"
         offset=".038"
         stop-color="#e3e2df" />
      <stop
         id="stop15"
         offset=".077"
         stop-color="#c0bfbc" />
      <stop
         id="stop17"
         offset=".923"
         stop-color="#c0bfbc" />
      <stop
         id="stop19"
         offset=".962"
         stop-color="#e3e2df" />
      <stop
         id="stop21"
         offset="1"
         stop-color="#d5d3cf" />
    </linearGradient>
    <linearGradient
       id="linearGradient1007"
       x1="160.30499"
       x2="161.33"
       y1="240.13901"
       y2="135.57899"
       gradientTransform="matrix(0.54625232,0,0,0.54625232,-6.0941965,-68.413544)"
       gradientUnits="userSpaceOnUse"
       xlink:href="#linearGradient1018" />
    <linearGradient
       id="linearGradient1018">
      <stop
         id="stop2-3"
         offset="0"
         style="stop-color:#37a6e6" />
      <stop
         id="stop4-6"
         offset="1"
         style="stop-color:#1a7fd4" />
    </linearGradient>
    <clipPath
       clipPathUnits="userSpaceOnUse"
       id="clipPath1082-3">
      <path
         sodipodi:nodetypes="sssssssss"
         inkscape:connector-curvature="0"
         id="path1084-6"
         d="M 361.9375,-212 C 507.2348,-212 528,-191.28677 528,-46.125 V 70.125 C 528,215.28618 507.2348,236 361.9375,236 H 214.0625 C 68.7652,236 48,215.28618 48,70.125 V -46.125 C 48,-191.28677 68.7652,-212 214.0625,-212 Z"
         style="display:inline;opacity:1;fill:#8c59d9;fill-opacity:1;stroke:none;stroke-width:2;stroke-linecap:round;stroke-linejoin:round;stroke-miterlimit:4;stroke-dasharray:none;stroke-dashoffset:0;stroke-opacity:1;enable-background:new" />
    </clipPath>
    <linearGradient
       inkscape:collect="always"
       xlink:href="#linearGradient4360"
       id="linearGradient4358"
       x1="88"
       y1="88"
       x2="488"
       y2="488"
       gradientUnits="userSpaceOnUse" />
    <linearGradient
       id="linearGradient4360"
       inkscape:collect="always">
      <stop
         id="stop4362"
         offset="0"
         style="stop-color:#000000;stop-opacity:0.58823532" />
      <stop
         id="stop4366"
         offset="1"
         style="stop-color:#000000;stop-opacity:0.20555556" />
    </linearGradient>
    <filter
       inkscape:collect="always"
       style="color-interpolation-filters:sRGB"
       id="filter4380"
       x="-0.052999184"
       width="1.1059984"
       y="-0.043862626"
       height="1.0877253">
      <feGaussianBlur
         inkscape:collect="always"
         stdDeviation="8.4801079"
         id="feGaussianBlur4382" />
    </filter>
    <filter
       inkscape:collect="always"
       style="color-interpolation-filters:sRGB"
       id="filter4346"
       x="-0.013249796"
       width="1.0264996"
       y="-0.010965657"
       height="1.0219313">
      <feGaussianBlur
         inkscape:collect="always"
         stdDeviation="2.120027"
         id="feGaussianBlur4348" />
    </filter>
    <radialGradient
       gradientTransform="translate(-431.12529,73.925223)"
       id="SVGID_1_"
       cx="173.58791"
       cy="130.2153"
       r="65.523399"
       gradientUnits="userSpaceOnUse">
      <stop
         offset="0"
         style="stop-color:#FBC8B4"
         id="stop10" />
      <stop
         offset="1"
         style="stop-color:#ED1C24"
         id="stop12" />
    </radialGradient>
    <radialGradient
       id="SVGID_1_-3"
       cx="86.629898"
       cy="167.06931"
       r="54.7155"
       gradientUnits="userSpaceOnUse">
      <stop
         offset="0"
         style="stop-color:#FFFFFF"
         id="stop14" />
      <stop
         offset="0.0604"
         style="stop-color:#FBC8B4"
         id="stop16" />
      <stop
         offset="0.0712"
         style="stop-color:#FBC3B0"
         id="stop18" />
      <stop
         offset="0.1829"
         style="stop-color:#F7978B"
         id="stop20" />
      <stop
         offset="0.2995"
         style="stop-color:#F4716B"
         id="stop22" />
      <stop
         offset="0.4199"
         style="stop-color:#F15251"
         id="stop24" />
      <stop
         offset="0.5453"
         style="stop-color:#EF3A3D"
         id="stop26" />
      <stop
         offset="0.6778"
         style="stop-color:#EE292F"
         id="stop28" />
      <stop
         offset="0.822"
         style="stop-color:#ED1F27"
         id="stop30" />
      <stop
         offset="1"
         style="stop-color:#ED1C24"
         id="stop32" />
    </radialGradient>
  </defs>
  <g
     id="g887">
    <path
       transform="matrix(0.5,0,0,0.5,-16.116488,-20.825537)"
       sodipodi:nodetypes="scccssscsss"
       inkscape:connector-curvature="0"
       id="rect4158-9"
       d="M 141.84323,74 C 71.24979,74 63.65402,81.250835 64,151.98706 V 298 444.01294 C 63.65402,514.74917 71.24979,522 141.84323,522 H 434.15677 C 504.75021,522 513.9371,514.72348 512,444.01294 V 298 151.98706 C 512,81.249993 504.75021,74 434.15677,74 Z"
       style="color:#000000;display:inline;overflow:visible;visibility:visible;opacity:0.1;fill:#000000;fill-opacity:1;fill-rule:nonzero;stroke:none;stroke-width:2;marker:none;filter:url(#filter4346);enable-background:accumulate" />
    <path
       transform="matrix(0.5,0,0,0.5,-16.116488,-20.825235)"
       style="color:#000000;display:inline;overflow:visible;visibility:visible;opacity:0.3;fill:url(#linearGradient4358);fill-opacity:1;fill-rule:nonzero;stroke:none;stroke-width:2;marker:none;filter:url(#filter4380);enable-background:accumulate"
       d="M 141.84323,74 C 71.24979,74 63.65402,81.250835 64,151.98706 V 298 444.01294 C 63.65402,514.74917 71.24979,522 141.84323,522 H 434.15677 C 504.75021,522 513.9371,514.72348 512,444.01294 V 298 151.98706 C 512,81.249993 504.75021,74 434.15677,74 Z"
       id="path4350"
       inkscape:connector-curvature="0"
       sodipodi:nodetypes="scccssscsss" />
    <path
       sodipodi:nodetypes="scccssscsss"
       inkscape:connector-curvature="0"
       id="rect4158-7"
       d="m 53.695112,13.174464 c -36.098811,0 -39.983002,3.690159 -39.80608,39.689839 v 74.310167 74.31016 c -0.176922,35.99969 3.707269,39.68984 39.80608,39.68984 H 202.08243 c 36.09881,0 40.77464,-3.70276 39.80608,-39.68984 V 127.17447 52.864303 c 0,-36.00011 -3.70727,-39.689839 -39.80608,-39.689839 z"
       style="color:#000000;display:inline;overflow:visible;visibility:visible;opacity:0.2;fill:#000000;fill-opacity:1;fill-rule:nonzero;stroke:none;stroke-width:1.02028775;marker:none;enable-background:accumulate" />
    <path
       sodipodi:nodetypes="scccssscsss"
       inkscape:connector-curvature="0"
       id="rect4158"
       d="m 200.95649,15.174464 c 35.29673,0 39.09461,3.625419 38.92162,38.993529 v 73.006477 73.00647 c 0.17299,35.36812 -3.62489,38.99353 -38.92162,38.99353 H 54.799732 c -35.296716,0 -38.921616,-3.625 -38.921616,-38.99353 V 127.17447 54.167993 c 0,-35.36853 3.6249,-38.993529 38.921616,-38.993529 z"
       style="color:#000000;display:inline;overflow:visible;visibility:visible;fill:#d64310;fill-opacity:1;fill-rule:nonzero;stroke:none;stroke-width:1;marker:none;enable-background:accumulate" />
    <path
       sodipodi:nodetypes="sccsscsss"
       inkscape:connector-curvature="0"
       id="path931"
       d="m 54.805392,15.174464 c -35.296728,0 -39.09487,3.626029 -38.92188,38.994139 v 2 c -0.17299,-35.36811 3.625152,-38.99414 38.92188,-38.99414 H 200.96163 c 35.29673,0 38.92188,3.62561 38.92188,38.99414 v -2 c 0,-35.36853 -3.62515,-38.994139 -38.92188,-38.994139 z"
       style="color:#000000;display:inline;overflow:visible;visibility:visible;opacity:0.3;fill:#ffffff;fill-opacity:1;fill-rule:nonzero;stroke:none;stroke-width:1;marker:none;enable-background:accumulate" />
    <path
       sodipodi:nodetypes="sccsscsss"
       inkscape:connector-curvature="0"
       id="path931-8"
       d="m 54.810792,239.17447 c -35.296731,0 -39.094875,-3.62603 -38.921885,-38.99414 v -2 c -0.17299,35.36811 3.625154,38.99414 38.921885,38.99414 H 200.96703 c 35.29673,0 38.92188,-3.62561 38.92188,-38.99414 v 2 c 0,35.36853 -3.62515,38.99414 -38.92188,38.99414 z"
       style="color:#000000;display:inline;overflow:visible;visibility:visible;opacity:0.2;fill:#000000;fill-opacity:1;fill-rule:nonzero;stroke:none;stroke-width:1;marker:none;enable-background:accumulate" />
    <g
       style="fill:#e3dfd5;fill-opacity:1"
       id="g4"
       transform="matrix(10,0,0,10,-5633.1756,-4987.8255)">
      <path
         inkscape:connector-curvature="0"
         id="path2"
         style="fill:#e3dfd5;fill-opacity:1"
         d="m 573.19342,504 c -1.0982,1.38422 -1.4274,2.0662 -1.0313,2.94727 0.3591,0.79867 1.2869,1.2057 0.8203,3.05273 0.7664,-0.89992 1.3753,-2.04289 0.7735,-2.96484 -0.6122,-0.9377 -0.9475,-1.50716 -0.5625,-3.03516 z m 3,0 c -1.0982,1.38422 -1.4274,2.0662 -1.0313,2.94727 0.3591,0.79867 1.2869,1.2057 0.8203,3.05273 0.7664,-0.89992 1.3753,-2.04289 0.7735,-2.96484 -0.6122,-0.9377 -0.9475,-1.50716 -0.5625,-3.03516 z m 3,0 c -1.0982,1.38422 -1.4274,2.0662 -1.0313,2.94727 0.3591,0.79867 1.2869,1.2057 0.8203,3.05273 0.7664,-0.89992 1.3753,-2.04289 0.7735,-2.96484 -0.6122,-0.9377 -0.9475,-1.50716 -0.5625,-3.03516 z m -9.1934,7 v 3 c 0,3 2,5 5,5 h 2 c 3,0 4.7598,-1.56569 4.959,-4 h 0.541 c 1.5,0 1.5,-1.5 1.5,-1.5 v -1 c 0,-1.5 -1.5,-1.5 -1.5,-1.5 h -0.5 z m 12.5,1 c 0.5,-0.0323 0.5156,0.53125 0.5156,0.53125 v 1 c 0,0.46875 -0.5156,0.46875 -0.5156,0.46875 h -0.5 l 0.01,-1.98438 0.49,-0.0156 z" />
    </g>
    <g
       transform="matrix(10,0,0,10,-5633.1756,-4987.8255)"
       id="g1059"
       style="fill:#e3dfd5;fill-opacity:1">
      <path
         style="fill:#fffefb;fill-opacity:1;stroke-width:10;opacity:0.3"
         d="M 98.757812 52.173828 C 90.355683 62.764244 86.472102 69.244578 86.876953 75.650391 C 87.303098 70.031455 91.012479 64.02175 98.103516 55.007812 C 98.292932 54.099498 98.509799 53.158151 98.757812 52.173828 z M 128.75781 52.173828 C 120.35568 62.764244 116.4721 69.244578 116.87695 75.650391 C 117.3031 70.031455 121.01248 64.02175 128.10352 55.007812 C 128.29293 54.099498 128.5098 53.158151 128.75781 52.173828 z M 158.75781 52.173828 C 150.35568 62.764244 146.4721 69.244578 146.87695 75.650391 C 147.3031 70.031455 151.01248 64.02175 158.10352 55.007812 C 158.29293 54.099498 158.5098 53.158151 158.75781 52.173828 z M 97.146484 64.480469 C 96.877866 72.69678 99.872575 77.617109 104.38281 84.525391 C 105.88576 86.827885 106.63427 89.269478 106.79102 91.775391 C 106.97342 88.56964 106.28304 85.436513 104.38281 82.525391 C 100.25046 76.195916 97.39192 71.534827 97.146484 64.480469 z M 127.14648 64.480469 C 126.87787 72.69678 129.87257 77.617109 134.38281 84.525391 C 135.88576 86.827885 136.63427 89.269478 136.79102 91.775391 C 136.97342 88.56964 136.28304 85.436513 134.38281 82.525391 C 130.25046 76.195916 127.39192 71.534827 127.14648 64.480469 z M 157.14648 64.480469 C 156.87787 72.69678 159.87257 77.617109 164.38281 84.525391 C 165.88576 86.827885 166.63427 89.269478 166.79102 91.775391 C 166.97342 88.56964 166.28304 85.436513 164.38281 82.525391 C 160.25046 76.195916 157.39192 71.534827 157.14648 64.480469 z M 97.910156 103.85938 C 97.831106 106.27217 97.448572 109.00651 96.648438 112.17383 C 96.852523 111.93419 97.050301 111.68636 97.251953 111.44336 C 97.807161 108.562 97.999892 106.05948 97.910156 103.85938 z M 127.91016 103.85938 C 127.83111 106.27217 127.44857 109.00651 126.64844 112.17383 C 126.85252 111.93419 127.0503 111.68636 127.25195 111.44336 C 127.80716 108.562 127.99989 106.05948 127.91016 103.85938 z M 157.91016 103.85938 C 157.83111 106.27217 157.44857 109.00651 156.64844 112.17383 C 156.85252 111.93419 157.0503 111.68636 157.25195 111.44336 C 157.80716 108.562 157.99989 106.05948 157.91016 103.85938 z M 66.824219 122.17383 L 66.824219 124.17383 L 186.82422 124.17383 L 191.82422 124.17383 C 191.82422 124.17383 206.82422 124.17383 206.82422 139.17383 L 206.82422 137.17383 C 206.82422 122.17383 191.82422 122.17383 191.82422 122.17383 L 186.82422 122.17383 L 66.824219 122.17383 z M 196.98047 147.48633 C 196.98047 152.17383 191.82422 152.17383 191.82422 152.17383 L 186.83398 152.17383 L 186.82422 154.17383 L 191.82422 154.17383 C 191.82422 154.17383 196.98047 154.17383 196.98047 149.48633 L 196.98047 147.48633 z "
         transform="matrix(0.1,0,0,0.1,563.31756,498.78255)"
         id="path1057" />
    </g>
    <g
       style="fill:#e3dfd5;fill-opacity:1"
       id="g1063"
       transform="matrix(10,0,0,10,-5633.1756,-4985.8255)" />
    <g
       transform="matrix(10,0,0,10,-5633.1756,-4987.8255)"
       id="g1068"
       style="fill:#e3dfd5;fill-opacity:1">
      <path
         style="fill:#000000;fill-opacity:1;stroke-width:10;opacity:0.2"
         d="M 98.757812 52.173828 C 98.530051 52.460909 98.324666 52.726692 98.103516 53.007812 C 97.337309 56.682029 97.051735 59.757163 97.146484 62.480469 C 97.242477 59.544317 97.744208 56.196652 98.757812 52.173828 z M 128.75781 52.173828 C 128.53005 52.460909 128.32467 52.726692 128.10352 53.007812 C 127.33731 56.682029 127.05173 59.757163 127.14648 62.480469 C 127.24248 59.544317 127.74421 56.196652 128.75781 52.173828 z M 158.75781 52.173828 C 158.53005 52.460909 158.32467 52.726692 158.10352 53.007812 C 157.33731 56.682029 157.05173 59.757163 157.14648 62.480469 C 157.24248 59.544317 157.74421 56.196652 158.75781 52.173828 z M 86.876953 73.650391 C 86.675569 76.305743 87.200527 78.87763 88.445312 81.646484 C 91.244172 87.871394 97.496617 91.720369 97.910156 101.85938 C 98.292089 90.201931 91.420521 86.26361 88.445312 79.646484 C 87.514802 77.576691 87.001263 75.617293 86.876953 73.650391 z M 116.87695 73.650391 C 116.67557 76.305743 117.20053 78.87763 118.44531 81.646484 C 121.24417 87.871394 127.49662 91.720369 127.91016 101.85938 C 128.29209 90.201931 121.42052 86.26361 118.44531 79.646484 C 117.5148 77.576691 117.00126 75.617293 116.87695 73.650391 z M 146.87695 73.650391 C 146.67557 76.305743 147.20053 78.87763 148.44531 81.646484 C 151.24417 87.871394 157.49662 91.720369 157.91016 101.85938 C 158.29209 90.201931 151.42052 86.26361 148.44531 79.646484 C 147.5148 77.576691 147.00126 75.617293 146.87695 73.650391 z M 106.79102 89.775391 C 106.41113 96.45187 102.23183 103.4424 97.251953 109.44336 C 97.08301 110.32012 96.888565 111.22329 96.648438 112.17383 C 102.39842 105.4221 107.26191 97.303492 106.79102 89.775391 z M 136.79102 89.775391 C 136.41113 96.45187 132.23183 103.4424 127.25195 109.44336 C 127.08301 110.32012 126.88857 111.22329 126.64844 112.17383 C 132.39842 105.4221 137.26191 97.303492 136.79102 89.775391 z M 166.79102 89.775391 C 166.41113 96.45187 162.23183 103.4424 157.25195 109.44336 C 157.08301 110.32012 156.88857 111.22329 156.64844 112.17383 C 162.39842 105.4221 167.26191 97.303492 166.79102 89.775391 z M 191.82422 130.17383 L 186.92383 130.33008 L 186.82422 150.17383 L 186.83398 150.17383 L 186.92383 132.33008 L 191.82422 132.17383 C 196.82422 131.85083 196.98047 137.48633 196.98047 137.48633 L 196.98047 135.48633 C 196.98047 135.48633 196.82422 129.85083 191.82422 130.17383 z M 206.82422 145.17383 C 206.82422 145.17383 206.82422 160.17383 191.82422 160.17383 L 186.41406 160.17383 C 184.42206 184.51693 166.82422 200.17383 136.82422 200.17383 L 116.82422 200.17383 C 86.824219 200.17383 66.824219 180.17383 66.824219 150.17383 L 66.824219 152.17383 C 66.824219 182.17383 86.824219 202.17383 116.82422 202.17383 L 136.82422 202.17383 C 166.82422 202.17383 184.42206 186.51693 186.41406 162.17383 L 191.82422 162.17383 C 206.82422 162.17383 206.82422 147.17383 206.82422 147.17383 L 206.82422 145.17383 z "
         transform="matrix(0.1,0,0,0.1,563.31756,498.78255)"
         id="path1066" />
    </g>
    <g
       style="fill:#e3dfd5;fill-opacity:1"
       id="g1072"
       transform="matrix(10,0,0,10,-5633.1756,-4989.8255)" />
  </g>
</svg>
