<?xml version="1.0" encoding="UTF-8" standalone="no"?>
<svg
   xmlns:dc="http://purl.org/dc/elements/1.1/"
   xmlns:cc="http://creativecommons.org/ns#"
   xmlns:rdf="http://www.w3.org/1999/02/22-rdf-syntax-ns#"
   xmlns:svg="http://www.w3.org/2000/svg"
   xmlns="http://www.w3.org/2000/svg"
   xmlns:xlink="http://www.w3.org/1999/xlink"
   xmlns:sodipodi="http://sodipodi.sourceforge.net/DTD/sodipodi-0.dtd"
   xmlns:inkscape="http://www.inkscape.org/namespaces/inkscape"
   width="256"
   height="256"
   version="1.0"
   id="svg126"
   sodipodi:docname="gimp.svg"
   inkscape:version="0.92.3 (2405546, 2018-03-11)">
  <metadata
     id="metadata130">
    <rdf:RDF>
      <cc:Work
         rdf:about="">
        <dc:format>image/svg+xml</dc:format>
        <dc:type
           rdf:resource="http://purl.org/dc/dcmitype/StillImage" />
        <dc:title />
      </cc:Work>
    </rdf:RDF>
  </metadata>
  <sodipodi:namedview
     pagecolor="#ffffff"
     bordercolor="#666666"
     borderopacity="1"
     objecttolerance="10"
     gridtolerance="10"
     guidetolerance="10"
     inkscape:pageopacity="0"
     inkscape:pageshadow="2"
     inkscape:window-width="1920"
     inkscape:window-height="1009"
     id="namedview128"
     showgrid="false"
     inkscape:zoom="4.5675751"
     inkscape:cx="123.75227"
     inkscape:cy="144.38516"
     inkscape:window-x="0"
     inkscape:window-y="34"
     inkscape:window-maximized="1"
     inkscape:current-layer="g1239"
     showguides="true"
     inkscape:guide-bbox="true" />
  <defs
     id="defs55">
    <linearGradient
       id="linearGradient8542">
      <stop
         style="stop-color:#5b676b"
         id="stop8544"
         offset="0" />
      <stop
         style="stop-color:#141718"
         id="stop8546"
         offset="1" />
    </linearGradient>
    <linearGradient
       id="linearGradient8534">
      <stop
         id="stop8536"
         offset="0" />
      <stop
         style="stop-opacity:0"
         id="stop8538"
         offset="1" />
    </linearGradient>
    <linearGradient
       id="linearGradient8524">
      <stop
         style="stop-color:white"
         id="stop8526"
         offset="0" />
      <stop
         style="stop-color:white;stop-opacity:0"
         id="stop8528"
         offset="1" />
    </linearGradient>
    <linearGradient
       id="linearGradient2446">
      <stop
         style="stop-color:white"
         id="stop2448"
         offset="0" />
      <stop
         style="stop-color:white;stop-opacity:0"
         id="stop2450"
         offset="1" />
    </linearGradient>
    <linearGradient
       id="linearGradient2452"
       x1="13.236"
       x2="7.7519999"
       y1="37.751999"
       y2="42.282001"
       gradientTransform="matrix(1.4314924,0.7490339,-0.7490339,1.4314924,-13.230352,83.159017)"
       gradientUnits="userSpaceOnUse"
       xlink:href="#linearGradient2446" />
    <linearGradient
       id="linearGradient6963">
      <stop
         style="stop-color:#696969"
         id="stop6965"
         offset="0" />
      <stop
         id="stop6967"
         offset="1" />
    </linearGradient>
    <radialGradient
       id="radialGradient6969"
       cx="15.415"
       cy="35.356998"
       r="7.579"
       fx="15.415"
       fy="35.356998"
       gradientTransform="matrix(2.981202,0,0,2.9052737,-69.064117,30.289127)"
       gradientUnits="userSpaceOnUse"
       xlink:href="#linearGradient6963" />
    <linearGradient
       id="linearGradient6939">
      <stop
         style="stop-color:#bdbdbd"
         id="stop6941"
         offset="0" />
      <stop
         style="stop-color:#e2e2e2"
         id="stop6947"
         offset=".333" />
      <stop
         style="stop-color:#a3a3a3"
         id="stop6949"
         offset=".667" />
      <stop
         style="stop-color:#ddd"
         id="stop6943"
         offset="1" />
    </linearGradient>
    <linearGradient
       id="linearGradient6945"
       x1="19.395"
       x2="23.108999"
       y1="30.000999"
       y2="33.438999"
       gradientTransform="matrix(1.8956021,0,0,1.8956021,-52.079769,67.358335)"
       gradientUnits="userSpaceOnUse"
       xlink:href="#linearGradient6939" />
    <linearGradient
       id="linearGradient6951">
      <stop
         style="stop-color:#6e3d09"
         id="stop6953"
         offset="0" />
      <stop
         style="stop-color:#ea8113"
         id="stop6959"
         offset=".242" />
      <stop
         style="stop-color:#5c3307"
         id="stop6961"
         offset=".621" />
      <stop
         style="stop-color:#e07c12"
         id="stop6955"
         offset="1" />
    </linearGradient>
    <linearGradient
       id="linearGradient6957"
       x1="37.018002"
       x2="27.754"
       y1="19.24"
       y2="11.182"
       gradientTransform="matrix(1.8956021,0,0,1.8956021,-57.573243,74.335249)"
       gradientUnits="userSpaceOnUse"
       xlink:href="#linearGradient6951" />
    <linearGradient
       id="linearGradient6500">
      <stop
         style="stop-color:#857c63"
         id="stop6502"
         offset="0" />
      <stop
         style="stop-color:#221f19"
         id="stop6504"
         offset="1" />
    </linearGradient>
    <linearGradient
       id="linearGradient6492">
      <stop
         id="stop6494"
         offset="0" />
      <stop
         style="stop-opacity:0"
         id="stop6496"
         offset="1" />
    </linearGradient>
    <linearGradient
       id="linearGradient6482">
      <stop
         id="stop6484"
         offset="0" />
      <stop
         style="stop-opacity:0"
         id="stop6486"
         offset="1" />
    </linearGradient>
    <linearGradient
       id="linearGradient6468">
      <stop
         style="stop-color:white"
         id="stop6470"
         offset="0" />
      <stop
         style="stop-color:#b9b9b0"
         id="stop6472"
         offset="1" />
    </linearGradient>
    <linearGradient
       id="linearGradient6452">
      <stop
         style="stop-color:white"
         id="stop6454"
         offset="0" />
      <stop
         style="stop-color:white;stop-opacity:0"
         id="stop6456"
         offset="1" />
    </linearGradient>
    <linearGradient
       id="linearGradient6458"
       x1="6.3049998"
       x2="5.9850001"
       y1="23.362"
       y2="31.57"
       gradientTransform="matrix(0.81042119,-0.62489725,0.60699498,0.83432316,-15.480311,6.4922834)"
       gradientUnits="userSpaceOnUse"
       xlink:href="#linearGradient6452" />
    <radialGradient
       id="radialGradient6474"
       cx="69.473"
       cy="19.598"
       r="3.5150001"
       fx="69.473"
       fy="19.598"
       gradientTransform="matrix(3.7489929,0,0,3.7489929,-217.33638,-87.155428)"
       gradientUnits="userSpaceOnUse"
       xlink:href="#linearGradient6468" />
    <radialGradient
       id="radialGradient6498"
       cx="23"
       cy="33.938"
       r="18.25"
       fx="23"
       fy="33.938"
       gradientTransform="matrix(1,0,0,0.284247,0,24.29088)"
       gradientUnits="userSpaceOnUse"
       xlink:href="#linearGradient6492" />
    <linearGradient
       id="linearGradient8530"
       x1="14.969"
       x2="39.525002"
       y1="19.111"
       y2="46.986"
       gradientTransform="matrix(1.0051701,0,0,1.0394058,-2.8003121,-9.2597316)"
       gradientUnits="userSpaceOnUse"
       xlink:href="#linearGradient8524" />
    <radialGradient
       id="radialGradient8548"
       cx="6.0240002"
       cy="25.271"
       r="4.8309999"
       fx="6.0240002"
       fy="25.271"
       gradientTransform="matrix(1.511763,-0.87281675,1.0187206,1.7644779,-25.034671,-43.807035)"
       gradientUnits="userSpaceOnUse"
       xlink:href="#linearGradient8542" />
    <linearGradient
       id="linearGradient4330"
       x1="26.163"
       x2="24.329"
       y1="30.542999"
       y2="30.985001"
       gradientTransform="matrix(2.0073973,0,0,2.0073973,-1.6995843,-55.440395)"
       gradientUnits="userSpaceOnUse"
       xlink:href="#linearGradient8534" />
    <linearGradient
       id="linearGradient4351"
       x1="32.349998"
       x2="21.212999"
       y1="28.083"
       y2="30.292999"
       gradientTransform="matrix(2.0073973,0,0,2.0073973,-9.4010622,-54.745894)"
       gradientUnits="userSpaceOnUse"
       xlink:href="#linearGradient6482" />
    <radialGradient
       id="radialGradient4354"
       cx="18.558001"
       cy="22.299999"
       r="19.229"
       fx="18.558001"
       fy="22.299999"
       gradientTransform="matrix(3.3604286,0,0,2.4579893,-29.638778,-61.251841)"
       gradientUnits="userSpaceOnUse"
       xlink:href="#linearGradient6500" />
    <radialGradient
       id="radialGradient4363"
       cx="69.473"
       cy="19.598"
       r="3.5150001"
       fx="69.473"
       fy="19.598"
       gradientTransform="matrix(3.193587,0,0,3.193587,-194.66769,-76.16515)"
       gradientUnits="userSpaceOnUse"
       xlink:href="#linearGradient6468" />
    <linearGradient
       id="linearGradient954">
      <stop
         id="stop950"
         offset="0"
         style="stop-color:#faf8f6;stop-opacity:1" />
      <stop
         id="stop952"
         offset="1"
         style="stop-color:#f1f0e9;stop-opacity:1" />
    </linearGradient>
    <linearGradient
       id="linearGradient3790">
      <stop
         id="stop3802"
         offset="0"
         style="stop-color:#ddca97;stop-opacity:1;" />
      <stop
         style="stop-color:#a4966f;stop-opacity:1;"
         offset="0.57251769"
         id="stop3808" />
      <stop
         style="stop-color:#363024;stop-opacity:1;"
         offset="1"
         id="stop3794" />
    </linearGradient>
    <linearGradient
       id="linearGradient6064">
      <stop
         id="stop6066"
         offset="0"
         style="stop-color:#837a66;stop-opacity:1" />
      <stop
         id="stop6068"
         offset="1"
         style="stop-color:#5a5446;stop-opacity:0.43137255;" />
    </linearGradient>
    <linearGradient
       id="linearGradient4231-4">
      <stop
         style="stop-color:#363024;stop-opacity:1;"
         offset="0"
         id="stop4233-2" />
      <stop
         style="stop-color:#bdb294;stop-opacity:0;"
         offset="1"
         id="stop4235-7" />
    </linearGradient>
    <linearGradient
       id="linearGradient4231">
      <stop
         id="stop4355"
         offset="0"
         style="stop-color:#2a251b;stop-opacity:1;" />
      <stop
         style="stop-color:#bdb294;stop-opacity:0;"
         offset="1"
         id="stop4235" />
    </linearGradient>
    <linearGradient
       id="linearGradient3937">
      <stop
         style="stop-color:#676150;stop-opacity:1;"
         offset="0"
         id="stop3939" />
      <stop
         style="stop-color:#5a5446;stop-opacity:0.08695652;"
         offset="1"
         id="stop3941" />
    </linearGradient>
    <linearGradient
       id="linearGradient5140-7">
      <stop
         id="stop5142-8"
         offset="0"
         style="stop-color:#fdfdfd;stop-opacity:1;" />
      <stop
         style="stop-color:#ffffff;stop-opacity:1;"
         offset="0.38183475"
         id="stop5144-6" />
      <stop
         style="stop-color:#d9d9d9;stop-opacity:1;"
         offset="0.73938215"
         id="stop5146-5" />
      <stop
         id="stop5148-6"
         offset="0.89802635"
         style="stop-color:#c5c5c5;stop-opacity:1;" />
      <stop
         id="stop5150-2"
         offset="1"
         style="stop-color:#eaeaea;stop-opacity:1;" />
    </linearGradient>
    <linearGradient
       id="linearGradient5240-6-7">
      <stop
         id="stop5248-9-0"
         offset="0"
         style="stop-color:#434e54;stop-opacity:1;" />
      <stop
         style="stop-color:#23292d;stop-opacity:1"
         offset="1"
         id="stop5244-3-19" />
    </linearGradient>
    <linearGradient
       id="linearGradient5258-5-2">
      <stop
         id="stop5260-8-1"
         offset="0"
         style="stop-color:#000000;stop-opacity:1;" />
      <stop
         style="stop-color:#434e54;stop-opacity:1;"
         offset="0.90763313"
         id="stop5262-0-6" />
      <stop
         id="stop5264-4-0"
         offset="1"
         style="stop-color:#23292d;stop-opacity:1" />
    </linearGradient>
    <linearGradient
       id="linearGradient5049-0">
      <stop
         style="stop-color:#ffffff;stop-opacity:1;"
         offset="0"
         id="stop5051-9" />
      <stop
         style="stop-color:#ffffff;stop-opacity:0.33816424;"
         offset="1"
         id="stop5053-1" />
    </linearGradient>
    <linearGradient
       id="linearGradient5757">
      <stop
         style="stop-color:#7b8386;stop-opacity:1;"
         offset="0"
         id="stop5759" />
      <stop
         id="stop5767"
         offset="0.43472689"
         style="stop-color:#24282a;stop-opacity:1" />
      <stop
         id="stop5765"
         offset="0.74703032"
         style="stop-color:#000000;stop-opacity:1;" />
      <stop
         style="stop-color:#000000;stop-opacity:1;"
         offset="0.89803654"
         id="stop5769" />
      <stop
         id="stop5771"
         offset="0.96032226"
         style="stop-color:#3d4143;stop-opacity:1;" />
      <stop
         style="stop-color:#7b8386;stop-opacity:1;"
         offset="1"
         id="stop5761" />
    </linearGradient>
    <linearGradient
       id="linearGradient5942">
      <stop
         style="stop-color:#b9c1c3;stop-opacity:1;"
         offset="0"
         id="stop5944" />
      <stop
         style="stop-color:#2b3132;stop-opacity:1;"
         offset="1"
         id="stop5946" />
    </linearGradient>
    <linearGradient
       id="linearGradient6280">
      <stop
         style="stop-color:#000000;stop-opacity:0;"
         offset="0"
         id="stop6282" />
      <stop
         style="stop-color:#000000;stop-opacity:1;"
         offset="1"
         id="stop6284" />
    </linearGradient>
    <linearGradient
       id="linearGradient6392">
      <stop
         id="stop6394"
         offset="0"
         style="stop-color:#c5d914;stop-opacity:0.98823529;" />
      <stop
         style="stop-color:#d27513;stop-opacity:0.98823529;"
         offset="0.00829687"
         id="stop8982" />
      <stop
         style="stop-color:#cc7112;stop-opacity:0.98823529;"
         offset="0.01659374"
         id="stop8980" />
      <stop
         style="stop-color:#bf6a11;stop-opacity:0.98823529;"
         offset="0.03318748"
         id="stop8978" />
      <stop
         style="stop-color:#a65c0e;stop-opacity:0.99215686;"
         offset="0.06637495"
         id="stop8976" />
      <stop
         style="stop-color:#734009;stop-opacity:1"
         offset="0.1327499"
         id="stop6396" />
      <stop
         id="stop6404"
         offset="0.48951015"
         style="stop-color:#ce8e4c;stop-opacity:1" />
      <stop
         style="stop-color:#eec69d;stop-opacity:1"
         offset="0.63056582"
         id="stop6398" />
      <stop
         style="stop-color:#f9d6b3;stop-opacity:1"
         offset="0.7128883"
         id="stop6400" />
      <stop
         id="stop6402"
         offset="1"
         style="stop-color:#d97914;stop-opacity:0.99607843" />
    </linearGradient>
    <linearGradient
       id="linearGradient6412">
      <stop
         style="stop-color:#575757;stop-opacity:1"
         offset="0"
         id="stop6414" />
      <stop
         id="stop6424"
         offset="0.07647054"
         style="stop-color:#b8b8b8;stop-opacity:1" />
      <stop
         id="stop6422"
         offset="0.24232632"
         style="stop-color:#a9a9a9;stop-opacity:1" />
      <stop
         id="stop6420"
         offset="0.69411778"
         style="stop-color:#fdfdfd;stop-opacity:1" />
      <stop
         style="stop-color:#f4f4f4;stop-opacity:0.99215686;"
         offset="0.79705876"
         id="stop6426" />
      <stop
         style="stop-color:#c1c1c1;stop-opacity:0.98823529"
         offset="1"
         id="stop6416" />
    </linearGradient>
    <linearGradient
       id="linearGradient6492-6">
      <stop
         style="stop-color:#050505;stop-opacity:1"
         offset="0"
         id="stop6494-7" />
      <stop
         id="stop6500"
         offset="0.46724156"
         style="stop-color:#3f3f3f;stop-opacity:1;" />
      <stop
         style="stop-color:#7b7b7b;stop-opacity:1;"
         offset="0.73362076"
         id="stop6502-5" />
      <stop
         id="stop6618"
         offset="0.86681038"
         style="stop-color:#3d3d3d;stop-opacity:1;" />
      <stop
         style="stop-color:#000000;stop-opacity:1;"
         offset="1"
         id="stop6496-3" />
    </linearGradient>
    <linearGradient
       id="linearGradient4351-3"
       x1="32.349998"
       x2="21.212999"
       y1="28.083"
       y2="30.292999"
       gradientTransform="matrix(3.949171,0,0,3.949171,74.616937,-112.14963)"
       gradientUnits="userSpaceOnUse"
       xlink:href="#linearGradient8534" />
    <linearGradient
       id="linearGradient4330-1"
       x1="26.163"
       x2="24.329"
       y1="30.542999"
       y2="30.985001"
       gradientTransform="matrix(3.949171,0,0,3.949171,89.768126,-113.51592)"
       gradientUnits="userSpaceOnUse"
       xlink:href="#linearGradient8534" />
    <filter
       inkscape:collect="always"
       style="color-interpolation-filters:sRGB"
       id="filter1138"
       x="-0.010530203"
       width="1.0210604"
       y="-0.013946663"
       height="1.0278933">
      <feGaussianBlur
         inkscape:collect="always"
         stdDeviation="0.66049954"
         id="feGaussianBlur1140" />
    </filter>
  </defs>
  <g
     id="layer1"
     transform="matrix(2.4929094,0,0,2.4929094,12.940509,127.94137)">
    <g
       id="layer1-0"
       transform="matrix(0.55804262,0,0,0.55804262,-56.483563,1.0983431)">
      <g
         id="g1239"
         transform="matrix(1.1247744,0,0,1.1247744,-6.7072303,17.37838)">
        <path
           inkscape:connector-curvature="0"
           id="path1132"
           d="m 238.34227,-84.454268 c -0.78901,-0.124582 -1.69349,0.805558 -2.40849,2.999348 -1.25672,3.85594 -9.13365,27.807589 -49.71136,34.548728 a 19.304848,19.744108 0 0 0 -22.84094,1.617346 c -24.24906,-1.710223 -34.69671,-23.734599 -34.69671,-23.734599 l -0.63407,27.914598 a 16.444872,16.819056 0 0 0 -2.58234,9.015046 16.444872,16.819056 0 0 0 1.28862,6.473309 c -0.15841,0.284206 -0.32498,0.569314 -0.50753,0.856391 a 25.043503,17.646816 56.009011 0 0 -0.65069,-0.993678 25.043974,17.647148 56.009011 1 0 -28.41344,20.9640627 25.043503,17.646816 56.009011 0 0 24.38396,12.0039307 c 38.71379,29.2287176 133.61486,52.0911626 118.48858,-88.3330364 -0.25293,-2.027505 -0.9266,-3.206867 -1.71559,-3.331446 z"
           style="opacity:0.1;fill:#1a1b1c;fill-opacity:1;fill-rule:evenodd;stroke-width:2.07151031;filter:url(#filter1138)"
           transform="matrix(0.99516945,0,0,1,1.1674283,0)" />
        <path
           style="opacity:0.1;fill:#1a1b1c;fill-opacity:1;fill-rule:evenodd;stroke-width:2.06069732"
           d="m 238.37698,-84.454268 c -0.78079,-0.124582 -1.67585,0.805558 -2.38341,2.999348 -1.24363,3.85594 -9.03854,27.807589 -49.19373,34.548728 a 19.103835,19.744108 0 0 0 -22.60311,1.617346 C 140.20016,-46.999069 129.8613,-69.023445 129.8613,-69.023445 l -0.62747,27.914598 a 16.273639,16.819056 0 0 0 -2.55545,9.015046 16.273639,16.819056 0 0 0 1.2752,6.473309 c -0.15676,0.284206 -0.32159,0.569314 -0.50224,0.856391 A 24.963434,17.51908 56.826113 0 0 126.80742,-25.757779 24.963903,17.519409 56.826113 1 0 98.689839,-4.7937163 24.963434,17.51908 56.826113 0 0 122.8199,7.2102144 c 38.31068,29.2287176 132.22359,52.0911626 117.25481,-88.3330364 -0.2503,-2.027505 -0.91695,-3.206867 -1.69773,-3.331446 z"
           id="path1078"
           inkscape:connector-curvature="0" />
        <g
           id="g1130"
           transform="translate(-0.37900156,-2.1836397)">
          <path
             inkscape:connector-curvature="0"
             style="fill:#6c5a42;fill-rule:evenodd;stroke-width:1.99999988"
             d="m 130.73829,-64.278114 c 0,0 11.35192,23.409239 37.90904,22.74883 55.65376,-1.396239 65.41292,-30.428164 66.80917,-34.616894 1.39624,-4.188727 3.53267,-3.554243 4.0266,0.316989 18.15115,164.756643 -125.96645,94.065995 -131.0847,66.004544 28.62298,-8.377455 21.64177,-24.43425 21.64177,-24.43425 z"
             id="path91" />
          <path
             inkscape:connector-curvature="0"
             style="fill:url(#linearGradient4351-3);fill-rule:evenodd;stroke-width:1.99999988"
             d="m 151.91934,5.2200449 c 26.61308,5.3228391 40.1658,0.3873745 48.09766,-5.73726003 -2.09436,-2.70522087 -5.67224,-5.67223787 -5.67224,-5.67223787 0,0 9.29365,2.582529 12.56618,6.80668517 3.26317,4.21205793 1.21164,6.80721293 0.35764,12.19649983 -1.90117,-4.7334712 -5.44978,-6.5085955 -5.9302,-8.3893499 -7.13327,9.8607919 -24.90523,9.4511559 -49.41904,0.7956628 z"
             id="path93" />
          <path
             inkscape:connector-curvature="0"
             style="fill:#ffffff;fill-rule:evenodd;stroke-width:1.99999988"
             d="m 159.71046,-29.022947 a 16.056795,16.056795 0 1 1 -32.11359,0 16.056795,16.056795 0 1 1 32.11359,0 z"
             id="path95" />
          <path
             inkscape:connector-curvature="0"
             style="fill:#3f3f3f;fill-rule:evenodd;stroke-width:1.99999988"
             d="M 127.72439,-22.973174 A 24.085188,17.103974 54.192151 1 1 99.982308,-2.959172 24.085188,17.103974 54.192151 1 1 127.72439,-22.973174 Z"
             id="path97" />
          <path
             inkscape:connector-curvature="0"
             style="fill:#2e3436;fill-rule:evenodd;stroke-width:1.99999988"
             d="m 155.13935,-26.644184 a 7.7310493,7.7310493 0 1 1 -15.46209,0 7.7310493,7.7310493 0 1 1 15.46209,0 z"
             id="path99" />
          <path
             inkscape:connector-curvature="0"
             style="fill:#ffffff;fill-rule:evenodd;stroke-width:1.99999988"
             d="m 112.80614,-21.69271 a 6.9812205,8.3774636 0 1 1 -13.962441,0 6.9812205,8.3774649 0 1 1 13.962441,0 z"
             id="path101" />
          <path
             inkscape:connector-curvature="0"
             style="fill:#ffffff;fill-rule:evenodd;stroke-width:1.99999988"
             d="m 195.66367,-27.277664 a 18.84928,18.84928 0 1 1 -37.69856,0 18.84928,18.84928 0 1 1 37.69856,0 z"
             id="path103" />
          <path
             inkscape:connector-curvature="0"
             style="fill:#2e3436;fill-rule:evenodd;stroke-width:1.99999988"
             d="m 190.29762,-24.485191 a 9.07558,9.07558 0 1 1 -18.15116,0 9.07558,9.07558 0 1 1 18.15116,0 z"
             id="path105" />
          <path
             inkscape:connector-curvature="0"
             style="fill:url(#linearGradient4330-1);fill-rule:evenodd;stroke-width:1.99999988"
             d="m 180.61117,11.817116 c 5.91338,0.565096 11.25367,-1.075015 13.47415,-1.8720916 0.38789,-2.1933147 2.11894,-6.4026216 8.08036,-6.6798961 l -2.09437,-3.66513503 c 0,0 -7.7666,5.32317063 -16.05679,6.89394503 z"
             id="path123" />
        </g>
        <g
           transform="translate(290.39,-1.9877037)"
           id="g1160">
          <path
             style="fill:#ffffff;fill-opacity:1;fill-rule:evenodd;stroke-width:1.99999988;opacity:0.3"
             d="m -52.960991,-79.206778 c -0.770376,-0.118933 -1.653531,0.7703 -2.351639,2.864663 -1.227043,3.681105 -8.919107,26.545496 -48.537,32.981688 a 18.84928,18.84928 0 0 0 -22.30566,1.544047 c -23.67589,-1.633398 -33.87542,-22.65767 -33.87542,-22.65767 l -0.62037,26.65197 a 16.056795,16.056795 0 0 0 -2.5214,8.602724 16.056795,16.056795 0 0 0 0.0275,0.513021 16.056795,16.056795 0 0 1 2.49394,-7.837569 l 0.62037,-26.65197 c 0,0 10.19954,21.024272 33.87542,22.65767 a 18.84928,18.84928 0 0 1 22.30566,-1.544047 c 39.617893,-6.436191 47.309944,-29.300583 48.537,-32.981688 0.698108,-2.094363 1.581263,-2.983596 2.351639,-2.864662 0.770383,0.118934 1.428138,1.246093 1.675114,3.18171 1.026912,9.321212 1.533773,17.886432 1.576496,25.750756 0.0083,-8.212961 -0.493504,-17.19867 -1.576496,-27.028932 -0.246969,-1.935617 -0.904731,-3.062776 -1.675114,-3.181711 z m -130.199219,44.004709 a 24.085188,17.103974 54.192151 0 0 -13.57063,16.067075 24.085188,17.103974 54.192151 0 1 33.68568,-2.756067 24.085188,17.103974 54.192151 0 1 0.63535,0.948643 c 0.17836,-0.274258 0.34078,-0.547322 0.49554,-0.818832 a 16.056795,16.056795 0 0 1 -0.29084,-0.796361 c -0.0686,0.112563 -0.13122,0.224026 -0.2047,0.337017 a 24.085188,17.103974 54.192151 0 0 -0.63535,-0.948643 24.085188,17.103974 54.192151 0 0 -20.11505,-12.032832 z"
             id="path1142"
             inkscape:connector-curvature="0" />
        </g>
        <g
           transform="translate(161.46412,-3.5551916)"
           id="g1188">
          <path
             style="fill:#020202;fill-opacity:1;fill-rule:evenodd;stroke-width:1.99999988;opacity:0.2"
             d="M 79.416123,-48.520414 C 79.311114,55.274209 -2.8301278,34.636969 -37.856538,8.7778234 -45.558706,10.811544 -55.306584,6.1198265 -61.661323,-2.6795749 c -3.575839,-4.9229876 -5.698993,-10.6288761 -5.942771,-15.9709581 -0.07373,5.676495 2.074168,11.9108516 5.942771,17.2491342 6.354739,8.7994012 16.102617,13.4911178 23.804785,11.4573978 C -2.6866014,36.021106 79.987928,56.72547 79.416123,-48.520414 Z"
             id="path1170"
             inkscape:connector-curvature="0"
             sodipodi:nodetypes="ccccccc" />
        </g>
      </g>
      <g
         id="g1189"
         transform="matrix(-0.26913037,-0.91356046,0.91356046,-0.26913037,5.6301415,50.58081)" />
    </g>
  </g>
</svg>
