<?xml version="1.0" encoding="UTF-8" standalone="no"?>
<svg
   xmlns:dc="http://purl.org/dc/elements/1.1/"
   xmlns:cc="http://creativecommons.org/ns#"
   xmlns:rdf="http://www.w3.org/1999/02/22-rdf-syntax-ns#"
   xmlns:svg="http://www.w3.org/2000/svg"
   xmlns="http://www.w3.org/2000/svg"
   xmlns:xlink="http://www.w3.org/1999/xlink"
   xmlns:sodipodi="http://sodipodi.sourceforge.net/DTD/sodipodi-0.dtd"
   xmlns:inkscape="http://www.inkscape.org/namespaces/inkscape"
   style="enable-background:new"
   width="256"
   height="256"
   version="1.0"
   viewBox="0 0 256 256"
   id="svg42"
   sodipodi:docname="gtkpod.svg"
   inkscape:version="0.92.3 (2405546, 2018-03-11)">
  <metadata
     id="metadata46">
    <rdf:RDF>
      <cc:Work
         rdf:about="">
        <dc:format>image/svg+xml</dc:format>
        <dc:type
           rdf:resource="http://purl.org/dc/dcmitype/StillImage" />
        <dc:title>
  Adwaita Icon Template
 </dc:title>
      </cc:Work>
    </rdf:RDF>
  </metadata>
  <sodipodi:namedview
     pagecolor="#ffffff"
     bordercolor="#666666"
     borderopacity="1"
     objecttolerance="10"
     gridtolerance="10"
     guidetolerance="10"
     inkscape:pageopacity="0"
     inkscape:pageshadow="2"
     inkscape:window-width="1920"
     inkscape:window-height="1009"
     id="namedview44"
     showgrid="false"
     inkscape:zoom="1.84375"
     inkscape:cx="-129.62712"
     inkscape:cy="64"
     inkscape:window-x="0"
     inkscape:window-y="34"
     inkscape:window-maximized="1"
     inkscape:current-layer="svg42" />
  <title
     id="title4162">
  Adwaita Icon Template
 </title>
  <defs
     id="defs24">
    <linearGradient
       id="linearGradient1494">
      <stop
         id="stop1490"
         offset="0"
         style="stop-color:#babdb6" />
      <stop
         id="stop1492"
         offset="1"
         style="stop-color:#babdb6;stop-opacity:0" />
    </linearGradient>
    <linearGradient
       id="linearGradient1496"
       x1="280"
       x2="280"
       y1="172"
       y2="20"
       gradientUnits="userSpaceOnUse"
       xlink:href="#linearGradient1494" />
    <linearGradient
       id="linearGradient1329"
       x1="11.823"
       x2="115.82"
       y1="268"
       y2="268"
       gradientUnits="userSpaceOnUse">
      <stop
         id="stop1345"
         offset="0"
         style="stop-color:#986a44" />
      <stop
         id="stop1347"
         offset=".029"
         style="stop-color:#cdab8f" />
      <stop
         id="stop1349"
         offset=".058"
         style="stop-color:#b5835a" />
      <stop
         id="stop1351"
         offset=".942"
         style="stop-color:#b5835a" />
      <stop
         id="stop1353"
         offset=".971"
         style="stop-color:#cdab8f" />
      <stop
         id="stop1355"
         offset="1"
         style="stop-color:#986a44" />
    </linearGradient>
    <linearGradient
       id="linearGradient1610"
       x1="70.585999"
       x2="60"
       y1="53.255001"
       y2="23"
       gradientTransform="translate(0,170)"
       gradientUnits="userSpaceOnUse">
      <stop
         id="stop1652"
         offset="0"
         style="stop-color:#fff" />
      <stop
         id="stop1654"
         offset="1"
         style="stop-color:#deddda" />
    </linearGradient>
    <linearGradient
       id="linearGradient1612"
       x1="60"
       x2="68"
       y1="268"
       y2="268"
       gradientUnits="userSpaceOnUse">
      <stop
         id="stop1258"
         offset="0"
         style="stop-color:#949390" />
      <stop
         id="stop1260"
         offset=".083"
         style="stop-color:#d5d3cf" />
      <stop
         id="stop1262"
         offset=".167"
         style="stop-color:#949390" />
      <stop
         id="stop1264"
         offset=".833"
         style="stop-color:#949390" />
      <stop
         id="stop1266"
         offset=".917"
         style="stop-color:#d5d3cf" />
      <stop
         id="stop1268"
         offset="1"
         style="stop-color:#949390" />
    </linearGradient>
    <linearGradient
       inkscape:collect="always"
       xlink:href="#linearGradient4360"
       id="linearGradient4358"
       x1="88"
       y1="88"
       x2="488"
       y2="488"
       gradientUnits="userSpaceOnUse" />
    <linearGradient
       id="linearGradient4360"
       inkscape:collect="always">
      <stop
         id="stop4362"
         offset="0"
         style="stop-color:#000000;stop-opacity:0.58823532" />
      <stop
         style="stop-color:#000000;stop-opacity:0"
         offset="0.88"
         id="stop4364" />
      <stop
         id="stop4366"
         offset="1"
         style="stop-color:#000000;stop-opacity:1" />
    </linearGradient>
    <filter
       inkscape:collect="always"
       style="color-interpolation-filters:sRGB"
       id="filter4380"
       x="-0.052999184"
       width="1.1059984"
       y="-0.043862626"
       height="1.0877253">
      <feGaussianBlur
         inkscape:collect="always"
         stdDeviation="8.4801079"
         id="feGaussianBlur4382" />
    </filter>
    <filter
       inkscape:collect="always"
       style="color-interpolation-filters:sRGB"
       id="filter4346"
       x="-0.013249796"
       width="1.0264996"
       y="-0.010965657"
       height="1.0219313">
      <feGaussianBlur
         inkscape:collect="always"
         stdDeviation="2.120027"
         id="feGaussianBlur4348" />
    </filter>
    <linearGradient
       inkscape:collect="always"
       id="linearGradient876">
      <stop
         style="stop-color:#b3b3b3;stop-opacity:1"
         offset="0"
         id="stop872" />
      <stop
         style="stop-color:#d9d9d9;stop-opacity:1"
         offset="1"
         id="stop874" />
    </linearGradient>
    <linearGradient
       inkscape:collect="always"
       xlink:href="#linearGradient876"
       id="linearGradient871"
       x1="78.255417"
       y1="15.174765"
       x2="187.67291"
       y2="237.27644"
       gradientUnits="userSpaceOnUse" />
  </defs>
  <path
     style="color:#000000;display:inline;overflow:visible;visibility:visible;opacity:0.1;fill:#000000;fill-opacity:1;fill-rule:nonzero;stroke:none;stroke-width:2;marker:none;filter:url(#filter4346);enable-background:accumulate"
     d="M 189.84323,74 C 119.24979,74 111.65402,81.250835 112,151.98706 V 298 444.01294 C 111.65402,514.74917 119.24979,522 189.84323,522 H 386.15677 C 456.75021,522 462.16345,514.72616 464,444.01294 V 298 151.98706 C 464,81.249993 456.75021,74 386.15677,74 Z"
     id="rect4158-9"
     inkscape:connector-curvature="0"
     sodipodi:nodetypes="scccssscsss"
     transform="matrix(0.5,0,0,0.5,-16.666462,-20.825235)" />
  <path
     sodipodi:nodetypes="scccssscsss"
     inkscape:connector-curvature="0"
     id="path4350"
     d="M 189.84323,74 C 119.24979,74 111.65402,81.250835 112,151.98706 V 298 444.01294 C 111.65402,514.74917 119.24979,522 189.84323,522 H 386.15677 C 456.75021,522 464,514.75001 464,444.01294 V 298 151.98706 C 464,81.249993 456.75021,74 386.15677,74 Z"
     style="color:#000000;display:inline;overflow:visible;visibility:visible;opacity:0.3;fill:url(#linearGradient4358);fill-opacity:1;fill-rule:nonzero;stroke:none;stroke-width:2;marker:none;filter:url(#filter4380);enable-background:accumulate"
     transform="matrix(0.5,0,0,0.5,-16.666462,-20.825235)" />
  <path
     style="color:#000000;display:inline;overflow:visible;visibility:visible;opacity:0.1;fill:#000000;fill-opacity:1;fill-rule:nonzero;stroke:none;stroke-width:1.02028775;marker:none;enable-background:accumulate"
     d="m 77.145138,13.174765 c -36.098811,0 -39.983003,3.690158 -39.806081,39.689842 v 74.310153 74.31016 c -0.176922,35.99969 3.70727,39.68984 39.806081,39.68984 H 177.53246 c 36.09881,0 39.80608,-3.68973 39.80608,-39.68984 V 127.17476 52.864607 c 0,-36.000113 -3.70727,-39.689842 -39.80608,-39.689842 z"
     id="rect4158-7"
     inkscape:connector-curvature="0"
     sodipodi:nodetypes="scccssscsss" />
  <path
     style="color:#000000;display:inline;overflow:visible;visibility:visible;fill:url(#linearGradient871);fill-opacity:1;fill-rule:nonzero;stroke:none;stroke-width:1;marker:none;enable-background:accumulate"
     d="m 176.40692,15.174765 c 35.29673,0 39.09461,3.625418 38.92162,38.99353 v 73.006465 73.00647 c 0.17299,35.36812 -3.62489,38.99353 -38.92162,38.99353 H 78.250158 c -35.29672,0 -38.92162,-3.625 -38.92162,-38.99353 V 127.17476 54.168295 c 0,-35.368533 3.6249,-38.99353 38.92162,-38.99353 z"
     id="rect4158"
     inkscape:connector-curvature="0"
     sodipodi:nodetypes="scccssscsss" />
  <path
     style="color:#000000;display:inline;overflow:visible;visibility:visible;opacity:0.3;fill:#ffffff;fill-opacity:1;fill-rule:nonzero;stroke:none;stroke-width:1;marker:none;enable-background:accumulate"
     d="m 78.255418,15.174765 c -35.296728,0 -39.09487,3.626029 -38.92188,38.994141 v 2 C 39.160548,20.800794 42.95869,17.174765 78.255418,17.174765 h 98.156242 c 35.29673,0 38.92188,3.625608 38.92188,38.994141 v -2 c 0,-35.368533 -3.62515,-38.994141 -38.92188,-38.994141 z"
     id="path931"
     inkscape:connector-curvature="0" />
  <path
     style="color:#000000;display:inline;overflow:visible;visibility:visible;opacity:0.2;fill:#000000;fill-opacity:1;fill-rule:nonzero;stroke:none;stroke-width:1;marker:none;enable-background:accumulate"
     d="m 78.260818,239.17476 c -35.296731,0 -39.094875,-3.62603 -38.921885,-38.99414 v -2 c -0.17299,35.36811 3.625154,38.99414 38.921885,38.99414 h 98.156242 c 35.29673,0 38.92188,-3.62561 38.92188,-38.99414 v 2 c 0,35.36853 -3.62515,38.99414 -38.92188,38.99414 z"
     id="path931-8"
     inkscape:connector-curvature="0" />
  <rect
     style="fill:#333333;stroke-width:2.0363636"
     width="157.19302"
     height="94.316223"
     x="48.734726"
     y="27.606129"
     rx="0"
     ry="0"
     id="rect1020" />
  <g
     id="g1604"
     transform="translate(1.4289999)">
    <path
       style="fill:#ffffff;stroke-width:2.0363636;fill-opacity:1"
       d="M 127.33203 132.41211 A 47.158112 47.158112 0 0 0 80.173828 179.57031 A 47.158112 47.158112 0 0 0 127.33203 226.72852 A 47.158112 47.158112 0 0 0 174.49023 179.57031 A 47.158112 47.158112 0 0 0 127.33203 132.41211 z M 127.33203 155.79688 A 23.579056 23.579056 0 0 1 150.91016 179.375 A 23.579056 23.579056 0 0 1 127.33203 202.95508 A 23.579056 23.579056 0 0 1 103.75195 179.375 A 23.579056 23.579056 0 0 1 127.33203 155.79688 z "
       transform="translate(-1.4289999)"
       id="circle1022" />
  </g>
</svg>
