<?xml version="1.0" encoding="UTF-8" standalone="no"?>
<svg
   xmlns:dc="http://purl.org/dc/elements/1.1/"
   xmlns:cc="http://creativecommons.org/ns#"
   xmlns:rdf="http://www.w3.org/1999/02/22-rdf-syntax-ns#"
   xmlns:svg="http://www.w3.org/2000/svg"
   xmlns="http://www.w3.org/2000/svg"
   xmlns:xlink="http://www.w3.org/1999/xlink"
   xmlns:sodipodi="http://sodipodi.sourceforge.net/DTD/sodipodi-0.dtd"
   xmlns:inkscape="http://www.inkscape.org/namespaces/inkscape"
   style="enable-background:new"
   width="256"
   height="256"
   version="1.0"
   viewBox="0 0 256 256"
   id="svg35"
   sodipodi:docname="org.gnome.SoundRecorder.svg"
   inkscape:version="0.92.3 (2405546, 2018-03-11)">
  <metadata
     id="metadata39">
    <rdf:RDF>
      <cc:Work
         rdf:about="">
        <dc:format>image/svg+xml</dc:format>
        <dc:type
           rdf:resource="http://purl.org/dc/dcmitype/StillImage" />
        <dc:title>
  Adwaita Icon Template
 </dc:title>
      </cc:Work>
    </rdf:RDF>
  </metadata>
  <sodipodi:namedview
     pagecolor="#ffffff"
     bordercolor="#666666"
     borderopacity="1"
     objecttolerance="10"
     gridtolerance="10"
     guidetolerance="10"
     inkscape:pageopacity="0"
     inkscape:pageshadow="2"
     inkscape:window-width="1920"
     inkscape:window-height="1009"
     id="namedview37"
     showgrid="false"
     inkscape:zoom="1.84375"
     inkscape:cx="-38.508476"
     inkscape:cy="64"
     inkscape:window-x="0"
     inkscape:window-y="34"
     inkscape:window-maximized="1"
     inkscape:current-layer="svg35" />
  <title
     id="title4162">
  Adwaita Icon Template
 </title>
  <defs
     id="defs16">
    <linearGradient
       id="linearGradient1093">
      <stop
         id="stop1089"
         offset="0"
         style="stop-color:#f6d32d" />
      <stop
         id="stop1091"
         offset="1"
         style="stop-color:#f9f06b" />
    </linearGradient>
    <linearGradient
       id="linearGradient2619">
      <stop
         style="stop-color:#c4a000"
         id="stop2615"
         offset="0" />
      <stop
         style="stop-color:#edd400;stop-opacity:0"
         id="stop2617"
         offset="1" />
    </linearGradient>
    <linearGradient
       id="linearGradient1171">
      <stop
         id="stop1165"
         offset="0"
         style="stop-color:#40494c" />
      <stop
         style="stop-color:#232829"
         id="stop1167"
         offset=".572" />
      <stop
         id="stop1169"
         offset="1"
         style="stop-color:#000000" />
    </linearGradient>
    <radialGradient
       id="radialGradient1073"
       cx="280"
       cy="16.275"
       r="160"
       fx="280"
       fy="16.275"
       gradientTransform="matrix(1,0,0,1.1758925,0,-118.6378)"
       gradientUnits="userSpaceOnUse"
       xlink:href="#linearGradient2619" />
    <radialGradient
       id="radialGradient1075"
       cx="265.28201"
       cy="65.435997"
       r="56"
       fx="265.28201"
       fy="65.435997"
       gradientTransform="matrix(1.3372396,0.35831226,-0.35833822,1.3373363,-60.03431,-112.79804)"
       gradientUnits="userSpaceOnUse"
       xlink:href="#linearGradient1171" />
    <linearGradient
       id="linearGradient1095"
       x1="99.846001"
       x2="431.13901"
       y1="91.301003"
       y2="91.301003"
       gradientTransform="translate(-246.01698,-371.37682)"
       gradientUnits="userSpaceOnUse"
       xlink:href="#linearGradient1093" />
    <linearGradient
       gradientTransform="translate(-243.94652,117.61545)"
       inkscape:collect="always"
       xlink:href="#linearGradient4338"
       id="linearGradient1159"
       x1="196"
       y1="160"
       x2="132"
       y2="160"
       gradientUnits="userSpaceOnUse" />
    <linearGradient
       inkscape:collect="always"
       id="linearGradient4338">
      <stop
         style="stop-color:#ef5145;stop-opacity:0"
         offset="0"
         id="stop4340" />
      <stop
         id="stop4346"
         offset="1"
         style="stop-color:#ef5145;stop-opacity:1" />
    </linearGradient>
    <linearGradient
       inkscape:collect="always"
       xlink:href="#linearGradient4319"
       id="linearGradient12825"
       gradientUnits="userSpaceOnUse"
       x1="256"
       y1="232"
       x2="256"
       y2="400" />
    <linearGradient
       inkscape:collect="always"
       id="linearGradient4319">
      <stop
         style="stop-color:#fed965;stop-opacity:1"
         offset="0"
         id="stop4322" />
      <stop
         style="stop-color:#fed965;stop-opacity:0"
         offset="1"
         id="stop4324" />
    </linearGradient>
    <linearGradient
       inkscape:collect="always"
       xlink:href="#linearGradient4319"
       id="linearGradient12827"
       gradientUnits="userSpaceOnUse"
       gradientTransform="translate(-40)"
       x1="256"
       y1="232"
       x2="256"
       y2="472" />
    <linearGradient
       inkscape:collect="always"
       xlink:href="#linearGradient4319"
       id="linearGradient12829"
       gradientUnits="userSpaceOnUse"
       gradientTransform="translate(-80)"
       x1="256"
       y1="200"
       x2="256"
       y2="400" />
    <linearGradient
       inkscape:collect="always"
       xlink:href="#linearGradient4319"
       id="linearGradient12831"
       gradientUnits="userSpaceOnUse"
       gradientTransform="translate(-120)"
       x1="256"
       y1="152"
       x2="256"
       y2="368" />
    <linearGradient
       inkscape:collect="always"
       xlink:href="#linearGradient4319"
       id="linearGradient12833"
       gradientUnits="userSpaceOnUse"
       gradientTransform="translate(-160)"
       x1="256"
       y1="112"
       x2="256"
       y2="408" />
    <linearGradient
       inkscape:collect="always"
       xlink:href="#linearGradient4319"
       id="linearGradient12835"
       gradientUnits="userSpaceOnUse"
       gradientTransform="translate(-200)"
       x1="256"
       y1="160"
       x2="256"
       y2="312" />
    <linearGradient
       inkscape:collect="always"
       xlink:href="#linearGradient4319"
       id="linearGradient12837"
       gradientUnits="userSpaceOnUse"
       gradientTransform="translate(40)"
       x1="256"
       y1="160"
       x2="256"
       y2="544" />
    <linearGradient
       inkscape:collect="always"
       xlink:href="#linearGradient4319"
       id="linearGradient12839"
       gradientUnits="userSpaceOnUse"
       gradientTransform="translate(80)"
       x1="256"
       y1="208"
       x2="256"
       y2="456" />
    <linearGradient
       inkscape:collect="always"
       xlink:href="#linearGradient4319"
       id="linearGradient12841"
       gradientUnits="userSpaceOnUse"
       gradientTransform="translate(120)"
       x1="256"
       y1="176"
       x2="256"
       y2="368" />
    <linearGradient
       inkscape:collect="always"
       xlink:href="#linearGradient4319"
       id="linearGradient12843"
       gradientUnits="userSpaceOnUse"
       gradientTransform="translate(160)"
       x1="256"
       y1="185.89844"
       x2="256"
       y2="376" />
    <linearGradient
       inkscape:collect="always"
       xlink:href="#linearGradient4319"
       id="linearGradient12845"
       gradientUnits="userSpaceOnUse"
       gradientTransform="translate(200)"
       x1="256"
       y1="128"
       x2="256"
       y2="352" />
    <linearGradient
       inkscape:collect="always"
       xlink:href="#linearGradient4287"
       id="linearGradient12803"
       gradientUnits="userSpaceOnUse"
       x1="288"
       y1="296"
       x2="288"
       y2="72" />
    <linearGradient
       id="linearGradient4287"
       inkscape:collect="always">
      <stop
         id="stop4424"
         offset="0"
         style="stop-color:#ff9169;stop-opacity:1" />
      <stop
         id="stop4426"
         offset="1"
         style="stop-color:#f09778;stop-opacity:0" />
    </linearGradient>
    <linearGradient
       inkscape:collect="always"
       xlink:href="#linearGradient4287"
       id="linearGradient12805"
       gradientUnits="userSpaceOnUse"
       x1="216"
       y1="326.10156"
       x2="218"
       y2="-32" />
    <linearGradient
       inkscape:collect="always"
       xlink:href="#linearGradient4287"
       id="linearGradient12807"
       gradientUnits="userSpaceOnUse"
       x1="177.60001"
       y1="264"
       x2="176"
       y2="136" />
    <linearGradient
       inkscape:collect="always"
       xlink:href="#linearGradient4287"
       id="linearGradient12809"
       gradientUnits="userSpaceOnUse"
       x1="136"
       y1="312"
       x2="136"
       y2="80" />
    <linearGradient
       inkscape:collect="always"
       xlink:href="#linearGradient4287"
       id="linearGradient12811"
       gradientUnits="userSpaceOnUse"
       x1="96.800003"
       y1="352"
       x2="96.800003"
       y2="162.39999" />
    <linearGradient
       inkscape:collect="always"
       xlink:href="#linearGradient4287"
       id="linearGradient12813"
       gradientUnits="userSpaceOnUse"
       x1="56"
       y1="360"
       x2="56"
       y2="184" />
    <linearGradient
       inkscape:collect="always"
       xlink:href="#linearGradient4287"
       id="linearGradient12815"
       gradientUnits="userSpaceOnUse"
       x1="296"
       y1="280"
       x2="296"
       y2="72" />
    <linearGradient
       inkscape:collect="always"
       xlink:href="#linearGradient4287"
       id="linearGradient12817"
       gradientUnits="userSpaceOnUse"
       x1="336"
       y1="288"
       x2="336"
       y2="152" />
    <linearGradient
       inkscape:collect="always"
       xlink:href="#linearGradient4287"
       id="linearGradient12819"
       gradientUnits="userSpaceOnUse"
       x1="376"
       y1="304"
       x2="376"
       y2="96" />
    <linearGradient
       inkscape:collect="always"
       xlink:href="#linearGradient4287"
       id="linearGradient12821"
       gradientUnits="userSpaceOnUse"
       x1="416"
       y1="336"
       x2="416"
       y2="128" />
    <linearGradient
       inkscape:collect="always"
       xlink:href="#linearGradient4287"
       id="linearGradient12823"
       gradientUnits="userSpaceOnUse"
       x1="456"
       y1="368"
       x2="456"
       y2="192" />
    <linearGradient
       inkscape:collect="always"
       xlink:href="#linearGradient4290"
       id="linearGradient1694"
       x1="39.997295"
       y1="268.00238"
       x2="263.99731"
       y2="43.997013"
       gradientUnits="userSpaceOnUse"
       gradientTransform="rotate(90,155.35168,130.52883)" />
    <linearGradient
       inkscape:collect="always"
       id="linearGradient4290">
      <stop
         style="stop-color:#e72662;stop-opacity:1"
         offset="0"
         id="stop4292" />
      <stop
         id="stop4272"
         offset="0.48271722"
         style="stop-color:#ec3c50;stop-opacity:1" />
      <stop
         style="stop-color:#ff7b66;stop-opacity:1"
         offset="1"
         id="stop4294" />
    </linearGradient>
    <linearGradient
       inkscape:collect="always"
       xlink:href="#linearGradient4360"
       id="linearGradient4358"
       x1="88"
       y1="88"
       x2="488"
       y2="488"
       gradientUnits="userSpaceOnUse" />
    <linearGradient
       id="linearGradient4360"
       inkscape:collect="always">
      <stop
         id="stop4362"
         offset="0"
         style="stop-color:#000000;stop-opacity:0.58823532" />
      <stop
         id="stop4366"
         offset="1"
         style="stop-color:#000000;stop-opacity:0.20555556" />
    </linearGradient>
    <filter
       inkscape:collect="always"
       style="color-interpolation-filters:sRGB"
       id="filter4380"
       x="-0.052999184"
       width="1.1059984"
       y="-0.043862626"
       height="1.0877253">
      <feGaussianBlur
         inkscape:collect="always"
         stdDeviation="8.4801079"
         id="feGaussianBlur4382" />
    </filter>
    <filter
       inkscape:collect="always"
       style="color-interpolation-filters:sRGB"
       id="filter4346"
       x="-0.013249796"
       width="1.0264996"
       y="-0.010965657"
       height="1.0219313">
      <feGaussianBlur
         inkscape:collect="always"
         stdDeviation="2.120027"
         id="feGaussianBlur4348" />
    </filter>
    <linearGradient
       inkscape:collect="always"
       xlink:href="#linearGradient4338"
       id="linearGradient945"
       gradientUnits="userSpaceOnUse"
       x1="-26.026052"
       y1="190.06654"
       x2="-145.19769"
       y2="119.01569"
       gradientTransform="translate(-167.62591,8.4589795)" />
    <filter
       inkscape:collect="always"
       style="color-interpolation-filters:sRGB"
       id="filter991"
       x="-0.018675791"
       width="1.0373516"
       y="-0.011195272"
       height="1.0223905">
      <feGaussianBlur
         inkscape:collect="always"
         stdDeviation="0.69037513"
         id="feGaussianBlur993" />
    </filter>
  </defs>
  <path
     style="color:#000000;display:inline;overflow:visible;visibility:visible;opacity:0.1;fill:#000000;fill-opacity:1;fill-rule:nonzero;stroke:none;stroke-width:2;marker:none;filter:url(#filter4346);enable-background:accumulate"
     d="M 141.84323,74 C 71.24979,74 63.65402,81.250835 64,151.98706 V 298 444.01294 C 63.65402,514.74917 71.24979,522 141.84323,522 H 434.15677 C 504.75021,522 513.9371,514.72348 512,444.01294 V 298 151.98706 C 512,81.249993 504.75021,74 434.15677,74 Z"
     id="rect4158-9"
     inkscape:connector-curvature="0"
     sodipodi:nodetypes="scccssscsss"
     transform="matrix(0.5,0,0,0.5,-14.116488,-20.825537)" />
  <path
     sodipodi:nodetypes="scccssscsss"
     inkscape:connector-curvature="0"
     id="path4350"
     d="M 141.84323,74 C 71.24979,74 63.65402,81.250835 64,151.98706 V 298 444.01294 C 63.65402,514.74917 71.24979,522 141.84323,522 H 434.15677 C 504.75021,522 513.9371,514.72348 512,444.01294 V 298 151.98706 C 512,81.249993 504.75021,74 434.15677,74 Z"
     style="color:#000000;display:inline;overflow:visible;visibility:visible;opacity:0.3;fill:url(#linearGradient4358);fill-opacity:1;fill-rule:nonzero;stroke:none;stroke-width:2;marker:none;filter:url(#filter4380);enable-background:accumulate"
     transform="matrix(0.5,0,0,0.5,-14.116488,-20.825235)" />
  <path
     style="color:#000000;display:inline;overflow:visible;visibility:visible;opacity:0.1;fill:#000000;fill-opacity:1;fill-rule:nonzero;stroke:none;stroke-width:1.02028775;marker:none;enable-background:accumulate"
     d="m 55.695112,13.174463 c -36.098811,0 -39.983003,3.69016 -39.806081,39.68984 v 74.310167 74.31016 c -0.176922,35.99969 3.70727,39.68984 39.806081,39.68984 H 204.08243 c 36.09881,0 40.77464,-3.70276 39.80608,-39.68984 V 127.17447 52.864303 c 0,-36.00011 -3.70727,-39.68984 -39.80608,-39.68984 z"
     id="rect4158-7"
     inkscape:connector-curvature="0"
     sodipodi:nodetypes="scccssscsss" />
  <path
     style="color:#000000;display:inline;overflow:visible;visibility:visible;fill:url(#linearGradient1694);fill-opacity:1;fill-rule:nonzero;stroke:none;stroke-width:1;marker:none;enable-background:accumulate"
     d="m 202.95648,15.174459 c 35.29673,0 39.09461,3.62542 38.92162,38.99353 v 73.006471 73.00648 c 0.17299,35.36812 -3.62489,38.99353 -38.92162,38.99353 H 56.79973 c -35.29671,0 -38.92161,-3.625 -38.92161,-38.99353 V 127.17446 54.167989 c 0,-35.36853 3.6249,-38.99353 38.92161,-38.99353 z"
     id="rect4158"
     inkscape:connector-curvature="0"
     sodipodi:nodetypes="scccssscsss" />
  <path
     style="color:#000000;display:inline;overflow:visible;visibility:visible;opacity:0.1;fill:#ffffff;fill-opacity:1;fill-rule:nonzero;stroke:none;stroke-width:1;marker:none;enable-background:accumulate"
     d="m 17.877653,127.17477 v 8 65.00586 c 0,35.36853 3.625165,38.99414 38.921875,38.99414 H 202.95578 c 35.29673,0 39.09486,-3.62602 38.92187,-38.99414 v -65.00586 -8 z"
     id="rect4158-5"
     inkscape:connector-curvature="0"
     sodipodi:nodetypes="ccssscccc" />
  <g
     id="g4370"
     style="display:inline;opacity:0.5;stroke-width:4;enable-background:new"
     transform="matrix(0.5,0,0,0.5,1.8835124,-0.82523489)">
    <path
       id="rect4273"
       transform="translate(-32,-32)"
       d="m 272,72 v 16 h 32 V 72 Z m 0,24 v 16 h 32 V 96 Z m 0,24 v 16 h 32 v -16 z m 0,24 v 16 h 32 v -16 z m 0,24 v 16 h 32 v -16 z m 0,24 v 16 h 32 v -16 z m 0,24 v 16 h 32 v -16 z m 0,24 v 16 h 32 v -16 z m 0,24 v 16 h 32 v -16 z"
       style="color:#000000;display:inline;overflow:visible;visibility:visible;opacity:1;fill:url(#linearGradient12803);fill-opacity:1;fill-rule:nonzero;stroke:none;stroke-width:128;stroke-linecap:butt;stroke-linejoin:miter;stroke-miterlimit:4;stroke-dasharray:none;stroke-dashoffset:0;stroke-opacity:1;marker:none;enable-background:accumulate"
       inkscape:connector-curvature="0" />
    <path
       inkscape:connector-curvature="0"
       style="color:#000000;display:inline;overflow:visible;visibility:visible;opacity:1;fill:url(#linearGradient12805);fill-opacity:1;fill-rule:nonzero;stroke:none;stroke-width:128;stroke-linecap:butt;stroke-linejoin:miter;stroke-miterlimit:4;stroke-dasharray:none;stroke-dashoffset:0;stroke-opacity:1;marker:none;enable-background:accumulate"
       d="m 200,40 v 16 h 32 V 40 Z m 0,24 v 16 h 32 V 64 Z m 0,24 v 16 h 32 V 88 Z m 0,24 v 16 h 32 v -16 z m 0,24 v 16 h 32 v -16 z m 0,24 v 16 h 32 v -16 z m 0,24 v 16 h 32 v -16 z m 0,24 v 16 h 32 v -16 z m 0,24 v 16 h 32 v -16 z"
       id="path4292" />
    <path
       id="path4294"
       d="m 160,40 v 16 h 32 V 40 Z m 0,24 v 16 h 32 V 64 Z m 0,24 v 16 h 32 V 88 Z m 0,24 v 16 h 32 v -16 z m 0,24 v 16 h 32 v -16 z m 0,24 v 16 h 32 v -16 z m 0,24 v 16 h 32 v -16 z m 0,24 v 16 h 32 v -16 z m 0,24 v 16 h 32 v -16 z"
       style="color:#000000;display:inline;overflow:visible;visibility:visible;opacity:1;fill:url(#linearGradient12807);fill-opacity:1;fill-rule:nonzero;stroke:none;stroke-width:128;stroke-linecap:butt;stroke-linejoin:miter;stroke-miterlimit:4;stroke-dasharray:none;stroke-dashoffset:0;stroke-opacity:1;marker:none;enable-background:accumulate"
       inkscape:connector-curvature="0" />
    <path
       inkscape:connector-curvature="0"
       style="color:#000000;display:inline;overflow:visible;visibility:visible;opacity:1;fill:url(#linearGradient12809);fill-opacity:1;fill-rule:nonzero;stroke:none;stroke-width:128;stroke-linecap:butt;stroke-linejoin:miter;stroke-miterlimit:4;stroke-dasharray:none;stroke-dashoffset:0;stroke-opacity:1;marker:none;enable-background:accumulate"
       d="m 120,40 v 16 h 32 V 40 Z m 0,24 v 16 h 32 V 64 Z m 0,24 v 16 h 32 V 88 Z m 0,24 v 16 h 32 v -16 z m 0,24 v 16 h 32 v -16 z m 0,24 v 16 h 32 v -16 z m 0,24 v 16 h 32 v -16 z m 0,24 v 16 h 32 v -16 z m 0,24 v 16 h 32 v -16 z"
       id="path4296" />
    <path
       id="path4298"
       d="m 80,40 v 16 h 32 V 40 Z m 0,24 v 16 h 32 V 64 Z m 0,24 v 16 h 32 V 88 Z m 0,24 v 16 h 32 v -16 z m 0,24 v 16 h 32 v -16 z m 0,24 v 16 h 32 v -16 z m 0,24 v 16 h 32 v -16 z m 0,24 v 16 h 32 v -16 z m 0,24 v 16 h 32 v -16 z"
       style="color:#000000;display:inline;overflow:visible;visibility:visible;opacity:1;fill:url(#linearGradient12811);fill-opacity:1;fill-rule:nonzero;stroke:none;stroke-width:128;stroke-linecap:butt;stroke-linejoin:miter;stroke-miterlimit:4;stroke-dasharray:none;stroke-dashoffset:0;stroke-opacity:1;marker:none;enable-background:accumulate"
       inkscape:connector-curvature="0" />
    <path
       inkscape:connector-curvature="0"
       style="color:#000000;display:inline;overflow:visible;visibility:visible;opacity:1;fill:url(#linearGradient12813);fill-opacity:1;fill-rule:nonzero;stroke:none;stroke-width:128;stroke-linecap:butt;stroke-linejoin:miter;stroke-miterlimit:4;stroke-dasharray:none;stroke-dashoffset:0;stroke-opacity:1;marker:none;enable-background:accumulate"
       d="M 40,40 V 56 H 72 V 40 Z m 0,24 V 80 H 72 V 64 Z m 0,24 v 16 H 72 V 88 Z m 0,24 v 16 h 32 v -16 z m 0,24 v 16 h 32 v -16 z m 0,24 v 16 h 32 v -16 z m 0,24 v 16 h 32 v -16 z m 0,24 v 16 h 32 v -16 z m 0,24 v 16 h 32 v -16 z"
       id="path4301" />
    <path
       inkscape:connector-curvature="0"
       style="color:#000000;display:inline;overflow:visible;visibility:visible;opacity:1;fill:url(#linearGradient12815);fill-opacity:1;fill-rule:nonzero;stroke:none;stroke-width:128;stroke-linecap:butt;stroke-linejoin:miter;stroke-miterlimit:4;stroke-dasharray:none;stroke-dashoffset:0;stroke-opacity:1;marker:none;enable-background:accumulate"
       d="m 280,40 v 16 h 32 V 40 Z m 0,24 v 16 h 32 V 64 Z m 0,24 v 16 h 32 V 88 Z m 0,24 v 16 h 32 v -16 z m 0,24 v 16 h 32 v -16 z m 0,24 v 16 h 32 v -16 z m 0,24 v 16 h 32 v -16 z m 0,24 v 16 h 32 v -16 z m 0,24 v 16 h 32 v -16 z"
       id="path4303" />
    <path
       id="path4305"
       d="m 320,40 v 16 h 32 V 40 Z m 0,24 v 16 h 32 V 64 Z m 0,24 v 16 h 32 V 88 Z m 0,24 v 16 h 32 v -16 z m 0,24 v 16 h 32 v -16 z m 0,24 v 16 h 32 v -16 z m 0,24 v 16 h 32 v -16 z m 0,24 v 16 h 32 v -16 z m 0,24 v 16 h 32 v -16 z"
       style="color:#000000;display:inline;overflow:visible;visibility:visible;opacity:1;fill:url(#linearGradient12817);fill-opacity:1;fill-rule:nonzero;stroke:none;stroke-width:128;stroke-linecap:butt;stroke-linejoin:miter;stroke-miterlimit:4;stroke-dasharray:none;stroke-dashoffset:0;stroke-opacity:1;marker:none;enable-background:accumulate"
       inkscape:connector-curvature="0" />
    <path
       inkscape:connector-curvature="0"
       style="color:#000000;display:inline;overflow:visible;visibility:visible;opacity:1;fill:url(#linearGradient12819);fill-opacity:1;fill-rule:nonzero;stroke:none;stroke-width:128;stroke-linecap:butt;stroke-linejoin:miter;stroke-miterlimit:4;stroke-dasharray:none;stroke-dashoffset:0;stroke-opacity:1;marker:none;enable-background:accumulate"
       d="m 360,40 v 16 h 32 V 40 Z m 0,24 v 16 h 32 V 64 Z m 0,24 v 16 h 32 V 88 Z m 0,24 v 16 h 32 v -16 z m 0,24 v 16 h 32 v -16 z m 0,24 v 16 h 32 v -16 z m 0,24 v 16 h 32 v -16 z m 0,24 v 16 h 32 v -16 z m 0,24 v 16 h 32 v -16 z"
       id="path4307" />
    <path
       id="path4309"
       d="m 400,40 v 16 h 32 V 40 Z m 0,24 v 16 h 32 V 64 Z m 0,24 v 16 h 32 V 88 Z m 0,24 v 16 h 32 v -16 z m 0,24 v 16 h 32 v -16 z m 0,24 v 16 h 32 v -16 z m 0,24 v 16 h 32 v -16 z m 0,24 v 16 h 32 v -16 z m 0,24 v 16 h 32 v -16 z"
       style="color:#000000;display:inline;overflow:visible;visibility:visible;opacity:1;fill:url(#linearGradient12821);fill-opacity:1;fill-rule:nonzero;stroke:none;stroke-width:128;stroke-linecap:butt;stroke-linejoin:miter;stroke-miterlimit:4;stroke-dasharray:none;stroke-dashoffset:0;stroke-opacity:1;marker:none;enable-background:accumulate"
       inkscape:connector-curvature="0" />
    <path
       inkscape:connector-curvature="0"
       style="color:#000000;display:inline;overflow:visible;visibility:visible;opacity:1;fill:url(#linearGradient12823);fill-opacity:1;fill-rule:nonzero;stroke:none;stroke-width:128;stroke-linecap:butt;stroke-linejoin:miter;stroke-miterlimit:4;stroke-dasharray:none;stroke-dashoffset:0;stroke-opacity:1;marker:none;enable-background:accumulate"
       d="m 440,40 v 16 h 32 V 40 Z m 0,24 v 16 h 32 V 64 Z m 0,24 v 16 h 32 V 88 Z m 0,24 v 16 h 32 v -16 z m 0,24 v 16 h 32 v -16 z m 0,24 v 16 h 32 v -16 z m 0,24 v 16 h 32 v -16 z m 0,24 v 16 h 32 v -16 z m 0,24 v 16 h 32 v -16 z"
       id="path4311" />
  </g>
  <g
     id="g4433"
     style="display:inline;opacity:0.5;stroke-width:4;enable-background:new"
     transform="matrix(0.5,0,0,0.5,1.8835124,-0.82523489)">
    <path
       inkscape:connector-curvature="0"
       style="color:#000000;display:inline;overflow:visible;visibility:visible;opacity:0.46700003;fill:url(#linearGradient12825);fill-opacity:1;fill-rule:nonzero;stroke:none;stroke-width:128;stroke-linecap:butt;stroke-linejoin:miter;stroke-miterlimit:4;stroke-dasharray:none;stroke-dashoffset:0;stroke-opacity:1;marker:none;enable-background:accumulate"
       d="m 240,264 v 16 h 32 v -16 z m 0,24 v 16 h 32 v -16 z m 0,24 v 16 h 32 v -16 z m 0,24 v 16 h 32 v -16 z m 0,24 v 16 h 32 v -16 z m 0,24 v 16 h 32 v -16 z m 0,24 v 16 h 32 v -16 z m 0,24 v 16 h 32 v -16 z m 0,24 v 16 h 32 v -16 z"
       id="path4313" />
    <path
       id="path4392"
       d="m 200,264 v 16 h 32 v -16 z m 0,24 v 16 h 32 v -16 z m 0,24 v 16 h 32 v -16 z m 0,24 v 16 h 32 v -16 z m 0,24 v 16 h 32 v -16 z m 0,24 v 16 h 32 v -16 z m 0,24 v 16 h 32 v -16 z m 0,24 v 16 h 32 v -16 z m 0,24 v 16 h 32 v -16 z"
       style="color:#000000;display:inline;overflow:visible;visibility:visible;opacity:0.46700003;fill:url(#linearGradient12827);fill-opacity:1;fill-rule:nonzero;stroke:none;stroke-width:128;stroke-linecap:butt;stroke-linejoin:miter;stroke-miterlimit:4;stroke-dasharray:none;stroke-dashoffset:0;stroke-opacity:1;marker:none;enable-background:accumulate"
       inkscape:connector-curvature="0" />
    <path
       inkscape:connector-curvature="0"
       style="color:#000000;display:inline;overflow:visible;visibility:visible;opacity:0.46700003;fill:url(#linearGradient12829);fill-opacity:1;fill-rule:nonzero;stroke:none;stroke-width:128;stroke-linecap:butt;stroke-linejoin:miter;stroke-miterlimit:4;stroke-dasharray:none;stroke-dashoffset:0;stroke-opacity:1;marker:none;enable-background:accumulate"
       d="m 160,264 v 16 h 32 v -16 z m 0,24 v 16 h 32 v -16 z m 0,24 v 16 h 32 v -16 z m 0,24 v 16 h 32 v -16 z m 0,24 v 16 h 32 v -16 z m 0,24 v 16 h 32 v -16 z m 0,24 v 16 h 32 v -16 z m 0,24 v 16 h 32 v -16 z m 0,24 v 16 h 32 v -16 z"
       id="path4396" />
    <path
       id="path4400"
       d="m 120,264 v 16 h 32 v -16 z m 0,24 v 16 h 32 v -16 z m 0,24 v 16 h 32 v -16 z m 0,24 v 16 h 32 v -16 z m 0,24 v 16 h 32 v -16 z m 0,24 v 16 h 32 v -16 z m 0,24 v 16 h 32 v -16 z m 0,24 v 16 h 32 v -16 z m 0,24 v 16 h 32 v -16 z"
       style="color:#000000;display:inline;overflow:visible;visibility:visible;opacity:0.46700003;fill:url(#linearGradient12831);fill-opacity:1;fill-rule:nonzero;stroke:none;stroke-width:128;stroke-linecap:butt;stroke-linejoin:miter;stroke-miterlimit:4;stroke-dasharray:none;stroke-dashoffset:0;stroke-opacity:1;marker:none;enable-background:accumulate"
       inkscape:connector-curvature="0" />
    <path
       inkscape:connector-curvature="0"
       style="color:#000000;display:inline;overflow:visible;visibility:visible;opacity:0.46700003;fill:url(#linearGradient12833);fill-opacity:1;fill-rule:nonzero;stroke:none;stroke-width:128;stroke-linecap:butt;stroke-linejoin:miter;stroke-miterlimit:4;stroke-dasharray:none;stroke-dashoffset:0;stroke-opacity:1;marker:none;enable-background:accumulate"
       d="m 80,264 v 16 h 32 v -16 z m 0,24 v 16 h 32 v -16 z m 0,24 v 16 h 32 v -16 z m 0,24 v 16 h 32 v -16 z m 0,24 v 16 h 32 v -16 z m 0,24 v 16 h 32 v -16 z m 0,24 v 16 h 32 v -16 z m 0,24 v 16 h 32 v -16 z m 0,24 v 16 h 32 v -16 z"
       id="path4404" />
    <path
       id="path4408"
       d="m 40,264 v 16 h 32 v -16 z m 0,24 v 16 h 32 v -16 z m 0,24 v 16 h 32 v -16 z m 0,24 v 16 h 32 v -16 z m 0,24 v 16 h 32 v -16 z m 0,24 v 16 h 32 v -16 z m 0,24 v 16 h 32 v -16 z m 0,24 v 16 h 32 v -16 z m 0,24 v 16 h 32 v -16 z"
       style="color:#000000;display:inline;overflow:visible;visibility:visible;opacity:0.46700003;fill:url(#linearGradient12835);fill-opacity:1;fill-rule:nonzero;stroke:none;stroke-width:128;stroke-linecap:butt;stroke-linejoin:miter;stroke-miterlimit:4;stroke-dasharray:none;stroke-dashoffset:0;stroke-opacity:1;marker:none;enable-background:accumulate"
       inkscape:connector-curvature="0" />
    <path
       id="path4413"
       d="m 280,264 v 16 h 32 v -16 z m 0,24 v 16 h 32 v -16 z m 0,24 v 16 h 32 v -16 z m 0,24 v 16 h 32 v -16 z m 0,24 v 16 h 32 v -16 z m 0,24 v 16 h 32 v -16 z m 0,24 v 16 h 32 v -16 z m 0,24 v 16 h 32 v -16 z m 0,24 v 16 h 32 v -16 z"
       style="color:#000000;display:inline;overflow:visible;visibility:visible;opacity:0.46700003;fill:url(#linearGradient12837);fill-opacity:1;fill-rule:nonzero;stroke:none;stroke-width:128;stroke-linecap:butt;stroke-linejoin:miter;stroke-miterlimit:4;stroke-dasharray:none;stroke-dashoffset:0;stroke-opacity:1;marker:none;enable-background:accumulate"
       inkscape:connector-curvature="0" />
    <path
       inkscape:connector-curvature="0"
       style="color:#000000;display:inline;overflow:visible;visibility:visible;opacity:0.46700003;fill:url(#linearGradient12839);fill-opacity:1;fill-rule:nonzero;stroke:none;stroke-width:128;stroke-linecap:butt;stroke-linejoin:miter;stroke-miterlimit:4;stroke-dasharray:none;stroke-dashoffset:0;stroke-opacity:1;marker:none;enable-background:accumulate"
       d="m 320,264 v 16 h 32 v -16 z m 0,24 v 16 h 32 v -16 z m 0,24 v 16 h 32 v -16 z m 0,24 v 16 h 32 v -16 z m 0,24 v 16 h 32 v -16 z m 0,24 v 16 h 32 v -16 z m 0,24 v 16 h 32 v -16 z m 0,24 v 16 h 32 v -16 z m 0,24 v 16 h 32 v -16 z"
       id="path4417" />
    <path
       id="path4421"
       d="m 360,264 v 16 h 32 v -16 z m 0,24 v 16 h 32 v -16 z m 0,24 v 16 h 32 v -16 z m 0,24 v 16 h 32 v -16 z m 0,24 v 16 h 32 v -16 z m 0,24 v 16 h 32 v -16 z m 0,24 v 16 h 32 v -16 z m 0,24 v 16 h 32 v -16 z m 0,24 v 16 h 32 v -16 z"
       style="color:#000000;display:inline;overflow:visible;visibility:visible;opacity:0.46700003;fill:url(#linearGradient12841);fill-opacity:1;fill-rule:nonzero;stroke:none;stroke-width:128;stroke-linecap:butt;stroke-linejoin:miter;stroke-miterlimit:4;stroke-dasharray:none;stroke-dashoffset:0;stroke-opacity:1;marker:none;enable-background:accumulate"
       inkscape:connector-curvature="0" />
    <path
       inkscape:connector-curvature="0"
       style="color:#000000;display:inline;overflow:visible;visibility:visible;opacity:0.46700003;fill:url(#linearGradient12843);fill-opacity:1;fill-rule:nonzero;stroke:none;stroke-width:128;stroke-linecap:butt;stroke-linejoin:miter;stroke-miterlimit:4;stroke-dasharray:none;stroke-dashoffset:0;stroke-opacity:1;marker:none;enable-background:accumulate"
       d="m 400,264 v 16 h 32 v -16 z m 0,24 v 16 h 32 v -16 z m 0,24 v 16 h 32 v -16 z m 0,24 v 16 h 32 v -16 z m 0,24 v 16 h 32 v -16 z m 0,24 v 16 h 32 v -16 z m 0,24 v 16 h 32 v -16 z m 0,24 v 16 h 32 v -16 z m 0,24 v 16 h 32 v -16 z"
       id="path4425" />
    <path
       id="path4429"
       d="m 440,264 v 16 h 32 v -16 z m 0,24 v 16 h 32 v -16 z m 0,24 v 16 h 32 v -16 z m 0,24 v 16 h 32 v -16 z m 0,24 v 16 h 32 v -16 z m 0,24 v 16 h 32 v -16 z m 0,24 v 16 h 32 v -16 z m 0,24 v 16 h 32 v -16 z m 0,24 v 16 h 32 v -16 z"
       style="color:#000000;display:inline;overflow:visible;visibility:visible;opacity:0.46700003;fill:url(#linearGradient12845);fill-opacity:1;fill-rule:nonzero;stroke:none;stroke-width:128;stroke-linecap:butt;stroke-linejoin:miter;stroke-miterlimit:4;stroke-dasharray:none;stroke-dashoffset:0;stroke-opacity:1;marker:none;enable-background:accumulate"
       inkscape:connector-curvature="0" />
  </g>
  <path
     style="color:#000000;display:inline;overflow:visible;visibility:visible;opacity:0.3;fill:#ffffff;fill-opacity:1;fill-rule:nonzero;stroke:none;stroke-width:1;marker:none;enable-background:accumulate"
     d="m 56.805392,15.174463 c -35.296728,0 -39.09487,3.62603 -38.92188,38.99414 v 2 c -0.17299,-35.36811 3.625152,-38.99414 38.92188,-38.99414 H 202.96163 c 35.29673,0 38.92188,3.62561 38.92188,38.99414 v -2 c 0,-35.36853 -3.62515,-38.99414 -38.92188,-38.99414 z"
     id="path931"
     inkscape:connector-curvature="0"
     sodipodi:nodetypes="sccsscsss" />
  <path
     style="color:#000000;display:inline;overflow:visible;visibility:visible;opacity:0.2;fill:#000000;fill-opacity:1;fill-rule:nonzero;stroke:none;stroke-width:1;marker:none;enable-background:accumulate"
     d="m 56.810792,239.17447 c -35.296731,0 -39.094875,-3.62603 -38.921885,-38.99414 v -2 c -0.17299,35.36811 3.625154,38.99414 38.921885,38.99414 H 202.96703 c 35.29673,0 38.92188,-3.62561 38.92188,-38.99414 v 2 c 0,35.36853 -3.62515,38.99414 -38.92188,38.99414 z"
     id="path931-8"
     inkscape:connector-curvature="0"
     sodipodi:nodetypes="sccsscsss" />
  <g
     id="g1057"
     transform="translate(-12.301494,4.6439385)">
    <path
       inkscape:connector-curvature="0"
       id="path987"
       d="m 143.79254,46.727795 c -13.98549,0 -25.24413,11.258648 -25.24413,25.244143 v 50.626952 c 0,13.9855 11.25864,25.2461 25.24413,25.2461 2.90636,0 5.6498,-0.585 8.24414,-1.48047 a 45.440092,45.440092 0 0 1 16.70508,-20.92578 c 0.10603,-0.94314 0.29492,-1.86753 0.29492,-2.83985 V 71.971938 c 0,-13.985495 -11.25865,-25.244143 -25.24414,-25.244143 z m -40.39062,40.529303 c -2.78842,0 -5.04883,2.26041 -5.04883,5.04882 v 29.978522 c 0,19.87637 12.70266,36.60033 30.29297,42.91602 v 12.9375 h -20.19531 c -5.70275,0 -10.09766,4.94846 -10.09766,10.09765 v 10.09766 h 8.51954 21.77343 37.13671 a 45.440092,45.440092 0 0 1 -16.94141,-35.3418 45.440092,45.440092 0 0 1 0.39454,-5.58203 c -1.78601,0.27264 -3.58011,0.5332 -5.44336,0.5332 -19.71399,0 -35.34179,-15.82455 -35.34179,-35.6582 V 92.305918 c 0,-2.78841 -2.26041,-5.04882 -5.04883,-5.04882 z m 80.7832,0 c -2.78842,0 -5.04883,2.26041 -5.04883,5.04882 0,0.69676 0.0599,1.28854 0.31445,1.89258 v 25.896492 a 45.440092,45.440092 0 0 1 9.7832,-2.20899 V 92.305918 c 0,-2.78841 -2.26041,-5.04882 -5.04882,-5.04882 z m 10.09765,40.390622 a 35.342403,35.342403 0 0 0 -35.34375,35.34375 35.342403,35.342403 0 0 0 35.34375,35.3418 35.342403,35.342403 0 0 0 35.3418,-35.3418 35.342403,35.342403 0 0 0 -35.3418,-35.34375 z"
       style="color:#bebebe;font-style:normal;font-variant:normal;font-weight:normal;font-stretch:normal;font-size:medium;line-height:normal;font-family:Sans;-inkscape-font-specification:Sans;text-indent:0;text-align:start;text-decoration:none;text-decoration-line:none;letter-spacing:normal;word-spacing:normal;text-transform:none;writing-mode:lr-tb;direction:ltr;baseline-shift:baseline;text-anchor:start;display:inline;overflow:visible;visibility:visible;opacity:0.1;fill:#000000;fill-opacity:1;stroke:none;stroke-width:10.12842464;marker:none;filter:url(#filter991);enable-background:accumulate" />
    <g
       transform="translate(415.05673,-21.740664)"
       id="g1004"
       style="enable-background:new">
      <path
         inkscape:connector-curvature="0"
         d="m -270.78329,70.270899 c -13.65289,0 -24.64421,10.99131 -24.64421,24.6442 v 49.423181 c 0,13.65289 10.99132,24.6442 24.64421,24.6442 2.83724,0 5.51527,-0.56977 8.04791,-1.44395 a 44.359438,44.359438 0 0 1 16.30746,-20.42778 c 0.10351,-0.92071 0.28883,-1.82328 0.28883,-2.77247 V 94.915099 c 0,-13.65289 -10.99131,-24.6442 -24.6442,-24.6442 z m -39.43073,39.565481 c -2.72211,0 -4.92885,2.20675 -4.92885,4.92885 v 29.26499 c 0,19.40367 12.40107,35.72967 29.57305,41.89516 v 12.63015 h -19.71536 c -5.56713,0 -9.85769,4.83096 -9.85769,9.85769 v 9.85768 h 8.31742 21.25563 36.2539 a 44.359438,44.359438 0 0 1 -16.53853,-34.50189 44.359438,44.359438 0 0 1 0.38543,-5.44864 c -1.74353,0.26616 -3.49533,0.5195 -5.31427,0.5195 -19.24516,0 -34.50189,-15.44797 -34.50189,-34.80994 v -29.2647 c 0,-2.7221 -2.20674,-4.92885 -4.92884,-4.92885 z m 78.86146,0 c -2.7221,0 -4.92884,2.20675 -4.92884,4.92885 0,0.68018 0.0591,1.25863 0.30756,1.84831 v 25.27954 a 44.359438,44.359438 0 0 1 9.55012,-2.15637 v -24.97148 c 0,-2.7221 -2.20674,-4.92885 -4.92884,-4.92885 z"
         id="rect6806"
         style="color:#bebebe;font-style:normal;font-variant:normal;font-weight:normal;font-stretch:normal;font-size:medium;line-height:normal;font-family:Sans;-inkscape-font-specification:Sans;text-indent:0;text-align:start;text-decoration:none;text-decoration-line:none;letter-spacing:normal;word-spacing:normal;text-transform:none;writing-mode:lr-tb;direction:ltr;baseline-shift:baseline;text-anchor:start;display:inline;overflow:visible;visibility:visible;fill:#fef8f8;fill-opacity:1;stroke:none;stroke-width:9.88755131;marker:none;enable-background:accumulate" />
      <circle
         cx="-221.49471"
         cy="183.769"
         id="path13459"
         r="34.501892"
         style="color:#000000;clip-rule:nonzero;display:inline;overflow:visible;visibility:visible;opacity:1;isolation:auto;mix-blend-mode:normal;color-interpolation:sRGB;color-interpolation-filters:linearRGB;solid-color:#000000;solid-opacity:1;fill:#fef8f8;fill-opacity:1;fill-rule:nonzero;stroke:none;stroke-width:9.85768318;stroke-linecap:butt;stroke-linejoin:miter;stroke-miterlimit:4;stroke-dasharray:9.85768303, 19.71536606;stroke-dashoffset:0;stroke-opacity:1;marker:none;marker-start:none;marker-mid:none;marker-end:none;paint-order:normal;color-rendering:auto;image-rendering:auto;shape-rendering:auto;text-rendering:auto;enable-background:new" />
      <path
         style="color:#bebebe;font-style:normal;font-variant:normal;font-weight:normal;font-stretch:normal;font-size:medium;line-height:normal;font-family:Sans;-inkscape-font-specification:Sans;text-indent:0;text-align:start;text-decoration:none;text-decoration-line:none;letter-spacing:normal;word-spacing:normal;text-transform:none;writing-mode:lr-tb;direction:ltr;baseline-shift:baseline;text-anchor:start;display:inline;overflow:visible;visibility:visible;opacity:0.1;fill:url(#linearGradient945);fill-opacity:1;stroke:none;stroke-width:9.88755131;marker:none;enable-background:accumulate"
         d="m -293.98724,86.576169 c -0.93034,2.60297 -1.43945,5.40924 -1.43945,8.33984 v 49.421881 c 0,13.65289 10.98969,24.64453 24.64258,24.64453 2.83724,0 5.51619,-0.56918 8.04882,-1.44336 a 44.359438,44.359438 0 0 1 16.30664,-20.42774 c 0.10351,-0.92071 0.28907,-1.82424 0.28907,-2.77343 v -31.48243 z m -16.22656,23.259761 c -2.72211,0 -4.92969,2.20759 -4.92969,4.92969 v 29.26367 c 0,19.40367 12.40224,35.731 29.57422,41.89649 v 12.6289 h -19.7168 c -5.56713,0 -9.85742,4.83265 -9.85742,9.85938 v 9.85742 h 8.31836 21.25586 36.2539 a 44.359438,44.359438 0 0 1 -16.53906,-34.50195 44.359438,44.359438 0 0 1 0.38477,-5.44922 c -1.74353,0.26616 -3.49551,0.51953 -5.31445,0.51953 -19.24516,0 -34.50196,-15.44858 -34.50196,-34.81055 v -29.26367 c 0,-2.7221 -2.20563,-4.92969 -4.92773,-4.92969 z m 74.24023,8.60157 v 23.45507 a 44.359438,44.359438 0 0 1 9.55078,-2.15625 v -16.05273 z m 14.47852,30.83007 a 34.501892,34.501892 0 0 0 -34.50196,34.50196 34.501892,34.501892 0 0 0 34.50196,34.50195 34.501892,34.501892 0 0 0 34.50195,-34.50195 34.501892,34.501892 0 0 0 -34.50195,-34.50196 z"
         id="path923"
         inkscape:connector-curvature="0" />
      <path
         style="color:#bebebe;font-style:normal;font-variant:normal;font-weight:normal;font-stretch:normal;font-size:medium;line-height:normal;font-family:Sans;-inkscape-font-specification:Sans;text-indent:0;text-align:start;text-decoration:none;text-decoration-line:none;letter-spacing:normal;word-spacing:normal;text-transform:none;writing-mode:lr-tb;direction:ltr;baseline-shift:baseline;text-anchor:start;display:inline;overflow:visible;visibility:visible;fill:#ffffff;fill-opacity:1;stroke:none;stroke-width:9.88755131;marker:none;enable-background:accumulate"
         d="m -270.78329,70.270899 c -13.65289,0 -24.64453,10.99164 -24.64453,24.64453 v 2 c 0,-13.65289 10.99164,-24.64453 24.64453,-24.64453 13.65289,0 24.64453,10.99164 24.64453,24.64453 v -2 c 0,-13.65289 -10.99164,-24.64453 -24.64453,-24.64453 z m -39.42968,39.566401 c -2.72211,0 -4.92969,2.20564 -4.92969,4.92774 v 2 c 0,-2.7221 2.20758,-4.92774 4.92969,-4.92774 2.7221,0 4.92773,2.20564 4.92773,4.92774 v -2 c 0,-2.7221 -2.20563,-4.92774 -4.92773,-4.92774 z m 78.86132,0 c -2.7221,0 -4.92969,2.20564 -4.92969,4.92774 0,0.38817 0.0249,0.74267 0.0879,1.08594 0.42892,-2.28494 2.43219,-4.01368 4.8418,-4.01368 2.7221,0 4.92774,2.20564 4.92774,4.92774 v -2 c 0,-2.7221 -2.20564,-4.92774 -4.92774,-4.92774 z m -73.93359,34.19336 v 2 c 0,19.36197 15.25679,34.81055 34.50195,34.81055 1.75608,0 3.44891,-0.23831 5.13281,-0.49414 a 44.359438,44.359438 0 0 1 0.18164,-2.02539 c -1.74353,0.26616 -3.49551,0.51953 -5.31445,0.51953 -19.24516,0 -34.50195,-15.44858 -34.50195,-34.81055 z m 83.79101,5.23633 a 34.501892,34.501892 0 0 0 -34.50195,34.50196 34.501892,34.501892 0 0 0 0.041,0.82812 34.501892,34.501892 0 0 1 34.46093,-33.33008 34.501892,34.501892 0 0 1 34.46094,33.67383 34.501892,34.501892 0 0 0 0.041,-1.17187 34.501892,34.501892 0 0 0 -34.50196,-34.50196 z m -44.30664,35.61524 a 44.359438,44.359438 0 0 0 -0.0527,0.88672 44.359438,44.359438 0 0 0 14.29297,32.50195 h 2.24414 a 44.359438,44.359438 0 0 1 -16.48438,-33.38867 z m -39.48437,13.67382 c -5.56713,0 -9.85742,4.8307 -9.85742,9.85743 v 2 c 0,-5.02673 4.29029,-9.85743 9.85742,-9.85743 h 19.71485 v -2 z"
         id="path979"
         inkscape:connector-curvature="0" />
    </g>
  </g>
</svg>
