<?xml version="1.0" encoding="UTF-8" standalone="no"?>
<svg
   xmlns:dc="http://purl.org/dc/elements/1.1/"
   xmlns:cc="http://creativecommons.org/ns#"
   xmlns:rdf="http://www.w3.org/1999/02/22-rdf-syntax-ns#"
   xmlns:svg="http://www.w3.org/2000/svg"
   xmlns="http://www.w3.org/2000/svg"
   xmlns:xlink="http://www.w3.org/1999/xlink"
   xmlns:sodipodi="http://sodipodi.sourceforge.net/DTD/sodipodi-0.dtd"
   xmlns:inkscape="http://www.inkscape.org/namespaces/inkscape"
   style="enable-background:new"
   width="256"
   height="256"
   version="1.0"
   viewBox="0 0 256 256"
   id="svg117"
   sodipodi:docname="sublime-text.svg"
   inkscape:version="0.92.3 (2405546, 2018-03-11)">
  <metadata
     id="metadata121">
    <rdf:RDF>
      <cc:Work
         rdf:about="">
        <dc:format>image/svg+xml</dc:format>
        <dc:type
           rdf:resource="http://purl.org/dc/dcmitype/StillImage" />
        <dc:title>
  Adwaita Icon Template
 </dc:title>
      </cc:Work>
    </rdf:RDF>
  </metadata>
  <sodipodi:namedview
     pagecolor="#ffffff"
     bordercolor="#666666"
     borderopacity="1"
     objecttolerance="10"
     gridtolerance="10"
     guidetolerance="10"
     inkscape:pageopacity="0"
     inkscape:pageshadow="2"
     inkscape:window-width="1920"
     inkscape:window-height="1009"
     id="namedview119"
     showgrid="false"
     inkscape:zoom="1.84375"
     inkscape:cx="-32.813559"
     inkscape:cy="64"
     inkscape:window-x="0"
     inkscape:window-y="34"
     inkscape:window-maximized="1"
     inkscape:current-layer="svg117" />
  <title
     id="title4162">
  Adwaita Icon Template
 </title>
  <defs
     id="defs37">
    <linearGradient
       id="linearGradient1803">
      <stop
         id="stop1799"
         offset="0"
         style="stop-color:#deddda" />
      <stop
         id="stop1801"
         offset="1"
         style="stop-color:#77767b" />
    </linearGradient>
    <linearGradient
       id="linearGradient1797">
      <stop
         id="stop1793"
         offset="0"
         style="stop-color:#deddda" />
      <stop
         id="stop1795"
         offset="1"
         style="stop-color:#77767b" />
    </linearGradient>
    <linearGradient
       id="linearGradient1639">
      <stop
         id="stop1635"
         offset="0"
         style="stop-color:#9a9996" />
      <stop
         id="stop1637"
         offset="1"
         style="stop-color:#77767b" />
    </linearGradient>
    <linearGradient
       id="linearGradient1319">
      <stop
         id="stop1307"
         offset="0"
         style="stop-color:#3d3846" />
      <stop
         style="stop-color:#5e5c64"
         id="stop1309"
         offset=".045" />
      <stop
         id="stop1311"
         offset=".091"
         style="stop-color:#3d3846" />
      <stop
         style="stop-color:#3d3846"
         id="stop1313"
         offset=".909" />
      <stop
         id="stop1315"
         offset=".955"
         style="stop-color:#5e5c64" />
      <stop
         id="stop1317"
         offset="1"
         style="stop-color:#3d3846" />
    </linearGradient>
    <linearGradient
       id="linearGradient3051">
      <stop
         id="stop3047"
         offset="0"
         style="stop-color:#deddda" />
      <stop
         id="stop3049"
         offset="1"
         style="stop-color:#c0bfbc" />
    </linearGradient>
    <linearGradient
       id="linearGradient3550">
      <stop
         style="stop-color:#c0bfbc"
         id="stop3542"
         offset="0" />
      <stop
         style="stop-color:#ffffff"
         id="stop3544"
         offset=".351" />
      <stop
         id="stop3546"
         offset=".602"
         style="stop-color:#9a9996" />
      <stop
         style="stop-color:#77767b"
         id="stop3548"
         offset="1" />
    </linearGradient>
    <linearGradient
       id="linearGradient1111"
       x1="60"
       x2="68"
       y1="199.856"
       y2="199.856"
       gradientTransform="matrix(0.75,0,0,0.7,-28.999993,80.000034)"
       gradientUnits="userSpaceOnUse"
       xlink:href="#linearGradient3550" />
    <radialGradient
       id="radialGradient1102"
       cx="-223"
       cy="64"
       r="24"
       fx="-223"
       fy="64"
       gradientTransform="matrix(0.74999998,0,0,0.74999998,-42.250016,16.000009)"
       gradientUnits="userSpaceOnUse"
       xlink:href="#linearGradient1803" />
    <linearGradient
       id="linearGradient1100"
       x1="60"
       x2="68"
       y1="199.856"
       y2="199.856"
       gradientTransform="matrix(0.75,0,0,0.7,-28.999993,113.00003)"
       gradientUnits="userSpaceOnUse"
       xlink:href="#linearGradient3550" />
    <radialGradient
       id="radialGradient1098"
       cx="-223"
       cy="64"
       r="24"
       fx="-223"
       fy="64"
       gradientTransform="matrix(0.77777778,0,0,0.77777778,-35.305572,14.222232)"
       gradientUnits="userSpaceOnUse"
       xlink:href="#linearGradient1797" />
    <linearGradient
       id="linearGradient1096"
       x1="83.111"
       x2="102.222"
       y1="199.51199"
       y2="289.047"
       gradientTransform="matrix(0.83720947,0,0,1.2285714,-117.58141,-49.114262)"
       gradientUnits="userSpaceOnUse"
       xlink:href="#linearGradient1639" />
    <linearGradient
       id="linearGradient1094"
       x1="48"
       x2="464"
       y1="204"
       y2="204"
       gradientTransform="matrix(0.21153843,0,0,0.25,9.846169,229.00002)"
       gradientUnits="userSpaceOnUse"
       xlink:href="#linearGradient1319" />
    <radialGradient
       id="radialGradient1476"
       cx="-236"
       cy="-64"
       r="12"
       fx="-236"
       fy="-64"
       gradientTransform="matrix(0.47222224,0,0,0.47222224,-104.55557,-33.777784)"
       gradientUnits="userSpaceOnUse"
       xlink:href="#linearGradient3051" />
    <linearGradient
       id="linearGradient1017"
       x1="50.980999"
       x2="50.980999"
       y1="248.218"
       y2="252.218"
       gradientTransform="matrix(-0.8660254,0.5,0.5,0.8660254,-21.742918,8.8145345)"
       gradientUnits="userSpaceOnUse"
       xlink:href="#linearGradient3550" />
    <linearGradient
       id="linearGradient1028"
       x1="50.980999"
       x2="50.980999"
       y1="248.218"
       y2="252.218"
       gradientTransform="rotate(30.000001,58.423309,283.83136)"
       gradientUnits="userSpaceOnUse"
       xlink:href="#linearGradient3550" />
    <linearGradient
       id="linearGradient1030"
       x1="50.980999"
       x2="50.980999"
       y1="248.218"
       y2="252.218"
       gradientTransform="matrix(0,1,1,0,-186.21792,202.01922)"
       gradientUnits="userSpaceOnUse"
       xlink:href="#linearGradient3550" />
    <linearGradient
       inkscape:collect="always"
       xlink:href="#linearGradient4360"
       id="linearGradient4358"
       x1="88"
       y1="88"
       x2="488"
       y2="488"
       gradientUnits="userSpaceOnUse" />
    <linearGradient
       id="linearGradient4360"
       inkscape:collect="always">
      <stop
         id="stop4362"
         offset="0"
         style="stop-color:#000000;stop-opacity:0.58823532" />
      <stop
         style="stop-color:#000000;stop-opacity:0"
         offset="0.88"
         id="stop4364" />
      <stop
         id="stop4366"
         offset="1"
         style="stop-color:#000000;stop-opacity:1" />
    </linearGradient>
    <filter
       inkscape:collect="always"
       style="color-interpolation-filters:sRGB"
       id="filter4380"
       x="-0.052999184"
       width="1.1059984"
       y="-0.043862626"
       height="1.0877253">
      <feGaussianBlur
         inkscape:collect="always"
         stdDeviation="8.4801079"
         id="feGaussianBlur4382" />
    </filter>
    <filter
       inkscape:collect="always"
       style="color-interpolation-filters:sRGB"
       id="filter4346"
       x="-0.013249796"
       width="1.0264996"
       y="-0.010965657"
       height="1.0219313">
      <feGaussianBlur
         inkscape:collect="always"
         stdDeviation="2.120027"
         id="feGaussianBlur4348" />
    </filter>
    <linearGradient
       id="sublime-icon-b"
       x1="193.591"
       x2="211.49001"
       y1="414.55899"
       y2="324.754"
       gradientTransform="matrix(0.14620093,0,0,0.09746729,8.3839832,234.45793)"
       gradientUnits="userSpaceOnUse">
      <stop
         stop-color="#FF9700"
         offset="0"
         id="stop1004" />
      <stop
         stop-color="#F48E00"
         offset=".53"
         id="stop1006" />
      <stop
         stop-color="#CE6E00"
         offset="1"
         id="stop1008" />
    </linearGradient>
    <linearGradient
       id="sublime-icon-b-3"
       x1="193.591"
       x2="211.49001"
       y1="414.55899"
       y2="324.754"
       gradientTransform="matrix(-0.14620093,0,0,-0.09746729,61.796748,288.06735)"
       gradientUnits="userSpaceOnUse">
      <stop
         stop-color="#FF9700"
         offset="0"
         id="stop1011" />
      <stop
         stop-color="#F48E00"
         offset=".53"
         id="stop1013" />
      <stop
         stop-color="#CE6E00"
         offset="1"
         id="stop1015" />
    </linearGradient>
  </defs>
  <path
     style="color:#000000;display:inline;overflow:visible;visibility:visible;opacity:0.1;fill:#000000;fill-opacity:1;fill-rule:nonzero;stroke:none;stroke-width:2;marker:none;filter:url(#filter4346);enable-background:accumulate"
     d="M 189.84323,74 C 119.24979,74 111.65402,81.250835 112,151.98706 V 298 444.01294 C 111.65402,514.74917 119.24979,522 189.84323,522 H 386.15677 C 456.75021,522 462.16345,514.72616 464,444.01294 V 298 151.98706 C 464,81.249993 456.75021,74 386.15677,74 Z"
     id="rect4158-9"
     inkscape:connector-curvature="0"
     sodipodi:nodetypes="scccssscsss"
     transform="matrix(0.5,0,0,0.5,-16.666462,-20.825235)" />
  <path
     sodipodi:nodetypes="scccssscsss"
     inkscape:connector-curvature="0"
     id="path4350"
     d="M 189.84323,74 C 119.24979,74 111.65402,81.250835 112,151.98706 V 298 444.01294 C 111.65402,514.74917 119.24979,522 189.84323,522 H 386.15677 C 456.75021,522 464,514.75001 464,444.01294 V 298 151.98706 C 464,81.249993 456.75021,74 386.15677,74 Z"
     style="color:#000000;display:inline;overflow:visible;visibility:visible;opacity:0.3;fill:url(#linearGradient4358);fill-opacity:1;fill-rule:nonzero;stroke:none;stroke-width:2;marker:none;filter:url(#filter4380);enable-background:accumulate"
     transform="matrix(0.5,0,0,0.5,-16.666462,-20.825235)" />
  <path
     style="color:#000000;display:inline;overflow:visible;visibility:visible;opacity:0.1;fill:#000000;fill-opacity:1;fill-rule:nonzero;stroke:none;stroke-width:1.02028775;marker:none;enable-background:accumulate"
     d="m 77.145138,13.174765 c -36.098811,0 -39.983003,3.690158 -39.806081,39.689842 v 74.310163 74.31016 c -0.176922,35.99969 3.70727,39.68984 39.806081,39.68984 H 177.53246 c 36.09881,0 39.80608,-3.68973 39.80608,-39.68984 V 127.17477 52.864607 c 0,-36.000113 -3.70727,-39.689842 -39.80608,-39.689842 z"
     id="rect4158-7"
     inkscape:connector-curvature="0"
     sodipodi:nodetypes="scccssscsss" />
  <path
     style="color:#000000;display:inline;overflow:visible;visibility:visible;fill:#4d4d4d;fill-opacity:1;fill-rule:nonzero;stroke:none;stroke-width:1;marker:none;enable-background:accumulate"
     d="m 176.40652,15.174765 c 35.29673,0 39.09461,3.625418 38.92162,38.99353 v 73.006475 73.00647 c 0.17299,35.36812 -3.62489,38.99353 -38.92162,38.99353 H 78.249758 c -35.296716,0 -38.921616,-3.625 -38.921616,-38.99353 V 127.17477 54.168295 c 0,-35.368533 3.6249,-38.99353 38.921616,-38.99353 z"
     id="rect4158"
     inkscape:connector-curvature="0"
     sodipodi:nodetypes="scccssscsss" />
  <path
     style="color:#000000;display:inline;overflow:visible;visibility:visible;opacity:0.3;fill:#ffffff;fill-opacity:1;fill-rule:nonzero;stroke:none;stroke-width:1;marker:none;enable-background:accumulate"
     d="m 78.255418,15.174765 c -35.296728,0 -39.09487,3.626029 -38.92188,38.994141 v 2 C 39.160548,20.800794 42.95869,17.174765 78.255418,17.174765 h 98.156242 c 35.29673,0 38.92188,3.625608 38.92188,38.994141 v -2 c 0,-35.368533 -3.62515,-38.994141 -38.92188,-38.994141 z"
     id="path931"
     inkscape:connector-curvature="0" />
  <path
     style="color:#000000;display:inline;overflow:visible;visibility:visible;opacity:0.2;fill:#000000;fill-opacity:1;fill-rule:nonzero;stroke:none;stroke-width:1;marker:none;enable-background:accumulate"
     d="m 78.260818,239.17477 c -35.296731,0 -39.094875,-3.62603 -38.921885,-38.99414 v -2 c -0.17299,35.36811 3.625154,38.99414 38.921885,38.99414 h 98.156242 c 35.29673,0 38.92188,-3.62561 38.92188,-38.99414 v 2 c 0,35.36853 -3.62515,38.99414 -38.92188,38.99414 z"
     id="path931-8"
     inkscape:connector-curvature="0" />
  <g
     transform="matrix(3.7797136,0,0,3.7797136,-5.3006985,-860.3232)"
     id="g1036">
    <path
       d="m 50.403127,261.33074 c 0,-0.46539 -0.34384,-0.73375 -0.765787,-0.60043 l -29.027802,9.20774 c -0.422796,0.13419 -0.765788,0.62081 -0.765788,1.08536 v 9.41071 c 0,0.46539 0.342992,0.73461 0.765788,0.60043 l 29.027802,-9.20688 c 0.421947,-0.13419 0.765787,-0.62082 0.765787,-1.08622 z"
       style="fill:url(#sublime-icon-b)"
       id="path1030"
       inkscape:connector-curvature="0" />
    <path
       d="m 19.777607,261.19455 c 0,0.46539 0.34383,0.73375 0.76578,0.60043 l 29.0278,-9.20774 c 0.4228,-0.13419 0.76579,-0.62081 0.76579,-1.08536 v -9.41071 c 0,-0.46539 -0.34299,-0.73461 -0.76579,-0.60043 l -29.0278,9.20688 c -0.42195,0.13419 -0.76578,0.62082 -0.76578,1.08622 z"
       style="fill:url(#sublime-icon-b-3)"
       id="path1032"
       inkscape:connector-curvature="0" />
    <path
       d="m 19.84375,261.08308 c 0,0.46537 0.342944,0.95198 0.765683,1.08614 l 29.028013,9.20803 c 0.422737,0.13417 0.765681,-0.13503 0.765681,-0.59953 v -9.411 c 0,-0.46452 -0.342944,-0.95112 -0.765681,-1.0853 l -29.028013,-9.20803 c -0.422739,-0.13417 -0.765683,0.13417 -0.765683,0.59954 z"
       style="fill:#ff9800"
       id="path1034"
       inkscape:connector-curvature="0" />
  </g>
</svg>
