<?xml version="1.0" encoding="UTF-8" standalone="no"?>
<svg
   xmlns:dc="http://purl.org/dc/elements/1.1/"
   xmlns:cc="http://creativecommons.org/ns#"
   xmlns:rdf="http://www.w3.org/1999/02/22-rdf-syntax-ns#"
   xmlns:svg="http://www.w3.org/2000/svg"
   xmlns="http://www.w3.org/2000/svg"
   xmlns:xlink="http://www.w3.org/1999/xlink"
   xmlns:sodipodi="http://sodipodi.sourceforge.net/DTD/sodipodi-0.dtd"
   xmlns:inkscape="http://www.inkscape.org/namespaces/inkscape"
   width="256"
   height="256"
   version="1.0"
   viewBox="0 0 256 256"
   style="enable-background:new"
   id="svg56"
   sodipodi:docname="swell-foop.svg"
   inkscape:version="0.92.3 (2405546, 2018-03-11)">
  <metadata
     id="metadata60">
    <rdf:RDF>
      <cc:Work
         rdf:about="">
        <dc:format>image/svg+xml</dc:format>
        <dc:type
           rdf:resource="http://purl.org/dc/dcmitype/StillImage" />
        <dc:title>
  Adwaita Icon Template
 </dc:title>
      </cc:Work>
    </rdf:RDF>
  </metadata>
  <sodipodi:namedview
     pagecolor="#ffffff"
     bordercolor="#666666"
     borderopacity="1"
     objecttolerance="10"
     gridtolerance="10"
     guidetolerance="10"
     inkscape:pageopacity="0"
     inkscape:pageshadow="2"
     inkscape:window-width="1920"
     inkscape:window-height="1009"
     id="namedview58"
     showgrid="false"
     inkscape:zoom="2.2481002"
     inkscape:cx="11.96403"
     inkscape:cy="127.82523"
     inkscape:window-x="0"
     inkscape:window-y="34"
     inkscape:window-maximized="1"
     inkscape:current-layer="layer1" />
  <title
     id="title4162">
  Adwaita Icon Template
 </title>
  <defs
     id="defs19">
    <linearGradient
       id="linearGradient1115">
      <stop
         id="stop1103"
         offset="0"
         style="stop-color:#d5d3cf" />
      <stop
         style="stop-color:#e3e2df"
         id="stop1105"
         offset=".038" />
      <stop
         style="stop-color:#c0bfbc"
         id="stop1107"
         offset=".077" />
      <stop
         style="stop-color:#c0bfbc"
         id="stop1109"
         offset=".923" />
      <stop
         style="stop-color:#e3e2df"
         id="stop1111"
         offset=".962" />
      <stop
         id="stop1113"
         offset="1"
         style="stop-color:#d5d3cf" />
    </linearGradient>
    <linearGradient
       id="linearGradient6058">
      <stop
         style="stop-color:#ffffff"
         id="stop6054"
         offset="0" />
      <stop
         style="stop-color:#f6f5f4"
         id="stop6056"
         offset="1" />
    </linearGradient>
    <linearGradient
       id="paint3_linear-2-6-5"
       x2="1"
       gradientTransform="matrix(0,6,-12,0,-64,209.99687)"
       gradientUnits="userSpaceOnUse">
      <stop
         id="stop91-0-7-4"
         stop-color="#C01C27" />
      <stop
         id="stop93-2-5-7"
         offset="1"
         stop-color="#E01B24" />
    </linearGradient>
    <linearGradient
       id="linearGradient1097"
       x1="43.844002"
       x2="-60"
       y1="234"
       y2="234"
       gradientTransform="matrix(1.0015061,0,0,0.99993452,63.812526,72.264294)"
       gradientUnits="userSpaceOnUse"
       xlink:href="#linearGradient1115" />
    <radialGradient
       id="radialGradient1099"
       cx="-24.239"
       cy="225.59599"
       r="24"
       fx="-24.239"
       fy="225.59599"
       gradientTransform="matrix(1.757743,-9.5621778e-8,3.7652438e-8,1.9495846,106.60563,-336.54495)"
       gradientUnits="userSpaceOnUse"
       xlink:href="#linearGradient6058" />
    <linearGradient
       id="linearGradient1383"
       x2="1"
       gradientTransform="matrix(0,6,-12,0,-264,209.99687)"
       gradientUnits="userSpaceOnUse"
       xlink:href="#paint3_linear-2-6-5" />
    <linearGradient
       inkscape:collect="always"
       xlink:href="#linearGradient4360"
       id="linearGradient4358"
       x1="88"
       y1="88"
       x2="488"
       y2="488"
       gradientUnits="userSpaceOnUse" />
    <linearGradient
       id="linearGradient4360"
       inkscape:collect="always">
      <stop
         id="stop4362"
         offset="0"
         style="stop-color:#000000;stop-opacity:0.58823532" />
      <stop
         id="stop4366"
         offset="1"
         style="stop-color:#000000;stop-opacity:0.20555556" />
    </linearGradient>
    <filter
       inkscape:collect="always"
       style="color-interpolation-filters:sRGB"
       id="filter4380"
       x="-0.052999184"
       width="1.1059984"
       y="-0.043862626"
       height="1.0877253">
      <feGaussianBlur
         inkscape:collect="always"
         stdDeviation="8.4801079"
         id="feGaussianBlur4382" />
    </filter>
    <filter
       inkscape:collect="always"
       style="color-interpolation-filters:sRGB"
       id="filter4346"
       x="-0.013249796"
       width="1.0264996"
       y="-0.010965657"
       height="1.0219313">
      <feGaussianBlur
         inkscape:collect="always"
         stdDeviation="2.120027"
         id="feGaussianBlur4348" />
    </filter>
    <linearGradient
       id="a">
      <stop
         stop-color="#68676b"
         offset="0"
         id="stop2" />
      <stop
         stop-color="#424048"
         offset=".8"
         id="stop4" />
      <stop
         stop-color="#241f31"
         offset="1"
         id="stop6" />
    </linearGradient>
    <radialGradient
       xlink:href="#a"
       gradientUnits="userSpaceOnUse"
       gradientTransform="matrix(1.34416 .0006 -.00062 1.38763 -121.22 -718.103)"
       fy="446.483"
       fx="279.422"
       r="224"
       cy="446.483"
       cx="279.422"
       id="d" />
    <linearGradient
       xlink:href="#linearGradient1115"
       gradientUnits="userSpaceOnUse"
       gradientTransform="matrix(1.0015,0,0,0.99993,-22.825254,146.59127)"
       y2="234"
       y1="234"
       x2="-60"
       x1="43.844"
       id="e" />
    <filter
       style="color-interpolation-filters:sRGB"
       y="-.03"
       x="-.02"
       height="1.05"
       width="1.046"
       id="filter906">
      <feGaussianBlur
         stdDeviation="2.32"
         id="feGaussianBlur922" />
    </filter>
    <linearGradient
       gradientUnits="userSpaceOnUse"
       gradientTransform="matrix(0.23900574,0.41397008,-0.41397008,0.23900574,-19.523641,133.24274)"
       y2="156"
       y1="156"
       x2="272"
       x1="32"
       id="linearGradient878">
      <stop
         offset="0"
         id="stop917"
         style="stop-color:#2f5fdd" />
      <stop
         offset="1"
         id="stop919"
         style="stop-color:#5884f4" />
    </linearGradient>
    <linearGradient
       gradientUnits="userSpaceOnUse"
       y2="236"
       y1="-212"
       x2="296"
       x1="296"
       id="linearGradient1108">
      <stop
         offset="0"
         id="stop905"
         style="stop-color:#ffffff" />
      <stop
         offset=".125"
         id="stop907"
         style="stop-color:#ffffff;stop-opacity:.09803922" />
      <stop
         offset=".925"
         id="stop909"
         style="stop-color:#000000;stop-opacity:.09803922" />
      <stop
         offset="1"
         id="stop911"
         style="stop-color:#000000;stop-opacity:.49803922" />
    </linearGradient>
    <clipPath
       id="clipPath1082-3-3">
      <path
         id="path869"
         d="M 361.9375,-212 C 507.2348,-212 528,-191.28677 528,-46.125 V 70.125 C 528,215.28618 507.2348,236 361.9375,236 H 214.0625 C 68.7652,236 48,215.28618 48,70.125 V -46.125 C 48,-191.28677 68.7652,-212 214.0625,-212 Z"
         style="fill:#8c59d9" />
    </clipPath>
    <filter
       style="color-interpolation-filters:sRGB"
       y="-.01"
       x="-.01"
       height="1.025"
       width="1.023"
       id="filter4569">
      <feGaussianBlur
         stdDeviation="1.16"
         id="feGaussianBlur2442" />
    </filter>
    <filter
       style="color-interpolation-filters:sRGB"
       y="-.03"
       x="-.02"
       height="1.05"
       width="1.046"
       id="filter958">
      <feGaussianBlur
         stdDeviation="2.32"
         id="feGaussianBlur2439" />
    </filter>
    <clipPath
       id="clipPath1082-3-69">
      <path
         id="path881"
         d="M 361.9375,-212 C 507.2348,-212 528,-191.28677 528,-46.125 V 70.125 C 528,215.28618 507.2348,236 361.9375,236 H 214.0625 C 68.7652,236 48,215.28618 48,70.125 V -46.125 C 48,-191.28677 68.7652,-212 214.0625,-212 Z"
         style="fill:#8c59d9" />
    </clipPath>
    <filter
       style="color-interpolation-filters:sRGB"
       y="-.03"
       x="-.02"
       height="1.05"
       width="1.046"
       id="filter939">
      <feGaussianBlur
         stdDeviation="2.32"
         id="feGaussianBlur4784" />
    </filter>
    <filter
       style="color-interpolation-filters:sRGB"
       y="-.01"
       x="-.01"
       height="1.025"
       width="1.023"
       id="filter4569-3">
      <feGaussianBlur
         stdDeviation="1.16"
         id="feGaussianBlur4781" />
    </filter>
    <clipPath
       id="clipPath1082-3-361">
      <path
         id="path893"
         d="M 361.9375,-212 C 507.2348,-212 528,-191.28677 528,-46.125 V 70.125 C 528,215.28618 507.2348,236 361.9375,236 H 214.0625 C 68.7652,236 48,215.28618 48,70.125 V -46.125 C 48,-191.28677 68.7652,-212 214.0625,-212 Z"
         style="fill:#8c59d9" />
    </clipPath>
    <linearGradient
       gradientUnits="userSpaceOnUse"
       gradientTransform="matrix(0,6,-12,0,-64,209.99687)"
       x2="1"
       id="paint3_linear-2-6-5-1">
      <stop
         stop-color="#C01C27"
         id="stop91-0-7-4-2" />
      <stop
         stop-color="#E01B24"
         offset="1"
         id="stop93-2-5-7-7" />
    </linearGradient>
    <radialGradient
       xlink:href="#linearGradient6058"
       gradientUnits="userSpaceOnUse"
       gradientTransform="matrix(1.757743,-9.5621778e-8,3.7652438e-8,1.9495846,106.60563,-336.54495)"
       fy="225.596"
       fx="-24.239"
       r="24"
       cy="225.596"
       cx="-24.239"
       id="radialGradient1099-0" />
    <linearGradient
       xlink:href="#paint3_linear-2-6-5-1"
       gradientUnits="userSpaceOnUse"
       gradientTransform="matrix(0,6,-12,0,-264,209.99687)"
       x2="1"
       id="linearGradient1383-9" />
  </defs>
  <path
     style="color:#000000;display:inline;overflow:visible;visibility:visible;opacity:0.1;fill:#000000;fill-opacity:1;fill-rule:nonzero;stroke:none;stroke-width:2;marker:none;filter:url(#filter4346);enable-background:accumulate"
     d="M 141.84323,74 C 71.24979,74 63.65402,81.250835 64,151.98706 V 298 444.01294 C 63.65402,514.74917 71.24979,522 141.84323,522 H 434.15677 C 504.75021,522 513.9371,514.72348 512,444.01294 V 298 151.98706 C 512,81.249993 504.75021,74 434.15677,74 Z"
     id="rect4158-9"
     inkscape:connector-curvature="0"
     sodipodi:nodetypes="scccssscsss"
     transform="matrix(0.5,0,0,0.5,-14.116488,-20.825537)" />
  <path
     sodipodi:nodetypes="scccssscsss"
     inkscape:connector-curvature="0"
     id="path4350"
     d="M 141.84323,74 C 71.24979,74 63.65402,81.250835 64,151.98706 V 298 444.01294 C 63.65402,514.74917 71.24979,522 141.84323,522 H 434.15677 C 504.75021,522 513.9371,514.72348 512,444.01294 V 298 151.98706 C 512,81.249993 504.75021,74 434.15677,74 Z"
     style="color:#000000;display:inline;overflow:visible;visibility:visible;opacity:0.3;fill:url(#linearGradient4358);fill-opacity:1;fill-rule:nonzero;stroke:none;stroke-width:2;marker:none;filter:url(#filter4380);enable-background:accumulate"
     transform="matrix(0.5,0,0,0.5,-14.116488,-20.825235)" />
  <path
     style="color:#000000;display:inline;overflow:visible;visibility:visible;opacity:0.2;fill:#000000;fill-opacity:1;fill-rule:nonzero;stroke:none;stroke-width:1.02028775;marker:none;enable-background:accumulate"
     d="m 55.695112,13.174464 c -36.098811,0 -39.983003,3.690159 -39.806081,39.689839 v 74.310167 74.31016 c -0.176922,35.99969 3.70727,39.68984 39.806081,39.68984 H 204.08243 c 36.09881,0 40.77464,-3.70276 39.80608,-39.68984 V 127.17447 52.864303 c 0,-36.00011 -3.70727,-39.689839 -39.80608,-39.689839 z"
     id="rect4158-7"
     inkscape:connector-curvature="0"
     sodipodi:nodetypes="scccssscsss" />
  <path
     style="color:#000000;display:inline;overflow:visible;visibility:visible;fill:#37a6e6;fill-opacity:1;fill-rule:nonzero;stroke:none;stroke-width:1;marker:none;enable-background:accumulate"
     d="m 203.18279,15.087233 c 35.29673,0 39.09461,3.625419 38.92162,38.993529 v 73.006478 73.00647 c 0.17299,35.36812 -3.62489,38.99353 -38.92162,38.99353 H 57.026038 c -35.296716,0 -38.921616,-3.625 -38.921616,-38.99353 V 127.08724 54.080762 c 0,-35.36853 3.6249,-38.993529 38.921616,-38.993529 z"
     id="rect4158"
     inkscape:connector-curvature="0"
     sodipodi:nodetypes="scccssscsss" />
  <g
     id="g908"
     transform="translate(-290.71186,-95.067799)">
    <g
       id="g954"
       transform="translate(0,0.0872355)">
      <path
         style="fill:#ffda64;stroke-width:2.24000001;fill-opacity:1"
         d="M 242.10352 127.08789 L 242.10352 54.080078 C 242.12514 49.659064 242.08592 45.733971 241.92969 42.25 C 241.77346 38.766029 241.50021 35.723168 241.05859 33.066406 C 240.61698 30.409644 240.00641 28.140557 239.17188 26.201172 C 238.75461 25.231479 238.28175 24.344145 237.74609 23.533203 C 237.21043 22.722261 236.6128 21.986234 235.94531 21.320312 C 235.27782 20.654391 234.54128 20.058066 233.72852 19.523438 C 232.91575 18.988809 232.02617 18.516675 231.05469 18.099609 C 229.11172 17.265477 226.83816 16.653286 224.17969 16.207031 C 221.52121 15.760776 218.47761 15.480711 214.99609 15.3125 C 211.51458 15.144289 207.59569 15.087891 203.18359 15.087891 L 130.10742 15.087891 L 130.10742 127.08789 L 242.10352 127.08789 z "
         id="path902"
         transform="translate(290.71186,94.980563)" />
      <path
         style="fill:#a6d74f;stroke-width:2.24000001;fill-opacity:1"
         d="M 18.103516 127.08789 L 18.103516 200.09375 C 18.103516 204.51482 18.162021 208.43983 18.330078 211.92383 C 18.498135 215.40783 18.776983 218.45065 19.222656 221.10742 C 19.668329 223.76419 20.280435 226.03523 21.113281 227.97461 C 21.529705 228.9443 22.001397 229.83164 22.535156 230.64258 C 23.068915 231.45352 23.663336 232.1876 24.328125 232.85352 C 24.992914 233.51943 25.727595 234.11577 26.537109 234.65039 C 27.346624 235.18501 28.231284 235.65716 29.199219 236.07422 C 31.135088 236.90833 33.40297 237.52251 36.054688 237.96875 C 38.706405 238.41499 41.741626 238.69508 45.21875 238.86328 C 48.695874 239.03148 52.613301 239.08789 57.025391 239.08789 L 130.10742 239.08789 L 130.10742 127.08789 L 18.103516 127.08789 z "
         id="path904"
         transform="translate(290.71186,94.980563)" />
    </g>
  </g>
  <path
     style="color:#000000;display:inline;overflow:visible;visibility:visible;opacity:0.2;fill:#000000;fill-opacity:1;fill-rule:nonzero;stroke:none;stroke-width:1;marker:none;enable-background:accumulate"
     d="m 56.810792,239.17447 c -35.296731,0 -39.094875,-3.62603 -38.921885,-38.99414 v -2 c -0.17299,35.36811 3.625154,38.99414 38.921885,38.99414 H 202.96703 c 35.29673,0 38.92188,-3.62561 38.92188,-38.99414 v 2 c 0,35.36853 -3.62515,38.99414 -38.92188,38.99414 z"
     id="path931-8"
     inkscape:connector-curvature="0"
     sodipodi:nodetypes="sccsscsss" />
  <path
     style="color:#000000;display:inline;overflow:visible;visibility:visible;opacity:0.3;fill:#ffffff;fill-opacity:1;fill-rule:nonzero;stroke:none;stroke-width:1;marker:none;enable-background:accumulate"
     d="m 56.805392,15.174464 c -35.296728,0 -39.09487,3.626029 -38.92188,38.994139 v 2 c -0.17299,-35.36811 3.625152,-38.99414 38.92188,-38.99414 H 202.96163 c 35.29673,0 38.92188,3.62561 38.92188,38.99414 v -2 c 0,-35.36853 -3.62515,-38.994139 -38.92188,-38.994139 z"
     id="path931"
     inkscape:connector-curvature="0"
     sodipodi:nodetypes="sccsscsss" />
  <g
     style="enable-background:new"
     id="g1299"
     transform="translate(-129.93765,40.319761)">
    <g
       transform="translate(-7.9712575,-156.67066)"
       id="layer1">
      <path
         id="path1255"
         style="opacity:1;fill:#494949;fill-opacity:1;stroke-width:2.24000001"
         d="m 325.90558,267.156 c -16.06926,0 -29.12001,13.05074 -29.12001,29.12 0,16.06927 13.05075,29.12 29.12001,29.12 16.06927,0 29.12,-13.05073 29.12,-29.12 0,-16.06926 -13.05073,-29.12 -29.12,-29.12 z m 0,2.24 c 14.85869,0 26.88,12.02132 26.88,26.88 0,14.85866 -12.02131,26.88 -26.88,26.88 -14.85868,0 -26.88001,-12.02134 -26.88001,-26.88 0,-14.85868 12.02133,-26.88 26.88001,-26.88 z"
         inkscape:connector-curvature="0" />
      <path
         id="path1259"
         style="opacity:1;fill:#494949;fill-opacity:1;stroke-width:2.24000001"
         d="m 210.94557,156.676 c -16.06926,0 -29.12,13.05074 -29.12,29.12 0,16.06927 13.05074,29.12 29.12,29.12 16.06927,0 29.12,-13.05073 29.12,-29.12 0,-16.06926 -13.05073,-29.12 -29.12,-29.12 z m 0,2.24 c 14.85868,0 26.88,12.02132 26.88,26.88 0,14.85866 -12.02132,26.88 -26.88,26.88 -14.85868,0 -26.88,-12.02134 -26.88,-26.88 0,-14.85868 12.02132,-26.88 26.88,-26.88 z"
         inkscape:connector-curvature="0" />
      <path
         id="path1263"
         style="opacity:1;fill:#494949;fill-opacity:1;stroke-width:2.24000001"
         d="m 184.78875,271.09317 a 1.120112,1.120112 0 0 0 -1.12,1.12 v 54.45124 a 1.120112,1.120112 0 0 0 1.12,1.12 H 239.24 a 1.120112,1.120112 0 0 0 1.12,-1.12 v -54.45124 a 1.120112,1.120112 0 0 0 -1.12,-1.12 z m 1.12,2.24 H 238.12 v 52.21124 h -52.21125 z"
         inkscape:connector-curvature="0" />
      <path
         id="path1269"
         style="opacity:1;fill:#494949;fill-opacity:1;stroke-width:2.24000001"
         d="m 323.59068,159.33162 a 1.0969286,1.1437853 0 0 0 -0.9812,0.65917 l -7.74489,17.27161 -18.03783,3.1381 a 1.0969286,1.1437853 0 0 0 -0.56623,1.9613 l 13.36062,13.0174 -2.71089,18.85684 a 1.0969286,1.1437853 0 0 0 1.61336,1.16872 l 16.00172,-9.22421 16.3624,8.5165 a 1.0969286,1.1437853 0 0 0 1.56682,-1.24147 l -3.47105,-18.71937 12.82154,-13.59568 a 1.0969286,1.1437853 0 0 0 -0.64767,-1.93704 l -18.1464,-2.34145 -8.43522,-16.91574 a 1.0969286,1.1437853 0 0 0 -0.98508,-0.61468 z m 0.062,3.72445 7.67897,15.39525 a 1.0969286,1.1437853 0 0 0 0.8377,0.60659 l 16.51366,2.1352 -11.66971,12.36634 a 1.0969286,1.1437853 0 0 0 -0.29474,1.01904 l 3.15691,17.03305 -14.88479,-7.74412 a 1.0969286,1.1437853 0 0 0 -1.01998,0.0202 l -14.56288,8.39518 2.46658,-17.1584 a 1.0969286,1.1437853 0 0 0 -0.33741,-1.00287 l -12.15449,-11.84467 16.41284,-2.85907 a 1.0969286,1.1437853 0 0 0 0.81054,-0.64299 z"
         inkscape:connector-curvature="0" />
    </g>
  </g>
</svg>
