<?xml version="1.0" encoding="UTF-8" standalone="no"?>
<svg
   xmlns:dc="http://purl.org/dc/elements/1.1/"
   xmlns:cc="http://creativecommons.org/ns#"
   xmlns:rdf="http://www.w3.org/1999/02/22-rdf-syntax-ns#"
   xmlns:svg="http://www.w3.org/2000/svg"
   xmlns="http://www.w3.org/2000/svg"
   xmlns:sodipodi="http://sodipodi.sourceforge.net/DTD/sodipodi-0.dtd"
   xmlns:inkscape="http://www.inkscape.org/namespaces/inkscape"
   width="256"
   height="256"
   x="0"
   y="0"
   version="1.1"
   viewBox="0 0 256 256"
   xml:space="preserve"
   id="svg34"
   sodipodi:docname="thunderbird.svg"
   inkscape:version="0.92.3 (2405546, 2018-03-11)"><metadata
   id="metadata40"><rdf:RDF><cc:Work
       rdf:about=""><dc:format>image/svg+xml</dc:format><dc:type
         rdf:resource="http://purl.org/dc/dcmitype/StillImage" /><dc:title></dc:title></cc:Work></rdf:RDF></metadata><defs
   id="defs38"><filter
     inkscape:collect="always"
     style="color-interpolation-filters:sRGB"
     id="filter883"
     x="-0.024014019"
     width="1.048028"
     y="-0.023985997"
     height="1.047972"><feGaussianBlur
       inkscape:collect="always"
       stdDeviation="1.1782546"
       id="feGaussianBlur885" /></filter></defs><sodipodi:namedview
   pagecolor="#ffffff"
   bordercolor="#666666"
   borderopacity="1"
   objecttolerance="10"
   gridtolerance="10"
   guidetolerance="10"
   inkscape:pageopacity="0"
   inkscape:pageshadow="2"
   inkscape:window-width="1920"
   inkscape:window-height="1009"
   id="namedview36"
   showgrid="false"
   inkscape:zoom="3.2617188"
   inkscape:cx="147.49724"
   inkscape:cy="128"
   inkscape:window-x="0"
   inkscape:window-y="34"
   inkscape:window-maximized="1"
   inkscape:current-layer="g30" />
 
 <g
   transform="matrix(1.9339366,0,0,1.9339366,6.5418561,1.264273)"
   id="g873"
   style="opacity:0.1;fill:#090909;fill-opacity:1;filter:url(#filter883)">
  <g
   id="g871"
   transform="matrix(2.1052614,0,0,2.1052614,-4.1290642,-138.57667)"
   style="fill:#090909;fill-opacity:1">
   
   <path
   inkscape:connector-curvature="0"
   id="path847"
   d="m 12.848705,113.81613 c 2.428951,3.49346 5.564376,7.60961 9.143849,8.16153 -1.399111,-0.80893 -4.901049,-3.97971 -5.997518,-9.99586 1.164035,2.27981 6.419434,5.30353 7.996691,5.99752 -0.78357,-0.73172 -3.792193,-5.12032 -3.998345,-7.69682 L 9.9089106,107.18228 c 0.06283,0.0956 0.2860654,2.90135 2.9397944,6.63385 z"
   style="fill:#090909;fill-opacity:1" />
   
   <path
   inkscape:connector-curvature="0"
   id="path851"
   d="M 48.756945,88.979481 30.574727,82.603186 11.089251,83.901598 6.1161583,90.107734 c 0.8848932,5.73688 0.3350959,11.947096 3.4167361,16.959216 l 34.4505596,10.91237 4.744387,-13.24283 z"
   style="fill:#090909;fill-opacity:1" />
   
   
   
   <path
   inkscape:connector-curvature="0"
   id="path859"
   d="m 30.503704,72.335214 c -0.0034,7.92e-4 -4.148479,0.01997 -5.957846,0.600975 -3.014965,0.695765 -5.719906,1.978354 -8.399987,3.463799 -3.479938,2.339614 -6.329877,5.578996 -8.5311093,9.123889 -1.9362809,3.417754 -3.1096022,7.219453 -3.5457509,11.115298 -0.2591893,3.949845 0.1926363,7.974565 1.6799976,11.669835 2.8156131,6.34713 9.7856236,13.7478 16.2435456,13.66865 -0.820296,-0.12648 -1.44493,-0.95717 -2.215427,-1.40763 -2.591672,-1.51518 -5.056106,-4.06102 -6.928422,-6.7539 -2.65373,-3.7325 -2.8764832,-6.53697 -2.9393124,-6.63258 l 0.035511,0.011 C 9.0582754,104.38993 8.5305795,101.48951 8.2075414,98.524053 8.1662945,97.86141 8.0835267,97.142737 8.3222739,97.319372 c 0.8930949,1.41548 2.1240481,1.863723 3.6744171,2.667392 -1.470309,-2.312517 -2.1409117,-4.963954 -1.899214,-7.712848 0.242521,-2.758263 1.798775,-5.43232 3.507911,-7.413842 4.477738,-5.126208 11.011402,-9.273279 16.898316,-12.52486 z"
   style="fill:#090909;fill-opacity:1" />
   <path
   inkscape:connector-curvature="0"
   id="path861"
   d="m 25.990884,68.000007 c -4.737368,0.12644 -7.397788,4.977809 -9.26473,8.722128 -0.672468,1.19013 -1.369504,2.602374 -1.956888,3.726491 -1.124206,1.771473 -0.464348,3.89897 -0.231332,5.837054 -0.02454,0.531112 0.300813,1.646185 0.04598,1.75851 -0.514084,1.55298 -1.003961,3.556918 0.225315,4.912913 0.389359,-1.755232 2.304929,-2.600966 3.814495,-3.339232 1.706455,-0.740857 3.087736,-2.363239 4.777372,-3.141871 2.226487,-1.277211 4.376363,0.524 7.23647,0.524 2.734422,0 5.623107,-0.999698 8.328951,-2.216415 0.629742,0.651445 1.756067,1.709547 2.24851,2.482565 h -0.007 c 1.410398,2.255635 2.388267,4.877784 2.709448,7.451223 0.40079,3.366043 0.06497,6.717157 -1.925303,9.266037 -2.36e-4,4e-5 -0.01579,0.003 -0.01579,0.003 4.6e-5,0 0.01379,-4e-5 0.01399,0 0.04102,0.005 3.610414,0.25901 5.99142,-2.00087 -1.698781,13.13503 -9.752864,20.15659 -13.994209,21.9909 5.646058,0.37997 9.995864,-3.99835 9.995864,-3.99835 0.821078,-1.16943 -1.984675,2.79511 -3.998345,3.99835 3.689411,-1.03308 6.159317,-1.40851 8.487519,-3.10726 -8.71e-4,0 1.891865,-1.0299 3.865553,-3.28115 0.262569,-0.29949 0.713676,-0.71508 0.98399,-1.05616 0.168031,-0.21202 0.323363,-0.42946 0.487595,-0.64249 0.02895,-0.035 0.06195,-0.0683 0.08978,-0.10386 4.1541,-5.08179 6.177153,-11.40009 6.027163,-17.125664 C 59.95588,91.719573 57.13888,85.694537 52.4068,80.713717 48.98461,77.111646 45.098021,74.708092 41.597857,73.515497 37.062968,72.213269 31.467849,71.658098 27.465537,72.415369 c -0.379017,0.12672 0.05675,-2.083618 0.524535,-2.416195 -1.122145,0.105046 -2.3384,2.592383 -3.24767,3.146028 0.746216,-1.236311 0.350893,-1.977688 1.248498,-3.146028 -3.336863,0.622976 -2.927113,3.407008 -4.978474,5.351705 0.67584,-3.613586 2.166084,-5.024762 4.978474,-7.350878 z"
   style="fill:#090909;fill-opacity:1" />
   
   
   
   
  </g>
 </g><g
   id="g32"
   transform="matrix(1.9000079,0,0,1.9000079,8.6851429,3.4197033)">
  <g
   transform="matrix(2.1052614,0,0,2.1052614,-4.1290642,-138.57667)"
   id="g30">
   
   <path
   style="fill:#234db8;fill-opacity:1"
   d="m 12.848705,113.81613 c 2.428951,3.49346 5.564376,7.60961 9.143849,8.16153 -1.399111,-0.80893 -4.901049,-3.97971 -5.997518,-9.99586 1.164035,2.27981 6.419434,5.30353 7.996691,5.99752 -0.78357,-0.73172 -3.792193,-5.12032 -3.998345,-7.69682 L 9.9089106,107.18228 c 0.06283,0.0956 0.2860654,2.90135 2.9397944,6.63385 z"
   id="path6"
   inkscape:connector-curvature="0" />
   <path
   style="opacity:0.2"
   d="M 48.756945,89.978163 30.574727,83.601867 11.089251,84.90028 6.1161583,91.106416 c 0.8848932,5.73688 0.3350959,11.947094 3.4167361,16.959214 L 43.983454,118.978 48.727841,105.73517 Z"
   id="path8"
   inkscape:connector-curvature="0" />
   <path
   style="fill:#e3dfd5;fill-opacity:1"
   d="M 48.756945,88.979481 30.574727,82.603186 11.089251,83.901598 6.1161583,90.107734 c 0.8848932,5.73688 0.3350959,11.947096 3.4167361,16.959216 l 34.4505596,10.91237 4.744387,-13.24283 z"
   id="path10"
   inkscape:connector-curvature="0" />
   
   <path
   style="opacity:0.2"
   d="M 47.278005,93.476196 44.580423,84.61467 11.585519,84.283517 11.398445,84.514031 11.089251,84.901598 24,103 Z"
   id="path14"
   inkscape:connector-curvature="0" />
   <path
   style="fill:#faf8f6;fill-opacity:1"
   d="M 47.278005,92.476196 44.580423,83.61467 11.585519,83.283517 11.398445,83.514031 11.089251,83.901598 24,102 Z"
   id="path16"
   inkscape:connector-curvature="0" />
   <path
   style="fill:#2f5fdd;fill-opacity:1"
   d="m 30.503704,72.335214 c -0.0034,7.92e-4 -4.148479,0.01997 -5.957846,0.600975 -3.014965,0.695765 -5.719906,1.978354 -8.399987,3.463799 -3.479938,2.339614 -6.329877,5.578996 -8.5311093,9.123889 -1.9362809,3.417754 -3.1096022,7.219453 -3.5457509,11.115298 -0.2591893,3.949845 0.1926363,7.974565 1.6799976,11.669835 2.8156131,6.34713 9.7856236,13.7478 16.2435456,13.66865 -0.820296,-0.12648 -1.44493,-0.95717 -2.215427,-1.40763 -2.591672,-1.51518 -5.056106,-4.06102 -6.928422,-6.7539 -2.65373,-3.7325 -2.8764832,-6.53697 -2.9393124,-6.63258 l 0.035511,0.011 C 9.0582754,104.38993 8.5305795,101.48951 8.2075414,98.524053 8.1662945,97.86141 8.0835267,97.142737 8.3222739,97.319372 c 0.8930949,1.41548 2.1240481,1.863723 3.6744171,2.667392 -1.470309,-2.312517 -2.1409117,-4.963954 -1.899214,-7.712848 0.242521,-2.758263 1.798775,-5.43232 3.507911,-7.413842 4.477738,-5.126208 11.011402,-9.273279 16.898316,-12.52486 z"
   id="path18"
   inkscape:connector-curvature="0" />
   <path
   style="fill:#37a6e6;fill-opacity:1"
   d="m 25.990884,68.000007 c -4.737368,0.12644 -7.397788,4.977809 -9.26473,8.722128 -0.672468,1.19013 -1.369504,2.602374 -1.956888,3.726491 -1.124206,1.771473 -0.464348,3.89897 -0.231332,5.837054 -0.02454,0.531112 0.300813,1.646185 0.04598,1.75851 -0.514084,1.55298 -1.003961,3.556918 0.225315,4.912913 0.389359,-1.755232 2.304929,-2.600966 3.814495,-3.339232 1.706455,-0.740857 3.087736,-2.363239 4.777372,-3.141871 2.226487,-1.277211 4.376363,0.524 7.23647,0.524 2.734422,0 5.623107,-0.999698 8.328951,-2.216415 0.629742,0.651445 1.756067,1.709547 2.24851,2.482565 h -0.007 c 1.410398,2.255635 2.388267,4.877784 2.709448,7.451223 0.40079,3.366043 0.06497,6.717157 -1.925303,9.266037 -2.36e-4,4e-5 -0.01579,0.003 -0.01579,0.003 4.6e-5,0 0.01379,-4e-5 0.01399,0 0.04102,0.005 3.610414,0.25901 5.99142,-2.00087 -1.698781,13.13503 -9.752864,20.15659 -13.994209,21.9909 5.646058,0.37997 9.995864,-3.99835 9.995864,-3.99835 0.821078,-1.16943 -1.984675,2.79511 -3.998345,3.99835 3.689411,-1.03308 6.159317,-1.40851 8.487519,-3.10726 -8.71e-4,0 1.891865,-1.0299 3.865553,-3.28115 0.262569,-0.29949 0.713676,-0.71508 0.98399,-1.05616 0.168031,-0.21202 0.323363,-0.42946 0.487595,-0.64249 0.02895,-0.035 0.06195,-0.0683 0.08978,-0.10386 4.1541,-5.08179 6.177153,-11.40009 6.027163,-17.125664 C 59.95588,91.719573 57.13888,85.694537 52.4068,80.713717 48.98461,77.111646 45.098021,74.708092 41.597857,73.515497 37.062968,72.213269 31.467849,71.658098 27.465537,72.415369 c -0.379017,0.12672 0.05675,-2.083618 0.524535,-2.416195 -1.122145,0.105046 -2.3384,2.592383 -3.24767,3.146028 0.746216,-1.236311 0.350893,-1.977688 1.248498,-3.146028 -3.336863,0.622976 -2.927113,3.407008 -4.978474,5.351705 0.67584,-3.613586 2.166084,-5.024762 4.978474,-7.350878 z"
   id="path20"
   inkscape:connector-curvature="0" />
   <path
   style="fill:#1a7fd4;fill-opacity:1"
   d="m 16.615437,87.991728 c 6.664543,-0.191821 2.479991,-4.322253 11.374635,-11.995037 -7.246419,3.751988 -14.143635,3.746791 -11.366037,11.995037 h -0.0084 z"
   id="path22"
   inkscape:connector-curvature="0" />
   <path
   style="opacity:0.2;fill:#000000;fill-opacity:1;stroke-width:1"
   d="m 13.605461,84.359938 c -1.709136,1.981522 -3.265281,4.655775 -3.5078,7.414038 -0.03965,0.450886 -0.05241,0.89868 -0.04346,1.343258 0.0057,-0.279984 0.01864,-0.56096 0.04346,-0.843259 0.242519,-2.758263 1.798664,-5.432516 3.5078,-7.414038 z M 8.2470791,96.793006 c -0.093985,0.01852 -0.09422,0.300592 -0.075195,0.649901 0.018802,-0.130667 0.062347,-0.188675 0.1503895,-0.123535 0.8930945,1.41548 2.1239354,1.863804 3.6743054,2.667471 -0.148427,-0.233447 -0.286444,-0.471316 -0.418456,-0.711422 -1.348253,-0.677146 -2.4474921,-1.174872 -3.2558494,-2.456047 -0.029842,-0.02208 -0.05469,-0.03041 -0.075195,-0.02637 z"
   id="path1140"
   inkscape:connector-curvature="0"
   sodipodi:nodetypes="cccccccccccccc" /><path
   style="fill:#ffffff"
   d="m 20.610694,84.639502 c -0.639012,1.167169 -2.130043,1.637585 -2.954876,1.198232 -0.842953,-0.439352 -0.838421,-1.908297 -0.185884,-3.075468 0.629948,-1.167171 3.412599,-0.643495 3.426196,-0.643495 0.01319,0 0.353487,1.357997 -0.28553,2.520731 z"
   id="path24"
   inkscape:connector-curvature="0" />
   <path
   style="fill:#5e5c64"
   d="m 17.815241,89.95908 c 0,0 0.358872,-0.346321 0.171799,-0.979599 -2.237115,0.739668 -3.335625,-1.401722 -3.327819,-1.401722 0.0076,0 -1.676022,4.412314 0.333638,6.411487 0.174086,-1.646529 2.739233,-3.94404 2.747039,-3.94404"
   id="path26"
   inkscape:connector-curvature="0" />
   <circle
   style="fill:#5e5c64"
   cx="19"
   cy="84"
   r="1"
   id="circle28" />
  <path
   style="fill:#000000;fill-opacity:1;stroke-width:1;opacity:0.2"
   d="m 25.990932,67.999987 c -0.224184,0.006 -0.442206,0.02572 -0.657225,0.05225 -2.38246,2.014555 -3.701318,3.483529 -4.321276,6.798317 0.04573,-0.04335 0.08849,-0.08768 0.131837,-0.131835 0.729346,-3.154777 2.204641,-4.533523 4.846664,-6.718728 z m 0,1.999017 c -0.127997,0.0239 -0.248889,0.05194 -0.366211,0.08203 -0.426216,0.862093 -0.267649,1.545584 -0.882319,2.563956 0.117997,-0.07185 0.241194,-0.177128 0.368651,-0.304686 0.261771,-0.805064 0.194319,-1.448967 0.879879,-2.3413 z m 1.999016,0 c -0.118747,0.01112 -0.238509,0.05392 -0.358886,0.113281 -0.218387,0.582997 -0.360386,1.382514 -0.289549,1.684076 0.07584,-0.646001 0.355739,-1.589261 0.648435,-1.797357 z M 14.138919,82.625427 c -0.04742,1.207268 0.255752,2.469325 0.398926,3.660144 -0.01066,0.230723 0.0432,0.569334 0.08789,0.889645 0.01154,-0.03314 0.03368,-0.09717 0.0332,-0.09717 -3.3e-4,0 0.013,0.02307 0.0166,0.03027 -0.02655,-0.402496 -0.153455,-0.981743 -0.137695,-1.322749 -0.123524,-1.027384 -0.364883,-2.107601 -0.398926,-3.160146 z m 24.827555,1.658198 c -2.705843,1.216716 -5.594651,2.216301 -8.329075,2.216301 -2.860105,0 -5.009815,-1.801135 -7.236303,-0.523924 -1.689637,0.778632 -3.070875,2.401222 -4.777327,3.142079 -0.291204,0.142415 -0.598213,0.291585 -0.905759,0.447751 -0.07442,0.06021 -2.553334,2.298855 -2.725089,3.923327 -0.696792,-0.693152 -0.944236,-1.676721 -0.977536,-2.665518 -0.04046,1.148869 0.162787,2.355022 0.977536,3.165517 0.171755,-1.624472 2.650672,-3.863122 2.725089,-3.923327 0.307546,-0.15617 0.614558,-0.305337 0.905759,-0.447751 1.706455,-0.740858 3.08769,-2.363448 4.777327,-3.14208 2.226488,-1.277211 4.376198,0.523924 7.236303,0.523924 2.734424,0 5.623232,-0.999584 8.329075,-2.216301 0.629743,0.651445 1.756084,1.709395 2.248528,2.482414 h -0.0073 c 1.410398,2.255636 2.388284,4.878197 2.709463,7.451636 0.08574,0.720067 0.134707,1.438933 0.144045,2.149895 0.01388,-0.872754 -0.03814,-1.760486 -0.144045,-2.649893 -0.321179,-2.573439 -1.299065,-5.196001 -2.709463,-7.451637 h 0.0073 C 40.722558,85.99302 39.596217,84.93507 38.966474,84.283625 Z m 20.964773,14.711864 c -0.05736,5.498901 -2.07872,11.453721 -6.031717,16.289501 -0.0278,0.0356 -0.06084,0.069 -0.08984,0.104 -0.164232,0.21303 -0.319762,0.43056 -0.487794,0.64258 -0.270309,0.34108 -0.721312,0.75665 -0.983882,1.05615 -1.973681,2.25124 -3.866579,3.28124 -3.865709,3.28124 -2.101356,1.53323 -4.326988,1.99248 -7.451635,2.82616 -0.352707,0.31013 -0.704313,0.58326 -1.035642,0.78124 3.68941,-1.03308 6.159074,-1.40817 8.487277,-3.10692 -8.7e-4,0 1.892028,-1.02999 3.865709,-3.28124 0.26257,-0.29949 0.713573,-0.71507 0.983882,-1.05615 0.168035,-0.21202 0.323562,-0.42954 0.487794,-0.64257 0.029,-0.035 0.06194,-0.0685 0.08984,-0.10401 4.073246,-4.98288 6.095872,-11.15391 6.031717,-16.789981 z m -11.949665,2.489741 c -1.960234,1.86051 -4.69562,2.01429 -5.634749,2.00878 -0.112052,0.166 -0.230132,0.32937 -0.354979,0.48926 -2.35e-4,4e-5 -0.01563,0.003 -0.01563,0.003 4.8e-5,0 0.01396,-4e-5 0.01416,0 0.04054,0.005 3.526724,0.25128 5.906721,-1.92479 0.028,-0.19239 0.05924,-0.38159 0.08447,-0.57666 z m -4.104966,18.09369 c -0.501126,0.48026 -4.126984,3.79676 -8.916476,3.91746 -0.340816,0.18601 -0.667518,0.34802 -0.972654,0.47998 3.681478,0.24776 6.782897,-1.50395 8.501437,-2.75634 0.598748,-0.66339 1.108516,-1.29019 1.387693,-1.6411 z"
   id="path1132"
   inkscape:connector-curvature="0" /></g>
 </g>
<g
   transform="matrix(1.9000079,0,0,1.9000079,-278.77248,2.3349575)"
   id="g913">
  <g
   id="g911"
   transform="matrix(2.1052614,0,0,2.1052614,-4.1290642,-138.57667)">
   
   <path
   style="opacity:0.2;fill:#000000;fill-opacity:1;stroke-width:1"
   d="m 97.855129,68.271245 c -0.224412,0.006 -0.443021,0.02522 -0.658201,0.05176 -2.008335,1.698763 -3.258054,3.011015 -3.971179,5.361311 0.06362,-0.02413 0.12855,-0.04562 0.192385,-0.06934 0.821474,-2.233633 2.214932,-3.505872 4.436995,-5.343733 z m 0,1.999017 c -0.128677,0.02402 -0.249284,0.05273 -0.367186,0.08301 -0.381619,0.770978 -0.296352,1.399388 -0.712888,2.251457 0.06711,-0.01658 0.140274,-0.03128 0.212402,-0.04639 0.241714,-0.779258 0.198152,-1.416616 0.867672,-2.288079 z m 1.999506,0 c -0.118082,0.01105 -0.23725,0.04873 -0.356932,0.107422 -0.219659,0.583126 -0.362731,1.38695 -0.291991,1.689936 0.07598,-0.646001 0.356226,-1.589261 0.648923,-1.797358 z M 75.867409,98.795071 c -0.02126,3.334389 0.494791,6.676349 1.746089,9.785129 2.815614,6.34713 9.785676,13.74805 16.243599,13.6689 -0.208607,-0.12061 -0.467723,-0.3006 -0.754882,-0.52783 -6.238552,-0.47007 -12.78247,-7.54048 -15.488717,-13.64107 -1.188753,-2.95339 -1.714566,-6.11725 -1.746089,-9.285129 z m 55.928531,0.471676 c -0.0573,5.499043 -2.0791,11.454073 -6.03221,16.289993 -0.0278,0.0356 -0.0609,0.069 -0.0898,0.104 -0.16424,0.21303 -0.31928,0.43056 -0.48731,0.64258 -0.27031,0.34108 -0.72131,0.75665 -0.98388,1.05615 -1.97369,2.25125 -3.86658,3.28075 -3.86571,3.28075 -2.10146,1.53331 -4.32765,1.99282 -7.45261,2.82665 -0.35251,0.30988 -0.70406,0.58291 -1.03515,0.78076 3.68941,-1.03308 6.15956,-1.40866 8.48776,-3.10742 -8.7e-4,0 1.89202,-1.0295 3.86571,-3.28075 0.26257,-0.29949 0.71357,-0.71507 0.98388,-1.05614 0.16803,-0.21202 0.32307,-0.42955 0.48731,-0.64258 0.0289,-0.035 0.062,-0.0684 0.0898,-0.104 4.07324,-4.98288 6.09634,-11.15392 6.03221,-16.789993 z M 91.868821,110.15539 c 0.01788,0.16898 0.04814,0.34585 0.0874,0.52783 l 21.458919,6.79685 c 0.10558,-0.13263 0.21164,-0.26322 0.3164,-0.3999 z m -4.009264,1.59765 c 0.04826,0.26481 0.102957,0.52205 0.160157,0.77587 1.418525,2.24128 6.321899,5.05529 7.836399,5.72167 -0.15653,-0.14618 -0.404314,-0.44354 -0.69824,-0.83789 -2.059671,-1.05783 -6.270884,-3.64739 -7.298316,-5.65965 z m 27.883213,8.09568 c -0.49373,0.47357 -4.12226,3.79819 -8.91794,3.91893 -0.34073,0.18604 -0.66757,0.34803 -0.97266,0.47998 3.68188,0.24778 6.78363,-1.50438 8.50193,-2.75683 0.59959,-0.66428 1.10987,-1.29162 1.38867,-1.64208 z"
   id="path887"
   inkscape:connector-curvature="0"
   sodipodi:nodetypes="ccccccccccccccccccccccccccccccccccccccccccccccccccc" />
   
   
   
   
   
   
   
   
   
   
   
  <path
   style="fill:#ffffff;fill-opacity:1;stroke-width:1;opacity:0.3"
   d="m 97.855101,68.271045 c -4.375758,0.116789 -6.969729,4.256586 -8.812961,7.839816 -0.344836,0.18287 -0.688315,0.369716 -1.031734,0.560056 -3.479938,2.339612 -6.329989,5.579104 -8.531222,9.123998 -1.936281,3.41776 -3.109739,7.21934 -3.545885,11.11519 -0.05184,0.78991 -0.07357,1.58282 -0.06592,2.37548 0.0042,-0.62595 0.02499,-1.25166 0.06592,-1.87548 0.436146,-3.89585 1.609604,-7.69744 3.545885,-11.1152 2.201233,-3.544886 5.051284,-6.784378 8.531222,-9.12399 0.343419,-0.190339 0.686898,-0.377186 1.031734,-0.560056 1.748747,-3.399548 4.174536,-7.297368 8.155248,-7.788059 0.213174,-0.180312 0.426981,-0.360921 0.657713,-0.551755 z m 0,1.999016 c -2.398317,0.447761 -2.863001,2.01213 -3.6953,3.5786 -0.249209,0.08408 -0.495379,0.174792 -0.74121,0.266114 -0.06756,0.18369 -0.132922,0.371759 -0.19287,0.569333 0.308777,-0.117119 0.620016,-0.229489 0.93408,-0.335448 0.787652,-1.482438 1.248998,-2.961516 3.328601,-3.495594 0.09134,-0.184462 0.208547,-0.377154 0.366699,-0.583005 z m 1.999503,0 c -0.953769,0.0893 -1.974888,1.896133 -2.818348,2.777333 -0.0165,0.0035 -0.03224,0.0073 -0.04883,0.01074 -0.05408,0.17434 -0.118017,0.353314 -0.212401,0.546386 0.08254,-0.0204 0.172989,-0.03833 0.261231,-0.05713 0.739033,-0.772097 1.614412,-2.25453 2.461417,-2.669911 0.106775,-0.283454 0.229717,-0.516976 0.356931,-0.60742 z m 3.613276,2.073723 c -1.48085,-0.0024 -2.88745,0.106124 -4.138176,0.342771 -0.06352,0.02124 -0.102118,-0.02745 -0.123535,-0.117675 -0.04518,0.385582 -0.01813,0.665038 0.123535,0.617673 4.002316,-0.75727 9.597386,-0.202134 14.132276,1.100097 3.50017,1.192598 7.38686,3.596148 10.80905,7.198216 4.73208,4.980819 7.54917,11.005939 7.51999,17.946229 0.003,0.11517 0.004,0.23104 0.005,0.34668 0.003,-0.28336 0.002,-0.56595 -0.005,-0.84668 0.0292,-6.94029 -2.78791,-12.96541 -7.51999,-17.946228 -3.42219,-3.602068 -7.30888,-6.005617 -10.80905,-7.198216 -3.11773,-0.895284 -6.73624,-1.437522 -9.9941,-1.442867 z m 7.02878,13.355911 c -0.21182,0.093 -0.42306,0.18701 -0.63671,0.27686 l 2.11473,0.74169 c -0.27024,-0.28247 -0.506,-0.51713 -0.75048,-0.76318 z M 91.868791,111.15517 c 0.218444,2.06448 2.130528,5.20283 3.289051,6.7573 0.273849,0.14065 0.513144,0.25645 0.698241,0.33789 -0.722991,-0.67514 -3.337764,-4.46182 -3.89989,-7.06736 z m -4.009264,1.59765 c 0.932914,5.11875 3.60334,8.17126 5.24217,9.46824 0.252401,0.019 0.504243,0.0309 0.75537,0.0278 -1.337568,-0.77335 -4.595165,-3.70758 -5.837383,-9.22068 -0.05868,-0.0927 -0.113908,-0.18481 -0.160157,-0.27539 z m 25.556073,5.22704 c -2.6536,3.33361 -5.5412,5.39296 -7.56345,6.26756 0.32862,0.0221 0.65279,0.0285 0.97167,0.0205 2.00769,-1.09602 4.56672,-3.13387 6.90769,-6.18797 z m 2.32714,2.86864 c -0.15882,0.15233 -0.64662,0.60175 -1.38867,1.14258 -0.77203,0.85531 -1.69605,1.77303 -2.50487,2.25634 0.35947,-0.10066 0.69832,-0.19076 1.03564,-0.28077 1.17732,-1.03508 2.36713,-2.50122 2.8579,-3.11815 z"
   id="path919"
   inkscape:connector-curvature="0" /></g>
 </g></svg>