<?xml version="1.0" encoding="UTF-8" standalone="no"?>
<svg
   xmlns:dc="http://purl.org/dc/elements/1.1/"
   xmlns:cc="http://creativecommons.org/ns#"
   xmlns:rdf="http://www.w3.org/1999/02/22-rdf-syntax-ns#"
   xmlns:svg="http://www.w3.org/2000/svg"
   xmlns="http://www.w3.org/2000/svg"
   xmlns:sodipodi="http://sodipodi.sourceforge.net/DTD/sodipodi-0.dtd"
   xmlns:inkscape="http://www.inkscape.org/namespaces/inkscape"
   width="256"
   height="256"
   version="1.1"
   viewBox="0 0 67.73 67.73"
   id="svg73"
   sodipodi:docname="unetbootin.svg"
   inkscape:version="0.92.3 (2405546, 2018-03-11)">
  <metadata
     id="metadata77">
    <rdf:RDF>
      <cc:Work
         rdf:about="">
        <dc:format>image/svg+xml</dc:format>
        <dc:type
           rdf:resource="http://purl.org/dc/dcmitype/StillImage" />
      </cc:Work>
    </rdf:RDF>
  </metadata>
  <sodipodi:namedview
     pagecolor="#ffffff"
     bordercolor="#666666"
     borderopacity="1"
     objecttolerance="10"
     gridtolerance="10"
     guidetolerance="10"
     inkscape:pageopacity="0"
     inkscape:pageshadow="2"
     inkscape:window-width="1920"
     inkscape:window-height="1009"
     id="namedview75"
     showgrid="false"
     inkscape:zoom="3.2617188"
     inkscape:cx="90.725865"
     inkscape:cy="128"
     inkscape:window-x="0"
     inkscape:window-y="34"
     inkscape:window-maximized="1"
     inkscape:current-layer="g65" />
  <defs
     id="defs23">
    <linearGradient
       id="linearGradient1108"
       x1="296"
       x2="296"
       y1="-212"
       y2="236"
       gradientUnits="userSpaceOnUse">
      <stop
         style="stop-color:#ffffff"
         offset="0"
         id="stop2" />
      <stop
         style="stop-color:#ffffff;stop-opacity:.09803922"
         offset=".125"
         id="stop4" />
      <stop
         style="stop-color:#000000;stop-opacity:.09803922"
         offset=".925"
         id="stop6" />
      <stop
         style="stop-color:#000000;stop-opacity:.49803922"
         offset="1"
         id="stop8" />
    </linearGradient>
    <clipPath
       id="clipPath1082-3-2">
      <path
         d="M 361.9375,-212 C 507.2348,-212 528,-191.28677 528,-46.125 V 70.125 C 528,215.28618 507.2348,236 361.9375,236 H 214.0625 C 68.7652,236 48,215.28618 48,70.125 V -46.125 C 48,-191.28677 68.7652,-212 214.0625,-212 Z"
         style="fill:#8c59d9"
         id="path11" />
    </clipPath>
    <filter
       id="filter4569"
       x="-.01"
       y="-.01"
       width="1.023"
       height="1.025"
       style="color-interpolation-filters:sRGB">
      <feGaussianBlur
         stdDeviation="1.16"
         id="feGaussianBlur14" />
    </filter>
    <filter
       id="filter913"
       x="-.02"
       y="-.03"
       width="1.046"
       height="1.05"
       style="color-interpolation-filters:sRGB">
      <feGaussianBlur
         stdDeviation="2.32"
         id="feGaussianBlur17" />
    </filter>
    <filter
       id="filter1630"
       x="-.05"
       y="-.04"
       width="1.107"
       height="1.087"
       style="color-interpolation-filters:sRGB">
      <feGaussianBlur
         stdDeviation=".888"
         id="feGaussianBlur20" />
    </filter>
    <filter
       inkscape:collect="always"
       style="color-interpolation-filters:sRGB"
       id="filter896"
       x="-0.012277673"
       width="1.0245553"
       y="-0.011734609"
       height="1.0234692">
      <feGaussianBlur
         inkscape:collect="always"
         stdDeviation="0.25657629"
         id="feGaussianBlur898" />
    </filter>
    <filter
       inkscape:collect="always"
       style="color-interpolation-filters:sRGB"
       id="filter922"
       x="-0.04911069"
       width="1.0982214"
       y="-0.046938437"
       height="1.0938769">
      <feGaussianBlur
         inkscape:collect="always"
         stdDeviation="1.0263051"
         id="feGaussianBlur924" />
    </filter>
  </defs>
  <g
     transform="translate(0,-229.26666)"
     id="g71">
    <g
       transform="translate(6.6500051,-2.0580415)"
       id="g69">
      <g
         transform="translate(-4.8098487,6.2358121)"
         id="g67">
        <g
           transform="translate(3.4484146,-4.1861884)"
           id="g65">
          <path
             style="opacity:0.1;fill:#000000;fill-opacity:1;stroke-width:1.50253952;filter:url(#filter922)"
             d="m 49.543517,239.0423 c -4.778365,-4.02215 -12.599497,-2.53839 -17.536583,3.32693 l -2.673637,3.17631 -25.9998243,10.23295 c -0.4944681,0.18953 -0.5989651,0.84083 -0.1901553,1.18554 l 9.7033886,8.16776 -2.2278,2.64666 c -0.610783,0.72561 -1.1472702,1.48356 -1.6106485,2.26189 l 3.0629445,2.57821 -6.2382419,7.4111 0.1865953,1.96625 8.6254656,7.26042 1.969254,-0.15156 6.238243,-7.41112 3.06253,2.57787 c 0.687854,-0.58937 1.343595,-1.24695 1.954377,-1.97256 l 2.227801,-2.64665 10.779663,9.0737 c 0.415707,0.35039 1.050458,0.12359 1.140108,-0.40743 l 4.56682,-28.25253 2.673636,-3.17631 c 4.937088,-5.86532 5.064429,-13.82527 0.286064,-17.84743 z"
             id="path900"
             inkscape:connector-curvature="0"
             transform="matrix(1.0324322,0,0,1.0324322,-0.01386763,-9.4611)" />
          <path
             inkscape:connector-curvature="0"
             id="path890"
             d="m 49.543517,239.0423 c -4.778365,-4.02215 -12.599497,-2.53839 -17.536583,3.32693 l -2.673637,3.17631 -25.9998243,10.23295 c -0.4944681,0.18953 -0.5989651,0.84083 -0.1901553,1.18554 l 9.7033886,8.16776 -2.2278,2.64666 c -0.610783,0.72561 -1.1472702,1.48356 -1.6106485,2.26189 l 3.0629445,2.57821 -6.2382419,7.4111 0.1865953,1.96625 8.6254656,7.26042 1.969254,-0.15156 6.238243,-7.41112 3.06253,2.57787 c 0.687854,-0.58937 1.343595,-1.24695 1.954377,-1.97256 l 2.227801,-2.64665 10.779663,9.0737 c 0.415707,0.35039 1.050458,0.12359 1.140108,-0.40743 l 4.56682,-28.25253 2.673636,-3.17631 c 4.937088,-5.86532 5.064429,-13.82527 0.286064,-17.84743 z"
             style="opacity:0.1;fill:#000000;fill-opacity:1;stroke-width:1.50253952;filter:url(#filter896)"
             transform="matrix(1.0324322,0,0,1.0324322,-0.01386763,-9.4611)" />
          <path
             style="opacity:0.1;fill:#000000;fill-opacity:1;stroke-width:1.55127013"
             d="m 51.136454,237.33386 c -4.933338,-4.15259 -13.008126,-2.62071 -18.105333,3.43483 l -2.760349,3.27933 -26.8430551,10.56483 c -0.5105048,0.19567 -0.6183909,0.8681 -0.1963225,1.22399 l 10.0180906,8.43265 -2.300052,2.7325 c -0.630592,0.74914 -1.184479,1.53168 -1.6628856,2.33525 l 3.1622826,2.66183 -6.4405619,7.65145 0.192647,2.03002 8.9052079,7.4959 2.033122,-0.15648 6.440563,-7.65148 3.161854,2.66148 c 0.710163,-0.60849 1.387171,-1.28739 2.017762,-2.03654 l 2.300053,-2.73248 11.129271,9.36798 c 0.42919,0.36175 1.084527,0.12759 1.177084,-0.42065 l 4.714932,-29.16882 2.760348,-3.27932 c 5.097209,-6.05555 5.22868,-14.27366 0.295342,-18.42627 z"
             id="path884"
             inkscape:connector-curvature="0" />
          <path
             d="M 30.49052,244.5278 4.5483867,254.96561 c -0.4933186,0.19343 -0.6028475,0.84401 -0.1994634,1.18417 l 37.2333917,31.34094 c 0.410194,0.34575 1.043218,0.11407 1.137097,-0.41633 l 4.792952,-28.21858 z"
             style="fill:#7e7e7e;stroke-width:1.49617541"
             id="path53"
             inkscape:connector-curvature="0" />
          <path
             d="m 13.085603,271.68319 -6.2685159,7.44707 0.1683729,1.95936 8.510922,7.16401 1.959358,-0.16835 6.268516,-7.44708 z"
             style="fill:#d5d5d5;stroke-width:1.49617541"
             id="path55"
             inkscape:connector-curvature="0" />
          <g
             transform="matrix(0.80418165,0.67691413,-0.67691413,0.80418165,218.77872,48.519548)"
             id="g61">
            <path
               style="opacity:0.3;stroke-width:3.84824705"
               d="m 109.75391,209.44141 v 15.27343 h 10.18359 v -15.27343 z m 28.51562,0 v 15.27343 h 10.18359 v -15.27343 z"
               transform="matrix(0.25985858,0,0,0.25985858,-39.920636,236.65483)"
               id="rect57"
               inkscape:connector-curvature="0" />
            <path
               style="opacity:0.3;fill:#ffffff;fill-opacity:1;stroke-width:3.84824705"
               d="m 109.75391,209.44141 v 2 h 10.18359 v -2 z m 28.51562,0 v 2 h 10.18359 v -2 z"
               transform="matrix(0.25985858,0,0,0.25985858,-39.920636,236.65483)"
               id="path924"
               inkscape:connector-curvature="0" />
            <path
               style="opacity:0.2;fill:#000000;fill-opacity:1;stroke-width:3.84824705"
               d="m 109.75391,222.71484 v 2 h 10.18359 v -2 z m 28.51562,0 v 2 h 10.18359 v -2 z"
               transform="matrix(0.25985858,0,0,0.25985858,-39.920636,236.65483)"
               id="path929"
               inkscape:connector-curvature="0" />
          </g>
          <path
             d="m 50.642958,237.86155 c -4.715052,-3.96885 -12.504851,-2.41917 -17.465936,3.47465 l -21.492019,25.53276 c -0.613757,0.72916 -1.153785,1.49007 -1.621443,2.27044 l 16.682738,14.04258 c 0.689158,-0.59394 1.346791,-1.25585 1.960549,-1.98501 l 21.492019,-25.53276 c 4.961085,-5.89382 5.159141,-13.83379 0.444092,-17.80266 z"
             style="fill:#bebebe;stroke-width:1.49617541"
             id="path63"
             inkscape:connector-curvature="0" />
          <path
             style="opacity:0.3;fill:#ffffff;fill-opacity:1;stroke-width:1.49617517"
             d="m 50.642958,237.86155 c -4.715052,-3.96885 -12.50454,-2.41924 -17.465625,3.47459 l -0.351804,0.41795 c 4.961084,-5.89383 12.750575,-7.44344 17.465626,-3.47459 4.71505,3.96887 4.517005,11.90853 -0.44408,17.80235 l 0.351803,-0.41795 c 4.961083,-5.89382 5.159131,-13.83348 0.44408,-17.80235 z m -20.152255,6.66633 -25.9423196,10.4375 c -0.2146035,0.0841 -0.3509455,0.25614 -0.4096142,0.45017 0.019968,-0.0103 0.036336,-0.0239 0.057784,-0.0322 L 30.138901,244.94583 Z m 17.021546,14.32777 -0.351804,0.41795 -4.793039,28.21882 c -0.0053,0.0294 -0.01786,0.0542 -0.02631,0.0818 0.186945,-0.0934 0.336498,-0.2647 0.378093,-0.4997 z"
             id="path53-3"
             inkscape:connector-curvature="0" />
          <path
             style="opacity:0.2;fill:#000000;fill-opacity:1;stroke-width:1.49617517"
             d="m 4.4899214,254.9975 c -0.4393006,0.22187 -0.5263599,0.82692 -0.1406652,1.15214 l 9.5748218,8.05954 0.351804,-0.41795 -9.5748222,-8.05954 C 4.4731669,255.53953 4.4137382,255.24951 4.4899214,254.9975 Z m 38.2034436,32.15817 c -0.235112,0.11789 -0.53035,0.10957 -0.759105,-0.0832 l -10.636835,-8.95348 -0.351802,0.41795 10.636832,8.95348 c 0.387653,0.32665 0.96829,0.13451 1.11091,-0.33474 z m -30.656116,-20.70491 -0.351804,0.41794 c -0.613758,0.72915 -1.154288,1.49027 -1.621925,2.27068 l 3.02195,2.5437 0.351803,-0.41795 -3.021949,-2.54371 c 0.467634,-0.7804 1.008174,-1.54152 1.621925,-2.27066 z m 17.021543,14.32776 c -0.613751,0.72915 -1.271535,1.39158 -1.960691,1.98552 l -3.021953,-2.54371 -0.351803,0.41795 3.021953,2.5437 c 0.68916,-0.59394 1.346932,-1.25637 1.960691,-1.9855 z m -21.8897416,-2.06666 -0.3518036,0.41794 0.1683932,1.95972 8.510772,7.16388 1.959709,-0.1684 0.351803,-0.41795 -1.959709,0.16839 -8.5107717,-7.16388 z"
             id="path893"
             inkscape:connector-curvature="0" />
        </g>
      </g>
    </g>
  </g>
</svg>
