<svg id="svg4" height="16" width="16" xmlns="http://www.w3.org/2000/svg">
  <g id="g10" fill="#c6272f" transform="matrix(.9375 0 0 .9375 .5 .5)">
    <path id="path2-3" d="m5.3261719 0c-1.67759.0195-2.9064963-.04015813-3.9101563.51367188-.50182995.27685999-.89762746.74519812-1.11718748 1.33007812-.21956.58488-.29882812 1.27944-.29882812 2.15625v8c0 .87681.07924813 1.57137.29882812 2.15625.21956002.58488.61535753 1.053218 1.11718748 1.330078 1.00366.55376 2.2325663.494242 3.9101563.513672h.00391 5.3398441.0039c1.67759-.0195 2.904543.04016 3.908203-.513672.50183-.27686.897628-.745198 1.117188-1.330078.219984-.58488.300783-1.27944.300783-2.15625v-8c0-.87681-.079248-1.57136-.298828-2.15625-.21955-.58488-.615358-1.05319813-1.117188-1.33007812-1.00366-.55379-2.232556-.49431188-3.910156-.51367188h-.0039-2.0039064-3.3359375z" fill="#c6272f"/>
    <path id="path4" d="m5.3261719 0c-1.67759.0195-2.9064963-.04015813-3.9101563.51367188-.50182995.27685999-.89762746.74519812-1.11718748 1.33007812-.21956.58488-.29882812 1.27944-.29882812 2.15625v8c0 .87681.07924813 1.57137.29882812 2.15625.21956002.58488.61535753 1.053218 1.11718748 1.330078 1.00366.55376 2.2325663.494242 3.9101563.513672h.00391 5.3398441.0039c1.67759-.0195 2.904543.04016 3.908203-.513672.50183-.27686.897628-.745198 1.117188-1.330078.219984-.58488.300783-1.27944.300783-2.15625v-8c0-.87681-.079248-1.57136-.298828-2.15625-.21955-.58488-.615358-1.05319813-1.117188-1.33007812-1.00366-.55379-2.232556-.49431188-3.910156-.51367188h-.0039-2.0039064-3.3359375z" fill="#ed3146"/>
    <path id="path6" d="m5.3261719 0c-1.6775901.0195-2.9064964-.040158-3.9101563.5136719-.50183.27686-.89762753.7451981-1.11718753 1.3300781s-.2988281 1.27944-.2988281 2.15625v.5c0-.87681.079268-1.57137.2988281-2.15625.21956-.58488.61535753-1.0532181 1.11718753-1.3300781 1.0036599-.55383 2.2325662-.4941719 3.9101563-.5136719h.00391 3.3359375 2.0039066.0039c1.6776.01936 2.906496-.040118 3.910156.5136719.50183.27688.897638.7451981 1.117188 1.3300781.219582.58489.29883 1.27944.29883 2.15625v-.5c0-.87681-.07925-1.57136-.298828-2.15625-.21955-.58488-.615358-1.0531981-1.117188-1.3300781-1.00366-.55379-2.232556-.4943119-3.910156-.5136719h-.0039-2.0039064-3.3359375z" fill="#fff" opacity=".3"/>
    <path id="path8" d="m10.673828 16c1.67759-.0195 2.906496.04016 3.910156-.513672.50183-.27686.897628-.745198 1.117188-1.330078s.298828-1.27944.298828-2.15625v-.5c0 .87681-.07927 1.57137-.298828 2.15625-.21956.58488-.615358 1.053218-1.117188 1.330078-1.00366.55383-2.232566.494172-3.910156.513672h-.0039-3.3359374-2.0039064-.0039c-1.67761-.01936-2.906506.04012-3.910166-.513672-.50183-.27688-.897638-.745198-1.117188-1.330078-.2195822-.58489-.2988302-1.27944-.2988302-2.15625v.5c0 .87681.079248 1.57136.298828 2.15625.21955.58488.615358 1.053198 1.117188 1.330078 1.00366.55379 2.232556.494312 3.910156.513672h.0039 2.0039064 3.3359376z" fill="#100001" opacity=".2"/>
  </g>
  <path id="path2" d="m4.7835828 2.3757615a.40172869.40172869 0 0 0 -.4017281.4017286.40172869.40172869 0 0 0 .4017281.4017287v.00803a1.5153206 1.7410921 0 0 1 1.1915278.8918377 3.2138295 4.0172869 0 0 0 -1.0171772 1.8222411 4.8448479 4.0172869 0 0 0 .01125.00806 4.3097453 4.3097453 0 0 0 -2.2054903 2.1757618c-.9641484 2.1203316-.1092703 4.5837316 1.9098178 5.5036906a.40092522.40092522 0 0 0 .5318888-.200061l.7174875-1.574777a3.2138295 4.2181512 0 0 0 2.0745272 1.006733 3.2138295 4.2181512 0 0 0 2.0793476-1.007536l.717488 1.57558c.09159.202471.329417.291655.531888.199257 2.019089-.919155 2.874771-3.382555 1.909819-5.5036822a4.3105488 4.3105488 0 0 0 -2.206295-2.1757618 4.8448479 4.0172869 0 0 0 .0065-.00319 3.2138295 4.0172869 0 0 0 -1.018784-1.8222417 1.5153206 1.7410921 0 0 1 1.193938-.8958549v-.00803a.40172869.40172869 0 0 0 .401656-.401729.40172869.40172869 0 0 0 -.401728-.4017287.40172869.40172869 0 0 0 -.136588.0233006 2.318778 2.5445495 0 0 0 -1.692884 1.1754582 3.2138295 4.0172869 0 0 0 -1.3843576-.395301 3.2138295 4.0172869 0 0 0 -1.3819472.3985148 2.318778 2.5445495 0 0 0 -1.6952944-1.178672.40172869.40172869 0 0 0 -.1365881-.024104zm1.2477694 4.0654946a4.8448479 4.0172869 0 0 0 1.3120462.3109378l-1.9572225 4.2992991-.7279322 1.598881c-1.3530225-.848451-1.8833043-2.649802-1.1626031-4.2334177a3.4508494 3.4508494 0 0 1 1.72422-1.7290393c.067491-.031331.1365872-.053831.2056847-.080344a3.334348 3.334348 0 0 1 .5487619-.1550669l.056241-.01125zm3.9385481 0 .037762.00647c.219344.040172.433867.1044488.641963.1888125.03776.015263.07713.026512.114091.043388a3.4516528 3.4516528 0 0 1 1.74029 1.7370737c.720701 1.5836157.190419 3.3849667-1.162604 4.2342217l-.7295393-1.603708-1.9556156-4.2952817a4.8448479 4.0172869 0 0 0 1.3136529-.3109378z" fill="#fff" stroke-width=".803457"/>
</svg>
