<svg height="24" width="24" xmlns="http://www.w3.org/2000/svg"><path d="m7.176478 1.4979606c-5.14666 0-5.70043.43262-5.67521 4.65309v5.8479304 5.847939c-.0253 4.22046.52855 4.65308 5.67521 4.65308h9.6464c5.14665 0 5.67521-.43256 5.67521-4.65308v-5.847939-5.8479304c0-4.22051-.52857-4.65309-5.67522-4.65309z" fill="#2f5fdd"/><path d="m11.998008 5.0010006c-1.10456 0-1.99999.89543-1.99999 1.99998 0 1.10457.89543 2 1.99999 2 1.10457 0 1.99999-.89543 1.99999-2 0-1.10455-.89542-1.99998-1.99999-1.99998zm-5.99997 4.9999704v1l1.23974.002c.52118-.00001.96402.0752 1.32861.23486.35813.14879.65187.3682.86767.65527.22113.27541.37468.60682.46094.98632.0868.382119.0994.785659.12597 1.212399l.00049.006-.009 4.9033h.98584v-3.49998c0-.55229.44771-1 .99999-1s1 .44771 1 1v3.49998h.99999l.009-4.89744c.001-.44248.0421-.85073.12695-1.224119.0864-.38013.2402-.7121.46192-.98778.21581-.28643.50945-.50577.86718-.6543.36441-.15939.88033-.23437 1.32763-.23437h1.20708v-1.00195z" fill="#faf8f6"/><path d="m7.1757812 1.4980469c-5.1466599 0-5.6990481.4318737-5.6738281 4.6523437v.5c-.02522-4.22047.5271682-4.6523437 5.6738281-4.6523437h9.6464848c5.14665 0 5.675781.4318337 5.675781 4.6523437v-.5c0-4.22051-.529131-4.6523437-5.675781-4.6523437z" fill="#fff" opacity=".3"/><path d="m16.823431 22.5c5.146659 0 5.699048-.431874 5.673828-4.652344v-.5c.02522 4.22047-.527169 4.652344-5.673828 4.652344h-9.6464852c-5.14665 0-5.675781-.431834-5.675781-4.652344v.5c0 4.22051.529131 4.652344 5.675781 4.652344z" fill="#020000" opacity=".2"/></svg>