<?xml version="1.0" encoding="UTF-8" standalone="no"?>
<svg
   xmlns:dc="http://purl.org/dc/elements/1.1/"
   xmlns:cc="http://creativecommons.org/ns#"
   xmlns:rdf="http://www.w3.org/1999/02/22-rdf-syntax-ns#"
   xmlns:svg="http://www.w3.org/2000/svg"
   xmlns="http://www.w3.org/2000/svg"
   xmlns:xlink="http://www.w3.org/1999/xlink"
   xmlns:sodipodi="http://sodipodi.sourceforge.net/DTD/sodipodi-0.dtd"
   xmlns:inkscape="http://www.inkscape.org/namespaces/inkscape"
   width="256"
   height="256"
   version="1.1"
   viewBox="0 0 67.73 67.73"
   id="svg61"
   sodipodi:docname="folder-drag-accept.svg"
   inkscape:version="0.92.3 (2405546, 2018-03-11)">
  <metadata
     id="metadata65">
    <rdf:RDF>
      <cc:Work
         rdf:about="">
        <dc:format>image/svg+xml</dc:format>
        <dc:type
           rdf:resource="http://purl.org/dc/dcmitype/StillImage" />
      </cc:Work>
    </rdf:RDF>
  </metadata>
  <sodipodi:namedview
     pagecolor="#ffffff"
     bordercolor="#666666"
     borderopacity="1"
     objecttolerance="10"
     gridtolerance="10"
     guidetolerance="10"
     inkscape:pageopacity="0"
     inkscape:pageshadow="2"
     inkscape:window-width="1920"
     inkscape:window-height="1009"
     id="namedview63"
     showgrid="false"
     inkscape:zoom="3.2617188"
     inkscape:cx="18.548504"
     inkscape:cy="128"
     inkscape:window-x="0"
     inkscape:window-y="34"
     inkscape:window-maximized="1"
     inkscape:current-layer="svg61" />
  <defs
     id="defs35">
    <radialGradient
       id="radialGradient1363-3"
       cx="148"
       cy="39.684"
       r="112"
       gradientTransform="matrix(.26458333 0 0 .06723474 -6.4240841 251.45221)"
       gradientUnits="userSpaceOnUse"
       xlink:href="#linearGradient1361" />
    <linearGradient
       id="linearGradient1361">
      <stop
         style="stop-color:#ffffff"
         offset="0"
         id="stop3" />
      <stop
         style="stop-color:#ffffff;stop-opacity:.20392157"
         offset="1"
         id="stop5" />
    </linearGradient>
    <radialGradient
       id="radialGradient2373"
       cx="152"
       cy="-.126"
       r="112"
       gradientTransform="matrix(.26458333 0 0 .06959709 -6.4240831 236.13742)"
       gradientUnits="userSpaceOnUse"
       xlink:href="#linearGradient1361" />
    <linearGradient
       id="linearGradient2371"
       x1="291.31"
       x2="291.31"
       y1="138.552"
       y2="474"
       gradientTransform="matrix(.11988932 0 0 .11988932 3.1009165 232.21778)"
       gradientUnits="userSpaceOnUse">
      <stop
         style="stop-color:#fb7c38"
         offset="0"
         id="stop9" />
      <stop
         style="stop-color:#fda463"
         offset="1"
         id="stop11" />
    </linearGradient>
    <clipPath
       id="clipPath977-1">
      <path
         d="M 78.994141,52 C 43.625611,52 40,53.999146 40,89.296875 V 140 H 264 V 108.92188 C 264,73.624145 260.37439,68 225.00586,68 H 138 L 122,52 Z"
         style="fill:#f6531e"
         id="path14" />
    </clipPath>
    <filter
       id="filter989"
       x="-.05"
       y="-.07"
       width="1.107"
       height="1.136"
       style="color-interpolation-filters:sRGB">
      <feGaussianBlur
         stdDeviation="5"
         id="feGaussianBlur17" />
    </filter>
    <linearGradient
       id="linearGradient2369"
       x1="264"
       x2="48"
       y1="252"
       y2="52"
       gradientTransform="translate(-27.28,-38.771199)"
       gradientUnits="userSpaceOnUse">
      <stop
         style="stop-color:#000000"
         offset="0"
         id="stop20" />
      <stop
         style="stop-color:#000000;stop-opacity:.43290043"
         offset=".159"
         id="stop22" />
      <stop
         style="stop-color:#000000;stop-opacity:.0995671"
         offset=".194"
         id="stop24" />
      <stop
         style="stop-color:#000000;stop-opacity:0"
         offset="1"
         id="stop26" />
    </linearGradient>
    <filter
       id="filter959"
       x="-.01"
       y="-.01"
       width="1.023"
       height="1.025"
       style="color-interpolation-filters:sRGB">
      <feGaussianBlur
         stdDeviation="1.06"
         id="feGaussianBlur29" />
    </filter>
    <filter
       id="filter1344"
       x="-.01"
       y="-.01"
       width="1.023"
       height="1.025"
       style="color-interpolation-filters:sRGB">
      <feGaussianBlur
         stdDeviation="1.06"
         id="feGaussianBlur32" />
    </filter>
    <radialGradient
       inkscape:collect="always"
       xlink:href="#linearGradient1361"
       id="radialGradient1363-3-3"
       cx="148"
       cy="39.683556"
       fx="148"
       fy="39.683556"
       r="112"
       gradientTransform="matrix(0.26457031,0,0,0.06723143,-6.1591973,22.934803)"
       gradientUnits="userSpaceOnUse" />
    <radialGradient
       inkscape:collect="always"
       xlink:href="#linearGradient1361"
       id="radialGradient2373-6"
       gradientUnits="userSpaceOnUse"
       gradientTransform="matrix(0.26457031,0,0,0.06959366,-6.1591968,7.6207684)"
       cx="152"
       cy="-0.12591045"
       fx="152"
       fy="-0.12591045"
       r="112" />
    <linearGradient
       inkscape:collect="always"
       xlink:href="#linearGradient3602"
       id="linearGradient2371-7"
       gradientUnits="userSpaceOnUse"
       gradientTransform="matrix(0.11988342,0,0,0.11988342,3.3653344,3.7013254)"
       x1="291.31033"
       y1="138.55173"
       x2="291.31033"
       y2="474" />
    <linearGradient
       id="linearGradient3602"
       inkscape:collect="always">
      <stop
         id="stop3597"
         offset="0"
         style="stop-color:#f3994a;stop-opacity:1" />
      <stop
         id="stop3599"
         offset="1"
         style="stop-color:#f6b069;stop-opacity:1" />
    </linearGradient>
    <clipPath
       clipPathUnits="userSpaceOnUse"
       id="clipPath977">
      <path
         id="path979"
         d="M 78.994141,52 C 43.625611,52 40,53.999146 40,89.296875 V 140 H 264 V 108.92188 C 264,73.624145 260.37439,68 225.00586,68 H 138 L 122,52 Z"
         style="color:#000000;display:inline;overflow:visible;visibility:visible;fill:#f6531e;fill-opacity:1;fill-rule:nonzero;stroke:none;stroke-width:1;marker:none;enable-background:accumulate"
         inkscape:connector-curvature="0" />
    </clipPath>
    <filter
       inkscape:collect="always"
       style="color-interpolation-filters:sRGB"
       id="filter989-5"
       x="-0.053571429"
       width="1.1071429"
       y="-0.06818182"
       height="1.1363636">
      <feGaussianBlur
         inkscape:collect="always"
         stdDeviation="5"
         id="feGaussianBlur991" />
    </filter>
    <linearGradient
       inkscape:collect="always"
       xlink:href="#linearGradient1055"
       id="linearGradient2369-3"
       gradientUnits="userSpaceOnUse"
       x1="264"
       y1="252"
       x2="48"
       y2="52"
       gradientTransform="translate(-27.28,-38.771199)" />
    <linearGradient
       inkscape:collect="always"
       id="linearGradient1055">
      <stop
         style="stop-color:#000000;stop-opacity:1;"
         offset="0"
         id="stop1051" />
      <stop
         id="stop1059"
         offset="0.1589853"
         style="stop-color:#000000;stop-opacity:0.43290043" />
      <stop
         style="stop-color:#000000;stop-opacity:0.0995671"
         offset="0.19443204"
         id="stop1061" />
      <stop
         style="stop-color:#000000;stop-opacity:0;"
         offset="1"
         id="stop1053" />
    </linearGradient>
    <filter
       inkscape:collect="always"
       style="color-interpolation-filters:sRGB"
       id="filter1067"
       x="-0.056785714"
       width="1.1135714"
       y="-0.063600004"
       height="1.1272">
      <feGaussianBlur
         inkscape:collect="always"
         stdDeviation="5.3"
         id="feGaussianBlur1069" />
    </filter>
    <filter
       inkscape:collect="always"
       style="color-interpolation-filters:sRGB"
       id="filter959-5"
       x="-0.011357143"
       width="1.0227143"
       y="-0.01272"
       height="1.02544">
      <feGaussianBlur
         inkscape:collect="always"
         stdDeviation="1.06"
         id="feGaussianBlur961" />
    </filter>
    <filter
       inkscape:collect="always"
       style="color-interpolation-filters:sRGB"
       id="filter1344-6"
       x="-0.011357143"
       width="1.0227143"
       y="-0.01272"
       height="1.02544">
      <feGaussianBlur
         inkscape:collect="always"
         stdDeviation="1.06"
         id="feGaussianBlur1346" />
    </filter>
  </defs>
  <path
     style="color:#000000;display:inline;overflow:visible;visibility:visible;opacity:0.1;fill:#000000;fill-opacity:1;fill-rule:nonzero;stroke:none;stroke-width:1;marker:none;filter:url(#filter1344-6);enable-background:accumulate"
     d="m 51.714141,15.228801 c -35.36853,0 -38.994141,1.99915 -38.994141,37.29687 v 41.62501 9.078119 73.07812 c 0,35.29774 3.625611,38.92188 38.994141,38.92188 H 197.72586 c 35.36853,0 38.99414,-3.62414 38.99414,-38.92188 v -73.07812 -25.078119 -6 c 0,-35.29774 -3.62561,-40.92188 -38.99414,-40.92188 H 110.72 l -16,-16 z"
     id="path1339"
     inkscape:connector-curvature="0"
     transform="matrix(0.26457031,0,0,0.26457031,1.0582812,1.9954955)" />
  <path
     style="color:#000000;display:inline;overflow:visible;visibility:visible;opacity:0.1;fill:#000000;fill-opacity:1;fill-rule:nonzero;stroke:none;stroke-width:1;marker:none;filter:url(#filter959-5);enable-background:accumulate"
     d="m 51.714141,14.228801 c -35.36853,0 -38.994141,1.99915 -38.994141,37.29687 v 41.62501 60.656239 29.5 c 0,35.29774 3.625611,38.92188 38.994141,38.92188 H 197.72586 c 35.36853,0 38.99414,-3.62414 38.99414,-38.92188 v -29.5 -76.656239 -6 c 0,-35.29774 -3.62561,-40.92188 -38.99414,-40.92188 H 110.72 l -16,-16 z"
     id="path953"
     inkscape:connector-curvature="0"
     sodipodi:nodetypes="ssccssssccssccs"
     transform="matrix(0.26457031,0,0,0.26457031,1.0582812,1.9954955)" />
  <path
     inkscape:connector-curvature="0"
     id="path1049"
     d="m 51.714141,13.228801 c -35.36853,0 -38.994141,1.99915 -38.994141,37.29687 v 41.62501 9.078119 81.07812 c 0,35.29774 3.625611,38.92188 38.994141,38.92188 H 197.72586 c 35.36853,0 38.99414,-3.62414 38.99414,-38.92188 v -81.07812 -25.078119 -6 c 0,-35.29774 -3.62561,-40.92188 -38.99414,-40.92188 H 110.72 l -16,-16 z"
     style="color:#000000;display:inline;overflow:visible;visibility:visible;opacity:0.4;fill:url(#linearGradient2369-3);fill-opacity:1;fill-rule:nonzero;stroke:none;stroke-width:1;marker:none;filter:url(#filter1067);enable-background:accumulate"
     sodipodi:nodetypes="ssccssssccssccs"
     transform="matrix(0.26457031,0,0,0.26457031,1.0582812,1.9954955)" />
  <path
     style="color:#000000;display:inline;overflow:visible;visibility:visible;fill:#ec7223;fill-opacity:1;fill-rule:nonzero;stroke:none;stroke-width:0.26457033;marker:none;enable-background:accumulate"
     d="m 14.740307,5.4954434 c -9.3574623,0 -10.3166913,0.528916 -10.3166913,9.8676436 V 39.360443 H 63.687365 V 20.555282 c 0,-9.338734 -0.959228,-10.8267136 -10.316691,-10.8267136 H 30.351506 l -4.233125,-4.233125 z"
     id="path4236"
     inkscape:connector-curvature="0"
     sodipodi:nodetypes="ssccssccs" />
  <path
     sodipodi:nodetypes="ssssssssccs"
     style="color:#000000;display:inline;overflow:visible;visibility:visible;opacity:0.5;fill:#903906;fill-opacity:1;fill-rule:nonzero;stroke:none;stroke-width:1;marker:none;filter:url(#filter989-5);enable-background:accumulate"
     d="M 78.99353,124 C 43.625,124 40,127.625 40,162.92273 v 50.15454 C 40,248.375 43.625,252 78.99353,252 H 225.00647 C 260.375,252 264,248.375 264,213.07727 V 146.92273 C 264,111.625 260.375,108 225.00647,108 H 143.75 l -16.00782,16 z"
     id="path969"
     inkscape:connector-curvature="0"
     clip-path="url(#clipPath977)"
     transform="matrix(0.26457031,0,0,0.26457031,-6.1591968,-6.1456506)" />
  <path
     inkscape:connector-curvature="0"
     id="rect4158"
     d="m 14.740146,26.661067 c -9.3574629,0 -10.3165303,0.959067 -10.3165303,10.2978 v 13.269402 c 0,9.338731 0.9590674,10.297799 10.3165303,10.297799 h 38.630689 c 9.357463,0 10.31653,-0.959068 10.31653,-10.297799 V 32.725741 c 0,-9.338732 -0.961901,-10.067549 -10.31653,-10.297799 h -21.49805 l -4.235194,4.233125 z"
     style="color:#000000;display:inline;overflow:visible;visibility:visible;fill:url(#linearGradient2371-7);fill-opacity:1;fill-rule:nonzero;stroke:none;stroke-width:0.26457033;marker:none;enable-background:accumulate"
     sodipodi:nodetypes="ssssssssccs" />
  <path
     style="color:#000000;display:inline;overflow:visible;visibility:visible;opacity:0.4;fill:url(#radialGradient2373-6);fill-opacity:1;fill-rule:nonzero;stroke:none;stroke-width:0.26457033;marker:none;enable-background:accumulate"
     d="m 14.740307,5.4954434 c -9.3574623,0 -10.3166913,0.528916 -10.3166913,9.8676436 v 0.52914 c 0,-9.3387276 0.959229,-9.8676436 10.3166913,-9.8676436 h 11.378074 l 4.233125,4.2331256 h 23.019168 c 9.357463,0 10.316691,1.48798 10.316691,10.826713 v -0.52914 c 0,-9.338734 -0.959228,-10.8267136 -10.316691,-10.8267136 H 30.351506 l -4.233125,-4.233125 z"
     id="path993"
     inkscape:connector-curvature="0"
     sodipodi:nodetypes="sscsccscssccs" />
  <path
     style="color:#000000;display:inline;overflow:visible;visibility:visible;opacity:0.1;fill:#ffffff;fill-opacity:1;fill-rule:nonzero;stroke:none;stroke-width:0.26457033;marker:none;enable-background:accumulate"
     d="m 63.687365,43.064427 -16.9325,16.9325 h 6.615809 c 9.357463,0 10.316691,-0.95884 10.316691,-10.297574 z"
     id="path1043"
     inkscape:connector-curvature="0"
     sodipodi:nodetypes="ccssc" />
  <path
     style="color:#000000;display:inline;overflow:visible;visibility:visible;opacity:0.2;fill:#491706;fill-opacity:1;fill-rule:nonzero;stroke:none;stroke-width:0.26457033;marker:none;enable-background:accumulate"
     d="m 4.4236157,49.699353 v 0.529141 c 0,9.338734 0.959229,10.297574 10.3166913,10.297574 h 38.630367 c 9.357463,0 10.316691,-0.95884 10.316691,-10.297574 v -0.529141 c 0,9.338734 -0.959228,10.297574 -10.316691,10.297574 H 14.740307 c -9.3574623,0 -10.3166913,-0.95884 -10.3166913,-10.297574 z"
     id="path1348"
     inkscape:connector-curvature="0" />
  <path
     style="color:#000000;display:inline;overflow:visible;visibility:visible;opacity:0.4;fill:url(#radialGradient1363-3-3);fill-opacity:1;fill-rule:nonzero;stroke:none;stroke-width:0.26457033;marker:none;enable-background:accumulate"
     d="m 31.872785,22.427942 -4.235191,4.233125 H 14.740307 c -9.3574628,0 -10.3166919,0.958843 -10.3166919,10.297575 v 0.52914 c 0,-9.338732 0.9592291,-10.297574 10.3166919,-10.297574 h 12.897287 l 4.235191,-4.233125 h 21.497889 c 9.357463,0 10.316691,0.958839 10.316691,10.297574 v -0.529141 c 0,-9.338734 -0.959228,-10.297574 -10.316691,-10.297574 z"
     id="path2067-2"
     inkscape:connector-curvature="0"
     sodipodi:nodetypes="ccsscsccscssc" />
</svg>
