<?xml version="1.0" encoding="UTF-8" standalone="no"?>
<svg
   xmlns:dc="http://purl.org/dc/elements/1.1/"
   xmlns:cc="http://creativecommons.org/ns#"
   xmlns:rdf="http://www.w3.org/1999/02/22-rdf-syntax-ns#"
   xmlns:svg="http://www.w3.org/2000/svg"
   xmlns="http://www.w3.org/2000/svg"
   xmlns:sodipodi="http://sodipodi.sourceforge.net/DTD/sodipodi-0.dtd"
   xmlns:inkscape="http://www.inkscape.org/namespaces/inkscape"
   width="16"
   height="16"
   version="1.1"
   id="svg4"
   sodipodi:docname="emote-love.svg"
   inkscape:version="0.92.4 (5da689c313, 2019-01-14)">
  <metadata
     id="metadata10">
    <rdf:RDF>
      <cc:Work
         rdf:about="">
        <dc:format>image/svg+xml</dc:format>
        <dc:type
           rdf:resource="http://purl.org/dc/dcmitype/StillImage" />
      </cc:Work>
    </rdf:RDF>
  </metadata>
  <defs
     id="defs8" />
  <sodipodi:namedview
     pagecolor="#ffffff"
     bordercolor="#666666"
     borderopacity="1"
     objecttolerance="10"
     gridtolerance="10"
     guidetolerance="10"
     inkscape:pageopacity="0"
     inkscape:pageshadow="2"
     inkscape:window-width="1920"
     inkscape:window-height="1016"
     id="namedview6"
     showgrid="false"
     inkscape:zoom="14.75"
     inkscape:cx="8"
     inkscape:cy="8"
     inkscape:window-x="0"
     inkscape:window-y="27"
     inkscape:window-maximized="1"
     inkscape:current-layer="svg4" />
  <path
     d="M15 5.766a3.763 3.763 0 0 0-3.77-3.757c-1.37 0-2.57.73-3.23 1.822a3.77 3.77 0 0 0-3.23-1.822A3.763 3.763 0 0 0 1 5.766a3.74 3.74 0 0 0 1.19 2.738h-.001L7.914 14l5.898-5.496h-.002A3.739 3.739 0 0 0 15 5.766"
     fill="#474747"
     id="path2"
     style="fill:#f22c42;fill-opacity:1" />
  <path
     style="fill:#ffffff;fill-opacity:1;opacity:0.3"
     d="M 4.7695312 2.0097656 A 3.763 3.763 0 0 0 1 5.765625 A 3.74 3.74 0 0 0 1.0097656 5.9902344 A 3.763 3.763 0 0 1 4.7695312 2.5097656 A 3.77 3.77 0 0 1 8 4.3300781 C 8.66 3.2380781 9.8604687 2.5097656 11.230469 2.5097656 A 3.763 3.763 0 0 1 14.986328 6.0195312 A 3.739 3.739 0 0 0 15 5.765625 A 3.763 3.763 0 0 0 11.230469 2.0097656 C 9.8604687 2.0097656 8.66 2.7380781 8 3.8300781 A 3.77 3.77 0 0 0 4.7695312 2.0097656 z "
     id="path823" />
  <path
     style="fill:#000000;fill-opacity:1;opacity:0.3"
     d="M 1.0097656 5.4902344 A 3.763 3.763 0 0 0 1 5.765625 A 3.74 3.74 0 0 0 2.1894531 8.5039062 L 7.9140625 14 L 13.810547 8.5039062 A 3.739 3.739 0 0 0 15 5.765625 A 3.763 3.763 0 0 0 14.986328 5.5195312 A 3.739 3.739 0 0 1 13.810547 8.0039062 L 7.9140625 13.5 L 2.1894531 8.0039062 A 3.74 3.74 0 0 1 1.0097656 5.4902344 z "
     id="path828" />
</svg>
