<?xml version="1.0" encoding="UTF-8" standalone="no"?>
<svg
   xmlns:dc="http://purl.org/dc/elements/1.1/"
   xmlns:cc="http://creativecommons.org/ns#"
   xmlns:rdf="http://www.w3.org/1999/02/22-rdf-syntax-ns#"
   xmlns:svg="http://www.w3.org/2000/svg"
   xmlns="http://www.w3.org/2000/svg"
   xmlns:sodipodi="http://sodipodi.sourceforge.net/DTD/sodipodi-0.dtd"
   xmlns:inkscape="http://www.inkscape.org/namespaces/inkscape"
   width="16"
   height="16"
   version="1.1"
   id="svg4"
   sodipodi:docname="face-shutmouth.svg"
   inkscape:version="0.92.4 (5da689c313, 2019-01-14)">
  <metadata
     id="metadata10">
    <rdf:RDF>
      <cc:Work
         rdf:about="">
        <dc:format>image/svg+xml</dc:format>
        <dc:type
           rdf:resource="http://purl.org/dc/dcmitype/StillImage" />
      </cc:Work>
    </rdf:RDF>
  </metadata>
  <defs
     id="defs8" />
  <sodipodi:namedview
     pagecolor="#ffffff"
     bordercolor="#666666"
     borderopacity="1"
     objecttolerance="10"
     gridtolerance="10"
     guidetolerance="10"
     inkscape:pageopacity="0"
     inkscape:pageshadow="2"
     inkscape:window-width="1920"
     inkscape:window-height="1016"
     id="namedview6"
     showgrid="false"
     inkscape:zoom="14.75"
     inkscape:cx="-4.8813559"
     inkscape:cy="8"
     inkscape:window-x="0"
     inkscape:window-y="27"
     inkscape:window-maximized="1"
     inkscape:current-layer="svg4" />
  <path
     d="M 8,0 A 8,8 0 1 0 8,16 8,8 0 0 0 8,0 Z M 5.7142857,4.5714286 C 6.352,4.5714286 6.8925714,5.112 6.8925714,5.7497143 V 6.8571429 C 6.8925714,7.4948571 6.352,8 5.7142857,8 5.0765714,8 4.5714286,7.4948571 4.5714286,6.8571429 V 5.7497143 c 0,-0.6377143 0.5051428,-1.1782857 1.1428571,-1.1782857 z m 4.5714283,0 c 0.637715,0 1.142857,0.5405714 1.142857,1.1782857 V 6.8571429 C 11.428571,7.4948571 10.923429,8 10.285714,8 9.648,8 9.142857,7.4948571 9.142857,6.8571429 V 5.7497143 C 9.142857,5.112 9.648,4.5714286 10.285714,4.5714286 Z M 3.4285714,9.1428571 8,10.285714 12.571429,9.1428571 c 0.09486,0.6742858 -0.182858,1.2045719 -0.766858,1.3348569 l -1.518857,0.379429 1.496,0.373714 c 0.817143,0.219429 0.789715,0.857143 0.789715,1.340572 L 8,11.428571 3.4285714,12.571429 C 3.3542857,11.850286 3.4708571,11.448 4.0228571,11.28 L 5.7142857,10.857143 3.9954286,10.474286 C 3.4514286,10.328 3.3325714,9.696 3.4285714,9.1428571 Z"
     id="path2"
     style="fill:#fdc92b;fill-opacity:1;stroke-width:1.14285719"
     inkscape:connector-curvature="0" />
  <path
     style="opacity:0.3;fill:#ffffff;fill-opacity:1;stroke-width:1.14285719"
     d="M 8,0 A 8,8 0 0 0 0.0133929,8.3482143 8,8 0 0 1 8,0.57142857 8,8 0 0 1 15.986607,8.2232143 8,8 0 0 0 8,0 Z M 4.5714286,6.8571429 v 0.5714285 c 0,0.6377143 0.5051428,1.1428572 1.1428571,1.1428572 0.6377143,0 1.1785714,-0.5051429 1.1785714,-1.1428572 V 6.8571429 C 6.8928571,7.4948571 6.352,8 5.7142857,8 5.0765714,8 4.5714286,7.4948571 4.5714286,6.8571429 Z m 4.5714284,0 v 0.5714285 c 0,0.6377143 0.505143,1.1428572 1.142857,1.1428572 0.637715,0 1.142857,-0.5051429 1.142857,-1.1428572 V 6.8571429 C 11.428571,7.4948571 10.923429,8 10.285714,8 9.648,8 9.142857,7.4948571 9.142857,6.8571429 Z m 3.428572,2.8571428 -0.03348,0.00893 c -0.09183,0.3810223 -0.335225,0.6654173 -0.734375,0.7544643 l -1.517857,0.379464 1.145089,0.285714 0.372768,-0.09375 c 0.584,-0.130285 0.862715,-0.660535 0.767858,-1.3348209 z m -9.1428576,0.00893 c -0.093238,0.5510393 0.025829,1.1759123 0.5669644,1.3214263 l 0.5089284,0.11384 1.2098215,-0.301339 -1.7187499,-0.383929 C 3.6418143,10.378096 3.4806096,10.073838 3.4285714,9.7232143 Z M 8,11.428571 3.4330357,12.571429 c -0.021036,0.164933 -0.027524,0.347576 -0.00446,0.571428 L 8,12 l 4.571429,1.142857 c 0,-0.184088 -0.01114,-0.387604 -0.05134,-0.584822 z"
     id="path827"
     inkscape:connector-curvature="0" />
  <path
     style="opacity:0.2;fill:#000000;fill-opacity:1;stroke-width:1.14285719"
     d="M 5.7142857,4 C 5.0765714,4 4.5714286,4.5408571 4.5714286,5.1785714 V 5.75 c 0,-0.6377143 0.5051428,-1.1785714 1.1428571,-1.1785714 0.6377143,0 1.1785714,0.5408571 1.1785714,1.1785714 V 5.1785714 C 6.8928571,4.5408571 6.352,4 5.7142857,4 Z M 10.285714,4 C 9.648,4 9.142857,4.5408571 9.142857,5.1785714 V 5.75 c 0,-0.6377143 0.505143,-1.1785714 1.142857,-1.1785714 0.637715,0 1.142857,0.5408571 1.142857,1.1785714 V 5.1785714 C 11.428571,4.5408571 10.923429,4 10.285714,4 Z m 5.700893,3.6517857 A 8,8 0 0 1 8,15.428571 8,8 0 0 1 0.0133929,7.7767857 8,8 0 0 0 8,16 8,8 0 0 0 15.986607,7.6517857 Z M 3.4285714,8.5714286 c -0.033579,0.1934765 -0.027993,0.3917449 0,0.5803571 4.936e-4,-0.00292 -5.056e-4,-0.00602 0,-0.00893 L 8,10.285714 12.537946,9.1517857 c 0.04253,-0.176456 0.06351,-0.3669286 0.03348,-0.5803571 L 8,9.7142857 Z m 8.0022316,2.0000004 -1.145089,0.285714 1.495536,0.372768 c 0.505977,0.135871 0.673479,0.436008 0.738839,0.756696 L 12.571429,12 c 0,-0.483429 0.02696,-1.122089 -0.790179,-1.341518 z m -6.9263388,0.01563 -0.4821428,0.120536 c -0.552,0.168 -0.6680357,0.571267 -0.59375,1.29241 h 0.00446 c 0.046733,-0.366403 0.2086338,-0.605131 0.5892857,-0.720982 l 1.6919686,-0.421875 z"
     id="path832"
     inkscape:connector-curvature="0" />
</svg>
