<?xml version="1.0" encoding="UTF-8" standalone="no"?>
<svg
   xmlns:dc="http://purl.org/dc/elements/1.1/"
   xmlns:cc="http://creativecommons.org/ns#"
   xmlns:rdf="http://www.w3.org/1999/02/22-rdf-syntax-ns#"
   xmlns:svg="http://www.w3.org/2000/svg"
   xmlns="http://www.w3.org/2000/svg"
   xmlns:sodipodi="http://sodipodi.sourceforge.net/DTD/sodipodi-0.dtd"
   xmlns:inkscape="http://www.inkscape.org/namespaces/inkscape"
   width="16"
   height="16"
   version="1.1"
   id="svg4"
   sodipodi:docname="face-cool.svg"
   inkscape:version="0.92.4 (5da689c313, 2019-01-14)">
  <metadata
     id="metadata10">
    <rdf:RDF>
      <cc:Work
         rdf:about="">
        <dc:format>image/svg+xml</dc:format>
        <dc:type
           rdf:resource="http://purl.org/dc/dcmitype/StillImage" />
      </cc:Work>
    </rdf:RDF>
  </metadata>
  <defs
     id="defs8" />
  <sodipodi:namedview
     pagecolor="#ffffff"
     bordercolor="#666666"
     borderopacity="1"
     objecttolerance="10"
     gridtolerance="10"
     guidetolerance="10"
     inkscape:pageopacity="0"
     inkscape:pageshadow="2"
     inkscape:window-width="1920"
     inkscape:window-height="1016"
     id="namedview6"
     showgrid="false"
     inkscape:zoom="59.928571"
     inkscape:cx="1.820135"
     inkscape:cy="8"
     inkscape:window-x="0"
     inkscape:window-y="27"
     inkscape:window-maximized="1"
     inkscape:current-layer="svg4" />
  <path
     d="M 8,0 A 8,8 0 1 0 8,16 8,8 0 0 0 8,0 Z M 1.3942857,4.6068571 c 4.472,-0.042286 9.1108573,0 13.2137143,0 C 14.608,6.4834286 13.179429,8 11.430857,8 9.972571,8 8.7645714,6.9371429 8.3942857,5.4994286 H 7.608 C 7.2377143,6.9371429 6.0297143,8 4.5714286,8 2.8228571,8 1.3942857,6.4834286 1.3942857,4.6068571 Z m 0.8914286,4.608 C 3.104,10.441143 4.84,11.428571 8,11.428571 c 2.802286,0 4.812571,-0.857142 5.714286,-2.2148567 V 9.7851429 C 13.714286,10.563429 12.756571,12.536 8,12.536 3.5657143,12.536 2.2857143,10.394286 2.2857143,9.7862857 Z"
     id="path2"
     style="fill:#fdc92b;fill-opacity:1;stroke-width:1.14285719"
     inkscape:connector-curvature="0" />
  <path
     style="opacity:1;fill:#474747;fill-opacity:1;stroke-width:1.14285719"
     d="m 1.3950893,4.6071429 c 0,0.9382857 0.3573214,1.7858393 0.9330357,2.3995536 C 2.9038393,7.6204107 3.6971429,8 4.5714286,8 5.3005714,8 5.9671965,7.733375 6.4977679,7.2879464 7.0283393,6.8425178 7.422,6.2188571 7.6071429,5.5 H 8.3950893 C 8.5802321,6.2188571 8.9738929,6.8425178 9.504464,7.2879464 10.035036,7.733375 10.701661,8 11.430803,8 c 0.874286,0 1.66759,-0.3795893 2.243304,-0.9933035 0.575715,-0.6137143 0.933036,-1.4612679 0.933036,-2.3995536 -4.102857,0 -8.7400537,-0.042286 -13.2120537,0 z"
     id="path844"
     inkscape:connector-curvature="0" />
  <path
     style="opacity:0.3;fill:#ffffff;fill-opacity:1;stroke-width:1.14285719"
     d="M 8,0 A 8,8 0 0 0 0.0133929,8.3482143 8,8 0 0 1 8,0.57142857 8,8 0 0 1 15.986607,8.2232143 8,8 0 0 0 8,0 Z M 1.3950893,5.1785714 c 0,1.8765715 1.4277678,3.3928572 3.1763393,3.3928572 1.4582857,0 2.6654285,-1.0622857 3.0357143,-2.5 h 0.7879464 c 0.3702857,1.4377143 1.5774287,2.5 3.0357137,2.5 1.748572,0 3.17634,-1.5162857 3.17634,-3.3928572 -0.01699,0 -0.03656,1.5e-6 -0.05357,0 C 14.297605,6.7810754 12.997126,8 11.430803,8 9.972518,8 8.765375,6.9377143 8.3950893,5.5 H 7.6071429 C 7.2368571,6.9377143 6.0297143,8 4.5714286,8 3.0051065,8 1.7046279,6.7810754 1.4486607,5.1785714 c -0.017763,1.653e-4 -0.035814,-1.679e-4 -0.053571,0 z m 0.890625,4.6071429 v 0.5714287 c 0,0.608 1.28,2.75 5.7142857,2.75 4.756571,0 5.714286,-1.971714 5.714286,-2.75 V 9.7857143 C 13.714286,10.564 12.756571,12.535714 8,12.535714 c -4.4342857,0 -5.7142857,-2.142 -5.7142857,-2.7499997 z"
     id="path846"
     inkscape:connector-curvature="0" />
  <path
     style="opacity:0.2;fill:#000000;fill-opacity:1;stroke-width:1.14285719"
     d="m 8.140625,4.0200893 c -2.2315714,-0.00529 -4.5095357,-0.00552 -6.7455357,0.015625 0,0.1955905 0.023788,0.3849692 0.053571,0.5714286 4.4370218,-0.041278 9.0309477,-3.453e-4 13.1049107,0 0.02978,-0.1864594 0.05357,-0.3758381 0.05357,-0.5714286 -2.051429,0 -4.234946,-0.010339 -6.4665184,-0.015625 z m 7.845982,3.6316964 A 8,8 0 0 1 8,15.428571 8,8 0 0 1 0.0133929,7.7767857 8,8 0 0 0 8,16 8,8 0 0 0 15.986607,7.6517857 Z M 2.2857143,8.6428571 V 9.2142857 C 3.104,10.440571 4.84,11.428571 8,11.428571 c 2.802286,0 4.812571,-0.856571 5.714286,-2.2142853 V 8.6428571 C 12.812571,10.000571 10.802286,10.857143 8,10.857143 c -3.16,0 -4.896,-0.9880001 -5.7142857,-2.2142859 z"
     id="path851"
     inkscape:connector-curvature="0" />
</svg>
