<svg height="16" width="16" xmlns="http://www.w3.org/2000/svg"><g stroke-width="1.142857"><path d="m8 0a8 8 0 1 0 0 16 8 8 0 0 0 0-16zm-2.8217143 3.4285714c.84 0 1.6788572.5097143 1.6788572 1.5005715-1.7142858-.3874286-3.5714286 1.9794285-3.4285715 0 .072-.9908572.9108572-1.5005715 1.7497143-1.5005715zm5.6434283 0c.838857 0 1.678857.5097143 1.749715 1.5005715.142857 1.9794285-1.714286-.3874286-3.428572 0 0-.9908572.838857-1.5005715 1.678857-1.5005715zm-2.821714 3.4285715c1.577143 0 2.857143 1.5348571 2.857143 3.4285711 0 1.893715-1.28 3.428572-2.857143 3.428572-1.5771429 0-2.8571429-1.534857-2.8571429-3.428572 0-1.893714 1.28-3.4285711 2.8571429-3.4285711z" fill="#fdc92b"/><path d="m8 0a8 8 0 0 0 -7.9866071 8.3482143 8 8 0 0 1 7.9866071-7.77678573 8 8 0 0 1 7.986607 7.65178573 8 8 0 0 0 -7.986607-8.2232143zm-1.4665178 4.8861607c-1.4527024-.0597334-2.8953173 1.4898033-3.0781251.4620536-.0083457.0511022-.0228646.097825-.0267857.1517857-.1428571 1.9794286 1.7142857-.3874286 3.4285715 0 0-.2213709-.0483688-.4140325-.1227679-.5870536-.0667382-.0101237-.1340025-.0240352-.2008928-.0267857zm2.9330358 0c-.06689.00275-.134155.016662-.200893.026786-.0744.1730211-.122768.3656827-.122768.5870536 1.714286-.3874286 3.571429 1.9794286 3.428572 0-.004-.055561-.01811-.1037192-.02679-.1562501-.179976 1.0352029-1.623688-.5173941-3.078121-.4575895zm-4.2991073 5.6852683c-.00669.09568-.024554.187957-.024554.285714 0 1.893714 1.28 3.428571 2.8571429 3.428571 1.5771434 0 2.8571434-1.534857 2.8571434-3.428571 0-.09776-.01787-.190032-.02455-.285714-.12285 1.757848-1.336865 3.142857-2.832593 3.142857-1.4957279 0-2.7097433-1.385009-2.8325893-3.142857z" fill="#fff" opacity=".3"/><path d="m5.1785714 2.8571429c-.8388571 0-1.678.5091428-1.75 1.5-.013536.1875585.00623.3040881.026786.4196428.1449039-.8872655.9300402-1.3482143 1.7232143-1.3482143.6523327 0 1.297192.3115241 1.5558036.9129464.040753.00618.082147.00644.1227679.015625 0-.9908572-.8385715-1.5-1.6785718-1.4999999zm5.6428576 0c-.84 0-1.678572.5091428-1.678572 1.5.04062-.00918.08202-.00944.122768-.015625.258612-.6014223.903471-.9129464 1.555804-.9129464.791819 0 1.577195.4594729 1.723213 1.34375.02-.1150225.04018-.2296071.02679-.4151785-.07086-.9908572-.911143-1.5-1.75-1.5zm-2.821429 3.4285714c-1.5771429 0-2.8571429 1.5348571-2.8571429 3.4285714 0 .097757.017867.1900318.024554.2857143.1228456-1.7578482 1.336861-3.1428571 2.8325889-3.1428571 1.495728 0 2.709743 1.3850089 2.83259 3.1428571.0067-.095683.02455-.1879574.02455-.2857143 0-1.8937143-1.28-3.4285714-2.857143-3.4285714zm7.986607 1.3660714a8 8 0 0 1 -7.986607 7.7767853 8 8 0 0 1 -7.9866071-7.6517853 8 8 0 0 0 7.9866071 8.2232143 8 8 0 0 0 7.986607-8.3482143z" fill="#040404" opacity=".2"/></g></svg>