<?xml version="1.0" encoding="UTF-8" standalone="no"?>
<svg
   xmlns:dc="http://purl.org/dc/elements/1.1/"
   xmlns:cc="http://creativecommons.org/ns#"
   xmlns:rdf="http://www.w3.org/1999/02/22-rdf-syntax-ns#"
   xmlns:svg="http://www.w3.org/2000/svg"
   xmlns="http://www.w3.org/2000/svg"
   xmlns:sodipodi="http://sodipodi.sourceforge.net/DTD/sodipodi-0.dtd"
   xmlns:inkscape="http://www.inkscape.org/namespaces/inkscape"
   height="16"
   width="16"
   version="1.1"
   id="svg4"
   sodipodi:docname="face-worried.svg"
   inkscape:version="0.92.4 (5da689c313, 2019-01-14)">
  <metadata
     id="metadata10">
    <rdf:RDF>
      <cc:Work
         rdf:about="">
        <dc:format>image/svg+xml</dc:format>
        <dc:type
           rdf:resource="http://purl.org/dc/dcmitype/StillImage" />
      </cc:Work>
    </rdf:RDF>
  </metadata>
  <defs
     id="defs8" />
  <sodipodi:namedview
     pagecolor="#ffffff"
     bordercolor="#666666"
     borderopacity="1"
     objecttolerance="10"
     gridtolerance="10"
     guidetolerance="10"
     inkscape:pageopacity="0"
     inkscape:pageshadow="2"
     inkscape:window-width="1920"
     inkscape:window-height="1016"
     id="namedview6"
     showgrid="false"
     inkscape:zoom="14.75"
     inkscape:cx="8"
     inkscape:cy="8"
     inkscape:window-x="0"
     inkscape:window-y="27"
     inkscape:window-maximized="1"
     inkscape:current-layer="svg4" />
  <path
     d="m8 1a7 7 0 1 0 0 14 7 7 0 0 0 0-14zm-2 4c.558 0 1.031.473 1.031 1.031v.969c0 .558-.473 1-1.031 1s-1-.442-1-1v-.969c0-.558.442-1.031 1-1.031zm4 0c.558 0 1 .473 1 1.031v.969c0 .558-.442 1-1 1s-1-.442-1-1v-.969c0-.558.442-1.031 1-1.031zm3 5.943c-.766-.428-1.612-.92-2.476-.94-.652.02-1.239.654-1.524.697-.542.314-1.56.196-2 0-.917-.437-.921-.68-1.543-.7-.853.019-1.832.404-2.457.943v-.5c.422-1.086 2.38-2.045 4-.871.35.22.427.267 1.015.337.16.055.592-.034.985-.337 1.582-1.153 3.292-.119 4 .87z"
     fill="#474747"
     id="path2"
     style="fill:#eab305;fill-opacity:1" />
  <path
     style="fill:#000000;fill-opacity:1;opacity:0.2"
     d="M 6 4.5 C 5.442 4.5 5 4.97325 5 5.53125 L 5 6.03125 C 5 5.47325 5.442 5 6 5 C 6.558 5 7.03125 5.47325 7.03125 6.03125 L 7.03125 5.53125 C 7.03125 4.97325 6.558 4.5 6 4.5 z M 10 4.5 C 9.442 4.5 9 4.97325 9 5.53125 L 9 6.03125 C 9 5.47325 9.442 5 10 5 C 10.558 5 11 5.47325 11 6.03125 L 11 5.53125 C 11 4.97325 10.558 4.5 10 4.5 z M 14.988281 7.6953125 A 7 7 0 0 1 8 14.5 A 7 7 0 0 1 1.0117188 7.8046875 A 7 7 0 0 0 8 15 A 7 7 0 0 0 14.988281 7.6953125 z M 5.1328125 8.5449219 C 4.126582 8.634707 3.26375 9.2646094 3 9.9433594 L 3 10.443359 C 3.422 9.3573594 5.38 8.3982656 7 9.5722656 C 7.35 9.7922656 7.427625 9.8382031 8.015625 9.9082031 C 8.175625 9.9632031 8.607 9.8752656 9 9.5722656 C 10.582 8.4192656 12.292 9.4524063 13 10.441406 L 13 9.9414062 C 12.292 8.9524063 10.582 7.9192656 9 9.0722656 C 8.607 9.3752656 8.175625 9.4632031 8.015625 9.4082031 C 7.427625 9.3382031 7.35 9.2922656 7 9.0722656 C 6.3925 8.6320156 5.7365508 8.4910508 5.1328125 8.5449219 z "
     id="path823" />
  <path
     style="fill:#ffffff;fill-opacity:1;opacity:0.3"
     d="M 8 1 A 7 7 0 0 0 1.0117188 8.3046875 A 7 7 0 0 1 8 1.5 A 7 7 0 0 1 14.988281 8.1953125 A 7 7 0 0 0 8 1 z M 5 7 L 5 7.5 C 5 8.058 5.442 8.5 6 8.5 C 6.558 8.5 7.03125 8.058 7.03125 7.5 L 7.03125 7 C 7.03125 7.558 6.558 8 6 8 C 5.442 8 5 7.558 5 7 z M 9 7 L 9 7.5 C 9 8.058 9.442 8.5 10 8.5 C 10.558 8.5 11 8.058 11 7.5 L 11 7 C 11 7.558 10.558 8 10 8 C 9.442 8 9 7.558 9 7 z M 5.4570312 10 C 4.6040313 10.019 3.625 10.404359 3 10.943359 L 3 11.443359 C 3.625 10.904359 4.6040313 10.519 5.4570312 10.5 C 6.0790313 10.52 6.083 10.762219 7 11.199219 C 7.44 11.395219 8.458 11.513219 9 11.199219 C 9.285 11.156219 9.8714375 10.523906 10.523438 10.503906 C 11.387437 10.523906 12.234 11.015359 13 11.443359 L 13 10.943359 C 12.234 10.515359 11.387437 10.023906 10.523438 10.003906 C 9.8714375 10.023906 9.285 10.656219 9 10.699219 C 8.458 11.013219 7.44 10.895219 7 10.699219 C 6.083 10.262219 6.0790313 10.02 5.4570312 10 z "
     id="path826" />
</svg>
