<svg height="16" width="16" xmlns="http://www.w3.org/2000/svg"><g stroke-width="1.142857"><path d="m8 0c-4.418281 0-7.99999653 3.5817221-7.99999653 8 0 4.418278 3.58171553 8 7.99999653 8s7.999997-3.581722 7.999997-8c0-4.4182779-3.581716-8-7.999997-8zm-5.7142857 9.1782857c2.2857143 1.4902853 9.1279997 1.4902853 11.4639997 0l-.03429.6068572c-.042281.4914281-1.142853 3.8582861-5.7142811 3.8937141-4.5714286.035429-5.7142858-3.177143-5.7142858-3.7862856z" fill="#fdc92b"/><path d="m8 0c-4.5526383.00330686-8.18477007 3.7998896-7.9866071 8.3482143.12073743-4.3256732 3.6592528-7.77122592 7.9866071-7.77678573 4.280605.00310942 7.800287 3.37523683 7.986607 7.65178573.125609-4.499927-3.484931-8.21743067-7.986607-8.2232143zm-5.7142857 9.75.00223.714286c0 .609143 1.1428571 3.821143 5.7142857 3.785714 4.571429-.03543 5.672-3.401429 5.714286-3.892857l.033484-.607143c-.01.00638-.02332.011534-.03348.017857v.017857c-.04229.491429-1.142859 3.857429-5.7142879 3.892857-4.5714286.035429-5.7142857-3.176571-5.7142857-3.7857139v-.1428571c-.000513-.0003341-.00172.0003343-.00223 0z" fill="#fff" opacity=".3"/><path d="m15.986607 7.6517857c-.120738 4.3256733-3.659253 7.7712253-7.986607 7.7767853-4.2806045-.003109-7.800287-3.375237-7.9866071-7.6517853-.12560863 4.4999273 3.484931 8.2174303 7.9866071 8.2232143 4.552638-.0033 8.18477-3.79989 7.986607-8.3482143zm-13.7008927.9553572.0022321.5714285c2.2774549 1.4829086 9.0648636 1.4887346 11.4285716.0178572l.033482-.5892857c-2.336 1.4902861-9.1785714 1.4902861-11.4642857 0z" opacity=".2"/></g><g fill="#ea5756" stroke-width=".666665" transform="matrix(3.7795275 0 0 3.7795275 -26.322033 -1102.0282)"><path d="m8.4678036 293.56699c-.010814-.008-.04707-.0317-.1048073-.0656-.1211461-.0713-.1885576-.11851-.2501925-.17528-.090135-.083-.142778-.16955-.1605517-.26386-.00488-.0256-.00658-.08-.00326-.1036.012703-.0905.063709-.16801.1429915-.21733.073623-.0457.1689776-.0611.2413742-.0383.036125.0116.080787.0365.1220713.0687l.020847.0161.020849-.0161c.055122-.0429.1085562-.0691.1578777-.0772.018381-.004.070348-.002.092292.004.099015.0191.1815389.0794.2253696.16382.022701.044.032942.0867.032942.13817 0 .07-.017033.13613-.050941.19776-.026055.0477-.05531.0839-.1044788.13057-.06635.0631-.1298651.10603-.2669846.18072-.049478.0271-.083062.0469-.096236.0566-.0058.007-.010831.008-.011153.008-.0003263 0-.00393-.004-.008-.007z"/><path d="m9.6737234 293.56699c-.010814-.008-.04707-.0317-.1048073-.0656-.1211461-.0713-.1885576-.11851-.2501925-.17528-.090135-.083-.142778-.16955-.1605517-.26386-.00488-.0256-.00658-.08-.00326-.1036.012703-.0905.063709-.16801.1429915-.21733.073623-.0457.1689776-.0611.2413742-.0383.036125.0116.080787.0365.1220713.0687l.020847.0161.020849-.0161c.055122-.0429.1085562-.0691.1578777-.0772.018381-.004.070348-.002.092292.004.099015.0191.1815384.0794.2253694.16382.0227.044.03294.0867.03294.13817 0 .07-.01703.13613-.05094.19776-.02605.0477-.05531.0839-.104479.13057-.06635.0631-.1298647.10603-.2669842.18072-.049478.0271-.083062.0469-.096236.0566-.0058.007-.010831.008-.011153.008-.0003263 0-.00393-.004-.008-.007z"/></g><path d="m4.9550781 4.2128906c-.2298401-.0118878-.4846642.0540505-.6933593.1835938-.2996504.1864063-.4930043.4782652-.5410157.8203125-.012548.0891968-.0047722.2958222.0136719.3925781.0671762.3564472.264801.682393.6054688.9960938.2329507.2145637.4893906.392629.9472656.6621093.2182197.128126.3536594.2178107.3945312.2480469v.0019531c.0153827.0113386.0300168.0253907.03125.0253907.001217 0 .0190944-.0028402.0410156-.0292969.0497915-.0366614.178231-.1124186.3652344-.2148438.5182469-.2822929.7570409-.4431524 1.0078125-.6816406.1858349-.1763905.2960557-.3138572.3945313-.4941406.1281562-.2329323.1933594-.48348.1933594-.7480469 0-.1945323-.039201-.3551852-.125-.5214844-.1656594-.3190677-.4773326-.5469516-.8515626-.6191406-.0829379-.0226772-.2781847-.0307431-.3476562-.015625-.186412.0306142-.3893211.1288739-.5976562.2910156l-.078125.0625-.0800782-.0625c-.1560351-.1217008-.324402-.2159231-.4609375-.2597656-.0684062-.0215433-.1421366-.0331468-.21875-.0371094zm4.5585938 0c-.2298402-.0118878-.4846643.0540505-.6933594.1835938-.2996504.1864063-.4930043.4782652-.5410156.8203125-.0125481.0891968-.0067254.2958222.0117187.3925781.0671762.3564472.2667542.682393.6074219.9960938.2329508.2145637.4874375.392629.9453125.6621093.21822.128126.355613.2178107.396484.2480469v.0019531c.015383.0113386.028064.0253907.029297.0253907.001217 0 .021048-.0028402.042969-.0292969.049791-.0366614.176278-.1124186.363281-.2148438.518247-.2822929.758994-.4431524 1.009766-.6816406.185835-.1763905.296074-.3138572.394531-.4941406.128164-.2329323.19336-.48348.19336-.7480469-.000001-.1945323-.039205-.3551852-.125-.5214844-.165661-.3190677-.477333-.5469516-.851563-.6191406-.082938-.0226772-.280138-.0307431-.349609-.015625-.186412.0306142-.387368.1288739-.595704.2910156l-.080078.0625-.078125-.0625c-.156035-.1217008-.3244017-.2159231-.4609371-.2597656-.0684063-.0215433-.1421366-.0331468-.21875-.0371094z" fill="#f22c42" stroke-width="2.51968" transform="matrix(1.00000000957 0 0 1.00000000957 -.0000012853 .00000325325)"/><path d="m4.9550781 4.2128906c-.2298401-.0118878-.4846642.0540505-.6933593.1835938-.2996505.1864063-.4930043.4782652-.5410157.8203125-.012548.0891968-.0047722.2958222.0136719.3925781.0016396.0086999.0060173.0167268.0078125.0253906.0659969-.305465.2449007-.5675075.5195313-.7382812.2086949-.1296378.4635187-.1949324.6933593-.1835938.0766148.0037796.1503444.0144322.21875.0371094.136537.0438425.3049035.1380648.4609375.2597656l.0800782.0625.078125-.0625c.2083351-.1621417.4112461-.2607794.5976562-.2910156.0694715-.0151181.2647183-.0070522.3476562.015625.3742303.072189.6859021.3001485.8515626.6191406.0444575.0861107.0752385.1711332.0957031.2597656.0123014-.0787103.0292969-.1568068.0292969-.2382812 0-.1945323-.039201-.3551852-.125-.5214844-.1656595-.3190677-.4773325-.5469516-.8515626-.6191406-.0829379-.0226772-.2781847-.0307431-.3476562-.015625-.186412.0306142-.3893211.1288739-.5976562.2910156l-.078125.0625-.0800782-.0625c-.1560351-.1217008-.324402-.2159231-.4609375-.2597656-.0684062-.0215433-.1421366-.0331468-.21875-.0371094zm4.5585938 0c-.2298402-.0118878-.4846643.0540505-.6933594.1835938-.2996504.1864063-.4930043.4782652-.5410156.8203125-.0125481.0891968-.0067254.2958222.0117187.3925781.0018677.00991.00574.0194337.0078125.0292969.0651997-.3072879.245595-.570631.5214844-.7421875.2086953-.1296378.4635187-.1949324.6933594-.1835938.0766148.0037796.1503443.0144322.21875.0371094.1365365.0438425.3049031.1380648.4609371.2597656l.078125.0625.080078-.0625c.208337-.1621417.409294-.2607794.595704-.2910156.069471-.0151181.266671-.0070522.349609.015625.37423.072189.685906.3001485.851563.6191406.044455.0861107.075241.1711332.095703.2597656.0123-.0787103.029297-.1568068.029297-.2382812-.000002-.1945323-.039205-.3551852-.125-.5214844-.165662-.3190677-.477333-.5469516-.851563-.6191406-.082938-.0226772-.280138-.0307431-.349609-.015625-.186412.0306142-.387367.1288739-.595704.2910156l-.080078.0625-.078125-.0625c-.156035-.1217008-.3244017-.2159231-.4609371-.2597656-.0684063-.0215433-.1421366-.0331468-.21875-.0371094z" fill="#fff" opacity=".3" stroke-width="2.51968" transform="matrix(1.00000000957 0 0 1.00000000957 -.0000012853 .00000325325)"/><path d="m7.6855469 5.1132812c-.0276447.1769173-.0753725.3486443-.1640625.5097657-.0984771.1804346-.2086957.3176367-.3945313.4941406-.2507716.2384882-.4895656.3993099-1.0078125.6816406-.1870034.1024252-.3154429.1770485-.3652344.2148438-.0219288.0274015-.0397986.03125-.0410156.03125-.0012472 0-.0158673-.0160052-.03125-.0273438v-.0019531c-.0408729-.0302362-.1763126-.1199209-.3945312-.2480469-.457875-.2694803-.7143145-.4474322-.9472656-.6621093-.332353-.3060443-.525899-.6244311-.5976563-.9707032-.0060121.0278261-.0174758.0534734-.0214844.0820313-.012548.0891968-.0047722.2958222.0136719.3925781.0671762.3564472.2648009.6823929.6054688.9960938.2329507.2145637.4893906.392629.9472656.6621093.2182197.128126.3536594.2178107.3945312.2480469v.0019531c.0153827.0113386.0300168.0253907.03125.0253907.001217 0 .0190944-.0028402.0410156-.0292969.0497916-.0366614.178231-.1124186.3652344-.2148438.5182469-.2822929.7570409-.4431524 1.0078125-.6816406.1858349-.1763905.2960557-.3138572.3945313-.4941406.1281562-.2329323.1933594-.48348.1933594-.7480469 0-.0937336-.0102668-.179295-.0292969-.2617188zm4.5585941 0c-.027643.1769173-.075368.3486443-.164063.5097657-.098445.1804346-.208692.3176367-.394531.4941406-.250771.2384882-.491519.3993099-1.009766.6816406-.187003.1024252-.31349.1770485-.363281.2148438-.021917.0274015-.041752.03125-.042969.03125-.001209 0-.013914-.0160052-.029297-.0273438v-.0019531c-.040871-.0302362-.178265-.1199209-.396484-.2480469-.457875-.2694803-.7123613-.4474322-.9453125-.6621093-.3311954-.3049793-.5271359-.6219275-.5996094-.9667969-.0056148.0264623-.0157244.0510041-.0195312.078125-.0125481.0891968-.0067254.2958222.0117187.3925781.0671762.3564472.2667542.6823929.6074219.9960938.2329508.2145637.4874375.392629.9453125.6621093.21822.128126.355613.2178107.396484.2480469v.0019531c.015383.0113386.028064.0253907.029297.0253907.001217 0 .021048-.0028402.042969-.0292969.049791-.0366614.176278-.1124186.363281-.2148438.518247-.2822929.758994-.4431524 1.009766-.6816406.185835-.1763905.296074-.3138572.394531-.4941406.128164-.2329323.193359-.48348.19336-.7480469-.000001-.0937336-.010267-.179295-.029297-.2617188z" opacity=".2" stroke-width="2.51968" transform="matrix(1.00000000957 0 0 1.00000000957 -.0000012853 .00000325325)"/></svg>