<?xml version="1.0" encoding="UTF-8" standalone="no"?>
<svg
   xmlns:dc="http://purl.org/dc/elements/1.1/"
   xmlns:cc="http://creativecommons.org/ns#"
   xmlns:rdf="http://www.w3.org/1999/02/22-rdf-syntax-ns#"
   xmlns:svg="http://www.w3.org/2000/svg"
   xmlns="http://www.w3.org/2000/svg"
   xmlns:sodipodi="http://sodipodi.sourceforge.net/DTD/sodipodi-0.dtd"
   xmlns:inkscape="http://www.inkscape.org/namespaces/inkscape"
   height="16"
   width="16"
   version="1.1"
   id="svg8"
   sodipodi:docname="face-hat.svg"
   inkscape:version="0.92.4 (5da689c313, 2019-01-14)">
  <metadata
     id="metadata14">
    <rdf:RDF>
      <cc:Work
         rdf:about="">
        <dc:format>image/svg+xml</dc:format>
        <dc:type
           rdf:resource="http://purl.org/dc/dcmitype/StillImage" />
      </cc:Work>
    </rdf:RDF>
  </metadata>
  <defs
     id="defs12" />
  <sodipodi:namedview
     pagecolor="#ffffff"
     bordercolor="#666666"
     borderopacity="1"
     objecttolerance="10"
     gridtolerance="10"
     guidetolerance="10"
     inkscape:pageopacity="0"
     inkscape:pageshadow="2"
     inkscape:window-width="1920"
     inkscape:window-height="1016"
     id="namedview10"
     showgrid="false"
     inkscape:zoom="14.75"
     inkscape:cx="-4.8813559"
     inkscape:cy="8"
     inkscape:window-x="0"
     inkscape:window-y="27"
     inkscape:window-maximized="1"
     inkscape:current-layer="g6" />
  <g
     fill="#444"
     id="g6">
    <path
       d="m 14.840974,9.5347625 -13.7734045,0.03095 c 0.4957211,3.3575135 3.3891693,5.9341985 6.8844502,5.9341985 3.5059693,0 6.4064663,-2.592592 6.8889543,-5.9651485 z M 4.3790317,10.52888 h 7.1458673 c 0.220316,0 0.403846,0.221708 0.403846,0.497103 0,0.275395 -0.18353,0.497103 -0.403846,0.497103 H 4.3790317 c -0.2203161,0 -0.4038963,-0.221708 -0.4038963,-0.497103 0,-0.275395 0.1835802,-0.497103 0.4038963,-0.497103 z"
       id="path2"
       style="clip-rule:evenodd;fill:#fdc92b;fill-opacity:1;fill-rule:evenodd;stroke-width:0.99420619"
       inkscape:connector-curvature="0" />
    <path
       d="m 3.9984968,0.58681727 c -0.225834,0 -0.4475712,0.0669096 -0.6272043,0.20388994 C 3.1916692,0.92768695 3.0647178,1.1210406 3.010116,1.3402392 L 2.2644614,4.3228578 c -0.042761,0.1748212 -0.037636,0.3581758 0.015534,0.5301138 v 0.00194 L 0.2915835,6.8433258 C 0.15270284,6.9822462 0.05813813,7.1594324 0.01973025,7.3520797 c -0.03840788,0.1926374 -0.02131338,0.3912717 0.05631246,0.5728337 0.07498581,0.1815619 0.20190687,0.3372136 0.36506007,0.446616 0.16315321,0.1094025 0.3550355,0.1685 0.55147374,0.1689374 H 1.9867827 13.917257 14.911463 c 0.196555,-3.98e-5 0.388027,-0.057742 0.551474,-0.1669956 0.163448,-0.1092433 0.291741,-0.2649745 0.367002,-0.446616 0.07526,-0.1816415 0.09469,-0.3819492 0.05631,-0.5747755 C 15.847875,7.1592534 15.753388,6.9823655 15.614398,6.8433258 L 13.625986,4.8549134 v -0.00194 c 0.05319,-0.171938 0.05828,-0.3552926 0.01553,-0.5301138 L 12.895866,1.3402392 C 12.837009,1.1041361 12.694741,0.89706143 12.493911,0.75963827 12.293082,0.62221492 12.047904,0.56417253 11.806511,0.58681727 L 7.9539615,1.0761531 4.1014126,0.58681727 Z"
       id="path4"
       style="fill:#931b19;fill-opacity:1;stroke-width:0.99420619"
       inkscape:connector-curvature="0" />
  </g>
  <g
     id="g843"
     transform="matrix(0.99420618,0,0,0.99420619,-25.008442,1.3956631)"
     style="fill:#444444">
    <path
       style="clip-rule:evenodd;opacity:0.2;fill:#040300;fill-opacity:1;fill-rule:evenodd"
       d="m 27.532813,2.9209057 -0.0059,0.023437 c -0.0045,0.018599 -0.0024,0.037874 -0.0059,0.056641 l 0.02148,-0.021484 v -0.00195 c -0.0057,-0.018448 -0.0052,-0.037955 -0.0098,-0.056641 z m 11.431641,0 c -0.0046,0.018686 -0.0041,0.038192 -0.0098,0.056641 v 0.00195 l 0.02148,0.021484 c -0.0035,-0.018767 -0.0013,-0.038042 -0.0059,-0.056641 z M 25.290626,5.9306714 c -0.0056,0.02085 -0.01725,0.039293 -0.02148,0.060547 -0.03863,0.1937631 -0.02144,0.3935519 0.05664,0.5761719 0.07542,0.18262 0.203084,0.3391788 0.367188,0.4492187 0.164104,0.1100402 0.357104,0.1694819 0.554687,0.1699219 h 1 12 1 c 0.1977,-4e-5 0.390287,-0.058079 0.554688,-0.1679687 0.1644,-0.10988 0.29344,-0.2665188 0.36914,-0.4492188 0.0757,-0.1827 0.09524,-0.384175 0.05664,-0.578125 -0.0042,-0.021274 -0.01591,-0.039688 -0.02148,-0.060547 -0.01175,0.046343 -0.01672,0.094177 -0.03516,0.1386718 -0.0757,0.1827 -0.20474,0.3393388 -0.36914,0.4492188 -0.164401,0.1098897 -0.356988,0.1679287 -0.554688,0.1679687 h -1 -12 -1 C 26.050074,6.6860907 25.857074,6.626649 25.69297,6.5166088 25.528866,6.4065689 25.401205,6.2500101 25.325782,6.0673901 25.307048,6.0235726 25.30242,5.9761453 25.290626,5.9306714 Z m 14.791016,2.2558593 c -0.687835,3.1437153 -3.48393,5.5000003 -6.833985,5.5000003 -3.339285,0 -6.127129,-2.340248 -6.826172,-5.4687503 h -0.09766 c 0.49861,3.3770803 3.408178,5.9687503 6.923828,5.9687503 3.5264,0 6.444388,-2.60779 6.929688,-6.0000003 z M 29.653907,8.6865306 c -0.2216,0 -0.40625,0.222999 -0.40625,0.5 0,0.093113 0.02638,0.17551 0.0625,0.25 0.07133,-0.147109 0.196641,-0.25 0.34375,-0.25 h 7.1875 c 0.14711,0 0.272419,0.102891 0.34375,0.25 0.03612,-0.07449 0.0625,-0.156887 0.0625,-0.25 0,-0.277001 -0.18465,-0.5 -0.40625,-0.5 z"
       id="path839"
       inkscape:connector-curvature="0" />
    <path
       style="clip-rule:evenodd;opacity:0.3;fill:#ffffff;fill-opacity:1;fill-rule:evenodd"
       d="m 29.271095,-0.8134693 c -0.22715,0 -0.45018,0.0672996 -0.63086,0.20507808 -0.18067,0.137778 -0.308361,0.3322584 -0.363281,0.5527344 l -0.75,3.00000002 c -0.03842,0.1570822 -0.03271,0.3200864 0.0059,0.4765625 l 0.744141,-2.97656252 c 0.05492,-0.220476 0.182611,-0.4149564 0.363281,-0.5527344 0.18068,-0.1377785 0.40371,-0.2050781 0.63086,-0.2050781 h 0.103515 l 3.875,0.4921875 3.875,-0.4921875 c 0.2428,-0.0227767 0.489407,0.0356039 0.691407,0.1738281 0.202,0.1382241 0.345096,0.3465023 0.404296,0.5839844 l 0.744141,2.97656252 c 0.03857,-0.1564761 0.04426,-0.3194803 0.0059,-0.4765625 l -0.75,-3.00000002 c -0.0592,-0.2374821 -0.202296,-0.4457603 -0.404296,-0.58398435 -0.202,-0.1382242 -0.448607,-0.19660482 -0.691407,-0.17382813 l -3.875,0.49218748 -3.875,-0.49218748 z m -1.75,4.3144531 -1.978516,1.9785157 c -0.13969,0.13973 -0.234806,0.3179487 -0.273437,0.5117187 -0.0293,0.1469706 -0.01566,0.2956709 0.02148,0.4394532 0.04527,-0.1693846 0.12749,-0.3266704 0.251953,-0.4511719 l 2,-2 v -0.00195 c -0.04782,-0.1546481 -0.05083,-0.3178983 -0.02148,-0.4765626 z m 11.455078,0 c 0.02935,0.1586643 0.02636,0.3219145 -0.02148,0.4765626 v 0.00195 l 2,2 c 0.124125,0.1241695 0.206574,0.280453 0.251953,0.4492187 0.03605,-0.1433881 0.05056,-0.2914113 0.02148,-0.4375 -0.0386,-0.19395 -0.133637,-0.3718687 -0.273437,-0.5117187 z m 1.201172,4.6855469 -13.853516,0.03125 c 0.02501,0.1694139 0.06074,0.3347679 0.09766,0.4999999 l 13.660157,-0.03125 c 0.03606,-0.164999 0.07151,-0.3308751 0.0957,-0.4999999 z M 29.310157,9.9365306 c -0.03612,0.07449 -0.0625,0.1568874 -0.0625,0.2500004 0,0.277 0.18465,0.5 0.40625,0.5 h 7.1875 c 0.2216,0 0.40625,-0.223 0.40625,-0.5 0,-0.09311 -0.02638,-0.17551 -0.0625,-0.2500004 -0.07133,0.1471104 -0.19664,0.2500004 -0.34375,0.2500004 h -7.1875 c -0.147109,0 -0.272419,-0.10289 -0.34375,-0.2500004 z"
       id="path848"
       inkscape:connector-curvature="0" />
  </g>
</svg>
