<?xml version="1.0" encoding="UTF-8" standalone="no"?>
<svg
   xmlns:dc="http://purl.org/dc/elements/1.1/"
   xmlns:cc="http://creativecommons.org/ns#"
   xmlns:rdf="http://www.w3.org/1999/02/22-rdf-syntax-ns#"
   xmlns:svg="http://www.w3.org/2000/svg"
   xmlns="http://www.w3.org/2000/svg"
   xmlns:sodipodi="http://sodipodi.sourceforge.net/DTD/sodipodi-0.dtd"
   xmlns:inkscape="http://www.inkscape.org/namespaces/inkscape"
   width="16"
   height="16"
   version="1.1"
   id="svg4"
   sodipodi:docname="face-cool.svg"
   inkscape:version="0.92.4 (5da689c313, 2019-01-14)">
  <metadata
     id="metadata10">
    <rdf:RDF>
      <cc:Work
         rdf:about="">
        <dc:format>image/svg+xml</dc:format>
        <dc:type
           rdf:resource="http://purl.org/dc/dcmitype/StillImage" />
      </cc:Work>
    </rdf:RDF>
  </metadata>
  <defs
     id="defs8" />
  <sodipodi:namedview
     pagecolor="#ffffff"
     bordercolor="#666666"
     borderopacity="1"
     objecttolerance="10"
     gridtolerance="10"
     guidetolerance="10"
     inkscape:pageopacity="0"
     inkscape:pageshadow="2"
     inkscape:window-width="1920"
     inkscape:window-height="1016"
     id="namedview6"
     showgrid="false"
     inkscape:zoom="59.928571"
     inkscape:cx="4.990576"
     inkscape:cy="8"
     inkscape:window-x="0"
     inkscape:window-y="27"
     inkscape:window-maximized="1"
     inkscape:current-layer="svg4" />
  <path
     d="M8 1a7 7 0 1 0 0 14A7 7 0 0 0 8 1zM2.22 5.031c3.913-.037 7.972 0 11.562 0 0 1.642-1.25 2.969-2.78 2.969-1.276 0-2.333-.93-2.657-2.188h-.688C7.333 7.07 6.276 8 5 8 3.47 8 2.22 6.673 2.22 5.031zM3 9.063C3.716 10.136 5.235 11 8 11c2.452 0 4.211-.75 5-1.938v.5c0 .681-.838 2.407-5 2.407-3.88 0-5-1.874-5-2.406z"
     id="path2"
     fill="#474747"
     style="fill:#fdc92b;fill-opacity:1" />
  <path
     style="opacity:1;fill:#474747;fill-opacity:1"
     d="M 2.2207031 5.03125 C 2.2207031 5.85225 2.5333594 6.5938594 3.0371094 7.1308594 C 3.5408594 7.6678594 4.235 8 5 8 C 5.638 8 6.2212969 7.7667031 6.6855469 7.3769531 C 7.1497969 6.9872031 7.49425 6.4415 7.65625 5.8125 L 8.3457031 5.8125 C 8.5077031 6.4415 8.8521563 6.9872031 9.3164062 7.3769531 C 9.7806562 7.7667031 10.363953 8 11.001953 8 C 11.766953 8 12.461094 7.6678594 12.964844 7.1308594 C 13.468594 6.5938594 13.78125 5.85225 13.78125 5.03125 C 10.19125 5.03125 6.1337031 4.99425 2.2207031 5.03125 z "
     id="path844" />
  <path
     style="fill:#ffffff;fill-opacity:1;opacity:0.3"
     d="M 8 1 A 7 7 0 0 0 1.0117188 8.3046875 A 7 7 0 0 1 8 1.5 A 7 7 0 0 1 14.988281 8.1953125 A 7 7 0 0 0 8 1 z M 2.2207031 5.53125 C 2.2207031 7.17325 3.47 8.5 5 8.5 C 6.276 8.5 7.33225 7.5705 7.65625 6.3125 L 8.3457031 6.3125 C 8.6697031 7.5705 9.7259531 8.5 11.001953 8.5 C 12.531953 8.5 13.78125 7.17325 13.78125 5.53125 C 13.76638 5.53125 13.749262 5.5312513 13.734375 5.53125 C 13.510404 6.933441 12.372485 8 11.001953 8 C 9.7259531 8 8.6697031 7.0705 8.3457031 5.8125 L 7.65625 5.8125 C 7.33225 7.0705 6.276 8 5 8 C 3.6294682 8 2.4915494 6.933441 2.2675781 5.53125 C 2.2520356 5.5313946 2.2362411 5.5311031 2.2207031 5.53125 z M 3 9.5625 L 3 10.0625 C 3 10.5945 4.12 12.46875 8 12.46875 C 12.162 12.46875 13 10.7435 13 10.0625 L 13 9.5625 C 13 10.2435 12.162 11.96875 8 11.96875 C 4.12 11.96875 3 10.0945 3 9.5625 z "
     id="path846" />
  <path
     style="fill:#000000;fill-opacity:1;opacity:0.2"
     d="M 8.1230469 4.5175781 C 6.1704219 4.5129531 4.1772031 4.51275 2.2207031 4.53125 C 2.2207031 4.7023917 2.241518 4.8680981 2.2675781 5.03125 C 6.1499722 4.9951314 10.169657 5.0309479 13.734375 5.03125 C 13.760435 4.8680981 13.78125 4.7023917 13.78125 4.53125 C 11.98625 4.53125 10.075672 4.5222031 8.1230469 4.5175781 z M 14.988281 7.6953125 A 7 7 0 0 1 8 14.5 A 7 7 0 0 1 1.0117188 7.8046875 A 7 7 0 0 0 8 15 A 7 7 0 0 0 14.988281 7.6953125 z M 3 8.5625 L 3 9.0625 C 3.716 10.1355 5.235 11 8 11 C 10.452 11 12.211 10.2505 13 9.0625 L 13 8.5625 C 12.211 9.7505 10.452 10.5 8 10.5 C 5.235 10.5 3.716 9.6355 3 8.5625 z "
     id="path851" />
</svg>
