<?xml version="1.0" encoding="UTF-8" standalone="no"?>
<svg
   xmlns:dc="http://purl.org/dc/elements/1.1/"
   xmlns:cc="http://creativecommons.org/ns#"
   xmlns:rdf="http://www.w3.org/1999/02/22-rdf-syntax-ns#"
   xmlns:svg="http://www.w3.org/2000/svg"
   xmlns="http://www.w3.org/2000/svg"
   xmlns:sodipodi="http://sodipodi.sourceforge.net/DTD/sodipodi-0.dtd"
   xmlns:inkscape="http://www.inkscape.org/namespaces/inkscape"
   height="16"
   width="16"
   version="1.1"
   id="svg8"
   sodipodi:docname="face-angel.svg"
   inkscape:version="0.92.4 (5da689c313, 2019-01-14)">
  <metadata
     id="metadata14">
    <rdf:RDF>
      <cc:Work
         rdf:about="">
        <dc:format>image/svg+xml</dc:format>
        <dc:type
           rdf:resource="http://purl.org/dc/dcmitype/StillImage" />
      </cc:Work>
    </rdf:RDF>
  </metadata>
  <defs
     id="defs12" />
  <sodipodi:namedview
     pagecolor="#ffffff"
     bordercolor="#666666"
     borderopacity="1"
     objecttolerance="10"
     gridtolerance="10"
     guidetolerance="10"
     inkscape:pageopacity="0"
     inkscape:pageshadow="2"
     inkscape:window-width="1920"
     inkscape:window-height="1016"
     id="namedview10"
     showgrid="false"
     inkscape:zoom="55.933333"
     inkscape:cx="7.9998139"
     inkscape:cy="12.510557"
     inkscape:window-x="0"
     inkscape:window-y="27"
     inkscape:window-maximized="1"
     inkscape:current-layer="g848" />
  <g
     id="g6"
     transform="matrix(1.0666667,0,0,1.0666667,-0.56626859,-5e-7)"
     style="fill:#474747">
    <path
       d="M 2.188,4.094 A 6.937,6.937 0 0 0 1,8 7,7 0 0 0 15,8 C 15,6.55 14.567,5.211 13.812,4.094 13.614,4.229 13.388,4.344 13.188,4.437 12.338,4.832 11.333,5 10.25,5 H 5.75 C 4.667,5 3.663,4.832 2.812,4.437 A 4.443,4.443 0 0 1 2.188,4.094 Z M 6,6 C 6.558,6 7.031,6.473 7.031,7.031 V 8 C 7.031,8.558 6.558,9 6,9 5.442,9 5,8.558 5,8 V 7.031 C 5,6.473 5.442,6 6,6 Z m 4,0 c 0.558,0 1,0.473 1,1.031 V 8 C 11,8.558 10.558,9 10,9 9.442,9 9,8.558 9,8 V 7.031 C 9,6.473 9.442,6 10,6 Z M 3,9.063 C 3.715,10.136 5.235,11 8,11 c 2.452,0 4.21,-0.75 5,-1.938 v 0.5 c 0,0.681 -0.838,2.407 -5,2.407 -3.88,0 -5,-1.874 -5,-2.406 z"
       id="path2"
       style="fill:#fdc92b;fill-opacity:1"
       inkscape:connector-curvature="0" />
    <path
       d="M 5.736,0 C 4.778,0 3.91,0.172 3.236,0.484 2.563,0.796 2,1.295 2,2 2,2.705 2.563,3.204 3.236,3.516 3.91,3.828 4.778,4 5.736,4 h 4.528 C 11.222,4 12.09,3.828 12.764,3.516 13.437,3.204 14,2.705 14,2 14,1.295 13.437,0.796 12.764,0.484 12.09,0.172 11.222,0 10.264,0 Z m 0,1 h 4.528 c 0.834,0 1.583,0.162 2.08,0.393 C 12.84,1.623 13,1.874 13,2 13,2.126 12.84,2.377 12.344,2.607 11.847,2.837 11.098,3 10.264,3 H 5.736 C 4.902,3 4.153,2.838 3.656,2.607 3.16,2.377 3,2.126 3,2 3,1.874 3.16,1.623 3.656,1.393 4.153,1.163 4.902,1 5.736,1 Z"
       id="path4"
       style="fill:#37a6e6;fill-opacity:1"
       inkscape:connector-curvature="0" />
  </g>
  <g
     id="g848"
     transform="translate(-16.25149,0.84028605)"
     style="fill:#474747">
    <path
       style="opacity:0.3;fill:#ffffff;fill-opacity:1;stroke-width:1.06666672"
       d="m 21.80362,-0.84028655 c -1.021867,0 -1.947733,0.1838666 -2.666667,0.5166667 -0.717866,0.33280002 -1.318749,0.86466658 -1.318749,1.61666665 0,0.091136 0.01035,0.1777926 0.02708,0.2625 0.124827,-0.61013389 0.663533,-1.05463341 1.291666,-1.3458333 0.718934,-0.33279995 1.6448,-0.51666665 2.666667,-0.51666665 h 4.829167 c 1.021867,0 1.947733,0.1838665 2.666667,0.51666665 0.628133,0.29119989 1.166839,0.73569941 1.291666,1.3458333 0.01679,-0.084707 0.02708,-0.1713638 0.02708,-0.2625 0,-0.75200018 -0.600883,-1.28386663 -1.318749,-1.61666665 -0.718934,-0.3328001 -1.6448,-0.5166667 -2.666667,-0.5166667 z M 19.026536,1.5597135 c -0.0982,0.108051 -0.141666,0.202528 -0.141666,0.2666667 0,0.1343998 0.170934,0.4025832 0.7,0.6479165 0.530134,0.2464 1.32915,0.4187501 2.21875,0.4187501 h 4.829167 c 0.8896,0 1.688617,-0.1734168 2.21875,-0.4187501 0.529067,-0.2453333 0.7,-0.5135167 0.7,-0.6479165 0,-0.064139 -0.04347,-0.1586157 -0.141667,-0.2666667 -0.107447,0.1186832 -0.280727,0.2525209 -0.558333,0.3812499 -0.530133,0.2453333 -1.32915,0.41875 -2.21875,0.41875 H 21.80362 c -0.8896,0 -1.688616,-0.17235 -2.21875,-0.41875 -0.277606,-0.128729 -0.450886,-0.2625667 -0.558334,-0.3812499 z m -1.008332,1.9666666 a 7.3994666,7.3994666 0 0 0 -1.266667,4.1666667 7.4666666,7.4666666 0 0 0 0.0125,0.2562499 7.3994666,7.3994666 0 0 1 1.254167,-3.8895833 4.7392,4.7392 0 0 0 0.666666,0.3666667 c 0.907734,0.4213332 1.978134,0.6 3.133334,0.6 h 4.8 c 1.1552,0 2.226666,-0.1786668 3.133333,-0.6 0.213333,-0.0992 0.455467,-0.2226668 0.666667,-0.3666667 0.776882,1.1493741 1.222863,2.5224193 1.254166,4.00625 a 7.4666666,7.4666666 0 0 0 0.0125,-0.3729166 c 0,-1.5466667 -0.461333,-2.9752002 -1.266666,-4.1666667 -0.2112,0.1439999 -0.453334,0.2674667 -0.666667,0.3666667 -0.906667,0.4213332 -1.978133,0.6 -3.133333,0.6 h -4.8 c -1.1552,0 -2.2256,-0.1786667 -3.133334,-0.6 A 4.7392,4.7392 0 0 1 18.018206,3.5263801 Z m 3,4.1666667 v 0.5333333 c 0,0.5951999 0.471466,1.0666669 1.066666,1.0666669 0.5952,0 1.1,-0.471467 1.1,-1.0666669 V 7.6930468 c 0,0.5951998 -0.5048,1.0666667 -1.1,1.0666667 -0.5952,0 -1.066666,-0.4714669 -1.066666,-1.0666667 z m 4.266666,0 v 0.5333333 c 0,0.5951999 0.471467,1.0666669 1.066667,1.0666669 0.5952,0 1.066667,-0.471467 1.066667,-1.0666669 V 7.6930468 c 0,0.5951998 -0.471467,1.0666667 -1.066667,1.0666667 -0.5952,0 -1.066667,-0.4714669 -1.066667,-1.0666667 z m -6.4,1.6666669 v 0.5333334 c 0,0.5674669 1.194667,2.5666659 5.333334,2.5666659 4.439466,0 5.333333,-1.840266 5.333333,-2.5666659 V 9.3597137 c 0,0.7264003 -0.893867,2.5666663 -5.333333,2.5666663 -4.138667,0 -5.333334,-1.9991996 -5.333334,-2.5666663 z"
       id="path851"
       inkscape:connector-curvature="0" />
    <path
       style="opacity:0.2;fill:#1f1103;fill-opacity:1;stroke-width:1.06666672"
       d="m 21.80362,-0.30695315 c -0.8896,-2e-7 -1.688616,0.1734167 -2.21875,0.41874996 -0.529066,0.24533322 -0.7,0.51351669 -0.7,0.64791669 0,0.0636712 0.04295,0.15959808 0.139583,0.2666667 0.107342,-0.11893604 0.281993,-0.25214222 0.560417,-0.38125006 0.530134,-0.24533333 1.32915,-0.41875019 2.21875,-0.41874997 h 4.829167 c 0.8896,0 1.688617,0.17234997 2.21875,0.41874997 0.278423,0.12910784 0.453075,0.26231402 0.560416,0.38125006 0.09663,-0.10706862 0.139584,-0.20299545 0.139584,-0.2666667 0,-0.13440011 -0.170933,-0.40258347 -0.7,-0.64791669 -0.530133,-0.24639986 -1.32915,-0.41874996 -2.21875,-0.41874996 z M 17.845287,1.0326301 c -0.01653,0.084092 -0.02708,0.1699962 -0.02708,0.2604167 0,0.752 0.600883,1.2838666 1.31875,1.6166666 0.718933,0.3328 1.6448,0.5166667 2.666666,0.5166667 h 4.829167 c 1.021867,0 1.947733,-0.1838669 2.666667,-0.5166667 0.717866,-0.3328 1.31875,-0.8646668 1.31875,-1.6166666 0,-0.09042 -0.01056,-0.1763249 -0.02708,-0.2604167 -0.124827,0.6101338 -0.663533,1.05255 -1.291666,1.34375 -0.718933,0.3327998 -1.6448,0.5166667 -2.666667,0.5166667 h -4.829169 c -1.021867,0 -1.947733,-0.1838668 -2.666667,-0.5166667 -0.628133,-0.2912 -1.166839,-0.7336162 -1.291666,-1.34375 z m 4.239583,3.99375 c -0.5952,-2e-7 -1.066666,0.5048 -1.066666,1.1 v 0.5333333 c 0,-0.5952 0.471466,-1.1000002 1.066666,-1.1 0.5952,0 1.1,0.5048 1.1,1.1 V 6.1263801 c 0,-0.5952 -0.5048,-1.1 -1.1,-1.1 z m 4.266667,0 c -0.5952,-2e-7 -1.066667,0.5048 -1.066667,1.1 v 0.5333333 c 0,-0.5952 0.471467,-1.1000002 1.066667,-1.1 0.5952,0 1.066667,0.5048 1.066667,1.1 V 6.1263801 c 0,-0.5952 -0.471467,-1.1 -1.066667,-1.1 z m -9.5875,2.3895832 a 7.3994666,7.3994666 0 0 0 -0.0125,0.2770835 7.4666666,7.4666666 0 0 0 14.933333,0 c 0,-0.054641 -0.01135,-0.1060758 -0.0125,-0.1604168 A 7.4666666,7.4666666 0 0 1 16.764037,7.4159633 Z m 2.120833,0.8770836 v 0.5333332 c 0.762667,1.1445335 2.384,2.0666669 5.333334,2.0666669 2.615466,0 4.490666,-0.799467 5.333333,-2.0666669 V 8.2930469 C 28.70887,9.560247 26.83367,10.359714 24.218204,10.359714 c -2.949334,0 -4.570667,-0.9221337 -5.333334,-2.0666671 z"
       id="path856"
       inkscape:connector-curvature="0" />
  </g>
</svg>
