<?xml version="1.0" encoding="UTF-8" standalone="no"?>
<svg
   xmlns:dc="http://purl.org/dc/elements/1.1/"
   xmlns:cc="http://creativecommons.org/ns#"
   xmlns:rdf="http://www.w3.org/1999/02/22-rdf-syntax-ns#"
   xmlns:svg="http://www.w3.org/2000/svg"
   xmlns="http://www.w3.org/2000/svg"
   xmlns:sodipodi="http://sodipodi.sourceforge.net/DTD/sodipodi-0.dtd"
   xmlns:inkscape="http://www.inkscape.org/namespaces/inkscape"
   height="16"
   width="16"
   version="1.1"
   id="svg4"
   sodipodi:docname="face-sick.svg"
   inkscape:version="0.92.4 (5da689c313, 2019-01-14)">
  <metadata
     id="metadata10">
    <rdf:RDF>
      <cc:Work
         rdf:about="">
        <dc:format>image/svg+xml</dc:format>
        <dc:type
           rdf:resource="http://purl.org/dc/dcmitype/StillImage" />
      </cc:Work>
    </rdf:RDF>
  </metadata>
  <defs
     id="defs8" />
  <sodipodi:namedview
     pagecolor="#ffffff"
     bordercolor="#666666"
     borderopacity="1"
     objecttolerance="10"
     gridtolerance="10"
     guidetolerance="10"
     inkscape:pageopacity="0"
     inkscape:pageshadow="2"
     inkscape:window-width="1920"
     inkscape:window-height="1016"
     id="namedview6"
     showgrid="false"
     inkscape:zoom="52.4375"
     inkscape:cx="8"
     inkscape:cy="8"
     inkscape:window-x="0"
     inkscape:window-y="27"
     inkscape:window-maximized="1"
     inkscape:current-layer="svg4" />
  <path
     d="m8 1a7 7 0 1 0 0 14 7 7 0 0 0 0-14zm-3.687 3.688a.27.27 0 0 1 .125.03l1.125.657 1.156-.656c.165-.092.34-.021.406.156a.432.432 0 0 1 -.187.5l-.72.406.72.406a.376.376 0 0 1 .156.47c-.069.176-.242.218-.406.124l-1.125-.625-1.157.625c-.165.092-.34.053-.406-.125a.432.432 0 0 1 .188-.5l.687-.406-.687-.375c-.165-.094-.256-.324-.188-.5a.303.303 0 0 1 .313-.188zm5.156 0a.27.27 0 0 1 .125.03l1.125.657 1.156-.656c.165-.092.34-.021.406.156a.432.432 0 0 1 -.187.5l-.719.406.719.406c.164.094.255.293.187.47-.068.176-.273.218-.437.124l-1.125-.656-1.156.656c-.166.092-.34.053-.407-.125a.432.432 0 0 1 .188-.5l.719-.406-.72-.406c-.163-.094-.255-.293-.187-.47a.303.303 0 0 1 .313-.187zm-4.344 4.342a2.75 2.75 0 0 1 1.875.532c.35.22.413.274 1 .344.16.056.607-.04 1-.344.28-.204.561-.295.844-.374 1.309-.368 2.574.436 3.156 1.25v.5c-.511-.286-1.06-.598-1.625-.782l.469.938c.328.647.132 1.399-.438 1.687-.57.289-1.297-.009-1.625-.656l-.593-1.156c-.051-.101-.068-.209-.094-.313a.594.594 0 0 1 -.094.031c-.541.314-1.56.197-2 0-.917-.437-.909-.667-1.531-.687-.853.019-1.843.399-2.469.937v-.5c.264-.678 1.119-1.316 2.125-1.406z"
     fill="#474747"
     id="path2"
     style="fill:#76c22b;fill-opacity:1" />
  <path
     style="opacity:1;fill:#f22c42;fill-opacity:1"
     d="M 9.0488281 10.671875 A 0.594 0.594 0 0 0 9.09375 10.65625 C 9.11975 10.76025 9.1365 10.86775 9.1875 10.96875 L 9.78125 12.125 C 9.94525 12.4485 10.207953 12.685438 10.501953 12.804688 C 10.795953 12.923937 11.12125 12.92575 11.40625 12.78125 C 11.69125 12.63725 11.881687 12.377141 11.960938 12.072266 C 12.040188 11.767391 12.00775 11.41725 11.84375 11.09375 L 11.375 10.15625 C 11.564429 10.21794 11.734919 10.333306 11.919922 10.417969 A 2.1987627 2.1296272 0 0 0 10.636719 10.013672 A 2.1987627 2.1296272 0 0 0 9.0488281 10.671875 z "
     id="path855" />
  <path
     style="opacity:0.2;fill:#f22c42;fill-opacity:1"
     d="M 11.289062 14.175781 A 2.1987627 2.1296272 0 0 0 12.349609 13.474609 A 7 7 0 0 1 11.953125 13.777344 A 7 7 0 0 1 11.355469 14.142578 A 7 7 0 0 1 11.289062 14.175781 z "
     id="path853" />
  <path
     style="fill:#fefefe;fill-opacity:1;opacity:0.3"
     d="M 8 1 A 7 7 0 0 0 1.0117188 8.3046875 A 7 7 0 0 1 8 1.5 A 7 7 0 0 1 14.988281 8.1953125 A 7 7 0 0 0 8 1 z M 9.2558594 5.2460938 A 0.303 0.303 0 0 0 9.15625 5.3730469 C 9.08825 5.5500469 9.18075 5.74975 9.34375 5.84375 L 9.6210938 6 L 10.0625 5.75 L 9.34375 5.34375 C 9.304455 5.3210891 9.2856549 5.2791798 9.2558594 5.2460938 z M 7.0585938 5.265625 A 0.432 0.432 0 0 1 6.9375 5.375 L 6.21875 5.78125 L 6.6601562 6.03125 L 6.9375 5.875 A 0.432 0.432 0 0 0 7.125 5.375 C 7.1088393 5.3316599 7.0860779 5.2954176 7.0585938 5.265625 z M 12.212891 5.265625 A 0.432 0.432 0 0 1 12.09375 5.375 L 11.375 5.78125 L 11.816406 6.03125 L 12.09375 5.875 A 0.432 0.432 0 0 0 12.28125 5.375 C 12.26496 5.3313138 12.240671 5.2955397 12.212891 5.265625 z M 4.0722656 5.2695312 A 0.303 0.303 0 0 0 4 5.375 C 3.932 5.551 4.0225 5.781 4.1875 5.875 L 4.4355469 6.0097656 L 4.875 5.75 L 4.1875 5.375 C 4.142259 5.3492264 4.104628 5.3118371 4.0722656 5.2695312 z M 10.71875 6.125 L 9.5625 6.78125 C 9.438 6.85025 9.3095937 6.8454219 9.2246094 6.7636719 A 0.432 0.432 0 0 0 9.15625 7.15625 C 9.22325 7.33425 9.3965 7.37325 9.5625 7.28125 L 10.71875 6.625 L 11.84375 7.28125 C 12.00775 7.37525 12.21325 7.33225 12.28125 7.15625 C 12.333889 7.019233 12.273807 6.8837681 12.175781 6.7792969 C 12.08234 6.8402731 11.955121 6.8450847 11.84375 6.78125 L 10.71875 6.125 z M 5.5625 6.15625 L 4.40625 6.78125 C 4.2825 6.85025 4.1531563 6.8454219 4.0683594 6.7636719 A 0.432 0.432 0 0 0 4 7.15625 C 4.066 7.33425 4.24125 7.37325 4.40625 7.28125 L 5.5625 6.65625 L 6.6875 7.28125 C 6.8515 7.37525 7.02475 7.33225 7.09375 7.15625 A 0.376 0.376 0 0 0 7.0273438 6.7597656 C 6.9419052 6.8440908 6.8118988 6.8525518 6.6875 6.78125 L 5.5625 6.15625 z M 5.46875 10 C 4.61575 10.019 3.626 10.3995 3 10.9375 L 3 11.4375 C 3.626 10.8995 4.61575 10.519 5.46875 10.5 C 6.09075 10.52 6.083 10.7505 7 11.1875 C 7.44 11.3845 8.459 11.5015 9 11.1875 A 0.594 0.594 0 0 0 9.09375 11.15625 C 9.11975 11.26025 9.1365 11.36775 9.1875 11.46875 L 9.78125 12.625 C 10.10925 13.272 10.83625 13.57025 11.40625 13.28125 C 11.860079 13.051947 12.062849 12.528442 11.966797 11.998047 C 11.900178 12.333377 11.713188 12.626165 11.40625 12.78125 C 10.83625 13.07025 10.10925 12.772 9.78125 12.125 L 9.1875 10.96875 C 9.1365 10.86775 9.11975 10.76025 9.09375 10.65625 A 0.594 0.594 0 0 1 9 10.6875 C 8.459 11.0015 7.44 10.8845 7 10.6875 C 6.083 10.2505 6.09075 10.02 5.46875 10 z M 11.375 10.15625 L 11.691406 10.791016 C 12.143268 10.974926 12.58628 11.205946 13 11.4375 L 13 10.9375 C 12.489 10.6515 11.94 10.34025 11.375 10.15625 z "
     id="path857" />
  <path
     style="fill:#181818;fill-opacity:1;opacity:0.2"
     d="M 6.8417969 4.1796875 C 6.8011563 4.1832031 6.76 4.19575 6.71875 4.21875 L 5.5625 4.875 L 4.4375 4.21875 A 0.27 0.27 0 0 0 4.3125 4.1875 A 0.303 0.303 0 0 0 4 4.375 C 3.9506448 4.502743 3.986598 4.657542 4.0722656 4.7695312 A 0.303 0.303 0 0 1 4.3125 4.6875 A 0.27 0.27 0 0 1 4.4375 4.71875 L 5.5625 5.375 L 6.71875 4.71875 C 6.8433482 4.649277 6.9738333 4.6737452 7.0585938 4.765625 A 0.432 0.432 0 0 0 7.125 4.375 C 7.0755 4.24225 6.9637187 4.1691406 6.8417969 4.1796875 z M 11.998047 4.1796875 C 11.957406 4.1832031 11.91625 4.19575 11.875 4.21875 L 10.71875 4.875 L 9.59375 4.21875 A 0.27 0.27 0 0 0 9.46875 4.1875 A 0.303 0.303 0 0 0 9.15625 4.3730469 C 9.104643 4.5073768 9.1620598 4.6419352 9.2558594 4.7460938 A 0.303 0.303 0 0 1 9.46875 4.6875 A 0.27 0.27 0 0 1 9.59375 4.71875 L 10.71875 5.375 L 11.875 4.71875 C 11.999276 4.649457 12.128115 4.6743368 12.212891 4.765625 A 0.432 0.432 0 0 0 12.28125 4.375 C 12.23175 4.24225 12.119969 4.1691406 11.998047 4.1796875 z M 9.6210938 5.5 L 9.34375 5.65625 A 0.432 0.432 0 0 0 9.15625 6.15625 C 9.173 6.20075 9.1962813 6.2364219 9.2246094 6.2636719 A 0.432 0.432 0 0 1 9.34375 6.15625 L 10.0625 5.75 L 9.6210938 5.5 z M 4.4355469 5.5097656 L 4.1875 5.65625 A 0.432 0.432 0 0 0 4 6.15625 C 4.0165 6.20075 4.0400937 6.2364219 4.0683594 6.2636719 A 0.432 0.432 0 0 1 4.1875 6.15625 L 4.875 5.75 L 4.4355469 5.5097656 z M 6.6601562 5.53125 L 6.21875 5.78125 L 6.9375 6.1875 A 0.376 0.376 0 0 1 7.0273438 6.2597656 C 7.0545423 6.2329215 7.0770885 6.1987488 7.09375 6.15625 A 0.376 0.376 0 0 0 6.9375 5.6875 L 6.6601562 5.53125 z M 11.816406 5.53125 L 11.375 5.78125 L 12.09375 6.1875 C 12.130796 6.2087339 12.147176 6.2488111 12.175781 6.2792969 C 12.219937 6.2504823 12.259428 6.2127298 12.28125 6.15625 C 12.34925 5.97925 12.25775 5.7815 12.09375 5.6875 L 11.816406 5.53125 z M 14.988281 7.6953125 A 7 7 0 0 1 8 14.5 A 7 7 0 0 1 1.0117188 7.8046875 A 7 7 0 0 0 8 15 A 7 7 0 0 0 14.988281 7.6953125 z M 5.4003906 8.5195312 A 2.75 2.75 0 0 0 5.125 8.5292969 L 5.125 8.53125 C 4.119 8.62125 3.264 9.2595 3 9.9375 L 3 10.4375 C 3.264 9.7595 4.119 9.12125 5.125 9.03125 L 5.125 9.0292969 A 2.75 2.75 0 0 1 7 9.5625 C 7.35 9.7825 7.413 9.83625 8 9.90625 C 8.16 9.96225 8.607 9.8665 9 9.5625 C 9.28 9.3585 9.56075 9.2665 9.84375 9.1875 C 11.15275 8.8195 12.418 9.6235 13 10.4375 L 13 9.9375 C 12.418 9.1235 11.15275 8.3195 9.84375 8.6875 C 9.56075 8.7665 9.28 8.8585 9 9.0625 C 8.607 9.3665 8.16 9.46225 8 9.40625 C 7.413 9.33625 7.35 9.2825 7 9.0625 A 2.75 2.75 0 0 0 5.4003906 8.5195312 z M 11.375 10.15625 L 11.84375 11.09375 C 11.910599 11.225614 11.942209 11.362277 11.966797 11.498047 C 12.023893 11.210652 11.995126 10.892348 11.84375 10.59375 L 11.691406 10.291016 C 11.585158 10.247772 11.48256 10.191278 11.375 10.15625 z "
     id="path862" />
</svg>
