<svg height="16" width="16" xmlns="http://www.w3.org/2000/svg"><path d="m8 0a8 8 0 1 0 0 16 8 8 0 0 0 0-16zm-2.2857143 4.5714286c.6377143 0 1.1782857.5405714 1.1782857 1.1782857v1.1074286c0 .6377142-.5405714 1.1428571-1.1782857 1.1428571s-1.1428571-.5051429-1.1428571-1.1428571v-1.1074286c0-.6377143.5051428-1.1782857 1.1428571-1.1782857zm4.5714283 0c.637715 0 1.142857.5405714 1.142857 1.1782857v1.1074286c0 .6377142-.505142 1.1428571-1.142857 1.1428571-.637714 0-1.142857-.5051429-1.142857-1.1428571v-1.1074286c0-.6377143.505143-1.1782857 1.142857-1.1782857zm-7.9999997 4.6434285c1.1394286.7268572 4.5897143 1.0708569 5.7142857 1.0708569.5622857 0 1.633143.01714 2.749714-.107428 1.117715-.123429 2.281143-.4114289 2.964572-.9634289v.5714286c0 .5040003-.860572 1.0502853-2.464 1.3565713l.285714.606857c.318857.690286.094857 1.458286-.500571 1.750857l-.285715.142858c-.594285.291428-1.342857-.03429-1.678857-.714286l-.7131427-1.465143c-.020571-.03886-.022857-.04-.036571-.07086h-.3211433c-3.7211429 0-5.7142857-.998857-5.7142857-1.6068573z" fill="#fdc92b" stroke-width="1.142857"/><path d="m8.2421875 10.96875h.0390625c.012.027.01325.0285.03125.0625l.625 1.28125c.147.2975.3829375.517109.6484375.630859s.5603125.121641.8203125-.0059l.25-.125c.2605-.128.440281-.359266.519531-.634766s.05747-.594484-.08203-.896484l-.111329-.236287-.173828-.294922c.01493.0041.0282.01306.04297.01758l-.007814-.01758c.0033-.000637.0045-.0013.0078-.002a2.9441256 2.4135832 0 0 0 -1.0312375-.160109 2.9441256 2.4135832 0 0 0 -1.578125.380859z" fill="#f22c42" stroke-width="1.23188" transform="matrix(1.1428571 0 0 1.1428571 -1.14285856223 -1.14285653608)"/><g stroke-width="1.142857"><path d="m8 0a8 8 0 0 0 -7.9866071 8.3482143 8 8 0 0 1 7.9866071-7.77678573 8 8 0 0 1 7.986607 7.65178573 8 8 0 0 0 -7.986607-8.2232143zm-3.4285714 6.8571429v.5714285c0 .6377143.5051428 1.1428572 1.1428571 1.1428572s1.1785714-.5051429 1.1785714-1.1428572v-.5714285c0 .6377142-.5408571 1.1428571-1.1785714 1.1428571s-1.1428571-.5051429-1.1428571-1.1428571zm4.5714284 0v.5714285c0 .6377143.505143 1.1428572 1.142857 1.1428572.637715 0 1.142857-.5051429 1.142857-1.1428572v-.5714285c0 .6377142-.505142 1.1428571-1.142857 1.1428571-.637714 0-1.142857-.5051429-1.142857-1.1428571zm-6.8571427 2.9285714v.5714287c0 .608 1.9931428 1.607143 5.7142857 1.607143h.3214286c.013714.03086.015143.03257.035714.07143l.7142864 1.464284c.336.68 1.084285 1.005714 1.678571.714286l.285714-.142857c.488593-.240077.706769-.800298.600447-1.375-.07833.347206-.279593.645915-.600447.803571l-.285714.142857c-.594286.291429-1.342571-.03429-1.678571-.714286l-.7142861-1.464285c-.020571-.03886-.022-.04057-.035714-.07143h-.3214289c-3.7211429 0-5.7142857-.999143-5.7142857-1.6071427zm11.4285717 0c0 .5039997-.860857 1.0508567-2.464286 1.3571427l.241072.511161c1.432793-.313733 2.223214-.821435 2.223214-1.296875z" fill="#fffdf7" opacity=".3"/><path d="m5.7142857 4c-.6377143 0-1.1428571.5408571-1.1428571 1.1785714v.5714286c0-.6377143.5051428-1.1785714 1.1428571-1.1785714s1.1785714.5408571 1.1785714 1.1785714v-.5714286c0-.6377143-.5408571-1.1785714-1.1785714-1.1785714zm4.5714283 0c-.637714 0-1.142857.5408571-1.142857 1.1785714v.5714286c0-.6377143.505143-1.1785714 1.142857-1.1785714.637715 0 1.142857.5408571 1.142857 1.1785714v-.5714286c0-.6377143-.505142-1.1785714-1.142857-1.1785714zm5.700893 3.6517857a8 8 0 0 1 -7.986607 7.7767853 8 8 0 0 1 -7.9866071-7.6517853 8 8 0 0 0 7.9866071 8.2232143 8 8 0 0 0 7.986607-8.3482143zm-13.7008927.9910714v.5714286c1.1394286.7268572 4.5897143 1.0714283 5.7142857 1.0714283.5622857 0 1.633429.01743 2.75-.107143 1.117714-.123428 2.280857-.4122853 2.964286-.9642853v-.5714286c-.683429.552-1.846572.8408572-2.964286.9642858-1.116571.1245714-2.1877143.1071428-2.75.1071428-1.1245714 0-4.5748571-.3445714-5.7142857-1.0714286zm9.2053577 2.4397329c-.08607.01885-.150213.04291-.241072.06027l.285714.60714c.05721.123855.0772.249337.100447.375.06703-.297128.04659-.628111-.100447-.946429z" fill="#090700" opacity=".2"/></g></svg>