<?xml version="1.0" encoding="UTF-8" standalone="no"?>
<svg
   xmlns:dc="http://purl.org/dc/elements/1.1/"
   xmlns:cc="http://creativecommons.org/ns#"
   xmlns:rdf="http://www.w3.org/1999/02/22-rdf-syntax-ns#"
   xmlns:svg="http://www.w3.org/2000/svg"
   xmlns="http://www.w3.org/2000/svg"
   xmlns:sodipodi="http://sodipodi.sourceforge.net/DTD/sodipodi-0.dtd"
   xmlns:inkscape="http://www.inkscape.org/namespaces/inkscape"
   height="16"
   width="16"
   version="1.1"
   id="svg4"
   sodipodi:docname="face-smile-big-squint.svg"
   inkscape:version="0.92.4 (5da689c313, 2019-01-14)">
  <metadata
     id="metadata10">
    <rdf:RDF>
      <cc:Work
         rdf:about="">
        <dc:format>image/svg+xml</dc:format>
        <dc:type
           rdf:resource="http://purl.org/dc/dcmitype/StillImage" />
      </cc:Work>
    </rdf:RDF>
  </metadata>
  <defs
     id="defs8" />
  <sodipodi:namedview
     pagecolor="#ffffff"
     bordercolor="#666666"
     borderopacity="1"
     objecttolerance="10"
     gridtolerance="10"
     guidetolerance="10"
     inkscape:pageopacity="0"
     inkscape:pageshadow="2"
     inkscape:window-width="1920"
     inkscape:window-height="1016"
     id="namedview6"
     showgrid="false"
     inkscape:zoom="14.75"
     inkscape:cx="7.6436146"
     inkscape:cy="8"
     inkscape:window-x="0"
     inkscape:window-y="27"
     inkscape:window-maximized="1"
     inkscape:current-layer="svg4" />
  <path
     clip-rule="evenodd"
     d="m8 1c-3.866 0-7 3.134-7 7s3.134 7 7 7 7-3.134 7-7-3.134-7-7-7zm-5 8.03125c2 1.30345 7.9871 1.30345 10.031 0l-.0312.53125c-.0364.42971-1 3.375-4.99998 3.4062-4 .0312-5-2.78-5-3.31251zm.992-4.03125.516-.859 3.21398 1.929-3.21398 1.93-.516-.86 1.78296-1.07zm4.28492 1.071 3.21508-1.93.516.859-1.7841 1.07 1.7841 1.07-.516.86z"
     fill="#444"
     fill-rule="evenodd"
     id="path2"
     style="fill:#fdc92b;fill-opacity:1" />
  <path
     style="fill:#ffffff;fill-opacity:1;opacity:0.3"
     d="M 8 1 C 4.134 1 1 4.134 1 8 C 1 8.0845149 1.0107015 8.1662099 1.0136719 8.25 C 1.1465787 4.5009427 4.2185149 1.5 8 1.5 C 11.781485 1.5 14.853421 4.5009427 14.986328 8.25 C 14.989299 8.1662099 15 8.0845149 15 8 C 15 4.134 11.866 1 8 1 z M 4.2128906 5.1328125 L 3.9921875 5.5 L 5.359375 6.3203125 L 5.7753906 6.0703125 L 4.2128906 5.1328125 z M 11.787109 5.1328125 L 10.224609 6.0703125 L 10.640625 6.3203125 L 12.007812 5.5 L 11.787109 5.1328125 z M 7.3066406 6.3203125 L 4.5078125 8 L 4.2128906 7.5078125 L 3.9921875 7.640625 L 4.5078125 8.5 L 7.7226562 6.5703125 L 7.3066406 6.3203125 z M 8.6933594 6.3203125 L 8.2773438 6.5703125 L 11.492188 8.5 L 12.007812 7.640625 L 11.787109 7.5078125 L 11.492188 8 L 8.6933594 6.3203125 z M 13.03125 9.53125 C 13.02205 9.5371171 13.009359 9.5410607 13 9.546875 L 13 9.5625 C 12.9636 9.99221 11.99998 12.93755 8 12.96875 C 4 12.99995 3 10.18876 3 9.65625 L 3 10.15625 C 3 10.68876 4 13.49995 8 13.46875 C 11.99998 13.43755 12.9636 10.49221 13 10.0625 L 13.03125 9.53125 z "
     id="path829" />
  <path
     style="fill:#000000;fill-opacity:1;opacity:0.2"
     d="M 4.5078125 3.640625 L 3.9921875 4.5 L 4.2128906 4.6328125 L 4.5078125 4.140625 L 7.3066406 5.8203125 L 7.7226562 5.5703125 L 4.5078125 3.640625 z M 11.492188 3.640625 L 8.2773438 5.5703125 L 8.6933594 5.8203125 L 11.492188 4.140625 L 11.787109 4.6328125 L 12.007812 4.5 L 11.492188 3.640625 z M 5.359375 5.8203125 L 3.9921875 6.640625 L 4.2128906 7.0078125 L 5.7753906 6.0703125 L 5.359375 5.8203125 z M 10.640625 5.8203125 L 10.224609 6.0703125 L 11.787109 7.0078125 L 12.007812 6.640625 L 10.640625 5.8203125 z M 1.0136719 7.75 C 1.0107015 7.8337901 1 7.9154851 1 8 C 1 11.866 4.134 15 8 15 C 11.866 15 15 11.866 15 8 C 15 7.9154851 14.989299 7.8337901 14.986328 7.75 C 14.853421 11.499057 11.781485 14.5 8 14.5 C 4.2185149 14.5 1.1465787 11.499057 1.0136719 7.75 z M 3 8.53125 L 3 9.03125 C 4.9909976 10.328833 10.930121 10.332776 13 9.046875 L 13.03125 8.53125 C 10.98735 9.8347 5 9.8347 3 8.53125 z "
     id="path836" />
</svg>
