<?xml version="1.0" encoding="UTF-8" standalone="no"?>
<svg
   xmlns:dc="http://purl.org/dc/elements/1.1/"
   xmlns:cc="http://creativecommons.org/ns#"
   xmlns:rdf="http://www.w3.org/1999/02/22-rdf-syntax-ns#"
   xmlns:svg="http://www.w3.org/2000/svg"
   xmlns="http://www.w3.org/2000/svg"
   xmlns:sodipodi="http://sodipodi.sourceforge.net/DTD/sodipodi-0.dtd"
   xmlns:inkscape="http://www.inkscape.org/namespaces/inkscape"
   height="16"
   width="16"
   version="1.1"
   id="svg8"
   sodipodi:docname="face-kiss.svg"
   inkscape:version="0.92.4 (5da689c313, 2019-01-14)">
  <metadata
     id="metadata14">
    <rdf:RDF>
      <cc:Work
         rdf:about="">
        <dc:format>image/svg+xml</dc:format>
        <dc:type
           rdf:resource="http://purl.org/dc/dcmitype/StillImage" />
      </cc:Work>
    </rdf:RDF>
  </metadata>
  <defs
     id="defs12" />
  <sodipodi:namedview
     pagecolor="#ffffff"
     bordercolor="#666666"
     borderopacity="1"
     objecttolerance="10"
     gridtolerance="10"
     guidetolerance="10"
     inkscape:pageopacity="0"
     inkscape:pageshadow="2"
     inkscape:window-width="1920"
     inkscape:window-height="1016"
     id="namedview10"
     showgrid="false"
     inkscape:zoom="14.75"
     inkscape:cx="-4.8813559"
     inkscape:cy="8"
     inkscape:window-x="0"
     inkscape:window-y="27"
     inkscape:window-maximized="1"
     inkscape:current-layer="g853" />
  <g
     id="g6"
     style="fill:#fdc92b;fill-opacity:1"
     transform="matrix(1.1428571,0,0,1.1428571,-1.1428521,-1.1428572)">
    <path
       d="M 8,1 A 7,7 0 1 0 8,15 7,7 0 0 0 8,1 Z M 5.531,5 C 6.266,5 7,5.225 7,6.092 4.44,5.488 4.582,7.78 4,6.312 3.68,5.505 4.797,5 5.531,5 Z m 4.938,0 C 11.203,5 12.173,5.461 12,6.313 11.683,7.869 11.472,5.355 9,6.092 9,5.225 9.734,5 10.469,5 Z M 7,8 C 7.41,7.99 7.75,8.134 8.031,8.344 8.313,8.134 8.683,7.987 9.094,8 9.725,8.02 10,8.76 10,9.187 c 0,0.775 0.475,0.766 1,0.829 -0.634,0.15 -0.987,1.224 -0.984,1.765 C 10.021,12.753 9.086,13.037 8,13.031 6.915,13.027 6.013,12.78 6.016,11.797 6.016,11.389 5.663,10.207 4.984,10.031 5.664,9.938 6,9.781 6,9.171 6,8.363 6.529,8.011 7,8 Z"
       id="path2"
       style="fill:#fdc92b;fill-opacity:1"
       inkscape:connector-curvature="0" />
    <path
       d="m 9,10.274 c -0.17,0.08 -0.32,0.16 -0.322,0.272 -0.018,0.27 -0.374,0.481 -0.672,0.48 -0.298,-10e-4 -0.594,-0.21 -0.594,-0.48 0,-0.112 -0.111,-0.19 -0.272,-0.272 0.53,-0.395 1.253,-0.338 1.86,0 z"
       id="path4"
       style="fill:#fdc92b;fill-opacity:1"
       inkscape:connector-curvature="0" />
  </g>
  <path
     style="opacity:1;fill:#f22c42;fill-opacity:1;stroke-width:1.14285719"
     d="M 6.8571479,7.9999999 C 6.588005,8.0062856 6.3032549,8.1105535 6.0848265,8.3281249 5.8663979,8.5456964 5.7142907,8.8775713 5.7142907,9.3392856 c 0,0.3485714 -0.097036,0.5667679 -0.2901785,0.7120534 -0.193143,0.145286 -0.4819643,0.216947 -0.8705358,0.27009 0.388,0.100571 0.6816072,0.487339 0.8794643,0.908482 0.1978571,0.421143 0.2991072,0.876232 0.2991072,1.109375 -0.00171,0.561714 0.255125,0.913428 0.6674107,1.125 0.4122857,0.211571 0.9804464,0.283428 1.6004464,0.285714 0.6205714,0.0034 1.198964,-0.0755 1.620536,-0.294642 0.421571,-0.219144 0.685893,-0.578501 0.683035,-1.133929 -0.0017,-0.309143 0.09918,-0.770768 0.290179,-1.17634 0.191,-0.405571 0.472536,-0.755803 0.834821,-0.841518 -0.3,-0.036 -0.586161,-0.05027 -0.796875,-0.16741 -0.210714,-0.117143 -0.345982,-0.3361611 -0.345982,-0.7790182 0,-0.244 -0.07905,-0.5773928 -0.247768,-0.8526787 C 9.869237,8.2291784 9.610576,8.0114285 9.250005,7.9999999 8.7802907,7.9851428 8.358005,8.152857 8.0357193,8.392857 c -0.3211429,-0.24 -0.71,-0.4042857 -1.1785714,-0.3928571 z"
     id="path847"
     inkscape:connector-curvature="0" />
  <g
     style="fill:#fdc92b;fill-opacity:1"
     id="g844"
     transform="matrix(1.1428571,0,0,1.1428571,-1.1428521,-1.1428572)">
    <path
       style="fill:#fdc92b;fill-opacity:1"
       id="path842"
       d="m 9,10.274 c -0.17,0.08 -0.32,0.16 -0.322,0.272 -0.018,0.27 -0.374,0.481 -0.672,0.48 -0.298,-10e-4 -0.594,-0.21 -0.594,-0.48 0,-0.112 -0.111,-0.19 -0.272,-0.272 0.53,-0.395 1.253,-0.338 1.86,0 z"
       inkscape:connector-curvature="0" />
  </g>
  <g
     style="fill:#fdc92b;fill-opacity:1"
     id="g853"
     transform="translate(-21.694915,0.6779661)">
    <path
       style="opacity:0.2;fill:#000000;fill-opacity:1;stroke-width:1.14285719"
       d="m 26.873491,3.3220338 c -0.831084,0 -2.086814,0.5680629 -1.754464,1.4754464 0.22676,-0.5680141 1.114987,-0.9040178 1.754464,-0.9040178 0.636747,0 1.269632,0.1486888 1.540179,0.6517857 0.04755,0.00979 0.08911,0.012926 0.138393,0.024554 0,-0.9908572 -0.838572,-1.2477679 -1.678572,-1.2477683 z m 5.642858,0 c -0.84,0 -1.678572,0.2569107 -1.678572,1.2477679 0.04973,-0.014825 0.09249,-0.020913 0.140625,-0.033482 0.272855,-0.496962 0.904431,-0.6428571 1.537947,-0.6428571 0.685108,0 1.539083,0.3563527 1.725446,1.015625 0.0083,-0.03644 0.01612,-0.045684 0.02455,-0.087054 0.197714,-0.9737143 -0.911143,-1.5 -1.75,-1.5 z M 21.710545,7.0363195 c -0.0034,0.09576 -0.01563,0.1891261 -0.01563,0.2857143 0,4.4182782 3.581719,8.0000002 8,8.0000002 4.418281,0 8,-3.581722 8,-8.0000002 0,-0.096588 -0.01223,-0.1899543 -0.01563,-0.2857143 -0.151894,4.2846305 -3.662682,7.7142855 -7.984375,7.7142855 -4.321693,0 -7.832481,-3.429655 -7.984375,-7.7142855 z"
       id="path849"
       inkscape:connector-curvature="0" />
    <path
       style="opacity:0.3;fill:#ffffff;fill-opacity:1;stroke-width:1.14285719"
       d="m 29.69492,-0.6779662 c -4.418281,0 -8,3.5817221 -8,8 0,0.096588 0.01223,0.1899543 0.01563,0.2857143 0.151894,-4.2846301 3.662682,-7.7142857 7.984375,-7.7142857 4.321693,0 7.832481,3.4296556 7.984375,7.7142857 0.0034,-0.09576 0.01563,-0.1891261 0.01563,-0.2857143 0,-4.4182779 -3.581719,-8 -8,-8 z m 2.087054,5.6607143 c -0.238577,0.00474 -0.509834,0.048308 -0.803572,0.125 -0.08893,0.1619767 -0.140625,0.3613436 -0.140625,0.6049107 2.825143,-0.8422857 3.066286,2.0305179 3.428572,0.2522321 0.03624,-0.1784661 0.01727,-0.3364238 -0.02455,-0.4843749 -0.305018,1.3341546 -0.567765,-0.5353812 -2.459821,-0.4977679 z m -4.189733,0.040179 c -1.938031,0.016 -1.88675,1.8385358 -2.46875,0.3705358 -0.0034,-0.00855 -0.0014,-0.016067 -0.0045,-0.024554 -0.0707,0.1770984 -0.08246,0.3767732 0.0045,0.5959821 0.665143,1.6777143 0.502858,-0.9425178 3.428572,-0.2522321 0,-0.2397561 -0.05203,-0.4353905 -0.138393,-0.5959821 -0.305298,-0.062831 -0.581878,-0.095728 -0.821429,-0.09375 z"
       id="path857"
       inkscape:connector-curvature="0" />
  </g>
</svg>
