<svg height="256" width="256" xmlns="http://www.w3.org/2000/svg" xmlns:xlink="http://www.w3.org/1999/xlink">
  <filter id="filter11191" color-interpolation-filters="sRGB" height="1.024" width="1.024" x="-.01" y="-.01">
    <feGaussianBlur stdDeviation="1.12"/>
  </filter>
  <filter id="filter11210" color-interpolation-filters="sRGB" height="1.096" width="1.096" x="-.05" y="-.05">
    <feGaussianBlur stdDeviation="4.48"/>
  </filter>
  <linearGradient id="linearGradient1227" gradientTransform="matrix(.64390501 0 0 .82744837 -79.638178 200.61503)" gradientUnits="userSpaceOnUse" x1="105.913" x2="364.63" y1="66.001" y2="66.001">
    <stop offset="0" stop-color="#1463a5"/>
    <stop offset=".75" stop-color="#aee3f8" stop-opacity="0"/>
    <stop offset="1" stop-color="#aee3f8" stop-opacity=".16"/>
  </linearGradient>
  <circle cx="128.752" cy="127.248" filter="url(#filter11210)" opacity=".1" r="112"/>
  <circle cx="128.752" cy="125.248" filter="url(#filter11191)" opacity=".1" r="112"/>
  <circle cx="128.752" cy="123.248" opacity=".1" r="114"/>
  <circle cx="128.752" cy="123.248" fill="#fb7c38" r="112"/>
  <path d="m128.752 11.248006a112 112 0 0 0 -112.000001 111.999994 112 112 0 0 0 .04102 1.16992 112 112 0 0 1 111.958981-111.169914 112 112 0 0 1 111.95898 110.830074 112 112 0 0 0 .041-.83008 112 112 0 0 0 -112-111.999994z" fill="#fff" opacity=".3"/>
  <path d="m128.752 235.248a112 112 0 0 1 -112.000001-112 112 112 0 0 1 .04102-1.16992 112 112 0 0 0 111.958981 111.16992 112 112 0 0 0 111.95898-110.83008 112 112 0 0 1 .041.83008 112 112 0 0 1 -112 112z" opacity=".2"/>
  <circle cx="128.752" cy="122.353" fill="#fdc92b" r="85"/>
  <ellipse cx="128.752" cy="123.248" fill="#ffda64" rx="62.5" ry="62.5"/>
  <circle cx="128.753025" cy="121.789029" fill="#fee581" r="40"/>
  <g enable-background="new" fill="#fff" stroke="#fff" stroke-width=".768232" transform="matrix(1.37715449397 0 0 1.44104039864 40.21943904088 -227.04330247301)">
    <path d="m37.580563 213.03933c-9.645652 0-17.286901 2.70308-22.924307 8.10775-5.6374048 5.37881-8.4569193 12.69632-8.4569193 21.95408 0 9.2319 2.8195145 16.55077 8.4569193 21.95544 5.637406 5.3788 13.278655 8.06844 22.924307 8.06844 3.232457 0 6.335414-.36292 9.309278-1.08699 2.973857-.72407 5.832091-1.7967 8.573214-3.21898v-11.98543c-2.766981 1.88776-5.495215 3.27088-8.184623 4.15011-2.6894.87922-5.521348 1.31876-8.495208 1.31876-5.327089 0-9.516935-1.70707-12.568375-5.12054-3.051439-3.41347-4.576635-8.10723-4.576635-14.08081 0-5.99944 1.525196-10.70529 4.576635-14.11876 3.05144-3.41348 7.241286-5.12054 12.568375-5.12054 2.97386 0 5.805808.43953 8.495208 1.31876 2.689408.87923 5.417642 2.26235 8.184623 4.15011v-11.98543c-2.741123-1.42228-5.599357-2.4949-8.573214-3.21897-2.973864-.72407-6.076821-1.087-9.309278-1.087zm30.294861 1.04769v57.91307h15.748051c8.688844 0 15.205905-.62099 19.550335-1.86225 4.34442-1.26712 8.06825-3.40028 11.17141-6.40001 2.71527-2.61182 4.73275-5.6254 6.0516-9.03887 1.31884-3.43935 1.97701-7.34408 1.97701-11.71436 0-4.31856-.65817-8.18432-1.97701-11.59779-1.31885-3.41348-3.33633-6.4257-6.0516-9.03753-3.07729-2.99972-6.77485-5.12079-11.09341-6.36205-4.292706-1.26712-10.836053-1.90021-19.628335-1.90021zm14.933989 11.28742h5.352406c6.128738 0 10.797031 1.50007 14.003631 4.49978 3.20659 2.99973 4.80922 7.36954 4.80922 13.11038 0 5.76671-1.61648 10.16341-4.84893 13.18898-3.206602 3.02558-7.86104 4.53774-13.963921 4.53774h-5.352406z" fill="#fff"/>
    <path d="m93.628906 95.009766c-7.336224 0-13.106289 2.459943-17.308594 7.378904-4.202302 4.91895-6.302734 11.70027-6.302734 20.34571 0 .33732.0092.66638.01563.99804.15802-8.16674 2.249319-14.61737 6.287109-19.34375 4.202305-4.918961 9.97237-7.378904 17.308594-7.378904 4.095465 0 7.995509.633384 11.699219 1.90039 3.70373 1.267004 7.46093 3.260134 11.27149 5.980464v-2c-3.81056-2.72033-7.56776-4.713458-11.27149-5.980464-3.70371-1.267006-7.603754-1.90039-11.699219-1.90039zm60.630864 2.179687v2h7.37109c8.44022 0 14.86917 2.161667 19.28516 6.484377 4.23562 4.14619 6.4345 10.11439 6.60742 17.89453.007-.33241.0156-.66298.0156-1.00195 0-8.27279-2.20707-14.56985-6.62304-18.89258-4.41599-4.322705-10.84494-6.484377-19.28516-6.484377zm54.46875 26.382817c-.0926 5.88943-.98684 11.18619-2.70508 15.875-1.81626 4.91894-4.59464 9.26165-8.33399 13.02539-4.27353 4.32273-9.40182 7.39668-15.38476 9.22265-5.98295 1.78871-14.95795 2.6836-26.92383 2.6836h-21.6875v2h21.6875c11.96588 0 20.94088-.89489 26.92383-2.6836 5.98294-1.82597 11.11123-4.89992 15.38476-9.22265 3.73935-3.76374 6.51773-8.10645 8.33399-13.02539 1.81624-4.95625 2.72265-10.58311 2.72265-16.88086 0-.33584-.0123-.66211-.0176-.99414zm-159.955082.16015c-.005.3348-.01758.66356-.01758 1.00196 0 13.30354 3.882907 23.85032 11.646485 31.63867 7.76358 7.75106 18.28676 11.62695 31.570313 11.62695 4.451593 0 8.724844-.52299 12.820314-1.56641 4.09546-1.04341 8.03169-2.58911 11.80664-4.63867v-2c-3.77495 2.04956-7.71118 3.59526-11.80664 4.63867-4.09547 1.04342-8.368721 1.56641-12.820314 1.56641-13.283553 0-23.806733-3.87589-31.570312-11.62695-7.566951-7.5911-11.437206-17.81013-11.628906-30.64063z" opacity=".2" transform="matrix(.72613494 0 0 .69394307 -29.203996 156.54268)"/>
  </g>
  <path d="m128.75195 37.353516a85 85 0 0 0 -84.999997 85.000004 85 85 0 0 0 .041016 1.16992 85 85 0 0 1 84.958981-84.169924 85 85 0 0 1 84.95899 83.830074 85 85 0 0 0 .04101-.83007 85 85 0 0 0 -85-85.000004z" fill="#fff" opacity=".3"/>
  <path d="m213.71094 121.18359a85 85 0 0 1 -84.95899 84.16993 85 85 0 0 1 -84.958981-83.83008 85 85 0 0 0 -.041016.83008 85 85 0 0 0 84.999997 85 85 85 0 0 0 85-85 85 85 0 0 0 -.04101-1.16993z" fill="#060606" opacity=".2"/>
  <g enable-background="new" fill-rule="evenodd" transform="matrix(1.4087352 0 0 1.4087352 46.720271 -201.36288)">
    <path d="m-10.95742 265.45156c57.37214 1.5199 60.366668-21.5132 72.764674-21.27813 15.527801.29876 9.681406 23.11919 65.654276 21.59931" fill="url(#linearGradient1227)"/>
    <path d="m61.801341 242.553c-3.351193-.0636-6.060159 1.45876-9.021661 3.59072-2.961503 2.13196-6.248869 4.9068-10.920476 7.63921-9.343214 5.4648-24.23985 10.80412-52.817089 10.04705l-.042115 1.62233c28.7949.76283 44.082935-4.65562 53.679521-10.26862 4.798294-2.8065 8.168861-5.6503 11.048651-7.72343 2.879791-2.07314 5.194229-3.34076 8.042041-3.28676 3.682359.0709 5.981031 1.41868 8.424733 3.5193 2.443701 2.10063 4.954619 4.97242 8.767142 7.804 7.625048 5.66318 20.403634 11.03885 48.499442 10.27594l-.044-1.62049c-27.877068.75697-40.159935-4.51741-47.486856-9.95916-3.663462-2.72089-6.100976-5.51603-8.677421-7.73077-2.576446-2.21473-5.370421-3.83079-9.451961-3.90932z" fill="#80a3fa"/>
  </g>
</svg>
