<svg enable-background="new" height="256" viewBox="0 0 256 256" width="256" xmlns="http://www.w3.org/2000/svg" xmlns:xlink="http://www.w3.org/1999/xlink">
  <filter id="filter11191" color-interpolation-filters="sRGB" height="1.024" width="1.024" x="-.01" y="-.01">
    <feGaussianBlur stdDeviation="1.12"/>
  </filter>
  <filter id="filter11210" color-interpolation-filters="sRGB" height="1.096" width="1.096" x="-.05" y="-.05">
    <feGaussianBlur stdDeviation="4.48"/>
  </filter>
  <linearGradient id="linearGradient873" gradientUnits="userSpaceOnUse" x1="-169.89485256" x2="-87.609138" y1="-219.24800416" y2="-27.24800352">
    <stop offset="0" stop-color="#faf8f6"/>
    <stop offset="1" stop-color="#f1f0e9"/>
  </linearGradient>
  <circle cx="128.752" cy="127.248" filter="url(#filter11210)" opacity=".1" r="112"/>
  <circle cx="128.752" cy="125.248" filter="url(#filter11191)" opacity=".1" r="112"/>
  <circle cx="128.752" cy="123.248" opacity=".1" r="114"/>
  <circle cx="-128.752" cy="-123.248" fill="#595959" r="112" transform="scale(-1)"/>
  <path d="m16.751953 123.24219a112 112 0 0 0 0 .00586 112 112 0 0 0 .28125 7.92187 112 112 0 0 0 1.347656 11.11524 112 112 0 0 0 2.453125 10.92187 112 112 0 0 0 3.529297 10.625 112 112 0 0 0 4.574219 10.21875 112 112 0 0 0 5.570312 9.71094 112 112 0 0 0 6.511719 9.10742 112 112 0 0 0 7.388672 8.41016 112 112 0 0 0 8.191406 7.63086 112 112 0 0 0 8.91211 6.77539 112 112 0 0 0 9.544922 5.85156 112 112 0 0 0 10.080078 4.86914 112 112 0 0 0 10.517578 3.83984 112 112 0 0 0 10.847653 2.76953 112 112 0 0 0 11.06836 1.67188 112 112 0 0 0 11.18164.56055 112 112 0 0 0 7.92188-.28125 112 112 0 0 0 11.11523-1.34766 112 112 0 0 0 10.92188-2.45312 112 112 0 0 0 10.625-3.5293 112 112 0 0 0 10.21875-4.57422 112 112 0 0 0 9.71093-5.57031 112 112 0 0 0 9.10743-6.51172 112 112 0 0 0 8.41015-7.38867 112 112 0 0 0 7.63086-8.19141 112 112 0 0 0 6.77539-8.91211 112 112 0 0 0 5.85157-9.54492 112 112 0 0 0 4.86914-10.08008 112 112 0 0 0 3.83984-10.51758 112 112 0 0 0 2.76953-10.84765 112 112 0 0 0 1.67383-11.06836 112 112 0 0 0 .55859-11.18164 112 112 0 0 0 0-.00586z" fill="#fff" opacity=".1"/>
  <path d="m128.752 11.248007a112 112 0 0 0 -112 111.999993 112 112 0 0 0 .04102 1.16992 112 112 0 0 1 111.95898-111.169913 112 112 0 0 1 111.95898 110.830073 112 112 0 0 0 .041-.83008 112 112 0 0 0 -112-111.999993z" fill="#fff" opacity=".3"/>
  <path d="m128.752 235.248a112 112 0 0 1 -112-112 112 112 0 0 1 .04102-1.16992 112 112 0 0 0 111.95898 111.16992 112 112 0 0 0 111.95898-110.83008 112 112 0 0 1 .041.83008 112 112 0 0 1 -112 112z" opacity=".2"/>
  <circle cx="-128.752" cy="-123.248" fill="url(#linearGradient873)" r="96" transform="scale(-1)"/>
  <path d="m100.02285 187.90413c-22.536244-2.46206-36.85538-15.88224-32.843424-30.7816 2.20402-8.18506 14.156697-16.98822 27.761917-20.4466 7.050987-1.79234 17.563427-1.75958 24.888947.0774 3.20017.80256 5.92202 1.31553 6.04853 1.13988.12641-.1756 1.17407-13.04076 2.32789-28.58918 1.15382-15.548489 2.40974-32.472568 2.7909-37.609148.45642-6.15088 1.20692-10.1235 2.19828-11.636519 1.47468-2.25066 1.56485-2.26684 4.44186-.79638 4.4506 2.2747 34.25098 22.581119 40.35387 27.497719 9.64874 7.773179 13.86967 16.295508 12.85918 25.963378-1.70668 16.32875-20.13663 29.59683-28.91616 20.81727-3.66841-3.66838-3.4505-6.54628.85265-11.26166 4.52382-4.95724 5.60101-7.09217 5.60101-11.10081 0-5.16334-3.52147-11.336975-10.8303-18.987059-3.72277-3.896619-6.86545-6.974979-6.98375-6.840899-.11841.1342-.89625 13.375683-1.72882 29.425668-2.62161 50.53742-3.12757 53.57044-10.26582 61.53796-3.78137 4.22062-11.87498 9.1763-17.15583 10.50438-5.34893 1.34528-14.68916 1.81922-21.40093 1.08596z" fill="#234db8"/>
  <path d="m128.75195 27.248047a96 96 0 0 0 -95.999997 96.000003 96 96 0 0 0 .041016 1.17187 96 96 0 0 1 95.958981-95.171873 96 96 0 0 1 95.95899 94.828123 96 96 0 0 0 .04101-.82812 96 96 0 0 0 -96-96.000003z" fill="#fff" opacity=".3"/>
  <path d="m224.71094 122.07617a96 96 0 0 1 -95.95899 95.17188 96 96 0 0 1 -95.958981-94.82813 96 96 0 0 0 -.041016.82813 96 96 0 0 0 95.999997 96 96 96 0 0 0 96-96 96 96 0 0 0 -.04101-1.17188z" opacity=".2"/>
  <path d="m134.89062 58.265625c-.5665.10157-.95797.667639-1.69531 1.792969-.99136 1.513019-1.74084 5.485838-2.19726 11.636718-.38116 5.136581-1.6372 22.060886-2.79102 37.609378-1.15382 15.54842-2.20171 28.41229-2.32812 28.58789-.12651.17565-2.84866-.33611-6.04883-1.13867-7.32552-1.83698-17.83769-1.87047-24.888674-.07813-13.60522 3.45838-25.557699 12.26221-27.761718 20.44727-.54201 2.01288-.738916 3.99612-.636719 5.93164.07394-1.29501.279914-2.60657.636719-3.93164 2.204019-8.18506 14.156498-16.98889 27.761718-20.44727 7.050984-1.79234 17.563154-1.75885 24.888674.07813 3.20017.80256 5.92232 1.31432 6.04883 1.13867.12641-.1756 1.1743-13.03947 2.32812-28.58789 1.15382-15.548492 2.40986-32.472797 2.79102-37.609378.45642-6.15088 1.2059-10.123699 2.19726-11.636718 1.47468-2.25066 1.56635-2.267335 4.44336-.796875 4.4506 2.2747 34.25063 22.581447 40.35352 27.498047 8.38809 6.757582 12.66956 14.082044 12.98242 22.232424.35779-8.95845-3.91383-16.926624-12.98242-24.232424-6.10289-4.9166-35.90292-25.223347-40.35352-27.498047-1.4385-.73523-2.18154-1.097664-2.74805-.996094zm33.45704 53.955075c-.19726 3.36563-1.45096 5.55528-5.56055 10.0586-2.70411 2.96315-3.79328 5.1992-3.32031 7.36328.33289-1.5824 1.43373-3.29598 3.32031-5.36328 4.52382-4.95724 5.60156-7.09293 5.60156-11.10157 0-.315-.01474-.63439-.04101-.95703z" fill="#fff" opacity=".3"/>
  <path d="m150.57422 83.349609c-.11841.1342-.89595 13.375797-1.72852 29.425781-2.62161 50.53742-3.12737 53.57154-10.26562 61.53906-3.78137 4.22062-11.8754 9.17583-17.15625 10.50391-5.34893 1.34528-14.68862 1.8192-21.40039 1.08594-19.49163-2.12944-32.826209-12.45845-33.480471-24.84961-.757453 13.26627 12.94849 24.60651 33.480471 26.84961 6.71177.73326 16.05146.25934 21.40039-1.08594 5.28085-1.32808 13.37488-6.28329 17.15625-10.50391 7.13825-7.96752 7.64401-11.00164 10.26562-61.53906.83257-16.049984 1.61011-29.291581 1.72852-29.425781.1183-.13408 3.2616 2.945178 6.98437 6.841797 6.86293 7.183363 10.38467 13.063584 10.78907 18.029294.01988-.33924.04101-.67591.04101-1.04297 0-5.16334-3.52125-11.33624-10.83008-18.986324-3.72277-3.896619-6.86607-6.975877-6.98437-6.841797zm40.40039 25.642581c-.02289.5731-.06229 1.14917-.12305 1.73047-1.70668 16.32875-20.13648 29.59792-28.91601 20.81836-1.36317-1.36316-2.18907-2.61874-2.46875-3.89844-.42641 2.02693.40863 3.83834 2.46875 5.89844 8.77953 8.77956 27.20933-4.48961 28.91601-20.81836.13203-1.26315.17007-2.50555.12305-3.73047z" fill="#040c15" opacity=".2"/>
</svg>
