<svg enable-background="new" height="256" viewBox="0 0 256 256" width="256" xmlns="http://www.w3.org/2000/svg">
  <g enable-background="new" fill="#fff" transform="matrix(.15 0 -.01875 .15 164.636027 166.930508)">
    <path d="m115.01778-1026.2034h-1018.40006c-85.88 0-147.06002 69.91998-136.22992 156.55998l128.43992 1027.52002c10.83 86.64 89.49002 156.56001 175.37002 156.56001h861.84004l-57.854992-140.60001 108.584992 90.44001 102.6 85.11999 181.45 144.40001-170.43-1363.44003c-10.83-86.64-89.49-156.55998-175.37-156.55998zm-169.289992 992.56001s-31.445-32.679992-57.855008-61.56c96.045008-28.12 126.255009-90.44002 126.255009-90.44002-28.595001 20.52001-56.430001 34.96001-81.795001 44.84-36.004998 15.96001-71.155008 26.60002-106.115008 32.68003-71.25 13.679994-138.605 9.879997-196.935-.76-44.365-8.36001-83.125-20.52003-115.80503-32.68002-18.335-6.84-38.38-15.20001-58.71-25.84-2.47-1.52-4.845-2.28-7.315-3.8-1.61501-.76-2.47001-1.52001-3.32501-2.28-14.62999-7.60001-22.89499-12.92001-22.89499-12.92001s44.08 60.80002 144.21003 89.680024c-19.19 28.879997-43.03503 63.079996-43.03503 63.079996-168.62501-5.319991-246.24001-115.52001-246.24001-115.52001-30.58999-244.72001 54.05501-443.08005 54.05501-443.08005 99.18-82.08 203.58503-79.8 203.58503-79.8l8.74 9.12c-131.86003 39.52004-187.43503 99.55997-187.43503 99.55997s15.58-9.12 42.085-22.03997c76.85499-35.71996 140.22003-45.6 166.53503-47.88 4.465-.76003 8.17-1.51997 12.73-1.51997 45.6-6.08006 97.85-7.60003 153.33-1.52006 73.245 8.36006 153.425 29.64 237.880008 72.96 0 0-67.164996-57-201.305008-96.51994l9.12-12.16003s103.835-2.28 223.53500869 79.8c0 0 134.23499131 198.36004 164.82499131 443.08005 0 0-50.825 110.200019-218.119992 115.52001z" fill="#01030c" opacity=".1"/>
    <path d="m-786.91-926.7h1070.222v984.491h-1070.222z" fill="#fff" transform="matrix(1 0 .12403473 .99227788 0 0)"/>
    <path d="m-447.68892-386.41672c-42.56001 0-71.49335 37.33333-65.80001 82.88 5.69333 45.54667 44.70671 82.88 86.52001 82.88 42.56 0 71.4933-37.33333 65.8-82.88-4.9467-45.54667-43.96-82.88-86.52-82.88zm272.5333 0c-42.56 0-71.4933 37.33333-65.8 82.88 5.6934 45.54667 44.7067 82.88 86.52 82.88 42.56 0 71.493408-37.33333 65.800008-82.88-5.693296-45.54667-43.960008-82.88-86.520008-82.88z" fill="#7289da"/>
    <path d="m109.41778-1012.87h-1000.5334c-84.37333 0-144.47998 68.69328-133.83998 153.81328l126.18665 1009.49333c10.64 85.12 87.92002 153.81334 172.29335 153.81334h846.71998l-56.839992-138.13334 106.679992 88.85334 100.8 83.62666 178.2667 141.86667-167.44-1339.52c-10.64-85.12-87.92-153.81328-172.2933-153.81328zm-166.319992 975.146624s-30.8934-32.10666-56.840008-60.48c94.360008-27.626664 124.040009-88.853344 124.040009-88.853344-28.093401 20.16-55.440001 34.34667-80.360001 44.05333-35.373398 15.68-69.906708 26.13335-104.253408 32.10668-70 13.440004-136.1733 9.70667-193.48-.74667-43.5866-8.21333-81.6666-20.16001-113.77331-32.10667-18.01334-6.72-37.70667-14.93334-57.68-25.38667-2.42667-1.49333-4.76-2.24-7.18667-3.73333-1.58667-.74667-2.42667-1.49334-3.26667-2.24-14.37333-7.46667-22.49333-12.69334-22.49333-12.69334s43.30667 59.73334 141.67998 88.106684c-18.8533 28.37333-42.28 61.97333-42.28 61.97333-165.66665-5.22666-241.91998-113.493344-241.91998-113.493344-30.05333-240.42667 53.10667-435.3067 53.10667-435.3067 97.44-80.64 200.01331-78.4 200.01331-78.4l8.5867 8.96c-129.54668 38.8267-184.14668 97.8133-184.14668 97.8133s15.30667-8.96 41.34667-21.6533c75.50666-35.0933 137.76001-44.8 163.61331-47.04 4.3867-.7467 8.0267-1.4933 12.5067-1.4933 44.8-5.9734 96.1333-7.4667 150.64-1.4934 71.96 8.2134 150.7333 29.12 233.706708 71.68 0 0-65.986698-56-197.773408-94.8266l8.96-11.9467s102.0134-2.24 219.6134084 78.4c0 0 131.8799916 194.88003 161.9332916 435.3067 0 0-49.9333 108.266684-214.293292 113.493344z" fill="#7289da"/>
    <path d="m-891.11301-1012.8594c-84.37333 0-144.48759 68.68207-133.84759 153.80207l1.6666 13.33333c-10.64-85.12 49.47433-153.80208 133.84766-153.80208h1000.52082c84.3733 0 161.6582 68.68208 172.2982 153.80208l-1.6667-13.33333c-10.64-85.12-87.9249-153.80207-172.2982-153.80207zm431.17509 361.27602s-3.0991.0579-7.5456.2604c-119.00818 38.7108-169.68096 93.17713-169.68096 93.17713s15.31583-8.96033 41.35583-21.65367c5.57541-2.59133 11.04486-5.00906 16.46646-7.33073 29.65576-17.98213 71.7445-38.63493 127.99807-55.4948zm236.2761 1.56253-7.7914 10.3776c53.3579 15.72013 95.7389 34.2222 127.51141 50.71613 22.503798 8.71487 45.381398 18.87147 68.600298 30.78127 0 0-62.956996-53.22347-188.320308-91.875zm-348.53678 462.22654s9.15674 12.495 28.34472 28.737c2.0993 1.15813 4.14889 1.95213 6.26624 3.2552 19.9734 10.45333 39.66575 18.6706 57.67902 25.3906 32.1067 11.94667 70.1926 23.89608 113.7793 32.109408 57.3066 10.453333 123.4782 14.1822 193.4782.7422 34.3466-5.973328 68.88131-16.429408 104.254508-32.109408 18.0519-7.0314 37.3839-16.44927 57.3438-28.75 15.2410011-16.17767 21.342801-28.6328 21.342801-28.6328-28.093301 20.16-55.433201 34.3428-80.353201 44.04946-35.373298 15.68-69.907908 26.13608-104.254508 32.10942-70 13.439995-136.1716 9.71113-193.4782-.7422-43.5868-8.21334-81.6726-20.16275-113.77937-32.10942-18.01326-6.72-37.70562-14.93726-57.67902-25.3906-2.4266-1.49333-4.75763-2.2306-7.18423-3.72393-1.58666-.74667-2.42175-1.49293-3.26175-2.2396-14.37326-7.46667-22.49831-12.69533-22.49831-12.69533zm729.43848 36.862c-.7347 1.574-50.9946 108.028008-214.142292 113.216142 0 0-23.7573-24.844067-46.920498-49.843734-2.75321.9004-5.38491 1.854467-8.25691 2.695267 25.946708 28.3734 56.844108 60.481795 56.844108 60.481795 164.359992-5.22666 214.290392-113.48961 214.290392-113.48961-.5474-4.37873-1.2013-8.7122-1.8148-13.05986zm-871.74318.013c.47299 4.34333.90173 8.67246 1.44853 13.04686 0 0 76.25387 108.26295 241.92065 113.48961 0 0 23.4252-33.605862 42.2786-61.979195-3.039-.876467-5.8662-1.865734-8.8004-2.799467-17.0878 25.396467-35.1449 51.445334-35.1449 51.445334-164.40096-5.186734-240.54538-111.573542-241.70248-113.203142zm779.565388 330.3776 51.367292 124.79166h3.815l-49.368492-119.94793z" fill="#fcfcfc" opacity=".3"/>
    <path d="m-463.27122-678.25004s-102.56488-2.24156-200.00487 78.39845c0 0-83.16535 194.8858-53.11195 435.31247 0 0 .20918.27393.21808.28647-25.52566-234.37647 54.56053-422.2656 54.56053-422.2656 82.4911-68.26854 167.97403-77.02382 192.47231-78.13804 4.779-1.55444 9.4585-3.1365 14.4597-4.63542zm237.4479 0-8.9632 11.94011c3.254.95868 6.2843 1.9772 9.458 2.95573l1.1719-1.56251s102.0175-2.24156 219.6175084 78.39846c0 0 127.0409916 187.88213 160.1122916 422.2526 0-.0117.1481-.27347.1481-.27347-30.0532-240.42667-161.9269916-435.31247-161.9269916-435.31247-117.6000084-80.64001-219.6176084-78.39845-219.6176084-78.39845zm-123.8541 31.35419c-25.2467.37333-49.2764 2.24766-71.6764 5.23433-4.48 0-8.1232.73773-12.5098 1.4844-23.9444 2.0746-79.1436 10.59333-147.14524 39.71353-38.63858 23.429-56.15555 42.31774-56.15555 42.31774s15.31576-8.96034 41.35576-21.65367c75.50674-35.09327 137.75823-44.80427 163.61163-47.04427 4.3866-.74673 8.0298-1.4844 12.5098-1.4844 44.8-5.9734 96.1265-7.47066 150.6331-1.4974 71.96 8.2134 150.7393 29.11974 233.712608 71.67974 0 0-23.5657-19.8708-70.266898-44.1146-57.91431-22.428-113.28921-34.98347-165.11241-40.89847-27.2532-2.9866-53.7099-4.11027-78.9566-3.73693zm-222.52118 459.10153s40.82795 56.0092 132.87598 85.29948c2.4747-3.67787 4.7488-6.9446 7.1338-10.5338-53.44355-15.41448-90.50783-40.04235-113.33172-59.36201-.30661-.16914-.60875-.27847-.918-.46874-1.58666-.74666-2.42168-1.49293-3.26168-2.2396-14.37333-7.46666-22.49838-12.69533-22.49838-12.69533zm582.488589.7422c-7.7428003 5.55633-15.4152006 10.6194-23.009401 15.29947-18.5965 19.7394-50.8351 45.03827-102.693708 60.22134 3.3748 3.69047 6.4602 6.90014 9.92351 10.63807 87.702098-28.68375 115.779599-86.15888 115.779599-86.15888zm-910.729189 324.16667 1.66667 13.33333c10.64 85.12 87.92486 153.80207 172.29819 153.80207h846.71872l-5.4817-13.33333h-842.90368c-84.37334 0-161.6582-68.68207-172.2982-153.80207zm962.167988 15.67707 7.4805 18.17706 100.878892 84.01047 100.7911 83.6198 178.2681 141.875-1.6666-13.33333-178.2682-141.875-100.7911-83.6198z" opacity=".2"/>
    <path d="m115.01778-1026.2034h-1018.40006c-85.88 0-147.06002 69.91998-136.22992 156.55998l128.43992 1027.52002c10.83 86.64 89.49002 156.56001 175.37002 156.56001h861.84004l-57.854992-140.60001 108.584992 90.44001 102.6 85.11999 181.45 144.40001-170.43-1363.44003c-10.83-86.64-89.49-156.55998-175.37-156.55998zm-169.289992 992.56001s-31.445-32.679992-57.855008-61.56c96.045008-28.12 126.255009-90.44002 126.255009-90.44002-28.595001 20.52001-56.430001 34.96001-81.795001 44.84-36.004998 15.96001-71.155008 26.60002-106.115008 32.68003-71.25 13.679994-138.605 9.879997-196.935-.76-44.365-8.36001-83.125-20.52003-115.80503-32.68002-18.335-6.84-38.38-15.20001-58.71-25.84-2.47-1.52-4.845-2.28-7.315-3.8-1.61501-.76-2.47001-1.52001-3.32501-2.28-14.62999-7.60001-22.89499-12.92001-22.89499-12.92001s44.08 60.80002 144.21003 89.680024c-19.19 28.879997-43.03503 63.079996-43.03503 63.079996-168.62501-5.319991-246.24001-115.52001-246.24001-115.52001-30.58999-244.72001 54.05501-443.08005 54.05501-443.08005 99.18-82.08 203.58503-79.8 203.58503-79.8l8.74 9.12c-131.86003 39.52004-187.43503 99.55997-187.43503 99.55997s15.58-9.12 42.085-22.03997c76.85499-35.71996 140.22003-45.6 166.53503-47.88 4.465-.76003 8.17-1.51997 12.73-1.51997 45.6-6.08006 97.85-7.60003 153.33-1.52006 73.245 8.36006 153.425 29.64 237.880008 72.96 0 0-67.164996-57-201.305008-96.51994l9.12-12.16003s103.835-2.28 223.53500869 79.8c0 0 134.23499131 198.36004 164.82499131 443.08005 0 0-50.825 110.200019-218.119992 115.52001z" fill="#2d303b" opacity=".1"/>
  </g>
</svg>
