<svg fill="none" height="256" viewBox="0 0 256 256" width="256" xmlns="http://www.w3.org/2000/svg" xmlns:xlink="http://www.w3.org/1999/xlink">
  <linearGradient id="paint0_linear" gradientUnits="userSpaceOnUse" x1="176.2" x2="80.2" y1="236.696" y2="12.6961">
    <stop offset="0" stop-color="#e6e6e6"/>
    <stop offset="1" stop-color="#d3d3d3"/>
  </linearGradient>
  <radialGradient id="paint1_radial" cx="0" cy="0" gradientTransform="matrix(0 368.474 -452.368 0 131.95 -45.9968)" gradientUnits="userSpaceOnUse" r="1">
    <stop offset="0" stop-color="#404648"/>
    <stop offset="1" stop-color="#0c1011"/>
  </radialGradient>
  <linearGradient id="paint2_linear" gradientUnits="userSpaceOnUse" x1="128.2" x2="128.2" y1="92.696" y2="204.696">
    <stop offset="0"/>
    <stop offset="1" stop-opacity="0"/>
  </linearGradient>
  <g fill="#000">
    <path d="m128.2 240.696c61.856 0 112-50.144 112-112 0-61.8558-50.144-112-112-112-61.8559 0-112 50.1442-112 112 0 61.856 50.1441 112 112 112z" opacity=".1"/>
    <path d="m128.2 238.696c61.856 0 112-50.144 112-112 0-61.8558-50.144-112-112-112-61.8559 0-112 50.1442-112 112 0 61.856 50.1441 112 112 112z" opacity=".1"/>
    <path d="m128.2 238.696c62.96 0 114-51.039 114-114 0-62.9604-51.04-114-114-114-62.9604 0-114 51.0396-114 114 0 62.961 51.0396 114 114 114z" opacity=".1"/>
  </g>
  <path d="m128.2 12.696c-61.8559 0-112 50.1441-112 112 0 61.856 50.1441 112 112 112 61.856 0 112-50.144 112-112 0-61.8559-50.144-112-112-112z" fill="url(#paint0_linear)"/>
  <path d="m16.2 134.392c2.5508 27.943 15.4487 53.925 36.1642 72.851s47.7538 29.43 75.8138 29.453c28.067-.011 55.116-10.511 75.841-29.438s33.629-44.915 36.181-72.866z" fill="#fff" opacity=".25"/>
  <path d="m128.2 36.696c-48.752 0-88 39.248-88 88 0 14.138 3.3196 27.463 9.1953 39.277 1.7518 1.398 4.2059 2.81 7.3906 4.039 8.1085 3.127 20.5521 5.021 35.5431 5.038 29.864.028 66.804-8.162 95.362-21.204 9.737-4.447 20.546-10.862 27.802-16.118.449-3.616.707-7.291.707-11.032 0-48.752-39.248-88-88-88zm-49.5541 29.8999h6.8368v6.9482c1.3146.1151 2.5903.3167 3.8226.6239 1.9891.4911 4.0677 1.1807 6.2289 2.072l-2.871 6.5758c-2.2376-.8731-4.091-1.4813-5.5636-1.8269-1.4536-.3456-2.888-.5188-4.3033-.5188-1.683 0-2.9746.3745-3.8735 1.1203s-1.3464 1.7182-1.3464 2.9187c0 .7458.1809 1.4.5443 1.9639.3634.5457.9378 1.083 1.7219 1.6105.8033.5093 2.6852 1.4357 5.6496 2.7818 3.9207 1.7826 6.6087 3.5751 8.0622 5.3759 1.4536 1.7826 2.1803 3.9748 2.1803 6.5758 0 3.602-1.3678 6.441-4.1027 8.514-1.6518 1.261-3.7051 2.132-6.1493 2.626v7.317h-6.8368v-6.906c-3.805-.175-7.2385-.926-10.252-2.327v-7.859c2.8305 1.201 5.2202 2.046 7.171 2.537 1.9699.491 3.7693.735 5.3949.735 1.9508 0 3.4424-.353 4.4751-1.063 1.0519-.709 1.5787-1.763 1.5787-3.163 0-.783-.2284-1.475-.6875-2.076-.459-.618-1.1413-1.2086-2.0402-1.7725-.8797-.5639-2.6855-1.4621-5.4204-2.6991-2.5628-1.146-4.4828-2.2488-5.7642-3.3038s-2.3064-2.2819-3.0715-3.6826c-.765-1.4006-1.149-3.0376-1.149-4.9111 0-3.5289 1.2536-6.3042 3.759-8.3233 1.6115-1.2888 3.6153-2.1629 6.0061-2.629zm84.0341 20.6855h5.869l17.605 13.0176-4.135 5.666-16.506-12.3656-16.443 12.3176-4.138-5.662zm-53.275 39.1206h35.884v6.834h-35.884zm102.275 26.221c-6.023 3.651-12.622 7.181-19.017 10.102-30.348 13.859-68.326 22.315-100.3435 22.286-11.7917-.016-22.2714-1.032-31.1094-3.166 16.1162 18.892 40.0979 30.851 66.9899 30.851 38.977 0 71.853-25.099 83.48-60.073z" fill="url(#paint1_radial)" opacity=".9"/>
  <path d="m40.2 124.696c0-11.556 2.2762-22.999 6.6986-33.6761 4.4224-10.6766 10.9045-20.3777 19.076-28.5493 8.1716-8.1715 17.8726-14.6535 28.5493-19.076 10.6771-4.4224 22.1201-6.6986 33.6761-6.6986s23 2.2762 33.676 6.6986c10.677 4.4225 20.378 10.9045 28.549 19.076 8.172 8.1716 14.654 17.8727 19.076 28.5493 4.423 10.6771 6.699 22.1201 6.699 33.6761z" fill="#000" opacity=".05"/>
  <path d="m128.2 38.696c-48.601 0-88 39.399-88 88s39.399 88 88 88 88-39.399 88-88-39.399-88-88-88z" opacity=".2" stroke="url(#paint2_linear)" stroke-linejoin="round" stroke-width="10"/>
  <path d="m128.2 12.696c-14.708 0-29.2721 2.897-42.8605 8.5255-13.5885 5.6286-25.9353 13.8784-36.3354 24.2786-10.4002 10.4001-18.6501 22.7469-24.2786 36.3354s-8.5255 28.1525-8.5255 42.8605c.0116.39.0253.78.041 1.17.2191-29.5531 12.11-57.8218 33.0816-78.6455 20.9715-20.8237 49.3235-32.5144 78.8774-32.5245 29.496.0092 57.797 11.6533 78.759 32.4038 20.962 20.7506 32.892 48.9324 33.2 78.4262.015-.277.028-.553.041-.83 0-14.708-2.897-29.272-8.526-42.8605-5.628-13.5885-13.878-25.9352-24.278-36.3354s-22.747-18.65-36.335-24.2786c-13.589-5.6285-28.153-8.5255-42.861-8.5255z" fill="#fff" opacity=".3"/>
  <path d="m128.2 236.696c-29.7042 0-58.1919-11.8-79.1959-32.804-21.0041-21.004-32.8041-49.492-32.8041-79.196.0116-.39.0253-.78.041-1.17.2191 29.553 12.11 57.822 33.0816 78.646 20.9715 20.823 49.3235 32.514 78.8774 32.524 29.496-.009 57.797-11.653 78.759-32.404 20.962-20.75 32.892-48.932 33.2-78.426.015.277.028.553.041.83 0 29.704-11.8 58.192-32.804 79.196s-49.492 32.804-79.196 32.804z" fill="#000" opacity=".2"/>
</svg>
