<svg height="256" width="256" xmlns="http://www.w3.org/2000/svg" xmlns:xlink="http://www.w3.org/1999/xlink">
  <linearGradient id="linearGradient4358" gradientUnits="userSpaceOnUse" x1="88" x2="488" y1="88" y2="488">
    <stop offset="0" stop-opacity=".588235"/>
    <stop offset="1" stop-opacity=".205556"/>
  </linearGradient>
  <filter id="filter4380" color-interpolation-filters="sRGB" height="1.088" width="1.106" x="-.05" y="-.04">
    <feGaussianBlur stdDeviation="8.48"/>
  </filter>
  <filter id="filter4346" color-interpolation-filters="sRGB" height="1.022" width="1.026" x="-.01" y="-.01">
    <feGaussianBlur stdDeviation="2.12"/>
  </filter>
  <path d="m141.84323 74c-70.59344 0-78.18921 7.250835-77.84323 77.98706v146.01294 146.01294c-.34598 70.73623 7.24979 77.98706 77.84323 77.98706h292.31354c70.59344 0 79.78033-7.27652 77.84323-77.98706v-146.01294-146.01294c0-70.737067-7.24979-77.98706-77.84323-77.98706z" filter="url(#filter4346)" opacity=".1" transform="matrix(.5 0 0 .5 -16.116488 -20.825537)"/>
  <path d="m141.84323 74c-70.59344 0-78.18921 7.250835-77.84323 77.98706v146.01294 146.01294c-.34598 70.73623 7.24979 77.98706 77.84323 77.98706h292.31354c70.59344 0 79.78033-7.27652 77.84323-77.98706v-146.01294-146.01294c0-70.737067-7.24979-77.98706-77.84323-77.98706z" fill="url(#linearGradient4358)" filter="url(#filter4380)" opacity=".3" transform="matrix(.5 0 0 .5 -16.116488 -20.825235)"/>
  <path d="m53.695112 13.174464c-36.098811 0-39.983002 3.690159-39.80608 39.689839v74.310167 74.31016c-.176922 35.99969 3.707269 39.68984 39.80608 39.68984h148.387318c36.09881 0 40.77464-3.70276 39.80608-39.68984v-74.31016-74.310167c0-36.00011-3.70727-39.689839-39.80608-39.689839z" opacity=".2"/>
  <g stroke-width="5.649478" transform="matrix(1.00000000481 0 0 1.00000000481 .00000155579 .00000082908)">
    <path d="m15.880859 106.50586v20.66602.00195 45.90039l59.273438 18.7207 49.832033-64.04101z" fill="#fb7c38"/>
    <path d="m114.10938 239.17383h86.8496c5.51427 0 10.26013-.0889 14.3418-.37305h.00195c.81575-.0568 1.60558-.12196 2.36915-.19531 2.29167-.22005 4.3534-.51847 6.20507-.91797h.00196c1.54345-.33308 2.94258-.73716 4.20898-1.22461s2.40006-1.05828 3.41602-1.72656c.81277-.53463 1.5493-1.13096 2.21679-1.79688s1.26512-1.40195 1.80078-2.21289c.26783-.40548.5205-.82903.75782-1.27344.2374-.44429.45934-.90969.66797-1.39453.20864-.48485.40425-.98865.58593-1.51562.18156-.52711.3497-1.07541.50586-1.64649.31265-1.14179.57608-2.37474.79688-3.70312.22081-1.32838.39846-2.75294.54101-4.28125.28543-3.0561.42855-6.52693.48243-10.46484v-.00196c.0269-1.96939.03228-4.05511.02148-6.26562v-37.375-1.75-33.88086-.00195-54.027349l-64.35938 54.609379z" fill="#37a6e6"/>
    <path d="m239.88086 77.822266v-23.65625c.027-5.527172-.04249-10.277289-.31445-14.361328-.0543-.816714-.11818-1.604988-.18946-2.369141-.14255-1.528307-.3202-2.954822-.54101-4.283203-.2208-1.328381-.48423-2.558894-.79688-3.701172-.15633-.571726-.32407-1.120788-.50586-1.648438-.18148-.526558-.37756-1.031275-.58593-1.515625v-.001953c-.20863-.484846-.43064-.948165-.66797-1.392578-.23765-.444787-.48966-.869518-.75782-1.27539-.26783-.405472-.55176-.790078-.85156-1.158204-.59959-.736338-1.26396-1.401681-2.00195-2h-.00195c-.92306-.748199-1.95827-1.392844-3.1211-1.949218-1.16282-.556374-2.45327-1.024476-3.88281-1.416016-1.14357-.313584-2.37779-.579607-3.70703-.802734-.66462-.111564-1.35283-.211096-2.06641-.302735-.71354-.09161-1.45266-.174672-2.21679-.248047-1.52841-.146825-3.15964-.259646-4.9004-.34375-1.74076-.08411-3.59022-.138702-5.55664-.173828-1.96642-.03513-4.04981-.050781-6.25586-.050781h-8.1914v.001953h-23.82227l.00196-.001953h-51.89649l25.71289 38.177734 31.01367 103.388671z" fill="#2f5fdd"/>
    <path d="m15.880859 167.04883v9.99609 23.13477c0 4.42106.056545 8.34606.22461 11.83008.168064 3.48401.446892 6.52679.892578 9.18359.445685 2.6568 1.057763 4.92777 1.890625 6.86719.416431.96971.888108 1.85701 1.421875 2.66797.533767.81095 1.130124 1.545 1.794922 2.21093.664797.66594 1.399461 1.26419 2.208984 1.79883s1.694167 1.00675 2.662109 1.42383c1.935885.83415 4.201786 1.44631 6.853516 1.89258 2.65173.44626 5.688885.72631 9.166016.89453s7.394552.22461 11.80664.22461h63.728516l71.2832-136.46094-120.236325 18.60352z" fill="#8c59d9"/>
    <path d="m120.80469 15.171875h-66.003909c-4.41209 0-8.327557.056409-11.804687.224609-1.73856.0841-3.367178.196922-4.892578.34375-.86028.08276-1.680693.181007-2.476563.28711-.61468.08199-1.219325.16648-1.796875.263672-.66293.111559-1.302219.233823-1.917969.367187-1.67545.362587-3.165032.818503-4.513671 1.365235-.137911.0559-.289159.104094-.423829.162109-1.209525.521281-2.290833 1.130021-3.255859 1.837891-.965026.707869-1.813767 1.514869-2.560547 2.435546-.29891.368127-.580776.752734-.847656 1.158204v.001953c-.09906.15054-.18642.316813-.28125.472656-.3333.547568-.640378 1.128944-.923828 1.744141-.07015.152311-.149557.292637-.216797.449218v.001953c-.20795.484349-.402714.989068-.583984 1.515625-.499106 1.449562-.899887 3.062054-1.220704 4.855469-.320816 1.793415-.562031 3.768335-.740234 5.941406-.356405 4.346144-.462891 9.486821-.462891 15.566407v62.841794l53.697266 4.3086 120.236325-18.60352z" fill="#f22c42"/>
  </g>
  <path d="m185.03094 39.676569c27.5749 0 30.54193 2.832291 30.40678 30.462961v57.03494 57.03493c.13515 27.63067-2.83188 30.46296-30.40678 30.46296h-114.182219c-27.574896 0-30.406781-2.83197-30.406781-30.46296v-57.03493-57.03494c0-27.630999 2.831885-30.462961 30.406781-30.462961z" fill="#2d2d2d"/>
  <path d="m58.552153 185.291281h65.056v10.409h-65.056z" fill="#fff"/>
  <path d="m40.441406 182.20898v2c0 27.63099 2.833307 30.4629 30.408203 30.4629h114.181641c27.5749 0 30.5414-2.83223 30.40625-30.4629v-2c.13515 27.63067-2.83135 30.4629-30.40625 30.4629h-114.181641c-27.574896 0-30.408203-2.83191-30.408203-30.4629z" opacity=".2"/>
  <path d="m61.724609 62.986328v13.066406h10.453125v45.302736h-10.453125v13.06641h34.845703v-13.06641h-9.345703v-45.302736h9.345703v-13.066406zm78.406251 0v46.171872c0 4.3559-1.74338 12.19727-9.58398 12.19727-6.09825 0-11.03921-5.20064-12.81641-7.16602l-9.83399 11.1875c2.64141 3.13624 9.58273 10.78711 22.6504 10.78711 7.8406 0 16.37815-3.83233 20.0371-8.71094 5.22707-6.96942 5.22657-13.94599 5.22657-18.29492v-46.171872z" fill="#fff" stroke-width="6.969426" transform="matrix(1.0000000114 0 0 1.0000000114 -3.82457701137 3.5078637903)"/>
  <path d="m54.805392 15.174464c-35.296728 0-39.09487 3.626029-38.92188 38.994139v2c-.17299-35.36811 3.625152-38.99414 38.92188-38.99414h146.156238c35.29673 0 38.92188 3.62561 38.92188 38.99414v-2c0-35.36853-3.62515-38.994139-38.92188-38.994139z" fill="#fff" opacity=".3"/>
  <path d="m70.849609 39.675781c-27.574896 0-30.408203 2.831892-30.408203 30.462891v2c0-27.630999 2.833307-30.462891 30.408203-30.462891h114.181641c27.5749 0 30.5414 2.832221 30.40625 30.462891v-2c.13515-27.63067-2.83135-30.462891-30.40625-30.462891z" fill="#fff" opacity=".3"/>
  <path d="m54.810792 239.17447c-35.296731 0-39.094875-3.62603-38.921885-38.99414v-2c-.17299 35.36811 3.625154 38.99414 38.921885 38.99414h146.156238c35.29673 0 38.92188-3.62561 38.92188-38.99414v2c0 35.36853-3.62515 38.99414-38.92188 38.99414z" opacity=".2"/>
</svg>
