<svg height="256" width="256" xmlns="http://www.w3.org/2000/svg" xmlns:xlink="http://www.w3.org/1999/xlink">
  <linearGradient id="linearGradient4358" gradientTransform="matrix(0 -1 1 0 -10.0054 585.9946)" gradientUnits="userSpaceOnUse" x1="88" x2="488" y1="88" y2="488">
    <stop offset="0" stop-opacity=".588235"/>
    <stop offset=".88" stop-opacity="0"/>
    <stop offset="1"/>
  </linearGradient>
  <filter id="filter4380" color-interpolation-filters="sRGB" height="1.088" width="1.106" x="-.05" y="-.04">
    <feGaussianBlur stdDeviation="8.48"/>
  </filter>
  <filter id="filter4346" color-interpolation-filters="sRGB" height="1.022" width="1.026" x="-.01" y="-.01">
    <feGaussianBlur stdDeviation="2.12"/>
  </filter>
  <filter id="filter5415" color-interpolation-filters="sRGB" height="1.076" width="1.129" x="-.07" y="-.04">
    <feGaussianBlur stdDeviation="2.813"/>
  </filter>
  <linearGradient id="linearGradient1674" gradientUnits="userSpaceOnUse" x1="285" x2="301" y1="102" y2="102">
    <stop offset="0" stop-color="#e7e7e7"/>
    <stop offset="1" stop-color="#fff"/>
  </linearGradient>
  <linearGradient id="linearGradient1665" gradientUnits="userSpaceOnUse" x1="-223.246" x2="-207.24699" y1="206.87399" y2="206.87399">
    <stop offset="0" stop-color="#3b3b3b"/>
    <stop offset="1" stop-color="#4f4f4f"/>
  </linearGradient>
  <path d="m189.84323 74c-70.59344 0-78.18921 7.250835-77.84323 77.98706v146.01294 146.01294c-.34598 70.73623 7.24979 77.98706 77.84323 77.98706h196.31354c70.59344 0 76.00668-7.27384 77.84323-77.98706v-146.01294-146.01294c0-70.737067-7.24979-77.98706-77.84323-77.98706z" filter="url(#filter4346)" opacity=".1" transform="matrix(0 .5 -.5 0 276.82523 -15.328148)"/>
  <path d="m189.84323 74c-70.59344 0-78.18921 7.250835-77.84323 77.98706v146.01294 146.01294c-.34598 70.73623 7.24979 77.98706 77.84323 77.98706h196.31354c70.59344 0 77.84323-7.24999 77.84323-77.98706v-146.01294-146.01294c0-70.737067-7.24979-77.98706-77.84323-77.98706z" fill="url(#linearGradient4358)" filter="url(#filter4380)" opacity=".3" transform="matrix(0 .5 -.5 0 276.82523 -15.328148)"/>
  <path d="m241.83043 77.478254c0-36.098811-3.69016-39.983003-39.68984-39.806081h-74.31016-74.310145c-35.99969-.176922-39.689841 3.70727-39.689841 39.806081v100.387326c0 36.09881 3.689731 39.80608 39.689841 39.80608h74.310145 74.31016c36.00011 0 39.68984-3.70727 39.68984-39.80608z" opacity=".1"/>
  <path d="m239.82523 176.74484c0 35.29673-3.62542 39.09461-38.99353 38.92162h-73.00647-73.006455c-35.36812.17299-38.993531-3.62489-38.993531-38.92162v-98.156766c0-35.296716 3.625001-38.921616 38.993531-38.921616h73.006455 73.00647c35.36853 0 38.99353 3.6249 38.99353 38.921616z" fill="#f853d2"/>
  <path d="m15.827944 127.66916v8 41.00586c0 35.36853 3.625166 38.99414 38.921876 38.99414h146.15624c35.29673 0 39.09486-3.62602 38.92187-38.99414v-41.00586-8z" opacity=".1"/>
  <g fill="#fffcfe">
    <path d="m20.575992 47.669154c-2.544931 3.565505-3.775533 8.683644-4.330078 16h19.582031v-16z" opacity=".3"/>
    <path d="m219.82793 47.669154v16h19.57617c-.55454-7.316356-1.78515-12.434495-4.33008-16z" opacity=".3"/>
    <path d="m16.243961 191.66916c.551618 7.29656 1.774366 12.42123 4.294922 16h15.289062v-16z" opacity=".3"/>
    <path d="m219.82793 191.66916v16h15.2832c2.52056-3.57877 3.74331-8.70344 4.29492-16z" opacity=".3"/>
    <path d="m15.827944 71.669154v16h20.000001v-16z" opacity=".3"/>
    <path d="m219.82793 71.669154v16h20v-16z" opacity=".3"/>
    <path d="m15.827944 95.669154v15.999996h20.000001v-15.999996z" opacity=".3"/>
    <path d="m219.82793 95.669154v15.999996h20v-15.999996z" opacity=".3"/>
    <path d="m15.827944 119.66915v16.00001h20.000001v-16.00001z" opacity=".3"/>
    <path d="m219.82793 119.66915v16.00001h20v-16.00001z" opacity=".3"/>
    <path d="m15.827944 143.66916v16h20.000001v-16z" opacity=".3"/>
    <path d="m219.82793 143.66916v16h20v-16z" opacity=".3"/>
    <path d="m15.827944 167.66916v16h20.000001v-16z" opacity=".3"/>
    <path d="m219.82793 167.66916v16h20v-16z" opacity=".3"/>
  </g>
  <path d="m54.818179 39.667201c-35.36853 0-38.992188 3.623202-38.992188 38.919923v98.158206c0 .0882.0019.16224.002.25v-96.410156c-.000047-35.29672 3.625565-38.921879 38.994095-38.921879h73.005844 73.00586c35.28016 0 38.97394 3.621035 38.99219 38.671879v-1.74805c0-35.296721-3.62561-38.919923-38.99414-38.919923h-73.00586z" fill="#fff" opacity=".3"/>
  <path d="m15.825991 174.74533v2c0 35.29673 3.624068 39.09487 38.992188 38.92188h73.007801 73.00586c35.36811.17299 38.99414-3.62515 38.99414-38.92188v-2c0 35.29673-3.62603 39.09487-38.99414 38.92188h-73.00586-73.007801c-35.36812.17299-38.992188-3.62515-38.992188-38.92188z" opacity=".2"/>
  <g enable-background="new" transform="matrix(-.92134297 0 0 .92134297 505.44199534736 -83.19588543721)">
    <g fill="#141414" filter="url(#filter5415)" opacity=".3" transform="matrix(.88287224 .46961325 -.46961325 .88287224 291.951425 -51.765062)">
      <g fill="#141414">
        <path d="m285 6v32h16v-32zm0 160v32h16v-32z" transform="matrix(-.9999508 0 0 .9999508 508.23235 104.87827)"/>
        <path d="m-223.25 142.88h15.999v127.994h-15.999z" transform="scale(-1 1)"/>
      </g>
    </g>
    <path d="m285 6v32h16v-32zm0 160v32h16v-32z" fill="url(#linearGradient1674)" transform="matrix(-.88282880269 -.46959014503 -.46959014503 .88282880269 689.40353305589 277.50179680086)"/>
    <path d="m-223.25 142.88h15.999v127.994h-15.999z" fill="url(#linearGradient1665)" transform="matrix(-.88287224 -.46961325 -.46961325 .88287224 289.951525 -53.764962)"/>
  </g>
</svg>
