<svg height="256" viewBox="0 0 67.73 67.73" width="256" xmlns="http://www.w3.org/2000/svg" xmlns:xlink="http://www.w3.org/1999/xlink">
  <linearGradient id="linearGradient4226" gradientTransform="matrix(.11988932 0 0 .11988589 4.71591 230.83365)" gradientUnits="userSpaceOnUse" x1="529.655" x2="-35.31" y1="401.584" y2="119.093">
    <stop offset="0" stop-color="#fb7c38"/>
    <stop offset="1" stop-color="#9b33ae"/>
  </linearGradient>
  <filter id="filter965" color-interpolation-filters="sRGB" height="1.052" width="1.045" x="-.02" y="-.03">
    <feGaussianBlur stdDeviation="4.16"/>
  </filter>
  <filter id="filter4346" color-interpolation-filters="sRGB" height="1.022" width="1.026" x="-.01" y="-.01">
    <feGaussianBlur stdDeviation="2.12"/>
  </filter>
  <g transform="translate(0 -227.722527)">
    <path d="m189.84323 74c-70.59344 0-78.18921 7.250835-77.84323 77.98706v146.01294 146.01294c-.34598 70.73623 7.24979 77.98706 77.84323 77.98706h228.31354c70.59344 0 75.90613-7.27652 77.84323-77.98706v-146.01294-146.01294c0-70.737067-7.24979-77.98706-77.84323-77.98706z" filter="url(#filter4346)" opacity=".1" transform="matrix(0 -.13229167 .13229167 0 -5.073674 302.52436)"/>
    <path d="m189.84323 74c-70.59344 0-78.18921 7.250835-77.84323 77.98706v146.01294 146.01294c-.34598 70.73623 7.24979 77.98706 77.84323 77.98706h228.31354c70.59344 0 77.84323-7.24999 77.84323-77.98706v-146.01294-146.01294c0-70.737067-7.24979-77.98706-77.84323-77.98706z" filter="url(#filter965)" opacity=".2" transform="matrix(0 .13229167 .13229167 0 -5.073674 222.09245)"/>
    <path d="m15.032789 236.64485c-9.3578144-.0458-10.3166825 1.10191-10.3166825 10.44019v.14211.26459 29.65503c0 9.33893.9587596 10.29757 10.3166825 10.29757h19.316651 19.316134c9.357924 0 10.3172-.95864 10.3172-10.29757v-29.65503-.26459-.14211c0-9.33828-.959387-10.48595-10.3172-10.44019h-19.316134z" fill="url(#linearGradient4226)"/>
    <path d="m4.7161065 276.61761v.52916c0 9.33893.9587588 10.29757 10.3166825 10.29757h19.316651 19.316134c9.357924 0 10.3172-.95864 10.3172-10.29757v-.52916c0 9.33892-.959276 10.29756-10.3172 10.29756h-19.316134-19.316651c-9.3579237 0-10.3166825-.95864-10.3166825-10.29756z" opacity=".2"/>
    <path d="m13.927947 236.64485c-8.3551915-.0458-9.2113235 1.10191-9.2113235 10.44019v.14211.26459 29.65503c0 9.33893.856035 10.29757 9.2113235 10.29757h4.017843v-50.79949z" opacity=".3"/>
    <path d="m15.032789 236.64434c-9.3578144-.0458-10.3166825.95915-10.3166825 10.29808v.52916c0-9.33892.9588681-10.34385 10.3166825-10.29808h19.316651 19.316134c9.357813-.0458 10.3172.95916 10.3172 10.29808v-.52916c0-9.33893-.959387-10.34385-10.3172-10.29808h-19.316134z" fill="#fff" opacity=".2"/>
  </g>
  <g enable-background="new" opacity=".8" transform="matrix(-.51452344976 0 0 .51452344976 58.22654529888 -94.5535315737)">
    <path d="m104 223.15234-104.3791408 60.26236-2.7458592.5853v1h26.125 81zm-14 24.24805v23.59961h-40.875z" fill="#b38108"/>
    <path d="m104 222.15234-107.125 61.84766h26.125 81zm-14 24.24805v23.59961h-40.875z" fill="#f6d32d"/>
    <path d="m90 72.400391-40.875 23.599609v2l40.875-23.599609zm-89.66015625 37.599609-3.46484375 2h26.125 81v-2h-81z" fill="#e5a50a" transform="translate(0 172)"/>
    <g fill="none" stroke="#b38108">
      <g stroke-width="1.095445" transform="matrix(1 0 0 .83333333 0 47.333333)">
        <path d="m101.5 278v6"/>
        <path d="m86.5 278v6"/>
        <path d="m71.5 278v6"/>
        <path d="m56.5 278v6"/>
        <path d="m41.5 278v6"/>
        <path d="m26.5 278v6"/>
        <path d="m11.5 278v6"/>
      </g>
      <g>
        <path d="m98.5 281v3"/>
        <path d="m95.5 281v3"/>
        <path d="m92.5 281v3"/>
        <path d="m89.5 281v3"/>
        <path d="m83.5 281v3"/>
        <path d="m80.5 281v3"/>
        <path d="m77.5 281v3"/>
        <path d="m74.5 281v3"/>
        <path d="m68.5 281v3"/>
        <path d="m65.5 281v3"/>
        <path d="m62.5 281v3"/>
        <path d="m59.5 281v3"/>
        <path d="m53.5 281v3"/>
        <path d="m50.5 281v3"/>
        <path d="m47.5 281v3"/>
        <path d="m44.5 281v3"/>
        <path d="m38.5 281v3"/>
        <path d="m35.5 281v3"/>
        <path d="m32.5 281v3"/>
        <path d="m29.5 281v3"/>
        <path d="m23.5 281v3"/>
        <path d="m20.5 281v3"/>
        <path d="m17.5 281v3"/>
        <path d="m14.5 281v3"/>
        <path d="m8.5 281v3"/>
        <path d="m5.5 281v3"/>
      </g>
    </g>
  </g>
</svg>
